<svg xmlns="http://www.w3.org/2000/svg" xmlns:xlink="http://www.w3.org/1999/xlink" width="521" height="53" viewBox="0 0 521 53"><defs><clipPath id="e"><path d="M1 1h39v51H1z"/></clipPath><clipPath id="j"><path d="M41 1h39v51H41z"/></clipPath><clipPath id="k"><path d="M81 1h39v51H81z"/></clipPath><clipPath id="l"><path d="M121 1h39v51h-39z"/></clipPath><clipPath id="m"><path d="M161 1h39v51h-39z"/></clipPath><clipPath id="n"><path d="M201 1h39v51h-39z"/></clipPath><clipPath id="o"><path d="M241 1h39v51h-39z"/></clipPath><clipPath id="p"><path d="M281 1h39v51h-39z"/></clipPath><clipPath id="q"><path d="M321 1h39v51h-39z"/></clipPath><clipPath id="r"><path d="M361 1h39v51h-39z"/></clipPath><clipPath id="s"><path d="M401 1h39v51h-39z"/></clipPath><clipPath id="t"><path d="M441 1h39v51h-39z"/></clipPath><clipPath id="u"><path d="M481 1h39v51h-39z"/></clipPath><g id="a"><path fill="#e9d7ba" d="M4.1 51.8q8.5-12.9 22.5-5.4l2.9 2q2.4 1.8 3 3.4l2.2 4.5q1.3 2.8 1 6.6t-1.4 6.3L17 76.5 5.5 68z"/><path fill="#c7a556" d="M34.4 69.2q-1.1 3.2-4.2 5.3-5.7 3.7-13.2 3.9-7.6 0-12.7-3.8T.2 63.2Q.7 58.5 4 51.8l1.4 16.3L17 76.5z"/><path fill="#000" d="M14.7 35.7v-10l2.7-.1 1.2 9z"/><path fill="#9f550b" d="m18.6 34.6 1.5 11.8-5.4.9V35.7z"/><path fill="#690" d="m27.2 18-9.4 10.6-15.3-6.8L4.9 7.6l5.1 6L7.8 0l8.9 3.5z"/></g><g id="i" transform="translate(42.05 66.7)"><use xlink:href="#a" width="35.8" height="78.3" transform="matrix(-1.01 .1066 -.039 1.05 7.15 -66.7)"/><use xlink:href="#b" width="55.7" height="16.3" transform="matrix(-1.01 -.0975 -.2485 1.02 18 -5.65)"/></g><g id="h"><path fill="#22190b" d="m8.4 3.1-.8-1.2Q6.8.7 5.5.9-.5 2 1.9 7.4q.9 2 .9 4.4 0 4.3 3.4 5.5 1 .6 1.5-.3 3.4-6.8.7-13.9m1.5 12.8q-.7 2.6-3.2 2.3-4-.3-4.4-4.7-.1-2.2-1-3.7-2.7-4.2.1-8Q3-.2 5.2 0q4.4.8 5 5.6 1 5.2-.3 10.3"/><path fill="#493618" d="M8.4 3.1q2.7 7-.7 13.9-.4.9-1.5.4-3.3-1.2-3.4-5.5 0-2.4-1-4.5Q-.4 2 5.6.9q1.3-.2 2 1z"/></g><g id="g"><path fill="#403015" d="m8.4 3.1-.8-1.2Q6.8.7 5.5.9-.5 2 1.9 7.4q.9 2 .9 4.4 0 4.3 3.4 5.5 1 .6 1.5-.3 3.4-6.8.7-13.9m1.5 12.8q-.7 2.6-3.2 2.3-4-.3-4.4-4.7-.1-2.2-1-3.7-2.7-4.2.1-8Q3-.2 5.2 0q4.4.8 5 5.6 1 5.2-.3 10.3"/><path fill="#88652d" d="M8.4 3.1q2.7 7-.7 13.9-.4.9-1.5.4-3.3-1.2-3.4-5.5 0-2.4-1-4.5Q-.4 2 5.6.9q1.3-.2 2 1z"/></g><path id="d" fill="#382c16" d="M0-2.5q2.4 0 4 .8 1.6.6 1.7 1.7Q5.6 1.1 4 1.9t-4 .7-4-.8T-5.6 0t1.7-1.8T0-2.5" transform="translate(5.6 2.5)"/><path id="b" fill="#403015" d="m51.4 0 4.3.1-9.6 3.7-1-2.8zM14.7 9.4l1.1 2.7L0 16.3l1.5-2z"/><use xlink:href="#d" id="f" width="11.3" height="5"/></defs><g clip-path="url(#e)"><g transform="translate(19.6 46.1)"><use xlink:href="#f" width="11.3" height="5" transform="translate(-5.25 -2.15)"/><use xlink:href="#g" width="10.7" height="18.3" transform="matrix(.4101 .3968 .405 -.2143 -4.1 1.15)"/><use xlink:href="#h" width="10.7" height="18.3" transform="matrix(-.0638 -.4881 .473 -.0703 -8.95 2.1)"/><use xlink:href="#i" width="60" height="86" transform="matrix(.5 0 .0838 .5 -18.6 -45.05)"/></g></g><g clip-path="url(#j)"><g transform="translate(59.6 46.1)"><use xlink:href="#f" width="11.3" height="5" transform="translate(-5.25 -2.15)"/><use xlink:href="#g" width="10.7" height="18.3" transform="matrix(.4101 .3968 .405 -.2143 -4.1 1.15)"/><use xlink:href="#h" width="10.7" height="18.3" transform="matrix(-.0638 -.4881 .473 -.0703 -8.95 2.1)"/><use xlink:href="#i" width="60" height="86" transform="matrix(.5 0 .0664 .5021 -17.6 -45.1)"/></g></g><g clip-path="url(#k)"><g transform="translate(99.6 46.1)"><use xlink:href="#f" width="11.3" height="5" transform="translate(-5.25 -2.15)"/><use xlink:href="#g" width="10.7" height="18.3" transform="matrix(.4101 .3968 .405 -.2143 -4.1 1.15)"/><use xlink:href="#h" width="10.7" height="18.3" transform="matrix(-.0638 -.4881 .473 -.0703 -8.95 2.1)"/><use xlink:href="#i" width="60" height="86" transform="matrix(.5 0 .0159 .5055 -14.65 -45.1)"/></g></g><g clip-path="url(#l)"><g transform="translate(139.6 46.1)"><use xlink:href="#f" width="11.3" height="5" transform="translate(-5.25 -2.15)"/><use xlink:href="#g" width="10.7" height="18.3" transform="matrix(.4101 .3968 .405 -.2143 -4.1 1.15)"/><use xlink:href="#h" width="10.7" height="18.3" transform="matrix(-.0638 -.4881 .473 -.0703 -8.95 2.1)"/><use xlink:href="#i" width="60" height="86" transform="matrix(.5 0 -.0654 .5 -9.75 -44.55)"/></g></g><g clip-path="url(#m)"><g transform="translate(179.6 46.1)"><use xlink:href="#f" width="11.3" height="5" transform="translate(-5.25 -2.15)"/><use xlink:href="#g" width="10.7" height="18.3" transform="matrix(.4101 .3968 .405 -.2143 -4.1 1.15)"/><use xlink:href="#h" width="10.7" height="18.3" transform="matrix(-.0638 -.4881 .473 -.0703 -8.95 2.1)"/><use xlink:href="#i" width="60" height="86" transform="matrix(.5 0 -.0639 .4999 -9.85 -44.55)"/></g></g><g clip-path="url(#n)"><g transform="translate(219.6 46.1)"><use xlink:href="#f" width="11.3" height="5" transform="translate(-5.25 -2.15)"/><use xlink:href="#g" width="10.7" height="18.3" transform="matrix(.4101 .3968 .405 -.2143 -4.1 1.15)"/><use xlink:href="#h" width="10.7" height="18.3" transform="matrix(-.0638 -.4881 .473 -.0703 -8.95 2.1)"/><use xlink:href="#i" width="60" height="86" transform="matrix(.5 0 -.0616 .5001 -10.1 -44.5)"/></g></g><g clip-path="url(#o)"><g transform="translate(259.6 46.1)"><use xlink:href="#f" width="11.3" height="5" transform="translate(-5.25 -2.15)"/><use xlink:href="#g" width="10.7" height="18.3" transform="matrix(.4101 .3968 .405 -.2143 -4.1 1.15)"/><use xlink:href="#h" width="10.7" height="18.3" transform="matrix(-.0638 -.4881 .473 -.0703 -8.95 2.1)"/><use xlink:href="#i" width="60" height="86" transform="matrix(.5 0 -.0573 .5004 -10.65 -44.45)"/></g></g><g clip-path="url(#p)"><g transform="translate(299.6 46.1)"><use xlink:href="#f" width="11.3" height="5" transform="translate(-5.25 -2.15)"/><use xlink:href="#g" width="10.7" height="18.3" transform="matrix(.4101 .3968 .405 -.2143 -4.1 1.15)"/><use xlink:href="#h" width="10.7" height="18.3" transform="matrix(-.0638 -.4881 .473 -.0703 -8.95 2.1)"/><use xlink:href="#i" width="60" height="86" transform="matrix(.5 0 -.0509 .5007 -11.25 -44.4)"/></g></g><g clip-path="url(#q)"><g transform="translate(339.6 46.1)"><use xlink:href="#f" width="11.3" height="5" transform="translate(-5.25 -2.15)"/><use xlink:href="#g" width="10.7" height="18.3" transform="matrix(.4101 .3968 .405 -.2143 -4.1 1.15)"/><use xlink:href="#h" width="10.7" height="18.3" transform="matrix(-.0638 -.4881 .473 -.0703 -8.95 2.1)"/><use xlink:href="#i" width="60" height="86" transform="matrix(.5 0 -.0442 .5009 -12.15 -44.3)"/></g></g><g clip-path="url(#r)"><g transform="translate(379.6 46.1)"><use xlink:href="#f" width="11.3" height="5" transform="translate(-5.25 -2.15)"/><use xlink:href="#g" width="10.7" height="18.3" transform="matrix(.4101 .3968 .405 -.2143 -4.1 1.15)"/><use xlink:href="#h" width="10.7" height="18.3" transform="matrix(-.0638 -.4881 .473 -.0703 -8.95 2.1)"/><use xlink:href="#i" width="60" height="86" transform="matrix(.5 0 -.0354 .501 -13.1 -44.2)"/></g></g><g clip-path="url(#s)"><g transform="translate(419.6 46.1)"><use xlink:href="#f" width="11.3" height="5" transform="translate(-5.25 -2.15)"/><use xlink:href="#g" width="10.7" height="18.3" transform="matrix(.4101 .3968 .405 -.2143 -4.1 1.15)"/><use xlink:href="#h" width="10.7" height="18.3" transform="matrix(-.0638 -.4881 .473 -.0703 -8.95 2.1)"/><use xlink:href="#i" width="60" height="86" transform="matrix(.5 0 -.0245 .501 -14.35 -44.1)"/></g></g><g clip-path="url(#t)"><g transform="translate(459.6 46.1)"><use xlink:href="#f" width="11.3" height="5" transform="translate(-5.25 -2.15)"/><use xlink:href="#g" width="10.7" height="18.3" transform="matrix(.4101 .3968 .405 -.2143 -4.1 1.15)"/><use xlink:href="#h" width="10.7" height="18.3" transform="matrix(-.0638 -.4881 .473 -.0703 -8.95 2.1)"/><use xlink:href="#i" width="60" height="86" transform="matrix(.5 0 -.0132 .5007 -15.6 -43.85)"/></g></g><g clip-path="url(#u)"><g transform="translate(499.6 46.1)"><use xlink:href="#f" width="11.3" height="5" transform="translate(-5.25 -2.15)"/><use xlink:href="#g" width="10.7" height="18.3" transform="matrix(.4101 .3968 .405 -.2143 -4.1 1.15)"/><use xlink:href="#h" width="10.7" height="18.3" transform="matrix(-.0638 -.4881 .473 -.0703 -8.95 2.1)"/><use xlink:href="#i" width="60" height="86" transform="matrix(.5 0 0 .5 -17.2 -43.6)"/></g></g></svg>