<svg xmlns="http://www.w3.org/2000/svg" xmlns:xlink="http://www.w3.org/1999/xlink" width="1597" height="51" viewBox="0 0 1597 51"><defs><clipPath id="c"><path d="M1 1h37v49H1z"/></clipPath><clipPath id="e"><path d="M39 1h37v49H39z"/></clipPath><clipPath id="f"><path d="M77 1h37v49H77z"/></clipPath><clipPath id="g"><path d="M115 1h37v49h-37z"/></clipPath><clipPath id="h"><path d="M153 1h37v49h-37z"/></clipPath><clipPath id="i"><path d="M191 1h37v49h-37z"/></clipPath><clipPath id="j"><path d="M229 1h37v49h-37z"/></clipPath><clipPath id="k"><path d="M267 1h37v49h-37z"/></clipPath><clipPath id="l"><path d="M305 1h37v49h-37z"/></clipPath><clipPath id="m"><path d="M343 1h37v49h-37z"/></clipPath><clipPath id="n"><path d="M381 1h37v49h-37z"/></clipPath><clipPath id="o"><path d="M419 1h37v49h-37z"/></clipPath><clipPath id="p"><path d="M457 1h37v49h-37z"/></clipPath><clipPath id="q"><path d="M495 1h37v49h-37z"/></clipPath><clipPath id="r"><path d="M533 1h37v49h-37z"/></clipPath><clipPath id="s"><path d="M571 1h37v49h-37z"/></clipPath><clipPath id="t"><path d="M609 1h37v49h-37z"/></clipPath><clipPath id="u"><path d="M647 1h37v49h-37z"/></clipPath><clipPath id="v"><path d="M685 1h37v49h-37z"/></clipPath><clipPath id="w"><path d="M723 1h37v49h-37z"/></clipPath><clipPath id="x"><path d="M761 1h37v49h-37z"/></clipPath><clipPath id="y"><path d="M799 1h37v49h-37z"/></clipPath><clipPath id="z"><path d="M837 1h37v49h-37z"/></clipPath><clipPath id="A"><path d="M875 1h37v49h-37z"/></clipPath><clipPath id="B"><path d="M913 1h37v49h-37z"/></clipPath><clipPath id="C"><path d="M951 1h37v49h-37z"/></clipPath><clipPath id="D"><path d="M989 1h37v49h-37z"/></clipPath><clipPath id="E"><path d="M1027 1h37v49h-37z"/></clipPath><clipPath id="F"><path d="M1065 1h37v49h-37z"/></clipPath><clipPath id="G"><path d="M1103 1h37v49h-37z"/></clipPath><clipPath id="H"><path d="M1141 1h37v49h-37z"/></clipPath><clipPath id="I"><path d="M1179 1h37v49h-37z"/></clipPath><clipPath id="J"><path d="M1217 1h37v49h-37z"/></clipPath><clipPath id="K"><path d="M1255 1h37v49h-37z"/></clipPath><clipPath id="L"><path d="M1293 1h37v49h-37z"/></clipPath><clipPath id="M"><path d="M1331 1h37v49h-37z"/></clipPath><clipPath id="N"><path d="M1369 1h37v49h-37z"/></clipPath><clipPath id="O"><path d="M1407 1h37v49h-37z"/></clipPath><clipPath id="P"><path d="M1445 1h37v49h-37z"/></clipPath><clipPath id="Q"><path d="M1483 1h37v49h-37z"/></clipPath><clipPath id="R"><path d="M1521 1h37v49h-37z"/></clipPath><clipPath id="S"><path d="M1559 1h37v49h-37z"/></clipPath><g id="b"><path fill="#fcd844" d="M12.7 10.9q.8-4.3 1.9-8.1v-.1l.2 5.4-1.4 8.9q-1.3-1.1-1.8-2l-.2-.4q0-4.3.6-8.1l.3 1.5.3 6.9.2-1.7zm1.8 2.3 4.4-4.5L18 11q-2.6 4.8-4.2 5.6L14 15z"/><path fill="#fff864" d="m14.8 8-.4 5.3-.3 1.7-.4 1.6q1.7-.8 4.3-5.6-2.1 5.3-3.8 6.6l-.8-.6zm-2.5 0 .4 2.9V13l-.1 1.8z"/><path fill="none" stroke="#bb9703" stroke-linecap="round" stroke-linejoin="round" stroke-width="__RESOLUTION__" d="M12.7 10.9q.8-4.3 1.9-8.1v-.1l.2 5.4-.4 5.2 4.4-4.6L18 11q-2.1 5.3-3.8 6.6m-2.8-3q0-4.3.7-8.1l.2 1.5.4 2.9V13l-.1 1.8m1.2 1.6L14 15l.4-1.8" vector-effect="non-scaling-stroke"/><path fill="#fcd844" d="M12.2 10.9 7.8 0l1.7 2q3.7 6 4.8 10.2l-1-.8zm2.6 2q-.2 3.7-.5 5l-.1.7q-2.4.4-4.8-.6l.7-.8 2.6-1 1.2-.9q-.5-.2-1.1 0l-1.2.6Q8.9 14.4 6.2 12q1.6-.9 3-1.2z"/><path fill="#fff864" d="M9.5 2q3.8 4.8 5.2 8.9v2l-5.5-2q1.7-.4 3 0l1.2.4.9.8Q13.3 8 9.4 2m.7 15.3 1.5-1.4 1.2-.6q.6-.2 1 0l-1.1.9z"/><path fill="none" stroke="#bb9703" stroke-linecap="round" stroke-linejoin="round" stroke-width="__RESOLUTION__" d="M12.2 10.9 7.8 0l1.7 2q3.8 4.8 5.2 8.9m-.5 7.7q-2.4.5-4.8-.6l.7-.7 1.5-1.4Q8.9 14.5 6.2 12h0q1.6-.9 3-1.2 1.7-.3 3 0l1.2.5.9.8m-.5 3.2q-.4-.2-1 0l-1.2.7" vector-effect="non-scaling-stroke"/><path fill="#fcd844" d="m.6 14.6-.3-.7-.3-1.3q.1-.6.6-.6.4-.1 1 .5l.8 1 .2-.2q.3-.6.8-.4.5 0 .7.7l.3 1.2.6-.3q.5-.2.9 0t.4.9-.5 1.2l-.6.5-.4-.3-2.5-1.6q-.9-.6-1.7-.6"/><path fill="none" stroke="#d5a504" stroke-linecap="round" stroke-linejoin="round" stroke-width="__RESOLUTION__" d="m5.2 17.1.6-.5q.4-.6.5-1.2t-.4-.8-1 0l-.5.2-.3-1.3q-.2-.5-.7-.6t-.9.4l-.2.2-.7-1q-.6-.6-1-.5t-.6.6l.2 1.3.4.7" vector-effect="non-scaling-stroke"/></g><g id="a"><path fill="#c09e58" d="M4.3 3q-.1.6-.7.8h-.9L2 3.5Q1.2 3 .5 2.2 0 1.4 0 .8T.7.1L1 0l1.2.4 1.4 1.2q.6.8.6 1.4"/><path fill="#fff" d="m3.2 2.5.5.8q0 .4-.5.3-.4 0-1-.5l-1.1-.8-.4-.8q0-.4.4-.3l1.2.4z"/></g><g id="d" transform="translate(2.85 32.05)"><use xlink:href="#a" width="4.3" height="3.8" transform="translate(-1.4 -17.3)"/><use xlink:href="#b" width="18.9" height="18.8" transform="translate(-2.3 -32.05)"/></g></defs><g clip-path="url(#c)"><g transform="translate(1 1)"><use xlink:href="#d" width="19.4" height="18.8" transform="translate(12.2 10.1)"/><use xlink:href="#a" width="4.3" height="3.8" transform="translate(-1.4 -17.3)"/><use xlink:href="#b" width="18.9" height="18.8" transform="translate(-2.3 -32.05)"/></g></g><g clip-path="url(#e)"><g transform="translate(39 1)"><use xlink:href="#d" width="19.4" height="18.8" transform="rotate(-2 287.873 -324.458)"/><use xlink:href="#a" width="4.3" height="3.8" transform="translate(-1.4 -17.3)"/><use xlink:href="#b" width="18.9" height="18.8" transform="translate(-2.3 -32.05)"/></g></g><g clip-path="url(#f)"><g transform="translate(77 1)"><use xlink:href="#d" width="19.4" height="18.8" transform="matrix(.9973 -.0698 .0698 .9973 10.75 9.7)"/><use xlink:href="#a" width="4.3" height="3.8" transform="translate(-1.4 -17.3)"/><use xlink:href="#b" width="18.9" height="18.8" transform="translate(-2.3 -32.05)"/></g></g><g clip-path="url(#g)"><g transform="translate(115 1)"><use xlink:href="#d" width="19.4" height="18.8" transform="rotate(-6.006 96.046 -91.012)scale(.9997)"/><use xlink:href="#a" width="4.3" height="3.8" transform="translate(-1.4 -17.3)"/><use xlink:href="#b" width="18.9" height="18.8" transform="translate(-2.3 -32.05)"/></g></g><g clip-path="url(#h)"><g transform="translate(153 1)"><use xlink:href="#d" width="19.4" height="18.8" transform="rotate(-8.01 71.796 -62.064)scale(.9996)"/><use xlink:href="#a" width="4.3" height="3.8" transform="translate(-1.4 -17.3)"/><use xlink:href="#b" width="18.9" height="18.8" transform="translate(-2.3 -32.05)"/></g></g><g clip-path="url(#i)"><g transform="translate(191 1)"><use xlink:href="#d" width="19.4" height="18.8" transform="rotate(-10.015 57.682 -44.687)scale(.9994)"/><use xlink:href="#a" width="4.3" height="3.8" transform="translate(-1.4 -17.3)"/><use xlink:href="#b" width="18.9" height="18.8" transform="translate(-2.3 -32.05)"/></g></g><g clip-path="url(#j)"><g transform="translate(229 1)"><use xlink:href="#d" width="19.4" height="18.8" transform="rotate(-12.02 48.145 -33.108)scale(.9993)"/><use xlink:href="#a" width="4.3" height="3.8" transform="translate(-1.4 -17.3)"/><use xlink:href="#b" width="18.9" height="18.8" transform="translate(-2.3 -32.05)"/></g></g><g clip-path="url(#k)"><g transform="translate(267 1)"><use xlink:href="#d" width="19.4" height="18.8" transform="matrix(.9694 -.2421 .2421 .9694 7.3 9.3)"/><use xlink:href="#a" width="4.3" height="3.8" transform="translate(-1.4 -17.3)"/><use xlink:href="#b" width="18.9" height="18.8" transform="translate(-2.3 -32.05)"/></g></g><g clip-path="url(#l)"><g transform="translate(305 1)"><use xlink:href="#d" width="19.4" height="18.8" transform="rotate(-16.03 36.502 -18.762)scale(.9991)"/><use xlink:href="#a" width="4.3" height="3.8" transform="translate(-1.4 -17.3)"/><use xlink:href="#b" width="18.9" height="18.8" transform="translate(-2.3 -32.05)"/></g></g><g clip-path="url(#m)"><g transform="translate(343 1)"><use xlink:href="#d" width="19.4" height="18.8" transform="matrix(.9499 -.3093 .3093 .9499 6 9.45)"/><use xlink:href="#a" width="4.3" height="3.8" transform="translate(-1.4 -17.3)"/><use xlink:href="#b" width="18.9" height="18.8" transform="translate(-2.3 -32.05)"/></g></g><g clip-path="url(#n)"><g transform="translate(381 1)"><use xlink:href="#d" width="19.4" height="18.8" transform="rotate(-20.04 29.558 -10.39)scale(.9989)"/><use xlink:href="#a" width="4.3" height="3.8" transform="translate(-1.4 -17.3)"/><use xlink:href="#b" width="18.9" height="18.8" transform="translate(-2.3 -32.05)"/></g></g><g clip-path="url(#o)"><g transform="translate(419 1)"><use xlink:href="#d" width="19.4" height="18.8" transform="rotate(-22.045 27.145 -7.368)scale(.9988)"/><use xlink:href="#a" width="4.3" height="3.8" transform="translate(-1.4 -17.3)"/><use xlink:href="#b" width="18.9" height="18.8" transform="translate(-2.3 -32.05)"/></g></g><g clip-path="url(#p)"><g transform="translate(457 1)"><use xlink:href="#d" width="19.4" height="18.8" transform="rotate(-24.055 25.19 -4.814)scale(.9987)"/><use xlink:href="#a" width="4.3" height="3.8" transform="translate(-1.4 -17.3)"/><use xlink:href="#b" width="18.9" height="18.8" transform="translate(-2.3 -32.05)"/></g></g><g clip-path="url(#q)"><g transform="translate(495 1)"><use xlink:href="#d" width="19.4" height="18.8" transform="rotate(-26.057 23.516 -2.754)scale(.9987)"/><use xlink:href="#a" width="4.3" height="3.8" transform="translate(-1.4 -17.3)"/><use xlink:href="#b" width="18.9" height="18.8" transform="translate(-2.3 -32.05)"/></g></g><g clip-path="url(#r)"><g transform="translate(533 1)"><use xlink:href="#d" width="19.4" height="18.8" transform="rotate(-28.069 22.128 -.95)scale(.9987)"/><use xlink:href="#a" width="4.3" height="3.8" transform="translate(-1.4 -17.3)"/><use xlink:href="#b" width="18.9" height="18.8" transform="translate(-2.3 -32.05)"/></g></g><g clip-path="url(#s)"><g transform="translate(571 1)"><use xlink:href="#d" width="19.4" height="18.8" transform="rotate(-30.075 20.953 .74)scale(.9985)"/><use xlink:href="#a" width="4.3" height="3.8" transform="translate(-1.4 -17.3)"/><use xlink:href="#b" width="18.9" height="18.8" transform="translate(-2.3 -32.05)"/></g></g><g clip-path="url(#t)"><g transform="translate(609 1)"><use xlink:href="#d" width="19.4" height="18.8" transform="rotate(-32.08 19.93 2.059)scale(.9985)"/><use xlink:href="#a" width="4.3" height="3.8" transform="translate(-1.4 -17.3)"/><use xlink:href="#b" width="18.9" height="18.8" transform="translate(-2.3 -32.05)"/></g></g><g clip-path="url(#u)"><g transform="translate(647 1)"><use xlink:href="#d" width="19.4" height="18.8" transform="rotate(-34.088 19.073 3.26)scale(.9985)"/><use xlink:href="#a" width="4.3" height="3.8" transform="translate(-1.4 -17.3)"/><use xlink:href="#b" width="18.9" height="18.8" transform="translate(-2.3 -32.05)"/></g></g><g clip-path="url(#v)"><g transform="translate(685 1)"><use xlink:href="#d" width="19.4" height="18.8" transform="rotate(-36.097 18.3 4.266)scale(.9984)"/><use xlink:href="#a" width="4.3" height="3.8" transform="translate(-1.4 -17.3)"/><use xlink:href="#b" width="18.9" height="18.8" transform="translate(-2.3 -32.05)"/></g></g><g clip-path="url(#w)"><g transform="translate(723 1)"><use xlink:href="#d" width="19.4" height="18.8" transform="rotate(-38.105 17.72 5.229)scale(.9984)"/><use xlink:href="#a" width="4.3" height="3.8" transform="translate(-1.4 -17.3)"/><use xlink:href="#b" width="18.9" height="18.8" transform="translate(-2.3 -32.05)"/></g></g><g clip-path="url(#x)"><g transform="translate(761 1)"><use xlink:href="#d" width="19.4" height="18.8" transform="rotate(-40.145 17.105 6.25)"/><use xlink:href="#a" width="4.3" height="3.8" transform="translate(-1.4 -17.3)"/><use xlink:href="#b" width="18.9" height="18.8" transform="translate(-2.3 -32.05)"/></g></g><g clip-path="url(#y)"><g transform="translate(799 1)"><use xlink:href="#d" width="19.4" height="18.8" transform="rotate(-34.62 18.81 3.75)scale(.9984)"/><use xlink:href="#a" width="4.3" height="3.8" transform="translate(-1.4 -17.3)"/><use xlink:href="#b" width="18.9" height="18.8" transform="translate(-2.3 -32.05)"/></g></g><g clip-path="url(#z)"><g transform="translate(837 1)"><use xlink:href="#d" width="19.4" height="18.8" transform="rotate(-29.322 21.292 .568)scale(.9985)"/><use xlink:href="#a" width="4.3" height="3.8" transform="translate(-1.4 -17.3)"/><use xlink:href="#b" width="18.9" height="18.8" transform="translate(-2.3 -32.05)"/></g></g><g clip-path="url(#A)"><g transform="translate(875 1)"><use xlink:href="#d" width="19.4" height="18.8" transform="rotate(-23.83 25.08 -4.485)scale(.9987)"/><use xlink:href="#a" width="4.3" height="3.8" transform="translate(-1.4 -17.3)"/><use xlink:href="#b" width="18.9" height="18.8" transform="translate(-2.3 -32.05)"/></g></g><g clip-path="url(#B)"><g transform="translate(913 1)"><use xlink:href="#d" width="19.4" height="18.8" transform="rotate(-18.531 31.278 -12.36)scale(.999)"/><use xlink:href="#a" width="4.3" height="3.8" transform="translate(-1.4 -17.3)"/><use xlink:href="#b" width="18.9" height="18.8" transform="translate(-2.3 -32.05)"/></g></g><g clip-path="url(#C)"><g transform="translate(951 1)"><use xlink:href="#d" width="19.4" height="18.8" transform="matrix(.9734 -.2256 .2256 .9734 7.4 9.15)"/><use xlink:href="#a" width="4.3" height="3.8" transform="translate(-1.4 -17.3)"/><use xlink:href="#b" width="18.9" height="18.8" transform="translate(-2.3 -32.05)"/></g></g><g clip-path="url(#D)"><g transform="translate(989 1)"><use xlink:href="#d" width="19.4" height="18.8" transform="rotate(-7.756 73.168 -62.837)scale(.9995)"/><use xlink:href="#a" width="4.3" height="3.8" transform="translate(-1.4 -17.3)"/><use xlink:href="#b" width="18.9" height="18.8" transform="translate(-2.3 -32.05)"/></g></g><g clip-path="url(#E)"><g transform="translate(1027 1)"><use xlink:href="#d" width="19.4" height="18.8" transform="matrix(.999 -.0397 .0397 .999 11.05 9.55)"/><use xlink:href="#a" width="4.3" height="3.8" transform="translate(-1.4 -17.3)"/><use xlink:href="#b" width="18.9" height="18.8" transform="translate(-2.3 -32.05)"/></g></g><g clip-path="url(#F)"><g transform="translate(1065 1)"><use xlink:href="#d" width="19.4" height="18.8" transform="rotate(3.01 -188.585 251.567)scale(.9998)"/><use xlink:href="#a" width="4.3" height="3.8" transform="translate(-1.4 -17.3)"/><use xlink:href="#b" width="18.9" height="18.8" transform="translate(-2.3 -32.05)"/></g></g><g clip-path="url(#G)"><g transform="translate(1103 1)"><use xlink:href="#d" width="19.4" height="18.8" transform="rotate(8.301 -69.794 107.228)scale(.9995)"/><use xlink:href="#a" width="4.3" height="3.8" transform="translate(-1.4 -17.3)"/><use xlink:href="#b" width="18.9" height="18.8" transform="translate(-2.3 -32.05)"/></g></g><g clip-path="url(#H)"><g transform="translate(1141 1)"><use xlink:href="#d" width="19.4" height="18.8" transform="rotate(13.83 -43.117 75.73)"/><use xlink:href="#a" width="4.3" height="3.8" transform="translate(-1.4 -17.3)"/><use xlink:href="#b" width="18.9" height="18.8" transform="translate(-2.3 -32.05)"/></g></g><g clip-path="url(#I)"><g transform="translate(1179 1)"><use xlink:href="#d" width="19.4" height="18.8" transform="matrix(.9655 .2459 -.2532 .9568 16.8 14.45)"/><use xlink:href="#a" width="4.3" height="3.8" transform="translate(-1.4 -17.3)"/><use xlink:href="#b" width="18.9" height="18.8" transform="translate(-2.3 -32.05)"/></g></g><g clip-path="url(#J)"><g transform="translate(1217 1)"><use xlink:href="#d" width="19.4" height="18.8" transform="matrix(.9604 .2537 -.2711 .9421 17.05 16.5)"/><use xlink:href="#a" width="4.3" height="3.8" transform="translate(-1.4 -17.3)"/><use xlink:href="#b" width="18.9" height="18.8" transform="translate(-2.3 -32.05)"/></g></g><g clip-path="url(#K)"><g transform="translate(1255 1)"><use xlink:href="#d" width="19.4" height="18.8" transform="matrix(.9553 .2614 -.2885 .9271 17.15 18.45)"/><use xlink:href="#a" width="4.3" height="3.8" transform="translate(-1.4 -17.3)"/><use xlink:href="#b" width="18.9" height="18.8" transform="translate(-2.3 -32.05)"/></g></g><g clip-path="url(#L)"><g transform="translate(1293 1)"><use xlink:href="#d" width="19.4" height="18.8" transform="matrix(.9503 .2715 -.305 .9128 17.3 20.4)"/><use xlink:href="#a" width="4.3" height="3.8" transform="translate(-1.4 -17.3)"/><use xlink:href="#b" width="18.9" height="18.8" transform="translate(-2.3 -32.05)"/></g></g><g clip-path="url(#M)"><g transform="translate(1331 1)"><use xlink:href="#d" width="19.4" height="18.8" transform="matrix(.9154 .362 -.3995 .8641 18.6 22.55)"/><use xlink:href="#a" width="4.3" height="3.8" transform="translate(-1.4 -17.3)"/><use xlink:href="#b" width="18.9" height="18.8" transform="translate(-2.3 -32.05)"/></g></g><g clip-path="url(#N)"><g transform="translate(1369 1)"><use xlink:href="#d" width="19.4" height="18.8" transform="matrix(.8719 .4531 -.4896 .8068 19.8 24.85)"/><use xlink:href="#a" width="4.3" height="3.8" transform="translate(-1.4 -17.3)"/><use xlink:href="#b" width="18.9" height="18.8" transform="translate(-2.3 -32.05)"/></g></g><g clip-path="url(#O)"><g transform="translate(1407 1)"><use xlink:href="#d" width="19.4" height="18.8" transform="matrix(.8714 .46 -.4895 .8209 19.75 24.35)"/><use xlink:href="#a" width="4.3" height="3.8" transform="translate(-1.4 -17.3)"/><use xlink:href="#b" width="18.9" height="18.8" transform="translate(-2.3 -32.05)"/></g></g><g clip-path="url(#P)"><g transform="translate(1445 1)"><use xlink:href="#d" width="19.4" height="18.8" transform="matrix(.8712 .4695 -.4894 .837 19.8 23.75)"/><use xlink:href="#a" width="4.3" height="3.8" transform="translate(-1.4 -17.3)"/><use xlink:href="#b" width="18.9" height="18.8" transform="translate(-2.3 -32.05)"/></g></g><g clip-path="url(#Q)"><g transform="translate(1483 1)"><use xlink:href="#d" width="19.4" height="18.8" transform="matrix(.871 .4791 -.4892 .8536 19.8 23.2)"/><use xlink:href="#a" width="4.3" height="3.8" transform="translate(-1.4 -17.3)"/><use xlink:href="#b" width="18.9" height="18.8" transform="translate(-2.3 -32.05)"/></g></g><g clip-path="url(#R)"><g transform="translate(1521 1)"><use xlink:href="#d" width="19.4" height="18.8" transform="rotate(29.316 -33.207 49.125)"/><use xlink:href="#a" width="4.3" height="3.8" transform="translate(-1.4 -17.3)"/><use xlink:href="#b" width="18.9" height="18.8" transform="translate(-2.3 -32.05)"/></g></g><g clip-path="url(#S)"><g transform="translate(1559 1)"><use xlink:href="#d" width="19.4" height="18.8" transform="rotate(29.31 -33.337 49.063)scale(.9985)"/><use xlink:href="#a" width="4.3" height="3.8" transform="translate(-1.4 -17.3)"/><use xlink:href="#b" width="18.9" height="18.8" transform="translate(-2.3 -32.05)"/></g></g></svg>