<svg xmlns="http://www.w3.org/2000/svg" xmlns:xlink="http://www.w3.org/1999/xlink" width="1157" height="43" viewBox="0 0 1157 43"><defs><clipPath id="v"><path d="M1 1h33v41H1z"/></clipPath><clipPath id="I"><path d="M35 1h33v41H35z"/></clipPath><clipPath id="K"><path d="M69 1h33v41H69z"/></clipPath><clipPath id="M"><path d="M103 1h33v41h-33z"/></clipPath><clipPath id="O"><path d="M137 1h33v41h-33z"/></clipPath><clipPath id="P"><path d="M171 1h33v41h-33z"/></clipPath><clipPath id="Q"><path d="M205 1h33v41h-33z"/></clipPath><clipPath id="R"><path d="M239 1h33v41h-33z"/></clipPath><clipPath id="S"><path d="M273 1h33v41h-33z"/></clipPath><clipPath id="T"><path d="M307 1h33v41h-33z"/></clipPath><clipPath id="U"><path d="M341 1h33v41h-33z"/></clipPath><clipPath id="V"><path d="M375 1h33v41h-33z"/></clipPath><clipPath id="W"><path d="M409 1h33v41h-33z"/></clipPath><clipPath id="X"><path d="M443 1h33v41h-33z"/></clipPath><clipPath id="Z"><path d="M477 1h33v41h-33z"/></clipPath><clipPath id="ab"><path d="M511 1h33v41h-33z"/></clipPath><clipPath id="ac"><path d="M545 1h33v41h-33z"/></clipPath><clipPath id="ae"><path d="M579 1h33v41h-33z"/></clipPath><clipPath id="ag"><path d="M613 1h33v41h-33z"/></clipPath><clipPath id="ah"><path d="M647 1h33v41h-33z"/></clipPath><clipPath id="aj"><path d="M681 1h33v41h-33z"/></clipPath><clipPath id="al"><path d="M715 1h33v41h-33z"/></clipPath><clipPath id="am"><path d="M749 1h33v41h-33z"/></clipPath><clipPath id="an"><path d="M783 1h33v41h-33z"/></clipPath><clipPath id="ao"><path d="M817 1h33v41h-33z"/></clipPath><clipPath id="ap"><path d="M851 1h33v41h-33z"/></clipPath><clipPath id="aq"><path d="M885 1h33v41h-33z"/></clipPath><clipPath id="ar"><path d="M919 1h33v41h-33z"/></clipPath><clipPath id="as"><path d="M953 1h33v41h-33z"/></clipPath><clipPath id="at"><path d="M987 1h33v41h-33z"/></clipPath><clipPath id="au"><path d="M1021 1h33v41h-33z"/></clipPath><clipPath id="av"><path d="M1055 1h33v41h-33z"/></clipPath><clipPath id="aw"><path d="M1089 1h33v41h-33z"/></clipPath><clipPath id="ax"><path d="M1123 1h33v41h-33z"/></clipPath><use xlink:href="#a" id="ak" width="8.8" height="7"/><use xlink:href="#b" id="ai" width="8.8" height="7"/><use xlink:href="#c" id="af" width="8.8" height="7"/><use xlink:href="#d" id="ad" width="8.8" height="7"/><use xlink:href="#e" id="aa" width="8.8" height="7"/><use xlink:href="#f" id="Y" width="8.8" height="7"/><use xlink:href="#g" id="N" width="8.8" height="7"/><use xlink:href="#h" id="L" width="8.8" height="7"/><use xlink:href="#i" id="J" width="8.8" height="7"/><use xlink:href="#j" id="H" width="1.7" height="21.8"/><use xlink:href="#k" id="G" width="7.7" height="28"/><use xlink:href="#l" id="F" width="3.6" height="4"/><use xlink:href="#m" id="E" width="5.5" height="9.5"/><use xlink:href="#n" id="D" width="1.8" height="4.3"/><use xlink:href="#o" id="C" width="1.9" height="2.4"/><use xlink:href="#p" id="B" width="3.9" height="2.8"/><use xlink:href="#q" id="A" width="2.3" height="4"/><use xlink:href="#r" id="z" width="2.1" height="2.1"/><use xlink:href="#s" id="y" width="2.8" height="1.6"/><use xlink:href="#t" id="x" width="8.8" height="7"/><use xlink:href="#u" id="w" width="14.7" height="4.2"/><g id="a" fill="#f3d38b" fill-opacity=".3"><path d="M8.7 3.7q.3 1-.5 2-.7 1-2.1 1.3l-2.6-.1Q2.3 6.5 2 5.4t.5-2T4.7 2h2.5q1.2.6 1.5 1.6"/><path d="M.6 2.2q.8-.6 1.9-.6t2 .6.9 1.6-.6 1.6q-.7.5-1.9.5t-2-.6T0 3.9t.6-1.6"/><path d="M7.2 3q0 1.2-.6 2.1T4.8 6 2.9 5q-.9-.8-1-2T2.5.7 4.3 0t1.9.9 1 2"/></g><g id="b" fill="#f3d38b" fill-opacity=".3"><path d="M8.7 3.7q.3 1-.5 2-.7 1-2.1 1.3l-2.6-.1Q2.3 6.5 2 5.4t.5-2T4.7 2h2.5q1.2.6 1.5 1.6"/><path d="M.6 2.2q.8-.6 1.9-.6t2 .6.9 1.6-.6 1.6q-.7.5-1.9.5t-2-.6T0 3.9t.6-1.6"/><path d="M7.2 3q0 1.2-.6 2.1T4.8 6 2.9 5q-.9-.8-1-2T2.5.7 4.3 0t1.9.9 1 2"/></g><g id="c" fill="#f3d38b" fill-opacity=".4"><path d="M8.7 3.7q.3 1-.5 2-.7 1-2.1 1.3l-2.6-.1Q2.3 6.5 2 5.4t.5-2T4.7 2h2.5q1.2.6 1.5 1.6"/><path d="M.6 2.2q.8-.6 1.9-.6t2 .6.9 1.6-.6 1.6q-.7.5-1.9.5t-2-.6T0 3.9t.6-1.6"/><path d="M7.2 3q0 1.2-.6 2.1T4.8 6 2.9 5q-.9-.8-1-2T2.5.7 4.3 0t1.9.9 1 2"/></g><g id="d" fill="#f3d38b" fill-opacity=".4"><path d="M8.7 3.7q.3 1-.5 2-.7 1-2.1 1.3l-2.6-.1Q2.3 6.5 2 5.4t.5-2T4.7 2h2.5q1.2.6 1.5 1.6"/><path d="M.6 2.2q.8-.6 1.9-.6t2 .6.9 1.6-.6 1.6q-.7.5-1.9.5t-2-.6T0 3.9t.6-1.6"/><path d="M7.2 3q0 1.2-.6 2.1T4.8 6 2.9 5q-.9-.8-1-2T2.5.7 4.3 0t1.9.9 1 2"/></g><g id="e" fill="#f3d38b" fill-opacity=".4"><path d="M8.7 3.7q.3 1-.5 2-.7 1-2.1 1.3l-2.6-.1Q2.3 6.5 2 5.4t.5-2T4.7 2h2.5q1.2.6 1.5 1.6"/><path d="M.6 2.2q.8-.6 1.9-.6t2 .6.9 1.6-.6 1.6q-.7.5-1.9.5t-2-.6T0 3.9t.6-1.6"/><path d="M7.2 3q0 1.2-.6 2.1T4.8 6 2.9 5q-.9-.8-1-2T2.5.7 4.3 0t1.9.9 1 2"/></g><g id="f" fill="#f3d38b" fill-opacity=".5"><path d="M8.7 3.7q.3 1-.5 2-.7 1-2.1 1.3l-2.6-.1Q2.3 6.5 2 5.4t.5-2T4.7 2h2.5q1.2.6 1.5 1.6"/><path d="M.6 2.2q.8-.6 1.9-.6t2 .6.9 1.6-.6 1.6q-.7.5-1.9.5t-2-.6T0 3.9t.6-1.6"/><path d="M7.2 3q0 1.2-.6 2.1T4.8 6 2.9 5q-.9-.8-1-2T2.5.7 4.3 0t1.9.9 1 2"/></g><g id="g" fill="#f3d38b" fill-opacity=".3"><path d="M8.7 3.7q.3 1-.5 2-.7 1-2.1 1.3l-2.6-.1Q2.3 6.5 2 5.4t.5-2T4.7 2h2.5q1.2.6 1.5 1.6"/><path d="M.6 2.2q.8-.6 1.9-.6t2 .6.9 1.6-.6 1.6q-.7.5-1.9.5t-2-.6T0 3.9t.6-1.6"/><path d="M7.2 3q0 1.2-.6 2.1T4.8 6 2.9 5q-.9-.8-1-2T2.5.7 4.3 0t1.9.9 1 2"/></g><g id="h" fill="#f3d38b" fill-opacity=".3"><path d="M8.7 3.7q.3 1-.5 2-.7 1-2.1 1.3l-2.6-.1Q2.3 6.5 2 5.4t.5-2T4.7 2h2.5q1.2.6 1.5 1.6"/><path d="M.6 2.2q.8-.6 1.9-.6t2 .6.9 1.6-.6 1.6q-.7.5-1.9.5t-2-.6T0 3.9t.6-1.6"/><path d="M7.2 3q0 1.2-.6 2.1T4.8 6 2.9 5q-.9-.8-1-2T2.5.7 4.3 0t1.9.9 1 2"/></g><g id="i" fill="#f3d38b" fill-opacity=".4"><path d="M8.7 3.7q.3 1-.5 2-.7 1-2.1 1.3l-2.6-.1Q2.3 6.5 2 5.4t.5-2T4.7 2h2.5q1.2.6 1.5 1.6"/><path d="M.6 2.2q.8-.6 1.9-.6t2 .6.9 1.6-.6 1.6q-.7.5-1.9.5t-2-.6T0 3.9t.6-1.6"/><path d="M7.2 3q0 1.2-.6 2.1T4.8 6 2.9 5q-.9-.8-1-2T2.5.7 4.3 0t1.9.9 1 2"/></g><g id="j"><path fill="#6a3f20" d="m1 .4.5.3v20l-.3-.2z"/><path fill="#2e1b0e" d="M1.5 20.7v.3l-.5.7-.7-.3.1-.9h.8z"/><path fill="#9e632d" d="M.4 20.5V0l.6.4.2 20.1z"/><path fill="#a2b01d" d="M1.7 5.5 0 6.2l.2-1 1.4-.4zm0-4.1L0 2l.2-1L1.5.6zM.1 18l1.5-.4v.8L.1 19z"/><path fill="#ffb612" d="m.3 11 .1-.7 1.3 1.1v.9zm-.1 1.9 1.4-.4v.8l-1.6.6z"/></g><g id="k"><path fill="#d88701" d="M5.2 26.6q.6-5.5.6-12.6-.1-8.2-.5-12.4 1.5 5.9 1.8 13-.5 7-2 12"/><path fill="#75482c" d="M5.3 1.6 5.2 0Q7 7 7.4 14.5 6.6 23.4 5 28l.2-1.4q1.4-5 1.9-12-.3-7.1-1.8-13"/><path fill="#9e632d" d="M5.1 26.6 4.8 28Q1.3 22.4 0 15.6 1 8 5 0l.4 1.6Q1.9 10 1.5 15.5q1.2 5.5 3.6 11"/><path fill="#ffb612" d="M5.1 26.6Q2.7 21 1.6 15.4q.3-5.3 3.8-13.8.8 4.1.9 12.4 0 7.1-1.2 12.5"/><path fill="#fff" d="m2.2 13 .7-2.2 2.6.8 1 1.8zm2.2 11.5v-3.1q1-.8 2.2-1v-.1h.2l.5.1v3.3l-.8.1zm2.1-.7.1-3.5z"/><path fill="#e3e3e3" d="m4.4 24.5-1.9 1.1V23l1.8-1.5zm2.9-4.1.4 1.4-.1 2-.3-.1z"/><path fill="none" stroke="#634527" stroke-linecap="round" stroke-linejoin="round" stroke-width="__RESOLUTION__" d="m6.6 13.4-1.1-1.8-2.6-.7-.8 2m2.2 8.5L2.6 23v2.6m4.8-5.2.4 1.4-.1 2-.3-.1-.8.2-2.1.6m0-3.1q1-.8 2.2-1" vector-effect="non-scaling-stroke"/><path fill="none" stroke="#1f150b" stroke-linecap="round" stroke-linejoin="round" stroke-width="__RESOLUTION__" d="m2.5 25.7 1.9-1.3m2.2-4.1h.2l.5.1" vector-effect="non-scaling-stroke"/><path fill="none" stroke="#e3e3e3" stroke-linecap="round" stroke-linejoin="round" stroke-width="__RESOLUTION__" d="M6.6 20.4 6.5 24" vector-effect="non-scaling-stroke"/><path fill="none" stroke="#d88701" stroke-linecap="round" stroke-linejoin="round" stroke-width="__RESOLUTION__" d="m6.1 12.2-3.2-2M6 8.9 4.3 7.6m1.8 10.7L2.9 20m3.4-4.7-1.9 1M3.9 4.6 5.8 6" vector-effect="non-scaling-stroke"/><path fill="none" stroke="#ffb612" stroke-linecap="round" stroke-linejoin="round" stroke-width="__RESOLUTION__" d="m6.2 9.9.5-1.1M6 3.7l-.4 1.1M6 13l1-1.9m-1 3.6.6 1M6 17.1l.9 1.3" vector-effect="non-scaling-stroke"/></g><g id="l"><path fill="#ffb612" d="M3.7 0q-.3 2-1 4Q2 2.4 0 .6 2.9.7 3.7 0"/><path fill="none" stroke="#d38401" stroke-linecap="round" stroke-linejoin="round" stroke-width="__RESOLUTION__" d="M3.7 0Q2.8.8 0 .6 2.2 2.4 2.7 4q.7-2 1-4.1" vector-effect="non-scaling-stroke"/></g><g id="m"><path fill="#ad7237" d="M5.3 5.4 4.1 6q-.1.5.4 1.5T4.7 9l-2.5.5V8.3q-.2-.9.5-1.7l.7.3.7-.9-.5.1-2.3.1q.5-1.8.4-3.2 1.9 1.5 3.6 1.6z"/><path fill="#815529" d="m4.6 2.8.7 1.9Q3.6 4.5 1.7 3l-.4-1.4 1.5-.2zM4.1 6l-.7.9-.7-.3q-.8.9-.6 1.8L1 7.7.2 5.6.8 5l.5 1.3 2.3-.1z"/><path fill="#b5824f" d="m.4 2.4.9-.8.3 1.4q.2 1.4-.3 3.2L.8 4.9l-.6.6q-.4-1.2.2-3.1m1.9 6.4-.1.7-1.4-.2q.3-.5.1-1.5l1.3.6z"/><path fill="none" stroke="#432d16" stroke-linecap="round" stroke-linejoin="round" stroke-width="__RESOLUTION__" d="M4 6q0 .5.4 1.5T4.8 9m-3.9.3q.2-.5.1-1.5L.2 5.5q-.4-1.2.2-3.1m2.9 2.5.3 1.2m1.7-1.4v.7L4.1 6" vector-effect="non-scaling-stroke"/><path fill="#ffb612" d="M2 2 4.9.7l.7.9-1 .5-1 .4L3 3q-.9-.3-1-.9"/><path fill="#ffd652" d="M4.8.7 2.1 2v-.7L4.3 0z"/><path fill="none" stroke="#d38401" stroke-linecap="round" stroke-linejoin="round" stroke-width="__RESOLUTION__" d="m4.5 2.2-.7-1-.2-.7m0 2q-.7-.2-.9-.9V1" vector-effect="non-scaling-stroke"/></g><g id="n"><path fill="#ad7237" d="M.8 0 1 1.5l.2 2.1-1-.1L0 .4z"/><path fill="none" stroke="#432d16" stroke-linecap="round" stroke-linejoin="round" stroke-width="__RESOLUTION__" d="m1.3 3.6-.2-2.1L.7 0" vector-effect="non-scaling-stroke"/><path fill="none" stroke="#ffb612" stroke-linecap="round" stroke-linejoin="round" stroke-width="__RESOLUTION__" d="m1.5 4-.6.3Q.6 4.3.3 4L0 3.4l.3-.6q.3-.3.6-.3t.6.3l.3.6z" vector-effect="non-scaling-stroke"/></g><g id="o"><path fill="#805933" d="m1.9 1.8-1.1.6L.6 2 0 1.5.3.7.6 2z"/><path fill="#ad7237" d="m.3.7 1-.6.6 1.8L.6 2z"/><path fill="none" stroke="#432d16" stroke-linecap="round" stroke-linejoin="round" stroke-width="__RESOLUTION__" d="m1.9 1.8-1.1.6L.6 2m0 0L0 1.5.3.7V.6m1-.6.6 1.8" vector-effect="non-scaling-stroke"/></g><g id="p"><path fill="#ad7237" d="M0 1.9q.9-.2 1.7-1Q2.3.3 3 0l.7.2.1.1q.1.4-.2.8l-3 1.7z"/><path fill="none" stroke="#432d16" stroke-linecap="round" stroke-linejoin="round" stroke-width="__RESOLUTION__" d="M3.2 0H3q-.7.2-1.4 1-.8.7-1.7.9M3.8.2 3.2 0" vector-effect="non-scaling-stroke"/></g><g id="q"><path fill="#ad7237" d="M2.2 3.9q-.1.4-1-.2L.1 1.5Q-.1.6.2.2L.8 0z"/><path fill="#815529" d="m.8 0 .2.2q.7.7.8 1.5l.5 1.7-.1.4z"/><path fill="none" stroke="#432d16" stroke-linecap="round" stroke-linejoin="round" stroke-width="__RESOLUTION__" d="M1.2 3.7.1 1.5" vector-effect="non-scaling-stroke"/></g><g id="r"><path fill="#ad7237" d="M.9 2.2H0L1.2 0l.9.6z"/><path fill="none" stroke="#432d16" stroke-linecap="round" stroke-linejoin="round" stroke-width="__RESOLUTION__" d="M.9 2.2 2 .5M1-.1 0 2.2" vector-effect="non-scaling-stroke"/></g><g id="s"><path fill="#ad7237" d="M.8 1.7.9.3h1.5l.4 1z"/><path fill="#b5824f" d="M.9.3.8 1.6 0 .6.4 0z"/><path fill="none" stroke="#432d16" stroke-linecap="round" stroke-linejoin="round" stroke-width="__RESOLUTION__" d="m.8 1.7 2-.4-.4-1" vector-effect="non-scaling-stroke"/><path fill="none" stroke="#5b3d1e" stroke-linecap="round" stroke-linejoin="round" stroke-width="__RESOLUTION__" d="m0 .6.8 1" vector-effect="non-scaling-stroke"/></g><g id="t" fill="#f3d38b" fill-opacity=".5"><path d="M8.7 3.7q.3 1-.5 2-.7 1-2.1 1.3l-2.6-.1Q2.3 6.5 2 5.4t.5-2T4.7 2h2.5q1.2.6 1.5 1.6"/><path d="M.6 2.2q.8-.6 1.9-.6t2 .6.9 1.6-.6 1.6q-.7.5-1.9.5t-2-.6T0 3.9t.6-1.6"/><path d="M7.2 3q0 1.2-.6 2.1T4.8 6 2.9 5q-.9-.8-1-2T2.5.7 4.3 0t1.9.9 1 2"/></g><path id="u" fill="#382c16" d="M5.8-1.9Q7.9-1.4 8-.5 8 .3 5.9 1 3.8 1.8.7 2l-5.2-.4Q-6.7 1.2-6.7.3q-.1-.8 2-1.6 2.2-.8 5.2-.9z" transform="translate(6.75 2.2)"/></defs><g clip-path="url(#v)"><g transform="translate(21.1 38.75)"><use xlink:href="#w" width="14.7" height="4.2" transform="matrix(.3258 0 0 .3377 .2 -.45)"/><use xlink:href="#x" width="8.8" height="7" transform="translate(-11.6 -8.2)"/><use xlink:href="#y" width="2.8" height="1.6" transform="matrix(-.2416 1.5125 -1.1161 .3306 -2.2 -8.1)"/><use xlink:href="#z" width="2.1" height="2.1" transform="matrix(1.1159 .5571 -.7955 .6646 -1.55 -8.95)"/><use xlink:href="#A" width="2.3" height="4" transform="matrix(.9356 .5571 -.667 .6646 1.2 -11.5)"/><use xlink:href="#B" width="3.9" height="2.8" transform="matrix(.6712 .6135 .671 -.7342 -1.9 -20.15)"/><use xlink:href="#C" width="1.9" height="2.4" transform="matrix(-.8813 -.5342 -.4066 .8622 -1.6 -21.95)"/><use xlink:href="#D" width="1.8" height="4.3" transform="matrix(-.2322 -1.008 -.8699 .1111 .45 -21.5)"/><use xlink:href="#E" width="5.5" height="9.5" transform="matrix(.9698 -.1986 .2418 .9809 -3.65 -19.7)"/><use xlink:href="#F" width="3.6" height="4" transform="matrix(.9975 -.0299 -.6496 1.0179 -.2 -11.35)"/><use xlink:href="#G" width="7.7" height="28" transform="rotate(-20.306 -101.201 .32)scale(.9967)"/><use xlink:href="#A" width="2.3" height="4" transform="matrix(-.3752 -.9238 .99 -.2121 .45 -9.8)"/><use xlink:href="#z" width="2.1" height="2.1" transform="matrix(-.6414 -.8425 1.2816 -.2621 4.3 -10.5)"/><use xlink:href="#y" width="2.8" height="1.6" transform="matrix(.5464 -1.8448 1.2919 .3276 5.75 -10.9)"/><use xlink:href="#D" width="1.8" height="4.3" transform="matrix(.2034 .9918 -.972 .1515 -4.85 -20.6)"/><use xlink:href="#B" width="3.9" height="2.8" transform="matrix(.4597 .9133 -.8801 .4151 -3.5 -21.45)"/><use xlink:href="#H" width="1.7" height="21.8" transform="matrix(.8731 -.4198 -.464 -.9064 -6.1 -11.7)"/><use xlink:href="#C" width="1.9" height="2.4" transform="matrix(.2034 .9918 -.972 .1515 -7.7 -20.2)"/></g></g><g clip-path="url(#I)"><g transform="translate(55.1 38.75)"><use xlink:href="#w" width="14.7" height="4.2" transform="matrix(.3659 .0098 0 .364 .5 -.5)"/><use xlink:href="#J" width="8.8" height="7" transform="matrix(1.0995 .0396 0 .7791 -12.4 -7.55)"/><use xlink:href="#y" width="2.8" height="1.6" transform="matrix(-.2591 1.4295 -1.0974 .2842 -1.5 -7.75)"/><use xlink:href="#z" width="2.1" height="2.1" transform="matrix(1.1038 .5161 -.7466 .6927 -1.1 -8.55)"/><use xlink:href="#A" width="2.3" height="4" transform="matrix(1.0345 .3327 -.5021 .7937 1.1 -10.85)"/><use xlink:href="#B" width="3.9" height="2.8" transform="matrix(.724 .5083 .6061 -.8247 -1.8 -18.95)"/><use xlink:href="#C" width="1.9" height="2.4" transform="matrix(-.9294 -.3961 -.3292 .915 -1.5 -20.7)"/><use xlink:href="#D" width="1.8" height="4.3" transform="matrix(-.3154 -.9668 -.8613 .2353 .55 -20.5)"/><use xlink:href="#E" width="5.5" height="9.5" transform="matrix(.9698 -.1937 .1981 .9932 -3.2 -19.15)"/><use xlink:href="#F" width="3.6" height="4" transform="matrix(.9969 -.0354 -.5055 1.0567 -.25 -10.9)"/><use xlink:href="#G" width="7.7" height="28" transform="rotate(-17.581 -114.585 -.835)scale(.9952)"/><use xlink:href="#A" width="2.3" height="4" transform="matrix(-.1694 -.9812 1.0158 .0184 .35 -9.25)"/><use xlink:href="#z" width="2.1" height="2.1" transform="matrix(-.4311 -.9541 1.309 -.0519 3.8 -9.05)"/><use xlink:href="#y" width="2.8" height="1.6" transform="matrix(.7222 -1.7398 1.184 .4796 5.2 -9.15)"/><use xlink:href="#D" width="1.8" height="4.3" transform="matrix(.3887 .9476 -.9173 .3166 -4.8 -19.55)"/><use xlink:href="#B" width="3.9" height="2.8" transform="matrix(.5157 .8806 -.8491 .4715 -3.45 -20.55)"/><use xlink:href="#H" width="1.7" height="21.8" transform="matrix(.8236 -.5063 -.5544 -.8515 -5.05 -10.8)"/><use xlink:href="#C" width="1.9" height="2.4" transform="matrix(.3887 .9476 -.9173 .3166 -7.4 -18.8)"/></g></g><g clip-path="url(#K)"><g transform="translate(89.1 38.75)"><use xlink:href="#w" width="14.7" height="4.2" transform="matrix(.4057 .0216 0 .3902 .8 -.55)"/><use xlink:href="#L" width="8.8" height="7" transform="matrix(1.1969 .0902 0 .5581 -13.25 -7)"/><use xlink:href="#y" width="2.8" height="1.6" transform="matrix(-.2746 1.3471 -1.078 .2394 -.9 -7.4)"/><use xlink:href="#z" width="2.1" height="2.1" transform="matrix(1.092 .4765 -.6978 .7191 -.7 -8.2)"/><use xlink:href="#A" width="2.3" height="4" transform="matrix(1.082 .0957 -.3138 .8846 1.15 -10.2)"/><use xlink:href="#B" width="3.9" height="2.8" transform="matrix(.7636 .3988 .5281 -.9122 -1.75 -17.55)"/><use xlink:href="#C" width="1.9" height="2.4" transform="matrix(-.9575 -.2578 -.2452 .962 -1.4 -19.4)"/><use xlink:href="#D" width="1.8" height="4.3" transform="matrix(-.3961 -.9185 -.835 .3596 .55 -19.45)"/><use xlink:href="#E" width="5.5" height="9.5" transform="matrix(.9702 -.1897 .155 1.004 -2.8 -18.6)"/><use xlink:href="#F" width="3.6" height="4" transform="matrix(.9962 -.0437 -.3621 1.0779 -.35 -10.35)"/><use xlink:href="#G" width="7.7" height="28" transform="matrix(.9606 -.2585 .2585 .9606 -4 -34)"/><use xlink:href="#A" width="2.3" height="4" transform="matrix(.0393 -.9946 .9872 .2516 .25 -8.6)"/><use xlink:href="#z" width="2.1" height="2.1" transform="matrix(-.2034 -1.0168 1.3026 .155 3.35 -7.6)"/><use xlink:href="#y" width="2.8" height="1.6" transform="matrix(.8826 -1.6206 1.061 .6088 4.7 -7.55)"/><use xlink:href="#D" width="1.8" height="4.3" transform="matrix(.5659 .8686 -.835 .4688 -4.85 -18.5)"/><use xlink:href="#B" width="3.9" height="2.8" transform="matrix(.572 .8443 -.8158 .5259 -3.4 -19.55)"/><use xlink:href="#H" width="1.7" height="21.8" transform="matrix(.7656 -.5892 -.6374 -.7904 -4 -9.95)"/><use xlink:href="#C" width="1.9" height="2.4" transform="matrix(.5659 .8686 -.835 .4688 -7.15 -17.5)"/></g></g><g clip-path="url(#M)"><g transform="translate(123.1 38.75)"><use xlink:href="#w" width="14.7" height="4.2" transform="matrix(.445 .0371 0 .4165 1.1 -.6)"/><use xlink:href="#N" width="8.8" height="7" transform="matrix(1.292 .1524 0 .3372 -14 -6.4)"/><use xlink:href="#y" width="2.8" height="1.6" transform="matrix(-.2866 1.2647 -1.0567 .1963 -.15 -7.1)"/><use xlink:href="#z" width="2.1" height="2.1" transform="matrix(1.0774 .4414 -.6483 .7422 -.15 -7.75)"/><use xlink:href="#A" width="2.3" height="4" transform="matrix(1.0756 -.142 -.1103 .9317 1.25 -9.55)"/><use xlink:href="#B" width="3.9" height="2.8" transform="matrix(.7865 .2905 .4381 -.9923 -1.45 -16.35)"/><use xlink:href="#C" width="1.9" height="2.4" transform="matrix(-.9656 -.1195 -.1552 1.0013 -1.35 -18.1)"/><use xlink:href="#D" width="1.8" height="4.3" transform="matrix(-.4707 -.8636 -.7905 .4812 .5 -18.4)"/><use xlink:href="#E" width="5.5" height="9.5" transform="matrix(.97 -.1889 .1113 1.013 -2.5 -18.05)"/><use xlink:href="#F" width="3.6" height="4" transform="matrix(.9957 -.0488 -.2249 1.0796 -.35 -9.85)"/><use xlink:href="#G" width="7.7" height="28" transform="rotate(-12.54 -153.378 -4.185)scale(.9944)"/><use xlink:href="#A" width="2.3" height="4" transform="matrix(.2459 -.963 .9056 .4729 .15 -8.05)"/><use xlink:href="#z" width="2.1" height="2.1" transform="matrix(.0232 -1.0266 1.2622 .3628 2.75 -6.25)"/><use xlink:href="#y" width="2.8" height="1.6" transform="matrix(1.0263 -1.4873 .9233 .7173 4.2 -5.7)"/><use xlink:href="#D" width="1.8" height="4.3" transform="matrix(.7273 .7565 -.7283 .6023 -4.8 -17.4)"/><use xlink:href="#B" width="3.9" height="2.8" transform="matrix(.6259 .8045 -.7791 .578 -3.35 -18.7)"/><use xlink:href="#H" width="1.7" height="21.8" transform="matrix(.7015 -.6633 -.716 -.7189 -3 -9.3)"/><use xlink:href="#C" width="1.9" height="2.4" transform="matrix(.7273 .7565 -.7283 .6023 -6.75 -16.05)"/></g></g><g clip-path="url(#O)"><g transform="translate(157.1 38.75)"><use xlink:href="#w" width="14.7" height="4.2" transform="matrix(.4839 .0534 0 .4428 1.35 -.7)"/><use xlink:href="#N" width="8.8" height="7" transform="matrix(1.292 .1524 0 .3372 -14 -6.4)"/><use xlink:href="#y" width="2.8" height="1.6" transform="matrix(-.2952 1.1825 -1.0338 .1551 .45 -6.75)"/><use xlink:href="#z" width="2.1" height="2.1" transform="matrix(1.0632 .4037 -.5984 .7622 .3 -7.4)"/><use xlink:href="#A" width="2.3" height="4" transform="matrix(1.0158 -.3757 .0981 .9321 1.25 -8.9)"/><use xlink:href="#B" width="3.9" height="2.8" transform="matrix(.7952 .1805 .3368 -1.0634 -1.2 -15)"/><use xlink:href="#C" width="1.9" height="2.4" transform="matrix(-.9541 .0127 -.0633 1.0317 -1.2 -16.85)"/><use xlink:href="#D" width="1.8" height="4.3" transform="matrix(-.5386 -.803 -.7283 .5974 .55 -17.5)"/><use xlink:href="#E" width="5.5" height="9.5" transform="matrix(.9705 -.185 .0672 1.0202 -2.15 -17.45)"/><use xlink:href="#F" width="3.6" height="4" transform="matrix(.9949 -.0571 -.089 1.0648 -.45 -9.25)"/><use xlink:href="#G" width="7.7" height="28" transform="matrix(.9788 -.173 .173 .9788 -1.5 -32.7)"/><use xlink:href="#A" width="2.3" height="4" transform="matrix(.4442 -.8876 .7751 .6705 .1 -7.55)"/><use xlink:href="#z" width="2.1" height="2.1" transform="matrix(.2504 -.984 1.1888 .562 2.2 -5.05)"/><use xlink:href="#y" width="2.8" height="1.6" transform="matrix(1.1521 -1.3422 .7797 .7975 3.65 -4.05)"/><use xlink:href="#D" width="1.8" height="4.3" transform="matrix(.8666 .6145 -.6012 .7131 -4.9 -16.35)"/><use xlink:href="#B" width="3.9" height="2.8" transform="matrix(.6794 .759 -.739 .6276 -3.35 -17.75)"/><use xlink:href="#H" width="1.7" height="21.8" transform="matrix(.6279 -.7326 -.7868 -.6397 -2.1 -8.55)"/><use xlink:href="#C" width="1.9" height="2.4" transform="matrix(.8666 .6145 -.6012 .7131 -6.45 -14.55)"/></g></g><g clip-path="url(#P)"><g transform="translate(191.1 38.75)"><use xlink:href="#w" width="14.7" height="4.2" transform="matrix(.5219 .0734 0 .4691 1.75 -.85)"/><use xlink:href="#N" width="8.8" height="7" transform="matrix(1.292 .1524 0 .3372 -14 -6.4)"/><use xlink:href="#y" width="2.8" height="1.6" transform="matrix(-.3004 1.1005 -1.0094 .1156 1.1 -6.45)"/><use xlink:href="#z" width="2.1" height="2.1" transform="matrix(1.0477 .3671 -.5507 .7773 .8 -7.1)"/><use xlink:href="#A" width="2.3" height="4" transform="matrix(.906 -.5904 .3013 .8858 1.4 -8.25)"/><use xlink:href="#B" width="3.9" height="2.8" transform="matrix(.789 .0733 .229 -1.1231 -.85 -13.75)"/><use xlink:href="#C" width="1.9" height="2.4" transform="matrix(-.9238 .1424 .0328 1.0534 -1.2 -15.6)"/><use xlink:href="#D" width="1.8" height="4.3" transform="matrix(-.5996 -.7373 -.6489 .7055 .6 -16.55)"/><use xlink:href="#E" width="5.5" height="9.5" transform="matrix(.9709 -.181 .0227 1.0253 -1.75 -16.8)"/><use xlink:href="#F" width="3.6" height="4" transform="matrix(.994 -.0654 .0364 1.0334 -.45 -8.75)"/><use xlink:href="#G" width="7.7" height="28" transform="matrix(.985 -.1298 .1298 .985 -.3 -32.05)"/><use xlink:href="#A" width="2.3" height="4" transform="matrix(.6221 -.772 .6023 .8337 0 -7)"/><use xlink:href="#z" width="2.1" height="2.1" transform="matrix(.4574 -.894 1.0842 .7471 1.75 -3.9)"/><use xlink:href="#y" width="2.8" height="1.6" transform="matrix(1.2631 -1.1834 .6294 .8549 3.25 -2.35)"/><use xlink:href="#D" width="1.8" height="4.3" transform="matrix(.9783 .4471 -.4583 .7983 -4.85 -15.25)"/><use xlink:href="#B" width="3.9" height="2.8" transform="matrix(.7274 .7124 -.6958 .6744 -3.35 -16.7)"/><use xlink:href="#H" width="1.7" height="21.8" transform="matrix(.5475 -.7938 -.849 -.5536 -1.25 -8)"/><use xlink:href="#C" width="1.9" height="2.4" transform="matrix(.9783 .4471 -.4583 .7983 -6.2 -13.05)"/></g></g><g clip-path="url(#Q)"><g transform="translate(225.1 38.75)"><use xlink:href="#w" width="14.7" height="4.2" transform="matrix(.5596 .095 0 .4954 2 -.95)"/><use xlink:href="#y" width="2.8" height="1.6" transform="matrix(-.3022 1.02 -.9836 .08 1.8 -6.1)"/><use xlink:href="#z" width="2.1" height="2.1" transform="matrix(1.0313 .3346 -.501 .7924 1.25 -6.75)"/><use xlink:href="#A" width="2.3" height="4" transform="matrix(.7526 -.7772 .4901 .7969 1.5 -7.6)"/><use xlink:href="#B" width="3.9" height="2.8" transform="matrix(.7689 -.0257 .1107 -1.1722 -.4 -12.55)"/><use xlink:href="#C" width="1.9" height="2.4" transform="matrix(-.877 .2647 .1367 1.0654 -1.15 -14.3)"/><use xlink:href="#D" width="1.8" height="4.3" transform="matrix(-.6546 -.6682 -.554 .8044 .55 -15.5)"/><use xlink:href="#E" width="5.5" height="9.5" transform="matrix(.9711 -.1807 -.0213 1.0285 -1.4 -16.15)"/><use xlink:href="#F" width="3.6" height="4" transform="matrix(.9933 -.0732 .1561 .9872 -.55 -8.2)"/><use xlink:href="#G" width="7.7" height="28" transform="rotate(-4.955 -362.93 -27.86)scale(.9934)"/><use xlink:href="#A" width="2.3" height="4" transform="matrix(.7722 -.6231 .3977 .954 0 -6.5)"/><use xlink:href="#z" width="2.1" height="2.1" transform="matrix(.6412 -.7607 .9541 .9134 1.35 -2.75)"/><use xlink:href="#y" width="2.8" height="1.6" transform="matrix(1.3518 -1.0235 .4825 .8866 2.75 -.7)"/><use xlink:href="#D" width="1.8" height="4.3" transform="matrix(1.0582 .2608 -.3075 .8558 -4.9 -14.05)"/><use xlink:href="#B" width="3.9" height="2.8" transform="matrix(.7725 .6651 -.6516 .7187 -3.2 -15.8)"/><use xlink:href="#H" width="1.7" height="21.8" transform="matrix(.4636 -.8465 -.9016 -.465 -.5 -7.5)"/><use xlink:href="#C" width="1.9" height="2.4" transform="matrix(1.0582 .2608 -.3075 .8558 -5.85 -11.5)"/></g></g><g clip-path="url(#R)"><g transform="translate(259.1 38.75)"><use xlink:href="#w" width="14.7" height="4.2" transform="matrix(.5865 .0826 0 .5327 .5 -1.15)"/><use xlink:href="#y" width="2.8" height="1.6" transform="matrix(-.2174 1.0409 -.9737 .1587 1.8 -6.15)"/><use xlink:href="#z" width="2.1" height="2.1" transform="matrix(1.0726 .1512 -.3554 .8659 .95 -6.65)"/><use xlink:href="#A" width="2.3" height="4" transform="matrix(.6884 -.832 .55 .7548 .9 -7.45)"/><use xlink:href="#B" width="3.9" height="2.8" transform="matrix(.7689 .0201 .1794 -1.1629 -.6 -12.7)"/><use xlink:href="#C" width="1.9" height="2.4" transform="matrix(-.8907 .2104 .0711 1.0713 -1.15 -14.55)"/><use xlink:href="#D" width="1.8" height="4.3" transform="matrix(-.6108 -.7056 -.5983 .7691 .6 -15.65)"/><use xlink:href="#E" width="5.5" height="9.5" transform="matrix(.9798 -.1211 -.059 1.0237 -1.9 -16.35)"/><use xlink:href="#F" width="3.6" height="4" transform="matrix(.9933 -.0704 .1531 .9872 -1.45 -8.3)"/><use xlink:href="#G" width="7.7" height="28" transform="rotate(-2.303 -787.018 -36.973)scale(.9931)"/><use xlink:href="#A" width="2.3" height="4" transform="matrix(.842 -.575 .271 .9895 -.6 -6.5)"/><use xlink:href="#z" width="2.1" height="2.1" transform="matrix(.7276 -.7238 .8271 .9823 .2 -2.8)"/><use xlink:href="#y" width="2.8" height="1.6" transform="matrix(1.4307 -.7552 .3035 .9595 1.35 -.8)"/><use xlink:href="#D" width="1.8" height="4.3" transform="matrix(1.0226 .3728 -.3957 .8172 -5.3 -14.45)"/><use xlink:href="#B" width="3.9" height="2.8" transform="matrix(.7723 .6628 -.6498 .7183 -3.65 -16.15)"/><use xlink:href="#H" width="1.7" height="21.8" transform="matrix(.5505 -.7906 -.8458 -.5569 -1.5 -7.5)"/><use xlink:href="#C" width="1.9" height="2.4" transform="matrix(1.0226 .3728 -.3957 .8172 -6.5 -12.15)"/></g></g><g clip-path="url(#S)"><g transform="translate(293.1 38.75)"><use xlink:href="#w" width="14.7" height="4.2" transform="matrix(.6136 .0677 0 .5699 -1.1 -1.3)"/><use xlink:href="#y" width="2.8" height="1.6" transform="matrix(-.1346 1.0553 -.9581 .2351 1.75 -6.2)"/><use xlink:href="#z" width="2.1" height="2.1" transform="matrix(1.0825 -.0334 -.2028 .9138 .65 -6.65)"/><use xlink:href="#A" width="2.3" height="4" transform="matrix(.6208 -.8834 .6074 .709 .35 -7.35)"/><use xlink:href="#B" width="3.9" height="2.8" transform="matrix(.7662 .0643 .246 -1.1502 -.75 -13.05)"/><use xlink:href="#C" width="1.9" height="2.4" transform="matrix(-.9017 .1558 .0097 1.0736 -1.1 -14.75)"/><use xlink:href="#D" width="1.8" height="4.3" transform="matrix(-.5687 -.7391 -.6436 .7307 .75 -15.85)"/><use xlink:href="#E" width="5.5" height="9.5" transform="matrix(.9851 -.0647 -.0988 1.0174 -2.45 -16.6)"/><use xlink:href="#F" width="3.6" height="4" transform="matrix(.9933 -.0704 .1531 .9872 -2.25 -8.35)"/><use xlink:href="#G" width="7.7" height="28" transform="matrix(.9931 .0002 -.0002 .9931 .4 -31.75)"/><use xlink:href="#A" width="2.3" height="4" transform="matrix(.9099 -.5212 .1465 1.0089 -1.25 -6.55)"/><use xlink:href="#z" width="2.1" height="2.1" transform="matrix(.8161 -.6756 .6961 1.038 -.9 -2.75)"/><use xlink:href="#y" width="2.8" height="1.6" transform="matrix(1.4626 -.491 .1148 .9982 0 -1)"/><use xlink:href="#D" width="1.8" height="4.3" transform="matrix(.977 .4784 -.4821 .769 -5.7 -14.9)"/><use xlink:href="#B" width="3.9" height="2.8" transform="matrix(.7723 .6628 -.6498 .7183 -4.1 -16.5)"/><use xlink:href="#H" width="1.7" height="21.8" transform="matrix(.6331 -.7257 -.7798 -.6454 -2.6 -7.55)"/><use xlink:href="#C" width="1.9" height="2.4" transform="matrix(.977 .4784 -.4821 .769 -7.15 -12.7)"/></g></g><g clip-path="url(#T)"><g transform="translate(327.1 38.75)"><use xlink:href="#w" width="14.7" height="4.2" transform="matrix(.6401 .0534 0 .6072 -2.6 -1.45)"/><use xlink:href="#x" width="8.8" height="7" transform="matrix(.6395 0 -.2603 .4536 -2.55 -2.05)"/><use xlink:href="#y" width="2.8" height="1.6" transform="matrix(-.0474 1.0633 -.9366 .3101 1.7 -6.1)"/><use xlink:href="#z" width="2.1" height="2.1" transform="matrix(1.06 -.2168 -.0413 .9352 .45 -6.6)"/><use xlink:href="#A" width="2.3" height="4" transform="matrix(.5495 -.9293 .6589 .6611 -.2 -7.25)"/><use xlink:href="#B" width="3.9" height="2.8" transform="matrix(.7606 .1107 .3153 -1.1328 -.85 -13.25)"/><use xlink:href="#C" width="1.9" height="2.4" transform="matrix(-.9094 .1038 -.0525 1.0721 -1.15 -15)"/><use xlink:href="#D" width="1.8" height="4.3" transform="matrix(-.5233 -.773 -.6875 .6908 .75 -15.95)"/><use xlink:href="#E" width="5.5" height="9.5" transform="matrix(.9873 -.005 -.1383 1.0095 -2.95 -16.75)"/><use xlink:href="#F" width="3.6" height="4" transform="matrix(.9933 -.0704 .1531 .9872 -3.1 -8.45)"/><use xlink:href="#G" width="7.7" height="28" transform="rotate(2.517 724.914 -13.65)scale(.9928)"/><use xlink:href="#A" width="2.3" height="4" transform="matrix(.976 -.4569 .0182 1.013 -1.85 -6.55)"/><use xlink:href="#z" width="2.1" height="2.1" transform="matrix(.8996 -.6201 .5631 1.0772 -2 -2.75)"/><use xlink:href="#y" width="2.8" height="1.6" transform="matrix(1.4487 -.2372 -.0707 1.0004 -1.3 -1.15)"/><use xlink:href="#D" width="1.8" height="4.3" transform="matrix(.9187 .5817 -.5628 .7116 -6.05 -15.35)"/><use xlink:href="#B" width="3.9" height="2.8" transform="matrix(.7723 .6628 -.6498 .7183 -4.55 -16.85)"/><use xlink:href="#H" width="1.7" height="21.8" transform="matrix(.7083 -.6523 -.7046 -.7263 -3.75 -7.7)"/><use xlink:href="#C" width="1.9" height="2.4" transform="matrix(.9187 .5817 -.5628 .7116 -7.75 -13.35)"/></g></g><g clip-path="url(#U)"><g transform="translate(361.1 38.75)"><use xlink:href="#w" width="14.7" height="4.2" transform="matrix(.6665 .0356 0 .6445 -4.15 -1.6)"/><use xlink:href="#x" width="8.8" height="7" transform="matrix(.7597 0 -.2309 .641 -4.1 -2.85)"/><use xlink:href="#y" width="2.8" height="1.6" transform="matrix(.0332 1.0641 -.9079 .3861 1.7 -6.1)"/><use xlink:href="#z" width="2.1" height="2.1" transform="matrix(1.0054 -.3971 .1182 .9279 .25 -6.55)"/><use xlink:href="#A" width="2.3" height="4" transform="matrix(.4747 -.9696 .7087 .6072 -.8 -7.05)"/><use xlink:href="#B" width="3.9" height="2.8" transform="matrix(.7522 .1566 .3835 -1.1111 -1 -13.4)"/><use xlink:href="#C" width="1.9" height="2.4" transform="matrix(-.9138 .0483 -.117 1.0665 -1.15 -15.25)"/><use xlink:href="#D" width="1.8" height="4.3" transform="matrix(-.4944 -.8033 -.7275 .6297 .7 -16.55)"/><use xlink:href="#E" width="5.5" height="9.5" transform="matrix(.9858 .0484 -.1773 1.0001 -3.4 -17)"/><use xlink:href="#F" width="3.6" height="4" transform="matrix(.9933 -.0704 .1531 .9872 -3.95 -8.55)"/><use xlink:href="#G" width="7.7" height="28" transform="rotate(5.018 364.516 -17.687)scale(.9924)"/><use xlink:href="#A" width="2.3" height="4" transform="matrix(1.0362 -.3887 -.1054 1.0005 -2.5 -6.6)"/><use xlink:href="#z" width="2.1" height="2.1" transform="matrix(.9812 -.5518 .4336 1.0988 -3.15 -2.95)"/><use xlink:href="#y" width="2.8" height="1.6" transform="matrix(1.3932 -.0011 -.2594 .966 -2.7 -1.25)"/><use xlink:href="#D" width="1.8" height="4.3" transform="matrix(.8495 .6781 -.6368 .6458 -6.5 -15.8)"/><use xlink:href="#B" width="3.9" height="2.8" transform="matrix(.7723 .6628 -.6498 .7183 -5 -17.2)"/><use xlink:href="#H" width="1.7" height="21.8" transform="matrix(.773 -.5737 -.6212 -.7986 -5.1 -7.85)"/><use xlink:href="#C" width="1.9" height="2.4" transform="matrix(.8495 .6781 -.6368 .6458 -8.4 -14)"/></g></g><g clip-path="url(#V)"><g transform="translate(395.1 38.75)"><use xlink:href="#w" width="14.7" height="4.2" transform="matrix(.6922 .0184 0 .6818 -5.7 -1.8)"/><use xlink:href="#x" width="8.8" height="7" transform="matrix(.8799 0 -.1431 .8283 -6 -3.7)"/><use xlink:href="#y" width="2.8" height="1.6" transform="matrix(.1171 1.0582 -.8745 .4568 1.65 -6.1)"/><use xlink:href="#z" width="2.1" height="2.1" transform="matrix(.9222 -.5621 .2741 .8934 .15 -6.45)"/><use xlink:href="#A" width="2.3" height="4" transform="matrix(.3971 -1.0038 .7541 .5495 -1.4 -6.95)"/><use xlink:href="#B" width="3.9" height="2.8" transform="matrix(.7417 .1996 .4502 -1.0854 -1.1 -13.7)"/><use xlink:href="#C" width="1.9" height="2.4" transform="matrix(-.9152 -.0043 -.1783 1.0576 -1.2 -15.55)"/><use xlink:href="#D" width="1.8" height="4.3" transform="matrix(-.4676 -.8322 -.7635 .5676 .7 -17.15)"/><use xlink:href="#E" width="5.5" height="9.5" transform="matrix(.9807 .1079 -.2157 .9892 -3.9 -17.1)"/><use xlink:href="#F" width="3.6" height="4" transform="matrix(.9933 -.0704 .1531 .9872 -4.75 -8.6)"/><use xlink:href="#G" width="7.7" height="28" transform="rotate(7.518 243.697 -19.45)scale(.9921)"/><use xlink:href="#A" width="2.3" height="4" transform="matrix(1.0916 -.3138 -.2258 .973 -3.15 -6.65)"/><use xlink:href="#z" width="2.1" height="2.1" transform="matrix(1.0563 -.4772 .3026 1.1064 -4.2 -3)"/><use xlink:href="#y" width="2.8" height="1.6" transform="matrix(1.3007 .2065 -.4349 .8979 -4 -1.5)"/><use xlink:href="#D" width="1.8" height="4.3" transform="matrix(.7704 .7663 -.7013 .5748 -6.9 -16.2)"/><use xlink:href="#B" width="3.9" height="2.8" transform="matrix(.7723 .6628 -.6498 .7183 -5.45 -17.55)"/><use xlink:href="#H" width="1.7" height="21.8" transform="matrix(.8308 -.486 -.5332 -.8597 -6.35 -8.25)"/><use xlink:href="#C" width="1.9" height="2.4" transform="matrix(.7704 .7663 -.7013 .5748 -8.95 -14.55)"/></g></g><g clip-path="url(#W)"><g transform="translate(429.1 38.75)"><use xlink:href="#w" width="14.7" height="4.2" transform="matrix(.7175 0 0 .7191 -7.25 -2)"/><use xlink:href="#x" width="8.8" height="7" transform="translate(-8.05 -4.4)"/><use xlink:href="#y" width="2.8" height="1.6" transform="matrix(.205 1.0453 -.8357 .5273 1.55 -6.1)"/><use xlink:href="#z" width="2.1" height="2.1" transform="matrix(.8111 -.7148 .4253 .8326 .15 -6.5)"/><use xlink:href="#A" width="2.3" height="4" transform="matrix(.3208 -1.0317 .7958 .4896 -1.95 -6.8)"/><use xlink:href="#B" width="3.9" height="2.8" transform="matrix(.7283 .2453 .5143 -1.0578 -1.15 -13.95)"/><use xlink:href="#C" width="1.9" height="2.4" transform="matrix(-.9132 -.0597 -.2454 1.0446 -1.25 -15.8)"/><use xlink:href="#D" width="1.8" height="4.3" transform="matrix(-.4393 -.8602 -.7928 .5062 .6 -17.85)"/><use xlink:href="#E" width="5.5" height="9.5" transform="matrix(.9726 .1669 -.2558 .9771 -4.3 -17.25)"/><use xlink:href="#F" width="3.6" height="4" transform="matrix(.9933 -.0732 .1561 .9872 -5.55 -8.7)"/><use xlink:href="#G" width="7.7" height="28" transform="matrix(.977 .1735 -.1735 .977 -.7 -32)"/><use xlink:href="#A" width="2.3" height="4" transform="matrix(1.1422 -.2331 -.3459 .9306 -3.7 -6.65)"/><use xlink:href="#z" width="2.1" height="2.1" transform="matrix(1.1267 -.394 .178 1.0991 -5.35 -3.15)"/><use xlink:href="#y" width="2.8" height="1.6" transform="matrix(1.1792 .3899 -.5985 .7973 -5.2 -1.55)"/><use xlink:href="#D" width="1.8" height="4.3" transform="matrix(.6853 .8452 -.7605 .4961 -7.3 -16.6)"/><use xlink:href="#B" width="3.9" height="2.8" transform="matrix(.7725 .6651 -.6516 .7187 -5.9 -17.9)"/><use xlink:href="#H" width="1.7" height="21.8" transform="matrix(.8792 -.3946 -.4377 -.9134 -7.75 -8.7)"/><use xlink:href="#C" width="1.9" height="2.4" transform="matrix(.6853 .8452 -.7605 .4961 -9.6 -15.15)"/></g></g><g clip-path="url(#X)"><g transform="translate(463.1 38.75)"><use xlink:href="#w" width="14.7" height="4.2" transform="matrix(.6522 0 0 .6555 -6.15 -1.75)"/><use xlink:href="#Y" width="8.8" height="7" transform="matrix(1.0334 .0101 0 .9264 -9.05 -4.35)"/><use xlink:href="#y" width="2.8" height="1.6" transform="matrix(.6858 .9852 -.5576 .8472 2.55 -7.1)"/><use xlink:href="#z" width="2.1" height="2.1" transform="matrix(.6206 -.8829 .5819 .7623 1.3 -6.95)"/><use xlink:href="#A" width="2.3" height="4" transform="matrix(.2345 -1.055 .8635 .4751 -1.05 -7.65)"/><use xlink:href="#B" width="3.9" height="2.8" transform="matrix(.7306 .3034 .5476 -1.0048 -1.3 -14.9)"/><use xlink:href="#C" width="1.9" height="2.4" transform="matrix(-.9242 -.1344 -.2736 1.016 -1.3 -16.9)"/><use xlink:href="#D" width="1.8" height="4.3" transform="matrix(-.4065 -.8885 -.8187 .441 .6 -18.45)"/><use xlink:href="#E" width="5.5" height="9.5" transform="matrix(.9815 .104 -.1718 .9948 -4.2 -17.75)"/><use xlink:href="#F" width="3.6" height="4" transform="matrix(.9743 -.1074 .2698 .9695 -4.65 -9.15)"/><use xlink:href="#G" width="7.7" height="28" transform="rotate(5.004 374.428 -36.424)scale(.9928)"/><use xlink:href="#A" width="2.3" height="4" transform="matrix(1.126 .0011 -.4813 .9019 -3.1 -7.6)"/><use xlink:href="#z" width="2.1" height="2.1" transform="matrix(1.1504 -.0611 -.1076 1.1136 -5.15 -4.55)"/><use xlink:href="#y" width="2.8" height="1.6" transform="matrix(1.0061 .818 -.8103 .5805 -5.1 -3)"/><use xlink:href="#D" width="1.8" height="4.3" transform="matrix(.6248 .8732 -.7953 .461 -6.8 -17.5)"/><use xlink:href="#B" width="3.9" height="2.8" transform="matrix(.6938 .7615 -.733 .6336 -5.4 -18.75)"/><use xlink:href="#H" width="1.7" height="21.8" transform="matrix(.886 -.3817 -.4205 -.9191 -7.45 -9.4)"/><use xlink:href="#C" width="1.9" height="2.4" transform="matrix(.5891 .8964 -.812 .4327 -9.15 -16.35)"/></g></g><g clip-path="url(#Z)"><g transform="translate(497.1 38.75)"><use xlink:href="#w" width="14.7" height="4.2" transform="matrix(.5869 0 0 .5919 -5.1 -1.45)"/><use xlink:href="#aa" width="8.8" height="7" transform="matrix(1.0665 .0244 0 .8527 -10.05 -4.25)"/><use xlink:href="#y" width="2.8" height="1.6" transform="matrix(1.1423 .6952 -.1638 1.0298 3.4 -7.9)"/><use xlink:href="#z" width="2.1" height="2.1" transform="matrix(.397 -1.0036 .7277 .663 2.55 -7.5)"/><use xlink:href="#A" width="2.3" height="4" transform="matrix(.1467 -1.0721 .9326 .4562 -.25 -8.4)"/><use xlink:href="#B" width="3.9" height="2.8" transform="matrix(.7285 .364 .5795 -.9514 -1.45 -16.05)"/><use xlink:href="#C" width="1.9" height="2.4" transform="matrix(-.9292 -.2111 -.3031 .9867 -1.35 -17.9)"/><use xlink:href="#D" width="1.8" height="4.3" transform="matrix(-.3751 -.9145 -.8394 .3747 .55 -19.1)"/><use xlink:href="#E" width="5.5" height="9.5" transform="matrix(.9868 .0437 -.0888 1.0059 -4.05 -18.3)"/><use xlink:href="#F" width="3.6" height="4" transform="matrix(.9539 -.1431 .3845 .9379 -3.85 -9.6)"/><use xlink:href="#G" width="7.7" height="28" transform="matrix(.9938 -.0002 .0002 .9938 -2.85 -33.5)"/><use xlink:href="#A" width="2.3" height="4" transform="matrix(1.0626 .2223 -.617 .8531 -2.6 -8.4)"/><use xlink:href="#z" width="2.1" height="2.1" transform="matrix(1.0824 .2462 -.3897 1.0539 -4.8 -6)"/><use xlink:href="#y" width="2.8" height="1.6" transform="matrix(.6778 1.1716 -.9483 .3134 -4.9 -4.45)"/><use xlink:href="#D" width="1.8" height="4.3" transform="matrix(.5638 .8991 -.8281 .4274 -6.35 -18.6)"/><use xlink:href="#B" width="3.9" height="2.8" transform="matrix(.5999 .8529 -.8053 .5394 -4.8 -19.55)"/><use xlink:href="#H" width="1.7" height="21.8" transform="matrix(.8931 -.3707 -.4074 -.9239 -7.15 -10.2)"/><use xlink:href="#C" width="1.9" height="2.4" transform="matrix(.4897 .939 -.8604 .3623 -8.65 -17.4)"/></g></g><g clip-path="url(#ab)"><g transform="translate(531.1 38.75)"><use xlink:href="#w" width="14.7" height="4.2" transform="matrix(.5217 0 0 .5284 -4 -1.2)"/><use xlink:href="#J" width="8.8" height="7" transform="matrix(1.0995 .0396 0 .7791 -11 -4.2)"/><use xlink:href="#y" width="2.8" height="1.6" transform="matrix(1.4628 .1932 .278 1.0333 4.45 -8.6)"/><use xlink:href="#z" width="2.1" height="2.1" transform="matrix(.1552 -1.0685 .8581 .533 3.75 -8.15)"/><use xlink:href="#A" width="2.3" height="4" transform="matrix(.0577 -1.0819 1.0018 .4317 .55 -9.1)"/><use xlink:href="#B" width="3.9" height="2.8" transform="matrix(.7214 .4259 .6076 -.8974 -1.6 -17)"/><use xlink:href="#C" width="1.9" height="2.4" transform="matrix(-.9279 -.2894 -.3308 .9565 -1.4 -18.8)"/><use xlink:href="#D" width="1.8" height="4.3" transform="matrix(-.3423 -.9393 -.8548 .3079 .55 -19.65)"/><use xlink:href="#E" width="5.5" height="9.5" transform="matrix(.9883 -.0137 -.0052 1.0101 -3.95 -18.8)"/><use xlink:href="#F" width="3.6" height="4" transform="matrix(.9323 -.1773 .4927 .8944 -3.1 -10)"/><use xlink:href="#G" width="7.7" height="28" transform="rotate(-5.032 -389.406 26.787)scale(.9942)"/><use xlink:href="#A" width="2.3" height="4" transform="matrix(.9579 .4183 -.7506 .7815 -2 -9.25)"/><use xlink:href="#z" width="2.1" height="2.1" transform="matrix(.9335 .5188 -.6488 .9237 -4.5 -7.2)"/><use xlink:href="#y" width="2.8" height="1.6" transform="matrix(.2219 1.394 -1.001 .014 -4.75 -5.85)"/><use xlink:href="#D" width="1.8" height="4.3" transform="matrix(.5018 .9208 -.8607 .3888 -5.85 -19.5)"/><use xlink:href="#B" width="3.9" height="2.8" transform="matrix(.4971 .931 -.8657 .4371 -4.2 -20.25)"/><use xlink:href="#H" width="1.7" height="21.8" transform="matrix(.9013 -.3566 -.3912 -.9299 -6.95 -10.95)"/><use xlink:href="#C" width="1.9" height="2.4" transform="matrix(.3846 .9721 -.9017 .2897 -8.1 -18.5)"/></g></g><g clip-path="url(#ac)"><g transform="translate(565.1 38.75)"><use xlink:href="#w" width="14.7" height="4.2" transform="matrix(.4564 0 0 .4648 -2.95 -.95)"/><use xlink:href="#ad" width="8.8" height="7" transform="matrix(1.1322 .0556 0 .7054 -12.05 -4.15)"/><use xlink:href="#y" width="2.8" height="1.6" transform="matrix(1.5488 -.446 .6959 .8476 5.6 -9.1)"/><use xlink:href="#z" width="2.1" height="2.1" transform="matrix(-.0948 -1.0753 .9637 .3805 5.1 -8.8)"/><use xlink:href="#A" width="2.3" height="4" transform="matrix(-.0247 -1.0843 1.0707 .4016 1.45 -9.9)"/><use xlink:href="#B" width="3.9" height="2.8" transform="matrix(.7108 .4861 .632 -.8429 -1.8 -18.05)"/><use xlink:href="#C" width="1.9" height="2.4" transform="matrix(-.9185 -.3719 -.3569 .9257 -1.45 -19.95)"/><use xlink:href="#D" width="1.8" height="4.3" transform="matrix(-.305 -.9639 -.865 .2409 .5 -20.35)"/><use xlink:href="#E" width="5.5" height="9.5" transform="matrix(.9859 -.0742 .0752 1.0071 -3.85 -19.05)"/><use xlink:href="#F" width="3.6" height="4" transform="matrix(.9102 -.2071 .5988 .8364 -2.3 -10.6)"/><use xlink:href="#G" width="7.7" height="28" transform="rotate(-10.051 -198.79 9.448)scale(.9947)"/><use xlink:href="#A" width="2.3" height="4" transform="matrix(.8177 .5847 -.8738 .6917 -1.3 -10.05)"/><use xlink:href="#z" width="2.1" height="2.1" transform="matrix(.7239 .7276 -.8675 .7309 -4 -8.45)"/><use xlink:href="#y" width="2.8" height="1.6" transform="matrix(-.294 1.4383 -.9614 -.2814 -4.4 -7.1)"/><use xlink:href="#D" width="1.8" height="4.3" transform="matrix(.4394 .9383 -.8916 .3481 -5.25 -20.4)"/><use xlink:href="#B" width="3.9" height="2.8" transform="matrix(.3841 .9967 -.9143 .3252 -3.55 -20.95)"/><use xlink:href="#H" width="1.7" height="21.8" transform="matrix(.9081 -.3453 -.3781 -.9344 -6.55 -11.75)"/><use xlink:href="#C" width="1.9" height="2.4" transform="matrix(.2813 .9928 -.9369 .2126 -7.55 -19.7)"/></g></g><g clip-path="url(#ae)"><g transform="translate(599.1 38.75)"><use xlink:href="#w" width="14.7" height="4.2" transform="matrix(.3911 0 0 .4013 -1.9 -.7)"/><use xlink:href="#af" width="8.8" height="7" transform="matrix(1.1647 .0724 0 .6318 -13.05 -4.05)"/><use xlink:href="#y" width="2.8" height="1.6" transform="matrix(1.3408 -1.1204 1.0101 .4945 6.9 -9.75)"/><use xlink:href="#z" width="2.1" height="2.1" transform="matrix(-.3429 -1.0225 1.0424 .2039 6.35 -9.65)"/><use xlink:href="#A" width="2.3" height="4" transform="matrix(-.1143 -1.0793 1.139 .3658 2.25 -10.75)"/><use xlink:href="#B" width="3.9" height="2.8" transform="matrix(.6934 .5491 .6525 -.7882 -1.85 -19.15)"/><use xlink:href="#C" width="1.9" height="2.4" transform="matrix(-.9033 -.4518 -.3812 .8942 -1.5 -21)"/><use xlink:href="#D" width="1.8" height="4.3" transform="matrix(-.2694 -.9862 -.8699 .1741 .5 -20.85)"/><use xlink:href="#E" width="5.5" height="9.5" transform="matrix(.9794 -.1378 .1584 .9972 -3.75 -19.35)"/><use xlink:href="#F" width="3.6" height="4" transform="matrix(.8864 -.2385 .698 .7658 -1.45 -11)"/><use xlink:href="#G" width="7.7" height="28" transform="rotate(-15.074 -134.714 3.902)scale(.9951)"/><use xlink:href="#A" width="2.3" height="4" transform="matrix(.6541 .7102 -.9861 .5827 -.8 -10.95)"/><use xlink:href="#z" width="2.1" height="2.1" transform="matrix(.4715 .8652 -1.0309 .4877 -3.4 -9.5)"/><use xlink:href="#y" width="2.8" height="1.6" transform="matrix(-.8199 1.284 -.8328 -.5581 -4.2 -8.3)"/><use xlink:href="#D" width="1.8" height="4.3" transform="matrix(.3799 .9505 -.9196 .3082 -4.75 -21.45)"/><use xlink:href="#B" width="3.9" height="2.8" transform="matrix(.2626 1.0486 -.9478 .2112 -2.9 -21.55)"/><use xlink:href="#H" width="1.7" height="21.8" transform="matrix(.9148 -.3338 -.3618 -.9399 -6.35 -12.55)"/><use xlink:href="#C" width="1.9" height="2.4" transform="matrix(.1778 1.0027 -.9653 .1316 -7.1 -20.75)"/></g></g><g clip-path="url(#ag)"><g transform="translate(633.1 38.75)"><use xlink:href="#w" width="14.7" height="4.2" transform="matrix(.3258 0 0 .3377 -.8 -.45)"/><use xlink:href="#L" width="8.8" height="7" transform="matrix(1.1969 .0902 0 .5581 -14.05 -4.05)"/><use xlink:href="#y" width="2.8" height="1.6" transform="matrix(.8347 -1.6924 1.153 .0379 8.3 -10.35)"/><use xlink:href="#z" width="2.1" height="2.1" transform="matrix(-.5723 -.9149 1.0883 .0169 7.65 -10.55)"/><use xlink:href="#A" width="2.3" height="4" transform="matrix(-.2047 -1.0674 1.2065 .3268 3.05 -11.5)"/><use xlink:href="#B" width="3.9" height="2.8" transform="matrix(.6712 .6135 .671 -.7342 -1.9 -20.15)"/><use xlink:href="#C" width="1.9" height="2.4" transform="matrix(-.8813 -.5342 -.4066 .8622 -1.6 -21.95)"/><use xlink:href="#D" width="1.8" height="4.3" transform="matrix(-.2322 -1.008 -.8699 .1111 .45 -21.5)"/><use xlink:href="#E" width="5.5" height="9.5" transform="matrix(.9698 -.1986 .2418 .9809 -3.65 -19.7)"/><use xlink:href="#F" width="3.6" height="4" transform="matrix(.8619 -.2698 .7888 .6863 -.65 -11.4)"/><use xlink:href="#G" width="7.7" height="28" transform="rotate(-20.306 -101.201 .32)scale(.9967)"/><use xlink:href="#A" width="2.3" height="4" transform="matrix(.4773 .7951 -1.0856 .4571 -.1 -11.7)"/><use xlink:href="#z" width="2.1" height="2.1" transform="matrix(.2054 .9227 -1.128 .2117 -2.8 -10.45)"/><use xlink:href="#y" width="2.8" height="1.6" transform="matrix(-1.2699 .9442 -.6299 -.7837 -4.05 -9.5)"/><use xlink:href="#D" width="1.8" height="4.3" transform="matrix(.3186 .9606 -.9471 .2647 -4.3 -22.4)"/><use xlink:href="#B" width="3.9" height="2.8" transform="matrix(.1367 1.0858 -.9673 .0967 -2.25 -22.15)"/><use xlink:href="#H" width="1.7" height="21.8" transform="matrix(.9222 -.3228 -.3481 -.9452 -6.1 -13.3)"/><use xlink:href="#C" width="1.9" height="2.4" transform="matrix(.0778 1.0021 -.987 .047 -6.6 -21.8)"/></g></g><g clip-path="url(#ah)"><g transform="translate(667.1 38.75)"><use xlink:href="#w" width="14.7" height="4.2" transform="matrix(.3659 .0098 0 .364 -.3 -.5)"/><use xlink:href="#ai" width="8.8" height="7" transform="matrix(1.2289 .1088 0 .4845 -15 -4)"/><use xlink:href="#y" width="2.8" height="1.6" transform="matrix(.9845 -1.5405 1.112 .1714 7.55 -8.9)"/><use xlink:href="#z" width="2.1" height="2.1" transform="matrix(-.396 -1.0033 1.0517 .1526 6.95 -9.15)"/><use xlink:href="#A" width="2.3" height="4" transform="matrix(.0147 -1.0857 1.0854 .5022 2.9 -10.6)"/><use xlink:href="#B" width="3.9" height="2.8" transform="matrix(.724 .5083 .6061 -.8247 -1.8 -18.95)"/><use xlink:href="#C" width="1.9" height="2.4" transform="matrix(-.9294 -.3961 -.3292 .915 -1.5 -20.7)"/><use xlink:href="#D" width="1.8" height="4.3" transform="matrix(-.3154 -.9668 -.8613 .2353 .55 -20.5)"/><use xlink:href="#E" width="5.5" height="9.5" transform="matrix(.9698 -.1937 .1981 .9932 -3.2 -19.15)"/><use xlink:href="#F" width="3.6" height="4" transform="matrix(.8921 -.2904 .7808 .6808 -.65 -10.65)"/><use xlink:href="#G" width="7.7" height="28" transform="rotate(-17.581 -114.585 -.835)scale(.9952)"/><use xlink:href="#A" width="2.3" height="4" transform="matrix(.6891 .6344 -.9099 .7066 -.15 -11.2)"/><use xlink:href="#z" width="2.1" height="2.1" transform="matrix(.2956 .9056 -1.1298 .3244 -2.15 -10.05)"/><use xlink:href="#y" width="2.8" height="1.6" transform="matrix(-1.1554 1.0356 -.6961 -.7237 -3.4 -8.95)"/><use xlink:href="#D" width="1.8" height="4.3" transform="matrix(.4782 .9051 -.8819 .4035 -4.35 -21.05)"/><use xlink:href="#B" width="3.9" height="2.8" transform="matrix(.2626 1.0486 -.9478 .2113 -2.45 -21.15)"/><use xlink:href="#H" width="1.7" height="21.8" transform="matrix(.873 -.4314 -.4619 -.8949 -4.95 -12.05)"/><use xlink:href="#C" width="1.9" height="2.4" transform="matrix(.2858 .9774 -.946 .2327 -6.55 -20.2)"/></g></g><g clip-path="url(#aj)"><g transform="translate(701.1 38.75)"><use xlink:href="#w" width="14.7" height="4.2" transform="matrix(.4057 .0216 0 .3902 .1 -.55)"/><use xlink:href="#ak" width="8.8" height="7" transform="matrix(1.2606 .1283 0 .4108 -15.95 -3.95)"/><use xlink:href="#y" width="2.8" height="1.6" transform="matrix(1.1122 -1.3795 1.0567 .2941 6.7 -7.5)"/><use xlink:href="#z" width="2.1" height="2.1" transform="matrix(-.2066 -1.06 .9991 .278 6.05 -7.7)"/><use xlink:href="#A" width="2.3" height="4" transform="matrix(.2351 -1.0583 .9409 .6492 2.65 -9.65)"/><use xlink:href="#B" width="3.9" height="2.8" transform="matrix(.7636 .3988 .5281 -.9122 -1.75 -17.55)"/><use xlink:href="#C" width="1.9" height="2.4" transform="matrix(-.9575 -.2578 -.2452 .962 -1.4 -19.4)"/><use xlink:href="#D" width="1.8" height="4.3" transform="matrix(-.3961 -.9185 -.835 .3596 .55 -19.45)"/><use xlink:href="#E" width="5.5" height="9.5" transform="matrix(.9702 -.1897 .155 1.004 -2.8 -18.6)"/><use xlink:href="#F" width="3.6" height="4" transform="matrix(.9233 -.3103 .7771 .6729 -.65 -9.95)"/><use xlink:href="#G" width="7.7" height="28" transform="matrix(.9606 -.2585 .2585 .9606 -4 -34)"/><use xlink:href="#A" width="2.3" height="4" transform="matrix(.8495 .4202 -.6809 .8994 -.25 -10.75)"/><use xlink:href="#z" width="2.1" height="2.1" transform="matrix(.3879 .8788 -1.1216 .4376 -1.45 -9.5)"/><use xlink:href="#y" width="2.8" height="1.6" transform="matrix(-1.0362 1.1166 -.7596 -.6574 -2.75 -8.4)"/><use xlink:href="#D" width="1.8" height="4.3" transform="matrix(.6323 .8211 -.7952 .5329 -4.45 -19.65)"/><use xlink:href="#B" width="3.9" height="2.8" transform="matrix(.3841 .9967 -.9143 .3253 -2.7 -20.15)"/><use xlink:href="#H" width="1.7" height="21.8" transform="matrix(.812 -.5337 -.5687 -.8324 -3.95 -10.9)"/><use xlink:href="#C" width="1.9" height="2.4" transform="matrix(.4895 .9084 -.87 .4074 -6.45 -18.6)"/></g></g><g clip-path="url(#al)"><g transform="translate(735.1 38.75)"><use xlink:href="#w" width="14.7" height="4.2" transform="matrix(.445 .0371 0 .4165 .6 -.6)"/><use xlink:href="#N" width="8.8" height="7" transform="matrix(1.292 .1524 0 .3372 -17 -3.9)"/><use xlink:href="#y" width="2.8" height="1.6" transform="matrix(1.2209 -1.2056 .9871 .4097 6 -6.1)"/><use xlink:href="#z" width="2.1" height="2.1" transform="matrix(-.01 -1.0812 .9309 .3957 5.35 -6.4)"/><use xlink:href="#A" width="2.3" height="4" transform="matrix(.4453 -.9867 .7793 .763 2.45 -8.8)"/><use xlink:href="#B" width="3.9" height="2.8" transform="matrix(.7865 .2905 .4381 -.9923 -1.45 -16.35)"/><use xlink:href="#C" width="1.9" height="2.4" transform="matrix(-.9656 -.1195 -.1552 1.0013 -1.35 -18.1)"/><use xlink:href="#D" width="1.8" height="4.3" transform="matrix(-.4707 -.8636 -.7905 .4812 .5 -18.4)"/><use xlink:href="#E" width="5.5" height="9.5" transform="matrix(.97 -.1889 .1113 1.013 -2.5 -18.05)"/><use xlink:href="#F" width="3.6" height="4" transform="matrix(.9531 -.334 .7712 .6677 -.65 -9.2)"/><use xlink:href="#G" width="7.7" height="28" transform="rotate(-12.54 -153.378 -4.185)scale(.9944)"/><use xlink:href="#A" width="2.3" height="4" transform="matrix(.9447 .1669 -.4188 1.022 -.35 -10.2)"/><use xlink:href="#z" width="2.1" height="2.1" transform="matrix(.4779 .8425 -1.1001 .5557 -.75 -9.15)"/><use xlink:href="#y" width="2.8" height="1.6" transform="matrix(-.9121 1.1846 -.8148 -.5882 -2.1 -7.8)"/><use xlink:href="#D" width="1.8" height="4.3" transform="matrix(.7694 .7134 -.6923 .643 -4.65 -18.3)"/><use xlink:href="#B" width="3.9" height="2.8" transform="matrix(.4971 .931 -.8657 .4371 -2.85 -19.1)"/><use xlink:href="#H" width="1.7" height="21.8" transform="matrix(.739 -.6276 -.6672 -.7572 -2.95 -9.85)"/><use xlink:href="#C" width="1.9" height="2.4" transform="matrix(.677 .7971 -.7627 .5618 -6.3 -16.75)"/></g></g><g clip-path="url(#am)"><g transform="translate(769.1 38.75)"><use xlink:href="#w" width="14.7" height="4.2" transform="matrix(.4839 .0534 0 .4428 1.1 -.7)"/><use xlink:href="#N" width="8.8" height="7" transform="matrix(1.292 .1524 0 .3372 -17 -3.9)"/><use xlink:href="#y" width="2.8" height="1.6" transform="matrix(1.3019 -1.0297 .907 .5099 5.35 -4.7)"/><use xlink:href="#z" width="2.1" height="2.1" transform="matrix(.1837 -1.0657 .851 .4979 4.45 -5.1)"/><use xlink:href="#A" width="2.3" height="4" transform="matrix(.6336 -.8761 .6077 .8418 2.3 -7.95)"/><use xlink:href="#B" width="3.9" height="2.8" transform="matrix(.7952 .1805 .3368 -1.0634 -1.2 -15)"/><use xlink:href="#C" width="1.9" height="2.4" transform="matrix(-.9541 .0127 -.0633 1.0317 -1.2 -16.85)"/><use xlink:href="#D" width="1.8" height="4.3" transform="matrix(-.5386 -.803 -.7283 .5974 .55 -17.5)"/><use xlink:href="#E" width="5.5" height="9.5" transform="matrix(.9705 -.185 .0672 1.0202 -2.15 -17.45)"/><use xlink:href="#F" width="3.6" height="4" transform="matrix(.9825 -.3584 .7653 .6624 -.65 -8.45)"/><use xlink:href="#G" width="7.7" height="28" transform="matrix(.9788 -.173 .173 .9788 -1.5 -32.7)"/><use xlink:href="#A" width="2.3" height="4" transform="matrix(.9645 -.1057 -.1367 1.0726 -.5 -9.65)"/><use xlink:href="#z" width="2.1" height="2.1" transform="matrix(.562 .7989 -1.0683 .6702 -.05 -8.55)"/><use xlink:href="#y" width="2.8" height="1.6" transform="matrix(-.7844 1.2396 -.8655 -.5116 -1.4 -7.35)"/><use xlink:href="#D" width="1.8" height="4.3" transform="matrix(.8901 .5799 -.5725 .7361 -4.75 -16.9)"/><use xlink:href="#B" width="3.9" height="2.8" transform="matrix(.5999 .8529 -.8053 .5394 -3 -18.1)"/><use xlink:href="#H" width="1.7" height="21.8" transform="matrix(.6554 -.7118 -.7581 -.6679 -2.05 -8.95)"/><use xlink:href="#C" width="1.9" height="2.4" transform="matrix(.8373 .6499 -.6291 .6905 -6.2 -15.1)"/></g></g><g clip-path="url(#an)"><g transform="translate(803.1 38.75)"><use xlink:href="#w" width="14.7" height="4.2" transform="matrix(.5219 .0734 0 .4691 1.55 -.85)"/><use xlink:href="#N" width="8.8" height="7" transform="matrix(1.292 .1524 0 .3372 -17 -3.9)"/><use xlink:href="#y" width="2.8" height="1.6" transform="matrix(1.3624 -.8467 .8156 .5999 4.5 -3.2)"/><use xlink:href="#z" width="2.1" height="2.1" transform="matrix(.3751 -1.0144 .7607 .5865 3.7 -3.85)"/><use xlink:href="#A" width="2.3" height="4" transform="matrix(.7983 -.7276 .4329 .8859 2.1 -7)"/><use xlink:href="#B" width="3.9" height="2.8" transform="matrix(.789 .0733 .229 -1.1231 -.85 -13.75)"/><use xlink:href="#C" width="1.9" height="2.4" transform="matrix(-.9238 .1424 .0328 1.0534 -1.2 -15.6)"/><use xlink:href="#D" width="1.8" height="4.3" transform="matrix(-.5996 -.7373 -.6489 .7055 .6 -16.55)"/><use xlink:href="#E" width="5.5" height="9.5" transform="matrix(.9709 -.181 .0227 1.0253 -1.75 -16.8)"/><use xlink:href="#F" width="3.6" height="4" transform="matrix(1.0113 -.3837 .7593 .6571 -.65 -7.8)"/><use xlink:href="#G" width="7.7" height="28" transform="matrix(.985 -.1298 .1298 .985 -.3 -32.05)"/><use xlink:href="#A" width="2.3" height="4" transform="matrix(.9053 -.3759 .1388 1.0481 -.45 -9.05)"/><use xlink:href="#z" width="2.1" height="2.1" transform="matrix(.6445 .7447 -1.0219 .7867 .6 -8.1)"/><use xlink:href="#y" width="2.8" height="1.6" transform="matrix(-.6545 1.2814 -.9076 -.4337 -.75 -6.8)"/><use xlink:href="#D" width="1.8" height="4.3" transform="matrix(.9876 .4261 -.4437 .8064 -4.85 -15.45)"/><use xlink:href="#B" width="3.9" height="2.8" transform="matrix(.6938 .7615 -.733 .6336 -3.05 -16.9)"/><use xlink:href="#H" width="1.7" height="21.8" transform="matrix(.5623 -.785 -.8354 -.5707 -1.2 -8.2)"/><use xlink:href="#C" width="1.9" height="2.4" transform="matrix(.9673 .4675 -.4752 .7892 -6.05 -13.3)"/></g></g><g clip-path="url(#ao)"><g transform="translate(837.1 38.75)"><use xlink:href="#w" width="14.7" height="4.2" transform="matrix(.5596 .095 0 .4954 2 -.95)"/><use xlink:href="#y" width="2.8" height="1.6" transform="matrix(1.3978 -.6705 .7187 .6752 3.8 -1.75)"/><use xlink:href="#z" width="2.1" height="2.1" transform="matrix(.5545 -.9307 .6611 .6638 2.9 -2.7)"/><use xlink:href="#A" width="2.3" height="4" transform="matrix(.9305 -.55 .2617 .8974 1.95 -6.2)"/><use xlink:href="#B" width="3.9" height="2.8" transform="matrix(.7689 -.0257 .1107 -1.1722 -.4 -12.55)"/><use xlink:href="#C" width="1.9" height="2.4" transform="matrix(-.877 .2647 .1367 1.0654 -1.15 -14.3)"/><use xlink:href="#D" width="1.8" height="4.3" transform="matrix(-.6546 -.6682 -.554 .8044 .55 -15.5)"/><use xlink:href="#E" width="5.5" height="9.5" transform="matrix(.9711 -.1807 -.0213 1.0285 -1.4 -16.15)"/><use xlink:href="#F" width="3.6" height="4" transform="matrix(1.0414 -.409 .7542 .6534 -.65 -7)"/><use xlink:href="#G" width="7.7" height="28" transform="rotate(-4.955 -362.93 -27.86)scale(.9934)"/><use xlink:href="#A" width="2.3" height="4" transform="matrix(.7722 -.6231 .3977 .954 -.5 -8.5)"/><use xlink:href="#z" width="2.1" height="2.1" transform="matrix(.7226 .6836 -.9663 .9001 1.4 -7.6)"/><use xlink:href="#y" width="2.8" height="1.6" transform="matrix(-.5248 1.3112 -.9445 -.3507 -.1 -6.15)"/><use xlink:href="#D" width="1.8" height="4.3" transform="matrix(1.0582 .2608 -.3075 .8558 -4.9 -14.05)"/><use xlink:href="#B" width="3.9" height="2.8" transform="matrix(.7725 .6651 -.6516 .7187 -3.2 -15.8)"/><use xlink:href="#H" width="1.7" height="21.8" transform="matrix(.4636 -.8465 -.9016 -.465 -.5 -7.5)"/><use xlink:href="#C" width="1.9" height="2.4" transform="matrix(1.0582 .2608 -.3075 .8558 -5.85 -11.5)"/></g></g><g clip-path="url(#ap)"><g transform="translate(871.1 38.75)"><use xlink:href="#w" width="14.7" height="4.2" transform="matrix(.6136 .0677 0 .5699 -1.1 -1.3)"/><use xlink:href="#y" width="2.8" height="1.6" transform="matrix(1.4075 -.4783 .5752 .8113 2.35 -1.85)"/><use xlink:href="#z" width="2.1" height="2.1" transform="matrix(.6639 -.8703 .5567 .7503 1.75 -2.85)"/><use xlink:href="#A" width="2.3" height="4" transform="matrix(.9797 -.453 .1482 .9296 1.2 -6.5)"/><use xlink:href="#B" width="3.9" height="2.8" transform="matrix(.7689 .0201 .1794 -1.1629 -.6 -12.7)"/><use xlink:href="#C" width="1.9" height="2.4" transform="matrix(-.8907 .2104 .0711 1.0713 -1.15 -14.55)"/><use xlink:href="#D" width="1.8" height="4.3" transform="matrix(-.6108 -.7056 -.5983 .7691 .6 -15.65)"/><use xlink:href="#E" width="5.5" height="9.5" transform="matrix(.9798 -.1211 -.059 1.0237 -1.9 -16.35)"/><use xlink:href="#F" width="3.6" height="4" transform="matrix(1.0403 -.3488 .6716 .7362 -1.5 -7.3)"/><use xlink:href="#G" width="7.7" height="28" transform="rotate(-2.303 -787.018 -36.973)scale(.9931)"/><use xlink:href="#A" width="2.3" height="4" transform="matrix(.7049 -.7397 .5258 .9075 -1.15 -8.2)"/><use xlink:href="#z" width="2.1" height="2.1" transform="matrix(.874 .5168 -.7483 1.0555 .65 -7.5)"/><use xlink:href="#y" width="2.8" height="1.6" transform="matrix(-.3673 1.3434 -.9527 -.3063 -.25 -6.15)"/><use xlink:href="#D" width="1.8" height="4.3" transform="matrix(1.0226 .3728 -.3957 .8172 -5.3 -14.45)"/><use xlink:href="#B" width="3.9" height="2.8" transform="matrix(.7723 .6628 -.6498 .7183 -3.65 -16.15)"/><use xlink:href="#H" width="1.7" height="21.8" transform="matrix(.5505 -.7906 -.8458 -.5569 -1.5 -7.5)"/><use xlink:href="#C" width="1.9" height="2.4" transform="matrix(1.0226 .3728 -.3957 .8172 -6.5 -12.15)"/></g></g><g clip-path="url(#aq)"><g transform="translate(905.1 38.75)"><use xlink:href="#w" width="14.7" height="4.2" transform="matrix(.6665 .0356 0 .6445 -4.15 -1.6)"/><use xlink:href="#y" width="2.8" height="1.6" transform="matrix(1.3947 -.2912 .4058 .9192 1.05 -2.15)"/><use xlink:href="#z" width="2.1" height="2.1" transform="matrix(.7674 -.7984 .4395 .8235 .5 -3.05)"/><use xlink:href="#A" width="2.3" height="4" transform="matrix(1.0202 -.3524 .0339 .9482 .45 -6.75)"/><use xlink:href="#B" width="3.9" height="2.8" transform="matrix(.7662 .0643 .246 -1.1502 -.75 -13.05)"/><use xlink:href="#C" width="1.9" height="2.4" transform="matrix(-.9017 .1558 .0097 1.0736 -1.1 -14.75)"/><use xlink:href="#D" width="1.8" height="4.3" transform="matrix(-.5687 -.7391 -.6436 .7307 .75 -15.85)"/><use xlink:href="#E" width="5.5" height="9.5" transform="matrix(.9851 -.0647 -.0988 1.0174 -2.45 -16.6)"/><use xlink:href="#F" width="3.6" height="4" transform="matrix(1.0375 -.2889 .5806 .8103 -2.35 -7.6)"/><use xlink:href="#G" width="7.7" height="28" transform="matrix(.9931 .0002 -.0002 .9931 .4 -31.75)"/><use xlink:href="#A" width="2.3" height="4" transform="matrix(.6204 -.8509 .6504 .8437 -1.75 -7.95)"/><use xlink:href="#z" width="2.1" height="2.1" transform="matrix(.9881 .3176 -.5077 1.1638 -.1 -7.45)"/><use xlink:href="#y" width="2.8" height="1.6" transform="matrix(-.2103 1.3586 -.9587 -.2665 -.3 -6.05)"/><use xlink:href="#D" width="1.8" height="4.3" transform="matrix(.977 .4784 -.4821 .769 -5.7 -14.9)"/><use xlink:href="#B" width="3.9" height="2.8" transform="matrix(.7723 .6628 -.6498 .7183 -4.1 -16.5)"/><use xlink:href="#H" width="1.7" height="21.8" transform="matrix(.6331 -.7257 -.7798 -.6454 -2.6 -7.55)"/><use xlink:href="#C" width="1.9" height="2.4" transform="matrix(.977 .4784 -.4821 .769 -7.15 -12.7)"/></g></g><g clip-path="url(#ar)"><g transform="translate(939.1 38.75)"><use xlink:href="#w" width="14.7" height="4.2" transform="matrix(.7175 0 0 .7191 -7.25 -2)"/><use xlink:href="#x" width="8.8" height="7" transform="matrix(.6395 0 -.2603 .4536 -1.8 -3.9)"/><use xlink:href="#y" width="2.8" height="1.6" transform="matrix(1.3579 -.1189 .2164 .9919 -.4 -2.25)"/><use xlink:href="#z" width="2.1" height="2.1" transform="matrix(.8632 -.7142 .3158 .8775 -.7 -3.25)"/><use xlink:href="#A" width="2.3" height="4" transform="matrix(1.0505 -.2484 -.0796 .9524 -.35 -7)"/><use xlink:href="#B" width="3.9" height="2.8" transform="matrix(.7606 .1107 .3153 -1.1328 -.85 -13.25)"/><use xlink:href="#C" width="1.9" height="2.4" transform="matrix(-.9094 .1038 -.0525 1.0721 -1.15 -15)"/><use xlink:href="#D" width="1.8" height="4.3" transform="matrix(-.5233 -.773 -.6875 .6908 .75 -15.95)"/><use xlink:href="#E" width="5.5" height="9.5" transform="matrix(.9873 -.005 -.1383 1.0095 -2.95 -16.75)"/><use xlink:href="#F" width="3.6" height="4" transform="matrix(1.0305 -.2337 .4843 .8718 -3.15 -7.85)"/><use xlink:href="#G" width="7.7" height="28" transform="rotate(2.517 724.914 -13.65)scale(.9928)"/><use xlink:href="#A" width="2.3" height="4" transform="matrix(.5187 -.9523 .7697 .7603 -2.35 -7.65)"/><use xlink:href="#z" width="2.1" height="2.1" transform="matrix(1.0566 .0935 -.2549 1.2194 -.65 -7.3)"/><use xlink:href="#y" width="2.8" height="1.6" transform="matrix(-.0546 1.3556 -.9638 -.2235 -.45 -5.95)"/><use xlink:href="#D" width="1.8" height="4.3" transform="matrix(.9187 .5817 -.5628 .7116 -6.05 -15.35)"/><use xlink:href="#B" width="3.9" height="2.8" transform="matrix(.7723 .6628 -.6498 .7183 -4.55 -16.85)"/><use xlink:href="#H" width="1.7" height="21.8" transform="matrix(.7083 -.6523 -.7046 -.7263 -3.75 -7.7)"/><use xlink:href="#C" width="1.9" height="2.4" transform="matrix(.9187 .5817 -.5628 .7116 -7.75 -13.35)"/></g></g><g clip-path="url(#as)"><g transform="translate(973.1 38.75)"><use xlink:href="#w" width="14.7" height="4.2" transform="matrix(.674 0 0 .6767 -6.4 -1.85)"/><use xlink:href="#x" width="8.8" height="7" transform="matrix(.7597 0 -.2309 .641 -3.45 -4.7)"/><use xlink:href="#y" width="2.8" height="1.6" transform="matrix(1.3004 .0404 .0179 1.0257 -1.7 -2.4)"/><use xlink:href="#z" width="2.1" height="2.1" transform="matrix(.9498 -.6185 .1828 .9138 -1.9 -3.35)"/><use xlink:href="#A" width="2.3" height="4" transform="matrix(1.0702 -.1419 -.1967 .9421 -1.05 -7.35)"/><use xlink:href="#B" width="3.9" height="2.8" transform="matrix(.7522 .1566 .3835 -1.1111 -1 -13.4)"/><use xlink:href="#C" width="1.9" height="2.4" transform="matrix(-.9237 .0405 -.102 1.058 -1.15 -15.6)"/><use xlink:href="#D" width="1.8" height="4.3" transform="matrix(-.4893 -.8031 -.7269 .6344 .7 -16.45)"/><use xlink:href="#E" width="5.5" height="9.5" transform="matrix(.9858 .0484 -.1773 1.0001 -3.4 -17)"/><use xlink:href="#F" width="3.6" height="4" transform="matrix(1.0212 -.1765 .3787 .9231 -3.95 -8.2)"/><use xlink:href="#G" width="7.7" height="28" transform="rotate(5.018 364.516 -17.687)scale(.9924)"/><use xlink:href="#A" width="2.3" height="4" transform="matrix(.401 -1.0414 .8761 .6629 -3.05 -7.35)"/><use xlink:href="#z" width="2.1" height="2.1" transform="matrix(1.0739 -.1379 -.0054 1.2219 -1.25 -7.15)"/><use xlink:href="#y" width="2.8" height="1.6" transform="matrix(.0888 1.3352 -.9663 -.1838 -.65 -5.9)"/><use xlink:href="#D" width="1.8" height="4.3" transform="matrix(.8495 .6781 -.6368 .6458 -6.5 -15.8)"/><use xlink:href="#B" width="3.9" height="2.8" transform="matrix(.7723 .6628 -.6498 .7183 -5 -17.2)"/><use xlink:href="#H" width="1.7" height="21.8" transform="matrix(.773 -.5737 -.6212 -.7986 -5.1 -7.85)"/><use xlink:href="#C" width="1.9" height="2.4" transform="matrix(.8495 .6781 -.6368 .6458 -8.4 -14)"/></g></g><g clip-path="url(#at)"><g transform="translate(1007.1 38.75)"><use xlink:href="#w" width="14.7" height="4.2" transform="matrix(.6305 0 0 .6343 -5.6 -1.65)"/><use xlink:href="#x" width="8.8" height="7" transform="matrix(.8799 0 -.1431 .8283 -5.15 -5.5)"/><use xlink:href="#y" width="2.8" height="1.6" transform="matrix(1.2245 .1844 -.1852 1.0186 -3.05 -2.55)"/><use xlink:href="#z" width="2.1" height="2.1" transform="matrix(1.0257 -.5124 .0493 .9299 -3.05 -3.6)"/><use xlink:href="#A" width="2.3" height="4" transform="matrix(1.0792 -.034 -.3125 .9173 -1.9 -7.6)"/><use xlink:href="#B" width="3.9" height="2.8" transform="matrix(.7417 .1996 .4502 -1.0854 -1.1 -13.7)"/><use xlink:href="#C" width="1.9" height="2.4" transform="matrix(-.9339 -.0211 -.1476 1.0421 -1.2 -16.3)"/><use xlink:href="#D" width="1.8" height="4.3" transform="matrix(-.4573 -.8313 -.763 .577 .65 -16.95)"/><use xlink:href="#E" width="5.5" height="9.5" transform="matrix(.9807 .1079 -.2157 .9892 -3.9 -17.1)"/><use xlink:href="#F" width="3.6" height="4" transform="matrix(1.0084 -.1243 .2677 .9618 -4.75 -8.4)"/><use xlink:href="#G" width="7.7" height="28" transform="rotate(7.518 243.697 -19.45)scale(.9921)"/><use xlink:href="#A" width="2.3" height="4" transform="matrix(.2689 -1.1156 .9701 .5506 -3.6 -7.1)"/><use xlink:href="#z" width="2.1" height="2.1" transform="matrix(1.037 -.3791 .2346 1.1733 -1.8 -6.95)"/><use xlink:href="#y" width="2.8" height="1.6" transform="matrix(.2359 1.2979 -.9677 -.141 -.7 -5.75)"/><use xlink:href="#D" width="1.8" height="4.3" transform="matrix(.7704 .7663 -.7013 .5748 -6.9 -16.2)"/><use xlink:href="#B" width="3.9" height="2.8" transform="matrix(.7723 .6628 -.6498 .7183 -5.45 -17.55)"/><use xlink:href="#H" width="1.7" height="21.8" transform="matrix(.8308 -.486 -.5332 -.8597 -6.35 -8.25)"/><use xlink:href="#C" width="1.9" height="2.4" transform="matrix(.7704 .7663 -.7013 .5748 -8.95 -14.55)"/></g></g><g clip-path="url(#au)"><g transform="translate(1041.1 38.75)"><use xlink:href="#w" width="14.7" height="4.2" transform="matrix(.587 0 0 .5919 -4.75 -1.45)"/><use xlink:href="#x" width="8.8" height="7" transform="translate(-7.3 -6.25)"/><use xlink:href="#y" width="2.8" height="1.6" transform="matrix(1.1332 .3166 -.3899 .9704 -4.35 -2.7)"/><use xlink:href="#z" width="2.1" height="2.1" transform="matrix(1.091 -.397 -.0846 .9264 -4.2 -3.85)"/><use xlink:href="#A" width="2.3" height="4" transform="matrix(1.0773 .0706 -.4279 .8785 -2.6 -7.9)"/><use xlink:href="#B" width="3.9" height="2.8" transform="matrix(.7283 .2453 .5143 -1.0578 -1.15 -13.95)"/><use xlink:href="#C" width="1.9" height="2.4" transform="matrix(-.9393 -.087 -.1953 1.0237 -1.2 -16.9)"/><use xlink:href="#D" width="1.8" height="4.3" transform="matrix(-.4209 -.8597 -.7948 .5177 .65 -17.5)"/><use xlink:href="#E" width="5.5" height="9.5" transform="matrix(.9726 .1669 -.2558 .9771 -4.3 -17.25)"/><use xlink:href="#F" width="3.6" height="4" transform="matrix(.9933 -.0732 .1561 .9872 -5.55 -8.7)"/><use xlink:href="#G" width="7.7" height="28" transform="matrix(.977 .1735 -.1735 .977 -.7 -32)"/><use xlink:href="#A" width="2.3" height="4" transform="matrix(.1269 -1.1728 1.0505 .4263 -4.2 -6.9)"/><use xlink:href="#z" width="2.1" height="2.1" transform="matrix(.9461 -.6133 .4607 1.0783 -2.15 -6.8)"/><use xlink:href="#y" width="2.8" height="1.6" transform="matrix(.3776 1.2455 -.9672 -.1018 -.7 -5.65)"/><use xlink:href="#D" width="1.8" height="4.3" transform="matrix(.6853 .8452 -.7605 .4961 -7.3 -16.6)"/><use xlink:href="#B" width="3.9" height="2.8" transform="matrix(.7725 .6651 -.6516 .7187 -5.9 -17.9)"/><use xlink:href="#H" width="1.7" height="21.8" transform="matrix(.8792 -.3946 -.4377 -.9134 -7.75 -8.7)"/><use xlink:href="#C" width="1.9" height="2.4" transform="matrix(.6853 .8452 -.7605 .4961 -9.6 -15.15)"/></g></g><g clip-path="url(#av)"><g transform="translate(1075.1 38.75)"><use xlink:href="#w" width="14.7" height="4.2" transform="matrix(.5434 0 0 .5496 -3.9 -1.3)"/><use xlink:href="#x" width="8.8" height="7" transform="translate(-8.4 -6.45)"/><use xlink:href="#y" width="2.8" height="1.6" transform="matrix(.9839 .5298 -.5152 .8976 -3.85 -3.65)"/><use xlink:href="#z" width="2.1" height="2.1" transform="matrix(1.125 -.2294 -.1901 .9115 -3.6 -4.7)"/><use xlink:href="#A" width="2.3" height="4" transform="matrix(1.0691 .1552 -.4712 .8471 -1.95 -8.45)"/><use xlink:href="#B" width="3.9" height="2.8" transform="matrix(.7302 .3033 .5472 -1.0044 -1.3 -14.9)"/><use xlink:href="#C" width="1.9" height="2.4" transform="matrix(-.9401 -.1537 -.2417 1.0031 -1.4 -17.55)"/><use xlink:href="#D" width="1.8" height="4.3" transform="matrix(-.3858 -.8852 -.822 .4568 .65 -18)"/><use xlink:href="#E" width="5.5" height="9.5" transform="matrix(.9815 .1042 -.1716 .9948 -4.25 -17.75)"/><use xlink:href="#F" width="3.6" height="4" transform="matrix(.9942 -.0619 .0364 1.0332 -4.55 -9.15)"/><use xlink:href="#G" width="7.7" height="28" transform="rotate(3.054 611.18 -59.46)scale(.9928)"/><use xlink:href="#A" width="2.3" height="4" transform="matrix(.0302 -1.1485 1.0678 .3119 -3.45 -7.35)"/><use xlink:href="#z" width="2.1" height="2.1" transform="matrix(.7988 -.7617 .6367 .9503 -1.4 -7.25)"/><use xlink:href="#y" width="2.8" height="1.6" transform="matrix(.8118 .9904 -.9274 .3109 .05 -6.6)"/><use xlink:href="#D" width="1.8" height="4.3" transform="matrix(.6058 .8861 -.8034 .4462 -6.9 -17.3)"/><use xlink:href="#B" width="3.9" height="2.8" transform="matrix(.7246 .7145 -.6954 .6741 -5.6 -18.5)"/><use xlink:href="#H" width="1.7" height="21.8" transform="matrix(.8775 -.3965 -.4406 -.9111 -7.45 -9.1)"/><use xlink:href="#C" width="1.9" height="2.4" transform="matrix(.6058 .8861 -.8034 .4462 -9.25 -16.05)"/></g></g><g clip-path="url(#aw)"><g transform="translate(1109.1 38.75)"><use xlink:href="#w" width="14.7" height="4.2" transform="matrix(.4999 0 0 .5072 -3.1 -1.1)"/><use xlink:href="#x" width="8.8" height="7" transform="translate(-9.45 -6.7)"/><use xlink:href="#y" width="2.8" height="1.6" transform="matrix(.8012 .6937 -.6325 .807 -3.25 -4.6)"/><use xlink:href="#z" width="2.1" height="2.1" transform="matrix(1.1349 -.0602 -.293 .8851 -3.1 -5.7)"/><use xlink:href="#A" width="2.3" height="4" transform="matrix(1.0545 .2388 -.515 .8135 -1.35 -9.05)"/><use xlink:href="#B" width="3.9" height="2.8" transform="matrix(.7278 .3637 .5787 -.9506 -1.45 -16.05)"/><use xlink:href="#C" width="1.9" height="2.4" transform="matrix(-.9361 -.221 -.2866 .9804 -1.35 -18.15)"/><use xlink:href="#D" width="1.8" height="4.3" transform="matrix(-.3462 -.9104 -.8446 .3947 .6 -18.45)"/><use xlink:href="#E" width="5.5" height="9.5" transform="matrix(.9867 .044 -.0884 1.0059 -4.05 -18.35)"/><use xlink:href="#F" width="3.6" height="4" transform="matrix(.9948 -.0566 -.0889 1.0643 -3.7 -9.6)"/><use xlink:href="#G" width="7.7" height="28" transform="rotate(-3.538 -537.764 44.162)scale(.9934)"/><use xlink:href="#A" width="2.3" height="4" transform="matrix(-.0592 -1.1167 1.0741 .1995 -2.65 -7.85)"/><use xlink:href="#z" width="2.1" height="2.1" transform="matrix(.6295 -.8799 .7814 .7979 -.5 -7.7)"/><use xlink:href="#y" width="2.8" height="1.6" transform="matrix(1.1114 .5983 -.7183 .6725 .75 -7.45)"/><use xlink:href="#D" width="1.8" height="4.3" transform="matrix(.5275 .92 -.8453 .3911 -6.45 -17.95)"/><use xlink:href="#B" width="3.9" height="2.8" transform="matrix(.676 .7607 -.7382 .627 -5.15 -19.15)"/><use xlink:href="#H" width="1.7" height="21.8" transform="matrix(.8762 -.4004 -.4447 -.9096 -7.2 -9.65)"/><use xlink:href="#C" width="1.9" height="2.4" transform="matrix(.5275 .92 -.8453 .3911 -8.9 -16.85)"/></g></g><g clip-path="url(#ax)"><g transform="translate(1143.1 38.75)"><use xlink:href="#w" width="14.7" height="4.2" transform="matrix(.4564 0 0 .4648 -2.3 -.95)"/><use xlink:href="#x" width="8.8" height="7" transform="translate(-10.55 -6.9)"/><use xlink:href="#y" width="2.8" height="1.6" transform="matrix(.5949 .8087 -.7338 .7049 -2.75 -5.5)"/><use xlink:href="#z" width="2.1" height="2.1" transform="matrix(1.1198 .1036 -.3961 .8467 -2.55 -6.55)"/><use xlink:href="#A" width="2.3" height="4" transform="matrix(1.0344 .3216 -.5572 .7791 -.75 -9.7)"/><use xlink:href="#B" width="3.9" height="2.8" transform="matrix(.7214 .4259 .6076 -.8974 -1.6 -17)"/><use xlink:href="#C" width="1.9" height="2.4" transform="matrix(-.9279 -.2894 -.3308 .9565 -1.4 -18.8)"/><use xlink:href="#D" width="1.8" height="4.3" transform="matrix(-.309 -.9336 -.8635 .3323 .65 -18.95)"/><use xlink:href="#E" width="5.5" height="9.5" transform="matrix(.9883 -.0137 -.0052 1.0101 -3.95 -18.8)"/><use xlink:href="#F" width="3.6" height="4" transform="matrix(.9957 -.0488 -.2249 1.0796 -2.8 -10.05)"/><use xlink:href="#G" width="7.7" height="28" transform="rotate(-10.506 -183.937 11.331)scale(.9943)"/><use xlink:href="#A" width="2.3" height="4" transform="matrix(-.1478 -1.0778 1.069 .09 -1.85 -8.35)"/><use xlink:href="#z" width="2.1" height="2.1" transform="matrix(.4456 -.9636 .8961 .6234 .3 -8.3)"/><use xlink:href="#y" width="2.8" height="1.6" transform="matrix(1.2387 .1261 -.3768 .9177 1.65 -8.25)"/><use xlink:href="#D" width="1.8" height="4.3" transform="matrix(.4483 .9483 -.883 .336 -6.05 -18.65)"/><use xlink:href="#B" width="3.9" height="2.8" transform="matrix(.6259 .8045 -.7791 .578 -4.75 -19.75)"/><use xlink:href="#H" width="1.7" height="21.8" transform="matrix(.8758 -.4052 -.4496 -.9091 -6.9 -10.15)"/><use xlink:href="#C" width="1.9" height="2.4" transform="matrix(.4483 .9483 -.883 .336 -8.6 -17.7)"/></g></g></svg>