<svg xmlns="http://www.w3.org/2000/svg" xmlns:xlink="http://www.w3.org/1999/xlink" width="733" height="68" viewBox="0 0 733 68"><defs><g id="Q"><path fill="#900" d="M17.7 6.2Q15 3 11.5 3.8l.9-.3q2.2-.6 4.2 1.5zm-6-3.2q-3-1.4-6.2 0Q8.4.6 11.8 3"/><path fill="#900" d="M11.6 3.8q3.5-.8 6 2.4l.4.4q2.1 3.2 2.5 7.3-1.2 3.1-2.8 3.6-.1-3.3-2.9-6.1l1 2.1q.9 2.6.7 4.4-1.7 1.6-3.2 1.8.2-3.5-3.6-6.8Q6.3 9 .8 8.8L1 7.2Q1 2.8 5.6 3q3.3-1.4 6.2 0l.7.5zm-7 .2 1-1z"/><path fill="#900" d="M20.5 13.9V15q-1 4.9-4.6 4.7.6-.8.6-1.9.2-1.7-.7-4.3l-1-2.2q2.8 2.9 2.8 6.2 1.7-.5 2.9-3.6m-4 4q0 1-.6 1.8-1.3 1.8-8.3 1T.2 16.6t.6-7.8q5.4.3 9 4 3.7 3.4 3.4 6.9 1.6-.2 3.3-1.8"/><path fill="none" stroke="#900" stroke-linecap="round" stroke-linejoin="round" stroke-opacity=".8" stroke-width="__RESOLUTION__" d="m17.7 6.2-1-1.2q-2-2.1-4.2-1.5l-.7-.5Q8.4.6 5.6 3 1.2 2.8.9 7.2L.8 8.8q-1.1 4.5-.6 7.8.4 3.2 7.4 4t8.3-1q3.6.3 4.7-4.6l-.1-1.1q-.4-4.1-2.5-7.2z" vector-effect="non-scaling-stroke"/><path fill="none" stroke="#900" stroke-linecap="round" stroke-linejoin="round" stroke-width="__RESOLUTION__" d="m12.5 3.5-1 .3M5.7 3l-1 1m11.2 9.6q.9 2.5.7 4.3 0 1-.6 1.8" vector-effect="non-scaling-stroke"/><path fill="#900" d="m10 3.2.4.1.6.4q.8.5.9 1.3T11 6.4q-.8.5-1.9.5-1.1-.1-1.9-.7t-.8-1.4.7-1.3l.7-.3L7.7 1l.4.3h1l.8-.2.4-.5q-.4 1.5-.3 2.6 0 1 .5 1.5-.5-.6-.5-1.6M8.7 5.4 7.9 3zm.5.3q.6 0 1.1-.4-.5.4-1.1.3"/><path fill="#900" d="M7.8 1V.8L8 .4 9 0l.9.1.4.4v.2l-.4.4-.8.2H8z"/><path fill="none" stroke="#900" stroke-linecap="round" stroke-linejoin="round" stroke-opacity=".3" stroke-width="__RESOLUTION__" d="m7.9 3.1-.7.4q-.7.5-.7 1.2 0 .8.8 1.4t1.9.7 1.9-.5.8-1.2-.9-1.4l-.6-.4-.4-.1q0 1 .5 1.5m-.3-4V.5L10 .1 9 0l-.9.4-.3.5V1l.1 2.1.8 2.2M10.3.7Q9.9 2 10 3.2m.3 2q-.5.5-1.1.4" vector-effect="non-scaling-stroke"/><path fill="#900" d="m14.2 5.7-1.3 2.7-3.7-.9q2.4-1.8 5-1.8"/><path fill="#900" d="M14.2 5.7q-2.6 0-5 1.8 2.7-2.8 5-1.8"/><path fill="none" stroke="#900" stroke-linecap="round" stroke-linejoin="round" stroke-width="__RESOLUTION__" d="M9.2 7.5q2.7-2.8 5-1.8" vector-effect="non-scaling-stroke"/></g><g id="R"><path fill="#900" d="M3.7 1q.1 1.2-.3 2.2L2.1 4.7H2l-.6.1-1.1-.3.2-1.3.8-2.2Q2-.3 2.8 0q.6.4.9 1"/><path fill="#900" d="m2.3 5.5-1 .5V4.9l.7-.2z"/><path fill="#900" d="M1.3 6h-1L0 5.5l.3-.8v-.1l1 .3z"/><path fill="none" stroke="#900" stroke-linecap="round" stroke-linejoin="round" stroke-opacity=".3" stroke-width="__RESOLUTION__" d="m2 4.8.3.7-1 .5" vector-effect="non-scaling-stroke"/><path fill="none" stroke="#900" stroke-linecap="round" stroke-linejoin="round" stroke-opacity=".3" stroke-width="__RESOLUTION__" d="M1.3 6h-1L0 5.5l.3-.8.2-1.5.8-2.1Q2-.3 2.8 0q.6.3.9.9.1 1.2-.3 2.2L2.1 4.7" vector-effect="non-scaling-stroke"/></g><g id="S"><path fill="#900" d="M1.2 0q.4.1 1 .6l1 1 .3.9q0 1.3-.5 1.9t-1.3.4Q.5 2.6 1.2 0"/><path fill="#900" d="M1.7 4.8.7 4 0 2.5q-.2-1 0-1.6T.8 0l.4-.1q-.7 2.6.5 4.8"/><path fill="none" stroke="#900" stroke-linecap="round" stroke-linejoin="round" stroke-opacity=".3" stroke-width="__RESOLUTION__" d="m3.2 1.6.3.9q0 1.3-.5 1.9t-1.3.4L.7 4 0 2.5q-.2-1 0-1.6T.8 0" vector-effect="non-scaling-stroke"/><path fill="#900" d="m2.3 4.4.6-.2.3.8-1 .5z"/><path fill="#900" d="m2.3 4.4-.1 1.1h-1L.7 5l.3-.9z"/><path fill="none" stroke="#900" stroke-linecap="round" stroke-linejoin="round" stroke-opacity=".3" stroke-width="__RESOLUTION__" d="m2.2 5.5 1-.4-.3-.8M1.1 4 .9 5l.3.4 1 .1" vector-effect="non-scaling-stroke"/></g><g id="U"><path fill="#aa2b2b" d="M17.7 6.2Q15 3 11.5 3.8l.9-.3q2.2-.6 4.2 1.5zm-6-3.2q-3-1.4-6.2 0Q8.4.6 11.8 3"/><path fill="#aa2b2b" d="M11.6 3.8q3.5-.8 6 2.4l.4.4q2.1 3.2 2.5 7.3-1.2 3.1-2.8 3.6-.1-3.3-2.9-6.1l1 2.1q.9 2.6.7 4.4-1.7 1.6-3.2 1.8.2-3.5-3.6-6.8Q6.3 9 .8 8.8L1 7.2Q1 2.8 5.6 3q3.3-1.4 6.2 0l.7.5zm-7 .2 1-1z"/><path fill="#aa2b2b" d="M20.5 13.9V15q-1 4.9-4.6 4.7.6-.8.6-1.9.2-1.7-.7-4.3l-1-2.2q2.8 2.9 2.8 6.2 1.7-.5 2.9-3.6m-4 4q0 1-.6 1.8-1.3 1.8-8.3 1T.2 16.6t.6-7.8q5.4.3 9 4 3.7 3.4 3.4 6.9 1.6-.2 3.3-1.8"/><path fill="none" stroke="#aa2b2b" stroke-linecap="round" stroke-linejoin="round" stroke-opacity=".8" stroke-width="__RESOLUTION__" d="m17.7 6.2-1-1.2q-2-2.1-4.2-1.5l-.7-.5Q8.4.6 5.6 3 1.2 2.8.9 7.2L.8 8.8q-1.1 4.5-.6 7.8.4 3.2 7.4 4t8.3-1q3.6.3 4.7-4.6l-.1-1.1q-.4-4.1-2.5-7.2z" vector-effect="non-scaling-stroke"/><path fill="none" stroke="#aa2b2b" stroke-linecap="round" stroke-linejoin="round" stroke-width="__RESOLUTION__" d="m12.5 3.5-1 .3M5.7 3l-1 1m11.2 9.6q.9 2.5.7 4.3 0 1-.6 1.8" vector-effect="non-scaling-stroke"/><path fill="#aa2b2b" d="m10 3.2.4.1.6.4q.8.5.9 1.3T11 6.4q-.8.5-1.9.5-1.1-.1-1.9-.7t-.8-1.4.7-1.3l.7-.3L7.7 1l.4.3h1l.8-.2.4-.5q-.4 1.5-.3 2.6 0 1 .5 1.5-.5-.6-.5-1.6M8.7 5.4 7.9 3zm.5.3q.6 0 1.1-.4-.5.4-1.1.3"/><path fill="#aa2b2b" d="M7.8 1V.8L8 .4 9 0l.9.1.4.4v.2l-.4.4-.8.2H8z"/><path fill="none" stroke="#aa2b2b" stroke-linecap="round" stroke-linejoin="round" stroke-opacity=".3" stroke-width="__RESOLUTION__" d="m7.9 3.1-.7.4q-.7.5-.7 1.2 0 .8.8 1.4t1.9.7 1.9-.5.8-1.2-.9-1.4l-.6-.4-.4-.1q0 1 .5 1.5m-.3-4V.5L10 .1 9 0l-.9.4-.3.5V1l.1 2.1.8 2.2M10.3.7Q9.9 2 10 3.2m.3 2q-.5.5-1.1.4" vector-effect="non-scaling-stroke"/><path fill="#aa2b2b" d="m14.2 5.7-1.3 2.7-3.7-.9q2.4-1.8 5-1.8"/><path fill="#aa2b2b" d="M14.2 5.7q-2.6 0-5 1.8 2.7-2.8 5-1.8"/><path fill="none" stroke="#aa2b2b" stroke-linecap="round" stroke-linejoin="round" stroke-width="__RESOLUTION__" d="M9.2 7.5q2.7-2.8 5-1.8" vector-effect="non-scaling-stroke"/></g><g id="V"><path fill="#aa2b2b" d="M3.7 1q.1 1.2-.3 2.2L2.1 4.7H2l-.6.1-1.1-.3.2-1.3.8-2.2Q2-.3 2.8 0q.6.4.9 1"/><path fill="#aa2b2b" d="m2.3 5.5-1 .5V4.9l.7-.2z"/><path fill="#aa2b2b" d="M1.3 6h-1L0 5.5l.3-.8v-.1l1 .3z"/><path fill="none" stroke="#aa2b2b" stroke-linecap="round" stroke-linejoin="round" stroke-opacity=".3" stroke-width="__RESOLUTION__" d="m2 4.8.3.7-1 .5" vector-effect="non-scaling-stroke"/><path fill="none" stroke="#aa2b2b" stroke-linecap="round" stroke-linejoin="round" stroke-opacity=".3" stroke-width="__RESOLUTION__" d="M1.3 6h-1L0 5.5l.3-.8.2-1.5.8-2.1Q2-.3 2.8 0q.6.3.9.9.1 1.2-.3 2.2L2.1 4.7" vector-effect="non-scaling-stroke"/></g><g id="W"><path fill="#aa2b2b" d="M1.2 0q.4.1 1 .6l1 1 .3.9q0 1.3-.5 1.9t-1.3.4Q.5 2.6 1.2 0"/><path fill="#aa2b2b" d="M1.7 4.8.7 4 0 2.5q-.2-1 0-1.6T.8 0l.4-.1q-.7 2.6.5 4.8"/><path fill="none" stroke="#aa2b2b" stroke-linecap="round" stroke-linejoin="round" stroke-opacity=".3" stroke-width="__RESOLUTION__" d="m3.2 1.6.3.9q0 1.3-.5 1.9t-1.3.4L.7 4 0 2.5q-.2-1 0-1.6T.8 0" vector-effect="non-scaling-stroke"/><path fill="#aa2b2b" d="m2.3 4.4.6-.2.3.8-1 .5z"/><path fill="#aa2b2b" d="m2.3 4.4-.1 1.1h-1L.7 5l.3-.9z"/><path fill="none" stroke="#aa2b2b" stroke-linecap="round" stroke-linejoin="round" stroke-opacity=".3" stroke-width="__RESOLUTION__" d="m2.2 5.5 1-.4-.3-.8M1.1 4 .9 5l.3.4 1 .1" vector-effect="non-scaling-stroke"/></g><g id="Y"><path fill="#b55" d="M17.7 6.2Q15 3 11.5 3.8l.9-.3q2.2-.6 4.2 1.5zm-6-3.2q-3-1.4-6.2 0Q8.4.6 11.8 3"/><path fill="#b55" d="M11.6 3.8q3.5-.8 6 2.4l.4.4q2.1 3.2 2.5 7.3-1.2 3.1-2.8 3.6-.1-3.3-2.9-6.1l1 2.1q.9 2.6.7 4.4-1.7 1.6-3.2 1.8.2-3.5-3.6-6.8Q6.3 9 .8 8.8L1 7.2Q1 2.8 5.6 3q3.3-1.4 6.2 0l.7.5zm-7 .2 1-1z"/><path fill="#b55" d="M20.5 13.9V15q-1 4.9-4.6 4.7.6-.8.6-1.9.2-1.7-.7-4.3l-1-2.2q2.8 2.9 2.8 6.2 1.7-.5 2.9-3.6m-4 4q0 1-.6 1.8-1.3 1.8-8.3 1T.2 16.6t.6-7.8q5.4.3 9 4 3.7 3.4 3.4 6.9 1.6-.2 3.3-1.8"/><path fill="none" stroke="#b55" stroke-linecap="round" stroke-linejoin="round" stroke-opacity=".8" stroke-width="__RESOLUTION__" d="m17.7 6.2-1-1.2q-2-2.1-4.2-1.5l-.7-.5Q8.4.6 5.6 3 1.2 2.8.9 7.2L.8 8.8q-1.1 4.5-.6 7.8.4 3.2 7.4 4t8.3-1q3.6.3 4.7-4.6l-.1-1.1q-.4-4.1-2.5-7.2z" vector-effect="non-scaling-stroke"/><path fill="none" stroke="#b55" stroke-linecap="round" stroke-linejoin="round" stroke-width="__RESOLUTION__" d="m12.5 3.5-1 .3M5.7 3l-1 1m11.2 9.6q.9 2.5.7 4.3 0 1-.6 1.8" vector-effect="non-scaling-stroke"/><path fill="#b55" d="m10 3.2.4.1.6.4q.8.5.9 1.3T11 6.4q-.8.5-1.9.5-1.1-.1-1.9-.7t-.8-1.4.7-1.3l.7-.3L7.7 1l.4.3h1l.8-.2.4-.5q-.4 1.5-.3 2.6 0 1 .5 1.5-.5-.6-.5-1.6M8.7 5.4 7.9 3zm.5.3q.6 0 1.1-.4-.5.4-1.1.3"/><path fill="#b55" d="M7.8 1V.8L8 .4 9 0l.9.1.4.4v.2l-.4.4-.8.2H8z"/><path fill="none" stroke="#b55" stroke-linecap="round" stroke-linejoin="round" stroke-opacity=".3" stroke-width="__RESOLUTION__" d="m7.9 3.1-.7.4q-.7.5-.7 1.2 0 .8.8 1.4t1.9.7 1.9-.5.8-1.2-.9-1.4l-.6-.4-.4-.1q0 1 .5 1.5m-.3-4V.5L10 .1 9 0l-.9.4-.3.5V1l.1 2.1.8 2.2M10.3.7Q9.9 2 10 3.2m.3 2q-.5.5-1.1.4" vector-effect="non-scaling-stroke"/><path fill="#b55" d="m14.2 5.7-1.3 2.7-3.7-.9q2.4-1.8 5-1.8"/><path fill="#b55" d="M14.2 5.7q-2.6 0-5 1.8 2.7-2.8 5-1.8"/><path fill="none" stroke="#b55" stroke-linecap="round" stroke-linejoin="round" stroke-width="__RESOLUTION__" d="M9.2 7.5q2.7-2.8 5-1.8" vector-effect="non-scaling-stroke"/></g><g id="Z"><path fill="#b55" d="M3.7 1q.1 1.2-.3 2.2L2.1 4.7H2l-.6.1-1.1-.3.2-1.3.8-2.2Q2-.3 2.8 0q.6.4.9 1"/><path fill="#b55" d="m2.3 5.5-1 .5V4.9l.7-.2z"/><path fill="#b55" d="M1.3 6h-1L0 5.5l.3-.8v-.1l1 .3z"/><path fill="none" stroke="#b55" stroke-linecap="round" stroke-linejoin="round" stroke-opacity=".3" stroke-width="__RESOLUTION__" d="m2 4.8.3.7-1 .5" vector-effect="non-scaling-stroke"/><path fill="none" stroke="#b55" stroke-linecap="round" stroke-linejoin="round" stroke-opacity=".3" stroke-width="__RESOLUTION__" d="M1.3 6h-1L0 5.5l.3-.8.2-1.5.8-2.1Q2-.3 2.8 0q.6.3.9.9.1 1.2-.3 2.2L2.1 4.7" vector-effect="non-scaling-stroke"/></g><g id="aa"><path fill="#b55" d="M1.2 0q.4.1 1 .6l1 1 .3.9q0 1.3-.5 1.9t-1.3.4Q.5 2.6 1.2 0"/><path fill="#b55" d="M1.7 4.8.7 4 0 2.5q-.2-1 0-1.6T.8 0l.4-.1q-.7 2.6.5 4.8"/><path fill="none" stroke="#b55" stroke-linecap="round" stroke-linejoin="round" stroke-opacity=".3" stroke-width="__RESOLUTION__" d="m3.2 1.6.3.9q0 1.3-.5 1.9t-1.3.4L.7 4 0 2.5q-.2-1 0-1.6T.8 0" vector-effect="non-scaling-stroke"/><path fill="#b55" d="m2.3 4.4.6-.2.3.8-1 .5z"/><path fill="#b55" d="m2.3 4.4-.1 1.1h-1L.7 5l.3-.9z"/><path fill="none" stroke="#b55" stroke-linecap="round" stroke-linejoin="round" stroke-opacity=".3" stroke-width="__RESOLUTION__" d="m2.2 5.5 1-.4-.3-.8M1.1 4 .9 5l.3.4 1 .1" vector-effect="non-scaling-stroke"/></g><g id="ac"><path fill="#b81a03" d="M34.7 28.4q-4.3-4-6.6-3.5-1.8.3-2.9 3.7.1-4.1-2.4-6.1 4.9-.1 4.8-3.4t-5.3-7q2.9 1 6.3-2-1.4 3.8-.9 5.9.5 1.9 2.8 3.3l3.4 1.2q-2.4.4-2.4 2-.1 2 3.2 5.9"/><path fill="none" stroke="#d01d04" stroke-linecap="round" stroke-linejoin="round" stroke-width="__RESOLUTION__" d="M33.9 20.5q-2.4.4-2.4 2-.1 2 3.2 5.9" vector-effect="non-scaling-stroke"/><path fill="#f43404" d="M3.1 2.2 0 .9Q.6-.4 2 .2t2 2.2zm13.2.4 4 1.7q-.7.4-1.4 1.9-1 2.2-.5 4.6.7 3.6 3.8 8.4l4.1 5.2q-5.8-2.8-16.6 1.3 12.2-8.4-4.3-22.4Q16.2 9 16.2 2.6"/><path fill="none" stroke="#d01d04" stroke-linecap="round" stroke-linejoin="round" stroke-width="__RESOLUTION__" d="M3.1 2.2 0 .9Q.6-.4 2 .2t2 2.2zm6.6 23.5Q22 17.3 5.5 3.3" vector-effect="non-scaling-stroke"/><path fill="none" stroke="#fc563f" stroke-linecap="round" stroke-linejoin="round" stroke-width="__RESOLUTION__" d="M5.5 3.3Q16.3 9 16.3 2.6" vector-effect="non-scaling-stroke"/><path fill="#f43404" d="m8.5 26.2-.2.4L6.6 28q-1-.5-.2-1.1t2.1-.7"/><path fill="none" stroke="#d01d04" stroke-linecap="round" stroke-linejoin="round" stroke-width="__RESOLUTION__" d="m8.5 26.2-.2.4L6.6 28q-1-.5-.2-1.1t2.1-.7" vector-effect="non-scaling-stroke"/></g><g id="ae"><path fill="#cc8080" d="M17.7 6.2Q15 3 11.5 3.8l.9-.3q2.2-.6 4.2 1.5zm-6-3.2q-3-1.4-6.2 0Q8.4.6 11.8 3"/><path fill="#cc8080" d="M11.6 3.8q3.5-.8 6 2.4l.4.4q2.1 3.2 2.5 7.3-1.2 3.1-2.8 3.6-.1-3.3-2.9-6.1l1 2.1q.9 2.6.7 4.4-1.7 1.6-3.2 1.8.2-3.5-3.6-6.8Q6.3 9 .8 8.8L1 7.2Q1 2.8 5.6 3q3.3-1.4 6.2 0l.7.5zm-7 .2 1-1z"/><path fill="#cc8080" d="M20.5 13.9V15q-1 4.9-4.6 4.7.6-.8.6-1.9.2-1.7-.7-4.3l-1-2.2q2.8 2.9 2.8 6.2 1.7-.5 2.9-3.6m-4 4q0 1-.6 1.8-1.3 1.8-8.3 1T.2 16.6t.6-7.8q5.4.3 9 4 3.7 3.4 3.4 6.9 1.6-.2 3.3-1.8"/><path fill="none" stroke="#cc8080" stroke-linecap="round" stroke-linejoin="round" stroke-opacity=".8" stroke-width="__RESOLUTION__" d="m17.7 6.2-1-1.2q-2-2.1-4.2-1.5l-.7-.5Q8.4.6 5.6 3 1.2 2.8.9 7.2L.8 8.8q-1.1 4.5-.6 7.8.4 3.2 7.4 4t8.3-1q3.6.3 4.7-4.6l-.1-1.1q-.4-4.1-2.5-7.2z" vector-effect="non-scaling-stroke"/><path fill="none" stroke="#cc8080" stroke-linecap="round" stroke-linejoin="round" stroke-width="__RESOLUTION__" d="m12.5 3.5-1 .3M5.7 3l-1 1m11.2 9.6q.9 2.5.7 4.3 0 1-.6 1.8" vector-effect="non-scaling-stroke"/><path fill="#cc8080" d="m10 3.2.4.1.6.4q.8.5.9 1.3T11 6.4q-.8.5-1.9.5-1.1-.1-1.9-.7t-.8-1.4.7-1.3l.7-.3L7.7 1l.4.3h1l.8-.2.4-.5q-.4 1.5-.3 2.6 0 1 .5 1.5-.5-.6-.5-1.6M8.7 5.4 7.9 3zm.5.3q.6 0 1.1-.4-.5.4-1.1.3"/><path fill="#cc8080" d="M7.8 1V.8L8 .4 9 0l.9.1.4.4v.2l-.4.4-.8.2H8z"/><path fill="none" stroke="#cc8080" stroke-linecap="round" stroke-linejoin="round" stroke-opacity=".3" stroke-width="__RESOLUTION__" d="m7.9 3.1-.7.4q-.7.5-.7 1.2 0 .8.8 1.4t1.9.7 1.9-.5.8-1.2-.9-1.4l-.6-.4-.4-.1q0 1 .5 1.5m-.3-4V.5L10 .1 9 0l-.9.4-.3.5V1l.1 2.1.8 2.2M10.3.7Q9.9 2 10 3.2m.3 2q-.5.5-1.1.4" vector-effect="non-scaling-stroke"/><path fill="#cc8080" d="m14.2 5.7-1.3 2.7-3.7-.9q2.4-1.8 5-1.8"/><path fill="#cc8080" d="M14.2 5.7q-2.6 0-5 1.8 2.7-2.8 5-1.8"/><path fill="none" stroke="#cc8080" stroke-linecap="round" stroke-linejoin="round" stroke-width="__RESOLUTION__" d="M9.2 7.5q2.7-2.8 5-1.8" vector-effect="non-scaling-stroke"/></g><g id="af"><path fill="#cc8080" d="M3.7 1q.1 1.2-.3 2.2L2.1 4.7H2l-.6.1-1.1-.3.2-1.3.8-2.2Q2-.3 2.8 0q.6.4.9 1"/><path fill="#cc8080" d="m2.3 5.5-1 .5V4.9l.7-.2z"/><path fill="#cc8080" d="M1.3 6h-1L0 5.5l.3-.8v-.1l1 .3z"/><path fill="none" stroke="#cc8080" stroke-linecap="round" stroke-linejoin="round" stroke-opacity=".3" stroke-width="__RESOLUTION__" d="m2 4.8.3.7-1 .5" vector-effect="non-scaling-stroke"/><path fill="none" stroke="#cc8080" stroke-linecap="round" stroke-linejoin="round" stroke-opacity=".3" stroke-width="__RESOLUTION__" d="M1.3 6h-1L0 5.5l.3-.8.2-1.5.8-2.1Q2-.3 2.8 0q.6.3.9.9.1 1.2-.3 2.2L2.1 4.7" vector-effect="non-scaling-stroke"/></g><g id="ag"><path fill="#cc8080" d="M1.2 0q.4.1 1 .6l1 1 .3.9q0 1.3-.5 1.9t-1.3.4Q.5 2.6 1.2 0"/><path fill="#cc8080" d="M1.7 4.8.7 4 0 2.5q-.2-1 0-1.6T.8 0l.4-.1q-.7 2.6.5 4.8"/><path fill="none" stroke="#cc8080" stroke-linecap="round" stroke-linejoin="round" stroke-opacity=".3" stroke-width="__RESOLUTION__" d="m3.2 1.6.3.9q0 1.3-.5 1.9t-1.3.4L.7 4 0 2.5q-.2-1 0-1.6T.8 0" vector-effect="non-scaling-stroke"/><path fill="#cc8080" d="m2.3 4.4.6-.2.3.8-1 .5z"/><path fill="#cc8080" d="m2.3 4.4-.1 1.1h-1L.7 5l.3-.9z"/><path fill="none" stroke="#cc8080" stroke-linecap="round" stroke-linejoin="round" stroke-opacity=".3" stroke-width="__RESOLUTION__" d="m2.2 5.5 1-.4-.3-.8M1.1 4 .9 5l.3.4 1 .1" vector-effect="non-scaling-stroke"/></g><g id="ai"><path fill="#daa" d="M17.7 6.2Q15 3 11.5 3.8l.9-.3q2.2-.6 4.2 1.5zm-6-3.2q-3-1.4-6.2 0Q8.4.6 11.8 3"/><path fill="#daa" d="M11.6 3.8q3.5-.8 6 2.4l.4.4q2.1 3.2 2.5 7.3-1.2 3.1-2.8 3.6-.1-3.3-2.9-6.1l1 2.1q.9 2.6.7 4.4-1.7 1.6-3.2 1.8.2-3.5-3.6-6.8Q6.3 9 .8 8.8L1 7.2Q1 2.8 5.6 3q3.3-1.4 6.2 0l.7.5zm-7 .2 1-1z"/><path fill="#daa" d="M20.5 13.9V15q-1 4.9-4.6 4.7.6-.8.6-1.9.2-1.7-.7-4.3l-1-2.2q2.8 2.9 2.8 6.2 1.7-.5 2.9-3.6m-4 4q0 1-.6 1.8-1.3 1.8-8.3 1T.2 16.6t.6-7.8q5.4.3 9 4 3.7 3.4 3.4 6.9 1.6-.2 3.3-1.8"/><path fill="none" stroke="#daa" stroke-linecap="round" stroke-linejoin="round" stroke-opacity=".8" stroke-width="__RESOLUTION__" d="m17.7 6.2-1-1.2q-2-2.1-4.2-1.5l-.7-.5Q8.4.6 5.6 3 1.2 2.8.9 7.2L.8 8.8q-1.1 4.5-.6 7.8.4 3.2 7.4 4t8.3-1q3.6.3 4.7-4.6l-.1-1.1q-.4-4.1-2.5-7.2z" vector-effect="non-scaling-stroke"/><path fill="none" stroke="#daa" stroke-linecap="round" stroke-linejoin="round" stroke-width="__RESOLUTION__" d="m12.5 3.5-1 .3M5.7 3l-1 1m11.2 9.6q.9 2.5.7 4.3 0 1-.6 1.8" vector-effect="non-scaling-stroke"/><path fill="#daa" d="m10 3.2.4.1.6.4q.8.5.9 1.3T11 6.4q-.8.5-1.9.5-1.1-.1-1.9-.7t-.8-1.4.7-1.3l.7-.3L7.7 1l.4.3h1l.8-.2.4-.5q-.4 1.5-.3 2.6 0 1 .5 1.5-.5-.6-.5-1.6M8.7 5.4 7.9 3zm.5.3q.6 0 1.1-.4-.5.4-1.1.3"/><path fill="#daa" d="M7.8 1V.8L8 .4 9 0l.9.1.4.4v.2l-.4.4-.8.2H8z"/><path fill="none" stroke="#daa" stroke-linecap="round" stroke-linejoin="round" stroke-opacity=".3" stroke-width="__RESOLUTION__" d="m7.9 3.1-.7.4q-.7.5-.7 1.2 0 .8.8 1.4t1.9.7 1.9-.5.8-1.2-.9-1.4l-.6-.4-.4-.1q0 1 .5 1.5m-.3-4V.5L10 .1 9 0l-.9.4-.3.5V1l.1 2.1.8 2.2M10.3.7Q9.9 2 10 3.2m.3 2q-.5.5-1.1.4" vector-effect="non-scaling-stroke"/><path fill="#daa" d="m14.2 5.7-1.3 2.7-3.7-.9q2.4-1.8 5-1.8"/><path fill="#daa" d="M14.2 5.7q-2.6 0-5 1.8 2.7-2.8 5-1.8"/><path fill="none" stroke="#daa" stroke-linecap="round" stroke-linejoin="round" stroke-width="__RESOLUTION__" d="M9.2 7.5q2.7-2.8 5-1.8" vector-effect="non-scaling-stroke"/></g><g id="aj"><path fill="#daa" d="M3.7 1q.1 1.2-.3 2.2L2.1 4.7H2l-.6.1-1.1-.3.2-1.3.8-2.2Q2-.3 2.8 0q.6.4.9 1"/><path fill="#daa" d="m2.3 5.5-1 .5V4.9l.7-.2z"/><path fill="#daa" d="M1.3 6h-1L0 5.5l.3-.8v-.1l1 .3z"/><path fill="none" stroke="#daa" stroke-linecap="round" stroke-linejoin="round" stroke-opacity=".3" stroke-width="__RESOLUTION__" d="m2 4.8.3.7-1 .5" vector-effect="non-scaling-stroke"/><path fill="none" stroke="#daa" stroke-linecap="round" stroke-linejoin="round" stroke-opacity=".3" stroke-width="__RESOLUTION__" d="M1.3 6h-1L0 5.5l.3-.8.2-1.5.8-2.1Q2-.3 2.8 0q.6.3.9.9.1 1.2-.3 2.2L2.1 4.7" vector-effect="non-scaling-stroke"/></g><g id="ak"><path fill="#daa" d="M1.2 0q.4.1 1 .6l1 1 .3.9q0 1.3-.5 1.9t-1.3.4Q.5 2.6 1.2 0"/><path fill="#daa" d="M1.7 4.8.7 4 0 2.5q-.2-1 0-1.6T.8 0l.4-.1q-.7 2.6.5 4.8"/><path fill="none" stroke="#daa" stroke-linecap="round" stroke-linejoin="round" stroke-opacity=".3" stroke-width="__RESOLUTION__" d="m3.2 1.6.3.9q0 1.3-.5 1.9t-1.3.4L.7 4 0 2.5q-.2-1 0-1.6T.8 0" vector-effect="non-scaling-stroke"/><path fill="#daa" d="m2.3 4.4.6-.2.3.8-1 .5z"/><path fill="#daa" d="m2.3 4.4-.1 1.1h-1L.7 5l.3-.9z"/><path fill="none" stroke="#daa" stroke-linecap="round" stroke-linejoin="round" stroke-opacity=".3" stroke-width="__RESOLUTION__" d="m2.2 5.5 1-.4-.3-.8M1.1 4 .9 5l.3.4 1 .1" vector-effect="non-scaling-stroke"/></g><g id="am"><path fill="#eed4d4" d="M17.7 6.2Q15 3 11.5 3.8l.9-.3q2.2-.6 4.2 1.5zm-6-3.2q-3-1.4-6.2 0Q8.4.6 11.8 3"/><path fill="#eed4d4" d="M11.6 3.8q3.5-.8 6 2.4l.4.4q2.1 3.2 2.5 7.3-1.2 3.1-2.8 3.6-.1-3.3-2.9-6.1l1 2.1q.9 2.6.7 4.4-1.7 1.6-3.2 1.8.2-3.5-3.6-6.8Q6.3 9 .8 8.8L1 7.2Q1 2.8 5.6 3q3.3-1.4 6.2 0l.7.5zm-7 .2 1-1z"/><path fill="#eed4d4" d="M20.5 13.9V15q-1 4.9-4.6 4.7.6-.8.6-1.9.2-1.7-.7-4.3l-1-2.2q2.8 2.9 2.8 6.2 1.7-.5 2.9-3.6m-4 4q0 1-.6 1.8-1.3 1.8-8.3 1T.2 16.6t.6-7.8q5.4.3 9 4 3.7 3.4 3.4 6.9 1.6-.2 3.3-1.8"/><path fill="none" stroke="#eed4d4" stroke-linecap="round" stroke-linejoin="round" stroke-opacity=".8" stroke-width="__RESOLUTION__" d="m17.7 6.2-1-1.2q-2-2.1-4.2-1.5l-.7-.5Q8.4.6 5.6 3 1.2 2.8.9 7.2L.8 8.8q-1.1 4.5-.6 7.8.4 3.2 7.4 4t8.3-1q3.6.3 4.7-4.6l-.1-1.1q-.4-4.1-2.5-7.2z" vector-effect="non-scaling-stroke"/><path fill="none" stroke="#eed4d4" stroke-linecap="round" stroke-linejoin="round" stroke-width="__RESOLUTION__" d="m12.5 3.5-1 .3M5.7 3l-1 1m11.2 9.6q.9 2.5.7 4.3 0 1-.6 1.8" vector-effect="non-scaling-stroke"/><path fill="#eed4d4" d="m10 3.2.4.1.6.4q.8.5.9 1.3T11 6.4q-.8.5-1.9.5-1.1-.1-1.9-.7t-.8-1.4.7-1.3l.7-.3L7.7 1l.4.3h1l.8-.2.4-.5q-.4 1.5-.3 2.6 0 1 .5 1.5-.5-.6-.5-1.6M8.7 5.4 7.9 3zm.5.3q.6 0 1.1-.4-.5.4-1.1.3"/><path fill="#eed4d4" d="M7.8 1V.8L8 .4 9 0l.9.1.4.4v.2l-.4.4-.8.2H8z"/><path fill="none" stroke="#eed4d4" stroke-linecap="round" stroke-linejoin="round" stroke-opacity=".3" stroke-width="__RESOLUTION__" d="m7.9 3.1-.7.4q-.7.5-.7 1.2 0 .8.8 1.4t1.9.7 1.9-.5.8-1.2-.9-1.4l-.6-.4-.4-.1q0 1 .5 1.5m-.3-4V.5L10 .1 9 0l-.9.4-.3.5V1l.1 2.1.8 2.2M10.3.7Q9.9 2 10 3.2m.3 2q-.5.5-1.1.4" vector-effect="non-scaling-stroke"/><path fill="#eed4d4" d="m14.2 5.7-1.3 2.7-3.7-.9q2.4-1.8 5-1.8"/><path fill="#eed4d4" d="M14.2 5.7q-2.6 0-5 1.8 2.7-2.8 5-1.8"/><path fill="none" stroke="#eed4d4" stroke-linecap="round" stroke-linejoin="round" stroke-width="__RESOLUTION__" d="M9.2 7.5q2.7-2.8 5-1.8" vector-effect="non-scaling-stroke"/></g><g id="an"><path fill="#eed4d4" d="M3.7 1q.1 1.2-.3 2.2L2.1 4.7H2l-.6.1-1.1-.3.2-1.3.8-2.2Q2-.3 2.8 0q.6.4.9 1"/><path fill="#eed4d4" d="m2.3 5.5-1 .5V4.9l.7-.2z"/><path fill="#eed4d4" d="M1.3 6h-1L0 5.5l.3-.8v-.1l1 .3z"/><path fill="none" stroke="#eed4d4" stroke-linecap="round" stroke-linejoin="round" stroke-opacity=".3" stroke-width="__RESOLUTION__" d="m2 4.8.3.7-1 .5" vector-effect="non-scaling-stroke"/><path fill="none" stroke="#eed4d4" stroke-linecap="round" stroke-linejoin="round" stroke-opacity=".3" stroke-width="__RESOLUTION__" d="M1.3 6h-1L0 5.5l.3-.8.2-1.5.8-2.1Q2-.3 2.8 0q.6.3.9.9.1 1.2-.3 2.2L2.1 4.7" vector-effect="non-scaling-stroke"/></g><g id="ao"><path fill="#eed4d4" d="M1.2 0q.4.1 1 .6l1 1 .3.9q0 1.3-.5 1.9t-1.3.4Q.5 2.6 1.2 0"/><path fill="#eed4d4" d="M1.7 4.8.7 4 0 2.5q-.2-1 0-1.6T.8 0l.4-.1q-.7 2.6.5 4.8"/><path fill="none" stroke="#eed4d4" stroke-linecap="round" stroke-linejoin="round" stroke-opacity=".3" stroke-width="__RESOLUTION__" d="m3.2 1.6.3.9q0 1.3-.5 1.9t-1.3.4L.7 4 0 2.5q-.2-1 0-1.6T.8 0" vector-effect="non-scaling-stroke"/><path fill="#eed4d4" d="m2.3 4.4.6-.2.3.8-1 .5z"/><path fill="#eed4d4" d="m2.3 4.4-.1 1.1h-1L.7 5l.3-.9z"/><path fill="none" stroke="#eed4d4" stroke-linecap="round" stroke-linejoin="round" stroke-opacity=".3" stroke-width="__RESOLUTION__" d="m2.2 5.5 1-.4-.3-.8M1.1 4 .9 5l.3.4 1 .1" vector-effect="non-scaling-stroke"/></g><g id="aq"><path fill="#fff" d="M17.7 6.2Q15 3 11.5 3.8l.9-.3q2.2-.6 4.2 1.5zm-6-3.2q-3-1.4-6.2 0Q8.4.6 11.8 3"/><path fill="#fff" d="M11.6 3.8q3.5-.8 6 2.4l.4.4q2.1 3.2 2.5 7.3-1.2 3.1-2.8 3.6-.1-3.3-2.9-6.1l1 2.1q.9 2.6.7 4.4-1.7 1.6-3.2 1.8.2-3.5-3.6-6.8Q6.3 9 .8 8.8L1 7.2Q1 2.8 5.6 3q3.3-1.4 6.2 0l.7.5zm-7 .2 1-1z"/><path fill="#fff" d="M20.5 13.9V15q-1 4.9-4.6 4.7.6-.8.6-1.9.2-1.7-.7-4.3l-1-2.2q2.8 2.9 2.8 6.2 1.7-.5 2.9-3.6m-4 4q0 1-.6 1.8-1.3 1.8-8.3 1T.2 16.6t.6-7.8q5.4.3 9 4 3.7 3.4 3.4 6.9 1.6-.2 3.3-1.8"/><path fill="none" stroke="#fff" stroke-linecap="round" stroke-linejoin="round" stroke-opacity=".8" stroke-width="__RESOLUTION__" d="m17.7 6.2-1-1.2q-2-2.1-4.2-1.5l-.7-.5Q8.4.6 5.6 3 1.2 2.8.9 7.2L.8 8.8q-1.1 4.5-.6 7.8.4 3.2 7.4 4t8.3-1q3.6.3 4.7-4.6l-.1-1.1q-.4-4.1-2.5-7.2z" vector-effect="non-scaling-stroke"/><path fill="none" stroke="#fff" stroke-linecap="round" stroke-linejoin="round" stroke-width="__RESOLUTION__" d="m12.5 3.5-1 .3M5.7 3l-1 1m11.2 9.6q.9 2.5.7 4.3 0 1-.6 1.8" vector-effect="non-scaling-stroke"/><path fill="#fff" d="m10 3.2.4.1.6.4q.8.5.9 1.3T11 6.4q-.8.5-1.9.5-1.1-.1-1.9-.7t-.8-1.4.7-1.3l.7-.3L7.7 1l.4.3h1l.8-.2.4-.5q-.4 1.5-.3 2.6 0 1 .5 1.5-.5-.6-.5-1.6M8.7 5.4 7.9 3zm.5.3q.6 0 1.1-.4-.5.4-1.1.3"/><path fill="#fff" d="M7.8 1V.8L8 .4 9 0l.9.1.4.4v.2l-.4.4-.8.2H8z"/><path fill="none" stroke="#fff" stroke-linecap="round" stroke-linejoin="round" stroke-opacity=".3" stroke-width="__RESOLUTION__" d="m7.9 3.1-.7.4q-.7.5-.7 1.2 0 .8.8 1.4t1.9.7 1.9-.5.8-1.2-.9-1.4l-.6-.4-.4-.1q0 1 .5 1.5m-.3-4V.5L10 .1 9 0l-.9.4-.3.5V1l.1 2.1.8 2.2M10.3.7Q9.9 2 10 3.2m.3 2q-.5.5-1.1.4" vector-effect="non-scaling-stroke"/><path fill="#fff" d="m14.2 5.7-1.3 2.7-3.7-.9q2.4-1.8 5-1.8"/><path fill="#fff" d="M14.2 5.7q-2.6 0-5 1.8 2.7-2.8 5-1.8"/><path fill="none" stroke="#fff" stroke-linecap="round" stroke-linejoin="round" stroke-width="__RESOLUTION__" d="M9.2 7.5q2.7-2.8 5-1.8" vector-effect="non-scaling-stroke"/></g><g id="ar"><path fill="#fff" d="M3.7 1q.1 1.2-.3 2.2L2.1 4.7H2l-.6.1-1.1-.3.2-1.3.8-2.2Q2-.3 2.8 0q.6.4.9 1"/><path fill="#fff" d="m2.3 5.5-1 .5V4.9l.7-.2z"/><path fill="#fff" d="M1.3 6h-1L0 5.5l.3-.8v-.1l1 .3z"/><path fill="none" stroke="#fff" stroke-linecap="round" stroke-linejoin="round" stroke-opacity=".3" stroke-width="__RESOLUTION__" d="m2 4.8.3.7-1 .5" vector-effect="non-scaling-stroke"/><path fill="none" stroke="#fff" stroke-linecap="round" stroke-linejoin="round" stroke-opacity=".3" stroke-width="__RESOLUTION__" d="M1.3 6h-1L0 5.5l.3-.8.2-1.5.8-2.1Q2-.3 2.8 0q.6.3.9.9.1 1.2-.3 2.2L2.1 4.7" vector-effect="non-scaling-stroke"/></g><g id="as"><path fill="#fff" d="M1.2 0q.4.1 1 .6l1 1 .3.9q0 1.3-.5 1.9t-1.3.4Q.5 2.6 1.2 0"/><path fill="#fff" d="M1.7 4.8.7 4 0 2.5q-.2-1 0-1.6T.8 0l.4-.1q-.7 2.6.5 4.8"/><path fill="none" stroke="#fff" stroke-linecap="round" stroke-linejoin="round" stroke-opacity=".3" stroke-width="__RESOLUTION__" d="m3.2 1.6.3.9q0 1.3-.5 1.9t-1.3.4L.7 4 0 2.5q-.2-1 0-1.6T.8 0" vector-effect="non-scaling-stroke"/><path fill="#fff" d="m2.3 4.4.6-.2.3.8-1 .5z"/><path fill="#fff" d="m2.3 4.4-.1 1.1h-1L.7 5l.3-.9z"/><path fill="none" stroke="#fff" stroke-linecap="round" stroke-linejoin="round" stroke-opacity=".3" stroke-width="__RESOLUTION__" d="m2.2 5.5 1-.4-.3-.8M1.1 4 .9 5l.3.4 1 .1" vector-effect="non-scaling-stroke"/></g><g id="au"><path fill="#ffb130" d="M17.7 6.2Q15 3 11.5 3.8l.9-.3q2.2-.6 4.2 1.5zm-6-3.2q-3-1.4-6.2 0Q8.4.6 11.8 3"/><path fill="#ff910b" d="M11.6 3.8q3.5-.8 6 2.4l.4.4q2.1 3.2 2.5 7.3-1.2 3.1-2.8 3.6-.1-3.3-2.9-6.1l1 2.1q.9 2.6.7 4.4-1.7 1.6-3.2 1.8.2-3.5-3.6-6.8Q6.3 9 .8 8.8L1 7.2Q1 2.8 5.6 3q3.3-1.4 6.2 0l.7.5zm-7 .2 1-1z"/><path fill="#f17901" d="M20.5 13.9V15q-1 4.9-4.6 4.7.6-.8.6-1.9.2-1.7-.7-4.3l-1-2.2q2.8 2.9 2.8 6.2 1.7-.5 2.9-3.6m-4 4q0 1-.6 1.8-1.3 1.8-8.3 1T.2 16.6t.6-7.8q5.4.3 9 4 3.7 3.4 3.4 6.9 1.6-.2 3.3-1.8"/><path fill="none" stroke="#824409" stroke-linecap="round" stroke-linejoin="round" stroke-opacity=".8" stroke-width="__RESOLUTION__" d="m17.7 6.2-1-1.2q-2-2.1-4.2-1.5l-.7-.5Q8.4.6 5.6 3 1.2 2.8.9 7.2L.8 8.8q-1.1 4.5-.6 7.8.4 3.2 7.4 4t8.3-1q3.6.3 4.7-4.6l-.1-1.1q-.4-4.1-2.5-7.2z" vector-effect="non-scaling-stroke"/><path fill="none" stroke="#fec667" stroke-linecap="round" stroke-linejoin="round" stroke-width="__RESOLUTION__" d="m12.5 3.5-1 .3M5.7 3l-1 1m11.2 9.6q.9 2.5.7 4.3 0 1-.6 1.8" vector-effect="non-scaling-stroke"/><path fill="#815c2d" d="m10 3.2.4.1.6.4q.8.5.9 1.3T11 6.4q-.8.5-1.9.5-1.1-.1-1.9-.7t-.8-1.4.7-1.3l.7-.3L7.7 1l.4.3h1l.8-.2.4-.5q-.4 1.5-.3 2.6 0 1 .5 1.5-.5-.6-.5-1.6M8.7 5.4 7.9 3zm.5.3q.6 0 1.1-.4-.5.4-1.1.3"/><path fill="#b17e3d" d="M7.8 1V.8L8 .4 9 0l.9.1.4.4v.2l-.4.4-.8.2H8z"/><path fill="none" stroke="#000" stroke-linecap="round" stroke-linejoin="round" stroke-opacity=".3" stroke-width="__RESOLUTION__" d="m7.9 3.1-.7.4q-.7.5-.7 1.2 0 .8.8 1.4t1.9.7 1.9-.5.8-1.2-.9-1.4l-.6-.4-.4-.1q0 1 .5 1.5m-.3-4V.5L10 .1 9 0l-.9.4-.3.5V1l.1 2.1.8 2.2M10.3.7Q9.9 2 10 3.2m.3 2q-.5.5-1.1.4" vector-effect="non-scaling-stroke"/><path fill="#ff910b" d="m14.2 5.7-1.3 2.7-3.7-.9q2.4-1.8 5-1.8"/><path fill="#ffb130" d="M14.2 5.7q-2.6 0-5 1.8 2.7-2.8 5-1.8"/><path fill="none" stroke="#fec667" stroke-linecap="round" stroke-linejoin="round" stroke-width="__RESOLUTION__" d="M9.2 7.5q2.7-2.8 5-1.8" vector-effect="non-scaling-stroke"/></g><g id="av"><path fill="#54561e" d="M3.7 1q.1 1.2-.3 2.2L2.1 4.7H2l-.6.1-1.1-.3.2-1.3.8-2.2Q2-.3 2.8 0q.6.4.9 1"/><path fill="#41413a" d="m2.3 5.5-1 .5V4.9l.7-.2z"/><path fill="#23231f" d="M1.3 6h-1L0 5.5l.3-.8v-.1l1 .3z"/><path fill="none" stroke="#000" stroke-linecap="round" stroke-linejoin="round" stroke-opacity=".3" stroke-width="__RESOLUTION__" d="m2 4.8.3.7-1 .5" vector-effect="non-scaling-stroke"/><path fill="none" stroke="#000" stroke-linecap="round" stroke-linejoin="round" stroke-opacity=".3" stroke-width="__RESOLUTION__" d="M1.3 6h-1L0 5.5l.3-.8.2-1.5.8-2.1Q2-.3 2.8 0q.6.3.9.9.1 1.2-.3 2.2L2.1 4.7" vector-effect="non-scaling-stroke"/></g><g id="aw"><path fill="#54561e" d="M1.2 0q.4.1 1 .6l1 1 .3.9q0 1.3-.5 1.9t-1.3.4Q.5 2.6 1.2 0"/><path fill="#81842e" d="M1.7 4.8.7 4 0 2.5q-.2-1 0-1.6T.8 0l.4-.1q-.7 2.6.5 4.8"/><path fill="none" stroke="#000" stroke-linecap="round" stroke-linejoin="round" stroke-opacity=".3" stroke-width="__RESOLUTION__" d="m3.2 1.6.3.9q0 1.3-.5 1.9t-1.3.4L.7 4 0 2.5q-.2-1 0-1.6T.8 0" vector-effect="non-scaling-stroke"/><path fill="#41413a" d="m2.3 4.4.6-.2.3.8-1 .5z"/><path fill="#23231f" d="m2.3 4.4-.1 1.1h-1L.7 5l.3-.9z"/><path fill="none" stroke="#000" stroke-linecap="round" stroke-linejoin="round" stroke-opacity=".3" stroke-width="__RESOLUTION__" d="m2.2 5.5 1-.4-.3-.8M1.1 4 .9 5l.3.4 1 .1" vector-effect="non-scaling-stroke"/></g><g id="e"><path fill="#900" d="m2.7 12.6 1 3.9 2 .6.6 2.1-.9 1.8-2.5.8-.3-.1 1.5-1.1-2.6-.9-.2-2.3z"/><path fill="#900" d="m2.7 12.6-1.4 4.8.2 2.4 2.7.7-1.5 1.2L0 20.4V17l2.7-4.7z"/><path fill="none" stroke="#900" stroke-linecap="round" stroke-linejoin="round" stroke-opacity=".3" stroke-width="__RESOLUTION__" d="m2.7 21.7.2.1 2.6-.8.8-1.7-.6-2.2-2-.7-1-3.8m0 9.1L0 20.4V17l2.7-4.7" vector-effect="non-scaling-stroke"/><path fill="#900" d="M11.4 12.8q3.2.7 6.7 3.3l.6.7q-.9 1.3-1.9 1.9.6 2.1-.2 4.4 2.2-1.3 2.6-5.6 1.3 2.4-.7 5.6-1.6 1.9-3.8 2.2Q7.8 26.9 3 22.5l-.5-2.1q3.7 4.8 11.2 3.9v-1.1l.5-4.1-4.7-.7q2 .4 3.1-1.3.2-3.5-1.3-4.4m-7.7 3.6.9-1.2q-.8 1 1 2 1.7.8 3.6 1.3-1.2-.8-1.8-2-.6.6-1.8.8zm4.7-3.8.4-.1h.8l.5.1q-1 0-1.7 1.6.2-1.3 0-1.6"/><path fill="#900" d="m18.8 16.8.4.8q-.4 4.2-2.6 5.5.7-2.3.2-4.4 1-.5 2-1.9M2.4 20.4q-.1-2 1.1-4.1l1.9.8q1.7.8 3.6 1.2l.4.1 4.7.7-.5 4.1v1q-7.5 1-11.2-3.8"/><path fill="#900" d="m4.5 15 .4-.5 1-.9q.9-.8 2.4-1.1.2.3 0 1.6.7-1.7 1.7-1.6l1.4.3q1.4.8 1.2 4.3-1.1 1.7-3.1 1.4l-.4-.1q-1.2-.8-1.8-2-.6.6-1.8.8-1.8-1.1-1-2.1m6.5.6-.2.5.2.5.5.2.4-.2.2-.5-.2-.5-.5-.2zm-5.8-.6.1.5.4.2q.3 0 .4-.2t.2-.5l-.2-.5q-.1-.2-.4-.2l-.4.2z"/><path fill="#900" d="m11 15.7.5-.2.4.2.2.5-.2.5q-.2.2-.5.2l-.4-.2-.2-.5zm-5.8-.6.1-.6.4-.2q.3 0 .4.2l.2.5q0 .3-.2.5t-.4.2l-.4-.2z"/><path fill="none" stroke="#900" stroke-linecap="round" stroke-linejoin="round" stroke-opacity=".8" stroke-width="__RESOLUTION__" d="M11.4 12.8q3.2.7 6.7 3.3l.6.7.5.7q1.3 2.4-.7 5.6-1.6 1.9-3.8 2.2Q7.8 26.9 3 22.5l-.5-2.1q-.1-2 1.1-4.1l.9-1.3h0v0l.4-.5 1-.9q.9-.8 2.4-1.1l.4-.1h.8l.5.1z" vector-effect="non-scaling-stroke"/><path fill="none" stroke="#900" stroke-linecap="round" stroke-linejoin="round" stroke-opacity=".3" stroke-width="__RESOLUTION__" d="m11 15.7-.2.5.2.5.5.2.4-.2.2-.5-.2-.5-.5-.2zm-5.8-.6.1.4.4.2q.3 0 .4-.2t.2-.5l-.2-.5q-.1-.2-.4-.2l-.4.2z" vector-effect="non-scaling-stroke"/><path fill="#900" d="m14.6 1.9-.4-.5.5-.1zm3.2 3q.3 1.2-.1 2.4l-5-2.6q.7-1.5 2-1.7 2.4 0 3 1.9m.2 7.3q-3.5-.6-8.6-5l-.8-1-.1-2Q8.5 2 11 .5 9.5 2.4 9.6 4.6q1-.8 2.1-1h.7l-.8.3-1 1q-.4.8-.1 2 .5 2.4 7.4 5.3m2-8-1.2.2q.1-1 .7-1zM18.5 6q1.9.3 1.8 1.7t-.5 1.7q.5-2-1.3-3.4m-8.1-2.1q.3-1.1 1.2-1.4h.5q.5 0 .8.6l-1-.1q-.8 0-1.6.9"/><path fill="#900" d="m14.2 1.4.4.5Q12.7.5 11 .5l1.7-.2zm5.7 2.9q1.4.1 2.7 1.8l.4 1.7q-1.3-2.7-4.4-3.4zm-.5-1q-2.2-1.2-4.7-2 3-.1 4.6 2"/><path fill="#900" d="m14.6 1.9.1-.6q2.6.8 4.7 2-.6.1-.7 1.1 3 .6 4.4 3.4.3 2.1-1.2 3.8-1.6 1.1-4 .6-6.8-2.9-7.4-5.3-.3-1.2.1-2l1-1 .8-.3h-.7q-1.1.2-2.1 1Q9.5 2.4 11 .5q1.7 0 3.6 1.4m3.2 3q-.8-2-3-1.9-1.5.1-2.1 1.6l5 2.7q.5-1.2 0-2.5m2 4.5q.6-.3.6-1.7T18.5 6q1.8 1.3 1.3 3.4M12.9 3q-.3-.6-.9-.6h-.4q-.9.3-1.2 1.4.7-.8 1.5-.9z"/><path fill="none" stroke="#900" stroke-linecap="round" stroke-linejoin="round" stroke-opacity=".8" stroke-width="__RESOLUTION__" d="m14.2 1.4.4.5m.1-.6h-.5l-1.5-1-1.7.2Q8.5 2 8.3 4.2l.2 2 .8 1q5 4.4 8.5 5 2.5.5 4.1-.6 1.5-1.6 1.2-3.8l-.6-1.7Q21.4 4.4 20 4.3l-1.2.1m1.2-.1-.5-1q-1.6-2.1-4.7-2" vector-effect="non-scaling-stroke"/><path fill="none" stroke="#900" stroke-linecap="round" stroke-linejoin="round" stroke-width="__RESOLUTION__" d="M18.5 6q1.8 1.3 1.3 3.3m-9.5-5.5q.8-.8 1.6-.9l1 .1" vector-effect="non-scaling-stroke"/><path fill="#900" d="M18.9 1q-.2.2-.5.2l-.8-.1-.7-.4-.2-.3V.1q.1-.2.5-.2h.9l.6.5.3.4z"/><path fill="#900" d="m16.7.4.2.3q.2.3.7.4l.8.1q.3 0 .5-.2l-1.2 1.8.4.2.3.5q.5.8.3 1.4t-1.1.6-1.8-.4-1.3-1.2-.2-1.3q.2-.6 1-.7h.8q.1-.9.6-1.6M15.9 4l.1-2q-.2.9-.1 2m1.6.2q-.1-.6.2-1.3-.3.7-.2 1.3m-1.3.1 1.1.1z"/><path fill="none" stroke="#900" stroke-linecap="round" stroke-linejoin="round" stroke-opacity=".3" stroke-width="__RESOLUTION__" d="m18.9 1-.2-.5-.6-.4h-.9q-.4 0-.5.3v0q-.5.7-.6 1.7-.3.8-.2 1.9m.2-2h-.8q-.8.2-1 .7-.3.6.2 1.3t1.3 1.2q1 .5 1.8.4t1-.6-.2-1.4l-.3-.5-.4-.2q-.3.7-.1 1.3m-.3.3-1-.2m1.4-1.5L18.9 1" vector-effect="non-scaling-stroke"/><path fill="#900" d="M17.7 7.3q-4.7 2-5-2.7 3.3-.1 5 2.7"/><path fill="#900" d="M12.7 4.6q3.7-1.4 5 2.7-1.8-2.8-5-2.7"/><path fill="none" stroke="#900" stroke-linecap="round" stroke-linejoin="round" stroke-opacity=".8" stroke-width="__RESOLUTION__" d="M12.7 4.6q3.7-1.4 5 2.7" vector-effect="non-scaling-stroke"/><path fill="#900" d="M8.5 23.6 4 21.4l-2.2.1.6-3.1 1.2-1.3 1.2-.5h.1l2.9 3zM4 18.4l-.7.2-.5.5v.7q.1.3.3.1l.4-.6q.2-.6.7-.4t.3-.1-.5-.4m1 .8q-.1.4.5.5t.6 1 .3 1 .4-.5v-1q-.2-.8-.7-1l-.8-.4z"/><path fill="#900" d="m4.9 16.6 1.3.1 3 3.1.8 4-1.3-.2-.9-4zm-.8 1.8q.4 0 .5.4.1.3-.3.1t-.6.4l-.5.7q-.2.2-.3-.1v-.7l.5-.6zm1 .8.4-.3.8.3q.5.3.6 1v1q-.1.5-.4.5-.3-.1-.3-1t-.6-1-.5-.5m3.6 4.5-.2-.1z"/><path fill="none" stroke="#900" stroke-linecap="round" stroke-linejoin="round" stroke-opacity=".3" stroke-width="__RESOLUTION__" d="M8.5 23.6 4 21.4l-2.2.1.6-3.1 1.2-1.3 1.2-.5h.1l1.3.1 3 3.1.8 4zv.1z" vector-effect="non-scaling-stroke"/><path fill="#900" d="m11.1 23.7 3.4-1.5.1-2.4-1.9-5.6.1-.3 3.4 5.3.1 3.6-3.1 1.5z"/><path fill="#900" d="m12.7 14.2 1.9 5.6-.1 2.4-3.4 1.4L11 21l.7-2z"/><path fill="none" stroke="#900" stroke-linecap="round" stroke-linejoin="round" stroke-opacity=".3" stroke-width="__RESOLUTION__" d="m13.2 24.3 3.1-1.5-.1-3.6-3.4-5.3m-.1.3-1 4.8-.7 2" vector-effect="non-scaling-stroke"/></g><g id="j"><path fill="#aa2b2b" d="m2.7 12.6 1 3.9 2 .6.6 2.1-.9 1.8-2.5.8-.3-.1 1.5-1.1-2.6-.9-.2-2.3z"/><path fill="#aa2b2b" d="m2.7 12.6-1.4 4.8.2 2.4 2.7.7-1.5 1.2L0 20.4V17l2.7-4.7z"/><path fill="none" stroke="#aa2b2b" stroke-linecap="round" stroke-linejoin="round" stroke-opacity=".3" stroke-width="__RESOLUTION__" d="m2.7 21.7.2.1 2.6-.8.8-1.7-.6-2.2-2-.7-1-3.8m0 9.1L0 20.4V17l2.7-4.7" vector-effect="non-scaling-stroke"/><path fill="#aa2b2b" d="M11.4 12.8q3.2.7 6.7 3.3l.6.7q-.9 1.3-1.9 1.9.6 2.1-.2 4.4 2.2-1.3 2.6-5.6 1.3 2.4-.7 5.6-1.6 1.9-3.8 2.2Q7.8 26.9 3 22.5l-.5-2.1q3.7 4.8 11.2 3.9v-1.1l.5-4.1-4.7-.7q2 .4 3.1-1.3.2-3.5-1.3-4.4m-7.7 3.6.9-1.2q-.8 1 1 2 1.7.8 3.6 1.3-1.2-.8-1.8-2-.6.6-1.8.8zm4.7-3.8.4-.1h.8l.5.1q-1 0-1.7 1.6.2-1.3 0-1.6"/><path fill="#aa2b2b" d="m18.8 16.8.4.8q-.4 4.2-2.6 5.5.7-2.3.2-4.4 1-.5 2-1.9M2.4 20.4q-.1-2 1.1-4.1l1.9.8q1.7.8 3.6 1.2l.4.1 4.7.7-.5 4.1v1q-7.5 1-11.2-3.8"/><path fill="#aa2b2b" d="m4.5 15 .4-.5 1-.9q.9-.8 2.4-1.1.2.3 0 1.6.7-1.7 1.7-1.6l1.4.3q1.4.8 1.2 4.3-1.1 1.7-3.1 1.4l-.4-.1q-1.2-.8-1.8-2-.6.6-1.8.8-1.8-1.1-1-2.1m6.5.6-.2.5.2.5.5.2.4-.2.2-.5-.2-.5-.5-.2zm-5.8-.6.1.5.4.2q.3 0 .4-.2t.2-.5l-.2-.5q-.1-.2-.4-.2l-.4.2z"/><path fill="#aa2b2b" d="m11 15.7.5-.2.4.2.2.5-.2.5q-.2.2-.5.2l-.4-.2-.2-.5zm-5.8-.6.1-.6.4-.2q.3 0 .4.2l.2.5q0 .3-.2.5t-.4.2l-.4-.2z"/><path fill="none" stroke="#aa2b2b" stroke-linecap="round" stroke-linejoin="round" stroke-opacity=".8" stroke-width="__RESOLUTION__" d="M11.4 12.8q3.2.7 6.7 3.3l.6.7.5.7q1.3 2.4-.7 5.6-1.6 1.9-3.8 2.2Q7.8 26.9 3 22.5l-.5-2.1q-.1-2 1.1-4.1l.9-1.3h0v0l.4-.5 1-.9q.9-.8 2.4-1.1l.4-.1h.8l.5.1z" vector-effect="non-scaling-stroke"/><path fill="none" stroke="#aa2b2b" stroke-linecap="round" stroke-linejoin="round" stroke-opacity=".3" stroke-width="__RESOLUTION__" d="m11 15.7-.2.5.2.5.5.2.4-.2.2-.5-.2-.5-.5-.2zm-5.8-.6.1.4.4.2q.3 0 .4-.2t.2-.5l-.2-.5q-.1-.2-.4-.2l-.4.2z" vector-effect="non-scaling-stroke"/><path fill="#aa2b2b" d="m14.6 1.9-.4-.5.5-.1zm3.2 3q.3 1.2-.1 2.4l-5-2.6q.7-1.5 2-1.7 2.4 0 3 1.9m.2 7.3q-3.5-.6-8.6-5l-.8-1-.1-2Q8.5 2 11 .5 9.5 2.4 9.6 4.6q1-.8 2.1-1h.7l-.8.3-1 1q-.4.8-.1 2 .5 2.4 7.4 5.3m2-8-1.2.2q.1-1 .7-1zM18.5 6q1.9.3 1.8 1.7t-.5 1.7q.5-2-1.3-3.4m-8.1-2.1q.3-1.1 1.2-1.4h.5q.5 0 .8.6l-1-.1q-.8 0-1.6.9"/><path fill="#aa2b2b" d="m14.2 1.4.4.5Q12.7.5 11 .5l1.7-.2zm5.7 2.9q1.4.1 2.7 1.8l.4 1.7q-1.3-2.7-4.4-3.4zm-.5-1q-2.2-1.2-4.7-2 3-.1 4.6 2"/><path fill="#aa2b2b" d="m14.6 1.9.1-.6q2.6.8 4.7 2-.6.1-.7 1.1 3 .6 4.4 3.4.3 2.1-1.2 3.8-1.6 1.1-4 .6-6.8-2.9-7.4-5.3-.3-1.2.1-2l1-1 .8-.3h-.7q-1.1.2-2.1 1Q9.5 2.4 11 .5q1.7 0 3.6 1.4m3.2 3q-.8-2-3-1.9-1.5.1-2.1 1.6l5 2.7q.5-1.2 0-2.5m2 4.5q.6-.3.6-1.7T18.5 6q1.8 1.3 1.3 3.4M12.9 3q-.3-.6-.9-.6h-.4q-.9.3-1.2 1.4.7-.8 1.5-.9z"/><path fill="none" stroke="#aa2b2b" stroke-linecap="round" stroke-linejoin="round" stroke-opacity=".8" stroke-width="__RESOLUTION__" d="m14.2 1.4.4.5m.1-.6h-.5l-1.5-1-1.7.2Q8.5 2 8.3 4.2l.2 2 .8 1q5 4.4 8.5 5 2.5.5 4.1-.6 1.5-1.6 1.2-3.8l-.6-1.7Q21.4 4.4 20 4.3l-1.2.1m1.2-.1-.5-1q-1.6-2.1-4.7-2" vector-effect="non-scaling-stroke"/><path fill="none" stroke="#aa2b2b" stroke-linecap="round" stroke-linejoin="round" stroke-width="__RESOLUTION__" d="M18.5 6q1.8 1.3 1.3 3.3m-9.5-5.5q.8-.8 1.6-.9l1 .1" vector-effect="non-scaling-stroke"/><path fill="#aa2b2b" d="M18.9 1q-.2.2-.5.2l-.8-.1-.7-.4-.2-.3V.1q.1-.2.5-.2h.9l.6.5.3.4z"/><path fill="#aa2b2b" d="m16.7.4.2.3q.2.3.7.4l.8.1q.3 0 .5-.2l-1.2 1.8.4.2.3.5q.5.8.3 1.4t-1.1.6-1.8-.4-1.3-1.2-.2-1.3q.2-.6 1-.7h.8q.1-.9.6-1.6M15.9 4l.1-2q-.2.9-.1 2m1.6.2q-.1-.6.2-1.3-.3.7-.2 1.3m-1.3.1 1.1.1z"/><path fill="none" stroke="#aa2b2b" stroke-linecap="round" stroke-linejoin="round" stroke-opacity=".3" stroke-width="__RESOLUTION__" d="m18.9 1-.2-.5-.6-.4h-.9q-.4 0-.5.3v0q-.5.7-.6 1.7-.3.8-.2 1.9m.2-2h-.8q-.8.2-1 .7-.3.6.2 1.3t1.3 1.2q1 .5 1.8.4t1-.6-.2-1.4l-.3-.5-.4-.2q-.3.7-.1 1.3m-.3.3-1-.2m1.4-1.5L18.9 1" vector-effect="non-scaling-stroke"/><path fill="#aa2b2b" d="M17.7 7.3q-4.7 2-5-2.7 3.3-.1 5 2.7"/><path fill="#aa2b2b" d="M12.7 4.6q3.7-1.4 5 2.7-1.8-2.8-5-2.7"/><path fill="none" stroke="#aa2b2b" stroke-linecap="round" stroke-linejoin="round" stroke-opacity=".8" stroke-width="__RESOLUTION__" d="M12.7 4.6q3.7-1.4 5 2.7" vector-effect="non-scaling-stroke"/><path fill="#aa2b2b" d="M8.5 23.6 4 21.4l-2.2.1.6-3.1 1.2-1.3 1.2-.5h.1l2.9 3zM4 18.4l-.7.2-.5.5v.7q.1.3.3.1l.4-.6q.2-.6.7-.4t.3-.1-.5-.4m1 .8q-.1.4.5.5t.6 1 .3 1 .4-.5v-1q-.2-.8-.7-1l-.8-.4z"/><path fill="#aa2b2b" d="m4.9 16.6 1.3.1 3 3.1.8 4-1.3-.2-.9-4zm-.8 1.8q.4 0 .5.4.1.3-.3.1t-.6.4l-.5.7q-.2.2-.3-.1v-.7l.5-.6zm1 .8.4-.3.8.3q.5.3.6 1v1q-.1.5-.4.5-.3-.1-.3-1t-.6-1-.5-.5m3.6 4.5-.2-.1z"/><path fill="none" stroke="#aa2b2b" stroke-linecap="round" stroke-linejoin="round" stroke-opacity=".3" stroke-width="__RESOLUTION__" d="M8.5 23.6 4 21.4l-2.2.1.6-3.1 1.2-1.3 1.2-.5h.1l1.3.1 3 3.1.8 4zv.1z" vector-effect="non-scaling-stroke"/><path fill="#aa2b2b" d="m11.1 23.7 3.4-1.5.1-2.4-1.9-5.6.1-.3 3.4 5.3.1 3.6-3.1 1.5z"/><path fill="#aa2b2b" d="m12.7 14.2 1.9 5.6-.1 2.4-3.4 1.4L11 21l.7-2z"/><path fill="none" stroke="#aa2b2b" stroke-linecap="round" stroke-linejoin="round" stroke-opacity=".3" stroke-width="__RESOLUTION__" d="m13.2 24.3 3.1-1.5-.1-3.6-3.4-5.3m-.1.3-1 4.8-.7 2" vector-effect="non-scaling-stroke"/></g><g id="o"><path fill="#b55" d="m2.7 12.6 1 3.9 2 .6.6 2.1-.9 1.8-2.5.8-.3-.1 1.5-1.1-2.6-.9-.2-2.3z"/><path fill="#b55" d="m2.7 12.6-1.4 4.8.2 2.4 2.7.7-1.5 1.2L0 20.4V17l2.7-4.7z"/><path fill="none" stroke="#b55" stroke-linecap="round" stroke-linejoin="round" stroke-opacity=".3" stroke-width="__RESOLUTION__" d="m2.7 21.7.2.1 2.6-.8.8-1.7-.6-2.2-2-.7-1-3.8m0 9.1L0 20.4V17l2.7-4.7" vector-effect="non-scaling-stroke"/><path fill="#b55" d="M11.4 12.8q3.2.7 6.7 3.3l.6.7q-.9 1.3-1.9 1.9.6 2.1-.2 4.4 2.2-1.3 2.6-5.6 1.3 2.4-.7 5.6-1.6 1.9-3.8 2.2Q7.8 26.9 3 22.5l-.5-2.1q3.7 4.8 11.2 3.9v-1.1l.5-4.1-4.7-.7q2 .4 3.1-1.3.2-3.5-1.3-4.4m-7.7 3.6.9-1.2q-.8 1 1 2 1.7.8 3.6 1.3-1.2-.8-1.8-2-.6.6-1.8.8zm4.7-3.8.4-.1h.8l.5.1q-1 0-1.7 1.6.2-1.3 0-1.6"/><path fill="#b55" d="m18.8 16.8.4.8q-.4 4.2-2.6 5.5.7-2.3.2-4.4 1-.5 2-1.9M2.4 20.4q-.1-2 1.1-4.1l1.9.8q1.7.8 3.6 1.2l.4.1 4.7.7-.5 4.1v1q-7.5 1-11.2-3.8"/><path fill="#b55" d="m4.5 15 .4-.5 1-.9q.9-.8 2.4-1.1.2.3 0 1.6.7-1.7 1.7-1.6l1.4.3q1.4.8 1.2 4.3-1.1 1.7-3.1 1.4l-.4-.1q-1.2-.8-1.8-2-.6.6-1.8.8-1.8-1.1-1-2.1m6.5.6-.2.5.2.5.5.2.4-.2.2-.5-.2-.5-.5-.2zm-5.8-.6.1.5.4.2q.3 0 .4-.2t.2-.5l-.2-.5q-.1-.2-.4-.2l-.4.2z"/><path fill="#b55" d="m11 15.7.5-.2.4.2.2.5-.2.5q-.2.2-.5.2l-.4-.2-.2-.5zm-5.8-.6.1-.6.4-.2q.3 0 .4.2l.2.5q0 .3-.2.5t-.4.2l-.4-.2z"/><path fill="none" stroke="#b55" stroke-linecap="round" stroke-linejoin="round" stroke-opacity=".8" stroke-width="__RESOLUTION__" d="M11.4 12.8q3.2.7 6.7 3.3l.6.7.5.7q1.3 2.4-.7 5.6-1.6 1.9-3.8 2.2Q7.8 26.9 3 22.5l-.5-2.1q-.1-2 1.1-4.1l.9-1.3h0v0l.4-.5 1-.9q.9-.8 2.4-1.1l.4-.1h.8l.5.1z" vector-effect="non-scaling-stroke"/><path fill="none" stroke="#b55" stroke-linecap="round" stroke-linejoin="round" stroke-opacity=".3" stroke-width="__RESOLUTION__" d="m11 15.7-.2.5.2.5.5.2.4-.2.2-.5-.2-.5-.5-.2zm-5.8-.6.1.4.4.2q.3 0 .4-.2t.2-.5l-.2-.5q-.1-.2-.4-.2l-.4.2z" vector-effect="non-scaling-stroke"/><path fill="#b55" d="m14.6 1.9-.4-.5.5-.1zm3.2 3q.3 1.2-.1 2.4l-5-2.6q.7-1.5 2-1.7 2.4 0 3 1.9m.2 7.3q-3.5-.6-8.6-5l-.8-1-.1-2Q8.5 2 11 .5 9.5 2.4 9.6 4.6q1-.8 2.1-1h.7l-.8.3-1 1q-.4.8-.1 2 .5 2.4 7.4 5.3m2-8-1.2.2q.1-1 .7-1zM18.5 6q1.9.3 1.8 1.7t-.5 1.7q.5-2-1.3-3.4m-8.1-2.1q.3-1.1 1.2-1.4h.5q.5 0 .8.6l-1-.1q-.8 0-1.6.9"/><path fill="#b55" d="m14.2 1.4.4.5Q12.7.5 11 .5l1.7-.2zm5.7 2.9q1.4.1 2.7 1.8l.4 1.7q-1.3-2.7-4.4-3.4zm-.5-1q-2.2-1.2-4.7-2 3-.1 4.6 2"/><path fill="#b55" d="m14.6 1.9.1-.6q2.6.8 4.7 2-.6.1-.7 1.1 3 .6 4.4 3.4.3 2.1-1.2 3.8-1.6 1.1-4 .6-6.8-2.9-7.4-5.3-.3-1.2.1-2l1-1 .8-.3h-.7q-1.1.2-2.1 1Q9.5 2.4 11 .5q1.7 0 3.6 1.4m3.2 3q-.8-2-3-1.9-1.5.1-2.1 1.6l5 2.7q.5-1.2 0-2.5m2 4.5q.6-.3.6-1.7T18.5 6q1.8 1.3 1.3 3.4M12.9 3q-.3-.6-.9-.6h-.4q-.9.3-1.2 1.4.7-.8 1.5-.9z"/><path fill="none" stroke="#b55" stroke-linecap="round" stroke-linejoin="round" stroke-opacity=".8" stroke-width="__RESOLUTION__" d="m14.2 1.4.4.5m.1-.6h-.5l-1.5-1-1.7.2Q8.5 2 8.3 4.2l.2 2 .8 1q5 4.4 8.5 5 2.5.5 4.1-.6 1.5-1.6 1.2-3.8l-.6-1.7Q21.4 4.4 20 4.3l-1.2.1m1.2-.1-.5-1q-1.6-2.1-4.7-2" vector-effect="non-scaling-stroke"/><path fill="none" stroke="#b55" stroke-linecap="round" stroke-linejoin="round" stroke-width="__RESOLUTION__" d="M18.5 6q1.8 1.3 1.3 3.3m-9.5-5.5q.8-.8 1.6-.9l1 .1" vector-effect="non-scaling-stroke"/><path fill="#b55" d="M18.9 1q-.2.2-.5.2l-.8-.1-.7-.4-.2-.3V.1q.1-.2.5-.2h.9l.6.5.3.4z"/><path fill="#b55" d="m16.7.4.2.3q.2.3.7.4l.8.1q.3 0 .5-.2l-1.2 1.8.4.2.3.5q.5.8.3 1.4t-1.1.6-1.8-.4-1.3-1.2-.2-1.3q.2-.6 1-.7h.8q.1-.9.6-1.6M15.9 4l.1-2q-.2.9-.1 2m1.6.2q-.1-.6.2-1.3-.3.7-.2 1.3m-1.3.1 1.1.1z"/><path fill="none" stroke="#b55" stroke-linecap="round" stroke-linejoin="round" stroke-opacity=".3" stroke-width="__RESOLUTION__" d="m18.9 1-.2-.5-.6-.4h-.9q-.4 0-.5.3v0q-.5.7-.6 1.7-.3.8-.2 1.9m.2-2h-.8q-.8.2-1 .7-.3.6.2 1.3t1.3 1.2q1 .5 1.8.4t1-.6-.2-1.4l-.3-.5-.4-.2q-.3.7-.1 1.3m-.3.3-1-.2m1.4-1.5L18.9 1" vector-effect="non-scaling-stroke"/><path fill="#b55" d="M17.7 7.3q-4.7 2-5-2.7 3.3-.1 5 2.7"/><path fill="#b55" d="M12.7 4.6q3.7-1.4 5 2.7-1.8-2.8-5-2.7"/><path fill="none" stroke="#b55" stroke-linecap="round" stroke-linejoin="round" stroke-opacity=".8" stroke-width="__RESOLUTION__" d="M12.7 4.6q3.7-1.4 5 2.7" vector-effect="non-scaling-stroke"/><path fill="#b55" d="M8.5 23.6 4 21.4l-2.2.1.6-3.1 1.2-1.3 1.2-.5h.1l2.9 3zM4 18.4l-.7.2-.5.5v.7q.1.3.3.1l.4-.6q.2-.6.7-.4t.3-.1-.5-.4m1 .8q-.1.4.5.5t.6 1 .3 1 .4-.5v-1q-.2-.8-.7-1l-.8-.4z"/><path fill="#b55" d="m4.9 16.6 1.3.1 3 3.1.8 4-1.3-.2-.9-4zm-.8 1.8q.4 0 .5.4.1.3-.3.1t-.6.4l-.5.7q-.2.2-.3-.1v-.7l.5-.6zm1 .8.4-.3.8.3q.5.3.6 1v1q-.1.5-.4.5-.3-.1-.3-1t-.6-1-.5-.5m3.6 4.5-.2-.1z"/><path fill="none" stroke="#b55" stroke-linecap="round" stroke-linejoin="round" stroke-opacity=".3" stroke-width="__RESOLUTION__" d="M8.5 23.6 4 21.4l-2.2.1.6-3.1 1.2-1.3 1.2-.5h.1l1.3.1 3 3.1.8 4zv.1z" vector-effect="non-scaling-stroke"/><path fill="#b55" d="m11.1 23.7 3.4-1.5.1-2.4-1.9-5.6.1-.3 3.4 5.3.1 3.6-3.1 1.5z"/><path fill="#b55" d="m12.7 14.2 1.9 5.6-.1 2.4-3.4 1.4L11 21l.7-2z"/><path fill="none" stroke="#b55" stroke-linecap="round" stroke-linejoin="round" stroke-opacity=".3" stroke-width="__RESOLUTION__" d="m13.2 24.3 3.1-1.5-.1-3.6-3.4-5.3m-.1.3-1 4.8-.7 2" vector-effect="non-scaling-stroke"/></g><g id="v"><path fill="#cc8080" d="m2.7 12.6 1 3.9 2 .6.6 2.1-.9 1.8-2.5.8-.3-.1 1.5-1.1-2.6-.9-.2-2.3z"/><path fill="#cc8080" d="m2.7 12.6-1.4 4.8.2 2.4 2.7.7-1.5 1.2L0 20.4V17l2.7-4.7z"/><path fill="none" stroke="#cc8080" stroke-linecap="round" stroke-linejoin="round" stroke-opacity=".3" stroke-width="__RESOLUTION__" d="m2.7 21.7.2.1 2.6-.8.8-1.7-.6-2.2-2-.7-1-3.8m0 9.1L0 20.4V17l2.7-4.7" vector-effect="non-scaling-stroke"/><path fill="#cc8080" d="M11.4 12.8q3.2.7 6.7 3.3l.6.7q-.9 1.3-1.9 1.9.6 2.1-.2 4.4 2.2-1.3 2.6-5.6 1.3 2.4-.7 5.6-1.6 1.9-3.8 2.2Q7.8 26.9 3 22.5l-.5-2.1q3.7 4.8 11.2 3.9v-1.1l.5-4.1-4.7-.7q2 .4 3.1-1.3.2-3.5-1.3-4.4m-7.7 3.6.9-1.2q-.8 1 1 2 1.7.8 3.6 1.3-1.2-.8-1.8-2-.6.6-1.8.8zm4.7-3.8.4-.1h.8l.5.1q-1 0-1.7 1.6.2-1.3 0-1.6"/><path fill="#cc8080" d="m18.8 16.8.4.8q-.4 4.2-2.6 5.5.7-2.3.2-4.4 1-.5 2-1.9M2.4 20.4q-.1-2 1.1-4.1l1.9.8q1.7.8 3.6 1.2l.4.1 4.7.7-.5 4.1v1q-7.5 1-11.2-3.8"/><path fill="#cc8080" d="m4.5 15 .4-.5 1-.9q.9-.8 2.4-1.1.2.3 0 1.6.7-1.7 1.7-1.6l1.4.3q1.4.8 1.2 4.3-1.1 1.7-3.1 1.4l-.4-.1q-1.2-.8-1.8-2-.6.6-1.8.8-1.8-1.1-1-2.1m6.5.6-.2.5.2.5.5.2.4-.2.2-.5-.2-.5-.5-.2zm-5.8-.6.1.5.4.2q.3 0 .4-.2t.2-.5l-.2-.5q-.1-.2-.4-.2l-.4.2z"/><path fill="#cc8080" d="m11 15.7.5-.2.4.2.2.5-.2.5q-.2.2-.5.2l-.4-.2-.2-.5zm-5.8-.6.1-.6.4-.2q.3 0 .4.2l.2.5q0 .3-.2.5t-.4.2l-.4-.2z"/><path fill="none" stroke="#cc8080" stroke-linecap="round" stroke-linejoin="round" stroke-opacity=".8" stroke-width="__RESOLUTION__" d="M11.4 12.8q3.2.7 6.7 3.3l.6.7.5.7q1.3 2.4-.7 5.6-1.6 1.9-3.8 2.2Q7.8 26.9 3 22.5l-.5-2.1q-.1-2 1.1-4.1l.9-1.3h0v0l.4-.5 1-.9q.9-.8 2.4-1.1l.4-.1h.8l.5.1z" vector-effect="non-scaling-stroke"/><path fill="none" stroke="#cc8080" stroke-linecap="round" stroke-linejoin="round" stroke-opacity=".3" stroke-width="__RESOLUTION__" d="m11 15.7-.2.5.2.5.5.2.4-.2.2-.5-.2-.5-.5-.2zm-5.8-.6.1.4.4.2q.3 0 .4-.2t.2-.5l-.2-.5q-.1-.2-.4-.2l-.4.2z" vector-effect="non-scaling-stroke"/><path fill="#cc8080" d="m14.6 1.9-.4-.5.5-.1zm3.2 3q.3 1.2-.1 2.4l-5-2.6q.7-1.5 2-1.7 2.4 0 3 1.9m.2 7.3q-3.5-.6-8.6-5l-.8-1-.1-2Q8.5 2 11 .5 9.5 2.4 9.6 4.6q1-.8 2.1-1h.7l-.8.3-1 1q-.4.8-.1 2 .5 2.4 7.4 5.3m2-8-1.2.2q.1-1 .7-1zM18.5 6q1.9.3 1.8 1.7t-.5 1.7q.5-2-1.3-3.4m-8.1-2.1q.3-1.1 1.2-1.4h.5q.5 0 .8.6l-1-.1q-.8 0-1.6.9"/><path fill="#cc8080" d="m14.2 1.4.4.5Q12.7.5 11 .5l1.7-.2zm5.7 2.9q1.4.1 2.7 1.8l.4 1.7q-1.3-2.7-4.4-3.4zm-.5-1q-2.2-1.2-4.7-2 3-.1 4.6 2"/><path fill="#cc8080" d="m14.6 1.9.1-.6q2.6.8 4.7 2-.6.1-.7 1.1 3 .6 4.4 3.4.3 2.1-1.2 3.8-1.6 1.1-4 .6-6.8-2.9-7.4-5.3-.3-1.2.1-2l1-1 .8-.3h-.7q-1.1.2-2.1 1Q9.5 2.4 11 .5q1.7 0 3.6 1.4m3.2 3q-.8-2-3-1.9-1.5.1-2.1 1.6l5 2.7q.5-1.2 0-2.5m2 4.5q.6-.3.6-1.7T18.5 6q1.8 1.3 1.3 3.4M12.9 3q-.3-.6-.9-.6h-.4q-.9.3-1.2 1.4.7-.8 1.5-.9z"/><path fill="none" stroke="#cc8080" stroke-linecap="round" stroke-linejoin="round" stroke-opacity=".8" stroke-width="__RESOLUTION__" d="m14.2 1.4.4.5m.1-.6h-.5l-1.5-1-1.7.2Q8.5 2 8.3 4.2l.2 2 .8 1q5 4.4 8.5 5 2.5.5 4.1-.6 1.5-1.6 1.2-3.8l-.6-1.7Q21.4 4.4 20 4.3l-1.2.1m1.2-.1-.5-1q-1.6-2.1-4.7-2" vector-effect="non-scaling-stroke"/><path fill="none" stroke="#cc8080" stroke-linecap="round" stroke-linejoin="round" stroke-width="__RESOLUTION__" d="M18.5 6q1.8 1.3 1.3 3.3m-9.5-5.5q.8-.8 1.6-.9l1 .1" vector-effect="non-scaling-stroke"/><path fill="#cc8080" d="M18.9 1q-.2.2-.5.2l-.8-.1-.7-.4-.2-.3V.1q.1-.2.5-.2h.9l.6.5.3.4z"/><path fill="#cc8080" d="m16.7.4.2.3q.2.3.7.4l.8.1q.3 0 .5-.2l-1.2 1.8.4.2.3.5q.5.8.3 1.4t-1.1.6-1.8-.4-1.3-1.2-.2-1.3q.2-.6 1-.7h.8q.1-.9.6-1.6M15.9 4l.1-2q-.2.9-.1 2m1.6.2q-.1-.6.2-1.3-.3.7-.2 1.3m-1.3.1 1.1.1z"/><path fill="none" stroke="#cc8080" stroke-linecap="round" stroke-linejoin="round" stroke-opacity=".3" stroke-width="__RESOLUTION__" d="m18.9 1-.2-.5-.6-.4h-.9q-.4 0-.5.3v0q-.5.7-.6 1.7-.3.8-.2 1.9m.2-2h-.8q-.8.2-1 .7-.3.6.2 1.3t1.3 1.2q1 .5 1.8.4t1-.6-.2-1.4l-.3-.5-.4-.2q-.3.7-.1 1.3m-.3.3-1-.2m1.4-1.5L18.9 1" vector-effect="non-scaling-stroke"/><path fill="#cc8080" d="M17.7 7.3q-4.7 2-5-2.7 3.3-.1 5 2.7"/><path fill="#cc8080" d="M12.7 4.6q3.7-1.4 5 2.7-1.8-2.8-5-2.7"/><path fill="none" stroke="#cc8080" stroke-linecap="round" stroke-linejoin="round" stroke-opacity=".8" stroke-width="__RESOLUTION__" d="M12.7 4.6q3.7-1.4 5 2.7" vector-effect="non-scaling-stroke"/><path fill="#cc8080" d="M8.5 23.6 4 21.4l-2.2.1.6-3.1 1.2-1.3 1.2-.5h.1l2.9 3zM4 18.4l-.7.2-.5.5v.7q.1.3.3.1l.4-.6q.2-.6.7-.4t.3-.1-.5-.4m1 .8q-.1.4.5.5t.6 1 .3 1 .4-.5v-1q-.2-.8-.7-1l-.8-.4z"/><path fill="#cc8080" d="m4.9 16.6 1.3.1 3 3.1.8 4-1.3-.2-.9-4zm-.8 1.8q.4 0 .5.4.1.3-.3.1t-.6.4l-.5.7q-.2.2-.3-.1v-.7l.5-.6zm1 .8.4-.3.8.3q.5.3.6 1v1q-.1.5-.4.5-.3-.1-.3-1t-.6-1-.5-.5m3.6 4.5-.2-.1z"/><path fill="none" stroke="#cc8080" stroke-linecap="round" stroke-linejoin="round" stroke-opacity=".3" stroke-width="__RESOLUTION__" d="M8.5 23.6 4 21.4l-2.2.1.6-3.1 1.2-1.3 1.2-.5h.1l1.3.1 3 3.1.8 4zv.1z" vector-effect="non-scaling-stroke"/><path fill="#cc8080" d="m11.1 23.7 3.4-1.5.1-2.4-1.9-5.6.1-.3 3.4 5.3.1 3.6-3.1 1.5z"/><path fill="#cc8080" d="m12.7 14.2 1.9 5.6-.1 2.4-3.4 1.4L11 21l.7-2z"/><path fill="none" stroke="#cc8080" stroke-linecap="round" stroke-linejoin="round" stroke-opacity=".3" stroke-width="__RESOLUTION__" d="m13.2 24.3 3.1-1.5-.1-3.6-3.4-5.3m-.1.3-1 4.8-.7 2" vector-effect="non-scaling-stroke"/></g><g id="A"><path fill="#daa" d="m2.7 12.6 1 3.9 2 .6.6 2.1-.9 1.8-2.5.8-.3-.1 1.5-1.1-2.6-.9-.2-2.3z"/><path fill="#daa" d="m2.7 12.6-1.4 4.8.2 2.4 2.7.7-1.5 1.2L0 20.4V17l2.7-4.7z"/><path fill="none" stroke="#daa" stroke-linecap="round" stroke-linejoin="round" stroke-opacity=".3" stroke-width="__RESOLUTION__" d="m2.7 21.7.2.1 2.6-.8.8-1.7-.6-2.2-2-.7-1-3.8m0 9.1L0 20.4V17l2.7-4.7" vector-effect="non-scaling-stroke"/><path fill="#daa" d="M11.4 12.8q3.2.7 6.7 3.3l.6.7q-.9 1.3-1.9 1.9.6 2.1-.2 4.4 2.2-1.3 2.6-5.6 1.3 2.4-.7 5.6-1.6 1.9-3.8 2.2Q7.8 26.9 3 22.5l-.5-2.1q3.7 4.8 11.2 3.9v-1.1l.5-4.1-4.7-.7q2 .4 3.1-1.3.2-3.5-1.3-4.4m-7.7 3.6.9-1.2q-.8 1 1 2 1.7.8 3.6 1.3-1.2-.8-1.8-2-.6.6-1.8.8zm4.7-3.8.4-.1h.8l.5.1q-1 0-1.7 1.6.2-1.3 0-1.6"/><path fill="#daa" d="m18.8 16.8.4.8q-.4 4.2-2.6 5.5.7-2.3.2-4.4 1-.5 2-1.9M2.4 20.4q-.1-2 1.1-4.1l1.9.8q1.7.8 3.6 1.2l.4.1 4.7.7-.5 4.1v1q-7.5 1-11.2-3.8"/><path fill="#daa" d="m4.5 15 .4-.5 1-.9q.9-.8 2.4-1.1.2.3 0 1.6.7-1.7 1.7-1.6l1.4.3q1.4.8 1.2 4.3-1.1 1.7-3.1 1.4l-.4-.1q-1.2-.8-1.8-2-.6.6-1.8.8-1.8-1.1-1-2.1m6.5.6-.2.5.2.5.5.2.4-.2.2-.5-.2-.5-.5-.2zm-5.8-.6.1.5.4.2q.3 0 .4-.2t.2-.5l-.2-.5q-.1-.2-.4-.2l-.4.2z"/><path fill="#daa" d="m11 15.7.5-.2.4.2.2.5-.2.5q-.2.2-.5.2l-.4-.2-.2-.5zm-5.8-.6.1-.6.4-.2q.3 0 .4.2l.2.5q0 .3-.2.5t-.4.2l-.4-.2z"/><path fill="none" stroke="#daa" stroke-linecap="round" stroke-linejoin="round" stroke-opacity=".8" stroke-width="__RESOLUTION__" d="M11.4 12.8q3.2.7 6.7 3.3l.6.7.5.7q1.3 2.4-.7 5.6-1.6 1.9-3.8 2.2Q7.8 26.9 3 22.5l-.5-2.1q-.1-2 1.1-4.1l.9-1.3h0v0l.4-.5 1-.9q.9-.8 2.4-1.1l.4-.1h.8l.5.1z" vector-effect="non-scaling-stroke"/><path fill="none" stroke="#daa" stroke-linecap="round" stroke-linejoin="round" stroke-opacity=".3" stroke-width="__RESOLUTION__" d="m11 15.7-.2.5.2.5.5.2.4-.2.2-.5-.2-.5-.5-.2zm-5.8-.6.1.4.4.2q.3 0 .4-.2t.2-.5l-.2-.5q-.1-.2-.4-.2l-.4.2z" vector-effect="non-scaling-stroke"/><path fill="#daa" d="m14.6 1.9-.4-.5.5-.1zm3.2 3q.3 1.2-.1 2.4l-5-2.6q.7-1.5 2-1.7 2.4 0 3 1.9m.2 7.3q-3.5-.6-8.6-5l-.8-1-.1-2Q8.5 2 11 .5 9.5 2.4 9.6 4.6q1-.8 2.1-1h.7l-.8.3-1 1q-.4.8-.1 2 .5 2.4 7.4 5.3m2-8-1.2.2q.1-1 .7-1zM18.5 6q1.9.3 1.8 1.7t-.5 1.7q.5-2-1.3-3.4m-8.1-2.1q.3-1.1 1.2-1.4h.5q.5 0 .8.6l-1-.1q-.8 0-1.6.9"/><path fill="#daa" d="m14.2 1.4.4.5Q12.7.5 11 .5l1.7-.2zm5.7 2.9q1.4.1 2.7 1.8l.4 1.7q-1.3-2.7-4.4-3.4zm-.5-1q-2.2-1.2-4.7-2 3-.1 4.6 2"/><path fill="#daa" d="m14.6 1.9.1-.6q2.6.8 4.7 2-.6.1-.7 1.1 3 .6 4.4 3.4.3 2.1-1.2 3.8-1.6 1.1-4 .6-6.8-2.9-7.4-5.3-.3-1.2.1-2l1-1 .8-.3h-.7q-1.1.2-2.1 1Q9.5 2.4 11 .5q1.7 0 3.6 1.4m3.2 3q-.8-2-3-1.9-1.5.1-2.1 1.6l5 2.7q.5-1.2 0-2.5m2 4.5q.6-.3.6-1.7T18.5 6q1.8 1.3 1.3 3.4M12.9 3q-.3-.6-.9-.6h-.4q-.9.3-1.2 1.4.7-.8 1.5-.9z"/><path fill="none" stroke="#daa" stroke-linecap="round" stroke-linejoin="round" stroke-opacity=".8" stroke-width="__RESOLUTION__" d="m14.2 1.4.4.5m.1-.6h-.5l-1.5-1-1.7.2Q8.5 2 8.3 4.2l.2 2 .8 1q5 4.4 8.5 5 2.5.5 4.1-.6 1.5-1.6 1.2-3.8l-.6-1.7Q21.4 4.4 20 4.3l-1.2.1m1.2-.1-.5-1q-1.6-2.1-4.7-2" vector-effect="non-scaling-stroke"/><path fill="none" stroke="#daa" stroke-linecap="round" stroke-linejoin="round" stroke-width="__RESOLUTION__" d="M18.5 6q1.8 1.3 1.3 3.3m-9.5-5.5q.8-.8 1.6-.9l1 .1" vector-effect="non-scaling-stroke"/><path fill="#daa" d="M18.9 1q-.2.2-.5.2l-.8-.1-.7-.4-.2-.3V.1q.1-.2.5-.2h.9l.6.5.3.4z"/><path fill="#daa" d="m16.7.4.2.3q.2.3.7.4l.8.1q.3 0 .5-.2l-1.2 1.8.4.2.3.5q.5.8.3 1.4t-1.1.6-1.8-.4-1.3-1.2-.2-1.3q.2-.6 1-.7h.8q.1-.9.6-1.6M15.9 4l.1-2q-.2.9-.1 2m1.6.2q-.1-.6.2-1.3-.3.7-.2 1.3m-1.3.1 1.1.1z"/><path fill="none" stroke="#daa" stroke-linecap="round" stroke-linejoin="round" stroke-opacity=".3" stroke-width="__RESOLUTION__" d="m18.9 1-.2-.5-.6-.4h-.9q-.4 0-.5.3v0q-.5.7-.6 1.7-.3.8-.2 1.9m.2-2h-.8q-.8.2-1 .7-.3.6.2 1.3t1.3 1.2q1 .5 1.8.4t1-.6-.2-1.4l-.3-.5-.4-.2q-.3.7-.1 1.3m-.3.3-1-.2m1.4-1.5L18.9 1" vector-effect="non-scaling-stroke"/><path fill="#daa" d="M17.7 7.3q-4.7 2-5-2.7 3.3-.1 5 2.7"/><path fill="#daa" d="M12.7 4.6q3.7-1.4 5 2.7-1.8-2.8-5-2.7"/><path fill="none" stroke="#daa" stroke-linecap="round" stroke-linejoin="round" stroke-opacity=".8" stroke-width="__RESOLUTION__" d="M12.7 4.6q3.7-1.4 5 2.7" vector-effect="non-scaling-stroke"/><path fill="#daa" d="M8.5 23.6 4 21.4l-2.2.1.6-3.1 1.2-1.3 1.2-.5h.1l2.9 3zM4 18.4l-.7.2-.5.5v.7q.1.3.3.1l.4-.6q.2-.6.7-.4t.3-.1-.5-.4m1 .8q-.1.4.5.5t.6 1 .3 1 .4-.5v-1q-.2-.8-.7-1l-.8-.4z"/><path fill="#daa" d="m4.9 16.6 1.3.1 3 3.1.8 4-1.3-.2-.9-4zm-.8 1.8q.4 0 .5.4.1.3-.3.1t-.6.4l-.5.7q-.2.2-.3-.1v-.7l.5-.6zm1 .8.4-.3.8.3q.5.3.6 1v1q-.1.5-.4.5-.3-.1-.3-1t-.6-1-.5-.5m3.6 4.5-.2-.1z"/><path fill="none" stroke="#daa" stroke-linecap="round" stroke-linejoin="round" stroke-opacity=".3" stroke-width="__RESOLUTION__" d="M8.5 23.6 4 21.4l-2.2.1.6-3.1 1.2-1.3 1.2-.5h.1l1.3.1 3 3.1.8 4zv.1z" vector-effect="non-scaling-stroke"/><path fill="#daa" d="m11.1 23.7 3.4-1.5.1-2.4-1.9-5.6.1-.3 3.4 5.3.1 3.6-3.1 1.5z"/><path fill="#daa" d="m12.7 14.2 1.9 5.6-.1 2.4-3.4 1.4L11 21l.7-2z"/><path fill="none" stroke="#daa" stroke-linecap="round" stroke-linejoin="round" stroke-opacity=".3" stroke-width="__RESOLUTION__" d="m13.2 24.3 3.1-1.5-.1-3.6-3.4-5.3m-.1.3-1 4.8-.7 2" vector-effect="non-scaling-stroke"/></g><g id="F"><path fill="#eed4d4" d="m2.7 12.6 1 3.9 2 .6.6 2.1-.9 1.8-2.5.8-.3-.1 1.5-1.1-2.6-.9-.2-2.3z"/><path fill="#eed4d4" d="m2.7 12.6-1.4 4.8.2 2.4 2.7.7-1.5 1.2L0 20.4V17l2.7-4.7z"/><path fill="none" stroke="#eed4d4" stroke-linecap="round" stroke-linejoin="round" stroke-opacity=".3" stroke-width="__RESOLUTION__" d="m2.7 21.7.2.1 2.6-.8.8-1.7-.6-2.2-2-.7-1-3.8m0 9.1L0 20.4V17l2.7-4.7" vector-effect="non-scaling-stroke"/><path fill="#eed4d4" d="M11.4 12.8q3.2.7 6.7 3.3l.6.7q-.9 1.3-1.9 1.9.6 2.1-.2 4.4 2.2-1.3 2.6-5.6 1.3 2.4-.7 5.6-1.6 1.9-3.8 2.2Q7.8 26.9 3 22.5l-.5-2.1q3.7 4.8 11.2 3.9v-1.1l.5-4.1-4.7-.7q2 .4 3.1-1.3.2-3.5-1.3-4.4m-7.7 3.6.9-1.2q-.8 1 1 2 1.7.8 3.6 1.3-1.2-.8-1.8-2-.6.6-1.8.8zm4.7-3.8.4-.1h.8l.5.1q-1 0-1.7 1.6.2-1.3 0-1.6"/><path fill="#eed4d4" d="m18.8 16.8.4.8q-.4 4.2-2.6 5.5.7-2.3.2-4.4 1-.5 2-1.9M2.4 20.4q-.1-2 1.1-4.1l1.9.8q1.7.8 3.6 1.2l.4.1 4.7.7-.5 4.1v1q-7.5 1-11.2-3.8"/><path fill="#eed4d4" d="m4.5 15 .4-.5 1-.9q.9-.8 2.4-1.1.2.3 0 1.6.7-1.7 1.7-1.6l1.4.3q1.4.8 1.2 4.3-1.1 1.7-3.1 1.4l-.4-.1q-1.2-.8-1.8-2-.6.6-1.8.8-1.8-1.1-1-2.1m6.5.6-.2.5.2.5.5.2.4-.2.2-.5-.2-.5-.5-.2zm-5.8-.6.1.5.4.2q.3 0 .4-.2t.2-.5l-.2-.5q-.1-.2-.4-.2l-.4.2z"/><path fill="#eed4d4" d="m11 15.7.5-.2.4.2.2.5-.2.5q-.2.2-.5.2l-.4-.2-.2-.5zm-5.8-.6.1-.6.4-.2q.3 0 .4.2l.2.5q0 .3-.2.5t-.4.2l-.4-.2z"/><path fill="none" stroke="#eed4d4" stroke-linecap="round" stroke-linejoin="round" stroke-opacity=".8" stroke-width="__RESOLUTION__" d="M11.4 12.8q3.2.7 6.7 3.3l.6.7.5.7q1.3 2.4-.7 5.6-1.6 1.9-3.8 2.2Q7.8 26.9 3 22.5l-.5-2.1q-.1-2 1.1-4.1l.9-1.3h0v0l.4-.5 1-.9q.9-.8 2.4-1.1l.4-.1h.8l.5.1z" vector-effect="non-scaling-stroke"/><path fill="none" stroke="#eed4d4" stroke-linecap="round" stroke-linejoin="round" stroke-opacity=".3" stroke-width="__RESOLUTION__" d="m11 15.7-.2.5.2.5.5.2.4-.2.2-.5-.2-.5-.5-.2zm-5.8-.6.1.4.4.2q.3 0 .4-.2t.2-.5l-.2-.5q-.1-.2-.4-.2l-.4.2z" vector-effect="non-scaling-stroke"/><path fill="#eed4d4" d="m14.6 1.9-.4-.5.5-.1zm3.2 3q.3 1.2-.1 2.4l-5-2.6q.7-1.5 2-1.7 2.4 0 3 1.9m.2 7.3q-3.5-.6-8.6-5l-.8-1-.1-2Q8.5 2 11 .5 9.5 2.4 9.6 4.6q1-.8 2.1-1h.7l-.8.3-1 1q-.4.8-.1 2 .5 2.4 7.4 5.3m2-8-1.2.2q.1-1 .7-1zM18.5 6q1.9.3 1.8 1.7t-.5 1.7q.5-2-1.3-3.4m-8.1-2.1q.3-1.1 1.2-1.4h.5q.5 0 .8.6l-1-.1q-.8 0-1.6.9"/><path fill="#eed4d4" d="m14.2 1.4.4.5Q12.7.5 11 .5l1.7-.2zm5.7 2.9q1.4.1 2.7 1.8l.4 1.7q-1.3-2.7-4.4-3.4zm-.5-1q-2.2-1.2-4.7-2 3-.1 4.6 2"/><path fill="#eed4d4" d="m14.6 1.9.1-.6q2.6.8 4.7 2-.6.1-.7 1.1 3 .6 4.4 3.4.3 2.1-1.2 3.8-1.6 1.1-4 .6-6.8-2.9-7.4-5.3-.3-1.2.1-2l1-1 .8-.3h-.7q-1.1.2-2.1 1Q9.5 2.4 11 .5q1.7 0 3.6 1.4m3.2 3q-.8-2-3-1.9-1.5.1-2.1 1.6l5 2.7q.5-1.2 0-2.5m2 4.5q.6-.3.6-1.7T18.5 6q1.8 1.3 1.3 3.4M12.9 3q-.3-.6-.9-.6h-.4q-.9.3-1.2 1.4.7-.8 1.5-.9z"/><path fill="none" stroke="#eed4d4" stroke-linecap="round" stroke-linejoin="round" stroke-opacity=".8" stroke-width="__RESOLUTION__" d="m14.2 1.4.4.5m.1-.6h-.5l-1.5-1-1.7.2Q8.5 2 8.3 4.2l.2 2 .8 1q5 4.4 8.5 5 2.5.5 4.1-.6 1.5-1.6 1.2-3.8l-.6-1.7Q21.4 4.4 20 4.3l-1.2.1m1.2-.1-.5-1q-1.6-2.1-4.7-2" vector-effect="non-scaling-stroke"/><path fill="none" stroke="#eed4d4" stroke-linecap="round" stroke-linejoin="round" stroke-width="__RESOLUTION__" d="M18.5 6q1.8 1.3 1.3 3.3m-9.5-5.5q.8-.8 1.6-.9l1 .1" vector-effect="non-scaling-stroke"/><path fill="#eed4d4" d="M18.9 1q-.2.2-.5.2l-.8-.1-.7-.4-.2-.3V.1q.1-.2.5-.2h.9l.6.5.3.4z"/><path fill="#eed4d4" d="m16.7.4.2.3q.2.3.7.4l.8.1q.3 0 .5-.2l-1.2 1.8.4.2.3.5q.5.8.3 1.4t-1.1.6-1.8-.4-1.3-1.2-.2-1.3q.2-.6 1-.7h.8q.1-.9.6-1.6M15.9 4l.1-2q-.2.9-.1 2m1.6.2q-.1-.6.2-1.3-.3.7-.2 1.3m-1.3.1 1.1.1z"/><path fill="none" stroke="#eed4d4" stroke-linecap="round" stroke-linejoin="round" stroke-opacity=".3" stroke-width="__RESOLUTION__" d="m18.9 1-.2-.5-.6-.4h-.9q-.4 0-.5.3v0q-.5.7-.6 1.7-.3.8-.2 1.9m.2-2h-.8q-.8.2-1 .7-.3.6.2 1.3t1.3 1.2q1 .5 1.8.4t1-.6-.2-1.4l-.3-.5-.4-.2q-.3.7-.1 1.3m-.3.3-1-.2m1.4-1.5L18.9 1" vector-effect="non-scaling-stroke"/><path fill="#eed4d4" d="M17.7 7.3q-4.7 2-5-2.7 3.3-.1 5 2.7"/><path fill="#eed4d4" d="M12.7 4.6q3.7-1.4 5 2.7-1.8-2.8-5-2.7"/><path fill="none" stroke="#eed4d4" stroke-linecap="round" stroke-linejoin="round" stroke-opacity=".8" stroke-width="__RESOLUTION__" d="M12.7 4.6q3.7-1.4 5 2.7" vector-effect="non-scaling-stroke"/><path fill="#eed4d4" d="M8.5 23.6 4 21.4l-2.2.1.6-3.1 1.2-1.3 1.2-.5h.1l2.9 3zM4 18.4l-.7.2-.5.5v.7q.1.3.3.1l.4-.6q.2-.6.7-.4t.3-.1-.5-.4m1 .8q-.1.4.5.5t.6 1 .3 1 .4-.5v-1q-.2-.8-.7-1l-.8-.4z"/><path fill="#eed4d4" d="m4.9 16.6 1.3.1 3 3.1.8 4-1.3-.2-.9-4zm-.8 1.8q.4 0 .5.4.1.3-.3.1t-.6.4l-.5.7q-.2.2-.3-.1v-.7l.5-.6zm1 .8.4-.3.8.3q.5.3.6 1v1q-.1.5-.4.5-.3-.1-.3-1t-.6-1-.5-.5m3.6 4.5-.2-.1z"/><path fill="none" stroke="#eed4d4" stroke-linecap="round" stroke-linejoin="round" stroke-opacity=".3" stroke-width="__RESOLUTION__" d="M8.5 23.6 4 21.4l-2.2.1.6-3.1 1.2-1.3 1.2-.5h.1l1.3.1 3 3.1.8 4zv.1z" vector-effect="non-scaling-stroke"/><path fill="#eed4d4" d="m11.1 23.7 3.4-1.5.1-2.4-1.9-5.6.1-.3 3.4 5.3.1 3.6-3.1 1.5z"/><path fill="#eed4d4" d="m12.7 14.2 1.9 5.6-.1 2.4-3.4 1.4L11 21l.7-2z"/><path fill="none" stroke="#eed4d4" stroke-linecap="round" stroke-linejoin="round" stroke-opacity=".3" stroke-width="__RESOLUTION__" d="m13.2 24.3 3.1-1.5-.1-3.6-3.4-5.3m-.1.3-1 4.8-.7 2" vector-effect="non-scaling-stroke"/></g><g id="K"><path fill="#fff" d="m2.7 12.6 1 3.9 2 .6.6 2.1-.9 1.8-2.5.8-.3-.1 1.5-1.1-2.6-.9-.2-2.3z"/><path fill="#fff" d="m2.7 12.6-1.4 4.8.2 2.4 2.7.7-1.5 1.2L0 20.4V17l2.7-4.7z"/><path fill="none" stroke="#fff" stroke-linecap="round" stroke-linejoin="round" stroke-opacity=".3" stroke-width="__RESOLUTION__" d="m2.7 21.7.2.1 2.6-.8.8-1.7-.6-2.2-2-.7-1-3.8m0 9.1L0 20.4V17l2.7-4.7" vector-effect="non-scaling-stroke"/><path fill="#fff" d="M11.4 12.8q3.2.7 6.7 3.3l.6.7q-.9 1.3-1.9 1.9.6 2.1-.2 4.4 2.2-1.3 2.6-5.6 1.3 2.4-.7 5.6-1.6 1.9-3.8 2.2Q7.8 26.9 3 22.5l-.5-2.1q3.7 4.8 11.2 3.9v-1.1l.5-4.1-4.7-.7q2 .4 3.1-1.3.2-3.5-1.3-4.4m-7.7 3.6.9-1.2q-.8 1 1 2 1.7.8 3.6 1.3-1.2-.8-1.8-2-.6.6-1.8.8zm4.7-3.8.4-.1h.8l.5.1q-1 0-1.7 1.6.2-1.3 0-1.6"/><path fill="#fff" d="m18.8 16.8.4.8q-.4 4.2-2.6 5.5.7-2.3.2-4.4 1-.5 2-1.9M2.4 20.4q-.1-2 1.1-4.1l1.9.8q1.7.8 3.6 1.2l.4.1 4.7.7-.5 4.1v1q-7.5 1-11.2-3.8"/><path fill="#fff" d="m4.5 15 .4-.5 1-.9q.9-.8 2.4-1.1.2.3 0 1.6.7-1.7 1.7-1.6l1.4.3q1.4.8 1.2 4.3-1.1 1.7-3.1 1.4l-.4-.1q-1.2-.8-1.8-2-.6.6-1.8.8-1.8-1.1-1-2.1m6.5.6-.2.5.2.5.5.2.4-.2.2-.5-.2-.5-.5-.2zm-5.8-.6.1.5.4.2q.3 0 .4-.2t.2-.5l-.2-.5q-.1-.2-.4-.2l-.4.2z"/><path fill="#fff" d="m11 15.7.5-.2.4.2.2.5-.2.5q-.2.2-.5.2l-.4-.2-.2-.5zm-5.8-.6.1-.6.4-.2q.3 0 .4.2l.2.5q0 .3-.2.5t-.4.2l-.4-.2z"/><path fill="none" stroke="#fff" stroke-linecap="round" stroke-linejoin="round" stroke-opacity=".8" stroke-width="__RESOLUTION__" d="M11.4 12.8q3.2.7 6.7 3.3l.6.7.5.7q1.3 2.4-.7 5.6-1.6 1.9-3.8 2.2Q7.8 26.9 3 22.5l-.5-2.1q-.1-2 1.1-4.1l.9-1.3h0v0l.4-.5 1-.9q.9-.8 2.4-1.1l.4-.1h.8l.5.1z" vector-effect="non-scaling-stroke"/><path fill="none" stroke="#fff" stroke-linecap="round" stroke-linejoin="round" stroke-opacity=".3" stroke-width="__RESOLUTION__" d="m11 15.7-.2.5.2.5.5.2.4-.2.2-.5-.2-.5-.5-.2zm-5.8-.6.1.4.4.2q.3 0 .4-.2t.2-.5l-.2-.5q-.1-.2-.4-.2l-.4.2z" vector-effect="non-scaling-stroke"/><path fill="#fff" d="m14.6 1.9-.4-.5.5-.1zm3.2 3q.3 1.2-.1 2.4l-5-2.6q.7-1.5 2-1.7 2.4 0 3 1.9m.2 7.3q-3.5-.6-8.6-5l-.8-1-.1-2Q8.5 2 11 .5 9.5 2.4 9.6 4.6q1-.8 2.1-1h.7l-.8.3-1 1q-.4.8-.1 2 .5 2.4 7.4 5.3m2-8-1.2.2q.1-1 .7-1zM18.5 6q1.9.3 1.8 1.7t-.5 1.7q.5-2-1.3-3.4m-8.1-2.1q.3-1.1 1.2-1.4h.5q.5 0 .8.6l-1-.1q-.8 0-1.6.9"/><path fill="#fff" d="m14.2 1.4.4.5Q12.7.5 11 .5l1.7-.2zm5.7 2.9q1.4.1 2.7 1.8l.4 1.7q-1.3-2.7-4.4-3.4zm-.5-1q-2.2-1.2-4.7-2 3-.1 4.6 2"/><path fill="#fff" d="m14.6 1.9.1-.6q2.6.8 4.7 2-.6.1-.7 1.1 3 .6 4.4 3.4.3 2.1-1.2 3.8-1.6 1.1-4 .6-6.8-2.9-7.4-5.3-.3-1.2.1-2l1-1 .8-.3h-.7q-1.1.2-2.1 1Q9.5 2.4 11 .5q1.7 0 3.6 1.4m3.2 3q-.8-2-3-1.9-1.5.1-2.1 1.6l5 2.7q.5-1.2 0-2.5m2 4.5q.6-.3.6-1.7T18.5 6q1.8 1.3 1.3 3.4M12.9 3q-.3-.6-.9-.6h-.4q-.9.3-1.2 1.4.7-.8 1.5-.9z"/><path fill="none" stroke="#fff" stroke-linecap="round" stroke-linejoin="round" stroke-opacity=".8" stroke-width="__RESOLUTION__" d="m14.2 1.4.4.5m.1-.6h-.5l-1.5-1-1.7.2Q8.5 2 8.3 4.2l.2 2 .8 1q5 4.4 8.5 5 2.5.5 4.1-.6 1.5-1.6 1.2-3.8l-.6-1.7Q21.4 4.4 20 4.3l-1.2.1m1.2-.1-.5-1q-1.6-2.1-4.7-2" vector-effect="non-scaling-stroke"/><path fill="none" stroke="#fff" stroke-linecap="round" stroke-linejoin="round" stroke-width="__RESOLUTION__" d="M18.5 6q1.8 1.3 1.3 3.3m-9.5-5.5q.8-.8 1.6-.9l1 .1" vector-effect="non-scaling-stroke"/><path fill="#fff" d="M18.9 1q-.2.2-.5.2l-.8-.1-.7-.4-.2-.3V.1q.1-.2.5-.2h.9l.6.5.3.4z"/><path fill="#fff" d="m16.7.4.2.3q.2.3.7.4l.8.1q.3 0 .5-.2l-1.2 1.8.4.2.3.5q.5.8.3 1.4t-1.1.6-1.8-.4-1.3-1.2-.2-1.3q.2-.6 1-.7h.8q.1-.9.6-1.6M15.9 4l.1-2q-.2.9-.1 2m1.6.2q-.1-.6.2-1.3-.3.7-.2 1.3m-1.3.1 1.1.1z"/><path fill="none" stroke="#fff" stroke-linecap="round" stroke-linejoin="round" stroke-opacity=".3" stroke-width="__RESOLUTION__" d="m18.9 1-.2-.5-.6-.4h-.9q-.4 0-.5.3v0q-.5.7-.6 1.7-.3.8-.2 1.9m.2-2h-.8q-.8.2-1 .7-.3.6.2 1.3t1.3 1.2q1 .5 1.8.4t1-.6-.2-1.4l-.3-.5-.4-.2q-.3.7-.1 1.3m-.3.3-1-.2m1.4-1.5L18.9 1" vector-effect="non-scaling-stroke"/><path fill="#fff" d="M17.7 7.3q-4.7 2-5-2.7 3.3-.1 5 2.7"/><path fill="#fff" d="M12.7 4.6q3.7-1.4 5 2.7-1.8-2.8-5-2.7"/><path fill="none" stroke="#fff" stroke-linecap="round" stroke-linejoin="round" stroke-opacity=".8" stroke-width="__RESOLUTION__" d="M12.7 4.6q3.7-1.4 5 2.7" vector-effect="non-scaling-stroke"/><path fill="#fff" d="M8.5 23.6 4 21.4l-2.2.1.6-3.1 1.2-1.3 1.2-.5h.1l2.9 3zM4 18.4l-.7.2-.5.5v.7q.1.3.3.1l.4-.6q.2-.6.7-.4t.3-.1-.5-.4m1 .8q-.1.4.5.5t.6 1 .3 1 .4-.5v-1q-.2-.8-.7-1l-.8-.4z"/><path fill="#fff" d="m4.9 16.6 1.3.1 3 3.1.8 4-1.3-.2-.9-4zm-.8 1.8q.4 0 .5.4.1.3-.3.1t-.6.4l-.5.7q-.2.2-.3-.1v-.7l.5-.6zm1 .8.4-.3.8.3q.5.3.6 1v1q-.1.5-.4.5-.3-.1-.3-1t-.6-1-.5-.5m3.6 4.5-.2-.1z"/><path fill="none" stroke="#fff" stroke-linecap="round" stroke-linejoin="round" stroke-opacity=".3" stroke-width="__RESOLUTION__" d="M8.5 23.6 4 21.4l-2.2.1.6-3.1 1.2-1.3 1.2-.5h.1l1.3.1 3 3.1.8 4zv.1z" vector-effect="non-scaling-stroke"/><path fill="#fff" d="m11.1 23.7 3.4-1.5.1-2.4-1.9-5.6.1-.3 3.4 5.3.1 3.6-3.1 1.5z"/><path fill="#fff" d="m12.7 14.2 1.9 5.6-.1 2.4-3.4 1.4L11 21l.7-2z"/><path fill="none" stroke="#fff" stroke-linecap="round" stroke-linejoin="round" stroke-opacity=".3" stroke-width="__RESOLUTION__" d="m13.2 24.3 3.1-1.5-.1-3.6-3.4-5.3m-.1.3-1 4.8-.7 2" vector-effect="non-scaling-stroke"/></g><g id="P"><path fill="#23231f" d="m2.7 12.6 1 3.9 2 .6.6 2.1-.9 1.8-2.5.8-.3-.1 1.5-1.1-2.6-.9-.2-2.3z"/><path fill="#41413a" d="m2.7 12.6-1.4 4.8.2 2.4 2.7.7-1.5 1.2L0 20.4V17l2.7-4.7z"/><path fill="none" stroke="#000" stroke-linecap="round" stroke-linejoin="round" stroke-opacity=".3" stroke-width="__RESOLUTION__" d="m2.7 21.7.2.1 2.6-.8.8-1.7-.6-2.2-2-.7-1-3.8m0 9.1L0 20.4V17l2.7-4.7" vector-effect="non-scaling-stroke"/><path fill="#f17901" d="M11.4 12.8q3.2.7 6.7 3.3l.6.7q-.9 1.3-1.9 1.9.6 2.1-.2 4.4 2.2-1.3 2.6-5.6 1.3 2.4-.7 5.6-1.6 1.9-3.8 2.2Q7.8 26.9 3 22.5l-.5-2.1q3.7 4.8 11.2 3.9v-1.1l.5-4.1-4.7-.7q2 .4 3.1-1.3.2-3.5-1.3-4.4m-7.7 3.6.9-1.2q-.8 1 1 2 1.7.8 3.6 1.3-1.2-.8-1.8-2-.6.6-1.8.8zm4.7-3.8.4-.1h.8l.5.1q-1 0-1.7 1.6.2-1.3 0-1.6"/><path fill="#ff910b" d="m18.8 16.8.4.8q-.4 4.2-2.6 5.5.7-2.3.2-4.4 1-.5 2-1.9M2.4 20.4q-.1-2 1.1-4.1l1.9.8q1.7.8 3.6 1.2l.4.1 4.7.7-.5 4.1v1q-7.5 1-11.2-3.8"/><path fill="#061003" d="m4.5 15 .4-.5 1-.9q.9-.8 2.4-1.1.2.3 0 1.6.7-1.7 1.7-1.6l1.4.3q1.4.8 1.2 4.3-1.1 1.7-3.1 1.4l-.4-.1q-1.2-.8-1.8-2-.6.6-1.8.8-1.8-1.1-1-2.1m6.5.6-.2.5.2.5.5.2.4-.2.2-.5-.2-.5-.5-.2zm-5.8-.6.1.5.4.2q.3 0 .4-.2t.2-.5l-.2-.5q-.1-.2-.4-.2l-.4.2z"/><path fill="maroon" d="m11 15.7.5-.2.4.2.2.5-.2.5q-.2.2-.5.2l-.4-.2-.2-.5zm-5.8-.6.1-.6.4-.2q.3 0 .4.2l.2.5q0 .3-.2.5t-.4.2l-.4-.2z"/><path fill="none" stroke="#824409" stroke-linecap="round" stroke-linejoin="round" stroke-opacity=".8" stroke-width="__RESOLUTION__" d="M11.4 12.8q3.2.7 6.7 3.3l.6.7.5.7q1.3 2.4-.7 5.6-1.6 1.9-3.8 2.2Q7.8 26.9 3 22.5l-.5-2.1q-.1-2 1.1-4.1l.9-1.3h0v0l.4-.5 1-.9q.9-.8 2.4-1.1l.4-.1h.8l.5.1z" vector-effect="non-scaling-stroke"/><path fill="none" stroke="#000" stroke-linecap="round" stroke-linejoin="round" stroke-opacity=".3" stroke-width="__RESOLUTION__" d="m11 15.7-.2.5.2.5.5.2.4-.2.2-.5-.2-.5-.5-.2zm-5.8-.6.1.4.4.2q.3 0 .4-.2t.2-.5l-.2-.5q-.1-.2-.4-.2l-.4.2z" vector-effect="non-scaling-stroke"/><path fill="#f17901" d="m14.6 1.9-.4-.5.5-.1zm3.2 3q.3 1.2-.1 2.4l-5-2.6q.7-1.5 2-1.7 2.4 0 3 1.9m.2 7.3q-3.5-.6-8.6-5l-.8-1-.1-2Q8.5 2 11 .5 9.5 2.4 9.6 4.6q1-.8 2.1-1h.7l-.8.3-1 1q-.4.8-.1 2 .5 2.4 7.4 5.3m2-8-1.2.2q.1-1 .7-1zM18.5 6q1.9.3 1.8 1.7t-.5 1.7q.5-2-1.3-3.4m-8.1-2.1q.3-1.1 1.2-1.4h.5q.5 0 .8.6l-1-.1q-.8 0-1.6.9"/><path fill="#ffb130" d="m14.2 1.4.4.5Q12.7.5 11 .5l1.7-.2zm5.7 2.9q1.4.1 2.7 1.8l.4 1.7q-1.3-2.7-4.4-3.4zm-.5-1q-2.2-1.2-4.7-2 3-.1 4.6 2"/><path fill="#ff910b" d="m14.6 1.9.1-.6q2.6.8 4.7 2-.6.1-.7 1.1 3 .6 4.4 3.4.3 2.1-1.2 3.8-1.6 1.1-4 .6-6.8-2.9-7.4-5.3-.3-1.2.1-2l1-1 .8-.3h-.7q-1.1.2-2.1 1Q9.5 2.4 11 .5q1.7 0 3.6 1.4m3.2 3q-.8-2-3-1.9-1.5.1-2.1 1.6l5 2.7q.5-1.2 0-2.5m2 4.5q.6-.3.6-1.7T18.5 6q1.8 1.3 1.3 3.4M12.9 3q-.3-.6-.9-.6h-.4q-.9.3-1.2 1.4.7-.8 1.5-.9z"/><path fill="none" stroke="#824409" stroke-linecap="round" stroke-linejoin="round" stroke-opacity=".8" stroke-width="__RESOLUTION__" d="m14.2 1.4.4.5m.1-.6h-.5l-1.5-1-1.7.2Q8.5 2 8.3 4.2l.2 2 .8 1q5 4.4 8.5 5 2.5.5 4.1-.6 1.5-1.6 1.2-3.8l-.6-1.7Q21.4 4.4 20 4.3l-1.2.1m1.2-.1-.5-1q-1.6-2.1-4.7-2" vector-effect="non-scaling-stroke"/><path fill="none" stroke="#fec667" stroke-linecap="round" stroke-linejoin="round" stroke-width="__RESOLUTION__" d="M18.5 6q1.8 1.3 1.3 3.3m-9.5-5.5q.8-.8 1.6-.9l1 .1" vector-effect="non-scaling-stroke"/><path fill="#b17e3d" d="M18.9 1q-.2.2-.5.2l-.8-.1-.7-.4-.2-.3V.1q.1-.2.5-.2h.9l.6.5.3.4z"/><path fill="#815c2d" d="m16.7.4.2.3q.2.3.7.4l.8.1q.3 0 .5-.2l-1.2 1.8.4.2.3.5q.5.8.3 1.4t-1.1.6-1.8-.4-1.3-1.2-.2-1.3q.2-.6 1-.7h.8q.1-.9.6-1.6M15.9 4l.1-2q-.2.9-.1 2m1.6.2q-.1-.6.2-1.3-.3.7-.2 1.3m-1.3.1 1.1.1z"/><path fill="none" stroke="#000" stroke-linecap="round" stroke-linejoin="round" stroke-opacity=".3" stroke-width="__RESOLUTION__" d="m18.9 1-.2-.5-.6-.4h-.9q-.4 0-.5.3v0q-.5.7-.6 1.7-.3.8-.2 1.9m.2-2h-.8q-.8.2-1 .7-.3.6.2 1.3t1.3 1.2q1 .5 1.8.4t1-.6-.2-1.4l-.3-.5-.4-.2q-.3.7-.1 1.3m-.3.3-1-.2m1.4-1.5L18.9 1" vector-effect="non-scaling-stroke"/><path fill="#ff910b" d="M17.7 7.3q-4.7 2-5-2.7 3.3-.1 5 2.7"/><path fill="#ffb130" d="M12.7 4.6q3.7-1.4 5 2.7-1.8-2.8-5-2.7"/><path fill="none" stroke="#824409" stroke-linecap="round" stroke-linejoin="round" stroke-opacity=".8" stroke-width="__RESOLUTION__" d="M12.7 4.6q3.7-1.4 5 2.7" vector-effect="non-scaling-stroke"/><path fill="#81842e" d="M8.5 23.6 4 21.4l-2.2.1.6-3.1 1.2-1.3 1.2-.5h.1l2.9 3zM4 18.4l-.7.2-.5.5v.7q.1.3.3.1l.4-.6q.2-.6.7-.4t.3-.1-.5-.4m1 .8q-.1.4.5.5t.6 1 .3 1 .4-.5v-1q-.2-.8-.7-1l-.8-.4z"/><path fill="#54561e" d="m4.9 16.6 1.3.1 3 3.1.8 4-1.3-.2-.9-4zm-.8 1.8q.4 0 .5.4.1.3-.3.1t-.6.4l-.5.7q-.2.2-.3-.1v-.7l.5-.6zm1 .8.4-.3.8.3q.5.3.6 1v1q-.1.5-.4.5-.3-.1-.3-1t-.6-1-.5-.5"/><path fill="#dba4a4" d="m8.7 23.7-.2-.1z"/><path fill="none" stroke="#000" stroke-linecap="round" stroke-linejoin="round" stroke-opacity=".3" stroke-width="__RESOLUTION__" d="M8.5 23.6 4 21.4l-2.2.1.6-3.1 1.2-1.3 1.2-.5h.1l1.3.1 3 3.1.8 4zv.1z" vector-effect="non-scaling-stroke"/><path fill="#41413a" d="m11.1 23.7 3.4-1.5.1-2.4-1.9-5.6.1-.3 3.4 5.3.1 3.6-3.1 1.5z"/><path fill="#23231f" d="m12.7 14.2 1.9 5.6-.1 2.4-3.4 1.4L11 21l.7-2z"/><path fill="none" stroke="#000" stroke-linecap="round" stroke-linejoin="round" stroke-opacity=".3" stroke-width="__RESOLUTION__" d="m13.2 24.3 3.1-1.5-.1-3.6-3.4-5.3m-.1.3-1 4.8-.7 2" vector-effect="non-scaling-stroke"/></g><g id="aT" transform="translate(13.2 34.4)"><use xlink:href="#a" width="15.1" height="4.5" transform="translate(-2.35 -4.55)"/><use xlink:href="#b" width="3.5" height="5.5" transform="rotate(38.32 13.77 -4.46)scale(.9984)"/><use xlink:href="#c" width="3.7" height="6" transform="translate(6.65 -7.6)"/><use xlink:href="#d" width="20.6" height="20.9" transform="matrix(.8816 .5877 -.3357 .9091 .6 -31.95)"/><use xlink:href="#b" width="3.5" height="5.5" transform="rotate(45.14 14.45 2.53)scale(.9984)"/><use xlink:href="#e" width="23.1" height="25.7" transform="translate(-13.2 -34.4)"/></g><g id="aR" transform="translate(13.2 34.4)"><use xlink:href="#f" width="15.1" height="4.5" transform="translate(-2.35 -4.55)"/><use xlink:href="#g" width="3.5" height="5.5" transform="rotate(38.32 13.77 -4.46)scale(.9984)"/><use xlink:href="#h" width="3.7" height="6" transform="translate(6.65 -7.6)"/><use xlink:href="#i" width="20.6" height="20.9" transform="matrix(.8816 .5877 -.3357 .9091 .6 -31.95)"/><use xlink:href="#g" width="3.5" height="5.5" transform="rotate(45.14 14.45 2.53)scale(.9984)"/><use xlink:href="#j" width="23.1" height="25.7" transform="translate(-13.2 -34.4)"/></g><g id="aP" transform="translate(13.2 34.4)"><use xlink:href="#k" width="15.1" height="4.5" transform="translate(-2.35 -4.55)"/><use xlink:href="#l" width="3.5" height="5.5" transform="rotate(38.32 13.77 -4.46)scale(.9984)"/><use xlink:href="#m" width="3.7" height="6" transform="translate(6.65 -7.6)"/><use xlink:href="#n" width="20.6" height="20.9" transform="matrix(.8816 .5877 -.3357 .9091 .6 -31.95)"/><use xlink:href="#l" width="3.5" height="5.5" transform="rotate(45.14 14.45 2.53)scale(.9984)"/><use xlink:href="#o" width="23.1" height="25.7" transform="translate(-13.2 -34.4)"/></g><g id="aN" transform="translate(25.55 12.45)"><use xlink:href="#p" width="27.9" height="27.9" transform="translate(-7.45 -2.85)scale(.6188)"/><use xlink:href="#q" width="34.7" height="28.6" transform="translate(-25.55 -12.45)scale(1.21)"/></g><g id="aM" transform="translate(13.2 34.4)"><use xlink:href="#r" width="15.1" height="4.5" transform="translate(-2.35 -4.55)"/><use xlink:href="#s" width="3.5" height="5.5" transform="rotate(38.32 13.77 -4.46)scale(.9984)"/><use xlink:href="#t" width="3.7" height="6" transform="translate(6.65 -7.6)"/><use xlink:href="#u" width="20.6" height="20.9" transform="matrix(.8816 .5877 -.3357 .9091 .6 -31.95)"/><use xlink:href="#s" width="3.5" height="5.5" transform="rotate(45.14 14.45 2.53)scale(.9984)"/><use xlink:href="#v" width="23.1" height="25.7" transform="translate(-13.2 -34.4)"/></g><g id="aK" transform="translate(13.2 34.4)"><use xlink:href="#w" width="15.1" height="4.5" transform="translate(-2.35 -4.55)"/><use xlink:href="#x" width="3.5" height="5.5" transform="rotate(38.32 13.77 -4.46)scale(.9984)"/><use xlink:href="#y" width="3.7" height="6" transform="translate(6.65 -7.6)"/><use xlink:href="#z" width="20.6" height="20.9" transform="matrix(.8816 .5877 -.3357 .9091 .6 -31.95)"/><use xlink:href="#x" width="3.5" height="5.5" transform="rotate(45.14 14.45 2.53)scale(.9984)"/><use xlink:href="#A" width="23.1" height="25.7" transform="translate(-13.2 -34.4)"/></g><g id="aI" transform="translate(13.2 34.4)"><use xlink:href="#B" width="15.1" height="4.5" transform="translate(-2.35 -4.55)"/><use xlink:href="#C" width="3.5" height="5.5" transform="rotate(38.32 13.77 -4.46)scale(.9984)"/><use xlink:href="#D" width="3.7" height="6" transform="translate(6.65 -7.6)"/><use xlink:href="#E" width="20.6" height="20.9" transform="matrix(.8816 .5877 -.3357 .9091 .6 -31.95)"/><use xlink:href="#C" width="3.5" height="5.5" transform="rotate(45.14 14.45 2.53)scale(.9984)"/><use xlink:href="#F" width="23.1" height="25.7" transform="translate(-13.2 -34.4)"/></g><g id="aF" transform="translate(13.2 34.4)"><use xlink:href="#G" width="15.1" height="4.5" transform="translate(-2.35 -4.55)"/><use xlink:href="#H" width="3.5" height="5.5" transform="rotate(38.32 13.77 -4.46)scale(.9984)"/><use xlink:href="#I" width="3.7" height="6" transform="translate(6.65 -7.6)"/><use xlink:href="#J" width="20.6" height="20.9" transform="matrix(.8816 .5877 -.3357 .9091 .6 -31.95)"/><use xlink:href="#H" width="3.5" height="5.5" transform="rotate(45.14 14.45 2.53)scale(.9984)"/><use xlink:href="#K" width="23.1" height="25.7" transform="translate(-13.2 -34.4)"/></g><g id="aD" transform="translate(25.55 12.45)"><use xlink:href="#p" width="27.9" height="27.9" transform="translate(-7.45 -2.85)scale(.6188)"/><use xlink:href="#q" width="34.7" height="28.6" transform="translate(-17.6 -6.6)scale(.815)"/></g><g id="aB" transform="translate(13.2 34.4)"><use xlink:href="#L" width="15.1" height="4.5" transform="translate(-2.35 -4.55)"/><use xlink:href="#M" width="3.5" height="5.5" transform="rotate(38.32 13.77 -4.46)scale(.9984)"/><use xlink:href="#N" width="3.7" height="6" transform="translate(6.65 -7.6)"/><use xlink:href="#O" width="20.6" height="20.9" transform="matrix(.8816 .5877 -.3357 .9091 .6 -31.95)"/><use xlink:href="#M" width="3.5" height="5.5" transform="rotate(45.14 14.45 2.53)scale(.9984)"/><use xlink:href="#P" width="23.1" height="25.7" transform="translate(-13.2 -34.4)"/></g><use xlink:href="#aAA" id="ay" width="22.9" height="21.6"/><use xlink:href="#Q" id="d" width="20.6" height="20.9"/><use xlink:href="#R" id="c" width="3.7" height="6"/><use xlink:href="#S" id="b" width="3.5" height="5.5"/><use xlink:href="#T" id="a" width="15.1" height="4.5"/><use xlink:href="#U" id="i" width="20.6" height="20.9"/><use xlink:href="#V" id="h" width="3.7" height="6"/><use xlink:href="#W" id="g" width="3.5" height="5.5"/><use xlink:href="#X" id="f" width="15.1" height="4.5"/><use xlink:href="#Y" id="n" width="20.6" height="20.9"/><use xlink:href="#Z" id="m" width="3.7" height="6"/><use xlink:href="#aa" id="l" width="3.5" height="5.5"/><use xlink:href="#ab" id="k" width="15.1" height="4.5"/><use xlink:href="#ac" id="q" width="34.7" height="28.6"/><use xlink:href="#ad" id="p" width="27.9" height="27.9"/><use xlink:href="#ae" id="u" width="20.6" height="20.9"/><use xlink:href="#af" id="t" width="3.7" height="6"/><use xlink:href="#ag" id="s" width="3.5" height="5.5"/><use xlink:href="#ah" id="r" width="15.1" height="4.5"/><use xlink:href="#ai" id="z" width="20.6" height="20.9"/><use xlink:href="#aj" id="y" width="3.7" height="6"/><use xlink:href="#ak" id="x" width="3.5" height="5.5"/><use xlink:href="#al" id="w" width="15.1" height="4.5"/><use xlink:href="#am" id="E" width="20.6" height="20.9"/><use xlink:href="#an" id="D" width="3.7" height="6"/><use xlink:href="#ao" id="C" width="3.5" height="5.5"/><use xlink:href="#ap" id="B" width="15.1" height="4.5"/><use xlink:href="#aq" id="J" width="20.6" height="20.9"/><use xlink:href="#ar" id="I" width="3.7" height="6"/><use xlink:href="#as" id="H" width="3.5" height="5.5"/><use xlink:href="#at" id="G" width="15.1" height="4.5"/><use xlink:href="#au" id="O" width="20.6" height="20.9"/><use xlink:href="#av" id="N" width="3.7" height="6"/><use xlink:href="#aw" id="M" width="3.5" height="5.5"/><use xlink:href="#ax" id="L" width="15.1" height="4.5"/><use xlink:href="#ay" id="aV" width="22.9" height="21.6" transform="matrix(-1 0 0 1 29.95 4.5)"/><use xlink:href="#q" id="aG" width="34.7" height="28.6" transform="scale(1.21)"/><use xlink:href="#ay" id="aC" width="22.9" height="21.6" transform="matrix(-1.58 0 0 1.58 36.35 0)"/><clipPath id="az"><path d="M1 1h60v66H1z"/></clipPath><clipPath id="aE"><path d="M62 1h60v66H62z"/></clipPath><clipPath id="aH"><path d="M123 1h60v66h-60z"/></clipPath><clipPath id="aJ"><path d="M184 1h60v66h-60z"/></clipPath><clipPath id="aL"><path d="M245 1h60v66h-60z"/></clipPath><clipPath id="aO"><path d="M306 1h60v66h-60z"/></clipPath><clipPath id="aQ"><path d="M367 1h60v66h-60z"/></clipPath><clipPath id="aS"><path d="M428 1h60v66h-60z"/></clipPath><clipPath id="aU"><path d="M489 1h60v66h-60z"/></clipPath><clipPath id="aW"><path d="M550 1h60v66h-60z"/></clipPath><clipPath id="aX"><path d="M611 1h60v66h-60z"/></clipPath><clipPath id="aY"><path d="M672 1h60v66h-60z"/></clipPath><path id="T" fill="#900" fill-opacity=".6" d="m4-2.4 2.5.4 1 .7q0 .2-1.2.6l-1.9.3q-2.5.2-5 1.8-.1.3-1 .6H-4l-2.5-.4-1-.7q0-.4 1-.6L-4 0Q-.2-.3.6-1.2q-.2-.2.7-.5 1.2-.6 2.7-.6" transform="translate(7.55 2.4)"/><path id="X" fill="#aa2b2b" fill-opacity=".6" d="m4-2.4 2.5.4 1 .7q0 .2-1.2.6l-1.9.3q-2.5.2-5 1.8-.1.3-1 .6H-4l-2.5-.4-1-.7q0-.4 1-.6L-4 0Q-.2-.3.6-1.2q-.2-.2.7-.5 1.2-.6 2.7-.6" transform="translate(7.55 2.4)"/><path id="ab" fill="#b55" fill-opacity=".6" d="m4-2.4 2.5.4 1 .7q0 .2-1.2.6l-1.9.3q-2.5.2-5 1.8-.1.3-1 .6H-4l-2.5-.4-1-.7q0-.4 1-.6L-4 0Q-.2-.3.6-1.2q-.2-.2.7-.5 1.2-.6 2.7-.6" transform="translate(7.55 2.4)"/><path id="ad" fill="#fff" d="M9.8-10.2q3.3 3.3 4 7.7l.1 2.2q0 5.7-4.1 9.8-3.3 3.3-7.6 4l-2.2.1q-5.8 0-10-4.1-2.6-2.6-3.5-6-.5-1.8-.5-3.8 0-5.8 4-10h.2q4-4 9.8-4 3.7 0 6.6 1.7 1.7.9 3.2 2.3" transform="translate(14 14.3)"/><path id="ah" fill="#cc8080" fill-opacity=".6" d="m4-2.4 2.5.4 1 .7q0 .2-1.2.6l-1.9.3q-2.5.2-5 1.8-.1.3-1 .6H-4l-2.5-.4-1-.7q0-.4 1-.6L-4 0Q-.2-.3.6-1.2q-.2-.2.7-.5 1.2-.6 2.7-.6" transform="translate(7.55 2.4)"/><path id="al" fill="#daa" fill-opacity=".6" d="m4-2.4 2.5.4 1 .7q0 .2-1.2.6l-1.9.3q-2.5.2-5 1.8-.1.3-1 .6H-4l-2.5-.4-1-.7q0-.4 1-.6L-4 0Q-.2-.3.6-1.2q-.2-.2.7-.5 1.2-.6 2.7-.6" transform="translate(7.55 2.4)"/><path id="ap" fill="#eed4d4" fill-opacity=".6" d="m4-2.4 2.5.4 1 .7q0 .2-1.2.6l-1.9.3q-2.5.2-5 1.8-.1.3-1 .6H-4l-2.5-.4-1-.7q0-.4 1-.6L-4 0Q-.2-.3.6-1.2q-.2-.2.7-.5 1.2-.6 2.7-.6" transform="translate(7.55 2.4)"/><path id="at" fill="#fff" fill-opacity=".6" d="m4-2.4 2.5.4 1 .7q0 .2-1.2.6l-1.9.3q-2.5.2-5 1.8-.1.3-1 .6H-4l-2.5-.4-1-.7q0-.4 1-.6L-4 0Q-.2-.3.6-1.2q-.2-.2.7-.5 1.2-.6 2.7-.6" transform="translate(7.55 2.4)"/><path id="ax" fill="#382c16" fill-opacity=".6" d="m4-2.4 2.5.4 1 .7q0 .2-1.2.6l-1.9.3q-2.5.2-5 1.8-.1.3-1 .6H-4l-2.5-.4-1-.7q0-.4 1-.6L-4 0Q-.2-.3.6-1.2q-.2-.2.7-.5 1.2-.6 2.7-.6" transform="translate(7.55 2.4)"/></defs><g clip-path="url(#az)"><g transform="translate(46.15 60.55)"><use xlink:href="#aB" width="31.9" height="34.4" transform="translate(-17.7 -32.1)"/><use xlink:href="#aC" width="36.4" height="34.2" transform="matrix(-1 0 0 1 -8.8 -59.55)"/><use xlink:href="#aD" width="42" height="34.5" transform="translate(-25 -25.85)scale(.916)"/></g></g><g clip-path="url(#aE)"><g transform="translate(107.15 60.55)"><use xlink:href="#aF" width="31.9" height="34.4" transform="translate(-17.7 -32.1)"/><use xlink:href="#aG" width="42" height="34.5" transform="translate(-25 -25.85)scale(.916)"/></g></g><g clip-path="url(#aH)"><g transform="translate(168.15 60.55)"><use xlink:href="#aI" width="31.9" height="34.4" transform="translate(-17.7 -32.1)"/><use xlink:href="#aG" width="42" height="34.5" transform="translate(-25 -25.85)scale(.916)"/></g></g><g clip-path="url(#aJ)"><g transform="translate(229.15 60.55)"><use xlink:href="#aK" width="31.9" height="34.4" transform="translate(-17.7 -32.1)"/><use xlink:href="#aG" width="42" height="34.5" transform="translate(-25 -25.85)scale(.916)"/></g></g><g clip-path="url(#aL)"><g transform="translate(290.15 60.55)"><use xlink:href="#aM" width="31.9" height="34.4" transform="translate(-17.7 -32.1)"/><use xlink:href="#aN" width="42" height="34.5" transform="translate(-25 -25.85)scale(.916)"/></g></g><g clip-path="url(#aO)"><g transform="translate(351.15 60.55)"><use xlink:href="#aP" width="31.9" height="34.4" transform="translate(-17.7 -32.1)"/><use xlink:href="#aN" width="42" height="34.5" transform="translate(-25 -25.85)scale(.916)"/></g></g><g clip-path="url(#aQ)"><g transform="translate(412.15 60.55)"><use xlink:href="#aR" width="31.9" height="34.4" transform="translate(-17.7 -32.1)"/><use xlink:href="#aN" width="42" height="34.5" transform="translate(-25 -25.85)scale(.916)"/></g></g><g clip-path="url(#aS)"><g transform="translate(473.15 60.55)"><use xlink:href="#aT" width="31.9" height="34.4" transform="translate(-17.7 -32.1)"/><use xlink:href="#aG" width="42" height="34.5" transform="translate(-25 -25.85)scale(.916)"/></g></g><g clip-path="url(#aU)"><g transform="translate(534.15 60.55)"><use xlink:href="#aF" width="31.9" height="34.4" transform="translate(-17.7 -32.1)"/><use xlink:href="#aV" width="36.4" height="34.2" transform="matrix(-1 0 0 1 -8.8 -59.55)"/></g></g><g clip-path="url(#aW)"><g transform="translate(595.15 60.55)"><use xlink:href="#aT" width="31.9" height="34.4" transform="translate(-17.7 -32.1)"/><use xlink:href="#aV" width="36.4" height="34.2" transform="matrix(-1 0 0 1 -8.8 -59.55)"/></g></g><g clip-path="url(#aX)"><g transform="translate(656.15 60.55)"><use xlink:href="#aT" width="31.9" height="34.4" transform="translate(-17.7 -32.1)"/><use xlink:href="#aV" width="36.4" height="34.2" transform="matrix(-1 0 0 1 -8.8 -59.55)"/></g></g><g clip-path="url(#aY)"><g transform="translate(717.15 60.55)"><use xlink:href="#aB" width="31.9" height="34.4" transform="translate(-17.7 -32.1)"/><use xlink:href="#aV" width="36.4" height="34.2" transform="matrix(-1 0 0 1 -8.8 -59.55)"/></g></g></svg>