<svg xmlns="http://www.w3.org/2000/svg" xmlns:xlink="http://www.w3.org/1999/xlink" width="32" height="28" viewBox="0 0 32 28"><defs><use xlink:href="#a" id="f" width="14.7" height="4.3"/><use xlink:href="#b" id="l" width="7.8" height="4.8"/><use xlink:href="#c" id="k" width="20.9" height="19.7"/><use xlink:href="#d" id="j" width="5.5" height="6"/><use xlink:href="#e" id="i" width="105" height="87"/><use xlink:href="#f" id="h" width="14.7" height="4.3" transform="scale(1.06)skewY(1.8)"/><g id="b"><path fill="#fcd844" d="M6.7 4.7q-1.6.2-3.2-.1-1.7-.2-2.6-.8T0 2.2 1.2.7q1-.7 2.3-.7t2.3.7 1.7 2.2q.8 1.6-.8 1.8"/><path fill="none" stroke="#96610a" stroke-linecap="round" stroke-linejoin="round" stroke-width="__RESOLUTION__" d="M6.7 4.7q-1.6.2-3.2-.1-1.7-.2-2.6-.8T0 2.2 1.2.7q1-.7 2.3-.7t2.3.7 1.7 2.2q.8 1.6-.8 1.8" vector-effect="non-scaling-stroke"/></g><g id="c"><path fill="#ff910b" d="M13.6 19.5Q20 17.7 16.5 6 4.1 5.7 4.6 4.7q-.1-.4.4-.6l.2-.1 3.5-1q2.7-.5 6.2 1.2h2.2L16.3 3q1.3.5 2.4 1.6 2.1 1.8 2.2 6.3.2 4.2-2 6.5-1.4 1.5-3.4 1.9z"/><path fill="#f17901" d="m16.3 3 .9 1.2H15Q11.6 2.5 8.8 3L5.3 4l-.2.1q-.5.2-.4.6-.5 1 11.8 1.4 3.6 11.7-3 13.4l-1.8.1-.9.1-2-.1-.4-.1-.8-.2q-3.3.1-5.2-1.5Q-.2 15.4 0 11t2.3-6.1q2.3-1.8 3-2l2.3-.6 3.2-.2 2.6.2q2.4.2 2.9.7"/><path fill="none" stroke="#824409" stroke-linecap="round" stroke-linejoin="round" stroke-width="__RESOLUTION__" d="m13.6 19.5 1.9-.2q2-.4 3.4-1.9 2.2-2.3 2-6.5-.1-4.5-2.2-6.3-1.2-1.1-2.4-1.6-.5-.5-3-.7l-2.5-.2-3.2.2-2.4.6q-.6.2-2.9 2Q.3 6.6 0 11t2.4 6.8q1.9 1.6 5.2 1.5l.8.2m0 0h.4l2 .2h1l1.7-.3h0" vector-effect="non-scaling-stroke"/><path fill="#775c33" d="M13.8 4.6q0 .5-.9.9l-2 .3-2-.4Q8 5 8 4.6t.9-.9l2-.4 2 .4q.8.4.8.9"/><path fill="#775c33" d="m10.3.5.8-.5.7.5-.1 1q-.2 1 0 2l.1.6q-.6.6-1.5 0V1.5z"/><path fill="none" stroke="#4e3921" stroke-linecap="round" stroke-linejoin="round" stroke-width="__RESOLUTION__" d="M10.3.5V4m1.5 0-.1-.6q-.2-1 0-2l.1-1" vector-effect="non-scaling-stroke"/><path fill="none" stroke="#824409" stroke-linecap="round" stroke-linejoin="round" stroke-width="__RESOLUTION__" d="M13.1 3.7q1.3-1 2.7-.7l.5.1m-7.9.5q-1.2-1-2.7-.6l-.5.1" vector-effect="non-scaling-stroke"/><path fill="none" stroke="#fa0" stroke-linecap="round" stroke-linejoin="round" stroke-width="__RESOLUTION__" d="M15.4 5.3q1.5.3 2.7 2t1.3 4.4-1.2 4.7-3.2 2.9m-7-14q-1.4.3-2.7 2-1.3 2-1.5 4.5t1 4.8q1.2 2.1 3 2.7" vector-effect="non-scaling-stroke"/><path fill="none" stroke="#fec667" stroke-linecap="round" stroke-linejoin="round" stroke-width="__RESOLUTION__" d="M11.6 6.1q.9 2.1.9 6.7t-.8 6.9" vector-effect="non-scaling-stroke"/></g><g id="d" fill="none" stroke-linecap="round" stroke-linejoin="round" stroke-width="1"><path stroke="#000" d="m5 3.6-.2.1-1.8 2"/><path stroke="#a85a0d" d="m1 .5 3 3.7"/><path stroke="#000" d="m.5.5 2.9 3.7"/></g><g id="e"><path fill="#fff" fill-opacity="0" d="M6.2 21.2q6-6.1 14.6-6.2 1.9-3 4.6-5.6Q34.8 0 48 0t22.6 9.4q6.5 6.5 8.5 14.8 2 1.2 3.8 3 4.8 4.9 5.8 11.4 2.1 1 3.9 2.8 3.5 3.5 4.3 8l2.2 1.8q5.9 5.1 5.9 12.3T99.1 76q-5.8 5.2-14.1 5.2-4.1 0-7.6-1.3Q69 87 57.9 87q-12.4 0-21.2-8.8-2.9-3-4.8-6.2h-1.4q-9.8 0-16.7-6.9-5.6-5.6-6.6-13.2l-1-1Q0 44.7 0 36t6.2-14.8m46.7 6.2q-4.3.7-8 2.6 3.7-1.9 8-2.6m33.6 39q3.4-1 6.1-3.8Q97 58.2 97.1 52l-.2-2.6.1 2.6q0 6.2-4.4 10.6-2.7 2.8-6.1 3.8"/><path fill="none" stroke="#395e2d" stroke-linecap="round" stroke-linejoin="round" stroke-opacity="0" stroke-width="__RESOLUTION__" d="M6.2 21.2q6-6.1 14.6-6.2 1.9-3 4.6-5.6Q34.8 0 48 0t22.6 9.4q6.5 6.5 8.5 14.8 2 1.2 3.8 3 4.8 4.9 5.8 11.4 2.1 1 3.9 2.8 3.5 3.5 4.3 8l2.2 1.8q5.9 5.1 5.9 12.3T99.1 76q-5.8 5.2-14.1 5.2-4.1 0-7.6-1.3Q69 87 57.9 87q-12.4 0-21.2-8.8-2.9-3-4.8-6.2h-1.4q-9.8 0-16.7-6.9-5.6-5.6-6.6-13.2l-1-1Q0 44.7 0 36t6.2-14.8M44.9 30q3.7-1.9 8-2.6m44 22L97 52q0 6.2-4.4 10.6-2.7 2.8-6.1 3.8" vector-effect="non-scaling-stroke"/></g><clipPath id="g"><path d="M1 1h30v26H1z"/></clipPath><path id="a" fill="#382c16" d="M5.8-1.9Q7.9-1.4 8-.5 8 .3 5.9 1 3.8 1.8.7 2l-5.2-.4Q-6.7 1.2-6.7.3q-.1-.8 2-1.6 2.2-.8 5.2-.9z" transform="translate(6.75 2.25)"/></defs><g clip-path="url(#g)"><g transform="translate(16.3 23.9)"><use xlink:href="#h" width="15.6" height="5" transform="translate(-7.8 -2.45)"/><use xlink:href="#i" width="105" height="87" transform="translate(7.15 -.2)scale(-.0478)"/><use xlink:href="#j" width="5.5" height="6" transform="matrix(-.8344 .5484 .5484 .8344 -4.05 -6.25)"/><use xlink:href="#j" width="5.5" height="6" transform="matrix(-.7492 .6599 .6599 .7492 2.75 -6.2)"/><use xlink:href="#k" width="20.9" height="19.7" transform="translate(-11.3 -22.9)"/><use xlink:href="#l" width="7.8" height="4.8" transform="matrix(-1 0 0 1 -7.55 -12.75)"/><use xlink:href="#l" width="7.8" height="4.8" transform="translate(6.8 -12.75)"/></g></g></svg>