<svg xmlns="http://www.w3.org/2000/svg" xmlns:xlink="http://www.w3.org/1999/xlink" width="1177" height="64" viewBox="0 0 1177 64"><defs><clipPath id="C"><path d="M1 1h41v62H1z"/></clipPath><clipPath id="Z"><path d="M43 1h41v62H43z"/></clipPath><clipPath id="aa"><path d="M85 1h41v62H85z"/></clipPath><clipPath id="ab"><path d="M127 1h41v62h-41z"/></clipPath><clipPath id="ac"><path d="M169 1h41v62h-41z"/></clipPath><clipPath id="ad"><path d="M211 1h41v62h-41z"/></clipPath><clipPath id="ae"><path d="M253 1h41v62h-41z"/></clipPath><clipPath id="af"><path d="M295 1h41v62h-41z"/></clipPath><clipPath id="ag"><path d="M337 1h41v62h-41z"/></clipPath><clipPath id="ah"><path d="M379 1h41v62h-41z"/></clipPath><clipPath id="ai"><path d="M421 1h41v62h-41z"/></clipPath><clipPath id="aj"><path d="M463 1h41v62h-41z"/></clipPath><clipPath id="ak"><path d="M505 1h41v62h-41z"/></clipPath><clipPath id="al"><path d="M547 1h41v62h-41z"/></clipPath><clipPath id="am"><path d="M589 1h41v62h-41z"/></clipPath><clipPath id="an"><path d="M631 1h41v62h-41z"/></clipPath><clipPath id="ap"><path d="M673 1h41v62h-41z"/></clipPath><clipPath id="ar"><path d="M715 1h41v62h-41z"/></clipPath><clipPath id="at"><path d="M757 1h41v62h-41z"/></clipPath><clipPath id="av"><path d="M799 1h41v62h-41z"/></clipPath><clipPath id="ax"><path d="M841 1h41v62h-41z"/></clipPath><clipPath id="az"><path d="M883 1h41v62h-41z"/></clipPath><clipPath id="aA"><path d="M925 1h41v62h-41z"/></clipPath><clipPath id="aB"><path d="M967 1h41v62h-41z"/></clipPath><clipPath id="aC"><path d="M1009 1h41v62h-41z"/></clipPath><clipPath id="aD"><path d="M1051 1h41v62h-41z"/></clipPath><clipPath id="aE"><path d="M1093 1h41v62h-41z"/></clipPath><clipPath id="aF"><path d="M1135 1h41v62h-41z"/></clipPath><g id="p"><path fill="#a56030" d="m3 0 .5.6.8.8 2-.1.1 1.3-2.1 1-1.5.1h-.1l-.2-2.6z"/><path fill="#804924" d="m3 0-.5 1.2.2 2.5q-2 0-2.7-.6L.4.4 1.5 0zm3.3 1.3-2 .1-.8-.8h1.1z"/><path fill="#595786" d="M4.4 1.5v-.1z"/><path fill="none" stroke="#1b1b1b" stroke-linecap="round" stroke-linejoin="round" stroke-opacity=".3" stroke-width="__RESOLUTION__" d="m4.2 3.6 2.2-1-.1-1.3L4.6.6h-1m-.9 3.1 1.5-.1M.5.4 0 3q.7.6 2.7.6" vector-effect="non-scaling-stroke"/></g><g id="q"><path fill="#91542a" d="m3 0 .5.6.8.8 2-.1.1 1.3-2.1 1-1.5.1h-.1l-.2-2.6z"/><path fill="#714120" d="m3 0-.5 1.2.2 2.5q-2 0-2.7-.6L.4.4 1.5 0zm3.3 1.3-2 .1-.8-.8h1.1z"/><path fill="#4f4c76" d="M4.4 1.5v-.1z"/><path fill="none" stroke="#181818" stroke-linecap="round" stroke-linejoin="round" stroke-opacity=".3" stroke-width="__RESOLUTION__" d="m4.2 3.6 2.2-1-.1-1.3L4.6.6h-1m-.9 3.1 1.5-.1M.5.4 0 3q.7.6 2.7.6" vector-effect="non-scaling-stroke"/></g><g id="r"><path fill="#7f4925" d="m3 0 .5.6.8.8 2-.1.1 1.3-2.1 1-1.5.1h-.1l-.2-2.6z"/><path fill="#62381c" d="m3 0-.5 1.2.2 2.5q-2 0-2.7-.6L.4.4 1.5 0zm3.3 1.3-2 .1-.8-.8h1.1z"/><path fill="#454367" d="M4.4 1.5v-.1z"/><path fill="none" stroke="#151515" stroke-linecap="round" stroke-linejoin="round" stroke-opacity=".3" stroke-width="__RESOLUTION__" d="m4.2 3.6 2.2-1-.1-1.3L4.6.6h-1m-.9 3.1 1.5-.1M.5.4 0 3q.7.6 2.7.6" vector-effect="non-scaling-stroke"/></g><g id="s"><path fill="#7d4924" d="m3 0 .5.6.8.8 2-.1.1 1.3-2.1 1-1.5.1h-.1l-.2-2.6z"/><path fill="#61381c" d="m3 0-.5 1.2.2 2.5q-2 0-2.7-.6L.4.4 1.5 0zm3.3 1.3-2 .1-.8-.8h1.1z"/><path fill="#444266" d="M4.4 1.5v-.1z"/><path fill="none" stroke="#151515" stroke-linecap="round" stroke-linejoin="round" stroke-opacity=".3" stroke-width="__RESOLUTION__" d="m4.2 3.6 2.2-1-.1-1.3L4.6.6h-1m-.9 3.1 1.5-.1M.5.4 0 3q.7.6 2.7.6" vector-effect="non-scaling-stroke"/></g><g id="t"><path fill="#7d4824" d="m3 0 .5.6.8.8 2-.1.1 1.3-2.1 1-1.5.1h-.1l-.2-2.6z"/><path fill="#61371b" d="m3 0-.5 1.2.2 2.5q-2 0-2.7-.6L.4.4 1.5 0zm3.3 1.3-2 .1-.8-.8h1.1z"/><path fill="#434165" d="M4.4 1.5v-.1z"/><path fill="none" stroke="#151515" stroke-linecap="round" stroke-linejoin="round" stroke-opacity=".3" stroke-width="__RESOLUTION__" d="m4.2 3.6 2.2-1-.1-1.3L4.6.6h-1m-.9 3.1 1.5-.1M.5.4 0 3q.7.6 2.7.6" vector-effect="non-scaling-stroke"/></g><g id="u"><path fill="#7b4724" d="m3 0 .5.6.8.8 2-.1.1 1.3-2.1 1-1.5.1h-.1l-.2-2.6z"/><path fill="#60371b" d="m3 0-.5 1.2.2 2.5q-2 0-2.7-.6L.4.4 1.5 0zm3.3 1.3-2 .1-.8-.8h1.1z"/><path fill="#434164" d="M4.4 1.5v-.1z"/><path fill="none" stroke="#141414" stroke-linecap="round" stroke-linejoin="round" stroke-opacity=".3" stroke-width="__RESOLUTION__" d="m4.2 3.6 2.2-1-.1-1.3L4.6.6h-1m-.9 3.1 1.5-.1M.5.4 0 3q.7.6 2.7.6" vector-effect="non-scaling-stroke"/></g><g id="v"><path fill="#8c4f30" d="m1 6.2 3-3-2.2 8.6Q1 9.6 1 6.3"/><path fill="none" stroke="#552d1e" stroke-linecap="round" stroke-linejoin="round" stroke-width="__RESOLUTION__" d="m1 6.2 3-3" vector-effect="non-scaling-stroke"/><path fill="#8c4f30" d="m5.7 3.2 3 3Q9 9.6 8 11.8z"/><path fill="none" stroke="#552d1e" stroke-linecap="round" stroke-linejoin="round" stroke-width="__RESOLUTION__" d="m8.8 6.2-3.1-3" vector-effect="non-scaling-stroke"/><path fill="#ffce8c" d="M1.8 8.6H1L.3 8 0 7.5v-.2l.4-.5.4-.1.9.3h.2q.2 1.5-.1 1.6"/><path fill="none" stroke="#c9853a" stroke-linecap="round" stroke-linejoin="round" stroke-opacity=".7" stroke-width="__RESOLUTION__" d="m1.7 7-.9-.3H.3l-.3.5v.3l.3.6.7.5h.7" vector-effect="non-scaling-stroke"/><path fill="#ffce8c" d="m7.7 6.9.9-.3h.5l.3.6v.2l-.3.6-.7.5h-.8q-.3-.1 0-1.5z"/><path fill="none" stroke="#c9853a" stroke-linecap="round" stroke-linejoin="round" stroke-opacity=".7" stroke-width="__RESOLUTION__" d="m7.7 6.9.9-.3h.5l.3.6v.2l-.3.6-.7.5h-.8" vector-effect="non-scaling-stroke"/><path fill="#6b3c24" d="m1.8 2.1 3 1.7L7.6 2l1.7 3.2-1.1 3-.7.4-.5 1.6-2.2.9L2.6 10 2 8.8l-1-.5-1-3z"/><path fill="#8c4f30" d="M7.6 2.1 4.8 3.8 1.8 2l2.8-1z"/><path fill="none" stroke="#552d1e" stroke-linecap="round" stroke-linejoin="round" stroke-width="__RESOLUTION__" d="M1.8 2.1.1 5.3l1 3 1 .5m5.4 0 .7-.5 1-3-1.6-3.2-3-1-2.8 1" vector-effect="non-scaling-stroke"/><path fill="none" stroke="#1f1f1f" stroke-linecap="round" stroke-linejoin="round" stroke-opacity=".3" stroke-width="__RESOLUTION__" d="m2.1 8.8.5 1.3 2.3 1.1 2.1-1 .5-1.4" vector-effect="non-scaling-stroke"/><path fill="#8c4f30" d="m4.6 0 1.3.3q1 .4 1.3 1.2.4.9-.1 1.7t-1.6 1h-.3Q3.2 2 4.6 0"/><path fill="#6b3c24" d="m5.2 4.2-1.7-.1q-1-.4-1.3-1.3t.2-1.6T3.9.1l.7-.1q-1.4 2 .6 4.2"/><path fill="none" stroke="#1f1f1f" stroke-linecap="round" stroke-linejoin="round" stroke-opacity=".3" stroke-width="__RESOLUTION__" d="m4.6 0 1.3.3q1 .4 1.3 1.2.4.9-.1 1.7t-1.6 1h-.3l-1.7-.1q-1-.4-1.3-1.3t.2-1.6T3.9.1z" vector-effect="non-scaling-stroke"/></g><g id="w"><path fill="#ffce8c" d="m1.4.4 1-.3h1.1l.1 2.4-.1 2v.3L2.4 6.3h-.1L2 6l-.4-.3v-.1l-.3.2-.7-.9L0 4q.5-1.1 1.2-2zm.9 4.3L2 4.2l.4-.2q0-.3-.6-.8l-.4-.3Q.5 3.4 0 4.1.5 3.3 1.4 3l.4.1q.6.5.6.9l-.4.2zm-1 0-.2.1h.1zl.7-.6zm-.1.1.3.7zm0 0L1 5l-.3-.1.3.1z"/><path fill="none" stroke="#a26933" stroke-linecap="round" stroke-linejoin="round" stroke-width="__RESOLUTION__" d="m3.5.1.1 2.4-.1 2v.3L2.4 6.3h-.1L2 6m-.5-.4-.2.2-.7-.9h0" vector-effect="non-scaling-stroke"/><path fill="none" stroke="#a26933" stroke-linecap="round" stroke-linejoin="round" stroke-width="__RESOLUTION__" d="m2 6-.4-.3v-.1l-.4-.7v-.1h0L1 5l-.3-.1L0 4q.5-1.2 1.2-2L1.4.3M0 4.1Q.5 3.3 1.4 3l.4.1q.6.5.6.9l-.4.2.3.5m-1 0 .7-.6" vector-effect="non-scaling-stroke"/></g><g id="x"><path fill="#fafaff" d="M11.2 6.8Q12.1 7 13 9t1 4.8q.2 3-.7 5.4-.7 1.8-1.4 1.6h-.2l-.2-1.4q2.4-4 0-10.8z"/><path fill="#e9eaeb" d="m11.7 20.8-1.2-1.9-1.3-4.7v-.6q1.2-1.6 1.5-5.3l.5-1.5.2 1.8-.7-.3q2.1 4.8.2 10.9l-.4-.3.4.3.5.1z"/><path fill="#727ba1" d="M11.5 8.6q2.3 6.8 0 10.8l-.6-.2q1.9-6.1-.2-10.9z"/><path fill="none" stroke="#fff" stroke-linecap="round" stroke-linejoin="round" stroke-width="__RESOLUTION__" d="M11.2 6.8Q12.1 7 13 9t1 4.8q.2 3-.7 5.4-.7 1.8-1.4 1.6h-.2" vector-effect="non-scaling-stroke"/><path fill="none" stroke="#b5b5b5" stroke-linecap="round" stroke-linejoin="round" stroke-width="__RESOLUTION__" d="m11.7 20.8-1.2-1.9.5.3q1.8-6.1-.3-10.9l.8.2-.3-1.8m.3 12.6.2 1.4m-.7-1.6.4.2" vector-effect="non-scaling-stroke"/><path fill="none" stroke="#878787" stroke-linecap="round" stroke-linejoin="round" stroke-width="__RESOLUTION__" d="m10.5 19-1.3-4.8m0-.6q1.2-1.6 1.5-5.3l.5-1.5" vector-effect="non-scaling-stroke"/><path fill="#e9eaeb" d="m7.5 14.7.6-.1v35.7h-.6zm.6 38.2v1.3l-.6.2V53z"/><path fill="#727ba1" d="m8.1 50.3-.1.4v1.9l.1.3-.6.1v-2.6z"/><path fill="#c5c5c9" d="m7.5 54.4-.5-.7v-1.2l.5.5zM7 49.9V14.1l.5.6v35.7z"/><path fill="#535b75" d="m7 52.5.2-.2v-2L7 50l.5.5V53z"/><path fill="none" stroke="#ddd" stroke-linecap="round" stroke-linejoin="round" stroke-width="__RESOLUTION__" d="m7.5 14.7.6-.1m0 39.6-.6.1" vector-effect="non-scaling-stroke"/><path fill="none" stroke="#89898c" stroke-linecap="round" stroke-linejoin="round" stroke-width="__RESOLUTION__" d="m7.5 54.4-.5-.7v-1.2l.2-.2v-2L7 50V14.1l.5.6" vector-effect="non-scaling-stroke"/><path fill="none" stroke="#878787" stroke-linecap="round" stroke-linejoin="round" stroke-width="__RESOLUTION__" d="m7.5 50.4.6-.1M7.5 53l.6-.1m-.6-2.5-.5-.5m0 2.6.5.5" vector-effect="non-scaling-stroke"/><path fill="#f2f2f7" d="M4.8 13 0 11l4.8.5 2 1.4-.1.8z"/><path fill="#c5c5c9" d="m0 11 4.8 2v-.1l1.9.8h-2z"/><path fill="none" stroke="#878787" stroke-linecap="round" stroke-linejoin="round" stroke-width="__RESOLUTION__" d="m6.8 13-2-1.4L0 11l4.8 2.8h1.9" vector-effect="non-scaling-stroke"/><path fill="#c5c5c9" d="m7.6 0 1.3 8.8L8 12V8.5l-.1-.6z"/><path fill="#f2f2f7" d="m7.6 0 .3 8-.5 3.7-.3-.1L6.5 8z"/><path fill="#fff" d="M7.9 8v.5l.2 3.5-.7-.3z"/><path fill="none" stroke="#878787" stroke-linecap="round" stroke-linejoin="round" stroke-width="__RESOLUTION__" d="m8.2 12 .7-3.2L7.5 0l-1 8 .6 3.6M8 8.5" vector-effect="non-scaling-stroke"/><path fill="#535b75" d="M9.2 14q0 .8-.4 1.3t-1 .2-1-1-.4-1.7.4-1.3 1-.3l1 1zm-.7-1.4-.7-.6-.6.2-.3.9.3 1q.2.6.6.8t.7-.3l.3-.8z"/><path fill="#e9eaeb" d="m8.5 12.7.3 1-.3 1q-.2.3-.6.2t-.7-.8l-.3-1 .3-1 .6-.1z"/><path fill="none" stroke="#b5b5b5" stroke-linecap="round" stroke-linejoin="round" stroke-width="__RESOLUTION__" d="M9.2 14q0 .8-.4 1.3t-1 .2-1-1-.4-1.7.4-1.3 1-.3l1 1z" vector-effect="non-scaling-stroke"/><path fill="#8c4f30" d="m8.4 17-1.5-.6-.2-1.2 1.5.5z"/><path fill="none" stroke="#6b3c24" stroke-linecap="round" stroke-linejoin="round" stroke-width="__RESOLUTION__" d="m8.4 17-1.5-.6-.2-1.2 1.5.5z" vector-effect="non-scaling-stroke"/><path fill="#8c4f30" d="m7.9 18.6-1.3-1.2.4-1 1.2 1.2z"/><path fill="none" stroke="#6b3c24" stroke-linecap="round" stroke-linejoin="round" stroke-width="__RESOLUTION__" d="m7.9 18.6-1.3-1.2.4-1 1.2 1.2z" vector-effect="non-scaling-stroke"/><path fill="#8c4f30" d="m8 18.2.4 1.3-1.2.3-.4-1.3z"/><path fill="none" stroke="#6b3c24" stroke-linecap="round" stroke-linejoin="round" stroke-width="__RESOLUTION__" d="m8 18.2-1.2.3.4 1.3 1.2-.3z" vector-effect="non-scaling-stroke"/></g><g id="y"><path fill="#88532d" d="m5.6.4-.4 7.2L3.9 9l-2.3.1 1.3-9z"/><path fill="#663d21" d="m1.6 9.2-1-.5-.6-2L1.7 0l1.2.1z"/><path fill="none" stroke="#a17636" stroke-linecap="round" stroke-linejoin="round" stroke-opacity=".7" stroke-width="__RESOLUTION__" d="m5.6.4-.4 7.2L3.9 9l-2.3.1-1-.5-.6-2L1.7 0" vector-effect="non-scaling-stroke"/></g><g id="z"><path fill="#b86b36" d="m3 0 .5.6.8.8 2-.1.1 1.3-2.1 1-1.5.1h-.1l-.2-2.6z"/><path fill="#8f5229" d="m3 0-.5 1.2.2 2.5q-2 0-2.7-.6L.4.4 1.5 0zm3.3 1.3-2 .1-.8-.8h1.1z"/><path fill="#646196" d="M4.4 1.5v-.1z"/><path fill="none" stroke="#1f1f1f" stroke-linecap="round" stroke-linejoin="round" stroke-opacity=".3" stroke-width="__RESOLUTION__" d="m4.2 3.6 2.2-1-.1-1.3L4.6.6h-1m-.9 3.1 1.5-.1M.5.4 0 3q.7.6 2.7.6" vector-effect="non-scaling-stroke"/></g><g id="A"><path fill="#ffce8c" d="M2.8 3.8q-.3 2-.2 3.1-.3.4-1.2.6l-.8-.1Q.3 3.3.5 2.3 1 .8 2.3.1q.5-.4.8 1.3z"/><path fill="#f2e6cd" d="M2 1.3 3.4 1v1.9l-.5 2.6.3 2-1.4.5.2-1.9V4zm1.2 1.6L2 3.9zm-.4 2.6-1 .6z"/><path fill="#ccc2ad" d="M1.7 8 0 7.5l.4-1.7H.2l.1-2.3L2 4 .3 2.8.8.6l1.3.7-.2 2.6v2.2zM.4 5.8l1.4.3z"/><path fill="none" stroke="#87652e" stroke-linecap="round" stroke-linejoin="round" stroke-opacity=".7" stroke-width="__RESOLUTION__" d="M2 1.3 3.4 1v1.9h0l-.5 2.6.3 2-1.4.5L0 7.5l.4-1.7H.2l.1-2.3L2 4 .3 2.8.8.6zM2 4l1.2-1.1M2 6.1.4 5.8m1.5.3.9-.6" vector-effect="non-scaling-stroke"/></g><g id="b"><path fill="#c1a12e" d="m4.7 7.8-.1 1.5-2 .2h-.2V8z"/><path fill="#9e8125" d="M2.4 9.5Q1 9.5 0 8.5l.2-1.3q.5.8 2.2.7z"/><path fill="none" stroke="#a17636" stroke-linecap="round" stroke-linejoin="round" stroke-opacity=".7" stroke-width="__RESOLUTION__" d="M4.8 2.3v-.1m0 0q.3 3.2-.1 5.6M.2 7.3Q1 2.5 2 1.1" vector-effect="non-scaling-stroke"/><path fill="none" stroke="#7a621d" stroke-linecap="round" stroke-linejoin="round" stroke-opacity=".6" stroke-width="__RESOLUTION__" d="m4.7 7.8-.1 1.5-2 .2h-.2Q1 9.5 0 8.7l.2-1.4" vector-effect="non-scaling-stroke"/><path fill="#9e8125" d="M1.5 2.2q.2.3.5.4l.6-.2.3-.6V1L2.4.8H2l.4-.8h.2l.8.7.2 1.2-.7 1-1 .4-.7-.3z"/><path fill="#7d5729" fill-opacity=".5" d="m2.3.3 1.2.2-.2 1.2Q1 6.6 2.3 8.3.6 8.3.1 7.6 1 2.8 1.8 1.4z"/></g><g id="e"><path fill="#7d5729" fill-opacity=".5" d="m9 9.8-.4 2.9-6.4.3-.6-.4.4-1.1-.5-1.6z"/><path fill="none" stroke="#a17636" stroke-linecap="round" stroke-linejoin="round" stroke-opacity=".7" stroke-width="__RESOLUTION__" d="m9 9.8-.4 2.9-6.4.3-.6-.4-.4-.4-.5-2.3" vector-effect="non-scaling-stroke"/><path fill="#88532d" d="m9.2 3.7.6 2-.8 4.5-.8.3zm-7.5 6.9-.9-.5-.8-5 .8-1.7z"/><path fill="#663d21" d="m8.2 10.5-6.5.1-1-7q4.7-1 8.5.1z"/><path fill="none" stroke="#734d01" stroke-linecap="round" stroke-linejoin="round" stroke-opacity=".7" stroke-width="__RESOLUTION__" d="M.8 10 0 5.4l.8-1.7q4.6-1 8.4.1" vector-effect="non-scaling-stroke"/><path fill="#febf74" d="m6.2 0 .5 1.9-3.9.3q.8-.9.5-2.2z"/><path fill="none" stroke="#a17636" stroke-linecap="round" stroke-linejoin="round" stroke-opacity=".7" stroke-width="__RESOLUTION__" d="m6.2 0 .5 1.9m-3.9.3q.8-.9.5-2.2" vector-effect="non-scaling-stroke"/><path fill="#b86236" d="m2.5 2.9.4 1.7-1.5.4-.5-1.7z"/><path fill="none" stroke="#6e717a" stroke-linecap="round" stroke-linejoin="round" stroke-width="__RESOLUTION__" d="m2.5 2.9.4 1.7-1.5.4-.5-1.7z" vector-effect="non-scaling-stroke"/><path fill="#8c4f30" d="m6.9 3.4 1-1.9 1.5.6-1.2 1.8z"/><path fill="#b86236" d="m7.3 2.8 1.5.4-.4 1.7L7 4.5z"/><path fill="none" stroke="#6e717a" stroke-linecap="round" stroke-linejoin="round" stroke-width="__RESOLUTION__" d="M7.3 2.8 7 4.5l1.4.4.4-1.7z" vector-effect="non-scaling-stroke"/><path fill="#ffd066" d="M5.9 8.2v2.5h-.1L4.3 9.3zL4.3 9.4l1.5 1.3-1.5-.1V4.7h1.6v1zL4.3 6.7zM4.3 6.6l1.6-.9-1.6-1 1.6 1z"/><path fill="none" stroke="#822c01" stroke-linecap="round" stroke-linejoin="round" stroke-opacity=".7" stroke-width="__RESOLUTION__" d="M5.9 8.2 4.3 9.4l1.5 1.3m0-2.5L4.4 6.7m0-2 1.6 1-1.6.9" vector-effect="non-scaling-stroke"/></g><g id="c"><path fill="#febf74" d="M9.3 3.5H0L.9.8 8 .5z"/><path fill="#8c4f30" d="m2.8 1.9-1.4.5L0 .6 1.5 0z"/><path fill="#663d21" d="M8 11.6q-2 1.3-5.4.8l-.9-.5-.4-1.5 1 .4q3.7 0 6.1-.7z"/></g><g id="h"><path fill="none" stroke="#7a5b29" stroke-linecap="round" stroke-linejoin="round" stroke-opacity=".7" stroke-width="__RESOLUTION__" d="M.4 6.8h1.3L3 .1Q1.1 0 0 .5" vector-effect="non-scaling-stroke"/><path fill="#63543f" fill-opacity=".3" d="M3 0 1.7 6.8H.4L0 .5Q1.1.1 3 0"/></g><g id="f"><path fill="#ffce8c" d="M.9 3v.2zl-.1-.1v.5q.1 1.4-.4 3-.5 1.4-.3 2h1.3L2 4.9l.3.5q.2.1.4-.3l.5-1q.5-.8.3-2-.1-1.6-1-2-.5-.3-1 .9-.5.9-.6 2"/><path fill="#febf74" d="M1.4 8.4 2 4.9l.3.5q.2.1.4-.2l-.2 1.3Q2 7.8 2.2 8.4z"/><path fill="none" stroke="#1f1f1f" stroke-linecap="round" stroke-linejoin="round" stroke-opacity=".3" stroke-width="__RESOLUTION__" d="M.9 3.2V3q0-1.1.5-2Q2-.2 2.5.1q1 .4 1.1 2 .2 1.2-.3 2l-.5 1-.3 1.4Q2 7.8 2.2 8.4M.9 3.2v.2q0 1.4-.5 3-.5 1.4-.3 2" vector-effect="non-scaling-stroke"/></g><g id="k"><path fill="#7d5729" fill-opacity=".5" d="M1.4.5h6.4L8.2 3 6.6 4.6h-.8L4.5 5l1.4 1.6-3 .2-2.6-.5L0 7.5l2 .7 1.4.2h.3-.3L2.1 8l-2-.6 2 .7 1.4.2h2L7 8l1.3-.4.7-.3-.8.3L7 8l1.3-.3.7-.4-1-1-.4.2-1.7.1-2.9.2-2.6-.5.4-2.2z"/><path fill="none" stroke="#b07539" stroke-linecap="round" stroke-linejoin="round" stroke-opacity=".7" stroke-width="__RESOLUTION__" d="m5.9 6.6 1.5-.1 2.4-.9L8.6 0M.1 7.5H0l.2-1.2h0l.5-2.2.7-3.6m4.5 6.1-3 .2-2.6-.5M.1 7.5l2 .7 1.4.2h2.1L6.9 8l1.3-.4.7-.3 1.1-.7-.2-1v0" vector-effect="non-scaling-stroke"/></g><g id="M" transform="translate(1.65 2.95)"><use xlink:href="#a" width="4.8" height="8" transform="translate(-1.5 -2.95)"/><use xlink:href="#b" width="5" height="9.4" transform="translate(-1.65 -2.9)"/></g><g id="K" transform="translate(4.4 13.9)"><use xlink:href="#c" width="9.3" height="12.5" transform="translate(-4.25 -12.3)"/><use xlink:href="#d" width="8.3" height="3.1" transform="translate(-3.7 -4.1)"/><use xlink:href="#e" width="9.8" height="12.9" transform="translate(-4.4 -13.9)"/></g><g id="J" transform="translate(2.3 1.2)"><use xlink:href="#f" width="3.5" height="8.4" transform="translate(-1.95 -1.2)"/><use xlink:href="#g" width="4.1" height="6.8" transform="translate(-2.3 .6)"/><use xlink:href="#h" width="3" height="6.8" transform="translate(-1.2 .55)"/></g><g id="H" transform="translate(4.85 1.7)"><use xlink:href="#i" width="10.1" height="2.9" transform="translate(-4.85 3.9)"/><use xlink:href="#j" width="9.6" height="6.8" transform="translate(-4.6 -1.7)"/><use xlink:href="#k" width="10.1" height="8.4" transform="translate(-4.85 -1.7)"/></g><use xlink:href="#l" id="a" width="4.8" height="8"/><use xlink:href="#m" id="d" width="8.3" height="3.1"/><use xlink:href="#n" id="g" width="4.1" height="6.8"/><use xlink:href="#o" id="j" width="9.6" height="6.8"/><use xlink:href="#p" id="ay" width="6.4" height="3.7"/><use xlink:href="#q" id="aw" width="6.4" height="3.7"/><use xlink:href="#r" id="au" width="6.4" height="3.7"/><use xlink:href="#s" id="as" width="6.4" height="3.7"/><use xlink:href="#t" id="aq" width="6.4" height="3.7"/><use xlink:href="#u" id="ao" width="6.4" height="3.7"/><use xlink:href="#v" id="Y" width="9.4" height="11.8"/><use xlink:href="#w" id="L" width="3.6" height="6.3"/><use xlink:href="#x" id="I" width="14" height="54.4"/><use xlink:href="#y" id="G" width="5.6" height="9.2" transform="scale(1.01 1)"/><use xlink:href="#z" id="F" width="6.4" height="3.7"/><use xlink:href="#A" id="E" width="3.4" height="8"/><use xlink:href="#B" id="D" width="14.7" height="4.3"/><path id="l" fill="#ffd066" d="M2.3-3v1.3q.3 3.1-.1 5.6L-.1 4q-1.7.1-2.2-.6.8-4.9 1.6-6.3l.5-1 1.2.1z" transform="translate(2.35 4)"/><path id="m" fill="#ffd066" d="m1.5 3.2-1-.8L0 .1 8.3 0l-.4 2.9z"/><path id="n" fill="#ffd066" d="M2-3.4.8 3.4-2 3.3l1-6.1q1.2-.5 3-.6" transform="translate(2.05 3.4)"/><path id="o" fill="#ffd066" d="m8.4 0 1.1 5.6-2.3.9-4.6.3L0 6.3 1 .4h2z"/><path id="B" fill="#382c16" d="M5.8-1.9Q7.9-1.4 8-.5 8 .3 5.9 1 3.8 1.8.7 2l-5.2-.4Q-6.7 1.2-6.7.3q-.1-.8 2-1.6 2.2-.8 5.2-.9z" transform="translate(6.75 2.25)"/><path id="i" fill="#c1a12e" d="m5 4 .2.9-1.9 1-2.5.8h-2.2l-1.3-.2-2.1-.7.2-1.2 2.7.5 4.5-.3L5 3.9z" transform="translate(4.85 -3.9)"/></defs><g clip-path="url(#C)"><g transform="translate(26.95 57)"><use xlink:href="#D" width="14.7" height="4.3" transform="matrix(.8 0 0 .8 -5.4 -1.8)"/><use xlink:href="#E" width="3.4" height="8" transform="matrix(.8626 -.326 .4435 1.088 -3.45 -9.75)"/><use xlink:href="#F" width="6.4" height="3.7" transform="matrix(-.4744 .8652 .7725 1.001 1.75 -3.55)"/><use xlink:href="#F" width="6.4" height="3.7" transform="matrix(.3399 .7994 -.6524 .7536 4.45 -22.05)"/><use xlink:href="#E" width="3.4" height="8" transform="matrix(-.9863 .1473 .088 .9625 5.25 -25.55)"/><use xlink:href="#G" width="5.7" height="9.2" transform="matrix(-.9926 -.2186 -.2072 .7784 9 -25.6)"/><use xlink:href="#G" width="5.7" height="9.2" transform="matrix(.9771 -.0748 .3371 1.0651 -6.05 -18)"/><use xlink:href="#H" width="10.1" height="8.4" transform="matrix(.8784 -.6486 .2536 .879 -5.7 -23)"/><use xlink:href="#I" width="14" height="54.4" transform="matrix(1.0471 .3221 -.325 .6652 -6.8 -56)"/><use xlink:href="#J" width="4.1" height="8.6" transform="matrix(.0488 .9875 -.8576 .0409 -.45 -35.45)"/><use xlink:href="#K" width="9.8" height="14.1" transform="matrix(.8629 .4314 -.1277 .9759 -2.8 -37.2)"/><use xlink:href="#L" width="3.6" height="6.3" transform="matrix(-.6779 -.4878 -.3595 .4595 -5.35 -36.75)"/><use xlink:href="#M" width="5" height="9.5" transform="matrix(-.93 .3756 -.1664 -.4478 -4.65 -34.15)"/><use xlink:href="#J" width="4.1" height="8.6" transform="matrix(-.9957 .0735 -.0108 1.0019 5.9 -33.3)"/><use xlink:href="#L" width="3.6" height="6.3" transform="matrix(.8838 -.4656 .4858 .871 5.65 -22.25)"/><use xlink:href="#M" width="5" height="9.5" transform="matrix(-.6974 .7134 .7301 .6803 5.75 -28.3)"/><use xlink:href="#Y" width="9.4" height="11.8" transform="translate(-3.95 -43.7)"/></g></g><g clip-path="url(#Z)"><g transform="translate(68.95 57)"><use xlink:href="#D" width="14.7" height="4.3" transform="matrix(.8 0 0 .8 -5.4 -1.8)"/><use xlink:href="#E" width="3.4" height="8" transform="matrix(.8419 -.3755 .4567 .9871 -4 -10.2)"/><use xlink:href="#F" width="6.4" height="3.7" transform="matrix(-.5016 .9214 .8155 .9171 1 -5.05)"/><use xlink:href="#F" width="6.4" height="3.7" transform="matrix(.5682 .6679 -.478 .8603 3.4 -19.8)"/><use xlink:href="#E" width="3.4" height="8" transform="matrix(-.9843 .095 .0336 .9411 5.15 -23.35)"/><use xlink:href="#G" width="5.7" height="9.2" transform="matrix(-.9898 -.2115 -.2002 .7846 8.45 -24.3)"/><use xlink:href="#G" width="5.7" height="9.2" transform="matrix(.9864 .009 .1919 1.0551 -6.15 -18.65)"/><use xlink:href="#H" width="10.1" height="8.4" transform="matrix(.8986 -.5583 .1978 .8905 -5.65 -22.7)"/><use xlink:href="#I" width="14" height="54.4" transform="matrix(1.0667 .2377 -.2752 .6795 -8.8 -54.7)"/><use xlink:href="#J" width="4.1" height="8.6" transform="matrix(.1293 .98 -.8554 .1283 -.65 -35.25)"/><use xlink:href="#K" width="9.8" height="14.1" transform="matrix(.9017 .3566 -.1041 .9811 -3.1 -36.55)"/><use xlink:href="#L" width="3.6" height="6.3" transform="matrix(-.6505 -.5147 -.3716 .4487 -5.6 -35.9)"/><use xlink:href="#M" width="5" height="9.5" transform="matrix(-.8664 .502 -.2221 -.439 -4.75 -33.7)"/><use xlink:href="#J" width="4.1" height="8.6" transform="matrix(-.9948 .0837 .0003 1.0018 5.95 -33.3)"/><use xlink:href="#L" width="3.6" height="6.3" transform="matrix(.8701 -.4894 .5066 .8483 5.7 -22.2)"/><use xlink:href="#M" width="5" height="9.5" transform="matrix(-.6881 .7214 .726 .6618 5.85 -28.2)"/><use xlink:href="#Y" width="9.4" height="11.8" transform="translate(-4.05 -43.05)"/></g></g><g clip-path="url(#aa)"><g transform="translate(110.95 57)"><use xlink:href="#D" width="14.7" height="4.3" transform="matrix(.8 0 0 .8 -5.4 -1.8)"/><use xlink:href="#E" width="3.4" height="8" transform="matrix(.8197 -.4235 .4639 .8878 -4.7 -10.7)"/><use xlink:href="#F" width="6.4" height="3.7" transform="matrix(-.5282 .9794 .8556 .8301 .15 -6.5)"/><use xlink:href="#F" width="6.4" height="3.7" transform="matrix(.7514 .4707 -.2857 .9305 2.45 -17.55)"/><use xlink:href="#E" width="3.4" height="8" transform="matrix(-.98 .0433 -.0124 .9171 5.1 -21.15)"/><use xlink:href="#G" width="5.7" height="9.2" transform="matrix(-.9873 -.2066 -.1973 .7904 7.95 -23)"/><use xlink:href="#G" width="5.7" height="9.2" transform="matrix(.9881 .0954 .0587 1.027 -6.3 -19.3)"/><use xlink:href="#H" width="10.1" height="8.4" transform="matrix(.9112 -.4711 .1427 .8991 -5.45 -22.45)"/><use xlink:href="#I" width="14" height="54.4" transform="matrix(1.0798 .1571 -.2253 .6911 -10.8 -53.25)"/><use xlink:href="#J" width="4.1" height="8.6" transform="matrix(.2099 .9658 -.8444 .2155 -.95 -35.15)"/><use xlink:href="#K" width="9.8" height="14.1" transform="matrix(.9343 .2819 -.0829 .9858 -3.45 -35.8)"/><use xlink:href="#L" width="3.6" height="6.3" transform="matrix(-.6219 -.5423 -.3852 .4374 -5.85 -35)"/><use xlink:href="#M" width="5" height="9.5" transform="matrix(-.7851 .6209 -.2787 -.4233 -4.95 -33.35)"/><use xlink:href="#J" width="4.1" height="8.6" transform="matrix(-.9937 .0968 .0132 1.0015 5.9 -33.2)"/><use xlink:href="#L" width="3.6" height="6.3" transform="matrix(.8554 -.5161 .5283 .8258 5.6 -22.2)"/><use xlink:href="#M" width="5" height="9.5" transform="matrix(-.682 .7285 .7239 .6433 5.85 -28.2)"/><use xlink:href="#Y" width="9.4" height="11.8" transform="translate(-4.15 -42.4)"/></g></g><g clip-path="url(#ab)"><g transform="translate(152.95 57)"><use xlink:href="#D" width="14.7" height="4.3" transform="matrix(.8 0 0 .8 -5.4 -1.8)"/><use xlink:href="#E" width="3.4" height="8" transform="matrix(.7948 -.4701 .4628 .7903 -5.35 -11.2)"/><use xlink:href="#F" width="6.4" height="3.7" transform="matrix(-.5577 1.0358 .885 .7452 -.5 -8.05)"/><use xlink:href="#F" width="6.4" height="3.7" transform="matrix(.8683 .2251 -.0886 .9587 1.6 -15.05)"/><use xlink:href="#E" width="3.4" height="8" transform="matrix(-.9731 -.0045 -.0589 .8905 4.95 -19)"/><use xlink:href="#G" width="5.7" height="9.2" transform="matrix(-.984 -.2049 -.1917 .7968 7.5 -21.7)"/><use xlink:href="#G" width="5.7" height="9.2" transform="matrix(.9828 .1824 -.0648 .9826 -6.25 -20)"/><use xlink:href="#H" width="10.1" height="8.4" transform="matrix(.9157 -.3855 .0872 .9044 -5.25 -22.05)"/><use xlink:href="#I" width="14" height="54.4" transform="matrix(1.0872 .0724 -.1751 .6991 -12.7 -51.7)"/><use xlink:href="#J" width="4.1" height="8.6" transform="matrix(.2861 .946 -.8235 .3046 -1.2 -34.95)"/><use xlink:href="#K" width="9.8" height="14.1" transform="matrix(.9614 .2011 -.0616 .99 -3.65 -35.05)"/><use xlink:href="#L" width="3.6" height="6.3" transform="matrix(-.594 -.5663 -.3984 .4256 -6.1 -34.05)"/><use xlink:href="#M" width="5" height="9.5" transform="matrix(-.69 .7248 -.3359 -.3991 -5 -32.8)"/><use xlink:href="#J" width="4.1" height="8.6" transform="matrix(-.9924 .1098 .0228 1.0011 5.95 -33.05)"/><use xlink:href="#L" width="3.6" height="6.3" transform="matrix(.8399 -.5424 .5517 .8009 5.7 -22.1)"/><use xlink:href="#M" width="5" height="9.5" transform="matrix(-.6734 .7377 .7194 .6273 6 -28.05)"/><use xlink:href="#Y" width="9.4" height="11.8" transform="translate(-4.25 -41.7)"/></g></g><g clip-path="url(#ac)"><g transform="translate(194.95 57)"><use xlink:href="#D" width="14.7" height="4.3" transform="matrix(.8 0 0 .8 -5.4 -1.8)"/><use xlink:href="#E" width="3.4" height="8" transform="matrix(.7656 -.5177 .4534 .6952 -6 -11.7)"/><use xlink:href="#F" width="6.4" height="3.7" transform="matrix(-.5836 1.0942 .9091 .6575 -1.3 -9.6)"/><use xlink:href="#F" width="6.4" height="3.7" transform="matrix(.9062 -.044 .1045 .9458 .85 -12.55)"/><use xlink:href="#E" width="3.4" height="8" transform="matrix(-.9633 -.0547 -.1026 .8616 4.75 -16.8)"/><use xlink:href="#G" width="5.7" height="9.2" transform="matrix(-.9814 -.2 -.1861 .8031 7 -20.5)"/><use xlink:href="#G" width="5.7" height="9.2" transform="matrix(.9828 .1824 -.0648 .9826 -6.25 -20)"/><use xlink:href="#H" width="10.1" height="8.4" transform="matrix(.9127 -.3022 .0317 .9062 -5.2 -21.65)"/><use xlink:href="#I" width="14" height="54.4" transform="matrix(1.0879 -.0054 -.1249 .7034 -14.65 -50.1)"/><use xlink:href="#J" width="4.1" height="8.6" transform="matrix(.3634 .919 -.7945 .3891 -1.45 -34.7)"/><use xlink:href="#K" width="9.8" height="14.1" transform="matrix(.9811 .121 -.0401 .9938 -3.9 -34.2)"/><use xlink:href="#L" width="3.6" height="6.3" transform="matrix(-.5634 -.5909 -.4112 .4134 -6.3 -33.1)"/><use xlink:href="#M" width="5" height="9.5" transform="matrix(-.5787 .8163 -.3899 -.3685 -5.25 -32.3)"/><use xlink:href="#J" width="4.1" height="8.6" transform="matrix(-.9906 .1261 .0356 1.0005 6 -33)"/><use xlink:href="#L" width="3.6" height="6.3" transform="matrix(.8236 -.5682 .5714 .7772 5.65 -22.05)"/><use xlink:href="#M" width="5" height="9.5" transform="matrix(-.6671 .7446 .7166 .6091 6.05 -28)"/><use xlink:href="#Y" width="9.4" height="11.8" transform="translate(-4.4 -41.05)"/></g></g><g clip-path="url(#ad)"><g transform="translate(236.95 57)"><use xlink:href="#D" width="14.7" height="4.3" transform="matrix(.8 0 0 .8 -5.4 -1.8)"/><use xlink:href="#E" width="3.4" height="8" transform="matrix(.7354 -.5612 .4361 .603 -6.6 -12.15)"/><use xlink:href="#F" width="6.4" height="3.7" transform="matrix(-.609 1.1528 .9233 .5734 -2.05 -11.05)"/><use xlink:href="#F" width="6.4" height="3.7" transform="matrix(.8593 -.3177 .2948 .8923 .35 -10)"/><use xlink:href="#E" width="3.4" height="8" transform="matrix(-.9513 -.1008 -.1435 .8306 4.65 -14.65)"/><use xlink:href="#G" width="5.7" height="9.2" transform="matrix(-.9789 -.1952 -.1804 .8094 6.5 -19.2)"/><use xlink:href="#G" width="5.7" height="9.2" transform="matrix(.9828 .1824 -.0648 .9826 -6.25 -20)"/><use xlink:href="#H" width="10.1" height="8.4" transform="matrix(.9023 -.2218 -.0237 .9045 -4.95 -21.35)"/><use xlink:href="#I" width="14" height="54.4" transform="matrix(1.082 -.09 -.0773 .704 -16.3 -48.3)"/><use xlink:href="#J" width="4.1" height="8.6" transform="matrix(.4383 .8857 -.7552 .4734 -1.8 -34.5)"/><use xlink:href="#K" width="9.8" height="14.1" transform="matrix(.994 .0391 -.0185 .9971 -4.1 -33.5)"/><use xlink:href="#L" width="3.6" height="6.3" transform="matrix(-.5337 -.612 -.4224 .4023 -6.55 -32.3)"/><use xlink:href="#M" width="5" height="9.5" transform="matrix(-.4555 .8909 -.4413 -.3307 -5.45 -31.95)"/><use xlink:href="#J" width="4.1" height="8.6" transform="matrix(-.989 .1391 .0484 .9998 6 -32.9)"/><use xlink:href="#L" width="3.6" height="6.3" transform="matrix(.8065 -.5935 .5903 .7531 5.7 -21.95)"/><use xlink:href="#M" width="5" height="9.5" transform="matrix(-.6583 .7536 .7136 .5911 6.05 -27.9)"/><use xlink:href="#Y" width="9.4" height="11.8" transform="translate(-4.5 -40.4)"/></g></g><g clip-path="url(#ae)"><g transform="translate(278.95 57)"><use xlink:href="#D" width="14.7" height="4.3" transform="matrix(.8 0 0 .8 -5.4 -1.8)"/><use xlink:href="#E" width="3.4" height="8" transform="matrix(.703 -.6049 .4127 .5143 -7.3 -12.65)"/><use xlink:href="#F" width="6.4" height="3.7" transform="matrix(-.639 1.211 .9316 .4915 -2.85 -12.65)"/><use xlink:href="#G" width="5.7" height="9.2" transform="matrix(.956 .3098 -.1742 .9205 -6 -20.95)"/><use xlink:href="#F" width="6.4" height="3.7" transform="matrix(.7326 -.5677 .4668 .8037 -.1 -7.45)"/><use xlink:href="#E" width="3.4" height="8" transform="matrix(-.9369 -.1506 -.1838 .7978 4.55 -12.5)"/><use xlink:href="#G" width="5.7" height="9.2" transform="matrix(-.9765 -.1917 -.1774 .8157 6 -17.95)"/><use xlink:href="#H" width="10.1" height="8.4" transform="matrix(.8853 -.1476 -.0792 .8994 -4.7 -20.95)"/><use xlink:href="#I" width="14" height="54.4" transform="matrix(1.0702 -.1702 -.0279 .7014 -18.05 -46.5)"/><use xlink:href="#J" width="4.1" height="8.6" transform="matrix(.5117 .847 -.709 .5535 -2.1 -34.25)"/><use xlink:href="#K" width="9.8" height="14.1" transform="matrix(1 -.0455 0 1 -4.25 -32.65)"/><use xlink:href="#L" width="3.6" height="6.3" transform="matrix(-.5024 -.6341 -.4352 .39 -6.75 -31.35)"/><use xlink:href="#M" width="5" height="9.5" transform="matrix(-.3261 .9472 -.4896 -.2865 -5.65 -31.45)"/><use xlink:href="#J" width="4.1" height="8.6" transform="matrix(-.9877 .1523 .0616 .9991 5.95 -32.85)"/><use xlink:href="#L" width="3.6" height="6.3" transform="matrix(.7898 -.6194 .6091 .7298 5.7 -21.9)"/><use xlink:href="#M" width="5" height="9.5" transform="matrix(-.6529 .7617 .7094 .5766 6.1 -27.85)"/><use xlink:href="#Y" width="9.4" height="11.8" transform="translate(-4.6 -39.75)"/></g></g><g clip-path="url(#af)"><g transform="translate(320.95 57)"><use xlink:href="#D" width="14.7" height="4.3" transform="matrix(.8 0 0 .8 -5.4 -1.8)"/><use xlink:href="#E" width="3.4" height="8" transform="matrix(.7987 -.4867 .3493 .5629 -7.15 -13.85)"/><use xlink:href="#F" width="6.4" height="3.7" transform="matrix(-.6282 1.1546 .9068 .5742 -3 -13.65)"/><use xlink:href="#G" width="5.7" height="9.2" transform="matrix(.9566 .3117 -.144 .8561 -6.05 -21.2)"/><use xlink:href="#F" width="6.4" height="3.7" transform="matrix(.7996 -.4721 .382 .8646 -.4 -6.55)"/><use xlink:href="#E" width="3.4" height="8" transform="matrix(-.9466 -.1382 -.1978 .8228 4.45 -12)"/><use xlink:href="#G" width="5.7" height="9.2" transform="matrix(-.9847 -.1747 -.1845 .8471 5.95 -17.65)"/><use xlink:href="#H" width="10.1" height="8.4" transform="matrix(.8988 -.0553 -.0967 .9189 -4.5 -21.85)"/><use xlink:href="#I" width="14" height="54.4" transform="matrix(1.0515 -.2527 .0185 .6954 -19.7 -44.5)"/><use xlink:href="#J" width="4.1" height="8.6" transform="matrix(.5117 .847 -.709 .5535 -2.1 -34.25)"/><use xlink:href="#K" width="9.8" height="14.1" transform="matrix(.9924 -.0747 -.0002 1.0079 -4.15 -32.9)"/><use xlink:href="#L" width="3.6" height="6.3" transform="matrix(-.2094 -.8536 -.597 .1518 -7.75 -28.2)"/><use xlink:href="#M" width="5" height="9.5" transform="matrix(-.1765 .9962 -.597 -.2178 -6.05 -30.25)"/><use xlink:href="#J" width="4.1" height="8.6" transform="matrix(-.9588 .2799 .187 .9816 5.7 -33)"/><use xlink:href="#L" width="3.6" height="6.3" transform="matrix(.793 -.6168 .5936 .7109 6.2 -22.85)"/><use xlink:href="#M" width="5" height="9.5" transform="matrix(-.6165 .7937 .7023 .5162 6.55 -28.5)"/><use xlink:href="#Y" width="9.4" height="11.8" transform="translate(-4.55 -40.2)"/></g></g><g clip-path="url(#ag)"><g transform="translate(362.95 57)"><use xlink:href="#D" width="14.7" height="4.3" transform="matrix(.8 0 0 .8 -5.4 -1.8)"/><use xlink:href="#E" width="3.4" height="8" transform="matrix(.8755 -.3552 .28 .6051 -7 -15.15)"/><use xlink:href="#F" width="6.4" height="3.7" transform="matrix(-.6135 1.1022 .8758 .6569 -3.25 -14.75)"/><use xlink:href="#G" width="5.7" height="9.2" transform="matrix(.9572 .3161 -.1188 .7912 -6 -21.45)"/><use xlink:href="#F" width="6.4" height="3.7" transform="matrix(.856 -.3685 .2938 .9163 -.6 -5.55)"/><use xlink:href="#E" width="3.4" height="8" transform="matrix(-.9559 -.1303 -.212 .8482 4.3 -11.5)"/><use xlink:href="#G" width="5.7" height="9.2" transform="matrix(-.9924 -.162 -.1919 .8791 5.95 -17.35)"/><use xlink:href="#H" width="10.1" height="8.4" transform="matrix(.9031 .0357 -.1154 .9382 -4.25 -22.65)"/><use xlink:href="#I" width="14" height="54.4" transform="matrix(1.0277 -.33 .0662 .6859 -21.25 -42.45)"/><use xlink:href="#J" width="4.1" height="8.6" transform="matrix(.5117 .847 -.709 .5535 -2.1 -34.25)"/><use xlink:href="#K" width="9.8" height="14.1" transform="matrix(.9836 -.1081 -.0003 1.0158 -4 -33.05)"/><use xlink:href="#L" width="3.6" height="6.3" transform="matrix(.174 -.9336 -.6306 -.1489 -9.25 -25.4)"/><use xlink:href="#M" width="5" height="9.5" transform="matrix(-.0228 1.0225 -.6944 -.1196 -6.5 -29.2)"/><use xlink:href="#J" width="4.1" height="8.6" transform="matrix(-.9138 .403 .3095 .9485 5.4 -33.2)"/><use xlink:href="#L" width="3.6" height="6.3" transform="matrix(.7954 -.6179 .5789 .6932 6.6 -23.75)"/><use xlink:href="#M" width="5" height="9.5" transform="matrix(-.5793 .8253 .6938 .4566 6.9 -29.05)"/><use xlink:href="#Y" width="9.4" height="11.8" transform="translate(-4.45 -40.65)"/></g></g><g clip-path="url(#ah)"><g transform="translate(404.95 57)"><use xlink:href="#D" width="14.7" height="4.3" transform="matrix(.8 0 0 .8 -5.4 -1.8)"/><use xlink:href="#E" width="3.4" height="8" transform="matrix(.9307 -.2117 .2077 .6381 -6.75 -16.45)"/><use xlink:href="#F" width="6.4" height="3.7" transform="matrix(-.6014 1.0482 .8349 .741 -3.5 -15.75)"/><use xlink:href="#G" width="5.7" height="9.2" transform="matrix(.959 .3175 -.0958 .7256 -6 -21.7)"/><use xlink:href="#F" width="6.4" height="3.7" transform="matrix(.899 -.2582 .1959 .9596 -.95 -4.55)"/><use xlink:href="#E" width="3.4" height="8" transform="matrix(-.9656 -.1191 -.2267 .8735 4.2 -11.05)"/><use xlink:href="#G" width="5.7" height="9.2" transform="matrix(-1.0005 -.146 -.2023 .9104 6 -17.1)"/><use xlink:href="#H" width="10.1" height="8.4" transform="matrix(.8978 .1269 -.1348 .9571 -4 -23.6)"/><use xlink:href="#I" width="14" height="54.4" transform="matrix(.9982 -.4085 .1127 .6736 -22.65 -40.4)"/><use xlink:href="#K" width="9.8" height="14.1" transform="matrix(.9742 -.1378 -.0005 1.0237 -3.95 -33.25)"/><use xlink:href="#J" width="4.1" height="8.6" transform="matrix(.7165 .4315 -.3921 .824 -5.5 -31.95)"/><use xlink:href="#L" width="3.6" height="6.3" transform="matrix(.5892 -.8336 -.5139 -.446 -10.9 -23)"/><use xlink:href="#M" width="5" height="9.5" transform="matrix(.1344 1.0246 -.7739 .0059 -6.95 -28)"/><use xlink:href="#J" width="4.1" height="8.6" transform="matrix(-.8543 .5205 .4302 .9 5.05 -33.45)"/><use xlink:href="#L" width="3.6" height="6.3" transform="matrix(.7998 -.6164 .5643 .6754 7.1 -24.75)"/><use xlink:href="#M" width="5" height="9.5" transform="matrix(-.5378 .8571 .6797 .4015 7.35 -29.6)"/><use xlink:href="#Y" width="9.4" height="11.8" transform="translate(-4.4 -41.05)"/></g></g><g clip-path="url(#ai)"><g transform="translate(446.95 57)"><use xlink:href="#D" width="14.7" height="4.3" transform="matrix(.8 0 0 .8 -5.4 -1.8)"/><use xlink:href="#E" width="3.4" height="8" transform="matrix(.9623 -.0599 .1293 .6629 -6.45 -17.8)"/><use xlink:href="#F" width="6.4" height="3.7" transform="matrix(-.5879 .9947 .7886 .8202 -3.65 -16.85)"/><use xlink:href="#G" width="5.7" height="9.2" transform="matrix(.9596 .322 -.0753 .6594 -6 -21.95)"/><use xlink:href="#F" width="6.4" height="3.7" transform="matrix(.9279 -.1431 .092 .9923 -1.1 -3.75)"/><use xlink:href="#E" width="3.4" height="8" transform="matrix(-.9752 -.1076 -.2419 .8985 4.05 -10.55)"/><use xlink:href="#G" width="5.7" height="9.2" transform="matrix(-1.0078 -.1329 -.2098 .9423 5.9 -16.9)"/><use xlink:href="#H" width="10.1" height="8.4" transform="matrix(.8824 .2204 -.1548 .9757 -3.65 -24.5)"/><use xlink:href="#I" width="14" height="54.4" transform="matrix(.9753 -.4718 .1443 .6634 -23.25 -39.15)"/><use xlink:href="#K" width="9.8" height="14.1" transform="matrix(.9633 -.1702 -.0006 1.0316 -3.85 -33.45)"/><use xlink:href="#J" width="4.1" height="8.6" transform="matrix(.7695 .3889 -.3365 .8633 -5.6 -32.15)"/><use xlink:href="#L" width="3.6" height="6.3" transform="matrix(.3483 -.9543 -.6533 -.3054 -9.85 -22.3)"/><use xlink:href="#M" width="5" height="9.5" transform="matrix(.2356 .999 -.7963 .0984 -6.65 -27.95)"/><use xlink:href="#J" width="4.1" height="8.6" transform="matrix(-.8543 .5205 .4302 .9 5.05 -33.45)"/><use xlink:href="#L" width="3.6" height="6.3" transform="matrix(.8023 -.6175 .5497 .6577 7.55 -25.65)"/><use xlink:href="#M" width="5" height="9.5" transform="matrix(-.4975 .8851 .6632 .3467 7.85 -30.15)"/><use xlink:href="#Y" width="9.4" height="11.8" transform="translate(-4.3 -41.5)"/></g></g><g clip-path="url(#aj)"><g transform="translate(488.95 57)"><use xlink:href="#D" width="14.7" height="4.3" transform="matrix(.8 0 0 .8 -5.4 -1.8)"/><use xlink:href="#E" width="3.4" height="8" transform="matrix(.9691 .0901 .0481 .6781 -6.05 -19.1)"/><use xlink:href="#F" width="6.4" height="3.7" transform="matrix(-.5732 .9417 .735 .8967 -3.9 -17.85)"/><use xlink:href="#G" width="5.7" height="9.2" transform="matrix(.9603 .3265 -.0552 .593 -6 -22.2)"/><use xlink:href="#F" width="6.4" height="3.7" transform="matrix(.9421 -.0249 -.0099 1.0137 -1.2 -2.7)"/><use xlink:href="#E" width="3.4" height="8" transform="matrix(-.9843 -.0992 -.2606 .9225 4 -10)"/><use xlink:href="#G" width="5.7" height="9.2" transform="matrix(-1.0154 -.1164 -.2205 .9735 5.95 -16.6)"/><use xlink:href="#H" width="10.1" height="8.4" transform="matrix(.8584 .3094 -.1756 .9938 -3.25 -25.4)"/><use xlink:href="#I" width="14" height="54.4" transform="matrix(.9497 -.5341 .1752 .6522 -23.75 -37.75)"/><use xlink:href="#K" width="9.8" height="14.1" transform="matrix(.952 -.1989 -.0008 1.0396 -3.7 -33.6)"/><use xlink:href="#J" width="4.1" height="8.6" transform="matrix(.8212 .3412 -.2765 .9001 -5.65 -32.35)"/><use xlink:href="#L" width="3.6" height="6.3" transform="matrix(.0848 -1.0092 -.7537 -.1203 -8.75 -21.95)"/><use xlink:href="#M" width="5" height="9.5" transform="matrix(.3328 .9641 -.8068 .1982 -6.45 -28)"/><use xlink:href="#J" width="4.1" height="8.6" transform="matrix(-.8543 .5205 .4302 .9 5.05 -33.45)"/><use xlink:href="#L" width="3.6" height="6.3" transform="matrix(.8067 -.6159 .5372 .6383 8 -26.55)"/><use xlink:href="#M" width="5" height="9.5" transform="matrix(-.4557 .9112 .642 .2969 8.25 -30.75)"/><use xlink:href="#Y" width="9.4" height="11.8" transform="translate(-4.25 -41.95)"/></g></g><g clip-path="url(#ak)"><g transform="translate(530.95 57)"><use xlink:href="#D" width="14.7" height="4.3" transform="matrix(.8 0 0 .8 -5.4 -1.8)"/><use xlink:href="#E" width="3.4" height="8" transform="matrix(.9505 .2501 -.0319 .6833 -5.7 -20.45)"/><use xlink:href="#F" width="6.4" height="3.7" transform="matrix(-.5581 .8906 .6741 .972 -4.05 -18.95)"/><use xlink:href="#G" width="5.7" height="9.2" transform="matrix(.9623 .3301 -.0409 .5259 -5.95 -22.45)"/><use xlink:href="#F" width="6.4" height="3.7" transform="matrix(.941 .0936 -.1243 1.0231 -1.4 -1.85)"/><use xlink:href="#E" width="3.4" height="8" transform="matrix(-.9938 -.0883 -.2779 .9476 3.8 -9.55)"/><use xlink:href="#G" width="5.7" height="9.2" transform="matrix(-1.0226 -.1031 -.2299 1.0057 5.9 -16.25)"/><use xlink:href="#H" width="10.1" height="8.4" transform="matrix(.8241 .3985 -.197 1.0115 -2.9 -26.25)"/><use xlink:href="#I" width="14" height="54.4" transform="matrix(.9182 -.598 .2054 .6396 -24.2 -36.45)"/><use xlink:href="#J" width="4.1" height="8.6" transform="matrix(-.7359 .6815 .5945 .8013 4.55 -35.4)"/><use xlink:href="#K" width="9.8" height="14.1" transform="matrix(.9391 -.2301 -.0009 1.0475 -3.55 -33.9)"/><use xlink:href="#J" width="4.1" height="8.6" transform="matrix(.87 .2879 -.2159 .9321 -5.7 -32.5)"/><use xlink:href="#L" width="3.6" height="6.3" transform="matrix(-.176 -.993 -.7998 .0915 -7.7 -21.7)"/><use xlink:href="#M" width="5" height="9.5" transform="matrix(.4255 .9198 -.8046 .3018 -6.25 -28)"/><use xlink:href="#L" width="3.6" height="6.3" transform="matrix(.8108 -.6174 .523 .6219 8.5 -27.6)"/><use xlink:href="#M" width="5" height="9.5" transform="matrix(-.4136 .9362 .6182 .2505 8.7 -31.35)"/><use xlink:href="#Y" width="9.4" height="11.8" transform="translate(-4.15 -42.4)"/></g></g><g clip-path="url(#al)"><g transform="translate(572.95 57)"><use xlink:href="#D" width="14.7" height="4.3" transform="matrix(.8 0 0 .8 -5.4 -1.8)"/><use xlink:href="#E" width="3.4" height="8" transform="matrix(.9614 .2004 .0007 .6839 -5.65 -21.45)"/><use xlink:href="#F" width="6.4" height="3.7" transform="matrix(-.9919 .3422 .0754 1.1476 -2.2 -19)"/><use xlink:href="#G" width="5.7" height="9.2" transform="matrix(.9769 .2804 -.0139 .5272 -6.05 -23.4)"/><use xlink:href="#F" width="6.4" height="3.7" transform="matrix(.941 .0936 -.1243 1.0231 -1.4 -1.85)"/><use xlink:href="#E" width="3.4" height="8" transform="matrix(-.9879 -.1798 -.2996 .9457 3.55 -8.95)"/><use xlink:href="#G" width="5.7" height="9.2" transform="matrix(-1.0341 -.1234 -.2556 1.041 5.85 -16.4)"/><use xlink:href="#H" width="10.1" height="8.4" transform="matrix(.7822 .4813 -.2191 1.0288 -2.35 -27.05)"/><use xlink:href="#I" width="14" height="54.4" transform="matrix(.8845 -.6572 .2348 .6255 -24.65 -35.05)"/><use xlink:href="#J" width="4.1" height="8.6" transform="matrix(-.5333 .8421 .7628 .566 3.35 -35.6)"/><use xlink:href="#K" width="9.8" height="14.1" transform="matrix(.9261 -.2576 -.0011 1.0554 -3.45 -34.15)"/><use xlink:href="#J" width="4.1" height="8.6" transform="matrix(.9153 .2293 -.1522 .9599 -5.8 -32.65)"/><use xlink:href="#L" width="3.6" height="6.3" transform="matrix(-.4291 -.9075 -.7825 .3214 -6.85 -21.55)"/><use xlink:href="#M" width="5" height="9.5" transform="matrix(.5127 .8667 -.7887 .4075 -6 -28)"/><use xlink:href="#L" width="3.6" height="6.3" transform="matrix(.7655 -.5731 .4661 .5683 7.5 -30.75)"/><use xlink:href="#M" width="5" height="9.5" transform="matrix(.1196 1.0092 .5973 -.0873 7 -32.4)"/><use xlink:href="#Y" width="9.4" height="11.8" transform="translate(-4.1 -42.8)"/></g></g><g clip-path="url(#am)"><g transform="translate(614.95 57)"><use xlink:href="#D" width="14.7" height="4.3" transform="matrix(.8 0 0 .8 -5.4 -1.8)"/><use xlink:href="#E" width="3.4" height="8" transform="matrix(.9705 .1501 .0363 .6827 -5.6 -22.35)"/><use xlink:href="#F" width="6.4" height="3.7" transform="matrix(-.9866 -.3549 -.5082 .9939 -1.15 -18.45)"/><use xlink:href="#G" width="5.7" height="9.2" transform="matrix(.9901 .2292 .0118 .5272 -6.1 -24.3)"/><use xlink:href="#F" width="6.4" height="3.7" transform="matrix(.941 .0936 -.1243 1.0231 -1.4 -1.85)"/><use xlink:href="#E" width="3.4" height="8" transform="matrix(-.9725 -.2751 -.3257 .9428 3.4 -8.35)"/><use xlink:href="#G" width="5.7" height="9.2" transform="matrix(-1.0449 -.1476 -.2843 1.076 5.85 -16.5)"/><use xlink:href="#H" width="10.1" height="8.4" transform="matrix(.7301 .5621 -.2419 1.0455 -1.95 -27.85)"/><use xlink:href="#I" width="14" height="54.4" transform="matrix(.8447 -.7174 .2654 .6093 -25 -33.6)"/><use xlink:href="#J" width="4.1" height="8.6" transform="matrix(-.2992 .9464 .8519 .3025 2.05 -35.6)"/><use xlink:href="#K" width="9.8" height="14.1" transform="matrix(.9122 -.2846 -.0047 1.0633 -3.25 -34.35)"/><use xlink:href="#J" width="4.1" height="8.6" transform="matrix(.9559 .1687 -.0824 .9836 -5.8 -32.8)"/><use xlink:href="#L" width="3.6" height="6.3" transform="matrix(-.6477 -.7614 -.6958 .5502 -6.15 -21.7)"/><use xlink:href="#M" width="5" height="9.5" transform="matrix(.5963 .8036 -.7588 .5136 -5.9 -28)"/><use xlink:href="#L" width="3.6" height="6.3" transform="matrix(.7212 -.5301 .4112 .5146 6.6 -33.7)"/><use xlink:href="#M" width="5" height="9.5" transform="matrix(.6117 .8014 .4191 -.3405 5.6 -33.25)"/><use xlink:href="#Y" width="9.4" height="11.8" transform="translate(-4 -43.25)"/></g></g><g clip-path="url(#an)"><g transform="translate(656.95 57)"><use xlink:href="#D" width="14.7" height="4.3" transform="matrix(.8 0 0 .8 -5.4 -1.8)"/><use xlink:href="#E" width="3.4" height="8" transform="matrix(.977 .1022 .0726 .6798 -5.55 -23.35)"/><use xlink:href="#F" width="6.4" height="3.7" transform="matrix(-.5455 -.8959 -.9215 .5732 -1 -17.9)"/><use xlink:href="#G" width="5.7" height="9.2" transform="matrix(1.0009 .1795 .0397 .5258 -6.1 -25.3)"/><use xlink:href="#E" width="3.4" height="8" transform="matrix(-.9491 -.3695 -.3525 .9401 3.05 -7.9)"/><use xlink:href="#G" width="5.7" height="9.2" transform="matrix(-1.0556 -.1736 -.3168 1.1106 5.9 -16.7)"/><use xlink:href="#ao" width="6.4" height="3.7" transform="matrix(.4668 1.238 -.6763 .7376 -1.4 -4.95)"/><use xlink:href="#H" width="10.1" height="8.4" transform="matrix(.672 .6372 -.2662 1.0625 -1.4 -28.7)"/><use xlink:href="#I" width="14" height="54.4" transform="matrix(.8044 -.774 .2935 .5933 -25.3 -32.3)"/><use xlink:href="#J" width="4.1" height="8.6" transform="matrix(-.0488 .9875 .8576 .0409 1 -35.45)"/><use xlink:href="#K" width="9.8" height="14.1" transform="matrix(.8971 -.3152 -.0057 1.0712 -3.1 -34.55)"/><use xlink:href="#J" width="4.1" height="8.6" transform="matrix(.9931 .1008 -.0137 1.0022 -5.85 -32.9)"/><use xlink:href="#L" width="3.6" height="6.3" transform="matrix(-.8232 -.5629 -.5446 .754 -5.55 -21.85)"/><use xlink:href="#M" width="5" height="9.5" transform="matrix(.6709 .7361 -.7157 .6194 -5.7 -27.95)"/><use xlink:href="#L" width="3.6" height="6.3" transform="matrix(.6779 -.4878 .3595 .4595 5.6 -36.75)"/><use xlink:href="#M" width="5" height="9.5" transform="matrix(.93 .3756 .1664 -.4478 4.9 -34.15)"/><use xlink:href="#Y" width="9.4" height="11.8" transform="translate(-3.95 -43.7)"/></g></g><g clip-path="url(#ap)"><g transform="translate(698.95 57)"><use xlink:href="#D" width="14.7" height="4.3" transform="matrix(.8 0 0 .8 -5.4 -1.8)"/><use xlink:href="#E" width="3.4" height="8" transform="matrix(.9769 .0386 .1189 .7074 -4.75 -20.55)"/><use xlink:href="#F" width="6.4" height="3.7" transform="matrix(-.5455 -.8959 -.9215 .5732 -1 -17.9)"/><use xlink:href="#G" width="5.7" height="9.2" transform="matrix(.9942 .0009 .1211 .5926 -6 -23.15)"/><use xlink:href="#E" width="3.4" height="8" transform="matrix(-.9718 -.3354 -.3718 .8944 3.8 -9.6)"/><use xlink:href="#G" width="5.7" height="9.2" transform="matrix(-1.0487 -.2001 -.2567 1.0065 6 -17.35)"/><use xlink:href="#aq" width="6.4" height="3.7" transform="matrix(.4395 1.2738 -.7721 .7098 -.75 -6.6)"/><use xlink:href="#H" width="10.1" height="8.4" transform="matrix(.768 .5447 -.2128 1.041 -2.15 -27.55)"/><use xlink:href="#I" width="14" height="54.4" transform="matrix(.82 -.7546 .2845 .5947 -25.35 -33.2)"/><use xlink:href="#J" width="4.1" height="8.6" transform="matrix(-.2099 .9658 .8444 .2155 1.5 -35.1)"/><use xlink:href="#K" width="9.8" height="14.1" transform="matrix(.9188 -.2728 -.0047 1.0593 -3.35 -34.15)"/><use xlink:href="#J" width="4.1" height="8.6" transform="matrix(.9518 .1128 -.0259 .9583 -5.75 -32.55)"/><use xlink:href="#L" width="3.6" height="6.3" transform="matrix(-.8114 -.5808 -.5645 .746 -5.5 -21.85)"/><use xlink:href="#M" width="5" height="9.5" transform="matrix(.6648 .7426 -.7121 .6047 -5.75 -27.9)"/><use xlink:href="#L" width="3.6" height="6.3" transform="matrix(.6219 -.5423 .3852 .4374 6.1 -34.95)"/><use xlink:href="#M" width="5" height="9.5" transform="matrix(.7851 .6209 .2787 -.4233 5.15 -33.3)"/><use xlink:href="#Y" width="9.4" height="11.8" transform="translate(-4.05 -43.05)"/></g></g><g clip-path="url(#ar)"><g transform="translate(740.95 57)"><use xlink:href="#D" width="14.7" height="4.3" transform="matrix(.8 0 0 .8 -5.4 -1.8)"/><use xlink:href="#E" width="3.4" height="8" transform="matrix(.973 -.0217 .1698 .7316 -4 -17.75)"/><use xlink:href="#F" width="6.4" height="3.7" transform="matrix(-.5455 -.8959 -.9215 .5732 -1 -17.9)"/><use xlink:href="#G" width="5.7" height="9.2" transform="matrix(.9574 -.1613 .2225 .6453 -5.85 -21.05)"/><use xlink:href="#E" width="3.4" height="8" transform="matrix(-.9945 -.3002 -.3919 .8482 4.7 -11.35)"/><use xlink:href="#G" width="5.7" height="9.2" transform="matrix(-1.0407 -.231 -.2048 .9005 6.2 -17.95)"/><use xlink:href="#as" width="6.4" height="3.7" transform="matrix(.4089 1.311 -.8705 .67 0 -8.25)"/><use xlink:href="#H" width="10.1" height="8.4" transform="matrix(.8518 .4396 -.166 1.0171 -2.9 -26.25)"/><use xlink:href="#I" width="14" height="54.4" transform="matrix(.8363 -.7364 .276 .5966 -25.45 -34.2)"/><use xlink:href="#J" width="4.1" height="8.6" transform="matrix(-.3634 .919 .7945 .3891 2.1 -34.65)"/><use xlink:href="#K" width="9.8" height="14.1" transform="matrix(.9391 -.2301 -.0009 1.0475 -3.6 -33.9)"/><use xlink:href="#J" width="4.1" height="8.6" transform="matrix(.9106 .1241 -.0404 .9141 -5.75 -32.25)"/><use xlink:href="#L" width="3.6" height="6.3" transform="matrix(-.8002 -.5996 -.5876 .7367 -5.5 -21.85)"/><use xlink:href="#M" width="5" height="9.5" transform="matrix(.6572 .7526 -.7113 .5889 -5.8 -27.95)"/><use xlink:href="#L" width="3.6" height="6.3" transform="matrix(.5634 -.5909 .4112 .4134 6.5 -33.1)"/><use xlink:href="#M" width="5" height="9.5" transform="matrix(.5787 .8163 .3899 -.3685 5.55 -32.35)"/><use xlink:href="#Y" width="9.4" height="11.8" transform="translate(-4.15 -42.4)"/></g></g><g clip-path="url(#at)"><g transform="translate(782.95 57)"><use xlink:href="#D" width="14.7" height="4.3" transform="matrix(.8 0 0 .8 -5.4 -1.8)"/><use xlink:href="#F" width="6.4" height="3.7" transform="matrix(-.8505 -.3423 -.111 1.1264 1.8 -10.05)"/><use xlink:href="#E" width="3.4" height="8" transform="matrix(.965 -.085 .2267 .7521 -3.2 -14.95)"/><use xlink:href="#G" width="5.7" height="9.2" transform="matrix(.8934 -.3195 .338 .6821 -5.5 -19.05)"/><use xlink:href="#E" width="3.4" height="8" transform="matrix(-1.0161 -.2662 -.4084 .8036 5.45 -13)"/><use xlink:href="#G" width="5.7" height="9.2" transform="matrix(-1.033 -.2599 -.1611 .7926 6.2 -18.6)"/><use xlink:href="#au" width="6.4" height="3.7" transform="matrix(.3831 1.347 -.9688 .6197 .8 -9.8)"/><use xlink:href="#H" width="10.1" height="8.4" transform="matrix(.9222 .3187 -.1181 .9915 -3.55 -24.9)"/><use xlink:href="#I" width="14" height="54.4" transform="matrix(.8522 -.7179 .2675 .5984 -25.5 -35.15)"/><use xlink:href="#J" width="4.1" height="8.6" transform="matrix(-.5117 .847 .709 .5535 2.65 -34.25)"/><use xlink:href="#K" width="9.8" height="14.1" transform="matrix(.9581 -.183 -.0007 1.0356 -3.8 -33.55)"/><use xlink:href="#J" width="4.1" height="8.6" transform="matrix(.8697 .1341 -.0536 .8698 -5.6 -31.9)"/><use xlink:href="#L" width="3.6" height="6.3" transform="matrix(-.7898 -.6194 -.6091 .7298 -5.45 -21.9)"/><use xlink:href="#M" width="5" height="9.5" transform="matrix(.6529 .7617 -.7094 .5766 -5.85 -27.85)"/><use xlink:href="#L" width="3.6" height="6.3" transform="matrix(.5024 -.6341 .4352 .39 7 -31.35)"/><use xlink:href="#M" width="5" height="9.5" transform="matrix(.3261 .9472 .4896 -.2865 5.9 -31.45)"/><use xlink:href="#Y" width="9.4" height="11.8" transform="translate(-4.25 -41.7)"/></g></g><g clip-path="url(#av)"><g transform="translate(824.95 57)"><use xlink:href="#D" width="14.7" height="4.3" transform="matrix(.8 0 0 .8 -5.4 -1.8)"/><use xlink:href="#F" width="6.4" height="3.7" transform="matrix(-.9153 -.2289 -.0847 1.07 1.75 -8.15)"/><use xlink:href="#E" width="3.4" height="8" transform="matrix(.9541 -.0963 .2202 .7914 -3.4 -13.55)"/><use xlink:href="#G" width="5.7" height="9.2" transform="matrix(.9249 -.2573 .3381 .7742 -5.8 -18.05)"/><use xlink:href="#E" width="3.4" height="8" transform="matrix(-1.022 -.1492 -.2924 .801 5.8 -13.6)"/><use xlink:href="#G" width="5.7" height="9.2" transform="matrix(-1.033 -.2599 -.1611 .7926 6.2 -18.6)"/><use xlink:href="#aw" width="6.4" height="3.7" transform="matrix(.5021 1.2701 -.9207 .659 1.75 -10.85)"/><use xlink:href="#H" width="10.1" height="8.4" transform="matrix(.9746 .1899 -.076 .9636 -4.15 -23.5)"/><use xlink:href="#I" width="14" height="54.4" transform="matrix(.8677 -.699 .261 .5992 -25.75 -36.15)"/><use xlink:href="#J" width="4.1" height="8.6" transform="matrix(-.5117 .847 .709 .5535 2.65 -34.25)"/><use xlink:href="#K" width="9.8" height="14.1" transform="matrix(.9742 -.1378 -.0005 1.0237 -4 -33.25)"/><use xlink:href="#J" width="4.1" height="8.6" transform="matrix(.8582 .1912 -.1066 .8313 -5.6 -31.95)"/><use xlink:href="#L" width="3.6" height="6.3" transform="matrix(-.793 -.6168 -.5936 .7109 -5.95 -22.8)"/><use xlink:href="#M" width="5" height="9.5" transform="matrix(.6165 .7937 -.7023 .5162 -6.25 -28.5)"/><use xlink:href="#L" width="3.6" height="6.3" transform="matrix(.2094 -.8536 .597 .1518 8 -28.25)"/><use xlink:href="#M" width="5" height="9.5" transform="matrix(.1765 .9962 .597 -.2178 6.35 -30.25)"/><use xlink:href="#Y" width="9.4" height="11.8" transform="translate(-4.4 -41.05)"/></g></g><g clip-path="url(#ax)"><g transform="translate(866.95 57)"><use xlink:href="#D" width="14.7" height="4.3" transform="matrix(.8 0 0 .8 -5.4 -1.8)"/><use xlink:href="#F" width="6.4" height="3.7" transform="matrix(-.9654 -.106 -.0623 1.0133 1.7 -6.15)"/><use xlink:href="#E" width="3.4" height="8" transform="matrix(.9433 -.1077 .2151 .8306 -3.45 -12.1)"/><use xlink:href="#G" width="5.7" height="9.2" transform="matrix(.9526 -.1943 .3339 .8674 -5.9 -17.1)"/><use xlink:href="#E" width="3.4" height="8" transform="matrix(-1.0154 -.0365 -.185 .7838 6.2 -14.3)"/><use xlink:href="#G" width="5.7" height="9.2" transform="matrix(-1.033 -.2599 -.1611 .7926 6.2 -18.6)"/><use xlink:href="#ay" width="6.4" height="3.7" transform="matrix(.6122 1.1835 -.8722 .6964 2.7 -11.95)"/><use xlink:href="#H" width="10.1" height="8.4" transform="matrix(1.009 .0496 -.0333 .934 -4.6 -22.1)"/><use xlink:href="#I" width="14" height="54.4" transform="matrix(.8827 -.6798 .2526 .6008 -25.75 -37.1)"/><use xlink:href="#J" width="4.1" height="8.6" transform="matrix(-.5117 .847 .709 .5535 2.65 -34.25)"/><use xlink:href="#K" width="9.8" height="14.1" transform="matrix(.9882 -.0914 -.0002 1.0119 -4.1 -32.95)"/><use xlink:href="#J" width="4.1" height="8.6" transform="matrix(.8424 .2503 -.1576 .7892 -5.55 -31.95)"/><use xlink:href="#L" width="3.6" height="6.3" transform="matrix(-.7954 -.6179 -.5789 .6932 -6.4 -23.8)"/><use xlink:href="#M" width="5" height="9.5" transform="matrix(.5793 .8253 -.6938 .4566 -6.65 -29)"/><use xlink:href="#L" width="3.6" height="6.3" transform="matrix(-.174 -.9336 .6306 -.1489 9.45 -25.4)"/><use xlink:href="#M" width="5" height="9.5" transform="matrix(.0228 1.0225 .6944 -.1196 6.7 -29.2)"/><use xlink:href="#Y" width="9.4" height="11.8" transform="translate(-4.5 -40.4)"/></g></g><g clip-path="url(#az)"><g transform="translate(908.95 57)"><use xlink:href="#D" width="14.7" height="4.3" transform="matrix(.8 0 0 .8 -5.4 -1.8)"/><use xlink:href="#F" width="6.4" height="3.7" transform="matrix(-.9985 .0262 -.0422 .9563 1.65 -4.35)"/><use xlink:href="#E" width="3.4" height="8" transform="matrix(.9327 -.1195 .2075 .8709 -3.6 -10.75)"/><use xlink:href="#G" width="5.7" height="9.2" transform="matrix(.9763 -.1291 .3221 .9626 -6.1 -16.15)"/><use xlink:href="#E" width="3.4" height="8" transform="matrix(-.9966 .0696 -.0861 .7533 6.55 -15.05)"/><use xlink:href="#G" width="5.7" height="9.2" transform="matrix(-1.0117 .0243 .0407 .6949 7.05 -20.6)"/><use xlink:href="#F" width="6.4" height="3.7" transform="matrix(.7142 1.0876 -.8235 .7321 3.55 -12.95)"/><use xlink:href="#H" width="10.1" height="8.4" transform="matrix(1.0232 -.0914 .0035 .9026 -4.9 -20.65)"/><use xlink:href="#I" width="14" height="54.4" transform="matrix(.8986 -.6615 .2453 .6027 -25.95 -38.05)"/><use xlink:href="#K" width="9.8" height="14.1" transform="matrix(1 -.0455 0 1 -4.25 -32.65)"/><use xlink:href="#J" width="4.1" height="8.6" transform="matrix(.8233 .3091 -.2043 .7447 -5.5 -32)"/><use xlink:href="#L" width="3.6" height="6.3" transform="matrix(-.7998 -.6164 -.5643 .6754 -6.85 -24.65)"/><use xlink:href="#M" width="5" height="9.5" transform="matrix(.5378 .8571 -.6797 .4015 -7.15 -29.6)"/><use xlink:href="#J" width="4.1" height="8.6" transform="matrix(-.7165 .4315 .3921 .824 5.75 -31.95)"/><use xlink:href="#L" width="3.6" height="6.3" transform="matrix(-.5892 -.8336 .5139 -.446 11.15 -23)"/><use xlink:href="#M" width="5" height="9.5" transform="matrix(-.1344 1.0246 .7739 .0059 7.2 -28)"/><use xlink:href="#Y" width="9.4" height="11.8" transform="translate(-4.6 -39.75)"/></g></g><g clip-path="url(#aA)"><g transform="translate(950.95 57)"><use xlink:href="#D" width="14.7" height="4.3" transform="matrix(.8 0 0 .8 -5.4 -1.8)"/><use xlink:href="#F" width="6.4" height="3.7" transform="matrix(-.9933 .0829 -.0006 .992 1.95 -4.2)"/><use xlink:href="#E" width="3.4" height="8" transform="matrix(.9268 -.1515 .2381 .9025 -3.55 -10.45)"/><use xlink:href="#G" width="5.7" height="9.2" transform="matrix(.9763 -.1291 .3221 .9626 -6.1 -16.15)"/><use xlink:href="#E" width="3.4" height="8" transform="matrix(-.9958 .074 -.0721 .7778 6.45 -15.85)"/><use xlink:href="#G" width="5.7" height="9.2" transform="matrix(-1.0118 .0354 .0433 .7069 6.95 -21)"/><use xlink:href="#F" width="6.4" height="3.7" transform="matrix(.7142 1.0876 -.8235 .7321 3.55 -12.95)"/><use xlink:href="#H" width="10.1" height="8.4" transform="matrix(1.0252 -.1402 .0161 .9039 -5 -20.9)"/><use xlink:href="#I" width="14" height="54.4" transform="matrix(.955 -.5696 .1938 .6309 -24.45 -40.5)"/><use xlink:href="#K" width="9.8" height="14.1" transform="matrix(.9961 .0176 -.0138 .9978 -4.15 -33.25)"/><use xlink:href="#J" width="4.1" height="8.6" transform="matrix(.8233 .3091 -.2043 .7447 -5.5 -32)"/><use xlink:href="#L" width="3.6" height="6.3" transform="matrix(-.8023 -.6175 -.5497 .6577 -7.3 -25.65)"/><use xlink:href="#M" width="5" height="9.5" transform="matrix(.4975 .8851 -.6632 .3467 -7.55 -30.15)"/><use xlink:href="#J" width="4.1" height="8.6" transform="matrix(-.7695 .3889 .3365 .8633 5.8 -32.15)"/><use xlink:href="#L" width="3.6" height="6.3" transform="matrix(-.3483 -.9543 .6533 -.3054 10.05 -22.3)"/><use xlink:href="#M" width="5" height="9.5" transform="matrix(-.2356 .999 .7963 .0984 6.9 -28)"/><use xlink:href="#Y" width="9.4" height="11.8" transform="translate(-4.5 -40.25)"/></g></g><g clip-path="url(#aB)"><g transform="translate(992.95 57)"><use xlink:href="#D" width="14.7" height="4.3" transform="matrix(.8 0 0 .8 -5.4 -1.8)"/><use xlink:href="#F" width="6.4" height="3.7" transform="matrix(-.985 .1392 .0369 1.026 2.2 -4)"/><use xlink:href="#E" width="3.4" height="8" transform="matrix(.9201 -.1839 .2723 .9332 -3.5 -10.35)"/><use xlink:href="#G" width="5.7" height="9.2" transform="matrix(.9763 -.1291 .3221 .9626 -6.1 -16.15)"/><use xlink:href="#E" width="3.4" height="8" transform="matrix(-.9953 .0784 -.06 .8022 6.35 -16.65)"/><use xlink:href="#G" width="5.7" height="9.2" transform="matrix(-1.0119 .045 .0445 .719 6.85 -21.35)"/><use xlink:href="#F" width="6.4" height="3.7" transform="matrix(.7142 1.0876 -.8235 .7321 3.55 -12.95)"/><use xlink:href="#H" width="10.1" height="8.4" transform="matrix(1.0249 -.1908 .0283 .9052 -5.2 -21.15)"/><use xlink:href="#I" width="14" height="54.4" transform="matrix(1.0036 -.4741 .1425 .6547 -22.9 -43)"/><use xlink:href="#K" width="9.8" height="14.1" transform="matrix(.9883 .0786 -.0308 .9954 -4 -33.85)"/><use xlink:href="#J" width="4.1" height="8.6" transform="matrix(.8233 .3091 -.2043 .7447 -5.5 -32)"/><use xlink:href="#L" width="3.6" height="6.3" transform="matrix(-.8067 -.6159 -.5372 .6383 -7.85 -26.6)"/><use xlink:href="#M" width="5" height="9.5" transform="matrix(.4557 .9112 -.642 .2969 -8.05 -30.75)"/><use xlink:href="#J" width="4.1" height="8.6" transform="matrix(-.8212 .3412 .2765 .9001 5.85 -32.3)"/><use xlink:href="#L" width="3.6" height="6.3" transform="matrix(-.0848 -1.0092 .7537 -.1203 9 -21.9)"/><use xlink:href="#M" width="5" height="9.5" transform="matrix(-.3328 .9641 .8068 .1982 6.65 -28.05)"/><use xlink:href="#Y" width="9.4" height="11.8" transform="translate(-4.45 -40.75)"/></g></g><g clip-path="url(#aC)"><g transform="translate(1034.95 57)"><use xlink:href="#D" width="14.7" height="4.3" transform="matrix(.8 0 0 .8 -5.4 -1.8)"/><use xlink:href="#F" width="6.4" height="3.7" transform="matrix(-.9736 .1949 .0839 1.058 2.5 -3.75)"/><use xlink:href="#E" width="3.4" height="8" transform="matrix(.9122 -.216 .305 .9638 -3.5 -10.2)"/><use xlink:href="#F" width="6.4" height="3.7" transform="matrix(.5592 .789 -.6764 .7413 3.45 -14.05)"/><use xlink:href="#E" width="3.4" height="8" transform="matrix(-.9948 .0828 -.047 .8263 6.25 -17.55)"/><use xlink:href="#G" width="5.7" height="9.2" transform="matrix(-1.0118 .0578 .0482 .731 6.75 -21.75)"/><use xlink:href="#G" width="5.7" height="9.2" transform="matrix(.9696 -.1982 .3022 .9824 -5.9 -16.25)"/><use xlink:href="#H" width="10.1" height="8.4" transform="matrix(1.0221 -.2418 .0406 .9062 -5.3 -21.35)"/><use xlink:href="#I" width="14" height="54.4" transform="matrix(1.0439 -.3712 .0864 .6747 -21.2 -45.3)"/><use xlink:href="#J" width="4.1" height="8.6" transform="matrix(.7359 .6815 -.5945 .8013 -4 -35.4)"/><use xlink:href="#K" width="9.8" height="14.1" transform="matrix(.9762 .142 -.0477 .9927 -3.85 -34.3)"/><use xlink:href="#L" width="3.6" height="6.3" transform="matrix(-.8108 -.6174 -.523 .6219 -8.25 -27.6)"/><use xlink:href="#M" width="5" height="9.5" transform="matrix(.4136 .9362 -.6182 .2505 -8.45 -31.35)"/><use xlink:href="#J" width="4.1" height="8.6" transform="matrix(-.87 .2879 .2159 .9321 5.95 -32.55)"/><use xlink:href="#L" width="3.6" height="6.3" transform="matrix(.176 -.993 .7998 .0915 7.95 -21.7)"/><use xlink:href="#M" width="5" height="9.5" transform="matrix(-.4255 .9198 .8046 .3018 6.45 -28)"/><use xlink:href="#Y" width="9.4" height="11.8" transform="translate(-4.35 -41.2)"/></g></g><g clip-path="url(#aD)"><g transform="translate(1076.95 57)"><use xlink:href="#D" width="14.7" height="4.3" transform="matrix(.8 0 0 .8 -5.4 -1.8)"/><use xlink:href="#F" width="6.4" height="3.7" transform="matrix(-.9581 .2528 .1337 1.0878 2.7 -3.65)"/><use xlink:href="#E" width="3.4" height="8" transform="matrix(.9024 -.2508 .3425 .9922 -3.4 -10)"/><use xlink:href="#F" width="6.4" height="3.7" transform="matrix(.5138 .7952 -.6709 .7421 3.65 -14.65)"/><use xlink:href="#E" width="3.4" height="8" transform="matrix(-.9942 .0871 -.0303 .8503 6.15 -18.3)"/><use xlink:href="#G" width="5.7" height="9.2" transform="matrix(-1.0118 .0674 .0495 .7432 6.65 -22.15)"/><use xlink:href="#G" width="5.7" height="9.2" transform="matrix(.9712 -.1763 .3142 .995 -5.9 -16.45)"/><use xlink:href="#H" width="10.1" height="8.4" transform="matrix(1.0167 -.2929 .0558 .9069 -5.45 -21.6)"/><use xlink:href="#I" width="14" height="54.4" transform="matrix(1.0728 -.2685 .0302 .6896 -19.25 -47.6)"/><use xlink:href="#J" width="4.1" height="8.6" transform="matrix(.6398 .7667 -.6889 .6864 -3.3 -35.55)"/><use xlink:href="#K" width="9.8" height="14.1" transform="matrix(.9608 .201 -.0613 .9899 -3.65 -35)"/><use xlink:href="#L" width="3.6" height="6.3" transform="matrix(-.787 -.5947 -.493 .5951 -7.8 -29.15)"/><use xlink:href="#M" width="5" height="9.5" transform="matrix(.1509 1.008 -.6306 .0747 -7.55 -31.95)"/><use xlink:href="#J" width="4.1" height="8.6" transform="matrix(-.9153 .2293 .1522 .9599 6 -32.65)"/><use xlink:href="#L" width="3.6" height="6.3" transform="matrix(.4291 -.9075 .7825 .3214 7.05 -21.6)"/><use xlink:href="#M" width="5" height="9.5" transform="matrix(-.5127 .8667 .7887 .4075 6.25 -28.05)"/><use xlink:href="#Y" width="9.4" height="11.8" transform="translate(-4.3 -41.7)"/></g></g><g clip-path="url(#aE)"><g transform="translate(1118.95 57)"><use xlink:href="#D" width="14.7" height="4.3" transform="matrix(.8 0 0 .8 -5.4 -1.8)"/><use xlink:href="#F" width="6.4" height="3.7" transform="matrix(-.9403 .3066 .1826 1.1158 3 -3.35)"/><use xlink:href="#E" width="3.4" height="8" transform="matrix(.8923 -.2822 .3817 1.0193 -3.35 -9.85)"/><use xlink:href="#F" width="6.4" height="3.7" transform="matrix(.4722 .7988 -.6665 .7439 3.85 -15.1)"/><use xlink:href="#E" width="3.4" height="8" transform="matrix(-.9936 .0915 -.0156 .8739 6.05 -19.15)"/><use xlink:href="#G" width="5.7" height="9.2" transform="matrix(-1.0113 .0802 .0533 .7551 6.55 -22.5)"/><use xlink:href="#G" width="5.7" height="9.2" transform="matrix(.9728 -.1551 .3243 1.0091 -5.85 -16.7)"/><use xlink:href="#H" width="10.1" height="8.4" transform="matrix(1.0077 -.3474 .0682 .9075 -5.5 -21.85)"/><use xlink:href="#I" width="14" height="54.4" transform="matrix(1.0918 -.1638 -.0279 .6997 -17.35 -49.65)"/><use xlink:href="#J" width="4.1" height="8.6" transform="matrix(.5329 .8414 -.7622 .5654 -2.75 -35.55)"/><use xlink:href="#K" width="9.8" height="14.1" transform="matrix(.941 .2618 -.0781 .9866 -3.5 -35.55)"/><use xlink:href="#L" width="3.6" height="6.3" transform="matrix(-.7646 -.5727 -.4657 .5677 -7.3 -30.65)"/><use xlink:href="#M" width="5" height="9.5" transform="matrix(-.1194 1.0084 -.5965 -.0892 -6.7 -32.45)"/><use xlink:href="#J" width="4.1" height="8.6" transform="matrix(-.9559 .1687 .0824 .9836 6.05 -32.75)"/><use xlink:href="#L" width="3.6" height="6.3" transform="matrix(.6477 -.7614 .6958 .5502 6.4 -21.65)"/><use xlink:href="#M" width="5" height="9.5" transform="matrix(-.5963 .8036 .7588 .5136 6.1 -28)"/><use xlink:href="#Y" width="9.4" height="11.8" transform="translate(-4.2 -42.2)"/></g></g><g clip-path="url(#aF)"><g transform="translate(1160.95 57)"><use xlink:href="#D" width="14.7" height="4.3" transform="matrix(.8 0 0 .8 -5.4 -1.8)"/><use xlink:href="#F" width="6.4" height="3.7" transform="matrix(-.9194 .362 .2381 1.1414 3.2 -3.15)"/><use xlink:href="#E" width="3.4" height="8" transform="matrix(.8812 -.3154 .4219 1.0467 -3.25 -9.75)"/><use xlink:href="#F" width="6.4" height="3.7" transform="matrix(.4317 .8015 -.6631 .7471 4.1 -15.7)"/><use xlink:href="#E" width="3.4" height="8" transform="matrix(-.9932 .0964 -.0001 .8973 6 -19.95)"/><use xlink:href="#G" width="5.7" height="9.2" transform="matrix(-1.011 .0936 .0575 .7672 6.45 -22.95)"/><use xlink:href="#G" width="5.7" height="9.2" transform="matrix(.9738 -.1379 .3398 1.0225 -5.85 -16.95)"/><use xlink:href="#H" width="10.1" height="8.4" transform="matrix(.9981 -.3991 .0838 .908 -5.65 -22.1)"/><use xlink:href="#I" width="14" height="54.4" transform="matrix(1.1007 -.0588 -.0903 .7045 -15.3 -51.4)"/><use xlink:href="#J" width="4.1" height="8.6" transform="matrix(.4209 .9012 -.8179 .436 -2.15 -35.65)"/><use xlink:href="#K" width="9.8" height="14.1" transform="matrix(.9183 .3212 -.0951 .9833 -3.25 -36.15)"/><use xlink:href="#L" width="3.6" height="6.3" transform="matrix(-.7435 -.5515 -.4394 .5409 -6.85 -32.2)"/><use xlink:href="#M" width="5" height="9.5" transform="matrix(-.3799 .9381 -.5231 -.2306 -6 -32.85)"/><use xlink:href="#J" width="4.1" height="8.6" transform="matrix(-.9931 .1008 .0137 1.0022 6.1 -32.9)"/><use xlink:href="#L" width="3.6" height="6.3" transform="matrix(.8232 -.5629 .5446 .754 5.8 -21.85)"/><use xlink:href="#M" width="5" height="9.5" transform="matrix(-.6709 .7361 .7157 .6194 5.95 -27.95)"/><use xlink:href="#Y" width="9.4" height="11.8" transform="translate(-4.15 -42.7)"/></g></g></svg>