<svg xmlns="http://www.w3.org/2000/svg" xmlns:xlink="http://www.w3.org/1999/xlink" width="3997" height="328" viewBox="0 0 3997 328"><defs><clipPath id="aT"><path d="M1 1h110v108H1z"/></clipPath><clipPath id="aY"><path d="M112 1h110v108H112z"/></clipPath><clipPath id="aZ"><path d="M223 1h110v108H223z"/></clipPath><clipPath id="ba"><path d="M334 1h110v108H334z"/></clipPath><clipPath id="bc"><path d="M445 1h110v108H445z"/></clipPath><clipPath id="bd"><path d="M556 1h110v108H556z"/></clipPath><clipPath id="be"><path d="M667 1h110v108H667z"/></clipPath><clipPath id="bf"><path d="M778 1h110v108H778z"/></clipPath><clipPath id="bg"><path d="M889 1h110v108H889z"/></clipPath><clipPath id="bh"><path d="M1000 1h110v108h-110z"/></clipPath><clipPath id="bj"><path d="M1111 1h110v108h-110z"/></clipPath><clipPath id="bl"><path d="M1222 1h110v108h-110z"/></clipPath><clipPath id="bn"><path d="M1333 1h110v108h-110z"/></clipPath><clipPath id="br"><path d="M1444 1h110v108h-110z"/></clipPath><clipPath id="bu"><path d="M1555 1h110v108h-110z"/></clipPath><clipPath id="bx"><path d="M1666 1h110v108h-110z"/></clipPath><clipPath id="bA"><path d="M1777 1h110v108h-110z"/></clipPath><clipPath id="bD"><path d="M1888 1h110v108h-110z"/></clipPath><clipPath id="bG"><path d="M1999 1h110v108h-110z"/></clipPath><clipPath id="bJ"><path d="M2110 1h110v108h-110z"/></clipPath><clipPath id="bM"><path d="M2221 1h110v108h-110z"/></clipPath><clipPath id="bP"><path d="M2332 1h110v108h-110z"/></clipPath><clipPath id="bS"><path d="M2443 1h110v108h-110z"/></clipPath><clipPath id="bV"><path d="M2554 1h110v108h-110z"/></clipPath><clipPath id="bY"><path d="M2665 1h110v108h-110z"/></clipPath><clipPath id="cb"><path d="M2776 1h110v108h-110z"/></clipPath><clipPath id="cd"><path d="M2887 1h110v108h-110z"/></clipPath><clipPath id="cf"><path d="M2998 1h110v108h-110z"/></clipPath><clipPath id="ch"><path d="M3109 1h110v108h-110z"/></clipPath><clipPath id="cj"><path d="M3220 1h110v108h-110z"/></clipPath><clipPath id="cl"><path d="M3331 1h110v108h-110z"/></clipPath><clipPath id="cn"><path d="M3442 1h110v108h-110z"/></clipPath><clipPath id="cp"><path d="M3553 1h110v108h-110z"/></clipPath><clipPath id="cr"><path d="M3664 1h110v108h-110z"/></clipPath><clipPath id="ct"><path d="M3775 1h110v108h-110z"/></clipPath><clipPath id="cv"><path d="M3886 1h110v108h-110z"/></clipPath><clipPath id="cx"><path d="M1 110h110v108H1z"/></clipPath><clipPath id="cz"><path d="M112 110h110v108H112z"/></clipPath><clipPath id="cA"><path d="M223 110h110v108H223z"/></clipPath><clipPath id="cB"><path d="M334 110h110v108H334z"/></clipPath><clipPath id="cC"><path d="M445 110h110v108H445z"/></clipPath><clipPath id="cD"><path d="M556 110h110v108H556z"/></clipPath><clipPath id="cE"><path d="M667 110h110v108H667z"/></clipPath><clipPath id="cF"><path d="M778 110h110v108H778z"/></clipPath><clipPath id="cG"><path d="M889 110h110v108H889z"/></clipPath><clipPath id="cH"><path d="M1000 110h110v108h-110z"/></clipPath><clipPath id="cI"><path d="M1111 110h110v108h-110z"/></clipPath><clipPath id="cJ"><path d="M1222 110h110v108h-110z"/></clipPath><clipPath id="cK"><path d="M1333 110h110v108h-110z"/></clipPath><clipPath id="cL"><path d="M1444 110h110v108h-110z"/></clipPath><clipPath id="cM"><path d="M1555 110h110v108h-110z"/></clipPath><clipPath id="cN"><path d="M1666 110h110v108h-110z"/></clipPath><clipPath id="cO"><path d="M1777 110h110v108h-110z"/></clipPath><clipPath id="cQ"><path d="M1888 110h110v108h-110z"/></clipPath><clipPath id="cS"><path d="M1999 110h110v108h-110z"/></clipPath><clipPath id="cU"><path d="M2110 110h110v108h-110z"/></clipPath><clipPath id="cW"><path d="M2221 110h110v108h-110z"/></clipPath><clipPath id="cY"><path d="M2332 110h110v108h-110z"/></clipPath><clipPath id="da"><path d="M2443 110h110v108h-110z"/></clipPath><clipPath id="dc"><path d="M2554 110h110v108h-110z"/></clipPath><clipPath id="de"><path d="M2665 110h110v108h-110z"/></clipPath><clipPath id="dg"><path d="M2776 110h110v108h-110z"/></clipPath><clipPath id="di"><path d="M2887 110h110v108h-110z"/></clipPath><clipPath id="dk"><path d="M2998 110h110v108h-110z"/></clipPath><clipPath id="dm"><path d="M3109 110h110v108h-110z"/></clipPath><clipPath id="do"><path d="M3220 110h110v108h-110z"/></clipPath><clipPath id="dq"><path d="M3331 110h110v108h-110z"/></clipPath><clipPath id="ds"><path d="M3442 110h110v108h-110z"/></clipPath><clipPath id="dt"><path d="M3553 110h110v108h-110z"/></clipPath><clipPath id="du"><path d="M3664 110h110v108h-110z"/></clipPath><clipPath id="dw"><path d="M3775 110h110v108h-110z"/></clipPath><clipPath id="dx"><path d="M3886 110h110v108h-110z"/></clipPath><clipPath id="dy"><path d="M1 219h110v108H1z"/></clipPath><clipPath id="dz"><path d="M112 219h110v108H112z"/></clipPath><path id="a" fill="#fcd844" fill-opacity="0" d="m3-2.5.9 1.4.2.9L2 .1l1.9.7-.2.5-1.4.5 1 .7q0 1 .5 1.8Q-1.4 1.4-2.8.2l.8-.7-1.4-.3-.6-2v-1.5l5.4.9-1 1.7z" transform="translate(4 4.3)"/><path id="b" fill="#fcd844" fill-opacity=".1" d="m3-2.5.9 1.4.2.9L2 .1l1.9.7-.2.5-1.4.5 1 .7q0 1 .5 1.8Q-1.4 1.4-2.8.2l.8-.7-1.4-.3-.6-2v-1.5l5.4.9-1 1.7z" transform="translate(4 4.3)"/><path id="c" fill="#fcd844" fill-opacity=".1" d="m3-2.5.9 1.4.2.9L2 .1l1.9.7-.2.5-1.4.5 1 .7q0 1 .5 1.8Q-1.4 1.4-2.8.2l.8-.7-1.4-.3-.6-2v-1.5l5.4.9-1 1.7z" transform="translate(4 4.3)"/><path id="d" fill="#fcd844" fill-opacity=".2" d="m3-2.5.9 1.4.2.9L2 .1l1.9.7-.2.5-1.4.5 1 .7q0 1 .5 1.8Q-1.4 1.4-2.8.2l.8-.7-1.4-.3-.6-2v-1.5l5.4.9-1 1.7z" transform="translate(4 4.3)"/><path id="e" fill="#fcd844" fill-opacity=".2" d="m3-2.5.9 1.4.2.9L2 .1l1.9.7-.2.5-1.4.5 1 .7q0 1 .5 1.8Q-1.4 1.4-2.8.2l.8-.7-1.4-.3-.6-2v-1.5l5.4.9-1 1.7z" transform="translate(4 4.3)"/><path id="f" fill="#fcd844" fill-opacity=".2" d="m3-2.5.9 1.4.2.9L2 .1l1.9.7-.2.5-1.4.5 1 .7q0 1 .5 1.8Q-1.4 1.4-2.8.2l.8-.7-1.4-.3-.6-2v-1.5l5.4.9-1 1.7z" transform="translate(4 4.3)"/><path id="g" fill="#fcd844" fill-opacity=".3" d="m3-2.5.9 1.4.2.9L2 .1l1.9.7-.2.5-1.4.5 1 .7q0 1 .5 1.8Q-1.4 1.4-2.8.2l.8-.7-1.4-.3-.6-2v-1.5l5.4.9-1 1.7z" transform="translate(4 4.3)"/><path id="h" fill="#fcd844" fill-opacity=".3" d="m3-2.5.9 1.4.2.9L2 .1l1.9.7-.2.5-1.4.5 1 .7q0 1 .5 1.8Q-1.4 1.4-2.8.2l.8-.7-1.4-.3-.6-2v-1.5l5.4.9-1 1.7z" transform="translate(4 4.3)"/><path id="i" fill="#fcd844" fill-opacity=".4" d="m3-2.5.9 1.4.2.9L2 .1l1.9.7-.2.5-1.4.5 1 .7q0 1 .5 1.8Q-1.4 1.4-2.8.2l.8-.7-1.4-.3-.6-2v-1.5l5.4.9-1 1.7z" transform="translate(4 4.3)"/><path id="j" fill="#fcd844" fill-opacity=".5" d="m3-2.5.9 1.4.2.9L2 .1l1.9.7-.2.5-1.4.5 1 .7q0 1 .5 1.8Q-1.4 1.4-2.8.2l.8-.7-1.4-.3-.6-2v-1.5l5.4.9-1 1.7z" transform="translate(4 4.3)"/><path id="k" fill="#fcd844" fill-opacity=".6" d="m3-2.5.9 1.4.2.9L2 .1l1.9.7-.2.5-1.4.5 1 .7q0 1 .5 1.8Q-1.4 1.4-2.8.2l.8-.7-1.4-.3-.6-2v-1.5l5.4.9-1 1.7z" transform="translate(4 4.3)"/><path id="l" fill="#fcd844" fill-opacity=".7" d="m3-2.5.9 1.4.2.9L2 .1l1.9.7-.2.5-1.4.5 1 .7q0 1 .5 1.8Q-1.4 1.4-2.8.2l.8-.7-1.4-.3-.6-2v-1.5l5.4.9-1 1.7z" transform="translate(4 4.3)"/><path id="m" fill="#fcd844" fill-opacity=".7" d="m3-2.5.9 1.4.2.9L2 .1l1.9.7-.2.5-1.4.5 1 .7q0 1 .5 1.8Q-1.4 1.4-2.8.2l.8-.7-1.4-.3-.6-2v-1.5l5.4.9-1 1.7z" transform="translate(4 4.3)"/><path id="n" fill="#fcd844" fill-opacity=".8" d="m3-2.5.9 1.4.2.9L2 .1l1.9.7-.2.5-1.4.5 1 .7q0 1 .5 1.8Q-1.4 1.4-2.8.2l.8-.7-1.4-.3-.6-2v-1.5l5.4.9-1 1.7z" transform="translate(4 4.3)"/><path id="o" fill="#fcd844" fill-opacity=".9" d="m3-2.5.9 1.4.2.9L2 .1l1.9.7-.2.5-1.4.5 1 .7q0 1 .5 1.8Q-1.4 1.4-2.8.2l.8-.7-1.4-.3-.6-2v-1.5l5.4.9-1 1.7z" transform="translate(4 4.3)"/><path id="p" fill="#fcd844" fill-opacity=".9" d="m3-2.5.9 1.4.2.9L2 .1l1.9.7-.2.5-1.4.5 1 .7q0 1 .5 1.8Q-1.4 1.4-2.8.2l.8-.7-1.4-.3-.6-2v-1.5l5.4.9-1 1.7z" transform="translate(4 4.3)"/><path id="r" fill="#fcd844" d="m3-2.5.9 1.4.2.9L2 .1l1.9.7-.2.5-1.4.5 1 .7q0 1 .5 1.8Q-1.4 1.4-2.8.2l.8-.7-1.4-.3-.6-2v-1.5l5.4.9-1 1.7z" transform="translate(4 4.3)"/><path id="s" fill="#fcdb53" d="m3-2.5.9 1.4.2.9L2 .1l1.9.7-.2.5-1.4.5 1 .7q0 1 .5 1.8Q-1.4 1.4-2.8.2l.8-.7-1.4-.3-.6-2v-1.5l5.4.9-1 1.7z" transform="translate(4 4.3)"/><path id="t" fill="#fcde63" d="m3-2.5.9 1.4.2.9L2 .1l1.9.7-.2.5-1.4.5 1 .7q0 1 .5 1.8Q-1.4 1.4-2.8.2l.8-.7-1.4-.3-.6-2v-1.5l5.4.9-1 1.7z" transform="translate(4 4.3)"/><path id="u" fill="#fde273" d="m3-2.5.9 1.4.2.9L2 .1l1.9.7-.2.5-1.4.5 1 .7q0 1 .5 1.8Q-1.4 1.4-2.8.2l.8-.7-1.4-.3-.6-2v-1.5l5.4.9-1 1.7z" transform="translate(4 4.3)"/><path id="v" fill="#fde582" d="m3-2.5.9 1.4.2.9L2 .1l1.9.7-.2.5-1.4.5 1 .7q0 1 .5 1.8Q-1.4 1.4-2.8.2l.8-.7-1.4-.3-.6-2v-1.5l5.4.9-1 1.7z" transform="translate(4 4.3)"/><path id="w" fill="#fce791" d="m3-2.5.9 1.4.2.9L2 .1l1.9.7-.2.5-1.4.5 1 .7q0 1 .5 1.8Q-1.4 1.4-2.8.2l.8-.7-1.4-.3-.6-2v-1.5l5.4.9-1 1.7z" transform="translate(4 4.3)"/><path id="x" fill="#feeca2" d="m3-2.5.9 1.4.2.9L2 .1l1.9.7-.2.5-1.4.5 1 .7q0 1 .5 1.8Q-1.4 1.4-2.8.2l.8-.7-1.4-.3-.6-2v-1.5l5.4.9-1 1.7z" transform="translate(4 4.3)"/><path id="y" fill="#feefb1" d="m3-2.5.9 1.4.2.9L2 .1l1.9.7-.2.5-1.4.5 1 .7q0 1 .5 1.8Q-1.4 1.4-2.8.2l.8-.7-1.4-.3-.6-2v-1.5l5.4.9-1 1.7z" transform="translate(4 4.3)"/><path id="z" fill="#fdf1c0" d="m3-2.5.9 1.4.2.9L2 .1l1.9.7-.2.5-1.4.5 1 .7q0 1 .5 1.8Q-1.4 1.4-2.8.2l.8-.7-1.4-.3-.6-2v-1.5l5.4.9-1 1.7z" transform="translate(4 4.3)"/><path id="A" fill="#fef5d0" d="m3-2.5.9 1.4.2.9L2 .1l1.9.7-.2.5-1.4.5 1 .7q0 1 .5 1.8Q-1.4 1.4-2.8.2l.8-.7-1.4-.3-.6-2v-1.5l5.4.9-1 1.7z" transform="translate(4 4.3)"/><path id="B" fill="#fef8df" d="m3-2.5.9 1.4.2.9L2 .1l1.9.7-.2.5-1.4.5 1 .7q0 1 .5 1.8Q-1.4 1.4-2.8.2l.8-.7-1.4-.3-.6-2v-1.5l5.4.9-1 1.7z" transform="translate(4 4.3)"/><path id="C" fill="#fefbef" d="m3-2.5.9 1.4.2.9L2 .1l1.9.7-.2.5-1.4.5 1 .7q0 1 .5 1.8Q-1.4 1.4-2.8.2l.8-.7-1.4-.3-.6-2v-1.5l5.4.9-1 1.7z" transform="translate(4 4.3)"/><path id="D" fill="#fff" d="m3-2.5.9 1.4.2.9L2 .1l1.9.7-.2.5-1.4.5 1 .7q0 1 .5 1.8Q-1.4 1.4-2.8.2l.8-.7-1.4-.3-.6-2v-1.5l5.4.9-1 1.7z" transform="translate(4 4.3)"/><path id="I" fill="none" stroke="#52432f" stroke-linecap="round" stroke-linejoin="round" stroke-opacity="0" stroke-width="__RESOLUTION__" d="m8 4.1-.1-1-1-1.3M5.5.9 0 0v1.6l.6 1.9m.6 1q1.4 1.2 6.6 4.1-.5-.8-.5-1.8m.4-1.2.1-.5M7 1.8l-2.5.7 1-1.6M.6 3.5l1.3.3-.7.7m6.1 2.3-1-.7 1.3-.5m.2-.5L6 4.4l2-.3" vector-effect="non-scaling-stroke"/><path id="K" fill="none" stroke="#52432f" stroke-linecap="round" stroke-linejoin="round" stroke-opacity="0" stroke-width="__RESOLUTION__" d="m8 4.1-.1-1-1-1.3M5.5.9 0 0v1.6l.6 1.9m.6 1q1.4 1.2 6.6 4.1-.5-.8-.5-1.8m.4-1.2.1-.5M7 1.8l-2.5.7 1-1.6M.6 3.5l1.3.3-.7.7m6.1 2.3-1-.7 1.3-.5m.2-.5L6 4.4l2-.3" vector-effect="non-scaling-stroke"/><path id="M" fill="none" stroke="#52432f" stroke-linecap="round" stroke-linejoin="round" stroke-opacity="0" stroke-width="__RESOLUTION__" d="m8 4.1-.1-1-1-1.3M5.5.9 0 0v1.6l.6 1.9m.6 1q1.4 1.2 6.6 4.1-.5-.8-.5-1.8m.4-1.2.1-.5M7 1.8l-2.5.7 1-1.6M.6 3.5l1.3.3-.7.7m6.1 2.3-1-.7 1.3-.5m.2-.5L6 4.4l2-.3" vector-effect="non-scaling-stroke"/><path id="O" fill="none" stroke="#52432f" stroke-linecap="round" stroke-linejoin="round" stroke-opacity="0" stroke-width="__RESOLUTION__" d="m8 4.1-.1-1-1-1.3M5.5.9 0 0v1.6l.6 1.9m.6 1q1.4 1.2 6.6 4.1-.5-.8-.5-1.8m.4-1.2.1-.5M7 1.8l-2.5.7 1-1.6M.6 3.5l1.3.3-.7.7m6.1 2.3-1-.7 1.3-.5m.2-.5L6 4.4l2-.3" vector-effect="non-scaling-stroke"/><path id="Q" fill="none" stroke="#52432f" stroke-linecap="round" stroke-linejoin="round" stroke-opacity=".1" stroke-width="__RESOLUTION__" d="m8 4.1-.1-1-1-1.3M5.5.9 0 0v1.6l.6 1.9m.6 1q1.4 1.2 6.6 4.1-.5-.8-.5-1.8m.4-1.2.1-.5M7 1.8l-2.5.7 1-1.6M.6 3.5l1.3.3-.7.7m6.1 2.3-1-.7 1.3-.5m.2-.5L6 4.4l2-.3" vector-effect="non-scaling-stroke"/><path id="S" fill="none" stroke="#52432f" stroke-linecap="round" stroke-linejoin="round" stroke-opacity=".1" stroke-width="__RESOLUTION__" d="m8 4.1-.1-1-1-1.3M5.5.9 0 0v1.6l.6 1.9m.6 1q1.4 1.2 6.6 4.1-.5-.8-.5-1.8m.4-1.2.1-.5M7 1.8l-2.5.7 1-1.6M.6 3.5l1.3.3-.7.7m6.1 2.3-1-.7 1.3-.5m.2-.5L6 4.4l2-.3" vector-effect="non-scaling-stroke"/><path id="U" fill="none" stroke="#52432f" stroke-linecap="round" stroke-linejoin="round" stroke-opacity=".1" stroke-width="__RESOLUTION__" d="m8 4.1-.1-1-1-1.3M5.5.9 0 0v1.6l.6 1.9m.6 1q1.4 1.2 6.6 4.1-.5-.8-.5-1.8m.4-1.2.1-.5M7 1.8l-2.5.7 1-1.6M.6 3.5l1.3.3-.7.7m6.1 2.3-1-.7 1.3-.5m.2-.5L6 4.4l2-.3" vector-effect="non-scaling-stroke"/><path id="W" fill="none" stroke="#52432f" stroke-linecap="round" stroke-linejoin="round" stroke-opacity=".1" stroke-width="__RESOLUTION__" d="m8 4.1-.1-1-1-1.3M5.5.9 0 0v1.6l.6 1.9m.6 1q1.4 1.2 6.6 4.1-.5-.8-.5-1.8m.4-1.2.1-.5M7 1.8l-2.5.7 1-1.6M.6 3.5l1.3.3-.7.7m6.1 2.3-1-.7 1.3-.5m.2-.5L6 4.4l2-.3" vector-effect="non-scaling-stroke"/><path id="Y" fill="none" stroke="#52432f" stroke-linecap="round" stroke-linejoin="round" stroke-opacity=".1" stroke-width="__RESOLUTION__" d="m8 4.1-.1-1-1-1.3M5.5.9 0 0v1.6l.6 1.9m.6 1q1.4 1.2 6.6 4.1-.5-.8-.5-1.8m.4-1.2.1-.5M7 1.8l-2.5.7 1-1.6M.6 3.5l1.3.3-.7.7m6.1 2.3-1-.7 1.3-.5m.2-.5L6 4.4l2-.3" vector-effect="non-scaling-stroke"/><path id="aa" fill="none" stroke="#52432f" stroke-linecap="round" stroke-linejoin="round" stroke-opacity=".1" stroke-width="__RESOLUTION__" d="m8 4.1-.1-1-1-1.3M5.5.9 0 0v1.6l.6 1.9m.6 1q1.4 1.2 6.6 4.1-.5-.8-.5-1.8m.4-1.2.1-.5M7 1.8l-2.5.7 1-1.6M.6 3.5l1.3.3-.7.7m6.1 2.3-1-.7 1.3-.5m.2-.5L6 4.4l2-.3" vector-effect="non-scaling-stroke"/><path id="ac" fill="none" stroke="#52432f" stroke-linecap="round" stroke-linejoin="round" stroke-opacity=".2" stroke-width="__RESOLUTION__" d="m8 4.1-.1-1-1-1.3M5.5.9 0 0v1.6l.6 1.9m.6 1q1.4 1.2 6.6 4.1-.5-.8-.5-1.8m.4-1.2.1-.5M7 1.8l-2.5.7 1-1.6M.6 3.5l1.3.3-.7.7m6.1 2.3-1-.7 1.3-.5m.2-.5L6 4.4l2-.3" vector-effect="non-scaling-stroke"/><path id="ae" fill="none" stroke="#52432f" stroke-linecap="round" stroke-linejoin="round" stroke-opacity=".2" stroke-width="__RESOLUTION__" d="m8 4.1-.1-1-1-1.3M5.5.9 0 0v1.6l.6 1.9m.6 1q1.4 1.2 6.6 4.1-.5-.8-.5-1.8m.4-1.2.1-.5M7 1.8l-2.5.7 1-1.6M.6 3.5l1.3.3-.7.7m6.1 2.3-1-.7 1.3-.5m.2-.5L6 4.4l2-.3" vector-effect="non-scaling-stroke"/><path id="ag" fill="none" stroke="#52432f" stroke-linecap="round" stroke-linejoin="round" stroke-opacity=".2" stroke-width="__RESOLUTION__" d="m8 4.1-.1-1-1-1.3M5.5.9 0 0v1.6l.6 1.9m.6 1q1.4 1.2 6.6 4.1-.5-.8-.5-1.8m.4-1.2.1-.5M7 1.8l-2.5.7 1-1.6M.6 3.5l1.3.3-.7.7m6.1 2.3-1-.7 1.3-.5m.2-.5L6 4.4l2-.3" vector-effect="non-scaling-stroke"/><path id="ai" fill="none" stroke="#52432f" stroke-linecap="round" stroke-linejoin="round" stroke-opacity=".2" stroke-width="__RESOLUTION__" d="m8 4.1-.1-1-1-1.3M5.5.9 0 0v1.6l.6 1.9m.6 1q1.4 1.2 6.6 4.1-.5-.8-.5-1.8m.4-1.2.1-.5M7 1.8l-2.5.7 1-1.6M.6 3.5l1.3.3-.7.7m6.1 2.3-1-.7 1.3-.5m.2-.5L6 4.4l2-.3" vector-effect="non-scaling-stroke"/><path id="ak" fill="none" stroke="#52432f" stroke-linecap="round" stroke-linejoin="round" stroke-opacity=".3" stroke-width="__RESOLUTION__" d="m8 4.1-.1-1-1-1.3M5.5.9 0 0v1.6l.6 1.9m.6 1q1.4 1.2 6.6 4.1-.5-.8-.5-1.8m.4-1.2.1-.5M7 1.8l-2.5.7 1-1.6M.6 3.5l1.3.3-.7.7m6.1 2.3-1-.7 1.3-.5m.2-.5L6 4.4l2-.3" vector-effect="non-scaling-stroke"/><path id="an" fill="none" stroke="#52432f" stroke-linecap="round" stroke-linejoin="round" stroke-opacity=".3" stroke-width="__RESOLUTION__" d="m8 4.1-.1-1-1-1.3M5.5.9 0 0v1.6l.6 1.9m.6 1q1.4 1.2 6.6 4.1-.5-.8-.5-1.8m.4-1.2.1-.5M7 1.8l-2.5.7 1-1.6M.6 3.5l1.3.3-.7.7m6.1 2.3-1-.7 1.3-.5m.2-.5L6 4.4l2-.3" vector-effect="non-scaling-stroke"/><path id="ap" fill="none" stroke="#52432f" stroke-linecap="round" stroke-linejoin="round" stroke-opacity=".3" stroke-width="__RESOLUTION__" d="m8 4.1-.1-1-1-1.3M5.5.9 0 0v1.6l.6 1.9m.6 1q1.4 1.2 6.6 4.1-.5-.8-.5-1.8m.4-1.2.1-.5M7 1.8l-2.5.7 1-1.6M.6 3.5l1.3.3-.7.7m6.1 2.3-1-.7 1.3-.5m.2-.5L6 4.4l2-.3" vector-effect="non-scaling-stroke"/><path id="ar" fill="none" stroke="#605240" stroke-linecap="round" stroke-linejoin="round" stroke-opacity=".3" stroke-width="__RESOLUTION__" d="m8 4.1-.1-1-1-1.3M5.5.9 0 0v1.6l.6 1.9m.6 1q1.4 1.2 6.6 4.1-.5-.8-.5-1.8m.4-1.2.1-.5M7 1.8l-2.5.7 1-1.6M.6 3.5l1.3.3-.7.7m6.1 2.3-1-.7 1.3-.5m.2-.5L6 4.4l2-.3" vector-effect="non-scaling-stroke"/><path id="at" fill="none" stroke="#6f6252" stroke-linecap="round" stroke-linejoin="round" stroke-opacity=".3" stroke-width="__RESOLUTION__" d="m8 4.1-.1-1-1-1.3M5.5.9 0 0v1.6l.6 1.9m.6 1q1.4 1.2 6.6 4.1-.5-.8-.5-1.8m.4-1.2.1-.5M7 1.8l-2.5.7 1-1.6M.6 3.5l1.3.3-.7.7m6.1 2.3-1-.7 1.3-.5m.2-.5L6 4.4l2-.3" vector-effect="non-scaling-stroke"/><path id="av" fill="none" stroke="#7d7263" stroke-linecap="round" stroke-linejoin="round" stroke-opacity=".3" stroke-width="__RESOLUTION__" d="m8 4.1-.1-1-1-1.3M5.5.9 0 0v1.6l.6 1.9m.6 1q1.4 1.2 6.6 4.1-.5-.8-.5-1.8m.4-1.2.1-.5M7 1.8l-2.5.7 1-1.6M.6 3.5l1.3.3-.7.7m6.1 2.3-1-.7 1.3-.5m.2-.5L6 4.4l2-.3" vector-effect="non-scaling-stroke"/><path id="ax" fill="none" stroke="#8b8174" stroke-linecap="round" stroke-linejoin="round" stroke-opacity=".3" stroke-width="__RESOLUTION__" d="m8 4.1-.1-1-1-1.3M5.5.9 0 0v1.6l.6 1.9m.6 1q1.4 1.2 6.6 4.1-.5-.8-.5-1.8m.4-1.2.1-.5M7 1.8l-2.5.7 1-1.6M.6 3.5l1.3.3-.7.7m6.1 2.3-1-.7 1.3-.5m.2-.5L6 4.4l2-.3" vector-effect="non-scaling-stroke"/><path id="az" fill="none" stroke="#999085" stroke-linecap="round" stroke-linejoin="round" stroke-opacity=".3" stroke-width="__RESOLUTION__" d="m8 4.1-.1-1-1-1.3M5.5.9 0 0v1.6l.6 1.9m.6 1q1.4 1.2 6.6 4.1-.5-.8-.5-1.8m.4-1.2.1-.5M7 1.8l-2.5.7 1-1.6M.6 3.5l1.3.3-.7.7m6.1 2.3-1-.7 1.3-.5m.2-.5L6 4.4l2-.3" vector-effect="non-scaling-stroke"/><path id="aB" fill="none" stroke="#a9a197" stroke-linecap="round" stroke-linejoin="round" stroke-opacity=".3" stroke-width="__RESOLUTION__" d="m8 4.1-.1-1-1-1.3M5.5.9 0 0v1.6l.6 1.9m.6 1q1.4 1.2 6.6 4.1-.5-.8-.5-1.8m.4-1.2.1-.5M7 1.8l-2.5.7 1-1.6M.6 3.5l1.3.3-.7.7m6.1 2.3-1-.7 1.3-.5m.2-.5L6 4.4l2-.3" vector-effect="non-scaling-stroke"/><path id="aD" fill="none" stroke="#b7b1a8" stroke-linecap="round" stroke-linejoin="round" stroke-opacity=".3" stroke-width="__RESOLUTION__" d="m8 4.1-.1-1-1-1.3M5.5.9 0 0v1.6l.6 1.9m.6 1q1.4 1.2 6.6 4.1-.5-.8-.5-1.8m.4-1.2.1-.5M7 1.8l-2.5.7 1-1.6M.6 3.5l1.3.3-.7.7m6.1 2.3-1-.7 1.3-.5m.2-.5L6 4.4l2-.3" vector-effect="non-scaling-stroke"/><path id="aF" fill="none" stroke="#c5c0b9" stroke-linecap="round" stroke-linejoin="round" stroke-opacity=".3" stroke-width="__RESOLUTION__" d="m8 4.1-.1-1-1-1.3M5.5.9 0 0v1.6l.6 1.9m.6 1q1.4 1.2 6.6 4.1-.5-.8-.5-1.8m.4-1.2.1-.5M7 1.8l-2.5.7 1-1.6M.6 3.5l1.3.3-.7.7m6.1 2.3-1-.7 1.3-.5m.2-.5L6 4.4l2-.3" vector-effect="non-scaling-stroke"/><path id="aH" fill="none" stroke="#d3cfca" stroke-linecap="round" stroke-linejoin="round" stroke-opacity=".3" stroke-width="__RESOLUTION__" d="m8 4.1-.1-1-1-1.3M5.5.9 0 0v1.6l.6 1.9m.6 1q1.4 1.2 6.6 4.1-.5-.8-.5-1.8m.4-1.2.1-.5M7 1.8l-2.5.7 1-1.6M.6 3.5l1.3.3-.7.7m6.1 2.3-1-.7 1.3-.5m.2-.5L6 4.4l2-.3" vector-effect="non-scaling-stroke"/><path id="aJ" fill="none" stroke="#e1dfdb" stroke-linecap="round" stroke-linejoin="round" stroke-opacity=".3" stroke-width="__RESOLUTION__" d="m8 4.1-.1-1-1-1.3M5.5.9 0 0v1.6l.6 1.9m.6 1q1.4 1.2 6.6 4.1-.5-.8-.5-1.8m.4-1.2.1-.5M7 1.8l-2.5.7 1-1.6M.6 3.5l1.3.3-.7.7m6.1 2.3-1-.7 1.3-.5m.2-.5L6 4.4l2-.3" vector-effect="non-scaling-stroke"/><path id="aL" fill="none" stroke="#f0efed" stroke-linecap="round" stroke-linejoin="round" stroke-opacity=".3" stroke-width="__RESOLUTION__" d="m8 4.1-.1-1-1-1.3M5.5.9 0 0v1.6l.6 1.9m.6 1q1.4 1.2 6.6 4.1-.5-.8-.5-1.8m.4-1.2.1-.5M7 1.8l-2.5.7 1-1.6M.6 3.5l1.3.3-.7.7m6.1 2.3-1-.7 1.3-.5m.2-.5L6 4.4l2-.3" vector-effect="non-scaling-stroke"/><path id="aP" fill="none" stroke="#fff" stroke-linecap="round" stroke-linejoin="round" stroke-opacity=".3" stroke-width="__RESOLUTION__" d="m8 4.1-.1-1-1-1.3M5.5.9 0 0v1.6l.6 1.9m.6 1q1.4 1.2 6.6 4.1-.5-.8-.5-1.8m.4-1.2.1-.5M7 1.8l-2.5.7 1-1.6M.6 3.5l1.3.3-.7.7m6.1 2.3-1-.7 1.3-.5m.2-.5L6 4.4l2-.3" vector-effect="non-scaling-stroke"/><path id="aR" fill="#f40bae" fill-opacity=".3" d="M4.7-2q1.9.9 2 2-.1 1.2-2 2-2 .8-4.7.8T-4.6 2t-2-2 2-2T0-2.6q2.8-.1 4.7.8" transform="translate(6.6 2.75)"/><path id="bo" fill="#a32525" fill-opacity=".2" d="M20.8-51.3Q29.2-43 29.2-31t-8.4 20.5T.3-1.9t-20.5-8.5-8.4-20.4q0-12.1 8.4-20.5T.3-59.8t20.5 8.5" transform="translate(28.65 59.8)"/><path id="bm" fill="#a32525" fill-opacity=".3" d="M-23.4-30.2q0 10 7 17.1T.8-6 18-13.1t7-17.1-7-17.2T.7-54.5t-17.1 7-7.1 17.3" transform="translate(23.45 54.55)"/><path id="bk" fill="#a32525" fill-opacity=".5" d="M-18.2-29.7q0 8.2 5.6 13.9 5.8 5.7 13.9 5.7t13.9-5.7 5.7-13.9-5.7-13.8q-5.7-5.8-13.9-5.8t-13.8 5.8-5.7 13.8" transform="translate(18.25 49.3)"/><path id="bi" fill="#a32525" fill-opacity=".6" d="M-13.1-29.1q0 6.2 4.4 10.6t10.5 4.3 10.6-4.3q4.4-4.4 4.4-10.6t-4.4-10.6T2-44.1t-10.6 4.4-4.4 10.6" transform="translate(13.1 44.1)"/><path id="bb" fill="none" stroke="#fff" stroke-linecap="round" stroke-linejoin="round" stroke-width="__RESOLUTION__" d="m11.4-39.9 3.7-3.7m7.8 35.2 7.7 4m-50.5-35.2 3.8 2m-12.5-6.5 5.7 3m10-9 3 6.5" transform="translate(28.65 50.15)" vector-effect="non-scaling-stroke"/><path id="aX" fill="none" stroke="#fff" stroke-linecap="round" stroke-linejoin="round" stroke-width="__RESOLUTION__" d="m73 39.8 11-11M82.5 84l26.8 14M0 31.5 20.3 42m-.6-42 17.8 38" vector-effect="non-scaling-stroke"/><use xlink:href="#a" id="H" width="8.1" height="8.6"/><use xlink:href="#b" id="J" width="8.1" height="8.6"/><use xlink:href="#c" id="L" width="8.1" height="8.6"/><use xlink:href="#d" id="N" width="8.1" height="8.6"/><use xlink:href="#e" id="P" width="8.1" height="8.6"/><use xlink:href="#f" id="R" width="8.1" height="8.6"/><use xlink:href="#g" id="T" width="8.1" height="8.6"/><use xlink:href="#h" id="V" width="8.1" height="8.6"/><use xlink:href="#i" id="X" width="8.1" height="8.6"/><use xlink:href="#j" id="Z" width="8.1" height="8.6"/><use xlink:href="#k" id="ab" width="8.1" height="8.6"/><use xlink:href="#l" id="ad" width="8.1" height="8.6"/><use xlink:href="#m" id="af" width="8.1" height="8.6"/><use xlink:href="#n" id="ah" width="8.1" height="8.6"/><use xlink:href="#o" id="aj" width="8.1" height="8.6"/><use xlink:href="#p" id="am" width="8.1" height="8.6"/><use xlink:href="#q" id="E" width="4.5" height="3.9"/><use xlink:href="#r" id="ao" width="8.1" height="8.6"/><use xlink:href="#s" id="aq" width="8.1" height="8.6"/><use xlink:href="#t" id="as" width="8.1" height="8.6"/><use xlink:href="#u" id="au" width="8.1" height="8.6"/><use xlink:href="#v" id="aw" width="8.1" height="8.6"/><use xlink:href="#w" id="ay" width="8.1" height="8.6"/><use xlink:href="#x" id="aA" width="8.1" height="8.6"/><use xlink:href="#y" id="aC" width="8.1" height="8.6"/><use xlink:href="#z" id="aE" width="8.1" height="8.6"/><use xlink:href="#A" id="aG" width="8.1" height="8.6"/><use xlink:href="#B" id="aI" width="8.1" height="8.6"/><use xlink:href="#C" id="aK" width="8.1" height="8.6"/><use xlink:href="#D" id="aM" width="8.1" height="8.6"/><use xlink:href="#E" id="cy" width="4.5" height="3.9" transform="matrix(-.8063 -.2849 .4896 -.864 13.55 23.95)"/><use xlink:href="#E" id="cw" width="4.5" height="3.9" transform="matrix(-.8679 -.2411 .3763 -.9182 13.5 23.1)"/><use xlink:href="#E" id="cu" width="4.5" height="3.9" transform="matrix(-.9281 -.1896 .2573 -.9591 13.6 22.25)"/><use xlink:href="#E" id="cs" width="4.5" height="3.9" transform="rotate(187.75 7.47 10.19)scale(.9942)"/><use xlink:href="#E" id="cq" width="4.5" height="3.9" transform="rotate(179.72 6.67 10.79)scale(.9946)"/><use xlink:href="#E" id="co" width="4.5" height="3.9" transform="rotate(171.69 5.86 11.31)scale(.9945)"/><use xlink:href="#E" id="cm" width="4.5" height="3.9" transform="rotate(163.42 4.94 11.83)scale(.9955)"/><use xlink:href="#E" id="ck" width="4.5" height="3.9" transform="rotate(150.66 3.73 11.45)scale(.9946)"/><use xlink:href="#E" id="ci" width="4.5" height="3.9" transform="rotate(137.65 2.67 11.01)scale(.9949)"/><use xlink:href="#E" id="cg" width="4.5" height="3.9" transform="rotate(124.83 1.78 10.48)scale(.997)"/><use xlink:href="#E" id="ce" width="4.5" height="3.9" transform="rotate(111.56 .343 10.95)scale(.996)"/><use xlink:href="#E" id="cc" width="4.5" height="3.9" transform="rotate(98.3 -1.31 11.37)scale(.9967)"/><use xlink:href="#E" id="ca" width="4.5" height="3.9" transform="rotate(85.24 -3.34 11.8)scale(.9971)"/><use xlink:href="#E" id="bX" width="4.5" height="3.9" transform="rotate(72.18 -5.84 12.24)scale(.9965)"/><use xlink:href="#E" id="bU" width="4.5" height="3.9" transform="rotate(58.91 -9.28 12.83)scale(.9961)"/><use xlink:href="#E" id="bR" width="4.5" height="3.9" transform="rotate(45.62 -14.44 13.42)scale(.9976)"/><use xlink:href="#E" id="bO" width="4.5" height="3.9" transform="rotate(38.11 -16.93 13.14)scale(.996)"/><use xlink:href="#E" id="bL" width="4.5" height="3.9" transform="rotate(30.61 -20.43 12.56)scale(.997)"/><use xlink:href="#E" id="bI" width="4.5" height="3.9" transform="rotate(23.3 -25.48 11.95)scale(.9988)"/><use xlink:href="#E" id="bF" width="4.5" height="3.9" transform="matrix(.9418 .33 -.33 .9418 2.15 11.7)"/><use xlink:href="#E" id="bC" width="4.5" height="3.9" transform="rotate(15.52 -44.24 12.57)scale(.9983)"/><use xlink:href="#E" id="bz" width="4.5" height="3.9" transform="matrix(.9786 .1999 -.1999 .9786 1.3 13)"/><use xlink:href="#E" id="bw" width="4.5" height="3.9" transform="matrix(.99 .1349 -.1349 .99 .85 13.65)"/><use xlink:href="#E" id="bt" width="4.5" height="3.9" transform="matrix(.9974 .066 -.066 .9974 .45 14.3)"/><use xlink:href="#E" id="bq" width="4.5" height="3.9" transform="translate(0 15)"/><use xlink:href="#F" id="aV" width="8.1" height="4.3"/><use xlink:href="#G" id="aU" width="3.3" height="2.1"/><g id="q"><path fill="#f4ab84" d="m.5.5 1.6 1.3-.8 1.9L0 2.5z"/><path fill="#c4817d" d="M2 1.9.5.5 1.8 0l2.4.7.3 1.5z"/><path fill="#ea5e5e" d="m1.3 3.7.8-1.8 2.4.3-.3 1.7z"/></g><g id="F"><path fill="#fcd844" d="M0 3.7q.2-1.5 1.6-2.4Q3.4-.2 5.9 0q1 .1 1.5.7-1 1.6-1.8 1.8h1.1q-1 1-6.6 1.1"/><path fill="#e0a114" d="M7.4.8q.5.5.7 1.3-1.2 2.1-3.7 2.2L.3 4.2l-.2-.5q5.6-.1 6.6-1.1H5.5q.8-.2 1.9-1.8"/><path fill="none" stroke="#000" stroke-linecap="round" stroke-linejoin="round" stroke-opacity=".3" stroke-width="__RESOLUTION__" d="M0 3.7q.2-1.5 1.6-2.4Q3.4-.2 5.9 0q1 .1 1.5.7T8.1 2Q6.9 4.3 4.4 4.4L.3 4.2z" vector-effect="non-scaling-stroke"/></g><g id="G"><path fill="#9a530c" d="M1.4 0h.4q.6.2 1.1.6t.4.9-.5.5H1.6q.8-.8-.3-2.1"/><path fill="#b6620e" d="M1.6 2.1h-.4L.3 2l-.1-.1L0 1Q0 .6.6.2l.8-.2q1 1.3.2 2.1"/><path fill="none" stroke="#000" stroke-linecap="round" stroke-linejoin="round" stroke-opacity=".3" stroke-width="__RESOLUTION__" d="M1.4 0h.4q.6.2 1.1.6t.4.9-.5.5H1.6m0 .1h-.4L.3 2l-.1-.1L0 1Q0 .6.6.2l.8-.2" vector-effect="non-scaling-stroke"/></g><g id="aS"><path fill="#300" d="M2.4 1.5v.1l.3.6.1.6v.6l-.7.2-.6-.3-.3-.8v-.4l.3-.4.6-.3z"/><path fill="#ccc" d="M2.4 1.5 2 1.3l-.6.4-.2.3q-.9 0-1.1.6l-.1-1v-.4Q.4.3.9.2q.5-.3 1 .3l.5.8z"/><path fill="#f2f4f7" d="m1.3 2.1-.1.4.3.8.6.4.7-.4-.1.5-.5.7-1-.1v-.1l-.8-1-.3-.6Q.5 2 1.3 2"/><path fill="none" stroke="#000" stroke-linecap="round" stroke-linejoin="round" stroke-opacity=".4" stroke-width="__RESOLUTION__" d="M.1 1.6v-.4Q.4.3.9.2q.5-.3 1 .3l.5.8" vector-effect="non-scaling-stroke"/><path fill="#fff5df" d="M1.2 2.2 1 2v-.4l.3-.1.3.1.1.4-.2.2-.2.2z"/><path fill="#ccc" d="m7.8 1.4.7-.5q1-.6 2.1-.3 1 .2 1.4 1.2l.1.3v1.4q-.8-.6-2.5-.7l-.5-1q-.5-.4-1.3-.4"/><path fill="#f2f4f7" d="m12 3.5-.3.7q-.8.8-2 1.1-1.3.5-2.2 0l-1-.7v-.1l-.2-.7.3.4q.5.5 1.2.5.8 0 1.3-.5T9.6 3v-.3q1.7 0 2.5.7"/><path fill="#300" d="M6.3 3.8v-.4l.3-.7.5-.6.2-.3.5-.5q.8 0 1.3.5l.5 1V3q0 .7-.5 1.1t-1.3.5-1.2-.5z"/><path fill="none" stroke="#000" stroke-linecap="round" stroke-linejoin="round" stroke-opacity=".3" stroke-width="__RESOLUTION__" d="m7.8 1.4.7-.5q1-.6 2.1-.3 1 .2 1.4 1.2l.1.3v.2m-4.8-.5.5-.4" vector-effect="non-scaling-stroke"/><path fill="#fff5df" d="m6.8 2.8-.1-.2.1-.4.4-.2.2.2.2.3-.2.3-.3.2z"/></g><g id="aQ"><path fill="#e0a114" d="m11.9.9 1.7-.9-2.1 1.9-.3.5-1.1 2v.3Q9.5 6 9.6 7.5 10 6 11.1 5.4l.4-.2.8-.1 2.6.4q-1.7 0-2.4.9-.5.6-.5 1.8v.1l1.3.5 1.7 1.3.3.2q1.5 1.5 2 2.5T18 17l-.3 1.5q-.5 1.9-2.2 3.3l-3.3 1.7h-.1l-2.3.6-.9.2-4 .5-.7-.6q4-1 5-2l1.8-.8q1-.7 1.5-1.9l1-2.7v-.2l.2 1 .5 2.4.1-1.2q0-4.2-4.1-7.3l.1.4q.6 1.5.6 2.6-1.7-2.3-2.2-4.3l-.3-.4-.1-.6-.7 1.4V9.4l.6-3.1.6-1.3.1-.3.3-.4q1-1.7 2.7-3.4m-2 7.4-.2-.8zm2.2.8-.1-.8z"/><path fill="#fcd844" d="m4.3 24.2-.1-.1-.3-.8-.7-.4-1-.8L2 22Q-.7 19.2.2 15.6l.2-.7.3-1 1.1-2.5 1.3-1.8.9-.8 1.3-3Q5 7 5.5 8l.6.9.3-1.2Q7.6 3.9 11 1.5l.9-.6q-1.7 1.7-2.7 3.4l-.3.4V5l-.7 1.3-.7 3.1v1l.1.2.7-1.3.1.6.3.3q.5 2 2.2 4.4 0-1.2-.6-2.6l-.1-.4q4.1 3 4.1 7.3l-.1 1.1-.5-2.4-.2-1v.2l-1 2.7q-.4 1.2-1.5 1.9l-1.8.8q-1 1-5 2"/><path fill="#dc980a" d="m5.5 8 .9-.3L6 8.9z"/><path fill="none" stroke="#000" stroke-linecap="round" stroke-linejoin="round" stroke-opacity=".3" stroke-width="__RESOLUTION__" d="m11.9.9 1.7-.9-2.1 1.9-.3.5-1.1 2m0 .3Q9.5 6 9.6 7.5 10 6 11.1 5.4l.4-.2.8-.1 2.6.4q-1.7 0-2.4.9-.5.6-.5 1.8v.1l1.3.5 1.7 1.3.3.2q1.5 1.5 2 2.5T18 17l-.3 1.5q-.5 1.9-2.2 3.3l-3.3 1.7h-.1l-2.3.6-.9.2h0l-4 .5-.7-.6m0-.1-.3-.8-.7-.3v-.1l-1-.8L2 22Q-.7 19.2.2 15.6l.2-.7.3-1 1.1-2.5 1.3-1.8.9-.8m0 0 1.3-3Q5 7 5.5 8l.9-.3Q7.6 3.9 11 1.5l.9-.6M9.7 7.5l.2.8m2.1 0 .1.8M5.5 8l.6.9.3-1.2" vector-effect="non-scaling-stroke"/></g><g id="dv"><use xlink:href="#H" width="8.1" height="8.6"/><use xlink:href="#I" width="8.1" height="8.6"/></g><g id="dr"><use xlink:href="#J" width="8.1" height="8.6"/><use xlink:href="#K" width="8.1" height="8.6"/></g><g id="dp"><use xlink:href="#L" width="8.1" height="8.6"/><use xlink:href="#M" width="8.1" height="8.6"/></g><g id="dn"><use xlink:href="#N" width="8.1" height="8.6"/><use xlink:href="#O" width="8.1" height="8.6"/></g><g id="dl"><use xlink:href="#P" width="8.1" height="8.6"/><use xlink:href="#Q" width="8.1" height="8.6"/></g><g id="dj"><use xlink:href="#R" width="8.1" height="8.6"/><use xlink:href="#S" width="8.1" height="8.6"/></g><g id="dh"><use xlink:href="#T" width="8.1" height="8.6"/><use xlink:href="#U" width="8.1" height="8.6"/></g><g id="df"><use xlink:href="#V" width="8.1" height="8.6"/><use xlink:href="#W" width="8.1" height="8.6"/></g><g id="dd"><use xlink:href="#X" width="8.1" height="8.6"/><use xlink:href="#Y" width="8.1" height="8.6"/></g><g id="db"><use xlink:href="#Z" width="8.1" height="8.6"/><use xlink:href="#aa" width="8.1" height="8.6"/></g><g id="cZ"><use xlink:href="#ab" width="8.1" height="8.6"/><use xlink:href="#ac" width="8.1" height="8.6"/></g><g id="cX"><use xlink:href="#ad" width="8.1" height="8.6"/><use xlink:href="#ae" width="8.1" height="8.6"/></g><g id="cV"><use xlink:href="#af" width="8.1" height="8.6"/><use xlink:href="#ag" width="8.1" height="8.6"/></g><g id="cT"><use xlink:href="#ah" width="8.1" height="8.6"/><use xlink:href="#ai" width="8.1" height="8.6"/></g><g id="cR"><use xlink:href="#aj" width="8.1" height="8.6"/><use xlink:href="#ak" width="8.1" height="8.6"/></g><g id="cP"><use xlink:href="#am" width="8.1" height="8.6"/><use xlink:href="#an" width="8.1" height="8.6"/></g><g id="bZ"><use xlink:href="#ao" width="8.1" height="8.6"/><use xlink:href="#ap" width="8.1" height="8.6"/></g><g id="bW"><use xlink:href="#aq" width="8.1" height="8.6"/><use xlink:href="#ar" width="8.1" height="8.6"/></g><g id="bT"><use xlink:href="#as" width="8.1" height="8.6"/><use xlink:href="#at" width="8.1" height="8.6"/></g><g id="bQ"><use xlink:href="#au" width="8.1" height="8.6"/><use xlink:href="#av" width="8.1" height="8.6"/></g><g id="bN"><use xlink:href="#aw" width="8.1" height="8.6"/><use xlink:href="#ax" width="8.1" height="8.6"/></g><g id="bK"><use xlink:href="#ay" width="8.1" height="8.6"/><use xlink:href="#az" width="8.1" height="8.6"/></g><g id="bH"><use xlink:href="#aA" width="8.1" height="8.6"/><use xlink:href="#aB" width="8.1" height="8.6"/></g><g id="bE"><use xlink:href="#aC" width="8.1" height="8.6"/><use xlink:href="#aD" width="8.1" height="8.6"/></g><g id="bB"><use xlink:href="#aE" width="8.1" height="8.6"/><use xlink:href="#aF" width="8.1" height="8.6"/></g><g id="by"><use xlink:href="#aG" width="8.1" height="8.6"/><use xlink:href="#aH" width="8.1" height="8.6"/></g><g id="bv"><use xlink:href="#aI" width="8.1" height="8.6"/><use xlink:href="#aJ" width="8.1" height="8.6"/></g><g id="bs"><use xlink:href="#aK" width="8.1" height="8.6"/><use xlink:href="#aL" width="8.1" height="8.6"/></g><g id="bp"><use xlink:href="#aM" width="8.1" height="8.6"/><use xlink:href="#aP" width="8.1" height="8.6"/></g><g id="aW" transform="translate(9.05 15.8)"><use xlink:href="#aQ" width="17.9" height="24.8" transform="translate(-9.05 -15.8)"/><use xlink:href="#aR" width="13.3" height="5.6" transform="matrix(.2111 .1077 -.0912 .2465 -8.55 3.45)"/><use xlink:href="#aR" width="13.3" height="5.6" transform="rotate(-11.78 26.02 13.71)scale(.332)"/><use xlink:href="#aS" width="12.3" height="5.5" transform="translate(-8.65 -.15)"/></g></defs><g clip-path="url(#aT)"><g transform="translate(52.4 90.9)"><use xlink:href="#aU" width="3.3" height="2.1" transform="matrix(.8702 .3102 -.6275 .9218 -5.15 -21.15)"/><use xlink:href="#aU" width="3.3" height="2.1" transform="matrix(.7988 .0638 -.5059 .95 -1.6 -19.2)"/><use xlink:href="#aV" width="8.1" height="4.3" transform="matrix(-.6563 -.7515 -.8556 .5371 -3.15 -31.5)"/><use xlink:href="#aW" width="17.9" height="24.8" transform="matrix(.9725 .2296 -.3838 .9361 -3.7 -48.15)"/><use xlink:href="#aV" width="8.1" height="4.3" transform="matrix(.989 -.1352 -.0217 1.0104 4.4 -31.4)"/><use xlink:href="#aX" width="109.3" height="98" transform="translate(-51.4 -89.9)"/></g></g><g clip-path="url(#aY)"><g transform="translate(163.4 90.9)"><use xlink:href="#aU" width="3.3" height="2.1" transform="matrix(.8562 .3644 -.6479 .8887 -5 -21.85)"/><use xlink:href="#aU" width="3.3" height="2.1" transform="matrix(.7952 .0944 -.5054 .9375 -1.3 -19.75)"/><use xlink:href="#aV" width="8.1" height="4.3" transform="matrix(-.6349 -.7669 -.8576 .5276 -2.8 -32.8)"/><use xlink:href="#aW" width="17.9" height="24.8" transform="matrix(.9756 .2125 -.3502 .9463 -3.55 -48.65)"/><use xlink:href="#aV" width="8.1" height="4.3" transform="matrix(.9782 -.1951 .0576 1.0074 5.25 -32.75)"/><use xlink:href="#aX" width="109.3" height="98" transform="translate(-51.4 -89.9)"/></g></g><g clip-path="url(#aZ)"><g transform="translate(274.4 90.9)"><use xlink:href="#aU" width="3.3" height="2.1" transform="matrix(.8392 .4195 -.6669 .8574 -4.85 -22.45)"/><use xlink:href="#aU" width="3.3" height="2.1" transform="matrix(.7906 .1255 -.5053 .9266 -.85 -20.35)"/><use xlink:href="#aV" width="8.1" height="4.3" transform="matrix(-.6171 -.7807 -.8605 .5193 -2.2 -34.15)"/><use xlink:href="#aW" width="17.9" height="24.8" transform="matrix(.9789 .1958 -.3168 .9564 -3.4 -49)"/><use xlink:href="#aV" width="8.1" height="4.3" transform="matrix(.9642 -.2548 .1365 .9981 6.1 -34)"/><use xlink:href="#aX" width="109.3" height="98" transform="translate(-51.4 -89.9)"/></g></g><g clip-path="url(#ba)"><g transform="translate(385.4 90.9)"><use xlink:href="#aU" width="3.3" height="2.1" transform="matrix(.8197 .4748 -.6886 .8247 -4.7 -23)"/><use xlink:href="#aU" width="3.3" height="2.1" transform="matrix(.7851 .1571 -.5094 .9149 -.55 -21.05)"/><use xlink:href="#aV" width="8.1" height="4.3" transform="matrix(-.5971 -.7976 -.863 .5145 -1.8 -35.4)"/><use xlink:href="#aW" width="17.9" height="24.8" transform="matrix(.9819 .183 -.2871 .965 -3.3 -49.5)"/><use xlink:href="#aV" width="8.1" height="4.3" transform="matrix(.9466 -.3135 .2144 .9826 6.95 -35.3)"/><use xlink:href="#bb" width="59.3" height="45.8" transform="translate(-28.65 -50.15)"/></g></g><g clip-path="url(#bc)"><g transform="translate(496.4 90.9)"><use xlink:href="#aU" width="3.3" height="2.1" transform="matrix(.795 .5278 -.7043 .7921 -4.55 -23.6)"/><use xlink:href="#aU" width="3.3" height="2.1" transform="matrix(.7779 .1874 -.5114 .9019 -.25 -21.6)"/><use xlink:href="#aV" width="8.1" height="4.3" transform="matrix(-.5755 -.8117 -.8651 .5059 -1.3 -36.7)"/><use xlink:href="#aW" width="17.9" height="24.8" transform="matrix(.9845 .1658 -.2528 .9725 -3.15 -49.85)"/><use xlink:href="#aV" width="8.1" height="4.3" transform="matrix(.9241 -.374 .2939 .9601 7.75 -36.55)"/><use xlink:href="#bb" width="59.3" height="45.8" transform="translate(-28.65 -50.15)"/></g></g><g clip-path="url(#bd)"><g transform="translate(607.4 90.9)"><use xlink:href="#aU" width="3.3" height="2.1" transform="matrix(.7678 .5806 -.7225 .7581 -4.45 -24.2)"/><use xlink:href="#aU" width="3.3" height="2.1" transform="matrix(.7698 .2181 -.5116 .8915 .15 -22.3)"/><use xlink:href="#aV" width="8.1" height="4.3" transform="matrix(-.5543 -.8268 -.8685 .4979 -.95 -38.1)"/><use xlink:href="#aW" width="17.9" height="24.8" transform="matrix(.9869 .1526 -.2223 .9788 -3 -50.35)"/><use xlink:href="#aV" width="8.1" height="4.3" transform="matrix(.8993 -.43 .3682 .9325 8.65 -37.85)"/><use xlink:href="#bb" width="59.3" height="45.8" transform="translate(-28.65 -50.15)"/></g></g><g clip-path="url(#be)"><g transform="translate(718.4 90.9)"><use xlink:href="#aU" width="3.3" height="2.1" transform="matrix(.7372 .6321 -.7391 .7238 -4.25 -24.75)"/><use xlink:href="#aU" width="3.3" height="2.1" transform="matrix(.7597 .2509 -.5145 .8794 .5 -22.95)"/><use xlink:href="#aV" width="8.1" height="4.3" transform="matrix(-.5327 -.8412 -.8718 .4899 -.4 -39.4)"/><use xlink:href="#aW" width="17.9" height="24.8" transform="matrix(.989 .1393 -.1917 .9841 -2.8 -50.75)"/><use xlink:href="#aV" width="8.1" height="4.3" transform="matrix(.871 -.4844 .4399 .8991 9.45 -39.05)"/></g></g><g clip-path="url(#bf)"><g transform="translate(829.4 90.9)"><use xlink:href="#aU" width="3.3" height="2.1" transform="matrix(.7031 .6819 -.752 .6918 -4.05 -25.35)"/><use xlink:href="#aU" width="3.3" height="2.1" transform="matrix(.7491 .2808 -.5173 .8673 .8 -23.5)"/><use xlink:href="#aV" width="8.1" height="4.3" transform="matrix(-.5108 -.8552 -.8751 .4819 .05 -40.7)"/><use xlink:href="#aW" width="17.9" height="24.8" transform="matrix(.9914 .1228 -.1578 .9891 -2.8 -51.15)"/><use xlink:href="#aV" width="8.1" height="4.3" transform="matrix(.8395 -.537 .5087 .8602 10.3 -40.35)"/></g></g><g clip-path="url(#bg)"><g transform="translate(940.4 90.9)"><use xlink:href="#aU" width="3.3" height="2.1" transform="matrix(.6657 .73 -.7658 .6572 -3.95 -25.9)"/><use xlink:href="#aU" width="3.3" height="2.1" transform="matrix(.7373 .3103 -.5172 .857 1.1 -24.15)"/><use xlink:href="#aV" width="8.1" height="4.3" transform="matrix(-.4885 -.8685 -.8782 .4738 .55 -42)"/><use xlink:href="#aW" width="17.9" height="24.8" transform="matrix(.9932 .1094 -.127 .9924 -2.65 -51.55)"/><use xlink:href="#aV" width="8.1" height="4.3" transform="matrix(.8029 -.5902 .5769 .8142 11.25 -41.5)"/></g></g><g clip-path="url(#bh)"><g transform="translate(1051.4 90.9)"><use xlink:href="#aU" width="3.3" height="2.1" transform="rotate(51.162 25.804 -17.167)scale(.998)"/><use xlink:href="#aU" width="3.3" height="2.1" transform="matrix(.7243 .3418 -.5214 .8456 1.5 -24.75)"/><use xlink:href="#aV" width="8.1" height="4.3" transform="matrix(-.4688 -.8812 -.8812 .4688 .9 -43.35)"/><use xlink:href="#aW" width="17.9" height="24.8" transform="rotate(5.562 533.476 -51.192)scale(.9997)"/><use xlink:href="#aV" width="8.1" height="4.3" transform="rotate(-39.834 -52.944 -38.073)scale(.998)"/><use xlink:href="#bi" width="29.9" height="29.9" transform="translate(-13.1 -44.1)"/></g></g><g clip-path="url(#bj)"><g transform="translate(1162.4 90.9)"><use xlink:href="#aU" width="3.3" height="2.1" transform="rotate(51.162 25.804 -17.167)scale(.998)"/><use xlink:href="#aU" width="3.3" height="2.1" transform="matrix(.7243 .3418 -.5214 .8456 1.5 -24.75)"/><use xlink:href="#aV" width="8.1" height="4.3" transform="matrix(-.4688 -.8812 -.8812 .4688 .9 -43.35)"/><use xlink:href="#aW" width="17.9" height="24.8" transform="rotate(5.562 533.476 -51.192)scale(.9997)"/><use xlink:href="#aV" width="8.1" height="4.3" transform="rotate(-39.834 -52.944 -38.073)scale(.998)"/><use xlink:href="#bk" width="39.1" height="39.2" transform="translate(-18.25 -49.3)"/></g></g><g clip-path="url(#bl)"><g transform="translate(1273.4 90.9)"><use xlink:href="#aU" width="3.3" height="2.1" transform="rotate(51.162 25.804 -17.167)scale(.998)"/><use xlink:href="#aU" width="3.3" height="2.1" transform="matrix(.7243 .3418 -.5214 .8456 1.5 -24.75)"/><use xlink:href="#aV" width="8.1" height="4.3" transform="matrix(-.4688 -.8812 -.8812 .4688 .9 -43.35)"/><use xlink:href="#aW" width="17.9" height="24.8" transform="rotate(5.562 533.476 -51.192)scale(.9997)"/><use xlink:href="#aV" width="8.1" height="4.3" transform="rotate(-39.834 -52.944 -38.073)scale(.998)"/><use xlink:href="#bm" width="48.5" height="48.5" transform="translate(-23.45 -54.55)"/></g></g><g clip-path="url(#bn)"><g transform="translate(1384.4 90.9)"><use xlink:href="#bo" width="57.9" height="57.9" transform="translate(-28.65 -59.8)"/><use xlink:href="#bp" width="8.1" height="8.6" transform="matrix(.808 -.5655 .673 .7549 -20.85 -40)"/><use xlink:href="#bq" width="15.4" height="23.9" transform="matrix(1.4444 .0941 0 1.4444 2.6 -18.1)"/></g></g><g clip-path="url(#br)"><g transform="translate(1495.4 90.9)"><use xlink:href="#bo" width="57.9" height="57.9" transform="translate(-28.65 -59.8)"/><use xlink:href="#bs" width="8.1" height="8.6" transform="matrix(.8017 -.5322 .6611 .7783 -21.35 -41)"/><use xlink:href="#bt" width="15.4" height="23.9" transform="matrix(1.4444 .0898 0 1.4444 2.6 -18.05)"/></g></g><g clip-path="url(#bu)"><g transform="translate(1606.4 90.9)"><use xlink:href="#bo" width="57.9" height="57.9" transform="translate(-28.65 -59.8)"/><use xlink:href="#bv" width="8.1" height="8.6" transform="matrix(.7961 -.4994 .648 .804 -21.9 -41.95)"/><use xlink:href="#bw" width="15.4" height="23.9" transform="matrix(1.4444 .0898 0 1.4444 2.6 -18.05)"/></g></g><g clip-path="url(#bx)"><g transform="translate(1717.4 90.9)"><use xlink:href="#bo" width="57.9" height="57.9" transform="translate(-28.65 -59.8)"/><use xlink:href="#by" width="8.1" height="8.6" transform="matrix(.7879 -.4698 .6367 .8275 -22.45 -42.9)"/><use xlink:href="#bp" width="8.1" height="8.6" transform="matrix(-.9437 -.2831 -.4017 .927 12.8 -34.75)"/><use xlink:href="#bz" width="15.4" height="23.9" transform="matrix(-1.5128 -.0985 0 1.5128 3.55 -20.5)"/><use xlink:href="#bz" width="15.4" height="23.9" transform="matrix(1.4444 .0898 0 1.4444 2.6 -18.05)"/></g></g><g clip-path="url(#bA)"><g transform="translate(1828.4 90.9)"><use xlink:href="#bo" width="57.9" height="57.9" transform="translate(-28.65 -59.8)"/><use xlink:href="#bB" width="8.1" height="8.6" transform="matrix(.7802 -.4384 .6218 .8528 -22.95 -43.9)"/><use xlink:href="#bs" width="8.1" height="8.6" transform="matrix(-.928 -.2535 -.3829 .9461 12.95 -35.8)"/><use xlink:href="#bC" width="15.4" height="23.9" transform="matrix(-1.5128 -.0941 0 1.5128 3.55 -20.45)"/><use xlink:href="#bC" width="15.4" height="23.9" transform="matrix(1.4444 .0898 0 1.4444 2.6 -18.05)"/></g></g><g clip-path="url(#bD)"><g transform="translate(1939.4 90.9)"><use xlink:href="#bo" width="57.9" height="57.9" transform="translate(-28.65 -59.8)"/><use xlink:href="#bE" width="8.1" height="8.6" transform="matrix(.7714 -.4076 .6061 .8781 -23.4 -44.8)"/><use xlink:href="#bv" width="8.1" height="8.6" transform="matrix(-.9124 -.2241 -.3624 .9664 13.2 -36.85)"/><use xlink:href="#bF" width="15.4" height="23.9" transform="matrix(-1.5128 -.0941 0 1.5128 3.55 -20.45)"/><use xlink:href="#bF" width="15.4" height="23.9" transform="matrix(1.4444 .0898 0 1.4444 2.6 -18.05)"/></g></g><g clip-path="url(#bG)"><g transform="translate(2050.4 90.9)"><use xlink:href="#bH" width="8.1" height="8.6" transform="matrix(.7603 -.3801 .5925 .9011 -23.8 -45.75)"/><use xlink:href="#bp" width="8.1" height="8.6" transform="matrix(.9437 -.2831 .4017 .927 -5.1 -48.15)"/><use xlink:href="#by" width="8.1" height="8.6" transform="matrix(-.8953 -.1987 -.3411 .9863 13.35 -37.95)"/><use xlink:href="#bI" width="15.4" height="23.9" transform="matrix(-1.5128 -.0941 0 1.5128 3.55 -20.45)"/><use xlink:href="#bI" width="15.4" height="23.9" transform="matrix(1.4444 .0898 0 1.4444 2.6 -18.05)"/></g></g><g clip-path="url(#bJ)"><g transform="translate(2161.4 90.9)"><use xlink:href="#bK" width="8.1" height="8.6" transform="matrix(.7495 -.3508 .5751 .9258 -24.3 -46.65)"/><use xlink:href="#bs" width="8.1" height="8.6" transform="matrix(.928 -.2535 .3829 .9461 -5.2 -49.2)"/><use xlink:href="#bB" width="8.1" height="8.6" transform="matrix(-.8782 -.1712 -.3224 1.0046 13.5 -38.95)"/><use xlink:href="#bL" width="15.4" height="23.9" transform="matrix(-1.5128 -.0941 0 1.5128 3.55 -20.45)"/><use xlink:href="#bL" width="15.4" height="23.9" transform="matrix(1.4444 .0898 0 1.4444 2.6 -18.05)"/></g></g><g clip-path="url(#bM)"><g transform="translate(2272.4 90.9)"><use xlink:href="#bN" width="8.1" height="8.6" transform="matrix(.7366 -.3248 .5599 .9484 -24.65 -47.65)"/><use xlink:href="#bv" width="8.1" height="8.6" transform="matrix(.9124 -.2241 .3624 .9664 -5.4 -50.35)"/><use xlink:href="#bE" width="8.1" height="8.6" transform="matrix(-.8602 -.1448 -.2996 1.0237 13.7 -40)"/><use xlink:href="#bO" width="15.4" height="23.9" transform="matrix(-1.5128 -.0941 0 1.5128 3.55 -20.45)"/><use xlink:href="#bO" width="15.4" height="23.9" transform="matrix(1.4444 .0898 0 1.4444 2.6 -18.05)"/></g></g><g clip-path="url(#bP)"><g transform="translate(2383.4 90.9)"><use xlink:href="#bQ" width="8.1" height="8.6" transform="matrix(.724 -.2972 .5408 .9726 -25.1 -48.45)"/><use xlink:href="#by" width="8.1" height="8.6" transform="matrix(.8953 -.1987 .3411 .9863 -5.6 -51.4)"/><use xlink:href="#bH" width="8.1" height="8.6" transform="matrix(-.841 -.1222 -.2794 1.0412 13.8 -41.1)"/><use xlink:href="#bR" width="15.4" height="23.9" transform="matrix(-1 -.0651 0 1 -2.55 -15.2)"/><use xlink:href="#bR" width="15.4" height="23.9" transform="matrix(-1.5128 -.0941 0 1.5128 3.55 -20.45)"/><use xlink:href="#bR" width="15.4" height="23.9" transform="matrix(1.4444 .0898 0 1.4444 2.6 -18.05)"/></g></g><g clip-path="url(#bS)"><g transform="translate(2494.4 90.9)"><use xlink:href="#bT" width="8.1" height="8.6" transform="matrix(.7096 -.2728 .5209 .9964 -25.45 -49.5)"/><use xlink:href="#bB" width="8.1" height="8.6" transform="matrix(.8782 -.1712 .3224 1.0046 -5.7 -52.4)"/><use xlink:href="#bK" width="8.1" height="8.6" transform="matrix(-.8216 -.0979 -.2552 1.0593 13.85 -42.1)"/><use xlink:href="#bU" width="15.4" height="23.9" transform="matrix(-1 -.0622 0 1 -2.55 -15.2)"/><use xlink:href="#bU" width="15.4" height="23.9" transform="matrix(-1.5128 -.0941 0 1.5128 3.55 -20.45)"/><use xlink:href="#bU" width="15.4" height="23.9" transform="matrix(1.4444 .0898 0 1.4444 2.6 -18.05)"/></g></g><g clip-path="url(#bV)"><g transform="translate(2605.4 90.9)"><use xlink:href="#bW" width="8.1" height="8.6" transform="matrix(.6952 -.2469 .5034 1.0182 -25.9 -50.3)"/><use xlink:href="#bE" width="8.1" height="8.6" transform="matrix(.8602 -.1448 .2996 1.0237 -5.9 -53.45)"/><use xlink:href="#bN" width="8.1" height="8.6" transform="matrix(-.8013 -.0772 -.2303 1.0768 14.05 -43.1)"/><use xlink:href="#bX" width="15.4" height="23.9" transform="matrix(-1 -.0622 0 1 -2.55 -15.2)"/><use xlink:href="#bX" width="15.4" height="23.9" transform="matrix(-1.5128 -.0941 0 1.5128 3.55 -20.45)"/><use xlink:href="#bX" width="15.4" height="23.9" transform="matrix(1.4444 .0898 0 1.4444 2.6 -18.05)"/></g></g><g clip-path="url(#bY)"><g transform="translate(2716.4 90.9)"><use xlink:href="#bZ" width="8.1" height="8.6" transform="matrix(.6801 -.2238 .4845 1.0416 -26.25 -51.25)"/><use xlink:href="#bH" width="8.1" height="8.6" transform="matrix(.841 -.1222 .2794 1.0412 -6.1 -54.5)"/><use xlink:href="#bQ" width="8.1" height="8.6" transform="matrix(-.7807 -.055 -.2081 1.093 14.15 -44.1)"/><use xlink:href="#ca" width="15.4" height="23.9" transform="matrix(-1 -.0622 0 1 -2.55 -15.2)"/><use xlink:href="#ca" width="15.4" height="23.9" transform="matrix(-1.5128 -.0941 0 1.5128 3.55 -20.45)"/><use xlink:href="#ca" width="15.4" height="23.9" transform="matrix(1.4444 .0898 0 1.4444 2.6 -18.05)"/></g></g><g clip-path="url(#cb)"><g transform="translate(2827.4 90.9)"><use xlink:href="#bZ" width="8.1" height="8.6" transform="matrix(.69 -.1884 .4021 1.0733 -26.3 -51)"/><use xlink:href="#bK" width="8.1" height="8.6" transform="matrix(.8216 -.0979 .2552 1.0593 -6.2 -55.5)"/><use xlink:href="#bT" width="8.1" height="8.6" transform="matrix(-.7594 -.0339 -.1818 1.1093 14.25 -45.1)"/><use xlink:href="#cc" width="15.4" height="23.9" transform="matrix(-1 -.0622 0 1 -2.55 -15.2)"/><use xlink:href="#cc" width="15.4" height="23.9" transform="matrix(-1.5128 -.0941 0 1.5128 3.55 -20.45)"/><use xlink:href="#cc" width="15.4" height="23.9" transform="matrix(1.4444 .0898 0 1.4444 2.6 -18.05)"/></g></g><g clip-path="url(#cd)"><g transform="translate(2938.4 90.9)"><use xlink:href="#bZ" width="8.1" height="8.6" transform="matrix(.6989 -.1522 .3166 1.1004 -26.3 -50.85)"/><use xlink:href="#bN" width="8.1" height="8.6" transform="matrix(.8013 -.0772 .2303 1.0768 -6.3 -56.55)"/><use xlink:href="#bW" width="8.1" height="8.6" transform="matrix(-.7375 -.0163 -.1584 1.1246 14.4 -46.1)"/><use xlink:href="#ce" width="15.4" height="23.9" transform="matrix(-1 -.0622 0 1 -2.55 -15.2)"/><use xlink:href="#ce" width="15.4" height="23.9" transform="matrix(-1.5128 -.0941 0 1.5128 3.55 -20.45)"/><use xlink:href="#ce" width="15.4" height="23.9" transform="matrix(1.4444 .0898 0 1.4444 2.6 -18.05)"/></g></g><g clip-path="url(#cf)"><g transform="translate(3049.4 90.9)"><use xlink:href="#bZ" width="8.1" height="8.6" transform="matrix(.7059 -.1156 .2331 1.1199 -26.35 -50.55)"/><use xlink:href="#bQ" width="8.1" height="8.6" transform="matrix(.7807 -.055 .2081 1.093 -6.4 -57.55)"/><use xlink:href="#bZ" width="8.1" height="8.6" transform="matrix(-.7153 .001 -.133 1.1399 14.45 -47.1)"/><use xlink:href="#cg" width="15.4" height="23.9" transform="matrix(-1 -.0622 0 1 -2.55 -15.2)"/><use xlink:href="#cg" width="15.4" height="23.9" transform="matrix(-1.5128 -.0941 0 1.5128 3.55 -20.45)"/><use xlink:href="#cg" width="15.4" height="23.9" transform="matrix(1.4444 .0898 0 1.4444 2.6 -18.05)"/></g></g><g clip-path="url(#ch)"><g transform="translate(3160.4 90.9)"><use xlink:href="#bZ" width="8.1" height="8.6" transform="matrix(.711 -.0787 .1448 1.1336 -26.35 -50.15)"/><use xlink:href="#bT" width="8.1" height="8.6" transform="matrix(.7594 -.0339 .1818 1.1093 -6.55 -58.6)"/><use xlink:href="#bZ" width="8.1" height="8.6" transform="matrix(-.7141 .0375 -.0451 1.1452 14.55 -46.9)"/><use xlink:href="#ci" width="15.4" height="23.9" transform="matrix(-1 -.0622 0 1 -2.55 -15.2)"/><use xlink:href="#ci" width="15.4" height="23.9" transform="matrix(-1.5128 -.0941 0 1.5128 3.55 -20.45)"/><use xlink:href="#ci" width="15.4" height="23.9" transform="matrix(1.4444 .0898 0 1.4444 2.6 -18.05)"/></g></g><g clip-path="url(#cj)"><g transform="translate(3271.4 90.9)"><use xlink:href="#bZ" width="8.1" height="8.6" transform="matrix(.7139 -.0439 .0558 1.1403 -26.3 -49.7)"/><use xlink:href="#bW" width="8.1" height="8.6" transform="matrix(.7375 -.0163 .1584 1.1246 -6.65 -59.5)"/><use xlink:href="#bZ" width="8.1" height="8.6" transform="matrix(-.7112 .0722 .0406 1.144 14.65 -46.75)"/><use xlink:href="#ck" width="15.4" height="23.9" transform="matrix(-1 -.0622 0 1 -2.55 -15.2)"/><use xlink:href="#ck" width="15.4" height="23.9" transform="matrix(-1.5128 -.0941 0 1.5128 3.55 -20.45)"/><use xlink:href="#ck" width="15.4" height="23.9" transform="matrix(1.4444 .0898 0 1.4444 2.6 -18.05)"/></g></g><g clip-path="url(#cl)"><g transform="translate(3382.4 90.9)"><use xlink:href="#bZ" width="8.1" height="8.6" transform="matrix(.7153 -.0079 -.0284 1.1401 -26.2 -49.25)"/><use xlink:href="#bZ" width="8.1" height="8.6" transform="matrix(.7153 .001 .133 1.1399 -6.75 -60.5)"/><use xlink:href="#bZ" width="8.1" height="8.6" transform="matrix(-.7062 .1091 .1296 1.1357 14.75 -46.35)"/><use xlink:href="#cm" width="15.4" height="23.9" transform="matrix(-1 -.0622 0 1 -2.55 -15.2)"/><use xlink:href="#cm" width="15.4" height="23.9" transform="matrix(-1.5128 -.0941 0 1.5128 3.55 -20.45)"/><use xlink:href="#cm" width="15.4" height="23.9" transform="matrix(1.4444 .0898 0 1.4444 2.6 -18.05)"/></g></g><g clip-path="url(#cn)"><g transform="translate(3493.4 90.9)"><use xlink:href="#bZ" width="8.1" height="8.6" transform="matrix(.6648 -.1145 .1097 1.1345 -25.55 -45.85)"/><use xlink:href="#bZ" width="8.1" height="8.6" transform="matrix(.7141 .0375 .0451 1.1452 -6.9 -60.3)"/><use xlink:href="#bZ" width="8.1" height="8.6" transform="matrix(-.6993 .1457 .2139 1.1212 14.8 -46)"/><use xlink:href="#co" width="15.4" height="23.9" transform="matrix(-1 -.0622 0 1 -2.55 -15.2)"/><use xlink:href="#co" width="15.4" height="23.9" transform="matrix(-1.5128 -.0941 0 1.5128 3.55 -20.45)"/><use xlink:href="#co" width="15.4" height="23.9" transform="matrix(1.4444 .0898 0 1.4444 2.6 -18.05)"/></g></g><g clip-path="url(#cp)"><g transform="translate(3604.4 90.9)"><use xlink:href="#bZ" width="8.1" height="8.6" transform="matrix(.6 -.2046 .2472 1.1119 -24.85 -42.4)"/><use xlink:href="#bZ" width="8.1" height="8.6" transform="matrix(.7112 .0722 -.0406 1.144 -6.9 -60.1)"/><use xlink:href="#bZ" width="8.1" height="8.6" transform="matrix(-.6912 .1796 .3004 1.0995 14.9 -45.6)"/><use xlink:href="#cq" width="15.4" height="23.9" transform="matrix(-1 -.0622 0 1 -2.55 -15.2)"/><use xlink:href="#cq" width="15.4" height="23.9" transform="matrix(-1.5128 -.0941 0 1.5128 3.55 -20.45)"/><use xlink:href="#cq" width="15.4" height="23.9" transform="matrix(1.4444 .0898 0 1.4444 2.6 -18.05)"/></g></g><g clip-path="url(#cr)"><g transform="translate(3715.4 90.9)"><use xlink:href="#bZ" width="8.1" height="8.6" transform="matrix(.5235 -.2793 .3809 1.0728 -24.05 -38.9)"/><use xlink:href="#bZ" width="8.1" height="8.6" transform="matrix(.7062 .1091 -.1296 1.1357 -7.1 -59.8)"/><use xlink:href="#bZ" width="8.1" height="8.6" transform="matrix(-.681 .2167 .3844 1.0726 14.95 -45.2)"/><use xlink:href="#cs" width="15.4" height="23.9" transform="matrix(-1 -.0622 0 1 -2.55 -15.2)"/><use xlink:href="#cs" width="15.4" height="23.9" transform="matrix(-1.5128 -.0941 0 1.5128 3.55 -20.45)"/><use xlink:href="#cs" width="15.4" height="23.9" transform="matrix(1.4444 .0898 0 1.4444 2.6 -18.05)"/></g></g><g clip-path="url(#ct)"><g transform="translate(3826.4 90.9)"><use xlink:href="#bZ" width="8.1" height="8.6" transform="matrix(.4395 -.3354 .5089 1.0176 -23.05 -35.3)"/><use xlink:href="#bZ" width="8.1" height="8.6" transform="matrix(.6993 .1457 -.2139 1.1212 -7.15 -59.45)"/><use xlink:href="#bZ" width="8.1" height="8.6" transform="matrix(-.6669 .0974 .2475 1.111 15.55 -41.75)"/><use xlink:href="#cu" width="15.4" height="23.9" transform="matrix(-1 -.0622 0 1 -2.55 -15.2)"/><use xlink:href="#cu" width="15.4" height="23.9" transform="matrix(-1.5128 -.0941 0 1.5128 3.55 -20.45)"/><use xlink:href="#cu" width="15.4" height="23.9" transform="matrix(1.4444 .0898 0 1.4444 2.6 -18.05)"/></g></g><g clip-path="url(#cv)"><g transform="translate(3937.4 90.9)"><use xlink:href="#bZ" width="8.1" height="8.6" transform="matrix(.3521 -.3724 .6292 .9473 -22 -31.9)"/><use xlink:href="#bZ" width="8.1" height="8.6" transform="matrix(.6912 .1796 -.3004 1.0995 -7.25 -59)"/><use xlink:href="#bZ" width="8.1" height="8.6" transform="matrix(-.6339 -.0061 .1101 1.133 15.95 -38.2)"/><use xlink:href="#cw" width="15.4" height="23.9" transform="matrix(-1 -.0622 0 1 -2.55 -15.2)"/><use xlink:href="#cw" width="15.4" height="23.9" transform="matrix(-1.5128 -.0941 0 1.5128 3.55 -20.45)"/><use xlink:href="#cw" width="15.4" height="23.9" transform="matrix(1.4444 .0898 0 1.4444 2.6 -18.05)"/></g></g><g clip-path="url(#cx)"><g transform="translate(52.4 199.9)"><use xlink:href="#bZ" width="8.1" height="8.6" transform="matrix(.2665 -.3907 .7419 .8638 -20.9 -28.45)"/><use xlink:href="#bZ" width="8.1" height="8.6" transform="matrix(.681 .2167 -.3844 1.0726 -7.25 -58.6)"/><use xlink:href="#bZ" width="8.1" height="8.6" transform="matrix(-.5846 -.1008 -.0252 1.1381 16.15 -34.65)"/><use xlink:href="#cy" width="15.4" height="23.9" transform="matrix(-1 -.0622 0 1 -2.55 -15.2)"/><use xlink:href="#cy" width="15.4" height="23.9" transform="matrix(-1.5128 -.0941 0 1.5128 3.55 -20.45)"/><use xlink:href="#cy" width="15.4" height="23.9" transform="matrix(1.4444 .0898 0 1.4444 2.6 -18.05)"/></g></g><g clip-path="url(#cz)"><g transform="translate(163.4 199.9)"><use xlink:href="#bZ" width="8.1" height="8.6" transform="matrix(.2275 -.4137 .819 .7872 -19.5 -27.35)"/><use xlink:href="#bZ" width="8.1" height="8.6" transform="matrix(.6669 .0974 -.2475 1.111 -7.8 -55.2)"/><use xlink:href="#bZ" width="8.1" height="8.6" transform="matrix(-.5224 -.1802 -.1638 1.1257 16.35 -31.05)"/><use xlink:href="#cy" width="15.4" height="23.9" transform="matrix(-1 -.0622 0 1 -2.55 -15.2)"/><use xlink:href="#cy" width="15.4" height="23.9" transform="matrix(-1.5128 -.0941 0 1.5128 3.55 -20.45)"/><use xlink:href="#cy" width="15.4" height="23.9" transform="matrix(1.4444 .0898 0 1.4444 2.6 -18.05)"/></g></g><g clip-path="url(#cA)"><g transform="translate(274.4 199.9)"><use xlink:href="#bZ" width="8.1" height="8.6" transform="matrix(.1866 -.4335 .8904 .7044 -18.15 -26.15)"/><use xlink:href="#bZ" width="8.1" height="8.6" transform="matrix(.6339 -.0061 -.1101 1.133 -8.15 -51.6)"/><use xlink:href="#bZ" width="8.1" height="8.6" transform="matrix(-.4518 -.2412 -.2998 1.0966 16.4 -27.4)"/><use xlink:href="#cy" width="15.4" height="23.9" transform="matrix(-1 -.0622 0 1 -2.55 -15.2)"/><use xlink:href="#cy" width="15.4" height="23.9" transform="matrix(-1.5128 -.0941 0 1.5128 3.55 -20.45)"/><use xlink:href="#cy" width="15.4" height="23.9" transform="matrix(1.4444 .0898 0 1.4444 2.6 -18.05)"/></g></g><g clip-path="url(#cB)"><g transform="translate(385.4 199.9)"><use xlink:href="#bZ" width="8.1" height="8.6" transform="matrix(.1445 -.4496 .9545 .6165 -16.7 -25)"/><use xlink:href="#bZ" width="8.1" height="8.6" transform="matrix(.5846 -.1008 .0252 1.1381 -8.35 -48.1)"/><use xlink:href="#bZ" width="8.1" height="8.6" transform="matrix(-.3753 -.2871 -.4329 1.0519 16.45 -23.8)"/></g></g><g clip-path="url(#cC)"><g transform="translate(496.4 199.9)"><use xlink:href="#bZ" width="8.1" height="8.6" transform="matrix(.1004 -.4611 1.0082 .5211 -15.15 -23.75)"/><use xlink:href="#bZ" width="8.1" height="8.6" transform="matrix(.5224 -.1802 .1638 1.1257 -8.6 -44.55)"/><use xlink:href="#bZ" width="8.1" height="8.6" transform="matrix(-.3455 -.3208 -.5298 1.004 15.6 -22.4)"/></g></g><g clip-path="url(#cD)"><g transform="translate(607.4 199.9)"><use xlink:href="#bZ" width="8.1" height="8.6" transform="matrix(.0559 -.4687 1.0538 .4221 -13.55 -22.6)"/><use xlink:href="#bZ" width="8.1" height="8.6" transform="matrix(.4518 -.2412 .2998 1.0966 -8.7 -40.8)"/><use xlink:href="#bZ" width="8.1" height="8.6" transform="matrix(-.3129 -.3524 -.6233 .9477 14.6 -20.85)"/></g></g><g clip-path="url(#cE)"><g transform="translate(718.4 199.9)"><use xlink:href="#bZ" width="8.1" height="8.6" transform="matrix(.0108 -.4721 1.0886 .323 -11.75 -21.45)"/><use xlink:href="#bZ" width="8.1" height="8.6" transform="matrix(.3753 -.2871 .4329 1.0519 -8.75 -37.2)"/><use xlink:href="#bZ" width="8.1" height="8.6" transform="matrix(-.278 -.3812 -.7122 .884 13.55 -19.25)"/></g></g><g clip-path="url(#cF)"><g transform="translate(829.4 199.9)"><use xlink:href="#bZ" width="8.1" height="8.6" transform="matrix(-.0313 -.4711 1.1149 .2173 -10.05 -20.35)"/><use xlink:href="#bZ" width="8.1" height="8.6" transform="matrix(.3455 -.3208 .5298 1.004 -7.85 -35.75)"/><use xlink:href="#bZ" width="8.1" height="8.6" transform="matrix(-.2397 -.4055 -.7923 .8105 12.4 -17.65)"/></g></g><g clip-path="url(#cG)"><g transform="translate(940.4 199.9)"><use xlink:href="#bZ" width="8.1" height="8.6" transform="matrix(-.0762 -.4657 1.131 .1097 -8.1 -19.15)"/><use xlink:href="#bZ" width="8.1" height="8.6" transform="matrix(.3129 -.3524 .6233 .9477 -6.9 -34.15)"/><use xlink:href="#bZ" width="8.1" height="8.6" transform="matrix(-.1998 -.4267 -.8641 .7336 11.3 -16.1)"/></g></g><g clip-path="url(#cH)"><g transform="translate(1051.4 199.9)"><use xlink:href="#bZ" width="8.1" height="8.6" transform="matrix(-.1208 -.4565 1.1368 .0043 -6.2 -18.1)"/><use xlink:href="#bZ" width="8.1" height="8.6" transform="matrix(.278 -.3812 .7122 .884 -5.85 -32.65)"/><use xlink:href="#bZ" width="8.1" height="8.6" transform="matrix(-.1595 -.4435 -.9306 .6475 9.9 -14.35)"/></g></g><g clip-path="url(#cI)"><g transform="translate(1162.4 199.9)"><use xlink:href="#bZ" width="8.1" height="8.6" transform="matrix(-.1561 -.445 1.1331 -.0851 -5.3 -17.65)"/><use xlink:href="#bZ" width="8.1" height="8.6" transform="matrix(.2397 -.4055 .7923 .8105 -4.75 -31.05)"/><use xlink:href="#bZ" width="8.1" height="8.6" transform="matrix(-.1163 -.4568 -.9886 .5554 8.6 -12.7)"/></g></g><g clip-path="url(#cJ)"><g transform="translate(1273.4 199.9)"><use xlink:href="#bZ" width="8.1" height="8.6" transform="matrix(-.1922 -.4305 1.1217 -.178 -4.35 -17.35)"/><use xlink:href="#bZ" width="8.1" height="8.6" transform="matrix(.1998 -.4267 .8641 .7336 -3.5 -29.45)"/><use xlink:href="#bZ" width="8.1" height="8.6" transform="matrix(-.0721 -.466 -1.0376 .4582 7.25 -11)"/></g></g><g clip-path="url(#cK)"><g transform="translate(1384.4 199.9)"><use xlink:href="#bZ" width="8.1" height="8.6" transform="matrix(-.2256 -.4137 1.1035 -.2661 -3.25 -16.95)"/><use xlink:href="#bZ" width="8.1" height="8.6" transform="matrix(.1595 -.4435 .9306 .6475 -2.3 -27.75)"/><use xlink:href="#bZ" width="8.1" height="8.6" transform="matrix(-.0285 -.4709 -1.077 .3604 5.75 -9.35)"/></g></g><g clip-path="url(#cL)"><g transform="translate(1495.4 199.9)"><use xlink:href="#bZ" width="8.1" height="8.6" transform="matrix(-.2589 -.3935 1.0774 -.356 -2.2 -16.65)"/><use xlink:href="#bZ" width="8.1" height="8.6" transform="matrix(.1163 -.4568 .9886 .5554 -1 -26.1)"/><use xlink:href="#bZ" width="8.1" height="8.6" transform="matrix(.0086 -.4715 -1.1019 .2704 5 -8.65)"/></g></g><g clip-path="url(#cM)"><g transform="translate(1606.4 199.9)"><use xlink:href="#bZ" width="8.1" height="8.6" transform="matrix(-.2892 -.3717 1.0453 -.4401 -1.1 -16.4)"/><use xlink:href="#bZ" width="8.1" height="8.6" transform="matrix(.0721 -.466 1.0376 .4582 .4 -24.4)"/><use xlink:href="#bZ" width="8.1" height="8.6" transform="matrix(.0473 -.469 -1.1205 .1787 4.25 -7.9)"/></g></g><g clip-path="url(#cN)"><g transform="translate(1717.4 199.9)"><use xlink:href="#bZ" width="8.1" height="8.6" transform="matrix(-.3194 -.3469 1.0061 -.5259 .05 -16.05)"/><use xlink:href="#bZ" width="8.1" height="8.6" transform="matrix(.0285 -.4709 1.077 .3604 1.95 -22.75)"/><use xlink:href="#bZ" width="8.1" height="8.6" transform="matrix(.0843 -.4635 -1.1311 .0895 3.4 -7.35)"/></g></g><g clip-path="url(#cO)"><g transform="translate(1828.4 199.9)"><use xlink:href="#cP" width="8.1" height="8.6" transform="matrix(-.2978 -.4523 1.0767 -.3564 -2.9 -15)"/><use xlink:href="#bZ" width="8.1" height="8.6" transform="matrix(-.0086 -.4715 1.1019 .2704 2.65 -22)"/><use xlink:href="#bZ" width="8.1" height="8.6" transform="matrix(.1221 -.4548 -1.1347 -.0002 2.45 -6.7)"/></g></g><g clip-path="url(#cQ)"><g transform="translate(1939.4 199.9)"><use xlink:href="#cR" width="8.1" height="8.6" transform="matrix(-.252 -.5581 1.1198 -.1827 -5.7 -14.05)"/><use xlink:href="#bZ" width="8.1" height="8.6" transform="matrix(-.0473 -.469 1.1205 .1787 3.45 -21.4)"/><use xlink:href="#bZ" width="8.1" height="8.6" transform="matrix(.1577 -.4435 -1.1306 -.0898 1.55 -6.1)"/></g></g><g clip-path="url(#cS)"><g transform="translate(2050.4 199.9)"><use xlink:href="#cT" width="8.1" height="8.6" transform="matrix(-.1775 -.6598 1.1352 -.0006 -8.6 -13.25)"/><use xlink:href="#bZ" width="8.1" height="8.6" transform="matrix(-.0843 -.4635 1.1311 .0895 4.35 -20.75)"/><use xlink:href="#bZ" width="8.1" height="8.6" transform="matrix(.1942 -.4292 -1.1192 -.1834 .5 -5.45)"/></g></g><g clip-path="url(#cU)"><g transform="translate(2161.4 199.9)"><use xlink:href="#cV" width="8.1" height="8.6" transform="matrix(-.0789 -.7502 1.1206 .1777 -11.4 -12.35)"/><use xlink:href="#bZ" width="8.1" height="8.6" transform="matrix(-.1221 -.4548 1.1347 -.0002 5.25 -20.15)"/><use xlink:href="#cP" width="8.1" height="8.6" transform="matrix(.1407 -.5227 -1.1341 -.0008 3.6 -5.4)"/></g></g><g clip-path="url(#cW)"><g transform="translate(2272.4 199.9)"><use xlink:href="#cX" width="8.1" height="8.6" transform="matrix(.0437 -.8241 1.0781 .3516 -14.15 -11.65)"/><use xlink:href="#bZ" width="8.1" height="8.6" transform="matrix(-.1577 -.4435 1.1306 -.0898 6.2 -19.5)"/><use xlink:href="#cR" width="8.1" height="8.6" transform="matrix(.0641 -.6089 -1.1196 .1774 6.6 -5.4)"/></g></g><g clip-path="url(#cY)"><g transform="translate(2383.4 199.9)"><use xlink:href="#cZ" width="8.1" height="8.6" transform="matrix(.1908 -.8756 1.0084 .5211 -16.85 -11.05)"/><use xlink:href="#bZ" width="8.1" height="8.6" transform="matrix(-.1942 -.4292 1.1192 -.1834 7.2 -18.85)"/><use xlink:href="#cT" width="8.1" height="8.6" transform="matrix(-.0361 -.6821 -1.0772 .3512 9.6 -5.4)"/></g></g><g clip-path="url(#da)"><g transform="translate(2494.4 199.9)"><use xlink:href="#db" width="8.1" height="8.6" transform="matrix(.837 -.3142 1.1189 .3651 -25.15 -13.25)"/><use xlink:href="#cP" width="8.1" height="8.6" transform="matrix(-.1407 -.5227 1.1341 -.0008 4.1 -18.75)"/><use xlink:href="#cV" width="8.1" height="8.6" transform="matrix(-.16 -.7361 -1.0063 .5195 12.5 -5.55)"/></g></g><g clip-path="url(#dc)"><g transform="translate(2605.4 199.9)"><use xlink:href="#dd" width="8.1" height="8.6" transform="matrix(.7191 .5286 1.2054 .1917 -27.45 -17.45)"/><use xlink:href="#cR" width="8.1" height="8.6" transform="matrix(-.0641 -.6089 1.1196 .1774 1.05 -18.75)"/><use xlink:href="#cX" width="8.1" height="8.6" transform="matrix(-.2994 -.7673 -.9117 .6714 15.4 -5.65)"/></g></g><g clip-path="url(#de)"><g transform="translate(2716.4 199.9)"><use xlink:href="#df" width="8.1" height="8.6" transform="matrix(-.0509 .8913 1.2642 .0002 -24.7 -17.9)"/><use xlink:href="#cT" width="8.1" height="8.6" transform="matrix(.0361 -.6821 1.0772 .3512 -1.9 -18.85)"/><use xlink:href="#cZ" width="8.1" height="8.6" transform="matrix(-.4554 -.7708 -.7932 .8104 18.05 -5.95)"/></g></g><g clip-path="url(#dg)"><g transform="translate(2827.4 199.9)"><use xlink:href="#dh" width="8.1" height="8.6" transform="matrix(-.1236 .8464 1.2723 .2373 -25.45 -18.2)"/><use xlink:href="#cV" width="8.1" height="8.6" transform="matrix(.16 -.7361 1.0063 .5195 -4.8 -18.9)"/><use xlink:href="#db" width="8.1" height="8.6" transform="matrix(-.8932 -.0358 -.9438 .7001 25.15 -10.7)"/></g></g><g clip-path="url(#di)"><g transform="translate(2938.4 199.9)"><use xlink:href="#dj" width="8.1" height="8.6" transform="matrix(-.1916 .7953 1.2336 .4818 -25.8 -18.6)"/><use xlink:href="#cX" width="8.1" height="8.6" transform="matrix(.2994 -.7673 .9117 .6714 -7.6 -19.1)"/><use xlink:href="#dd" width="8.1" height="8.6" transform="matrix(-.516 .7272 -1.0824 .5593 26.1 -15.4)"/></g></g><g clip-path="url(#dk)"><g transform="translate(3049.4 199.9)"><use xlink:href="#dl" width="8.1" height="8.6" transform="matrix(-.2523 .7398 1.1477 .7233 -25.9 -18.85)"/><use xlink:href="#cZ" width="8.1" height="8.6" transform="matrix(.4554 -.7708 .7932 .8104 -10.35 -19.35)"/><use xlink:href="#df" width="8.1" height="8.6" transform="matrix(.3277 .8295 -1.1991 .3965 23.35 -14.95)"/></g></g><g clip-path="url(#dm)"><g transform="translate(3160.4 199.9)"><use xlink:href="#dn" width="8.1" height="8.6" transform="matrix(-.1992 .7171 1.1981 .6601 -23.65 -16.7)"/><use xlink:href="#db" width="8.1" height="8.6" transform="matrix(.8932 -.0358 .9438 .7001 -17.5 -24.15)"/><use xlink:href="#dh" width="8.1" height="8.6" transform="matrix(.3823 .7634 -1.1293 .6274 24 -15.55)"/></g></g><g clip-path="url(#do)"><g transform="translate(3271.4 199.9)"><use xlink:href="#dp" width="8.1" height="8.6" transform="matrix(-.1504 .6915 1.2436 .6009 -21.25 -14.6)"/><use xlink:href="#dd" width="8.1" height="8.6" transform="matrix(.516 .7272 1.0824 .5593 -18.35 -28.75)"/><use xlink:href="#dj" width="8.1" height="8.6" transform="matrix(.4309 .6937 -1.0155 .847 24.2 -16.05)"/></g></g><g clip-path="url(#dq)"><g transform="translate(3382.4 199.9)"><use xlink:href="#dr" width="8.1" height="8.6" transform="matrix(-.1052 .663 1.2896 .535 -19 -12.5)"/><use xlink:href="#df" width="8.1" height="8.6" transform="matrix(-.3277 .8295 1.1991 .3965 -15.65 -28.35)"/><use xlink:href="#dl" width="8.1" height="8.6" transform="matrix(.4712 .6227 -.8619 1.0458 24.25 -16.25)"/></g></g><g clip-path="url(#ds)"><g transform="translate(3493.4 199.9)"><use xlink:href="#dr" width="8.1" height="8.6" transform="matrix(-.1052 .663 1.2896 .535 -19 -12.5)"/><use xlink:href="#dh" width="8.1" height="8.6" transform="matrix(-.3823 .7634 1.1293 .6274 -16.35 -28.95)"/><use xlink:href="#dn" width="8.1" height="8.6" transform="matrix(.4137 .6172 -.9255 1.005 22.65 -13.6)"/></g></g><g clip-path="url(#dt)"><g transform="translate(3604.4 199.9)"><use xlink:href="#dr" width="8.1" height="8.6" transform="matrix(-.1052 .663 1.2896 .535 -19 -12.5)"/><use xlink:href="#dj" width="8.1" height="8.6" transform="matrix(-.4309 .6937 1.0155 .847 -16.55 -29.45)"/><use xlink:href="#dp" width="8.1" height="8.6" transform="matrix(.3592 .6082 -.9905 .9599 21.15 -10.85)"/></g></g><g clip-path="url(#du)"><g transform="translate(3715.4 199.9)"><use xlink:href="#dv" width="8.1" height="8.6" transform="matrix(.0071 .5617 1.4033 .3189 -11.6 -5.75)"/><use xlink:href="#dl" width="8.1" height="8.6" transform="matrix(-.4712 .6227 .8619 1.0458 -16.55 -29.65)"/><use xlink:href="#dr" width="8.1" height="8.6" transform="matrix(.3077 .596 -1.0556 .9117 19.65 -8.15)"/></g></g><g clip-path="url(#dw)"><g transform="translate(3826.4 199.9)"><use xlink:href="#dv" width="8.1" height="8.6" transform="matrix(.0071 .5617 1.4033 .3189 -11.6 -5.75)"/><use xlink:href="#dn" width="8.1" height="8.6" transform="matrix(-.4137 .6172 .9255 1.005 -15.1 -27.05)"/><use xlink:href="#dr" width="8.1" height="8.6" transform="matrix(.3077 .596 -1.0556 .9117 19.65 -8.15)"/></g></g><g clip-path="url(#dx)"><g transform="translate(3937.4 199.9)"><use xlink:href="#dv" width="8.1" height="8.6" transform="matrix(.0071 .5617 1.4033 .3189 -11.6 -5.75)"/><use xlink:href="#dp" width="8.1" height="8.6" transform="matrix(-.3592 .6082 .9905 .9599 -13.55 -24.3)"/><use xlink:href="#dr" width="8.1" height="8.6" transform="matrix(.3077 .596 -1.0556 .9117 19.65 -8.15)"/></g></g><g clip-path="url(#dy)"><g transform="translate(52.4 308.9)"><use xlink:href="#dv" width="8.1" height="8.6" transform="matrix(.0071 .5617 1.4033 .3189 -11.6 -5.75)"/><use xlink:href="#dr" width="8.1" height="8.6" transform="matrix(-.3077 .596 1.0556 .9117 -11.95 -21.55)"/><use xlink:href="#dv" width="8.1" height="8.6" transform="matrix(.1693 .535 -1.2311 .7424 14.8 .65)"/></g></g><g clip-path="url(#dz)"><g transform="translate(163.4 308.9)"><use xlink:href="#dv" width="8.1" height="8.6" transform="matrix(.0071 .5617 1.4033 .3189 -11.6 -5.75)"/><use xlink:href="#dv" width="8.1" height="8.6" transform="matrix(-.1693 .535 1.2311 .7424 -7.1 -12.75)"/><use xlink:href="#dv" width="8.1" height="8.6" transform="matrix(.1693 .535 -1.2311 .7424 14.8 .65)"/></g></g></svg>