<svg xmlns="http://www.w3.org/2000/svg" xmlns:xlink="http://www.w3.org/1999/xlink" width="1353" height="36" viewBox="0 0 1353 36"><defs><clipPath id="l"><path d="M1 1h25v34H1z"/></clipPath><clipPath id="q"><path d="M27 1h25v34H27z"/></clipPath><clipPath id="r"><path d="M53 1h25v34H53z"/></clipPath><clipPath id="s"><path d="M79 1h25v34H79z"/></clipPath><clipPath id="t"><path d="M105 1h25v34h-25z"/></clipPath><clipPath id="u"><path d="M131 1h25v34h-25z"/></clipPath><clipPath id="v"><path d="M157 1h25v34h-25z"/></clipPath><clipPath id="w"><path d="M183 1h25v34h-25z"/></clipPath><clipPath id="x"><path d="M209 1h25v34h-25z"/></clipPath><clipPath id="y"><path d="M235 1h25v34h-25z"/></clipPath><clipPath id="z"><path d="M261 1h25v34h-25z"/></clipPath><clipPath id="A"><path d="M287 1h25v34h-25z"/></clipPath><clipPath id="B"><path d="M313 1h25v34h-25z"/></clipPath><clipPath id="C"><path d="M339 1h25v34h-25z"/></clipPath><clipPath id="D"><path d="M365 1h25v34h-25z"/></clipPath><clipPath id="E"><path d="M391 1h25v34h-25z"/></clipPath><clipPath id="F"><path d="M417 1h25v34h-25z"/></clipPath><clipPath id="G"><path d="M443 1h25v34h-25z"/></clipPath><clipPath id="H"><path d="M469 1h25v34h-25z"/></clipPath><clipPath id="J"><path d="M495 1h25v34h-25z"/></clipPath><clipPath id="L"><path d="M521 1h25v34h-25z"/></clipPath><clipPath id="N"><path d="M547 1h25v34h-25z"/></clipPath><clipPath id="P"><path d="M573 1h25v34h-25z"/></clipPath><clipPath id="R"><path d="M599 1h25v34h-25z"/></clipPath><clipPath id="T"><path d="M625 1h25v34h-25z"/></clipPath><clipPath id="V"><path d="M651 1h25v34h-25z"/></clipPath><clipPath id="W"><path d="M677 1h25v34h-25z"/></clipPath><clipPath id="X"><path d="M703 1h25v34h-25z"/></clipPath><clipPath id="Y"><path d="M729 1h25v34h-25z"/></clipPath><clipPath id="Z"><path d="M755 1h25v34h-25z"/></clipPath><clipPath id="aa"><path d="M781 1h25v34h-25z"/></clipPath><clipPath id="ab"><path d="M807 1h25v34h-25z"/></clipPath><clipPath id="ac"><path d="M833 1h25v34h-25z"/></clipPath><clipPath id="ad"><path d="M859 1h25v34h-25z"/></clipPath><clipPath id="ae"><path d="M885 1h25v34h-25z"/></clipPath><clipPath id="af"><path d="M911 1h25v34h-25z"/></clipPath><clipPath id="ag"><path d="M937 1h25v34h-25z"/></clipPath><clipPath id="ah"><path d="M963 1h25v34h-25z"/></clipPath><clipPath id="ai"><path d="M989 1h25v34h-25z"/></clipPath><clipPath id="aj"><path d="M1015 1h25v34h-25z"/></clipPath><clipPath id="ak"><path d="M1041 1h25v34h-25z"/></clipPath><clipPath id="al"><path d="M1067 1h25v34h-25z"/></clipPath><clipPath id="am"><path d="M1093 1h25v34h-25z"/></clipPath><clipPath id="an"><path d="M1119 1h25v34h-25z"/></clipPath><clipPath id="ao"><path d="M1145 1h25v34h-25z"/></clipPath><clipPath id="ap"><path d="M1171 1h25v34h-25z"/></clipPath><clipPath id="ar"><path d="M1197 1h25v34h-25z"/></clipPath><clipPath id="at"><path d="M1223 1h25v34h-25z"/></clipPath><clipPath id="av"><path d="M1249 1h25v34h-25z"/></clipPath><clipPath id="aw"><path d="M1275 1h25v34h-25z"/></clipPath><clipPath id="ax"><path d="M1301 1h25v34h-25z"/></clipPath><clipPath id="ay"><path d="M1327 1h25v34h-25z"/></clipPath><g id="a"><path fill="#ffec2a" fill-opacity=".1" d="M6 3.3q2.4-1.8 4.7-1t3.5 4 .3 6.6-3 5.6Q9.3 20.4 7 19.6q-2.3-.9-3.5-4-1-3.3-.2-6.7.7-3.6 2.8-5.6"/><path fill="#ffec2a" fill-opacity=".1" d="M6.6 4.9q1.8-1.4 3.6-.7t2.7 3 .3 5.2-2.3 4.4q-1.8 1.4-3.7.8-1.8-.7-2.7-3.1-.8-2.5-.2-5.2t2.3-4.4"/><path fill="#fff" fill-opacity=".4" d="M7.3 7q1.2-.9 2.4-.5t1.8 2.1.2 3.5T10 15t-2.4.5q-1.2-.4-1.8-2.1-.6-1.6-.2-3.4.4-1.9 1.5-3"/><path fill="#ffec2a" fill-opacity=".1" d="M2.9 1Q4.2-.5 5.2.5t1 4.1q.2 3.2-.6 6.6-.8 3.5-2.1 5.4-1.4 1.7-2.4.7T0 13q0-3.2.8-6.6.8-3.5 2-5.4"/><path fill="#ffec2a" fill-opacity=".1" d="M2.9 2.7q1-1.3 1.8-.6t.8 3.3q.2 2.5-.5 5.1-.7 2.8-1.7 4.2t-1.8.6Q.8 14.4.7 12q-.1-2.5.6-5.1.5-2.8 1.6-4.3"/><path fill="#fff" fill-opacity=".4" d="M2.9 4.8q.7-.8 1.2-.3t.6 2.2-.5 3.4q-.3 1.8-1 2.8t-1.3.4-.5-2.2.4-3.4q.4-1.9 1.1-2.9"/></g><g id="b"><path fill="#ffec2a" fill-opacity=".2" d="M6 3.3q2.4-1.8 4.7-1t3.5 4 .3 6.6-3 5.6Q9.3 20.4 7 19.6q-2.3-.9-3.5-4-1-3.3-.2-6.7.7-3.6 2.8-5.6"/><path fill="#ffec2a" fill-opacity=".2" d="M6.6 4.9q1.8-1.4 3.6-.7t2.7 3 .3 5.2-2.3 4.4q-1.8 1.4-3.7.8-1.8-.7-2.7-3.1-.8-2.5-.2-5.2t2.3-4.4"/><path fill="#fff" fill-opacity=".7" d="M7.3 7q1.2-.9 2.4-.5t1.8 2.1.2 3.5T10 15t-2.4.5q-1.2-.4-1.8-2.1-.6-1.6-.2-3.4.4-1.9 1.5-3"/><path fill="#ffec2a" fill-opacity=".2" d="M2.9 1Q4.2-.5 5.2.5t1 4.1q.2 3.2-.6 6.6-.8 3.5-2.1 5.4-1.4 1.7-2.4.7T0 13q0-3.2.8-6.6.8-3.5 2-5.4"/><path fill="#ffec2a" fill-opacity=".2" d="M2.9 2.7q1-1.3 1.8-.6t.8 3.3q.2 2.5-.5 5.1-.7 2.8-1.7 4.2t-1.8.6Q.8 14.4.7 12q-.1-2.5.6-5.1.5-2.8 1.6-4.3"/><path fill="#fff" fill-opacity=".7" d="M2.9 4.8q.7-.8 1.2-.3t.6 2.2-.5 3.4q-.3 1.8-1 2.8t-1.3.4-.5-2.2.4-3.4q.4-1.9 1.1-2.9"/></g><g id="c"><path fill="#ffec2a" fill-opacity=".3" d="M6 3.3q2.4-1.8 4.7-1t3.5 4 .3 6.6-3 5.6Q9.3 20.4 7 19.6q-2.3-.9-3.5-4-1-3.3-.2-6.7.7-3.6 2.8-5.6"/><path fill="#ffec2a" fill-opacity=".3" d="M6.6 4.9q1.8-1.4 3.6-.7t2.7 3 .3 5.2-2.3 4.4q-1.8 1.4-3.7.8-1.8-.7-2.7-3.1-.8-2.5-.2-5.2t2.3-4.4"/><path fill="#fff" fill-opacity=".9" d="M7.3 7q1.2-.9 2.4-.5t1.8 2.1.2 3.5T10 15t-2.4.5q-1.2-.4-1.8-2.1-.6-1.6-.2-3.4.4-1.9 1.5-3"/><path fill="#ffec2a" fill-opacity=".3" d="M2.9 1Q4.2-.5 5.2.5t1 4.1q.2 3.2-.6 6.6-.8 3.5-2.1 5.4-1.4 1.7-2.4.7T0 13q0-3.2.8-6.6.8-3.5 2-5.4"/><path fill="#ffec2a" fill-opacity=".3" d="M2.9 2.7q1-1.3 1.8-.6t.8 3.3q.2 2.5-.5 5.1-.7 2.8-1.7 4.2t-1.8.6Q.8 14.4.7 12q-.1-2.5.6-5.1.5-2.8 1.6-4.3"/><path fill="#fff" fill-opacity=".9" d="M2.9 4.8q.7-.8 1.2-.3t.6 2.2-.5 3.4q-.3 1.8-1 2.8t-1.3.4-.5-2.2.4-3.4q.4-1.9 1.1-2.9"/></g><g id="d"><path fill="#ffec2a" fill-opacity=".3" d="M6 3.3q2.4-1.8 4.7-1t3.5 4 .3 6.6-3 5.6Q9.3 20.4 7 19.6q-2.3-.9-3.5-4-1-3.3-.2-6.7.7-3.6 2.8-5.6"/><path fill="#ffec2a" fill-opacity=".3" d="M6.6 4.9q1.8-1.4 3.6-.7t2.7 3 .3 5.2-2.3 4.4q-1.8 1.4-3.7.8-1.8-.7-2.7-3.1-.8-2.5-.2-5.2t2.3-4.4"/><path fill="#fff" d="M7.3 7q1.2-.9 2.4-.5t1.8 2.1.2 3.5T10 15t-2.4.5q-1.2-.4-1.8-2.1-.6-1.6-.2-3.4.4-1.9 1.5-3"/><path fill="#ffec2a" fill-opacity=".3" d="M2.9 1Q4.2-.5 5.2.5t1 4.1q.2 3.2-.6 6.6-.8 3.5-2.1 5.4-1.4 1.7-2.4.7T0 13q0-3.2.8-6.6.8-3.5 2-5.4"/><path fill="#ffec2a" fill-opacity=".3" d="M2.9 2.7q1-1.3 1.8-.6t.8 3.3q.2 2.5-.5 5.1-.7 2.8-1.7 4.2t-1.8.6Q.8 14.4.7 12q-.1-2.5.6-5.1.5-2.8 1.6-4.3"/><path fill="#fff" d="M2.9 4.8q.7-.8 1.2-.3t.6 2.2-.5 3.4q-.3 1.8-1 2.8t-1.3.4-.5-2.2.4-3.4q.4-1.9 1.1-2.9"/></g><g id="e"><path fill="#ffec2a" fill-opacity=".2" d="M6 3.3q2.4-1.8 4.7-1t3.5 4 .3 6.6-3 5.6Q9.3 20.4 7 19.6q-2.3-.9-3.5-4-1-3.3-.2-6.7.7-3.6 2.8-5.6"/><path fill="#ffec2a" fill-opacity=".2" d="M6.6 4.9q1.8-1.4 3.6-.7t2.7 3 .3 5.2-2.3 4.4q-1.8 1.4-3.7.8-1.8-.7-2.7-3.1-.8-2.5-.2-5.2t2.3-4.4"/><path fill="#fff" fill-opacity=".7" d="M7.3 7q1.2-.9 2.4-.5t1.8 2.1.2 3.5T10 15t-2.4.5q-1.2-.4-1.8-2.1-.6-1.6-.2-3.4.4-1.9 1.5-3"/><path fill="#ffec2a" fill-opacity=".2" d="M2.9 1Q4.2-.5 5.2.5t1 4.1q.2 3.2-.6 6.6-.8 3.5-2.1 5.4-1.4 1.7-2.4.7T0 13q0-3.2.8-6.6.8-3.5 2-5.4"/><path fill="#ffec2a" fill-opacity=".2" d="M2.9 2.7q1-1.3 1.8-.6t.8 3.3q.2 2.5-.5 5.1-.7 2.8-1.7 4.2t-1.8.6Q.8 14.4.7 12q-.1-2.5.6-5.1.5-2.8 1.6-4.3"/><path fill="#fff" fill-opacity=".7" d="M2.9 4.8q.7-.8 1.2-.3t.6 2.2-.5 3.4q-.3 1.8-1 2.8t-1.3.4-.5-2.2.4-3.4q.4-1.9 1.1-2.9"/></g><g id="f"><path fill="#ffec2a" fill-opacity=".1" d="M6 3.3q2.4-1.8 4.7-1t3.5 4 .3 6.6-3 5.6Q9.3 20.4 7 19.6q-2.3-.9-3.5-4-1-3.3-.2-6.7.7-3.6 2.8-5.6"/><path fill="#ffec2a" fill-opacity=".1" d="M6.6 4.9q1.8-1.4 3.6-.7t2.7 3 .3 5.2-2.3 4.4q-1.8 1.4-3.7.8-1.8-.7-2.7-3.1-.8-2.5-.2-5.2t2.3-4.4"/><path fill="#fff" fill-opacity=".4" d="M7.3 7q1.2-.9 2.4-.5t1.8 2.1.2 3.5T10 15t-2.4.5q-1.2-.4-1.8-2.1-.6-1.6-.2-3.4.4-1.9 1.5-3"/><path fill="#ffec2a" fill-opacity=".1" d="M2.9 1Q4.2-.5 5.2.5t1 4.1q.2 3.2-.6 6.6-.8 3.5-2.1 5.4-1.4 1.7-2.4.7T0 13q0-3.2.8-6.6.8-3.5 2-5.4"/><path fill="#ffec2a" fill-opacity=".1" d="M2.9 2.7q1-1.3 1.8-.6t.8 3.3q.2 2.5-.5 5.1-.7 2.8-1.7 4.2t-1.8.6Q.8 14.4.7 12q-.1-2.5.6-5.1.5-2.8 1.6-4.3"/><path fill="#fff" fill-opacity=".4" d="M2.9 4.8q.7-.8 1.2-.3t.6 2.2-.5 3.4q-.3 1.8-1 2.8t-1.3.4-.5-2.2.4-3.4q.4-1.9 1.1-2.9"/></g><g id="g"><path fill="#ffec2a" fill-opacity=".1" d="M6 3.3q2.4-1.8 4.7-1t3.5 4 .3 6.6-3 5.6Q9.3 20.4 7 19.6q-2.3-.9-3.5-4-1-3.3-.2-6.7.7-3.6 2.8-5.6"/><path fill="#ffec2a" fill-opacity=".1" d="M6.6 4.9q1.8-1.4 3.6-.7t2.7 3 .3 5.2-2.3 4.4q-1.8 1.4-3.7.8-1.8-.7-2.7-3.1-.8-2.5-.2-5.2t2.3-4.4"/><path fill="#fff" fill-opacity=".2" d="M7.3 7q1.2-.9 2.4-.5t1.8 2.1.2 3.5T10 15t-2.4.5q-1.2-.4-1.8-2.1-.6-1.6-.2-3.4.4-1.9 1.5-3"/><path fill="#ffec2a" fill-opacity=".1" d="M2.9 1Q4.2-.5 5.2.5t1 4.1q.2 3.2-.6 6.6-.8 3.5-2.1 5.4-1.4 1.7-2.4.7T0 13q0-3.2.8-6.6.8-3.5 2-5.4"/><path fill="#ffec2a" fill-opacity=".1" d="M2.9 2.7q1-1.3 1.8-.6t.8 3.3q.2 2.5-.5 5.1-.7 2.8-1.7 4.2t-1.8.6Q.8 14.4.7 12q-.1-2.5.6-5.1.5-2.8 1.6-4.3"/><path fill="#fff" fill-opacity=".2" d="M2.9 4.8q.7-.8 1.2-.3t.6 2.2-.5 3.4q-.3 1.8-1 2.8t-1.3.4-.5-2.2.4-3.4q.4-1.9 1.1-2.9"/></g><g id="h"><path fill="#ffec2a" fill-opacity="0" d="M6 3.3q2.4-1.8 4.7-1t3.5 4 .3 6.6-3 5.6Q9.3 20.4 7 19.6q-2.3-.9-3.5-4-1-3.3-.2-6.7.7-3.6 2.8-5.6"/><path fill="#ffec2a" fill-opacity="0" d="M6.6 4.9q1.8-1.4 3.6-.7t2.7 3 .3 5.2-2.3 4.4q-1.8 1.4-3.7.8-1.8-.7-2.7-3.1-.8-2.5-.2-5.2t2.3-4.4"/><path fill="#fff" fill-opacity=".1" d="M7.3 7q1.2-.9 2.4-.5t1.8 2.1.2 3.5T10 15t-2.4.5q-1.2-.4-1.8-2.1-.6-1.6-.2-3.4.4-1.9 1.5-3"/><path fill="#ffec2a" fill-opacity="0" d="M2.9 1Q4.2-.5 5.2.5t1 4.1q.2 3.2-.6 6.6-.8 3.5-2.1 5.4-1.4 1.7-2.4.7T0 13q0-3.2.8-6.6.8-3.5 2-5.4"/><path fill="#ffec2a" fill-opacity="0" d="M2.9 2.7q1-1.3 1.8-.6t.8 3.3q.2 2.5-.5 5.1-.7 2.8-1.7 4.2t-1.8.6Q.8 14.4.7 12q-.1-2.5.6-5.1.5-2.8 1.6-4.3"/><path fill="#fff" fill-opacity=".1" d="M2.9 4.8q.7-.8 1.2-.3t.6 2.2-.5 3.4q-.3 1.8-1 2.8t-1.3.4-.5-2.2.4-3.4q.4-1.9 1.1-2.9"/></g><g id="i" fill-opacity="0"><path fill="#ffec2a" d="M6 3.3q2.4-1.8 4.7-1t3.5 4 .3 6.6-3 5.6Q9.3 20.4 7 19.6q-2.3-.9-3.5-4-1-3.3-.2-6.7.7-3.6 2.8-5.6"/><path fill="#ffec2a" d="M6.6 4.9q1.8-1.4 3.6-.7t2.7 3 .3 5.2-2.3 4.4q-1.8 1.4-3.7.8-1.8-.7-2.7-3.1-.8-2.5-.2-5.2t2.3-4.4"/><path fill="#fff" d="M7.3 7q1.2-.9 2.4-.5t1.8 2.1.2 3.5T10 15t-2.4.5q-1.2-.4-1.8-2.1-.6-1.6-.2-3.4.4-1.9 1.5-3"/><path fill="#ffec2a" d="M2.9 1Q4.2-.5 5.2.5t1 4.1q.2 3.2-.6 6.6-.8 3.5-2.1 5.4-1.4 1.7-2.4.7T0 13q0-3.2.8-6.6.8-3.5 2-5.4"/><path fill="#ffec2a" d="M2.9 2.7q1-1.3 1.8-.6t.8 3.3q.2 2.5-.5 5.1-.7 2.8-1.7 4.2t-1.8.6Q.8 14.4.7 12q-.1-2.5.6-5.1.5-2.8 1.6-4.3"/><path fill="#fff" d="M2.9 4.8q.7-.8 1.2-.3t.6 2.2-.5 3.4q-.3 1.8-1 2.8t-1.3.4-.5-2.2.4-3.4q.4-1.9 1.1-2.9"/></g><g id="j" fill-opacity="0"><path fill="#ffec2a" d="M6 3.3q2.4-1.8 4.7-1t3.5 4 .3 6.6-3 5.6Q9.3 20.4 7 19.6q-2.3-.9-3.5-4-1-3.3-.2-6.7.7-3.6 2.8-5.6"/><path fill="#ffec2a" d="M6.6 4.9q1.8-1.4 3.6-.7t2.7 3 .3 5.2-2.3 4.4q-1.8 1.4-3.7.8-1.8-.7-2.7-3.1-.8-2.5-.2-5.2t2.3-4.4"/><path fill="#fff" d="M7.3 7q1.2-.9 2.4-.5t1.8 2.1.2 3.5T10 15t-2.4.5q-1.2-.4-1.8-2.1-.6-1.6-.2-3.4.4-1.9 1.5-3"/><path fill="#ffec2a" d="M2.9 1Q4.2-.5 5.2.5t1 4.1q.2 3.2-.6 6.6-.8 3.5-2.1 5.4-1.4 1.7-2.4.7T0 13q0-3.2.8-6.6.8-3.5 2-5.4"/><path fill="#ffec2a" d="M2.9 2.7q1-1.3 1.8-.6t.8 3.3q.2 2.5-.5 5.1-.7 2.8-1.7 4.2t-1.8.6Q.8 14.4.7 12q-.1-2.5.6-5.1.5-2.8 1.6-4.3"/><path fill="#fff" d="M2.9 4.8q.7-.8 1.2-.3t.6 2.2-.5 3.4q-.3 1.8-1 2.8t-1.3.4-.5-2.2.4-3.4q.4-1.9 1.1-2.9"/></g><g id="p"><path fill="#83b0c4" d="M14.5 6.1v2.3q-.4 3.1-2.9 5.4T6 16 .9 13.8l-.8-1v-2.4q.2-3 2.7-5.4 2.5-2.2 5.7-2.2T13.7 5z"/><path fill="#628392" d="m.1 12.8.8 1Q2.9 16 6 16t5.7-2.2 2.9-5.5l-.1-2.2q1.1 1.9.9 4.4-.4 3.1-2.9 5.4T6.9 18t-5.2-2.3q-1.3-1.4-1.6-3"/><path fill="none" stroke="#000" stroke-linecap="round" stroke-linejoin="round" stroke-opacity=".3" stroke-width="__RESOLUTION__" d="m14.5 6.1-.8-1q-2-2.3-5.1-2.3T2.8 5 .1 10.5v2.2q.3 1.7 1.6 3.2 2 2.2 5.2 2.2t5.6-2.2 2.9-5.4q.2-2.5-1-4.4" vector-effect="non-scaling-stroke"/><path fill="#fff" d="m14.9 12.3-1.6 1.6q-1.2.9-2 .4t-.8-2 1-3.3l.4-.7z"/><path fill="none" stroke="#000" stroke-linecap="round" stroke-linejoin="round" stroke-opacity=".3" stroke-width="__RESOLUTION__" d="m14.9 12.3-1.6 1.6q-1.2.9-2 .4t-.8-2 1-3.3l.4-.7z" vector-effect="non-scaling-stroke"/><path fill="#83b0c4" d="M3.6 6 .8 1l4.8 2.6L8.4 0v4z"/><path fill="none" stroke="#000" stroke-linecap="round" stroke-linejoin="round" stroke-opacity=".3" stroke-width="__RESOLUTION__" d="M8.5 4V0l-3 3.6L.8 1l2.8 5" vector-effect="non-scaling-stroke"/></g><g id="o"><path fill="#232c37" d="m7.4 2.8-.5.5Q3.9 5.5.4 4.7-.2 4.5 0 4q.2-1.8 2.2-2.3 1.1-.3 2-1 2.1-1.8 3.4 1 .2.6-.2 1"/><path fill="none" stroke="#000" stroke-linecap="round" stroke-linejoin="round" stroke-opacity=".3" stroke-width="__RESOLUTION__" d="m7.4 2.8-.5.5Q3.9 5.5.4 4.7-.2 4.5 0 4q.2-1.8 2.2-2.3 1.1-.3 2-1 2.1-1.8 3.4 1 .2.6-.2 1" vector-effect="non-scaling-stroke"/></g><g id="n"><path fill="#425267" d="m7.4 2.8-.5.5Q3.9 5.5.4 4.7-.2 4.5 0 4q.2-1.8 2.2-2.3 1.1-.3 2-1 2.1-1.8 3.4 1 .2.6-.2 1"/><path fill="none" stroke="#000" stroke-linecap="round" stroke-linejoin="round" stroke-opacity=".3" stroke-width="__RESOLUTION__" d="m7.4 2.8-.5.5Q3.9 5.5.4 4.7-.2 4.5 0 4q.2-1.8 2.2-2.3 1.1-.3 2-1 2.1-1.8 3.4 1 .2.6-.2 1" vector-effect="non-scaling-stroke"/></g><use xlink:href="#a" id="au" width="14.8" height="19.9"/><use xlink:href="#b" id="as" width="14.8" height="19.9"/><use xlink:href="#c" id="aq" width="14.8" height="19.9"/><use xlink:href="#d" id="U" width="14.8" height="19.9"/><use xlink:href="#e" id="S" width="14.8" height="19.9"/><use xlink:href="#f" id="Q" width="14.8" height="19.9"/><use xlink:href="#g" id="O" width="14.8" height="19.9"/><use xlink:href="#h" id="M" width="14.8" height="19.9"/><use xlink:href="#i" id="K" width="14.8" height="19.9"/><use xlink:href="#j" id="I" width="14.8" height="19.9"/><use xlink:href="#k" id="m" width="11.3" height="5"/><path id="k" fill="#382c16" d="M0-2.5q2.4 0 4 .8 1.6.6 1.7 1.7Q5.6 1.1 4 1.9t-4 .7-4-.8T-5.6 0t1.7-1.8T0-2.5" transform="translate(5.6 2.5)"/></defs><g clip-path="url(#l)"><g transform="translate(10.45 28.85)"><use xlink:href="#m" width="11.3" height="5" transform="translate(-5.25 -2.15)"/><use xlink:href="#n" width="7.7" height="4.8" transform="matrix(-.7462 .6441 1.0887 .8073 4.95 -4.1)"/><use xlink:href="#o" width="7.7" height="4.8" transform="matrix(-1.092 -.0398 .0482 -1.1286 2 .85)"/><use xlink:href="#p" width="15.4" height="18.1" transform="matrix(1 0 .1653 .9862 -9.25 -19.3)"/></g></g><g clip-path="url(#q)"><g transform="translate(36.45 28.85)"><use xlink:href="#m" width="11.3" height="5" transform="translate(-5.25 -2.15)"/><use xlink:href="#n" width="7.7" height="4.8" transform="matrix(-.7462 .6441 1.0887 .8073 4.95 -4.1)"/><use xlink:href="#o" width="7.7" height="4.8" transform="matrix(-1.092 -.0398 .0482 -1.1286 2 .85)"/><use xlink:href="#p" width="15.4" height="18.1" transform="matrix(1 0 .1571 .9382 -9.25 -18.05)"/></g></g><g clip-path="url(#r)"><g transform="translate(62.45 28.85)"><use xlink:href="#m" width="11.3" height="5" transform="translate(-5.25 -2.15)"/><use xlink:href="#n" width="7.7" height="4.8" transform="matrix(-.7462 .6441 1.0887 .8073 4.95 -4.1)"/><use xlink:href="#o" width="7.7" height="4.8" transform="matrix(-1.092 -.0398 .0482 -1.1286 2 .85)"/><use xlink:href="#p" width="15.4" height="18.1" transform="matrix(1 0 .1498 .8942 -9.3 -16.95)"/></g></g><g clip-path="url(#s)"><g transform="translate(88.45 28.85)"><use xlink:href="#m" width="11.3" height="5" transform="translate(-5.25 -2.15)"/><use xlink:href="#n" width="7.7" height="4.8" transform="matrix(-.7462 .6441 1.0887 .8073 4.95 -4.1)"/><use xlink:href="#o" width="7.7" height="4.8" transform="matrix(-1.092 -.0398 .0482 -1.1286 2 .85)"/><use xlink:href="#p" width="15.4" height="18.1" transform="matrix(1 0 .143 .8537 -9.3 -15.9)"/></g></g><g clip-path="url(#t)"><g transform="translate(114.45 28.85)"><use xlink:href="#m" width="11.3" height="5" transform="translate(-5.25 -2.15)"/><use xlink:href="#n" width="7.7" height="4.8" transform="matrix(-.7462 .6441 1.0887 .8073 4.95 -4.1)"/><use xlink:href="#o" width="7.7" height="4.8" transform="matrix(-1.092 -.0398 .0482 -1.1286 2 .85)"/><use xlink:href="#p" width="15.4" height="18.1" transform="matrix(1 0 .1368 .8167 -9.3 -14.95)"/></g></g><g clip-path="url(#u)"><g transform="translate(140.45 28.85)"><use xlink:href="#m" width="11.3" height="5" transform="translate(-5.25 -2.15)"/><use xlink:href="#n" width="7.7" height="4.8" transform="matrix(-.7462 .6441 1.0887 .8073 4.95 -4.1)"/><use xlink:href="#o" width="7.7" height="4.8" transform="matrix(-1.092 -.0398 .0482 -1.1286 2 .85)"/><use xlink:href="#p" width="15.4" height="18.1" transform="matrix(1 0 .1312 .7833 -9.3 -14.1)"/></g></g><g clip-path="url(#v)"><g transform="translate(166.45 28.85)"><use xlink:href="#m" width="11.3" height="5" transform="translate(-5.25 -2.15)"/><use xlink:href="#n" width="7.7" height="4.8" transform="matrix(-.7462 .6441 1.0887 .8073 4.95 -4.1)"/><use xlink:href="#o" width="7.7" height="4.8" transform="matrix(-1.092 -.0398 .0482 -1.1286 2 .85)"/><use xlink:href="#p" width="15.4" height="18.1" transform="matrix(1 0 .1262 .7533 -9.35 -13.3)"/></g></g><g clip-path="url(#w)"><g transform="translate(192.45 28.85)"><use xlink:href="#m" width="11.3" height="5" transform="translate(-5.25 -2.15)"/><use xlink:href="#n" width="7.7" height="4.8" transform="matrix(-.7462 .6441 1.0887 .8073 4.95 -4.1)"/><use xlink:href="#o" width="7.7" height="4.8" transform="matrix(-1.092 -.0398 .0482 -1.1286 2 .85)"/><use xlink:href="#p" width="15.4" height="18.1" transform="matrix(1 0 .1218 .727 -9.35 -12.7)"/></g></g><g clip-path="url(#x)"><g transform="translate(218.45 28.85)"><use xlink:href="#m" width="11.3" height="5" transform="translate(-5.25 -2.15)"/><use xlink:href="#n" width="7.7" height="4.8" transform="matrix(-.7462 .6441 1.0887 .8073 4.95 -4.1)"/><use xlink:href="#o" width="7.7" height="4.8" transform="matrix(-1.092 -.0398 .0482 -1.1286 2 .85)"/><use xlink:href="#p" width="15.4" height="18.1" transform="matrix(1 0 .1179 .7041 -9.35 -12.1)"/></g></g><g clip-path="url(#y)"><g transform="translate(244.45 28.85)"><use xlink:href="#m" width="11.3" height="5" transform="translate(-5.25 -2.15)"/><use xlink:href="#n" width="7.7" height="4.8" transform="matrix(-.7462 .6441 1.0887 .8073 4.95 -4.1)"/><use xlink:href="#o" width="7.7" height="4.8" transform="matrix(-1.092 -.0398 .0482 -1.1286 2 .85)"/><use xlink:href="#p" width="15.4" height="18.1" transform="matrix(1 0 .1147 .6847 -9.35 -11.6)"/></g></g><g clip-path="url(#z)"><g transform="translate(270.45 28.85)"><use xlink:href="#m" width="11.3" height="5" transform="translate(-5.25 -2.15)"/><use xlink:href="#n" width="7.7" height="4.8" transform="matrix(-.7462 .6441 1.0887 .8073 4.95 -4.1)"/><use xlink:href="#o" width="7.7" height="4.8" transform="matrix(-1.092 -.0398 .0482 -1.1286 2 .85)"/><use xlink:href="#p" width="15.4" height="18.1" transform="matrix(1 0 .112 .6689 -9.4 -11.2)"/></g></g><g clip-path="url(#A)"><g transform="translate(296.45 28.85)"><use xlink:href="#m" width="11.3" height="5" transform="translate(-5.25 -2.15)"/><use xlink:href="#n" width="7.7" height="4.8" transform="matrix(-.7462 .6441 1.0887 .8073 4.95 -4.1)"/><use xlink:href="#o" width="7.7" height="4.8" transform="matrix(-1.092 -.0398 .0482 -1.1286 2 .85)"/><use xlink:href="#p" width="15.4" height="18.1" transform="matrix(1 0 .11 .6566 -9.4 -10.85)"/></g></g><g clip-path="url(#B)"><g transform="translate(322.45 28.85)"><use xlink:href="#m" width="11.3" height="5" transform="translate(-5.25 -2.15)"/><use xlink:href="#n" width="7.7" height="4.8" transform="matrix(-.7462 .6441 1.0887 .8073 4.95 -4.1)"/><use xlink:href="#o" width="7.7" height="4.8" transform="matrix(-1.092 -.0398 .0482 -1.1286 2 .85)"/><use xlink:href="#p" width="15.4" height="18.1" transform="matrix(1 0 .1085 .6478 -9.4 -10.65)"/></g></g><g clip-path="url(#C)"><g transform="translate(348.45 28.85)"><use xlink:href="#m" width="11.3" height="5" transform="translate(-5.25 -2.15)"/><use xlink:href="#n" width="7.7" height="4.8" transform="matrix(-.7462 .6441 1.0887 .8073 4.95 -4.1)"/><use xlink:href="#o" width="7.7" height="4.8" transform="matrix(-1.092 -.0398 .0482 -1.1286 2 .85)"/><use xlink:href="#p" width="15.4" height="18.1" transform="matrix(1 0 .1076 .6425 -9.45 -10.5)"/></g></g><g clip-path="url(#D)"><g transform="translate(374.45 28.85)"><use xlink:href="#m" width="11.3" height="5" transform="translate(-5.25 -2.15)"/><use xlink:href="#n" width="7.7" height="4.8" transform="matrix(-.7462 .6441 1.0887 .8073 4.95 -4.1)"/><use xlink:href="#o" width="7.7" height="4.8" transform="matrix(-1.092 -.0398 .0482 -1.1286 2 .85)"/><use xlink:href="#p" width="15.4" height="18.1" transform="matrix(1 0 .1074 .641 -9.4 -10.45)"/></g></g><g clip-path="url(#E)"><g transform="translate(400.45 28.85)"><use xlink:href="#m" width="11.3" height="5" transform="translate(-5.25 -2.15)"/><use xlink:href="#n" width="7.7" height="4.8" transform="matrix(-.7462 .6441 1.0887 .8073 4.95 -4.1)"/><use xlink:href="#o" width="7.7" height="4.8" transform="matrix(-1.092 -.0398 .0482 -1.1286 2 .85)"/><use xlink:href="#p" width="15.4" height="18.1" transform="matrix(.9995 0 .1085 .6478 -9.3 -10.7)"/></g></g><g clip-path="url(#F)"><g transform="translate(426.45 28.85)"><use xlink:href="#m" width="11.3" height="5" transform="translate(-5.25 -2.15)"/><use xlink:href="#n" width="7.7" height="4.8" transform="matrix(-.7462 .6441 1.0887 .8073 4.95 -4.1)"/><use xlink:href="#o" width="7.7" height="4.8" transform="matrix(-1.092 -.0398 .0482 -1.1286 2 .85)"/><use xlink:href="#p" width="15.4" height="18.1" transform="matrix(.9981 0 .112 .6689 -9.35 -11.15)"/></g></g><g clip-path="url(#G)"><g transform="translate(452.45 28.85)"><use xlink:href="#m" width="11.3" height="5" transform="translate(-5.25 -2.15)"/><use xlink:href="#n" width="7.7" height="4.8" transform="matrix(-.7462 .6441 1.0887 .8073 4.95 -4.1)"/><use xlink:href="#o" width="7.7" height="4.8" transform="matrix(-1.092 -.0398 .0482 -1.1286 2 .85)"/><use xlink:href="#p" width="15.4" height="18.1" transform="matrix(.9958 0 .1179 .7041 -9.3 -12)"/></g></g><g clip-path="url(#H)"><g transform="translate(478.45 28.85)"><use xlink:href="#I" width="14.8" height="19.9" transform="matrix(1 0 0 1.0269 -.25 -14.75)"/><use xlink:href="#m" width="11.3" height="5" transform="translate(-5.25 -2.15)"/><use xlink:href="#n" width="7.7" height="4.8" transform="matrix(-.7462 .6441 1.0887 .8073 4.95 -4.1)"/><use xlink:href="#o" width="7.7" height="4.8" transform="matrix(-1.092 -.0398 .0482 -1.1286 2 .85)"/><use xlink:href="#p" width="15.4" height="18.1" transform="matrix(.9925 0 .1262 .7533 -9.2 -13.2)"/></g></g><g clip-path="url(#J)"><g transform="translate(504.45 28.85)"><use xlink:href="#K" width="14.8" height="19.9" transform="matrix(1 0 0 1.0318 -.25 -15)"/><use xlink:href="#m" width="11.3" height="5" transform="translate(-5.25 -2.15)"/><use xlink:href="#n" width="7.7" height="4.8" transform="matrix(-.7462 .6441 1.0887 .8073 4.95 -4.1)"/><use xlink:href="#o" width="7.7" height="4.8" transform="matrix(-1.092 -.0398 .0482 -1.1286 2 .85)"/><use xlink:href="#p" width="15.4" height="18.1" transform="matrix(.9883 0 .1368 .8167 -9.15 -14.75)"/></g></g><g clip-path="url(#L)"><g transform="translate(530.45 28.85)"><use xlink:href="#M" width="14.8" height="19.9" transform="matrix(1 0 0 1.0465 -.25 -15.9)"/><use xlink:href="#m" width="11.3" height="5" transform="translate(-5.25 -2.15)"/><use xlink:href="#n" width="7.7" height="4.8" transform="matrix(-.7462 .6441 1.0887 .8073 4.95 -4.1)"/><use xlink:href="#o" width="7.7" height="4.8" transform="matrix(-1.092 -.0398 .0482 -1.1286 2 .85)"/><use xlink:href="#p" width="15.4" height="18.1" transform="matrix(.9831 0 .1498 .8941 -9.2 -16.7)"/></g></g><g clip-path="url(#N)"><g transform="translate(556.45 28.85)"><use xlink:href="#O" width="14.8" height="19.9" transform="matrix(1 0 0 1.0711 -.2 -17.25)"/><use xlink:href="#m" width="11.3" height="5" transform="translate(-5.25 -2.15)"/><use xlink:href="#n" width="7.7" height="4.8" transform="matrix(-.7462 .6441 1.0887 .8073 4.95 -4.1)"/><use xlink:href="#o" width="7.7" height="4.8" transform="matrix(-1.092 -.0398 .0482 -1.1286 2 .85)"/><use xlink:href="#p" width="15.4" height="18.1" transform="matrix(.977 0 .1651 .9856 -9 -19)"/></g></g><g clip-path="url(#P)"><g transform="translate(582.45 28.85)"><use xlink:href="#Q" width="14.8" height="19.9" transform="matrix(1 0 0 1.1055 -.15 -19.15)"/><use xlink:href="#m" width="11.3" height="5" transform="translate(-5.25 -2.15)"/><use xlink:href="#n" width="7.7" height="4.8" transform="matrix(-.7462 .6441 1.0887 .8073 4.95 -4.1)"/><use xlink:href="#o" width="7.7" height="4.8" transform="matrix(-1.092 -.0398 .0482 -1.1286 2 .85)"/><use xlink:href="#p" width="15.4" height="18.1" transform="matrix(.9699 0 .1828 1.0912 -8.9 -21.55)"/></g></g><g clip-path="url(#R)"><g transform="translate(608.45 28.85)"><use xlink:href="#S" width="14.8" height="19.9" transform="matrix(1 0 0 1.1498 -.1 -21.65)"/><use xlink:href="#m" width="11.3" height="5" transform="translate(-5.25 -2.15)"/><use xlink:href="#n" width="7.7" height="4.8" transform="matrix(-.7462 .6441 1.0887 .8073 4.95 -4.1)"/><use xlink:href="#o" width="7.7" height="4.8" transform="matrix(-1.092 -.0398 .0482 -1.1286 2 .85)"/><use xlink:href="#p" width="15.4" height="18.1" transform="matrix(.9619 0 .2028 1.2108 -8.75 -24.5)"/></g></g><g clip-path="url(#T)"><g transform="translate(634.45 28.85)"><use xlink:href="#U" width="14.8" height="19.9" transform="matrix(1 0 0 1.2039 -.05 -24.65)"/><use xlink:href="#m" width="11.3" height="5" transform="translate(-5.25 -2.15)"/><use xlink:href="#n" width="7.7" height="4.8" transform="matrix(-.7462 .6441 1.0887 .8073 4.95 -4.1)"/><use xlink:href="#o" width="7.7" height="4.8" transform="matrix(-1.092 -.0398 .0482 -1.1286 2 .85)"/><use xlink:href="#p" width="15.4" height="18.1" transform="matrix(.953 0 .2254 1.3452 -8.65 -27.85)"/></g></g><g clip-path="url(#V)"><g transform="translate(660.45 28.85)"><use xlink:href="#U" width="14.8" height="19.9" transform="matrix(1 0 0 1.2038 -.05 -24.65)"/><use xlink:href="#m" width="11.3" height="5" transform="translate(-5.25 -2.15)"/><use xlink:href="#n" width="7.7" height="4.8" transform="matrix(-.7462 .6441 1.0887 .8073 4.95 -4.1)"/><use xlink:href="#o" width="7.7" height="4.8" transform="matrix(-1.092 -.0398 .0482 -1.1286 2 .85)"/><use xlink:href="#p" width="15.4" height="18.1" transform="matrix(.953 0 .2252 1.3444 -8.65 -27.85)"/></g></g><g clip-path="url(#W)"><g transform="translate(686.45 28.85)"><use xlink:href="#U" width="14.8" height="19.9" transform="matrix(1 0 0 1.2036 -.05 -24.65)"/><use xlink:href="#m" width="11.3" height="5" transform="translate(-5.25 -2.15)"/><use xlink:href="#n" width="7.7" height="4.8" transform="matrix(-.7462 .6441 1.0887 .8073 4.95 -4.1)"/><use xlink:href="#o" width="7.7" height="4.8" transform="matrix(-1.092 -.0398 .0482 -1.1286 2 .85)"/><use xlink:href="#p" width="15.4" height="18.1" transform="matrix(.953 0 .2251 1.344 -8.65 -27.8)"/></g></g><g clip-path="url(#X)"><g transform="translate(712.45 28.85)"><use xlink:href="#U" width="14.8" height="19.9" transform="matrix(1 0 0 1.2031 -.05 -24.65)"/><use xlink:href="#m" width="11.3" height="5" transform="translate(-5.25 -2.15)"/><use xlink:href="#n" width="7.7" height="4.8" transform="matrix(-.7462 .6441 1.0887 .8073 4.95 -4.1)"/><use xlink:href="#o" width="7.7" height="4.8" transform="matrix(-1.092 -.0398 .0482 -1.1286 2 .85)"/><use xlink:href="#p" width="15.4" height="18.1" transform="matrix(.9531 0 .225 1.3434 -8.7 -27.8)"/></g></g><g clip-path="url(#Y)"><g transform="translate(738.45 28.85)"><use xlink:href="#U" width="14.8" height="19.9" transform="matrix(1 0 0 1.2025 -.05 -24.55)"/><use xlink:href="#m" width="11.3" height="5" transform="translate(-5.25 -2.15)"/><use xlink:href="#n" width="7.7" height="4.8" transform="matrix(-.7462 .6441 1.0887 .8073 4.95 -4.1)"/><use xlink:href="#o" width="7.7" height="4.8" transform="matrix(-1.092 -.0398 .0482 -1.1286 2 .85)"/><use xlink:href="#p" width="15.4" height="18.1" transform="matrix(.9532 0 .2249 1.3425 -8.7 -27.8)"/></g></g><g clip-path="url(#Z)"><g transform="translate(764.45 28.85)"><use xlink:href="#U" width="14.8" height="19.9" transform="matrix(1 0 0 1.2016 -.05 -24.55)"/><use xlink:href="#m" width="11.3" height="5" transform="translate(-5.25 -2.15)"/><use xlink:href="#n" width="7.7" height="4.8" transform="matrix(-.7462 .6441 1.0887 .8073 4.95 -4.1)"/><use xlink:href="#o" width="7.7" height="4.8" transform="matrix(-1.092 -.0398 .0482 -1.1286 2 .85)"/><use xlink:href="#p" width="15.4" height="18.1" transform="matrix(.9534 0 .2247 1.3413 -8.7 -27.75)"/></g></g><g clip-path="url(#aa)"><g transform="translate(790.45 28.85)"><use xlink:href="#U" width="14.8" height="19.9" transform="matrix(1 0 0 1.2006 -.05 -24.5)"/><use xlink:href="#m" width="11.3" height="5" transform="translate(-5.25 -2.15)"/><use xlink:href="#n" width="7.7" height="4.8" transform="matrix(-.7462 .6441 1.0887 .8073 4.95 -4.1)"/><use xlink:href="#o" width="7.7" height="4.8" transform="matrix(-1.092 -.0398 .0482 -1.1286 2 .85)"/><use xlink:href="#p" width="15.4" height="18.1" transform="matrix(.9536 0 .2244 1.3398 -8.65 -27.65)"/></g></g><g clip-path="url(#ab)"><g transform="translate(816.45 28.85)"><use xlink:href="#U" width="14.8" height="19.9" transform="matrix(1 0 0 1.1992 -.05 -24.5)"/><use xlink:href="#m" width="11.3" height="5" transform="translate(-5.25 -2.15)"/><use xlink:href="#n" width="7.7" height="4.8" transform="matrix(-.7462 .6441 1.0887 .8073 4.95 -4.1)"/><use xlink:href="#o" width="7.7" height="4.8" transform="matrix(-1.092 -.0398 .0482 -1.1286 2 .85)"/><use xlink:href="#p" width="15.4" height="18.1" transform="matrix(.9538 0 .2241 1.3379 -8.65 -27.65)"/></g></g><g clip-path="url(#ac)"><g transform="translate(842.45 28.85)"><use xlink:href="#U" width="14.8" height="19.9" transform="matrix(1 0 0 1.1977 -.05 -24.45)"/><use xlink:href="#m" width="11.3" height="5" transform="translate(-5.25 -2.15)"/><use xlink:href="#n" width="7.7" height="4.8" transform="matrix(-.7462 .6441 1.0887 .8073 4.95 -4.1)"/><use xlink:href="#o" width="7.7" height="4.8" transform="matrix(-1.092 -.0398 .0482 -1.1286 2 .85)"/><use xlink:href="#p" width="15.4" height="18.1" transform="matrix(.9541 0 .2237 1.3355 -8.65 -27.55)"/></g></g><g clip-path="url(#ad)"><g transform="translate(868.45 28.85)"><use xlink:href="#U" width="14.8" height="19.9" transform="matrix(1 0 0 1.1958 -.05 -24.35)"/><use xlink:href="#m" width="11.3" height="5" transform="translate(-5.25 -2.15)"/><use xlink:href="#n" width="7.7" height="4.8" transform="matrix(-.7462 .6441 1.0887 .8073 4.95 -4.1)"/><use xlink:href="#o" width="7.7" height="4.8" transform="matrix(-1.092 -.0398 .0482 -1.1286 2 .85)"/><use xlink:href="#p" width="15.4" height="18.1" transform="matrix(.9545 0 .2232 1.3326 -8.65 -27.55)"/></g></g><g clip-path="url(#ae)"><g transform="translate(894.45 28.85)"><use xlink:href="#U" width="14.8" height="19.9" transform="matrix(1 0 0 1.1936 -.05 -24.3)"/><use xlink:href="#m" width="11.3" height="5" transform="translate(-5.25 -2.15)"/><use xlink:href="#n" width="7.7" height="4.8" transform="matrix(-.7462 .6441 1.0887 .8073 4.95 -4.1)"/><use xlink:href="#o" width="7.7" height="4.8" transform="matrix(-1.092 -.0398 .0482 -1.1286 2 .85)"/><use xlink:href="#p" width="15.4" height="18.1" transform="matrix(.955 0 .2226 1.3292 -8.65 -27.5)"/></g></g><g clip-path="url(#af)"><g transform="translate(920.45 28.85)"><use xlink:href="#U" width="14.8" height="19.9" transform="matrix(1 0 0 1.1911 -.05 -24.2)"/><use xlink:href="#m" width="11.3" height="5" transform="translate(-5.25 -2.15)"/><use xlink:href="#n" width="7.7" height="4.8" transform="matrix(-.7462 .6441 1.0887 .8073 4.95 -4.1)"/><use xlink:href="#o" width="7.7" height="4.8" transform="matrix(-1.092 -.0398 .0482 -1.1286 2 .85)"/><use xlink:href="#p" width="15.4" height="18.1" transform="matrix(.9555 0 .222 1.3252 -8.7 -27.4)"/></g></g><g clip-path="url(#ag)"><g transform="translate(946.45 28.85)"><use xlink:href="#U" width="14.8" height="19.9" transform="matrix(1 0 0 1.1882 -.05 -24.1)"/><use xlink:href="#m" width="11.3" height="5" transform="translate(-5.25 -2.15)"/><use xlink:href="#n" width="7.7" height="4.8" transform="matrix(-.7462 .6441 1.0887 .8073 4.95 -4.1)"/><use xlink:href="#o" width="7.7" height="4.8" transform="matrix(-1.092 -.0398 .0482 -1.1286 2 .85)"/><use xlink:href="#p" width="15.4" height="18.1" transform="matrix(.9561 0 .2212 1.3204 -8.75 -27.2)"/></g></g><g clip-path="url(#ah)"><g transform="translate(972.45 28.85)"><use xlink:href="#U" width="14.8" height="19.9" transform="matrix(1 0 0 1.185 -.05 -24)"/><use xlink:href="#m" width="11.3" height="5" transform="translate(-5.25 -2.15)"/><use xlink:href="#n" width="7.7" height="4.8" transform="matrix(-.7462 .6441 1.0887 .8073 4.95 -4.1)"/><use xlink:href="#o" width="7.7" height="4.8" transform="matrix(-1.092 -.0398 .0482 -1.1286 2 .85)"/><use xlink:href="#p" width="15.4" height="18.1" transform="matrix(.9569 0 .2202 1.3147 -8.75 -27.1)"/></g></g><g clip-path="url(#ai)"><g transform="translate(998.45 28.85)"><use xlink:href="#U" width="14.8" height="19.9" transform="matrix(1 0 0 1.1812 -.05 -23.8)"/><use xlink:href="#m" width="11.3" height="5" transform="translate(-5.25 -2.15)"/><use xlink:href="#n" width="7.7" height="4.8" transform="matrix(-.7462 .6441 1.0887 .8073 4.95 -4.1)"/><use xlink:href="#o" width="7.7" height="4.8" transform="matrix(-1.092 -.0398 .0482 -1.1286 2 .85)"/><use xlink:href="#p" width="15.4" height="18.1" transform="matrix(.9578 0 .2191 1.3079 -8.75 -27)"/></g></g><g clip-path="url(#aj)"><g transform="translate(1024.45 28.85)"><use xlink:href="#U" width="14.8" height="19.9" transform="matrix(1 0 0 1.177 -.05 -23.65)"/><use xlink:href="#m" width="11.3" height="5" transform="translate(-5.25 -2.15)"/><use xlink:href="#n" width="7.7" height="4.8" transform="matrix(-.7462 .6441 1.0887 .8073 4.95 -4.1)"/><use xlink:href="#o" width="7.7" height="4.8" transform="matrix(-1.092 -.0398 .0482 -1.1286 2 .85)"/><use xlink:href="#p" width="15.4" height="18.1" transform="matrix(.9588 0 .2177 1.2998 -8.8 -26.75)"/></g></g><g clip-path="url(#ak)"><g transform="translate(1050.45 28.85)"><use xlink:href="#U" width="14.8" height="19.9" transform="matrix(1 0 0 1.1722 -.1 -23.5)"/><use xlink:href="#m" width="11.3" height="5" transform="translate(-5.25 -2.15)"/><use xlink:href="#n" width="7.7" height="4.8" transform="matrix(-.7462 .6441 1.0887 .8073 4.95 -4.1)"/><use xlink:href="#o" width="7.7" height="4.8" transform="matrix(-1.092 -.0398 .0482 -1.1286 2 .85)"/><use xlink:href="#p" width="15.4" height="18.1" transform="matrix(.9601 0 .2161 1.29 -8.8 -26.5)"/></g></g><g clip-path="url(#al)"><g transform="translate(1076.45 28.85)"><use xlink:href="#U" width="14.8" height="19.9" transform="matrix(1 0 0 1.1667 -.1 -23.3)"/><use xlink:href="#m" width="11.3" height="5" transform="translate(-5.25 -2.15)"/><use xlink:href="#n" width="7.7" height="4.8" transform="matrix(-.7462 .6441 1.0887 .8073 4.95 -4.1)"/><use xlink:href="#o" width="7.7" height="4.8" transform="matrix(-1.092 -.0398 .0482 -1.1286 2 .85)"/><use xlink:href="#p" width="15.4" height="18.1" transform="matrix(.9617 0 .2141 1.2781 -8.8 -26.25)"/></g></g><g clip-path="url(#am)"><g transform="translate(1102.45 28.85)"><use xlink:href="#U" width="14.8" height="19.9" transform="matrix(1 0 0 1.1606 -.1 -23.15)"/><use xlink:href="#m" width="11.3" height="5" transform="translate(-5.25 -2.15)"/><use xlink:href="#n" width="7.7" height="4.8" transform="matrix(-.7462 .6441 1.0887 .8073 4.95 -4.1)"/><use xlink:href="#o" width="7.7" height="4.8" transform="matrix(-1.092 -.0398 .0482 -1.1286 2 .85)"/><use xlink:href="#p" width="15.4" height="18.1" transform="matrix(.9636 0 .2116 1.2631 -8.85 -25.85)"/></g></g><g clip-path="url(#an)"><g transform="translate(1128.45 28.85)"><use xlink:href="#U" width="14.8" height="19.9" transform="matrix(1 0 0 1.1535 -.1 -22.9)"/><use xlink:href="#m" width="11.3" height="5" transform="translate(-5.25 -2.15)"/><use xlink:href="#n" width="7.7" height="4.8" transform="matrix(-.7462 .6441 1.0887 .8073 4.95 -4.1)"/><use xlink:href="#o" width="7.7" height="4.8" transform="matrix(-1.092 -.0398 .0482 -1.1286 2 .85)"/><use xlink:href="#p" width="15.4" height="18.1" transform="matrix(.9662 0 .2083 1.2438 -8.85 -25.4)"/></g></g><g clip-path="url(#ao)"><g transform="translate(1154.45 28.85)"><use xlink:href="#U" width="14.8" height="19.9" transform="matrix(1 0 0 1.1456 -.1 -22.6)"/><use xlink:href="#m" width="11.3" height="5" transform="translate(-5.25 -2.15)"/><use xlink:href="#n" width="7.7" height="4.8" transform="matrix(-.7462 .6441 1.0887 .8073 4.95 -4.1)"/><use xlink:href="#o" width="7.7" height="4.8" transform="matrix(-1.092 -.0398 .0482 -1.1286 2 .85)"/><use xlink:href="#p" width="15.4" height="18.1" transform="matrix(.9696 0 .204 1.2179 -8.8 -24.8)"/></g></g><g clip-path="url(#ap)"><g transform="translate(1180.45 28.85)"><use xlink:href="#aq" width="14.8" height="19.9" transform="matrix(1 0 0 1.1258 -.1 -21.9)"/><use xlink:href="#m" width="11.3" height="5" transform="translate(-5.25 -2.15)"/><use xlink:href="#n" width="7.7" height="4.8" transform="matrix(-.7462 .6441 1.0887 .8073 4.95 -4.1)"/><use xlink:href="#o" width="7.7" height="4.8" transform="matrix(-1.092 -.0398 .0482 -1.1286 2 .85)"/><use xlink:href="#p" width="15.4" height="18.1" transform="matrix(.9743 0 .1979 1.1814 -8.9 -23.95)"/></g></g><g clip-path="url(#ar)"><g transform="translate(1206.45 28.85)"><use xlink:href="#as" width="14.8" height="19.9" transform="matrix(1 0 0 1.099 -.1 -21)"/><use xlink:href="#m" width="11.3" height="5" transform="translate(-5.25 -2.15)"/><use xlink:href="#n" width="7.7" height="4.8" transform="matrix(-.7462 .6441 1.0887 .8073 4.95 -4.1)"/><use xlink:href="#o" width="7.7" height="4.8" transform="matrix(-1.092 -.0398 .0482 -1.1286 2 .85)"/><use xlink:href="#p" width="15.4" height="18.1" transform="matrix(.9808 0 .1896 1.1319 -9 -22.7)"/></g></g><g clip-path="url(#at)"><g transform="translate(1232.45 28.85)"><use xlink:href="#au" width="14.8" height="19.9" transform="matrix(1 0 0 1.0605 -.15 -19.6)"/><use xlink:href="#m" width="11.3" height="5" transform="translate(-5.25 -2.15)"/><use xlink:href="#n" width="7.7" height="4.8" transform="matrix(-.7462 .6441 1.0887 .8073 4.95 -4.1)"/><use xlink:href="#o" width="7.7" height="4.8" transform="matrix(-1.092 -.0398 .0482 -1.1286 2 .85)"/><use xlink:href="#p" width="15.4" height="18.1" transform="matrix(.9873 0 .1813 1.0824 -9.15 -21.55)"/></g></g><g clip-path="url(#av)"><g transform="translate(1258.45 28.85)"><use xlink:href="#I" width="14.8" height="19.9" transform="translate(-.15 -17.6)"/><use xlink:href="#m" width="11.3" height="5" transform="translate(-5.25 -2.15)"/><use xlink:href="#n" width="7.7" height="4.8" transform="matrix(-.7462 .6441 1.0887 .8073 4.95 -4.1)"/><use xlink:href="#o" width="7.7" height="4.8" transform="matrix(-1.092 -.0398 .0482 -1.1286 2 .85)"/><use xlink:href="#p" width="15.4" height="18.1" transform="matrix(.9921 0 .1752 1.0458 -9.15 -20.7)"/></g></g><g clip-path="url(#aw)"><g transform="translate(1284.45 28.85)"><use xlink:href="#m" width="11.3" height="5" transform="translate(-5.25 -2.15)"/><use xlink:href="#n" width="7.7" height="4.8" transform="matrix(-.7462 .6441 1.0887 .8073 4.95 -4.1)"/><use xlink:href="#o" width="7.7" height="4.8" transform="matrix(-1.092 -.0398 .0482 -1.1286 2 .85)"/><use xlink:href="#p" width="15.4" height="18.1" transform="matrix(.9955 0 .1708 1.0199 -9.15 -20.05)"/></g></g><g clip-path="url(#ax)"><g transform="translate(1310.45 28.85)"><use xlink:href="#m" width="11.3" height="5" transform="translate(-5.25 -2.15)"/><use xlink:href="#n" width="7.7" height="4.8" transform="matrix(-.7462 .6441 1.0887 .8073 4.95 -4.1)"/><use xlink:href="#o" width="7.7" height="4.8" transform="matrix(-1.092 -.0398 .0482 -1.1286 2 .85)"/><use xlink:href="#p" width="15.4" height="18.1" transform="matrix(.998 0 .1676 1.0006 -9.2 -19.6)"/></g></g><g clip-path="url(#ay)"><g transform="translate(1336.45 28.85)"><use xlink:href="#m" width="11.3" height="5" transform="translate(-5.25 -2.15)"/><use xlink:href="#n" width="7.7" height="4.8" transform="matrix(-.7462 .6441 1.0887 .8073 4.95 -4.1)"/><use xlink:href="#o" width="7.7" height="4.8" transform="matrix(-1.092 -.0398 .0482 -1.1286 2 .85)"/><use xlink:href="#p" width="15.4" height="18.1" transform="matrix(1 0 .1653 .9862 -9.25 -19.25)"/></g></g></svg>