<svg xmlns="http://www.w3.org/2000/svg" xmlns:xlink="http://www.w3.org/1999/xlink" width="611" height="68" viewBox="0 0 611 68"><defs><use xlink:href="#a" id="s" width="22.9" height="21.6"/><use xlink:href="#b" id="z" width="5.5" height="10.4"/><use xlink:href="#c" id="y" width="18.3" height="19.1"/><use xlink:href="#d" id="x" width="3.7" height="6"/><use xlink:href="#e" id="v" width="3.5" height="5.5"/><use xlink:href="#f" id="u" width="15.1" height="4.5"/><use xlink:href="#g" id="t" width="34.7" height="28.6"/><use xlink:href="#h" id="A" width="27.9" height="27.9"/><use xlink:href="#i" id="H" width="5.5" height="10.4"/><use xlink:href="#j" id="G" width="18.3" height="19.1"/><use xlink:href="#k" id="F" width="3.7" height="6"/><use xlink:href="#l" id="D" width="3.5" height="5.5"/><use xlink:href="#m" id="B" width="15.1" height="4.5"/><use xlink:href="#n" id="N" width="5.5" height="10.4"/><use xlink:href="#o" id="M" width="18.3" height="19.1"/><use xlink:href="#p" id="L" width="3.7" height="6"/><use xlink:href="#q" id="J" width="3.5" height="5.5"/><use xlink:href="#r" id="I" width="15.1" height="4.5"/><use xlink:href="#s" id="ae" width="22.9" height="21.6" transform="matrix(-1 0 0 1 29.95 4.5)"/><use xlink:href="#t" id="Y" width="34.7" height="28.6" transform="scale(1.21)"/><use xlink:href="#s" id="V" width="22.9" height="21.6" transform="matrix(-1.19 0 0 1.19 32.1 3)"/><use xlink:href="#s" id="T" width="22.9" height="21.6" transform="matrix(-1.39 0 0 1.39 34.2 1.55)"/><use xlink:href="#s" id="Q" width="22.9" height="21.6" transform="matrix(-1.58 0 0 1.58 36.35 0)"/><g id="a"><path fill="#f00f0f" d="M15.4 5.5Q17 5 20.7 3q-1.6 2.6-2 4.6-.3 1.1.6 2.2 1 1.3 3.6 1.8-1.2 0-2.4.7-1 .7-1.3 1.3-.5 1 .5 2.7.7 1.5 2.7 3.8-6.6-3.5-9.2-1.8-2.1 1.5-2.9 3.3 0-1.7-.3-2.4-.5-2.1-1.8-2.5-3-1-7.4.4.8-.5 2.3-2.6 1-1.2.6-3.1Q3.3 8.7 0 6.2l3.4.4 2.9-.4q1-.3 1.2-6.1V0q2 3.1 4 4.9 1.5 1.2 3.9.5"/><path fill="#a6691f" d="M12.2 13.7h-.7l-.6-.4-3.5-6.1q-.2-.3 0-.8l.7-.6L9.5 5l.9-.1q.4 0 .5.5-2.3.8-2.5 1.4 2.5 5.3 3.7 6.9m1.9 4h-.7q-.7-.1-.9-.6t0-1.2q.3-.5 1-.9.3-.2.7-.2-1.2.4-1 1.7 0 1.2 1 1.2z"/><path fill="#fc0" d="M12.2 13.7q-1.3-1.6-3.7-6.9.1-.6 2.4-1.5l2.4 6.6v.8l-.6.7-.3.2zm1.9 1 .5.1q.5.2.8.7.2.5 0 1.1l-.9 1-.4.1q-1 0-1-1.3-.2-1.2 1-1.6"/></g><g id="b"><path fill="none" stroke="#900" stroke-linecap="round" stroke-linejoin="round" stroke-width="__RESOLUTION__" d="M.5 2.2Q1.7-1.1 3.4.5q1.7 1.9.4 5" vector-effect="non-scaling-stroke"/><path fill="#900" d="M4.1 5.4q.5 0 .9.6l.4 1.3-.2 1.3q-.3.6-.8.6t-.9-.5l-.1.2-1 1.3-1.2.2Q.9 10 .9 9.2l.1-1H.8Q0 8 0 7.5q0-.6.7-1.2t1.6-1h1.6z"/><path fill="none" stroke="#900" stroke-linecap="round" stroke-linejoin="round" stroke-width="__RESOLUTION__" d="M4.1 5.4q.5 0 .9.6l.4 1.3-.2 1.3q-.3.6-.8.6t-.9-.5l-.1.2-1 1.3-1.2.2Q.9 10 .9 9.2l.1-1H.8Q0 8 0 7.5q0-.6.7-1.2t1.6-1h1.6z" vector-effect="non-scaling-stroke"/></g><g id="c"><path fill="#900" d="M12.1.6h.4q1.4.8 4.6 5 1.4 1.8 1.1 5.6-.1 2.4-1.1 3.9-1.1 1-2.2 1.5 2.3-2.6 2.3-5.9-.3-2.9-2-4.9.6 4.6-1.4 8.2-2.4 4.2-6.1 5.1h-.3l-3.6-.9q-1.9-2.3-.3-10Q4 4.9 7.3 3.1q3.3-2 4.8-2.6m2.5 5.8Q13.6 4 11.5 3q2.1 1 3.1 3.2"/><path fill="#900" d="M12.1.6Q10.6 1 7.3 3 4.1 4.9 3.5 8.1q-1.6 7.7.3 10L2 17.6q-2.2-.7-2-5.8l.3-3Q.9 6.1 2 5.3 3.3 3 4.8 1.8 6.7.4 8 .1l3 .3zM7.7 19.2q3.6-1 6-5.2 2.1-3.6 1.6-8.2 1.6 2 1.8 5 0 3.2-2.3 5.8-2.3 2-3.6 2.1z"/><path fill="none" stroke="#900" stroke-linecap="round" stroke-linejoin="round" stroke-width="__RESOLUTION__" d="M17.1 5.6q-3.2-4.2-4.7-5h-.3l-1-.2L8 0Q6.5.5 4.8 1.8 3.2 2.9 2 5.3.8 6 .2 8.9L0 11.8q-.3 5 1.9 5.8l1.8.6 3.6 1h.3l3.6-.5q1.2-.1 3.5-2.1Q17 14 17 10.8" vector-effect="non-scaling-stroke"/><path fill="none" stroke="#900" stroke-linecap="round" stroke-linejoin="round" stroke-width="__RESOLUTION__" d="M14.9 16.6Q16 16 17 15q1-1.5 1.1-3.9.3-3.8-1.1-5.6M11.4 3q2.2 1 3.1 3.2" vector-effect="non-scaling-stroke"/></g><g id="d"><path fill="#900" d="M2.8.1q.7.4.8 1 .3 1-.2 2.1L2 4.7l-.7.6H.7Q.2 5 .3 4.7l.3-1.5.7-2.1Q2-.3 2.8.1"/><path fill="none" stroke="#900" stroke-linecap="round" stroke-linejoin="round" stroke-width="__RESOLUTION__" d="M2.8.1q-.8-.4-1.5 1l-.7 2-.3 1.6q-.1.4.4.6h.7l.7-.6 1.2-1.5q.5-1.1.3-2.1-.1-.6-.9-1" vector-effect="non-scaling-stroke"/><path fill="#900" d="m2 4.8.3.8-1 .4.1-1.1z"/><path fill="#900" d="M1.3 6h-1L0 5.5l.3-.9 1.1.3z"/><path fill="none" stroke="#900" stroke-linecap="round" stroke-linejoin="round" stroke-width="__RESOLUTION__" d="m2 4.8.3.8-1 .4h-1L0 5.5l.2-.9" vector-effect="non-scaling-stroke"/></g><g id="e"><path fill="#900" d="M.8 0q.4-.2 1.5.6l.9 1 .3.9q0 1.3-.5 1.9t-1.3.4L.7 4 0 2.5q-.2-1 0-1.6T.8 0"/><path fill="none" stroke="#900" stroke-linecap="round" stroke-linejoin="round" stroke-width="__RESOLUTION__" d="m3.2 1.6.3.9q0 1.3-.5 1.9t-1.3.4L.7 4 0 2.5q-.2-1 0-1.6T.8 0" vector-effect="non-scaling-stroke"/><path fill="#900" d="m2.9 4.3.3.8-1 .4V4.4z"/><path fill="#900" d="M2.2 5.5h-1L.7 5l.3-.9 1.1.3z"/><path fill="none" stroke="#900" stroke-linecap="round" stroke-linejoin="round" stroke-width="__RESOLUTION__" d="m2.9 4.3.3.8-1 .4h-1L.7 5l.3-.9" vector-effect="non-scaling-stroke"/></g><g id="g"><path fill="#b81a03" d="M34.7 28.4q-4.3-4-6.6-3.5-1.8.3-2.9 3.7.1-4.1-2.4-6.1 4.9-.1 4.8-3.4t-5.3-7q2.9 1 6.3-2-1.4 3.8-.9 5.9.5 1.9 2.8 3.3l3.4 1.2q-2.4.4-2.4 2-.1 2 3.2 5.9"/><path fill="none" stroke="#d01d04" stroke-linecap="round" stroke-linejoin="round" stroke-width="__RESOLUTION__" d="M33.9 20.5q-2.4.4-2.4 2-.1 2 3.2 5.9" vector-effect="non-scaling-stroke"/><path fill="#f43404" d="M2 .2q1.4.7 2 2.2l-.9-.2L0 .9Q.6-.4 2 .2m14.3 2.4 4 1.7q-.7.4-1.4 1.9-1 2.2-.5 4.5.7 3.7 3.8 8.5l4.1 5.2q-5.8-2.8-16.6 1.3 12.2-8.4-4.3-22.4Q16.2 9 16.2 2.6"/><path fill="none" stroke="#d01d04" stroke-linecap="round" stroke-linejoin="round" stroke-width="__RESOLUTION__" d="M2 .2q1.4.7 2 2.2l-.9-.2L0 .9Q.6-.4 2 .2m7.7 25.5Q22 17.3 5.5 3.3" vector-effect="non-scaling-stroke"/><path fill="none" stroke="#fc563f" stroke-linecap="round" stroke-linejoin="round" stroke-width="__RESOLUTION__" d="M5.5 3.3Q16.3 9 16.3 2.6" vector-effect="non-scaling-stroke"/><path fill="#f43404" d="M6.7 28q-1.1-.7-.3-1.3.8-.5 2.1-.5l-.2.4z"/><path fill="none" stroke="#d01d04" stroke-linecap="round" stroke-linejoin="round" stroke-width="__RESOLUTION__" d="M6.7 28q-1.1-.7-.3-1.3.8-.5 2.1-.5l-.2.4z" vector-effect="non-scaling-stroke"/></g><g id="i"><path fill="none" stroke="#fff" stroke-linecap="round" stroke-linejoin="round" stroke-width="__RESOLUTION__" d="M.5 2.2Q1.7-1.1 3.4.5q1.7 1.9.4 5" vector-effect="non-scaling-stroke"/><path fill="#fff" d="M4.1 5.4q.5 0 .9.6l.4 1.3-.2 1.3q-.3.6-.8.6t-.9-.5l-.1.2-1 1.3-1.2.2Q.9 10 .9 9.2l.1-1H.8Q0 8 0 7.5q0-.6.7-1.2t1.6-1h1.6z"/><path fill="none" stroke="#fff" stroke-linecap="round" stroke-linejoin="round" stroke-width="__RESOLUTION__" d="M4.1 5.4q.5 0 .9.6l.4 1.3-.2 1.3q-.3.6-.8.6t-.9-.5l-.1.2-1 1.3-1.2.2Q.9 10 .9 9.2l.1-1H.8Q0 8 0 7.5q0-.6.7-1.2t1.6-1h1.6z" vector-effect="non-scaling-stroke"/></g><g id="j"><path fill="#fff" d="M12.1.6h.4q1.4.8 4.6 5 1.4 1.8 1.1 5.6-.1 2.4-1.1 3.9-1.1 1-2.2 1.5 2.3-2.6 2.3-5.9-.3-2.9-2-4.9.6 4.6-1.4 8.2-2.4 4.2-6.1 5.1h-.3l-3.6-.9q-1.9-2.3-.3-10Q4 4.9 7.3 3.1q3.3-2 4.8-2.6m2.5 5.8Q13.6 4 11.5 3q2.1 1 3.1 3.2"/><path fill="#fff" d="M12.1.6Q10.6 1 7.3 3 4.1 4.9 3.5 8.1q-1.6 7.7.3 10L2 17.6q-2.2-.7-2-5.8l.3-3Q.9 6.1 2 5.3 3.3 3 4.8 1.8 6.7.4 8 .1l3 .3zM7.7 19.2q3.6-1 6-5.2 2.1-3.6 1.6-8.2 1.6 2 1.8 5 0 3.2-2.3 5.8-2.3 2-3.6 2.1z"/><path fill="none" stroke="#fff" stroke-linecap="round" stroke-linejoin="round" stroke-width="__RESOLUTION__" d="M17.1 5.6q-3.2-4.2-4.7-5h-.3l-1-.2L8 0Q6.5.5 4.8 1.8 3.2 2.9 2 5.3.8 6 .2 8.9L0 11.8q-.3 5 1.9 5.8l1.8.6 3.6 1h.3l3.6-.5q1.2-.1 3.5-2.1Q17 14 17 10.8" vector-effect="non-scaling-stroke"/><path fill="none" stroke="#fff" stroke-linecap="round" stroke-linejoin="round" stroke-width="__RESOLUTION__" d="M14.9 16.6Q16 16 17 15q1-1.5 1.1-3.9.3-3.8-1.1-5.6M11.4 3q2.2 1 3.1 3.2" vector-effect="non-scaling-stroke"/></g><g id="k"><path fill="#fff" d="M2.8.1q.7.4.8 1 .3 1-.2 2.1L2 4.7l-.7.6H.7Q.2 5 .3 4.7l.3-1.5.7-2.1Q2-.3 2.8.1"/><path fill="none" stroke="#fff" stroke-linecap="round" stroke-linejoin="round" stroke-width="__RESOLUTION__" d="M2.8.1q-.8-.4-1.5 1l-.7 2-.3 1.6q-.1.4.4.6h.7l.7-.6 1.2-1.5q.5-1.1.3-2.1-.1-.6-.9-1" vector-effect="non-scaling-stroke"/><path fill="#fff" d="m2 4.8.3.8-1 .4.1-1.1z"/><path fill="#fff" d="M1.3 6h-1L0 5.5l.3-.9 1.1.3z"/><path fill="none" stroke="#fff" stroke-linecap="round" stroke-linejoin="round" stroke-width="__RESOLUTION__" d="m2 4.8.3.8-1 .4h-1L0 5.5l.2-.9" vector-effect="non-scaling-stroke"/></g><g id="l"><path fill="#fff" d="M.8 0q.4-.2 1.5.6l.9 1 .3.9q0 1.3-.5 1.9t-1.3.4L.7 4 0 2.5q-.2-1 0-1.6T.8 0"/><path fill="none" stroke="#fff" stroke-linecap="round" stroke-linejoin="round" stroke-width="__RESOLUTION__" d="m3.2 1.6.3.9q0 1.3-.5 1.9t-1.3.4L.7 4 0 2.5q-.2-1 0-1.6T.8 0" vector-effect="non-scaling-stroke"/><path fill="#fff" d="m2.9 4.3.3.8-1 .4V4.4z"/><path fill="#fff" d="M2.2 5.5h-1L.7 5l.3-.9 1.1.3z"/><path fill="none" stroke="#fff" stroke-linecap="round" stroke-linejoin="round" stroke-width="__RESOLUTION__" d="m2.9 4.3.3.8-1 .4h-1L.7 5l.3-.9" vector-effect="non-scaling-stroke"/></g><g id="n"><path fill="none" stroke="#422100" stroke-linecap="round" stroke-linejoin="round" stroke-width="__RESOLUTION__" d="M.5 2.2Q1.7-1.1 3.4.5q1.7 1.9.4 5" vector-effect="non-scaling-stroke"/><path fill="#cfb19c" d="M4.1 5.4q.5 0 .9.6l.4 1.3-.2 1.3q-.3.6-.8.6t-.9-.5l-.1.2-1 1.3-1.2.2Q.9 10 .9 9.2l.1-1H.8Q0 8 0 7.5q0-.6.7-1.2t1.6-1h1.6z"/><path fill="none" stroke="#583a2c" stroke-linecap="round" stroke-linejoin="round" stroke-width="__RESOLUTION__" d="M4.1 5.4q.5 0 .9.6l.4 1.3-.2 1.3q-.3.6-.8.6t-.9-.5l-.1.2-1 1.3-1.2.2Q.9 10 .9 9.2l.1-1H.8Q0 8 0 7.5q0-.6.7-1.2t1.6-1h1.6z" vector-effect="non-scaling-stroke"/></g><g id="o"><path fill="#995828" d="M12.1.6h.4q1.4.8 4.6 5 1.4 1.8 1.1 5.6-.1 2.4-1.1 3.9-1.1 1-2.2 1.5 2.3-2.6 2.3-5.9-.3-2.9-2-4.9.6 4.6-1.4 8.2-2.4 4.2-6.1 5.1h-.3l-3.6-.9q-1.9-2.3-.3-10Q4 4.9 7.3 3.1q3.3-2 4.8-2.6m2.5 5.8Q13.6 4 11.5 3q2.1 1 3.1 3.2"/><path fill="#b5703e" d="M12.1.6Q10.6 1 7.3 3 4.1 4.9 3.5 8.1q-1.6 7.7.3 10L2 17.6q-2.2-.7-2-5.8l.3-3Q.9 6.1 2 5.3 3.3 3 4.8 1.8 6.7.4 8 .1l3 .3z"/><path fill="#8d562e" d="M7.7 19.2q3.7-1 6-5.3 2.1-3.5 1.6-8.1 1.6 2 1.8 5 0 3.2-2.3 5.7-2.3 2-3.6 2.2z"/><path fill="none" stroke="#3c231e" stroke-linecap="round" stroke-linejoin="round" stroke-width="__RESOLUTION__" d="M17.1 5.6q-3.2-4.2-4.7-5h-.3l-1-.2L8 0Q6.5.5 4.8 1.8 3.2 2.9 2 5.3.8 6 .2 8.9L0 11.8q-.3 5 1.9 5.8l1.8.6 3.6 1h.3l3.6-.5q1.2-.1 3.5-2.1Q17 14 17 10.8" vector-effect="non-scaling-stroke"/><path fill="none" stroke="#512915" stroke-linecap="round" stroke-linejoin="round" stroke-width="__RESOLUTION__" d="M14.9 16.6Q16 16 17 15q1-1.5 1.1-3.9.3-3.8-1.1-5.6" vector-effect="non-scaling-stroke"/><path fill="none" stroke="#7b4528" stroke-linecap="round" stroke-linejoin="round" stroke-width="__RESOLUTION__" d="M11.5 3q2.1 1 3.1 3.3" vector-effect="non-scaling-stroke"/></g><g id="p"><path fill="#995828" d="M2.8.1q.7.4.8 1 .3 1-.2 2.1L2 4.7l-.7.6H.7Q.2 5 .3 4.7l.3-1.5.7-2.1Q2-.3 2.8.1"/><path fill="none" stroke="#512915" stroke-linecap="round" stroke-linejoin="round" stroke-width="__RESOLUTION__" d="M2.8.1q-.8-.4-1.5 1l-.7 2-.3 1.6q-.1.4.4.6h.7l.7-.6 1.2-1.5q.5-1.1.3-2.1-.1-.6-.9-1" vector-effect="non-scaling-stroke"/><path fill="#7a84a3" d="m2 4.8.3.8-1 .4.1-1.1z"/><path fill="#272b38" d="M1.3 6h-1L0 5.5l.3-.9 1.1.3z"/><path fill="none" stroke="#000" stroke-linecap="round" stroke-linejoin="round" stroke-width="__RESOLUTION__" d="m2 4.8.3.8-1 .4h-1L0 5.5l.2-.9" vector-effect="non-scaling-stroke"/></g><g id="q"><path fill="#995828" d="M.8 0q.4-.2 1.5.6l.9 1 .3.9q0 1.3-.5 1.9t-1.3.4L.7 4 0 2.5q-.2-1 0-1.6T.8 0"/><path fill="none" stroke="#512915" stroke-linecap="round" stroke-linejoin="round" stroke-width="__RESOLUTION__" d="m3.2 1.6.3.9q0 1.3-.5 1.9t-1.3.4L.7 4 0 2.5q-.2-1 0-1.6T.8 0" vector-effect="non-scaling-stroke"/><path fill="#7a84a3" d="m2.9 4.3.3.8-1 .4V4.4z"/><path fill="#272b38" d="M2.2 5.5h-1L.7 5l.3-.9 1.1.3z"/><path fill="none" stroke="#000" stroke-linecap="round" stroke-linejoin="round" stroke-width="__RESOLUTION__" d="m2.9 4.3.3.8-1 .4h-1L.7 5l.3-.9" vector-effect="non-scaling-stroke"/></g><g id="w"><path fill="#900" d="m17.6 3.6.4.7q1.4 2.5 1 3.9l-1.2.6q-2.2 1.1-3.9 1.3-2.5-.1-2.3-2.6 3.7-3 6-4"/><path fill="#900" d="M17.6 3.6q-2.3.9-6 3.9l-.4-2.8 1.7-2.2 1-.9q.6-.5 1.3-.5 1.2.6 2.4 2.5"/><path fill="none" stroke="#900" stroke-linecap="round" stroke-linejoin="round" stroke-width="__RESOLUTION__" d="M13.9 10.1q1.7-.1 3.9-1.3l1.3-.7q.2-1.3-1-3.8l-.6-.7q-1-1.9-2.2-2.6-.7.1-1.3.6m-.1 0-1 .9-1.7 2.2" vector-effect="non-scaling-stroke"/><path fill="#900" d="M19.3 9.9q.8.5.7 2.6-.1 1.7-.9 3.3l-1.3 1.8-.6.6-1 .1q3-3 3-8.4"/><path fill="#900" d="M19.3 9.9q0 5.4-3.2 8.4l-.7-.3-.6-.5q-.6-.4-.5-1 .1-1.4.9-3.1t2-2.6q1.5-1.2 2-.9"/><path fill="none" stroke="#900" stroke-linecap="round" stroke-linejoin="round" stroke-width="__RESOLUTION__" d="m16.2 18.3 1-.1.6-.5 1.3-2q.8-1.5.9-3.2.1-2.2-.7-2.6-.6-.3-2.1 1-1.1.8-2 2.4-.8 1.7-.9 3.2 0 .5.5 1l.6.4z" vector-effect="non-scaling-stroke"/><path fill="#900" d="M.7 4.5q7.3-3.1 7.6-3 1.1 0 3 .9 2.4.9 3 2l-1 3.2-3.7.3q-9 .9-9-3.4"/><path fill="#900" d="M.7 4.5Q.6 8.8 9.6 7.9l3.7-.3q-1.5 2.4.9 2.8-1.7 3-.2 4l-3.2.7q-9-1.6-10.1-2.7-.8 0-.6-3.8Q0 5 .7 4.4"/><path fill="#900" d="m13.3 7.6 1.5.6Q16 9 16.6 11q.5 1.7-.6 2.4-.9.6-2 1-1.5-1 .1-4-2.3-.5-.8-2.8"/><path fill="none" stroke="#900" stroke-linecap="round" stroke-linejoin="round" stroke-width="__RESOLUTION__" d="m9.6 7.9 3.7-.3 1.5.6Q16 9 16.6 11q.5 1.7-.6 2.4-.9.6-2 1l-3.2.7q-9-1.6-10.1-2.7-.9 0-.7-3.8.1-3.6.6-4.2" vector-effect="non-scaling-stroke"/><path fill="none" stroke="#900" stroke-linecap="round" stroke-linejoin="round" stroke-width="__RESOLUTION__" d="M13.3 7.6q-1.5 2.4.9 2.8-1.7 3-.2 4" vector-effect="non-scaling-stroke"/><path fill="#900" d="M7.4 2.3Q6.6 3.7 4 3.8 2.8 1.9 4.5 0L6 1z"/><path fill="none" stroke="#900" stroke-linecap="round" stroke-linejoin="round" stroke-width="__RESOLUTION__" d="M7.4 2.3 6 1 4.5 0Q2.8 1.9 4 3.8" vector-effect="non-scaling-stroke"/><path fill="#900" d="m13 2 1.8-.4q1.5 0 2.7 1 1 .8.9 2.3-.2 1.4-1.5 2.3l-1 .7-.9-.1-.3-1.6q-.4-1.1-1.7-2-1.2-1-.9-1.5t1-.7"/><path fill="none" stroke="#900" stroke-linecap="round" stroke-linejoin="round" stroke-width="__RESOLUTION__" d="m15.9 7.9 1-.7q1.3-1 1.5-2.3.2-1.4-.9-2.3-1.2-1-2.7-1l-1.7.4" vector-effect="non-scaling-stroke"/><path fill="#900" d="m6.4 3.1 1.6-1q.9-.8 1.7-.7 1.3 2.2 0 3.8Q7 4.6 6.4 3"/><path fill="none" stroke="#900" stroke-linecap="round" stroke-linejoin="round" stroke-width="__RESOLUTION__" d="m6.4 3.1 1.6-1q.9-.8 1.7-.7 1.3 2.2 0 3.8" vector-effect="non-scaling-stroke"/></g><g id="E"><path fill="#fff" d="m17.6 3.6.4.7q1.4 2.5 1 3.9l-1.2.6q-2.2 1.1-3.9 1.3-2.5-.1-2.3-2.6 3.7-3 6-4"/><path fill="#fff" d="M17.6 3.6q-2.3.9-6 3.9l-.4-2.8 1.7-2.2 1-.9q.6-.5 1.3-.5 1.2.6 2.4 2.5"/><path fill="none" stroke="#fff" stroke-linecap="round" stroke-linejoin="round" stroke-width="__RESOLUTION__" d="M13.9 10.1q1.7-.1 3.9-1.3l1.3-.7q.2-1.3-1-3.8l-.6-.7q-1-1.9-2.2-2.6-.7.1-1.3.6m-.1 0-1 .9-1.7 2.2" vector-effect="non-scaling-stroke"/><path fill="#fff" d="M19.3 9.9q.8.5.7 2.6-.1 1.7-.9 3.3l-1.3 1.8-.6.6-1 .1q3-3 3-8.4"/><path fill="#fff" d="M19.3 9.9q0 5.4-3.2 8.4l-.7-.3-.6-.5q-.6-.4-.5-1 .1-1.4.9-3.1t2-2.6q1.5-1.2 2-.9"/><path fill="none" stroke="#fff" stroke-linecap="round" stroke-linejoin="round" stroke-width="__RESOLUTION__" d="m16.2 18.3 1-.1.6-.5 1.3-2q.8-1.5.9-3.2.1-2.2-.7-2.6-.6-.3-2.1 1-1.1.8-2 2.4-.8 1.7-.9 3.2 0 .5.5 1l.6.4z" vector-effect="non-scaling-stroke"/><path fill="#fff" d="M.7 4.5q7.3-3.1 7.6-3 1.1 0 3 .9 2.4.9 3 2l-1 3.2-3.7.3q-9 .9-9-3.4"/><path fill="#fff" d="M.7 4.5Q.6 8.8 9.6 7.9l3.7-.3q-1.5 2.4.9 2.8-1.7 3-.2 4l-3.2.7q-9-1.6-10.1-2.7-.8 0-.6-3.8Q0 5 .7 4.4"/><path fill="#fff" d="m13.3 7.6 1.5.6Q16 9 16.6 11q.5 1.7-.6 2.4-.9.6-2 1-1.5-1 .1-4-2.3-.5-.8-2.8"/><path fill="none" stroke="#fff" stroke-linecap="round" stroke-linejoin="round" stroke-width="__RESOLUTION__" d="m9.6 7.9 3.7-.3 1.5.6Q16 9 16.6 11q.5 1.7-.6 2.4-.9.6-2 1l-3.2.7q-9-1.6-10.1-2.7-.9 0-.7-3.8.1-3.6.6-4.2" vector-effect="non-scaling-stroke"/><path fill="none" stroke="#fff" stroke-linecap="round" stroke-linejoin="round" stroke-width="__RESOLUTION__" d="M13.3 7.6q-1.5 2.4.9 2.8-1.7 3-.2 4" vector-effect="non-scaling-stroke"/><path fill="#fff" d="M7.4 2.3Q6.6 3.7 4 3.8 2.8 1.9 4.5 0L6 1z"/><path fill="none" stroke="#fff" stroke-linecap="round" stroke-linejoin="round" stroke-width="__RESOLUTION__" d="M7.4 2.3 6 1 4.5 0Q2.8 1.9 4 3.8" vector-effect="non-scaling-stroke"/><path fill="#fff" d="m13 2 1.8-.4q1.5 0 2.7 1 1 .8.9 2.3-.2 1.4-1.5 2.3l-1 .7-.9-.1-.3-1.6q-.4-1.1-1.7-2-1.2-1-.9-1.5t1-.7"/><path fill="none" stroke="#fff" stroke-linecap="round" stroke-linejoin="round" stroke-width="__RESOLUTION__" d="m15.9 7.9 1-.7q1.3-1 1.5-2.3.2-1.4-.9-2.3-1.2-1-2.7-1l-1.7.4" vector-effect="non-scaling-stroke"/><path fill="#fff" d="m6.4 3.1 1.6-1q.9-.8 1.7-.7 1.3 2.2 0 3.8Q7 4.6 6.4 3"/><path fill="none" stroke="#fff" stroke-linecap="round" stroke-linejoin="round" stroke-width="__RESOLUTION__" d="m6.4 3.1 1.6-1q.9-.8 1.7-.7 1.3 2.2 0 3.8" vector-effect="non-scaling-stroke"/></g><g id="K"><path fill="#8d562e" d="m17.6 3.6.4.7q1.4 2.5 1 3.9l-1.2.6q-2.2 1.1-3.9 1.3-2.5-.1-2.3-2.6 3.7-3 6-4"/><path fill="#b5703e" d="M17.6 3.6q-2.3.9-6 3.9l-.4-2.8 1.7-2.2 1-.9q.6-.5 1.3-.5 1.2.6 2.4 2.5"/><path fill="none" stroke="#3a2114" stroke-linecap="round" stroke-linejoin="round" stroke-width="__RESOLUTION__" d="M13.9 10.1q1.7-.1 3.9-1.3l1.3-.7q.2-1.3-1-3.8l-.6-.7q-1-1.9-2.2-2.6-.7.1-1.3.6" vector-effect="non-scaling-stroke"/><path fill="none" stroke="#7b4528" stroke-linecap="round" stroke-linejoin="round" stroke-width="__RESOLUTION__" d="m13.9 1.6-1 .9-1.7 2.2" vector-effect="non-scaling-stroke"/><path fill="#f3f5f8" d="M19.3 9.9q.8.5.7 2.6-.1 1.7-.9 3.3l-1.3 1.8-.6.6-1 .1q3-3 3-8.4"/><path fill="#d9dfe8" d="M19.3 9.9q0 5.4-3.2 8.4l-.7-.3-.6-.5q-.6-.4-.5-1 .1-1.4.9-3.1t2-2.6q1.5-1.2 2-.9"/><path fill="none" stroke="#212121" stroke-linecap="round" stroke-linejoin="round" stroke-width="__RESOLUTION__" d="m16.2 18.3 1-.1.6-.5 1.3-2q.8-1.5.9-3.2.1-2.2-.7-2.6-.6-.3-2.1 1-1.1.8-2 2.4-.8 1.7-.9 3.2 0 .5.5 1l.6.4z" vector-effect="non-scaling-stroke"/><path fill="#995828" d="M.7 4.5q7.3-3.1 7.6-3 1.1 0 3 .9 2.4.9 3 2l-1 3.2-3.7.3q-9 .9-9-3.4"/><path fill="#6d3d23" d="M.7 4.5Q.6 8.8 9.6 7.9l3.7-.3q-1.5 2.4.9 2.8-1.7 3-.2 4l-3.2.7q-9-1.6-10.1-2.7-.8 0-.6-3.8Q0 5 .7 4.4"/><path fill="#8d562e" d="m13.3 7.6 1.5.6Q16 9 16.6 11q.5 1.7-.6 2.4-.9.6-2 1-1.5-1 .1-4-2.3-.5-.8-2.8"/><path fill="none" stroke="#562d16" stroke-linecap="round" stroke-linejoin="round" stroke-width="__RESOLUTION__" d="m9.6 7.9 3.7-.3 1.5.6Q16 9 16.6 11q.5 1.7-.6 2.4-.9.6-2 1l-3.2.7q-9-1.6-10.1-2.7-.9 0-.7-3.8.1-3.6.6-4.2" vector-effect="non-scaling-stroke"/><path fill="none" stroke="#3a2114" stroke-linecap="round" stroke-linejoin="round" stroke-width="__RESOLUTION__" d="M13.3 7.6q-1.5 2.4.9 2.8-1.7 3-.2 4" vector-effect="non-scaling-stroke"/><path fill="#b5703e" d="M7.4 2.3Q6.6 3.7 4 3.8 2.8 1.9 4.5 0L6 1z"/><path fill="none" stroke="#361c12" stroke-linecap="round" stroke-linejoin="round" stroke-width="__RESOLUTION__" d="M7.4 2.3 6 1 4.5 0Q2.8 1.9 4 3.8" vector-effect="non-scaling-stroke"/><path fill="#fff" d="m13 2 1.8-.4q1.5 0 2.7 1 1 .8.9 2.3-.2 1.4-1.5 2.3l-1 .7-.9-.1-.3-1.6q-.4-1.1-1.7-2-1.2-1-.9-1.5t1-.7"/><path fill="none" stroke="#212121" stroke-linecap="round" stroke-linejoin="round" stroke-width="__RESOLUTION__" d="m15.9 7.9 1-.7q1.3-1 1.5-2.3.2-1.4-.9-2.3-1.2-1-2.7-1l-1.7.4" vector-effect="non-scaling-stroke"/><path fill="#b5703e" d="m6.4 3.1 1.6-1q.9-.8 1.7-.7 1.3 2.2 0 3.8Q7 4.6 6.4 3"/><path fill="none" stroke="#361c12" stroke-linecap="round" stroke-linejoin="round" stroke-width="__RESOLUTION__" d="m6.4 3.1 1.6-1q.9-.8 1.7-.7 1.3 2.2 0 3.8" vector-effect="non-scaling-stroke"/></g><g id="ac" transform="translate(17.9 30.15)"><use xlink:href="#u" width="15.1" height="4.5" transform="translate(-9.5 -5.45)"/><use xlink:href="#v" width="3.5" height="5.5" transform="rotate(12.77 27.47 -45.6)scale(.9966)"/><use xlink:href="#w" width="20" height="18.4" transform="translate(-10.6 -30.15)"/><use xlink:href="#x" width="3.7" height="6" transform="matrix(.4023 -1.08 1.39 .2357 -.45 -14.15)"/><use xlink:href="#y" width="18.3" height="19.1" transform="matrix(.8304 -.5246 .5125 .8805 -17.55 -18.1)"/><use xlink:href="#v" width="3.5" height="5.5" transform="matrix(1.16 .2686 -.2791 1.21 -4.5 -7.15)"/><use xlink:href="#z" width="5.5" height="10.4" transform="matrix(-.7801 .619 -.6753 -.7355 -6.6 -6.75)"/></g><g id="aa" transform="translate(25.55 12.45)"><use xlink:href="#A" width="27.9" height="27.9" transform="translate(-7.45 -2.85)scale(.6188)"/><use xlink:href="#t" width="34.7" height="28.6" transform="translate(-25.55 -12.45)scale(1.21)"/></g><g id="X" transform="translate(17.9 30.15)"><use xlink:href="#B" width="15.1" height="4.5" transform="translate(-9.5 -5.45)"/><use xlink:href="#D" width="3.5" height="5.5" transform="rotate(12.77 27.47 -45.6)scale(.9966)"/><use xlink:href="#E" width="20" height="18.4" transform="translate(-10.6 -30.15)"/><use xlink:href="#F" width="3.7" height="6" transform="matrix(.4023 -1.08 1.39 .2357 -.45 -14.15)"/><use xlink:href="#G" width="18.3" height="19.1" transform="matrix(.8304 -.5246 .5125 .8805 -17.55 -18.1)"/><use xlink:href="#D" width="3.5" height="5.5" transform="matrix(1.16 .2686 -.2791 1.21 -4.5 -7.15)"/><use xlink:href="#H" width="5.5" height="10.4" transform="matrix(-.7801 .619 -.6753 -.7355 -6.6 -6.75)"/></g><g id="R" transform="translate(25.55 12.45)"><use xlink:href="#A" width="27.9" height="27.9" transform="translate(-7.45 -2.85)scale(.6188)"/><use xlink:href="#t" width="34.7" height="28.6" transform="translate(-17.6 -6.6)scale(.815)"/></g><g id="P" transform="translate(17.9 30.15)"><use xlink:href="#I" width="15.1" height="4.5" transform="translate(-9.5 -5.45)"/><use xlink:href="#J" width="3.5" height="5.5" transform="rotate(12.77 27.47 -45.6)scale(.9966)"/><use xlink:href="#K" width="20" height="18.4" transform="translate(-10.6 -30.15)"/><use xlink:href="#L" width="3.7" height="6" transform="matrix(.4023 -1.08 1.39 .2357 -.45 -14.15)"/><use xlink:href="#M" width="18.3" height="19.1" transform="matrix(.8304 -.5246 .5125 .8805 -17.55 -18.1)"/><use xlink:href="#J" width="3.5" height="5.5" transform="matrix(1.16 .2686 -.2791 1.21 -4.5 -7.15)"/><use xlink:href="#N" width="5.5" height="10.4" transform="matrix(-.7801 .619 -.6753 -.7355 -6.6 -6.75)"/></g><clipPath id="O"><path d="M1 1h60v66H1z"/></clipPath><clipPath id="S"><path d="M62 1h60v66H62z"/></clipPath><clipPath id="U"><path d="M123 1h60v66h-60z"/></clipPath><clipPath id="W"><path d="M184 1h60v66h-60z"/></clipPath><clipPath id="Z"><path d="M245 1h60v66h-60z"/></clipPath><clipPath id="ab"><path d="M306 1h60v66h-60z"/></clipPath><clipPath id="ad"><path d="M367 1h60v66h-60z"/></clipPath><clipPath id="af"><path d="M428 1h60v66h-60z"/></clipPath><clipPath id="ag"><path d="M489 1h60v66h-60z"/></clipPath><clipPath id="ah"><path d="M550 1h60v66h-60z"/></clipPath><path id="f" fill="#900" d="M1.4-1.8q1-.6 2.6-.6l2.5.4 1 .7q0 .2-1.2.6l-1.9.3q-2.5.2-5 1.8-.1.3-1 .6H-4l-2.5-.4-1-.7q0-.4 1-.6L-4 0Q-.2-.3.6-1.2q-.2-.2.7-.5" transform="translate(7.55 2.4)"/><path id="h" fill="#fff" d="M9.8-10.2q3.3 3.3 4 7.7l.1 2.2q0 5.7-4.1 9.8-3.3 3.3-7.6 4l-2.2.1q-5.8 0-10-4.1-2.6-2.6-3.5-6-.5-1.8-.5-3.8 0-5.8 4-10h.2q4-4 9.8-4 3.7 0 6.6 1.7 1.7.9 3.2 2.3" transform="translate(14 14.3)"/><path id="m" fill="#fff" d="M1.4-1.8q1-.6 2.6-.6l2.5.4 1 .7q0 .2-1.2.6l-1.9.3q-2.5.2-5 1.8-.1.3-1 .6H-4l-2.5-.4-1-.7q0-.4 1-.6L-4 0Q-.2-.3.6-1.2q-.2-.2.7-.5" transform="translate(7.55 2.4)"/><path id="r" fill="#382c16" d="M1.4-1.8q1-.6 2.6-.6l2.5.4 1 .7q0 .2-1.2.6l-1.9.3q-2.5.2-5 1.8-.1.3-1 .6H-4l-2.5-.4-1-.7q0-.4 1-.6L-4 0Q-.2-.3.6-1.2q-.2-.2.7-.5" transform="translate(7.55 2.4)"/></defs><g clip-path="url(#O)"><g transform="translate(16.25 63.3)"><use xlink:href="#P" width="27.3" height="30.6" transform="translate(-15.25 -26.95)"/><use xlink:href="#Q" width="36.4" height="34.2" transform="translate(7.45 -62.3)"/><use xlink:href="#R" width="42" height="34.5" transform="matrix(-.916 0 0 .916 23.65 -28.6)"/></g></g><g clip-path="url(#S)"><g transform="translate(77.25 63.3)"><use xlink:href="#P" width="27.3" height="30.6" transform="translate(-15.25 -26.95)"/><use xlink:href="#T" width="36.4" height="34.2" transform="translate(7.45 -62.3)"/><use xlink:href="#R" width="42" height="34.5" transform="matrix(-.916 0 0 .916 23.65 -28.6)"/></g></g><g clip-path="url(#U)"><g transform="translate(138.25 63.3)"><use xlink:href="#P" width="27.3" height="30.6" transform="translate(-15.25 -26.95)"/><use xlink:href="#V" width="36.4" height="34.2" transform="translate(7.45 -62.3)"/><use xlink:href="#R" width="42" height="34.5" transform="matrix(-.916 0 0 .916 23.65 -28.6)"/></g></g><g clip-path="url(#W)"><g transform="translate(199.25 63.3)"><use xlink:href="#X" width="27.3" height="30.6" transform="translate(-15.25 -26.95)"/><use xlink:href="#Y" width="42" height="34.5" transform="matrix(-.916 0 0 .916 23.65 -28.6)"/></g></g><g clip-path="url(#Z)"><g transform="translate(260.25 63.3)"><use xlink:href="#X" width="27.3" height="30.6" transform="translate(-15.25 -26.95)"/><use xlink:href="#aa" width="42" height="34.5" transform="matrix(-.916 0 0 .916 23.65 -28.6)"/></g></g><g clip-path="url(#ab)"><g transform="translate(321.25 63.3)"><use xlink:href="#ac" width="27.3" height="30.6" transform="translate(-15.25 -26.95)"/><use xlink:href="#Y" width="42" height="34.5" transform="matrix(-.916 0 0 .916 23.65 -28.6)"/></g></g><g clip-path="url(#ad)"><g transform="translate(382.25 63.3)"><use xlink:href="#X" width="27.3" height="30.6" transform="translate(-15.25 -26.95)"/><use xlink:href="#ae" width="36.4" height="34.2" transform="translate(7.45 -62.3)"/></g></g><g clip-path="url(#af)"><g transform="translate(443.25 63.3)"><use xlink:href="#ac" width="27.3" height="30.6" transform="translate(-15.25 -26.95)"/><use xlink:href="#ae" width="36.4" height="34.2" transform="translate(7.45 -62.3)"/></g></g><g clip-path="url(#ag)"><g transform="translate(504.25 63.3)"><use xlink:href="#ac" width="27.3" height="30.6" transform="translate(-15.25 -26.95)"/><use xlink:href="#ae" width="36.4" height="34.2" transform="translate(7.45 -62.3)"/></g></g><g clip-path="url(#ah)"><g transform="translate(565.25 63.3)"><use xlink:href="#P" width="27.3" height="30.6" transform="translate(-15.25 -26.95)"/><use xlink:href="#ae" width="36.4" height="34.2" transform="translate(7.45 -62.3)"/></g></g></svg>