<svg xmlns="http://www.w3.org/2000/svg" xmlns:xlink="http://www.w3.org/1999/xlink" width="705" height="69" viewBox="0 0 705 69"><defs><use xlink:href="#a" id="l" width="22.9" height="21.6"/><use xlink:href="#b" id="t" width="5.1" height="6.2"/><use xlink:href="#c" id="v" width="6.5" height="10.4"/><use xlink:href="#d" id="y" width="4.7" height="4"/><use xlink:href="#e" id="D" width="20.6" height="20.4"/><use xlink:href="#f" id="C" width="9.2" height="15.3"/><use xlink:href="#g" id="A" width="15.7" height="12.4"/><use xlink:href="#h" id="L" width="5.2" height="7.1"/><use xlink:href="#i" id="J" width="6.5" height="8.6"/><use xlink:href="#j" id="I" width="14.4" height="21.6"/><use xlink:href="#k" id="G" width="16.8" height="13.7"/><use xlink:href="#l" id="at" width="22.9" height="21.6" transform="matrix(-1 0 0 1 29.95 4.5)"/><use xlink:href="#l" id="aq" width="22.9" height="21.6" transform="matrix(-1.06 0 0 1.06 30.65 4)"/><use xlink:href="#l" id="ao" width="22.9" height="21.6" transform="matrix(-1.13 0 0 1.13 31.35 3.55)"/><use xlink:href="#l" id="am" width="22.9" height="21.6" transform="matrix(-1.19 0 0 1.19 32.1 3)"/><use xlink:href="#l" id="ak" width="22.9" height="21.6" transform="matrix(-1.26 0 0 1.26 32.8 2.5)"/><use xlink:href="#l" id="ai" width="22.9" height="21.6" transform="matrix(-1.32 0 0 1.32 33.5 2)"/><use xlink:href="#l" id="ag" width="22.9" height="21.6" transform="matrix(-1.39 0 0 1.39 34.2 1.55)"/><use xlink:href="#l" id="ae" width="22.9" height="21.6" transform="matrix(-1.45 0 0 1.45 34.9 1)"/><use xlink:href="#l" id="ac" width="22.9" height="21.6" transform="matrix(-1.52 0 0 1.52 35.65 .5)"/><use xlink:href="#l" id="aa" width="22.9" height="21.6" transform="matrix(-1.58 0 0 1.58 36.35 0)"/><use xlink:href="#m" id="Y" width="4.3" height="5"/><use xlink:href="#n" id="W" width="33.9" height="15.7"/><use xlink:href="#o" id="U" width="7.1" height="6"/><use xlink:href="#p" id="T" width="4.6" height="6.5"/><use xlink:href="#q" id="Q" width="3.5" height="3.3"/><use xlink:href="#r" id="P" width="10.5" height="5.7"/><use xlink:href="#s" id="O" width="14.7" height="4.3"/><g id="a"><path fill="#fff" d="M7.5 0q2 3.1 4 4.9 1.5 1.2 3.9.5Q17 5 20.7 3q-1.6 2.6-2 4.5-.3 1.2.6 2.3 1 1.3 3.6 1.7-1.2 0-2.4.8-1 .6-1.3 1.3-.5 1 .5 2.7.7 1.5 2.7 3.8-6.6-3.5-9.2-1.8-2.1 1.5-2.9 3.3 0-1.7-.3-2.4-.5-2.1-1.8-2.5-3-1-7.4.4.8-.5 2.3-2.6 1-1.2.6-3.1Q3.3 8.7 0 6.2l3.4.4 2.9-.4q1-.3 1.2-6.1z"/><path fill="#35479e" d="M12.2 13.7h-.7l-.6-.4-3.5-6.1q-.2-.3 0-.8l.7-.6L9.5 5l.9-.1q.4 0 .5.5-2.3.8-2.5 1.4 2.5 5.3 3.7 6.9m1.9 4h-.7q-.7-.1-.9-.6t0-1.2q.3-.5 1-.9.3-.2.7-.2-1.2.4-1 1.7 0 1.2 1 1.2z"/><path fill="#578afd" d="M12.2 13.7q-1.3-1.6-3.7-6.9.1-.6 2.4-1.5l2.4 6.6v.8l-.6.7-.3.2zm1.9 1 .5.1q.5.2.8.7.2.5 0 1.1l-.9 1-.4.1q-1 0-1-1.3-.2-1.2 1-1.6"/></g><g id="b"><path fill="#d5c4a4" d="m3.2 1 1.2.2-1.7 2.4.4.4-.9 2.2-1.4-.9Q2.3 3.9 3.2 1"/><path fill="#fff3d3" d="m4.4 1.3.7.1q-1.3 4-2.8 4.8L3.2 4l-.5-.4z"/><path fill="#c3b292" d="M.8 5.3 0 4.8Q1.6 3.5 1.8 0l1.4 1Q2.2 3.9.8 5.3"/></g><g id="c"><path fill="#c3b292" d="M.7 9.8 0 8.1l1.3-5L3.6 0l1.9 1.5 1 3.2-1.2 2.6-.9-1L2.5 6z"/><path fill="#d5c4a4" d="M.7 9.8 2.5 6l1.9.3.9 1-.8 1.4-.2-.8-2.1 2.6z"/></g><g id="e"><path fill="#ad5686" d="M12.1 9.7q1.9 5 .7 8.3 3.1-2.3 6.2-2.2.1-2.2-.3-3.9v-.4l-.8-1.9-.1-.1-3.7-6.8-4.2.8zm7-2q2.1 4.8 1.4 9.3-5 .4-9.8 3.4.6-2.6-1-10.8-1-2.6-2-4.2Q7 4.1 6 3.4l-2.6-1 .9.3q-1.6 2.9-2.4 7.4l1.7 8-.9.4L0 10.4 2.5 2 10 0l5.4 1.4z"/><path fill="#8e4771" d="M19 7.8h.1z"/></g><g id="h"><path fill="#fff3d3" d="M4.4 3.4V3q0-.9-.7-2L3.5.8l-.2.1-.5-.5L4 0q1.2 1.1 1.2 3.7l-.6 1z"/><path fill="#aa9979" d="m3.4.8.2-.1.2.4q.6 1 .6 1.9v.4l-.1.1-.5 1.8-1 1.5-.5.3-1.1-.5H2l.7-.6.3-1.5-.5-1.3L2 3l-1 .8-.3-1 1.7-1.6z"/><path fill="#d5c4a4" d="m4.4 3.4.2 1.4-.6.9-1.2 1 1-1.5.5-1.7zM2.7.4l.5.4-1 .4L.7 2.8l.3 1 .1.8-.1.7-.2 1.2-.5-.3q-.5-2.9-.1-4Q1.3 1 2.7.5z"/></g><g id="m"><path fill="#f99a85" d="M.2 3H.1L0 1.8l1.7-1V1L.3 2.3zv-.7L1.8.9l.8-.9 1.8 1.1-1.5 2.3-.2 1h-.9l-.2.6-.7-.3v-.2L.1 4zm.7-.5-.1 2zM2 3l-.3 1.5z"/><path fill="none" stroke="#b3543f" stroke-linecap="round" stroke-linejoin="round" stroke-width="__RESOLUTION__" d="M1.7.9V.6L0 1.8v1.4L.2 3v-.6zl.8-.9m1.8 1.1L2.8 3.4l-.2 1h-.9l-.2.6-.7-.3v-.2L.1 4l.1-1m.6 1.5v-2m.9 2L2 3" vector-effect="non-scaling-stroke"/></g><g id="n"><path fill="#5d361b" d="m30 4.9 2-1.2 1.8 2-2.2 1.1z"/><path fill="none" stroke="#777675" stroke-linecap="round" stroke-linejoin="round" stroke-width="__RESOLUTION__" d="m33.8 5.8-2.2 1L30 4.9" vector-effect="non-scaling-stroke"/><path fill="#5d361b" d="m15.6 12.9-2.2 1-1.6-1.8 1.9-1.3z"/><path fill="none" stroke="#777675" stroke-linecap="round" stroke-linejoin="round" stroke-width="__RESOLUTION__" d="m15.6 12.9-2.2 1-1.6-1.8" vector-effect="non-scaling-stroke"/><path fill="#d89c60" d="M33 2.5q-2.8.4-5.6 2.5L20 7.6q-10 3.5-14.1 5.3l-.7-1L32.5 1.4zM4 15.7q-1.6 0-2.3-1.6-.7-1.8 0-5l.8.5q-1.1 4.1 1.6 6"/><path fill="#905418" d="M6 12.9q4-1.9 14-5.3L27.4 5q2.8-2.1 5.6-2.5 0 .7-.3 1.5Q9.4 13.4 4.1 15.7q-2.7-2-1.6-6.1l2.2-.7q.2 2.2.5 3z"/><path fill="none" stroke="#783c00" stroke-linecap="round" stroke-linejoin="round" stroke-width="__RESOLUTION__" d="m33 2.5-.5-1.1L5.2 11.9l.7 1M33 2.4q.1.7-.2 1.5Q9.4 13.4 4.1 15.7q-1.7 0-2.4-1.6-.7-1.8 0-5m3-.2q.2 2.2.5 3" vector-effect="non-scaling-stroke"/><path fill="#60391e" d="M6.3 8.6v1.7l-2.5 1.5v-1.7z"/><path fill="#a47d62" d="M3.8 11.8h-.2l-.8-1.9 1 .2zm-1-.1-1.6-.3-.5-1.9 1.2.3h.2z"/><path fill="#cda68b" d="m3.6 11.8-.5-.1h-.3l-.7-1.9.5.1h.2zm-2.4-.5-1.1-.2L0 9.5l.7.2z"/><path fill="#754e33" d="m0 9.4.6-1.6 3.3-.6 2.4 1.4-2.5 1.6-1-.2h-.1L2 9.8h-.2L.7 9.6zm3.4-.1 1-.7-1-.6-1.5.2-.3.8z"/><path fill="#321c10" d="m3.4 9.3-1.8-.4.3-.7L3.4 8l1 .6z"/><path fill="none" stroke="#451d02" stroke-linecap="round" stroke-linejoin="round" stroke-opacity=".3" stroke-width="__RESOLUTION__" d="M6.3 8.6v1.7l-2.5 1.5h-.2l-.5-.1m-.3 0-1.6-.4-1.1-.2L0 9.4l.6-1.6 3.3-.6 2.4 1.4-2.5 1.6-1-.2m-.9-.2L.7 9.6 0 9.4m2.7.6L2 9.8" vector-effect="non-scaling-stroke"/><path fill="#5d361b" d="m29 2.5.4-2 2.3 2 .5 3.8-.9-1.2-.3-2-1-.8z"/><path fill="#754e33" d="M29.4.6 31 0l2.3 1.9-1.6.6z"/><path fill="#9a7358" d="m33.3 1.9.6 3.7-1.7.7-.5-3.8z"/><path fill="none" stroke="#5c2203" stroke-linecap="round" stroke-linejoin="round" stroke-opacity=".3" stroke-width="__RESOLUTION__" d="m29 2.5.4-2L31 0l2.3 1.9.6 3.7-1.7.7v0m-.5-3.8.5 3.7M29.4.7l2.3 1.8" vector-effect="non-scaling-stroke"/><path fill="#754e33" d="m15 9-1.6.6-2.2-1.9 1.6-.5z"/><path fill="#9a7358" d="m13.4 9.6 1.6-.5.6 3.6-1.6.7z"/><path fill="#5d361b" d="m11.2 7.7 2.2 1.9.6 3.8-1-1.2-.2-2-1-.7-1.1.1z"/><path fill="none" stroke="#632403" stroke-linecap="round" stroke-linejoin="round" stroke-opacity=".3" stroke-width="__RESOLUTION__" d="m15 9-2.2-1.8-1.7.5 2.3 1.9.6 3.8 1.6-.7zm-4.3.7.5-2m2.7 5.7" vector-effect="non-scaling-stroke"/></g><g id="o"><path fill="#f99a85" d="M4.9 0 7 1.5Q2.5 4 0 4.5V3z"/><path fill="#e78873" d="m7.1 1.5-.4 3L2.3 6Q.5 5.5.1 4.5q2.5-.5 7-3"/><path fill="none" stroke="#b3523e" stroke-linecap="round" stroke-linejoin="round" stroke-opacity=".4" stroke-width="__RESOLUTION__" d="M6.7 4.5 2.3 6Q.5 5.5.1 4.5V3L5 0" vector-effect="non-scaling-stroke"/></g><g id="p"><path fill="#f99a85" d="m1.6 0 1.2 1.6Q2 4.5.6 5.6L0 4z"/><path fill="#e78873" d="M2.8 1.6 4.6 4l-2 2.6q-1.3 0-2-1 1.3-1.1 2.1-4"/><path fill="none" stroke="#b3523e" stroke-linecap="round" stroke-linejoin="round" stroke-opacity=".4" stroke-width="__RESOLUTION__" d="m4.6 4-2 2.6q-1.3 0-2-1L0 4l1.6-4" vector-effect="non-scaling-stroke"/></g><g id="q"><path fill="#e78873" d="m1.7 0 .9.2-1.9 3-.7-.5z"/><path fill="#f99a85" d="m2.6.2.9.2-1.1 1.5Q1.7 3.6.8 3.3z"/><path fill="none" stroke="#b3543f" stroke-linecap="round" stroke-linejoin="round" stroke-width="__RESOLUTION__" d="M3.5.4 2.4 1.9M0 2.8 1.7 0" vector-effect="non-scaling-stroke"/></g><g id="r"><path fill="#f99a85" d="m3.4 2 .8 1.7-1 .3-.3-1-.4 1H.7L0 3.3l.1-.1h1.2l1.2-.7v-.4z"/><path fill="#ffc9b4" d="M2.5 2v.5l-1.2.7H0q1-1 2.4-1.2"/><path fill="none" stroke="#b3543f" stroke-linecap="round" stroke-linejoin="round" stroke-width="__RESOLUTION__" d="m3.2 4 1-.3L3.4 2M0 3.3l.7.7h1.8l.4-1" vector-effect="non-scaling-stroke"/><path fill="#66361e" d="M6.2 1.3 7.1 0l2.8.2L9 2z"/><path fill="#a75c30" d="m6.2 1.3 2.9.7.1 3.7-6.5-1-1.5-.5L1.1 3l2.5-.4 1 1 1.7.3q.5-.7-.6-1.7l.5.2z"/><path fill="#8c4c28" d="M9.1 2 9.9.1l.6 3-1.3 2.5zm-8 1v-.1l2-1.5 2.6.8q1.1 1 .6 1.7l-1.6-.3-1.1-1z"/><path fill="none" stroke="#6b1700" stroke-linecap="round" stroke-linejoin="round" stroke-opacity=".4" stroke-width="__RESOLUTION__" d="M9.9.2 7 0l-.9 1.3v1.1l-.5-.2L3 1.4 1 2.9V3l.1 1.2 1.5.5 6.5 1 1.3-2.4zm-4.2 2q1.1 1 .6 1.7" vector-effect="non-scaling-stroke"/><path fill="#c19142" d="m1.8 2.9 1.6.7-.2 1.5L1.5 4z"/><path fill="#f7e9ca" d="m3.4 3.6-1.6-.7 2.6-1.5 1 .6z"/><path fill="none" stroke="#8d682f" stroke-linecap="round" stroke-linejoin="round" stroke-width="__RESOLUTION__" d="M1.8 2.9 1.6 4l1.6 1.2.2-1.6 2-1.6-1-.6z" vector-effect="non-scaling-stroke"/><path fill="#f7e9ca" d="M3.7 3.9 5 1.7h1.1l-.7 2.2z"/><path fill="#c19142" d="M3.7 3.9h1.8l.3 1.6-2-.5z"/><path fill="none" stroke="#8d682f" stroke-linecap="round" stroke-linejoin="round" stroke-width="__RESOLUTION__" d="m5.5 3.9.7-2.2h-1L3.7 3.9V5l2.1.5z" vector-effect="non-scaling-stroke"/><path fill="#c19142" d="m8 4 1.8.6-.3.8-2-.3z"/><path fill="#f7e9ca" d="M7.5 5 5 3l.8-.3L8 4z"/><path fill="none" stroke="#8d682f" stroke-linecap="round" stroke-linejoin="round" stroke-width="__RESOLUTION__" d="m8 4 1.8.6-.3.8-2-.3L5 2.9l.8-.3z" vector-effect="non-scaling-stroke"/><path fill="#c19142" d="m8.6 2.9 1.5-1.3V3L8.5 4z"/><path fill="#f7e9ca" d="M8.6 4 6 3.1l-.1-.7 2.7.5z"/><path fill="none" stroke="#8d682f" stroke-linecap="round" stroke-linejoin="round" stroke-width="__RESOLUTION__" d="m8.6 2.9 1.5-1.3V3L8.5 4 6 3.1v-.7z" vector-effect="non-scaling-stroke"/></g><g id="u"><path fill="none" stroke="#8f7e5e" stroke-linecap="round" stroke-linejoin="round" stroke-width="__RESOLUTION__" d="M1.4 4.9Q2.9 3.2 3.2 0m3.2 1.5Q5.1 5.4 3.6 6.2" vector-effect="non-scaling-stroke"/><path fill="#852f62" d="M1.2 7.4 0 6.5l1.6-2.1 1.6.6z"/><path fill="#a75184" d="m3.2 5 .4 1.7-1.8 2-.6-1.3z"/><path fill="none" stroke="#6d174a" stroke-linecap="round" stroke-linejoin="round" stroke-width="__RESOLUTION__" d="M1.2 7.4 0 6.5l1.6-2.1 1.6.6.5 1.7-1.8 2z" vector-effect="non-scaling-stroke"/><path fill="#c19142" d="m3.2 4.8 1 1-.3 1L2.7 6z"/><path fill="#f7e9ca" d="M3.2 4.8 2.7 6 .8 5.3l.8-.8z"/><path fill="none" stroke="#8d682f" stroke-linecap="round" stroke-linejoin="round" stroke-width="__RESOLUTION__" d="m2.7 6 1.1.7.4-1-1-1-1.6-.3-.8.9z" vector-effect="non-scaling-stroke"/><path fill="#f7e9ca" d="M1.5 7.4.2 6.2l.8-.9 1.7 1z"/><path fill="#c19142" d="m1.5 7.4 1.2-1.1.4 1.2-1 .9z"/><path fill="none" stroke="#8d682f" stroke-linecap="round" stroke-linejoin="round" stroke-width="__RESOLUTION__" d="m2.7 6.3-1.6-1-1 .9 1.4 1.2.7 1 .8-.9z" vector-effect="non-scaling-stroke"/><path fill="#c19142" d="M4.5 3.6 6 3.4l-.5.9-1.4.1z"/><path fill="#f7e9ca" d="m4.5 3.6-.3.8H1.8l-.2-.8z"/><path fill="none" stroke="#8d682f" stroke-linecap="round" stroke-linejoin="round" stroke-width="__RESOLUTION__" d="m4.2 4.4 1.4-.1.5-.9-1.6.2H1.6l.2.8z" vector-effect="non-scaling-stroke"/><path fill="#c19142" d="m4.9 2.6 1.2.5-.4 1-1.4-.5z"/><path fill="#f7e9ca" d="m4.9 2.6-.6 1-1.7-1.4.6-.6z"/><path fill="none" stroke="#8d682f" stroke-linecap="round" stroke-linejoin="round" stroke-width="__RESOLUTION__" d="m4.3 3.6 1.4.5.3-1-1-.5-1.8-1-.6.6z" vector-effect="non-scaling-stroke"/></g><g id="w"><path fill="#fff3d3" d="m4.3 8 .2.8.3 1.2-.7-.7L3 11.1l-.9-.5z"/><path fill="none" stroke="#8f7e5e" stroke-linecap="round" stroke-linejoin="round" stroke-width="__RESOLUTION__" d="m4.5 8.8.8-1.3 1.2-2.6M4.3 8l.2.7.3 1.2m-.7-.7L3 11.1M1.1 3.2 0 8.2" vector-effect="non-scaling-stroke"/><path fill="#c19142" d="M4.2 5.5 5 6.7l-.3 1.2-1.4-1z"/><path fill="#f7e9ca" d="m4.2 5.5-.8 1.4-3.1-1 .3-1.1z"/><path fill="none" stroke="#8d682f" stroke-linecap="round" stroke-linejoin="round" stroke-width="__RESOLUTION__" d="m3.4 6.9 1.4 1 .3-1.2-1-1.2-3.5-.7L.3 6z" vector-effect="non-scaling-stroke"/><path fill="#c19142" d="M4.5 4.8 5 3.3l1.8 1.3-.6 1z"/><path fill="#f7e9ca" d="m5 3.3-.5 1.5-3.4-1.6.8-1.1z"/><path fill="none" stroke="#8d682f" stroke-linecap="round" stroke-linejoin="round" stroke-width="__RESOLUTION__" d="m4.5 4.8 1.7.8.6-1L5 3.3 1.9 2.1 1 3.2z" vector-effect="non-scaling-stroke"/><path fill="#c19142" d="M5.6 1.8 7 4l-.5 1-2.1-2.1z"/><path fill="#f7e9ca" d="m5.6 1.8-1.1 1-2.5-1L3 0z"/><path fill="none" stroke="#8d682f" stroke-linecap="round" stroke-linejoin="round" stroke-width="__RESOLUTION__" d="m4.5 2.9 2 2L7 4 5.6 1.8 3 0 2 1.7z" vector-effect="non-scaling-stroke"/><path fill="#c19142" d="m4.3 3.1 2.3 1.4v1.3L4 5z"/><path fill="#f7e9ca" d="m4.3 3.1-.2 2L.8 5l.4-1.2z"/><path fill="none" stroke="#8d682f" stroke-linecap="round" stroke-linejoin="round" stroke-width="__RESOLUTION__" d="m4.1 5 2.5.7V4.5L4.3 3.2l-3.1.7L.7 5z" vector-effect="non-scaling-stroke"/></g><g id="x"><path fill="#f99a85" d="M3.3 3.6 1.4 0h1.7l1.1 2.4z"/><path fill="#e78873" d="m1.4 0 1.9 3.6-.8.4L0 .4z"/><path fill="none" stroke="#b3543f" stroke-linecap="round" stroke-linejoin="round" stroke-width="__RESOLUTION__" d="M4.2 2.5 3 0M0 .3 2.5 4" vector-effect="non-scaling-stroke"/></g><g id="E"><path fill="none" stroke="#343438" stroke-linecap="round" stroke-linejoin="round" stroke-opacity=".3" stroke-width="__RESOLUTION__" d="M7.8 5.5q1 1.6 2 4.1 1.4 8.2.8 10.8 5-3 9.9-3.4.7-4.4-1.4-9.2l-3.6-6.4L10.1 0 2.5 2h0l1.8.7m-.6 15.8-.1-.4-.8.4L0 10.4 2.5 2" vector-effect="non-scaling-stroke"/><path fill="#755f2e" fill-opacity=".3" d="M12.1 9.7 9.8 3.6l4.2-.9 3.7 6.8.1.2-7-4.7 4.7 4.9 3.2 1.6v.3q.4 1.7.4 3.9-3.2-.1-6.3 2.2 1.2-3.3-.7-8.3"/><path fill="#381d2e" fill-opacity=".3" d="m18.7 11.6-.7-2-.2-.1-3.7-6.8-4.2.9 2.2 6.1q2 5 .8 8.3 3-2.3 6.2-2.2 0-2.2-.3-3.9zm.4-3.8q2.1 4.8 1.4 9.2-4.9.4-9.8 3.4.6-2.6-.9-10.8-1-2.6-2-4.2-.8-1.3-1.7-2L10 0l5.5 1.4zM1.9 10l1.7 8-.8.4-2.8-8L2.6 2l1.7.7Q2.7 5.6 2 10.1"/></g><g id="B"><path fill="none" stroke="#8f7e5e" stroke-linecap="round" stroke-linejoin="round" stroke-width="__RESOLUTION__" d="M2.2 16.7q1 1 1.2 1.4l-.9 2.3q-.2 1 .4 2.7 1.5 4 8.3 3.2 3.5-1 5.3-3.6 1.9-3.9 1.3-8.7" vector-effect="non-scaling-stroke"/><path fill="#4a3c29" fill-opacity=".3" d="m10.6 23.7.4-2.9q0-2.5-1.9-5.3l8.7-1.5q.5 4.8-1.3 8.7-1.8 2.6-5.3 3.6-.7-1.1-.6-2.6"/><path fill="#c96d3a" d="m17.7 15.5.4-.7.3 2-.7 1-.3-2.1z"/><path fill="#824425" d="m17.5 15.7.1 2.2q-2 1.7-8.2 2.5l-.2-2.2q6.4-1 8.3-2.6"/><path fill="#a75c30" d="M9.4 20.4 5 21q-.9-.1-1.8-1.2l-.1-2q1 1 2 1l4.1-.6z"/><path fill="none" stroke="#6b1700" stroke-linecap="round" stroke-linejoin="round" stroke-opacity=".4" stroke-width="__RESOLUTION__" d="m17.7 17.9.7-1.1-.2-2-.6.7m0 2.4q-2 1.7-8.2 2.5L5 21q-.9-.1-1.8-1.2l-.1-2q1 1 2 1l4.1-.6q6.4-1 8.3-2.5" vector-effect="non-scaling-stroke"/><path fill="#c96d3a" d="M16.6 14q-.1-2.9-2.2-8l-3.5-3.6q-5.6-1.3-5.8-1l-.2-1L8.4 0q3.4 1.4 4.5 2.5l2.1 2 2.3 7.6q.2 1-.7 1.9"/><path fill="#8c4c28" d="m4.9.4.2 1q.2-.3 5.8 1L14.4 6q2.1 5.2 2.2 8-1.8 1.5-7.3 2.7-.4-.3-.7-2l-.2-4.4q-.1-1.5-.9-3.1L3 6.7.7 5.5Q1.3 3.2 2 2.4z"/><path fill="#a75c30" d="M.7 5.5 3 6.7l4.5.5q.8 1.6.9 3.2l.2 4.2q.3 1.8.8 2.1l-7.5 1.2-1.1-2.3q-1-4.1-.7-7z"/><path fill="none" stroke="#53250d" stroke-linecap="round" stroke-linejoin="round" stroke-opacity=".5" stroke-width="__RESOLUTION__" d="M16.6 14q.9-1 .7-2L15 4.5l-2.1-2Q11.8 1.4 8.4 0L4.9.4m-3 2q-.6.8-1.2 3.1l-.6 3q-.3 3 .7 7.1l1.1 2.3 7.5-1.2q5.4-1.2 7.2-2.7" vector-effect="non-scaling-stroke"/></g><g id="M"><path fill="#de8978" d="M1 5.4v-.2l.1-.7-.1-.7L2 3l.6.2.5 1.3L2.8 6l-.7.6h-1v-.1H.8z"/><path fill="#bc4638" d="M1 6.6h.1z"/><path fill="none" stroke="#4d3321" stroke-linecap="round" stroke-linejoin="round" stroke-opacity=".5" stroke-width="__RESOLUTION__" d="m2.3 7.1.5-.3L4 5.7l.6-1 .6-1q0-2.6-1.3-3.7L2.6.5Q1.3 1 .1 2.3q-.3 1 .2 3.9" vector-effect="non-scaling-stroke"/><path fill="none" stroke="#4d3422" stroke-linecap="round" stroke-linejoin="round" stroke-opacity=".3" stroke-width="__RESOLUTION__" d="m1 5.4-.1 1m.2.1" vector-effect="non-scaling-stroke"/></g><g id="K"><path fill="none" stroke="#a2997e" stroke-linecap="round" stroke-linejoin="round" stroke-width="__RESOLUTION__" d="m4 16.6.2 4 2.2 1 3-4.7 5.7-3.7-.7-3.5-2-2.6-.3-1.3-1.9-.7-1-2M12 5.8l1.7-1.1-.3-2.7-1.7-2-4.5.7M2 5.3.7 8" vector-effect="non-scaling-stroke"/><path fill="none" stroke="#bdb499" stroke-linecap="round" stroke-linejoin="round" stroke-width="__RESOLUTION__" d="M7.3.7 2 5.3" vector-effect="non-scaling-stroke"/><path fill="none" stroke="#6d174a" stroke-linecap="round" stroke-linejoin="round" stroke-width="__RESOLUTION__" d="M.7 8 0 10.7 1.6 12l.8 1.8L4 16.6" vector-effect="non-scaling-stroke"/><path fill="#3d3223" fill-opacity=".3" d="m9.2 3.1 1 2 1.9.7.3 1.3 2 2.6.7 3.5-5.7 3.7-3 4.7-2.3-1-.1-4 2.5-2.8-2.2-2 .2-5 2.1-.3.3-1.6 1.4-.4z"/><path fill="#452136" fill-opacity=".3" d="m2.4 13.8 1.9-2 2.2 2L4 16.7z"/></g><g id="H"><path fill="none" stroke="#8f7e5e" stroke-linecap="round" stroke-linejoin="round" stroke-width="__RESOLUTION__" d="M.2 14q1.9-2.6 5-4.7.5-3 1.9-4.1Q8.4 4 9.9 3.6t3 .4l3.5 1.7M13 16.1l-4.7-.7q-5.9 2.1-7 1.6" vector-effect="non-scaling-stroke"/><path fill="#3d3223" fill-opacity=".3" d="M16.4 5.7Q13.3 8 12.8 9.3l.3 2.2-.6 2q-1.3.9-2.6-.1-1-2.4-2.5-2.8-.4-.1-.4.6l-.1.8q-2.5 1-3 1-1 0-1.6.9L0 15.6.3 14q1.9-2.7 5-4.8.5-2.9 1.8-4Q8.5 3.9 10 3.4t2.9.4 3.5 1.7"/><path fill="#d5c4a4" d="M12.7 2.7 14 1.1l1.2-.8q1.2.8 1.8 2.5l-.4 1.4-.2 1-1.9-.4-.7-.3z"/><path fill="#fff3d3" d="M15.2.3 14 1l-1.3 1.6-.2-1q1-1.3 2.3-1.7z"/><path fill="none" stroke="#4d3321" stroke-linecap="round" stroke-linejoin="round" stroke-opacity=".3" stroke-width="__RESOLUTION__" d="m12.7 2.7 1.1 1.9m2.6.6.3-1 .2-1.4q-.5-1.7-1.7-2.5l-.3-.3q-1.5.4-2.5 1.7l.3 1" vector-effect="non-scaling-stroke"/><path fill="#ff3604" d="M4.7 9.8q.9-1 1.6-.9.1.8-.5 1.8-.8 1.1-1.8.8-.2-.7.7-1.7"/><path fill="none" stroke="#5e0901" stroke-linecap="round" stroke-linejoin="round" stroke-opacity=".3" stroke-width="__RESOLUTION__" d="M4.7 9.8q.9-1 1.6-.9.1.8-.5 1.8-.8 1.1-1.8.8-.2-.7.7-1.7" vector-effect="non-scaling-stroke"/><path fill="#ffe1d9" d="m5.4 9.5-.2.3-.3.1h-.2v-.3l.2-.2.3-.2zm-.8 1.1-.2.1h-.1v-.3l.3-.1h.1z"/></g><g id="F"><path fill="#ffc9b4" d="M1.6 0 1 1 0 .8.8 0z"/><path fill="#f99a85" d="m0 .8 1 .1.5-.8.7 1.4-1 1L0 2z"/><path fill="none" stroke="#b3543f" stroke-linecap="round" stroke-linejoin="round" stroke-width="__RESOLUTION__" d="M.8 0 0 .8V2l1.3.4" vector-effect="non-scaling-stroke"/></g><g id="Z" transform="translate(4.1 1.75)"><use xlink:href="#t" width="5.1" height="6.2" transform="translate(-2.75 -1.75)"/><use xlink:href="#u" width="6.5" height="8.7" transform="translate(-4.1 -1.75)"/></g><g id="X" transform="translate(3.6 2.65)"><use xlink:href="#v" width="6.5" height="10.4" transform="translate(-3.6 -2.5)"/><use xlink:href="#w" width="7" height="11.1" transform="translate(-3.6 -2.65)"/></g><g id="V" transform="translate(1.95 1.2)"><use xlink:href="#x" width="4.2" height="4" transform="translate(-1.2 .3)"/><use xlink:href="#y" width="4.7" height="4" transform="translate(-1.95 -1.2)"/><use xlink:href="#z" width="4.7" height="3" transform="translate(-1.95 -.15)"/></g><g id="S" transform="translate(11.8 18.5)"><use xlink:href="#A" width="15.7" height="12.4" transform="translate(-7.65 -3.9)"/><use xlink:href="#B" width="18.4" height="26.4" transform="translate(-9.85 -17.9)"/><use xlink:href="#C" width="9.2" height="15.3" transform="translate(-1.9 -15.8)"/><use xlink:href="#D" width="20.6" height="20.4" transform="translate(-11.8 -18.5)"/><use xlink:href="#E" width="20.7" height="20.4" transform="translate(-11.8 -18.5)"/></g><g id="R" transform="translate(12.85 13.35)"><use xlink:href="#F" width="2.2" height="2.5" transform="translate(-12.85 4.6)"/><use xlink:href="#G" width="16.8" height="13.7" transform="translate(-11.95 -5.9)"/><use xlink:href="#H" width="16.9" height="17.1" transform="translate(-11.9 -9.35)"/><use xlink:href="#I" width="14.4" height="21.6" transform="translate(-6.65 -13.35)"/><use xlink:href="#J" width="6.5" height="8.6" transform="translate(-7.35 -5.4)"/><use xlink:href="#K" width="15.1" height="21.6" transform="translate(-7.35 -13.35)"/><use xlink:href="#L" width="5.2" height="7.1" transform="translate(-3.1 -7)"/><use xlink:href="#M" width="5.2" height="7.1" transform="translate(-3.1 -7)"/></g><clipPath id="N"><path d="M1 1h63v67H1z"/></clipPath><clipPath id="ab"><path d="M65 1h63v67H65z"/></clipPath><clipPath id="ad"><path d="M129 1h63v67h-63z"/></clipPath><clipPath id="af"><path d="M193 1h63v67h-63z"/></clipPath><clipPath id="ah"><path d="M257 1h63v67h-63z"/></clipPath><clipPath id="aj"><path d="M321 1h63v67h-63z"/></clipPath><clipPath id="al"><path d="M385 1h63v67h-63z"/></clipPath><clipPath id="an"><path d="M449 1h63v67h-63z"/></clipPath><clipPath id="ap"><path d="M513 1h63v67h-63z"/></clipPath><clipPath id="ar"><path d="M577 1h63v67h-63z"/></clipPath><clipPath id="as"><path d="M641 1h63v67h-63z"/></clipPath><path id="d" fill="#d5c4a4" d="m0 .8.3 1.3-1.2-.5L-2.3-1l3-1L2.4.6l-.4 1h-.8z" transform="translate(2.3 2)"/><path id="f" fill="#ffffea" d="m3.4-.8.8 1.9v.4q.4 1.6.4 3.9-3.1-.2-6.2 2.1 1.1-3.2-.8-8.2l-2.1-6.2 4.2-.8z" transform="translate(4.55 7.65)"/><path id="g" fill="#d5c4a4" d="M-7.8-3.5 7.7-6.2q.6 4.8-1.2 8.7Q4.6 5.1 1 6.1q-6.8.8-8.2-3.2-.7-1.7-.5-2.7l.9-2.3z" transform="translate(7.85 6.2)"/><path id="i" fill="#8e4771" d="m-3.2-1.6.7-2.7 5.7 5.9L.8 4.3-1 1.5l-.8-1.8z" transform="translate(3.25 4.3)"/><path id="j" fill="#fef5da" d="m6.5-1.1.7 3.5-5.7 3.7-3 4.7-2.2-1-.2-4L-1.4 3l-5.8-6 1.3-2.6 5.3-4.6 4.6-.7 1.6 2 .3 2.7L4.2-5l.3 1.3z" transform="translate(7.2 10.8)"/><path id="k" fill="#d5c4a4" d="M4.5-6.2 8-4.5q1 1.2-.6 5.8-1.5 4.6-2.7 4.6L-.1 5q-5.8 2.2-7 1.7l-1.3-1.4.3-1.6Q-6.4 1-3.2-1q.5-2.9 1.8-4t2.9-1.6 2.9.4" transform="translate(8.4 6.8)"/><path id="s" fill="#382c16" d="M5.8-1.9Q7.9-1.4 8-.5 8 .3 5.9 1 3.8 1.8.7 2l-5.2-.4Q-6.7 1.2-6.7.3q-.1-.8 2-1.6 2.2-.8 5.2-.9z" transform="translate(6.75 2.25)"/><path id="z" fill="none" stroke="#8f7e5e" stroke-linecap="round" stroke-linejoin="round" stroke-width="__RESOLUTION__" d="m-2-.1 1.4 2.6 1.2.4-.2-1.3 1.1.8h.9l.3-1" transform="translate(1.95 .15)" vector-effect="non-scaling-stroke"/></defs><g clip-path="url(#N)"><g transform="translate(33.6 59.2)"><use xlink:href="#O" width="14.7" height="4.3" transform="matrix(.8 0 0 .8008 -5.4 -1.8)"/><use xlink:href="#P" width="10.5" height="5.7" transform="translate(-3.2 -5.75)"/><use xlink:href="#Q" width="3.5" height="3.3" transform="matrix(-.9884 .1483 .1483 .9884 5.15 -7.65)"/><use xlink:href="#R" width="20.6" height="21.6" transform="translate(-22.25 -38.05)"/><use xlink:href="#S" width="20.7" height="27" transform="translate(-12.35 -29.3)"/><use xlink:href="#T" width="4.6" height="6.5" transform="matrix(-.555 .6014 .72 .3957 12.5 -2.55)"/><use xlink:href="#T" width="4.6" height="6.5" transform="matrix(-1.0653 .2477 .2242 .5632 13.15 -2.5)"/><use xlink:href="#T" width="4.6" height="6.5" transform="matrix(-1.4073 .0593 -.1366 .6482 13.15 -3.55)"/><use xlink:href="#T" width="4.6" height="6.5" transform="matrix(-1.3483 -.0907 -.2465 .9259 11.8 -6.85)"/><use xlink:href="#U" width="7.1" height="6" transform="matrix(-.8102 .1597 -.279 1.3634 10.3 -11.15)"/><use xlink:href="#V" width="5" height="5.5" transform="matrix(-1 0 0 1 -1.85 -6.45)"/><use xlink:href="#P" width="10.5" height="5.7" transform="translate(-11.7 -1.15)"/><use xlink:href="#Q" width="3.5" height="3.3" transform="matrix(-.9884 .1483 .1483 .9884 -3.35 -3.05)"/><use xlink:href="#W" width="33.9" height="15.7" transform="rotate(36.044 25.672 -48.291)scale(.9901)"/><use xlink:href="#X" width="7" height="11.1" transform="rotate(-6.56 -220.641 84.957)scale(.9996)"/><use xlink:href="#Y" width="4.3" height="5" transform="translate(-15.6 -10.25)"/><use xlink:href="#Z" width="6.5" height="8.7" transform="matrix(.987 .1572 -.0088 1.0107 -13.2 -17.15)"/><use xlink:href="#aa" width="36.4" height="34.2" transform="translate(-6.8 -58.2)"/></g></g><g clip-path="url(#ab)"><g transform="translate(97.6 59.2)"><use xlink:href="#O" width="14.7" height="4.3" transform="matrix(.8 0 0 .8008 -5.4 -1.8)"/><use xlink:href="#P" width="10.5" height="5.7" transform="translate(-3.2 -5.75)"/><use xlink:href="#Q" width="3.5" height="3.3" transform="matrix(-.9884 .1483 .1483 .9884 5.15 -7.65)"/><use xlink:href="#R" width="20.6" height="21.6" transform="translate(-22.25 -38.05)"/><use xlink:href="#S" width="20.7" height="27" transform="translate(-12.35 -29.3)"/><use xlink:href="#T" width="4.6" height="6.5" transform="matrix(-.555 .6014 .72 .3957 12.5 -2.55)"/><use xlink:href="#T" width="4.6" height="6.5" transform="matrix(-1.0653 .2477 .2242 .5632 13.15 -2.5)"/><use xlink:href="#T" width="4.6" height="6.5" transform="matrix(-1.4073 .0593 -.1366 .6482 13.15 -3.55)"/><use xlink:href="#T" width="4.6" height="6.5" transform="matrix(-1.3483 -.0907 -.2465 .9259 11.8 -6.85)"/><use xlink:href="#U" width="7.1" height="6" transform="matrix(-.8102 .1597 -.279 1.3634 10.3 -11.15)"/><use xlink:href="#V" width="5" height="5.5" transform="matrix(-1 0 0 1 -1.85 -6.45)"/><use xlink:href="#P" width="10.5" height="5.7" transform="translate(-11.7 -1.15)"/><use xlink:href="#Q" width="3.5" height="3.3" transform="matrix(-.9884 .1483 .1483 .9884 -3.35 -3.05)"/><use xlink:href="#W" width="33.9" height="15.7" transform="rotate(36.044 25.672 -48.291)scale(.9901)"/><use xlink:href="#X" width="7" height="11.1" transform="rotate(-6.56 -220.641 84.957)scale(.9996)"/><use xlink:href="#Y" width="4.3" height="5" transform="translate(-15.6 -10.25)"/><use xlink:href="#Z" width="6.5" height="8.7" transform="matrix(.987 .1572 -.0088 1.0107 -13.2 -17.15)"/><use xlink:href="#ac" width="36.4" height="34.2" transform="translate(-6.8 -58.2)"/></g></g><g clip-path="url(#ad)"><g transform="translate(161.6 59.2)"><use xlink:href="#O" width="14.7" height="4.3" transform="matrix(.8 0 0 .8008 -5.4 -1.8)"/><use xlink:href="#P" width="10.5" height="5.7" transform="translate(-3.2 -5.75)"/><use xlink:href="#Q" width="3.5" height="3.3" transform="matrix(-.9884 .1483 .1483 .9884 5.15 -7.65)"/><use xlink:href="#R" width="20.6" height="21.6" transform="translate(-22.25 -38.05)"/><use xlink:href="#S" width="20.7" height="27" transform="translate(-12.35 -29.3)"/><use xlink:href="#T" width="4.6" height="6.5" transform="matrix(-.555 .6014 .72 .3957 12.5 -2.55)"/><use xlink:href="#T" width="4.6" height="6.5" transform="matrix(-1.0653 .2477 .2242 .5632 13.15 -2.5)"/><use xlink:href="#T" width="4.6" height="6.5" transform="matrix(-1.4073 .0593 -.1366 .6482 13.15 -3.55)"/><use xlink:href="#T" width="4.6" height="6.5" transform="matrix(-1.3483 -.0907 -.2465 .9259 11.8 -6.85)"/><use xlink:href="#U" width="7.1" height="6" transform="matrix(-.8102 .1597 -.279 1.3634 10.3 -11.15)"/><use xlink:href="#V" width="5" height="5.5" transform="matrix(-1 0 0 1 -1.85 -6.45)"/><use xlink:href="#P" width="10.5" height="5.7" transform="translate(-11.7 -1.15)"/><use xlink:href="#Q" width="3.5" height="3.3" transform="matrix(-.9884 .1483 .1483 .9884 -3.35 -3.05)"/><use xlink:href="#W" width="33.9" height="15.7" transform="rotate(36.044 25.672 -48.291)scale(.9901)"/><use xlink:href="#X" width="7" height="11.1" transform="rotate(-6.56 -220.641 84.957)scale(.9996)"/><use xlink:href="#Y" width="4.3" height="5" transform="translate(-15.6 -10.25)"/><use xlink:href="#Z" width="6.5" height="8.7" transform="matrix(.987 .1572 -.0088 1.0107 -13.2 -17.15)"/><use xlink:href="#ae" width="36.4" height="34.2" transform="translate(-6.8 -58.2)"/></g></g><g clip-path="url(#af)"><g transform="translate(225.6 59.2)"><use xlink:href="#O" width="14.7" height="4.3" transform="matrix(.8 0 0 .8008 -5.4 -1.8)"/><use xlink:href="#P" width="10.5" height="5.7" transform="translate(-3.2 -5.75)"/><use xlink:href="#Q" width="3.5" height="3.3" transform="matrix(-.9884 .1483 .1483 .9884 5.15 -7.65)"/><use xlink:href="#R" width="20.6" height="21.6" transform="translate(-22.25 -38.05)"/><use xlink:href="#S" width="20.7" height="27" transform="translate(-12.35 -29.3)"/><use xlink:href="#T" width="4.6" height="6.5" transform="matrix(-.555 .6014 .72 .3957 12.5 -2.55)"/><use xlink:href="#T" width="4.6" height="6.5" transform="matrix(-1.0653 .2477 .2242 .5632 13.15 -2.5)"/><use xlink:href="#T" width="4.6" height="6.5" transform="matrix(-1.4073 .0593 -.1366 .6482 13.15 -3.55)"/><use xlink:href="#T" width="4.6" height="6.5" transform="matrix(-1.3483 -.0907 -.2465 .9259 11.8 -6.85)"/><use xlink:href="#U" width="7.1" height="6" transform="matrix(-.8102 .1597 -.279 1.3634 10.3 -11.15)"/><use xlink:href="#V" width="5" height="5.5" transform="matrix(-1 0 0 1 -1.85 -6.45)"/><use xlink:href="#P" width="10.5" height="5.7" transform="translate(-11.7 -1.15)"/><use xlink:href="#Q" width="3.5" height="3.3" transform="matrix(-.9884 .1483 .1483 .9884 -3.35 -3.05)"/><use xlink:href="#W" width="33.9" height="15.7" transform="rotate(36.044 25.672 -48.291)scale(.9901)"/><use xlink:href="#X" width="7" height="11.1" transform="rotate(-6.56 -220.641 84.957)scale(.9996)"/><use xlink:href="#Y" width="4.3" height="5" transform="translate(-15.6 -10.25)"/><use xlink:href="#Z" width="6.5" height="8.7" transform="matrix(.987 .1572 -.0088 1.0107 -13.2 -17.15)"/><use xlink:href="#ag" width="36.4" height="34.2" transform="translate(-6.8 -58.2)"/></g></g><g clip-path="url(#ah)"><g transform="translate(289.6 59.2)"><use xlink:href="#O" width="14.7" height="4.3" transform="matrix(.8 0 0 .8008 -5.4 -1.8)"/><use xlink:href="#P" width="10.5" height="5.7" transform="translate(-3.2 -5.75)"/><use xlink:href="#Q" width="3.5" height="3.3" transform="matrix(-.9884 .1483 .1483 .9884 5.15 -7.65)"/><use xlink:href="#R" width="20.6" height="21.6" transform="translate(-22.25 -38.05)"/><use xlink:href="#S" width="20.7" height="27" transform="translate(-12.35 -29.3)"/><use xlink:href="#T" width="4.6" height="6.5" transform="matrix(-.555 .6014 .72 .3957 12.5 -2.55)"/><use xlink:href="#T" width="4.6" height="6.5" transform="matrix(-1.0653 .2477 .2242 .5632 13.15 -2.5)"/><use xlink:href="#T" width="4.6" height="6.5" transform="matrix(-1.4073 .0593 -.1366 .6482 13.15 -3.55)"/><use xlink:href="#T" width="4.6" height="6.5" transform="matrix(-1.3483 -.0907 -.2465 .9259 11.8 -6.85)"/><use xlink:href="#U" width="7.1" height="6" transform="matrix(-.8102 .1597 -.279 1.3634 10.3 -11.15)"/><use xlink:href="#V" width="5" height="5.5" transform="matrix(-1 0 0 1 -1.85 -6.45)"/><use xlink:href="#P" width="10.5" height="5.7" transform="translate(-11.7 -1.15)"/><use xlink:href="#Q" width="3.5" height="3.3" transform="matrix(-.9884 .1483 .1483 .9884 -3.35 -3.05)"/><use xlink:href="#W" width="33.9" height="15.7" transform="rotate(36.044 25.672 -48.291)scale(.9901)"/><use xlink:href="#X" width="7" height="11.1" transform="rotate(-6.56 -220.641 84.957)scale(.9996)"/><use xlink:href="#Y" width="4.3" height="5" transform="translate(-15.6 -10.25)"/><use xlink:href="#Z" width="6.5" height="8.7" transform="matrix(.987 .1572 -.0088 1.0107 -13.2 -17.15)"/><use xlink:href="#ai" width="36.4" height="34.2" transform="translate(-6.8 -58.2)"/></g></g><g clip-path="url(#aj)"><g transform="translate(353.6 59.2)"><use xlink:href="#O" width="14.7" height="4.3" transform="matrix(.8 0 0 .8008 -5.4 -1.8)"/><use xlink:href="#P" width="10.5" height="5.7" transform="translate(-3.2 -5.75)"/><use xlink:href="#Q" width="3.5" height="3.3" transform="matrix(-.9884 .1483 .1483 .9884 5.15 -7.65)"/><use xlink:href="#R" width="20.6" height="21.6" transform="translate(-22.25 -38.05)"/><use xlink:href="#S" width="20.7" height="27" transform="translate(-12.35 -29.3)"/><use xlink:href="#T" width="4.6" height="6.5" transform="matrix(-.555 .6014 .72 .3957 12.5 -2.55)"/><use xlink:href="#T" width="4.6" height="6.5" transform="matrix(-1.0653 .2477 .2242 .5632 13.15 -2.5)"/><use xlink:href="#T" width="4.6" height="6.5" transform="matrix(-1.4073 .0593 -.1366 .6482 13.15 -3.55)"/><use xlink:href="#T" width="4.6" height="6.5" transform="matrix(-1.3483 -.0907 -.2465 .9259 11.8 -6.85)"/><use xlink:href="#U" width="7.1" height="6" transform="matrix(-.8102 .1597 -.279 1.3634 10.3 -11.15)"/><use xlink:href="#V" width="5" height="5.5" transform="matrix(-1 0 0 1 -1.85 -6.45)"/><use xlink:href="#P" width="10.5" height="5.7" transform="translate(-11.7 -1.15)"/><use xlink:href="#Q" width="3.5" height="3.3" transform="matrix(-.9884 .1483 .1483 .9884 -3.35 -3.05)"/><use xlink:href="#W" width="33.9" height="15.7" transform="rotate(36.044 25.672 -48.291)scale(.9901)"/><use xlink:href="#X" width="7" height="11.1" transform="rotate(-6.56 -220.641 84.957)scale(.9996)"/><use xlink:href="#Y" width="4.3" height="5" transform="translate(-15.6 -10.25)"/><use xlink:href="#Z" width="6.5" height="8.7" transform="matrix(.987 .1572 -.0088 1.0107 -13.2 -17.15)"/><use xlink:href="#ak" width="36.4" height="34.2" transform="translate(-6.8 -58.2)"/></g></g><g clip-path="url(#al)"><g transform="translate(417.6 59.2)"><use xlink:href="#O" width="14.7" height="4.3" transform="matrix(.8 0 0 .8008 -5.4 -1.8)"/><use xlink:href="#P" width="10.5" height="5.7" transform="translate(-3.2 -5.75)"/><use xlink:href="#Q" width="3.5" height="3.3" transform="matrix(-.9884 .1483 .1483 .9884 5.15 -7.65)"/><use xlink:href="#R" width="20.6" height="21.6" transform="translate(-22.25 -38.05)"/><use xlink:href="#S" width="20.7" height="27" transform="translate(-12.35 -29.3)"/><use xlink:href="#T" width="4.6" height="6.5" transform="matrix(-.555 .6014 .72 .3957 12.5 -2.55)"/><use xlink:href="#T" width="4.6" height="6.5" transform="matrix(-1.0653 .2477 .2242 .5632 13.15 -2.5)"/><use xlink:href="#T" width="4.6" height="6.5" transform="matrix(-1.4073 .0593 -.1366 .6482 13.15 -3.55)"/><use xlink:href="#T" width="4.6" height="6.5" transform="matrix(-1.3483 -.0907 -.2465 .9259 11.8 -6.85)"/><use xlink:href="#U" width="7.1" height="6" transform="matrix(-.8102 .1597 -.279 1.3634 10.3 -11.15)"/><use xlink:href="#V" width="5" height="5.5" transform="matrix(-1 0 0 1 -1.85 -6.45)"/><use xlink:href="#P" width="10.5" height="5.7" transform="translate(-11.7 -1.15)"/><use xlink:href="#Q" width="3.5" height="3.3" transform="matrix(-.9884 .1483 .1483 .9884 -3.35 -3.05)"/><use xlink:href="#W" width="33.9" height="15.7" transform="rotate(36.044 25.672 -48.291)scale(.9901)"/><use xlink:href="#X" width="7" height="11.1" transform="rotate(-6.56 -220.641 84.957)scale(.9996)"/><use xlink:href="#Y" width="4.3" height="5" transform="translate(-15.6 -10.25)"/><use xlink:href="#Z" width="6.5" height="8.7" transform="matrix(.987 .1572 -.0088 1.0107 -13.2 -17.15)"/><use xlink:href="#am" width="36.4" height="34.2" transform="translate(-6.8 -58.2)"/></g></g><g clip-path="url(#an)"><g transform="translate(481.6 59.2)"><use xlink:href="#O" width="14.7" height="4.3" transform="matrix(.8 0 0 .8008 -5.4 -1.8)"/><use xlink:href="#P" width="10.5" height="5.7" transform="translate(-3.2 -5.75)"/><use xlink:href="#Q" width="3.5" height="3.3" transform="matrix(-.9884 .1483 .1483 .9884 5.15 -7.65)"/><use xlink:href="#R" width="20.6" height="21.6" transform="translate(-22.25 -38.05)"/><use xlink:href="#S" width="20.7" height="27" transform="translate(-12.35 -29.3)"/><use xlink:href="#T" width="4.6" height="6.5" transform="matrix(-.555 .6014 .72 .3957 12.5 -2.55)"/><use xlink:href="#T" width="4.6" height="6.5" transform="matrix(-1.0653 .2477 .2242 .5632 13.15 -2.5)"/><use xlink:href="#T" width="4.6" height="6.5" transform="matrix(-1.4073 .0593 -.1366 .6482 13.15 -3.55)"/><use xlink:href="#T" width="4.6" height="6.5" transform="matrix(-1.3483 -.0907 -.2465 .9259 11.8 -6.85)"/><use xlink:href="#U" width="7.1" height="6" transform="matrix(-.8102 .1597 -.279 1.3634 10.3 -11.15)"/><use xlink:href="#V" width="5" height="5.5" transform="matrix(-1 0 0 1 -1.85 -6.45)"/><use xlink:href="#P" width="10.5" height="5.7" transform="translate(-11.7 -1.15)"/><use xlink:href="#Q" width="3.5" height="3.3" transform="matrix(-.9884 .1483 .1483 .9884 -3.35 -3.05)"/><use xlink:href="#W" width="33.9" height="15.7" transform="rotate(36.044 25.672 -48.291)scale(.9901)"/><use xlink:href="#X" width="7" height="11.1" transform="rotate(-6.56 -220.641 84.957)scale(.9996)"/><use xlink:href="#Y" width="4.3" height="5" transform="translate(-15.6 -10.25)"/><use xlink:href="#Z" width="6.5" height="8.7" transform="matrix(.987 .1572 -.0088 1.0107 -13.2 -17.15)"/><use xlink:href="#ao" width="36.4" height="34.2" transform="translate(-6.8 -58.2)"/></g></g><g clip-path="url(#ap)"><g transform="translate(545.6 59.2)"><use xlink:href="#O" width="14.7" height="4.3" transform="matrix(.8 0 0 .8008 -5.4 -1.8)"/><use xlink:href="#P" width="10.5" height="5.7" transform="translate(-3.2 -5.75)"/><use xlink:href="#Q" width="3.5" height="3.3" transform="matrix(-.9884 .1483 .1483 .9884 5.15 -7.65)"/><use xlink:href="#R" width="20.6" height="21.6" transform="translate(-22.25 -38.05)"/><use xlink:href="#S" width="20.7" height="27" transform="translate(-12.35 -29.3)"/><use xlink:href="#T" width="4.6" height="6.5" transform="matrix(-.555 .6014 .72 .3957 12.5 -2.55)"/><use xlink:href="#T" width="4.6" height="6.5" transform="matrix(-1.0653 .2477 .2242 .5632 13.15 -2.5)"/><use xlink:href="#T" width="4.6" height="6.5" transform="matrix(-1.4073 .0593 -.1366 .6482 13.15 -3.55)"/><use xlink:href="#T" width="4.6" height="6.5" transform="matrix(-1.3483 -.0907 -.2465 .9259 11.8 -6.85)"/><use xlink:href="#U" width="7.1" height="6" transform="matrix(-.8102 .1597 -.279 1.3634 10.3 -11.15)"/><use xlink:href="#V" width="5" height="5.5" transform="matrix(-1 0 0 1 -1.85 -6.45)"/><use xlink:href="#P" width="10.5" height="5.7" transform="translate(-11.7 -1.15)"/><use xlink:href="#Q" width="3.5" height="3.3" transform="matrix(-.9884 .1483 .1483 .9884 -3.35 -3.05)"/><use xlink:href="#W" width="33.9" height="15.7" transform="rotate(36.044 25.672 -48.291)scale(.9901)"/><use xlink:href="#X" width="7" height="11.1" transform="rotate(-6.56 -220.641 84.957)scale(.9996)"/><use xlink:href="#Y" width="4.3" height="5" transform="translate(-15.6 -10.25)"/><use xlink:href="#Z" width="6.5" height="8.7" transform="matrix(.987 .1572 -.0088 1.0107 -13.2 -17.15)"/><use xlink:href="#aq" width="36.4" height="34.2" transform="translate(-6.8 -58.2)"/></g></g><g clip-path="url(#ar)"><g transform="translate(609.6 59.2)"><use xlink:href="#O" width="14.7" height="4.3" transform="matrix(.8 0 0 .8008 -5.4 -1.8)"/><use xlink:href="#P" width="10.5" height="5.7" transform="translate(-3.2 -5.75)"/><use xlink:href="#Q" width="3.5" height="3.3" transform="matrix(-.9884 .1483 .1483 .9884 5.15 -7.65)"/><use xlink:href="#R" width="20.6" height="21.6" transform="translate(-22.25 -38.05)"/><use xlink:href="#S" width="20.7" height="27" transform="translate(-12.35 -29.3)"/><use xlink:href="#T" width="4.6" height="6.5" transform="matrix(-.555 .6014 .72 .3957 12.5 -2.55)"/><use xlink:href="#T" width="4.6" height="6.5" transform="matrix(-1.0653 .2477 .2242 .5632 13.15 -2.5)"/><use xlink:href="#T" width="4.6" height="6.5" transform="matrix(-1.4073 .0593 -.1366 .6482 13.15 -3.55)"/><use xlink:href="#T" width="4.6" height="6.5" transform="matrix(-1.3483 -.0907 -.2465 .9259 11.8 -6.85)"/><use xlink:href="#U" width="7.1" height="6" transform="matrix(-.8102 .1597 -.279 1.3634 10.3 -11.15)"/><use xlink:href="#V" width="5" height="5.5" transform="matrix(-1 0 0 1 -1.85 -6.45)"/><use xlink:href="#P" width="10.5" height="5.7" transform="translate(-11.7 -1.15)"/><use xlink:href="#Q" width="3.5" height="3.3" transform="matrix(-.9884 .1483 .1483 .9884 -3.35 -3.05)"/><use xlink:href="#W" width="33.9" height="15.7" transform="rotate(36.044 25.672 -48.291)scale(.9901)"/><use xlink:href="#X" width="7" height="11.1" transform="rotate(-6.56 -220.641 84.957)scale(.9996)"/><use xlink:href="#Y" width="4.3" height="5" transform="translate(-15.6 -10.25)"/><use xlink:href="#Z" width="6.5" height="8.7" transform="matrix(.987 .1572 -.0088 1.0107 -13.2 -17.15)"/></g></g><g clip-path="url(#as)"><g transform="translate(673.6 59.2)"><use xlink:href="#O" width="14.7" height="4.3" transform="matrix(.8 0 0 .8008 -5.4 -1.8)"/><use xlink:href="#P" width="10.5" height="5.7" transform="translate(-3.2 -5.75)"/><use xlink:href="#Q" width="3.5" height="3.3" transform="matrix(-.9884 .1483 .1483 .9884 5.15 -7.65)"/><use xlink:href="#R" width="20.6" height="21.6" transform="translate(-22.25 -38.05)"/><use xlink:href="#S" width="20.7" height="27" transform="translate(-12.35 -29.3)"/><use xlink:href="#T" width="4.6" height="6.5" transform="matrix(-.555 .6014 .72 .3957 12.5 -2.55)"/><use xlink:href="#T" width="4.6" height="6.5" transform="matrix(-1.0653 .2477 .2242 .5632 13.15 -2.5)"/><use xlink:href="#T" width="4.6" height="6.5" transform="matrix(-1.4073 .0593 -.1366 .6482 13.15 -3.55)"/><use xlink:href="#T" width="4.6" height="6.5" transform="matrix(-1.3483 -.0907 -.2465 .9259 11.8 -6.85)"/><use xlink:href="#U" width="7.1" height="6" transform="matrix(-.8102 .1597 -.279 1.3634 10.3 -11.15)"/><use xlink:href="#V" width="5" height="5.5" transform="matrix(-1 0 0 1 -1.85 -6.45)"/><use xlink:href="#P" width="10.5" height="5.7" transform="translate(-11.7 -1.15)"/><use xlink:href="#Q" width="3.5" height="3.3" transform="matrix(-.9884 .1483 .1483 .9884 -3.35 -3.05)"/><use xlink:href="#W" width="33.9" height="15.7" transform="rotate(36.044 25.672 -48.291)scale(.9901)"/><use xlink:href="#X" width="7" height="11.1" transform="rotate(-6.56 -220.641 84.957)scale(.9996)"/><use xlink:href="#Y" width="4.3" height="5" transform="translate(-15.6 -10.25)"/><use xlink:href="#Z" width="6.5" height="8.7" transform="matrix(.987 .1572 -.0088 1.0107 -13.2 -17.15)"/><use xlink:href="#at" width="36.4" height="34.2" transform="translate(-6.8 -58.2)"/></g></g></svg>