<svg xmlns="http://www.w3.org/2000/svg" xmlns:xlink="http://www.w3.org/1999/xlink" width="617" height="56" viewBox="0 0 617 56"><defs><use xlink:href="#a" id="b" width="22.9" height="21.6"/><use xlink:href="#b" id="L" width="22.9" height="21.6" transform="matrix(-1 0 0 1 29.95 4.5)"/><use xlink:href="#b" id="I" width="22.9" height="21.6" transform="matrix(-1.06 0 0 1.06 30.65 4)"/><use xlink:href="#b" id="G" width="22.9" height="21.6" transform="matrix(-1.13 0 0 1.13 31.35 3.55)"/><use xlink:href="#b" id="E" width="22.9" height="21.6" transform="matrix(-1.19 0 0 1.19 32.1 3)"/><use xlink:href="#b" id="C" width="22.9" height="21.6" transform="matrix(-1.26 0 0 1.26 32.8 2.5)"/><use xlink:href="#b" id="A" width="22.9" height="21.6" transform="matrix(-1.32 0 0 1.32 33.5 2)"/><use xlink:href="#b" id="y" width="22.9" height="21.6" transform="matrix(-1.39 0 0 1.39 34.2 1.55)"/><use xlink:href="#b" id="w" width="22.9" height="21.6" transform="matrix(-1.45 0 0 1.45 34.9 1)"/><use xlink:href="#b" id="u" width="22.9" height="21.6" transform="matrix(-1.52 0 0 1.52 35.65 .5)"/><use xlink:href="#b" id="s" width="22.9" height="21.6" transform="matrix(-1.58 0 0 1.58 36.35 0)"/><use xlink:href="#c" id="r" width="15.3" height="15.6"/><use xlink:href="#d" id="p" width="13.8" height="13.9"/><use xlink:href="#e" id="o" width="10.6" height="7.7"/><use xlink:href="#f" id="n" width="10.4" height="6.3"/><use xlink:href="#g" id="m" width="6.3" height="9.2"/><use xlink:href="#h" id="l" width="14.7" height="4.3"/><use xlink:href="#i" id="k" width="10" height="10.9"/><clipPath id="j"><path d="M1 1h55v54H1z"/></clipPath><clipPath id="t"><path d="M57 1h55v54H57z"/></clipPath><clipPath id="v"><path d="M113 1h55v54h-55z"/></clipPath><clipPath id="x"><path d="M169 1h55v54h-55z"/></clipPath><clipPath id="z"><path d="M225 1h55v54h-55z"/></clipPath><clipPath id="B"><path d="M281 1h55v54h-55z"/></clipPath><clipPath id="D"><path d="M337 1h55v54h-55z"/></clipPath><clipPath id="F"><path d="M393 1h55v54h-55z"/></clipPath><clipPath id="H"><path d="M449 1h55v54h-55z"/></clipPath><clipPath id="J"><path d="M505 1h55v54h-55z"/></clipPath><clipPath id="K"><path d="M561 1h55v54h-55z"/></clipPath><g id="a"><path fill="#fff" d="M7.5 0q2 3.1 4 4.9 1.5 1.2 3.9.5Q17 5 20.7 3q-1.6 2.6-2 4.5-.3 1.2.6 2.3 1 1.3 3.6 1.7-1.2 0-2.4.8-1 .6-1.3 1.3-.5 1 .5 2.7.7 1.5 2.7 3.8-6.6-3.5-9.2-1.8-2.1 1.5-2.9 3.3 0-1.7-.3-2.4-.5-2.1-1.8-2.5-3-1-7.4.4.8-.5 2.3-2.6 1-1.2.6-3.1Q3.3 8.7 0 6.2l3.4.4 2.9-.4q1-.3 1.2-6.1z"/><path fill="#35479e" d="M12.2 13.7h-.7l-.6-.4-3.5-6.1q-.2-.3 0-.8l.7-.6L9.5 5l.9-.1q.4 0 .5.5-2.3.8-2.5 1.4 2.5 5.3 3.7 6.9m1.9 4h-.7q-.7-.1-.9-.6t0-1.2q.3-.5 1-.9.3-.2.7-.2-1.2.4-1 1.7 0 1.2 1 1.2z"/><path fill="#578afd" d="M12.2 13.7q-1.3-1.6-3.7-6.9.1-.6 2.4-1.5l2.4 6.6v.8l-.6.7-.3.2zm1.9 1 .5.1q.5.2.8.7.2.5 0 1.1l-.9 1-.4.1q-1 0-1-1.3-.2-1.2 1-1.6"/></g><g id="c"><path fill="#cc6c0c" d="M2 8.4q1.8 3.2-.6 5.5Q0 11.3 2 8.4"/><path fill="none" stroke="#824409" stroke-linecap="round" stroke-linejoin="round" stroke-width="__RESOLUTION__" d="M2 8.4q-2 3-.6 5.5 2.4-2.3.6-5.5" vector-effect="non-scaling-stroke"/><path fill="#381952" d="M10.5 3.9q1.8 1.2 2.9 3.9.9 1.9.3 3.7-.6 1.6-1.7 2l-3.1.9q.4-2.2-1.1-4.3-1.6-6.9 2.7-6.2"/><path fill="#582578" d="M8.9 14.4q-3.6.5-5.5-1l-.6-.5q-1-1.4.6-4.4l.4-.6q-.9-1.1.8-4.2 2-1.1 4.5-.4l1.4.6q-4.3-.7-2.7 6.2 1.5 2.1 1 4.3"/><path fill="#9467b0" d="M2.8 12.9q-1.3-1.5-.6-3.5V7.2Q2 5.4 4.2 4l.4-.3Q2.9 6.9 3.9 8l-.4.6q-1.6 3-.7 4.3"/><path fill="none" stroke="#63267d" stroke-linecap="round" stroke-linejoin="round" stroke-width="__RESOLUTION__" d="M10.5 3.9q1.8 1.2 2.9 3.9.9 1.9.3 3.7-.6 1.6-1.7 2l-3.1.9q-3.5.5-5.5-1l-.6-.5q-1.3-1.5-.6-3.5.2-1.1 0-2.3-.1-1.8 2-3.2l.4-.3q2-1 4.5-.4z" vector-effect="non-scaling-stroke"/><path fill="#f0e0c2" d="M9.3 9.6q1.7-.4 2.8.3.3 1-1.1 1.7l-.4.2q.8-1.7-1.4-2.1z"/><path fill="#fff" d="M10.6 11.7q-2.4.7-3.1 0 .2-1 1.7-2.1 2.2.4 1.4 2.1"/><path fill="none" stroke="#967637" stroke-linecap="round" stroke-linejoin="round" stroke-width="__RESOLUTION__" d="M9.3 9.6q1.7-.4 2.8.3.3 1-1.1 1.7l-.4.2q-2.4.7-3.1 0 .2-1 1.7-2.1" vector-effect="non-scaling-stroke"/><path fill="#fff" d="m2.9 10.8-.5-.3q-.5-.8-.3-1.8.5-.7 1.2-.2l.1.3q.3 1.5-.5 2"/><path fill="#f0e0c2" d="M2.9 10.8q.8-.5.5-2 .4 1 .4 1.8-.3.6-.9.3z"/><path fill="none" stroke="#967637" stroke-linecap="round" stroke-linejoin="round" stroke-width="__RESOLUTION__" d="M3.3 8.5Q2.6 8 2 8.5q-.3 1.1.2 1.8l.5.4m.1 0q.6.3.9-.2 0-.8-.4-1.8" vector-effect="non-scaling-stroke"/><path fill="#b59bca" d="m2.8 10.7.4.4v.2l-.3.1-.5-.2-.4-.3v-.2l.3-.2z"/><path fill="#9467b0" d="m9 12.2.8-.2h.9l.4.3-.4.4-.8.2h-1q-.3-.1-.3-.3t.4-.4"/><path fill="#270f33" d="M7 11.8q0 .3-.6.1l-1.2-.3-1-.1-.3-.3.5-.4 1-.1q.6 0 1.2.4.5.3.4.7"/><path fill="#9467b0" d="m8.4 8.9-.3.1.3-.3.8-.4 1-.2.6.1-.4.2-1.1.1zm5.4 1.3h.3l1.2-.1q-2.1 1-3 2.2.1-1.1 1.5-2.1"/><path fill="#411a53" d="M15.3 10.1q0 2.4-3.4 3.3 0-.6.5-1.2.7-1.1 2.9-2.1"/><path fill="#381952" d="m11.9 13.4-.1-2.6q.5-.5 2-.6-1.4 1-1.5 2-.4.6-.4 1.2"/><path fill="none" stroke="#270f33" stroke-linecap="round" stroke-linejoin="round" stroke-width="__RESOLUTION__" d="M13.8 10.2h.3l1.2-.1q0 2.4-3.4 3.2m-.1-2.5q.5-.5 2-.6" vector-effect="non-scaling-stroke"/><path fill="#ff8d0f" d="M12.3 10.2q1.7 3.1-.7 5.4-1.3-2.5.7-5.4"/><path fill="none" stroke="#824409" stroke-linecap="round" stroke-linejoin="round" stroke-width="__RESOLUTION__" d="M12.3 10.2q-2 2.9-.7 5.4 2.4-2.3.7-5.4" vector-effect="non-scaling-stroke"/><path fill="#cc6c0c" d="M12.7 1.2 14 2.8q1.9 3.3-.1 5.5-.4-3.1-1.2-3.9 1.3-.3 0-3.2Q11.4.1 10 .6l-.7.4-1.6.5L9.3 1 8 0Q5.2 0 3.3 1.5q-1.2.8-2 1.6Q4.5.8 7.8 1.4L6.6 2.8q.9-.8 2.2-.5 1.2-1.2 3.8-1m.2 3.2q.7.8 1 3.9.1.9-1.2 2.2l-.4-.6q0-1.2-2.1-3.1-2.2-2.1-2.2-3.3 4 2.3 4.9.9M6 4.9Q2.3 6.4 1 7.7q-1-1-1-2.1Q1.7 3.9 3.6 4l4.3-.6q-.6 1.2-2 1.5"/><path fill="#ff8d0f" d="M7.8 1.6 6.6 2.7q.9-.8 2.2-.5 1.2-1.2 3.8-1 1.4 2.9.2 3.2-1 1.4-5-1 .1 1.3 2.3 3.4 2.1 1.9 2.1 3-.9-1-3.2-1.8-2.3-1.5-3-3 1.3-.4 1.8-1.5L3.6 4Q1.7 4 0 5.6q0-1.2 1.3-2.5Q4.5.8 7.8 1.4"/><path fill="none" stroke="#824409" stroke-linecap="round" stroke-linejoin="round" stroke-width="__RESOLUTION__" d="M12.7 1.2Q11.3.1 10 .6l-.7.4-1.6.5m5 2.9q.8.8 1.2 3.9 2-2.3.1-5.6l-1.3-1.5M1.3 3.1q.8-.9 2-1.7Q5.2.1 7.9 0l1.4 1m3.3 9.5Q14 9.2 14 8.3M12.2 10Q11.3 8.9 9 8 6.7 6.5 6 5 2.2 6.4 1 7.7q-1-1-1-2.1t1.3-2.5m6.6.3q-.6 1.2-2 1.5" vector-effect="non-scaling-stroke"/><path fill="#d1bb90" d="M2.4 6.4 1.3 3.8l2 2z"/><path fill="#fef7e0" d="m3.3 5.8-2-2 2.6 1z"/><path fill="none" stroke="#a27937" stroke-linecap="round" stroke-linejoin="round" stroke-width="__RESOLUTION__" d="m1.3 3.8 1.1 2.6M1.3 3.8l2.6 1" vector-effect="non-scaling-stroke"/><path fill="#d1bb90" d="m12.7 5.3-1.1 2.4q-.9 0-1.3-.4z"/><path fill="#fef7e0" d="m12.7 5.3-2.4 2q-.4-.5-.2-1.5z"/><path fill="none" stroke="#a27937" stroke-linecap="round" stroke-linejoin="round" stroke-width="__RESOLUTION__" d="m11.6 7.7 1.1-2.4h0l-2.7.5" vector-effect="non-scaling-stroke"/></g><g id="d"><path fill="#7da10b" d="m3.6 2 .8-.8q1-1.1 3.1-1 2.3.2 4.4 2.3 4.1 6.5-.8 9.4l-1.1.5q-2.1-1.1-2.2-2.3-3.3 3.2-3.3 1.9-.1-1.3.8-3.2.6-1.3 1-1.4-4.5-.5-3.8-1.8L1 6.3l-.2-.1v-.3l.3-.7.2-.2.4-.3-.2-.1-.1-.4.3-.6.7-.5H3v-.2l.4-.5z"/><path fill="#a6c916" d="m10 12.4-2.8.7-.2.5-.9-.1-.6-.3-.3.7h-.7l-.7-.8-.3-.6h-.8l-.5-.7v-.4l-.1-.1-.2.2h-.6l-.3-.7v-.9l-.7.1-.3-.6.3-1L.6 8l.2-.2-.2-.2-.2-.7.4-.7h.1l.2.1 1.3-.7q-.6 1.3 4 1.8-.6.1-1.2 1.4-.8 1.8-.8 3.2 0 1.3 3.4-1.9.1 1.2 2.2 2.3"/><path fill="#ebe0c3" d="m1.4 5 .2-.4.1.1z"/><path fill="#dac492" d="m2.8 3.1.2-.4.6-.7-.2.4-.4.5V3z"/><path fill="none" stroke="#5c651b" stroke-linecap="round" stroke-linejoin="round" stroke-width="__RESOLUTION__" d="M12 2.5q4 6.5-.9 9.4l-1.1.5-2.8.7-.2.5-.9-.1-.6-.3-.3.7h-.7l-.7-.8-.3-.6h-.8l-.5-.7v-.4l-.1-.1-.2.2h-.6l-.3-.7v-.9 0h0l-.7.1-.3-.6.3-1L.6 8l.2-.2-.2-.2h0l-.2-.7.4-.7h.1v-.3l.3-.7.2-.2.4-.3-.2-.1-.1-.4.3-.6.7-.5H3v-.2l.4-.5.2-.4" vector-effect="non-scaling-stroke"/><path fill="#8a5520" d="M9.7.9q3.4 1.8 3.2 3.5.6.9-1.7 2.7l-1 .2q-2.5-.6-4.5-3.1V4h-.1q-2 0-3.9-1.2l1.2-1.7.2-.1Q6.3-1 9.7.8"/><path fill="#b16c27" d="M10.3 7.3 8 7.5q-1.5 0-2.9-1.1l-2 .1q-1.2-.4-1.9-1.2-.3-.9.5-2.4 2 1.3 3.9 1.2l-.5 2.3.5-2.3h.1q2 2.6 4.6 3.2"/><path fill="none" stroke="#f2ca00" stroke-linecap="round" stroke-linejoin="round" stroke-width="__RESOLUTION__" d="m11.2 7.1-1 .2-2.1.2q-1.6 0-3-1.1l-2 .1q-1.2-.4-1.9-1.2M5.6 4l-.5 2.3M5.7 4" vector-effect="non-scaling-stroke"/><path fill="none" stroke="#824409" stroke-linecap="round" stroke-linejoin="round" stroke-width="__RESOLUTION__" d="M1.2 5.3q-.3-.9.5-2.4l1.2-1.7.1-.1Q6.4-1 9.8.8" vector-effect="non-scaling-stroke"/><path fill="#8a5520" d="m11.7 9.8-.5 1.5-3 .8-2 .1q-3-.1-5.1-2.3L.6 8.1q2.5 1.5 5.8 1.8l2.2.1z"/><path fill="none" stroke="#8f6401" stroke-linecap="round" stroke-linejoin="round" stroke-width="__RESOLUTION__" d="m11.7 9.8-3.1.2-2.2-.1Q3 9.6.6 8.1M1 9.9q2 2.2 5.2 2.3l1.9-.1 3-.8" vector-effect="non-scaling-stroke"/><path fill="#fec501" d="M5.1 10.8v-.2q-.1-.5-.6-.9l-.1-.1.7-.5q.7.6.8 1.4zM3.5 9.3h-.3q-.4.1-.6.4-.3.4-.2.9l.6 1 .8.3 1 .5h-.5q-.8 0-1.5-.5t-.9-1.4.3-1.5 1.3-.5H4z"/><path fill="#fee4ab" d="M4.4 9.6q-.4-.3-.9-.3l.6-.8.2.1.8.4zm-.6 2.3h.3q.5 0 .8-.4.3-.3.2-.7l.8-.3q.2.8-.2 1.3l-.5.4-.3.2z"/><path fill="none" stroke="#ad8601" stroke-linecap="round" stroke-linejoin="round" stroke-width="__RESOLUTION__" d="M5.1 10.8v-.2q-.1-.5-.6-.9l-.1-.1q-.4-.3-.9-.3m-.3 0q-.3.1-.5.4t-.2.9l.6 1 .7.3h.3q.5 0 .8-.3t.2-.8m.8-.2q-.1-.8-.7-1.4m-.1 0-.8-.4m-.2 0-.6-.2q-.9 0-1.3.6t-.3 1.5.9 1.3q.7.6 1.5.6h.6m.3-.2.4-.4q.4-.5.3-1.3" vector-effect="non-scaling-stroke"/></g><g id="e"><path fill="#eaa32d" d="M7.2 5.9q-2.5.5-4.2-.5-1.5-1.9-.7-3.5Q2.7.8 4.2.8 6 .8 6.5 0q2 .9 2.9 1.9l-1.7.6-1.5 1q-.2 1.1 1 2.4M5.9 2.1q.7-.3 1.8.4-1.1-.7-1.8-.4h-.2l-.7.5-1.7 1.2.8-2.4 2.8-.3z"/><path fill="#cf7b16" d="M7.2 5.9Q6 4.6 6.2 3.5l1.5-1 1.7-.6q.9 1 .7 2L10 5.4zM5.9 2.1h-.2l-.7.5-1.7 1.2.8-2.4 2.8-.3zm2.2.6-.4-.2z"/><path fill="none" stroke="#93550b" stroke-linecap="round" stroke-linejoin="round" stroke-width="__RESOLUTION__" d="M9.4 1.9Q8.5.9 6.5 0 6 .8 4.3.8t-2 1q-.7 1.7.7 3.6 1.7 1 4.3.5l2.7-.5.2-1.5q.2-1-.7-2m-1.7.6Q6.6 1.8 5.9 2h-.2l-.7.5m2.7-.1.3.2" vector-effect="non-scaling-stroke"/><path fill="#d9ceb4" d="m4.7 3.3.2 1.3Q2 6 .9 5.9q.8-2.7 3.8-2.6"/><path fill="#fef7e0" d="M.9 5.9q-.7-.1-.9-.6-.1-1.5.9-3 1.8-1.2 3.7.5l.1.5q-3-.1-3.9 2.6"/><path fill="none" stroke="#93550b" stroke-linecap="round" stroke-linejoin="round" stroke-width="__RESOLUTION__" d="M4.9 4.6Q2 6 .9 5.9q-.7-.1-.9-.6-.1-1.5.9-3 1.8-1.2 3.7.5" vector-effect="non-scaling-stroke"/><path fill="#d9ceb4" d="m6.2 3 1 .9.6 1q.3.6.2 1.3-.3 1.1-1.2 1.5-1-1-.6-4.7"/><path fill="#fef7e0" d="M6.8 7.7h-1q-1.7-.1-1.9-1-.2-2.2.6-3.1.8-1.1 1.7-.6-.4 3.7.6 4.7"/><path fill="none" stroke="#93550b" stroke-linecap="round" stroke-linejoin="round" stroke-width="__RESOLUTION__" d="m6.2 3 1 .9.6 1q.3.6.2 1.3-.3 1.1-1.2 1.5h-1q-1.7-.1-1.9-1-.2-2.2.6-3.1.8-1.1 1.7-.6" vector-effect="non-scaling-stroke"/><path fill="#d9ceb4" d="m9.5 3.2.6.7.4.6.1.8q-.2.6-.7.8-.6-.2-.5-2.9"/><path fill="#fef7e0" d="m10 6-.6.1q-.9 0-1-.5 0-1.3.3-1.9t.7-.5q0 2.6.6 2.8"/><path fill="none" stroke="#93550b" stroke-linecap="round" stroke-linejoin="round" stroke-width="__RESOLUTION__" d="m9.5 3.2.6.7.4.6.1.8q-.2.6-.7.8h-.5q-.9 0-1-.5 0-1.3.3-1.9t.7-.5" vector-effect="non-scaling-stroke"/></g><g id="f"><path fill="#fef7e0" d="m7.2.9-.1.3q-1.7-.6-2.6.5L4 1.5Q4.3.6 5 0q1.4-.3 2.2.8"/><path fill="#d9ceb4" d="M7.1 1.2V2l-2.6-.4q.9-1 2.5-.4"/><path fill="none" stroke="#93550b" stroke-linecap="round" stroke-linejoin="round" stroke-width="__RESOLUTION__" d="m7 2.1-2.6-.3-.3-.5Q4.3.7 5 .2q1.4-.3 2.2.8" vector-effect="non-scaling-stroke"/><path fill="#eaa32d" d="M7.3 5.6Q5.5 6 4 4.9 2.9 3 3.8 1.3L4 1h1.5Q7 1 7.8.4L10 2.1l-1.5.4-1.5.8q.4.5.3 2.3M5.2 2l2.7-.6-3 .2-.5 2z"/><path fill="#cf7b16" d="M10 2q.6.9.4 1.8L10 5.1l-2.7.5q.1-1.8-.3-2.3l1.5-.8zM5.2 2l-.7 1.6.4-2 3-.3z"/><path fill="none" stroke="#93550b" stroke-linecap="round" stroke-linejoin="round" stroke-width="__RESOLUTION__" d="M7.3 5.6Q5.5 6 4 4.9 2.9 3 3.8 1.3L4 1h1.5Q7 1 7.8.4L10 2.1q.6.8.4 1.7L10 5.1z" vector-effect="non-scaling-stroke"/><path fill="none" stroke="#93550b" stroke-linecap="round" stroke-linejoin="round" stroke-width="__RESOLUTION__" d="m5.8 2 .8-.4.1.1q.7 0 1.4.8l.2.3" vector-effect="non-scaling-stroke"/><path fill="#fef7e0" d="M5 2.9Q2.2 2.5.8 4.7 0 4.6 0 4.1q.3-1.3 1.5-2.4Q3.7.9 5 2.5z"/><path fill="#d9ceb4" d="M.7 4.7Q2 2.6 5 2.9v1.7z"/><path fill="none" stroke="#93550b" stroke-linecap="round" stroke-linejoin="round" stroke-width="__RESOLUTION__" d="M5.1 2.5Q3.7.9 1.5 1.7.3 2.8 0 4.1q0 .5.7.6L5 4.5" vector-effect="non-scaling-stroke"/><path fill="#d9ceb4" d="M6.6 5.5q-1.7.9-3.9.9 1-2.5 3.7-2.6z"/><path fill="#fef7e0" d="M2.7 6.4 2 5.9q0-1.4 1-2.7 1.8-1.2 3.4.3v.3q-2.7.1-3.7 2.6"/><path fill="none" stroke="#93550b" stroke-linecap="round" stroke-linejoin="round" stroke-width="__RESOLUTION__" d="M6.6 5.5q-1.7.9-3.9.9L2 5.9q0-1.4 1-2.7 1.8-1.2 3.4.3" vector-effect="non-scaling-stroke"/></g><g id="g"><path fill="#381952" d="m3.2 2 .2-.4q.2-.2.4 0l.5.7.2.8L5 3q.3.1.5.6v.9l-.2.6.2.1.3.6-.1.7-.1.1v1.5q-.7.8-1.3 1-.1-2.7-1.6-3.5Q3 3 2 2.6q.5-.5 1.3-.4z"/><path fill="#582578" d="M4.3 9.2h-.7L2 7.7v-.2l-.3.3q-.4-1.1.1-2.7-.6-.5-.1-2.3l.2-.2q1 .5.8 3 1.5.8 1.5 3.6"/><path fill="#9467b0" d="m3.6 9.2-.7-.3v-.1q-.1.3-.3.2l-.4-.7-.2-.7zM1.7 7.8h-.1l-.4-.5V6.1l.2-.7-.2-.2-.2-.7v-.8l.4-.5.3-.4q-.5 1.7.2 2.2-.5 1.7-.2 2.8"/><path fill="none" stroke="#63267d" stroke-linecap="round" stroke-linejoin="round" stroke-width="__RESOLUTION__" d="m3.2 2 .2-.4q.2-.2.4 0l.5.7.2.8L5 3q.3.1.5.6v.9l-.2.6.2.1.3.6-.1.7-.1.1v0M2.8 8.9q-.1.3-.3.2l-.4-.7-.2-.6v-.2h0l-.3.3h-.1l-.4-.5V6.1l.1-.7-.1-.2-.3-.7.1-.8.3-.5h.1m4.2 3.4V8q-.7.9-1.3 1.1h-.7l-.7-.3h0" vector-effect="non-scaling-stroke"/><path fill="#8a5520" d="m1.2.6.5-.5Q4-.3 5.4 1.5l.7 1.8-.8.6Q4.4.7 1.2.6"/><path fill="#b16c27" d="M1.2.6Q4.4.7 5.4 4H0Q.1 1.9 1.2.6"/><path fill="none" stroke="#f2ca00" stroke-linecap="round" stroke-linejoin="round" stroke-width="__RESOLUTION__" d="m5.5 4 .8-.6M0 4.1 5.5 4" vector-effect="non-scaling-stroke"/><path fill="none" stroke="#824409" stroke-linecap="round" stroke-linejoin="round" stroke-width="__RESOLUTION__" d="m6.3 3.4-.8-1.8Q4-.2 1.7.1" vector-effect="non-scaling-stroke"/></g><g id="i"><path fill="#dbcf48" d="M4.7 0Q7 .8 8.3 2.6q.9 1.3 1.4 3.9.6 2.7 0 4.4-.2-6.4-5-10.9"/><path fill="#adaa22" d="M9.7 11q-1.4-2.8-3-3.2h-.4Q5.1 6.1 5.2 3 2.8 6.5 3.5 9.8q-.5-1-1.7-1.3Q.5 8.3 0 9q.7-1.1.2-2.5 2-.5 3-2l1.1-2.3q.4-.9.4-2.2 4.7 4.6 5 11"/><path fill="#99961e" d="M6.3 7.8q-1.5-.2-2.8 2Q2.8 6.5 5.1 3 5 6.2 6.2 7.8"/><path fill="none" stroke="#655f14" stroke-linecap="round" stroke-linejoin="round" stroke-width="__RESOLUTION__" d="M4.7 0Q7 .8 8.3 2.6q.9 1.3 1.4 3.9.6 2.7 0 4.4-1.4-2.7-3-3.1h-.4q-1.5-.3-2.8 2-.5-1-1.7-1.3-1.3-.3-1.8.4m.2-2.4q2-.5 3-2l1.1-2.3q.4-.9.4-2.2" vector-effect="non-scaling-stroke"/></g><g id="q"><path fill="#d1bb90" d="M1.2 2.7 0 0l2 2z"/><path fill="#fef7e0" d="M2 2 0 0l2.7 1z"/><path fill="none" stroke="#a27937" stroke-linecap="round" stroke-linejoin="round" stroke-width="__RESOLUTION__" d="m0 0 1.2 2.7M0 0l2.7 1" vector-effect="non-scaling-stroke"/><path fill="#d1bb90" d="m11.4 1.5-1 2.4q-1 0-1.3-.4z"/><path fill="#fef7e0" d="m11.4 1.5-2.3 2q-.5-.4-.3-1.4z"/><path fill="none" stroke="#a27937" stroke-linecap="round" stroke-linejoin="round" stroke-width="__RESOLUTION__" d="m10.4 3.9 1-2.4h0l-2.6.6" vector-effect="non-scaling-stroke"/></g><path id="h" fill="#382c16" d="M5.8-1.9Q7.9-1.4 8-.5 8 .3 5.9 1 3.8 1.8.7 2l-5.2-.4Q-6.7 1.2-6.7.3q-.1-.8 2-1.6 2.2-.8 5.2-.9z" transform="translate(6.75 2.25)"/></defs><g clip-path="url(#j)"><g transform="translate(39.45 51.9)"><use xlink:href="#k" width="10" height="10.9" transform="matrix(-.8056 -.3374 -.082 .9773 -1.85 -17.75)"/><use xlink:href="#k" width="10" height="10.9" transform="translate(5.75 -16.8)"/><use xlink:href="#l" width="14.7" height="4.3" transform="matrix(.8 0 0 .8 -5.4 -1.8)"/><use xlink:href="#m" width="6.3" height="9.2" transform="matrix(-1 0 0 1 -1.6 -13.3)"/><use xlink:href="#n" width="10.4" height="6.3" transform="translate(-7.55 -4.25)scale(.6538)"/><use xlink:href="#o" width="10.6" height="7.7" transform="translate(-.55 -2.75)scale(.6538)"/><use xlink:href="#p" width="13.8" height="13.9" transform="translate(-7 -13.6)"/><use xlink:href="#q" width="11.4" height="3.9" transform="translate(-6.15 -18.2)"/><use xlink:href="#m" width="6.3" height="9.2" transform="translate(2.25 -11.25)"/><use xlink:href="#r" width="15.3" height="15.6" transform="translate(-7.5 -23.65)"/><use xlink:href="#s" width="36.4" height="34.2" transform="matrix(-1 0 0 1 -2.1 -50.9)"/></g></g><g clip-path="url(#t)"><g transform="translate(95.45 51.9)"><use xlink:href="#k" width="10" height="10.9" transform="matrix(-.8056 -.3374 -.082 .9773 -1.85 -17.75)"/><use xlink:href="#k" width="10" height="10.9" transform="translate(5.75 -16.8)"/><use xlink:href="#l" width="14.7" height="4.3" transform="matrix(.8 0 0 .8 -5.4 -1.8)"/><use xlink:href="#m" width="6.3" height="9.2" transform="matrix(-1 0 0 1 -1.6 -13.3)"/><use xlink:href="#n" width="10.4" height="6.3" transform="translate(-7.55 -4.25)scale(.6538)"/><use xlink:href="#o" width="10.6" height="7.7" transform="translate(-.55 -2.75)scale(.6538)"/><use xlink:href="#p" width="13.8" height="13.9" transform="translate(-7 -13.6)"/><use xlink:href="#q" width="11.4" height="3.9" transform="translate(-6.15 -18.2)"/><use xlink:href="#m" width="6.3" height="9.2" transform="translate(2.25 -11.25)"/><use xlink:href="#r" width="15.3" height="15.6" transform="translate(-7.5 -23.65)"/><use xlink:href="#u" width="36.4" height="34.2" transform="matrix(-1 0 0 1 -2.1 -50.9)"/></g></g><g clip-path="url(#v)"><g transform="translate(151.45 51.9)"><use xlink:href="#k" width="10" height="10.9" transform="matrix(-.8056 -.3374 -.082 .9773 -1.85 -17.75)"/><use xlink:href="#k" width="10" height="10.9" transform="translate(5.75 -16.8)"/><use xlink:href="#l" width="14.7" height="4.3" transform="matrix(.8 0 0 .8 -5.4 -1.8)"/><use xlink:href="#m" width="6.3" height="9.2" transform="matrix(-1 0 0 1 -1.6 -13.3)"/><use xlink:href="#n" width="10.4" height="6.3" transform="translate(-7.55 -4.25)scale(.6538)"/><use xlink:href="#o" width="10.6" height="7.7" transform="translate(-.55 -2.75)scale(.6538)"/><use xlink:href="#p" width="13.8" height="13.9" transform="translate(-7 -13.6)"/><use xlink:href="#q" width="11.4" height="3.9" transform="translate(-6.15 -18.2)"/><use xlink:href="#m" width="6.3" height="9.2" transform="translate(2.25 -11.25)"/><use xlink:href="#r" width="15.3" height="15.6" transform="translate(-7.5 -23.65)"/><use xlink:href="#w" width="36.4" height="34.2" transform="matrix(-1 0 0 1 -2.1 -50.9)"/></g></g><g clip-path="url(#x)"><g transform="translate(207.45 51.9)"><use xlink:href="#k" width="10" height="10.9" transform="matrix(-.8056 -.3374 -.082 .9773 -1.85 -17.75)"/><use xlink:href="#k" width="10" height="10.9" transform="translate(5.75 -16.8)"/><use xlink:href="#l" width="14.7" height="4.3" transform="matrix(.8 0 0 .8 -5.4 -1.8)"/><use xlink:href="#m" width="6.3" height="9.2" transform="matrix(-1 0 0 1 -1.6 -13.3)"/><use xlink:href="#n" width="10.4" height="6.3" transform="translate(-7.55 -4.25)scale(.6538)"/><use xlink:href="#o" width="10.6" height="7.7" transform="translate(-.55 -2.75)scale(.6538)"/><use xlink:href="#p" width="13.8" height="13.9" transform="translate(-7 -13.6)"/><use xlink:href="#q" width="11.4" height="3.9" transform="translate(-6.15 -18.2)"/><use xlink:href="#m" width="6.3" height="9.2" transform="translate(2.25 -11.25)"/><use xlink:href="#r" width="15.3" height="15.6" transform="translate(-7.5 -23.65)"/><use xlink:href="#y" width="36.4" height="34.2" transform="matrix(-1 0 0 1 -2.1 -50.9)"/></g></g><g clip-path="url(#z)"><g transform="translate(263.45 51.9)"><use xlink:href="#k" width="10" height="10.9" transform="matrix(-.8056 -.3374 -.082 .9773 -1.85 -17.75)"/><use xlink:href="#k" width="10" height="10.9" transform="translate(5.75 -16.8)"/><use xlink:href="#l" width="14.7" height="4.3" transform="matrix(.8 0 0 .8 -5.4 -1.8)"/><use xlink:href="#m" width="6.3" height="9.2" transform="matrix(-1 0 0 1 -1.6 -13.3)"/><use xlink:href="#n" width="10.4" height="6.3" transform="translate(-7.55 -4.25)scale(.6538)"/><use xlink:href="#o" width="10.6" height="7.7" transform="translate(-.55 -2.75)scale(.6538)"/><use xlink:href="#p" width="13.8" height="13.9" transform="translate(-7 -13.6)"/><use xlink:href="#q" width="11.4" height="3.9" transform="translate(-6.15 -18.2)"/><use xlink:href="#m" width="6.3" height="9.2" transform="translate(2.25 -11.25)"/><use xlink:href="#r" width="15.3" height="15.6" transform="translate(-7.5 -23.65)"/><use xlink:href="#A" width="36.4" height="34.2" transform="matrix(-1 0 0 1 -2.1 -50.9)"/></g></g><g clip-path="url(#B)"><g transform="translate(319.45 51.9)"><use xlink:href="#k" width="10" height="10.9" transform="matrix(-.8056 -.3374 -.082 .9773 -1.85 -17.75)"/><use xlink:href="#k" width="10" height="10.9" transform="translate(5.75 -16.8)"/><use xlink:href="#l" width="14.7" height="4.3" transform="matrix(.8 0 0 .8 -5.4 -1.8)"/><use xlink:href="#m" width="6.3" height="9.2" transform="matrix(-1 0 0 1 -1.6 -13.3)"/><use xlink:href="#n" width="10.4" height="6.3" transform="translate(-7.55 -4.25)scale(.6538)"/><use xlink:href="#o" width="10.6" height="7.7" transform="translate(-.55 -2.75)scale(.6538)"/><use xlink:href="#p" width="13.8" height="13.9" transform="translate(-7 -13.6)"/><use xlink:href="#q" width="11.4" height="3.9" transform="translate(-6.15 -18.2)"/><use xlink:href="#m" width="6.3" height="9.2" transform="translate(2.25 -11.25)"/><use xlink:href="#r" width="15.3" height="15.6" transform="translate(-7.5 -23.65)"/><use xlink:href="#C" width="36.4" height="34.2" transform="matrix(-1 0 0 1 -2.1 -50.9)"/></g></g><g clip-path="url(#D)"><g transform="translate(375.45 51.9)"><use xlink:href="#k" width="10" height="10.9" transform="matrix(-.8056 -.3374 -.082 .9773 -1.85 -17.75)"/><use xlink:href="#k" width="10" height="10.9" transform="translate(5.75 -16.8)"/><use xlink:href="#l" width="14.7" height="4.3" transform="matrix(.8 0 0 .8 -5.4 -1.8)"/><use xlink:href="#m" width="6.3" height="9.2" transform="matrix(-1 0 0 1 -1.6 -13.3)"/><use xlink:href="#n" width="10.4" height="6.3" transform="translate(-7.55 -4.25)scale(.6538)"/><use xlink:href="#o" width="10.6" height="7.7" transform="translate(-.55 -2.75)scale(.6538)"/><use xlink:href="#p" width="13.8" height="13.9" transform="translate(-7 -13.6)"/><use xlink:href="#q" width="11.4" height="3.9" transform="translate(-6.15 -18.2)"/><use xlink:href="#m" width="6.3" height="9.2" transform="translate(2.25 -11.25)"/><use xlink:href="#r" width="15.3" height="15.6" transform="translate(-7.5 -23.65)"/><use xlink:href="#E" width="36.4" height="34.2" transform="matrix(-1 0 0 1 -2.1 -50.9)"/></g></g><g clip-path="url(#F)"><g transform="translate(431.45 51.9)"><use xlink:href="#k" width="10" height="10.9" transform="matrix(-.8056 -.3374 -.082 .9773 -1.85 -17.75)"/><use xlink:href="#k" width="10" height="10.9" transform="translate(5.75 -16.8)"/><use xlink:href="#l" width="14.7" height="4.3" transform="matrix(.8 0 0 .8 -5.4 -1.8)"/><use xlink:href="#m" width="6.3" height="9.2" transform="matrix(-1 0 0 1 -1.6 -13.3)"/><use xlink:href="#n" width="10.4" height="6.3" transform="translate(-7.55 -4.25)scale(.6538)"/><use xlink:href="#o" width="10.6" height="7.7" transform="translate(-.55 -2.75)scale(.6538)"/><use xlink:href="#p" width="13.8" height="13.9" transform="translate(-7 -13.6)"/><use xlink:href="#q" width="11.4" height="3.9" transform="translate(-6.15 -18.2)"/><use xlink:href="#m" width="6.3" height="9.2" transform="translate(2.25 -11.25)"/><use xlink:href="#r" width="15.3" height="15.6" transform="translate(-7.5 -23.65)"/><use xlink:href="#G" width="36.4" height="34.2" transform="matrix(-1 0 0 1 -2.1 -50.9)"/></g></g><g clip-path="url(#H)"><g transform="translate(487.45 51.9)"><use xlink:href="#k" width="10" height="10.9" transform="matrix(-.8056 -.3374 -.082 .9773 -1.85 -17.75)"/><use xlink:href="#k" width="10" height="10.9" transform="translate(5.75 -16.8)"/><use xlink:href="#l" width="14.7" height="4.3" transform="matrix(.8 0 0 .8 -5.4 -1.8)"/><use xlink:href="#m" width="6.3" height="9.2" transform="matrix(-1 0 0 1 -1.6 -13.3)"/><use xlink:href="#n" width="10.4" height="6.3" transform="translate(-7.55 -4.25)scale(.6538)"/><use xlink:href="#o" width="10.6" height="7.7" transform="translate(-.55 -2.75)scale(.6538)"/><use xlink:href="#p" width="13.8" height="13.9" transform="translate(-7 -13.6)"/><use xlink:href="#q" width="11.4" height="3.9" transform="translate(-6.15 -18.2)"/><use xlink:href="#m" width="6.3" height="9.2" transform="translate(2.25 -11.25)"/><use xlink:href="#r" width="15.3" height="15.6" transform="translate(-7.5 -23.65)"/><use xlink:href="#I" width="36.4" height="34.2" transform="matrix(-1 0 0 1 -2.1 -50.9)"/></g></g><g clip-path="url(#J)"><g transform="translate(543.45 51.9)"><use xlink:href="#k" width="10" height="10.9" transform="matrix(-.8056 -.3374 -.082 .9773 -1.85 -17.75)"/><use xlink:href="#k" width="10" height="10.9" transform="translate(5.75 -16.8)"/><use xlink:href="#l" width="14.7" height="4.3" transform="matrix(.8 0 0 .8 -5.4 -1.8)"/><use xlink:href="#m" width="6.3" height="9.2" transform="matrix(-1 0 0 1 -1.6 -13.3)"/><use xlink:href="#n" width="10.4" height="6.3" transform="translate(-7.55 -4.25)scale(.6538)"/><use xlink:href="#o" width="10.6" height="7.7" transform="translate(-.55 -2.75)scale(.6538)"/><use xlink:href="#p" width="13.8" height="13.9" transform="translate(-7 -13.6)"/><use xlink:href="#q" width="11.4" height="3.9" transform="translate(-6.15 -18.2)"/><use xlink:href="#m" width="6.3" height="9.2" transform="translate(2.25 -11.25)"/><use xlink:href="#r" width="15.3" height="15.6" transform="translate(-7.5 -23.65)"/></g></g><g clip-path="url(#K)"><g transform="translate(599.45 51.9)"><use xlink:href="#k" width="10" height="10.9" transform="matrix(-.8056 -.3374 -.082 .9773 -1.85 -17.75)"/><use xlink:href="#k" width="10" height="10.9" transform="translate(5.75 -16.8)"/><use xlink:href="#l" width="14.7" height="4.3" transform="matrix(.8 0 0 .8 -5.4 -1.8)"/><use xlink:href="#m" width="6.3" height="9.2" transform="matrix(-1 0 0 1 -1.6 -13.3)"/><use xlink:href="#n" width="10.4" height="6.3" transform="translate(-7.55 -4.25)scale(.6538)"/><use xlink:href="#o" width="10.6" height="7.7" transform="translate(-.55 -2.75)scale(.6538)"/><use xlink:href="#p" width="13.8" height="13.9" transform="translate(-7 -13.6)"/><use xlink:href="#q" width="11.4" height="3.9" transform="translate(-6.15 -18.2)"/><use xlink:href="#m" width="6.3" height="9.2" transform="translate(2.25 -11.25)"/><use xlink:href="#r" width="15.3" height="15.6" transform="translate(-7.5 -23.65)"/><use xlink:href="#L" width="36.4" height="34.2" transform="matrix(-1 0 0 1 -2.1 -50.9)"/></g></g></svg>