<svg xmlns="http://www.w3.org/2000/svg" xmlns:xlink="http://www.w3.org/1999/xlink" width="421" height="47" viewBox="0 0 421 47"><defs><clipPath id="c"><path d="M1 1h41v45H1z"/></clipPath><clipPath id="h"><path d="M43 1h41v45H43z"/></clipPath><clipPath id="i"><path d="M85 1h41v45H85z"/></clipPath><clipPath id="j"><path d="M127 1h41v45h-41z"/></clipPath><clipPath id="k"><path d="M169 1h41v45h-41z"/></clipPath><clipPath id="l"><path d="M211 1h41v45h-41z"/></clipPath><clipPath id="m"><path d="M253 1h41v45h-41z"/></clipPath><clipPath id="n"><path d="M295 1h41v45h-41z"/></clipPath><clipPath id="o"><path d="M337 1h41v45h-41z"/></clipPath><clipPath id="p"><path d="M379 1h41v45h-41z"/></clipPath><g id="a"><path fill="red" d="m.2 29.2 5.7-7.3Q.7 30 4.9 38.3l.9-6.8Q7.3 22 16 21.5l-1 3.3 2.8-.8-.5 4.4q2.2-3.6 6.9-3.4l5.7 3.2 1.5-3.7-4.3-3.5 2.7-.6q.5 1.2.6 2.8 5.8 3.3 4.2 9.5l-1.6-.4-5.7 5.2.1-1.1-1.5 2q-2.4 3.2-6.4 3.2l-2.6 1.8.1-2.6-4.2 2.6-.2-2 .1 1-5.4-5.8-.5 4.8q-2.7-.1-3.5-2.7-1-3.8-2-4.1L0 37zm21.4 1q-3.4 2.8-3.3 7.5l1.5.4q6.7.1 5.7-6.9-1.2-1.5-4-1"/><path fill="#fc3" d="m29.8 20.5-2.7.6 4.3 3.4-1.4 3.8-5.8-3.3q-4.6-.1-7 3.5l.6-4.5-2.8.8 1-3.2q-8.7.5-10.2 9.9l-.9 6.8Q.7 30 5.9 21.9L.2 29.2l1.6-6.1q1.1-4.1 3.3-7.6 2.6-3.9 7.2-3.8 1.3.4 2 1l.1.1q2.3-.2 4.5.6 3.8 1.6 7.6 3.6 2.2 1.2 3.3 3.4"/><path fill="#d20000" d="m0 37 1.4-2.3q.9.3 2 4 .8 2.7 3.5 2.8l.4-4.9 5.4 5.9v-1l.1 2 4.2-2.6v2.5l2.5-1.7q4 0 6.5-3.2l1.4-2-.1 1.1 5.7-5.2 1.6.4Q32 42.7 24 48.8q-2 1.6-4.3 1.2-3.9 0-5.9-3.3l-1.4-.5-7.7-3Q.6 41.5 0 37"/><path fill="#693" d="m24.8 3 1.1.6q3.4 4.5-.4 7.7-.9.8-2.2.4-7.9-2.2-7.5-11l.3-.7q4.1 2.3 8.7 3"/><path fill="#f90" d="M21.6 30.2q2.7-.5 3.8 1 1.1 7-5.6 7l-1.5-.6q-.1-4.6 3.2-7.5"/></g><g id="g"><path fill="#403015" d="m13.4 35.8-4.1 3.7 2.3-5.8L45 0l5.6 1.4L25.9 24z"/><path fill="#e0c7a9" d="m13.4 35.8 12.5-11.7 1.3 6.8-13.7 14.5z"/><path fill="#fff" d="m0 31.6 14.5-13.2 7.2 2.7-11.3 13.1z"/><path fill="#030" d="m56.5 2.2 1 .6-5 9.1-1-.6z"/></g><g id="e"><path fill="#403015" d="m8.4 3.1-.8-1.2Q6.8.7 5.5.9-.5 2 1.9 7.4q.9 2 .9 4.4 0 4.3 3.4 5.5 1 .6 1.5-.3 3.4-6.8.7-13.9m1.5 12.8q-.7 2.6-3.2 2.3-4-.3-4.4-4.7-.1-2.2-1-3.7-2.7-4.2.1-8Q3-.2 5.2 0q4.4.8 5 5.6 1 5.2-.3 10.3"/><path fill="#88652d" d="M8.4 3.1q2.7 7-.7 13.9-.4.9-1.5.4-3.3-1.2-3.4-5.5 0-2.4-1-4.5Q-.4 2 5.6.9q1.3-.2 2 1z"/></g><use xlink:href="#a" id="f" width="35" height="50"/><use xlink:href="#b" id="d" width="11.3" height="5"/><path id="b" fill="#382c16" d="M0-2.5q2.4 0 4 .8 1.6.6 1.7 1.7Q5.6 1.1 4 1.9t-4 .7-4-.8T-5.6 0t1.7-1.8T0-2.5" transform="translate(5.6 2.5)"/></defs><g clip-path="url(#c)"><g transform="translate(13.75 41.4)"><use xlink:href="#d" width="11.3" height="5" transform="translate(-4.65 -2.15)"/><use xlink:href="#e" width="10.7" height="18.3" transform="matrix(.285 .4027 .3126 -.2022 -.15 -.6)"/><use xlink:href="#e" width="10.7" height="18.3" transform="matrix(-.285 .4027 -.3126 -.2022 .95 -1.4)"/><use xlink:href="#f" width="35" height="50" transform="matrix(-.4835 -.2741 -.1821 .4638 13.3 -22.6)"/><use xlink:href="#g" width="57.5" height="45.4" transform="matrix(-.5 0 -.0813 -.4911 27.85 -18.1)"/></g></g><g clip-path="url(#h)"><g transform="translate(55.75 41.4)"><use xlink:href="#d" width="11.3" height="5" transform="translate(-4.65 -2.15)"/><use xlink:href="#e" width="10.7" height="18.3" transform="matrix(.285 .4027 .3126 -.2022 -.15 -.6)"/><use xlink:href="#e" width="10.7" height="18.3" transform="matrix(-.285 .4027 -.3126 -.2022 .95 -1.4)"/><use xlink:href="#f" width="35" height="50" transform="matrix(-.4829 -.2741 -.183 .4637 13.25 -22.55)"/><use xlink:href="#g" width="57.5" height="45.4" transform="matrix(-.5 0 -.0804 -.491 27.8 -18.05)"/></g></g><g clip-path="url(#i)"><g transform="translate(97.75 41.4)"><use xlink:href="#d" width="11.3" height="5" transform="translate(-4.65 -2.15)"/><use xlink:href="#e" width="10.7" height="18.3" transform="matrix(.285 .4027 .3126 -.2022 -.15 -.6)"/><use xlink:href="#e" width="10.7" height="18.3" transform="matrix(-.285 .4027 -.3126 -.2022 .95 -1.4)"/><use xlink:href="#f" width="35" height="50" transform="matrix(-.4829 -.2741 -.183 .4638 13.25 -22.5)"/><use xlink:href="#g" width="57.5" height="45.4" transform="matrix(-.5 0 -.0804 -.4911 27.8 -18)"/></g></g><g clip-path="url(#j)"><g transform="translate(139.75 41.4)"><use xlink:href="#d" width="11.3" height="5" transform="translate(-4.65 -2.15)"/><use xlink:href="#e" width="10.7" height="18.3" transform="matrix(.285 .4027 .3126 -.2022 -.15 -.6)"/><use xlink:href="#e" width="10.7" height="18.3" transform="matrix(-.285 .4027 -.3126 -.2022 .95 -1.4)"/><use xlink:href="#f" width="35" height="50" transform="matrix(-.483 -.2742 -.183 .4639 13.25 -22.35)"/><use xlink:href="#g" width="57.5" height="45.4" transform="matrix(-.5 0 -.0804 -.4912 27.8 -17.85)"/></g></g><g clip-path="url(#k)"><g transform="translate(181.75 41.4)"><use xlink:href="#d" width="11.3" height="5" transform="translate(-4.65 -2.15)"/><use xlink:href="#e" width="10.7" height="18.3" transform="matrix(.285 .4027 .3126 -.2022 -.15 -.6)"/><use xlink:href="#e" width="10.7" height="18.3" transform="matrix(-.285 .4027 -.3126 -.2022 .95 -1.4)"/><use xlink:href="#f" width="35" height="50" transform="matrix(-.483 -.2743 -.1829 .4641 13.3 -22.15)"/><use xlink:href="#g" width="57.5" height="45.4" transform="matrix(-.5 0 -.0805 -.4913 27.85 -17.65)"/></g></g><g clip-path="url(#l)"><g transform="translate(223.75 41.4)"><use xlink:href="#d" width="11.3" height="5" transform="translate(-4.65 -2.15)"/><use xlink:href="#e" width="10.7" height="18.3" transform="matrix(.285 .4027 .3126 -.2022 -.15 -.6)"/><use xlink:href="#e" width="10.7" height="18.3" transform="matrix(-.285 .4027 -.3126 -.2022 .95 -1.4)"/><use xlink:href="#f" width="35" height="50" transform="matrix(-.483 -.2744 -.1828 .4642 13.3 -21.85)"/><use xlink:href="#g" width="57.5" height="45.4" transform="matrix(-.5 0 -.0805 -.4915 27.85 -17.35)"/></g></g><g clip-path="url(#m)"><g transform="translate(265.75 41.4)"><use xlink:href="#d" width="11.3" height="5" transform="translate(-4.65 -2.15)"/><use xlink:href="#e" width="10.7" height="18.3" transform="matrix(.285 .4027 .3126 -.2022 -.15 -.6)"/><use xlink:href="#e" width="10.7" height="18.3" transform="matrix(-.285 .4027 -.3126 -.2022 .95 -1.4)"/><use xlink:href="#f" width="35" height="50" transform="matrix(-.4831 -.2745 -.1828 .4645 13.3 -21.55)"/><use xlink:href="#g" width="57.5" height="45.4" transform="matrix(-.5 0 -.0806 -.4918 27.85 -17.05)"/></g></g><g clip-path="url(#n)"><g transform="translate(307.75 41.4)"><use xlink:href="#d" width="11.3" height="5" transform="translate(-4.65 -2.15)"/><use xlink:href="#e" width="10.7" height="18.3" transform="matrix(.285 .4027 .3126 -.2022 -.15 -.6)"/><use xlink:href="#e" width="10.7" height="18.3" transform="matrix(-.285 .4027 -.3126 -.2022 .95 -1.4)"/><use xlink:href="#f" width="35" height="50" transform="matrix(-.4831 -.2747 -.1827 .4648 13.35 -21.1)"/><use xlink:href="#g" width="57.5" height="45.4" transform="matrix(-.5 0 -.0807 -.4921 27.9 -16.6)"/></g></g><g clip-path="url(#o)"><g transform="translate(349.75 41.4)"><use xlink:href="#d" width="11.3" height="5" transform="translate(-4.65 -2.15)"/><use xlink:href="#e" width="10.7" height="18.3" transform="matrix(.285 .4027 .3126 -.2022 -.15 -.6)"/><use xlink:href="#e" width="10.7" height="18.3" transform="matrix(-.285 .4027 -.3126 -.2022 .95 -1.4)"/><use xlink:href="#f" width="35" height="50" transform="matrix(-.4841 -.2747 -.181 .4648 13.3 -20.65)"/><use xlink:href="#g" width="57.5" height="45.4" transform="matrix(-.5 0 -.0825 -.4922 27.9 -16.15)"/></g></g><g clip-path="url(#p)"><g transform="translate(391.75 41.4)"><use xlink:href="#d" width="11.3" height="5" transform="translate(-4.65 -2.15)"/><use xlink:href="#e" width="10.7" height="18.3" transform="matrix(.285 .4027 .3126 -.2022 -.15 -.6)"/><use xlink:href="#e" width="10.7" height="18.3" transform="matrix(-.285 .4027 -.3126 -.2022 .95 -1.4)"/><use xlink:href="#f" width="35" height="50" transform="matrix(-.4844 -.2751 -.1806 .4654 13.4 -20.2)"/><use xlink:href="#g" width="57.5" height="45.4" transform="matrix(-.5 0 -.083 -.4928 28 -15.7)"/></g></g></svg>