<svg xmlns="http://www.w3.org/2000/svg" xmlns:xlink="http://www.w3.org/1999/xlink" width="133" height="25" viewBox="0 0 133 25"><defs><clipPath id="a"><path d="M1 1h11v23H1z"/></clipPath><clipPath id="e"><path d="M13 1h11v23H13z"/></clipPath><clipPath id="f"><path d="M25 1h11v23H25z"/></clipPath><clipPath id="g"><path d="M37 1h11v23H37z"/></clipPath><clipPath id="h"><path d="M49 1h11v23H49z"/></clipPath><clipPath id="j"><path d="M61 1h11v23H61z"/></clipPath><clipPath id="k"><path d="M73 1h11v23H73z"/></clipPath><clipPath id="m"><path d="M85 1h11v23H85z"/></clipPath><clipPath id="n"><path d="M97 1h11v23H97z"/></clipPath><clipPath id="p"><path d="M109 1h11v23h-11z"/></clipPath><clipPath id="q"><path d="M121 1h11v23h-11z"/></clipPath><g id="r"><path fill="#e3f3ed" d="M2.5 2.5v.2l-.1-.1z"/><path fill="#fffdf9" d="m2.5 2.5-.1.1-.2.4q-.5.5-1 .5T.3 3l-.2-.3Q.1 1.6.5.9t.8-.8.8.7z"/><path fill="#c2bda3" d="m2.4 2.6-.3 1.9q-.3.7-.8.8-.5 0-.8-.8T0 2.7l.2.3q.4.5.9.5t1-.5z"/><path fill="none" stroke="#3e241c" stroke-linecap="round" stroke-linejoin="round" stroke-opacity=".3" stroke-width="__RESOLUTION__" d="M2.5 2.7v-.3L2 .8Q1.7.1 1.3.1T.5.9 0 2.7t.4 1.8.8.8.8-.8z" vector-effect="non-scaling-stroke"/></g><g id="o"><path fill="#fffdf9" d="M.1 1.9q0-.7.4-1.3.4-.5.9-.5t.9.5l.4 1.1-.3.4q-.4.3-1 .4-.6 0-1-.4z"/><path fill="#c2bda3" d="m.1 1.9.3.2q.4.4 1 .4.6-.1 1-.4l.3-.4v.2L2.3 3l-.9.6q-.5 0-.9-.5T.1 1.9"/><path fill="none" stroke="#3e241c" stroke-linecap="round" stroke-linejoin="round" stroke-opacity=".3" stroke-width="__RESOLUTION__" d="M2.7 1.7 2.3.6Q1.9.1 1.4.1T.5.6q-.4.6-.4 1.3v0q0 .7.4 1.3.4.5.9.5l.9-.6.4-1.2z" vector-effect="non-scaling-stroke"/></g><g id="l"><path fill="#c2bda3" d="m.1 1.9.3.2q.4.4 1 .4.6-.1 1-.4l.3-.3-.4 1.3q-.4.6-.9.6t-.9-.5Q.1 2.6.1 1.9"/><path fill="#fffdf9" d="m2.7 1.8-.3.3q-.4.3-1 .3t-1-.3L0 1.9Q0 1.2.4.6l.9-.5q.5 0 .9.5z"/><path fill="#e3f3ed" d="M2.7 1.9v-.1z"/><path fill="none" stroke="#3e241c" stroke-linecap="round" stroke-linejoin="round" stroke-opacity=".3" stroke-width="__RESOLUTION__" d="M.1 1.9q0 .7.4 1.3.4.5.9.5t.9-.6l.4-1.2v-.2L2.3.6Q1.9.1 1.4.1L.5.6q-.4.6-.4 1.3" vector-effect="non-scaling-stroke"/></g><g id="i"><path fill="#fffdf9" d="M.1 3q0-1.2.4-2t.9-.9.9.8l.4 1.9-.3.6Q2 4 1.4 4t-1-.6z"/><path fill="#c2bda3" d="m.1 3 .3.4q.4.6 1 .6t1-.6l.3-.6V3l-.4 2.1q-.4.9-.9.9t-.9-.8T.1 3"/><path fill="none" stroke="#3e241c" stroke-linecap="round" stroke-linejoin="round" stroke-opacity=".3" stroke-width="__RESOLUTION__" d="M2.7 2.8 2.3.9Q1.9.1 1.4.1T.5 1 .1 3t.4 2.2.9.8.9-.9L2.7 3z" vector-effect="non-scaling-stroke"/></g><g id="d"><path fill="#583827" d="m5.6.1 1 2.4 1.2 4.4q.3.7-.3 1.5l-.7.9-2.1.6-3.1-.2q-.8-.1-1.5-2l1.7 1 3.1-.2 1.2-.4.7-2.4z"/><path fill="#8e6140" d="M.1 7.7q-.2-2.2.3-4L1.2.8l.6-.7.9 2.8 2 .2.9-3 1.2 5.6L6.1 8l-1.2.4-3.1.2z"/><path fill="none" stroke="#3e241c" stroke-linecap="round" stroke-linejoin="round" stroke-width="__RESOLUTION__" d="m5.6.1 1 2.4 1.2 4.4q.3.7-.3 1.5l-.7.9-2.1.6-3.1-.2q-.8-.1-1.5-2M1.8.2 2.7 3l2 .2" vector-effect="non-scaling-stroke"/></g><g id="b"><path fill="#fffdf9" d="M.1 1.7Q.1 1 .6.5T1.7 0t1.1.5.5 1l-.4.2q-.5.4-1.2.4-.8 0-1.3-.4z"/><path fill="#c2bda3" d="m.1 1.7.3.1q.5.4 1.3.4.6 0 1.2-.4l.4-.3v.2q0 .6-.5 1.1t-1.1.5-1.1-.5-.5-1.1"/><path fill="none" stroke="#867b59" stroke-linecap="round" stroke-linejoin="round" stroke-width="__RESOLUTION__" d="M3.3 1.6q-.1-.6-.5-1T1.7 0 .6.6q-.5.4-.5 1v.1q0 .6.5 1.1t1.1.5q.7 0 1.1-.5t.5-1.1z" vector-effect="non-scaling-stroke"/></g><path id="c" fill="#000" d="M.2-1.8q1.4-.7 2.4.9T.7 1.5L-3.5 3H-6q-.7-.3 2-2.2T.2-1.8" transform="translate(6.15 2.05)"/></defs><g clip-path="url(#a)"><g transform="translate(6.45 19.35)"><use xlink:href="#b" width="3.4" height="3.4" transform="translate(-1.9 -5.25)"/><use xlink:href="#c" width="8.9" height="5.3" transform="matrix(-.2466 .2864 .2137 .3661 2.85 -2.4)"/><use xlink:href="#c" width="8.9" height="5.3" transform="matrix(.3174 .2552 -.0753 .4176 -4.2 -2.45)"/><use xlink:href="#d" width="8" height="9.9" transform="matrix(1 0 0 1.0488 -4.15 -10.25)"/><use xlink:href="#b" width="3.4" height="3.4" transform="translate(-1.65 -1.7)"/></g></g><g clip-path="url(#e)"><g transform="translate(18.45 19.35)"><use xlink:href="#b" width="3.4" height="3.4" transform="translate(-1.9 -5.25)"/><use xlink:href="#c" width="8.9" height="5.3" transform="matrix(-.2457 .2863 .2136 .3655 2.8 -1.35)"/><use xlink:href="#c" width="8.9" height="5.3" transform="matrix(.3168 .255 -.0741 .4176 -4.2 -1.3)"/><use xlink:href="#d" width="8" height="9.9" transform="matrix(1 0 0 .9209 -4.05 -7.75)"/><use xlink:href="#b" width="3.4" height="3.4" transform="translate(-1.5 -1.1)"/></g></g><g clip-path="url(#f)"><g transform="translate(30.45 19.35)"><use xlink:href="#c" width="8.9" height="5.3" transform="matrix(-.2466 .2864 .2137 .3661 2.85 -.3)"/><use xlink:href="#c" width="8.9" height="5.3" transform="matrix(.3174 .2552 -.0753 .4176 -4.2 -.35)"/><use xlink:href="#d" width="8" height="9.9" transform="matrix(1 0 0 .793 -3.95 -5.3)"/><use xlink:href="#b" width="3.4" height="3.4" transform="translate(-1.35 -.5)"/></g></g><g clip-path="url(#g)"><g transform="translate(42.45 19.35)"><use xlink:href="#c" width="8.9" height="5.3" transform="matrix(-.4108 -.0471 -.1519 .3991 4.6 -1.75)"/><use xlink:href="#c" width="8.9" height="5.3" transform="matrix(.4304 -.1526 .318 .2847 -5.45 -.75)"/><use xlink:href="#d" width="8" height="9.9" transform="matrix(.9605 0 0 .9719 -3.8 -10.95)"/><use xlink:href="#b" width="3.4" height="3.4" transform="translate(-1.5 -1.1)"/></g></g><g clip-path="url(#h)"><g transform="translate(54.45 19.35)"><use xlink:href="#c" width="8.9" height="5.3" transform="matrix(-.2069 -.3988 -.4106 .1313 3.8 -2.45)"/><use xlink:href="#c" width="8.9" height="5.3" transform="matrix(.1068 -.4956 .4124 -.1237 -3.4 -1)"/><use xlink:href="#d" width="8" height="9.9" transform="matrix(.9211 0 0 1.1508 -3.65 -16.55)"/><use xlink:href="#i" width="2.8" height="6.1" transform="translate(-1.6 -6.4)"/></g></g><g clip-path="url(#j)"><g transform="translate(66.45 19.35)"><use xlink:href="#c" width="8.9" height="5.3" transform="matrix(-.3965 -.2094 -.2624 .3408 4.8 -5)"/><use xlink:href="#c" width="8.9" height="5.3" transform="matrix(.2498 -.4399 .4302 .0058 -4.2 -3.1)"/><use xlink:href="#d" width="8" height="9.9" transform="matrix(.9998 0 0 1.0363 -4 -16.95)"/><use xlink:href="#i" width="2.8" height="6.1" transform="translate(-1.6 -6.4)"/></g></g><g clip-path="url(#k)"><g transform="translate(78.45 19.35)"><use xlink:href="#c" width="8.9" height="5.3" transform="matrix(-.4454 .0528 -.021 .43 4.6 -7.85)"/><use xlink:href="#c" width="8.9" height="5.3" transform="matrix(.3717 -.3436 .4079 .1358 -4.8 -5.6)"/><use xlink:href="#d" width="8" height="9.9" transform="matrix(1.0786 0 0 .9218 -4.4 -17.25)"/><use xlink:href="#l" width="2.8" height="3.8" transform="translate(-1.55 -10.75)"/></g></g><g clip-path="url(#m)"><g transform="translate(90.45 19.35)"><use xlink:href="#c" width="8.9" height="5.3" transform="matrix(-.336 .296 .2252 .3659 3.55 -10.25)"/><use xlink:href="#c" width="8.9" height="5.3" transform="matrix(.4863 .1377 .0951 .4186 -5.25 -9.75)"/><use xlink:href="#d" width="8" height="9.9" transform="matrix(.9998 0 0 1.0363 -4 -17.75)"/><use xlink:href="#l" width="2.8" height="3.8" transform="translate(-1.55 -10.75)"/></g></g><g clip-path="url(#n)"><g transform="translate(102.45 19.35)"><use xlink:href="#c" width="8.9" height="5.3" transform="matrix(-.1077 .4351 .3941 .1721 1.85 -11.75)"/><use xlink:href="#c" width="8.9" height="5.3" transform="matrix(.1343 .4874 -.3075 .2996 -2.5 -12.2)"/><use xlink:href="#d" width="8" height="9.9" transform="matrix(.9211 0 0 1.1508 -3.6 -18.35)"/><use xlink:href="#o" width="2.8" height="3.8" transform="translate(-1.6 -12.55)"/></g></g><g clip-path="url(#p)"><g transform="translate(114.45 19.35)"><use xlink:href="#c" width="8.9" height="5.3" transform="matrix(-.1068 .4349 .3938 .1716 1.9 -8.95)"/><use xlink:href="#c" width="8.9" height="5.3" transform="matrix(.1333 .4872 -.3075 .2986 -2.5 -9.4)"/><use xlink:href="#d" width="8" height="9.9" transform="matrix(.9211 0 0 1.1508 -3.6 -16.4)"/><use xlink:href="#o" width="2.8" height="3.8" transform="translate(-1.6 -12.55)"/></g></g><g clip-path="url(#q)"><g transform="translate(126.45 19.35)"><use xlink:href="#c" width="8.9" height="5.3" transform="matrix(-.1077 .4351 .3941 .1721 1.85 -6.15)"/><use xlink:href="#c" width="8.9" height="5.3" transform="matrix(.1343 .4874 -.3075 .2996 -2.5 -6.6)"/><use xlink:href="#d" width="8" height="9.9" transform="matrix(.9211 0 0 1.1508 -3.6 -14.5)"/><use xlink:href="#r" width="2.5" height="5.3" transform="translate(-1.5 -9.3)"/></g></g></svg>