<svg xmlns="http://www.w3.org/2000/svg" xmlns:xlink="http://www.w3.org/1999/xlink" width="80" height="100" viewBox="0 0 80 100"><defs><g id="h"><path fill="#463420" d="M19.8 4.3 24 6v3.3l-2.9 4.5v.2l-4.4 1.2-.8-3.2.3-3.2.7-.4z"/><path fill="#9e7d47" d="m19.8 4.3-3 4.1-.5.5-.4 3-.3 3.9.3-6.2-.1-1.4v-.1l-.2-1.4 1.3-2.5z"/><path fill="#2a1f13" d="m15.9 12 .8 3.2q1.5 3.8.7 9.5-.1-5.5-1.8-8.9zM22 25.4l.6.6-1 3.8q-.8 11.1-8.4 18.3l3.4-19.8 3.3.1z"/><path fill="#312217" d="M16.8 15.2 21 14l-2 5.5 3 5.9-2.1 3h-3.3l.8-3.7q.8-5.7-.6-9.5"/><path fill="#276415" d="m1.8.1 2 1.8L2.4.8 2.3.7zl.5.6q.8 9.8 10.3 9-5.6.8-6.4 2 1-2.5-4.5-3.8 3-1.3-1.7-4Q1.5 4 1.8 0"/><path fill="#658a20" d="m2.4.8 1.4 1q.5 3.2 4 1.7-3 4.1.2 2.9 2.4 4.4 5.9.2 0 1.5 2 2.6l-1.5.3-1.8.1Q3.1 10.5 2.3.8z"/><path fill="none" stroke="#1e410e" stroke-linecap="round" stroke-linejoin="round" stroke-width="__RESOLUTION__" d="M3.8 1.9 1.9 0l.5.6h0zq.5 3 4 1.6-3 4.1.2 2.9 2.4 4.4 5.9.2 0 1.5 2 2.6l-1.5.3-1.8.1Q3.1 10.5 2.3.8V.7" vector-effect="non-scaling-stroke"/></g><g id="g"><path fill="#407c1b" d="m9.6 3.2.9.4q-1.6.8-1.8 2.2.2-2.3-3.5-.4Q3.5 3.9 4.3 8q-2-1.1-1.9 2.2l.2 2.5-.8-3.5q1.5-9.1 7.8-6"/><path fill="#285913" d="M1.8 9.2Q1 6.9 0 6.9q3.4-2 1.9-3.7Q5.4 2.6 5.4.1l4.2 3Q3.3.1 1.8 9.3"/><path fill="none" stroke="#1e410e" stroke-linecap="round" stroke-linejoin="round" stroke-width="__RESOLUTION__" d="m9.6 3.2.9.4q-1.6.8-1.8 2.2.2-2.3-3.5-.4Q3.5 3.9 4.3 8q-2-1.1-1.9 2.2l.2 2.5-.8-3.5q1.5-9.1 7.8-6L5.4 0" vector-effect="non-scaling-stroke"/></g><g id="f"><path fill="#3d2c1d" d="M1 0h1.4l1 .1q.6.3 1 1.4v.2l-.2 3.8-.8-.1-.2-3.2z"/><path fill="#9e7d47" d="M3.4 5.4 2.3 5l-.6-1.8-1-.2L0 1.6 1 .1l2.2 2.2z"/><path fill="none" stroke="#382310" stroke-linecap="round" stroke-linejoin="round" stroke-width="__RESOLUTION__" d="m2.4 0 1 .1q.6.3 1 1.4h0v.2l-.2 3.8m-1.9-.3-.6-1.9-1-.2" vector-effect="non-scaling-stroke"/></g><g id="e"><path fill="#9e7d47" d="m2.3.1 1.2.5.6.4.3 1 1.7.8v1.9l-3.6-3v-.1z"/><path fill="#463420" d="m6.2 4.7-1.8.8-1.2-.6-1.8-1.1-.8-.5q.2-.7 1-1.2l.8-.4zm-6-3.2L.6.4q.7-.6 1.7-.3l.2 1.5z"/><path fill="#312217" d="M1.4 3.8.1 3.6V1.4l2.4.2-1 .4q-.6.5-1 1.2z"/><path fill="none" stroke="#382310" stroke-linecap="round" stroke-linejoin="round" stroke-width="__RESOLUTION__" d="m2.3.1 1.2.5.6.4.3 1 1.7.8m-2.9 2-1.8-1-1.3-.2V1.4l.6-1q.7-.6 1.7-.3h0m.2 1.5" vector-effect="non-scaling-stroke"/></g><g id="d"><path fill="#658a20" d="m11.2 3.7 4-3.1h3.6q1.5 1 3.2 1.6l3-.1-1.7 1.3L26 4l-1.8 1.2 1.7 1.3-1.8-.7 2.6 4.3-3.4-1.2q-1.5-2.2-3.6-1.7l-.2-.2 2.9-.4-2.1-1 2.4-.2-1.2-.6-1.2-.7q-2.1-.8-4.5-.6l.5-1.1q-.5.9-1.9 1.2l-.2-.9-.6.7q-.6-.4-2.4.3"/><path fill="#418f1f" d="M11.2 3.7q1.8-.7 2.4-.2L9.2 7l.9-2.5zm10.3 1 1.2.7-2.4.2q-2.4.3-3.8 1.4l-.5.4-.3 1.6 1.3-.1q-.8.3-1.2 1.4.8 0 1.3.4l-1.6.3q-3.9 1.7-4.9-1.9 2-4 8.6-4.3z"/><path fill="#529e23" d="m13.6 3.5.6-.7.2.8q1.3-.3 1.9-1.2l-.5 1.1q2.3-.2 4.5.6l1.2.7h-2.3q-6.6.4-8.6 4.3-.6 1-1.9-.7l.4-1.3z"/><path fill="#276415" d="m20.3 5.6 2.1 1-2.9.4.2.1q2-.5 3.6 1.8l3.4 1.2-3.2 1.1-3.1 2.2.5.9-2.4.2-.6.1h-4.8L10 11 8.8 8.5q1.2 1.7 1.8.7 1 3.6 5 1.9l1.6-.4q-.5-.3-1.4-.3.4-1.2 1.2-1.4l-1.3.1.3-1.7.5-.4q1.5-1 3.8-1.4m-6.8 9.1 3.6-4zm3-7.7q2-1.3 3 0-1-1.3-3 0m6.8 2-.6.7q2.5.8.9 1.6 1.5-.8-.9-1.6zM10 11.1l.7-2z"/><path fill="none" stroke="#1e410e" stroke-linecap="round" stroke-linejoin="round" stroke-width="__RESOLUTION__" d="m26.7 10.1-2.6-4.3 1.7.7-1.6-1.3L26 4l-2.7-.6L25 2.1h-3q-1.7-.6-3.2-1.5h-3.6l-4 3.1q1.8-.7 2.4-.2l.6-.7.2.8q1.3-.3 1.9-1.2l-.5 1.1q2.3-.2 4.5.6l1.2.7 1.2.6-2.5.2Q18 5.9 16.5 7l-.5.4-.3 1.6 1.3-.1q-.8.3-1.2 1.4.8 0 1.3.4l-3.7 4 4.5-.1.6-.1 2.4-.2-.5-.8 3.2-2.2zM19.5 7l.2.1q2-.5 3.6 1.8l-.6.7q2.4.8.8 1.6m-10 3.4H13L10 11 8.8 8.5 9 7.1l1-2.5 1.1-.9M19.5 7q-1-1.3-3 0m5-2.2h-2.2q-6.6.4-8.6 4.3l-.7 2m-.8-4 4.4-3.6" vector-effect="non-scaling-stroke"/><path fill="#407c1b" d="m11 8.3-.2.9Q9.7 8 8.3 8.1q2.3-.3-.5-3.4 1-2-2.8-.2.5-2.3-2.6-1.3L.1 4l3.1-1.7q9.2-.9 7.9 6"/><path fill="#285913" d="M3.2 2.3Q5.2.9 5 0q2.8 2.7 4 .9 1.5 3.1 4 2.5l-1.8 4.9q1.3-6.9-7.9-6"/><path fill="none" stroke="#1e410e" stroke-linecap="round" stroke-linejoin="round" stroke-width="__RESOLUTION__" d="m11 8.3-.2.9Q9.7 8 8.3 8.1q2.3-.3-.5-3.4 1-2-2.8-.2.5-2.3-2.6-1.3L.1 4l3.1-1.7q9.2-.9 7.9 6l1.8-4.9" vector-effect="non-scaling-stroke"/></g><g id="c"><path fill="#312217" d="M.9 25.7 3.5 24l-2.3 1.2q5.3-12 4.6-21.7l-1 .4 1-.5Q3.8 1.3 2.4.3l.9-.3h10.3l-2.1 2.7v-.3l-.1.5-.3.3.1.2-2.8 9.4-.8 7.5L10 22v2l-2.1-1.6zM12.8 29l-3.6 2.7H4.6L0 28l1.6-2 7.7-1z"/><path fill="#9e7d47" d="m11.5 2.7-.1.2.1-.5z"/><path fill="#886740" d="m11.2 3.4.2.4-1.2 13.7 3 11.3-.4.4L9.2 25l-7.6.9-.8-.2 7-3.3L10 24v-1.9l-2.4-1.9.8-7.4z"/></g><g id="b"><path fill="#9e7d47" d="M8.7 5.9q2.2-.6 3.2-1.2l2-2.2L11 1.1H7l4.2-1 3.5 1.6v.1l6.1-.5.2-.3 8.5 1.2 2.1-1-2-1.2 3.3 1.3-4 2.6.8 1.8-2.8-2.1-.2.1-.8-.9-2.7 1.5L24.6 7v.7l4.9.4 1.8-2v.1q-1.2 1.2-.8 2.4l-7.2-.4h-.2l-3.5 2.4v1.7Q19 10 15 10l5.3-.6V7.8H20l.3-2-5.2-1.3-7 2z"/><path fill="#312217" d="m26.7 3.7-2.1 1.2v2.2l-1.4-2.8 2.7-1.5zm3.8 5q.2.7.8 1.3L29 9h-4.4v.2l-5 1.6L23 8.2h.2zm-10.4-.8h-.2l-1-1.8q-2.1-1.2-5.7 0L7 7.4 4.5 9.7v-2Q3 6.8 0 6.5h5.5l3.2-.6-.5.5 7-1.9 5.1 1.3z"/></g><clipPath id="a"><path d="M1 1h78v98H1z"/></clipPath></defs><g clip-path="url(#a)"><g transform="translate(38.6 89.9)"><use xlink:href="#b" width="33" height="12.4" transform="translate(-16.8 -3.55)"/><use xlink:href="#c" width="13.6" height="31.9" transform="rotate(195.09 4.693 1.439)scale(.9976)"/><use xlink:href="#d" width="26.8" height="14.8" transform="matrix(2.1696 .3639 -.4599 2.1985 -17.75 -88.9)"/><use xlink:href="#e" width="6.2" height="5.5" transform="matrix(1.3683 -2.5639 2.4929 1.2612 -12.7 -57.25)"/><use xlink:href="#f" width="4.4" height="5.5" transform="matrix(-.4084 3.1984 1.98 .9221 -13.3 -62.9)"/><use xlink:href="#g" width="10.6" height="12.8" transform="matrix(2.1696 .3639 -.4599 2.1985 -31.75 -64.05)"/><use xlink:href="#h" width="24.1" height="48" transform="rotate(140.706 22.237 -10.89)scale(1.0662)"/></g></g></svg>