<svg xmlns="http://www.w3.org/2000/svg" xmlns:xlink="http://www.w3.org/1999/xlink" width="39" height="38" viewBox="0 0 39 38"><defs><use xlink:href="#a" id="z" width="5.5" height="2"/><use xlink:href="#b" id="y" width="5.5" height="2"/><use xlink:href="#c" id="x" width="9.4" height="9.2"/><use xlink:href="#d" id="w" width="22.1" height="27.9"/><use xlink:href="#e" id="v" width="11.1" height="4.5"/><use xlink:href="#f" id="u" width="9.7" height="11.1"/><use xlink:href="#g" id="t" width="9.8" height="5.2"/><use xlink:href="#h" id="r" width="10.3" height="10.1"/><use xlink:href="#i" id="q" width="11" height="11.7"/><use xlink:href="#j" id="p" width="14.7" height="4.3"/><use xlink:href="#k" id="o" width="19.6" height="20"/><use xlink:href="#l" id="n" width="12.3" height="10.8"/><g id="a"><path fill="#669" d="M3 0h.3l.9 1.2-.4.8H2.1l.6-.5L1.3.9 2 0z"/><path fill="#c6c6d9" d="m2 0-.8.9 1.6.5L2 2H0V0zm1.8 2 .4-.8L3.3 0h2.2v2z"/><path fill="none" stroke="#000" stroke-linecap="round" stroke-linejoin="round" stroke-opacity=".3" stroke-width="__RESOLUTION__" d="M3 0H0m2 2h3.5M3.3 0h2.2M2.1 2H0" vector-effect="non-scaling-stroke"/></g><g id="b"><path fill="#c6c6d9" d="M0 2V0h5.5v2z"/><path fill="none" stroke="#000" stroke-linecap="round" stroke-linejoin="round" stroke-opacity=".3" stroke-width="__RESOLUTION__" d="M0 0h5.5m0 2H0" vector-effect="non-scaling-stroke"/></g><g id="c"><path fill="#c6c6d9" d="M1.9 1.6 5.2 0l4.2 1.3v1.6l-.2.1-.8 3.5-.8 1.2-2 1.4-1.7.1.6-2.4-2.1-2.1zm3.8 5.6L5.6 9zm1.8-.5.1 1z"/><path fill="#a6a6c4" d="M3.9 9.2q-.9 0-1.3-.7L1 7.5l.6-1.3.7.5-.1-.5-.1-.4-1-.7L0 2.4l1.9-.8.5 3.1 2.1 2zM2.4 6.7q0 .6-.2.9.2-.3.2-1"/><path fill="#669" d="M1.7 6.2h.6l.1.5z"/><path fill="none" stroke="#000" stroke-linecap="round" stroke-linejoin="round" stroke-opacity=".3" stroke-width="__RESOLUTION__" d="m9.3 3-.9 3.5-.8 1.2-2 1.4-1.7.1m-1.3-.7L1 7.5l.6-1.3h.6l-.1-.4M5.6 9l.1-2m1.9.6-.1-1m-5.1 0-.1-.5m-.1 1.4q.3-.3.2-1" vector-effect="non-scaling-stroke"/></g><g id="d"><path fill="#c6c6d9" d="M19.5 2.2 15.3 4l-.9-.7 2.3-.5-.4-2.1-4.9 1.5-1.6-2-.1-.1L8.6 3 2.1 7.5 2 9l4-.8 3-4.5 6.3-2.1-1 1.7 2.3-.5zM17.7 4 19 5q3.9 3.2 2.9 10l-2.7 7.8-2.7 2.5 3-6 .2-5-1.3.3.6-2.7-4.4 2.3 1.6-2.8-2.8-1 3.2-2.8 1-3.3zm-7.5-1.5 1.2-.5z"/><path fill="#a6a6c4" d="m19.5 2.2-1.8 1.9v.2l-1.1 3.4-3.3 2.7 2.9 1-1.6 2.9 4.4-2.4-.6 2.8 1.3-.4-.1 5-3.2 6-2.7 2q-9-1.5-10.5-2.9L1 18.1l1-9 4.2-.9 3-4.5 6.3-2.1-1 1.7.9.7z"/><path fill="#e4e9ea" d="M2.2 7.4q3-4.3 4.8-4.6l.4-.1L9.7 0 8.6 3z"/><path fill="none" stroke="#000" stroke-linecap="round" stroke-linejoin="round" stroke-opacity=".3" stroke-width="__RESOLUTION__" d="m19.5 2.2-2.8.6-.4-2.1-4.9 1.5-1.6-2-.1-.1-2.3 2.6H7m12.5-.5-1.8 1.9v.2m-1.1-1.4-2.3.5m-2.8-1.2-1.3.4" vector-effect="non-scaling-stroke"/><path fill="#ffc" d="m3.5 3.9 2.7-1.2 4.1-.9 1.7.7-3.3 2.3q-.2.8.3 5.6t.6 5.1l5.7 6.1 5-.5-.7 2.8-4.2 3.2-2.2-.8-1-1.4 5-.5-4-.8L6.5 20l-.1-8.9-.9.8-.1-5.1z"/><path fill="#e1d893" d="m9.7 15.6 1.3.9 4.8 4.4 4.6-.5v.7l-5.1.5zM15.4 27l-2.8.8L3 25.2q-1.3-.9-1.9-3.3l-.8-4.4q-1.1-5 1-9.4l2-4.2 2.1 2.9.1 5.1.9-.8V20l6.6 3.6 4 .7-4.9.6 1 1.4z"/><path fill="none" stroke="#000" stroke-linecap="round" stroke-linejoin="round" stroke-opacity=".3" stroke-width="__RESOLUTION__" d="m3.5 3.9 2.7-1.2h0l4.1-.9 1.7.7-3.3 2.3q-.2.8.3 5.6t.6 5.1m10.9 4.9-.2.7-.7 2.8m-4.2 3.2-2.9.8L3 25.2q-1.3-.9-1.8-3.3l-.8-4.4q-1.1-5 1-9.4l2-4.2" vector-effect="non-scaling-stroke"/><path fill="#a6a6c4" d="m10.5 3.9-1 2.7-.1 3.6-1.8-2.1 1.2-1L7.4 5zm-.4 11 2 1.7-2.4 1.5.3-2.1-2.2.9 1.5-4.4zm7.4 5.9-1.2 2.1-1-2.4-1.9.7-.6-4 2.1 2.3h.1zM3.4 3V0l5 2.3-3.6 1zl1.5.3.5.2-3.2 3.2-.9-4.1z"/><path fill="none" stroke="#000" stroke-linecap="round" stroke-linejoin="round" stroke-opacity=".3" stroke-width="__RESOLUTION__" d="m10.5 3.9-3 1 1.3 2.3-1.2.9 1.8 2.1m0 2.2-1.5 4.4L10 16l-.2 2 2.4-1.4m.7.7.6 4 1.8-.9 1 2.5 1.3-2.1M8.4 2.3 3.4 0v3l1.5.3.5.2m-2-.5-2.1-.4.9 4" vector-effect="non-scaling-stroke"/></g><g id="e"><path fill="#c6c6d9" d="M.7.6q2.2-1 4.2-.4l.5.2 1.5.5.5.2.5-.2 1.3.1.2.2q.4.7.3 1.6l-.2 1-.2.2H7l-.4.1-2.7.5V4l.3-.9 1-.7-1-.9Q2.4.6.6.4"/><path fill="#a6a6c4" d="M5.4.4q1-.6 2-.2h.1l.4.7-.5.1-.5-.1zM3.9 4.5q-2.3-.2-3.9-1Q0 2 .7.5q1.8.2 3.5 1l1 1-1 .6-.3.8z"/><path fill="#f0dfb9" d="M7.5.2h.8l.2.1.7.7L7.9.9zm1.9 1 .4.1h.2q.9.8 1.1 1.8v.2l-.4.4-1-.9q.1-.9-.3-1.6"/><path fill="#bdab86" d="m10.7 3.7-1.2.2.2-1.1z"/><path fill="none" stroke="#000" stroke-linecap="round" stroke-linejoin="round" stroke-opacity=".3" stroke-width="__RESOLUTION__" d="M.7.6q2.2-1 4.2-.4l.5.2 1.5.5m-.2 3.2L4 4.6" vector-effect="non-scaling-stroke"/><path fill="none" stroke="#000" stroke-linecap="round" stroke-linejoin="round" stroke-opacity=".3" stroke-width="__RESOLUTION__" d="M5.4.4q1-.6 2-.2h.1l.4.7-.5.1-.5-.1m1-.7h.4l.2.1.7.7h0l.2.2q.4.7.3 1.6l-.2 1 1.2-.1.4-.5v-.1q-.2-1-1.1-1.7l-.2-.1-.4-.1m0 2.7V4H7l-.4.1M4 4.6q-2.3-.2-3.9-1Q0 2 .6.5m7.2.3 1.3.1" vector-effect="non-scaling-stroke"/></g><g id="f"><path fill="#c6c6d9" d="M.5 6.4Q1 3.8 2.4 2.3 4.5.2 6.7 0 8 .3 9 .9 5.4 3.3 3.6 7.1v1.5l2 2.5-3.2-.7-.1-.4-.3-.6.1-.1q.5-.1 0-.6l-.7-1-.1-.9q0-.2-1-.4"/><path fill="#a6a6c4" d="M.5 6.4q.9.2.9.5v.8l.8 1q.5.5 0 .6h-.5L1.2 9h-.1L.3 8Q0 7.4 0 6.9zm5.3 4.7-2-2.5V7Q5.4 3.3 8.9.9q1.8 1.6-.7 6.9.6 1.2.2 2.2zm2.5-3.3q-.7.4-2.2.5 1.6-.1 2.2-.5"/><path fill="#ffc642" d="M2.2 9.3h-.1z"/><path fill="#cc9233" d="m.5 6.5-.1-.2v.1z"/><path fill="none" stroke="#000" stroke-linecap="round" stroke-linejoin="round" stroke-opacity=".3" stroke-width="__RESOLUTION__" d="M9 .9Q8 .3 6.5 0q-2 .2-4.1 2.3-1.2 1.5-2 4.1v.1M9 .9q1.7 1.6-.8 6.9-.5.4-2.1.5" vector-effect="non-scaling-stroke"/></g><g id="g"><path fill="#a6a6c4" d="m4 .1.8.7q-1.4-.4-3 0Q2.8 0 4 0zm-3.3 1 .8.1q1.3.3 2.7.9l1 1-1 .6-.3.8v.6Q1.7 5 0 4.1q0-1.5.7-3"/><path fill="#f0dfb9" d="M4.9.8 4 .1h.7l.2.1.7.8zm4 2.2Q8.7 1.9 8 .9h.4q.9.9 1.3 2.1v.2l-.3.5z"/><path fill="#c6c6d9" d="M1.9.8q1.5-.4 3 0l.7.3V1Q6.9.2 8 .7l.2.2q.6 1 .8 2.1v1h-.6L4 5.3l-.1-.6.3-.8 1-.7-1-1q-1.3-.6-2.7-.8l-.8-.1z"/><path fill="#bdab86" d="M8.9 4V3l.6.8z"/><path fill="none" stroke="#000" stroke-linecap="round" stroke-linejoin="round" stroke-opacity=".3" stroke-width="__RESOLUTION__" d="M4.9.8 4 .1V0Q2.6 0 1.7.8m3.8.3V1L5 .2h-.3L4.4 0m4.5 4V3Q8.7 1.9 8 .9L7.9.7Q6.7.2 5.7 1M8 .9h.3q.9.9 1.3 2.1v.2l-.3.5-.6.2m-8-2.6Q0 2.7 0 4.2q1.6.8 4 1" vector-effect="non-scaling-stroke"/><path fill="none" stroke="#000" stroke-linecap="round" stroke-linejoin="round" stroke-opacity=".3" stroke-width="__RESOLUTION__" d="M1.9.8q1.5-.4 3 0m-1 4.4L8.4 4M1.8.8l-1.2.3" vector-effect="non-scaling-stroke"/></g><g id="h"><path fill="#d6d9e2" d="M9 6.7 6.7 2.3 4.5.1q2 .3 3.2 1.6l2.6 3.5z"/><path fill="#c6c6d9" d="m4.5.2 2.1 2 2.5 4.5L7 9.2l-2.8.5Q3.3 6 1 3.2l.2-.7q1-1.8 2-2.5z"/><path fill="#a6a6c4" d="M1 3.2q2.3 2.7 3.2 6.5l-2.1.4L0 5.5z"/><path fill="none" stroke="#000" stroke-linecap="round" stroke-linejoin="round" stroke-opacity=".3" stroke-width="__RESOLUTION__" d="M10.3 5.3 7.6 1.8Q6.6.6 4.6.1L3.4 0Q2.3.7 1.3 2.6" vector-effect="non-scaling-stroke"/><path fill="#669" d="m5.6 3-.3-1.5 2 1.3.1-.6 1.1 1.2-1 .1.6.7.8 1.9-1.6-1.2-.2-.3-2.3-.7V4l-.5 2.2L2.2 5l.3 1-1.2 2-.3-.5.7-1.3V4l2.3.6-.2-2.5z"/></g><g id="i"><path fill="#c6c6d9" d="m7.6.6-.8 1Q8.6 4.3 9.2 8l-2.5 2.7-3.7-.3Q2.9 6.3 1.2 2L2.8.7z"/><path fill="#e4e9ea" d="M9.2 8q-.6-3.7-2.4-6.4l.8-1q2.2 2.7 2.7 6.1z"/><path fill="#a6a6c4" d="M1.2 2Q2.9 6.3 3 10.4L1 10 0 5.4Q.2 3.3 1.2 2"/><path fill="none" stroke="#000" stroke-linecap="round" stroke-linejoin="round" stroke-opacity=".3" stroke-width="__RESOLUTION__" d="M10.3 6.7Q9.8 3.3 7.6.6M1 10 0 5.4" vector-effect="non-scaling-stroke"/><path fill="#669" d="m9.3 6.8.3 2.1-1.3-1.8-.2-.3L5.9 5l-.1.1-1.2 2-1.9-2.3L2.6 6l-2 1.4-.2-.6 1.3-1 .7-2 2.3 1.5.6-2.4L7 4.6l.1-1.5L9 5.2l.4-.5.6 1.7-1-.5z"/><path fill="#778282" d="m.5 9.2.2-.4q1.8.7 4 .5L5.8 9Q8 8.3 9.4 7.2l.9-.9.6.4-1.2 1-1.2.8-.8.4-1.3.6-1.2.2H3.1z"/><path fill="#f4f7f5" d="M10.9 6.7q.3 1.3-.3 2.2l-.7.9q.2-1.3-.2-2zm-2.4 3.9-.7.3-.1-2 .8-.4z"/><path fill="#cbd4d6" d="m9.9 9.8-1.4.7v-2l1.2-.7q.4.7.2 2m-2.1 1-2.8.9.2-2 1.2-.2 1.3-.6z"/><path fill="#a9b1b3" d="M5 11.7q-2.1 0-4-.9L.5 9.1l2.6.5 2.1.1z"/></g><g id="k"><path fill="#a6a6c4" d="M2 5.6Q1 5.3.2 3.3l-.2-1v-.6Q1.2.3 2.8 1.3q1.7 1.3 2.2 3l-.5.6-1.2.6z"/><path fill="#c6c6d9" d="M4.9 4.3q-.6-1.7-2.2-3-1.5-1-2.7.4Q.2.9 1 .3q.4-.3.9-.3t1.4.5h.1q1.5 1 1.9 3.4z"/><path fill="none" stroke="#000" stroke-linecap="round" stroke-linejoin="round" stroke-opacity=".3" stroke-width="__RESOLUTION__" d="M0 1.7v.6l.2 1Q1 5.3 2 5.6M0 1.7Q.1.9.8.3q.4-.3.9-.3t1.4.5h.1q1.5 1 1.9 3.4" vector-effect="non-scaling-stroke"/><path fill="#669" d="m19.6 9-.2 1-1-1 .4-.7zm-2.5 1.8h-.5l-.2-.1-.6-1 .8-.6.7.3z"/><path fill="#a6a6c4" d="m19.6 9-.8-.8-.4.9 1 .9h-.1q-1.1.8-2.2.9l.2-1.4-.8-.4-.8.6.6 1q-1.9-.7-2.8-2.4 3-2.1 5.4-1.4.7 1.2.7 2"/><path fill="none" stroke="#000" stroke-linecap="round" stroke-linejoin="round" stroke-opacity=".3" stroke-width="__RESOLUTION__" d="m19.4 10 .2-1q0-.9-.6-2.1-2.5-.7-5.5 1.4 1 1.7 2.9 2.4l.2.1h.5q1.1 0 2.2-.8z" vector-effect="non-scaling-stroke"/><path fill="#ffe8d6" fill-opacity=".8" d="M17.8 7.7 17 8h-1q-.4 0-.5-.2t.3-.4l.7-.3 1-.1.4.3z"/><path fill="#669" d="m9.4 4.1-2.1-1H5.5l1.8-1.4L9 3z"/><path fill="#c6c6d9" d="M14.3 7.3 12.9 9h3.2l1.8-2 1 .3.4 3-3.2 3-6.3 2.3-4.6-1.2q3.2-6.3 3-8.6Q6.4 3.7 3.1 4q2.1-1 4.4-.7 3.1.4 5.5 1.7z"/><path fill="#a6a6c4" d="m18 7-2 2h-3.2l1.3-1.7 2.9-.5zM3 4.2Q6.4 3.9 8.3 6q.1 2.3-3 8.5L.5 9.8Q2 5 3 4.2"/><path fill="none" stroke="#000" stroke-linecap="round" stroke-linejoin="round" stroke-opacity=".3" stroke-width="__RESOLUTION__" d="M14.3 7.3 12.9 5q-2.3-1.3-5.4-1.7-2.3-.2-4.4.7Q2 4.9.4 9.8m18.8.6-.5-3L18 7l-.8-.3-2.9.5" vector-effect="non-scaling-stroke"/><path fill="#fff" d="M13.8 8.3q-.7-.6-1-1.5t.1-1.4q.3-.7.9-.7t1.4.7q.6.6.9 1.4l.1 1-.1.5q-.4.7-1 .7t-1.3-.7"/><path fill="none" stroke="#000" stroke-linecap="round" stroke-linejoin="round" stroke-opacity=".3" stroke-width="__RESOLUTION__" d="M13.8 8.3q-.7-.6-1-1.5t.1-1.4q.3-.7.9-.7t1.4.7q.6.6.9 1.4l.1 1" vector-effect="non-scaling-stroke"/><path fill="#669" d="m13.4 4.8-2.4.4.7-1.1 2-.6 1.4 1.8z"/><path fill="#c6c6d9" d="m18.4 9.3 1.3 3.6-2.4-.6.2-1.8z"/><path fill="none" stroke="#000" stroke-linecap="round" stroke-linejoin="round" stroke-opacity=".3" stroke-width="__RESOLUTION__" d="m18.4 9.3 1.3 3.6-2.4-.6" vector-effect="non-scaling-stroke"/><path fill="#c6c6d9" d="m14 14.3 1.5-2.6 2.4-1.2.2 5.5z"/><path fill="none" stroke="#000" stroke-linecap="round" stroke-linejoin="round" stroke-opacity=".3" stroke-width="__RESOLUTION__" d="M18 10.5V16l-4-1.7" vector-effect="non-scaling-stroke"/><path fill="#c6c6d9" d="M14.9 13.8 11.4 20l-.3-.8 1-6z"/><path fill="#a6a6c4" d="m12.1 13.3-1 5.9-2-4.4z"/><path fill="none" stroke="#000" stroke-linecap="round" stroke-linejoin="round" stroke-opacity=".3" stroke-width="__RESOLUTION__" d="m11 19.2.4.8 3.5-6.2m-3.8 5.4-2-4.4" vector-effect="non-scaling-stroke"/><path fill="#c6c6d9" d="m10.5 8-.1 1.4-5.6 1.8-1-.6z"/><path fill="#a6a6c4" d="m4.9 11.2 5.5-1.8v1.3l-2.1 2.6z"/><path fill="none" stroke="#000" stroke-linecap="round" stroke-linejoin="round" stroke-opacity=".3" stroke-width="__RESOLUTION__" d="m10.5 8-6.6 2.6 1 .6 3.4 2.1" vector-effect="non-scaling-stroke"/><path fill="#c6c6d9" d="M11.5 3q.5 0 .9.3.9.8.9 2l-.2 1q-.8 2-1.9 2.3l1.1-1.8q.4-1 .3-1.4-.4-.8-1-.6zM8.8 7.9l-.8-1q.4-2.4 2-3.4h.1q-1 1.3-.5 3.3z"/><path fill="#669" d="M11.2 8.6h-1.1l-1.2-.7.6-1.1q.6-1.5 2.1-2 .6-.2 1 .6.1.3-.3 1.4z"/><path fill="#d6d9e2" d="M10.1 3.5q.8-.5 1.4-.5l.1 1.8q-1.5.5-2 2-.5-2 .5-3.3"/><path fill="none" stroke="#000" stroke-linecap="round" stroke-linejoin="round" stroke-opacity=".3" stroke-width="__RESOLUTION__" d="M11.5 3q.5 0 .9.3.9.8.9 2l-.2 1q-.8 2-1.9 2.3M8.1 6.9q.4-2.3 1.9-3.3l.1-.1q.8-.5 1.4-.5" vector-effect="non-scaling-stroke"/><path fill="#c6c6d9" d="m10.8 9.4 1.3 2.2v2.9l-4.8-.6z"/><path fill="none" stroke="#000" stroke-linecap="round" stroke-linejoin="round" stroke-opacity=".3" stroke-width="__RESOLUTION__" d="m10.8 9.4-3.6 4.5 4.9.6" vector-effect="non-scaling-stroke"/><path fill="#669" d="m14.6 8.9-1 .6-.3 1.2.8-.2-1.2 1.3 1.8-.7-1.4 2 .2-1-1.4.2 1-2.2-1.3-.1 1.8-1.1-.8-1.5z"/></g><g id="l"><path fill="#c6c6d9" d="m0 4 .2.1H.1L2.5 0l6 .6.3.2H11l1.4 4.5-1.8 2.9h-.2l-2.2-.6h-.1l1.8-2.4-1-1-1.4-2.3-.1.1-2.7-.1-1.3 2.3-1.1.5.5 4H.6zm9.4-.2-.5.3z"/><path fill="#f0dfb9" d="m10.4 8.2-.2.2-.2.3-1.1.4H7.2L7 9q-.4-.2-.5-.7l-.1.9 1.7.6h.2l.5-.6V9H7q-.4-.2-.5-.7h.2l.6-.2h.2l.8-.5zm-4.5 2.3-.7.3H5L3.8 10q-1.2 0-2.2-.5l-.2-.3-.2-.4h1.5l.5-.4.2.2q.6.4 1.4.6v-.4zM4 10h.6q.3-.3.4-.8-.1.6-.4.8h-.2z"/><path fill="#bdab86" d="M8.9 9v.2L8.7 9zm-2.5.2L6 10.5 4.8 8.8v.4Q4 9 3.6 8.6l-.2-.1 1.3-.9.3 1.2 1.5-.5zm.2-.9.2-1.1.7-1.8v-.1h.2v-.2h.2L7 6.5l1 1 .2.1-.9.5h-.1z"/><path fill="#a6a6c4" d="m3.4 4.2 1.3-2.3 2.7.1v-.1L9 4.2l-.7.4L7 3.5l1.2 1-.3.6h-.2v.2h-.1l-.1.1V5l-1 .2.3 2-.2 1.1h-.1L5 9V5.4l-1 .2zm0 0 .5 1.4.7 2-1.3.8-.5.3-.5-4zm4.5.8.2-.5.8-.4 1 1-1.8 2.4-1-1z"/><path fill="#7272a1" d="m3.9 5.6 1.2-.2L5 8.8h-.1l-.4-1.2h.1zm2.9 1.6-.3-2 1-.2v.4z"/><path fill="none" stroke="#000" stroke-linecap="round" stroke-linejoin="round" stroke-opacity=".3" stroke-width="__RESOLUTION__" d="m11 .9 1.4 4.4-1.8 2.9h-.2l-.2.2-.2.2-1.1.4v.1l-.6.6h-.2l-1.7-.6q-.2.9-.5 1.3l-.7.4H5L3.8 10q-1.2 0-2.2-.5l-.2-.3-.2-.4m0 0H.5L0 4m8.9.1.5-.3M6.5 8.4l.2-1.1.8-1.8v-.1h.1m.2-.2.3-.5L7 3.5M4.8 8.8v.4q0 .6-.4.8H4m2.4-.8.2-.8m-2-.8.3 1.2m-2 0H1.1m7-4.3.7-.4M8 7.5l.2.1 2 .5M8 7.5l-1-1 .8-1.4m.8 4H7.3L7 9q-.4-.2-.5-.7m2.4.8" vector-effect="non-scaling-stroke"/><path fill="none" stroke="#000" stroke-linecap="round" stroke-linejoin="round" stroke-opacity=".3" stroke-width="__RESOLUTION__" d="m3.4 4.3.5 1.4.7 2h0l-1.3.8-.5.3" vector-effect="non-scaling-stroke"/></g><path id="j" fill="#382c16" d="M5.8-1.9Q7.9-1.4 8-.5 8 .3 5.9 1 3.8 1.8.7 2l-5.2-.4Q-6.7 1.2-6.7.3q-.1-.8 2-1.6 2.2-.8 5.2-.9z" transform="translate(6.75 2.25)"/><path id="s" fill="none" stroke="#734501" stroke-linecap="round" stroke-linejoin="round" stroke-opacity=".6" stroke-width="__RESOLUTION__" d="M13.5-12.5v-.5M12-11.2v-1m-1.2.6L11-10m-1-2.1v1.2" transform="translate(-10.05 13)" vector-effect="non-scaling-stroke"/><clipPath id="m"><path d="M1 1h37v36H1z"/></clipPath></defs><g clip-path="url(#m)"><g transform="translate(16.7 33.25)"><use xlink:href="#n" width="12.3" height="10.8" transform="rotate(-6.035 -180.65 134.098)scale(.9996)"/><use xlink:href="#o" width="19.6" height="20" transform="translate(.7 -32.25)"/><use xlink:href="#p" width="14.7" height="4.3" transform="matrix(-.799 0 0 .8008 5.4 -1.8)"/><use xlink:href="#q" width="11" height="11.7" transform="matrix(-.9992 .0221 .0221 .9992 -3.05 -24.75)"/><use xlink:href="#r" width="10.3" height="10.1" transform="matrix(-.9636 -.2641 -.2641 .9636 .7 -27.25)"/><use xlink:href="#s" width="3.5" height="3" transform="translate(10.05 -13)"/><use xlink:href="#t" width="9.8" height="5.2" transform="matrix(.9618 -.0153 0 1 -9.45 -5.8)"/><use xlink:href="#u" width="9.7" height="11.1" transform="matrix(-.8904 .0813 -.1154 .8257 -.45 -12.3)"/><use xlink:href="#v" width="11.1" height="4.5" transform="matrix(1 0 -.0213 1 2.8 -1.85)"/><use xlink:href="#w" width="22.1" height="27.9" transform="translate(-9.4 -30.05)"/><use xlink:href="#u" width="9.7" height="11.1" transform="matrix(-.8921 .0813 -.133 .8257 12.35 -9)"/><use xlink:href="#x" width="9.4" height="9.2" transform="translate(8.5 -11.85)"/><use xlink:href="#q" width="11" height="11.7" transform="rotate(-3.532 -304.351 -104.333)scale(.9998)"/><use xlink:href="#r" width="10.3" height="10.1" transform="rotate(19.563 81.522 7.747)scale(.999)"/><use xlink:href="#y" width="5.5" height="2" transform="matrix(-.1465 .5851 -.6741 -.567 -6.7 -7.35)"/><use xlink:href="#z" width="5.5" height="2" transform="matrix(.1817 .6332 -.7284 .4674 -7.25 -5.8)"/><use xlink:href="#y" width="5.5" height="2" transform="matrix(-.3133 .5084 -1.0355 .0009 -5.85 -2.25)"/><use xlink:href="#z" width="5.5" height="2" transform="matrix(-.7979 .0065 -.1474 -1.0397 -7.6 1.25)"/><use xlink:href="#z" width="5.5" height="2" transform="matrix(-.7423 .4113 .4199 .9714 -11.65 -.85)"/></g></g></svg>