<svg xmlns="http://www.w3.org/2000/svg" xmlns:xlink="http://www.w3.org/1999/xlink" width="353" height="25" viewBox="0 0 353 25"><defs><clipPath id="e"><path d="M1 1h21v23H1z"/></clipPath><clipPath id="j"><path d="M23 1h21v23H23z"/></clipPath><clipPath id="k"><path d="M45 1h21v23H45z"/></clipPath><clipPath id="l"><path d="M67 1h21v23H67z"/></clipPath><clipPath id="m"><path d="M89 1h21v23H89z"/></clipPath><clipPath id="n"><path d="M111 1h21v23h-21z"/></clipPath><clipPath id="o"><path d="M133 1h21v23h-21z"/></clipPath><clipPath id="p"><path d="M155 1h21v23h-21z"/></clipPath><clipPath id="q"><path d="M177 1h21v23h-21z"/></clipPath><clipPath id="r"><path d="M199 1h21v23h-21z"/></clipPath><clipPath id="s"><path d="M221 1h21v23h-21z"/></clipPath><clipPath id="t"><path d="M243 1h21v23h-21z"/></clipPath><clipPath id="u"><path d="M265 1h21v23h-21z"/></clipPath><clipPath id="v"><path d="M287 1h21v23h-21z"/></clipPath><clipPath id="w"><path d="M309 1h21v23h-21z"/></clipPath><clipPath id="x"><path d="M331 1h21v23h-21z"/></clipPath><use xlink:href="#a" id="i" width="11.9" height="16.8"/><use xlink:href="#b" id="g" width="17.9" height="13.3"/><use xlink:href="#c" id="f" width="16.3" height="13.3"/><use xlink:href="#d" id="h" width="26.1" height="26.4" transform="translate(0 1.3)"/><g id="a"><path fill="#e3f3ed" d="M10.2 10.9q-1 1.7-2.2 2.9l-3.2 2.3q-1 .5-2.1-1.6Q1.8 13 1 11q-.1-6 9 0M2.8 2Q4 .6 5.6.5 8 .3 10.1 2.9q1.7 2.1 1.3 4.8-5.6.4-8.7-5.7"/><path fill="#fcfff1" d="M1.2 10.9.6 9.4q-.8-3.3.9-6l1-1.4q3.2 6.1 8.8 5.7l-.3 1-1 2.2q-9.1-6-9 0"/><path fill="none" stroke="#000" stroke-linecap="round" stroke-linejoin="round" stroke-opacity=".2" stroke-width="1" d="M10.2 10.9q-1 1.7-2.2 2.9l-3.2 2.3q-1 .5-2.1-1.6Q1.8 13 1 11L.7 9.3q-.8-3.2.9-5.9l1-1.4Q4 .6 5.7.5 8 .3 10.1 2.9q1.7 2.1 1.3 4.8l-.3 1z"/></g><g id="b"><path fill="#18322d" d="m14.1 9.4-1.9-3.8-1.4-.7L9.4 9l-1.6-.4 2-4.2L12.3 2l2.8.9 2.3 5.6z"/><path fill="#366d61" d="m9.4 9 1.4-4 1.4.7 1.9 3.7-1.8.5z"/><path fill="none" stroke="#000" stroke-linecap="round" stroke-linejoin="round" stroke-opacity=".4" stroke-width="1" d="m14.1 9.4 3.3-1L15.1 3l-2.9-1-2.4 2.4-2 4.3 1.6.4 2.9.9z"/><path fill="#e3f3ed" d="m14.4 3.4-.9 2.1-2.4 1.7H11l-.4.3h-.1l.4.8-2.7 1L6.8 8V6.2l.9-2.6 4.5-2.2z"/><path fill="#8dc7b5" d="M12.2 1.4 7.7 3.6l-1 2.6V8l1.5 1.3 2.7-1 .5-.2.6 1.2 1.9-.5 1.8-3.2v4.2l-4.2 3H9.9l-.7-.3-4-.1-3-1.5q3.7 1.2 6 .7L3.9 6 3 3.2 5.5.8l5.3-.3z"/><path fill="#366d61" d="m10.9 8.3-.4-.7v-.1l.5-.2v-.1l2.5-1.7.9-2.1.9 1.2.4 1-1.8 3.2-1.9.4-.6-1.1zm-8.7 2.6L2 11 .5 9.8l1-4.8 1.6-1.6.7 2.6 4.5 5.6q-2.4.6-6.1-.7"/><path fill="#b67b10" d="M10 12.8h-.8v-.3z"/><path fill="none" stroke="#000" stroke-linecap="round" stroke-linejoin="round" stroke-opacity=".4" stroke-width="1" d="m14.4 3.4-2.3-2-1.4-.9-5.2.3-2.4 2.6L1.5 5l-1 4.8L2.1 11m12.3-7.6.9 1.2.4 1h0v4.2l-4.2 3H9.3m-.1-.3-4-.1-3-1.5m7.7 1.8-.7-.2"/><path fill="#fcfff1" d="M8.9 5.2q-.4-.3-.4-.7t.4-.8.9-.3l.9.3q.4.3.4.8t-.4.7q-.3.4-.9.4t-1-.4"/></g><g id="c"><path fill="#366d61" d="m5 1.4.5-.6 5.3-.3 1.3.9q2.2 1.6 3.2 3.2l.4 1v4.1l-4.2 3-4.8-.4-.8-.2.3-.2-2.5-3.1 3.1-6.1z"/><path fill="#9f5711" d="m6.7 12.3-.9-.2z"/><path fill="#8dc7b5" d="m5.9 12.2-2.4-.4-2-1.6-1-.6 1-4.6L5 1.4l1.8 1.3-3.1 6.1 2.4 3z"/><path fill="#b67b10" d="m1.5 10.2-.2.1-.8-.5v-.3z"/><path fill="none" stroke="#000" stroke-linecap="round" stroke-linejoin="round" stroke-opacity=".4" stroke-width="1" d="m5 1.4.5-.6 5.3-.3 1.3.9q2.2 1.6 3.2 3.2l.4 1v4.1l-4.2 3-4.8-.4-.9-.2m0 0-2.3-.3-2-1.6-1-.6v.2l.9.5m-.8-.7L1.5 5 5 1.4m.9 10.8h.8"/></g><g id="d"><path fill="#c6e8db" d="m7.6 2.1 4-1.6 3.5.2 5.1 2.6 2.9 3.5.4.4 1.9 7.1q.4 1.1.1 3.2-.4 2.4-1.3 3.8L23 22.5l.4-2.9-2-5.7-1.5-1.1H19q-1.2 1.2-6.2 1.6-4.6-1.2-6.3-2.4L5 9.7v-.5l-.1-.1Q5 4.8 7.5 2m3.3 4.3"/><path fill="#366d61" d="M7.6 2.1Q5 4.8 4.9 9.1v.1l.1.5 1.6 2.2q1.7 1.2 6.3 2.4 5-.4 6.1-1.6h.9l1.5 1 2 5.8-.4 3q-2.4 2-3.9 2.5l3.2-4.1v-2.6l-2.4-3.9-7 1.2-5.5-1.1q-2 0-1.6 1-.5 2.5.7 5.4.6 2.4 2.7 4.8l-1.5-.2q-3.8-1-5.3-3.3 3.9 2.4 3.5 0-2.1-3.1-2.2-6-.1-3 .2-5.8t0-4.3l3.3-3.8z"/><path fill="#a5dac6" d="m19.1 25-.6.3-2.1.3q-3.2.6-6.4.1h-.8q-2.1-2.4-2.7-4.8-1.2-2.9-.7-5.3-.3-1.1 1.6-1.1l5.6 1 6.9-1.1 2.4 3.9v2.6z"/><path fill="#8dc7b5" d="M2.4 22.2q-.6-1 0 .6Q.1 19.5.6 15.2l3-8.8.3-.4q.3 1.6 0 4.4t-.2 5.7 2.1 6q.5 2.4-3.4 0"/><path fill="none" stroke="#000" stroke-linecap="round" stroke-linejoin="round" stroke-opacity=".4" stroke-width="1" d="m23 22.5 1.2-1.2q.9-1.4 1.3-3.9.3-2-.1-3.1l-1.9-7.1-.4-.5-2.9-3.4L15.1.7 11.6.5l-4 1.6-.4.2L3.9 6l-.3.3-3 8.8q-.5 4.2 1.8 7.7-.6-1.7 0-.7 1.5 2.4 5.3 3.3l1.5.2h.8q3.2.5 6.4-.1l2-.3.7-.2q1.5-.6 3.9-2.7"/></g></defs><g clip-path="url(#e)"><g transform="translate(10.8 15.35)"><use xlink:href="#f" width="16.3" height="13.3" transform="translate(-8.15 -9.75)scale(.4391)"/><use xlink:href="#f" width="16.3" height="13.3" transform="matrix(-.4391 0 0 .4391 8.8 -4.95)"/><use xlink:href="#g" width="17.9" height="13.3" transform="matrix(.48 0 0 .48 1.5 -4)"/><use xlink:href="#g" width="17.9" height="13.3" transform="matrix(-.4601 0 0 .4601 -1.45 -2.9)"/><use xlink:href="#h" width="26.1" height="27.7" transform="matrix(-.4365 -.0442 -.0442 .4365 6.7 -10.5)"/><use xlink:href="#i" width="11.9" height="16.8" transform="matrix(-.2581 -.255 .015 .3306 -.15 -11.3)"/><use xlink:href="#i" width="11.9" height="16.8" transform="matrix(.3121 -.1449 -.1009 .3085 2.2 -11.2)"/></g></g><g clip-path="url(#j)"><g transform="translate(32.8 15.35)"><use xlink:href="#f" width="16.3" height="13.3" transform="translate(-8.25 -9.85)scale(.4391)"/><use xlink:href="#f" width="16.3" height="13.3" transform="matrix(-.4391 0 0 .4391 8.8 -3.75)"/><use xlink:href="#g" width="17.9" height="13.3" transform="matrix(.48 0 0 .48 1.5 -4.65)"/><use xlink:href="#g" width="17.9" height="13.3" transform="matrix(-.4601 0 0 .4601 -1.45 -1.9)"/><use xlink:href="#h" width="26.1" height="27.7" transform="matrix(-.4378 -.0289 -.0289 .4378 6.4 -9.95)"/><use xlink:href="#i" width="11.9" height="16.8" transform="matrix(-.2581 -.255 .015 .3306 -.6 -10.3)"/><use xlink:href="#i" width="11.9" height="16.8" transform="matrix(.3121 -.1449 -.1009 .3085 2.15 -10.4)"/></g></g><g clip-path="url(#k)"><g transform="translate(54.8 15.35)"><use xlink:href="#f" width="16.3" height="13.3" transform="translate(-8.3 -10)scale(.4391)"/><use xlink:href="#f" width="16.3" height="13.3" transform="matrix(-.4391 0 0 .4391 8.8 -2.55)"/><use xlink:href="#g" width="17.9" height="13.3" transform="matrix(.48 0 0 .48 1.5 -5.35)"/><use xlink:href="#g" width="17.9" height="13.3" transform="matrix(-.4601 0 0 .4601 -1.45 -.85)"/><use xlink:href="#h" width="26.1" height="27.7" transform="matrix(-.4387 -.0137 -.0137 .4387 6.15 -9.4)"/><use xlink:href="#i" width="11.9" height="16.8" transform="matrix(-.2581 -.255 .015 .3306 -1 -9.25)"/><use xlink:href="#i" width="11.9" height="16.8" transform="matrix(.3121 -.1449 -.1009 .3085 2.05 -9.65)"/></g></g><g clip-path="url(#l)"><g transform="translate(76.8 15.35)"><use xlink:href="#f" width="16.3" height="13.3" transform="translate(-8.4 -10.1)scale(.4391)"/><use xlink:href="#f" width="16.3" height="13.3" transform="matrix(-.4391 0 0 .4391 8.8 -1.35)"/><use xlink:href="#g" width="17.9" height="13.3" transform="matrix(.48 0 0 .48 1.5 -6)"/><use xlink:href="#g" width="17.9" height="13.3" transform="matrix(-.4601 0 0 .4601 -1.45 .15)"/><use xlink:href="#h" width="26.1" height="27.7" transform="matrix(-.4391 0 0 .4391 5.95 -8.8)"/><use xlink:href="#i" width="11.9" height="16.8" transform="matrix(-.3002 -.1778 .0966 .3304 -1.95 -8.7)"/><use xlink:href="#i" width="11.9" height="16.8" transform="matrix(.3002 -.1778 -.0966 .3304 2.05 -8.8)"/></g></g><g clip-path="url(#m)"><g transform="translate(98.8 15.35)"><use xlink:href="#f" width="16.3" height="13.3" transform="translate(-8.5 -9.05)scale(.4391)"/><use xlink:href="#f" width="16.3" height="13.3" transform="matrix(-.4391 0 0 .4391 8.8 -3.5)"/><use xlink:href="#g" width="17.9" height="13.3" transform="matrix(.48 0 0 .48 1.7 -6.25)"/><use xlink:href="#g" width="17.9" height="13.3" transform="matrix(-.4601 0 0 .4601 -1.5 .75)"/><use xlink:href="#h" width="26.1" height="27.7" transform="matrix(-.4387 .0157 .0157 .4387 5.6 -9.55)"/><use xlink:href="#i" width="11.9" height="16.8" transform="matrix(-.3002 -.1778 .0966 .3304 -2.25 -9.15)"/><use xlink:href="#i" width="11.9" height="16.8" transform="matrix(.3002 -.1778 -.0966 .3304 1.75 -9.45)"/></g></g><g clip-path="url(#n)"><g transform="translate(120.8 15.35)"><use xlink:href="#f" width="16.3" height="13.3" transform="translate(-8.6 -8.05)scale(.4391)"/><use xlink:href="#f" width="16.3" height="13.3" transform="matrix(-.4391 0 0 .4391 8.8 -5.6)"/><use xlink:href="#g" width="17.9" height="13.3" transform="matrix(.48 0 0 .48 1.9 -6.55)"/><use xlink:href="#g" width="17.9" height="13.3" transform="matrix(-.4601 0 0 .4601 -1.5 1.3)"/><use xlink:href="#h" width="26.1" height="27.7" transform="matrix(-.4377 .0328 .0328 .4377 5.2 -10.35)"/><use xlink:href="#i" width="11.9" height="16.8" transform="matrix(-.3002 -.1778 .0966 .3304 -2.5 -9.6)"/><use xlink:href="#i" width="11.9" height="16.8" transform="matrix(.3002 -.1778 -.0966 .3304 1.5 -10.15)"/></g></g><g clip-path="url(#o)"><g transform="translate(142.8 15.35)"><use xlink:href="#f" width="16.3" height="13.3" transform="translate(-8.7 -7)scale(.4391)"/><use xlink:href="#f" width="16.3" height="13.3" transform="matrix(-.4391 0 0 .4391 8.8 -7.75)"/><use xlink:href="#g" width="17.9" height="13.3" transform="matrix(.48 0 0 .48 2.1 -6.8)"/><use xlink:href="#g" width="17.9" height="13.3" transform="matrix(-.4601 0 0 .4601 -1.55 1.9)"/><use xlink:href="#h" width="26.1" height="27.7" transform="matrix(-.4361 .0501 .0501 .4361 4.85 -11.15)"/><use xlink:href="#i" width="11.9" height="16.8" transform="matrix(-.3185 -.1423 .1336 .3171 -3 -10.15)"/><use xlink:href="#i" width="11.9" height="16.8" transform="matrix(.2779 -.2108 -.0582 .3392 1 -10.7)"/></g></g><g clip-path="url(#p)"><g transform="translate(164.8 15.35)"><use xlink:href="#f" width="16.3" height="13.3" transform="translate(-8.5 -6.55)scale(.4391)"/><use xlink:href="#f" width="16.3" height="13.3" transform="matrix(-.4391 0 0 .4391 8.8 -8.4)"/><use xlink:href="#g" width="17.9" height="13.3" transform="matrix(.48 0 0 .48 1.95 -5.35)"/><use xlink:href="#g" width="17.9" height="13.3" transform="matrix(-.4601 0 0 .4601 -1.5 0)"/><use xlink:href="#h" width="26.1" height="27.7" transform="matrix(-.4384 .0176 .0176 .4384 5.6 -10.95)"/><use xlink:href="#i" width="11.9" height="16.8" transform="matrix(-.3185 -.1423 .1336 .3171 -2.65 -10.55)"/><use xlink:href="#i" width="11.9" height="16.8" transform="matrix(.2779 -.2108 -.0582 .3392 .8 -10.85)"/></g></g><g clip-path="url(#q)"><g transform="translate(186.8 15.35)"><use xlink:href="#f" width="16.3" height="13.3" transform="translate(-8.35 -6.1)scale(.4391)"/><use xlink:href="#f" width="16.3" height="13.3" transform="matrix(-.4391 0 0 .4391 8.8 -9.1)"/><use xlink:href="#g" width="17.9" height="13.3" transform="matrix(.48 0 0 .48 1.8 -3.85)"/><use xlink:href="#g" width="17.9" height="13.3" transform="matrix(-.4601 0 0 .4601 -1.5 -1.85)"/><use xlink:href="#h" width="26.1" height="27.7" transform="matrix(-.4386 -.0118 -.0118 .4386 6.15 -10.75)"/><use xlink:href="#i" width="11.9" height="16.8" transform="matrix(-.3185 -.1423 .1336 .3171 -2.25 -10.9)"/><use xlink:href="#i" width="11.9" height="16.8" transform="matrix(.2779 -.2108 -.0582 .3392 .6 -11.05)"/></g></g><g clip-path="url(#r)"><g transform="translate(208.8 15.35)"><use xlink:href="#f" width="16.3" height="13.3" transform="translate(-8.15 -5.65)scale(.4391)"/><use xlink:href="#f" width="16.3" height="13.3" transform="matrix(-.4391 0 0 .4391 8.8 -9.75)"/><use xlink:href="#g" width="17.9" height="13.3" transform="matrix(.48 0 0 .48 1.65 -2.4)"/><use xlink:href="#g" width="17.9" height="13.3" transform="matrix(-.4601 0 0 .4601 -1.45 -3.75)"/><use xlink:href="#h" width="26.1" height="27.7" transform="matrix(-.4365 -.0442 -.0442 .4365 6.7 -10.5)"/><use xlink:href="#i" width="11.9" height="16.8" transform="matrix(-.3256 -.2308 .1281 .3425 -1.8 -11)"/><use xlink:href="#i" width="11.9" height="16.8" transform="matrix(.1783 -.2459 .0833 .3434 -.2 -11)"/></g></g><g clip-path="url(#s)"><g transform="translate(230.8 15.35)"><use xlink:href="#f" width="16.3" height="13.3" transform="translate(-8.15 -4.4)scale(.4391)"/><use xlink:href="#f" width="16.3" height="13.3" transform="matrix(-.4391 0 0 .4391 8.9 -9.85)"/><use xlink:href="#g" width="17.9" height="13.3" transform="matrix(.48 0 0 .48 1.6 -1.6)"/><use xlink:href="#g" width="17.9" height="13.3" transform="matrix(-.4601 0 0 .4601 -1.45 -4.4)"/><use xlink:href="#h" width="26.1" height="27.7" transform="matrix(-.4378 -.0289 -.0289 .4378 6.4 -9.95)"/><use xlink:href="#i" width="11.9" height="16.8" transform="matrix(-.3256 -.2308 .1281 .3425 -1.15 -10.35)"/><use xlink:href="#i" width="11.9" height="16.8" transform="matrix(.1783 -.2459 .0833 .3434 .5 -10.15)"/></g></g><g clip-path="url(#t)"><g transform="translate(252.8 15.35)"><use xlink:href="#f" width="16.3" height="13.3" transform="translate(-8.15 -3.1)scale(.4391)"/><use xlink:href="#f" width="16.3" height="13.3" transform="matrix(-.4391 0 0 .4391 8.95 -10)"/><use xlink:href="#g" width="17.9" height="13.3" transform="matrix(.48 0 0 .48 1.55 -.8)"/><use xlink:href="#g" width="17.9" height="13.3" transform="matrix(-.4601 0 0 .4601 -1.45 -5.1)"/><use xlink:href="#h" width="26.1" height="27.7" transform="matrix(-.4387 -.0137 -.0137 .4387 6.15 -9.4)"/><use xlink:href="#i" width="11.9" height="16.8" transform="matrix(-.3256 -.2308 .1281 .3425 -.5 -9.75)"/><use xlink:href="#i" width="11.9" height="16.8" transform="matrix(.1783 -.2459 .0833 .3434 1.15 -9.35)"/></g></g><g clip-path="url(#u)"><g transform="translate(274.8 15.35)"><use xlink:href="#f" width="16.3" height="13.3" transform="translate(-8.15 -1.85)scale(.4391)"/><use xlink:href="#f" width="16.3" height="13.3" transform="matrix(-.4391 0 0 .4391 9.05 -10.1)"/><use xlink:href="#g" width="17.9" height="13.3" transform="translate(1.5)scale(.48)"/><use xlink:href="#g" width="17.9" height="13.3" transform="matrix(-.4601 0 0 .4601 -1.45 -5.75)"/><use xlink:href="#h" width="26.1" height="27.7" transform="matrix(-.4391 0 0 .4391 5.95 -8.8)"/><use xlink:href="#i" width="11.9" height="16.8" transform="matrix(-.1994 -.2505 -.0531 .3439 .9 -9)"/><use xlink:href="#i" width="11.9" height="16.8" transform="matrix(.3308 -.1778 -.1534 .3304 2.95 -8.8)"/></g></g><g clip-path="url(#v)"><g transform="translate(296.8 15.35)"><use xlink:href="#f" width="16.3" height="13.3" transform="translate(-8.15 -3.8)scale(.4391)"/><use xlink:href="#f" width="16.3" height="13.3" transform="matrix(-.4391 0 0 .4391 8.95 -9.3)"/><use xlink:href="#g" width="17.9" height="13.3" transform="matrix(.48 0 0 .48 1.5 .75)"/><use xlink:href="#g" width="17.9" height="13.3" transform="matrix(-.4601 0 0 .4601 -1.45 -5.1)"/><use xlink:href="#h" width="26.1" height="27.7" transform="matrix(-.4387 .0157 .0157 .4387 5.6 -9.55)"/><use xlink:href="#i" width="11.9" height="16.8" transform="matrix(-.1994 -.2505 -.0531 .3439 .8 -9.6)"/><use xlink:href="#i" width="11.9" height="16.8" transform="matrix(.3308 -.1778 -.1534 .3304 3.1 -9.6)"/></g></g><g clip-path="url(#w)"><g transform="translate(318.8 15.35)"><use xlink:href="#f" width="16.3" height="13.3" transform="translate(-8.15 -5.8)scale(.4391)"/><use xlink:href="#f" width="16.3" height="13.3" transform="matrix(-.4391 0 0 .4391 8.9 -8.55)"/><use xlink:href="#g" width="17.9" height="13.3" transform="matrix(.48 0 0 .48 1.5 1.45)"/><use xlink:href="#g" width="17.9" height="13.3" transform="matrix(-.4601 0 0 .4601 -1.45 -4.4)"/><use xlink:href="#h" width="26.1" height="27.7" transform="matrix(-.4377 .0328 .0328 .4377 5.2 -10.35)"/><use xlink:href="#i" width="11.9" height="16.8" transform="matrix(-.1994 -.2505 -.0531 .3439 .7 -10.2)"/><use xlink:href="#i" width="11.9" height="16.8" transform="matrix(.3308 -.1778 -.1534 .3304 3.3 -10.4)"/></g></g><g clip-path="url(#x)"><g transform="translate(340.8 15.35)"><use xlink:href="#f" width="16.3" height="13.3" transform="translate(-8.15 -7.75)scale(.4391)"/><use xlink:href="#f" width="16.3" height="13.3" transform="matrix(-.4391 0 0 .4391 8.8 -7.75)"/><use xlink:href="#g" width="17.9" height="13.3" transform="matrix(.48 0 0 .48 1.5 2.2)"/><use xlink:href="#g" width="17.9" height="13.3" transform="matrix(-.4601 0 0 .4601 -1.45 -3.75)"/><use xlink:href="#h" width="26.1" height="27.7" transform="matrix(-.4361 .0501 .0501 .4361 4.85 -11.15)"/><use xlink:href="#i" width="11.9" height="16.8" transform="matrix(-.2333 -.1423 -.0561 .3171 .85 -11.2)"/><use xlink:href="#i" width="11.9" height="16.8" transform="matrix(.404 -.2108 -.2611 .3392 3.9 -11.1)"/></g></g></svg>