<svg xmlns="http://www.w3.org/2000/svg" xmlns:xlink="http://www.w3.org/1999/xlink" width="1297" height="66" viewBox="0 0 1297 66"><defs><use xlink:href="#a" id="g" width="3.6" height="29.4"/><use xlink:href="#b" id="aa" width="14.8" height="19.1"/><use xlink:href="#c" id="Z" width="7.5" height="11.4"/><use xlink:href="#d" id="X" width="5.7" height="7.2"/><use xlink:href="#e" id="W" width="9.2" height="11.8"/><use xlink:href="#f" id="V" width="15.3" height="18.9"/><use xlink:href="#g" id="U" width="3.6" height="29.4" transform="matrix(.4947 .8945 .8808 -.4224 0 12.4)"/><use xlink:href="#h" id="T" width="6.2" height="11.8"/><use xlink:href="#i" id="S" width="8.2" height="12.3"/><use xlink:href="#j" id="R" width="9.1" height="14.1"/><use xlink:href="#k" id="Q" width="7" height="8.8"/><use xlink:href="#l" id="P" width="6.8" height="5.8"/><use xlink:href="#m" id="O" width="5.2" height="9.2"/><use xlink:href="#n" id="N" width="6.3" height="6.3"/><use xlink:href="#o" id="M" width="8.7" height="5.3"/><use xlink:href="#p" id="L" width="14.7" height="4.3"/><use xlink:href="#q" id="K" width="18.4" height="36.6"/><use xlink:href="#r" id="E" width="47.1" height="47.6"/><use xlink:href="#s" id="F" width="47.1" height="47.6"/><use xlink:href="#t" id="ab" width="27.9" height="27.9"/><use xlink:href="#u" id="G" width="22.9" height="21.6"/><use xlink:href="#v" id="ae" width="27.9" height="27.9"/><use xlink:href="#w" id="af" width="27.9" height="27.9"/><use xlink:href="#x" id="ag" width="27.9" height="27.9"/><use xlink:href="#y" id="ah" width="27.9" height="27.9"/><use xlink:href="#z" id="ai" width="27.9" height="27.9"/><use xlink:href="#A" id="aj" width="27.9" height="27.9"/><use xlink:href="#B" id="H" width="27.9" height="27.9"/><use xlink:href="#C" id="I" width="27.9" height="27.9"/><use xlink:href="#D" id="J" width="27.9" height="27.9"/><use xlink:href="#E" id="aZ" width="47.1" height="47.6" transform="scale(1.45)"/><use xlink:href="#F" id="aX" width="47.1" height="47.6" transform="matrix(1.3 0 0 1.3 3.5 3.8)"/><use xlink:href="#G" id="aQ" width="22.9" height="21.6" transform="matrix(-1 0 0 1 29.95 4.5)"/><use xlink:href="#H" id="aC" width="27.9" height="27.9" transform="translate(10.3 10.9)scale(1.78)"/><use xlink:href="#I" id="aA" width="27.9" height="27.9" transform="translate(7.65 8.1)scale(1.98)"/><use xlink:href="#J" id="ay" width="27.9" height="27.9" transform="translate(5 5.4)scale(2.17)"/><use xlink:href="#J" id="aw" width="27.9" height="27.9" transform="translate(12.2 12.75)scale(1.65)"/><use xlink:href="#G" id="av" width="22.9" height="21.6" transform="matrix(-1.19 0 0 1.19 32.1 3)"/><use xlink:href="#J" id="at" width="27.9" height="27.9" transform="translate(19.4 20.15)scale(1.13)"/><use xlink:href="#G" id="as" width="22.9" height="21.6" transform="matrix(-1.39 0 0 1.39 34.2 1.55)"/><use xlink:href="#J" id="aq" width="27.9" height="27.9" transform="translate(26.65 27.5)scale(.6188)"/><use xlink:href="#G" id="am" width="22.9" height="21.6" transform="matrix(-1.58 0 0 1.58 36.35 0)"/><g id="a"><path fill="#31343c" d="M1.7 24q-.3 3-1 5.4l-.4-.9.3-4.7z"/><path fill="#a3cbdd" d="M.7 29.4q.7-2.4 1-5.4h.8l-.7 3.8q-.7 1.6-1.1 1.6"/><path fill="none" stroke="#26292f" stroke-linecap="round" stroke-linejoin="round" stroke-width="__RESOLUTION__" d="m1.7 24-1-.2-.4 4.7.4.9q.4 0 1.1-1.6l.7-3.8z" vector-effect="non-scaling-stroke"/><path fill="#31343c" d="m1.4 5.4-1 .2L0 .9.4 0q.7 2.4 1 5.4"/><path fill="#a3cbdd" d="M.4 0q.4 0 1.1 1.6l.7 3.7-.9.1Q1.2 2.4.4 0"/><path fill="none" stroke="#26292f" stroke-linecap="round" stroke-linejoin="round" stroke-width="__RESOLUTION__" d="m1.4 5.4-1 .2L0 .9.4 0q.4 0 1.1 1.6l.7 3.7z" vector-effect="non-scaling-stroke"/><path fill="#ab9258" d="m1.2 27-1-.3q1.4-13-.2-22.5l.8-.3Q3 14 1 27"/><path fill="#fff7c8" d="M.8 3.9 2 3.4q3 13.4 0 23.9L1 27Q3 14 .7 3.9"/><path fill="none" stroke="#8b6536" stroke-linecap="round" stroke-linejoin="round" stroke-width="__RESOLUTION__" d="m1.2 27-1-.3q1.4-13-.2-22.5l.8-.3L2 3.4q3 13.4 0 23.9z" vector-effect="non-scaling-stroke"/></g><g id="b"><path fill="#a27733" d="M12.9 8.5q-.8 1.5-.7 3-3.1 1.5-5.8.9 2.1 2.9 1 5.3l-1.2.1-1.5-1-1.1-1.5Q2.4 12 3 8.8L6 10z"/><path fill="#dfb962" d="m12.3 11.5.2 1.6q1.4 1.7.4 3.2-2.4 1.2-5.5 1.4 1.1-2.4-1-5.3 2.7.6 5.9-1"/><path fill="none" stroke="#644520" stroke-linecap="round" stroke-linejoin="round" stroke-width="__RESOLUTION__" d="M12.9 8.5q-.8 1.5-.7 3 0 .7.4 1.6 1.3 1.7.3 3.2-2.4 1.2-5.5 1.4l-1.2.1m0 0-1.5-1-1.1-1.5" vector-effect="non-scaling-stroke"/><path fill="#80512f" d="m7.2 2 .4-.4L9 .5l.7-.4q.5 2.6-.5 4.5-2.4-2.2-2-2.4"/><path fill="#eab539" d="M9.2 4.5q1-1.9.5-4.4.5-.3.8.2.5.8.5 2 .1 1.1-.4 1.8t-1 .7z"/><path fill="none" stroke="#60382b" stroke-linecap="round" stroke-linejoin="round" stroke-width="__RESOLUTION__" d="M9.7 0 9 .6 7.6 1.7l-.4.4m2.4-2q.6-.3 1 .2.4.8.4 2 .1 1.1-.4 1.8t-1 .7" vector-effect="non-scaling-stroke"/><path fill="#eab539" d="m3.6 10.2 1.6.4Q3 15.3 4.8 19q-.6-1.2-1.5-2l-.2-.2q-.7-3.2.5-6.7"/><path fill="#80512f" d="m3 17-1.6-1q-1-1.6.6-6.3l1.5.3.1.1q-1.2 3.4-.6 6.7"/><path fill="none" stroke="#60382b" stroke-linecap="round" stroke-linejoin="round" stroke-width="__RESOLUTION__" d="M1.5 16.1q-1-1.5.5-6.3" vector-effect="non-scaling-stroke"/><path fill="#f4e2c6" d="M13.2 12.5q.2-1.4-.3-2.6h1.4q.1 1.5-1.1 2.6"/><path fill="none" stroke="#845b1a" stroke-linecap="round" stroke-linejoin="round" stroke-width="__RESOLUTION__" d="M14.3 9.9q.2 1.5-1.1 2.6" vector-effect="non-scaling-stroke"/><path fill="#f4e2c6" d="M7.3 13.8q.2-1.5-.3-2.7h1.4q.2 1.6-1.1 2.7"/><path fill="none" stroke="#845b1a" stroke-linecap="round" stroke-linejoin="round" stroke-width="__RESOLUTION__" d="M8.4 11.1q.2 1.6-1.1 2.7" vector-effect="non-scaling-stroke"/><path fill="#80512f" d="M11.8 6q2.4 1.4 2.6 1.7.6 1 .4 1.9-.4.4-1 .5l-1.4-2zM8.2 2l.9.2q1 .3 1.9 1.1t.6 1.6l-.8.9-.5.5q.5-2.5-2.1-4.3m-.5 1.3v.4Q7.6 5.5 6 6.2L5 6l.6.8Q6.8 9.2 4 9.3q-1.5 1-.8 1.9-2-.6-2.3-2.5-.2-1.2 1.3-1.4-.6-.1-1-.7-.8-1 .4-1.2l2.8-.6Q4 4 4.2 3.7q.6-1.9 3-1.8z"/><path fill="#eab539" d="m11.8 6 .6 2.1 1.4 2h-1q-.6-.1-1-.5l.6-1.5q-1-.2-2.3.6l.4 1.2q-1.7 1.5-3.2 1.9-1.4.3-2.5-.8l-1.4.2h-.3q-.7-.9.8-1.9 2.8-.1 1.7-2.5l.2.2h2.6q-.7.1-1.7-.4L6 6.1q1.6-.6 1.8-2.3v-.3L7 1.8l1.1.2q2.7 1.8 2.1 4.4.9 0 1.4-.6M9.3 6q.1-1.2-1.4-2.1 1.5 1 1.4 2M8.9 7q.9.5 1.2 1.8Q9.8 7.5 8.9 7"/><path fill="#fff" d="m11.6 5 .2 1q-.6.5-1.5.5l.5-.6zM6 6.3l.7.3q1 .6 1.6.4l-2.5.2-.2-.3-.7-.8z"/><path fill="#5f4201" d="m10.5 9.9-.4-1.2q1.3-.8 2.3-.6l-.6 1.5z"/><path fill="none" stroke="#60382b" stroke-linecap="round" stroke-linejoin="round" stroke-width="__RESOLUTION__" d="M13.8 10.1q.5-.1 1-.5.2-.8-.4-1.9-.2-.3-2.6-1.7M8.2 2l.9.2q1 .3 1.9 1.1t.6 1.6h0l-.8.9-.5.5M7 2l1.2.2m-.5 1.7q1.6 1 1.4 2m1 2.8Q9.8 7.4 8.9 7m1.6 3q-1.7 1.5-3.2 1.9-1.4.3-2.5-.8l-1.4.2h-.3q-2-.7-2.3-2.6-.2-1.1 1.3-1.4-.6 0-1-.7-.7-1 .4-1.2l2.8-.5Q4 4 4.2 3.6 4.7 1.8 7 2m4.8 7.6q.3.5.9.6h1M8.3 6.9q-.6.1-1.6-.4l-.8-.4L5 6m7 3.6-1.4.3" vector-effect="non-scaling-stroke"/><path fill="none" stroke="#c69e44" stroke-linecap="round" stroke-linejoin="round" stroke-width="__RESOLUTION__" d="M7.8 3.5v.3" vector-effect="non-scaling-stroke"/><path fill="#2f2000" fill-opacity=".3" d="M8.7 6.8q1.5-.4 2 3-.5.7-2 1.4 1.2-2.6 0-4.4-.6 0-1.6-.5t-1.8-.5Q5.7 7.5 8 7q-2.3.5-3.7 1.6-1.3-2.1.9-2.7l-.6-1.2q-.3-.8-.1-1.1l.4-.8q3.5.6 4.2 3.7z"/><path fill="#422e00" fill-opacity=".3" d="M10.3 6.5q.9 0 1.4-.6l.7 2.2q-.9-1-2.1-1.6"/><path fill="#80512f" d="m1.4 1.9.4.1L4 3l.8.3q.3 0-.2 1.3l-.5 1 .2-.5-.2.5Q3.5 3 1.3 1.9M4 5.6l-.1.1-.3.5q-.6 0-1.5-.6T.6 4 0 2.2l.1-.4Q2.6 3.5 4 5.7"/><path fill="#eab539" d="M4 5.6Q2.8 3.5.3 2l.4-.2h.6l.2.2q2 1 2.7 3.7"/><path fill="none" stroke="#60382b" stroke-linecap="round" stroke-linejoin="round" stroke-width="__RESOLUTION__" d="m1.4 1.9.4.1L4 3l.8.3M3.7 6.2q-.6 0-1.5-.5T.6 4Q-.1 3 0 2.2l.1-.4.4-.1h.6" vector-effect="non-scaling-stroke"/></g><g id="c"><path fill="#a27733" d="M6.5 1.6q.4 2.5.2 3.7-.5 2.2 0 3.8l-1.4.3q-.6-2.2-.4-4.8.2-2.2-.3-3z"/><path fill="#c69e44" d="M4.6 1.6q.5.8.3 3-.2 2.6.3 4.8l-2 2Q2 10 1.6 7.4 1.3 4.6 1 3.6t.4-2z"/><path fill="none" stroke="#644520" stroke-linecap="round" stroke-linejoin="round" stroke-width="__RESOLUTION__" d="M6.7 9.1q-.5-1.6 0-3.8.2-1.2-.2-3.7m-3.2 9.8q-1.2-1.3-1.6-4L1 3.7q-.3-.8.3-2" vector-effect="non-scaling-stroke"/><path fill="#4a4946" d="M6.6 7v1.7Q4.3 8.5 1.7 10l-.1-1.4q2.7-1.7 5-1.6"/><path fill="#e8c682" d="M7 1.4q-.4.5.4 3.7l.2.7-3 .3q-1.5-4-.9-5.4z"/><path fill="#f4e2c6" d="M4.6 6.1q-3-.4-4.6-2.3-.1-.9.6-3.8l3.1.7q-.6 1.5.9 5.4"/><path fill="none" stroke="#765434" stroke-linecap="round" stroke-linejoin="round" stroke-width="__RESOLUTION__" d="M7 1.4q-.4.5.4 3.7l.2.7-3 .3q-3-.4-4.6-2.3-.1-.9.6-3.8" vector-effect="non-scaling-stroke"/></g><g id="d"><path fill="#a27733" d="M3.5.6q.6.7.8 1.9v.1l.7 1 .6.9-.2 1.3-1 .6-.1.2q0 1-1.4.3l-.3-.2q-.6-1 0-1.9-.3-2.3.1-4.4z"/><path fill="#c69e44" d="M2.8.4q-.5 2.1-.2 4.4-.6.9 0 1.9 0 .6-1.3-.3L1.2 6l-.7-.4-.4-1.2q-.2-.8.1-2Q1.9.6 1.7 0z"/><path fill="none" stroke="#644520" stroke-linecap="round" stroke-linejoin="round" stroke-width="__RESOLUTION__" d="m2.6 6.7.3.2q1.4.7 1.4-.3l.1-.2h0l1-.6h0l.3-1.3q-.4-.2-.6-1l-.7-.9-.1-.2Q4 1.3 3.5.6m-1 6.1q.1.6-1.2-.2L1.2 6l-.7-.4-.4-1.3h0q-.2-.8.1-2Q1.9.6 1.7 0" vector-effect="non-scaling-stroke"/></g><g id="e"><path fill="#f4e2c6" d="M4.9 1.3q1.5-.4 2.5.5-.2 1.6-2.3 3.8-1.5 1.7-.4 4 .1.2-1.1.5-2.2-.2-2.7-3 1-.8 1.7-3.1T4 1.4z"/><path fill="#e8c682" d="m7.4 1.8 1 1.3q.8 6.3-1.5 8.1l-1.1.4q-2.6.5-4.1-.4l-.8-.6Q-.9 9 .9 7.3v-.1q.5 2.7 2.7 2.9 1.2-.3 1.1-.5-1.2-2.3.4-4 2.1-2.2 2.3-3.8"/><path fill="none" stroke="#765434" stroke-linecap="round" stroke-linejoin="round" stroke-width="__RESOLUTION__" d="M8.4 3.1q.8 6.3-1.5 8.1l-1.1.4m-4.1-.4-.8-.6Q-.9 9 .9 7.3v-.1q1-1 1.7-3.2T4 1.4l.8-.1" vector-effect="non-scaling-stroke"/><path fill="#bf8640" d="M1.8 4.4Q.5 3 3.8 1.2 3.1.1 5.5 0q-1.8.7-1 2.5-2.8-.2-2.7 2z"/><path fill="#80512f" d="m5.5 0 3 .6q1.3 3.5.1 6.2-.3-1.5-3-1.3-2.6.2-3.8-1-.1-2.2 2.7-2Q3.6.7 5.5 0"/><path fill="none" stroke="#5f3825" stroke-linecap="round" stroke-linejoin="round" stroke-width="__RESOLUTION__" d="M1.8 4.4Q.5 3 3.8 1.2 3.1.1 5.5 0l3 .6m.1 6.2q-.3-1.5-3-1.3-2.6.2-3.8-1" vector-effect="non-scaling-stroke"/></g><g id="f"><path fill="#a27733" d="M.3 6.2v-3q1.3-2 2.6-2.3 8.5-1.9 9.5.2t1 4.6-.6 3.4l.2 1H2Q1.2 8 .1 6"/><path fill="#e4c89a" d="M.3 6.2Q1.3 8 1.9 10 1.3 8 .3 6.2"/><path fill="none" stroke="#644520" stroke-linecap="round" stroke-linejoin="round" stroke-width="__RESOLUTION__" d="m13 10-.2-1" vector-effect="non-scaling-stroke"/><path fill="#8e5740" d="M11.9 15.9q0 .9 1.5 1.9-1.5-1-1.5-1.9-3-.2-3.1.5.6 1.6 2.6 2-2-.5-2.6-2-2.5-1.1-3.1-.5-.8 1.4 1.2 2.4-2-1-1.2-2.5-2.1-1.4-2.6-.6-.5 1.2 0 1.7 1.2 1.4 3.7 1.5 2.1 1.1 4.6 0 1.3.2 2-.6l.8-.8q.7-1.5-.4-2-2.2.1-1.9.9"/><path fill="none" stroke="#5a3912" stroke-linecap="round" stroke-linejoin="round" stroke-width="__RESOLUTION__" d="M13.4 17.8q-1.5-1-1.5-1.9-3-.2-3.1.5.6 1.6 2.6 2 1.4.2 2-.6l.9-.8q.6-1.5-.5-2-2.2.1-1.9.9m-6.2 0q-.8 1.4 1.2 2.4 2 1.2 4.5 0m-4.6 0q-2.5 0-3.7-1.4-.5-.5 0-1.7.5-.8 2.6.6.6-.5 3 .6" vector-effect="non-scaling-stroke"/><path fill="#e8c682" d="M2.9 14.6q.2-1.3-.3-2.2l-1-1.8q-3-8 .4-9.5Q4.4.1 10 7l.5-1q-1.5 3-1 4.6.6 1.9 3.3.5-.3 1.4-1 2.4 2.1 0 1.5 2.5-5.3 2.9-10.4.9-1.2-1.6-.2-2.3 3.4.1 6.8-2.4L7 15.5q-4.5.1-4.3-1m8.1 0 1-1z"/><path fill="#f4e2c6" d="M2.9 14.6q3.3.1 6.7-2.4l-2.5 3.3q-4.4.1-4.2-1M13.4 16q.7-2.4-1.5-2.5.7-1 1-2.4-2.7 1.4-3.3-.5-.5-1.7.9-4.6l.5-1q.9-1.9.5-4.6 2.2 1.7 2.8 5.1-1 3.5.6 8 .5 1.6.4 2-.2.5-1.6.3z"/><path fill="none" stroke="#765434" stroke-linecap="round" stroke-linejoin="round" stroke-width="__RESOLUTION__" d="M10.5 6 10 7Q4.4 0 2 1q-3.4 1.5-.3 9.5l.9 1.8q.4.9.2 2.2-.2 1 4.3.9m-4.2-1q-1 .8.1 2.4 5.1 2 10.4-.9l.3-.1q1.4.2 1.6-.3 0-.5-.5-2-1.5-4.6-.5-8-.7-3.4-2.8-5.1.4 2.7-.5 4.6l-.5 1m1.4 7.4-1 1m2-3.4q-.3 1.4-1 2.4" vector-effect="non-scaling-stroke"/><path fill="#80512f" d="M14.6 4q-1.1 2.4-4.2 3.2Q2.9 7.1.1 5.4-.3 1.8 2 .7 6 0 10.6 3L13 .8z"/><path fill="none" stroke="#5f3825" stroke-linecap="round" stroke-linejoin="round" stroke-width="__RESOLUTION__" d="M14.6 4q-1.1 2.4-4.2 3.2Q2.9 7.1.1 5.4" vector-effect="non-scaling-stroke"/></g><g id="h"><path fill="#8e5740" d="m3.3 10.3-.7.8h-.1l-.7.7q-.2.2-.4-.7-.3-1.2-.9-1.8Q.3 7.9.4 6.4l.2-1.8Q.6 3 0 2.5L1.2 2h.4q4-1 4.5-2 .4 2.1-.7 7-.2 0-1 1.4z"/><path fill="none" stroke="#583a1d" stroke-linecap="round" stroke-linejoin="round" stroke-width="__RESOLUTION__" d="M0 2.3q.6.7.6 2.3L.4 6.4Q.3 7.9.6 9.1q.5.6.9 1.9.2.8.4.7l.6-.7.2-.1.6-.8 1.2-1.8Q5.2 7 5.4 7q1.1-4.9.7-7" vector-effect="non-scaling-stroke"/><path fill="#bf8640" d="M5.3 1.6v2.6L3.9 5.9 4.3 3zM1.9 8.2l-.4-3.8 1.4 1.8v3.6z"/></g><g id="i"><path fill="#f4e2c6" d="m5.6.7.6.4q.6.5.5 3-.2 2.8.3 4-1.4 2.8-3.3 2.4-1-.8-.8-1 1.7-2.1 1-4.3-1-3-.6-4.7 1.2-.6 2.3.2"/><path fill="#e8c682" d="M7 8.2q.9 2.2-1.2 3.6l-1 .4q-1.6.5-3.5-.8l-.9-.8Q-.9 8.1 2 1.6L3.3.4q-.4 1.8.7 4.8.6 2.2-1.1 4.3-.2.2.8 1 2 .3 3.3-2.4"/><path fill="none" stroke="#765434" stroke-linecap="round" stroke-linejoin="round" stroke-width="__RESOLUTION__" d="m5.6.7.6.4q.6.5.5 3-.2 2.8.3 4v0q.9 2.3-1.3 3.7l-.9.4m-3.6-.8-.8-.8Q-.9 8.1 2 1.6" vector-effect="non-scaling-stroke"/><path fill="#bf8640" d="M7.7 5.6Q8 2.8 5.4 3 6.5.8 4.9 0q2.3 0 1.4 1.5 2.9 2.3 1.5 3.9z"/><path fill="#8e5740" d="M4.9 0q1.6.9.5 3Q8 3 7.7 5.7 6.4 7 3.9 6.9q-2.5-.4-3 1.5Q0 5.1 2 .7 3.9-.1 4.9 0"/><path fill="none" stroke="#5f3825" stroke-linecap="round" stroke-linejoin="round" stroke-width="__RESOLUTION__" d="M7.8 5.5q1.4-1.6-1.5-4Q7.2 0 4.9 0q-1-.1-2.9.7M.9 8.4q.5-1.8 3-1.5 2.5.2 3.8-1.3" vector-effect="non-scaling-stroke"/></g><g id="j"><path fill="#f4e2c6" d="m6.3.2 2.5.3.3 6.8q0 3.2-.9 5.4-.4.9-2.5 1.3h-3q3 0 3.6-13.8"/><path fill="#e8c682" d="M2.7 14q-2-.4-2.4-1.8-.7-2.3.5-5.7Q2.5 2.4 3.1 0l3.1.2Q5.8 14 2.8 14"/><path fill="none" stroke="#765434" stroke-linecap="round" stroke-linejoin="round" stroke-width="__RESOLUTION__" d="m8.8.5.3 6.8q0 3.2-.9 5.4-.4.9-2.5 1.3h-3q-2-.4-2.4-1.8-.7-2.3.5-5.7Q2.5 2.4 3.2 0" vector-effect="non-scaling-stroke"/></g><g id="k"><path fill="#a27733" d="m3.5 8-1.2.3q-.1-1.4-1-2.9-.5-.8-.8-2.8L1.9 2q-.1.7.6 2.3.9 1.9 1 3.7"/><path fill="#c69e44" d="M3.5 8q-.1-1.8-1-3.7Q1.8 2.7 2 2L4.5.9q.8.6.9 1.3l.4 3.1q.4 2-.2 3.5z"/><path fill="none" stroke="#644520" stroke-linecap="round" stroke-linejoin="round" stroke-width="__RESOLUTION__" d="M.5 2.6q.4 2 .9 2.9.8 1.4.9 2.8m3.3.5q.6-1.4.2-3.5l-.4-3.1q-.2-.7-.9-1.3" vector-effect="non-scaling-stroke"/><path fill="#e8c682" d="M6.1 0q-.3.7.7 3.6l.2.6-2.6 1Q2.6 1.6 3 .1z"/><path fill="#f4e2c6" d="M4.4 5.2Q1.5 5.4 0 3.9L.2.1h2.9q-.5 1.5 1.2 5.1"/><path fill="none" stroke="#765434" stroke-linecap="round" stroke-linejoin="round" stroke-width="__RESOLUTION__" d="M6.1 0q-.3.7.7 3.6l.2.6-2.6 1Q1.5 5.4 0 3.9L.2.1" vector-effect="non-scaling-stroke"/></g><g id="l"><path fill="#c69e44" d="M0 3.6q.6-.2 2-2.1.4-.8 1.2-1Q3.8.5 4 0l1.2.5.2.3H6q1.3 1.7.3 2l-.2.2q1 1 .4 1l-.5.3q.8.9.2 1l-1.7.5-.5-.5-.3.1h-.4l-.1.1q-2.1-.3-2.4 0zm3.5 1 .6.7zm1.6-2.1.2-.3zm-1-.5-.2.3zM2.8 4.4l.9-1.1.3-.9-.3.9zm2.5-.7.9-.8zm-1 .4.4.5 1.4-.3-1.3.3z"/><path fill="#e0e6e9" d="m5 2.5.3-.3z"/><path fill="#daa674" d="m4 2.4.2-.2V2zm.2-.2"/><path fill="none" stroke="#644520" stroke-linecap="round" stroke-linejoin="round" stroke-width="__RESOLUTION__" d="m6.2 3 .2-.2q1-.3-.3-2h-.6L5.3.5 4 0q-.2.4-1 .6-.7.1-1.1.9v0q-1.4 1.9-2 2m.9 2q.3-.3 2.4 0m.8-.2-.6-.7m.7-2.4-.2.2-.3.9-.9 1m3.3 0 .5-.2Q7.3 4 6.2 3l-1 .7M4 5.3l.5.5 1.8-.5q.6-.1-.2-1l-1.4.3-.4-.4" vector-effect="non-scaling-stroke"/></g><g id="m"><path fill="#e7d6bc" d="M5.2 0q-.9 1.8-1.3 3.6-.9.8-2.2.9 0-2 1.4-4.4h.2zM1.7 4.5q1.3-.1 2.2-.9-.3 1.7-.4 3.6l.1 1.3-1.2.7h-.9V7zm1.8 2.7-2-.2z"/><path fill="#c99e6b" d="M3 .1Q1.7 2.6 1.7 4.5L.1 4.4V6q0 1.8-.2 2.5l1.5.7V7l.2-2.5-1.5-.1V4Q0 1.7 1.2.2zM.3 6l1.3 1z"/><path fill="none" stroke="#645340" stroke-linecap="round" stroke-linejoin="round" stroke-width="__RESOLUTION__" d="M3.9 3.6Q4.3 1.8 5.2 0M3.3.1h-.2M1.5 4.5Q3 4.4 4 3.5q-.3 1.7-.4 3.6l.1 1.3-1.2.7h-.9L0 8.5Q.2 7.8.2 6V4Q0 1.7 1.2.2m-1 4.2h1.5M1.5 7l2 .2m-2-.2L.3 6" vector-effect="non-scaling-stroke"/></g><g id="n"><path fill="#80512f" d="m1.6.3 4 .2q1 2.2.7 4.7l-1.7 1-2 .1-.9-.2Q.5 5.6.1 4.4l.2-1.6.3-.9z"/><path fill="none" stroke="#6c4131" stroke-linecap="round" stroke-linejoin="round" stroke-width="__RESOLUTION__" d="m1.6.3 4 .2q1 2.2.7 4.7l-1.7 1-2 .1-.9-.2Q.5 5.6.1 4.4l.2-1.6.3-.9z" vector-effect="non-scaling-stroke"/><path fill="#dfb962" d="m3.7 4-.4 1.8q-1 .4-1.4-.3V4l-.3 1.4Q.6 5.6.3 5q-.6-.6 0-1.2.7-.4 1.6.2zq.9-1.1 2-.3.6 1.4 0 2.1l-2 .3z"/><path fill="none" stroke="#644520" stroke-linecap="round" stroke-linejoin="round" stroke-width="__RESOLUTION__" d="M3.4 5.8q-1 .4-1.5-.3m0-1.5-.3 1.4Q.6 5.6.3 5m0-1.2q.7-.4 1.6.2h1.8q.9-1.1 2-.3.6 1.3 0 2.1l-2 .3V4" vector-effect="non-scaling-stroke"/></g><g id="o"><path fill="#693e27" d="M6.6 4.7 5 5.2H3.8L0 3Q.3.2.7.3h.5q1 1.8 5.4 4.4"/><path fill="#80512f" d="M1.2.3 2.6 0q.8.1 2.5 1.2 1.4.8 3 .6l.3 1.7-1.9 1.2Q2.3 2.1 1.1.3"/><path fill="none" stroke="#704034" stroke-linecap="round" stroke-linejoin="round" stroke-width="__RESOLUTION__" d="M6.6 4.7 5 5.2H3.8L0 3Q.3.2.7.3h.5L2.6 0q.8.1 2.5 1.2 1.4.8 3 .6l.3 1.7z" vector-effect="non-scaling-stroke"/><path fill="#dfb962" d="m7 2.7.8.2zl-.9.3q.7 1 .5 1.7.2-.6-.5-1.7-1.2-.7-1.9.3-.6 1.2.3 1.9L6.4 5l.1-.3q.8.3 1.3-.3V4q.4 0 .6-.4.5-.6 0-1.2z"/><path fill="none" stroke="#644520" stroke-linecap="round" stroke-linejoin="round" stroke-width="__RESOLUTION__" d="M7.8 2.9 7 2.7l-.9.3q.7 1 .5 1.7.7.3 1.2-.3m0-.3q.5 0 .6-.4m0-1.1H7v.1m-.4 2-.2.3-1.9.2q-.8-.7-.3-2 .7-1 1.9-.2" vector-effect="non-scaling-stroke"/></g><g id="q"><path fill="#45261b" d="M16.2 1.4q2 3.2 2.2 8.4 0 4.9-1.7 9.4-1.2 7.4-3.2 12.5l-1.8 3.7q-4.3.3-4.4-9.1V24q-.2-2.8 1.5-4.9-3.5-2.9.3-10.4l1.1-2Q7.4 6 12.2 0q2 0 4 1.4"/><path fill="#80512f" d="m11.7 35.4-.8.9q-5-1-5-4t.4-3q-7.6 2.5-3.1-11.5 1.7-2.6 1.2-2.9-5.8-1.6 1.5-6.2Q3.6 9.9 5 6.5l.6-2.9 1.6-2.3L8.6.7l.6-.2 3-.5q-4.8 6-2 6.8l-1 1.9q-3.9 7.6-.4 10.5-1.6 2-1.4 4.9l-.1 2.2q.2 9.4 4.4 9.1"/><path fill="#bf8640" d="M10.9 36.3q-.6.5-1.1.4Q7 36 5.6 34l-.8-1.8q-4.5-2-4.3-9 .1-4 1.3-9l-.6.3q-1 .2-1.1-.4-.3-.7.4-2t1.8-2.5q-.6-.3-.5-1 .1-.8 1-1.8.7-.9 1.7-1.3l.2-.1.9-1.7-.5 2.8Q3.7 10 6 8.7q-7.3 4.7-1.6 6.2.6.4-1.2 3-4.4 14 3.1 11.4-.2.1-.3 3t4.9 4M2.3 9.6h.1l.6.2.6-.1H3l-.6-.1z"/><path fill="none" stroke="#4f3024" stroke-linecap="round" stroke-linejoin="round" stroke-width="__RESOLUTION__" d="M16.2 1.4q2 3.2 2.2 8.4 0 4.9-1.7 9.4-1.2 7.4-3.2 12.5l-1.8 3.7-.8.9q-.6.5-1.1.4Q7 36 5.6 34l-.8-1.8q-4.5-2-4.3-9 .1-4 1.3-9l-.6.3q-1 .2-1.1-.4-.3-.7.4-2t1.8-2.5q-.6-.3-.5-1 .1-.8 1-1.8.7-.9 1.7-1.3l.2-.1.9-1.7 1.7-2.3M3.6 9.7H3l-.6-.1h-.1" vector-effect="non-scaling-stroke"/></g><g id="r"><path fill="none" stroke="#9b6c02" stroke-linecap="round" stroke-linejoin="round" stroke-opacity=".5" stroke-width="1" d="m34.8 9.9 5-8.4M27 34.7l1.8 4.4"/><path fill="none" stroke="#f90" stroke-linecap="round" stroke-linejoin="round" stroke-opacity=".5" stroke-width="1" d="M33.6 3 32 7.5M23.5.4l.7 5.6m16.3 9.1 6.2-3.8M18.4 43.2l-.4 2.7m-5.6-5.6-5.8 6.8"/><path fill="none" stroke="#f90" stroke-linecap="round" stroke-linejoin="round" stroke-opacity=".5" stroke-width="__RESOLUTION__" d="M28.8 39.1q-4.3-4-9.1.9" vector-effect="non-scaling-stroke"/><path fill="none" stroke="#fff5e6" stroke-linecap="round" stroke-linejoin="round" stroke-opacity=".5" stroke-width="1" d="m19.7 40-.3 1.3m.3-1.3 1.2-6.2"/><path fill="#b81a03" fill-opacity=".5" d="M37.2 38.2q-4.4-4-6.7-3.5-1.8.4-2.8 3.7 0-4-2.5-6.1 5-.1 4.9-3.3-.2-3.3-5.4-7 2.9 1 6.4-2-1.5 3.7-1 5.9.5 1.8 2.8 3.3l3.5 1.2q-2.5.3-2.5 2 0 1.9 3.3 5.8"/><path fill="none" stroke="#d01d04" stroke-linecap="round" stroke-linejoin="round" stroke-opacity=".5" stroke-width="__RESOLUTION__" d="M36.4 30.4q-2.5.3-2.5 2 0 1.9 3.3 5.8" vector-effect="non-scaling-stroke"/><path fill="none" stroke="#fff" stroke-linecap="round" stroke-linejoin="round" stroke-opacity=".5" stroke-width="1" d="M38.4 11.7Q44 17.2 44 25t-5.6 13.5T25 44t-13.5-5.6T6 25.2t5.5-13.5T25 6.1t13.4 5.5"/><path fill="none" stroke="#f90" stroke-linecap="round" stroke-linejoin="round" stroke-opacity=".5" stroke-width="1" d="M13.4 23 .5 21"/><path fill="#f43404" fill-opacity=".5" d="M7.9 13.2q10.8 5.6 10.8-.8l4 1.8q-.6.3-1.3 1.9-1.1 2.1-.6 4.5.8 3.7 3.9 8.4l4 5.3q-5.7-2.9-16.5 1.3Q24.3 27 7.8 13m-5.4-2.4q.6-1.3 2-.6 1.3.6 2 2.1l-1-.1z"/><path fill="none" stroke="#fc563f" stroke-linecap="round" stroke-linejoin="round" stroke-opacity=".5" stroke-width="__RESOLUTION__" d="M7.9 13.2q10.8 5.6 10.8-.8" vector-effect="non-scaling-stroke"/><path fill="none" stroke="#d01d04" stroke-linecap="round" stroke-linejoin="round" stroke-opacity=".5" stroke-width="__RESOLUTION__" d="M12.2 35.6Q24.4 27 7.9 13m-5.4-2.4q.6-1.3 2-.6 1.3.6 2 2.1l-1-.1z" vector-effect="non-scaling-stroke"/><path fill="#f43404" fill-opacity=".5" d="m10.7 36.5-1.6 1.3q-1-.6-.2-1.2.7-.6 2-.6z"/><path fill="none" stroke="#d01d04" stroke-linecap="round" stroke-linejoin="round" stroke-opacity=".5" stroke-width="__RESOLUTION__" d="m10.7 36.5-1.6 1.3q-1-.6-.2-1.2.7-.6 2-.6z" vector-effect="non-scaling-stroke"/></g><g id="s"><path fill="none" stroke="#9b6c02" stroke-linecap="round" stroke-linejoin="round" stroke-width="1" d="m34.8 9.9 5-8.4M27 34.7l1.8 4.4"/><path fill="none" stroke="#f90" stroke-linecap="round" stroke-linejoin="round" stroke-width="1" d="M33.6 3 32 7.5M23.5.4l.7 5.6m16.3 9.1 6.2-3.8M18.4 43.2l-.4 2.7m-5.6-5.6-5.8 6.8"/><path fill="none" stroke="#f90" stroke-linecap="round" stroke-linejoin="round" stroke-width="__RESOLUTION__" d="M28.8 39.1q-4.3-4-9.1.9" vector-effect="non-scaling-stroke"/><path fill="none" stroke="#fff5e6" stroke-linecap="round" stroke-linejoin="round" stroke-width="1" d="m19.7 40-.3 1.3m.3-1.3 1.2-6.2"/><path fill="#b81a03" d="M37.2 38.2q-4.4-4-6.7-3.5-1.8.4-2.8 3.7 0-4-2.5-6.1 5-.1 4.9-3.3-.2-3.3-5.4-7 2.9 1 6.4-2-1.5 3.7-1 5.9.5 1.8 2.8 3.3l3.5 1.2q-2.5.3-2.5 2 0 1.9 3.3 5.8"/><path fill="none" stroke="#d01d04" stroke-linecap="round" stroke-linejoin="round" stroke-width="__RESOLUTION__" d="M36.4 30.4q-2.5.3-2.5 2 0 1.9 3.3 5.8" vector-effect="non-scaling-stroke"/><path fill="none" stroke="#fff" stroke-linecap="round" stroke-linejoin="round" stroke-width="1" d="M38.4 11.7Q44 17.2 44 25t-5.6 13.5T25 44t-13.5-5.6T6 25.2t5.5-13.5T25 6.1t13.4 5.5"/><path fill="none" stroke="#f90" stroke-linecap="round" stroke-linejoin="round" stroke-width="1" d="M13.4 23 .5 21"/><path fill="#f43404" d="M7.9 13.2q10.8 5.6 10.8-.8l4 1.8q-.6.3-1.3 1.9-1.1 2.1-.6 4.5.8 3.7 3.9 8.4l4 5.3q-5.7-2.9-16.5 1.3Q24.3 27 7.8 13m-5.4-2.4q.6-1.3 2-.6 1.3.6 2 2.1l-1-.1z"/><path fill="none" stroke="#fc563f" stroke-linecap="round" stroke-linejoin="round" stroke-width="__RESOLUTION__" d="M7.9 13.2q10.8 5.6 10.8-.8" vector-effect="non-scaling-stroke"/><path fill="none" stroke="#d01d04" stroke-linecap="round" stroke-linejoin="round" stroke-width="__RESOLUTION__" d="M12.2 35.6Q24.4 27 7.9 13m-5.4-2.4q.6-1.3 2-.6 1.3.6 2 2.1l-1-.1z" vector-effect="non-scaling-stroke"/><path fill="#f43404" d="m10.7 36.5-1.6 1.3q-1-.6-.2-1.2.7-.6 2-.6z"/><path fill="none" stroke="#d01d04" stroke-linecap="round" stroke-linejoin="round" stroke-width="__RESOLUTION__" d="m10.7 36.5-1.6 1.3q-1-.6-.2-1.2.7-.6 2-.6z" vector-effect="non-scaling-stroke"/></g><g id="u"><path fill="#f00f0f" d="M15.4 5.5Q17 5 20.7 3q-1.6 2.6-2 4.6-.3 1.1.6 2.2 1 1.3 3.6 1.8-1.2 0-2.4.7-1 .7-1.3 1.3-.5 1 .5 2.7.7 1.5 2.7 3.8-6.6-3.5-9.2-1.8-2.1 1.5-2.9 3.3 0-1.7-.3-2.4-.5-2.1-1.8-2.5-3-1-7.4.4.8-.5 2.3-2.6 1-1.2.6-3.1Q3.3 8.7 0 6.2l3.4.4 2.9-.4q1-.3 1.2-6.1V0q2 3.1 4 4.9 1.5 1.2 3.9.5"/><path fill="#a6691f" d="M12.2 13.7h-.7l-.6-.4-3.5-6.1q-.2-.3 0-.8l.7-.6L9.5 5l.9-.1q.4 0 .5.5-2.3.8-2.5 1.4 2.5 5.3 3.7 6.9m1.9 4h-.7q-.7-.1-.9-.6t0-1.2q.3-.5 1-.9.3-.2.7-.2-1.2.4-1 1.7 0 1.2 1 1.2z"/><path fill="#fc0" d="M12.2 13.7q-1.3-1.6-3.7-6.9.1-.6 2.4-1.5l2.4 6.6v.8l-.6.7-.3.2zm1.9 1 .5.1q.5.2.8.7.2.5 0 1.1l-.9 1-.4.1q-1 0-1-1.3-.2-1.2 1-1.6"/></g><g id="bb" transform="translate(22.85 10.25)"><use xlink:href="#K" width="18.4" height="36.6" transform="matrix(-1.07 .0314 .2934 .6946 7.7 -6.05)"/><use xlink:href="#L" width="14.7" height="4.3" transform="matrix(-.8 0 0 .8 .9 18.95)"/><use xlink:href="#M" width="8.7" height="5.3" transform="matrix(-.8 0 0 .8 -5.25 17.15)"/><use xlink:href="#N" width="6.3" height="6.3" transform="matrix(-.7272 .2815 .2069 .8 6.1 14.8)"/><use xlink:href="#O" width="5.2" height="9.2" transform="rotate(158.92 -6.05 5.16)scale(.799 -.799)"/><use xlink:href="#P" width="6.8" height="5.8" transform="matrix(-.4146 .6828 .5839 .2769 -20 5.1)"/><use xlink:href="#Q" width="7" height="8.8" transform="matrix(-.5544 -.571 -.5604 .7121 -11.95 4.15)"/><use xlink:href="#R" width="9.1" height="14.1" transform="rotate(-107.5 3.86 7.2)scale(.7973 -.7973)"/><use xlink:href="#S" width="8.2" height="12.3" transform="matrix(-.4286 -.6705 -.5589 .3302 -6.65 1.2)"/><use xlink:href="#O" width="5.2" height="9.2" transform="matrix(.0352 .7991 .7182 -.1236 -1.85 16.35)"/><use xlink:href="#R" width="9.1" height="14.1" transform="matrix(-.7965 -.0697 -.0697 .7965 4.45 9.3)"/><use xlink:href="#T" width="6.2" height="11.8" transform="matrix(-.8051 -.286 -.22 .6562 -2.6 8.65)"/><use xlink:href="#U" width="27.6" height="15.7" transform="rotate(-59.46 12.03 6.29)scale(.997)"/><use xlink:href="#V" width="15.3" height="18.9" transform="matrix(-.7707 .0201 .3168 .7343 -.2 -3.7)"/><use xlink:href="#W" width="9.2" height="11.8" transform="matrix(-.4862 .6326 .6326 .4862 1.2 -7.45)"/><use xlink:href="#X" width="5.7" height="7.2" transform="matrix(-.4702 .6447 .6447 .4702 12.6 1.15)"/><use xlink:href="#Z" width="7.5" height="11.4" transform="matrix(-.2537 .7563 .7563 .2537 6.6 -2.75)"/><use xlink:href="#aa" width="14.8" height="19.1" transform="matrix(-.8 0 0 .8 -3.8 -8.1)"/></g><g id="aV" transform="translate(34.1 30.35)"><use xlink:href="#ab" width="27.9" height="27.9" transform="translate(-5.15 -.45)scale(.4521)"/><use xlink:href="#F" width="47.1" height="47.6" transform="translate(-28.5 -24.3)scale(1.21)"/></g><g id="aT" transform="translate(34.1 30.35)"><use xlink:href="#ab" width="27.9" height="27.9" transform="translate(-5.15 -.45)scale(.4521)"/><use xlink:href="#F" width="47.1" height="47.6" transform="translate(-26.45 -22.05)scale(1.12)"/></g><g id="aR" transform="translate(34.1 30.35)"><use xlink:href="#ab" width="27.9" height="27.9" transform="translate(-5.15 -.45)scale(.4521)"/><use xlink:href="#F" width="47.1" height="47.6" transform="translate(-24.35 -19.85)scale(1.03)"/></g><g id="aO" transform="translate(34.1 30.35)"><use xlink:href="#ae" width="27.9" height="27.9" transform="translate(-7.8 -3.15)scale(.6424)"/><use xlink:href="#F" width="47.1" height="47.6" transform="translate(-22.3 -17.55)scale(.9339)"/></g><g id="aM" transform="translate(34.1 30.35)"><use xlink:href="#af" width="27.9" height="27.9" transform="translate(-10.45 -5.9)scale(.8328)"/><use xlink:href="#F" width="47.1" height="47.6" transform="translate(-20.3 -15.3)scale(.8425)"/></g><g id="aK" transform="translate(34.1 30.35)"><use xlink:href="#ag" width="27.9" height="27.9" transform="translate(-13.1 -8.6)scale(1.02)"/><use xlink:href="#F" width="47.1" height="47.6" transform="translate(-18.15 -13.1)scale(.751)"/></g><g id="aI" transform="translate(34.1 30.35)"><use xlink:href="#ah" width="27.9" height="27.9" transform="translate(-15.8 -11.35)scale(1.21)"/><use xlink:href="#F" width="47.1" height="47.6" transform="translate(-16.1 -10.9)scale(.6596)"/></g><g id="aG" transform="translate(34.1 30.35)"><use xlink:href="#ai" width="27.9" height="27.9" transform="matrix(1.4 0 0 1.4 -18.4 -14.05)"/><use xlink:href="#F" width="47.1" height="47.6" transform="translate(-14 -8.6)scale(.5682)"/></g><g id="aE" transform="translate(34.1 30.35)"><use xlink:href="#aj" width="27.9" height="27.9" transform="translate(-21.1 -16.8)scale(1.59)"/><use xlink:href="#F" width="47.1" height="47.6" transform="translate(-11.95 -6.35)scale(.4768)"/></g><g id="al" transform="translate(22.85 10.25)"><use xlink:href="#K" width="18.4" height="36.6" transform="matrix(-1.07 .0314 .2934 .6946 7.7 -6.05)"/><use xlink:href="#L" width="14.7" height="4.3" transform="matrix(-.8 0 0 .8 .9 18.95)"/><use xlink:href="#M" width="8.7" height="5.3" transform="matrix(-.8 0 0 .8 -5.25 17.15)"/><use xlink:href="#N" width="6.3" height="6.3" transform="matrix(-.7272 .2815 .2069 .8 6.1 14.8)"/><use xlink:href="#O" width="5.2" height="9.2" transform="rotate(158.92 -6.05 5.16)scale(.799 -.799)"/><use xlink:href="#P" width="6.8" height="5.8" transform="matrix(-.4146 .6828 .5839 .2769 -20 5.1)"/><use xlink:href="#Q" width="7" height="8.8" transform="matrix(-.5544 -.571 -.5604 .7121 -11.95 4.15)"/><use xlink:href="#R" width="9.1" height="14.1" transform="rotate(-107.5 3.86 7.2)scale(.7973 -.7973)"/><use xlink:href="#S" width="8.2" height="12.3" transform="matrix(-.4286 -.6705 -.5589 .3302 -6.65 1.2)"/><use xlink:href="#O" width="5.2" height="9.2" transform="matrix(.0352 .7991 .7182 -.1236 -1.85 16.35)"/><use xlink:href="#R" width="9.1" height="14.1" transform="matrix(-.7965 -.0697 -.0697 .7965 4.45 9.3)"/><use xlink:href="#T" width="6.2" height="11.8" transform="matrix(-.8051 -.286 -.22 .6562 -2.6 8.65)"/><use xlink:href="#U" width="27.6" height="15.7" transform="rotate(-59.46 12.03 6.29)scale(.997)"/><use xlink:href="#V" width="15.3" height="18.9" transform="matrix(-.7707 .0201 .3168 .7343 -.2 -3.7)"/><use xlink:href="#W" width="9.2" height="11.8" transform="matrix(-.4862 .6326 .6326 .4862 1.2 -7.45)"/><use xlink:href="#X" width="5.7" height="7.2" transform="matrix(-.4702 .6447 .6447 .4702 12.6 1.15)"/><use xlink:href="#Z" width="7.5" height="11.4" transform="matrix(-.2537 .7563 .7563 .2537 6.6 -2.75)"/><use xlink:href="#aa" width="14.8" height="19.1" transform="matrix(-.8 0 0 .8 -3.8 -8.1)"/></g><clipPath id="ak"><path d="M1 1h71v64H1z"/></clipPath><clipPath id="ar"><path d="M73 1h71v64H73z"/></clipPath><clipPath id="au"><path d="M145 1h71v64h-71z"/></clipPath><clipPath id="ax"><path d="M217 1h71v64h-71z"/></clipPath><clipPath id="az"><path d="M289 1h71v64h-71z"/></clipPath><clipPath id="aB"><path d="M361 1h71v64h-71z"/></clipPath><clipPath id="aD"><path d="M433 1h71v64h-71z"/></clipPath><clipPath id="aF"><path d="M505 1h71v64h-71z"/></clipPath><clipPath id="aH"><path d="M577 1h71v64h-71z"/></clipPath><clipPath id="aJ"><path d="M649 1h71v64h-71z"/></clipPath><clipPath id="aL"><path d="M721 1h71v64h-71z"/></clipPath><clipPath id="aN"><path d="M793 1h71v64h-71z"/></clipPath><clipPath id="aP"><path d="M865 1h71v64h-71z"/></clipPath><clipPath id="aS"><path d="M937 1h71v64h-71z"/></clipPath><clipPath id="aU"><path d="M1009 1h71v64h-71z"/></clipPath><clipPath id="aW"><path d="M1081 1h71v64h-71z"/></clipPath><clipPath id="aY"><path d="M1153 1h71v64h-71z"/></clipPath><clipPath id="ba"><path d="M1225 1h71v64h-71z"/></clipPath><path id="p" fill="#382c16" d="M5.8-1.9Q7.9-1.4 8-.5 8 .3 5.9 1 3.8 1.8.7 2l-5.2-.4Q-6.7 1.2-6.7.3q-.1-.8 2-1.6 2.2-.8 5.2-.9z" transform="translate(6.75 2.25)"/><path id="t" fill="#fff" fill-opacity="0" d="M13.9-.3q0 5.7-4.1 9.8-3.3 3.3-7.6 4l-2.2.1q-5.8 0-10-4.1-2.6-2.6-3.5-6-.5-1.8-.5-3.8 0-5.8 4-10h.2q4-4 9.8-4 3.7 0 6.6 1.7 1.7.9 3.2 2.3 3.3 3.4 4 7.8z" transform="translate(14 14.3)"/><path id="v" fill="#fff" fill-opacity=".1" d="M13.9-.3q0 5.7-4.1 9.8-3.3 3.3-7.6 4l-2.2.1q-5.8 0-10-4.1-2.6-2.6-3.5-6-.5-1.8-.5-3.8 0-5.8 4-10h.2q4-4 9.8-4 3.7 0 6.6 1.7 1.7.9 3.2 2.3 3.3 3.4 4 7.8z" transform="translate(14 14.3)"/><path id="w" fill="#fff" fill-opacity=".2" d="M13.9-.3q0 5.7-4.1 9.8-3.3 3.3-7.6 4l-2.2.1q-5.8 0-10-4.1-2.6-2.6-3.5-6-.5-1.8-.5-3.8 0-5.8 4-10h.2q4-4 9.8-4 3.7 0 6.6 1.7 1.7.9 3.2 2.3 3.3 3.4 4 7.8z" transform="translate(14 14.3)"/><path id="x" fill="#fff" fill-opacity=".3" d="M13.9-.3q0 5.7-4.1 9.8-3.3 3.3-7.6 4l-2.2.1q-5.8 0-10-4.1-2.6-2.6-3.5-6-.5-1.8-.5-3.8 0-5.8 4-10h.2q4-4 9.8-4 3.7 0 6.6 1.7 1.7.9 3.2 2.3 3.3 3.4 4 7.8z" transform="translate(14 14.3)"/><path id="y" fill="#fff" fill-opacity=".4" d="M13.9-.3q0 5.7-4.1 9.8-3.3 3.3-7.6 4l-2.2.1q-5.8 0-10-4.1-2.6-2.6-3.5-6-.5-1.8-.5-3.8 0-5.8 4-10h.2q4-4 9.8-4 3.7 0 6.6 1.7 1.7.9 3.2 2.3 3.3 3.4 4 7.8z" transform="translate(14 14.3)"/><path id="z" fill="#fff" fill-opacity=".6" d="M13.9-.3q0 5.7-4.1 9.8-3.3 3.3-7.6 4l-2.2.1q-5.8 0-10-4.1-2.6-2.6-3.5-6-.5-1.8-.5-3.8 0-5.8 4-10h.2q4-4 9.8-4 3.7 0 6.6 1.7 1.7.9 3.2 2.3 3.3 3.4 4 7.8z" transform="translate(14 14.3)"/><path id="A" fill="#fff" fill-opacity=".7" d="M13.9-.3q0 5.7-4.1 9.8-3.3 3.3-7.6 4l-2.2.1q-5.8 0-10-4.1-2.6-2.6-3.5-6-.5-1.8-.5-3.8 0-5.8 4-10h.2q4-4 9.8-4 3.7 0 6.6 1.7 1.7.9 3.2 2.3 3.3 3.4 4 7.8z" transform="translate(14 14.3)"/><path id="B" fill="#fff" fill-opacity=".8" d="M13.9-.3q0 5.7-4.1 9.8-3.3 3.3-7.6 4l-2.2.1q-5.8 0-10-4.1-2.6-2.6-3.5-6-.5-1.8-.5-3.8 0-5.8 4-10h.2q4-4 9.8-4 3.7 0 6.6 1.7 1.7.9 3.2 2.3 3.3 3.4 4 7.8z" transform="translate(14 14.3)"/><path id="C" fill="#fff" fill-opacity=".9" d="M13.9-.3q0 5.7-4.1 9.8-3.3 3.3-7.6 4l-2.2.1q-5.8 0-10-4.1-2.6-2.6-3.5-6-.5-1.8-.5-3.8 0-5.8 4-10h.2q4-4 9.8-4 3.7 0 6.6 1.7 1.7.9 3.2 2.3 3.3 3.4 4 7.8z" transform="translate(14 14.3)"/><path id="D" fill="#fff" d="M13.9-.3q0 5.7-4.1 9.8-3.3 3.3-7.6 4l-2.2.1q-5.8 0-10-4.1-2.6-2.6-3.5-6-.5-1.8-.5-3.8 0-5.8 4-10h.2q4-4 9.8-4 3.7 0 6.6 1.7 1.7.9 3.2 2.3 3.3 3.4 4 7.8z" transform="translate(14 14.3)"/></defs><g clip-path="url(#ak)"><g transform="translate(30.95 55.1)"><use xlink:href="#al" width="50.8" height="32.6" transform="translate(-18.35 -31)"/><use xlink:href="#am" width="36.4" height="34.2" transform="translate(3.75 -52.8)"/><use xlink:href="#aq" width="68.5" height="69.2" transform="translate(-29.95 -54.1)scale(.916)"/></g></g><g clip-path="url(#ar)"><g transform="translate(102.95 55.1)"><use xlink:href="#al" width="50.8" height="32.6" transform="translate(-18.35 -31)"/><use xlink:href="#as" width="36.4" height="34.2" transform="translate(3.75 -52.8)"/><use xlink:href="#at" width="68.5" height="69.2" transform="translate(-29.95 -54.1)scale(.916)"/></g></g><g clip-path="url(#au)"><g transform="translate(174.95 55.1)"><use xlink:href="#al" width="50.8" height="32.6" transform="translate(-18.35 -31)"/><use xlink:href="#av" width="36.4" height="34.2" transform="translate(3.75 -52.8)"/><use xlink:href="#aw" width="68.5" height="69.2" transform="translate(-29.95 -54.1)scale(.916)"/></g></g><g clip-path="url(#ax)"><g transform="translate(246.95 55.1)"><use xlink:href="#al" width="50.8" height="32.6" transform="translate(-18.35 -31)"/><use xlink:href="#ay" width="68.5" height="69.2" transform="translate(-29.95 -54.1)scale(.916)"/></g></g><g clip-path="url(#az)"><g transform="translate(318.95 55.1)"><use xlink:href="#al" width="50.8" height="32.6" transform="translate(-18.35 -31)"/><use xlink:href="#aA" width="68.5" height="69.2" transform="translate(-29.95 -54.1)scale(.916)"/></g></g><g clip-path="url(#aB)"><g transform="translate(390.95 55.1)"><use xlink:href="#al" width="50.8" height="32.6" transform="translate(-18.35 -31)"/><use xlink:href="#aC" width="68.5" height="69.2" transform="translate(-29.95 -54.1)scale(.916)"/></g></g><g clip-path="url(#aD)"><g transform="translate(462.95 55.1)"><use xlink:href="#al" width="50.8" height="32.6" transform="translate(-18.35 -31)"/><use xlink:href="#aE" width="68.5" height="69.2" transform="translate(-29.95 -54.1)scale(.916)"/></g></g><g clip-path="url(#aF)"><g transform="translate(534.95 55.1)"><use xlink:href="#al" width="50.8" height="32.6" transform="translate(-18.35 -31)"/><use xlink:href="#aG" width="68.5" height="69.2" transform="translate(-29.95 -54.1)scale(.916)"/></g></g><g clip-path="url(#aH)"><g transform="translate(606.95 55.1)"><use xlink:href="#al" width="50.8" height="32.6" transform="translate(-18.35 -31)"/><use xlink:href="#aI" width="68.5" height="69.2" transform="translate(-29.95 -54.1)scale(.916)"/></g></g><g clip-path="url(#aJ)"><g transform="translate(678.95 55.1)"><use xlink:href="#al" width="50.8" height="32.6" transform="translate(-18.35 -31)"/><use xlink:href="#aK" width="68.5" height="69.2" transform="translate(-29.95 -54.1)scale(.916)"/></g></g><g clip-path="url(#aL)"><g transform="translate(750.95 55.1)"><use xlink:href="#al" width="50.8" height="32.6" transform="translate(-18.35 -31)"/><use xlink:href="#aM" width="68.5" height="69.2" transform="translate(-29.95 -54.1)scale(.916)"/></g></g><g clip-path="url(#aN)"><g transform="translate(822.95 55.1)"><use xlink:href="#al" width="50.8" height="32.6" transform="translate(-18.35 -31)"/><use xlink:href="#aO" width="68.5" height="69.2" transform="translate(-29.95 -54.1)scale(.916)"/></g></g><g clip-path="url(#aP)"><g transform="translate(894.95 55.1)"><use xlink:href="#al" width="50.8" height="32.6" transform="translate(-18.35 -31)"/><use xlink:href="#aQ" width="36.4" height="34.2" transform="translate(3.75 -52.8)"/><use xlink:href="#aR" width="68.5" height="69.2" transform="translate(-29.95 -54.1)scale(.916)"/></g></g><g clip-path="url(#aS)"><g transform="translate(966.95 55.1)"><use xlink:href="#al" width="50.8" height="32.6" transform="translate(-18.35 -31)"/><use xlink:href="#aQ" width="36.4" height="34.2" transform="translate(3.75 -52.8)"/><use xlink:href="#aT" width="68.5" height="69.2" transform="translate(-29.95 -54.1)scale(.916)"/></g></g><g clip-path="url(#aU)"><g transform="translate(1038.95 55.1)"><use xlink:href="#al" width="50.8" height="32.6" transform="translate(-18.35 -31)"/><use xlink:href="#aQ" width="36.4" height="34.2" transform="translate(3.75 -52.8)"/><use xlink:href="#aV" width="68.5" height="69.2" transform="translate(-29.95 -54.1)scale(.916)"/></g></g><g clip-path="url(#aW)"><g transform="translate(1110.95 55.1)"><use xlink:href="#al" width="50.8" height="32.6" transform="translate(-18.35 -31)"/><use xlink:href="#aQ" width="36.4" height="34.2" transform="translate(3.75 -52.8)"/><use xlink:href="#aX" width="68.5" height="69.2" transform="translate(-29.95 -54.1)scale(.916)"/></g></g><g clip-path="url(#aY)"><g transform="translate(1182.95 55.1)"><use xlink:href="#al" width="50.8" height="32.6" transform="translate(-18.35 -31)"/><use xlink:href="#aQ" width="36.4" height="34.2" transform="translate(3.75 -52.8)"/><use xlink:href="#aZ" width="68.5" height="69.2" transform="translate(-29.95 -54.1)scale(.916)"/></g></g><g clip-path="url(#ba)"><g transform="translate(1254.95 55.1)"><use xlink:href="#bb" width="50.8" height="32.6" transform="translate(-18.35 -31)"/><use xlink:href="#aQ" width="36.4" height="34.2" transform="translate(3.75 -52.8)"/></g></g></svg>