<svg xmlns="http://www.w3.org/2000/svg" xmlns:xlink="http://www.w3.org/1999/xlink" width="671" height="48" viewBox="0 0 671 48"><defs><clipPath id="e"><path d="M1 1h66v46H1z"/></clipPath><clipPath id="j"><path d="M68 1h66v46H68z"/></clipPath><clipPath id="k"><path d="M135 1h66v46h-66z"/></clipPath><clipPath id="l"><path d="M202 1h66v46h-66z"/></clipPath><clipPath id="m"><path d="M269 1h66v46h-66z"/></clipPath><clipPath id="n"><path d="M336 1h66v46h-66z"/></clipPath><clipPath id="o"><path d="M403 1h66v46h-66z"/></clipPath><clipPath id="p"><path d="M470 1h66v46h-66z"/></clipPath><clipPath id="q"><path d="M537 1h66v46h-66z"/></clipPath><clipPath id="r"><path d="M604 1h66v46h-66z"/></clipPath><g id="c"><path fill="#ca9e0b" d="M.2 6.4 0 5.9l.1-.2.5-.4q1-2.6 3.4-4.2l.7-.5Q6-.2 7.7.1l1.6.6q1.4 1.1 1.7 3 .4 1.7-.2 3.4l.2.6-.2.5-.3.2h-.3.5l-1.3.1h-3l-.7-.1-4.3-1.3-.8-.4zm6.9.9L5 6.6l-2.3-.4-2-.3v.2q2.6 1.5 5.8 1.6l.4-.2z"/><path fill="#bd8108" d="m.2 6.4.4.3.8.4 4.3 1.3.8.1h4.1q-.8 2-2.6 3-2.6 1.4-5.3-.2l-1.2-.9L.5 9Q.1 8 .3 6.7zm.3.4"/><path fill="#e6c126" d="m7.1 7.3-.2.2-.5.2Q3.2 7.6.6 6l.1-.2 2 .3 2.2.4z"/><path fill="none" stroke="#000" stroke-linecap="round" stroke-linejoin="round" stroke-opacity=".4" stroke-width="__RESOLUTION__" d="m10.7 8.5-.5-.1h.3l.3-.2.2-.5-.2-.6q.6-1.7.3-3.3-.4-2-1.8-3.2L7.6.1q-1.5-.3-3 .5l-.6.5Q1.7 2.7.6 5.4l-.5.3L0 6l.2.4.4.4.8.5h0l4.3 1.2.8.1h2.9zq-1 2-2.7 3-2.6 1.4-5.3-.2l-1.2-.9L.5 9Q.1 8 .3 6.7l-.1-.4" vector-effect="non-scaling-stroke"/></g><g id="d"><path fill="#b65410" d="m12.9.3 1 .3.5.1.3.1 1.3.7 1 .7h.1l.1.2.3.2.2.1q2 1.9 2.6 4.2l.2 1.2v.7q0 3.5-3 6l-2 1.5-.5.2-3.1.9h-1.6q-4 0-7-2.3Q.7 12.6.2 9.3V9q15 3.4 16.2-2.1.7-3.2-2.2-5.7z"/><path fill="#f38601" d="m12.9.3 1.2 1q2.8 2.5 2.2 5.7Q15.1 12.5.1 9.2v-.4Q0 5 3 2.5l.4-.3Q6.5 0 10.4 0l1.4.1h.4l.3.1zM.1 9.3q.5 3.2 3.3 5.8l-.3-.2Q.7 12.8 0 10v-.5z"/><path fill="#c45c11" d="M.1 9.2H0z"/><path fill="#294a15" fill-opacity=".5" d="M17.3 2.4h-.1l-.1-.1z"/><path fill="none" stroke="#000" stroke-linecap="round" stroke-linejoin="round" stroke-opacity=".4" stroke-width="__RESOLUTION__" d="M17.1 2.3 16 1.5 14.7.8l-.3-.1-.5-.1-1-.3-.5-.1h-.3l-.4-.1-1.4-.1Q6.4 0 3.5 2.2m-.2 12.9q3 2.3 7 2.4l1.6-.1 3.1-.9.5-.2 2-1.4q3-2.6 3-6.1V8l-.3-1.2q-.5-2.3-2.5-4.1l-.2-.2-.2-.2-.2-.1M0 9.2v-.4Q0 5 3 2.5h.1l.4-.3m-3.4 7v1q.5 2.6 3 4.7l.2.2" vector-effect="non-scaling-stroke"/><path fill="#ff9" d="m13.4 1.3.9.5-2.8-.6L9 1q-.3 0-.1-.3 0-.2.7-.3h1.6q.8 0 2.2.9m-7.2.3L6 1.5v-.1l.7-.3.8-.4h.3l.4.1-.1.1q-1.4.8-2 .7"/></g><g id="b"><path fill="#4a75e2" d="M21.3 1.1q2.5 1 4.3 3.1l.2.2v.1q-1.6 6.2-5.6 8.4-1-1.1-4-2.8Q13 8.3 8.7 8l-5.2.3 2.2-4 2.7-2.2 5.3.3 7-1.6z"/><path fill="#43b6e7" d="m20.7.9-7 1.6-5.3-.3Q10.9.8 14.3 0l3.5.4z"/><path fill="#27569c" d="m3.5 8.4 5.2-.3q4.4.2 7.5 2 3 1.7 4 2.7 4-2.2 5.6-8.3 3.9 4.6 4.2 8.4l-1.5 8-8.4 5.9h-2.8q-7-2.2-14.2-5.2l-.3-.3-2.1-1.8-.7-5.2L3.1 9z"/><path fill="none" stroke="#000" stroke-linecap="round" stroke-linejoin="round" stroke-opacity=".3" stroke-width="__RESOLUTION__" d="m25.9 4.5-.1-.1-.2-.2q-1.7-2.1-4.3-3.1M8.5 2.2 5.6 4.5 3.5 8.4 3 9l-3 5.3.7 5.2 2.1 1.8m23-16.8q3.9 4.6 4.2 8.4l-1.5 8-8.4 5.9h-2.8q-7-2.2-14.2-5.2M20.6.9 17.8.4 14.2 0q-3.4.8-5.7 2.2" vector-effect="non-scaling-stroke"/><path fill="#ddfcbe" d="m13.5 1.9.4.3-.3.4-1 .1-.9-.1-2.1.3q-1.9.4.1-.3l2.7-.9zm1.2.9-.2-.4.3-.4.5-.1.7.2.3.3q0 .3-.3.4l-.6.1z"/></g><g id="f" transform="translate(13.05 20.7)"><use xlink:href="#a" width="11.2" height="12.2" transform="matrix(1.41 -.1448 -.0701 1.4 -11.3 -19.1)"/><use xlink:href="#b" width="30" height="26.8" transform="translate(-13.05 -18.65)"/><use xlink:href="#a" width="11.2" height="12.2" transform="matrix(1.2 -.7357 .5396 1.29 4.15 -10.5)"/></g><use xlink:href="#c" id="a" width="11.2" height="12.2"/><use xlink:href="#d" id="i" width="20.4" height="17.4"/></defs><g clip-path="url(#e)"><g transform="translate(27.85 36.55)"><use xlink:href="#f" width="37.1" height="28.9" transform="matrix(1 -.0382 0 .6578 1.5 -21.25)"/><use xlink:href="#i" width="20.4" height="17.4" transform="matrix(1.3233 -.1289 0 .8689 -5.35 -11.8)"/><use xlink:href="#i" width="20.4" height="17.4" transform="matrix(1.3109 -.0604 -.1696 .7792 -14.75 -8)"/><use xlink:href="#i" width="20.4" height="17.4" transform="matrix(1.0804 -.0859 -.1307 .6003 -24.6 -1.55)"/></g></g><g clip-path="url(#j)"><g transform="translate(94.85 36.55)"><use xlink:href="#f" width="37.1" height="28.9" transform="matrix(.9851 -.0177 .0003 .7053 .3 -23.65)"/><use xlink:href="#i" width="20.4" height="17.4" transform="matrix(1.2948 -.1201 .0215 .977 -6.45 -14.95)"/><use xlink:href="#i" width="20.4" height="17.4" transform="matrix(1.2777 -.067 -.126 .8672 -15 -10.4)"/><use xlink:href="#i" width="20.4" height="17.4" transform="matrix(1.0532 -.0096 -.1591 .6596 -23.05 -3.5)"/></g></g><g clip-path="url(#k)"><g transform="translate(161.85 36.55)"><use xlink:href="#f" width="37.1" height="28.9" transform="matrix(.97 -.0003 .0007 .7527 -.9 -26.1)"/><use xlink:href="#i" width="20.4" height="17.4" transform="matrix(1.2661 -.1167 .0478 1.0845 -7.6 -17.9)"/><use xlink:href="#i" width="20.4" height="17.4" transform="matrix(1.2449 -.0714 -.0712 .953 -15.4 -12.75)"/><use xlink:href="#i" width="20.4" height="17.4" transform="matrix(1.021 .0585 -.193 .7176 -21.45 -5.35)"/></g></g><g clip-path="url(#l)"><g transform="translate(228.85 36.55)"><use xlink:href="#f" width="37.1" height="28.9" transform="matrix(.9544 .0167 .0038 .8002 -2.2 -28.45)"/><use xlink:href="#i" width="20.4" height="17.4" transform="matrix(1.2378 -.1094 .0788 1.1913 -8.8 -21)"/><use xlink:href="#i" width="20.4" height="17.4" transform="matrix(1.2121 -.0754 -.005 1.0352 -15.8 -15.1)"/><use xlink:href="#i" width="20.4" height="17.4" transform="matrix(.984 .1255 -.2299 .7742 -19.6 -7.3)"/></g></g><g clip-path="url(#m)"><g transform="translate(295.85 36.55)"><use xlink:href="#f" width="37.1" height="28.9" transform="matrix(.9385 .0331 .0044 .8476 -3.45 -30.8)"/><use xlink:href="#i" width="20.4" height="17.4" transform="matrix(1.2091 -.1062 .1145 1.2972 -10.05 -24.05)"/><use xlink:href="#i" width="20.4" height="17.4" transform="matrix(1.179 -.083 .0686 1.1121 -16.35 -17.4)"/><use xlink:href="#i" width="20.4" height="17.4" transform="matrix(.9428 .1878 -.2699 .8293 -17.95 -9.1)"/></g></g><g clip-path="url(#n)"><g transform="translate(362.85 36.55)"><use xlink:href="#f" width="37.1" height="28.9" transform="matrix(.9224 .0489 .008 .8951 -4.7 -33.15)"/><use xlink:href="#i" width="20.4" height="17.4" transform="matrix(1.1808 -.0992 .155 1.4021 -11.35 -27.1)"/><use xlink:href="#i" width="20.4" height="17.4" transform="matrix(1.1461 -.0863 .1563 1.1829 -16.95 -19.65)"/><use xlink:href="#i" width="20.4" height="17.4" transform="matrix(.8987 .242 -.31 .8839 -16.15 -10.75)"/></g></g><g clip-path="url(#o)"><g transform="translate(429.85 36.55)"><use xlink:href="#f" width="37.1" height="28.9" transform="matrix(.906 .0667 .011 .9425 -5.95 -35.55)"/><use xlink:href="#i" width="20.4" height="17.4" transform="matrix(1.1523 -.0973 .2054 1.5056 -12.6 -30.1)"/><use xlink:href="#i" width="20.4" height="17.4" transform="matrix(1.1131 -.094 .2551 1.2472 -17.65 -21.9)"/><use xlink:href="#i" width="20.4" height="17.4" transform="matrix(.851 .2962 -.3576 .9363 -14.35 -12.45)"/></g></g><g clip-path="url(#p)"><g transform="translate(496.85 36.55)"><use xlink:href="#f" width="37.1" height="28.9" transform="matrix(.9305 .0412 -.0009 .8766 -3.9 -31.85)"/><use xlink:href="#i" width="20.4" height="17.4" transform="matrix(1.2369 -.0379 .1198 1.3628 -9.85 -27.9)"/><use xlink:href="#i" width="20.4" height="17.4" transform="matrix(1.1624 -.0774 .1079 1.1713 -16.15 -20.95)"/><use xlink:href="#i" width="20.4" height="17.4" transform="matrix(.8972 .2415 -.3099 .8971 -16.65 -11.3)"/></g></g><g clip-path="url(#q)"><g transform="translate(563.85 36.55)"><use xlink:href="#f" width="37.1" height="28.9" transform="matrix(.9544 .0169 -.0146 .8105 -1.95 -28.05)"/><use xlink:href="#i" width="20.4" height="17.4" transform="matrix(1.3183 .0288 .0486 1.2164 -7.1 -25.75)"/><use xlink:href="#i" width="20.4" height="17.4" transform="matrix(1.2114 -.0643 -.0152 1.0802 -14.85 -19.95)"/><use xlink:href="#i" width="20.4" height="17.4" transform="matrix(.9403 .1838 -.2668 .8565 -19 -10.05)"/></g></g><g clip-path="url(#r)"><g transform="translate(630.85 36.55)"><use xlink:href="#f" width="37.1" height="28.9" transform="matrix(.9776 -.0089 -.0266 .7443 .15 -24.4)"/><use xlink:href="#i" width="20.4" height="17.4" transform="matrix(1.3959 .1051 -.0055 1.0665 -4.55 -23.75)"/><use xlink:href="#i" width="20.4" height="17.4" transform="matrix(1.2604 -.0507 -.1242 .9762 -13.6 -18.8)"/><use xlink:href="#i" width="20.4" height="17.4" transform="matrix(.9797 .1241 -.2278 .8145 -21.1 -8.85)"/></g></g></svg>