<svg xmlns="http://www.w3.org/2000/svg" xmlns:xlink="http://www.w3.org/1999/xlink" width="98" height="76" viewBox="0 0 98 76"><defs><g id="a"><path fill="#795200" d="M2.8.5Q4-.1 6 1.3l.7.6q2.4 1.7 2.6 4.8l.1 12.8.2 9 .4 11.7q.2 4.7-4.8 3.8l-.2-.1-.7-.2v-1.5l.3-.4.5.4.6.4-.6-.4-.5-.5q1.9-3.2 2-21.7-3.6.5-5.2-2.4v-.2z"/><path fill="#960" d="m4.4 43.7-.3-.1q-3-1-3.6-3.5l.8-19.9.1-2.6q1.7 2.9 5.3 2.4-.1 18.6-2 21.8Q3 40.3 2 40.2q.9.1 2.8 1.6l-.3.4z"/><path fill="none" stroke="#312c11" stroke-linecap="round" stroke-linejoin="round" stroke-width="1" d="m9.4 6.7.1 12.8.2 9 .4 11.7q.2 4.7-4.8 3.8l-.2-.1-.7-.2-.3-.1q-3-1-3.6-3.5"/><path fill="none" stroke="#554d1e" stroke-linecap="round" stroke-linejoin="round" stroke-width="1" d="m.5 40.2.8-20 .1-2.6v-.3L2.8.5"/><path fill="none" stroke="#312c11" stroke-linecap="round" stroke-linejoin="round" stroke-width="1" d="m4.8 41.8.5.4.5.4M2 40.2q.9.1 2.7 1.6"/><path fill="none" stroke="#000" stroke-linecap="round" stroke-linejoin="round" stroke-opacity=".8" stroke-width="1" d="M1 24.2q1.5-1.3 1.9.3"/></g><g id="u"><path fill="#cde04b" d="M1.5.1q-.2.3.5 1.2.8.9.8 2.4v.5l-.1 1.2-.3.7-.1.2q-.5 1-.8 1t-1-1.2-.2-2.8L1.1.8z"/><path fill="#b7c944" d="M2.9 4.2 4 2.9l1 2.7-1.2.8q-1.1.5-1.3.4t-.1-.7l.3-.7z"/><path fill="#c3d547" d="m4 2.9 2.2-1.5.6-.3q-.2 0-.2 1.2t-.8 2.4l-.7.8z"/><path fill="none" stroke="#a7bd3a" stroke-linecap="round" stroke-linejoin="round" stroke-width="__RESOLUTION__" d="M1.5.1q-.2.3.5 1.2.8.9.8 2.4v.5l-.1 1.2-.3.7-.1.2q-.5 1-.8 1t-1-1.2-.2-2.8L1.1.8" vector-effect="non-scaling-stroke"/><path fill="none" stroke="#999a2f" stroke-linecap="round" stroke-linejoin="round" stroke-width="__RESOLUTION__" d="m1.2.8.2-.7" vector-effect="non-scaling-stroke"/></g><g id="t"><path fill="#99ac32" d="M1.5.1q-.2.3.5 1.2.8.9.8 2.4v.5l-.1 1.2-.3.7-.1.2q-.5 1-.8 1t-1-1.2-.2-2.8L1.1.8z"/><path fill="#83952a" d="M2.9 4.2 4 2.9l1 2.7-1.2.8q-1.1.5-1.3.4t-.1-.7l.3-.7z"/><path fill="#8fa12e" d="m4 2.9 2.2-1.5.6-.3q-.2 0-.2 1.2t-.8 2.4l-.7.8z"/><path fill="none" stroke="#738820" stroke-linecap="round" stroke-linejoin="round" stroke-width="__RESOLUTION__" d="M1.5.1q-.2.3.5 1.2.8.9.8 2.4v.5l-.1 1.2-.3.7-.1.2q-.5 1-.8 1t-1-1.2-.2-2.8L1.1.8" vector-effect="non-scaling-stroke"/><path fill="none" stroke="#646415" stroke-linecap="round" stroke-linejoin="round" stroke-width="__RESOLUTION__" d="m1.2.8.2-.7" vector-effect="non-scaling-stroke"/></g><g id="s"><path fill="#bacd3e" d="M1.5.1q-.2.3.5 1.2.8.9.8 2.4v.5l-.1 1.2-.3.7-.1.2q-.5 1-.8 1t-1-1.2-.2-2.8L1.1.8z"/><path fill="#9eb035" d="M2.9 4.2 4 2.9l1 2.7-1.2.8q-1.1.5-1.3.4t-.1-.7l.3-.7z"/><path fill="#adbf39" d="m4 2.9 2.2-1.5.6-.3q-.2 0-.2 1.2t-.8 2.4l-.7.8z"/><path fill="none" stroke="#8aa028" stroke-linecap="round" stroke-linejoin="round" stroke-width="__RESOLUTION__" d="M1.5.1q-.2.3.5 1.2.8.9.8 2.4v.5l-.1 1.2-.3.7-.1.2q-.5 1-.8 1t-1-1.2-.2-2.8L1.1.8" vector-effect="non-scaling-stroke"/><path fill="none" stroke="#78741a" stroke-linecap="round" stroke-linejoin="round" stroke-width="__RESOLUTION__" d="m1.2.8.2-.7" vector-effect="non-scaling-stroke"/></g><g id="r"><path fill="#b27f27" d="M.7.5 1 .3h.7l.6.5.1.8L2 2l-.5.1h-.1L1 1.8l.3-1L.6.7z"/><path fill="#7e9128" d="M.7.5.6.7h.7l-.4 1 .4.5.1.1-.6.8-.4-1.2-.4-.5L.3 0z"/><path fill="none" stroke="#7b5a1b" stroke-linecap="round" stroke-linejoin="round" stroke-width="__RESOLUTION__" d="m1.5 2.2.5-.1.4-.5-.1-.8-.6-.5H1L.7.5" vector-effect="non-scaling-stroke"/><path fill="none" stroke="#506515" stroke-linecap="round" stroke-linejoin="round" stroke-width="__RESOLUTION__" d="M.7.5.6.7M.5 1.9 0 1.4" vector-effect="non-scaling-stroke"/><path fill="none" stroke="#3e6700" stroke-linecap="round" stroke-linejoin="round" stroke-width="__RESOLUTION__" d="m1 1.8.4.4v.1l.1-.1m-.7.9L.5 1.9M0 1.4.3 0l.4.5" vector-effect="non-scaling-stroke"/></g><g id="q"><path fill="#7e9128" d="M1.5.1q-.2.3.5 1.2.8.9.8 2.4v.5l-.1 1.2-.3.7-.1.2q-.5 1-.8 1t-1-1.2-.2-2.8L1.1.8z"/><path fill="#7e9128" d="M2.9 4.2 4 2.9l1 2.7-1.2.8q-1.1.5-1.3.4t-.1-.7l.3-.7zM4 2.9l2.2-1.5.6-.3q-.2 0-.2 1.2t-.8 2.4l-.7.8z"/><path fill="none" stroke="#7e9128" stroke-linecap="round" stroke-linejoin="round" stroke-width="__RESOLUTION__" d="M1.5.1q-.2.3.5 1.2.8.9.8 2.4v.5l-.1 1.2-.3.7-.1.2q-.5 1-.8 1t-1-1.2-.2-2.8L1.1.8m0 0 .3-.7" vector-effect="non-scaling-stroke"/></g><g id="p"><path fill="#7e9128" d="M.7.5 1 .3h.7l.6.5.1.8L2 2l-.5.1h-.1L1 1.8l.3-1L.6.7z"/><path fill="#7e9128" d="M.7.5.6.7h.7l-.4 1 .4.5.1.1-.6.8-.4-1.2-.4-.5L.3 0z"/><path fill="none" stroke="#7e9128" stroke-linecap="round" stroke-linejoin="round" stroke-width="__RESOLUTION__" d="m1.5 2.2.5-.1.4-.5-.1-.8-.6-.5H1L.7.5m0 0L.6.7M.5 1.9 0 1.4m1 .4.4.4v.1l.1-.1m-.7.9L.5 1.9M0 1.4.3 0l.4.5" vector-effect="non-scaling-stroke"/></g><g id="o"><path fill="#b3c641" d="M1.5.1q-.2.3.5 1.2.8.9.8 2.4v.5l-.1 1.2-.3.7-.1.2q-.5 1-.8 1t-1-1.2-.2-2.8L1.1.8z"/><path fill="#a0b33b" d="M2.9 4.2 4 2.9l1 2.7-1.2.8q-1.1.5-1.3.4t-.1-.7l.3-.7z"/><path fill="#aabd3d" d="m4 2.9 2.2-1.5.6-.3q-.2 0-.2 1.2t-.8 2.4l-.7.8z"/><path fill="none" stroke="#93a832" stroke-linecap="round" stroke-linejoin="round" stroke-width="__RESOLUTION__" d="M1.5.1q-.2.3.5 1.2.8.9.8 2.4v.5l-.1 1.2-.3.7-.1.2q-.5 1-.8 1t-1-1.2-.2-2.8L1.1.8" vector-effect="non-scaling-stroke"/><path fill="none" stroke="#868a28" stroke-linecap="round" stroke-linejoin="round" stroke-width="__RESOLUTION__" d="m1.2.8.2-.7" vector-effect="non-scaling-stroke"/></g><g id="n"><path fill="#889b2b" d="M1.5.1q-.2.3.5 1.2.8.9.8 2.4v.5l-.1 1.2-.3.7-.1.2q-.5 1-.8 1t-1-1.2-.2-2.8L1.1.8z"/><path fill="#748625" d="M2.9 4.2 4 2.9l1 2.7-1.2.8q-1.1.5-1.3.4t-.1-.7l.3-.7z"/><path fill="#7e9128" d="m4 2.9 2.2-1.5.6-.3q-.2 0-.2 1.2t-.8 2.4l-.7.8z"/><path fill="none" stroke="#667b1c" stroke-linecap="round" stroke-linejoin="round" stroke-width="__RESOLUTION__" d="M1.5.1q-.2.3.5 1.2.8.9.8 2.4v.5l-.1 1.2-.3.7-.1.2q-.5 1-.8 1t-1-1.2-.2-2.8L1.1.8" vector-effect="non-scaling-stroke"/><path fill="none" stroke="#595c12" stroke-linecap="round" stroke-linejoin="round" stroke-width="__RESOLUTION__" d="m1.2.8.2-.7" vector-effect="non-scaling-stroke"/></g><g id="m"><path fill="#a4b736" d="M1.5.1q-.2.3.5 1.2.8.9.8 2.4v.5l-.1 1.2-.3.7-.1.2q-.5 1-.8 1t-1-1.2-.2-2.8L1.1.8z"/><path fill="#8b9e2e" d="M2.9 4.2 4 2.9l1 2.7-1.2.8q-1.1.5-1.3.4t-.1-.7l.3-.7z"/><path fill="#99ab31" d="m4 2.9 2.2-1.5.6-.3q-.2 0-.2 1.2t-.8 2.4l-.7.8z"/><path fill="none" stroke="#7a9022" stroke-linecap="round" stroke-linejoin="round" stroke-width="__RESOLUTION__" d="M1.5.1q-.2.3.5 1.2.8.9.8 2.4v.5l-.1 1.2-.3.7-.1.2q-.5 1-.8 1t-1-1.2-.2-2.8L1.1.8" vector-effect="non-scaling-stroke"/><path fill="none" stroke="#6a6916" stroke-linecap="round" stroke-linejoin="round" stroke-width="__RESOLUTION__" d="m1.2.8.2-.7" vector-effect="non-scaling-stroke"/></g><g id="l"><path fill="#91a42e" d="M1.5.1q-.2.3.5 1.2.8.9.8 2.4v.5l-.1 1.2-.3.7-.1.2q-.5 1-.8 1t-1-1.2-.2-2.8L1.1.8z"/><path fill="#7c8e28" d="M2.9 4.2 4 2.9l1 2.7-1.2.8q-1.1.5-1.3.4t-.1-.7l.3-.7z"/><path fill="#87992b" d="m4 2.9 2.2-1.5.6-.3q-.2 0-.2 1.2t-.8 2.4l-.7.8z"/><path fill="none" stroke="#6c821e" stroke-linecap="round" stroke-linejoin="round" stroke-width="__RESOLUTION__" d="M1.5.1q-.2.3.5 1.2.8.9.8 2.4v.5l-.1 1.2-.3.7-.1.2q-.5 1-.8 1t-1-1.2-.2-2.8L1.1.8" vector-effect="non-scaling-stroke"/><path fill="none" stroke="#5f6013" stroke-linecap="round" stroke-linejoin="round" stroke-width="__RESOLUTION__" d="m1.2.8.2-.7" vector-effect="non-scaling-stroke"/></g><g id="k"><path fill="#9d7321" d="M.7.5 1 .3h.7l.6.5.1.8L2 2l-.5.1h-.1L1 1.8l.3-1L.6.7z"/><path fill="#708322" d="M.7.5.6.7h.7l-.4 1 .4.5.1.1-.6.8-.4-1.2-.4-.5L.3 0z"/><path fill="none" stroke="#6d5317" stroke-linecap="round" stroke-linejoin="round" stroke-width="__RESOLUTION__" d="m1.5 2.2.5-.1.4-.5-.1-.8-.6-.5H1L.7.5" vector-effect="non-scaling-stroke"/><path fill="none" stroke="#485c12" stroke-linecap="round" stroke-linejoin="round" stroke-width="__RESOLUTION__" d="M.7.5.6.7M.5 1.9 0 1.4" vector-effect="non-scaling-stroke"/><path fill="none" stroke="#385e00" stroke-linecap="round" stroke-linejoin="round" stroke-width="__RESOLUTION__" d="m1 1.8.4.4v.1l.1-.1m-.7.9L.5 1.9M0 1.4.3 0l.4.5" vector-effect="non-scaling-stroke"/></g><g id="f"><path fill="#795200" d="M5.7 2.4v.4q-.9 1.8-2.1 3v-.1Q1.4 4.4.5 2.5q2.8-4.9 5.2-.1"/><path fill="none" stroke="#312c11" stroke-linecap="round" stroke-linejoin="round" stroke-width="1" d="M5.7 2.4v.4q-.9 1.8-2.1 3v-.1Q1.4 4.4.5 2.5"/></g><path id="b" fill="#241506" fill-opacity=".3" d="m0-3 8.8.9q3.6.9 3.6 2.1T8.8 2L0 3q-5.1 0-8.7-1-3.7-.8-3.6-2-.1-1.2 3.6-2.1z" transform="translate(12.35 2.95)"/><path id="j" fill="none" stroke="#526515" stroke-linecap="round" stroke-linejoin="round" stroke-width="2.3" d="M2.4-16.8q-.2.1-.2 1.3 0 .7-.3 1.5l1.3-.9.6-.3q-.2.1-.3 1t-.7 2l-.3.3 1.4-.3h2l.6.1q-.2 0-.8.8T4-10.1l-.9.2H1.9l-.4-.1v0l.9 1.4 1.6 1 .4.4.4-.3 3.7-3 1.2-.7q-.4.2-.4 2.2 0 1.2-.4 2.4l2-1.5 1-.5q-.4.1-.5 1.7t-1.3 3.2l-.4.5 2.2-.5h3.5l1 .1L15-2.3q-1 1.2-2.8 2l-1.4.3h-2L7.6-.2 6.5.3 3.3.8l-1-.2.6 2 .2.6q.6-1.1 1.1-1 .3 0 1.2.5l-.2-.2Q4.3 1.2 4.7 1q.3-.2 3.2.6 2.7.6 4.3 2.3l2.6 2.6.6.8q-.3-.3-2.5-.6-2.3-.4-4.5-1.6l-.8-.4q.6.8.4 1.8l-.6 2.6-.3.8q.1-.4-1.6-1.4-1-.5-1.6-1.2l-.4.4-.4.5-.4 2.4-.3 1-.6-2.2-.1-.4-.3.2-1.1.3h-1.5l-.7-.2v.3l-.4-.2-.8.3-2.3.3-.7-.1.4 1.5.2.6q.4-1 .8-1 .3 0 .9.5l-.1-.1q-.7-1-.5-1.1l2.4.4q2.2.5 3.3 1.7l2 2 .5.6q-.2-.2-1.9-.5-1.8-.2-3.4-1.2l-.6-.3q.4.7.3 1.4l-.5 2-.2.5q0-.2-1.3-1-1.1-.6-1.6-1.5v.4l-.5 2.7-.1.7-.6-1.6q-.5-1.4-.6-3.1v-.6q-.2.7-.7 1l-.7.7-.4.8q-.6 1.2-.4 1.3l-.4-.2-1.1-1.1q-.4-.4-.3-1.1l-.3.6q-.7 1.5-1.8 2.7l-1.1 1.4.1-.7.5-2.4.1-.5-1.5.4-.6.2 1.2-1.1q.9-1 2-1.7l.2-.3.1-.1-.6-.2-.3-.3-.2.2-1 .8-.8.5-2 .2-1.2-.1.5-.5 1.7-1.4q.6-.6 1.3-.7l-.3-.1q-1.2-.3-1.7-1.1t-.7-.7l.6-.1 1.6-.2-1-1q-.6-1-.9-1l.9-.1 2.7-.1q1 0 1.8.4l-.2-.4-.4-1q-1-.2-1.2 0l.6-.6.4-.3v-.7q.2-1.3 0-1.4l.6.4.8.5.3-.2.2-.2.5-.4.1-.1v-.7 0l-.8-.5-.7-.7-.7-.8-.3-.3h.7l2.2-.3q-.9-.5-1.3-1.3-.8-1.4-1.2-1.3l1-.2 2.8-.1.2-1.4.1-.3-1.1.3-.5.1.9-.9 1.6-1.3.3-.3-.5-.2-.3-.2h0l-.8.7-.7.4-1.7.2-.9-.1.4-.3 1.4-1.2 1-.6-.3-.1q-.9-.2-1.3-.8l-.6-.6.5-.1 1.3-.1-.8-.9q-.5-.8-.7-.8l.6-.1h2.3l1.4.2-.2-.3q-.6-1-.4-2l-.1-1.2.5.3 1.3 1-.7-1.6-.8-2-.2-.6.7 1 1.2 2 .2.4-.1-1v-1.2l.1-.3.5 1.1.6 1.4.6-1.8.3-.7q-.1.3.6 1.1.8 1 .9 2.5v.5l1.2-1.5 2.2-1.8z" transform="translate(19.45 19.15)"/><path id="i" fill="#795200" d="m0 0 6.7.2-.3 2.2Q4 3.8 1.5 4.8z"/><path id="g" fill="#554d1e" d="M9.2-4.6 7.9-8.4l1.5-.4L11-5.5l1.6-.3 1.8-2.9 1 .7-1 2.9 4.2 2.2-.5 1.6-3-.7Q6.9 2.6-1.3 3.3l.8-7.1q4 2 8.9 1.6z" transform="translate(1.3 8.8)"/><path id="e" fill="#000" d="M4.5-2.3 3.8.5l-8.3 1.9L.4-2z" transform="translate(4.5 2.3)"/><use xlink:href="#a" id="h" width="10.6" height="44.6"/><use xlink:href="#b" id="d" width="24.8" height="5.9"/><clipPath id="c"><path d="M1 1h96v74H1z"/></clipPath></defs><g clip-path="url(#c)"><g transform="translate(54.25 70.3)"><use xlink:href="#d" width="24.8" height="5.9" transform="matrix(.6768 0 0 1.4218 -8.85 -4.45)"/><use xlink:href="#e" width="9" height="4.7" transform="matrix(-.9693 .2426 .2426 .9693 6.3 -3.1)"/><use xlink:href="#e" width="9" height="4.7" transform="matrix(-.6622 .3246 -.0365 .9195 -.35 -6.85)"/><use xlink:href="#f" width="6.2" height="6.3" transform="rotate(43.34 11.952 -9.339)scale(.9984)"/><use xlink:href="#g" width="20" height="12.1" transform="rotate(220.807 -5.555 -6.67)scale(.442)"/><use xlink:href="#h" width="10.6" height="44.6" transform="matrix(-1 0 0 1 4.4 -46.95)"/><use xlink:href="#g" width="20" height="12.1" transform="rotate(186.497 -.1 -5.738)scale(-.441 .441)"/><use xlink:href="#i" width="6.7" height="4.8" transform="translate(-3.45 -8.15)"/><use xlink:href="#f" width="6.2" height="6.3" transform="rotate(-3.996 -92.878 29.765)scale(.9973)"/><use xlink:href="#j" width="36.9" height="39.2" transform="matrix(.908 1.0383 1.0561 -.8426 -53.25 -36.25)"/><use xlink:href="#k" width="2.5" height="3" transform="matrix(-.6103 -1.3421 -1.2564 .6461 -36.25 -27.15)"/><use xlink:href="#l" width="6.8" height="7.5" transform="matrix(-.1384 -1.2147 1.1386 -.1433 -38.1 -25.3)"/><use xlink:href="#l" width="6.8" height="7.5" transform="matrix(.4905 -.7753 .7288 .5258 -36.9 -34.55)"/><use xlink:href="#l" width="6.8" height="7.5" transform="matrix(-.6728 -.0347 -.4683 -.793 -23.55 -20.95)"/><use xlink:href="#k" width="2.5" height="3" transform="matrix(-1.5937 .4783 .4542 1.7012 -27.2 -39.8)"/><use xlink:href="#l" width="6.8" height="7.5" transform="matrix(.4253 .8753 -.5598 1.1328 -26.2 -40.75)"/><use xlink:href="#m" width="6.8" height="7.5" transform="matrix(.8352 1.1879 1.111 -.8864 -37.75 -22.65)"/><use xlink:href="#k" width="2.5" height="3" transform="matrix(-.338 -1.1032 -1.0334 .3565 -30.4 -37.45)"/><use xlink:href="#k" width="2.5" height="3" transform="matrix(.6672 -.8985 -.845 -.7147 -17.75 -34.6)"/><use xlink:href="#n" width="6.8" height="7.5" transform="matrix(1.0405 .2437 .2248 -1.1087 -29.5 -15.7)"/><use xlink:href="#o" width="6.8" height="7.5" transform="matrix(-.5625 .6285 .214 1.1114 -28.35 -39.45)"/><use xlink:href="#o" width="6.8" height="7.5" transform="matrix(-.3165 -1.1453 -1.3828 -.4954 -15.05 -19.7)"/><use xlink:href="#m" width="6.8" height="7.5" transform="matrix(.3086 .3142 1.2624 -.2718 -41.65 -25)"/><use xlink:href="#m" width="6.8" height="7.5" transform="matrix(-.7803 -.3103 -1.0557 .7814 -18.95 -31.5)"/><use xlink:href="#k" width="2.5" height="3" transform="matrix(.8412 -1.1329 -1.0654 -.9011 -23.8 -24.9)"/><use xlink:href="#p" width="2.5" height="3" transform="matrix(-.7558 -1.662 -1.5559 .8001 -21.65 -47.95)"/><use xlink:href="#q" width="6.8" height="7.5" transform="matrix(-.1714 -1.5043 1.4101 -.1775 -23.9 -45.65)"/><use xlink:href="#q" width="6.8" height="7.5" transform="matrix(.6075 -.9601 .9025 .6512 -22.45 -57.05)"/><use xlink:href="#q" width="6.8" height="7.5" transform="matrix(-.8332 -.043 -.5799 -.9821 -5.85 -40.25)"/><use xlink:href="#p" width="2.5" height="3" transform="matrix(-1.9735 .5923 .5624 2.1067 -10.4 -63.6)"/><use xlink:href="#q" width="6.8" height="7.5" transform="matrix(.5267 1.0839 -.6933 1.4029 -9.15 -64.8)"/><use xlink:href="#q" width="6.8" height="7.5" transform="matrix(1.0343 1.4711 1.3758 -1.0977 -23.45 -42.45)"/><use xlink:href="#p" width="2.5" height="3" transform="matrix(-.4185 -1.3662 -1.2797 .4414 -14.35 -60.8)"/><use xlink:href="#p" width="2.5" height="3" transform="matrix(.8262 -1.1127 -1.0464 -.885 1.35 -57.25)"/><use xlink:href="#q" width="6.8" height="7.5" transform="matrix(1.2885 .3017 .2784 -1.373 -13.3 -33.85)"/><use xlink:href="#q" width="6.8" height="7.5" transform="matrix(-.6965 .7783 .265 1.3763 -11.85 -63.2)"/><use xlink:href="#q" width="6.8" height="7.5" transform="matrix(-.3919 -1.4183 -1.7124 -.6136 4.65 -38.8)"/><use xlink:href="#q" width="6.8" height="7.5" transform="matrix(.3822 .3891 1.5634 -.3366 -28.3 -45.25)"/><use xlink:href="#q" width="6.8" height="7.5" transform="matrix(-.9663 -.3843 -1.3074 .9677 -.15 -53.35)"/><use xlink:href="#p" width="2.5" height="3" transform="matrix(1.0418 -1.403 -1.3193 -1.1159 -6.2 -45.1)"/><use xlink:href="#r" width="2.5" height="3" transform="matrix(-.9955 -2.1892 -2.0493 1.0539 -27.2 -31.7)"/><use xlink:href="#m" width="6.8" height="7.5" transform="matrix(-.2258 -1.9814 1.8573 -.2337 -30.2 -28.65)"/><use xlink:href="#m" width="6.8" height="7.5" transform="matrix(.8001 -1.2646 1.1888 .8577 -28.25 -43.65)"/><use xlink:href="#m" width="6.8" height="7.5" transform="matrix(-1.0975 -.0566 -.7638 -1.2936 -6.45 -21.6)"/><use xlink:href="#r" width="2.5" height="3" transform="matrix(-2.5995 .7801 .7408 2.7749 -12.4 -52.3)"/><use xlink:href="#m" width="6.8" height="7.5" transform="matrix(.6937 1.4277 -.9132 1.8478 -10.75 -53.85)"/><use xlink:href="#s" width="6.8" height="7.5" transform="matrix(1.3623 1.9377 1.8122 -1.4459 -29.6 -24.4)"/><use xlink:href="#r" width="2.5" height="3" transform="matrix(-.5512 -1.7996 -1.6856 .5815 -17.6 -48.55)"/><use xlink:href="#r" width="2.5" height="3" transform="matrix(1.0883 -1.4657 -1.3783 -1.1658 3.05 -43.9)"/><use xlink:href="#t" width="6.8" height="7.5" transform="matrix(1.6972 .3974 .3667 -1.8085 -16.15 -13.05)"/><use xlink:href="#u" width="6.8" height="7.5" transform="matrix(-.9175 1.0252 .3491 1.8129 -14.35 -51.8)"/><use xlink:href="#u" width="6.8" height="7.5" transform="matrix(-.5162 -1.8682 -2.2556 -.8082 7.35 -19.6)"/><use xlink:href="#s" width="6.8" height="7.5" transform="matrix(.5034 .5125 2.0592 -.4434 -36 -28.1)"/><use xlink:href="#s" width="6.8" height="7.5" transform="matrix(-1.2728 -.5062 -1.7221 1.2746 1.05 -38.8)"/><use xlink:href="#r" width="2.5" height="3" transform="matrix(1.3722 -1.848 -1.7378 -1.4699 -6.85 -27.9)"/><use xlink:href="#j" width="36.9" height="39.2" transform="matrix(.2327 1.3897 -1.2934 .2874 33.25 -61.15)"/><use xlink:href="#k" width="2.5" height="3" transform="matrix(-.6478 -1.3517 1.2668 -.5729 29.75 -41.85)"/><use xlink:href="#l" width="6.8" height="7.5" transform="matrix(-.8413 -.8967 -.8107 .8059 32.3 -42.1)"/><use xlink:href="#l" width="6.8" height="7.5" transform="matrix(-.8936 -.1154 -.0478 .9161 24.55 -47.1)"/><use xlink:href="#l" width="6.8" height="7.5" transform="matrix(.388 -.5536 -.3165 -.8837 26.65 -27.75)"/><use xlink:href="#k" width="2.5" height="3" transform="matrix(1.3465 -.9479 1.0179 1.4612 14.5 -42.9)"/><use xlink:href="#l" width="6.8" height="7.5" transform="matrix(.4057 .9031 1.209 .2924 13.15 -42.65)"/><use xlink:href="#m" width="6.8" height="7.5" transform="matrix(.3917 1.4293 -1.3606 .3024 34.05 -40.1)"/><use xlink:href="#k" width="2.5" height="3" transform="matrix(-.6334 -.9819 .9085 -.5846 18.25 -43.9)"/><use xlink:href="#k" width="2.5" height="3" transform="matrix(-1.0964 -.0558 -.0246 -1.1303 12.6 -32.1)"/><use xlink:href="#n" width="6.8" height="7.5" transform="matrix(-.4551 .9793 -.9842 -.5413 34.25 -29.1)"/><use xlink:href="#o" width="6.8" height="7.5" transform="matrix(.8259 -.0366 .716 .8894 15.5 -43.6)"/><use xlink:href="#o" width="6.8" height="7.5" transform="matrix(-.6787 -.9922 .4739 -1.4127 22.35 -20.35)"/><use xlink:href="#m" width="6.8" height="7.5" transform="matrix(.0496 .4473 -.985 .8203 34.75 -44.7)"/><use xlink:href="#m" width="6.8" height="7.5" transform="matrix(.2439 -.8171 1.2464 -.3268 15.75 -31)"/><use xlink:href="#k" width="2.5" height="3" transform="matrix(-1.3824 -.0704 -.0311 -1.4251 23.85 -30.5)"/><use xlink:href="#p" width="2.5" height="3" transform="matrix(-.8022 -1.674 1.5688 -.7095 4.85 -43.75)"/><use xlink:href="#q" width="6.8" height="7.5" transform="matrix(-1.0419 -1.1105 -1.004 .998 7.95 -44.1)"/><use xlink:href="#q" width="6.8" height="7.5" transform="matrix(-1.1066 -.1429 -.0592 1.1345 -1.6 -50.3)"/><use xlink:href="#q" width="6.8" height="7.5" transform="matrix(.4805 -.6856 -.3919 -1.0944 .95 -26.35)"/><use xlink:href="#p" width="2.5" height="3" transform="matrix(1.6675 -1.1739 1.2605 1.8096 -14 -45.05)"/><use xlink:href="#q" width="6.8" height="7.5" transform="matrix(.5024 1.1184 1.4972 .3621 -15.7 -44.8)"/><use xlink:href="#q" width="6.8" height="7.5" transform="matrix(.485 1.77 -1.6849 .3745 10.2 -41.65)"/><use xlink:href="#p" width="2.5" height="3" transform="matrix(-.7844 -1.216 1.125 -.724 -9.4 -46.3)"/><use xlink:href="#p" width="2.5" height="3" transform="matrix(-1.3578 -.0691 -.0305 -1.3997 -16.35 -31.65)"/><use xlink:href="#q" width="6.8" height="7.5" transform="matrix(-.5636 1.2127 -1.2188 -.6703 10.45 -28)"/><use xlink:href="#q" width="6.8" height="7.5" transform="matrix(1.0228 -.0453 .8866 1.1014 -12.8 -45.95)"/><use xlink:href="#q" width="6.8" height="7.5" transform="matrix(-.8405 -1.2288 .5869 -1.7494 -4.35 -17.05)"/><use xlink:href="#q" width="6.8" height="7.5" transform="matrix(.0614 .5539 -1.2198 1.0158 11.05 -47.3)"/><use xlink:href="#q" width="6.8" height="7.5" transform="matrix(.3021 -1.0119 1.5435 -.4047 -12.5 -30.35)"/><use xlink:href="#p" width="2.5" height="3" transform="matrix(-1.712 -.0871 -.0385 -1.7648 -2.5 -29.75)"/><use xlink:href="#r" width="2.5" height="3" transform="matrix(-1.0566 -2.205 2.0663 -.9345 20.65 -37.65)"/><use xlink:href="#m" width="6.8" height="7.5" transform="matrix(-1.3723 -1.4627 -1.3225 1.3145 24.85 -38.05)"/><use xlink:href="#m" width="6.8" height="7.5" transform="matrix(-1.4575 -.1882 -.078 1.4944 12.15 -46.2)"/><use xlink:href="#m" width="6.8" height="7.5" transform="matrix(.6329 -.903 -.5162 -1.4415 15.6 -14.65)"/><use xlink:href="#r" width="2.5" height="3" transform="matrix(2.1964 -1.5462 1.6604 2.3836 -4.15 -39.3)"/><use xlink:href="#m" width="6.8" height="7.5" transform="matrix(.6618 1.4731 1.9721 .477 -6.35 -39.05)"/><use xlink:href="#s" width="6.8" height="7.5" transform="matrix(.6389 2.3315 -2.2193 .4932 27.7 -34.8)"/><use xlink:href="#r" width="2.5" height="3" transform="matrix(-1.0332 -1.6017 1.4819 -.9536 1.9 -41)"/><use xlink:href="#r" width="2.5" height="3" transform="matrix(-1.7884 -.091 -.0402 -1.8437 -7.25 -21.7)"/><use xlink:href="#t" width="6.8" height="7.5" transform="matrix(-.7424 1.5974 -1.6054 -.8829 28.1 -16.85)"/><use xlink:href="#u" width="6.8" height="7.5" transform="matrix(1.3472 -.0597 1.1679 1.4507 -2.55 -40.5)"/><use xlink:href="#u" width="6.8" height="7.5" transform="matrix(-1.1071 -1.6185 .773 -2.3044 8.65 -2.55)"/><use xlink:href="#s" width="6.8" height="7.5" transform="matrix(.0808 .7296 -1.6067 1.3381 28.85 -42.35)"/><use xlink:href="#s" width="6.8" height="7.5" transform="matrix(.3979 -1.3328 2.0331 -.5331 -2.15 -19.95)"/><use xlink:href="#r" width="2.5" height="3" transform="matrix(-2.255 -.1148 -.0507 -2.3246 11 -19.15)"/></g></g></svg>