<svg xmlns="http://www.w3.org/2000/svg" xmlns:xlink="http://www.w3.org/1999/xlink" width="1090" height="96" viewBox="0 0 1090 96"><defs><use xlink:href="#a" id="b" width="22.9" height="21.6"/><use xlink:href="#b" id="G" width="22.9" height="21.6" transform="matrix(-1 0 0 1 29.95 4.5)"/><use xlink:href="#b" id="D" width="22.9" height="21.6" transform="matrix(-1.06 0 0 1.06 30.65 4)"/><use xlink:href="#b" id="B" width="22.9" height="21.6" transform="matrix(-1.13 0 0 1.13 31.35 3.55)"/><use xlink:href="#b" id="z" width="22.9" height="21.6" transform="matrix(-1.19 0 0 1.19 32.1 3)"/><use xlink:href="#b" id="x" width="22.9" height="21.6" transform="matrix(-1.26 0 0 1.26 32.8 2.5)"/><use xlink:href="#b" id="v" width="22.9" height="21.6" transform="matrix(-1.32 0 0 1.32 33.5 2)"/><use xlink:href="#b" id="t" width="22.9" height="21.6" transform="matrix(-1.39 0 0 1.39 34.2 1.55)"/><use xlink:href="#b" id="r" width="22.9" height="21.6" transform="matrix(-1.45 0 0 1.45 34.9 1)"/><use xlink:href="#b" id="p" width="22.9" height="21.6" transform="matrix(-1.52 0 0 1.52 35.65 .5)"/><use xlink:href="#b" id="n" width="22.9" height="21.6" transform="matrix(-1.58 0 0 1.58 36.35 0)"/><use xlink:href="#c" id="m" width="26.7" height="30.1"/><use xlink:href="#d" id="l" width="20.6" height="15.6"/><use xlink:href="#e" id="k" width="13.1" height="11.3"/><use xlink:href="#f" id="j" width="12.1" height="13.5"/><use xlink:href="#g" id="i" width="14.7" height="4.3"/><clipPath id="h"><path d="M1 1h98v94H1z"/></clipPath><clipPath id="o"><path d="M100 1h98v94h-98z"/></clipPath><clipPath id="q"><path d="M199 1h98v94h-98z"/></clipPath><clipPath id="s"><path d="M298 1h98v94h-98z"/></clipPath><clipPath id="u"><path d="M397 1h98v94h-98z"/></clipPath><clipPath id="w"><path d="M496 1h98v94h-98z"/></clipPath><clipPath id="y"><path d="M595 1h98v94h-98z"/></clipPath><clipPath id="A"><path d="M694 1h98v94h-98z"/></clipPath><clipPath id="C"><path d="M793 1h98v94h-98z"/></clipPath><clipPath id="E"><path d="M892 1h98v94h-98z"/></clipPath><clipPath id="F"><path d="M991 1h98v94h-98z"/></clipPath><g id="a"><path fill="#fff" d="M7.5 0q2 3.1 4 4.9 1.5 1.2 3.9.5Q17 5 20.7 3q-1.6 2.6-2 4.5-.3 1.2.6 2.3 1 1.3 3.6 1.7-1.2 0-2.4.8-1 .6-1.3 1.3-.5 1 .5 2.7.7 1.5 2.7 3.8-6.6-3.5-9.2-1.8-2.1 1.5-2.9 3.3 0-1.7-.3-2.4-.5-2.1-1.8-2.5-3-1-7.4.4.8-.5 2.3-2.6 1-1.2.6-3.1Q3.3 8.7 0 6.2l3.4.4 2.9-.4q1-.3 1.2-6.1z"/><path fill="#35479e" d="M12.2 13.7h-.7l-.6-.4-3.5-6.1q-.2-.3 0-.8l.7-.6L9.5 5l.9-.1q.4 0 .5.5-2.3.8-2.5 1.4 2.5 5.3 3.7 6.9m1.9 4h-.7q-.7-.1-.9-.6t0-1.2q.3-.5 1-.9.3-.2.7-.2-1.2.4-1 1.7 0 1.2 1 1.2z"/><path fill="#578afd" d="M12.2 13.7q-1.3-1.6-3.7-6.9.1-.6 2.4-1.5l2.4 6.6v.8l-.6.7-.3.2zm1.9 1 .5.1q.5.2.8.7.2.5 0 1.1l-.9 1-.4.1q-1 0-1-1.3-.2-1.2 1-1.6"/></g><g id="c"><path fill="#ffe220" d="m15.3 0 10.6 8.8.8 8.1q-.5 5.1-4 8.8l-1.8 1q3-6.8.8-15.4Q19 4.5 15.2 0"/><path fill="#cca00d" d="M15.3 0q3.7 4.6 6.4 11.3 2.2 8.6-.8 15.5L15.3 30l-11-4-.6-4.7L0 17.8l6.3-3.2-1-6.3 3.3.2 2.6-.7v-.1z"/><path fill="none" stroke="#b47a05" stroke-linecap="round" stroke-linejoin="round" stroke-width="__RESOLUTION__" d="m20.9 26.8 1.8-1.1q3.4-3.7 4-8.8l-.8-8.1L15.3 0l-4.1 7.7v.1l-2.6.7-3.3-.2 1 6.2L0 17.9l3.8 3.5.6 4.6 10.9 4.2z" vector-effect="non-scaling-stroke"/></g><g id="d"><path fill="#ccb419" d="M0 1.7Q6.8 0 13.6 0l2.5.4L18.8 3l1.8 3.4L18.9 9Q17.2 1.3 0 1.8"/><path fill="#a3800a" d="m18.9 9-1.2 1.8h-.1l-3 4.8q-6 0-9.7-4.8Q1.8 6.7 0 1.7 17.2 1.2 18.9 9m-1.2 1.7q-4.4-4.3-7.5-5.3 3.1 1 7.5 5.3"/><path fill="none" stroke="#906104" stroke-linecap="round" stroke-linejoin="round" stroke-width="__RESOLUTION__" d="M0 1.7Q6.8 0 13.6 0l2.5.4L18.8 3l1.8 3.4m-6 9.2q-6 0-9.7-4.8Q1.8 6.7 0 1.7m17.7 9 .2.2m-7.7-5.4q3.1 1 7.5 5.3" vector-effect="non-scaling-stroke"/></g><g id="e"><path fill="#6d4f3d" d="M13 .9 11.9 7l-1.7 4.3-3.8-.7-2.1-3.5 5-7.1z"/><path fill="#fff" d="m4.2 7 2 3.6L0 8.5z"/><path fill="none" stroke="#000" stroke-linecap="round" stroke-linejoin="round" stroke-width="__RESOLUTION__" d="m6.3 10.6 3.8.7L11.8 7l1.3-6M9 0 4 7 0 8.6l6.3 2.1" vector-effect="non-scaling-stroke"/></g><g id="f"><path fill="#6d4f3d" d="m7 9.1-1.9 4.4-4-1L0 2.6 4 0z"/><path fill="#fff" d="m5.1 13.5 2-4.4 5 1.8z"/><path fill="none" stroke="#000" stroke-linecap="round" stroke-linejoin="round" stroke-width="__RESOLUTION__" d="m5.1 13.5 2-4.4L4 0 0 2.6l1.2 9.9zl7-2.6-5-1.8" vector-effect="non-scaling-stroke"/></g><path id="g" fill="#382c16" d="M5.8-1.9Q7.9-1.4 8-.5 8 .3 5.9 1 3.8 1.8.7 2l-5.2-.4Q-6.7 1.2-6.7.3q-.1-.8 2-1.6 2.2-.8 5.2-.9z" transform="translate(6.75 2.25)"/></defs><g clip-path="url(#h)"><g transform="translate(70.95 87.4)"><use xlink:href="#i" width="14.7" height="4.3" transform="translate(-7.1 -2.55)"/><use xlink:href="#j" width="12.1" height="13.5" transform="matrix(-.9257 .3752 .5229 .7707 3.55 -11.8)"/><use xlink:href="#k" width="13.1" height="11.3" transform="matrix(1.0601 -.2923 .7853 .7193 -15.75 -3.85)"/><use xlink:href="#l" width="20.6" height="15.6" transform="matrix(.8256 .351 -.6489 1.124 -10.25 -44.35)"/><use xlink:href="#l" width="20.6" height="15.6" transform="matrix(-.3006 -.8492 -.8024 .0626 17.7 2.1)"/><use xlink:href="#l" width="20.6" height="15.6" transform="matrix(.0071 -.9313 -.7781 -.1469 4.85 7.1)"/><use xlink:href="#l" width="20.6" height="15.6" transform="matrix(-.9093 -.2436 .2018 -.7533 21 -8.3)"/><use xlink:href="#l" width="20.6" height="15.6" transform="matrix(-1.0659 -.0748 -.0204 .9353 27.35 -33.35)"/><use xlink:href="#l" width="20.6" height="15.6" transform="matrix(.1492 .9958 -1.1779 .353 10.1 -50.45)"/><use xlink:href="#l" width="20.6" height="15.6" transform="matrix(.726 -.3129 0 1.2156 -21.4 -28.65)"/><use xlink:href="#l" width="20.6" height="15.6" transform="matrix(.6241 -.5529 -.5016 -.5733 -15.25 3.85)"/><use xlink:href="#m" width="26.7" height="30.1" transform="matrix(.8974 .077 -.1423 .9099 -11.6 -35.75)"/><use xlink:href="#n" width="36.4" height="34.2" transform="matrix(-1.5 0 0 1.5 -15.45 -86.4)"/></g></g><g clip-path="url(#o)"><g transform="translate(169.95 87.4)"><use xlink:href="#i" width="14.7" height="4.3" transform="translate(-7.1 -2.55)"/><use xlink:href="#j" width="12.1" height="13.5" transform="matrix(-.9257 .3752 .5229 .7707 3.55 -11.8)"/><use xlink:href="#k" width="13.1" height="11.3" transform="matrix(1.0601 -.2923 .7853 .7193 -15.75 -3.85)"/><use xlink:href="#l" width="20.6" height="15.6" transform="matrix(.8256 .351 -.6489 1.124 -10.25 -44.35)"/><use xlink:href="#l" width="20.6" height="15.6" transform="matrix(-.3006 -.8492 -.8024 .0626 17.7 2.1)"/><use xlink:href="#l" width="20.6" height="15.6" transform="matrix(.0071 -.9313 -.7781 -.1469 4.85 7.1)"/><use xlink:href="#l" width="20.6" height="15.6" transform="matrix(-.9093 -.2436 .2018 -.7533 21 -8.3)"/><use xlink:href="#l" width="20.6" height="15.6" transform="matrix(-1.0659 -.0748 -.0204 .9353 27.35 -33.35)"/><use xlink:href="#l" width="20.6" height="15.6" transform="matrix(.1492 .9958 -1.1779 .353 10.1 -50.45)"/><use xlink:href="#l" width="20.6" height="15.6" transform="matrix(.726 -.3129 0 1.2156 -21.4 -28.65)"/><use xlink:href="#l" width="20.6" height="15.6" transform="matrix(.6241 -.5529 -.5016 -.5733 -15.25 3.85)"/><use xlink:href="#m" width="26.7" height="30.1" transform="matrix(.8974 .077 -.1423 .9099 -11.6 -35.75)"/><use xlink:href="#p" width="36.4" height="34.2" transform="matrix(-1.5 0 0 1.5 -15.45 -86.4)"/></g></g><g clip-path="url(#q)"><g transform="translate(268.95 87.4)"><use xlink:href="#i" width="14.7" height="4.3" transform="translate(-7.1 -2.55)"/><use xlink:href="#j" width="12.1" height="13.5" transform="matrix(-.9257 .3752 .5229 .7707 3.55 -11.8)"/><use xlink:href="#k" width="13.1" height="11.3" transform="matrix(1.0601 -.2923 .7853 .7193 -15.75 -3.85)"/><use xlink:href="#l" width="20.6" height="15.6" transform="matrix(.8256 .351 -.6489 1.124 -10.25 -44.35)"/><use xlink:href="#l" width="20.6" height="15.6" transform="matrix(-.3006 -.8492 -.8024 .0626 17.7 2.1)"/><use xlink:href="#l" width="20.6" height="15.6" transform="matrix(.0071 -.9313 -.7781 -.1469 4.85 7.1)"/><use xlink:href="#l" width="20.6" height="15.6" transform="matrix(-.9093 -.2436 .2018 -.7533 21 -8.3)"/><use xlink:href="#l" width="20.6" height="15.6" transform="matrix(-1.0659 -.0748 -.0204 .9353 27.35 -33.35)"/><use xlink:href="#l" width="20.6" height="15.6" transform="matrix(.1492 .9958 -1.1779 .353 10.1 -50.45)"/><use xlink:href="#l" width="20.6" height="15.6" transform="matrix(.726 -.3129 0 1.2156 -21.4 -28.65)"/><use xlink:href="#l" width="20.6" height="15.6" transform="matrix(.6241 -.5529 -.5016 -.5733 -15.25 3.85)"/><use xlink:href="#m" width="26.7" height="30.1" transform="matrix(.8974 .077 -.1423 .9099 -11.6 -35.75)"/><use xlink:href="#r" width="36.4" height="34.2" transform="matrix(-1.5 0 0 1.5 -15.45 -86.4)"/></g></g><g clip-path="url(#s)"><g transform="translate(367.95 87.4)"><use xlink:href="#i" width="14.7" height="4.3" transform="translate(-7.1 -2.55)"/><use xlink:href="#j" width="12.1" height="13.5" transform="matrix(-.9257 .3752 .5229 .7707 3.55 -11.8)"/><use xlink:href="#k" width="13.1" height="11.3" transform="matrix(1.0601 -.2923 .7853 .7193 -15.75 -3.85)"/><use xlink:href="#l" width="20.6" height="15.6" transform="matrix(.8256 .351 -.6489 1.124 -10.25 -44.35)"/><use xlink:href="#l" width="20.6" height="15.6" transform="matrix(-.3006 -.8492 -.8024 .0626 17.7 2.1)"/><use xlink:href="#l" width="20.6" height="15.6" transform="matrix(.0071 -.9313 -.7781 -.1469 4.85 7.1)"/><use xlink:href="#l" width="20.6" height="15.6" transform="matrix(-.9093 -.2436 .2018 -.7533 21 -8.3)"/><use xlink:href="#l" width="20.6" height="15.6" transform="matrix(-1.0659 -.0748 -.0204 .9353 27.35 -33.35)"/><use xlink:href="#l" width="20.6" height="15.6" transform="matrix(.1492 .9958 -1.1779 .353 10.1 -50.45)"/><use xlink:href="#l" width="20.6" height="15.6" transform="matrix(.726 -.3129 0 1.2156 -21.4 -28.65)"/><use xlink:href="#l" width="20.6" height="15.6" transform="matrix(.6241 -.5529 -.5016 -.5733 -15.25 3.85)"/><use xlink:href="#m" width="26.7" height="30.1" transform="matrix(.8974 .077 -.1423 .9099 -11.6 -35.75)"/><use xlink:href="#t" width="36.4" height="34.2" transform="matrix(-1.5 0 0 1.5 -15.45 -86.4)"/></g></g><g clip-path="url(#u)"><g transform="translate(466.95 87.4)"><use xlink:href="#i" width="14.7" height="4.3" transform="translate(-7.1 -2.55)"/><use xlink:href="#j" width="12.1" height="13.5" transform="matrix(-.9257 .3752 .5229 .7707 3.55 -11.8)"/><use xlink:href="#k" width="13.1" height="11.3" transform="matrix(1.0601 -.2923 .7853 .7193 -15.75 -3.85)"/><use xlink:href="#l" width="20.6" height="15.6" transform="matrix(.8256 .351 -.6489 1.124 -10.25 -44.35)"/><use xlink:href="#l" width="20.6" height="15.6" transform="matrix(-.3006 -.8492 -.8024 .0626 17.7 2.1)"/><use xlink:href="#l" width="20.6" height="15.6" transform="matrix(.0071 -.9313 -.7781 -.1469 4.85 7.1)"/><use xlink:href="#l" width="20.6" height="15.6" transform="matrix(-.9093 -.2436 .2018 -.7533 21 -8.3)"/><use xlink:href="#l" width="20.6" height="15.6" transform="matrix(-1.0659 -.0748 -.0204 .9353 27.35 -33.35)"/><use xlink:href="#l" width="20.6" height="15.6" transform="matrix(.1492 .9958 -1.1779 .353 10.1 -50.45)"/><use xlink:href="#l" width="20.6" height="15.6" transform="matrix(.726 -.3129 0 1.2156 -21.4 -28.65)"/><use xlink:href="#l" width="20.6" height="15.6" transform="matrix(.6241 -.5529 -.5016 -.5733 -15.25 3.85)"/><use xlink:href="#m" width="26.7" height="30.1" transform="matrix(.8974 .077 -.1423 .9099 -11.6 -35.75)"/><use xlink:href="#v" width="36.4" height="34.2" transform="matrix(-1.5 0 0 1.5 -15.45 -86.4)"/></g></g><g clip-path="url(#w)"><g transform="translate(565.95 87.4)"><use xlink:href="#i" width="14.7" height="4.3" transform="translate(-7.1 -2.55)"/><use xlink:href="#j" width="12.1" height="13.5" transform="matrix(-.9257 .3752 .5229 .7707 3.55 -11.8)"/><use xlink:href="#k" width="13.1" height="11.3" transform="matrix(1.0601 -.2923 .7853 .7193 -15.75 -3.85)"/><use xlink:href="#l" width="20.6" height="15.6" transform="matrix(.8256 .351 -.6489 1.124 -10.25 -44.35)"/><use xlink:href="#l" width="20.6" height="15.6" transform="matrix(-.3006 -.8492 -.8024 .0626 17.7 2.1)"/><use xlink:href="#l" width="20.6" height="15.6" transform="matrix(.0071 -.9313 -.7781 -.1469 4.85 7.1)"/><use xlink:href="#l" width="20.6" height="15.6" transform="matrix(-.9093 -.2436 .2018 -.7533 21 -8.3)"/><use xlink:href="#l" width="20.6" height="15.6" transform="matrix(-1.0659 -.0748 -.0204 .9353 27.35 -33.35)"/><use xlink:href="#l" width="20.6" height="15.6" transform="matrix(.1492 .9958 -1.1779 .353 10.1 -50.45)"/><use xlink:href="#l" width="20.6" height="15.6" transform="matrix(.726 -.3129 0 1.2156 -21.4 -28.65)"/><use xlink:href="#l" width="20.6" height="15.6" transform="matrix(.6241 -.5529 -.5016 -.5733 -15.25 3.85)"/><use xlink:href="#m" width="26.7" height="30.1" transform="matrix(.8974 .077 -.1423 .9099 -11.6 -35.75)"/><use xlink:href="#x" width="36.4" height="34.2" transform="matrix(-1.5 0 0 1.5 -15.45 -86.4)"/></g></g><g clip-path="url(#y)"><g transform="translate(664.95 87.4)"><use xlink:href="#i" width="14.7" height="4.3" transform="translate(-7.1 -2.55)"/><use xlink:href="#j" width="12.1" height="13.5" transform="matrix(-.9257 .3752 .5229 .7707 3.55 -11.8)"/><use xlink:href="#k" width="13.1" height="11.3" transform="matrix(1.0601 -.2923 .7853 .7193 -15.75 -3.85)"/><use xlink:href="#l" width="20.6" height="15.6" transform="matrix(.8256 .351 -.6489 1.124 -10.25 -44.35)"/><use xlink:href="#l" width="20.6" height="15.6" transform="matrix(-.3006 -.8492 -.8024 .0626 17.7 2.1)"/><use xlink:href="#l" width="20.6" height="15.6" transform="matrix(.0071 -.9313 -.7781 -.1469 4.85 7.1)"/><use xlink:href="#l" width="20.6" height="15.6" transform="matrix(-.9093 -.2436 .2018 -.7533 21 -8.3)"/><use xlink:href="#l" width="20.6" height="15.6" transform="matrix(-1.0659 -.0748 -.0204 .9353 27.35 -33.35)"/><use xlink:href="#l" width="20.6" height="15.6" transform="matrix(.1492 .9958 -1.1779 .353 10.1 -50.45)"/><use xlink:href="#l" width="20.6" height="15.6" transform="matrix(.726 -.3129 0 1.2156 -21.4 -28.65)"/><use xlink:href="#l" width="20.6" height="15.6" transform="matrix(.6241 -.5529 -.5016 -.5733 -15.25 3.85)"/><use xlink:href="#m" width="26.7" height="30.1" transform="matrix(.8974 .077 -.1423 .9099 -11.6 -35.75)"/><use xlink:href="#z" width="36.4" height="34.2" transform="matrix(-1.5 0 0 1.5 -15.45 -86.4)"/></g></g><g clip-path="url(#A)"><g transform="translate(763.95 87.4)"><use xlink:href="#i" width="14.7" height="4.3" transform="translate(-7.1 -2.55)"/><use xlink:href="#j" width="12.1" height="13.5" transform="matrix(-.9257 .3752 .5229 .7707 3.55 -11.8)"/><use xlink:href="#k" width="13.1" height="11.3" transform="matrix(1.0601 -.2923 .7853 .7193 -15.75 -3.85)"/><use xlink:href="#l" width="20.6" height="15.6" transform="matrix(.8256 .351 -.6489 1.124 -10.25 -44.35)"/><use xlink:href="#l" width="20.6" height="15.6" transform="matrix(-.3006 -.8492 -.8024 .0626 17.7 2.1)"/><use xlink:href="#l" width="20.6" height="15.6" transform="matrix(.0071 -.9313 -.7781 -.1469 4.85 7.1)"/><use xlink:href="#l" width="20.6" height="15.6" transform="matrix(-.9093 -.2436 .2018 -.7533 21 -8.3)"/><use xlink:href="#l" width="20.6" height="15.6" transform="matrix(-1.0659 -.0748 -.0204 .9353 27.35 -33.35)"/><use xlink:href="#l" width="20.6" height="15.6" transform="matrix(.1492 .9958 -1.1779 .353 10.1 -50.45)"/><use xlink:href="#l" width="20.6" height="15.6" transform="matrix(.726 -.3129 0 1.2156 -21.4 -28.65)"/><use xlink:href="#l" width="20.6" height="15.6" transform="matrix(.6241 -.5529 -.5016 -.5733 -15.25 3.85)"/><use xlink:href="#m" width="26.7" height="30.1" transform="matrix(.8974 .077 -.1423 .9099 -11.6 -35.75)"/><use xlink:href="#B" width="36.4" height="34.2" transform="matrix(-1.5 0 0 1.5 -15.45 -86.4)"/></g></g><g clip-path="url(#C)"><g transform="translate(862.95 87.4)"><use xlink:href="#i" width="14.7" height="4.3" transform="translate(-7.1 -2.55)"/><use xlink:href="#j" width="12.1" height="13.5" transform="matrix(-.9257 .3752 .5229 .7707 3.55 -11.8)"/><use xlink:href="#k" width="13.1" height="11.3" transform="matrix(1.0601 -.2923 .7853 .7193 -15.75 -3.85)"/><use xlink:href="#l" width="20.6" height="15.6" transform="matrix(.8256 .351 -.6489 1.124 -10.25 -44.35)"/><use xlink:href="#l" width="20.6" height="15.6" transform="matrix(-.3006 -.8492 -.8024 .0626 17.7 2.1)"/><use xlink:href="#l" width="20.6" height="15.6" transform="matrix(.0071 -.9313 -.7781 -.1469 4.85 7.1)"/><use xlink:href="#l" width="20.6" height="15.6" transform="matrix(-.9093 -.2436 .2018 -.7533 21 -8.3)"/><use xlink:href="#l" width="20.6" height="15.6" transform="matrix(-1.0659 -.0748 -.0204 .9353 27.35 -33.35)"/><use xlink:href="#l" width="20.6" height="15.6" transform="matrix(.1492 .9958 -1.1779 .353 10.1 -50.45)"/><use xlink:href="#l" width="20.6" height="15.6" transform="matrix(.726 -.3129 0 1.2156 -21.4 -28.65)"/><use xlink:href="#l" width="20.6" height="15.6" transform="matrix(.6241 -.5529 -.5016 -.5733 -15.25 3.85)"/><use xlink:href="#m" width="26.7" height="30.1" transform="matrix(.8974 .077 -.1423 .9099 -11.6 -35.75)"/><use xlink:href="#D" width="36.4" height="34.2" transform="matrix(-1.5 0 0 1.5 -15.45 -86.4)"/></g></g><g clip-path="url(#E)"><g transform="translate(961.95 87.4)"><use xlink:href="#i" width="14.7" height="4.3" transform="translate(-7.1 -2.55)"/><use xlink:href="#j" width="12.1" height="13.5" transform="matrix(-.9257 .3752 .5229 .7707 3.55 -11.8)"/><use xlink:href="#k" width="13.1" height="11.3" transform="matrix(1.0601 -.2923 .7853 .7193 -15.75 -3.85)"/><use xlink:href="#l" width="20.6" height="15.6" transform="matrix(.8256 .351 -.6489 1.124 -10.25 -44.35)"/><use xlink:href="#l" width="20.6" height="15.6" transform="matrix(-.3006 -.8492 -.8024 .0626 17.7 2.1)"/><use xlink:href="#l" width="20.6" height="15.6" transform="matrix(.0071 -.9313 -.7781 -.1469 4.85 7.1)"/><use xlink:href="#l" width="20.6" height="15.6" transform="matrix(-.9093 -.2436 .2018 -.7533 21 -8.3)"/><use xlink:href="#l" width="20.6" height="15.6" transform="matrix(-1.0659 -.0748 -.0204 .9353 27.35 -33.35)"/><use xlink:href="#l" width="20.6" height="15.6" transform="matrix(.1492 .9958 -1.1779 .353 10.1 -50.45)"/><use xlink:href="#l" width="20.6" height="15.6" transform="matrix(.726 -.3129 0 1.2156 -21.4 -28.65)"/><use xlink:href="#l" width="20.6" height="15.6" transform="matrix(.6241 -.5529 -.5016 -.5733 -15.25 3.85)"/><use xlink:href="#m" width="26.7" height="30.1" transform="matrix(.8974 .077 -.1423 .9099 -11.6 -35.75)"/></g></g><g clip-path="url(#F)"><g transform="translate(1060.95 87.4)"><use xlink:href="#i" width="14.7" height="4.3" transform="translate(-7.1 -2.55)"/><use xlink:href="#j" width="12.1" height="13.5" transform="matrix(-.9257 .3752 .5229 .7707 3.55 -11.8)"/><use xlink:href="#k" width="13.1" height="11.3" transform="matrix(1.0601 -.2923 .7853 .7193 -15.75 -3.85)"/><use xlink:href="#l" width="20.6" height="15.6" transform="matrix(.8256 .351 -.6489 1.124 -10.25 -44.35)"/><use xlink:href="#l" width="20.6" height="15.6" transform="matrix(-.3006 -.8492 -.8024 .0626 17.7 2.1)"/><use xlink:href="#l" width="20.6" height="15.6" transform="matrix(.0071 -.9313 -.7781 -.1469 4.85 7.1)"/><use xlink:href="#l" width="20.6" height="15.6" transform="matrix(-.9093 -.2436 .2018 -.7533 21 -8.3)"/><use xlink:href="#l" width="20.6" height="15.6" transform="matrix(-1.0659 -.0748 -.0204 .9353 27.35 -33.35)"/><use xlink:href="#l" width="20.6" height="15.6" transform="matrix(.1492 .9958 -1.1779 .353 10.1 -50.45)"/><use xlink:href="#l" width="20.6" height="15.6" transform="matrix(.726 -.3129 0 1.2156 -21.4 -28.65)"/><use xlink:href="#l" width="20.6" height="15.6" transform="matrix(.6241 -.5529 -.5016 -.5733 -15.25 3.85)"/><use xlink:href="#m" width="26.7" height="30.1" transform="matrix(.8974 .077 -.1423 .9099 -11.6 -35.75)"/><use xlink:href="#G" width="36.4" height="34.2" transform="matrix(-1.5 0 0 1.5 -15.45 -86.4)"/></g></g></svg>