<svg xmlns="http://www.w3.org/2000/svg" xmlns:xlink="http://www.w3.org/1999/xlink" width="2369" height="68" viewBox="0 0 2369 68"><defs><g id="c"><path fill="#000" fill-opacity=".2" d="M4.4 5.7q1-3.6-4 2.6L5.3.5 6 .2V0l.6.7-.2.7z"/><path fill="none" stroke="#000" stroke-linecap="round" stroke-linejoin="round" stroke-opacity=".4" stroke-width="__RESOLUTION__" d="m4.4 5.7 2-4.1.3-.8-.5-.7H6M4.4 5.8Q2.2 10 1.9 11.4q-.4 2.1-1.8 2.5" vector-effect="non-scaling-stroke"/></g><g id="ai"><path fill="#e3b30f" d="m7.3.3.6-.3 2.2.6 1.9 1v.3l1.8 3.7-1.2.6-4-.3-4.3 2.9-.4-.2v-.1l-.6-3-1.5-.8L.3 6.4v.2L0 6.4l.9-2.5 2.9-1.6z"/><path fill="#c90" d="m3.8 2.3-.3-.8L7.3.3z"/></g><g id="f"><path fill="#3c2305" fill-opacity=".2" d="M4.4 5.7q1-3.6-4 2.6L5.3.5 6 .2V0l.6.7-.2.7z"/><path fill="none" stroke="#3c2305" stroke-linecap="round" stroke-linejoin="round" stroke-opacity=".4" stroke-width="__RESOLUTION__" d="m4.4 5.7 2-4.1.3-.8-.5-.7H6M4.4 5.8Q2.2 10 1.9 11.4q-.4 2.1-1.8 2.5" vector-effect="non-scaling-stroke"/></g><g id="ak"><path fill="#966a0a" d="m7.3.3.6-.3 2.2.6 1.9 1v.3l1.8 3.7-1.2.6-4-.3-4.3 2.9-.4-.2v-.1l-.6-3-1.5-.8L.3 6.4v.2L0 6.4l.9-2.5 2.9-1.6z"/><path fill="#8d5f05" d="m3.8 2.3-.3-.8L7.3.3z"/></g><g id="al"><path fill="#9b927d" d="m14.9 20.2-.1-.1z"/><path fill="#acaea6" d="m7.8 13.5-1.5.7zM5.9 16l-.5.3-.4-3.2 3.6-2.5.1 1.2.3 2.4-.5.3z"/><path fill="#000" d="m5.9 16.2 2.6-1.6.4 1.5.2.3-2.8 1.5-.1-.4v-.1z"/><path fill="#4e453a" d="M9.1 16.4q.1.7-.6 1.5-.8.7-.7.8l.2.3-1 .8H5l1.3-1.9z"/><path fill="none" stroke="#000" stroke-linecap="round" stroke-linejoin="round" stroke-opacity=".4" stroke-width="__RESOLUTION__" d="m6.3 14.2 1.5-.7m.7 1.1.4-.3-.2-2.4v0l-.1-1.2L5 13.2l.4 3.3.5-.4zl.4 1.6.2.2q.1.7-.6 1.5-.8.7-.7.8l.2.3v0l.4-.4m-3.3 1.2 1.2-1.9-.1-.4v-.1l-.3-1.2" vector-effect="non-scaling-stroke"/><path fill="#cdceca" d="m7.5 18.7.9-.6h.1l-.3 1.6-2.7 2.2-1.3-.8L5 20z"/><path fill="none" stroke="#000" stroke-linecap="round" stroke-linejoin="round" stroke-opacity=".4" stroke-width="__RESOLUTION__" d="m8.4 18.1-.3 1.6-2.7 2.2-1.3-.7L5 20l2.5-1.3" vector-effect="non-scaling-stroke"/><path fill="#acaea6" d="m12.3 11.9-.6.2-.3-3.2 3.5-2.5.1 1.2.3 2.4-.5.3zM14 9l-1.5.8z"/><path fill="#000" d="m12.3 11.9 2.5-1.6.5 1.5.2.3-2.8 1.5-.2-.4v-.1z"/><path fill="#4e453a" d="M15.5 12.1q0 .7-.7 1.5-.8.7-.6.8l.2.2-1 .9h-2l1.3-1.9z"/><path fill="none" stroke="#000" stroke-linecap="round" stroke-linejoin="round" stroke-opacity=".4" stroke-width="__RESOLUTION__" d="m14.8 10.3.5-.3-.2-2.4v0l-.2-1.2-3.5 2.5.3 3.3.6-.3zl.5 1.6.2.2q0 .7-.7 1.5-.7.7-.6.8l.2.3v0l.4-.4m-2.1-.7-.2-.4v-.1l-.2-1.2m-.9 3.6 1.3-1.9m-.1-3.7 1.5-.7" vector-effect="non-scaling-stroke"/><path fill="#cdceca" d="m14.8 13.8-.3 1.6-2.6 2.2-1.4-.7.8-1.2 2.5-1.3z"/><path fill="none" stroke="#000" stroke-linecap="round" stroke-linejoin="round" stroke-opacity=".4" stroke-width="__RESOLUTION__" d="m14.8 13.8-.3 1.6-2.6 2.2-1.4-.7.8-1.2 2.5-1.3" vector-effect="non-scaling-stroke"/><path fill="#e3d0a5" d="M12.6 4.3q1.5-2.5 4.2-4l.5-.2q.8-.2 1.9.4 1.5.8 2.4 2.7.8 1.4 1 3Q20.3 8.5 18 8l-.6-1.2-.1-.1-1.5-1.9Q14.4 3.4 13 4z"/><path fill="#93876c" d="M22.6 6.2v.6q0 1.8-1 2.4l-.2.2-.5.1-1.9.3h-.1l-.3-.6-.6-1.1q2.3.4 4.6-2m-3.7 3.7h.1z"/><path fill="#9b927d" d="m13.5 14-.4.1z"/><path fill="#000" d="M18.9 9.9q-1.5 1.9-2.5 1.7l-.2-1.2-.4-1.2L18 8.1l.6 1.1zm-6.6 3.6q-2.1 1.4-3.1 1.3l.5-1.2v-.2l.1-.4v-.2l-.2-.5 2.4-1.2.1 1.3z"/><path fill="#80755e" d="M16.4 11.6h-.1l-.3.3.1.4-1.5 1.5-1.1.3h-.4l-.8-.2v-.4l-.2-1.1-.2-1.3q1.7.3 3.8-1.9l.4 1.2zm-6.9 2.1q-.3 1-.9 2t-2.2 1.6q.6-.7.6-2v-1l-.3-1-.7-1.6L5 10 3.5 9q-1.3-.7-2.3-.2l-.2.1q-1 .7-1 2.5T1 15l1.2 1.6q.6.6 1.3 1l.4.2 1.6.1.9-.6q.5-.7.5-2v-1l2.6-2 .1.5v.6zm-5.9 1.9q1.6 0 1.2-2l-1-1.7q-.6-.7-1-.7-.7-.1-1.1.6-.4 1.7.6 3.6L4 17.8l-1.7-2.4q-1-1.9-.6-3.6.4-.7 1-.6t1 .7L5 13.6q.3 2-1.3 2"/><path fill="#b6ae9e" d="M9.7 13.7h-.2l.2-.3.1-.3v-.3l-.2.6zm-3.2 3.6-.5.4-.4.3z"/><path fill="#b3a482" d="M1.3 8.8q1.4-1.6 4.2-.7 1.2.1 2 .7l.7.6 1 1.5.4 1.4-2.7 2-.2-1-.7-1.6L5 10 3.5 9q-1.3-.7-2.3-.2"/><path fill="#4e433a" d="m5.5 8 2.2-1.4q1.4 0 2.5.9l.4.5-2.4 1.4-.7-.6q-.9-.6-2-.7m6-3.3 1.1-.5.5-.2q1.3-.6 2.7.8l-2 1.3-.4-.3q-.9-.7-1.9-1.1m5.7 2 .2.1.6 1.2-2.2 1.1-.7-1.3zm-8 4.1 2.4-1.2.4 1.4-2.3 1.2z"/><path fill="#c5b58f" d="M7.7 6.6q1-1.3 3.8-1.8 1 .4 1.9 1l.4.3L15 7.9l.7 1.4q-2.2 2.2-3.9 1.9l-.4-1.4-.9-1.7-.4-.5q-1.1-1-2.5-1"/><path fill="#928d7e" d="m15.9 4.9 1.3 1.9-2 1-1.4-1.6zM10.6 8l1 1.7L9 10.9l-.9-1.5z"/><path fill="none" stroke="#000" stroke-linecap="round" stroke-linejoin="round" stroke-opacity=".4" stroke-width="__RESOLUTION__" d="M12.6 4.3q1.5-2.5 4.2-4l.5-.2q.8-.2 1.9.4 1.5.8 2.4 2.7.8 1.4 1 3v.6q0 1.8-1 2.4l-.3.2-.5.1-1.8.3h-.1v.1m-2.6 1.8-.2.6-1.5 1.6-1.1.3h-.4v0l-.8-.3v-.4l-.1-1.1-.2-1.3-.4-1.4-1-1.7-.4-.5q-1.1-1-2.5-1L5.5 8.2q-2.8-.9-4.2.7l-.2.1q-1 .7-1 2.5t1 3.6l1.2 1.6q.6.6 1.3 1l.4.2 1.6.1.4-.2.5-.4q1.4-.6 2.1-1.6t.9-2h.2l-.5 1.1M7.7 6.6q1-1.3 3.8-1.8l1.1-.5.5-.2q1.3-.6 2.7.8l1.4 1.9.1.1.7 1.2.6 1.1.2.6h.1m-3.1-.6.3 1.2.3 1.2m-1.2-3.7.5 1.3m-.6-1.3L13.7 6l-.3-.3q-.9-.7-1.9-1M8.2 9.4l1 1.5.4 1.4.1.5.1.3-.2.3v.3m-2.7.6-.2-1-.7-1.6L5 10 3.5 9q-1.3-.7-2.3-.2m4.2-.7q1.2.1 2 .7l.7.6M4 17.8l-1.7-2.4q-1-1.9-.6-3.6.4-.7 1-.6t1 .7L5 13.6q.3 2-1.3 2M7 14.3l.1 1q0 1.3-.5 2l-.9.7m4.2-5.2-.2.6-.1.3" vector-effect="non-scaling-stroke"/></g><g id="m"><path fill="#000" fill-opacity=".3" d="M11.8 6.5q.8 2.7.5 5.3Q9.2 4.5 6.5 10 5 7.8 2.7 7.4 6 5.7 7.6 3q2.8 1 4.1 3.1z"/><path fill="none" stroke="#000" stroke-linecap="round" stroke-linejoin="round" stroke-opacity=".4" stroke-width="__RESOLUTION__" d="m.1 7.5 2.6-.1q2.4.5 3.8 2.6 2.7-5.5 5.8 1.8.3-2.6-.5-5.3l-.1-.4q-1-2.8-4.3-5.5L6.9.5V1l-.9.3q-.6 0-.9-.4-.2-.3 0-.8l-.7.7Q5 4.5 1.6 5.9.8 3.8.1 6.2" vector-effect="non-scaling-stroke"/></g><g id="j"><path fill="#e3e2ce" d="m.1 1.9.1-.3.3-1L.6 0h.2l.1.2.8 1.2.1.5.1.2v.6l-.9.2q-.6 0-.9-.3-.2-.2 0-.7"/><path fill="#fff" d="m0 1.9.1-.1z"/></g><g id="u"><path fill="#2d311d" fill-opacity=".3" d="M11.8 6.5q.8 2.7.5 5.3Q9.2 4.5 6.5 10 5 7.8 2.7 7.4 6 5.7 7.6 3q2.8 1 4.1 3.1z"/><path fill="none" stroke="#2d311d" stroke-linecap="round" stroke-linejoin="round" stroke-opacity=".4" stroke-width="__RESOLUTION__" d="m.1 7.5 2.6-.1q2.4.5 3.8 2.6 2.7-5.5 5.8 1.8.3-2.6-.5-5.3l-.1-.4q-1-2.8-4.3-5.5L6.9.5V1l-.9.3q-.6 0-.9-.4-.2-.3 0-.8l-.7.7Q5 4.5 1.6 5.9.8 3.8.1 6.2" vector-effect="non-scaling-stroke"/></g><g id="r"><path fill="#878b6f" d="m.1 1.9.1-.3.3-1L.6 0h.2l.1.2.8 1.2.1.5.1.2v.6l-.9.2q-.6 0-.9-.3-.2-.2 0-.7"/><path fill="#929682" d="m0 1.9.1-.1z"/></g><g id="B"><path fill="#97793c" d="M10.9 4.5h.3q.6.1.8.6v.4h-.2v.6l-.1-.1-.7-.3V5z"/><path fill="none" stroke="#000" stroke-linecap="round" stroke-linejoin="round" stroke-opacity=".4" stroke-width="__RESOLUTION__" d="m11.9 6.1-.3-.1-.6-.3m0-.2V5l-.1-.5" vector-effect="non-scaling-stroke"/><path fill="#2d3029" d="M1.9 1.9v-.5L4.8 1h.6l2.7.2.9.4q.6 0 1.2.4v.9l-1.6-.6-1-.2-2.7-.3h-.5l-2.6.5z"/><path fill="#d1d6cf" d="m10 2.9.2-.9-1.3-.4-.9-.4L5.3 1h-.6L2 1.4l-.1.5-.3-.1-.1-.4.3-.6.6-.5L9 0l-.2.2.3.2.3.1.8.3.9-.1 1 .5q-.1 2.8-1 5.3L9.7 4.1zm.2-1.2V2zm.3 6.2-.3.6h-.1l-.9-2.3.3-.7zM0 4.9l.2-.4.2.2.5.2.4-.2q.1-.2-.3-.5V4l.1.1 1.9.7.3.1 2.4.7 1 .4 2.3.6.8 1.9-3.5-1.4-1.1-.4L3 6l-.2-.2zm1.7-3.4.3-.1z"/><path fill="#5b6153" d="m1.7 2.4 2.6-.5h.5l2.8.2.9.2 1.5.6-.2 1.2-.4 1.4-.2.7-.1.5-2.3-.6-1-.3L3.4 5l-.3-.1-1.8-.7z"/><path fill="#fff" d="m9.8 4 1.3 2.5-.6 1.4-1-2.4zM11.1.8l-.9.1-.8-.2L9 .4 8.9.2V0q1.1.2 2.2.7M.2 4.5l.6-.4H1q.4.3.3.6l-.4.2-.6-.3zm9.9 4-.3.1-.7-2 .1-.4z"/><path fill="#867f6d" d="m10.2 8.5-.4.4-.4.1L6 8l-1.2-.5-2.1-.9h-.2l-1.4-.8-.4-.2q-.1-.2-.6-.2L0 5l2.8.9.2.2 2.3.8 1.1.4 3.5 1.4h.2zM1 6.3H.8L.4 6h.4z"/><path fill="none" stroke="#000" stroke-linecap="round" stroke-linejoin="round" stroke-opacity=".4" stroke-width="__RESOLUTION__" d="m10 2.9.2-.9-1.3-.4-.9-.4L5.3 1h-.6L2 1.4l-.1.5-.2.5-.4 1.8h-.1l-.1-.1H.9l-.6.4H.2l-.2.4.2.6q.5-.1.6.2v.2H.6l.4.5v-.1l.3-.4 1.4.7h.2l2.1 1 1.2.4 3.3 1h0l.4-.1.4-.4v0l.3-.6.6-1.4Q12 4 12 1.2l-1-.5Q10 .2 8.9 0L2.4.4l-.6.4-.3.6v.4h.3M10 3l-.2 1.2-.4 1.4-.2.7-.1.5v0l-2.3-.6-1-.3L3.4 5l-.3-.1-1.8-.7M10.2 2v-.3m0 6.8-.2.1-3.5-1.4-1.1-.4L3 6l-.2-.2L0 4.9m2-3.5h-.3M.9 6v.3m-.1-.6.4.2" vector-effect="non-scaling-stroke"/><path fill="#fff" fill-opacity=".2" d="M7 1.9 6 4l-.8 1.5 1.2.3v-.2L8 2.1l.4-.8-.8-.2zM4.3.8l-.4.9-1.1 2.6-.1.3.4.2v-.3l1.2-2.7v-.2l.6-.9z"/><path fill="#e0ab47" d="M10.2 4.2q-.2-.5.3-.9v-.1l.1.5.7.5.4.2.4.3v.1q.3.5-.1.8h-.2.2V5l-.3-.4-.5-.2h-.3l-.5-.1z"/><path fill="#f7e674" d="m10.6 3.2 1-.1.3.1-.1.3h-.4v.3l.3.3h.4v-.3l.5.7-.2.3h-.2l-.1-.1-.4-.3-.4-.2-.7-.5z"/><path fill="#c3a744" d="m11.9 3.2.2.1.6.8v.1q.7 1 0 1.7h-.2l-.4-.1-.1-.3q.4-.2.2-.7h.2l.2-.3-.4-.7-.1-.1-.2-.2h-.1z"/><path fill="#97793c" d="m12.6 6-.7.1v-.5h.2l.1.2z"/><path fill="#000" fill-opacity=".3" d="m11.7 4.7-.1.4-.1.2-.2-.3-.7-.1-.4-.1q-.2-.1 0-.6l.2.2.5.2h.3z"/><path fill="#fcfbf9" d="m12.2 3.8-.1.3h-.4l-.3-.2v-.4h.4l.3.2z"/><path fill="none" stroke="#000" stroke-linecap="round" stroke-linejoin="round" stroke-opacity=".4" stroke-width="__RESOLUTION__" d="M10.2 4.2q-.2-.5.3-.9v-.1l1.2-.1.2.1.2.1.6.8v.1q.7 1 0 1.7h-.1l-.1.1-.7.1m0-.6h.2v-.4l-.3-.4-.5-.2h-.3l-.5-.1-.2-.2" vector-effect="non-scaling-stroke"/></g><g id="A"><path fill="#fcfbdc" d="m3.9.1.5.7v1.5Q2.5 3 .2 1.4L.5.6Q2.2 0 3.9.1"/><path fill="#c1b29d" d="M4.4 2.3q-.2 1.1-1.3 2.2h-.9L.1 2l.2-.6q2.2 1.7 4.1.9"/><path fill="none" stroke="#4a4b27" stroke-linecap="round" stroke-linejoin="round" stroke-width="__RESOLUTION__" d="m3.9.1.5.7v1.5q-.2 1.1-1.3 2.2h-.9" vector-effect="non-scaling-stroke"/><path fill="none" stroke="#b7b066" stroke-linecap="round" stroke-linejoin="round" stroke-width="__RESOLUTION__" d="M2.2 4.5.1 2" vector-effect="non-scaling-stroke"/></g><g id="z"><path fill="#ffc" fill-opacity=".3" d="M15.8 2.4v-.1q-2-2.3-6-2.1 4-.7 6 2v.1z"/><path fill="#ffc" fill-opacity=".5" d="m10.6 4 .6.6L9 6.2l-1-.6zM5.7 8.3l.2.1-.5.4-.9-.6.4-.2z"/><path fill="#000" fill-opacity=".3" d="m11.4 3.5-.5-1zm0 1.9 1.4-1.7zl.2 3.9zm-5.1 4.7v2.4l-1.9 6.4 1.9.4v2.6q-3.4 2.5-6.2-.5L3.6 9.2z"/><path fill="none" stroke="#000" stroke-linecap="round" stroke-linejoin="round" stroke-opacity=".4" stroke-width="__RESOLUTION__" d="M11.4 3.5 9.7 0M12 4.7l-.6.7.2 4q2.7-3 3.9-6.4l.2-.7m-4.3 3.1-5.1 4V22q-3.4 2.5-6.2-.5l3.7-13" vector-effect="non-scaling-stroke"/></g><g id="I"><path fill="#2c2f28" d="m6.5.8.3-.2Q9.2 3 9 6.5l-.2.1q-2.3 3.7-4.5 4.6l-.9.2q-1.9-1.6-1.8-4 .1-2.2 1.8-4.2 1.8-2 3.1-2.4"/><path fill="none" stroke="#000" stroke-linecap="round" stroke-linejoin="round" stroke-opacity=".4" stroke-width="__RESOLUTION__" d="M6.5.8Q5.2 1.3 3.4 3 1.7 5 1.6 7.4t1.8 3.9l.9-.2q2.2-.9 4.6-4.6v-.1Q9.3 3 6.9.7z" vector-effect="non-scaling-stroke"/><path fill="#d1d6cf" d="m5.4 2-.2-.2-.3-.2q-1.2.9-1.5 2.2 1.1-.6 2-1.8m0-2h1.1q3.2 2.6 3 5.8l-.2 1.1q-1.7 4.4-3.5 4.4l-1.5.2h-.4l-.5-.3-.2-.2 2.5-1.7q1.2-1.1 1.6-2.7v-.2q.4-2-1.6-3.5-1.5 1.2-2.5 1.6h-.3l.2-1.2Q4.6.1 5.4 0"/><path fill="#fefefe" d="M4.8 1.6h.3l.2.3.1.2q-1 1.1-2.1 1.6.2-1.3 1.5-2.1"/><path fill="none" stroke="#000" stroke-linecap="round" stroke-linejoin="round" stroke-opacity=".4" stroke-width="__RESOLUTION__" d="M5.4 0q-.8.2-2.3 3.3l-.2 1.2h.3q1-.4 2.4-1.6 2.1 1.5 1.7 3.5v.3q-.4 1.5-1.6 2.6L3 11l.3.2.5.3h.4l1.5-.2q1.8 0 3.5-4.4l.1-1.1q.3-3.2-3-5.7L6 0v0z" vector-effect="non-scaling-stroke"/><path fill="#000" fill-opacity=".3" d="M5.9 2.7q1.3 1 1.6 2.2.5 1.2-.2 2.6t-2 2.3Q3 11.6 3.2 11l2.4-1.7Q7 8.2 7.4 6.6v-.1q.4-2.1-1.6-3.6z"/><path fill="#900" d="m1.9 8.8.5.5q-.8-.2-.9 0l-.3.8-.2 1-.1-.4-.6-.9Q.1 9 .7 8.3l.4-.5q.2-.2.5-.2l.1.1z"/><path fill="none" stroke="#000" stroke-linecap="round" stroke-linejoin="round" stroke-opacity=".4" stroke-width="__RESOLUTION__" d="m2.4 9.4-.5-.7-.1-1-.2-.1q-.3 0-.5.2l-.4.5q-.6.8-.4 1.5l.6.9" vector-effect="non-scaling-stroke"/><path fill="#900" d="m2.2 9.1-.6.3-.2.3.1.3.3.2 1.1.3q.2.1.4-.2l.5-.6h.3v.3l-.3.6.8.2.9-.5.3-.3v.5l-.1.4.9-.2.2-.4V10H7l.7-.2.8-.5h.2l.4.2v.5q0 .6-.6 1l-1.2.2H7l-.9.3H3.7q-.8.1-1-.4l-1-.1-.8-.4v-.1l.2-.5v-.3l.3-.4.6-.2z"/><path fill="#c60" d="m1.7 9.4.5-.3.8.5.8.1-.5.5q-.2.4-.4.3l-1.1-.3-.3-.3-.1-.2zm2.6.3 1.4.3h.1l-.3.4-1 .3-.7-.1.3-.6v-.2zm2.6.4-.1.2-.2.4-1 .2.2-.4v-.4z"/><path fill="none" stroke="#000" stroke-linecap="round" stroke-linejoin="round" stroke-opacity=".4" stroke-width="__RESOLUTION__" d="m2.2 9.1.8.5.8.1h.5l1.4.2h0l.1.1v0H7l.7-.2.8-.5h.2l.4.2v.5q0 .6-.6 1l-1.2.2H7l-.9.3H3.7q-.8.1-1-.4l-1-.1-.8-.4v-.1l.2-.5v-.2h0v-.1l.3-.4.6-.2zm1.6.7q.1.1-.2.6L3 11l-.3.1m3.1-1v.5l-.1.3-.3.2-.7.4m2.6-.2.4-.4v-.5L7 10" vector-effect="non-scaling-stroke"/></g><g id="H" transform="translate(4.4 7.1)"><use xlink:href="#a" width=".6" height="2.5" transform="translate(-4.4 4.4)"/><use xlink:href="#b" width="8.6" height="13.9" transform="translate(-4.3 -7.05)"/><use xlink:href="#c" width="6.8" height="14.1" transform="translate(-2.25 -7.1)"/></g><g id="N"><path fill="none" stroke="#000" stroke-linecap="round" stroke-linejoin="round" stroke-opacity=".4" stroke-width="__RESOLUTION__" d="M8.9 2.6 8 5.9l-.2.1 4 .3 1.2-.6L11.2 2v-.3L9.4.7 7.1.1l-.5.3-3.6 2-.2-.8L6.6.4M3 8.7l.5.2L7.8 6" vector-effect="non-scaling-stroke"/><path fill="#ffc" fill-opacity=".3" d="M4.1 5.3 1 3.6 6 .8l1.6.5L8 3z"/><path fill="#000" fill-opacity=".2" d="m8 3.1.9-.5h2.7l1.5 3-1.2.7L7.8 6 3.6 8.9 3 8.7v-.1l-.5-2.5L4 5.3z"/><path fill="#ffc" fill-opacity=".5" d="m2 5.7-.2.8H0l1-1.1z"/><path fill="#2c2f28" d="m9 2.4-.3 1.9q-1.6.4-3.3 1.4V4.4l-.7-.6h.6q1.6-1 3.6-1.5"/><path fill="#929590" d="m8.8 4.3.3.5q-2 .4-3.6 1.3l-.1-.4q1.7-1 3.3-1.4M2 3l.2-.5.5.3z"/><path fill="#d1d6cf" d="m9.1 4.8-.2 1.6-3 1.2v-.2l-.4-1.3q1.6-1 3.6-1.3"/><path fill="#000" fill-opacity=".3" d="m5.9 7.4-1 .7-.6-3.5L2 3l.7-.2 2 1 .7.6v1.3l.1.4z"/><path fill="#5b6153" d="m2.2 2.5-.1-.1Q3.7 1 5.3.3l3.7 2q-2 .5-3.7 1.5h-.6l-2-1z"/><path fill="none" stroke="#000" stroke-linecap="round" stroke-linejoin="round" stroke-opacity=".4" stroke-width="__RESOLUTION__" d="m9 2.4-.3 1.9.4.5-.2 1.6-3 1.2v-.2l-.4-1.3-.2-.4.1-1.3-.7-.6-2-1-.5-.4h-.1Q3.7 1 5.3.2z" vector-effect="non-scaling-stroke"/><path fill="none" stroke="#000" stroke-linecap="round" stroke-linejoin="round" stroke-opacity=".3" stroke-width="__RESOLUTION__" d="m5.9 7.4-1 .7M2 3l.3-.5M2 3l.8-.2" vector-effect="non-scaling-stroke"/></g><g id="L"><path fill="#000" d="M.5 5.9 1.9 4l1.5.8L4 8h-.1L.1 7.8l.4-1.7z"/><path fill="none" stroke="#000" stroke-linecap="round" stroke-linejoin="round" stroke-opacity=".4" stroke-width="__RESOLUTION__" d="M3.3 2.3 1.8 3M6.3.3 5.5 0" vector-effect="non-scaling-stroke"/><path fill="none" stroke="#6b4b01" stroke-linecap="round" stroke-linejoin="round" stroke-width="__RESOLUTION__" d="M.5 6.1 0 5.9l1-2.6M.5 6.2V6H.2" vector-effect="non-scaling-stroke"/></g><g id="P"><path fill="#4d3514" d="m6.5.8.3-.2Q9.2 3 9 6.5l-.2.1q-2.3 3.7-4.5 4.6l-.9.2q-1.9-1.6-1.8-4 .1-2.2 1.8-4.2 1.8-2 3.1-2.4"/><path fill="none" stroke="#3c2305" stroke-linecap="round" stroke-linejoin="round" stroke-opacity=".4" stroke-width="__RESOLUTION__" d="M6.5.8Q5.2 1.3 3.4 3 1.7 5 1.6 7.4t1.8 3.9l.9-.2q2.2-.9 4.6-4.6v-.1Q9.3 3 6.9.7z" vector-effect="non-scaling-stroke"/><path fill="#8f7857" d="m5.4 2-.2-.2-.3-.2q-1.2.9-1.5 2.2 1.1-.6 2-1.8m0-2h1.1q3.2 2.6 3 5.8l-.2 1.1q-1.7 4.4-3.5 4.4l-1.5.2h-.4l-.5-.3-.2-.2 2.5-1.7q1.2-1.1 1.6-2.7v-.2q.4-2-1.6-3.5-1.5 1.2-2.5 1.6h-.3l.2-1.2Q4.6.1 5.4 0"/><path fill="#a1886a" d="M4.8 1.6h.3l.2.3.1.2q-1 1.1-2.1 1.6.2-1.3 1.5-2.1"/><path fill="none" stroke="#3c2305" stroke-linecap="round" stroke-linejoin="round" stroke-opacity=".4" stroke-width="__RESOLUTION__" d="M5.4 0q-.8.2-2.3 3.3l-.2 1.2h.3q1-.4 2.4-1.6 2.1 1.5 1.7 3.5v.3q-.4 1.5-1.6 2.6L3 11l.3.2.5.3h.4l1.5-.2q1.8 0 3.5-4.4l.1-1.1q.3-3.2-3-5.7L6 0v0z" vector-effect="non-scaling-stroke"/><path fill="#3c2305" fill-opacity=".3" d="M5.9 2.7q1.3 1 1.6 2.2.5 1.2-.2 2.6t-2 2.3Q3 11.6 3.2 11l2.4-1.7Q7 8.2 7.4 6.6v-.1q.4-2.1-1.6-3.6z"/><path fill="#782305" d="m1.9 8.8.5.5q-.8-.2-.9 0l-.3.8-.2 1-.1-.4-.6-.9Q.1 9 .7 8.3l.4-.5q.2-.2.5-.2l.1.1z"/><path fill="none" stroke="#3c2305" stroke-linecap="round" stroke-linejoin="round" stroke-opacity=".4" stroke-width="__RESOLUTION__" d="m2.4 9.4-.5-.7-.1-1-.2-.1q-.3 0-.5.2l-.4.5q-.6.8-.4 1.5l.6.9" vector-effect="non-scaling-stroke"/><path fill="#782305" d="m2.2 9.1-.6.3-.2.3.1.3.3.2 1.1.3q.2.1.4-.2l.5-.6h.3v.3l-.3.6.8.2.9-.5.3-.3v.5l-.1.4.9-.2.2-.4V10H7l.7-.2.8-.5h.2l.4.2v.5q0 .6-.6 1l-1.2.2H7l-.9.3H3.7q-.8.1-1-.4l-1-.1-.8-.4v-.1l.2-.5v-.3l.3-.4.6-.2z"/><path fill="#8d4b05" d="m1.7 9.4.5-.3.8.5.8.1-.5.5q-.2.4-.4.3l-1.1-.3-.3-.3-.1-.2zm2.6.3 1.4.3h.1l-.3.4-1 .3-.7-.1.3-.6v-.2zm2.6.4-.1.2-.2.4-1 .2.2-.4v-.4z"/><path fill="none" stroke="#3c2305" stroke-linecap="round" stroke-linejoin="round" stroke-opacity=".4" stroke-width="__RESOLUTION__" d="m2.2 9.1.8.5.8.1h.5l1.4.2h0l.1.1v0H7l.7-.2.8-.5h.2l.4.2v.5q0 .6-.6 1l-1.2.2H7l-.9.3H3.7q-.8.1-1-.4l-1-.1-.8-.4v-.1l.2-.5v-.2h0v-.1l.3-.4.6-.2zm1.6.7q.1.1-.2.6L3 11l-.3.1m3.1-1v.5l-.1.3-.3.2-.7.4m2.6-.2.4-.4v-.5L7 10" vector-effect="non-scaling-stroke"/></g><g id="O" transform="translate(4.4 7.1)"><use xlink:href="#d" width=".6" height="2.5" transform="translate(-4.4 4.4)"/><use xlink:href="#e" width="8.6" height="13.9" transform="translate(-4.3 -7.05)"/><use xlink:href="#f" width="6.8" height="14.1" transform="translate(-2.25 -7.1)"/></g><g id="S"><path fill="none" stroke="#3c2305" stroke-linecap="round" stroke-linejoin="round" stroke-opacity=".4" stroke-width="__RESOLUTION__" d="M8.9 2.6 8 5.9l-.2.1 4 .3 1.2-.6L11.2 2v-.3L9.4.7 7.1.1l-.5.3-3.6 2-.2-.8L6.6.4M3 8.7l.5.2L7.8 6" vector-effect="non-scaling-stroke"/><path fill="#a18856" fill-opacity=".3" d="M4.1 5.3 1 3.6 6 .8l1.6.5L8 3z"/><path fill="#3c2305" fill-opacity=".2" d="m8 3.1.9-.5h2.7l1.5 3-1.2.7L7.8 6 3.6 8.9 3 8.7v-.1l-.5-2.5L4 5.3z"/><path fill="#a18856" fill-opacity=".5" d="m2 5.7-.2.8H0l1-1.1z"/><path fill="#4d3514" d="m9 2.4-.3 1.9q-1.6.4-3.3 1.4V4.4l-.7-.6h.6q1.6-1 3.6-1.5"/><path fill="#765e3e" d="m8.8 4.3.3.5q-2 .4-3.6 1.3l-.1-.4q1.7-1 3.3-1.4M2 3l.2-.5.5.3z"/><path fill="#8f7857" d="m9.1 4.8-.2 1.6-3 1.2v-.2l-.4-1.3q1.6-1 3.6-1.3"/><path fill="#3c2305" fill-opacity=".3" d="m5.9 7.4-1 .7-.6-3.5L2 3l.7-.2 2 1 .7.6v1.3l.1.4z"/><path fill="#604926" d="m2.2 2.5-.1-.1Q3.7 1 5.3.3l3.7 2q-2 .5-3.7 1.5h-.6l-2-1z"/><path fill="none" stroke="#3c2305" stroke-linecap="round" stroke-linejoin="round" stroke-opacity=".4" stroke-width="__RESOLUTION__" d="m9 2.4-.3 1.9.4.5-.2 1.6-3 1.2v-.2l-.4-1.3-.2-.4.1-1.3-.7-.6-2-1-.5-.4h-.1Q3.7 1 5.3.2z" vector-effect="non-scaling-stroke"/><path fill="none" stroke="#3c2305" stroke-linecap="round" stroke-linejoin="round" stroke-opacity=".3" stroke-width="__RESOLUTION__" d="m5.9 7.4-1 .7M2 3l.3-.5M2 3l.8-.2" vector-effect="non-scaling-stroke"/></g><g id="Q"><path fill="#3c2305" d="M.5 5.9 1.9 4l1.5.8L4 8h-.1L.1 7.8l.4-1.7z"/><path fill="none" stroke="#3c2305" stroke-linecap="round" stroke-linejoin="round" stroke-opacity=".4" stroke-width="__RESOLUTION__" d="M3.3 2.3 1.8 3M6.3.3 5.5 0" vector-effect="non-scaling-stroke"/><path fill="none" stroke="#664005" stroke-linecap="round" stroke-linejoin="round" stroke-width="__RESOLUTION__" d="M.5 6.1 0 5.9l1-2.6M.5 6.2V6H.2" vector-effect="non-scaling-stroke"/></g><g id="aP" transform="translate(4.25 4.4)"><use xlink:href="#g" width="8.5" height="8.7" transform="translate(-4.25 -4.35)"/><use xlink:href="#h" width="3.5" height="4.3" transform="translate(-1.7 -2.8)"/><use xlink:href="#i" width="8.2" height="8.8" transform="translate(-4.2 -4.4)"/></g><g id="aO"><path fill="#97793c" d="M9.3 12.8q.3.7 0 1.3l-.3.4-.2-.3-.4.6-.1-.3q-.3-.6-.2-1h.2l.2-.5.5-.5z"/><path fill="none" stroke="#000" stroke-linecap="round" stroke-linejoin="round" stroke-opacity=".4" stroke-width="__RESOLUTION__" d="m8.4 14.8-.1-.3q-.3-.6 0-1l.2-.5.5-.5" vector-effect="non-scaling-stroke"/><path fill="#fff" d="M11.3 7.2v-.5h.2l1 2.8q-.4-.1-.7-.9zM8.7 11l-1.2 3.5-1.5.6L7.3 12zM1.2 1.6 2 2q0 .8-.3.9l-.4-.2-.2-.9zM6 12.5l.5-.2L5 15.2l-.2-.2z"/><path fill="#d1d6cf" d="M11.8 8.6q.3.8.7.9l.5 1.4q-2.6 2.2-5.5 3.6L8.8 11l2-1.4-1-2.8-1.9-3.1-.4-.7L5 .8l-.5.3-.1-.4.1-.3h.2l.7-.3.7.2Q9.9 3 11.5 6.7h-.2v.5zM1 1.6v.2l.2.8.4.3q.3-.1.3-.8V2H2v.4l1 2.4.1.5L6 12.5 4.8 15 .6 1.7zM7.3 12 6 15l-.7.2H5l1.4-3z"/><path fill="#2d3029" d="m7.9 3.7 1.9 3 1 2.9-.9.7L8.7 7l-2-3.1-.4-.5-2.2-2.1.5-.3.5-.3L7.5 3z"/><path fill="#5b6153" d="m6.8 3.9 2 3.1 1.1 3.3-2.6 1.6-.8.3-.5.3-3-7.2v-.5l-.9-2.4 2-1.1 2.3 2.1z"/><path fill="#867f6d" d="M.6 1.7 4.9 15l.2.2h.2-.8l-.2-.3-.1-.2-3-8.7-.1-.2-.5-2.6q0-.4-.3-.9zM.3 3.8l-.2.1-.1-.8.5.3-.1.1z"/><path fill="none" stroke="#000" stroke-linecap="round" stroke-linejoin="round" stroke-opacity=".4" stroke-width="__RESOLUTION__" d="m11 9.4-.3.2L7.4 12l-.8.2-.5.3h0L3 5.3v-.5l-.9-2.4v-.3l-.9-.5H.6L4.9 15l.2.2h.2l2.2-.7q3-1.3 5.5-3.6l-1.5-4.3Q9.8 3.1 6.2.2L5.5 0l-.7.3.3.4L7.5 3l.4.5 1.8 3.2 1 2.8M2.2 2.4 4.6 1 4.5.6l.1-.3h.2m.5 15-.8-.1-.2-.3-.1-.2-3-8.7-.1-.2-.3-2H.3l-.2.1-.1-.8.5.3.1-.2q0-.4-.3-.9l.3-.6M.5 3.4l-.1.1-.2.3m.5 0-.1-.6M5.1.5l-.5.4" vector-effect="non-scaling-stroke"/><path fill="#fff" fill-opacity=".2" d="m7.8 3-1.2.3h-.1L3.3 4.5l-.3.2-.2-.5 4.5-1.8zm1.7 3 .5 1.2L4.9 9h-.3l-.5-1.3z"/><path fill="#e0ab47" d="M9.5 11.4v1.2l.2.7v.7q-.3.7-.7.5h-.1l-.2-.2.3.1.3-.4.1-.7-.1-.6-.3-.2-.3-.7v-.3q.3-.8 1-.5z"/><path fill="#f7e674" d="m10.9 12.4-.4.1-.2-.3h-.1l-.2.2-.1.5.1.1.2.3.3-.2-.2 1.2h-.4l-.2-.3v-.7l-.1-.7-.1-1.2.2-.4q.8.4 1 1z"/><path fill="#fcfbf9" d="m10.3 12.2.2.3v.6l-.3.2-.2-.3h-.1v-.7z"/><path fill="#c3a744" d="M9 15.4q-.3-.4-.2-.7l.2-.2q.4.2.7-.5l.3.3h.3l.2-1.2v-.6l.4-.1v.2l-.1 1.4-.2.1q-.4 1.5-1.4 1.4z"/><path fill="#97793c" d="m8.8 14.3.2.2-.1.3q-.1.2.2.5v.1l-.2-.1-.5-.5q.1-.5.4-.6"/><path fill="#000" fill-opacity=".3" d="m8.7 11.8.3.7.3.3.1.5-.4.3-.2.1v-.4L8.2 12q0-.3.6-.5z"/><path fill="none" stroke="#000" stroke-linecap="round" stroke-linejoin="round" stroke-opacity=".4" stroke-width="__RESOLUTION__" d="m8.8 14.3.4-.4.1-.7-.2-.6-.2-.2-.3-.7v-.3q.3-.8 1-.5.8.4 1 1l.2.4v.2l-.1 1.4-.2.1q-.4 1.5-1.4 1.4H9l-.2-.2-.5-.5" vector-effect="non-scaling-stroke"/></g><g id="aN" transform="translate(.65 8.65)"><use xlink:href="#j" width="1.9" height="2.9" transform="translate(4.35 -8.65)"/><use xlink:href="#k" width="12.3" height="11.7" transform="translate(-.55 -6.9)"/><use xlink:href="#l" width="3.1" height="7.8" transform="translate(8.6 -2.95)"/><use xlink:href="#m" width="12.5" height="11.9" transform="translate(-.65 -7)"/></g><g id="aL"><path fill="#97793c" d="M12.2 7.8h.3q.6.4.8 1l-.1.4H13v.6l-.2-.1L12 9z"/><path fill="none" stroke="#000" stroke-linecap="round" stroke-linejoin="round" stroke-opacity=".4" stroke-width="__RESOLUTION__" d="m13 9.9-.2-.2-.7-.6m0-.2V7.7" vector-effect="non-scaling-stroke"/><path fill="#d1d6cf" d="M2.3.9h.3zm.1.6-.3-.3L2 .8l.5-.5.6-.3q4.2.2 7.5 2l-.2.1.3.4.2.4.9.5q.8.4 1 .2l1 .9q-.3 3-1.7 5.5l-1-3.2.3-1.1.3-1-1.4-1-1-.6-3-1.4-.6-.2L2.6.9zm9.3 2.9v.3zM1.2 3.6l.2.1 1.9 1.5.4.2 2.5 1.8 1.2.8 2.4 1.5v-.1l.5 2.4L6.9 9l-1.2-.9-2.4-1.7-.3-.3-2.9-2 .3-.3.1.1.7.5h.4q.2-.3-.3-.8zm10.1 7.7-.4.6h-.1L10.1 9l.4-.7z"/><path fill="#2d3029" d="m2.4 1.5.1-.6 3.2.6.6.2 3 1.4 1 .6 1.3 1-.2 1-1.7-1.3-1-.6-3-1.3-.7-.1-2.8-.5z"/><path fill="#5b6153" d="m2.2 1.9 2.9.5.6.1 3 1.3 1 .6 1.7 1.2-.4 1.2-.6 1.4-.3.8-.2.4L7.5 8l-1.2-.8-2.5-1.7-.4-.2-1.9-1.4z"/><path fill="#867f6d" d="m0 4.1 2.9 2 .3.2 2.4 1.8 1.3.9 3.5 2.8h.4l-.5.4H10l-.1-.1-3.4-2.3-1.3-1L2.9 7l-.2-.1-1.5-1.3-.4-.4-.7-.5zm.9 1.8-.5-.5h.4v.1z"/><path fill="#fff" d="m10.5 11.8-.6-2.4.2-.4.7 2.9zM.3 3.8h.1l.8-.2q.5.5.3.7l-.5.1-.6-.5zm12.5-.2q-.3.2-1-.2l-.9-.5-.3-.4-.2-.4h.1q1.2.5 2.3 1.5m-.7 6.4-.8 1.3-.9-3 .6-1.5z"/><path fill="none" stroke="#000" stroke-linecap="round" stroke-linejoin="round" stroke-opacity=".4" stroke-width="__RESOLUTION__" d="M2.6.9h-.3m8.3 1.2Q7.3.1 3 0l-.6.3-.5.5.1.4.3.3.2-.6 3 .6.7.2 3 1.4 1 .6 1.3 1v-.3m-.2 1.2.3-.9M1.2 3.5l.2.2h0l.7-1.9.2-.4M0 4.2l2.9 2 .3.2 2.4 1.8 1.3.9 3.5 2.8h.4l-.5.4H10l-.1-.1-3.4-2.3-1.3-1L2.9 7l-.2-.1-1.5-1.3-.3.3V6l-.5-.6h.4v-.2l-.7-.5zl.3-.3h.1l.8-.3m8.6 6L7.6 8l-1.2-.8-2.5-1.8-.4-.2-1.9-1.4m9-1.7q1.2.5 2.4 1.5l1 .9q-.4 3-1.8 5.5l-.8 1.3-.4.6h0m.5-6.2-.3 1.1-.6 1.5-.4.7-.2.4v0M1.3 5.7l-.5-.4m0 .3.1.3" vector-effect="non-scaling-stroke"/><path fill="#fff" fill-opacity=".2" d="m5.1 1.3-.4.9L3 4.7V5l.4.2.1-.2 1.6-2.6.1-.1.7-.8zm1.7 4.3L5.8 7l1.2.7.2-.1 2-3.4.6-.8-1-.6-.6.8z"/><path fill="#000" fill-opacity=".3" d="m11.4 7.2.1.3.6.3.4.1.4.4-.2.4v.1l-.3-.4q-.2-.3-.7-.4l-.4-.2q-.2-.2 0-.7"/><path fill="#e0ab47" d="m12.9 8.3-.4-.4-.4-.1-.6-.3-.1-.3V7q-.2-.6.4-.8h.1v.4l.7.9.4.4.4.4v.2q.2.6-.2.8l-.2-.1h-.1.2q.2-.1.1-.5z"/><path fill="#97793c" d="m12.9 9.3.3.1.1.2.4.4-.7-.1z"/><path fill="#c3a744" d="M13.2 9.4q.5-.2.3-.8h.3l.2-.2-.4-.9-.1-.2-.2-.2v-.4l.3.2.6 1v.2q.5 1.4-.3 1.8h-.2l-.4-.3z"/><path fill="#f7e674" d="m13.5 8.6-.2-.2L13 8l-.4-.4-.7-.9v-.4l1.2.2.3.2-.2.3-.3-.1h-.2v.3l.4.5h.3l.2-.2.4.9-.2.2z"/><path fill="#fcfbf9" d="m13.6 7.5-.2.3-.3-.1-.4-.5V7l.2-.1.2.1h.2v.1l.1.2z"/><path fill="none" stroke="#000" stroke-linecap="round" stroke-linejoin="round" stroke-opacity=".4" stroke-width="__RESOLUTION__" d="m12.9 8.3-.4-.4-.4-.1-.6-.3-.1-.3m1.5 1.1.3.5q.2.4 0 .5h-.3m-1-3q-.6.2-.4.8m2-.4-.3-.2-1.2-.3m1.5.5.2.1.6 1.2v0q.5 1.4-.3 1.8h-.1l-.1.1-.7-.1" vector-effect="non-scaling-stroke"/></g><g id="aK" transform="translate(7.75 7.35)"><use xlink:href="#n" width="15.3" height="14.4" transform="translate(-7.65 -7.25)"/><use xlink:href="#o" width="15.6" height="14.7" transform="translate(-7.75 -7.35)"/><use xlink:href="#p" width="13" height="10.6" transform="translate(-5.7 -3.65)"/><use xlink:href="#q" width="13.8" height="9.8" transform="translate(-6.35 -2.55)"/></g><g id="aJ" transform="translate(.65 8.65)"><use xlink:href="#r" width="1.9" height="2.9" transform="translate(4.35 -8.65)"/><use xlink:href="#s" width="12.3" height="11.7" transform="translate(-.55 -6.9)"/><use xlink:href="#t" width="3.1" height="7.8" transform="translate(8.6 -2.95)"/><use xlink:href="#u" width="12.5" height="11.9" transform="translate(-.65 -7)"/></g><g id="aI" transform="translate(9.65 11.6)"><use xlink:href="#v" width="15.7" height="22.9" transform="translate(-7.65 -11.5)"/><use xlink:href="#y" width="14.7" height="19.1" transform="translate(-6.65 -11.5)"/><use xlink:href="#z" width="15.8" height="23.1" transform="translate(-7.75 -11.6)"/><use xlink:href="#A" width="4.5" height="4.6" transform="translate(-6.3 -3.4)scale(.7407)"/><use xlink:href="#A" width="4.5" height="4.6" transform="rotate(44.84 7.74 -4.96)scale(.4881)"/><use xlink:href="#B" width="13.1" height="9" transform="translate(-9.65 2.85)"/></g><g id="aH" transform="translate(0 2.1)"><use xlink:href="#C" width="8.2" height="4.2" transform="translate(0 -2.1)"/><use xlink:href="#G" width="8" height="4" transform="translate(.1 -2)"/></g><g id="ar" transform="translate(8.95 1.5)"><use xlink:href="#H" width="8.9" height="14.1" transform="translate(-7.25 -1.5)"/><use xlink:href="#I" width="9.4" height="11.8" transform="translate(-8.95 1.75)"/></g><g id="aq" transform="translate(0 2.1)"><use xlink:href="#J" width="8.2" height="4.2" transform="translate(0 -2.1)"/><use xlink:href="#K" width="8" height="4" transform="translate(.1 -2)"/></g><g id="ap" transform="translate(7 4.5)"><use xlink:href="#L" width="6.3" height="8" transform="translate(-7 -3.9)"/><use xlink:href="#M" width="13.8" height="8.8" transform="translate(-6.9 -4.4)"/><use xlink:href="#N" width="13.2" height="9" transform="translate(-6.15 -4.5)"/></g><g id="ao" transform="translate(8.95 1.5)"><use xlink:href="#O" width="8.9" height="14.1" transform="translate(-7.25 -1.5)"/><use xlink:href="#P" width="9.4" height="11.8" transform="translate(-8.95 1.75)"/></g><g id="an" transform="translate(7 4.5)"><use xlink:href="#Q" width="6.3" height="8" transform="translate(-7 -3.9)"/><use xlink:href="#R" width="13.8" height="8.8" transform="translate(-6.9 -4.4)"/><use xlink:href="#S" width="13.2" height="9" transform="translate(-6.15 -4.5)"/></g><clipPath id="am"><path d="M1 1h73v66H1z"/></clipPath><clipPath id="aQ"><path d="M75 1h73v66H75z"/></clipPath><clipPath id="aR"><path d="M149 1h73v66h-73z"/></clipPath><clipPath id="aS"><path d="M223 1h73v66h-73z"/></clipPath><clipPath id="aT"><path d="M297 1h73v66h-73z"/></clipPath><clipPath id="aU"><path d="M371 1h73v66h-73z"/></clipPath><clipPath id="aV"><path d="M445 1h73v66h-73z"/></clipPath><clipPath id="aW"><path d="M519 1h73v66h-73z"/></clipPath><clipPath id="aX"><path d="M593 1h73v66h-73z"/></clipPath><clipPath id="aY"><path d="M667 1h73v66h-73z"/></clipPath><clipPath id="aZ"><path d="M741 1h73v66h-73z"/></clipPath><clipPath id="ba"><path d="M815 1h73v66h-73z"/></clipPath><clipPath id="bb"><path d="M889 1h73v66h-73z"/></clipPath><clipPath id="bc"><path d="M963 1h73v66h-73z"/></clipPath><clipPath id="bd"><path d="M1037 1h73v66h-73z"/></clipPath><clipPath id="be"><path d="M1111 1h73v66h-73z"/></clipPath><clipPath id="bf"><path d="M1185 1h73v66h-73z"/></clipPath><clipPath id="bg"><path d="M1259 1h73v66h-73z"/></clipPath><clipPath id="bh"><path d="M1333 1h73v66h-73z"/></clipPath><clipPath id="bi"><path d="M1407 1h73v66h-73z"/></clipPath><clipPath id="bj"><path d="M1481 1h73v66h-73z"/></clipPath><clipPath id="bk"><path d="M1555 1h73v66h-73z"/></clipPath><clipPath id="bl"><path d="M1629 1h73v66h-73z"/></clipPath><clipPath id="bm"><path d="M1703 1h73v66h-73z"/></clipPath><clipPath id="bn"><path d="M1777 1h73v66h-73z"/></clipPath><clipPath id="bo"><path d="M1851 1h73v66h-73z"/></clipPath><clipPath id="bp"><path d="M1925 1h73v66h-73z"/></clipPath><clipPath id="bq"><path d="M1999 1h73v66h-73z"/></clipPath><clipPath id="br"><path d="M2073 1h73v66h-73z"/></clipPath><clipPath id="bs"><path d="M2147 1h73v66h-73z"/></clipPath><clipPath id="bt"><path d="M2221 1h73v66h-73z"/></clipPath><clipPath id="bu"><path d="M2295 1h73v66h-73z"/></clipPath><path id="T" fill="#f8bf01" d="M4.3-5.5Q.2 2.3-.3 4.3T-2.1 7L-4 6.8q-.4-.6-.4-2.2 4.1-5.5 7-11 2-1.6 1.5.9" transform="translate(4.3 7)"/><path id="U" fill="#8d5f05" d="M2.6-2 4 .5 1.8 2 .1.9h-3.8L-4-.6.3-.7z" transform="translate(4 2)"/><path id="V" fill="#9e6f05" d="M4.3-5.5Q.2 2.3-.3 4.3T-2.1 7L-4 6.8q-.4-.6-.4-2.2 4.1-5.5 7-11 2-1.6 1.5.9" transform="translate(4.3 7)"/><path id="W" fill="#3f2c15" d="m-.7-2.1 2 1.4q.8.7.2 1.7-.4 1-1.7 1l-.2-.6L-1.7.3-.5-1z" transform="translate(1.7 2.15)"/><path id="X" fill="#9ead76" d="M-4.1-2.4q-.6-2.2 1.5-1.9Q-.1-1.7 3.9.3q1 1.6-.5 2.2-1.5 0-2.5 1.8L.1 1.4z" transform="translate(4.25 4.35)"/><path id="Y" fill="#734731" d="M1-1.4q.8 2.7.5 5.3Q0 .2-1.5-.2l.9-1.1.5-2.5 1 2z" transform="translate(1.55 3.85)"/><path id="Z" fill="#adbf7a" d="m.7-5.5-.1-.2.6.4Q4.4-2.8 5.4.1v.4q.9 2.7.6 5.3Q3-1.4.3 4q-1.5-2.2-3.8-2.6h-2.6V.2q.6-2.3 1.5-.3 3.4-1.4 2.8-5l.7-.7q-.2.5 0 .8t.9.3l.9-.2z" transform="translate(6.15 5.85)"/><path id="aa" fill="#734731" d="M6.5-3.3Q5.8-.1 3.9 3.2l-.3-4.5-1.8-3-2.8-.8 4.9-.1zM.5-.7l.8 4.4-1.8 1.6-3.9-1.1 2.9-1zm-2 .7-2.9-2.6h-2.1l2.4-1.7 2 1z" transform="translate(6.5 5.25)"/><path id="ab" fill="#adbf7a" d="M7.5-2.5q-1 4.8-4.3 9.7Q-2 7-6 4.5l-1.6-2.4.9-2.3 9.4-7 5 2.5z" transform="translate(7.65 7.25)"/><path id="ac" fill="#5a4d30" d="M1-1.4q.8 2.7.5 5.3Q0 .2-1.5-.2l.9-1.1.5-2.5 1 2z" transform="translate(1.55 3.85)"/><path id="ad" fill="#717d4d" d="m.7-5.5-.1-.2.6.4Q4.4-2.8 5.4.1v.4q.9 2.7.6 5.3Q3-1.4.3 4q-1.5-2.2-3.8-2.6h-2.6V.2q.6-2.3 1.5-.3 3.4-1.4 2.8-5l.7-.7q-.2.5 0 .8t.9.3l.9-.2z" transform="translate(6.15 5.85)"/><path id="ae" fill="#734731" d="M7.1-6.6Q5.9-3.3 3.3-.2v-.1l-.3-4L4.3-6 3-6.1v-.1L1.2-9.6h.1q4-.2 5.9 2.1v.1zM.6-2.3-1.7-.5l-1-1-.9-.3L-.3-4l.8.5zM-4 3.3l1.9-.5v6.8l-5.2-1.2L-5.8 3z" transform="translate(7.35 9.55)"/><path id="af" fill="#b0bf7a" d="M7.6-8.5Q6.4-5.2 3.8-2.1l-.3-4-5.1 4v12.5q-3.4 2.4-6.2-.6l3.7-12.9 7.5-5-1.6-3.3q4.1-.3 6 2.2z" transform="translate(7.8 11.45)"/><path id="a" fill="none" stroke="#6b4b01" stroke-linecap="round" stroke-linejoin="round" stroke-width="__RESOLUTION__" d="M-4 6.8q-.3-.7-.3-2.3" transform="translate(4.4 -4.4)" vector-effect="non-scaling-stroke"/><path id="d" fill="none" stroke="#664005" stroke-linecap="round" stroke-linejoin="round" stroke-width="__RESOLUTION__" d="M-4 6.8q-.3-.7-.3-2.3" transform="translate(4.4 -4.4)" vector-effect="non-scaling-stroke"/><path id="i" fill="none" stroke="#000" stroke-linecap="round" stroke-linejoin="round" stroke-opacity=".4" stroke-width="__RESOLUTION__" d="M-4.1-2.4 0 1.4l.9 3q1-1.9 2.5-2m.5-2q-4-2.1-6.5-4.7" transform="translate(4.2 4.4)" vector-effect="non-scaling-stroke"/><path id="q" fill="#000" fill-opacity=".3" d="M-6.3 4 3 1.7l4.5-4.2q-1 4.8-4.3 9.7Q-2 7-6 4.5z" transform="translate(6.35 2.55)"/><path id="o" fill="none" stroke="#000" stroke-linecap="round" stroke-linejoin="round" stroke-opacity=".4" stroke-width="__RESOLUTION__" d="m7.7-4.7-.2 2.2q-1 4.8-4.3 9.7Q-2 7-6 4.5l-1.6-2.4.9-2.3 9.4-7" transform="translate(7.75 7.35)" vector-effect="non-scaling-stroke"/><path id="C" fill="none" stroke="#000" stroke-linecap="round" stroke-linejoin="round" stroke-opacity=".4" stroke-width="__RESOLUTION__" d="m.1-.5 5.3-.3M6.7-2 8.1.5 5.9 2 4.2.9H.4m5.4 0H4.2" transform="translate(0 2.1)" vector-effect="non-scaling-stroke"/><path id="J" fill="none" stroke="#3c2305" stroke-linecap="round" stroke-linejoin="round" stroke-opacity=".4" stroke-width="__RESOLUTION__" d="m.1-.5 5.3-.3M6.7-2 8.1.5 5.9 2 4.2.9H.4m5.4 0H4.2" transform="translate(0 2.1)" vector-effect="non-scaling-stroke"/><use xlink:href="#aii" id="ag" width="8" height="4"/><use xlink:href="#T" id="b" width="8.6" height="13.9"/><use xlink:href="#U" id="ah" width="8" height="4"/><use xlink:href="#V" id="e" width="8.6" height="13.9"/><use xlink:href="#W" id="h" width="3.5" height="4.3"/><use xlink:href="#X" id="g" width="8.5" height="8.7"/><use xlink:href="#Y" id="l" width="3.1" height="7.8"/><use xlink:href="#Z" id="k" width="12.3" height="11.7"/><use xlink:href="#aa" id="p" width="13" height="10.6"/><use xlink:href="#ab" id="n" width="15.3" height="14.4"/><use xlink:href="#ac" id="t" width="3.1" height="7.8"/><use xlink:href="#ad" id="s" width="12.3" height="11.7"/><use xlink:href="#ae" id="y" width="14.7" height="19.1"/><use xlink:href="#af" id="v" width="15.7" height="22.9"/><use xlink:href="#ag" id="G" width="8" height="4"/><use xlink:href="#ah" id="K" width="8" height="4"/><use xlink:href="#ai" id="M" width="13.8" height="8.8"/><use xlink:href="#ak" id="R" width="13.8" height="8.8"/><use xlink:href="#al" id="aM" width="22.8" height="22"/></defs><g clip-path="url(#am)"><g transform="translate(35.3 59.8)"><use xlink:href="#an" width="14" height="9" transform="matrix(-1.0076 .0703 .2285 .9746 12.4 -7.8)"/><use xlink:href="#ao" width="10.7" height="15" transform="matrix(-.9968 .0437 .0437 .9968 6.75 -19.4)"/><use xlink:href="#ap" width="14" height="9" transform="matrix(-.9887 -.1268 -.0889 1 2.8 -2.05)"/><use xlink:href="#aq" width="8.2" height="4.2" transform="matrix(-.3251 .7121 .9063 .4138 -2.95 -21.9)"/><use xlink:href="#ar" width="10.7" height="15" transform="matrix(-.9921 -.1176 -.148 .9884 .65 -14.35)"/><use xlink:href="#aH" width="8.2" height="4.2" transform="matrix(-.5623 .8226 .8226 .5623 -7.95 -20.25)"/><use xlink:href="#aI" width="17.8" height="23.4" transform="matrix(-.9886 .1259 .1259 .9886 -5.1 -50.75)"/><use xlink:href="#aJ" width="12.5" height="13.6" transform="matrix(-.2965 -.3257 -.7351 .6692 6.5 -32)"/><use xlink:href="#aK" width="15.6" height="14.7" transform="matrix(-.9956 -.0656 -.0656 .9956 4.5 -30.6)"/><use xlink:href="#aL" width="14.3" height="12.2" transform="matrix(-.9956 -.0656 -.0656 .9956 -1.7 -32.1)"/><use xlink:href="#aM" width="22.8" height="22" transform="rotate(8.82 272.66 -143.317)scale(.9248)"/><use xlink:href="#aN" width="12.5" height="13.6" transform="rotate(16.832 102.318 -21.527)scale(-.997 .997)"/><use xlink:href="#aO" width="12.9" height="15.4" transform="matrix(-.9956 -.0656 -.0656 .9956 3.1 -29.15)"/><use xlink:href="#aP" width="8.5" height="8.8" transform="matrix(-.9688 .2419 .2419 .9688 6.15 -33.4)"/></g></g><g clip-path="url(#aQ)"><g transform="translate(109.3 59.8)"><use xlink:href="#an" width="14" height="9" transform="matrix(-1.0076 .0703 .2285 .9746 12.4 -7.8)"/><use xlink:href="#ao" width="10.7" height="15" transform="matrix(-.9974 .0218 .0218 .9974 6.85 -19.5)"/><use xlink:href="#ap" width="14" height="9" transform="matrix(-.9887 -.1268 -.0889 1 2.8 -2.05)"/><use xlink:href="#aq" width="8.2" height="4.2" transform="matrix(-.2646 .7358 .9365 .3368 -3.35 -22.05)"/><use xlink:href="#ar" width="10.7" height="15" transform="matrix(-.9899 -.1308 -.1611 .9857 .65 -14.3)"/><use xlink:href="#aH" width="8.2" height="4.2" transform="matrix(-.5098 .8544 .8544 .5098 -8.25 -20.5)"/><use xlink:href="#aI" width="17.8" height="23.4" transform="matrix(-.9764 .1951 .1927 .9642 -6.6 -50.7)"/><use xlink:href="#aJ" width="12.5" height="13.6" transform="matrix(-.3311 -.2891 -.6525 .7474 4.85 -34.15)"/><use xlink:href="#aK" width="15.6" height="14.7" transform="matrix(-.9976 .0092 .0092 .9976 3.5 -32)"/><use xlink:href="#aL" width="14.3" height="12.2" transform="matrix(-.9976 .0092 .0092 .9976 -2.7 -33.1)"/><use xlink:href="#aM" width="22.8" height="22" transform="rotate(2.263 1068.991 -560.513)scale(.9243)"/><use xlink:href="#aN" width="12.5" height="13.6" transform="matrix(-.9734 -.2124 -.2124 .9734 -2.75 -31.5)"/><use xlink:href="#aO" width="12.9" height="15.4" transform="matrix(-.9976 .0092 .0092 .9976 2.35 -30.5)"/><use xlink:href="#aP" width="8.5" height="8.8" transform="matrix(-.8828 .461 .319 1.0071 4.65 -36.75)"/></g></g><g clip-path="url(#aR)"><g transform="translate(183.3 59.8)"><use xlink:href="#an" width="14" height="9" transform="matrix(-1.0076 .0703 .2285 .9746 12.4 -7.8)"/><use xlink:href="#ao" width="10.7" height="15" transform="matrix(-.9976 0 0 .9976 6.8 -19.55)"/><use xlink:href="#ap" width="14" height="9" transform="matrix(-.9887 -.1268 -.0889 1 2.8 -2.05)"/><use xlink:href="#aq" width="8.2" height="4.2" transform="matrix(-.2027 .7554 .9614 .2579 -3.75 -22.4)"/><use xlink:href="#ar" width="10.7" height="15" transform="matrix(-.9879 -.1441 -.1743 .9832 .6 -14.35)"/><use xlink:href="#aH" width="8.2" height="4.2" transform="rotate(117.31 2.04 -13.084)scale(.995 -.995)"/><use xlink:href="#aI" width="17.8" height="23.4" transform="matrix(-.9587 .2666 .26 .935 -8.2 -50.55)"/><use xlink:href="#aJ" width="12.5" height="13.6" transform="matrix(-.3617 -.2495 -.5631 .8165 3.2 -36.25)"/><use xlink:href="#aK" width="15.6" height="14.7" transform="matrix(-.9936 .087 .087 .9936 2.6 -33.4)"/><use xlink:href="#aL" width="14.3" height="12.2" transform="matrix(-.9936 .087 .087 .9936 -3.7 -33.9)"/><use xlink:href="#aM" width="22.8" height="22" transform="rotate(-4.06 -600.215 313.544)scale(.924)"/><use xlink:href="#aN" width="12.5" height="13.6" transform="matrix(-.9867 -.139 -.139 .9867 -3.65 -32.4)"/><use xlink:href="#aO" width="12.9" height="15.4" transform="matrix(-.9936 .087 .087 .9936 1.5 -31.7)"/><use xlink:href="#aP" width="8.5" height="8.8" transform="matrix(-.7466 .6568 .4054 1.0387 2.9 -39.8)"/></g></g><g clip-path="url(#aS)"><g transform="translate(257.3 59.8)"><use xlink:href="#an" width="14" height="9" transform="matrix(-1.0076 .0703 .2285 .9746 12.4 -7.8)"/><use xlink:href="#ao" width="10.7" height="15" transform="matrix(-.9972 -.0218 -.0218 .9972 6.8 -19.55)"/><use xlink:href="#ap" width="14" height="9" transform="matrix(-.9887 -.1268 -.0889 1 2.8 -2.05)"/><use xlink:href="#aq" width="8.2" height="4.2" transform="matrix(-.1393 .7698 .9797 .1773 -4.1 -22.5)"/><use xlink:href="#ar" width="10.7" height="15" transform="matrix(-.9851 -.1606 -.1908 .98 .65 -14.25)"/><use xlink:href="#aH" width="8.2" height="4.2" transform="matrix(-.4015 .9105 .9105 .4015 -9 -21.2)"/><use xlink:href="#aI" width="17.8" height="23.4" transform="matrix(-.9369 .337 .3245 .902 -9.75 -50.3)"/><use xlink:href="#aJ" width="12.5" height="13.6" transform="rotate(28.098 77.353 -16.278)scale(-.44 .993)"/><use xlink:href="#aK" width="15.6" height="14.7" transform="matrix(-.984 .161 .161 .984 1.65 -34.65)"/><use xlink:href="#aL" width="14.3" height="12.2" transform="matrix(-.984 .161 .161 .984 -4.75 -34.75)"/><use xlink:href="#aM" width="22.8" height="22" transform="rotate(-10.767 -229.54 118.34)scale(.9239)"/><use xlink:href="#aN" width="12.5" height="13.6" transform="matrix(-.9948 -.0616 -.0616 .9948 -4.5 -33.2)"/><use xlink:href="#aO" width="12.9" height="15.4" transform="matrix(-.984 .161 .161 .984 .6 -32.95)"/><use xlink:href="#aP" width="8.5" height="8.8" transform="matrix(-.5721 .8138 .4993 1.0638 .95 -42.75)"/></g></g><g clip-path="url(#aT)"><g transform="translate(331.3 59.8)"><use xlink:href="#an" width="14" height="9" transform="matrix(-1.0076 .0703 .2285 .9746 12.4 -7.8)"/><use xlink:href="#ao" width="10.7" height="15" transform="matrix(-.9963 -.0436 -.0436 .9963 6.85 -19.6)"/><use xlink:href="#ap" width="14" height="9" transform="matrix(-.9887 -.1268 -.0889 1 2.8 -2.05)"/><use xlink:href="#aq" width="8.2" height="4.2" transform="matrix(-.0751 .7789 .9912 .0955 -4.5 -22.75)"/><use xlink:href="#ar" width="10.7" height="15" transform="matrix(-.9827 -.1739 -.2039 .9771 .7 -14.25)"/><use xlink:href="#aH" width="8.2" height="4.2" transform="matrix(-.345 .9335 .9335 .345 -9.4 -21.5)"/><use xlink:href="#aI" width="17.8" height="23.4" transform="matrix(-.8405 .5319 .4922 .7779 -14.85 -49.3)"/><use xlink:href="#aJ" width="12.5" height="13.6" transform="matrix(-.3948 -.1929 -.4354 .8911 .9 -38.9)"/><use xlink:href="#aK" width="15.6" height="14.7" transform="matrix(-.9682 .2372 .2372 .9682 .55 -35.95)"/><use xlink:href="#aL" width="14.3" height="12.2" transform="matrix(-.9682 .2372 .2372 .9682 -5.8 -35.5)"/><use xlink:href="#aM" width="22.8" height="22" transform="rotate(-13.011 -190.343 97.551)scale(.9234)"/><use xlink:href="#aN" width="12.5" height="13.6" transform="matrix(-.9968 .0096 .0096 .9968 -5.4 -33.95)"/><use xlink:href="#aO" width="12.9" height="15.4" transform="matrix(-.9682 .2372 .2372 .9682 -.3 -34.1)"/><use xlink:href="#aP" width="8.5" height="8.8" transform="matrix(-.7047 .701 .468 1.0114 1.35 -41.7)"/></g></g><g clip-path="url(#aU)"><g transform="translate(405.3 59.8)"><use xlink:href="#an" width="14" height="9" transform="matrix(-1.0076 .0703 .2285 .9746 12.4 -7.8)"/><use xlink:href="#ao" width="10.7" height="15" transform="matrix(-.995 -.0654 -.0654 .995 6.8 -19.7)"/><use xlink:href="#ap" width="14" height="9" transform="matrix(-.9887 -.1268 -.0889 1 2.8 -2.05)"/><use xlink:href="#aq" width="8.2" height="4.2" transform="matrix(-.0077 .7826 .9961 .0098 -4.8 -22.9)"/><use xlink:href="#ar" width="10.7" height="15" transform="matrix(-.9801 -.1871 -.2171 .9741 .7 -14.2)"/><use xlink:href="#aH" width="8.2" height="4.2" transform="matrix(-.2872 .953 .953 .2872 -9.75 -21.9)"/><use xlink:href="#aI" width="17.8" height="23.4" transform="matrix(-.705 .702 .6236 .6263 -19.95 -47.85)"/><use xlink:href="#aJ" width="12.5" height="13.6" transform="matrix(-.402 -.1775 -.4007 .9074 .35 -39.45)"/><use xlink:href="#aK" width="15.6" height="14.7" transform="matrix(-.9475 .309 .309 .9475 -.55 -37.2)"/><use xlink:href="#aL" width="14.3" height="12.2" transform="matrix(-.9475 .309 .309 .9475 -6.85 -36.2)"/><use xlink:href="#aM" width="22.8" height="22" transform="rotate(-15.261 -162.9 83.032)scale(.9236)"/><use xlink:href="#aN" width="12.5" height="13.6" transform="matrix(-.9927 .0873 .0873 .9927 -6.4 -34.75)"/><use xlink:href="#aO" width="12.9" height="15.4" transform="matrix(-.9475 .309 .309 .9475 -1.3 -35.25)"/><use xlink:href="#aP" width="8.5" height="8.8" transform="matrix(-.819 .565 .4392 .9596 1.7 -40.55)"/></g></g><g clip-path="url(#aV)"><g transform="translate(479.3 59.8)"><use xlink:href="#an" width="14" height="9" transform="matrix(-1.0076 .0703 .2285 .9746 12.4 -7.8)"/><use xlink:href="#ao" width="10.7" height="15" transform="rotate(-174.96 2.942 -10)scale(.9973 -.9973)"/><use xlink:href="#ap" width="14" height="9" transform="matrix(-.9887 -.1268 -.0889 1 2.8 -2.05)"/><use xlink:href="#aq" width="8.2" height="4.2" transform="matrix(.0548 .7807 .9936 -.0697 -5.15 -23.15)"/><use xlink:href="#ar" width="10.7" height="15" transform="matrix(-.9772 -.2039 -.2338 .9708 .7 -14.15)"/><use xlink:href="#aH" width="8.2" height="4.2" transform="matrix(-.2285 .9697 .9697 .2285 -10.1 -22.25)"/><use xlink:href="#aI" width="17.8" height="23.4" transform="matrix(-.5366 .8403 .7153 .4568 -24.75 -45.75)"/><use xlink:href="#aJ" width="12.5" height="13.6" transform="matrix(-.4081 -.1632 -.3684 .9211 -.25 -40)"/><use xlink:href="#aK" width="15.6" height="14.7" transform="matrix(-.9213 .3825 .3825 .9213 -1.65 -38.35)"/><use xlink:href="#aL" width="14.3" height="12.2" transform="matrix(-.9213 .3825 .3825 .9213 -7.85 -36.9)"/><use xlink:href="#aM" width="22.8" height="22" transform="rotate(-17.498 -142.594 71.844)scale(.9246)"/><use xlink:href="#aN" width="12.5" height="13.6" transform="matrix(-.9832 .1642 .1642 .9832 -7.35 -35.4)"/><use xlink:href="#aO" width="12.9" height="15.4" transform="matrix(-.9213 .3825 .3825 .9213 -2.25 -36.4)"/><use xlink:href="#aP" width="8.5" height="8.8" transform="matrix(-.9072 .4143 .4143 .9072 1.9 -39.3)"/></g></g><g clip-path="url(#aW)"><g transform="translate(553.3 59.8)"><use xlink:href="#an" width="14" height="9" transform="matrix(-1.0076 .0703 .2285 .9746 12.4 -7.8)"/><use xlink:href="#ao" width="10.7" height="15" transform="matrix(-.9921 -.0964 -.0964 .9921 6.8 -19.7)"/><use xlink:href="#ap" width="14" height="9" transform="matrix(-.9887 -.1268 -.0889 1 2.8 -2.05)"/><use xlink:href="#aq" width="8.2" height="4.2" transform="matrix(.0856 .7776 .9896 -.1089 -5.25 -23.3)"/><use xlink:href="#ar" width="10.7" height="15" transform="matrix(-.9755 -.2084 -.2382 .9689 .8 -14.15)"/><use xlink:href="#aH" width="8.2" height="4.2" transform="rotate(99.567 4.274 -15.55)scale(.9957 -.9957)"/><use xlink:href="#aI" width="17.8" height="23.4" transform="matrix(-.4333 .8965 .7326 .3541 -25.45 -44.3)"/><use xlink:href="#aJ" width="12.5" height="13.6" transform="matrix(-.4136 -.1487 -.3356 .9336 -.7 -40.5)"/><use xlink:href="#aK" width="15.6" height="14.7" transform="matrix(-.9075 .4105 .4105 .9075 -2.1 -38.65)"/><use xlink:href="#aL" width="14.3" height="12.2" transform="rotate(155.66 -.105 -19.41)scale(.996 -.996)"/><use xlink:href="#aM" width="22.8" height="22" transform="rotate(-18.786 -132.709 66.391)scale(.9238)"/><use xlink:href="#aN" width="12.5" height="13.6" transform="matrix(-.9767 .1951 .1951 .9767 -7.6 -35.55)"/><use xlink:href="#aO" width="12.9" height="15.4" transform="matrix(-.9075 .4105 .4105 .9075 -2.6 -36.7)"/><use xlink:href="#aP" width="8.5" height="8.8" transform="matrix(-.9025 .4221 .4221 .9025 1.9 -39.65)"/></g></g><g clip-path="url(#aX)"><g transform="translate(627.3 59.8)"><use xlink:href="#an" width="14" height="9" transform="matrix(-1.0076 .0703 .2285 .9746 12.4 -7.8)"/><use xlink:href="#ao" width="10.7" height="15" transform="matrix(-.9907 -.109 -.109 .9907 6.85 -19.7)"/><use xlink:href="#ap" width="14" height="9" transform="matrix(-.9887 -.1268 -.0889 1 2.8 -2.05)"/><use xlink:href="#aq" width="8.2" height="4.2" transform="matrix(.1164 .7734 .9843 -.1481 -5.35 -23.5)"/><use xlink:href="#ar" width="10.7" height="15" transform="matrix(-.9735 -.2165 -.2463 .9667 .85 -14.1)"/><use xlink:href="#aH" width="8.2" height="4.2" transform="rotate(96.057 4.702 -15.987)scale(.996 -.996)"/><use xlink:href="#aI" width="17.8" height="23.4" transform="rotate(109.026 2.246 -30.6)scale(.996 -.78)"/><use xlink:href="#aJ" width="12.5" height="13.6" transform="matrix(-.4191 -.1326 -.2993 .946 -1.35 -40.95)"/><use xlink:href="#aK" width="15.6" height="14.7" transform="matrix(-.8925 .4416 .4416 .8925 -2.6 -38.95)"/><use xlink:href="#aL" width="14.3" height="12.2" transform="matrix(-.8925 .4416 .4416 .8925 -8.55 -37.1)"/><use xlink:href="#aM" width="22.8" height="22" transform="rotate(-20.053 -124.242 61.88)scale(.924)"/><use xlink:href="#aN" width="12.5" height="13.6" transform="matrix(-.969 .2288 .2288 .969 -7.9 -35.65)"/><use xlink:href="#aO" width="12.9" height="15.4" transform="matrix(-.8925 .4416 .4416 .8925 -2.9 -36.95)"/><use xlink:href="#aP" width="8.5" height="8.8" transform="matrix(-.8988 .4304 .4304 .8988 1.8 -40.1)"/></g></g><g clip-path="url(#aY)"><g transform="translate(701.3 59.8)"><use xlink:href="#an" width="14" height="9" transform="matrix(-1.0076 .0703 .2285 .9746 12.4 -7.8)"/><use xlink:href="#ao" width="10.7" height="15" transform="rotate(7.012 164.635 46.438)scale(-.997 .997)"/><use xlink:href="#ap" width="14" height="9" transform="matrix(-.9887 -.1268 -.0889 1 2.8 -2.05)"/><use xlink:href="#aq" width="8.2" height="4.2" transform="matrix(.15 .7678 .9772 -.1909 -5.45 -23.7)"/><use xlink:href="#ar" width="10.7" height="15" transform="matrix(-.9722 -.2251 -.2549 .9652 .95 -14.1)"/><use xlink:href="#aH" width="8.2" height="4.2" transform="matrix(-.0444 .9952 .9952 .0444 -10.8 -22.5)"/><use xlink:href="#aI" width="17.8" height="23.4" transform="matrix(-.2116 .9737 .7294 .1585 -26.45 -41.15)"/><use xlink:href="#aJ" width="12.5" height="13.6" transform="rotate(15.582 150.36 -27.46)scale(-.44 .9932)"/><use xlink:href="#aK" width="15.6" height="14.7" transform="matrix(-.8774 .4732 .4732 .8774 -2.9 -39.25)"/><use xlink:href="#aL" width="14.3" height="12.2" transform="rotate(-28.339 -78.22 -1)scale(-.9969 .9969)"/><use xlink:href="#aM" width="22.8" height="22" transform="rotate(-21.317 -116.653 57.821)scale(.924)"/><use xlink:href="#aN" width="12.5" height="13.6" transform="matrix(-.961 .2624 .2624 .961 -8.2 -35.85)"/><use xlink:href="#aO" width="12.9" height="15.4" transform="matrix(-.8774 .4732 .4732 .8774 -3.25 -37.25)"/><use xlink:href="#aP" width="8.5" height="8.8" transform="matrix(-.8936 .4416 .4416 .8936 1.7 -40.45)"/></g></g><g clip-path="url(#aZ)"><g transform="translate(775.3 59.8)"><use xlink:href="#an" width="14" height="9" transform="matrix(-1.0076 .0703 .2285 .9746 12.4 -7.8)"/><use xlink:href="#ao" width="10.7" height="15" transform="matrix(-.9891 -.1226 -.1226 .9891 6.9 -19.8)"/><use xlink:href="#ap" width="14" height="9" transform="matrix(-.9887 -.1268 -.0889 1 2.8 -2.05)"/><use xlink:href="#aq" width="8.2" height="4.2" transform="matrix(.1599 .7655 .9742 -.2035 -5.45 -23.75)"/><use xlink:href="#ar" width="10.7" height="15" transform="matrix(-.9717 -.2254 -.2552 .9646 .95 -14.05)"/><use xlink:href="#aH" width="8.2" height="4.2" transform="rotate(89.235 5.927 -16.9)scale(.9963 -.9963)"/><use xlink:href="#aI" width="17.8" height="23.4" transform="matrix(-.0956 .9921 .7095 .0683 -26.8 -39.4)"/><use xlink:href="#aJ" width="12.5" height="13.6" transform="matrix(-.4253 -.1124 -.2536 .96 -2.1 -41.6)"/><use xlink:href="#aK" width="15.6" height="14.7" transform="matrix(-.8707 .4836 .4836 .8707 -3.1 -39.25)"/><use xlink:href="#aL" width="14.3" height="12.2" transform="matrix(-.8707 .4836 .4836 .8707 -9.1 -37.25)"/><use xlink:href="#aM" width="22.8" height="22" transform="rotate(-22.583 -109.934 54.347)scale(.9242)"/><use xlink:href="#aN" width="12.5" height="13.6" transform="matrix(-.9581 .2714 .2714 .9581 -8.3 -35.85)"/><use xlink:href="#aO" width="12.9" height="15.4" transform="matrix(-.8707 .4836 .4836 .8707 -3.45 -37.35)"/><use xlink:href="#aP" width="8.5" height="8.8" transform="matrix(-.8896 .4498 .4498 .8896 1.55 -40.95)"/></g></g><g clip-path="url(#ba)"><g transform="translate(849.3 59.8)"><use xlink:href="#an" width="14" height="9" transform="matrix(-1.0076 .0703 .2285 .9746 12.4 -7.8)"/><use xlink:href="#ao" width="10.7" height="15" transform="matrix(-.9887 -.1268 -.1268 .9887 6.95 -19.75)"/><use xlink:href="#ap" width="14" height="9" transform="matrix(-.9887 -.1268 -.0889 1 2.8 -2.05)"/><use xlink:href="#aq" width="8.2" height="4.2" transform="matrix(.1702 .7634 .9715 -.2167 -5.5 -23.8)"/><use xlink:href="#ar" width="10.7" height="15" transform="matrix(-.971 -.2294 -.2592 .9639 1 -14.1)"/><use xlink:href="#aH" width="8.2" height="4.2" transform="rotate(85.734 6.605 -17.462)scale(.996 -.996)"/><use xlink:href="#aI" width="17.8" height="23.4" transform="matrix(.0218 .9967 .6789 -.0149 -27.05 -37.65)"/><use xlink:href="#aJ" width="12.5" height="13.6" transform="matrix(-.427 -.107 -.2414 .9637 -2.35 -41.65)"/><use xlink:href="#aK" width="15.6" height="14.7" transform="matrix(-.8665 .4922 .4922 .8665 -3.2 -39.4)"/><use xlink:href="#aL" width="14.3" height="12.2" transform="matrix(-.8665 .4922 .4922 .8665 -9.15 -37.35)"/><use xlink:href="#aM" width="22.8" height="22" transform="rotate(-24.039 -102.958 50.62)scale(.9243)"/><use xlink:href="#aN" width="12.5" height="13.6" transform="matrix(-.955 .2838 .2838 .955 -8.45 -35.9)"/><use xlink:href="#aO" width="12.9" height="15.4" transform="matrix(-.8665 .4922 .4922 .8665 -3.55 -37.55)"/><use xlink:href="#aP" width="8.5" height="8.8" transform="matrix(-.8857 .458 .458 .8857 1.5 -41.25)"/></g></g><g clip-path="url(#bb)"><g transform="translate(923.3 59.8)"><use xlink:href="#an" width="14" height="9" transform="matrix(-1.0076 .0703 .2285 .9746 12.4 -7.8)"/><use xlink:href="#ao" width="10.7" height="15" transform="matrix(-.9883 -.134 -.134 .9883 7 -19.75)"/><use xlink:href="#ap" width="14" height="9" transform="matrix(-.9887 -.1268 -.0889 1 2.8 -2.05)"/><use xlink:href="#aq" width="8.2" height="4.2" transform="matrix(.1839 .7609 .9684 -.2341 -5.5 -23.9)"/><use xlink:href="#ar" width="10.7" height="15" transform="matrix(-.971 -.2341 -.2641 .9637 1 -14.05)"/><use xlink:href="#aH" width="8.2" height="4.2" transform="rotate(82.178 7.377 -17.99)scale(.9964 -.9964)"/><use xlink:href="#aI" width="17.8" height="23.4" transform="matrix(.1393 .9873 .6388 -.0901 -27.15 -35.85)"/><use xlink:href="#aJ" width="12.5" height="13.6" transform="matrix(-.4285 -.1031 -.2327 .9672 -2.45 -41.75)"/><use xlink:href="#aK" width="15.6" height="14.7" transform="matrix(-.8613 .5051 .5051 .8613 -3.35 -39.55)"/><use xlink:href="#aL" width="14.3" height="12.2" transform="matrix(-.8613 .5051 .5051 .8613 -9.35 -37.35)"/><use xlink:href="#aM" width="22.8" height="22" transform="rotate(-25.341 -97.633 47.675)scale(.9255)"/><use xlink:href="#aN" width="12.5" height="13.6" transform="matrix(-.9525 .2971 .2971 .9525 -8.6 -35.95)"/><use xlink:href="#aO" width="12.9" height="15.4" transform="matrix(-.8613 .5051 .5051 .8613 -3.7 -37.6)"/><use xlink:href="#aP" width="8.5" height="8.8" transform="matrix(-.8814 .4696 .4696 .8814 1.4 -41.65)"/></g></g><g clip-path="url(#bc)"><g transform="translate(997.3 59.8)"><use xlink:href="#an" width="14" height="9" transform="matrix(-1.0076 .0703 .2285 .9746 12.4 -7.8)"/><use xlink:href="#ao" width="10.7" height="15" transform="matrix(-.9844 -.1567 -.1567 .9844 7.4 -19.7)"/><use xlink:href="#ap" width="14" height="9" transform="matrix(-.9887 -.1268 -.0889 1 2.8 -2.05)"/><use xlink:href="#aq" width="8.2" height="4.2" transform="matrix(.1331 .7709 .9811 -.1694 -5.05 -24.2)"/><use xlink:href="#ar" width="10.7" height="15" transform="matrix(-.9564 -.2843 -.3136 .9476 1.45 -13.9)"/><use xlink:href="#aH" width="8.2" height="4.2" transform="matrix(.0531 .9945 .9945 -.0531 -10.3 -23.5)"/><use xlink:href="#aI" width="17.8" height="23.4" transform="matrix(-.0608 .9944 .7729 .0473 -27.2 -38.9)"/><use xlink:href="#aJ" width="12.5" height="13.6" transform="matrix(-.4209 -.1289 -.291 .9501 -.15 -41.6)"/><use xlink:href="#aK" width="15.6" height="14.7" transform="matrix(-.8897 .4498 .4498 .8897 -1.25 -39.5)"/><use xlink:href="#aL" width="14.3" height="12.2" transform="rotate(153.18 .863 -19.69)scale(.997 -.997)"/><use xlink:href="#aM" width="22.8" height="22" transform="rotate(-21.791 -114.61 52.422)scale(.9242)"/><use xlink:href="#aN" width="12.5" height="13.6" transform="matrix(-.9681 .2374 .2374 .9681 -6.65 -36.2)"/><use xlink:href="#aO" width="12.9" height="15.4" transform="matrix(-.8897 .4498 .4498 .8897 -1.6 -37.55)"/><use xlink:href="#aP" width="8.5" height="8.8" transform="matrix(-.8491 .5164 .5166 .8151 2.9 -40.95)"/></g></g><g clip-path="url(#bd)"><g transform="translate(1071.3 59.8)"><use xlink:href="#an" width="14" height="9" transform="matrix(-1.0076 .0703 .2285 .9746 12.4 -7.8)"/><use xlink:href="#ao" width="10.7" height="15" transform="matrix(-.9798 -.1821 -.1821 .9798 7.8 -19.6)"/><use xlink:href="#ap" width="14" height="9" transform="matrix(-.9887 -.1268 -.0889 1 2.8 -2.05)"/><use xlink:href="#aq" width="8.2" height="4.2" transform="matrix(.0825 .7779 .99 -.105 -4.6 -24.4)"/><use xlink:href="#ar" width="10.7" height="15" transform="matrix(-.9397 -.3343 -.3662 .9282 2 -13.8)"/><use xlink:href="#aH" width="8.2" height="4.2" transform="matrix(-.0223 .9956 .9956 .0223 -9.3 -23.95)"/><use xlink:href="#aI" width="17.8" height="23.4" transform="matrix(-.2579 .961 .8724 .2341 -27 -42.15)"/><use xlink:href="#aJ" width="12.5" height="13.6" transform="matrix(-.4121 -.1544 -.3485 .9301 2.2 -41.5)"/><use xlink:href="#aK" width="15.6" height="14.7" transform="matrix(-.9155 .3944 .3944 .9155 1 -39.5)"/><use xlink:href="#aL" width="14.3" height="12.2" transform="matrix(-.9155 .3944 .3944 .9155 -5.2 -37.95)"/><use xlink:href="#aM" width="22.8" height="22" transform="rotate(-18.282 -137.952 58.932)scale(.9241)"/><use xlink:href="#aN" width="12.5" height="13.6" transform="matrix(-.9808 .1776 .1776 .9808 -4.6 -36.4)"/><use xlink:href="#aO" width="12.9" height="15.4" transform="matrix(-.9155 .3944 .3944 .9155 .4 -37.45)"/><use xlink:href="#aP" width="8.5" height="8.8" transform="matrix(-.8175 .5591 .5596 .7462 4.4 -40.15)"/></g></g><g clip-path="url(#be)"><g transform="translate(1145.3 59.8)"><use xlink:href="#an" width="14" height="9" transform="matrix(-1.0076 .0703 .2285 .9746 12.4 -7.8)"/><use xlink:href="#ao" width="10.7" height="15" transform="matrix(-.9752 -.2079 -.2079 .9752 8.2 -19.45)"/><use xlink:href="#ap" width="14" height="9" transform="matrix(-.9887 -.1268 -.0889 1 2.8 -2.05)"/><use xlink:href="#aq" width="8.2" height="4.2" transform="matrix(.0346 .7816 .9947 -.044 -4.1 -24.7)"/><use xlink:href="#ar" width="10.7" height="15" transform="matrix(-.92 -.3876 -.416 .908 2.45 -13.6)"/><use xlink:href="#aH" width="8.2" height="4.2" transform="matrix(-.1037 .9902 .9902 .1037 -8.1 -24.5)"/><use xlink:href="#aI" width="17.8" height="23.4" transform="matrix(-.4452 .8901 .9243 .4623 -26.25 -45.55)"/><use xlink:href="#aJ" width="12.5" height="13.6" transform="matrix(-.4021 -.1798 -.4058 .9076 4.4 -41.3)"/><use xlink:href="#aK" width="15.6" height="14.7" transform="matrix(-.9387 .3385 .3385 .9387 3.15 -39.3)"/><use xlink:href="#aL" width="14.3" height="12.2" transform="matrix(-.9387 .3385 .3385 .9387 -3.15 -38.2)"/><use xlink:href="#aM" width="22.8" height="22" transform="rotate(-14.777 -172.825 68.941)scale(.9249)"/><use xlink:href="#aN" width="12.5" height="13.6" transform="matrix(-.9902 .1174 .1174 .9902 -2.6 -36.7)"/><use xlink:href="#aO" width="12.9" height="15.4" transform="matrix(-.9387 .3385 .3385 .9387 2.45 -37.4)"/><use xlink:href="#aP" width="8.5" height="8.8" transform="matrix(-.782 .6046 .5964 .6767 5.95 -39.35)"/></g></g><g clip-path="url(#bf)"><g transform="translate(1219.3 59.8)"><use xlink:href="#an" width="14" height="9" transform="matrix(-1.0076 .0703 .2285 .9746 12.4 -7.8)"/><use xlink:href="#ao" width="10.7" height="15" transform="rotate(25.325 43.417 20.52)scale(-.9964 .9964)"/><use xlink:href="#ap" width="14" height="9" transform="matrix(-.9887 -.1268 -.0889 1 2.8 -2.05)"/><use xlink:href="#aq" width="8.2" height="4.2" transform="matrix(-.697 .3605 .4588 .887 6.8 -21.6)"/><use xlink:href="#ar" width="10.7" height="15" transform="matrix(-.6848 -.7258 -.747 .6624 4.95 -8.75)"/><use xlink:href="#aH" width="8.2" height="4.2" transform="matrix(-.887 .4588 .4588 .887 1.75 -19.8)"/><use xlink:href="#aI" width="17.8" height="23.4" transform="rotate(8.782 321.143 62.13)scale(-.9963 .9963)"/><use xlink:href="#aJ" width="12.5" height="13.6" transform="matrix(-.2308 -.3759 -.8483 .5209 21.25 -24.6)"/><use xlink:href="#aK" width="15.6" height="14.7" transform="matrix(-.9672 -.2507 -.2507 .9672 19.05 -23.65)"/><use xlink:href="#aL" width="14.3" height="12.2" transform="matrix(-.9672 -.2507 -.2507 .9672 13.2 -26.35)"/><use xlink:href="#aM" width="22.8" height="22" transform="rotate(19.581 117.228 -24.406)scale(.9262)"/><use xlink:href="#aN" width="12.5" height="13.6" transform="matrix(-.8849 -.4625 -.4625 .8849 12.8 -24.8)"/><use xlink:href="#aO" width="12.9" height="15.4" transform="matrix(-.9672 -.2507 -.2507 .9672 17.4 -22.5)"/></g></g><g clip-path="url(#bg)"><g transform="translate(1293.3 59.8)"><use xlink:href="#an" width="14" height="9" transform="matrix(-1.0076 .0703 .2285 .9746 12.4 -7.8)"/><use xlink:href="#ao" width="10.7" height="15" transform="matrix(-.8915 -.4407 -.4407 .8915 13.3 -16.4)"/><use xlink:href="#ap" width="14" height="9" transform="matrix(-.9887 -.1268 -.0889 1 2.8 -2.05)"/><use xlink:href="#aq" width="8.2" height="4.2" transform="matrix(-.6959 .3594 .4574 .8857 6.85 -21.6)"/><use xlink:href="#ar" width="10.7" height="15" transform="matrix(-.6995 -.7084 -.7301 .6775 5 -9.05)"/><use xlink:href="#aH" width="8.2" height="4.2" transform="matrix(-.8936 .4418 .4418 .8936 2.2 -20.1)"/><use xlink:href="#aI" width="17.8" height="23.4" transform="matrix(-1.0273 -.1768 -.3399 1.0114 19.15 -49.45)"/><use xlink:href="#aJ" width="12.5" height="13.6" transform="rotate(61.199 31.876 6.141)scale(-.4403 .9936)"/><use xlink:href="#aK" width="15.6" height="14.7" transform="rotate(17.282 88.65 52.842)scale(-.9977 .9977)"/><use xlink:href="#aL" width="14.3" height="12.2" transform="matrix(-.9527 -.2964 -.2964 .9527 13.95 -26.9)"/><use xlink:href="#aM" width="22.8" height="22" transform="rotate(22.304 106.346 -20.57)scale(.9246)"/><use xlink:href="#aN" width="12.5" height="13.6" transform="matrix(-.8601 -.5031 -.5031 .8601 13.5 -25.35)"/><use xlink:href="#aO" width="12.9" height="15.4" transform="rotate(17.282 84.321 47.61)scale(-.9977 .9977)"/></g></g><g clip-path="url(#bh)"><g transform="translate(1367.3 59.8)"><use xlink:href="#an" width="14" height="9" transform="matrix(-1.0076 .0703 .2285 .9746 12.4 -7.8)"/><use xlink:href="#ao" width="10.7" height="15" transform="rotate(27.308 40.12 19.79)scale(-.994 .994)"/><use xlink:href="#ap" width="14" height="9" transform="matrix(-.9887 -.1268 -.0889 1 2.8 -2.05)"/><use xlink:href="#aq" width="8.2" height="4.2" transform="matrix(-.6957 .3592 .4571 .8854 6.85 -21.6)"/><use xlink:href="#ar" width="10.7" height="15" transform="matrix(-.7169 -.6898 -.7145 .6929 5.15 -9.2)"/><use xlink:href="#aH" width="8.2" height="4.2" transform="matrix(-.9008 .4259 .4259 .9008 2.65 -20.25)"/><use xlink:href="#aI" width="17.8" height="23.4" transform="matrix(-1.0697 -.2034 -.5446 .9995 25.35 -50.15)"/><use xlink:href="#aJ" width="12.5" height="13.6" transform="matrix(-.1931 -.3953 -.8923 .436 22.7 -24.9)"/><use xlink:href="#aK" width="15.6" height="14.7" transform="rotate(20.038 78.664 45.493)scale(-.997 .997)"/><use xlink:href="#aL" width="14.3" height="12.2" transform="rotate(20.038 84.97 28.328)scale(-.997 .997)"/><use xlink:href="#aM" width="22.8" height="22" transform="rotate(25.064 97.823 -17.614)scale(.9239)"/><use xlink:href="#aN" width="12.5" height="13.6" transform="matrix(-.8343 -.5437 -.5437 .8343 14.2 -25.85)"/><use xlink:href="#aO" width="12.9" height="15.4" transform="rotate(20.038 74.96 41.04)scale(-.997 .997)"/></g></g><g clip-path="url(#bi)"><g transform="translate(1441.3 59.8)"><use xlink:href="#an" width="14" height="9" transform="matrix(-1.0076 .0703 .2285 .9746 12.4 -7.8)"/><use xlink:href="#ao" width="10.7" height="15" transform="matrix(-.8758 -.4718 -.4718 .8758 13.75 -16)"/><use xlink:href="#ap" width="14" height="9" transform="matrix(-.9887 -.1268 -.0889 1 2.8 -2.05)"/><use xlink:href="#aq" width="8.2" height="4.2" transform="matrix(-.6962 .3596 .4576 .8861 6.8 -21.6)"/><use xlink:href="#ar" width="10.7" height="15" transform="matrix(-.7325 -.6746 -.6995 .7094 5.15 -9.55)"/><use xlink:href="#aH" width="8.2" height="4.2" transform="matrix(-.9089 .4105 .4105 .9089 3.15 -20.45)"/><use xlink:href="#aI" width="17.8" height="23.4" transform="matrix(-1.1121 -.2323 -.7561 .9467 31.6 -50.35)"/><use xlink:href="#aJ" width="12.5" height="13.6" transform="matrix(-.1738 -.4046 -.9132 .3922 23.3 -25.05)"/><use xlink:href="#aK" width="15.6" height="14.7" transform="matrix(-.9193 -.3872 -.3872 .9193 21 -24.4)"/><use xlink:href="#aL" width="14.3" height="12.2" transform="rotate(22.84 76.76 24.812)scale(-.9975 .9975)"/><use xlink:href="#aM" width="22.8" height="22" transform="rotate(27.89 90.628 -15.556)scale(.9246)"/><use xlink:href="#aN" width="12.5" height="13.6" transform="matrix(-.8074 -.5845 -.5845 .8074 15 -26.45)"/><use xlink:href="#aO" width="12.9" height="15.4" transform="matrix(-.9193 -.3872 -.3872 .9193 19.2 -23.5)"/></g></g><g clip-path="url(#bj)"><g transform="translate(1515.3 59.8)"><use xlink:href="#an" width="14" height="9" transform="matrix(-1.0076 .0703 .2285 .9746 12.4 -7.8)"/><use xlink:href="#ao" width="10.7" height="15" transform="matrix(-.8685 -.4879 -.4879 .8685 13.95 -15.8)"/><use xlink:href="#ap" width="14" height="9" transform="matrix(-.9887 -.1268 -.0889 1 2.8 -2.05)"/><use xlink:href="#aq" width="8.2" height="4.2" transform="matrix(-.697 .3605 .4588 .887 6.8 -21.6)"/><use xlink:href="#ar" width="10.7" height="15" transform="matrix(-.7477 -.66 -.683 .7273 5.25 -9.8)"/><use xlink:href="#aH" width="8.2" height="4.2" transform="matrix(-.9167 .3957 .3957 .9167 3.6 -20.8)"/><use xlink:href="#aI" width="17.8" height="23.4" transform="matrix(-1.1536 -.2655 -.965 .8499 38.55 -47.05)"/><use xlink:href="#aJ" width="12.5" height="13.6" transform="matrix(-.1526 -.4135 -.9333 .3446 23.85 -25)"/><use xlink:href="#aK" width="15.6" height="14.7" transform="rotate(25.813 64.342 34.746)scale(-.9985 .9985)"/><use xlink:href="#aL" width="14.3" height="12.2" transform="matrix(-.8989 -.4348 -.4348 .8989 16.4 -28.3)"/><use xlink:href="#aM" width="22.8" height="22" transform="rotate(30.863 84.414 -13.75)scale(.9256)"/><use xlink:href="#aN" width="12.5" height="13.6" transform="rotate(38.878 45.936 8.722)scale(-.9978 .9978)"/><use xlink:href="#aO" width="12.9" height="15.4" transform="rotate(25.813 61.697 31.219)scale(-.9985 .9985)"/></g></g><g clip-path="url(#bk)"><g transform="translate(1589.3 59.8)"><use xlink:href="#an" width="14" height="9" transform="matrix(-1.0076 .0703 .2285 .9746 12.4 -7.8)"/><use xlink:href="#ao" width="10.7" height="15" transform="matrix(-.8673 -.487 -.487 .8673 13.95 -15.75)"/><use xlink:href="#ap" width="14" height="9" transform="matrix(-.9887 -.1268 -.0889 1 2.8 -2.05)"/><use xlink:href="#aq" width="8.2" height="4.2" transform="matrix(-.697 .3605 .4588 .887 6.8 -21.6)"/><use xlink:href="#ar" width="10.7" height="15" transform="matrix(-.7471 -.6582 -.6811 .7269 5.25 -9.8)"/><use xlink:href="#aH" width="8.2" height="4.2" transform="matrix(-.9159 .3945 .3945 .9159 3.55 -20.7)"/><use xlink:href="#aI" width="17.8" height="23.4" transform="matrix(-1.1535 -.2623 -.9636 .8484 38.45 -47.05)"/><use xlink:href="#aJ" width="12.5" height="13.6" transform="matrix(-.1526 -.413 -.9322 .3444 23.85 -25.05)"/><use xlink:href="#aK" width="15.6" height="14.7" transform="rotate(25.804 64.47 34.738)scale(-.9972 .9972)"/><use xlink:href="#aL" width="14.3" height="12.2" transform="matrix(-.8978 -.4341 -.4341 .8978 16.4 -28.25)"/><use xlink:href="#aM" width="22.8" height="22" transform="rotate(30.828 84.306 -13.78)scale(.9242)"/><use xlink:href="#aN" width="12.5" height="13.6" transform="matrix(-.7758 -.625 -.625 .7758 15.7 -26.9)"/><use xlink:href="#aO" width="12.9" height="15.4" transform="rotate(25.804 61.69 31.125)scale(-.9972 .9972)"/></g></g><g clip-path="url(#bl)"><g transform="translate(1663.3 59.8)"><use xlink:href="#an" width="14" height="9" transform="matrix(-1.0076 .0703 .2285 .9746 12.4 -7.8)"/><use xlink:href="#ao" width="10.7" height="15" transform="matrix(-.8796 -.4648 -.4648 .8796 13.55 -16)"/><use xlink:href="#ap" width="14" height="9" transform="matrix(-.9887 -.1268 -.0889 1 2.8 -2.05)"/><use xlink:href="#aq" width="8.2" height="4.2" transform="matrix(-.697 .3605 .4588 .887 6.8 -21.6)"/><use xlink:href="#ar" width="10.7" height="15" transform="matrix(-.7556 -.6485 -.6741 .7334 5 -9.8)"/><use xlink:href="#aH" width="8.2" height="4.2" transform="matrix(-.9069 .4148 .4148 .9069 3 -20.4)"/><use xlink:href="#aI" width="17.8" height="23.4" transform="matrix(-1.0698 -.3334 -.7813 .8947 32.6 -46.5)"/><use xlink:href="#aJ" width="12.5" height="13.6" transform="matrix(-.1794 -.4021 -.9077 .4048 23 -25.9)"/><use xlink:href="#aK" width="15.6" height="14.7" transform="rotate(22.037 75.188 40.53)scale(-.9976 .9976)"/><use xlink:href="#aL" width="14.3" height="12.2" transform="matrix(-.9247 -.3743 -.3743 .9247 15.35 -28.6)"/><use xlink:href="#aM" width="22.8" height="22" transform="rotate(27.061 94.043 -16.586)scale(.9245)"/><use xlink:href="#aN" width="12.5" height="13.6" transform="rotate(35.092 50.467 9.7)scale(-.9965 .9965)"/><use xlink:href="#aO" width="12.9" height="15.4" transform="rotate(22.037 71.873 36.51)scale(-.9976 .9976)"/></g></g><g clip-path="url(#bm)"><g transform="translate(1737.3 59.8)"><use xlink:href="#an" width="14" height="9" transform="matrix(-1.0076 .0703 .2285 .9746 12.4 -7.8)"/><use xlink:href="#ao" width="10.7" height="15" transform="rotate(26.575 41.16 20.009)scale(-.995 .995)"/><use xlink:href="#ap" width="14" height="9" transform="matrix(-.9887 -.1268 -.0889 1 2.8 -2.05)"/><use xlink:href="#aq" width="8.2" height="4.2" transform="matrix(-.697 .3605 .4588 .887 6.8 -21.6)"/><use xlink:href="#ar" width="10.7" height="15" transform="matrix(-.7618 -.6413 -.6647 .7421 4.75 -9.7)"/><use xlink:href="#aH" width="8.2" height="4.2" transform="matrix(-.896 .4378 .4378 .896 2.4 -20.05)"/><use xlink:href="#aI" width="17.8" height="23.4" transform="matrix(-.9825 -.3931 -.6075 .9072 26.85 -45.65)"/><use xlink:href="#aJ" width="12.5" height="13.6" transform="rotate(62.197 33.165 5.035)scale(-.4403 .994)"/><use xlink:href="#aK" width="15.6" height="14.7" transform="matrix(-.9476 -.313 -.313 .9476 19.9 -25.9)"/><use xlink:href="#aL" width="14.3" height="12.2" transform="matrix(-.9476 -.313 -.313 .9476 14.3 -28.9)"/><use xlink:href="#aM" width="22.8" height="22" transform="rotate(23.305 107.296 -20.232)scale(.9249)"/><use xlink:href="#aN" width="12.5" height="13.6" transform="rotate(31.328 55.82 10.792)scale(-.9968 .9968)"/><use xlink:href="#aO" width="12.9" height="15.4" transform="matrix(-.9476 -.313 -.313 .9476 18.2 -24.8)"/></g></g><g clip-path="url(#bn)"><g transform="translate(1811.3 59.8)"><use xlink:href="#an" width="14" height="9" transform="matrix(-1.0076 .0703 .2285 .9746 12.4 -7.8)"/><use xlink:href="#ao" width="10.7" height="15" transform="rotate(25.325 43.417 20.52)scale(-.9964 .9964)"/><use xlink:href="#ap" width="14" height="9" transform="matrix(-.9887 -.1268 -.0889 1 2.8 -2.05)"/><use xlink:href="#aq" width="8.2" height="4.2" transform="matrix(-.697 .3605 .4588 .887 6.8 -21.6)"/><use xlink:href="#ar" width="10.7" height="15" transform="matrix(-.7712 -.6326 -.6564 .7516 4.6 -9.7)"/><use xlink:href="#aH" width="8.2" height="4.2" transform="matrix(-.887 .4588 .4588 .887 1.75 -19.8)"/><use xlink:href="#aI" width="17.8" height="23.4" transform="matrix(-.894 -.442 -.442 .894 21.15 -44.6)"/><use xlink:href="#aJ" width="12.5" height="13.6" transform="matrix(-.2308 -.3759 -.8483 .5209 21.25 -27.45)"/><use xlink:href="#aK" width="15.6" height="14.7" transform="matrix(-.9672 -.2507 -.2507 .9672 19.05 -26.5)"/><use xlink:href="#aL" width="14.3" height="12.2" transform="matrix(-.9672 -.2507 -.2507 .9672 13.2 -29.2)"/><use xlink:href="#aM" width="22.8" height="22" transform="rotate(19.581 125.486 -25.831)scale(.9262)"/><use xlink:href="#aN" width="12.5" height="13.6" transform="matrix(-.8849 -.4625 -.4625 .8849 12.8 -27.65)"/><use xlink:href="#aO" width="12.9" height="15.4" transform="matrix(-.9672 -.2507 -.2507 .9672 17.4 -25.35)"/></g></g><g clip-path="url(#bo)"><g transform="translate(1885.3 59.8)"><use xlink:href="#an" width="14" height="9" transform="matrix(-1.0076 .0703 .2285 .9746 12.4 -7.8)"/><use xlink:href="#O" width="8.9" height="14.1" transform="rotate(17.765 64.38 16.649)scale(-.996 .996)"/><use xlink:href="#P" width="9.4" height="11.8" transform="rotate(17.765 53.003 20.393)scale(-.996 .996)"/><use xlink:href="#ap" width="14" height="9" transform="matrix(-.9887 -.1268 -.0889 1 2.8 -2.05)"/><use xlink:href="#J" width="8.2" height="4.2" transform="matrix(-.6929 .3659 .4657 .8819 5.1 -24.75)"/><use xlink:href="#K" width="8" height="4" transform="matrix(-.6929 .3659 .4657 .8819 5.1 -24.65)"/><use xlink:href="#H" width="8.9" height="14.1" transform="matrix(-.8464 -.5651 -.5644 .9977 2.4 -15.05)"/><use xlink:href="#I" width="9.4" height="11.8" transform="matrix(-.8464 -.5651 -.5644 .9977 2 -10.85)"/><use xlink:href="#C" width="8.2" height="4.2" transform="matrix(-.957 .3941 .2923 1.094 1.3 -23.6)"/><use xlink:href="#G" width="8" height="4" transform="matrix(-.957 .3941 .2923 1.094 1.25 -23.45)"/><use xlink:href="#aI" width="17.8" height="23.4" transform="matrix(-.9593 .2667 .2667 .9593 .25 -58.8)"/><use xlink:href="#aJ" width="12.5" height="13.6" transform="rotate(52.944 41.637 -.56)scale(-.441 .9952)"/><use xlink:href="#aK" width="15.6" height="14.7" transform="rotate(9.031 211.831 72.775)scale(-.9989 .9989)"/><use xlink:href="#aL" width="14.3" height="12.2" transform="matrix(-.9865 -.1568 -.1568 .9865 8 -34.4)"/><use xlink:href="#aM" width="22.8" height="22" transform="rotate(14.077 187.78 -55.87)scale(.9259)"/><use xlink:href="#aN" width="12.5" height="13.6" transform="rotate(22.091 87.966 3.17)scale(-.9982 .9982)"/><use xlink:href="#aO" width="12.9" height="15.4" transform="matrix(-.9865 -.1568 -.1568 .9865 12.5 -31)"/><use xlink:href="#aP" width="8.5" height="8.8" transform="rotate(-165.46 7.932 -14.3)scale(.9986 -.9986)"/></g></g><g clip-path="url(#bp)"><g transform="translate(1959.3 59.8)"><use xlink:href="#an" width="14" height="9" transform="matrix(-1.0076 .0703 .2285 .9746 12.4 -7.8)"/><use xlink:href="#O" width="8.9" height="14.1" transform="matrix(-.9479 -.3039 -.3039 .9479 8 -18.85)"/><use xlink:href="#P" width="9.4" height="11.8" transform="matrix(-.9479 -.3039 -.3039 .9479 8.55 -15.15)"/><use xlink:href="#ap" width="14" height="9" transform="matrix(-.9887 -.1268 -.0889 1 2.8 -2.05)"/><use xlink:href="#J" width="8.2" height="4.2" transform="matrix(-.6933 .3625 .4613 .8824 4.1 -24.65)"/><use xlink:href="#K" width="8" height="4" transform="matrix(-.6933 .3625 .4613 .8824 4.1 -24.5)"/><use xlink:href="#H" width="8.9" height="14.1" transform="matrix(-.8612 -.5394 -.534 1.0125 2.15 -15.25)"/><use xlink:href="#I" width="9.4" height="11.8" transform="matrix(-.8612 -.5394 -.534 1.0125 1.9 -11)"/><use xlink:href="#C" width="8.2" height="4.2" transform="matrix(-.9564 .3925 .2893 1.0939 .7 -23.55)"/><use xlink:href="#G" width="8" height="4" transform="matrix(-.9564 .3925 .2893 1.0939 .7 -23.4)"/><use xlink:href="#aI" width="17.8" height="23.4" transform="matrix(-.9475 .3045 .3045 .9475 -1.8 -56.7)"/><use xlink:href="#aJ" width="12.5" height="13.6" transform="matrix(-.3036 -.3188 -.7195 .6853 14.5 -34.25)"/><use xlink:href="#aK" width="15.6" height="14.7" transform="rotate(2.507 761.391 272.48)scale(-.9989 .9989)"/><use xlink:href="#aL" width="14.3" height="12.2" transform="matrix(-.9979 -.0437 -.0437 .9979 6.35 -34.35)"/><use xlink:href="#aM" width="22.8" height="22" transform="rotate(7.524 337.963 -103.936)scale(.9256)"/><use xlink:href="#aN" width="12.5" height="13.6" transform="matrix(-.961 -.2672 -.2672 .961 6.25 -32.75)"/><use xlink:href="#aO" width="12.9" height="15.4" transform="matrix(-.9979 -.0437 -.0437 .9979 11.2 -31.5)"/><use xlink:href="#aP" width="8.5" height="8.8" transform="matrix(-.9908 -.1222 -.1222 .9908 17.4 -29.1)"/></g></g><g clip-path="url(#bq)"><g transform="translate(2033.3 59.8)"><use xlink:href="#an" width="14" height="9" transform="matrix(-1.0076 .0703 .2285 .9746 12.4 -7.8)"/><use xlink:href="#O" width="8.9" height="14.1" transform="matrix(-.9482 -.304 -.304 .9482 7.75 -18.9)"/><use xlink:href="#P" width="9.4" height="11.8" transform="matrix(-.9482 -.304 -.304 .9482 8.3 -15.2)"/><use xlink:href="#ap" width="14" height="9" transform="matrix(-.9887 -.1268 -.0889 1 2.8 -2.05)"/><use xlink:href="#J" width="8.2" height="4.2" transform="matrix(-.6933 .3621 .4609 .8824 3 -24.55)"/><use xlink:href="#K" width="8" height="4" transform="matrix(-.6933 .3621 .4609 .8824 3 -24.45)"/><use xlink:href="#H" width="8.9" height="14.1" transform="matrix(-.8772 -.513 -.503 1.0283 2 -15.45)"/><use xlink:href="#I" width="9.4" height="11.8" transform="matrix(-.8772 -.513 -.503 1.0283 1.75 -11.3)"/><use xlink:href="#C" width="8.2" height="4.2" transform="matrix(-.9564 .3925 .2893 1.0939 .15 -23.5)"/><use xlink:href="#G" width="8" height="4" transform="matrix(-.9564 .3925 .2893 1.0939 .15 -23.35)"/><use xlink:href="#aI" width="17.8" height="23.4" transform="matrix(-.9339 .3454 .3454 .9339 -3.8 -54.55)"/><use xlink:href="#aJ" width="12.5" height="13.6" transform="matrix(-.3379 -.2823 -.6371 .7627 12.85 -35)"/><use xlink:href="#aK" width="15.6" height="14.7" transform="matrix(-.9967 .0664 .0664 .9967 11.2 -33.5)"/><use xlink:href="#aL" width="14.3" height="12.2" transform="matrix(-.9967 .0664 .0664 .9967 4.75 -34.15)"/><use xlink:href="#aM" width="22.8" height="22" transform="rotate(1.015 2415.222 -780.778)scale(.926)"/><use xlink:href="#aN" width="12.5" height="13.6" transform="rotate(9.023 208.68 14.457)scale(-.9978 .9978)"/><use xlink:href="#aO" width="12.9" height="15.4" transform="matrix(-.9967 .0664 .0664 .9967 9.9 -31.85)"/><use xlink:href="#aP" width="8.5" height="8.8" transform="matrix(-.9987 .0046 .0046 .9987 15.45 -31.9)"/></g></g><g clip-path="url(#br)"><g transform="translate(2107.3 59.8)"><use xlink:href="#an" width="14" height="9" transform="matrix(-1.0076 .0703 .2285 .9746 12.4 -7.8)"/><use xlink:href="#O" width="8.9" height="14.1" transform="rotate(17.808 64.07 14.486)scale(-.997 .997)"/><use xlink:href="#P" width="9.4" height="11.8" transform="rotate(17.808 52.72 18.226)scale(-.997 .997)"/><use xlink:href="#ap" width="14" height="9" transform="matrix(-.9887 -.1268 -.0889 1 2.8 -2.05)"/><use xlink:href="#J" width="8.2" height="4.2" transform="matrix(-.6942 .3624 .4612 .8835 1.95 -24.5)"/><use xlink:href="#K" width="8" height="4" transform="matrix(-.6942 .3624 .4612 .8835 1.9 -24.35)"/><use xlink:href="#H" width="8.9" height="14.1" transform="matrix(-.893 -.4879 -.4739 1.0436 1.8 -15.65)"/><use xlink:href="#I" width="9.4" height="11.8" transform="matrix(-.893 -.4879 -.4739 1.0436 1.75 -11.45)"/><use xlink:href="#C" width="8.2" height="4.2" transform="matrix(-.957 .3941 .2923 1.094 -.45 -23.45)"/><use xlink:href="#G" width="8" height="4" transform="matrix(-.957 .3941 .2923 1.094 -.5 -23.3)"/><use xlink:href="#aI" width="17.8" height="23.4" transform="matrix(-.9197 .3858 .3858 .9197 -5.8 -52.55)"/><use xlink:href="#aJ" width="12.5" height="13.6" transform="matrix(-.3681 -.243 -.5484 .8308 11.15 -35.7)"/><use xlink:href="#aK" width="15.6" height="14.7" transform="matrix(-.9825 .182 .182 .9825 9.6 -33.95)"/><use xlink:href="#aL" width="14.3" height="12.2" transform="matrix(-.9825 .182 .182 .9825 3.15 -33.85)"/><use xlink:href="#aM" width="22.8" height="22" transform="rotate(-5.44 -436.438 149.627)scale(.9262)"/><use xlink:href="#aN" width="12.5" height="13.6" transform="matrix(-.9975 -.0448 -.0448 .9975 3.4 -32.3)"/><use xlink:href="#aO" width="12.9" height="15.4" transform="matrix(-.9825 .182 .182 .9825 8.55 -32.15)"/><use xlink:href="#aP" width="8.5" height="8.8" transform="matrix(-.9898 .1346 .1346 .9898 13.5 -34.65)"/></g></g><g clip-path="url(#bs)"><g transform="translate(2181.3 59.8)"><use xlink:href="#an" width="14" height="9" transform="matrix(-1.0076 .0703 .2285 .9746 12.4 -7.8)"/><use xlink:href="#O" width="8.9" height="14.1" transform="matrix(-.9823 -.1694 -.1694 .9823 6.3 -19)"/><use xlink:href="#P" width="9.4" height="11.8" transform="matrix(-.9823 -.1694 -.1694 .9823 7.5 -15.35)"/><use xlink:href="#ap" width="14" height="9" transform="matrix(-.9887 -.1268 -.0889 1 2.8 -2.05)"/><use xlink:href="#J" width="8.2" height="4.2" transform="matrix(-.6951 .3595 .4576 .8846 1.15 -23.25)"/><use xlink:href="#K" width="8" height="4" transform="matrix(-.6951 .3595 .4576 .8846 1.1 -23.1)"/><use xlink:href="#H" width="8.9" height="14.1" transform="matrix(-.9363 -.3797 -.3718 1.0313 .55 -15.3)"/><use xlink:href="#I" width="9.4" height="11.8" transform="matrix(-.9363 -.3797 -.3718 1.0313 1.05 -11.2)"/><use xlink:href="#C" width="8.2" height="4.2" transform="matrix(-.933 .4162 .3545 1.0272 -2.1 -21.95)"/><use xlink:href="#G" width="8" height="4" transform="matrix(-.933 .4162 .3545 1.0272 -2.2 -21.85)"/><use xlink:href="#aI" width="17.8" height="23.4" transform="matrix(-.9632 .2591 .2591 .9632 -4.3 -51.35)"/><use xlink:href="#aJ" width="12.5" height="13.6" transform="matrix(-.3524 -.2642 -.5964 .7954 9.9 -34.05)"/><use xlink:href="#aK" width="15.6" height="14.7" transform="matrix(-.992 .1185 .1185 .992 8.25 -32.4)"/><use xlink:href="#aL" width="14.3" height="12.2" transform="matrix(-.992 .1185 .1185 .992 1.9 -32.75)"/><use xlink:href="#aM" width="22.8" height="22" transform="rotate(-1.8 -1303.667 520.629)scale(.9263)"/><use xlink:href="#aN" width="12.5" height="13.6" transform="matrix(-.9929 -.1047 -.1047 .9929 2 -31.2)"/><use xlink:href="#aO" width="12.9" height="15.4" transform="matrix(-.992 .1185 .1185 .992 7.15 -30.7)"/><use xlink:href="#aP" width="8.5" height="8.8" transform="matrix(-.9951 .0878 .0878 .9951 12.5 -31.8)"/></g></g><g clip-path="url(#bt)"><g transform="translate(2255.3 59.8)"><use xlink:href="#an" width="14" height="9" transform="matrix(-1.0076 .0703 .2285 .9746 12.4 -7.8)"/><use xlink:href="#O" width="8.9" height="14.1" transform="matrix(-.9971 -.0311 -.0311 .9971 5.05 -18.95)"/><use xlink:href="#P" width="9.4" height="11.8" transform="matrix(-.9971 -.0311 -.0311 .9971 6.65 -15.55)"/><use xlink:href="#ap" width="14" height="9" transform="matrix(-.9887 -.1268 -.0889 1 2.8 -2.05)"/><use xlink:href="#J" width="8.2" height="4.2" transform="matrix(-.6957 .3595 .4576 .8854 .4 -22.05)"/><use xlink:href="#K" width="8" height="4" transform="matrix(-.6957 .3595 .4576 .8854 .35 -21.9)"/><use xlink:href="#H" width="8.9" height="14.1" transform="matrix(-.9678 -.2697 -.2769 1.0105 -.65 -14.75)"/><use xlink:href="#I" width="9.4" height="11.8" transform="matrix(-.9678 -.2697 -.2769 1.0105 .2 -11.05)"/><use xlink:href="#C" width="8.2" height="4.2" transform="matrix(-.9105 .4359 .4085 .9586 -3.7 -20.4)"/><use xlink:href="#G" width="8" height="4" transform="matrix(-.9105 .4359 .4085 .9586 -3.8 -20.25)"/><use xlink:href="#aI" width="17.8" height="23.4" transform="matrix(-.9901 .1308 .1308 .9901 -2.9 -50.1)"/><use xlink:href="#aJ" width="12.5" height="13.6" transform="matrix(-.3356 -.2854 -.6441 .7576 8.7 -32.4)"/><use xlink:href="#aK" width="15.6" height="14.7" transform="matrix(-.9979 .0578 .0578 .9979 6.95 -30.85)"/><use xlink:href="#aL" width="14.3" height="12.2" transform="matrix(-.9979 .0578 .0578 .9979 .6 -31.55)"/><use xlink:href="#aM" width="22.8" height="22" transform="rotate(1.515 1526.264 -689.55)scale(.9265)"/><use xlink:href="#aN" width="12.5" height="13.6" transform="matrix(-.9847 -.1652 -.1652 .9847 .5 -30)"/><use xlink:href="#aO" width="12.9" height="15.4" transform="matrix(-.9979 .0578 .0578 .9979 5.75 -29.2)"/><use xlink:href="#aP" width="8.5" height="8.8" transform="matrix(-.9985 .044 .044 .9985 11.5 -29.05)"/></g></g><g clip-path="url(#bu)"><g transform="translate(2329.3 59.8)"><use xlink:href="#an" width="14" height="9" transform="matrix(-1.0076 .0703 .2285 .9746 12.4 -7.8)"/><use xlink:href="#O" width="8.9" height="14.1" transform="matrix(-.9925 .1052 .1052 .9925 3.7 -18.75)"/><use xlink:href="#P" width="9.4" height="11.8" transform="rotate(173.95 3.265 -7.7)scale(.998 -.998)"/><use xlink:href="#ap" width="14" height="9" transform="matrix(-.9887 -.1268 -.0889 1 2.8 -2.05)"/><use xlink:href="#J" width="8.2" height="4.2" transform="matrix(-.697 .3605 .4588 .887 -.4 -20.8)"/><use xlink:href="#K" width="8" height="4" transform="matrix(-.697 .3605 .4588 .887 -.45 -20.65)"/><use xlink:href="#H" width="8.9" height="14.1" transform="matrix(-.9864 -.1609 -.1913 .9815 -1.85 -14.35)"/><use xlink:href="#I" width="9.4" height="11.8" transform="matrix(-.9864 -.1609 -.1913 .9815 -.8 -10.9)"/><use xlink:href="#C" width="8.2" height="4.2" transform="matrix(-.887 .4588 .4588 .887 -5.4 -18.85)"/><use xlink:href="#G" width="8" height="4" transform="matrix(-.887 .4588 .4588 .887 -5.45 -18.7)"/><use xlink:href="#aI" width="17.8" height="23.4" transform="matrix(-1 0 0 1 -1.7 -48.45)"/><use xlink:href="#aJ" width="12.5" height="13.6" transform="matrix(-.3179 -.3062 -.6911 .7177 7.45 -30.75)"/><use xlink:href="#aK" width="15.6" height="14.7" transform="matrix(-1 0 0 1 5.55 -29.3)"/><use xlink:href="#aL" width="14.3" height="12.2" transform="matrix(-1 0 0 1 -.75 -30.4)"/><use xlink:href="#aM" width="22.8" height="22" transform="rotate(5.05 451.574 -230.626)scale(.9269)"/><use xlink:href="#aN" width="12.5" height="13.6" transform="matrix(-.9734 -.2259 -.2259 .9734 -.8 -28.8)"/><use xlink:href="#aO" width="12.9" height="15.4" transform="matrix(-1 0 0 1 4.25 -27.75)"/><use xlink:href="#aP" width="8.5" height="8.8" transform="matrix(-1 0 0 1 10.45 -26.15)"/></g></g></svg>