<svg xmlns="http://www.w3.org/2000/svg" xmlns:xlink="http://www.w3.org/1999/xlink" width="3326" height="40" viewBox="0 0 3326 40"><defs><clipPath id="n"><path d="M1 1h34v38H1z"/></clipPath><clipPath id="p"><path d="M36 1h34v38H36z"/></clipPath><clipPath id="q"><path d="M71 1h34v38H71z"/></clipPath><clipPath id="r"><path d="M106 1h34v38h-34z"/></clipPath><clipPath id="s"><path d="M141 1h34v38h-34z"/></clipPath><clipPath id="t"><path d="M176 1h34v38h-34z"/></clipPath><clipPath id="u"><path d="M211 1h34v38h-34z"/></clipPath><clipPath id="v"><path d="M246 1h34v38h-34z"/></clipPath><clipPath id="w"><path d="M281 1h34v38h-34z"/></clipPath><clipPath id="x"><path d="M316 1h34v38h-34z"/></clipPath><clipPath id="y"><path d="M351 1h34v38h-34z"/></clipPath><clipPath id="z"><path d="M386 1h34v38h-34z"/></clipPath><clipPath id="A"><path d="M421 1h34v38h-34z"/></clipPath><clipPath id="B"><path d="M456 1h34v38h-34z"/></clipPath><clipPath id="C"><path d="M491 1h34v38h-34z"/></clipPath><clipPath id="D"><path d="M526 1h34v38h-34z"/></clipPath><clipPath id="E"><path d="M561 1h34v38h-34z"/></clipPath><clipPath id="F"><path d="M596 1h34v38h-34z"/></clipPath><clipPath id="G"><path d="M631 1h34v38h-34z"/></clipPath><clipPath id="H"><path d="M666 1h34v38h-34z"/></clipPath><clipPath id="I"><path d="M701 1h34v38h-34z"/></clipPath><clipPath id="J"><path d="M736 1h34v38h-34z"/></clipPath><clipPath id="K"><path d="M771 1h34v38h-34z"/></clipPath><clipPath id="L"><path d="M806 1h34v38h-34z"/></clipPath><clipPath id="N"><path d="M841 1h34v38h-34z"/></clipPath><clipPath id="P"><path d="M876 1h34v38h-34z"/></clipPath><clipPath id="R"><path d="M911 1h34v38h-34z"/></clipPath><clipPath id="T"><path d="M946 1h34v38h-34z"/></clipPath><clipPath id="V"><path d="M981 1h34v38h-34z"/></clipPath><clipPath id="X"><path d="M1016 1h34v38h-34z"/></clipPath><clipPath id="Z"><path d="M1051 1h34v38h-34z"/></clipPath><clipPath id="ab"><path d="M1086 1h34v38h-34z"/></clipPath><clipPath id="ad"><path d="M1121 1h34v38h-34z"/></clipPath><clipPath id="af"><path d="M1156 1h34v38h-34z"/></clipPath><clipPath id="ah"><path d="M1191 1h34v38h-34z"/></clipPath><clipPath id="aj"><path d="M1226 1h34v38h-34z"/></clipPath><clipPath id="ak"><path d="M1261 1h34v38h-34z"/></clipPath><clipPath id="al"><path d="M1296 1h34v38h-34z"/></clipPath><clipPath id="am"><path d="M1331 1h34v38h-34z"/></clipPath><clipPath id="an"><path d="M1366 1h34v38h-34z"/></clipPath><clipPath id="ao"><path d="M1401 1h34v38h-34z"/></clipPath><clipPath id="ap"><path d="M1436 1h34v38h-34z"/></clipPath><clipPath id="aq"><path d="M1471 1h34v38h-34z"/></clipPath><clipPath id="ar"><path d="M1506 1h34v38h-34z"/></clipPath><clipPath id="as"><path d="M1541 1h34v38h-34z"/></clipPath><clipPath id="at"><path d="M1576 1h34v38h-34z"/></clipPath><clipPath id="au"><path d="M1611 1h34v38h-34z"/></clipPath><clipPath id="av"><path d="M1646 1h34v38h-34z"/></clipPath><clipPath id="aw"><path d="M1681 1h34v38h-34z"/></clipPath><clipPath id="ax"><path d="M1716 1h34v38h-34z"/></clipPath><clipPath id="ay"><path d="M1751 1h34v38h-34z"/></clipPath><clipPath id="az"><path d="M1786 1h34v38h-34z"/></clipPath><clipPath id="aA"><path d="M1821 1h34v38h-34z"/></clipPath><clipPath id="aB"><path d="M1856 1h34v38h-34z"/></clipPath><clipPath id="aC"><path d="M1891 1h34v38h-34z"/></clipPath><clipPath id="aD"><path d="M1926 1h34v38h-34z"/></clipPath><clipPath id="aE"><path d="M1961 1h34v38h-34z"/></clipPath><clipPath id="aF"><path d="M1996 1h34v38h-34z"/></clipPath><clipPath id="aG"><path d="M2031 1h34v38h-34z"/></clipPath><clipPath id="aH"><path d="M2066 1h34v38h-34z"/></clipPath><clipPath id="aI"><path d="M2101 1h34v38h-34z"/></clipPath><clipPath id="aJ"><path d="M2136 1h34v38h-34z"/></clipPath><clipPath id="aK"><path d="M2171 1h34v38h-34z"/></clipPath><clipPath id="aL"><path d="M2206 1h34v38h-34z"/></clipPath><clipPath id="aM"><path d="M2241 1h34v38h-34z"/></clipPath><clipPath id="aN"><path d="M2276 1h34v38h-34z"/></clipPath><clipPath id="aO"><path d="M2311 1h34v38h-34z"/></clipPath><clipPath id="aP"><path d="M2346 1h34v38h-34z"/></clipPath><clipPath id="aQ"><path d="M2381 1h34v38h-34z"/></clipPath><clipPath id="aR"><path d="M2416 1h34v38h-34z"/></clipPath><clipPath id="aS"><path d="M2451 1h34v38h-34z"/></clipPath><clipPath id="aT"><path d="M2486 1h34v38h-34z"/></clipPath><clipPath id="aU"><path d="M2521 1h34v38h-34z"/></clipPath><clipPath id="aV"><path d="M2556 1h34v38h-34z"/></clipPath><clipPath id="aW"><path d="M2591 1h34v38h-34z"/></clipPath><clipPath id="aX"><path d="M2626 1h34v38h-34z"/></clipPath><clipPath id="aY"><path d="M2661 1h34v38h-34z"/></clipPath><clipPath id="aZ"><path d="M2696 1h34v38h-34z"/></clipPath><clipPath id="ba"><path d="M2731 1h34v38h-34z"/></clipPath><clipPath id="bb"><path d="M2766 1h34v38h-34z"/></clipPath><clipPath id="bc"><path d="M2801 1h34v38h-34z"/></clipPath><clipPath id="bd"><path d="M2836 1h34v38h-34z"/></clipPath><clipPath id="be"><path d="M2871 1h34v38h-34z"/></clipPath><clipPath id="bf"><path d="M2906 1h34v38h-34z"/></clipPath><clipPath id="bg"><path d="M2941 1h34v38h-34z"/></clipPath><clipPath id="bh"><path d="M2976 1h34v38h-34z"/></clipPath><clipPath id="bi"><path d="M3011 1h34v38h-34z"/></clipPath><clipPath id="bj"><path d="M3046 1h34v38h-34z"/></clipPath><clipPath id="bk"><path d="M3081 1h34v38h-34z"/></clipPath><clipPath id="bl"><path d="M3116 1h34v38h-34z"/></clipPath><clipPath id="bm"><path d="M3151 1h34v38h-34z"/></clipPath><clipPath id="bn"><path d="M3186 1h34v38h-34z"/></clipPath><clipPath id="bo"><path d="M3221 1h34v38h-34z"/></clipPath><clipPath id="bp"><path d="M3256 1h34v38h-34z"/></clipPath><clipPath id="bq"><path d="M3291 1h34v38h-34z"/></clipPath><use xlink:href="#a" id="ai" width="22.4" height="26.3" transform="translate(0 .2)"/><use xlink:href="#b" id="ag" width="22.4" height="26.3" transform="translate(0 .2)"/><use xlink:href="#c" id="ae" width="22.4" height="26.3" transform="translate(0 .2)"/><use xlink:href="#d" id="ac" width="22.4" height="26.3" transform="translate(0 .2)"/><use xlink:href="#e" id="aa" width="22.4" height="26.3" transform="translate(0 .2)"/><use xlink:href="#f" id="Y" width="22.4" height="26.3" transform="translate(0 .2)"/><use xlink:href="#g" id="W" width="22.4" height="26.3" transform="translate(0 .2)"/><use xlink:href="#h" id="U" width="22.4" height="26.3" transform="translate(0 .2)"/><use xlink:href="#i" id="S" width="22.4" height="26.3" transform="translate(0 .2)"/><use xlink:href="#j" id="Q" width="22.4" height="26.3" transform="translate(0 .2)"/><use xlink:href="#k" id="O" width="22.4" height="26.3" transform="translate(0 .2)"/><use xlink:href="#l" id="M" width="22.4" height="26.3" transform="translate(0 .2)"/><use xlink:href="#m" id="o" width="23" height="26.3" transform="translate(0 .2)"/><g id="a"><path fill="#f5d2bd" d="M13.5 23.5v-3.9l2-.4z"/><path fill="#c89a73" d="m13.6 19.6-.1 3.9-2-3.5z"/><path fill="none" stroke="#74582b" stroke-linecap="round" stroke-linejoin="round" stroke-width="__RESOLUTION__" d="m13.5 23.5 2-4.3-2 .4-2 .4z" vector-effect="non-scaling-stroke"/><path fill="#c89a73" d="M8.6 25.3Q6 23.6 6.4 21.2v-1h2.8q-2 2.2-.6 5.1"/><path fill="#f5d2bd" d="M8.6 25.3q-1.4-3 .6-5.1H12q-1.7 2.9-1.6 6.1-1-.4-1.8-1"/><path fill="none" stroke="#74582b" stroke-linecap="round" stroke-linejoin="round" stroke-width="__RESOLUTION__" d="M9.2 20.2H6.4v1q-.4 2.3 2.2 4.1l1.8 1q-.1-3.3 1.6-6.1z" vector-effect="non-scaling-stroke"/><path fill="#f5d2bd" d="M18.9 17.8h1.3l.9.1q.4 2.3-1.7 4.8 1.2-3.4-.5-5"/><path fill="#c89a73" d="M19.4 22.7 18 24q0-3.3-1.4-5.7l2.3-.7q1.7 1.6.5 5"/><path fill="none" stroke="#74582b" stroke-linecap="round" stroke-linejoin="round" stroke-width="__RESOLUTION__" d="M18.9 17.8h1.3l.9.1q.4 2.3-1.7 4.8L18 24q0-3.3-1.4-5.7z" vector-effect="non-scaling-stroke"/><path fill="#f5d2bd" d="M16.6 23v-3.8l2-.5z"/><path fill="#c89a73" d="M16.6 19.2V23l-2-3.4z"/><path fill="none" stroke="#74582b" stroke-linecap="round" stroke-linejoin="round" stroke-width="__RESOLUTION__" d="m16.6 23 2-4.2-2 .3-2 .4z" vector-effect="non-scaling-stroke"/><path fill="#f5d2bd" d="m7.8 0 7.6 2q2.5 3.7 2.8 7.4 1.8 4.3 2 9.5l-1.5.3-11.2.6-3.5-3L0 10l2.1-6.2h.2zM18 16.4l-.6-1.7-1.8 2.2zM6.2 11.3l-1.4.9.2 3.9 2.4 2.4 1.7-.5 2.6-1.3v-3.4l-3.1-3z"/><path fill="#ffe5e5" d="M20.2 18.9q-.2-5.2-2-9.5Q18 5.7 15.5 2L7.8 0h5.5q3.3 0 5.7 1.8.6 3.6 1.8 6.5 1.6 3.6 1 6.6-.2 1.2-.8 2.3 1.8.7-.9 1.7M21 15l.8-.1-.7-1.6z"/><path fill="#c89a73" d="m0 10 4 6.9 3.5 2.9 11.3-.6-4.1 1.1-4.8.8-1.6.1-1.7.3q-1.8 0-1-1.6L2.7 17zm21.8 4.9-.8.1.1-1.8zm-4.4-.2.6 1.7-2.4.5z"/><path fill="#5a3911" d="m6.2 11.3 2.4-1 3.1 3v3.4L9.3 18l-1.8.5L5 16.1l-.2-3.9z"/><path fill="none" stroke="#74582b" stroke-linecap="round" stroke-linejoin="round" stroke-width="__RESOLUTION__" d="M7.8 0 2.3 3.8H2L0 9.9 2.7 17l3 2.9q-.9 1.7 1 1.6l1.7-.2m11.8-2.5q2.6-1 .7-1.6.7-1.1.9-2.3.7-3-1-6.6-1.3-3-1.8-6.5Q16.7 0 13.4 0H7.8M21 15l.1-1.7M18 16.4l-.6-1.7M6.2 11.3l-1.4.9.2 3.9 2.4 2.4 1.7-.5 2.6-1.3v-3.4l-3.1-3zm3.7 9.8 4.8-.8 4-1.1" vector-effect="non-scaling-stroke"/><path fill="none" stroke="#74582b" stroke-linecap="round" stroke-linejoin="round" stroke-width="__RESOLUTION__" d="M12 10.4Q11.5 9 9.5 8.3L6.8 7.2" vector-effect="non-scaling-stroke"/><path fill="#c89a73" d="m18.9 6 .9 2.9.2 2.7-3.3-1.3Q15 9.5 14 8t-.7-2.8 1.3-1.8 2.3.3 2 2.4"/><path fill="#f5d2bd" d="M22.4.9q-.9 4.3-3.5 7.7h-1.7q-3.7-.2-3.3-3.6z"/><path fill="#ffe5e5" d="M13.9 5v-.4l.4-1.4q4-2 8-2.3z"/><path fill="none" stroke="#74582b" stroke-linecap="round" stroke-linejoin="round" stroke-width="__RESOLUTION__" d="M22.4.9q-.9 4.3-3.5 7.7m-1.7 0q-3.7-.2-3.3-3.6v-.4m.4-1.4q4-2 8-2.3" vector-effect="non-scaling-stroke"/><path fill="#c89a73" d="m7.2 7.4 2.2.8q2 .8 2.6 2.2 1 2.2.8 4 0 .3-1.1-1l-3.1-3.1-2.4 1v.2L3.3 9l3.6-1.8zm-1 3.9v.2z"/><path fill="#f5d2bd" d="M12 10.4Q11.5 9 9.5 8.3l-2.2-1 .7-.8 3 .4.5-.2q3.7 2 3.5 6.3-.3 4.8-4.7 5.3l-.6-.5 2.2-1.1-.1-3.2q1 1.3 1.1 1 .3-1.9-.7-4.1"/><path fill="#b17751" d="M6.2 11.5v-.2z"/><path fill="none" stroke="#74582b" stroke-linecap="round" stroke-linejoin="round" stroke-width="__RESOLUTION__" d="M12 10.4Q11.5 9 9.5 8.3l-2.2-1-.3-.1m-.7 4.1 2.4-1 3.1 3v3.3l-2.1 1.2m-3.4-6.3v-.2 0" vector-effect="non-scaling-stroke"/></g><g id="b"><path fill="#f5bba8" d="M13.5 23.5v-3.9l2-.4z"/><path fill="#c88966" d="m13.6 19.6-.1 3.9-2-3.5z"/><path fill="none" stroke="#744f26" stroke-linecap="round" stroke-linejoin="round" stroke-width="__RESOLUTION__" d="m13.5 23.5 2-4.3-2 .4-2 .4z" vector-effect="non-scaling-stroke"/><path fill="#c88966" d="M8.6 25.3Q6 23.6 6.4 21.2v-1h2.8q-2 2.2-.6 5.1"/><path fill="#f5bba8" d="M8.6 25.3q-1.4-3 .6-5.1H12q-1.7 2.9-1.6 6.1-1-.4-1.8-1"/><path fill="none" stroke="#744f26" stroke-linecap="round" stroke-linejoin="round" stroke-width="__RESOLUTION__" d="M9.2 20.2H6.4v1q-.4 2.3 2.2 4.1l1.8 1q-.1-3.3 1.6-6.1z" vector-effect="non-scaling-stroke"/><path fill="#f5bba8" d="M18.9 17.8h1.3l.9.1q.4 2.3-1.7 4.8 1.2-3.4-.5-5"/><path fill="#c88966" d="M19.4 22.7 18 24q0-3.3-1.4-5.7l2.3-.7q1.7 1.6.5 5"/><path fill="none" stroke="#744f26" stroke-linecap="round" stroke-linejoin="round" stroke-width="__RESOLUTION__" d="M18.9 17.8h1.3l.9.1q.4 2.3-1.7 4.8L18 24q0-3.3-1.4-5.7z" vector-effect="non-scaling-stroke"/><path fill="#f5bba8" d="M16.6 23v-3.8l2-.5z"/><path fill="#c88966" d="M16.6 19.2V23l-2-3.4z"/><path fill="none" stroke="#744f26" stroke-linecap="round" stroke-linejoin="round" stroke-width="__RESOLUTION__" d="m16.6 23 2-4.2-2 .3-2 .4z" vector-effect="non-scaling-stroke"/><path fill="#f5bba8" d="m7.8 0 7.6 2q2.5 3.7 2.8 7.4 1.8 4.3 2 9.5l-1.5.3-11.2.6-3.5-3L0 10l2.1-6.2h.2zM18 16.4l-.6-1.7-1.8 2.2zM6.2 11.3l-1.4.9.2 3.9 2.4 2.4 1.7-.5 2.6-1.3v-3.4l-3.1-3z"/><path fill="#fcc" d="M20.2 18.9q-.2-5.2-2-9.5Q18 5.7 15.5 2L7.8 0h5.5q3.3 0 5.7 1.8.6 3.6 1.8 6.5 1.6 3.6 1 6.6-.2 1.2-.8 2.3 1.8.7-.9 1.7M21 15l.8-.1-.7-1.6z"/><path fill="#c88966" d="m0 10 4 6.9 3.5 2.9 11.3-.6-4.1 1.1-4.8.8-1.6.1-1.7.3q-1.8 0-1-1.6L2.7 17zm21.8 4.9-.8.1.1-1.8zm-4.4-.2.6 1.7-2.4.5z"/><path fill="#5a3310" d="m6.2 11.3 2.4-1 3.1 3v3.4L9.3 18l-1.8.5L5 16.1l-.2-3.9z"/><path fill="none" stroke="#744f26" stroke-linecap="round" stroke-linejoin="round" stroke-width="__RESOLUTION__" d="M7.8 0 2.3 3.8H2L0 9.9 2.7 17l3 2.9q-.9 1.7 1 1.6l1.7-.2m11.8-2.5q2.6-1 .7-1.6.7-1.1.9-2.3.7-3-1-6.6-1.3-3-1.8-6.5Q16.7 0 13.4 0H7.8M21 15l.1-1.7M18 16.4l-.6-1.7M6.2 11.3l-1.4.9.2 3.9 2.4 2.4 1.7-.5 2.6-1.3v-3.4l-3.1-3zm3.7 9.8 4.8-.8 4-1.1" vector-effect="non-scaling-stroke"/><path fill="none" stroke="#744f26" stroke-linecap="round" stroke-linejoin="round" stroke-width="__RESOLUTION__" d="M12 10.4Q11.5 9 9.5 8.3L6.8 7.2" vector-effect="non-scaling-stroke"/><path fill="#c88966" d="m18.9 6 .9 2.9.2 2.7-3.3-1.3Q15 9.5 14 8t-.7-2.8 1.3-1.8 2.3.3 2 2.4"/><path fill="#f5bba8" d="M22.4.9q-.9 4.3-3.5 7.7h-1.7q-3.7-.2-3.3-3.6z"/><path fill="#fcc" d="M13.9 5v-.4l.4-1.4q4-2 8-2.3z"/><path fill="none" stroke="#744f26" stroke-linecap="round" stroke-linejoin="round" stroke-width="__RESOLUTION__" d="M22.4.9q-.9 4.3-3.5 7.7m-1.7 0q-3.7-.2-3.3-3.6v-.4m.4-1.4q4-2 8-2.3" vector-effect="non-scaling-stroke"/><path fill="#c88966" d="m7.2 7.4 2.2.8q2 .8 2.6 2.2 1 2.2.8 4 0 .3-1.1-1l-3.1-3.1-2.4 1v.2L3.3 9l3.6-1.8zm-1 3.9v.2z"/><path fill="#f5bba8" d="M12 10.4Q11.5 9 9.5 8.3l-2.2-1 .7-.8 3 .4.5-.2q3.7 2 3.5 6.3-.3 4.8-4.7 5.3l-.6-.5 2.2-1.1-.1-3.2q1 1.3 1.1 1 .3-1.9-.7-4.1"/><path fill="#b16a48" d="M6.2 11.5v-.2z"/><path fill="none" stroke="#744f26" stroke-linecap="round" stroke-linejoin="round" stroke-width="__RESOLUTION__" d="M12 10.4Q11.5 9 9.5 8.3l-2.2-1-.3-.1m-.7 4.1 2.4-1 3.1 3v3.3l-2.1 1.2m-3.4-6.3v-.2 0" vector-effect="non-scaling-stroke"/></g><g id="c"><path fill="#f5a393" d="M13.5 23.5v-3.9l2-.4z"/><path fill="#c87859" d="m13.6 19.6-.1 3.9-2-3.5z"/><path fill="none" stroke="#744521" stroke-linecap="round" stroke-linejoin="round" stroke-width="__RESOLUTION__" d="m13.5 23.5 2-4.3-2 .4-2 .4z" vector-effect="non-scaling-stroke"/><path fill="#c87859" d="M8.6 25.3Q6 23.6 6.4 21.2v-1h2.8q-2 2.2-.6 5.1"/><path fill="#f5a393" d="M8.6 25.3q-1.4-3 .6-5.1H12q-1.7 2.9-1.6 6.1-1-.4-1.8-1"/><path fill="none" stroke="#744521" stroke-linecap="round" stroke-linejoin="round" stroke-width="__RESOLUTION__" d="M9.2 20.2H6.4v1q-.4 2.3 2.2 4.1l1.8 1q-.1-3.3 1.6-6.1z" vector-effect="non-scaling-stroke"/><path fill="#f5a393" d="M18.9 17.8h1.3l.9.1q.4 2.3-1.7 4.8 1.2-3.4-.5-5"/><path fill="#c87859" d="M19.4 22.7 18 24q0-3.3-1.4-5.7l2.3-.7q1.7 1.6.5 5"/><path fill="none" stroke="#744521" stroke-linecap="round" stroke-linejoin="round" stroke-width="__RESOLUTION__" d="M18.9 17.8h1.3l.9.1q.4 2.3-1.7 4.8L18 24q0-3.3-1.4-5.7z" vector-effect="non-scaling-stroke"/><path fill="#f5a393" d="M16.6 23v-3.8l2-.5z"/><path fill="#c87859" d="M16.6 19.2V23l-2-3.4z"/><path fill="none" stroke="#744521" stroke-linecap="round" stroke-linejoin="round" stroke-width="__RESOLUTION__" d="m16.6 23 2-4.2-2 .3-2 .4z" vector-effect="non-scaling-stroke"/><path fill="#f5a393" d="m7.8 0 7.6 2q2.5 3.7 2.8 7.4 1.8 4.3 2 9.5l-1.5.3-11.2.6-3.5-3L0 10l2.1-6.2h.2zM18 16.4l-.6-1.7-1.8 2.2zM6.2 11.3l-1.4.9.2 3.9 2.4 2.4 1.7-.5 2.6-1.3v-3.4l-3.1-3z"/><path fill="#ffb2b2" d="M20.2 18.9q-.2-5.2-2-9.5Q18 5.7 15.5 2L7.8 0h5.5q3.3 0 5.7 1.8.6 3.6 1.8 6.5 1.6 3.6 1 6.6-.2 1.2-.8 2.3 1.8.7-.9 1.7M21 15l.8-.1-.7-1.6z"/><path fill="#c87859" d="m0 10 4 6.9 3.5 2.9 11.3-.6-4.1 1.1-4.8.8-1.6.1-1.7.3q-1.8 0-1-1.6L2.7 17zm21.8 4.9-.8.1.1-1.8zm-4.4-.2.6 1.7-2.4.5z"/><path fill="#5a2c0d" d="m6.2 11.3 2.4-1 3.1 3v3.4L9.3 18l-1.8.5L5 16.1l-.2-3.9z"/><path fill="none" stroke="#744521" stroke-linecap="round" stroke-linejoin="round" stroke-width="__RESOLUTION__" d="M7.8 0 2.3 3.8H2L0 9.9 2.7 17l3 2.9q-.9 1.7 1 1.6l1.7-.2m11.8-2.5q2.6-1 .7-1.6.7-1.1.9-2.3.7-3-1-6.6-1.3-3-1.8-6.5Q16.7 0 13.4 0H7.8M21 15l.1-1.7M18 16.4l-.6-1.7M6.2 11.3l-1.4.9.2 3.9 2.4 2.4 1.7-.5 2.6-1.3v-3.4l-3.1-3zm3.7 9.8 4.8-.8 4-1.1" vector-effect="non-scaling-stroke"/><path fill="none" stroke="#744521" stroke-linecap="round" stroke-linejoin="round" stroke-width="__RESOLUTION__" d="M12 10.4Q11.5 9 9.5 8.3L6.8 7.2" vector-effect="non-scaling-stroke"/><path fill="#c87859" d="m18.9 6 .9 2.9.2 2.7-3.3-1.3Q15 9.5 14 8t-.7-2.8 1.3-1.8 2.3.3 2 2.4"/><path fill="#f5a393" d="M22.4.9q-.9 4.3-3.5 7.7h-1.7q-3.7-.2-3.3-3.6z"/><path fill="#ffb2b2" d="M13.9 5v-.4l.4-1.4q4-2 8-2.3z"/><path fill="none" stroke="#744521" stroke-linecap="round" stroke-linejoin="round" stroke-width="__RESOLUTION__" d="M22.4.9q-.9 4.3-3.5 7.7m-1.7 0q-3.7-.2-3.3-3.6v-.4m.4-1.4q4-2 8-2.3" vector-effect="non-scaling-stroke"/><path fill="#c87859" d="m7.2 7.4 2.2.8q2 .8 2.6 2.2 1 2.2.8 4 0 .3-1.1-1l-3.1-3.1-2.4 1v.2L3.3 9l3.6-1.8zm-1 3.9v.2z"/><path fill="#f5a393" d="M12 10.4Q11.5 9 9.5 8.3l-2.2-1 .7-.8 3 .4.5-.2q3.7 2 3.5 6.3-.3 4.8-4.7 5.3l-.6-.5 2.2-1.1-.1-3.2q1 1.3 1.1 1 .3-1.9-.7-4.1"/><path fill="#b15c3f" d="M6.2 11.5v-.2z"/><path fill="none" stroke="#744521" stroke-linecap="round" stroke-linejoin="round" stroke-width="__RESOLUTION__" d="M12 10.4Q11.5 9 9.5 8.3l-2.2-1-.3-.1m-.7 4.1 2.4-1 3.1 3v3.3l-2.1 1.2m-3.4-6.3v-.2 0" vector-effect="non-scaling-stroke"/></g><g id="d"><path fill="#f58c7e" d="M13.5 23.5v-3.9l2-.4z"/><path fill="#c8674d" d="m13.6 19.6-.1 3.9-2-3.5z"/><path fill="none" stroke="#743b1c" stroke-linecap="round" stroke-linejoin="round" stroke-width="__RESOLUTION__" d="m13.5 23.5 2-4.3-2 .4-2 .4z" vector-effect="non-scaling-stroke"/><path fill="#c8674d" d="M8.6 25.3Q6 23.6 6.4 21.2v-1h2.8q-2 2.2-.6 5.1"/><path fill="#f58c7e" d="M8.6 25.3q-1.4-3 .6-5.1H12q-1.7 2.9-1.6 6.1-1-.4-1.8-1"/><path fill="none" stroke="#743b1c" stroke-linecap="round" stroke-linejoin="round" stroke-width="__RESOLUTION__" d="M9.2 20.2H6.4v1q-.4 2.3 2.2 4.1l1.8 1q-.1-3.3 1.6-6.1z" vector-effect="non-scaling-stroke"/><path fill="#f58c7e" d="M18.9 17.8h1.3l.9.1q.4 2.3-1.7 4.8 1.2-3.4-.5-5"/><path fill="#c8674d" d="M19.4 22.7 18 24q0-3.3-1.4-5.7l2.3-.7q1.7 1.6.5 5"/><path fill="none" stroke="#743b1c" stroke-linecap="round" stroke-linejoin="round" stroke-width="__RESOLUTION__" d="M18.9 17.8h1.3l.9.1q.4 2.3-1.7 4.8L18 24q0-3.3-1.4-5.7z" vector-effect="non-scaling-stroke"/><path fill="#f58c7e" d="M16.6 23v-3.8l2-.5z"/><path fill="#c8674d" d="M16.6 19.2V23l-2-3.4z"/><path fill="none" stroke="#743b1c" stroke-linecap="round" stroke-linejoin="round" stroke-width="__RESOLUTION__" d="m16.6 23 2-4.2-2 .3-2 .4z" vector-effect="non-scaling-stroke"/><path fill="#f58c7e" d="m7.8 0 7.6 2q2.5 3.7 2.8 7.4 1.8 4.3 2 9.5l-1.5.3-11.2.6-3.5-3L0 10l2.1-6.2h.2zM18 16.4l-.6-1.7-1.8 2.2zM6.2 11.3l-1.4.9.2 3.9 2.4 2.4 1.7-.5 2.6-1.3v-3.4l-3.1-3z"/><path fill="#f99" d="M20.2 18.9q-.2-5.2-2-9.5Q18 5.7 15.5 2L7.8 0h5.5q3.3 0 5.7 1.8.6 3.6 1.8 6.5 1.6 3.6 1 6.6-.2 1.2-.8 2.3 1.8.7-.9 1.7M21 15l.8-.1-.7-1.6z"/><path fill="#c8674d" d="m0 10 4 6.9 3.5 2.9 11.3-.6-4.1 1.1-4.8.8-1.6.1-1.7.3q-1.8 0-1-1.6L2.7 17zm21.8 4.9-.8.1.1-1.8zm-4.4-.2.6 1.7-2.4.5z"/><path fill="#5a260c" d="m6.2 11.3 2.4-1 3.1 3v3.4L9.3 18l-1.8.5L5 16.1l-.2-3.9z"/><path fill="none" stroke="#743b1c" stroke-linecap="round" stroke-linejoin="round" stroke-width="__RESOLUTION__" d="M7.8 0 2.3 3.8H2L0 9.9 2.7 17l3 2.9q-.9 1.7 1 1.6l1.7-.2m11.8-2.5q2.6-1 .7-1.6.7-1.1.9-2.3.7-3-1-6.6-1.3-3-1.8-6.5Q16.7 0 13.4 0H7.8M21 15l.1-1.7M18 16.4l-.6-1.7M6.2 11.3l-1.4.9.2 3.9 2.4 2.4 1.7-.5 2.6-1.3v-3.4l-3.1-3zm3.7 9.8 4.8-.8 4-1.1" vector-effect="non-scaling-stroke"/><path fill="none" stroke="#743b1c" stroke-linecap="round" stroke-linejoin="round" stroke-width="__RESOLUTION__" d="M12 10.4Q11.5 9 9.5 8.3L6.8 7.2" vector-effect="non-scaling-stroke"/><path fill="#c8674d" d="m18.9 6 .9 2.9.2 2.7-3.3-1.3Q15 9.5 14 8t-.7-2.8 1.3-1.8 2.3.3 2 2.4"/><path fill="#f58c7e" d="M22.4.9q-.9 4.3-3.5 7.7h-1.7q-3.7-.2-3.3-3.6z"/><path fill="#f99" d="M13.9 5v-.4l.4-1.4q4-2 8-2.3z"/><path fill="none" stroke="#743b1c" stroke-linecap="round" stroke-linejoin="round" stroke-width="__RESOLUTION__" d="M22.4.9q-.9 4.3-3.5 7.7m-1.7 0q-3.7-.2-3.3-3.6v-.4m.4-1.4q4-2 8-2.3" vector-effect="non-scaling-stroke"/><path fill="#c8674d" d="m7.2 7.4 2.2.8q2 .8 2.6 2.2 1 2.2.8 4 0 .3-1.1-1l-3.1-3.1-2.4 1v.2L3.3 9l3.6-1.8zm-1 3.9v.2z"/><path fill="#f58c7e" d="M12 10.4Q11.5 9 9.5 8.3l-2.2-1 .7-.8 3 .4.5-.2q3.7 2 3.5 6.3-.3 4.8-4.7 5.3l-.6-.5 2.2-1.1-.1-3.2q1 1.3 1.1 1 .3-1.9-.7-4.1"/><path fill="#b15036" d="M6.2 11.5v-.2z"/><path fill="none" stroke="#743b1c" stroke-linecap="round" stroke-linejoin="round" stroke-width="__RESOLUTION__" d="M12 10.4Q11.5 9 9.5 8.3l-2.2-1-.3-.1m-.7 4.1 2.4-1 3.1 3v3.3l-2.1 1.2m-3.4-6.3v-.2 0" vector-effect="non-scaling-stroke"/></g><g id="e"><path fill="#f57569" d="M13.5 23.5v-3.9l2-.4z"/><path fill="#c85640" d="m13.6 19.6-.1 3.9-2-3.5z"/><path fill="none" stroke="#743118" stroke-linecap="round" stroke-linejoin="round" stroke-width="__RESOLUTION__" d="m13.5 23.5 2-4.3-2 .4-2 .4z" vector-effect="non-scaling-stroke"/><path fill="#c85640" d="M8.6 25.3Q6 23.6 6.4 21.2v-1h2.8q-2 2.2-.6 5.1"/><path fill="#f57569" d="M8.6 25.3q-1.4-3 .6-5.1H12q-1.7 2.9-1.6 6.1-1-.4-1.8-1"/><path fill="none" stroke="#743118" stroke-linecap="round" stroke-linejoin="round" stroke-width="__RESOLUTION__" d="M9.2 20.2H6.4v1q-.4 2.3 2.2 4.1l1.8 1q-.1-3.3 1.6-6.1z" vector-effect="non-scaling-stroke"/><path fill="#f57569" d="M18.9 17.8h1.3l.9.1q.4 2.3-1.7 4.8 1.2-3.4-.5-5"/><path fill="#c85640" d="M19.4 22.7 18 24q0-3.3-1.4-5.7l2.3-.7q1.7 1.6.5 5"/><path fill="none" stroke="#743118" stroke-linecap="round" stroke-linejoin="round" stroke-width="__RESOLUTION__" d="M18.9 17.8h1.3l.9.1q.4 2.3-1.7 4.8L18 24q0-3.3-1.4-5.7z" vector-effect="non-scaling-stroke"/><path fill="#f57569" d="M16.6 23v-3.8l2-.5z"/><path fill="#c85640" d="M16.6 19.2V23l-2-3.4z"/><path fill="none" stroke="#743118" stroke-linecap="round" stroke-linejoin="round" stroke-width="__RESOLUTION__" d="m16.6 23 2-4.2-2 .3-2 .4z" vector-effect="non-scaling-stroke"/><path fill="#f57569" d="m7.8 0 7.6 2q2.5 3.7 2.8 7.4 1.8 4.3 2 9.5l-1.5.3-11.2.6-3.5-3L0 10l2.1-6.2h.2zM18 16.4l-.6-1.7-1.8 2.2zM6.2 11.3l-1.4.9.2 3.9 2.4 2.4 1.7-.5 2.6-1.3v-3.4l-3.1-3z"/><path fill="#ff7f7f" d="M20.2 18.9q-.2-5.2-2-9.5Q18 5.7 15.5 2L7.8 0h5.5q3.3 0 5.7 1.8.6 3.6 1.8 6.5 1.6 3.6 1 6.6-.2 1.2-.8 2.3 1.8.7-.9 1.7M21 15l.8-.1-.7-1.6z"/><path fill="#c85640" d="m0 10 4 6.9 3.5 2.9 11.3-.6-4.1 1.1-4.8.8-1.6.1-1.7.3q-1.8 0-1-1.6L2.7 17zm21.8 4.9-.8.1.1-1.8zm-4.4-.2.6 1.7-2.4.5z"/><path fill="#5a200a" d="m6.2 11.3 2.4-1 3.1 3v3.4L9.3 18l-1.8.5L5 16.1l-.2-3.9z"/><path fill="none" stroke="#743118" stroke-linecap="round" stroke-linejoin="round" stroke-width="__RESOLUTION__" d="M7.8 0 2.3 3.8H2L0 9.9 2.7 17l3 2.9q-.9 1.7 1 1.6l1.7-.2m11.8-2.5q2.6-1 .7-1.6.7-1.1.9-2.3.7-3-1-6.6-1.3-3-1.8-6.5Q16.7 0 13.4 0H7.8M21 15l.1-1.7M18 16.4l-.6-1.7M6.2 11.3l-1.4.9.2 3.9 2.4 2.4 1.7-.5 2.6-1.3v-3.4l-3.1-3zm3.7 9.8 4.8-.8 4-1.1" vector-effect="non-scaling-stroke"/><path fill="none" stroke="#743118" stroke-linecap="round" stroke-linejoin="round" stroke-width="__RESOLUTION__" d="M12 10.4Q11.5 9 9.5 8.3L6.8 7.2" vector-effect="non-scaling-stroke"/><path fill="#c85640" d="m18.9 6 .9 2.9.2 2.7-3.3-1.3Q15 9.5 14 8t-.7-2.8 1.3-1.8 2.3.3 2 2.4"/><path fill="#f57569" d="M22.4.9q-.9 4.3-3.5 7.7h-1.7q-3.7-.2-3.3-3.6z"/><path fill="#ff7f7f" d="M13.9 5v-.4l.4-1.4q4-2 8-2.3z"/><path fill="none" stroke="#743118" stroke-linecap="round" stroke-linejoin="round" stroke-width="__RESOLUTION__" d="M22.4.9q-.9 4.3-3.5 7.7m-1.7 0q-3.7-.2-3.3-3.6v-.4m.4-1.4q4-2 8-2.3" vector-effect="non-scaling-stroke"/><path fill="#c85640" d="m7.2 7.4 2.2.8q2 .8 2.6 2.2 1 2.2.8 4 0 .3-1.1-1l-3.1-3.1-2.4 1v.2L3.3 9l3.6-1.8zm-1 3.9v.2z"/><path fill="#f57569" d="M12 10.4Q11.5 9 9.5 8.3l-2.2-1 .7-.8 3 .4.5-.2q3.7 2 3.5 6.3-.3 4.8-4.7 5.3l-.6-.5 2.2-1.1-.1-3.2q1 1.3 1.1 1 .3-1.9-.7-4.1"/><path fill="#b1422d" d="M6.2 11.5v-.2z"/><path fill="none" stroke="#743118" stroke-linecap="round" stroke-linejoin="round" stroke-width="__RESOLUTION__" d="M12 10.4Q11.5 9 9.5 8.3l-2.2-1-.3-.1m-.7 4.1 2.4-1 3.1 3v3.3l-2.1 1.2m-3.4-6.3v-.2 0" vector-effect="non-scaling-stroke"/></g><g id="f"><path fill="#f58578" d="M13.5 23.5v-3.9l2-.4z"/><path fill="#c86249" d="m13.6 19.6-.1 3.9-2-3.5z"/><path fill="none" stroke="#74381b" stroke-linecap="round" stroke-linejoin="round" stroke-width="__RESOLUTION__" d="m13.5 23.5 2-4.3-2 .4-2 .4z" vector-effect="non-scaling-stroke"/><path fill="#c86249" d="M8.6 25.3Q6 23.6 6.4 21.2v-1h2.8q-2 2.2-.6 5.1"/><path fill="#f58578" d="M8.6 25.3q-1.4-3 .6-5.1H12q-1.7 2.9-1.6 6.1-1-.4-1.8-1"/><path fill="none" stroke="#74381b" stroke-linecap="round" stroke-linejoin="round" stroke-width="__RESOLUTION__" d="M9.2 20.2H6.4v1q-.4 2.3 2.2 4.1l1.8 1q-.1-3.3 1.6-6.1z" vector-effect="non-scaling-stroke"/><path fill="#f58578" d="M18.9 17.8h1.3l.9.1q.4 2.3-1.7 4.8 1.2-3.4-.5-5"/><path fill="#c86249" d="M19.4 22.7 18 24q0-3.3-1.4-5.7l2.3-.7q1.7 1.6.5 5"/><path fill="none" stroke="#74381b" stroke-linecap="round" stroke-linejoin="round" stroke-width="__RESOLUTION__" d="M18.9 17.8h1.3l.9.1q.4 2.3-1.7 4.8L18 24q0-3.3-1.4-5.7z" vector-effect="non-scaling-stroke"/><path fill="#f58578" d="M16.6 23v-3.8l2-.5z"/><path fill="#c86249" d="M16.6 19.2V23l-2-3.4z"/><path fill="none" stroke="#74381b" stroke-linecap="round" stroke-linejoin="round" stroke-width="__RESOLUTION__" d="m16.6 23 2-4.2-2 .3-2 .4z" vector-effect="non-scaling-stroke"/><path fill="#f58578" d="m7.8 0 7.6 2q2.5 3.7 2.8 7.4 1.8 4.3 2 9.5l-1.5.3-11.2.6-3.5-3L0 10l2.1-6.2h.2zM18 16.4l-.6-1.7-1.8 2.2zM6.2 11.3l-1.4.9.2 3.9 2.4 2.4 1.7-.5 2.6-1.3v-3.4l-3.1-3z"/><path fill="#ff9191" d="M20.2 18.9q-.2-5.2-2-9.5Q18 5.7 15.5 2L7.8 0h5.5q3.3 0 5.7 1.8.6 3.6 1.8 6.5 1.6 3.6 1 6.6-.2 1.2-.8 2.3 1.8.7-.9 1.7M21 15l.8-.1-.7-1.6z"/><path fill="#c86249" d="m0 10 4 6.9 3.5 2.9 11.3-.6-4.1 1.1-4.8.8-1.6.1-1.7.3q-1.8 0-1-1.6L2.7 17zm21.8 4.9-.8.1.1-1.8zm-4.4-.2.6 1.7-2.4.5z"/><path fill="#5a240b" d="m6.2 11.3 2.4-1 3.1 3v3.4L9.3 18l-1.8.5L5 16.1l-.2-3.9z"/><path fill="none" stroke="#74381b" stroke-linecap="round" stroke-linejoin="round" stroke-width="__RESOLUTION__" d="M7.8 0 2.3 3.8H2L0 9.9 2.7 17l3 2.9q-.9 1.7 1 1.6l1.7-.2m11.8-2.5q2.6-1 .7-1.6.7-1.1.9-2.3.7-3-1-6.6-1.3-3-1.8-6.5Q16.7 0 13.4 0H7.8M21 15l.1-1.7M18 16.4l-.6-1.7M6.2 11.3l-1.4.9.2 3.9 2.4 2.4 1.7-.5 2.6-1.3v-3.4l-3.1-3zm3.7 9.8 4.8-.8 4-1.1" vector-effect="non-scaling-stroke"/><path fill="none" stroke="#74381b" stroke-linecap="round" stroke-linejoin="round" stroke-width="__RESOLUTION__" d="M12 10.4Q11.5 9 9.5 8.3L6.8 7.2" vector-effect="non-scaling-stroke"/><path fill="#c86249" d="m18.9 6 .9 2.9.2 2.7-3.3-1.3Q15 9.5 14 8t-.7-2.8 1.3-1.8 2.3.3 2 2.4"/><path fill="#f58578" d="M22.4.9q-.9 4.3-3.5 7.7h-1.7q-3.7-.2-3.3-3.6z"/><path fill="#ff9191" d="M13.9 5v-.4l.4-1.4q4-2 8-2.3z"/><path fill="none" stroke="#74381b" stroke-linecap="round" stroke-linejoin="round" stroke-width="__RESOLUTION__" d="M22.4.9q-.9 4.3-3.5 7.7m-1.7 0q-3.7-.2-3.3-3.6v-.4m.4-1.4q4-2 8-2.3" vector-effect="non-scaling-stroke"/><path fill="#c86249" d="m7.2 7.4 2.2.8q2 .8 2.6 2.2 1 2.2.8 4 0 .3-1.1-1l-3.1-3.1-2.4 1v.2L3.3 9l3.6-1.8zm-1 3.9v.2z"/><path fill="#f58578" d="M12 10.4Q11.5 9 9.5 8.3l-2.2-1 .7-.8 3 .4.5-.2q3.7 2 3.5 6.3-.3 4.8-4.7 5.3l-.6-.5 2.2-1.1-.1-3.2q1 1.3 1.1 1 .3-1.9-.7-4.1"/><path fill="#b14b33" d="M6.2 11.5v-.2z"/><path fill="none" stroke="#74381b" stroke-linecap="round" stroke-linejoin="round" stroke-width="__RESOLUTION__" d="M12 10.4Q11.5 9 9.5 8.3l-2.2-1-.3-.1m-.7 4.1 2.4-1 3.1 3v3.3l-2.1 1.2m-3.4-6.3v-.2 0" vector-effect="non-scaling-stroke"/></g><g id="g"><path fill="#f59687" d="M13.5 23.5v-3.9l2-.4z"/><path fill="#c86e52" d="m13.6 19.6-.1 3.9-2-3.5z"/><path fill="none" stroke="#743f1e" stroke-linecap="round" stroke-linejoin="round" stroke-width="__RESOLUTION__" d="m13.5 23.5 2-4.3-2 .4-2 .4z" vector-effect="non-scaling-stroke"/><path fill="#c86e52" d="M8.6 25.3Q6 23.6 6.4 21.2v-1h2.8q-2 2.2-.6 5.1"/><path fill="#f59687" d="M8.6 25.3q-1.4-3 .6-5.1H12q-1.7 2.9-1.6 6.1-1-.4-1.8-1"/><path fill="none" stroke="#743f1e" stroke-linecap="round" stroke-linejoin="round" stroke-width="__RESOLUTION__" d="M9.2 20.2H6.4v1q-.4 2.3 2.2 4.1l1.8 1q-.1-3.3 1.6-6.1z" vector-effect="non-scaling-stroke"/><path fill="#f59687" d="M18.9 17.8h1.3l.9.1q.4 2.3-1.7 4.8 1.2-3.4-.5-5"/><path fill="#c86e52" d="M19.4 22.7 18 24q0-3.3-1.4-5.7l2.3-.7q1.7 1.6.5 5"/><path fill="none" stroke="#743f1e" stroke-linecap="round" stroke-linejoin="round" stroke-width="__RESOLUTION__" d="M18.9 17.8h1.3l.9.1q.4 2.3-1.7 4.8L18 24q0-3.3-1.4-5.7z" vector-effect="non-scaling-stroke"/><path fill="#f59687" d="M16.6 23v-3.8l2-.5z"/><path fill="#c86e52" d="M16.6 19.2V23l-2-3.4z"/><path fill="none" stroke="#743f1e" stroke-linecap="round" stroke-linejoin="round" stroke-width="__RESOLUTION__" d="m16.6 23 2-4.2-2 .3-2 .4z" vector-effect="non-scaling-stroke"/><path fill="#f59687" d="m7.8 0 7.6 2q2.5 3.7 2.8 7.4 1.8 4.3 2 9.5l-1.5.3-11.2.6-3.5-3L0 10l2.1-6.2h.2zM18 16.4l-.6-1.7-1.8 2.2zM6.2 11.3l-1.4.9.2 3.9 2.4 2.4 1.7-.5 2.6-1.3v-3.4l-3.1-3z"/><path fill="#ffa4a4" d="M20.2 18.9q-.2-5.2-2-9.5Q18 5.7 15.5 2L7.8 0h5.5q3.3 0 5.7 1.8.6 3.6 1.8 6.5 1.6 3.6 1 6.6-.2 1.2-.8 2.3 1.8.7-.9 1.7M21 15l.8-.1-.7-1.6z"/><path fill="#c86e52" d="m0 10 4 6.9 3.5 2.9 11.3-.6-4.1 1.1-4.8.8-1.6.1-1.7.3q-1.8 0-1-1.6L2.7 17zm21.8 4.9-.8.1.1-1.8zm-4.4-.2.6 1.7-2.4.5z"/><path fill="#5a290c" d="m6.2 11.3 2.4-1 3.1 3v3.4L9.3 18l-1.8.5L5 16.1l-.2-3.9z"/><path fill="none" stroke="#743f1e" stroke-linecap="round" stroke-linejoin="round" stroke-width="__RESOLUTION__" d="M7.8 0 2.3 3.8H2L0 9.9 2.7 17l3 2.9q-.9 1.7 1 1.6l1.7-.2m11.8-2.5q2.6-1 .7-1.6.7-1.1.9-2.3.7-3-1-6.6-1.3-3-1.8-6.5Q16.7 0 13.4 0H7.8M21 15l.1-1.7M18 16.4l-.6-1.7M6.2 11.3l-1.4.9.2 3.9 2.4 2.4 1.7-.5 2.6-1.3v-3.4l-3.1-3zm3.7 9.8 4.8-.8 4-1.1" vector-effect="non-scaling-stroke"/><path fill="none" stroke="#743f1e" stroke-linecap="round" stroke-linejoin="round" stroke-width="__RESOLUTION__" d="M12 10.4Q11.5 9 9.5 8.3L6.8 7.2" vector-effect="non-scaling-stroke"/><path fill="#c86e52" d="m18.9 6 .9 2.9.2 2.7-3.3-1.3Q15 9.5 14 8t-.7-2.8 1.3-1.8 2.3.3 2 2.4"/><path fill="#f59687" d="M22.4.9q-.9 4.3-3.5 7.7h-1.7q-3.7-.2-3.3-3.6z"/><path fill="#ffa4a4" d="M13.9 5v-.4l.4-1.4q4-2 8-2.3z"/><path fill="none" stroke="#743f1e" stroke-linecap="round" stroke-linejoin="round" stroke-width="__RESOLUTION__" d="M22.4.9q-.9 4.3-3.5 7.7m-1.7 0q-3.7-.2-3.3-3.6v-.4m.4-1.4q4-2 8-2.3" vector-effect="non-scaling-stroke"/><path fill="#c86e52" d="m7.2 7.4 2.2.8q2 .8 2.6 2.2 1 2.2.8 4 0 .3-1.1-1l-3.1-3.1-2.4 1v.2L3.3 9l3.6-1.8zm-1 3.9v.2z"/><path fill="#f59687" d="M12 10.4Q11.5 9 9.5 8.3l-2.2-1 .7-.8 3 .4.5-.2q3.7 2 3.5 6.3-.3 4.8-4.7 5.3l-.6-.5 2.2-1.1-.1-3.2q1 1.3 1.1 1 .3-1.9-.7-4.1"/><path fill="#b1553a" d="M6.2 11.5v-.2z"/><path fill="none" stroke="#743f1e" stroke-linecap="round" stroke-linejoin="round" stroke-width="__RESOLUTION__" d="M12 10.4Q11.5 9 9.5 8.3l-2.2-1-.3-.1m-.7 4.1 2.4-1 3.1 3v3.3l-2.1 1.2m-3.4-6.3v-.2 0" vector-effect="non-scaling-stroke"/></g><g id="h"><path fill="#f5a796" d="M13.5 23.5v-3.9l2-.4z"/><path fill="#c87a5b" d="m13.6 19.6-.1 3.9-2-3.5z"/><path fill="none" stroke="#744622" stroke-linecap="round" stroke-linejoin="round" stroke-width="__RESOLUTION__" d="m13.5 23.5 2-4.3-2 .4-2 .4z" vector-effect="non-scaling-stroke"/><path fill="#c87a5b" d="M8.6 25.3Q6 23.6 6.4 21.2v-1h2.8q-2 2.2-.6 5.1"/><path fill="#f5a796" d="M8.6 25.3q-1.4-3 .6-5.1H12q-1.7 2.9-1.6 6.1-1-.4-1.8-1"/><path fill="none" stroke="#744622" stroke-linecap="round" stroke-linejoin="round" stroke-width="__RESOLUTION__" d="M9.2 20.2H6.4v1q-.4 2.3 2.2 4.1l1.8 1q-.1-3.3 1.6-6.1z" vector-effect="non-scaling-stroke"/><path fill="#f5a796" d="M18.9 17.8h1.3l.9.1q.4 2.3-1.7 4.8 1.2-3.4-.5-5"/><path fill="#c87a5b" d="M19.4 22.7 18 24q0-3.3-1.4-5.7l2.3-.7q1.7 1.6.5 5"/><path fill="none" stroke="#744622" stroke-linecap="round" stroke-linejoin="round" stroke-width="__RESOLUTION__" d="M18.9 17.8h1.3l.9.1q.4 2.3-1.7 4.8L18 24q0-3.3-1.4-5.7z" vector-effect="non-scaling-stroke"/><path fill="#f5a796" d="M16.6 23v-3.8l2-.5z"/><path fill="#c87a5b" d="M16.6 19.2V23l-2-3.4z"/><path fill="none" stroke="#744622" stroke-linecap="round" stroke-linejoin="round" stroke-width="__RESOLUTION__" d="m16.6 23 2-4.2-2 .3-2 .4z" vector-effect="non-scaling-stroke"/><path fill="#f5a796" d="m7.8 0 7.6 2q2.5 3.7 2.8 7.4 1.8 4.3 2 9.5l-1.5.3-11.2.6-3.5-3L0 10l2.1-6.2h.2zM18 16.4l-.6-1.7-1.8 2.2zM6.2 11.3l-1.4.9.2 3.9 2.4 2.4 1.7-.5 2.6-1.3v-3.4l-3.1-3z"/><path fill="#ffb6b6" d="M20.2 18.9q-.2-5.2-2-9.5Q18 5.7 15.5 2L7.8 0h5.5q3.3 0 5.7 1.8.6 3.6 1.8 6.5 1.6 3.6 1 6.6-.2 1.2-.8 2.3 1.8.7-.9 1.7M21 15l.8-.1-.7-1.6z"/><path fill="#c87a5b" d="m0 10 4 6.9 3.5 2.9 11.3-.6-4.1 1.1-4.8.8-1.6.1-1.7.3q-1.8 0-1-1.6L2.7 17zm21.8 4.9-.8.1.1-1.8zm-4.4-.2.6 1.7-2.4.5z"/><path fill="#5a2d0e" d="m6.2 11.3 2.4-1 3.1 3v3.4L9.3 18l-1.8.5L5 16.1l-.2-3.9z"/><path fill="none" stroke="#744622" stroke-linecap="round" stroke-linejoin="round" stroke-width="__RESOLUTION__" d="M7.8 0 2.3 3.8H2L0 9.9 2.7 17l3 2.9q-.9 1.7 1 1.6l1.7-.2m11.8-2.5q2.6-1 .7-1.6.7-1.1.9-2.3.7-3-1-6.6-1.3-3-1.8-6.5Q16.7 0 13.4 0H7.8M21 15l.1-1.7M18 16.4l-.6-1.7M6.2 11.3l-1.4.9.2 3.9 2.4 2.4 1.7-.5 2.6-1.3v-3.4l-3.1-3zm3.7 9.8 4.8-.8 4-1.1" vector-effect="non-scaling-stroke"/><path fill="none" stroke="#744622" stroke-linecap="round" stroke-linejoin="round" stroke-width="__RESOLUTION__" d="M12 10.4Q11.5 9 9.5 8.3L6.8 7.2" vector-effect="non-scaling-stroke"/><path fill="#c87a5b" d="m18.9 6 .9 2.9.2 2.7-3.3-1.3Q15 9.5 14 8t-.7-2.8 1.3-1.8 2.3.3 2 2.4"/><path fill="#f5a796" d="M22.4.9q-.9 4.3-3.5 7.7h-1.7q-3.7-.2-3.3-3.6z"/><path fill="#ffb6b6" d="M13.9 5v-.4l.4-1.4q4-2 8-2.3z"/><path fill="none" stroke="#744622" stroke-linecap="round" stroke-linejoin="round" stroke-width="__RESOLUTION__" d="M22.4.9q-.9 4.3-3.5 7.7m-1.7 0q-3.7-.2-3.3-3.6v-.4m.4-1.4q4-2 8-2.3" vector-effect="non-scaling-stroke"/><path fill="#c87a5b" d="m7.2 7.4 2.2.8q2 .8 2.6 2.2 1 2.2.8 4 0 .3-1.1-1l-3.1-3.1-2.4 1v.2L3.3 9l3.6-1.8zm-1 3.9v.2z"/><path fill="#f5a796" d="M12 10.4Q11.5 9 9.5 8.3l-2.2-1 .7-.8 3 .4.5-.2q3.7 2 3.5 6.3-.3 4.8-4.7 5.3l-.6-.5 2.2-1.1-.1-3.2q1 1.3 1.1 1 .3-1.9-.7-4.1"/><path fill="#b15f41" d="M6.2 11.5v-.2z"/><path fill="none" stroke="#744622" stroke-linecap="round" stroke-linejoin="round" stroke-width="__RESOLUTION__" d="M12 10.4Q11.5 9 9.5 8.3l-2.2-1-.3-.1m-.7 4.1 2.4-1 3.1 3v3.3l-2.1 1.2m-3.4-6.3v-.2 0" vector-effect="non-scaling-stroke"/></g><g id="i"><path fill="#f5b7a5" d="M13.5 23.5v-3.9l2-.4z"/><path fill="#c88764" d="m13.6 19.6-.1 3.9-2-3.5z"/><path fill="none" stroke="#744d25" stroke-linecap="round" stroke-linejoin="round" stroke-width="__RESOLUTION__" d="m13.5 23.5 2-4.3-2 .4-2 .4z" vector-effect="non-scaling-stroke"/><path fill="#c88764" d="M8.6 25.3Q6 23.6 6.4 21.2v-1h2.8q-2 2.2-.6 5.1"/><path fill="#f5b7a5" d="M8.6 25.3q-1.4-3 .6-5.1H12q-1.7 2.9-1.6 6.1-1-.4-1.8-1"/><path fill="none" stroke="#744d25" stroke-linecap="round" stroke-linejoin="round" stroke-width="__RESOLUTION__" d="M9.2 20.2H6.4v1q-.4 2.3 2.2 4.1l1.8 1q-.1-3.3 1.6-6.1z" vector-effect="non-scaling-stroke"/><path fill="#f5b7a5" d="M18.9 17.8h1.3l.9.1q.4 2.3-1.7 4.8 1.2-3.4-.5-5"/><path fill="#c88764" d="M19.4 22.7 18 24q0-3.3-1.4-5.7l2.3-.7q1.7 1.6.5 5"/><path fill="none" stroke="#744d25" stroke-linecap="round" stroke-linejoin="round" stroke-width="__RESOLUTION__" d="M18.9 17.8h1.3l.9.1q.4 2.3-1.7 4.8L18 24q0-3.3-1.4-5.7z" vector-effect="non-scaling-stroke"/><path fill="#f5b7a5" d="M16.6 23v-3.8l2-.5z"/><path fill="#c88764" d="M16.6 19.2V23l-2-3.4z"/><path fill="none" stroke="#744d25" stroke-linecap="round" stroke-linejoin="round" stroke-width="__RESOLUTION__" d="m16.6 23 2-4.2-2 .3-2 .4z" vector-effect="non-scaling-stroke"/><path fill="#f5b7a5" d="m7.8 0 7.6 2q2.5 3.7 2.8 7.4 1.8 4.3 2 9.5l-1.5.3-11.2.6-3.5-3L0 10l2.1-6.2h.2zM18 16.4l-.6-1.7-1.8 2.2zM6.2 11.3l-1.4.9.2 3.9 2.4 2.4 1.7-.5 2.6-1.3v-3.4l-3.1-3z"/><path fill="#ffc8c8" d="M20.2 18.9q-.2-5.2-2-9.5Q18 5.7 15.5 2L7.8 0h5.5q3.3 0 5.7 1.8.6 3.6 1.8 6.5 1.6 3.6 1 6.6-.2 1.2-.8 2.3 1.8.7-.9 1.7M21 15l.8-.1-.7-1.6z"/><path fill="#c88764" d="m0 10 4 6.9 3.5 2.9 11.3-.6-4.1 1.1-4.8.8-1.6.1-1.7.3q-1.8 0-1-1.6L2.7 17zm21.8 4.9-.8.1.1-1.8zm-4.4-.2.6 1.7-2.4.5z"/><path fill="#5a320f" d="m6.2 11.3 2.4-1 3.1 3v3.4L9.3 18l-1.8.5L5 16.1l-.2-3.9z"/><path fill="none" stroke="#744d25" stroke-linecap="round" stroke-linejoin="round" stroke-width="__RESOLUTION__" d="M7.8 0 2.3 3.8H2L0 9.9 2.7 17l3 2.9q-.9 1.7 1 1.6l1.7-.2m11.8-2.5q2.6-1 .7-1.6.7-1.1.9-2.3.7-3-1-6.6-1.3-3-1.8-6.5Q16.7 0 13.4 0H7.8M21 15l.1-1.7M18 16.4l-.6-1.7M6.2 11.3l-1.4.9.2 3.9 2.4 2.4 1.7-.5 2.6-1.3v-3.4l-3.1-3zm3.7 9.8 4.8-.8 4-1.1" vector-effect="non-scaling-stroke"/><path fill="none" stroke="#744d25" stroke-linecap="round" stroke-linejoin="round" stroke-width="__RESOLUTION__" d="M12 10.4Q11.5 9 9.5 8.3L6.8 7.2" vector-effect="non-scaling-stroke"/><path fill="#c88764" d="m18.9 6 .9 2.9.2 2.7-3.3-1.3Q15 9.5 14 8t-.7-2.8 1.3-1.8 2.3.3 2 2.4"/><path fill="#f5b7a5" d="M22.4.9q-.9 4.3-3.5 7.7h-1.7q-3.7-.2-3.3-3.6z"/><path fill="#ffc8c8" d="M13.9 5v-.4l.4-1.4q4-2 8-2.3z"/><path fill="none" stroke="#744d25" stroke-linecap="round" stroke-linejoin="round" stroke-width="__RESOLUTION__" d="M22.4.9q-.9 4.3-3.5 7.7m-1.7 0q-3.7-.2-3.3-3.6v-.4m.4-1.4q4-2 8-2.3" vector-effect="non-scaling-stroke"/><path fill="#c88764" d="m7.2 7.4 2.2.8q2 .8 2.6 2.2 1 2.2.8 4 0 .3-1.1-1l-3.1-3.1-2.4 1v.2L3.3 9l3.6-1.8zm-1 3.9v.2z"/><path fill="#f5b7a5" d="M12 10.4Q11.5 9 9.5 8.3l-2.2-1 .7-.8 3 .4.5-.2q3.7 2 3.5 6.3-.3 4.8-4.7 5.3l-.6-.5 2.2-1.1-.1-3.2q1 1.3 1.1 1 .3-1.9-.7-4.1"/><path fill="#b16847" d="M6.2 11.5v-.2z"/><path fill="none" stroke="#744d25" stroke-linecap="round" stroke-linejoin="round" stroke-width="__RESOLUTION__" d="M12 10.4Q11.5 9 9.5 8.3l-2.2-1-.3-.1m-.7 4.1 2.4-1 3.1 3v3.3l-2.1 1.2m-3.4-6.3v-.2 0" vector-effect="non-scaling-stroke"/></g><g id="j"><path fill="#f5c8b4" d="M13.5 23.5v-3.9l2-.4z"/><path fill="#c8936d" d="m13.6 19.6-.1 3.9-2-3.5z"/><path fill="none" stroke="#745429" stroke-linecap="round" stroke-linejoin="round" stroke-width="__RESOLUTION__" d="m13.5 23.5 2-4.3-2 .4-2 .4z" vector-effect="non-scaling-stroke"/><path fill="#c8936d" d="M8.6 25.3Q6 23.6 6.4 21.2v-1h2.8q-2 2.2-.6 5.1"/><path fill="#f5c8b4" d="M8.6 25.3q-1.4-3 .6-5.1H12q-1.7 2.9-1.6 6.1-1-.4-1.8-1"/><path fill="none" stroke="#745429" stroke-linecap="round" stroke-linejoin="round" stroke-width="__RESOLUTION__" d="M9.2 20.2H6.4v1q-.4 2.3 2.2 4.1l1.8 1q-.1-3.3 1.6-6.1z" vector-effect="non-scaling-stroke"/><path fill="#f5c8b4" d="M18.9 17.8h1.3l.9.1q.4 2.3-1.7 4.8 1.2-3.4-.5-5"/><path fill="#c8936d" d="M19.4 22.7 18 24q0-3.3-1.4-5.7l2.3-.7q1.7 1.6.5 5"/><path fill="none" stroke="#745429" stroke-linecap="round" stroke-linejoin="round" stroke-width="__RESOLUTION__" d="M18.9 17.8h1.3l.9.1q.4 2.3-1.7 4.8L18 24q0-3.3-1.4-5.7z" vector-effect="non-scaling-stroke"/><path fill="#f5c8b4" d="M16.6 23v-3.8l2-.5z"/><path fill="#c8936d" d="M16.6 19.2V23l-2-3.4z"/><path fill="none" stroke="#745429" stroke-linecap="round" stroke-linejoin="round" stroke-width="__RESOLUTION__" d="m16.6 23 2-4.2-2 .3-2 .4z" vector-effect="non-scaling-stroke"/><path fill="#f5c8b4" d="m7.8 0 7.6 2q2.5 3.7 2.8 7.4 1.8 4.3 2 9.5l-1.5.3-11.2.6-3.5-3L0 10l2.1-6.2h.2zM18 16.4l-.6-1.7-1.8 2.2zM6.2 11.3l-1.4.9.2 3.9 2.4 2.4 1.7-.5 2.6-1.3v-3.4l-3.1-3z"/><path fill="#ffdada" d="M20.2 18.9q-.2-5.2-2-9.5Q18 5.7 15.5 2L7.8 0h5.5q3.3 0 5.7 1.8.6 3.6 1.8 6.5 1.6 3.6 1 6.6-.2 1.2-.8 2.3 1.8.7-.9 1.7M21 15l.8-.1-.7-1.6z"/><path fill="#c8936d" d="m0 10 4 6.9 3.5 2.9 11.3-.6-4.1 1.1-4.8.8-1.6.1-1.7.3q-1.8 0-1-1.6L2.7 17zm21.8 4.9-.8.1.1-1.8zm-4.4-.2.6 1.7-2.4.5z"/><path fill="#5a3611" d="m6.2 11.3 2.4-1 3.1 3v3.4L9.3 18l-1.8.5L5 16.1l-.2-3.9z"/><path fill="none" stroke="#745429" stroke-linecap="round" stroke-linejoin="round" stroke-width="__RESOLUTION__" d="M7.8 0 2.3 3.8H2L0 9.9 2.7 17l3 2.9q-.9 1.7 1 1.6l1.7-.2m11.8-2.5q2.6-1 .7-1.6.7-1.1.9-2.3.7-3-1-6.6-1.3-3-1.8-6.5Q16.7 0 13.4 0H7.8M21 15l.1-1.7M18 16.4l-.6-1.7M6.2 11.3l-1.4.9.2 3.9 2.4 2.4 1.7-.5 2.6-1.3v-3.4l-3.1-3zm3.7 9.8 4.8-.8 4-1.1" vector-effect="non-scaling-stroke"/><path fill="none" stroke="#745429" stroke-linecap="round" stroke-linejoin="round" stroke-width="__RESOLUTION__" d="M12 10.4Q11.5 9 9.5 8.3L6.8 7.2" vector-effect="non-scaling-stroke"/><path fill="#c8936d" d="m18.9 6 .9 2.9.2 2.7-3.3-1.3Q15 9.5 14 8t-.7-2.8 1.3-1.8 2.3.3 2 2.4"/><path fill="#f5c8b4" d="M22.4.9q-.9 4.3-3.5 7.7h-1.7q-3.7-.2-3.3-3.6z"/><path fill="#ffdada" d="M13.9 5v-.4l.4-1.4q4-2 8-2.3z"/><path fill="none" stroke="#745429" stroke-linecap="round" stroke-linejoin="round" stroke-width="__RESOLUTION__" d="M22.4.9q-.9 4.3-3.5 7.7m-1.7 0q-3.7-.2-3.3-3.6v-.4m.4-1.4q4-2 8-2.3" vector-effect="non-scaling-stroke"/><path fill="#c8936d" d="m7.2 7.4 2.2.8q2 .8 2.6 2.2 1 2.2.8 4 0 .3-1.1-1l-3.1-3.1-2.4 1v.2L3.3 9l3.6-1.8zm-1 3.9v.2z"/><path fill="#f5c8b4" d="M12 10.4Q11.5 9 9.5 8.3l-2.2-1 .7-.8 3 .4.5-.2q3.7 2 3.5 6.3-.3 4.8-4.7 5.3l-.6-.5 2.2-1.1-.1-3.2q1 1.3 1.1 1 .3-1.9-.7-4.1"/><path fill="#b1714d" d="M6.2 11.5v-.2z"/><path fill="none" stroke="#745429" stroke-linecap="round" stroke-linejoin="round" stroke-width="__RESOLUTION__" d="M12 10.4Q11.5 9 9.5 8.3l-2.2-1-.3-.1m-.7 4.1 2.4-1 3.1 3v3.3l-2.1 1.2m-3.4-6.3v-.2 0" vector-effect="non-scaling-stroke"/></g><g id="k"><path fill="#f5d9c4" d="M13.5 23.5v-3.9l2-.4z"/><path fill="#c89f77" d="m13.6 19.6-.1 3.9-2-3.5z"/><path fill="none" stroke="#745c2c" stroke-linecap="round" stroke-linejoin="round" stroke-width="__RESOLUTION__" d="m13.5 23.5 2-4.3-2 .4-2 .4z" vector-effect="non-scaling-stroke"/><path fill="#c89f77" d="M8.6 25.3Q6 23.6 6.4 21.2v-1h2.8q-2 2.2-.6 5.1"/><path fill="#f5d9c4" d="M8.6 25.3q-1.4-3 .6-5.1H12q-1.7 2.9-1.6 6.1-1-.4-1.8-1"/><path fill="none" stroke="#745c2c" stroke-linecap="round" stroke-linejoin="round" stroke-width="__RESOLUTION__" d="M9.2 20.2H6.4v1q-.4 2.3 2.2 4.1l1.8 1q-.1-3.3 1.6-6.1z" vector-effect="non-scaling-stroke"/><path fill="#f5d9c4" d="M18.9 17.8h1.3l.9.1q.4 2.3-1.7 4.8 1.2-3.4-.5-5"/><path fill="#c89f77" d="M19.4 22.7 18 24q0-3.3-1.4-5.7l2.3-.7q1.7 1.6.5 5"/><path fill="none" stroke="#745c2c" stroke-linecap="round" stroke-linejoin="round" stroke-width="__RESOLUTION__" d="M18.9 17.8h1.3l.9.1q.4 2.3-1.7 4.8L18 24q0-3.3-1.4-5.7z" vector-effect="non-scaling-stroke"/><path fill="#f5d9c4" d="M16.6 23v-3.8l2-.5z"/><path fill="#c89f77" d="M16.6 19.2V23l-2-3.4z"/><path fill="none" stroke="#745c2c" stroke-linecap="round" stroke-linejoin="round" stroke-width="__RESOLUTION__" d="m16.6 23 2-4.2-2 .3-2 .4z" vector-effect="non-scaling-stroke"/><path fill="#f5d9c4" d="m7.8 0 7.6 2q2.5 3.7 2.8 7.4 1.8 4.3 2 9.5l-1.5.3-11.2.6-3.5-3L0 10l2.1-6.2h.2zM18 16.4l-.6-1.7-1.8 2.2zM6.2 11.3l-1.4.9.2 3.9 2.4 2.4 1.7-.5 2.6-1.3v-3.4l-3.1-3z"/><path fill="#ffeded" d="M20.2 18.9q-.2-5.2-2-9.5Q18 5.7 15.5 2L7.8 0h5.5q3.3 0 5.7 1.8.6 3.6 1.8 6.5 1.6 3.6 1 6.6-.2 1.2-.8 2.3 1.8.7-.9 1.7M21 15l.8-.1-.7-1.6z"/><path fill="#c89f77" d="m0 10 4 6.9 3.5 2.9 11.3-.6-4.1 1.1-4.8.8-1.6.1-1.7.3q-1.8 0-1-1.6L2.7 17zm21.8 4.9-.8.1.1-1.8zm-4.4-.2.6 1.7-2.4.5z"/><path fill="#5a3b12" d="m6.2 11.3 2.4-1 3.1 3v3.4L9.3 18l-1.8.5L5 16.1l-.2-3.9z"/><path fill="none" stroke="#745c2c" stroke-linecap="round" stroke-linejoin="round" stroke-width="__RESOLUTION__" d="M7.8 0 2.3 3.8H2L0 9.9 2.7 17l3 2.9q-.9 1.7 1 1.6l1.7-.2m11.8-2.5q2.6-1 .7-1.6.7-1.1.9-2.3.7-3-1-6.6-1.3-3-1.8-6.5Q16.7 0 13.4 0H7.8M21 15l.1-1.7M18 16.4l-.6-1.7M6.2 11.3l-1.4.9.2 3.9 2.4 2.4 1.7-.5 2.6-1.3v-3.4l-3.1-3zm3.7 9.8 4.8-.8 4-1.1" vector-effect="non-scaling-stroke"/><path fill="none" stroke="#745c2c" stroke-linecap="round" stroke-linejoin="round" stroke-width="__RESOLUTION__" d="M12 10.4Q11.5 9 9.5 8.3L6.8 7.2" vector-effect="non-scaling-stroke"/><path fill="#c89f77" d="m18.9 6 .9 2.9.2 2.7-3.3-1.3Q15 9.5 14 8t-.7-2.8 1.3-1.8 2.3.3 2 2.4"/><path fill="#f5d9c4" d="M22.4.9q-.9 4.3-3.5 7.7h-1.7q-3.7-.2-3.3-3.6z"/><path fill="#ffeded" d="M13.9 5v-.4l.4-1.4q4-2 8-2.3z"/><path fill="none" stroke="#745c2c" stroke-linecap="round" stroke-linejoin="round" stroke-width="__RESOLUTION__" d="M22.4.9q-.9 4.3-3.5 7.7m-1.7 0q-3.7-.2-3.3-3.6v-.4m.4-1.4q4-2 8-2.3" vector-effect="non-scaling-stroke"/><path fill="#c89f77" d="m7.2 7.4 2.2.8q2 .8 2.6 2.2 1 2.2.8 4 0 .3-1.1-1l-3.1-3.1-2.4 1v.2L3.3 9l3.6-1.8zm-1 3.9v.2z"/><path fill="#f5d9c4" d="M12 10.4Q11.5 9 9.5 8.3l-2.2-1 .7-.8 3 .4.5-.2q3.7 2 3.5 6.3-.3 4.8-4.7 5.3l-.6-.5 2.2-1.1-.1-3.2q1 1.3 1.1 1 .3-1.9-.7-4.1"/><path fill="#b17b54" d="M6.2 11.5v-.2z"/><path fill="none" stroke="#745c2c" stroke-linecap="round" stroke-linejoin="round" stroke-width="__RESOLUTION__" d="M12 10.4Q11.5 9 9.5 8.3l-2.2-1-.3-.1m-.7 4.1 2.4-1 3.1 3v3.3l-2.1 1.2m-3.4-6.3v-.2 0" vector-effect="non-scaling-stroke"/></g><g id="l"><path fill="#f5ead3" d="M13.5 23.5v-3.9l2-.4z"/><path fill="#c8ac80" d="m13.6 19.6-.1 3.9-2-3.5z"/><path fill="none" stroke="#746330" stroke-linecap="round" stroke-linejoin="round" stroke-width="__RESOLUTION__" d="m13.5 23.5 2-4.3-2 .4-2 .4z" vector-effect="non-scaling-stroke"/><path fill="#c8ac80" d="M8.6 25.3Q6 23.6 6.4 21.2v-1h2.8q-2 2.2-.6 5.1"/><path fill="#f5ead3" d="M8.6 25.3q-1.4-3 .6-5.1H12q-1.7 2.9-1.6 6.1-1-.4-1.8-1"/><path fill="none" stroke="#746330" stroke-linecap="round" stroke-linejoin="round" stroke-width="__RESOLUTION__" d="M9.2 20.2H6.4v1q-.4 2.3 2.2 4.1l1.8 1q-.1-3.3 1.6-6.1z" vector-effect="non-scaling-stroke"/><path fill="#f5ead3" d="M18.9 17.8h1.3l.9.1q.4 2.3-1.7 4.8 1.2-3.4-.5-5"/><path fill="#c8ac80" d="M19.4 22.7 18 24q0-3.3-1.4-5.7l2.3-.7q1.7 1.6.5 5"/><path fill="none" stroke="#746330" stroke-linecap="round" stroke-linejoin="round" stroke-width="__RESOLUTION__" d="M18.9 17.8h1.3l.9.1q.4 2.3-1.7 4.8L18 24q0-3.3-1.4-5.7z" vector-effect="non-scaling-stroke"/><path fill="#f5ead3" d="M16.6 23v-3.8l2-.5z"/><path fill="#c8ac80" d="M16.6 19.2V23l-2-3.4z"/><path fill="none" stroke="#746330" stroke-linecap="round" stroke-linejoin="round" stroke-width="__RESOLUTION__" d="m16.6 23 2-4.2-2 .3-2 .4z" vector-effect="non-scaling-stroke"/><path fill="#f5ead3" d="m7.8 0 7.6 2q2.5 3.7 2.8 7.4 1.8 4.3 2 9.5l-1.5.3-11.2.6-3.5-3L0 10l2.1-6.2h.2zM18 16.4l-.6-1.7-1.8 2.2zM6.2 11.3l-1.4.9.2 3.9 2.4 2.4 1.7-.5 2.6-1.3v-3.4l-3.1-3z"/><path fill="#fff" d="M20.2 18.9q-.2-5.2-2-9.5Q18 5.7 15.5 2L7.8 0h5.5q3.3 0 5.7 1.8.6 3.6 1.8 6.5 1.6 3.6 1 6.6-.2 1.2-.8 2.3 1.8.7-.9 1.7M21 15l.8-.1-.7-1.6z"/><path fill="#c8ac80" d="m0 10 4 6.9 3.5 2.9 11.3-.6-4.1 1.1-4.8.8-1.6.1-1.7.3q-1.8 0-1-1.6L2.7 17zm21.8 4.9-.8.1.1-1.8zm-4.4-.2.6 1.7-2.4.5z"/><path fill="#5a4014" d="m6.2 11.3 2.4-1 3.1 3v3.4L9.3 18l-1.8.5L5 16.1l-.2-3.9z"/><path fill="none" stroke="#746330" stroke-linecap="round" stroke-linejoin="round" stroke-width="__RESOLUTION__" d="M7.8 0 2.3 3.8H2L0 9.9 2.7 17l3 2.9q-.9 1.7 1 1.6l1.7-.2m11.8-2.5q2.6-1 .7-1.6.7-1.1.9-2.3.7-3-1-6.6-1.3-3-1.8-6.5Q16.7 0 13.4 0H7.8M21 15l.1-1.7M18 16.4l-.6-1.7M6.2 11.3l-1.4.9.2 3.9 2.4 2.4 1.7-.5 2.6-1.3v-3.4l-3.1-3zm3.7 9.8 4.8-.8 4-1.1" vector-effect="non-scaling-stroke"/><path fill="none" stroke="#746330" stroke-linecap="round" stroke-linejoin="round" stroke-width="__RESOLUTION__" d="M12 10.4Q11.5 9 9.5 8.3L6.8 7.2" vector-effect="non-scaling-stroke"/><path fill="#c8ac80" d="m18.9 6 .9 2.9.2 2.7-3.3-1.3Q15 9.5 14 8t-.7-2.8 1.3-1.8 2.3.3 2 2.4"/><path fill="#f5ead3" d="M22.4.9q-.9 4.3-3.5 7.7h-1.7q-3.7-.2-3.3-3.6z"/><path fill="#fff" d="M13.9 5v-.4l.4-1.4q4-2 8-2.3z"/><path fill="none" stroke="#746330" stroke-linecap="round" stroke-linejoin="round" stroke-width="__RESOLUTION__" d="M22.4.9q-.9 4.3-3.5 7.7m-1.7 0q-3.7-.2-3.3-3.6v-.4m.4-1.4q4-2 8-2.3" vector-effect="non-scaling-stroke"/><path fill="#c8ac80" d="m7.2 7.4 2.2.8q2 .8 2.6 2.2 1 2.2.8 4 0 .3-1.1-1l-3.1-3.1-2.4 1v.2L3.3 9l3.6-1.8zm-1 3.9v.2z"/><path fill="#f5ead3" d="M12 10.4Q11.5 9 9.5 8.3l-2.2-1 .7-.8 3 .4.5-.2q3.7 2 3.5 6.3-.3 4.8-4.7 5.3l-.6-.5 2.2-1.1-.1-3.2q1 1.3 1.1 1 .3-1.9-.7-4.1"/><path fill="#b1855b" d="M6.2 11.5v-.2z"/><path fill="none" stroke="#746330" stroke-linecap="round" stroke-linejoin="round" stroke-width="__RESOLUTION__" d="M12 10.4Q11.5 9 9.5 8.3l-2.2-1-.3-.1m-.7 4.1 2.4-1 3.1 3v3.3l-2.1 1.2m-3.4-6.3v-.2 0" vector-effect="non-scaling-stroke"/></g><g id="m"><path fill="#fff" d="M22 8.6q1 1 1 2.4t-1 2.4-2.3 1q-1.5 0-2.5-1t-1-2.4 1-2.4 2.5-1q1.3 0 2.3 1"/><path fill="none" stroke="#746330" stroke-linecap="round" stroke-linejoin="round" stroke-width="__RESOLUTION__" d="M22 8.6q1 1 1 2.4t-1 2.4-2.3 1q-1.5 0-2.5-1t-1-2.4 1-2.4 2.5-1q1.3 0 2.3 1" vector-effect="non-scaling-stroke"/><path fill="#000" d="m21.9 11.4.4.2.2.4-.2.4-.4.1-.4-.1-.1-.4.1-.4z"/><path fill="#f5ead3" d="M13.5 23.5v-3.9l2-.4z"/><path fill="#c8ac80" d="m13.6 19.6-.1 3.9-2-3.5z"/><path fill="none" stroke="#746330" stroke-linecap="round" stroke-linejoin="round" stroke-width="__RESOLUTION__" d="m13.5 23.5 2-4.3-2 .4-2 .4z" vector-effect="non-scaling-stroke"/><path fill="#c8ac80" d="M8.6 25.3Q6 23.6 6.4 21.2v-1h2.8q-2 2.2-.6 5.1"/><path fill="#f5ead3" d="M8.6 25.3q-1.4-3 .6-5.1H12q-1.7 2.9-1.6 6.1-1-.4-1.8-1"/><path fill="none" stroke="#746330" stroke-linecap="round" stroke-linejoin="round" stroke-width="__RESOLUTION__" d="M9.2 20.2H6.4v1q-.4 2.3 2.2 4.1l1.8 1q-.1-3.3 1.6-6.1z" vector-effect="non-scaling-stroke"/><path fill="#f5ead3" d="M18.9 17.8h1.3l.9.1q.4 2.3-1.7 4.8 1.2-3.4-.5-5"/><path fill="#c8ac80" d="M19.4 22.7 18 24q0-3.3-1.4-5.7l2.3-.7q1.7 1.6.5 5"/><path fill="none" stroke="#746330" stroke-linecap="round" stroke-linejoin="round" stroke-width="__RESOLUTION__" d="M18.9 17.8h1.3l.9.1q.4 2.3-1.7 4.8L18 24q0-3.3-1.4-5.7z" vector-effect="non-scaling-stroke"/><path fill="#f5ead3" d="M16.6 23v-3.8l2-.5z"/><path fill="#c8ac80" d="M16.6 19.2V23l-2-3.4z"/><path fill="none" stroke="#746330" stroke-linecap="round" stroke-linejoin="round" stroke-width="__RESOLUTION__" d="m16.6 23 2-4.2-2 .3-2 .4z" vector-effect="non-scaling-stroke"/><path fill="#f5ead3" d="m7.8 0 7.6 2q2.5 3.7 2.8 7.4 1.8 4.3 2 9.5l-1.5.3-11.2.6-3.5-3L0 10l2.1-6.2h.2zM18 16.4l-.6-1.7-1.8 2.2zM6.2 11.3l-1.4.9.2 3.9 2.4 2.4 1.7-.5 2.6-1.3v-3.4l-3.1-3z"/><path fill="#fff" d="M20.2 18.9q-.2-5.2-2-9.5Q18 5.7 15.5 2L7.8 0h5.5q3.3 0 5.7 1.8.6 3.6 1.8 6.5 1.6 3.6 1 6.6-.2 1.2-.8 2.3 1.8.7-.9 1.7M21 15l.8-.1-.7-1.6z"/><path fill="#c8ac80" d="m0 10 4 6.9 3.5 2.9 11.3-.6-4.1 1.1-4.8.8-1.6.1-1.7.3q-1.8 0-1-1.6L2.7 17zm21.8 4.9-.8.1.1-1.8zm-4.4-.2.6 1.7-2.4.5z"/><path fill="#5a4014" d="m6.2 11.3 2.4-1 3.1 3v3.4L9.3 18l-1.8.5L5 16.1l-.2-3.9z"/><path fill="none" stroke="#746330" stroke-linecap="round" stroke-linejoin="round" stroke-width="__RESOLUTION__" d="M7.8 0 2.3 3.8H2L0 9.9 2.7 17l3 2.9q-.9 1.7 1 1.6l1.7-.2m11.8-2.5q2.6-1 .7-1.6.7-1.1.9-2.3.7-3-1-6.6-1.3-3-1.8-6.5Q16.7 0 13.4 0H7.8M21 15l.1-1.7M18 16.4l-.6-1.7M6.2 11.3l-1.4.9.2 3.9 2.4 2.4 1.7-.5 2.6-1.3v-3.4l-3.1-3zm3.7 9.8 4.8-.8 4-1.1" vector-effect="non-scaling-stroke"/><path fill="none" stroke="#746330" stroke-linecap="round" stroke-linejoin="round" stroke-width="__RESOLUTION__" d="M12 10.4Q11.5 9 9.5 8.3L6.8 7.2" vector-effect="non-scaling-stroke"/><path fill="#c8ac80" d="m18.9 6 .9 2.9.2 2.7-3.3-1.3Q15 9.5 14 8t-.7-2.8 1.3-1.8 2.3.3 2 2.4"/><path fill="#f5ead3" d="M22.4.9q-.9 4.3-3.5 7.7h-1.7q-3.7-.2-3.3-3.6z"/><path fill="#fff" d="M13.9 5v-.4l.4-1.4q4-2 8-2.3z"/><path fill="none" stroke="#746330" stroke-linecap="round" stroke-linejoin="round" stroke-width="__RESOLUTION__" d="M22.4.9q-.9 4.3-3.5 7.7m-1.7 0q-3.7-.2-3.3-3.6v-.4m.4-1.4q4-2 8-2.3" vector-effect="non-scaling-stroke"/><path fill="#fff" d="M10.9 11.7q1 1 1 2.4t-1 2.3-2.4 1-2.4-1q-1-1-1-2.3t1-2.5 2.4-1 2.4 1"/><path fill="none" stroke="#746330" stroke-linecap="round" stroke-linejoin="round" stroke-width="__RESOLUTION__" d="M10.9 11.7q-1-1-2.4-1t-2.4 1-1 2.4 1 2.3 2.4 1 2.4-1q1-1 1-2.3t-1-2.4" vector-effect="non-scaling-stroke"/><path fill="#000" d="m8.5 15 .1-.4.4-.2.4.2.2.4-.2.4-.4.2-.4-.2z"/><path fill="#c8ac80" d="m7.2 7.4 2.2.8q2 .8 2.6 2.2 1 2.2.8 4 0 .3-1.1-1l-3.1-3.1-2.4 1v.2L3.3 9l3.6-1.8zm-1 3.9v.2z"/><path fill="#f5ead3" d="M12 10.4Q11.5 9 9.5 8.3l-2.2-1 .7-.8 3 .4.5-.2q3.7 2 3.5 6.3-.3 4.8-4.7 5.3l-.6-.5 2.2-1.1-.1-3.2q1 1.3 1.1 1 .3-1.9-.7-4.1"/><path fill="#b1855b" d="M6.2 11.5v-.2z"/><path fill="none" stroke="#746330" stroke-linecap="round" stroke-linejoin="round" stroke-width="__RESOLUTION__" d="M12 10.4Q11.5 9 9.5 8.3l-2.2-1-.3-.1m-.7 4.1 2.4-1 3.1 3v3.3l-2.1 1.2m-3.4-6.3v-.2 0" vector-effect="non-scaling-stroke"/></g></defs><g clip-path="url(#n)"><g transform="translate(1 1)"><use xlink:href="#o" width="23" height="26.5" transform="translate(2.1 5.25)"/><use xlink:href="#m" width="23" height="26.3" transform="translate(-6.2 -30.35)"/></g></g><g clip-path="url(#p)"><g transform="translate(36 1)"><use xlink:href="#o" width="23" height="26.5" transform="rotate(.302 -966.585 410.485)scale(1.0056)"/><use xlink:href="#m" width="23" height="26.3" transform="translate(-6.2 -30.35)"/></g></g><g clip-path="url(#q)"><g transform="translate(71 1)"><use xlink:href="#o" width="23" height="26.5" transform="rotate(.8 -352.717 168.55)scale(1.011)"/><use xlink:href="#m" width="23" height="26.3" transform="translate(-6.2 -30.35)"/></g></g><g clip-path="url(#r)"><g transform="translate(106 1)"><use xlink:href="#o" width="23" height="26.5" transform="rotate(1.28 -209.245 112.063)scale(1.0167)"/><use xlink:href="#m" width="23" height="26.3" transform="translate(-6.2 -30.35)"/></g></g><g clip-path="url(#s)"><g transform="translate(141 1)"><use xlink:href="#o" width="23" height="26.5" transform="rotate(1.771 -144.22 87.96)scale(1.0223)"/><use xlink:href="#m" width="23" height="26.3" transform="translate(-6.2 -30.35)"/></g></g><g clip-path="url(#t)"><g transform="translate(176 1)"><use xlink:href="#o" width="23" height="26.5" transform="matrix(1.027 .0405 -.0405 1.027 2.75 4.3)"/><use xlink:href="#m" width="23" height="26.3" transform="translate(-6.2 -30.35)"/></g></g><g clip-path="url(#u)"><g transform="translate(211 1)"><use xlink:href="#o" width="23" height="26.5" transform="rotate(2.562 -90.266 64.651)scale(1.0334)"/><use xlink:href="#m" width="23" height="26.3" transform="translate(-6.2 -30.35)"/></g></g><g clip-path="url(#v)"><g transform="translate(246 1)"><use xlink:href="#o" width="23" height="26.5" transform="rotate(3.051 -72.66 58.299)scale(1.039)"/><use xlink:href="#m" width="23" height="26.3" transform="translate(-6.2 -30.35)"/></g></g><g clip-path="url(#w)"><g transform="translate(281 1)"><use xlink:href="#o" width="23" height="26.5" transform="rotate(3.54 -59.902 52.861)scale(1.0445)"/><use xlink:href="#m" width="23" height="26.3" transform="translate(-6.2 -30.35)"/></g></g><g clip-path="url(#x)"><g transform="translate(316 1)"><use xlink:href="#o" width="23" height="26.5" transform="rotate(4.03 -49.486 49.408)scale(1.0501)"/><use xlink:href="#m" width="23" height="26.3" transform="translate(-6.2 -30.35)"/></g></g><g clip-path="url(#y)"><g transform="translate(351 1)"><use xlink:href="#o" width="23" height="26.5" transform="rotate(4.52 -41.957 46.066)scale(1.0557)"/><use xlink:href="#m" width="23" height="26.3" transform="translate(-6.2 -30.35)"/></g></g><g clip-path="url(#z)"><g transform="translate(386 1)"><use xlink:href="#o" width="23" height="26.5" transform="rotate(5.012 -35.282 43.899)scale(1.0612)"/><use xlink:href="#m" width="23" height="26.3" transform="translate(-6.2 -30.35)"/></g></g><g clip-path="url(#A)"><g transform="translate(421 1)"><use xlink:href="#o" width="23" height="26.5" transform="rotate(5.314 -31.5 42.492)scale(1.0668)"/><use xlink:href="#m" width="23" height="26.3" transform="translate(-6.2 -30.35)"/></g></g><g clip-path="url(#B)"><g transform="translate(456 1)"><use xlink:href="#o" width="23" height="26.5" transform="rotate(5.802 -26.638 40.423)scale(1.0723)"/><use xlink:href="#m" width="23" height="26.3" transform="translate(-6.2 -30.35)"/></g></g><g clip-path="url(#C)"><g transform="translate(491 1)"><use xlink:href="#o" width="23" height="26.5" transform="rotate(6.296 -22.952 38.651)scale(1.0779)"/><use xlink:href="#m" width="23" height="26.3" transform="translate(-6.2 -30.35)"/></g></g><g clip-path="url(#D)"><g transform="translate(526 1)"><use xlink:href="#o" width="23" height="26.5" transform="rotate(6.785 -19.335 37.968)scale(1.0835)"/><use xlink:href="#m" width="23" height="26.3" transform="translate(-6.2 -30.35)"/></g></g><g clip-path="url(#E)"><g transform="translate(561 1)"><use xlink:href="#o" width="23" height="26.5" transform="rotate(7.275 -16.626 36.592)scale(1.089)"/><use xlink:href="#m" width="23" height="26.3" transform="translate(-6.2 -30.35)"/></g></g><g clip-path="url(#F)"><g transform="translate(596 1)"><use xlink:href="#o" width="23" height="26.5" transform="rotate(7.766 -14.2 36.116)scale(1.0945)"/><use xlink:href="#m" width="23" height="26.3" transform="translate(-6.2 -30.35)"/></g></g><g clip-path="url(#G)"><g transform="translate(631 1)"><use xlink:href="#o" width="23" height="26.5" transform="rotate(8.068 -12.135 35.058)scale(1.1002)"/><use xlink:href="#m" width="23" height="26.3" transform="translate(-6.2 -30.35)"/></g></g><g clip-path="url(#H)"><g transform="translate(666 1)"><use xlink:href="#o" width="23" height="26.5" transform="rotate(8.556 -10.534 34.396)scale(1.1057)"/><use xlink:href="#m" width="23" height="26.3" transform="translate(-6.2 -30.35)"/></g></g><g clip-path="url(#I)"><g transform="translate(701 1)"><use xlink:href="#o" width="23" height="26.5" transform="rotate(9.045 -8.437 34.061)scale(1.1112)"/><use xlink:href="#m" width="23" height="26.3" transform="translate(-6.2 -30.35)"/></g></g><g clip-path="url(#J)"><g transform="translate(736 1)"><use xlink:href="#o" width="23" height="26.5" transform="rotate(9.535 -6.892 33.174)scale(1.1168)"/><use xlink:href="#m" width="23" height="26.3" transform="translate(-6.2 -30.35)"/></g></g><g clip-path="url(#K)"><g transform="translate(771 1)"><use xlink:href="#o" width="23" height="26.5" transform="rotate(10.026 -5.155 32.905)scale(1.1223)"/><use xlink:href="#m" width="23" height="26.3" transform="translate(-6.2 -30.35)"/></g></g><g clip-path="url(#L)"><g transform="translate(806 1)"><use xlink:href="#M" width="22.4" height="26.5" transform="rotate(10.537 -3.828 32.615)scale(1.1286)"/><use xlink:href="#l" width="22.4" height="26.3" transform="translate(-6.2 -30.35)"/></g></g><g clip-path="url(#N)"><g transform="translate(841 1)"><use xlink:href="#O" width="22.4" height="26.5" transform="rotate(11.02 -2.935 31.932)scale(1.1341)"/><use xlink:href="#k" width="22.4" height="26.3" transform="translate(-6.2 -30.35)"/></g></g><g clip-path="url(#P)"><g transform="translate(876 1)"><use xlink:href="#Q" width="22.4" height="26.5" transform="rotate(11.529 -1.555 31.68)scale(1.1403)"/><use xlink:href="#j" width="22.4" height="26.3" transform="translate(-6.2 -30.35)"/></g></g><g clip-path="url(#R)"><g transform="translate(911 1)"><use xlink:href="#S" width="22.4" height="26.5" transform="rotate(12.031 -.334 30.979)scale(1.1466)"/><use xlink:href="#i" width="22.4" height="26.3" transform="translate(-6.2 -30.35)"/></g></g><g clip-path="url(#T)"><g transform="translate(946 1)"><use xlink:href="#U" width="22.4" height="26.5" transform="rotate(12.54 .645 31.018)scale(1.1528)"/><use xlink:href="#h" width="22.4" height="26.3" transform="translate(-6.2 -30.35)"/></g></g><g clip-path="url(#V)"><g transform="translate(981 1)"><use xlink:href="#W" width="22.4" height="26.5" transform="rotate(13.045 1.313 30.863)scale(1.159)"/><use xlink:href="#g" width="22.4" height="26.3" transform="translate(-6.2 -30.35)"/></g></g><g clip-path="url(#X)"><g transform="translate(1016 1)"><use xlink:href="#Y" width="22.4" height="26.5" transform="rotate(13.55 2.337 30.454)scale(1.1652)"/><use xlink:href="#f" width="22.4" height="26.3" transform="translate(-6.2 -30.35)"/></g></g><g clip-path="url(#Z)"><g transform="translate(1051 1)"><use xlink:href="#aa" width="22.4" height="26.5" transform="rotate(14.175 3.8 30.563)scale(1.1724)"/><use xlink:href="#e" width="22.4" height="26.3" transform="translate(-6.2 -30.35)"/></g></g><g clip-path="url(#ab)"><g transform="translate(1086 1)"><use xlink:href="#ac" width="22.4" height="26.5" transform="rotate(13.51 -3.154 31.192)scale(1.1369)"/><use xlink:href="#d" width="22.4" height="26.3" transform="translate(-6.2 -30.35)"/></g></g><g clip-path="url(#ad)"><g transform="translate(1121 1)"><use xlink:href="#ae" width="22.4" height="26.5" transform="rotate(12.778 -9.723 32.286)scale(1.1023)"/><use xlink:href="#c" width="22.4" height="26.3" transform="translate(-6.2 -30.35)"/></g></g><g clip-path="url(#af)"><g transform="translate(1156 1)"><use xlink:href="#ag" width="22.4" height="26.5" transform="rotate(12.049 -17.571 33.233)scale(1.0678)"/><use xlink:href="#b" width="22.4" height="26.3" transform="translate(-6.2 -30.35)"/></g></g><g clip-path="url(#ah)"><g transform="translate(1191 1)"><use xlink:href="#ai" width="22.4" height="26.5" transform="rotate(11.313 -26.154 34.45)scale(1.0333)"/><use xlink:href="#a" width="22.4" height="26.3" transform="translate(-6.2 -30.35)"/></g></g><g clip-path="url(#aj)"><g transform="translate(1226 1)"><use xlink:href="#o" width="23" height="26.5" transform="rotate(10.808 -35.508 36.155)scale(.9993)"/><use xlink:href="#m" width="23" height="26.3" transform="translate(-6.2 -30.35)"/></g></g><g clip-path="url(#ak)"><g transform="translate(1261 1)"><use xlink:href="#o" width="23" height="26.5" transform="rotate(10.54 -36.274 36.42)scale(.9988)"/><use xlink:href="#m" width="23" height="26.3" transform="translate(-6.2 -30.35)"/></g></g><g clip-path="url(#al)"><g transform="translate(1296 1)"><use xlink:href="#o" width="23" height="26.5" transform="matrix(.9827 .1787 -.1787 .9827 5.9 7.2)"/><use xlink:href="#m" width="23" height="26.3" transform="translate(-6.2 -30.35)"/></g></g><g clip-path="url(#am)"><g transform="translate(1331 1)"><use xlink:href="#o" width="23" height="26.5" transform="rotate(10.26 -36.82 36.991)scale(.9988)"/><use xlink:href="#m" width="23" height="26.3" transform="translate(-6.2 -30.35)"/></g></g><g clip-path="url(#an)"><g transform="translate(1366 1)"><use xlink:href="#o" width="23" height="26.5" transform="rotate(10.026 -37.545 36.895)scale(.9989)"/><use xlink:href="#m" width="23" height="26.3" transform="translate(-6.2 -30.35)"/></g></g><g clip-path="url(#ao)"><g transform="translate(1401 1)"><use xlink:href="#o" width="23" height="26.5" transform="rotate(9.793 -38.562 37.108)scale(.9989)"/><use xlink:href="#m" width="23" height="26.3" transform="translate(-6.2 -30.35)"/></g></g><g clip-path="url(#ap)"><g transform="translate(1436 1)"><use xlink:href="#o" width="23" height="26.5" transform="rotate(9.56 -39.627 37.332)scale(.9989)"/><use xlink:href="#m" width="23" height="26.3" transform="translate(-6.2 -30.35)"/></g></g><g clip-path="url(#aq)"><g transform="translate(1471 1)"><use xlink:href="#o" width="23" height="26.5" transform="rotate(9.52 -39.508 37.452)scale(.9989)"/><use xlink:href="#m" width="23" height="26.3" transform="translate(-6.2 -30.35)"/></g></g><g clip-path="url(#ar)"><g transform="translate(1506 1)"><use xlink:href="#o" width="23" height="26.5" transform="matrix(.9858 .1612 -.1612 .9858 5.55 7)"/><use xlink:href="#m" width="23" height="26.3" transform="translate(-6.2 -30.35)"/></g></g><g clip-path="url(#as)"><g transform="translate(1541 1)"><use xlink:href="#o" width="23" height="26.5" transform="rotate(9.054 -41.114 38.523)scale(.999)"/><use xlink:href="#m" width="23" height="26.3" transform="translate(-6.2 -30.35)"/></g></g><g clip-path="url(#at)"><g transform="translate(1576 1)"><use xlink:href="#o" width="23" height="26.5" transform="rotate(9.008 -41.048 38.362)scale(.999)"/><use xlink:href="#m" width="23" height="26.3" transform="translate(-6.2 -30.35)"/></g></g><g clip-path="url(#au)"><g transform="translate(1611 1)"><use xlink:href="#o" width="23" height="26.5" transform="rotate(8.775 -41.94 38.615)scale(.999)"/><use xlink:href="#m" width="23" height="26.3" transform="translate(-6.2 -30.35)"/></g></g><g clip-path="url(#av)"><g transform="translate(1646 1)"><use xlink:href="#o" width="23" height="26.5" transform="rotate(8.543 -42.897 38.545)scale(.999)"/><use xlink:href="#m" width="23" height="26.3" transform="translate(-6.2 -30.35)"/></g></g><g clip-path="url(#aw)"><g transform="translate(1681 1)"><use xlink:href="#o" width="23" height="26.5" transform="rotate(8.304 -44.234 39.214)scale(.999)"/><use xlink:href="#m" width="23" height="26.3" transform="translate(-6.2 -30.35)"/></g></g><g clip-path="url(#ax)"><g transform="translate(1716 1)"><use xlink:href="#o" width="23" height="26.5" transform="rotate(8.264 -44.118 39.365)scale(.999)"/><use xlink:href="#m" width="23" height="26.3" transform="translate(-6.2 -30.35)"/></g></g><g clip-path="url(#ay)"><g transform="translate(1751 1)"><use xlink:href="#o" width="23" height="26.5" transform="rotate(8.032 -45.14 40.027)scale(.9991)"/><use xlink:href="#m" width="23" height="26.3" transform="translate(-6.2 -30.35)"/></g></g><g clip-path="url(#az)"><g transform="translate(1786 1)"><use xlink:href="#o" width="23" height="26.5" transform="rotate(7.8 -46.268 39.993)scale(.999)"/><use xlink:href="#m" width="23" height="26.3" transform="translate(-6.2 -30.35)"/></g></g><g clip-path="url(#aA)"><g transform="translate(1821 1)"><use xlink:href="#o" width="23" height="26.5" transform="rotate(7.563 -47.476 40.367)scale(.999)"/><use xlink:href="#m" width="23" height="26.3" transform="translate(-6.2 -30.35)"/></g></g><g clip-path="url(#aB)"><g transform="translate(1856 1)"><use xlink:href="#o" width="23" height="26.5" transform="rotate(7.523 -47.746 40.567)scale(.9991)"/><use xlink:href="#m" width="23" height="26.3" transform="translate(-6.2 -30.35)"/></g></g><g clip-path="url(#aC)"><g transform="translate(1891 1)"><use xlink:href="#o" width="23" height="26.5" transform="rotate(7.285 -49.02 41.368)scale(.9992)"/><use xlink:href="#m" width="23" height="26.3" transform="translate(-6.2 -30.35)"/></g></g><g clip-path="url(#aD)"><g transform="translate(1926 1)"><use xlink:href="#o" width="23" height="26.5" transform="rotate(7.054 -50 40.947)scale(.9992)"/><use xlink:href="#m" width="23" height="26.3" transform="translate(-6.2 -30.35)"/></g></g><g clip-path="url(#aE)"><g transform="translate(1961 1)"><use xlink:href="#o" width="23" height="26.5" transform="rotate(7.008 -49.887 41.988)scale(.9992)"/><use xlink:href="#m" width="23" height="26.3" transform="translate(-6.2 -30.35)"/></g></g><g clip-path="url(#aF)"><g transform="translate(1996 1)"><use xlink:href="#o" width="23" height="26.5" transform="rotate(6.777 -51.724 42.47)scale(.9992)"/><use xlink:href="#m" width="23" height="26.3" transform="translate(-6.2 -30.35)"/></g></g><g clip-path="url(#aG)"><g transform="translate(2031 1)"><use xlink:href="#o" width="23" height="26.5" transform="rotate(6.545 -53.275 42.524)scale(.9992)"/><use xlink:href="#m" width="23" height="26.3" transform="translate(-6.2 -30.35)"/></g></g><g clip-path="url(#aH)"><g transform="translate(2066 1)"><use xlink:href="#o" width="23" height="26.5" transform="rotate(6.309 -55.39 43.55)scale(.9993)"/><use xlink:href="#m" width="23" height="26.3" transform="translate(-6.2 -30.35)"/></g></g><g clip-path="url(#aI)"><g transform="translate(2101 1)"><use xlink:href="#o" width="23" height="26.5" transform="rotate(6.268 -55.33 43.33)scale(.9993)"/><use xlink:href="#m" width="23" height="26.3" transform="translate(-6.2 -30.35)"/></g></g><g clip-path="url(#aJ)"><g transform="translate(2136 1)"><use xlink:href="#o" width="23" height="26.5" transform="matrix(.9937 .105 -.105 .9937 4.3 6.25)"/><use xlink:href="#m" width="23" height="26.3" transform="translate(-6.2 -30.35)"/></g></g><g clip-path="url(#aK)"><g transform="translate(2171 1)"><use xlink:href="#o" width="23" height="26.5" transform="rotate(5.8 -59.062 45.043)scale(.9993)"/><use xlink:href="#m" width="23" height="26.3" transform="translate(-6.2 -30.35)"/></g></g><g clip-path="url(#aL)"><g transform="translate(2206 1)"><use xlink:href="#o" width="23" height="26.5" transform="rotate(5.755 -59.057 45.355)scale(.9993)"/><use xlink:href="#m" width="23" height="26.3" transform="translate(-6.2 -30.35)"/></g></g><g clip-path="url(#aM)"><g transform="translate(2241 1)"><use xlink:href="#o" width="23" height="26.5" transform="rotate(5.524 -61.146 46.06)scale(.9993)"/><use xlink:href="#m" width="23" height="26.3" transform="translate(-6.2 -30.35)"/></g></g><g clip-path="url(#aN)"><g transform="translate(2276 1)"><use xlink:href="#o" width="23" height="26.5" transform="rotate(5.288 -63.999 47.443)scale(.9994)"/><use xlink:href="#m" width="23" height="26.3" transform="translate(-6.2 -30.35)"/></g></g><g clip-path="url(#aO)"><g transform="translate(2311 1)"><use xlink:href="#o" width="23" height="26.5" transform="rotate(5.057 -67.113 47.205)scale(.9994)"/><use xlink:href="#m" width="23" height="26.3" transform="translate(-6.2 -30.35)"/></g></g><g clip-path="url(#aP)"><g transform="translate(2346 1)"><use xlink:href="#o" width="23" height="26.5" transform="rotate(5.011 -67.154 48.159)scale(.9994)"/><use xlink:href="#m" width="23" height="26.3" transform="translate(-6.2 -30.35)"/></g></g><g clip-path="url(#aQ)"><g transform="translate(2381 1)"><use xlink:href="#o" width="23" height="26.5" transform="rotate(4.781 -69.934 49.11)scale(.9994)"/><use xlink:href="#m" width="23" height="26.3" transform="translate(-6.2 -30.35)"/></g></g><g clip-path="url(#aR)"><g transform="translate(2416 1)"><use xlink:href="#o" width="23" height="26.5" transform="rotate(4.545 -73.066 50.853)scale(.9994)"/><use xlink:href="#m" width="23" height="26.3" transform="translate(-6.2 -30.35)"/></g></g><g clip-path="url(#aS)"><g transform="translate(2451 1)"><use xlink:href="#o" width="23" height="26.5" transform="rotate(4.505 -73.105 51.258)scale(.9995)"/><use xlink:href="#m" width="23" height="26.3" transform="translate(-6.2 -30.35)"/></g></g><g clip-path="url(#aT)"><g transform="translate(2486 1)"><use xlink:href="#o" width="23" height="26.5" transform="rotate(4.269 -77.3 52.586)scale(.9995)"/><use xlink:href="#m" width="23" height="26.3" transform="translate(-6.2 -30.35)"/></g></g><g clip-path="url(#aU)"><g transform="translate(2521 1)"><use xlink:href="#o" width="23" height="26.5" transform="rotate(4.04 -81.175 53.262)scale(.9995)"/><use xlink:href="#m" width="23" height="26.3" transform="translate(-6.2 -30.35)"/></g></g><g clip-path="url(#aV)"><g transform="translate(2556 1)"><use xlink:href="#o" width="23" height="26.5" transform="rotate(3.803 -85.616 54.853)scale(.9995)"/><use xlink:href="#m" width="23" height="26.3" transform="translate(-6.2 -30.35)"/></g></g><g clip-path="url(#aW)"><g transform="translate(2591 1)"><use xlink:href="#o" width="23" height="26.5" transform="rotate(3.763 -85.769 56.147)scale(.9996)"/><use xlink:href="#m" width="23" height="26.3" transform="translate(-6.2 -30.35)"/></g></g><g clip-path="url(#aX)"><g transform="translate(2626 1)"><use xlink:href="#o" width="23" height="26.5" transform="rotate(3.527 -92.456 58.922)scale(.9996)"/><use xlink:href="#m" width="23" height="26.3" transform="translate(-6.2 -30.35)"/></g></g><g clip-path="url(#aY)"><g transform="translate(2661 1)"><use xlink:href="#o" width="23" height="26.5" transform="rotate(3.292 -97.526 60.268)scale(.9995)"/><use xlink:href="#m" width="23" height="26.3" transform="translate(-6.2 -30.35)"/></g></g><g clip-path="url(#aZ)"><g transform="translate(2696 1)"><use xlink:href="#o" width="23" height="26.5" transform="rotate(3.062 -105.026 62.71)scale(.9996)"/><use xlink:href="#m" width="23" height="26.3" transform="translate(-6.2 -30.35)"/></g></g><g clip-path="url(#ba)"><g transform="translate(2731 1)"><use xlink:href="#o" width="23" height="26.5" transform="matrix(.9983 .0526 -.0526 .9983 3.2 5.7)"/><use xlink:href="#m" width="23" height="26.3" transform="translate(-6.2 -30.35)"/></g></g><g clip-path="url(#bb)"><g transform="translate(2766 1)"><use xlink:href="#o" width="23" height="26.5" transform="matrix(.9985 .0486 -.0486 .9985 3.1 5.6)"/><use xlink:href="#m" width="23" height="26.3" transform="translate(-6.2 -30.35)"/></g></g><g clip-path="url(#bc)"><g transform="translate(2801 1)"><use xlink:href="#o" width="23" height="26.5" transform="rotate(2.551 -123.094 71.26)scale(.9997)"/><use xlink:href="#m" width="23" height="26.3" transform="translate(-6.2 -30.35)"/></g></g><g clip-path="url(#bd)"><g transform="translate(2836 1)"><use xlink:href="#o" width="23" height="26.5" transform="rotate(2.505 -124.23 72.487)scale(.9997)"/><use xlink:href="#m" width="23" height="26.3" transform="translate(-6.2 -30.35)"/></g></g><g clip-path="url(#be)"><g transform="translate(2871 1)"><use xlink:href="#o" width="23" height="26.5" transform="matrix(.9989 .0397 -.0397 .9989 2.9 5.5)"/><use xlink:href="#m" width="23" height="26.3" transform="translate(-6.2 -30.35)"/></g></g><g clip-path="url(#bf)"><g transform="translate(2906 1)"><use xlink:href="#o" width="23" height="26.5" transform="rotate(2.04 -151.576 82.735)scale(.9997)"/><use xlink:href="#m" width="23" height="26.3" transform="translate(-6.2 -30.35)"/></g></g><g clip-path="url(#bg)"><g transform="translate(2941 1)"><use xlink:href="#o" width="23" height="26.5" transform="matrix(.9993 .0316 -.0316 .9993 2.7 5.5)"/><use xlink:href="#m" width="23" height="26.3" transform="translate(-6.2 -30.35)"/></g></g><g clip-path="url(#bh)"><g transform="translate(2976 1)"><use xlink:href="#o" width="23" height="26.5" transform="rotate(1.765 -175.491 91.97)scale(.9998)"/><use xlink:href="#m" width="23" height="26.3" transform="translate(-6.2 -30.35)"/></g></g><g clip-path="url(#bi)"><g transform="translate(3011 1)"><use xlink:href="#o" width="23" height="26.5" transform="rotate(1.53 -200.837 101.91)scale(.9998)"/><use xlink:href="#m" width="23" height="26.3" transform="translate(-6.2 -30.35)"/></g></g><g clip-path="url(#bj)"><g transform="translate(3046 1)"><use xlink:href="#o" width="23" height="26.5" transform="rotate(1.295 -235.386 115.476)scale(.9999)"/><use xlink:href="#m" width="23" height="26.3" transform="translate(-6.2 -30.35)"/></g></g><g clip-path="url(#bk)"><g transform="translate(3081 1)"><use xlink:href="#o" width="23" height="26.5" transform="rotate(1.255 -242.949 119.08)scale(.9998)"/><use xlink:href="#m" width="23" height="26.3" transform="translate(-6.2 -30.35)"/></g></g><g clip-path="url(#bl)"><g transform="translate(3116 1)"><use xlink:href="#o" width="23" height="26.5" transform="matrix(.9997 .0178 -.0178 .9997 2.5 5.3)"/><use xlink:href="#m" width="23" height="26.3" transform="translate(-6.2 -30.35)"/></g></g><g clip-path="url(#bm)"><g transform="translate(3151 1)"><use xlink:href="#o" width="23" height="26.5" transform="rotate(.79 -379.177 176.512)scale(.9999)"/><use xlink:href="#m" width="23" height="26.3" transform="translate(-6.2 -30.35)"/></g></g><g clip-path="url(#bn)"><g transform="translate(3186 1)"><use xlink:href="#o" width="23" height="26.5" transform="rotate(.556 -540.02 244.875)"/><use xlink:href="#m" width="23" height="26.3" transform="translate(-6.2 -30.35)"/></g></g><g clip-path="url(#bo)"><g transform="translate(3221 1)"><use xlink:href="#o" width="23" height="26.5" transform="rotate(.51 -583.073 261.006)"/><use xlink:href="#m" width="23" height="26.3" transform="translate(-6.2 -30.35)"/></g></g><g clip-path="url(#bp)"><g transform="translate(3256 1)"><use xlink:href="#o" width="23" height="26.5" transform="rotate(.275 -1082.106 471.306)"/><use xlink:href="#m" width="23" height="26.3" transform="translate(-6.2 -30.35)"/></g></g><g clip-path="url(#bq)"><g transform="translate(3291 1)"><use xlink:href="#o" width="23" height="26.5" transform="rotate(.046 -6498.951 2627.6)"/><use xlink:href="#m" width="23" height="26.3" transform="translate(-6.2 -30.35)"/></g></g></svg>