<svg xmlns="http://www.w3.org/2000/svg" xmlns:xlink="http://www.w3.org/1999/xlink" width="821" height="82" viewBox="0 0 821 82"><defs><use xlink:href="#a" id="H" width="22.9" height="21.6"/><use xlink:href="#b" id="S" width="9.1" height="8.6"/><use xlink:href="#c" id="R" width="14.9" height="11.3"/><use xlink:href="#d" id="Q" width="23.6" height="17.9"/><use xlink:href="#e" id="P" width="8.6" height="8.8"/><use xlink:href="#f" id="O" width="17.5" height="21.6"/><use xlink:href="#g" id="N" width="5.8" height="10.1"/><use xlink:href="#h" id="M" width="9.8" height="4.8"/><use xlink:href="#i" id="L" width="14.7" height="4.3"/><use xlink:href="#j" id="K" width="4.5" height="6"/><use xlink:href="#k" id="J" width="8.7" height="11.3"/><use xlink:href="#l" id="I" width="34.7" height="28.6"/><use xlink:href="#m" id="T" width="27.9" height="27.9"/><use xlink:href="#n" id="ae" width="9.1" height="8.6"/><use xlink:href="#o" id="ad" width="14.9" height="11.3"/><use xlink:href="#p" id="ac" width="23.6" height="17.9"/><use xlink:href="#q" id="ab" width="8.6" height="8.8"/><use xlink:href="#r" id="aa" width="17.5" height="21.6"/><use xlink:href="#s" id="Z" width="5.8" height="10.1"/><use xlink:href="#t" id="Y" width="9.8" height="4.8"/><use xlink:href="#u" id="X" width="14.7" height="4.3"/><use xlink:href="#v" id="W" width="4.5" height="6"/><use xlink:href="#w" id="U" width="8.7" height="11.3"/><use xlink:href="#x" id="ao" width="9.1" height="8.6"/><use xlink:href="#y" id="an" width="14.9" height="11.3"/><use xlink:href="#z" id="am" width="23.6" height="17.9"/><use xlink:href="#A" id="al" width="8.6" height="8.8"/><use xlink:href="#B" id="ak" width="17.5" height="21.6"/><use xlink:href="#C" id="aj" width="5.8" height="10.1"/><use xlink:href="#D" id="ai" width="9.8" height="4.8"/><use xlink:href="#E" id="ah" width="14.7" height="4.3"/><use xlink:href="#F" id="ag" width="4.5" height="6"/><use xlink:href="#G" id="af" width="8.7" height="11.3"/><use xlink:href="#H" id="aF" width="22.9" height="21.6" transform="matrix(-1 0 0 1 29.95 4.5)"/><use xlink:href="#I" id="az" width="34.7" height="28.6" transform="scale(1.21)"/><use xlink:href="#H" id="aw" width="22.9" height="21.6" transform="matrix(-1.19 0 0 1.19 32.1 3)"/><use xlink:href="#H" id="au" width="22.9" height="21.6" transform="matrix(-1.39 0 0 1.39 34.2 1.55)"/><use xlink:href="#H" id="ar" width="22.9" height="21.6" transform="matrix(-1.58 0 0 1.58 36.35 0)"/><g id="a"><path fill="#f00f0f" d="M15.4 5.5Q17 5 20.7 3q-1.6 2.6-2 4.6-.3 1.1.6 2.2 1 1.3 3.6 1.8-1.2 0-2.4.7-1 .7-1.3 1.3-.5 1 .5 2.7.7 1.5 2.7 3.8-6.6-3.5-9.2-1.8-2.1 1.5-2.9 3.3 0-1.7-.3-2.4-.5-2.1-1.8-2.5-3-1-7.4.4.8-.5 2.3-2.6 1-1.2.6-3.1Q3.3 8.7 0 6.2l3.4.4 2.9-.4q1-.3 1.2-6.1V0q2 3.1 4 4.9 1.5 1.2 3.9.5"/><path fill="#a6691f" d="M12.2 13.7h-.7l-.6-.4-3.5-6.1q-.2-.3 0-.8l.7-.6L9.5 5l.9-.1q.4 0 .5.5-2.3.8-2.5 1.4 2.5 5.3 3.7 6.9m1.9 4h-.7q-.7-.1-.9-.6t0-1.2q.3-.5 1-.9.3-.2.7-.2-1.2.4-1 1.7 0 1.2 1 1.2z"/><path fill="#fc0" d="M12.2 13.7q-1.3-1.6-3.7-6.9.1-.6 2.4-1.5l2.4 6.6v.8l-.6.7-.3.2zm1.9 1 .5.1q.5.2.8.7.2.5 0 1.1l-.9 1-.4.1q-1 0-1-1.3-.2-1.2 1-1.6"/></g><g id="b"><path fill="#980000" d="M3.8.3 5.6 0l2.8 1.5-4-.3zm4.6 1.2.4 3.1-1.2 1H5.4L4.4 7l.2-4.1q3-1.4 3.8-1.5m-8.1.7L0 1.6l1.3-.5.4.6z"/><path fill="#980000" d="m3.8.3.6.9-2.7.5-.5-.6zM4.4 7l-.5-2-1.7-.9 2.3-1.2zm0-5.8 4 .3q-.9 0-3.9 1.4zm-3 2.5-.7-.4-.5-1.1 1.4-.5z"/><path fill="#980000" d="m8.8 4.6.3 1.9-2.4 2.1L4.4 7l1-1.4h2.3zm-6.6-.5-.7-.4.2-2 2.7-.5.2 1.6z"/><path fill="none" stroke="#980000" stroke-linecap="round" stroke-linejoin="round" stroke-width="__RESOLUTION__" d="M8.4 1.5 5.6 0 3.8.3l-2.5.8-1.3.5m8.4-.1.4 3.1.3 1.9-2.4 2.1m0 0L4.4 7m0 0-.5-2-1.7-.9-.7-.4-.7-.4-.5-1.1-.3-.6" vector-effect="non-scaling-stroke"/><path fill="none" stroke="#980000" stroke-linecap="round" stroke-linejoin="round" stroke-width="__RESOLUTION__" d="m8.8 4.6-1.2 1H5.5L4.4 7" vector-effect="non-scaling-stroke"/></g><g id="c"><path fill="#980000" d="M0 4.6q.1-.7 1.3-1.1 1-.5 2.9.5.8.5 1.8.6.5 0 1.4-.4.6-.4 1.4-1.8Q9.6.7 10.6 0l2.5 2.8Q11.8 5 9 6.4l-4.5.1Q1.4 3.8.1 4.5m4.7 1.3Q5 5.2 6 4.6q-1 .6-1.2 1.2"/><path fill="#980000" d="M0 4.6q1.4-.8 4.5 1.9L9 6.4q2.8-1.3 4.1-3.6 3 5.6 1.2 8.3-3.6.7-6.6-.4-3-1.5-4.7-2.1Q.5 7.6.1 5.8z"/><path fill="none" stroke="#980000" stroke-linecap="round" stroke-linejoin="round" stroke-width="__RESOLUTION__" d="M6 4.6Q5 4.5 4.2 4q-1.9-1-3-.5t-1.1 1v1.3q.4 1.8 3 2.8l4.7 2q2.9 1.2 6.5.5M10.7 0Q9.6.7 8.8 2.4 8 3.9 7.3 4.2q-.8.5-1.3.4-1 .6-1.2 1.2" vector-effect="non-scaling-stroke"/><path fill="#980000" d="m10.8 3-1 .7Q8.9 2 6.9.4q1-.1 2.3.7 1.5 1 1.7 2"/><path fill="#980000" d="M6.9.3q1.9 1.8 3 3.5-2.3 1.5-4 1.4-.2-3.5 1-4.9"/><path fill="none" stroke="#980000" stroke-linecap="round" stroke-linejoin="round" stroke-width="__RESOLUTION__" d="M10.8 3q-.2-1-1.7-2Q7.9.2 7 .3 5.8 1.7 6 5.2" vector-effect="non-scaling-stroke"/><path fill="#980000" d="M3.3 4.7q0-1.4-1-3v-.1L3.7 3q.8 1.1.7 1.8z"/><path fill="#980000" d="M2.3 1.7q1 1.6 1 3-1.4-.2-2.3-.9.5-1.9 1.3-2.1"/><path fill="none" stroke="#980000" stroke-linecap="round" stroke-linejoin="round" stroke-width="__RESOLUTION__" d="M4.4 4.8q0-.7-.7-1.8L2.4 1.6h-.1Q1.5 2 1 3.9" vector-effect="non-scaling-stroke"/></g><g id="d"><path fill="#980000" d="M17 5q2.6-2.3 6.5-1.7.2 1.9-1 3.8t-2.3 2q-3.4-.3-3.5-2.6 0-.7.3-1.5"/><path fill="none" stroke="#980000" stroke-linecap="round" stroke-linejoin="round" stroke-width="__RESOLUTION__" d="M17 5q2.6-2.3 6.5-1.7v0q.2 1.9-1 3.8t-2.3 2q-3.4-.3-3.5-2.6" vector-effect="non-scaling-stroke"/><path fill="#980000" d="M11.2 2.1h.3q-1.9.4-3.5 3l-.8 1.6Q6 5.3 4.8 5.9L7 3.8Q9.4 2 11.2 2.1M4.8 15.4l-1.7-2-3.1.8q.5-2.1 1.7-4.1.8 1.6 3.7 2zm6.7-13.2-.3-.1z"/><path fill="#980000" d="M4.8 6q1.3-.6 2.4.7l-1.7 5.4q-3-.4-3.8-2l1.7-2.6.8-.9zm2.4.7L8 5.1q1.6-2.5 3.5-3 3.7.5 7.7 5.1l.9 1.1-.6.6q-2.7-4.7-6.4-5.6-.4.9.5 2l3.2 4q-7 1.4-9.6-2.6m14.2 3.9.7 1.7-.7 3-4.7 2-2.7-1.9-6.1 2.4-3.1-2.4.7-3.3 9.5.6 4-.7 2.4 3.4q-.3-2.7-.8-4z"/><path fill="#980000" d="m20 8.3 1.4 2.3-.8.8-1.1-2.5zm-3.2 1L19 12l-4 .7-9.5-.6L7 6.7q2.7 4 9.6 2.6"/><path fill="#980000" d="m16.8 9.3 2.7-.4 1.1 2.5-1.5.6z"/><path fill="#980000" d="m19.5 8.9-2.7.4-3.3-4q-.8-1.1-.4-2 3.7.9 6.4 5.6m-.4 3 1.5-.6q.5 1.3.8 4z"/><path fill="none" stroke="#980000" stroke-linecap="round" stroke-linejoin="round" stroke-width="__RESOLUTION__" d="m11.5 2.2-.3-.1Q9.4 2 7.1 3.8L4.8 6l-.6.6-.8.9-1.7 2.6q-1.1 2-1.7 4.1l3.1-.8 1.7 2 3 2.4 6.2-2.4 2.7 1.8 4.7-1.9.7-3-.7-1.7-1.3-2.3-.9-1q-4-4.7-7.7-5.2h-.3" vector-effect="non-scaling-stroke"/><path fill="#980000" d="M7.4 8.2H6q-2.8-.4-3.3-3.1t0-5.1q3.1 2.8 4.7 8.2"/><path fill="#980000" d="M7.4 8.2Q5.8 2.8 2.6 0 6.7.8 9 3.8q-.2 3.6-1.6 4.4"/><path fill="none" stroke="#980000" stroke-linecap="round" stroke-linejoin="round" stroke-width="__RESOLUTION__" d="M2.7 0q-.4 2.4.1 5.1t3.3 3.2L7.4 8M2.6 0Q6.7.8 9 3.8" vector-effect="non-scaling-stroke"/></g><g id="e"><path fill="#980000" d="M3.3.2q2 2.5 1.8 5.3l-.1.4-1 2.9q-2.5-.2-3-1.3-.8-2.7-1-4.3Q-.1 1.4 1.2 0zm.6 5.3 1 .4z"/><path fill="#980000" d="m5 5.9.1-.5Q5.3 2.7 3.3.2 5 .5 8 3.4q1.2 2.4-.6 4.4-.7.9-3.3 1H4zl1.5-.3zm-.8 2.9H4z"/><path fill="none" stroke="#980000" stroke-linecap="round" stroke-linejoin="round" stroke-width="__RESOLUTION__" d="M1.2 0Q-.2 1.5 0 3.3t1.2 4.3q.4 1 2.9 1.3h0q2.7-.1 3.4-1 1.8-2 .6-4.4M5 5.8l-1.1-.4m1 .4 1.6-.2" vector-effect="non-scaling-stroke"/></g><g id="f"><path fill="#980000" d="m13 .7.9.5q1 .5 1 1.2.2 1.5-.3 4.3L14 9.2l-2.5.4v-.1q-.5-.9-.4-1.5 0-3.7 2-7.3"/><path fill="#980000" d="M13 .7Q11 4.3 11 8q0 .6.4 1.5L7.2 8H7l-5.6 2.5q.1-1.8.8-3.5l-.9.7q.4-1.3 1.5-2.4l.1-.1L4.6 4l.2-.2 1.4-2.1Q7 0 8.7 0l2.5.1zM4.8 3.9q1.7 1.8 2.2 4-.5-2.2-2.2-4"/><path fill="#980000" d="M11.4 9.5q.4 2.3 1.7 4.5 1.8 3 1.8 6.1-2 1.3-4.6 1.4H8.5l-1.4-.1q-2.5-.4-4-1.4-1.1-1.6-.9-4-1-2.7-.8-5.4l5.7-2.5L7 8h.2l-.1.1.1-.1zM4.6 17q-1.4-.3-2.4-1 1 .7 2.5 1M7 8.2q.3 1.8-.1 3.8-.9 4.7-.4 7t1.9 2.8Q7 21.2 6.5 19q-.5-2.3.4-7 .4-2 0-3.8"/><path fill="#980000" d="m11.4 9.6 2.6-.4q.7 2.6 2.4 4.6 1 1.2 1.1 3 .1 1.4-2.6 3.4 0-3.1-1.8-6.1-1.3-2.3-1.7-4.5M3 20.1l-.9-.8q-1.9-1.8-1.6-5-1.3-3.7.8-6.5l1-.7q-.8 1.7-.9 3.5-.3 2.7.7 5.4h.1q-.2 2.4.8 4M.5 14.5 2.2 16z"/><path fill="none" stroke="#980000" stroke-linecap="round" stroke-linejoin="round" stroke-width="__RESOLUTION__" d="m14 9.2.6-2.5q.5-2.9.3-4.3 0-.7-1-1.3l-1-.5-1.8-.5L8.6 0Q7.1 0 6.2 1.8L4.8 3.9l-.2.2L3 5.3l-.1.1Q1.7 6.5 1.4 7.8q-2.2 2.8-.9 6.6-.2 3.1 1.7 5l.8.7q1.5 1 4 1.4l1.5.2 1.8-.1q2.6-.2 4.6-1.4 2.7-2 2.6-3.4-.1-1.8-1.1-3-1.7-2-2.4-4.6M2 16q1 .7 2.4 1m-2.5-1L.5 14.3" vector-effect="non-scaling-stroke"/><path fill="none" stroke="#980000" stroke-linecap="round" stroke-linejoin="round" stroke-width="__RESOLUTION__" d="M7 8.1Q6.5 5.8 4.8 4m3.8 17.9q-1.4-.6-1.9-2.8-.5-2.3.4-7 .4-2 0-3.8" vector-effect="non-scaling-stroke"/></g><g id="g"><path fill="#980000" d="M4.2 6.5h1q.2 1.8-1.8 3 1-1.5.8-3"/><path fill="#980000" d="M3.4 9.5q-1.5-.9-1-2.2 1-.7 1.8-.8.2 1.5-.8 3"/><path fill="none" stroke="#980000" stroke-linecap="round" stroke-linejoin="round" stroke-width="__RESOLUTION__" d="M5.2 6.5q.2 1.8-1.8 3-1.5-.9-1-2.2" vector-effect="non-scaling-stroke"/><path fill="#980000" d="M1.4 10q1-1.4.8-2.9h1q.2 1.8-1.8 3"/><path fill="#980000" d="M2.2 7.1q.1 1.5-.9 3Q-.2 9.2.4 8q1-.7 1.8-.9"/><path fill="none" stroke="#980000" stroke-linecap="round" stroke-linejoin="round" stroke-width="__RESOLUTION__" d="M1.4 10q2-1.2 1.8-2.9M.4 8q-.5 1.2 1 2" vector-effect="non-scaling-stroke"/><path fill="#980000" d="M3.3 7.8.4 7.5q-1-2 .7-6.6L2.3.3Q.8 6 3.3 7.8"/><path fill="#980000" d="M2.3.3 4 0l1.4 2.5q.8 2.8-.1 4.9-1.5.6-2 .3Q.8 6 2.3.3"/><path fill="none" stroke="#980000" stroke-linecap="round" stroke-linejoin="round" stroke-width="__RESOLUTION__" d="M3.3 7.8.4 7.5q-1-2 .7-6.6M3.9 0l1.5 2.5q.8 2.8-.1 4.9-1.5.6-2 .3" vector-effect="non-scaling-stroke"/></g><g id="h"><path fill="#980000" d="M5 0Q3.9.3 4 .9L2.6.8l-.9.7q0-1.2.9-1.4z"/><path fill="#980000" d="m1.8 1.5.8-.7H4l-.2 1.7q-.6.4-1.3 0-.8-.3-.9-1z"/><path fill="none" stroke="#980000" stroke-linecap="round" stroke-linejoin="round" stroke-width="__RESOLUTION__" d="M5 0H2.6q-.9.3-.8 1.5v0q0 .7.8 1 .7.4 1.2 0" vector-effect="non-scaling-stroke"/><path fill="#980000" d="M0 2.4Q0 1.2.9 1h2.3q-1 .2-.8.8H.8q-.4 0-.8.6"/><path fill="#980000" d="M2.4 1.8 2 3.5q-.5.4-1.3 0-.7-.4-.8-1v-.1q.4-.6.8-.6z"/><path fill="none" stroke="#980000" stroke-linecap="round" stroke-linejoin="round" stroke-width="__RESOLUTION__" d="M0 2.4Q0 1.2.9 1h2.3M2.1 3.5q-.5.4-1.3 0-.7-.4-.8-1v-.1" vector-effect="non-scaling-stroke"/><path fill="#980000" d="M9.2 1.4q.5.2.6 1.9L7.9 4.5l-3.4-.1q-2.4-.6-2.4-1.1-.3-1.1.4-2v-.1Q5 1.3 7 2.6q.7-1 2.3-1.2"/><path fill="#980000" d="M2.6 1.2Q3 .6 5 0q1-.3 4.2 1.3-1.6.2-2.3 1.2-2-1.3-4.3-1.4"/><path fill="none" stroke="#980000" stroke-linecap="round" stroke-linejoin="round" stroke-width="__RESOLUTION__" d="M9.2 1.4q.5.2.6 1.9L7.9 4.5l-3.4-.1q-2.4-.6-2.4-1.1-.3-1.1.4-2v-.1Q3 .7 5 0q1-.3 4.2 1.3" vector-effect="non-scaling-stroke"/></g><g id="j"><path fill="#980000" d="M1.5 0q.7-.2 1.3.6.5.8.3 2.4.5 1 1.4 1.8L2.5 6q-2.3-4-1-6"/><path fill="#980000" d="M2.5 6H1.2q.3-.7-.8-2.3-.5-.9-.3-2Q.3.4 1.5.1.2 2 2.5 6"/><path fill="none" stroke="#980000" stroke-linecap="round" stroke-linejoin="round" stroke-width="__RESOLUTION__" d="M1.5 0q.7-.2 1.3.6.5.8.3 2.4.5 1 1.4 1.8M1.2 6.1q.3-.7-.8-2.4-.5-.9-.3-2Q.3.4 1.5.1" vector-effect="non-scaling-stroke"/></g><g id="k"><path fill="#980000" d="M8.2 7q1.2 1.7-.3 3.4.2-1.7-1-3.2z"/><path fill="#980000" d="M7 7.2q1.1 1.5.9 3.2-2.2-.7-2.4-2.1.7-.9 1.5-1.1"/><path fill="none" stroke="#980000" stroke-linecap="round" stroke-linejoin="round" stroke-width="__RESOLUTION__" d="M7.9 10.4Q9.4 8.7 8 7m0 3.4q-2.2-.7-2.4-2.1" vector-effect="non-scaling-stroke"/><path fill="#980000" d="m5.1 8.1 1.2-.2q1.3 1.7-.3 3.4.3-1.7-.9-3.2"/><path fill="#980000" d="M6 11.4q-2.2-.8-2.4-2.2.7-.8 1.5-1.1 1.2 1.6.9 3.3"/><path fill="none" stroke="#980000" stroke-linecap="round" stroke-linejoin="round" stroke-width="__RESOLUTION__" d="M6.3 7.9q1.3 1.8-.3 3.5-2.2-.7-2.4-2.1" vector-effect="non-scaling-stroke"/><path fill="#980000" d="M2.7 0q.4.6 3 2Q8 4.3 8.5 7.3l-2 1.2Q2.8 7 .9.9z"/><path fill="#980000" d="M6.6 8.5q-2 1-3.4.4Q.9 7 0 2.2L.9.9Q2.8 7 6.6 8.5"/><path fill="none" stroke="#980000" stroke-linecap="round" stroke-linejoin="round" stroke-width="__RESOLUTION__" d="M2.7 0q.4.6 3 2Q8 4.3 8.5 7.3l-2 1.2q-2 1-3.4.4Q.9 7 0 2.2" vector-effect="non-scaling-stroke"/></g><g id="l"><path fill="#b81a03" d="M34.7 28.4q-4.3-4-6.6-3.5-1.8.3-2.9 3.7.1-4.1-2.4-6.1 4.9-.1 4.8-3.4t-5.3-7q2.9 1 6.3-2-1.4 3.8-.9 5.9.5 1.9 2.8 3.3l3.4 1.2q-2.4.4-2.4 2-.1 2 3.2 5.9"/><path fill="none" stroke="#d01d04" stroke-linecap="round" stroke-linejoin="round" stroke-width="__RESOLUTION__" d="M33.9 20.5q-2.4.4-2.4 2-.1 2 3.2 5.9" vector-effect="non-scaling-stroke"/><path fill="#f43404" d="M2 .2q1.4.7 2 2.2l-.9-.2L0 .9Q.6-.4 2 .2m14.3 2.4 4 1.7q-.7.4-1.4 1.9-1 2.2-.5 4.5.7 3.7 3.8 8.5l4.1 5.2q-5.8-2.8-16.6 1.3 12.2-8.4-4.3-22.4Q16.2 9 16.2 2.6"/><path fill="none" stroke="#d01d04" stroke-linecap="round" stroke-linejoin="round" stroke-width="__RESOLUTION__" d="M2 .2q1.4.7 2 2.2l-.9-.2L0 .9Q.6-.4 2 .2m7.7 25.5Q22 17.3 5.5 3.3" vector-effect="non-scaling-stroke"/><path fill="none" stroke="#fc563f" stroke-linecap="round" stroke-linejoin="round" stroke-width="__RESOLUTION__" d="M5.5 3.3Q16.3 9 16.3 2.6" vector-effect="non-scaling-stroke"/><path fill="#f43404" d="M6.7 28q-1.1-.7-.3-1.3.8-.5 2.1-.5l-.2.4z"/><path fill="none" stroke="#d01d04" stroke-linecap="round" stroke-linejoin="round" stroke-width="__RESOLUTION__" d="M6.7 28q-1.1-.7-.3-1.3.8-.5 2.1-.5l-.2.4z" vector-effect="non-scaling-stroke"/></g><g id="n"><path fill="#fff" d="M3.8.3 5.6 0l2.8 1.5-4-.3zm4.6 1.2.4 3.1-1.2 1H5.4L4.4 7l.2-4.1q3-1.4 3.8-1.5m-8.1.7L0 1.6l1.3-.5.4.6z"/><path fill="#fff" d="m3.8.3.6.9-2.7.5-.5-.6zM4.4 7l-.5-2-1.7-.9 2.3-1.2zm0-5.8 4 .3q-.9 0-3.9 1.4zm-3 2.5-.7-.4-.5-1.1 1.4-.5z"/><path fill="#fff" d="m8.8 4.6.3 1.9-2.4 2.1L4.4 7l1-1.4h2.3zm-6.6-.5-.7-.4.2-2 2.7-.5.2 1.6z"/><path fill="none" stroke="#fff" stroke-linecap="round" stroke-linejoin="round" stroke-width="__RESOLUTION__" d="M8.4 1.5 5.6 0 3.8.3l-2.5.8-1.3.5m8.4-.1.4 3.1.3 1.9-2.4 2.1m0 0L4.4 7m0 0-.5-2-1.7-.9-.7-.4-.7-.4-.5-1.1-.3-.6" vector-effect="non-scaling-stroke"/><path fill="none" stroke="#fff" stroke-linecap="round" stroke-linejoin="round" stroke-width="__RESOLUTION__" d="m8.8 4.6-1.2 1H5.5L4.4 7" vector-effect="non-scaling-stroke"/></g><g id="o"><path fill="#fff" d="M0 4.6q.1-.7 1.3-1.1 1-.5 2.9.5.8.5 1.8.6.5 0 1.4-.4.6-.4 1.4-1.8Q9.6.7 10.6 0l2.5 2.8Q11.8 5 9 6.4l-4.5.1Q1.4 3.8.1 4.5m4.7 1.3Q5 5.2 6 4.6q-1 .6-1.2 1.2"/><path fill="#fff" d="M0 4.6q1.4-.8 4.5 1.9L9 6.4q2.8-1.3 4.1-3.6 3 5.6 1.2 8.3-3.6.7-6.6-.4-3-1.5-4.7-2.1Q.5 7.6.1 5.8z"/><path fill="none" stroke="#fff" stroke-linecap="round" stroke-linejoin="round" stroke-width="__RESOLUTION__" d="M6 4.6Q5 4.5 4.2 4q-1.9-1-3-.5t-1.1 1v1.3q.4 1.8 3 2.8l4.7 2q2.9 1.2 6.5.5M10.7 0Q9.6.7 8.8 2.4 8 3.9 7.3 4.2q-.8.5-1.3.4-1 .6-1.2 1.2" vector-effect="non-scaling-stroke"/><path fill="#fff" d="m10.8 3-1 .7Q8.9 2 6.9.4q1-.1 2.3.7 1.5 1 1.7 2"/><path fill="#fff" d="M6.9.3q1.9 1.8 3 3.5-2.3 1.5-4 1.4-.2-3.5 1-4.9"/><path fill="none" stroke="#fff" stroke-linecap="round" stroke-linejoin="round" stroke-width="__RESOLUTION__" d="M10.8 3q-.2-1-1.7-2Q7.9.2 7 .3 5.8 1.7 6 5.2" vector-effect="non-scaling-stroke"/><path fill="#fff" d="M3.3 4.7q0-1.4-1-3v-.1L3.7 3q.8 1.1.7 1.8z"/><path fill="#fff" d="M2.3 1.7q1 1.6 1 3-1.4-.2-2.3-.9.5-1.9 1.3-2.1"/><path fill="none" stroke="#fff" stroke-linecap="round" stroke-linejoin="round" stroke-width="__RESOLUTION__" d="M4.4 4.8q0-.7-.7-1.8L2.4 1.6h-.1Q1.5 2 1 3.9" vector-effect="non-scaling-stroke"/></g><g id="p"><path fill="#fff" d="M17 5q2.6-2.3 6.5-1.7.2 1.9-1 3.8t-2.3 2q-3.4-.3-3.5-2.6 0-.7.3-1.5"/><path fill="none" stroke="#fff" stroke-linecap="round" stroke-linejoin="round" stroke-width="__RESOLUTION__" d="M17 5q2.6-2.3 6.5-1.7v0q.2 1.9-1 3.8t-2.3 2q-3.4-.3-3.5-2.6" vector-effect="non-scaling-stroke"/><path fill="#fff" d="M11.2 2.1h.3q-1.9.4-3.5 3l-.8 1.6Q6 5.3 4.8 5.9L7 3.8Q9.4 2 11.2 2.1M4.8 15.4l-1.7-2-3.1.8q.5-2.1 1.7-4.1.8 1.6 3.7 2zm6.7-13.2-.3-.1z"/><path fill="#fff" d="M4.8 6q1.3-.6 2.4.7l-1.7 5.4q-3-.4-3.8-2l1.7-2.6.8-.9zm2.4.7L8 5.1q1.6-2.5 3.5-3 3.7.5 7.7 5.1l.9 1.1-.6.6q-2.7-4.7-6.4-5.6-.4.9.5 2l3.2 4q-7 1.4-9.6-2.6m14.2 3.9.7 1.7-.7 3-4.7 2-2.7-1.9-6.1 2.4-3.1-2.4.7-3.3 9.5.6 4-.7 2.4 3.4q-.3-2.7-.8-4z"/><path fill="#fff" d="m20 8.3 1.4 2.3-.8.8-1.1-2.5zm-3.2 1L19 12l-4 .7-9.5-.6L7 6.7q2.7 4 9.6 2.6"/><path fill="#fff" d="m16.8 9.3 2.7-.4 1.1 2.5-1.5.6z"/><path fill="#fff" d="m19.5 8.9-2.7.4-3.3-4q-.8-1.1-.4-2 3.7.9 6.4 5.6m-.4 3 1.5-.6q.5 1.3.8 4z"/><path fill="none" stroke="#fff" stroke-linecap="round" stroke-linejoin="round" stroke-width="__RESOLUTION__" d="m11.5 2.2-.3-.1Q9.4 2 7.1 3.8L4.8 6l-.6.6-.8.9-1.7 2.6q-1.1 2-1.7 4.1l3.1-.8 1.7 2 3 2.4 6.2-2.4 2.7 1.8 4.7-1.9.7-3-.7-1.7-1.3-2.3-.9-1q-4-4.7-7.7-5.2h-.3" vector-effect="non-scaling-stroke"/><path fill="#fff" d="M7.4 8.2H6q-2.8-.4-3.3-3.1t0-5.1q3.1 2.8 4.7 8.2"/><path fill="#fff" d="M7.4 8.2Q5.8 2.8 2.6 0 6.7.8 9 3.8q-.2 3.6-1.6 4.4"/><path fill="none" stroke="#fff" stroke-linecap="round" stroke-linejoin="round" stroke-width="__RESOLUTION__" d="M2.7 0q-.4 2.4.1 5.1t3.3 3.2L7.4 8M2.6 0Q6.7.8 9 3.8" vector-effect="non-scaling-stroke"/></g><g id="q"><path fill="#fff" d="M3.3.2q2 2.5 1.8 5.3l-.1.4-1 2.9q-2.5-.2-3-1.3-.8-2.7-1-4.3Q-.1 1.4 1.2 0zm.6 5.3 1 .4z"/><path fill="#fff" d="m5 5.9.1-.5Q5.3 2.7 3.3.2 5 .5 8 3.4q1.2 2.4-.6 4.4-.7.9-3.3 1H4zl1.5-.3zm-.8 2.9H4z"/><path fill="none" stroke="#fff" stroke-linecap="round" stroke-linejoin="round" stroke-width="__RESOLUTION__" d="M1.2 0Q-.2 1.5 0 3.3t1.2 4.3q.4 1 2.9 1.3h0q2.7-.1 3.4-1 1.8-2 .6-4.4M5 5.8l-1.1-.4m1 .4 1.6-.2" vector-effect="non-scaling-stroke"/></g><g id="r"><path fill="#fff" d="m13 .7.9.5q1 .5 1 1.2.2 1.5-.3 4.3L14 9.2l-2.5.4v-.1q-.5-.9-.4-1.5 0-3.7 2-7.3"/><path fill="#fff" d="M13 .7Q11 4.3 11 8q0 .6.4 1.5L7.2 8H7l-5.6 2.5q.1-1.8.8-3.5l-.9.7q.4-1.3 1.5-2.4l.1-.1L4.6 4l.2-.2 1.4-2.1Q7 0 8.7 0l2.5.1zM4.8 3.9q1.7 1.8 2.2 4-.5-2.2-2.2-4"/><path fill="#fff" d="M11.4 9.5q.4 2.3 1.7 4.5 1.8 3 1.8 6.1-2 1.3-4.6 1.4H8.5l-1.4-.1q-2.5-.4-4-1.4-1.1-1.6-.9-4-1-2.7-.8-5.4l5.7-2.5L7 8h.2l-.1.1.1-.1zM4.6 17q-1.4-.3-2.4-1 1 .7 2.5 1M7 8.2q.3 1.8-.1 3.8-.9 4.7-.4 7t1.9 2.8Q7 21.2 6.5 19q-.5-2.3.4-7 .4-2 0-3.8"/><path fill="#fff" d="m11.4 9.6 2.6-.4q.7 2.6 2.4 4.6 1 1.2 1.1 3 .1 1.4-2.6 3.4 0-3.1-1.8-6.1-1.3-2.3-1.7-4.5M3 20.1l-.9-.8q-1.9-1.8-1.6-5-1.3-3.7.8-6.5l1-.7q-.8 1.7-.9 3.5-.3 2.7.7 5.4h.1q-.2 2.4.8 4M.5 14.5 2.2 16z"/><path fill="none" stroke="#fff" stroke-linecap="round" stroke-linejoin="round" stroke-width="__RESOLUTION__" d="m14 9.2.6-2.5q.5-2.9.3-4.3 0-.7-1-1.3l-1-.5-1.8-.5L8.6 0Q7.1 0 6.2 1.8L4.8 3.9l-.2.2L3 5.3l-.1.1Q1.7 6.5 1.4 7.8q-2.2 2.8-.9 6.6-.2 3.1 1.7 5l.8.7q1.5 1 4 1.4l1.5.2 1.8-.1q2.6-.2 4.6-1.4 2.7-2 2.6-3.4-.1-1.8-1.1-3-1.7-2-2.4-4.6M2 16q1 .7 2.4 1m-2.5-1L.5 14.3" vector-effect="non-scaling-stroke"/><path fill="none" stroke="#fff" stroke-linecap="round" stroke-linejoin="round" stroke-width="__RESOLUTION__" d="M7 8.1Q6.5 5.8 4.8 4m3.8 17.9q-1.4-.6-1.9-2.8-.5-2.3.4-7 .4-2 0-3.8" vector-effect="non-scaling-stroke"/></g><g id="s"><path fill="#fff" d="M4.2 6.5h1q.2 1.8-1.8 3 1-1.5.8-3"/><path fill="#fff" d="M3.4 9.5q-1.5-.9-1-2.2 1-.7 1.8-.8.2 1.5-.8 3"/><path fill="none" stroke="#fff" stroke-linecap="round" stroke-linejoin="round" stroke-width="__RESOLUTION__" d="M5.2 6.5q.2 1.8-1.8 3-1.5-.9-1-2.2" vector-effect="non-scaling-stroke"/><path fill="#fff" d="M1.4 10q1-1.4.8-2.9h1q.2 1.8-1.8 3"/><path fill="#fff" d="M2.2 7.1q.1 1.5-.9 3Q-.2 9.2.4 8q1-.7 1.8-.9"/><path fill="none" stroke="#fff" stroke-linecap="round" stroke-linejoin="round" stroke-width="__RESOLUTION__" d="M1.4 10q2-1.2 1.8-2.9M.4 8q-.5 1.2 1 2" vector-effect="non-scaling-stroke"/><path fill="#fff" d="M3.3 7.8.4 7.5q-1-2 .7-6.6L2.3.3Q.8 6 3.3 7.8"/><path fill="#fff" d="M2.3.3 4 0l1.4 2.5q.8 2.8-.1 4.9-1.5.6-2 .3Q.8 6 2.3.3"/><path fill="none" stroke="#fff" stroke-linecap="round" stroke-linejoin="round" stroke-width="__RESOLUTION__" d="M3.3 7.8.4 7.5q-1-2 .7-6.6M3.9 0l1.5 2.5q.8 2.8-.1 4.9-1.5.6-2 .3" vector-effect="non-scaling-stroke"/></g><g id="t"><path fill="#fff" d="M5 0Q3.9.3 4 .9L2.6.8l-.9.7q0-1.2.9-1.4z"/><path fill="#fff" d="m1.8 1.5.8-.7H4l-.2 1.7q-.6.4-1.3 0-.8-.3-.9-1z"/><path fill="none" stroke="#fff" stroke-linecap="round" stroke-linejoin="round" stroke-width="__RESOLUTION__" d="M5 0H2.6q-.9.3-.8 1.5v0q0 .7.8 1 .7.4 1.2 0" vector-effect="non-scaling-stroke"/><path fill="#fff" d="M0 2.4Q0 1.2.9 1h2.3q-1 .2-.8.8H.8q-.4 0-.8.6"/><path fill="#fff" d="M2.4 1.8 2 3.5q-.5.4-1.3 0-.7-.4-.8-1v-.1q.4-.6.8-.6z"/><path fill="none" stroke="#fff" stroke-linecap="round" stroke-linejoin="round" stroke-width="__RESOLUTION__" d="M0 2.4Q0 1.2.9 1h2.3M2.1 3.5q-.5.4-1.3 0-.7-.4-.8-1v-.1" vector-effect="non-scaling-stroke"/><path fill="#fff" d="M9.2 1.4q.5.2.6 1.9L7.9 4.5l-3.4-.1q-2.4-.6-2.4-1.1-.3-1.1.4-2v-.1Q5 1.3 7 2.6q.7-1 2.3-1.2"/><path fill="#fff" d="M2.6 1.2Q3 .6 5 0q1-.3 4.2 1.3-1.6.2-2.3 1.2-2-1.3-4.3-1.4"/><path fill="none" stroke="#fff" stroke-linecap="round" stroke-linejoin="round" stroke-width="__RESOLUTION__" d="M9.2 1.4q.5.2.6 1.9L7.9 4.5l-3.4-.1q-2.4-.6-2.4-1.1-.3-1.1.4-2v-.1Q3 .7 5 0q1-.3 4.2 1.3" vector-effect="non-scaling-stroke"/></g><g id="v"><path fill="#fff" d="M1.5 0q.7-.2 1.3.6.5.8.3 2.4.5 1 1.4 1.8L2.5 6q-2.3-4-1-6"/><path fill="#fff" d="M2.5 6H1.2q.3-.7-.8-2.3-.5-.9-.3-2Q.3.4 1.5.1.2 2 2.5 6"/><path fill="none" stroke="#fff" stroke-linecap="round" stroke-linejoin="round" stroke-width="__RESOLUTION__" d="M1.5 0q.7-.2 1.3.6.5.8.3 2.4.5 1 1.4 1.8M1.2 6.1q.3-.7-.8-2.4-.5-.9-.3-2Q.3.4 1.5.1" vector-effect="non-scaling-stroke"/></g><g id="w"><path fill="#fff" d="M8.2 7q1.2 1.7-.3 3.4.2-1.7-1-3.2z"/><path fill="#fff" d="M7 7.2q1.1 1.5.9 3.2-2.2-.7-2.4-2.1.7-.9 1.5-1.1"/><path fill="none" stroke="#fff" stroke-linecap="round" stroke-linejoin="round" stroke-width="__RESOLUTION__" d="M7.9 10.4Q9.4 8.7 8 7m0 3.4q-2.2-.7-2.4-2.1" vector-effect="non-scaling-stroke"/><path fill="#fff" d="m5.1 8.1 1.2-.2q1.3 1.7-.3 3.4.3-1.7-.9-3.2"/><path fill="#fff" d="M6 11.4q-2.2-.8-2.4-2.2.7-.8 1.5-1.1 1.2 1.6.9 3.3"/><path fill="none" stroke="#fff" stroke-linecap="round" stroke-linejoin="round" stroke-width="__RESOLUTION__" d="M6.3 7.9q1.3 1.8-.3 3.5-2.2-.7-2.4-2.1" vector-effect="non-scaling-stroke"/><path fill="#fff" d="M2.7 0q.4.6 3 2Q8 4.3 8.5 7.3l-2 1.2Q2.8 7 .9.9z"/><path fill="#fff" d="M6.6 8.5q-2 1-3.4.4Q.9 7 0 2.2L.9.9Q2.8 7 6.6 8.5"/><path fill="none" stroke="#fff" stroke-linecap="round" stroke-linejoin="round" stroke-width="__RESOLUTION__" d="M2.7 0q.4.6 3 2Q8 4.3 8.5 7.3l-2 1.2q-2 1-3.4.4Q.9 7 0 2.2" vector-effect="non-scaling-stroke"/></g><g id="x"><path fill="#c6e8f4" d="M3.8.3 5.6 0l2.8 1.5-4-.3zm4.6 1.2.4 3.1-1.2 1H5.4L4.4 7l.2-4.1q3-1.4 3.8-1.5m-8.1.7L0 1.6l1.3-.5.4.6z"/><path fill="#bed8eb" d="m3.8.3.6.9-2.7.5-.5-.6zM4.4 7l-.5-2-1.7-.9 2.3-1.2z"/><path fill="#fff" d="m4.4 1.2 4 .3q-.9 0-3.9 1.3zm-3 2.5-.7-.4-.5-1.1 1.4-.5z"/><path fill="#5183b3" d="m8.8 4.6.3 1.9-2.4 2.1L4.4 7l1-1.4h2.3z"/><path fill="#d5deec" d="m2.2 4.1-.7-.4.2-2 2.7-.5.1 1.6z"/><path fill="none" stroke="#53472d" stroke-linecap="round" stroke-linejoin="round" stroke-width="__RESOLUTION__" d="M8.4 1.5 5.6 0 3.8.3l-2.5.8-1.3.5m8.4-.1.4 3.1.3 1.9-2.4 2.1" vector-effect="non-scaling-stroke"/><path fill="none" stroke="#917024" stroke-linecap="round" stroke-linejoin="round" stroke-width="__RESOLUTION__" d="M6.7 8.6 4.4 7m0 0-.5-2-1.7-.9-.7-.4-.7-.4-.5-1.1-.3-.6" vector-effect="non-scaling-stroke"/><path fill="none" stroke="#755835" stroke-linecap="round" stroke-linejoin="round" stroke-width="__RESOLUTION__" d="m8.8 4.6-1.2 1H5.5L4.4 7" vector-effect="non-scaling-stroke"/></g><g id="y"><path fill="#f8ebcf" d="M0 4.6q.1-.7 1.3-1.1 1-.5 2.9.5.8.5 1.8.6.5 0 1.4-.4.6-.4 1.4-1.8Q9.6.7 10.6 0l2.5 2.8Q11.8 5 9 6.4l-4.5.1Q1.4 3.8.1 4.5m4.7 1.3Q5 5.2 6 4.6q-1 .6-1.2 1.2"/><path fill="#c8ac80" d="M0 4.6q1.4-.8 4.5 1.9L9 6.4q2.8-1.3 4.1-3.6 3 5.6 1.2 8.3-3.6.7-6.6-.4-3-1.5-4.7-2.1Q.5 7.6.1 5.8z"/><path fill="none" stroke="#765834" stroke-linecap="round" stroke-linejoin="round" stroke-width="__RESOLUTION__" d="M6 4.6Q5 4.5 4.2 4q-1.9-1-3-.5t-1.1 1v1.3q.4 1.8 3 2.8l4.7 2q2.9 1.2 6.5.5M10.7 0Q9.6.7 8.8 2.4 8 3.9 7.3 4.2q-.8.5-1.3.4-1 .6-1.2 1.2" vector-effect="non-scaling-stroke"/><path fill="#f8ebcf" d="m10.8 3-1 .7Q8.9 2 6.9.4q1-.1 2.3.7 1.5 1 1.7 2"/><path fill="#c8ac80" d="M6.9.3q1.9 1.8 3 3.5-2.3 1.5-4 1.4-.2-3.5 1-4.9"/><path fill="none" stroke="#926a43" stroke-linecap="round" stroke-linejoin="round" stroke-width="__RESOLUTION__" d="M10.8 3q-.2-1-1.7-2Q7.9.2 7 .3 5.8 1.7 6 5.2" vector-effect="non-scaling-stroke"/><path fill="#f8ebcf" d="M3.3 4.7q0-1.4-1-3v-.1L3.7 3q.8 1.1.7 1.8z"/><path fill="#c8ac80" d="M2.3 1.7q1 1.6 1 3-1.4-.2-2.3-.9.5-1.9 1.3-2.1"/><path fill="none" stroke="#926a43" stroke-linecap="round" stroke-linejoin="round" stroke-width="__RESOLUTION__" d="M4.4 4.8q0-.7-.7-1.8L2.4 1.6h-.1Q1.5 2 1 3.9" vector-effect="non-scaling-stroke"/></g><g id="z"><path fill="#839eb8" d="M17 5q2.6-2.3 6.5-1.7.2 1.9-1 3.8t-2.3 2q-3.4-.3-3.5-2.6 0-.7.3-1.5"/><path fill="none" stroke="#557891" stroke-linecap="round" stroke-linejoin="round" stroke-width="__RESOLUTION__" d="M17 5q2.6-2.3 6.5-1.7v0q.2 1.9-1 3.8t-2.3 2q-3.4-.3-3.5-2.6" vector-effect="non-scaling-stroke"/><path fill="#839eb8" d="M11.2 2.1h.3q-1.9.4-3.5 3l-.8 1.6Q6 5.3 4.8 5.9L7 3.8Q9.4 2 11.2 2.1M4.8 15.4l-1.7-2-3.1.8q.5-2.1 1.7-4.1.8 1.6 3.7 2z"/><path fill="#f8ebcf" d="m11.5 2.2-.3-.1z"/><path fill="#5183b3" d="M4.8 6q1.3-.6 2.4.7l-1.7 5.4q-3-.4-3.8-2l1.7-2.6.8-.9z"/><path fill="#c6e8f4" d="M7.2 6.7 8 5.1q1.6-2.5 3.5-3 3.7.5 7.7 5.1l.9 1.1-.6.6q-2.7-4.7-6.4-5.6-.4.9.5 2l3.2 4q-7 1.4-9.6-2.6m14.2 3.9.7 1.7-.7 3-4.7 2-2.7-1.9-6.1 2.4-3.1-2.4.7-3.3 9.5.6 4-.7 2.4 3.4q-.3-2.7-.8-4z"/><path fill="#bed8eb" d="m20 8.3 1.4 2.3-.8.8-1.1-2.5zm-3.2 1L19 12l-4 .7-9.5-.6L7 6.7q2.7 4 9.6 2.6"/><path fill="#d5deec" d="m16.8 9.3 2.7-.4 1.1 2.5-1.5.6z"/><path fill="#fff" d="m19.5 8.9-2.7.4-3.3-4q-.8-1.1-.4-2 3.7.9 6.4 5.6m-.4 3 1.5-.6q.5 1.3.8 4z"/><path fill="none" stroke="#385672" stroke-linecap="round" stroke-linejoin="round" stroke-width="__RESOLUTION__" d="m11.5 2.2-.3-.1Q9.4 2 7.1 3.8L4.8 6l-.6.6-.8.9-1.7 2.6q-1.1 2-1.7 4.1l3.1-.8 1.7 2 3 2.4 6.2-2.4 2.7 1.8 4.7-1.9.7-3-.7-1.7-1.3-2.3-.9-1q-4-4.7-7.7-5.2h-.3" vector-effect="non-scaling-stroke"/><path fill="#839eb8" d="M7.4 8.2H6q-2.8-.4-3.3-3.1t0-5.1q3.1 2.8 4.7 8.2"/><path fill="#c6e8f4" d="M7.4 8.2Q5.8 2.8 2.6 0 6.7.8 9 3.8q-.2 3.6-1.6 4.4"/><path fill="none" stroke="#557891" stroke-linecap="round" stroke-linejoin="round" stroke-width="__RESOLUTION__" d="M2.7 0q-.4 2.4.1 5.1t3.3 3.2L7.4 8M2.6 0Q6.7.8 9 3.8" vector-effect="non-scaling-stroke"/></g><g id="A"><path fill="#c8ac80" d="M3.3.2q2 2.5 1.8 5.3l-.1.4-1 2.9q-2.5-.2-3-1.3-.8-2.7-1-4.3Q-.1 1.4 1.2 0zm.6 5.3 1 .4z"/><path fill="#f8ebcf" d="m5 5.9.1-.5Q5.3 2.7 3.3.2 5 .5 8 3.4q1.2 2.4-.6 4.4-.7.9-3.3 1H4zl1.5-.3z"/><path fill="#82a66a" d="M4.2 8.8H4z"/><path fill="none" stroke="#765834" stroke-linecap="round" stroke-linejoin="round" stroke-width="__RESOLUTION__" d="M1.2 0Q-.2 1.5 0 3.3t1.2 4.3q.4 1 2.9 1.3h0q2.7-.1 3.4-1 1.8-2 .6-4.4M5 5.8l-1.1-.4m1 .4 1.6-.2" vector-effect="non-scaling-stroke"/></g><g id="B"><path fill="#b78c59" d="m13 .7.9.5q1 .5 1 1.2.2 1.5-.3 4.3L14 9.2l-2.5.4v-.1q-.5-.9-.4-1.5 0-3.7 2-7.3"/><path fill="#c19d73" d="M13 .7Q11 4.3 11 8q0 .6.4 1.5L7.2 8H7l-5.6 2.5q.1-1.8.8-3.5l-.9.7q.4-1.3 1.5-2.4l.1-.1L4.6 4l.2-.2 1.4-2.1Q7 0 8.7 0l2.5.1zM4.8 3.9q1.7 1.8 2.2 4-.5-2.2-2.2-4"/><path fill="#c8ac80" d="M11.4 9.5q.4 2.3 1.7 4.5 1.8 3 1.8 6.1-2 1.3-4.6 1.4H8.5l-1.4-.1q-2.5-.4-4-1.4-1.1-1.6-.9-4-1-2.7-.8-5.4l5.7-2.5L7 8h.2l-.1.1.1-.1zM4.6 17q-1.4-.3-2.4-1 1 .7 2.5 1M7 8.2q.3 1.8-.1 3.8-.9 4.7-.4 7t1.9 2.8Q7 21.2 6.5 19q-.5-2.3.4-7 .4-2 0-3.8"/><path fill="#f8ebcf" d="m11.4 9.6 2.6-.4q.7 2.6 2.4 4.6 1 1.2 1.1 3 .1 1.4-2.6 3.4 0-3.1-1.8-6.1-1.3-2.3-1.7-4.5M3 20.1l-.9-.8q-1.9-1.8-1.6-5-1.3-3.7.8-6.5l1-.7q-.8 1.7-.9 3.5-.3 2.7.7 5.4h.1q-.2 2.4.8 4M.5 14.5 2.2 16z"/><path fill="none" stroke="#765834" stroke-linecap="round" stroke-linejoin="round" stroke-width="__RESOLUTION__" d="m14 9.2.6-2.5q.5-2.9.3-4.3 0-.7-1-1.3l-1-.5-1.8-.5L8.6 0Q7.1 0 6.2 1.8L4.8 3.9l-.2.2L3 5.3l-.1.1Q1.7 6.5 1.4 7.8q-2.2 2.8-.9 6.6-.2 3.1 1.7 5l.8.7q1.5 1 4 1.4l1.5.2 1.8-.1q2.6-.2 4.6-1.4 2.7-2 2.6-3.4-.1-1.8-1.1-3-1.7-2-2.4-4.6M2 16q1 .7 2.4 1m-2.5-1L.5 14.3" vector-effect="non-scaling-stroke"/><path fill="none" stroke="#ad814b" stroke-linecap="round" stroke-linejoin="round" stroke-width="__RESOLUTION__" d="M7 8.1Q6.5 5.8 4.8 4m3.8 17.9q-1.4-.6-1.9-2.8-.5-2.3.4-7 .4-2 0-3.8" vector-effect="non-scaling-stroke"/></g><g id="C"><path fill="#e9d5b4" d="M4.2 6.5h1q.2 1.8-1.8 3 1-1.5.8-3"/><path fill="#debc94" d="M3.4 9.5q-1.5-.9-1-2.2 1-.7 1.8-.8.2 1.5-.8 3"/><path fill="none" stroke="#836d3f" stroke-linecap="round" stroke-linejoin="round" stroke-width="__RESOLUTION__" d="M5.2 6.5q.2 1.8-1.8 3-1.5-.9-1-2.2" vector-effect="non-scaling-stroke"/><path fill="#e9d5b4" d="M1.4 10q1-1.4.8-2.9h1q.2 1.8-1.8 3"/><path fill="#debc94" d="M2.2 7.1q.1 1.5-.9 3Q-.2 9.2.4 8q1-.7 1.8-.9"/><path fill="none" stroke="#836d3f" stroke-linecap="round" stroke-linejoin="round" stroke-width="__RESOLUTION__" d="M1.4 10q2-1.2 1.8-2.9M.4 8q-.5 1.2 1 2" vector-effect="non-scaling-stroke"/><path fill="#c8ac80" d="M3.3 7.8.4 7.5q-1-2 .7-6.6L2.3.3Q.8 6 3.3 7.8"/><path fill="#f8ebcf" d="M2.3.3 4 0l1.4 2.5q.8 2.8-.1 4.9-1.5.6-2 .3Q.8 6 2.3.3"/><path fill="none" stroke="#765834" stroke-linecap="round" stroke-linejoin="round" stroke-width="__RESOLUTION__" d="M3.3 7.8.4 7.5q-1-2 .7-6.6M3.9 0l1.5 2.5q.8 2.8-.1 4.9-1.5.6-2 .3" vector-effect="non-scaling-stroke"/></g><g id="D"><path fill="#e9d5b4" d="M5 0Q3.9.3 4 .9L2.6.8l-.9.7q0-1.2.9-1.4z"/><path fill="#debc94" d="m1.8 1.5.8-.7H4l-.2 1.7q-.6.4-1.3 0-.8-.3-.9-1z"/><path fill="none" stroke="#836d3f" stroke-linecap="round" stroke-linejoin="round" stroke-width="__RESOLUTION__" d="M5 0H2.6q-.9.3-.8 1.5v0q0 .7.8 1 .7.4 1.2 0" vector-effect="non-scaling-stroke"/><path fill="#e9d5b4" d="M0 2.4Q0 1.2.9 1h2.3q-1 .2-.8.8H.8q-.4 0-.8.6"/><path fill="#debc94" d="M2.4 1.8 2 3.5q-.5.4-1.3 0-.7-.4-.8-1v-.1q.4-.6.8-.6z"/><path fill="none" stroke="#836d3f" stroke-linecap="round" stroke-linejoin="round" stroke-width="__RESOLUTION__" d="M0 2.4Q0 1.2.9 1h2.3M2.1 3.5q-.5.4-1.3 0-.7-.4-.8-1v-.1" vector-effect="non-scaling-stroke"/><path fill="#c8ac80" d="M9.2 1.4q.5.2.6 1.9L7.9 4.5l-3.4-.1q-2.4-.6-2.4-1.1-.3-1.1.4-2v-.1Q5 1.3 7 2.6q.7-1 2.3-1.2"/><path fill="#f8ebcf" d="M2.6 1.2Q3 .6 5 0q1-.3 4.2 1.3-1.6.2-2.3 1.2-2-1.3-4.3-1.4"/><path fill="none" stroke="#765834" stroke-linecap="round" stroke-linejoin="round" stroke-width="__RESOLUTION__" d="M9.2 1.4q.5.2.6 1.9L7.9 4.5l-3.4-.1q-2.4-.6-2.4-1.1-.3-1.1.4-2v-.1Q3 .7 5 0q1-.3 4.2 1.3" vector-effect="non-scaling-stroke"/></g><g id="F"><path fill="#f8ebcf" d="M1.5 0q.7-.2 1.3.6.5.8.3 2.4.5 1 1.4 1.8L2.5 6q-2.3-4-1-6"/><path fill="#c8ac80" d="M2.5 6H1.2q.3-.7-.8-2.3-.5-.9-.3-2Q.3.4 1.5.1.2 2 2.5 6"/><path fill="none" stroke="#765834" stroke-linecap="round" stroke-linejoin="round" stroke-width="__RESOLUTION__" d="M1.5 0q.7-.2 1.3.6.5.8.3 2.4.5 1 1.4 1.8M1.2 6.1q.3-.7-.8-2.4-.5-.9-.3-2Q.3.4 1.5.1" vector-effect="non-scaling-stroke"/></g><g id="G"><path fill="#e9d5b4" d="M8.2 7q1.2 1.7-.3 3.4.2-1.7-1-3.2z"/><path fill="#debc94" d="M7 7.2q1.1 1.5.9 3.2-2.2-.7-2.4-2.1.7-.9 1.5-1.1"/><path fill="none" stroke="#836d3f" stroke-linecap="round" stroke-linejoin="round" stroke-width="__RESOLUTION__" d="M7.9 10.4Q9.4 8.7 8 7m0 3.4q-2.2-.7-2.4-2.1" vector-effect="non-scaling-stroke"/><path fill="#e9d5b4" d="m5.1 8.1 1.2-.2q1.3 1.7-.3 3.4.3-1.7-.9-3.2"/><path fill="#debc94" d="M6 11.4q-2.2-.8-2.4-2.2.7-.8 1.5-1.1 1.2 1.6.9 3.3"/><path fill="none" stroke="#836d3f" stroke-linecap="round" stroke-linejoin="round" stroke-width="__RESOLUTION__" d="M6.3 7.9q1.3 1.8-.3 3.5-2.2-.7-2.4-2.1" vector-effect="non-scaling-stroke"/><path fill="#f8ebcf" d="M2.7 0q.4.6 3 2Q8 4.3 8.5 7.3l-2 1.2Q2.8 7 .9.9z"/><path fill="#c8ac80" d="M6.6 8.5q-2 1-3.4.4Q.9 7 0 2.2L.9.9Q2.8 7 6.6 8.5"/><path fill="none" stroke="#765834" stroke-linecap="round" stroke-linejoin="round" stroke-width="__RESOLUTION__" d="M2.7 0q.4.6 3 2Q8 4.3 8.5 7.3l-2 1.2q-2 1-3.4.4Q.9 7 0 2.2" vector-effect="non-scaling-stroke"/></g><g id="aD" transform="translate(23.15 30.4)"><use xlink:href="#J" width="8.7" height="11.3" transform="matrix(.9502 -.3008 -.3008 -.9502 -11.35 -9.7)"/><use xlink:href="#K" width="4.5" height="6" transform="matrix(.0335 -1.02 -1.3 -.3105 -3.3 -4.75)"/><use xlink:href="#L" width="14.7" height="4.3" transform="matrix(.8 0 0 .8 -6.65 12.6)"/><use xlink:href="#M" width="9.8" height="4.8" transform="rotate(55.4 -4.94 -14.96)scale(.9973)"/><use xlink:href="#K" width="4.5" height="6" transform="matrix(-.7891 .1829 .1047 1.06 5.35 -6.75)"/><use xlink:href="#N" width="5.8" height="10.1" transform="matrix(-.8131 -.4594 -.538 .8644 6.4 -.65)"/><use xlink:href="#O" width="17.5" height="21.6" transform="matrix(.8221 .5501 -.4931 .8849 -2.1 -14.1)"/><use xlink:href="#P" width="8.6" height="8.8" transform="matrix(-.1256 -1 -1.01 .1966 -4 6.55)"/><use xlink:href="#Q" width="23.6" height="17.9" transform="matrix(-1.12 -.5007 -.4507 .9141 22.35 -13.7)"/><use xlink:href="#R" width="14.9" height="11.3" transform="matrix(.6351 -.8257 .6411 .7361 -10.3 12.85)"/><use xlink:href="#S" width="9.1" height="8.6" transform="matrix(-.2306 .9491 .9917 .2004 -21.05 -12.35)"/><use xlink:href="#S" width="9.1" height="8.6" transform="matrix(.4868 -.527 -.2715 -.2604 9.7 -6.85)"/><use xlink:href="#S" width="9.1" height="8.6" transform="matrix(-.0977 -.3711 -.3916 .1006 10.45 -24.2)"/><use xlink:href="#S" width="9.1" height="8.6" transform="matrix(.5736 .1841 -.205 .5503 -3.3 -30.4)"/></g><g id="aB" transform="translate(25.55 12.45)"><use xlink:href="#T" width="27.9" height="27.9" transform="translate(-7.45 -2.85)scale(.6188)"/><use xlink:href="#I" width="34.7" height="28.6" transform="translate(-25.55 -12.45)scale(1.21)"/></g><g id="ay" transform="translate(23.15 30.4)"><use xlink:href="#U" width="8.7" height="11.3" transform="matrix(.9502 -.3008 -.3008 -.9502 -11.35 -9.7)"/><use xlink:href="#W" width="4.5" height="6" transform="matrix(.0335 -1.02 -1.3 -.3105 -3.3 -4.75)"/><use xlink:href="#X" width="14.7" height="4.3" transform="matrix(.8 0 0 .8 -6.65 12.6)"/><use xlink:href="#Y" width="9.8" height="4.8" transform="rotate(55.4 -4.94 -14.96)scale(.9973)"/><use xlink:href="#W" width="4.5" height="6" transform="matrix(-.7891 .1829 .1047 1.06 5.35 -6.75)"/><use xlink:href="#Z" width="5.8" height="10.1" transform="matrix(-.8131 -.4594 -.538 .8644 6.4 -.65)"/><use xlink:href="#aa" width="17.5" height="21.6" transform="matrix(.8221 .5501 -.4931 .8849 -2.1 -14.1)"/><use xlink:href="#ab" width="8.6" height="8.8" transform="matrix(-.1256 -1 -1.01 .1966 -4 6.55)"/><use xlink:href="#ac" width="23.6" height="17.9" transform="matrix(-1.12 -.5007 -.4507 .9141 22.35 -13.7)"/><use xlink:href="#ad" width="14.9" height="11.3" transform="matrix(.6351 -.8257 .6411 .7361 -10.3 12.85)"/><use xlink:href="#ae" width="9.1" height="8.6" transform="matrix(-.2306 .9491 .9917 .2004 -21.05 -12.35)"/><use xlink:href="#ae" width="9.1" height="8.6" transform="matrix(.4868 -.527 -.2715 -.2604 9.7 -6.85)"/><use xlink:href="#ae" width="9.1" height="8.6" transform="matrix(-.0977 -.3711 -.3916 .1006 10.45 -24.2)"/><use xlink:href="#ae" width="9.1" height="8.6" transform="matrix(.5736 .1841 -.205 .5503 -3.3 -30.4)"/></g><g id="as" transform="translate(25.55 12.45)"><use xlink:href="#T" width="27.9" height="27.9" transform="translate(-7.45 -2.85)scale(.6188)"/><use xlink:href="#I" width="34.7" height="28.6" transform="translate(-17.6 -6.6)scale(.815)"/></g><g id="aq" transform="translate(23.15 30.4)"><use xlink:href="#af" width="8.7" height="11.3" transform="matrix(.9502 -.3008 -.3008 -.9502 -11.35 -9.7)"/><use xlink:href="#ag" width="4.5" height="6" transform="matrix(.0335 -1.02 -1.3 -.3105 -3.3 -4.75)"/><use xlink:href="#ah" width="14.7" height="4.3" transform="matrix(.8 0 0 .8 -6.65 12.6)"/><use xlink:href="#ai" width="9.8" height="4.8" transform="rotate(55.4 -4.94 -14.96)scale(.9973)"/><use xlink:href="#ag" width="4.5" height="6" transform="matrix(-.7891 .1829 .1047 1.06 5.35 -6.75)"/><use xlink:href="#aj" width="5.8" height="10.1" transform="matrix(-.8131 -.4594 -.538 .8644 6.4 -.65)"/><use xlink:href="#ak" width="17.5" height="21.6" transform="matrix(.8221 .5501 -.4931 .8849 -2.1 -14.1)"/><use xlink:href="#al" width="8.6" height="8.8" transform="matrix(-.1256 -1 -1.01 .1966 -4 6.55)"/><use xlink:href="#am" width="23.6" height="17.9" transform="matrix(-1.12 -.5007 -.4507 .9141 22.35 -13.7)"/><use xlink:href="#an" width="14.9" height="11.3" transform="matrix(.6351 -.8257 .6411 .7361 -10.3 12.85)"/><use xlink:href="#ao" width="9.1" height="8.6" transform="matrix(-.2306 .9491 .9917 .2004 -21.05 -12.35)"/><use xlink:href="#ao" width="9.1" height="8.6" transform="matrix(.4868 -.527 -.2715 -.2604 9.7 -6.85)"/><use xlink:href="#ao" width="9.1" height="8.6" transform="matrix(-.0977 -.3711 -.3916 .1006 10.45 -24.2)"/><use xlink:href="#ao" width="9.1" height="8.6" transform="matrix(.5736 .1841 -.205 .5503 -3.3 -30.4)"/></g><clipPath id="ap"><path d="M1 1h81v80H1z"/></clipPath><clipPath id="at"><path d="M83 1h81v80H83z"/></clipPath><clipPath id="av"><path d="M165 1h81v80h-81z"/></clipPath><clipPath id="ax"><path d="M247 1h81v80h-81z"/></clipPath><clipPath id="aA"><path d="M329 1h81v80h-81z"/></clipPath><clipPath id="aC"><path d="M411 1h81v80h-81z"/></clipPath><clipPath id="aE"><path d="M493 1h81v80h-81z"/></clipPath><clipPath id="aG"><path d="M575 1h81v80h-81z"/></clipPath><clipPath id="aH"><path d="M657 1h81v80h-81z"/></clipPath><clipPath id="aI"><path d="M739 1h81v80h-81z"/></clipPath><path id="i" fill="#980000" d="M5.8-1.9Q7.9-1.4 8-.5 8 .3 5.9 1 3.8 1.8.7 2l-5.2-.4Q-6.7 1.2-6.7.3q-.1-.8 2-1.6 2.2-.8 5.2-.9z" transform="translate(6.75 2.25)"/><path id="m" fill="#fff" d="M9.8-10.2q3.3 3.3 4 7.7l.1 2.2q0 5.7-4.1 9.8-3.3 3.3-7.6 4l-2.2.1q-5.8 0-10-4.1-2.6-2.6-3.5-6-.5-1.8-.5-3.8 0-5.8 4-10h.2q4-4 9.8-4 3.7 0 6.6 1.7 1.7.9 3.2 2.3" transform="translate(14 14.3)"/><path id="u" fill="#fff" d="M5.8-1.9Q7.9-1.4 8-.5 8 .3 5.9 1 3.8 1.8.7 2l-5.2-.4Q-6.7 1.2-6.7.3q-.1-.8 2-1.6 2.2-.8 5.2-.9z" transform="translate(6.75 2.25)"/><path id="E" fill="#382c16" d="M5.8-1.9Q7.9-1.4 8-.5 8 .3 5.9 1 3.8 1.8.7 2l-5.2-.4Q-6.7 1.2-6.7.3q-.1-.8 2-1.6 2.2-.8 5.2-.9z" transform="translate(6.75 2.25)"/></defs><g clip-path="url(#ap)"><g transform="translate(58.4 73.9)"><use xlink:href="#aq" width="45.5" height="51.5" transform="translate(-21.9 -44.8)"/><use xlink:href="#ar" width="36.4" height="34.2" transform="matrix(-1 0 0 1 -21.05 -72.9)"/><use xlink:href="#as" width="42" height="34.5" transform="translate(-24.75 -39.2)scale(.916)"/></g></g><g clip-path="url(#at)"><g transform="translate(140.4 73.9)"><use xlink:href="#aq" width="45.5" height="51.5" transform="translate(-21.9 -44.8)"/><use xlink:href="#au" width="36.4" height="34.2" transform="matrix(-1 0 0 1 -21.05 -72.9)"/><use xlink:href="#as" width="42" height="34.5" transform="translate(-24.75 -39.2)scale(.916)"/></g></g><g clip-path="url(#av)"><g transform="translate(222.4 73.9)"><use xlink:href="#aq" width="45.5" height="51.5" transform="translate(-21.9 -44.8)"/><use xlink:href="#aw" width="36.4" height="34.2" transform="matrix(-1 0 0 1 -21.05 -72.9)"/><use xlink:href="#as" width="42" height="34.5" transform="translate(-24.75 -39.2)scale(.916)"/></g></g><g clip-path="url(#ax)"><g transform="translate(304.4 73.9)"><use xlink:href="#ay" width="45.5" height="51.5" transform="translate(-21.9 -44.8)"/><use xlink:href="#az" width="42" height="34.5" transform="translate(-24.75 -39.2)scale(.916)"/></g></g><g clip-path="url(#aA)"><g transform="translate(386.4 73.9)"><use xlink:href="#ay" width="45.5" height="51.5" transform="translate(-21.9 -44.8)"/><use xlink:href="#aB" width="42" height="34.5" transform="translate(-24.75 -39.2)scale(.916)"/></g></g><g clip-path="url(#aC)"><g transform="translate(468.4 73.9)"><use xlink:href="#aD" width="45.5" height="51.5" transform="translate(-21.9 -44.8)"/><use xlink:href="#az" width="42" height="34.5" transform="translate(-24.75 -39.2)scale(.916)"/></g></g><g clip-path="url(#aE)"><g transform="translate(550.4 73.9)"><use xlink:href="#ay" width="45.5" height="51.5" transform="translate(-21.9 -44.8)"/><use xlink:href="#aF" width="36.4" height="34.2" transform="matrix(-1 0 0 1 -21.05 -72.9)"/></g></g><g clip-path="url(#aG)"><g transform="translate(632.4 73.9)"><use xlink:href="#aD" width="45.5" height="51.5" transform="translate(-21.9 -44.8)"/><use xlink:href="#aF" width="36.4" height="34.2" transform="matrix(-1 0 0 1 -21.05 -72.9)"/></g></g><g clip-path="url(#aH)"><g transform="translate(714.4 73.9)"><use xlink:href="#aD" width="45.5" height="51.5" transform="translate(-21.9 -44.8)"/><use xlink:href="#aF" width="36.4" height="34.2" transform="matrix(-1 0 0 1 -21.05 -72.9)"/></g></g><g clip-path="url(#aI)"><g transform="translate(796.4 73.9)"><use xlink:href="#aq" width="45.5" height="51.5" transform="translate(-21.9 -44.8)"/><use xlink:href="#aF" width="36.4" height="34.2" transform="matrix(-1 0 0 1 -21.05 -72.9)"/></g></g></svg>