<svg xmlns="http://www.w3.org/2000/svg" xmlns:xlink="http://www.w3.org/1999/xlink" width="247" height="34" viewBox="0 0 247 34"><defs><clipPath id="g"><path d="M1 1h40v32H1z"/></clipPath><clipPath id="k"><path d="M42 1h40v32H42z"/></clipPath><clipPath id="m"><path d="M83 1h40v32H83z"/></clipPath><clipPath id="o"><path d="M124 1h40v32h-40z"/></clipPath><clipPath id="p"><path d="M165 1h40v32h-40z"/></clipPath><clipPath id="q"><path d="M206 1h40v32h-40z"/></clipPath><use xlink:href="#a" id="c" width="34.7" height="28.6"/><use xlink:href="#b" id="f" width="27.9" height="27.9"/><use xlink:href="#c" id="l" width="34.7" height="28.6" transform="scale(1.21)"/><use xlink:href="#d" id="i" width="11.3" height="5"/><g id="a"><path fill="#6c4e1d" d="M28.6 10.1q-1.4 3.8-.9 5.9.5 1.9 2.8 3.3l3.4 1.2q-2.4.4-2.4 2-.1 2 3.2 5.9-4.3-4-6.6-3.5-1.8.3-2.9 3.7.1-4.1-2.4-6.1 4.9-.1 4.8-3.4t-5.3-7q2.9 1 6.3-2"/><path fill="#9a763a" d="M18.4 10.8q.7 3.6 3.8 8.4l4.1 5.2q-5.7-2.8-16.6 1.3Q22 17.3 5.5 3.3 16.3 9 16.3 2.6l4 1.7q-.7.4-1.4 1.9-1 2.2-.5 4.6"/><path fill="#b3c435" d="M3.1 2.2 0 .9Q.6-.4 2 .2t2 2.2zm5.4 24-.2.4L6.6 28q-1-.5-.2-1.1t2.1-.7"/></g><g id="n" transform="translate(25.55 12.45)"><use xlink:href="#f" width="27.9" height="27.9" transform="translate(-7.45 -2.85)scale(.6188)"/><use xlink:href="#c" width="34.7" height="28.6" transform="translate(-25.55 -12.45)scale(1.21)"/></g><g id="j"><path fill="#f9dca5" d="M7.4 1.3Q8.2 0 9.4 0q1.5 3.5 3.7 5.9.7 1.5.7 3.5l.7 3.2.6 2-.1 1q-4.4 3.4-7.6.9-2-7.3 0-15.2"/><path fill="#b39a5a" d="m15 15.7-1 2.2q-2.2 1.2-4.5 2l-.4.4-4.6-3.6-3.2-5 .9-1.2 1.7-3.4 1-3.9 1.4-1.9h1.1q-2 7.9 0 15.2 3.2 2.5 7.6-.8"/><path fill="#76663f" d="m9 20.3-.4.4q-2.1-.4-4.2-1.7l-1-1.4-1.8-.9-1-4.1.7-1 3.2 5.1z"/><path fill="none" stroke="#000" stroke-linecap="round" stroke-linejoin="round" stroke-opacity=".3" stroke-width="__RESOLUTION__" d="M7.4 1.3Q8.2 0 9.4 0q1.5 3.5 3.7 5.9.7 1.5.7 3.5l.7 3.2.6 2-.1 1-1 2.3q-2.1 1.2-4.5 2l-.4.4-.5.4q-2.1-.4-4.2-1.7l-1-1.4-1.8-.9-1-4.1.7-1 .9-1 1.7-3.4 1-4 1.4-1.9z" vector-effect="non-scaling-stroke"/><path fill="#b39a5a" d="M6.5 11.2q1.1 0 1.9-1.2.1-1.8-.9-2.4l-1-.5.3-2.3h.5q2 .5 2.3 1.9.6 2.2.6 4.2-1.1 2-3.4 2.2zm0-2.2.2-.1-.2.5zm7.3 1.5.3.1.5 2 .5 2v.3L13.8 16q-.6.6-1.4 0l-.8-2.4q-.3-.9.2-2l.6-.7q.6 1.3 1.8 1.7zm-8.4 7-1-.8-2-3.2q1.6.9 2.8 2.4z"/><path fill="#76663f" d="M6.5 7h-.3Q4 7.8 3.5 9L3 8.7l.8-1.5.6-2q.9-.6 2.3-.4zm.3 6h-.3q-1.2-.4-1.6-2.1v-1q.5-.7 1.5-.9v.4q-.5 1 0 1.8h.1z"/><path fill="#5b4e30" d="m2.5 13.5 2 3.2.9.8q0 1-.3 1.7l-.1.2-.6-.4-1-1.5q.1-.7-.2-1.3L1.9 15q-.4-.2-.7 0l-.5-2h.9z"/><path fill="#b3c435" d="m10.2 10-.7-.1-.9-3.3-2-1.7-3.6 1 .9-1.3q1.2-.8 3.4-.5 2 .4 2.3 1.8.6 2.2.6 4.2m3.6-.4q.7.6.8 3l-1.4 1.8q-.9-.1-1.6-1.6-.3-1 .2-2.1l.5-.6q.5-.3.9.4.5 1.2 1 1.3zm.3 2.2q.3.7-.6 1.4h-.9v-.8.8h1q.8-.7.5-1.4m-9 6.5q-.7-.1-.9-1.3v-1.8L3 13.8l-1.7-.7q-.2-.5-.8-.3l.2-.6h.9q2 .9 3.6 2.9.5 2-.1 3.3"/><path fill="#707a23" d="m3 5.9 3.6-1 2 1.7.9 3.3.7.2q-1.1 2.2-3.7 2.2-1.3-.5-1.7-2.3v-.9q.7-.8 1.9-1-.9 1.3-.3 2.3 1.1.1 2-1.3.1-1.7-.9-2.3L6.3 6q-2.2.8-2.8 2l-1-.6q0-.6.6-1.6m10.8 3.8q1.6.7 1.7 1.3-.2 1.2.2 1.6.1 1.1-.2 1.2l-1.7 1.5q-.6.5-1.4 0l-.8-2.4q.7 1.5 1.6 1.6l1.5-1.8q-.2-2.4-.9-3M.5 12.8q.6-.2.8.3l1.7.7 1.2 1.5v1.8q.2 1.2.8 1.3l-.5.7q-1.5 0-2-.7l.7-1.3q.3-1 0-1.7l-1.3-1.2q-.8-.3-.9.4-.7.2-1-.8z"/><path fill="none" stroke="#000" stroke-linecap="round" stroke-linejoin="round" stroke-opacity=".3" stroke-width="__RESOLUTION__" d="M10.2 10q0-2-.6-4.1-.3-1.4-2.3-1.8-2.1-.3-3.4.5L3 5.9q-.6 1-.5 1.6l1 .6q.5-1.2 2.7-2l1.4.7q.9.6.8 2.4-.8 1.3-2 1.2-.6-1 .3-2.3-1.2.2-1.8 1v1q.4 1.7 1.6 2.1 2.6 0 3.7-2.1m1.4 2.8.8 2.4q.8.5 1.4 0l1.7-1.5q.3-.1.2-1.2-.4-.4-.2-1.6-.1-.6-1.7-1.3l.4 2.2q-.5-.1-1-1.3-.4-.7-.8-.4l-.6.6q-.5 1.1-.2 2m1-.3v.8h1q.9-.7.6-1.4M5 18.4q.6-1.2 0-3.3-1.5-2-3.5-2.9h-1l-.1.6-.5 1q.3 1 1 .8.2-.7 1-.4l1.2 1.2q.4.8 0 1.7l-.7 1.3q.6.7 2 .7z" vector-effect="non-scaling-stroke"/></g><g id="h" transform="translate(25.55 12.45)"><use xlink:href="#f" width="27.9" height="27.9" transform="translate(-7.45 -2.85)scale(.6188)"/><use xlink:href="#c" width="34.7" height="28.6" transform="translate(-17.6 -6.6)scale(.815)"/></g><path id="b" fill="#fff" d="M9.8-10.2q3.3 3.3 4 7.7l.1 2.2q0 5.7-4.1 9.8-3.3 3.3-7.6 4l-2.2.1q-5.8 0-10-4.1-2.6-2.6-3.5-6-.5-1.8-.5-3.8 0-5.8 4-10h.2q4-4 9.8-4 3.7 0 6.6 1.7 1.7.9 3.2 2.3" transform="translate(14 14.3)"/><path id="d" fill="#382c16" d="M0-2.5q2.4 0 4 .8 1.6.6 1.7 1.7Q5.6 1.1 4 1.9t-4 .7-4-.8T-5.6 0t1.7-1.8T0-2.5" transform="translate(5.6 2.5)"/></defs><g clip-path="url(#g)"><g transform="translate(16.15 28.3)"><use xlink:href="#h" width="42" height="34.5" transform="matrix(-.7035 0 0 .7034 24.2 -27.3)"/><use xlink:href="#i" width="11.3" height="5" transform="translate(-5.25 -2.15)"/><use xlink:href="#j" width="15.7" height="20.7" transform="rotate(-22.693 -42.085 30.825)skewX(10.448)"/></g></g><g clip-path="url(#k)"><g transform="translate(57.15 28.3)"><use xlink:href="#l" width="42" height="34.5" transform="matrix(-.7035 0 0 .7034 24.2 -27.3)"/><use xlink:href="#i" width="11.3" height="5" transform="translate(-5.25 -2.15)"/><use xlink:href="#j" width="15.7" height="20.7" transform="rotate(-22.693 -42.085 30.825)skewX(10.448)"/></g></g><g clip-path="url(#m)"><g transform="translate(98.15 28.3)"><use xlink:href="#n" width="42" height="34.5" transform="matrix(-.7035 0 0 .7034 24.2 -27.3)"/><use xlink:href="#i" width="11.3" height="5" transform="translate(-5.25 -2.15)"/><use xlink:href="#j" width="15.7" height="20.7" transform="rotate(-22.693 -42.085 30.825)skewX(10.448)"/></g></g><g clip-path="url(#o)"><g transform="translate(139.15 28.3)"><use xlink:href="#i" width="11.3" height="5" transform="translate(-5.25 -2.15)"/><use xlink:href="#j" width="15.7" height="20.7" transform="rotate(-22.693 -42.085 30.825)skewX(10.448)"/></g></g><g clip-path="url(#p)"><g transform="translate(180.15 28.3)"><use xlink:href="#i" width="11.3" height="5" transform="translate(-5.25 -2.15)"/><use xlink:href="#j" width="15.7" height="20.7" transform="rotate(-22.693 -42.085 30.825)skewX(10.448)"/></g></g><g clip-path="url(#q)"><g transform="translate(221.15 28.3)"><use xlink:href="#i" width="11.3" height="5" transform="translate(-5.25 -2.15)"/><use xlink:href="#j" width="15.7" height="20.7" transform="translate(-7.95 -19.1)"/></g></g></svg>