<svg xmlns="http://www.w3.org/2000/svg" xmlns:xlink="http://www.w3.org/1999/xlink" width="2205" height="50" viewBox="0 0 2205 50"><defs><clipPath id="Z"><path d="M1 1h57v48H1z"/></clipPath><clipPath id="aq"><path d="M59 1h57v48H59z"/></clipPath><clipPath id="ar"><path d="M117 1h57v48h-57z"/></clipPath><clipPath id="as"><path d="M175 1h57v48h-57z"/></clipPath><clipPath id="at"><path d="M233 1h57v48h-57z"/></clipPath><clipPath id="au"><path d="M291 1h57v48h-57z"/></clipPath><clipPath id="av"><path d="M349 1h57v48h-57z"/></clipPath><clipPath id="aw"><path d="M407 1h57v48h-57z"/></clipPath><clipPath id="ax"><path d="M465 1h57v48h-57z"/></clipPath><clipPath id="ay"><path d="M523 1h57v48h-57z"/></clipPath><clipPath id="az"><path d="M581 1h57v48h-57z"/></clipPath><clipPath id="aA"><path d="M639 1h57v48h-57z"/></clipPath><clipPath id="aB"><path d="M697 1h57v48h-57z"/></clipPath><clipPath id="aC"><path d="M755 1h57v48h-57z"/></clipPath><clipPath id="aD"><path d="M813 1h57v48h-57z"/></clipPath><clipPath id="aE"><path d="M871 1h57v48h-57z"/></clipPath><clipPath id="aF"><path d="M929 1h57v48h-57z"/></clipPath><clipPath id="aG"><path d="M987 1h57v48h-57z"/></clipPath><clipPath id="aH"><path d="M1045 1h57v48h-57z"/></clipPath><clipPath id="aI"><path d="M1103 1h57v48h-57z"/></clipPath><clipPath id="aK"><path d="M1161 1h57v48h-57z"/></clipPath><clipPath id="aL"><path d="M1219 1h57v48h-57z"/></clipPath><clipPath id="aM"><path d="M1277 1h57v48h-57z"/></clipPath><clipPath id="aN"><path d="M1335 1h57v48h-57z"/></clipPath><clipPath id="aO"><path d="M1393 1h57v48h-57z"/></clipPath><clipPath id="aP"><path d="M1451 1h57v48h-57z"/></clipPath><clipPath id="aQ"><path d="M1509 1h57v48h-57z"/></clipPath><clipPath id="aR"><path d="M1567 1h57v48h-57z"/></clipPath><clipPath id="aS"><path d="M1625 1h57v48h-57z"/></clipPath><clipPath id="aT"><path d="M1683 1h57v48h-57z"/></clipPath><clipPath id="aU"><path d="M1741 1h57v48h-57z"/></clipPath><clipPath id="aV"><path d="M1799 1h57v48h-57z"/></clipPath><clipPath id="aW"><path d="M1857 1h57v48h-57z"/></clipPath><clipPath id="aX"><path d="M1915 1h57v48h-57z"/></clipPath><clipPath id="aY"><path d="M1973 1h57v48h-57z"/></clipPath><clipPath id="aZ"><path d="M2031 1h57v48h-57z"/></clipPath><clipPath id="ba"><path d="M2089 1h57v48h-57z"/></clipPath><clipPath id="bb"><path d="M2147 1h57v48h-57z"/></clipPath><g id="M"><path fill="#2d212e" d="m0 3.4.1-.2q2.5-4 5-3 1 .8.4 2.9l.2.4v.9q-.3 1.2-.1 1.5.4.7-.4 1.5L2.1 7l-.5-1.4q-.3-.9-.1-1.5l-.3-.3Q.5 3.3 0 3.4"/><path fill="#fbf4ce" d="M.1 3.4H0z"/></g><g id="O"><path fill="#dbbb85" d="M.9 1.4Q1.8-.2 2.4.1l.7.5.3.3.2-.4h.1Q4.9.3 6 .9q.2 1.5-.6 1.4h-.7L4 2.2q-.3.6-.9.6Q1.7 2.3.9 1.4m3.8.9.7.4-.4 1-.6.3q0 .6-.3 1.2l-1 .1q-.2-.7.2-1.4h.4q-.1-.8.2-1.5l.7-.1zm-1 1.6.7.2z"/><path fill="#daa674" d="M4.6 2.3"/><path fill="#b89d70" d="M3 5.3h-.9Q1.3 5.6.6 5-.6 3 .8 1.5l.1-.1q.8.9 2.1 1.5.6 0 .9-.7h.7v.1l-.6.1q-.4.7-.3 1.5h-.4Q3 4.6 3 5.3"/><path fill="none" stroke="#1f1f1f" stroke-linecap="round" stroke-linejoin="round" stroke-opacity=".3" stroke-width="__RESOLUTION__" d="M.9 1.4Q1.8-.2 2.4.1l.7.5.3.3.2-.4h.1Q4.9.3 6 .9q.2 1.5-.6 1.4h-.7m0 0 .8.4-.4 1-.6.3q0 .6-.3 1.2l-1 .1v0H2Q1.3 5.6.6 5m3.8-1-.7-.2-.4.1" vector-effect="non-scaling-stroke"/></g><g id="P"><path fill="#dbbb85" d="m3.1 0 .3 1.9V3q0 .9-.4 1.8l-.1 1.9q-.7.2-1-.2V4.8L1.7 6l-.9-.2-.1-1v-.7Q.1 4 0 3.1v-.2l.3-.7.6-2z"/><path fill="#755725" d="M0 2.9v.3V3z"/><path fill="#b89d70" d="M0 3.2q.2.8.9 1l-.1.7-.8-.4V3zm3 3.5.1-2q.4-.8.4-1.7V1.9q0 .4.3 1T4 4.6l-.7.7z"/><path fill="none" stroke="#1c1c1c" stroke-linecap="round" stroke-linejoin="round" stroke-opacity=".5" stroke-width="__RESOLUTION__" d="M3.4 1.9 3 0M.9 0 .3 2.2l-.3.7v1.7l.8.3.1 1 .9.2m0-1.2L2 6.5q.3.4 1 .2l.5-1.4.8-.7Q4 3.4 3.7 2.9t-.3-1" vector-effect="non-scaling-stroke"/></g><g id="R"><path fill="#f8f3df" d="m7 11.7.3-.4z"/><path fill="#ba9f71" d="M7.7 16.2q-1-1-2.1-3.4v-.2l3 1.4.5 2.3z"/><path fill="#dbbb85" d="m8.5 14-2.9-1.4v.2q1 2.4 2 3.3l.1.1h-.3L5.2 15l.3-2.4z"/><path fill="#d4cbad" d="M5.5 8.6 2 .8l5.6 3.1z"/><path fill="none" stroke="#523109" stroke-linecap="round" stroke-linejoin="round" stroke-opacity=".3" stroke-width="__RESOLUTION__" d="M5.5 8.6 2 .8l5.6 3.1" vector-effect="non-scaling-stroke"/><path fill="#fbf0cc" d="m10.9 9.9-7.3.6.6-5.3 4.9 1z"/><path fill="#fbf0cc" d="M10.4 4.8 9.2 7.2 5.5 1.6 5 0z"/><path fill="#d4cbad" d="m9.2 7.2-2-.7-1.7-4.9z"/><path fill="none" stroke="#523109" stroke-linecap="round" stroke-linejoin="round" stroke-opacity=".3" stroke-width="__RESOLUTION__" d="M7.2 6.5 5.5 1.6 5 0l5.4 4.8" vector-effect="non-scaling-stroke"/><path fill="#d4cbad" d="M4.3 5.5 3.6 10 0 4.8z"/><path fill="none" stroke="#523109" stroke-linecap="round" stroke-linejoin="round" stroke-opacity=".3" stroke-width="__RESOLUTION__" d="M3.6 10 0 4.9l4.3.7" vector-effect="non-scaling-stroke"/><path fill="#fbf0cc" d="M3.9 9.9 2.4 3.4l4.3 3.1z"/><path fill="none" stroke="#523109" stroke-linecap="round" stroke-linejoin="round" stroke-opacity=".3" stroke-width="__RESOLUTION__" d="M3.9 9.9 2.4 3.4l4.3 3.1" vector-effect="non-scaling-stroke"/><path fill="#fbf0cc" d="M5.5 13.4 1.6 9l4.5 1.1z"/><path fill="none" stroke="#523109" stroke-linecap="round" stroke-linejoin="round" stroke-opacity=".3" stroke-width="__RESOLUTION__" d="M5.5 13.4 1.6 9l4.5 1.1" vector-effect="non-scaling-stroke"/><path fill="#b3996d" d="M6.2 14.4q-.6-1.9-.3-4.4l1-.2.8-.4 1.6-.5h.7l1 .1v.3l-.3 1-1.7 2-.3-1.8L7 12.2l-.2 1.4-.4 1z"/><path fill="#dbbb85" d="m6.4 14.6.3-1.1.2-1.3.2-.1 1.6-1.5.3 1.7 1.7-2 .3-1-.1.5-.3.5-.4 1q.3.5.2 1l-.3.4-.3.7v.1h-.1v.2l-.1.3-.3 1.1-.4.6q-1 .1-2-.6z"/><path fill="#f4dfb5" d="m10.2 12.8-.5.8v.2-.3l.1-.1z"/><path fill="none" stroke="#1b1b1b" stroke-linecap="round" stroke-linejoin="round" stroke-opacity=".5" stroke-width="__RESOLUTION__" d="m6.2 14.4.2.1m3.8-3.3q.3.6.2 1v.2l-.3.3-.3.7v.1h-.1v.2h0l-.1.3-.3 1.1-.4.6q-1 .1-2-.6l-.4-.4" vector-effect="non-scaling-stroke"/><path fill="#fff" d="M10.7 9.7v1q-.3.8-.7.9v-.8q.2-.8.7-1.1m-2.3 1.4v.8q-.6.4-1 0v-1q.7-.3 1 .2"/><path fill="none" stroke="#1f1f1f" stroke-linecap="round" stroke-linejoin="round" stroke-opacity=".5" stroke-width="__RESOLUTION__" d="M10 10.8q.2-.7.6-1.1m-2.2 1.4q-.3-.5-1-.2" vector-effect="non-scaling-stroke"/><path fill="#d4cbad" d="m9.5 9 1.4-2 2.6 3.5z"/><path fill="none" stroke="#523109" stroke-linecap="round" stroke-linejoin="round" stroke-opacity=".3" stroke-width="__RESOLUTION__" d="m10.9 7.2 2.6 3.4-4-1.6" vector-effect="non-scaling-stroke"/><path fill="#dbbb85" d="M4.5 11.4 6 12.5q-.5.8-1.7.3Q3.2 12 3 11.2z"/><path fill="none" stroke="#1f1f1f" stroke-linecap="round" stroke-linejoin="round" stroke-opacity=".3" stroke-width="__RESOLUTION__" d="M6 12.5q-.5.8-1.7.3Q3.2 12 3 11.2l1.5.2" vector-effect="non-scaling-stroke"/><path fill="#fbf0cc" d="M9.2 8.4V2.6l2.2 4.9z"/><path fill="none" stroke="#523109" stroke-linecap="round" stroke-linejoin="round" stroke-opacity=".3" stroke-width="__RESOLUTION__" d="M9.2 8.4V2.6l2.2 4.9" vector-effect="non-scaling-stroke"/><path fill="#fbf0cc" d="m8.3 9-3.1 3.7.5-3.8z"/><path fill="none" stroke="#523109" stroke-linecap="round" stroke-linejoin="round" stroke-opacity=".3" stroke-width="__RESOLUTION__" d="m8.3 9-3.1 3.7.5-3.8" vector-effect="non-scaling-stroke"/><path fill="#fbf0cc" d="m8.6 7.6 2.2.7-3.4 3.6z"/><path fill="none" stroke="#523109" stroke-linecap="round" stroke-linejoin="round" stroke-opacity=".3" stroke-width="__RESOLUTION__" d="m10.8 8.3-3.4 3.6 1.2-4.3" vector-effect="non-scaling-stroke"/></g><g id="S"><path fill="#52514b" d="M5.4 1.4Q5.7 4.9 4 8q-.5.9-1 2.6-1.5.4-3-.6.5-1.5.3-2.5Q-.2 4.8 1.6 0z"/><path fill="none" stroke="#1f1f1f" stroke-linecap="round" stroke-linejoin="round" stroke-opacity=".3" stroke-width="__RESOLUTION__" d="M3 10.6Q3.5 8.9 4 8q1.7-3.1 1.4-6.6M1.6 0Q-.2 4.8.3 7.5q.2 1-.3 2.5" vector-effect="non-scaling-stroke"/></g><g id="T"><path fill="#4e4b5f" d="m.6 9.6.3-1.8-.2-3.4Q.6 2.5 1.2.9q.5-.8 1.9 1.2l1.5 2.6q.1 1.3-.5 2.7l-1 2.2zm2.1-2q.8-.6 1.5-1.9Q3.5 7 2.7 7.5"/><path fill="none" stroke="#1e1e24" stroke-linecap="round" stroke-linejoin="round" stroke-width="__RESOLUTION__" d="m3 9.6 1.1-2.2q.6-1.5.6-2.8L3 2.1Q1.7 0 1.2.8.6 2.5.7 4.4l.2 3.4-.3 1.8m3.6-3.9Q3.5 7 2.7 7.5" vector-effect="non-scaling-stroke"/><path fill="#52514b" d="M5 1.2q.5 3.4-1 6.6-.4.9-.6 2.2-1.5 1-3.2-.3.2-1.1-.2-3T1.2 0z"/><path fill="none" stroke="#1f1f1f" stroke-linecap="round" stroke-linejoin="round" stroke-opacity=".3" stroke-width="__RESOLUTION__" d="M3.4 10q.3-1.3.7-2.2 1.4-3.2.9-6.6M1 0Q-.4 5 0 6.8t.1 2.9" vector-effect="non-scaling-stroke"/></g><g id="U"><path fill="#dbbb85" d="M3.9 1.2q1.1 1 .8 1.6l-.6.5-.3.2.3.3v.1q-.1 1-.8 1.8-1.3-.2-1-.8l.2-.6.2-.6q-.5-.4-.4-.8.7-1.1 1.6-1.6m-1.5 3-.4.6-.8-.5-.2-.6-.9-.4q-.2-.5.1-1h.1q.6 0 1 .6.6 0 1.2.5zM1.3 3.1l-.3.6z"/><path fill="#b89d70" d="M3.9 1.2q-1 .5-1.6 1.6-.1.4.4.8l-.3.6v-.5Q2 3.2 1.3 3v-.2q-.5-.6-1-.6l.1-.8Q.4.7.9.3 2.8-.5 4 1z"/><path fill="none" stroke="#1c1c1c" stroke-linecap="round" stroke-linejoin="round" stroke-opacity=".5" stroke-width="__RESOLUTION__" d="m2.5 4.2-.2.6q-.3.6 1 .8.7-.8.8-1.8v-.1l-.3-.3.3-.2.6-.5q.3-.6-.8-1.6v0q-1 .6-1.6 1.7m.1 1.4-.4.6-.8-.5-.2-.6-.9-.4q-.2-.5.1-1h.1l.1-.8Q.4.7.9.3M1 3.7l.3-.6" vector-effect="non-scaling-stroke"/></g><g id="V"><path fill="#661502" d="m2.6 0-.5 1.8-1.4.7 1.5.5.4 1.3H2Q.3 4.3.1 3.6q-.2-1 .2-2L1 0z"/><path fill="#8d1f03" d="M2.7 4.3 2.2 3 .8 2.5l1.4-.7.5-1.7h1L4 1.7q.3 1.1.2 2.2-.4.4-1.4.4"/><path fill="none" stroke="#1c1c1c" stroke-linecap="round" stroke-linejoin="round" stroke-opacity=".5" stroke-width="__RESOLUTION__" d="M1 0 .3 1.7q-.4.9-.2 1.9.1.6 1.9.7h.6q1.1 0 1.5-.4.1-1.1-.2-2.2L3.7.1" vector-effect="non-scaling-stroke"/></g><g id="W"><path fill="#8d1f03" d="M4.3 2.6 4 3l-.4 1.7L3 8.2l-1 .3h-.5Q1 6.3 2 4.4l-.1-1 .6-1L3.3 1q.8.7 1 1.6"/><path fill="#751802" d="M1.6 8.5.5 8.3V8Q0 5 1.1 2.2L3.2 1l-.7 1.5-.7.9.1 1q-.9 1.9-.3 4"/><path fill="#661502" d="m.5 8.3-.3-.4q-.5-4 .4-6l2-1.4q.8-1 1.3 0l.6 1q.2 1-.2 1.1Q4 1.6 3.2 1L1.1 2.3Q0 5.1.5 8.2z"/><path fill="none" stroke="#4f0e01" stroke-linecap="round" stroke-linejoin="round" stroke-width="__RESOLUTION__" d="m.5 8.3-.3-.4q-.5-4 .4-6l2-1.4q.8-1 1.3 0l.6 1" vector-effect="non-scaling-stroke"/></g><g id="X"><path fill="#661502" d="m.2.1 1 .2q.4 1.2 1.5 1.5 1.1.1 1.2 2.1L0 1.7z"/><path fill="#8d1f03" d="M1.3.4 2.9 0l2.3 1.2q1.2 1.2.6 2-.4.4-1.9.7-.1-2-1.2-2.1Q1.6 1.5 1.2.4"/><path fill="none" stroke="#1c1c1c" stroke-linecap="round" stroke-linejoin="round" stroke-opacity=".5" stroke-width="__RESOLUTION__" d="m2.9 0 2.3 1.2q1.2 1.2.6 2-.4.4-1.9.7L0 1.7.2 0" vector-effect="non-scaling-stroke"/></g><g id="b"><path fill="#7d1702" d="m4.1 1.4-.5.9V3L3 2Q3.4.6 3.9.3h.6q-.3.6.2 1zm.4 6.7q.2.4 1.1.5l.5-.1v.8h-.6q-1 0-1.3-.7-.1-.2.3-.5"/><path fill="#661502" d="m3.6 2.3.5-.9h.7l1.7.5q1.3 3.2.5 6l-1 .6h-.4q-.9 0-1.1-.4-1-2.9-1-5.8"/><path fill="#bd2703" d="M4.8 1.4q-.6-.3-.2-1 1.4 0 2.8 1 1.2 3.2.3 7.3l-1.5.6-.1-.8.9-.6q.8-2.9-.5-6z"/><path fill="none" stroke="#c27517" stroke-linecap="round" stroke-linejoin="round" stroke-width="__RESOLUTION__" d="M4.1 1.4" vector-effect="non-scaling-stroke"/><path fill="none" stroke="#45303b" stroke-linecap="round" stroke-linejoin="round" stroke-width="__RESOLUTION__" d="M4.6.5h-.7Q3.5.8 3.1 2l.4 1v-.8m1 5.8q-.4.3-.3.5.4.7 1.3.8l.7-.1 1.5-.6q.9-4.1-.3-7.3Q6 .4 4.5.4" vector-effect="non-scaling-stroke"/><path fill="none" stroke="#734e19" stroke-linecap="round" stroke-linejoin="round" stroke-width="__RESOLUTION__" d="M3.6 2.3q0 2.9.9 5.8" vector-effect="non-scaling-stroke"/><path fill="#d12b04" d="m1.8.9-.1 2.4-.8-.7V0z"/><path fill="#8d1f03" d="M1.7 3.3 1.8.9l2.7 1q.5 1 .3 1.8z"/><path fill="#661502" d="M1.8.9.8 0l3.4 1.4.2.6z"/><path fill="none" stroke="#5c1301" stroke-linecap="round" stroke-linejoin="round" stroke-width="__RESOLUTION__" d="M1.8.9.8 0 1 2.6l.8.7 3.1.4q.2-.8-.3-1.8m-.3-.5L.9 0" vector-effect="non-scaling-stroke"/><path fill="#8d1f03" d="M4.7 6.8q.7.6.9 1.4L3.7 10l-.9-2.5z"/><path fill="#d12b04" d="M3.7 10 3 9.8 1.9 7.3l.9.2z"/><path fill="#661502" d="m1.9 7.3 2.4-.9.4.3-1.9.7z"/><path fill="none" stroke="#5c1301" stroke-linecap="round" stroke-linejoin="round" stroke-width="__RESOLUTION__" d="M4.7 6.8q.7.6.9 1.4L3.7 10 3 9.8 1.9 7.3l2.4-.9m-1.5 1-.9-.1" vector-effect="non-scaling-stroke"/><path fill="#8d1f03" d="M4.5 4.3q.8.7.7 1.5l-3.6 1-.4-2.5z"/><path fill="#d12b04" d="m1.6 6.8-1-.4L0 3.7l1.2.5z"/><path fill="#661502" d="m0 3.9 4-.1.5.5H1.2z"/><path fill="none" stroke="#5c1301" stroke-linecap="round" stroke-linejoin="round" stroke-width="__RESOLUTION__" d="M4.5 4.3q.8.7.7 1.5l-3.6 1-1-.4L0 3.7h4m-2.8.5L0 3.9" vector-effect="non-scaling-stroke"/></g><g id="d"><path fill="none" stroke="#1f1f1f" stroke-linecap="round" stroke-linejoin="round" stroke-opacity=".3" stroke-width="__RESOLUTION__" d="M5.7 10.7q-.1-.1.7-1.5l.5-1.6 1-1.1M3 5.1q-.6.5-.6 1.5l-.1 1.8q-.6.6 0 1.7" vector-effect="non-scaling-stroke"/><path fill="#332207" fill-opacity=".3" d="m6.8 7.6-.4 1.6q-.9 1.4-.8 1.5l-1.3-.1 1-3.3L3 6v-.8l-.1-.4L4.1 6q2.3.2 3.7-.7v1.2z"/><path fill="#bd2703" d="m7 1.2-1 .1q-1.4 1.6-3.4.5l-.9-.5q1.9.1 3.7-1 .8-.1 1.5.8z"/><path fill="#8d1f03" d="M2.6 1.8q2 1 3.4-.5l1-.1 1.5 1.4-.4 2-.1.1q-2.2 1-3.9.4L2.9 2.5z"/><path fill="#a17638" d="M7 1.2V1z"/><path fill="#7d1702" d="M7 1.1Q6.2.2 5.3.3h2.4zm-5.3.2.9.5.3.7-1.2-.3-1-.7z"/><path fill="#661502" d="M2.9 2.5 4.1 5q1.7.7 3.9-.4h.1l.4-2.2L7 1.2V1l.7-.9 1.5 2q.7 1.7-.7 3.1-2.5 1.4-5.2.4l-.4-1.3v-.1l-1.2-2z"/><path fill="#ffcd2b" d="M8 4.7"/><path fill="#ffeeb5" d="M7 1.1"/><path fill="#5e3e14" d="m1.7 2.2 1.2 2v.2-.2.2L0 4.6l.7-3.1z"/><path fill="none" stroke="#4a0d01" stroke-linecap="round" stroke-linejoin="round" stroke-width="__RESOLUTION__" d="M5.4.4q-1.9 1-3.7.9l-1 .2 1 .7 1.2 2v.2l.4 1.3q2.7 1 5.2-.4 1.4-1.4.7-3.1L7.7.1zM4 5q1.7.7 3.9-.4H8l.4-2.2M8 4.6zm-5.1-.3L0 4.6l.7-3.1" vector-effect="non-scaling-stroke"/></g><g id="h"><path fill="none" stroke="#1c1c1c" stroke-linecap="round" stroke-linejoin="round" stroke-opacity=".5" stroke-width="__RESOLUTION__" d="m7.8 0 1.7 1.7q1.1 1.6 1 3.2L10 6.1l-.3 5m-7.1 1.3q.2-1.5-1.5-4.6Q-.4 5 .1 2.5v-.2l1.3-1" vector-effect="non-scaling-stroke"/><path fill="#4a4946" d="m9.3 12.6-.2.3q-1.7 1.3-2.9 1.3-1.4 0-2.6-.5L2.5 13q-.2-.1 0-1.4 1.4.9 3.6.7 1.6-.2 3.1-1.3.5-.5.5-1.3l.2 1.3-.8.3z"/><path fill="#5a5854" d="m9.3 12.6-.2-1.2.8-.3.6.2q.4.1.4 1-.1.7-.6.7l-.6-.2-.4.3z"/><path fill="#ff3" d="M9 11.7q-.7.3-1.4.9-.2.5-.1 1.3l1.4-.8zm.3-.6.2-.1v2.2l-.2.2q-1.2.8-2.5 1.2-.1-.7.1-2v-.3z"/><path fill="#ff3" d="m8.8 12.9-.4.2-.4.2-.2-.2.2-.3.4-.4h.4l.2.1z"/><path fill="#332207" fill-opacity=".3" d="M1.2 8Q-.5 5 0 2.6v-.1l1.3-1.1q1.3 4.3 4.5 6-1.3 3.2-1 5.7l-2.3-.6Q2.8 11 1.1 8"/></g><g id="j"><path fill="#332207" fill-opacity=".3" d="M0 7.7q1-1.4 1.5-4.1.3-2.2 1.4-3.1l2.2.5Q2.9 8 3.9 9.1l-1.2-.3Q1.4 8.5 0 7.7"/><path fill="none" stroke="#1c1c1c" stroke-linecap="round" stroke-linejoin="round" stroke-opacity=".5" stroke-width="__RESOLUTION__" d="M10 0v7.7l-1.9 1-4.3.5-1.1-.3Q1.4 8.5 0 7.7q1-1.4 1.5-4.1.3-2.2 1.4-3.1" vector-effect="non-scaling-stroke"/></g><g id="m"><path fill="none" stroke="#1f1f1f" stroke-linecap="round" stroke-linejoin="round" stroke-opacity=".3" stroke-width="__RESOLUTION__" d="M5.2 9.6q.8-.9.5-1.6-.2-.3 0-1.5.2-.9-.2-1.4M2 9.4l-.4-1.5-.1-1.5L1 6q-.7-.5-1-.4" vector-effect="non-scaling-stroke"/><path fill="#661502" d="M3.9 5q.6.4 3.6-1l-1-2.8h.1Q6 .2 5.2.3L6.7.2Q8.3 4.4 8 4.5q-3.6 1.8-5 1l-.2-1.3V4L2 1.9l1 .4z"/><path fill="#8d1f03" d="m6.6 1.2.9 2.9q-3 1.3-3.6.9L3 2.3l-.3-.8q1.7 1.2 2.9-.2z"/><path fill="#7d1702" d="m3 2.3-1-.4-.8-.8.9-.1.7.5z"/><path fill="#5e3e14" d="M2.9 4v.2z"/><path fill="#bd2703" d="M5.2.3q.8-.1 1.4.9l-1 .1q-1.1 1.4-2.8.2L2.1 1Q3.7 1 5.2.3"/><path fill="#ffeeb5" d="M6.6 1.2"/><path fill="none" stroke="#4a0d01" stroke-linecap="round" stroke-linejoin="round" stroke-width="__RESOLUTION__" d="m6.6 1.2.9 2.9q-3 1.3-3.6.9M2 1.9 2.8 4v.2h0m0 0L3 5.5q1.4.8 5-1 .2-.1-1.4-4.3L5.2.3q-1.5.9-3.1.7l-.9.1.9.7" vector-effect="non-scaling-stroke"/></g><g id="n"><path fill="#661502" d="m6.2 7.4-2.6.5-.6-.6 2.5-.5z"/><path fill="#8d1f03" d="m3.6 7.9 2.6-.5L6 9.6l-2.4-.2z"/><path fill="none" stroke="#5c1301" stroke-linecap="round" stroke-linejoin="round" stroke-width="__RESOLUTION__" d="m6.2 7.4-.7-.6-2.5.5m.6 2.1 2.4.3.2-2.3" vector-effect="non-scaling-stroke"/><path fill="#661502" d="m2.3 5.3 3-1.7.9.2-3 1.7z"/><path fill="#8d1f03" d="M6.2 3.9 6.4 6l-3 .9-.2-1.4z"/><path fill="none" stroke="#5c1301" stroke-linecap="round" stroke-linejoin="round" stroke-width="__RESOLUTION__" d="m2.3 5.3 3-1.7.9.2.2 2.3-3 .9" vector-effect="non-scaling-stroke"/><path fill="#661502" d="M1 3.4 2.6 0 4 .2 1.9 3.7z"/><path fill="#8d1f03" d="m4 .2 1 2-2.5 2.6-.6-1.1z"/><path fill="none" stroke="#5c1301" stroke-linecap="round" stroke-linejoin="round" stroke-width="__RESOLUTION__" d="M1 3.4 2.6 0 4 .2l1 2-2.5 2.6" vector-effect="non-scaling-stroke"/><path fill="#bd2703" d="m1 7.9.3.6.5.7H2l.4-.1q.6-.2 1.1-.6 0-3-1.3-5.3l-.8-.4H.9l-.5.6L0 3q.1-.6.7-.8l.5-.1 1.2.3q1.8 3.4 1.8 6.4-.7 1-1.7 1.2H2L1 8.8z"/><path fill="#661502" d="m.4 3.4.6-.5h.3l.8.3q1.4 2.3 1.3 5.3-.5.5-1.1.6h-.4v.1l-.6-.6-.2-.7Q.4 5.7.4 3.4"/></g><g id="ap" transform="translate(5.7 3.55)"><use xlink:href="#a" width="4.6" height="7.9" transform="translate(-1.65 -2.4)"/><use xlink:href="#b" width="8.1" height="10" transform="translate(-5.7 -3.55)"/></g><g id="am" transform="translate(5.7 3.45)"><use xlink:href="#c" width="5.9" height="8.8" transform="translate(-3.7 -1.5)"/><use xlink:href="#d" width="9.4" height="10.7" transform="translate(-5.7 -3.45)"/></g><g id="ak" transform="translate(5.95 13.15)"><use xlink:href="#e" width="6.4" height="3.3" transform="translate(-4.6 -13.15)"/><use xlink:href="#f" width="10.6" height="13.2" transform="translate(-5.95 -13)"/><use xlink:href="#g" width="5.5" height="9.3" transform="translate(-1.6 -9.4)"/><use xlink:href="#h" width="10.8" height="14.6" transform="translate(-5.95 -12.95)"/></g><g id="aj" transform="translate(5.55 .4)"><use xlink:href="#i" width="10.1" height="9.3" transform="translate(-5.55 -.4)"/><use xlink:href="#j" width="10.1" height="9.3" transform="translate(-5.55 -.4)"/><use xlink:href="#k" width="2.2" height="6.3" transform="translate(1.15 1.55)"/></g><g id="ag" transform="translate(3.8 4.1)"><use xlink:href="#l" width="5.8" height="7.3" transform="translate(-3.75 -1.9)"/><use xlink:href="#m" width="8.1" height="9.6" transform="translate(-3.8 -4.1)"/></g><g id="ae" transform="translate(2.7 4.15)"><use xlink:href="#n" width="6.3" height="10" transform="translate(-1.35 -4.15)"/><use xlink:href="#o" width="4.5" height="7.2" transform="translate(-2.7 -1.85)"/><use xlink:href="#p" width="1.8" height="4.6" transform="translate(-2.7 .75)"/></g><use xlink:href="#q" id="a" width="4.6" height="7.9"/><use xlink:href="#r" id="c" width="5.9" height="8.8"/><use xlink:href="#s" id="g" width="5.5" height="9.3"/><use xlink:href="#J" id="f" width="10.6" height="13.2"/><use xlink:href="#K" id="k" width="2.2" height="6.3"/><use xlink:href="#L" id="i" width="10.1" height="9.3"/><use xlink:href="#M" id="l" width="5.8" height="7.3"/><use xlink:href="#N" id="o" width="4.5" height="7.2"/><use xlink:href="#O" id="aJ" width="6" height="5.5"/><use xlink:href="#P" id="ao" width="4.2" height="6.7"/><use xlink:href="#Q" id="an" width="2.3" height="19.3"/><use xlink:href="#R" id="al" width="13.5" height="16.3"/><use xlink:href="#S" id="ai" width="5.5" height="10.7"/><use xlink:href="#T" id="ah" width="5.1" height="10.4"/><use xlink:href="#U" id="af" width="4.8" height="5.5"/><use xlink:href="#V" id="ad" width="4.1" height="4.3"/><use xlink:href="#W" id="ac" width="4.5" height="8.4"/><use xlink:href="#X" id="ab" width="6" height="3.9"/><use xlink:href="#Y" id="aa" width="14.7" height="4.3"/><path id="q" fill="#2d212e" d="m2.3-.9-.7 4.3-.6.2-1.5.4q-1-1.1-1.2-3.2l-.5-3.1q-.2-.7.3-1.6h4z" transform="translate(2.3 3.95)"/><path id="r" fill="#2d212e" d="M-2-1.1q-.2-2.4 1.1-3.2 1.5-.2 2.8 1Q3-2 2.8.2l-1 1.1-.4 1.6Q.6 4.3.8 4.4L-2.6 4q-.6-1.2-.1-1.8.2-.3.2-1.8-.1-1 .5-1.5" transform="translate(2.95 4.35)"/><path id="s" fill="#7d1702" d="M2.8-1.4 1.6-.2v3.9L0 4.6V.5l-2.7.5V-.8l2.5-1.4L-.4-4l1.5-.7.3 2L2.7-3z" transform="translate(2.75 4.65)"/><path id="J" fill="#2d212e" d="M5.3-1.7 4.8-.4l-.3 5.1Q2.6 6.8-.3 6.5l-2.3-.6q.2-1.4-1.5-4.5-1.5-2.8-1-5.3v-.2l1.2-1L-1.2-4q1.8.7 3 .3 1-.4.5-3h.2L4.3-5q1 1.6 1 3.2" transform="translate(5.25 6.6)"/><path id="K" fill="#7d1702" d="m1 2.2-2.1 1 .5-5.4 1.7-1z" transform="translate(1.1 3.15)"/><path id="L" fill="#2d212e" d="M4.9-4.6 5 3 3.1 4.1q-2.3.8-4.3.5l-1.1-.3Q-3.6 3.9-5 3q1-1.5 1.4-4 .4-2.3 1.5-3.2l2.2.5q3 .4 4.8-1" transform="translate(5.05 4.65)"/><path id="N" fill="#2d212e" d="M1.4-2.7 2 0q.5 1.7.1 3.2L.5 3l-1 .6q-.1-1.2-.9-2.2L-2.2-1 .6-3.6q.6.3.7.9" transform="translate(2.25 3.6)"/><path id="Q" fill="none" stroke="#fff" stroke-linecap="round" stroke-linejoin="round" stroke-width="__RESOLUTION__" d="m1.2 0 1.1 1.9M1.2 19.3V0L0 1.9" vector-effect="non-scaling-stroke"/><path id="Y" fill="#382c16" d="M5.8-1.9Q7.9-1.4 8-.5 8 .3 5.9 1 3.8 1.8.7 2l-5.2-.4Q-6.7 1.2-6.7.3q-.1-.8 2-1.6 2.2-.8 5.2-.9z" transform="translate(6.75 2.25)"/><path id="e" fill="#dbbb85" d="M1.1-10q-1.2.4-3-.3l-2.7-1.2q2.8-2.2 6.2-1.5.6 2.6-.5 3" transform="translate(4.6 13.15)"/><path id="p" fill="none" stroke="#1c1c1c" stroke-linecap="round" stroke-linejoin="round" stroke-opacity=".5" stroke-width="__RESOLUTION__" d="m-2.7.8.9 2.3q.8 1 .9 2.3" transform="translate(2.7 -.75)" vector-effect="non-scaling-stroke"/></defs><g clip-path="url(#Z)"><g transform="translate(20.6 46.8)"><use xlink:href="#aa" width="14.7" height="4.3" transform="matrix(.8 0 0 .8 -5.4 -1.8)"/><use xlink:href="#ab" width="6" height="3.9" transform="translate(.2 -2.8)"/><use xlink:href="#ac" width="4.5" height="8.4" transform="rotate(14.815 43.998 1.515)scale(.9992)"/><use xlink:href="#ad" width="4.1" height="4.3" transform="matrix(1 0 -.2717 1 -7.85 -2.7)"/><use xlink:href="#ac" width="4.5" height="8.4" transform="rotate(16.275 33.767 -22.135)scale(.9991)"/><use xlink:href="#ae" width="7.7" height="10" transform="matrix(.9344 -.4147 .479 .8438 3.7 -26.45)"/><use xlink:href="#af" width="4.8" height="5.5" transform="rotate(-34.1 -26.363 -23.96)scale(.9985)"/><use xlink:href="#ag" width="8.1" height="9.6" transform="matrix(.9275 -.3708 .4029 .9139 .55 -30.5)"/><use xlink:href="#ah" width="5.1" height="10.4" transform="matrix(.9705 -.238 .238 .9705 .6 -17.85)"/><use xlink:href="#ai" width="5.5" height="10.7" transform="rotate(7.5 136.92 -32.34)scale(.999)"/><use xlink:href="#aj" width="10.1" height="9.3" transform="matrix(1.0001 -.0681 -.0046 1 -3.9 -19.7)"/><use xlink:href="#ak" width="10.8" height="14.8" transform="matrix(.9972 .2221 -.0127 .9994 -3.25 -32.95)"/><use xlink:href="#al" width="13.5" height="16.3" transform="translate(-3.55 -45.8)"/><use xlink:href="#am" width="9.4" height="10.7" transform="rotate(4.262 447.914 -112.876)scale(.9998)"/><use xlink:href="#an" width="2.3" height="19.3" transform="matrix(-.8873 .4583 -.4084 -.7908 8.25 -6.5)"/><use xlink:href="#ao" width="4.2" height="6.7" transform="matrix(.9075 -.2245 .2147 1.0424 -1.25 -20.2)"/><use xlink:href="#ap" width="8.7" height="10" transform="matrix(.7728 -.5706 .6249 .7839 -9.4 -21.1)"/></g></g><g clip-path="url(#aq)"><g transform="translate(78.6 46.8)"><use xlink:href="#aa" width="14.7" height="4.3" transform="matrix(.8 0 0 .8 -5.4 -1.8)"/><use xlink:href="#ab" width="6" height="3.9" transform="matrix(.9893 .1349 -.1311 .9914 .95 -3.3)"/><use xlink:href="#ac" width="4.5" height="8.4" transform="matrix(.9653 .2547 -.2642 .9497 2.65 -11.2)"/><use xlink:href="#ad" width="4.1" height="4.3" transform="matrix(1 0 -.2717 1 -7.85 -2.7)"/><use xlink:href="#ac" width="4.5" height="8.4" transform="rotate(16.275 33.767 -22.135)scale(.9991)"/><use xlink:href="#ae" width="7.7" height="10" transform="matrix(.8799 -.4947 .5452 .8127 3.95 -26.25)"/><use xlink:href="#af" width="4.8" height="5.5" transform="rotate(-36.342 -24.676 -24.046)scale(.9968)"/><use xlink:href="#ag" width="8.1" height="9.6" transform="matrix(.8842 -.4611 .4917 .8674 .3 -29.75)"/><use xlink:href="#ah" width="5.1" height="10.4" transform="rotate(-19.822 -48.44 -10.528)scale(.998)"/><use xlink:href="#ai" width="5.5" height="10.7" transform="rotate(7.5 136.92 -32.34)scale(.999)"/><use xlink:href="#aj" width="10.1" height="9.3" transform="matrix(1.0026 -.0308 -.0044 1 -3.9 -19.75)"/><use xlink:href="#ak" width="10.8" height="14.8" transform="matrix(.9966 .2214 -.0097 .9994 -3.2 -32.65)"/><use xlink:href="#al" width="13.5" height="16.3" transform="translate(-3.3 -45.4)"/><use xlink:href="#am" width="9.4" height="10.7" transform="matrix(.9967 .0742 -.0302 .9862 -7.3 -33.85)"/><use xlink:href="#an" width="2.3" height="19.3" transform="matrix(-.9208 .3829 -.3412 -.8206 8.35 -7.8)"/><use xlink:href="#ao" width="4.2" height="6.7" transform="matrix(.8558 -.3691 .3738 .9712 -.7 -21.1)"/><use xlink:href="#ap" width="8.7" height="10" transform="matrix(.622 -.739 .7838 .62 -8.6 -20.15)"/></g></g><g clip-path="url(#ar)"><g transform="translate(136.6 46.8)"><use xlink:href="#aa" width="14.7" height="4.3" transform="matrix(.8 0 0 .8 -5.4 -1.8)"/><use xlink:href="#ab" width="6" height="3.9" transform="matrix(.9604 .2671 -.26 .9657 1.75 -3.8)"/><use xlink:href="#ac" width="4.5" height="8.4" transform="matrix(.9653 .2547 -.2733 .934 3.45 -11.15)"/><use xlink:href="#ad" width="4.1" height="4.3" transform="matrix(1 0 -.2717 1 -7.85 -2.7)"/><use xlink:href="#ac" width="4.5" height="8.4" transform="rotate(16.275 33.767 -22.135)scale(.9991)"/><use xlink:href="#ae" width="7.7" height="10" transform="matrix(.8187 -.5704 .6129 .7753 4.25 -26)"/><use xlink:href="#af" width="4.8" height="5.5" transform="rotate(-38.596 -23.055 -24.344)scale(.9966)"/><use xlink:href="#ag" width="8.1" height="9.6" transform="matrix(.8349 -.5445 .5733 .8152 .35 -29)"/><use xlink:href="#ah" width="5.1" height="10.4" transform="rotate(-26.064 -34.57 -9.936)scale(.9973)"/><use xlink:href="#ai" width="5.5" height="10.7" transform="rotate(7.5 136.92 -32.34)scale(.999)"/><use xlink:href="#aj" width="10.1" height="9.3" transform="matrix(1.0038 .0048 -.0044 .9999 -3.85 -19.7)"/><use xlink:href="#ak" width="10.8" height="14.8" transform="matrix(.9966 .2214 -.0097 .9994 -3.15 -32.4)"/><use xlink:href="#al" width="13.5" height="16.3" transform="translate(-3.05 -44.95)"/><use xlink:href="#am" width="9.4" height="10.7" transform="matrix(.9967 .0741 .0096 .9738 -7.45 -33.95)"/><use xlink:href="#an" width="2.3" height="19.3" transform="matrix(-.9482 .3089 -.2753 -.845 8.55 -9.25)"/><use xlink:href="#ao" width="4.2" height="6.7" transform="matrix(.7794 -.5074 .5177 .8764 -.1 -22.1)"/><use xlink:href="#ap" width="8.7" height="10" transform="matrix(.4348 -.8704 .9025 .4263 -7.55 -19.25)"/></g></g><g clip-path="url(#as)"><g transform="translate(194.6 46.8)"><use xlink:href="#aa" width="14.7" height="4.3" transform="matrix(.8 0 0 .8 -5.4 -1.8)"/><use xlink:href="#ab" width="6" height="3.9" transform="matrix(.914 .3941 -.3876 .9221 2.55 -4.3)"/><use xlink:href="#ac" width="4.5" height="8.4" transform="matrix(.9653 .2547 -.2821 .9182 4.35 -11.25)"/><use xlink:href="#ad" width="4.1" height="4.3" transform="matrix(1 0 -.2717 1 -7.85 -2.7)"/><use xlink:href="#ac" width="4.5" height="8.4" transform="rotate(16.275 33.767 -22.135)scale(.9991)"/><use xlink:href="#ae" width="7.7" height="10" transform="matrix(.7512 -.639 .6758 .7344 4.55 -25.65)"/><use xlink:href="#af" width="4.8" height="5.5" transform="rotate(-40.849 -21.706 -24.442)scale(.9964)"/><use xlink:href="#ag" width="8.1" height="9.6" transform="matrix(.7758 -.6253 .652 .7533 .25 -28.25)"/><use xlink:href="#ah" width="5.1" height="10.4" transform="rotate(-32.312 -26.03 -9.599)scale(.9968)"/><use xlink:href="#ai" width="5.5" height="10.7" transform="rotate(7.5 136.92 -32.34)scale(.999)"/><use xlink:href="#aj" width="10.1" height="9.3" transform="matrix(1.0037 .0403 -.0044 .9999 -3.85 -19.6)"/><use xlink:href="#ak" width="10.8" height="14.8" transform="matrix(.9966 .2214 -.0097 .9994 -3.05 -32.1)"/><use xlink:href="#al" width="13.5" height="16.3" transform="translate(-2.75 -44.55)"/><use xlink:href="#am" width="9.4" height="10.7" transform="matrix(.9967 .0741 .0545 .9592 -7.6 -34.2)"/><use xlink:href="#an" width="2.3" height="19.3" transform="matrix(-.9704 .2297 -.2048 -.8648 8.7 -10.7)"/><use xlink:href="#ao" width="4.2" height="6.7" transform="matrix(.683 -.6283 .6409 .7614 .45 -23.1)"/><use xlink:href="#ap" width="8.7" height="10" transform="matrix(.2207 -.9552 .9752 .2081 -6 -18.55)"/></g></g><g clip-path="url(#at)"><g transform="translate(252.6 46.8)"><use xlink:href="#aa" width="14.7" height="4.3" transform="matrix(.8 0 0 .8 -5.4 -1.8)"/><use xlink:href="#ab" width="6" height="3.9" transform="matrix(.851 .5135 -.5055 .8633 3.35 -4.8)"/><use xlink:href="#ac" width="4.5" height="8.4" transform="matrix(.9653 .2547 -.2934 .9014 5.1 -11.3)"/><use xlink:href="#ad" width="4.1" height="4.3" transform="matrix(1 0 -.2691 .9998 -8.4 -3.15)"/><use xlink:href="#ac" width="4.5" height="8.4" transform="matrix(.9409 .3342 -.3525 .9277 -4.9 -10.65)"/><use xlink:href="#ae" width="7.7" height="10" transform="matrix(.6783 -.7001 .7361 .6885 4.85 -25.4)"/><use xlink:href="#af" width="4.8" height="5.5" transform="rotate(-43.109 -20.21 -24.592)scale(.9962)"/><use xlink:href="#ag" width="8.1" height="9.6" transform="matrix(.7089 -.6998 .7241 .6839 .2 -27.4)"/><use xlink:href="#ah" width="5.1" height="10.4" transform="rotate(-38.373 -20.257 -9.143)scale(.9963)"/><use xlink:href="#ai" width="5.5" height="10.7" transform="matrix(.99 .1304 -.1616 .987 -2.85 -18.05)"/><use xlink:href="#aj" width="10.1" height="9.3" transform="matrix(1.002 .0792 -.0044 1 -3.8 -19.6)"/><use xlink:href="#ak" width="10.8" height="14.8" transform="matrix(.9966 .2214 -.0097 .9994 -3 -31.85)"/><use xlink:href="#al" width="13.5" height="16.3" transform="translate(-2.5 -44.1)"/><use xlink:href="#am" width="9.4" height="10.7" transform="matrix(.9967 .0741 .095 .9429 -7.8 -34.35)"/><use xlink:href="#an" width="2.3" height="19.3" transform="matrix(-.9855 .1523 -.1358 -.8783 8.7 -12.25)"/><use xlink:href="#ao" width="4.2" height="6.7" transform="matrix(.5683 -.7316 .741 .6303 1.05 -24.15)"/><use xlink:href="#ap" width="8.7" height="10" transform="matrix(-.0087 -.9878 .9961 -.0139 -4.25 -18.2)"/></g></g><g clip-path="url(#au)"><g transform="translate(310.6 46.8)"><use xlink:href="#aa" width="14.7" height="4.3" transform="matrix(.8 0 0 .8 -5.4 -1.8)"/><use xlink:href="#ab" width="6" height="3.9" transform="matrix(.7722 .6263 -.618 .7892 4.2 -5.25)"/><use xlink:href="#ac" width="4.5" height="8.4" transform="matrix(.966 .2555 -.3026 .8861 5.9 -11.35)"/><use xlink:href="#ad" width="4.1" height="4.3" transform="matrix(1 0 -.2691 .9998 -8.95 -3.6)"/><use xlink:href="#ac" width="4.5" height="8.4" transform="matrix(.9206 .3876 -.4223 .8916 -5 -10.9)"/><use xlink:href="#ae" width="7.7" height="10" transform="matrix(.6007 -.7552 .796 .6367 5.2 -25.1)"/><use xlink:href="#af" width="4.8" height="5.5" transform="rotate(-45.317 -19.058 -24.763)scale(.9977)"/><use xlink:href="#ag" width="8.1" height="9.6" transform="matrix(.6363 -.7682 .7899 .6089 .2 -26.65)"/><use xlink:href="#ah" width="5.1" height="10.4" transform="rotate(-44.634 -15.985 -8.91)scale(.9976)"/><use xlink:href="#ai" width="5.5" height="10.7" transform="matrix(.99 .1304 -.1959 .9824 -2.75 -17.8)"/><use xlink:href="#aj" width="10.1" height="9.3" transform="matrix(.9992 .1171 -.0046 1 -3.8 -19.65)"/><use xlink:href="#ak" width="10.8" height="14.8" transform="matrix(.9972 .2221 -.0127 .9994 -2.85 -31.55)"/><use xlink:href="#al" width="13.5" height="16.3" transform="translate(-2.25 -43.7)"/><use xlink:href="#am" width="9.4" height="10.7" transform="matrix(.997 .0743 .1344 .9254 -7.95 -34.5)"/><use xlink:href="#an" width="2.3" height="19.3" transform="matrix(-.9947 .0742 -.0662 -.8865 8.9 -13.85)"/><use xlink:href="#ao" width="4.2" height="6.7" transform="matrix(.4386 -.8157 .8158 .4904 1.7 -25.2)"/><use xlink:href="#ap" width="8.7" height="10" transform="rotate(255.968 -8.236 -8.177)scale(.9948)"/></g></g><g clip-path="url(#av)"><g transform="translate(368.6 46.8)"><use xlink:href="#aa" width="14.7" height="4.3" transform="matrix(.8 0 0 .8 -5.4 -1.8)"/><use xlink:href="#ab" width="6" height="3.9" transform="translate(3.6 -3)"/><use xlink:href="#ac" width="4.5" height="8.4" transform="matrix(.966 .2555 -.3392 .8764 5.75 -10.45)"/><use xlink:href="#ad" width="4.1" height="4.3" transform="matrix(1 0 -.2717 1 -9.5 -4.05)"/><use xlink:href="#ac" width="4.5" height="8.4" transform="matrix(.8967 .4438 -.4923 .8499 -5.05 -11.15)"/><use xlink:href="#ae" width="7.7" height="10" transform="matrix(.377 -.896 .8783 .5136 7.2 -25.65)"/><use xlink:href="#af" width="4.8" height="5.5" transform="matrix(.4304 -.8907 .9208 .402 13.2 -21.45)"/><use xlink:href="#ag" width="8.1" height="9.6" transform="matrix(.3336 -.9518 .9499 .2639 1.7 -24.55)"/><use xlink:href="#ah" width="5.1" height="10.4" transform="rotate(-44.634 -15.225 -9.025)scale(.9976)"/><use xlink:href="#ai" width="5.5" height="10.7" transform="matrix(.9904 .1304 -.23 .9773 -2.65 -17.65)"/><use xlink:href="#aj" width="10.1" height="9.3" transform="matrix(.9992 .1171 -.0046 1 -3.5 -19.15)"/><use xlink:href="#ak" width="10.8" height="14.8" transform="matrix(-1.0974 .0527 .0505 1.0046 8.2 -30.85)"/><use xlink:href="#al" width="13.5" height="16.3" transform="rotate(9.281 269.263 -13.176)scale(.9995)"/><use xlink:href="#am" width="9.4" height="10.7" transform="matrix(.862 -.5659 .8111 .4033 -8.2 -27.65)"/><use xlink:href="#an" width="2.3" height="19.3" transform="matrix(-.5934 .7997 -.7127 -.5289 23.6 -19.3)"/><use xlink:href="#ao" width="4.2" height="6.7" transform="matrix(.2116 -.8997 .9133 .2614 9.5 -24)"/><use xlink:href="#ap" width="8.7" height="10" transform="matrix(.2162 -.9696 1.0499 .145 1.7 -20.15)"/></g></g><g clip-path="url(#aw)"><g transform="translate(426.6 46.8)"><use xlink:href="#aa" width="14.7" height="4.3" transform="matrix(.8 0 0 .8 -5.4 -1.8)"/><use xlink:href="#ab" width="6" height="3.9" transform="translate(3.6 -3)"/><use xlink:href="#ac" width="4.5" height="8.4" transform="matrix(.9685 .2555 -.3559 .8683 5.9 -10.35)"/><use xlink:href="#ad" width="4.1" height="4.3" transform="matrix(1 0 -.2691 .9998 -9.45 -4.15)"/><use xlink:href="#ac" width="4.5" height="8.4" transform="matrix(.8957 .4428 -.4914 .8488 -5 -11.25)"/><use xlink:href="#ae" width="7.7" height="10" transform="matrix(.3799 -.8934 .8864 .4924 7.35 -25.6)"/><use xlink:href="#af" width="4.8" height="5.5" transform="matrix(.1161 -.9761 1.0128 .0487 14.5 -22.25)"/><use xlink:href="#ag" width="8.1" height="9.6" transform="matrix(.3327 -.9508 .949 .2635 2 -24.4)"/><use xlink:href="#ah" width="5.1" height="10.4" transform="matrix(.6994 -.7084 .7084 .6994 2 -13.2)"/><use xlink:href="#ai" width="5.5" height="10.7" transform="matrix(.9886 .14 -.2395 .9742 -2.65 -17.7)"/><use xlink:href="#aj" width="10.1" height="9.3" transform="matrix(.9991 .1145 -.0262 .9986 -3.4 -19.05)"/><use xlink:href="#ak" width="10.8" height="14.8" transform="matrix(-1.1022 -.0007 .0142 1.0034 8.75 -30.45)"/><use xlink:href="#al" width="13.5" height="16.3" transform="matrix(.9899 .1353 -.1445 .9889 1.35 -43.25)"/><use xlink:href="#am" width="9.4" height="10.7" transform="matrix(.8845 -.4974 .7299 .48 -8 -28.4)"/><use xlink:href="#an" width="2.3" height="19.3" transform="matrix(-.5128 .8517 -.759 -.457 24 -20.55)"/><use xlink:href="#ao" width="4.2" height="6.7" transform="matrix(.1963 -.9025 .9167 .246 8.4 -24.55)"/><use xlink:href="#ap" width="8.7" height="10" transform="matrix(.0783 -.9898 1.0595 -.0005 1.65 -19.7)"/></g></g><g clip-path="url(#ax)"><g transform="translate(484.6 46.8)"><use xlink:href="#aa" width="14.7" height="4.3" transform="matrix(.8 0 0 .8 -5.4 -1.8)"/><use xlink:href="#ab" width="6" height="3.9" transform="translate(3.6 -3)"/><use xlink:href="#ac" width="4.5" height="8.4" transform="matrix(.9717 .2563 -.3713 .8614 6.05 -10.35)"/><use xlink:href="#ad" width="4.1" height="4.3" transform="matrix(1 0 -.2691 .9998 -9.45 -4.25)"/><use xlink:href="#ac" width="4.5" height="8.4" transform="matrix(.8957 .4428 -.4914 .8488 -5 -11.3)"/><use xlink:href="#ae" width="7.7" height="10" transform="matrix(.3806 -.893 .8952 .4719 7.55 -25.45)"/><use xlink:href="#af" width="4.8" height="5.5" transform="matrix(-.2035 -.9547 .9712 -.3193 16 -23.1)"/><use xlink:href="#ag" width="8.1" height="9.6" transform="matrix(.3326 -.9506 .9488 .2635 2.3 -24.3)"/><use xlink:href="#ah" width="5.1" height="10.4" transform="matrix(.69 -.7172 .7172 .69 2.05 -13.1)"/><use xlink:href="#ai" width="5.5" height="10.7" transform="matrix(.9867 .1527 -.2521 .9709 -2.55 -17.6)"/><use xlink:href="#aj" width="10.1" height="9.3" transform="matrix(.999 .1144 -.0479 .9968 -3.25 -19)"/><use xlink:href="#ak" width="10.8" height="14.8" transform="matrix(-1.104 -.0581 -.0137 1.001 9.1 -29.9)"/><use xlink:href="#al" width="13.5" height="16.3" transform="matrix(.9931 .1098 -.1313 .9911 1.35 -42.9)"/><use xlink:href="#am" width="9.4" height="10.7" transform="matrix(.9021 -.4318 .6442 .5432 -7.9 -29.15)"/><use xlink:href="#an" width="2.3" height="19.3" transform="matrix(-.4254 .8984 -.8007 -.3791 24.3 -21.85)"/><use xlink:href="#ao" width="4.2" height="6.7" transform="matrix(.1808 -.9057 .9207 .2302 7.3 -25)"/><use xlink:href="#ap" width="8.7" height="10" transform="matrix(-.0569 -.991 1.0483 -.1479 1.6 -19.3)"/></g></g><g clip-path="url(#ay)"><g transform="translate(542.6 46.8)"><use xlink:href="#aa" width="14.7" height="4.3" transform="matrix(.8 0 0 .8 -5.4 -1.8)"/><use xlink:href="#ab" width="6" height="3.9" transform="translate(3.6 -3)"/><use xlink:href="#ac" width="4.5" height="8.4" transform="matrix(.9749 .2571 -.3895 .853 6.35 -10.3)"/><use xlink:href="#ad" width="4.1" height="4.3" transform="matrix(1 0 -.2691 .9998 -9.5 -4.35)"/><use xlink:href="#ac" width="4.5" height="8.4" transform="matrix(.8957 .4428 -.4914 .8488 -5 -11.35)"/><use xlink:href="#ae" width="7.7" height="10" transform="matrix(.3844 -.8913 .905 .4483 7.75 -25.4)"/><use xlink:href="#af" width="4.8" height="5.5" transform="matrix(-.1832 -.9609 .9769 -.2856 16 -22.55)"/><use xlink:href="#ag" width="8.1" height="9.6" transform="matrix(.3325 -.9504 .9487 .2634 2.6 -24.2)"/><use xlink:href="#ah" width="5.1" height="10.4" transform="rotate(-46.658 -14.105 -8.902)scale(.9948)"/><use xlink:href="#ai" width="5.5" height="10.7" transform="matrix(.9846 .1655 -.2646 .9675 -2.55 -17.55)"/><use xlink:href="#aj" width="10.1" height="9.3" transform="matrix(.999 .1143 -.0696 .9945 -3.1 -18.9)"/><use xlink:href="#ak" width="10.8" height="14.8" transform="matrix(-1.1032 -.1121 -.0479 .9975 9.65 -29.4)"/><use xlink:href="#al" width="13.5" height="16.3" transform="matrix(.9955 .0874 -.1182 .9932 1.4 -42.4)"/><use xlink:href="#am" width="9.4" height="10.7" transform="matrix(.9149 -.366 .5522 .595 -7.6 -29.75)"/><use xlink:href="#an" width="2.3" height="19.3" transform="matrix(-.3368 .9352 -.8334 -.3002 24.6 -23.2)"/><use xlink:href="#ao" width="4.2" height="6.7" transform="matrix(.1652 -.9087 .9245 .2144 6.2 -25.45)"/><use xlink:href="#ap" width="8.7" height="10" transform="matrix(-.1941 -.9728 1.0168 -.2923 1.65 -19)"/></g></g><g clip-path="url(#az)"><g transform="translate(600.6 46.8)"><use xlink:href="#aa" width="14.7" height="4.3" transform="matrix(.8 0 0 .8 -5.4 -1.8)"/><use xlink:href="#ab" width="6" height="3.9" transform="translate(3.6 -3)"/><use xlink:href="#ac" width="4.5" height="8.4" transform="matrix(.9781 .2579 -.4047 .8455 6.5 -10.2)"/><use xlink:href="#ad" width="4.1" height="4.3" transform="matrix(1 0 -.2691 .9998 -9.5 -4.45)"/><use xlink:href="#ac" width="4.5" height="8.4" transform="matrix(.8957 .4428 -.4914 .8488 -5.05 -11.4)"/><use xlink:href="#ae" width="7.7" height="10" transform="matrix(.388 -.8896 .9129 .4274 7.95 -25.2)"/><use xlink:href="#af" width="4.8" height="5.5" transform="matrix(-.1663 -.9668 .9817 -.2544 15.95 -21.95)"/><use xlink:href="#ag" width="8.1" height="9.6" transform="matrix(.3324 -.9502 .9485 .2634 2.9 -24.1)"/><use xlink:href="#ah" width="5.1" height="10.4" transform="rotate(-47.4 -13.593 -8.956)scale(.9944)"/><use xlink:href="#ai" width="5.5" height="10.7" transform="matrix(.9822 .1782 -.2771 .964 -2.5 -17.55)"/><use xlink:href="#aj" width="10.1" height="9.3" transform="matrix(.9989 .1142 -.0912 .9917 -3 -18.85)"/><use xlink:href="#ak" width="10.8" height="14.8" transform="matrix(-1.0992 -.1698 -.0788 .9931 10.05 -28.95)"/><use xlink:href="#al" width="13.5" height="16.3" transform="matrix(.9976 .0618 -.1049 .9951 1.4 -42.05)"/><use xlink:href="#am" width="9.4" height="10.7" transform="matrix(.923 -.3005 .4576 .6329 -7.4 -30.35)"/><use xlink:href="#an" width="2.3" height="19.3" transform="rotate(104.28 21.842 -2.714)scale(.994 .8858)"/><use xlink:href="#ao" width="4.2" height="6.7" transform="matrix(.1495 -.9115 .9281 .1984 5 -25.9)"/><use xlink:href="#ap" width="8.7" height="10" transform="matrix(-.3275 -.9356 .9655 -.4309 1.8 -18.95)"/></g></g><g clip-path="url(#aA)"><g transform="translate(658.6 46.8)"><use xlink:href="#aa" width="14.7" height="4.3" transform="matrix(.8 0 0 .8 -5.4 -1.8)"/><use xlink:href="#ab" width="6" height="3.9" transform="translate(3.6 -3)"/><use xlink:href="#ac" width="4.5" height="8.4" transform="matrix(.982 .2592 -.423 .8374 6.7 -10.1)"/><use xlink:href="#ad" width="4.1" height="4.3" transform="matrix(1 0 -.2691 .9998 -9.5 -4.55)"/><use xlink:href="#ac" width="4.5" height="8.4" transform="matrix(.8957 .4428 -.4914 .8488 -5.05 -11.45)"/><use xlink:href="#ae" width="7.7" height="10" transform="matrix(.3929 -.8886 .9206 .4087 8.05 -25.15)"/><use xlink:href="#af" width="4.8" height="5.5" transform="matrix(-.1461 -.9729 .9856 -.2232 15.85 -21.35)"/><use xlink:href="#ag" width="8.1" height="9.6" transform="matrix(.3328 -.951 .9492 .2636 3.15 -23.9)"/><use xlink:href="#ah" width="5.1" height="10.4" transform="rotate(-48.155 -13.248 -8.806)scale(.9958)"/><use xlink:href="#ai" width="5.5" height="10.7" transform="matrix(.9798 .1908 -.2895 .9602 -2.45 -17.5)"/><use xlink:href="#aj" width="10.1" height="9.3" transform="matrix(.9991 .1147 -.113 .9889 -2.85 -18.85)"/><use xlink:href="#ak" width="10.8" height="14.8" transform="matrix(-1.093 -.2275 -.1128 .9877 10.5 -28.45)"/><use xlink:href="#al" width="13.5" height="16.3" transform="matrix(.9989 .0396 -.092 .9972 1.5 -41.6)"/><use xlink:href="#am" width="9.4" height="10.7" transform="matrix(.9272 -.2357 .3649 .6567 -7.15 -30.95)"/><use xlink:href="#an" width="2.3" height="19.3" transform="matrix(-.1514 .9829 -.8759 -.1349 24.7 -25.9)"/><use xlink:href="#ao" width="4.2" height="6.7" transform="matrix(.1375 -.9138 .9312 .1862 4 -26.45)"/><use xlink:href="#ap" width="8.7" height="10" transform="matrix(-.4552 -.8814 .8968 -.5618 1.85 -18.9)"/></g></g><g clip-path="url(#aB)"><g transform="translate(716.6 46.8)"><use xlink:href="#aa" width="14.7" height="4.3" transform="matrix(.8 0 0 .8 -5.4 -1.8)"/><use xlink:href="#ab" width="6" height="3.9" transform="translate(3.6 -3)"/><use xlink:href="#ac" width="4.5" height="8.4" transform="matrix(.9822 .259 -.4263 .8346 6.8 -10.15)"/><use xlink:href="#ad" width="4.1" height="4.3" transform="matrix(1 0 -.2691 .9998 -9.5 -4.65)"/><use xlink:href="#ac" width="4.5" height="8.4" transform="matrix(.8957 .4428 -.4914 .8488 -5.05 -11.5)"/><use xlink:href="#ae" width="7.7" height="10" transform="matrix(.3725 -.8978 .9196 .4101 8.2 -24.95)"/><use xlink:href="#af" width="4.8" height="5.5" transform="matrix(-.1289 -.9781 .9891 -.1888 15.85 -20.8)"/><use xlink:href="#ag" width="8.1" height="9.6" transform="matrix(.3314 -.9463 .9436 .3024 3.2 -24.05)"/><use xlink:href="#ah" width="5.1" height="10.4" transform="rotate(-48.376 -13.093 -8.824)scale(.9944)"/><use xlink:href="#ai" width="5.5" height="10.7" transform="matrix(.9771 .2035 -.3019 .9563 -2.5 -17.5)"/><use xlink:href="#aj" width="10.1" height="9.3" transform="matrix(.9989 .1142 -.1173 .9878 -2.8 -18.9)"/><use xlink:href="#ak" width="10.8" height="14.8" transform="matrix(-1.0909 -.2381 -.1177 .9862 10.6 -28.45)"/><use xlink:href="#al" width="13.5" height="16.3" transform="matrix(.9992 .0314 -.0877 .9974 1.5 -41.45)"/><use xlink:href="#am" width="9.4" height="10.7" transform="matrix(.9271 -.2189 .3412 .6602 -7.1 -31.1)"/><use xlink:href="#an" width="2.3" height="19.3" transform="matrix(-.16 .9809 -.8742 -.1426 24.45 -25.8)"/><use xlink:href="#ao" width="4.2" height="6.7" transform="matrix(.1331 -.9141 .9315 .1817 3.75 -26.5)"/><use xlink:href="#ap" width="8.7" height="10" transform="matrix(-.4818 -.8657 .8776 -.5888 1.95 -18.9)"/></g></g><g clip-path="url(#aC)"><g transform="translate(774.6 46.8)"><use xlink:href="#aa" width="14.7" height="4.3" transform="matrix(.8 0 0 .8 -5.4 -1.8)"/><use xlink:href="#ab" width="6" height="3.9" transform="translate(3.6 -3)"/><use xlink:href="#ac" width="4.5" height="8.4" transform="matrix(.9831 .2593 -.4301 .8328 6.85 -10.1)"/><use xlink:href="#ad" width="4.1" height="4.3" transform="matrix(1 0 -.2691 .9998 -9.55 -4.75)"/><use xlink:href="#ac" width="4.5" height="8.4" transform="matrix(.8957 .4428 -.4914 .8488 -5.05 -11.6)"/><use xlink:href="#ae" width="7.7" height="10" transform="matrix(.3499 -.9086 .9203 .4108 8.25 -24.6)"/><use xlink:href="#af" width="4.8" height="5.5" transform="matrix(-.1084 -.9834 .9909 -.1576 15.8 -20.25)"/><use xlink:href="#ag" width="8.1" height="9.6" transform="matrix(.3305 -.9425 .9383 .3383 3.4 -24.1)"/><use xlink:href="#ah" width="5.1" height="10.4" transform="rotate(-48.608 -13.017 -8.81)scale(.9945)"/><use xlink:href="#ai" width="5.5" height="10.7" transform="matrix(.9751 .2129 -.3111 .9533 -2.5 -17.4)"/><use xlink:href="#aj" width="10.1" height="9.3" transform="matrix(.9989 .1142 -.1218 .9871 -2.8 -18.85)"/><use xlink:href="#ak" width="10.8" height="14.8" transform="matrix(-1.0887 -.2522 -.1261 .9846 10.7 -28.25)"/><use xlink:href="#al" width="13.5" height="16.3" transform="matrix(.9994 .0267 -.0837 .9979 1.45 -41.4)"/><use xlink:href="#am" width="9.4" height="10.7" transform="matrix(.9275 -.2024 .3203 .6628 -7.1 -31.2)"/><use xlink:href="#an" width="2.3" height="19.3" transform="matrix(-.1688 .9794 -.8729 -.1504 24.2 -25.75)"/><use xlink:href="#ao" width="4.2" height="6.7" transform="matrix(.1293 -.9147 .9324 .1779 3.5 -26.7)"/><use xlink:href="#ap" width="8.7" height="10" transform="matrix(-.5116 -.8487 .8569 -.6189 1.95 -18.9)"/></g></g><g clip-path="url(#aD)"><g transform="translate(832.6 46.8)"><use xlink:href="#aa" width="14.7" height="4.3" transform="matrix(.8 0 0 .8 -5.4 -1.8)"/><use xlink:href="#ab" width="6" height="3.9" transform="translate(3.6 -3)"/><use xlink:href="#ac" width="4.5" height="8.4" transform="matrix(.984 .2596 -.4338 .831 6.85 -10.15)"/><use xlink:href="#ad" width="4.1" height="4.3" transform="matrix(1 0 -.2691 .9998 -9.55 -4.85)"/><use xlink:href="#ac" width="4.5" height="8.4" transform="matrix(.8957 .4428 -.4914 .8488 -5.05 -11.65)"/><use xlink:href="#ae" width="7.7" height="10" transform="matrix(.3301 -.9176 .921 .4115 8.3 -24.35)"/><use xlink:href="#af" width="4.8" height="5.5" transform="matrix(-.091 -.9883 .9921 -.1272 15.85 -19.65)"/><use xlink:href="#ag" width="8.1" height="9.6" transform="matrix(.3326 -.9375 .9304 .3774 3.45 -24.1)"/><use xlink:href="#ah" width="5.1" height="10.4" transform="rotate(-48.652 -12.892 -8.758)scale(.9948)"/><use xlink:href="#ai" width="5.5" height="10.7" transform="matrix(.9722 .2255 -.3234 .9491 -2.4 -17.4)"/><use xlink:href="#aj" width="10.1" height="9.3" transform="matrix(.999 .1143 -.1263 .9864 -2.8 -18.85)"/><use xlink:href="#ak" width="10.8" height="14.8" transform="matrix(-1.0863 -.2665 -.1344 .983 10.8 -28.15)"/><use xlink:href="#al" width="13.5" height="16.3" transform="matrix(.9995 .022 -.0796 .9984 1.45 -41.25)"/><use xlink:href="#am" width="9.4" height="10.7" transform="matrix(.9269 -.1889 .2973 .6656 -7.05 -31.35)"/><use xlink:href="#an" width="2.3" height="19.3" transform="matrix(-.1775 .9778 -.8714 -.1582 24 -25.6)"/><use xlink:href="#ao" width="4.2" height="6.7" transform="matrix(.1256 -.9153 .9332 .174 3.25 -26.8)"/><use xlink:href="#ap" width="8.7" height="10" transform="matrix(-.5407 -.8306 .8351 -.6483 2 -19)"/></g></g><g clip-path="url(#aE)"><g transform="translate(890.6 46.8)"><use xlink:href="#aa" width="14.7" height="4.3" transform="matrix(.8 0 0 .8 -5.4 -1.8)"/><use xlink:href="#ab" width="6" height="3.9" transform="translate(3.6 -3)"/><use xlink:href="#ac" width="4.5" height="8.4" transform="matrix(.9849 .2599 -.4376 .8292 6.9 -10.05)"/><use xlink:href="#ad" width="4.1" height="4.3" transform="matrix(1 0 -.2691 .9998 -9.55 -4.95)"/><use xlink:href="#ac" width="4.5" height="8.4" transform="matrix(.8957 .4428 -.4914 .8488 -5.05 -11.7)"/><use xlink:href="#ae" width="7.7" height="10" transform="matrix(.307 -.9273 .9217 .4121 8.4 -24)"/><use xlink:href="#af" width="4.8" height="5.5" transform="matrix(-.0909 -.9881 .9919 -.1266 15.9 -19.6)"/><use xlink:href="#ag" width="8.1" height="9.6" transform="matrix(.3317 -.9338 .9208 .4164 3.5 -24.15)"/><use xlink:href="#ah" width="5.1" height="10.4" transform="rotate(-48.883 -12.866 -8.635)scale(.995)"/><use xlink:href="#ai" width="5.5" height="10.7" transform="matrix(.9691 .238 -.3356 .9448 -2.35 -17.4)"/><use xlink:href="#aj" width="10.1" height="9.3" transform="matrix(.999 .1145 -.1309 .9856 -2.8 -18.8)"/><use xlink:href="#ak" width="10.8" height="14.8" transform="matrix(-1.0837 -.2806 -.1427 .9813 10.85 -28.1)"/><use xlink:href="#al" width="13.5" height="16.3" transform="matrix(.9997 .0141 -.0788 .9987 1.5 -41.1)"/><use xlink:href="#am" width="9.4" height="10.7" transform="matrix(.9267 -.1724 .2744 .6677 -7 -31.5)"/><use xlink:href="#an" width="2.3" height="19.3" transform="matrix(-.1862 .9761 -.8699 -.166 23.8 -25.65)"/><use xlink:href="#ao" width="4.2" height="6.7" transform="matrix(.1248 -.9155 .9335 .1733 2.95 -26.9)"/><use xlink:href="#ap" width="8.7" height="10" transform="matrix(-.5665 -.8134 .8146 -.6742 2.05 -18.95)"/></g></g><g clip-path="url(#aF)"><g transform="translate(948.6 46.8)"><use xlink:href="#aa" width="14.7" height="4.3" transform="matrix(.8 0 0 .8 -5.4 -1.8)"/><use xlink:href="#ab" width="6" height="3.9" transform="translate(3.6 -3)"/><use xlink:href="#ac" width="4.5" height="8.4" transform="matrix(.9858 .2601 -.4414 .8274 6.95 -10.15)"/><use xlink:href="#ad" width="4.1" height="4.3" transform="matrix(1 0 -.2691 .9998 -9.55 -5.05)"/><use xlink:href="#ac" width="4.5" height="8.4" transform="matrix(.8957 .4428 -.4914 .8488 -5.1 -11.75)"/><use xlink:href="#ae" width="7.7" height="10" transform="matrix(.2868 -.9355 .9211 .4158 8.45 -23.7)"/><use xlink:href="#af" width="4.8" height="5.5" transform="matrix(-.091 -.9882 .9919 -.1268 16 -19.55)"/><use xlink:href="#ag" width="8.1" height="9.6" transform="matrix(.3307 -.93 .9097 .4552 3.7 -24.35)"/><use xlink:href="#ah" width="5.1" height="10.4" transform="rotate(-49.115 -12.687 -8.707)scale(.9952)"/><use xlink:href="#ai" width="5.5" height="10.7" transform="matrix(.9658 .2505 -.3478 .9403 -2.4 -17.3)"/><use xlink:href="#aj" width="10.1" height="9.3" transform="matrix(.9991 .1145 -.1386 .9844 -2.8 -18.8)"/><use xlink:href="#ak" width="10.8" height="14.8" transform="matrix(-1.0819 -.2912 -.151 .9796 11 -27.9)"/><use xlink:href="#al" width="13.5" height="16.3" transform="matrix(.9998 .0094 -.0748 .9991 1.5 -41.05)"/><use xlink:href="#am" width="9.4" height="10.7" transform="matrix(.9262 -.1561 .2538 .6682 -6.85 -31.6)"/><use xlink:href="#an" width="2.3" height="19.3" transform="matrix(-.1949 .9744 -.8684 -.1737 23.55 -25.6)"/><use xlink:href="#ao" width="4.2" height="6.7" transform="matrix(.1211 -.9161 .9343 .1694 2.7 -27.05)"/><use xlink:href="#ap" width="8.7" height="10" transform="matrix(-.5944 -.7935 .7909 -.7021 2 -19.1)"/></g></g><g clip-path="url(#aG)"><g transform="translate(1006.6 46.8)"><use xlink:href="#aa" width="14.7" height="4.3" transform="matrix(.8 0 0 .8 -5.4 -1.8)"/><use xlink:href="#ab" width="6" height="3.9" transform="translate(3.6 -3)"/><use xlink:href="#ac" width="4.5" height="8.4" transform="matrix(.9867 .2604 -.4451 .8255 7 -10.1)"/><use xlink:href="#ad" width="4.1" height="4.3" transform="matrix(1 0 -.2691 .9998 -9.6 -5.15)"/><use xlink:href="#ac" width="4.5" height="8.4" transform="matrix(.8957 .4428 -.4914 .8488 -5.1 -11.8)"/><use xlink:href="#ae" width="7.7" height="10" transform="matrix(.2663 -.9432 .9217 .4165 8.55 -23.45)"/><use xlink:href="#af" width="4.8" height="5.5" transform="matrix(-.091 -.9883 .992 -.127 16.05 -19.5)"/><use xlink:href="#ag" width="8.1" height="9.6" transform="matrix(.3328 -.9251 .8969 .4938 3.85 -24.4)"/><use xlink:href="#ah" width="5.1" height="10.4" transform="matrix(.651 -.7531 .7531 .651 2.2 -12.6)"/><use xlink:href="#ai" width="5.5" height="10.7" transform="matrix(.9624 .263 -.36 .9356 -2.3 -17.25)"/><use xlink:href="#aj" width="10.1" height="9.3" transform="matrix(.9991 .1146 -.1431 .9836 -2.75 -18.8)"/><use xlink:href="#ak" width="10.8" height="14.8" transform="matrix(-1.0789 -.3054 -.1561 .9782 11.1 -27.75)"/><use xlink:href="#al" width="13.5" height="16.3" transform="rotate(.27 8712.693 298.644)skewX(-3.782)"/><use xlink:href="#am" width="9.4" height="10.7" transform="matrix(.925 -.1428 .2313 .6688 -6.85 -31.7)"/><use xlink:href="#an" width="2.3" height="19.3" transform="rotate(102.007 22.019 -3.322)scale(.9936 .8855)"/><use xlink:href="#ao" width="4.2" height="6.7" transform="matrix(.1173 -.9167 .9351 .1656 2.45 -27.25)"/><use xlink:href="#ap" width="8.7" height="10" transform="matrix(-.619 -.7746 .7688 -.7266 2.05 -19.2)"/></g></g><g clip-path="url(#aH)"><g transform="translate(1064.6 46.8)"><use xlink:href="#aa" width="14.7" height="4.3" transform="matrix(.8 0 0 .8 -5.4 -1.8)"/><use xlink:href="#ab" width="6" height="3.9" transform="translate(3.6 -3)"/><use xlink:href="#ac" width="4.5" height="8.4" transform="matrix(.9882 .2619 -.4508 .8241 7 -10.05)"/><use xlink:href="#ad" width="4.1" height="4.3" transform="matrix(1 0 -.2717 1 -9.65 -5.25)"/><use xlink:href="#ac" width="4.5" height="8.4" transform="matrix(.8967 .4438 -.4923 .8499 -5.15 -11.8)"/><use xlink:href="#ae" width="7.7" height="10" transform="matrix(.2444 -.9515 .9227 .4196 8.55 -23.2)"/><use xlink:href="#af" width="4.8" height="5.5" transform="matrix(-.0916 -.9886 .9921 -.1299 16.1 -19.45)"/><use xlink:href="#ag" width="8.1" height="9.6" transform="matrix(.3336 -.9218 .8832 .5337 3.9 -24.45)"/><use xlink:href="#ah" width="5.1" height="10.4" transform="rotate(-49.387 -12.572 -8.613)scale(.9973)"/><use xlink:href="#ai" width="5.5" height="10.7" transform="matrix(.9596 .2759 -.3724 .9319 -2.3 -17.3)"/><use xlink:href="#aj" width="10.1" height="9.3" transform="matrix(.9992 .1171 -.1496 .983 -2.75 -18.8)"/><use xlink:href="#ak" width="10.8" height="14.8" transform="matrix(-1.0765 -.3208 -.1667 .9765 11.3 -27.65)"/><use xlink:href="#al" width="13.5" height="16.3" transform="matrix(1 0 -.0701 1 1.6 -40.8)"/><use xlink:href="#am" width="9.4" height="10.7" transform="matrix(.9241 -.1285 .2117 .6685 -6.7 -31.85)"/><use xlink:href="#an" width="2.3" height="19.3" transform="rotate(102.542 21.78 -3.442)scale(.9942 .886)"/><use xlink:href="#ao" width="4.2" height="6.7" transform="matrix(.116 -.9173 .936 .1642 2.2 -27.3)"/><use xlink:href="#ap" width="8.7" height="10" transform="matrix(-.6469 -.7538 .7449 -.7538 2.1 -19.25)"/></g></g><g clip-path="url(#aI)"><g transform="translate(1122.6 46.8)"><use xlink:href="#aa" width="14.7" height="4.3" transform="matrix(.8 0 0 .8 -5.4 -1.8)"/><use xlink:href="#ab" width="6" height="3.9" transform="translate(3.6 -3)"/><use xlink:href="#ac" width="4.5" height="8.4" transform="matrix(1.0162 -.0885 .1152 .9035 1.6 -10.25)"/><use xlink:href="#ad" width="4.1" height="4.3" transform="matrix(1 0 -.2717 1 -9.65 -5.25)"/><use xlink:href="#ac" width="4.5" height="8.4" transform="matrix(1.0478 .1829 -.2694 .6481 -7.5 -9.75)"/><use xlink:href="#ae" width="7.7" height="10" transform="matrix(-.9553 -.321 .4021 -.8809 3.45 -26.3)"/><use xlink:href="#af" width="4.8" height="5.5" transform="matrix(-.9904 -.0052 -.0179 -.9937 6.75 -35.15)"/><use xlink:href="#ag" width="8.1" height="9.6" transform="matrix(-.4736 -.8874 1.024 -.5284 -3.25 -22.9)"/><use xlink:href="#ah" width="5.1" height="10.4" transform="matrix(1.0433 -.7157 .6996 .7229 -3.8 -14.95)"/><use xlink:href="#ai" width="5.5" height="10.7" transform="matrix(1.0424 -.2897 .1839 1.0655 -8.1 -17.15)"/><use xlink:href="#aj" width="10.1" height="9.3" transform="matrix(1.0087 .0549 .2377 1.004 -8.4 -19.3)"/><use xlink:href="#ak" width="10.8" height="14.8" transform="matrix(-1.1031 .2037 .2954 .9442 .05 -31.6)"/><use xlink:href="#al" width="13.5" height="16.3" transform="matrix(1 0 -.0701 1 -9.45 -43.15)"/><use xlink:href="#am" width="9.4" height="10.7" transform="matrix(.6053 .7081 -.5258 .6306 -10.2 -34.45)"/><use xlink:href="#an" width="2.3" height="19.3" transform="matrix(-.1212 .9865 -.8792 -.108 36.95 -25.8)"/><use xlink:href="#aJ" width="6" height="5.5" transform="matrix(-.2239 -.848 .6614 -.313 -16.4 -26.45)"/><use xlink:href="#ap" width="8.7" height="10" transform="matrix(-.9715 .1942 -.1215 -1.0499 -6.45 -23.2)"/></g></g><g clip-path="url(#aK)"><g transform="translate(1180.6 46.8)"><use xlink:href="#aa" width="14.7" height="4.3" transform="matrix(.8 0 0 .8 -5.4 -1.8)"/><use xlink:href="#ab" width="6" height="3.9" transform="translate(3.6 -3)"/><use xlink:href="#ac" width="4.5" height="8.4" transform="matrix(1.0119 -.1245 .1467 .8984 1.35 -10.1)"/><use xlink:href="#ad" width="4.1" height="4.3" transform="matrix(1 0 -.2691 .9998 -9.65 -5.25)"/><use xlink:href="#ac" width="4.5" height="8.4" transform="matrix(1.0598 .1545 -.261 .6287 -7.4 -9.65)"/><use xlink:href="#ae" width="7.7" height="10" transform="matrix(-.9689 -.2789 .3627 -.8956 3.7 -26.35)"/><use xlink:href="#af" width="4.8" height="5.5" transform="matrix(-.99 .0303 -.0524 -.9919 6.7 -35.35)"/><use xlink:href="#ag" width="8.1" height="9.6" transform="matrix(-.4439 -.9067 1.0035 -.5462 -3.35 -22.75)"/><use xlink:href="#ah" width="5.1" height="10.4" transform="matrix(1.0271 -.7353 .7144 .7059 -4 -14.85)"/><use xlink:href="#ai" width="5.5" height="10.7" transform="matrix(1.0346 -.3125 .2071 1.0604 -8.3 -17)"/><use xlink:href="#aj" width="10.1" height="9.3" transform="matrix(1.0033 .023 .2368 1.0035 -8.45 -19.2)"/><use xlink:href="#ak" width="10.8" height="14.8" transform="matrix(-1.0983 .2244 .3141 .937 -.35 -31.5)"/><use xlink:href="#al" width="13.5" height="16.3" transform="matrix(1 .0047 -.0747 .9994 -9.6 -43.1)"/><use xlink:href="#am" width="9.4" height="10.7" transform="matrix(.6051 .7063 -.5252 .6294 -10.5 -34.35)"/><use xlink:href="#aJ" width="6" height="5.5" transform="matrix(-.2682 -.834 .6418 -.3492 -16.6 -26.3)"/><use xlink:href="#ap" width="8.7" height="10" transform="matrix(-.9623 .2315 -.1613 -1.0439 -6.55 -23.45)"/></g></g><g clip-path="url(#aL)"><g transform="translate(1238.6 46.8)"><use xlink:href="#aa" width="14.7" height="4.3" transform="matrix(.8 0 0 .8 -5.4 -1.8)"/><use xlink:href="#ab" width="6" height="3.9" transform="translate(3.6 -3)"/><use xlink:href="#ac" width="4.5" height="8.4" transform="matrix(1.0067 -.16 .1783 .8924 1.2 -9.85)"/><use xlink:href="#ad" width="4.1" height="4.3" transform="matrix(1 0 -.2691 .9998 -9.65 -5.25)"/><use xlink:href="#ac" width="4.5" height="8.4" transform="matrix(1.0713 .1277 -.2532 .61 -7.4 -9.6)"/><use xlink:href="#ae" width="7.7" height="10" transform="matrix(-.9805 -.2403 .3231 -.9097 3.85 -26.45)"/><use xlink:href="#af" width="4.8" height="5.5" transform="matrix(-.9884 .0651 -.0871 -.989 6.55 -35.6)"/><use xlink:href="#ag" width="8.1" height="9.6" transform="matrix(-.4174 -.9247 .9841 -.564 -3.3 -22.65)"/><use xlink:href="#ah" width="5.1" height="10.4" transform="matrix(1.0108 -.7572 .7272 .6926 -4.2 -14.75)"/><use xlink:href="#ai" width="5.5" height="10.7" transform="matrix(1.0261 -.339 .2342 1.0546 -8.35 -16.85)"/><use xlink:href="#aj" width="10.1" height="9.3" transform="matrix(.9969 -.0006 .2368 1.0035 -8.5 -19)"/><use xlink:href="#ak" width="10.8" height="14.8" transform="matrix(-1.0931 .248 .3343 .9299 -.75 -31.45)"/><use xlink:href="#al" width="13.5" height="16.3" transform="matrix(.9999 .0094 -.0793 .999 -9.7 -43.2)"/><use xlink:href="#am" width="9.4" height="10.7" transform="matrix(.6051 .7063 -.5252 .6294 -10.85 -34.3)"/><use xlink:href="#aJ" width="6" height="5.5" transform="matrix(-.3148 -.8172 .6221 -.3828 -16.8 -26.15)"/><use xlink:href="#ap" width="8.7" height="10" transform="matrix(-.9523 .2691 -.2021 -1.0365 -6.65 -23.85)"/></g></g><g clip-path="url(#aM)"><g transform="translate(1296.6 46.8)"><use xlink:href="#aa" width="14.7" height="4.3" transform="matrix(.8 0 0 .8 -5.4 -1.8)"/><use xlink:href="#ab" width="6" height="3.9" transform="translate(3.6 -3)"/><use xlink:href="#ac" width="4.5" height="8.4" transform="matrix(1.0001 -.1954 .2096 .8854 .9 -9.75)"/><use xlink:href="#ad" width="4.1" height="4.3" transform="matrix(1 0 -.2691 .9998 -9.65 -5.25)"/><use xlink:href="#ac" width="4.5" height="8.4" transform="matrix(1.0821 .1004 -.2455 .5913 -7.3 -9.55)"/><use xlink:href="#ae" width="7.7" height="10" transform="matrix(-.9913 -.1979 .283 -.9221 4.05 -26.55)"/><use xlink:href="#af" width="4.8" height="5.5" transform="matrix(-.9855 .0999 -.1218 -.9848 6.5 -35.8)"/><use xlink:href="#ag" width="8.1" height="9.6" transform="matrix(-.3871 -.9431 .9643 -.5813 -3.3 -22.55)"/><use xlink:href="#ah" width="5.1" height="10.4" transform="matrix(.9941 -.7789 .742 .6767 -4.5 -14.65)"/><use xlink:href="#ai" width="5.5" height="10.7" transform="matrix(1.0181 -.3618 .2577 1.0489 -8.45 -16.65)"/><use xlink:href="#aj" width="10.1" height="9.3" transform="matrix(.9897 -.0303 .2368 1.0035 -8.55 -18.8)"/><use xlink:href="#ak" width="10.8" height="14.8" transform="matrix(-1.0873 .2715 .3512 .9235 -1.05 -31.45)"/><use xlink:href="#al" width="13.5" height="16.3" transform="matrix(.9998 .0141 -.084 .9986 -9.85 -43.1)"/><use xlink:href="#am" width="9.4" height="10.7" transform="matrix(.6051 .7063 -.5252 .6294 -11.15 -34.2)"/><use xlink:href="#aJ" width="6" height="5.5" transform="matrix(-.3605 -.7979 .5993 -.4173 -17 -25.9)"/><use xlink:href="#ap" width="8.7" height="10" transform="matrix(-.9407 .3063 -.2426 -1.0275 -6.8 -24.1)"/></g></g><g clip-path="url(#aN)"><g transform="translate(1354.6 46.8)"><use xlink:href="#aa" width="14.7" height="4.3" transform="matrix(.8 0 0 .8 -5.4 -1.8)"/><use xlink:href="#ab" width="6" height="3.9" transform="translate(3.6 -3)"/><use xlink:href="#ac" width="4.5" height="8.4" transform="matrix(.9924 -.2338 .244 .8771 .75 -9.6)"/><use xlink:href="#ad" width="4.1" height="4.3" transform="matrix(1 0 -.2717 1 -9.65 -5.25)"/><use xlink:href="#ac" width="4.5" height="8.4" transform="matrix(1.0923 .076 -.2382 .5731 -7.3 -9.5)"/><use xlink:href="#ae" width="7.7" height="10" transform="matrix(-1.0004 -.1583 .245 -.9329 4.15 -26.6)"/><use xlink:href="#af" width="4.8" height="5.5" transform="matrix(-.9815 .1371 -.1592 -.9795 6.35 -36.05)"/><use xlink:href="#ag" width="8.1" height="9.6" transform="matrix(-.3595 -.9605 .9452 -.5998 -3.3 -22.5)"/><use xlink:href="#ah" width="5.1" height="10.4" transform="matrix(.9799 -.7997 .7571 .6621 -4.7 -14.55)"/><use xlink:href="#ai" width="5.5" height="10.7" transform="matrix(1.0094 -.3885 .2853 1.0426 -8.5 -16.55)"/><use xlink:href="#aj" width="10.1" height="9.3" transform="matrix(.982 -.0581 .2377 1.004 -8.6 -18.65)"/><use xlink:href="#ak" width="10.8" height="14.8" transform="matrix(-1.0821 .2947 .3727 .9161 -1.45 -31.4)"/><use xlink:href="#al" width="13.5" height="16.3" transform="rotate(1.295 1904.013 -459.553)skewX(-4.011)"/><use xlink:href="#am" width="9.4" height="10.7" transform="matrix(.6053 .7081 -.5258 .6306 -11.5 -34.15)"/><use xlink:href="#aJ" width="6" height="5.5" transform="matrix(-.4057 -.7769 .5753 -.4513 -17.2 -25.75)"/><use xlink:href="#ap" width="8.7" height="10" transform="matrix(-.9286 .3438 -.2843 -1.0174 -6.95 -24.45)"/></g></g><g clip-path="url(#aO)"><g transform="translate(1412.6 46.8)"><use xlink:href="#aa" width="14.7" height="4.3" transform="matrix(.8 0 0 .8 -5.4 -1.8)"/><use xlink:href="#ab" width="6" height="3.9" transform="translate(3.6 -3)"/><use xlink:href="#ac" width="4.5" height="8.4" transform="matrix(.9924 -.2338 .244 .8771 .75 -9.6)"/><use xlink:href="#ad" width="4.1" height="4.3" transform="matrix(1 0 -.2717 1 -9.65 -5.25)"/><use xlink:href="#ac" width="4.5" height="8.4" transform="matrix(1.0923 .076 -.2382 .5731 -7.3 -9.5)"/><use xlink:href="#ae" width="7.7" height="10" transform="matrix(-1.0004 -.1583 .245 -.9329 4.15 -26.6)"/><use xlink:href="#af" width="4.8" height="5.5" transform="matrix(-.9815 .1371 -.1592 -.9795 6.35 -36.05)"/><use xlink:href="#ag" width="8.1" height="9.6" transform="matrix(-.3595 -.9605 .9452 -.5998 -3.3 -22.5)"/><use xlink:href="#ah" width="5.1" height="10.4" transform="matrix(.9799 -.7997 .7571 .6621 -4.7 -14.55)"/><use xlink:href="#ai" width="5.5" height="10.7" transform="matrix(1.0094 -.3885 .2853 1.0426 -8.5 -16.55)"/><use xlink:href="#aj" width="10.1" height="9.3" transform="matrix(.982 -.0581 .2377 1.004 -8.6 -18.65)"/><use xlink:href="#ak" width="10.8" height="14.8" transform="matrix(-1.0821 .2947 .3727 .9161 -1.45 -31.4)"/><use xlink:href="#al" width="13.5" height="16.3" transform="rotate(1.295 1904.013 -459.553)skewX(-4.011)"/><use xlink:href="#am" width="9.4" height="10.7" transform="matrix(.6053 .7081 -.5258 .6306 -11.5 -34.15)"/><use xlink:href="#aJ" width="6" height="5.5" transform="matrix(-.4057 -.7769 .5753 -.4513 -17.2 -25.75)"/><use xlink:href="#ap" width="8.7" height="10" transform="matrix(-.9286 .3438 -.2843 -1.0174 -6.95 -24.45)"/></g></g><g clip-path="url(#aP)"><g transform="translate(1470.6 46.8)"><use xlink:href="#aa" width="14.7" height="4.3" transform="matrix(.8 0 0 .8 -5.4 -1.8)"/><use xlink:href="#ab" width="6" height="3.9" transform="translate(3.6 -3)"/><use xlink:href="#ac" width="4.5" height="8.4" transform="matrix(.9924 -.2338 .244 .8771 .75 -9.6)"/><use xlink:href="#ad" width="4.1" height="4.3" transform="matrix(1 0 -.2717 1 -9.65 -5.25)"/><use xlink:href="#ac" width="4.5" height="8.4" transform="matrix(1.0923 .076 -.2382 .5731 -7.3 -9.5)"/><use xlink:href="#ae" width="7.7" height="10" transform="matrix(-1.0004 -.1583 .245 -.9329 4.15 -26.6)"/><use xlink:href="#af" width="4.8" height="5.5" transform="matrix(-.9815 .1371 -.1592 -.9795 6.35 -36.05)"/><use xlink:href="#ag" width="8.1" height="9.6" transform="matrix(-.3595 -.9605 .9452 -.5998 -3.3 -22.5)"/><use xlink:href="#ah" width="5.1" height="10.4" transform="matrix(.9799 -.7997 .7571 .6621 -4.7 -14.55)"/><use xlink:href="#ai" width="5.5" height="10.7" transform="matrix(1.0094 -.3885 .2853 1.0426 -8.5 -16.55)"/><use xlink:href="#aj" width="10.1" height="9.3" transform="matrix(.982 -.0581 .2377 1.004 -8.6 -18.65)"/><use xlink:href="#ak" width="10.8" height="14.8" transform="matrix(-1.0821 .2947 .3727 .9161 -1.45 -31.4)"/><use xlink:href="#al" width="13.5" height="16.3" transform="rotate(1.295 1904.013 -459.553)skewX(-4.011)"/><use xlink:href="#am" width="9.4" height="10.7" transform="matrix(.6053 .7081 -.5258 .6306 -11.5 -34.15)"/><use xlink:href="#aJ" width="6" height="5.5" transform="matrix(-.4057 -.7769 .5753 -.4513 -17.2 -25.75)"/><use xlink:href="#ap" width="8.7" height="10" transform="matrix(-.9286 .3438 -.2843 -1.0174 -6.95 -24.45)"/></g></g><g clip-path="url(#aQ)"><g transform="translate(1528.6 46.8)"><use xlink:href="#aa" width="14.7" height="4.3" transform="matrix(.8 0 0 .8 -5.4 -1.8)"/><use xlink:href="#ab" width="6" height="3.9" transform="translate(3.6 -3)"/><use xlink:href="#ac" width="4.5" height="8.4" transform="matrix(.9924 -.2338 .244 .8771 .75 -9.6)"/><use xlink:href="#ad" width="4.1" height="4.3" transform="matrix(1 0 -.2717 1 -9.65 -5.25)"/><use xlink:href="#ac" width="4.5" height="8.4" transform="matrix(1.0923 .076 -.2382 .5731 -7.3 -9.5)"/><use xlink:href="#ae" width="7.7" height="10" transform="matrix(-1.0004 -.1583 .245 -.9329 4.15 -26.6)"/><use xlink:href="#af" width="4.8" height="5.5" transform="matrix(-.9815 .1371 -.1592 -.9795 6.35 -36.05)"/><use xlink:href="#ag" width="8.1" height="9.6" transform="matrix(-.3595 -.9605 .9452 -.5998 -3.3 -22.5)"/><use xlink:href="#ah" width="5.1" height="10.4" transform="matrix(.9799 -.7997 .7571 .6621 -4.7 -14.55)"/><use xlink:href="#ai" width="5.5" height="10.7" transform="matrix(1.0094 -.3885 .2853 1.0426 -8.5 -16.55)"/><use xlink:href="#aj" width="10.1" height="9.3" transform="matrix(.982 -.0581 .2377 1.004 -8.6 -18.65)"/><use xlink:href="#ak" width="10.8" height="14.8" transform="matrix(-1.0821 .2947 .3727 .9161 -1.45 -31.4)"/><use xlink:href="#al" width="13.5" height="16.3" transform="rotate(1.295 1904.013 -459.553)skewX(-4.011)"/><use xlink:href="#am" width="9.4" height="10.7" transform="matrix(.6053 .7081 -.5258 .6306 -11.5 -34.15)"/><use xlink:href="#aJ" width="6" height="5.5" transform="matrix(-.4057 -.7769 .5753 -.4513 -17.2 -25.75)"/><use xlink:href="#ap" width="8.7" height="10" transform="matrix(-.9286 .3438 -.2843 -1.0174 -6.95 -24.45)"/></g></g><g clip-path="url(#aR)"><g transform="translate(1586.6 46.8)"><use xlink:href="#aa" width="14.7" height="4.3" transform="matrix(.8 0 0 .8 -5.4 -1.8)"/><use xlink:href="#ab" width="6" height="3.9" transform="translate(3.6 -3)"/><use xlink:href="#ac" width="4.5" height="8.4" transform="matrix(.9924 -.2338 .244 .8771 .75 -9.6)"/><use xlink:href="#ad" width="4.1" height="4.3" transform="matrix(1 0 -.2717 1 -9.65 -5.25)"/><use xlink:href="#ac" width="4.5" height="8.4" transform="matrix(1.0923 .076 -.2382 .5731 -7.3 -9.5)"/><use xlink:href="#ae" width="7.7" height="10" transform="matrix(-1.0004 -.1583 .245 -.9329 4.15 -26.6)"/><use xlink:href="#af" width="4.8" height="5.5" transform="matrix(-.9815 .1371 -.1592 -.9795 6.35 -36.05)"/><use xlink:href="#ag" width="8.1" height="9.6" transform="matrix(-.3595 -.9605 .9452 -.5998 -3.3 -22.5)"/><use xlink:href="#ah" width="5.1" height="10.4" transform="matrix(.9799 -.7997 .7571 .6621 -4.7 -14.55)"/><use xlink:href="#ai" width="5.5" height="10.7" transform="matrix(1.0094 -.3885 .2853 1.0426 -8.5 -16.55)"/><use xlink:href="#aj" width="10.1" height="9.3" transform="matrix(.982 -.0581 .2377 1.004 -8.6 -18.65)"/><use xlink:href="#ak" width="10.8" height="14.8" transform="matrix(-1.0821 .2947 .3727 .9161 -1.45 -31.4)"/><use xlink:href="#al" width="13.5" height="16.3" transform="rotate(1.295 1904.013 -459.553)skewX(-4.011)"/><use xlink:href="#am" width="9.4" height="10.7" transform="matrix(.6053 .7081 -.5258 .6306 -11.5 -34.15)"/><use xlink:href="#aJ" width="6" height="5.5" transform="matrix(-.4057 -.7769 .5753 -.4513 -17.2 -25.75)"/><use xlink:href="#ap" width="8.7" height="10" transform="matrix(-.9286 .3438 -.2843 -1.0174 -6.95 -24.45)"/></g></g><g clip-path="url(#aS)"><g transform="translate(1644.6 46.8)"><use xlink:href="#aa" width="14.7" height="4.3" transform="matrix(.8 0 0 .8 -5.4 -1.8)"/><use xlink:href="#ab" width="6" height="3.9" transform="translate(3.6 -3)"/><use xlink:href="#ac" width="4.5" height="8.4" transform="matrix(.9924 -.2338 .244 .8771 .75 -9.6)"/><use xlink:href="#ad" width="4.1" height="4.3" transform="matrix(1 0 -.2717 1 -9.65 -5.25)"/><use xlink:href="#ac" width="4.5" height="8.4" transform="matrix(1.0923 .076 -.2382 .5731 -7.3 -9.5)"/><use xlink:href="#ae" width="7.7" height="10" transform="matrix(-1.0004 -.1583 .245 -.9329 4.15 -26.6)"/><use xlink:href="#af" width="4.8" height="5.5" transform="matrix(-.9815 .1371 -.1592 -.9795 6.35 -36.05)"/><use xlink:href="#ag" width="8.1" height="9.6" transform="matrix(-.3595 -.9605 .9452 -.5998 -3.3 -22.5)"/><use xlink:href="#ah" width="5.1" height="10.4" transform="matrix(.9799 -.7997 .7571 .6621 -4.7 -14.55)"/><use xlink:href="#ai" width="5.5" height="10.7" transform="matrix(1.0094 -.3885 .2853 1.0426 -8.5 -16.55)"/><use xlink:href="#aj" width="10.1" height="9.3" transform="matrix(.982 -.0581 .2377 1.004 -8.6 -18.65)"/><use xlink:href="#ak" width="10.8" height="14.8" transform="matrix(-1.0821 .2947 .3727 .9161 -1.45 -31.4)"/><use xlink:href="#al" width="13.5" height="16.3" transform="rotate(1.295 1904.013 -459.553)skewX(-4.011)"/><use xlink:href="#am" width="9.4" height="10.7" transform="matrix(.6053 .7081 -.5258 .6306 -11.5 -34.15)"/><use xlink:href="#aJ" width="6" height="5.5" transform="matrix(-.4057 -.7769 .5753 -.4513 -17.2 -25.75)"/><use xlink:href="#ap" width="8.7" height="10" transform="matrix(-.9286 .3438 -.2843 -1.0174 -6.95 -24.45)"/></g></g><g clip-path="url(#aT)"><g transform="translate(1702.6 46.8)"><use xlink:href="#aa" width="14.7" height="4.3" transform="matrix(.8 0 0 .8 -5.4 -1.8)"/><use xlink:href="#ab" width="6" height="3.9" transform="translate(3.6 -3)"/><use xlink:href="#ac" width="4.5" height="8.4" transform="matrix(.9924 -.2338 .244 .8771 .75 -9.6)"/><use xlink:href="#ad" width="4.1" height="4.3" transform="matrix(1 0 -.2717 1 -9.65 -5.25)"/><use xlink:href="#ac" width="4.5" height="8.4" transform="matrix(1.0923 .076 -.2382 .5731 -7.3 -9.5)"/><use xlink:href="#ae" width="7.7" height="10" transform="matrix(-1.0004 -.1583 .245 -.9329 4.15 -26.6)"/><use xlink:href="#af" width="4.8" height="5.5" transform="matrix(-.9815 .1371 -.1592 -.9795 6.35 -36.05)"/><use xlink:href="#ag" width="8.1" height="9.6" transform="matrix(-.3595 -.9605 .9452 -.5998 -3.3 -22.5)"/><use xlink:href="#ah" width="5.1" height="10.4" transform="matrix(.9799 -.7997 .7571 .6621 -4.7 -14.55)"/><use xlink:href="#ai" width="5.5" height="10.7" transform="matrix(1.0094 -.3885 .2853 1.0426 -8.5 -16.55)"/><use xlink:href="#aj" width="10.1" height="9.3" transform="matrix(.982 -.0581 .2377 1.004 -8.6 -18.65)"/><use xlink:href="#ak" width="10.8" height="14.8" transform="matrix(-1.0821 .2947 .3727 .9161 -1.45 -31.4)"/><use xlink:href="#al" width="13.5" height="16.3" transform="rotate(1.295 1904.013 -459.553)skewX(-4.011)"/><use xlink:href="#am" width="9.4" height="10.7" transform="matrix(.6053 .7081 -.5258 .6306 -11.5 -34.15)"/><use xlink:href="#aJ" width="6" height="5.5" transform="matrix(-.4057 -.7769 .5753 -.4513 -17.2 -25.75)"/><use xlink:href="#ap" width="8.7" height="10" transform="matrix(-.9286 .3438 -.2843 -1.0174 -6.95 -24.45)"/></g></g><g clip-path="url(#aU)"><g transform="translate(1760.6 46.8)"><use xlink:href="#aa" width="14.7" height="4.3" transform="matrix(.8 0 0 .8 -5.4 -1.8)"/><use xlink:href="#ab" width="6" height="3.9" transform="translate(3.6 -3)"/><use xlink:href="#ac" width="4.5" height="8.4" transform="matrix(.9924 -.2338 .244 .8771 .75 -9.6)"/><use xlink:href="#ad" width="4.1" height="4.3" transform="matrix(1 0 -.2717 1 -9.65 -5.25)"/><use xlink:href="#ac" width="4.5" height="8.4" transform="matrix(1.0923 .076 -.2382 .5731 -7.3 -9.5)"/><use xlink:href="#ae" width="7.7" height="10" transform="matrix(-1.0004 -.1583 .245 -.9329 4.15 -26.6)"/><use xlink:href="#af" width="4.8" height="5.5" transform="matrix(-.9815 .1371 -.1592 -.9795 6.35 -36.05)"/><use xlink:href="#ag" width="8.1" height="9.6" transform="matrix(-.3595 -.9605 .9452 -.5998 -3.3 -22.5)"/><use xlink:href="#ah" width="5.1" height="10.4" transform="matrix(.9799 -.7997 .7571 .6621 -4.7 -14.55)"/><use xlink:href="#ai" width="5.5" height="10.7" transform="matrix(1.0094 -.3885 .2853 1.0426 -8.5 -16.55)"/><use xlink:href="#aj" width="10.1" height="9.3" transform="matrix(.982 -.0581 .2377 1.004 -8.6 -18.65)"/><use xlink:href="#ak" width="10.8" height="14.8" transform="matrix(-1.0821 .2947 .3727 .9161 -1.45 -31.4)"/><use xlink:href="#al" width="13.5" height="16.3" transform="rotate(1.295 1904.013 -459.553)skewX(-4.011)"/><use xlink:href="#am" width="9.4" height="10.7" transform="matrix(.6053 .7081 -.5258 .6306 -11.5 -34.15)"/><use xlink:href="#aJ" width="6" height="5.5" transform="matrix(-.4057 -.7769 .5753 -.4513 -17.2 -25.75)"/><use xlink:href="#ap" width="8.7" height="10" transform="matrix(-.9286 .3438 -.2843 -1.0174 -6.95 -24.45)"/></g></g><g clip-path="url(#aV)"><g transform="translate(1818.6 46.8)"><use xlink:href="#aa" width="14.7" height="4.3" transform="matrix(.8 0 0 .8 -5.4 -1.8)"/><use xlink:href="#ab" width="6" height="3.9" transform="translate(3.6 -3)"/><use xlink:href="#ac" width="4.5" height="8.4" transform="matrix(.9924 -.2338 .244 .8771 .75 -9.6)"/><use xlink:href="#ad" width="4.1" height="4.3" transform="matrix(1 0 -.2717 1 -9.65 -5.25)"/><use xlink:href="#ac" width="4.5" height="8.4" transform="matrix(1.0923 .076 -.2382 .5731 -7.3 -9.5)"/><use xlink:href="#ae" width="7.7" height="10" transform="matrix(-1.0004 -.1583 .245 -.9329 4.15 -26.6)"/><use xlink:href="#af" width="4.8" height="5.5" transform="matrix(-.9815 .1371 -.1592 -.9795 6.35 -36.05)"/><use xlink:href="#ag" width="8.1" height="9.6" transform="matrix(-.3595 -.9605 .9452 -.5998 -3.3 -22.5)"/><use xlink:href="#ah" width="5.1" height="10.4" transform="matrix(.9799 -.7997 .7571 .6621 -4.7 -14.55)"/><use xlink:href="#ai" width="5.5" height="10.7" transform="matrix(1.0094 -.3885 .2853 1.0426 -8.5 -16.55)"/><use xlink:href="#aj" width="10.1" height="9.3" transform="matrix(.982 -.0581 .2377 1.004 -8.6 -18.65)"/><use xlink:href="#ak" width="10.8" height="14.8" transform="matrix(-1.0821 .2947 .3727 .9161 -1.45 -31.4)"/><use xlink:href="#al" width="13.5" height="16.3" transform="rotate(1.295 1904.013 -459.553)skewX(-4.011)"/><use xlink:href="#am" width="9.4" height="10.7" transform="matrix(.6053 .7081 -.5258 .6306 -11.5 -34.15)"/><use xlink:href="#aJ" width="6" height="5.5" transform="matrix(-.4057 -.7769 .5753 -.4513 -17.2 -25.75)"/><use xlink:href="#ap" width="8.7" height="10" transform="matrix(-.9286 .3438 -.2843 -1.0174 -6.95 -24.45)"/></g></g><g clip-path="url(#aW)"><g transform="translate(1876.6 46.8)"><use xlink:href="#aa" width="14.7" height="4.3" transform="matrix(.8 0 0 .8 -5.4 -1.8)"/><use xlink:href="#ab" width="6" height="3.9" transform="translate(3.6 -3)"/><use xlink:href="#ac" width="4.5" height="8.4" transform="matrix(.9924 -.2338 .244 .8771 .75 -9.6)"/><use xlink:href="#ad" width="4.1" height="4.3" transform="matrix(1 0 -.2717 1 -9.65 -5.25)"/><use xlink:href="#ac" width="4.5" height="8.4" transform="matrix(1.0923 .076 -.2382 .5731 -7.3 -9.5)"/><use xlink:href="#ae" width="7.7" height="10" transform="matrix(-.5555 -.8442 .8527 -.4463 3.35 -21.75)"/><use xlink:href="#af" width="4.8" height="5.5" transform="matrix(-.7608 -.6317 .6154 -.7757 11.85 -26.4)"/><use xlink:href="#ag" width="8.1" height="9.6" transform="matrix(.8392 -.5476 .5884 .7832 -2 -30.85)"/><use xlink:href="#ah" width="5.1" height="10.4" transform="matrix(1.1823 -.446 .5067 .8677 -3 -17)"/><use xlink:href="#ai" width="5.5" height="10.7" transform="matrix(1.0702 -.1504 .0426 1.0793 -6.35 -18.5)"/><use xlink:href="#aj" width="10.1" height="9.3" transform="matrix(.9949 .1193 .0741 1.0137 -6.55 -20.7)"/><use xlink:href="#ak" width="10.8" height="14.8" transform="matrix(.9933 .0464 -.0288 .9804 -6.55 -32)"/><use xlink:href="#al" width="13.5" height="16.3" transform="rotate(1.295 1956.364 -329.62)skewX(-4.011)"/><use xlink:href="#am" width="9.4" height="10.7" transform="matrix(.8621 .4558 -.1782 .8203 -10.3 -34.2)"/><use xlink:href="#ao" width="4.2" height="6.7" transform="matrix(.9468 .0817 -.2068 .8296 -9.5 -19.7)"/><use xlink:href="#ap" width="8.7" height="10" transform="matrix(1.0453 -.0803 -.2476 .874 -13.75 -24.45)"/></g></g><g clip-path="url(#aX)"><g transform="translate(1934.6 46.8)"><use xlink:href="#aa" width="14.7" height="4.3" transform="matrix(.8 0 0 .8 -5.4 -1.8)"/><use xlink:href="#ab" width="6" height="3.9" transform="matrix(1 0 -.0843 1.0074 2.9 -2.95)"/><use xlink:href="#ac" width="4.5" height="8.4" transform="matrix(1.012 -.2339 .1646 .8836 .55 -9.55)"/><use xlink:href="#ad" width="4.1" height="4.3" transform="matrix(1 0 -.2691 .9998 -9.65 -5.25)"/><use xlink:href="#ac" width="4.5" height="8.4" transform="matrix(1.0923 .0727 -.2377 .5725 -7.25 -9.5)"/><use xlink:href="#ae" width="7.7" height="10" transform="matrix(-.1807 -.9931 .8887 -.0739 2.65 -21.9)"/><use xlink:href="#af" width="4.8" height="5.5" transform="matrix(-.6585 -.7349 .7212 -.6754 10.95 -23.45)"/><use xlink:href="#ag" width="8.1" height="9.6" transform="matrix(.9043 -.4272 .4874 .8772 -1.05 -31.05)"/><use xlink:href="#ah" width="5.1" height="10.4" transform="matrix(1.2035 -.3803 .4568 .8932 -2.75 -16.85)"/><use xlink:href="#ai" width="5.5" height="10.7" transform="matrix(1.077 -.0808 -.024 1.0793 -5.9 -18.65)"/><use xlink:href="#aj" width="10.1" height="9.3" transform="matrix(.9947 .1181 .0717 1.0136 -6.15 -20.75)"/><use xlink:href="#ak" width="10.8" height="14.8" transform="matrix(.9913 .0741 -.0694 .9782 -5.55 -32.15)"/><use xlink:href="#al" width="13.5" height="16.3" transform="matrix(.9985 .0486 -.1185 .9948 -5.3 -44.4)"/><use xlink:href="#am" width="9.4" height="10.7" transform="matrix(.8318 .4765 -.2037 .8133 -8.6 -34.45)"/><use xlink:href="#ao" width="4.2" height="6.7" transform="matrix(.9496 -.0083 -.1265 .8446 -8.7 -20.15)"/><use xlink:href="#ap" width="8.7" height="10" transform="matrix(.9891 -.0393 -.2304 .9196 -12.5 -25.6)"/></g></g><g clip-path="url(#aY)"><g transform="translate(1992.6 46.8)"><use xlink:href="#aa" width="14.7" height="4.3" transform="matrix(.8 0 0 .8 -5.4 -1.8)"/><use xlink:href="#ab" width="6" height="3.9" transform="matrix(1 0 -.1732 1.0071 2.2 -3)"/><use xlink:href="#ac" width="4.5" height="8.4" transform="matrix(1.0325 -.2339 .0892 .8835 .5 -9.55)"/><use xlink:href="#ad" width="4.1" height="4.3" transform="matrix(1 0 -.2691 .9998 -9.65 -5.25)"/><use xlink:href="#ac" width="4.5" height="8.4" transform="matrix(1.0923 .0727 -.2377 .5725 -7.25 -9.5)"/><use xlink:href="#ae" width="7.7" height="10" transform="matrix(.2148 -.9855 .7803 .2543 2.55 -22.25)"/><use xlink:href="#af" width="4.8" height="5.5" transform="matrix(-.5423 -.824 .813 -.561 10.05 -20.35)"/><use xlink:href="#ag" width="8.1" height="9.6" transform="matrix(.9545 -.2973 .3699 .9601 .1 -31.35)"/><use xlink:href="#ah" width="5.1" height="10.4" transform="matrix(1.2229 -.3122 .409 .9161 -2.65 -16.8)"/><use xlink:href="#ai" width="5.5" height="10.7" transform="matrix(1.0797 -.0144 -.0902 1.0752 -5.3 -18.8)"/><use xlink:href="#aj" width="10.1" height="9.3" transform="matrix(.9947 .1181 .0717 1.0136 -5.8 -20.75)"/><use xlink:href="#ak" width="10.8" height="14.8" transform="matrix(.9884 .104 -.1155 .9737 -4.5 -32.25)"/><use xlink:href="#al" width="13.5" height="16.3" transform="matrix(.9966 .0751 -.1449 .9912 -3.55 -44.55)"/><use xlink:href="#am" width="9.4" height="10.7" transform="matrix(.8033 .4944 -.2316 .8054 -6.9 -34.95)"/><use xlink:href="#ao" width="4.2" height="6.7" transform="matrix(.9439 -.0959 -.0451 .8526 -7.9 -20.55)"/><use xlink:href="#ap" width="8.7" height="10" transform="matrix(.9317 -.0043 -.2146 .9648 -11.35 -26.8)"/></g></g><g clip-path="url(#aZ)"><g transform="translate(2050.6 46.8)"><use xlink:href="#aa" width="14.7" height="4.3" transform="matrix(.8 0 0 .8 -5.4 -1.8)"/><use xlink:href="#ab" width="6" height="3.9" transform="matrix(1 0 -.2616 1 1.5 -3)"/><use xlink:href="#ac" width="4.5" height="8.4" transform="matrix(1.0536 -.2338 .0146 .8771 .35 -9.6)"/><use xlink:href="#ad" width="4.1" height="4.3" transform="matrix(1 0 -.2717 1 -9.65 -5.25)"/><use xlink:href="#ac" width="4.5" height="8.4" transform="matrix(1.0923 .076 -.2382 .5731 -7.3 -9.5)"/><use xlink:href="#ae" width="7.7" height="10" transform="matrix(.5826 -.8235 .5669 .4927 2.8 -22.6)"/><use xlink:href="#af" width="4.8" height="5.5" transform="matrix(-.4168 -.8952 .8869 -.4373 9.15 -17.4)"/><use xlink:href="#ag" width="8.1" height="9.6" transform="matrix(.9862 -.1655 .2431 1.027 1.4 -31.55)"/><use xlink:href="#ah" width="5.1" height="10.4" transform="matrix(1.238 -.2498 .3603 .9374 -2.45 -16.65)"/><use xlink:href="#ai" width="5.5" height="10.7" transform="matrix(1.0782 .0525 -.16 1.0669 -4.85 -18.95)"/><use xlink:href="#aj" width="10.1" height="9.3" transform="matrix(.9949 .1193 .0741 1.0137 -5.4 -20.8)"/><use xlink:href="#ak" width="10.8" height="14.8" transform="matrix(.9852 .1329 -.1591 .9678 -3.45 -32.35)"/><use xlink:href="#al" width="13.5" height="16.3" transform="matrix(.994 .106 -.1756 .9866 -1.9 -44.6)"/><use xlink:href="#am" width="9.4" height="10.7" transform="matrix(.7736 .515 -.2597 .7972 -5.15 -35.35)"/><use xlink:href="#ao" width="4.2" height="6.7" transform="matrix(.9298 -.1875 .0347 .8526 -7.1 -21)"/><use xlink:href="#ap" width="8.7" height="10" transform="matrix(.8731 .0262 -.1967 1.0104 -10.15 -28)"/></g></g><g clip-path="url(#ba)"><g transform="translate(2108.6 46.8)"><use xlink:href="#aa" width="14.7" height="4.3" transform="matrix(.8 0 0 .8 -5.4 -1.8)"/><use xlink:href="#ab" width="6" height="3.9" transform="matrix(1 0 -.2616 1 1.5 -3)"/><use xlink:href="#ac" width="4.5" height="8.4" transform="matrix(1.0536 -.2338 .0146 .8771 .35 -9.6)"/><use xlink:href="#ad" width="4.1" height="4.3" transform="matrix(1 0 -.2717 1 -9.65 -5.25)"/><use xlink:href="#ac" width="4.5" height="8.4" transform="matrix(1.0923 .076 -.2382 .5731 -7.3 -9.5)"/><use xlink:href="#ae" width="7.7" height="10" transform="matrix(.5826 -.8235 .5669 .4927 2.8 -22.6)"/><use xlink:href="#af" width="4.8" height="5.5" transform="matrix(-.4168 -.8952 .8869 -.4373 9.15 -17.4)"/><use xlink:href="#ag" width="8.1" height="9.6" transform="matrix(.9862 -.1655 .2431 1.027 1.4 -31.55)"/><use xlink:href="#ah" width="5.1" height="10.4" transform="matrix(1.238 -.2498 .3603 .9374 -2.45 -16.65)"/><use xlink:href="#ai" width="5.5" height="10.7" transform="matrix(1.0782 .0525 -.16 1.0669 -4.85 -18.95)"/><use xlink:href="#aj" width="10.1" height="9.3" transform="matrix(.9949 .1193 .0741 1.0137 -5.4 -20.8)"/><use xlink:href="#ak" width="10.8" height="14.8" transform="matrix(.9852 .1329 -.1591 .9678 -3.45 -32.35)"/><use xlink:href="#al" width="13.5" height="16.3" transform="matrix(.994 .106 -.1756 .9866 -1.9 -44.6)"/><use xlink:href="#am" width="9.4" height="10.7" transform="matrix(.7736 .515 -.2597 .7972 -5.15 -35.35)"/><use xlink:href="#ao" width="4.2" height="6.7" transform="matrix(.9298 -.1875 .0347 .8526 -7.1 -21)"/><use xlink:href="#ap" width="8.7" height="10" transform="matrix(.8731 .0262 -.1967 1.0104 -10.15 -28)"/></g></g><g clip-path="url(#bb)"><g transform="translate(2166.6 46.8)"><use xlink:href="#aa" width="14.7" height="4.3" transform="matrix(.8 0 0 .8 -5.4 -1.8)"/><use xlink:href="#ab" width="6" height="3.9" transform="matrix(1 0 -.2616 1 1.5 -3)"/><use xlink:href="#ac" width="4.5" height="8.4" transform="matrix(1.0536 -.2338 .0146 .8771 .35 -9.6)"/><use xlink:href="#ad" width="4.1" height="4.3" transform="matrix(1 0 -.2717 1 -7.45 -4.45)"/><use xlink:href="#ac" width="4.5" height="8.4" transform="matrix(1.0923 .076 -.1463 .6592 -5.45 -9.25)"/><use xlink:href="#ae" width="7.7" height="10" transform="matrix(.9838 -.2109 -.0442 1.0096 3.6 -26.8)"/><use xlink:href="#af" width="4.8" height="5.5" transform="matrix(.8006 -.577 .5955 .7886 2.8 -18.05)"/><use xlink:href="#ag" width="8.1" height="9.6" transform="matrix(.9862 -.1655 .2431 1.027 -.15 -31.85)"/><use xlink:href="#ah" width="5.1" height="10.4" transform="matrix(1.238 -.2498 .3603 .9374 -2.45 -16.65)"/><use xlink:href="#ai" width="5.5" height="10.7" transform="matrix(1.0744 -.0991 -.009 1.0783 -4.55 -18.5)"/><use xlink:href="#aj" width="10.1" height="9.3" transform="matrix(.9949 .1193 -.0062 1.0041 -4.3 -20.75)"/><use xlink:href="#ak" width="10.8" height="14.8" transform="matrix(.8777 .0914 -.1574 .9596 -2.4 -31.85)"/><use xlink:href="#al" width="13.5" height="16.3" transform="matrix(.9988 -.0292 -.0408 1.0008 -4.45 -44.45)"/><use xlink:href="#am" width="9.4" height="10.7" transform="matrix(.8887 .269 -.0181 .8375 -8.05 -31.9)"/><use xlink:href="#ao" width="4.2" height="6.7" transform="matrix(.6609 -.6798 .5102 .6836 -3.85 -17.5)"/><use xlink:href="#ap" width="8.7" height="10" transform="matrix(.7556 -.7194 .3589 .8297 -9.9 -19.15)"/></g></g></svg>