<svg xmlns="http://www.w3.org/2000/svg" xmlns:xlink="http://www.w3.org/1999/xlink" width="2486" height="78" viewBox="0 0 2486 78"><defs><clipPath id="J"><path d="M1 1h70v76H1z"/></clipPath><clipPath id="O"><path d="M72 1h70v76H72z"/></clipPath><clipPath id="R"><path d="M143 1h70v76h-70z"/></clipPath><clipPath id="U"><path d="M214 1h70v76h-70z"/></clipPath><clipPath id="Y"><path d="M285 1h70v76h-70z"/></clipPath><clipPath id="ab"><path d="M356 1h70v76h-70z"/></clipPath><clipPath id="ae"><path d="M427 1h70v76h-70z"/></clipPath><clipPath id="ai"><path d="M498 1h70v76h-70z"/></clipPath><clipPath id="aj"><path d="M569 1h70v76h-70z"/></clipPath><clipPath id="ak"><path d="M640 1h70v76h-70z"/></clipPath><clipPath id="al"><path d="M711 1h70v76h-70z"/></clipPath><clipPath id="am"><path d="M782 1h70v76h-70z"/></clipPath><clipPath id="an"><path d="M853 1h70v76h-70z"/></clipPath><clipPath id="ap"><path d="M924 1h70v76h-70z"/></clipPath><clipPath id="aq"><path d="M995 1h70v76h-70z"/></clipPath><clipPath id="ar"><path d="M1066 1h70v76h-70z"/></clipPath><clipPath id="as"><path d="M1137 1h70v76h-70z"/></clipPath><clipPath id="at"><path d="M1208 1h70v76h-70z"/></clipPath><clipPath id="au"><path d="M1279 1h70v76h-70z"/></clipPath><clipPath id="av"><path d="M1350 1h70v76h-70z"/></clipPath><clipPath id="aw"><path d="M1421 1h70v76h-70z"/></clipPath><clipPath id="ax"><path d="M1492 1h70v76h-70z"/></clipPath><clipPath id="ay"><path d="M1563 1h70v76h-70z"/></clipPath><clipPath id="az"><path d="M1634 1h70v76h-70z"/></clipPath><clipPath id="aA"><path d="M1705 1h70v76h-70z"/></clipPath><clipPath id="aB"><path d="M1776 1h70v76h-70z"/></clipPath><clipPath id="aC"><path d="M1847 1h70v76h-70z"/></clipPath><clipPath id="aD"><path d="M1918 1h70v76h-70z"/></clipPath><clipPath id="aE"><path d="M1989 1h70v76h-70z"/></clipPath><clipPath id="aF"><path d="M2060 1h70v76h-70z"/></clipPath><clipPath id="aG"><path d="M2131 1h70v76h-70z"/></clipPath><clipPath id="aH"><path d="M2202 1h70v76h-70z"/></clipPath><clipPath id="aI"><path d="M2273 1h70v76h-70z"/></clipPath><clipPath id="aJ"><path d="M2344 1h70v76h-70z"/></clipPath><use xlink:href="#a" id="d" width="22.9" height="21.6"/><use xlink:href="#b" id="k" width="34.7" height="28.6"/><use xlink:href="#c" id="u" width="27.9" height="27.9"/><use xlink:href="#d" id="ao" width="22.9" height="21.6" transform="matrix(-1 0 0 1 29.95 4.5)"/><use xlink:href="#e" id="ag" width="30.4" height="20.2"/><use xlink:href="#f" id="af" width="53.7" height="25.4"/><use xlink:href="#g" id="ad" width="30.4" height="20.2"/><use xlink:href="#h" id="ac" width="53.7" height="25.4"/><use xlink:href="#i" id="aa" width="30.4" height="20.2"/><use xlink:href="#j" id="Z" width="53.7" height="25.4"/><use xlink:href="#k" id="X" width="34.7" height="28.6" transform="scale(1.21)"/><use xlink:href="#l" id="W" width="30.4" height="20.2"/><use xlink:href="#n" id="V" width="53.7" height="25.4"/><use xlink:href="#o" id="T" width="30.4" height="20.2"/><use xlink:href="#p" id="S" width="53.7" height="25.4"/><use xlink:href="#q" id="Q" width="30.4" height="20.2"/><use xlink:href="#r" id="P" width="53.7" height="25.4"/><use xlink:href="#d" id="M" width="22.9" height="21.6" transform="matrix(-1.58 0 0 1.58 36.35 0)"/><use xlink:href="#s" id="L" width="30.4" height="20.2"/><use xlink:href="#t" id="K" width="53.7" height="25.4"/><g id="a"><path fill="#f00f0f" d="M15.4 5.5Q17 5 20.7 3q-1.6 2.6-2 4.6-.3 1.1.6 2.2 1 1.3 3.6 1.8-1.2 0-2.4.7-1 .7-1.3 1.3-.5 1 .5 2.7.7 1.5 2.7 3.8-6.6-3.5-9.2-1.8-2.1 1.5-2.9 3.3 0-1.7-.3-2.4-.5-2.1-1.8-2.5-3-1-7.4.4.8-.5 2.3-2.6 1-1.2.6-3.1Q3.3 8.7 0 6.2l3.4.4 2.9-.4q1-.3 1.2-6.1V0q2 3.1 4 4.9 1.5 1.2 3.9.5"/><path fill="#a6691f" d="M12.2 13.7h-.7l-.6-.4-3.5-6.1q-.2-.3 0-.8l.7-.6L9.5 5l.9-.1q.4 0 .5.5-2.3.8-2.5 1.4 2.5 5.3 3.7 6.9m1.9 4h-.7q-.7-.1-.9-.6t0-1.2q.3-.5 1-.9.3-.2.7-.2-1.2.4-1 1.7 0 1.2 1 1.2z"/><path fill="#fc0" d="M12.2 13.7q-1.3-1.6-3.7-6.9.1-.6 2.4-1.5l2.4 6.6v.8l-.6.7-.3.2zm1.9 1 .5.1q.5.2.8.7.2.5 0 1.1l-.9 1-.4.1q-1 0-1-1.3-.2-1.2 1-1.6"/></g><g id="b"><path fill="#b81a03" d="M34.7 28.4q-4.3-4-6.6-3.5-1.8.3-2.9 3.7.1-4.1-2.4-6.1 4.9-.1 4.8-3.4t-5.3-7q2.9 1 6.3-2-1.4 3.8-.9 5.9.5 1.9 2.8 3.3l3.4 1.2q-2.4.4-2.4 2-.1 2 3.2 5.9"/><path fill="none" stroke="#d01d04" stroke-linecap="round" stroke-linejoin="round" stroke-width="__RESOLUTION__" d="M33.9 20.5q-2.4.4-2.4 2-.1 2 3.2 5.9" vector-effect="non-scaling-stroke"/><path fill="#f43404" d="M2 .2q1.4.7 2 2.2l-.9-.2L0 .9Q.6-.4 2 .2m14.3 2.4 4 1.7q-.7.4-1.4 1.9-1 2.2-.5 4.5.7 3.7 3.8 8.5l4.1 5.2q-5.8-2.8-16.6 1.3 12.2-8.4-4.3-22.4Q16.2 9 16.2 2.6"/><path fill="none" stroke="#d01d04" stroke-linecap="round" stroke-linejoin="round" stroke-width="__RESOLUTION__" d="M2 .2q1.4.7 2 2.2l-.9-.2L0 .9Q.6-.4 2 .2m7.7 25.5Q22 17.3 5.5 3.3" vector-effect="non-scaling-stroke"/><path fill="none" stroke="#fc563f" stroke-linecap="round" stroke-linejoin="round" stroke-width="__RESOLUTION__" d="M5.5 3.3Q16.3 9 16.3 2.6" vector-effect="non-scaling-stroke"/><path fill="#f43404" d="M6.7 28q-1.1-.7-.3-1.3.8-.5 2.1-.5l-.2.4z"/><path fill="none" stroke="#d01d04" stroke-linecap="round" stroke-linejoin="round" stroke-width="__RESOLUTION__" d="M6.7 28q-1.1-.7-.3-1.3.8-.5 2.1-.5l-.2.4z" vector-effect="non-scaling-stroke"/></g><g id="e"><path fill="#3e3e22" d="m28.3 10.7 1 1.6q-.2.9 1 1.1v.2q-.4 1.4-2 2.1l-3 1.5q-3 1.4-6.3 2.1l-3.8.8.7-1q6.8-2.3 8.3-3.9t4-3.1z"/><path fill="#52522c" d="M28.3 10.7V12q-2.6 1.4-4 3.1-1.6 1.7-8.4 3.9-1 1-1 .5H14q-18.8.1-12.3-11.1l7-5.8Q13.4-.9 18 .5t10.3 10.2M1.4 12.2H2z"/><path fill="#262615" d="M1.5 12.2H2z"/><path fill="none" stroke="#000" stroke-linecap="round" stroke-linejoin="round" stroke-opacity=".5" stroke-width="__RESOLUTION__" d="m29.3 12.3-1-1.7m-12.4 8.5-.7 1m14-7.8.4.4m-1.4-2Q22.6 1.9 18 .5T8.8 2.7l-7 5.8q-6.5 11.2 12.3 11.2l.8-.1q0 .4 1-.5" vector-effect="non-scaling-stroke"/></g><g id="g"><path fill="#5d3b1a" d="m28.3 10.7 1 1.6q-.2.9 1 1.1v.2q-.4 1.4-2 2.1l-3 1.5q-3 1.4-6.3 2.1l-3.8.8.7-1q6.8-2.3 8.3-3.9t4-3.1z"/><path fill="#6d4b22" d="M28.3 10.7V12q-2.6 1.4-4 3.1-1.6 1.7-8.4 3.9-1 1-1 .5H14q-18.8.1-12.3-11.1l7-5.8Q13.4-.9 18 .5t10.3 10.2M1.4 12.2H2z"/><path fill="#4b2910" d="M1.5 12.2H2z"/><path fill="none" stroke="#2e0c00" stroke-linecap="round" stroke-linejoin="round" stroke-opacity=".5" stroke-width="__RESOLUTION__" d="m29.3 12.3-1-1.7m-12.4 8.5-.7 1m14-7.8.4.4m-1.4-2Q22.6 1.9 18 .5T8.8 2.7l-7 5.8q-6.5 11.2 12.3 11.2l.8-.1q0 .4 1-.5" vector-effect="non-scaling-stroke"/></g><g id="i"><path fill="#7e3812" d="m28.3 10.7 1 1.6q-.2.9 1 1.1v.2q-.4 1.4-2 2.1l-3 1.5q-3 1.4-6.3 2.1l-3.8.8.7-1q6.8-2.3 8.3-3.9t4-3.1z"/><path fill="#894318" d="M28.3 10.7V12q-2.6 1.4-4 3.1-1.6 1.7-8.4 3.9-1 1-1 .5H14q-18.8.1-12.3-11.1l7-5.8Q13.4-.9 18 .5t10.3 10.2M1.4 12.2H2z"/><path fill="#712b0b" d="M1.5 12.2H2z"/><path fill="none" stroke="#5d1700" stroke-linecap="round" stroke-linejoin="round" stroke-opacity=".5" stroke-width="__RESOLUTION__" d="m29.3 12.3-1-1.7m-12.4 8.5-.7 1m14-7.8.4.4m-1.4-2Q22.6 1.9 18 .5T8.8 2.7l-7 5.8q-6.5 11.2 12.3 11.2l.8-.1q0 .4 1-.5" vector-effect="non-scaling-stroke"/></g><g id="l"><path fill="#9e360a" d="m28.3 10.7 1 1.6q-.2.9 1 1.1v.2q-.4 1.4-2 2.1l-3 1.5q-3 1.4-6.3 2.1l-3.8.8.7-1q6.8-2.3 8.3-3.9t4-3.1z"/><path fill="#a53d0e" d="M28.3 10.7V12q-2.6 1.4-4 3.1-1.6 1.7-8.4 3.9-1 1-1 .5H14q-18.8.1-12.3-11.1l7-5.8Q13.4-.9 18 .5t10.3 10.2M1.4 12.2H2z"/><path fill="#972f06" d="M1.5 12.2H2z"/><path fill="none" stroke="#8b2300" stroke-linecap="round" stroke-linejoin="round" stroke-opacity=".5" stroke-width="__RESOLUTION__" d="m29.3 12.3-1-1.7m-12.4 8.5-.7 1m14-7.8.4.4m-1.4-2Q22.6 1.9 18 .5T8.8 2.7l-7 5.8q-6.5 11.2 12.3 11.2l.8-.1q0 .4 1-.5" vector-effect="non-scaling-stroke"/></g><g id="o"><path fill="#a94c25" d="m28.3 10.7 1 1.6q-.2.9 1 1.1v.2q-.4 1.4-2 2.1l-3 1.5q-3 1.4-6.3 2.1l-3.8.8.7-1q6.8-2.3 8.3-3.9t4-3.1z"/><path fill="#af5228" d="M28.3 10.7V12q-2.6 1.4-4 3.1-1.6 1.7-8.4 3.9-1 1-1 .5H14q-18.8.1-12.3-11.1l7-5.8Q13.4-.9 18 .5t10.3 10.2M1.4 12.2H2z"/><path fill="#a24521" d="M1.5 12.2H2z"/><path fill="none" stroke="#983b1c" stroke-linecap="round" stroke-linejoin="round" stroke-opacity=".5" stroke-width="__RESOLUTION__" d="m29.3 12.3-1-1.7m-12.4 8.5-.7 1m14-7.8.4.4m-1.4-2Q22.6 1.9 18 .5T8.8 2.7l-7 5.8q-6.5 11.2 12.3 11.2l.8-.1q0 .4 1-.5" vector-effect="non-scaling-stroke"/></g><g id="q"><path fill="#ca9077" d="m28.3 10.7 1 1.6q-.2.9 1 1.1v.2q-.4 1.4-2 2.1l-3 1.5q-3 1.4-6.3 2.1l-3.8.8.7-1q6.8-2.3 8.3-3.9t4-3.1z"/><path fill="#cd9378" d="M28.3 10.7V12q-2.6 1.4-4 3.1-1.6 1.7-8.4 3.9-1 1-1 .5H14q-18.8.1-12.3-11.1l7-5.8Q13.4-.9 18 .5t10.3 10.2M1.4 12.2H2z"/><path fill="#c58b74" d="M1.5 12.2H2z"/><path fill="none" stroke="#bf8571" stroke-linecap="round" stroke-linejoin="round" stroke-opacity=".5" stroke-width="__RESOLUTION__" d="m29.3 12.3-1-1.7m-12.4 8.5-.7 1m14-7.8.4.4m-1.4-2Q22.6 1.9 18 .5T8.8 2.7l-7 5.8q-6.5 11.2 12.3 11.2l.8-.1q0 .4 1-.5" vector-effect="non-scaling-stroke"/></g><g id="s"><path fill="#fff" d="m28.3 10.7 1 1.6q-.2.9 1 1.1v.2q-.4 1.4-2 2.1l-3 1.5q-3 1.4-6.3 2.1l-3.8.8.7-1q6.8-2.3 8.3-3.9t4-3.1z"/><path fill="#fff" d="M28.3 10.7V12q-2.6 1.4-4 3.1-1.6 1.7-8.4 3.9-1 1-1 .5H14q-18.8.1-12.3-11.1l7-5.8Q13.4-.9 18 .5t10.3 10.2M1.4 12.2H2zm.1 0H2z"/><path fill="none" stroke="#fff" stroke-linecap="round" stroke-linejoin="round" stroke-opacity=".5" stroke-width="__RESOLUTION__" d="m29.3 12.3-1-1.7m-12.4 8.5-.7 1m14-7.8.4.4m-1.4-2Q22.6 1.9 18 .5T8.8 2.7l-7 5.8q-6.5 11.2 12.3 11.2l.8-.1q0 .4 1-.5" vector-effect="non-scaling-stroke"/></g><g id="ah" transform="translate(25.55 12.45)"><use xlink:href="#u" width="27.9" height="27.9" transform="translate(-7.45 -2.85)scale(.6188)"/><use xlink:href="#k" width="34.7" height="28.6" transform="translate(-25.55 -12.45)scale(1.21)"/></g><g id="N" transform="translate(25.55 12.45)"><use xlink:href="#u" width="27.9" height="27.9" transform="translate(-7.45 -2.85)scale(.6188)"/><use xlink:href="#k" width="34.7" height="28.6" transform="translate(-17.6 -6.6)scale(.815)"/></g><path id="c" fill="#fff" d="M9.8-10.2q3.3 3.3 4 7.7l.1 2.2q0 5.7-4.1 9.8-3.3 3.3-7.6 4l-2.2.1q-5.8 0-10-4.1-2.6-2.6-3.5-6-.5-1.8-.5-3.8 0-5.8 4-10h.2q4-4 9.8-4 3.7 0 6.6 1.7 1.7.9 3.2 2.3" transform="translate(14 14.3)"/><path id="f" fill="url(#v)" d="M26.9-2q-8.2.7-7.4 7-10.8.3-11.7 5.8Q.4 8.3-4.8 12.7q-2.8-4.6-11-3-.5-5.4-8.9-6.5 3.9-4.8-2.1-6.2 6.8-1.6 6.7-5.9 15.6 5.1 18-3.8 4 5 12.6 1.7-2.1 5.3 5 5.6-1.1 3.5 11.4 3.3" transform="translate(26.85 12.7)"/><path id="h" fill="url(#w)" d="M26.9-2q-8.2.7-7.4 7-10.8.3-11.7 5.8Q.4 8.3-4.8 12.7q-2.8-4.6-11-3-.5-5.4-8.9-6.5 3.9-4.8-2.1-6.2 6.8-1.6 6.7-5.9 15.6 5.1 18-3.8 4 5 12.6 1.7-2.1 5.3 5 5.6-1.1 3.5 11.4 3.3" transform="translate(26.85 12.7)"/><path id="j" fill="url(#x)" d="M26.9-2q-8.2.7-7.4 7-10.8.3-11.7 5.8Q.4 8.3-4.8 12.7q-2.8-4.6-11-3-.5-5.4-8.9-6.5 3.9-4.8-2.1-6.2 6.8-1.6 6.7-5.9 15.6 5.1 18-3.8 4 5 12.6 1.7-2.1 5.3 5 5.6-1.1 3.5 11.4 3.3" transform="translate(26.85 12.7)"/><path id="n" fill="url(#y)" d="M26.9-2q-8.2.7-7.4 7-10.8.3-11.7 5.8Q.4 8.3-4.8 12.7q-2.8-4.6-11-3-.5-5.4-8.9-6.5 3.9-4.8-2.1-6.2 6.8-1.6 6.7-5.9 15.6 5.1 18-3.8 4 5 12.6 1.7-2.1 5.3 5 5.6-1.1 3.5 11.4 3.3" transform="translate(26.85 12.7)"/><path id="p" fill="url(#z)" d="M26.9-2q-8.2.7-7.4 7-10.8.3-11.7 5.8Q.4 8.3-4.8 12.7q-2.8-4.6-11-3-.5-5.4-8.9-6.5 3.9-4.8-2.1-6.2 6.8-1.6 6.7-5.9 15.6 5.1 18-3.8 4 5 12.6 1.7-2.1 5.3 5 5.6-1.1 3.5 11.4 3.3" transform="translate(26.85 12.7)"/><path id="r" fill="url(#H)" d="M26.9-2q-8.2.7-7.4 7-10.8.3-11.7 5.8Q.4 8.3-4.8 12.7q-2.8-4.6-11-3-.5-5.4-8.9-6.5 3.9-4.8-2.1-6.2 6.8-1.6 6.7-5.9 15.6 5.1 18-3.8 4 5 12.6 1.7-2.1 5.3 5 5.6-1.1 3.5 11.4 3.3" transform="translate(26.85 12.7)"/><path id="t" fill="url(#I)" d="M26.9-2q-8.2.7-7.4 7-10.8.3-11.7 5.8Q.4 8.3-4.8 12.7q-2.8-4.6-11-3-.5-5.4-8.9-6.5 3.9-4.8-2.1-6.2 6.8-1.6 6.7-5.9 15.6 5.1 18-3.8 4 5 12.6 1.7-2.1 5.3 5 5.6-1.1 3.5 11.4 3.3" transform="translate(26.85 12.7)"/><radialGradient id="v" cx="0" cy="0" r="819.2" gradientTransform="matrix(0 -.0164 .0314 0 -1.5 -1)" gradientUnits="userSpaceOnUse" spreadMethod="pad"><stop offset=".4" stop-color="#000"/><stop offset="1" stop-color="#2b362d" stop-opacity="0"/></radialGradient><radialGradient id="w" cx="0" cy="0" r="819.2" gradientTransform="matrix(0 -.0164 .0314 0 -1.5 -1)" gradientUnits="userSpaceOnUse" spreadMethod="pad"><stop offset=".4" stop-color="#2e0c00"/><stop offset="1" stop-color="#4f3522" stop-opacity="0"/></radialGradient><radialGradient id="x" cx="0" cy="0" r="819.2" gradientTransform="matrix(0 -.0164 .0314 0 -1.5 -1)" gradientUnits="userSpaceOnUse" spreadMethod="pad"><stop offset=".4" stop-color="#5d1700"/><stop offset="1" stop-color="#743418" stop-opacity="0"/></radialGradient><radialGradient id="y" cx="0" cy="0" r="819.2" gradientTransform="matrix(0 -.0164 .0314 0 -1.5 -1)" gradientUnits="userSpaceOnUse" spreadMethod="pad"><stop offset=".4" stop-color="#8b2300"/><stop offset="1" stop-color="#98340e" stop-opacity="0"/></radialGradient><radialGradient id="z" cx="0" cy="0" r="819.2" gradientTransform="matrix(0 -.0164 .0314 0 -1.5 -1)" gradientUnits="userSpaceOnUse" spreadMethod="pad"><stop offset=".4" stop-color="#983b1c"/><stop offset="1" stop-color="#a44a28" stop-opacity="0"/></radialGradient><radialGradient id="H" cx="0" cy="0" r="819.2" gradientTransform="matrix(0 -.0164 .0314 0 -1.5 -1)" gradientUnits="userSpaceOnUse" spreadMethod="pad"><stop offset=".4" stop-color="#bf8571"/><stop offset="1" stop-color="#c68e79" stop-opacity="0"/></radialGradient><radialGradient id="I" cx="0" cy="0" r="819.2" gradientTransform="matrix(0 -.0164 .0314 0 -1.5 -1)" gradientUnits="userSpaceOnUse" spreadMethod="pad"><stop offset=".4" stop-color="#fff"/><stop offset="1" stop-color="#fff" stop-opacity="0"/></radialGradient></defs><g clip-path="url(#J)"><g transform="translate(25.75 65.75)"><use xlink:href="#K" width="53.7" height="25.4" transform="matrix(-.7966 0 0 .7966 18.6 -10.8)"/><use xlink:href="#L" width="30.4" height="20.2" transform="matrix(-1 0 .115 1.21 11.45 -17)"/><use xlink:href="#M" width="36.4" height="34.2" transform="translate(8.85 -64.75)"/><use xlink:href="#N" width="42" height="34.5" transform="translate(-24.75 -39.2)scale(.916)"/></g></g><g clip-path="url(#O)"><g transform="translate(96.75 65.75)"><use xlink:href="#P" width="53.7" height="25.4" transform="matrix(-.7966 0 0 .7966 19.45 -10.45)"/><use xlink:href="#Q" width="30.4" height="20.2" transform="matrix(-1 0 -.0337 1.078 14.25 -14.4)"/><use xlink:href="#M" width="36.4" height="34.2" transform="translate(8.85 -64.75)"/><use xlink:href="#N" width="42" height="34.5" transform="translate(-24.75 -39.2)scale(.916)"/></g></g><g clip-path="url(#R)"><g transform="translate(167.75 65.75)"><use xlink:href="#S" width="53.7" height="25.4" transform="matrix(-.7966 0 0 .7966 19.95 -10.2)"/><use xlink:href="#T" width="30.4" height="20.2" transform="matrix(-1 0 -.1087 .9902 15.8 -12.65)"/><use xlink:href="#M" width="36.4" height="34.2" transform="translate(8.85 -64.75)"/><use xlink:href="#N" width="42" height="34.5" transform="translate(-24.75 -39.2)scale(.916)"/></g></g><g clip-path="url(#U)"><g transform="translate(238.75 65.75)"><use xlink:href="#V" width="53.7" height="25.4" transform="matrix(-.7966 0 0 .7966 20.1 -10.15)"/><use xlink:href="#W" width="30.4" height="20.2" transform="matrix(-1 0 -.1311 .9602 16.25 -12.05)"/><use xlink:href="#X" width="42" height="34.5" transform="translate(-24.75 -39.2)scale(.916)"/></g></g><g clip-path="url(#Y)"><g transform="translate(309.75 65.75)"><use xlink:href="#Z" width="53.7" height="25.4" transform="matrix(-.7966 0 0 .7966 20.3 -10.05)"/><use xlink:href="#aa" width="30.4" height="20.2" transform="matrix(-1 0 -.1475 .9527 16.7 -11.85)"/><use xlink:href="#X" width="42" height="34.5" transform="translate(-24.75 -39.2)scale(.916)"/></g></g><g clip-path="url(#ab)"><g transform="translate(380.75 65.75)"><use xlink:href="#ac" width="53.7" height="25.4" transform="matrix(-.7966 0 0 .7966 20.55 -9.95)"/><use xlink:href="#ad" width="30.4" height="20.2" transform="matrix(-1 0 -.1671 .9446 17.2 -11.65)"/><use xlink:href="#X" width="42" height="34.5" transform="translate(-24.75 -39.2)scale(.916)"/></g></g><g clip-path="url(#ae)"><g transform="translate(451.75 65.75)"><use xlink:href="#af" width="53.7" height="25.4" transform="matrix(-.7966 0 0 .7966 20.75 -9.85)"/><use xlink:href="#ag" width="30.4" height="20.2" transform="matrix(-1 0 -.1866 .9367 17.65 -11.4)"/><use xlink:href="#ah" width="42" height="34.5" transform="translate(-24.75 -39.2)scale(.916)"/></g></g><g clip-path="url(#ai)"><g transform="translate(522.75 65.75)"><use xlink:href="#af" width="53.7" height="25.4" transform="matrix(-.7966 0 0 .7966 21.05 -9.7)"/><use xlink:href="#ag" width="30.4" height="20.2" transform="matrix(-1 0 -.2519 .9361 18.85 -11.1)"/><use xlink:href="#ah" width="42" height="34.5" transform="translate(-24.75 -39.2)scale(.916)"/></g></g><g clip-path="url(#aj)"><g transform="translate(593.75 65.75)"><use xlink:href="#af" width="53.7" height="25.4" transform="matrix(-.7966 0 0 .7966 21.35 -9.55)"/><use xlink:href="#ag" width="30.4" height="20.2" transform="matrix(-1 0 -.3164 .9306 19.95 -10.9)"/><use xlink:href="#ah" width="42" height="34.5" transform="translate(-24.75 -39.2)scale(.916)"/></g></g><g clip-path="url(#ak)"><g transform="translate(664.75 65.75)"><use xlink:href="#af" width="53.7" height="25.4" transform="matrix(-.7966 0 0 .7966 21.6 -9.45)"/><use xlink:href="#ag" width="30.4" height="20.2" transform="matrix(-1 0 -.3734 .9224 20.95 -10.55)"/><use xlink:href="#X" width="42" height="34.5" transform="translate(-24.75 -39.2)scale(.916)"/></g></g><g clip-path="url(#al)"><g transform="translate(735.75 65.75)"><use xlink:href="#af" width="53.7" height="25.4" transform="matrix(-.7966 0 0 .7966 21.85 -9.35)"/><use xlink:href="#ag" width="30.4" height="20.2" transform="matrix(-1 0 -.4225 .9131 21.85 -10.3)"/><use xlink:href="#X" width="42" height="34.5" transform="translate(-24.75 -39.2)scale(.916)"/></g></g><g clip-path="url(#am)"><g transform="translate(806.75 65.75)"><use xlink:href="#af" width="53.7" height="25.4" transform="matrix(-.7966 0 0 .7966 22.05 -9.25)"/><use xlink:href="#ag" width="30.4" height="20.2" transform="matrix(-1 0 -.4697 .9007 22.7 -10)"/><use xlink:href="#X" width="42" height="34.5" transform="translate(-24.75 -39.2)scale(.916)"/></g></g><g clip-path="url(#an)"><g transform="translate(877.75 65.75)"><use xlink:href="#af" width="53.7" height="25.4" transform="matrix(-.7966 0 0 .7966 22.2 -9.15)"/><use xlink:href="#ag" width="30.4" height="20.2" transform="matrix(-1 0 -.506 .8905 23.35 -9.8)"/><use xlink:href="#ao" width="36.4" height="34.2" transform="translate(8.85 -64.75)"/></g></g><g clip-path="url(#ap)"><g transform="translate(948.75 65.75)"><use xlink:href="#af" width="53.7" height="25.4" transform="matrix(-.7966 0 0 .7966 22.35 -9.1)"/><use xlink:href="#ag" width="30.4" height="20.2" transform="matrix(-1 0 -.5401 .8786 24 -9.55)"/><use xlink:href="#ao" width="36.4" height="34.2" transform="translate(8.85 -64.75)"/></g></g><g clip-path="url(#aq)"><g transform="translate(1019.75 65.75)"><use xlink:href="#af" width="53.7" height="25.4" transform="matrix(-.7966 0 0 .7966 22.5 -9.05)"/><use xlink:href="#ag" width="30.4" height="20.2" transform="matrix(-1 0 -.5663 .8689 24.45 -9.35)"/><use xlink:href="#ao" width="36.4" height="34.2" transform="translate(8.85 -64.75)"/></g></g><g clip-path="url(#ar)"><g transform="translate(1090.75 65.75)"><use xlink:href="#af" width="53.7" height="25.4" transform="matrix(-.7966 0 0 .7966 22.6 -9)"/><use xlink:href="#ag" width="30.4" height="20.2" transform="matrix(-1 0 -.5875 .8602 24.85 -9.25)"/><use xlink:href="#ao" width="36.4" height="34.2" transform="translate(8.85 -64.75)"/></g></g><g clip-path="url(#as)"><g transform="translate(1161.75 65.75)"><use xlink:href="#af" width="53.7" height="25.4" transform="matrix(-.7966 0 0 .7966 22.65 -8.95)"/><use xlink:href="#ag" width="30.4" height="20.2" transform="matrix(-1 0 -.601 .8548 25.05 -9.15)"/><use xlink:href="#ao" width="36.4" height="34.2" transform="translate(8.85 -64.75)"/></g></g><g clip-path="url(#at)"><g transform="translate(1232.75 65.75)"><use xlink:href="#af" width="53.7" height="25.4" transform="matrix(-.7966 0 0 .7966 22.7 -8.95)"/><use xlink:href="#ag" width="30.4" height="20.2" transform="matrix(-1 0 -.6097 .851 25.25 -9)"/><use xlink:href="#ao" width="36.4" height="34.2" transform="translate(8.85 -64.75)"/></g></g><g clip-path="url(#au)"><g transform="translate(1303.75 65.75)"><use xlink:href="#af" width="53.7" height="25.4" transform="matrix(-.7966 0 0 .7966 22.7 -8.95)"/><use xlink:href="#ag" width="30.4" height="20.2" transform="matrix(-1 0 -.615 .85 25.3 -9.05)"/><use xlink:href="#ao" width="36.4" height="34.2" transform="translate(8.85 -64.75)"/></g></g><g clip-path="url(#av)"><g transform="translate(1374.75 65.75)"><use xlink:href="#af" width="53.7" height="25.4" transform="matrix(-.7946 0 0 .7946 22.7 -8.95)"/><use xlink:href="#ag" width="30.4" height="20.2" transform="matrix(-.9975 0 -.6069 .8476 25.25 -9)"/><use xlink:href="#ao" width="36.4" height="34.2" transform="translate(8.85 -64.75)"/></g></g><g clip-path="url(#aw)"><g transform="translate(1445.75 65.75)"><use xlink:href="#af" width="53.7" height="25.4" transform="matrix(-.7885 0 0 .7885 22.55 -8.8)"/><use xlink:href="#ag" width="30.4" height="20.2" transform="matrix(-.9899 0 -.5873 .843 25 -8.85)"/><use xlink:href="#ao" width="36.4" height="34.2" transform="translate(8.85 -64.75)"/></g></g><g clip-path="url(#ax)"><g transform="translate(1516.75 65.75)"><use xlink:href="#af" width="53.7" height="25.4" transform="matrix(-.7785 0 0 .7785 22.4 -8.65)"/><use xlink:href="#ag" width="30.4" height="20.2" transform="matrix(-.9772 0 -.558 .8327 24.55 -8.65)"/><use xlink:href="#ao" width="36.4" height="34.2" transform="translate(8.85 -64.75)"/></g></g><g clip-path="url(#ay)"><g transform="translate(1587.75 65.75)"><use xlink:href="#af" width="53.7" height="25.4" transform="matrix(-.7643 0 0 .7643 22.2 -8.3)"/><use xlink:href="#ag" width="30.4" height="20.2" transform="matrix(-.9595 0 -.514 .8193 23.9 -8.4)"/><use xlink:href="#ao" width="36.4" height="34.2" transform="translate(8.85 -64.75)"/></g></g><g clip-path="url(#az)"><g transform="translate(1658.75 65.75)"><use xlink:href="#af" width="53.7" height="25.4" transform="matrix(-.7462 0 0 .7462 21.95 -7.95)"/><use xlink:href="#ag" width="30.4" height="20.2" transform="matrix(-.9367 0 -.4621 .7978 23.15 -7.95)"/><use xlink:href="#ao" width="36.4" height="34.2" transform="translate(8.85 -64.75)"/></g></g><g clip-path="url(#aA)"><g transform="translate(1729.75 65.75)"><use xlink:href="#af" width="53.7" height="25.4" transform="matrix(-.724 0 0 .724 21.7 -7.45)"/><use xlink:href="#ag" width="30.4" height="20.2" transform="matrix(-.9088 0 -.4011 .7684 22.15 -7.45)"/><use xlink:href="#ao" width="36.4" height="34.2" transform="translate(8.85 -64.75)"/></g></g><g clip-path="url(#aB)"><g transform="translate(1800.75 65.75)"><use xlink:href="#af" width="53.7" height="25.4" transform="matrix(-.6978 0 0 .6978 21.3 -6.9)"/><use xlink:href="#ag" width="30.4" height="20.2" transform="matrix(-.8759 0 -.3331 .729 21.2 -6.85)"/><use xlink:href="#ao" width="36.4" height="34.2" transform="translate(8.85 -64.75)"/></g></g><g clip-path="url(#aC)"><g transform="translate(1871.75 65.75)"><use xlink:href="#af" width="53.7" height="25.4" transform="matrix(-.6675 0 0 .6675 20.85 -6.35)"/><use xlink:href="#ag" width="30.4" height="20.2" transform="matrix(-.8379 0 -.2609 .6777 20 -6.05)"/><use xlink:href="#ao" width="36.4" height="34.2" transform="translate(8.85 -64.75)"/></g></g><g clip-path="url(#aD)"><g transform="translate(1942.75 65.75)"><use xlink:href="#af" width="53.7" height="25.4" transform="matrix(-.6332 0 0 .6332 20.4 -5.6)"/><use xlink:href="#ag" width="30.4" height="20.2" transform="matrix(-.7949 0 -.1881 .6126 18.9 -5)"/><use xlink:href="#ao" width="36.4" height="34.2" transform="translate(8.85 -64.75)"/></g></g><g clip-path="url(#aE)"><g transform="translate(2013.75 65.75)"><use xlink:href="#af" width="53.7" height="25.4" transform="matrix(-.5949 0 0 .5949 19.75 -4.8)"/><use xlink:href="#ag" width="30.4" height="20.2" transform="matrix(-.7468 0 -.1207 .5319 17.65 -3.8)"/><use xlink:href="#ao" width="36.4" height="34.2" transform="translate(8.85 -64.75)"/></g></g><g clip-path="url(#aF)"><g transform="translate(2084.75 65.75)"><use xlink:href="#af" width="53.7" height="25.4" transform="matrix(-.5525 0 0 .5525 19.25 -3.9)"/><use xlink:href="#ag" width="30.4" height="20.2" transform="matrix(-.6936 0 -.0598 .4359 16.5 -2.45)"/><use xlink:href="#ao" width="36.4" height="34.2" transform="translate(8.85 -64.75)"/></g></g><g clip-path="url(#aG)"><g transform="translate(2155.75 65.75)"><use xlink:href="#af" width="53.7" height="25.4" transform="matrix(-.5061 0 0 .5061 18.6 -3)"/><use xlink:href="#ag" width="30.4" height="20.2" transform="matrix(-.6354 0 -.0153 .324 15.45 -.85)"/><use xlink:href="#ao" width="36.4" height="34.2" transform="translate(8.85 -64.75)"/></g></g><g clip-path="url(#aH)"><g transform="translate(2226.75 65.75)"><use xlink:href="#af" width="53.7" height="25.4" transform="matrix(-.5061 0 0 .5061 18.6 -3)"/><use xlink:href="#ag" width="30.4" height="20.2" transform="matrix(-.5447 0 -.0124 .2778 14.35 -.25)"/><use xlink:href="#ao" width="36.4" height="34.2" transform="translate(8.85 -64.75)"/></g></g><g clip-path="url(#aI)"><g transform="translate(2297.75 65.75)"><use xlink:href="#af" width="53.7" height="25.4" transform="matrix(-.5061 0 0 .5061 18.6 -3)"/><use xlink:href="#ag" width="30.4" height="20.2" transform="matrix(-.454 0 -.0103 .2315 13.3 .3)"/><use xlink:href="#ao" width="36.4" height="34.2" transform="translate(8.85 -64.75)"/></g></g><g clip-path="url(#aJ)"><g transform="translate(2368.75 65.75)"><use xlink:href="#ag" width="30.4" height="20.2" transform="matrix(-.3633 0 -.0087 .1853 12.2 .95)"/><use xlink:href="#ao" width="36.4" height="34.2" transform="translate(8.85 -64.75)"/></g></g></svg>