<svg xmlns="http://www.w3.org/2000/svg" xmlns:xlink="http://www.w3.org/1999/xlink" width="1565" height="50" viewBox="0 0 1565 50"><defs><clipPath id="ao"><path d="M1 1h45v48H1z"/></clipPath><clipPath id="aD"><path d="M47 1h45v48H47z"/></clipPath><clipPath id="aE"><path d="M93 1h45v48H93z"/></clipPath><clipPath id="aF"><path d="M139 1h45v48h-45z"/></clipPath><clipPath id="aG"><path d="M185 1h45v48h-45z"/></clipPath><clipPath id="aH"><path d="M231 1h45v48h-45z"/></clipPath><clipPath id="aI"><path d="M277 1h45v48h-45z"/></clipPath><clipPath id="aJ"><path d="M323 1h45v48h-45z"/></clipPath><clipPath id="aK"><path d="M369 1h45v48h-45z"/></clipPath><clipPath id="aL"><path d="M415 1h45v48h-45z"/></clipPath><clipPath id="aM"><path d="M461 1h45v48h-45z"/></clipPath><clipPath id="aN"><path d="M507 1h45v48h-45z"/></clipPath><clipPath id="aO"><path d="M553 1h45v48h-45z"/></clipPath><clipPath id="aP"><path d="M599 1h45v48h-45z"/></clipPath><clipPath id="aQ"><path d="M645 1h45v48h-45z"/></clipPath><clipPath id="aR"><path d="M691 1h45v48h-45z"/></clipPath><clipPath id="aS"><path d="M737 1h45v48h-45z"/></clipPath><clipPath id="aT"><path d="M783 1h45v48h-45z"/></clipPath><clipPath id="aU"><path d="M829 1h45v48h-45z"/></clipPath><clipPath id="aV"><path d="M875 1h45v48h-45z"/></clipPath><clipPath id="aW"><path d="M921 1h45v48h-45z"/></clipPath><clipPath id="aX"><path d="M967 1h45v48h-45z"/></clipPath><clipPath id="aY"><path d="M1013 1h45v48h-45z"/></clipPath><clipPath id="aZ"><path d="M1059 1h45v48h-45z"/></clipPath><clipPath id="ba"><path d="M1105 1h45v48h-45z"/></clipPath><clipPath id="bb"><path d="M1151 1h45v48h-45z"/></clipPath><clipPath id="bc"><path d="M1197 1h45v48h-45z"/></clipPath><clipPath id="bd"><path d="M1243 1h45v48h-45z"/></clipPath><clipPath id="be"><path d="M1289 1h45v48h-45z"/></clipPath><clipPath id="bf"><path d="M1335 1h45v48h-45z"/></clipPath><clipPath id="bg"><path d="M1381 1h45v48h-45z"/></clipPath><clipPath id="bh"><path d="M1427 1h45v48h-45z"/></clipPath><clipPath id="bi"><path d="M1473 1h45v48h-45z"/></clipPath><clipPath id="bj"><path d="M1519 1h45v48h-45z"/></clipPath><g id="W"><path fill="#f28c26" d="M5.5 0v2H2.8l1.5-.6-.7-.6z"/><path fill="#9e5213" d="m5.5 0-2 .8.8.6-1.5.6H0V0z"/></g><g id="ab"><path fill="#d1581e" d="M6.1 0"/><path fill="#450b20" d="M6.1 0q.6 0 1.7.9l.9 2.5v2.2L8 7l-.5.9Q6.5 9 7 11.7q-.4 1-2.2 1.1l-2.3-.1q-.9-.3-1.9-1.1-.3-1.2.1-2.7Q1 7.7.2 6.1L0 3.6q.3-1.8.9-2L2.3.7q.6 1 3 .9Q7.2.8 6.1.1z"/></g><g id="ad"><path fill="#b5a68d" d="M5.9.6z"/><path fill="#f28c26" d="m5.8.6 1.8 1.6q.5 3.8-1 6.3L5 9.9l-2 .5Q1.2 10 .3 8.5-.3 7.3.1 5.8T.3 4Q0 3.6.6 1.6 1.2.6 2.9 0q1.8 0 2.9.6"/></g><g id="am"><path fill="#260610" d="M3.7 0Q5.5 0 6 1.3q.7 2.2.5 5.3-.3 2.7-1 4.1-.7.7-1.8 1h-.1l-.5-1.6v-.2l.6-2.1-.9-.9q0-1.7.3-2.4z"/><path fill="#450b20" d="m3.7 0-.6 4.5q-.2.7-.3 2.4l.9.9-.6 2v.2l.5 1.7-.6.2q-1.5 0-2.9-1.1-.4-4.6 1.3-10 1-.7 2.3-.8"/><path fill="none" stroke="#121e0d" stroke-linecap="round" stroke-linejoin="round" stroke-width="__RESOLUTION__" d="M3.7 11.8q1-.4 1.8-1.1.7-1.4 1-4.1.2-3.1-.5-5.3M3.6 11.8l-.6.1q-1.5 0-2.9-1.1-.4-4.6 1.3-10" vector-effect="non-scaling-stroke"/><path fill="#b38613" d="m2.2 9.3.2 1.5h-.7l-.1-1.7zm0-4.6L1.9 3l.7.3.2 1.7z"/><path fill="#ffbf1c" d="m1.6 9.1.5-1.7.7.4-.6 1.5zm1.2-4.2-.1 1.5h-.8l.3-1.7z"/></g><g id="an"><path fill="#a17836" d="M3.1 4.6q-.6 1.7-.4 2.9Q.9 7.9.2 7q.2-.8.1-3Q.2 2 1.2.6q1.8-1.4 3 .5z"/><path fill="#f7e9ca" d="m1.6 5.7 1.6.2-.3 1.6-1.5-.2z"/><path fill="#c19142" d="m1.6 5.7-.2 1.6-1.3-.9V4.9z"/><path fill="none" stroke="#8d682f" stroke-linecap="round" stroke-linejoin="round" stroke-width="__RESOLUTION__" d="m2.9 7.5.3-1.6-1.7-.2m-.1 1.6L.1 6.4V4.9" vector-effect="non-scaling-stroke"/><path fill="#f7e9ca" d="M3.8 3.7 3.5 5l-1.9.6.3-2.1z"/><path fill="#c19142" d="m1.9 3.5-.3 2.1L0 4.9l.2-1.2z"/><path fill="none" stroke="#8d682f" stroke-linecap="round" stroke-linejoin="round" stroke-width="__RESOLUTION__" d="m3.5 5 .3-1.3M0 4.8l.2-1" vector-effect="non-scaling-stroke"/><path fill="#f7e9ca" d="m2.4 1.8 1.9-.3-.2 1.8-2 .4z"/><path fill="#c19142" d="M2 3.7.3 2.8l.4-1.5 1.7.5z"/><path fill="none" stroke="#8d682f" stroke-linecap="round" stroke-linejoin="round" stroke-width="__RESOLUTION__" d="m2.4 1.8 1.9-.3-.2 1.8" vector-effect="non-scaling-stroke"/><path fill="#f7e9ca" d="m2.3 2.7 1.8.6-1 1.7-1.8-.7z"/><path fill="#c19142" d="M1.3 4.3.1 2.5 1 1.2l1.3 1.5z"/><path fill="none" stroke="#8d682f" stroke-linecap="round" stroke-linejoin="round" stroke-width="__RESOLUTION__" d="m2.3 2.7 1.8.6-1 1.7-1.8-.7L.1 2.5 1 1.2z" vector-effect="non-scaling-stroke"/></g><g id="b"><path fill="#c5b896" d="m4.5 2.7-.1-.2h.2z"/><path fill="none" stroke="#212121" stroke-linecap="round" stroke-linejoin="round" stroke-opacity=".5" stroke-width="__RESOLUTION__" d="m4.3 3.8.2.7-1.2.3v.4H1.9l-.2-.7v.9L.3 5 .1 3.8h0q-.2-.6.5-2L1.1.3M3.3 0l1.1 2.6" vector-effect="non-scaling-stroke"/><path fill="#45392e" fill-opacity=".3" d="M3.3 4.8v.4H1.9L1.5 4h1.8q.2-.2 1.1-.2l.2.7z"/></g><g id="d"><path fill="none" stroke="#212121" stroke-linecap="round" stroke-linejoin="round" stroke-opacity=".5" stroke-width="__RESOLUTION__" d="M3.6 4Q3.7 2 3 .9T1.7.1q-1.3 1.7-1 3l-.6 2q-.2.7.1 3.4m1.8.1.5-1.5.4-1.9" vector-effect="non-scaling-stroke"/><path fill="#45392e" fill-opacity=".3" d="M1.7 0q.8-.2 1.4.9.6 1 .4 3l-.7 1.3q-1.2.3-1.8-1Q.2 6.7.8 8.7l-.6-.2Q-.1 5.7.1 5l.6-2q-.3-1.3 1-3"/></g><g id="g"><path fill="#5c441d" fill-opacity=".6" d="M1 .8H0V0h5.5v.8z"/><path fill="none" stroke="#c9b9a0" stroke-linecap="round" stroke-linejoin="round" stroke-width="__RESOLUTION__" d="M1.3.8H1" vector-effect="non-scaling-stroke"/></g><g id="j"><path fill="none" stroke="#212121" stroke-linecap="round" stroke-linejoin="round" stroke-opacity=".5" stroke-width="__RESOLUTION__" d="M5.6 8.8q1.3-1.4 1-4.4M6 .8q.5 0 1.7.9l.9 2.5v2.2L8 7.7l-.5 1q-1 1.2-.5 3.8m-4.8-11-1.4.9q-.7.2-.9 2L.2 7Q1 8.6.8 9.7q-.4 1.5 0 2.7" vector-effect="non-scaling-stroke"/><path fill="#26060f" fill-opacity=".7" d="M7.6 8.6Q6.5 9.9 7 12.5q-.4.9-2.2 1l-2.3-.1Q1 10.7 3 8.3q3-2.8 2.3-6 1.9-.7.8-1.5.5 0 1.7.9l.9 2.5v2.2L8 7.7z"/><path fill="#6c3d24" d="m2.9 12.6 1.1.2q1.5.1 2.7-.8.3-.4.2-1.3l.5 2.2-.5.9q-1.4 1-2.4.9l-1.3-.3v-.1z"/><path fill="#88532d" d="m2.9 12.6.3 1.7-.6-.2-.4-.2-.1-.1H2L.9 13l-.3-1.4q1 .7 2.3 1"/><path fill="none" stroke="#562c1d" stroke-linecap="round" stroke-linejoin="round" stroke-width="__RESOLUTION__" d="m3.2 14.3 1.2.4q1 .2 2.4-.9l.5-.9-.4-2.1m-6.3.7L.9 13l1 .8h.2l.2.1.4.3.4.1" vector-effect="non-scaling-stroke"/><path fill="#fedb8b" d="m5.5.9.7-.9.3.2-.3.4.9.4.3-.5.3.2-.7.8z"/><path fill="#ffbf1c" d="m4 4.3 1-.2.2.3-.5.1.6 1 .4-.2.2.3-1.1.3z"/><path fill="#fedb8b" d="m3.3 2.9 1.6.8-.2 1.1-.4-.2.2-.4-.9-.5-.1.6-.3-.2z"/><path fill="#ffbf1c" d="m3.6 3.4.2.4-1.1.3-1-1.6 1.1-.3.3.4-.6.2.6.9z"/><path fill="#fedb8b" d="m1.3 1.5 1.4.8-.5.8-.4-.2.4-.3-.8-.6-.4.5-.3-.2zm6.9.6.3 1.8-.9.6-.1-.4.5-.2-.2-1-.5.2-.1-.4z"/><path fill="#ffbf1c" d="M6.9.7h1l.1.4-.5.1.4 1h.4l.2.3H7.4z"/><path fill="#fedb8b" d="m5.7 6.4-.3-1.2.3-.1.2.7.9-.2-.2-.6H7l.2 1.2z"/><path fill="#ffbf1c" d="M6.9 5.7 7 3.9l1.2.2-.1.4-.4-.2-.4 1 .6.2v.4z"/></g><g id="p"><path fill="none" stroke="#212121" stroke-linecap="round" stroke-linejoin="round" stroke-opacity=".5" stroke-width="__RESOLUTION__" d="M2.2 3.2Q2 1.3 4.2 0v.1l.6 2.2Q5 3.5 4.6 4" vector-effect="non-scaling-stroke"/><path fill="#45392e" fill-opacity=".3" d="M4.3.2Q4.5 2.2 3 4l-.9-.8Q2 1.5 4.1 0z"/><path fill="#290612" d="m4.5 3.9 3.4-.3.4 1.7-3.5.5z"/><path fill="#450b20" d="m4.5 3.9.3 1.9-4.1-1V3z"/><path fill="#a37a8a" d="M.7 4.9 0 4.1l.5-1.7.4.5z"/><path fill="#290612" d="m6.9 4.8.9-1.1 1.8 2-1.3 1.6z"/><path fill="none" stroke="#451700" stroke-linecap="round" stroke-linejoin="round" stroke-opacity=".7" stroke-width="__RESOLUTION__" d="m6.9 4.8 1.4 2.5 1.2-1.6-1.7-2z" vector-effect="non-scaling-stroke"/><path fill="#450b20" d="m6.8 7.9-1.5-.4 1.2-3.3H7l.1 1z"/><path fill="#290612" d="m7 4.2 1 .4L7.3 8l-.5-.2.4-2.7z"/><path fill="none" stroke="#451700" stroke-linecap="round" stroke-linejoin="round" stroke-opacity=".7" stroke-width="__RESOLUTION__" d="m6.8 7.9-1.5-.4 1.2-3.3h.4m.2 0 .9.4L7.3 8l-.5-.2" vector-effect="non-scaling-stroke"/></g><g id="n"><path fill="none" stroke="#212121" stroke-linecap="round" stroke-linejoin="round" stroke-opacity=".5" stroke-width="__RESOLUTION__" d="M6.8 9q1.4-2.5.6-6.5Q6.7 1.4 5.5.8h0Q4.3 0 2.5 0 .8.7.3 1.6-.2 3.6.2 4v2q-.3 1.5.3 2.8 1 1.7 2.9 2" vector-effect="non-scaling-stroke"/><path fill="#45392e" fill-opacity=".3" d="M5.5.7q1.2.7 1.9 1.8.7 4-.7 6.5-.9 1.1-1.5 1.4l-1.8.3q-1.2-.7-.7-3 .5-1 .4-2.4t.2-2.1q.5-.8 2.4-1.2.9-.3-.2-1.3"/><path fill="#d62929" d="M1.5 5.7Q.5 5.5.3 4.2l1.4 1.2q0 .2-.2.3"/></g><g id="r"><path fill="#a86537" d="M8.2 1.3 8.1 0l1.3 1.8-1 1.6z"/><path fill="#7d3d11" d="M8.5 3.4 3 3.8 3.6 2l4.6-.7z"/><path fill="#4f260b" d="M3 3.8 0 2.2.3 1l3.3.8z"/><path fill="#ffbf1c" d="M4.9 1.9q1.3-.2 2.7 0h.3q0 1-.3 1.8h-.2l-2.9.1q-.1-.7.3-1.7zM7.1 3l-.2.2H5.8l-.1-.3.2-.1.5-.1H7l.2.2zm-.1.4.2-1.1-1.7.2q-.2.2-.1 1z"/></g><g id="M"><path fill="#925230" d="M6.2 0"/><path fill="none" stroke="#212121" stroke-linecap="round" stroke-linejoin="round" stroke-opacity=".5" stroke-width="__RESOLUTION__" d="M5 .5 3.5.7Q2.3.4.4 1.7 0 2 0 2.8l.2.4.2.1 4.8.3.4-.3 1.2-.9L6.2.1" vector-effect="non-scaling-stroke"/><path fill="#45392e" fill-opacity=".3" d="m6.2 0 .6 2.4-1.2 1-.4.2Q4.6 3 4.9.4z"/></g><g id="O"><path fill="none" stroke="#212121" stroke-linecap="round" stroke-linejoin="round" stroke-opacity=".5" stroke-width="__RESOLUTION__" d="m0 7 .9-4.2.9-2.4L2 0m0 7.5 1.1-2.1 1-2.8.4-1.7" vector-effect="non-scaling-stroke"/><path fill="#45392e" fill-opacity=".3" d="m3.5.5 1 .4L4 2.6 3 5.3q-.9 2-1.1 2.1l-1 .2Q2.5 4.8 3.6.5"/></g><g id="S"><path fill="none" stroke="#212121" stroke-linecap="round" stroke-linejoin="round" stroke-opacity=".5" stroke-width="__RESOLUTION__" d="M0 3.8Q.4 1.4 1.2.5T2.7.2q.8 1.6.3 3.2v2l-.7 3.2M.1 8.5q.1-.1 0-1.6L.4 5" vector-effect="non-scaling-stroke"/><path fill="#45392e" fill-opacity=".3" d="M2.7.3q.8 1.6.3 3.2v2l-.7 3.2h-.7q.9-1.5.7-4.2l-1.2.9v.2q-.6 0-.8-.4L0 3.8Q.4 1.4 1.2.7 2-.4 2.7.2"/></g><g id="U"><path fill="#325772" d="M4.6.4 4.5 0z"/><path fill="none" stroke="#212121" stroke-linecap="round" stroke-linejoin="round" stroke-opacity=".5" stroke-width="__RESOLUTION__" d="m4.5 0 .1.4.5.9v1.4l-1.8.4h-.1L0 2.4l.1-1 .5-.2L1.8.4M0 2.4l.1-1 .5-.2" vector-effect="non-scaling-stroke"/><path fill="#45392e" fill-opacity=".3" d="M3.3 3.1Q2.9 2.5 3 .2L4.5 0 5 1.3v1.4z"/></g><g id="aC" transform="translate(1.85 .25)"><use xlink:href="#a" width="5.2" height="5.3" transform="matrix(.8679 0 0 1 -1.8 -.25)"/><use xlink:href="#b" width="4.6" height="5.3" transform="translate(-1.85 -.25)"/></g><g id="aB" transform="translate(2.4 1.2)"><use xlink:href="#c" width="3.6" height="8.7" transform="translate(-2.4 -1.15)"/><use xlink:href="#d" width="3.6" height="8.7" transform="translate(-2.4 -1.2)"/></g><g id="aA" transform="translate(.65 1)"><use xlink:href="#e" width="5.5" height="2" transform="translate(-.65 -1)"/><use xlink:href="#f" width="3" height="2" transform="translate(.55 -1)"/><use xlink:href="#g" width="5.5" height=".8" transform="translate(-.65 -1)"/></g><g id="ay" transform="translate(3.1 12.7)"><use xlink:href="#h" width="8.7" height="12.8" transform="translate(-3.1 -11.9)"/><use xlink:href="#i" width="5.5" height="6.9" transform="translate(-2.1 -11.95)"/><use xlink:href="#j" width="8.7" height="14.7" transform="translate(-3.1 -12.7)"/></g><g id="ax" transform="translate(4.85 12.2)"><use xlink:href="#k" width="2.6" height="3.6" transform="matrix(1.02 .0442 .0705 1.04 -.05 -12.2)"/><use xlink:href="#l" width="2.5" height="3.2" transform="translate(.3 -12.1)"/><use xlink:href="#m" width="7.7" height="10.3" transform="matrix(1.02 .0442 .0705 1.04 -4.85 -10.9)"/><use xlink:href="#n" width="7.7" height="10.8" transform="translate(-4.35 -10.75)"/><use xlink:href="#o" width="2.7" height="3.9" transform="matrix(1.02 .0442 .0705 1.04 -2.65 -11.5)"/><use xlink:href="#p" width="9.6" height="8.1" transform="translate(-4.6 -11.4)"/></g><g id="aw" transform="translate(3.3 2.15)"><use xlink:href="#q" width="7.3" height="5.3" transform="matrix(.9108 .0906 -.0533 1.03 -2.5 -.85)"/><use xlink:href="#r" width="9.4" height="3.9" transform="translate(-3.3 -2.15)"/></g><g id="av"><use xlink:href="#s" width="6.8" height="3.6"/><use xlink:href="#M" width="6.8" height="3.6"/></g><g id="at"><use xlink:href="#N" width="4.5" height="7.6"/><use xlink:href="#O" width="4.5" height="7.5"/></g><g id="as" transform="translate(-.05 3.15)"><use xlink:href="#P" width="5.9" height="5.5" transform="translate(.05 -3.15)"/><use xlink:href="#Q" width="5.3" height="5.5" transform="translate(.65 -3.15)"/></g><g id="ar"><use xlink:href="#R" width="3.1" height="8.7"/><use xlink:href="#S" width="3.1" height="8.7"/></g><g id="ap" transform="translate(3.2 .5)"><use xlink:href="#T" width="5.1" height="3.1" transform="translate(-3.15 -.5)"/><use xlink:href="#U" width="5.2" height="3.1" transform="translate(-3.2 -.5)"/></g><use xlink:href="#V" id="af" width="7.3" height="5.3"/><use xlink:href="#W" id="al" width="5.5" height="2"/><use xlink:href="#X" id="a" width="5.2" height="5.3"/><use xlink:href="#Y" id="c" width="3.6" height="8.7"/><use xlink:href="#Z" id="f" width="3" height="2"/><use xlink:href="#aa" id="i" width="5.5" height="6.9"/><use xlink:href="#ab" id="h" width="8.7" height="12.8"/><use xlink:href="#ac" id="o" width="2.7" height="3.9"/><use xlink:href="#ad" id="m" width="7.7" height="10.3"/><use xlink:href="#ae" id="k" width="2.6" height="3.6"/><use xlink:href="#af" id="q" width="7.3" height="5.3"/><use xlink:href="#ag" id="s" width="6.8" height="3.6"/><use xlink:href="#ah" id="N" width="4.5" height="7.6"/><use xlink:href="#ai" id="P" width="5.9" height="5.5"/><use xlink:href="#aj" id="R" width="3.1" height="8.7"/><use xlink:href="#ak" id="T" width="5.1" height="3.1"/><use xlink:href="#al" id="az" width="5.5" height="2"/><use xlink:href="#am" id="au" width="6.5" height="11.9"/><use xlink:href="#an" id="aq" width="4.3" height="7.7"/><path id="V" fill="#260610" d="M3.5-1Q3.3.5 2.4 1.2 1 2.6-.2 2.7q-1 0-1.9-.6-1.1-.8-1.4-2.3l-.1-1.6 7.3-.7z" transform="translate(3.65 2.65)"/><path id="X" fill="#9e5213" d="m2.5-.1.1.1-.2 1 .2.7-1.4.3v.4H-.4l-.3-1 .1.4-.1.8-1.3-.3-.4-1.3q-.2-.6.6-2l.5-1.5 2.6-.2z" transform="translate(2.6 2.65)"/><path id="Y" fill="#f28c26" d="M1.3-3.4q.7 1 .5 3L1 .9.6 2.8.3 4.3H-1l-.6-.2q-.3-2.7-.1-3.4l.6-2q-.3-1.3 1-3 .8-.3 1.4.8" transform="translate(1.8 4.3)"/><path id="Z" fill="#9e5213" d="M-.7-1H.6L1.5.2l-.4.8H-.6L0 .5l-1.6-.6.1-.1z" transform="translate(1.5 1)"/><path id="aa" fill="#9e5213" d="M2.4-3.4q1 .8-.8 1.6-2.4 0-3-.9 2.3-.8 3.8-.7m-4.3 1.8Q.7-.1.7 2.5.4 4.1-1.5 3-3.8-.1-2-1.6" transform="translate(2.7 3.45)"/><path id="ac" fill="#f28c26" d="m.9-1.8.4 2q.2 1.2-.3 1.7H-.6l-.7-.7q0-1.6 2.2-3.1z" transform="translate(1.35 1.95)"/><path id="ae" fill="#f28c26" d="M1.3-1.8V.5l-.1.8q-.1.6-.6.5l-1.2-.2-.7-.5Q-.9-1 1.3-1.8" transform="translate(1.3 1.8)"/><path id="ag" fill="#9e5213" d="M2.8-1.8 3.4.6l-1.2 1-.4.2-4.8-.2-.2-.2-.2-.4q0-.7.4-1.1 1.9-1.3 3.1-1l1.5-.2z" transform="translate(3.4 1.8)"/><path id="ah" fill="#f28c26" d="m2.3-2.9-.4 1.8-1 2.7-1.1 2-1 .2-1-.5.9-4.3.9-2.4.1-.4z" transform="translate(2.25 3.8)"/><path id="ai" fill="#9e5213" d="M2.4-.5h-.7l.8.4L2 1l-.7.3-.2 1.2H0l-.9.1q-1 .2-1.5-.3-1.3-2 .1-3.6h.2-.1q1-1.7 1.7-1.4l.7.6.3.2.2-.4h.1q1-.2 2.2.4Q3-.4 2.4-.5" transform="translate(2.95 2.75)"/><path id="aj" fill="#f28c26" d="M1.5-.9v2L.8 4.3H-.6l-.8-.1V2.5l.1-1.7-.2-1.4q.3-2.3 1.1-3.1t1.6-.4q.7 1.6.3 3.2" transform="translate(1.55 4.3)"/><path id="ak" fill="#9e5213" d="M2.5-.3v1.5l-1.8.4H.6L-2.5.7v-1l.5-.1 1.2-.8 2.7-.4z" transform="translate(2.55 1.55)"/><path id="e" fill="#f28c26" d="M.7-.2zL2 .5l-.7.6h-2v-2h1.9zM4.9-1v2H3.2l.4-.8-1-1.2z" transform="translate(.65 1)"/><path id="l" fill="none" stroke="#212121" stroke-linecap="round" stroke-linejoin="round" stroke-opacity=".5" stroke-width="__RESOLUTION__" d="M2.8-8.9v-.8l-.2-1.8v-.6Q.8-11.5.3-9.9" transform="translate(-.3 12.1)" vector-effect="non-scaling-stroke"/><path id="Q" fill="none" stroke="#1c1c1c" stroke-linecap="round" stroke-linejoin="round" stroke-opacity=".5" stroke-width="__RESOLUTION__" d="m4-.7.7-.2h.7q.7.2.6-1.3-1.1-.7-2.2-.5h-.1l-.2.4-.3-.3-.7-.5Q1.8-3.3.9-1.7h0q.9.9 2.2 1.4m.6 1 .7.2.7-.3.4-1.1-.8-.4M.7 2q.6.5 1.5.3l.9-.1v0h1q.4-.6.3-1.2" transform="translate(-.65 3.15)" vector-effect="non-scaling-stroke"/></defs><g clip-path="url(#ao)"><g transform="translate(24.5 46.85)"><use xlink:href="#ap" width="5.2" height="3.1" transform="matrix(.299 1.1011 -1.0674 .338 -10.5 -24.05)"/><use xlink:href="#aq" width="4.3" height="7.7" transform="matrix(-.2589 -.8467 -.7676 .2194 -4.6 -19.75)"/><use xlink:href="#ar" width="3.1" height="8.7" transform="matrix(-.4343 -.8912 .7901 -.417 -5.4 -32.2)"/><use xlink:href="#as" width="5.9" height="5.5" transform="matrix(.6108 .3573 .6299 -.3661 3.5 -35.5)"/><use xlink:href="#at" width="4.5" height="7.6" transform="matrix(-.0865 -.9913 .9338 -.0783 -.8 -33.85)"/><use xlink:href="#au" width="6.5" height="11.9" transform="matrix(.0706 -.9427 -1.0582 .0998 4.4 -19.85)"/><use xlink:href="#av" width="6.8" height="3.6" transform="matrix(-.3742 -.901 .8729 -.641 10.7 -2.9)"/><use xlink:href="#aq" width="4.3" height="7.7" transform="matrix(-.639 .7478 .7552 .7844 5.4 -16.15)"/><use xlink:href="#au" width="6.5" height="11.9" transform="matrix(.9978 -.574 .3792 .8326 -3.9 -20.95)"/><use xlink:href="#aw" width="9.4" height="7.4" transform="matrix(.9052 -.4188 .334 .9494 -5.5 -24.3)"/><use xlink:href="#ax" width="9.8" height="12.3" transform="matrix(.9643 -.1116 .237 1.0053 -13.65 -44.75)"/><use xlink:href="#ay" width="8.7" height="14.7" transform="matrix(.9349 -.5351 .6436 .854 -12.45 -32.95)"/><use xlink:href="#az" width="5.5" height="2" transform="matrix(.6816 .145 -.0201 -1.0585 1.55 -23.25)"/><use xlink:href="#aA" width="5.5" height="2" transform="matrix(.6417 -.3631 -.3902 -.8617 5.5 -21.95)"/><use xlink:href="#az" width="5.5" height="2" transform="matrix(.3127 -.8695 -.7583 -.5457 9.15 -23.95)"/><use xlink:href="#aA" width="5.5" height="2" transform="matrix(.4517 -.6456 -1.0045 -.6788 10.55 -27.65)"/><use xlink:href="#aA" width="5.5" height="2" transform="matrix(.4524 -.6528 -.8366 -.8881 12.4 -29.9)"/><use xlink:href="#aB" width="3.6" height="8.7" transform="matrix(.6939 1.0474 -.794 .4957 -9.05 -35)"/><use xlink:href="#at" width="4.5" height="7.6" transform="matrix(-.1125 1.0382 -.9088 .0303 -11.85 -32.85)"/><use xlink:href="#aC" width="4.6" height="5.3" transform="matrix(-.8786 .665 -.6799 -.7034 -15.8 -32.55)"/></g></g><g clip-path="url(#aD)"><g transform="translate(70.5 46.85)"><use xlink:href="#ap" width="5.2" height="3.1" transform="matrix(.5179 1.0021 -.9402 .5556 -10.8 -21.35)"/><use xlink:href="#aq" width="4.3" height="7.7" transform="matrix(-.3705 -.84 -.7459 .3135 -4.2 -17.9)"/><use xlink:href="#ar" width="3.1" height="8.7" transform="matrix(-.3804 -.9149 .8201 -.366 -5.45 -31.65)"/><use xlink:href="#as" width="5.9" height="5.5" transform="matrix(.5973 .3676 .6159 -.3673 3 -34.45)"/><use xlink:href="#at" width="4.5" height="7.6" transform="matrix(.0575 -.9929 .9221 .0007 -1 -33)"/><use xlink:href="#au" width="6.5" height="11.9" transform="matrix(-.0853 -.9637 -1.0097 .2567 4.35 -19.35)"/><use xlink:href="#av" width="6.8" height="3.6" transform="matrix(-.3028 -.8895 .9496 -.5562 9.1 -3.65)"/><use xlink:href="#aq" width="4.3" height="7.7" transform="matrix(-.5068 .8158 .8264 .6477 4.15 -15.8)"/><use xlink:href="#au" width="6.5" height="11.9" transform="matrix(1.0452 -.4894 .2923 .8581 -4.1 -20.5)"/><use xlink:href="#aw" width="9.4" height="7.4" transform="matrix(.9452 -.3354 .2867 .966 -5.75 -24.15)"/><use xlink:href="#ax" width="9.8" height="12.3" transform="matrix(.9678 -.1196 .2362 .9994 -13.75 -43.95)"/><use xlink:href="#ay" width="8.7" height="14.7" transform="matrix(.9421 -.5019 .5955 .8711 -12.1 -32.6)"/><use xlink:href="#az" width="5.5" height="2" transform="matrix(.6764 .1351 -.0419 -1.059 1.35 -22.5)"/><use xlink:href="#aA" width="5.5" height="2" transform="matrix(.6188 -.3878 -.4181 -.8455 5.3 -21.3)"/><use xlink:href="#az" width="5.5" height="2" transform="matrix(.2549 -.8999 -.7771 -.5012 8.8 -23.4)"/><use xlink:href="#aA" width="5.5" height="2" transform="matrix(.3949 -.6881 -1.0468 -.5874 10 -27.15)"/><use xlink:href="#aA" width="5.5" height="2" transform="matrix(.3588 -.7179 -.9487 -.7378 11.6 -29.65)"/><use xlink:href="#aB" width="3.6" height="8.7" transform="matrix(.7846 .939 -.7239 .5885 -9.15 -34.4)"/><use xlink:href="#at" width="4.5" height="7.6" transform="matrix(-.0772 1.0289 -.9253 .0445 -11.15 -31.85)"/><use xlink:href="#aC" width="4.6" height="5.3" transform="matrix(-.8595 .7042 -.6911 -.6586 -14.9 -31.65)"/></g></g><g clip-path="url(#aE)"><g transform="translate(116.5 46.85)"><use xlink:href="#ap" width="5.2" height="3.1" transform="matrix(.7117 .86 -.7714 .7356 -10.9 -18.4)"/><use xlink:href="#aq" width="4.3" height="7.7" transform="matrix(-.4843 -.8192 -.7135 .4054 -3.65 -16.1)"/><use xlink:href="#ar" width="3.1" height="8.7" transform="matrix(-.3279 -.9358 .8478 -.3136 -5.55 -31.2)"/><use xlink:href="#as" width="5.9" height="5.5" transform="matrix(.5831 .3801 .6036 -.3677 2.45 -33.35)"/><use xlink:href="#at" width="4.5" height="7.6" transform="matrix(.2035 -.9728 .9034 .0797 -1.2 -32.25)"/><use xlink:href="#au" width="6.5" height="11.9" transform="matrix(-.2489 -.9576 -.9395 .4001 4.15 -18.9)"/><use xlink:href="#av" width="6.8" height="3.6" transform="matrix(-.235 -.8738 1.0184 -.4658 7.6 -4.3)"/><use xlink:href="#aq" width="4.3" height="7.7" transform="matrix(-.3714 .8623 .8768 .5074 2.8 -15.25)"/><use xlink:href="#au" width="6.5" height="11.9" transform="matrix(1.0851 -.4064 .2066 .8752 -4.25 -20.3)"/><use xlink:href="#aw" width="9.4" height="7.4" transform="matrix(.9786 -.249 .2369 .9818 -5.9 -23.95)"/><use xlink:href="#ax" width="9.8" height="12.3" transform="matrix(.9714 -.129 .239 .9935 -13.9 -43.15)"/><use xlink:href="#ay" width="8.7" height="14.7" transform="matrix(.9512 -.4659 .55 .8858 -11.65 -32.25)"/><use xlink:href="#az" width="5.5" height="2" transform="matrix(.6711 .1276 -.0649 -1.059 1.1 -21.6)"/><use xlink:href="#aA" width="5.5" height="2" transform="matrix(.5961 -.4113 -.4466 -.8291 5.05 -20.75)"/><use xlink:href="#az" width="5.5" height="2" transform="matrix(.1976 -.9267 -.7952 -.456 8.45 -22.85)"/><use xlink:href="#aA" width="5.5" height="2" transform="matrix(.336 -.726 -1.0845 -.4905 9.4 -26.75)"/><use xlink:href="#aA" width="5.5" height="2" transform="matrix(.2552 -.771 -1.0362 -.5765 10.8 -29.5)"/><use xlink:href="#aB" width="3.6" height="8.7" transform="matrix(.8638 .8228 -.6427 .674 -9.1 -33.75)"/><use xlink:href="#at" width="4.5" height="7.6" transform="matrix(-.045 1.0188 -.9417 .0581 -10.55 -30.85)"/><use xlink:href="#aC" width="4.6" height="5.3" transform="matrix(-.8421 .7417 -.7003 -.6161 -14 -30.7)"/></g></g><g clip-path="url(#aF)"><g transform="translate(162.5 46.85)"><use xlink:href="#ap" width="5.2" height="3.1" transform="matrix(.8694 .6819 -.5683 .8713 -10.95 -15.3)"/><use xlink:href="#aq" width="4.3" height="7.7" transform="matrix(-.6008 -.781 -.6682 .4961 -3.15 -14.45)"/><use xlink:href="#ar" width="3.1" height="8.7" transform="matrix(-.2742 -.9538 .8722 -.259 -5.45 -30.6)"/><use xlink:href="#as" width="5.9" height="5.5" transform="matrix(.5686 .392 .5901 -.3698 2 -32.3)"/><use xlink:href="#at" width="4.5" height="7.6" transform="matrix(.345 -.9314 .8781 .1554 -1.35 -31.6)"/><use xlink:href="#au" width="6.5" height="11.9" transform="matrix(-.4128 -.9233 -.848 .5311 4 -18.55)"/><use xlink:href="#av" width="6.8" height="3.6" transform="matrix(-.1706 -.8531 1.0785 -.3672 6.05 -5)"/><use xlink:href="#aq" width="4.3" height="7.7" transform="matrix(-.2338 .8871 .9048 .3662 1.5 -14.75)"/><use xlink:href="#au" width="6.5" height="11.9" transform="matrix(1.1194 -.3165 .1204 .8839 -4.4 -19.95)"/><use xlink:href="#aw" width="9.4" height="7.4" transform="matrix(1.0041 -.1593 .1896 .9944 -6 -23.7)"/><use xlink:href="#ax" width="9.8" height="12.3" transform="matrix(.9744 -.1416 .2384 .9883 -13.9 -42.3)"/><use xlink:href="#ay" width="8.7" height="14.7" transform="matrix(.9576 -.4331 .5043 .8983 -11.25 -31.8)"/><use xlink:href="#az" width="5.5" height="2" transform="matrix(.6661 .1181 -.088 -1.0585 .95 -20.9)"/><use xlink:href="#aA" width="5.5" height="2" transform="matrix(.5712 -.4355 -.4745 -.8116 4.9 -20.1)"/><use xlink:href="#az" width="5.5" height="2" transform="matrix(.138 -.9499 -.8108 -.4103 8.1 -22.25)"/><use xlink:href="#aA" width="5.5" height="2" transform="matrix(.2735 -.7588 -1.1121 -.3952 8.8 -26.3)"/><use xlink:href="#aA" width="5.5" height="2" transform="matrix(.1465 -.8088 -1.097 -.4062 9.95 -29.35)"/><use xlink:href="#aB" width="3.6" height="8.7" transform="matrix(.9271 .701 -.5541 .7467 -9.15 -33.05)"/><use xlink:href="#at" width="4.5" height="7.6" transform="matrix(-.0135 1.0077 -.9579 .0722 -9.85 -29.75)"/><use xlink:href="#aC" width="4.6" height="5.3" transform="matrix(-.8206 .7815 -.7091 -.5715 -13.2 -29.75)"/></g></g><g clip-path="url(#aG)"><g transform="translate(208.5 46.85)"><use xlink:href="#ap" width="5.2" height="3.1" transform="matrix(.9846 .4766 -.3481 .9531 -10.9 -12.1)"/><use xlink:href="#aq" width="4.3" height="7.7" transform="matrix(-.7125 -.7285 -.6132 .5798 -2.65 -12.7)"/><use xlink:href="#ar" width="3.1" height="8.7" transform="matrix(-.2197 -.9686 .8931 -.2027 -5.45 -30.1)"/><use xlink:href="#as" width="5.9" height="5.5" transform="matrix(.5554 .4017 .5779 -.3697 1.5 -31.25)"/><use xlink:href="#at" width="4.5" height="7.6" transform="matrix(.4788 -.8695 .8466 .2275 -1.55 -31)"/><use xlink:href="#au" width="6.5" height="11.9" transform="matrix(-.5722 -.8607 -.7412 .6414 3.9 -18.2)"/><use xlink:href="#av" width="6.8" height="3.6" transform="matrix(-.1127 -.8275 1.129 -.2612 4.65 -5.75)"/><use xlink:href="#aq" width="4.3" height="7.7" transform="matrix(-.0944 .891 .9114 .2275 .15 -14.15)"/><use xlink:href="#au" width="6.5" height="11.9" transform="matrix(1.1463 -.2238 .0316 .8842 -4.6 -19.55)"/><use xlink:href="#aw" width="9.4" height="7.4" transform="matrix(1.0213 -.0671 .1416 1.0047 -6.2 -23.6)"/><use xlink:href="#ax" width="9.8" height="12.3" transform="matrix(.9778 -.1512 .241 .9824 -14.1 -41.6)"/><use xlink:href="#ay" width="8.7" height="14.7" transform="matrix(.9629 -.4003 .4587 .9085 -10.8 -31.35)"/><use xlink:href="#az" width="5.5" height="2" transform="matrix(.6606 .1108 -.1076 -1.0578 .7 -20.15)"/><use xlink:href="#aA" width="5.5" height="2" transform="matrix(.5468 -.4565 -.5018 -.7933 4.75 -19.5)"/><use xlink:href="#az" width="5.5" height="2" transform="matrix(.073 -.9694 -.8226 -.3669 7.75 -21.85)"/><use xlink:href="#aA" width="5.5" height="2" transform="matrix(.2078 -.7863 -1.1314 -.2989 8.2 -26)"/><use xlink:href="#aA" width="5.5" height="2" transform="matrix(.0295 -.8311 -1.1306 -.231 9.05 -29.3)"/><use xlink:href="#aB" width="3.6" height="8.7" transform="matrix(.9743 .5759 -.4547 .8095 -9.15 -32.3)"/><use xlink:href="#at" width="4.5" height="7.6" transform="matrix(.014 .9955 -.9736 .0898 -9.25 -28.85)"/><use xlink:href="#aC" width="4.6" height="5.3" transform="matrix(-.7999 .8181 -.7137 -.5298 -12.4 -28.85)"/></g></g><g clip-path="url(#aH)"><g transform="translate(254.5 46.85)"><use xlink:href="#ap" width="5.2" height="3.1" transform="matrix(1.0529 .254 -.1211 .982 -10.55 -8.8)"/><use xlink:href="#aq" width="4.3" height="7.7" transform="matrix(-.82 -.6603 -.5455 .6592 -2.15 -11)"/><use xlink:href="#ar" width="3.1" height="8.7" transform="matrix(-.1643 -.9803 .9103 -.1448 -5.5 -29.7)"/><use xlink:href="#as" width="5.9" height="5.5" transform="matrix(.5405 .4127 .5645 -.3713 1 -30.2)"/><use xlink:href="#at" width="4.5" height="7.6" transform="matrix(.6021 -.7886 .8094 .2953 -1.5 -30.4)"/><use xlink:href="#au" width="6.5" height="11.9" transform="matrix(-.722 -.7703 -.6187 .7339 3.7 -17.85)"/><use xlink:href="#av" width="6.8" height="3.6" transform="matrix(-.0561 -.7984 1.1689 -.1489 3.15 -6.55)"/><use xlink:href="#aq" width="4.3" height="7.7" transform="matrix(.0349 .8737 .8976 .0944 -1.25 -13.5)"/><use xlink:href="#au" width="6.5" height="11.9" transform="matrix(1.1655 -.1288 -.0502 .8758 -4.65 -19.3)"/><use xlink:href="#aw" width="9.4" height="7.4" transform="matrix(1.03 .0235 .0898 1.013 -6.35 -23.35)"/><use xlink:href="#ax" width="9.8" height="12.3" transform="matrix(.981 -.1608 .2404 .9772 -14.2 -40.8)"/><use xlink:href="#ay" width="8.7" height="14.7" transform="matrix(.9671 -.3677 .4102 .9178 -10.4 -30.9)"/><use xlink:href="#az" width="5.5" height="2" transform="matrix(.6554 .1015 -.1307 -1.0564 .55 -19.35)"/><use xlink:href="#aA" width="5.5" height="2" transform="matrix(.5217 -.4762 -.5283 -.774 4.5 -18.85)"/><use xlink:href="#az" width="5.5" height="2" transform="matrix(.0092 -.9845 -.8331 -.3206 7.45 -21.25)"/><use xlink:href="#aA" width="5.5" height="2" transform="matrix(.1395 -.808 -1.1425 -.2021 7.6 -25.55)"/><use xlink:href="#aA" width="5.5" height="2" transform="matrix(-.0879 -.8363 -1.1369 -.0554 8.2 -29.25)"/><use xlink:href="#aB" width="3.6" height="8.7" transform="matrix(1.0054 .4493 -.3484 .8591 -9.1 -31.6)"/><use xlink:href="#at" width="4.5" height="7.6" transform="matrix(.0472 .9823 -.9894 .1049 -8.6 -27.9)"/><use xlink:href="#aC" width="4.6" height="5.3" transform="matrix(-.7749 .8568 -.7177 -.4862 -11.55 -27.85)"/></g></g><g clip-path="url(#aI)"><g transform="translate(300.5 46.85)"><use xlink:href="#ap" width="5.2" height="3.1" transform="matrix(1.0721 .0277 .1 .9587 -10.2 -5.55)"/><use xlink:href="#aq" width="4.3" height="7.7" transform="matrix(-.923 -.5766 -.47 .7307 -1.65 -9.4)"/><use xlink:href="#ar" width="3.1" height="8.7" transform="matrix(-.1083 -.9892 .9239 -.0871 -5.45 -29.05)"/><use xlink:href="#as" width="5.9" height="5.5" transform="matrix(.5264 .4238 .5524 -.3727 .5 -29.15)"/><use xlink:href="#at" width="4.5" height="7.6" transform="matrix(.7136 -.6913 .7678 .359 -1.65 -29.85)"/><use xlink:href="#au" width="6.5" height="11.9" transform="matrix(-.8596 -.6537 -.4895 .8039 3.4 -17.6)"/><use xlink:href="#av" width="6.8" height="3.6" transform="matrix(-.0049 -.7655 1.1976 -.0307 1.7 -7.35)"/><use xlink:href="#aq" width="4.3" height="7.7" transform="matrix(.1627 .837 .8651 -.0304 -2.7 -12.75)"/><use xlink:href="#au" width="6.5" height="11.9" transform="matrix(1.1769 -.0365 -.1354 .8593 -4.8 -18.85)"/><use xlink:href="#aw" width="9.4" height="7.4" transform="matrix(1.0298 .1218 .043 1.0185 -6.4 -23.2)"/><use xlink:href="#ax" width="9.8" height="12.3" transform="matrix(.9842 -.174 .2447 .9717 -14.3 -39.9)"/><use xlink:href="#ay" width="8.7" height="14.7" transform="matrix(.9706 -.337 .3664 .924 -9.95 -30.5)"/><use xlink:href="#az" width="5.5" height="2" transform="matrix(.6499 .0954 -.1561 -1.0546 .3 -18.6)"/><use xlink:href="#aA" width="5.5" height="2" transform="matrix(.4956 -.4966 -.5543 -.7556 4.35 -18.25)"/><use xlink:href="#az" width="5.5" height="2" transform="matrix(-.0557 -.9951 -.8414 -.2762 7.1 -20.75)"/><use xlink:href="#aA" width="5.5" height="2" transform="matrix(.0707 -.8239 -1.1457 -.1065 7 -25.15)"/><use xlink:href="#aA" width="5.5" height="2" transform="matrix(-.208 -.8247 -1.1162 .1146 7.2 -29.1)"/><use xlink:href="#aB" width="3.6" height="8.7" transform="matrix(1.0208 .3267 -.2404 .8949 -8.9 -30.9)"/><use xlink:href="#at" width="4.5" height="7.6" transform="matrix(.0769 .9684 -1.0048 .1242 -7.95 -26.85)"/><use xlink:href="#aC" width="4.6" height="5.3" transform="matrix(-.7512 .8947 -.7186 -.4468 -10.7 -27)"/></g></g><g clip-path="url(#aJ)"><g transform="translate(346.5 46.85)"><use xlink:href="#ap" width="5.2" height="3.1" transform="matrix(1.0481 .0148 .0648 .9736 -6.5 -4.65)"/><use xlink:href="#aq" width="4.3" height="7.7" transform="matrix(-.995 -.3589 -.3276 .8506 .7 -9.6)"/><use xlink:href="#ar" width="3.1" height="8.7" transform="matrix(.2823 -.9489 .8598 .2427 -4.2 -29.7)"/><use xlink:href="#as" width="5.9" height="5.5" transform="matrix(.4148 .4752 .6201 -.2387 .65 -27.7)"/><use xlink:href="#at" width="4.5" height="7.6" transform="matrix(.7318 -.6557 .6255 .2996 -.9 -27.9)"/><use xlink:href="#au" width="6.5" height="11.9" transform="matrix(-.9849 -.3694 -.2854 .9165 3.7 -18.4)"/><use xlink:href="#av" width="6.8" height="3.6" transform="matrix(.0115 -.8161 1.1488 -.1114 -.15 -6.3)"/><use xlink:href="#aq" width="4.3" height="7.7" transform="matrix(-.1204 .8824 .8752 .2641 -3.45 -14.3)"/><use xlink:href="#au" width="6.5" height="11.9" transform="matrix(1.0532 .4653 -.4179 .7599 -3.6 -19.95)"/><use xlink:href="#aw" width="9.4" height="7.4" transform="matrix(1.0266 .196 -.0874 .9968 -5.45 -23.1)"/><use xlink:href="#ax" width="9.8" height="12.3" transform="matrix(.9886 -.1439 .2041 .98 -13.65 -40.55)"/><use xlink:href="#ay" width="8.7" height="14.7" transform="matrix(.9823 -.2599 .2713 .9591 -8.4 -31.2)"/><use xlink:href="#az" width="5.5" height="2" transform="matrix(.6571 .1677 -.0145 -1.0516 .45 -18.9)"/><use xlink:href="#aA" width="5.5" height="2" transform="matrix(.6196 -.3923 -.4108 -.822 4.25 -18.1)"/><use xlink:href="#az" width="5.5" height="2" transform="matrix(.1522 -.9572 -.8119 -.3932 7.2 -19.8)"/><use xlink:href="#aA" width="5.5" height="2" transform="matrix(.0765 -.8289 -1.1384 -.1606 8 -23.75)"/><use xlink:href="#aA" width="5.5" height="2" transform="matrix(-.2615 -.8262 -1.0829 .1966 8.15 -27.95)"/><use xlink:href="#aB" width="3.6" height="8.7" transform="matrix(1.0694 .1415 -.0961 .9464 -8 -30.6)"/><use xlink:href="#at" width="4.5" height="7.6" transform="matrix(.3641 .9109 -.8735 .4274 -6.95 -26.7)"/><use xlink:href="#aC" width="4.6" height="5.3" transform="matrix(-.2111 1.1113 -.8837 .0198 -9.7 -26)"/></g></g><g clip-path="url(#aK)"><g transform="translate(392.5 46.85)"><use xlink:href="#ap" width="5.2" height="3.1" transform="matrix(1.0241 .0056 .0312 .9874 -2.85 -3.7)"/><use xlink:href="#aq" width="4.3" height="7.7" transform="matrix(-1.0194 -.1399 -.158 .9425 3 -9.8)"/><use xlink:href="#ar" width="3.1" height="8.7" transform="matrix(.6281 -.7587 .6875 .5152 -2.85 -30.25)"/><use xlink:href="#as" width="5.9" height="5.5" transform="matrix(.3029 .5026 .6572 -.0931 1.05 -26.45)"/><use xlink:href="#at" width="4.5" height="7.6" transform="matrix(.75 -.6206 .4846 .2397 .05 -25.95)"/><use xlink:href="#au" width="6.5" height="11.9" transform="matrix(-1.0234 -.0718 -.0563 .9785 3.9 -19.4)"/><use xlink:href="#av" width="6.8" height="3.6" transform="matrix(.0344 -.8661 1.0942 -.1886 -2.1 -5.15)"/><use xlink:href="#aq" width="4.3" height="7.7" transform="matrix(-.4151 .8301 .7827 .5608 -4.3 -15.5)"/><use xlink:href="#au" width="6.5" height="11.9" transform="matrix(.7291 .8586 -.6497 .5719 -2.1 -20.75)"/><use xlink:href="#aw" width="9.4" height="7.4" transform="matrix(1.0177 .2737 -.2094 .9591 -4.55 -22.9)"/><use xlink:href="#ax" width="9.8" height="12.3" transform="matrix(.9927 -.114 .1617 .9877 -12.9 -41.2)"/><use xlink:href="#ay" width="8.7" height="14.7" transform="matrix(.9882 -.188 .1744 .9853 -6.65 -31.85)"/><use xlink:href="#az" width="5.5" height="2" transform="matrix(.6553 .2457 .118 -1.0303 .65 -19.35)"/><use xlink:href="#aA" width="5.5" height="2" transform="matrix(.7222 -.2568 -.2607 -.8639 4.15 -17.9)"/><use xlink:href="#az" width="5.5" height="2" transform="matrix(.3425 -.8773 -.7641 -.5118 7.45 -18.8)"/><use xlink:href="#aA" width="5.5" height="2" transform="matrix(.084 -.8338 -1.1286 -.2152 8.95 -22.3)"/><use xlink:href="#aA" width="5.5" height="2" transform="matrix(-.3176 -.8242 -1.0437 .2757 9.35 -26.85)"/><use xlink:href="#aB" width="3.6" height="8.7" transform="matrix(1.0856 -.0437 .0517 .975 -7 -30.2)"/><use xlink:href="#at" width="4.5" height="7.6" transform="matrix(.6248 .7694 -.656 .6641 -5.95 -26.25)"/><use xlink:href="#aC" width="4.6" height="5.3" transform="matrix(.3477 1.0378 -.7577 .5225 -8.9 -24.55)"/></g></g><g clip-path="url(#aL)"><g transform="translate(438.5 46.85)"><use xlink:href="#ap" width="5.2" height="3.1" transform="translate(.85 -2.9)"/><use xlink:href="#aq" width="4.3" height="7.7" transform="matrix(-.9975 .0698 .0358 .9992 5.2 -9.95)"/><use xlink:href="#ar" width="3.1" height="8.7" transform="matrix(.8724 -.4515 .4378 .7013 -1.05 -30.7)"/><use xlink:href="#as" width="5.9" height="5.5" transform="matrix(.1957 .5071 .6607 .0539 1.55 -25)"/><use xlink:href="#at" width="4.5" height="7.6" transform="matrix(.7673 -.5864 .3457 .1765 .85 -23.95)"/><use xlink:href="#au" width="6.5" height="11.9" transform="matrix(-.9754 .2173 .1826 .9831 3.9 -20.2)"/><use xlink:href="#av" width="6.8" height="3.6" transform="matrix(.0594 -.9157 1.0356 -.2586 -4 -4.1)"/><use xlink:href="#aq" width="4.3" height="7.7" transform="matrix(-.6894 .6791 .5872 .8264 -5.3 -16.55)"/><use xlink:href="#au" width="6.5" height="11.9" transform="matrix(.2768 1.0683 -.8053 .3172 -.5 -21.1)"/><use xlink:href="#aw" width="9.4" height="7.4" transform="matrix(1.0034 .3527 -.3287 .9061 -3.6 -22.8)"/><use xlink:href="#ax" width="9.8" height="12.3" transform="matrix(.9956 -.0872 .1223 .9931 -12.2 -41.8)"/><use xlink:href="#ay" width="8.7" height="14.7" transform="matrix(.9894 -.115 .0767 1.0018 -4.95 -32.3)"/><use xlink:href="#az" width="5.5" height="2" transform="matrix(.6451 .3231 .2481 -.9917 .85 -19.6)"/><use xlink:href="#aA" width="5.5" height="2" transform="matrix(.7939 -.0976 -.1087 -.8792 4.15 -17.85)"/><use xlink:href="#az" width="5.5" height="2" transform="matrix(.509 -.7599 -.7009 -.6224 7.6 -17.8)"/><use xlink:href="#aA" width="5.5" height="2" transform="matrix(.0889 -.8391 -1.1164 -.2692 10 -20.95)"/><use xlink:href="#aA" width="5.5" height="2" transform="matrix(-.3745 -.8184 -.9989 .35 10.4 -25.7)"/><use xlink:href="#aB" width="3.6" height="8.7" transform="matrix(1.0678 -.2379 .2123 .9787 -6 -29.85)"/><use xlink:href="#at" width="4.5" height="7.6" transform="matrix(.8344 .5575 -.3874 .8082 -4.85 -25.35)"/><use xlink:href="#aC" width="4.6" height="5.3" transform="matrix(.7844 .7118 -.3613 .889 -7.9 -22.6)"/></g></g><g clip-path="url(#aM)"><g transform="translate(484.5 46.85)"><use xlink:href="#ap" width="5.2" height="3.1" transform="matrix(.9024 -.4807 .4599 .8907 2 -2.45)"/><use xlink:href="#aq" width="4.3" height="7.7" transform="matrix(-.9595 .1825 .1146 .9986 5.5 -10.55)"/><use xlink:href="#ar" width="3.1" height="8.7" transform="matrix(.9766 -.2767 .2862 .773 -1.45 -31.25)"/><use xlink:href="#as" width="5.9" height="5.5" transform="matrix(.0793 .5446 .6531 .1605 -.2 -25.9)"/><use xlink:href="#at" width="4.5" height="7.6" transform="matrix(.9002 -.43 .3146 .2722 -.85 -25.05)"/><use xlink:href="#au" width="6.5" height="11.9" transform="matrix(-.965 .2728 .2308 .9787 3.95 -20.75)"/><use xlink:href="#av" width="6.8" height="3.6" transform="matrix(.2303 -.8894 1.0692 -.0803 -6.45 -4.8)"/><use xlink:href="#aq" width="4.3" height="7.7" transform="matrix(-.8285 .5042 .3786 .9356 -5 -16.55)"/><use xlink:href="#au" width="6.5" height="11.9" transform="matrix(.1973 1.0867 -.8367 .2685 -.05 -21.25)"/><use xlink:href="#aw" width="9.4" height="7.4" transform="matrix(1.0026 .3659 -.3613 .892 -3.3 -23.3)"/><use xlink:href="#ax" width="9.8" height="12.3" transform="matrix(.998 -.0571 .0794 .9972 -11.35 -42.35)"/><use xlink:href="#ay" width="8.7" height="14.7" transform="matrix(.9813 -.1386 .1319 .9988 -5.6 -32.65)"/><use xlink:href="#az" width="5.5" height="2" transform="matrix(.6244 .403 .3703 -.9371 1.05 -19.95)"/><use xlink:href="#aA" width="5.5" height="2" transform="matrix(.8289 .0804 .038 -.8683 4.05 -17.8)"/><use xlink:href="#az" width="5.5" height="2" transform="matrix(.6399 -.6152 -.6216 -.7251 7.8 -16.9)"/><use xlink:href="#aA" width="5.5" height="2" transform="matrix(.0967 -.8439 -1.1015 -.3226 11.05 -19.55)"/><use xlink:href="#aA" width="5.5" height="2" transform="matrix(-.4318 -.8087 -.949 .419 11.45 -24.6)"/><use xlink:href="#aB" width="3.6" height="8.7" transform="matrix(.9903 -.4211 .3892 .9263 -6.3 -29.65)"/><use xlink:href="#at" width="4.5" height="7.6" transform="matrix(.9299 .3718 -.2317 .8765 -4.85 -26)"/><use xlink:href="#aC" width="4.6" height="5.3" transform="matrix(.8904 .5581 -.2339 .9343 -6.9 -23.2)"/></g></g><g clip-path="url(#aN)"><g transform="translate(530.5 46.85)"><use xlink:href="#ap" width="5.2" height="3.1" transform="matrix(.5829 -.8685 .8206 .5818 3.8 -2.2)"/><use xlink:href="#aq" width="4.3" height="7.7" transform="matrix(-.9094 .2874 .1975 .9911 5.9 -11.25)"/><use xlink:href="#ar" width="3.1" height="8.7" transform="matrix(1.0459 -.0827 .1258 .8136 -1.7 -31.7)"/><use xlink:href="#as" width="5.9" height="5.5" transform="matrix(-.0416 .5559 .6277 .2675 -1.8 -26.85)"/><use xlink:href="#at" width="4.5" height="7.6" transform="matrix(1.0026 -.2414 .2556 .3636 -2.5 -26.2)"/><use xlink:href="#au" width="6.5" height="11.9" transform="matrix(-.952 .3286 .2794 .9725 3.9 -21.25)"/><use xlink:href="#av" width="6.8" height="3.6" transform="matrix(.3932 -.8319 1.0732 .0947 -8.85 -5.9)"/><use xlink:href="#aq" width="4.3" height="7.7" transform="matrix(-.926 .3017 .1494 .9955 -4.85 -16.55)"/><use xlink:href="#au" width="6.5" height="11.9" transform="matrix(.1168 1.1 -.8662 .2169 .3 -21.5)"/><use xlink:href="#aw" width="9.4" height="7.4" transform="matrix(1.0022 .3807 -.3955 .8767 -3 -23.8)"/><use xlink:href="#ax" width="9.8" height="12.3" transform="matrix(.9995 -.027 .0397 .9994 -10.6 -42.95)"/><use xlink:href="#ay" width="8.7" height="14.7" transform="matrix(.9727 -.1636 .1888 .9926 -6.2 -32.8)"/><use xlink:href="#az" width="5.5" height="2" transform="matrix(.5938 .4822 .4827 -.8678 1.3 -20.45)"/><use xlink:href="#aA" width="5.5" height="2" transform="matrix(.8215 .2714 .178 -.833 4.1 -17.75)"/><use xlink:href="#az" width="5.5" height="2" transform="matrix(.7336 -.4507 -.5273 -.8176 8 -16)"/><use xlink:href="#aA" width="5.5" height="2" transform="matrix(.1045 -.8487 -1.0828 -.3787 12.05 -18.05)"/><use xlink:href="#aA" width="5.5" height="2" transform="matrix(-.492 -.7933 -.8946 .4824 12.5 -23.5)"/><use xlink:href="#aB" width="3.6" height="8.7" transform="matrix(.8826 -.5855 .5543 .8428 -6.5 -29.35)"/><use xlink:href="#at" width="4.5" height="7.6" transform="matrix(.9866 .1704 -.0681 .9157 -4.85 -26.55)"/><use xlink:href="#aC" width="4.6" height="5.3" transform="matrix(.9695 .3884 -.1021 .9624 -5.75 -23.75)"/></g></g><g clip-path="url(#aO)"><g transform="translate(576.5 46.85)"><use xlink:href="#ap" width="5.2" height="3.1" transform="matrix(.1118 -1.0656 1.0013 .1409 6.3 -2.5)"/><use xlink:href="#aq" width="4.3" height="7.7" transform="matrix(-.8483 .3833 .2768 .9777 6.2 -11.9)"/><use xlink:href="#ar" width="3.1" height="8.7" transform="matrix(1.0751 .1275 -.0364 .8212 -1.9 -32.25)"/><use xlink:href="#as" width="5.9" height="5.5" transform="matrix(-.1652 .5394 .5847 .3705 -3.3 -27.85)"/><use xlink:href="#at" width="4.5" height="7.6" transform="matrix(1.0647 -.0289 .1718 .4408 -3.95 -27.45)"/><use xlink:href="#au" width="6.5" height="11.9" transform="matrix(-.9357 .3839 .3279 .9639 3.9 -21.7)"/><use xlink:href="#av" width="6.8" height="3.6" transform="matrix(.5439 -.7458 1.0469 .2761 -11.2 -6.95)"/><use xlink:href="#aq" width="4.3" height="7.7" transform="matrix(-.9748 .0816 -.0832 1.0001 -4.8 -16.45)"/><use xlink:href="#au" width="6.5" height="11.9" transform="matrix(.0392 1.1072 -.892 .1655 .7 -21.65)"/><use xlink:href="#aw" width="9.4" height="7.4" transform="matrix(1.0016 .3955 -.4263 .8615 -2.85 -24.25)"/><use xlink:href="#ax" width="9.8" height="12.3" transform="translate(-9.85 -43.45)"/><use xlink:href="#ay" width="8.7" height="14.7" transform="matrix(.9635 -.1882 .2421 .984 -6.8 -33)"/><use xlink:href="#az" width="5.5" height="2" transform="matrix(.5557 .5586 .5854 -.7859 1.45 -20.95)"/><use xlink:href="#aA" width="5.5" height="2" transform="matrix(.7706 .4628 .3118 -.775 4.05 -17.75)"/><use xlink:href="#az" width="5.5" height="2" transform="matrix(.7888 -.275 -.4195 -.8991 8.15 -15.1)"/><use xlink:href="#aA" width="5.5" height="2" transform="matrix(.1122 -.8538 -1.0637 -.4314 13.05 -16.6)"/><use xlink:href="#aA" width="5.5" height="2" transform="matrix(-.5497 -.7769 -.8366 .5421 13.55 -22.35)"/><use xlink:href="#aB" width="3.6" height="8.7" transform="matrix(.7511 -.7228 .7022 .7302 -6.65 -29.2)"/><use xlink:href="#at" width="4.5" height="7.6" transform="matrix(1.0002 -.0349 .1019 .9236 -4.6 -27.05)"/><use xlink:href="#aC" width="4.6" height="5.3" transform="matrix(1.0162 .212 .0264 .9719 -4.65 -24.35)"/></g></g><g clip-path="url(#aP)"><g transform="translate(622.5 46.85)"><use xlink:href="#ap" width="5.2" height="3.1" transform="matrix(.0246 -1.111 1.005 .0935 7.35 -2.75)"/><use xlink:href="#aq" width="4.3" height="7.7" transform="matrix(-.7776 .4689 .3584 .9566 6.45 -12.5)"/><use xlink:href="#ar" width="3.1" height="8.7" transform="matrix(1.0606 .3459 -.1992 .7953 -2.2 -32.6)"/><use xlink:href="#as" width="5.9" height="5.5" transform="matrix(-.2837 .4953 .5248 .4667 -4.8 -28.65)"/><use xlink:href="#at" width="4.5" height="7.6" transform="matrix(1.0809 .1915 .0638 .4978 -5.25 -28.7)"/><use xlink:href="#au" width="6.5" height="11.9" transform="matrix(-.9162 .4383 .3763 .9528 3.85 -22.25)"/><use xlink:href="#av" width="6.8" height="3.6" transform="matrix(.7901 -.4953 .8813 .6243 -13.35 -10)"/><use xlink:href="#aq" width="4.3" height="7.7" transform="matrix(-.9714 -.1413 -.3098 .9504 -4.9 -16.6)"/><use xlink:href="#au" width="6.5" height="11.9" transform="matrix(-.0389 1.1087 -.9151 .1088 1.05 -21.8)"/><use xlink:href="#aw" width="9.4" height="7.4" transform="matrix(1.0009 .4104 -.4593 .8438 -2.5 -24.75)"/><use xlink:href="#ax" width="9.8" height="12.3" transform="matrix(.9949 -.0178 .036 1.0047 -10.45 -43.7)"/><use xlink:href="#ay" width="8.7" height="14.7" transform="matrix(.9537 -.2124 .2983 .9716 -7.45 -33.15)"/><use xlink:href="#az" width="5.5" height="2" transform="matrix(.6191 .4809 .5053 -.8383 1.6 -21.4)"/><use xlink:href="#aA" width="5.5" height="2" transform="matrix(.7809 .4163 .3106 -.7855 4.5 -18.75)"/><use xlink:href="#az" width="5.5" height="2" transform="matrix(.8017 -.1855 -.3456 -.9465 8.5 -16.4)"/><use xlink:href="#aA" width="5.5" height="2" transform="matrix(.4288 -.7334 -.903 -.734 13.1 -17.1)"/><use xlink:href="#aA" width="5.5" height="2" transform="matrix(-.4328 -.8469 -.9237 .3792 14.7 -22.2)"/><use xlink:href="#aB" width="3.6" height="8.7" transform="matrix(.5968 -.8345 .8277 .592 -6.8 -29)"/><use xlink:href="#at" width="4.5" height="7.6" transform="matrix(.9705 -.2384 .2754 .8985 -4.25 -27.55)"/><use xlink:href="#aC" width="4.6" height="5.3" transform="matrix(1.0315 .028 .1619 .9626 -3.5 -24.85)"/></g></g><g clip-path="url(#aQ)"><g transform="translate(668.5 46.85)"><use xlink:href="#ap" width="5.2" height="3.1" transform="matrix(-.0658 -1.1492 1.0068 .0493 8.3 -2.9)"/><use xlink:href="#aq" width="4.3" height="7.7" transform="matrix(-.6988 .5435 .4354 .9302 6.65 -13.1)"/><use xlink:href="#ar" width="3.1" height="8.7" transform="matrix(.9991 .5667 -.3558 .7366 -2.35 -32.8)"/><use xlink:href="#as" width="5.9" height="5.5" transform="matrix(-.391 .4253 .4472 .5546 -6.3 -29.65)"/><use xlink:href="#at" width="4.5" height="7.6" transform="matrix(1.0477 .4241 -.0582 .5271 -6.3 -29.95)"/><use xlink:href="#au" width="6.5" height="11.9" transform="matrix(-.8936 .4918 .4243 .9393 3.9 -22.8)"/><use xlink:href="#av" width="6.8" height="3.6" transform="matrix(.9289 -.1685 .6083 .8913 -14.95 -13.35)"/><use xlink:href="#aq" width="4.3" height="7.7" transform="matrix(-.9158 -.3615 -.5212 .8485 -5.15 -16.6)"/><use xlink:href="#au" width="6.5" height="11.9" transform="matrix(-.117 1.1045 -.9345 .0498 1.35 -21.85)"/><use xlink:href="#aw" width="9.4" height="7.4" transform="matrix(.9998 .4253 -.4889 .8264 -2.3 -25.3)"/><use xlink:href="#ax" width="9.8" height="12.3" transform="matrix(.9895 -.0354 .0757 1.0079 -11.05 -43.95)"/><use xlink:href="#ay" width="8.7" height="14.7" transform="matrix(.9432 -.2363 .3539 .956 -8.05 -33.3)"/><use xlink:href="#az" width="5.5" height="2" transform="matrix(.6728 .3972 .4224 -.8835 1.85 -21.8)"/><use xlink:href="#aA" width="5.5" height="2" transform="matrix(.7901 .3696 .3111 -.7964 4.85 -19.9)"/><use xlink:href="#az" width="5.5" height="2" transform="matrix(.8055 -.0961 -.2698 -.9882 8.9 -17.6)"/><use xlink:href="#aA" width="5.5" height="2" transform="matrix(.6714 -.5031 -.6578 -.9815 13.05 -17.65)"/><use xlink:href="#aA" width="5.5" height="2" transform="matrix(-.3072 -.901 -.9806 .2047 15.75 -22.05)"/><use xlink:href="#aB" width="3.6" height="8.7" transform="matrix(.4274 -.9147 .9277 .4295 -6.65 -28.85)"/><use xlink:href="#at" width="4.5" height="7.6" transform="matrix(.8985 -.4345 .4433 .8408 -3.85 -28)"/><use xlink:href="#aC" width="4.6" height="5.3" transform="matrix(1.0139 -.1478 .2954 .9344 -2.3 -25.5)"/></g></g><g clip-path="url(#aR)"><g transform="translate(714.5 46.85)"><use xlink:href="#ap" width="5.2" height="3.1" transform="matrix(-.166 -1.1792 1.0067 .0053 9.45 -3.3)"/><use xlink:href="#aq" width="4.3" height="7.7" transform="matrix(-.6116 .6083 .5134 .8959 6.85 -13.65)"/><use xlink:href="#ar" width="3.1" height="8.7" transform="matrix(.8936 .7735 -.495 .649 -2.55 -33.05)"/><use xlink:href="#as" width="5.9" height="5.5" transform="matrix(-.4812 .3322 .3569 .6283 -7.65 -30.5)"/><use xlink:href="#at" width="4.5" height="7.6" transform="matrix(.9657 .6479 -.1936 .5237 -7.4 -31.1)"/><use xlink:href="#au" width="6.5" height="11.9" transform="matrix(-.8678 .5442 .4719 .9234 3.8 -23.3)"/><use xlink:href="#av" width="6.8" height="3.6" transform="matrix(.9362 .1871 .2567 1.0479 -15.7 -16.85)"/><use xlink:href="#aq" width="4.3" height="7.7" transform="matrix(-.8109 -.564 -.7003 .7031 -5.5 -16.8)"/><use xlink:href="#au" width="6.5" height="11.9" transform="matrix(-.1983 1.094 -.9501 -.005 1.75 -22.05)"/><use xlink:href="#aw" width="9.4" height="7.4" transform="matrix(.9985 .4403 -.5204 .8062 -2.05 -25.85)"/><use xlink:href="#ax" width="9.8" height="12.3" transform="matrix(.9836 -.0561 .1156 1.0095 -11.7 -44.2)"/><use xlink:href="#ay" width="8.7" height="14.7" transform="matrix(.9322 -.2598 .4086 .9372 -8.65 -33.35)"/><use xlink:href="#az" width="5.5" height="2" transform="matrix(.7163 .3053 .3356 -.9205 2.05 -22.4)"/><use xlink:href="#aA" width="5.5" height="2" transform="matrix(.7965 .3232 .314 -.8063 5.25 -20.9)"/><use xlink:href="#az" width="5.5" height="2" transform="matrix(.7994 -.0107 -.1862 -1.0244 9.25 -18.8)"/><use xlink:href="#aA" width="5.5" height="2" transform="matrix(.8046 -.2009 -.3464 -1.1489 13.15 -18.3)"/><use xlink:href="#aA" width="5.5" height="2" transform="matrix(-.1791 -.9366 -1.0049 .0237 16.7 -21.95)"/><use xlink:href="#aB" width="3.6" height="8.7" transform="matrix(.2493 -.9617 .9953 .2538 -6.65 -28.85)"/><use xlink:href="#at" width="4.5" height="7.6" transform="matrix(.7875 -.6113 .5968 .7537 -3.2 -28.45)"/><use xlink:href="#aC" width="4.6" height="5.3" transform="matrix(.9646 -.3232 .4243 .8877 -1 -26)"/></g></g><g clip-path="url(#aS)"><g transform="translate(760.5 46.85)"><use xlink:href="#ap" width="5.2" height="3.1" transform="matrix(-.2676 -1.201 1.0046 -.0354 10.4 -3.55)"/><use xlink:href="#aq" width="4.3" height="7.7" transform="matrix(-.5214 .6586 .5859 .857 7.1 -14.2)"/><use xlink:href="#ar" width="3.1" height="8.7" transform="matrix(.7418 .9629 -.6137 .5357 -2.8 -33.25)"/><use xlink:href="#as" width="5.9" height="5.5" transform="matrix(-.5487 .2221 .2545 .6873 -9.05 -31.3)"/><use xlink:href="#at" width="4.5" height="7.6" transform="matrix(.8327 .8583 -.3289 .4857 -8.15 -32.2)"/><use xlink:href="#au" width="6.5" height="11.9" transform="matrix(-.839 .5952 .519 .9051 3.75 -23.65)"/><use xlink:href="#av" width="6.8" height="3.6" transform="matrix(.808 .5269 -.1231 1.0712 -15.85 -20.1)"/><use xlink:href="#aq" width="4.3" height="7.7" transform="matrix(-.662 -.7379 -.8426 .5184 -6 -17.1)"/><use xlink:href="#au" width="6.5" height="11.9" transform="matrix(-.2752 1.0786 -.9616 -.0678 2.1 -22.15)"/><use xlink:href="#aw" width="9.4" height="7.4" transform="matrix(.9971 .4553 -.5511 .7849 -1.7 -26.3)"/><use xlink:href="#ax" width="9.8" height="12.3" transform="matrix(.9775 -.0733 .1559 1.0094 -12.4 -44.4)"/><use xlink:href="#ay" width="8.7" height="14.7" transform="matrix(.9206 -.2828 .4624 .9152 -9.15 -33.35)"/><use xlink:href="#az" width="5.5" height="2" transform="matrix(.7468 .2114 .2424 -.9498 2.2 -22.9)"/><use xlink:href="#aA" width="5.5" height="2" transform="matrix(.7994 .2798 .3143 -.8172 5.6 -21.95)"/><use xlink:href="#az" width="5.5" height="2" transform="matrix(.7841 .0722 -.1017 -1.0531 9.6 -20.15)"/><use xlink:href="#aA" width="5.5" height="2" transform="matrix(.8096 .1248 .0013 -1.2188 13.15 -19.05)"/><use xlink:href="#aA" width="5.5" height="2" transform="matrix(.6842 -.6296 -.5263 .9005 16.05 -21.5)"/><use xlink:href="#aB" width="3.6" height="8.7" transform="matrix(.0686 -.9751 1.0299 .0681 -6.45 -28.8)"/><use xlink:href="#at" width="4.5" height="7.6" transform="matrix(.6449 -.7591 .7355 .6361 -2.55 -28.85)"/><use xlink:href="#aC" width="4.6" height="5.3" transform="matrix(.887 -.4832 .5434 .825 .4 -26.55)"/></g></g><g clip-path="url(#aT)"><g transform="translate(806.5 46.85)"><use xlink:href="#ap" width="5.2" height="3.1" transform="matrix(-.3777 -1.2126 1.0004 -.0792 11.55 -3.85)"/><use xlink:href="#aq" width="4.3" height="7.7" transform="matrix(-.4282 .6964 .6582 .8101 7.3 -14.75)"/><use xlink:href="#ar" width="3.1" height="8.7" transform="matrix(.5534 1.1201 -.7074 .4014 -3.05 -33.35)"/><use xlink:href="#as" width="5.9" height="5.5" transform="matrix(-.5915 .0965 .1425 .7296 -10.4 -32)"/><use xlink:href="#at" width="4.5" height="7.6" transform="matrix(.657 1.0388 -.4578 .4105 -8.95 -33.15)"/><use xlink:href="#au" width="6.5" height="11.9" transform="matrix(-.8071 .6448 .5654 .8843 3.7 -24.15)"/><use xlink:href="#av" width="6.8" height="3.6" transform="matrix(.5603 .7983 -.4901 .9582 -15.55 -22.9)"/><use xlink:href="#aq" width="4.3" height="7.7" transform="matrix(-.4794 -.8721 -.9367 .3094 -6.4 -17.5)"/><use xlink:href="#au" width="6.5" height="11.9" transform="matrix(-.3544 1.0565 -.9689 -.132 2.5 -22.3)"/><use xlink:href="#aw" width="9.4" height="7.4" transform="matrix(.9954 .4703 -.5785 .7643 -1.5 -26.7)"/><use xlink:href="#ax" width="9.8" height="12.3" transform="matrix(.9708 -.0935 .1963 1.0078 -12.95 -44.6)"/><use xlink:href="#ay" width="8.7" height="14.7" transform="matrix(.9074 -.3084 .515 .8902 -9.6 -33.3)"/><use xlink:href="#az" width="5.5" height="2" transform="matrix(.7651 .1148 .15 -.9693 2.45 -23.3)"/><use xlink:href="#aA" width="5.5" height="2" transform="matrix(.8008 .2342 .3145 -.8281 5.95 -23.1)"/><use xlink:href="#az" width="5.5" height="2" transform="matrix(.7601 .1519 -.0103 -1.0748 9.9 -21.35)"/><use xlink:href="#aA" width="5.5" height="2" transform="matrix(.6883 .4231 .3669 -1.1796 13.35 -20)"/><use xlink:href="#aA" width="5.5" height="2" transform="matrix(.8751 .2432 .5092 .9551 15.4 -20.6)"/><use xlink:href="#aB" width="3.6" height="8.7" transform="matrix(-.1052 -.955 1.0296 -.1182 -6.4 -28.9)"/><use xlink:href="#at" width="4.5" height="7.6" transform="matrix(.4724 -.8762 .8511 .4932 -1.7 -29.5)"/><use xlink:href="#aC" width="4.6" height="5.3" transform="matrix(.7814 -.6289 .6558 .7443 1.8 -27.15)"/></g></g><g clip-path="url(#aU)"><g transform="translate(852.5 46.85)"><use xlink:href="#ap" width="5.2" height="3.1" transform="matrix(-.4924 -1.2153 .9947 -.1242 12.7 -4.2)"/><use xlink:href="#aq" width="4.3" height="7.7" transform="matrix(-.3347 .7222 .7262 .76 7.45 -15.25)"/><use xlink:href="#ar" width="3.1" height="8.7" transform="matrix(.3302 1.2414 -.7728 .252 -3.3 -33.25)"/><use xlink:href="#as" width="5.9" height="5.5" transform="matrix(-.6056 -.0363 .0251 .7536 -11.65 -32.7)"/><use xlink:href="#at" width="4.5" height="7.6" transform="matrix(.4406 1.1849 -.5687 .3031 -9.5 -33.95)"/><use xlink:href="#au" width="6.5" height="11.9" transform="matrix(-.7728 .6946 .6129 .8618 3.75 -24.6)"/><use xlink:href="#av" width="6.8" height="3.6" transform="matrix(.2262 .9613 -.796 .725 -14.7 -24.95)"/><use xlink:href="#aq" width="4.3" height="7.7" transform="matrix(-.268 -.9636 -.9805 .0843 -6.95 -18.05)"/><use xlink:href="#au" width="6.5" height="11.9" transform="matrix(-.432 1.0301 -.9727 -.1968 2.8 -22.35)"/><use xlink:href="#aw" width="9.4" height="7.4" transform="matrix(.995 .4856 -.6087 .7418 -1.2 -27.25)"/><use xlink:href="#ax" width="9.8" height="12.3" transform="matrix(.9643 -.1116 .237 1.0053 -13.65 -44.75)"/><use xlink:href="#ay" width="8.7" height="14.7" transform="matrix(.8956 -.3308 .566 .8641 -10.2 -33.35)"/><use xlink:href="#az" width="5.5" height="2" transform="matrix(.771 .0176 .0576 -.9799 2.7 -23.9)"/><use xlink:href="#aA" width="5.5" height="2" transform="matrix(.7996 .1918 .316 -.8395 6.4 -24.2)"/><use xlink:href="#az" width="5.5" height="2" transform="matrix(.7281 .2305 .0792 -1.0886 10.35 -22.65)"/><use xlink:href="#aA" width="5.5" height="2" transform="matrix(.4647 .6496 .7073 -1.0358 13.55 -20.95)"/><use xlink:href="#aA" width="5.5" height="2" transform="matrix(.2482 .8514 1.121 .0693 15.55 -18.55)"/><use xlink:href="#aB" width="3.6" height="8.7" transform="matrix(-.274 -.9039 .9945 -.3084 -6.2 -29.05)"/><use xlink:href="#at" width="4.5" height="7.6" transform="matrix(.2828 -.955 .939 .3325 -.8 -30.15)"/><use xlink:href="#aC" width="4.6" height="5.3" transform="matrix(.6562 -.7518 .7575 .6496 3.3 -27.75)"/></g></g><g clip-path="url(#aV)"><g transform="translate(898.5 46.85)"><use xlink:href="#ap" width="5.2" height="3.1" transform="matrix(-.5003 -1.1762 .999 -.1952 11.85 -5.05)"/><use xlink:href="#aq" width="4.3" height="7.7" transform="matrix(-.2552 .8076 .7864 .6388 6.3 -15.5)"/><use xlink:href="#ar" width="3.1" height="8.7" transform="matrix(.654 1.063 -.6629 .4876 -3.6 -33.25)"/><use xlink:href="#as" width="5.9" height="5.5" transform="matrix(-.584 .1351 .2005 .722 -10.75 -31.25)"/><use xlink:href="#at" width="4.5" height="7.6" transform="matrix(.6932 1.0239 -.4888 .4187 -8.9 -32.9)"/><use xlink:href="#au" width="6.5" height="11.9" transform="matrix(-.8411 .6127 .4997 .8707 3.95 -24.1)"/><use xlink:href="#av" width="6.8" height="3.6" transform="matrix(.2198 .9691 -.7915 .7417 -14.2 -22.6)"/><use xlink:href="#aq" width="4.3" height="7.7" transform="matrix(-.3648 -.9133 -.9641 .2057 -6.75 -16.6)"/><use xlink:href="#au" width="6.5" height="11.9" transform="matrix(-.2901 1.0623 -.9877 -.0475 2.05 -22.15)"/><use xlink:href="#aw" width="9.4" height="7.4" transform="matrix(1.0202 .3878 -.545 .7977 -1.9 -26.4)"/><use xlink:href="#ax" width="9.8" height="12.3" transform="matrix(.9678 -.1196 .2362 .9994 -13.75 -43.95)"/><use xlink:href="#ay" width="8.7" height="14.7" transform="matrix(.8862 -.3594 .5625 .8635 -10.35 -32.65)"/><use xlink:href="#az" width="5.5" height="2" transform="matrix(.759 -.1273 -.0619 -.9973 2.65 -22.85)"/><use xlink:href="#aA" width="5.5" height="2" transform="matrix(.8016 .0635 .2173 -.9009 5.8 -23.85)"/><use xlink:href="#az" width="5.5" height="2" transform="matrix(.7244 .1781 .0058 -1.1201 9.5 -23.05)"/><use xlink:href="#aA" width="5.5" height="2" transform="matrix(.5302 .5614 .6398 -1.1147 12.45 -21.65)"/><use xlink:href="#aA" width="5.5" height="2" transform="matrix(.3173 .7919 1.1596 -.087 14.65 -19.75)"/><use xlink:href="#aB" width="3.6" height="8.7" transform="matrix(-.2122 -.9177 .998 -.2583 -6.55 -28.5)"/><use xlink:href="#at" width="4.5" height="7.6" transform="matrix(.3743 -.9226 .9108 .4014 -1.3 -29.3)"/><use xlink:href="#aC" width="4.6" height="5.3" transform="matrix(.6305 -.7681 .786 .6167 2.6 -26.7)"/></g></g><g clip-path="url(#aW)"><g transform="translate(944.5 46.85)"><use xlink:href="#ap" width="5.2" height="3.1" transform="matrix(-.5079 -1.1385 .9972 -.2723 11.1 -5.8)"/><use xlink:href="#aq" width="4.3" height="7.7" transform="matrix(-.1602 .8846 .8303 .515 5.2 -15.75)"/><use xlink:href="#ar" width="3.1" height="8.7" transform="matrix(.9075 .8052 -.4826 .6805 -4 -33.15)"/><use xlink:href="#as" width="5.9" height="5.5" transform="matrix(-.5153 .2921 .362 .651 -9.7 -29.85)"/><use xlink:href="#at" width="4.5" height="7.6" transform="matrix(.8982 .8118 -.3882 .5137 -8.25 -31.65)"/><use xlink:href="#au" width="6.5" height="11.9" transform="matrix(-.9033 .5231 .3954 .866 4.15 -23.45)"/><use xlink:href="#av" width="6.8" height="3.6" transform="matrix(.2131 .9776 -.7857 .7619 -13.8 -20.4)"/><use xlink:href="#aq" width="4.3" height="7.7" transform="matrix(-.452 -.8556 -.9323 .3265 -6.55 -15.05)"/><use xlink:href="#au" width="6.5" height="11.9" transform="matrix(-.1471 1.0768 -.9803 .0995 1.3 -22)"/><use xlink:href="#aw" width="9.4" height="7.4" transform="matrix(1.0365 .2928 -.4771 .8493 -2.5 -25.55)"/><use xlink:href="#ax" width="9.8" height="12.3" transform="matrix(.9714 -.129 .239 .9935 -13.9 -43.15)"/><use xlink:href="#ay" width="8.7" height="14.7" transform="matrix(.8756 -.3909 .5588 .8648 -10.35 -32)"/><use xlink:href="#az" width="5.5" height="2" transform="matrix(.72 -.2666 -.1898 -.9988 2.5 -22.1)"/><use xlink:href="#aA" width="5.5" height="2" transform="matrix(.7841 -.0584 .1128 -.9508 5.25 -23.6)"/><use xlink:href="#az" width="5.5" height="2" transform="matrix(.7173 .1301 -.0654 -1.1467 8.8 -23.4)"/><use xlink:href="#aA" width="5.5" height="2" transform="matrix(.5816 .4686 .5689 -1.189 11.6 -22.45)"/><use xlink:href="#aA" width="5.5" height="2" transform="matrix(.3799 .7269 1.1748 -.2558 13.75 -20.95)"/><use xlink:href="#aB" width="3.6" height="8.7" transform="matrix(-.148 -.9285 1.0001 -.2083 -6.85 -27.8)"/><use xlink:href="#at" width="4.5" height="7.6" transform="matrix(.4651 -.8808 .8786 .4681 -1.8 -28.55)"/><use xlink:href="#aC" width="4.6" height="5.3" transform="matrix(.6081 -.7827 .8143 .5835 1.95 -25.65)"/></g></g><g clip-path="url(#aX)"><g transform="translate(990.5 46.85)"><use xlink:href="#ap" width="5.2" height="3.1" transform="matrix(-.5144 -1.1008 .9907 -.3469 10.3 -6.5)"/><use xlink:href="#aq" width="4.3" height="7.7" transform="matrix(-.0498 .9497 .856 .3908 3.95 -15.9)"/><use xlink:href="#ar" width="3.1" height="8.7" transform="matrix(1.0722 .4905 -.2479 .809 -4.45 -32.75)"/><use xlink:href="#as" width="5.9" height="5.5" transform="matrix(-.4074 .4205 .5018 .5448 -8.6 -28.25)"/><use xlink:href="#at" width="4.5" height="7.6" transform="matrix(1.0435 .5622 -.2678 .5861 -7.45 -30.25)"/><use xlink:href="#au" width="6.5" height="11.9" transform="matrix(-.9561 .4272 .2937 .8508 4.25 -22.8)"/><use xlink:href="#av" width="6.8" height="3.6" transform="matrix(.2063 .9861 -.7796 .7822 -13.25 -18.1)"/><use xlink:href="#aq" width="4.3" height="7.7" transform="matrix(-.5337 -.7883 -.8853 .4427 -6.3 -13.65)"/><use xlink:href="#au" width="6.5" height="11.9" transform="matrix(-.0054 1.0724 -.9501 .2464 .6 -21.65)"/><use xlink:href="#aw" width="9.4" height="7.4" transform="matrix(1.0448 .1946 -.4044 .8952 -3.15 -24.65)"/><use xlink:href="#ax" width="9.8" height="12.3" transform="matrix(.9744 -.1416 .2384 .9883 -13.9 -42.3)"/><use xlink:href="#ay" width="8.7" height="14.7" transform="matrix(.8639 -.4221 .5578 .8643 -10.5 -31.3)"/><use xlink:href="#az" width="5.5" height="2" transform="matrix(.6546 -.3982 -.3159 -.9848 2.45 -21.25)"/><use xlink:href="#aA" width="5.5" height="2" transform="matrix(.7481 -.1734 -.0005 -.9882 4.6 -23.25)"/><use xlink:href="#az" width="5.5" height="2" transform="matrix(.707 .0837 -.1436 -1.1682 8.05 -23.85)"/><use xlink:href="#aA" width="5.5" height="2" transform="matrix(.6181 .3725 .4905 -1.259 10.6 -23.25)"/><use xlink:href="#aA" width="5.5" height="2" transform="matrix(.4328 .6576 1.1649 -.4306 12.8 -22.1)"/><use xlink:href="#aB" width="3.6" height="8.7" transform="matrix(-.0864 -.9346 .9997 -.1587 -7.25 -27.25)"/><use xlink:href="#at" width="4.5" height="7.6" transform="matrix(.5515 -.8301 .8415 .5323 -2.25 -27.65)"/><use xlink:href="#aC" width="4.6" height="5.3" transform="matrix(.5827 -.7987 .8395 .5518 1.35 -24.45)"/></g></g><g clip-path="url(#aY)"><g transform="translate(1036.5 46.85)"><use xlink:href="#ap" width="5.2" height="3.1" transform="matrix(-.5197 -1.0634 .9784 -.422 9.35 -7.45)"/><use xlink:href="#aq" width="4.3" height="7.7" transform="matrix(.0744 .9999 .8642 .2687 2.7 -15.95)"/><use xlink:href="#ar" width="3.1" height="8.7" transform="matrix(1.1348 .1552 .0157 .858 -4.95 -32.3)"/><use xlink:href="#as" width="5.9" height="5.5" transform="matrix(-.2677 .5133 .6137 .4076 -7.55 -26.6)"/><use xlink:href="#at" width="4.5" height="7.6" transform="matrix(1.1232 .2911 -.1346 .6308 -6.45 -28.8)"/><use xlink:href="#au" width="6.5" height="11.9" transform="matrix(-.9976 .3293 .1987 .8246 4.4 -22.25)"/><use xlink:href="#av" width="6.8" height="3.6" transform="matrix(.2026 .9938 -.7756 .7999 -12.9 -15.9)"/><use xlink:href="#aq" width="4.3" height="7.7" transform="matrix(-.6064 -.7134 -.824 .5523 -6.2 -12.25)"/><use xlink:href="#au" width="6.5" height="11.9" transform="matrix(.1292 1.0492 -.898 .3866 -.15 -21.35)"/><use xlink:href="#aw" width="9.4" height="7.4" transform="matrix(1.0437 .1008 -.3273 .9348 -3.65 -23.85)"/><use xlink:href="#ax" width="9.8" height="12.3" transform="matrix(.9778 -.1512 .241 .9824 -14.1 -41.6)"/><use xlink:href="#ay" width="8.7" height="14.7" transform="matrix(.8525 -.4501 .5569 .8638 -10.6 -30.6)"/><use xlink:href="#az" width="5.5" height="2" transform="matrix(.5672 -.513 -.4415 -.9546 2.3 -20.45)"/><use xlink:href="#aA" width="5.5" height="2" transform="matrix(.6949 -.2814 -.1243 -1.0106 4.05 -22.95)"/><use xlink:href="#az" width="5.5" height="2" transform="matrix(.694 .0368 -.225 -1.1842 7.2 -24.25)"/><use xlink:href="#aA" width="5.5" height="2" transform="matrix(.6398 .2756 .4004 -1.325 9.6 -24)"/><use xlink:href="#aA" width="5.5" height="2" transform="matrix(.476 .5854 1.1284 -.6074 11.9 -23.3)"/><use xlink:href="#aB" width="3.6" height="8.7" transform="matrix(-.0247 -.9365 .9969 -.1097 -7.6 -26.6)"/><use xlink:href="#at" width="4.5" height="7.6" transform="matrix(.6324 -.7711 .7998 .5936 -2.65 -26.85)"/><use xlink:href="#aC" width="4.6" height="5.3" transform="matrix(.5597 -.812 .8651 .5163 .7 -23.4)"/></g></g><g clip-path="url(#aZ)"><g transform="translate(1082.5 46.85)"><use xlink:href="#ap" width="5.2" height="3.1" transform="matrix(-.5239 -1.026 .9588 -.5002 8.65 -8.15)"/><use xlink:href="#aq" width="4.3" height="7.7" transform="matrix(.2105 1.0327 .8558 .151 1.45 -16.1)"/><use xlink:href="#ar" width="3.1" height="8.7" transform="matrix(1.0976 -.1698 .2876 .8197 -5.3 -31.55)"/><use xlink:href="#as" width="5.9" height="5.5" transform="matrix(-.1095 .562 .6887 .2511 -6.2 -24.9)"/><use xlink:href="#at" width="4.5" height="7.6" transform="matrix(1.1354 .0152 .0029 .6457 -5.25 -27.3)"/><use xlink:href="#au" width="6.5" height="11.9" transform="matrix(-1.0298 .2242 .1116 .7884 4.45 -21.45)"/><use xlink:href="#av" width="6.8" height="3.6" transform="matrix(.1956 1.0022 -.7685 .8201 -12.3 -13.6)"/><use xlink:href="#aq" width="4.3" height="7.7" transform="matrix(-.6692 -.6324 -.7492 .6536 -6.05 -10.95)"/><use xlink:href="#au" width="6.5" height="11.9" transform="matrix(.2611 1.0086 -.8273 .5141 -.95 -21)"/><use xlink:href="#aw" width="9.4" height="7.4" transform="matrix(1.0343 .0054 -.2465 .9677 -4.3 -22.95)"/><use xlink:href="#ax" width="9.8" height="12.3" transform="matrix(.981 -.1608 .2404 .9772 -14.2 -40.8)"/><use xlink:href="#ay" width="8.7" height="14.7" transform="matrix(.8387 -.4807 .5531 .8652 -10.65 -29.95)"/><use xlink:href="#az" width="5.5" height="2" transform="matrix(.4581 -.6108 -.5644 -.9083 2.25 -19.65)"/><use xlink:href="#aA" width="5.5" height="2" transform="matrix(.6281 -.3751 -.2502 -1.018 3.55 -22.7)"/><use xlink:href="#az" width="5.5" height="2" transform="matrix(.6779 -.0036 -.3052 -1.1954 6.45 -24.55)"/><use xlink:href="#aA" width="5.5" height="2" transform="matrix(.647 .1798 .3075 -1.3835 8.7 -24.8)"/><use xlink:href="#aA" width="5.5" height="2" transform="matrix(.5092 .5114 1.0673 -.7787 11.1 -24.55)"/><use xlink:href="#aB" width="3.6" height="8.7" transform="matrix(.0369 -.9342 .9917 -.0612 -8.05 -26.15)"/><use xlink:href="#at" width="4.5" height="7.6" transform="matrix(.7071 -.7042 .7536 .6516 -3.05 -26.05)"/><use xlink:href="#aC" width="4.6" height="5.3" transform="matrix(.5336 -.8264 .8892 .4795 .1 -22.35)"/></g></g><g clip-path="url(#ba)"><g transform="translate(1128.5 46.85)"><use xlink:href="#ap" width="5.2" height="3.1" transform="matrix(-.5274 -.9904 .9359 -.5761 7.8 -8.95)"/><use xlink:href="#aq" width="4.3" height="7.7" transform="matrix(.3572 1.0471 .8322 .0401 .05 -16.05)"/><use xlink:href="#ar" width="3.1" height="8.7" transform="matrix(.97 -.4669 .5396 .6963 -5.55 -30.7)"/><use xlink:href="#as" width="5.9" height="5.5" transform="matrix(.0534 .5637 .7252 .0815 -4.85 -23.15)"/><use xlink:href="#at" width="4.5" height="7.6" transform="matrix(1.0816 -.2486 .1424 .63 -3.8 -25.8)"/><use xlink:href="#au" width="6.5" height="11.9" transform="matrix(-1.0511 .1182 .0359 .7435 4.45 -20.8)"/><use xlink:href="#av" width="6.8" height="3.6" transform="matrix(.1915 1.0107 -.7644 .8398 -11.9 -11.35)"/><use xlink:href="#aq" width="4.3" height="7.7" transform="matrix(-.7222 -.5482 -.6639 .7454 -5.9 -9.6)"/><use xlink:href="#au" width="6.5" height="11.9" transform="matrix(.3844 .9532 -.7375 .6333 -1.8 -20.6)"/><use xlink:href="#aw" width="9.4" height="7.4" transform="matrix(1.0163 -.083 -.164 .994 -4.75 -22)"/><use xlink:href="#ax" width="9.8" height="12.3" transform="matrix(.9842 -.174 .2447 .9717 -14.3 -39.9)"/><use xlink:href="#ay" width="8.7" height="14.7" transform="matrix(.8254 -.5107 .5527 .8661 -10.75 -29.3)"/><use xlink:href="#az" width="5.5" height="2" transform="matrix(.3357 -.6857 -.6856 -.8459 2.15 -18.9)"/><use xlink:href="#aA" width="5.5" height="2" transform="matrix(.5488 -.4578 -.3845 -1.0087 3 -22.5)"/><use xlink:href="#az" width="5.5" height="2" transform="matrix(.6591 -.0468 -.395 -1.2001 5.75 -24.95)"/><use xlink:href="#aA" width="5.5" height="2" transform="matrix(.6408 .0878 .2082 -1.436 7.75 -25.6)"/><use xlink:href="#aA" width="5.5" height="2" transform="matrix(.5333 .438 .9782 -.9495 10.3 -25.7)"/><use xlink:href="#aB" width="3.6" height="8.7" transform="matrix(.0995 -.9279 .9842 -.0156 -8.3 -25.45)"/><use xlink:href="#at" width="4.5" height="7.6" transform="matrix(.7753 -.632 .7048 .7069 -3.5 -25.35)"/><use xlink:href="#aC" width="4.6" height="5.3" transform="matrix(.5103 -.8397 .9118 .4445 -.6 -21.2)"/></g></g><g clip-path="url(#bb)"><g transform="translate(1174.5 46.85)"><use xlink:href="#ap" width="5.2" height="3.1" transform="matrix(-.4222 -.9922 .9866 -.4982 6.05 -8.75)"/><use xlink:href="#aq" width="4.3" height="7.7" transform="matrix(.1202 1.0928 .831 .1734 -.4 -16.8)"/><use xlink:href="#ar" width="3.1" height="8.7" transform="matrix(.9516 -.4507 .5724 .7175 -4.85 -30.7)"/><use xlink:href="#as" width="5.9" height="5.5" transform="matrix(.0303 .573 .7249 .141 -3.45 -23.2)"/><use xlink:href="#at" width="4.5" height="7.6" transform="matrix(1.0795 -.1916 .176 .6433 -2.8 -25.7)"/><use xlink:href="#au" width="6.5" height="11.9" transform="matrix(-1.0428 -.0237 -.0733 .7882 4.45 -20.75)"/><use xlink:href="#av" width="6.8" height="3.6" transform="matrix(.5768 .8126 -.5421 .9445 -11.5 -9.55)"/><use xlink:href="#aq" width="4.3" height="7.7" transform="matrix(-.8129 -.4242 -.5453 .8298 -4.6 -9.3)"/><use xlink:href="#au" width="6.5" height="11.9" transform="matrix(.5494 .8768 -.651 .7199 -2.25 -20.35)"/><use xlink:href="#aw" width="9.4" height="7.4" transform="matrix(1.014 -.0627 -.1365 .9962 -4.65 -22.05)"/><use xlink:href="#ax" width="9.8" height="12.3" transform="matrix(.9837 -.1737 .243 .9713 -13.95 -40.25)"/><use xlink:href="#ay" width="8.7" height="14.7" transform="matrix(.8632 -.4504 .477 .9042 -9.9 -30)"/><use xlink:href="#az" width="5.5" height="2" transform="matrix(.4806 -.5863 -.5624 -.923 1.95 -18.6)"/><use xlink:href="#aA" width="5.5" height="2" transform="matrix(.5543 -.4707 -.4136 -.9706 3.45 -21.45)"/><use xlink:href="#az" width="5.5" height="2" transform="matrix(.6708 -.1737 -.4913 -1.114 6.25 -23.95)"/><use xlink:href="#aA" width="5.5" height="2" transform="matrix(.667 -.0298 -.068 -1.4138 8.2 -25.05)"/><use xlink:href="#aA" width="5.5" height="2" transform="matrix(.6218 .325 .7473 -1.1147 10.55 -25.55)"/><use xlink:href="#aB" width="3.6" height="8.7" transform="matrix(.3221 -.8823 .9709 .2069 -8.3 -26.1)"/><use xlink:href="#at" width="4.5" height="7.6" transform="matrix(.882 -.5007 .565 .8035 -4.1 -25.2)"/><use xlink:href="#aC" width="4.6" height="5.3" transform="matrix(.703 -.7124 .7752 .6248 -2.1 -21)"/></g></g><g clip-path="url(#bc)"><g transform="translate(1220.5 46.85)"><use xlink:href="#ap" width="5.2" height="3.1" transform="matrix(-.321 -.985 1.0336 -.4136 4.35 -8.5)"/><use xlink:href="#aq" width="4.3" height="7.7" transform="matrix(-.1149 1.0867 .8083 .3074 -.75 -17.5)"/><use xlink:href="#ar" width="3.1" height="8.7" transform="matrix(.9319 -.4404 .6061 .7395 -4.2 -30.55)"/><use xlink:href="#as" width="5.9" height="5.5" transform="matrix(.0078 .5816 .7201 .2003 -2.1 -23.25)"/><use xlink:href="#at" width="4.5" height="7.6" transform="matrix(1.0743 -.1417 .2131 .6545 -1.95 -25.8)"/><use xlink:href="#au" width="6.5" height="11.9" transform="matrix(-1.0146 -.1656 -.1995 .8145 4.4 -20.65)"/><use xlink:href="#av" width="6.8" height="3.6" transform="matrix(.8383 .4801 -.315 .9959 -10.55 -6.95)"/><use xlink:href="#aq" width="4.3" height="7.7" transform="matrix(-.8843 -.2841 -.4151 .8983 -3.4 -9.1)"/><use xlink:href="#au" width="6.5" height="11.9" transform="matrix(.6996 .7737 -.555 .7965 -2.7 -20.15)"/><use xlink:href="#aw" width="9.4" height="7.4" transform="matrix(1.0115 -.0448 -.1138 .9977 -4.7 -22)"/><use xlink:href="#ax" width="9.8" height="12.3" transform="matrix(.9837 -.1737 .243 .9713 -13.5 -40.55)"/><use xlink:href="#ay" width="8.7" height="14.7" transform="matrix(.8982 -.387 .3991 .9372 -8.95 -30.55)"/><use xlink:href="#az" width="5.5" height="2" transform="matrix(.5992 -.4577 -.434 -.9831 1.75 -18.35)"/><use xlink:href="#aA" width="5.5" height="2" transform="matrix(.5621 -.4824 -.445 -.9309 3.9 -20.45)"/><use xlink:href="#az" width="5.5" height="2" transform="matrix(.6581 -.3047 -.5748 -1.0226 6.65 -22.95)"/><use xlink:href="#aA" width="5.5" height="2" transform="matrix(.6699 -.158 -.3283 -1.3396 8.8 -24.45)"/><use xlink:href="#aA" width="5.5" height="2" transform="matrix(.6866 .1971 .4915 -1.2287 10.8 -25.4)"/><use xlink:href="#aB" width="3.6" height="8.7" transform="matrix(.5302 -.7834 .9069 .424 -8.05 -26.75)"/><use xlink:href="#at" width="4.5" height="7.6" transform="matrix(.9676 -.3531 .4173 .8735 -4.6 -25.05)"/><use xlink:href="#aC" width="4.6" height="5.3" transform="matrix(.8651 -.542 .6038 .77 -3.4 -20.85)"/></g></g><g clip-path="url(#bd)"><g transform="translate(1266.5 46.85)"><use xlink:href="#ap" width="5.2" height="3.1" transform="matrix(-.2245 -.9682 1.0721 -.3282 2.65 -8.3)"/><use xlink:href="#aq" width="4.3" height="7.7" transform="matrix(-.3452 1.0291 .7624 .4411 -1.3 -17.95)"/><use xlink:href="#ar" width="3.1" height="8.7" transform="matrix(.9136 -.4271 .6405 .7608 -3.65 -30.55)"/><use xlink:href="#as" width="5.9" height="5.5" transform="matrix(-.0135 .5892 .7105 .2597 -.65 -23.25)"/><use xlink:href="#at" width="4.5" height="7.6" transform="matrix(1.0672 -.0891 .2495 .6645 -1.1 -25.7)"/><use xlink:href="#au" width="6.5" height="11.9" transform="matrix(-.9684 -.2973 -.3322 .821 4.3 -20.55)"/><use xlink:href="#av" width="6.8" height="3.6" transform="matrix(.9332 .0821 -.0926 .9962 -8.75 -4.05)"/><use xlink:href="#aq" width="4.3" height="7.7" transform="matrix(-.9311 -.1351 -.2769 .9466 -2.15 -8.9)"/><use xlink:href="#au" width="6.5" height="11.9" transform="matrix(.8328 .6421 -.4529 .859 -3.25 -19.8)"/><use xlink:href="#aw" width="9.4" height="7.4" transform="matrix(1.0087 -.027 -.0878 .999 -4.65 -22.05)"/><use xlink:href="#ax" width="9.8" height="12.3" transform="matrix(.9837 -.1737 .243 .9713 -13.1 -40.9)"/><use xlink:href="#ay" width="8.7" height="14.7" transform="matrix(.9285 -.3209 .3191 .9636 -7.95 -31.15)"/><use xlink:href="#az" width="5.5" height="2" transform="matrix(.6848 -.3062 -.2997 -1.0257 1.6 -18.15)"/><use xlink:href="#aA" width="5.5" height="2" transform="matrix(.5682 -.4961 -.4708 -.8919 4.3 -19.5)"/><use xlink:href="#az" width="5.5" height="2" transform="matrix(.6179 -.4386 -.6484 -.9237 7.15 -21.9)"/><use xlink:href="#aA" width="5.5" height="2" transform="matrix(.6486 -.286 -.5633 -1.2194 9.3 -23.95)"/><use xlink:href="#aA" width="5.5" height="2" transform="matrix(.7252 .0541 .2218 -1.2859 11.15 -25.35)"/><use xlink:href="#aB" width="3.6" height="8.7" transform="matrix(.7097 -.6359 .7947 .623 -7.75 -27.55)"/><use xlink:href="#at" width="4.5" height="7.6" transform="matrix(1.0283 -.1909 .2594 .9181 -4.95 -24.95)"/><use xlink:href="#aC" width="4.6" height="5.3" transform="matrix(.9869 -.3317 .4076 .871 -4.8 -20.75)"/></g></g><g clip-path="url(#be)"><g transform="translate(1312.5 46.85)"><use xlink:href="#ap" width="5.2" height="3.1" transform="matrix(-.1334 -.9422 1.1044 -.2357 .85 -8.2)"/><use xlink:href="#aq" width="4.3" height="7.7" transform="matrix(-.5565 .9237 .696 .5657 -1.9 -18.3)"/><use xlink:href="#ar" width="3.1" height="8.7" transform="matrix(.8952 -.4139 .6755 .7813 -3 -30.4)"/><use xlink:href="#as" width="5.9" height="5.5" transform="matrix(-.0392 .5957 .6949 .3211 .7 -23.45)"/><use xlink:href="#at" width="4.5" height="7.6" transform="matrix(1.0576 -.0375 .2894 .6715 -.1 -25.7)"/><use xlink:href="#au" width="6.5" height="11.9" transform="matrix(-.9042 -.4226 -.4707 .8053 4.15 -20.45)"/><use xlink:href="#av" width="6.8" height="3.6" transform="matrix(.9306 .1145 -.1005 .9941 -7.2 -3.85)"/><use xlink:href="#aq" width="4.3" height="7.7" transform="matrix(-.9525 .0213 -.1336 .9739 -1.05 -8.8)"/><use xlink:href="#au" width="6.5" height="11.9" transform="matrix(.9399 .4909 -.3409 .9097 -3.6 -19.4)"/><use xlink:href="#aw" width="9.4" height="7.4" transform="matrix(1.0055 -.0093 -.0618 .9996 -4.65 -22)"/><use xlink:href="#ax" width="9.8" height="12.3" transform="matrix(.9837 -.1737 .243 .9713 -12.7 -41.25)"/><use xlink:href="#ay" width="8.7" height="14.7" transform="matrix(.9531 -.2556 .2407 .9825 -7.05 -31.6)"/><use xlink:href="#az" width="5.5" height="2" transform="matrix(.7327 -.1425 -.1619 -1.0502 1.35 -17.9)"/><use xlink:href="#aA" width="5.5" height="2" transform="matrix(.5741 -.51 -.4943 -.8524 4.8 -18.4)"/><use xlink:href="#az" width="5.5" height="2" transform="matrix(.5501 -.5675 -.7057 -.8231 7.65 -20.9)"/><use xlink:href="#aA" width="5.5" height="2" transform="matrix(.6025 -.4116 -.7654 -1.06 9.8 -23.6)"/><use xlink:href="#aA" width="5.5" height="2" transform="matrix(.7336 -.0938 -.0456 -1.2855 11.55 -25.45)"/><use xlink:href="#aB" width="3.6" height="8.7" transform="matrix(.8493 -.4481 .6393 .7933 -7.3 -28.45)"/><use xlink:href="#at" width="4.5" height="7.6" transform="matrix(1.0617 -.0186 .0987 .9349 -5.35 -24.75)"/><use xlink:href="#aC" width="4.6" height="5.3" transform="matrix(1.0572 -.0979 .1976 .9242 -6 -20.7)"/></g></g><g clip-path="url(#bf)"><g transform="translate(1358.5 46.85)"><use xlink:href="#ap" width="5.2" height="3.1" transform="matrix(-.0517 -.9079 1.1282 -.1438 -.75 -8)"/><use xlink:href="#aq" width="4.3" height="7.7" transform="matrix(-.739 .7759 .6091 .6803 -2.55 -18.55)"/><use xlink:href="#ar" width="3.1" height="8.7" transform="matrix(.8768 -.4009 .7112 .801 -2.4 -30.35)"/><use xlink:href="#as" width="5.9" height="5.5" transform="matrix(-.0635 .6013 .6753 .3795 2.15 -23.4)"/><use xlink:href="#at" width="4.5" height="7.6" transform="matrix(1.0454 .0095 .3305 .6762 .8 -25.7)"/><use xlink:href="#au" width="6.5" height="11.9" transform="matrix(-.8261 -.5334 -.6111 .7661 4 -20.3)"/><use xlink:href="#av" width="6.8" height="3.6" transform="matrix(.927 .1473 -.1091 .9922 -5.6 -3.65)"/><use xlink:href="#aq" width="4.3" height="7.7" transform="matrix(-.946 .1841 .0052 .9797 0 -8.75)"/><use xlink:href="#au" width="6.5" height="11.9" transform="matrix(1.0196 .3221 -.2235 .9458 -3.85 -19.05)"/><use xlink:href="#aw" width="9.4" height="7.4" transform="matrix(1.002 .0051 -.0359 .9995 -4.65 -21.9)"/><use xlink:href="#ax" width="9.8" height="12.3" transform="matrix(.9837 -.1737 .243 .9713 -12.25 -41.55)"/><use xlink:href="#ay" width="8.7" height="14.7" transform="matrix(.9738 -.1853 .1581 .9955 -5.95 -32)"/><use xlink:href="#az" width="5.5" height="2" transform="matrix(.7422 .0267 -.0195 -1.0564 1.2 -17.7)"/><use xlink:href="#aA" width="5.5" height="2" transform="matrix(.5798 -.5239 -.518 -.8107 5.2 -17.5)"/><use xlink:href="#az" width="5.5" height="2" transform="matrix(.4553 -.6857 -.75 -.7204 8.1 -19.95)"/><use xlink:href="#aA" width="5.5" height="2" transform="matrix(.5318 -.5296 -.9283 -.8696 10.35 -23.15)"/><use xlink:href="#aA" width="5.5" height="2" transform="matrix(.7104 -.2452 -.3072 -1.2285 11.95 -25.4)"/><use xlink:href="#aB" width="3.6" height="8.7" transform="matrix(.9401 -.2306 .448 .9254 -6.6 -29.4)"/><use xlink:href="#at" width="4.5" height="7.6" transform="matrix(1.0649 .1594 -.0569 .924 -5.6 -24.7)"/><use xlink:href="#aC" width="4.6" height="5.3" transform="matrix(1.0715 .1466 -.009 .9285 -7.1 -20.65)"/></g></g><g clip-path="url(#bg)"><g transform="translate(1404.5 46.85)"><use xlink:href="#ap" width="5.2" height="3.1" transform="matrix(.0254 -.8667 1.1445 -.0484 -2.45 -8)"/><use xlink:href="#aq" width="4.3" height="7.7" transform="matrix(-.8848 .5958 .5029 .7834 -3.35 -18.7)"/><use xlink:href="#ar" width="3.1" height="8.7" transform="matrix(.8584 -.3904 .7485 .8215 -1.8 -30.35)"/><use xlink:href="#as" width="5.9" height="5.5" transform="matrix(-.0896 .6059 .6507 .4389 3.65 -23.5)"/><use xlink:href="#at" width="4.5" height="7.6" transform="matrix(1.0309 .0594 .3724 .6798 1.7 -25.65)"/><use xlink:href="#au" width="6.5" height="11.9" transform="matrix(-.7344 -.634 -.75 .7045 3.8 -20.15)"/><use xlink:href="#av" width="6.8" height="3.6" transform="matrix(.9225 .1814 -.1193 .9904 -3.9 -3.45)"/><use xlink:href="#aq" width="4.3" height="7.7" transform="matrix(-.913 .3445 .1507 .9644 .85 -8.65)"/><use xlink:href="#au" width="6.5" height="11.9" transform="matrix(1.0696 .1399 -.1051 .967 -4.2 -18.55)"/><use xlink:href="#aw" width="9.4" height="7.4" transform="matrix(.9982 .0248 -.0139 .9987 -4.55 -22)"/><use xlink:href="#ax" width="9.8" height="12.3" transform="matrix(.9842 -.174 .2447 .9717 -11.8 -41.9)"/><use xlink:href="#ay" width="8.7" height="14.7" transform="matrix(.9894 -.115 .0767 1.0018 -4.95 -32.3)"/><use xlink:href="#az" width="5.5" height="2" transform="matrix(.7119 .1969 .1158 -1.0438 1.05 -17.55)"/><use xlink:href="#aA" width="5.5" height="2" transform="matrix(.587 -.5382 -.5385 -.7709 5.7 -16.5)"/><use xlink:href="#az" width="5.5" height="2" transform="matrix(.3368 -.7881 -.784 -.6163 8.65 -18.95)"/><use xlink:href="#aA" width="5.5" height="2" transform="matrix(.4384 -.6364 -1.0488 -.6592 10.7 -22.85)"/><use xlink:href="#aA" width="5.5" height="2" transform="matrix(.657 -.3914 -.5494 -1.1207 12.3 -25.6)"/><use xlink:href="#aB" width="3.6" height="8.7" transform="matrix(.9758 .003 .2323 1.0122 -5.8 -30.15)"/><use xlink:href="#at" width="4.5" height="7.6" transform="matrix(1.0388 .3392 -.2097 .8871 -5.65 -24.45)"/><use xlink:href="#aC" width="4.6" height="5.3" transform="matrix(1.027 .3989 -.2152 .8856 -8.1 -20.6)"/></g></g><g clip-path="url(#bh)"><g transform="translate(1450.5 46.85)"><use xlink:href="#ap" width="5.2" height="3.1" transform="matrix(.7406 -.5606 .737 .8601 -6.7 -10.4)"/><use xlink:href="#aq" width="4.3" height="7.7" transform="matrix(-1.0001 .2037 .1576 .8911 -2.85 -18)"/><use xlink:href="#ar" width="3.1" height="8.7" transform="matrix(.6751 -.7147 .8954 .5339 -3.1 -30.45)"/><use xlink:href="#as" width="5.9" height="5.5" transform="matrix(.0859 .6272 .7314 .2452 3.5 -25.9)"/><use xlink:href="#at" width="4.5" height="7.6" transform="matrix(.9733 -.3318 .5797 .6031 .5 -27.05)"/><use xlink:href="#au" width="6.5" height="11.9" transform="matrix(-.6792 -.6949 -.8001 .5836 4.15 -19.75)"/><use xlink:href="#av" width="6.8" height="3.6" transform="matrix(.8476 -.3874 .4801 .881 -2.2 -1.85)"/><use xlink:href="#aq" width="4.3" height="7.7" transform="matrix(-.869 .4438 .2847 .9583 1.9 -10.1)"/><use xlink:href="#au" width="6.5" height="11.9" transform="matrix(1.0943 -.0146 .0089 .9595 -4.15 -18.85)"/><use xlink:href="#aw" width="9.4" height="7.4" transform="matrix(.9962 -.0613 .0486 .9992 -4.65 -22.4)"/><use xlink:href="#ax" width="9.8" height="12.3" transform="matrix(.9809 -.1607 .2402 .977 -12.05 -42.4)"/><use xlink:href="#ay" width="8.7" height="14.7" transform="matrix(.9918 -.2065 .2036 .9974 -6.65 -32.55)"/><use xlink:href="#az" width="5.5" height="2" transform="matrix(.7067 .1868 .0921 -1.0471 1.5 -18.5)"/><use xlink:href="#aA" width="5.5" height="2" transform="matrix(.6367 -.4553 -.461 -.8202 5.85 -17.25)"/><use xlink:href="#az" width="5.5" height="2" transform="matrix(.3803 -.7774 -.751 -.6328 9.2 -19.4)"/><use xlink:href="#aA" width="5.5" height="2" transform="matrix(.4995 -.5883 -.9862 -.746 11.3 -23.15)"/><use xlink:href="#aA" width="5.5" height="2" transform="matrix(.6686 -.3757 -.5061 -1.1331 13.2 -25.55)"/><use xlink:href="#aB" width="3.6" height="8.7" transform="matrix(.9658 .215 -.0491 1.0139 -6.65 -31.4)"/><use xlink:href="#at" width="4.5" height="7.6" transform="matrix(.9408 .5564 -.4601 .7565 -7.75 -26.35)"/><use xlink:href="#aC" width="4.6" height="5.3" transform="matrix(.78 .7048 -.5252 .7613 -10.45 -23.9)"/></g></g><g clip-path="url(#bi)"><g transform="translate(1496.5 46.85)"><use xlink:href="#ap" width="5.2" height="3.1" transform="matrix(.9641 .2367 -.2196 1.1012 -9.15 -14)"/><use xlink:href="#aq" width="4.3" height="7.7" transform="matrix(-.9581 -.1827 -.1905 .8586 -2.85 -17.45)"/><use xlink:href="#ar" width="3.1" height="8.7" transform="matrix(.3687 -.9569 .9477 .2328 -4.1 -30.5)"/><use xlink:href="#as" width="5.9" height="5.5" transform="matrix(.2687 .5956 .7584 .0402 3.35 -28.3)"/><use xlink:href="#at" width="4.5" height="7.6" transform="matrix(.7692 -.6765 .7705 .464 -.25 -28.5)"/><use xlink:href="#au" width="6.5" height="11.9" transform="matrix(-.6181 -.7538 -.8334 .4634 4.4 -19.4)"/><use xlink:href="#av" width="6.8" height="3.6" transform="matrix(.4564 -.8041 .9098 .4397 1.3 -.75)"/><use xlink:href="#aq" width="4.3" height="7.7" transform="matrix(-.8159 .5372 .4215 .9331 2.95 -11.55)"/><use xlink:href="#au" width="6.5" height="11.9" transform="matrix(1.0959 -.174 .1202 .9384 -4.1 -19.1)"/><use xlink:href="#aw" width="9.4" height="7.4" transform="matrix(.9865 -.1478 .1138 .9955 -4.7 -22.7)"/><use xlink:href="#ax" width="9.8" height="12.3" transform="matrix(.9775 -.151 .2405 .982 -12.3 -42.9)"/><use xlink:href="#ay" width="8.7" height="14.7" transform="matrix(.9864 -.2979 .3323 .9765 -8.4 -32.7)"/><use xlink:href="#az" width="5.5" height="2" transform="matrix(.7014 .1787 .0693 -1.0501 1.9 -19.4)"/><use xlink:href="#aA" width="5.5" height="2" transform="matrix(.6769 -.3682 -.3809 -.8625 5.95 -17.95)"/><use xlink:href="#az" width="5.5" height="2" transform="matrix(.425 -.7646 -.7183 -.6496 9.75 -19.8)"/><use xlink:href="#aA" width="5.5" height="2" transform="matrix(.5544 -.5373 -.9169 -.8291 11.85 -23.45)"/><use xlink:href="#aA" width="5.5" height="2" transform="matrix(.6797 -.3622 -.4643 -1.1451 14 -25.5)"/><use xlink:href="#aB" width="3.6" height="8.7" transform="matrix(.9086 .425 -.3151 .9395 -7.55 -32.6)"/><use xlink:href="#at" width="4.5" height="7.6" transform="matrix(.7959 .7514 -.651 .5626 -9.85 -28.05)"/><use xlink:href="#aC" width="4.6" height="5.3" transform="matrix(.4563 .893 -.7761 .53 -12.6 -26.95)"/></g></g><g clip-path="url(#bj)"><g transform="translate(1542.5 46.85)"><use xlink:href="#ap" width="5.2" height="3.1" transform="matrix(.4469 .9577 -.9933 .5013 -9.25 -16.95)"/><use xlink:href="#aq" width="4.3" height="7.7" transform="matrix(-.7775 -.5113 -.4915 .6992 -3.2 -17.25)"/><use xlink:href="#ar" width="3.1" height="8.7" transform="matrix(-.0185 -1.0682 .9081 -.0471 -4.9 -30.75)"/><use xlink:href="#as" width="5.9" height="5.5" transform="matrix(.4393 .5125 .7298 -.159 3.5 -30.6)"/><use xlink:href="#at" width="4.5" height="7.6" transform="matrix(.4558 -.9155 .9266 .2639 -.55 -30.15)"/><use xlink:href="#au" width="6.5" height="11.9" transform="matrix(-.5537 -.808 -.8506 .3451 4.7 -19)"/><use xlink:href="#av" width="6.8" height="3.6" transform="matrix(-.0981 -.9135 1.0042 -.1727 5.85 -1.05)"/><use xlink:href="#aq" width="4.3" height="7.7" transform="matrix(-.7519 .6278 .558 .8891 3.95 -13)"/><use xlink:href="#au" width="6.5" height="11.9" transform="matrix(1.0749 -.3352 .2299 .9046 -4 -19.45)"/><use xlink:href="#aw" width="9.4" height="7.4" transform="matrix(.9699 -.234 .1789 .988 -4.8 -22.9)"/><use xlink:href="#ax" width="9.8" height="12.3" transform="matrix(.9744 -.1417 .2384 .9883 -12.65 -43.3)"/><use xlink:href="#ay" width="8.7" height="14.7" transform="matrix(.9723 -.3937 .4599 .94 -10.1 -32.5)"/><use xlink:href="#az" width="5.5" height="2" transform="matrix(.6964 .1717 .0477 -1.0527 2.25 -20.3)"/><use xlink:href="#aA" width="5.5" height="2" transform="matrix(.7064 -.2784 -.2992 -.8972 6.1 -18.7)"/><use xlink:href="#az" width="5.5" height="2" transform="matrix(.4703 -.7502 -.6864 -.6661 10.3 -20.3)"/><use xlink:href="#aA" width="5.5" height="2" transform="matrix(.6067 -.4798 -.842 -.9076 12.35 -23.85)"/><use xlink:href="#aA" width="5.5" height="2" transform="matrix(.6921 -.3478 -.4255 -1.1556 14.85 -25.5)"/><use xlink:href="#aB" width="3.6" height="8.7" transform="matrix(.8068 .6219 -.5464 .7999 -8.4 -33.55)"/><use xlink:href="#at" width="4.5" height="7.6" transform="matrix(.6151 .9098 -.7717 .324 -11.8 -29.7)"/><use xlink:href="#aC" width="4.6" height="5.3" transform="matrix(.1045 .9496 -.9304 .2203 -14.85 -29.6)"/></g></g></svg>