<svg xmlns="http://www.w3.org/2000/svg" xmlns:xlink="http://www.w3.org/1999/xlink" width="501" height="101" viewBox="0 0 501 101"><defs><g id="ay"><path fill="#b81a03" d="M34.7 28.4q-4.3-4-6.6-3.5-1.8.3-2.9 3.7.1-4.1-2.4-6.1 4.9-.1 4.8-3.4t-5.3-7q2.9 1 6.3-2-1.4 3.8-.9 5.9.5 1.9 2.8 3.3l3.4 1.2q-2.4.4-2.4 2-.1 2 3.2 5.9"/><path fill="none" stroke="#d01d04" stroke-linecap="round" stroke-linejoin="round" stroke-width="__RESOLUTION__" d="M33.9 20.5q-2.4.4-2.4 2-.1 2 3.2 5.9" vector-effect="non-scaling-stroke"/><path fill="#f43404" d="M3.1 2.2 0 .9Q.6-.4 2 .2t2 2.2zm13.2.4 4 1.7q-.7.4-1.4 1.9-1 2.2-.5 4.6.7 3.6 3.8 8.4l4.1 5.2q-5.8-2.8-16.6 1.3 12.2-8.4-4.3-22.4Q16.2 9 16.2 2.6"/><path fill="none" stroke="#d01d04" stroke-linecap="round" stroke-linejoin="round" stroke-width="__RESOLUTION__" d="M3.1 2.2 0 .9Q.6-.4 2 .2t2 2.2zm6.6 23.5Q22 17.3 5.5 3.3" vector-effect="non-scaling-stroke"/><path fill="none" stroke="#fc563f" stroke-linecap="round" stroke-linejoin="round" stroke-width="__RESOLUTION__" d="M5.5 3.3Q16.3 9 16.3 2.6" vector-effect="non-scaling-stroke"/><path fill="#f43404" d="m8.5 26.2-.2.4L6.6 28q-1-.5-.2-1.1t2.1-.7"/><path fill="none" stroke="#d01d04" stroke-linecap="round" stroke-linejoin="round" stroke-width="__RESOLUTION__" d="m8.5 26.2-.2.4L6.6 28q-1-.5-.2-1.1t2.1-.7" vector-effect="non-scaling-stroke"/></g><g id="aK"><path fill="#e3b30f" d="m7.3.3.6-.3 2.2.6 1.9 1v.3l1.8 3.7-1.2.6-4-.3-4.3 2.9-.4-.2v-.1l-.6-3-1.5-.8L.3 6.4v.2L0 6.4l.9-2.5 2.9-1.6z"/><path fill="#c90" d="m3.8 2.3-.3-.8L7.3.3z"/></g><g id="aM"><path fill="#966a0a" d="m7.3.3.6-.3 2.2.6 1.9 1v.3l1.8 3.7-1.2.6-4-.3-4.3 2.9-.4-.2v-.1l-.6-3-1.5-.8L.3 6.4v.2L0 6.4l.9-2.5 2.9-1.6z"/><path fill="#8d5f05" d="m3.8 2.3-.3-.8L7.3.3z"/></g><g id="f"><path fill="#d9d5d0" d="m2.4 11.3.8.6-3.2.5 1.8-2.5-.2-.1v-.2zm2.4 2.3 2.1-3 1.8 2.6zm-1.3 7.5.9.9-1 1-.6-1.2zm4 1.7-1.3.7-.8-1.5 1-.6z"/><path fill="#4f1717" d="m3.2 11.9-.8-.6-.7-1.7v.2l-.4-.4V7.9l4.1.9 1 2.4-1.6 2.5.7-.1 3.8.9 3.6 2.8.4 5.2-1.3.3h-.1L10 23h-.1l-1.1.6L4 25.4l-1-2v-.1l.2-.8.2.5 1-1-.9-1-.2.3.1-.6.5-1H2.8l1-3.6-.8-1.4H1.5l-.1-2.3zm2.2 10 .8 1.6 1.3-.7-1.1-1.3zm3.1-1.1h.2l1.2-2.3-2.3-1.7-3.6.8.6 2z"/><path fill="#823d20" d="m3.2 22.5-.2.8v.2l1.1 1.8 4.7-1.5-4.6 2.7-2.8-2 1.4-2.6zm5.3-1.7-3.9-1.3-.6-1.9 3.6-.8 2.3 1.7z"/><path fill="none" stroke="#4a4b27" stroke-linecap="round" stroke-linejoin="round" stroke-width="__RESOLUTION__" d="m1.4 12.4.1 2.3H3l.8 1.4m4.9-3-1.8-2.5" vector-effect="non-scaling-stroke"/><path fill="none" stroke="#596f6c" stroke-linecap="round" stroke-linejoin="round" stroke-width="__RESOLUTION__" d="m4.8 13.7 3.9-.5M0 12.4l3.2-.5-.8-.6" vector-effect="non-scaling-stroke"/><path fill="none" stroke="#4a4b27" stroke-linecap="round" stroke-linejoin="round" stroke-width="__RESOLUTION__" d="m2.4 11.3-.7-1.7" vector-effect="non-scaling-stroke"/><path fill="none" stroke="#000" stroke-linecap="round" stroke-linejoin="round" stroke-opacity=".4" stroke-width="__RESOLUTION__" d="m11.6 10.9-.3-.1L12.5 9 8.7 8M1.4 9.5l-.3-4h3l4.6 1.4m4.5 15.8 1.4.4.2-1.8 1 1.6" vector-effect="non-scaling-stroke"/><path fill="#d7d9d5" d="m14.5 4.3 1.9-2v-.1h.1l-.3.7q-1.1 2-1.5 1.7-.3-.1-.2-.3"/><path fill="#656d60" d="m16 2 1-.9h.2q.2.2-.6 2.4l-1 2.4-1 1.1q-.6.3-1 0-.4-.4-.4-1v-.3l.2-.5zm-1.3 2.6q.4.3 1.5-1.7l.3-.7h-.1l-1.9 2q-.1.2.1.3"/><path fill="#2d2f2a" d="M17.2 1.2H17V1l1.1-.6h.6Q17.6 6 16.5 7l-1.1 1.3H15l-1.9 1L11.7 8l1.5-2.3V6q0 .6.4 1 .4.3 1 0l1-1.1 1-2.3q.8-2.2.5-2.4"/><path fill="none" stroke="#000" stroke-linecap="round" stroke-linejoin="round" stroke-opacity=".4" stroke-width="__RESOLUTION__" d="m16 2-2.6 3.2-.2.5L11.7 8l1.6 1.3 1.8-1h.2L16.4 7q1-1 2.4-6.6H18l-1.1.7v0z" vector-effect="non-scaling-stroke"/><path fill="#656d60" d="m21.7 11.2-2 .2-2-.2v-.4l.6-.4.7-.2 5.1-.4q5 .2 7.9 2.1l.2.1.8.7z"/><path fill="#2c2f28" d="M33 12.7h.1l.8 1L15 12.2l1-.8 2.2-1-.5.4-.1.2v.2l2 .2 2-.2z"/><path fill="#f7e674" d="M32 11.9q-3-1.8-7.9-2.1L19 10l-.6.3h-.1l-2.2 1-.2-.1q-.4 0-.8-.4-2.6-1.5-1.5-3.6l2.4-5q.4-.6 1.1-1l1.5-.8-.1.1Q16.8 2 16 3.6q-.8 1.3-1.2 3 .1.7.6 1l.3.2q6.4 0 12.5 2 4.2 1.4 8.6 3.8l-3.7-.7-.2-.2-.8-.6zM22.5 9l.1-.2h.1l-.3-.2-.8-.1-1.5.2.2.2zm-4.4 0q-.9 0-2.5 1.4-.1.2.2.5.3 0 1.1-.5l1.4-.8.2-.3h-.1z"/><path fill="#e0ab47" d="m37.9 14.3-4-.7-.8-.8 3.7.7zM16 2.3l-2.3 5q-1.1 2.1 1.4 3.6.4.4.8.4l.3.1-1.1.8h-.4l-2.6-1-1.1-1-.4-1.4q.5-1.7 1.8-3.5.9-1.5 2.1-2.5 1.4-1.5 3.6-2.8l.5.6-1.5.7q-.8.4-1.1 1"/><path fill="#fefefe" d="m22.7 8.8-.1.2-2.2-.1-.2-.2 1.5-.2.7.2zm-4.2.4.1.1-.2.3-1.4.8q-.8.5-1.1.5-.3-.3-.2-.5Q17.3 9 18 9l.3.2z"/><path fill="none" stroke="#000" stroke-linecap="round" stroke-linejoin="round" stroke-opacity=".4" stroke-width="__RESOLUTION__" d="m18.3 10.4-2.2 1-1 .8 18.8 1.5-.8-1h-.2l-.8-.7-.2-.1q-2.8-1.8-7.8-2.1L19 10m-3.9 2h-.3l-2.7-1-1.1-.8-.3-1.5q.5-1.7 1.7-3.5.9-1.5 2.1-2.5 1.4-1.5 3.6-2.8l.5.6h-.1Q16.8 2 16 3.6q-.8 1.3-1.2 3 .1.7.6 1l.3.2q6.4 0 12.5 2 4.2 1.4 8.6 3.8l1.1.8-4-.7" vector-effect="non-scaling-stroke"/><path fill="#ad5756" d="M13.6 9.6q-.7.1-1.2-.3-.5-.2-.7-.8l-.1-.1-.1-.7.5-.4 1.4.3q1 .6.3 2z"/><path fill="#9b2828" d="M11.7 8.5q.2.6.7.8.5.4 1.2.3h-.1q-.5.9-1.4 1.2l-.8-.4q-.5-.4-.5-1t.4-1.4l.3-.3z"/><path fill="#959693" d="m13.5 9.7.8-.6.1-.5q0 .7-.3 1.3-.5.7-1.3 1H12q.9-.3 1.4-1.2"/><path fill="#fefefe" d="m14.5 7.9.1.3-.1.3-.1.5-.7.6q.7-1.4-.3-2L12 7.3l.4-.2h1.5l.5.6z"/><path fill="#333" fill-opacity=".3" d="m11.3 10.4.8.4h.8q.8-.3 1.3-1t.3-1.3l.1-.2v-.1l.2.2v.1l.2.4-.1.2-.4 1.2q-.5.8-1.2 1l-.8.1-.6-.2z"/><path fill="none" stroke="#000" stroke-linecap="round" stroke-linejoin="round" stroke-opacity=".4" stroke-width="__RESOLUTION__" d="m14.4 7.7-.5-.5-1.5-.1-.4.2 1.4.3q1 .6.3 2h-.2q-.5.9-1.4 1.2h.8q.8-.3 1.3-1t.3-1.3l.1-.2v-.1l-.1-.3m-2.4 2.9-.8-.4q-.5-.4-.5-1t.4-1.4l.3-.3.5-.4" vector-effect="non-scaling-stroke"/><path fill="#fff" d="m12.7 8.3.2-.5.6-.3.5.3.2.4-.3.6q-.2.2-.5.2t-.5-.2z"/><path fill="#929590" d="m10.9 8.3 2.8 2.3h-.3l-.5.2h-.1q-.2.1.6 1.6.9 1.7.6 2.8l-1.7 2q-.7 1-.7 1.9l.2.6-.6-.4-.4-1.1 2.2-2.7q.3-1 0-1.7-1.2-2.5-3-3.8L8.2 8.7v-.4L9.6 8z"/><path fill="#d1d6cf" d="m12.8 10.8.5-.3.3.2 2.3 2.7.6 2.8q-1.4 2.5-3 3.4l-1.8.1-.1-.6q0-1 .6-1.9l1.7-2q.3-1.1-.6-2.8-.7-1.5-.6-1.7m2 2.4v1h-.2l.2 1.1.6.3.7.5q.3-.8-.2-1.5l-.6-1.2V13q-.3-.2-.4 0"/><path fill="#fefefe" d="M14.8 14v-.8q.1-.3.4 0l.7 1.3q.5.8.2 1.5l-.7-.5-.6-.3-.1-1z"/><path fill="none" stroke="#000" stroke-linecap="round" stroke-linejoin="round" stroke-opacity=".4" stroke-width="__RESOLUTION__" d="m13.7 10.7 2.3 2.7.6 2.8q-1.4 2.5-3 3.4l-1.8.1-.5-.4-.5-1.1 2.2-2.7q.3-1 0-1.7-1.2-2.5-3-3.8L8.2 8.7v-.4L9.6 8l1.4.3z" vector-effect="non-scaling-stroke"/><path fill="#656d60" d="m15 19 .9.8v.1q1.3 2.2 1.8 8.7l-.5-.1q-.4-2.7-1.3-5.4L14 18.6l.7-.2z"/><path fill="#2d2f2a" d="M17.3 28.5h-.4q-1.7-5.3-4.3-9.4l1.4-.5 1.9 4.5q.9 2.7 1.3 5.4"/><path fill="none" stroke="#000" stroke-linecap="round" stroke-linejoin="round" stroke-opacity=".4" stroke-width="__RESOLUTION__" d="m14.9 18.3 1 1.4v.3q1.3 2.1 1.8 8.6l-.8-.1q-1.7-5.3-4.3-9.4z" vector-effect="non-scaling-stroke"/><path fill="#656d60" d="m16.3 16.2.6.3 1.3.3h.1q2.6 1.4 6.4 7.7l-.6.2q-1.7-2.4-4.2-4.6l-4.3-3.3z"/><path fill="#2d2f2a" d="M19.9 20q2.5 2.3 4.3 4.7l-.4.1q-4.7-4.1-9.3-6.3l1.1-1.6z"/><path fill="none" stroke="#000" stroke-linecap="round" stroke-linejoin="round" stroke-opacity=".4" stroke-width="__RESOLUTION__" d="m16.4 16-.1.2-.7.7-1.1 1.6q4.6 2.2 9.4 6.3l.8-.3q-3.8-6.4-6.3-7.7z" vector-effect="non-scaling-stroke"/><path fill="#7a7e56" d="m9.4 14.5 1 .4z"/><path fill="#000" fill-opacity=".4" d="m11.3 10.8-1.4 2.6.5.8-1 .1v.2l-3.9-1 3.2-.3L7.2 11l.6-.7.2.3.5-2.4h.2l3.8 1zm2 11.8 1.3.4.3-1.8.8 1.6 1.3 4q-1.2-.2-5-4z"/><path fill="#000" fill-opacity=".2" d="m4.2 5.4 4.5 1.4v1.4h-.2L8 10.7l-.2-.4-.6.7-.3-.4-.5.7-1-2.6L1.3 8 1 5.4z"/></g><g id="d"><path fill="#c1b29d" d="M9.8 3q-1.5.7-2.2.5V3q.3-1 1-1.9l.9-1q.4 1 .4 2.7z"/><path fill="#fbfcee" d="m9.5.3-.8.9q-.8 1-1 2l-.1.4q-.6-.1-.7-.8v-.2l.1-.2L9.3 0z"/><path fill="none" stroke="#000" stroke-linecap="round" stroke-linejoin="round" stroke-opacity=".4" stroke-width="__RESOLUTION__" d="M7.6 3.6q.7.3 2.3-.5h-.1m0-.2Q10 1.3 9.5.3L9.3 0 7 2.4l-.1.2v.2q.1.7.7.8" vector-effect="non-scaling-stroke"/><path fill="#656d60" d="m9.7 2.6.2.1L11.3 5q.7 1.6.7 3.3l-.2 1.2q-.2 1.1-1 1.7l-.3.3-1.1.5-.8.2h-.1V12L7 11.3 1.5 6.6Q-.2 4.6 0 1.9l.4-.4.8-.3-.4.7.3 2.5L5.2 8 8 9l.2-.1.8-.6.1-.7-.1-1q-.2-1.2-1-3l-1.1-2zm-6.6-.8q.4-.7 1.8-.3.8.5.8 1l-1.4.1-1-.5z"/><path fill="#2c2f28" d="M6.9 1.5 8 3.7q.7 1.6 1 2.9l.1 1-.2.8-.7.6-.1.1-2.9-1-4.1-3.8-.4-2.5.5-.6L2.4.9l3.5.2zm1.6 10.7.8-.2 1.2-.5.4-.3q.7-.6.9-1.7l.2-1.2q0-1.7-.7-3.3l1.5 2.2.7 2.5-.1 3.2-.5 1.2-1.3-.2zM3.1 1.8l.2.3 1 .5 1.4-.1q0-.5-.8-1-1.4-.4-1.8.3"/><path fill="none" stroke="#000" stroke-linecap="round" stroke-linejoin="round" stroke-opacity=".4" stroke-width="__RESOLUTION__" d="m9.9 2.7-.1-.1h-.1L6.9 1.5l-1-.4L2.3.9l-1.2.3-.8.3-.4.4q-.2 2.7 1.6 4.7L7 11.3l1.5.8m0 0v.1l3.1 1.7 1.3.2.5-1.2.1-3.3-.7-2.4L11.3 5 9.8 2.7" vector-effect="non-scaling-stroke"/></g><g id="b"><path fill="#fff" d="M22.6 11.3q-.1 4.6-3.4 7.9t-7.9 3.4q-4.6-.1-8-3.4Q.1 15.9.1 11.3t3.3-8Q6.7.2 11.3.2t7.9 3.3 3.4 7.9"/><path fill="none" stroke="#647b77" stroke-linecap="round" stroke-linejoin="round" stroke-width="__RESOLUTION__" d="M22.6 11.3q-.1 4.6-3.4 7.9t-7.9 3.4q-4.6-.1-8-3.4Q.1 15.9.1 11.3t3.3-8Q6.7.2 11.3.2t7.9 3.3 3.4 7.9" vector-effect="non-scaling-stroke"/><path fill="#000" d="M6.5 8.7q1.4 0 2.4.9t.9 2.4-1 2.3-2.4 1q-1.4 0-2.3-1t-1-2.4 1-2.3 2.4-1"/></g><g id="a"><path fill="#cfd2c9" d="m20.8 5.1 2.7 2.3 1.6 2.3q-1 .4-1.6 1.3h-.1l-.7.8.3 1.7q.4 1.2 1 2-1.4.1-2.5.7l-.7.4q0 1.8-.6 3.4l-4-4.6-.1-1v.1h.2q1.8-.7 3.6-1.8l1.6-1.2v-.1l-.2-.8.2.1L19.7 7l.8-2z"/><path fill="#929590" d="m23.8 7.4 2 2.7q-.9.3-1.4 1l-.1-.1q-.6.3-1.1 1.2l.4 1.6q.3 1.2 1 2.1l-2.3.6-1 .4-.1 3.4-1-.3q.6-1.6.6-3.5l.7-.3q1.1-.6 2.5-.7-.6-.8-1-2l-.3-1.7.7-.9h.1q.6-.8 1.6-1.2l-1.6-2.3-1-1z"/><path fill="none" stroke="#000" stroke-linecap="round" stroke-linejoin="round" stroke-opacity=".4" stroke-width="__RESOLUTION__" d="M21.6 11.4h-.1l-1.6 1.3-3.6 1.8H16h0l.1.9 4 4.6 1 .3V17l1-.5 2.4-.5q-.7-1-1-2.2l-.4-1.6q.5-.8 1.2-1.1.5-.8 1.3-1l-2-2.7L20.8 5l-.3-.1-.8 2 1.7 3.5z" vector-effect="non-scaling-stroke"/><path fill="#000" fill-opacity=".3" d="M23.8 7.4h-.3l-3.2 1-.6-1.5.8-2 .3.2zm.8 8.5-2.4.6-1.8-.8q-2.5-1.1-4.1-1.2 1.7-.7 3.6-1.8 1.1 0 3.1.9l.6.2q.3 1.2 1 2.2"/><path fill="#656d60" d="m11.2 7.9.6-.3.3.5-4 2.8L4 14.6l-.4-.1Q7.5 9.3 10 8.2v-.1z"/><path fill="#2d2f2a" d="m4 14.7 4.1-3.8 4-2.8 1 1.3q-4.6 2.1-8.7 5.3z"/><path fill="none" stroke="#000" stroke-linecap="round" stroke-linejoin="round" stroke-opacity=".4" stroke-width="__RESOLUTION__" d="m11.8 7.6-.2-.2L10 8v.1q-2.5 1.1-6.4 6.3l.4.2h.3q4.2-3.2 8.8-5.3z" vector-effect="non-scaling-stroke"/><path fill="#656d60" d="M11.7 5v.8l-5.2.4q-3 .3-6.1 1.4L0 7.2Q6.8 4 9.6 4.3h.2l1.1.5z"/><path fill="#2d2f2a" d="m6.5 6.2 5.3-.4v2Q6.7 7 .5 8l-.2-.4q3.2-1 6.1-1.4"/><path fill="none" stroke="#000" stroke-linecap="round" stroke-linejoin="round" stroke-opacity=".4" stroke-width="__RESOLUTION__" d="M11.9 7.8Q6.6 7 .4 8l-.2-.4-.3-.4Q6.8 4 9.6 4.3h.2l1.8.3.1.4z" vector-effect="non-scaling-stroke"/><path fill="#e8ecea" d="M16 4.8q-.2 1.6-1.5 2.7-1.4 1-3.2.7-1.6-.3-2.7-1.6-1-1.4-.7-3.1T9.5.6t3-.6q1.8.2 2.7 1.5t.7 3.1"/><path fill="none" stroke="#647b77" stroke-linecap="round" stroke-linejoin="round" stroke-width="__RESOLUTION__" d="M16 4.8q-.2 1.6-1.5 2.7-1.4 1-3.2.7-1.6-.3-2.7-1.6-1-1.4-.7-3.1T9.5.6t3-.6q1.8.2 2.7 1.5t.7 3.1" vector-effect="non-scaling-stroke"/><path fill="#000" d="M15 3.9q-.1.3-.7.3-.4 0-1-.4-.4-.5-.5-1.1-.2-.4 0-.8t.7-.4 1 .5l.6 1q.3.5-.1.9"/></g><g id="i"><path fill="#ffc" fill-opacity=".5" d="M1.5 21 0 22l.7-4 1.9-4.3.1-.4 1.5-.7L1.5 18q-1.1 3.5 0 3"/><path fill="none" stroke="#000" stroke-linecap="round" stroke-linejoin="round" stroke-opacity=".4" stroke-width="__RESOLUTION__" d="M2.8 13.3 5.4 7l.2-7M1.5 21l-1.4.7.6-3.8 1.9-4.3M1.4 21l4.7-2.9M9.5.5 4.6 15.9" vector-effect="non-scaling-stroke"/><path fill="#000" fill-opacity=".6" d="m4.4 9.5 1-2.4.2-7 3.9.4-2.6 8.3z"/><path fill="#000" fill-opacity=".3" d="m6.9 8.8-1 3.3Q4.8 11 2.8 13.3l1.6-3.7z"/><path fill="#000" fill-opacity=".1" d="M1.8 17.9 4.7 15l.2 3.3-3 1.6z"/><path fill="none" stroke="#2e0a01" stroke-linecap="round" stroke-linejoin="round" stroke-width="__RESOLUTION__" d="m5 8 .5-1" vector-effect="non-scaling-stroke"/></g><g id="r"><path fill="#000" fill-opacity=".3" d="M11.8 6.5q.8 2.7.5 5.3Q9.2 4.5 6.5 10 5 7.8 2.7 7.4 6 5.7 7.6 3q2.8 1 4.1 3.1z"/><path fill="none" stroke="#000" stroke-linecap="round" stroke-linejoin="round" stroke-opacity=".4" stroke-width="__RESOLUTION__" d="m.1 7.5 2.6-.1q2.4.5 3.8 2.6 2.7-5.5 5.8 1.8.3-2.6-.5-5.3l-.1-.4q-1-2.8-4.3-5.5L6.9.5V1l-.9.3q-.6 0-.9-.4-.2-.3 0-.8l-.7.7Q5 4.5 1.6 5.9.8 3.8.1 6.2" vector-effect="non-scaling-stroke"/></g><g id="o"><path fill="#e3e2ce" d="m.1 1.9.1-.3.3-1L.6 0h.2l.1.2.8 1.2.1.5.1.2v.6l-.9.2q-.6 0-.9-.3-.2-.2 0-.7"/><path fill="#fff" d="m0 1.9.1-.1z"/></g><g id="aR"><path fill="#9b927d" d="m14.9 20.2-.1-.1z"/><path fill="#acaea6" d="m7.8 13.5-1.5.7zM5.9 16l-.5.3-.4-3.2 3.6-2.5.1 1.2.3 2.4-.5.3z"/><path fill="#000" d="m5.9 16.2 2.6-1.6.4 1.5.2.3-2.8 1.5-.1-.4v-.1z"/><path fill="#4e453a" d="M9.1 16.4q.1.7-.6 1.5-.8.7-.7.8l.2.3-1 .8H5l1.3-1.9z"/><path fill="none" stroke="#000" stroke-linecap="round" stroke-linejoin="round" stroke-opacity=".4" stroke-width="__RESOLUTION__" d="m6.3 14.2 1.5-.7m.7 1.1.4-.3-.2-2.4v0l-.1-1.2L5 13.2l.4 3.3.5-.4zl.4 1.6.2.2q.1.7-.6 1.5-.8.7-.7.8l.2.3v0l.4-.4m-3.3 1.2 1.2-1.9-.1-.4v-.1l-.3-1.2" vector-effect="non-scaling-stroke"/><path fill="#cdceca" d="m7.5 18.7.9-.6h.1l-.3 1.6-2.7 2.2-1.3-.8L5 20z"/><path fill="none" stroke="#000" stroke-linecap="round" stroke-linejoin="round" stroke-opacity=".4" stroke-width="__RESOLUTION__" d="m8.4 18.1-.3 1.6-2.7 2.2-1.3-.7L5 20l2.5-1.3" vector-effect="non-scaling-stroke"/><path fill="#acaea6" d="m12.3 11.9-.6.2-.3-3.2 3.5-2.5.1 1.2.3 2.4-.5.3zM14 9l-1.5.8z"/><path fill="#000" d="m12.3 11.9 2.5-1.6.5 1.5.2.3-2.8 1.5-.2-.4v-.1z"/><path fill="#4e453a" d="M15.5 12.1q0 .7-.7 1.5-.8.7-.6.8l.2.2-1 .9h-2l1.3-1.9z"/><path fill="none" stroke="#000" stroke-linecap="round" stroke-linejoin="round" stroke-opacity=".4" stroke-width="__RESOLUTION__" d="m14.8 10.3.5-.3-.2-2.4v0l-.2-1.2-3.5 2.5.3 3.3.6-.3zl.5 1.6.2.2q0 .7-.7 1.5-.7.7-.6.8l.2.3v0l.4-.4m-2.1-.7-.2-.4v-.1l-.2-1.2m-.9 3.6 1.3-1.9m-.1-3.7 1.5-.7" vector-effect="non-scaling-stroke"/><path fill="#cdceca" d="m14.8 13.8-.3 1.6-2.6 2.2-1.4-.7.8-1.2 2.5-1.3z"/><path fill="none" stroke="#000" stroke-linecap="round" stroke-linejoin="round" stroke-opacity=".4" stroke-width="__RESOLUTION__" d="m14.8 13.8-.3 1.6-2.6 2.2-1.4-.7.8-1.2 2.5-1.3" vector-effect="non-scaling-stroke"/><path fill="#e3d0a5" d="M12.6 4.3q1.5-2.5 4.2-4l.5-.2q.8-.2 1.9.4 1.5.8 2.4 2.7.8 1.4 1 3Q20.3 8.5 18 8l-.6-1.2-.1-.1-1.5-1.9Q14.4 3.4 13 4z"/><path fill="#93876c" d="M22.6 6.2v.6q0 1.8-1 2.4l-.2.2-.5.1-1.9.3h-.1l-.3-.6-.6-1.1q2.3.4 4.6-2m-3.7 3.7h.1z"/><path fill="#9b927d" d="m13.5 14-.4.1z"/><path fill="#000" d="M18.9 9.9q-1.5 1.9-2.5 1.7l-.2-1.2-.4-1.2L18 8.1l.6 1.1zm-6.6 3.6q-2.1 1.4-3.1 1.3l.5-1.2v-.2l.1-.4v-.2l-.2-.5 2.4-1.2.1 1.3z"/><path fill="#80755e" d="M16.4 11.6h-.1l-.3.3.1.4-1.5 1.5-1.1.3h-.4l-.8-.2v-.4l-.2-1.1-.2-1.3q1.7.3 3.8-1.9l.4 1.2zm-6.9 2.1q-.3 1-.9 2t-2.2 1.6q.6-.7.6-2v-1l-.3-1-.7-1.6L5 10 3.5 9q-1.3-.7-2.3-.2l-.2.1q-1 .7-1 2.5T1 15l1.2 1.6q.6.6 1.3 1l.4.2 1.6.1.9-.6q.5-.7.5-2v-1l2.6-2 .1.5v.6zm-5.9 1.9q1.6 0 1.2-2l-1-1.7q-.6-.7-1-.7-.7-.1-1.1.6-.4 1.7.6 3.6L4 17.8l-1.7-2.4q-1-1.9-.6-3.6.4-.7 1-.6t1 .7L5 13.6q.3 2-1.3 2"/><path fill="#b6ae9e" d="M9.7 13.7h-.2l.2-.3.1-.3v-.3l-.2.6zm-3.2 3.6-.5.4-.4.3z"/><path fill="#b3a482" d="M1.3 8.8q1.4-1.6 4.2-.7 1.2.1 2 .7l.7.6 1 1.5.4 1.4-2.7 2-.2-1-.7-1.6L5 10 3.5 9q-1.3-.7-2.3-.2"/><path fill="#4e433a" d="m5.5 8 2.2-1.4q1.4 0 2.5.9l.4.5-2.4 1.4-.7-.6q-.9-.6-2-.7m6-3.3 1.1-.5.5-.2q1.3-.6 2.7.8l-2 1.3-.4-.3q-.9-.7-1.9-1.1m5.7 2 .2.1.6 1.2-2.2 1.1-.7-1.3zm-8 4.1 2.4-1.2.4 1.4-2.3 1.2z"/><path fill="#c5b58f" d="M7.7 6.6q1-1.3 3.8-1.8 1 .4 1.9 1l.4.3L15 7.9l.7 1.4q-2.2 2.2-3.9 1.9l-.4-1.4-.9-1.7-.4-.5q-1.1-1-2.5-1"/><path fill="#928d7e" d="m15.9 4.9 1.3 1.9-2 1-1.4-1.6zM10.6 8l1 1.7L9 10.9l-.9-1.5z"/><path fill="none" stroke="#000" stroke-linecap="round" stroke-linejoin="round" stroke-opacity=".4" stroke-width="__RESOLUTION__" d="M12.6 4.3q1.5-2.5 4.2-4l.5-.2q.8-.2 1.9.4 1.5.8 2.4 2.7.8 1.4 1 3v.6q0 1.8-1 2.4l-.3.2-.5.1-1.8.3h-.1v.1m-2.6 1.8-.2.6-1.5 1.6-1.1.3h-.4v0l-.8-.3v-.4l-.1-1.1-.2-1.3-.4-1.4-1-1.7-.4-.5q-1.1-1-2.5-1L5.5 8.2q-2.8-.9-4.2.7l-.2.1q-1 .7-1 2.5t1 3.6l1.2 1.6q.6.6 1.3 1l.4.2 1.6.1.4-.2.5-.4q1.4-.6 2.1-1.6t.9-2h.2l-.5 1.1M7.7 6.6q1-1.3 3.8-1.8l1.1-.5.5-.2q1.3-.6 2.7.8l1.4 1.9.1.1.7 1.2.6 1.1.2.6h.1m-3.1-.6.3 1.2.3 1.2m-1.2-3.7.5 1.3m-.6-1.3L13.7 6l-.3-.3q-.9-.7-1.9-1M8.2 9.4l1 1.5.4 1.4.1.5.1.3-.2.3v.3m-2.7.6-.2-1-.7-1.6L5 10 3.5 9q-1.3-.7-2.3-.2m4.2-.7q1.2.1 2 .7l.7.6M4 17.8l-1.7-2.4q-1-1.9-.6-3.6.4-.7 1-.6t1 .7L5 13.6q.3 2-1.3 2M7 14.3l.1 1q0 1.3-.5 2l-.9.7m4.2-5.2-.2.6-.1.3" vector-effect="non-scaling-stroke"/></g><g id="z"><path fill="#2d311d" fill-opacity=".3" d="M11.8 6.5q.8 2.7.5 5.3Q9.2 4.5 6.5 10 5 7.8 2.7 7.4 6 5.7 7.6 3q2.8 1 4.1 3.1z"/><path fill="none" stroke="#2d311d" stroke-linecap="round" stroke-linejoin="round" stroke-opacity=".4" stroke-width="__RESOLUTION__" d="m.1 7.5 2.6-.1q2.4.5 3.8 2.6 2.7-5.5 5.8 1.8.3-2.6-.5-5.3l-.1-.4q-1-2.8-4.3-5.5L6.9.5V1l-.9.3q-.6 0-.9-.4-.2-.3 0-.8l-.7.7Q5 4.5 1.6 5.9.8 3.8.1 6.2" vector-effect="non-scaling-stroke"/></g><g id="w"><path fill="#878b6f" d="m.1 1.9.1-.3.3-1L.6 0h.2l.1.2.8 1.2.1.5.1.2v.6l-.9.2q-.6 0-.9-.3-.2-.2 0-.7"/><path fill="#929682" d="m0 1.9.1-.1z"/></g><g id="F"><path fill="#97793c" d="M10.9 4.5h.3q.6.1.8.6v.4h-.2v.6l-.1-.1-.7-.3V5z"/><path fill="none" stroke="#000" stroke-linecap="round" stroke-linejoin="round" stroke-opacity=".4" stroke-width="__RESOLUTION__" d="m11.9 6.1-.3-.1-.6-.3m0-.2V5l-.1-.5" vector-effect="non-scaling-stroke"/><path fill="#2d3029" d="M1.9 1.9v-.5L4.8 1h.6l2.7.2.9.4q.6 0 1.2.4v.9l-1.6-.6-1-.2-2.7-.3h-.5l-2.6.5z"/><path fill="#d1d6cf" d="m10 2.9.2-.9-1.3-.4-.9-.4L5.3 1h-.6L2 1.4l-.1.5-.3-.1-.1-.4.3-.6.6-.5L9 0l-.2.2.3.2.3.1.8.3.9-.1 1 .5q-.1 2.8-1 5.3L9.7 4.1zm.2-1.2V2zm.3 6.2-.3.6h-.1l-.9-2.3.3-.7zM0 4.9l.2-.4.2.2.5.2.4-.2q.1-.2-.3-.5V4l.1.1 1.9.7.3.1 2.4.7 1 .4 2.3.6.8 1.9-3.5-1.4-1.1-.4L3 6l-.2-.2zm1.7-3.4.3-.1z"/><path fill="#5b6153" d="m1.7 2.4 2.6-.5h.5l2.8.2.9.2 1.5.6-.2 1.2-.4 1.4-.2.7-.1.5-2.3-.6-1-.3L3.4 5l-.3-.1-1.8-.7z"/><path fill="#fff" d="m9.8 4 1.3 2.5-.6 1.4-1-2.4zM11.1.8l-.9.1-.8-.2L9 .4 8.9.2V0q1.1.2 2.2.7M.2 4.5l.6-.4H1q.4.3.3.6l-.4.2-.6-.3zm9.9 4-.3.1-.7-2 .1-.4z"/><path fill="#867f6d" d="m10.2 8.5-.4.4-.4.1L6 8l-1.2-.5-2.1-.9h-.2l-1.4-.8-.4-.2q-.1-.2-.6-.2L0 5l2.8.9.2.2 2.3.8 1.1.4 3.5 1.4h.2zM1 6.3H.8L.4 6h.4z"/><path fill="none" stroke="#000" stroke-linecap="round" stroke-linejoin="round" stroke-opacity=".4" stroke-width="__RESOLUTION__" d="m10 2.9.2-.9-1.3-.4-.9-.4L5.3 1h-.6L2 1.4l-.1.5-.2.5-.4 1.8h-.1l-.1-.1H.9l-.6.4H.2l-.2.4.2.6q.5-.1.6.2v.2H.6l.4.5v-.1l.3-.4 1.4.7h.2l2.1 1 1.2.4 3.3 1h0l.4-.1.4-.4v0l.3-.6.6-1.4Q12 4 12 1.2l-1-.5Q10 .2 8.9 0L2.4.4l-.6.4-.3.6v.4h.3M10 3l-.2 1.2-.4 1.4-.2.7-.1.5v0l-2.3-.6-1-.3L3.4 5l-.3-.1-1.8-.7M10.2 2v-.3m0 6.8-.2.1-3.5-1.4-1.1-.4L3 6l-.2-.2L0 4.9m2-3.5h-.3M.9 6v.3m-.1-.6.4.2" vector-effect="non-scaling-stroke"/><path fill="#fff" fill-opacity=".2" d="M7 1.9 6 4l-.8 1.5 1.2.3v-.2L8 2.1l.4-.8-.8-.2zM4.3.8l-.4.9-1.1 2.6-.1.3.4.2v-.3l1.2-2.7v-.2l.6-.9z"/><path fill="#e0ab47" d="M10.2 4.2q-.2-.5.3-.9v-.1l.1.5.7.5.4.2.4.3v.1q.3.5-.1.8h-.2.2V5l-.3-.4-.5-.2h-.3l-.5-.1z"/><path fill="#f7e674" d="m10.6 3.2 1-.1.3.1-.1.3h-.4v.3l.3.3h.4v-.3l.5.7-.2.3h-.2l-.1-.1-.4-.3-.4-.2-.7-.5z"/><path fill="#c3a744" d="m11.9 3.2.2.1.6.8v.1q.7 1 0 1.7h-.2l-.4-.1-.1-.3q.4-.2.2-.7h.2l.2-.3-.4-.7-.1-.1-.2-.2h-.1z"/><path fill="#97793c" d="m12.6 6-.7.1v-.5h.2l.1.2z"/><path fill="#000" fill-opacity=".3" d="m11.7 4.7-.1.4-.1.2-.2-.3-.7-.1-.4-.1q-.2-.1 0-.6l.2.2.5.2h.3z"/><path fill="#fcfbf9" d="m12.2 3.8-.1.3h-.4l-.3-.2v-.4h.4l.3.2z"/><path fill="none" stroke="#000" stroke-linecap="round" stroke-linejoin="round" stroke-opacity=".4" stroke-width="__RESOLUTION__" d="M10.2 4.2q-.2-.5.3-.9v-.1l1.2-.1.2.1.2.1.6.8v.1q.7 1 0 1.7h-.1l-.1.1-.7.1m0-.6h.2v-.4l-.3-.4-.5-.2h-.3l-.5-.1-.2-.2" vector-effect="non-scaling-stroke"/></g><g id="E"><path fill="#fcfbdc" d="m3.9.1.5.7v1.5Q2.5 3 .2 1.4L.5.6Q2.2 0 3.9.1"/><path fill="#c1b29d" d="M4.4 2.3q-.2 1.1-1.3 2.2h-.9L.1 2l.2-.6q2.2 1.7 4.1.9"/><path fill="none" stroke="#4a4b27" stroke-linecap="round" stroke-linejoin="round" stroke-width="__RESOLUTION__" d="m3.9.1.5.7v1.5q-.2 1.1-1.3 2.2h-.9" vector-effect="non-scaling-stroke"/><path fill="none" stroke="#b7b066" stroke-linecap="round" stroke-linejoin="round" stroke-width="__RESOLUTION__" d="M2.2 4.5.1 2" vector-effect="non-scaling-stroke"/></g><g id="D"><path fill="#ffc" fill-opacity=".3" d="M15.8 2.4v-.1q-2-2.3-6-2.1 4-.7 6 2v.1z"/><path fill="#ffc" fill-opacity=".5" d="m10.6 4 .6.6L9 6.2l-1-.6zM5.7 8.3l.2.1-.5.4-.9-.6.4-.2z"/><path fill="#000" fill-opacity=".3" d="m11.4 3.5-.5-1zm0 1.9 1.4-1.7zl.2 3.9zm-5.1 4.7v2.4l-1.9 6.4 1.9.4v2.6q-3.4 2.5-6.2-.5L3.6 9.2z"/><path fill="none" stroke="#000" stroke-linecap="round" stroke-linejoin="round" stroke-opacity=".4" stroke-width="__RESOLUTION__" d="M11.4 3.5 9.7 0M12 4.7l-.6.7.2 4q2.7-3 3.9-6.4l.2-.7m-4.3 3.1-5.1 4V22q-3.4 2.5-6.2-.5l3.7-13" vector-effect="non-scaling-stroke"/></g><g id="I"><path fill="#000" fill-opacity=".2" d="M4.4 5.7q1-3.6-4 2.6L5.3.5 6 .2V0l.6.7-.2.7z"/><path fill="none" stroke="#000" stroke-linecap="round" stroke-linejoin="round" stroke-opacity=".4" stroke-width="__RESOLUTION__" d="m4.4 5.7 2-4.1.3-.8-.5-.7H6M4.4 5.8Q2.2 10 1.9 11.4q-.4 2.1-1.8 2.5" vector-effect="non-scaling-stroke"/></g><g id="L"><path fill="none" stroke="#000" stroke-linecap="round" stroke-linejoin="round" stroke-opacity=".4" stroke-width="__RESOLUTION__" d="M8.9 2.6 8 5.9l-.2.1 4 .3 1.2-.6L11.2 2v-.3L9.4.7 7.1.1l-.5.3-3.6 2-.2-.8L6.6.4M3 8.7l.5.2L7.8 6" vector-effect="non-scaling-stroke"/><path fill="#ffc" fill-opacity=".3" d="M4.1 5.3 1 3.6 6 .8l1.6.5L8 3z"/><path fill="#000" fill-opacity=".2" d="m8 3.1.9-.5h2.7l1.5 3-1.2.7L7.8 6 3.6 8.9 3 8.7v-.1l-.5-2.5L4 5.3z"/><path fill="#ffc" fill-opacity=".5" d="m2 5.7-.2.8H0l1-1.1z"/><path fill="#2c2f28" d="m9 2.4-.3 1.9q-1.6.4-3.3 1.4V4.4l-.7-.6h.6q1.6-1 3.6-1.5"/><path fill="#929590" d="m8.8 4.3.3.5q-2 .4-3.6 1.3l-.1-.4q1.7-1 3.3-1.4M2 3l.2-.5.5.3z"/><path fill="#d1d6cf" d="m9.1 4.8-.2 1.6-3 1.2v-.2l-.4-1.3q1.6-1 3.6-1.3"/><path fill="#000" fill-opacity=".3" d="m5.9 7.4-1 .7-.6-3.5L2 3l.7-.2 2 1 .7.6v1.3l.1.4z"/><path fill="#5b6153" d="m2.2 2.5-.1-.1Q3.7 1 5.3.3l3.7 2q-2 .5-3.7 1.5h-.6l-2-1z"/><path fill="none" stroke="#000" stroke-linecap="round" stroke-linejoin="round" stroke-opacity=".4" stroke-width="__RESOLUTION__" d="m9 2.4-.3 1.9.4.5-.2 1.6-3 1.2v-.2l-.4-1.3-.2-.4.1-1.3-.7-.6-2-1-.5-.4h-.1Q3.7 1 5.3.2z" vector-effect="non-scaling-stroke"/><path fill="none" stroke="#000" stroke-linecap="round" stroke-linejoin="round" stroke-opacity=".3" stroke-width="__RESOLUTION__" d="m5.9 7.4-1 .7M2 3l.3-.5M2 3l.8-.2" vector-effect="non-scaling-stroke"/></g><g id="J"><path fill="#000" d="M.5 5.9 1.9 4l1.5.8L4 8h-.1L.1 7.8l.4-1.7z"/><path fill="none" stroke="#000" stroke-linecap="round" stroke-linejoin="round" stroke-opacity=".4" stroke-width="__RESOLUTION__" d="M3.3 2.3 1.8 3M6.3.3 5.5 0" vector-effect="non-scaling-stroke"/><path fill="none" stroke="#6b4b01" stroke-linecap="round" stroke-linejoin="round" stroke-width="__RESOLUTION__" d="M.5 6.1 0 5.9l1-2.6M.5 6.2V6H.2" vector-effect="non-scaling-stroke"/></g><g id="O"><path fill="#3c2305" fill-opacity=".2" d="M4.4 5.7q1-3.6-4 2.6L5.3.5 6 .2V0l.6.7-.2.7z"/><path fill="none" stroke="#3c2305" stroke-linecap="round" stroke-linejoin="round" stroke-opacity=".4" stroke-width="__RESOLUTION__" d="m4.4 5.7 2-4.1.3-.8-.5-.7H6M4.4 5.8Q2.2 10 1.9 11.4q-.4 2.1-1.8 2.5" vector-effect="non-scaling-stroke"/></g><g id="S"><path fill="none" stroke="#3c2305" stroke-linecap="round" stroke-linejoin="round" stroke-opacity=".4" stroke-width="__RESOLUTION__" d="M8.9 2.6 8 5.9l-.2.1 4 .3 1.2-.6L11.2 2v-.3L9.4.7 7.1.1l-.5.3-3.6 2-.2-.8L6.6.4M3 8.7l.5.2L7.8 6" vector-effect="non-scaling-stroke"/><path fill="#a18856" fill-opacity=".3" d="M4.1 5.3 1 3.6 6 .8l1.6.5L8 3z"/><path fill="#3c2305" fill-opacity=".2" d="m8 3.1.9-.5h2.7l1.5 3-1.2.7L7.8 6 3.6 8.9 3 8.7v-.1l-.5-2.5L4 5.3z"/><path fill="#a18856" fill-opacity=".5" d="m2 5.7-.2.8H0l1-1.1z"/><path fill="#4d3514" d="m9 2.4-.3 1.9q-1.6.4-3.3 1.4V4.4l-.7-.6h.6q1.6-1 3.6-1.5"/><path fill="#765e3e" d="m8.8 4.3.3.5q-2 .4-3.6 1.3l-.1-.4q1.7-1 3.3-1.4M2 3l.2-.5.5.3z"/><path fill="#8f7857" d="m9.1 4.8-.2 1.6-3 1.2v-.2l-.4-1.3q1.6-1 3.6-1.3"/><path fill="#3c2305" fill-opacity=".3" d="m5.9 7.4-1 .7-.6-3.5L2 3l.7-.2 2 1 .7.6v1.3l.1.4z"/><path fill="#604926" d="m2.2 2.5-.1-.1Q3.7 1 5.3.3l3.7 2q-2 .5-3.7 1.5h-.6l-2-1z"/><path fill="none" stroke="#3c2305" stroke-linecap="round" stroke-linejoin="round" stroke-opacity=".4" stroke-width="__RESOLUTION__" d="m9 2.4-.3 1.9.4.5-.2 1.6-3 1.2v-.2l-.4-1.3-.2-.4.1-1.3-.7-.6-2-1-.5-.4h-.1Q3.7 1 5.3.2z" vector-effect="non-scaling-stroke"/><path fill="none" stroke="#3c2305" stroke-linecap="round" stroke-linejoin="round" stroke-opacity=".3" stroke-width="__RESOLUTION__" d="m5.9 7.4-1 .7M2 3l.3-.5M2 3l.8-.2" vector-effect="non-scaling-stroke"/></g><g id="P"><path fill="#3c2305" d="M.5 5.9 1.9 4l1.5.8L4 8h-.1L.1 7.8l.4-1.7z"/><path fill="none" stroke="#3c2305" stroke-linecap="round" stroke-linejoin="round" stroke-opacity=".4" stroke-width="__RESOLUTION__" d="M3.3 2.3 1.8 3M6.3.3 5.5 0" vector-effect="non-scaling-stroke"/><path fill="none" stroke="#664005" stroke-linecap="round" stroke-linejoin="round" stroke-width="__RESOLUTION__" d="M.5 6.1 0 5.9l1-2.6M.5 6.2V6H.2" vector-effect="non-scaling-stroke"/></g><g id="X" transform="translate(8.95 17.25)"><use xlink:href="#a" width="25.8" height="20.3" transform="translate(-8.95 -9.7)"/><use xlink:href="#b" width="22.6" height="22.6" transform="rotate(187.06 7.46 .067)scale(.3988)"/><use xlink:href="#c" width="7.6" height="5.6" transform="matrix(.8823 -.5291 .4348 .725 7.5 -1.9)"/><use xlink:href="#d" width="13.5" height="14.1" transform="translate(-2.65 -12.3)"/><use xlink:href="#e" width="17.9" height="22.4" transform="translate(-5.5 -11.8)"/><use xlink:href="#f" width="37.9" height="28.6" transform="translate(-5.65 -17.25)"/></g><g id="W"><path fill="#2c2f28" d="M13.2 8.8H13q-2 5.3-5.7 7l-1.5.1Q1.5 13.6.3 10q-1-3.3.9-6.3 2-2.5 4.2-3.5L6 0q5.5 3.5 7.2 8.8M6 9.5l2.2 3.2q.9-1 1.3-3-.2-3.5-2.7-5.3L4 6.3q-.8.4-1.3-1.8-1.5 2.3 1 7 .6-2 2-2z"/><path fill="#656d60" d="M5.9 9.6q-1.5 0-2.2 1.9-2.4-4.7-1-7 .5 2.2 1.4 1.8l2.7-1.8q2.5 1.8 2.7 5.4-.4 1.9-1.3 2.8z"/><path fill="none" stroke="#000" stroke-linecap="round" stroke-linejoin="round" stroke-opacity=".4" stroke-width="__RESOLUTION__" d="M5.4.2q-2.2 1-4.2 3.5-1.9 3-.9 6.3 1.2 3.5 5.5 6l1.5-.3q3.8-1.6 5.8-6.9h0Q11.6 3.5 6 0z" vector-effect="non-scaling-stroke"/><path fill="#d1d6cf" d="m11 5.3-.4-.1h-.3l-.1.3v.2l.1.2.3.1.4-.1.1-.3zm0 6.5-.1-.3h-.7l-.1.1-.1.2.1.4.4.1.3-.1.2-.2zm1.5-3.9v1.6q-1 2.7-2.6 4.6l-2.1 1.5-.3-.1h-.2q-1.8-2.4-3-3v.1q-.5.2-.5.9.1.7 1.6 2.1l.1.2-1.5-1Q1.7 13 1.4 11l.2-.6q1.2.5 2.2 1.8l.5-1.2 1.9-1.5q1.6 0 1.8 1.2.4 1 .3 2v.2l.4-.5Q10 11.1 10 9.1l-.2-.3Q9.7 6 6.5 3.9 5.1 5.3 3.7 6.1L3.3 6q-.2-.6-.1-1.6l-1.3.4-.5-1.1v-.8l.5-.6L3.6.9 4.7.3l.7-.2h1.1q5.3 3.6 6 7.8M7 1V.8L6.6.6l-.3.2-.3.3v.1l.2.3h.7l.1-.3zM5.6 2.7 5.2 2h-.4Q3.6 3.2 3.6 4.9q1.5-.6 2.2-2.1zm1 8.1.8.7.2-.3q-.1-.6-.7-1l-1 .1-.2.2h.1z"/><path fill="#fcfcfc" d="m10.9 5.3.2.3-.1.3-.4.1-.3-.1-.2-.2v-.2l.2-.3h.2zm-.4 7-.4-.1-.1-.3v-.1l.1-.2h.1l.3-.1h.4l.1.3v.1l-.2.3zM7 .8v.4l-.1.3h-.7L6 1.3V1l.3-.3.3-.2z"/><path fill="#fefefe" d="m5.2 2.2.4.4.2.1Q5 4.3 3.6 5q-.1-1.7 1.3-2.8zm2.2 9.3-.8-.7-.7-.3h-.2l.1-.2h1q.6.2.8.9z"/><path fill="none" stroke="#000" stroke-linecap="round" stroke-linejoin="round" stroke-opacity=".4" stroke-width="__RESOLUTION__" d="m10.9 5.3-.3-.1h-.3l-.2.3v.2l.2.2.2.1.5-.1zm.1 6.5-.1-.3h-.7l-.1.1-.1.2v0l.1.4.4.1.3-.1.2-.2zm-4.5-8v.1q3.2 2.2 3.4 4.9V9q0 2-1.2 3.5l-.4.5v-.1q.1-1-.3-2.2-.2-1.1-1.8-1.1l-2 1.5-.5 1.2q-.9-1.3-2.1-1.9l-.2.7q.3 2 2.6 3.7l1.5 1-.1-.2-.3-.2Q4 14.2 3.9 13.5t.4-.9h.1q1.2.4 3 2.9h.5l2-1.4q1.7-1.9 2.7-4.6V7.9q-.7-4.2-6-7.7H6Q3.5 2.6 3.2 4.4v.1q-.1 1 .2 1.6h.4Q5.2 5.3 6.5 4M7 .8 6.6.6l-.3.2-.3.3v.1l.2.3h.7l.1-.3V1zM6 .2V0h-.7l-.6.2-1.1.6-1.7 1.4-.5.6v.8l.5 1.1 1.3-.4m2 11 .7.3.1.1 1.5-.3m-2.1.1.5.1" vector-effect="non-scaling-stroke"/><path fill="#000" fill-opacity=".3" d="m10.3 5.9.2.1.5-.1v-.5l.3.3.1.2-.1.6H11l-.5-.2-.5-.5zm.7 6-.2.5-.7.2q-.2 0-.1-.5v-.4l.1.4.4.1.3-.1zM6.9 1.5l.1-.4V1l.3.3v.2q0 .5-.2.5l-.4-.1-.5-.4h.3z"/><path fill="#000" fill-opacity=".3" d="m10 9-.2-.2Q9.7 6 6.5 3.9l.1-.1.1-.1q2 1.2 3 2.9t.7 3.6-2 3.1l-.1-.3.6-.5Q10 11.1 10 9.1"/><path fill="#900" d="M19.3 6v.4l-.8.9-.5.5-1.6.5-1 .7H14l-1.6.5-.6-.2-.2-.8.1-.5.4-.4.2-.1-.4.4v.4l.1.2.5.1 1.5-.2.3-.4v-.6l.2-.1.2-.1v.2l.1.7 1-.3.7-.6.2-.4v-.1l.2.4v.4q.9-.2.9-.6l.1-.5-.1-.1v-.1z"/><path fill="#c60" d="m14.3 8-.4.4-1.5.2-.4-.1-.1-.2v-.4l.4-.4h1.1l.9-.1zm.4-.6v-.2l1.1-.3.6-.2h.3l-.2.4-.7.7-1 .3zm3.1-.5q0 .4-.8.6l-.1-.4-.1-.4h-.1l1-.5.2.2z"/><path fill="#f7e674" d="m12 7.6-.3.4v.5l-.2.1-.3.2-.2-.1-.3-.3.3-.8h.2l.2-.1h.3zm-1 .2.2.4.3-.2-.1-.2h-.1z"/><path fill="#fff" d="M11.4 7.8V8l-.2.2-.1-.4z"/><path fill="#e0ab47" d="m11.8 9.3-.3.2-.4-.2q-.3-.1-.3-.5v-.4l.2.3h.3l.3-.1z"/><path fill="#000" fill-opacity=".3" d="M10.8 8.4v.4q0 .4.2.5l.5.2.3-.1v-.1l.6.2q-.1.2-.6.3H11l-.5-.4v-.1l-.1-.3v-.5l.3-.5.4-.3z"/><path fill="none" stroke="#000" stroke-linecap="round" stroke-linejoin="round" stroke-opacity=".4" stroke-width="__RESOLUTION__" d="M19.3 6v.4l-.8.9-.5.5-1.6.5-1 .7H14l-1.6.5-.6-.2v0l-.3.1-.4-.1q-.3-.1-.3-.5v-.4l.2-.8h.3l.1-.1h2l.9-.1.1-.1.2-.1h.1l1.1-.3.6-.3h.1l.2.1h0l1-.5v0zm-4.9 1.3.1.8-.2.6-.3.3m-2.2.3-.2-.8v0l.1-.5.4-.4m4.6-1 .2.4v.5l-.5.8" vector-effect="non-scaling-stroke"/></g><g id="V" transform="translate(4.8 11)"><use xlink:href="#g" width="9.3" height="21.8" transform="translate(-4.7 -10.9)"/><use xlink:href="#h" width="7.7" height="16.4" transform="translate(-4.6 -5.75)"/><use xlink:href="#i" width="9.6" height="21.9" transform="translate(-4.8 -11)"/></g><g id="U"><path fill="#900" d="m7.6.3 1.6.2v.4l-.8.6-.8.4-1.7.1-1 .4-1.6-.2h-1L1 2v-.5l-.1-.2V1L1 .6l.5-.3h.2l-.4.3V1l.1.2.4.2h.6l1 .1.3-.3.1-.6H4l.2-.1.1.2v.7h1.1l.8-.5.2-.4.2.4v.4l1-.4.1-.4zM6.5 1.6l-.6.4zM3.3 2l.4-.3.3-.5V.6v.7l-.3.5z"/><path fill="#e0ab47" d="M1 1.9H.8l-.5-.2-.2-.5V.7l.3.3.3.1H1v.2z"/><path fill="#f7e674" d="M0 .9.2.4.7 0l.4.2h.4L1 .7.9 1v.2H.3zM.8.3H.4v.3L.9.5z"/><path fill="#c60" d="M1.7.3h.5l.7.2h.9l-.1.7-.3.3-1-.1h-.6l-.4-.2-.1-.2V.5zm2.5.2h.7l.6-.1h.8l-.1.5-.8.5h-1L4.3.7zm2.2 0L7.6.3l.1.2v.4l-1.1.4V.9z"/><path fill="#fff" d="M.8.3v.2H.4V.4z"/><path fill="none" stroke="#000" stroke-linecap="round" stroke-linejoin="round" stroke-opacity=".4" stroke-width="__RESOLUTION__" d="m7.6.3 1.6.2v.4l-.8.6-.8.4-1.7.1-1 .4-1.6-.2h-1L1 2v0H.6l-.4-.2-.2-.5V.7L.2.4.7 0l.4.2h.6l.5.2.8.1h1.9l.6-.1h.9zm-1 1V.5h-.1M5.9 2l.6-.5M4 .5v.8l-.3.5-.4.3M.9 1 1 .6l.5-.3m-.6.9V1m.1.9v-.5l-.1-.2" vector-effect="non-scaling-stroke"/></g><g id="T" transform="translate(4.25 4.4)"><use xlink:href="#j" width="8.5" height="8.7" transform="translate(-4.25 -4.35)"/><use xlink:href="#k" width="3.5" height="4.3" transform="translate(-1.7 -2.8)"/><use xlink:href="#l" width="8.2" height="8.8" transform="translate(-4.2 -4.4)"/></g><g id="Z" transform="translate(25.55 12.45)"><use xlink:href="#m" width="27.9" height="27.9" transform="translate(-7.45 -2.85)scale(.6188)"/><use xlink:href="#n" width="34.7" height="28.6" transform="translate(-25.55 -12.45)scale(1.21)"/></g><g id="ac" transform="translate(25.55 12.45)"><use xlink:href="#m" width="27.9" height="27.9" transform="translate(-7.45 -2.85)scale(.6188)"/><use xlink:href="#n" width="34.7" height="28.6" transform="translate(-17.6 -6.6)scale(.815)"/></g><g id="as"><path fill="#97793c" d="M9.3 12.8q.3.7 0 1.3l-.3.4-.2-.3-.4.6-.1-.3q-.3-.6-.2-1h.2l.2-.5.5-.5z"/><path fill="none" stroke="#000" stroke-linecap="round" stroke-linejoin="round" stroke-opacity=".4" stroke-width="__RESOLUTION__" d="m8.4 14.8-.1-.3q-.3-.6 0-1l.2-.5.5-.5" vector-effect="non-scaling-stroke"/><path fill="#fff" d="M11.3 7.2v-.5h.2l1 2.8q-.4-.1-.7-.9zM8.7 11l-1.2 3.5-1.5.6L7.3 12zM1.2 1.6 2 2q0 .8-.3.9l-.4-.2-.2-.9zM6 12.5l.5-.2L5 15.2l-.2-.2z"/><path fill="#d1d6cf" d="M11.8 8.6q.3.8.7.9l.5 1.4q-2.6 2.2-5.5 3.6L8.8 11l2-1.4-1-2.8-1.9-3.1-.4-.7L5 .8l-.5.3-.1-.4.1-.3h.2l.7-.3.7.2Q9.9 3 11.5 6.7h-.2v.5zM1 1.6v.2l.2.8.4.3q.3-.1.3-.8V2H2v.4l1 2.4.1.5L6 12.5 4.8 15 .6 1.7zM7.3 12 6 15l-.7.2H5l1.4-3z"/><path fill="#2d3029" d="m7.9 3.7 1.9 3 1 2.9-.9.7L8.7 7l-2-3.1-.4-.5-2.2-2.1.5-.3.5-.3L7.5 3z"/><path fill="#5b6153" d="m6.8 3.9 2 3.1 1.1 3.3-2.6 1.6-.8.3-.5.3-3-7.2v-.5l-.9-2.4 2-1.1 2.3 2.1z"/><path fill="#867f6d" d="M.6 1.7 4.9 15l.2.2h.2-.8l-.2-.3-.1-.2-3-8.7-.1-.2-.5-2.6q0-.4-.3-.9zM.3 3.8l-.2.1-.1-.8.5.3-.1.1z"/><path fill="none" stroke="#000" stroke-linecap="round" stroke-linejoin="round" stroke-opacity=".4" stroke-width="__RESOLUTION__" d="m11 9.4-.3.2L7.4 12l-.8.2-.5.3h0L3 5.3v-.5l-.9-2.4v-.3l-.9-.5H.6L4.9 15l.2.2h.2l2.2-.7q3-1.3 5.5-3.6l-1.5-4.3Q9.8 3.1 6.2.2L5.5 0l-.7.3.3.4L7.5 3l.4.5 1.8 3.2 1 2.8M2.2 2.4 4.6 1 4.5.6l.1-.3h.2m.5 15-.8-.1-.2-.3-.1-.2-3-8.7-.1-.2-.3-2H.3l-.2.1-.1-.8.5.3.1-.2q0-.4-.3-.9l.3-.6M.5 3.4l-.1.1-.2.3m.5 0-.1-.6M5.1.5l-.5.4" vector-effect="non-scaling-stroke"/><path fill="#fff" fill-opacity=".2" d="m7.8 3-1.2.3h-.1L3.3 4.5l-.3.2-.2-.5 4.5-1.8zm1.7 3 .5 1.2L4.9 9h-.3l-.5-1.3z"/><path fill="#e0ab47" d="M9.5 11.4v1.2l.2.7v.7q-.3.7-.7.5h-.1l-.2-.2.3.1.3-.4.1-.7-.1-.6-.3-.2-.3-.7v-.3q.3-.8 1-.5z"/><path fill="#f7e674" d="m10.9 12.4-.4.1-.2-.3h-.1l-.2.2-.1.5.1.1.2.3.3-.2-.2 1.2h-.4l-.2-.3v-.7l-.1-.7-.1-1.2.2-.4q.8.4 1 1z"/><path fill="#fcfbf9" d="m10.3 12.2.2.3v.6l-.3.2-.2-.3h-.1v-.7z"/><path fill="#c3a744" d="M9 15.4q-.3-.4-.2-.7l.2-.2q.4.2.7-.5l.3.3h.3l.2-1.2v-.6l.4-.1v.2l-.1 1.4-.2.1q-.4 1.5-1.4 1.4z"/><path fill="#97793c" d="m8.8 14.3.2.2-.1.3q-.1.2.2.5v.1l-.2-.1-.5-.5q.1-.5.4-.6"/><path fill="#000" fill-opacity=".3" d="m8.7 11.8.3.7.3.3.1.5-.4.3-.2.1v-.4L8.2 12q0-.3.6-.5z"/><path fill="none" stroke="#000" stroke-linecap="round" stroke-linejoin="round" stroke-opacity=".4" stroke-width="__RESOLUTION__" d="m8.8 14.3.4-.4.1-.7-.2-.6-.2-.2-.3-.7v-.3q.3-.8 1-.5.8.4 1 1l.2.4v.2l-.1 1.4-.2.1q-.4 1.5-1.4 1.4H9l-.2-.2-.5-.5" vector-effect="non-scaling-stroke"/></g><g id="ar" transform="translate(.65 8.65)"><use xlink:href="#o" width="1.9" height="2.9" transform="translate(4.35 -8.65)"/><use xlink:href="#p" width="12.3" height="11.7" transform="translate(-.55 -6.9)"/><use xlink:href="#q" width="3.1" height="7.8" transform="translate(8.6 -2.95)"/><use xlink:href="#r" width="12.5" height="11.9" transform="translate(-.65 -7)"/></g><g id="ap"><path fill="#97793c" d="M12.2 7.8h.3q.6.4.8 1l-.1.4H13v.6l-.2-.1L12 9z"/><path fill="none" stroke="#000" stroke-linecap="round" stroke-linejoin="round" stroke-opacity=".4" stroke-width="__RESOLUTION__" d="m13 9.9-.2-.2-.7-.6m0-.2V7.7" vector-effect="non-scaling-stroke"/><path fill="#d1d6cf" d="M2.3.9h.3zm.1.6-.3-.3L2 .8l.5-.5.6-.3q4.2.2 7.5 2l-.2.1.3.4.2.4.9.5q.8.4 1 .2l1 .9q-.3 3-1.7 5.5l-1-3.2.3-1.1.3-1-1.4-1-1-.6-3-1.4-.6-.2L2.6.9zm9.3 2.9v.3zM1.2 3.6l.2.1 1.9 1.5.4.2 2.5 1.8 1.2.8 2.4 1.5v-.1l.5 2.4L6.9 9l-1.2-.9-2.4-1.7-.3-.3-2.9-2 .3-.3.1.1.7.5h.4q.2-.3-.3-.8zm10.1 7.7-.4.6h-.1L10.1 9l.4-.7z"/><path fill="#2d3029" d="m2.4 1.5.1-.6 3.2.6.6.2 3 1.4 1 .6 1.3 1-.2 1-1.7-1.3-1-.6-3-1.3-.7-.1-2.8-.5z"/><path fill="#5b6153" d="m2.2 1.9 2.9.5.6.1 3 1.3 1 .6 1.7 1.2-.4 1.2-.6 1.4-.3.8-.2.4L7.5 8l-1.2-.8-2.5-1.7-.4-.2-1.9-1.4z"/><path fill="#867f6d" d="m0 4.1 2.9 2 .3.2 2.4 1.8 1.3.9 3.5 2.8h.4l-.5.4H10l-.1-.1-3.4-2.3-1.3-1L2.9 7l-.2-.1-1.5-1.3-.4-.4-.7-.5zm.9 1.8-.5-.5h.4v.1z"/><path fill="#fff" d="m10.5 11.8-.6-2.4.2-.4.7 2.9zM.3 3.8h.1l.8-.2q.5.5.3.7l-.5.1-.6-.5zm12.5-.2q-.3.2-1-.2l-.9-.5-.3-.4-.2-.4h.1q1.2.5 2.3 1.5m-.7 6.4-.8 1.3-.9-3 .6-1.5z"/><path fill="none" stroke="#000" stroke-linecap="round" stroke-linejoin="round" stroke-opacity=".4" stroke-width="__RESOLUTION__" d="M2.6.9h-.3m8.3 1.2Q7.3.1 3 0l-.6.3-.5.5.1.4.3.3.2-.6 3 .6.7.2 3 1.4 1 .6 1.3 1v-.3m-.2 1.2.3-.9M1.2 3.5l.2.2h0l.7-1.9.2-.4M0 4.2l2.9 2 .3.2 2.4 1.8 1.3.9 3.5 2.8h.4l-.5.4H10l-.1-.1-3.4-2.3-1.3-1L2.9 7l-.2-.1-1.5-1.3-.3.3V6l-.5-.6h.4v-.2l-.7-.5zl.3-.3h.1l.8-.3m8.6 6L7.6 8l-1.2-.8-2.5-1.8-.4-.2-1.9-1.4m9-1.7q1.2.5 2.4 1.5l1 .9q-.4 3-1.8 5.5l-.8 1.3-.4.6h0m.5-6.2-.3 1.1-.6 1.5-.4.7-.2.4v0M1.3 5.7l-.5-.4m0 .3.1.3" vector-effect="non-scaling-stroke"/><path fill="#fff" fill-opacity=".2" d="m5.1 1.3-.4.9L3 4.7V5l.4.2.1-.2 1.6-2.6.1-.1.7-.8zm1.7 4.3L5.8 7l1.2.7.2-.1 2-3.4.6-.8-1-.6-.6.8z"/><path fill="#000" fill-opacity=".3" d="m11.4 7.2.1.3.6.3.4.1.4.4-.2.4v.1l-.3-.4q-.2-.3-.7-.4l-.4-.2q-.2-.2 0-.7"/><path fill="#e0ab47" d="m12.9 8.3-.4-.4-.4-.1-.6-.3-.1-.3V7q-.2-.6.4-.8h.1v.4l.7.9.4.4.4.4v.2q.2.6-.2.8l-.2-.1h-.1.2q.2-.1.1-.5z"/><path fill="#97793c" d="m12.9 9.3.3.1.1.2.4.4-.7-.1z"/><path fill="#c3a744" d="M13.2 9.4q.5-.2.3-.8h.3l.2-.2-.4-.9-.1-.2-.2-.2v-.4l.3.2.6 1v.2q.5 1.4-.3 1.8h-.2l-.4-.3z"/><path fill="#f7e674" d="m13.5 8.6-.2-.2L13 8l-.4-.4-.7-.9v-.4l1.2.2.3.2-.2.3-.3-.1h-.2v.3l.4.5h.3l.2-.2.4.9-.2.2z"/><path fill="#fcfbf9" d="m13.6 7.5-.2.3-.3-.1-.4-.5V7l.2-.1.2.1h.2v.1l.1.2z"/><path fill="none" stroke="#000" stroke-linecap="round" stroke-linejoin="round" stroke-opacity=".4" stroke-width="__RESOLUTION__" d="m12.9 8.3-.4-.4-.4-.1-.6-.3-.1-.3m1.5 1.1.3.5q.2.4 0 .5h-.3m-1-3q-.6.2-.4.8m2-.4-.3-.2-1.2-.3m1.5.5.2.1.6 1.2v0q.5 1.4-.3 1.8h-.1l-.1.1-.7-.1" vector-effect="non-scaling-stroke"/></g><g id="ao" transform="translate(7.75 7.35)"><use xlink:href="#s" width="15.3" height="14.4" transform="translate(-7.65 -7.25)"/><use xlink:href="#t" width="15.6" height="14.7" transform="translate(-7.75 -7.35)"/><use xlink:href="#u" width="13" height="10.6" transform="translate(-5.7 -3.65)"/><use xlink:href="#v" width="13.8" height="9.8" transform="translate(-6.35 -2.55)"/></g><g id="an" transform="translate(.65 8.65)"><use xlink:href="#w" width="1.9" height="2.9" transform="translate(4.35 -8.65)"/><use xlink:href="#x" width="12.3" height="11.7" transform="translate(-.55 -6.9)"/><use xlink:href="#y" width="3.1" height="7.8" transform="translate(8.6 -2.95)"/><use xlink:href="#z" width="12.5" height="11.9" transform="translate(-.65 -7)"/></g><g id="am" transform="translate(9.65 11.6)"><use xlink:href="#A" width="15.7" height="22.9" transform="translate(-7.65 -11.5)"/><use xlink:href="#B" width="14.7" height="19.1" transform="translate(-6.65 -11.5)"/><use xlink:href="#D" width="15.8" height="23.1" transform="translate(-7.75 -11.6)"/><use xlink:href="#E" width="4.5" height="4.6" transform="translate(-6.3 -3.4)scale(.7407)"/><use xlink:href="#E" width="4.5" height="4.6" transform="rotate(44.84 7.74 -4.96)scale(.4881)"/><use xlink:href="#F" width="13.1" height="9" transform="translate(-9.65 2.85)"/></g><g id="aj"><path fill="#2c2f28" d="m6.5.8.3-.2Q9.2 3 9 6.5l-.2.1q-2.3 3.7-4.5 4.6l-.9.2q-1.9-1.6-1.8-4 .1-2.2 1.8-4.2 1.8-2 3.1-2.4"/><path fill="none" stroke="#000" stroke-linecap="round" stroke-linejoin="round" stroke-opacity=".4" stroke-width="__RESOLUTION__" d="M6.5.8Q5.2 1.3 3.4 3 1.7 5 1.6 7.4t1.8 3.9l.9-.2q2.2-.9 4.6-4.6v-.1Q9.3 3 6.9.7z" vector-effect="non-scaling-stroke"/><path fill="#d1d6cf" d="m5.4 2-.2-.2-.3-.2q-1.2.9-1.5 2.2 1.1-.6 2-1.8m0-2h1.1q3.2 2.6 3 5.8l-.2 1.1q-1.7 4.4-3.5 4.4l-1.5.2h-.4l-.5-.3-.2-.2 2.5-1.7q1.2-1.1 1.6-2.7v-.2q.4-2-1.6-3.5-1.5 1.2-2.5 1.6h-.3l.2-1.2Q4.6.1 5.4 0"/><path fill="#fefefe" d="M4.8 1.6h.3l.2.3.1.2q-1 1.1-2.1 1.6.2-1.3 1.5-2.1"/><path fill="none" stroke="#000" stroke-linecap="round" stroke-linejoin="round" stroke-opacity=".4" stroke-width="__RESOLUTION__" d="M5.4 0q-.8.2-2.3 3.3l-.2 1.2h.3q1-.4 2.4-1.6 2.1 1.5 1.7 3.5v.3q-.4 1.5-1.6 2.6L3 11l.3.2.5.3h.4l1.5-.2q1.8 0 3.5-4.4l.1-1.1q.3-3.2-3-5.7L6 0v0z" vector-effect="non-scaling-stroke"/><path fill="#000" fill-opacity=".3" d="M5.9 2.7q1.3 1 1.6 2.2.5 1.2-.2 2.6t-2 2.3Q3 11.6 3.2 11l2.4-1.7Q7 8.2 7.4 6.6v-.1q.4-2.1-1.6-3.6z"/><path fill="#900" d="m1.9 8.8.5.5q-.8-.2-.9 0l-.3.8-.2 1-.1-.4-.6-.9Q.1 9 .7 8.3l.4-.5q.2-.2.5-.2l.1.1z"/><path fill="none" stroke="#000" stroke-linecap="round" stroke-linejoin="round" stroke-opacity=".4" stroke-width="__RESOLUTION__" d="m2.4 9.4-.5-.7-.1-1-.2-.1q-.3 0-.5.2l-.4.5q-.6.8-.4 1.5l.6.9" vector-effect="non-scaling-stroke"/><path fill="#900" d="m2.2 9.1-.6.3-.2.3.1.3.3.2 1.1.3q.2.1.4-.2l.5-.6h.3v.3l-.3.6.8.2.9-.5.3-.3v.5l-.1.4.9-.2.2-.4V10H7l.7-.2.8-.5h.2l.4.2v.5q0 .6-.6 1l-1.2.2H7l-.9.3H3.7q-.8.1-1-.4l-1-.1-.8-.4v-.1l.2-.5v-.3l.3-.4.6-.2z"/><path fill="#c60" d="m1.7 9.4.5-.3.8.5.8.1-.5.5q-.2.4-.4.3l-1.1-.3-.3-.3-.1-.2zm2.6.3 1.4.3h.1l-.3.4-1 .3-.7-.1.3-.6v-.2zm2.6.4-.1.2-.2.4-1 .2.2-.4v-.4z"/><path fill="none" stroke="#000" stroke-linecap="round" stroke-linejoin="round" stroke-opacity=".4" stroke-width="__RESOLUTION__" d="m2.2 9.1.8.5.8.1h.5l1.4.2h0l.1.1v0H7l.7-.2.8-.5h.2l.4.2v.5q0 .6-.6 1l-1.2.2H7l-.9.3H3.7q-.8.1-1-.4l-1-.1-.8-.4v-.1l.2-.5v-.2h0v-.1l.3-.4.6-.2zm1.6.7q.1.1-.2.6L3 11l-.3.1m3.1-1v.5l-.1.3-.3.2-.7.4m2.6-.2.4-.4v-.5L7 10" vector-effect="non-scaling-stroke"/></g><g id="ai" transform="translate(4.4 7.1)"><use xlink:href="#G" width=".6" height="2.5" transform="translate(-4.4 4.4)"/><use xlink:href="#H" width="8.6" height="13.9" transform="translate(-4.3 -7.05)"/><use xlink:href="#I" width="6.8" height="14.1" transform="translate(-2.25 -7.1)"/></g><g id="ah" transform="translate(7 4.5)"><use xlink:href="#J" width="6.3" height="8" transform="translate(-7 -3.9)"/><use xlink:href="#K" width="13.8" height="8.8" transform="translate(-6.9 -4.4)"/><use xlink:href="#L" width="13.2" height="9" transform="translate(-6.15 -4.5)"/></g><g id="ag"><path fill="#4d3514" d="m6.5.8.3-.2Q9.2 3 9 6.5l-.2.1q-2.3 3.7-4.5 4.6l-.9.2q-1.9-1.6-1.8-4 .1-2.2 1.8-4.2 1.8-2 3.1-2.4"/><path fill="none" stroke="#3c2305" stroke-linecap="round" stroke-linejoin="round" stroke-opacity=".4" stroke-width="__RESOLUTION__" d="M6.5.8Q5.2 1.3 3.4 3 1.7 5 1.6 7.4t1.8 3.9l.9-.2q2.2-.9 4.6-4.6v-.1Q9.3 3 6.9.7z" vector-effect="non-scaling-stroke"/><path fill="#8f7857" d="m5.4 2-.2-.2-.3-.2q-1.2.9-1.5 2.2 1.1-.6 2-1.8m0-2h1.1q3.2 2.6 3 5.8l-.2 1.1q-1.7 4.4-3.5 4.4l-1.5.2h-.4l-.5-.3-.2-.2 2.5-1.7q1.2-1.1 1.6-2.7v-.2q.4-2-1.6-3.5-1.5 1.2-2.5 1.6h-.3l.2-1.2Q4.6.1 5.4 0"/><path fill="#a1886a" d="M4.8 1.6h.3l.2.3.1.2q-1 1.1-2.1 1.6.2-1.3 1.5-2.1"/><path fill="none" stroke="#3c2305" stroke-linecap="round" stroke-linejoin="round" stroke-opacity=".4" stroke-width="__RESOLUTION__" d="M5.4 0q-.8.2-2.3 3.3l-.2 1.2h.3q1-.4 2.4-1.6 2.1 1.5 1.7 3.5v.3q-.4 1.5-1.6 2.6L3 11l.3.2.5.3h.4l1.5-.2q1.8 0 3.5-4.4l.1-1.1q.3-3.2-3-5.7L6 0v0z" vector-effect="non-scaling-stroke"/><path fill="#3c2305" fill-opacity=".3" d="M5.9 2.7q1.3 1 1.6 2.2.5 1.2-.2 2.6t-2 2.3Q3 11.6 3.2 11l2.4-1.7Q7 8.2 7.4 6.6v-.1q.4-2.1-1.6-3.6z"/><path fill="#782305" d="m1.9 8.8.5.5q-.8-.2-.9 0l-.3.8-.2 1-.1-.4-.6-.9Q.1 9 .7 8.3l.4-.5q.2-.2.5-.2l.1.1z"/><path fill="none" stroke="#3c2305" stroke-linecap="round" stroke-linejoin="round" stroke-opacity=".4" stroke-width="__RESOLUTION__" d="m2.4 9.4-.5-.7-.1-1-.2-.1q-.3 0-.5.2l-.4.5q-.6.8-.4 1.5l.6.9" vector-effect="non-scaling-stroke"/><path fill="#782305" d="m2.2 9.1-.6.3-.2.3.1.3.3.2 1.1.3q.2.1.4-.2l.5-.6h.3v.3l-.3.6.8.2.9-.5.3-.3v.5l-.1.4.9-.2.2-.4V10H7l.7-.2.8-.5h.2l.4.2v.5q0 .6-.6 1l-1.2.2H7l-.9.3H3.7q-.8.1-1-.4l-1-.1-.8-.4v-.1l.2-.5v-.3l.3-.4.6-.2z"/><path fill="#8d4b05" d="m1.7 9.4.5-.3.8.5.8.1-.5.5q-.2.4-.4.3l-1.1-.3-.3-.3-.1-.2zm2.6.3 1.4.3h.1l-.3.4-1 .3-.7-.1.3-.6v-.2zm2.6.4-.1.2-.2.4-1 .2.2-.4v-.4z"/><path fill="none" stroke="#3c2305" stroke-linecap="round" stroke-linejoin="round" stroke-opacity=".4" stroke-width="__RESOLUTION__" d="m2.2 9.1.8.5.8.1h.5l1.4.2h0l.1.1v0H7l.7-.2.8-.5h.2l.4.2v.5q0 .6-.6 1l-1.2.2H7l-.9.3H3.7q-.8.1-1-.4l-1-.1-.8-.4v-.1l.2-.5v-.2h0v-.1l.3-.4.6-.2zm1.6.7q.1.1-.2.6L3 11l-.3.1m3.1-1v.5l-.1.3-.3.2-.7.4m2.6-.2.4-.4v-.5L7 10" vector-effect="non-scaling-stroke"/></g><g id="ae" transform="translate(4.4 7.1)"><use xlink:href="#M" width=".6" height="2.5" transform="translate(-4.4 4.4)"/><use xlink:href="#N" width="8.6" height="13.9" transform="translate(-4.3 -7.05)"/><use xlink:href="#O" width="6.8" height="14.1" transform="translate(-2.25 -7.1)"/></g><g id="ad" transform="translate(7 4.5)"><use xlink:href="#P" width="6.3" height="8" transform="translate(-7 -3.9)"/><use xlink:href="#R" width="13.8" height="8.8" transform="translate(-6.9 -4.4)"/><use xlink:href="#S" width="13.2" height="9" transform="translate(-6.15 -4.5)"/></g><g id="bx" transform="translate(58.55 91.45)"><use xlink:href="#T" width="8.5" height="8.8" transform="matrix(-.5196 .8527 .8527 .5196 -10 -39.9)"/><use xlink:href="#U" width="9.2" height="2.3" transform="matrix(-.861 .4996 .4996 .861 -10.4 -41.25)"/><use xlink:href="#V" width="9.6" height="21.9" transform="matrix(-.861 .4996 .4996 .861 -17.4 -56.8)"/><use xlink:href="#W" width="19.3" height="15.9" transform="matrix(-.861 .4996 .4996 .861 -7.15 -46.85)"/><use xlink:href="#X" width="41.2" height="28.6" transform="matrix(-.861 .4996 .4996 .861 -23.05 -78.25)"/><use xlink:href="#Y" width="36.4" height="34.2" transform="translate(4.1 -91.45)"/></g><g id="bv" transform="translate(58.55 91.45)"><use xlink:href="#T" width="8.5" height="8.8" transform="matrix(-.5196 .8527 .8527 .5196 -10 -39.9)"/><use xlink:href="#U" width="9.2" height="2.3" transform="matrix(-.861 .4996 .4996 .861 -10.4 -41.25)"/><use xlink:href="#V" width="9.6" height="21.9" transform="matrix(-.861 .4996 .4996 .861 -17.4 -56.8)"/><use xlink:href="#W" width="19.3" height="15.9" transform="matrix(-.861 .4996 .4996 .861 -7.15 -46.85)"/><use xlink:href="#X" width="41.2" height="28.6" transform="matrix(-.861 .4996 .4996 .861 -23.05 -78.25)"/><use xlink:href="#Y" width="36.4" height="34.2" transform="translate(4.1 -91.45)"/></g><g id="bt" transform="translate(58.55 91.45)"><use xlink:href="#T" width="8.5" height="8.8" transform="matrix(-.5196 .8527 .8527 .5196 -10 -39.9)"/><use xlink:href="#U" width="9.2" height="2.3" transform="matrix(-.861 .4996 .4996 .861 -10.4 -41.25)"/><use xlink:href="#V" width="9.6" height="21.9" transform="matrix(-.861 .4996 .4996 .861 -17.4 -56.8)"/><use xlink:href="#W" width="19.3" height="15.9" transform="matrix(-.861 .4996 .4996 .861 -7.15 -46.85)"/><use xlink:href="#X" width="41.2" height="28.6" transform="matrix(-.861 .4996 .4996 .861 -23.05 -78.25)"/><use xlink:href="#Z" width="42" height="34.5" transform="translate(-28.15 -71.95)scale(.916)"/></g><g id="br" transform="translate(58.55 91.45)"><use xlink:href="#T" width="8.5" height="8.8" transform="matrix(-.5196 .8527 .8527 .5196 -10 -39.9)"/><use xlink:href="#U" width="9.2" height="2.3" transform="matrix(-.861 .4996 .4996 .861 -10.4 -41.25)"/><use xlink:href="#V" width="9.6" height="21.9" transform="matrix(-.861 .4996 .4996 .861 -17.4 -56.8)"/><use xlink:href="#W" width="19.3" height="15.9" transform="matrix(-.861 .4996 .4996 .861 -7.15 -46.85)"/><use xlink:href="#X" width="41.2" height="28.6" transform="matrix(-.861 .4996 .4996 .861 -23.05 -78.25)"/><use xlink:href="#aa" width="42" height="34.5" transform="translate(-28.15 -71.95)scale(.916)"/></g><g id="bp" transform="translate(58.55 91.45)"><use xlink:href="#T" width="8.5" height="8.8" transform="matrix(-.5196 .8527 .8527 .5196 -10 -39.9)"/><use xlink:href="#U" width="9.2" height="2.3" transform="matrix(-.861 .4996 .4996 .861 -10.4 -41.25)"/><use xlink:href="#V" width="9.6" height="21.9" transform="matrix(-.861 .4996 .4996 .861 -17.4 -56.8)"/><use xlink:href="#W" width="19.3" height="15.9" transform="matrix(-.861 .4996 .4996 .861 -7.15 -46.85)"/><use xlink:href="#X" width="41.2" height="28.6" transform="matrix(-.861 .4996 .4996 .861 -23.05 -78.25)"/><use xlink:href="#ab" width="36.4" height="34.2" transform="translate(4.1 -91.45)"/><use xlink:href="#ac" width="42" height="34.5" transform="translate(-28.15 -71.95)scale(.916)"/></g><g id="bo" transform="translate(36.6 41.65)"><use xlink:href="#ad" width="14" height="9" transform="matrix(-1.01 .0703 .2285 .9746 10.6 -7.8)"/><use xlink:href="#ae" width="8.9" height="14.1" transform="matrix(-.9736 .2213 .2213 .9736 1.65 -18.7)"/><use xlink:href="#ag" width="9.4" height="11.8" transform="matrix(-.9736 .2213 .2213 .9736 4.05 -15.9)"/><use xlink:href="#ah" width="14" height="9" transform="matrix(-.9887 -.1268 -.0889 1 1 -2.05)"/><use xlink:href="#ai" width="8.9" height="14.1" transform="matrix(-1 0 -.0309 1 -4.3 -14.65)"/><use xlink:href="#aj" width="9.4" height="11.8" transform="matrix(-1 0 -.0309 1 -2.7 -11.4)"/><use xlink:href="#ak" width="8.2" height="4.2" transform="matrix(-.1211 .9898 .9898 .1211 -13.6 -21.15)"/><use xlink:href="#al" width="8" height="4" transform="rotate(96.98 2.57 -16.5)scale(.9972 -.9972)"/><use xlink:href="#ak" width="8.2" height="4.2" transform="matrix(.4013 .6713 .8544 -.5108 -10.15 -20.85)"/><use xlink:href="#al" width="8" height="4" transform="matrix(.4013 .6713 .8544 -.5108 -10 -20.8)"/><use xlink:href="#am" width="17.8" height="23.4" transform="matrix(-.3379 .9388 .57 .2052 -27.4 -36.2)"/><use xlink:href="#an" width="12.5" height="13.6" transform="matrix(-.4405 .0112 .0253 .9943 -11.35 -39.5)"/><use xlink:href="#ao" width="15.6" height="14.7" transform="matrix(-.7013 .7106 .7106 .7013 -11.7 -37.15)"/><use xlink:href="#ap" width="14.3" height="12.2" transform="matrix(-.7013 .7106 .7106 .7013 -16.85 -33.45)"/><use xlink:href="#aq" width="22.8" height="22" transform="rotate(-40.32 -56.43 35.84)scale(.9254)"/><use xlink:href="#ar" width="12.5" height="13.6" transform="matrix(-.8432 .5332 .5332 .8432 -15.8 -32.3)"/><use xlink:href="#as" width="12.9" height="15.4" transform="matrix(-.7013 .7106 .7106 .7013 -11.45 -35.15)"/></g><use xlink:href="#aPP" id="aN" width="22.9" height="21.6"/><use xlink:href="#at" id="e" width="17.9" height="22.4"/><use xlink:href="#au" id="h" width="7.7" height="16.4"/><use xlink:href="#av" id="g" width="9.3" height="21.8"/><use xlink:href="#aw" id="k" width="3.5" height="4.3"/><use xlink:href="#ax" id="j" width="8.5" height="8.7"/><use xlink:href="#ay" id="n" width="34.7" height="28.6"/><use xlink:href="#az" id="m" width="27.9" height="27.9"/><use xlink:href="#aA" id="q" width="3.1" height="7.8"/><use xlink:href="#aB" id="p" width="12.3" height="11.7"/><use xlink:href="#aC" id="u" width="13" height="10.6"/><use xlink:href="#aD" id="s" width="15.3" height="14.4"/><use xlink:href="#aE" id="y" width="3.1" height="7.8"/><use xlink:href="#aF" id="x" width="12.3" height="11.7"/><use xlink:href="#aG" id="B" width="14.7" height="19.1"/><use xlink:href="#aH" id="A" width="15.7" height="22.9"/><use xlink:href="#aI" id="bm" width="8" height="4"/><use xlink:href="#aJ" id="H" width="8.6" height="13.9"/><use xlink:href="#aK" id="K" width="13.8" height="8.8"/><use xlink:href="#aL" id="N" width="8.6" height="13.9"/><use xlink:href="#aM" id="R" width="13.8" height="8.8"/><use xlink:href="#aN" id="Y" width="22.9" height="21.6" transform="matrix(-1 0 0 1 29.95 4.5)"/><use xlink:href="#n" id="aa" width="34.7" height="28.6" transform="scale(1.21)"/><use xlink:href="#aN" id="ab" width="22.9" height="21.6" transform="matrix(-1.58 0 0 1.58 36.35 0)"/><use xlink:href="#aR" id="aq" width="22.8" height="22"/><use xlink:href="#bm" id="al" width="8" height="4"/><path id="at" fill="#b3c07a" d="M2.8-7 1.6-5.3l.3.2 1.9 3.5L7.6.6l.9 10.2-1.2-.2q-1.2-.1-5-3.9l1.3-.2-.4-5.3-3.6-2.8-3.8-1 3.2-.3-1.8-2.6-.4.6-1-2.5-4.2-.8-.1-2.5h3L-1-9.4v1.5zm-8.1 18.6-1.9-1.1.7-.3-2.9-1.8L-5.7 3l-2 5.4 1.6 1.6L.4 7.2l.3.4-1.3 1.2z" transform="translate(9.4 10.75)"/><path id="au" fill="#473218" d="M1.4-6.5v-1.2l1.4-.5 1 .5L3-4.8l-.8.2L1-5.5zM1.2.2.5-.2h-1.6l1-2.4v-.1l2.2.7zm-4.4 4.2.7-1.5 2 .2L.6 5.6l-4.4 2.7z" transform="translate(3.85 8.2)"/><path id="av" fill="#b0bf7a" d="M4.7-10.5.3 3.4l1 3.9-6 3.6.6-3.9L.5-3.9l.3-7z" transform="translate(4.7 10.9)"/><path id="aw" fill="#3f2c15" d="m-.7-2.1 2 1.4q.8.7.2 1.7-.4 1-1.7 1l-.2-.6L-1.7.3-.5-1z" transform="translate(1.7 2.15)"/><path id="ax" fill="#9ead76" d="M-4.1-2.4q-.6-2.2 1.5-1.9Q-.1-1.7 3.9.3q1 1.6-.5 2.2-1.5 0-2.5 1.8L.1 1.4z" transform="translate(4.25 4.35)"/><path id="az" fill="#fff" d="M9.8-10.2q3.3 3.3 4 7.7l.1 2.2q0 5.7-4.1 9.8-3.3 3.3-7.6 4l-2.2.1q-5.8 0-10-4.1-2.6-2.6-3.5-6-.5-1.8-.5-3.8 0-5.8 4-10h.2q4-4 9.8-4 3.7 0 6.6 1.7 1.7.9 3.2 2.3" transform="translate(14 14.3)"/><path id="aA" fill="#734731" d="M1-1.4q.8 2.7.5 5.3Q0 .2-1.5-.2l.9-1.1.5-2.5 1 2z" transform="translate(1.55 3.85)"/><path id="aB" fill="#adbf7a" d="m.7-5.5-.1-.2.6.4Q4.4-2.8 5.4.1v.4q.9 2.7.6 5.3Q3-1.4.3 4q-1.5-2.2-3.8-2.6h-2.6V.2q.6-2.3 1.5-.3 3.4-1.4 2.8-5l.7-.7q-.2.5 0 .8t.9.3l.9-.2z" transform="translate(6.15 5.85)"/><path id="aC" fill="#734731" d="M6.5-3.3Q5.8-.1 3.9 3.2l-.3-4.5-1.8-3-2.8-.8 4.9-.1zM.5-.7l.8 4.4-1.8 1.6-3.9-1.1 2.9-1zm-2 .7-2.9-2.6h-2.1l2.4-1.7 2 1z" transform="translate(6.5 5.25)"/><path id="aD" fill="#adbf7a" d="M7.5-2.5q-1 4.8-4.3 9.7Q-2 7-6 4.5l-1.6-2.4.9-2.3 9.4-7 5 2.5z" transform="translate(7.65 7.25)"/><path id="aE" fill="#5a4d30" d="M1-1.4q.8 2.7.5 5.3Q0 .2-1.5-.2l.9-1.1.5-2.5 1 2z" transform="translate(1.55 3.85)"/><path id="aF" fill="#717d4d" d="m.7-5.5-.1-.2.6.4Q4.4-2.8 5.4.1v.4q.9 2.7.6 5.3Q3-1.4.3 4q-1.5-2.2-3.8-2.6h-2.6V.2q.6-2.3 1.5-.3 3.4-1.4 2.8-5l.7-.7q-.2.5 0 .8t.9.3l.9-.2z" transform="translate(6.15 5.85)"/><path id="aG" fill="#734731" d="M7.1-6.6Q5.9-3.3 3.3-.2v-.1l-.3-4L4.3-6 3-6.1v-.1L1.2-9.6h.1q4-.2 5.9 2.1v.1zM.6-2.3-1.7-.5l-1-1-.9-.3L-.3-4l.8.5zM-4 3.3l1.9-.5v6.8l-5.2-1.2L-5.8 3z" transform="translate(7.35 9.55)"/><path id="aH" fill="#b0bf7a" d="M7.6-8.5Q6.4-5.2 3.8-2.1l-.3-4-5.1 4v12.5q-3.4 2.4-6.2-.6l3.7-12.9 7.5-5-1.6-3.3q4.1-.3 6 2.2z" transform="translate(7.8 11.45)"/><path id="aI" fill="#c90" d="M2.6-2 4 .5 1.8 2 .1.9h-3.8L-4-.6.3-.7z" transform="translate(4 2)"/><path id="aJ" fill="#f8bf01" d="M4.3-5.5Q.2 2.3-.3 4.3T-2.1 7L-4 6.8q-.4-.6-.4-2.2 4.1-5.5 7-11 2-1.6 1.5.9" transform="translate(4.3 7)"/><path id="aL" fill="#9e6f05" d="M4.3-5.5Q.2 2.3-.3 4.3T-2.1 7L-4 6.8q-.4-.6-.4-2.2 4.1-5.5 7-11 2-1.6 1.5.9" transform="translate(4.3 7)"/><path id="c" fill="#316958" fill-opacity=".3" d="M3.8-1.5v1Q3.6 1 2.4 2t-2.8.7T-3 1.5t-.7-2.9l.4-1.3q0 1 .7 1.8Q-1.6.3 0 .4t2.8-.7z" transform="translate(3.8 2.8)"/><path id="l" fill="none" stroke="#000" stroke-linecap="round" stroke-linejoin="round" stroke-opacity=".4" stroke-width="__RESOLUTION__" d="M-4.1-2.4 0 1.4l.9 3q1-1.9 2.5-2m.5-2q-4-2.1-6.5-4.7" transform="translate(4.2 4.4)" vector-effect="non-scaling-stroke"/><path id="v" fill="#000" fill-opacity=".3" d="M-6.3 4 3 1.7l4.5-4.2q-1 4.8-4.3 9.7Q-2 7-6 4.5z" transform="translate(6.35 2.55)"/><path id="t" fill="none" stroke="#000" stroke-linecap="round" stroke-linejoin="round" stroke-opacity=".4" stroke-width="__RESOLUTION__" d="m7.7-4.7-.2 2.2q-1 4.8-4.3 9.7Q-2 7-6 4.5l-1.6-2.4.9-2.3 9.4-7" transform="translate(7.75 7.35)" vector-effect="non-scaling-stroke"/><path id="G" fill="none" stroke="#6b4b01" stroke-linecap="round" stroke-linejoin="round" stroke-width="__RESOLUTION__" d="M-4 6.8q-.3-.7-.3-2.3" transform="translate(4.4 -4.4)" vector-effect="non-scaling-stroke"/><path id="M" fill="none" stroke="#664005" stroke-linecap="round" stroke-linejoin="round" stroke-width="__RESOLUTION__" d="M-4 6.8q-.3-.7-.3-2.3" transform="translate(4.4 -4.4)" vector-effect="non-scaling-stroke"/><path id="ak" fill="none" stroke="#000" stroke-linecap="round" stroke-linejoin="round" stroke-opacity=".4" stroke-width="__RESOLUTION__" d="m.1-.5 5.3-.3M6.7-2 8.1.5 5.9 2 4.2.9H.4m5.4 0H4.2" transform="translate(0 2.1)" vector-effect="non-scaling-stroke"/><clipPath id="bn"><path d="M1 1h99v99H1z"/></clipPath><clipPath id="bq"><path d="M101 1h99v99h-99z"/></clipPath><clipPath id="bs"><path d="M201 1h99v99h-99z"/></clipPath><clipPath id="bu"><path d="M301 1h99v99h-99z"/></clipPath><clipPath id="bw"><path d="M401 1h99v99h-99z"/></clipPath></defs><g clip-path="url(#bn)"><g transform="translate(59.55 92.45)"><use xlink:href="#bo" width="49.3" height="48.6" transform="translate(-36.6 -41.65)"/><use xlink:href="#bp" width="99" height="68" transform="translate(-58.55 -91.45)"/></g></g><g clip-path="url(#bq)"><g transform="translate(159.55 92.45)"><use xlink:href="#bo" width="49.3" height="48.6" transform="translate(-36.6 -41.65)"/><use xlink:href="#br" width="99" height="68" transform="translate(-58.55 -91.45)"/></g></g><g clip-path="url(#bs)"><g transform="translate(259.55 92.45)"><use xlink:href="#bo" width="49.3" height="48.6" transform="translate(-36.6 -41.65)"/><use xlink:href="#bt" width="99" height="68" transform="translate(-58.55 -91.45)"/></g></g><g clip-path="url(#bu)"><g transform="translate(359.55 92.45)"><use xlink:href="#bo" width="49.3" height="48.6" transform="translate(-36.6 -41.65)"/><use xlink:href="#bv" width="99" height="68" transform="translate(-58.55 -91.45)"/></g></g><g clip-path="url(#bw)"><g transform="translate(459.55 92.45)"><use xlink:href="#bo" width="49.3" height="48.6" transform="translate(-36.6 -41.65)"/><use xlink:href="#bx" width="99" height="68" transform="translate(-58.55 -91.45)"/></g></g></svg>