<svg xmlns="http://www.w3.org/2000/svg" xmlns:xlink="http://www.w3.org/1999/xlink" width="18" height="21" viewBox="0 0 18 21"><defs><path id="s" fill="#fff" d="M7.2-8.2Q9.4-6 10.3-3l.2.9Q10.1-.6 9.1.6L7.7 2.1l-1 .6 2.1.4-3.1 5.1q-1.2.7-2.2.3L4 7q.5-1.7-.4-3.4l-6-.2q-.3 1.3-.3 2.8l.4 2H-4l-.8-.2H-5q-2.1-2.2-3.2-5l1.2-.3Q-9.5.9-10.5-1.9l.3-.9q.8-2.9 3.1-5.2 4.8-1.5 6.6 3l.3.2.7-.4q1.8-4.4 6.7-3.1" transform="translate(10.55 8.55)"/><path id="t" fill="#8dc7b5" d="m5.8-6.4.8.2 5.3-2.5 5.2-8.2.3 16.2-3 2.2q.2 1.3-.4 2.3-1 1.6-1.1 5.6l-.2 1.1 6-.1q-3.8 3.6-7.9 6l-7.9.3h-.5v.3l-8.9-.4q-4.2-2.3-7.9-6 3.3 1.1 6.5 0l-.2-.6-.5-1.8q-6.8-4.1-9-7.1-1-1.4-1.1-2.5l11.9-2.8 2.8.6L-1.7-5l1.4-.7-2.3-4.8 7.3 4z" transform="translate(18.7 16.95)"/><path id="u" fill="#8dc7b5" d="M-1.7-1.3q.5-1.4.4-2.7l1.2-.2Q-1-2.7-.4.2h.1q.4 1.3 2.2 2.4v1.2h-.1L0 4.2l-.5-.4-.2.2H-2l.4-.7.1-.7V2l-.2-1-.2-1v-1z" transform="translate(1.95 4.25)"/><path id="v" fill="#8dc7b5" d="m-2.4-.7 2.3-1.4 2.2.9.4 2.5-3 .8-2-.6z" transform="translate(2.55 2.15)"/><path id="w" fill="#8dc7b5" d="m1.9-6.8.4-1q.6-1 1.8-1.8l.9.5v.5L3-6zM.1-10.3l.7.6q.8 2-.7 3.1l-.2-.1q-1.5-2.1.2-3.6m-1.7 4.8Q-3.6-6-5-8.1l.5-.8.9.1L-1-6.3zm.5 15.8V6q0-6.8-.4-11 1.7-1.5 3.4-.5-.7 5-.4 10.1v5.7z" transform="translate(5.05 10.3)"/><path id="x" fill="#8dc7b5" d="m1.2-.6-1.1 2-1.3-.5.1-1.2L.5-1.4l.4.4z" transform="translate(1.25 1.4)"/><path id="f" fill="#000" fill-opacity=".3" d="m-1.3-4 1.2-.2Q-1-2.7-.5.2h.1l-1.3.8-.2-1v-1l.1-.4q.5-1.3.4-2.6m.6 8 .2-2.1 1.2.5 1.3.4v.5l-.2.5-1.8.4-.5-.4zm-.7 0 .4-2.1-.1 2.1z" transform="translate(1.8 4.25)"/><path id="n" fill="#242424" fill-opacity=".5" d="m-.6 2-2.1-.7.2-1.8 1.7.5 2.9-.8.2 1.9z" transform="translate(2.7 .8)"/><path id="p" fill="#000" fill-opacity=".5" d="M5.2-18.7 3-16.2l-1-.7.4-1Q3-19 4.2-19.7l.9.4zM1.6-5.6V0H-1v-4z" transform="translate(1.05 19.75)"/><path id="r" fill="#212121" fill-opacity=".5" d="m1.2-.6-1.1 2-1.3-.5V.3L.2.7Q.8 0 .9-1z" transform="translate(1.25 1)"/><g id="d"><path fill="#000" fill-opacity=".2" d="m19.1 11.7-2.5 4.1-2.2-.3q.5-1.7-.4-3.4l1.3.1 1.7-.9zm1.5-6.1q-1.9-2.4-5.1-2.7-2.7 0-4.5 2.2l-.5.7-.1.7q-.8-2-2.9-2.9-2.9-1.2-5.5.6L0 5.8q.8-3 3.1-5.3Q8-.8 9.8 3.7l.4.1.6-.3Q12.6-1 17.5.2q2.3 2.4 3.1 5.3m-15 10.9h-.3q-2.1-2.2-3.2-5l1.2-.2h.2l1.8 1.1h1q.5-.4 1.7-.5-.3 1.4-.3 2.9l-1.5.1z"/><path fill="#366d61" d="m19.2 3.7-.6.7-1 .1-.8-.6-.6-1.1q-.2-.5 0-1l.5-.9h1l.8.6.5 1.1zM9.1 5.3q-.3.5-.8.6l-1-.2q-.5-.4-.6-.9l-.2-1.1q-.1-.6.2-1 .2-.6.7-.7t1 .2.6.9l.3 1.2z"/></g><g id="b" fill="#000"><path fill-opacity=".3" d="m15.2 30.2 11.7-10.7 1.2-6.7-.4-.5 4.7-2.7L34.8 0l.2 13.2-3 2.2q.2 1.3-.4 2.3-1 1.6-1.2 5.5l-.1 1.3q-.6 2.8-3.3 4l-3.8 1.4-2.7.7H20l-2.5.1zm.2-26.6 4.6 6.6-2.7-.1-1.4-1.2 1.3-.8L15 3.4zm-14 9.8.1-.2 7.3.3.5 2 5.2-1.9.2 4.5-1.9 4.7-2 .4-1.8-1Q2.2 18 0 15z"/><path fill-opacity=".2" d="m15.2 30.2 2.3.5-6.5-.1q-4.2-2.4-7.9-6 3.4 1 6.5-.1l1.7 2.8.3.4 1.7 1.5 1.3.7zm5.3.4 2.6-.7 3.8-1.4q2.8-1.2 3.4-4l5.9-.2q-3.7 3.7-7.8 6z"/></g><g id="D" transform="translate(26.7 17.45)"><use xlink:href="#a" width="37.4" height="33.9" transform="translate(-26.7 -17.45)"/><use xlink:href="#b" width="36.2" height="30.8" transform="translate(-25.55 -14.3)"/><use xlink:href="#c" width="21.1" height="17.2" transform="translate(-16.95 3.1)"/><use xlink:href="#d" width="20.6" height="16.5" transform="translate(-16.9 2.95)"/></g><g id="C" transform="translate(1.95 4.25)"><use xlink:href="#e" width="3.9" height="8.4" transform="translate(-1.95 -4.25)"/><use xlink:href="#f" width="3.8" height="8.4" transform="translate(-1.8 -4.25)"/></g><g id="B" transform="translate(2.7 2.1)"><use xlink:href="#m" width="5" height="4.3" transform="translate(-2.7 -2.1)"/><use xlink:href="#n" width="5" height="2.8" transform="translate(-2.7 -.8)"/></g><g id="A" transform="translate(5 20.6)"><use xlink:href="#o" width="10.1" height="20.6" transform="translate(-5 -20.6)"/><use xlink:href="#p" width="6.2" height="19.9" transform="translate(-1.05 -19.75)"/></g><g id="z" transform="translate(1.25 1.4)"><use xlink:href="#q" width="2.5" height="2.8" transform="translate(-1.25 -1.4)"/><use xlink:href="#r" width="2.5" height="2.4" transform="translate(-1.25 -1)"/></g><use xlink:href="#s" id="c" width="21.1" height="17.2"/><use xlink:href="#t" id="a" width="37.4" height="33.9"/><use xlink:href="#u" id="e" width="3.9" height="8.4"/><use xlink:href="#v" id="m" width="5" height="4.3"/><use xlink:href="#w" id="o" width="10.1" height="20.6"/><use xlink:href="#x" id="q" width="2.5" height="2.8"/><clipPath id="y"><path d="M1 1h16v19H1z"/></clipPath></defs><g clip-path="url(#y)"><g transform="translate(10.9 18.55)"><use xlink:href="#z" width="2.5" height="2.8" transform="rotate(-60.662 -2.266 2.402)scale(.9974)"/><use xlink:href="#A" width="10.2" height="20.8" transform="matrix(.0773 .3037 -.1469 .0428 3.55 -3.25)"/><use xlink:href="#z" width="2.5" height="2.8" transform="translate(.2 -2.55)"/><use xlink:href="#B" width="5" height="4.3" transform="translate(.5 -.45)scale(.3155)"/><use xlink:href="#B" width="5" height="4.3" transform="translate(-1.85 -.1)scale(.3155)"/><use xlink:href="#C" width="3.9" height="8.4" transform="matrix(.7048 .1345 -.1874 .9817 -.05 -8.25)"/><use xlink:href="#B" width="5" height="4.3" transform="translate(-.4 -.1)scale(.3155)"/><use xlink:href="#D" width="37.4" height="37.8" transform="rotate(-23.65 -35.518 17.243)scale(.3148)"/></g></g></svg>