<svg xmlns="http://www.w3.org/2000/svg" xmlns:xlink="http://www.w3.org/1999/xlink" width="3075" height="45" viewBox="0 0 3075 45"><defs><clipPath id="h"><path d="M1 1h57v43H1z"/></clipPath><clipPath id="p"><path d="M59 1h57v43H59z"/></clipPath><clipPath id="q"><path d="M117 1h57v43h-57z"/></clipPath><clipPath id="r"><path d="M175 1h57v43h-57z"/></clipPath><clipPath id="s"><path d="M233 1h57v43h-57z"/></clipPath><clipPath id="t"><path d="M291 1h57v43h-57z"/></clipPath><clipPath id="u"><path d="M349 1h57v43h-57z"/></clipPath><clipPath id="w"><path d="M407 1h57v43h-57z"/></clipPath><clipPath id="x"><path d="M465 1h57v43h-57z"/></clipPath><clipPath id="y"><path d="M523 1h57v43h-57z"/></clipPath><clipPath id="A"><path d="M581 1h57v43h-57z"/></clipPath><clipPath id="B"><path d="M639 1h57v43h-57z"/></clipPath><clipPath id="C"><path d="M697 1h57v43h-57z"/></clipPath><clipPath id="E"><path d="M755 1h57v43h-57z"/></clipPath><clipPath id="G"><path d="M813 1h57v43h-57z"/></clipPath><clipPath id="I"><path d="M871 1h57v43h-57z"/></clipPath><clipPath id="K"><path d="M929 1h57v43h-57z"/></clipPath><clipPath id="M"><path d="M987 1h57v43h-57z"/></clipPath><clipPath id="O"><path d="M1045 1h57v43h-57z"/></clipPath><clipPath id="Q"><path d="M1103 1h57v43h-57z"/></clipPath><clipPath id="S"><path d="M1161 1h57v43h-57z"/></clipPath><clipPath id="U"><path d="M1219 1h57v43h-57z"/></clipPath><clipPath id="W"><path d="M1277 1h57v43h-57z"/></clipPath><clipPath id="Y"><path d="M1335 1h57v43h-57z"/></clipPath><clipPath id="aa"><path d="M1393 1h57v43h-57z"/></clipPath><clipPath id="ac"><path d="M1451 1h57v43h-57z"/></clipPath><clipPath id="ae"><path d="M1509 1h57v43h-57z"/></clipPath><clipPath id="af"><path d="M1567 1h57v43h-57z"/></clipPath><clipPath id="ag"><path d="M1625 1h57v43h-57z"/></clipPath><clipPath id="ai"><path d="M1683 1h57v43h-57z"/></clipPath><clipPath id="aj"><path d="M1741 1h57v43h-57z"/></clipPath><clipPath id="ak"><path d="M1799 1h57v43h-57z"/></clipPath><clipPath id="al"><path d="M1857 1h57v43h-57z"/></clipPath><clipPath id="am"><path d="M1915 1h57v43h-57z"/></clipPath><clipPath id="an"><path d="M1973 1h57v43h-57z"/></clipPath><clipPath id="ao"><path d="M2031 1h57v43h-57z"/></clipPath><clipPath id="ap"><path d="M2089 1h57v43h-57z"/></clipPath><clipPath id="aq"><path d="M2147 1h57v43h-57z"/></clipPath><clipPath id="ar"><path d="M2205 1h57v43h-57z"/></clipPath><clipPath id="as"><path d="M2263 1h57v43h-57z"/></clipPath><clipPath id="at"><path d="M2321 1h57v43h-57z"/></clipPath><clipPath id="au"><path d="M2379 1h57v43h-57z"/></clipPath><clipPath id="av"><path d="M2437 1h57v43h-57z"/></clipPath><clipPath id="aw"><path d="M2495 1h57v43h-57z"/></clipPath><clipPath id="ax"><path d="M2553 1h57v43h-57z"/></clipPath><clipPath id="az"><path d="M2611 1h57v43h-57z"/></clipPath><clipPath id="aA"><path d="M2669 1h57v43h-57z"/></clipPath><clipPath id="aB"><path d="M2727 1h57v43h-57z"/></clipPath><clipPath id="aC"><path d="M2785 1h57v43h-57z"/></clipPath><clipPath id="aD"><path d="M2843 1h57v43h-57z"/></clipPath><clipPath id="aE"><path d="M2901 1h57v43h-57z"/></clipPath><clipPath id="aF"><path d="M2959 1h57v43h-57z"/></clipPath><clipPath id="aG"><path d="M3017 1h57v43h-57z"/></clipPath><path id="g" fill="#382c16" d="M5.8-1.9Q7.9-1.4 8-.5 8 .3 5.9 1 3.8 1.8.7 2l-5.2-.4Q-6.7 1.2-6.7.3q-.1-.8 2-1.6 2.2-.8 5.2-.9z" transform="translate(6.75 2.25)"/><path id="ab" fill="#7534b0" fill-opacity=".5" d="M2-22.5q0-1 .8-1.8.7-.8 1.8-.7 1-.1 1.8.7.7.8.7 1.8t-.7 1.9q-.8.7-1.8.7-1.1 0-1.8-.7-.8-.8-.8-1.9" transform="translate(-2 25.05)"/><path id="Z" fill="#8348b9" fill-opacity=".5" d="M1.5-22q0 2.4 1.6 4t4 1.7q2.3 0 4-1.6 1.6-1.8 1.7-4-.1-2.4-1.8-4t-3.9-1.7q-2.3 0-4 1.7-1.6 1.6-1.6 4" transform="translate(-1.5 27.55)"/><path id="X" fill="#925dc2" fill-opacity=".6" d="M1-21.4q0 3.6 2.5 6.1 2.6 2.6 6.2 2.6 3.5 0 6-2.6 2.6-2.5 2.7-6.1-.1-3.5-2.6-6.1T9.7-30t-6.2 2.5Q1-24.9 1-21.4" transform="translate(-1 30.05)"/><path id="V" fill="#a071cb" fill-opacity=".6" d="M.5-20.8q0 4.7 3.4 8.2 3.5 3.4 8.3 3.4t8.3-3.4 3.5-8.3q-.1-4.8-3.5-8.2t-8.3-3.4-8.3 3.4-3.4 8.3" transform="translate(-.5 32.55)"/><path id="T" fill="#af86d5" fill-opacity=".6" d="M0-20.3q0 6 4.3 10.4 4.4 4.4 10.5 4.4T25.2-10q4.3-4.3 4.4-10.3-.1-6.1-4.4-10.4t-10.4-4.4-10.5 4.4T0-20.3" transform="translate(0 35.05)"/><path id="R" fill="#be9bde" fill-opacity=".7" d="M-.4-19.7q0 7.2 5.1 12.5Q10-2 17.3-2t12.6-5.3 5.3-12.5q-.1-7.4-5.4-12.6-5.2-5.3-12.5-5.3-7.4 0-12.6 5.2T-.5-19.7" transform="translate(.45 37.55)"/><path id="P" fill="#cdb0e8" fill-opacity=".7" d="M-1-19.2q0 8.5 6.1 14.6 6.2 6.2 14.8 6.2t14.7-6.2q6.1-6 6.2-14.6-.1-8.6-6.2-14.8-6.2-6.1-14.7-6.1T5.1-34q-6 6.2-6 14.8" transform="translate(.95 40.1)"/><path id="N" fill="#c7a5e4" fill-opacity=".7" d="M-.8-19.6q0 7.9 5.5 13.5Q10.4-.6 18.3-.6t13.5-5.7q5.5-5.5 5.6-13.4t-5.6-13.5-13.5-5.7q-8 0-13.6 5.6-5.5 5.7-5.5 13.6" transform="translate(.85 38.75)"/><path id="L" fill="#c29ae1" fill-opacity=".7" d="M-.8-20q0 7.2 5 12.3 5.3 5.2 12.5 5.2 7.1 0 12.2-5.2Q34-12.8 34.1-20q-.1-7.2-5.2-12.3t-12.2-5.2-12.4 5.1Q-.8-27.1-.8-20" transform="translate(.8 37.45)"/><path id="J" fill="#bd90de" fill-opacity=".7" d="M-.7-20.3q0 6.4 4.6 11Q8.5-4.6 15-4.6t11.1-4.7 4.7-11Q30.7-27 26-31.5t-11-4.6-11.1 4.6-4.6 11.1" transform="translate(.7 36.15)"/><path id="H" fill="#b885da" fill-opacity=".7" d="M-.6-20.7q0 5.7 4 9.8 4.2 4.1 10 4.2 5.8-.1 9.9-4.2t4.1-9.8q0-5.9-4.1-10t-9.9-4.1-10 4.1q-4 4.2-4 10" transform="translate(.65 34.8)"/><path id="F" fill="#b37ad7" fill-opacity=".8" d="M-.5-21.1q0 5 3.5 8.6 3.7 3.7 8.8 3.7 5 0 8.6-3.7 3.6-3.6 3.7-8.6-.1-5.1-3.7-8.8-3.6-3.6-8.6-3.6-5.2 0-8.8 3.6-3.6 3.7-3.6 8.8" transform="translate(.55 33.5)"/><path id="D" fill="#ae70d4" fill-opacity=".8" d="M-.5-21.5q0 4.3 3.1 7.4Q5.8-11 10.2-11t7.4-3.1 3.2-7.4q-.1-4.5-3.2-7.6t-7.4-3.1-7.6 3.1-3.1 7.6" transform="translate(.5 32.2)"/><path id="z" fill="#e1d0f0" fill-opacity=".8" d="M8-26.1q-2.2-2.5-5.2-3t-5 1.5l-.9.9q.3-2.4 2-3.9 2-1.9 5-1.4t5.3 2.9q2.2 2.5 2.3 5.6 0 2.3-1.2 4v-1.1q-.1-3-2.2-5.5" transform="translate(3.1 32.1)"/><path id="v" fill="#d3b9ea" fill-opacity=".6" d="M12.7-27.1q2 2.2 2.1 5.3 0 3-2.1 5.1-2.2 2.1-5.2 2.1-2.4 0-4.2-1.4l1.1.1q3 0 5.2-2 2-2.2 2.1-5.3 0-3-2.1-5.2l-1-.9q2.3.4 4 2.2" transform="translate(-3.3 29.3)"/><g id="a"><path fill="#546a85" d="M5.8.2Q7.3 2 7.1 3.1 5 4.7 5.3 7.5v1q0 2.2-1 2.9l-.7-.5Q1.2 7.7 1.2 5.8q.5 1.3 2.5 1.4Q2.1 6 1.9 4.7 1.6 3.4 5.8.2"/><path fill="#c9d6e0" d="M7 3Q7.4 2 5.9.3q1.3.6 2.3 2.2z"/><path fill="#7a93a9" d="M5.8.2Q1.6 3.4 1.9 4.7q.3 1.4 1.8 2.5-2-.1-2.5-1.4 0 2 2.4 5L1.4 8.3Q.4 6.5.2 6.6q-.3-.3-.2-1l.5-1.2 1-1 1.8-2.2Q4.2 0 5 0z"/><path fill="none" stroke="#2c2d47" stroke-linecap="round" stroke-linejoin="round" stroke-width="__RESOLUTION__" d="m3.6 10.9.8.5q.8-.7 1-3l-.1-1Q5.1 4.7 7.1 3l1-.7Q7.1.8 5.8.2L5 0q-.8.1-1.7 1.2L1.5 3.4l-1 1L0 5.6q-.1.7.2 1 .2-.1 1.2 1.6z" vector-effect="non-scaling-stroke"/></g><g id="b"><path fill="#d8aa0e" d="M6.6 1.6Q5.2 1.8 4.4 3q-1 1.6 0 3l-1-.8-.4-.7q-.6-1.1-.2-2.2T4.3.7h2.2l.3.2q.6.2 1 .7z"/><path fill="#f3cc47" d="M4.5 6q-1.1-1.4-.1-3 .8-1.2 2.2-1.4 1.5 1.9.7 4.3l-.2.1H4.7z"/><path fill="#fae6ba" d="M6.6 1.6h1.2l.5.7q.5 1 .2 2.2-.3.9-1.2 1.4.8-2.4-.7-4.3"/><path fill="none" stroke="#eead15" stroke-linecap="round" stroke-linejoin="round" stroke-width="__RESOLUTION__" d="M7.8 1.6q-.4-.5-1-.7L6.5.7H4.3Q3 1.2 2.8 2.3T3 4.5l.5.7 1 .8H7l.3-.1q.9-.5 1.2-1.4.3-1.1-.2-2.2z" vector-effect="non-scaling-stroke"/><path fill="#b35042" d="M5.7.8 4.8.7q-1.4.8-1.2 1.5l.7.7q-1.2 0-1.5.5v.5l.2.8.3.2 1.1 1q-.3.2-1.7-.4l-.4-.8-.5-1v-.1l-.3-.4-.4-.9q0-.4-.3-.7-.4-.4-.8-.3L.4 1l.7-.1q.4 0 .8.3l.6.1q.5 0 .9-.4l.2-.4.3-.3L5.2 0q1.1.3 1.4.8z"/><path fill="#000" d="m7.2 4.9-.6-.3-.1-.5.4-.5q.2-.3.6-.3.2 0 .4.3l.1.5-.3.6z"/></g><g id="c"><path fill="#151e26" d="M2.9 0q1.7 1 1.2 6.3l-.5 2Q1.3 5.9.1 6.1v-1Q-.4 1.8 2.8 0"/><path fill="none" stroke="#2c2d47" stroke-linecap="round" stroke-linejoin="round" stroke-width="__RESOLUTION__" d="m3.6 8.4.5-2.1Q4.6 1.1 2.9 0" vector-effect="non-scaling-stroke"/></g><g id="d"><path fill="#24415b" d="m3 26.6.2-1.8 14.9-2V26q-5.1 5.3-15 .6"/><path fill="none" stroke="#324458" stroke-linecap="round" stroke-linejoin="round" stroke-width="__RESOLUTION__" d="M18 26q-5 5.3-15 .6" vector-effect="non-scaling-stroke"/><path fill="#546a85" d="m14 10.6-.9.3-.4.2-.3 1.2h-.1L6.2 9.4 7 9l.8-1.6 3.3.3q2.2.4 2.5 1 2.4 6 4.3 12.8l-.3.6-.8-.9zm-9.7 0 7.7 3.9 1.7 7.5-.9 2.8-2.7.6-.6-.1-2-7.8L7 17q-1.2-2.6-3.6-4.5l-1-.5z"/><path fill="#ae70d4" d="m13.2 10.9.8-.3L16.8 21l.8.9.4-.6.5 2.3-.8.9-1.3-.9zm-7-1.5 6.1 2.8.4-1.1 3.1 12-1.1 3.5-4 .8-.6-2 2.7-.6.9-2.8-1.7-7.5-7.7-3.9-.6-.3 2.2-1zm-2.8 3.1q2.4 2 3.6 4.5l-.9.7-3.7-4.2zm12.5 10.7h-.1V23z"/><path fill="#bcc8d3" d="M18 21.4q-2-6.8-4.3-12.8 3.8 6.9 4.8 12.2z"/><path fill="#c9d6e0" d="m7.8 7.4-.7 1.5-.9.6-.3-.2-2-1zm-3.5 3.2L2.4 12l-1.3-1-.4-.3L2 9.6l1.7.7z"/><path fill="#59406f" d="m12.7 11 .5-.1 3.1 12.8-.5-.5v-.1zM9.5 25.4l.6.1.6 2q-4.7 0-8.2-2.7l-.1-2.1 3.1 1.6q2.5 1 4 1.1"/><path fill="#c2b0d2" d="m18.5 23.7-.6-2.3.6-.6.5 1.7zM2.3 12l1 .6-1 .8L0 12.2l.7-1.1.2-.1zM2 9.6l.8-.7.9-.7.1.2-1 .5 1-.6 2 1-2.2 1z"/><path fill="#364654" d="m7 17 .5.5 2 7.8q-1.6 0-4-1.1l-3.1-1.6.7-6.8q.7 1.6 3 1.7z"/><path fill="#324458" d="m.7 10.7.4.3H.7z"/><path fill="#1f2930" d="m.2 12.2 2.2 1.2L6 17.5q-2.3-.1-3-1.7-2-3-3-3.6"/><path fill="none" stroke="#59406f" stroke-linecap="round" stroke-linejoin="round" stroke-width="__RESOLUTION__" d="M14 10.6 16.8 21l.8.9.4-.6.5-.6.5 1.7-.5 1.2-.8.9-1.3-.9M10 25.4l2.7-.6.9-2.9-1.7-7.5-7.7-3.8-.6-.3m5.8 15 .6.1m.6 2 4-.8 1.1-3.5v.1M.8 11.1l.3-.1m-.3 0-.6 1.2 2.2 1.2L6 17.5l1-.5m3.7 10.5q-4.7 0-8.2-2.7l-.1-2.1 3.1 1.6q2.5 1 4 1.1" vector-effect="non-scaling-stroke"/><path fill="none" stroke="#3e7e97" stroke-linecap="round" stroke-linejoin="round" stroke-width="__RESOLUTION__" d="m12.7 11 .5-.1m2.6 12.3.5.5M2 9.6l.8-.7.9-.7m0 2.1L2 9.6" vector-effect="non-scaling-stroke"/><path fill="none" stroke="#3e5060" stroke-linecap="round" stroke-linejoin="round" stroke-width="__RESOLUTION__" d="M18.5 20.8q-1-5.3-4.9-12.2M2.4 12l1 .6Q5.8 14.4 7 17l.5.5M3.9 8.4l3.9-1M2 9.6.7 10.7l.4.3 1.3 1m.4-3 1-.7M2.5 22.7l.8-6.7" vector-effect="non-scaling-stroke"/><path fill="#0f1d26" d="M0 2.9Q2.3.6 7.8 0q3 .1 5.8 2.4v4.3q1.6 4.4.1 7-2.7-.7-5.2-2.6L6.3 9.5 3.8 4.9z"/><path fill="#2c516b" d="M6.3 9.5Q4.6 8.3 3.9 8.1L0 2.9l3.8 2z"/><path fill="none" stroke="#ae70d4" stroke-linecap="round" stroke-linejoin="round" stroke-width="__RESOLUTION__" d="M0 2.9Q2.3.6 7.8 0q3 .1 5.8 2.4v4.3q1.6 4.4.1 7-2.7-.7-5.2-2.6L6.3 9.5 3.8 4.9z" vector-effect="non-scaling-stroke"/><path fill="none" stroke="#2c2d47" stroke-linecap="round" stroke-linejoin="round" stroke-width="__RESOLUTION__" d="M6.3 9.5Q4.6 8.3 3.9 8.1" vector-effect="non-scaling-stroke"/><path fill="none" stroke="#293849" stroke-linecap="round" stroke-linejoin="round" stroke-width="__RESOLUTION__" d="M3.9 8.1 0 2.9" vector-effect="non-scaling-stroke"/><path fill="#f3cc47" d="m10.2 14.3-1.3-.5-.4-1.2 1.4.5zm4.2-4.1.8 1-.6 1-.9-1zm.4-.4-1-.6.2-1.1 1.1.6zm.9 3.7-.7.9-.8-.9.6-1zM12.1 16l-.9-1.1 1.2-.2.9 1zm3-1.4-.4 1.2-1.2-.1.5-1.2zM4 9.2 3 10l-1.3-.5 1-.7zm1 1.5L4 9.5h1.3l.8 1zm2.6.1.7 1.2H7l-.7-1.1z"/></g><g id="e"><path fill="#583421" d="M.9 5.5Q.2 5.3 0 5-.1 2.7.9.2l.9-.1Q.4 2.9.8 5.5"/><path fill="#976037" d="M.9 5.5Q.4 2.9 1.8 0q1-.2 2.2.6.3 1.6-.4 3.2Q2 5.8.8 5.5"/><path fill="none" stroke="#533120" stroke-linecap="round" stroke-linejoin="round" stroke-width="__RESOLUTION__" d="M1.8 0 .8.3Q-.2 2.7 0 5q.2.3.9.5 1.3.3 2.7-1.6.7-1.6.4-3.2Q2.8-.1 1.8.1" vector-effect="non-scaling-stroke"/></g><g id="f"><path fill="#2c516b" d="m9.5 1.6.8 1.3q.7 9.4-.3 13.8-1.4 1-3.2.2l-.1-.2-.1-.1-1.1-1.7v-.5l1.7.1-1.1-3.3 1.1-6.8h2.2zM.8 7.9l1.5.5.2 1.8.8.9 1.2-.9-.8 1.9-1.6-.8L2 9.6zM3 6.1l-.2-.9L4.4 7h.5q.7-1.3.8-2.1l-.2 3-.8.2z"/><path fill="#c2b0d2" d="m10 16.7-.7 2-.7.2h-.3l-.4-1-1-.2-.6-.9h.5q1.8.9 3.2-.2"/><path fill="#966dad" d="M8.3 19Q6.4 19 5 17.6l-2-2.5-1.3-2.5q2.3 2.9 4.6 4.3l.7.9h.9z"/><path fill="#1c3245" d="M1.8 12.6q-1-4-1.8-5l.8.3L2 9.5v1.7l1.7.8.7-1.9.1-.1.1-.3L3 7.4V6.3l1.7 1.9.8-.2.2-3 .5-2.3.7-2.3Q8-.7 9.5 1.5v2.8H7.2l-1.1 6.9 1.1 3.3-1.7-.2v.6l1.1 1.6.1.1v.2h-.4Q4 15.5 1.8 12.6"/><path fill="none" stroke="#293849" stroke-linecap="round" stroke-linejoin="round" stroke-width="__RESOLUTION__" d="M10.4 2.9q.6 9.4-.4 13.8l-.7 2-.7.2m-.3 0q-1.9.2-3.3-1.3-1.5-1.5-2-2.5m1.4-4.9.1-.1.1-.3M4.9 7l.8-2.1m.5-2.3L6.8.3" vector-effect="non-scaling-stroke"/></g><g id="ay"><path fill="#7534b0" fill-opacity=".5" d="M7.3 7.1q-3-.3-5.1-1.6Q0 4.3 0 2.9T2.2.6 7.3 0q3 .2 5.2 1.5 2 1.2 2 2.7 0 1.4-2 2.2-2.2.8-5.2.6"/><path fill="#dccbef" d="m9.9 5-3.2-.7q-1.4-.4-1.4-.8 0-.3 1.4-.5l3.3.1 3.3.7q1.3.4 1.2.8 0 .4-1.3.5z"/></g><g id="ah"><path fill="#7534b0" fill-opacity=".5" d="M0 2.4Q0 .9 3 .3q2.8-.6 7 .1 4.1.5 7 2.1 3 1.5 3 2.9t-3 2-7 0q-4.1-.7-7-2.2T0 2.4"/><path fill="#dccbef" d="m2.8 2.7 2.7-.1 6.2.7 6.2 1 2.4.8-2.6.2-6.2-.7-6.2-1.1Q2.8 3 2.8 2.7"/></g><g id="ad"><path fill="#7534b0" fill-opacity=".5" d="M0 .8Q0 0 3.4 0l8.1.9q4.8.8 8.2 2 3.2 1 3.2 1.8 0 .7-3.2.7l-8.2-.9q-4.8-.8-8.1-2Q0 1.5 0 .8"/><path fill="#dccbef" d="M2.3 1.3Q2.3.4 4.9 0l6.3.3q3.6.5 6.1 1.6t2.5 1.9T17 5l-6-.3q-3.7-.6-6.2-1.6T2.2 1.3"/></g><use xlink:href="#a" id="o" width="8.1" height="11.4"/><use xlink:href="#b" id="n" width="8.6" height="6.3"/><use xlink:href="#c" id="m" width="4.2" height="8.3"/><use xlink:href="#d" id="l" width="19" height="28.8"/><use xlink:href="#e" id="k" width="4" height="5.5"/><use xlink:href="#f" id="j" width="10.6" height="18.9"/><use xlink:href="#g" id="i" width="14.7" height="4.3"/></defs><g clip-path="url(#h)"><g transform="translate(15.7 41.1)"><use xlink:href="#i" width="14.7" height="4.3" transform="matrix(.8 0 0 .8 -5.4 -1.8)"/><use xlink:href="#j" width="10.6" height="18.9" transform="matrix(1 0 .1146 .9685 -4.3 -18.9)"/><use xlink:href="#k" width="4" height="5.5" transform="rotate(-96.566 .022 .025)scale(.9997)"/><use xlink:href="#k" width="4" height="5.5" transform="rotate(-90.476 -1.629 2.508)scale(.9984)"/><use xlink:href="#l" width="19" height="28.8" transform="translate(-9.45 -30.15)"/><use xlink:href="#j" width="10.6" height="18.9" transform="translate(-14.7 -16.45)"/><use xlink:href="#m" width="4.2" height="8.3" transform="translate(.45 -27.9)"/><use xlink:href="#n" width="8.6" height="6.3" transform="translate(-2.55 -26.9)"/><use xlink:href="#o" width="8.1" height="11.4" transform="translate(-4.8 -30.2)"/></g></g><g clip-path="url(#p)"><g transform="translate(73.7 41.1)"><use xlink:href="#i" width="14.7" height="4.3" transform="matrix(.8 0 0 .8 -5.4 -1.8)"/><use xlink:href="#j" width="10.6" height="18.9" transform="matrix(1 0 .1146 .9685 -4.3 -18.9)"/><use xlink:href="#k" width="4" height="5.5" transform="rotate(-96.566 .022 .025)scale(.9997)"/><use xlink:href="#k" width="4" height="5.5" transform="rotate(-90.476 -1.629 2.508)scale(.9984)"/><use xlink:href="#l" width="19" height="28.8" transform="translate(-9.45 -30.15)"/><use xlink:href="#j" width="10.6" height="18.9" transform="translate(-14.7 -16.45)"/><use xlink:href="#m" width="4.2" height="8.3" transform="matrix(1 0 .0096 1.0006 .35 -27.9)"/><use xlink:href="#n" width="8.6" height="6.3" transform="matrix(1 0 .0096 1.0006 -2.8 -26.95)"/><use xlink:href="#o" width="8.1" height="11.4" transform="matrix(1 0 .0096 1.0006 -4.9 -30.2)"/></g></g><g clip-path="url(#q)"><g transform="translate(131.7 41.1)"><use xlink:href="#i" width="14.7" height="4.3" transform="matrix(.8 0 0 .8 -5.4 -1.8)"/><use xlink:href="#j" width="10.6" height="18.9" transform="matrix(1 0 .1146 .9685 -4.3 -18.9)"/><use xlink:href="#k" width="4" height="5.5" transform="rotate(-96.566 .022 .025)scale(.9997)"/><use xlink:href="#k" width="4" height="5.5" transform="rotate(-90.476 -1.629 2.508)scale(.9984)"/><use xlink:href="#l" width="19" height="28.8" transform="translate(-9.45 -30.15)"/><use xlink:href="#j" width="10.6" height="18.9" transform="translate(-14.7 -16.45)"/><use xlink:href="#m" width="4.2" height="8.3" transform="matrix(1 0 .0225 1.001 .25 -27.85)"/><use xlink:href="#n" width="8.6" height="6.3" transform="matrix(1 0 .0225 1.001 -3 -26.95)"/><use xlink:href="#o" width="8.1" height="11.4" transform="matrix(1 0 .0225 1.001 -5.1 -30.15)"/></g></g><g clip-path="url(#r)"><g transform="translate(189.7 41.1)"><use xlink:href="#i" width="14.7" height="4.3" transform="matrix(.8 0 0 .8 -5.4 -1.8)"/><use xlink:href="#j" width="10.6" height="18.9" transform="matrix(1 0 .1146 .9685 -4.3 -18.9)"/><use xlink:href="#k" width="4" height="5.5" transform="rotate(-96.566 .022 .025)scale(.9997)"/><use xlink:href="#k" width="4" height="5.5" transform="rotate(-90.476 -1.629 2.508)scale(.9984)"/><use xlink:href="#l" width="19" height="28.8" transform="translate(-9.45 -30.15)"/><use xlink:href="#j" width="10.6" height="18.9" transform="translate(-14.7 -16.45)"/><use xlink:href="#m" width="4.2" height="8.3" transform="matrix(1 0 .0354 1.0013 .1 -27.9)"/><use xlink:href="#n" width="8.6" height="6.3" transform="matrix(1 0 .0354 1.0013 -3.25 -27.05)"/><use xlink:href="#o" width="8.1" height="11.4" transform="matrix(1 0 .0354 1.0013 -5.2 -30.2)"/></g></g><g clip-path="url(#s)"><g transform="translate(247.7 41.1)"><use xlink:href="#i" width="14.7" height="4.3" transform="matrix(.8 0 0 .8 -5.4 -1.8)"/><use xlink:href="#j" width="10.6" height="18.9" transform="matrix(1 0 .1146 .9685 -4.3 -18.9)"/><use xlink:href="#k" width="4" height="5.5" transform="rotate(-96.566 .022 .025)scale(.9997)"/><use xlink:href="#k" width="4" height="5.5" transform="rotate(-90.476 -1.629 2.508)scale(.9984)"/><use xlink:href="#l" width="19" height="28.8" transform="translate(-9.45 -30.15)"/><use xlink:href="#j" width="10.6" height="18.9" transform="translate(-14.7 -16.45)"/><use xlink:href="#m" width="4.2" height="8.3" transform="matrix(1 0 .0482 1.0013 0 -27.95)"/><use xlink:href="#n" width="8.6" height="6.3" transform="matrix(1 0 .0482 1.0013 -3.5 -27.15)"/><use xlink:href="#o" width="8.1" height="11.4" transform="matrix(1 0 .0482 1.0013 -5.35 -30.25)"/></g></g><g clip-path="url(#t)"><g transform="translate(305.7 41.1)"><use xlink:href="#i" width="14.7" height="4.3" transform="matrix(.8 0 0 .8 -5.4 -1.8)"/><use xlink:href="#j" width="10.6" height="18.9" transform="matrix(1 0 .1146 .9685 -4.3 -18.9)"/><use xlink:href="#k" width="4" height="5.5" transform="rotate(-96.566 .022 .025)scale(.9997)"/><use xlink:href="#k" width="4" height="5.5" transform="rotate(-90.476 -1.629 2.508)scale(.9984)"/><use xlink:href="#l" width="19" height="28.8" transform="translate(-9.45 -30.15)"/><use xlink:href="#j" width="10.6" height="18.9" transform="translate(-14.7 -16.45)"/><use xlink:href="#m" width="4.2" height="8.3" transform="matrix(1 0 .0579 1.0015 -.05 -27.9)"/><use xlink:href="#n" width="8.6" height="6.3" transform="matrix(1 0 .0579 1.0015 -3.8 -27.15)"/><use xlink:href="#o" width="8.1" height="11.4" transform="matrix(1 0 .0579 1.0015 -5.5 -30.2)"/></g></g><g clip-path="url(#u)"><g transform="translate(363.7 41.1)"><use xlink:href="#i" width="14.7" height="4.3" transform="matrix(.8 0 0 .8 -5.4 -1.8)"/><use xlink:href="#j" width="10.6" height="18.9" transform="matrix(1 0 .1146 .9685 -4.3 -18.9)"/><use xlink:href="#k" width="4" height="5.5" transform="rotate(-96.566 .022 .025)scale(.9997)"/><use xlink:href="#k" width="4" height="5.5" transform="rotate(-90.476 -1.629 2.508)scale(.9984)"/><use xlink:href="#l" width="19" height="28.8" transform="translate(-9.45 -30.15)"/><use xlink:href="#j" width="10.6" height="18.9" transform="translate(-14.7 -16.45)"/><use xlink:href="#m" width="4.2" height="8.3" transform="matrix(1 0 .0708 1.0012 -.2 -27.9)"/><use xlink:href="#n" width="8.6" height="6.3" transform="matrix(1 0 .0708 1.0012 -4 -27.2)"/><use xlink:href="#o" width="8.1" height="11.4" transform="matrix(1 0 .0708 1.0012 -5.65 -30.2)"/><use xlink:href="#v" width="11.5" height="14.7" transform="translate(3.3 -29.3)"/></g></g><g clip-path="url(#w)"><g transform="translate(421.7 41.1)"><use xlink:href="#i" width="14.7" height="4.3" transform="matrix(.8 0 0 .8 -5.4 -1.8)"/><use xlink:href="#j" width="10.6" height="18.9" transform="matrix(1 0 .1146 .9685 -4.3 -18.9)"/><use xlink:href="#k" width="4" height="5.5" transform="rotate(-96.566 .022 .025)scale(.9997)"/><use xlink:href="#k" width="4" height="5.5" transform="rotate(-90.476 -1.629 2.508)scale(.9984)"/><use xlink:href="#l" width="19" height="28.8" transform="translate(-9.45 -30.15)"/><use xlink:href="#j" width="10.6" height="18.9" transform="translate(-14.7 -16.45)"/><use xlink:href="#m" width="4.2" height="8.3" transform="matrix(1 0 .0837 1.0009 -.35 -27.9)"/><use xlink:href="#n" width="8.6" height="6.3" transform="matrix(1 0 .0837 1.0009 -4.25 -27.25)"/><use xlink:href="#o" width="8.1" height="11.4" transform="matrix(1 0 .0837 1.0009 -5.8 -30.2)"/><use xlink:href="#v" width="11.5" height="14.7" transform="translate(3.3 -29.3)"/></g></g><g clip-path="url(#x)"><g transform="translate(479.7 41.1)"><use xlink:href="#i" width="14.7" height="4.3" transform="matrix(.8 0 0 .8 -5.4 -1.8)"/><use xlink:href="#j" width="10.6" height="18.9" transform="matrix(1 0 .1146 .9685 -4.3 -18.9)"/><use xlink:href="#k" width="4" height="5.5" transform="rotate(-96.566 .022 .025)scale(.9997)"/><use xlink:href="#k" width="4" height="5.5" transform="rotate(-90.476 -1.629 2.508)scale(.9984)"/><use xlink:href="#l" width="19" height="28.8" transform="translate(-9.45 -30.15)"/><use xlink:href="#j" width="10.6" height="18.9" transform="translate(-14.7 -16.45)"/><use xlink:href="#m" width="4.2" height="8.3" transform="matrix(1 0 .0966 1.0003 -.45 -27.85)"/><use xlink:href="#n" width="8.6" height="6.3" transform="matrix(1 0 .0966 1.0003 -4.5 -27.25)"/><use xlink:href="#o" width="8.1" height="11.4" transform="matrix(1 0 .0966 1.0003 -5.95 -30.15)"/><use xlink:href="#v" width="11.5" height="14.7" transform="translate(3.3 -29.3)"/></g></g><g clip-path="url(#y)"><g transform="translate(537.7 41.1)"><use xlink:href="#i" width="14.7" height="4.3" transform="matrix(.8 0 0 .8 -5.4 -1.8)"/><use xlink:href="#j" width="10.6" height="18.9" transform="matrix(1 0 .1146 .9685 -4.3 -18.9)"/><use xlink:href="#k" width="4" height="5.5" transform="rotate(-96.566 .022 .025)scale(.9997)"/><use xlink:href="#k" width="4" height="5.5" transform="rotate(-90.476 -1.629 2.508)scale(.9984)"/><use xlink:href="#l" width="19" height="28.8" transform="translate(-9.45 -30.15)"/><use xlink:href="#j" width="10.6" height="18.9" transform="translate(-14.7 -16.45)"/><use xlink:href="#m" width="4.2" height="8.3" transform="matrix(1 0 .1096 1 -.55 -27.9)"/><use xlink:href="#n" width="8.6" height="6.3" transform="matrix(1 0 .1096 1 -4.75 -27.35)"/><use xlink:href="#o" width="8.1" height="11.4" transform="matrix(1 0 .1096 1 -6.1 -30.2)"/><use xlink:href="#z" width="14.6" height="12.6" transform="translate(-3.1 -32.1)"/></g></g><g clip-path="url(#A)"><g transform="translate(595.7 41.1)"><use xlink:href="#i" width="14.7" height="4.3" transform="matrix(.8 0 0 .8 -5.4 -1.8)"/><use xlink:href="#j" width="10.6" height="18.9" transform="matrix(1 0 .1146 .9685 -4.3 -18.9)"/><use xlink:href="#k" width="4" height="5.5" transform="rotate(-96.566 .022 .025)scale(.9997)"/><use xlink:href="#k" width="4" height="5.5" transform="rotate(-90.476 -1.629 2.508)scale(.9984)"/><use xlink:href="#l" width="19" height="28.8" transform="matrix(1 0 .0053 1.0003 -9.6 -30.15)"/><use xlink:href="#j" width="10.6" height="18.9" transform="translate(-14.7 -16.45)"/><use xlink:href="#m" width="4.2" height="8.3" transform="matrix(1 0 .1096 .9996 -.6 -27.9)"/><use xlink:href="#n" width="8.6" height="6.3" transform="matrix(.9796 0 .0885 1.0013 -4.75 -27.35)"/><use xlink:href="#o" width="8.1" height="11.4" transform="matrix(1 0 .1096 .9996 -6.1 -30.2)"/><use xlink:href="#z" width="14.6" height="12.6" transform="translate(-3.1 -32.1)"/></g></g><g clip-path="url(#B)"><g transform="translate(653.7 41.1)"><use xlink:href="#i" width="14.7" height="4.3" transform="matrix(.8 0 0 .8 -5.4 -1.8)"/><use xlink:href="#j" width="10.6" height="18.9" transform="matrix(1 0 .1146 .9685 -4.3 -18.9)"/><use xlink:href="#k" width="4" height="5.5" transform="rotate(-96.566 .022 .025)scale(.9997)"/><use xlink:href="#k" width="4" height="5.5" transform="rotate(-90.476 -1.629 2.508)scale(.9984)"/><use xlink:href="#l" width="19" height="28.8" transform="matrix(1 0 .0139 1.0004 -9.75 -30.15)"/><use xlink:href="#j" width="10.6" height="18.9" transform="translate(-14.7 -16.45)"/><use xlink:href="#m" width="4.2" height="8.3" transform="matrix(1 0 .1096 .9996 -.65 -27.9)"/><use xlink:href="#n" width="8.6" height="6.3" transform="matrix(.9591 0 .0706 1.0023 -4.75 -27.35)"/><use xlink:href="#o" width="8.1" height="11.4" transform="matrix(1 0 .1096 .9996 -6.15 -30.2)"/><use xlink:href="#z" width="14.6" height="12.6" transform="translate(-3.1 -32.1)"/></g></g><g clip-path="url(#C)"><g transform="translate(711.7 41.1)"><use xlink:href="#i" width="14.7" height="4.3" transform="matrix(.8 0 0 .8 -5.4 -1.8)"/><use xlink:href="#j" width="10.6" height="18.9" transform="matrix(1 0 .1146 .9685 -4.3 -18.9)"/><use xlink:href="#k" width="4" height="5.5" transform="rotate(-96.566 .022 .025)scale(.9997)"/><use xlink:href="#k" width="4" height="5.5" transform="rotate(-90.476 -1.629 2.508)scale(.9984)"/><use xlink:href="#l" width="19" height="28.8" transform="matrix(1 0 .0224 1.0005 -9.9 -30.15)"/><use xlink:href="#j" width="10.6" height="18.9" transform="translate(-14.7 -16.45)"/><use xlink:href="#m" width="4.2" height="8.3" transform="matrix(1 0 .1096 .9996 -.7 -27.9)"/><use xlink:href="#n" width="8.6" height="6.3" transform="matrix(.9387 0 .0528 1.003 -4.75 -27.35)"/><use xlink:href="#o" width="8.1" height="11.4" transform="matrix(1 0 .1096 .9996 -6.2 -30.2)"/><use xlink:href="#D" width="21.3" height="21.3" transform="translate(-.5 -32.2)"/></g></g><g clip-path="url(#E)"><g transform="translate(769.7 41.1)"><use xlink:href="#i" width="14.7" height="4.3" transform="matrix(.8 0 0 .8 -5.4 -1.8)"/><use xlink:href="#j" width="10.6" height="18.9" transform="matrix(1 0 .1146 .9685 -4.3 -18.9)"/><use xlink:href="#k" width="4" height="5.5" transform="rotate(-96.566 .022 .025)scale(.9997)"/><use xlink:href="#k" width="4" height="5.5" transform="rotate(-90.476 -1.629 2.508)scale(.9984)"/><use xlink:href="#l" width="19" height="28.8" transform="matrix(1 0 .031 1.0006 -10.1 -30.15)"/><use xlink:href="#j" width="10.6" height="18.9" transform="translate(-14.7 -16.45)"/><use xlink:href="#m" width="4.2" height="8.3" transform="matrix(1 0 .1096 .9996 -.75 -27.9)"/><use xlink:href="#n" width="8.6" height="6.3" transform="matrix(.9183 0 .0317 1.0035 -4.8 -27.35)"/><use xlink:href="#o" width="8.1" height="11.4" transform="matrix(1 0 .1096 .9996 -6.25 -30.2)"/><use xlink:href="#F" width="24.6" height="24.6" transform="translate(-.55 -33.5)"/></g></g><g clip-path="url(#G)"><g transform="translate(827.7 41.1)"><use xlink:href="#i" width="14.7" height="4.3" transform="matrix(.8 0 0 .8 -5.4 -1.8)"/><use xlink:href="#j" width="10.6" height="18.9" transform="matrix(1 0 .1146 .9685 -4.3 -18.9)"/><use xlink:href="#k" width="4" height="5.5" transform="rotate(-96.566 .022 .025)scale(.9997)"/><use xlink:href="#k" width="4" height="5.5" transform="rotate(-90.476 -1.629 2.508)scale(.9984)"/><use xlink:href="#l" width="19" height="28.8" transform="matrix(1 0 .0396 1.0006 -10.2 -30.15)"/><use xlink:href="#j" width="10.6" height="18.9" transform="translate(-14.7 -16.45)"/><use xlink:href="#m" width="4.2" height="8.3" transform="matrix(1 0 .1096 .9996 -.75 -27.9)"/><use xlink:href="#n" width="8.6" height="6.3" transform="matrix(.8978 0 .0139 1.0035 -4.8 -27.35)"/><use xlink:href="#o" width="8.1" height="11.4" transform="matrix(1 0 .1096 .9996 -6.25 -30.2)"/><use xlink:href="#H" width="28.1" height="28.1" transform="translate(-.65 -34.8)"/></g></g><g clip-path="url(#I)"><g transform="translate(885.7 41.1)"><use xlink:href="#i" width="14.7" height="4.3" transform="matrix(.8 0 0 .8 -5.4 -1.8)"/><use xlink:href="#j" width="10.6" height="18.9" transform="matrix(1 0 .1146 .9685 -4.3 -18.9)"/><use xlink:href="#k" width="4" height="5.5" transform="rotate(-96.566 .022 .025)scale(.9997)"/><use xlink:href="#k" width="4" height="5.5" transform="rotate(-90.476 -1.629 2.508)scale(.9984)"/><use xlink:href="#l" width="19" height="28.8" transform="matrix(1 0 .0482 1.0005 -10.4 -30.1)"/><use xlink:href="#j" width="10.6" height="18.9" transform="translate(-14.7 -16.45)"/><use xlink:href="#m" width="4.2" height="8.3" transform="matrix(1 0 .1096 .9996 -.8 -27.9)"/><use xlink:href="#n" width="8.6" height="6.3" transform="matrix(.8774 0 -.0007 1.0031 -4.85 -27.35)"/><use xlink:href="#o" width="8.1" height="11.4" transform="matrix(1 0 .1096 .9996 -6.3 -30.2)"/><use xlink:href="#J" width="31.4" height="31.5" transform="translate(-.7 -36.15)"/></g></g><g clip-path="url(#K)"><g transform="translate(943.7 41.1)"><use xlink:href="#i" width="14.7" height="4.3" transform="matrix(.8 0 0 .8 -5.4 -1.8)"/><use xlink:href="#j" width="10.6" height="18.9" transform="matrix(1 0 .1146 .9685 -4.3 -18.9)"/><use xlink:href="#k" width="4" height="5.5" transform="rotate(-96.566 .022 .025)scale(.9997)"/><use xlink:href="#k" width="4" height="5.5" transform="rotate(-90.476 -1.629 2.508)scale(.9984)"/><use xlink:href="#l" width="19" height="28.8" transform="matrix(1 0 .0535 1.0005 -10.5 -30.15)"/><use xlink:href="#j" width="10.6" height="18.9" transform="translate(-14.7 -16.45)"/><use xlink:href="#m" width="4.2" height="8.3" transform="matrix(1 0 .1096 .9996 -.85 -27.9)"/><use xlink:href="#n" width="8.6" height="6.3" transform="matrix(.857 0 -.0185 1.0025 -4.85 -27.35)"/><use xlink:href="#o" width="8.1" height="11.4" transform="matrix(1 0 .1096 .9996 -6.35 -30.2)"/><use xlink:href="#L" width="34.9" height="34.9" transform="translate(-.8 -37.45)"/></g></g><g clip-path="url(#M)"><g transform="translate(1001.7 41.1)"><use xlink:href="#i" width="14.7" height="4.3" transform="matrix(.8 0 0 .8 -5.4 -1.8)"/><use xlink:href="#j" width="10.6" height="18.9" transform="matrix(1 0 .1146 .9685 -4.3 -18.9)"/><use xlink:href="#k" width="4" height="5.5" transform="rotate(-96.566 .022 .025)scale(.9997)"/><use xlink:href="#k" width="4" height="5.5" transform="rotate(-90.476 -1.629 2.508)scale(.9984)"/><use xlink:href="#l" width="19" height="28.8" transform="matrix(1 0 .0621 1.0002 -10.7 -30.15)"/><use xlink:href="#j" width="10.6" height="18.9" transform="translate(-14.7 -16.45)"/><use xlink:href="#m" width="4.2" height="8.3" transform="matrix(1 0 .1096 .9996 -.9 -27.9)"/><use xlink:href="#n" width="8.6" height="6.3" transform="matrix(.8365 0 -.0395 1.0013 -4.85 -27.35)"/><use xlink:href="#o" width="8.1" height="11.4" transform="matrix(1 0 .1096 .9996 -6.4 -30.2)"/><use xlink:href="#N" width="38.3" height="38.3" transform="translate(-.85 -38.75)"/></g></g><g clip-path="url(#O)"><g transform="translate(1059.7 41.1)"><use xlink:href="#i" width="14.7" height="4.3" transform="matrix(.8 0 0 .8 -5.4 -1.8)"/><use xlink:href="#j" width="10.6" height="18.9" transform="matrix(1 0 .1146 .9685 -4.3 -18.9)"/><use xlink:href="#k" width="4" height="5.5" transform="rotate(-96.566 .022 .025)scale(.9997)"/><use xlink:href="#k" width="4" height="5.5" transform="rotate(-90.476 -1.629 2.508)scale(.9984)"/><use xlink:href="#l" width="19" height="28.8" transform="matrix(1 0 .0729 1 -10.9 -30.15)"/><use xlink:href="#j" width="10.6" height="18.9" transform="translate(-14.7 -16.45)"/><use xlink:href="#m" width="4.2" height="8.3" transform="matrix(1 0 .1096 1 -.95 -27.9)"/><use xlink:href="#n" width="8.6" height="6.3" transform="matrix(.8161 0 -.0587 1 -4.85 -27.35)"/><use xlink:href="#o" width="8.1" height="11.4" transform="matrix(1 0 .1096 1 -6.5 -30.2)"/><use xlink:href="#P" width="41.8" height="41.7" transform="translate(-.95 -40.1)"/></g></g><g clip-path="url(#Q)"><g transform="translate(1117.7 41.1)"><use xlink:href="#i" width="14.7" height="4.3" transform="matrix(.8 0 0 .8 -5.4 -1.8)"/><use xlink:href="#j" width="10.6" height="18.9" transform="matrix(1 0 .1146 .9685 -4.3 -18.9)"/><use xlink:href="#k" width="4" height="5.5" transform="rotate(-96.566 .022 .025)scale(.9997)"/><use xlink:href="#k" width="4" height="5.5" transform="rotate(-90.476 -1.629 2.508)scale(.9984)"/><use xlink:href="#l" width="19" height="28.8" transform="matrix(1 0 .0729 1 -10.9 -30.15)"/><use xlink:href="#j" width="10.6" height="18.9" transform="translate(-14.7 -16.45)"/><use xlink:href="#m" width="4.2" height="8.3" transform="matrix(1 0 .1096 1 -.95 -27.9)"/><use xlink:href="#n" width="8.6" height="6.3" transform="matrix(.8161 0 -.0587 1 -4.85 -27.35)"/><use xlink:href="#o" width="8.1" height="11.4" transform="matrix(1 0 .1096 1 -6.5 -30.2)"/><use xlink:href="#R" width="35.6" height="35.6" transform="translate(-.45 -37.55)"/></g></g><g clip-path="url(#S)"><g transform="translate(1175.7 41.1)"><use xlink:href="#i" width="14.7" height="4.3" transform="matrix(.8 0 0 .8 -5.4 -1.8)"/><use xlink:href="#j" width="10.6" height="18.9" transform="matrix(1 0 .1146 .9685 -4.3 -18.9)"/><use xlink:href="#k" width="4" height="5.5" transform="rotate(-96.566 .022 .025)scale(.9997)"/><use xlink:href="#k" width="4" height="5.5" transform="rotate(-90.476 -1.629 2.508)scale(.9984)"/><use xlink:href="#l" width="19" height="28.8" transform="matrix(1 0 .0729 1 -10.9 -30.15)"/><use xlink:href="#j" width="10.6" height="18.9" transform="translate(-14.7 -16.45)"/><use xlink:href="#m" width="4.2" height="8.3" transform="matrix(1 0 .1096 1 -.95 -27.9)"/><use xlink:href="#n" width="8.6" height="6.3" transform="matrix(.8161 0 -.0587 1 -4.85 -27.35)"/><use xlink:href="#o" width="8.1" height="11.4" transform="matrix(1 0 .1096 1 -6.5 -30.2)"/><use xlink:href="#T" width="29.6" height="29.5" transform="translate(0 -35.05)"/></g></g><g clip-path="url(#U)"><g transform="translate(1233.7 41.1)"><use xlink:href="#i" width="14.7" height="4.3" transform="matrix(.8 0 0 .8 -5.4 -1.8)"/><use xlink:href="#j" width="10.6" height="18.9" transform="matrix(1 0 .1146 .9685 -4.3 -18.9)"/><use xlink:href="#k" width="4" height="5.5" transform="rotate(-96.566 .022 .025)scale(.9997)"/><use xlink:href="#k" width="4" height="5.5" transform="rotate(-90.476 -1.629 2.508)scale(.9984)"/><use xlink:href="#l" width="19" height="28.8" transform="matrix(1 0 .0729 1 -10.9 -30.15)"/><use xlink:href="#j" width="10.6" height="18.9" transform="translate(-14.7 -16.45)"/><use xlink:href="#m" width="4.2" height="8.3" transform="matrix(1 0 .1096 1 -.95 -27.9)"/><use xlink:href="#n" width="8.6" height="6.3" transform="matrix(.8161 0 -.0587 1 -4.85 -27.35)"/><use xlink:href="#o" width="8.1" height="11.4" transform="matrix(1 0 .1096 1 -6.5 -30.2)"/><use xlink:href="#V" width="23.4" height="23.4" transform="translate(.5 -32.55)"/></g></g><g clip-path="url(#W)"><g transform="translate(1291.7 41.1)"><use xlink:href="#i" width="14.7" height="4.3" transform="matrix(.8 0 0 .8 -5.4 -1.8)"/><use xlink:href="#j" width="10.6" height="18.9" transform="matrix(1 0 .1146 .9685 -4.3 -18.9)"/><use xlink:href="#k" width="4" height="5.5" transform="rotate(-96.566 .022 .025)scale(.9997)"/><use xlink:href="#k" width="4" height="5.5" transform="rotate(-90.476 -1.629 2.508)scale(.9984)"/><use xlink:href="#l" width="19" height="28.8" transform="matrix(1 0 .0729 1 -10.9 -30.15)"/><use xlink:href="#j" width="10.6" height="18.9" transform="translate(-14.7 -16.45)"/><use xlink:href="#m" width="4.2" height="8.3" transform="matrix(1 0 .1096 1 -.95 -27.9)"/><use xlink:href="#n" width="8.6" height="6.3" transform="matrix(.8161 0 -.0587 1 -4.85 -27.35)"/><use xlink:href="#o" width="8.1" height="11.4" transform="matrix(1 0 .1096 1 -6.5 -30.2)"/><use xlink:href="#X" width="17.4" height="17.4" transform="translate(1 -30.05)"/></g></g><g clip-path="url(#Y)"><g transform="translate(1349.7 41.1)"><use xlink:href="#i" width="14.7" height="4.3" transform="matrix(.8 0 0 .8 -5.4 -1.8)"/><use xlink:href="#j" width="10.6" height="18.9" transform="matrix(1 0 .1146 .9685 -4.3 -18.9)"/><use xlink:href="#k" width="4" height="5.5" transform="rotate(-96.566 .022 .025)scale(.9997)"/><use xlink:href="#k" width="4" height="5.5" transform="rotate(-90.476 -1.629 2.508)scale(.9984)"/><use xlink:href="#l" width="19" height="28.8" transform="matrix(1 0 .0729 1 -10.9 -30.15)"/><use xlink:href="#j" width="10.6" height="18.9" transform="translate(-14.7 -16.45)"/><use xlink:href="#m" width="4.2" height="8.3" transform="matrix(1 0 .1096 1 -.95 -27.9)"/><use xlink:href="#n" width="8.6" height="6.3" transform="matrix(.8161 0 -.0587 1 -4.85 -27.35)"/><use xlink:href="#o" width="8.1" height="11.4" transform="matrix(1 0 .1096 1 -6.5 -30.2)"/><use xlink:href="#Z" width="11.3" height="11.3" transform="translate(1.5 -27.55)"/></g></g><g clip-path="url(#aa)"><g transform="translate(1407.7 41.1)"><use xlink:href="#i" width="14.7" height="4.3" transform="matrix(.8 0 0 .8 -5.4 -1.8)"/><use xlink:href="#j" width="10.6" height="18.9" transform="matrix(1 0 .1146 .9685 -4.3 -18.9)"/><use xlink:href="#k" width="4" height="5.5" transform="rotate(-96.566 .022 .025)scale(.9997)"/><use xlink:href="#k" width="4" height="5.5" transform="rotate(-90.476 -1.629 2.508)scale(.9984)"/><use xlink:href="#l" width="19" height="28.8" transform="matrix(1 0 .0729 1 -10.9 -30.15)"/><use xlink:href="#j" width="10.6" height="18.9" transform="translate(-14.7 -16.45)"/><use xlink:href="#m" width="4.2" height="8.3" transform="matrix(1 0 .1096 1 -.95 -27.9)"/><use xlink:href="#n" width="8.6" height="6.3" transform="matrix(.8161 0 -.0587 1 -4.85 -27.35)"/><use xlink:href="#o" width="8.1" height="11.4" transform="matrix(1 0 .1096 1 -6.5 -30.2)"/><use xlink:href="#ab" width="5.2" height="5.2" transform="translate(2 -25.05)"/></g></g><g clip-path="url(#ac)"><g transform="translate(1465.7 41.1)"><use xlink:href="#i" width="14.7" height="4.3" transform="matrix(.8 0 0 .8 -5.4 -1.8)"/><use xlink:href="#j" width="10.6" height="18.9" transform="matrix(1 0 .1146 .9685 -4.3 -18.9)"/><use xlink:href="#k" width="4" height="5.5" transform="rotate(-96.566 .022 .025)scale(.9997)"/><use xlink:href="#k" width="4" height="5.5" transform="rotate(-90.476 -1.629 2.508)scale(.9984)"/><use xlink:href="#l" width="19" height="28.8" transform="matrix(1 0 -.0625 1 -8.35 -30.15)"/><use xlink:href="#j" width="10.6" height="18.9" transform="translate(-14.7 -16.45)"/><use xlink:href="#m" width="4.2" height="8.3" transform="matrix(1.066 -.1526 .0806 .9998 2.15 -26.9)"/><use xlink:href="#n" width="8.6" height="6.3" transform="matrix(1.3678 0 .1737 1 -.7 -25.8)"/><use xlink:href="#o" width="8.1" height="11.4" transform="matrix(1.066 -.1526 .0806 .9998 -3.65 -28.45)"/><use xlink:href="#ad" width="22.9" height="5.4" transform="translate(11 -21.8)"/></g></g><g clip-path="url(#ae)"><g transform="translate(1523.7 41.1)"><use xlink:href="#i" width="14.7" height="4.3" transform="matrix(.8 0 0 .8 -5.4 -1.8)"/><use xlink:href="#j" width="10.6" height="18.9" transform="matrix(1 0 .1146 .9685 -4.3 -18.9)"/><use xlink:href="#k" width="4" height="5.5" transform="rotate(-96.566 .022 .025)scale(.9997)"/><use xlink:href="#k" width="4" height="5.5" transform="rotate(-90.476 -1.629 2.508)scale(.9984)"/><use xlink:href="#l" width="19" height="28.8" transform="matrix(1 0 -.0615 .9998 -8.3 -30.15)"/><use xlink:href="#j" width="10.6" height="18.9" transform="translate(-14.7 -16.45)"/><use xlink:href="#m" width="4.2" height="8.3" transform="matrix(1.0658 -.1506 .0792 .9997 2.2 -26.95)"/><use xlink:href="#n" width="8.6" height="6.3" transform="matrix(1.38 0 .1953 1.0018 -.75 -25.75)"/><use xlink:href="#o" width="8.1" height="11.4" transform="matrix(1.0658 -.1506 .0792 .9997 -3.55 -28.5)"/><use xlink:href="#ad" width="22.9" height="5.4" transform="translate(11 -21.8)"/></g></g><g clip-path="url(#af)"><g transform="translate(1581.7 41.1)"><use xlink:href="#i" width="14.7" height="4.3" transform="matrix(.8 0 0 .8 -5.4 -1.8)"/><use xlink:href="#j" width="10.6" height="18.9" transform="matrix(1 0 .1146 .9685 -4.3 -18.9)"/><use xlink:href="#k" width="4" height="5.5" transform="rotate(-96.566 .022 .025)scale(.9997)"/><use xlink:href="#k" width="4" height="5.5" transform="rotate(-90.476 -1.629 2.508)scale(.9984)"/><use xlink:href="#l" width="19" height="28.8" transform="matrix(1 0 -.0615 .9998 -8.3 -30.15)"/><use xlink:href="#j" width="10.6" height="18.9" transform="translate(-14.7 -16.45)"/><use xlink:href="#m" width="4.2" height="8.3" transform="matrix(1.0658 -.1506 .0792 .9997 2.25 -26.9)"/><use xlink:href="#n" width="8.6" height="6.3" transform="matrix(1.3922 0 .2184 1.0033 -.8 -25.75)"/><use xlink:href="#o" width="8.1" height="11.4" transform="matrix(1.0658 -.1506 .0792 .9997 -3.5 -28.45)"/><use xlink:href="#ad" width="22.9" height="5.4" transform="translate(11 -21.8)"/></g></g><g clip-path="url(#ag)"><g transform="translate(1639.7 41.1)"><use xlink:href="#i" width="14.7" height="4.3" transform="matrix(.8 0 0 .8 -5.4 -1.8)"/><use xlink:href="#j" width="10.6" height="18.9" transform="matrix(1 0 .1146 .9685 -4.3 -18.9)"/><use xlink:href="#k" width="4" height="5.5" transform="rotate(-96.566 .022 .025)scale(.9997)"/><use xlink:href="#k" width="4" height="5.5" transform="rotate(-90.476 -1.629 2.508)scale(.9984)"/><use xlink:href="#l" width="19" height="28.8" transform="matrix(1 0 -.0615 .9998 -8.3 -30.15)"/><use xlink:href="#j" width="10.6" height="18.9" transform="translate(-14.7 -16.45)"/><use xlink:href="#m" width="4.2" height="8.3" transform="matrix(1.0658 -.1506 .0792 .9997 2.25 -26.9)"/><use xlink:href="#n" width="8.6" height="6.3" transform="matrix(1.4045 0 .2417 1.0044 -.8 -25.65)"/><use xlink:href="#o" width="8.1" height="11.4" transform="matrix(1.0658 -.1506 .0792 .9997 -3.5 -28.45)"/><use xlink:href="#ah" width="20.3" height="7.7" transform="translate(11.05 -23.1)"/></g></g><g clip-path="url(#ai)"><g transform="translate(1697.7 41.1)"><use xlink:href="#i" width="14.7" height="4.3" transform="matrix(.8 0 0 .8 -5.4 -1.8)"/><use xlink:href="#j" width="10.6" height="18.9" transform="matrix(1 0 .1146 .9685 -4.3 -18.9)"/><use xlink:href="#k" width="4" height="5.5" transform="rotate(-96.566 .022 .025)scale(.9997)"/><use xlink:href="#k" width="4" height="5.5" transform="rotate(-90.476 -1.629 2.508)scale(.9984)"/><use xlink:href="#l" width="19" height="28.8" transform="matrix(1 0 -.0615 .9998 -8.3 -30.15)"/><use xlink:href="#j" width="10.6" height="18.9" transform="translate(-14.7 -16.45)"/><use xlink:href="#m" width="4.2" height="8.3" transform="matrix(1.0658 -.1506 .0792 .9997 2.3 -26.85)"/><use xlink:href="#n" width="8.6" height="6.3" transform="matrix(1.4167 0 .2652 1.0049 -.9 -25.6)"/><use xlink:href="#o" width="8.1" height="11.4" transform="matrix(1.0658 -.1506 .0792 .9997 -3.45 -28.4)"/><use xlink:href="#ah" width="20.3" height="7.7" transform="translate(11.05 -23.1)"/></g></g><g clip-path="url(#aj)"><g transform="translate(1755.7 41.1)"><use xlink:href="#i" width="14.7" height="4.3" transform="matrix(.8 0 0 .8 -5.4 -1.8)"/><use xlink:href="#j" width="10.6" height="18.9" transform="matrix(1 0 .1146 .9685 -4.3 -18.9)"/><use xlink:href="#k" width="4" height="5.5" transform="rotate(-96.566 .022 .025)scale(.9997)"/><use xlink:href="#k" width="4" height="5.5" transform="rotate(-90.476 -1.629 2.508)scale(.9984)"/><use xlink:href="#l" width="19" height="28.8" transform="matrix(1 0 -.0615 .9998 -8.3 -30.15)"/><use xlink:href="#j" width="10.6" height="18.9" transform="translate(-14.7 -16.45)"/><use xlink:href="#m" width="4.2" height="8.3" transform="matrix(1.0658 -.1506 .0792 .9997 2.3 -26.85)"/><use xlink:href="#n" width="8.6" height="6.3" transform="matrix(1.4289 0 .2887 1.0048 -.85 -25.6)"/><use xlink:href="#o" width="8.1" height="11.4" transform="matrix(1.0658 -.1506 .0792 .9997 -3.45 -28.4)"/><use xlink:href="#ah" width="20.3" height="7.7" transform="translate(11.05 -23.1)"/></g></g><g clip-path="url(#ak)"><g transform="translate(1813.7 41.1)"><use xlink:href="#i" width="14.7" height="4.3" transform="matrix(.8 0 0 .8 -5.4 -1.8)"/><use xlink:href="#j" width="10.6" height="18.9" transform="matrix(1 0 .1146 .9685 -4.3 -18.9)"/><use xlink:href="#k" width="4" height="5.5" transform="rotate(-96.566 .022 .025)scale(.9997)"/><use xlink:href="#k" width="4" height="5.5" transform="rotate(-90.476 -1.629 2.508)scale(.9984)"/><use xlink:href="#l" width="19" height="28.8" transform="matrix(1 0 -.0615 .9998 -8.3 -30.15)"/><use xlink:href="#j" width="10.6" height="18.9" transform="translate(-14.7 -16.45)"/><use xlink:href="#m" width="4.2" height="8.3" transform="matrix(1.0658 -.1506 .0792 .9997 2.35 -26.8)"/><use xlink:href="#n" width="8.6" height="6.3" transform="matrix(1.4411 0 .3124 1.0042 -.9 -25.55)"/><use xlink:href="#o" width="8.1" height="11.4" transform="matrix(1.0658 -.1506 .0792 .9997 -3.4 -28.35)"/><use xlink:href="#ad" width="22.9" height="5.4" transform="translate(11 -21.8)"/></g></g><g clip-path="url(#al)"><g transform="translate(1871.7 41.1)"><use xlink:href="#i" width="14.7" height="4.3" transform="matrix(.8 0 0 .8 -5.4 -1.8)"/><use xlink:href="#j" width="10.6" height="18.9" transform="matrix(1 0 .1146 .9685 -4.3 -18.9)"/><use xlink:href="#k" width="4" height="5.5" transform="rotate(-96.566 .022 .025)scale(.9997)"/><use xlink:href="#k" width="4" height="5.5" transform="rotate(-90.476 -1.629 2.508)scale(.9984)"/><use xlink:href="#l" width="19" height="28.8" transform="matrix(1 0 -.0615 .9998 -8.3 -30.15)"/><use xlink:href="#j" width="10.6" height="18.9" transform="translate(-14.7 -16.45)"/><use xlink:href="#m" width="4.2" height="8.3" transform="matrix(1.0658 -.1506 .0792 .9997 2.35 -26.8)"/><use xlink:href="#n" width="8.6" height="6.3" transform="matrix(1.4534 0 .3363 1.003 -.9 -25.45)"/><use xlink:href="#o" width="8.1" height="11.4" transform="matrix(1.0658 -.1506 .0792 .9997 -3.4 -28.35)"/><use xlink:href="#ad" width="22.9" height="5.4" transform="translate(11 -21.8)"/></g></g><g clip-path="url(#am)"><g transform="translate(1929.7 41.1)"><use xlink:href="#i" width="14.7" height="4.3" transform="matrix(.8 0 0 .8 -5.4 -1.8)"/><use xlink:href="#j" width="10.6" height="18.9" transform="matrix(1 0 .1146 .9685 -4.3 -18.9)"/><use xlink:href="#k" width="4" height="5.5" transform="rotate(-96.566 .022 .025)scale(.9997)"/><use xlink:href="#k" width="4" height="5.5" transform="rotate(-90.476 -1.629 2.508)scale(.9984)"/><use xlink:href="#l" width="19" height="28.8" transform="matrix(1 0 -.0615 .9998 -8.3 -30.15)"/><use xlink:href="#j" width="10.6" height="18.9" transform="translate(-14.7 -16.45)"/><use xlink:href="#m" width="4.2" height="8.3" transform="matrix(1.0658 -.1506 .0792 .9997 2.4 -26.75)"/><use xlink:href="#n" width="8.6" height="6.3" transform="matrix(1.4656 0 .3602 1.0013 -.95 -25.45)"/><use xlink:href="#o" width="8.1" height="11.4" transform="matrix(1.0658 -.1506 .0792 .9997 -3.35 -28.3)"/><use xlink:href="#ad" width="22.9" height="5.4" transform="translate(11 -21.8)"/></g></g><g clip-path="url(#an)"><g transform="translate(1987.7 41.1)"><use xlink:href="#i" width="14.7" height="4.3" transform="matrix(.8 0 0 .8 -5.4 -1.8)"/><use xlink:href="#j" width="10.6" height="18.9" transform="matrix(1 0 .1146 .9685 -4.3 -18.9)"/><use xlink:href="#k" width="4" height="5.5" transform="rotate(-96.566 .022 .025)scale(.9997)"/><use xlink:href="#k" width="4" height="5.5" transform="rotate(-90.476 -1.629 2.508)scale(.9984)"/><use xlink:href="#l" width="19" height="28.8" transform="matrix(1 0 -.0625 1 -8.35 -30.15)"/><use xlink:href="#j" width="10.6" height="18.9" transform="translate(-14.7 -16.45)"/><use xlink:href="#m" width="4.2" height="8.3" transform="matrix(1.066 -.1526 .0806 .9998 2.35 -26.7)"/><use xlink:href="#n" width="8.6" height="6.3" transform="matrix(1.4778 0 .3848 1 -.9 -25.4)"/><use xlink:href="#o" width="8.1" height="11.4" transform="matrix(1.066 -.1526 .0806 .9998 -3.45 -28.25)"/><use xlink:href="#ah" width="20.3" height="7.7" transform="translate(11.05 -23.1)"/></g></g><g clip-path="url(#ao)"><g transform="translate(2045.7 41.1)"><use xlink:href="#i" width="14.7" height="4.3" transform="matrix(.8 0 0 .8 -5.4 -1.8)"/><use xlink:href="#j" width="10.6" height="18.9" transform="matrix(1 0 .1146 .9685 -4.3 -18.9)"/><use xlink:href="#k" width="4" height="5.5" transform="rotate(-96.566 .022 .025)scale(.9997)"/><use xlink:href="#k" width="4" height="5.5" transform="rotate(-90.476 -1.629 2.508)scale(.9984)"/><use xlink:href="#l" width="19" height="28.8" transform="matrix(1 0 -.0625 1 -8.35 -30.15)"/><use xlink:href="#j" width="10.6" height="18.9" transform="translate(-14.7 -16.45)"/><use xlink:href="#m" width="4.2" height="8.3" transform="matrix(1.066 -.1526 .0806 .9998 2.35 -26.7)"/><use xlink:href="#n" width="8.6" height="6.3" transform="matrix(1.4778 0 .3848 1 -.9 -25.4)"/><use xlink:href="#o" width="8.1" height="11.4" transform="matrix(1.066 -.1526 .0806 .9998 -3.45 -28.25)"/><use xlink:href="#ad" width="22.9" height="5.4" transform="translate(11 -21.8)"/></g></g><g clip-path="url(#ap)"><g transform="translate(2103.7 41.1)"><use xlink:href="#i" width="14.7" height="4.3" transform="matrix(.8 0 0 .8 -5.4 -1.8)"/><use xlink:href="#j" width="10.6" height="18.9" transform="matrix(1 0 .1146 .9685 -4.3 -18.9)"/><use xlink:href="#k" width="4" height="5.5" transform="rotate(-96.566 .022 .025)scale(.9997)"/><use xlink:href="#k" width="4" height="5.5" transform="rotate(-90.476 -1.629 2.508)scale(.9984)"/><use xlink:href="#l" width="19" height="28.8" transform="matrix(1 0 -.0615 .9998 -8.3 -30.15)"/><use xlink:href="#j" width="10.6" height="18.9" transform="translate(-14.7 -16.45)"/><use xlink:href="#m" width="4.2" height="8.3" transform="matrix(1.0658 -.1506 .0792 .9997 2.3 -26.7)"/><use xlink:href="#n" width="8.6" height="6.3" transform="matrix(1.4325 0 .3561 1.0014 -.8 -25.45)"/><use xlink:href="#o" width="8.1" height="11.4" transform="matrix(1.0658 -.1506 .0792 .9997 -3.45 -28.3)"/><use xlink:href="#ah" width="20.3" height="7.7" transform="translate(11.05 -23.1)"/></g></g><g clip-path="url(#aq)"><g transform="translate(2161.7 41.1)"><use xlink:href="#i" width="14.7" height="4.3" transform="matrix(.8 0 0 .8 -5.4 -1.8)"/><use xlink:href="#j" width="10.6" height="18.9" transform="matrix(1 0 .1146 .9685 -4.3 -18.9)"/><use xlink:href="#k" width="4" height="5.5" transform="rotate(-96.566 .022 .025)scale(.9997)"/><use xlink:href="#k" width="4" height="5.5" transform="rotate(-90.476 -1.629 2.508)scale(.9984)"/><use xlink:href="#l" width="19" height="28.8" transform="matrix(1 0 -.0615 .9998 -8.3 -30.15)"/><use xlink:href="#j" width="10.6" height="18.9" transform="translate(-14.7 -16.45)"/><use xlink:href="#m" width="4.2" height="8.3" transform="matrix(1.0658 -.1506 .0792 .9997 2.2 -26.75)"/><use xlink:href="#n" width="8.6" height="6.3" transform="matrix(1.3872 0 .3315 1.0021 -.65 -25.45)"/><use xlink:href="#o" width="8.1" height="11.4" transform="matrix(1.0658 -.1506 .0792 .9997 -3.55 -28.35)"/><use xlink:href="#ah" width="20.3" height="7.7" transform="translate(11.05 -23.1)"/></g></g><g clip-path="url(#ar)"><g transform="translate(2219.7 41.1)"><use xlink:href="#i" width="14.7" height="4.3" transform="matrix(.8 0 0 .8 -5.4 -1.8)"/><use xlink:href="#j" width="10.6" height="18.9" transform="matrix(1 0 .1146 .9685 -4.3 -18.9)"/><use xlink:href="#k" width="4" height="5.5" transform="rotate(-96.566 .022 .025)scale(.9997)"/><use xlink:href="#k" width="4" height="5.5" transform="rotate(-90.476 -1.629 2.508)scale(.9984)"/><use xlink:href="#l" width="19" height="28.8" transform="matrix(1 0 -.0615 .9998 -8.3 -30.15)"/><use xlink:href="#j" width="10.6" height="18.9" transform="translate(-14.7 -16.45)"/><use xlink:href="#m" width="4.2" height="8.3" transform="matrix(1.0658 -.1506 .0792 .9997 2.15 -26.75)"/><use xlink:href="#n" width="8.6" height="6.3" transform="matrix(1.3419 0 .3069 1.0021 -.55 -25.5)"/><use xlink:href="#o" width="8.1" height="11.4" transform="matrix(1.0658 -.1506 .0792 .9997 -3.6 -28.35)"/><use xlink:href="#ad" width="22.9" height="5.4" transform="translate(11 -21.8)"/></g></g><g clip-path="url(#as)"><g transform="translate(2277.7 41.1)"><use xlink:href="#i" width="14.7" height="4.3" transform="matrix(.8 0 0 .8 -5.4 -1.8)"/><use xlink:href="#j" width="10.6" height="18.9" transform="matrix(1 0 .1146 .9685 -4.3 -18.9)"/><use xlink:href="#k" width="4" height="5.5" transform="rotate(-96.566 .022 .025)scale(.9997)"/><use xlink:href="#k" width="4" height="5.5" transform="rotate(-90.476 -1.629 2.508)scale(.9984)"/><use xlink:href="#l" width="19" height="28.8" transform="matrix(1 0 -.0615 .9998 -8.3 -30.15)"/><use xlink:href="#j" width="10.6" height="18.9" transform="translate(-14.7 -16.45)"/><use xlink:href="#m" width="4.2" height="8.3" transform="matrix(1.0658 -.1506 .0792 .9997 2.1 -26.75)"/><use xlink:href="#n" width="8.6" height="6.3" transform="matrix(1.2966 0 .2793 1.0024 -.45 -25.5)"/><use xlink:href="#o" width="8.1" height="11.4" transform="matrix(1.0658 -.1506 .0792 .9997 -3.65 -28.35)"/><use xlink:href="#ad" width="22.9" height="5.4" transform="translate(11 -21.8)"/></g></g><g clip-path="url(#at)"><g transform="translate(2335.7 41.1)"><use xlink:href="#i" width="14.7" height="4.3" transform="matrix(.8 0 0 .8 -5.4 -1.8)"/><use xlink:href="#j" width="10.6" height="18.9" transform="matrix(1 0 .1146 .9685 -4.3 -18.9)"/><use xlink:href="#k" width="4" height="5.5" transform="rotate(-96.566 .022 .025)scale(.9997)"/><use xlink:href="#k" width="4" height="5.5" transform="rotate(-90.476 -1.629 2.508)scale(.9984)"/><use xlink:href="#l" width="19" height="28.8" transform="matrix(1 0 -.0615 .9998 -8.3 -30.15)"/><use xlink:href="#j" width="10.6" height="18.9" transform="translate(-14.7 -16.45)"/><use xlink:href="#m" width="4.2" height="8.3" transform="matrix(1.0658 -.1506 .0792 .9997 2 -26.8)"/><use xlink:href="#n" width="8.6" height="6.3" transform="matrix(1.2513 0 .2551 1.0012 -.3 -25.6)"/><use xlink:href="#o" width="8.1" height="11.4" transform="matrix(1.0658 -.1506 .0792 .9997 -3.75 -28.4)"/><use xlink:href="#ad" width="22.9" height="5.4" transform="translate(11 -21.8)"/></g></g><g clip-path="url(#au)"><g transform="translate(2393.7 41.1)"><use xlink:href="#i" width="14.7" height="4.3" transform="matrix(.8 0 0 .8 -5.4 -1.8)"/><use xlink:href="#j" width="10.6" height="18.9" transform="matrix(1 0 .1146 .9685 -4.3 -18.9)"/><use xlink:href="#k" width="4" height="5.5" transform="rotate(-96.566 .022 .025)scale(.9997)"/><use xlink:href="#k" width="4" height="5.5" transform="rotate(-90.476 -1.629 2.508)scale(.9984)"/><use xlink:href="#l" width="19" height="28.8" transform="matrix(1 0 -.0625 1 -8.35 -30.15)"/><use xlink:href="#j" width="10.6" height="18.9" transform="translate(-14.7 -16.45)"/><use xlink:href="#m" width="4.2" height="8.3" transform="matrix(1.066 -.1526 .0806 .9998 1.95 -26.8)"/><use xlink:href="#n" width="8.6" height="6.3" transform="matrix(1.2061 0 .2317 1 -.2 -25.6)"/><use xlink:href="#o" width="8.1" height="11.4" transform="matrix(1.066 -.1526 .0806 .9998 -3.85 -28.35)"/><use xlink:href="#ah" width="20.3" height="7.7" transform="translate(11.05 -23.1)"/></g></g><g clip-path="url(#av)"><g transform="translate(2451.7 41.1)"><use xlink:href="#i" width="14.7" height="4.3" transform="matrix(.8 0 0 .8 -5.4 -1.8)"/><use xlink:href="#j" width="10.6" height="18.9" transform="matrix(1 0 .1146 .9685 -4.3 -18.9)"/><use xlink:href="#k" width="4" height="5.5" transform="rotate(-96.566 .022 .025)scale(.9997)"/><use xlink:href="#k" width="4" height="5.5" transform="rotate(-90.476 -1.629 2.508)scale(.9984)"/><use xlink:href="#l" width="19" height="28.8" transform="matrix(1 0 -.0399 1.0004 -8.75 -30.15)"/><use xlink:href="#j" width="10.6" height="18.9" transform="translate(-14.7 -16.45)"/><use xlink:href="#m" width="4.2" height="8.3" transform="matrix(1.0464 -.097 .0882 .9998 1.15 -27.15)"/><use xlink:href="#n" width="8.6" height="6.3" transform="matrix(1.1374 0 .1903 1.0011 -1.65 -26.2)"/><use xlink:href="#o" width="8.1" height="11.4" transform="matrix(1.0464 -.097 .0882 .9998 -4.65 -28.95)"/><use xlink:href="#ah" width="20.3" height="7.7" transform="translate(11.05 -23.1)"/></g></g><g clip-path="url(#aw)"><g transform="translate(2509.7 41.1)"><use xlink:href="#i" width="14.7" height="4.3" transform="matrix(.8 0 0 .8 -5.4 -1.8)"/><use xlink:href="#j" width="10.6" height="18.9" transform="matrix(1 0 .1146 .9685 -4.3 -18.9)"/><use xlink:href="#k" width="4" height="5.5" transform="rotate(-96.566 .022 .025)scale(.9997)"/><use xlink:href="#k" width="4" height="5.5" transform="rotate(-90.476 -1.629 2.508)scale(.9984)"/><use xlink:href="#l" width="19" height="28.8" transform="matrix(1 0 -.0183 1.0004 -9.15 -30.15)"/><use xlink:href="#j" width="10.6" height="18.9" transform="translate(-14.7 -16.45)"/><use xlink:href="#m" width="4.2" height="8.3" transform="matrix(1.0244 -.0457 .0972 1 .35 -27.55)"/><use xlink:href="#n" width="8.6" height="6.3" transform="matrix(1.0687 0 .1498 1.0012 -3.2 -26.75)"/><use xlink:href="#o" width="8.1" height="11.4" transform="matrix(1.0244 -.0457 .0972 1 -5.35 -29.6)"/><use xlink:href="#ah" width="20.3" height="7.7" transform="translate(11.05 -23.1)"/></g></g><g clip-path="url(#ax)"><g transform="translate(2567.7 41.1)"><use xlink:href="#i" width="14.7" height="4.3" transform="matrix(.8 0 0 .8 -5.4 -1.8)"/><use xlink:href="#j" width="10.6" height="18.9" transform="matrix(1 0 .1146 .9685 -4.3 -18.9)"/><use xlink:href="#k" width="4" height="5.5" transform="rotate(-96.566 .022 .025)scale(.9997)"/><use xlink:href="#k" width="4" height="5.5" transform="rotate(-90.476 -1.629 2.508)scale(.9984)"/><use xlink:href="#l" width="19" height="28.8" transform="translate(-9.45 -30.15)"/><use xlink:href="#j" width="10.6" height="18.9" transform="translate(-14.7 -16.45)"/><use xlink:href="#m" width="4.2" height="8.3" transform="matrix(1 0 .1096 1 -.55 -27.9)"/><use xlink:href="#n" width="8.6" height="6.3" transform="matrix(1 0 .1096 1 -4.75 -27.35)"/><use xlink:href="#o" width="8.1" height="11.4" transform="matrix(1 0 .1096 1 -6.1 -30.2)"/><use xlink:href="#ay" width="14.6" height="7.2" transform="translate(26.95 -20.85)"/></g></g><g clip-path="url(#az)"><g transform="translate(2625.7 41.1)"><use xlink:href="#i" width="14.7" height="4.3" transform="matrix(.8 0 0 .8 -5.4 -1.8)"/><use xlink:href="#j" width="10.6" height="18.9" transform="matrix(1 0 .1146 .9685 -4.3 -18.9)"/><use xlink:href="#k" width="4" height="5.5" transform="rotate(-96.566 .022 .025)scale(.9997)"/><use xlink:href="#k" width="4" height="5.5" transform="rotate(-90.476 -1.629 2.508)scale(.9984)"/><use xlink:href="#l" width="19" height="28.8" transform="matrix(1 0 -.0091 1.0002 -9.25 -30.15)"/><use xlink:href="#j" width="10.6" height="18.9" transform="translate(-14.7 -16.45)"/><use xlink:href="#m" width="4.2" height="8.3" transform="matrix(1.0124 -.0225 .1017 1 -.15 -27.75)"/><use xlink:href="#n" width="8.6" height="6.3" transform="matrix(1.0674 0 .1285 1.0019 -4.1 -27.05)"/><use xlink:href="#o" width="8.1" height="11.4" transform="matrix(1.0124 -.0225 .1017 1 -5.6 -29.85)"/><use xlink:href="#ay" width="14.6" height="7.2" transform="translate(26.95 -20.85)"/></g></g><g clip-path="url(#aA)"><g transform="translate(2683.7 41.1)"><use xlink:href="#i" width="14.7" height="4.3" transform="matrix(.8 0 0 .8 -5.4 -1.8)"/><use xlink:href="#j" width="10.6" height="18.9" transform="matrix(1 0 .1146 .9685 -4.3 -18.9)"/><use xlink:href="#k" width="4" height="5.5" transform="rotate(-96.566 .022 .025)scale(.9997)"/><use xlink:href="#k" width="4" height="5.5" transform="rotate(-90.476 -1.629 2.508)scale(.9984)"/><use xlink:href="#l" width="19" height="28.8" transform="matrix(1 0 -.0182 1.0004 -9.1 -30.15)"/><use xlink:href="#j" width="10.6" height="18.9" transform="translate(-14.7 -16.45)"/><use xlink:href="#m" width="4.2" height="8.3" transform="matrix(1.0243 -.0455 .0971 .9999 .4 -27.55)"/><use xlink:href="#n" width="8.6" height="6.3" transform="matrix(1.1348 0 .1508 1.0032 -3.45 -26.85)"/><use xlink:href="#o" width="8.1" height="11.4" transform="matrix(1.0243 -.0455 .0971 .9999 -5.25 -29.6)"/><use xlink:href="#ay" width="14.6" height="7.2" transform="translate(26.95 -20.85)"/></g></g><g clip-path="url(#aB)"><g transform="translate(2741.7 41.1)"><use xlink:href="#i" width="14.7" height="4.3" transform="matrix(.8 0 0 .8 -5.4 -1.8)"/><use xlink:href="#j" width="10.6" height="18.9" transform="matrix(1 0 .1146 .9685 -4.3 -18.9)"/><use xlink:href="#k" width="4" height="5.5" transform="rotate(-96.566 .022 .025)scale(.9997)"/><use xlink:href="#k" width="4" height="5.5" transform="rotate(-90.476 -1.629 2.508)scale(.9984)"/><use xlink:href="#l" width="19" height="28.8" transform="matrix(1 0 -.0306 1.0003 -8.85 -30.15)"/><use xlink:href="#j" width="10.6" height="18.9" transform="translate(-14.7 -16.45)"/><use xlink:href="#m" width="4.2" height="8.3" transform="matrix(1.0354 -.0725 .0925 .9998 .8 -27.4)"/><use xlink:href="#n" width="8.6" height="6.3" transform="matrix(1.2022 0 .1733 1.0041 -2.75 -26.5)"/><use xlink:href="#o" width="8.1" height="11.4" transform="matrix(1.0354 -.0725 .0925 .9998 -4.8 -29.3)"/></g></g><g clip-path="url(#aC)"><g transform="translate(2799.7 41.1)"><use xlink:href="#i" width="14.7" height="4.3" transform="matrix(.8 0 0 .8 -5.4 -1.8)"/><use xlink:href="#j" width="10.6" height="18.9" transform="matrix(1 0 .1146 .9685 -4.3 -18.9)"/><use xlink:href="#k" width="4" height="5.5" transform="rotate(-96.566 .022 .025)scale(.9997)"/><use xlink:href="#k" width="4" height="5.5" transform="rotate(-90.476 -1.629 2.508)scale(.9984)"/><use xlink:href="#l" width="19" height="28.8" transform="matrix(1 0 -.0397 1.0002 -8.75 -30.15)"/><use xlink:href="#j" width="10.6" height="18.9" transform="translate(-14.7 -16.45)"/><use xlink:href="#m" width="4.2" height="8.3" transform="matrix(1.0461 -.0967 .0879 .9997 1.3 -27.25)"/><use xlink:href="#n" width="8.6" height="6.3" transform="matrix(1.2696 0 .1959 1.0045 -2.05 -26.15)"/><use xlink:href="#o" width="8.1" height="11.4" transform="matrix(1.0461 -.0967 .0879 .9997 -4.4 -29.05)"/></g></g><g clip-path="url(#aD)"><g transform="translate(2857.7 41.1)"><use xlink:href="#i" width="14.7" height="4.3" transform="matrix(.8 0 0 .8 -5.4 -1.8)"/><use xlink:href="#j" width="10.6" height="18.9" transform="matrix(1 0 .1146 .9685 -4.3 -18.9)"/><use xlink:href="#k" width="4" height="5.5" transform="rotate(-96.566 .022 .025)scale(.9997)"/><use xlink:href="#k" width="4" height="5.5" transform="rotate(-90.476 -1.629 2.508)scale(.9984)"/><use xlink:href="#l" width="19" height="28.8" transform="matrix(1 0 -.0489 1.0001 -8.55 -30.15)"/><use xlink:href="#j" width="10.6" height="18.9" transform="translate(-14.7 -16.45)"/><use xlink:href="#m" width="4.2" height="8.3" transform="matrix(1.0562 -.1213 .0834 .9996 1.8 -27.05)"/><use xlink:href="#n" width="8.6" height="6.3" transform="matrix(1.3371 0 .2185 1.0043 -1.45 -25.95)"/><use xlink:href="#o" width="8.1" height="11.4" transform="matrix(1.0562 -.1213 .0834 .9996 -4 -28.75)"/></g></g><g clip-path="url(#aE)"><g transform="translate(2915.7 41.1)"><use xlink:href="#i" width="14.7" height="4.3" transform="matrix(.8 0 0 .8 -5.4 -1.8)"/><use xlink:href="#j" width="10.6" height="18.9" transform="matrix(1 0 .1146 .9685 -4.3 -18.9)"/><use xlink:href="#k" width="4" height="5.5" transform="rotate(-96.566 .022 .025)scale(.9997)"/><use xlink:href="#k" width="4" height="5.5" transform="rotate(-90.476 -1.629 2.508)scale(.9984)"/><use xlink:href="#l" width="19" height="28.8" transform="matrix(1 0 -.0615 .9998 -8.3 -30.15)"/><use xlink:href="#j" width="10.6" height="18.9" transform="translate(-14.7 -16.45)"/><use xlink:href="#m" width="4.2" height="8.3" transform="matrix(1.0657 -.1506 .0792 .9997 2.25 -26.9)"/><use xlink:href="#n" width="8.6" height="6.3" transform="matrix(1.4045 0 .2417 1.0043 -.8 -25.65)"/><use xlink:href="#o" width="8.1" height="11.4" transform="matrix(1.0657 -.1506 .0792 .9997 -3.5 -28.45)"/></g></g><g clip-path="url(#aF)"><g transform="translate(2973.7 41.1)"><use xlink:href="#i" width="14.7" height="4.3" transform="matrix(.8 0 0 .8 -5.4 -1.8)"/><use xlink:href="#j" width="10.6" height="18.9" transform="matrix(1 0 .1146 .9685 -4.3 -18.9)"/><use xlink:href="#k" width="4" height="5.5" transform="rotate(-96.566 .022 .025)scale(.9997)"/><use xlink:href="#k" width="4" height="5.5" transform="rotate(-90.476 -1.629 2.508)scale(.9984)"/><use xlink:href="#l" width="19" height="28.8" transform="matrix(1 0 -.0397 1.0002 -8.8 -30.15)"/><use xlink:href="#j" width="10.6" height="18.9" transform="translate(-14.7 -16.45)"/><use xlink:href="#m" width="4.2" height="8.3" transform="matrix(1.0461 -.0967 .0525 1.0003 1.65 -27.2)"/><use xlink:href="#n" width="8.6" height="6.3" transform="matrix(1.2696 0 .16 1.0089 -1.35 -26.1)"/><use xlink:href="#o" width="8.1" height="11.4" transform="matrix(1.0461 -.0967 .0525 1.0003 -3.95 -29)"/></g></g><g clip-path="url(#aG)"><g transform="translate(3031.7 41.1)"><use xlink:href="#i" width="14.7" height="4.3" transform="matrix(.8 0 0 .8 -5.4 -1.8)"/><use xlink:href="#j" width="10.6" height="18.9" transform="matrix(1 0 .1146 .9685 -4.3 -18.9)"/><use xlink:href="#k" width="4" height="5.5" transform="rotate(-96.566 .022 .025)scale(.9997)"/><use xlink:href="#k" width="4" height="5.5" transform="rotate(-90.476 -1.629 2.508)scale(.9984)"/><use xlink:href="#l" width="19" height="28.8" transform="matrix(1 0 -.0182 1.0004 -9.15 -30.15)"/><use xlink:href="#j" width="10.6" height="18.9" transform="translate(-14.7 -16.45)"/><use xlink:href="#m" width="4.2" height="8.3" transform="matrix(1.0243 -.0455 .0262 1.0005 1.1 -27.55)"/><use xlink:href="#n" width="8.6" height="6.3" transform="matrix(1.1348 0 .0794 1.0076 -1.95 -26.5)"/><use xlink:href="#o" width="8.1" height="11.4" transform="matrix(1.0243 -.0455 .0262 1.0005 -4.35 -29.6)"/></g></g></svg>