<svg xmlns="http://www.w3.org/2000/svg" xmlns:xlink="http://www.w3.org/1999/xlink" width="23" height="51" viewBox="0 0 23 51"><defs><use xlink:href="#a" id="W" width="21.2" height="19.1"/><use xlink:href="#b" id="V" width="5.7" height="9.8"/><use xlink:href="#c" id="U" width="5.7" height="7.2"/><use xlink:href="#d" id="T" width="9.2" height="11.8"/><use xlink:href="#e" id="J" width="15.3" height="18.9"/><use xlink:href="#f" id="I" width="6.3" height="11.8"/><use xlink:href="#g" id="H" width="8.7" height="10.8"/><use xlink:href="#h" id="G" width="8.7" height="10.6"/><use xlink:href="#i" id="F" width="8.3" height="12.3"/><use xlink:href="#j" id="E" width="9.1" height="14.1"/><use xlink:href="#k" id="D" width="5.5" height="7.9"/><use xlink:href="#l" id="C" width="6.8" height="5.8"/><use xlink:href="#m" id="B" width="5.2" height="9.2"/><use xlink:href="#n" id="A" width="14.7" height="4.3"/><use xlink:href="#o" id="z" width="20.1" height="31.4"/><g id="a"><path fill="#a27733" d="M17.8 8.8q-.8 1.4-.7 2.9-3.2 1.6-5.8 1 2.1 2.8 1 5.2l-1.2.2-1.6-1-1-1.6Q7.2 12.3 8 9l3 1.3z"/><path fill="#dfb962" d="m17.2 11.7.2 1.7q1.4 1.6.4 3.1-2.5 1.2-5.6 1.5 1.2-2.5-.9-5.4 2.7.6 5.9-.9"/><path fill="none" stroke="#644520" stroke-linecap="round" stroke-linejoin="round" stroke-width="__RESOLUTION__" d="M17.8 8.8q-.8 1.4-.7 2.9 0 .8.3 1.7 1.4 1.6.4 3.1-2.5 1.2-5.6 1.5h-1.1m0 0-1.5-1-1.2-1.5" vector-effect="non-scaling-stroke"/><path fill="#f4e2c6" d="M18.1 12.8q.2-1.5-.3-2.7h1.4q.2 1.6-1.1 2.7"/><path fill="none" stroke="#845b1a" stroke-linecap="round" stroke-linejoin="round" stroke-width="__RESOLUTION__" d="M19.2 10.1q.2 1.6-1.1 2.7" vector-effect="non-scaling-stroke"/><path fill="#f4e2c6" d="M12.2 14q.2-1.4-.3-2.6h1.4q.1 1.5-1.1 2.6"/><path fill="none" stroke="#845b1a" stroke-linecap="round" stroke-linejoin="round" stroke-width="__RESOLUTION__" d="M13.3 11.4q.2 1.5-1.1 2.6" vector-effect="non-scaling-stroke"/><path fill="#6c4900" d="M9.6 10.9q4.8.3 7.5-1.5.9.4.8 1.5-3.2 2.4-6.6 2.2-1.7-1-1.7-2.2"/><path fill="#960" d="M11.3 13.1q-1.9 0-3.8-1-.7-.6-.3-1.5l2.4.3q0 1.2 1.7 2.2"/><path fill="none" stroke="#333" stroke-linecap="round" stroke-linejoin="round" stroke-width="__RESOLUTION__" d="M9.6 10.9q4.8.3 7.5-1.5.9.4.8 1.5-3.2 2.4-6.6 2.2-1.9 0-3.8-1-.7-.6-.3-1.5z" vector-effect="non-scaling-stroke"/><path fill="#960" d="m9 12.7.9-3 .9.4q-.6 1.6-.7 3.5zm1.5 1.7q-.2 2 .4 3.7.1.6-.2.9h-.5l.2-.3q-.6-2.8-.4-5.1z"/><path fill="#6c4900" d="m10.8 10 .6.3q-.8 2.1-.9 4l-.4-.7q.1-1.9.7-3.5zm-1.5 4.1h.2l.1.4v.4l-.2.2-.2-.2v-.4zm.5 2.7v.4l-.2.1-.2-.1-.1-.3v-.5l.2-.1.2.1z"/><path fill="#ca8800" d="M10.2 19q-.3.3-1-1.3-.7-2.4-.2-5l1 .9q-.1 2.3.4 5zm-.9-4.9v.7l.2.2.1-.2.1-.4-.1-.3-.2-.1zm.4 2.7v-.4l-.2-.1-.2.2v.4l.1.3.2.1.1-.1z"/><path fill="none" stroke="#333" stroke-linecap="round" stroke-linejoin="round" stroke-width="__RESOLUTION__" d="m9 12.7.9-3 .9.4.6.1q-.8 2.2-.9 4.1-.2 2 .4 3.8.1.6-.2.8l-.5.1q-.3.3-1-1.3-.7-2.4-.2-5" vector-effect="non-scaling-stroke"/><path fill="#806600" d="m10.9 16-.4.5H8.7l-.3-1q1.3.8 2.4.6"/><path fill="#fc0" d="M10.9 16q-1.2.3-2.6-.5l.3-.5q1 0 2.2.7.2.2 0 .4"/><path fill="none" stroke="#244142" stroke-linecap="round" stroke-linejoin="round" stroke-opacity=".4" stroke-width="__RESOLUTION__" d="m8.4 15.5.3 1h1.9l.2-.5v-.3Q9.6 15 8.6 15z" vector-effect="non-scaling-stroke"/><path fill="#bbd0dd" d="m18.2.3 1 .2q-.8-.1-1.2.6l-.7.5q2.4.8 3.6 2.7l.3.7-.5-.4-.2 1q-.4 2.1-1.9 3.5-2.4.4-4.5-1l-.2-.1q-.6-.1-1-.7.5-3.4 1.6-6.5l.6-.8q-.5 1.3-.2 1.9L15 3q1.2-1.8 3.2-2.7m0 2.7q-.8-.3-1.5 0-.9.3-1.7 1.6h.3q.3-.6 1.1-.7 1.3 0 1.3.7l.7 1q.6 1.2-.4 1.2-.1-1.6-1.1-2.1l-1.5-.1q1.3.7 1 2-.3.8-.9 0 .3-1-1-1l-.3 1.2q.2 1.3 2.4.6.9-.4 1.7.7 1.9-1.5 1.8-3.5-.8-1.2-2-1.6m-3.5 2.6.4-1zm-.4 1.2L13.9 8z"/><path fill="#d5e2ea" d="M18 1.1q2.2 1 3 3.2-1.3-2-3.7-2.7zm-5 6.2-.4-1q.3-3.2 2-5.5-1.2 3-1.7 6.5m2-5.4Q16.6.2 18.2.3q-2 .9-3.1 2.7z"/><path fill="#a0b0bd" d="M15.3 4.6H15q.8-1.3 1.8-1.6.6-.3 1.3 0 1.2.3 2 1.6 0 2-1.8 3.5-.8-1.1-1.8-.7-2.2.7-2.3-.7l.3-1.2q1.2.1 1 1.1.5.8 1 0 .1-1.4-1.2-2l1.5.1q1.1.5 1.2 2.1 1 0 .3-1.2l-.6-1q0-.7-1.3-.7-.9 0-1.1.6"/><path fill="none" stroke="#244142" stroke-linecap="round" stroke-linejoin="round" stroke-opacity=".4" stroke-width="__RESOLUTION__" d="m18.2.3 1 .2q-.8-.1-1.2.6 2.2 1 3 3.2l.2.7-.5-.4-.2 1q-.4 2.1-1.9 3.5-2.4.4-4.5-1l-.2-.1q-.6-.1-1-.7l-.3-1q.3-3.2 2-5.5L15 0q-.5 1.3-.2 1.9Q16.6.2 18.2.3m0 2.7q-.8-.3-1.5 0-.9.3-1.7 1.6h.3l1.6.1q1 .5 1.1 2.1m-2.5-.1q.3-1-1-1.1l-.3 1.2q.2 1.3 2.4.6M15 4.6l-.4 1M13.9 8l.3-1.3" vector-effect="non-scaling-stroke"/><path fill="#a0b0bd" d="M12.8 5.4v.3q2-1.6 4.4-.6-2.5.1-2.4.9 1 1.9.6 3.5-5 1.7-5.2-2.3.1-1.9 2.6-1.8"/><path fill="#bbd0dd" d="M12.8 5.4q-2.5 0-2.5 1.9.1 4 5.1 2.2l-.1.5q-1.8 1.5-3.8 1.2Q9 11 8.2 8.7l-.2-1 .1-.2q1.6-3.9 6.2-3.6-1.3.6-1.5 1.5"/><path fill="none" stroke="#244142" stroke-linecap="round" stroke-linejoin="round" stroke-opacity=".4" stroke-width="__RESOLUTION__" d="M15.4 9.5q.4-1.6-.6-3.5-.1-.8 2.4-.9-2.4-1-4.4.5v-.2q.2-.9 1.5-1.5Q9.7 3.6 8 7.5l-.1.2.2 1q.9 2.2 3.3 2.5 2 .3 3.8-1.1z" vector-effect="non-scaling-stroke"/><path fill="#a0b0bd" d="m11.6 6.5.5 1.3L12 9q-.2.8-1 1.2l-.2.2-.8.8-.1-1.4q.3-.4.2-1l.4.7q.5-.2 1-1.5zm-1.4 2.3q0 .6-.3 1-.6.6-2.6.5-1.4-.1-2.1 1.4-3-1.3-3.5-3.6.6-1.7 2-2.6L5.6 5Q7 5 8.4 6.5H8q-.5-.6-1.6-.4-1.8.5-1.6 1.2l-.5 1.5q-.5 1.5.9 1.3-.4-2 .7-2.9.8-.5 2-.7-1.5 1.3-.8 2.8.8.8 1.3-.2-.6-1.1 1-1.6z"/><path fill="#bbd0dd" d="M10 11.2Q7.8 12.7 5 13q-2.4-1.1-3.6-3.5L.9 8.3l-.7.5V8q1.2-2.7 4.1-4.3l-.9-.5L1.5 3l1.2-.7q3 .5 5.1 2.3l-.1-1.3q.2-.8-1-2.3l1.2.8q2 2.6 3.5 6.2-.4 1.3-.9 1.5l-.4-.7-.7-1.3Q7.7 8 8.4 9q-.5 1-1.3.2-.7-1.5.8-2.8-.5-.6-1.6-.4-1.7.5-1.5 1.2l-.5 1.5q-.5 1.5.9 1.3-.4-2 .7-2.9.8-.5 2-.7h.5Q7 5.2 5.5 5l-1.8.4q-1.4 1-2 2.7.5 2.3 3.5 3.6.7-1.5 2.1-1.4 2 .1 2.6-.5zM8.4 6.5l1 1z"/><path fill="#d5e2ea" d="M.3 8q.4-3 3.1-5l1 .5Q1.3 5.3.3 8m2.5-5.7q2.2-.6 4.9 1l.2 1.3Q5.7 2.8 2.8 2.3m5-.5q2.5 1.8 3.8 4.7L11.5 8Q9.9 4.4 7.9 1.8"/><path fill="none" stroke="#244142" stroke-linecap="round" stroke-linejoin="round" stroke-opacity=".4" stroke-width="__RESOLUTION__" d="m11.6 6.5.5 1.3L12 9q-.2.8-1 1.2l-.2.2-.8.8Q7.8 12.7 5 13q-2.4-1.1-3.6-3.5L.9 8.3l-.7.5V8q.6-3 3.3-4.8l-2-.2 1.3-.7q2.2-.6 4.9 1 .2-.8-1-2.3l1.2.8q2.3 1.8 3.7 4.7m-1 3-.5-.7q.1.6-.2 1-.7.6-2.6.5m-2.2-.2q-.3-2 .8-2.9.7-.5 2-.7h.5Q7 5.2 5.5 5l-1.8.4m6.5 3.4-.8-1.4q-1.6.5-1 1.7m1-1.6-1-1" vector-effect="non-scaling-stroke"/><path fill="url(#p)" d="M2-6.1q2-1.4 4.7.7 2.6 2 2.9 4.2.4 2.2.2 3-3.9.8-6.5-3.9-.7-1.3-1.3-4" transform="translate(11.2 12.95)"/><path fill="#000" d="M13.2 6.9q.6 2.6 1.3 4 2.6 4.6 6.5 3.8-.3 1-1.2 1.5-2 .9-3.7-.8-.9-2.8-3.6-4.7-1-.7-.7-1.7.4-1.5 1.4-2.2"/><path fill="none" stroke="#000" stroke-linecap="round" stroke-linejoin="round" stroke-width="__RESOLUTION__" d="M21 14.7q.1-.8-.2-3t-3-4.2q-2.5-2.1-4.6-.7-1 .7-1.4 2.2-.3 1 .7 1.7 2.7 2 3.6 4.7 1.7 1.7 3.7.7.9-.4 1.2-1.4" vector-effect="non-scaling-stroke"/><path fill="#fc0" d="m1.7 3.8.6-.3q.8.4 1.5 1.7l-.1.3q-1.2-.3-2-1.7"/><path fill="#806600" d="M1.7 3.8q.8 1.4 2 1.7l-.6.3-1.5-1q-.1-.6.1-1"/><path fill="none" stroke="#244142" stroke-linecap="round" stroke-linejoin="round" stroke-opacity=".4" stroke-width="__RESOLUTION__" d="M3.7 5.5v-.3Q3.2 4 2.4 3.5l-.6.3q-.3.4-.1 1l1.5 1q.4-.1.5-.3" vector-effect="non-scaling-stroke"/><path fill="#806600" d="m2.5 7.1-.3.4H.4l-.4-1q1.4.8 2.5.6"/><path fill="#fc0" d="M2.5 7.1q-1.1.2-2.5-.5L.3 6q1 0 2.2.8z"/><path fill="none" stroke="#244142" stroke-linecap="round" stroke-linejoin="round" stroke-opacity=".4" stroke-width="__RESOLUTION__" d="m0 6.6.4.9h1.8l.3-.4v-.3Q1.3 6 .3 6z" vector-effect="non-scaling-stroke"/><path fill="#fc0" d="M.8 9.9v-.6q.7-.6 1.9-.6l.2.3q-.8.8-2.1.9"/><path fill="#806600" d="M.8 9.9q1.3-.1 2.1-1l-.1.6-1.4 1z"/><path fill="none" stroke="#244142" stroke-linecap="round" stroke-linejoin="round" stroke-opacity=".4" stroke-width="__RESOLUTION__" d="m2.9 9-.2-.3q-1.2 0-1.9.6v.6l.6.6 1.4-1z" vector-effect="non-scaling-stroke"/></g><g id="b"><path fill="#a27733" d="M5.5 0q.4 2.6.2 3.8-.5 2.1 0 3.8l-1.4.2q-.6-2.1-.4-4.7Q4.1.8 3.6 0z"/><path fill="#c69e44" d="M3.6 0q.5.8.3 3-.2 2.7.4 4.8l-2 2Q1 8.5.6 6L0 2.1q-.3-.9.4-2z"/><path fill="none" stroke="#644520" stroke-linecap="round" stroke-linejoin="round" stroke-width="__RESOLUTION__" d="M5.7 7.6q-.5-1.7 0-3.8.2-1.2-.2-3.8M2.3 9.9Q1 8.5.6 5.9L0 2.1q-.3-.9.4-2" vector-effect="non-scaling-stroke"/><path fill="#4a4946" d="M5.6 5.5v1.7Q3.3 6.9.7 8.4L.6 7q2.7-1.7 5-1.5"/></g><g id="c"><path fill="#a27733" d="m2.8.4.7.1q.6.8.8 2v.1l.7 1 .6.9-.2 1.3-1 .6-.1.2q0 1-1.4.3l-.3-.2q-.6-1 0-1.9-.3-2.3.1-4.4"/><path fill="#c69e44" d="M2.8.4q-.5 2.1-.2 4.4-.6.9 0 1.9 0 .6-1.3-.3L1.2 6l-.7-.4-.4-1.2q-.2-.8.1-2Q1.9.6 1.7 0z"/><path fill="none" stroke="#644520" stroke-linecap="round" stroke-linejoin="round" stroke-width="__RESOLUTION__" d="m2.6 6.7.3.2q1.4.7 1.4-.3l.1-.2h0l1-.6h0l.3-1.3q-.4-.2-.6-1l-.7-.9-.1-.2Q4 1.3 3.5.6M1.6 0Q1.7.6.3 2.4q-.4 1.2-.1 2H0l.4 1.3.7.4.2.4q1.2.8 1.2.2" vector-effect="non-scaling-stroke"/></g><g id="d"><path fill="#764d3d" d="M4.9 1.3q1.5-.4 2.5.5-.2 1.6-2.3 3.8-1.5 1.7-.4 4 .1.2-1.1.5Q1.4 9.9.9 7.2q1-1 1.7-3.2T4 1.4z"/><path fill="#3d271f" d="m7.4 1.8 1 1.3q.8 6.3-1.5 8.1l-1.1.4q-2.6.5-4.1-.4l-.8-.6Q-.9 9 .9 7.3v-.1q.5 2.7 2.7 2.9 1.2-.3 1.1-.5-1.2-2.4.4-4 2.1-2.3 2.3-3.8"/><path fill="none" stroke="#765434" stroke-linecap="round" stroke-linejoin="round" stroke-width="__RESOLUTION__" d="M8.4 3.1q.8 6.3-1.5 8.1l-1.1.4m-4.1-.4-.8-.6Q-.9 9 .9 7.3v-.1q1-1 1.7-3.2T4 1.4l.8-.1" vector-effect="non-scaling-stroke"/><path fill="#b5c5cc" d="M1.8 4.4Q.5 3 3.8 1.2 3.1.1 5.5 0q-1.8.7-1 2.5-2.8-.2-2.7 2z"/><path fill="#a0b0bd" d="m5.5 0 3 .6q1.3 3.5.1 6.2-.3-1.5-3-1.3-2.6.2-3.8-1-.1-2.2 2.7-2Q3.6.7 5.5 0"/><path fill="none" stroke="#000" stroke-linecap="round" stroke-linejoin="round" stroke-opacity=".3" stroke-width="__RESOLUTION__" d="M1.8 4.4Q.5 3 3.8 1.2 3.1.1 5.5 0l3 .6m.1 6.2q-.3-1.5-3-1.3-2.6.2-3.8-1" vector-effect="non-scaling-stroke"/></g><g id="e"><path fill="#a27733" d="M.3 6.2v-3q1.3-2 2.6-2.3 8.5-1.9 9.5.2t1 4.6-.6 3.4l.2 1H2Q1.2 8 .1 6"/><path fill="#e4c89a" d="M.3 6.2Q1.3 8 1.9 10 1.3 8 .3 6.2"/><path fill="none" stroke="#644520" stroke-linecap="round" stroke-linejoin="round" stroke-width="__RESOLUTION__" d="m13 10-.2-1" vector-effect="non-scaling-stroke"/><path fill="#a0b0bd" d="M13.9 15q1 .5.3 2l-.8.8q-.6.9-2 .6-2.5 1.1-4.5 0-2.6-.1-3.8-1.5-.5-.4 0-1.6.5-.8 2.6.6.6-.6 3 .5.2-.7 3.2-.5-.2-.8 2-1m-2 1q0 .9 1.5 1.9-1.5-1-1.5-1.9m-5 2.5q-2-1-1.2-2.5-.8 1.5 1.2 2.5m4.5 0q-2-.4-2.6-2 .6 1.6 2.6 2"/><path fill="none" stroke="#000" stroke-linecap="round" stroke-linejoin="round" stroke-opacity=".3" stroke-width="__RESOLUTION__" d="M13.9 15q1 .5.3 2l-.8.8q-.6.9-2 .6-2.5 1.1-4.5 0-2.6-.1-3.8-1.5-.5-.4 0-1.6.5-.8 2.6.6.6-.6 3 .5.2-.7 3.2-.5-.2-.8 2-1m-.5 2.9q-1.5-1-1.5-1.9m-6.2 0q-.8 1.5 1.2 2.5m1.8-2q.7 1.6 2.7 2" vector-effect="non-scaling-stroke"/><path fill="#764d3d" d="m10.5 6 .5-1q.9-1.8.5-4.5 2.2 1.7 2.8 5-1 3.5.6 8 .5 1.6.4 2-.2.6-1.6.4l-.3.1q.7-2.4-1.5-2.5.7-1 1-2.4-2.7 1.4-3.3-.5-.4-1.5.5-3.6zM7 15.6q-4.4.1-4.2-1 3.3.2 6.7-2.3z"/><path fill="#e8c682" d="M10.5 6 10 7z"/><path fill="#3d271f" d="M10 7q-.8 2.2-.4 3.6.6 1.9 3.3.5-.3 1.4-1 2.4 2.2 0 1.5 2.5-5.2 2.9-10.3.9-1.2-1.6-.2-2.3.2-1.3-.3-2.2l-1-1.8q-3-8 .4-9.5 2.4-1 8 5.8zm.9 7.5 1-1zm-8 0q-.3 1.1 4.2 1l2.5-3.3q-3.4 2.5-6.7 2.4"/><path fill="none" stroke="#765434" stroke-linecap="round" stroke-linejoin="round" stroke-width="__RESOLUTION__" d="m13.4 16 .3-.1q1.4.1 1.6-.4l-.4-2q-1.6-4.5-.6-8-.6-3.4-2.8-5Q11.9 3 11 5l-.5 1-.5 1Q4.4 0 2 1q-3.4 1.4-.3 9.5l.9 1.8q.4.9.2 2.2-1 .7.2 2.3 5.1 2 10.4-.9m-.5-4.9q-.3 1.4-1 2.4l-1 1m-3.8 1q-4.4.1-4.2-1" vector-effect="non-scaling-stroke"/><path fill="#a0b0bd" d="M14.6 4q-1.1 2.4-4.2 3.2Q2.9 7.1.1 5.4-.3 1.8 2 .7 6 0 10.6 3L13 .8z"/><path fill="none" stroke="#000" stroke-linecap="round" stroke-linejoin="round" stroke-opacity=".3" stroke-width="__RESOLUTION__" d="M14.6 4q-1.1 2.4-4.2 3.2Q2.9 7.1.1 5.4" vector-effect="non-scaling-stroke"/></g><g id="f"><path fill="#a0b0bd" d="m3.3 10.3-.7.8h-.1l-.7.7q-.2.2-.4-.7-.3-1.2-.9-1.8Q.3 7.9.4 6.4l.2-1.8Q.6 3 0 2.5L1.2 2h.4q4-1 4.5-2 .4 2.1-.7 7-.2 0-1 1.4z"/><path fill="none" stroke="#000" stroke-linecap="round" stroke-linejoin="round" stroke-opacity=".3" stroke-width="__RESOLUTION__" d="M0 2.3q.6.7.6 2.3L.4 6.4Q.3 7.9.6 9.2q.5.6.9 1.8.2 1 .4.8l.7-.7V11l.7-.7 1.2-1.9Q5.2 7 5.4 7q1.1-4.9.8-7" vector-effect="non-scaling-stroke"/><path fill="#bbd0dd" d="M5.3 1.6v2.6L3.9 5.9 4.3 3zM1.9 8.2l-.4-3.8 1.4 1.8v3.6z"/></g><g id="g"><path fill="#c8e0e1" d="M6.2 2.1q.6-.3.8-1-.1.5.1.7l.6-.3.4-.3-.2.3-.8.5-.3-.3q-.4.6-1.3 1L5 1.8h-.7v-.2h.2l.2.1q.3 0 .4-.4l.1.7.1.2.1.2h.1zm-4.4-1 .5.5h.2v.2l-.7-.5zm1.4.6v-.5l.7.4v.1l-.5-.2V2H3v-.1h.2zm4.7 4.6-.7-.9q0-.5.3-.3l.3.1q.4.3.4.8v.2q0 .5-.3.2m-2.2-.9q.8.4 1 1l.2.3q.2.9-.5.4L4.9 6q-.3-.6.4-.6zM2 5.4q.3 0-.1.4l-.9.6q-.4.2-.3-.2l.2-.3q.3-.3.7-.4l-.2.3.4-.1.1-.3z"/><path fill="url(#q)" d="m2.8-2-.5.4q-.2-.2-.1-.6-.3.6-.9.9 0-.5-.3-.2l-.2.1L.7-2q-.3-.1-.3.7L.2-2q0 .5-.4.5V-2q-.2-.2-.2.1H-1l-.6-.4v.6l-.2-.4-.1.3-.3-.2-.1-.5-.3.1.1.3q.1.1 0 .1l-.6-.5q.6-.2.7-.5l.3.4q.6 0 .9-.3l.5.5H0l.8-.2q0 .2.6.4.6-.2.7-.5zM.6-1l-.2-.2.1-.2q.2-.1 0 .4m1.2-1-.2.1v.3l.1-.2zm-2.9-.3v-.2zv.2zm-1 .3.2-.1v-.2l-.1.2z" transform="translate(4.85 3.4)"/><path fill="#5b0000" d="m6.2 2.1-.6.4-.2-.1q.2-.5 0-.4l-.1.2-.1-.3q0-.7.4-.6l.1.7.2-.2q.2-.3.3.3m-1.5-.4h-.2q0-.4.1-.2zm-2.4-.1q.2 0 0-.2v-.2l.2-.2.2.6h.2l.2-.2.1.4v.1H3l-.5-.2zm4.2-.3v.3l-.2.2v-.3zm-2.8-.2-.2.2v-.2l.1-.2zm-1 .3.1-.2q.1 0 0 .2z"/><path fill="#ce0000" d="M4.3 1.7h-.4v-.1zm-1.8 0 .6.2V2zm-.9 3.8H2l-.1.3q-.3.1-.4 0z"/><path fill="url(#r)" d="M-.6-1.6h.8l.5.9q.9-.4 1.3-1 0 .2.3.3L3-2Q2-.2 1.8 1.3l-.5.1q-.3.1-.5.4l-.5-.1h.5l.7.4.9 1v1.6l-.5.6-.2-.2q-.4.3-.3.5-1 .5-2.2-.4-.6-1.2 0-3l.3-.3-.4.3q-.3-.1-.3-.8l-.4.8q0 1.2-1 2.3-1.3.9-2-1l.3-.7q.4-.8 1-.9.5-.2 1.1 0-.5-.5-.4-1.7l-.3.4.3-1.5Q-3-1.3-3-2.1l.7.5v1.2l.2-.3q-.3 2.1 0 1.4l.4-2.1h.3v-.5l.5.2q0 .9-.3 1.8 0 .7.4 0zM.9 2H.5q-.8 0-.4.6l1.5 1.2q.6.5.5-.4L1.9 3q-.2-.6-1-.9M-1.9 2l-.3-.1zm0-1.4q.2 0 .2-.3l.1-.5-.2.3zm-1.3 1.5q-.4 0-.7.4l-.3.3q-.1.4.3.2l1-.6q.3-.3 0-.4h-.3zM0-1.3V.1l.3-.4z" transform="translate(4.85 3.4)"/><path fill="#a7cdd1" d="m7 .9-.7.5q-.6-.2-.6-.5l-.8.3L4 1 3.6.6q-.3.4-.9.3L2.5.5q-.1.4-.7.6L1.6.9q.6-.2.7-.8l.7.6.5-.4.1-.3.8 1q.8 0 1.2-.5l.6.6q.4 0 .4-.7z"/><path fill="#a3cdcf" d="m1.6.9.2.2v.1L1.3.8 1.2.4z"/><path fill="url(#s)" d="M3 3q.4.3.4-.2v-.2q0-.5-.4-.8l-.3-.2q-.4-.1-.3.4zM1.5 2q-.2-.2-.1-.7l.4-.1q.6-.2 1.5.6.7.8.4 2.1-.8.6-1.3-.3v-.5z" transform="translate(4.85 3.4)"/><path fill="#a0b0bd" d="m6.4 5.5-.8-.3.6-.4q-.1.5.1.7m1 1.6q.5.9 1.3.3v.2l-.1.3q-.5 0-.8.4h-.5l-.1.3v.3L6.5 10l-.2.1-.1-.2-1.3-.2-.8.2q.5-.4.2-.8h-.5l-.2-.4q-.2-.5-.4-.2-.1-1.2.5-2.6l.3-.4-.3.4Q3 7.3 3.2 8.6v.2q-.5.2-1-.3-.4-.2-.4.4l-.5-.1H.6q0-.6-.6-.5L.2 7q.7 1.9 2 1 1-1.1 1.1-2.4l.4.5-.4-.4.4-.8q0 .7.3.8-.6 1.8 0 3 1.2.9 2.2.4 0 .4.2.4l.2-.2.1-.4v-.1l.5-.6v.2V8zm-2.5-5 .3 1-.3.4z"/><path fill="#963" d="m7.1 8.6.1-.2.4-.2.6.1-.1.4zM6.2 10q-1.4-.1-2.2.5v-.1q-.2-.3.1-.5l.8-.2zM.6 8.8h.6l.5.1q.8.2.8.7l-.1.2q-.6-1-2.1-.6z"/><path fill="#6c4824" d="M7.1 8.6h1L7 9zm-1.2 2.1q-.1-.3-.5-.3-.6.1-.5.4h-.2l-.7-.3q.8-.6 2.2-.6l.1.3q0 .3-.5.5M.3 9.3q1.5-.5 2.1.4l-1 .1q-1-.2-1.1-.6"/><path fill="#afb9a4" d="M8.2 8.3h-.5q.2-.4.7-.4zm-1.5.4v.5l-.3.2q-.2 0-.2-.4zm-3.5-.1q.2-.3.4.2l.1.4h.5q.4.4-.1.8-.3.1-.2.4-.5-.5-.7-1.4v-.2q-.5.2-1-.2-.4-.2-.4.3.7.2.8.7l.7-.6-.1-.2zM0 8.4q.6-.2.6.4l-.3.3-.2-.3z"/><path fill="#c6cdbe" d="m6.7 8.7-.5.3q-.1-.3.4-.6z"/><path fill="#849373" d="M5 10.8q-.2-.2.5-.4.3 0 .4.3h-.1z"/><path fill="url(#t)" d="m-3.5-2.7.4.6q0 .8.6 1.2L-2.8.6l.2-.4q0 1.2.4 1.7-.5-.2-1 0v-1q0-.8-.5-1.6l.5.4z" transform="translate(4.85 3.4)"/><path fill="#900" d="M3.9 1.8h.4l-.4 1.7q-.3.7-.3 0zm-.8.2-.5 2.1q-.3.7 0-1.4l-.2.2V1.7zm-.2 2 .1-.5.3-.3-.1.5z"/><path fill="none" stroke="#000" stroke-linecap="round" stroke-linejoin="round" stroke-opacity=".4" stroke-width="__RESOLUTION__" d="m7.7 1.5-.6.3q-.2-.2-.1-.7-.2.6-.8 1l-.6.3h-.2L5.3 2h-.1l-.1-.6q-.1.4-.4.4h-.4l-.4-.1-.7-.5V2h-.1l-.6-.3h-.2L1.8 1h-.2q.6-.2.7-.8l.7.6.5-.4.1-.3.8 1q.8 0 1.2-.5l.6.6q.4 0 .4-.7l.3.5zl.5-.4-.2.4Q6.8 3.2 6.6 4.7l-.4.1q-.4.1-.6.4L5.2 5m.4 0 .8.4.8 1v1.8h1l-.1.4-1 .2v-.3l.1-.2m1.3-1q.3-1.3-.4-2.1-.8-.9-1.5-.6m1.8 3.2.1-.4v-.1m-.3.9.3-.4m-2.2 2.3.2-.1.6-1.3m-1.2 1.9q.4-.1.4-.5l-.1-.2-1.3-.3-.8.3q-.2.1-.1.3v.2l.8.3H5l.8-.1zM1.5.9 1.2.4l.1.2.4 2.6-.5-.5q.4.8.5 1.5l-.1 1.1q.5-.2 1 0l.3.1m1.1.2-.3.4Q3 7.3 3.2 8.6v.3q.2 1 .7 1.4M4 5.6l.3-.3m-.6.7-.4-.4M.2 6.9 0 8.3v.5l.3.3.3-.3h.7l.5.1q.7.2.8.7l-.2.2h-1q-1-.2-1.1-.6v0m1.3-3.9q-.6.1-1 .9l-.4.7m2.4 2.7.7-.6" vector-effect="non-scaling-stroke"/><path fill="#974000" d="M6.4 4.3V4l.4-.3.1.1zm-1.2.3-.1.3L4 5h-.2l.2-.1.3-.1zm-4 .2L.9 5q-.2.3-.2 0l.5-.5q.2 0 0 .3M1 4.4H.6L1 4q.3 0 .4.2zm.4.1h.2zm.9.3.3.1-.2.1z"/><path fill="#5a9700" d="m6.5 4-.1.3-1.3.6v-.3zm-3.8.9H4l-.2.1H2.5z"/><path fill="#600" d="m6.4 4.3.5-.5q.1.2-.2.5l-.6.4zm-1.3.6-.6.2h-.6L4 5h.2zM2.5 5h-.7v-.4l.6.2V5zm-1-.4H1l.1-.2.1-.1H1q-.1-.1.2-.1l.2.2h.1z"/><path fill="#406a00" d="m5 4.9 1.4-.6-.3.4zM3.9 5H2.5zm-2-.1h-.2q-.2-.1-.1-.3l.1-.1h.2z"/><path fill="#974000" d="m7.1 3.6.5-.2.3.2-.5.1zm.2.2.4.4-.1.2-.3-.3q-.2-.2 0-.3m-5.8 0v-.2l.5.3v.3zm1.7.6h1.1l.1.3-.1-.1h-1zm2.6-.1.3-.1-.2.3h-.1zm1-.4v-.2l.2.1z"/><path fill="#600" d="M7.4 3.7h-.2v.1q-.2.1.1.3L7 4h-.2v-.2H7l.1-.2zm-.8.7-.6.3-.2-.2h.1l.2-.3.5-.2q.2.2 0 .4m-2.1.4h-.6l-.6-.1v-.1h1.1zm-2.2-.3-.6-.3-.2-.4.5.4z"/><path fill="#406a00" d="m6.9 4-.1.3-.2.1q.2-.2 0-.4zm-1 .6-1.4.1h-.1l1.4-.3zm-2.6.1-1-.2-.3-.3 1.3.4z"/><path fill="#5a9700" d="m2 3.9 1.2.5v.1L2 4.1zm2.3.5 1.5-.1v.2l-1.4.2z"/></g><g id="h"><path fill="#a7cdd1" d="M.5 1q.6-.2.6-.8l.7.5.5-.4V0l1 1q.9 0 1.2-.6l.7.5q.4-.1.3-.7l.4.4-.6.6-.7-.4-.8.3h-.7Q2.7.9 2.5.6q-.2.4-.8.4L1.3.6q0 .4-.6.6z"/><path fill="#a3cdcf" d="m.5 1 .2.2v.2L.3.9 0 .5z"/><path fill="url(#u)" d="M-3.3.5q.6-.2.6-.6l.4.4q.6 0 .8-.4.2.3.6.5t.7 0L.6 0l.7.4.6-.6.8.6-.5.4-.3-.7q-.1.6-.6 1Q1.1.7 1 1l-.1.2L.5.5Q.4.2.4 1L.1.5Q0 1-.2 1L-.3.6q-.3.1-.2.4H-1l-.7-.4v.6l-.1-.4q-.3 0-.2.3t-.2-.1l-.2-.5q-.2-.1-.2.2v.2q.2.2 0 .2zm4.8 0-.1.1v.3l.2-.2zm-1 1-.1-.2.1-.1zm-2-1.1v.2l.1-.2-.1-.2zm-.8.3.2-.1-.1-.2z" transform="translate(4 .7)"/><path fill="#c8e0e1" d="M6.7 1.2 7 .7l-.1.4-.8.5-.3-.2-1.2 1-.7-.8h-.7v-.1h.4q.3 0 .3-.4l.3.6.1.2.1.2.2.1.6-.4q.5-.4.7-1l.2.6zM3 1.7l-.6-.2v.6h-.2v-.2h.1v-.2l-.1-.5.7.3zm-1.4.2-.8-.5-.1-.2.7.5h.2zm3.9 3.4q.8.3 1.2.9l.2.2q.3.9-.5.5l-1.7-1q-.4-.7.2-.7zm1.7-.6.3.2.5.7.1.2q0 .5-.3.2l-.9-1q-.1-.4.3-.3m-5.6.8q.4 0 .1.3l-.8.8q-.4.1-.3-.2L.7 6l.6-.5-.1.3.3-.1z"/><path fill="url(#v)" d="M3 .5q-.8 1.7-.8 3.3h-.4l-.5.5H.8h.5l.8.3 1 .9.2.6.1.9-.4.7-.2-.2q-.4.3-.2.5-1 .6-2.3-.3-.7-1-.6-2.9-.3-.1-.4-.7l-.2.7q0 1.3-.7 2.4-1.1 1-2.2-.8l.2-.8q.3-.7.9-.9l1-.1q-.5-.5-.7-1.6l-.1.4q-.2-.5 0-1.5-.6-.4-.7-1.2l.8.5q0 1.5.1 1.1l.2-.3q0 2.2.3 1.5V1.4h.2V.8l.5.2v1.8q.1.6.3 0L-.7 1h.8l.7.9L1.9.8l.3.2zm-4.4 4.2-.2-.1zm1.6-2 .2-.5-.5-.9zm1.3 1.9L1 4.5q-.7 0-.3.7l1.7 1q.8.4.5-.4l-.2-.3q-.4-.6-1.2-.9m-3-2.1-.2.3.1.5q.2 0 .2-.3zm-1.2 2.4-.6.5-.2.3q0 .3.4.2l.8-.8q.3-.3-.1-.3v-.1zM0 4.5l-.3.3z" transform="translate(4 .7)"/><path fill="url(#w)" d="M2.2 3.8q.7-.3 1.6.4.9.8.9 2Q4 7 3.3 6l-.2-.5-1-1q-.3-.2-.3-.7zm1 .2q-.4-.1-.3.4l.9.8q.3.4.3-.2L4 4.9l-.5-.7z" transform="translate(4 .7)"/><path fill="#a0b0bd" d="m8.7 7-.1.4q-.5 0-.7.4l-.5.1v.5L7 9.7l-.1.2-.2-.3H5.4l-.8.2q.4-.5 0-.8h-.5L4 8.6q-.4-.4-.6 0-.3-1.3 0-2.7l.3-.4q-.2 1.8.6 2.9 1.4.8 2.3.2l.3.5.1-.3v-.4l.4-.7V8v-.3l-.1-1q.7.9 1.4.2M.3 8.6.2 7.1q1 1.8 2.2.8.8-1.2.7-2.4l.2-.7q.1.6.4.7l-.2.5q-.3 1.3 0 2.6v.2l-1-.3Q2 8.5 2 9l-.5-.1H.9q-.2-.5-.6-.4m3.9-5.1L3.9 2l.5.9zM6 5.3 5.3 5q.2-.3.5-.4 0 .4.3.7m-3 .2.3.5z"/><path fill="#afb9a4" d="m8.6 7.5-.1.4h-.6q.2-.4.7-.4m-4.1 2.7-1-1.3-.5.6Q2.9 9 2.1 9q-.1-.5.4-.4l1 .2v-.2q.2-.3.5.1V9h.6q.3.3 0 .8-.3.1-.2.4M.6 9.3.4 9l-.2-.5q.5-.1.7.5zm6.4-1v.4l-.1.3-.4-.4zM3.4 9"/><path fill="#963" d="m8.5 7.9-.2.3h-.9V8l.5-.1zm-3.9 2.4q-.1-.2.1-.4l.8-.3 1.3.1q-1.5.1-2 .7M3 9.6l-.1.2Q2 8.9.6 9.4l-.1-.1.3-.3.6-.1H2q.7.2.9.7"/><path fill="#6c4824" d="M8.3 8.2q-.2.3-1 .3l.1-.2zM6.8 9.9l-.3.5q-.1-.3-.4-.2-.6.2-.5.4h-.2l-.8-.2q.6-.7 2.1-.7zm-4-.1h-1q-1 0-1.2-.4 1.5-.5 2.3.4"/><path fill="#849373" d="m6.5 10.4-.8.2q-.1-.2.5-.4.3-.1.4.2"/><path fill="url(#x)" d="m-2.7 4.7-.1-1q-.2-.8-.8-1.5l.6.4q-.2-1.1-.8-2.4l.5.5q.2.8.7 1.2v1.5l.2-.4q.2 1.1.8 1.6z" transform="translate(4 .7)"/><path fill="#5b0000" d="M5.5 1.2v.2l-.1.2zm-.2.7-.6.4-.2-.1v-.3l-.1.1-.1-.2q0-.8.3-.6l.3.7.1-.2q.1-.4.3.2m-1.5-.2-.2-.1q-.2-.3 0-.2zM2.5 1l.1.2-.1.2zm-.8.3V1l.2.2zm-.3.2q.1 0 0-.1l-.1-.3q0-.2.1-.1l.3.5.3.1q-.2-.3 0-.2l.2.2.1.3h-.1l-.7-.3z"/><path fill="#ce0000" d="m3.4 1.6-.1.1H3l-.1-.1zm-1.8.2.5.1v.2zm-.3 3.8.3-.2-.1.3-.3.1z"/><path fill="#900" d="M3.3 1.7v1.8q-.2.6-.4 0V1.7zm-1.1.4v2q-.3.8-.3-1.4l-.2.3q-.1.4-.1-1.1zm.3 1.1v.4l-.1.4v-.5z"/><path fill="#c6cdbe" d="M6.6 8.7q-.2-.2.2-.5l.2.2z"/><path fill="none" stroke="#000" stroke-linecap="round" stroke-linejoin="round" stroke-opacity=".4" stroke-width="__RESOLUTION__" d="M5.9.6 5.4.2q.2.6-.2.7L4.5.4q-.3.5-1.1.6l-1-1-.1.3-.5.4-.7-.5Q1 .8.5 1l.2.2.7.4.2.1.5.2h.2v-.2l-.1-.5.7.3.5.1h.4q.3 0 .3-.4l.2.6.1.2.2.2.1.1.6-.4q.5-.4.7-1l.2.6.5-.4zm.7.6.5-.4-.1.4q-1 1.6-.9 3.2.7-.4 1.6.4.8.7.8 2v.6l-.2.3-.1.4q-.2.3-1 .3L7 9.7l-.1.2-.4.5h-.1l-.8.1h-.2l-.7-.2-.2-.1-1-1.3-.5.6-.1.2-1 .1Q.8 9.8.7 9.4l-.1-.1L.4 9l-.2-.5V7.1l.2-.8q.3-.7.9-.9l-.2-1Q1 3.6.3 2.8l.7.4Q.8 2.2.2.9L0 .6l.5.5m1.9 4.2.2.1m2.7-.5h-.5m1-.4-.5.4.8.3 1 1 .2.5.1 1V8l.5-.1h.6M5.8 4.4h.4M7.4 8v.5m-3.7-3-.2.5q-.3 1.3 0 2.6v.2m1.2 1 .7-.3 1.3.1.2.3m-2.4.3q-.1-.2.2-.4m-1-4.3.3-.3m-.5.8L3 5.5m-1.8-.1 1-.1M2 8.9H.9l-.3.4m2.4.2Q2.9 9 2.1 9" vector-effect="non-scaling-stroke"/><path fill="#974000" d="m5.9 3.8.4-.4v.1l-.4.6zM.7 4.9l-.2.3-.1-.1.4-.4q.2 0-.1.2m-.1-.4H.2l.2-.3.5.2zm.4 0h.2zm1 .3h.3l-.1.2H2zm1.7 0 .3-.1.8-.2-.1.2-1 .3h-.1z"/><path fill="#5a9700" d="M5.9 3.8V4l-1.2.6v-.2zm-3.6 1h1.4l-.1.2H2.2z"/><path fill="#600" d="m5.9 4 .5-.5-.2.5-.5.4zm-1.2.8L4 5l-.6.1V5h.2l1-.3zM2 5.2l-.6-.1-.1-.4.6.1.1.2zm-1-.4-.3.1q.3-.2 0-.2l.1-.1-.2-.1.3-.1.1.2h.2z"/><path fill="#406a00" d="m5.7 4.4-1 .4v-.1l1.2-.6zm-2.2.7L2 5.2V5h1.4zm-2 0h-.2L1 4.8l.1-.1h.2z"/><path fill="#974000" d="m6.5 3.4.4-.3q.4 0 .3.3h-.4zm.2.2q.4.1.5.4H7l-.2-.2q-.3-.3-.1-.3m-5.8.3v-.2l.5.3v.3zm1.8.5h1.1l.2.2H2.8zM5.2 4h.3l-.1.2zm1-.4v-.2h.2z"/><path fill="#600" d="m6.8 3.4-.2.2q-.2 0 .1.2h-.5v-.2h.2v-.3zm-.7.8-.6.3-.2-.2h.1l.1-.2.5-.3q.2.2.1.4m-2 .5H2.8v-.1h1.1zm-2.4-.1-.6-.2-.3-.5.6.4z"/><path fill="#406a00" d="m6.4 3.9-.2.2-.1.1q.2-.3 0-.4h.1zm-1 .6-1.3.2-.1-.1 1.3-.3zm-2.6.2-1-.1-.4-.3z"/><path fill="#5a9700" d="m1.4 4 1.3.4v.2l-1.3-.3zm2.4.4 1.4-.3.2.2-1.4.3z"/></g><g id="i"><path fill="#714a3a" d="m5.6.7.6.4q.6.7.5 3.1-.2 2.7.3 4-1.4 2.7-3.3 2.3-1-.8-.8-1 1.8-2.1 1-4.2-1-3-.6-4.7z"/><path fill="#3d271f" d="M3.3.6q-.4 1.7.7 4.7.6 2.1-1.1 4.3-.2.1.8.9 1.9.4 3.2-2.3H7q.9 2.3-1.2 3.7l-.9.3q-1.7.5-3.6-.8l-.9-.7Q-.9 8.1 2 1.7z"/><path fill="none" stroke="#765434" stroke-linecap="round" stroke-linejoin="round" stroke-width="__RESOLUTION__" d="M7 8.2q-.5-1.3-.3-4 .2-2.4-.5-3.1L5.6.7M7 8.2q.9 2.3-1.2 3.7l-.9.3m-3.6-.8-.9-.7Q-.9 8.1 2 1.7" vector-effect="non-scaling-stroke"/><path fill="#b5c5cc" d="M5 0q2.2 0 1.3 1.5 2.9 2.3 1.5 4l-.1.1Q8.1 3 5.4 3.1 6.5.9 4.9 0"/><path fill="#a0b0bd" d="M5 0q1.5.9.4 3.1Q8.1 3 7.7 5.6 6.4 7.1 3.9 6.9q-2.5-.3-3 1.5Q0 5.2 2 .8 3.9 0 5 0"/><path fill="none" stroke="#000" stroke-linecap="round" stroke-linejoin="round" stroke-opacity=".3" stroke-width="__RESOLUTION__" d="M7.8 5.5q1.4-1.7-1.5-4Q7.2.1 5 0 3.9 0 2 .8M.9 8.5q.5-1.9 3-1.6t3.8-1.3" vector-effect="non-scaling-stroke"/></g><g id="j"><path fill="#714a3a" d="m6.3.2 2.5.3.3 6.8q0 3.2-.9 5.4-.4.9-2.5 1.3h-3q3 0 3.6-13.8"/><path fill="#3d271f" d="M2.7 14q-2-.4-2.4-1.8-.7-2.3.5-5.7Q2.5 2.4 3.1 0l3.1.2Q5.8 14 2.8 14"/><path fill="none" stroke="#765434" stroke-linecap="round" stroke-linejoin="round" stroke-width="__RESOLUTION__" d="m8.8.5.3 6.8q0 3.2-.9 5.4-.4.9-2.5 1.3h-3q-2-.4-2.4-1.8-.7-2.3.5-5.7Q2.5 2.4 3.2 0" vector-effect="non-scaling-stroke"/></g><g id="k"><path fill="#a27733" d="m3 7-1.2.3Q1.7 6 .8 4.6.4 3.8 0 1.7l1.5-.6q-.2.7.5 2.3.9 1.9 1 3.7"/><path fill="#c69e44" d="M3 7q-.1-1.8-1-3.6-.7-1.6-.5-2.3L4 0q.8.6.9 1.3l.4 3.1q.4 2-.2 3.5z"/><path fill="none" stroke="#644520" stroke-linecap="round" stroke-linejoin="round" stroke-width="__RESOLUTION__" d="M0 1.7q.4 2 .9 2.9.8 1.4.9 2.8m3.3.5q.6-1.5.2-3.5l-.4-3.1Q4.6.6 4 0" vector-effect="non-scaling-stroke"/></g><g id="l"><path fill="#c69e44" d="M0 3.6q.6-.2 2-2.1.4-.8 1.2-1Q3.8.5 4 0l1.2.5.2.3H6q1.3 1.7.3 2l-.2.2q1 1 .4 1l-.5.3q.8.9.2 1l-1.7.5-.5-.5-.3.1h-.4l-.1.1q-2.1-.3-2.4 0zm3.5 1 .6.7zm1.6-2.1.2-.3zm-1-.5-.2.3zM2.8 4.4l.9-1.1.3-.9-.3.9zm2.5-.7.9-.8zm-1 .4.4.5 1.4-.3-1.3.3z"/><path fill="#e0e6e9" d="m5 2.5.3-.3z"/><path fill="#daa674" d="m4 2.4.2-.2V2zm.2-.2"/><path fill="none" stroke="#644520" stroke-linecap="round" stroke-linejoin="round" stroke-width="__RESOLUTION__" d="m6.2 3 .2-.2q1-.3-.3-2h-.6L5.3.5 4 0q-.2.4-1 .6-.7.1-1.1.9v0q-1.4 1.9-2 2m.9 2q.3-.3 2.4 0m.8-.2-.6-.7m.7-2.4-.2.2-.3.9-.9 1m3.3 0 .5-.2Q7.3 4 6.2 3l-1 .7M4 5.3l.5.5 1.8-.5q.6-.1-.2-1l-1.4.3-.4-.4" vector-effect="non-scaling-stroke"/></g><g id="m"><path fill="#e7d6bc" d="M5.2 0q-.9 1.8-1.3 3.6-.9.8-2.2.9 0-2 1.4-4.4h.2zM1.7 4.5q1.3-.1 2.2-.9-.3 1.7-.4 3.6l.1 1.3-1.2.7h-.9V7zm1.8 2.7-2-.2z"/><path fill="#c99e6b" d="M3 .1Q1.7 2.6 1.7 4.5L.1 4.4V6q0 1.8-.2 2.5l1.5.7V7l.2-2.5-1.5-.1V4Q0 1.7 1.2.2zM.3 6l1.3 1z"/><path fill="none" stroke="#645340" stroke-linecap="round" stroke-linejoin="round" stroke-width="__RESOLUTION__" d="M3.9 3.6Q4.3 1.8 5.2 0M3.3.1h-.2M1.5 4.5Q3 4.4 4 3.5q-.3 1.7-.4 3.6l.1 1.3-1.2.7h-.9L0 8.5Q.2 7.8.2 6V4Q0 1.7 1.2.2m-1 4.2h1.5M1.5 7l2 .2m-2-.2L.3 6" vector-effect="non-scaling-stroke"/></g><g id="o"><path fill="#bbd0dd" d="M10.2 14.5q0 .8 1.4.7.7.3 1-.3.5.8 1.5.4 1 .6 1.6 0 1.4.2 1 1.7 1.7 0 1.5 1.7 1.6-.3 1 1.3 1.1.3.3 1.3.8.6-.1 2 .9.3-.2 1.2.6 1.7-.5 1.8 0 2-.8 2.6l-.8-.3q-1-1-.7-1.8-.9.4-1-.6-1-.8-.4-1.6-1.1.6-1.3-.6-1 .2-1.3-1.1-.7-.6-.5-1.1-.5-.5-.6 1.4 1 .6 1.4 1.4l-.2.7h-.8q-1.3.5-1.3-.8-.3 1-1.4.8-.4-.6.5-1-.8-.1-.6-1.3.5-.4.2-1-.5-.1-1 1.1-.6.4.1 1.2-.7.1-.7 1.1l-.2-.2.1.4q.2.8-.8 1 .2 1.2-1 .5-2.3.5-1.6-.6-2 0-1.3-.9-.6-.2.2-1.1-1 .1-.3-1 0-1 .9-1.2-.7-.9.2-1.2 0-1 .9-1.2-.6-.8.2-1.4-.8 0-.2-.9 0-1.2 1.2-1.4-1-.1-.5-1.6-.4-.6-.2-1 .8.9 1.6.2.5 1 1.3.6.4.7 1 .2z"/><path fill="#a0b0bd" d="M5.2 13.6q-.3.4.1 1-.5 1.5.5 1.7-1.1.1-1.2 1.3-.5.9.3 1-.9.5-.3 1.3-.9.2-.8 1.2-1 .3-.3 1.2-.9.2-.9 1.2-.7 1.1.4 1-.8.9-.3 1.1-.7 1 1.3.9-.7 1.1 1.6.6 1.3.7 1-.5 1-.2.9-1l-.2-.4.3.2q-.1-1 .7-1-.8-.9-.3-1.3.6-1.2 1.1-1 .3.5-.2 1-.2 1.1.6 1.2-.9.4-.5 1 1 .2 1.4-.8 0 1.3 1.3.8h.8l.2-.7q-.3-.8-1.4-1.4.1-1.9.6-1.4-.2.5.5 1.1.3 1.3 1.3 1.1.2 1.2 1.3.6-.6.8.5 1.6 0 1 .9.6-.3.8.7 1.7-1.1-.5-1.9-1.3-1 0-1.3-1.3-.7.2-1.3-.7v.3q-.2.6-.7.5-.3 1.7-.9.1-.9.2-1-.4-.7.8-1.4.6-.1 1.4-1.2 1.5-.3 1.5-1.5 2.4l-.5.4-1.2-.2q-1.6 0-1.4-.8-1.4-.5-.6-1.7-1.4 0-.9-1.3-.7-.8.2-1.3-1.4-.6-.6-1.9-.8-.8.8-1-.6-.6.2-1.2-.1-1.1.6-1.3-.5-.6.4-1 0-1.7.8-1.2-.7-.7-.2-1.4-.4-1.1.5-.9-.8-.8-.1-1.5-.7-.9.6-1.4-.1 1 .7 1m7.4 12-.1-.2zm2.3 1.3.3.4z"/><path fill="none" stroke="#033" stroke-linecap="round" stroke-linejoin="round" stroke-opacity=".5" stroke-width="__RESOLUTION__" d="m17.1 28.6.8.3q.8-.5.8-2.5 1-.2.5-1.9 1.1-.8.2-1.2.9-1.4 0-2 .9-1-.1-1.3.5-1.5-1.1-1.2.2-1.8-1.5-1.8.4-1.4-1-1.6-.6.5-1.6 0-1 .3-1.4-.5-.4.6-1.1.3-1.4.1-1.4-.7m6.9 14q-1.1-.5-1.9-1.3-1 0-1.3-1.3-.7.2-1.3-.7v.3q-.2.6-.7.6-.3 1.6-.9 0-.9.3-1-.4-.7.8-1.4.6-.1 1.4-1.2 1.5-.3 1.6-1.5 2.4l-.5.4-1.2-.1q-1.6-.1-1.4-1-1.4-.4-.6-1.5-1.4 0-.9-1.4-.7-.8.2-1.3-1.4-.6-.6-1.9-.8-.8.8-1-.6-.6.2-1.2-.1-1.1.6-1.3-.5-.6.4-1 0-1.7.8-1.2-.7-.7-.2-1.4-.4-1.1.5-.9-.8-.8-.1-1.5-.7-.9.6-1.4m8 12.8v.2m2.7 1.7-.3-.4" vector-effect="non-scaling-stroke"/><path fill="#a0b0bd" d="M14.3 10.4q.8.2.8.6-.7-.3-1.5 1.3 0-.8-.7-.2-1.1-.1-1 .6-.8.9-.3 1.6t1.2-.1q-.1.6.6.7.8.4 1.2-.2.2.8 1.2.3l-.1.4q-.6.5-1.6 0-1 .3-1.4-.5-.4.6-1.1.3-1.4.1-1.4-.7l-.1-.3q0-.5.9-.5-.9-1-.2-1.2 1.2-1.4 2.3-1 .4-1.4 1.2-1.1"/><path fill="#bbd0dd" d="M15.8 15q-1 .4-1.2-.3-.4.6-1.2.2-.7-.2-.6-.7-.6.9-1.2.1t.3-1.7q-.1-.6 1-.5.8-.6.7.1.8-1.6 1.5-1.2l-.4 1.2q1.1.6.3 1.2 1.2.4.8 1.5"/><path fill="none" stroke="#033" stroke-linecap="round" stroke-linejoin="round" stroke-opacity=".5" stroke-width="__RESOLUTION__" d="M15.1 11q0-.4-.8-.6m1.4 5 .1-.4q.4-1.1-.9-1.5.9-.6-.2-1.3l.4-1.2" vector-effect="non-scaling-stroke"/><path fill="#bbd0dd" d="M7.9 2.9Q9 2.3 10 2.7q1.1-.6 1.4.2.2-.7 1.4-.6.8-.6 1.2 0h1.8q1.5.4.2 2 .5.9-.5 1.4 1.1.6-.1 1.7 1 1.3-.2 1.5 1.3.8.1 1.7-.8-.3-1.5 1.1-1-.5-2.4.9-.9.2-.2 1.1-.9 0-1 .5-.8.1-1-.5-.5.5-1 .3-1.4-.1-.9-1-.6.7-1.6.2-.9-.2-.3-1.1 0-1 1.1-1.1-.7-.4 0-1.5-.4-.8.5-1.4-.9.1-.5-1-.2-1 .8-1.2-1.2-.1-.4-1.1-.6-1 .8-1.4z"/><path fill="#a0b0bd" d="m7.9 2.9-.2.5q-1.4.4-.8 1.4-.8 1 .4 1.1-1 .2-.7 1.2-.4 1.1.5 1-1 .6-.6 1.4-.7 1.1 0 1.5-1 .1-1 1.1-.7.9.3 1.1.9.6 1.5-.1-.5.8.9.8.6.3 1-.2.2.7 1 .5l.1.3-1.2.1q-.7.5-1-.2-1 .4-1.3-.5-1 .5-1.5-.4-.8.1-.8-1-.7-.9-.1-1.6-.4-1.2.8-1.2-.6-.4-.3-1.1-.6-.9.5-1.4-1.1-.6.1-1.5-.7-.7.4-1-.6-.7.3-1.1.3-1.3 1.7-.7"/><path fill="none" stroke="#033" stroke-linecap="round" stroke-linejoin="round" stroke-opacity=".5" stroke-width="__RESOLUTION__" d="M10.3 14.2q0-.4 1-.5-.8-.9.1-1.1 1.4-1.4 2.4-.9.8-1.4 1.5-1.1 1.2-1-.1-1.7 1.3-.2.2-1.5 1.2-1.1.1-1.7 1-.5.5-1.4 1.4-1.6-.1-2H14q-.3-.6-1.2 0-1.2-.1-1.4.6-.3-.7-1.4-.2-1-.5-2.1.2-1.4-.6-1.7.7-1 .3-.3 1-1.1.4-.4 1.1-1.2.9-.1 1.5-1.1.5-.5 1.4-.3.7.3 1.2-1.2 0-.8 1.1-.6.7.1 1.6 0 1.1.8 1 .6 1 1.5.3.4 1 1.3.6.3.7 1 .2h1.2z" vector-effect="non-scaling-stroke"/><path fill="#ffeaaa" d="m14.2 10.7-.1-.2q.1-.2-.2-.5-.5-.8.3-.4.4.1.6.7-.2 1.8-.7.4"/><path fill="#c90" d="M14.8 10.4v1.1q-.2.9-.8-.1.3-.3.1-.7.5 1.5.6-.3"/><path fill="#ffeaaa" d="M12.6 11.2V11q0-.2-.3-.5-.5-.9.3-.5.5.1.6.8-.1 1.8-.6.3"/><path fill="#c90" d="m13.2 10.8.1 1.2q-.3.8-.8-.1.2-.3.1-.7.5 1.4.6-.4m-1.6-.2.7.9q.3.9-.7.3.1-.3-.3-.6 1.2.9.3-.6"/><path fill="#ffeaaa" d="M11.3 11.2q0-.3-.4-.5-1-.3-.1-.4.5-.1 1 .4.9 1.5-.4.6"/><path fill="#c90" d="m11.6 11.9.7.9q.2.8-.7.3 0-.3-.3-.6 1.2.9.3-.7"/><path fill="#ffeaaa" d="m11.3 12.5-.2-.2q0-.2-.4-.4-1-.3 0-.4.5-.1.9.4.9 1.5-.3.6m-1 .9q0-.2-.4-.4-1-.4-.1-.5.5 0 1 .4.9 1.6-.4.6"/><path fill="#c90" d="m10.7 12.8.7 1q.2.8-.8.2.1-.2-.3-.6 1.3 1 .4-.6"/><path fill="#ffeaaa" d="m14.9 15 .2-.6q-.1-1 .5-.3.3.4.1 1-1.1 1.6-.8 0"/><path fill="#c90" d="m15.7 15-.5 1.1q-.9.6-.8-.5l.5-.6q-.3 1.5.8 0"/><path fill="#ffeaaa" d="m13.6 14.9.2-.5q-.1-1.1.5-.4.3.4.1 1-1.1 1.6-.8.1"/><path fill="#c90" d="m14.4 14.8-.5 1.2q-.9.6-.8-.5l.5-.6q-.3 1.5.8-.1"/><path fill="#ffeaaa" d="m12 15 .2-.5q-.2-1.1.4-.4.4.4.2 1-1.2 1.6-.9.1"/><path fill="#c90" d="m12.8 14.9-.6 1.2q-.8.6-.7-.6l.4-.5q-.3 1.5.8-.1"/><path fill="#ffeaaa" d="M10.8 14.4v-.2q.3-.1.2-.6-.1-1 .5-.3.3.3.1 1-1.1 1.5-.8 0"/><path fill="#c90" d="m11.6 14.3-.5 1.1q-.9.7-.8-.5l.5-.5q-.3 1.4.8-.2"/><path fill="#ffeaaa" d="M6.9 13.7v-.2q.2-.1.1-.6-.1-1 .5-.3.4.4.2 1-1.1 1.6-.8 0"/><path fill="#c90" d="M7.7 13.6 7 14.7q-.8.7-.7-.5.3-.1.4-.5-.3 1.4.8-.2"/><path fill="#ffeaaa" d="M5.8 13.4q.2-.1.2-.5-.1-1.1.5-.4.3.4.1 1-1.1 1.6-.8.1"/><path fill="#c90" d="m6.6 13.3-.5 1.2q-.8.6-.8-.5l.5-.6q-.3 1.5.8-.1"/><path fill="#ffeaaa" d="M4.5 13.7v-.2q.2-.1.2-.6-.2-1 .4-.3.4.4.2 1-1.1 1.6-.8 0"/><path fill="#c90" d="m5.3 13.6-.6 1.1q-.8.7-.7-.5l.5-.5q-.3 1.4.8-.2"/><path fill="#ffeaaa" d="M9.7 14.6q.2-.1.2-.5-.2-1.1.4-.4.4.4.2 1-1.1 1.6-.8.1"/><path fill="#c90" d="m10.5 14.5-.6 1.2q-.8.6-.8-.5l.5-.6q-.3 1.5.8-.1"/><path fill="#ffeaaa" d="M8 14.4v-.2h.1q.2-.1.2-.6-.2-1 .4-.3.4.3.2 1-1.1 1.5-.8 0"/><path fill="#c90" d="m8.9 14.3-.6 1.1q-.8.7-.7-.5l.5-.5q-.3 1.4.8-.2"/><path fill="#ffeaaa" d="M1.3 23.5q.6-.2 1 0 .9.4-.2.5l-.6.1-.1.1q-1.7.6-.2-.7"/><path fill="#c90" d="M1.3 23.5q-1.5 1.3.1.7l-.6.6q-1.2.3-.7-.6z"/><path fill="#ffeaaa" d="M1.5 24.7q.7-.3 1 0 1 .3-.2.4l-.6.2q-1.7.6-.2-.7"/><path fill="#c90" d="M1.5 24.7q-1.5 1.2.2.6L1 26q-1.3.3-.7-.5z"/><path fill="#ffeaaa" d="M1.5 26q.7-.3 1 0 1 .3-.2.4l-.6.2q-1.7.6-.2-.7"/><path fill="#c90" d="M1.5 26q-1.5 1.2.2.6l-.6.6q-1.3.3-.7-.5z"/><path fill="#ffeaaa" d="m18.6 22.2-.2-.1q0-.2-.5-.2-1 .2-.3-.4l1-.1q1.6 1 0 .8"/><path fill="#c90" d="m18.6 21.4 1.2.6q.6.7-.6.7-.1-.4-.6-.5 1.7.3 0-.8"/><path fill="#ffeaaa" d="M18.7 23.4h-.1l-.1-.1-.6-.1q-1 .1-.3-.5l1-.1q1.7 1 0 .8"/><path fill="#c90" d="m18.7 22.6 1.1.5q.6.8-.5.8-.2-.4-.7-.5 1.7.3 0-.8m.1 1.2 1.2.6q.7.7-.5.7-.1-.4-.6-.5 1.6.3 0-.8"/><path fill="#ffeaaa" d="M18.8 24.6h-.2l-.6-.2q-1 .2-.3-.4l1-.2q1.7 1.1 0 .8"/><path fill="#960" d="M6.9 28.3q-.2-.6.4-.6 1.2.5 1.6 1.4-1 .2-2-.8"/><path fill="#664500" d="M8.9 29.1h-1q-1-.2-1-.8 1 1 2 .8"/><path fill="none" stroke="#244142" stroke-linecap="round" stroke-linejoin="round" stroke-opacity=".4" stroke-width="__RESOLUTION__" d="M6.9 28.3q-.2-.6.4-.6 1.2.5 1.6 1.4h-1q-1-.2-1-.8" vector-effect="non-scaling-stroke"/><path fill="#960" d="M6.3 29.5q-.1-.6.6-.6 1.4.5 1.8 1.6-1.2.1-2.4-1"/><path fill="#664500" d="m8.7 30.5-1.1.1q-1.2-.5-1.3-1.1 1.2 1.1 2.4 1"/><path fill="none" stroke="#244142" stroke-linecap="round" stroke-linejoin="round" stroke-opacity=".4" stroke-width="__RESOLUTION__" d="M6.3 29.5q-.1-.6.6-.6 1.4.5 1.8 1.6l-1.1.1q-1.2-.4-1.3-1.1" vector-effect="non-scaling-stroke"/><path fill="#960" d="M5.3 30.4q-.1-.5.5-.5 1.2.4 1.5 1.3-1 .2-2-.8"/><path fill="#664500" d="M7.3 31.2h-1q-1-.2-1-.8 1 1 2 .8"/><path fill="none" stroke="#244142" stroke-linecap="round" stroke-linejoin="round" stroke-opacity=".4" stroke-width="__RESOLUTION__" d="M5.3 30.4q-.1-.5.5-.5 1.2.4 1.5 1.3h-1q-1-.2-1-.8" vector-effect="non-scaling-stroke"/><path fill="#960" d="M14 28.7q0-1 .9-1.9.6-.2.7.3-.5 1.3-1.5 1.5"/><path fill="#664500" d="M14 28.7q1-.3 1.6-1.6.2.6-.6 1.3z"/><path fill="none" stroke="#244142" stroke-linecap="round" stroke-linejoin="round" stroke-opacity=".4" stroke-width="__RESOLUTION__" d="M15.6 27.1q-.1-.5-.7-.3-.9.9-.8 1.9l.9-.3q.8-.7.6-1.3" vector-effect="non-scaling-stroke"/><path fill="#960" d="M14.9 29.7q-.1-1.1.9-2.1.7-.4.9.3-.7 1.5-1.8 1.8"/><path fill="#664500" d="M14.9 29.7q1.1-.3 1.8-1.8.1.7-.8 1.5-.7.6-1 .3"/><path fill="none" stroke="#244142" stroke-linecap="round" stroke-linejoin="round" stroke-opacity=".4" stroke-width="__RESOLUTION__" d="M16.7 27.9q-.3-.6-.9-.3-1 1-.9 2.1.3.3 1-.3 1-.8.7-1.5" vector-effect="non-scaling-stroke"/><path fill="#960" d="M16.4 30q0-1 .8-1.9.6-.2.7.3-.5 1.3-1.5 1.6"/><path fill="#664500" d="M16.4 30q1-.3 1.5-1.6.2.6-.5 1.3-.6.5-1 .3"/><path fill="none" stroke="#244142" stroke-linecap="round" stroke-linejoin="round" stroke-opacity=".4" stroke-width="__RESOLUTION__" d="M17.9 28.4q-.1-.5-.7-.3-.8.8-.8 1.8.4.3 1-.2.7-.7.5-1.3" vector-effect="non-scaling-stroke"/><path fill="#960" d="M14.9.6q.6.8.2 2-.3.4-.7 0-.2-1.3.5-2"/><path fill="#664500" d="M14.9.6q-.7.7-.5 2-.4-.4-.2-1.3.3-.7.7-.7"/><path fill="none" stroke="#244142" stroke-linecap="round" stroke-linejoin="round" stroke-opacity=".4" stroke-width="__RESOLUTION__" d="M14.4 2.7q.4.3.7-.2.4-1.2-.2-1.9-.4 0-.7.6-.2 1 .2 1.5" vector-effect="non-scaling-stroke"/><path fill="#960" d="M13.5 0q.7.9.4 2.3l-1 .1q-.1-1.6.6-2.4"/><path fill="#664500" d="M13.5 0q-.7.8-.5 2.4-.6-.5-.2-1.6.2-.8.7-.8"/><path fill="none" stroke="#244142" stroke-linecap="round" stroke-linejoin="round" stroke-opacity=".4" stroke-width="__RESOLUTION__" d="m13 2.4.9-.1q.3-1.4-.4-2.3-.5 0-.7.8-.4 1.1.1 1.6" vector-effect="non-scaling-stroke"/><path fill="#960" d="M12.1.6q.6.7.2 1.9-.4.5-.7.1-.2-1.3.5-2"/><path fill="#664500" d="M12.1.6q-.7.7-.5 2-.4-.5-.2-1.4.3-.7.7-.7"/><path fill="none" stroke="#244142" stroke-linecap="round" stroke-linejoin="round" stroke-opacity=".4" stroke-width="__RESOLUTION__" d="M11.6 2.6q.4.4.7-.1.3-1.2-.2-2-.4 0-.7.7-.2 1 .2 1.4" vector-effect="non-scaling-stroke"/><path fill="#960" d="M8.3 1.4q.8.6.8 1.8-.2.5-.7.3-.5-1.3-.1-2.1"/><path fill="#664500" d="M8.3 1.4q-.4.8.1 2-.5-.2-.5-1.2 0-.8.4-.8"/><path fill="none" stroke="#244142" stroke-linecap="round" stroke-linejoin="round" stroke-opacity=".4" stroke-width="__RESOLUTION__" d="M8.4 3.5q.5.2.7-.3 0-1.2-.8-1.8-.4 0-.4.8 0 1 .5 1.3" vector-effect="non-scaling-stroke"/><path fill="#960" d="M6.8 1.2q1 .8 1 2.2-.3.5-.9.2-.6-1.5-.1-2.4"/><path fill="#664500" d="M6.8 1.2q-.5 1 .1 2.5-.6-.4-.6-1.5 0-.9.5-1"/><path fill="none" stroke="#244142" stroke-linecap="round" stroke-linejoin="round" stroke-opacity=".4" stroke-width="__RESOLUTION__" d="M6.9 3.7q.6.2.9-.4 0-1.3-1-2.1-.5.1-.5 1 0 1.1.6 1.5" vector-effect="non-scaling-stroke"/><path fill="#960" d="M5.6 2.1q.8.6.8 1.8-.2.6-.7.3-.6-1.3-.1-2.1"/><path fill="#664500" d="M5.6 2.1q-.4.8.1 2.1-.6-.3-.5-1.3 0-.7.4-.8"/><path fill="none" stroke="#244142" stroke-linecap="round" stroke-linejoin="round" stroke-opacity=".4" stroke-width="__RESOLUTION__" d="M5.7 4.2q.5.3.7-.3 0-1.2-.8-1.8-.4 0-.4.8 0 1 .5 1.3" vector-effect="non-scaling-stroke"/></g><linearGradient id="t" x1="-819.2" x2="819.2" gradientTransform="matrix(-.0002 -.0018 -.0008 .0001 -3.05 -.45)" gradientUnits="userSpaceOnUse" spreadMethod="pad"><stop offset="0" stop-color="#a0b0bd" stop-opacity="1"/><stop offset="1" stop-color="#3d7676" stop-opacity="1"/></linearGradient><linearGradient id="s" x1="-819.2" x2="819.2" gradientTransform="matrix(-.0012 -.0016 -.0008 .0007 2.35 2.25)" gradientUnits="userSpaceOnUse" spreadMethod="pad"><stop offset="0" stop-color="#bbd0dd" stop-opacity="1"/><stop offset="1" stop-color="#a3cdcf" stop-opacity="1"/></linearGradient><linearGradient id="r" x1="-819.2" x2="819.2" gradientTransform="matrix(-.0004 -.0021 -.0053 .0016 -.25 2.45)" gradientUnits="userSpaceOnUse" spreadMethod="pad"><stop offset="0" stop-color="#bbd0dd" stop-opacity="1"/><stop offset="1" stop-color="#a3cdcf" stop-opacity="1"/></linearGradient><linearGradient id="q" x1="-819.2" x2="819.2" gradientTransform="matrix(-.0002 -.0018 -.0036 .0007 -.25 -2.25)" gradientUnits="userSpaceOnUse" spreadMethod="pad"><stop offset="0" stop-color="#a0b0bd" stop-opacity="1"/><stop offset="1" stop-color="#3d7676" stop-opacity="1"/></linearGradient><linearGradient id="x" x1="-819.2" x2="819.2" gradientTransform="matrix(-.0005 -.0017 -.0008 .0002 -2.95 2.35)" gradientUnits="userSpaceOnUse" spreadMethod="pad"><stop offset="0" stop-color="#a0b0bd" stop-opacity="1"/><stop offset="1" stop-color="#3d7676" stop-opacity="1"/></linearGradient><linearGradient id="w" x1="-819.2" x2="819.2" gradientTransform="matrix(-.0015 -.0015 -.0007 .0007 3 4.6)" gradientUnits="userSpaceOnUse" spreadMethod="pad"><stop offset="0" stop-color="#bbd0dd" stop-opacity="1"/><stop offset="1" stop-color="#a3cdcf" stop-opacity="1"/></linearGradient><linearGradient id="v" x1="-819.2" x2="819.2" gradientTransform="matrix(-.0008 -.002 -.005 .002 .35 5)" gradientUnits="userSpaceOnUse" spreadMethod="pad"><stop offset="0" stop-color="#bbd0dd" stop-opacity="1"/><stop offset="1" stop-color="#a3cdcf" stop-opacity="1"/></linearGradient><linearGradient id="u" x1="-819.2" x2="819.2" gradientTransform="matrix(-.0005 -.0018 -.0035 .0009 -.4 .35)" gradientUnits="userSpaceOnUse" spreadMethod="pad"><stop offset="0" stop-color="#a0b0bd" stop-opacity="1"/><stop offset="1" stop-color="#3d7676" stop-opacity="1"/></linearGradient><radialGradient id="p" cx="0" cy="0" r="819.2" gradientTransform="matrix(-.0076 .0009 .0009 .0076 7.75 -1.25)" gradientUnits="userSpaceOnUse" spreadMethod="pad"><stop offset="0" stop-color="#caa596"/><stop offset=".3" stop-color="#3d271f"/></radialGradient><clipPath id="y"><path d="M1 1h21v49H1z"/></clipPath><path id="n" fill="#382c16" d="M5.8-1.9Q7.9-1.4 8-.5 8 .3 5.9 1 3.8 1.8.7 2l-5.2-.4Q-6.7 1.2-6.7.3q-.1-.8 2-1.6 2.2-.8 5.2-.9z" transform="translate(6.75 2.25)"/></defs><g clip-path="url(#y)"><g transform="translate(10.45 45.2)"><use xlink:href="#z" width="20.1" height="31.4" transform="matrix(-1 0 -.0157 1 11.3 -32.45)"/><use xlink:href="#A" width="14.7" height="4.3" transform="matrix(-.8 0 0 .8 5.4 -1.8)"/><use xlink:href="#B" width="5.2" height="9.2" transform="matrix(-.8 0 0 .8 -1 -10)"/><use xlink:href="#C" width="6.8" height="5.8" transform="matrix(.0603 .7978 .637 -.1148 -8.75 -20.1)"/><use xlink:href="#D" width="5.5" height="7.9" transform="matrix(-.7844 -.1419 -.0413 .9066 -3.15 -24.8)"/><use xlink:href="#E" width="9.1" height="14.1" transform="matrix(-.8 0 0 .8 .7 -19.7)"/><use xlink:href="#F" width="8.3" height="12.3" transform="matrix(-.7399 -.2963 -.2627 .5947 -.1 -31.05)"/><use xlink:href="#B" width="5.2" height="9.2" transform="matrix(-.8 0 0 .8 3.9 -8.4)"/><use xlink:href="#G" width="8.7" height="10.6" transform="matrix(-.6609 0 0 .7394 -.35 -6.2)"/><use xlink:href="#H" width="8.7" height="10.8" transform="matrix(-.9895 0 0 .8595 6.95 -5.4)"/><use xlink:href="#E" width="9.1" height="14.1" transform="matrix(-.7994 .0282 .0282 .7994 4.95 -17.7)"/><use xlink:href="#I" width="6.3" height="11.8" transform="matrix(-.8551 -.0114 .0032 .6928 -.6 -17.8)"/><use xlink:href="#J" width="15.3" height="18.9" transform="matrix(-.8 0 -.0275 .8 5.45 -30.95)"/><use xlink:href="#T" width="9.2" height="11.8" transform="matrix(-.7975 .0598 .0598 .7975 8.5 -31)"/><use xlink:href="#U" width="5.7" height="7.2" transform="matrix(-.8 0 0 .8 7.15 -16.65)"/><use xlink:href="#V" width="5.7" height="9.8" transform="matrix(-.8 0 0 .8 8.5 -21.9)"/><use xlink:href="#W" width="21.2" height="19.1" transform="matrix(-.8 0 0 .8 8.3 -44.2)"/></g></g></svg>