<svg xmlns="http://www.w3.org/2000/svg" xmlns:xlink="http://www.w3.org/1999/xlink" width="1276" height="38" viewBox="0 0 1276 38"><defs><clipPath id="b"><path d="M1 1h24v36H1z"/></clipPath><clipPath id="j"><path d="M26 1h24v36H26z"/></clipPath><clipPath id="k"><path d="M51 1h24v36H51z"/></clipPath><clipPath id="l"><path d="M76 1h24v36H76z"/></clipPath><clipPath id="m"><path d="M101 1h24v36h-24z"/></clipPath><clipPath id="n"><path d="M126 1h24v36h-24z"/></clipPath><clipPath id="o"><path d="M151 1h24v36h-24z"/></clipPath><clipPath id="p"><path d="M176 1h24v36h-24z"/></clipPath><clipPath id="q"><path d="M201 1h24v36h-24z"/></clipPath><clipPath id="r"><path d="M226 1h24v36h-24z"/></clipPath><clipPath id="s"><path d="M251 1h24v36h-24z"/></clipPath><clipPath id="t"><path d="M276 1h24v36h-24z"/></clipPath><clipPath id="u"><path d="M301 1h24v36h-24z"/></clipPath><clipPath id="v"><path d="M326 1h24v36h-24z"/></clipPath><clipPath id="w"><path d="M351 1h24v36h-24z"/></clipPath><clipPath id="x"><path d="M376 1h24v36h-24z"/></clipPath><clipPath id="y"><path d="M401 1h24v36h-24z"/></clipPath><clipPath id="z"><path d="M426 1h24v36h-24z"/></clipPath><clipPath id="A"><path d="M451 1h24v36h-24z"/></clipPath><clipPath id="B"><path d="M476 1h24v36h-24z"/></clipPath><clipPath id="C"><path d="M501 1h24v36h-24z"/></clipPath><clipPath id="D"><path d="M526 1h24v36h-24z"/></clipPath><clipPath id="E"><path d="M551 1h24v36h-24z"/></clipPath><clipPath id="F"><path d="M576 1h24v36h-24z"/></clipPath><clipPath id="G"><path d="M601 1h24v36h-24z"/></clipPath><clipPath id="H"><path d="M626 1h24v36h-24z"/></clipPath><clipPath id="I"><path d="M651 1h24v36h-24z"/></clipPath><clipPath id="J"><path d="M676 1h24v36h-24z"/></clipPath><clipPath id="K"><path d="M701 1h24v36h-24z"/></clipPath><clipPath id="L"><path d="M726 1h24v36h-24z"/></clipPath><clipPath id="M"><path d="M751 1h24v36h-24z"/></clipPath><clipPath id="N"><path d="M776 1h24v36h-24z"/></clipPath><clipPath id="O"><path d="M801 1h24v36h-24z"/></clipPath><clipPath id="P"><path d="M826 1h24v36h-24z"/></clipPath><clipPath id="Q"><path d="M851 1h24v36h-24z"/></clipPath><clipPath id="R"><path d="M876 1h24v36h-24z"/></clipPath><clipPath id="S"><path d="M901 1h24v36h-24z"/></clipPath><clipPath id="T"><path d="M926 1h24v36h-24z"/></clipPath><clipPath id="U"><path d="M951 1h24v36h-24z"/></clipPath><clipPath id="V"><path d="M976 1h24v36h-24z"/></clipPath><clipPath id="W"><path d="M1001 1h24v36h-24z"/></clipPath><clipPath id="X"><path d="M1026 1h24v36h-24z"/></clipPath><clipPath id="Y"><path d="M1051 1h24v36h-24z"/></clipPath><clipPath id="Z"><path d="M1076 1h24v36h-24z"/></clipPath><clipPath id="aa"><path d="M1101 1h24v36h-24z"/></clipPath><clipPath id="ab"><path d="M1126 1h24v36h-24z"/></clipPath><clipPath id="ac"><path d="M1151 1h24v36h-24z"/></clipPath><clipPath id="ad"><path d="M1176 1h24v36h-24z"/></clipPath><clipPath id="ae"><path d="M1201 1h24v36h-24z"/></clipPath><clipPath id="af"><path d="M1226 1h24v36h-24z"/></clipPath><clipPath id="ag"><path d="M1251 1h24v36h-24z"/></clipPath><path id="a" fill="#382c16" d="M3.4-1.7q1.4.5 1.4 1.4T3.5 1.3t-3.2 1L-3 1.9Q-4.3 1.4-4.3.6-4.4-.4-3-1q1.3-.8 3.2-1z" transform="translate(4.35 2.05)"/><path id="h" fill="none" stroke="#583827" stroke-linecap="round" stroke-linejoin="round" stroke-width="__RESOLUTION__" d="M-16.1 1.6q5-15.4 14.9-19.5" transform="translate(16.5 18.3)" vector-effect="non-scaling-stroke"/><path id="e" fill="#000" d="M.2-1.8q1.4-.7 2.4.9T.7 1.5L-3.5 3H-6q-.7-.3 2-2.2T.2-1.8" transform="translate(6.15 2.05)"/><path id="d" fill="#1e545b" d="m9.8-6.6-1.3-3.7 1.5-.4 1.7 3.2 1.6-.2 1.8-3 1 .7-1 3 4.3 2-.5 1.7-3-.8-6.5 2.2L0 0v-2l9-2.1z" transform="translate(0 10.75)"/><g id="i"><path fill="#690" d="m1.8 6.5-.2-1.1h.6l.7.7.2.1 1 .3.3-.1q.7-.5.6.3l-.6 1-.2.1q-.6.5-1.3.5t-1.5-.6l-.1-.1q-.6-.5-.5-.9-.1-.5.6-.2l.6.2z"/><path fill="#be640a" d="M1.3 7.6q.7.6 1.5.6.7 0 1.3-.5l.2-.1.3.2.6 1.1-1.4-.3-2 .6-.7.4.6 2.6.2.2q.6 1.6 1.7 2h.2q-.6 1-1.3.7-1.2-.4-1.9-2.3l-.3-1L0 9.7q0-1.1.8-1.9z"/><path fill="#f90" d="m5.3 9 .2.8-.1.6v.2l-.8 2.7-.7 1.2h-.2q-1-.4-1.6-2l-.2-.2-.6-2.6.6-.4 2-.6z"/><path fill="none" stroke="#4f6b01" stroke-linecap="round" stroke-linejoin="round" stroke-width="__RESOLUTION__" d="m1.8 6.5.2.2m-.7.9.1.1q.7.6 1.5.6.7 0 1.3-.5l.2-.1" vector-effect="non-scaling-stroke"/><path fill="none" stroke="#834407" stroke-linecap="round" stroke-linejoin="round" stroke-width="__RESOLUTION__" d="M3.9 14.6q-.6.9-1.3.6-1.2-.4-1.9-2.3l-.3-1-.3-2.1q0-1.1.8-1.9l.4-.3" vector-effect="non-scaling-stroke"/><path fill="none" stroke="#583827" stroke-linecap="round" stroke-linejoin="round" stroke-opacity=".4" stroke-width="__RESOLUTION__" d="m2.9 6.1-.1-6" vector-effect="non-scaling-stroke"/></g><g id="g"><path fill="#fffdf9" d="m3.3 1.6-.4.2q-.5.4-1.2.4-.8 0-1.3-.4l-.3-.1Q.1 1 .6.6T1.7 0q.7 0 1.1.5t.5 1"/><path fill="#c2bda3" d="m.1 1.7.3.1q.5.4 1.3.4.6 0 1.2-.4l.4-.3v.2q0 .6-.5 1.1t-1.1.5-1.1-.5-.5-1.1"/><path fill="none" stroke="#867b59" stroke-linecap="round" stroke-linejoin="round" stroke-width="__RESOLUTION__" d="M3.3 1.6q-.1-.6-.5-1T1.7 0 .6.6q-.5.4-.5 1v.1q0 .6.5 1.1t1.1.5q.7 0 1.1-.5t.5-1.1z" vector-effect="non-scaling-stroke"/></g><g id="f"><path fill="#63b7cb" d="M5.7 1.2 8 5.6q1 2 .5 3.9l-1.8 1-1.8.5-1.4-.5-1.6-2Q.9 7 .7 3.5l.8-3L2 .1l.3 3.1q1.2.3 2 .9zM5 8.6"/><path fill="#328396" d="M8.5 9.5q-.3 1.4-2 2T2.4 11 .1 7.4q.1-2.2.6-4Q.9 7 1.9 8.6l1.6 1.9 1.4.5 1.8-.5z"/><path fill="none" stroke="#1e545b" stroke-linecap="round" stroke-linejoin="round" stroke-width="__RESOLUTION__" d="M8.5 9.5q-.3 1.4-2 2T2.4 11 .1 7.4q.1-2.2.6-4" vector-effect="non-scaling-stroke"/><path fill="none" stroke="#24646c" stroke-linecap="round" stroke-linejoin="round" stroke-width="__RESOLUTION__" d="M.7 3.4 1.6.6 2 .1m.3 3.1q1.2.3 2 .9l1.2-2.9" vector-effect="non-scaling-stroke"/></g><use xlink:href="#a" id="c" width="9.2" height="4.3"/></defs><g clip-path="url(#b)"><g transform="translate(6 34.65)"><use xlink:href="#c" width="9.2" height="4.3" transform="matrix(.6614 0 0 .7349 -3.7 -1.35)"/><use xlink:href="#d" width="19.3" height="10.8" transform="rotate(-10.994 -81.987 -.81)scale(.224)"/><use xlink:href="#e" width="8.9" height="5.3" transform="matrix(.0484 -.6283 .5318 .041 0 -1.95)"/><use xlink:href="#e" width="8.9" height="5.3" transform="matrix(-.2187 -.631 .4004 -.1388 -2.15 -3.1)"/><use xlink:href="#f" width="8.7" height="11.8" transform="translate(-4.45 -18.05)"/><use xlink:href="#g" width="3.4" height="3.4" transform="translate(-4.65 -8.85)"/><use xlink:href="#h" width="15.6" height="20.3" transform="matrix(1 .2716 0 1 -3.05 -31.2)"/><use xlink:href="#i" width="5.5" height="15.3" transform="matrix(1 .2716 0 1 7.9 -28.5)"/><use xlink:href="#d" width="19.3" height="10.8" transform="matrix(.0375 -.2197 -.2197 -.0375 4.95 -11.3)"/></g></g><g clip-path="url(#j)"><g transform="translate(31 34.65)"><use xlink:href="#c" width="9.2" height="4.3" transform="matrix(.6614 0 0 .7349 -3.7 -1.35)"/><use xlink:href="#d" width="19.3" height="10.8" transform="rotate(-8.557 -106.91 .738)scale(.2238)"/><use xlink:href="#e" width="8.9" height="5.3" transform="matrix(-.072 -.6033 .5205 -.0621 1.05 -2.35)"/><use xlink:href="#e" width="8.9" height="5.3" transform="matrix(-.2668 -.5836 .3849 -.176 -1.8 -3.6)"/><use xlink:href="#f" width="8.7" height="11.8" transform="translate(-4.45 -18.25)"/><use xlink:href="#g" width="3.4" height="3.4" transform="translate(-4.7 -9.2)"/><use xlink:href="#h" width="15.6" height="20.3" transform="matrix(1 .2646 0 1 -3.05 -31.35)"/><use xlink:href="#i" width="5.5" height="15.3" transform="matrix(1 .2646 0 1 7.9 -28.75)"/><use xlink:href="#d" width="19.3" height="10.8" transform="matrix(.0453 -.2182 -.2182 -.0453 4.95 -11.45)"/></g></g><g clip-path="url(#k)"><g transform="translate(56 34.65)"><use xlink:href="#c" width="9.2" height="4.3" transform="matrix(.6614 0 0 .7349 -3.7 -1.35)"/><use xlink:href="#d" width="19.3" height="10.8" transform="rotate(-6.515 -141.59 2.516)scale(.2238)"/><use xlink:href="#e" width="8.9" height="5.3" transform="matrix(-.1791 -.5579 .4907 -.1575 2 -2.8)"/><use xlink:href="#e" width="8.9" height="5.3" transform="matrix(-.3072 -.5355 .3671 -.2106 -1.5 -4)"/><use xlink:href="#f" width="8.7" height="11.8" transform="translate(-4.45 -18.45)"/><use xlink:href="#g" width="3.4" height="3.4" transform="translate(-4.7 -9.6)"/><use xlink:href="#h" width="15.6" height="20.3" transform="matrix(.9994 .2635 0 1 -3.05 -31.55)"/><use xlink:href="#i" width="5.5" height="15.3" transform="matrix(.9994 .2635 0 1 7.9 -28.95)"/><use xlink:href="#d" width="19.3" height="10.8" transform="matrix(.0513 -.2168 -.2168 -.0513 4.95 -11.6)"/></g></g><g clip-path="url(#l)"><g transform="translate(81 34.65)"><use xlink:href="#c" width="9.2" height="4.3" transform="matrix(.6614 0 0 .7349 -3.7 -1.35)"/><use xlink:href="#d" width="19.3" height="10.8" transform="rotate(-4.279 -218.733 7.242)scale(.2238)"/><use xlink:href="#e" width="8.9" height="5.3" transform="matrix(-.268 -.4977 .4463 -.2403 2.9 -3.4)"/><use xlink:href="#e" width="8.9" height="5.3" transform="matrix(-.3397 -.4875 .3472 -.2419 -1.35 -4.65)"/><use xlink:href="#f" width="8.7" height="11.8" transform="translate(-4.45 -18.65)"/><use xlink:href="#g" width="3.4" height="3.4" transform="translate(-4.75 -9.9)"/><use xlink:href="#h" width="15.6" height="20.3" transform="matrix(.9997 .2592 0 1 -3.05 -31.75)"/><use xlink:href="#i" width="5.5" height="15.3" transform="matrix(.9997 .2592 0 1 7.9 -29.2)"/><use xlink:href="#d" width="19.3" height="10.8" transform="rotate(-74.934 -5.24 -9.04)scale(.2228 -.2228)"/></g></g><g clip-path="url(#m)"><g transform="translate(106 34.65)"><use xlink:href="#c" width="9.2" height="4.3" transform="matrix(.6614 0 0 .7349 -3.7 -1.35)"/><use xlink:href="#d" width="19.3" height="10.8" transform="rotate(-2.28 -415.253 19.397)scale(.2238)"/><use xlink:href="#e" width="8.9" height="5.3" transform="matrix(-.3369 -.4294 .3925 -.308 3.65 -4.15)"/><use xlink:href="#e" width="8.9" height="5.3" transform="matrix(-.3665 -.4393 .3249 -.2711 -1.15 -5.15)"/><use xlink:href="#f" width="8.7" height="11.8" transform="translate(-4.45 -18.8)"/><use xlink:href="#g" width="3.4" height="3.4" transform="translate(-4.75 -10.25)"/><use xlink:href="#h" width="15.6" height="20.3" transform="matrix(.9999 .2549 0 1 -3.05 -31.9)"/><use xlink:href="#i" width="5.5" height="15.3" transform="matrix(.9999 .2549 0 1 7.9 -29.45)"/><use xlink:href="#d" width="19.3" height="10.8" transform="matrix(.0644 -.2132 -.2132 -.0644 4.9 -11.9)"/></g></g><g clip-path="url(#n)"><g transform="translate(131 34.65)"><use xlink:href="#c" width="9.2" height="4.3" transform="matrix(.6614 0 0 .7349 -3.7 -1.35)"/><use xlink:href="#d" width="19.3" height="10.8" transform="rotate(-.512 -1863.697 109.172)scale(.2238)"/><use xlink:href="#e" width="8.9" height="5.3" transform="matrix(-.3896 -.3553 .3312 -.3632 4.35 -4.7)"/><use xlink:href="#e" width="8.9" height="5.3" transform="matrix(-.3855 -.3939 .3025 -.296 -.95 -5.55)"/><use xlink:href="#f" width="8.7" height="11.8" transform="translate(-4.45 -19)"/><use xlink:href="#g" width="3.4" height="3.4" transform="translate(-4.8 -10.55)"/><use xlink:href="#h" width="15.6" height="20.3" transform="matrix(1.0002 .2506 0 1 -3.05 -32.1)"/><use xlink:href="#i" width="5.5" height="15.3" transform="matrix(1.0002 .2506 0 1 7.9 -29.7)"/><use xlink:href="#d" width="19.3" height="10.8" transform="matrix(.07 -.2114 -.2114 -.07 4.75 -12.05)"/></g></g><g clip-path="url(#o)"><g transform="translate(156 34.65)"><use xlink:href="#c" width="9.2" height="4.3" transform="matrix(.6614 0 0 .7349 -3.7 -1.35)"/><use xlink:href="#d" width="19.3" height="10.8" transform="rotate(1.255 768.846 -54.084)scale(.2238)"/><use xlink:href="#e" width="8.9" height="5.3" transform="matrix(-.4258 -.2802 .2663 -.4047 4.8 -5.4)"/><use xlink:href="#e" width="8.9" height="5.3" transform="matrix(-.3989 -.3508 .2795 -.3178 -.85 -6.05)"/><use xlink:href="#f" width="8.7" height="11.8" transform="translate(-4.45 -19.15)"/><use xlink:href="#g" width="3.4" height="3.4" transform="translate(-4.8 -10.85)"/><use xlink:href="#h" width="15.6" height="20.3" transform="matrix(.9997 .2497 0 1 -3.05 -32.2)"/><use xlink:href="#i" width="5.5" height="15.3" transform="matrix(.9997 .2497 0 1 7.9 -29.75)"/><use xlink:href="#d" width="19.3" height="10.8" transform="matrix(.0755 -.2095 -.2095 -.0755 4.8 -12.15)"/></g></g><g clip-path="url(#p)"><g transform="translate(181 34.65)"><use xlink:href="#c" width="9.2" height="4.3" transform="matrix(.6614 0 0 .7349 -3.7 -1.35)"/><use xlink:href="#d" width="19.3" height="10.8" transform="rotate(2.998 323.44 -24.716)scale(.2237)"/><use xlink:href="#e" width="8.9" height="5.3" transform="matrix(-.4477 -.2072 .2007 -.4337 5.3 -6.15)"/><use xlink:href="#e" width="8.9" height="5.3" transform="matrix(-.4087 -.3091 .2554 -.3376 -.7 -6.4)"/><use xlink:href="#f" width="8.7" height="11.8" transform="translate(-4.45 -19.3)"/><use xlink:href="#g" width="3.4" height="3.4" transform="translate(-4.8 -11.1)"/><use xlink:href="#h" width="15.6" height="20.3" transform="matrix(1 .2456 0 1 -3.05 -32.4)"/><use xlink:href="#i" width="5.5" height="15.3" transform="matrix(1 .2456 0 1 7.9 -30)"/><use xlink:href="#d" width="19.3" height="10.8" transform="matrix(.0809 -.2074 -.2074 -.0809 4.8 -12.25)"/></g></g><g clip-path="url(#q)"><g transform="translate(206 34.65)"><use xlink:href="#c" width="9.2" height="4.3" transform="matrix(.6614 0 0 .7349 -3.7 -1.35)"/><use xlink:href="#d" width="19.3" height="10.8" transform="rotate(4.538 215.985 -19.3)scale(.2237)"/><use xlink:href="#e" width="8.9" height="5.3" transform="matrix(-.4574 -.1383 .1365 -.4516 5.75 -6.8)"/><use xlink:href="#e" width="8.9" height="5.3" transform="matrix(-.4135 -.2717 .2325 -.3538 -.7 -6.85)"/><use xlink:href="#f" width="8.7" height="11.8" transform="translate(-4.45 -19.45)"/><use xlink:href="#g" width="3.4" height="3.4" transform="translate(-4.85 -11.4)"/><use xlink:href="#h" width="15.6" height="20.3" transform="matrix(.9995 .2448 0 1 -3.05 -32.55)"/><use xlink:href="#i" width="5.5" height="15.3" transform="matrix(.9995 .2448 0 1 7.9 -30.15)"/><use xlink:href="#d" width="19.3" height="10.8" transform="matrix(.0854 -.2055 -.2055 -.0854 4.7 -12.35)"/></g></g><g clip-path="url(#r)"><g transform="translate(231 34.65)"><use xlink:href="#c" width="9.2" height="4.3" transform="matrix(.6614 0 0 .7349 -3.7 -1.35)"/><use xlink:href="#d" width="19.3" height="10.8" transform="rotate(6.032 163.28 -16.692)scale(.2236)"/><use xlink:href="#e" width="8.9" height="5.3" transform="matrix(-.4572 -.0749 .0754 -.4599 6.05 -7.45)"/><use xlink:href="#e" width="8.9" height="5.3" transform="matrix(-.4158 -.2359 .209 -.3683 -.65 -7.3)"/><use xlink:href="#f" width="8.7" height="11.8" transform="translate(-4.45 -19.55)"/><use xlink:href="#g" width="3.4" height="3.4" transform="translate(-4.85 -11.6)"/><use xlink:href="#h" width="15.6" height="20.3" transform="matrix(.9999 .2408 0 1 -3.05 -32.65)"/><use xlink:href="#i" width="5.5" height="15.3" transform="matrix(.9999 .2408 0 1 7.9 -30.35)"/><use xlink:href="#d" width="19.3" height="10.8" transform="matrix(.0899 -.2036 -.2036 -.0899 4.75 -12.45)"/></g></g><g clip-path="url(#s)"><g transform="translate(256 34.65)"><use xlink:href="#c" width="9.2" height="4.3" transform="matrix(.6614 0 0 .7349 -3.7 -1.35)"/><use xlink:href="#d" width="19.3" height="10.8" transform="rotate(7.503 131.517 -14.75)scale(.2236)"/><use xlink:href="#e" width="8.9" height="5.3" transform="matrix(-.4494 -.018 .0185 -.4603 6.25 -8.1)"/><use xlink:href="#e" width="8.9" height="5.3" transform="matrix(-.4154 -.2034 .1862 -.3803 -.65 -7.55)"/><use xlink:href="#f" width="8.7" height="11.8" transform="translate(-4.45 -19.7)"/><use xlink:href="#g" width="3.4" height="3.4" transform="translate(-4.9 -11.85)"/><use xlink:href="#h" width="15.6" height="20.3" transform="matrix(1.0002 .2368 0 1 -3.05 -32.8)"/><use xlink:href="#i" width="5.5" height="15.3" transform="matrix(1.0002 .2368 0 1 7.9 -30.5)"/><use xlink:href="#d" width="19.3" height="10.8" transform="matrix(.0942 -.2016 -.2016 -.0942 4.7 -12.45)"/></g></g><g clip-path="url(#t)"><g transform="translate(281 34.65)"><use xlink:href="#c" width="9.2" height="4.3" transform="matrix(.6614 0 0 .7349 -3.7 -1.35)"/><use xlink:href="#d" width="19.3" height="10.8" transform="rotate(8.771 113.06 -13.59)scale(.2236)"/><use xlink:href="#e" width="8.9" height="5.3" transform="matrix(-.4358 .0307 -.032 -.4544 6.45 -8.6)"/><use xlink:href="#e" width="8.9" height="5.3" transform="matrix(-.4123 -.1753 .1658 -.3898 -.55 -7.9)"/><use xlink:href="#f" width="8.7" height="11.8" transform="translate(-4.45 -19.8)"/><use xlink:href="#g" width="3.4" height="3.4" transform="translate(-4.9 -12.05)"/><use xlink:href="#h" width="15.6" height="20.3" transform="matrix(.9998 .2361 0 1 -3.05 -32.9)"/><use xlink:href="#i" width="5.5" height="15.3" transform="matrix(.9998 .2361 0 1 7.9 -30.6)"/><use xlink:href="#d" width="19.3" height="10.8" transform="matrix(.0978 -.1998 -.1998 -.0978 4.7 -12.5)"/></g></g><g clip-path="url(#u)"><g transform="translate(306 34.65)"><use xlink:href="#c" width="9.2" height="4.3" transform="matrix(.6614 0 0 .7349 -3.7 -1.35)"/><use xlink:href="#d" width="19.3" height="10.8" transform="rotate(10.018 99.168 -13.003)scale(.2236)"/><use xlink:href="#e" width="8.9" height="5.3" transform="matrix(-.4184 .0741 -.0786 -.4436 6.6 -9.1)"/><use xlink:href="#e" width="8.9" height="5.3" transform="matrix(-.4083 -.149 .1452 -.398 -.55 -8.2)"/><use xlink:href="#f" width="8.7" height="11.8" transform="translate(-4.45 -19.9)"/><use xlink:href="#g" width="3.4" height="3.4" transform="translate(-4.9 -12.25)"/><use xlink:href="#h" width="15.6" height="20.3" transform="matrix(.9995 .2355 0 1 -3.05 -33.05)"/><use xlink:href="#i" width="5.5" height="15.3" transform="matrix(.9995 .2355 0 1 7.9 -30.75)"/><use xlink:href="#d" width="19.3" height="10.8" transform="matrix(.1013 -.1981 -.1981 -.1013 4.7 -12.6)"/></g></g><g clip-path="url(#v)"><g transform="translate(331 34.65)"><use xlink:href="#c" width="9.2" height="4.3" transform="matrix(.6614 0 0 .7349 -3.7 -1.35)"/><use xlink:href="#d" width="19.3" height="10.8" transform="rotate(11.064 90.513 -12.414)scale(.2236)"/><use xlink:href="#e" width="8.9" height="5.3" transform="matrix(-.3987 .1111 -.1197 -.4297 6.6 -9.6)"/><use xlink:href="#e" width="8.9" height="5.3" transform="matrix(-.4032 -.1256 .126 -.4045 -.6 -8.5)"/><use xlink:href="#f" width="8.7" height="11.8" transform="translate(-4.45 -20)"/><use xlink:href="#g" width="3.4" height="3.4" transform="translate(-4.95 -12.45)"/><use xlink:href="#h" width="15.6" height="20.3" transform="matrix(.9999 .2317 0 1 -3.05 -33.1)"/><use xlink:href="#i" width="5.5" height="15.3" transform="matrix(.9999 .2317 0 1 7.9 -30.85)"/><use xlink:href="#d" width="19.3" height="10.8" transform="rotate(118.074 6.12 -4.93)scale(-.2225 .2225)"/></g></g><g clip-path="url(#w)"><g transform="translate(356 34.65)"><use xlink:href="#c" width="9.2" height="4.3" transform="matrix(.6614 0 0 .7349 -3.7 -1.35)"/><use xlink:href="#d" width="19.3" height="10.8" transform="rotate(12.059 83.462 -11.927)scale(.2235)"/><use xlink:href="#e" width="8.9" height="5.3" transform="matrix(-.3775 .1433 -.1568 -.4131 6.75 -10)"/><use xlink:href="#e" width="8.9" height="5.3" transform="matrix(-.3974 -.105 .1083 -.4097 -.55 -8.7)"/><use xlink:href="#f" width="8.7" height="11.8" transform="translate(-4.45 -20.1)"/><use xlink:href="#g" width="3.4" height="3.4" transform="translate(-4.95 -12.6)"/><use xlink:href="#h" width="15.6" height="20.3" transform="matrix(.9996 .2312 0 1 -3.05 -33.2)"/><use xlink:href="#i" width="5.5" height="15.3" transform="matrix(.9996 .2312 0 1 7.9 -30.95)"/><use xlink:href="#d" width="19.3" height="10.8" transform="matrix(.1073 -.1948 -.1948 -.1073 4.65 -12.8)"/></g></g><g clip-path="url(#x)"><g transform="translate(381 34.65)"><use xlink:href="#c" width="9.2" height="4.3" transform="matrix(.6614 0 0 .7349 -3.7 -1.35)"/><use xlink:href="#d" width="19.3" height="10.8" transform="rotate(13.06 77.914 -11.352)scale(.2235)"/><use xlink:href="#e" width="8.9" height="5.3" transform="rotate(154.68 4.537 -4.417)scale(.3947 .4382)"/><use xlink:href="#e" width="8.9" height="5.3" transform="matrix(-.3913 -.0872 .0921 -.4137 -.55 -8.95)"/><use xlink:href="#f" width="8.7" height="11.8" transform="translate(-4.45 -20.2)"/><use xlink:href="#g" width="3.4" height="3.4" transform="translate(-4.95 -12.75)"/><use xlink:href="#h" width="15.6" height="20.3" transform="matrix(1.0001 .2275 0 1 -3.05 -33.35)"/><use xlink:href="#i" width="5.5" height="15.3" transform="matrix(1.0001 .2275 0 1 7.9 -31.15)"/><use xlink:href="#d" width="19.3" height="10.8" transform="matrix(.1099 -.1934 -.1934 -.1099 4.6 -12.8)"/></g></g><g clip-path="url(#y)"><g transform="translate(406 34.65)"><use xlink:href="#c" width="9.2" height="4.3" transform="matrix(.6614 0 0 .7349 -3.7 -1.35)"/><use xlink:href="#d" width="19.3" height="10.8" transform="rotate(13.825 73.731 -11.45)scale(.2235)"/><use xlink:href="#e" width="8.9" height="5.3" transform="matrix(-.3363 .1906 -.2145 -.3783 6.8 -10.65)"/><use xlink:href="#e" width="8.9" height="5.3" transform="matrix(-.3852 -.0718 .0776 -.4167 -.6 -9.15)"/><use xlink:href="#f" width="8.7" height="11.8" transform="translate(-4.45 -20.25)"/><use xlink:href="#g" width="3.4" height="3.4" transform="translate(-4.95 -12.9)"/><use xlink:href="#h" width="15.6" height="20.3" transform="matrix(.9998 .2271 0 1 -3.05 -33.4)"/><use xlink:href="#i" width="5.5" height="15.3" transform="matrix(.9998 .2271 0 1 7.9 -31.2)"/><use xlink:href="#d" width="19.3" height="10.8" transform="matrix(.1124 -.1919 -.1919 -.1124 4.65 -12.8)"/></g></g><g clip-path="url(#z)"><g transform="translate(431 34.65)"><use xlink:href="#c" width="9.2" height="4.3" transform="matrix(.6614 0 0 .7349 -3.7 -1.35)"/><use xlink:href="#d" width="19.3" height="10.8" transform="rotate(14.565 70.348 -11.177)scale(.2235)"/><use xlink:href="#e" width="8.9" height="5.3" transform="matrix(-.3179 .2071 -.2359 -.3619 6.8 -10.85)"/><use xlink:href="#e" width="8.9" height="5.3" transform="matrix(-.3792 -.0587 .0648 -.419 -.7 -9.35)"/><use xlink:href="#f" width="8.7" height="11.8" transform="translate(-4.45 -20.35)"/><use xlink:href="#g" width="3.4" height="3.4" transform="translate(-4.95 -13)"/><use xlink:href="#h" width="15.6" height="20.3" transform="matrix(.9996 .2267 0 1 -3.05 -33.5)"/><use xlink:href="#i" width="5.5" height="15.3" transform="matrix(.9996 .2267 0 1 7.9 -31.3)"/><use xlink:href="#d" width="19.3" height="10.8" transform="matrix(.1147 -.1905 -.1905 -.1147 4.65 -12.9)"/></g></g><g clip-path="url(#A)"><g transform="translate(456 34.65)"><use xlink:href="#c" width="9.2" height="4.3" transform="matrix(.6614 0 0 .7349 -3.7 -1.35)"/><use xlink:href="#d" width="19.3" height="10.8" transform="rotate(15.287 67.001 -10.888)scale(.2234)"/><use xlink:href="#e" width="8.9" height="5.3" transform="matrix(-.3007 .2211 -.2544 -.346 6.8 -11.15)"/><use xlink:href="#e" width="8.9" height="5.3" transform="matrix(-.3737 -.0478 .0538 -.4206 -.7 -9.5)"/><use xlink:href="#f" width="8.7" height="11.8" transform="translate(-4.45 -20.4)"/><use xlink:href="#g" width="3.4" height="3.4" transform="translate(-5 -13.1)"/><use xlink:href="#h" width="15.6" height="20.3" transform="matrix(.9994 .2264 0 1 -3.05 -33.55)"/><use xlink:href="#i" width="5.5" height="15.3" transform="matrix(.9994 .2264 0 1 7.9 -31.35)"/><use xlink:href="#d" width="19.3" height="10.8" transform="matrix(.1164 -.1895 -.1895 -.1164 4.6 -13)"/></g></g><g clip-path="url(#B)"><g transform="translate(481 34.65)"><use xlink:href="#c" width="9.2" height="4.3" transform="matrix(.6614 0 0 .7349 -3.7 -1.35)"/><use xlink:href="#d" width="19.3" height="10.8" transform="rotate(15.79 65.01 -10.853)scale(.2234)"/><use xlink:href="#e" width="8.9" height="5.3" transform="matrix(-.2865 .231 -.2682 -.3327 6.75 -11.35)"/><use xlink:href="#e" width="8.9" height="5.3" transform="matrix(-.3688 -.0389 .0445 -.4217 -.7 -9.6)"/><use xlink:href="#f" width="8.7" height="11.8" transform="translate(-4.45 -20.45)"/><use xlink:href="#g" width="3.4" height="3.4" transform="translate(-5 -13.2)"/><use xlink:href="#h" width="15.6" height="20.3" transform="matrix(1 .2229 0 1 -3.05 -33.6)"/><use xlink:href="#i" width="5.5" height="15.3" transform="matrix(1 .2229 0 1 7.9 -31.4)"/><use xlink:href="#d" width="19.3" height="10.8" transform="matrix(.1174 -.1889 -.1889 -.1174 4.6 -13.1)"/></g></g><g clip-path="url(#C)"><g transform="translate(506 34.65)"><use xlink:href="#c" width="9.2" height="4.3" transform="matrix(.6614 0 0 .7349 -3.7 -1.35)"/><use xlink:href="#d" width="19.3" height="10.8" transform="rotate(16.294 63.141 -10.821)scale(.2235)"/><use xlink:href="#e" width="8.9" height="5.3" transform="matrix(-.2741 .2392 -.2799 -.3207 6.75 -11.45)"/><use xlink:href="#e" width="8.9" height="5.3" transform="matrix(-.3647 -.032 .037 -.4225 -.7 -9.75)"/><use xlink:href="#f" width="8.7" height="11.8" transform="translate(-4.45 -20.5)"/><use xlink:href="#g" width="3.4" height="3.4" transform="translate(-5 -13.25)"/><use xlink:href="#h" width="15.6" height="20.3" transform="matrix(.9998 .2226 0 1 -3.05 -33.6)"/><use xlink:href="#i" width="5.5" height="15.3" transform="matrix(.9998 .2226 0 1 7.9 -31.45)"/><use xlink:href="#d" width="19.3" height="10.8" transform="matrix(.1189 -.1879 -.1879 -.1189 4.55 -13.05)"/></g></g><g clip-path="url(#D)"><g transform="translate(531 34.65)"><use xlink:href="#c" width="9.2" height="4.3" transform="matrix(.6614 0 0 .7349 -3.7 -1.35)"/><use xlink:href="#d" width="19.3" height="10.8" transform="rotate(16.562 62.103 -10.793)scale(.2235)"/><use xlink:href="#e" width="8.9" height="5.3" transform="matrix(-.2642 .2451 -.2886 -.3111 6.8 -11.5)"/><use xlink:href="#e" width="8.9" height="5.3" transform="matrix(-.3614 -.0256 .03 -.423 -.7 -9.85)"/><use xlink:href="#f" width="8.7" height="11.8" transform="translate(-4.45 -20.5)"/><use xlink:href="#g" width="3.4" height="3.4" transform="translate(-5 -13.35)"/><use xlink:href="#h" width="15.6" height="20.3" transform="matrix(.9997 .2225 0 1 -3.05 -33.6)"/><use xlink:href="#i" width="5.5" height="15.3" transform="matrix(.9997 .2225 0 1 7.9 -31.45)"/><use xlink:href="#d" width="19.3" height="10.8" transform="matrix(.1198 -.1873 -.1873 -.1198 4.55 -13.1)"/></g></g><g clip-path="url(#E)"><g transform="translate(556 34.65)"><use xlink:href="#c" width="9.2" height="4.3" transform="matrix(.6614 0 0 .7349 -3.7 -1.35)"/><use xlink:href="#d" width="19.3" height="10.8" transform="rotate(16.805 61.332 -10.962)scale(.2234)"/><use xlink:href="#e" width="8.9" height="5.3" transform="matrix(-.2571 .2492 -.2946 -.304 6.8 -11.65)"/><use xlink:href="#e" width="8.9" height="5.3" transform="matrix(-.359 -.0222 .0261 -.4233 -.7 -9.85)"/><use xlink:href="#f" width="8.7" height="11.8" transform="translate(-4.45 -20.55)"/><use xlink:href="#g" width="3.4" height="3.4" transform="translate(-5 -13.35)"/><use xlink:href="#h" width="15.6" height="20.3" transform="matrix(.9996 .2224 0 1 -3.05 -33.65)"/><use xlink:href="#i" width="5.5" height="15.3" transform="matrix(.9996 .2224 0 1 7.9 -31.5)"/><use xlink:href="#d" width="19.3" height="10.8" transform="matrix(.1205 -.1868 -.1868 -.1205 4.55 -13.1)"/></g></g><g clip-path="url(#F)"><g transform="translate(581 34.65)"><use xlink:href="#c" width="9.2" height="4.3" transform="matrix(.6614 0 0 .7349 -3.7 -1.35)"/><use xlink:href="#d" width="19.3" height="10.8" transform="rotate(17.024 60.387 -10.745)scale(.2234)"/><use xlink:href="#e" width="8.9" height="5.3" transform="matrix(-.2529 .2515 -.2981 -.2998 6.85 -11.7)"/><use xlink:href="#e" width="8.9" height="5.3" transform="matrix(-.3575 -.0203 .0241 -.4234 -.7 -9.85)"/><use xlink:href="#f" width="8.7" height="11.8" transform="translate(-4.45 -20.55)"/><use xlink:href="#g" width="3.4" height="3.4" transform="translate(-5 -13.4)"/><use xlink:href="#h" width="15.6" height="20.3" transform="matrix(.9996 .2223 0 1 -3.05 -33.65)"/><use xlink:href="#i" width="5.5" height="15.3" transform="matrix(.9996 .2223 0 1 7.9 -31.5)"/><use xlink:href="#d" width="19.3" height="10.8" transform="matrix(.1206 -.1868 -.1868 -.1206 4.55 -13.1)"/></g></g><g clip-path="url(#G)"><g transform="translate(606 34.65)"><use xlink:href="#c" width="9.2" height="4.3" transform="matrix(.6614 0 0 .7349 -3.7 -1.35)"/><use xlink:href="#d" width="19.3" height="10.8" transform="rotate(17.114 60.062 -10.736)scale(.2236)"/><use xlink:href="#e" width="8.9" height="5.3" transform="matrix(-.2523 .2522 -.2993 -.2993 6.8 -11.75)"/><use xlink:href="#e" width="8.9" height="5.3" transform="matrix(-.357 -.0197 .0234 -.4236 -.7 -9.85)"/><use xlink:href="#f" width="8.7" height="11.8" transform="translate(-4.45 -20.55)"/><use xlink:href="#g" width="3.4" height="3.4" transform="translate(-5 -13.4)"/><use xlink:href="#h" width="15.6" height="20.3" transform="matrix(1 .2236 0 1 -3.05 -33.65)"/><use xlink:href="#i" width="5.5" height="15.3" transform="matrix(1 .2236 0 1 7.9 -31.45)"/><use xlink:href="#d" width="19.3" height="10.8" transform="matrix(.1213 -.1866 -.1866 -.1213 4.55 -13.1)"/></g></g><g clip-path="url(#H)"><g transform="translate(631 34.65)"><use xlink:href="#c" width="9.2" height="4.3" transform="matrix(.6614 0 0 .7349 -3.7 -1.35)"/><use xlink:href="#d" width="19.3" height="10.8" transform="rotate(17.048 60.299 -10.743)scale(.2234)"/><use xlink:href="#e" width="8.9" height="5.3" transform="matrix(-.2523 .2514 -.2983 -.2993 6.8 -11.7)"/><use xlink:href="#e" width="8.9" height="5.3" transform="matrix(-.357 -.019 .0225 -.4236 -.65 -9.75)"/><use xlink:href="#f" width="8.7" height="11.8" transform="matrix(1 0 0 .9984 -4.45 -20.5)"/><use xlink:href="#g" width="3.4" height="3.4" transform="translate(-5 -13.35)"/><use xlink:href="#h" width="15.6" height="20.3" transform="matrix(1.0008 .218 0 1 -3.05 -33.55)"/><use xlink:href="#i" width="5.5" height="15.3" transform="matrix(1.0008 .218 0 1 7.9 -31.5)"/><use xlink:href="#d" width="19.3" height="10.8" transform="matrix(.1207 -.1867 -.1867 -.1207 4.55 -13.1)"/></g></g><g clip-path="url(#I)"><g transform="translate(656 34.65)"><use xlink:href="#c" width="9.2" height="4.3" transform="matrix(.6614 0 0 .7349 -3.7 -1.35)"/><use xlink:href="#d" width="19.3" height="10.8" transform="rotate(17.048 59.631 -10.643)scale(.2234)"/><use xlink:href="#e" width="8.9" height="5.3" transform="matrix(-.2523 .2514 -.2983 -.2993 6.8 -11.5)"/><use xlink:href="#e" width="8.9" height="5.3" transform="matrix(-.357 -.019 .0225 -.4236 -.65 -9.55)"/><use xlink:href="#f" width="8.7" height="11.8" transform="matrix(1 0 0 .9938 -4.45 -20.2)"/><use xlink:href="#g" width="3.4" height="3.4" transform="translate(-5 -13.15)"/><use xlink:href="#h" width="15.6" height="20.3" transform="matrix(1.0044 .2054 0 1 -3.05 -33.35)"/><use xlink:href="#i" width="5.5" height="15.3" transform="matrix(1.0044 .2054 0 1 7.95 -31.4)"/><use xlink:href="#d" width="19.3" height="10.8" transform="matrix(.1207 -.1867 -.1867 -.1207 4.55 -12.9)"/></g></g><g clip-path="url(#J)"><g transform="translate(681 34.65)"><use xlink:href="#c" width="9.2" height="4.3" transform="matrix(.6614 0 0 .7349 -3.7 -1.35)"/><use xlink:href="#d" width="19.3" height="10.8" transform="rotate(17.048 58.63 -10.493)scale(.2234)"/><use xlink:href="#e" width="8.9" height="5.3" transform="matrix(-.2523 .2514 -.2983 -.2993 6.8 -11.2)"/><use xlink:href="#e" width="8.9" height="5.3" transform="matrix(-.357 -.019 .0225 -.4236 -.65 -9.25)"/><use xlink:href="#f" width="8.7" height="11.8" transform="matrix(1 0 0 .9861 -4.45 -19.8)"/><use xlink:href="#g" width="3.4" height="3.4" transform="translate(-5 -12.85)"/><use xlink:href="#h" width="15.6" height="20.3" transform="matrix(1.0095 .1874 0 1 -3.05 -33.05)"/><use xlink:href="#i" width="5.5" height="15.3" transform="matrix(1.0095 .1874 0 1 7.95 -31.3)"/><use xlink:href="#d" width="19.3" height="10.8" transform="matrix(.1207 -.1867 -.1867 -.1207 4.55 -12.6)"/></g></g><g clip-path="url(#K)"><g transform="translate(706 34.65)"><use xlink:href="#c" width="9.2" height="4.3" transform="matrix(.6614 0 0 .7349 -3.7 -1.35)"/><use xlink:href="#d" width="19.3" height="10.8" transform="rotate(17.048 57.13 -10.268)scale(.2234)"/><use xlink:href="#e" width="8.9" height="5.3" transform="matrix(-.2523 .2514 -.2983 -.2993 6.8 -10.75)"/><use xlink:href="#e" width="8.9" height="5.3" transform="matrix(-.357 -.019 .0225 -.4236 -.65 -8.8)"/><use xlink:href="#f" width="8.7" height="11.8" transform="matrix(1 0 0 .9752 -4.45 -19.25)"/><use xlink:href="#g" width="3.4" height="3.4" transform="translate(-5 -12.45)"/><use xlink:href="#h" width="15.6" height="20.3" transform="matrix(1.0167 .1575 0 1 -3.1 -32.55)"/><use xlink:href="#i" width="5.5" height="15.3" transform="matrix(1.0167 .1575 0 1 8.05 -31.1)"/><use xlink:href="#d" width="19.3" height="10.8" transform="matrix(.1207 -.1867 -.1867 -.1207 4.55 -12.15)"/></g></g><g clip-path="url(#L)"><g transform="translate(731 34.65)"><use xlink:href="#c" width="9.2" height="4.3" transform="matrix(.6614 0 0 .7349 -3.7 -1.35)"/><use xlink:href="#d" width="19.3" height="10.8" transform="rotate(17.048 55.295 -9.993)scale(.2234)"/><use xlink:href="#e" width="8.9" height="5.3" transform="matrix(-.2523 .2514 -.2983 -.2993 6.8 -10.2)"/><use xlink:href="#e" width="8.9" height="5.3" transform="matrix(-.357 -.019 .0225 -.4236 -.65 -8.25)"/><use xlink:href="#f" width="8.7" height="11.8" transform="matrix(1 0 0 .9612 -4.45 -18.6)"/><use xlink:href="#g" width="3.4" height="3.4" transform="translate(-5 -11.9)"/><use xlink:href="#h" width="15.6" height="20.3" transform="matrix(1.0243 .1219 0 1 -3.1 -31.95)"/><use xlink:href="#i" width="5.5" height="15.3" transform="matrix(1.0243 .1219 0 1 8.15 -30.95)"/><use xlink:href="#d" width="19.3" height="10.8" transform="matrix(.1207 -.1867 -.1867 -.1207 4.55 -11.6)"/></g></g><g clip-path="url(#M)"><g transform="translate(756 34.65)"><use xlink:href="#c" width="9.2" height="4.3" transform="matrix(.6614 0 0 .7349 -3.7 -1.35)"/><use xlink:href="#d" width="19.3" height="10.8" transform="rotate(17.048 52.96 -9.643)scale(.2234)"/><use xlink:href="#e" width="8.9" height="5.3" transform="matrix(-.2523 .2514 -.2983 -.2993 6.8 -9.5)"/><use xlink:href="#e" width="8.9" height="5.3" transform="matrix(-.357 -.019 .0225 -.4236 -.65 -7.55)"/><use xlink:href="#f" width="8.7" height="11.8" transform="matrix(1 0 0 .9442 -4.45 -17.65)"/><use xlink:href="#g" width="3.4" height="3.4" transform="translate(-5 -11.2)"/><use xlink:href="#h" width="15.6" height="20.3" transform="matrix(1.032 .0773 0 1 -3.1 -31.2)"/><use xlink:href="#i" width="5.5" height="15.3" transform="matrix(1.032 .0773 0 1 8.25 -30.65)"/><use xlink:href="#d" width="19.3" height="10.8" transform="matrix(.1207 -.1867 -.1867 -.1207 4.55 -10.9)"/></g></g><g clip-path="url(#N)"><g transform="translate(781 34.65)"><use xlink:href="#c" width="9.2" height="4.3" transform="matrix(.6614 0 0 .7349 -3.7 -1.35)"/><use xlink:href="#d" width="19.3" height="10.8" transform="rotate(17.048 50.29 -9.243)scale(.2234)"/><use xlink:href="#e" width="8.9" height="5.3" transform="matrix(-.2523 .2514 -.2983 -.2993 6.8 -8.7)"/><use xlink:href="#e" width="8.9" height="5.3" transform="matrix(-.357 -.019 .0225 -.4236 -.65 -6.75)"/><use xlink:href="#f" width="8.7" height="11.8" transform="matrix(1 0 0 .924 -4.45 -16.6)"/><use xlink:href="#g" width="3.4" height="3.4" transform="translate(-5 -10.4)"/><use xlink:href="#h" width="15.6" height="20.3" transform="matrix(1.0386 .0233 0 1 -3.1 -30.45)"/><use xlink:href="#i" width="5.5" height="15.3" transform="matrix(1.0386 .0233 0 1 8.3 -30.45)"/><use xlink:href="#d" width="19.3" height="10.8" transform="matrix(.1207 -.1867 -.1867 -.1207 4.55 -10.1)"/></g></g><g clip-path="url(#O)"><g transform="translate(806 34.65)"><use xlink:href="#c" width="9.2" height="4.3" transform="matrix(.6614 0 0 .7349 -3.7 -1.35)"/><use xlink:href="#d" width="19.3" height="10.8" transform="rotate(17.048 47.121 -8.768)scale(.2234)"/><use xlink:href="#e" width="8.9" height="5.3" transform="matrix(-.2523 .2514 -.2983 -.2993 6.8 -7.75)"/><use xlink:href="#e" width="8.9" height="5.3" transform="matrix(-.357 -.019 .0225 -.4236 -.65 -5.8)"/><use xlink:href="#f" width="8.7" height="11.8" transform="matrix(1 0 0 .9008 -4.45 -15.4)"/><use xlink:href="#g" width="3.4" height="3.4" transform="translate(-5 -9.5)"/><use xlink:href="#h" width="15.6" height="20.3" transform="matrix(1.0425 -.0366 0 1 -3.1 -29.45)"/><use xlink:href="#i" width="5.5" height="15.3" transform="matrix(1.0425 -.0366 0 1 8.35 -30.15)"/><use xlink:href="#d" width="19.3" height="10.8" transform="matrix(.1207 -.1867 -.1867 -.1207 4.55 -9.15)"/></g></g><g clip-path="url(#P)"><g transform="translate(831 34.65)"><use xlink:href="#c" width="9.2" height="4.3" transform="matrix(.6614 0 0 .7349 -3.7 -1.35)"/><use xlink:href="#d" width="19.3" height="10.8" transform="rotate(17.048 43.619 -8.243)scale(.2234)"/><use xlink:href="#e" width="8.9" height="5.3" transform="matrix(-.2523 .2514 -.2983 -.2993 6.8 -6.7)"/><use xlink:href="#e" width="8.9" height="5.3" transform="matrix(-.357 -.019 .0225 -.4236 -.65 -4.75)"/><use xlink:href="#f" width="8.7" height="11.8" transform="matrix(1 0 0 .8744 -4.45 -14)"/><use xlink:href="#g" width="3.4" height="3.4" transform="translate(-5 -8.5)"/><use xlink:href="#h" width="15.6" height="20.3" transform="matrix(1.0425 -.1058 0 1 -3.1 -28.3)"/><use xlink:href="#i" width="5.5" height="15.3" transform="matrix(1.0425 -.1058 0 1 8.35 -29.8)"/><use xlink:href="#d" width="19.3" height="10.8" transform="matrix(.1207 -.1867 -.1867 -.1207 4.55 -8.1)"/></g></g><g clip-path="url(#Q)"><g transform="translate(856 34.65)"><use xlink:href="#c" width="9.2" height="4.3" transform="matrix(.6614 0 0 .7349 -3.7 -1.35)"/><use xlink:href="#d" width="19.3" height="10.8" transform="rotate(17.048 39.615 -7.643)scale(.2234)"/><use xlink:href="#e" width="8.9" height="5.3" transform="matrix(-.2523 .2514 -.2983 -.2993 6.8 -5.5)"/><use xlink:href="#e" width="8.9" height="5.3" transform="matrix(-.357 -.019 .0225 -.4236 -.65 -3.55)"/><use xlink:href="#f" width="8.7" height="11.8" transform="matrix(1 0 0 .845 -4.45 -12.45)"/><use xlink:href="#g" width="3.4" height="3.4" transform="translate(-5 -7.3)"/><use xlink:href="#h" width="15.6" height="20.3" transform="matrix(1.0363 -.1876 0 1 -3.1 -27.05)"/><use xlink:href="#i" width="5.5" height="15.3" transform="matrix(1.0363 -.1876 0 1 8.25 -29.4)"/><use xlink:href="#d" width="19.3" height="10.8" transform="matrix(.1207 -.1867 -.1867 -.1207 4.55 -6.9)"/></g></g><g clip-path="url(#R)"><g transform="translate(881 34.65)"><use xlink:href="#c" width="9.2" height="4.3" transform="matrix(.6614 0 0 .7349 -3.7 -1.35)"/><use xlink:href="#d" width="19.3" height="10.8" transform="rotate(17.048 35.278 -6.993)scale(.2234)"/><use xlink:href="#e" width="8.9" height="5.3" transform="matrix(-.2523 .2514 -.2983 -.2993 6.8 -4.2)"/><use xlink:href="#e" width="8.9" height="5.3" transform="matrix(-.357 -.019 .0225 -.4236 -.65 -2.25)"/><use xlink:href="#f" width="8.7" height="11.8" transform="matrix(1 0 0 .8124 -4.45 -10.7)"/><use xlink:href="#g" width="3.4" height="3.4" transform="translate(-5 -6.05)"/><use xlink:href="#h" width="15.6" height="20.3" transform="matrix(1.0227 -.2746 0 1 -3.05 -25.65)"/><use xlink:href="#i" width="5.5" height="15.3" transform="matrix(1.0227 -.2746 0 1 8.15 -29)"/><use xlink:href="#d" width="19.3" height="10.8" transform="matrix(.1207 -.1867 -.1867 -.1207 4.55 -5.6)"/></g></g><g clip-path="url(#S)"><g transform="translate(906 34.65)"><use xlink:href="#c" width="9.2" height="4.3" transform="matrix(.6614 0 0 .7349 -3.7 -1.35)"/><use xlink:href="#d" width="19.3" height="10.8" transform="rotate(17.114 30.155 -6.236)scale(.2236)"/><use xlink:href="#e" width="8.9" height="5.3" transform="matrix(-.2523 .2522 -.2993 -.2993 6.8 -2.75)"/><use xlink:href="#e" width="8.9" height="5.3" transform="matrix(-.357 -.0197 .0234 -.4236 -.7 -.85)"/><use xlink:href="#f" width="8.7" height="11.8" transform="matrix(1 0 0 .7768 -4.45 -8.85)"/><use xlink:href="#g" width="3.4" height="3.4" transform="translate(-5 -4.65)"/><use xlink:href="#h" width="15.6" height="20.3" transform="matrix(1 -.3706 0 1 -3.05 -24.2)"/><use xlink:href="#i" width="5.5" height="15.3" transform="matrix(1 -.3706 0 1 7.9 -28.55)"/><use xlink:href="#d" width="19.3" height="10.8" transform="matrix(.1213 -.1866 -.1866 -.1213 4.55 -4.1)"/></g></g><g clip-path="url(#T)"><g transform="translate(931 34.65)"><use xlink:href="#c" width="9.2" height="4.3" transform="matrix(.6614 0 0 .7349 -3.7 -1.35)"/><use xlink:href="#d" width="19.3" height="10.8" transform="rotate(17.031 35.148 -6.97)scale(.2233)"/><use xlink:href="#e" width="8.9" height="5.3" transform="matrix(-.3387 .1104 -.131 -.4018 6.8 -2.6)"/><use xlink:href="#e" width="8.9" height="5.3" transform="matrix(-.3496 -.0731 .0867 -.4148 -.8 -1.4)"/><use xlink:href="#f" width="8.7" height="11.8" transform="matrix(1 0 0 .7768 -4.45 -10.3)"/><use xlink:href="#g" width="3.4" height="3.4" transform="translate(-5 -4.8)"/><use xlink:href="#h" width="15.6" height="20.3" transform="matrix(1.1098 .157 0 1 -3.15 -27.2)"/><use xlink:href="#i" width="5.5" height="15.3" transform="matrix(1.1098 .157 0 1 9 -25.75)"/><use xlink:href="#d" width="19.3" height="10.8" transform="matrix(.1206 -.1867 -.1867 -.1206 4.55 -5.45)"/></g></g><g clip-path="url(#U)"><g transform="translate(956 34.65)"><use xlink:href="#c" width="9.2" height="4.3" transform="matrix(.6614 0 0 .7349 -3.7 -1.35)"/><use xlink:href="#d" width="19.3" height="10.8" transform="rotate(17.031 38.988 -7.545)scale(.2233)"/><use xlink:href="#e" width="8.9" height="5.3" transform="matrix(-.3556 -.0234 .0277 -.4219 6.3 -2.5)"/><use xlink:href="#e" width="8.9" height="5.3" transform="matrix(-.3373 -.1165 .1382 -.4003 -1 -1.75)"/><use xlink:href="#f" width="8.7" height="11.8" transform="matrix(1 0 0 .7768 -4.45 -11.45)"/><use xlink:href="#g" width="3.4" height="3.4" transform="translate(-5 -4.9)"/><use xlink:href="#h" width="15.6" height="20.3" transform="matrix(1.0423 .4927 0 1 -3.1 -28.95)"/><use xlink:href="#i" width="5.5" height="15.3" transform="matrix(1.0423 .4927 0 1 8.35 -23.85)"/><use xlink:href="#d" width="19.3" height="10.8" transform="matrix(.1205 -.1867 -.1867 -.1205 4.55 -6.65)"/></g></g><g clip-path="url(#V)"><g transform="translate(981 34.65)"><use xlink:href="#c" width="9.2" height="4.3" transform="matrix(.6614 0 0 .7349 -3.7 -1.35)"/><use xlink:href="#d" width="19.3" height="10.8" transform="rotate(17.031 41.993 -7.995)scale(.2233)"/><use xlink:href="#e" width="8.9" height="5.3" transform="matrix(-.3327 -.1264 .1499 -.3947 5.75 -2.45)"/><use xlink:href="#e" width="8.9" height="5.3" transform="matrix(-.3244 -.1484 .176 -.3848 -1.1 -2)"/><use xlink:href="#f" width="8.7" height="11.8" transform="matrix(1 0 0 .7768 -4.45 -12.35)"/><use xlink:href="#g" width="3.4" height="3.4" transform="translate(-5 -5)"/><use xlink:href="#h" width="15.6" height="20.3" transform="matrix(.9988 .6004 0 1 -3.05 -29.55)"/><use xlink:href="#i" width="5.5" height="15.3" transform="matrix(.9353 .4005 .1508 .9647 7.05 -24.35)"/><use xlink:href="#d" width="19.3" height="10.8" transform="matrix(.1205 -.1866 -.1866 -.1205 4.6 -7.55)"/></g></g><g clip-path="url(#W)"><g transform="translate(1006 34.65)"><use xlink:href="#c" width="9.2" height="4.3" transform="matrix(.6614 0 0 .7349 -3.7 -1.35)"/><use xlink:href="#d" width="19.3" height="10.8" transform="rotate(17.039 44.31 -8.344)scale(.2232)"/><use xlink:href="#e" width="8.9" height="5.3" transform="matrix(-.298 -.194 .2302 -.3536 5.2 -2.6)"/><use xlink:href="#e" width="8.9" height="5.3" transform="matrix(-.3131 -.1706 .2024 -.3715 -1.2 -2.25)"/><use xlink:href="#f" width="8.7" height="11.8" transform="matrix(1 0 0 .7768 -4.45 -13.05)"/><use xlink:href="#g" width="3.4" height="3.4" transform="translate(-5 -5.05)"/><use xlink:href="#h" width="15.6" height="20.3" transform="matrix(.9999 .5913 -.0003 1 -3.05 -29.55)"/><use xlink:href="#i" width="5.5" height="15.3" transform="matrix(.9364 .392 .1507 .9633 7.05 -24.4)"/><use xlink:href="#d" width="19.3" height="10.8" transform="matrix(.1205 -.1866 -.1866 -.1205 4.6 -8.2)"/></g></g><g clip-path="url(#X)"><g transform="translate(1031 34.65)"><use xlink:href="#c" width="9.2" height="4.3" transform="matrix(.6614 0 0 .7349 -3.7 -1.35)"/><use xlink:href="#d" width="19.3" height="10.8" transform="rotate(17.039 45.48 -8.519)scale(.2232)"/><use xlink:href="#e" width="8.9" height="5.3" transform="matrix(-.271 -.2302 .2731 -.3215 4.95 -2.75)"/><use xlink:href="#e" width="8.9" height="5.3" transform="matrix(-.3054 -.184 .2183 -.3623 -1.35 -2.55)"/><use xlink:href="#f" width="8.7" height="11.8" transform="matrix(1 0 0 .7768 -4.45 -13.4)"/><use xlink:href="#g" width="3.4" height="3.4" transform="translate(-5 -5.1)"/><use xlink:href="#h" width="15.6" height="20.3" transform="matrix(1.0047 .5708 -.0045 1 -2.95 -29.3)"/><use xlink:href="#i" width="5.5" height="15.3" transform="matrix(.9415 .3728 .1478 .9602 7.2 -24.35)"/><use xlink:href="#d" width="19.3" height="10.8" transform="rotate(122.831 4.63 -3.022)scale(-.222 .222)"/></g></g><g clip-path="url(#Y)"><g transform="translate(1056 34.65)"><use xlink:href="#c" width="9.2" height="4.3" transform="matrix(.6614 0 0 .7349 -3.7 -1.35)"/><use xlink:href="#d" width="19.3" height="10.8" transform="rotate(17.048 45.954 -8.593)scale(.2234)"/><use xlink:href="#e" width="8.9" height="5.3" transform="matrix(-.2613 -.2419 .287 -.3101 4.75 -2.8)"/><use xlink:href="#e" width="8.9" height="5.3" transform="matrix(-.3032 -.1885 .2236 -.3597 -1.35 -2.5)"/><use xlink:href="#f" width="8.7" height="11.8" transform="matrix(1 0 0 .7768 -4.45 -13.55)"/><use xlink:href="#g" width="3.4" height="3.4" transform="translate(-5 -5.1)"/><use xlink:href="#h" width="15.6" height="20.3" transform="matrix(1.0107 .539 -.0092 .9999 -2.85 -29)"/><use xlink:href="#i" width="5.5" height="15.3" transform="matrix(.9479 .3431 .1445 .9554 7.3 -24.4)"/><use xlink:href="#d" width="19.3" height="10.8" transform="matrix(.1207 -.1867 -.1867 -.1207 4.55 -8.75)"/></g></g><g clip-path="url(#Z)"><g transform="translate(1081 34.65)"><use xlink:href="#c" width="9.2" height="4.3" transform="matrix(.6614 0 0 .7349 -3.7 -1.35)"/><use xlink:href="#d" width="19.3" height="10.8" transform="rotate(17.039 45.48 -8.519)scale(.2232)"/><use xlink:href="#e" width="8.9" height="5.3" transform="matrix(-.2637 -.2385 .283 -.3129 4.7 -2.7)"/><use xlink:href="#e" width="8.9" height="5.3" transform="matrix(-.3054 -.184 .2183 -.3623 -1.25 -2.55)"/><use xlink:href="#f" width="8.7" height="11.8" transform="matrix(1 0 0 .7768 -4.45 -13.4)"/><use xlink:href="#g" width="3.4" height="3.4" transform="translate(-5 -5.1)"/><use xlink:href="#h" width="15.6" height="20.3" transform="matrix(1.0183 .4926 -.0179 .9997 -2.65 -28.55)"/><use xlink:href="#i" width="5.5" height="15.3" transform="matrix(.9564 .2996 .1381 .9482 7.6 -24.4)"/><use xlink:href="#d" width="19.3" height="10.8" transform="rotate(-57.169 -5.571 -8.45)scale(.222 -.222)"/></g></g><g clip-path="url(#aa)"><g transform="translate(1106 34.65)"><use xlink:href="#c" width="9.2" height="4.3" transform="matrix(.6614 0 0 .7349 -3.7 -1.35)"/><use xlink:href="#d" width="19.3" height="10.8" transform="rotate(17.039 44.31 -8.344)scale(.2232)"/><use xlink:href="#e" width="8.9" height="5.3" transform="matrix(-.271 -.2302 .2732 -.3215 4.45 -2.25)"/><use xlink:href="#e" width="8.9" height="5.3" transform="matrix(-.3131 -.1706 .2024 -.3715 -1.25 -2.4)"/><use xlink:href="#f" width="8.7" height="11.8" transform="matrix(1 0 0 .7768 -4.45 -13.05)"/><use xlink:href="#g" width="3.4" height="3.4" transform="translate(-5 -5)"/><use xlink:href="#h" width="15.6" height="20.3" transform="matrix(1.0257 .4319 -.0271 .9994 -2.6 -27.95)"/><use xlink:href="#i" width="5.5" height="15.3" transform="matrix(.9648 .2428 .1311 .9388 7.85 -24.4)"/><use xlink:href="#d" width="19.3" height="10.8" transform="matrix(.1205 -.1866 -.1866 -.1205 4.55 -8.2)"/></g></g><g clip-path="url(#ab)"><g transform="translate(1131 34.65)"><use xlink:href="#c" width="9.2" height="4.3" transform="matrix(.6614 0 0 .7349 -3.7 -1.35)"/><use xlink:href="#d" width="19.3" height="10.8" transform="rotate(17.031 41.993 -7.995)scale(.2233)"/><use xlink:href="#e" width="8.9" height="5.3" transform="matrix(-.2827 -.2157 .2559 -.3354 4.25 -1.5)"/><use xlink:href="#e" width="8.9" height="5.3" transform="matrix(-.3244 -.1484 .176 -.3848 -1.15 -2.05)"/><use xlink:href="#f" width="8.7" height="11.8" transform="matrix(1 0 0 .7768 -4.45 -12.35)"/><use xlink:href="#g" width="3.4" height="3.4" transform="translate(-5 -4.9)"/><use xlink:href="#h" width="15.6" height="20.3" transform="matrix(1.0292 .3608 -.0401 .9989 -2.35 -27.3)"/><use xlink:href="#i" width="5.5" height="15.3" transform="matrix(.9702 .1763 .1203 .9276 8.05 -24.45)"/><use xlink:href="#d" width="19.3" height="10.8" transform="matrix(.1205 -.1866 -.1866 -.1205 4.55 -7.55)"/></g></g><g clip-path="url(#ac)"><g transform="translate(1156 34.65)"><use xlink:href="#c" width="9.2" height="4.3" transform="matrix(.6614 0 0 .7349 -3.7 -1.35)"/><use xlink:href="#d" width="19.3" height="10.8" transform="rotate(17.031 38.988 -7.545)scale(.2233)"/><use xlink:href="#e" width="8.9" height="5.3" transform="matrix(-.298 -.1941 .2303 -.3536 3.7 -.65)"/><use xlink:href="#e" width="8.9" height="5.3" transform="matrix(-.3373 -.1165 .1382 -.4002 -1.05 -1.8)"/><use xlink:href="#f" width="8.7" height="11.8" transform="matrix(1 0 0 .7768 -4.45 -11.45)"/><use xlink:href="#g" width="3.4" height="3.4" transform="translate(-5 -4.8)"/><use xlink:href="#h" width="15.6" height="20.3" transform="matrix(1.0267 .2802 -.0571 .998 -2 -26.5)"/><use xlink:href="#i" width="5.5" height="15.3" transform="matrix(.9706 .101 .1051 .9146 8.45 -24.45)"/><use xlink:href="#d" width="19.3" height="10.8" transform="matrix(.1205 -.1867 -.1867 -.1205 4.55 -6.65)"/></g></g><g clip-path="url(#ad)"><g transform="translate(1181 34.65)"><use xlink:href="#c" width="9.2" height="4.3" transform="matrix(.6614 0 0 .7349 -3.7 -1.35)"/><use xlink:href="#d" width="19.3" height="10.8" transform="rotate(17.031 35.148 -6.97)scale(.2233)"/><use xlink:href="#e" width="8.9" height="5.3" transform="matrix(-.3154 -.1647 .1954 -.3742 3.15 .6)"/><use xlink:href="#e" width="8.9" height="5.3" transform="matrix(-.3496 -.0731 .0867 -.4148 -.85 -1.4)"/><use xlink:href="#f" width="8.7" height="11.8" transform="matrix(1 0 0 .7768 -4.45 -10.3)"/><use xlink:href="#g" width="3.4" height="3.4" transform="translate(-5 -4.6)"/><use xlink:href="#h" width="15.6" height="20.3" transform="matrix(1.0172 .1849 -.0746 .9967 -1.55 -25.6)"/><use xlink:href="#i" width="5.5" height="15.3" transform="matrix(.9646 .012 .0884 .8991 8.7 -24.5)"/><use xlink:href="#d" width="19.3" height="10.8" transform="matrix(.1206 -.1867 -.1867 -.1206 4.55 -5.45)"/></g></g><g clip-path="url(#ae)"><g transform="translate(1206 34.65)"><use xlink:href="#c" width="9.2" height="4.3" transform="matrix(.6614 0 0 .7349 -3.7 -1.35)"/><use xlink:href="#d" width="19.3" height="10.8" transform="rotate(17.114 30.155 -6.236)scale(.2236)"/><use xlink:href="#e" width="8.9" height="5.3" transform="matrix(-.3328 -.1274 .1511 -.3948 2.45 2)"/><use xlink:href="#e" width="8.9" height="5.3" transform="matrix(-.357 -.0197 .0234 -.4236 -.7 -.85)"/><use xlink:href="#f" width="8.7" height="11.8" transform="matrix(1 0 0 .7768 -4.45 -8.85)"/><use xlink:href="#g" width="3.4" height="3.4" transform="translate(-5 -4.4)"/><use xlink:href="#h" width="15.6" height="20.3" transform="matrix(.9959 .0866 -.0961 .995 -1.2 -24.45)"/><use xlink:href="#i" width="5.5" height="15.3" transform="matrix(.8584 -.2419 .2928 1.0684 9.3 -23.65)"/><use xlink:href="#d" width="19.3" height="10.8" transform="matrix(.1213 -.1866 -.1866 -.1213 4.55 -4.1)"/></g></g><g clip-path="url(#af)"><g transform="translate(1231 34.65)"><use xlink:href="#c" width="9.2" height="4.3" transform="matrix(.6614 0 0 .7349 -3.7 -1.35)"/><use xlink:href="#d" width="19.3" height="10.8" transform="rotate(17.114 30.155 -6.236)scale(.2236)"/><use xlink:href="#e" width="8.9" height="5.3" transform="matrix(-.3328 -.1274 .1511 -.3948 2.45 2)"/><use xlink:href="#e" width="8.9" height="5.3" transform="matrix(-.357 -.0197 .0234 -.4236 -.7 -.85)"/><use xlink:href="#f" width="8.7" height="11.8" transform="matrix(1 0 0 .7768 -4.45 -8.85)"/><use xlink:href="#g" width="3.4" height="3.4" transform="translate(-5 -4.4)"/><use xlink:href="#h" width="15.6" height="20.3" transform="matrix(.9959 .0866 -.0961 .995 -1.2 -24.45)"/><use xlink:href="#i" width="5.5" height="15.3" transform="matrix(.8173 -.2151 .2921 1.144 9.4 -22.85)"/><use xlink:href="#d" width="19.3" height="10.8" transform="matrix(.1213 -.1866 -.1866 -.1213 4.55 -4.1)"/></g></g><g clip-path="url(#ag)"><g transform="translate(1256 34.65)"><use xlink:href="#c" width="9.2" height="4.3" transform="matrix(.6614 0 0 .7349 -3.7 -1.35)"/><use xlink:href="#d" width="19.3" height="10.8" transform="rotate(17.114 30.155 -6.236)scale(.2236)"/><use xlink:href="#e" width="8.9" height="5.3" transform="matrix(-.3328 -.1274 .1511 -.3948 2.45 2)"/><use xlink:href="#e" width="8.9" height="5.3" transform="matrix(-.357 -.0197 .0234 -.4236 -.7 -.85)"/><use xlink:href="#f" width="8.7" height="11.8" transform="matrix(1 0 0 .7768 -4.45 -8.85)"/><use xlink:href="#g" width="3.4" height="3.4" transform="translate(-5 -4.4)"/><use xlink:href="#h" width="15.6" height="20.3" transform="matrix(.9959 .0866 -.0961 .995 -1.2 -24.45)"/><use xlink:href="#i" width="5.5" height="15.3" transform="matrix(.7669 -.1849 .2885 1.238 9.7 -21.7)"/><use xlink:href="#d" width="19.3" height="10.8" transform="matrix(.1213 -.1866 -.1866 -.1213 4.55 -4.1)"/></g></g></svg>