<svg xmlns="http://www.w3.org/2000/svg" xmlns:xlink="http://www.w3.org/1999/xlink" width="1191" height="44" viewBox="0 0 1191 44"><defs><clipPath id="m"><path d="M1 1h33v42H1z"/></clipPath><clipPath id="p"><path d="M35 1h33v42H35z"/></clipPath><clipPath id="q"><path d="M69 1h33v42H69z"/></clipPath><clipPath id="r"><path d="M103 1h33v42h-33z"/></clipPath><clipPath id="s"><path d="M137 1h33v42h-33z"/></clipPath><clipPath id="t"><path d="M171 1h33v42h-33z"/></clipPath><clipPath id="u"><path d="M205 1h33v42h-33z"/></clipPath><clipPath id="v"><path d="M239 1h33v42h-33z"/></clipPath><clipPath id="w"><path d="M273 1h33v42h-33z"/></clipPath><clipPath id="x"><path d="M307 1h33v42h-33z"/></clipPath><clipPath id="y"><path d="M341 1h33v42h-33z"/></clipPath><clipPath id="z"><path d="M375 1h33v42h-33z"/></clipPath><clipPath id="A"><path d="M409 1h33v42h-33z"/></clipPath><clipPath id="B"><path d="M443 1h33v42h-33z"/></clipPath><clipPath id="C"><path d="M477 1h33v42h-33z"/></clipPath><clipPath id="D"><path d="M511 1h33v42h-33z"/></clipPath><clipPath id="E"><path d="M545 1h33v42h-33z"/></clipPath><clipPath id="F"><path d="M579 1h33v42h-33z"/></clipPath><clipPath id="G"><path d="M613 1h33v42h-33z"/></clipPath><clipPath id="H"><path d="M647 1h33v42h-33z"/></clipPath><clipPath id="I"><path d="M681 1h33v42h-33z"/></clipPath><clipPath id="J"><path d="M715 1h33v42h-33z"/></clipPath><clipPath id="K"><path d="M749 1h33v42h-33z"/></clipPath><clipPath id="L"><path d="M783 1h33v42h-33z"/></clipPath><clipPath id="M"><path d="M817 1h33v42h-33z"/></clipPath><clipPath id="N"><path d="M851 1h33v42h-33z"/></clipPath><clipPath id="O"><path d="M885 1h33v42h-33z"/></clipPath><clipPath id="P"><path d="M919 1h33v42h-33z"/></clipPath><clipPath id="Q"><path d="M953 1h33v42h-33z"/></clipPath><clipPath id="R"><path d="M987 1h33v42h-33z"/></clipPath><clipPath id="S"><path d="M1021 1h33v42h-33z"/></clipPath><clipPath id="T"><path d="M1055 1h33v42h-33z"/></clipPath><clipPath id="U"><path d="M1089 1h33v42h-33z"/></clipPath><clipPath id="V"><path d="M1123 1h33v42h-33z"/></clipPath><clipPath id="W"><path d="M1157 1h33v42h-33z"/></clipPath><g id="h"><path fill="#9ead76" d="M9.9 3.6v-.1z"/><path fill="#b3c07a" d="M9.9 3.6v-.1L7.5 0q5.6 1.5 6.3 2.3.7.9.5 1.4l-1.7 6-2-4.3-5.5 1.4-.1-.1h-.1l.3 7.8 1.4 1.8q-2.1 1.5-3.9 1.3-1.4-.1-2.7-1.3L1 13l1-7.2.2-.7 2-.5L4 4z"/></g><g id="i"><path fill="#9b927d" d="m14.9 20.2-.1-.1z"/><path fill="#e3d0a5" d="M12.6 4.3q1.5-2.5 4.2-4l.5-.2q.8-.2 1.9.4 1.5.8 2.4 2.7.8 1.4 1 3Q20.3 8.5 18 8l-.6-1.2-.1-.1-1.5-1.9Q14.4 3.4 13 4z"/><path fill="#93876c" d="M22.6 6.2v.6q0 1.8-1 2.4l-.2.2-.5.1-1.9.3h-.1.1-.1l-.3-.6-.6-1.1q2.3.4 4.6-2"/><path fill="#9b927d" d="m13.5 14-.4.1z"/><path fill="#000" d="M18.9 9.9q-1.5 1.9-2.5 1.7l-.2-1.2-.4-1.2L18 8.1l.6 1.1zm-6.6 3.6q-2.1 1.4-3.1 1.3l.5-1.2v-.2l.1-.4v-.2l-.2-.5 2.4-1.2.1 1.3z"/><path fill="#80755e" d="M16.4 11.6h-.1l-.3.3.1.4-1.5 1.5-1.1.3h-.4l-.8-.2v-.4l-.2-1.1-.2-1.3q1.7.3 3.8-1.9l.4 1.2zm-6.9 2.1q-.3 1-.9 2t-2.2 1.6q.6-.7.6-2v-1l-.3-1-.7-1.6L5 10 3.5 9q-1.3-.7-2.3-.2l-.2.1q-1 .7-1 2.5T1 15l1.2 1.6q.6.6 1.3 1l.4.2 1.6.1.9-.6q.5-.7.5-2v-1l2.6-2 .1.5v.6zm-5.9 1.9q1.6 0 1.2-2l-1-1.7q-.6-.7-1-.7-.7-.1-1.1.6-.4 1.7.6 3.6L4 17.8l-1.7-2.4q-1-1.9-.6-3.6.4-.7 1-.6t1 .7L5 13.6q.3 2-1.3 2"/><path fill="#b6ae9e" d="M9.7 13.7h-.2l.2-.3.1-.3v-.3l-.2.6zm-3.2 3.6-.5.4-.4.3z"/><path fill="#b3a482" d="M1.3 8.8q1.4-1.6 4.2-.7 1.2.1 2 .7l.7.6 1 1.5.4 1.4-2.7 2-.2-1-.7-1.6L5 10 3.5 9q-1.3-.7-2.3-.2"/><path fill="#4e433a" d="m5.5 8 2.2-1.4q1.4 0 2.5.9l.4.5-2.4 1.4-.7-.6q-.9-.6-2-.7m6-3.3 1.1-.5.5-.2q1.3-.6 2.7.8l-2 1.3-.4-.3q-.9-.7-1.9-1.1m5.7 2 .2.1.6 1.2-2.2 1.1-.7-1.3zm-5.6 2.9.4 1.4-2.3 1.2-.5-1.4z"/><path fill="#c5b58f" d="M7.7 6.6q1-1.3 3.8-1.8 1 .4 1.9 1l.4.3L15 7.9l.7 1.4q-2.2 2.2-3.9 1.9l-.4-1.4-.9-1.7-.4-.5q-1.1-1-2.5-1"/><path fill="#928d7e" d="m15.9 4.9 1.3 1.9-2 1-1.4-1.6zM10.6 8l1 1.7L9 10.9l-.9-1.5z"/><path fill="none" stroke="#000" stroke-linecap="round" stroke-linejoin="round" stroke-opacity=".4" stroke-width="__RESOLUTION__" d="M12.6 4.3q1.5-2.5 4.2-4l.5-.2q.8-.2 1.9.4 1.5.8 2.4 2.7.8 1.4 1 3v.6q0 1.8-1 2.4l-.3.2-.5.1-1.8.3h-.1l-.3-.6-.6-1.1-.6-1.2-.1-.1-1.5-1.9q-1.4-1.4-2.8-.8zl-1.1.5q-2.7.5-3.8 1.8L5.5 8q-2.8-.9-4.2.7l-.2.1q-1 .7-1 2.5t1 3.6l1.2 1.6q.6.6 1.3 1l.4.2 1.6.1.4-.2.5-.4q1.4-.6 2.1-1.6t.9-2h.2l-.5 1.1m7.1-3.2-.2.7-1.5 1.5-1.1.3-.4.1v0l-.8-.3v-.5l-.1-1L12 11l-.4-1.4-1-1.7-.4-.5q-1.1-1-2.5-1m8 2.7.5 1.2.2 1.2M13.8 6 15 7.8l.6 1.4m-6 3.1v.5l.1.2-.2.4v.2m4.1-7.5-.3-.3q-.9-.7-1.9-1M7 14.2l-.2-1-.8-1.6L5 10 3.6 9q-1.3-.7-2.3-.2m6.9.6-.7-.6q-.9-.6-2-.7M4 17.8l-1.7-2.4q-1-1.9-.6-3.6.4-.7 1-.6t1 .7L5 13.6q.3 2-1.3 2M7 14.3l.1 1q0 1.3-.5 2l-.9.7m3.6-7.1.5 1.4m0 .5v.6l-.2.3M8.2 9.4l1 1.5" vector-effect="non-scaling-stroke"/><path fill="#acaea6" d="m12.3 14.6-2.4 1.8-.5.4.2-1q.1-1.3-.1-3.2l3.1-2.5-.1 1.1v.3l.3 2.8zm.2-4v.6zm-.9 2.7-1.3.9z"/><path fill="#000" d="m9.9 16.4 2.4-1.8v1.7l.1.4-2.6 1.6v-.5z"/><path fill="#4e453a" d="m12.4 16.7.7 1.9v.1L10 20.8l-.2-2.5z"/><path fill="#cdceca" d="m13.2 18.7.6 1.3-1.1 2-2.2.2-.6-1.4z"/><path fill="none" stroke="#000" stroke-linecap="round" stroke-linejoin="round" stroke-opacity=".4" stroke-width="__RESOLUTION__" d="m9.9 16.4 2.4-1.8.5-.3-.4-2.8v-.9m-2.2 3.6 1.4-.9m.7 1.3q-.2.9 0 1.7l.1.4.7 1.9v.1h.2l.6 1.3-1.1 2-2.2.2-.6-1.4-.2-2.5v-1.9l-.4.4.2-1q.1-1.3-.1-3.2l3.1-2.5-.1 1.1" vector-effect="non-scaling-stroke"/><path fill="#acaea6" d="m16.2 12.5-.6.4.2-1q.1-1.2-.2-3.1l3-2.6v1.2l-.1-.7v1l.4 2.7-.4.4zm1.5-3-1.2.8z"/><path fill="#000" d="M18.5 10.8q-.1.8.1 1.6v.4l-2.4 1.6-.1-.5v-1.4z"/><path fill="#4e453a" d="m18.7 12.9.7 1.8.1.2-3.1 2-.2-2.4z"/><path fill="#cdceca" d="M19.5 14.9h.2l.5 1.2-1 2.1-2.2.2-.6-1.4z"/><path fill="none" stroke="#000" stroke-linecap="round" stroke-linejoin="round" stroke-opacity=".4" stroke-width="__RESOLUTION__" d="m16.2 12.5-.6.4.2-1q.1-1.2-.2-3.1l3-2.6v1.2l-.1-.7v1l.4 2.7-.4.4q-.1.8.1 1.6v.4l.8 2h.3l.5 1.3-1 2.1-2.2.2-.6-1.4-.2-2.5-.1-.5zl2.4-1.7m-2-.4 1.2-1" vector-effect="non-scaling-stroke"/></g><g id="a"><path fill="#fcfbdc" d="m3.9.1.5.7v1.5Q2.5 3 .2 1.4L.5.6Q2.2 0 3.9.1"/><path fill="#c1b29d" d="M4.4 2.3q-.2 1.1-1.3 2.2h-.9L.1 2l.2-.6q2.2 1.7 4.1.9"/><path fill="none" stroke="#4a4b27" stroke-linecap="round" stroke-linejoin="round" stroke-width="__RESOLUTION__" d="m3.9.1.5.7v1.5q-.2 1.1-1.3 2.2h-.9" vector-effect="non-scaling-stroke"/><path fill="none" stroke="#b7b066" stroke-linecap="round" stroke-linejoin="round" stroke-width="__RESOLUTION__" d="M2.2 4.5.1 2" vector-effect="non-scaling-stroke"/></g><g id="o" transform="translate(8.05 8.95)"><use xlink:href="#a" width="4.5" height="4.6" transform="matrix(1.07 -.1056 0 1 -8.05 1.3)"/><use xlink:href="#a" width="4.5" height="4.6" transform="matrix(.7896 -.0782 0 .7407 -6.8 -2.95)"/><use xlink:href="#c" width="14.3" height="17.6" transform="translate(-6.4 -8.85)"/><use xlink:href="#d" width="13.8" height="15.3" transform="translate(-5.85 -8.8)"/><use xlink:href="#e" width="13.3" height="15.9" transform="translate(-5.4 -7.15)"/><use xlink:href="#a" width="4.5" height="4.6" transform="matrix(.3689 .3077 -.3669 .3824 -1.2 -6.6)"/><use xlink:href="#f" width="14.6" height="16.6" transform="translate(-6.5 -8.95)"/></g><path id="g" fill="#734731" d="M6.4-5.3q.7.9.5 1.3L5.2 2 2.5-4v-.1L.1-7.7q5.6 1.5 6.3 2.3m-9.8 1.8 3.3-.2v2.4l-2.3.6V-1h-.1v.6L-3.7-3l.4-.1zM-6.8 6.8l.4-1.4.5-3.2 1.3 1.2h2.2l.2 3.6-3.7.7z" transform="translate(6.85 7.65)"/><path id="f" fill="none" stroke="#000" stroke-linecap="round" stroke-linejoin="round" stroke-opacity=".4" stroke-width="__RESOLUTION__" d="M3.5-5.3 1.1-8.8m6.3 2.3q.7.9.5 1.3L6.2.8M-6.4 7.6l1-3.4 1-7.2.2-.7m8.5.3L-1.6-2l.2 7.8L.2 7.4" transform="translate(6.5 8.95)" vector-effect="non-scaling-stroke"/><path id="e" fill="#000" fill-opacity=".3" d="M3.5-5.3 2.3-7.1q4-.4 5.6 1.9L6.2.8l-2-4.2-5.4 1.3-.3.9.2 6.9L.2 7.4Q-2 9-3.7 8.8l.5-3.9-2.2-.8 1-7.2 1.8 1 6.4-2.4z" transform="translate(5.4 7.15)"/><use xlink:href="#g" id="d" width="13.8" height="15.3"/><use xlink:href="#h" id="c" width="14.3" height="17.6"/><use xlink:href="#i" id="n" width="22.8" height="22.3"/></defs><g clip-path="url(#m)"><g transform="translate(5.8 38.3)"><use xlink:href="#n" width="22.8" height="22.3" transform="rotate(5.05 398.696 -51.661)scale(.9269)"/><use xlink:href="#o" width="16.1" height="17.8" transform="rotate(35.08 66.332 4.526)scale(.9982)"/></g></g><g clip-path="url(#p)"><g transform="translate(39.8 38.3)"><use xlink:href="#n" width="22.8" height="22.3" transform="matrix(.923 .0809 -.0809 .923 -3 -34.4)"/><use xlink:href="#o" width="16.1" height="17.8" transform="matrix(.8452 .53 -.5405 .8366 14.05 -36.65)"/></g></g><g clip-path="url(#q)"><g transform="translate(73.8 38.3)"><use xlink:href="#n" width="22.8" height="22.3" transform="rotate(5.01 380.826 -51.014)scale(.9264)"/><use xlink:href="#o" width="16.1" height="17.8" transform="matrix(.8726 .4857 -.5102 .8547 13.4 -35.95)"/></g></g><g clip-path="url(#r)"><g transform="translate(107.8 38.3)"><use xlink:href="#n" width="22.8" height="22.3" transform="rotate(5.015 370.162 -50.53)scale(.9266)"/><use xlink:href="#o" width="16.1" height="17.8" transform="matrix(.8974 .4434 -.4798 .8729 12.85 -35.4)"/></g></g><g clip-path="url(#s)"><g transform="translate(141.8 38.3)"><use xlink:href="#n" width="22.8" height="22.3" transform="rotate(5.004 365.262 -49.78)scale(.9263)"/><use xlink:href="#o" width="16.1" height="17.8" transform="matrix(.9195 .3961 -.4451 .8895 12.2 -34.6)"/></g></g><g clip-path="url(#t)"><g transform="translate(175.8 38.3)"><use xlink:href="#n" width="22.8" height="22.3" transform="rotate(5.004 360.685 -49.58)scale(.9263)"/><use xlink:href="#o" width="16.1" height="17.8" transform="matrix(.9404 .3482 -.4133 .9047 11.6 -33.95)"/></g></g><g clip-path="url(#u)"><g transform="translate(209.8 38.3)"><use xlink:href="#n" width="22.8" height="22.3" transform="rotate(5.003 355.574 -49.36)scale(.9264)"/><use xlink:href="#o" width="16.1" height="17.8" transform="matrix(.9578 .3023 -.3779 .9201 10.85 -33.2)"/></g></g><g clip-path="url(#v)"><g transform="translate(243.8 38.3)"><use xlink:href="#n" width="22.8" height="22.3" transform="rotate(5.003 350.424 -49.134)scale(.9264)"/><use xlink:href="#o" width="16.1" height="17.8" transform="matrix(.9738 .2524 -.3451 .9328 10.3 -32.5)"/></g></g><g clip-path="url(#w)"><g transform="translate(277.8 38.3)"><use xlink:href="#n" width="22.8" height="22.3" transform="rotate(5.01 345.419 -48.893)scale(.9264)"/><use xlink:href="#o" width="16.1" height="17.8" transform="matrix(.9872 .2016 -.3118 .9445 9.75 -31.7)"/></g></g><g clip-path="url(#x)"><g transform="translate(311.8 38.3)"><use xlink:href="#n" width="22.8" height="22.3" transform="rotate(5.01 340.276 -48.668)scale(.9264)"/><use xlink:href="#o" width="16.1" height="17.8" transform="matrix(.998 .1501 -.275 .9558 9.2 -30.9)"/></g></g><g clip-path="url(#y)"><g transform="translate(345.8 38.3)"><use xlink:href="#n" width="22.8" height="22.3" transform="rotate(5.01 335.132 -48.443)scale(.9264)"/><use xlink:href="#o" width="16.1" height="17.8" transform="matrix(1.0058 .1014 -.2409 .965 8.5 -30.15)"/></g></g><g clip-path="url(#z)"><g transform="translate(379.8 38.3)"><use xlink:href="#n" width="22.8" height="22.3" transform="rotate(5.01 330.56 -48.243)scale(.9264)"/><use xlink:href="#o" width="16.1" height="17.8" transform="matrix(1.0113 .049 -.2034 .9736 8 -29.2)"/></g></g><g clip-path="url(#A)"><g transform="translate(413.8 38.3)"><use xlink:href="#n" width="22.8" height="22.3" transform="rotate(5.01 325.417 -48.018)scale(.9264)"/><use xlink:href="#o" width="16.1" height="17.8" transform="matrix(1.0141 -.0004 -.1688 .9802 7.5 -28.5)"/></g></g><g clip-path="url(#B)"><g transform="translate(447.8 38.3)"><use xlink:href="#n" width="22.8" height="22.3" transform="rotate(5.01 320.273 -47.793)scale(.9264)"/><use xlink:href="#o" width="16.1" height="17.8" transform="matrix(1.014 -.0532 -.1308 .986 6.9 -27.6)"/></g></g><g clip-path="url(#C)"><g transform="translate(481.8 38.3)"><use xlink:href="#n" width="22.8" height="22.3" transform="rotate(5.01 315.701 -47.593)scale(.9264)"/><use xlink:href="#o" width="16.1" height="17.8" transform="matrix(1.0115 -.1028 -.0958 .9901 6.5 -26.8)"/></g></g><g clip-path="url(#D)"><g transform="translate(515.8 38.3)"><use xlink:href="#n" width="22.8" height="22.3" transform="rotate(5.01 310.558 -47.368)scale(.9264)"/><use xlink:href="#o" width="16.1" height="17.8" transform="matrix(1.0063 -.1573 -.0606 .993 6.05 -25.85)"/></g></g><g clip-path="url(#E)"><g transform="translate(549.8 38.3)"><use xlink:href="#n" width="22.8" height="22.3" transform="rotate(5.01 305.415 -47.143)scale(.9264)"/><use xlink:href="#o" width="16.1" height="17.8" transform="matrix(1.0133 -.0761 -.1134 .9881 6.8 -25.65)"/></g></g><g clip-path="url(#F)"><g transform="translate(583.8 38.3)"><use xlink:href="#n" width="22.8" height="22.3" transform="rotate(5.01 300.843 -46.943)scale(.9264)"/><use xlink:href="#o" width="16.1" height="17.8" transform="matrix(1.0142 .0002 -.169 .9801 7.55 -25.4)"/></g></g><g clip-path="url(#G)"><g transform="translate(617.8 38.3)"><use xlink:href="#n" width="22.8" height="22.3" transform="rotate(5.01 295.731 -46.722)scale(.9265)"/><use xlink:href="#o" width="16.1" height="17.8" transform="matrix(1.009 .0796 -.2247 .9695 8.5 -25.05)"/></g></g><g clip-path="url(#H)"><g transform="translate(651.8 38.3)"><use xlink:href="#n" width="22.8" height="22.3" transform="rotate(5.01 290.587 -46.497)scale(.9265)"/><use xlink:href="#o" width="16.1" height="17.8" transform="matrix(.9998 .1414 -.2668 .958 9.2 -24.8)"/></g></g><g clip-path="url(#I)"><g transform="translate(685.8 38.3)"><use xlink:href="#n" width="22.8" height="22.3" transform="rotate(5.01 286.015 -46.297)scale(.9265)"/><use xlink:href="#o" width="16.1" height="17.8" transform="matrix(.9864 .2058 -.3123 .9442 10 -24.5)"/></g></g><g clip-path="url(#J)"><g transform="translate(719.8 38.3)"><use xlink:href="#n" width="22.8" height="22.3" transform="rotate(5.01 280.871 -46.072)scale(.9265)"/><use xlink:href="#o" width="16.1" height="17.8" transform="matrix(.9697 .2693 -.3574 .9293 10.75 -24.1)"/></g></g><g clip-path="url(#K)"><g transform="translate(753.8 38.3)"><use xlink:href="#n" width="22.8" height="22.3" transform="rotate(5.01 275.727 -45.847)scale(.9265)"/><use xlink:href="#o" width="16.1" height="17.8" transform="matrix(.956 .3073 -.3852 .9169 11.15 -23.75)"/></g></g><g clip-path="url(#L)"><g transform="translate(787.8 38.3)"><use xlink:href="#n" width="22.8" height="22.3" transform="rotate(5.01 271.155 -45.647)scale(.9265)"/><use xlink:href="#o" width="16.1" height="17.8" transform="matrix(.9405 .348 -.4132 .9047 11.6 -23.5)"/></g></g><g clip-path="url(#M)"><g transform="translate(821.8 38.3)"><use xlink:href="#n" width="22.8" height="22.3" transform="rotate(5.01 266.01 -45.422)scale(.9265)"/><use xlink:href="#o" width="16.1" height="17.8" transform="matrix(.9233 .388 -.4407 .8917 12.1 -23.2)"/></g></g><g clip-path="url(#N)"><g transform="translate(855.8 38.3)"><use xlink:href="#n" width="22.8" height="22.3" transform="rotate(5.01 260.867 -45.197)scale(.9265)"/><use xlink:href="#o" width="16.1" height="17.8" transform="matrix(.9058 .4242 -.4679 .8778 12.5 -22.75)"/></g></g><g clip-path="url(#O)"><g transform="translate(889.8 38.3)"><use xlink:href="#n" width="22.8" height="22.3" transform="rotate(5.01 256.294 -44.997)scale(.9265)"/><use xlink:href="#o" width="16.1" height="17.8" transform="matrix(.8853 .4625 -.4946 .8631 13.05 -22.45)"/></g></g><g clip-path="url(#P)"><g transform="translate(923.8 38.3)"><use xlink:href="#n" width="22.8" height="22.3" transform="rotate(5.01 251.15 -44.772)scale(.9265)"/><use xlink:href="#o" width="16.1" height="17.8" transform="matrix(.8643 .5009 -.5216 .8489 13.5 -22.2)"/></g></g><g clip-path="url(#Q)"><g transform="translate(957.8 38.3)"><use xlink:href="#n" width="22.8" height="22.3" transform="rotate(5.02 245.702 -44.505)scale(.927)"/><use xlink:href="#o" width="16.1" height="17.8" transform="matrix(.8516 .5183 -.5323 .8406 13.7 -22)"/></g></g><g clip-path="url(#R)"><g transform="translate(991.8 38.3)"><use xlink:href="#n" width="22.8" height="22.3" transform="rotate(5.02 241.135 -44.305)scale(.927)"/><use xlink:href="#o" width="16.1" height="17.8" transform="matrix(.8396 .5365 -.5464 .8315 14.05 -21.8)"/></g></g><g clip-path="url(#S)"><g transform="translate(1025.8 38.3)"><use xlink:href="#n" width="22.8" height="22.3" transform="rotate(5.02 235.998 -44.08)scale(.927)"/><use xlink:href="#o" width="16.1" height="17.8" transform="matrix(.8284 .5553 -.5589 .8251 14.35 -21.65)"/></g></g><g clip-path="url(#T)"><g transform="translate(1059.8 38.3)"><use xlink:href="#n" width="22.8" height="22.3" transform="rotate(5.015 230.885 -43.859)scale(.9266)"/><use xlink:href="#o" width="16.1" height="17.8" transform="matrix(.8246 .5587 -.5618 .8219 14.45 -21.65)"/></g></g><g clip-path="url(#U)"><g transform="translate(1093.8 38.3)"><use xlink:href="#n" width="22.8" height="22.3" transform="rotate(5.015 226.318 -43.659)scale(.9266)"/><use xlink:href="#o" width="16.1" height="17.8" transform="matrix(.8201 .5658 -.5687 .8178 14.6 -21.5)"/></g></g><g clip-path="url(#V)"><g transform="translate(1127.8 38.3)"><use xlink:href="#n" width="22.8" height="22.3" transform="rotate(5.05 220.138 -43.786)scale(.9269)"/><use xlink:href="#o" width="16.1" height="17.8" transform="rotate(35.08 41.416 12.4)scale(.9982)"/></g></g><g clip-path="url(#W)"><g transform="translate(1161.8 38.3)"><use xlink:href="#n" width="22.8" height="22.3" transform="rotate(5.05 208.801 -43.286)scale(.9269)"/><use xlink:href="#o" width="16.1" height="17.8" transform="rotate(35.08 39.834 12.9)scale(.9982)"/></g></g></svg>