<svg xmlns="http://www.w3.org/2000/svg" xmlns:xlink="http://www.w3.org/1999/xlink" width="683" height="77" viewBox="0 0 683 77"><defs><use xlink:href="#a" id="h" width="22.9" height="21.6"/><use xlink:href="#b" id="t" width="5.5" height="8.3"/><use xlink:href="#c" id="v" width="5.9" height="8.8"/><use xlink:href="#d" id="x" width="10.1" height="12.7"/><use xlink:href="#e" id="z" width="10" height="9.3"/><use xlink:href="#f" id="B" width="5.5" height="8.3"/><use xlink:href="#g" id="D" width="5.5" height="8.7"/><use xlink:href="#h" id="aq" width="22.9" height="21.6" transform="matrix(-1 0 0 1 29.95 4.5)"/><use xlink:href="#h" id="an" width="22.9" height="21.6" transform="matrix(-1.06 0 0 1.06 30.65 4)"/><use xlink:href="#h" id="al" width="22.9" height="21.6" transform="matrix(-1.13 0 0 1.13 31.35 3.55)"/><use xlink:href="#h" id="aj" width="22.9" height="21.6" transform="matrix(-1.19 0 0 1.19 32.1 3)"/><use xlink:href="#h" id="ah" width="22.9" height="21.6" transform="matrix(-1.26 0 0 1.26 32.8 2.5)"/><use xlink:href="#h" id="af" width="22.9" height="21.6" transform="matrix(-1.32 0 0 1.32 33.5 2)"/><use xlink:href="#h" id="ad" width="22.9" height="21.6" transform="matrix(-1.39 0 0 1.39 34.2 1.55)"/><use xlink:href="#h" id="ab" width="22.9" height="21.6" transform="matrix(-1.45 0 0 1.45 34.9 1)"/><use xlink:href="#h" id="Z" width="22.9" height="21.6" transform="matrix(-1.52 0 0 1.52 35.65 .5)"/><use xlink:href="#h" id="X" width="22.9" height="21.6" transform="matrix(-1.58 0 0 1.58 36.35 0)"/><use xlink:href="#i" id="V" width="4" height="5"/><use xlink:href="#j" id="U" width="24.9" height="14.2"/><use xlink:href="#k" id="S" width="15.7" height="15.8"/><use xlink:href="#l" id="P" width="5" height="11.1"/><use xlink:href="#m" id="O" width="4.5" height="8.4"/><use xlink:href="#n" id="N" width="6.9" height="3.8"/><use xlink:href="#o" id="M" width="5" height="11.1"/><use xlink:href="#p" id="J" width="4.5" height="8.4"/><use xlink:href="#q" id="I" width="5.4" height="2.9"/><use xlink:href="#r" id="H" width="6" height="5.5"/><use xlink:href="#s" id="G" width="14.7" height="4.3"/><g id="a"><path fill="#fff" d="M7.5 0q2 3.1 4 4.9 1.5 1.2 3.9.5Q17 5 20.7 3q-1.6 2.6-2 4.5-.3 1.2.6 2.3 1 1.3 3.6 1.7-1.2 0-2.4.8-1 .6-1.3 1.3-.5 1 .5 2.7.7 1.5 2.7 3.8-6.6-3.5-9.2-1.8-2.1 1.5-2.9 3.3 0-1.7-.3-2.4-.5-2.1-1.8-2.5-3-1-7.4.4.8-.5 2.3-2.6 1-1.2.6-3.1Q3.3 8.7 0 6.2l3.4.4 2.9-.4q1-.3 1.2-6.1z"/><path fill="#35479e" d="M12.2 13.7h-.7l-.6-.4-3.5-6.1q-.2-.3 0-.8l.7-.6L9.5 5l.9-.1q.4 0 .5.5-2.3.8-2.5 1.4 2.5 5.3 3.7 6.9m1.9 4h-.7q-.7-.1-.9-.6t0-1.2q.3-.5 1-.9.3-.2.7-.2-1.2.4-1 1.7 0 1.2 1 1.2z"/><path fill="#578afd" d="M12.2 13.7q-1.3-1.6-3.7-6.9.1-.6 2.4-1.5l2.4 6.6v.8l-.6.7-.3.2zm1.9 1 .5.1q.5.2.8.7.2.5 0 1.1l-.9 1-.4.1q-1 0-1-1.3-.2-1.2 1-1.6"/></g><g id="i"><path fill="#dbbb85" d="m3.7.2.2 2 .1.2-.1.9-.1.2q-.8 0-1 .2l-1.4.1V5l-1-.3L0 3.5q-.2-.7.5-2L1 0z"/><path fill="#c5b896" d="m3.9 2.3.2-.1-.1.2z"/><path fill="#b89d70" d="m3.8 3.5.2.7-1.2.2.1.5-1.3-.1-.1-.6-.1-.4 1.4-.1q.2-.2 1-.2"/><path fill="none" stroke="#1f1f1f" stroke-linecap="round" stroke-linejoin="round" stroke-opacity=".3" stroke-width="__RESOLUTION__" d="m3.7.2.2 2m-.1 1.2.2.8-1.1.2v.5l-1.3-.1-.1-.6-.1.8-1-.3L0 3.5h0q-.2-.7.5-2L1 0" vector-effect="non-scaling-stroke"/></g><g id="j"><path fill="#fdf4ca" d="m10 5.5.9-.4 5.9-.9 1 1.1h.3l-.7.2-.7-.8-2.5.5-.5.2-.9-.1-1.3.6-.5.4zm10.2-1.8 1-.2q2.3.9 3.8 2.6h-1l-2-1.4-.7.1-.1-.6z"/><path fill="#dcdeb1" d="m10 5.5 1 .8.6-.4 1.2-.6.9.1.5-.2 2.5-.6.8.9.5-.2 1.4-.2.8-1.4 1 .5.1.6.8-.1L24 6.1l-3.4.2-.6.3-3.7.2-1-.6-.7.6-3.8.4-1.6-.4V6z"/><path fill="#ffffec" d="m25 6-.3.4-.6.1-3.6.5-.6-.3-3.8.4-.8.7-.9-.5-3.6.3-1.7.3V6.7l1.7.5 3.8-.4.6-.6 1.1.6 3.7-.2.6-.3L24 6z"/><path fill="#e6ddb8" d="M24.7 6.5h-.1Q23.1 8.4 21.4 9h-1.1l1-.5h.6l2.2-2 .6-.2zm-7 1.8-1 .8h-5.8l-.8-.2 4.4-.1.6-.3.5.2h1.1z"/><path fill="#887e5e" d="m20.3 9.1-.8-1h-1.7l-.1.2-1 .4h-1.1l-.4-.1-.6.2h-4.4l-1-.5H9v-.5l1.7-.3 3.6-.3.9.6.8-.7 3.8-.4.7.4 3.5-.5-2.2 2h-.6z"/><path fill="none" stroke="#b8bd97" stroke-linecap="round" stroke-linejoin="round" stroke-opacity=".7" stroke-width="__RESOLUTION__" d="M18 5.3h-.2l-1-1.1-5.9.8-.9.5-.8.4m8.9-.6 1.3-.2.8-1.4 1-.3m0 .1q2.3.8 3.8 2.5l-.3.4v0h-.1q-1.4 2-3.1 2.7h-1.2l-.8-1H18l-.3.1-1 1h-5.8l-.7-.4-1-.5m8.5-.1h.1L18 8" vector-effect="non-scaling-stroke"/><path fill="#a1428c" d="M10.1.3 6.8 3.6l-1-.5L9.5 0z"/><path fill="#803473" d="M6.8 3.6 10.1.3l.8.8-2.1 3.3.6 2.4-2.7.4zm-.2 4.7.5 4 3.2 1.9.8-1.4-2.1-2L9.5 8z"/><path fill="#662a59" d="m5.8 3.1 1 .5-.1 3.7-.8-.5zm.8 5.2.5 4-1-.7-.3-3.8z"/><path fill="none" stroke="#3d1933" stroke-linecap="round" stroke-linejoin="round" stroke-width="__RESOLUTION__" d="M10.1.3 9.5 0 5.8 3.1l.1 3.7.8.5m-.2.8-.7-.4.3 3.8 1 .7" vector-effect="non-scaling-stroke"/><path fill="none" stroke="#4a1e41" stroke-linecap="round" stroke-linejoin="round" stroke-width="__RESOLUTION__" d="m9.5 6.9-.8-2.6L11 1.1l-.8-.8m-3 12 3.2 1.9.8-1.4-2.1-2L9.5 8m-3.1.3" vector-effect="non-scaling-stroke"/><path fill="#ed9c16" d="M6.5 6.2h3v2.3l-3 .7z"/><path fill="#cc8512" d="m6.6 9.3-1.4-.9V5.7l1.3.5z"/><path fill="none" stroke="#99640d" stroke-linecap="round" stroke-linejoin="round" stroke-opacity=".7" stroke-width="__RESOLUTION__" d="M6.5 6.2h3v2.3l-3 .7" vector-effect="non-scaling-stroke"/><path fill="#d08133" d="m6.2 7.6.2.7-4.8.3-.2-.6z"/><path fill="#a44f11" d="M6.2 7.6 1.4 8l-.1-.6 4.8-.6z"/><path fill="#632856" d="M.4 8.8 0 8l.3-.7L1 7h.5Q1.4 8.4.4 8.9"/><path fill="#803473" d="M.4 8.8q1-.4 1.1-1.7l.2.2q.3.3.4.7l-.4.7Q1.4 9 1 9z"/><path fill="none" stroke="#3d1933" stroke-linecap="round" stroke-linejoin="round" stroke-width="__RESOLUTION__" d="M1.5 7H1l-.7.3L0 8l.3.7.1.1.7.2q.4 0 .6-.3l.4-.8q-.1-.4-.4-.7z" vector-effect="non-scaling-stroke"/></g><g id="k"><path fill="#dbbb85" d="m7.2 15.5-.7.2-1-.1q-1-.5-1.3-1.9l-.7-2 3.6.5q1 1.8 0 3.3"/><path fill="#b3996d" d="m7.2 12.2 2.6.3q.3 1.7 1.2 3.3l-3.8-.3q.9-1.5 0-3.3"/><path fill="none" stroke="#1f1f1f" stroke-linecap="round" stroke-linejoin="round" stroke-opacity=".3" stroke-width="__RESOLUTION__" d="m7.2 15.5-.7.2-1-.1q-1-.5-1.3-1.9l-.7-2" vector-effect="non-scaling-stroke"/><path fill="#d4cbad" d="m7.5 4.4 6-3-3.6 7.8z"/><path fill="none" stroke="#523109" stroke-linecap="round" stroke-linejoin="round" stroke-opacity=".3" stroke-width="__RESOLUTION__" d="m9.9 9.2 3.6-7.8-6 3" vector-effect="non-scaling-stroke"/><path fill="#d4cbad" d="M5.9 6.5q2.7-1.5 5-1.3 1.7 4.7-.8 7.8-.3.8-2 .5L6.7 9.7z"/><path fill="#fbf0cc" d="m5.9 6.5.7 3.2 1.6 3.8h-.4q-1.6-1.2-4.4-1.8L3.6 8z"/><path fill="#fbf0cc" d="M4.6 5 10 0l-.5 1.7-3.8 5.7z"/><path fill="#d4cbad" d="m5.8 7.4 3.8-5.8-1.7 5z"/><path fill="none" stroke="#523109" stroke-linecap="round" stroke-linejoin="round" stroke-opacity=".3" stroke-width="__RESOLUTION__" d="M9.6 1.7 10 0 4.6 5m5-3.3L7.9 6.6" vector-effect="non-scaling-stroke"/><path fill="#d4cbad" d="M11.2 6.3h4.5l-3.8 4.8z"/><path fill="none" stroke="#523109" stroke-linecap="round" stroke-linejoin="round" stroke-opacity=".3" stroke-width="__RESOLUTION__" d="m11.9 11 3.8-4.7h-4.5" vector-effect="non-scaling-stroke"/><path fill="#fbf0cc" d="m8.6 7.2 4.7-2.5-3.7 3.7z"/><path fill="#d4cbad" d="m9.6 8.4 3.7-3.6-1.7 6z"/><path fill="none" stroke="#523109" stroke-linecap="round" stroke-linejoin="round" stroke-opacity=".3" stroke-width="__RESOLUTION__" d="M13.3 4.8 8.6 7.2m4.7-2.4-1.7 6" vector-effect="non-scaling-stroke"/><path fill="#d4cbad" d="m9.4 10.7 3.7.6-3.2 3z"/><path fill="none" stroke="#523109" stroke-linecap="round" stroke-linejoin="round" stroke-opacity=".3" stroke-width="__RESOLUTION__" d="m9.9 14.3 3.1-3-3.6-.7" vector-effect="non-scaling-stroke"/><path fill="#d4cbad" d="M4.1 10.7 0 12.4l2.7-3.5z"/><path fill="none" stroke="#523109" stroke-linecap="round" stroke-linejoin="round" stroke-opacity=".3" stroke-width="__RESOLUTION__" d="M2.7 8.9 0 12.4l4.1-1.7" vector-effect="non-scaling-stroke"/><path fill="#fbf0cc" d="m3.5 7.7 2.3-5v5.9z"/><path fill="none" stroke="#523109" stroke-linecap="round" stroke-linejoin="round" stroke-opacity=".3" stroke-width="__RESOLUTION__" d="M5.8 8.6V2.8L3.5 7.7" vector-effect="non-scaling-stroke"/><path fill="#fbf0cc" d="m4.4 8.7 2.4-.9L8 12.2z"/><path fill="none" stroke="#523109" stroke-linecap="round" stroke-linejoin="round" stroke-opacity=".3" stroke-width="__RESOLUTION__" d="M4.4 8.7 8 12.2 6.8 7.8" vector-effect="non-scaling-stroke"/><path fill="#fbf0cc" d="m3 10-.2-5.5 2.6 5.2z"/><path fill="none" stroke="#523109" stroke-linecap="round" stroke-linejoin="round" stroke-opacity=".3" stroke-width="__RESOLUTION__" d="M5.4 9.7 2.7 4.6 3 10" vector-effect="non-scaling-stroke"/><path fill="#d4cbad" d="M7 12.6 9.8 11l-1 3.3z"/><path fill="none" stroke="#523109" stroke-linecap="round" stroke-linejoin="round" stroke-opacity=".3" stroke-width="__RESOLUTION__" d="m8.8 14.3 1-3.3L7 12.6" vector-effect="non-scaling-stroke"/><path fill="#dbbb85" d="M4.5 11.9q1-1.3 2.5-1.6l-.3 1.5-1.3 1.6q-1.2-.4-1-1.5"/><path fill="none" stroke="#1f1f1f" stroke-linecap="round" stroke-linejoin="round" stroke-opacity=".3" stroke-width="__RESOLUTION__" d="m5.4 13.4 1.2-1.6.3-1.5q-1.5.3-2.5 1.6" vector-effect="non-scaling-stroke"/></g><g id="l"><path fill="#52514b" d="M4.8 10.4q-1 .7-3.2.6-.4-.5-1.2-4.2-.5-2.3-.3-5.1 1.4-3.1 4.4-.5.7 1.2.1 4 .5 2.7.1 5.2"/><path fill="none" stroke="#1f1f1f" stroke-linecap="round" stroke-linejoin="round" stroke-opacity=".3" stroke-width="__RESOLUTION__" d="M4.8 10.4q.4-2.5-.1-5.2.6-2.9-.2-4M0 1.7q-.3 2.8.3 5 .8 3.8 1.1 4.4" vector-effect="non-scaling-stroke"/></g><g id="m"><path fill="#8d1f03" d="M4.3 2.6 4 3l-.4 1.7L3 8.2l-1 .3h-.5Q1 6.3 2 4.4l-.1-1 .6-1L3.3 1q.8.7 1 1.6"/><path fill="#751802" d="M1.6 8.5.5 8.3V8Q0 5 1.1 2.2L3.2 1l-.7 1.5-.7.9.1 1q-.9 1.9-.3 4"/><path fill="#661502" d="m.5 8.3-.3-.4q-.5-4 .4-6l2-1.4q.8-1 1.3 0l.6 1q.2 1-.2 1.1Q4 1.6 3.2 1L1.1 2.3Q0 5.1.5 8.2z"/><path fill="none" stroke="#4f0e01" stroke-linecap="round" stroke-linejoin="round" stroke-width="__RESOLUTION__" d="m.5 8.3-.3-.4q-.5-4 .4-6l2-1.4q.8-1 1.3 0l.6 1" vector-effect="non-scaling-stroke"/></g><g id="n"><path fill="#751802" d="m5 .2.2-.1L6.5 0 7 2.2 5.7 3.8 4.6 1.6z"/><path fill="#8d1f03" d="m5 .2-.6 1.3 1.2 2.3-5.2-.1Q.1 3.6 0 3l1.3-1.5 2.4-1z"/><path fill="none" stroke="#1c1c1c" stroke-linecap="round" stroke-linejoin="round" stroke-opacity=".5" stroke-width="__RESOLUTION__" d="m5.6 3.8 1.3-1.6L6.4 0M3.7.5l-2.4 1Q0 3 0 3.3t.4.4l5.2.2" vector-effect="non-scaling-stroke"/></g><g id="o"><path fill="#353430" d="M4.8 10.4q-1 .7-3.2.6-.4-.5-1.2-4.2-.5-2.3-.3-5.1 1.4-3.1 4.4-.5.7 1.2.1 4 .5 2.7.1 5.2"/><path fill="none" stroke="#141414" stroke-linecap="round" stroke-linejoin="round" stroke-opacity=".3" stroke-width="__RESOLUTION__" d="M4.8 10.4q.4-2.5-.1-5.2.6-2.9-.2-4M0 1.7q-.3 2.8.3 5 .8 3.8 1.1 4.4" vector-effect="non-scaling-stroke"/></g><g id="p"><path fill="#5b1401" d="M4.3 2.6 4 3l-.4 1.7L3 8.2l-1 .3h-.5Q1 6.3 2 4.4l-.1-1 .6-1L3.3 1q.8.7 1 1.6"/><path fill="#4b0f01" d="M1.6 8.5.5 8.3V8Q0 5 1.1 2.2L3.2 1l-.7 1.5-.7.9.1 1q-.9 1.9-.3 4"/><path fill="#420d01" d="m.5 8.3-.3-.4q-.5-4 .4-6l2-1.4q.8-1 1.3 0l.6 1q.2 1-.2 1.1Q4 1.6 3.2 1L1.1 2.3Q0 5.1.5 8.2z"/><path fill="none" stroke="#330900" stroke-linecap="round" stroke-linejoin="round" stroke-width="__RESOLUTION__" d="m.5 8.3-.3-.4q-.5-4 .4-6l2-1.4q.8-1 1.3 0l.6 1" vector-effect="non-scaling-stroke"/></g><g id="q"><path fill="#5b1401" d="M1.9.1 3.3 0l.4 2.9-2-.6L0 1.9Q-.2 1.2.3.6z"/><path fill="#4b0f01" d="M3.7 2.9 3.3 0l1.8.1q.2.2.3 2z"/><path fill="none" stroke="#121212" stroke-linecap="round" stroke-linejoin="round" stroke-opacity=".5" stroke-width="__RESOLUTION__" d="M1.9.1.3.6q-.5.6-.2 1.3l1.6.4 2 .6M5 .1q.3.2.4 2l-1.7.7" vector-effect="non-scaling-stroke"/></g><g id="r"><path fill="#dbbb85" d="M.9 1.4Q1.8-.2 2.4.1l.7.5.3.3.2-.4h.1Q4.9.3 6 .9q.2 1.5-.6 1.4h-.7L4 2.2q-.3.6-.9.6Q1.7 2.3.9 1.4m3.8.9.7.4-.4 1-.6.3q0 .6-.3 1.2l-1 .1q-.2-.7.2-1.4h.4q-.1-.8.2-1.5l.7-.1zm-1 1.6.7.2z"/><path fill="#b89d70" d="M3 5.3h-.9Q1.3 5.6.6 5-.6 3 .8 1.5l.1-.1q.8.9 2.1 1.5.6 0 .9-.7h.7v.1l-.6.1q-.4.7-.3 1.5h-.4Q3 4.6 3 5.3"/><path fill="none" stroke="#1f1f1f" stroke-linecap="round" stroke-linejoin="round" stroke-opacity=".3" stroke-width="__RESOLUTION__" d="M.9 1.4Q1.8-.2 2.4.1l.7.5.3.3.2-.4h.1Q4.9.3 6 .9q.2 1.5-.6 1.4h-.7m0 0 .8.4-.4 1-.6.3q0 .6-.3 1.2l-1 .1v0H2Q1.3 5.6.6 5m3.8-1-.7-.2-.4.1" vector-effect="non-scaling-stroke"/></g><g id="u"><path fill="#fbf0cc" d="M2.7 4q1.6-.3 2.2-1.9l-.1 1.2Q3.6 4.7 2.6 4.4z"/><path fill="#e7d292" d="M5 2.1Q4.4 3.7 2.7 4L3 1.8q.6.6 1.4.3.4-.2.5 0"/><path fill="none" stroke="#8d7847" stroke-linecap="round" stroke-linejoin="round" stroke-width="__RESOLUTION__" d="M2.6 4.4q1 .3 2.2-1.1L5 2.1q-.1-.2-.5 0-.8.4-1.4-.3" vector-effect="non-scaling-stroke"/><path fill="#fbf0cc" d="m3.6 5.8-.3 1.1q-1 1.1-1.6.6v-.3q1.3 0 1.9-1.4"/><path fill="#e7d292" d="M1.8 7.2 2.4 5q.3.8.9.6h.3Q2.9 7 1.7 7"/><path fill="none" stroke="#8d7847" stroke-linecap="round" stroke-linejoin="round" stroke-width="__RESOLUTION__" d="m3.6 5.8-.3 1.1q-1 1.1-1.6.6m.7-2.4q.3.8.9.6h.3" vector-effect="non-scaling-stroke"/><path fill="#bd2703" d="M4.4.2q.2.7-.4 1l-1.7.2Q.6 4.5 1 7.4l.7.6-.2.8q-1-.3-1.4-.7Q-.1 4 1.6.9 3 0 4.3.1"/><path fill="#7d1702" d="M4 1.2q.6-.4.4-1h.5q.4.4.5 1.7l-.6 1L5 2l-.3-.9zM1.4 8.8l.2-.8.4.1q.9 0 1.1-.4.4.3.2.5Q2.9 9 2 9z"/><path fill="#661502" d="m1.6 8-.7-.6q-.3-2.9 1.5-6L4 1.2h.6l.4.9Q4.4 5 3 7.7q-.2.4-1.1.4z"/><path fill="none" stroke="#45303b" stroke-linecap="round" stroke-linejoin="round" stroke-width="__RESOLUTION__" d="M4.4.2Q3 0 1.5.8-.1 4 0 8.2q.4.4 1.4.7L2 9q.9 0 1.3-.7.2-.2-.2-.5M5 2l-.1.8.5-1Q5.4.6 4.9.3L4.4.2" vector-effect="non-scaling-stroke"/><path fill="none" stroke="#734e19" stroke-linecap="round" stroke-linejoin="round" stroke-width="__RESOLUTION__" d="M5 2q-.5 3-2 5.8" vector-effect="non-scaling-stroke"/><path fill="#661502" d="m7.9 0-1 .8-2.7.9.4-.5z"/><path fill="#d12b04" d="m6.9.8 1-.8-.5 2.6-.8.6z"/><path fill="#8d1f03" d="m4.2 1.7 2.6-1-.3 2.5H3.8q-.2-.7.5-1.6"/><path fill="none" stroke="#5c1301" stroke-linecap="round" stroke-linejoin="round" stroke-width="__RESOLUTION__" d="m6.9.8 1-.8-3.3 1.2m2 2 .8-.7.5-2.5M4.2 1.7q-.6.9-.5 1.6h2.9" vector-effect="non-scaling-stroke"/><path fill="#8d1f03" d="M4.8 7.3 3.5 9.7l-1.4-2q.2-.8 1-1.3z"/><path fill="#d12b04" d="m3.5 9.7 1.3-2.4.8-.1-1.4 2.3z"/><path fill="#661502" d="m4.8 7.3-1.6-1 .3-.3 2.1 1.2z"/><path fill="none" stroke="#5c1301" stroke-linecap="round" stroke-linejoin="round" stroke-width="__RESOLUTION__" d="M3.2 6.4q-.9.5-1.2 1.2l1.5 2 .7-.1 1.4-2.4-.8.1m.8 0L3.5 6" vector-effect="non-scaling-stroke"/><path fill="#8d1f03" d="M6 6.7 3 5.4q0-.8.9-1.5l2.9.4z"/><path fill="#d12b04" d="m6 6.7.8-2.4 1.3-.4-1 2.4z"/><path fill="#661502" d="m6.8 4.3-3-.4.6-.4 3.6.4z"/><path fill="none" stroke="#5c1301" stroke-linecap="round" stroke-linejoin="round" stroke-width="__RESOLUTION__" d="M3.9 3.9q-.9.7-1 1.5L6 6.7l1.1-.4 1-2.4-3.8-.4m3.7.4-1.2.4" vector-effect="non-scaling-stroke"/></g><g id="w"><path fill="none" stroke="#1f1f1f" stroke-linecap="round" stroke-linejoin="round" stroke-opacity=".3" stroke-width="__RESOLUTION__" d="M5.7 10.7q-.1-.1.7-1.5l.5-1.6 1-1.1M3 5.1q-.6.5-.6 1.5l-.1 1.8q-.6.6 0 1.7" vector-effect="non-scaling-stroke"/><path fill="#332207" fill-opacity=".3" d="m6.8 7.6-.4 1.6q-.9 1.4-.8 1.5l-1.3-.1 1-3.3L3 6v-.8l-.1-.4L4.1 6q2.3.2 3.7-.7v1.2z"/><path fill="#bd2703" d="m7 1.2-1 .1q-1.4 1.6-3.4.5l-.9-.5q1.9.1 3.7-1 .8-.1 1.5.8z"/><path fill="#8d1f03" d="M2.6 1.8q2 1 3.4-.5l1-.1 1.5 1.4-.4 2-.1.1q-2.2 1-3.9.4L2.9 2.5z"/><path fill="#a17638" d="M7 1.2V1z"/><path fill="#7d1702" d="M7 1.1Q6.2.2 5.3.3h2.4zm-5.3.2.9.5.3.7-1.2-.3-1-.7z"/><path fill="#661502" d="M2.9 2.5 4.1 5q1.7.7 3.9-.4h.1l.4-2.2L7 1.2V1l.7-.9 1.5 2q.7 1.7-.7 3.1-2.5 1.4-5.2.4l-.4-1.3v-.1l-1.2-2z"/><path fill="#5e3e14" d="m1.7 2.2 1.2 2v.2-.2.2L0 4.6l.7-3.1z"/><path fill="none" stroke="#4a0d01" stroke-linecap="round" stroke-linejoin="round" stroke-width="__RESOLUTION__" d="M5.4.4q-1.9 1-3.7.9l-1 .2 1 .7 1.2 2v.2l.4 1.3q2.7 1 5.2-.4 1.4-1.4.7-3.1L7.7.1zM4 5q1.7.7 3.9-.4H8l.4-2.2M2.9 4.3 0 4.6l.7-3.1" vector-effect="non-scaling-stroke"/></g><g id="y"><path fill="#332207" fill-opacity=".3" d="m4.4 1.8 1 .2h2q.8-.1.5-1.3l1.3.7.9 2.4q0 2-.7 3.1l-.5.9q-.6 1.3-.4 3.3l-.5.3-1.9.8-2 .5h-.2l-.4-.1q-1.3-.5-1-2.7l.2-1 .1-.4.1-.3q1.3-4 .4-5.7z"/><path fill="#b3996d" d="M6.9 0 8 .8q.3 1.1-.5 1.2H5.4l-1-.2-.1-.1q-.9-.5-.7-1Q5.8 0 6.9 0"/><path fill="#343340" d="M3.9 12.7h.3l2-.5q1-.3 1.9-.8l.4 1.5-2 .7-2.7.2-.2-1.1z"/><path fill="#4e4b5f" d="M3.8 13.8h-.1q-1.2-.3-1.9-1.2v-.1l.6.2h1.2z"/><path fill="none" stroke="#1f1f1f" stroke-linecap="round" stroke-linejoin="round" stroke-opacity=".5" stroke-width="__RESOLUTION__" d="m3.6.8-1.7.7q-.6.3-1.3 2.3t-.1 3l-.1.1q-.8 3.7.1 4.8M6.9 0q1.6 0 2.4 1.4l.8 2.4q0 2-.7 3.1l-.5.9L8.6 9q-.2.9-.1 2.1" vector-effect="non-scaling-stroke"/><path fill="none" stroke="#1c1c1c" stroke-linecap="round" stroke-linejoin="round" stroke-opacity=".5" stroke-width="__RESOLUTION__" d="m8 11.4.5 1.5m-6.7-.3.7.2h1.4" vector-effect="non-scaling-stroke"/><path fill="#52514b" d="m.7 13.5-.1-1.8q3.8 1.7 8-.6l.3 1.3q-2.7 2.7-8.2 1"/></g><g id="A"><path fill="none" stroke="#1c1c1c" stroke-linecap="round" stroke-linejoin="round" stroke-opacity=".5" stroke-width="__RESOLUTION__" d="M1.3 0 0 7.7l1.7 1 5.5.2L10 7.7q-.8-1.4-.8-4.1 0-2.2-1-3.1" vector-effect="non-scaling-stroke"/><path fill="#332207" fill-opacity=".3" d="M10 7.7q-1.6.8-3 1.2l-4 .3q-.7-3.6.7-8.2L8.3.5q1 .9 1 3.1 0 2.7.7 4.1"/></g><g id="C"><path fill="#b4ac92" d="M2.7 4q1.6-.3 2.2-1.9l-.1 1.2Q3.6 4.7 2.6 4.4z"/><path fill="#a69668" d="M5 2.1Q4.4 3.7 2.7 4L3 1.8q.6.6 1.4.3.4-.2.5 0"/><path fill="none" stroke="#655633" stroke-linecap="round" stroke-linejoin="round" stroke-width="__RESOLUTION__" d="M2.6 4.4q1 .3 2.2-1.1L5 2.1q-.1-.2-.5 0-.8.4-1.4-.3" vector-effect="non-scaling-stroke"/><path fill="#b4ac92" d="m3.6 5.8-.3 1.1q-1 1.1-1.6.6v-.3q1.3 0 1.9-1.4"/><path fill="#a69668" d="M1.8 7.2 2.4 5q.3.8.9.6h.3Q2.9 7 1.7 7"/><path fill="none" stroke="#655633" stroke-linecap="round" stroke-linejoin="round" stroke-width="__RESOLUTION__" d="m3.6 5.8-.3 1.1q-1 1.1-1.6.6m.7-2.4q.3.8.9.6h.3" vector-effect="non-scaling-stroke"/><path fill="#871c02" d="M4.4.2q.2.7-.4 1l-1.7.2Q.6 4.5 1 7.4l.7.6-.2.8q-1-.3-1.4-.7Q-.1 4 1.6.9 3 0 4.3.1"/><path fill="#591001" d="M4 1.2q.6-.4.4-1h.5q.4.4.5 1.7l-.6 1L5 2l-.3-.9zM1.4 8.8l.2-.8.4.1q.9 0 1.1-.4.4.3.2.5Q2.9 9 2 9z"/><path fill="#490f01" d="m1.6 8-.7-.6q-.3-2.9 1.5-6L4 1.2h.6l.4.9Q4.4 5 3 7.7q-.2.4-1.1.4z"/><path fill="none" stroke="#31222a" stroke-linecap="round" stroke-linejoin="round" stroke-width="__RESOLUTION__" d="M4.4.2Q3 0 1.5.8-.1 4 0 8.2q.4.4 1.4.7L2 9q.9 0 1.3-.7.2-.2-.2-.5M5 2l-.1.8.5-1Q5.4.6 4.9.3L4.4.2" vector-effect="non-scaling-stroke"/><path fill="none" stroke="#523811" stroke-linecap="round" stroke-linejoin="round" stroke-width="__RESOLUTION__" d="M5 2q-.5 3-2 5.8" vector-effect="non-scaling-stroke"/><path fill="#490f01" d="m7.9 0-1 .8-2.7.9.4-.5z"/><path fill="#961e02" d="m6.9.8 1-.8-.5 2.6-.8.6z"/><path fill="#651602" d="m4.2 1.7 2.6-1-.3 2.5H3.8q-.2-.7.5-1.6"/><path fill="none" stroke="#420d00" stroke-linecap="round" stroke-linejoin="round" stroke-width="__RESOLUTION__" d="m6.9.8 1-.8-3.3 1.2m2 2 .8-.7.5-2.5M4.2 1.7q-.6.9-.5 1.6h2.9" vector-effect="non-scaling-stroke"/><path fill="#651602" d="M4.8 7.3 3.5 9.7l-1.4-2q.2-.8 1-1.3z"/><path fill="#961e02" d="m3.5 9.7 1.3-2.4.8-.1-1.4 2.3z"/><path fill="#490f01" d="m4.8 7.3-1.6-1 .3-.3 2.1 1.2z"/><path fill="none" stroke="#420d00" stroke-linecap="round" stroke-linejoin="round" stroke-width="__RESOLUTION__" d="M3.2 6.4q-.9.5-1.2 1.2l1.5 2 .7-.1 1.4-2.4-.8.1m.8 0L3.5 6" vector-effect="non-scaling-stroke"/><path fill="#651602" d="M6 6.7 3 5.4q0-.8.9-1.5l2.9.4z"/><path fill="#961e02" d="m6 6.7.8-2.4 1.3-.4-1 2.4z"/><path fill="#490f01" d="m6.8 4.3-3-.4.6-.4 3.6.4z"/><path fill="none" stroke="#420d00" stroke-linecap="round" stroke-linejoin="round" stroke-width="__RESOLUTION__" d="M3.9 3.9q-.9.7-1 1.5L6 6.7l1.1-.4 1-2.4-3.8-.4m3.7.4-1.2.4" vector-effect="non-scaling-stroke"/></g><g id="E"><path fill="none" stroke="#161616" stroke-linecap="round" stroke-linejoin="round" stroke-opacity=".3" stroke-width="__RESOLUTION__" d="M4.8 2.3q1 1 .2 3.4l.2.4L5 7.2Q4.8 8.6 5 9q.3.7-.5 1.6M0 5.6q.3 0 .9.7l.4.4q.5.4 1 .4m-.7 3-.4-1.7q-.2-1 0-1.7" vector-effect="non-scaling-stroke"/><path fill="#490f01" d="M4.1.3 5.5.2q2.4 4.3 2.1 4.5-3.1 1.6-4.7.8l-.5-1.3V4L1.3 1.7l1 .4L3.6 5q.6.4 3.5-.8l-1.5-3Q4.9.1 4 .1"/><path fill="#432c0e" d="M2.4 4.2V4v.1z"/><path fill="#591001" d="M1.3 1.7.3 1l.9-.2.8.6.3.7z"/><path fill="#871c02" d="M1.2.9Q2.8 1 4 .3q.8-.1 1.5.9l-.9.1-2.7.1z"/><path fill="#651602" d="M5.6 1.3 7.1 4Q4.3 5.5 3.6 5L2.3 2 2 1.4l2.7-.1z"/><path fill="none" stroke="#350900" stroke-linecap="round" stroke-linejoin="round" stroke-width="__RESOLUTION__" d="M4.1.3 5.5.2q2.4 4.3 2.1 4.5-3.1 1.6-4.7.8l-.5-1.3V4L1.3 1.7.3 1l.9-.2q1.6.3 2.9-.5m1.5 1L7.1 4Q4.3 5.5 3.6 5M2.5 4" vector-effect="non-scaling-stroke"/></g><g id="W" transform="translate(3.45 1.4)"><use xlink:href="#t" width="5.5" height="8.3" transform="translate(-3.45 -.65)"/><use xlink:href="#u" width="8.1" height="9.7" transform="translate(-2.45 -1.4)"/></g><g id="T" transform="translate(5.7 3.45)"><use xlink:href="#v" width="5.9" height="8.8" transform="translate(-3.7 -1.5)"/><use xlink:href="#w" width="9.4" height="10.7" transform="translate(-5.7 -3.45)"/></g><g id="R"><use xlink:href="#x" width="10.1" height="12.7"/><use xlink:href="#y" width="10.1" height="14.1"/></g><g id="Q"><use xlink:href="#z" width="10" height="9.3"/><use xlink:href="#A" width="10" height="9.3"/></g><g id="L" transform="translate(3.45 1.4)"><use xlink:href="#B" width="5.5" height="8.3" transform="translate(-3.45 -.65)"/><use xlink:href="#C" width="8.1" height="9.7" transform="translate(-2.45 -1.4)"/></g><g id="K" transform="translate(2.45 3.75)"><use xlink:href="#D" width="5.5" height="8.7" transform="translate(-2.45 -1.8)"/><use xlink:href="#E" width="7.6" height="10.6" transform="translate(-2.35 -3.75)"/></g><clipPath id="F"><path d="M1 1h61v75H1z"/></clipPath><clipPath id="Y"><path d="M63 1h61v75H63z"/></clipPath><clipPath id="aa"><path d="M125 1h61v75h-61z"/></clipPath><clipPath id="ac"><path d="M187 1h61v75h-61z"/></clipPath><clipPath id="ae"><path d="M249 1h61v75h-61z"/></clipPath><clipPath id="ag"><path d="M311 1h61v75h-61z"/></clipPath><clipPath id="ai"><path d="M373 1h61v75h-61z"/></clipPath><clipPath id="ak"><path d="M435 1h61v75h-61z"/></clipPath><clipPath id="am"><path d="M497 1h61v75h-61z"/></clipPath><clipPath id="ao"><path d="M559 1h61v75h-61z"/></clipPath><clipPath id="ap"><path d="M621 1h61v75h-61z"/></clipPath><path id="b" fill="#2d212e" d="M2.6-2.1 1.5 1.1q-.8 2-2 3.1l-1.3-1.5-1-.6q.6-1.3.6-3.1l.9-3.1 3.9.4q.3.9 0 1.6" transform="translate(2.75 4.15)"/><path id="c" fill="#2d212e" d="M-2-1.1q-.2-2.4 1.1-3.2 1.5-.2 2.8 1Q3-2 2.8.2l-1 1.1-.4 1.6Q.6 4.3.8 4.4L-2.6 4q-.6-1.2-.1-1.8.2-.3.2-1.8-.1-1 .5-1.5" transform="translate(2.95 4.35)"/><path id="d" fill="#2d212e" d="M1.9-6.3q1.5 0 2.4 1.4L5-2.5q0 2-.7 3l-.6 1q-.6 1.3-.4 3.3L3 5l-1.9.9-2 .4h-1.7l-.6-.1-1.1-.7q-1.2-.9-.3-5V.4q-.5-1 .2-3t1.3-2.2l1.6-.8q-.1.4.8 1l1 .3h2.2q.7-.1.5-1.3z" transform="translate(5.05 6.35)"/><path id="e" fill="#2d212e" d="M3.3-4.2q.9.9.9 3.2 0 2.7.8 4-1.5.8-2.8 1.2l-4.1.3-1.4-.4L-5 3l1.3-7.6q1 .8 2.6 1 1.8.1 4.4-.6" transform="translate(5 4.65)"/><path id="f" fill="#201721" d="M2.6-2.1 1.5 1.1q-.8 2-2 3.1l-1.3-1.5-1-.6q.6-1.3.6-3.1l.9-3.1 3.9.4q.3.9 0 1.6" transform="translate(2.75 4.15)"/><path id="g" fill="#201721" d="m2.4-.5.2.4-.1 1q-.3 1.5-.1 1.8.3.8-.5 1.7L-1 3.7l-.4-1.6Q-1.5 1-1.3.3l-.3-.4-.9-.6h-.1l.1-.2Q-.1-5.2 2.2-4q1 1.1.2 3.5" transform="translate(2.7 4.3)"/><path id="s" fill="#382c16" d="M5.8-1.9Q7.9-1.4 8-.5 8 .3 5.9 1 3.8 1.8.7 2l-5.2-.4Q-6.7 1.2-6.7.3q-.1-.8 2-1.6 2.2-.8 5.2-.9z" transform="translate(6.75 2.25)"/></defs><g clip-path="url(#F)"><g transform="translate(22.55 67.8)"><use xlink:href="#G" width="14.7" height="4.3" transform="matrix(.8 0 0 .8008 -5.4 -1.8)"/><use xlink:href="#H" width="6" height="5.5" transform="matrix(.0528 .6799 .6582 .2189 5 -18.4)"/><use xlink:href="#I" width="5.4" height="2.9" transform="matrix(1 0 .0873 1 2.1 -3.25)"/><use xlink:href="#J" width="4.5" height="8.4" transform="matrix(-.9915 .0698 .123 .9992 6.05 -11)"/><use xlink:href="#K" width="7.7" height="10.6" transform="matrix(.9757 -.1364 .2836 .9841 .95 -32.4)"/><use xlink:href="#L" width="9.1" height="9.7" transform="matrix(.9059 -.3307 .3872 .9587 3.1 -22.85)"/><use xlink:href="#M" width="5" height="11.1" transform="matrix(.9994 .0087 .114 .9989 -.25 -19.45)"/><use xlink:href="#N" width="6.9" height="3.8" transform="matrix(.9358 .0901 -.0334 1 -4.85 -1.8)"/><use xlink:href="#O" width="4.5" height="8.4" transform="matrix(-1.001 .0698 -.0171 1.0002 1.65 -8.55)"/><use xlink:href="#P" width="5" height="11.1" transform="matrix(1 0 .0159 1 -4.15 -17.4)"/><use xlink:href="#Q" width="10" height="9.3" transform="matrix(1.0107 -.1097 .142 .9987 -4.75 -18.75)"/><use xlink:href="#R" width="10.1" height="14.1" transform="matrix(1.0093 -.0962 -.097 1 -3.65 -31.65)"/><use xlink:href="#S" width="15.7" height="15.8" transform="translate(-7.5 -46.75)"/><use xlink:href="#T" width="9.4" height="10.7" transform="matrix(.9868 -.0918 .3292 .9753 -7.75 -30.6)"/><use xlink:href="#U" width="24.9" height="14.2" transform="matrix(-.7445 .6711 .5829 .8116 -2.95 -20.6)"/><use xlink:href="#V" width="4" height="5" transform="matrix(.8779 -.5864 .4043 .9592 -4.65 -13)"/><use xlink:href="#W" width="9.1" height="9.7" transform="matrix(.9782 -.1592 .0725 1.0063 -4.45 -21.25)"/><use xlink:href="#X" width="36.4" height="34.2" transform="translate(2.6 -66.8)"/></g></g><g clip-path="url(#Y)"><g transform="translate(84.55 67.8)"><use xlink:href="#G" width="14.7" height="4.3" transform="matrix(.8 0 0 .8008 -5.4 -1.8)"/><use xlink:href="#H" width="6" height="5.5" transform="matrix(.0528 .6799 .6582 .2189 5 -18.4)"/><use xlink:href="#I" width="5.4" height="2.9" transform="matrix(1 0 .0873 1 2.1 -3.25)"/><use xlink:href="#J" width="4.5" height="8.4" transform="matrix(-.9915 .0698 .123 .9992 6.05 -11)"/><use xlink:href="#K" width="7.7" height="10.6" transform="matrix(.9757 -.1364 .2836 .9841 .95 -32.4)"/><use xlink:href="#L" width="9.1" height="9.7" transform="matrix(.9059 -.3307 .3872 .9587 3.1 -22.85)"/><use xlink:href="#M" width="5" height="11.1" transform="matrix(.9994 .0087 .114 .9989 -.25 -19.45)"/><use xlink:href="#N" width="6.9" height="3.8" transform="matrix(.9358 .0901 -.0334 1 -4.85 -1.8)"/><use xlink:href="#O" width="4.5" height="8.4" transform="matrix(-1.001 .0698 -.0171 1.0002 1.65 -8.55)"/><use xlink:href="#P" width="5" height="11.1" transform="matrix(1 0 .0159 1 -4.15 -17.4)"/><use xlink:href="#Q" width="10" height="9.3" transform="matrix(1.0107 -.1097 .142 .9987 -4.75 -18.75)"/><use xlink:href="#R" width="10.1" height="14.1" transform="matrix(1.0093 -.0962 -.097 1 -3.65 -31.65)"/><use xlink:href="#S" width="15.7" height="15.8" transform="translate(-7.5 -46.75)"/><use xlink:href="#T" width="9.4" height="10.7" transform="matrix(.9868 -.0918 .3292 .9753 -7.75 -30.6)"/><use xlink:href="#U" width="24.9" height="14.2" transform="matrix(-.7445 .6711 .5829 .8116 -2.95 -20.6)"/><use xlink:href="#V" width="4" height="5" transform="matrix(.8779 -.5864 .4043 .9592 -4.65 -13)"/><use xlink:href="#W" width="9.1" height="9.7" transform="matrix(.9782 -.1592 .0725 1.0063 -4.45 -21.25)"/><use xlink:href="#Z" width="36.4" height="34.2" transform="translate(2.6 -66.8)"/></g></g><g clip-path="url(#aa)"><g transform="translate(146.55 67.8)"><use xlink:href="#G" width="14.7" height="4.3" transform="matrix(.8 0 0 .8008 -5.4 -1.8)"/><use xlink:href="#H" width="6" height="5.5" transform="matrix(.0528 .6799 .6582 .2189 5 -18.4)"/><use xlink:href="#I" width="5.4" height="2.9" transform="matrix(1 0 .0873 1 2.1 -3.25)"/><use xlink:href="#J" width="4.5" height="8.4" transform="matrix(-.9915 .0698 .123 .9992 6.05 -11)"/><use xlink:href="#K" width="7.7" height="10.6" transform="matrix(.9757 -.1364 .2836 .9841 .95 -32.4)"/><use xlink:href="#L" width="9.1" height="9.7" transform="matrix(.9059 -.3307 .3872 .9587 3.1 -22.85)"/><use xlink:href="#M" width="5" height="11.1" transform="matrix(.9994 .0087 .114 .9989 -.25 -19.45)"/><use xlink:href="#N" width="6.9" height="3.8" transform="matrix(.9358 .0901 -.0334 1 -4.85 -1.8)"/><use xlink:href="#O" width="4.5" height="8.4" transform="matrix(-1.001 .0698 -.0171 1.0002 1.65 -8.55)"/><use xlink:href="#P" width="5" height="11.1" transform="matrix(1 0 .0159 1 -4.15 -17.4)"/><use xlink:href="#Q" width="10" height="9.3" transform="matrix(1.0107 -.1097 .142 .9987 -4.75 -18.75)"/><use xlink:href="#R" width="10.1" height="14.1" transform="matrix(1.0093 -.0962 -.097 1 -3.65 -31.65)"/><use xlink:href="#S" width="15.7" height="15.8" transform="translate(-7.5 -46.75)"/><use xlink:href="#T" width="9.4" height="10.7" transform="matrix(.9868 -.0918 .3292 .9753 -7.75 -30.6)"/><use xlink:href="#U" width="24.9" height="14.2" transform="matrix(-.7445 .6711 .5829 .8116 -2.95 -20.6)"/><use xlink:href="#V" width="4" height="5" transform="matrix(.8779 -.5864 .4043 .9592 -4.65 -13)"/><use xlink:href="#W" width="9.1" height="9.7" transform="matrix(.9782 -.1592 .0725 1.0063 -4.45 -21.25)"/><use xlink:href="#ab" width="36.4" height="34.2" transform="translate(2.6 -66.8)"/></g></g><g clip-path="url(#ac)"><g transform="translate(208.55 67.8)"><use xlink:href="#G" width="14.7" height="4.3" transform="matrix(.8 0 0 .8008 -5.4 -1.8)"/><use xlink:href="#H" width="6" height="5.5" transform="matrix(.0528 .6799 .6582 .2189 5 -18.4)"/><use xlink:href="#I" width="5.4" height="2.9" transform="matrix(1 0 .0873 1 2.1 -3.25)"/><use xlink:href="#J" width="4.5" height="8.4" transform="matrix(-.9915 .0698 .123 .9992 6.05 -11)"/><use xlink:href="#K" width="7.7" height="10.6" transform="matrix(.9757 -.1364 .2836 .9841 .95 -32.4)"/><use xlink:href="#L" width="9.1" height="9.7" transform="matrix(.9059 -.3307 .3872 .9587 3.1 -22.85)"/><use xlink:href="#M" width="5" height="11.1" transform="matrix(.9994 .0087 .114 .9989 -.25 -19.45)"/><use xlink:href="#N" width="6.9" height="3.8" transform="matrix(.9358 .0901 -.0334 1 -4.85 -1.8)"/><use xlink:href="#O" width="4.5" height="8.4" transform="matrix(-1.001 .0698 -.0171 1.0002 1.65 -8.55)"/><use xlink:href="#P" width="5" height="11.1" transform="matrix(1 0 .0159 1 -4.15 -17.4)"/><use xlink:href="#Q" width="10" height="9.3" transform="matrix(1.0107 -.1097 .142 .9987 -4.75 -18.75)"/><use xlink:href="#R" width="10.1" height="14.1" transform="matrix(1.0093 -.0962 -.097 1 -3.65 -31.65)"/><use xlink:href="#S" width="15.7" height="15.8" transform="translate(-7.5 -46.75)"/><use xlink:href="#T" width="9.4" height="10.7" transform="matrix(.9868 -.0918 .3292 .9753 -7.75 -30.6)"/><use xlink:href="#U" width="24.9" height="14.2" transform="matrix(-.7445 .6711 .5829 .8116 -2.95 -20.6)"/><use xlink:href="#V" width="4" height="5" transform="matrix(.8779 -.5864 .4043 .9592 -4.65 -13)"/><use xlink:href="#W" width="9.1" height="9.7" transform="matrix(.9782 -.1592 .0725 1.0063 -4.45 -21.25)"/><use xlink:href="#ad" width="36.4" height="34.2" transform="translate(2.6 -66.8)"/></g></g><g clip-path="url(#ae)"><g transform="translate(270.55 67.8)"><use xlink:href="#G" width="14.7" height="4.3" transform="matrix(.8 0 0 .8008 -5.4 -1.8)"/><use xlink:href="#H" width="6" height="5.5" transform="matrix(.0528 .6799 .6582 .2189 5 -18.4)"/><use xlink:href="#I" width="5.4" height="2.9" transform="matrix(1 0 .0873 1 2.1 -3.25)"/><use xlink:href="#J" width="4.5" height="8.4" transform="matrix(-.9915 .0698 .123 .9992 6.05 -11)"/><use xlink:href="#K" width="7.7" height="10.6" transform="matrix(.9757 -.1364 .2836 .9841 .95 -32.4)"/><use xlink:href="#L" width="9.1" height="9.7" transform="matrix(.9059 -.3307 .3872 .9587 3.1 -22.85)"/><use xlink:href="#M" width="5" height="11.1" transform="matrix(.9994 .0087 .114 .9989 -.25 -19.45)"/><use xlink:href="#N" width="6.9" height="3.8" transform="matrix(.9358 .0901 -.0334 1 -4.85 -1.8)"/><use xlink:href="#O" width="4.5" height="8.4" transform="matrix(-1.001 .0698 -.0171 1.0002 1.65 -8.55)"/><use xlink:href="#P" width="5" height="11.1" transform="matrix(1 0 .0159 1 -4.15 -17.4)"/><use xlink:href="#Q" width="10" height="9.3" transform="matrix(1.0107 -.1097 .142 .9987 -4.75 -18.75)"/><use xlink:href="#R" width="10.1" height="14.1" transform="matrix(1.0093 -.0962 -.097 1 -3.65 -31.65)"/><use xlink:href="#S" width="15.7" height="15.8" transform="translate(-7.5 -46.75)"/><use xlink:href="#T" width="9.4" height="10.7" transform="matrix(.9868 -.0918 .3292 .9753 -7.75 -30.6)"/><use xlink:href="#U" width="24.9" height="14.2" transform="matrix(-.7445 .6711 .5829 .8116 -2.95 -20.6)"/><use xlink:href="#V" width="4" height="5" transform="matrix(.8779 -.5864 .4043 .9592 -4.65 -13)"/><use xlink:href="#W" width="9.1" height="9.7" transform="matrix(.9782 -.1592 .0725 1.0063 -4.45 -21.25)"/><use xlink:href="#af" width="36.4" height="34.2" transform="translate(2.6 -66.8)"/></g></g><g clip-path="url(#ag)"><g transform="translate(332.55 67.8)"><use xlink:href="#G" width="14.7" height="4.3" transform="matrix(.8 0 0 .8008 -5.4 -1.8)"/><use xlink:href="#H" width="6" height="5.5" transform="matrix(.0528 .6799 .6582 .2189 5 -18.4)"/><use xlink:href="#I" width="5.4" height="2.9" transform="matrix(1 0 .0873 1 2.1 -3.25)"/><use xlink:href="#J" width="4.5" height="8.4" transform="matrix(-.9915 .0698 .123 .9992 6.05 -11)"/><use xlink:href="#K" width="7.7" height="10.6" transform="matrix(.9757 -.1364 .2836 .9841 .95 -32.4)"/><use xlink:href="#L" width="9.1" height="9.7" transform="matrix(.9059 -.3307 .3872 .9587 3.1 -22.85)"/><use xlink:href="#M" width="5" height="11.1" transform="matrix(.9994 .0087 .114 .9989 -.25 -19.45)"/><use xlink:href="#N" width="6.9" height="3.8" transform="matrix(.9358 .0901 -.0334 1 -4.85 -1.8)"/><use xlink:href="#O" width="4.5" height="8.4" transform="matrix(-1.001 .0698 -.0171 1.0002 1.65 -8.55)"/><use xlink:href="#P" width="5" height="11.1" transform="matrix(1 0 .0159 1 -4.15 -17.4)"/><use xlink:href="#Q" width="10" height="9.3" transform="matrix(1.0107 -.1097 .142 .9987 -4.75 -18.75)"/><use xlink:href="#R" width="10.1" height="14.1" transform="matrix(1.0093 -.0962 -.097 1 -3.65 -31.65)"/><use xlink:href="#S" width="15.7" height="15.8" transform="translate(-7.5 -46.75)"/><use xlink:href="#T" width="9.4" height="10.7" transform="matrix(.9868 -.0918 .3292 .9753 -7.75 -30.6)"/><use xlink:href="#U" width="24.9" height="14.2" transform="matrix(-.7445 .6711 .5829 .8116 -2.95 -20.6)"/><use xlink:href="#V" width="4" height="5" transform="matrix(.8779 -.5864 .4043 .9592 -4.65 -13)"/><use xlink:href="#W" width="9.1" height="9.7" transform="matrix(.9782 -.1592 .0725 1.0063 -4.45 -21.25)"/><use xlink:href="#ah" width="36.4" height="34.2" transform="translate(2.6 -66.8)"/></g></g><g clip-path="url(#ai)"><g transform="translate(394.55 67.8)"><use xlink:href="#G" width="14.7" height="4.3" transform="matrix(.8 0 0 .8008 -5.4 -1.8)"/><use xlink:href="#H" width="6" height="5.5" transform="matrix(.0528 .6799 .6582 .2189 5 -18.4)"/><use xlink:href="#I" width="5.4" height="2.9" transform="matrix(1 0 .0873 1 2.1 -3.25)"/><use xlink:href="#J" width="4.5" height="8.4" transform="matrix(-.9915 .0698 .123 .9992 6.05 -11)"/><use xlink:href="#K" width="7.7" height="10.6" transform="matrix(.9757 -.1364 .2836 .9841 .95 -32.4)"/><use xlink:href="#L" width="9.1" height="9.7" transform="matrix(.9059 -.3307 .3872 .9587 3.1 -22.85)"/><use xlink:href="#M" width="5" height="11.1" transform="matrix(.9994 .0087 .114 .9989 -.25 -19.45)"/><use xlink:href="#N" width="6.9" height="3.8" transform="matrix(.9358 .0901 -.0334 1 -4.85 -1.8)"/><use xlink:href="#O" width="4.5" height="8.4" transform="matrix(-1.001 .0698 -.0171 1.0002 1.65 -8.55)"/><use xlink:href="#P" width="5" height="11.1" transform="matrix(1 0 .0159 1 -4.15 -17.4)"/><use xlink:href="#Q" width="10" height="9.3" transform="matrix(1.0107 -.1097 .142 .9987 -4.75 -18.75)"/><use xlink:href="#R" width="10.1" height="14.1" transform="matrix(1.0093 -.0962 -.097 1 -3.65 -31.65)"/><use xlink:href="#S" width="15.7" height="15.8" transform="translate(-7.5 -46.75)"/><use xlink:href="#T" width="9.4" height="10.7" transform="matrix(.9868 -.0918 .3292 .9753 -7.75 -30.6)"/><use xlink:href="#U" width="24.9" height="14.2" transform="matrix(-.7445 .6711 .5829 .8116 -2.95 -20.6)"/><use xlink:href="#V" width="4" height="5" transform="matrix(.8779 -.5864 .4043 .9592 -4.65 -13)"/><use xlink:href="#W" width="9.1" height="9.7" transform="matrix(.9782 -.1592 .0725 1.0063 -4.45 -21.25)"/><use xlink:href="#aj" width="36.4" height="34.2" transform="translate(2.6 -66.8)"/></g></g><g clip-path="url(#ak)"><g transform="translate(456.55 67.8)"><use xlink:href="#G" width="14.7" height="4.3" transform="matrix(.8 0 0 .8008 -5.4 -1.8)"/><use xlink:href="#H" width="6" height="5.5" transform="matrix(.0528 .6799 .6582 .2189 5 -18.4)"/><use xlink:href="#I" width="5.4" height="2.9" transform="matrix(1 0 .0873 1 2.1 -3.25)"/><use xlink:href="#J" width="4.5" height="8.4" transform="matrix(-.9915 .0698 .123 .9992 6.05 -11)"/><use xlink:href="#K" width="7.7" height="10.6" transform="matrix(.9757 -.1364 .2836 .9841 .95 -32.4)"/><use xlink:href="#L" width="9.1" height="9.7" transform="matrix(.9059 -.3307 .3872 .9587 3.1 -22.85)"/><use xlink:href="#M" width="5" height="11.1" transform="matrix(.9994 .0087 .114 .9989 -.25 -19.45)"/><use xlink:href="#N" width="6.9" height="3.8" transform="matrix(.9358 .0901 -.0334 1 -4.85 -1.8)"/><use xlink:href="#O" width="4.5" height="8.4" transform="matrix(-1.001 .0698 -.0171 1.0002 1.65 -8.55)"/><use xlink:href="#P" width="5" height="11.1" transform="matrix(1 0 .0159 1 -4.15 -17.4)"/><use xlink:href="#Q" width="10" height="9.3" transform="matrix(1.0107 -.1097 .142 .9987 -4.75 -18.75)"/><use xlink:href="#R" width="10.1" height="14.1" transform="matrix(1.0093 -.0962 -.097 1 -3.65 -31.65)"/><use xlink:href="#S" width="15.7" height="15.8" transform="translate(-7.5 -46.75)"/><use xlink:href="#T" width="9.4" height="10.7" transform="matrix(.9868 -.0918 .3292 .9753 -7.75 -30.6)"/><use xlink:href="#U" width="24.9" height="14.2" transform="matrix(-.7445 .6711 .5829 .8116 -2.95 -20.6)"/><use xlink:href="#V" width="4" height="5" transform="matrix(.8779 -.5864 .4043 .9592 -4.65 -13)"/><use xlink:href="#W" width="9.1" height="9.7" transform="matrix(.9782 -.1592 .0725 1.0063 -4.45 -21.25)"/><use xlink:href="#al" width="36.4" height="34.2" transform="translate(2.6 -66.8)"/></g></g><g clip-path="url(#am)"><g transform="translate(518.55 67.8)"><use xlink:href="#G" width="14.7" height="4.3" transform="matrix(.8 0 0 .8008 -5.4 -1.8)"/><use xlink:href="#H" width="6" height="5.5" transform="matrix(.0528 .6799 .6582 .2189 5 -18.4)"/><use xlink:href="#I" width="5.4" height="2.9" transform="matrix(1 0 .0873 1 2.1 -3.25)"/><use xlink:href="#J" width="4.5" height="8.4" transform="matrix(-.9915 .0698 .123 .9992 6.05 -11)"/><use xlink:href="#K" width="7.7" height="10.6" transform="matrix(.9757 -.1364 .2836 .9841 .95 -32.4)"/><use xlink:href="#L" width="9.1" height="9.7" transform="matrix(.9059 -.3307 .3872 .9587 3.1 -22.85)"/><use xlink:href="#M" width="5" height="11.1" transform="matrix(.9994 .0087 .114 .9989 -.25 -19.45)"/><use xlink:href="#N" width="6.9" height="3.8" transform="matrix(.9358 .0901 -.0334 1 -4.85 -1.8)"/><use xlink:href="#O" width="4.5" height="8.4" transform="matrix(-1.001 .0698 -.0171 1.0002 1.65 -8.55)"/><use xlink:href="#P" width="5" height="11.1" transform="matrix(1 0 .0159 1 -4.15 -17.4)"/><use xlink:href="#Q" width="10" height="9.3" transform="matrix(1.0107 -.1097 .142 .9987 -4.75 -18.75)"/><use xlink:href="#R" width="10.1" height="14.1" transform="matrix(1.0093 -.0962 -.097 1 -3.65 -31.65)"/><use xlink:href="#S" width="15.7" height="15.8" transform="translate(-7.5 -46.75)"/><use xlink:href="#T" width="9.4" height="10.7" transform="matrix(.9868 -.0918 .3292 .9753 -7.75 -30.6)"/><use xlink:href="#U" width="24.9" height="14.2" transform="matrix(-.7445 .6711 .5829 .8116 -2.95 -20.6)"/><use xlink:href="#V" width="4" height="5" transform="matrix(.8779 -.5864 .4043 .9592 -4.65 -13)"/><use xlink:href="#W" width="9.1" height="9.7" transform="matrix(.9782 -.1592 .0725 1.0063 -4.45 -21.25)"/><use xlink:href="#an" width="36.4" height="34.2" transform="translate(2.6 -66.8)"/></g></g><g clip-path="url(#ao)"><g transform="translate(580.55 67.8)"><use xlink:href="#G" width="14.7" height="4.3" transform="matrix(.8 0 0 .8008 -5.4 -1.8)"/><use xlink:href="#H" width="6" height="5.5" transform="matrix(.0528 .6799 .6582 .2189 5 -18.4)"/><use xlink:href="#I" width="5.4" height="2.9" transform="matrix(1 0 .0873 1 2.1 -3.25)"/><use xlink:href="#J" width="4.5" height="8.4" transform="matrix(-.9915 .0698 .123 .9992 6.05 -11)"/><use xlink:href="#K" width="7.7" height="10.6" transform="matrix(.9757 -.1364 .2836 .9841 .95 -32.4)"/><use xlink:href="#L" width="9.1" height="9.7" transform="matrix(.9059 -.3307 .3872 .9587 3.1 -22.85)"/><use xlink:href="#M" width="5" height="11.1" transform="matrix(.9994 .0087 .114 .9989 -.25 -19.45)"/><use xlink:href="#N" width="6.9" height="3.8" transform="matrix(.9358 .0901 -.0334 1 -4.85 -1.8)"/><use xlink:href="#O" width="4.5" height="8.4" transform="matrix(-1.001 .0698 -.0171 1.0002 1.65 -8.55)"/><use xlink:href="#P" width="5" height="11.1" transform="matrix(1 0 .0159 1 -4.15 -17.4)"/><use xlink:href="#Q" width="10" height="9.3" transform="matrix(1.0107 -.1097 .142 .9987 -4.75 -18.75)"/><use xlink:href="#R" width="10.1" height="14.1" transform="matrix(1.0093 -.0962 -.097 1 -3.65 -31.65)"/><use xlink:href="#S" width="15.7" height="15.8" transform="translate(-7.5 -46.75)"/><use xlink:href="#T" width="9.4" height="10.7" transform="matrix(.9868 -.0918 .3292 .9753 -7.75 -30.6)"/><use xlink:href="#U" width="24.9" height="14.2" transform="matrix(-.7445 .6711 .5829 .8116 -2.95 -20.6)"/><use xlink:href="#V" width="4" height="5" transform="matrix(.8779 -.5864 .4043 .9592 -4.65 -13)"/><use xlink:href="#W" width="9.1" height="9.7" transform="matrix(.9782 -.1592 .0725 1.0063 -4.45 -21.25)"/></g></g><g clip-path="url(#ap)"><g transform="translate(642.55 67.8)"><use xlink:href="#G" width="14.7" height="4.3" transform="matrix(.8 0 0 .8008 -5.4 -1.8)"/><use xlink:href="#H" width="6" height="5.5" transform="matrix(.0528 .6799 .6582 .2189 5 -18.4)"/><use xlink:href="#I" width="5.4" height="2.9" transform="matrix(1 0 .0873 1 2.1 -3.25)"/><use xlink:href="#J" width="4.5" height="8.4" transform="matrix(-.9915 .0698 .123 .9992 6.05 -11)"/><use xlink:href="#K" width="7.7" height="10.6" transform="matrix(.9757 -.1364 .2836 .9841 .95 -32.4)"/><use xlink:href="#L" width="9.1" height="9.7" transform="matrix(.9059 -.3307 .3872 .9587 3.1 -22.85)"/><use xlink:href="#M" width="5" height="11.1" transform="matrix(.9994 .0087 .114 .9989 -.25 -19.45)"/><use xlink:href="#N" width="6.9" height="3.8" transform="matrix(.9358 .0901 -.0334 1 -4.85 -1.8)"/><use xlink:href="#O" width="4.5" height="8.4" transform="matrix(-1.001 .0698 -.0171 1.0002 1.65 -8.55)"/><use xlink:href="#P" width="5" height="11.1" transform="matrix(1 0 .0159 1 -4.15 -17.4)"/><use xlink:href="#Q" width="10" height="9.3" transform="matrix(1.0107 -.1097 .142 .9987 -4.75 -18.75)"/><use xlink:href="#R" width="10.1" height="14.1" transform="matrix(1.0093 -.0962 -.097 1 -3.65 -31.65)"/><use xlink:href="#S" width="15.7" height="15.8" transform="translate(-7.5 -46.75)"/><use xlink:href="#T" width="9.4" height="10.7" transform="matrix(.9868 -.0918 .3292 .9753 -7.75 -30.6)"/><use xlink:href="#U" width="24.9" height="14.2" transform="matrix(-.7445 .6711 .5829 .8116 -2.95 -20.6)"/><use xlink:href="#V" width="4" height="5" transform="matrix(.8779 -.5864 .4043 .9592 -4.65 -13)"/><use xlink:href="#W" width="9.1" height="9.7" transform="matrix(.9782 -.1592 .0725 1.0063 -4.45 -21.25)"/><use xlink:href="#aq" width="36.4" height="34.2" transform="translate(2.6 -66.8)"/></g></g></svg>