<svg xmlns="http://www.w3.org/2000/svg" xmlns:xlink="http://www.w3.org/1999/xlink" width="2789" height="62" viewBox="0 0 2789 62"><defs><clipPath id="N"><path d="M1 1h67v60H1z"/></clipPath><clipPath id="R"><path d="M69 1h67v60H69z"/></clipPath><clipPath id="S"><path d="M137 1h67v60h-67z"/></clipPath><clipPath id="T"><path d="M205 1h67v60h-67z"/></clipPath><clipPath id="U"><path d="M273 1h67v60h-67z"/></clipPath><clipPath id="V"><path d="M341 1h67v60h-67z"/></clipPath><clipPath id="W"><path d="M409 1h67v60h-67z"/></clipPath><clipPath id="X"><path d="M477 1h67v60h-67z"/></clipPath><clipPath id="Y"><path d="M545 1h67v60h-67z"/></clipPath><clipPath id="Z"><path d="M613 1h67v60h-67z"/></clipPath><clipPath id="aa"><path d="M681 1h67v60h-67z"/></clipPath><clipPath id="ab"><path d="M749 1h67v60h-67z"/></clipPath><clipPath id="ac"><path d="M817 1h67v60h-67z"/></clipPath><clipPath id="ad"><path d="M885 1h67v60h-67z"/></clipPath><clipPath id="ae"><path d="M953 1h67v60h-67z"/></clipPath><clipPath id="af"><path d="M1021 1h67v60h-67z"/></clipPath><clipPath id="ag"><path d="M1089 1h67v60h-67z"/></clipPath><clipPath id="ah"><path d="M1157 1h67v60h-67z"/></clipPath><clipPath id="ai"><path d="M1225 1h67v60h-67z"/></clipPath><clipPath id="aj"><path d="M1293 1h67v60h-67z"/></clipPath><clipPath id="ak"><path d="M1361 1h67v60h-67z"/></clipPath><clipPath id="al"><path d="M1429 1h67v60h-67z"/></clipPath><clipPath id="am"><path d="M1497 1h67v60h-67z"/></clipPath><clipPath id="ap"><path d="M1565 1h67v60h-67z"/></clipPath><clipPath id="as"><path d="M1633 1h67v60h-67z"/></clipPath><clipPath id="av"><path d="M1701 1h67v60h-67z"/></clipPath><clipPath id="ay"><path d="M1769 1h67v60h-67z"/></clipPath><clipPath id="aB"><path d="M1837 1h67v60h-67z"/></clipPath><clipPath id="aE"><path d="M1905 1h67v60h-67z"/></clipPath><clipPath id="aH"><path d="M1973 1h67v60h-67z"/></clipPath><clipPath id="aK"><path d="M2041 1h67v60h-67z"/></clipPath><clipPath id="aN"><path d="M2109 1h67v60h-67z"/></clipPath><clipPath id="aQ"><path d="M2177 1h67v60h-67z"/></clipPath><clipPath id="aT"><path d="M2245 1h67v60h-67z"/></clipPath><clipPath id="aW"><path d="M2313 1h67v60h-67z"/></clipPath><clipPath id="aZ"><path d="M2381 1h67v60h-67z"/></clipPath><clipPath id="bc"><path d="M2449 1h67v60h-67z"/></clipPath><clipPath id="bf"><path d="M2517 1h67v60h-67z"/></clipPath><clipPath id="bi"><path d="M2585 1h67v60h-67z"/></clipPath><clipPath id="bl"><path d="M2653 1h67v60h-67z"/></clipPath><clipPath id="bo"><path d="M2721 1h67v60h-67z"/></clipPath><use xlink:href="#a" id="bn" width="21.1" height="17.9"/><use xlink:href="#b" id="bm" width="14.3" height="14.3"/><use xlink:href="#c" id="bk" width="21.1" height="17.9"/><use xlink:href="#d" id="bj" width="14.3" height="14.3"/><use xlink:href="#e" id="bh" width="21.1" height="17.9"/><use xlink:href="#f" id="bg" width="14.3" height="14.3"/><use xlink:href="#g" id="be" width="21.1" height="17.9"/><use xlink:href="#h" id="bd" width="14.3" height="14.3"/><use xlink:href="#i" id="bb" width="21.1" height="17.9"/><use xlink:href="#j" id="ba" width="14.3" height="14.3"/><use xlink:href="#k" id="aY" width="21.1" height="17.9"/><use xlink:href="#l" id="aX" width="14.3" height="14.3"/><use xlink:href="#m" id="aV" width="21.1" height="17.9"/><use xlink:href="#n" id="aU" width="14.3" height="14.3"/><use xlink:href="#o" id="aS" width="21.1" height="17.9"/><use xlink:href="#p" id="aR" width="14.3" height="14.3"/><use xlink:href="#q" id="aP" width="21.1" height="17.9"/><use xlink:href="#r" id="aO" width="14.3" height="14.3"/><use xlink:href="#s" id="aM" width="21.1" height="17.9"/><use xlink:href="#t" id="aL" width="14.3" height="14.3"/><use xlink:href="#u" id="aJ" width="21.1" height="17.9"/><use xlink:href="#v" id="aI" width="14.3" height="14.3"/><use xlink:href="#w" id="aG" width="21.1" height="17.9"/><use xlink:href="#x" id="aF" width="14.3" height="14.3"/><use xlink:href="#y" id="aD" width="21.1" height="17.9"/><use xlink:href="#z" id="aC" width="14.3" height="14.3"/><use xlink:href="#A" id="aA" width="21.1" height="17.9"/><use xlink:href="#B" id="az" width="14.3" height="14.3"/><use xlink:href="#C" id="ax" width="21.1" height="17.9"/><use xlink:href="#D" id="aw" width="14.3" height="14.3"/><use xlink:href="#E" id="au" width="21.1" height="17.9"/><use xlink:href="#F" id="at" width="14.3" height="14.3"/><use xlink:href="#G" id="ar" width="21.1" height="17.9"/><use xlink:href="#H" id="aq" width="14.3" height="14.3"/><use xlink:href="#I" id="ao" width="21.1" height="17.9"/><use xlink:href="#J" id="an" width="14.3" height="14.3"/><use xlink:href="#K" id="Q" width="21.1" height="17.9"/><use xlink:href="#L" id="P" width="14.3" height="14.3"/><use xlink:href="#M" id="O" width="14.7" height="4.3"/><g id="a"><path fill="#bc6458" d="M13.1 3q-1 2 3.2 4 1.8 1 4.2 1.2l.3.2.4 1q-2.5 2-8.8 2.9 1.4 2.5 5.7 2 .9 1.1 2.9 1.4-3.8 1.9-10.6.8Q7.7 17 3 15L.1 13.3q8 2.6 7.6-1.1-2.1-3-.3-8.2l2.4-.3zM14.6.2Q12 0 6.9 3.9v-.6Q7.2 2 8.5 1q5.5-1.4 6-.8m-.8 10q2.7-1.4 5-1.7-4.5-.7-5 1.7"/><path fill="#99504c" d="m13.1 3-3.3.7-2.4.3q-1.8 5.2.3 8.2Q8 16 0 13.4l-.1-.2q1.7.2 3.3-.9Q5.2 11 5 8.6t1.8-5.3v.6Q12 0 14.6.2q-.9.7-1.2 1.7zm-2.7 13.5q6.8 1 10.5-.8-1.3 1.6-5.2 2.1-2.9.4-5.3-1.3m7.7-2.1q-4.3.3-5.7-2.1 6.3-.8 8.8-2.9 0 1.1-1.2 1.7-2.9 1.4-2.1 3zM7.3 4l-.5-.1z"/><path fill="#f59797" d="M13.7 10.2q.5-2.4 5-1.7-2.3.3-5 1.7"/><path fill="none" stroke="#723f3d" stroke-linecap="round" stroke-linejoin="round" stroke-width="__RESOLUTION__" d="m21.2 9.4-.4-1-.3-.1q-2.4-.4-4.3-1.3-4-2-3.1-4l-3.3.7-2.5.3-.5-.1.1-.6Q4.9 6.2 5 8.6t-1.8 3.7q-1.5 1-3.2 1h.1L3 15q4.7 2 7.4 1.5 2.4 1.7 5.3 1.3 3.9-.5 5.3-2.1-2-.3-2.9-1.3l-.2-.4q-.8-1.6 2-2.9 1.3-.6 1.3-1.7M13 3l.3-1.1q.3-1 1.1-1.7-.5-.6-6 .8-1.3 1-1.6 2.3" vector-effect="non-scaling-stroke"/></g><g id="b"><path fill="#fff" d="m10.8 1 1.4 1q2 2.1 2.1 5 0 3-2.1 5-2.1 2.2-5 2.2h-.8Q3 12 4.2 7.3 5.4 2.4 10.8 1"/><path fill="#e0e0e0" d="M6.5 14.3Q5 14 3.7 13.4l-1.5-1.2Q0 10 0 7.2T2.2 2t5-2.1h.7q1.5.2 2.9 1-5.4 1.4-6.6 6.4-1.2 4.7 2.3 7"/><path fill="none" stroke="#847548" stroke-linecap="round" stroke-linejoin="round" stroke-width="__RESOLUTION__" d="m10.8 1 1.4 1q2 2.1 2.1 5 0 3-2.1 5-2.1 2.2-5 2.2h-.8Q5 14 3.7 13.4l-1.6-1.2Q0 10 0 7.2T2.2 2q2-2.1 5-2.1h.7q1.5.2 2.9 1" vector-effect="non-scaling-stroke"/></g><g id="c"><path fill="#c5796e" d="M13.1 3q-1 2 3.2 4 1.8 1 4.2 1.2l.3.2.4 1q-2.5 2-8.8 2.9 1.4 2.5 5.7 2 .9 1.1 2.9 1.4-3.8 1.9-10.6.8Q7.7 17 3 15L.1 13.3q8 2.6 7.6-1.1-2.1-3-.3-8.2l2.4-.3zM14.6.2Q12 0 6.9 3.9v-.6Q7.2 2 8.5 1q5.5-1.4 6-.8m-.8 10q2.7-1.4 5-1.7-4.5-.7-5 1.7"/><path fill="#a76764" d="m13.1 3-3.3.7-2.4.3q-1.8 5.2.3 8.2Q8 16 0 13.4l-.1-.2q1.7.2 3.3-.9Q5.2 11 5 8.6t1.8-5.3v.6Q12 0 14.6.2q-.9.7-1.2 1.7zm-2.7 13.5q6.8 1 10.5-.8-1.3 1.6-5.2 2.1-2.9.4-5.3-1.3m7.7-2.1q-4.3.3-5.7-2.1 6.3-.8 8.8-2.9 0 1.1-1.2 1.7-2.9 1.4-2.1 3zM7.3 4l-.5-.1z"/><path fill="#f6a5a5" d="M13.7 10.2q.5-2.4 5-1.7-2.3.3-5 1.7"/><path fill="none" stroke="#855957" stroke-linecap="round" stroke-linejoin="round" stroke-width="__RESOLUTION__" d="m21.2 9.4-.4-1-.3-.1q-2.4-.4-4.3-1.3-4-2-3.1-4l-3.3.7-2.5.3-.5-.1.1-.6Q4.9 6.2 5 8.6t-1.8 3.7q-1.5 1-3.2 1h.1L3 15q4.7 2 7.4 1.5 2.4 1.7 5.3 1.3 3.9-.5 5.3-2.1-2-.3-2.9-1.3l-.2-.4q-.8-1.6 2-2.9 1.3-.6 1.3-1.7M13 3l.3-1.1q.3-1 1.1-1.7-.5-.6-6 .8-1.3 1-1.6 2.3" vector-effect="non-scaling-stroke"/></g><g id="d"><path fill="#fff" d="m10.8 1 1.4 1q2 2.1 2.1 5 0 3-2.1 5-2.1 2.2-5 2.2h-.8Q3 12 4.2 7.3 5.4 2.4 10.8 1"/><path fill="#e4e4e4" d="M6.5 14.3Q5 14 3.7 13.4l-1.5-1.2Q0 10 0 7.2T2.2 2t5-2.1h.7q1.5.2 2.9 1-5.4 1.4-6.6 6.4-1.2 4.7 2.3 7"/><path fill="none" stroke="#948760" stroke-linecap="round" stroke-linejoin="round" stroke-width="__RESOLUTION__" d="m10.8 1 1.4 1q2 2.1 2.1 5 0 3-2.1 5-2.1 2.2-5 2.2h-.8Q5 14 3.7 13.4l-1.6-1.2Q0 10 0 7.2T2.2 2q2-2.1 5-2.1h.7q1.5.2 2.9 1" vector-effect="non-scaling-stroke"/></g><g id="e"><path fill="#ce8e85" d="M13.1 3q-1 2 3.2 4 1.8 1 4.2 1.2l.3.2.4 1q-2.5 2-8.8 2.9 1.4 2.5 5.7 2 .9 1.1 2.9 1.4-3.8 1.9-10.6.8Q7.7 17 3 15L.1 13.3q8 2.6 7.6-1.1-2.1-3-.3-8.2l2.4-.3zM14.6.2Q12 0 6.9 3.9v-.6Q7.2 2 8.5 1q5.5-1.4 6-.8m-.8 10q2.7-1.4 5-1.7-4.5-.7-5 1.7"/><path fill="#b57f7c" d="m13.1 3-3.3.7-2.4.3q-1.8 5.2.3 8.2Q8 16 0 13.4l-.1-.2q1.7.2 3.3-.9Q5.2 11 5 8.6t1.8-5.3v.6Q12 0 14.6.2q-.9.7-1.2 1.7zm-2.7 13.5q6.8 1 10.5-.8-1.3 1.6-5.2 2.1-2.9.4-5.3-1.3m7.7-2.1q-4.3.3-5.7-2.1 6.3-.8 8.8-2.9 0 1.1-1.2 1.7-2.9 1.4-2.1 3zM7.3 4l-.5-.1z"/><path fill="#f9b4b4" d="M13.7 10.2q.5-2.4 5-1.7-2.3.3-5 1.7"/><path fill="none" stroke="#987271" stroke-linecap="round" stroke-linejoin="round" stroke-width="__RESOLUTION__" d="m21.2 9.4-.4-1-.3-.1q-2.4-.4-4.3-1.3-4-2-3.1-4l-3.3.7-2.5.3-.5-.1.1-.6Q4.9 6.2 5 8.6t-1.8 3.7q-1.5 1-3.2 1h.1L3 15q4.7 2 7.4 1.5 2.4 1.7 5.3 1.3 3.9-.5 5.3-2.1-2-.3-2.9-1.3l-.2-.4q-.8-1.6 2-2.9 1.3-.6 1.3-1.7M13 3l.3-1.1q.3-1 1.1-1.7-.5-.6-6 .8-1.3 1-1.6 2.3" vector-effect="non-scaling-stroke"/></g><g id="f"><path fill="#fff" d="m10.8 1 1.4 1q2 2.1 2.1 5 0 3-2.1 5-2.1 2.2-5 2.2h-.8Q3 12 4.2 7.3 5.4 2.4 10.8 1"/><path fill="#e9e9e9" d="M6.5 14.3Q5 14 3.7 13.4l-1.5-1.2Q0 10 0 7.2T2.2 2t5-2.1h.7q1.5.2 2.9 1-5.4 1.4-6.6 6.4-1.2 4.7 2.3 7"/><path fill="none" stroke="#a59a79" stroke-linecap="round" stroke-linejoin="round" stroke-width="__RESOLUTION__" d="m10.8 1 1.4 1q2 2.1 2.1 5 0 3-2.1 5-2.1 2.2-5 2.2h-.8Q5 14 3.7 13.4l-1.6-1.2Q0 10 0 7.2T2.2 2q2-2.1 5-2.1h.7q1.5.2 2.9 1" vector-effect="non-scaling-stroke"/></g><g id="g"><path fill="#d6a19a" d="M13.1 3q-1 2 3.2 4 1.8 1 4.2 1.2l.3.2.4 1q-2.5 2-8.8 2.9 1.4 2.5 5.7 2 .9 1.1 2.9 1.4-3.8 1.9-10.6.8Q7.7 17 3 15L.1 13.3q8 2.6 7.6-1.1-2.1-3-.3-8.2l2.4-.3zM14.6.2Q12 0 6.9 3.9v-.6Q7.2 2 8.5 1q5.5-1.4 6-.8m-.8 10q2.7-1.4 5-1.7-4.5-.7-5 1.7"/><path fill="#c19593" d="m13.1 3-3.3.7-2.4.3q-1.8 5.2.3 8.2Q8 16 0 13.4l-.1-.2q1.7.2 3.3-.9Q5.2 11 5 8.6t1.8-5.3v.6Q12 0 14.6.2q-.9.7-1.2 1.7zm-2.7 13.5q6.8 1 10.5-.8-1.3 1.6-5.2 2.1-2.9.4-5.3-1.3m7.7-2.1q-4.3.3-5.7-2.1 6.3-.8 8.8-2.9 0 1.1-1.2 1.7-2.9 1.4-2.1 3zM7.3 4l-.5-.1z"/><path fill="#f9c0c0" d="M13.7 10.2q.5-2.4 5-1.7-2.3.3-5 1.7"/><path fill="none" stroke="#aa8b8a" stroke-linecap="round" stroke-linejoin="round" stroke-width="__RESOLUTION__" d="m21.2 9.4-.4-1-.3-.1q-2.4-.4-4.3-1.3-4-2-3.1-4l-3.3.7-2.5.3-.5-.1.1-.6Q4.9 6.2 5 8.6t-1.8 3.7q-1.5 1-3.2 1h.1L3 15q4.7 2 7.4 1.5 2.4 1.7 5.3 1.3 3.9-.5 5.3-2.1-2-.3-2.9-1.3l-.2-.4q-.8-1.6 2-2.9 1.3-.6 1.3-1.7M13 3l.3-1.1q.3-1 1.1-1.7-.5-.6-6 .8-1.3 1-1.6 2.3" vector-effect="non-scaling-stroke"/></g><g id="h"><path fill="#fff" d="m10.8 1 1.4 1q2 2.1 2.1 5 0 3-2.1 5-2.1 2.2-5 2.2h-.8Q3 12 4.2 7.3 5.4 2.4 10.8 1"/><path fill="#ececec" d="M6.5 14.3Q5 14 3.7 13.4l-1.5-1.2Q0 10 0 7.2T2.2 2t5-2.1h.7q1.5.2 2.9 1-5.4 1.4-6.6 6.4-1.2 4.7 2.3 7"/><path fill="none" stroke="#b5ab90" stroke-linecap="round" stroke-linejoin="round" stroke-width="__RESOLUTION__" d="m10.8 1 1.4 1q2 2.1 2.1 5 0 3-2.1 5-2.1 2.2-5 2.2h-.8Q5 14 3.7 13.4l-1.6-1.2Q0 10 0 7.2T2.2 2q2-2.1 5-2.1h.7q1.5.2 2.9 1" vector-effect="non-scaling-stroke"/></g><g id="i"><path fill="#dfb6b0" d="M13.1 3q-1 2 3.2 4 1.8 1 4.2 1.2l.3.2.4 1q-2.5 2-8.8 2.9 1.4 2.5 5.7 2 .9 1.1 2.9 1.4-3.8 1.9-10.6.8Q7.7 17 3 15L.1 13.3q8 2.6 7.6-1.1-2.1-3-.3-8.2l2.4-.3zM14.6.2Q12 0 6.9 3.9v-.6Q7.2 2 8.5 1q5.5-1.4 6-.8m-.8 10q2.7-1.4 5-1.7-4.5-.7-5 1.7"/><path fill="#cfacab" d="m13.1 3-3.3.7-2.4.3q-1.8 5.2.3 8.2Q8 16 0 13.4l-.1-.2q1.7.2 3.3-.9Q5.2 11 5 8.6t1.8-5.3v.6Q12 0 14.6.2q-.9.7-1.2 1.7zm-2.7 13.5q6.8 1 10.5-.8-1.3 1.6-5.2 2.1-2.9.4-5.3-1.3m7.7-2.1q-4.3.3-5.7-2.1 6.3-.8 8.8-2.9 0 1.1-1.2 1.7-2.9 1.4-2.1 3zM7.3 4l-.5-.1z"/><path fill="#facece" d="M13.7 10.2q.5-2.4 5-1.7-2.3.3-5 1.7"/><path fill="none" stroke="#bda4a4" stroke-linecap="round" stroke-linejoin="round" stroke-width="__RESOLUTION__" d="m21.2 9.4-.4-1-.3-.1q-2.4-.4-4.3-1.3-4-2-3.1-4l-3.3.7-2.5.3-.5-.1.1-.6Q4.9 6.2 5 8.6t-1.8 3.7q-1.5 1-3.2 1h.1L3 15q4.7 2 7.4 1.5 2.4 1.7 5.3 1.3 3.9-.5 5.3-2.1-2-.3-2.9-1.3l-.2-.4q-.8-1.6 2-2.9 1.3-.6 1.3-1.7M13 3l.3-1.1q.3-1 1.1-1.7-.5-.6-6 .8-1.3 1-1.6 2.3" vector-effect="non-scaling-stroke"/></g><g id="j"><path fill="#fff" d="m10.8 1 1.4 1q2 2.1 2.1 5 0 3-2.1 5-2.1 2.2-5 2.2h-.8Q3 12 4.2 7.3 5.4 2.4 10.8 1"/><path fill="#f0f0f0" d="M6.5 14.3Q5 14 3.7 13.4l-1.5-1.2Q0 10 0 7.2T2.2 2t5-2.1h.7q1.5.2 2.9 1-5.4 1.4-6.6 6.4-1.2 4.7 2.3 7"/><path fill="none" stroke="#c5bea9" stroke-linecap="round" stroke-linejoin="round" stroke-width="__RESOLUTION__" d="m10.8 1 1.4 1q2 2.1 2.1 5 0 3-2.1 5-2.1 2.2-5 2.2h-.8Q5 14 3.7 13.4l-1.6-1.2Q0 10 0 7.2T2.2 2q2-2.1 5-2.1h.7q1.5.2 2.9 1" vector-effect="non-scaling-stroke"/></g><g id="k"><path fill="#e8cbc6" d="M13.1 3q-1 2 3.2 4 1.8 1 4.2 1.2l.3.2.4 1q-2.5 2-8.8 2.9 1.4 2.5 5.7 2 .9 1.1 2.9 1.4-3.8 1.9-10.6.8Q7.7 17 3 15L.1 13.3q8 2.6 7.6-1.1-2.1-3-.3-8.2l2.4-.3zM14.6.2Q12 0 6.9 3.9v-.6Q7.2 2 8.5 1q5.5-1.4 6-.8m-.8 10q2.7-1.4 5-1.7-4.5-.7-5 1.7"/><path fill="#ddc4c2" d="m13.1 3-3.3.7-2.4.3q-1.8 5.2.3 8.2Q8 16 0 13.4l-.1-.2q1.7.2 3.3-.9Q5.2 11 5 8.6t1.8-5.3v.6Q12 0 14.6.2q-.9.7-1.2 1.7zm-2.7 13.5q6.8 1 10.5-.8-1.3 1.6-5.2 2.1-2.9.4-5.3-1.3m7.7-2.1q-4.3.3-5.7-2.1 6.3-.8 8.8-2.9 0 1.1-1.2 1.7-2.9 1.4-2.1 3zM7.3 4l-.5-.1z"/><path fill="#fcdcdc" d="M13.7 10.2q.5-2.4 5-1.7-2.3.3-5 1.7"/><path fill="none" stroke="#cfbebd" stroke-linecap="round" stroke-linejoin="round" stroke-width="__RESOLUTION__" d="m21.2 9.4-.4-1-.3-.1q-2.4-.4-4.3-1.3-4-2-3.1-4l-3.3.7-2.5.3-.5-.1.1-.6Q4.9 6.2 5 8.6t-1.8 3.7q-1.5 1-3.2 1h.1L3 15q4.7 2 7.4 1.5 2.4 1.7 5.3 1.3 3.9-.5 5.3-2.1-2-.3-2.9-1.3l-.2-.4q-.8-1.6 2-2.9 1.3-.6 1.3-1.7M13 3l.3-1.1q.3-1 1.1-1.7-.5-.6-6 .8-1.3 1-1.6 2.3" vector-effect="non-scaling-stroke"/></g><g id="l"><path fill="#fff" d="m10.8 1 1.4 1q2 2.1 2.1 5 0 3-2.1 5-2.1 2.2-5 2.2h-.8Q3 12 4.2 7.3 5.4 2.4 10.8 1"/><path fill="#f5f5f5" d="M6.5 14.3Q5 14 3.7 13.4l-1.5-1.2Q0 10 0 7.2T2.2 2t5-2.1h.7q1.5.2 2.9 1-5.4 1.4-6.6 6.4-1.2 4.7 2.3 7"/><path fill="none" stroke="#d5d0c1" stroke-linecap="round" stroke-linejoin="round" stroke-width="__RESOLUTION__" d="m10.8 1 1.4 1q2 2.1 2.1 5 0 3-2.1 5-2.1 2.2-5 2.2h-.8Q5 14 3.7 13.4l-1.6-1.2Q0 10 0 7.2T2.2 2q2-2.1 5-2.1h.7q1.5.2 2.9 1" vector-effect="non-scaling-stroke"/></g><g id="m"><path fill="#000" d="M13.1 3q-1 2 3.2 4 1.8 1 4.2 1.2l.3.2.4 1q-2.5 2-8.8 2.9 1.4 2.5 5.7 2 .9 1.1 2.9 1.4-3.8 1.9-10.6.8Q7.7 17 3 15L.1 13.3q8 2.6 7.6-1.1-2.1-3-.3-8.2l2.4-.3zM14.6.2Q12 0 6.9 3.9v-.6Q7.2 2 8.5 1q5.5-1.4 6-.8m-.8 10q2.7-1.4 5-1.7-4.5-.7-5 1.7"/><path fill="#000" d="m13.1 3-3.3.7-2.4.3q-1.8 5.2.3 8.2Q8 16 0 13.4l-.1-.2q1.7.2 3.3-.9Q5.2 11 5 8.6t1.8-5.3v.6Q12 0 14.6.2q-.9.7-1.2 1.7zm-2.7 13.5q6.8 1 10.5-.8-1.3 1.6-5.2 2.1-2.9.4-5.3-1.3m7.7-2.1q-4.3.3-5.7-2.1 6.3-.8 8.8-2.9 0 1.1-1.2 1.7-2.9 1.4-2.1 3zM7.3 4l-.5-.1zm6.4 6.2q.5-2.4 5-1.7-2.3.3-5 1.7"/><path fill="none" stroke="#000" stroke-linecap="round" stroke-linejoin="round" stroke-width="__RESOLUTION__" d="m21.2 9.4-.4-1-.3-.1q-2.4-.4-4.3-1.3-4-2-3.1-4l-3.3.7-2.5.3-.5-.1.1-.6Q4.9 6.2 5 8.6t-1.8 3.7q-1.5 1-3.2 1h.1L3 15q4.7 2 7.4 1.5 2.4 1.7 5.3 1.3 3.9-.5 5.3-2.1-2-.3-2.9-1.3l-.2-.4q-.8-1.6 2-2.9 1.3-.6 1.3-1.7M13 3l.3-1.1q.3-1 1.1-1.7-.5-.6-6 .8-1.3 1-1.6 2.3" vector-effect="non-scaling-stroke"/></g><g id="n"><path fill="#000" d="m10.8 1 1.4 1q2 2.1 2.1 5 0 3-2.1 5-2.1 2.2-5 2.2h-.8Q3 12 4.2 7.3 5.4 2.4 10.8 1"/><path fill="#000" d="M6.5 14.3Q5 14 3.7 13.4l-1.5-1.2Q0 10 0 7.2T2.2 2t5-2.1h.7q1.5.2 2.9 1-5.4 1.4-6.6 6.4-1.2 4.7 2.3 7"/><path fill="none" stroke="#000" stroke-linecap="round" stroke-linejoin="round" stroke-width="__RESOLUTION__" d="m10.8 1 1.4 1q2 2.1 2.1 5 0 3-2.1 5-2.1 2.2-5 2.2h-.8Q5 14 3.7 13.4l-1.6-1.2Q0 10 0 7.2T2.2 2q2-2.1 5-2.1h.7q1.5.2 2.9 1" vector-effect="non-scaling-stroke"/></g><g id="o"><path fill="#0e0605" d="M13.1 3q-1 2 3.2 4 1.8 1 4.2 1.2l.3.2.4 1q-2.5 2-8.8 2.9 1.4 2.5 5.7 2 .9 1.1 2.9 1.4-3.8 1.9-10.6.8Q7.7 17 3 15L.1 13.3q8 2.6 7.6-1.1-2.1-3-.3-8.2l2.4-.3zM14.6.2Q12 0 6.9 3.9v-.6Q7.2 2 8.5 1q5.5-1.4 6-.8m-.8 10q2.7-1.4 5-1.7-4.5-.7-5 1.7"/><path fill="#0b0404" d="m13.1 3-3.3.7-2.4.3q-1.8 5.2.3 8.2Q8 16 0 13.4l-.1-.2q1.7.2 3.3-.9Q5.2 11 5 8.6t1.8-5.3v.6Q12 0 14.6.2q-.9.7-1.2 1.7zm-2.7 13.5q6.8 1 10.5-.8-1.3 1.6-5.2 2.1-2.9.4-5.3-1.3m7.7-2.1q-4.3.3-5.7-2.1 6.3-.8 8.8-2.9 0 1.1-1.2 1.7-2.9 1.4-2.1 3zM7.3 4l-.5-.1z"/><path fill="#140b0b" d="M13.7 10.2q.5-2.4 5-1.7-2.3.3-5 1.7"/><path fill="none" stroke="#070302" stroke-linecap="round" stroke-linejoin="round" stroke-width="__RESOLUTION__" d="m21.2 9.4-.4-1-.3-.1q-2.4-.4-4.3-1.3-4-2-3.1-4l-3.3.7-2.5.3-.5-.1.1-.6Q4.9 6.2 5 8.6t-1.8 3.7q-1.5 1-3.2 1h.1L3 15q4.7 2 7.4 1.5 2.4 1.7 5.3 1.3 3.9-.5 5.3-2.1-2-.3-2.9-1.3l-.2-.4q-.8-1.6 2-2.9 1.3-.6 1.3-1.7M13 3l.3-1.1q.3-1 1.1-1.7-.5-.6-6 .8-1.3 1-1.6 2.3" vector-effect="non-scaling-stroke"/></g><g id="p"><path fill="#141414" d="m10.8 1 1.4 1q2 2.1 2.1 5 0 3-2.1 5-2.1 2.2-5 2.2h-.8Q3 12 4.2 7.3 5.4 2.4 10.8 1"/><path fill="#121212" d="M6.5 14.3Q5 14 3.7 13.4l-1.5-1.2Q0 10 0 7.2T2.2 2t5-2.1h.7q1.5.2 2.9 1-5.4 1.4-6.6 6.4-1.2 4.7 2.3 7"/><path fill="none" stroke="#090803" stroke-linecap="round" stroke-linejoin="round" stroke-width="__RESOLUTION__" d="m10.8 1 1.4 1q2 2.1 2.1 5 0 3-2.1 5-2.1 2.2-5 2.2h-.8Q5 14 3.7 13.4l-1.6-1.2Q0 10 0 7.2T2.2 2q2-2.1 5-2.1h.7q1.5.2 2.9 1" vector-effect="non-scaling-stroke"/></g><g id="q"><path fill="#1e0d0b" d="M13.1 3q-1 2 3.2 4 1.8 1 4.2 1.2l.3.2.4 1q-2.5 2-8.8 2.9 1.4 2.5 5.7 2 .9 1.1 2.9 1.4-3.8 1.9-10.6.8Q7.7 17 3 15L.1 13.3q8 2.6 7.6-1.1-2.1-3-.3-8.2l2.4-.3zM14.6.2Q12 0 6.9 3.9v-.6Q7.2 2 8.5 1q5.5-1.4 6-.8m-.8 10q2.7-1.4 5-1.7-4.5-.7-5 1.7"/><path fill="#170908" d="m13.1 3-3.3.7-2.4.3q-1.8 5.2.3 8.2Q8 16 0 13.4l-.1-.2q1.7.2 3.3-.9Q5.2 11 5 8.6t1.8-5.3v.6Q12 0 14.6.2q-.9.7-1.2 1.7zm-2.7 13.5q6.8 1 10.5-.8-1.3 1.6-5.2 2.1-2.9.4-5.3-1.3m7.7-2.1q-4.3.3-5.7-2.1 6.3-.8 8.8-2.9 0 1.1-1.2 1.7-2.9 1.4-2.1 3zM7.3 4l-.5-.1z"/><path fill="#281717" d="M13.7 10.2q.5-2.4 5-1.7-2.3.3-5 1.7"/><path fill="none" stroke="#100606" stroke-linecap="round" stroke-linejoin="round" stroke-width="__RESOLUTION__" d="m21.2 9.4-.4-1-.3-.1q-2.4-.4-4.3-1.3-4-2-3.1-4l-3.3.7-2.5.3-.5-.1.1-.6Q4.9 6.2 5 8.6t-1.8 3.7q-1.5 1-3.2 1h.1L3 15q4.7 2 7.4 1.5 2.4 1.7 5.3 1.3 3.9-.5 5.3-2.1-2-.3-2.9-1.3l-.2-.4q-.8-1.6 2-2.9 1.3-.6 1.3-1.7M13 3l.3-1.1q.3-1 1.1-1.7-.5-.6-6 .8-1.3 1-1.6 2.3" vector-effect="non-scaling-stroke"/></g><g id="r"><path fill="#2a2a2a" d="m10.8 1 1.4 1q2 2.1 2.1 5 0 3-2.1 5-2.1 2.2-5 2.2h-.8Q3 12 4.2 7.3 5.4 2.4 10.8 1"/><path fill="#242424" d="M6.5 14.3Q5 14 3.7 13.4l-1.5-1.2Q0 10 0 7.2T2.2 2t5-2.1h.7q1.5.2 2.9 1-5.4 1.4-6.6 6.4-1.2 4.7 2.3 7"/><path fill="none" stroke="#131008" stroke-linecap="round" stroke-linejoin="round" stroke-width="__RESOLUTION__" d="m10.8 1 1.4 1q2 2.1 2.1 5 0 3-2.1 5-2.1 2.2-5 2.2h-.8Q5 14 3.7 13.4l-1.6-1.2Q0 10 0 7.2T2.2 2q2-2.1 5-2.1h.7q1.5.2 2.9 1" vector-effect="non-scaling-stroke"/></g><g id="s"><path fill="#2c1410" d="M13.1 3q-1 2 3.2 4 1.8 1 4.2 1.2l.3.2.4 1q-2.5 2-8.8 2.9 1.4 2.5 5.7 2 .9 1.1 2.9 1.4-3.8 1.9-10.6.8Q7.7 17 3 15L.1 13.3q8 2.6 7.6-1.1-2.1-3-.3-8.2l2.4-.3zM14.6.2Q12 0 6.9 3.9v-.6Q7.2 2 8.5 1q5.5-1.4 6-.8m-.8 10q2.7-1.4 5-1.7-4.5-.7-5 1.7"/><path fill="#230e0d" d="m13.1 3-3.3.7-2.4.3q-1.8 5.2.3 8.2Q8 16 0 13.4l-.1-.2q1.7.2 3.3-.9Q5.2 11 5 8.6t1.8-5.3v.6Q12 0 14.6.2q-.9.7-1.2 1.7zm-2.7 13.5q6.8 1 10.5-.8-1.3 1.6-5.2 2.1-2.9.4-5.3-1.3m7.7-2.1q-4.3.3-5.7-2.1 6.3-.8 8.8-2.9 0 1.1-1.2 1.7-2.9 1.4-2.1 3zM7.3 4l-.5-.1z"/><path fill="#3d2222" d="M13.7 10.2q.5-2.4 5-1.7-2.3.3-5 1.7"/><path fill="none" stroke="#180909" stroke-linecap="round" stroke-linejoin="round" stroke-width="__RESOLUTION__" d="m21.2 9.4-.4-1-.3-.1q-2.4-.4-4.3-1.3-4-2-3.1-4l-3.3.7-2.5.3-.5-.1.1-.6Q4.9 6.2 5 8.6t-1.8 3.7q-1.5 1-3.2 1h.1L3 15q4.7 2 7.4 1.5 2.4 1.7 5.3 1.3 3.9-.5 5.3-2.1-2-.3-2.9-1.3l-.2-.4q-.8-1.6 2-2.9 1.3-.6 1.3-1.7M13 3l.3-1.1q.3-1 1.1-1.7-.5-.6-6 .8-1.3 1-1.6 2.3" vector-effect="non-scaling-stroke"/></g><g id="t"><path fill="#3f3f3f" d="m10.8 1 1.4 1q2 2.1 2.1 5 0 3-2.1 5-2.1 2.2-5 2.2h-.8Q3 12 4.2 7.3 5.4 2.4 10.8 1"/><path fill="#373737" d="M6.5 14.3Q5 14 3.7 13.4l-1.5-1.2Q0 10 0 7.2T2.2 2t5-2.1h.7q1.5.2 2.9 1-5.4 1.4-6.6 6.4-1.2 4.7 2.3 7"/><path fill="none" stroke="#1d180c" stroke-linecap="round" stroke-linejoin="round" stroke-width="__RESOLUTION__" d="m10.8 1 1.4 1q2 2.1 2.1 5 0 3-2.1 5-2.1 2.2-5 2.2h-.8Q5 14 3.7 13.4l-1.6-1.2Q0 10 0 7.2T2.2 2q2-2.1 5-2.1h.7q1.5.2 2.9 1" vector-effect="non-scaling-stroke"/></g><g id="u"><path fill="#3b1a15" d="M13.1 3q-1 2 3.2 4 1.8 1 4.2 1.2l.3.2.4 1q-2.5 2-8.8 2.9 1.4 2.5 5.7 2 .9 1.1 2.9 1.4-3.8 1.9-10.6.8Q7.7 17 3 15L.1 13.3q8 2.6 7.6-1.1-2.1-3-.3-8.2l2.4-.3zM14.6.2Q12 0 6.9 3.9v-.6Q7.2 2 8.5 1q5.5-1.4 6-.8m-.8 10q2.7-1.4 5-1.7-4.5-.7-5 1.7"/><path fill="#2e1211" d="m13.1 3-3.3.7-2.4.3q-1.8 5.2.3 8.2Q8 16 0 13.4l-.1-.2q1.7.2 3.3-.9Q5.2 11 5 8.6t1.8-5.3v.6Q12 0 14.6.2q-.9.7-1.2 1.7zm-2.7 13.5q6.8 1 10.5-.8-1.3 1.6-5.2 2.1-2.9.4-5.3-1.3m7.7-2.1q-4.3.3-5.7-2.1 6.3-.8 8.8-2.9 0 1.1-1.2 1.7-2.9 1.4-2.1 3zM7.3 4l-.5-.1z"/><path fill="#512d2d" d="M13.7 10.2q.5-2.4 5-1.7-2.3.3-5 1.7"/><path fill="none" stroke="#1f0c0b" stroke-linecap="round" stroke-linejoin="round" stroke-width="__RESOLUTION__" d="m21.2 9.4-.4-1-.3-.1q-2.4-.4-4.3-1.3-4-2-3.1-4l-3.3.7-2.5.3-.5-.1.1-.6Q4.9 6.2 5 8.6t-1.8 3.7q-1.5 1-3.2 1h.1L3 15q4.7 2 7.4 1.5 2.4 1.7 5.3 1.3 3.9-.5 5.3-2.1-2-.3-2.9-1.3l-.2-.4q-.8-1.6 2-2.9 1.3-.6 1.3-1.7M13 3l.3-1.1q.3-1 1.1-1.7-.5-.6-6 .8-1.3 1-1.6 2.3" vector-effect="non-scaling-stroke"/></g><g id="v"><path fill="#545454" d="m10.8 1 1.4 1q2 2.1 2.1 5 0 3-2.1 5-2.1 2.2-5 2.2h-.8Q3 12 4.2 7.3 5.4 2.4 10.8 1"/><path fill="#494949" d="M6.5 14.3Q5 14 3.7 13.4l-1.5-1.2Q0 10 0 7.2T2.2 2t5-2.1h.7q1.5.2 2.9 1-5.4 1.4-6.6 6.4-1.2 4.7 2.3 7"/><path fill="none" stroke="#26200f" stroke-linecap="round" stroke-linejoin="round" stroke-width="__RESOLUTION__" d="m10.8 1 1.4 1q2 2.1 2.1 5 0 3-2.1 5-2.1 2.2-5 2.2h-.8Q5 14 3.7 13.4l-1.6-1.2Q0 10 0 7.2T2.2 2q2-2.1 5-2.1h.7q1.5.2 2.9 1" vector-effect="non-scaling-stroke"/></g><g id="w"><path fill="#4a211b" d="M13.1 3q-1 2 3.2 4 1.8 1 4.2 1.2l.3.2.4 1q-2.5 2-8.8 2.9 1.4 2.5 5.7 2 .9 1.1 2.9 1.4-3.8 1.9-10.6.8Q7.7 17 3 15L.1 13.3q8 2.6 7.6-1.1-2.1-3-.3-8.2l2.4-.3zM14.6.2Q12 0 6.9 3.9v-.6Q7.2 2 8.5 1q5.5-1.4 6-.8m-.8 10q2.7-1.4 5-1.7-4.5-.7-5 1.7"/><path fill="#3a1716" d="m13.1 3-3.3.7-2.4.3q-1.8 5.2.3 8.2Q8 16 0 13.4l-.1-.2q1.7.2 3.3-.9Q5.2 11 5 8.6t1.8-5.3v.6Q12 0 14.6.2q-.9.7-1.2 1.7zm-2.7 13.5q6.8 1 10.5-.8-1.3 1.6-5.2 2.1-2.9.4-5.3-1.3m7.7-2.1q-4.3.3-5.7-2.1 6.3-.8 8.8-2.9 0 1.1-1.2 1.7-2.9 1.4-2.1 3zM7.3 4l-.5-.1z"/><path fill="#653939" d="M13.7 10.2q.5-2.4 5-1.7-2.3.3-5 1.7"/><path fill="none" stroke="#280f0f" stroke-linecap="round" stroke-linejoin="round" stroke-width="__RESOLUTION__" d="m21.2 9.4-.4-1-.3-.1q-2.4-.4-4.3-1.3-4-2-3.1-4l-3.3.7-2.5.3-.5-.1.1-.6Q4.9 6.2 5 8.6t-1.8 3.7q-1.5 1-3.2 1h.1L3 15q4.7 2 7.4 1.5 2.4 1.7 5.3 1.3 3.9-.5 5.3-2.1-2-.3-2.9-1.3l-.2-.4q-.8-1.6 2-2.9 1.3-.6 1.3-1.7M13 3l.3-1.1q.3-1 1.1-1.7-.5-.6-6 .8-1.3 1-1.6 2.3" vector-effect="non-scaling-stroke"/></g><g id="x"><path fill="#6a6a6a" d="m10.8 1 1.4 1q2 2.1 2.1 5 0 3-2.1 5-2.1 2.2-5 2.2h-.8Q3 12 4.2 7.3 5.4 2.4 10.8 1"/><path fill="#5b5b5b" d="M6.5 14.3Q5 14 3.7 13.4l-1.5-1.2Q0 10 0 7.2T2.2 2t5-2.1h.7q1.5.2 2.9 1-5.4 1.4-6.6 6.4-1.2 4.7 2.3 7"/><path fill="none" stroke="#302914" stroke-linecap="round" stroke-linejoin="round" stroke-width="__RESOLUTION__" d="m10.8 1 1.4 1q2 2.1 2.1 5 0 3-2.1 5-2.1 2.2-5 2.2h-.8Q5 14 3.7 13.4l-1.6-1.2Q0 10 0 7.2T2.2 2q2-2.1 5-2.1h.7q1.5.2 2.9 1" vector-effect="non-scaling-stroke"/></g><g id="y"><path fill="#592821" d="M13.1 3q-1 2 3.2 4 1.8 1 4.2 1.2l.3.2.4 1q-2.5 2-8.8 2.9 1.4 2.5 5.7 2 .9 1.1 2.9 1.4-3.8 1.9-10.6.8Q7.7 17 3 15L.1 13.3q8 2.6 7.6-1.1-2.1-3-.3-8.2l2.4-.3zM14.6.2Q12 0 6.9 3.9v-.6Q7.2 2 8.5 1q5.5-1.4 6-.8m-.8 10q2.7-1.4 5-1.7-4.5-.7-5 1.7"/><path fill="#461c1a" d="m13.1 3-3.3.7-2.4.3q-1.8 5.2.3 8.2Q8 16 0 13.4l-.1-.2q1.7.2 3.3-.9Q5.2 11 5 8.6t1.8-5.3v.6Q12 0 14.6.2q-.9.7-1.2 1.7zm-2.7 13.5q6.8 1 10.5-.8-1.3 1.6-5.2 2.1-2.9.4-5.3-1.3m7.7-2.1q-4.3.3-5.7-2.1 6.3-.8 8.8-2.9 0 1.1-1.2 1.7-2.9 1.4-2.1 3zM7.3 4l-.5-.1z"/><path fill="#7a4545" d="M13.7 10.2q.5-2.4 5-1.7-2.3.3-5 1.7"/><path fill="none" stroke="#301312" stroke-linecap="round" stroke-linejoin="round" stroke-width="__RESOLUTION__" d="m21.2 9.4-.4-1-.3-.1q-2.4-.4-4.3-1.3-4-2-3.1-4l-3.3.7-2.5.3-.5-.1.1-.6Q4.9 6.2 5 8.6t-1.8 3.7q-1.5 1-3.2 1h.1L3 15q4.7 2 7.4 1.5 2.4 1.7 5.3 1.3 3.9-.5 5.3-2.1-2-.3-2.9-1.3l-.2-.4q-.8-1.6 2-2.9 1.3-.6 1.3-1.7M13 3l.3-1.1q.3-1 1.1-1.7-.5-.6-6 .8-1.3 1-1.6 2.3" vector-effect="non-scaling-stroke"/></g><g id="z"><path fill="#7f7f7f" d="m10.8 1 1.4 1q2 2.1 2.1 5 0 3-2.1 5-2.1 2.2-5 2.2h-.8Q3 12 4.2 7.3 5.4 2.4 10.8 1"/><path fill="#6e6e6e" d="M6.5 14.3Q5 14 3.7 13.4l-1.5-1.2Q0 10 0 7.2T2.2 2t5-2.1h.7q1.5.2 2.9 1-5.4 1.4-6.6 6.4-1.2 4.7 2.3 7"/><path fill="none" stroke="#3a3118" stroke-linecap="round" stroke-linejoin="round" stroke-width="__RESOLUTION__" d="m10.8 1 1.4 1q2 2.1 2.1 5 0 3-2.1 5-2.1 2.2-5 2.2h-.8Q5 14 3.7 13.4l-1.6-1.2Q0 10 0 7.2T2.2 2q2-2.1 5-2.1h.7q1.5.2 2.9 1" vector-effect="non-scaling-stroke"/></g><g id="A"><path fill="#682e26" d="M13.1 3q-1 2 3.2 4 1.8 1 4.2 1.2l.3.2.4 1q-2.5 2-8.8 2.9 1.4 2.5 5.7 2 .9 1.1 2.9 1.4-3.8 1.9-10.6.8Q7.7 17 3 15L.1 13.3q8 2.6 7.6-1.1-2.1-3-.3-8.2l2.4-.3zM14.6.2Q12 0 6.9 3.9v-.6Q7.2 2 8.5 1q5.5-1.4 6-.8m-.8 10q2.7-1.4 5-1.7-4.5-.7-5 1.7"/><path fill="#51211e" d="m13.1 3-3.3.7-2.4.3q-1.8 5.2.3 8.2Q8 16 0 13.4l-.1-.2q1.7.2 3.3-.9Q5.2 11 5 8.6t1.8-5.3v.6Q12 0 14.6.2q-.9.7-1.2 1.7zm-2.7 13.5q6.8 1 10.5-.8-1.3 1.6-5.2 2.1-2.9.4-5.3-1.3m7.7-2.1q-4.3.3-5.7-2.1 6.3-.8 8.8-2.9 0 1.1-1.2 1.7-2.9 1.4-2.1 3zM7.3 4l-.5-.1z"/><path fill="#8e5050" d="M13.7 10.2q.5-2.4 5-1.7-2.3.3-5 1.7"/><path fill="none" stroke="#371614" stroke-linecap="round" stroke-linejoin="round" stroke-width="__RESOLUTION__" d="m21.2 9.4-.4-1-.3-.1q-2.4-.4-4.3-1.3-4-2-3.1-4l-3.3.7-2.5.3-.5-.1.1-.6Q4.9 6.2 5 8.6t-1.8 3.7q-1.5 1-3.2 1h.1L3 15q4.7 2 7.4 1.5 2.4 1.7 5.3 1.3 3.9-.5 5.3-2.1-2-.3-2.9-1.3l-.2-.4q-.8-1.6 2-2.9 1.3-.6 1.3-1.7M13 3l.3-1.1q.3-1 1.1-1.7-.5-.6-6 .8-1.3 1-1.6 2.3" vector-effect="non-scaling-stroke"/></g><g id="B"><path fill="#949494" d="m10.8 1 1.4 1q2 2.1 2.1 5 0 3-2.1 5-2.1 2.2-5 2.2h-.8Q3 12 4.2 7.3 5.4 2.4 10.8 1"/><path fill="gray" d="M6.5 14.3Q5 14 3.7 13.4l-1.5-1.2Q0 10 0 7.2T2.2 2t5-2.1h.7q1.5.2 2.9 1-5.4 1.4-6.6 6.4-1.2 4.7 2.3 7"/><path fill="none" stroke="#43391b" stroke-linecap="round" stroke-linejoin="round" stroke-width="__RESOLUTION__" d="m10.8 1 1.4 1q2 2.1 2.1 5 0 3-2.1 5-2.1 2.2-5 2.2h-.8Q5 14 3.7 13.4l-1.6-1.2Q0 10 0 7.2T2.2 2q2-2.1 5-2.1h.7q1.5.2 2.9 1" vector-effect="non-scaling-stroke"/></g><g id="C"><path fill="#77352c" d="M13.1 3q-1 2 3.2 4 1.8 1 4.2 1.2l.3.2.4 1q-2.5 2-8.8 2.9 1.4 2.5 5.7 2 .9 1.1 2.9 1.4-3.8 1.9-10.6.8Q7.7 17 3 15L.1 13.3q8 2.6 7.6-1.1-2.1-3-.3-8.2l2.4-.3zM14.6.2Q12 0 6.9 3.9v-.6Q7.2 2 8.5 1q5.5-1.4 6-.8m-.8 10q2.7-1.4 5-1.7-4.5-.7-5 1.7"/><path fill="#5d2623" d="m13.1 3-3.3.7-2.4.3q-1.8 5.2.3 8.2Q8 16 0 13.4l-.1-.2q1.7.2 3.3-.9Q5.2 11 5 8.6t1.8-5.3v.6Q12 0 14.6.2q-.9.7-1.2 1.7zm-2.7 13.5q6.8 1 10.5-.8-1.3 1.6-5.2 2.1-2.9.4-5.3-1.3m7.7-2.1q-4.3.3-5.7-2.1 6.3-.8 8.8-2.9 0 1.1-1.2 1.7-2.9 1.4-2.1 3zM7.3 4l-.5-.1z"/><path fill="#a25c5c" d="M13.7 10.2q.5-2.4 5-1.7-2.3.3-5 1.7"/><path fill="none" stroke="#401918" stroke-linecap="round" stroke-linejoin="round" stroke-width="__RESOLUTION__" d="m21.2 9.4-.4-1-.3-.1q-2.4-.4-4.3-1.3-4-2-3.1-4l-3.3.7-2.5.3-.5-.1.1-.6Q4.9 6.2 5 8.6t-1.8 3.7q-1.5 1-3.2 1h.1L3 15q4.7 2 7.4 1.5 2.4 1.7 5.3 1.3 3.9-.5 5.3-2.1-2-.3-2.9-1.3l-.2-.4q-.8-1.6 2-2.9 1.3-.6 1.3-1.7M13 3l.3-1.1q.3-1 1.1-1.7-.5-.6-6 .8-1.3 1-1.6 2.3" vector-effect="non-scaling-stroke"/></g><g id="D"><path fill="#aaa" d="m10.8 1 1.4 1q2 2.1 2.1 5 0 3-2.1 5-2.1 2.2-5 2.2h-.8Q3 12 4.2 7.3 5.4 2.4 10.8 1"/><path fill="#929292" d="M6.5 14.3Q5 14 3.7 13.4l-1.5-1.2Q0 10 0 7.2T2.2 2t5-2.1h.7q1.5.2 2.9 1-5.4 1.4-6.6 6.4-1.2 4.7 2.3 7"/><path fill="none" stroke="#4d4220" stroke-linecap="round" stroke-linejoin="round" stroke-width="__RESOLUTION__" d="m10.8 1 1.4 1q2 2.1 2.1 5 0 3-2.1 5-2.1 2.2-5 2.2h-.8Q5 14 3.7 13.4l-1.6-1.2Q0 10 0 7.2T2.2 2q2-2.1 5-2.1h.7q1.5.2 2.9 1" vector-effect="non-scaling-stroke"/></g><g id="E"><path fill="#863c31" d="M13.1 3q-1 2 3.2 4 1.8 1 4.2 1.2l.3.2.4 1q-2.5 2-8.8 2.9 1.4 2.5 5.7 2 .9 1.1 2.9 1.4-3.8 1.9-10.6.8Q7.7 17 3 15L.1 13.3q8 2.6 7.6-1.1-2.1-3-.3-8.2l2.4-.3zM14.6.2Q12 0 6.9 3.9v-.6Q7.2 2 8.5 1q5.5-1.4 6-.8m-.8 10q2.7-1.4 5-1.7-4.5-.7-5 1.7"/><path fill="#692a27" d="m13.1 3-3.3.7-2.4.3q-1.8 5.2.3 8.2Q8 16 0 13.4l-.1-.2q1.7.2 3.3-.9Q5.2 11 5 8.6t1.8-5.3v.6Q12 0 14.6.2q-.9.7-1.2 1.7zm-2.7 13.5q6.8 1 10.5-.8-1.3 1.6-5.2 2.1-2.9.4-5.3-1.3m7.7-2.1q-4.3.3-5.7-2.1 6.3-.8 8.8-2.9 0 1.1-1.2 1.7-2.9 1.4-2.1 3zM7.3 4l-.5-.1z"/><path fill="#b76767" d="M13.7 10.2q.5-2.4 5-1.7-2.3.3-5 1.7"/><path fill="none" stroke="#481c1b" stroke-linecap="round" stroke-linejoin="round" stroke-width="__RESOLUTION__" d="m21.2 9.4-.4-1-.3-.1q-2.4-.4-4.3-1.3-4-2-3.1-4l-3.3.7-2.5.3-.5-.1.1-.6Q4.9 6.2 5 8.6t-1.8 3.7q-1.5 1-3.2 1h.1L3 15q4.7 2 7.4 1.5 2.4 1.7 5.3 1.3 3.9-.5 5.3-2.1-2-.3-2.9-1.3l-.2-.4q-.8-1.6 2-2.9 1.3-.6 1.3-1.7M13 3l.3-1.1q.3-1 1.1-1.7-.5-.6-6 .8-1.3 1-1.6 2.3" vector-effect="non-scaling-stroke"/></g><g id="F"><path fill="#bfbfbf" d="m10.8 1 1.4 1q2 2.1 2.1 5 0 3-2.1 5-2.1 2.2-5 2.2h-.8Q3 12 4.2 7.3 5.4 2.4 10.8 1"/><path fill="#a5a5a5" d="M6.5 14.3Q5 14 3.7 13.4l-1.5-1.2Q0 10 0 7.2T2.2 2t5-2.1h.7q1.5.2 2.9 1-5.4 1.4-6.6 6.4-1.2 4.7 2.3 7"/><path fill="none" stroke="#574a24" stroke-linecap="round" stroke-linejoin="round" stroke-width="__RESOLUTION__" d="m10.8 1 1.4 1q2 2.1 2.1 5 0 3-2.1 5-2.1 2.2-5 2.2h-.8Q5 14 3.7 13.4l-1.6-1.2Q0 10 0 7.2T2.2 2q2-2.1 5-2.1h.7q1.5.2 2.9 1" vector-effect="non-scaling-stroke"/></g><g id="G"><path fill="#944236" d="M13.1 3q-1 2 3.2 4 1.8 1 4.2 1.2l.3.2.4 1q-2.5 2-8.8 2.9 1.4 2.5 5.7 2 .9 1.1 2.9 1.4-3.8 1.9-10.6.8Q7.7 17 3 15L.1 13.3q8 2.6 7.6-1.1-2.1-3-.3-8.2l2.4-.3zM14.6.2Q12 0 6.9 3.9v-.6Q7.2 2 8.5 1q5.5-1.4 6-.8m-.8 10q2.7-1.4 5-1.7-4.5-.7-5 1.7"/><path fill="#742f2c" d="m13.1 3-3.3.7-2.4.3q-1.8 5.2.3 8.2Q8 16 0 13.4l-.1-.2q1.7.2 3.3-.9Q5.2 11 5 8.6t1.8-5.3v.6Q12 0 14.6.2q-.9.7-1.2 1.7zm-2.7 13.5q6.8 1 10.5-.8-1.3 1.6-5.2 2.1-2.9.4-5.3-1.3m7.7-2.1q-4.3.3-5.7-2.1 6.3-.8 8.8-2.9 0 1.1-1.2 1.7-2.9 1.4-2.1 3zM7.3 4l-.5-.1z"/><path fill="#cb7272" d="M13.7 10.2q.5-2.4 5-1.7-2.3.3-5 1.7"/><path fill="none" stroke="#4f1f1d" stroke-linecap="round" stroke-linejoin="round" stroke-width="__RESOLUTION__" d="m21.2 9.4-.4-1-.3-.1q-2.4-.4-4.3-1.3-4-2-3.1-4l-3.3.7-2.5.3-.5-.1.1-.6Q4.9 6.2 5 8.6t-1.8 3.7q-1.5 1-3.2 1h.1L3 15q4.7 2 7.4 1.5 2.4 1.7 5.3 1.3 3.9-.5 5.3-2.1-2-.3-2.9-1.3l-.2-.4q-.8-1.6 2-2.9 1.3-.6 1.3-1.7M13 3l.3-1.1q.3-1 1.1-1.7-.5-.6-6 .8-1.3 1-1.6 2.3" vector-effect="non-scaling-stroke"/></g><g id="H"><path fill="#d4d4d4" d="m10.8 1 1.4 1q2 2.1 2.1 5 0 3-2.1 5-2.1 2.2-5 2.2h-.8Q3 12 4.2 7.3 5.4 2.4 10.8 1"/><path fill="#b7b7b7" d="M6.5 14.3Q5 14 3.7 13.4l-1.5-1.2Q0 10 0 7.2T2.2 2t5-2.1h.7q1.5.2 2.9 1-5.4 1.4-6.6 6.4-1.2 4.7 2.3 7"/><path fill="none" stroke="#605227" stroke-linecap="round" stroke-linejoin="round" stroke-width="__RESOLUTION__" d="m10.8 1 1.4 1q2 2.1 2.1 5 0 3-2.1 5-2.1 2.2-5 2.2h-.8Q5 14 3.7 13.4l-1.6-1.2Q0 10 0 7.2T2.2 2q2-2.1 5-2.1h.7q1.5.2 2.9 1" vector-effect="non-scaling-stroke"/></g><g id="I"><path fill="#a4493c" d="M13.1 3q-1 2 3.2 4 1.8 1 4.2 1.2l.3.2.4 1q-2.5 2-8.8 2.9 1.4 2.5 5.7 2 .9 1.1 2.9 1.4-3.8 1.9-10.6.8Q7.7 17 3 15L.1 13.3q8 2.6 7.6-1.1-2.1-3-.3-8.2l2.4-.3zM14.6.2Q12 0 6.9 3.9v-.6Q7.2 2 8.5 1q5.5-1.4 6-.8m-.8 10q2.7-1.4 5-1.7-4.5-.7-5 1.7"/><path fill="#803430" d="m13.1 3-3.3.7-2.4.3q-1.8 5.2.3 8.2Q8 16 0 13.4l-.1-.2q1.7.2 3.3-.9Q5.2 11 5 8.6t1.8-5.3v.6Q12 0 14.6.2q-.9.7-1.2 1.7zm-2.7 13.5q6.8 1 10.5-.8-1.3 1.6-5.2 2.1-2.9.4-5.3-1.3m7.7-2.1q-4.3.3-5.7-2.1 6.3-.8 8.8-2.9 0 1.1-1.2 1.7-2.9 1.4-2.1 3zM7.3 4l-.5-.1z"/><path fill="#df7e7e" d="M13.7 10.2q.5-2.4 5-1.7-2.3.3-5 1.7"/><path fill="none" stroke="#582221" stroke-linecap="round" stroke-linejoin="round" stroke-width="__RESOLUTION__" d="m21.2 9.4-.4-1-.3-.1q-2.4-.4-4.3-1.3-4-2-3.1-4l-3.3.7-2.5.3-.5-.1.1-.6Q4.9 6.2 5 8.6t-1.8 3.7q-1.5 1-3.2 1h.1L3 15q4.7 2 7.4 1.5 2.4 1.7 5.3 1.3 3.9-.5 5.3-2.1-2-.3-2.9-1.3l-.2-.4q-.8-1.6 2-2.9 1.3-.6 1.3-1.7M13 3l.3-1.1q.3-1 1.1-1.7-.5-.6-6 .8-1.3 1-1.6 2.3" vector-effect="non-scaling-stroke"/></g><g id="J"><path fill="#eaeaea" d="m10.8 1 1.4 1q2 2.1 2.1 5 0 3-2.1 5-2.1 2.2-5 2.2h-.8Q3 12 4.2 7.3 5.4 2.4 10.8 1"/><path fill="#c9c9c9" d="M6.5 14.3Q5 14 3.7 13.4l-1.5-1.2Q0 10 0 7.2T2.2 2t5-2.1h.7q1.5.2 2.9 1-5.4 1.4-6.6 6.4-1.2 4.7 2.3 7"/><path fill="none" stroke="#6a5a2c" stroke-linecap="round" stroke-linejoin="round" stroke-width="__RESOLUTION__" d="m10.8 1 1.4 1q2 2.1 2.1 5 0 3-2.1 5-2.1 2.2-5 2.2h-.8Q5 14 3.7 13.4l-1.6-1.2Q0 10 0 7.2T2.2 2q2-2.1 5-2.1h.7q1.5.2 2.9 1" vector-effect="non-scaling-stroke"/></g><g id="K"><path fill="#b35042" d="M13.1 3q-1 2 3.2 4 1.8 1 4.2 1.2l.3.2.4 1q-2.5 2-8.8 2.9 1.4 2.5 5.7 2 .9 1.1 2.9 1.4-3.8 1.9-10.6.8Q7.7 17 3 15L.1 13.3q8 2.6 7.6-1.1-2.1-3-.3-8.2l2.4-.3zM14.6.2Q12 0 6.9 3.9v-.6Q7.2 2 8.5 1q5.5-1.4 6-.8m-.8 10q2.7-1.4 5-1.7-4.5-.7-5 1.7"/><path fill="#8c3935" d="m13.1 3-3.3.7-2.4.3q-1.8 5.2.3 8.2Q8 16 0 13.4l-.1-.2q1.7.2 3.3-.9Q5.2 11 5 8.6t1.8-5.3v.6Q12 0 14.6.2q-.9.7-1.2 1.7zm-2.7 13.5q6.8 1 10.5-.8-1.3 1.6-5.2 2.1-2.9.4-5.3-1.3m7.7-2.1q-4.3.3-5.7-2.1 6.3-.8 8.8-2.9 0 1.1-1.2 1.7-2.9 1.4-2.1 3zM7.3 4l-.5-.1z"/><path fill="#f48a8a" d="M13.7 10.2q.5-2.4 5-1.7-2.3.3-5 1.7"/><path fill="none" stroke="#602624" stroke-linecap="round" stroke-linejoin="round" stroke-width="__RESOLUTION__" d="m21.2 9.4-.4-1-.3-.1q-2.4-.4-4.3-1.3-4-2-3.1-4l-3.3.7-2.5.3-.5-.1.1-.6Q4.9 6.2 5 8.6t-1.8 3.7q-1.5 1-3.2 1h.1L3 15q4.7 2 7.4 1.5 2.4 1.7 5.3 1.3 3.9-.5 5.3-2.1-2-.3-2.9-1.3l-.2-.4q-.8-1.6 2-2.9 1.3-.6 1.3-1.7M13 3l.3-1.1q.3-1 1.1-1.7-.5-.6-6 .8-1.3 1-1.6 2.3" vector-effect="non-scaling-stroke"/></g><g id="L"><path fill="#fff" d="m10.8 1 1.4 1q2 2.1 2.1 5 0 3-2.1 5-2.1 2.2-5 2.2h-.8Q3 12 4.2 7.3 5.4 2.4 10.8 1"/><path fill="#dcdcdc" d="M6.5 14.3Q5 14 3.7 13.4l-1.5-1.2Q0 10 0 7.2T2.2 2t5-2.1h.7q1.5.2 2.9 1-5.4 1.4-6.6 6.4-1.2 4.7 2.3 7"/><path fill="none" stroke="#746330" stroke-linecap="round" stroke-linejoin="round" stroke-width="__RESOLUTION__" d="m10.8 1 1.4 1q2 2.1 2.1 5 0 3-2.1 5-2.1 2.2-5 2.2h-.8Q5 14 3.7 13.4l-1.6-1.2Q0 10 0 7.2T2.2 2q2-2.1 5-2.1h.7q1.5.2 2.9 1" vector-effect="non-scaling-stroke"/></g><path id="M" fill="#382c16" d="M5.8-1.9Q7.9-1.4 8-.5 8 .3 5.9 1 3.8 1.8.7 2l-5.2-.4Q-6.7 1.2-6.7.3q-.1-.8 2-1.6 2.2-.8 5.2-.9z" transform="translate(6.75 2.25)"/></defs><g clip-path="url(#N)"><g transform="translate(17.15 58.2)"><use xlink:href="#O" width="14.7" height="4.3" transform="matrix(-1.0522 0 0 1.0522 7.1 -2.35)"/><use xlink:href="#P" width="14.3" height="14.3" transform="matrix(1.3112 -.2292 -.206 -1.2235 -5.3 -26.25)"/><use xlink:href="#Q" width="21.1" height="17.9" transform="translate(-12.45 -45.15)"/></g></g><g clip-path="url(#R)"><g transform="translate(85.15 58.2)"><use xlink:href="#O" width="14.7" height="4.3" transform="matrix(-1.0522 0 0 1.0522 7.1 -2.35)"/><use xlink:href="#P" width="14.3" height="14.3" transform="matrix(1.305 -.2017 -.2048 -1.221 -5.35 -26.65)"/><use xlink:href="#Q" width="21.1" height="17.9" transform="matrix(.9998 -.0222 .0178 .9997 -12.75 -45)"/></g></g><g clip-path="url(#S)"><g transform="translate(153.15 58.2)"><use xlink:href="#O" width="14.7" height="4.3" transform="matrix(-1.0522 0 0 1.0522 7.1 -2.35)"/><use xlink:href="#P" width="14.3" height="14.3" transform="matrix(1.2987 -.1773 -.2046 -1.2191 -5.25 -27)"/><use xlink:href="#Q" width="21.1" height="17.9" transform="matrix(.9992 -.0444 .0356 .9991 -13.05 -44.85)"/></g></g><g clip-path="url(#T)"><g transform="translate(221.15 58.2)"><use xlink:href="#O" width="14.7" height="4.3" transform="matrix(-1.0522 0 0 1.0522 7.1 -2.35)"/><use xlink:href="#P" width="14.3" height="14.3" transform="matrix(1.2919 -.1532 -.2044 -1.2171 -5.35 -27.35)"/><use xlink:href="#Q" width="21.1" height="17.9" transform="matrix(.9978 -.0699 .0533 .9983 -13.35 -44.7)"/></g></g><g clip-path="url(#U)"><g transform="translate(289.15 58.2)"><use xlink:href="#O" width="14.7" height="4.3" transform="matrix(-1.0522 0 0 1.0522 7.1 -2.35)"/><use xlink:href="#P" width="14.3" height="14.3" transform="matrix(1.2846 -.1294 -.2041 -1.2152 -5.25 -27.75)"/><use xlink:href="#Q" width="21.1" height="17.9" transform="matrix(.9962 -.0921 .0743 .9968 -13.65 -44.6)"/></g></g><g clip-path="url(#V)"><g transform="translate(357.15 58.2)"><use xlink:href="#O" width="14.7" height="4.3" transform="matrix(-1.0522 0 0 1.0522 7.1 -2.35)"/><use xlink:href="#P" width="14.3" height="14.3" transform="matrix(1.2773 -.1018 -.2039 -1.2133 -5.3 -28.15)"/><use xlink:href="#Q" width="21.1" height="17.9" transform="matrix(.994 -.1142 .0921 .9952 -13.95 -44.45)"/></g></g><g clip-path="url(#W)"><g transform="translate(425.15 58.2)"><use xlink:href="#O" width="14.7" height="4.3" transform="matrix(-1.0522 0 0 1.0522 7.1 -2.35)"/><use xlink:href="#P" width="14.3" height="14.3" transform="matrix(1.2691 -.0786 -.2037 -1.2113 -5.3 -28.45)"/><use xlink:href="#Q" width="21.1" height="17.9" transform="matrix(.9908 -.1396 .1097 .9933 -14.2 -44.25)"/></g></g><g clip-path="url(#X)"><g transform="translate(493.15 58.2)"><use xlink:href="#O" width="14.7" height="4.3" transform="matrix(-1.0522 0 0 1.0522 7.1 -2.35)"/><use xlink:href="#P" width="14.3" height="14.3" transform="matrix(1.2606 -.0558 -.2034 -1.2094 -5.3 -28.9)"/><use xlink:href="#Q" width="21.1" height="17.9" transform="matrix(.9876 -.1616 .1306 .9907 -14.55 -44.1)"/></g></g><g clip-path="url(#Y)"><g transform="translate(561.15 58.2)"><use xlink:href="#O" width="14.7" height="4.3" transform="matrix(-1.0522 0 0 1.0522 7.1 -2.35)"/><use xlink:href="#P" width="14.3" height="14.3" transform="matrix(1.2515 -.0333 -.2032 -1.2074 -5.25 -29.25)"/><use xlink:href="#Q" width="21.1" height="17.9" transform="matrix(.9838 -.1835 .1483 .9881 -14.75 -43.9)"/></g></g><g clip-path="url(#Z)"><g transform="translate(629.15 58.2)"><use xlink:href="#O" width="14.7" height="4.3" transform="matrix(-1.0522 0 0 1.0522 7.1 -2.35)"/><use xlink:href="#P" width="14.3" height="14.3" transform="matrix(1.2421 -.0112 -.2029 -1.2055 -5.2 -29.65)"/><use xlink:href="#Q" width="21.1" height="17.9" transform="matrix(.9789 -.2086 .1658 .9852 -15 -43.7)"/></g></g><g clip-path="url(#aa)"><g transform="translate(697.15 58.2)"><use xlink:href="#O" width="14.7" height="4.3" transform="matrix(-1.0522 0 0 1.0522 7.1 -2.35)"/><use xlink:href="#P" width="14.3" height="14.3" transform="matrix(1.2323 .0066 -.2027 -1.2036 -5.15 -29.95)"/><use xlink:href="#Q" width="21.1" height="17.9" transform="matrix(.9742 -.2303 .1865 .9814 -15.3 -43.65)"/></g></g><g clip-path="url(#ab)"><g transform="translate(765.15 58.2)"><use xlink:href="#O" width="14.7" height="4.3" transform="matrix(-1.0522 0 0 1.0522 7.1 -2.35)"/><use xlink:href="#P" width="14.3" height="14.3" transform="matrix(1.2219 .0321 -.2024 -1.2016 -5.1 -30.3)"/><use xlink:href="#Q" width="21.1" height="17.9" transform="matrix(.968 -.2551 .2039 .9778 -15.55 -43.5)"/></g></g><g clip-path="url(#ac)"><g transform="translate(833.15 58.2)"><use xlink:href="#O" width="14.7" height="4.3" transform="matrix(-1.0522 0 0 1.0522 7.1 -2.35)"/><use xlink:href="#P" width="14.3" height="14.3" transform="matrix(1.2114 .0542 -.206 -1.1997 -5.05 -30.7)"/><use xlink:href="#Q" width="21.1" height="17.9" transform="matrix(.9628 -.278 .2235 .9742 -15.8 -43.2)"/></g></g><g clip-path="url(#ad)"><g transform="translate(901.15 58.2)"><use xlink:href="#O" width="14.7" height="4.3" transform="matrix(-1.0522 0 0 1.0522 7.1 -2.35)"/><use xlink:href="#P" width="14.3" height="14.3" transform="matrix(1.2093 .0213 -.2022 -1.1997 -5.35 -30.85)"/><use xlink:href="#Q" width="21.1" height="17.9" transform="matrix(.9455 -.3598 .2507 .9659 -15.95 -42.4)"/></g></g><g clip-path="url(#ae)"><g transform="translate(969.15 58.2)"><use xlink:href="#O" width="14.7" height="4.3" transform="matrix(-1.0522 0 0 1.0522 7.1 -2.35)"/><use xlink:href="#P" width="14.3" height="14.3" transform="matrix(1.2064 -.0105 -.2022 -1.1997 -5.55 -31)"/><use xlink:href="#Q" width="21.1" height="17.9" transform="matrix(.92 -.4451 .2798 .9571 -16.05 -41.5)"/></g></g><g clip-path="url(#af)"><g transform="translate(1037.15 58.2)"><use xlink:href="#O" width="14.7" height="4.3" transform="matrix(-1.0522 0 0 1.0522 7.1 -2.35)"/><use xlink:href="#P" width="14.3" height="14.3" transform="matrix(1.2026 -.0422 -.2022 -1.1997 -5.85 -31.15)"/><use xlink:href="#Q" width="21.1" height="17.9" transform="matrix(.8886 -.5257 .3087 .9473 -16.15 -40.7)"/></g></g><g clip-path="url(#ag)"><g transform="translate(1105.15 58.2)"><use xlink:href="#O" width="14.7" height="4.3" transform="matrix(-1.0522 0 0 1.0522 7.1 -2.35)"/><use xlink:href="#P" width="14.3" height="14.3" transform="matrix(1.1979 -.0737 -.2022 -1.1997 -6.05 -31.3)"/><use xlink:href="#Q" width="21.1" height="17.9" transform="matrix(.8481 -.6071 .3372 .9367 -16 -39.85)"/></g></g><g clip-path="url(#ah)"><g transform="translate(1173.15 58.2)"><use xlink:href="#O" width="14.7" height="4.3" transform="matrix(-1.0522 0 0 1.0522 7.1 -2.35)"/><use xlink:href="#P" width="14.3" height="14.3" transform="matrix(1.1924 -.1049 -.2022 -1.1997 -6.35 -31.5)"/><use xlink:href="#Q" width="21.1" height="17.9" transform="matrix(.8001 -.6853 .3653 .9253 -15.9 -39)"/></g></g><g clip-path="url(#ai)"><g transform="translate(1241.15 58.2)"><use xlink:href="#O" width="14.7" height="4.3" transform="matrix(-1.0522 0 0 1.0522 7.1 -2.35)"/><use xlink:href="#P" width="14.3" height="14.3" transform="matrix(1.1861 -.1359 -.2022 -1.1997 -6.5 -31.65)"/><use xlink:href="#Q" width="21.1" height="17.9" transform="matrix(.7474 -.7574 .3931 .913 -15.65 -38.3)"/></g></g><g clip-path="url(#aj)"><g transform="translate(1309.15 58.2)"><use xlink:href="#O" width="14.7" height="4.3" transform="matrix(-1.0522 0 0 1.0522 7.1 -2.35)"/><use xlink:href="#P" width="14.3" height="14.3" transform="matrix(1.179 -.1667 -.2022 -1.1997 -6.75 -31.9)"/><use xlink:href="#Q" width="21.1" height="17.9" transform="matrix(.6855 -.8277 .4205 .8998 -15.35 -37.55)"/></g></g><g clip-path="url(#ak)"><g transform="translate(1377.15 58.2)"><use xlink:href="#O" width="14.7" height="4.3" transform="matrix(-1.0522 0 0 1.0522 7.1 -2.35)"/><use xlink:href="#P" width="14.3" height="14.3" transform="matrix(1.1711 -.1971 -.2022 -1.1997 -6.95 -32)"/><use xlink:href="#Q" width="21.1" height="17.9" transform="matrix(.62 -.8909 .4474 .8859 -15.05 -36.9)"/></g></g><g clip-path="url(#al)"><g transform="translate(1445.15 58.2)"><use xlink:href="#O" width="14.7" height="4.3" transform="matrix(-1.0522 0 0 1.0522 7.1 -2.35)"/><use xlink:href="#P" width="14.3" height="14.3" transform="matrix(1.1624 -.231 -.206 -1.1997 -7.2 -32.15)"/><use xlink:href="#Q" width="21.1" height="17.9" transform="matrix(.5483 -.951 .4741 .8726 -14.65 -36.25)"/></g></g><g clip-path="url(#am)"><g transform="translate(1513.15 58.2)"><use xlink:href="#O" width="14.7" height="4.3" transform="matrix(-1.0522 0 0 1.0522 7.1 -2.35)"/><use xlink:href="#an" width="14.3" height="14.3" transform="matrix(1.1624 -.2273 -.2022 -1.1997 -7.2 -32.25)"/><use xlink:href="#ao" width="21.1" height="17.9" transform="matrix(.5456 -.9507 .4739 .8711 -14.65 -36.2)"/></g></g><g clip-path="url(#ap)"><g transform="translate(1581.15 58.2)"><use xlink:href="#O" width="14.7" height="4.3" transform="matrix(-1.0522 0 0 1.0522 7.1 -2.35)"/><use xlink:href="#aq" width="14.3" height="14.3" transform="matrix(1.1624 -.2273 -.2022 -1.1997 -7.2 -32.25)"/><use xlink:href="#ar" width="21.1" height="17.9" transform="matrix(.5456 -.9507 .4739 .8711 -14.65 -36.2)"/></g></g><g clip-path="url(#as)"><g transform="translate(1649.15 58.2)"><use xlink:href="#O" width="14.7" height="4.3" transform="matrix(-1.0522 0 0 1.0522 7.1 -2.35)"/><use xlink:href="#at" width="14.3" height="14.3" transform="matrix(1.1624 -.2273 -.2022 -1.1997 -7.2 -32.25)"/><use xlink:href="#au" width="21.1" height="17.9" transform="matrix(.5456 -.9507 .4739 .8711 -14.65 -36.2)"/></g></g><g clip-path="url(#av)"><g transform="translate(1717.15 58.2)"><use xlink:href="#O" width="14.7" height="4.3" transform="matrix(-1.0522 0 0 1.0522 7.1 -2.35)"/><use xlink:href="#aw" width="14.3" height="14.3" transform="matrix(1.1624 -.2273 -.2022 -1.1997 -7.2 -32.25)"/><use xlink:href="#ax" width="21.1" height="17.9" transform="matrix(.5456 -.9507 .4739 .8711 -14.65 -36.2)"/></g></g><g clip-path="url(#ay)"><g transform="translate(1785.15 58.2)"><use xlink:href="#O" width="14.7" height="4.3" transform="matrix(-1.0522 0 0 1.0522 7.1 -2.35)"/><use xlink:href="#az" width="14.3" height="14.3" transform="matrix(1.1624 -.2273 -.2022 -1.1997 -7.2 -32.25)"/><use xlink:href="#aA" width="21.1" height="17.9" transform="matrix(.5456 -.9507 .4739 .8711 -14.65 -36.2)"/></g></g><g clip-path="url(#aB)"><g transform="translate(1853.15 58.2)"><use xlink:href="#O" width="14.7" height="4.3" transform="matrix(-1.0522 0 0 1.0522 7.1 -2.35)"/><use xlink:href="#aC" width="14.3" height="14.3" transform="matrix(1.1624 -.2273 -.2022 -1.1997 -7.2 -32.25)"/><use xlink:href="#aD" width="21.1" height="17.9" transform="matrix(.5456 -.9507 .4739 .8711 -14.65 -36.2)"/></g></g><g clip-path="url(#aE)"><g transform="translate(1921.15 58.2)"><use xlink:href="#O" width="14.7" height="4.3" transform="matrix(-1.0522 0 0 1.0522 7.1 -2.35)"/><use xlink:href="#aF" width="14.3" height="14.3" transform="matrix(1.1624 -.2273 -.2022 -1.1997 -7.2 -32.25)"/><use xlink:href="#aG" width="21.1" height="17.9" transform="matrix(.5456 -.9507 .4739 .8711 -14.65 -36.2)"/></g></g><g clip-path="url(#aH)"><g transform="translate(1989.15 58.2)"><use xlink:href="#O" width="14.7" height="4.3" transform="matrix(-1.0522 0 0 1.0522 7.1 -2.35)"/><use xlink:href="#aI" width="14.3" height="14.3" transform="matrix(1.1624 -.2273 -.2022 -1.1997 -7.2 -32.25)"/><use xlink:href="#aJ" width="21.1" height="17.9" transform="matrix(.5456 -.9507 .4739 .8711 -14.65 -36.2)"/></g></g><g clip-path="url(#aK)"><g transform="translate(2057.15 58.2)"><use xlink:href="#O" width="14.7" height="4.3" transform="matrix(-1.0522 0 0 1.0522 7.1 -2.35)"/><use xlink:href="#aL" width="14.3" height="14.3" transform="matrix(1.1624 -.2273 -.2022 -1.1997 -7.2 -32.25)"/><use xlink:href="#aM" width="21.1" height="17.9" transform="matrix(.5456 -.9507 .4739 .8711 -14.65 -36.2)"/></g></g><g clip-path="url(#aN)"><g transform="translate(2125.15 58.2)"><use xlink:href="#O" width="14.7" height="4.3" transform="matrix(-1.0522 0 0 1.0522 7.1 -2.35)"/><use xlink:href="#aO" width="14.3" height="14.3" transform="matrix(1.1624 -.2273 -.2022 -1.1997 -7.2 -32.25)"/><use xlink:href="#aP" width="21.1" height="17.9" transform="matrix(.5456 -.9507 .4739 .8711 -14.65 -36.2)"/></g></g><g clip-path="url(#aQ)"><g transform="translate(2193.15 58.2)"><use xlink:href="#O" width="14.7" height="4.3" transform="matrix(-1.0522 0 0 1.0522 7.1 -2.35)"/><use xlink:href="#aR" width="14.3" height="14.3" transform="matrix(1.1624 -.2273 -.2022 -1.1997 -7.2 -32.25)"/><use xlink:href="#aS" width="21.1" height="17.9" transform="matrix(.5456 -.9507 .4739 .8711 -14.65 -36.2)"/></g></g><g clip-path="url(#aT)"><g transform="translate(2261.15 58.2)"><use xlink:href="#O" width="14.7" height="4.3" transform="matrix(-1.0522 0 0 1.0522 7.1 -2.35)"/><use xlink:href="#aU" width="14.3" height="14.3" transform="matrix(1.1624 -.231 -.206 -1.1997 -7.2 -32.15)"/><use xlink:href="#aV" width="21.1" height="17.9" transform="matrix(.5483 -.951 .4741 .8726 -14.65 -36.25)"/></g></g><g clip-path="url(#aW)"><g transform="translate(2329.15 58.2)"><use xlink:href="#O" width="14.7" height="4.3" transform="matrix(-1.0522 0 0 1.0522 7.1 -2.35)"/><use xlink:href="#aX" width="14.3" height="14.3" transform="matrix(1.2809 -.0441 -.3499 -1.2146 2.55 -25.25)"/><use xlink:href="#aY" width="21.1" height="17.9" transform="matrix(1 .1445 .1322 1.0191 -9.45 -44.85)"/></g></g><g clip-path="url(#aZ)"><g transform="translate(2397.15 58.2)"><use xlink:href="#O" width="14.7" height="4.3" transform="matrix(-1.0522 0 0 1.0522 7.1 -2.35)"/><use xlink:href="#ba" width="14.3" height="14.3" transform="matrix(1.2809 -.0404 -.3488 -1.2138 2.55 -25.25)"/><use xlink:href="#bb" width="21.1" height="17.9" transform="matrix(1 .1416 .1303 1.0189 -9.4 -44.75)"/></g></g><g clip-path="url(#bc)"><g transform="translate(2465.15 58.2)"><use xlink:href="#O" width="14.7" height="4.3" transform="matrix(-1.0522 0 0 1.0522 7.1 -2.35)"/><use xlink:href="#bd" width="14.3" height="14.3" transform="matrix(1.2809 -.0404 -.3488 -1.2138 2.55 -25.25)"/><use xlink:href="#be" width="21.1" height="17.9" transform="matrix(1 .1416 .1303 1.0189 -9.4 -44.75)"/></g></g><g clip-path="url(#bf)"><g transform="translate(2533.15 58.2)"><use xlink:href="#O" width="14.7" height="4.3" transform="matrix(-1.0522 0 0 1.0522 7.1 -2.35)"/><use xlink:href="#bg" width="14.3" height="14.3" transform="matrix(1.2809 -.0404 -.3488 -1.2138 2.55 -25.25)"/><use xlink:href="#bh" width="21.1" height="17.9" transform="matrix(1 .1416 .1303 1.0189 -9.4 -44.75)"/></g></g><g clip-path="url(#bi)"><g transform="translate(2601.15 58.2)"><use xlink:href="#O" width="14.7" height="4.3" transform="matrix(-1.0522 0 0 1.0522 7.1 -2.35)"/><use xlink:href="#bj" width="14.3" height="14.3" transform="matrix(1.2809 -.0404 -.3488 -1.2138 2.55 -25.25)"/><use xlink:href="#bk" width="21.1" height="17.9" transform="matrix(1 .1416 .1303 1.0189 -9.4 -44.75)"/></g></g><g clip-path="url(#bl)"><g transform="translate(2669.15 58.2)"><use xlink:href="#O" width="14.7" height="4.3" transform="matrix(-1.0522 0 0 1.0522 7.1 -2.35)"/><use xlink:href="#bm" width="14.3" height="14.3" transform="matrix(1.2809 -.0404 -.3488 -1.2138 2.55 -25.25)"/><use xlink:href="#bn" width="21.1" height="17.9" transform="matrix(1 .1416 .1303 1.0189 -9.4 -44.75)"/></g></g><g clip-path="url(#bo)"><g transform="translate(2737.15 58.2)"><use xlink:href="#O" width="14.7" height="4.3" transform="matrix(-1.0522 0 0 1.0522 7.1 -2.35)"/><use xlink:href="#P" width="14.3" height="14.3" transform="matrix(1.2809 -.0441 -.3499 -1.2146 2.55 -25.25)"/><use xlink:href="#Q" width="21.1" height="17.9" transform="matrix(1 .1445 .1322 1.0191 -9.45 -44.85)"/></g></g></svg>