<svg xmlns="http://www.w3.org/2000/svg" xmlns:xlink="http://www.w3.org/1999/xlink" width="211" height="47" viewBox="0 0 211 47"><defs><g id="F"><path fill="#ffce8c" d="M1.1 0h1.8q.3 2.1.1 3l-.5 4.4-1.3.1h-.1q-.4-3 0-7.4"/><path fill="#febf74" d="M1.1 7.5.4 7 0 4.8l-.1-3L.2.2h.9q-.4 4.5 0 7.4"/><path fill="none" stroke="#1c1c1c" stroke-linecap="round" stroke-linejoin="round" stroke-opacity=".5" stroke-width="__RESOLUTION__" d="M2.9 0q.3 2.1.1 3l-.5 4.4M.4 7 0 4.9l-.1-3L.2.2" vector-effect="non-scaling-stroke"/></g><g id="G"><path fill="#ffce8c" d="M0 3.2v-.4l.3-.7.6-2L3.1 0l.3 1.9V3q0 .9-.4 1.8l-.1 1.9q-.7.2-1-.2V4.8L1.7 6l-.9-.2-.1-1v-.7Q.1 4 0 3.1"/><path fill="#daa674" d="M0 3.2q.2.8.9 1l-.1.7-.8-.4V3zm3 3.5.1-2q.4-.8.4-1.7V1.9q0 .4.3 1T4 4.6l-.7.7z"/></g><g id="U"><path fill="#ffdeb0" d="M3.3.3h.4l.6.9.1 1.2-.8.5zm0 5V3.8l1-1-.2 1.8z"/><path fill="#ffce8c" d="m3.3.3.4 2.6H1.3l-.1-.6 1-.4-.6-.8-.5-.5.5-.6z"/><path fill="#dea565" d="m3.7 2.9.7-.5v.5l-1.1.9zm-2.3 0-.2.6V3l-.3-.5-.8-.2.4-.4.5.1.2-1.4.5.5.6.8-1 .4zM2 5V3.8l.3 1 .2.1z"/><path fill="#febf74" d="M1.4 2.9h2.2l-.3.9H2l-.8-.3zm-.2.6.8.3h1.3v1.5l-.9-.4-.1-.1-.3-1V5l-1-.3v-.6L.2 4 0 2.3l.9.2.3.5z"/><path fill="none" stroke="#1c1c1c" stroke-linecap="round" stroke-linejoin="round" stroke-opacity=".5" stroke-width="__RESOLUTION__" d="M4.4 2.4V1.2m-3 1.7-.2.5.8.3h1.3l1-.9-.2 1.7-.7.8-1-.4-.1-.1-.3-1m.3-1.9-.6-.8M1.2.5 1 2l-.5-.1-.4.4H0L.3 4H1m0 .7.9.3.5-.2M1.7 0l-.5.6" vector-effect="non-scaling-stroke"/></g><g id="V"><path fill="#4e3c16" d="m8.7 6.8 1.3-.2.4 5.9-.1 1.1-2.4.5z"/><path fill="#988340" d="M7.9 14v.2l-1.2-.6 1.2-6.7.8-.1z"/><path fill="none" stroke="#000" stroke-linecap="round" stroke-linejoin="round" stroke-opacity=".3" stroke-width="__RESOLUTION__" d="m8.7 6.8 1.3-.2.4 5.9-.1 1.1-2.4.5h0l-1.3-.5 1.2-6.8z" vector-effect="non-scaling-stroke"/><path fill="#988340" d="m15.7 19.4-2-.5L12 8.5l.9-.2z"/><path fill="#4e3c16" d="m12.9 8.3 1.4-.2 3.6 8.9v.9l-2.2 1.5z"/><path fill="none" stroke="#000" stroke-linecap="round" stroke-linejoin="round" stroke-opacity=".3" stroke-width="__RESOLUTION__" d="m15.7 19.4-2-.5L12 8.5l.9-.2h0l1.5-.2L18 17v.9z" vector-effect="non-scaling-stroke"/><path fill="#4e3c16" d="M4.8 8.9 6 9l-2 9.8-2.3-.2z"/><path fill="#988340" d="M1.7 18.6.3 16.9l.1-1 3.4-7.3 1 .2z"/><path fill="none" stroke="#000" stroke-linecap="round" stroke-linejoin="round" stroke-opacity=".3" stroke-width="__RESOLUTION__" d="M4.8 8.9 6 9l-2 9.8-2.3-.2L.3 17l.1-1.1 3.4-7.2z" vector-effect="non-scaling-stroke"/><path fill="#988340" d="M6.3 10.1Q4.2 9.8 2.5 9 .7 8.2.2 7.1V5L0 4.1q0-1.7 2.5-3Q5.1 0 8.7 0t6.2 1.2T17.4 4v.2l-.2.7v.2q-.7.9-2.4 1.7-2.5 1.3-6.1 1.3L6.2 8zM.2 5l.1.2q.5.9 2.2 1.7 1.6.8 3.6 1.1-2-.3-3.6-1.1T.3 5.2z"/><path fill="#4e3c16" d="M17.2 5v2q-.5 1.2-2.3 2-2.6 1.3-6.2 1.3L6.3 10l-.1-2 2.5.2q3.6 0 6.2-1.3 1.6-.8 2.2-1.7z"/><path fill="none" stroke="#000" stroke-linecap="round" stroke-linejoin="round" stroke-opacity=".3" stroke-width="__RESOLUTION__" d="M6.3 10.1Q4.2 9.8 2.5 9 .7 8.2.2 7.1V5L0 4.1q0-1.7 2.5-3Q5.1 0 8.7 0t6.2 1.2T17.4 4v.2l-.2.7v2q-.5 1.2-2.3 2-2.6 1.3-6.2 1.3zL6.2 8H6q-2-.3-3.6-1.1T.3 5.2L.2 5m6 3 2.5.2q3.6 0 6.2-1.3 1.6-.8 2.2-1.7l.1-.2" vector-effect="non-scaling-stroke"/></g><g id="b"><path fill="#755725" d="M0 3.1v-.2z"/><path fill="none" stroke="#1c1c1c" stroke-linecap="round" stroke-linejoin="round" stroke-opacity=".5" stroke-width="__RESOLUTION__" d="M3.4 1.9 3 0m.3 1.9q0 .4.3 1T4 4.6l-.7.7-.5 1.4q-.7.2-1-.2V6l-1-.2-.1-1-.8-.4V2.8l.3-.7.6-2m1 5.9V4.8l-.2-.4M.8 4v.7" vector-effect="non-scaling-stroke"/></g><g id="e"><path fill="none" stroke="#1c1c1c" stroke-linecap="round" stroke-linejoin="round" stroke-opacity=".5" stroke-width="__RESOLUTION__" d="M8.8 3.6 8 3.4m-6.7 5Q-.9 5 .6 2.7T3 .3L4.3.1Q7-.5 8.9 2.2l1.2 1.1Q11 4.9 11 6q-1-1.8-2.3-2.4M4 7l.2.4.2 1.2q0 1-.3 1.7-.4.6-1 .8" vector-effect="non-scaling-stroke"/><path fill="none" stroke="#1f1f1f" stroke-linecap="round" stroke-linejoin="round" stroke-opacity=".3" stroke-width="__RESOLUTION__" d="M8.8 3.6 9 4.9Q8.8 6 8.4 6.4l.4 1.2L8.5 9q-.1 1-.7 1.6l-1.2.4-2.4-.6m2.3-9.2Q6.2.8 4.3.1M2 7.3q0-3 2.5-4.6" vector-effect="non-scaling-stroke"/><path fill="none" stroke="#52351b" stroke-linecap="round" stroke-linejoin="round" stroke-width="__RESOLUTION__" d="m5.9 7.7.8-.1m1.4-.4.4-.3" vector-effect="non-scaling-stroke"/><path fill="#ffce8c" d="M3 7.7h.1q.2 1.7-.1 1.9l-.6-.2-.5-.5q-.9-.7-.6-1.5.1-.6.7-.5l.5.1z"/><path fill="none" stroke="#1f1f1f" stroke-linecap="round" stroke-linejoin="round" stroke-opacity=".3" stroke-width="__RESOLUTION__" d="M3 7.7 2.5 7 2 6.9q-.5 0-.7.5-.3.9.5 1.5l.6.5.6.2" vector-effect="non-scaling-stroke"/></g><g id="c"><path fill="#febf74" d="M2.8.8 6.1 0l.4 2.2q-.1 1-.6 1.5l.4 1.1L6 6.3q-.1 1-.7 1.6.5-1.3-.6-3Q4.9 2.2 2.8.8"/><path fill="#ffce8c" d="M2.8.8q2 1.6 1.9 4 1.1 1.9.6 3.1L4 8.3l-2.4-.6-.3-.2L.6 7q0-.9-.3-1.6L0 5l1.3-3.1z"/></g><g id="h"><path fill="#7e5512" fill-opacity=".3" d="M4.3.2v.1Q2.7 1.6 2.6 2.8q-.3 2.3-.9 3.6L0 5.4q.7-.8.7-1.8T2 1.5 4.2 0z"/><path fill="none" stroke="#1c1c1c" stroke-linecap="round" stroke-linejoin="round" stroke-opacity=".5" stroke-width="__RESOLUTION__" d="M.6 9.3V7.6L1 6l-1-.5q.7-.8.7-1.8T2 1.4 4.2 0m-.7 9.7L4 8l.2-.7v-.5h1L5.9 5" vector-effect="non-scaling-stroke"/></g><g id="f"><path fill="#febf74" d="M.9 5.5 0 5q-.3-1.4.4-3.3L.6.9 1 0Q.8.6 1 1l2.7 1v.6l-.2.9Q2 3.5 1.3 3z"/><path fill="#ffce8c" d="m3.6 3.5-.2.3L3 5.4q-.3.8-2 .1l.3-2.4q.9.5 2.3.4"/></g><g id="m"><path fill="none" stroke="#1f1f1f" stroke-linecap="round" stroke-linejoin="round" stroke-opacity=".3" stroke-width="__RESOLUTION__" d="M7.8 2.6Q6 2.7 3.6 1.4 1.2.3 0 0" vector-effect="non-scaling-stroke"/><path fill="#ff3" d="M8.2 2.4q-.3 0-.6-.3l-.2-.5.2-.5.6-.3.5.3.2.5-.2.5q-.2.3-.5.3"/></g><g id="k"><path fill="none" stroke="#1c1c1c" stroke-linecap="round" stroke-linejoin="round" stroke-opacity=".5" stroke-width="__RESOLUTION__" d="M7.8 1.3 9.5 3q1.1 1.6 1 3.2L10 7.5l-.3 5m-7.1 1.3q.2-1.5-1.5-4.6Q-.4 6.5.1 4v-.1l1.3-1.1" vector-effect="non-scaling-stroke"/><path fill="#88532d" d="M9 14.2q-1.6 1.3-2.8 1.3-1.4 0-2.6-.5l-1.1-.7q-.2 0 0-1.4 1.4 1 3.6.7 1.5-.1 2.9-1l.9-.2.6.1q.4.2.4 1-.1.8-.6.8l-.6-.3-.4.4v-.6zm.9-1.8-.9.1.2-.1q.5-.5.5-1.4z"/><path fill="none" stroke="#32312e" stroke-linecap="round" stroke-linejoin="round" stroke-width="__RESOLUTION__" d="m9 14.2.3-.3m.6-1.5-.9.2m.7-1.5.2 1.3" vector-effect="non-scaling-stroke"/><path fill="#ff3" d="m7 13.6 2.3-1.2.2-.1v2.2l-.2.2q-1.2.9-2.5 1.2-.1-.7.1-2zm2-.6q-.7.3-1.4.9-.2.5-.1 1.3l1.4-.8z"/><path fill="#ff3" d="m8.8 14.2-.4.3H8l-.2-.1.2-.3.4-.3.4-.2.2.2z"/><path fill="#7e5512" fill-opacity=".3" d="M1.2 9.3Q-.5 6.4 0 3.9v-.1l1.3-1.1q1.3 4.3 4.5 6-1.3 3.2-1 5.7l-2.3-.6q.2-1.5-1.5-4.5"/><path fill="#e4b57a" d="M3.7 1.3 4.4 0l2.7 1.3.5 2.4q-.4.8-1.4.7-2-1.4-2.5-3.1"/><path fill="#ffce8c" d="M6.2 4.4 5 4.2q-2-.7-2.8-2 1-.4 1.4-.9.5 1.7 2.5 3.1"/><path fill="#88532d" d="M9.5 7.3q-.2 3.3-1 4.1-1.1 1.6-4.3 2.4l-1.7-.7q4-2.4 4.4-2.9 2.6-2 1.3-8.9l1.1 1q.4 2.1.2 5"/></g><g id="q"><path fill="#47280e" fill-opacity=".3" d="M0 7.8q1-1.4 1.5-4.1.3-2.3 1.4-3.2l2.2.5Q2.9 8 3.9 9.3l-1.2-.4Q1.5 8.5 0 7.7"/><path fill="none" stroke="#1c1c1c" stroke-linecap="round" stroke-linejoin="round" stroke-opacity=".5" stroke-width="__RESOLUTION__" d="M10 0v7.7l-1.9 1-4.3.5-1.1-.3Q1.4 8.5 0 7.7q1-1.4 1.5-4.1.3-2.2 1.4-3.1" vector-effect="non-scaling-stroke"/><path fill="#c98546" d="M3.7 6.7 4.3 3q.6-1.5 1.6-1.1l-.8 4.7z"/><path fill="#9e6934" d="m4.3 3-.6 3.7-3-1 .9-3.2z"/><path fill="none" stroke="#634221" stroke-linecap="round" stroke-linejoin="round" stroke-width="__RESOLUTION__" d="m3.7 6.7 1.4-.1.8-4.7m-4.3.5L.7 5.7l3 1" vector-effect="non-scaling-stroke"/><path fill="#88532d" d="M1.4 2.6q0-1.4.9-2 1.7 1 3.5 1-.8.4-1.1 2-2.6.9-3.3-1"/><path fill="none" stroke="#603620" stroke-linecap="round" stroke-linejoin="round" stroke-width="__RESOLUTION__" d="M1.4 2.6q0-1.4.9-2 1.7 1 3.5 1" vector-effect="non-scaling-stroke"/><path fill="#ff3" d="M2.3 4.4 2 4.1l-.1-.3.2-.2.3-.1.2.2.1.2-.1.3z"/></g><g id="s"><path fill="#28445c" fill-opacity=".3" d="M0 10q.5-1.5.3-2.5Q-.2 4.8 1.6 0l1.9.7q-.4 6.2-1.9 10-.8-.1-1.6-.7"/><path fill="none" stroke="#1c1c1c" stroke-linecap="round" stroke-linejoin="round" stroke-opacity=".5" stroke-width="__RESOLUTION__" d="M3 10.6Q3.5 8.9 4 8q1.7-3.1 1.4-6.6M1.6 0Q-.2 4.8.3 7.5q.2 1-.3 2.5" vector-effect="non-scaling-stroke"/></g><g id="x"><path fill="#ddd6c1" d="m4.1.7-.9.1zM.6.6l-.6 3 .4.2.2.3-.2-.2-.4-.3L.7 0zM.3 3.8"/><path fill="none" stroke="#1c1c1c" stroke-linecap="round" stroke-linejoin="round" stroke-opacity=".5" stroke-width="__RESOLUTION__" d="m4.1.7-.9.1h-.6Q1.6.6.8 0L.5.6l-.5 3 .4.2.2.3 1.4.4h.1q.5 0 .6.2M4 .7h.2v1.9q.4.3 0 1.6l-.5.3v-.7Q2.8 6 2.9 8m.5-5.2q.3.2.4 1m-3.4 0-.2 3" vector-effect="non-scaling-stroke"/><path fill="#203346" fill-opacity=".3" d="M.3 6.9V3.7q.6.5 1.7.8-.5 1.7-.4 3.1-1-.3-1.3-.7"/><path fill="#47280e" fill-opacity=".3" d="M.4 3.8 0 3.6l.6-3L.8 0q.8.7 1.8.8.2 2-.5 3.7H2L.7 4z"/></g><g id="z"><path fill="none" stroke="#99bbd2" stroke-linecap="round" stroke-linejoin="round" stroke-width="__RESOLUTION__" d="M3.5 10q.2-1.3.6-2.2 1.5-3.2.9-6.6" vector-effect="non-scaling-stroke"/><path fill="none" stroke="#1a2e3c" stroke-linecap="round" stroke-linejoin="round" stroke-width="__RESOLUTION__" d="M1.2 0Q-.2 5 0 6.8t.2 2.9" vector-effect="non-scaling-stroke"/><path fill="#28445c" fill-opacity=".3" d="M1.2 0 3 .5q0 6.2-1.1 9.9-1 0-1.7-.9.2-.9-.2-2.8T1 0"/></g><g id="A"><path fill="#ffce8c" d="M1.5 7.9Q0 8 0 7.2l.2-2.7H3q0 2-.6 3.1z"/><path fill="none" stroke="#a26933" stroke-linecap="round" stroke-linejoin="round" stroke-width="__RESOLUTION__" d="m2 0 .6.8q.7.8.3 2.3" vector-effect="non-scaling-stroke"/><path fill="none" stroke="#1c1c1c" stroke-linecap="round" stroke-linejoin="round" stroke-opacity=".5" stroke-width="__RESOLUTION__" d="M3 4.5q0 1.9-.6 3.1M0 7.2l.2-2.7" vector-effect="non-scaling-stroke"/></g><g id="E"><path fill="none" stroke="#1c1c1c" stroke-linecap="round" stroke-linejoin="round" stroke-opacity=".5" stroke-width="__RESOLUTION__" d="M.1.5 0 1.6q2.4 1.5 4.4 2l1-.8q.4-.5-.2-1.2L2.6 0" vector-effect="non-scaling-stroke"/><path fill="#47280e" fill-opacity=".3" d="M3.7 2.2q.9 1 .7 1.4-2-.5-4.3-2V.5L1.7.2q.7 1.3 2 2"/></g><g id="ao"><use xlink:href="#a" width="4.2" height="6.7"/><use xlink:href="#b" width="4.2" height="6.7"/></g><g id="an" transform="translate(4.3 7.9)"><use xlink:href="#c" width="6.5" height="8.3" transform="translate(-1.8 -5.15)"/><use xlink:href="#d" width="10.9" height="11.1" transform="translate(-4.3 -7.9)"/><use xlink:href="#e" width="10.9" height="11.1" transform="translate(-4.3 -7.9)"/></g><g id="am" transform="translate(3.4 2.3)"><use xlink:href="#f" width="3.8" height="5.8" transform="translate(-2.9 2)"/><use xlink:href="#g" width="6" height="7" transform="translate(-3.4 -2.3)"/><use xlink:href="#h" width="5.9" height="9.7" transform="translate(-3.4 -2.3)"/></g><g id="al" transform="translate(5.95 14.25)"><use xlink:href="#i" width="6.4" height="3.3" transform="translate(-4.6 -13.1)"/><use xlink:href="#j" width="10.6" height="13.2" transform="translate(-5.95 -13)"/><use xlink:href="#k" width="10.8" height="15.9" transform="translate(-5.95 -14.25)"/><use xlink:href="#l" width="8.5" height="5.2" transform="translate(-5.45 -13.45)"/><use xlink:href="#m" width="8.9" height="2.6" transform="translate(-5.45 -10.85)"/></g><g id="ak"><use xlink:href="#n" width="5.3" height="7.3"/><use xlink:href="#o" width="5.3" height="7.3"/></g><g id="aj"><use xlink:href="#p" width="10.1" height="9.3"/><use xlink:href="#q" width="10.1" height="9.3"/></g><g id="ai"><use xlink:href="#r" width="5.5" height="10.7"/><use xlink:href="#s" width="5.5" height="10.7"/></g><g id="ah"><use xlink:href="#t" width="4" height="4.3"/><use xlink:href="#u" width="4" height="4.3"/></g><g id="ag" transform="translate(2.65 -1.25)"><use xlink:href="#v" width="3.5" height="5.7" transform="translate(-2.4 3.5)"/><use xlink:href="#w" width="4.5" height="4.7" transform="translate(-2.65 1.25)"/><use xlink:href="#x" width="4.5" height="8" transform="translate(-2.65 1.25)"/></g><g id="af" transform="translate(3 .8)"><use xlink:href="#y" width="5.1" height="10.4" transform="translate(-2.95 -.8)"/><use xlink:href="#z" width="5.2" height="10.3" transform="translate(-3 -.8)"/></g><g id="ae" transform="translate(1.85 3.3)"><use xlink:href="#A" width="3" height="7.9" transform="translate(-1.2 -2.45)"/><use xlink:href="#B" width="4.5" height="5.7" transform="translate(-1.85 -3.3)"/><use xlink:href="#C" width="4.5" height="5.7" transform="translate(-1.85 -3.3)"/></g><g id="ad"><use xlink:href="#D" width="5.6" height="3.6"/><use xlink:href="#E" width="5.6" height="3.6"/></g><use xlink:href="#F" id="X" width="3" height="7.5"/><use xlink:href="#G" id="a" width="4.2" height="6.7"/><use xlink:href="#H" id="d" width="10.9" height="11.1"/><use xlink:href="#I" id="g" width="6" height="7"/><use xlink:href="#J" id="l" width="8.5" height="5.2"/><use xlink:href="#K" id="j" width="10.6" height="13.2"/><use xlink:href="#L" id="n" width="5.3" height="7.3"/><use xlink:href="#M" id="p" width="10.1" height="9.3"/><use xlink:href="#N" id="r" width="5.5" height="10.7"/><use xlink:href="#O" id="t" width="4" height="4.3"/><use xlink:href="#P" id="w" width="4.5" height="4.7"/><use xlink:href="#Q" id="v" width="3.5" height="5.7"/><use xlink:href="#R" id="y" width="5.1" height="10.4"/><use xlink:href="#S" id="B" width="4.5" height="5.7"/><use xlink:href="#T" id="D" width="5.6" height="3.6"/><use xlink:href="#U" id="ac" width="4.4" height="5.3"/><use xlink:href="#V" id="ab" width="17.9" height="19.4"/><use xlink:href="#W" id="aa" width="26.3" height="13.2"/><use xlink:href="#X" id="Z" width="3" height="7.5" transform="matrix(.9726 -.2293 .1674 .9872 0 .7)"/><path id="H" fill="#9e6124" d="M4.7-2.2q.8 1.6.8 2.6-1.1-2.3-3-2.6L.2.5l-1.5 1.3.2 1.3Q-1 5-2.5 5.6q.4-1.8-.2-3l-1.4.3Q-6.4-.6-5-2.9t2.4-2.3l1.3-.2q2.7-.7 4.7 2z" transform="translate(5.45 5.55)"/><path id="I" fill="#fa952f" d="M1.4-3.2Q3.3.3 3 1.7l-.8 1.8-3.4-.6L-3 2q.6-.9.6-1.9T-1-2t2.2-1.4z" transform="translate(2.95 3.45)"/><path id="J" fill="#406f96" d="M2.1-2.5q1.3-.4 2 1.7.4 2.4-.5 3.4-1.8.2-4.2-1.1T-4.2 0Q-4.3-1-3-1.4q.8 0 2.4.8T2.9.6q.4-1.8-.8-3.1" transform="translate(4.25 2.6)"/><path id="K" fill="#fa952f" d="M2.3-6.6h.2l1.8 1.7q1 1.6 1 3.2L4.8-.4l-.3 5.1Q2.6 6.8-.3 6.5l-2.3-.6q.2-1.4-1.5-4.5-1.5-2.8-1-5.3v-.2l1.2-1L-1.2-4q1.8.7 3 .3 1-.4.5-3" transform="translate(5.25 6.6)"/><path id="L" fill="#9e6124" d="m.1-3.6 1.4.8.4.3.3.2.5.7q0 .8-.5 1.3-2 2.4-2.2 4l-2.2-2.4q-.5-.6-.4-1.5l.1-.8.3-1 .6-.8.9-.7z" transform="translate(2.65 3.65)"/><path id="M" fill="#fa952f" d="M4.9-4.6 5 3 3.1 4.1q-2.3.8-4.3.5l-1.1-.3Q-3.6 3.9-5 3q1-1.5 1.4-4 .4-2.3 1.5-3.2l2.2.5q3 .4 4.8-1" transform="translate(5.05 4.65)"/><path id="N" fill="#406f96" d="m.8-4.7 1.9.8Q3-.6 1.3 2.6q-.5.9-1 2.6l-1.4.1-1.6-.6q.5-1.6.3-2.6-.5-2.7 1.3-7.5z" transform="translate(2.7 5.35)"/><path id="O" fill="#406f96" d="m1.6-2 .2 1.6.3 2.1q-.6.5-2.2.5Q-1.8 2-2 1.3l.9-3.5z" transform="translate(2 2.15)"/><path id="P" fill="#fa952f" d="M.4-1.5h.5l1-.2H2V.2q.5.3 0 1.7l-.4.2v-.7Q1.4.7 1 .4q-.9.9-.7 2L-.1 2h-.1l-1.4-.4-.3-.3-.4-.2.6-3 .2-.5q.9.6 1.9.7" transform="translate(2.25 2.35)"/><path id="Q" fill="#406f96" d="m1 2.9-1.4-.3q-1-.3-1.2-.7l-.1-.1q-.2-2.5.2-3.8 1.2-.8 2-.8Q1.8-3 1.8-1.1q-.9 2-.8 4" transform="translate(1.75 2.85)"/><path id="R" fill="#406f96" d="M2.4-4Q3-.6 1.5 2.6q-.4.9-.6 2.2-1.6 1-3.2-.3.1-1.1-.2-3t1-6.7z" transform="translate(2.55 5.2)"/><path id="S" fill="#fa952f" d="M.2-2.8q.7 0 1.8 1.6.4.8.2 1.7-.3 1.2.1 2.1l-4.4-.2-.1-1.7Q-2-.6.2-2.8" transform="translate(2.25 2.85)"/><path id="T" fill="#406f96" d="m2.7 1-1.2.8q-2-.5-4.3-2l.1-1.1 2.6-.5L2.4-.2q.7.6.3 1.2" transform="translate(2.8 1.8)"/><path id="W" fill="url(#ass)" d="M-12.5-9.5h26.3V3.7h-26.3z" transform="translate(12.5 9.5)"/><path id="i" fill="#ffce8c" d="M1.1-10q-1.2.4-3-.3l-2.7-1.2q2.9-2 6.2-1.5.5 2.6-.5 3" transform="translate(4.6 13.1)"/><path id="o" fill="none" stroke="#1b1b1b" stroke-linecap="round" stroke-linejoin="round" stroke-opacity=".5" stroke-width="__RESOLUTION__" d="m1-.2 1.4.8.4.2.3.3.5.6q0 .9-.5 1.4-2 2.4-2.2 4l-2.2-2.4q-.5-.6-.4-1.5l.1-.8.3-1 .6-.8.9-.7z" transform="translate(1.75 .3)" vector-effect="non-scaling-stroke"/><path id="u" fill="none" stroke="#1c1c1c" stroke-linecap="round" stroke-linejoin="round" stroke-opacity=".5" stroke-width="__RESOLUTION__" d="m-.4.3-1 3.6q.2.6 2 .7 1.6 0 2.1-.4L2.4 2 2.2.5" transform="translate(1.35 -.3)" vector-effect="non-scaling-stroke"/><path id="C" fill="none" stroke="#1c1c1c" stroke-linecap="round" stroke-linejoin="round" stroke-opacity=".5" stroke-width="__RESOLUTION__" d="M-1.8.3V2l4.5.2q-.4-1 0-2.1.1-1-.4-1.7-1-1.6-1.7-1.7" transform="translate(1.85 3.3)" vector-effect="non-scaling-stroke"/><clipPath id="Y"><path d="M1 1h29v45H1z"/></clipPath><clipPath id="ap"><path d="M31 1h29v45H31z"/></clipPath><clipPath id="aq"><path d="M61 1h29v45H61z"/></clipPath><clipPath id="ar"><path d="M91 1h29v45H91z"/></clipPath><clipPath id="as"><path d="M121 1h29v45h-29z"/></clipPath><clipPath id="au"><path d="M151 1h29v45h-29z"/></clipPath><clipPath id="av"><path d="M181 1h29v45h-29z"/></clipPath></defs><g clip-path="url(#Y)"><g transform="translate(19.05 42.15)"><use xlink:href="#Z" width="4.3" height="8.1" transform="matrix(.7843 .2344 -.3093 .7776 3.15 -23.65)"/><use xlink:href="#aa" width="26.3" height="13.2" transform="translate(-18.05 -9.7)"/><use xlink:href="#ab" width="17.9" height="19.4" transform="matrix(.8665 0 0 1 -10 -18.95)"/><use xlink:href="#ac" width="4.4" height="5.3" transform="matrix(.8286 .2302 -.2315 .8544 1.1 -18.05)"/><use xlink:href="#ad" width="5.6" height="3.6" transform="rotate(4.54 41.322 39.382)scale(.997)"/><use xlink:href="#ae" width="4.5" height="8.8" transform="matrix(.801 .34 -.0253 1.0353 2.5 -31.7)"/><use xlink:href="#af" width="5.2" height="10.4" transform="matrix(.7794 -.6216 .6925 .7229 -2.95 -16.55)"/><use xlink:href="#ag" width="4.5" height="8" transform="matrix(.9968 -.0445 .0833 .9951 3 -10.35)"/><use xlink:href="#ah" width="4" height="4.3" transform="matrix(1 0 -.0867 1.1649 -3.15 -3.05)"/><use xlink:href="#ai" width="5.5" height="10.7" transform="matrix(-.9921 -.1482 -.3224 .8424 2.8 -17.15)"/><use xlink:href="#ag" width="4.5" height="8" transform="matrix(-.9897 -.1274 -.0541 1.0047 .5 -8.65)"/><use xlink:href="#aj" width="10.1" height="9.3" transform="matrix(.9997 -.0133 .5565 1.1611 -7.4 -21.45)"/><use xlink:href="#ak" width="5.3" height="7.3" transform="rotate(118.343 9.62 -17.823)scale(.9976)"/><use xlink:href="#al" width="10.8" height="15.9" transform="matrix(.966 .1359 -.3558 .8459 -1.9 -34.2)"/><use xlink:href="#am" width="6" height="10.2" transform="matrix(.9853 .1597 -.0615 1.0801 -5.95 -32.8)"/><use xlink:href="#an" width="10.9" height="11.1" transform="matrix(1.0016 .0627 -.1666 .9853 -.6 -41.15)"/><use xlink:href="#ao" width="4.2" height="6.7" transform="matrix(.9936 .0656 -.0516 .7815 -8.5 -16.5)"/><use xlink:href="#X" width="3" height="7.5" transform="matrix(.955 .2439 -.1988 .9751 -6.05 -23.05)"/></g></g><g clip-path="url(#ap)"><g transform="translate(49.05 42.15)"><use xlink:href="#Z" width="4.3" height="8.1" transform="matrix(.7843 .2344 -.3093 .7776 3.15 -23.65)"/><use xlink:href="#aa" width="26.3" height="13.2" transform="translate(-18.05 -9.7)"/><use xlink:href="#ab" width="17.9" height="19.4" transform="matrix(.8665 0 0 1 -10 -18.95)"/><use xlink:href="#ac" width="4.4" height="5.3" transform="matrix(.8286 .2302 -.2315 .8544 1.1 -18.05)"/><use xlink:href="#ad" width="5.6" height="3.6" transform="rotate(4.51 41.591 39.051)scale(.9969)"/><use xlink:href="#ae" width="4.5" height="8.8" transform="matrix(.8139 .3054 .0144 1.0356 2.05 -31.2)"/><use xlink:href="#af" width="5.2" height="10.4" transform="matrix(.7475 -.6575 .7238 .6894 -3 -16)"/><use xlink:href="#ag" width="4.5" height="8" transform="matrix(.9967 -.0438 .0828 .9949 2.95 -10.25)"/><use xlink:href="#ah" width="4" height="4.3" transform="matrix(1 0 -.0866 1.1646 -3.75 -3)"/><use xlink:href="#ai" width="5.5" height="10.7" transform="matrix(-.9888 -.1656 -.343 .8352 2.4 -16.8)"/><use xlink:href="#ag" width="4.5" height="8" transform="matrix(-.9894 -.1263 -.053 1.0046 0 -8.5)"/><use xlink:href="#aj" width="10.1" height="9.3" transform="matrix(.9997 -.0132 .5549 1.1601 -7.85 -21.25)"/><use xlink:href="#ak" width="5.3" height="7.3" transform="rotate(106.307 12.033 -18.037)scale(.9965)"/><use xlink:href="#al" width="10.8" height="15.9" transform="matrix(.9655 .1358 -.3551 .845 -2.35 -33.75)"/><use xlink:href="#am" width="6" height="10.2" transform="matrix(.9904 .1218 -.0193 1.0818 -6.5 -32.2)"/><use xlink:href="#an" width="10.9" height="11.1" transform="matrix(1.0014 .0616 -.1654 .985 -1.1 -40.7)"/><use xlink:href="#ao" width="4.2" height="6.7" transform="matrix(.9936 -.0618 .0486 .7815 -7.75 -16.05)"/><use xlink:href="#X" width="3" height="7.5" transform="matrix(.9792 .1117 -.0617 .9934 -6.3 -22.6)"/></g></g><g clip-path="url(#aq)"><g transform="translate(79.05 42.15)"><use xlink:href="#Z" width="4.3" height="8.1" transform="matrix(.7843 .2344 -.3093 .7776 3.15 -23.65)"/><use xlink:href="#aa" width="26.3" height="13.2" transform="translate(-18.05 -9.7)"/><use xlink:href="#ab" width="17.9" height="19.4" transform="matrix(.8665 0 0 1 -10 -18.95)"/><use xlink:href="#ac" width="4.4" height="5.3" transform="matrix(.8286 .2302 -.2315 .8544 1.1 -18.05)"/><use xlink:href="#ad" width="5.6" height="3.6" transform="rotate(4.51 41.591 39.051)scale(.9969)"/><use xlink:href="#ae" width="4.5" height="8.8" transform="matrix(.8256 .2729 .0588 1.034 1.65 -30.7)"/><use xlink:href="#af" width="5.2" height="10.4" transform="matrix(.7176 -.6902 .7561 .6541 -3.15 -15.3)"/><use xlink:href="#ag" width="4.5" height="8" transform="matrix(.9967 -.0438 .0828 .9949 3 -10.15)"/><use xlink:href="#ah" width="4" height="4.3" transform="matrix(1 0 -.0866 1.1646 -4.4 -2.95)"/><use xlink:href="#ai" width="5.5" height="10.7" transform="matrix(-.9856 -.1828 -.3656 .8276 2.05 -16.55)"/><use xlink:href="#ag" width="4.5" height="8" transform="matrix(-.9894 -.1263 -.053 1.0046 -.6 -8.4)"/><use xlink:href="#aj" width="10.1" height="9.3" transform="matrix(.9997 -.0132 .5549 1.1601 -8.35 -21)"/><use xlink:href="#ak" width="5.3" height="7.3" transform="rotate(94.51 14.79 -18.41)scale(.997)"/><use xlink:href="#al" width="10.8" height="15.9" transform="matrix(.9655 .1358 -.3551 .845 -2.8 -33.3)"/><use xlink:href="#am" width="6" height="10.2" transform="matrix(.9947 .0831 .0193 1.0819 -7.1 -31.6)"/><use xlink:href="#an" width="10.9" height="11.1" transform="matrix(1.0014 .0616 -.1654 .985 -1.6 -40.25)"/><use xlink:href="#ao" width="4.2" height="6.7" transform="matrix(.9766 -.1909 .1502 .7682 -6.95 -15.55)"/><use xlink:href="#X" width="3" height="7.5" transform="matrix(.986 -.0217 .0699 .9932 -6.5 -22)"/></g></g><g clip-path="url(#ar)"><g transform="translate(109.05 42.15)"><use xlink:href="#aa" width="26.3" height="13.2" transform="translate(-18.05 -9.7)"/><use xlink:href="#ab" width="17.9" height="19.4" transform="matrix(.8665 0 0 1 -10 -18.95)"/><use xlink:href="#ad" width="5.6" height="3.6" transform="rotate(4.51 41.591 39.051)scale(.9969)"/><use xlink:href="#ae" width="4.5" height="8.8" transform="matrix(.8368 .2372 .0998 1.0308 1.1 -30.3)"/><use xlink:href="#af" width="5.2" height="10.4" transform="matrix(.6838 -.7238 .7867 .6173 -3.2 -14.65)"/><use xlink:href="#ag" width="4.5" height="8" transform="matrix(.9967 -.0438 .0828 .9949 3 -10.05)"/><use xlink:href="#ah" width="4" height="4.3" transform="matrix(1 0 -.0866 1.1646 -5 -2.85)"/><use xlink:href="#ai" width="5.5" height="10.7" transform="matrix(-.9821 -.2 -.3881 .8194 1.65 -16.1)"/><use xlink:href="#ag" width="4.5" height="8" transform="matrix(-.9894 -.1263 -.053 1.0046 -1.15 -8.25)"/><use xlink:href="#aj" width="10.1" height="9.3" transform="matrix(.9997 -.0132 .5549 1.1601 -8.8 -20.75)"/><use xlink:href="#ac" width="4.4" height="5.3" transform="matrix(.8279 .2299 -.2297 .8542 .35 -17.3)"/><use xlink:href="#ak" width="5.3" height="7.3" transform="rotate(82.714 18.018 -18.986)scale(.9966)"/><use xlink:href="#al" width="10.8" height="15.9" transform="matrix(.9655 .1358 -.3551 .845 -3.25 -32.85)"/><use xlink:href="#am" width="6" height="10.2" transform="matrix(.9974 .0444 .0614 1.0803 -7.65 -31.05)"/><use xlink:href="#an" width="10.9" height="11.1" transform="matrix(1.0014 .0616 -.1654 .985 -2.1 -39.8)"/><use xlink:href="#ao" width="4.2" height="6.7" transform="matrix(.9429 -.3169 .2493 .7417 -6.15 -15.1)"/><use xlink:href="#X" width="3" height="7.5" transform="matrix(.974 -.1548 .2035 .9746 -6.65 -21.45)"/><use xlink:href="#Z" width="4.3" height="8.1" transform="matrix(.7695 .2772 -.3511 .7587 2.65 -22.9)"/></g></g><g clip-path="url(#as)"><g transform="translate(139.05 42.15)"><use xlink:href="#aa" width="26.3" height="13.2" transform="translate(-18.05 -9.7)"/><use xlink:href="#ab" width="17.9" height="19.4" transform="matrix(.8665 0 0 1 -10 -18.95)"/><use xlink:href="#ad" width="5.6" height="3.6" transform="rotate(4.51 41.566 38.416)scale(.9969)"/><use xlink:href="#ae" width="4.5" height="8.8" transform="matrix(.8458 .2038 .1406 1.0261 .65 -29.8)"/><use xlink:href="#af" width="5.2" height="10.4" transform="matrix(.6485 -.7558 .8135 .5817 -3.3 -14.05)"/><use xlink:href="#ag" width="4.5" height="8" transform="matrix(.9967 -.0438 .0828 .9949 3 -10)"/><use xlink:href="#ah" width="4" height="4.3" transform="matrix(1 0 -.0866 1.1646 -5.65 -2.8)"/><use xlink:href="#ai" width="5.5" height="10.7" transform="matrix(-.9784 -.2171 -.4103 .8106 1.25 -15.7)"/><use xlink:href="#ag" width="4.5" height="8" transform="matrix(-.9894 -.1263 -.053 1.0046 -1.7 -8.15)"/><use xlink:href="#aj" width="10.1" height="9.3" transform="matrix(.9997 -.0132 .5549 1.1601 -9.3 -20.5)"/><use xlink:href="#ac" width="4.4" height="5.3" transform="matrix(.8445 .1567 -.154 .8708 -.3 -17.6)"/><use xlink:href="#ak" width="5.3" height="7.3" transform="rotate(70.72 22.012 -19.964)scale(.9958)"/><use xlink:href="#al" width="10.8" height="15.9" transform="matrix(.9655 .1358 -.3551 .845 -3.7 -32.4)"/><use xlink:href="#am" width="6" height="10.2" transform="matrix(.9986 .0088 .0999 1.0774 -8.2 -30.45)"/><use xlink:href="#an" width="10.9" height="11.1" transform="matrix(1.0014 .0616 -.1654 .985 -2.6 -39.35)"/><use xlink:href="#ao" width="4.2" height="6.7" transform="matrix(.8931 -.4374 .3441 .7025 -5.3 -14.6)"/><use xlink:href="#X" width="3" height="7.5" transform="matrix(.9441 -.2851 .3335 .9381 -6.8 -20.8)"/><use xlink:href="#Z" width="4.3" height="8.1" transform="matrix(.7639 .2905 -.3641 .7518 2.5 -22.65)"/></g></g><g clip-path="url(#au)"><g transform="translate(169.05 42.15)"><use xlink:href="#aa" width="26.3" height="13.2" transform="translate(-18.05 -9.7)"/><use xlink:href="#ab" width="17.9" height="19.4" transform="matrix(.8665 0 0 1 -10 -18.95)"/><use xlink:href="#ad" width="5.6" height="3.6" transform="rotate(4.51 41.566 38.416)scale(.9969)"/><use xlink:href="#ae" width="4.5" height="8.8" transform="matrix(.8534 .1701 .1846 1.0191 .1 -29.35)"/><use xlink:href="#af" width="5.2" height="10.4" transform="matrix(.6143 -.7841 .8405 .5423 -3.35 -13.4)"/><use xlink:href="#ag" width="4.5" height="8" transform="matrix(.9967 -.0438 .0828 .9949 3.05 -9.9)"/><use xlink:href="#ah" width="4" height="4.3" transform="matrix(1 0 -.0866 1.1646 -6.25 -2.75)"/><use xlink:href="#ai" width="5.5" height="10.7" transform="matrix(-.9743 -.2342 -.435 .7998 .9 -15.45)"/><use xlink:href="#ag" width="4.5" height="8" transform="matrix(-.9894 -.1263 -.053 1.0046 -2.3 -8.05)"/><use xlink:href="#aj" width="10.1" height="9.3" transform="matrix(.9997 -.0132 .5549 1.1601 -9.75 -20.25)"/><use xlink:href="#ac" width="4.4" height="5.3" transform="matrix(.8555 .0825 -.0776 .8813 -1.1 -17.7)"/><use xlink:href="#ak" width="5.3" height="7.3" transform="rotate(58.899 27.255 -21.228)scale(.9953)"/><use xlink:href="#al" width="10.8" height="15.9" transform="matrix(.9655 .1358 -.3551 .845 -4.15 -31.95)"/><use xlink:href="#am" width="6" height="10.2" transform="matrix(.9983 -.0268 .1418 1.0727 -8.7 -29.9)"/><use xlink:href="#an" width="10.9" height="11.1" transform="matrix(1.0014 .0616 -.1654 .985 -3.1 -38.9)"/><use xlink:href="#ao" width="4.2" height="6.7" transform="matrix(.828 -.5504 .433 .6513 -4.45 -14.25)"/><use xlink:href="#X" width="3" height="7.5" transform="matrix(.8968 -.4104 .4604 .8828 -7 -20.05)"/><use xlink:href="#Z" width="4.3" height="8.1" transform="matrix(.7579 .3068 -.3802 .7442 2.3 -22.35)"/></g></g><g clip-path="url(#av)"><g transform="translate(199.05 42.15)"><use xlink:href="#aa" width="26.3" height="13.2" transform="translate(-18.05 -9.7)"/><use xlink:href="#ab" width="17.9" height="19.4" transform="matrix(.8665 0 0 1 -10 -18.95)"/><use xlink:href="#ad" width="5.6" height="3.6" transform="rotate(4.54 41.297 38.752)scale(.997)"/><use xlink:href="#ae" width="4.5" height="8.8" transform="matrix(.8602 .1358 .2266 1.0113 -.3 -28.85)"/><use xlink:href="#af" width="5.2" height="10.4" transform="matrix(.5774 -.8138 .8663 .5034 -3.5 -12.75)"/><use xlink:href="#ag" width="4.5" height="8" transform="matrix(.9968 -.0445 .0833 .9951 3.1 -9.8)"/><use xlink:href="#ah" width="4" height="4.3" transform="matrix(1 0 -.0867 1.1649 -6.9 -2.7)"/><use xlink:href="#ai" width="5.5" height="10.7" transform="matrix(-.9707 -.2515 -.457 .7911 .55 -15.1)"/><use xlink:href="#ag" width="4.5" height="8" transform="matrix(-.9897 -.1274 -.0541 1.0047 -2.9 -8)"/><use xlink:href="#aj" width="10.1" height="9.3" transform="matrix(.9997 -.0133 .5565 1.1611 -10.25 -19.95)"/><use xlink:href="#ao" width="4.2" height="6.7" transform="matrix(.8599 .0079 -.0024 .8852 -.55 -16.9)"/><use xlink:href="#ak" width="5.3" height="7.3" transform="rotate(46.89 34.914 -23.565)scale(.9965)"/><use xlink:href="#al" width="10.8" height="15.9" transform="matrix(.966 .1359 -.3558 .8459 -4.6 -31.5)"/><use xlink:href="#am" width="6" height="10.2" transform="matrix(.9967 -.0668 .184 1.0669 -9.25 -29.3)"/><use xlink:href="#an" width="10.9" height="11.1" transform="matrix(1.0016 .0627 -.1666 .9853 -3.6 -38.45)"/><use xlink:href="#ao" width="4.2" height="6.7" transform="matrix(.7489 -.6562 .5162 .5891 -3.55 -13.9)"/><use xlink:href="#X" width="3" height="7.5" transform="matrix(.8329 -.5312 .5768 .8138 -7.05 -19.5)"/><use xlink:href="#Z" width="4.3" height="8.1" transform="matrix(.7529 .322 -.3957 .7378 2.15 -22.1)"/></g></g></svg>