<svg xmlns="http://www.w3.org/2000/svg" xmlns:xlink="http://www.w3.org/1999/xlink" width="2341" height="109" viewBox="0 0 2341 109"><defs><use xlink:href="#a" id="b" width="22.9" height="21.6"/><use xlink:href="#b" id="bf" width="22.9" height="21.6" transform="matrix(-1 0 0 1 29.95 4.5)"/><use xlink:href="#c" id="ba" width="27.4" height="43"/><use xlink:href="#d" id="aY" width="27.4" height="43"/><use xlink:href="#e" id="aW" width="27.4" height="43"/><use xlink:href="#f" id="aU" width="27.4" height="43"/><use xlink:href="#g" id="aS" width="27.4" height="43"/><use xlink:href="#h" id="ax" width="27.4" height="43"/><use xlink:href="#i" id="av" width="27.4" height="43"/><use xlink:href="#b" id="at" width="22.9" height="21.6" transform="matrix(-1.06 0 0 1.06 30.65 4)"/><use xlink:href="#j" id="as" width="27.4" height="43"/><use xlink:href="#b" id="aq" width="22.9" height="21.6" transform="matrix(-1.13 0 0 1.13 31.35 3.55)"/><use xlink:href="#k" id="ap" width="27.4" height="43"/><use xlink:href="#b" id="an" width="22.9" height="21.6" transform="matrix(-1.19 0 0 1.19 32.1 3)"/><use xlink:href="#l" id="am" width="51.6" height="24.9"/><use xlink:href="#b" id="ak" width="22.9" height="21.6" transform="matrix(-1.26 0 0 1.26 32.8 2.5)"/><use xlink:href="#m" id="aj" width="51.6" height="24.9"/><use xlink:href="#b" id="ah" width="22.9" height="21.6" transform="matrix(-1.32 0 0 1.32 33.5 2)"/><use xlink:href="#n" id="ag" width="51.6" height="24.9"/><use xlink:href="#b" id="ae" width="22.9" height="21.6" transform="matrix(-1.39 0 0 1.39 34.2 1.55)"/><use xlink:href="#o" id="ad" width="51.6" height="24.9"/><use xlink:href="#b" id="ab" width="22.9" height="21.6" transform="matrix(-1.45 0 0 1.45 34.9 1)"/><use xlink:href="#p" id="aa" width="51.6" height="24.9"/><use xlink:href="#b" id="Y" width="22.9" height="21.6" transform="matrix(-1.52 0 0 1.52 35.65 .5)"/><use xlink:href="#q" id="X" width="51.6" height="24.9"/><use xlink:href="#b" id="V" width="22.9" height="21.6" transform="matrix(-1.58 0 0 1.58 36.35 0)"/><use xlink:href="#r" id="U" width="30.4" height="42.8"/><use xlink:href="#s" id="T" width="51.6" height="24.9"/><use xlink:href="#t" id="S" width="27.4" height="43"/><use xlink:href="#u" id="R" width="16.2" height="15.9"/><use xlink:href="#v" id="Q" width="51.6" height="24.9"/><g id="a"><path fill="#fff" d="M7.5 0q2 3.1 4 4.9 1.5 1.2 3.9.5Q17 5 20.7 3q-1.6 2.6-2 4.5-.3 1.2.6 2.3 1 1.3 3.6 1.7-1.2 0-2.4.8-1 .6-1.3 1.3-.5 1 .5 2.7.7 1.5 2.7 3.8-6.6-3.5-9.2-1.8-2.1 1.5-2.9 3.3 0-1.7-.3-2.4-.5-2.1-1.8-2.5-3-1-7.4.4.8-.5 2.3-2.6 1-1.2.6-3.1Q3.3 8.7 0 6.2l3.4.4 2.9-.4q1-.3 1.2-6.1z"/><path fill="#35479e" d="M12.2 13.7h-.7l-.6-.4-3.5-6.1q-.2-.3 0-.8l.7-.6L9.5 5l.9-.1q.4 0 .5.5-2.3.8-2.5 1.4 2.5 5.3 3.7 6.9m1.9 4h-.7q-.7-.1-.9-.6t0-1.2q.3-.5 1-.9.3-.2.7-.2-1.2.4-1 1.7 0 1.2 1 1.2z"/><path fill="#578afd" d="M12.2 13.7q-1.3-1.6-3.7-6.9.1-.6 2.4-1.5l2.4 6.6v.8l-.6.7-.3.2zm1.9 1 .5.1q.5.2.8.7.2.5 0 1.1l-.9 1-.4.1q-1 0-1-1.3-.2-1.2 1-1.6"/></g><g id="c"><path fill="url(#w)" d="M12.5-36q3.2 16.2.2 29.5-6.6 6-26 13.5 3.9-14.2.5-30.8 20-6 25.3-12.2" transform="translate(13.25 36.05)"/><path fill="none" stroke="#bf272e" stroke-linecap="round" stroke-linejoin="round" stroke-width="__RESOLUTION__" d="M25.8 0q3.1 16.3.1 29.6Q19.5 35.5 0 43" vector-effect="non-scaling-stroke"/><path fill="none" stroke="#bf8087" stroke-linecap="round" stroke-linejoin="round" stroke-width="__RESOLUTION__" d="M0 43q3.9-14.2.4-30.8 20-6 25.4-12.2" vector-effect="non-scaling-stroke"/><path fill="#bf272e" d="M7.2 29.9q1.5 0 2.6 1t1 2.5-1 2.4-2.7 1-2.5-1q-1.1-1-1.1-2.4 0-1.5 1-2.5 1.2-1 2.7-1"/><path fill="#bcc3ca" fill-opacity=".5" d="m3.8 31.2.7-.4q.5 0 .8.3.2.3.2.8t-.2.9-.8.4-.7-.4-.3-.8z"/><path fill="#bf272e" d="M18.2 20.2q0 1.5-1.1 2.5t-2.6 1-2.6-1q-1-1-1-2.5 0-1.4 1-2.4 1.1-1 2.6-1t2.6 1 1.1 2.4"/><path fill="#bcc3ca" fill-opacity=".5" d="m11.2 20 .7-.3.7.3.3.7-.3.7q-.3.3-.7.3-.5 0-.8-.3l-.2-.7z"/></g><g id="d"><path fill="url(#x)" d="M12.5-36q3.2 16.2.2 29.5-6.6 6-26 13.5 3.9-14.2.5-30.8 20-6 25.3-12.2" transform="translate(13.25 36.05)"/><path fill="none" stroke="#c1272e" stroke-linecap="round" stroke-linejoin="round" stroke-width="__RESOLUTION__" d="M25.8 0q3.1 16.3.1 29.6Q19.5 35.5 0 43" vector-effect="non-scaling-stroke"/><path fill="none" stroke="#c18188" stroke-linecap="round" stroke-linejoin="round" stroke-width="__RESOLUTION__" d="M0 43q3.9-14.2.4-30.8 20-6 25.4-12.2" vector-effect="non-scaling-stroke"/><path fill="#c1272e" d="M7.2 29.9q1.5 0 2.6 1t1 2.5-1 2.4-2.7 1-2.5-1q-1.1-1-1.1-2.4 0-1.5 1-2.5 1.2-1 2.7-1"/><path fill="#bec5cc" fill-opacity=".5" d="m3.8 31.2.7-.4q.5 0 .8.3.2.3.2.8t-.2.9-.8.4-.7-.4-.3-.8z"/><path fill="#c1272e" d="M18.2 20.2q0 1.5-1.1 2.5t-2.6 1-2.6-1q-1-1-1-2.5 0-1.4 1-2.4 1.1-1 2.6-1t2.6 1 1.1 2.4"/><path fill="#bec5cc" fill-opacity=".5" d="m11.2 20 .7-.3.7.3.3.7-.3.7q-.3.3-.7.3-.5 0-.8-.3l-.2-.7z"/></g><g id="e"><path fill="url(#y)" d="M12.5-36q3.2 16.2.2 29.5-6.6 6-26 13.5 3.9-14.2.5-30.8 20-6 25.3-12.2" transform="translate(13.25 36.05)"/><path fill="none" stroke="#c4272d" stroke-linecap="round" stroke-linejoin="round" stroke-width="__RESOLUTION__" d="M25.8 0q3.1 16.3.1 29.6Q19.5 35.5 0 43" vector-effect="non-scaling-stroke"/><path fill="none" stroke="#c48389" stroke-linecap="round" stroke-linejoin="round" stroke-width="__RESOLUTION__" d="M0 43q3.9-14.2.4-30.8 20-6 25.4-12.2" vector-effect="non-scaling-stroke"/><path fill="#c4272d" d="M7.2 29.9q1.5 0 2.6 1t1 2.5-1 2.4-2.7 1-2.5-1q-1.1-1-1.1-2.4 0-1.5 1-2.5 1.2-1 2.7-1"/><path fill="#c1c8ce" fill-opacity=".5" d="m3.8 31.2.7-.4q.5 0 .8.3.2.3.2.8t-.2.9-.8.4-.7-.4-.3-.8z"/><path fill="#c4272d" d="M18.2 20.2q0 1.5-1.1 2.5t-2.6 1-2.6-1q-1-1-1-2.5 0-1.4 1-2.4 1.1-1 2.6-1t2.6 1 1.1 2.4"/><path fill="#c1c8ce" fill-opacity=".5" d="m11.2 20 .7-.3.7.3.3.7-.3.7q-.3.3-.7.3-.5 0-.8-.3l-.2-.7z"/></g><g id="f"><path fill="url(#z)" d="M12.5-36q3.2 16.2.2 29.5-6.6 6-26 13.5 3.9-14.2.5-30.8 20-6 25.3-12.2" transform="translate(13.25 36.05)"/><path fill="none" stroke="#c5262c" stroke-linecap="round" stroke-linejoin="round" stroke-width="__RESOLUTION__" d="M25.8 0q3.1 16.3.1 29.6Q19.5 35.5 0 43" vector-effect="non-scaling-stroke"/><path fill="none" stroke="#c58389" stroke-linecap="round" stroke-linejoin="round" stroke-width="__RESOLUTION__" d="M0 43q3.9-14.2.4-30.8 20-6 25.4-12.2" vector-effect="non-scaling-stroke"/><path fill="#c5262c" d="M7.2 29.9q1.5 0 2.6 1t1 2.5-1 2.4-2.7 1-2.5-1q-1.1-1-1.1-2.4 0-1.5 1-2.5 1.2-1 2.7-1"/><path fill="#c2c9cf" fill-opacity=".5" d="m3.8 31.2.7-.4q.5 0 .8.3.2.3.2.8t-.2.9-.8.4-.7-.4-.3-.8z"/><path fill="#c5262c" d="M18.2 20.2q0 1.5-1.1 2.5t-2.6 1-2.6-1q-1-1-1-2.5 0-1.4 1-2.4 1.1-1 2.6-1t2.6 1 1.1 2.4"/><path fill="#c2c9cf" fill-opacity=".5" d="m11.2 20 .7-.3.7.3.3.7-.3.7q-.3.3-.7.3-.5 0-.8-.3l-.2-.7z"/></g><g id="g"><path fill="url(#A)" d="M12.5-36q3.2 16.2.2 29.5-6.6 6-26 13.5 3.9-14.2.5-30.8 20-6 25.3-12.2" transform="translate(13.25 36.05)"/><path fill="none" stroke="#c8262c" stroke-linecap="round" stroke-linejoin="round" stroke-width="__RESOLUTION__" d="M25.8 0q3.1 16.3.1 29.6Q19.5 35.5 0 43" vector-effect="non-scaling-stroke"/><path fill="none" stroke="#c8848a" stroke-linecap="round" stroke-linejoin="round" stroke-width="__RESOLUTION__" d="M0 43q3.9-14.2.4-30.8 20-6 25.4-12.2" vector-effect="non-scaling-stroke"/><path fill="#c8262c" d="M7.2 29.9q1.5 0 2.6 1t1 2.5-1 2.4-2.7 1-2.5-1q-1.1-1-1.1-2.4 0-1.5 1-2.5 1.2-1 2.7-1"/><path fill="#c5cbd1" fill-opacity=".5" d="m3.8 31.2.7-.4q.5 0 .8.3.2.3.2.8t-.2.9-.8.4-.7-.4-.3-.8z"/><path fill="#c8262c" d="M18.2 20.2q0 1.5-1.1 2.5t-2.6 1-2.6-1q-1-1-1-2.5 0-1.4 1-2.4 1.1-1 2.6-1t2.6 1 1.1 2.4"/><path fill="#c5cbd1" fill-opacity=".5" d="m11.2 20 .7-.3.7.3.3.7-.3.7q-.3.3-.7.3-.5 0-.8-.3l-.2-.7z"/></g><g id="h"><path fill="url(#B)" d="M12.5-36q3.2 16.2.2 29.5-6.6 6-26 13.5 3.9-14.2.5-30.8 20-6 25.3-12.2" transform="translate(13.25 36.05)"/><path fill="none" stroke="#ca262c" stroke-linecap="round" stroke-linejoin="round" stroke-width="__RESOLUTION__" d="M25.8 0q3.1 16.3.1 29.6Q19.5 35.5 0 43" vector-effect="non-scaling-stroke"/><path fill="none" stroke="#ca868c" stroke-linecap="round" stroke-linejoin="round" stroke-width="__RESOLUTION__" d="M0 43q3.9-14.2.4-30.8 20-6 25.4-12.2" vector-effect="non-scaling-stroke"/><path fill="#ca262c" d="M7.2 29.9q1.5 0 2.6 1t1 2.5-1 2.4-2.7 1-2.5-1q-1.1-1-1.1-2.4 0-1.5 1-2.5 1.2-1 2.7-1"/><path fill="#c7ced4" fill-opacity=".5" d="m3.8 31.2.7-.4q.5 0 .8.3.2.3.2.8t-.2.9-.8.4-.7-.4-.3-.8z"/><path fill="#ca262c" d="M18.2 20.2q0 1.5-1.1 2.5t-2.6 1-2.6-1q-1-1-1-2.5 0-1.4 1-2.4 1.1-1 2.6-1t2.6 1 1.1 2.4"/><path fill="#c7ced4" fill-opacity=".5" d="m11.2 20 .7-.3.7.3.3.7-.3.7q-.3.3-.7.3-.5 0-.8-.3l-.2-.7z"/></g><g id="i"><path fill="url(#C)" d="M12.5-36q3.2 16.2.2 29.5-6.6 6-26 13.5 3.9-14.2.5-30.8 20-6 25.3-12.2" transform="translate(13.25 36.05)"/><path fill="none" stroke="#cd252b" stroke-linecap="round" stroke-linejoin="round" stroke-width="__RESOLUTION__" d="M25.8 0q3.1 16.3.1 29.6Q19.5 35.5 0 43" vector-effect="non-scaling-stroke"/><path fill="none" stroke="#cd868c" stroke-linecap="round" stroke-linejoin="round" stroke-width="__RESOLUTION__" d="M0 43q3.9-14.2.4-30.8 20-6 25.4-12.2" vector-effect="non-scaling-stroke"/><path fill="#cd252b" d="M7.2 29.9q1.5 0 2.6 1t1 2.5-1 2.4-2.7 1-2.5-1q-1.1-1-1.1-2.4 0-1.5 1-2.5 1.2-1 2.7-1"/><path fill="#cad0d6" fill-opacity=".5" d="m3.8 31.2.7-.4q.5 0 .8.3.2.3.2.8t-.2.9-.8.4-.7-.4-.3-.8z"/><path fill="#cd252b" d="M18.2 20.2q0 1.5-1.1 2.5t-2.6 1-2.6-1q-1-1-1-2.5 0-1.4 1-2.4 1.1-1 2.6-1t2.6 1 1.1 2.4"/><path fill="#cad0d6" fill-opacity=".5" d="m11.2 20 .7-.3.7.3.3.7-.3.7q-.3.3-.7.3-.5 0-.8-.3l-.2-.7z"/></g><g id="j"><path fill="url(#D)" d="M12.5-36q3.2 16.2.2 29.5-6.6 6-26 13.5 3.9-14.2.5-30.8 20-6 25.3-12.2" transform="translate(13.25 36.05)"/><path fill="none" stroke="#ce242a" stroke-linecap="round" stroke-linejoin="round" stroke-width="__RESOLUTION__" d="M25.8 0q3.1 16.3.1 29.6Q19.5 35.5 0 43" vector-effect="non-scaling-stroke"/><path fill="none" stroke="#ce878d" stroke-linecap="round" stroke-linejoin="round" stroke-width="__RESOLUTION__" d="M0 43q3.9-14.2.4-30.8 20-6 25.4-12.2" vector-effect="non-scaling-stroke"/><path fill="#ce242a" d="M7.2 29.9q1.5 0 2.6 1t1 2.5-1 2.4-2.7 1-2.5-1q-1.1-1-1.1-2.4 0-1.5 1-2.5 1.2-1 2.7-1"/><path fill="#cbd1d7" fill-opacity=".5" d="m3.8 31.2.7-.4q.5 0 .8.3.2.3.2.8t-.2.9-.8.4-.7-.4-.3-.8z"/><path fill="#ce242a" d="M18.2 20.2q0 1.5-1.1 2.5t-2.6 1-2.6-1q-1-1-1-2.5 0-1.4 1-2.4 1.1-1 2.6-1t2.6 1 1.1 2.4"/><path fill="#cbd1d7" fill-opacity=".5" d="m11.2 20 .7-.3.7.3.3.7-.3.7q-.3.3-.7.3-.5 0-.8-.3l-.2-.7z"/></g><g id="k"><path fill="url(#E)" d="M12.5-36q3.2 16.2.2 29.5-6.6 6-26 13.5 3.9-14.2.5-30.8 20-6 25.3-12.2" transform="translate(13.25 36.05)"/><path fill="none" stroke="#d1252a" stroke-linecap="round" stroke-linejoin="round" stroke-width="__RESOLUTION__" d="M25.8 0q3.1 16.3.1 29.6Q19.5 35.5 0 43" vector-effect="non-scaling-stroke"/><path fill="none" stroke="#d1898e" stroke-linecap="round" stroke-linejoin="round" stroke-width="__RESOLUTION__" d="M0 43q3.9-14.2.4-30.8 20-6 25.4-12.2" vector-effect="non-scaling-stroke"/><path fill="#d1252a" d="M7.2 29.9q1.5 0 2.6 1t1 2.5-1 2.4-2.7 1-2.5-1q-1.1-1-1.1-2.4 0-1.5 1-2.5 1.2-1 2.7-1"/><path fill="#ced4d9" fill-opacity=".5" d="m3.8 31.2.7-.4q.5 0 .8.3.2.3.2.8t-.2.9-.8.4-.7-.4-.3-.8z"/><path fill="#d1252a" d="M18.2 20.2q0 1.5-1.1 2.5t-2.6 1-2.6-1q-1-1-1-2.5 0-1.4 1-2.4 1.1-1 2.6-1t2.6 1 1.1 2.4"/><path fill="#ced4d9" fill-opacity=".5" d="m11.2 20 .7-.3.7.3.3.7-.3.7q-.3.3-.7.3-.5 0-.8-.3l-.2-.7z"/></g><g id="l"><path fill="url(#F)" d="M-37-6.8q9.6-8 26-12.6Q7.2-14.7 14.6-6.8q-4.3 6-25.2 12.2Q-25.1-.6-37-6.8" transform="translate(37.05 19.45)"/><path fill="none" stroke="#fe1f1f" stroke-linecap="round" stroke-linejoin="round" stroke-width="__RESOLUTION__" d="M51.6 12.7Q44.2 4.8 26 0 9.6 4.7 0 12.7" vector-effect="non-scaling-stroke"/><path fill="#fe1f1f" d="M19.1 6.5Q19 5 19.9 4t2.2-1.1q1.2-.1 2.3.7t1.2 2.2q.2 1.3-.7 2.4t-2.2 1.2-2.4-.7T19 6.5"/><path fill="#fafefe" fill-opacity=".5" d="m21.3 2.8.8.2q.3.3.3.7.1.4-.2.7l-.6.4-.9-.2-.3-.7.3-.7z"/><path fill="#fe1f1f" d="M21.2 16q-1.6 1.9-4 2.2-2.5.3-4.4-1.3t-2.2-4q-.2-2.6 1.4-4.5t4-2.1 4.4 1.2q1.9 1.7 2.2 4.1.1 2.4-1.4 4.3"/><path fill="#fafefe" fill-opacity=".5" d="M14.7 6.2q.8-.1 1.3.4.7.5.7 1.3.1.6-.4 1.3-.4.5-1.2.7-.7 0-1.4-.5-.5-.5-.6-1.2-.1-.8.4-1.4t1.2-.6m20.5 6.7.4.3.2.6v.3l-.2.3-.6.2q-.4 0-.6-.3l-.2-.6.2-.5z"/><path fill="#bcf1f1" fill-opacity=".5" d="m35.3 13-.1-.1v-.1z"/><path fill="#fe1f1f" d="m35.2 12.9-.7.3-.2.5.2.6q.3.3.6.3l.6-.2.2-.3v.6q0 1.2-.8 1.9-.8.8-1.9.8-1.1-.1-1.9-.9t-.7-2q0-1 .8-1.8t2-.7q1 0 1.8.8z"/></g><g id="m"><path fill="url(#G)" d="M-37-6.8q9.6-8 26-12.6Q7.2-14.7 14.6-6.8q-4.3 6-25.2 12.2Q-25.1-.6-37-6.8" transform="translate(37.05 19.45)"/><path fill="none" stroke="#f32021" stroke-linecap="round" stroke-linejoin="round" stroke-width="__RESOLUTION__" d="M51.6 12.7Q44.2 4.8 26 0 9.6 4.7 0 12.7" vector-effect="non-scaling-stroke"/><path fill="#f32021" d="M19.1 6.5Q19 5 19.9 4t2.2-1.1q1.2-.1 2.3.7t1.2 2.2q.2 1.3-.7 2.4t-2.2 1.2-2.4-.7T19 6.5"/><path fill="#eff4f5" fill-opacity=".5" d="m21.3 2.8.8.2q.3.3.3.7.1.4-.2.7l-.6.4-.9-.2-.3-.7.3-.7z"/><path fill="#f32021" d="M21.2 16q-1.6 1.9-4 2.2-2.5.3-4.4-1.3t-2.2-4q-.2-2.6 1.4-4.5t4-2.1 4.4 1.2q1.9 1.7 2.2 4.1.1 2.4-1.4 4.3"/><path fill="#eff4f5" fill-opacity=".5" d="M14.7 6.2q.8-.1 1.3.4.7.5.7 1.3.1.6-.4 1.3-.4.5-1.2.7-.7 0-1.4-.5-.5-.5-.6-1.2-.1-.8.4-1.4t1.2-.6m20.5 6.7.4.3.2.6v.3l-.2.3-.6.2q-.4 0-.6-.3l-.2-.6.2-.5z"/><path fill="#b4e7e8" fill-opacity=".5" d="m35.3 13-.1-.1v-.1z"/><path fill="#f32021" d="m35.2 12.9-.7.3-.2.5.2.6q.3.3.6.3l.6-.2.2-.3v.6q0 1.2-.8 1.9-.8.8-1.9.8-1.1-.1-1.9-.9t-.7-2q0-1 .8-1.8t2-.7q1 0 1.8.8z"/></g><g id="n"><path fill="url(#H)" d="M-37-6.8q9.6-8 26-12.6Q7.2-14.7 14.6-6.8q-4.3 6-25.2 12.2Q-25.1-.6-37-6.8" transform="translate(37.05 19.45)"/><path fill="none" stroke="#e92123" stroke-linecap="round" stroke-linejoin="round" stroke-width="__RESOLUTION__" d="M51.6 12.7Q44.2 4.8 26 0 9.6 4.7 0 12.7" vector-effect="non-scaling-stroke"/><path fill="#e92123" d="M19.1 6.5Q19 5 19.9 4t2.2-1.1q1.2-.1 2.3.7t1.2 2.2q.2 1.3-.7 2.4t-2.2 1.2-2.4-.7T19 6.5"/><path fill="#e5eaec" fill-opacity=".5" d="m21.3 2.8.8.2q.3.3.3.7.1.4-.2.7l-.6.4-.9-.2-.3-.7.3-.7z"/><path fill="#e92123" d="M21.2 16q-1.6 1.9-4 2.2-2.5.3-4.4-1.3t-2.2-4q-.2-2.6 1.4-4.5t4-2.1 4.4 1.2q1.9 1.7 2.2 4.1.1 2.4-1.4 4.3"/><path fill="#e5eaec" fill-opacity=".5" d="M14.7 6.2q.8-.1 1.3.4.7.5.7 1.3.1.6-.4 1.3-.4.5-1.2.7-.7 0-1.4-.5-.5-.5-.6-1.2-.1-.8.4-1.4t1.2-.6m20.5 6.7.4.3.2.6v.3l-.2.3-.6.2q-.4 0-.6-.3l-.2-.6.2-.5z"/><path fill="#addee0" fill-opacity=".5" d="m35.3 13-.1-.1v-.1z"/><path fill="#e92123" d="m35.2 12.9-.7.3-.2.5.2.6q.3.3.6.3l.6-.2.2-.3v.6q0 1.2-.8 1.9-.8.8-1.9.8-1.1-.1-1.9-.9t-.7-2q0-1 .8-1.8t2-.7q1 0 1.8.8z"/></g><g id="o"><path fill="url(#I)" d="M-37-6.8q9.6-8 26-12.6Q7.2-14.7 14.6-6.8q-4.3 6-25.2 12.2Q-25.1-.6-37-6.8" transform="translate(37.05 19.45)"/><path fill="none" stroke="#df2327" stroke-linecap="round" stroke-linejoin="round" stroke-width="__RESOLUTION__" d="M51.6 12.7Q44.2 4.8 26 0 9.6 4.7 0 12.7" vector-effect="non-scaling-stroke"/><path fill="#df2327" d="M19.1 6.5Q19 5 19.9 4t2.2-1.1q1.2-.1 2.3.7t1.2 2.2q.2 1.3-.7 2.4t-2.2 1.2-2.4-.7T19 6.5"/><path fill="#dbe1e5" fill-opacity=".5" d="m21.3 2.8.8.2q.3.3.3.7.1.4-.2.7l-.6.4-.9-.2-.3-.7.3-.7z"/><path fill="#df2327" d="M21.2 16q-1.6 1.9-4 2.2-2.5.3-4.4-1.3t-2.2-4q-.2-2.6 1.4-4.5t4-2.1 4.4 1.2q1.9 1.7 2.2 4.1.1 2.4-1.4 4.3"/><path fill="#dbe1e5" fill-opacity=".5" d="M14.7 6.2q.8-.1 1.3.4.7.5.7 1.3.1.6-.4 1.3-.4.5-1.2.7-.7 0-1.4-.5-.5-.5-.6-1.2-.1-.8.4-1.4t1.2-.6m20.5 6.7.4.3.2.6v.3l-.2.3-.6.2q-.4 0-.6-.3l-.2-.6.2-.5z"/><path fill="#a7d6da" fill-opacity=".5" d="m35.3 13-.1-.1v-.1z"/><path fill="#df2327" d="m35.2 12.9-.7.3-.2.5.2.6q.3.3.6.3l.6-.2.2-.3v.6q0 1.2-.8 1.9-.8.8-1.9.8-1.1-.1-1.9-.9t-.7-2q0-1 .8-1.8t2-.7q1 0 1.8.8z"/></g><g id="p"><path fill="url(#J)" d="M-37-6.8q9.6-8 26-12.6Q7.2-14.7 14.6-6.8q-4.3 6-25.2 12.2Q-25.1-.6-37-6.8" transform="translate(37.05 19.45)"/><path fill="none" stroke="#d42429" stroke-linecap="round" stroke-linejoin="round" stroke-width="__RESOLUTION__" d="M51.6 12.7Q44.2 4.8 26 0 9.6 4.7 0 12.7" vector-effect="non-scaling-stroke"/><path fill="#d42429" d="M19.1 6.5Q19 5 19.9 4t2.2-1.1q1.2-.1 2.3.7t1.2 2.2q.2 1.3-.7 2.4t-2.2 1.2-2.4-.7T19 6.5"/><path fill="#d1d7dc" fill-opacity=".5" d="m21.3 2.8.8.2q.3.3.3.7.1.4-.2.7l-.6.4-.9-.2-.3-.7.3-.7z"/><path fill="#d42429" d="M21.2 16q-1.6 1.9-4 2.2-2.5.3-4.4-1.3t-2.2-4q-.2-2.6 1.4-4.5t4-2.1 4.4 1.2q1.9 1.7 2.2 4.1.1 2.4-1.4 4.3"/><path fill="#d1d7dc" fill-opacity=".5" d="M14.7 6.2q.8-.1 1.3.4.7.5.7 1.3.1.6-.4 1.3-.4.5-1.2.7-.7 0-1.4-.5-.5-.5-.6-1.2-.1-.8.4-1.4t1.2-.6m20.5 6.7.4.3.2.6v.3l-.2.3-.6.2q-.4 0-.6-.3l-.2-.6.2-.5z"/><path fill="#9fccd1" fill-opacity=".5" d="m35.3 13-.1-.1v-.1z"/><path fill="#d42429" d="m35.2 12.9-.7.3-.2.5.2.6q.3.3.6.3l.6-.2.2-.3v.6q0 1.2-.8 1.9-.8.8-1.9.8-1.1-.1-1.9-.9t-.7-2q0-1 .8-1.8t2-.7q1 0 1.8.8z"/></g><g id="q"><path fill="url(#K)" d="M-37-6.8q9.6-8 26-12.6Q7.2-14.7 14.6-6.8q-4.3 6-25.2 12.2Q-25.1-.6-37-6.8" transform="translate(37.05 19.45)"/><path fill="none" stroke="#ca262c" stroke-linecap="round" stroke-linejoin="round" stroke-width="__RESOLUTION__" d="M51.6 12.7Q44.2 4.8 26 0 9.6 4.7 0 12.7" vector-effect="non-scaling-stroke"/><path fill="#ca262c" d="M19.1 6.5Q19 5 19.9 4t2.2-1.1q1.2-.1 2.3.7t1.2 2.2q.2 1.3-.7 2.4t-2.2 1.2-2.4-.7T19 6.5"/><path fill="#c7cdd3" fill-opacity=".5" d="m21.3 2.8.8.2q.3.3.3.7.1.4-.2.7l-.6.4-.9-.2-.3-.7.3-.7z"/><path fill="#ca262c" d="M21.2 16q-1.6 1.9-4 2.2-2.5.3-4.4-1.3t-2.2-4q-.2-2.6 1.4-4.5t4-2.1 4.4 1.2q1.9 1.7 2.2 4.1.1 2.4-1.4 4.3"/><path fill="#c7cdd3" fill-opacity=".5" d="M14.7 6.2q.8-.1 1.3.4.7.5.7 1.3.1.6-.4 1.3-.4.5-1.2.7-.7 0-1.4-.5-.5-.5-.6-1.2-.1-.8.4-1.4t1.2-.6m20.5 6.7.4.3.2.6v.3l-.2.3-.6.2q-.4 0-.6-.3l-.2-.6.2-.5z"/><path fill="#99c3c9" fill-opacity=".5" d="m35.3 13-.1-.1v-.1z"/><path fill="#ca262c" d="m35.2 12.9-.7.3-.2.5.2.6q.3.3.6.3l.6-.2.2-.3v.6q0 1.2-.8 1.9-.8.8-1.9.8-1.1-.1-1.9-.9t-.7-2q0-1 .8-1.8t2-.7q1 0 1.8.8z"/></g><g id="r"><path fill="url(#L)" d="M14.6 7.1q-12.6-5-26-13-4.3-15.2 0-29.8Q-.4-30 15-23.5q3.8 17.3-.4 30.6" transform="translate(13.55 35.7)"/><path fill="none" stroke="#fe1f1f" stroke-linecap="round" stroke-linejoin="round" stroke-width="__RESOLUTION__" d="M28.2 42.8q-12.6-5-26-13-4.4-15.3 0-29.8" vector-effect="non-scaling-stroke"/><path fill="#fe1f1f" d="M5 22.7q-1.2 0-2-.8t-.8-2.1q-.1-1.2.8-2t2-.9 2 .9q.9.8.9 2t-.9 2-2 .9m1.5 4q-.7 0-1.2-.5t-.4-1.1.4-1.1l1.2-.5q.6 0 1 .5t.5 1.1-.4 1.1-1.1.5m13.7-4q-2.4 0-4-1.6t-1.6-4 1.6-4q1.7-1.5 4-1.5t3.9 1.6 1.6 4-1.6 3.9-4 1.6M27.4 35l1.1.4q.5.5.5 1.1t-.4 1.1q-.6.5-1.2.5t-1.1-.5-.4-1.1.4-1.1 1.2-.4"/></g><g id="s"><path fill="url(#M)" d="M-37-6.8q9.6-8 26-12.6Q7.2-14.7 14.6-6.8q-4.3 6-25.2 12.2Q-25.1-.6-37-6.8" transform="translate(37.05 19.45)"/><path fill="none" stroke="#ff8f8f" stroke-linecap="round" stroke-linejoin="round" stroke-width="__RESOLUTION__" d="M51.6 12.7Q44.2 4.8 26 0 9.6 4.7 0 12.7" vector-effect="non-scaling-stroke"/><path fill="#ff8f8f" d="M19.1 6.5Q19 5 19.9 4t2.2-1.1q1.2-.1 2.3.7t1.2 2.2q.2 1.3-.7 2.4t-2.2 1.2-2.4-.7T19 6.5"/><path fill="#fdffff" fill-opacity=".5" d="m21.3 2.8.8.2q.3.3.3.7.1.4-.2.7l-.6.4-.9-.2-.3-.7.3-.7z"/><path fill="#ff8f8f" d="M21.2 16q-1.6 1.9-4 2.2-2.5.3-4.4-1.3t-2.2-4q-.2-2.6 1.4-4.5t4-2.1 4.4 1.2q1.9 1.7 2.2 4.1.1 2.4-1.4 4.3"/><path fill="#fdffff" fill-opacity=".5" d="M14.7 6.2q.8-.1 1.3.4.7.5.7 1.3.1.6-.4 1.3-.4.5-1.2.7-.7 0-1.4-.5-.5-.5-.6-1.2-.1-.8.4-1.4t1.2-.6m20.5 6.7.4.3.2.6v.3l-.2.3-.6.2q-.4 0-.6-.3l-.2-.6.2-.5z"/><path fill="#def8f8" fill-opacity=".5" d="m35.3 13-.1-.1v-.1z"/><path fill="#ff8f8f" d="m35.2 12.9-.7.3-.2.5.2.6q.3.3.6.3l.6-.2.2-.3v.6q0 1.2-.8 1.9-.8.8-1.9.8-1.1-.1-1.9-.9t-.7-2q0-1 .8-1.8t2-.7q1 0 1.8.8z"/></g><g id="t"><path fill="url(#N)" d="M12.5-36q3.2 16.2.2 29.5-6.6 6-26 13.5 3.9-14.2.5-30.8 20-6 25.3-12.2" transform="translate(13.25 36.05)"/><path fill="none" stroke="#d32429" stroke-linecap="round" stroke-linejoin="round" stroke-width="__RESOLUTION__" d="M25.8 0q3.1 16.3.1 29.6Q19.5 35.5 0 43" vector-effect="non-scaling-stroke"/><path fill="none" stroke="#d3898e" stroke-linecap="round" stroke-linejoin="round" stroke-width="__RESOLUTION__" d="M0 43q3.9-14.2.4-30.8 20-6 25.4-12.2" vector-effect="non-scaling-stroke"/><path fill="#d32429" d="M7.2 29.9q1.5 0 2.6 1t1 2.5-1 2.4-2.7 1-2.5-1q-1.1-1-1.1-2.4 0-1.5 1-2.5 1.2-1 2.7-1"/><path fill="#d0d6db" fill-opacity=".5" d="m3.8 31.2.7-.4q.5 0 .8.3.2.3.2.8t-.2.9-.8.4-.7-.4-.3-.8z"/><path fill="#d32429" d="M18.2 20.2q0 1.5-1.1 2.5t-2.6 1-2.6-1q-1-1-1-2.5 0-1.4 1-2.4 1.1-1 2.6-1t2.6 1 1.1 2.4"/><path fill="#d0d6db" fill-opacity=".5" d="m11.2 20 .7-.3.7.3.3.7-.3.7q-.3.3-.7.3-.5 0-.8-.3l-.2-.7z"/></g><g id="u"><path fill="#d1d1d1" d="M6.8 15.9q-1.7.4-4.5-2.3Q0 11.2 0 8q0-3.3 2.3-5.6T7.6 0q5.1 3.5 4.9 8.3-.3 3.8-1.1 4.9-1.2 1.6-4.6 2.6"/><path fill="#fff" d="M7.6 0H8q3.2 0 5.6 2.4 2.3 2.3 2.3 5.6t-2.3 5.6Q11.3 16 8 16H6.8q3.4-1 4.6-2.7.9-1 1-4.8.3-4.8-4.8-8.4"/><path fill="none" stroke="#6c6c6c" stroke-linecap="round" stroke-linejoin="round" stroke-width="__RESOLUTION__" d="M6.8 15.9q-1.7.4-4.5-2.3Q0 11.2 0 8q0-3.3 2.3-5.6T7.6 0H8q3.2 0 5.6 2.4 2.3 2.3 2.3 5.6t-2.3 5.6Q11.3 16 8 16z" vector-effect="non-scaling-stroke"/><path fill="#000" d="M14.2 6.5q.1-.4.5-.5h.7l.7.7v.8q0 .5-.4.6L15 8q-.3-.2-.5-.7t-.2-.8"/></g><g id="v"><path fill="url(#O)" d="M-37-6.8q9.6-8 26-12.6Q7.2-14.7 14.6-6.8q-4.3 6-25.2 12.2Q-25.1-.6-37-6.8" transform="translate(37.05 19.45)"/><path fill="none" stroke="#bf272e" stroke-linecap="round" stroke-linejoin="round" stroke-width="__RESOLUTION__" d="M51.6 12.7Q44.2 4.8 26 0 9.6 4.7 0 12.7" vector-effect="non-scaling-stroke"/><path fill="#bf272e" d="M19.1 6.5Q19 5 19.9 4t2.2-1.1q1.2-.1 2.3.7t1.2 2.2q.2 1.3-.7 2.4t-2.2 1.2-2.4-.7T19 6.5"/><path fill="#bcc3ca" fill-opacity=".5" d="m21.3 2.8.8.2q.3.3.3.7.1.4-.2.7l-.6.4-.9-.2-.3-.7.3-.7z"/><path fill="#bf272e" d="M21.2 16q-1.6 1.9-4 2.2-2.5.3-4.4-1.3t-2.2-4q-.2-2.6 1.4-4.5t4-2.1 4.4 1.2q1.9 1.7 2.2 4.1.1 2.4-1.4 4.3"/><path fill="#bcc3ca" fill-opacity=".5" d="M14.7 6.2q.8-.1 1.3.4.7.5.7 1.3.1.6-.4 1.3-.4.5-1.2.7-.7 0-1.4-.5-.5-.5-.6-1.2-.1-.8.4-1.4t1.2-.6m20.5 6.7.4.3.2.6v.3l-.2.3-.6.2q-.4 0-.6-.3l-.2-.6.2-.5z"/><path fill="#91bac1" fill-opacity=".5" d="m35.3 13-.1-.1v-.1z"/><path fill="#bf272e" d="m35.2 12.9-.7.3-.2.5.2.6q.3.3.6.3l.6-.2.2-.3v.6q0 1.2-.8 1.9-.8.8-1.9.8-1.1-.1-1.9-.9t-.7-2q0-1 .8-1.8t2-.7q1 0 1.8.8z"/></g><clipPath id="P"><path d="M1 1h116v107H1z"/></clipPath><clipPath id="W"><path d="M118 1h116v107H118z"/></clipPath><clipPath id="Z"><path d="M235 1h116v107H235z"/></clipPath><clipPath id="ac"><path d="M352 1h116v107H352z"/></clipPath><clipPath id="af"><path d="M469 1h116v107H469z"/></clipPath><clipPath id="ai"><path d="M586 1h116v107H586z"/></clipPath><clipPath id="al"><path d="M703 1h116v107H703z"/></clipPath><clipPath id="ao"><path d="M820 1h116v107H820z"/></clipPath><clipPath id="ar"><path d="M937 1h116v107H937z"/></clipPath><clipPath id="au"><path d="M1054 1h116v107h-116z"/></clipPath><clipPath id="aw"><path d="M1171 1h116v107h-116z"/></clipPath><clipPath id="ay"><path d="M1288 1h116v107h-116z"/></clipPath><clipPath id="aT"><path d="M1405 1h116v107h-116z"/></clipPath><clipPath id="aV"><path d="M1522 1h116v107h-116z"/></clipPath><clipPath id="aX"><path d="M1639 1h116v107h-116z"/></clipPath><clipPath id="aZ"><path d="M1756 1h116v107h-116z"/></clipPath><clipPath id="bb"><path d="M1873 1h116v107h-116z"/></clipPath><clipPath id="bc"><path d="M1990 1h116v107h-116z"/></clipPath><clipPath id="bd"><path d="M2107 1h116v107h-116z"/></clipPath><clipPath id="be"><path d="M2224 1h116v107h-116z"/></clipPath><linearGradient id="w" x1="-819.2" x2="819.2" gradientTransform="matrix(-.0125 .0238 -.0166 -.0087 -.85 -13.55)" gradientUnits="userSpaceOnUse" spreadMethod="pad"><stop offset="0" stop-color="#bb4e55" stop-opacity="1"/><stop offset=".1" stop-color="#bc6168" stop-opacity="1"/><stop offset="1" stop-color="#bc8c94" stop-opacity="0"/></linearGradient><linearGradient id="x" x1="-819.2" x2="819.2" gradientTransform="matrix(-.0125 .0238 -.0166 -.0087 -.85 -13.55)" gradientUnits="userSpaceOnUse" spreadMethod="pad"><stop offset="0" stop-color="#bd4e55" stop-opacity="1"/><stop offset=".1" stop-color="#be6269" stop-opacity="1"/><stop offset="1" stop-color="#be8d95" stop-opacity="0"/></linearGradient><linearGradient id="y" x1="-819.2" x2="819.2" gradientTransform="matrix(-.0125 .0238 -.0166 -.0087 -.85 -13.55)" gradientUnits="userSpaceOnUse" spreadMethod="pad"><stop offset="0" stop-color="#c04f55" stop-opacity="1"/><stop offset=".1" stop-color="#c16369" stop-opacity="1"/><stop offset="1" stop-color="#c18f96" stop-opacity="0"/></linearGradient><linearGradient id="z" x1="-819.2" x2="819.2" gradientTransform="matrix(-.0125 .0238 -.0166 -.0087 -.85 -13.55)" gradientUnits="userSpaceOnUse" spreadMethod="pad"><stop offset="0" stop-color="#c14e54" stop-opacity="1"/><stop offset=".1" stop-color="#c26369" stop-opacity="1"/><stop offset="1" stop-color="#c28f96" stop-opacity="0"/></linearGradient><linearGradient id="A" x1="-819.2" x2="819.2" gradientTransform="matrix(-.0125 .0238 -.0166 -.0087 -.85 -13.55)" gradientUnits="userSpaceOnUse" spreadMethod="pad"><stop offset="0" stop-color="#c44e54" stop-opacity="1"/><stop offset=".1" stop-color="#c56369" stop-opacity="1"/><stop offset="1" stop-color="#c59097" stop-opacity="0"/></linearGradient><linearGradient id="B" x1="-819.2" x2="819.2" gradientTransform="matrix(-.0125 .0238 -.0166 -.0087 -.85 -13.55)" gradientUnits="userSpaceOnUse" spreadMethod="pad"><stop offset="0" stop-color="#c54f55" stop-opacity="1"/><stop offset=".1" stop-color="#c7646a" stop-opacity="1"/><stop offset="1" stop-color="#c79299" stop-opacity="0"/></linearGradient><linearGradient id="C" x1="-819.2" x2="819.2" gradientTransform="matrix(-.0125 .0238 -.0166 -.0087 -.85 -13.55)" gradientUnits="userSpaceOnUse" spreadMethod="pad"><stop offset="0" stop-color="#c84f55" stop-opacity="1"/><stop offset=".1" stop-color="#ca656b" stop-opacity="1"/><stop offset="1" stop-color="#ca939a" stop-opacity="0"/></linearGradient><linearGradient id="D" x1="-819.2" x2="819.2" gradientTransform="matrix(-.0125 .0238 -.0166 -.0087 -.85 -13.55)" gradientUnits="userSpaceOnUse" spreadMethod="pad"><stop offset="0" stop-color="#c94f55" stop-opacity="1"/><stop offset=".1" stop-color="#cb656b" stop-opacity="1"/><stop offset="1" stop-color="#cb949b" stop-opacity="0"/></linearGradient><linearGradient id="E" x1="-819.2" x2="819.2" gradientTransform="matrix(-.0125 .0238 -.0166 -.0087 -.85 -13.55)" gradientUnits="userSpaceOnUse" spreadMethod="pad"><stop offset="0" stop-color="#cc5055" stop-opacity="1"/><stop offset=".1" stop-color="#ce666b" stop-opacity="1"/><stop offset="1" stop-color="#ce969c" stop-opacity="0"/></linearGradient><linearGradient id="F" x1="-819.2" x2="819.2" gradientTransform="matrix(.0003 .0198 -.0315 .0004 -11.1 2.8)" gradientUnits="userSpaceOnUse" spreadMethod="pad"><stop offset="0" stop-color="#f85656" stop-opacity="1"/><stop offset=".1" stop-color="#fa7272" stop-opacity="1"/><stop offset="1" stop-color="#faafb0" stop-opacity="0"/></linearGradient><linearGradient id="G" x1="-819.2" x2="819.2" gradientTransform="matrix(.0003 .0198 -.0315 .0004 -11.1 2.8)" gradientUnits="userSpaceOnUse" spreadMethod="pad"><stop offset="0" stop-color="#ed5455" stop-opacity="1"/><stop offset=".1" stop-color="#ef6f70" stop-opacity="1"/><stop offset="1" stop-color="#efa9ab" stop-opacity="0"/></linearGradient><linearGradient id="H" x1="-819.2" x2="819.2" gradientTransform="matrix(.0003 .0198 -.0315 .0004 -11.1 2.8)" gradientUnits="userSpaceOnUse" spreadMethod="pad"><stop offset="0" stop-color="#e35355" stop-opacity="1"/><stop offset=".1" stop-color="#e56c6e" stop-opacity="1"/><stop offset="1" stop-color="#e5a3a6" stop-opacity="0"/></linearGradient><linearGradient id="I" x1="-819.2" x2="819.2" gradientTransform="matrix(.0003 .0198 -.0315 .0004 -11.1 2.8)" gradientUnits="userSpaceOnUse" spreadMethod="pad"><stop offset="0" stop-color="#da5256" stop-opacity="1"/><stop offset=".1" stop-color="#db6a6e" stop-opacity="1"/><stop offset="1" stop-color="#db9ea2" stop-opacity="0"/></linearGradient><linearGradient id="J" x1="-819.2" x2="819.2" gradientTransform="matrix(.0003 .0198 -.0315 .0004 -11.1 2.8)" gradientUnits="userSpaceOnUse" spreadMethod="pad"><stop offset="0" stop-color="#cf5055" stop-opacity="1"/><stop offset=".1" stop-color="#d1676c" stop-opacity="1"/><stop offset="1" stop-color="#d1989d" stop-opacity="0"/></linearGradient><linearGradient id="K" x1="-819.2" x2="819.2" gradientTransform="matrix(.0003 .0198 -.0315 .0004 -11.1 2.8)" gradientUnits="userSpaceOnUse" spreadMethod="pad"><stop offset="0" stop-color="#c64f55" stop-opacity="1"/><stop offset=".1" stop-color="#c7646a" stop-opacity="1"/><stop offset="1" stop-color="#c79299" stop-opacity="0"/></linearGradient><linearGradient id="L" x1="-819.2" x2="819.2" gradientTransform="matrix(.0116 -.0089 .0184 .0242 3.85 -16.05)" gradientUnits="userSpaceOnUse" spreadMethod="pad"><stop offset="0" stop-color="#f85656" stop-opacity="1"/><stop offset=".1" stop-color="#fa7272" stop-opacity="1"/><stop offset="1" stop-color="#faafb0" stop-opacity="0"/></linearGradient><linearGradient id="M" x1="-819.2" x2="819.2" gradientTransform="matrix(.0003 .0198 -.0315 .0004 -11.1 2.8)" gradientUnits="userSpaceOnUse" spreadMethod="pad"><stop offset="0" stop-color="#fcabab" stop-opacity="1"/><stop offset=".1" stop-color="#fdb9b9" stop-opacity="1"/><stop offset="1" stop-color="#fdd7d8" stop-opacity="0"/></linearGradient><linearGradient id="N" x1="-819.2" x2="819.2" gradientTransform="matrix(-.0125 .0238 -.0166 -.0087 -.85 -13.55)" gradientUnits="userSpaceOnUse" spreadMethod="pad"><stop offset="0" stop-color="#ce5055" stop-opacity="1"/><stop offset=".1" stop-color="#d0666b" stop-opacity="1"/><stop offset="1" stop-color="#d0979d" stop-opacity="0"/></linearGradient><linearGradient id="O" x1="-819.2" x2="819.2" gradientTransform="matrix(.0003 .0198 -.0315 .0004 -11.1 2.8)" gradientUnits="userSpaceOnUse" spreadMethod="pad"><stop offset="0" stop-color="#bb4e55" stop-opacity="1"/><stop offset=".1" stop-color="#bc6168" stop-opacity="1"/><stop offset="1" stop-color="#bc8c94" stop-opacity="0"/></linearGradient></defs><g clip-path="url(#P)"><g transform="translate(82.75 93.85)"><use xlink:href="#Q" width="51.6" height="24.9" transform="matrix(-1.0445 -.0054 0 -1 29.15 12.6)"/><use xlink:href="#R" width="16.2" height="15.9" transform="matrix(.8996 .074 .0812 1.0253 1.05 -34.8)"/><use xlink:href="#R" width="16.2" height="15.9" transform="matrix(.8936 .0735 .0865 1.0926 11.65 -29.1)"/><use xlink:href="#S" width="27.4" height="43" transform="matrix(-1 0 -.1467 1 5.35 -29.85)"/><use xlink:href="#T" width="51.6" height="24.9" transform="matrix(-.9958 -.0337 -.1209 .9794 32.6 -41.1)"/><use xlink:href="#U" width="30.4" height="42.8" transform="matrix(-.9954 -.0443 -.1049 1 32.7 -28.8)"/><use xlink:href="#V" width="36.4" height="34.2" transform="matrix(-1.8333 0 0 1.8333 -15.1 -92.85)"/></g></g><g clip-path="url(#W)"><g transform="translate(199.75 93.85)"><use xlink:href="#X" width="51.6" height="24.9" transform="matrix(-1.0371 -.0011 0 -1 28.65 12.4)"/><use xlink:href="#R" width="16.2" height="15.9" transform="matrix(.8586 .1716 -.1033 1.0215 0 -31.9)"/><use xlink:href="#R" width="16.2" height="15.9" transform="matrix(.902 .1432 -.0885 1.114 10.3 -26.5)"/><use xlink:href="#S" width="27.4" height="43" transform="matrix(-.994 0 -.0928 1.0023 3.6 -29.95)"/><use xlink:href="#T" width="51.6" height="24.9" transform="matrix(-1.0088 -.0221 -.1008 .9958 31.35 -41.55)"/><use xlink:href="#U" width="30.4" height="42.8" transform="matrix(-1.0177 -.0224 -.057 .9954 31.6 -29.1)"/><use xlink:href="#Y" width="36.4" height="34.2" transform="matrix(-1.8333 0 0 1.8333 -15.1 -92.85)"/></g></g><g clip-path="url(#Z)"><g transform="translate(316.75 93.85)"><use xlink:href="#aa" width="51.6" height="24.9" transform="matrix(-1.0297 -.0009 0 -1 28.2 12.4)"/><use xlink:href="#R" width="16.2" height="15.9" transform="matrix(.8071 .2631 -.2837 .9848 -1.05 -28.75)"/><use xlink:href="#R" width="16.2" height="15.9" transform="matrix(.9052 .214 -.2714 1.1059 9.05 -23.7)"/><use xlink:href="#S" width="27.4" height="43" transform="matrix(-.988 0 -.0403 1.0021 1.75 -29.9)"/><use xlink:href="#T" width="51.6" height="24.9" transform="matrix(-1.0217 -.0094 -.0805 1.0121 29.95 -42.1)"/><use xlink:href="#U" width="30.4" height="42.8" transform="matrix(-1.0398 -.0001 -.0096 .9889 30.5 -29.3)"/><use xlink:href="#ab" width="36.4" height="34.2" transform="matrix(-1.8333 0 0 1.8333 -15.1 -92.85)"/></g></g><g clip-path="url(#ac)"><g transform="translate(433.75 93.85)"><use xlink:href="#ad" width="51.6" height="24.9" transform="matrix(-1.0223 -.0007 0 -1 27.75 12.3)"/><use xlink:href="#R" width="16.2" height="15.9" transform="matrix(.7467 .3464 -.4589 .9158 -1.95 -25.2)"/><use xlink:href="#R" width="16.2" height="15.9" transform="matrix(.9026 .2893 -.4549 1.0686 7.85 -20.7)"/><use xlink:href="#S" width="27.4" height="43" transform="matrix(-.9819 0 .0053 .9992 .25 -29.75)"/><use xlink:href="#T" width="51.6" height="24.9" transform="matrix(-1.0344 .0003 -.063 1.0278 28.7 -42.4)"/><use xlink:href="#U" width="30.4" height="42.8" transform="matrix(-1.0612 .0232 .0306 .9802 29.5 -29.55)"/><use xlink:href="#ae" width="36.4" height="34.2" transform="matrix(-1.8333 0 0 1.8333 -15.1 -92.85)"/></g></g><g clip-path="url(#af)"><g transform="translate(550.75 93.85)"><use xlink:href="#ag" width="51.6" height="24.9" transform="matrix(-1.0148 -.0004 0 -1 27.25 12.25)"/><use xlink:href="#R" width="16.2" height="15.9" transform="matrix(.7567 .3265 -.4295 .9184 -2.25 -25.6)"/><use xlink:href="#R" width="16.2" height="15.9" transform="matrix(.9095 .2741 -.4271 1.0689 7.35 -21.1)"/><use xlink:href="#S" width="27.4" height="43" transform="matrix(-.9759 0 .0571 .9936 -1.55 -29.55)"/><use xlink:href="#T" width="51.6" height="24.9" transform="matrix(-1.047 .0102 -.0414 1.0433 27.4 -42.75)"/><use xlink:href="#U" width="30.4" height="42.8" transform="matrix(-1.082 .0473 .0764 .9692 28.35 -29.85)"/><use xlink:href="#ah" width="36.4" height="34.2" transform="matrix(-1.8333 0 0 1.8333 -15.1 -92.85)"/></g></g><g clip-path="url(#ai)"><g transform="translate(667.75 93.85)"><use xlink:href="#aj" width="51.6" height="24.9" transform="matrix(-1.0074 -.0002 0 -1 26.75 12.25)"/><use xlink:href="#R" width="16.2" height="15.9" transform="matrix(.7657 .3102 -.4017 .9209 -2.7 -25.95)"/><use xlink:href="#R" width="16.2" height="15.9" transform="matrix(.9169 .2589 -.3969 1.071 6.85 -21.55)"/><use xlink:href="#S" width="27.4" height="43" transform="matrix(-.9699 0 .1084 .9853 -3.2 -29.2)"/><use xlink:href="#T" width="51.6" height="24.9" transform="matrix(-1.0594 .0238 -.0193 1.0584 26 -43.25)"/><use xlink:href="#U" width="30.4" height="42.8" transform="matrix(-1.1023 .0724 .1181 .9566 27.3 -30)"/><use xlink:href="#ak" width="36.4" height="34.2" transform="matrix(-1.8333 0 0 1.8333 -15.1 -92.85)"/></g></g><g clip-path="url(#al)"><g transform="translate(784.75 93.85)"><use xlink:href="#am" width="51.6" height="24.9" transform="matrix(-1 0 0 -1 26.3 12.2)"/><use xlink:href="#R" width="16.2" height="15.9" transform="matrix(.7753 .291 -.3739 .9226 -3.1 -26.4)"/><use xlink:href="#R" width="16.2" height="15.9" transform="matrix(.9242 .2437 -.3703 1.0711 6.4 -21.85)"/><use xlink:href="#S" width="27.4" height="43" transform="matrix(-.9639 0 .1593 .9749 -4.95 -28.85)"/><use xlink:href="#T" width="51.6" height="24.9" transform="matrix(-1.0717 .0389 0 1.073 24.65 -43.8)"/><use xlink:href="#U" width="30.4" height="42.8" transform="matrix(-1.1223 .0993 .1624 .9421 26.35 -30.25)"/><use xlink:href="#an" width="36.4" height="34.2" transform="matrix(-1.8333 0 0 1.8333 -15.1 -92.85)"/></g></g><g clip-path="url(#ao)"><g transform="translate(901.75 93.85)"><use xlink:href="#am" width="51.6" height="24.9" transform="matrix(-1 0 0 -1 26.3 12.2)"/><use xlink:href="#R" width="16.2" height="15.9" transform="matrix(.7835 .2742 -.3464 .9235 -3.5 -26.65)"/><use xlink:href="#R" width="16.2" height="15.9" transform="matrix(.9311 .2282 -.3439 1.0705 5.95 -22.2)"/><use xlink:href="#ap" width="27.4" height="43" transform="matrix(-.9679 0 .1345 .9823 -4.15 -29.15)"/><use xlink:href="#T" width="51.6" height="24.9" transform="matrix(-1.0638 .033 0 1.0649 25.05 -43.65)"/><use xlink:href="#U" width="30.4" height="42.8" transform="matrix(-1.1091 .0836 .1381 .9507 26.8 -30.15)"/><use xlink:href="#aq" width="36.4" height="34.2" transform="matrix(-1.8333 0 0 1.8333 -15.1 -92.85)"/></g></g><g clip-path="url(#ar)"><g transform="translate(1018.75 93.85)"><use xlink:href="#am" width="51.6" height="24.9" transform="matrix(-1 0 0 -1 26.3 12.2)"/><use xlink:href="#R" width="16.2" height="15.9" transform="matrix(.7921 .2546 -.3192 .9236 -3.85 -27.1)"/><use xlink:href="#R" width="16.2" height="15.9" transform="matrix(.9378 .2125 -.3177 1.0693 5.5 -22.65)"/><use xlink:href="#as" width="27.4" height="43" transform="matrix(-.9719 0 .113 .9893 -3.5 -29.4)"/><use xlink:href="#T" width="51.6" height="24.9" transform="matrix(-1.0558 .0282 0 1.0568 25.4 -43.5)"/><use xlink:href="#U" width="30.4" height="42.8" transform="matrix(-1.0958 .0727 .1138 .9591 27.3 -30.25)"/><use xlink:href="#at" width="36.4" height="34.2" transform="matrix(-1.8333 0 0 1.8333 -15.1 -92.85)"/></g></g><g clip-path="url(#au)"><g transform="translate(1135.75 93.85)"><use xlink:href="#am" width="51.6" height="24.9" transform="matrix(-1 0 0 -1 26.3 12.2)"/><use xlink:href="#R" width="16.2" height="15.9" transform="matrix(.7996 .2373 -.2921 .9229 -4.3 -27.35)"/><use xlink:href="#R" width="16.2" height="15.9" transform="matrix(.9443 .1967 -.2918 1.0674 5 -22.9)"/><use xlink:href="#av" width="27.4" height="43" transform="matrix(-.9759 0 .0881 .996 -2.6 -29.7)"/><use xlink:href="#T" width="51.6" height="24.9" transform="matrix(-1.0479 .0235 0 1.0487 25.9 -43.4)"/><use xlink:href="#U" width="30.4" height="42.8" transform="matrix(-1.0824 .0621 .0892 .9669 27.75 -30.2)"/></g></g><g clip-path="url(#aw)"><g transform="translate(1252.75 93.85)"><use xlink:href="#am" width="51.6" height="24.9" transform="matrix(-1 0 0 -1 26.3 12.2)"/><use xlink:href="#R" width="16.2" height="15.9" transform="matrix(.8073 .2171 -.2653 .9214 -4.7 -27.8)"/><use xlink:href="#R" width="16.2" height="15.9" transform="matrix(.9504 .1807 -.2661 1.0649 4.55 -23.25)"/><use xlink:href="#ax" width="27.4" height="43" transform="matrix(-.9799 0 .0661 1.002 -1.95 -30)"/><use xlink:href="#T" width="51.6" height="24.9" transform="matrix(-1.04 .0189 0 1.0406 26.2 -43.25)"/><use xlink:href="#U" width="30.4" height="42.8" transform="matrix(-1.0689 .0516 .0642 .9741 28.15 -30.2)"/></g></g><g clip-path="url(#ay)"><g transform="translate(1369.75 93.85)"><use xlink:href="#am" width="51.6" height="24.9" transform="matrix(-1 0 0 -1 26.3 12.2)"/><use xlink:href="#R" width="16.2" height="15.9" transform="matrix(.8139 .1994 -.2388 .9191 -5.05 -28.05)"/><use xlink:href="#R" width="16.2" height="15.9" transform="matrix(.9564 .1646 -.2406 1.0618 4.1 -23.65)"/><use xlink:href="#aS" width="27.4" height="43" transform="matrix(-.9839 0 .0406 1.0076 -1.1 -30.2)"/><use xlink:href="#T" width="51.6" height="24.9" transform="matrix(-1.032 .0143 0 1.0325 26.6 -43.15)"/><use xlink:href="#U" width="30.4" height="42.8" transform="matrix(-1.0555 .038 .039 .9806 28.6 -30.1)"/></g></g><g clip-path="url(#aT)"><g transform="translate(1486.75 93.85)"><use xlink:href="#am" width="51.6" height="24.9" transform="matrix(-1 0 0 -1 26.3 12.2)"/><use xlink:href="#R" width="16.2" height="15.9" transform="matrix(.8208 .1788 -.2126 .9161 -5.45 -28.45)"/><use xlink:href="#R" width="16.2" height="15.9" transform="matrix(.962 .1483 -.2119 1.0588 3.65 -24)"/><use xlink:href="#aU" width="27.4" height="43" transform="matrix(-.9879 0 .0183 1.0124 -.35 -30.45)"/><use xlink:href="#T" width="51.6" height="24.9" transform="matrix(-1.024 .0098 0 1.0243 26.95 -43.05)"/><use xlink:href="#U" width="30.4" height="42.8" transform="matrix(-1.0417 .0281 .0134 .9865 29.05 -30.05)"/></g></g><g clip-path="url(#aV)"><g transform="translate(1603.75 93.85)"><use xlink:href="#am" width="51.6" height="24.9" transform="matrix(-1 0 0 -1 26.3 12.2)"/><use xlink:href="#R" width="16.2" height="15.9" transform="matrix(.827 .158 -.1867 .9124 -5.85 -28.7)"/><use xlink:href="#R" width="16.2" height="15.9" transform="matrix(.9673 .1319 -.187 1.0545 3.25 -24.3)"/><use xlink:href="#aW" width="27.4" height="43" transform="matrix(-.992 0 -.001 1.0168 .25 -30.65)"/><use xlink:href="#T" width="51.6" height="24.9" transform="matrix(-1.0161 .0054 0 1.0162 27.4 -42.95)"/><use xlink:href="#U" width="30.4" height="42.8" transform="matrix(-1.0279 .0185 -.0092 .9917 29.5 -30)"/></g></g><g clip-path="url(#aX)"><g transform="translate(1720.75 93.85)"><use xlink:href="#am" width="51.6" height="24.9" transform="matrix(-1 0 0 -1 26.3 12.2)"/><use xlink:href="#R" width="16.2" height="15.9" transform="matrix(.8323 .1397 -.1612 .9079 -6.25 -29.1)"/><use xlink:href="#R" width="16.2" height="15.9" transform="matrix(.9724 .1153 -.1624 1.0495 2.75 -24.65)"/><use xlink:href="#aY" width="27.4" height="43" transform="matrix(-.996 0 -.0271 1.0205 1.1 -30.85)"/><use xlink:href="#T" width="51.6" height="24.9" transform="matrix(-1.008 .001 0 1.0081 27.7 -42.85)"/><use xlink:href="#U" width="30.4" height="42.8" transform="matrix(-1.014 .0091 -.0353 .9961 29.95 -29.95)"/></g></g><g clip-path="url(#aZ)"><g transform="translate(1837.75 93.85)"><use xlink:href="#am" width="51.6" height="24.9" transform="matrix(-1 0 0 -1 26.3 12.2)"/><use xlink:href="#R" width="16.2" height="15.9" transform="matrix(.8376 .1185 -.139 .9023 -6.5 -29.3)"/><use xlink:href="#R" width="16.2" height="15.9" transform="matrix(.9772 .0986 -.1381 1.044 2.3 -24.95)"/><use xlink:href="#ba" width="27.4" height="43" transform="matrix(-1 0 -.0526 1.0237 1.95 -31)"/><use xlink:href="#T" width="51.6" height="24.9" transform="matrix(-1 0 0 1 28.1 -42.85)"/><use xlink:href="#U" width="30.4" height="42.8" transform="matrix(-1 0 -.0629 1 30.35 -30)"/></g></g><g clip-path="url(#bb)"><g transform="translate(1954.75 93.85)"><use xlink:href="#am" width="51.6" height="24.9" transform="matrix(-1 0 0 -1 26.3 12.2)"/><use xlink:href="#R" width="16.2" height="15.9" transform="matrix(.842 .0999 -.1142 .8965 -6.8 -29.65)"/><use xlink:href="#R" width="16.2" height="15.9" transform="matrix(.9817 .0818 -.1142 1.038 2 -25.3)"/><use xlink:href="#ba" width="27.4" height="43" transform="matrix(-1 0 -.0526 1.0237 1.95 -31)"/><use xlink:href="#T" width="51.6" height="24.9" transform="matrix(-1 0 0 1 28.1 -42.85)"/><use xlink:href="#U" width="30.4" height="42.8" transform="matrix(-1 0 -.0629 1 30.35 -30)"/></g></g><g clip-path="url(#bc)"><g transform="translate(2071.75 93.85)"><use xlink:href="#am" width="51.6" height="24.9" transform="matrix(-1 0 0 -1 26.3 12.2)"/><use xlink:href="#R" width="16.2" height="15.9" transform="matrix(.8463 .0784 -.0898 .8901 -7.15 -29.85)"/><use xlink:href="#R" width="16.2" height="15.9" transform="matrix(.9859 .0649 -.0905 1.0314 1.5 -25.6)"/><use xlink:href="#ba" width="27.4" height="43" transform="matrix(-1 0 -.0526 1.0237 1.95 -31)"/><use xlink:href="#T" width="51.6" height="24.9" transform="matrix(-1 0 0 1 28.1 -42.85)"/><use xlink:href="#U" width="30.4" height="42.8" transform="matrix(-1 0 -.0629 1 30.35 -30)"/></g></g><g clip-path="url(#bd)"><g transform="translate(2188.75 93.85)"><use xlink:href="#am" width="51.6" height="24.9" transform="matrix(-1 0 0 -1 26.3 12.2)"/><use xlink:href="#R" width="16.2" height="15.9" transform="matrix(.85 .06 -.0664 .8831 -7.5 -30.2)"/><use xlink:href="#R" width="16.2" height="15.9" transform="matrix(.99 .0485 -.0676 1.0244 1.15 -25.9)"/><use xlink:href="#ba" width="27.4" height="43" transform="matrix(-1 0 0 1 .05 -29.75)"/><use xlink:href="#T" width="51.6" height="24.9" transform="matrix(-1 0 0 1 26.3 -42.45)"/><use xlink:href="#U" width="30.4" height="42.8" transform="matrix(-1 0 0 1 28.55 -29.7)"/></g></g><g clip-path="url(#be)"><g transform="translate(2305.75 93.85)"><use xlink:href="#am" width="51.6" height="24.9" transform="matrix(-1 0 0 -1 26.3 12.2)"/><use xlink:href="#R" width="16.2" height="15.9" transform="matrix(.85 .06 -.0664 .8831 -7.5 -30.2)"/><use xlink:href="#R" width="16.2" height="15.9" transform="matrix(.99 .0485 -.0676 1.0244 1.15 -25.9)"/><use xlink:href="#ba" width="27.4" height="43" transform="matrix(-1 0 0 1 .05 -29.75)"/><use xlink:href="#T" width="51.6" height="24.9" transform="matrix(-1 0 0 1 26.3 -42.45)"/><use xlink:href="#U" width="30.4" height="42.8" transform="matrix(-1 0 0 1 28.55 -29.7)"/><use xlink:href="#bf" width="36.4" height="34.2" transform="matrix(-1.8333 0 0 1.8333 -15.1 -92.85)"/></g></g></svg>