<svg xmlns="http://www.w3.org/2000/svg" xmlns:xlink="http://www.w3.org/1999/xlink" width="23" height="35" viewBox="0 0 23 35"><defs><g id="p"><path fill="#5a68ab" d="M2.4 3.3q.8.7 1.5 2.1Q4 3.1 3 0l.7.9q1.5 4.8.3 7.2-.3-1.4-1.2-3l-.7-.9z"/><path fill="#364487" d="M2.2 4.3q-.8-.8-2.2-1v-.9q1.3-.1 2.4.9z"/></g><g id="b"><path fill="#3046b0" d="m8.8 5.3-2.6-.1-3.8-2L1.3.7Q2.2-.2 3 0q0 2.7 2.7 4 1.9 1 3.1 1.3"/><path fill="#546ad4" d="m1.3.9 1 2.3 3.9 2 2.6.1q-1.3 2.4-1.3 5.1l-1.6-2q-3.2-3-5.8-4-.1-1.2.2-2z"/><path fill="none" stroke="#000" stroke-linecap="round" stroke-linejoin="round" stroke-opacity=".3" stroke-width="__RESOLUTION__" d="M8.8 5.3Q7.6 5 5.7 4 3 2.7 3 0 2 0 1.4.8m-.1 0-1 1.7Q0 3.3.1 4.4l-.1 1q2.1 1 5.5 3.9l2.5 3 .9-3.8q.6-2.3 1.3-3.1l-1.1-.1-.2-.1h-.1" vector-effect="non-scaling-stroke"/></g><g id="c"><path fill="#091f5a" d="M7.3 6.3q2.4-1.2 4.3-1.2.7 1.6.5 6.7l-1.5.5-2.1-1.8z"/><path fill="none" stroke="#000" stroke-linecap="round" stroke-linejoin="round" stroke-opacity=".3" stroke-width="__RESOLUTION__" d="M11.6 5.1q.7 1.6.5 6.7m-1.5.5-2.1-1.8-1.3-4.2" vector-effect="non-scaling-stroke"/><path fill="#00000f" d="m10.9 6.3-.5 4.9q-3.1 1.6-5.2.1l.2-3.6-.1-2.3 3.2-1.8z"/><path fill="#8aa0ff" d="M10.7 5.2 8.8 2.8 7 2 5.8.3l.7-.3L8 1.5l1.6.8 2 2.8z"/><path fill="#546ad4" d="M5.8.3 7 2l1.8.7 1.9 2.4q-1.5.2-3.4 1.1l-.1.3H7l-1.5-.1-1.4.3.2-2.6.7-1.9V.5z"/><path fill="#3b518c" d="M5.1.5v1.9l-.7 1.8-.2 2.6 1.4-.3 1.5.2q-1.7 3.9-1 7.4-2.9-.2-6.1-4.3 0-1.9 1.2-3l3 3.8L2 6l.9-2.5q1.5-2.3 2.3-3"/><path fill="#091f5a" d="m1.2 6.8.7-.8 2.4 4.6z"/><path fill="none" stroke="#000" stroke-linecap="round" stroke-linejoin="round" stroke-opacity=".3" stroke-width="__RESOLUTION__" d="m10.7 5.2.9-.1-2-2.8L8 1.5 6.5 0l-.7.3-.7.2v1.9m2 4.2.2-.3q1.9-1 3.4-1.1M1.2 6.8l.7-.8.9-2.5q1.5-2.3 2.3-3m2 6.2q-1.7 3.9-1 7.4-2.9-.2-6.1-4.3 0-1.9 1.1-3" vector-effect="non-scaling-stroke"/></g><g id="f"><path fill="#8aa0ff" d="m4.2 2.1.9 1q.9 3 .7 5.4Q5 7 4.3 6.2l.4-1.8z"/><path fill="#3046b0" d="m4.2 2.1.5 2.4-.4 1.8q-1.1-1-2.4-.8Q1.7 1.6 0 0q2-.4 4.2 2"/><path fill="none" stroke="#000" stroke-linecap="round" stroke-linejoin="round" stroke-opacity=".3" stroke-width="__RESOLUTION__" d="m5 3-.8-.9Q2-.2 0 .1q1.7 1.5 1.9 5.4v.9q1.4.2 2.2.9l.8.9q.8 1.6 1.1 3 1.3-2.5-.3-7.3z" vector-effect="non-scaling-stroke"/></g><g id="g"><path fill="#00107a" d="m2.5 5.7.4-1.5L4.5 1l2.3-1 2.6 2.2 4 1-.5 3.2-.4.8-1 2.7L5 7.7z"/><path fill="#8aa0ff" d="m12.9 6.4.7 3q.5 7.5.1 13-.1-.2-.6-.3.4-5.3-.1-12.1l-.4-2.8z"/><path fill="#546ad4" d="m13.1 22-2.4-.3-4.3-.4-2.2-.3q-1-.2-1.5-.8l-.8-1-1.4-1L5 7.6l6.5 2.1 1-2.6.5 2.8q.5 6.8.1 12m-.5-1.3v-5.8l-.3 2.8-2 3H7.8l2.9.5zm-6.4-4.5.2 5z"/><path fill="#1e349e" d="m.5 18.2-.5-.9L2.5 5.7l2.5 2zm12.1 2.5-1.9.5-3-.5h2.6l2-3 .2-2.8z"/><path fill="none" stroke="#000" stroke-linecap="round" stroke-linejoin="round" stroke-opacity=".3" stroke-width="__RESOLUTION__" d="m2.5 5.7.4-1.5L4.5 1l2.3-1 2.6 2.2 4 1-.5 3.2.6 3q.6 7.5.2 13-.1-.2-.6-.3l-2.4-.4-4.3-.5-2.2-.2q-1-.3-1.5-.8l-.8-1-1.4-1-.5-.9zm3.9 15.6L6 16.2" vector-effect="non-scaling-stroke"/><path fill="#546ad4" d="m17.6 5.1.3 1.6-.2 7.1.4 5.7v.1l-1.4 1.3q0-6.4-1-12.8z"/><path fill="#8aa0ff" d="m17.9 6.7.3 1.8.5 3.2q.4 3.4 1 4.8-.5 1.4-1.2 2.5l-.4.6-.4-5.8z"/><path fill="#00107a" d="m15.7 8-1.8-5.2L15.2.5q1.5 2 2.4 4.6z"/><path fill="none" stroke="#000" stroke-linecap="round" stroke-linejoin="round" stroke-opacity=".3" stroke-width="__RESOLUTION__" d="m17.6 5.1.3 1.6.3 1.8.5 3.2q.4 3.4 1 4.8-.4 1.4-1.2 2.5m-.4.6-1.4 1.3q0-6.4-1-12.8l-1.8-5.3M15.2.5q1.5 2 2.4 4.6" vector-effect="non-scaling-stroke"/></g><g id="x" transform="translate(4.55 4.35)"><use xlink:href="#a" width="10.2" height="8.1" transform="translate(-4.55)"/><use xlink:href="#b" width="10.2" height="12.4" transform="translate(-4.55 -4.35)"/></g><g id="w" transform="translate(7.1 9.45)"><use xlink:href="#c" width="12.2" height="14.1" transform="translate(-7.1 -9.45)"/><use xlink:href="#d" width="6.5" height="1.5" transform="translate(-1.65 -1.35)"/></g><g id="v" transform="translate(2.45 3.6)"><use xlink:href="#e" width="4.7" height="8.1" transform="translate(-.55 -.55)"/><use xlink:href="#f" width="6.5" height="11.2" transform="translate(-2.45 -3.6)"/></g><g id="u" transform="translate(11.2 6.9)"><use xlink:href="#g" width="19.6" height="22.4" transform="translate(-11.2 -6.9)"/><use xlink:href="#h" width="4.3" height="4.8" transform="translate(.95 -3.2)"/></g><use xlink:href="#i" id="a" width="10.2" height="8.1"/><use xlink:href="#j" id="d" width="6.5" height="1.5"/><use xlink:href="#p" id="e" width="4.7" height="8.1"/><use xlink:href="#q" id="h" width="4.3" height="4.8"/><use xlink:href="#r" id="t" width="11.2" height="21.5"/><path id="i" fill="#364487" d="M5.1-2.9q-.7.8-1.3 3.1l-1 3.9L.4 1Q-3-1.8-5.1-2.9V-4q2.8 1.2 6 4l1.6 2q0-2.7 1.4-5.1L4-3z" transform="translate(5.1 4.05)"/><path id="j" fill="#fff300" d="m1.9-.6 1.4-.2-.8 1H.9zM-2 .7-3.2.1l1.7-.3 1.4.7z" transform="translate(3.2 .75)"/><path id="q" fill="#714629" d="m-2.1-1.3 1.5-1.1 2.2.4L-.1-.7zm.6 3.1L0 .7l2.2.4L.4 2.4z" transform="translate(2.15 2.4)"/><path id="r" fill="#00000f" d="M5.5 9.1q-3.8 2.9-10 .7-2.3-8.3.3-18.6 3-3.1 6.8-1.2Q6.3-1 5.4 9" transform="translate(5.55 10.75)"/><clipPath id="s"><path d="M1 1h21v33H1z"/></clipPath></defs><g clip-path="url(#s)"><g transform="translate(12.45 27.2)"><use xlink:href="#t" width="11.2" height="21.5" transform="translate(-4.95 -16.85)"/><use xlink:href="#u" width="19.6" height="22.4" transform="translate(-10.65 -15.8)"/><use xlink:href="#v" width="6.5" height="11.2" transform="translate(1.6 -19.85)"/><use xlink:href="#w" width="12.2" height="14.1" transform="translate(-6 -26.2)"/><use xlink:href="#x" width="10.2" height="12.4" transform="translate(-8.35 -18.5)"/></g></g></svg>