<svg xmlns="http://www.w3.org/2000/svg" xmlns:xlink="http://www.w3.org/1999/xlink" width="593" height="61" viewBox="0 0 593 61"><defs><use xlink:href="#a" id="g" width="22.9" height="21.6"/><use xlink:href="#b" id="h" width="22.6" height="27"/><use xlink:href="#c" id="i" width="34.7" height="28.6"/><use xlink:href="#d" id="m" width="27.9" height="27.9"/><use xlink:href="#e" id="j" width="22.6" height="27"/><use xlink:href="#f" id="k" width="22.6" height="27"/><use xlink:href="#g" id="z" width="22.9" height="21.6" transform="matrix(-1 0 0 1 29.95 4.5)"/><use xlink:href="#h" id="x" width="22.6" height="27" transform="matrix(-.9878 -.1523 -1.19 1.65 54.5 3.45)"/><use xlink:href="#i" id="t" width="34.7" height="28.6" transform="scale(1.21)"/><use xlink:href="#j" id="s" width="22.6" height="27" transform="matrix(-.9878 -.1523 -1.19 1.65 54.5 3.45)"/><use xlink:href="#k" id="p" width="22.6" height="27" transform="matrix(-.9878 -.1523 -1.19 1.65 54.5 3.45)"/><use xlink:href="#g" id="o" width="22.9" height="21.6" transform="matrix(-1.58 0 0 1.58 36.35 0)"/><clipPath id="n"><path d="M1 1h73v59H1z"/></clipPath><clipPath id="r"><path d="M75 1h73v59H75z"/></clipPath><clipPath id="u"><path d="M149 1h73v59h-73z"/></clipPath><clipPath id="w"><path d="M223 1h73v59h-73z"/></clipPath><clipPath id="y"><path d="M297 1h73v59h-73z"/></clipPath><clipPath id="A"><path d="M371 1h73v59h-73z"/></clipPath><clipPath id="B"><path d="M445 1h73v59h-73z"/></clipPath><clipPath id="C"><path d="M519 1h73v59h-73z"/></clipPath><g id="a"><path fill="#f00f0f" d="M15.4 5.5Q17 5 20.7 3q-1.6 2.6-2 4.6-.3 1.1.6 2.2 1 1.3 3.6 1.8-1.2 0-2.4.7-1 .7-1.3 1.3-.5 1 .5 2.7.7 1.5 2.7 3.8-6.6-3.5-9.2-1.8-2.1 1.5-2.9 3.3 0-1.7-.3-2.4-.5-2.1-1.8-2.5-3-1-7.4.4.8-.5 2.3-2.6 1-1.2.6-3.1Q3.3 8.7 0 6.2l3.4.4 2.9-.4q1-.3 1.2-6.1V0q2 3.1 4 4.9 1.5 1.2 3.9.5"/><path fill="#a6691f" d="M12.2 13.7h-.7l-.6-.4-3.5-6.1q-.2-.3 0-.8l.7-.6L9.5 5l.9-.1q.4 0 .5.5-2.3.8-2.5 1.4 2.5 5.3 3.7 6.9m1.9 4h-.7q-.7-.1-.9-.6t0-1.2q.3-.5 1-.9.3-.2.7-.2-1.2.4-1 1.7 0 1.2 1 1.2z"/><path fill="#fc0" d="M12.2 13.7q-1.3-1.6-3.7-6.9.1-.6 2.4-1.5l2.4 6.6v.8l-.6.7-.3.2zm1.9 1 .5.1q.5.2.8.7.2.5 0 1.1l-.9 1-.4.1q-1 0-1-1.3-.2-1.2 1-1.6"/></g><g id="b"><path fill="#900" d="M16.5 17.4H18q1.3 0 1.9.8l-5.1.4-1.9-.5.9-.3.8-.1 1.7-.3zm4.5 2.4.3.2q1 .9 1.3 2.1.1 1-.3 2-2.6 1.1-5.3-1.7-4.7.5-2 4.4l-.9-.5q-1-.7-1.2-1.8-1-.2-1.6-.7-.9-.9-.8-2.1t1-2.1h.2l2.7.7-1.1 1L15 21l2.4.3-1-1z"/><path fill="#900" d="m19.9 18.2.5 1 .6.5-4.6.5-2 .1-2.7-.8.5-.3.7-1.1 1.9.4z"/><path fill="#900" d="m22.4 24-.3.5q-.8 1.1-2 1.3l-1.6-.3-.1.3q-.8 1-2 1.1l-1.4-.1q-2.7-3.9 2-4.4 2.7 2.9 5.4 1.7m-6-4 1 1L15 21l-1.7.5 1-1.1z"/><path fill="none" stroke="#900" stroke-linecap="round" stroke-linejoin="round" stroke-opacity=".3" stroke-width="__RESOLUTION__" d="M21.3 20q1 .9 1.3 2.1.1 1-.3 2l-.2.4q-.8 1.1-2 1.3l-1.6-.3-.1.3q-.8 1-2 1.1l-1.4-.1-.9-.5q-1-.7-1.2-1.8-1-.2-1.6-.7-.9-.9-.8-2.1t1-2.1h.2l.5-.4m4-1.9h.3m-2.2 3-2.7-.8m9.4.2-4.6.4-2 .2m-1.5-2.2 1.9.4 5-.3" vector-effect="non-scaling-stroke"/><path fill="#900" fill-opacity=".3" d="m14.6 18.5-.1 1.1.3.7h-.5l-2.7-.7.5-.4.8-1.1z"/><path fill="#900" d="m15.7 19.4 1.1 2.2h-.2L15 19zm-4.3-6.1-1.2-.7.4-.2-.7-1.7-.8-.8.5.2-.5-1-1-.5.2.4.8.9-.8-.5.7 1.3 1.6 1.7zM3.7 5.6 0 2.2l2.9 2.4zM5.4 4 3.6 0l2.8 5.5-1.7-4.1 2 3.5.7 1.1v.8l-1-1.3.2 1.1.3 1 .6.7-.9-1.7L5.8 5l.6.5zm6.5 7.1v1l1.4 2.7.7 1.3 1.2-7 5.5 4.9-4.5-3.9-1-1-.5 8.3-.1.6-3-5.4.1-.7z"/><path fill="#900" d="M16.6 21.6h-.2l-1.8-3v-.5l-3-5.4-.4-.5h-.1l-.5.2L9 10.7l-5.3-5L5.3 8l3.1 2.9 1.8 1.7.4-.2-.7-1.7 1.2 1.4v.1l.3 1L13 16l1.6 2.7.5.4zM4 5.5 1.7 1.6l.9.6 1.6 1.6 1 1.8 1.8 2-.2-1-1-1.6-1.6-1.2 1.5 3.5zm2.7-.6-.6-2.2 1 1.8.3 1.5zm4 5.9-3-6.3 4 6.7v.8zL8.6 8.2l-1-1.4-1.1-1.3.2 1.1 1 1.7L7 8l.3 1 .9.4-.6-1 .4.2 1 .5.4 1zm2.5 4.1 1.9-5.7.5 10.2-1-2 .5-8.2-1.2 7z"/><path fill="#900" d="m14.6 18.6-2.1-1.2.5-1.5zv-1.1l1 1.9-.5-.4zm5.5-3.3-4.9-6.1 1 1 3.3 3.8z"/><path fill="#900" d="M10.2 12.6 9 11.9l-2.3-2 1.7 1zm-7.3-8 1.2.9 1.6 1.8-1.5-3.5L5.8 5l-.5-1-2.2-2.7 1 2.3v.1l.1.1 1 1.8 1.8 2 .7.8L7 8l.3 1 .9.4-.6-1 .4.2.1.4.8.8.8.9 1.3 1.4.1.1.5.5v-.8l-1-1.2-3.5-6.3.3 1.6v.8l1.2 1.4 2 2.6-1.1-.7L9 10l-.8-.5.7 1.3-5.3-5zm-1.2-3L1 .6l1.6 1.6zm10.1 9.6-.4-1-1.3-2.7 1.7 2.7zm8.9 2.9-.6 1.2-.6-1.4-3.4-3.7zm-10.1-1.7.5-.2.3 1z"/><path fill="#900" d="M6.5 5.5 5.8 5l-.5-1z"/></g><g id="c"><path fill="#b81a03" d="M34.7 28.4q-4.3-4-6.6-3.5-1.8.3-2.9 3.7.1-4.1-2.4-6.1 4.9-.1 4.8-3.4t-5.3-7q2.9 1 6.3-2-1.4 3.8-.9 5.9.5 1.9 2.8 3.3l3.4 1.2q-2.4.4-2.4 2-.1 2 3.2 5.9"/><path fill="none" stroke="#d01d04" stroke-linecap="round" stroke-linejoin="round" stroke-width="__RESOLUTION__" d="M33.9 20.5q-2.4.4-2.4 2-.1 2 3.2 5.9" vector-effect="non-scaling-stroke"/><path fill="#f43404" d="M2 .2q1.4.7 2 2.2l-.9-.2L0 .9Q.6-.4 2 .2m14.3 2.4 4 1.7q-.7.4-1.4 1.9-1 2.2-.5 4.5.7 3.7 3.8 8.5l4.1 5.2q-5.8-2.8-16.6 1.3 12.2-8.4-4.3-22.4Q16.2 9 16.2 2.6"/><path fill="none" stroke="#d01d04" stroke-linecap="round" stroke-linejoin="round" stroke-width="__RESOLUTION__" d="M2 .2q1.4.7 2 2.2l-.9-.2L0 .9Q.6-.4 2 .2m7.7 25.5Q22 17.3 5.5 3.3" vector-effect="non-scaling-stroke"/><path fill="none" stroke="#fc563f" stroke-linecap="round" stroke-linejoin="round" stroke-width="__RESOLUTION__" d="M5.5 3.3Q16.3 9 16.3 2.6" vector-effect="non-scaling-stroke"/><path fill="#f43404" d="M6.7 28q-1.1-.7-.3-1.3.8-.5 2.1-.5l-.2.4z"/><path fill="none" stroke="#d01d04" stroke-linecap="round" stroke-linejoin="round" stroke-width="__RESOLUTION__" d="M6.7 28q-1.1-.7-.3-1.3.8-.5 2.1-.5l-.2.4z" vector-effect="non-scaling-stroke"/></g><g id="e"><path fill="#f90" d="M16.5 17.4H18q1.3 0 1.9.8l-5.1.4-1.9-.5.9-.3.8-.1 1.7-.3zm4.5 2.4.3.2q1 .9 1.3 2.1.1 1-.3 2-2.6 1.1-5.3-1.7-4.7.5-2 4.4l-.9-.5q-1-.7-1.2-1.8-1-.2-1.6-.7-.9-.9-.8-2.1t1-2.1h.2l2.7.7-1.1 1L15 21l2.4.3-1-1z"/><path fill="#f90" d="m19.9 18.2.5 1 .6.5-4.6.5-2 .1-2.7-.8.5-.3.7-1.1 1.9.4z"/><path fill="#f90" d="m22.4 24-.3.5q-.8 1.1-2 1.3l-1.6-.3-.1.3q-.8 1-2 1.1l-1.4-.1q-2.7-3.9 2-4.4 2.7 2.9 5.4 1.7m-6-4 1 1L15 21l-1.7.5 1-1.1z"/><path fill="none" stroke="#f90" stroke-linecap="round" stroke-linejoin="round" stroke-opacity=".3" stroke-width="__RESOLUTION__" d="M21.3 20q1 .9 1.3 2.1.1 1-.3 2l-.2.4q-.8 1.1-2 1.3l-1.6-.3-.1.3q-.8 1-2 1.1l-1.4-.1-.9-.5q-1-.7-1.2-1.8-1-.2-1.6-.7-.9-.9-.8-2.1t1-2.1h.2l.5-.4m4-1.9h.3m-2.2 3-2.7-.8m9.4.2-4.6.4-2 .2m-1.5-2.2 1.9.4 5-.3" vector-effect="non-scaling-stroke"/><path fill="#f90" fill-opacity=".3" d="m14.6 18.5-.1 1.1.3.7h-.5l-2.7-.7.5-.4.8-1.1z"/><path fill="#f90" d="m15.7 19.4 1.1 2.2h-.2L15 19zm-4.3-6.1-1.2-.7.4-.2-.7-1.7-.8-.8.5.2-.5-1-1-.5.2.4.8.9-.8-.5.7 1.3 1.6 1.7zM3.7 5.6 0 2.2l2.9 2.4zM5.4 4 3.6 0l2.8 5.5-1.7-4.1 2 3.5.7 1.1v.8l-1-1.3.2 1.1.3 1 .6.7-.9-1.7L5.8 5l.6.5zm6.5 7.1v1l1.4 2.7.7 1.3 1.2-7 5.5 4.9-4.5-3.9-1-1-.5 8.3-.1.6-3-5.4.1-.7z"/><path fill="#f90" d="M16.6 21.6h-.2l-1.8-3v-.5l-3-5.4-.4-.5h-.1l-.5.2L9 10.7l-5.3-5L5.3 8l3.1 2.9 1.8 1.7.4-.2-.7-1.7 1.2 1.4v.1l.3 1L13 16l1.6 2.7.5.4zM4 5.5 1.7 1.6l.9.6 1.6 1.6 1 1.8 1.8 2-.2-1-1-1.6-1.6-1.2 1.5 3.5zm2.7-.6-.6-2.2 1 1.8.3 1.5zm4 5.9-3-6.3 4 6.7v.8zL8.6 8.2l-1-1.4-1.1-1.3.2 1.1 1 1.7L7 8l.3 1 .9.4-.6-1 .4.2 1 .5.4 1zm2.5 4.1 1.9-5.7.5 10.2-1-2 .5-8.2-1.2 7z"/><path fill="#f90" d="m14.6 18.6-2.1-1.2.5-1.5zv-1.1l1 1.9-.5-.4zm5.5-3.3-4.9-6.1 1 1 3.3 3.8z"/><path fill="#f90" d="M10.2 12.6 9 11.9l-2.3-2 1.7 1zm-7.3-8 1.2.9 1.6 1.8-1.5-3.5L5.8 5l-.5-1-2.2-2.7 1 2.3v.1l.1.1 1 1.8 1.8 2 .7.8L7 8l.3 1 .9.4-.6-1 .4.2.1.4.8.8.8.9 1.3 1.4.1.1.5.5v-.8l-1-1.2-3.5-6.3.3 1.6v.8l1.2 1.4 2 2.6-1.1-.7L9 10l-.8-.5.7 1.3-5.3-5zm-1.2-3L1 .6l1.6 1.6zm10.1 9.6-.4-1-1.3-2.7 1.7 2.7zm8.9 2.9-.6 1.2-.6-1.4-3.4-3.7zm-10.1-1.7.5-.2.3 1z"/><path fill="#f90" d="M6.5 5.5 5.8 5l-.5-1z"/></g><g id="f"><path fill="#960" d="M16.5 17.4H18q1.3 0 1.9.8l-5.1.4-1.9-.5.9-.3.8-.1 1.7-.3zm4.5 2.4.3.2q1 .9 1.3 2.1.1 1-.3 2-2.6 1.1-5.3-1.7-4.7.5-2 4.4l-.9-.5q-1-.7-1.2-1.8-1-.2-1.6-.7-.9-.9-.8-2.1t1-2.1h.2l2.7.7-1.1 1L15 21l2.4.3-1-1z"/><path fill="#090" d="m19.9 18.2.5 1 .6.5-4.6.5-2 .1-2.7-.8.5-.3.7-1.1 1.9.4z"/><path fill="#775100" d="m22.4 24-.3.5q-.8 1.1-2 1.3l-1.6-.3-.1.3q-.8 1-2 1.1l-1.4-.1q-2.7-3.9 2-4.4 2.7 2.9 5.4 1.7m-6-4 1 1L15 21l-1.7.5 1-1.1z"/><path fill="none" stroke="#000" stroke-linecap="round" stroke-linejoin="round" stroke-opacity=".3" stroke-width="__RESOLUTION__" d="M21.3 20q1 .9 1.3 2.1.1 1-.3 2l-.2.4q-.8 1.1-2 1.3l-1.6-.3-.1.3q-.8 1-2 1.1l-1.4-.1-.9-.5q-1-.7-1.2-1.8-1-.2-1.6-.7-.9-.9-.8-2.1t1-2.1h.2l.5-.4m4-1.9h.3m-2.2 3-2.7-.8m9.4.2-4.6.4-2 .2m-1.5-2.2 1.9.4 5-.3" vector-effect="non-scaling-stroke"/><path fill="#000" fill-opacity=".3" d="m14.6 18.5-.1 1.1.3.7h-.5l-2.7-.7.5-.4.8-1.1z"/><path fill="#090" d="m15.7 19.4 1.1 2.2h-.2L15 19zm-4.3-6.1-1.2-.7.4-.2-.7-1.7-.8-.8.5.2-.5-1-1-.5.2.4.8.9-.8-.5.7 1.3 1.6 1.7zM3.7 5.6 0 2.2l2.9 2.4zM5.4 4 3.6 0l2.8 5.5-1.7-4.1 2 3.5.7 1.1v.8l-1-1.3.2 1.1.3 1 .6.7-.9-1.7L5.8 5l.6.5zm6.5 7.1v1l1.4 2.7.7 1.3 1.2-7 5.5 4.9-4.5-3.9-1-1-.5 8.3-.1.6-3-5.4.1-.7z"/><path fill="#060" d="M16.6 21.6h-.2l-1.8-3v-.5l-3-5.4-.4-.5h-.1l-.5.2L9 10.7l-5.3-5L5.3 8l3.1 2.9 1.8 1.7.4-.2-.7-1.7 1.2 1.4v.1l.3 1L13 16l1.6 2.7.5.4zM4 5.5 1.7 1.6l.9.6 1.6 1.6 1 1.8 1.8 2-.2-1-1-1.6-1.6-1.2 1.5 3.5zm2.7-.6-.6-2.2 1 1.8.3 1.5zm4 5.9-3-6.3 4 6.7v.8zL8.6 8.2l-1-1.4-1.1-1.3.2 1.1 1 1.7L7 8l.3 1 .9.4-.6-1 .4.2 1 .5.4 1zm2.5 4.1 1.9-5.7.5 10.2-1-2 .5-8.2-1.2 7z"/><path fill="#030" d="m14.6 18.6-2.1-1.2.5-1.5zv-1.1l1 1.9-.5-.4zm5.5-3.3-4.9-6.1 1 1 3.3 3.8z"/><path fill="#0c0" d="M10.2 12.6 9 11.9l-2.3-2 1.7 1zm-7.3-8 1.2.9 1.6 1.8-1.5-3.5L5.8 5l-.5-1-2.2-2.7 1 2.3v.1l.1.1 1 1.8 1.8 2 .7.8L7 8l.3 1 .9.4-.6-1 .4.2.1.4.8.8.8.9 1.3 1.4.1.1.5.5v-.8l-1-1.2-3.5-6.3.3 1.6v.8l1.2 1.4 2 2.6-1.1-.7L9 10l-.8-.5.7 1.3-5.3-5zm-1.2-3L1 .6l1.6 1.6zm10.1 9.6-.4-1-1.3-2.7 1.7 2.7zm8.9 2.9-.6 1.2-.6-1.4-3.4-3.7zm-10.1-1.7.5-.2.3 1z"/><path fill="#0f3" d="M6.5 5.5 5.8 5l-.5-1z"/></g><g id="v" transform="translate(25.55 12.45)"><use xlink:href="#m" width="27.9" height="27.9" transform="translate(-7.45 -2.85)scale(.6188)"/><use xlink:href="#i" width="34.7" height="28.6" transform="translate(-25.55 -12.45)scale(1.21)"/></g><g id="q" transform="translate(25.55 12.45)"><use xlink:href="#m" width="27.9" height="27.9" transform="translate(-7.45 -2.85)scale(.6188)"/><use xlink:href="#i" width="34.7" height="28.6" transform="translate(-17.6 -6.6)scale(.815)"/></g><path id="d" fill="#fff" d="M9.8-10.2q3.3 3.3 4 7.7l.1 2.2q0 5.7-4.1 9.8-3.3 3.3-7.6 4l-2.2.1q-5.8 0-10-4.1-2.6-2.6-3.5-6-.5-1.8-.5-3.8 0-5.8 4-10h.2q4-4 9.8-4 3.7 0 6.6 1.7 1.7.9 3.2 2.3" transform="translate(14 14.3)"/></defs><g clip-path="url(#n)"><g transform="translate(25.75 66.85)"><use xlink:href="#o" width="36.4" height="34.2" transform="translate(11.25 -60.55)"/><use xlink:href="#p" width="54.5" height="47.9" transform="translate(-6.6 -65.85)"/><use xlink:href="#q" width="42" height="34.5" transform="translate(-24.75 -39.2)scale(.916)"/></g></g><g clip-path="url(#r)"><g transform="translate(99.75 66.85)"><use xlink:href="#s" width="54.5" height="47.9" transform="translate(-6.6 -65.85)"/><use xlink:href="#t" width="42" height="34.5" transform="translate(-24.75 -39.2)scale(.916)"/></g></g><g clip-path="url(#u)"><g transform="translate(173.75 66.85)"><use xlink:href="#s" width="54.5" height="47.9" transform="translate(-6.6 -65.85)"/><use xlink:href="#v" width="42" height="34.5" transform="translate(-24.75 -39.2)scale(.916)"/></g></g><g clip-path="url(#w)"><g transform="translate(247.75 66.85)"><use xlink:href="#x" width="54.5" height="47.9" transform="translate(-6.6 -65.85)"/><use xlink:href="#t" width="42" height="34.5" transform="translate(-24.75 -39.2)scale(.916)"/></g></g><g clip-path="url(#y)"><g transform="translate(321.75 66.85)"><use xlink:href="#z" width="36.4" height="34.2" transform="translate(11.25 -60.55)"/><use xlink:href="#s" width="54.5" height="47.9" transform="translate(-6.6 -65.85)"/></g></g><g clip-path="url(#A)"><g transform="translate(395.75 66.85)"><use xlink:href="#z" width="36.4" height="34.2" transform="translate(11.25 -60.55)"/><use xlink:href="#x" width="54.5" height="47.9" transform="translate(-6.6 -65.85)"/></g></g><g clip-path="url(#B)"><g transform="translate(469.75 66.85)"><use xlink:href="#z" width="36.4" height="34.2" transform="translate(11.25 -60.55)"/><use xlink:href="#x" width="54.5" height="47.9" transform="translate(-6.6 -65.85)"/></g></g><g clip-path="url(#C)"><g transform="translate(543.75 66.85)"><use xlink:href="#z" width="36.4" height="34.2" transform="translate(11.25 -60.55)"/><use xlink:href="#p" width="54.5" height="47.9" transform="translate(-6.6 -65.85)"/></g></g></svg>