<svg xmlns="http://www.w3.org/2000/svg" xmlns:xlink="http://www.w3.org/1999/xlink" width="31" height="37" viewBox="0 0 31 37"><defs><g id="m"><path fill="#d8cdc5" d="m0 3.8.2-1Q1.9.4 5.5 0l.5.4-.1.2Q3.8.8 1.4 3.3v.2z"/><path fill="#fff" d="M1.4 3.5q.2.9 1.4.9Q.9 5.4.4 5q-.5-.2-.4-1.2zm8.9.2q-.6 2.2-1.4 2.5-.7.4-2.3-.7 1.4 0 2.2-1.1-1.6-2.8-3.6-3v-.1l.6-.5q3.7.4 4.5 2.9"/></g><g id="o"><path fill="#fff" d="m14.4 2 1.3-.3.9.4 1 .7q-3.2.8-3.3 5.6t3.4 2q-.7 5.9-3.5 7.4Q11 19.7 6.6 19q-3.4-.5-6.6-2.2l.6-6.3q.5-6 4.7-10L7.9 0 6 .9Q5.7 1 5.2 2 8 4 12.8 3.6q1-1.4 1.5-1.6"/><path fill="#b5aba4" fill-opacity=".3" d="m15.8 1.8.7.3q-3.6 1.4-4 9-.7 7.6-6 7.9-3.3-.5-6.5-2.2l.6-6.3q.5-6 4.7-10L7.9 0 6 .9Q5.7 1 5.2 2 8 4 12.8 3.6q1-1.4 1.5-1.6z"/></g><g id="p"><path fill="#24283c" d="M.9 1.5Q2.3.3 3.7 0q2.2-.4 4 1.8 3.4 4.2-1.8 8.4L1.4 10l-.8-.9Q-.2 8 .2 5.9z"/><path fill="#dde0eb" fill-opacity=".3" d="M5.1 2Q5.2.8 3.7 0q2.2-.4 4 1.8 3.4 4.2-1.8 8.4L1.4 10q3.5.3 5-1.6 1.5-2.1-.6-5Q5 3.1 5 2"/></g><g id="r"><path fill="#fff" d="M6 1.2 9.3 0q1.7 4.7 1.5 8.4l-1-.1q-9-1.8-3.6-7.1"/><path fill="#d8cdc5" d="M9.8 8.3Q6 8.3 0 10.8 2.3 6.1.3 1l5.8.2Q.6 6.6 9.8 8.3"/></g><g id="s"><path fill="#c7ab6d" d="M3 5.2V4Q2.8 2.2 1.7.7 3.6-.2 5.3.1l.4 1.5.8 1.5q.2 1.3-.9 1.6-1 .6-1.1.3-1.1.8-1.6.2m1.6-1.8q.4 1 0 1.6.4-.5 0-1.6m1.1 1.3v-.8z"/><path fill="#a7844b" d="M3 4v1.2l-.6.4q-.8 0-.8-.8l-.6-1q-1.2-1-1-2.2L1.8.7Q2.8 2.2 3 4"/><path fill="none" stroke="#775020" stroke-linecap="round" stroke-linejoin="round" stroke-width="__RESOLUTION__" d="M3 4v1.2q.4.6 1.5-.2.4-.5 0-1.6M5.3 0l.4 1.5.8 1.5q.2 1.3-.9 1.6h0q-1 .6-1.1.3m1.1-1.1v.8M3 5.2l-.7.4q-.8 0-.8-.8 0-.5-.6-1-1.1-1-.9-2.2" vector-effect="non-scaling-stroke"/></g><g id="t"><path fill="#a7844b" d="M.3 13.3Q-.2 9.8.2 7L0 4.9q0-2 1.3-3.6Q2.5 0 3.3 0 5 .6 6 2.3q.9 1.7.5 4l-.4 2v2.4q-1.8 0-3.4-.7-.3 2.4.6 3.9-1.6.1-3-.6"/><path fill="#c7ab6d" d="M3.3 13.9q-.9-1.5-.6-3.9 1.5.8 3.5.7l-.3 2.5z"/><path fill="none" stroke="#775020" stroke-linecap="round" stroke-linejoin="round" stroke-width="__RESOLUTION__" d="M3.4 0q-.8 0-2.1 1.3Q0 2.9 0 4.9l.1 2.2q-.4 2.7 0 6.2m6-2.6v-2L6 8.3m-.2 4.9.3-2.5" vector-effect="non-scaling-stroke"/></g><g id="u"><path fill="#c7ab6d" d="M5.4 8.7q-.6-.5-1-1.7l-1-2.3Q2 2.8 2.5.1 5-.2 6.2.6q1.5 3.9 1.6 6.3z"/><path fill="#a7844b" d="M2.5.1q-.4 2.7.9 4.6l1 2.2q.4 1.3 1 1.8l-2.9-.2L.7 4.4Q-.2 3.1 0 1.3 1 .3 2.5.1"/><path fill="none" stroke="#775020" stroke-linecap="round" stroke-linejoin="round" stroke-width="__RESOLUTION__" d="M7.8 6.9Q7.7 4.5 6.2.6M0 1.3q-.1 1.8.7 3.1l1.9 4.1" vector-effect="non-scaling-stroke"/><path fill="none" stroke="#775020" stroke-linecap="round" stroke-linejoin="round" stroke-width="__RESOLUTION__" d="M4.7 4.5Q5 5.8 2.5 6.2M5 5.6q.3 2-3 2m2-4q-.1 1-1.7 1.1" vector-effect="non-scaling-stroke"/></g><g id="v"><path fill="#eee6d9" d="M1.3 0q3.5 1.1 3.5 2.4-.7 1-2.5.9Q.8 3.3 0 1.8.4.6 1.3 0"/><path fill="none" stroke="#775020" stroke-linecap="round" stroke-linejoin="round" stroke-width="__RESOLUTION__" d="M1.3 0q3.5 1.1 3.5 2.4-.7 1-2.5.9Q.8 3.3 0 1.8.4.6 1.3 0" vector-effect="non-scaling-stroke"/></g><g id="b" fill="none" stroke-linecap="round" stroke-linejoin="round" stroke-width="1"><path stroke="#73584f" d="M5.2 1.5q2 .1 3.6 2.8Q8 5.6 6.6 5.6" vector-effect="non-scaling-stroke"/><path stroke="#c0aca5" d="M6.7 5.5q1.5 1 2.3.7t1.2-2.5" vector-effect="non-scaling-stroke"/><path stroke="#60472b" d="M10.3 3.7q-.8-2.4-4.6-3M2.8 4.4Q.9 5.4.4 5q-.5-.2-.4-1.2l.2-1Q1.9.4 5.5 0" vector-effect="non-scaling-stroke"/><path stroke="#fff" d="M5.7.7Q3.6 1.9 2.8 4.4m3.9 1.1-1.5-4" vector-effect="non-scaling-stroke"/></g><g id="e"><path fill="#a7844b" d="M17.7 2.8q.9 4 0 7.6-3.5 2.7-3.4-2t3.3-5.6M7.8.1q3.5-.3 8 1.6l-1.5.3-1.6 1.5Q8 4 5.3 2q.5-1 .9-1.2z"/><path fill="none" stroke="#775020" stroke-linecap="round" stroke-linejoin="round" stroke-width="__RESOLUTION__" d="M17.7 2.8q.9 4 0 7.6-.7 5.9-3.5 7.4Q11 19.7 6.6 19q-3.4-.5-6.6-2.2l.6-6.3q.5-6 4.7-10L7.9 0 6 .9Q5.7 1 5.2 2 8 4 12.8 3.6m3-1.9.7.4 1.2.7m-3.4 5.6q-.1 4.7 3.4 2" vector-effect="non-scaling-stroke"/></g><g id="f" fill="none" stroke="#3c4562" stroke-linecap="round" stroke-linejoin="round" stroke-width="1"><path d="M5.9 10.3 1.4 10l-.8-.9Q-.2 8 .2 5.9l.7-4v-.4Q2.3.3 3.7 0q2.2-.4 4 1.8 3.4 4.2-1.8 8.4" vector-effect="non-scaling-stroke"/><path d="M.9 1.9Q1.7 5.2 3 5.7" vector-effect="non-scaling-stroke"/></g><g id="j"><path fill="none" stroke="#31384f" stroke-linecap="round" stroke-linejoin="round" stroke-width="__RESOLUTION__" d="m10.3 3.8.5.1 1.4.7.2.2q.6.7.6 2 0 2.1-1.7 5.6l.2-3.6-.2-1.8-.9-2.8zM8 4.4q-.6 1.3-1.1 3l-.5 2.4Q6 11.8 6 14q-1.2-2.8-3.2-4.3m-.5-.2L.6 5.4Q-.6 2.7.6 1l.6.4h1.2l1-.6L5 0" vector-effect="non-scaling-stroke"/><path fill="#c7cfdc" fill-opacity=".3" d="M3.6.5q0 2.6.7 3.3l-.8 1.3q-.7-1.1-1-4zM4.1 5q1.2 2 2.7 2.5l-.5 1.8v.5q-2-1.1-2.8-3.2v-.1zM13 6.4l-1.5 2-.2-1.8 1-2.2q.7.7.7 2"/></g><g id="h"><path fill="#a28057" d="M.3 2.2Q.5 1.3 1.4 0l6.1 1.1q.4 1.7 0 3.7Q2.8 6.1.3 2.2"/><path fill="#c7ab6d" d="M7.5 4.8v1.1q0 .7-.5 1.2Q1.5 8.6.2 5.6q-.4-1 .1-3.4Q2.7 6 7.5 4.8"/><path fill="none" stroke="#775020" stroke-linecap="round" stroke-linejoin="round" stroke-width="__RESOLUTION__" d="M7.5 4.8v1.1q0 .7-.5 1.2Q1.5 8.6.2 5.6q-.4-1 .1-3.4" vector-effect="non-scaling-stroke"/></g><g id="S"><use xlink:href="#a" width="10.3" height="6.3"/><use xlink:href="#b" width="10.3" height="6.3"/></g><g id="R" transform="translate(9.15 12.5)"><use xlink:href="#c" width="17.7" height="19.1" transform="translate(-9 -12.5)"/><use xlink:href="#d" width="14.3" height="8.3" transform="translate(-9.15 4.25)"/><use xlink:href="#e" width="18.1" height="19.1" transform="translate(-9 -12.5)"/></g><g id="N"><use xlink:href="#f" width="9" height="10.8"/><use xlink:href="#g" width="9" height="10.8"/></g><g id="L" transform="translate(5.25 5.8)"><use xlink:href="#h" width="7.7" height="7.6" transform="translate(-1.8 -2.65)"/><use xlink:href="#i" width="13" height="14.9" transform="translate(-5.25 -5.8)"/><use xlink:href="#j" width="13.1" height="14.1" transform="translate(-5.25 -4.95)"/></g><g id="K"><use xlink:href="#k" width="10.7" height="10.8"/><use xlink:href="#l" width="10.7" height="10.8"/></g><use xlink:href="#m" id="a" width="10.3" height="6.3"/><use xlink:href="#n" id="d" width="14.3" height="8.3"/><use xlink:href="#o" id="c" width="17.7" height="19.1"/><use xlink:href="#p" id="g" width="9" height="10.8"/><use xlink:href="#q" id="i" width="13" height="14.9"/><use xlink:href="#r" id="k" width="10.7" height="10.8"/><use xlink:href="#s" id="Q" width="6.5" height="5.6"/><use xlink:href="#t" id="P" width="6.6" height="13.9"/><use xlink:href="#u" id="O" width="7.8" height="8.8"/><use xlink:href="#v" id="M" width="4.8" height="3.3"/><use xlink:href="#H" id="J" width="14.7" height="4.3"/><path id="n" fill="#24283c" d="M7-.1Q5.3 4.4.5 4.2t-5.9-1.5Q-6 1.9-6.6-.4-7.4-3-7-4.1q3.2 1.8 6.5 2.3 4.4.6 7.7-1.2z" transform="translate(7.2 4.1)"/><path id="q" fill="#24283c" d="m1.6-6.6.6-.9 3.3 3.3.2 2.2.2.2q.6.7.6 2 0 2.1-1.7 5.6L5 2.2 4.8.4l-.9-2.8-2.3.2v-.1L.3 1.4 0 2.7l-.2 1.6-.3 3.2q-1.2-2.8-3.2-4.3L-3 .4V.3l.6-1.5 1.5-2.6q-.8.5-1.4 1.3l-.8 1.3Q-3.9.5-4.2 3L-6-1.2q-1.2-2.7 0-4.3l.6.3h1.2l1-.7 1.6-.7 1.7-.8z" transform="translate(6.5 7.45)"/><path id="H" fill="#382c16" d="M5.8-1.9Q7.9-1.4 8-.5 8 .3 5.9 1 3.8 1.8.7 2l-5.2-.4Q-6.7 1.2-6.7.3q-.1-.8 2-1.6 2.2-.8 5.2-.9z" transform="translate(6.75 2.25)"/><path id="l" fill="none" stroke="#775020" stroke-linecap="round" stroke-linejoin="round" stroke-width="__RESOLUTION__" d="M3.7-1.7q1.8 4.6 1.5 8.3h-.9Q.7 6.6-5.4 9q2.2-4.7.3-9.8l5.7.1q.7-.1 3.1-1.1" transform="translate(5.45 1.75)" vector-effect="non-scaling-stroke"/><clipPath id="I"><path d="M1 1h29v35H1z"/></clipPath></defs><g clip-path="url(#I)"><g transform="translate(12.25 33.9)"><use xlink:href="#J" width="14.7" height="4.3" transform="matrix(-.8 0 0 .8 5.4 -1.8)"/><use xlink:href="#K" width="10.7" height="10.8" transform="matrix(-1 0 .2062 1.0663 8.55 -16.05)"/><use xlink:href="#L" width="13.1" height="14.9" transform="translate(2.2 -32.9)"/><use xlink:href="#M" width="4.8" height="3.3" transform="translate(-7.3 -3.6)"/><use xlink:href="#N" width="9" height="10.8" transform="translate(-7.5 -12.6)"/><use xlink:href="#O" width="7.8" height="8.8" transform="matrix(.997 .0744 -.153 .9118 -9.9 -21.55)"/><use xlink:href="#M" width="4.8" height="3.3" transform="translate(2.1 -1.9)"/><use xlink:href="#N" width="9" height="10.8" transform="translate(1.15 -10.7)"/><use xlink:href="#P" width="6.6" height="13.9" transform="matrix(1 .1404 -.2725 .8957 -6.75 -31.5)"/><use xlink:href="#Q" width="6.5" height="5.6" transform="matrix(-.7625 .7399 .8737 .7989 12.7 -13.55)"/><use xlink:href="#R" width="18.3" height="25" transform="translate(-7.8 -31.4)"/><use xlink:href="#O" width="7.8" height="8.8" transform="matrix(-.7474 .556 .6915 .7539 10.65 -18.85)"/><use xlink:href="#P" width="6.6" height="13.9" transform="matrix(-1.0128 .1831 .086 1.0079 12 -29.6)"/><use xlink:href="#S" width="10.3" height="6.3" transform="translate(-8.15 -13.95)"/></g></g></svg>