<svg xmlns="http://www.w3.org/2000/svg" xmlns:xlink="http://www.w3.org/1999/xlink" width="64" height="53" viewBox="0 0 64 53"><defs><path id="a" fill="#332e4b" d="M.7 3.4-.4 5Q-.2-.5-1-5l1.9.2z" transform="translate(.95 4.9)"/><path id="b" fill="#332e4b" d="M2.4-1.3Q.9-.9-.7 3.3l-1.7-1Q.3-2 1.5-3.2z" transform="translate(2.4 3.25)"/><path id="c" fill="#ede0b4" d="M1.3-.4 2 .9q1 1 .3 2l-1.1.9-.4.1-1.8.2-.3-.1q-.7-.2-1.1-1.2l.2-2.3-.5-3.1q.5-1.4 1-1.5 1.2-.1 1.7.7L1-.7z" transform="translate(2.65 4.1)"/><path id="d" fill="#332e4b" d="M1.2 3.9 0 2.8l-1.1-6.2 1.5-.4q0 3.5.8 7.7" transform="translate(1.15 3.8)"/><path id="e" fill="#493e67" d="M-.2-1 1-.5Q0-.1-.2 1.1L-.9.5z" transform="translate(.95 1.05)"/><path id="f" fill="#27233a" d="M-2.5-1.3v-.6q.2-1.2 1.2-1.5h.3l.2.3Q1-.8 2.5 2.7l-1.8.7q-1-4.3-3.2-4.7" transform="translate(2.5 3.45)"/><path id="g" fill="#27233a" d="M-3.2 2.4q2.8-2.6 5-6l1.4 1.4Q.6.4-1.7 3.7z" transform="translate(3.25 3.65)"/><path id="h" fill="#332e4b" d="M-1.2 3.9q.8-4.1.8-7.7l1.6.4L0 2.8z" transform="translate(1.2 3.8)"/><path id="i" fill="#332e4b" d="M1 4.3Q-.6.3-2.5-3.2l1.7-1.1Q.5-.1 2.6 3.4z" transform="translate(2.55 4.3)"/><path id="j" fill="#5e5085" d="m.8.4-1 .5-.5-1L.6-.7z" transform="translate(.75 .85)"/><path id="k" fill="#5e5085" d="M-.2-1 1-.5Q0-.1-.2 1.1L-.9.5z" transform="translate(.95 1.05)"/><path id="l" fill="#332e4b" d="M-2.5-1.3v-.6q.2-1.2 1.2-1.5h.3l.2.3Q1-.8 2.5 2.7l-1.8.7q-1-4.3-3.2-4.7" transform="translate(2.5 3.45)"/><path id="m" fill="#332e4b" d="M-3.2 2.4q2.8-2.6 5-6l1.4 1.4Q.6.4-1.7 3.7z" transform="translate(3.25 3.65)"/><path id="p" fill="none" stroke="#242436" stroke-linecap="round" stroke-linejoin="round" stroke-opacity=".4" stroke-width="__RESOLUTION__" d="m1.3.3-.2 8L-.1 10Q.1 4.5-.6.1" transform="translate(.6 -.1)" vector-effect="non-scaling-stroke"/><path id="r" fill="none" stroke="#242436" stroke-linecap="round" stroke-linejoin="round" stroke-opacity=".4" stroke-width="__RESOLUTION__" d="M3.9-3.5Q2.4-3.1.8 1L-1 0q2.8-4.3 4-5.5" transform="translate(.9 5.5)" vector-effect="non-scaling-stroke"/><path id="v" fill="none" stroke="#242436" stroke-linecap="round" stroke-linejoin="round" stroke-opacity=".4" stroke-width="__RESOLUTION__" d="M-1 .7.3 6.9l1.2 1Q.5 4 .5.4" transform="translate(.95 -.3)" vector-effect="non-scaling-stroke"/><path id="w" fill="none" stroke="#191726" stroke-linecap="round" stroke-linejoin="round" stroke-width="__RESOLUTION__" d="M.8.3Q-.7-3.2-2.5-5.4l-.2-.4m-1.5 2.2Q-2-3.2-1 1" transform="translate(4.2 5.8)" vector-effect="non-scaling-stroke"/><path id="A" fill="none" stroke="#1c1c2a" stroke-linecap="round" stroke-linejoin="round" stroke-opacity=".4" stroke-width="__RESOLUTION__" d="M.2-.1Q-2.6 2.6-5 5.8m-1.4-1.3q2.8-2.6 5-6" transform="translate(6.35 1.5)" vector-effect="non-scaling-stroke"/><path id="C" fill="none" stroke="#242436" stroke-linecap="round" stroke-linejoin="round" stroke-opacity=".4" stroke-width="__RESOLUTION__" d="M-1.2 7.6q.8-4.1.8-7.6l1.6.3L0 6.6z" transform="translate(1.2 .05)" vector-effect="non-scaling-stroke"/><path id="F" fill="none" stroke="#242436" stroke-linecap="round" stroke-linejoin="round" stroke-opacity=".4" stroke-width="__RESOLUTION__" d="m3.2 7.3-.8-1.6L-.3-.2l1.7-1.1q1 3.4 2.5 6.5l.7 1.3" transform="translate(.45 1.3)" vector-effect="non-scaling-stroke"/><path id="G" fill="none" stroke="#201e31" stroke-linecap="round" stroke-linejoin="round" stroke-width="__RESOLUTION__" d="M.8.3Q-.7-3.2-2.5-5.4l-.2-.4m-1.5 2.2Q-2-3.2-1 1" transform="translate(4.2 5.8)" vector-effect="non-scaling-stroke"/><path id="K" fill="none" stroke="#242436" stroke-linecap="round" stroke-linejoin="round" stroke-opacity=".4" stroke-width="__RESOLUTION__" d="M.2-.1Q-2.6 2.6-5 5.8m-1.4-1.3q2.8-2.6 5-6" transform="translate(6.35 1.5)" vector-effect="non-scaling-stroke"/><use xlink:href="#a" id="o" width="1.9" height="9.8"/><use xlink:href="#b" id="q" width="4.8" height="6.5"/><use xlink:href="#c" id="s" width="5.3" height="8.2"/><use xlink:href="#d" id="u" width="2.3" height="7.7"/><use xlink:href="#e" id="y" width="1.9" height="2.1"/><use xlink:href="#f" id="x" width="5" height="6.8"/><use xlink:href="#g" id="z" width="6.5" height="7.3"/><use xlink:href="#h" id="B" width="2.4" height="7.7"/><use xlink:href="#i" id="E" width="5.2" height="8.7"/><use xlink:href="#j" id="D" width="1.6" height="1.7"/><use xlink:href="#k" id="I" width="1.9" height="2.1"/><use xlink:href="#l" id="H" width="5" height="6.8"/><use xlink:href="#m" id="J" width="6.5" height="7.3"/><use xlink:href="#d" id="L" width="2.3" height="7.7" transform="scale(1.04 1.15)"/><use xlink:href="#n" id="Z" width="13.7" height="6.4"/><g id="t"><path fill="none" stroke="#000" stroke-linecap="round" stroke-linejoin="round" stroke-opacity=".3" stroke-width="__RESOLUTION__" d="m3.6 8-1.8.2-.3-.1Q.8 7.9.4 6.9l.2-2.4-.6-3Q.5.1 1.1 0q1.2-.1 1.6.7l1 2.7.2.3.9 1.3q.9 1 .3 2L4 7.9" vector-effect="non-scaling-stroke"/><path fill="#fff" fill-opacity=".3" d="M3.9 3.7 4.8 5q.9 1 .3 2L4 7.9q.6-.6.4-1.6 0-1.4-.6-2.5z"/><path fill="#000" fill-opacity=".3" d="M3.9 3.7h-.1q-.7.9-2.3.9-.6 3 .3 3.6L1.5 8Q.8 7.9.4 6.9l.2-2.4-.6-3Q.5.1 1.1 0q1.2-.1 1.6.7l1 2.7z"/><path fill="#fcf8f1" d="m5.7 6.5-.2.6-.7.5-.9-.1q-.3-.3-.4-1t.2-1 .6-.3l.9.6q.5.4.4.7"/><path fill="none" stroke="#000" stroke-linecap="round" stroke-linejoin="round" stroke-opacity=".3" stroke-width="__RESOLUTION__" d="M5.7 6.5q0-.3-.5-.7l-.8-.6q-.5-.1-.7.3t-.2 1 .4 1l.9.1.7-.5z" vector-effect="non-scaling-stroke"/><path fill="#fcf8f1" d="M3.9 6.7q.2.6 0 1l-.9.6-1-.1-.5-.5.2-.8.7-1 .8-.1q.4.2.7.9"/><path fill="none" stroke="#000" stroke-linecap="round" stroke-linejoin="round" stroke-opacity=".3" stroke-width="__RESOLUTION__" d="M3.9 6.7q.2.6 0 1l-.9.6-1-.1-.5-.5.2-.8.7-1 .8-.1q.4.2.7.9" vector-effect="non-scaling-stroke"/><path fill="#000" d="m4.2 6.9.1-.2.2-.1h.2V7l-.2.1zm-1 0 .1-.1h.2v.4l-.2.1-.1-.1-.1-.1z"/></g><g id="n"><path fill="#ab8b4b" d="m11.3.8-.7-.2L7.5 0l3.4.4h.2zl.2-.3q1.6.4 2 1l.1.2zM4.6.6 2.7 2 .8 3.5l-.7.7L0 4l.8-.6-.3-.1L2 2.1Q3.3 1 4.6.5m3 4.7.4.2v.8L7.5 6z"/><path fill="#d7b15e" d="m7.5 0 3 .6.8.2 2.3.9v.1l-.2.2.3.3-.3.6-.6.6h-.3l-.2.3-.2.2-1-.8h-.4l.7.7-.2.3.3.2-.6.3-1.2.1-.7.5h-.1l-.9.3v-.1L7 4.2v.6l-.2-.1-.1.7H5.6l-.7.5h-.6L4 5.4v-.1l-.8.5L3 4.7l-.4.3-.3-.1-.3.4H1L0 4.2l.7-.7 1.9-1.6 2-1.2Q6 0 7.5 0m-3 2.8L4 2.7q-1.1-.2-1.3-.8.2.6 1.3.8zm6-1.6V.5zm-.1 1.7.2.2z"/><path fill="#dbce9b" d="m12.8 3.5.6-.6.3-.6V3l-.8.9zm-.5.4.2.5-1.5 1-.1-.8.6-.2.5-.4h.1zM9 5.3l.2.7-1.2.3v-.7l.9-.2zm-4.7.6h1.3l.3.4-1.5.1z"/><path fill="#ada17a" d="m12.8 3.5.1.4h-.2l-.2.4-.2-.5.2-.3zM9.6 4.8l.2.6-.6.6-.2-.7zM6 5.5l.2.4-.3.4-.3-.4zm-2.8.3.8-.5V6l-.6.4z"/><path fill="#c2a66e" d="m12 4-.5.3v.1l-.3-.3.2-.2-.8-.8.5.1zM8 5.6l-.3-.2h-.1l-.8.1h-.1l.1-.8.2.1v-.6zm-1.3-.1H6l-.4.4V6h-.7l.7-.6.2.1zM2 5.1l.3-.3h.3l.4-.2.2 1-.1.1-.8-.1L1 5.1z"/><path fill="#77693e" d="M10.9 4.7v.7H9.8v-.6zm-4.1.7h.8v-.1l-.1.7-1.4-.1-.2-.4zm-2.7 0 .2.5.1.5-.5-.5zm-3-.1 1.3.4.8.1.1.5-2.6-.7L.3 5 0 4.2z"/><path fill="none" stroke="#734a1c" stroke-linecap="round" stroke-linejoin="round" stroke-opacity=".7" stroke-width="__RESOLUTION__" d="M11.1.4h-.2L7.5 0Q6 0 4.6.7 3.3 1.2 2 2L.5 3.3m11 1.1L12 4h0m-.5.3-.6.3-1.2.1-.7.5h-.1l-.9.3v-.1l-.3-.2h-.1l-.8.1H6l-.4.4V6h-.7" vector-effect="non-scaling-stroke"/><path fill="none" stroke="#9a6f27" stroke-linecap="round" stroke-linejoin="round" stroke-width="__RESOLUTION__" d="M2.7 1.9q.2.6 1.3.8l.5.1m6-2.2v.6m.7 2h-.5l.7.7-.2.3.3.2m-4.4-.1-.1.6-.2-.1-.1.7h.1m3.9-2.2-.3-.2M4.8 5.9l.7-.5m.3 0h.9m-3.5.4-.1-1.1-.4.3-.3-.1-.3.4" vector-effect="non-scaling-stroke"/><path fill="none" stroke="#452c11" stroke-linecap="round" stroke-linejoin="round" stroke-opacity=".7" stroke-width="__RESOLUTION__" d="m13.6 1.7-.1-.2q-.4-.6-2-1m2.1 1.8-.2.6-.6.6h-.4l-.1.3-.2.2m.8-.1.8-1v-.6l-.3-.3.2-.2h0v-.2m-1.1 2.8.1-.5h.3m-2 1.5 1.5-1M9.3 6l.6-.6H11m-3.4.5.5.3L9.2 6m-5.1-.6.1.5h.5m1.4 0h1.4m-6.4-.7 1.3.4.8.2h0l.8-.5v0M4 6l.5.5L6 6.4l.2-.4M4 5.9l-.6.4-2.5-.7L.3 5 0 4.2V4v0m0 .2 1.1 1" vector-effect="non-scaling-stroke"/><path fill="none" stroke="#e6c69e" stroke-linecap="round" stroke-linejoin="round" stroke-opacity=".7" stroke-width="__RESOLUTION__" d="m12 4-.8-.8M8 5.6 7 4.2M5.6 5.4h.3m-3.7-.2H1" vector-effect="non-scaling-stroke"/><path fill="none" stroke="#ffd070" stroke-linecap="round" stroke-linejoin="round" stroke-opacity=".7" stroke-width="__RESOLUTION__" d="m11.2 1.3-.1.5M3.9 4h-.6Q2 3.6 1.8 2.9" vector-effect="non-scaling-stroke"/><path fill="#c9a358" d="m3 2 .5-.8L4.8.8h1.4l.7.5q.1.5-.4.8t-1.3.6l-1.5-.1Q3.1 2.4 3 2m9.4.6q-.4.5-1.2.7L9.4 3q-.8-.2-1.2-.7-.5-.5-.2-1T9.3.8h1.6q1 .4 1.4.9t0 .9"/><path fill="#f2cc95" fill-opacity=".6" d="M2.5 2.4Q4.2.9 5.6.4 3.9 1.6 2.7 3.2zm10.9-.1q.1.3-.2.6H13l-.2.4-.2.1-.5.4Q8.8 1 6.2.1l3.3.4.3.7.8-.1z"/><path fill="#c9a358" d="M4.6 2.8q1 .3 1.5.8t-.1 1q-.4.5-1.5.7l-2.1-.1Q1.4 5 1 4.4q-.4-.5 0-1t1.6-.6q1-.2 2 0"/><path fill="#9a6f27" d="M.2 4.8 0 4q1.8-1.8 3.3-2.5Q1.5 3 .2 4.8m3 .9 1.5-2.3-.6 2z"/><path fill="#9e8341" d="m7.4 2-.5.1H6q-.4-.1-.4-.4z"/><path fill="#aa9755" d="M5.7 1.7q-.1-.2.2-.5l.7-.3h.1q.7 0 1.3.6l-.3.3-.3.2z"/><path fill="#d4b161" d="M6.7.9h.8l.5.4v.2Q7.3.9 6.7.9"/><path fill="#9a6f27" d="M10.9 4.6h-.7l-.6-1.4z"/><path fill="#9e8341" d="M12.5 1.5H12l-.8-.1q-.3-.1-.3-.3.6.4 1.5.4"/><path fill="#aa9755" d="m10.9 1 .2-.3.7-.1h.1q.5 0 1.1.6l-.3.2-.3.1q-.9 0-1.5-.4"/><path fill="#d4b161" d="m11.9.6.7.1.5.4-.1.1q-.6-.5-1.1-.6"/><path fill="#9e8341" d="M9.4 2.6h-.8l-.3-.3z"/><path fill="#aa9755" d="m8.3 2.4.2-.3.5-.2.7.4-.1.1-.3.2z"/><path fill="#d4b161" d="M9 1.9h.5l.2.3zM1.4 3.5l.7-.1.4.3V4q-.5-.5-1.1-.5"/><path fill="#aa9755" d="m2.5 4-.2.2-.3.2-1.5-.1q-.1-.2.2-.4.2-.3.6-.4h.1q.6 0 1.1.4"/><path fill="#9e8341" d="m2 4.4-.4.2H.8l-.3-.3z"/></g><g id="Y"><use xlink:href="#o" width="1.9" height="9.8"/><use xlink:href="#p" width="1.9" height="9.8"/></g><g id="X"><use xlink:href="#q" width="4.8" height="6.5"/><use xlink:href="#r" width="4.8" height="6.5"/></g><g id="W"><use xlink:href="#s" width="5.3" height="8.2"/><use xlink:href="#t" width="5.7" height="8.3"/></g><g id="V"><use xlink:href="#u" width="2.3" height="7.7"/><use xlink:href="#v" width="2.3" height="7.7"/></g><g id="U" transform="translate(4.9 6.4)"><use xlink:href="#w" width="5" height="6.8" transform="translate(-4.2 -5.8)"/><use xlink:href="#x" width="5" height="6.8" transform="translate(-4.2 -5.8)"/><use xlink:href="#y" width="1.9" height="2.1" transform="translate(-4.9 -6.4)"/></g><g id="T"><use xlink:href="#z" width="6.5" height="7.3"/><use xlink:href="#A" width="6.5" height="7.3"/></g><g id="S"><use xlink:href="#B" width="2.4" height="7.7"/><use xlink:href="#C" width="2.4" height="7.7"/></g><g id="R" transform="translate(.45 1.3)"><use xlink:href="#D" width="1.6" height="1.7" transform="translate(3.15 6.5)"/><use xlink:href="#E" width="5.2" height="8.7" transform="translate(-.45 -1.3)"/><use xlink:href="#F" width="5" height="8.6" transform="translate(-.45 -1.3)"/></g><g id="Q" transform="translate(4.9 6.4)"><use xlink:href="#G" width="5" height="6.8" transform="translate(-4.2 -5.8)"/><use xlink:href="#H" width="5" height="6.8" transform="translate(-4.2 -5.8)"/><use xlink:href="#I" width="1.9" height="2.1" transform="translate(-4.9 -6.4)"/></g><g id="P"><use xlink:href="#J" width="6.5" height="7.3"/><use xlink:href="#K" width="6.5" height="7.3"/></g><g id="O" transform="translate(2.45 -1.7)"><use xlink:href="#L" width="2.4" height="8.8" transform="translate(-2.45 1.7)"/><use xlink:href="#v" width="2.3" height="7.7" transform="matrix(1.04 0 0 1.15 -2.45 1.7)"/></g><clipPath id="M"><path d="M1 1h62v51H1z"/></clipPath></defs><g clip-path="url(#M)"><g transform="translate(35.35 45.65)"><use xlink:href="#O" width="2.4" height="8.8" transform="matrix(-1 0 0 1 13.45 -10.25)"/><use xlink:href="#P" width="6.5" height="7.3" transform="matrix(-.7802 .1299 0 .8597 1.85 -18.15)"/><use xlink:href="#Q" width="5.7" height="7.5" transform="matrix(-.7113 .7309 .7339 .6845 -3.15 -18.95)"/><use xlink:href="#R" width="5.2" height="9.5" transform="rotate(27.885 18.74 -26.14)scale(-.7573 .7573)"/><use xlink:href="#S" width="2.4" height="7.7" transform="matrix(-.7389 -.1679 -.2796 .7614 -15.05 -7.45)"/><use xlink:href="#T" width="6.5" height="7.3" transform="matrix(-1.2448 .1536 .1536 1.2448 12 -19.7)"/><use xlink:href="#U" width="5.7" height="7.5" transform="matrix(-.9386 .4 .5106 .9572 6.3 -20.15)"/><use xlink:href="#V" width="2.3" height="7.7" transform="matrix(-1 0 0 1 18.55 -9.25)"/><use xlink:href="#T" width="6.5" height="7.3" transform="matrix(-1 0 0 1 19.15 -15.25)"/><use xlink:href="#U" width="5.7" height="7.5" transform="matrix(-1 0 0 1 14.05 -15.85)"/><use xlink:href="#W" width="5.7" height="8.3" transform="translate(-11 -38.15)scale(4.32)"/><use xlink:href="#X" width="4.8" height="6.5" transform="matrix(-1.4553 .1213 0 1.4553 -1.4 -16.4)"/><use xlink:href="#R" width="5.2" height="9.5" transform="matrix(-1 0 0 1 -6.55 -14.35)"/><use xlink:href="#Y" width="1.9" height="9.8" transform="matrix(-1 0 0 1 -10.6 -6.2)"/><use xlink:href="#Z" width="13.7" height="6.4" transform="matrix(4.4285 -.1529 .1739 4.32 -34.35 -42.6)"/><use xlink:href="#X" width="4.8" height="6.5" transform="matrix(-1 0 0 1 2.6 -10.9)"/><use xlink:href="#R" width="5.2" height="9.5" transform="matrix(-1 0 0 1 -1.3 -10.45)"/><use xlink:href="#S" width="2.4" height="7.7" transform="matrix(-1 0 0 1 -4.25 -1.55)"/></g></g></svg>