<svg xmlns="http://www.w3.org/2000/svg" xmlns:xlink="http://www.w3.org/1999/xlink" width="2075" height="51" viewBox="0 0 2075 51"><defs><clipPath id="z"><path d="M1 1h60v49H1z"/></clipPath><clipPath id="N"><path d="M62 1h60v49H62z"/></clipPath><clipPath id="P"><path d="M123 1h60v49h-60z"/></clipPath><clipPath id="R"><path d="M184 1h60v49h-60z"/></clipPath><clipPath id="T"><path d="M245 1h60v49h-60z"/></clipPath><clipPath id="V"><path d="M306 1h60v49h-60z"/></clipPath><clipPath id="X"><path d="M367 1h60v49h-60z"/></clipPath><clipPath id="Z"><path d="M428 1h60v49h-60z"/></clipPath><clipPath id="aa"><path d="M489 1h60v49h-60z"/></clipPath><clipPath id="ab"><path d="M550 1h60v49h-60z"/></clipPath><clipPath id="ad"><path d="M611 1h60v49h-60z"/></clipPath><clipPath id="ae"><path d="M672 1h60v49h-60z"/></clipPath><clipPath id="af"><path d="M733 1h60v49h-60z"/></clipPath><clipPath id="ah"><path d="M794 1h60v49h-60z"/></clipPath><clipPath id="ai"><path d="M855 1h60v49h-60z"/></clipPath><clipPath id="aj"><path d="M916 1h60v49h-60z"/></clipPath><clipPath id="ak"><path d="M977 1h60v49h-60z"/></clipPath><clipPath id="al"><path d="M1038 1h60v49h-60z"/></clipPath><clipPath id="am"><path d="M1099 1h60v49h-60z"/></clipPath><clipPath id="ao"><path d="M1160 1h60v49h-60z"/></clipPath><clipPath id="aq"><path d="M1221 1h60v49h-60z"/></clipPath><clipPath id="as"><path d="M1282 1h60v49h-60z"/></clipPath><clipPath id="at"><path d="M1343 1h60v49h-60z"/></clipPath><clipPath id="au"><path d="M1404 1h60v49h-60z"/></clipPath><clipPath id="av"><path d="M1465 1h60v49h-60z"/></clipPath><clipPath id="aw"><path d="M1526 1h60v49h-60z"/></clipPath><clipPath id="ax"><path d="M1587 1h60v49h-60z"/></clipPath><clipPath id="ay"><path d="M1648 1h60v49h-60z"/></clipPath><clipPath id="az"><path d="M1709 1h60v49h-60z"/></clipPath><clipPath id="aA"><path d="M1770 1h60v49h-60z"/></clipPath><clipPath id="aB"><path d="M1831 1h60v49h-60z"/></clipPath><clipPath id="aC"><path d="M1892 1h60v49h-60z"/></clipPath><clipPath id="aD"><path d="M1953 1h60v49h-60z"/></clipPath><clipPath id="aE"><path d="M2014 1h60v49h-60z"/></clipPath><use xlink:href="#a" id="e" width="11.8" height="8.6"/><use xlink:href="#b" id="u" width="11.8" height="8.6"/><use xlink:href="#c" id="ar" width="8.8" height="7.2"/><use xlink:href="#d" id="ap" width="8.8" height="7.2"/><use xlink:href="#e" id="an" width="11.8" height="8.6" transform="scale(.4854 .3947)skewX(7.59)"/><use xlink:href="#f" id="ag" width="8.2" height="7.8"/><use xlink:href="#g" id="ac" width="8.8" height="7.2"/><use xlink:href="#h" id="Y" width="8.8" height="7.2"/><use xlink:href="#i" id="W" width="8.8" height="7.2"/><use xlink:href="#j" id="U" width="8.8" height="7.2"/><use xlink:href="#k" id="S" width="8.8" height="7.2"/><use xlink:href="#l" id="Q" width="8.8" height="7.2"/><use xlink:href="#m" id="O" width="8.8" height="7.2"/><use xlink:href="#n" id="M" width="9.4" height="10.6"/><use xlink:href="#o" id="L" width="21.9" height="18.3"/><use xlink:href="#p" id="K" width="20.7" height="13.9"/><use xlink:href="#q" id="J" width="18.7" height="14.3"/><use xlink:href="#r" id="I" width="13.8" height="9.5"/><use xlink:href="#s" id="H" width="10.3" height="5.7"/><use xlink:href="#e" id="G" width="11.8" height="8.6" transform="matrix(-.4861 0 -.0398 .4519 6.1 0)"/><use xlink:href="#t" id="F" width="10.3" height="5.7"/><use xlink:href="#u" id="E" width="11.8" height="8.6" transform="scale(.4854 .3947)skewX(7.59)"/><use xlink:href="#v" id="D" width="8" height="9.1"/><use xlink:href="#w" id="C" width="9.2" height="18.4"/><use xlink:href="#x" id="B" width="8.8" height="7.2"/><use xlink:href="#y" id="A" width="14.7" height="4.3"/><g id="a"><path fill="#9b5447" d="M1.9 8.4.5 6.7 0 .7 1.7 0l4.9.4 4.5 2 .6 1.6-1.2 3.2-.4.1.7-2.1-.1-.2-2.5.2L7.4 8l-.7.2.5-2.4-.1-.1-.1-.2-2.7-.2zm4-4 1 1.1zm4-.7.8 1.3z"/><path fill="#e8b67d" d="m11.7 4 .2.6-1.1 2.5-.3.1zM10 7.3 7.4 8l.8-2.8 2.5-.2.1.2zm-3.4.9h-.2L2 8.6l-.2-.2 2.4-3.1 2.7.3.1.1z"/><path fill="none" stroke="#000" stroke-linecap="round" stroke-linejoin="round" stroke-opacity=".3" stroke-width="__RESOLUTION__" d="M1.9 8.4.5 6.7 0 .7 1.7 0l4.9.4 4.5 2 .6 1.6.2.6-1.1 2.5-.3.1-.4.1-2.7.7-.8.2h0L2 8.6zm5-2.9-1-1m4.2 2.8.7-2.1-.1-.2-.8-1.3M6.6 8.2l.5-2.4v-.1" vector-effect="non-scaling-stroke"/></g><g id="b"><path fill="#6a3940" d="M1.9 8.4.5 6.7 0 .7 1.7 0l4.9.4 4.5 2 .6 1.6-1.2 3.2-.4.1.7-2.1-.1-.2-2.5.2L7.4 8l-.7.2.5-2.4-.1-.1-.1-.2-2.7-.2zm4-4 1 1.1zm4-.7.8 1.3z"/><path fill="#9f7d65" d="m11.7 4 .2.6-1.1 2.5-.3.1zM10 7.3 7.4 8l.8-2.8 2.5-.2.1.2zm-3.4.9h-.2L2 8.6l-.2-.2 2.4-3.1 2.7.3.1.1z"/><path fill="none" stroke="#000010" stroke-linecap="round" stroke-linejoin="round" stroke-opacity=".3" stroke-width="__RESOLUTION__" d="M1.9 8.4.5 6.7 0 .7 1.7 0l4.9.4 4.5 2 .6 1.6.2.6-1.1 2.5-.3.1-.4.1-2.7.7-.8.2h0L2 8.6zm5-2.9-1-1m4.2 2.8.7-2.1-.1-.2-.8-1.3M6.6 8.2l.5-2.4v-.1" vector-effect="non-scaling-stroke"/></g><g id="c" fill="#f3d38b" fill-opacity=".3"><path d="M8.7 3.7q.3 1-.5 2-.7 1-2.1 1.3l-2.6-.1Q2.3 6.5 2 5.4t.5-2T4.7 2h2.5q1.2.6 1.5 1.6"/><path d="M4.5 2.2q.8.7.9 1.6t-.6 1.6q-.7.5-1.9.5t-2-.6T0 3.9t.6-1.6q.8-.6 1.9-.6t2 .6"/><path d="M7.2 3q0 1.2-.6 2.1T4.8 6 2.9 5q-.9-.8-1-2T2.5.7 4.3 0t1.9.9 1 2"/></g><g id="d" fill="#f3d38b" fill-opacity=".4"><path d="M8.7 3.7q.3 1-.5 2-.7 1-2.1 1.3l-2.6-.1Q2.3 6.5 2 5.4t.5-2T4.7 2h2.5q1.2.6 1.5 1.6"/><path d="M4.5 2.2q.8.7.9 1.6t-.6 1.6q-.7.5-1.9.5t-2-.6T0 3.9t.6-1.6q.8-.6 1.9-.6t2 .6"/><path d="M7.2 3q0 1.2-.6 2.1T4.8 6 2.9 5q-.9-.8-1-2T2.5.7 4.3 0t1.9.9 1 2"/></g><g id="f"><path fill="#e8b67d" d="M5.4 0q1.8 1.3 2.4 3.2-3.6 1.4-6 3L.6 4.7q-1.1-1.2-.5-2 2-1.6 5.2-2.7"/><path fill="#9b5447" d="M7.9 3.2q.3 1 .3 2.1-2.1 1.6-5.1 2.6L1.7 6.1q2.4-1.6 6-3"/><path fill="none" stroke="#000" stroke-linecap="round" stroke-linejoin="round" stroke-opacity=".3" stroke-width="__RESOLUTION__" d="M8.2 5.3Q6.1 6.9 3.1 7.9m-3-5.1Q2.2 1 5.4 0" vector-effect="non-scaling-stroke"/></g><g id="g" fill="#f3d38b" fill-opacity=".5"><path d="M8.7 3.7q.3 1-.5 2-.7 1-2.1 1.3l-2.6-.1Q2.3 6.5 2 5.4t.5-2T4.7 2h2.5q1.2.6 1.5 1.6"/><path d="M4.5 2.2q.8.7.9 1.6t-.6 1.6q-.7.5-1.9.5t-2-.6T0 3.9t.6-1.6q.8-.6 1.9-.6t2 .6"/><path d="M7.2 3q0 1.2-.6 2.1T4.8 6 2.9 5q-.9-.8-1-2T2.5.7 4.3 0t1.9.9 1 2"/></g><g id="h" fill="#f3d38b" fill-opacity="0"><path d="M8.7 3.7q.3 1-.5 2-.7 1-2.1 1.3l-2.6-.1Q2.3 6.5 2 5.4t.5-2T4.7 2h2.5q1.2.6 1.5 1.6"/><path d="M4.5 2.2q.8.7.9 1.6t-.6 1.6q-.7.5-1.9.5t-2-.6T0 3.9t.6-1.6q.8-.6 1.9-.6t2 .6"/><path d="M7.2 3q0 1.2-.6 2.1T4.8 6 2.9 5q-.9-.8-1-2T2.5.7 4.3 0t1.9.9 1 2"/></g><g id="i" fill="#f3d38b" fill-opacity="0"><path d="M8.7 3.7q.3 1-.5 2-.7 1-2.1 1.3l-2.6-.1Q2.3 6.5 2 5.4t.5-2T4.7 2h2.5q1.2.6 1.5 1.6"/><path d="M4.5 2.2q.8.7.9 1.6t-.6 1.6q-.7.5-1.9.5t-2-.6T0 3.9t.6-1.6q.8-.6 1.9-.6t2 .6"/><path d="M7.2 3q0 1.2-.6 2.1T4.8 6 2.9 5q-.9-.8-1-2T2.5.7 4.3 0t1.9.9 1 2"/></g><g id="j" fill="#f3d38b" fill-opacity=".1"><path d="M8.7 3.7q.3 1-.5 2-.7 1-2.1 1.3l-2.6-.1Q2.3 6.5 2 5.4t.5-2T4.7 2h2.5q1.2.6 1.5 1.6"/><path d="M4.5 2.2q.8.7.9 1.6t-.6 1.6q-.7.5-1.9.5t-2-.6T0 3.9t.6-1.6q.8-.6 1.9-.6t2 .6"/><path d="M7.2 3q0 1.2-.6 2.1T4.8 6 2.9 5q-.9-.8-1-2T2.5.7 4.3 0t1.9.9 1 2"/></g><g id="k" fill="#f3d38b" fill-opacity=".1"><path d="M8.7 3.7q.3 1-.5 2-.7 1-2.1 1.3l-2.6-.1Q2.3 6.5 2 5.4t.5-2T4.7 2h2.5q1.2.6 1.5 1.6"/><path d="M4.5 2.2q.8.7.9 1.6t-.6 1.6q-.7.5-1.9.5t-2-.6T0 3.9t.6-1.6q.8-.6 1.9-.6t2 .6"/><path d="M7.2 3q0 1.2-.6 2.1T4.8 6 2.9 5q-.9-.8-1-2T2.5.7 4.3 0t1.9.9 1 2"/></g><g id="l" fill="#f3d38b" fill-opacity=".2"><path d="M8.7 3.7q.3 1-.5 2-.7 1-2.1 1.3l-2.6-.1Q2.3 6.5 2 5.4t.5-2T4.7 2h2.5q1.2.6 1.5 1.6"/><path d="M4.5 2.2q.8.7.9 1.6t-.6 1.6q-.7.5-1.9.5t-2-.6T0 3.9t.6-1.6q.8-.6 1.9-.6t2 .6"/><path d="M7.2 3q0 1.2-.6 2.1T4.8 6 2.9 5q-.9-.8-1-2T2.5.7 4.3 0t1.9.9 1 2"/></g><g id="m" fill="#f3d38b" fill-opacity=".2"><path d="M8.7 3.7q.3 1-.5 2-.7 1-2.1 1.3l-2.6-.1Q2.3 6.5 2 5.4t.5-2T4.7 2h2.5q1.2.6 1.5 1.6"/><path d="M4.5 2.2q.8.7.9 1.6t-.6 1.6q-.7.5-1.9.5t-2-.6T0 3.9t.6-1.6q.8-.6 1.9-.6t2 .6"/><path d="M7.2 3q0 1.2-.6 2.1T4.8 6 2.9 5q-.9-.8-1-2T2.5.7 4.3 0t1.9.9 1 2"/></g><g id="n"><path fill="#9b5447" d="m6 7.7-.6 1-1.6 1.5Q1 11.3 2 8.8l1.1-1.6-1.5.9Q-.8 8.9.4 6.9q1.4-2 2.9-1.7l-2-.6Q0 3.3 1.2 2.8L1.9 4l2.3.9v1L6 4.5l1.1-.2.3.7q-1.2.2-2.3 1-.5 1 .4 1.4l.3.1zM4.6 3.1 4 1.2q.3-1 .7-1.1l.7 3.6z"/><path fill="#e8b67d" d="M1.1 2.7q1.6-.9 3 .3l.5.5v-.4l.9.6L4.8 0q.3-.2.8.3l1.5 3.8-1.1.2-1.8 1.5-.2-1-2.3-1zm6.3 2.2H8q1.5.5 1.3 1.5-1.5 1.4-3.3 1h-.3l-.3-.1Q4.6 7 5.1 6q1.2-1 2.3-1.1"/><path fill="none" stroke="#1b1b21" stroke-linecap="round" stroke-linejoin="round" stroke-opacity=".3" stroke-width="__RESOLUTION__" d="m6 7.7-.6 1-1.6 1.5Q1 11.3 2 8.8l1.1-1.6-1.5.9Q-.8 8.9.4 6.9q1.4-2 2.9-1.7l-2-.6Q0 3.3 1.2 2.8h0q1.6-.9 3 .4h.5l-.7-2q.3-1 .7-1.1t.8.3L7 4.2l.3.7h.8q1.4.5 1.2 1.5-1.5 1.4-3.3 1zl-.2-.3-.3-.1Q4.6 7 5.1 6q1.2-1 2.3-1.1m-3-1.8.1.4-.4-.4m1.6 4.3H6" vector-effect="non-scaling-stroke"/></g><g id="o"><path fill="none" stroke="#1b1b21" stroke-linecap="round" stroke-linejoin="round" stroke-opacity=".3" stroke-width="__RESOLUTION__" d="m15.4 5 .2-.8" vector-effect="non-scaling-stroke"/><path fill="#e8b67d" d="M8.1 9.2Q7.3 6.9 4.4 6l-1.6-.2q-1.2.6-1.4 1.8l.2 1.7-.1.4.4 1 2.8 2.4.1.2-1.2.4q-1.6-.2-3-2.4-.8-1.5-.5-4.1L.5 6l1-1.6 4 .5q2.3 1.2 3.2 3l-.5 1z"/><path fill="#9b5447" d="m4.9 13.4-.2-.2L2 10.9l-.5-1.1v-.4l-.1-1.7q.2-1.2 1.4-1.8l1.6.2q2.9.8 3.7 3v.1l.3.5-.4-.2-.4 1-.5 1.2Q6 12.9 5 13.4"/><path fill="none" stroke="#003" stroke-linecap="round" stroke-linejoin="round" stroke-opacity=".3" stroke-width="__RESOLUTION__" d="M8.7 8q-.9-1.8-3.1-3l-4.1-.5L.5 6 0 7.3q-.2 2.6.6 4.2 1.4 2.1 3 2.3l1.2-.4" vector-effect="non-scaling-stroke"/><path fill="none" stroke="#000" stroke-linecap="round" stroke-linejoin="round" stroke-opacity=".3" stroke-width="__RESOLUTION__" d="M8.2 9.3V9" vector-effect="non-scaling-stroke"/><path fill="#e8b67d" d="M21.8 9.5q0-1.8-.9-4-.6-1-2-1.5-1.2 0-2.3 1l-1.3 2.3-.2-.3q.7-2.5 2-3.5v.1q1.5-1 3 0 1.7 1.4 1.8 4V9z"/><path fill="#e3a764" d="M15.4 7.3 16.6 5q1-1 2.3-1 1.4.4 2 1.5.9 2.2.9 4l-.4.6q-1.2 2.1-3.3 1.5l-.2-.4q2-.2 3.3-2.4.2-1.4-.5-2.9-1.4-1.9-3.4-.8-1.4 1-1.7 2.6z"/><path fill="#9b5447" d="M15.6 7.7Q15.9 6 17.3 5q2-1.1 3.4.9.7 1.4.5 2.8-1.3 2.2-3.3 2.4z"/><path fill="none" stroke="#1b1b21" stroke-linecap="round" stroke-linejoin="round" stroke-opacity=".3" stroke-width="__RESOLUTION__" d="M21.8 9.5 22 9l-.1-1.3q0-2.7-1.8-4.1-1.5-1-3 0v-.1m-2 3.5.3.3.1.4 2.3 3.5.3.4q2 .6 3.2-1.5l.5-.6" vector-effect="non-scaling-stroke"/><path fill="none" stroke="#000" stroke-linecap="round" stroke-linejoin="round" stroke-opacity=".4" stroke-width="__RESOLUTION__" d="M17.2 3.5Q15.7 4.5 15 7" vector-effect="non-scaling-stroke"/><path fill="#9b5447" d="m15.7 5-3 .4q2.2.6 1 1-4 0-3.7-.8l-.5 1.5q-.6 2.1 2.7 3.5-1.9.3-2.5 2-.7 2.2 1.4 4.2.6.5 2.7.8 2 .9 4.8-.6-2.8 1.8-5 1.1l-4.5-.2q-2.9-.9-4-2.6.2-2.6 1.3-3.8v-.3l1.1-4.3v-.1q1.6-1.9 3.9-2.2l4.1.3z"/><path fill="#e8b67d" d="M18.6 17q-2.8 1.5-4.8.6-2.1-.3-2.7-.8-2.1-2-1.4-4.2.6-1.7 2.5-2-3.3-1.4-2.7-3.5l.5-1.5q-.3.8 3.7.8 1.2-.5-1-1l3-.5q3.5 1.5 3.1 5.4 1.6 1.4 1.9 2.4l.3 1.6q-.5 1.3-1.5 2z"/><path fill="none" stroke="#1b1b21" stroke-linecap="round" stroke-linejoin="round" stroke-opacity=".3" stroke-width="__RESOLUTION__" d="m15.7 5-.2-.1-4.1-.3q-2.3.3-3.9 2.2v.1m-1 4.3-.1.3q-1.1 1.2-1.2 3.8 1 1.7 3.9 2.6l4.6.2q2.1.7 4.9-1.1l1-.7q.9-.7 1.4-2l-.3-1.6q-.3-1-1.9-2.4.4-3.9-3.2-5.4" vector-effect="non-scaling-stroke"/><path fill="red" fill-opacity=".3" d="M17.6 12.5q-.4-.2-.3-.6l.4-.7 1-.3 1 .2q.3.3.2.7t-.4.6l-1 .3zm-7.8-.9 1.5-.2q.9 0 1.5.5t.5 1-.8.8l-1.5.2-1.4-.5q-.6-.4-.6-1 .1-.5.8-.8"/><path fill="#3d3d3d" d="m17.8 15.3-.4.3q-1 .7-1.7.3-.8-.5-1-1.8t.5-1.8l.1-.2q.7 2.4 2 .9.7.8.5 2.3"/><path fill="#666" d="M15.3 12.2q.6-.5.8-.4l1 .3q.7.3 1 1.6.3 1-.3 1.6.2-1.5-.5-2.3-1.4 1.5-2-.8"/><path fill="none" stroke="#003" stroke-linecap="round" stroke-linejoin="round" stroke-opacity=".3" stroke-width="__RESOLUTION__" d="m17.8 15.3-.4.3q-1 .7-1.7.3-.8-.5-1-1.8t.5-1.8l.1-.2q.6-.4.8-.3l1 .3q.7.3 1 1.6.3 1-.3 1.6" vector-effect="non-scaling-stroke"/><path fill="#c09" d="M14.4 1.2q.5.5-.1 2Q12 4.3 9.6 4.8h-.1l-.1-.1v-.2l2.4-2-2.1 2.1q2.7-.6 4-2.1zm-1.9 5.5q-.1.6-.7 1.2-1.9-1.1-2.5-2.2v-.2l.1-.2 1.9 1.1-1.8-.7q.5.8 2.3 1.5.4 0 .7-.5m-3.3 3.5q-.6.2-1.2-1.8l.6-2.2h.1L9 8.4V5.9l-.3.3-.1 2.4q0 1 .6 1.6M7.6 7.9l-.4.7q-1.7 1.4-2.5.7-1.3-1.6-.3-3.1L8 5.5v.3l.3.3L6 7.8l1.8-2q-1.2.3-2.1 1L5.3 8q0 1.2 1.3.3zm.5-2.5Q6 5.4 4.4 4.3 3.2 2 5 2.1l.1.7q-.1.7 1.8 1.5l.7.3-1.5-1.4 2.3 1.3-.2.3-.1.3zm0-1.6-.2-2.2Q8.2.2 9 .2l1-.3-1 1q-.6 1-.3 2.3v.6l.6-2L9 4.2h-.3l-.2.1z"/><path fill="#f9f" d="m9.5 4.8 2.5.5q.7.6.5 1.4-.2.5-.7.5-1.8-.7-2.4-1.5l1.8.7-1.8-1.2v.1zm-.4 1L10.3 8q-.6 2-1.2 2.1-.5-.5-.5-1.5l.1-2.5.2 2.3zm-.7.4-.8 1.6-1 .5q-1.3.9-1.3-.4l.5-1.2q.9-.6 2-1L6.3 7.9zM5 2h.4q1.5.6 2.6 2l.4.5-.1.1L6 3.3l1.5 1.3-.7-.2Q5 3.5 5.1 2.8zm5-2q.3 0 .5.6v1L9.3 4.3h-.1L9 4.2l.3-2.3-.5 2-.2-.6Q8.5 2 9 1zm-.8 4.4Q11 1.6 12.9.7q1.2-.1 1.6.5l-.6 1.3Q12.3 4 9.7 4.6l2-2.1-2.3 2z"/><path fill="#fc3" d="M9.3 5.7q-1 .4-.7-1.3l.2-.2h.5v.1l.2.2v1z"/><path fill="#8c7100" d="m9.2 5.8-.2.1-.3.2h-.4L8 5.8v-.7l.2-.3.2-.3v-.1h.1q-.3 1.7.7 1.4"/><path fill="none" stroke="#000" stroke-linecap="round" stroke-linejoin="round" stroke-opacity=".3" stroke-width="__RESOLUTION__" d="M5.4 2.2q1.5.3 2.7 1.6l.4.5" vector-effect="non-scaling-stroke"/><path fill="#000" d="m13.5 10.4-.2-.2-.2-.1h-.2l-.1.3.1.3h.5zm-.7-.2-.7-.6.9.5.1-.1-.2-.8.3.8.6.3.2.6-.2.7q-.2.3-.5.3t-.6-.3l-.1-.7v-.3l-.8-.5.9.2z"/><path fill="#fff" d="m13.5 10.4-.2.3H13l-.1-.3.1-.2.2-.1h.3z"/><path fill="#000" d="m17.1 9.5.4-.6-.2.6v.1l.7-.4-.5.5v.2l.8-.2-.6.4v.3l-.2.6-.4.3-.4-.3-.1-.6.1-.6zm.3.2-.2-.1-.1.1-.1.3v.1l.2.1h.2v-.3z"/><path fill="#fff" d="M17.4 9.7v.4l-.2.1h-.1l-.1-.3v-.2l.2-.1z"/><path fill="#b93a31" d="m13.2 7.8.3.5-.3.5q-.2.3-.5.3l-.5-.3-.3-.5.2-.5.6-.2zm3 .3-.3-.5.2-.5.6-.2.5.1.3.6-.3.5q-.2.3-.5.3t-.5-.3"/></g><g id="p"><path fill="#bee732" d="m12.3 4.9 1.7-1 3.2 7.3-2.3 1.6zm3.1-1.7.9-.5 3 3.2v1.4l-.6 2zm-3.5 10.6q-1.6.3-3.3 0l.2-8.7h1.6zM6 12.6l-2.4-2.1L4.8 5l.3.1H7z"/><path fill="#360" d="m14 3.9 1.4-.7 3.3 6.1-1.3 1.7-.2.2zm2.3-1.2.5-.4 2.1.1q.4 1.6.5 3.5zm-1.5 10.1q-1.4.7-2.9 1l-1.5-8.7 1.7-.1.2-.1zm-6.2 1L7 13.5l-1-.8 1-7.5L8.7 5zm-5-3.3-2.1-3v-.2L2.8 5h2z"/><path fill="none" stroke="#1b1b21" stroke-linecap="round" stroke-linejoin="round" stroke-opacity=".3" stroke-width="__RESOLUTION__" d="m12.3 4.9 1.7-1 1.4-.7.9-.5.5-.3h2.1q.4 1.6.5 3.5l-.1 1.4-.6 2-1.3 1.7-.2.2-2.3 1.6q-1.4.7-3 1-1.5.3-3.3 0L7 13.5l-1-.8-2.4-2.2-2.1-3h0v-.2L1.8 5h-.3m9 0H12l.2-.1 2.5 7.9m4.5-7-3-3.1M14 3.9l3.2 7.3m-1.8-8 3.3 6.1m-10-4.2H7l-1 7.6M10.5 5H8.6l-.1 8.7M1.9 4.5l-.1.5h1l2 .1.3.1H7M2.8 5 1.5 7.3v.2m3.4-2.3-1.4 5.3m8.5 3.3L10.4 5" vector-effect="non-scaling-stroke"/><path fill="#f7d0ed" d="m15.8 9.4-1.9-4.5-.1 1.2-.8-1.8-.6 1 .2 1.8q-.7-.3-1.1-1.4l.4 2.9.3 2-.2-.2-1.6-4 .2 1.9-1.9-2.5.2 1h-.3V7l-.5-.9v1.1L6.9 5.4 6.4 7l-.3 2-.5-1.8-.4 1.3-.4-1.9v-.7L4 7.2 3.5 6v.4L1.8 8l1-2.4-.9.8.4-1.7-.1.1L1 6.3l.4-1.1.3-.6.4-1.1q1.1.7 3 1.2 6.7.8 11.3-2.6 1.4-.8 2.3-2 .2 1.7 2 2l-.2.2-1.8-.6.9.7h-.2l.9 1.9q.3.9.1 1.8l-1-2-.7-1.3-.9-.5.3.8q.3.8.4 2.3v1.8l-1.3-4.5-.6.5-.2 2.7-.8-1.7V6l-.3-1.3L15 6l.5 2zM15 5.9"/><path fill="#ed96d8" d="m12.6 7.1-.2-1.7.6-1.2.8 1.9.1-1.2 1.9 4.5-.5-.5L13 5.6v1.6zM15.1 6l.2-1.4.3 1.3V4l.9 1.7.1-2.7.6-.6L18.4 7v.1l-.2-.4q-.6-1.9-1.2-2.5-.3 1.1.1 2.4-.9-.4-1.4-1.4.4.7.3 1.4-.6-.2-.9-.7m3-3-.3-.8.8.5.8 1.3 1 2-.1.5L19 3.9zm1.4-.6-.8-.7 1.7.5zM1.4 5 1 6.2l1.3-1.3.1-.2-.3 1.6.7-.7L2 8l1.5-1.7v-.4L4 7.2l.7-1.4v.3l-.6 3.7-.6-2V6.2v.5l-.9 2-.8 1.8-.3-2.2v-1l.2-1.2Q.5 7.3 0 6.7zm3.8 3.4.3-1.3.6 1.8.3-2 .5-1.5 1.2 1.7v-1l.6.9v1.9q0-.4-.8-1.1l-1-1.4-.2 1.3q-.6 2.2 0 3.6-1-1.5-1.5-2.9m3.7-1.6-.2-1 2 2.5-.3-1.9 1.7 4-.4-.5-1-1.1-1.5-1.9zm-6.6-2-.6 1.4z"/><path fill="#000" fill-opacity=".3" d="m15.6 8-.5-2q.4.5 1 .7 0-.7-.4-1.4.6 1 1.5 1.4-.5-1.3-.2-2.4.6.6 1.2 2.5l-.2.9-.4-1.5-.2 2.1-.9-.8.2 1.4zm3-2.2v-.5Q18.4 3.8 18 3h.1l.9.9v2.7zm-13.8.8.4 1.9q.5 1.3 1.5 2.7-.5-1.3 0-3.4L7 6.4l.9 1.3q.8.7.9 1.2L8.6 7v-.2h.3l.3.1 1.5 1.9 1 1.1.8 2.3-3-3-.2 1.8-2-2.9.4 4.3-.7-.5v1l-2.2-3v1.7L3.3 9.4l-.5.9-.2-1.6.9-1.9v1l.6 2 .6-3.7zm7.1 2-.4-2.9q.4 1 1.1 1.4l.3.1V5.6l2.5 3.3v1.4l-2-2 .1 1.5z"/><path fill="none" stroke="#1b1b21" stroke-linecap="round" stroke-linejoin="round" stroke-opacity=".3" stroke-width="__RESOLUTION__" d="M15.8 9.4 15.6 8l-.5-2v-.2.1q.4.6 1 .7 0-.6-.4-1.3.6 1 1.5 1.4-.5-1.3-.2-2.4.6.6 1.2 2.5l.1.4.1-.1.2-1.3v-.5Q18.4 3.8 18 3v0h.1l.9.9 1.3 2.6.1-.4q.2-1-.1-1.9l-.8-1.9h0l1-.1.2-.2q-1.8-.3-2-2-.9 1.2-2.3 2-4.6 3.4-11.2 2.6-2-.4-3.1-1.2l-.4 1-.3.7L0 6.8q.6.5 1.7-.6l-.2 1.1v1.1l.3 2.2.8-1.8.9-2V6m5.2 1-.1-.2h.3l.3.1 1.5 1.9 1 1.1.4.4.2.2-.4-2-.4-2.8q.4 1 1.1 1.4l.3.1V5.6l2.5 3.3.4.4M1.7 6.2l.6-1.3m2.5 1-.1.2-.6 3.7-.6-2v-1m5.2.2v1.9q0-.5-.8-1.2l-1-1.4-.2 1.4q-.6 2.2 0 3.5-1-1.4-1.5-2.8" vector-effect="non-scaling-stroke"/><path fill="none" stroke="#000" stroke-linecap="round" stroke-linejoin="round" stroke-opacity=".4" stroke-width="__RESOLUTION__" d="m4.8 6.6.4 1.9M4.7 6l.1.5" vector-effect="non-scaling-stroke"/></g><g id="q"><path fill="#e8b67d" d="m17.5 5.9-4.3-.4L6.7 7l.2-3.1L8.6 3q1.1-.1 2.5.8l.8.3q-1.1-1.5-3-1.8-1.3 0-2 .6l-.4-1.5L13.9.3q2.4 3.2 3.6 5.6m-9.4 8.3L7.8 12q0-1 .8-1.4Q10 9 11.5 8.5l.9-.2 2.9.8 3-1.4.3 1.4q-4.4 4.7-10.5 5.1"/><path fill="#9b5447" d="M6.5 1.5 6.9 3q.7-.6 2-.6 1.9.3 3 1.8l-.8-.3Q9.7 3 8.6 3.1l-1.7.8-.2 3 6.5-1.4 4.3.4.8 1.8-3 1.4-2.9-.8-1 .2q-1.3.5-2.8 2-.7.5-.8 1.5l.3 2.2q-3.3.2-7-.8l-.2-.2q-.6-1.9 0-3.7 1-4 3.5-7.7z"/><path fill="#e19e55" d="M4.4 1.9Q1.9 5.5.9 9.5q-.6 1.9 0 3.8-1-1-.8-2.7Q1.4 5.2 3.9 2z"/><path fill="none" stroke="#1b1b21" stroke-linecap="round" stroke-linejoin="round" stroke-opacity=".3" stroke-width="__RESOLUTION__" d="M17.5 5.9Q16.3 3.5 13.9.3L6.5 1.5l-2.1.4h-.5m-3 11.4.2.1q3.7 1 7 .8 6-.4 10.5-5.1l-.3-1.4-.8-1.8M.1 10.7q-.2 1.7.8 2.6" vector-effect="non-scaling-stroke"/><path fill="#e8b67d" d="m12.2 4.5 1.6-1.3q.7-.5 1.6-.4h.4q-1 1.9-3.7 3.3l-.1-.6zm-1 1.9v.2Q9 5 6.2 4.6q1.5-1 2.9-.5 1.8.6 2.1 1.6z"/><path fill="#bee732" d="m15.5 2.8-.3-.3-1-2.2.5-.2L16 2.4l.4.1q.9.2 1.6 1 .6.6.6 1.4l-.1.7q-.2 1.2-1.4 2v-.1q1.4-1.5.6-3.1L16.3 3Q15 5.5 12.1 6.7l-.2-.4v-.1l-.6.2-.1-.6v-.1l.6-.1.2-.1.1.6q2.7-1.4 3.7-3.3l.2-.4-.2.4zm-4.3 3.8-.1.7-.2.2Q9.1 5.8 5.7 4.9l.2-.2h.2q2.9.4 5.1 2m.7-.5.2-.1z"/><path fill="#360" d="M17.2 7.6q-1.2.7-2.6.6T12.5 7l-.3-.4q2.9-1.2 4.2-3.6l1.5 1.3q.8 1.6-.6 3.1zm-6.3 0q-.5 1-1.7 1.7-1.3.8-2.8.7T4.2 8.9l-.4-1-3-.1.4-1 2.6.2v-.4l1-1.4-.3.2-2.4-3.9 1.2.1v.1l2.4 3.1q3.4.9 5.2 2.8m5-5.2h.2zM3.9 7v1z"/><path fill="none" stroke="#000" stroke-linecap="round" stroke-linejoin="round" stroke-opacity=".4" stroke-width="__RESOLUTION__" d="M13.8 3.2q.7-.5 1.6-.5h.4l.1-.3M3.9 8l-3-.2.4-1 2.6.2M6 4.6q1.5-1 3-.5 1.8.6 2.1 1.6m.8-.2.2-1m3.6-1.8q-1 2-3.7 3.3l-.2.1m.1-.6.1.5m-.9.6Q9 5 6.2 4.6" vector-effect="non-scaling-stroke"/><path fill="none" stroke="#1b1b21" stroke-linecap="round" stroke-linejoin="round" stroke-opacity=".3" stroke-width="__RESOLUTION__" d="m15.5 2.7-.3-.3-1-2.2.5-.2L16 2.4l.4.1q.9.2 1.6 1 .6.6.6 1.4l-.1.7q-.2 1.2-1.4 2h0q-1.2.7-2.5.6T12.5 7l-.4-.4-.2-.4v-.1l-.6.2-.1.2-.1.7-.1.2h-.1q-.5 1.1-1.7 1.8-1.3.8-2.8.7t-2.2-1l-.4-1V6.7l1-1.4-.3.2-2.4-3.9 1.2.1h.2l-.1.1 2.3 3.1.2-.2h.2m5.1 1.1.6-.2h.2-.2M16 2.4h.1zm-4.7 4-.2-.7h.1m-7.9-4" vector-effect="non-scaling-stroke"/></g><g id="r"><path fill="#e8b67d" d="M1.8 3q5.6-3 10.5-3l.6.9q-.6 1.9-2.2 3.7-3.8 2.6-8.1 1.1l.2-.9z"/><path fill="#9b5447" d="M12.9.9q1 1.6.8 3.2.2 1.2-1.1 2.5Q11 8.8 8.2 9.4 2.8 9.9.3 7.7q-.7-2 .1-4h.1L1.8 3l1 1.9-.2.8q4.3 1.5 8.1-1.1 1.6-1.8 2.2-3.7"/><path fill="none" stroke="#1b1b21" stroke-linecap="round" stroke-linejoin="round" stroke-opacity=".3" stroke-width="__RESOLUTION__" d="M1.8 3q5.6-3 10.5-3l.6.9q1 1.6.8 3.2.2 1.2-1.1 2.5Q11 8.8 8.2 9.4 2.8 9.9.3 7.7q-.7-2 .1-4h.1z" vector-effect="non-scaling-stroke"/></g><g id="s"><path fill="#360" d="M3 .2q-1 2.1-.8 4.1l.1 1.3h-.2l-.7-.2-.3-.1q-.7-.4-.6-.9Q-1 3.1 1.9.3h.5zm1.3 5.5q-.2-1-.1-2.2.2-2 1-3.5h1.4l.7.1Q6.3 2.6 6 5.5h-.1l-.5.1h-.5zM9.6.5l.7.2-.4 1.8Q9.6 4 8.1 5.2l-.4.1Q9.5 3.1 9.6.5"/><path fill="#bee732" d="m2.3 5.6-.1-1.3q-.3-2 .7-4.1l.8-.1L5.3 0q-.8 1.5-1 3.5-.1 1.3.1 2.2h-1zm5.5-.3-1 .2H6Q6.3 2.6 7.3.1l.9.1 1.4.2q-.1 2.7-1.8 4.9"/><path fill="none" stroke="#000" stroke-linecap="round" stroke-linejoin="round" stroke-opacity=".3" stroke-width="__RESOLUTION__" d="M.5 4.4q-.1.5.6.9m.3.1.7.2h3.3l.5-.1m4-3Q9.6 4 8.1 5.2l-.4.1-.9.2h-.9" vector-effect="non-scaling-stroke"/></g><g id="t"><path fill="#234610" d="M3 .2q-1 2.1-.8 4.1l.1 1.3h-.2l-.7-.2-.3-.1q-.7-.4-.6-.9Q-1 3.1 1.9.3h.5zm1.3 5.5q-.2-1-.1-2.2.2-2 1-3.5h1.4l.7.1Q6.3 2.6 6 5.5h-.1l-.5.1h-.5zM9.6.5l.7.2-.4 1.8Q9.6 4 8.1 5.2l-.4.1Q9.5 3.1 9.6.5"/><path fill="#829e32" d="m2.3 5.6-.1-1.3q-.3-2 .7-4.1l.8-.1L5.3 0q-.8 1.5-1 3.5-.1 1.3.1 2.2h-1zm5.5-.3-1 .2H6Q6.3 2.6 7.3.1l.9.1 1.4.2q-.1 2.7-1.8 4.9"/><path fill="none" stroke="#000010" stroke-linecap="round" stroke-linejoin="round" stroke-opacity=".3" stroke-width="__RESOLUTION__" d="M.5 4.4q-.1.5.6.9m.3.1.7.2h3.3l.5-.1m4-3Q9.6 4 8.1 5.2l-.4.1-.9.2h-.9" vector-effect="non-scaling-stroke"/></g><g id="v"><path fill="#9b5447" d="m5.1 1.4 2.8 5.2H7q-1.8.1-3.2-.4l-.5-.9.8-1.7-.2-1L2.3 1 3 .6l.8-.2z"/><path fill="#e8b67d" d="m3.9.4-1 .1-.6.5L4 2.5l.2 1.1-.8 1.7.5.9q1.4.5 3.3.5l.7-.1.1.3-1 1.5-1.2-.1.2-1.1-2.2 1.6q-1.9.9-1.5-.8l1.2-1-.1-.4-2 1.2q-1.7.5-1.3-1l3-2.6.5-1-2.2-2V.5L3.7.2z"/><path fill="none" stroke="#1b1b21" stroke-linecap="round" stroke-linejoin="round" stroke-opacity=".3" stroke-width="__RESOLUTION__" d="M5.1 1.4 3.9.4 3.7.2 1.4.4v.9l2.2 1.9-.4 1L0 6.8q-.4 1.5 1.4 1l2-1.2.1.4-1.2 1q-.4 1.7 1.5.8L6 7.2l-.2 1.1H7l1-1.5" vector-effect="non-scaling-stroke"/></g><g id="w"><path fill="#9b5447" d="m0 15 2.3-.8.6.8q3.5-5.1 3-10.6-.8-2.7-2.2-4 1.9-.8 3.2 0 1.2.1 1.6 2.3 1.2 2.6.4 6.4-2.3 6.9-5.5 9.3-2 .1-3.4-1.5v-.1z"/><path fill="#e8b67d" d="M3.7.4q1.4 1.4 2.2 4 .5 5.5-3 10.6l-.6-.8L0 15Q.2 7 2.7.8z"/><path fill="none" stroke="#1b1b21" stroke-linecap="round" stroke-linejoin="round" stroke-opacity=".3" stroke-width="__RESOLUTION__" d="M3.5 18.4Q6.7 16 8.9 9.1M3.7.3l-1 .5q-2.5 6-2.7 14" vector-effect="non-scaling-stroke"/></g><g id="x" fill="#f3d38b" fill-opacity=".3"><path d="M8.7 3.7q.3 1-.5 2-.7 1-2.1 1.3l-2.6-.1Q2.3 6.5 2 5.4t.5-2T4.7 2h2.5q1.2.6 1.5 1.6"/><path d="M4.5 2.2q.8.7.9 1.6t-.6 1.6q-.7.5-1.9.5t-2-.6T0 3.9t.6-1.6q.8-.6 1.9-.6t2 .6"/><path d="M7.2 3q0 1.2-.6 2.1T4.8 6 2.9 5q-.9-.8-1-2T2.5.7 4.3 0t1.9.9 1 2"/></g><path id="y" fill="#382c16" d="M5.8-1.9Q7.9-1.4 8-.5 8 .3 5.9 1 3.8 1.8.7 2l-5.2-.4Q-6.7 1.2-6.7.3q-.1-.8 2-1.6 2.2-.8 5.2-.9z" transform="translate(6.75 2.25)"/></defs><g clip-path="url(#z)"><g transform="translate(35.95 44.1)"><use xlink:href="#A" width="14.7" height="4.3" transform="matrix(.799 0 0 .8008 -7.1 -2.25)"/><use xlink:href="#B" width="8.8" height="7.2" transform="matrix(-1.9635 -.7078 -.1538 .3748 -13.05 -3.4)"/><use xlink:href="#C" width="9.2" height="18.4" transform="matrix(-.302 .9388 .787 .2844 2.9 -34.05)"/><use xlink:href="#D" width="8" height="9.1" transform="matrix(-.9749 -.1417 .1673 -.9463 20 -22.35)"/><use xlink:href="#E" width="6.3" height="3.4" transform="matrix(.6876 -.7791 .7823 .6892 8 -7.55)"/><use xlink:href="#F" width="10.3" height="5.7" transform="matrix(.6459 -.8479 1.0195 .7939 -3.25 -10.8)"/><use xlink:href="#G" width="6.1" height="3.9" transform="matrix(.9305 .3498 -.5074 .8815 -16.65 -15.45)"/><use xlink:href="#H" width="10.3" height="5.7" transform="matrix(.6903 .9904 -1.0727 1.1736 -8.25 -21.7)"/><use xlink:href="#I" width="13.8" height="9.5" transform="rotate(12.554 145.136 -83.825)scale(.9993)"/><use xlink:href="#J" width="18.7" height="14.3" transform="matrix(.8758 .0398 -.2198 .9805 -7.05 -29.4)"/><use xlink:href="#K" width="20.7" height="13.9" transform="matrix(.8728 .1621 -.1638 .8785 -11 -22.35)"/><use xlink:href="#L" width="21.9" height="18.3" transform="translate(-9.75 -43.1)"/><use xlink:href="#M" width="9.4" height="10.6" transform="rotate(1.994 946.219 -634.513)scale(.9975)"/></g></g><g clip-path="url(#N)"><g transform="translate(96.95 44.1)"><use xlink:href="#A" width="14.7" height="4.3" transform="matrix(.799 0 0 .8008 -6.5 -2.1)"/><use xlink:href="#O" width="8.8" height="7.2" transform="matrix(-1.9769 -.7115 -.1466 .3576 -13.5 -3.5)"/><use xlink:href="#C" width="9.2" height="18.4" transform="matrix(-.3049 .9371 .784 .2825 3.05 -33.7)"/><use xlink:href="#D" width="8" height="9.1" transform="matrix(-.975 -.0989 .1342 -.9507 20.35 -22.4)"/><use xlink:href="#E" width="6.3" height="3.4" transform="matrix(.7255 -.7349 .7583 .7219 8.7 -6.6)"/><use xlink:href="#F" width="10.3" height="5.7" transform="matrix(.6908 -.8121 .9744 .8205 -2.6 -10.35)"/><use xlink:href="#G" width="6.1" height="3.9" transform="matrix(.9136 .3888 -.5434 .858 -15.55 -15)"/><use xlink:href="#H" width="10.3" height="5.7" transform="matrix(.6558 .9965 -1.1302 1.0876 -7.2 -20.95)"/><use xlink:href="#I" width="13.8" height="9.5" transform="matrix(.9672 .1753 -.1781 .9827 -14 -32.7)"/><use xlink:href="#J" width="18.7" height="14.3" transform="matrix(.8683 .0234 -.1925 .9845 -6.7 -28.75)"/><use xlink:href="#K" width="20.7" height="13.9" transform="matrix(.8724 .1618 -.1631 .8781 -10.35 -21.8)"/><use xlink:href="#L" width="21.9" height="18.3" transform="translate(-9.25 -42.6)"/><use xlink:href="#M" width="9.4" height="10.6" transform="matrix(.9973 .0305 -.0225 .9974 -20.75 -32.15)"/></g></g><g clip-path="url(#P)"><g transform="translate(157.95 44.1)"><use xlink:href="#A" width="14.7" height="4.3" transform="matrix(.799 0 0 .8008 -5.95 -1.95)"/><use xlink:href="#Q" width="8.8" height="7.2" transform="matrix(-1.992 -.7171 -.1398 .3408 -14.05 -3.5)"/><use xlink:href="#C" width="9.2" height="18.4" transform="matrix(-.3056 .937 .7814 .2817 3.15 -33.25)"/><use xlink:href="#D" width="8" height="9.1" transform="matrix(-.9735 -.0598 .1012 -.9544 20.9 -22.35)"/><use xlink:href="#E" width="6.3" height="3.4" transform="matrix(.7625 -.6894 .7364 .7529 9.45 -5.85)"/><use xlink:href="#F" width="10.3" height="5.7" transform="matrix(.737 -.7732 .9296 .8471 -2 -9.85)"/><use xlink:href="#G" width="6.1" height="3.9" transform="matrix(.8956 .4283 -.5804 .8333 -14.5 -14.65)"/><use xlink:href="#H" width="10.3" height="5.7" transform="matrix(.623 1.0028 -1.1807 1.0037 -6.3 -20.1)"/><use xlink:href="#I" width="13.8" height="9.5" transform="matrix(.9578 .1349 -.1394 .989 -13.25 -31.85)"/><use xlink:href="#J" width="18.7" height="14.3" transform="matrix(.8605 .0084 -.17 .9877 -6.25 -28.2)"/><use xlink:href="#K" width="20.7" height="13.9" transform="matrix(.8724 .1618 -.1631 .8781 -9.7 -21.3)"/><use xlink:href="#L" width="21.9" height="18.3" transform="translate(-8.75 -42.1)"/><use xlink:href="#M" width="9.4" height="10.6" transform="matrix(.9977 .0263 -.0135 .9978 -20.05 -31)"/></g></g><g clip-path="url(#R)"><g transform="translate(218.95 44.1)"><use xlink:href="#A" width="14.7" height="4.3" transform="matrix(.799 0 0 .8008 -5.35 -1.8)"/><use xlink:href="#S" width="8.8" height="7.2" transform="matrix(-2.0071 -.7228 -.1329 .324 -14.5 -3.65)"/><use xlink:href="#C" width="9.2" height="18.4" transform="matrix(-.3095 .9359 .7779 .2835 3.3 -32.95)"/><use xlink:href="#D" width="8" height="9.1" transform="matrix(-.9705 -.0177 .0712 -.9567 21.25 -22.4)"/><use xlink:href="#E" width="6.3" height="3.4" transform="matrix(.7967 -.642 .7107 .7856 10.15 -4.95)"/><use xlink:href="#F" width="10.3" height="5.7" transform="matrix(.781 -.7317 .8872 .8685 -1.45 -9.35)"/><use xlink:href="#G" width="6.1" height="3.9" transform="matrix(.876 .4671 -.6162 .8071 -13.3 -14.25)"/><use xlink:href="#H" width="10.3" height="5.7" transform="matrix(.5903 1.008 -1.2253 .9178 -5.25 -19.25)"/><use xlink:href="#I" width="13.8" height="9.5" transform="matrix(.9467 .0957 -.1004 .9938 -12.5 -31)"/><use xlink:href="#J" width="18.7" height="14.3" transform="matrix(.8526 -.0007 -.1442 .9907 -5.8 -27.65)"/><use xlink:href="#K" width="20.7" height="13.9" transform="matrix(.8724 .1618 -.1631 .8781 -9 -20.75)"/><use xlink:href="#L" width="21.9" height="18.3" transform="translate(-8.2 -41.55)"/><use xlink:href="#M" width="9.4" height="10.6" transform="matrix(.9982 .0228 -.0049 .9982 -19.35 -29.9)"/></g></g><g clip-path="url(#T)"><g transform="translate(279.95 44.1)"><use xlink:href="#A" width="14.7" height="4.3" transform="matrix(.799 0 0 .8008 -4.75 -1.65)"/><use xlink:href="#U" width="8.8" height="7.2" transform="matrix(-2.0222 -.7284 -.126 .3072 -14.95 -3.7)"/><use xlink:href="#C" width="9.2" height="18.4" transform="matrix(-.3134 .9348 .7754 .2828 3.45 -32.55)"/><use xlink:href="#D" width="8" height="9.1" transform="matrix(-.9657 .0175 .0381 -.9583 21.65 -22.45)"/><use xlink:href="#E" width="6.3" height="3.4" transform="matrix(.828 -.5931 .6862 .8151 10.85 -4.1)"/><use xlink:href="#F" width="10.3" height="5.7" transform="matrix(.8204 -.6904 .8414 .8908 -.7 -8.85)"/><use xlink:href="#G" width="6.1" height="3.9" transform="matrix(.8546 .5049 -.6509 .7793 -12.2 -13.8)"/><use xlink:href="#H" width="10.3" height="5.7" transform="matrix(.5611 1.0103 -1.2666 .8261 -4.3 -18.5)"/><use xlink:href="#I" width="13.8" height="9.5" transform="matrix(.9341 .0575 -.0614 .9971 -11.7 -30.2)"/><use xlink:href="#J" width="18.7" height="14.3" transform="matrix(.8443 -.0152 -.1184 .9932 -5.4 -27.15)"/><use xlink:href="#K" width="20.7" height="13.9" transform="matrix(.8724 .1618 -.1631 .8781 -8.35 -20.25)"/><use xlink:href="#L" width="21.9" height="18.3" transform="translate(-7.7 -41.05)"/><use xlink:href="#M" width="9.4" height="10.6" transform="matrix(.9986 .0183 .001 .9984 -17.75 -29)"/></g></g><g clip-path="url(#V)"><g transform="translate(340.95 44.1)"><use xlink:href="#A" width="14.7" height="4.3" transform="matrix(.799 0 0 .8008 -4.2 -1.5)"/><use xlink:href="#W" width="8.8" height="7.2" transform="matrix(-2.0372 -.7341 -.1191 .2904 -15.5 -3.75)"/><use xlink:href="#C" width="9.2" height="18.4" transform="matrix(-.3142 .9347 .7729 .282 3.65 -32.15)"/><use xlink:href="#D" width="8" height="9.1" transform="matrix(-.9591 .0588 .005 -.9587 22.15 -22.45)"/><use xlink:href="#E" width="6.3" height="3.4" transform="matrix(.8564 -.5426 .6578 .846 11.65 -3.25)"/><use xlink:href="#F" width="10.3" height="5.7" transform="matrix(.8598 -.6441 .7953 .9109 -.1 -8.4)"/><use xlink:href="#G" width="6.1" height="3.9" transform="matrix(.8316 .5418 -.6844 .7501 -11.1 -13.45)"/><use xlink:href="#H" width="10.3" height="5.7" transform="matrix(.5288 1.0137 -1.2988 .7373 -3.4 -17.7)"/><use xlink:href="#I" width="13.8" height="9.5" transform="matrix(.9199 .0205 -.0222 .9989 -10.95 -29.3)"/><use xlink:href="#J" width="18.7" height="14.3" transform="matrix(.8359 -.0294 -.0959 .9946 -5 -26.5)"/><use xlink:href="#K" width="20.7" height="13.9" transform="matrix(.8724 .1618 -.1631 .8781 -7.65 -19.75)"/><use xlink:href="#L" width="21.9" height="18.3" transform="translate(-7.2 -40.55)"/><use xlink:href="#M" width="9.4" height="10.6" transform="matrix(.999 .0179 .0097 .9986 -16.2 -28.1)"/></g></g><g clip-path="url(#X)"><g transform="translate(401.95 44.1)"><use xlink:href="#A" width="14.7" height="4.3" transform="matrix(.799 0 0 .8008 -3.6 -1.35)"/><use xlink:href="#Y" width="8.8" height="7.2" transform="matrix(-2.0529 -.7451 -.1127 .2738 -16.05 -3.9)"/><use xlink:href="#C" width="9.2" height="18.4" transform="matrix(-.3201 .9339 .7707 .2828 3.7 -31.85)"/><use xlink:href="#D" width="8" height="9.1" transform="matrix(-.9512 .098 -.0247 -.9579 22.45 -22.5)"/><use xlink:href="#E" width="6.3" height="3.4" transform="matrix(.8817 -.4939 .6312 .8757 12.3 -2.45)"/><use xlink:href="#F" width="10.3" height="5.7" transform="matrix(.8972 -.5975 .7521 .9287 .55 -7.85)"/><use xlink:href="#G" width="6.1" height="3.9" transform="matrix(.8083 .5787 -.7182 .7201 -9.95 -13)"/><use xlink:href="#H" width="10.3" height="5.7" transform="matrix(.4977 1.0172 -1.3265 .649 -2.6 -16.8)"/><use xlink:href="#I" width="13.8" height="9.5" transform="matrix(.9043 -.0142 .0157 .9991 -10.1 -28.55)"/><use xlink:href="#J" width="18.7" height="14.3" transform="matrix(.8273 -.0431 -.0712 .9959 -4.6 -26)"/><use xlink:href="#K" width="20.7" height="13.9" transform="matrix(.8728 .1621 -.1638 .8785 -6.95 -19.3)"/><use xlink:href="#L" width="21.9" height="18.3" transform="translate(-6.7 -40.05)"/><use xlink:href="#M" width="9.4" height="10.6" transform="matrix(.9995 .0173 .0216 .9986 -14.6 -27.3)"/></g></g><g clip-path="url(#Z)"><g transform="translate(462.95 44.1)"><use xlink:href="#A" width="14.7" height="4.3" transform="matrix(.799 0 0 .8008 -3.85 -1.4)"/><use xlink:href="#Y" width="8.8" height="7.2" transform="matrix(-2.0529 -.7451 -.1127 .2738 -16.05 -3.9)"/><use xlink:href="#C" width="9.2" height="18.4" transform="matrix(-.2354 .9571 .7486 .2015 4.9 -29.6)"/><use xlink:href="#D" width="8" height="9.1" transform="matrix(-.9408 .1416 -.0877 -.9522 23.15 -22.3)"/><use xlink:href="#E" width="6.3" height="3.4" transform="matrix(.9833 -.3587 .4 .9618 11.9 -2.5)"/><use xlink:href="#F" width="10.3" height="5.7" transform="matrix(.9457 -.4883 .631 .9238 2.25 -8)"/><use xlink:href="#G" width="6.1" height="3.9" transform="matrix(.7916 .5985 -.7352 .7002 -7.75 -13.85)"/><use xlink:href="#H" width="10.3" height="5.7" transform="matrix(.2767 1.0676 -1.3535 .3508 .15 -16.35)"/><use xlink:href="#I" width="13.8" height="9.5" transform="matrix(.872 -.0044 .053 .997 -7.85 -27.75)"/><use xlink:href="#J" width="18.7" height="14.3" transform="matrix(.8281 -.0189 -.0961 .9934 -2.45 -25.55)"/><use xlink:href="#K" width="20.7" height="13.9" transform="matrix(.8595 .2186 -.2515 .8586 -5.15 -19.4)"/><use xlink:href="#L" width="21.9" height="18.3" transform="rotate(1.502 1508.88 -178.145)scale(.9998)"/><use xlink:href="#M" width="9.4" height="10.6" transform="matrix(.9988 .0008 .1203 .9749 -12.15 -26.2)"/></g></g><g clip-path="url(#aa)"><g transform="translate(523.95 44.1)"><use xlink:href="#A" width="14.7" height="4.3" transform="matrix(.799 0 0 .8008 -4.1 -1.45)"/><use xlink:href="#Y" width="8.8" height="7.2" transform="matrix(-2.0529 -.7451 -.1127 .2738 -16.05 -3.9)"/><use xlink:href="#C" width="9.2" height="18.4" transform="matrix(-.1543 .9729 .7186 .1301 6.2 -27.35)"/><use xlink:href="#D" width="8" height="9.1" transform="matrix(-.9278 .1892 -.1497 -.9425 23.8 -22.3)"/><use xlink:href="#E" width="6.3" height="3.4" transform="matrix(1.0652 -.2031 .1666 .9919 11.45 -2.6)"/><use xlink:href="#F" width="10.3" height="5.7" transform="matrix(.9835 -.3743 .5157 .9082 3.8 -8.1)"/><use xlink:href="#G" width="6.1" height="3.9" transform="matrix(.7755 .6191 -.7533 .6806 -5.5 -14.75)"/><use xlink:href="#H" width="10.3" height="5.7" transform="matrix(.0566 1.0735 -1.3199 .0696 2.7 -15.75)"/><use xlink:href="#I" width="13.8" height="9.5" transform="matrix(.8397 .0004 .0921 .9934 -5.6 -26.8)"/><use xlink:href="#J" width="18.7" height="14.3" transform="matrix(.8283 .0001 -.1221 .9904 -.25 -25)"/><use xlink:href="#K" width="20.7" height="13.9" transform="matrix(.843 .2744 -.3403 .829 -3.3 -19.4)"/><use xlink:href="#L" width="21.9" height="18.3" transform="rotate(3.005 744.627 -50.053)scale(.9997)"/><use xlink:href="#M" width="9.4" height="10.6" transform="matrix(.9979 -.0092 .2143 .9417 -9.55 -25.1)"/></g></g><g clip-path="url(#ab)"><g transform="translate(584.95 44.1)"><use xlink:href="#A" width="14.7" height="4.3" transform="matrix(.799 0 0 .8008 -4.35 -1.5)"/><use xlink:href="#ac" width="8.8" height="7.2" transform="matrix(-.8022 -.2459 -.0164 .8827 6.3 -4.55)"/><use xlink:href="#C" width="9.2" height="18.4" transform="matrix(-.0703 .9823 .6825 .0636 7.5 -25.2)"/><use xlink:href="#D" width="8" height="9.1" transform="matrix(-.9135 .2347 -.2126 -.9291 24.35 -22.25)"/><use xlink:href="#E" width="6.3" height="3.4" transform="matrix(1.1217 -.0339 -.0585 .968 11.05 -2.75)"/><use xlink:href="#F" width="10.3" height="5.7" transform="matrix(1.0074 -.2634 .4107 .8803 5.4 -8.1)"/><use xlink:href="#G" width="6.1" height="3.9" transform="matrix(.7601 .6403 -.7724 .6613 -3.3 -15.5)"/><use xlink:href="#H" width="10.3" height="5.7" transform="matrix(-.1536 1.0353 -1.2311 -.1827 4.85 -15.45)"/><use xlink:href="#I" width="13.8" height="9.5" transform="matrix(.8073 .0086 .1335 .9884 -3.4 -25.95)"/><use xlink:href="#J" width="18.7" height="14.3" transform="matrix(.8279 .0221 -.1493 .987 1.95 -24.5)"/><use xlink:href="#K" width="20.7" height="13.9" transform="matrix(.8236 .3297 -.4268 .7911 -1.45 -19.4)"/><use xlink:href="#L" width="21.9" height="18.3" transform="rotate(4.51 490.66 -7.236)scale(.9997)"/><use xlink:href="#M" width="9.4" height="10.6" transform="matrix(.9968 -.0248 .3072 .8992 -6.95 -24.05)"/></g></g><g clip-path="url(#ad)"><g transform="translate(645.95 44.1)"><use xlink:href="#A" width="14.7" height="4.3" transform="matrix(.799 0 0 .8008 -4.6 -1.55)"/><use xlink:href="#ac" width="8.8" height="7.2" transform="matrix(-.9495 -.3229 -.1469 1.0393 4.6 -5.85)"/><use xlink:href="#C" width="9.2" height="18.4" transform="matrix(-.0824 .9811 .7036 .0745 6.3 -25.7)"/><use xlink:href="#D" width="8" height="9.1" transform="matrix(-.9139 .2291 -.2027 -.9312 21.1 -22.9)"/><use xlink:href="#E" width="6.3" height="3.4" transform="matrix(1.1217 -.0305 -.0559 .968 8.9 -2.95)"/><use xlink:href="#F" width="10.3" height="5.7" transform="matrix(1.0268 -.1676 .3248 .9141 4.3 -9.05)"/><use xlink:href="#G" width="6.1" height="3.9" transform="matrix(.7589 .6392 -.7708 .6606 -3.3 -15.15)"/><use xlink:href="#H" width="10.3" height="5.7" transform="rotate(98.299 8.727 -5.999)scale(1.0356 1.2048)"/><use xlink:href="#I" width="13.8" height="9.5" transform="matrix(.8197 -.0937 .2436 .9722 -4.55 -25.4)"/><use xlink:href="#J" width="18.7" height="14.3" transform="matrix(.827 .0401 -.1698 .983 1.15 -24.75)"/><use xlink:href="#K" width="20.7" height="13.9" transform="matrix(.8162 .3181 -.3873 .8101 -2.45 -19.5)"/><use xlink:href="#L" width="21.9" height="18.3" transform="rotate(4.505 490.173 -16.732)scale(.9995)"/><use xlink:href="#M" width="9.4" height="10.6" transform="matrix(1.0072 -.1016 .3484 .8938 -6.75 -23.7)"/></g></g><g clip-path="url(#ae)"><g transform="translate(706.95 44.1)"><use xlink:href="#A" width="14.7" height="4.3" transform="matrix(.799 0 0 .8008 -4.8 -1.65)"/><use xlink:href="#ac" width="8.8" height="7.2" transform="matrix(-1.0932 -.4095 -.3203 1.1733 3.05 -7.05)"/><use xlink:href="#C" width="9.2" height="18.4" transform="matrix(-.0988 .9796 .7243 .089 5.3 -26.25)"/><use xlink:href="#D" width="8" height="9.1" transform="matrix(-.9138 .2284 -.1944 -.9335 17.95 -23.7)"/><use xlink:href="#E" width="6.3" height="3.4" transform="matrix(1.1217 -.0305 -.0559 .968 6.75 -3.15)"/><use xlink:href="#F" width="10.3" height="5.7" transform="matrix(1.0382 -.069 .2393 .9402 3.2 -9.9)"/><use xlink:href="#G" width="6.1" height="3.9" transform="matrix(.7589 .6392 -.7708 .6606 -3.35 -14.75)"/><use xlink:href="#H" width="10.3" height="5.7" transform="matrix(-.148 1.0144 -1.1534 -.1683 3.2 -15.55)"/><use xlink:href="#I" width="13.8" height="9.5" transform="matrix(.8192 -.1978 .3574 .942 -5.65 -24.9)"/><use xlink:href="#J" width="18.7" height="14.3" transform="matrix(.8258 .0585 -.1948 .9782 .4 -25)"/><use xlink:href="#K" width="20.7" height="13.9" transform="matrix(.8095 .3073 -.348 .828 -3.35 -19.45)"/><use xlink:href="#L" width="21.9" height="18.3" transform="rotate(4.505 489.773 -26.903)scale(.9995)"/><use xlink:href="#M" width="9.4" height="10.6" transform="matrix(1.0119 -.1791 .3911 .887 -6.6 -23.3)"/></g></g><g clip-path="url(#af)"><g transform="translate(767.95 44.1)"><use xlink:href="#A" width="14.7" height="4.3" transform="matrix(.799 0 0 .8008 -5.05 -1.7)"/><use xlink:href="#ac" width="8.8" height="7.2" transform="matrix(-1.2336 -.5062 -.527 1.2802 1.7 -8.05)"/><use xlink:href="#C" width="9.2" height="18.4" transform="matrix(-.112 .9782 .7451 .1018 4.1 -26.75)"/><use xlink:href="#D" width="8" height="9.1" transform="matrix(-.9144 .2247 -.183 -.9364 14.7 -24.45)"/><use xlink:href="#E" width="6.3" height="3.4" transform="matrix(1.1217 -.0305 -.0559 .968 4.65 -3.35)"/><use xlink:href="#F" width="10.3" height="5.7" transform="matrix(1.0401 .0233 .1486 .9587 2.15 -10.7)"/><use xlink:href="#G" width="6.1" height="3.9" transform="matrix(.7589 .6392 -.7708 .6606 -3.35 -14.35)"/><use xlink:href="#H" width="10.3" height="5.7" transform="matrix(-.1465 1.004 -1.1146 -.1627 2.5 -15.55)"/><use xlink:href="#I" width="13.8" height="9.5" transform="matrix(.8043 -.3058 .4646 .9 -6.6 -24.2)"/><use xlink:href="#J" width="18.7" height="14.3" transform="matrix(.8239 .0795 -.2164 .9735 -.4 -25.3)"/><use xlink:href="#K" width="20.7" height="13.9" transform="matrix(.8026 .2966 -.3078 .8441 -4.3 -19.55)"/><use xlink:href="#L" width="21.9" height="18.3" transform="rotate(4.505 488.762 -36.412)scale(.9995)"/><use xlink:href="#ag" width="8.2" height="7.8" transform="matrix(-.3909 -.8428 -.9912 .3722 3.45 -19.45)"/><use xlink:href="#M" width="9.4" height="10.6" transform="matrix(1.0106 -.258 .434 .8781 -6.35 -22.95)"/></g></g><g clip-path="url(#ah)"><g transform="translate(828.95 44.1)"><use xlink:href="#A" width="14.7" height="4.3" transform="matrix(.799 0 0 .8008 -5.3 -1.75)"/><use xlink:href="#ac" width="8.8" height="7.2" transform="matrix(-1.3387 -.5359 -.47 1.1455 .05 -7.5)"/><use xlink:href="#C" width="9.2" height="18.4" transform="matrix(-.1252 .9766 .7656 .1152 3 -27.25)"/><use xlink:href="#D" width="8" height="9.1" transform="matrix(-.9143 .224 -.1747 -.9386 11.5 -25.1)"/><use xlink:href="#E" width="6.3" height="3.4" transform="matrix(1.1217 -.0305 -.0559 .968 2.55 -3.55)"/><use xlink:href="#F" width="10.3" height="5.7" transform="matrix(1.033 .1188 .0598 .9684 1.05 -11.45)"/><use xlink:href="#G" width="6.1" height="3.9" transform="matrix(.7589 .6392 -.7708 .6606 -3.4 -14)"/><use xlink:href="#H" width="10.3" height="5.7" transform="matrix(-.145 .9935 -1.0759 -.157 1.75 -15.65)"/><use xlink:href="#I" width="13.8" height="9.5" transform="matrix(.775 -.4133 .5669 .8459 -7.5 -23.65)"/><use xlink:href="#J" width="18.7" height="14.3" transform="matrix(.8218 .0977 -.238 .9683 -1.2 -25.55)"/><use xlink:href="#K" width="20.7" height="13.9" transform="matrix(.7956 .2861 -.2668 .8581 -5.3 -19.55)"/><use xlink:href="#L" width="21.9" height="18.3" transform="rotate(4.505 488.387 -45.947)scale(.9995)"/><use xlink:href="#ag" width="8.2" height="7.8" transform="matrix(-.486 -.7903 -.9395 .4852 3.75 -20.4)"/><use xlink:href="#M" width="9.4" height="10.6" transform="matrix(1.002 -.3409 .4767 .8673 -6.15 -22.55)"/></g></g><g clip-path="url(#ai)"><g transform="translate(889.95 44.1)"><use xlink:href="#A" width="14.7" height="4.3" transform="matrix(.799 0 0 .8008 -5.55 -1.8)"/><use xlink:href="#ac" width="8.8" height="7.2" transform="matrix(-1.4438 -.5696 -.415 1.0116 -1.65 -6.9)"/><use xlink:href="#C" width="9.2" height="18.4" transform="matrix(-.1416 .9743 .7855 .1317 1.85 -27.85)"/><use xlink:href="#D" width="8" height="9.1" transform="matrix(-.9149 .2203 -.1664 -.9407 8.25 -25.9)"/><use xlink:href="#E" width="6.3" height="3.4" transform="matrix(1.1217 -.0305 -.0559 .968 .4 -3.75)"/><use xlink:href="#F" width="10.3" height="5.7" transform="matrix(1.0165 .2166 -.0263 .9698 0 -12.25)"/><use xlink:href="#G" width="6.1" height="3.9" transform="matrix(.7589 .6392 -.7708 .6606 -3.4 -13.6)"/><use xlink:href="#H" width="10.3" height="5.7" transform="matrix(-.1434 .9831 -1.0371 -.1513 1.05 -15.65)"/><use xlink:href="#I" width="13.8" height="9.5" transform="matrix(.7312 -.5181 .663 .7801 -8.05 -23)"/><use xlink:href="#J" width="18.7" height="14.3" transform="matrix(.8194 .116 -.2625 .9618 -1.95 -25.75)"/><use xlink:href="#K" width="20.7" height="13.9" transform="matrix(.7885 .2758 -.2224 .871 -6.25 -19.55)"/><use xlink:href="#L" width="21.9" height="18.3" transform="rotate(4.505 487.352 -56.092)scale(.9995)"/><use xlink:href="#ag" width="8.2" height="7.8" transform="matrix(-.5757 -.7273 -.8756 .5926 4.05 -21.35)"/><use xlink:href="#M" width="9.4" height="10.6" transform="matrix(.9878 -.4208 .5166 .856 -5.85 -22.15)"/></g></g><g clip-path="url(#aj)"><g transform="translate(950.95 44.1)"><use xlink:href="#A" width="14.7" height="4.3" transform="matrix(.799 0 0 .8008 -5.8 -1.85)"/><use xlink:href="#ac" width="8.8" height="7.2" transform="matrix(-1.5513 -.5973 -.3601 .8777 -3.3 -6.35)"/><use xlink:href="#C" width="9.2" height="18.4" transform="matrix(-.1566 .9726 .8058 .1476 .75 -28.35)"/><use xlink:href="#D" width="8" height="9.1" transform="matrix(-.9156 .2191 -.1585 -.9432 5 -26.65)"/><use xlink:href="#E" width="6.3" height="3.4" transform="matrix(1.1217 -.0339 -.0585 .968 -1.65 -3.95)"/><use xlink:href="#F" width="10.3" height="5.7" transform="matrix(.9921 .3112 -.1192 .9626 -1.05 -12.9)"/><use xlink:href="#G" width="6.1" height="3.9" transform="matrix(.7601 .6403 -.7724 .6613 -3.45 -13.15)"/><use xlink:href="#H" width="10.3" height="5.7" transform="matrix(-.1443 .9728 -.9984 -.1481 .25 -15.7)"/><use xlink:href="#I" width="13.8" height="9.5" transform="matrix(.6752 -.6162 .7515 .7034 -8.75 -22.35)"/><use xlink:href="#J" width="18.7" height="14.3" transform="matrix(.8164 .1371 -.2851 .9561 -2.7 -26.1)"/><use xlink:href="#K" width="20.7" height="13.9" transform="matrix(.782 .2659 -.1829 .881 -7.2 -19.55)"/><use xlink:href="#L" width="21.9" height="18.3" transform="rotate(4.51 486.454 -65.577)scale(.9997)"/><use xlink:href="#ag" width="8.2" height="7.8" transform="matrix(-.6575 -.6543 -.7995 .6917 4.2 -22.3)"/><use xlink:href="#M" width="9.4" height="10.6" transform="matrix(.9656 -.5038 .559 .841 -5.65 -21.8)"/></g></g><g clip-path="url(#ak)"><g transform="translate(1011.95 44.1)"><use xlink:href="#A" width="14.7" height="4.3" transform="matrix(.799 0 0 .8008 -6 -1.9)"/><use xlink:href="#ac" width="8.8" height="7.2" transform="matrix(-1.6593 -.6231 -.3052 .7438 -4.85 -5.85)"/><use xlink:href="#C" width="9.2" height="18.4" transform="matrix(-.0696 .9823 .8154 .0756 -.25 -29.4)"/><use xlink:href="#D" width="8" height="9.1" transform="matrix(-.9195 .1998 -.1457 -.944 6.6 -27)"/><use xlink:href="#E" width="6.3" height="3.4" transform="matrix(.9194 .6341 -.6045 .7632 -4.6 -8.4)"/><use xlink:href="#F" width="10.3" height="5.7" transform="matrix(.8978 .5146 -.3946 .9146 -1.85 -15.35)"/><use xlink:href="#G" width="6.1" height="3.9" transform="matrix(.9702 .2747 -.3066 .9533 -2 -11.3)"/><use xlink:href="#H" width="10.3" height="5.7" transform="matrix(.6283 .7738 -.8347 .69 .7 -17.35)"/><use xlink:href="#I" width="13.8" height="9.5" transform="matrix(.6036 -.7103 .8311 .6168 -9.15 -21.75)"/><use xlink:href="#J" width="18.7" height="14.3" transform="matrix(.816 .1368 -.2838 .9556 -3.8 -27.4)"/><use xlink:href="#K" width="20.7" height="13.9" transform="matrix(.7912 .202 -.1498 .8941 -8.6 -20.5)"/><use xlink:href="#L" width="21.9" height="18.3" transform="rotate(4.505 501.632 -81.481)scale(.9995)"/><use xlink:href="#ag" width="8.2" height="7.8" transform="matrix(-.7302 -.5722 -.7123 .7812 4.35 -23.3)"/><use xlink:href="#M" width="9.4" height="10.6" transform="matrix(.9384 -.5826 .6012 .8241 -5.15 -21.45)"/></g></g><g clip-path="url(#al)"><g transform="translate(1072.95 44.1)"><use xlink:href="#A" width="14.7" height="4.3" transform="matrix(.799 0 0 .8008 -6.25 -2)"/><use xlink:href="#ac" width="8.8" height="7.2" transform="matrix(-1.7657 -.653 -.2502 .6099 -6.55 -5.3)"/><use xlink:href="#C" width="9.2" height="18.4" transform="matrix(.0095 .9848 .8189 .0072 -1.3 -30.55)"/><use xlink:href="#D" width="8" height="9.1" transform="matrix(-.9238 .18 -.1335 -.9452 8.25 -27.55)"/><use xlink:href="#E" width="6.3" height="3.4" transform="matrix(.3595 1.0542 -.9401 .2753 -7.1 -12.85)"/><use xlink:href="#F" width="10.3" height="5.7" transform="matrix(.7621 .6945 -.6557 .7852 -2.65 -17.45)"/><use xlink:href="#G" width="6.1" height="3.9" transform="matrix(1.0135 -.1471 .2273 .9607 -.25 -9.05)"/><use xlink:href="#H" width="10.3" height="5.7" transform="matrix(1.0111 .0621 -.0508 1.1587 -1.35 -16.7)"/><use xlink:href="#I" width="13.8" height="9.5" transform="matrix(.5189 -.7961 .9008 .5211 -9.55 -21.25)"/><use xlink:href="#J" width="18.7" height="14.3" transform="matrix(.816 .1368 -.2838 .9556 -4.9 -28.7)"/><use xlink:href="#K" width="20.7" height="13.9" transform="matrix(.7957 .1412 -.1157 .9065 -9.85 -21.4)"/><use xlink:href="#L" width="21.9" height="18.3" transform="rotate(4.505 517.608 -96.115)scale(.9995)"/><use xlink:href="#ag" width="8.2" height="7.8" transform="matrix(-.7927 -.4821 -.6152 .8598 4.45 -24.2)"/><use xlink:href="#M" width="9.4" height="10.6" transform="matrix(.9046 -.6603 .6429 .8049 -4.85 -21.05)"/></g></g><g clip-path="url(#am)"><g transform="translate(1133.95 44.1)"><use xlink:href="#A" width="14.7" height="4.3" transform="matrix(.799 0 0 .8008 -6.45 -2.05)"/><use xlink:href="#ac" width="8.8" height="7.2" transform="matrix(-1.8752 -.6806 -.1961 .4764 -8.1 -4.7)"/><use xlink:href="#C" width="9.2" height="18.4" transform="matrix(.0971 .98 .8165 -.0632 -2.3 -31.6)"/><use xlink:href="#D" width="8" height="9.1" transform="matrix(-.9279 .1616 -.1234 -.9462 9.9 -27.9)"/><use xlink:href="#E" width="6.3" height="3.4" transform="matrix(-.3322 1.0605 -.9347 -.3135 -9.4 -16.95)"/><use xlink:href="#F" width="10.3" height="5.7" transform="matrix(.5946 .8401 -.8753 .5835 -3.6 -19.15)"/><use xlink:href="#an" width="6.3" height="3.4" transform="matrix(.8776 -.558 .6874 .6894 3.15 -6.25)"/><use xlink:href="#H" width="10.3" height="5.7" transform="matrix(.7408 -.7128 .8799 .8672 -3.2 -12.4)"/><use xlink:href="#I" width="13.8" height="9.5" transform="matrix(.425 -.8716 .9611 .4174 -9.75 -20.7)"/><use xlink:href="#J" width="18.7" height="14.3" transform="matrix(.8164 .1371 -.2851 .9561 -6.1 -29.9)"/><use xlink:href="#K" width="20.7" height="13.9" transform="matrix(.7956 .0827 -.0826 .9178 -11.1 -22.35)"/><use xlink:href="#L" width="21.9" height="18.3" transform="rotate(4.51 533.011 -110.653)scale(.9997)"/><use xlink:href="#ag" width="8.2" height="7.8" transform="matrix(-.8455 -.3854 -.5103 .9279 4.4 -25.2)"/><use xlink:href="#M" width="9.4" height="10.6" transform="matrix(.8637 -.74 .6856 .7847 -4.4 -20.6)"/></g></g><g clip-path="url(#ao)"><g transform="translate(1194.95 44.1)"><use xlink:href="#A" width="14.7" height="4.3" transform="matrix(.799 0 0 .8008 -6.65 -2.1)"/><use xlink:href="#ap" width="8.8" height="7.2" transform="matrix(-1.901 -.6852 -.1836 .4474 -9.2 -4.85)"/><use xlink:href="#C" width="9.2" height="18.4" transform="matrix(.0951 .9799 .8164 -.0613 -1.95 -31.3)"/><use xlink:href="#D" width="8" height="9.1" transform="matrix(-.9276 .16 -.1212 -.9461 10.35 -28.65)"/><use xlink:href="#E" width="6.3" height="3.4" transform="matrix(-.4037 1.0342 -.9095 -.3777 -9.05 -16.6)"/><use xlink:href="#F" width="10.3" height="5.7" transform="matrix(.5152 .8893 -.9547 .5199 -3.25 -18.8)"/><use xlink:href="#an" width="6.3" height="3.4" transform="matrix(.8461 -.5831 .7292 .6764 4.6 -6.05)"/><use xlink:href="#H" width="10.3" height="5.7" transform="matrix(.7538 -.7309 .8992 .8424 -2.45 -11.8)"/><use xlink:href="#I" width="13.8" height="9.5" transform="matrix(.4929 -.8339 .9316 .4765 -10.1 -20.95)"/><use xlink:href="#J" width="18.7" height="14.3" transform="matrix(.816 .1368 -.2838 .9556 -5.75 -29.65)"/><use xlink:href="#K" width="20.7" height="13.9" transform="matrix(.7944 .1226 -.1323 .9067 -10.65 -22.4)"/><use xlink:href="#L" width="21.9" height="18.3" transform="rotate(4.505 531.242 -105.564)scale(.9995)"/><use xlink:href="#ag" width="8.2" height="7.8" transform="matrix(-.8442 -.3854 -.5096 .9266 3.9 -25.1)"/><use xlink:href="#M" width="9.4" height="10.6" transform="matrix(.9028 -.664 .6522 .8088 -6.05 -20.8)"/></g></g><g clip-path="url(#aq)"><g transform="translate(1255.95 44.1)"><use xlink:href="#A" width="14.7" height="4.3" transform="matrix(.799 0 0 .8008 -6.9 -2.2)"/><use xlink:href="#ar" width="8.8" height="7.2" transform="matrix(-1.9273 -.6947 -.1718 .4188 -10.35 -5.05)"/><use xlink:href="#C" width="9.2" height="18.4" transform="matrix(.0951 .9799 .8164 -.0613 -1.65 -31)"/><use xlink:href="#D" width="8" height="9.1" transform="matrix(-.9276 .16 -.1212 -.946 10.75 -29.35)"/><use xlink:href="#E" width="6.3" height="3.4" transform="matrix(-.4786 1.0017 -.8807 -.4406 -8.85 -16.2)"/><use xlink:href="#F" width="10.3" height="5.7" transform="matrix(.4319 .9327 -1.0303 .4488 -2.9 -18.4)"/><use xlink:href="#an" width="6.3" height="3.4" transform="matrix(.8163 -.6062 .7725 .6617 5.95 -5.75)"/><use xlink:href="#H" width="10.3" height="5.7" transform="matrix(.7676 -.7506 .9199 .818 -1.85 -11.15)"/><use xlink:href="#I" width="13.8" height="9.5" transform="matrix(.5604 -.7905 .8983 .5363 -10.4 -21.25)"/><use xlink:href="#J" width="18.7" height="14.3" transform="matrix(.816 .1368 -.2838 .9556 -5.35 -29.45)"/><use xlink:href="#K" width="20.7" height="13.9" transform="matrix(.7916 .162 -.1827 .8929 -10.1 -22.45)"/><use xlink:href="#L" width="21.9" height="18.3" transform="rotate(4.505 528.9 -100.38)scale(.9995)"/><use xlink:href="#ag" width="8.2" height="7.8" transform="matrix(-.8442 -.3854 -.5096 .9266 3.4 -25.05)"/><use xlink:href="#M" width="9.4" height="10.6" transform="matrix(.9372 -.5871 .6222 .8304 -7.7 -21.2)"/></g></g><g clip-path="url(#as)"><g transform="translate(1316.95 44.1)"><use xlink:href="#A" width="14.7" height="4.3" transform="matrix(.799 0 0 .8008 -7.1 -2.25)"/><use xlink:href="#B" width="8.8" height="7.2" transform="matrix(-1.9537 -.7042 -.1601 .3902 -11.65 -5.15)"/><use xlink:href="#C" width="9.2" height="18.4" transform="matrix(.0951 .9799 .8164 -.0613 -1.3 -30.65)"/><use xlink:href="#D" width="8" height="9.1" transform="matrix(-.9276 .16 -.1212 -.946 11.2 -30)"/><use xlink:href="#E" width="6.3" height="3.4" transform="matrix(-.5477 .9657 -.8476 -.5013 -8.5 -15.9)"/><use xlink:href="#F" width="10.3" height="5.7" transform="matrix(.3482 .9672 -1.1019 .3648 -2.55 -18)"/><use xlink:href="#an" width="6.3" height="3.4" transform="matrix(.7858 -.628 .8179 .642 7.35 -5.6)"/><use xlink:href="#H" width="10.3" height="5.7" transform="matrix(.7812 -.7704 .9373 .7962 -1.05 -10.5)"/><use xlink:href="#I" width="13.8" height="9.5" transform="matrix(.624 -.7416 .8611 .5939 -10.75 -21.65)"/><use xlink:href="#J" width="18.7" height="14.3" transform="matrix(.816 .1368 -.2838 .9556 -4.95 -29.2)"/><use xlink:href="#K" width="20.7" height="13.9" transform="matrix(.7861 .2039 -.2349 .8756 -9.55 -22.4)"/><use xlink:href="#L" width="21.9" height="18.3" transform="rotate(4.505 525.922 -95.17)scale(.9995)"/><use xlink:href="#ag" width="8.2" height="7.8" transform="matrix(-.8442 -.3854 -.5096 .9266 2.95 -24.95)"/><use xlink:href="#M" width="9.4" height="10.6" transform="matrix(.9652 -.5089 .5887 .853 -9.2 -21.55)"/></g></g><g clip-path="url(#at)"><g transform="translate(1377.95 44.1)"><use xlink:href="#A" width="14.7" height="4.3" transform="matrix(.799 0 0 .8008 -6.85 -2.1)"/><use xlink:href="#Q" width="8.8" height="7.2" transform="matrix(-1.98 -.7137 -.1484 .3616 -12.8 -5.25)"/><use xlink:href="#C" width="9.2" height="18.4" transform="matrix(.0951 .9799 .8164 -.0613 -1 -30.35)"/><use xlink:href="#D" width="8" height="9.1" transform="matrix(-.9275 .16 -.1212 -.946 11.6 -30.7)"/><use xlink:href="#E" width="6.3" height="3.4" transform="matrix(-.6141 .9248 -.8085 -.5622 -8.25 -15.6)"/><use xlink:href="#F" width="10.3" height="5.7" transform="matrix(.2586 .9951 -1.1655 .2753 -2.25 -17.5)"/><use xlink:href="#an" width="6.3" height="3.4" transform="matrix(.7527 -.6508 .861 .6224 8.8 -5.35)"/><use xlink:href="#H" width="10.3" height="5.7" transform="matrix(.7973 -.7877 .9567 .771 -.35 -9.9)"/><use xlink:href="#I" width="13.8" height="9.5" transform="matrix(.6812 -.6899 .8203 .649 -11.05 -22)"/><use xlink:href="#J" width="18.7" height="14.3" transform="matrix(.816 .1368 -.2838 .9556 -4.55 -28.95)"/><use xlink:href="#K" width="20.7" height="13.9" transform="matrix(.7785 .2457 -.2829 .8561 -9 -22.5)"/><use xlink:href="#L" width="21.9" height="18.3" transform="rotate(4.505 522.943 -89.959)scale(.9995)"/><use xlink:href="#ag" width="8.2" height="7.8" transform="matrix(-.8442 -.3854 -.5096 .9266 2.45 -24.9)"/><use xlink:href="#M" width="9.4" height="10.6" transform="matrix(.9869 -.4299 .5572 .8723 -10.8 -21.85)"/></g></g><g clip-path="url(#au)"><g transform="translate(1438.95 44.1)"><use xlink:href="#A" width="14.7" height="4.3" transform="matrix(.799 0 0 .8008 -6.6 -1.95)"/><use xlink:href="#U" width="8.8" height="7.2" transform="matrix(-2.0063 -.7231 -.1366 .333 -14.05 -5.45)"/><use xlink:href="#C" width="9.2" height="18.4" transform="matrix(.0951 .9799 .8164 -.0613 -.65 -30)"/><use xlink:href="#D" width="8" height="9.1" transform="matrix(-.9275 .16 -.1212 -.946 12.05 -31.4)"/><use xlink:href="#E" width="6.3" height="3.4" transform="matrix(-.6776 .8795 -.7671 -.6176 -8 -15.25)"/><use xlink:href="#F" width="10.3" height="5.7" transform="matrix(.1701 1.0142 -1.2217 .1774 -1.9 -17)"/><use xlink:href="#an" width="6.3" height="3.4" transform="matrix(.7213 -.6698 .9038 .6004 10.2 -5.15)"/><use xlink:href="#H" width="10.3" height="5.7" transform="matrix(.8107 -.8077 .9755 .7453 .4 -9.3)"/><use xlink:href="#I" width="13.8" height="9.5" transform="matrix(.7362 -.6314 .776 .7013 -11.25 -22.45)"/><use xlink:href="#J" width="18.7" height="14.3" transform="matrix(.816 .1368 -.2838 .9556 -4.15 -28.75)"/><use xlink:href="#K" width="20.7" height="13.9" transform="matrix(.7695 .2848 -.3294 .8341 -8.45 -22.35)"/><use xlink:href="#L" width="21.9" height="18.3" transform="rotate(4.505 520.6 -84.774)scale(.9995)"/><use xlink:href="#ag" width="8.2" height="7.8" transform="matrix(-.8455 -.3854 -.5103 .9279 1.95 -24.9)"/><use xlink:href="#M" width="9.4" height="10.6" transform="matrix(1.0023 -.3504 .5222 .8922 -12.3 -22.15)"/></g></g><g clip-path="url(#av)"><g transform="translate(1499.95 44.1)"><use xlink:href="#A" width="14.7" height="4.3" transform="matrix(.799 0 0 .8008 -6.35 -1.8)"/><use xlink:href="#Y" width="8.8" height="7.2" transform="matrix(-2.0331 -.7379 -.1254 .3047 -15.25 -5.6)"/><use xlink:href="#C" width="9.2" height="18.4" transform="matrix(.0971 .98 .8165 -.0632 -.35 -29.65)"/><use xlink:href="#D" width="8" height="9.1" transform="matrix(-.9277 .1617 -.1234 -.946 12.4 -32.05)"/><use xlink:href="#E" width="6.3" height="3.4" transform="matrix(-.7402 .83 -.723 -.6712 -7.7 -14.95)"/><use xlink:href="#F" width="10.3" height="5.7" transform="matrix(.0793 1.0258 -1.2697 .0712 -1.7 -16.35)"/><use xlink:href="#an" width="6.3" height="3.4" transform="matrix(.6893 -.6897 .9472 .5775 11.6 -4.95)"/><use xlink:href="#H" width="10.3" height="5.7" transform="matrix(.8249 -.8295 .9928 .7233 1.15 -8.6)"/><use xlink:href="#I" width="13.8" height="9.5" transform="matrix(.7864 -.571 .7303 .7511 -11.5 -22.9)"/><use xlink:href="#J" width="18.7" height="14.3" transform="matrix(.8164 .1371 -.2851 .9561 -3.7 -28.5)"/><use xlink:href="#K" width="20.7" height="13.9" transform="matrix(.7585 .3265 -.3759 .8101 -7.85 -22.35)"/><use xlink:href="#L" width="21.9" height="18.3" transform="rotate(4.51 516.432 -79.476)scale(.9997)"/><use xlink:href="#M" width="9.4" height="10.6" transform="matrix(1.0123 -.2712 .4896 .9106 -13.9 -22.45)"/></g></g><g clip-path="url(#aw)"><g transform="translate(1560.95 44.1)"><use xlink:href="#A" width="14.7" height="4.3" transform="matrix(.799 0 0 .8008 -6.1 -1.65)"/><use xlink:href="#Y" width="8.8" height="7.2" transform="matrix(-2.0331 -.7379 -.1254 .3047 -15.25 -5.6)"/><use xlink:href="#C" width="9.2" height="18.4" transform="matrix(.1633 .969 .8082 -.1209 1.1 -27.95)"/><use xlink:href="#D" width="8" height="9.1" transform="matrix(-.9368 .0945 -.0544 -.951 15.8 -29.5)"/><use xlink:href="#E" width="6.3" height="3.4" transform="matrix(-.8202 .7478 -.6476 -.7416 -7.05 -14.6)"/><use xlink:href="#F" width="10.3" height="5.7" transform="matrix(-.048 .9917 -1.1536 -.0257 -1.65 -16.1)"/><use xlink:href="#an" width="6.3" height="3.4" transform="matrix(.8526 -.4742 .6559 .8524 8.1 -3.75)"/><use xlink:href="#H" width="10.3" height="5.7" transform="matrix(.9011 -.6876 .7704 .8372 .6 -8.35)"/><use xlink:href="#I" width="13.8" height="9.5" transform="matrix(.8654 -.4471 .5827 .8612 -11.3 -23.8)"/><use xlink:href="#J" width="18.7" height="14.3" transform="matrix(.8098 .1687 -.3212 .9435 -2.5 -27.95)"/><use xlink:href="#K" width="20.7" height="13.9" transform="matrix(.744 .3556 -.4059 .794 -6.65 -22)"/><use xlink:href="#L" width="21.9" height="18.3" transform="rotate(6.759 339.763 -45.129)scale(.9992)"/><use xlink:href="#M" width="9.4" height="10.6" transform="matrix(1.0207 -.2221 .4028 .9467 -14.6 -22.7)"/></g></g><g clip-path="url(#ax)"><g transform="translate(1621.95 44.1)"><use xlink:href="#A" width="14.7" height="4.3" transform="matrix(.799 0 0 .8008 -5.85 -1.5)"/><use xlink:href="#Y" width="8.8" height="7.2" transform="matrix(-2.0331 -.7379 -.1254 .3047 -15.25 -5.6)"/><use xlink:href="#C" width="9.2" height="18.4" transform="matrix(.2336 .9525 .7962 -.177 2.4 -26.1)"/><use xlink:href="#D" width="8" height="9.1" transform="matrix(-.9416 .0253 .0125 -.9512 19.1 -26.95)"/><use xlink:href="#E" width="6.3" height="3.4" transform="matrix(-.8937 .6577 -.5663 -.8051 -6.45 -14.3)"/><use xlink:href="#F" width="10.3" height="5.7" transform="matrix(-.1667 .9421 -1.0307 -.1047 -1.6 -16)"/><use xlink:href="#an" width="6.3" height="3.4" transform="matrix(.952 -.2246 .2933 1.0022 4.6 -2.6)"/><use xlink:href="#H" width="10.3" height="5.7" transform="matrix(.9561 -.5422 .5455 .8962 -.1 -7.75)"/><use xlink:href="#I" width="13.8" height="9.5" transform="matrix(.926 -.3148 .418 .9459 -10.9 -24.7)"/><use xlink:href="#J" width="18.7" height="14.3" transform="matrix(.8023 .2004 -.358 .9298 -1.15 -27.4)"/><use xlink:href="#K" width="20.7" height="13.9" transform="matrix(.7292 .3846 -.4368 .7772 -5.45 -21.55)"/><use xlink:href="#L" width="21.9" height="18.3" transform="rotate(9.013 251.557 -27.487)scale(.999)"/><use xlink:href="#M" width="9.4" height="10.6" transform="matrix(1.0276 -.1728 .3136 .9761 -15.3 -23.05)"/></g></g><g clip-path="url(#ay)"><g transform="translate(1682.95 44.1)"><use xlink:href="#A" width="14.7" height="4.3" transform="matrix(.799 0 0 .8008 -5.6 -1.35)"/><use xlink:href="#ac" width="8.8" height="7.2" transform="matrix(-1.2336 -.5062 -.527 1.2802 3.7 -3.25)"/><use xlink:href="#C" width="9.2" height="18.4" transform="matrix(.301 .9325 .7807 -.2336 3.8 -24.4)"/><use xlink:href="#D" width="8" height="9.1" transform="matrix(-.9413 -.0404 .0807 -.9465 22.5 -24.5)"/><use xlink:href="#E" width="6.3" height="3.4" transform="matrix(-.9578 .5629 -.4823 -.8595 -5.9 -14.1)"/><use xlink:href="#F" width="10.3" height="5.7" transform="matrix(-.2751 .8794 -.9032 -.1676 -1.55 -15.85)"/><use xlink:href="#an" width="6.3" height="3.4" transform="matrix(.9798 .0435 -.0822 1.0098 1.15 -1.5)"/><use xlink:href="#H" width="10.3" height="5.7" transform="matrix(.9902 -.3949 .3303 .9034 -.75 -7)"/><use xlink:href="#I" width="13.8" height="9.5" transform="matrix(.967 -.1739 .2472 .9991 -10.35 -25.6)"/><use xlink:href="#J" width="18.7" height="14.3" transform="matrix(.7941 .2325 -.396 .9153 .05 -26.85)"/><use xlink:href="#K" width="20.7" height="13.9" transform="matrix(.7143 .4137 -.4689 .7597 -4.2 -21.15)"/><use xlink:href="#L" width="21.9" height="18.3" transform="matrix(.98 .1958 -.1958 .98 .55 -39.2)"/><use xlink:href="#M" width="9.4" height="10.6" transform="matrix(1.0323 -.1263 .2254 .9972 -16.15 -23.3)"/></g></g><g clip-path="url(#az)"><g transform="translate(1743.95 44.1)"><use xlink:href="#A" width="14.7" height="4.3" transform="matrix(.799 0 0 .8008 -5.55 -1.4)"/><use xlink:href="#ac" width="8.8" height="7.2" transform="matrix(-1.3387 -.5359 -.47 1.1455 1.4 -3.15)"/><use xlink:href="#C" width="9.2" height="18.4" transform="matrix(.1705 .9649 .8053 -.1243 3.75 -25.3)"/><use xlink:href="#D" width="8" height="9.1" transform="matrix(-.9403 -.0702 .1127 -.9433 22.1 -23.3)"/><use xlink:href="#E" width="6.3" height="3.4" transform="matrix(-.8307 .7376 -.6285 -.7536 -5.25 -13.75)"/><use xlink:href="#F" width="10.3" height="5.7" transform="matrix(-.1763 .9236 -.9249 -.0566 -.55 -15.5)"/><use xlink:href="#an" width="6.3" height="3.4" transform="matrix(.9803 .043 -.0664 1.0101 .7 -1.65)"/><use xlink:href="#H" width="10.3" height="5.7" transform="matrix(1.0143 -.3062 .2628 .9299 -1.15 -7.75)"/><use xlink:href="#I" width="13.8" height="9.5" transform="matrix(.9754 -.1293 .1924 1.007 -10.3 -26.15)"/><use xlink:href="#J" width="18.7" height="14.3" transform="matrix(.7985 .2148 -.3777 .9219 -.45 -26.65)"/><use xlink:href="#K" width="20.7" height="13.9" transform="matrix(.7273 .3882 -.4235 .7858 -4.75 -20.85)"/><use xlink:href="#L" width="21.9" height="18.3" transform="rotate(10.05 221.984 -20.378)scale(.9988)"/><use xlink:href="#M" width="9.4" height="10.6" transform="matrix(1.0296 -.1046 .1949 1.0001 -16.3 -24.1)"/></g></g><g clip-path="url(#aA)"><g transform="translate(1804.95 44.1)"><use xlink:href="#A" width="14.7" height="4.3" transform="matrix(.799 0 0 .8008 -5.5 -1.5)"/><use xlink:href="#ac" width="8.8" height="7.2" transform="matrix(-1.4438 -.5696 -.415 1.0116 -.8 -3.05)"/><use xlink:href="#C" width="9.2" height="18.4" transform="matrix(.0352 .9802 .8156 -.0115 3.7 -26.05)"/><use xlink:href="#D" width="8" height="9.1" transform="matrix(-.9385 -.0995 .1492 -.9386 21.6 -22)"/><use xlink:href="#E" width="6.3" height="3.4" transform="matrix(-.6748 .8849 -.7514 -.6268 -4.65 -13.4)"/><use xlink:href="#F" width="10.3" height="5.7" transform="matrix(-.0754 .9571 -.9335 .054 .4 -15.05)"/><use xlink:href="#an" width="6.3" height="3.4" transform="matrix(.981 .043 -.0493 1.0107 .25 -1.8)"/><use xlink:href="#H" width="10.3" height="5.7" transform="matrix(1.0318 -.2159 .1942 .9521 -1.7 -8.35)"/><use xlink:href="#I" width="13.8" height="9.5" transform="matrix(.9821 -.0868 .1426 1.0121 -10.4 -26.7)"/><use xlink:href="#J" width="18.7" height="14.3" transform="matrix(.8023 .2004 -.358 .9298 -.85 -26.55)"/><use xlink:href="#K" width="20.7" height="13.9" transform="matrix(.7392 .3654 -.3784 .8099 -5.2 -20.7)"/><use xlink:href="#L" width="21.9" height="18.3" transform="rotate(9.013 246.315 -25.16)scale(.999)"/><use xlink:href="#M" width="9.4" height="10.6" transform="matrix(1.0266 -.0861 .1642 1.0029 -16.3 -24.95)"/></g></g><g clip-path="url(#aB)"><g transform="translate(1865.95 44.1)"><use xlink:href="#A" width="14.7" height="4.3" transform="matrix(.799 0 0 .8008 -5.45 -1.55)"/><use xlink:href="#ac" width="8.8" height="7.2" transform="matrix(-1.5513 -.5973 -.3601 .8777 -3.15 -2.95)"/><use xlink:href="#C" width="9.2" height="18.4" transform="matrix(-.0945 .9766 .8102 .0963 3.85 -26.75)"/><use xlink:href="#D" width="8" height="9.1" transform="matrix(-.9354 -.1318 .1825 -.9331 21.15 -20.75)"/><use xlink:href="#E" width="6.3" height="3.4" transform="matrix(-.4901 1.0015 -.8511 -.4779 -4.05 -12.95)"/><use xlink:href="#F" width="10.3" height="5.7" transform="matrix(.0305 .9792 -.9271 .1719 1.1 -14.75)"/><use xlink:href="#an" width="6.3" height="3.4" transform="matrix(.9816 .043 -.0356 1.0107 -.15 -1.95)"/><use xlink:href="#H" width="10.3" height="5.7" transform="matrix(1.041 -.1284 .1237 .9694 -2.1 -9)"/><use xlink:href="#I" width="13.8" height="9.5" transform="matrix(.9869 -.0439 .0896 1.0149 -10.4 -27.25)"/><use xlink:href="#J" width="18.7" height="14.3" transform="matrix(.8065 .1833 -.3381 .9374 -1.3 -26.45)"/><use xlink:href="#K" width="20.7" height="13.9" transform="matrix(.7515 .3397 -.3292 .8325 -5.7 -20.4)"/><use xlink:href="#L" width="21.9" height="18.3" transform="rotate(7.794 283.976 -31.143)scale(.9991)"/><use xlink:href="#M" width="9.4" height="10.6" transform="matrix(1.0233 -.0677 .1368 1.0043 -16.4 -25.7)"/></g></g><g clip-path="url(#aC)"><g transform="translate(1926.95 44.1)"><use xlink:href="#A" width="14.7" height="4.3" transform="matrix(.799 0 0 .8008 -5.45 -1.65)"/><use xlink:href="#ac" width="8.8" height="7.2" transform="matrix(-1.6593 -.6231 -.3052 .7438 -5.35 -3.05)"/><use xlink:href="#C" width="9.2" height="18.4" transform="matrix(-.2259 .955 .7898 .2051 4.05 -27.5)"/><use xlink:href="#D" width="8" height="9.1" transform="matrix(-.9316 -.1609 .2186 -.9257 20.65 -19.55)"/><use xlink:href="#E" width="6.3" height="3.4" transform="matrix(-.2895 1.0792 -.9219 -.3138 -3.45 -12.5)"/><use xlink:href="#F" width="10.3" height="5.7" transform="matrix(.1437 .9883 -.9068 .2862 2 -14.3)"/><use xlink:href="#an" width="6.3" height="3.4" transform="matrix(.9823 .043 -.0186 1.0107 -.6 -2.15)"/><use xlink:href="#H" width="10.3" height="5.7" transform="matrix(1.0429 -.0375 .0518 .9813 -2.5 -9.55)"/><use xlink:href="#I" width="13.8" height="9.5" transform="matrix(.9898 -.0008 .0399 1.0149 -10.4 -27.8)"/><use xlink:href="#J" width="18.7" height="14.3" transform="matrix(.8098 .1687 -.3212 .9434 -1.8 -26.4)"/><use xlink:href="#K" width="20.7" height="13.9" transform="matrix(.7618 .3162 -.2815 .8512 -6.15 -20.2)"/><use xlink:href="#L" width="21.9" height="18.3" transform="rotate(6.76 326.533 -38.4)scale(.9991)"/><use xlink:href="#M" width="9.4" height="10.6" transform="matrix(1.0197 -.0495 .1062 1.0053 -16.6 -26.5)"/></g></g><g clip-path="url(#aD)"><g transform="translate(1987.95 44.1)"><use xlink:href="#A" width="14.7" height="4.3" transform="matrix(.799 0 0 .8008 -5.4 -1.7)"/><use xlink:href="#ac" width="8.8" height="7.2" transform="matrix(-1.7657 -.653 -.2502 .6099 -7.6 -2.95)"/><use xlink:href="#C" width="9.2" height="18.4" transform="matrix(-.3562 .9146 .7538 .3127 4.3 -28.1)"/><use xlink:href="#D" width="8" height="9.1" transform="matrix(-.9264 -.193 .2514 -.9178 20.25 -18.25)"/><use xlink:href="#E" width="6.3" height="3.4" transform="matrix(-.0739 1.1174 -.9615 -.1401 -2.85 -12)"/><use xlink:href="#F" width="10.3" height="5.7" transform="matrix(.2561 .9851 -.8723 .3982 2.7 -13.85)"/><use xlink:href="#an" width="6.3" height="3.4" transform="matrix(.9829 .043 -.0048 1.0103 -1.05 -2.3)"/><use xlink:href="#H" width="10.3" height="5.7" transform="matrix(1.037 .0459 -.018 .9879 -2.95 -10.2)"/><use xlink:href="#I" width="13.8" height="9.5" transform="matrix(.9907 .0392 -.0095 1.0124 -10.4 -28.35)"/><use xlink:href="#J" width="18.7" height="14.3" transform="matrix(.8133 .1514 -.301 .9502 -2.3 -26.2)"/><use xlink:href="#K" width="20.7" height="13.9" transform="matrix(.7724 .2898 -.2328 .8671 -6.75 -19.85)"/><use xlink:href="#L" width="21.9" height="18.3" transform="rotate(5.535 397.726 -50.328)scale(.9994)"/><use xlink:href="#M" width="9.4" height="10.6" transform="matrix(1.0157 -.0314 .0756 1.0053 -16.65 -27.25)"/></g></g><g clip-path="url(#aE)"><g transform="translate(2048.95 44.1)"><use xlink:href="#A" width="14.7" height="4.3" transform="matrix(.799 0 0 .8008 -5.35 -1.8)"/><use xlink:href="#ac" width="8.8" height="7.2" transform="matrix(-1.8752 -.6806 -.1961 .4764 -9.9 -2.9)"/><use xlink:href="#C" width="9.2" height="18.4" transform="matrix(-.4781 .859 .7055 .4131 4.6 -28.55)"/><use xlink:href="#D" width="8" height="9.1" transform="matrix(-.921 -.224 .288 -.9083 19.7 -17.1)"/><use xlink:href="#E" width="6.3" height="3.4" transform="matrix(.1418 1.1129 -.9688 .035 -2.3 -11.6)"/><use xlink:href="#F" width="10.3" height="5.7" transform="matrix(.3747 .9681 -.8255 .5063 3.25 -13.35)"/><use xlink:href="#an" width="6.3" height="3.4" transform="matrix(.9837 .0431 .0092 1.0098 -1.5 -2.45)"/><use xlink:href="#H" width="10.3" height="5.7" transform="matrix(1.0237 .135 -.0939 .9889 -3.35 -10.7)"/><use xlink:href="#I" width="13.8" height="9.5" transform="matrix(.9899 .0833 -.0627 1.0071 -10.45 -28.9)"/><use xlink:href="#J" width="18.7" height="14.3" transform="matrix(.8164 .1371 -.2851 .9561 -2.7 -26.1)"/><use xlink:href="#K" width="20.7" height="13.9" transform="matrix(.782 .2659 -.1829 .881 -7.2 -19.55)"/><use xlink:href="#L" width="21.9" height="18.3" transform="rotate(4.51 486.454 -65.577)scale(.9997)"/><use xlink:href="#M" width="9.4" height="10.6" transform="matrix(1.0115 -.0143 .049 1.0044 -16.75 -28.1)"/></g></g></svg>