<svg xmlns="http://www.w3.org/2000/svg" xmlns:xlink="http://www.w3.org/1999/xlink" width="2325" height="101" viewBox="0 0 2325 101"><defs><g id="d"><path fill="none" stroke="#1f1f1f" stroke-linecap="round" stroke-linejoin="round" stroke-opacity=".5" stroke-width="__RESOLUTION__" d="M3.6 10.7Q5 15 6.8 17.9q1.2 2 2.3 2.6l.9.1q2.3-.3 3.5-1.4l.7-1q3.7-1.2 3.6-5.1-.2-2.3-1.2-5h.5q.8.2 1-.2.2-.3-.3-1.1l-1.6-1.4q.5-.2.4-.5 0-.5-.8-1L14.4 3h-.1l-.8-1L12.1.8" vector-effect="non-scaling-stroke"/><path fill="#252e0e" fill-opacity=".3" d="m10.5.3.5.2 1.1.3 1.4 1.3.5 1.6q1 1.9-.8 1.3 4.3 2.9 1.3 3.4h-1q2.4 9.3-1.1 7.7v1q-.1 2.8-3.3 3.3Q8 20 6.9 18q-1.7-2.9-3-6.2-4.7-5-3.7-7.1L4.6.8Q7.3-.4 10.5.3"/></g><g id="f"><path fill="none" stroke="#1f1f1f" stroke-linecap="round" stroke-linejoin="round" stroke-opacity=".3" stroke-width="__RESOLUTION__" d="M2.2 7.6Q.3 7.5 0 4.1l1 .8.3.1-.1-1.1L1.1 1 .8 0l2.8 2.7q.7.8.9 1.8l.3-.2 1.2-1Q6.2 6.7 3.9 7l-.7.3-.8-.2" vector-effect="non-scaling-stroke"/><path fill="#252e0e" fill-opacity=".3" d="m3.2 7.3-.9-.1-.2.4Q.5 7.5 0 4.1l1 .8.3.1-.1-1.1L1.1 1q1.8 3 2.1 4.7v.4z"/></g><g id="j"><path fill="#252e0e" fill-opacity=".3" d="m2.5 1.3.2.6q.5 1.7-.5 4.2l-1 1.5q.3-1.4-.1-3.8L.9 2.7l-.1.2-.8.9Q-.1.4 1.3 0l.2.4.2-.1z"/><path fill="none" stroke="#1f1f1f" stroke-linecap="round" stroke-linejoin="round" stroke-opacity=".3" stroke-width="__RESOLUTION__" d="M3 .2q1.9.1 2.2 3.5L4 2.9l-.3-.1q0 .9-.5 1.8l-1 1.5-1 1.5q.3-1.4-.1-3.8L.9 2.7l-.1.2-.8.9Q-.1.4 1.3 0" vector-effect="non-scaling-stroke"/></g><g id="I"><path fill="#7b5e41" d="m.9.1 5.8.5L3 8l1.8 7.2.4-.2.5 1.8-3.7-1q-.3-.3-.3-1.4L0 7.8Q-.3 6.8.8.1"/><path fill="#99825c" d="M6.7.6q.6-.2 2 1.5 1.8 2 2.4 2.3 0 1.2-2.6 2.2-2.5.8-2.2 1.9.8 2.2 2 4.1l.7-.2h1.4q1.2-.7 2.2.3l.6.8q1.4-.4 1.5 1.2 0 1-.4 1.4l-2 1-2.5.5-4.1-.7-.5-1.8-.4.2L3 8.1zm2 12.6-.4-.6zm3.5.8 1-.5zm-2.7-.8.9-.8z"/><path fill="none" stroke="#3a280a" stroke-linecap="round" stroke-linejoin="round" stroke-width="__RESOLUTION__" d="M11.1 4.4q0 1.2-2.6 2.2-2.5.8-2.2 1.9.8 2.2 2 4.1l.7-.2h1.4q1.2-.7 2.2.3l.6.8q1.4-.4 1.5 1.2 0 1-.4 1.4l-2 1-2.5.5m-8.1-3L0 7.9Q-.2 6.8.9 0" vector-effect="non-scaling-stroke"/><path fill="none" stroke="#4f4a3f" stroke-linecap="round" stroke-linejoin="round" stroke-width="__RESOLUTION__" d="m9.8 17.6-4.1-.7-3.7-1q-.3-.3-.3-1.4m6.6-1.9.4.6m4.5.3-1 .5m-1.8-1.6-1 .8" vector-effect="non-scaling-stroke"/></g><g id="J"><path fill="#99825c" d="M5.6 0Q6-.1 7.8 1q.8.7 1.3 2.2l.7 2.3q0 2.3-.6 4.3Q8.9 11 8 11.4L5 13l-2.1-1.8q1.2-.8 2.4-6L6 2.7q.1-1-.4-2.6"/><path fill="#7b5e41" d="M2.8 11.2Q1.2 9.8.4 7.8t.4-4.1 2-2.3h.1L5.6 0Q6 1.7 6 2.7l-.8 2.6Q4 10.4 2.8 11.2"/><path fill="none" stroke="#3a280a" stroke-linecap="round" stroke-linejoin="round" stroke-width="__RESOLUTION__" d="M5.6 0Q6-.1 7.8 1q.8.7 1.3 2.2l.7 2.3q0 2.3-.6 4.3Q8.9 11 8 11.4L5 13M3 1.4 5.6 0" vector-effect="non-scaling-stroke"/><path fill="none" stroke="#000" stroke-linecap="round" stroke-linejoin="round" stroke-opacity=".3" stroke-width="__RESOLUTION__" d="M.4 7.8q-.9-2 .4-4.1 1.2-2.1 2-2.3H3h-.1 0" vector-effect="non-scaling-stroke"/></g><g id="K"><path fill="#765b3f" d="m.9.1 5.8.5L3 8l1.8 7.2.4-.2.5 1.8-3.7-1q-.3-.3-.3-1.4L0 7.8Q-.3 6.8.8.1"/><path fill="#947e58" d="M6.7.6q.6-.2 2 1.5 1.8 2 2.4 2.3 0 1.2-2.6 2.2-2.5.8-2.2 1.9.8 2.2 2 4.1l.7-.2h1.4q1.2-.7 2.2.3l.6.8q1.4-.4 1.5 1.2 0 1-.4 1.4l-2 1-2.5.5-4.1-.7-.5-1.8-.4.2L3 8.1zm2 12.6-.4-.6zm3.5.8 1-.5zm-2.7-.8.9-.8z"/><path fill="none" stroke="#38270a" stroke-linecap="round" stroke-linejoin="round" stroke-width="__RESOLUTION__" d="M11.1 4.4q0 1.2-2.6 2.2-2.5.8-2.2 1.9.8 2.2 2 4.1l.7-.2h1.4q1.2-.7 2.2.3l.6.8q1.4-.4 1.5 1.2 0 1-.4 1.4l-2 1-2.5.5m-8.1-3L0 7.9Q-.2 6.8.9 0" vector-effect="non-scaling-stroke"/><path fill="none" stroke="#4c483d" stroke-linecap="round" stroke-linejoin="round" stroke-width="__RESOLUTION__" d="m9.8 17.6-4.1-.7-3.7-1q-.3-.3-.3-1.4m6.6-1.9.4.6m4.5.3-1 .5m-1.8-1.6-1 .8" vector-effect="non-scaling-stroke"/></g><g id="L"><path fill="#947e58" d="M5.6 0Q6-.1 7.8 1q.8.7 1.3 2.2l.7 2.3q0 2.3-.6 4.3Q8.9 11 8 11.4L5 13l-2.1-1.8q1.2-.8 2.4-6L6 2.7q.1-1-.4-2.6"/><path fill="#765b3f" d="M2.8 11.2Q1.2 9.8.4 7.8t.4-4.1 2-2.3h.1L5.6 0Q6 1.7 6 2.7l-.8 2.6Q4 10.4 2.8 11.2"/><path fill="none" stroke="#38270a" stroke-linecap="round" stroke-linejoin="round" stroke-width="__RESOLUTION__" d="M5.6 0Q6-.1 7.8 1q.8.7 1.3 2.2l.7 2.3q0 2.3-.6 4.3Q8.9 11 8 11.4L5 13M3 1.4 5.6 0" vector-effect="non-scaling-stroke"/><path fill="none" stroke="#000" stroke-linecap="round" stroke-linejoin="round" stroke-opacity=".3" stroke-width="__RESOLUTION__" d="M.4 7.8q-.9-2 .4-4.1 1.2-2.1 2-2.3H3h-.1 0" vector-effect="non-scaling-stroke"/></g><g id="M"><path fill="#7f6243" d="m.9.1 5.8.5L3 8l1.8 7.2.4-.2.5 1.8-3.7-1q-.3-.3-.3-1.4L0 7.8Q-.3 6.8.8.1"/><path fill="#9f875f" d="M6.7.6q.6-.2 2 1.5 1.8 2 2.4 2.3 0 1.2-2.6 2.2-2.5.8-2.2 1.9.8 2.2 2 4.1l.7-.2h1.4q1.2-.7 2.2.3l.6.8q1.4-.4 1.5 1.2 0 1-.4 1.4l-2 1-2.5.5-4.1-.7-.5-1.8-.4.2L3 8.1zm2 12.6-.4-.6zm3.5.8 1-.5zm-2.7-.8.9-.8z"/><path fill="none" stroke="#3d2a0a" stroke-linecap="round" stroke-linejoin="round" stroke-width="__RESOLUTION__" d="M11.1 4.4q0 1.2-2.6 2.2-2.5.8-2.2 1.9.8 2.2 2 4.1l.7-.2h1.4q1.2-.7 2.2.3l.6.8q1.4-.4 1.5 1.2 0 1-.4 1.4l-2 1-2.5.5m-8.1-3L0 7.9Q-.2 6.8.9 0" vector-effect="non-scaling-stroke"/><path fill="none" stroke="#524d41" stroke-linecap="round" stroke-linejoin="round" stroke-width="__RESOLUTION__" d="m9.8 17.6-4.1-.7-3.7-1q-.3-.3-.3-1.4m6.6-1.9.4.6m4.5.3-1 .5m-1.8-1.6-1 .8" vector-effect="non-scaling-stroke"/></g><g id="N"><path fill="#9f875f" d="M5.6 0Q6-.1 7.8 1q.8.7 1.3 2.2l.7 2.3q0 2.3-.6 4.3Q8.9 11 8 11.4L5 13l-2.1-1.8q1.2-.8 2.4-6L6 2.7q.1-1-.4-2.6"/><path fill="#7f6243" d="M2.8 11.2Q1.2 9.8.4 7.8t.4-4.1 2-2.3h.1L5.6 0Q6 1.7 6 2.7l-.8 2.6Q4 10.4 2.8 11.2"/><path fill="none" stroke="#3d2a0a" stroke-linecap="round" stroke-linejoin="round" stroke-width="__RESOLUTION__" d="M5.6 0Q6-.1 7.8 1q.8.7 1.3 2.2l.7 2.3q0 2.3-.6 4.3Q8.9 11 8 11.4L5 13M3 1.4 5.6 0" vector-effect="non-scaling-stroke"/><path fill="none" stroke="#000" stroke-linecap="round" stroke-linejoin="round" stroke-opacity=".3" stroke-width="__RESOLUTION__" d="M.4 7.8q-.9-2 .4-4.1 1.2-2.1 2-2.3H3h-.1 0" vector-effect="non-scaling-stroke"/></g><g id="O"><path fill="#74593d" d="m.9.1 5.8.5L3 8l1.8 7.2.4-.2.5 1.8-3.7-1q-.3-.3-.3-1.4L0 7.8Q-.3 6.8.8.1"/><path fill="#917b57" d="M6.7.6q.6-.2 2 1.5 1.8 2 2.4 2.3 0 1.2-2.6 2.2-2.5.8-2.2 1.9.8 2.2 2 4.1l.7-.2h1.4q1.2-.7 2.2.3l.6.8q1.4-.4 1.5 1.2 0 1-.4 1.4l-2 1-2.5.5-4.1-.7-.5-1.8-.4.2L3 8.1zm2 12.6-.4-.6zm3.5.8 1-.5zm-2.7-.8.9-.8z"/><path fill="none" stroke="#372609" stroke-linecap="round" stroke-linejoin="round" stroke-width="__RESOLUTION__" d="M11.1 4.4q0 1.2-2.6 2.2-2.5.8-2.2 1.9.8 2.2 2 4.1l.7-.2h1.4q1.2-.7 2.2.3l.6.8q1.4-.4 1.5 1.2 0 1-.4 1.4l-2 1-2.5.5m-8.1-3L0 7.9Q-.2 6.8.9 0" vector-effect="non-scaling-stroke"/><path fill="none" stroke="#4b463c" stroke-linecap="round" stroke-linejoin="round" stroke-width="__RESOLUTION__" d="m9.8 17.6-4.1-.7-3.7-1q-.3-.3-.3-1.4m6.6-1.9.4.6m4.5.3-1 .5m-1.8-1.6-1 .8" vector-effect="non-scaling-stroke"/></g><g id="P"><path fill="#795d40" d="m.9.1 5.8.5L3 8l1.8 7.2.4-.2.5 1.8-3.7-1q-.3-.3-.3-1.4L0 7.8Q-.3 6.8.8.1"/><path fill="#97805a" d="M6.7.6q.6-.2 2 1.5 1.8 2 2.4 2.3 0 1.2-2.6 2.2-2.5.8-2.2 1.9.8 2.2 2 4.1l.7-.2h1.4q1.2-.7 2.2.3l.6.8q1.4-.4 1.5 1.2 0 1-.4 1.4l-2 1-2.5.5-4.1-.7-.5-1.8-.4.2L3 8.1zm2 12.6-.4-.6zm3.5.8 1-.5zm-2.7-.8.9-.8z"/><path fill="none" stroke="#39280a" stroke-linecap="round" stroke-linejoin="round" stroke-width="__RESOLUTION__" d="M11.1 4.4q0 1.2-2.6 2.2-2.5.8-2.2 1.9.8 2.2 2 4.1l.7-.2h1.4q1.2-.7 2.2.3l.6.8q1.4-.4 1.5 1.2 0 1-.4 1.4l-2 1-2.5.5m-8.1-3L0 7.9Q-.2 6.8.9 0" vector-effect="non-scaling-stroke"/><path fill="none" stroke="#4e493e" stroke-linecap="round" stroke-linejoin="round" stroke-width="__RESOLUTION__" d="m9.8 17.6-4.1-.7-3.7-1q-.3-.3-.3-1.4m6.6-1.9.4.6m4.5.3-1 .5m-1.8-1.6-1 .8" vector-effect="non-scaling-stroke"/></g><g id="Q"><path fill="#7d6042" d="M.4.6 5.2 0q.5-.3 1.7 1.2l2.1 2Q9 4.6 7 6T5.3 8.3q.6 1.9 1.5 3.5l.5-.3 1-.3q.9-1 1.6-.1l.6.7q1-.6 1.1 1 .1 1.1-.1 1.6L10 15.8l-1.9.9-5.8-.3-.3-.7h-.1L0 8.7Q-.1 7.7.4.6m7 12.3-.6-1.1zm.2-.7.7-1zm2.2.4.6-.8z"/><path fill="none" stroke="#3b290a" stroke-linecap="round" stroke-linejoin="round" stroke-width="__RESOLUTION__" d="M9 3.3Q9 4.6 7 6 5 7.3 5.3 8.3q.6 1.9 1.5 3.5l.5-.3 1-.3q.9-1 1.6-.1l.6.7q1-.6 1.1 1 .1 1.1-.1 1.6L10 15.8l-1.9.9v0l-5.8-.3-.3-.7m-.1 0L0 8.7Q-.1 7.7.4.6m6.4 11.2.7 1m.8-1.6-.6 1m2.8-.4-.8.8" vector-effect="non-scaling-stroke"/></g><g id="R"><path fill="#7d6042" d="m.9.1 5.8.5L3 8l1.8 7.2.4-.2.5 1.8-3.7-1q-.3-.3-.3-1.4L0 7.8Q-.3 6.8.8.1"/><path fill="#9c855d" d="M6.7.6q.6-.2 2 1.5 1.8 2 2.4 2.3 0 1.2-2.6 2.2-2.5.8-2.2 1.9.8 2.2 2 4.1l.7-.2h1.4q1.2-.7 2.2.3l.6.8q1.4-.4 1.5 1.2 0 1-.4 1.4l-2 1-2.5.5-4.1-.7-.5-1.8-.4.2L3 8.1zm2 12.6-.4-.6zm3.5.8 1-.5zm-2.7-.8.9-.8z"/><path fill="none" stroke="#3b290a" stroke-linecap="round" stroke-linejoin="round" stroke-width="__RESOLUTION__" d="M11.1 4.4q0 1.2-2.6 2.2-2.5.8-2.2 1.9.8 2.2 2 4.1l.7-.2h1.4q1.2-.7 2.2.3l.6.8q1.4-.4 1.5 1.2 0 1-.4 1.4l-2 1-2.5.5m-8.1-3L0 7.9Q-.2 6.8.9 0" vector-effect="non-scaling-stroke"/><path fill="none" stroke="#514c40" stroke-linecap="round" stroke-linejoin="round" stroke-width="__RESOLUTION__" d="m9.8 17.6-4.1-.7-3.7-1q-.3-.3-.3-1.4m6.6-1.9.4.6m4.5.3-1 .5m-1.8-1.6-1 .8" vector-effect="non-scaling-stroke"/></g><g id="S"><path fill="#9c855d" d="M5.6 0Q6-.1 7.8 1q.8.7 1.3 2.2l.7 2.3q0 2.3-.6 4.3Q8.9 11 8 11.4L5 13l-2.1-1.8q1.2-.8 2.4-6L6 2.7q.1-1-.4-2.6"/><path fill="#7d6042" d="M2.8 11.2Q1.2 9.8.4 7.8t.4-4.1 2-2.3h.1L5.6 0Q6 1.7 6 2.7l-.8 2.6Q4 10.4 2.8 11.2"/><path fill="none" stroke="#3b290a" stroke-linecap="round" stroke-linejoin="round" stroke-width="__RESOLUTION__" d="M5.6 0Q6-.1 7.8 1q.8.7 1.3 2.2l.7 2.3q0 2.3-.6 4.3Q8.9 11 8 11.4L5 13M3 1.4 5.6 0" vector-effect="non-scaling-stroke"/><path fill="none" stroke="#000" stroke-linecap="round" stroke-linejoin="round" stroke-opacity=".3" stroke-width="__RESOLUTION__" d="M.4 7.8q-.9-2 .4-4.1 1.2-2.1 2-2.3H3h-.1 0" vector-effect="non-scaling-stroke"/></g><g id="T"><path fill="#795d40" d="M.4.6 5.2 0q.5-.3 1.7 1.2l2.1 2Q9 4.6 7 6T5.3 8.3q.6 1.9 1.5 3.5l.5-.3 1-.3q.9-1 1.6-.1l.6.7q1-.6 1.1 1 .1 1.1-.1 1.6L10 15.8l-1.9.9-5.8-.3-.3-.7h-.1L0 8.7Q-.1 7.7.4.6m7 12.3-.6-1.1zm.2-.7.7-1zm2.2.4.6-.8z"/><path fill="none" stroke="#39280a" stroke-linecap="round" stroke-linejoin="round" stroke-width="__RESOLUTION__" d="M9 3.3Q9 4.6 7 6 5 7.3 5.3 8.3q.6 1.9 1.5 3.5l.5-.3 1-.3q.9-1 1.6-.1l.6.7q1-.6 1.1 1 .1 1.1-.1 1.6L10 15.8l-1.9.9v0l-5.8-.3-.3-.7m-.1 0L0 8.7Q-.1 7.7.4.6m6.4 11.2.7 1m.8-1.6-.6 1m2.8-.4-.8.8" vector-effect="non-scaling-stroke"/></g><g id="U"><path fill="#97805a" d="M5.6 0Q6-.1 7.8 1q.8.7 1.3 2.2l.7 2.3q0 2.3-.6 4.3Q8.9 11 8 11.4L5 13l-2.1-1.8q1.2-.8 2.4-6L6 2.7q.1-1-.4-2.6"/><path fill="#795d40" d="M2.8 11.2Q1.2 9.8.4 7.8t.4-4.1 2-2.3h.1L5.6 0Q6 1.7 6 2.7l-.8 2.6Q4 10.4 2.8 11.2"/><path fill="none" stroke="#39280a" stroke-linecap="round" stroke-linejoin="round" stroke-width="__RESOLUTION__" d="M5.6 0Q6-.1 7.8 1q.8.7 1.3 2.2l.7 2.3q0 2.3-.6 4.3Q8.9 11 8 11.4L5 13M3 1.4 5.6 0" vector-effect="non-scaling-stroke"/><path fill="none" stroke="#000" stroke-linecap="round" stroke-linejoin="round" stroke-opacity=".3" stroke-width="__RESOLUTION__" d="M.4 7.8q-.9-2 .4-4.1 1.2-2.1 2-2.3H3h-.1 0" vector-effect="non-scaling-stroke"/></g><g id="V"><path fill="#826445" d="M6.7 12.6q2.2 1.6.6 3.4t-2.8 2.1l-2.4.7q-1.2.3-1.5-1.7l-.4-3.3q0-1.2.8-1.7t2.2-.8 3.4 1.3z"/><path fill="none" stroke="#3e2b0b" stroke-linecap="round" stroke-linejoin="round" stroke-width="__RESOLUTION__" d="M6.7 12.6q2.2 1.6.6 3.4t-2.8 2.1l-2.4.7q-1.2.3-1.5-1.7l-.4-3.3q0-1.2.8-1.7t2.2-.8 3.4 1.3z" vector-effect="non-scaling-stroke"/><path fill="#826445" d="M0 14.3Q-.1 3.9 7.6 0l.7.2q-5.4 8-5.9 14.7-2-1.2-2.4-.6"/><path fill="#a28a61" d="M2.5 14.9Q3 8.3 8.3.2q4.7.9 6.2 7l-.1 1q-.8 2.9-2.9 5.2-2.1 2.2-6.3 2.5-1.5-.2-2.7-1"/><path fill="none" stroke="#3e2b0b" stroke-linecap="round" stroke-linejoin="round" stroke-width="__RESOLUTION__" d="M8.3.2 7.6 0Q-.1 3.9 0 14.3M8.3.2q4.7.9 6.2 7" vector-effect="non-scaling-stroke"/></g><g id="W"><path fill="#a28a61" d="M4.9 0Q6 0 8.3.9l2.4 4.6 2.2 3.4q1.7 2.9 2.2 5.7 0 1.4-.6 2-.7.5-1.6 2.4.7-5.2-1.8-9.9-3-5.5-4.5-7T4.9 0"/><path fill="#826445" d="M12.9 19q-.1-.4-.4.3-2 2.6-3.5 2.8t-3.1-1.8-3-5.3q-1.5-3.5-1.1-6.1l1-7.1Q3.7.2 4.7.1L5 0q.1.6 1.7 2 1.5 1.5 4.5 7.1 2.5 4.7 1.8 10"/><path fill="none" stroke="#544f43" stroke-linecap="round" stroke-linejoin="round" stroke-width="__RESOLUTION__" d="M4.9 0Q6 0 8.3.9l2.4 4.6 2.2 3.4q1.7 2.9 2.2 5.7m-9.2 5.8q-1.6-2-3-5.4-1.5-3.5-1.1-6.1l1-7.1Q3.7.2 4.7.1L5 0m4 22q-1.5.3-3.1-1.6" vector-effect="non-scaling-stroke"/><path fill="#826445" d="M5.1 7.8q1.6 2 2.3 4.1.2 3-.9 7.1-3-.6-5.6-5L0 10.3l.7-2.7Q1.1 6 1.9 5.3zm-.8 7.3q-1.1-.9-2-2.6.9 1.7 2 2.6"/><path fill="none" stroke="#3e2b0b" stroke-linecap="round" stroke-linejoin="round" stroke-width="__RESOLUTION__" d="M6.6 19q-3-.5-5.7-5L0 10.3l.7-2.7Q1.1 6 1.9 5.3L5 7.8m-2.8 4.7q.9 1.7 2 2.5" vector-effect="non-scaling-stroke"/></g><g id="X"><path fill="#a28a61" d="M11.9.1q.7 3.4.4 7.3h.1q.9 2.7-.5 5.3l-2.2.4q1.2-2.9 1-5.3l-.5.1q-.1 2-2 4.8l-.2.5-2.8.2q0-.8.8-2.1t.9-2.8l-1.4.3q.2 1-.5 2.3l-.6 1.2-.5.9-2.8.2v-.1l-.7-1q.9.4 2 0 1-1.4 1.3-2.2l.4-1.4Q4.2 5 3 1.9 7.9-.6 11.9 0"/><path fill="#826445" d="M3 1.9Q4.2 5 4.2 8.7L3.7 10q-.2.8-1.2 2.2-1.2.4-2.1 0L.3 12l-.1-.2q-.4-.9.2-1.8l.8-.7.6.7q-.1-.7-.7-2Q.3 6.9.2 5.4zm1.4 10.4.6-1.2q.7-1.2.5-2.3l1.4-.2q-.2 1.3-1 2.7t-.8 2.1zm3.9.4Q10 9.9 10.2 8l.5-.1q.2 2.4-1 5.2h-.1L9 13zm-6.5-2.5"/><path fill="none" stroke="#3e2b0b" stroke-linecap="round" stroke-linejoin="round" stroke-width="__RESOLUTION__" d="M12.4 7.4q.2-3.9-.6-7.3M.4 12.3l.7 1v0l2.8-.1.5-.9.6-1.2q.7-1.2.5-2.3m-.3 4.6 2.8-.2.3-.5Q10 9.9 10.2 8m-.5 5 2.2-.3q1.3-2.6.5-5.3M9.6 13H9l-.7-.3m-7.9-.4L.3 12l-.1-.2q-.4-.9.2-1.8l.8-.7.6.7q-.1-.7-.7-2Q.3 6.9.2 5.4m5 8.1-.8-1.1" vector-effect="non-scaling-stroke"/></g><g id="Y"><path fill="#826445" d="m.9.1 5.8.5L3 8l1.8 7.2.4-.2.5 1.8-3.7-1q-.3-.3-.3-1.4L0 7.8Q-.3 6.8.8.1"/><path fill="#a28a61" d="M6.7.6q.6-.2 2 1.5 1.8 2 2.4 2.3 0 1.2-2.6 2.2-2.5.8-2.2 1.9.8 2.2 2 4.1l.7-.2h1.4q1.2-.7 2.2.3l.6.8q1.4-.4 1.5 1.2 0 1-.4 1.4l-2 1-2.5.5-4.1-.7-.5-1.8-.4.2L3 8.1zm2 12.6-.4-.6zm3.5.8 1-.5zm-2.7-.8.9-.8z"/><path fill="none" stroke="#3e2b0b" stroke-linecap="round" stroke-linejoin="round" stroke-width="__RESOLUTION__" d="M11.1 4.4q0 1.2-2.6 2.2-2.5.8-2.2 1.9.8 2.2 2 4.1l.7-.2h1.4q1.2-.7 2.2.3l.6.8q1.4-.4 1.5 1.2 0 1-.4 1.4l-2 1-2.5.5m-8.1-3L0 7.9Q-.2 6.8.9 0" vector-effect="non-scaling-stroke"/><path fill="none" stroke="#544f43" stroke-linecap="round" stroke-linejoin="round" stroke-width="__RESOLUTION__" d="m9.8 17.6-4.1-.7-3.7-1q-.3-.3-.3-1.4m6.6-1.9.4.6m4.5.3-1 .5m-1.8-1.6-1 .8" vector-effect="non-scaling-stroke"/></g><g id="Z"><path fill="#a28a61" d="M5.6 0Q6-.1 7.8 1q.8.7 1.3 2.2l.7 2.3q0 2.3-.6 4.3Q8.9 11 8 11.4L5 13l-2.1-1.8q1.2-.8 2.4-6L6 2.7q.1-1-.4-2.6"/><path fill="#826445" d="M2.8 11.2Q1.2 9.8.4 7.8t.4-4.1 2-2.3h.1L5.6 0Q6 1.7 6 2.7l-.8 2.6Q4 10.4 2.8 11.2"/><path fill="none" stroke="#3e2b0b" stroke-linecap="round" stroke-linejoin="round" stroke-width="__RESOLUTION__" d="M5.6 0Q6-.1 7.8 1q.8.7 1.3 2.2l.7 2.3q0 2.3-.6 4.3Q8.9 11 8 11.4L5 13M3 1.4 5.6 0" vector-effect="non-scaling-stroke"/><path fill="none" stroke="#000" stroke-linecap="round" stroke-linejoin="round" stroke-opacity=".3" stroke-width="__RESOLUTION__" d="M.4 7.8q-.9-2 .4-4.1 1.2-2.1 2-2.3H3h-.1 0" vector-effect="non-scaling-stroke"/></g><g id="aa"><path fill="#88b526" d="M31.2 1.9 18.6 6.8l-10 9-8.6-.6 7.4-4.8 6.4-7L26.6 0z"/><path fill="#6a8c1e" d="m0 15.3 8.6.4 10-8.9 12.6-4.9L33 6.5 22.4 18.7l-12.2 1.9z"/><path fill="none" stroke="#3e2b0b" stroke-linecap="round" stroke-linejoin="round" stroke-width="__RESOLUTION__" d="M26.6 0 13.8 3.4l-6.4 7L0 15.3l10.2 5.3 12.2-1.9L33 6.5" vector-effect="non-scaling-stroke"/></g><g id="ab"><path fill="#74593d" d="M6.7 12.6q2.2 1.6.6 3.4t-2.8 2.1l-2.4.7q-1.2.3-1.5-1.7l-.4-3.3q0-1.2.8-1.7t2.2-.8 3.4 1.3z"/><path fill="none" stroke="#372609" stroke-linecap="round" stroke-linejoin="round" stroke-width="__RESOLUTION__" d="M6.7 12.6q2.2 1.6.6 3.4t-2.8 2.1l-2.4.7q-1.2.3-1.5-1.7l-.4-3.3q0-1.2.8-1.7t2.2-.8 3.4 1.3z" vector-effect="non-scaling-stroke"/><path fill="#74593d" d="M0 14.3Q-.1 3.9 7.6 0l.7.2q-5.4 8-5.9 14.7-2-1.2-2.4-.6"/><path fill="#917b57" d="M2.5 14.9Q3 8.3 8.3.2q4.7.9 6.2 7l-.1 1q-.8 2.9-2.9 5.2-2.1 2.2-6.3 2.5-1.5-.2-2.7-1"/><path fill="none" stroke="#372609" stroke-linecap="round" stroke-linejoin="round" stroke-width="__RESOLUTION__" d="M8.3.2 7.6 0Q-.1 3.9 0 14.3M8.3.2q4.7.9 6.2 7" vector-effect="non-scaling-stroke"/></g><g id="ac"><path fill="#917b57" d="M11.9.1q.7 3.4.4 7.3h.1q.9 2.7-.5 5.3l-2.2.4q1.2-2.9 1-5.3l-.5.1q-.1 2-2 4.8l-.2.5-2.8.2q0-.8.8-2.1t.9-2.8l-1.4.3q.2 1-.5 2.3l-.6 1.2-.5.9-2.8.2v-.1l-.7-1q.9.4 2 0 1-1.4 1.3-2.2l.4-1.4Q4.2 5 3 1.9 7.9-.6 11.9 0"/><path fill="#74593d" d="M3 1.9Q4.2 5 4.2 8.7L3.7 10q-.2.8-1.2 2.2-1.2.4-2.1 0L.3 12l-.1-.2q-.4-.9.2-1.8l.8-.7.6.7q-.1-.7-.7-2Q.3 6.9.2 5.4zm1.4 10.4.6-1.2q.7-1.2.5-2.3l1.4-.2q-.2 1.3-1 2.7t-.8 2.1zm3.9.4Q10 9.9 10.2 8l.5-.1q.2 2.4-1 5.2h-.1L9 13zm-6.5-2.5"/><path fill="none" stroke="#372609" stroke-linecap="round" stroke-linejoin="round" stroke-width="__RESOLUTION__" d="M12.4 7.4q.2-3.9-.6-7.3M.4 12.3l.7 1v0l2.8-.1.5-.9.6-1.2q.7-1.2.5-2.3m-.3 4.6 2.8-.2.3-.5Q10 9.9 10.2 8m-.5 5 2.2-.3q1.3-2.6.5-5.3M9.6 13H9l-.7-.3m-7.9-.4L.3 12l-.1-.2q-.4-.9.2-1.8l.8-.7.6.7q-.1-.7-.7-2Q.3 6.9.2 5.4m5 8.1-.8-1.1" vector-effect="non-scaling-stroke"/></g><g id="ad"><path fill="#74593d" d="M13.8 16.5q.3 1.6-.9 3t-3.1 2l-2.1.4q-3.3 0-5.1-3.6L.8 9.8Q.2 6.5 0 3.5q1.5-2.3 2.6-3Q4.4 8.8 8 15.8q2.8-.4 5.8.7"/><path fill="#806e52" d="M13.8 16.5q-3-1.1-5.8-.7Q4.6 8.8 2.7.5l.2-.1q1.3-.7 3 .6l3.6 4.8q3.3 4.6 4.4 10.7"/><path fill="none" stroke="#372609" stroke-linecap="round" stroke-linejoin="round" stroke-width="__RESOLUTION__" d="M2.6.5q-1.2.7-2.6 3 .2 3 .8 6.3l1.8 8.5q1.8 3.6 5.1 3.6l2.1-.4q2-.6 3.1-2t.8-3q-1-6.1-4.4-10.7L5.8 1Q4.1-.3 2.8.4z" vector-effect="non-scaling-stroke"/><path fill="#8e6a45" d="m12 3.8 1.5 3.8q.4 5.3-1.7 7.1Q11.5 6.8 7.7 0q1 .4 2.2 1.7zm.2 5.8q.4-1.2 0-3.2.4 2 0 3.2"/><path fill="#765737" d="M7.7 0q3.8 6.8 4.1 14.7-3.2-3.4-4.6-6.1-.8-2.4-.6-4.8z"/><path fill="none" stroke="#5f462d" stroke-linecap="round" stroke-linejoin="round" stroke-width="__RESOLUTION__" d="M11.8 14.7q2-1.8 1.7-7.1l-1.4-3.8" vector-effect="non-scaling-stroke"/><path fill="none" stroke="#372609" stroke-linecap="round" stroke-linejoin="round" stroke-width="__RESOLUTION__" d="M11.8 14.7q-3.2-3.4-4.6-6.1-.8-2.4-.6-4.8m5.7 2.5q.2 2-.2 3.3" vector-effect="non-scaling-stroke"/></g><g id="ae"><path fill="#74593d" d="M.4.6 5.2 0q.5-.3 1.7 1.2l2.1 2Q9 4.6 7 6T5.3 8.3q.6 1.9 1.5 3.5l.5-.3 1-.3q.9-1 1.6-.1l.6.7q1-.6 1.1 1 .1 1.1-.1 1.6L10 15.8l-1.9.9-5.8-.3-.3-.7h-.1L0 8.7Q-.1 7.7.4.6m7 12.3-.6-1.1zm.2-.7.7-1zm2.2.4.6-.8z"/><path fill="none" stroke="#372609" stroke-linecap="round" stroke-linejoin="round" stroke-width="__RESOLUTION__" d="M9 3.3Q9 4.6 7 6 5 7.3 5.3 8.3q.6 1.9 1.5 3.5l.5-.3 1-.3q.9-1 1.6-.1l.6.7q1-.6 1.1 1 .1 1.1-.1 1.6L10 15.8l-1.9.9v0l-5.8-.3-.3-.7m-.1 0L0 8.7Q-.1 7.7.4.6m6.4 11.2.7 1m.8-1.6-.6 1m2.8-.4-.8.8" vector-effect="non-scaling-stroke"/></g><g id="af"><path fill="#917b57" d="M5.6 0Q6-.1 7.8 1q.8.7 1.3 2.2l.7 2.3q0 2.3-.6 4.3Q8.9 11 8 11.4L5 13l-2.1-1.8q1.2-.8 2.4-6L6 2.7q.1-1-.4-2.6"/><path fill="#74593d" d="M2.8 11.2Q1.2 9.8.4 7.8t.4-4.1 2-2.3h.1L5.6 0Q6 1.7 6 2.7l-.8 2.6Q4 10.4 2.8 11.2"/><path fill="none" stroke="#372609" stroke-linecap="round" stroke-linejoin="round" stroke-width="__RESOLUTION__" d="M5.6 0Q6-.1 7.8 1q.8.7 1.3 2.2l.7 2.3q0 2.3-.6 4.3Q8.9 11 8 11.4L5 13M3 1.4 5.6 0" vector-effect="non-scaling-stroke"/><path fill="none" stroke="#000" stroke-linecap="round" stroke-linejoin="round" stroke-opacity=".3" stroke-width="__RESOLUTION__" d="M.4 7.8q-.9-2 .4-4.1 1.2-2.1 2-2.3H3h-.1 0" vector-effect="non-scaling-stroke"/></g><g id="o"><path fill="#f8e9cb" d="M0 1.1.5.4q.6-1 3.8.9.9-.8 4.5.7 0-1 4.6-.6Q12.8.2 16 0q1.7.7.8 2.8l-1.3 1q-1 1.2-3 .9Q9 6.3 6 4.7q-3.8-.2-5.5-2Q-.1 2.2 0 1m13.2.3q-.2 1 2.3 2.5-2.4-1.4-2.3-2.5M6 4.7Q3 3.2 4.2 1.3 3 3.3 6 4.7M8.7 2q1 2.1 3.9 2.8Q9.7 4 8.7 2"/><path fill="none" stroke="#1f1f1f" stroke-linecap="round" stroke-linejoin="round" stroke-opacity=".3" stroke-width="__RESOLUTION__" d="M16.1.1q1.7.7.8 2.8l-1.3 1q-1 1.2-3 .9Q9 6.3 6 4.7q-3.8-.2-5.5-2Q-.1 2.2 0 1m15.5 2.8q-2.4-1.4-2.3-2.5m-9.1-.1Q3 3.3 5.9 4.7m6.7 0Q9.7 4.2 8.7 2" vector-effect="non-scaling-stroke"/></g><g id="n" transform="translate(1.65 -.15)"><use xlink:href="#a" width="5.7" height="9.3" transform="translate(-1.65 .15)"/><use xlink:href="#b" width="4.6" height="9.3" transform="translate(-.55 .15)"/></g><g id="m"><path fill="#a28a61" d="m10.4.7 4.9-.5q-.7 2-.2 5 .5 3.4.1 5.3l-.8 1.1z"/><path fill="#826445" d="m10.3.7 4 11-1.6 1-3.5 1-.3.2H4.6q-1-.6-3-3.2Q.9 10.2.8 9L.5 6.4.2 2.6Q.2.2 0 0z"/><path fill="none" stroke="#3e2b0b" stroke-linecap="round" stroke-linejoin="round" stroke-width="__RESOLUTION__" d="m14.4 11.7.8-1.2q.4-2-.1-5.2-.4-3.1.2-5.1M0 0q.2.2.2 2.7l.3 3.7L.8 9q.1 1.2.8 1.8 2 2.7 3 3.3l4.3-.2h.3" vector-effect="non-scaling-stroke"/><path fill="none" stroke="#785e32" stroke-linecap="round" stroke-linejoin="round" stroke-width="__RESOLUTION__" d="m9.2 13.8 3.5-1.1 1.7-1" vector-effect="non-scaling-stroke"/></g><g id="q" transform="translate(5.8 1.65)"><use xlink:href="#c" width="18.2" height="20.6" transform="translate(-5.8 -1.65)"/><use xlink:href="#d" width="18.1" height="20.6" transform="translate(-5.75 -1.65)"/></g><g id="p"><path fill="#826445" d="M4.3 30.5q-.4-3.1-4-13.4-1-6.6 1.3-13.1Q7-1.6 15.8.6h.2q7.4 2.2 9.3 8.4-.1 7.2-4.1 11.4-1.3-.4-2.2.6-2.2 2.6-3.9 4l-1.2 3.2q-.5 1.7.3 3-6.1 1.3-9.9-.7m2.9-2.7q-1-7.3-.3-11.8-.6 4.5.3 11.8m-4.8-7.5L.3 17zm18-6.5q-2.7 6.6-8 7.8 5.3-1.2 8-7.8"/><path fill="#a28a61" d="m21.2 20.4-1.6 4.7q-1 2.9-1.1 5.8l-4.4.3q-.7-1.3-.3-3l1.3-3.2q1.7-1.5 3.9-4 .8-1 2.2-.6"/><path fill="none" stroke="#3e2b0b" stroke-linecap="round" stroke-linejoin="round" stroke-width="__RESOLUTION__" d="M4.3 30.5q-.4-3.1-4-13.4-1-6.6 1.3-13.1Q7-1.6 15.8.6h.2q7.4 2.2 9.3 8.4-.1 7.2-4.1 11.4l-1.6 4.7q-1 2.9-1.1 5.8M6.9 16q-.6 4.5.3 11.8M.3 17.1l2.1 3.2m10 1.3q5.3-1.2 8-7.8" vector-effect="non-scaling-stroke"/></g><g id="B"><path fill="#a28a61" d="M0 10.7Q.2 6.2 5.3 0q1 5.3.4 10.7-2.1 1.2-4 .4-.8 0-1.7-.4m3.9-5.9q-1.6 1.7-2.2 6.3.5-4.6 2.2-6.3"/><path fill="none" stroke="#3e2b0b" stroke-linecap="round" stroke-linejoin="round" stroke-width="__RESOLUTION__" d="M0 10.7Q.2 6.2 5.3 0q1 5.3.4 10.7m-4 .4q.6-4.6 2.2-6.3" vector-effect="non-scaling-stroke"/></g><g id="A" transform="translate(3.1 7.65)"><use xlink:href="#e" width="6" height="7.6" transform="translate(-3.1 -7.65)"/><use xlink:href="#f" width="6" height="7.6" transform="translate(-3.1 -7.65)"/><use xlink:href="#g" width="4.5" height="2" transform="translate(-2 -1.2)"/><use xlink:href="#h" width="4.5" height="2" transform="translate(-2 -1.2)"/></g><g id="z"><path fill="#6a8c1e" d="m28.8 37.9-5 .2-2.6-2.4v-5.2l3.6 2.3 5.3-1.5z"/><path fill="none" stroke="#785e32" stroke-linecap="round" stroke-linejoin="round" stroke-width="__RESOLUTION__" d="m28.8 37.9 1.2-6.5-5.2 1.4-3.6-2.3v5.2l2.6 2.3z" vector-effect="non-scaling-stroke"/><path fill="#fff" d="m25.3 32 3.3.5-1.2 6.5z"/><path fill="none" stroke="#35271a" stroke-linecap="round" stroke-linejoin="round" stroke-width="__RESOLUTION__" d="M28.7 32.5 27.4 39" vector-effect="non-scaling-stroke"/><path fill="none" stroke="#fff" stroke-linecap="round" stroke-linejoin="round" stroke-width="__RESOLUTION__" d="m27.5 39-2.3-7" vector-effect="non-scaling-stroke"/><path fill="#88b526" d="M20.8 12q1.9 4.9 4.7 7.2.9.7.8 1.3l-.5 1.1-1 2.8 3.9 2.9q1.7 1.9 1.2 5.4-5.2 1.1-6.1.6l1.1-4.8q-2.8-3.6-5.6-2.3-.9-5.3 1.4-14.3"/><path fill="#6a8c1e" d="m23.8 33.3-1.3 1.4L8.3 33Q1.8 19.2.2 17l-.2-.2.3-.5q1.4-2.8 5.8-4.7 1.5-2.3 6-2.1 4.7.1 8.7 2.5-2.4 8.9-1.6 14.2 2.9-1.2 5.8 2.3z"/><path fill="none" stroke="#000" stroke-linecap="round" stroke-linejoin="round" stroke-opacity=".3" stroke-width="__RESOLUTION__" d="M20.8 12q1.9 4.9 4.7 7.2.9.7.8 1.3l-.5 1.1-1 2.8 3.9 2.9q1.7 1.9 1.2 5.4m-6.1.6-1.3 1.4L8.3 33Q1.8 19.2.2 17l-.2-.2.3-.5q1.4-2.8 5.8-4.7 1.5-2.3 6-2.1 4.7.1 8.7 2.5" vector-effect="non-scaling-stroke"/><path fill="#fff" d="m22 24.3.7-3.6q.9.1 2 1.7.4.6.2 2z"/><path fill="none" stroke="#785e32" stroke-linecap="round" stroke-linejoin="round" stroke-width="__RESOLUTION__" d="M25 24.5q.1-1.5-.4-2.2-1-1.5-2-1.6l-.6 3.6" vector-effect="non-scaling-stroke"/><path fill="#826445" d="M3.2 12.3Q1.3 6.9 5 0q3 5.1 4 10.6-2 1.6-4.2 1.8z"/><path fill="none" stroke="#3e2b0b" stroke-linecap="round" stroke-linejoin="round" stroke-width="__RESOLUTION__" d="M3.2 12.3Q1.3 6.9 5 0q3 5.1 4 10.6" vector-effect="non-scaling-stroke"/></g><g id="y" transform="translate(1.95 .5)"><use xlink:href="#i" width="5.2" height="7.6" transform="translate(-1.95 -.1)"/><use xlink:href="#j" width="5.2" height="7.6" transform="translate(-1.95 -.1)"/><use xlink:href="#k" width="3.3" height="1.4" transform="translate(-1.65 -.5)"/><use xlink:href="#l" width=".8" height=".7" transform="translate(-.1 .1)"/></g><g id="r"><path fill="#5e4235" d="m0 0 3.7.8q.5 1.8-.3 4.8L0 3.4z"/><path fill="none" stroke="#715133" stroke-linecap="round" stroke-linejoin="round" stroke-width="__RESOLUTION__" d="m0 0 3.7.8q.5 1.8-.3 4.8L0 3.4" vector-effect="non-scaling-stroke"/></g><g id="aA" transform="translate(13.3 7.95)"><use xlink:href="#m" width="15.4" height="14.3" transform="translate(-8.2 -7.95)"/><use xlink:href="#n" width="5.7" height="9.3" transform="matrix(-2.37 -.0316 -.5857 1.65 5.65 -2.8)"/><use xlink:href="#o" width="17.1" height="5.5" transform="translate(-9 -5.25)"/></g><g id="az" transform="translate(19.55 15.85)"><use xlink:href="#p" width="25.3" height="31.7" transform="translate(-14.4 -13.55)"/><use xlink:href="#q" width="18.2" height="20.6" transform="matrix(-1.51 .0983 -.1133 1.47 10.3 -15.85)"/></g><g id="aj" transform="translate(1.65 23.5)"><use xlink:href="#r" width="3.9" height="5.6" transform="translate(24.25 3.1)"/><use xlink:href="#y" width="5.2" height="8" transform="matrix(-1.55 0 0 1.55 27.15 15)"/><use xlink:href="#z" width="30.1" height="39" transform="translate(-1.65 -22.05)"/><use xlink:href="#A" width="6" height="8.4" transform="translate(3.35 -23.5)scale(1.55)"/><use xlink:href="#B" width="6" height="11.4" transform="translate(9.65 -19.3)"/></g><use xlink:href="#C" id="a" width="5.7" height="9.3"/><use xlink:href="#D" id="c" width="18.2" height="20.6"/><use xlink:href="#E" id="g" width="4.5" height="2"/><use xlink:href="#F" id="e" width="6" height="7.6"/><use xlink:href="#E" id="k" width="4.5" height="2" transform="scale(.7143 .7)"/><use xlink:href="#G" id="i" width="5.2" height="7.6"/><use xlink:href="#H" id="ag" width="27.7" height="8"/><use xlink:href="#I" id="bo" width="14.7" height="17.6"/><use xlink:href="#J" id="bn" width="9.8" height="12.9"/><use xlink:href="#K" id="bk" width="14.7" height="17.6"/><use xlink:href="#L" id="bj" width="9.8" height="12.9"/><use xlink:href="#M" id="bi" width="14.7" height="17.6"/><use xlink:href="#N" id="bh" width="9.8" height="12.9"/><use xlink:href="#O" id="bf" width="14.7" height="17.6"/><use xlink:href="#P" id="ba" width="14.7" height="17.6"/><use xlink:href="#Q" id="aZ" width="11.7" height="16.7"/><use xlink:href="#R" id="aX" width="14.7" height="17.6"/><use xlink:href="#S" id="aW" width="9.8" height="12.9"/><use xlink:href="#T" id="aV" width="11.7" height="16.7"/><use xlink:href="#U" id="aU" width="9.8" height="12.9"/><use xlink:href="#V" id="aG" width="14.5" height="18.9"/><use xlink:href="#W" id="aF" width="15.1" height="22.1"/><use xlink:href="#X" id="aE" width="12.7" height="13.6"/><use xlink:href="#Y" id="aD" width="14.7" height="17.6"/><use xlink:href="#Z" id="aC" width="9.8" height="12.9"/><use xlink:href="#aa" id="aB" width="33" height="20.6"/><use xlink:href="#ab" id="ay" width="14.5" height="18.9"/><use xlink:href="#ac" id="ax" width="12.7" height="13.6"/><use xlink:href="#ad" id="aw" width="13.8" height="21.9"/><use xlink:href="#ae" id="av" width="11.7" height="16.7"/><use xlink:href="#af" id="ak" width="9.8" height="12.9"/><use xlink:href="#ag" id="ai" width="27.7" height="8" transform="matrix(.3796 -.0043 -.3052 .5189 2.45 .1)"/><clipPath id="ah"><path d="M1 1h82v99H1z"/></clipPath><clipPath id="aH"><path d="M84 1h82v99H84z"/></clipPath><clipPath id="aI"><path d="M167 1h82v99h-82z"/></clipPath><clipPath id="aJ"><path d="M250 1h82v99h-82z"/></clipPath><clipPath id="aK"><path d="M333 1h82v99h-82z"/></clipPath><clipPath id="aL"><path d="M416 1h82v99h-82z"/></clipPath><clipPath id="aM"><path d="M499 1h82v99h-82z"/></clipPath><clipPath id="aN"><path d="M582 1h82v99h-82z"/></clipPath><clipPath id="aO"><path d="M665 1h82v99h-82z"/></clipPath><clipPath id="aP"><path d="M748 1h82v99h-82z"/></clipPath><clipPath id="aQ"><path d="M831 1h82v99h-82z"/></clipPath><clipPath id="aR"><path d="M914 1h82v99h-82z"/></clipPath><clipPath id="aS"><path d="M997 1h82v99h-82z"/></clipPath><clipPath id="aT"><path d="M1080 1h82v99h-82z"/></clipPath><clipPath id="aY"><path d="M1163 1h82v99h-82z"/></clipPath><clipPath id="bb"><path d="M1246 1h82v99h-82z"/></clipPath><clipPath id="bc"><path d="M1329 1h82v99h-82z"/></clipPath><clipPath id="bd"><path d="M1412 1h82v99h-82z"/></clipPath><clipPath id="be"><path d="M1495 1h82v99h-82z"/></clipPath><clipPath id="bg"><path d="M1578 1h82v99h-82z"/></clipPath><clipPath id="bl"><path d="M1661 1h82v99h-82z"/></clipPath><clipPath id="bm"><path d="M1744 1h82v99h-82z"/></clipPath><clipPath id="bp"><path d="M1827 1h82v99h-82z"/></clipPath><clipPath id="bq"><path d="M1910 1h82v99h-82z"/></clipPath><clipPath id="br"><path d="M1993 1h82v99h-82z"/></clipPath><clipPath id="bs"><path d="M2076 1h82v99h-82z"/></clipPath><clipPath id="bt"><path d="M2159 1h82v99h-82z"/></clipPath><clipPath id="bu"><path d="M2242 1h82v99h-82z"/></clipPath><path id="C" fill="#f8e9cb" d="m-2.6-.2-.5-2.5q-.4-.8.6-.4l1-.2h.3Q2-3.8 2.4-4.6q.3 1.8-.6 5.7-.1-.1-.7 1l-1 1.4-.5.6-.6.5q-.2.2-.3-.6-.4-1-.8-1.5z" transform="translate(3.2 4.6)"/><path id="D" fill="#88b526" d="m0-10 .5.2 1.2.3L3-8.2l.8 1H4l1.4.8.8 1q0 .4-.4.5l1.5 1.4q.5.8.3 1.2-.1.4-.9.2l-.5-.1q1 2.8 1.1 5 .2 3.9-3.6 5L3 9q-1.1 1-3.5 1.3l-.9-.2q-1-.5-2.2-2.5-1.7-2.9-3-6.3-5.2-6-3.4-7.3t4.2-3.5q2.7-1.2 5.9-.5" transform="translate(10.5 10.3)"/><path id="E" fill="#ff910b" d="M1.4 1.9q-1-.2-1.3-.6-.2-.2 0-.6V.5q.3-.5 2 .4 0-.5 2.2-.9.5.2.2 1Q4 2 3 1.9q-.4.3-1.6 0"/><path id="F" fill="#88b526" d="m.9 3.2-.7.3-.8-.1-.3.4Q-2.4 3.7-3 .3l1 .8.3.1-.1-1.1-.1-2.8-.3-1.1L.6-1.1q.7.8.9 1.8l.2-.3L3-.5q.2 3.4-2 3.9z" transform="translate(3 3.8)"/><path id="G" fill="#88b526" d="m.3-3.3.1-.3q1.9.1 2.2 3.5L1.4-1h-.1Q1.2-.2.5.8l-1 1.5-.9 1.5q.2-1.4-.2-3.8l-.1-1.1-.2.2-.7.9q-.2-3.4 1.3-3.8l.2.4.2-.1z" transform="translate(2.55 3.8)"/><path id="H" fill="#000" fill-opacity=".4" d="M13.9-.8q0 1.6-4 3T.3 3.9l-9.9-.5q-4.1-1-4.2-2.6 0-1.6 4-3t9.7-1.6l9.8.5q4.1.9 4.2 2.5" transform="translate(13.85 3.95)"/><path id="b" fill="none" stroke="#1f1f1f" stroke-linecap="round" stroke-linejoin="round" stroke-opacity=".5" stroke-width="__RESOLUTION__" d="M-.5 7.3q.5.5.7 1.5.1.7.3.6l.6-.5.1-.1.6-.5.9-1.4q.6-1.1.7-1 .9-4 .6-5.7" transform="translate(.55 -.15)" vector-effect="non-scaling-stroke"/><path id="h" fill="none" stroke="#1f1f1f" stroke-linecap="round" stroke-linejoin="round" stroke-opacity=".3" stroke-width="__RESOLUTION__" d="M2.3-1.2q.5.2.2 1Q2 .8 1 .7.5 1-.6.7q-1-.2-1.3-.6-.2-.2 0-.6M1 .7Q.5.6.2-.3" transform="translate(2 1.2)" vector-effect="non-scaling-stroke"/><path id="l" fill="none" stroke="#1f1f1f" stroke-linecap="round" stroke-linejoin="round" stroke-opacity=".3" stroke-width="__RESOLUTION__" d="m-.1.1.8.7" transform="translate(.1 -.1)" vector-effect="non-scaling-stroke"/></defs><g clip-path="url(#ah)"><g transform="translate(25.35 89.8)"><use xlink:href="#ai" width="12.9" height="4.3" transform="matrix(1 .1209 0 1 -16.15 -1.35)"/><use xlink:href="#ai" width="12.9" height="4.3" transform="matrix(1 .1209 0 1 20.7 -3.7)"/><use xlink:href="#aj" width="30.1" height="51" transform="matrix(.9742 -.0797 .0529 .9951 20.3 -72.9)"/><use xlink:href="#ak" width="9.8" height="12.9" transform="matrix(1.0533 .2793 -.5277 .955 -4.2 -27.45)"/><use xlink:href="#av" width="11.7" height="16.7" transform="matrix(-.2575 .9572 -.8945 -.5443 -2.55 -19.5)"/><use xlink:href="#aw" width="13.8" height="21.9" transform="matrix(1.0043 .0547 -.1258 .986 6.65 -48.45)"/><use xlink:href="#ax" width="12.7" height="13.6" transform="matrix(.8383 -.6148 .453 .7268 15.8 -31.65)"/><use xlink:href="#ay" width="14.5" height="18.9" transform="rotate(42.147 76.338 2.997)scale(-.9943 .9943)"/><use xlink:href="#az" width="30.4" height="34" transform="matrix(.7283 .3306 -.5592 .8474 13.55 -63)"/><use xlink:href="#aA" width="21.4" height="20.4" transform="matrix(.933 .1562 -.2732 1.023 -2.7 -34.2)"/><use xlink:href="#aB" width="33" height="20.6" transform="matrix(.6642 -.4403 -.4254 -1.0238 -14.75 -8.8)"/><use xlink:href="#aC" width="9.8" height="12.9" transform="matrix(1.0993 -.6108 .9114 .9171 7.35 -21.95)"/><use xlink:href="#aD" width="14.7" height="17.6" transform="matrix(.6057 -.6631 .6642 .7405 17.45 -12.9)"/><use xlink:href="#aE" width="12.7" height="13.6" transform="matrix(.8948 .3653 -.1847 .8846 5.7 -34.5)"/><use xlink:href="#aF" width="15.1" height="22.1" transform="matrix(.6802 .6782 -.6869 .6153 17.9 -50.8)"/><use xlink:href="#aG" width="14.5" height="18.9" transform="matrix(.3604 -1.0179 -.9568 -.2392 31.85 -36.65)"/></g></g><g clip-path="url(#aH)"><g transform="translate(108.35 89.8)"><use xlink:href="#ai" width="12.9" height="4.3" transform="matrix(.9998 .119 0 1 -14.5 -1.95)"/><use xlink:href="#ai" width="12.9" height="4.3" transform="matrix(.9998 .119 0 1 16.6 -2.6)"/><use xlink:href="#aj" width="30.1" height="51" transform="matrix(.974 -.0773 .0522 .9949 21.05 -69.8)"/><use xlink:href="#ak" width="9.8" height="12.9" transform="matrix(1.0874 -.0524 -.2129 1.0686 -4.6 -25.55)"/><use xlink:href="#av" width="11.7" height="16.7" transform="matrix(-.0857 .9738 -.9665 -.2967 .45 -18.65)"/><use xlink:href="#aw" width="13.8" height="21.9" transform="matrix(1.0027 .0748 -.1435 .983 5.9 -47.1)"/><use xlink:href="#ax" width="12.7" height="13.6" transform="matrix(.8494 -.5965 .4354 .736 12.95 -29.5)"/><use xlink:href="#ay" width="14.5" height="18.9" transform="rotate(46.376 66.854 2.238)scale(-.9924 .9924)"/><use xlink:href="#az" width="30.4" height="34" transform="matrix(.7202 .3446 -.5755 .8348 14.25 -61)"/><use xlink:href="#aA" width="21.4" height="20.4" transform="matrix(.9298 .1687 -.2877 1.0185 -2.65 -32.6)"/><use xlink:href="#aB" width="33" height="20.6" transform="matrix(.6685 -.427 -.4242 -1.0225 -14.85 -7.6)"/><use xlink:href="#aC" width="9.8" height="12.9" transform="matrix(1.174 -.4456 .7947 1.0707 6 -22.05)"/><use xlink:href="#aD" width="14.7" height="17.6" transform="matrix(.7678 -.4624 .4024 .8509 14.55 -12.9)"/><use xlink:href="#aE" width="12.7" height="13.6" transform="matrix(.9095 .323 -.1421 .8917 6.7 -31.4)"/><use xlink:href="#aF" width="15.1" height="22.1" transform="matrix(.7084 .6459 -.6577 .6439 18.2 -48.15)"/><use xlink:href="#aG" width="14.5" height="18.9" transform="matrix(.3299 -1.0268 -.9627 -.2101 32.7 -34.45)"/></g></g><g clip-path="url(#aI)"><g transform="translate(191.35 89.8)"><use xlink:href="#ai" width="12.9" height="4.3" transform="matrix(.9998 .119 0 1 -12.9 -2.6)"/><use xlink:href="#ai" width="12.9" height="4.3" transform="matrix(.9998 .119 0 1 12.55 -1.55)"/><use xlink:href="#aj" width="30.1" height="51" transform="matrix(.9739 -.0772 .0489 .9949 21.85 -66.8)"/><use xlink:href="#ak" width="9.8" height="12.9" transform="matrix(1.0193 -.3773 .119 1.0827 -4.2 -22.8)"/><use xlink:href="#av" width="11.7" height="16.7" transform="matrix(.0803 .9608 -.9752 -.0514 3.55 -17.55)"/><use xlink:href="#aw" width="13.8" height="21.9" transform="matrix(1.0007 .0964 -.1647 .9796 5.2 -45.85)"/><use xlink:href="#ax" width="12.7" height="13.6" transform="matrix(.8621 -.5779 .4218 .7438 9.95 -27.3)"/><use xlink:href="#ay" width="14.5" height="18.9" transform="rotate(50.628 58.941 1.68)scale(-.9922 .9922)"/><use xlink:href="#az" width="30.4" height="34" transform="matrix(.7121 .36 -.5907 .8243 14.85 -59.25)"/><use xlink:href="#aA" width="21.4" height="20.4" transform="matrix(.9269 .1812 -.3015 1.0148 -2.65 -31)"/><use xlink:href="#aB" width="33" height="20.6" transform="matrix(.6738 -.4141 -.4205 -1.0236 -15.05 -6.25)"/><use xlink:href="#aC" width="9.8" height="12.9" transform="matrix(1.2258 -.2721 .6524 1.2116 5.05 -22.2)"/><use xlink:href="#aD" width="14.7" height="17.6" transform="matrix(.8686 -.2217 .1356 .8794 12.25 -12.35)"/><use xlink:href="#aE" width="12.7" height="13.6" transform="matrix(.9228 .2826 -.1027 .8969 7.8 -28.3)"/><use xlink:href="#aF" width="15.1" height="22.1" transform="matrix(.7381 .6114 -.6263 .6741 18.5 -45.6)"/><use xlink:href="#aG" width="14.5" height="18.9" transform="matrix(.3025 -1.035 -.9677 -.1844 33.5 -32.2)"/></g></g><g clip-path="url(#aJ)"><g transform="translate(274.35 89.8)"><use xlink:href="#ai" width="12.9" height="4.3" transform="matrix(1 .1209 0 1 -11.25 -3.3)"/><use xlink:href="#ai" width="12.9" height="4.3" transform="matrix(1 .1209 0 1 8.45 -.55)"/><use xlink:href="#aj" width="30.1" height="51" transform="matrix(.9739 -.0783 .0515 .9948 22.3 -63.6)"/><use xlink:href="#ak" width="9.8" height="12.9" transform="matrix(.8565 -.6699 .4422 .995 -3.05 -19.45)"/><use xlink:href="#av" width="11.7" height="16.7" transform="matrix(.2429 .9195 -.9241 .1806 6.3 -16.3)"/><use xlink:href="#aw" width="13.8" height="21.9" transform="matrix(.9987 .1173 -.1871 .976 4.4 -44.5)"/><use xlink:href="#ax" width="12.7" height="13.6" transform="matrix(.8749 -.5611 .4066 .7535 7.1 -25)"/><use xlink:href="#ay" width="14.5" height="18.9" transform="rotate(54.768 52.532 1.559)scale(-.9936 .9936)"/><use xlink:href="#az" width="30.4" height="34" transform="matrix(.7045 .376 -.6099 .8124 15.65 -57.45)"/><use xlink:href="#aA" width="21.4" height="20.4" transform="matrix(.9236 .1978 -.3183 1.0112 -2.55 -29.4)"/><use xlink:href="#aB" width="33" height="20.6" transform="matrix(.6794 -.4022 -.4226 -1.0237 -15.05 -5.1)"/><use xlink:href="#aC" width="9.8" height="12.9" transform="matrix(1.2525 -.0933 .4863 1.3347 4.5 -22.2)"/><use xlink:href="#aD" width="14.7" height="17.6" transform="matrix(.8961 .0322 -.1131 .8303 10.25 -11.25)"/><use xlink:href="#aE" width="12.7" height="13.6" transform="matrix(.9351 .2411 -.0636 .9006 8.9 -25.2)"/><use xlink:href="#aF" width="15.1" height="22.1" transform="matrix(.7648 .5797 -.5971 .7017 18.7 -43.05)"/><use xlink:href="#aG" width="14.5" height="18.9" transform="matrix(.2751 -1.0434 -.9725 -.1595 34.3 -30)"/></g></g><g clip-path="url(#aK)"><g transform="translate(357.35 89.8)"><use xlink:href="#ai" width="12.9" height="4.3" transform="matrix(.9998 .119 0 1 -7.1 -3.55)"/><use xlink:href="#ai" width="12.9" height="4.3" transform="matrix(.9998 .119 0 1 5.05 0)"/><use xlink:href="#aj" width="30.1" height="51" transform="matrix(.9731 -.0903 .0655 .996 21.5 -65.1)"/><use xlink:href="#ak" width="9.8" height="12.9" transform="matrix(.7613 -.7776 .5655 .9287 -1.55 -19.05)"/><use xlink:href="#av" width="11.7" height="16.7" transform="matrix(.3566 .881 -.8945 .2961 8.15 -17.35)"/><use xlink:href="#aw" width="13.8" height="21.9" transform="matrix(.9826 .2142 -.279 .9539 3.75 -46.4)"/><use xlink:href="#ax" width="12.7" height="13.6" transform="matrix(.9241 -.4719 .3293 .7915 4.4 -26.95)"/><use xlink:href="#ay" width="14.5" height="18.9" transform="matrix(-.546 -.8309 -.829 .5454 23.05 -43.4)"/><use xlink:href="#az" width="30.4" height="34" transform="matrix(.7091 .366 -.5983 .8214 15.15 -58.4)"/><use xlink:href="#aA" width="21.4" height="20.4" transform="matrix(.9259 .1851 -.3064 1.0164 -2.6 -30.15)"/><use xlink:href="#aB" width="33" height="20.6" transform="matrix(.6175 -.4933 -.5589 -.9542 -12.7 -3.75)"/><use xlink:href="#aC" width="9.8" height="12.9" transform="matrix(1.2499 .1381 .2298 1.4024 4.5 -24.1)"/><use xlink:href="#aD" width="14.7" height="17.6" transform="matrix(.896 .0316 -.1476 .8349 7.9 -10.9)"/><use xlink:href="#aE" width="12.7" height="13.6" transform="matrix(.9629 .0801 .0836 .8992 11.5 -25.4)"/><use xlink:href="#aF" width="15.1" height="22.1" transform="matrix(.8511 .4403 -.4724 .7918 18.25 -43.4)"/><use xlink:href="#aG" width="14.5" height="18.9" transform="matrix(.1465 -1.0707 -.9852 -.0389 35.55 -32.25)"/></g></g><g clip-path="url(#aL)"><g transform="translate(440.35 89.8)"><use xlink:href="#ai" width="12.9" height="4.3" transform="matrix(.9998 .119 0 1 -2.95 -3.85)"/><use xlink:href="#ai" width="12.9" height="4.3" transform="matrix(.9998 .119 0 1 1.7 .55)"/><use xlink:href="#aj" width="30.1" height="51" transform="matrix(.9718 -.1068 .079 .9972 20.7 -66.7)"/><use xlink:href="#ak" width="9.8" height="12.9" transform="matrix(.6546 -.8728 .6819 .8469 .1 -18.45)"/><use xlink:href="#av" width="11.7" height="16.7" transform="matrix(.4653 .829 -.8493 .4107 10 -18.3)"/><use xlink:href="#aw" width="13.8" height="21.9" transform="matrix(.9567 .3117 -.3698 .9234 3.15 -48.1)"/><use xlink:href="#ax" width="12.7" height="13.6" transform="matrix(.9665 -.3771 .252 .8218 1.8 -28.85)"/><use xlink:href="#ay" width="14.5" height="18.9" transform="matrix(-.5178 -.8513 -.8459 .5195 22.5 -44.55)"/><use xlink:href="#az" width="30.4" height="34" transform="matrix(.7156 .3544 -.5853 .833 14.5 -59.5)"/><use xlink:href="#aA" width="21.4" height="20.4" transform="matrix(.928 .1764 -.2939 1.0226 -2.75 -31)"/><use xlink:href="#aB" width="33" height="20.6" transform="matrix(.5418 -.5782 -.6895 -.8642 -10.15 -2.75)"/><use xlink:href="#aC" width="9.8" height="12.9" transform="matrix(1.2034 .3694 -.0256 1.4229 4.85 -25.6)"/><use xlink:href="#aD" width="14.7" height="17.6" transform="matrix(.896 .0316 -.1828 .8384 5.45 -10.6)"/><use xlink:href="#aE" width="12.7" height="13.6" transform="matrix(.9637 -.0809 .2341 .8722 14.25 -25.4)"/><use xlink:href="#aF" width="15.1" height="22.1" transform="matrix(.9127 .2928 -.3354 .8612 17.95 -43.55)"/><use xlink:href="#aG" width="14.5" height="18.9" transform="matrix(.019 -1.083 -.9832 .0783 36.65 -34.6)"/></g></g><g clip-path="url(#aM)"><g transform="translate(523.35 89.8)"><use xlink:href="#ai" width="12.9" height="4.3" transform="matrix(.9998 .119 0 1 1.2 -4.1)"/><use xlink:href="#ai" width="12.9" height="4.3" transform="matrix(.9998 .119 0 1 -1.7 1.1)"/><use xlink:href="#aj" width="30.1" height="51" transform="matrix(.9707 -.12 .0926 .9982 19.85 -68.2)"/><use xlink:href="#ak" width="9.8" height="12.9" transform="matrix(.5361 -.9535 .7843 .7532 2 -18.05)"/><use xlink:href="#av" width="11.7" height="16.7" transform="matrix(.5666 .7637 -.7913 .5161 11.85 -19.15)"/><use xlink:href="#aw" width="13.8" height="21.9" transform="matrix(.9212 .4063 -.4603 .8827 2.6 -49.75)"/><use xlink:href="#ax" width="12.7" height="13.6" transform="matrix(.9983 -.282 .172 .8445 -.75 -30.65)"/><use xlink:href="#ay" width="14.5" height="18.9" transform="matrix(-.4889 -.8708 -.8635 .4903 22 -45.75)"/><use xlink:href="#az" width="30.4" height="34" transform="matrix(.7208 .345 -.5721 .8444 13.95 -60.55)"/><use xlink:href="#aA" width="21.4" height="20.4" transform="matrix(.9305 .1647 -.2814 1.0286 -2.9 -31.75)"/><use xlink:href="#aB" width="33" height="20.6" transform="matrix(.4568 -.65 -.8034 -.7592 -7.4 -2.05)"/><use xlink:href="#aC" width="9.8" height="12.9" transform="matrix(1.1145 .5884 -.2853 1.3948 5.55 -26.55)"/><use xlink:href="#aD" width="14.7" height="17.6" transform="matrix(.896 .0316 -.2185 .8404 3.1 -10.2)"/><use xlink:href="#aE" width="12.7" height="13.6" transform="matrix(.9364 -.2429 .3753 .8216 17.3 -25.3)"/><use xlink:href="#aF" width="15.1" height="22.1" transform="matrix(.9495 .1342 -.1856 .9078 17.6 -43.4)"/><use xlink:href="#aG" width="14.5" height="18.9" transform="matrix(-.1093 -1.0794 -.9664 .1978 37.6 -37.2)"/></g></g><g clip-path="url(#aN)"><g transform="translate(606.35 89.8)"><use xlink:href="#ai" width="12.9" height="4.3" transform="matrix(.9998 .119 0 1 5.3 -4.4)"/><use xlink:href="#ai" width="12.9" height="4.3" transform="matrix(.9998 .119 0 1 -5.1 1.65)"/><use xlink:href="#aj" width="30.1" height="51" transform="matrix(.969 -.1364 .1095 .9987 18.95 -69.75)"/><use xlink:href="#ak" width="9.8" height="12.9" transform="matrix(.4078 -1.0182 .8761 .6444 4 -17.55)"/><use xlink:href="#av" width="11.7" height="16.7" transform="matrix(.659 .6861 -.7183 .6158 13.75 -19.9)"/><use xlink:href="#aw" width="13.8" height="21.9" transform="matrix(.8763 .4968 -.5437 .835 2 -51.3)"/><use xlink:href="#ax" width="12.7" height="13.6" transform="matrix(1.0214 -.1809 .0872 .8597 -3.15 -32.55)"/><use xlink:href="#ay" width="14.5" height="18.9" transform="matrix(-.4592 -.8892 -.8786 .4633 21.45 -46.9)"/><use xlink:href="#az" width="30.4" height="34" transform="matrix(.7258 .3355 -.5616 .8538 13.5 -61.65)"/><use xlink:href="#aA" width="21.4" height="20.4" transform="matrix(.9329 .1529 -.2688 1.0345 -2.95 -32.55)"/><use xlink:href="#aB" width="33" height="20.6" transform="matrix(.3624 -.7095 -.9017 -.6394 -4.45 -1.8)"/><use xlink:href="#aC" width="9.8" height="12.9" transform="matrix(.9862 .7874 -.5401 1.3179 6.5 -26.8)"/><use xlink:href="#aD" width="14.7" height="17.6" transform="matrix(.896 .0316 -.2574 .84 .75 -9.9)"/><use xlink:href="#aE" width="12.7" height="13.6" transform="matrix(.8821 -.3983 .5063 .7482 20.4 -25)"/><use xlink:href="#aF" width="15.1" height="22.1" transform="matrix(.959 -.022 -.0329 .9284 17.5 -43.35)"/><use xlink:href="#aG" width="14.5" height="18.9" transform="matrix(-.2365 -1.0606 -.9352 .3144 38.45 -39.8)"/></g></g><g clip-path="url(#aO)"><g transform="translate(689.35 89.8)"><use xlink:href="#ai" width="12.9" height="4.3" transform="matrix(.9998 .119 0 1 9.45 -4.7)"/><use xlink:href="#ai" width="12.9" height="4.3" transform="matrix(.9998 .119 0 1 -8.45 2.2)"/><use xlink:href="#aj" width="30.1" height="51" transform="matrix(.9675 -.1496 .1232 .9993 18.2 -71.2)"/><use xlink:href="#ak" width="9.8" height="12.9" transform="matrix(.2719 -1.0658 .953 .5246 6.25 -17.05)"/><use xlink:href="#av" width="11.7" height="16.7" transform="matrix(.7409 .5975 -.6351 .7032 15.55 -20.65)"/><use xlink:href="#aw" width="13.8" height="21.9" transform="matrix(.8245 .5799 -.6222 .7795 1.35 -52.65)"/><use xlink:href="#ax" width="12.7" height="13.6" transform="matrix(1.034 -.0815 .0039 .8665 -5.6 -34.35)"/><use xlink:href="#ay" width="14.5" height="18.9" transform="matrix(-.4288 -.9067 -.8943 .433 20.85 -48)"/><use xlink:href="#az" width="30.4" height="34" transform="matrix(.7307 .326 -.548 .8648 12.85 -62.75)"/><use xlink:href="#aA" width="21.4" height="20.4" transform="matrix(.9347 .1441 -.2595 1.0394 -3.05 -33.35)"/><use xlink:href="#aB" width="33" height="20.6" transform="matrix(.2579 -.7563 -.9823 -.5071 -1.3 -2.05)"/><use xlink:href="#aC" width="9.8" height="12.9" transform="matrix(.8228 .9595 -.7727 1.1975 7.7 -26.5)"/><use xlink:href="#aD" width="14.7" height="17.6" transform="matrix(.896 .0316 -.2939 .8388 -1.55 -9.55)"/><use xlink:href="#aE" width="12.7" height="13.6" transform="matrix(.8022 -.5424 .6236 .6543 23.85 -24.85)"/><use xlink:href="#aF" width="15.1" height="22.1" transform="matrix(.9409 -.1837 .1183 .9231 17.6 -43.05)"/><use xlink:href="#aG" width="14.5" height="18.9" transform="matrix(-.3642 -1.0256 -.8885 .4293 39.15 -42.5)"/></g></g><g clip-path="url(#aP)"><g transform="translate(772.35 89.8)"><use xlink:href="#ai" width="12.9" height="4.3" transform="matrix(1 .1209 0 1 13.6 -5.05)"/><use xlink:href="#ai" width="12.9" height="4.3" transform="matrix(1 .1209 0 1 -11.85 2.75)"/><use xlink:href="#aj" width="30.1" height="51" transform="matrix(.9659 -.1658 .1392 .9998 17.4 -72.75)"/><use xlink:href="#ak" width="9.8" height="12.9" transform="matrix(.1336 -1.0954 1.014 .3986 8.75 -16.75)"/><use xlink:href="#av" width="11.7" height="16.7" transform="matrix(.8111 .5019 -.5401 .7823 17.5 -21.3)"/><use xlink:href="#aw" width="13.8" height="21.9" transform="matrix(.7633 .6621 -.6965 .7175 .7 -54.05)"/><use xlink:href="#ax" width="12.7" height="13.6" transform="matrix(1.0369 .0201 -.0807 .8648 -7.9 -36.1)"/><use xlink:href="#ay" width="14.5" height="18.9" transform="matrix(-.3996 -.9237 -.9085 .4063 20.25 -49.05)"/><use xlink:href="#az" width="30.4" height="34" transform="matrix(.7367 .3163 -.5382 .8749 12.3 -63.7)"/><use xlink:href="#aA" width="21.4" height="20.4" transform="matrix(.9371 .1339 -.2478 1.0456 -3.15 -34.15)"/><use xlink:href="#aB" width="33" height="20.6" transform="matrix(.1517 -.7874 -1.0449 -.3653 1.7 -2.6)"/><use xlink:href="#aC" width="9.8" height="12.9" transform="matrix(.6324 1.099 -.9822 1.0374 8.75 -25.65)"/><use xlink:href="#aD" width="14.7" height="17.6" transform="matrix(.8961 .0328 -.3332 .8361 -3.95 -9.2)"/><use xlink:href="#aE" width="12.7" height="13.6" transform="matrix(.7018 -.6707 .7252 .5428 27.55 -24.55)"/><use xlink:href="#aF" width="15.1" height="22.1" transform="matrix(.8964 -.3411 .2731 .8921 17.65 -42.65)"/><use xlink:href="#aG" width="14.5" height="18.9" transform="matrix(-.4872 -.9768 -.8312 .5352 39.55 -45.2)"/></g></g><g clip-path="url(#aQ)"><g transform="translate(855.35 89.8)"><use xlink:href="#ai" width="12.9" height="4.3" transform="matrix(.9998 .119 0 1 9.6 -3.6)"/><use xlink:href="#ai" width="12.9" height="4.3" transform="matrix(.9998 .119 0 1 -7.6 1.45)"/><use xlink:href="#aj" width="30.1" height="51" transform="matrix(.9658 -.1626 .1363 .9943 17.4 -76.5)"/><use xlink:href="#ak" width="9.8" height="12.9" transform="matrix(-.0631 -1.095 1.0683 .2038 10.4 -20)"/><use xlink:href="#av" width="11.7" height="16.7" transform="matrix(.9217 .2345 -.2816 .9028 16.45 -25.15)"/><use xlink:href="#aw" width="13.8" height="21.9" transform="matrix(.8407 .5528 -.5968 .7965 -1.3 -57.8)"/><use xlink:href="#ax" width="12.7" height="13.6" transform="matrix(1.0369 .0186 -.0795 .8598 -7.9 -39.3)"/><use xlink:href="#ay" width="14.5" height="18.9" transform="matrix(-.277 -.9614 -.9518 .2832 18.95 -51.7)"/><use xlink:href="#az" width="30.4" height="34" transform="matrix(.7362 .3134 -.5354 .8699 12.35 -66.75)"/><use xlink:href="#aA" width="21.4" height="20.4" transform="matrix(.9368 .1321 -.2456 1.0395 -2.95 -37.4)"/><use xlink:href="#aB" width="33" height="20.6" transform="matrix(.1493 -.7828 -1.0447 -.3613 1.75 -6.1)"/><use xlink:href="#aC" width="9.8" height="12.9" transform="matrix(.6316 1.0913 -.981 1.0297 7.05 -29.45)"/><use xlink:href="#aD" width="14.7" height="17.6" transform="matrix(.8085 .3829 -.6335 .6301 -3.15 -15.5)"/><use xlink:href="#aE" width="12.7" height="13.6" transform="matrix(.5863 -.7679 .7999 .4177 30.05 -27.95)"/><use xlink:href="#aF" width="15.1" height="22.1" transform="matrix(.8301 -.4754 .4073 .8324 17.9 -43.95)"/><use xlink:href="#aG" width="14.5" height="18.9" transform="matrix(-.576 -.9193 -.7754 .6077 39.45 -49)"/></g></g><g clip-path="url(#aR)"><g transform="translate(938.35 89.8)"><use xlink:href="#ai" width="12.9" height="4.3" transform="matrix(.9998 .119 0 1 5.6 -2.2)"/><use xlink:href="#ai" width="12.9" height="4.3" transform="matrix(.9998 .119 0 1 -3.35 .1)"/><use xlink:href="#aj" width="30.1" height="51" transform="matrix(.9657 -.1624 .139 .9883 17.25 -80.15)"/><use xlink:href="#ak" width="9.8" height="12.9" transform="matrix(-.2596 -1.0583 1.0869 .0053 12.4 -23.55)"/><use xlink:href="#av" width="11.7" height="16.7" transform="matrix(.9484 -.0503 -.0044 .9426 15.75 -28.75)"/><use xlink:href="#aw" width="13.8" height="21.9" transform="matrix(.9051 .4336 -.4896 .863 -3.25 -61.4)"/><use xlink:href="#ax" width="12.7" height="13.6" transform="matrix(1.0369 .0186 -.0791 .8552 -7.85 -42.6)"/><use xlink:href="#ay" width="14.5" height="18.9" transform="matrix(-.1563 -.9836 -.9792 .1599 17.5 -54.35)"/><use xlink:href="#az" width="30.4" height="34" transform="matrix(.7359 .3129 -.5365 .8643 12.6 -69.95)"/><use xlink:href="#aA" width="21.4" height="20.4" transform="matrix(.9368 .132 -.2446 1.0339 -2.75 -40.7)"/><use xlink:href="#aB" width="33" height="20.6" transform="matrix(.1485 -.7784 -1.0445 -.361 1.75 -9.5)"/><use xlink:href="#aC" width="9.8" height="12.9" transform="matrix(.6297 1.0865 -.9822 1.0229 5.25 -33.1)"/><use xlink:href="#aD" width="14.7" height="17.6" transform="matrix(.5874 .6731 -.8293 .3198 -2.4 -20.6)"/><use xlink:href="#aE" width="12.7" height="13.6" transform="matrix(.4604 -.8462 .8549 .283 32.8 -31.6)"/><use xlink:href="#aF" width="15.1" height="22.1" transform="matrix(.7464 -.5963 .5327 .7518 18.2 -45.3)"/><use xlink:href="#aG" width="14.5" height="18.9" transform="matrix(-.6587 -.8553 -.7148 .6751 39.25 -52.75)"/></g></g><g clip-path="url(#aS)"><g transform="translate(1021.35 89.8)"><use xlink:href="#ai" width="12.9" height="4.3" transform="matrix(.9998 .119 0 1 1.6 -.75)"/><use xlink:href="#ai" width="12.9" height="4.3" transform="matrix(.9998 .119 0 1 .9 -1.2)"/><use xlink:href="#aj" width="30.1" height="51" transform="matrix(.9659 -.1638 .139 .9833 17.2 -83.9)"/><use xlink:href="#ak" width="9.8" height="12.9" transform="matrix(-.4451 -.9885 1.0685 -.1917 14.65 -27.3)"/><use xlink:href="#av" width="11.7" height="16.7" transform="matrix(.8875 -.3331 .2717 .8984 15.7 -32.1)"/><use xlink:href="#aw" width="13.8" height="21.9" transform="matrix(.9524 .312 -.3757 .9164 -5.25 -64.8)"/><use xlink:href="#ax" width="12.7" height="13.6" transform="matrix(1.0369 .0198 -.0807 .8506 -7.9 -45.9)"/><use xlink:href="#ay" width="14.5" height="18.9" transform="matrix(-.0335 -.9908 -.9908 .0335 15.9 -57.2)"/><use xlink:href="#az" width="30.4" height="34" transform="matrix(.7369 .3113 -.5375 .8604 12.8 -73.05)"/><use xlink:href="#aA" width="21.4" height="20.4" transform="matrix(.9372 .132 -.2469 1.0284 -2.6 -44)"/><use xlink:href="#aB" width="33" height="20.6" transform="matrix(.1498 -.774 -1.0447 -.3627 1.75 -12.95)"/><use xlink:href="#aC" width="9.8" height="12.9" transform="matrix(.6324 1.0809 -.9822 1.0204 3.45 -36.85)"/><use xlink:href="#aD" width="14.7" height="17.6" transform="matrix(.2723 .8515 -.884 -.0349 -2.3 -24.4)"/><use xlink:href="#aE" width="12.7" height="13.6" transform="matrix(.3236 -.9056 .8875 .1445 35.7 -35.15)"/><use xlink:href="#aF" width="15.1" height="22.1" transform="matrix(.6441 -.7061 .642 .6557 18.8 -46.5)"/><use xlink:href="#aG" width="14.5" height="18.9" transform="matrix(-.7365 -.7848 -.6495 .7378 38.85 -56.6)"/></g></g><g clip-path="url(#aT)"><g transform="translate(1104.35 89.8)"><use xlink:href="#ai" width="12.9" height="4.3" transform="matrix(.9998 .119 0 1 -2.4 .65)"/><use xlink:href="#ai" width="12.9" height="4.3" transform="matrix(.9998 .119 0 1 5.15 -2.55)"/><use xlink:href="#aj" width="30.1" height="51" transform="matrix(.9651 -.1669 .1431 .9821 16.8 -79.7)"/><use xlink:href="#aU" width="9.8" height="12.9" transform="matrix(.0804 -1.1388 1.1422 .1658 9.05 -24.25)"/><use xlink:href="#aV" width="11.7" height="16.7" transform="matrix(.8089 -.4589 .4053 .866 16.4 -25.6)"/><use xlink:href="#aw" width="13.8" height="21.9" transform="matrix(.9912 .1488 -.2188 .9658 -6.15 -62.15)"/><use xlink:href="#ax" width="12.7" height="13.6" transform="matrix(1.0172 -.203 .1043 .8483 -6.9 -43.05)"/><use xlink:href="#ay" width="14.5" height="18.9" transform="rotate(95.769 31.213 -19.85)scale(-.991 .991)"/><use xlink:href="#az" width="30.4" height="34" transform="matrix(.7337 .3163 -.5423 .8559 13 -69.75)"/><use xlink:href="#aA" width="21.4" height="20.4" transform="matrix(.9354 .1399 -.2525 1.0266 -2.6 -40.7)"/><use xlink:href="#aB" width="33" height="20.6" transform="matrix(.3253 -.7201 -.9229 -.6077 -3.4 -9.95)"/><use xlink:href="#aW" width="9.8" height="12.9" transform="matrix(.851 .8406 -.8194 1.0168 1.85 -33.25)"/><use xlink:href="#aX" width="14.7" height="17.6" transform="matrix(.1091 .9196 -.9184 -.192 1.85 -21.4)"/><use xlink:href="#aE" width="12.7" height="13.6" transform="matrix(.2331 -.9327 .8977 .0556 38.35 -34.35)"/><use xlink:href="#aF" width="15.1" height="22.1" transform="matrix(.4387 -.8486 .7895 .4668 22.8 -40.7)"/><use xlink:href="#aG" width="14.5" height="18.9" transform="matrix(-.8958 -.5954 -.4628 .8667 39.4 -55.2)"/></g></g><g clip-path="url(#aY)"><g transform="translate(1187.35 89.8)"><use xlink:href="#ai" width="12.9" height="4.3" transform="matrix(.9998 .119 0 1 -6.4 2.05)"/><use xlink:href="#ai" width="12.9" height="4.3" transform="matrix(.9998 .119 0 1 9.4 -3.9)"/><use xlink:href="#aj" width="30.1" height="51" transform="matrix(.964 -.1747 .1511 .9808 16.35 -75.45)"/><use xlink:href="#aW" width="9.8" height="12.9" transform="matrix(.6448 -1.0096 1.0929 .5472 4.25 -23.55)"/><use xlink:href="#aZ" width="11.7" height="16.7" transform="matrix(.7138 -.5697 .5388 .812 17.15 -19.25)"/><use xlink:href="#aw" width="13.8" height="21.9" transform="matrix(1.0032 -.0137 -.0563 .9898 -7 -59.35)"/><use xlink:href="#ax" width="12.7" height="13.6" transform="matrix(.9493 -.4186 .2829 .8067 -5.75 -39.95)"/><use xlink:href="#ay" width="14.5" height="18.9" transform="matrix(.2316 -.9629 -.9629 -.2316 13.05 -48.65)"/><use xlink:href="#az" width="30.4" height="34" transform="matrix(.7308 .3226 -.5499 .8514 13.25 -66.3)"/><use xlink:href="#aA" width="21.4" height="20.4" transform="matrix(.934 .1481 -.2615 1.0247 -2.65 -37.35)"/><use xlink:href="#aB" width="33" height="20.6" transform="matrix(.486 -.6261 -.7418 -.82 -8.5 -8.1)"/><use xlink:href="#aU" width="9.8" height="12.9" transform="matrix(.9912 .5678 -.6672 .9947 1.2 -29.2)"/><use xlink:href="#ba" width="14.7" height="17.6" transform="matrix(-.0674 .9562 -.9225 -.3645 5.75 -17.95)"/><use xlink:href="#aE" width="12.7" height="13.6" transform="matrix(.1423 -.9516 .8995 -.0281 41.1 -33.75)"/><use xlink:href="#aF" width="15.1" height="22.1" transform="matrix(.2042 -.9348 .8848 .2465 27.25 -35.2)"/><use xlink:href="#aG" width="14.5" height="18.9" transform="matrix(-1.0085 -.378 -.2554 .9501 39.35 -53.65)"/></g></g><g clip-path="url(#bb)"><g transform="translate(1270.35 89.8)"><use xlink:href="#ai" width="12.9" height="4.3" transform="matrix(1 .1209 0 1 -10.4 3.4)"/><use xlink:href="#ai" width="12.9" height="4.3" transform="matrix(1 .1209 0 1 13.65 -5.3)"/><use xlink:href="#aj" width="30.1" height="51" transform="matrix(.9635 -.1817 .1573 .9802 16 -71.15)"/><use xlink:href="#aC" width="9.8" height="12.9" transform="matrix(1.0993 -.6108 .9114 .9171 1.55 -25.05)"/><use xlink:href="#aD" width="14.7" height="17.6" transform="matrix(.6057 -.6631 .6642 .7405 12.55 -17.25)"/><use xlink:href="#aw" width="13.8" height="21.9" transform="matrix(.9874 -.1813 .108 .9863 -7.9 -56.15)"/><use xlink:href="#ax" width="12.7" height="13.6" transform="matrix(.8383 -.6148 .453 .7268 -4.15 -36.85)"/><use xlink:href="#ay" width="14.5" height="18.9" transform="matrix(.3602 -.9233 -.9233 -.3602 11.5 -44.8)"/><use xlink:href="#az" width="30.4" height="34" transform="matrix(.7283 .3306 -.5592 .8474 13.55 -63)"/><use xlink:href="#aA" width="21.4" height="20.4" transform="matrix(.933 .1562 -.2732 1.023 -2.7 -34.2)"/><use xlink:href="#aB" width="33" height="20.6" transform="matrix(.6204 -.4997 -.5181 -.9798 -13.15 -7.4)"/><use xlink:href="#ak" width="9.8" height="12.9" transform="matrix(1.0533 .2793 -.5277 .955 1.3 -24.9)"/><use xlink:href="#av" width="11.7" height="16.7" transform="matrix(-.2575 .9572 -.8945 -.5443 2.95 -16.95)"/><use xlink:href="#aE" width="12.7" height="13.6" transform="matrix(.0493 -.9618 .8927 -.1172 44 -33)"/><use xlink:href="#aF" width="15.1" height="22.1" transform="matrix(-.0408 -.9575 .9201 .0127 32.05 -30.2)"/><use xlink:href="#aG" width="14.5" height="18.9" transform="matrix(-1.0699 -.1406 -.0348 .9849 38.8 -51.7)"/></g></g><g clip-path="url(#bc)"><g transform="translate(1353.35 89.8)"><use xlink:href="#ai" width="12.9" height="4.3" transform="matrix(.9998 .119 0 1 -6.2 3.1)"/><use xlink:href="#ai" width="12.9" height="4.3" transform="matrix(.9998 .119 0 1 9.8 -3.9)"/><use xlink:href="#aj" width="30.1" height="51" transform="matrix(.9675 -.15 .1261 .9853 17.75 -69.5)"/><use xlink:href="#aC" width="9.8" height="12.9" transform="matrix(1.174 -.4456 .7947 1.0707 .05 -24.5)"/><use xlink:href="#aD" width="14.7" height="17.6" transform="matrix(.7678 -.4624 .4024 .8509 9.2 -15.95)"/><use xlink:href="#aw" width="13.8" height="21.9" transform="matrix(1.0019 .062 -.1341 .9827 -4 -54.1)"/><use xlink:href="#ax" width="12.7" height="13.6" transform="matrix(.928 -.4645 .3246 .791 -3.4 -35.05)"/><use xlink:href="#ay" width="14.5" height="18.9" transform="matrix(.0352 -.9912 -.9912 -.0352 16.45 -43.35)"/><use xlink:href="#az" width="30.4" height="34" transform="matrix(.7219 .3412 -.5687 .8393 13.95 -61.15)"/><use xlink:href="#aA" width="21.4" height="20.4" transform="matrix(.9298 .1687 -.2877 1.0185 -2.65 -32.6)"/><use xlink:href="#aB" width="33" height="20.6" transform="matrix(.6345 -.4758 -.4994 -.9875 -13.65 -6.3)"/><use xlink:href="#ak" width="9.8" height="12.9" transform="matrix(1.0863 -.1486 -.1157 1.0919 1.35 -22.25)"/><use xlink:href="#av" width="11.7" height="16.7" transform="matrix(-.0863 .981 -.9733 -.2988 8 -17.7)"/><use xlink:href="#aE" width="12.7" height="13.6" transform="matrix(.2051 -.9397 .9025 .0165 40.55 -29.5)"/><use xlink:href="#aF" width="15.1" height="22.1" transform="matrix(.1171 -.9502 .9043 .1639 28.8 -29)"/><use xlink:href="#aG" width="14.5" height="18.9" transform="matrix(-1.0186 -.3512 -.2302 .957 39.65 -48.5)"/></g></g><g clip-path="url(#bd)"><g transform="translate(1436.35 89.8)"><use xlink:href="#ai" width="12.9" height="4.3" transform="matrix(.9998 .119 0 1 -2.05 2.75)"/><use xlink:href="#ai" width="12.9" height="4.3" transform="matrix(.9998 .119 0 1 6 -2.55)"/><use xlink:href="#aj" width="30.1" height="51" transform="matrix(.9704 -.1237 .0962 .9897 19.5 -67.85)"/><use xlink:href="#aC" width="9.8" height="12.9" transform="matrix(1.2258 -.2721 .6524 1.2116 -1.1 -23.8)"/><use xlink:href="#aD" width="14.7" height="17.6" transform="matrix(.8686 -.2217 .1356 .8794 6.35 -14.25)"/><use xlink:href="#aw" width="13.8" height="21.9" transform="matrix(.9564 .3028 -.3682 .9204 -.1 -51.35)"/><use xlink:href="#ax" width="12.7" height="13.6" transform="matrix(.992 -.3044 .1892 .8338 -2.65 -33.1)"/><use xlink:href="#ay" width="14.5" height="18.9" transform="rotate(72.968 39.078 -7.616)scale(-.9918 .9918)"/><use xlink:href="#az" width="30.4" height="34" transform="matrix(.7169 .3508 -.5828 .8298 14.4 -59.2)"/><use xlink:href="#aA" width="21.4" height="20.4" transform="matrix(.9269 .1812 -.3015 1.0148 -2.65 -31)"/><use xlink:href="#aB" width="33" height="20.6" transform="matrix(.6471 -.4543 -.482 -.9958 -14.05 -5.3)"/><use xlink:href="#ak" width="9.8" height="12.9" transform="matrix(.9492 -.5609 .3143 1.059 2.55 -18.25)"/><use xlink:href="#av" width="11.7" height="16.7" transform="matrix(.0815 .9752 -.9896 -.0522 12.8 -18.15)"/><use xlink:href="#aE" width="12.7" height="13.6" transform="matrix(.3573 -.8918 .8913 .1536 37.25 -26.25)"/><use xlink:href="#aF" width="15.1" height="22.1" transform="matrix(.2722 -.9167 .8638 .3108 25.6 -27.75)"/><use xlink:href="#aG" width="14.5" height="18.9" transform="matrix(-.9269 -.5473 -.4164 .8908 40.05 -44.95)"/></g></g><g clip-path="url(#be)"><g transform="translate(1519.35 89.8)"><use xlink:href="#ai" width="12.9" height="4.3" transform="matrix(1 .1209 0 1 2.15 2.35)"/><use xlink:href="#ai" width="12.9" height="4.3" transform="matrix(1 .1209 0 1 2.15 -1.25)"/><use xlink:href="#aj" width="30.1" height="51" transform="matrix(.973 -.0957 .0693 .9932 21.1 -66.15)"/><use xlink:href="#aC" width="9.8" height="12.9" transform="matrix(1.2525 -.0933 .4863 1.3347 -1.8 -22.9)"/><use xlink:href="#aD" width="14.7" height="17.6" transform="matrix(.8961 .0322 -.1131 .8303 3.95 -11.95)"/><use xlink:href="#aw" width="13.8" height="21.9" transform="matrix(.854 .5285 -.5822 .8039 3.85 -47.95)"/><use xlink:href="#ax" width="12.7" height="13.6" transform="matrix(1.029 -.1376 .0491 .8538 -1.5 -31.1)"/><use xlink:href="#ay" width="14.5" height="18.9" transform="matrix(-.5877 -.8012 -.8012 .5877 23 -42.5)"/><use xlink:href="#az" width="30.4" height="34" transform="matrix(.7116 .3631 -.5957 .8228 14.95 -57.5)"/><use xlink:href="#aA" width="21.4" height="20.4" transform="matrix(.9236 .1978 -.3183 1.0112 -2.55 -29.4)"/><use xlink:href="#aB" width="33" height="20.6" transform="matrix(.6611 -.4316 -.4671 -1.0042 -14.4 -4.25)"/><use xlink:href="#ak" width="9.8" height="12.9" transform="matrix(.6632 -.8919 .7048 .8613 5.45 -13.35)"/><use xlink:href="#bf" width="14.7" height="17.6" transform="matrix(.2485 .9405 -.9453 .1847 18.6 -13.5)"/><use xlink:href="#aE" width="12.7" height="13.6" transform="matrix(.5022 -.8196 .8602 .2879 34.3 -23.1)"/><use xlink:href="#aF" width="15.1" height="22.1" transform="matrix(.4212 -.8589 .8006 .4502 22.55 -26.6)"/><use xlink:href="#aG" width="14.5" height="18.9" transform="matrix(-.7997 -.722 -.5869 .7899 40 -41.25)"/></g></g><g clip-path="url(#bg)"><g transform="translate(1602.35 89.8)"><use xlink:href="#ai" width="12.9" height="4.3" transform="matrix(.9998 .119 0 1 3.4 2)"/><use xlink:href="#ai" width="12.9" height="4.3" transform="matrix(.9998 .119 0 1 .3 -1.35)"/><use xlink:href="#aj" width="30.1" height="51" transform="matrix(.9722 -.1028 .075 .9947 20.75 -67.15)"/><use xlink:href="#bh" width="9.8" height="12.9" transform="matrix(1.2558 -.022 .3343 1.3854 -1.55 -24.3)"/><use xlink:href="#bi" width="14.7" height="17.6" transform="matrix(.8772 .0116 -.1391 .8277 2.6 -11.75)"/><use xlink:href="#aw" width="13.8" height="21.9" transform="matrix(.9008 .4405 -.5011 .8576 3.5 -47.95)"/><use xlink:href="#ax" width="12.7" height="13.6" transform="matrix(1.0134 -.225 .1195 .8477 -1.2 -31.35)"/><use xlink:href="#ay" width="14.5" height="18.9" transform="matrix(-.5926 -.7975 -.7948 .5954 22.8 -43.55)"/><use xlink:href="#az" width="30.4" height="34" transform="matrix(.7141 .3569 -.5876 .8287 14.6 -58.4)"/><use xlink:href="#aA" width="21.4" height="20.4" transform="matrix(.9251 .1888 -.307 1.0159 -2.55 -30.15)"/><use xlink:href="#aB" width="33" height="20.6" transform="matrix(.6064 -.5064 -.5793 -.9422 -12.4 -3.2)"/><use xlink:href="#bj" width="9.8" height="12.9" transform="matrix(.589 -.9685 .7952 .8058 5.7 -13.65)"/><use xlink:href="#bk" width="14.7" height="17.6" transform="matrix(.3333 .9137 -.9243 .2707 18.75 -14.8)"/><use xlink:href="#aE" width="12.7" height="13.6" transform="matrix(.5723 -.7706 .83 .3658 31.85 -24)"/><use xlink:href="#aF" width="15.1" height="22.1" transform="matrix(.4937 -.8181 .7561 .5213 20.8 -28.35)"/><use xlink:href="#aG" width="14.5" height="18.9" transform="matrix(-.7633 -.7604 -.6234 .7602 39.35 -41.9)"/></g></g><g clip-path="url(#bl)"><g transform="translate(1685.35 89.8)"><use xlink:href="#ai" width="12.9" height="4.3" transform="matrix(.9998 .119 0 1 4.6 1.55)"/><use xlink:href="#ai" width="12.9" height="4.3" transform="matrix(.9998 .119 0 1 -1.6 -1.55)"/><use xlink:href="#aj" width="30.1" height="51" transform="matrix(.9715 -.1114 .0838 .9961 20.35 -68.2)"/><use xlink:href="#aW" width="9.8" height="12.9" transform="matrix(1.255 .0452 .1819 1.4199 -1.25 -25.5)"/><use xlink:href="#aX" width="14.7" height="17.6" transform="matrix(.8579 -.0075 -.1678 .8241 1.35 -11.7)"/><use xlink:href="#aw" width="13.8" height="21.9" transform="matrix(.9402 .3482 -.4138 .9056 3.1 -47.9)"/><use xlink:href="#ax" width="12.7" height="13.6" transform="matrix(.9914 -.3091 .1897 .836 -1 -31.6)"/><use xlink:href="#ay" width="14.5" height="18.9" transform="matrix(-.6002 -.7936 -.7901 .6031 22.55 -44.5)"/><use xlink:href="#az" width="30.4" height="34" transform="matrix(.7175 .3509 -.5812 .8353 14.3 -59.4)"/><use xlink:href="#aA" width="21.4" height="20.4" transform="matrix(.927 .1808 -.2987 1.0208 -2.65 -30.9)"/><use xlink:href="#aB" width="33" height="20.6" transform="matrix(.5437 -.5757 -.6862 -.8675 -10.15 -2.65)"/><use xlink:href="#aU" width="9.8" height="12.9" transform="matrix(.5042 -1.0419 .882 .7428 6.2 -14.05)"/><use xlink:href="#ba" width="14.7" height="17.6" transform="matrix(.4161 .8798 -.8947 .3581 18.85 -16.3)"/><use xlink:href="#aE" width="12.7" height="13.6" transform="matrix(.6379 -.7174 .7937 .4408 29.45 -24.9)"/><use xlink:href="#aF" width="15.1" height="22.1" transform="matrix(.5664 -.7699 .7062 .5894 19 -30.3)"/><use xlink:href="#aG" width="14.5" height="18.9" transform="matrix(-.724 -.8003 -.6596 .7299 38.65 -42.45)"/></g></g><g clip-path="url(#bm)"><g transform="translate(1768.35 89.8)"><use xlink:href="#ai" width="12.9" height="4.3" transform="matrix(.9998 .119 0 1 5.85 1.15)"/><use xlink:href="#ai" width="12.9" height="4.3" transform="matrix(.9998 .119 0 1 -3.45 -1.7)"/><use xlink:href="#aj" width="30.1" height="51" transform="matrix(.9708 -.12 .0926 .9975 19.75 -69.2)"/><use xlink:href="#bn" width="9.8" height="12.9" transform="matrix(1.2499 .1204 .026 1.4375 -.95 -26.65)"/><use xlink:href="#bo" width="14.7" height="17.6" transform="matrix(.8382 -.0258 -.1938 .8201 0 -11.55)"/><use xlink:href="#aw" width="13.8" height="21.9" transform="matrix(.9695 .2556 -.322 .9447 2.7 -47.8)"/><use xlink:href="#ax" width="12.7" height="13.6" transform="matrix(.9612 -.3943 .2589 .8184 -.65 -31.8)"/><use xlink:href="#ay" width="14.5" height="18.9" transform="matrix(-.6078 -.7897 -.7854 .6109 22.35 -45.55)"/><use xlink:href="#az" width="30.4" height="34" transform="matrix(.7208 .3449 -.5746 .842 14.05 -60.35)"/><use xlink:href="#aA" width="21.4" height="20.4" transform="matrix(.9288 .1728 -.2903 1.0255 -2.7 -31.65)"/><use xlink:href="#aB" width="33" height="20.6" transform="matrix(.4731 -.6374 -.7836 -.7808 -7.8 -2.2)"/><use xlink:href="#bn" width="9.8" height="12.9" transform="matrix(.4144 -1.1064 .964 .6705 6.7 -14.3)"/><use xlink:href="#bo" width="14.7" height="17.6" transform="matrix(.4956 .8385 -.8569 .4425 19 -17.7)"/><use xlink:href="#aE" width="12.7" height="13.6" transform="matrix(.7009 -.6563 .7506 .5123 27.15 -25.9)"/><use xlink:href="#aF" width="15.1" height="22.1" transform="matrix(.6322 -.7173 .6501 .6527 17.3 -32.1)"/><use xlink:href="#aG" width="14.5" height="18.9" transform="matrix(-.6853 -.8359 -.6944 .6978 37.9 -43.15)"/></g></g><g clip-path="url(#bp)"><g transform="translate(1851.35 89.8)"><use xlink:href="#ai" width="12.9" height="4.3" transform="matrix(.9998 .119 0 1 7.05 .7)"/><use xlink:href="#ai" width="12.9" height="4.3" transform="matrix(.9998 .119 0 1 -5.3 -1.9)"/><use xlink:href="#aj" width="30.1" height="51" transform="matrix(.9699 -.1285 .1015 .9987 19.25 -70.2)"/><use xlink:href="#aU" width="9.8" height="12.9" transform="matrix(1.2408 .1911 -.1267 1.4376 -.55 -27.6)"/><use xlink:href="#ba" width="14.7" height="17.6" transform="matrix(.8181 -.0432 -.2224 .8146 -1.4 -11.5)"/><use xlink:href="#aw" width="13.8" height="21.9" transform="matrix(.9902 .1575 -.2297 .9738 2.15 -47.6)"/><use xlink:href="#ax" width="12.7" height="13.6" transform="matrix(.9237 -.4767 .3264 .7951 -.35 -31.95)"/><use xlink:href="#ay" width="14.5" height="18.9" transform="matrix(-.6127 -.7877 -.7785 .6211 22.05 -46.6)"/><use xlink:href="#az" width="30.4" height="34" transform="matrix(.7242 .3389 -.5652 .8504 13.6 -61.35)"/><use xlink:href="#aA" width="21.4" height="20.4" transform="matrix(.9306 .1648 -.2818 1.0302 -2.85 -32.45)"/><use xlink:href="#aB" width="33" height="20.6" transform="matrix(.3955 -.6904 -.8679 -.6861 -5.35 -2.15)"/><use xlink:href="#aW" width="9.8" height="12.9" transform="matrix(.3132 -1.1641 1.0419 .586 7.35 -14.6)"/><use xlink:href="#aX" width="14.7" height="17.6" transform="matrix(.571 .79 -.813 .5202 19.15 -19)"/><use xlink:href="#aE" width="12.7" height="13.6" transform="matrix(.7561 -.5922 .7011 .5796 25.05 -26.65)"/><use xlink:href="#aF" width="15.1" height="22.1" transform="matrix(.6952 -.6569 .5883 .7107 15.6 -34)"/><use xlink:href="#aG" width="14.5" height="18.9" transform="matrix(-.6421 -.8718 -.7276 .6641 37.2 -43.75)"/></g></g><g clip-path="url(#bq)"><g transform="translate(1934.35 89.8)"><use xlink:href="#ai" width="12.9" height="4.3" transform="matrix(.9998 .119 0 1 8.3 .3)"/><use xlink:href="#ai" width="12.9" height="4.3" transform="matrix(.9998 .119 0 1 -7.2 -2.05)"/><use xlink:href="#aj" width="30.1" height="51" transform="matrix(.969 -.1371 .1104 .9999 18.8 -71.2)"/><use xlink:href="#bj" width="9.8" height="12.9" transform="matrix(1.2277 .2612 -.2839 1.4203 -.05 -28.4)"/><use xlink:href="#bk" width="14.7" height="17.6" transform="matrix(.7977 -.0597 -.2482 .8089 -2.7 -11.4)"/><use xlink:href="#aw" width="13.8" height="21.9" transform="matrix(1.001 .0579 -.1316 .9944 1.8 -47.3)"/><use xlink:href="#ax" width="12.7" height="13.6" transform="matrix(.881 -.5526 .3919 .7662 .15 -32.15)"/><use xlink:href="#ay" width="14.5" height="18.9" transform="matrix(-.6203 -.7836 -.7736 .6288 21.9 -47.6)"/><use xlink:href="#az" width="30.4" height="34" transform="matrix(.7274 .3328 -.5585 .8569 13.4 -62.4)"/><use xlink:href="#aA" width="21.4" height="20.4" transform="matrix(.9323 .1568 -.2732 1.0349 -2.9 -33.15)"/><use xlink:href="#aB" width="33" height="20.6" transform="matrix(.3122 -.7341 -.9428 -.5794 -2.75 -2.15)"/><use xlink:href="#bh" width="9.8" height="12.9" transform="matrix(.2087 -1.2118 1.1108 .4963 8.15 -14.9)"/><use xlink:href="#bi" width="14.7" height="17.6" transform="matrix(.6417 .7348 -.76 .5962 19.25 -20.35)"/><use xlink:href="#aE" width="12.7" height="13.6" transform="matrix(.8072 -.5209 .6456 .6422 22.8 -27.65)"/><use xlink:href="#aF" width="15.1" height="22.1" transform="matrix(.7507 -.5935 .5215 .7629 14.15 -35.85)"/><use xlink:href="#aG" width="14.5" height="18.9" transform="matrix(-.5999 -.9035 -.7592 .6288 36.4 -44.3)"/></g></g><g clip-path="url(#br)"><g transform="translate(2017.35 89.8)"><use xlink:href="#ai" width="12.9" height="4.3" transform="matrix(1 .1209 0 1 9.5 -.2)"/><use xlink:href="#ai" width="12.9" height="4.3" transform="matrix(1 .1209 0 1 -9.05 -2.3)"/><use xlink:href="#aj" width="30.1" height="51" transform="matrix(.9681 -.1483 .1217 1.0012 18.3 -72.3)"/><use xlink:href="#ak" width="9.8" height="12.9" transform="matrix(1.2117 .3307 -.4431 1.386 .3 -29.25)"/><use xlink:href="#bf" width="14.7" height="17.6" transform="matrix(.777 -.0769 -.2769 .8022 -4.1 -11.3)"/><use xlink:href="#aw" width="13.8" height="21.9" transform="matrix(1.0018 -.038 -.0349 1.005 1.45 -46.85)"/><use xlink:href="#ax" width="12.7" height="13.6" transform="matrix(.8312 -.6286 .4571 .7321 .5 -32.35)"/><use xlink:href="#ay" width="14.5" height="18.9" transform="matrix(-.6289 -.7806 -.7691 .6384 21.7 -48.6)"/><use xlink:href="#az" width="30.4" height="34" transform="matrix(.7306 .3292 -.5531 .8643 13.1 -63.35)"/><use xlink:href="#aA" width="21.4" height="20.4" transform="matrix(.9341 .1506 -.2658 1.04 -2.85 -33.95)"/><use xlink:href="#aB" width="33" height="20.6" transform="matrix(.2243 -.7683 -1.0055 -.4663 -.1 -2.75)"/><use xlink:href="#aC" width="9.8" height="12.9" transform="matrix(.0975 -1.2503 1.1726 .4006 9 -15.25)"/><use xlink:href="#aD" width="14.7" height="17.6" transform="matrix(.7091 .6735 -.7013 .6676 19.4 -21.85)"/><use xlink:href="#aE" width="12.7" height="13.6" transform="matrix(.8516 -.4481 .5866 .6998 20.75 -28.6)"/><use xlink:href="#aF" width="15.1" height="22.1" transform="matrix(.8026 -.5245 .452 .8093 12.55 -37.75)"/><use xlink:href="#aG" width="14.5" height="18.9" transform="matrix(-.556 -.9351 -.7892 .5944 35.65 -44.85)"/></g></g><g clip-path="url(#bs)"><g transform="translate(2100.35 89.8)"><use xlink:href="#ai" width="12.9" height="4.3" transform="matrix(.9998 .119 0 1 12.85 -2)"/><use xlink:href="#ai" width="12.9" height="4.3" transform="matrix(.9998 .119 0 1 -10.8 -2.85)"/><use xlink:href="#aj" width="30.1" height="51" transform="matrix(.968 -.1455 .1189 .9961 18.4 -75.45)"/><use xlink:href="#ak" width="9.8" height="12.9" transform="matrix(1.1905 .3942 -.5194 1.3503 .85 -32.95)"/><use xlink:href="#bf" width="14.7" height="17.6" transform="matrix(.74 .2449 -.5764 .6152 -2.7 -17.7)"/><use xlink:href="#aw" width="13.8" height="21.9" transform="matrix(.9885 -.1619 .0916 .9958 1.55 -49.25)"/><use xlink:href="#ax" width="12.7" height="13.6" transform="matrix(.8309 -.6232 .4561 .7276 .6 -35.7)"/><use xlink:href="#ay" width="14.5" height="18.9" transform="matrix(-.6264 -.7767 -.7674 .6346 22.2 -51.95)"/><use xlink:href="#az" width="30.4" height="34" transform="matrix(.7303 .3262 -.5502 .8599 13.15 -66.5)"/><use xlink:href="#aA" width="21.4" height="20.4" transform="matrix(.9338 .1485 -.2636 1.0345 -2.65 -37.25)"/><use xlink:href="#aB" width="33" height="20.6" transform="matrix(.1828 -.7745 -1.0273 -.4106 1.15 -6.2)"/><use xlink:href="#aC" width="9.8" height="12.9" transform="matrix(.0389 -1.247 1.189 .3423 9.35 -18.1)"/><use xlink:href="#aD" width="14.7" height="17.6" transform="matrix(.8689 .4395 -.4829 .8342 18.85 -25.05)"/><use xlink:href="#aE" width="12.7" height="13.6" transform="matrix(.9126 -.2974 .4622 .7824 18.15 -32.65)"/><use xlink:href="#aF" width="15.1" height="22.1" transform="matrix(.8763 -.3816 .312 .8676 11.85 -42.7)"/><use xlink:href="#aG" width="14.5" height="18.9" transform="matrix(-.4666 -.9765 -.839 .5152 35.1 -47.25)"/></g></g><g clip-path="url(#bt)"><g transform="translate(2183.35 89.8)"><use xlink:href="#ai" width="12.9" height="4.3" transform="matrix(.9998 .119 0 1 16.25 -3.85)"/><use xlink:href="#ai" width="12.9" height="4.3" transform="matrix(.9998 .119 0 1 -12.55 -3.5)"/><use xlink:href="#aj" width="30.1" height="51" transform="matrix(.968 -.1454 .1184 .9912 18.35 -78.55)"/><use xlink:href="#ak" width="9.8" height="12.9" transform="matrix(1.1656 .4605 -.5929 1.312 1.3 -36.55)"/><use xlink:href="#bf" width="14.7" height="17.6" transform="matrix(.5731 .5268 -.7749 .3221 -1.2 -22.9)"/><use xlink:href="#aw" width="13.8" height="21.9" transform="matrix(.9593 -.2853 .2155 .9706 1.7 -51.55)"/><use xlink:href="#ax" width="12.7" height="13.6" transform="matrix(.8298 -.6216 .4549 .7248 .55 -39)"/><use xlink:href="#ay" width="14.5" height="18.9" transform="matrix(-.6276 -.772 -.7684 .6304 22.8 -55.25)"/><use xlink:href="#az" width="30.4" height="34" transform="matrix(.7299 .3256 -.5514 .8546 13.35 -69.55)"/><use xlink:href="#aA" width="21.4" height="20.4" transform="matrix(.9338 .1483 -.2626 1.0295 -2.5 -40.6)"/><use xlink:href="#aB" width="33" height="20.6" transform="matrix(.1414 -.7792 -1.048 -.3521 2.35 -9.75)"/><use xlink:href="#aC" width="9.8" height="12.9" transform="matrix(-.0118 -1.2413 1.2033 .2849 9.6 -21)"/><use xlink:href="#aD" width="14.7" height="17.6" transform="matrix(.9558 .1732 -.2287 .934 18.25 -28.05)"/><use xlink:href="#aE" width="12.7" height="13.6" transform="matrix(.9488 -.1386 .3258 .8453 15.85 -36.6)"/><use xlink:href="#aF" width="15.1" height="22.1" transform="matrix(.9268 -.2274 .1641 .9037 11.35 -47.55)"/><use xlink:href="#aG" width="14.5" height="18.9" transform="matrix(-.3738 -1.0113 -.8829 .4314 34.6 -49.7)"/></g></g><g clip-path="url(#bu)"><g transform="translate(2266.35 89.8)"><use xlink:href="#ai" width="12.9" height="4.3" transform="matrix(1 .1209 0 1 19.6 -5.75)"/><use xlink:href="#ai" width="12.9" height="4.3" transform="matrix(1 .1209 0 1 -14.3 -4.15)"/><use xlink:href="#aj" width="30.1" height="51" transform="matrix(.9682 -.1468 .1215 .9863 18.2 -81.6)"/><use xlink:href="#ak" width="9.8" height="12.9" transform="matrix(1.1383 .5262 -.6678 1.2699 1.85 -40.2)"/><use xlink:href="#bf" width="14.7" height="17.6" transform="matrix(.3095 .715 -.8356 -.0214 -.25 -26.95)"/><use xlink:href="#aw" width="13.8" height="21.9" transform="matrix(.9151 -.4066 .3352 .9311 2 -53.65)"/><use xlink:href="#ax" width="12.7" height="13.6" transform="matrix(.8312 -.6193 .4571 .7213 .5 -42.3)"/><use xlink:href="#ay" width="14.5" height="18.9" transform="matrix(-.6289 -.7691 -.7691 .6289 23.25 -58.7)"/><use xlink:href="#az" width="30.4" height="34" transform="matrix(.7309 .3245 -.5524 .8513 13.55 -72.85)"/><use xlink:href="#aA" width="21.4" height="20.4" transform="matrix(.9342 .1487 -.265 1.0245 -2.35 -43.9)"/><use xlink:href="#aB" width="33" height="20.6" transform="matrix(.1018 -.7817 -1.0651 -.2976 3.5 -13.35)"/><use xlink:href="#aC" width="9.8" height="12.9" transform="matrix(-.0703 -1.2331 1.2148 .232 10.05 -24)"/><use xlink:href="#aD" width="14.7" height="17.6" transform="matrix(.9631 -.1066 .0431 .9584 17.7 -31)"/><use xlink:href="#aE" width="12.7" height="13.6" transform="matrix(.9576 .0193 .1854 .8846 13.75 -40.45)"/><use xlink:href="#aF" width="15.1" height="22.1" transform="matrix(.9505 -.0701 .0158 .915 10.95 -52.3)"/><use xlink:href="#aG" width="14.5" height="18.9" transform="matrix(-.2796 -1.0381 -.9195 .3445 33.9 -52.15)"/></g></g></svg>