<svg xmlns="http://www.w3.org/2000/svg" xmlns:xlink="http://www.w3.org/1999/xlink" width="1427" height="51" viewBox="0 0 1427 51"><defs><clipPath id="w"><path d="M1 1h30v49H1z"/></clipPath><clipPath id="T"><path d="M32 1h30v49H32z"/></clipPath><clipPath id="U"><path d="M63 1h30v49H63z"/></clipPath><clipPath id="V"><path d="M94 1h30v49H94z"/></clipPath><clipPath id="W"><path d="M125 1h30v49h-30z"/></clipPath><clipPath id="X"><path d="M156 1h30v49h-30z"/></clipPath><clipPath id="Y"><path d="M187 1h30v49h-30z"/></clipPath><clipPath id="Z"><path d="M218 1h30v49h-30z"/></clipPath><clipPath id="aa"><path d="M249 1h30v49h-30z"/></clipPath><clipPath id="ab"><path d="M280 1h30v49h-30z"/></clipPath><clipPath id="ac"><path d="M311 1h30v49h-30z"/></clipPath><clipPath id="ad"><path d="M342 1h30v49h-30z"/></clipPath><clipPath id="ae"><path d="M373 1h30v49h-30z"/></clipPath><clipPath id="af"><path d="M404 1h30v49h-30z"/></clipPath><clipPath id="ag"><path d="M435 1h30v49h-30z"/></clipPath><clipPath id="ah"><path d="M466 1h30v49h-30z"/></clipPath><clipPath id="ai"><path d="M497 1h30v49h-30z"/></clipPath><clipPath id="aj"><path d="M528 1h30v49h-30z"/></clipPath><clipPath id="ak"><path d="M559 1h30v49h-30z"/></clipPath><clipPath id="al"><path d="M590 1h30v49h-30z"/></clipPath><clipPath id="am"><path d="M621 1h30v49h-30z"/></clipPath><clipPath id="an"><path d="M652 1h30v49h-30z"/></clipPath><clipPath id="ao"><path d="M683 1h30v49h-30z"/></clipPath><clipPath id="ap"><path d="M714 1h30v49h-30z"/></clipPath><clipPath id="aq"><path d="M745 1h30v49h-30z"/></clipPath><clipPath id="ar"><path d="M776 1h30v49h-30z"/></clipPath><clipPath id="as"><path d="M807 1h30v49h-30z"/></clipPath><clipPath id="at"><path d="M838 1h30v49h-30z"/></clipPath><clipPath id="au"><path d="M869 1h30v49h-30z"/></clipPath><clipPath id="av"><path d="M900 1h30v49h-30z"/></clipPath><clipPath id="aw"><path d="M931 1h30v49h-30z"/></clipPath><clipPath id="ax"><path d="M962 1h30v49h-30z"/></clipPath><clipPath id="ay"><path d="M993 1h30v49h-30z"/></clipPath><clipPath id="az"><path d="M1024 1h30v49h-30z"/></clipPath><clipPath id="aA"><path d="M1055 1h30v49h-30z"/></clipPath><clipPath id="aB"><path d="M1086 1h30v49h-30z"/></clipPath><clipPath id="aC"><path d="M1117 1h30v49h-30z"/></clipPath><clipPath id="aD"><path d="M1148 1h30v49h-30z"/></clipPath><clipPath id="aE"><path d="M1179 1h30v49h-30z"/></clipPath><clipPath id="aF"><path d="M1210 1h30v49h-30z"/></clipPath><clipPath id="aG"><path d="M1241 1h30v49h-30z"/></clipPath><clipPath id="aH"><path d="M1272 1h30v49h-30z"/></clipPath><clipPath id="aI"><path d="M1303 1h30v49h-30z"/></clipPath><clipPath id="aJ"><path d="M1334 1h30v49h-30z"/></clipPath><clipPath id="aK"><path d="M1365 1h30v49h-30z"/></clipPath><clipPath id="aL"><path d="M1396 1h30v49h-30z"/></clipPath><g id="p"><path fill="#ffce8c" d="M.3 0H1l.8.4v1.3l.8 1.8-.5.7-.9.7-.2.2-.2.2-.7-1.2-.1-.3V2zm1 4.9.2-.1zm.5-.8h-.1z"/><path fill="#f4dfb5" d="M1.8 4.2V4h-.1z"/><path fill="none" stroke="#1f1f1f" stroke-linecap="round" stroke-linejoin="round" stroke-opacity=".3" stroke-width="__RESOLUTION__" d="M.3 0 0 2v2l.8 1.2h0l.3-.2.2-.2.9-.7.5-.7v0l-.8-1.8V.4m-.1 3.8V4" vector-effect="non-scaling-stroke"/></g><g id="q"><path fill="#8c4f30" d="m1 6.2 3-3-2.2 8.6Q1 9.6 1 6.3"/><path fill="none" stroke="#552d1e" stroke-linecap="round" stroke-linejoin="round" stroke-width="__RESOLUTION__" d="m1 6.2 3-3" vector-effect="non-scaling-stroke"/><path fill="#8c4f30" d="m5.7 3.2 3 3Q9 9.6 8 11.8z"/><path fill="none" stroke="#552d1e" stroke-linecap="round" stroke-linejoin="round" stroke-width="__RESOLUTION__" d="m8.8 6.2-3.1-3" vector-effect="non-scaling-stroke"/><path fill="#ffce8c" d="M1.8 8.6H1L.3 8 0 7.5v-.2l.4-.5.4-.1.9.3h.2q.2 1.5-.1 1.6"/><path fill="none" stroke="#c9853a" stroke-linecap="round" stroke-linejoin="round" stroke-opacity=".7" stroke-width="__RESOLUTION__" d="m1.7 7-.9-.3H.3l-.3.5v.3l.3.6.7.5h.7" vector-effect="non-scaling-stroke"/><path fill="#ffce8c" d="m7.7 6.9.9-.3h.5l.3.6v.2l-.3.6-.7.5h-.8q-.3-.1 0-1.5z"/><path fill="none" stroke="#c9853a" stroke-linecap="round" stroke-linejoin="round" stroke-opacity=".7" stroke-width="__RESOLUTION__" d="m7.7 6.9.9-.3h.5l.3.6v.2l-.3.6-.7.5h-.8" vector-effect="non-scaling-stroke"/><path fill="#6b3c24" d="m1.8 2.1 3 1.7L7.6 2l1.7 3.2-1.1 3-.7.4-.5 1.6-2.2.9L2.6 10 2 8.8l-1-.5-1-3z"/><path fill="#8c4f30" d="M7.6 2.1 4.8 3.8 1.8 2l2.8-1z"/><path fill="none" stroke="#552d1e" stroke-linecap="round" stroke-linejoin="round" stroke-width="__RESOLUTION__" d="M1.8 2.1.1 5.3l1 3 1 .5m5.4 0 .7-.5 1-3-1.6-3.2-3-1-2.8 1" vector-effect="non-scaling-stroke"/><path fill="none" stroke="#1f1f1f" stroke-linecap="round" stroke-linejoin="round" stroke-opacity=".3" stroke-width="__RESOLUTION__" d="m2.1 8.8.5 1.3 2.3 1.1 2.1-1 .5-1.4" vector-effect="non-scaling-stroke"/><path fill="#8c4f30" d="m4.6 0 1.3.3q1 .4 1.3 1.2.4.9-.1 1.7t-1.6 1h-.3Q3.2 2 4.6 0"/><path fill="#6b3c24" d="m5.2 4.2-1.7-.1q-1-.4-1.3-1.3t.2-1.6T3.9.1l.7-.1q-1.4 2 .6 4.2"/><path fill="none" stroke="#1f1f1f" stroke-linecap="round" stroke-linejoin="round" stroke-opacity=".3" stroke-width="__RESOLUTION__" d="m4.6 0 1.3.3q1 .4 1.3 1.2.4.9-.1 1.7t-1.6 1h-.3l-1.7-.1q-1-.4-1.3-1.3t.2-1.6T3.9.1z" vector-effect="non-scaling-stroke"/></g><g id="r"><path fill="#fafaff" d="M11.2 6.8Q12.1 7 13 9t1 4.8q.2 3-.7 5.4-.7 1.8-1.4 1.6h-.2l-.2-1.4q2.4-4 0-10.8z"/><path fill="#e9eaeb" d="m11.7 20.8-1.2-1.9-1.3-4.7v-.6q1.2-1.6 1.5-5.3l.5-1.5.2 1.8-.7-.3q2.1 4.8.2 10.9l-.4-.3.4.3.5.1z"/><path fill="#727ba1" d="M11.5 8.6q2.3 6.8 0 10.8l-.6-.2q1.9-6.1-.2-10.9z"/><path fill="none" stroke="#fff" stroke-linecap="round" stroke-linejoin="round" stroke-width="__RESOLUTION__" d="M11.2 6.8Q12.1 7 13 9t1 4.8q.2 3-.7 5.4-.7 1.8-1.4 1.6h-.2" vector-effect="non-scaling-stroke"/><path fill="none" stroke="#b5b5b5" stroke-linecap="round" stroke-linejoin="round" stroke-width="__RESOLUTION__" d="m11.7 20.8-1.2-1.9.5.3q1.8-6.1-.3-10.9l.8.2-.3-1.8m.3 12.6.2 1.4m-.7-1.6.4.2" vector-effect="non-scaling-stroke"/><path fill="none" stroke="#878787" stroke-linecap="round" stroke-linejoin="round" stroke-width="__RESOLUTION__" d="m10.5 19-1.3-4.8m0-.6q1.2-1.6 1.5-5.3l.5-1.5" vector-effect="non-scaling-stroke"/><path fill="#e9eaeb" d="m7.5 14.7.6-.1v35.7h-.6zm.6 38.2v1.3l-.6.2V53z"/><path fill="#727ba1" d="m8.1 50.3-.1.4v1.9l.1.3-.6.1v-2.6z"/><path fill="#c5c5c9" d="m7.5 54.4-.5-.7v-1.2l.5.5zM7 49.9V14.1l.5.6v35.7z"/><path fill="#535b75" d="m7 52.5.2-.2v-2L7 50l.5.5V53z"/><path fill="none" stroke="#ddd" stroke-linecap="round" stroke-linejoin="round" stroke-width="__RESOLUTION__" d="m7.5 14.7.6-.1m0 39.6-.6.1" vector-effect="non-scaling-stroke"/><path fill="none" stroke="#89898c" stroke-linecap="round" stroke-linejoin="round" stroke-width="__RESOLUTION__" d="m7.5 54.4-.5-.7v-1.2l.2-.2v-2L7 50V14.1l.5.6" vector-effect="non-scaling-stroke"/><path fill="none" stroke="#878787" stroke-linecap="round" stroke-linejoin="round" stroke-width="__RESOLUTION__" d="m7.5 50.4.6-.1M7.5 53l.6-.1m-.6-2.5-.5-.5m0 2.6.5.5" vector-effect="non-scaling-stroke"/><path fill="#f2f2f7" d="M4.8 13 0 11l4.8.5 2 1.4-.1.8z"/><path fill="#c5c5c9" d="m0 11 4.8 2v-.1l1.9.8h-2z"/><path fill="none" stroke="#878787" stroke-linecap="round" stroke-linejoin="round" stroke-width="__RESOLUTION__" d="m6.8 13-2-1.4L0 11l4.8 2.8h1.9" vector-effect="non-scaling-stroke"/><path fill="#c5c5c9" d="m7.6 0 1.3 8.8L8 12V8.5l-.1-.6z"/><path fill="#f2f2f7" d="m7.6 0 .3 8-.5 3.7-.3-.1L6.5 8z"/><path fill="#fff" d="M7.9 8v.5l.2 3.5-.7-.3z"/><path fill="none" stroke="#878787" stroke-linecap="round" stroke-linejoin="round" stroke-width="__RESOLUTION__" d="m8.2 12 .7-3.2L7.5 0l-1 8 .6 3.6M8 8.5" vector-effect="non-scaling-stroke"/><path fill="#535b75" d="M9.2 14q0 .8-.4 1.3t-1 .2-1-1-.4-1.7.4-1.3 1-.3l1 1zm-.7-1.4-.7-.6-.6.2-.3.9.3 1q.2.6.6.8t.7-.3l.3-.8z"/><path fill="#e9eaeb" d="m8.5 12.7.3 1-.3 1q-.2.3-.6.2t-.7-.8l-.3-1 .3-1 .6-.1z"/><path fill="none" stroke="#b5b5b5" stroke-linecap="round" stroke-linejoin="round" stroke-width="__RESOLUTION__" d="M9.2 14q0 .8-.4 1.3t-1 .2-1-1-.4-1.7.4-1.3 1-.3l1 1z" vector-effect="non-scaling-stroke"/><path fill="#8c4f30" d="m8.4 17-1.5-.6-.2-1.2 1.5.5z"/><path fill="none" stroke="#6b3c24" stroke-linecap="round" stroke-linejoin="round" stroke-width="__RESOLUTION__" d="m8.4 17-1.5-.6-.2-1.2 1.5.5z" vector-effect="non-scaling-stroke"/><path fill="#8c4f30" d="m7.9 18.6-1.3-1.2.4-1 1.2 1.2z"/><path fill="none" stroke="#6b3c24" stroke-linecap="round" stroke-linejoin="round" stroke-width="__RESOLUTION__" d="m7.9 18.6-1.3-1.2.4-1 1.2 1.2z" vector-effect="non-scaling-stroke"/><path fill="#8c4f30" d="m8 18.2.4 1.3-1.2.3-.4-1.3z"/><path fill="none" stroke="#6b3c24" stroke-linecap="round" stroke-linejoin="round" stroke-width="__RESOLUTION__" d="m8 18.2-1.2.3.4 1.3 1.2-.3z" vector-effect="non-scaling-stroke"/></g><g id="s"><path fill="#88532d" d="m1.3 0 1.2.1-.8 11-1-.6L0 8.2z"/><path fill="#663d21" d="m2.5.1 2.7.4V9L4 11l-2.3.2z"/><path fill="none" stroke="#a17636" stroke-linecap="round" stroke-linejoin="round" stroke-opacity=".7" stroke-width="__RESOLUTION__" d="M5.2.5V9m-3.5 2-1-.6L0 8.2 1.3 0m4 9.1L4 11l-2.3.2" vector-effect="non-scaling-stroke"/></g><g id="t"><path fill="#ffce8c" d="M2.8 3.8q-.3 2-.2 3.1-.3.4-1.2.6l-.8-.1Q.3 3.3.5 2.3 1 .8 2.3.1q.5-.4.8 1.3z"/><path fill="#f2e6cd" d="M2 1.3 3.4 1v1.9l-.5 2.6.3 2-1.4.5.2-1.9V4zm1.2 1.6L2 3.9zm-.4 2.6-1 .6z"/><path fill="#ccc2ad" d="M1.7 8 0 7.5l.4-1.7H.2l.1-2.3L2 4 .3 2.8.8.6l1.3.7-.2 2.6v2.2zM.4 5.8l1.4.3z"/><path fill="none" stroke="#87652e" stroke-linecap="round" stroke-linejoin="round" stroke-opacity=".7" stroke-width="__RESOLUTION__" d="M2 1.3 3.4 1v1.9h0l-.5 2.6.3 2-1.4.5L0 7.5l.4-1.7H.2l.1-2.3L2 4 .3 2.8.8.6zM2 4l1.2-1.1M2 6.1.4 5.8m1.5.3.9-.6" vector-effect="non-scaling-stroke"/></g><g id="u"><path fill="#b86b36" d="m3 0 .5.6.8.8 2-.1.1 1.3-2.1 1-1.5.1h-.1l-.2-2.6z"/><path fill="#8f5229" d="m3 0-.5 1.2.2 2.5q-2 0-2.7-.6L.4.4 1.5 0zm3.3 1.3-2 .1-.8-.8h1.1z"/><path fill="#646196" d="M4.4 1.5v-.1z"/><path fill="none" stroke="#1f1f1f" stroke-linecap="round" stroke-linejoin="round" stroke-opacity=".3" stroke-width="__RESOLUTION__" d="m4.2 3.6 2.2-1-.1-1.3L4.6.6h-1m-.9 3.1 1.5-.1M.5.4 0 3q.7.6 2.7.6" vector-effect="non-scaling-stroke"/></g><g id="b"><path fill="#c1a12e" d="m4.7 7.8-.1 1.5-2 .2h-.2V8z"/><path fill="#9e8125" d="M2.4 9.5Q1 9.5 0 8.5l.2-1.3q.5.8 2.2.7z"/><path fill="none" stroke="#a17636" stroke-linecap="round" stroke-linejoin="round" stroke-opacity=".7" stroke-width="__RESOLUTION__" d="M4.8 2.3v-.1m0 0q.3 3.2-.1 5.6M.2 7.3Q1 2.5 2 1.1" vector-effect="non-scaling-stroke"/><path fill="none" stroke="#7a621d" stroke-linecap="round" stroke-linejoin="round" stroke-opacity=".6" stroke-width="__RESOLUTION__" d="m4.7 7.8-.1 1.5-2 .2h-.2Q1 9.5 0 8.7l.2-1.4" vector-effect="non-scaling-stroke"/><path fill="#9e8125" d="M1.5 2.2q.2.3.5.4l.6-.2.3-.6V1L2.4.8H2l.4-.8h.2l.8.7.2 1.2-.7 1-1 .4-.7-.3z"/><path fill="#7d5729" fill-opacity=".5" d="m2.3.3 1.2.2-.2 1.2Q1 6.6 2.3 8.3.6 8.3.1 7.6 1 2.8 1.8 1.4z"/></g><g id="e"><path fill="#7d5729" fill-opacity=".5" d="m9 9.8-.4 2.9-6.4.3-.6-.4.4-1.1-.5-1.6z"/><path fill="none" stroke="#a17636" stroke-linecap="round" stroke-linejoin="round" stroke-opacity=".7" stroke-width="__RESOLUTION__" d="m9 9.8-.4 2.9-6.4.3-.6-.4-.4-.4-.5-2.3" vector-effect="non-scaling-stroke"/><path fill="#88532d" d="m9.2 3.7.6 2-.8 4.5-.8.3zm-7.5 6.9-.9-.5-.8-5 .8-1.7z"/><path fill="#663d21" d="m8.2 10.5-6.5.1-1-7q4.7-1 8.5.1z"/><path fill="none" stroke="#734d01" stroke-linecap="round" stroke-linejoin="round" stroke-opacity=".7" stroke-width="__RESOLUTION__" d="M.8 10 0 5.4l.8-1.7q4.6-1 8.4.1" vector-effect="non-scaling-stroke"/><path fill="#febf74" d="m6.2 0 .5 1.9-3.9.3q.8-.9.5-2.2z"/><path fill="none" stroke="#a17636" stroke-linecap="round" stroke-linejoin="round" stroke-opacity=".7" stroke-width="__RESOLUTION__" d="m6.2 0 .5 1.9m-3.9.3q.8-.9.5-2.2" vector-effect="non-scaling-stroke"/><path fill="#b86236" d="m2.5 2.9.4 1.7-1.5.4-.5-1.7z"/><path fill="none" stroke="#6e717a" stroke-linecap="round" stroke-linejoin="round" stroke-width="__RESOLUTION__" d="m2.5 2.9.4 1.7-1.5.4-.5-1.7z" vector-effect="non-scaling-stroke"/><path fill="#8c4f30" d="m6.9 3.4 1-1.9 1.5.6-1.2 1.8z"/><path fill="#b86236" d="m7.3 2.8 1.5.4-.4 1.7L7 4.5z"/><path fill="none" stroke="#6e717a" stroke-linecap="round" stroke-linejoin="round" stroke-width="__RESOLUTION__" d="M7.3 2.8 7 4.5l1.4.4.4-1.7z" vector-effect="non-scaling-stroke"/><path fill="#ffd066" d="M5.9 8.2v2.5h-.1L4.3 9.3zL4.3 9.4l1.5 1.3-1.5-.1V4.7h1.6v1zL4.3 6.7zM4.3 6.6l1.6-.9-1.6-1 1.6 1z"/><path fill="none" stroke="#822c01" stroke-linecap="round" stroke-linejoin="round" stroke-opacity=".7" stroke-width="__RESOLUTION__" d="M5.9 8.2 4.3 9.4l1.5 1.3m0-2.5L4.4 6.7m0-2 1.6 1-1.6.9" vector-effect="non-scaling-stroke"/></g><g id="c"><path fill="#febf74" d="M9.3 3.5H0L.9.8 8 .5z"/><path fill="#8c4f30" d="m2.8 1.9-1.4.5L0 .6 1.5 0z"/><path fill="#663d21" d="M8 11.6q-2 1.3-5.4.8l-.9-.5-.4-1.5 1 .4q3.7 0 6.1-.7z"/></g><g id="h"><path fill="#7d5729" fill-opacity=".5" d="M1.4.5h6.4L8.2 3 6.6 4.6h-.8L4.5 5l1.4 1.6-3 .2-2.6-.5L0 7.5l2 .7 1.4.2h.3-.3L2.1 8l-2-.6 2 .7 1.4.2h2L7 8l1.3-.4.7-.3-.8.3L7 8l1.3-.3.7-.4-1-1-.4.2-1.7.1-2.9.2-2.6-.5.4-2.2z"/><path fill="none" stroke="#b07539" stroke-linecap="round" stroke-linejoin="round" stroke-opacity=".7" stroke-width="__RESOLUTION__" d="m5.9 6.6 1.5-.1 2.4-.9L8.6 0M.1 7.5H0l.2-1.2h0l.5-2.2.7-3.6m4.5 6.1-3 .2-2.6-.5M.1 7.5l2 .7 1.4.2h2.1L6.9 8l1.3-.4.7-.3 1.1-.7-.2-1v0" vector-effect="non-scaling-stroke"/></g><g id="i"><path fill="#ffce8c" d="m0 2.3.1-.8Q.3 0 1.1 0q.4-.1.8 1.1l.3.7V2v-.3z"/><path fill="none" stroke="#1f1f1f" stroke-linecap="round" stroke-linejoin="round" stroke-opacity=".3" stroke-width="__RESOLUTION__" d="m0 2.3.1-.8Q.3 0 1.1 0q.4-.1.8 1.1l.3.7V2" vector-effect="non-scaling-stroke"/></g><g id="S" transform="translate(1.65 2.95)"><use xlink:href="#a" width="4.8" height="8" transform="translate(-1.5 -2.95)"/><use xlink:href="#b" width="5" height="9.4" transform="translate(-1.65 -2.9)"/></g><g id="E" transform="translate(4.4 13.9)"><use xlink:href="#c" width="9.3" height="12.5" transform="translate(-4.25 -12.3)"/><use xlink:href="#d" width="8.3" height="3.1" transform="translate(-3.7 -4.1)"/><use xlink:href="#e" width="9.8" height="12.9" transform="translate(-4.4 -13.9)"/></g><g id="C" transform="translate(4.85 1.7)"><use xlink:href="#f" width="10.1" height="2.9" transform="translate(-4.85 3.9)"/><use xlink:href="#g" width="9.6" height="6.8" transform="translate(-4.6 -1.7)"/><use xlink:href="#h" width="10.1" height="8.4" transform="translate(-4.85 -1.7)"/></g><g id="B" transform="translate(.7 1.2)"><use xlink:href="#i" width="2.3" height="2.3" transform="translate(-.6 -1.2)"/><use xlink:href="#j" width="3.1" height="6.4" transform="translate(-.7 .55)"/><use xlink:href="#k" width="3.1" height="6.4" transform="translate(-.7 .55)"/></g><use xlink:href="#l" id="a" width="4.8" height="8"/><use xlink:href="#m" id="d" width="8.3" height="3.1"/><use xlink:href="#n" id="g" width="9.6" height="6.8"/><use xlink:href="#o" id="j" width="3.1" height="6.4"/><use xlink:href="#p" id="G" width="2.7" height="5.3"/><use xlink:href="#q" id="F" width="9.4" height="11.8"/><use xlink:href="#r" id="D" width="14" height="54.4"/><use xlink:href="#s" id="A" width="5.3" height="11.2"/><use xlink:href="#t" id="z" width="3.4" height="8"/><use xlink:href="#u" id="y" width="6.4" height="3.7"/><use xlink:href="#v" id="x" width="14.7" height="4.3"/><path id="l" fill="#ffd066" d="M2.3-3v1.3q.3 3.1-.1 5.6L-.1 4q-1.7.1-2.2-.6.8-4.9 1.6-6.3l.5-1 1.2.1z" transform="translate(2.35 4)"/><path id="m" fill="#ffd066" d="m1.5 3.2-1-.8L0 .1 8.3 0l-.4 2.9z"/><path id="n" fill="#ffd066" d="m8.4 0 1.1 5.6-2.3.9-4.6.3L0 6.3 1 .4h2z"/><path id="o" fill="#ffd066" d="M0 .7.1.6Q.9.2 2.3 0L3 6.4H.8z"/><path id="v" fill="#382c16" d="M5.8-1.9Q7.9-1.4 8-.5 8 .3 5.9 1 3.8 1.8.7 2l-5.2-.4Q-6.7 1.2-6.7.3q-.1-.8 2-1.6 2.2-.8 5.2-.9z" transform="translate(6.75 2.25)"/><path id="f" fill="#c1a12e" d="m5 4 .2.9-1.9 1-2.5.8h-2.2l-1.3-.2-2.1-.7.2-1.2 2.7.5 4.5-.3L5 3.9z" transform="translate(4.85 -3.9)"/><path id="k" fill="#7d5729" fill-opacity=".5" d="M1.6.6 2.4 7h-1L-.4 1.9l-.1-.1-.2-.6.1-.1z" transform="translate(.7 -.55)"/></defs><g clip-path="url(#w)"><g transform="translate(20.35 43.55)"><use xlink:href="#x" width="14.7" height="4.3" transform="matrix(.8 0 0 .8 -5.4 -1.8)"/><use xlink:href="#y" width="6.4" height="3.7" transform="matrix(-.5533 -.0368 -.0126 .9035 .25 -6.4)"/><use xlink:href="#z" width="3.4" height="8" transform="matrix(-.8319 -.1684 -.1377 .7504 1.25 -11.15)"/><use xlink:href="#A" width="5.3" height="11.2" transform="matrix(1.0086 .0877 .0137 .7808 -3.25 -19.1)"/><use xlink:href="#B" width="3.1" height="8.2" transform="matrix(.8591 -.2714 .2435 .6552 3.15 -28.35)"/><use xlink:href="#y" width="6.4" height="3.7" transform="matrix(1 0 -.202 1 -1.75 1.75)"/><use xlink:href="#z" width="3.4" height="8" transform="matrix(.8984 .3848 -.148 1.0099 -.7 -5.85)"/><use xlink:href="#A" width="5.3" height="11.2" transform="matrix(-.9963 -.1257 -.2161 .9749 5.85 -14.45)"/><use xlink:href="#C" width="10.1" height="8.4" transform="matrix(.9842 .2989 -.2299 .968 -3.55 -19.7)"/><use xlink:href="#D" width="14" height="54.4" transform="matrix(.717 -.8835 .3139 .5241 -18.6 -22.5)"/><use xlink:href="#E" width="9.8" height="14.1" transform="matrix(.7341 -.1315 .0267 .9476 -2.55 -29.05)"/><use xlink:href="#F" width="9.4" height="11.8" transform="matrix(.9569 .004 .0362 .9509 -4.15 -39)"/><use xlink:href="#G" width="2.7" height="5.3" transform="matrix(-.8853 .1809 .1835 .8221 7.7 -25.45)"/><use xlink:href="#S" width="5" height="9.5" transform="matrix(-.7643 .5488 .169 .4894 8.3 -27.45)"/><use xlink:href="#G" width="2.7" height="5.3" transform="matrix(.9415 -.3247 .4322 .9051 -5.1 -16.35)"/><use xlink:href="#S" width="5" height="9.5" transform="matrix(1.0002 .0221 .0451 .8399 -7.1 -21.9)"/><use xlink:href="#B" width="3.1" height="8.2" transform="matrix(-.9121 .0919 -.0605 .87 -1.5 -27.45)"/></g></g><g clip-path="url(#T)"><g transform="translate(51.35 43.55)"><use xlink:href="#x" width="14.7" height="4.3" transform="matrix(.8 0 0 .8 -5.4 -1.8)"/><use xlink:href="#y" width="6.4" height="3.7" transform="matrix(-.5649 -.0376 -.0124 .9089 .35 -6.15)"/><use xlink:href="#z" width="3.4" height="8" transform="matrix(-.8464 -.1427 -.1257 .767 1.25 -11)"/><use xlink:href="#A" width="5.3" height="11.2" transform="matrix(.9953 .0443 .0312 .7795 -3.4 -18.95)"/><use xlink:href="#B" width="3.1" height="8.2" transform="matrix(.8732 -.259 .2276 .6773 3.25 -28.55)"/><use xlink:href="#y" width="6.4" height="3.7" transform="matrix(.9718 .2343 -.3708 .9277 -1.25 .6)"/><use xlink:href="#z" width="3.4" height="8" transform="matrix(.9114 .3513 -.1272 .9911 -.55 -6.55)"/><use xlink:href="#A" width="5.3" height="11.2" transform="matrix(-1.0015 -.0922 -.179 .963 5.8 -15.15)"/><use xlink:href="#C" width="10.1" height="8.4" transform="matrix(.9899 .275 -.208 .9727 -3.6 -19.8)"/><use xlink:href="#D" width="14" height="54.4" transform="matrix(.7507 -.8524 .2917 .5358 -18.55 -23.75)"/><use xlink:href="#E" width="9.8" height="14.1" transform="matrix(.7565 -.1235 .0217 .952 -2.7 -29.45)"/><use xlink:href="#F" width="9.4" height="11.8" transform="matrix(.9567 .0004 .0335 .9512 -4.1 -39.25)"/><use xlink:href="#G" width="2.7" height="5.3" transform="matrix(-.8481 .1651 .1305 .7561 7.35 -25.45)"/><use xlink:href="#S" width="5" height="9.5" transform="matrix(-.7771 .5207 .1629 .5074 8.35 -27.35)"/><use xlink:href="#G" width="2.7" height="5.3" transform="matrix(.9361 -.3375 .4272 .9038 -5.35 -16.65)"/><use xlink:href="#S" width="5" height="9.5" transform="matrix(.9987 .0098 .0385 .8612 -7.25 -22.25)"/><use xlink:href="#B" width="3.1" height="8.2" transform="matrix(-.9225 .0689 -.0649 .8719 -1.8 -27.85)"/></g></g><g clip-path="url(#U)"><g transform="translate(82.35 43.55)"><use xlink:href="#x" width="14.7" height="4.3" transform="matrix(.8 0 0 .8 -5.4 -1.8)"/><use xlink:href="#y" width="6.4" height="3.7" transform="matrix(-.5765 -.0407 -.0128 .9143 .35 -5.9)"/><use xlink:href="#z" width="3.4" height="8" transform="matrix(-.86 -.1211 -.1173 .7832 1.25 -10.95)"/><use xlink:href="#A" width="5.3" height="11.2" transform="matrix(.9804 .005 .0512 .7777 -3.6 -18.8)"/><use xlink:href="#B" width="3.1" height="8.2" transform="matrix(.888 -.2466 .2139 .6988 3.3 -28.8)"/><use xlink:href="#y" width="6.4" height="3.7" transform="matrix(.888 .4587 -.52 .8291 -.6 -.65)"/><use xlink:href="#z" width="3.4" height="8" transform="matrix(.9227 .3226 -.1115 .972 -.4 -7.3)"/><use xlink:href="#A" width="5.3" height="11.2" transform="matrix(-1.0061 -.0576 -.1429 .9505 5.7 -15.7)"/><use xlink:href="#C" width="10.1" height="8.4" transform="matrix(.9964 .2495 -.1906 .9768 -3.7 -19.85)"/><use xlink:href="#D" width="14" height="54.4" transform="matrix(.784 -.8218 .2684 .5479 -18.55 -25.05)"/><use xlink:href="#E" width="9.8" height="14.1" transform="matrix(.7795 -.1138 .0213 .9563 -2.9 -29.9)"/><use xlink:href="#F" width="9.4" height="11.8" transform="matrix(.9565 -.0002 .0299 .9516 -4.15 -39.55)"/><use xlink:href="#G" width="2.7" height="5.3" transform="matrix(-.8112 .1505 .0851 .6875 7.1 -25.3)"/><use xlink:href="#S" width="5" height="9.5" transform="matrix(-.791 .4915 .1564 .5259 8.45 -27.25)"/><use xlink:href="#G" width="2.7" height="5.3" transform="matrix(.9303 -.3536 .4225 .9037 -5.55 -16.95)"/><use xlink:href="#S" width="5" height="9.5" transform="matrix(.9971 .001 .0352 .8825 -7.45 -22.7)"/><use xlink:href="#B" width="3.1" height="8.2" transform="matrix(-.9325 .0454 -.069 .8739 -2 -28.25)"/></g></g><g clip-path="url(#V)"><g transform="translate(113.35 43.55)"><use xlink:href="#x" width="14.7" height="4.3" transform="matrix(.8 0 0 .8 -5.4 -1.8)"/><use xlink:href="#y" width="6.4" height="3.7" transform="matrix(-.588 -.0439 -.0162 .9196 .45 -5.65)"/><use xlink:href="#z" width="3.4" height="8" transform="matrix(-.8733 -.0961 -.1058 .7997 1.25 -10.8)"/><use xlink:href="#A" width="5.3" height="11.2" transform="matrix(.9638 -.0299 .0686 .7756 -3.75 -18.65)"/><use xlink:href="#B" width="3.1" height="8.2" transform="matrix(.9026 -.2338 .197 .7207 3.45 -29.1)"/><use xlink:href="#y" width="6.4" height="3.7" transform="matrix(.7533 .657 -.6488 .7056 .15 -1.75)"/><use xlink:href="#z" width="3.4" height="8" transform="matrix(.934 .2905 -.0963 .9526 -.15 -8.05)"/><use xlink:href="#A" width="5.3" height="11.2" transform="matrix(-1.0095 -.0229 -.111 .9363 5.65 -16.35)"/><use xlink:href="#C" width="10.1" height="8.4" transform="matrix(1.0015 .2272 -.1731 .9805 -3.85 -20.05)"/><use xlink:href="#D" width="14" height="54.4" transform="matrix(.8186 -.7872 .2464 .5581 -18.55 -26.35)"/><use xlink:href="#E" width="9.8" height="14.1" transform="matrix(.802 -.1061 .0177 .9608 -2.95 -30.3)"/><use xlink:href="#F" width="9.4" height="11.8" transform="matrix(.9564 -.0008 .0294 .9519 -4.2 -39.8)"/><use xlink:href="#G" width="2.7" height="5.3" transform="matrix(-.7746 .1368 .0488 .6164 6.8 -25.25)"/><use xlink:href="#S" width="5" height="9.5" transform="matrix(-.8025 .4646 .151 .5438 8.55 -27.1)"/><use xlink:href="#G" width="2.7" height="5.3" transform="matrix(.9251 -.3705 .4192 .9044 -5.8 -17.3)"/><use xlink:href="#S" width="5" height="9.5" transform="matrix(.9954 -.0052 .032 .9038 -7.65 -23.1)"/><use xlink:href="#B" width="3.1" height="8.2" transform="matrix(-.942 .0215 -.0732 .8758 -2.25 -28.55)"/></g></g><g clip-path="url(#W)"><g transform="translate(144.35 43.55)"><use xlink:href="#x" width="14.7" height="4.3" transform="matrix(.8 0 0 .8 -5.4 -1.8)"/><use xlink:href="#y" width="6.4" height="3.7" transform="matrix(-.5997 -.0452 -.0165 .925 .5 -5.35)"/><use xlink:href="#z" width="3.4" height="8" transform="matrix(-.8859 -.0703 -.0937 .816 1.25 -10.7)"/><use xlink:href="#A" width="5.3" height="11.2" transform="matrix(.9458 -.0667 .0885 .7728 -3.95 -18.45)"/><use xlink:href="#B" width="3.1" height="8.2" transform="matrix(.917 -.2205 .1788 .7422 3.5 -29.35)"/><use xlink:href="#y" width="6.4" height="3.7" transform="matrix(.5781 .816 -.7487 .566 .95 -2.85)"/><use xlink:href="#z" width="3.4" height="8" transform="matrix(.9441 .258 -.0785 .9332 0 -8.7)"/><use xlink:href="#A" width="5.3" height="11.2" transform="matrix(-1.0117 .0054 -.077 .9213 5.5 -16.95)"/><use xlink:href="#C" width="10.1" height="8.4" transform="matrix(1.0067 .2015 -.1523 .9844 -4 -20.2)"/><use xlink:href="#D" width="14" height="54.4" transform="matrix(.8492 -.754 .224 .5675 -18.55 -27.55)"/><use xlink:href="#E" width="9.8" height="14.1" transform="matrix(.8244 -.0977 .0172 .9651 -3.15 -30.75)"/><use xlink:href="#F" width="9.4" height="11.8" transform="matrix(.9562 -.0046 .0258 .9523 -4.3 -40.1)"/><use xlink:href="#G" width="2.7" height="5.3" transform="matrix(-.7841 .097 .0255 .6311 6.95 -24.85)"/><use xlink:href="#S" width="5" height="9.5" transform="matrix(-.8144 .4348 .1432 .5621 8.5 -27.05)"/><use xlink:href="#G" width="2.7" height="5.3" transform="matrix(.932 -.3585 .3849 .9147 -6.1 -17.7)"/><use xlink:href="#S" width="5" height="9.5" transform="matrix(.9934 -.0009 .0122 .9226 -7.9 -23.55)"/><use xlink:href="#B" width="3.1" height="8.2" transform="matrix(-.9508 .0002 -.0774 .8778 -2.6 -29)"/></g></g><g clip-path="url(#X)"><g transform="translate(175.35 43.55)"><use xlink:href="#x" width="14.7" height="4.3" transform="matrix(.8 0 0 .8 -5.4 -1.8)"/><use xlink:href="#y" width="6.4" height="3.7" transform="matrix(-.6113 -.0485 -.0169 .9304 .5 -5.1)"/><use xlink:href="#z" width="3.4" height="8" transform="matrix(-.8977 -.0439 -.0839 .8319 1.25 -10.55)"/><use xlink:href="#A" width="5.3" height="11.2" transform="matrix(.9264 -.1021 .1083 .7695 -4.15 -18.35)"/><use xlink:href="#B" width="3.1" height="8.2" transform="matrix(.9312 -.2068 .1596 .7632 3.6 -29.5)"/><use xlink:href="#y" width="6.4" height="3.7" transform="matrix(.3676 .931 -.8216 .4112 1.75 -3.75)"/><use xlink:href="#z" width="3.4" height="8" transform="matrix(.9532 .2251 -.0645 .9132 .15 -9.45)"/><use xlink:href="#A" width="5.3" height="11.2" transform="matrix(-1.0126 .0404 -.0443 .9051 5.5 -17.55)"/><use xlink:href="#C" width="10.1" height="8.4" transform="matrix(1.0107 .179 -.1346 .9875 -4.05 -20.25)"/><use xlink:href="#D" width="14" height="54.4" transform="matrix(.8808 -.7167 .1994 .5766 -18.45 -28.75)"/><use xlink:href="#E" width="9.8" height="14.1" transform="matrix(.847 -.086 .0135 .9695 -3.25 -31.15)"/><use xlink:href="#F" width="9.4" height="11.8" transform="matrix(.956 -.0052 .0253 .9526 -4.35 -40.4)"/><use xlink:href="#G" width="2.7" height="5.3" transform="matrix(-.7918 .0593 .0034 .645 7.1 -24.5)"/><use xlink:href="#S" width="5" height="9.5" transform="matrix(-.8239 .4075 .1346 .5804 8.65 -26.9)"/><use xlink:href="#G" width="2.7" height="5.3" transform="matrix(.9396 -.3472 .3518 .9245 -6.6 -18.05)"/><use xlink:href="#S" width="5" height="9.5" transform="matrix(.9914 -.0005 -.0049 .941 -8.1 -24.1)"/><use xlink:href="#B" width="3.1" height="8.2" transform="matrix(-.959 -.0214 -.0816 .8797 -2.85 -29.45)"/></g></g><g clip-path="url(#Y)"><g transform="translate(206.35 43.55)"><use xlink:href="#x" width="14.7" height="4.3" transform="matrix(.8 0 0 .8 -5.4 -1.8)"/><use xlink:href="#y" width="6.4" height="3.7" transform="matrix(-.6227 -.0519 -.0173 .9357 .65 -4.8)"/><use xlink:href="#z" width="3.4" height="8" transform="matrix(-.9087 -.0199 -.0709 .8479 1.2 -10.55)"/><use xlink:href="#A" width="5.3" height="11.2" transform="matrix(.9057 -.1361 .1255 .7661 -4.35 -18.2)"/><use xlink:href="#B" width="3.1" height="8.2" transform="matrix(.9457 -.1932 .1422 .7837 3.65 -29.75)"/><use xlink:href="#y" width="6.4" height="3.7" transform="matrix(.1377 .9929 -.8637 .2527 2.55 -4.55)"/><use xlink:href="#z" width="3.4" height="8" transform="matrix(.9611 .1919 -.0509 .8931 .3 -10.1)"/><use xlink:href="#A" width="5.3" height="11.2" transform="matrix(-1.0124 .0755 -.0157 .8877 5.4 -18.2)"/><use xlink:href="#C" width="10.1" height="8.4" transform="matrix(1.0142 .1564 -.1137 .9906 -4.2 -20.45)"/><use xlink:href="#D" width="14" height="54.4" transform="matrix(.9087 -.6811 .1763 .5841 -18.4 -29.95)"/><use xlink:href="#E" width="9.8" height="14.1" transform="matrix(.8692 -.0764 .013 .9738 -3.5 -31.55)"/><use xlink:href="#F" width="9.4" height="11.8" transform="matrix(.9558 -.0089 .0217 .9529 -4.4 -40.7)"/><use xlink:href="#G" width="2.7" height="5.3" transform="matrix(-.7977 .0211 -.0174 .6581 7.25 -24.2)"/><use xlink:href="#S" width="5" height="9.5" transform="matrix(-.8338 .3772 .1273 .5981 8.75 -26.9)"/><use xlink:href="#G" width="2.7" height="5.3" transform="matrix(.9481 -.3326 .3215 .9321 -6.95 -18.45)"/><use xlink:href="#S" width="5" height="9.5" transform="matrix(.9894 -.0001 -.0259 .959 -8.4 -24.5)"/><use xlink:href="#B" width="3.1" height="8.2" transform="matrix(-.9667 -.0472 -.0886 .8817 -3.1 -29.8)"/></g></g><g clip-path="url(#Z)"><g transform="translate(237.35 43.55)"><use xlink:href="#x" width="14.7" height="4.3" transform="matrix(.8 0 0 .8 -5.4 -1.8)"/><use xlink:href="#y" width="6.4" height="3.7" transform="matrix(-.6344 -.0534 -.0208 .941 .7 -4.55)"/><use xlink:href="#z" width="3.4" height="8" transform="matrix(-.919 .0047 -.0573 .8637 1.2 -10.35)"/><use xlink:href="#A" width="5.3" height="11.2" transform="matrix(.8838 -.1687 .1451 .7619 -4.45 -18.1)"/><use xlink:href="#B" width="3.1" height="8.2" transform="matrix(.9457 -.1932 .1422 .7837 3.65 -29.75)"/><use xlink:href="#y" width="6.4" height="3.7" transform="matrix(.1403 .9912 -.8655 .2368 2.95 -5.7)"/><use xlink:href="#z" width="3.4" height="8" transform="matrix(.9678 .1585 -.0351 .8729 .5 -10.85)"/><use xlink:href="#A" width="5.3" height="11.2" transform="matrix(-1.0113 .1073 .0118 .8693 5.25 -18.75)"/><use xlink:href="#C" width="10.1" height="8.4" transform="matrix(1.0176 .1304 -.0959 .993 -4.3 -20.55)"/><use xlink:href="#D" width="14" height="54.4" transform="matrix(.935 -.6444 .153 .5907 -18.3 -31.15)"/><use xlink:href="#E" width="9.8" height="14.1" transform="matrix(.8916 -.0633 .0093 .9782 -3.65 -31.95)"/><use xlink:href="#F" width="9.4" height="11.8" transform="matrix(.9556 -.0126 .0212 .9532 -4.4 -40.95)"/><use xlink:href="#G" width="2.7" height="5.3" transform="matrix(-.8016 -.0148 -.0413 .6704 7.4 -23.8)"/><use xlink:href="#S" width="5" height="9.5" transform="matrix(-.8414 .3496 .1174 .6162 8.8 -26.75)"/><use xlink:href="#G" width="2.7" height="5.3" transform="matrix(.9554 -.321 .288 .9397 -7.35 -18.9)"/><use xlink:href="#S" width="5" height="9.5" transform="matrix(.9874 .0004 -.0477 .9764 -8.7 -25.05)"/><use xlink:href="#B" width="3.1" height="8.2" transform="matrix(-.968 -.064 -.0992 .9012 -3.05 -30.2)"/></g></g><g clip-path="url(#aa)"><g transform="translate(268.35 43.55)"><use xlink:href="#x" width="14.7" height="4.3" transform="matrix(.8 0 0 .8 -5.4 -1.8)"/><use xlink:href="#y" width="6.4" height="3.7" transform="matrix(-.6459 -.0569 -.0212 .9464 .75 -4.3)"/><use xlink:href="#z" width="3.4" height="8" transform="matrix(-.9283 .033 -.0461 .8792 1.25 -10.3)"/><use xlink:href="#A" width="5.3" height="11.2" transform="matrix(.8608 -.1998 .1646 .7571 -4.7 -17.95)"/><use xlink:href="#B" width="3.1" height="8.2" transform="matrix(.9457 -.1932 .1422 .7837 3.65 -29.75)"/><use xlink:href="#y" width="6.4" height="3.7" transform="matrix(.1481 .9892 -.8677 .2214 3.25 -6.85)"/><use xlink:href="#z" width="3.4" height="8" transform="matrix(.9734 .1248 -.0228 .8524 .7 -11.55)"/><use xlink:href="#A" width="5.3" height="11.2" transform="matrix(-1.0087 .1424 .0409 .8498 5.25 -19.45)"/><use xlink:href="#C" width="10.1" height="8.4" transform="matrix(1.02 .1077 -.0749 .9953 -4.35 -20.65)"/><use xlink:href="#D" width="14" height="54.4" transform="matrix(.9619 -.6036 .1275 .5968 -18.15 -32.3)"/><use xlink:href="#E" width="9.8" height="14.1" transform="matrix(.9136 -.0524 .0088 .9826 -3.8 -32.5)"/><use xlink:href="#F" width="9.4" height="11.8" transform="matrix(.9554 -.0132 .0176 .9536 -4.5 -41.25)"/><use xlink:href="#G" width="2.7" height="5.3" transform="matrix(-.8035 -.0564 -.066 .6817 7.55 -23.35)"/><use xlink:href="#S" width="5" height="9.5" transform="matrix(-.8481 .3218 .1067 .6341 8.85 -26.65)"/><use xlink:href="#G" width="2.7" height="5.3" transform="matrix(.9625 -.3093 .2544 .946 -7.8 -19.25)"/><use xlink:href="#S" width="5" height="9.5" transform="matrix(.9853 .0007 -.0702 .9934 -8.95 -25.45)"/><use xlink:href="#B" width="3.1" height="8.2" transform="matrix(-.9691 -.0814 -.11 .9209 -3.15 -30.65)"/></g></g><g clip-path="url(#ab)"><g transform="translate(299.35 43.55)"><use xlink:href="#x" width="14.7" height="4.3" transform="matrix(.8 0 0 .8 -5.4 -1.8)"/><use xlink:href="#y" width="6.4" height="3.7" transform="matrix(-.6574 -.0606 -.0217 .9518 .85 -4.1)"/><use xlink:href="#z" width="3.4" height="8" transform="matrix(-.9368 .0617 -.0316 .8946 1.15 -10.2)"/><use xlink:href="#A" width="5.3" height="11.2" transform="matrix(.8367 -.232 .1831 .7527 -4.9 -17.8)"/><use xlink:href="#y" width="6.4" height="3.7" transform="matrix(.1525 .9876 -.8688 .2089 3.6 -7.9)"/><use xlink:href="#z" width="3.4" height="8" transform="matrix(.9778 .0909 -.011 .8316 .9 -12.3)"/><use xlink:href="#A" width="5.3" height="11.2" transform="matrix(-1.005 .1775 .066 .8297 5.15 -20.05)"/><use xlink:href="#C" width="10.1" height="8.4" transform="matrix(1.0222 .0815 -.057 .9969 -4.5 -20.8)"/><use xlink:href="#D" width="14" height="54.4" transform="matrix(.986 -.5665 .1046 .6016 -18.05 -33.45)"/><use xlink:href="#E" width="9.8" height="14.1" transform="matrix(.9354 -.041 .005 .987 -3.85 -32.8)"/><use xlink:href="#F" width="9.4" height="11.8" transform="matrix(.9552 -.017 .0171 .9539 -4.55 -41.45)"/><use xlink:href="#G" width="2.7" height="5.3" transform="matrix(-.8035 -.0956 -.0916 .6922 7.75 -23)"/><use xlink:href="#S" width="5" height="9.5" transform="matrix(-.8548 .2911 .0975 .6515 8.95 -26.5)"/><use xlink:href="#B" width="3.1" height="8.2" transform="matrix(.9631 -.157 .0427 .8062 4.1 -30.95)"/><use xlink:href="#G" width="2.7" height="5.3" transform="matrix(.9698 -.2997 .2234 .9513 -8.1 -19.6)"/><use xlink:href="#S" width="5" height="9.5" transform="matrix(.9833 .0047 -.0956 1.0099 -9.2 -25.9)"/><use xlink:href="#B" width="3.1" height="8.2" transform="matrix(-.9695 -.1021 -.1242 .94 -3.05 -30.95)"/></g></g><g clip-path="url(#ac)"><g transform="translate(330.35 43.55)"><use xlink:href="#x" width="14.7" height="4.3" transform="matrix(.8 0 0 .8 -5.4 -1.8)"/><use xlink:href="#y" width="6.4" height="3.7" transform="matrix(-.669 -.0622 -.0252 .957 .95 -3.85)"/><use xlink:href="#z" width="3.4" height="8" transform="matrix(-.9444 .0911 -.0165 .9097 1.15 -10.15)"/><use xlink:href="#A" width="5.3" height="11.2" transform="matrix(.8664 -.2046 .1874 .7914 -5.15 -18)"/><use xlink:href="#y" width="6.4" height="3.7" transform="matrix(.157 .986 -.8705 .1936 4.05 -9.05)"/><use xlink:href="#z" width="3.4" height="8" transform="matrix(.9808 .0601 .0002 .8107 1.05 -13)"/><use xlink:href="#A" width="5.3" height="11.2" transform="matrix(-1.0006 .2093 .0925 .8085 5.1 -20.65)"/><use xlink:href="#C" width="10.1" height="8.4" transform="matrix(1.0235 .0588 -.0359 .9984 -4.65 -20.95)"/><use xlink:href="#D" width="14" height="54.4" transform="matrix(.9995 -.5388 .088 .6039 -17.55 -34)"/><use xlink:href="#E" width="9.8" height="14.1" transform="matrix(.9572 -.0259 .0044 .9913 -4.05 -33.3)"/><use xlink:href="#F" width="9.4" height="11.8" transform="matrix(.955 -.0175 .0135 .9542 -4.6 -41.75)"/><use xlink:href="#G" width="2.7" height="5.3" transform="matrix(-.8016 -.1349 -.118 .7016 7.8 -22.65)"/><use xlink:href="#S" width="5" height="9.5" transform="matrix(-.8596 .2633 .0854 .669 9 -26.4)"/><use xlink:href="#B" width="3.1" height="8.2" transform="matrix(.9664 -.1498 .0365 .8259 4.05 -30.95)"/><use xlink:href="#G" width="2.7" height="5.3" transform="matrix(.97 -.2741 .2018 .9478 -8.3 -20.15)"/><use xlink:href="#S" width="5" height="9.5" transform="matrix(.9819 .0346 -.1183 .9582 -9.3 -26.05)"/><use xlink:href="#B" width="3.1" height="8.2" transform="matrix(-.9698 -.1196 -.1358 .9594 -3.1 -31.25)"/></g></g><g clip-path="url(#ad)"><g transform="translate(361.35 43.55)"><use xlink:href="#x" width="14.7" height="4.3" transform="matrix(.8 0 0 .8 -5.4 -1.8)"/><use xlink:href="#y" width="6.4" height="3.7" transform="matrix(-.6805 -.066 -.0257 .9624 1.05 -3.65)"/><use xlink:href="#z" width="3.4" height="8" transform="matrix(-.9515 .1178 -.001 .9246 1.05 -10)"/><use xlink:href="#A" width="5.3" height="11.2" transform="matrix(.8961 -.1752 .1958 .8296 -5.3 -18.15)"/><use xlink:href="#y" width="6.4" height="3.7" transform="matrix(.1614 .9844 -.8719 .1783 4.4 -10.2)"/><use xlink:href="#z" width="3.4" height="8" transform="matrix(.983 .026 .0108 .7896 1.25 -13.7)"/><use xlink:href="#A" width="5.3" height="11.2" transform="matrix(-.9946 .2441 .1176 .7865 4.95 -21.3)"/><use xlink:href="#C" width="10.1" height="8.4" transform="matrix(1.0243 .0359 -.018 .9993 -4.8 -20.95)"/><use xlink:href="#D" width="14" height="54.4" transform="matrix(1.0133 -.5124 .0721 .606 -17.25 -34.35)"/><use xlink:href="#E" width="9.8" height="14.1" transform="matrix(.9787 -.0132 .0006 .9957 -4.15 -33.7)"/><use xlink:href="#F" width="9.4" height="11.8" transform="matrix(.9547 -.0213 .013 .9545 -4.65 -42.05)"/><use xlink:href="#G" width="2.7" height="5.3" transform="matrix(-.7972 -.1769 -.1452 .7101 8 -22.3)"/><use xlink:href="#S" width="5" height="9.5" transform="matrix(-.8643 .2325 .0727 .6864 9.05 -26.3)"/><use xlink:href="#B" width="3.1" height="8.2" transform="matrix(.9698 -.1457 .0303 .8456 3.9 -30.95)"/><use xlink:href="#G" width="2.7" height="5.3" transform="matrix(.9706 -.2478 .1799 .9446 -8.45 -20.75)"/><use xlink:href="#S" width="5" height="9.5" transform="matrix(.9795 .0647 -.14 .9061 -9.3 -26.25)"/><use xlink:href="#B" width="3.1" height="8.2" transform="matrix(-.9699 -.1372 -.151 .9782 -3.2 -31.75)"/></g></g><g clip-path="url(#ae)"><g transform="translate(392.35 43.55)"><use xlink:href="#x" width="14.7" height="4.3" transform="matrix(.8 0 0 .8 -5.4 -1.8)"/><use xlink:href="#y" width="6.4" height="3.7" transform="matrix(-.6919 -.0699 -.0262 .9678 1 -3.3)"/><use xlink:href="#z" width="3.4" height="8" transform="matrix(-.9573 .1481 .009 .9393 1.1 -9.9)"/><use xlink:href="#A" width="5.3" height="11.2" transform="matrix(.9243 -.1467 .2013 .8686 -5.4 -18.25)"/><use xlink:href="#y" width="6.4" height="3.7" transform="matrix(.1697 .9826 -.8729 .1661 4.8 -11.3)"/><use xlink:href="#z" width="3.4" height="8" transform="matrix(.9839 -.0068 .0233 .7684 1.5 -14.4)"/><use xlink:href="#A" width="5.3" height="11.2" transform="matrix(-.988 .2795 .1404 .7644 4.9 -21.9)"/><use xlink:href="#C" width="10.1" height="8.4" transform="matrix(1.0247 .0123 0 1 -4.85 -21.15)"/><use xlink:href="#D" width="14" height="54.4" transform="matrix(1.0263 -.4857 .0563 .6077 -16.85 -34.85)"/><use xlink:href="#E" width="9.8" height="14.1" transform="translate(-4.35 -34.15)"/><use xlink:href="#F" width="9.4" height="11.8" transform="matrix(.9545 -.0251 .0126 .9548 -4.8 -42.35)"/><use xlink:href="#G" width="2.7" height="5.3" transform="matrix(-.7917 -.217 -.1752 .7175 8.1 -21.85)"/><use xlink:href="#S" width="5" height="9.5" transform="matrix(-.8677 .2053 .0616 .7034 9.15 -26.2)"/><use xlink:href="#B" width="3.1" height="8.2" transform="matrix(.9731 -.1417 .0266 .8652 3.75 -30.9)"/><use xlink:href="#G" width="2.7" height="5.3" transform="matrix(.9699 -.2247 .1582 .9409 -8.65 -21.4)"/><use xlink:href="#S" width="5" height="9.5" transform="matrix(.9763 .0947 -.1587 .8535 -9.4 -26.25)"/><use xlink:href="#B" width="3.1" height="8.2" transform="matrix(-.9696 -.1584 -.1658 .9974 -3.15 -32.1)"/></g></g><g clip-path="url(#af)"><g transform="translate(423.35 43.55)"><use xlink:href="#x" width="14.7" height="4.3" transform="matrix(.8 0 0 .8 -5.4 -1.8)"/><use xlink:href="#y" width="6.4" height="3.7" transform="matrix(-.7035 -.0716 -.0298 .9731 1.1 -3.05)"/><use xlink:href="#z" width="3.4" height="8" transform="matrix(-.9621 .179 .0255 .9536 1.1 -9.85)"/><use xlink:href="#A" width="5.3" height="11.2" transform="matrix(.9519 -.1134 .2065 .9076 -5.6 -18.5)"/><use xlink:href="#y" width="6.4" height="3.7" transform="matrix(.1697 .9826 -.8729 .1661 4.8 -11.3)"/><use xlink:href="#z" width="3.4" height="8" transform="matrix(.9839 -.0068 .0233 .7684 1.5 -14.4)"/><use xlink:href="#A" width="5.3" height="11.2" transform="matrix(-.988 .2795 .1404 .7644 4.9 -21.9)"/><use xlink:href="#C" width="10.1" height="8.4" transform="matrix(1.0244 -.0095 .0184 .9996 -5.05 -20.8)"/><use xlink:href="#D" width="14" height="54.4" transform="matrix(1.0387 -.4587 .0404 .6089 -16.5 -35.25)"/><use xlink:href="#E" width="9.8" height="14.1" transform="matrix(.9893 .0223 -.0046 1.0071 -4.35 -34)"/><use xlink:href="#F" width="9.4" height="11.8" transform="matrix(.9547 -.0259 .009 .9546 -4.8 -42)"/><use xlink:href="#G" width="2.7" height="5.3" transform="matrix(-.8279 -.1695 -.1413 .7395 7.85 -21.65)"/><use xlink:href="#S" width="5" height="9.5" transform="matrix(-.8836 .2249 .069 .7085 8.85 -25.95)"/><use xlink:href="#B" width="3.1" height="8.2" transform="matrix(.9765 -.1376 .0198 .8849 3.65 -30.95)"/><use xlink:href="#G" width="2.7" height="5.3" transform="matrix(.9686 -.2018 .1368 .9367 -8.8 -21.9)"/><use xlink:href="#S" width="5" height="9.5" transform="matrix(.9721 .1245 -.1743 .8008 -9.5 -26.4)"/><use xlink:href="#B" width="3.1" height="8.2" transform="matrix(-.9696 -.1584 -.1658 .9974 -3.15 -32.1)"/></g></g><g clip-path="url(#ag)"><g transform="translate(454.35 43.55)"><use xlink:href="#x" width="14.7" height="4.3" transform="matrix(.8 0 0 .8 -5.4 -1.8)"/><use xlink:href="#y" width="6.4" height="3.7" transform="matrix(-.7149 -.0756 -.0303 .9785 1.2 -2.85)"/><use xlink:href="#z" width="3.4" height="8" transform="matrix(-.9659 .2102 .0424 .9677 1 -9.75)"/><use xlink:href="#A" width="5.3" height="11.2" transform="matrix(.978 -.0814 .2144 .946 -5.75 -18.65)"/><use xlink:href="#y" width="6.4" height="3.7" transform="matrix(.1697 .9826 -.8729 .1661 4.8 -11.3)"/><use xlink:href="#z" width="3.4" height="8" transform="matrix(.9839 -.0068 .0233 .7684 1.5 -14.4)"/><use xlink:href="#A" width="5.3" height="11.2" transform="matrix(-.988 .2795 .1404 .7644 4.9 -21.9)"/><use xlink:href="#C" width="10.1" height="8.4" transform="matrix(1.0235 -.0321 .04 .9987 -5.2 -20.45)"/><use xlink:href="#D" width="14" height="54.4" transform="matrix(1.0503 -.4313 .0244 .6098 -16.1 -35.65)"/><use xlink:href="#E" width="9.8" height="14.1" transform="matrix(.9779 .0473 -.0092 1.0142 -4.3 -33.85)"/><use xlink:href="#F" width="9.4" height="11.8" transform="matrix(.9548 -.03 .0085 .9545 -4.85 -41.7)"/><use xlink:href="#G" width="2.7" height="5.3" transform="matrix(-.8613 -.1217 -.1077 .7601 7.55 -21.55)"/><use xlink:href="#S" width="5" height="9.5" transform="matrix(-.8996 .2458 .0788 .7134 8.6 -25.85)"/><use xlink:href="#B" width="3.1" height="8.2" transform="matrix(.9797 -.1336 .0127 .9045 3.5 -30.95)"/><use xlink:href="#G" width="2.7" height="5.3" transform="matrix(.9674 -.1759 .1187 .9317 -9.1 -22.5)"/><use xlink:href="#S" width="5" height="9.5" transform="matrix(.967 .1542 -.1868 .7479 -9.6 -26.6)"/><use xlink:href="#B" width="3.1" height="8.2" transform="matrix(-.9696 -.1584 -.1658 .9974 -3.15 -32.1)"/></g></g><g clip-path="url(#ah)"><g transform="translate(485.35 43.55)"><use xlink:href="#x" width="14.7" height="4.3" transform="matrix(.8 0 0 .8 -5.4 -1.8)"/><use xlink:href="#y" width="6.4" height="3.7" transform="matrix(-.7265 -.0804 -.0329 .9839 1.25 -2.55)"/><use xlink:href="#z" width="3.4" height="8" transform="matrix(-.9695 .242 .0594 .9816 1 -9.7)"/><use xlink:href="#A" width="5.3" height="11.2" transform="matrix(1.0033 -.0462 .2206 .9855 -5.9 -18.75)"/><use xlink:href="#y" width="6.4" height="3.7" transform="matrix(.1237 .4467 -.8651 .0708 4.65 -12.1)"/><use xlink:href="#z" width="3.4" height="8" transform="matrix(1.0069 .0584 .1077 .6716 .3 -16.6)"/><use xlink:href="#A" width="5.3" height="11.2" transform="matrix(-.9536 .5093 .1686 .6677 3.25 -23.1)"/><use xlink:href="#B" width="3.1" height="8.2" transform="matrix(-.8714 -.2711 -.2562 .8868 -2.75 -31.55)"/><use xlink:href="#C" width="10.1" height="8.4" transform="matrix(1.0222 -.0547 .0615 .9974 -5.35 -20.1)"/><use xlink:href="#D" width="14" height="54.4" transform="matrix(1.0612 -.4036 .0085 .6103 -15.8 -36.05)"/><use xlink:href="#E" width="9.8" height="14.1" transform="matrix(.9662 .0686 -.0139 1.0212 -4.3 -33.75)"/><use xlink:href="#F" width="9.4" height="11.8" transform="matrix(.9548 -.034 .0049 .9543 -5 -41.4)"/><use xlink:href="#G" width="2.7" height="5.3" transform="matrix(-.8919 -.0706 -.075 .7789 7.25 -21.35)"/><use xlink:href="#S" width="5" height="9.5" transform="matrix(-.9151 .2674 .0888 .7181 8.3 -25.7)"/><use xlink:href="#B" width="3.1" height="8.2" transform="matrix(.9834 -.1293 .0089 .9241 3.45 -30.9)"/><use xlink:href="#G" width="2.7" height="5.3" transform="matrix(.9653 -.1546 .0991 .9268 -9.25 -23.05)"/><use xlink:href="#S" width="5" height="9.5" transform="matrix(.9609 .187 -.1966 .6956 -9.7 -26.7)"/></g></g><g clip-path="url(#ai)"><g transform="translate(516.35 43.55)"><use xlink:href="#x" width="14.7" height="4.3" transform="matrix(.8 0 0 .8 -5.4 -1.8)"/><use xlink:href="#y" width="6.4" height="3.7" transform="matrix(-.7265 -.0804 -.0329 .9839 1.25 -2.55)"/><use xlink:href="#z" width="3.4" height="8" transform="matrix(-.9695 .242 .0594 .9816 1 -9.7)"/><use xlink:href="#A" width="5.3" height="11.2" transform="matrix(1.0033 -.0462 .2206 .9855 -5.9 -18.75)"/><use xlink:href="#y" width="6.4" height="3.7" transform="matrix(.2829 .3914 -.8163 .3303 3.8 -11.55)"/><use xlink:href="#z" width="3.4" height="8" transform="matrix(.9859 -.0222 .0999 .6839 .15 -15.9)"/><use xlink:href="#A" width="5.3" height="11.2" transform="matrix(-.972 .4444 .1443 .6929 3.3 -22.6)"/><use xlink:href="#B" width="3.1" height="8.2" transform="matrix(-.8416 -.2902 -.2543 .8544 -2.75 -31.4)"/><use xlink:href="#C" width="10.1" height="8.4" transform="matrix(1.0201 -.0805 .0831 .9956 -5.55 -19.65)"/><use xlink:href="#D" width="14" height="54.4" transform="matrix(1.0714 -.3757 -.0055 .6102 -15.45 -36.45)"/><use xlink:href="#E" width="9.8" height="14.1" transform="matrix(.9537 .0925 -.0187 1.0282 -4.3 -33.55)"/><use xlink:href="#F" width="9.4" height="11.8" transform="matrix(.9549 -.038 .0045 .9542 -5 -41.05)"/><use xlink:href="#G" width="2.7" height="5.3" transform="matrix(-.9194 -.0161 -.0383 .7964 6.95 -21.3)"/><use xlink:href="#S" width="5" height="9.5" transform="matrix(-.9301 .2895 .099 .7227 8 -25.45)"/><use xlink:href="#B" width="3.1" height="8.2" transform="matrix(.9794 -.0997 .0008 .9223 3.35 -30.65)"/><use xlink:href="#G" width="2.7" height="5.3" transform="matrix(.959 -.106 .0601 .9149 -9.15 -23.4)"/><use xlink:href="#S" width="5" height="9.5" transform="matrix(.9418 .2397 -.1841 .663 -9.55 -26.9)"/></g></g><g clip-path="url(#aj)"><g transform="translate(547.35 43.55)"><use xlink:href="#x" width="14.7" height="4.3" transform="matrix(.8 0 0 .8 -5.4 -1.8)"/><use xlink:href="#y" width="6.4" height="3.7" transform="matrix(-.7265 -.0804 -.0329 .9839 1.25 -2.55)"/><use xlink:href="#z" width="3.4" height="8" transform="matrix(-.9695 .242 .0594 .9816 1 -9.7)"/><use xlink:href="#A" width="5.3" height="11.2" transform="matrix(1.0033 -.0462 .2206 .9855 -5.9 -18.75)"/><use xlink:href="#y" width="6.4" height="3.7" transform="matrix(.419 .2784 -.6911 .5668 2.95 -10.85)"/><use xlink:href="#z" width="3.4" height="8" transform="matrix(.9581 -.1014 .0951 .6959 .05 -15.1)"/><use xlink:href="#A" width="5.3" height="11.2" transform="matrix(-.9872 .3803 .1173 .7179 3.25 -22.15)"/><use xlink:href="#B" width="3.1" height="8.2" transform="matrix(-.8123 -.3082 -.2559 .8217 -2.65 -31.3)"/><use xlink:href="#C" width="10.1" height="8.4" transform="matrix(1.0177 -.103 .1046 .9933 -5.65 -19.3)"/><use xlink:href="#D" width="14" height="54.4" transform="matrix(1.0809 -.3475 -.0214 .6098 -15.1 -36.85)"/><use xlink:href="#E" width="9.8" height="14.1" transform="matrix(.9406 .1158 -.0236 1.0352 -4.25 -33.45)"/><use xlink:href="#F" width="9.4" height="11.8" transform="matrix(.955 -.0421 .0009 .954 -5 -40.8)"/><use xlink:href="#G" width="2.7" height="5.3" transform="matrix(-.9431 .0415 -.0001 .8122 6.6 -21.15)"/><use xlink:href="#S" width="5" height="9.5" transform="matrix(-.9446 .3123 .1092 .7272 7.75 -25.3)"/><use xlink:href="#B" width="3.1" height="8.2" transform="matrix(.9746 -.0734 -.0006 .9206 3.2 -30.2)"/><use xlink:href="#G" width="2.7" height="5.3" transform="matrix(.9505 -.0626 .0206 .9018 -9.1 -23.9)"/><use xlink:href="#S" width="5" height="9.5" transform="matrix(.9203 .2911 -.1722 .6308 -9.5 -27.1)"/></g></g><g clip-path="url(#ak)"><g transform="translate(578.35 43.55)"><use xlink:href="#x" width="14.7" height="4.3" transform="matrix(.8 0 0 .8 -5.4 -1.8)"/><use xlink:href="#y" width="6.4" height="3.7" transform="matrix(.51 .1184 -.4984 .7584 2 -10.05)"/><use xlink:href="#z" width="3.4" height="8" transform="matrix(.9242 -.1761 .0877 .7082 -.15 -14.45)"/><use xlink:href="#A" width="5.3" height="11.2" transform="matrix(-.9983 .3161 .0884 .7418 3.35 -21.75)"/><use xlink:href="#B" width="3.1" height="8.2" transform="matrix(-.7828 -.3247 -.2567 .7891 -2.75 -31.1)"/><use xlink:href="#y" width="6.4" height="3.7" transform="matrix(-.7954 -.0634 .0224 .993 1.4 -1.5)"/><use xlink:href="#z" width="3.4" height="8" transform="matrix(-.953 .2783 .0787 .9894 .9 -8.7)"/><use xlink:href="#A" width="5.3" height="11.2" transform="matrix(1.0019 -.0658 .2184 .9824 -5.85 -17.6)"/><use xlink:href="#C" width="10.1" height="8.4" transform="matrix(1.0148 -.1254 .1228 .991 -5.85 -19)"/><use xlink:href="#D" width="14" height="54.4" transform="matrix(1.0896 -.3191 -.0373 .6089 -14.65 -37.3)"/><use xlink:href="#E" width="9.8" height="14.1" transform="matrix(.9274 .1354 -.0319 1.0421 -4.25 -33.3)"/><use xlink:href="#F" width="9.4" height="11.8" transform="matrix(.955 -.0461 .0005 .9538 -5.05 -40.4)"/><use xlink:href="#G" width="2.7" height="5.3" transform="matrix(-.9633 .1038 .0392 .826 6.3 -20.95)"/><use xlink:href="#S" width="5" height="9.5" transform="matrix(-.9593 .3369 .1209 .7317 7.4 -25.1)"/><use xlink:href="#B" width="3.1" height="8.2" transform="matrix(.9691 -.0475 -.0049 .9188 3.2 -29.95)"/><use xlink:href="#G" width="2.7" height="5.3" transform="matrix(.9402 -.0172 -.0119 .887 -9 -24.3)"/><use xlink:href="#S" width="5" height="9.5" transform="matrix(.8961 .3408 -.1606 .5986 -9.4 -27.25)"/></g></g><g clip-path="url(#al)"><g transform="translate(609.35 43.55)"><use xlink:href="#x" width="14.7" height="4.3" transform="matrix(.8 0 0 .8 -5.4 -1.8)"/><use xlink:href="#y" width="6.4" height="3.7" transform="matrix(.5397 -.0668 -.2511 .8868 1.3 -9.2)"/><use xlink:href="#z" width="3.4" height="8" transform="matrix(.8846 -.246 .0824 .7202 -.35 -13.75)"/><use xlink:href="#A" width="5.3" height="11.2" transform="matrix(-1.0044 .2553 .0603 .7643 3.4 -21.25)"/><use xlink:href="#B" width="3.1" height="8.2" transform="matrix(-.7541 -.3372 -.2543 .7575 -2.75 -31)"/><use xlink:href="#y" width="6.4" height="3.7" transform="matrix(-.8182 -.0574 .0398 .9954 1.5 -1.15)"/><use xlink:href="#z" width="3.4" height="8" transform="matrix(-.9468 .2899 .0834 .9918 .85 -8.4)"/><use xlink:href="#A" width="5.3" height="11.2" transform="matrix(1.0013 -.0706 .2178 .9809 -5.9 -17.3)"/><use xlink:href="#C" width="10.1" height="8.4" transform="matrix(1.0114 -.1478 .1442 .9879 -6 -18.55)"/><use xlink:href="#D" width="14" height="54.4" transform="matrix(1.0966 -.2941 -.0532 .6076 -14.3 -37.6)"/><use xlink:href="#E" width="9.8" height="14.1" transform="matrix(.9133 .1575 -.0369 1.0491 -4.2 -33.15)"/><use xlink:href="#F" width="9.4" height="11.8" transform="matrix(.955 -.0502 0 .9536 -5.15 -40.15)"/><use xlink:href="#G" width="2.7" height="5.3" transform="matrix(-.9695 .0643 .0005 .8464 6.05 -20.4)"/><use xlink:href="#S" width="5" height="9.5" transform="matrix(-.9654 .3099 .1113 .744 7.3 -24.7)"/><use xlink:href="#B" width="3.1" height="8.2" transform="matrix(.963 -.022 -.0123 .9169 3 -29.7)"/><use xlink:href="#G" width="2.7" height="5.3" transform="matrix(.9278 .0211 -.0462 .8708 -8.9 -24.75)"/><use xlink:href="#S" width="5" height="9.5" transform="matrix(.8693 .3887 -.1492 .5662 -9.35 -27.45)"/></g></g><g clip-path="url(#am)"><g transform="translate(640.35 43.55)"><use xlink:href="#x" width="14.7" height="4.3" transform="matrix(.8 0 0 .8 -5.4 -1.8)"/><use xlink:href="#y" width="6.4" height="3.7" transform="matrix(.4995 -.2608 .0211 .9358 .55 -8.1)"/><use xlink:href="#z" width="3.4" height="8" transform="matrix(.84 -.3106 .0745 .7324 -.45 -12.95)"/><use xlink:href="#A" width="5.3" height="11.2" transform="matrix(-1.0075 .1916 .0278 .7859 3.3 -20.85)"/><use xlink:href="#B" width="3.1" height="8.2" transform="matrix(-.7242 -.3508 -.2536 .7252 -2.9 -30.9)"/><use xlink:href="#y" width="6.4" height="3.7" transform="matrix(-.8411 -.0516 .0612 .9972 1.45 -.75)"/><use xlink:href="#z" width="3.4" height="8" transform="matrix(-.9412 .3019 .092 .9942 .85 -8)"/><use xlink:href="#A" width="5.3" height="11.2" transform="matrix(1.0007 -.0789 .2175 .98 -5.9 -16.95)"/><use xlink:href="#C" width="10.1" height="8.4" transform="matrix(1.0069 -.1733 .1655 .9843 -6.1 -18.3)"/><use xlink:href="#D" width="14" height="54.4" transform="matrix(1.1039 -.2653 -.0691 .606 -13.8 -37.95)"/><use xlink:href="#E" width="9.8" height="14.1" transform="matrix(.8987 .179 -.0419 1.056 -4.15 -33)"/><use xlink:href="#F" width="9.4" height="11.8" transform="matrix(.9552 -.051 -.0004 .9534 -5.2 -39.85)"/><use xlink:href="#G" width="2.7" height="5.3" transform="matrix(-.9743 .0262 -.0348 .865 5.85 -19.8)"/><use xlink:href="#S" width="5" height="9.5" transform="matrix(-.9714 .2841 .1003 .7568 7.15 -24.4)"/><use xlink:href="#B" width="3.1" height="8.2" transform="matrix(.9561 .0001 -.0166 .9151 2.85 -29.3)"/><use xlink:href="#G" width="2.7" height="5.3" transform="matrix(.9132 .0643 -.0792 .8532 -8.8 -25.1)"/><use xlink:href="#S" width="5" height="9.5" transform="matrix(.8385 .4375 -.1364 .5342 -9.2 -27.6)"/></g></g><g clip-path="url(#an)"><g transform="translate(671.35 43.55)"><use xlink:href="#x" width="14.7" height="4.3" transform="matrix(.8 0 0 .8 -5.4 -1.8)"/><use xlink:href="#y" width="6.4" height="3.7" transform="matrix(.3905 -.4347 .3057 .8992 0 -7.1)"/><use xlink:href="#z" width="3.4" height="8" transform="matrix(.7917 -.3705 .0696 .7444 -.55 -12.3)"/><use xlink:href="#A" width="5.3" height="11.2" transform="matrix(-1.007 .1294 -.0042 .806 3.35 -20.45)"/><use xlink:href="#B" width="3.1" height="8.2" transform="matrix(-.6942 -.3629 -.2499 .6938 -2.9 -30.85)"/><use xlink:href="#y" width="6.4" height="3.7" transform="matrix(-.864 -.0454 .0794 .9989 1.5 -.4)"/><use xlink:href="#z" width="3.4" height="8" transform="matrix(-.9355 .3137 .1006 .9965 .8 -7.7)"/><use xlink:href="#A" width="5.3" height="11.2" transform="matrix(1.0003 -.0838 .2173 .9792 -5.9 -16.6)"/><use xlink:href="#C" width="10.1" height="8.4" transform="matrix(1.0025 -.1955 .1867 .9802 -6.3 -17.85)"/><use xlink:href="#D" width="14" height="54.4" transform="matrix(1.1105 -.2363 -.0829 .6041 -13.55 -38.25)"/><use xlink:href="#E" width="9.8" height="14.1" transform="matrix(.8843 .197 -.0471 1.0629 -4.15 -32.8)"/><use xlink:href="#F" width="9.4" height="11.8" transform="matrix(.9553 -.0551 -.0009 .9533 -5.25 -39.55)"/><use xlink:href="#G" width="2.7" height="5.3" transform="matrix(-.9777 -.0089 -.0773 .8817 5.65 -19.3)"/><use xlink:href="#S" width="5" height="9.5" transform="matrix(-.9767 .2582 .0913 .7691 7.15 -23.95)"/><use xlink:href="#B" width="3.1" height="8.2" transform="matrix(.9486 .0249 -.024 .9131 2.8 -28.95)"/><use xlink:href="#G" width="2.7" height="5.3" transform="matrix(.8971 .106 -.1139 .8344 -8.8 -25.5)"/><use xlink:href="#S" width="5" height="9.5" transform="matrix(.8074 .4826 -.1273 .5017 -9.2 -27.85)"/></g></g><g clip-path="url(#ao)"><g transform="translate(702.35 43.55)"><use xlink:href="#x" width="14.7" height="4.3" transform="matrix(.8 0 0 .8 -5.4 -1.8)"/><use xlink:href="#y" width="6.4" height="3.7" transform="matrix(.4792 -.3153 .2102 .9281 -.15 -6.95)"/><use xlink:href="#z" width="3.4" height="8" transform="matrix(.8153 -.3349 .0632 .7605 -.65 -12.15)"/><use xlink:href="#A" width="5.3" height="11.2" transform="matrix(-.9952 .0829 -.0246 .8021 3.55 -20.05)"/><use xlink:href="#B" width="3.1" height="8.2" transform="matrix(-.6641 -.3735 -.2478 .6618 -2.95 -30.7)"/><use xlink:href="#y" width="6.4" height="3.7" transform="matrix(-.8868 -.0388 .1009 .9999 1.55 -.05)"/><use xlink:href="#z" width="3.4" height="8" transform="matrix(-.9296 .3255 .1061 .9991 .85 -7.35)"/><use xlink:href="#A" width="5.3" height="11.2" transform="matrix(.9996 -.092 .2171 .9784 -5.9 -16.25)"/><use xlink:href="#C" width="10.1" height="8.4" transform="matrix(.9976 -.2175 .2079 .9757 -6.45 -17.55)"/><use xlink:href="#D" width="14" height="54.4" transform="matrix(1.1163 -.2072 -.0986 .6017 -13.05 -38.6)"/><use xlink:href="#E" width="9.8" height="14.1" transform="matrix(.8688 .2172 -.0523 1.0697 -4.1 -32.65)"/><use xlink:href="#F" width="9.4" height="11.8" transform="matrix(.9552 -.0591 -.0044 .9531 -5.25 -39.2)"/><use xlink:href="#G" width="2.7" height="5.3" transform="matrix(-.9794 -.0473 -.1186 .8967 5.4 -18.75)"/><use xlink:href="#S" width="5" height="9.5" transform="matrix(-.9814 .2322 .0795 .7815 7.05 -23.6)"/><use xlink:href="#B" width="3.1" height="8.2" transform="matrix(.9404 .0494 -.0283 .9112 2.7 -28.7)"/><use xlink:href="#G" width="2.7" height="5.3" transform="matrix(.8592 .0912 -.0672 .7643 -8.7 -25.45)"/><use xlink:href="#S" width="5" height="9.5" transform="matrix(.8176 .4541 -.1201 .5192 -9.4 -27.75)"/></g></g><g clip-path="url(#ap)"><g transform="translate(733.35 43.55)"><use xlink:href="#x" width="14.7" height="4.3" transform="matrix(.8 0 0 .8 -5.4 -1.8)"/><use xlink:href="#y" width="6.4" height="3.7" transform="matrix(.5347 -.1796 .1123 .9478 -.25 -7)"/><use xlink:href="#z" width="3.4" height="8" transform="matrix(.8373 -.3015 .0549 .777 -.65 -11.9)"/><use xlink:href="#A" width="5.3" height="11.2" transform="matrix(-.9817 .0386 -.0454 .7976 3.7 -19.9)"/><use xlink:href="#B" width="3.1" height="8.2" transform="matrix(-.6341 -.3826 -.2429 .6307 -2.85 -30.6)"/><use xlink:href="#y" width="6.4" height="3.7" transform="matrix(-.9095 -.0319 .1192 1.0008 1.65 .3)"/><use xlink:href="#z" width="3.4" height="8" transform="matrix(-.9236 .3371 .1148 1.0012 .8 -7.15)"/><use xlink:href="#A" width="5.3" height="11.2" transform="matrix(.9991 -.097 .2169 .9775 -5.95 -15.95)"/><use xlink:href="#C" width="10.1" height="8.4" transform="matrix(.9922 -.2394 .2289 .9708 -6.55 -17.2)"/><use xlink:href="#D" width="14" height="54.4" transform="matrix(1.1214 -.178 -.1143 .5988 -12.7 -38.85)"/><use xlink:href="#E" width="9.8" height="14.1" transform="matrix(.8528 .2368 -.0575 1.0766 -4.05 -32.55)"/><use xlink:href="#F" width="9.4" height="11.8" transform="matrix(.9552 -.0632 -.0049 .9529 -5.35 -38.9)"/><use xlink:href="#G" width="2.7" height="5.3" transform="matrix(-.9796 -.086 -.1613 .9096 5.1 -18.2)"/><use xlink:href="#S" width="5" height="9.5" transform="matrix(-.9854 .2061 .0698 .7935 6.95 -23.2)"/><use xlink:href="#B" width="3.1" height="8.2" transform="matrix(.9315 .0735 -.0326 .9093 2.5 -28.35)"/><use xlink:href="#G" width="2.7" height="5.3" transform="matrix(.8212 .0799 -.0277 .6922 -8.6 -25.35)"/><use xlink:href="#S" width="5" height="9.5" transform="matrix(.8292 .4239 -.1121 .5371 -9.35 -27.65)"/></g></g><g clip-path="url(#aq)"><g transform="translate(764.35 43.55)"><use xlink:href="#x" width="14.7" height="4.3" transform="matrix(.8 0 0 .8 -5.4 -1.8)"/><use xlink:href="#y" width="6.4" height="3.7" transform="matrix(.5533 -.039 .0126 .9573 -.3 -7)"/><use xlink:href="#z" width="3.4" height="8" transform="matrix(.8578 -.2667 .0488 .7932 -.7 -11.8)"/><use xlink:href="#A" width="5.3" height="11.2" transform="matrix(-.9662 -.0044 -.0659 .7926 3.85 -19.55)"/><use xlink:href="#B" width="3.1" height="8.2" transform="matrix(-.6044 -.3918 -.2399 .5996 -3 -30.4)"/><use xlink:href="#y" width="6.4" height="3.7" transform="matrix(-.9322 -.0245 .1409 1.0009 1.6 .7)"/><use xlink:href="#z" width="3.4" height="8" transform="matrix(-.9174 .3486 .1236 1.0033 .75 -6.75)"/><use xlink:href="#A" width="5.3" height="11.2" transform="matrix(.9983 -.1052 .2167 .9767 -5.95 -15.55)"/><use xlink:href="#C" width="10.1" height="8.4" transform="matrix(.9861 -.2649 .2496 .9662 -6.7 -16.75)"/><use xlink:href="#D" width="14" height="54.4" transform="matrix(1.126 -.1495 -.1316 .5956 -12.2 -39.3)"/><use xlink:href="#E" width="9.8" height="14.1" transform="matrix(.8375 .2548 -.0667 1.0834 -3.95 -32.4)"/><use xlink:href="#F" width="9.4" height="11.8" transform="matrix(.9553 -.0684 -.0089 .9527 -5.35 -38.55)"/><use xlink:href="#G" width="2.7" height="5.3" transform="matrix(-.9786 -.1253 -.2091 .9204 4.85 -17.65)"/><use xlink:href="#S" width="5" height="9.5" transform="matrix(-.9886 .1833 .06 .8056 6.85 -22.85)"/><use xlink:href="#B" width="3.1" height="8.2" transform="matrix(.9223 .0975 -.0405 .9073 2.45 -28)"/><use xlink:href="#G" width="2.7" height="5.3" transform="matrix(.7831 .0713 .0031 .6181 -8.5 -25.35)"/><use xlink:href="#S" width="5" height="9.5" transform="matrix(.8383 .3961 -.1035 .5548 -9.45 -27.5)"/></g></g><g clip-path="url(#ar)"><g transform="translate(795.35 43.55)"><use xlink:href="#x" width="14.7" height="4.3" transform="matrix(.8 0 0 .8 -5.4 -1.8)"/><use xlink:href="#y" width="6.4" height="3.7" transform="matrix(.5678 -.0403 .013 .9595 -.4 -6.65)"/><use xlink:href="#z" width="3.4" height="8" transform="matrix(.8777 -.2278 .0397 .8094 -.85 -11.55)"/><use xlink:href="#A" width="5.3" height="11.2" transform="matrix(-.9487 -.0459 -.0836 .7874 4.05 -19.2)"/><use xlink:href="#B" width="3.1" height="8.2" transform="matrix(-.6409 -.3859 -.2451 .6371 -2.95 -30.65)"/><use xlink:href="#y" width="6.4" height="3.7" transform="matrix(-.9549 -.0167 .1594 1.0011 1.65 1.05)"/><use xlink:href="#z" width="3.4" height="8" transform="matrix(-.9111 .3601 .1291 1.0058 .75 -6.45)"/><use xlink:href="#A" width="5.3" height="11.2" transform="matrix(.9977 -.1101 .2165 .9758 -5.95 -15.15)"/><use xlink:href="#C" width="10.1" height="8.4" transform="matrix(.996 -.2215 .2079 .9753 -6.5 -17.2)"/><use xlink:href="#D" width="14" height="54.4" transform="matrix(1.127 -.1541 -.1254 .5891 -12.5 -38.85)"/><use xlink:href="#E" width="9.8" height="14.1" transform="matrix(.8528 .2368 -.0575 1.0766 -4.05 -32.6)"/><use xlink:href="#F" width="9.4" height="11.8" transform="matrix(.9552 -.0632 -.0049 .9529 -5.35 -38.85)"/><use xlink:href="#G" width="2.7" height="5.3" transform="matrix(-.9756 -.1638 -.2542 .9287 5.1 -17.1)"/><use xlink:href="#S" width="5" height="9.5" transform="matrix(-.991 .1572 .047 .8175 6.9 -22.45)"/><use xlink:href="#B" width="3.1" height="8.2" transform="matrix(.9122 .1205 -.0477 .8957 2.6 -28.15)"/><use xlink:href="#G" width="2.7" height="5.3" transform="matrix(.7894 .0315 .025 .6309 -8.55 -24.9)"/><use xlink:href="#S" width="5" height="9.5" transform="matrix(.8477 .3654 -.0959 .5721 -9.5 -27.35)"/></g></g><g clip-path="url(#as)"><g transform="translate(826.35 43.55)"><use xlink:href="#x" width="14.7" height="4.3" transform="matrix(.8 0 0 .8 -5.4 -1.8)"/><use xlink:href="#y" width="6.4" height="3.7" transform="matrix(.5823 -.0437 .0134 .9617 -.4 -6.3)"/><use xlink:href="#z" width="3.4" height="8" transform="matrix(.8951 -.1906 .033 .8255 -.85 -11.4)"/><use xlink:href="#A" width="5.3" height="11.2" transform="matrix(-.9294 -.0859 -.1037 .7814 4.25 -18.95)"/><use xlink:href="#B" width="3.1" height="8.2" transform="matrix(-.6793 -.3775 -.2498 .6756 -2.9 -30.75)"/><use xlink:href="#y" width="6.4" height="3.7" transform="matrix(-.9775 -.0086 .1812 1.0004 1.7 1.4)"/><use xlink:href="#z" width="3.4" height="8" transform="matrix(-.9047 .3714 .138 1.0077 .65 -6.15)"/><use xlink:href="#A" width="5.3" height="11.2" transform="matrix(.9968 -.1183 .2163 .975 -5.95 -14.8)"/><use xlink:href="#C" width="10.1" height="8.4" transform="matrix(1.0047 -.1781 .1657 .9833 -6.3 -17.6)"/><use xlink:href="#D" width="14" height="54.4" transform="matrix(1.1284 -.1597 -.119 .583 -12.85 -38.3)"/><use xlink:href="#E" width="9.8" height="14.1" transform="matrix(.8687 .2172 -.0523 1.0697 -4.05 -32.7)"/><use xlink:href="#F" width="9.4" height="11.8" transform="matrix(.9552 -.0591 -.0044 .9531 -5.25 -39.15)"/><use xlink:href="#G" width="2.7" height="5.3" transform="matrix(-.9713 -.2029 -.3042 .9342 5.3 -16.55)"/><use xlink:href="#S" width="5" height="9.5" transform="matrix(-.9933 .1311 .0365 .8292 7 -22.05)"/><use xlink:href="#B" width="3.1" height="8.2" transform="matrix(.9017 .1434 -.0583 .8839 2.75 -28.35)"/><use xlink:href="#G" width="2.7" height="5.3" transform="matrix(.7939 -.0041 .048 .6429 -8.65 -24.65)"/><use xlink:href="#S" width="5" height="9.5" transform="matrix(.8549 .3374 -.0859 .5896 -9.55 -27.15)"/></g></g><g clip-path="url(#at)"><g transform="translate(857.35 43.55)"><use xlink:href="#x" width="14.7" height="4.3" transform="matrix(.8 0 0 .8 -5.4 -1.8)"/><use xlink:href="#y" width="6.4" height="3.7" transform="matrix(.5967 -.0472 .017 .9639 -.55 -5.95)"/><use xlink:href="#z" width="3.4" height="8" transform="matrix(.9115 -.1493 .026 .8415 -.9 -11.2)"/><use xlink:href="#A" width="5.3" height="11.2" transform="matrix(-.9084 -.1243 -.1236 .7749 4.4 -18.65)"/><use xlink:href="#B" width="3.1" height="8.2" transform="matrix(-.7178 -.3668 -.2534 .7143 -2.85 -30.95)"/><use xlink:href="#y" width="6.4" height="3.7" transform="matrix(-1 0 .202 1 1.7 1.75)"/><use xlink:href="#z" width="3.4" height="8" transform="matrix(-.8984 .3848 .148 1.0099 .65 -5.85)"/><use xlink:href="#A" width="5.3" height="11.2" transform="matrix(.9963 -.1257 .2161 .9749 -5.9 -14.45)"/><use xlink:href="#C" width="10.1" height="8.4" transform="matrix(1.0112 -.1377 .1264 .9892 -6.05 -18)"/><use xlink:href="#D" width="14" height="54.4" transform="matrix(1.1291 -.1689 -.1128 .5769 -13.1 -37.75)"/><use xlink:href="#E" width="9.8" height="14.1" transform="matrix(.8843 .197 -.0471 1.0629 -4.1 -32.95)"/><use xlink:href="#F" width="9.4" height="11.8" transform="matrix(.9552 -.0551 -.0009 .9533 -5.25 -39.5)"/><use xlink:href="#G" width="2.7" height="5.3" transform="matrix(-.9656 -.2447 -.3549 .9384 5.55 -16)"/><use xlink:href="#S" width="5" height="9.5" transform="matrix(-.9952 .1059 .0255 .8409 7.05 -21.65)"/><use xlink:href="#B" width="3.1" height="8.2" transform="matrix(.8908 .168 -.0682 .8723 2.95 -28.5)"/><use xlink:href="#G" width="2.7" height="5.3" transform="matrix(.7965 -.0426 .072 .6541 -8.6 -24.2)"/><use xlink:href="#S" width="5" height="9.5" transform="matrix(.8622 .3065 -.0751 .6069 -9.75 -27)"/></g></g><g clip-path="url(#au)"><g transform="translate(888.35 43.55)"><use xlink:href="#x" width="14.7" height="4.3" transform="matrix(.8 0 0 .8 -5.4 -1.8)"/><use xlink:href="#y" width="6.4" height="3.7" transform="matrix(.6112 -.0509 .0175 .9662 -.6 -5.55)"/><use xlink:href="#z" width="3.4" height="8" transform="matrix(.9256 -.11 .0158 .8575 -1 -11)"/><use xlink:href="#A" width="5.3" height="11.2" transform="matrix(-.8859 -.161 -.1431 .768 4.5 -18.35)"/><use xlink:href="#B" width="3.1" height="8.2" transform="matrix(-.7563 -.3539 -.2562 .7531 -2.85 -31.15)"/><use xlink:href="#y" width="6.4" height="3.7" transform="matrix(-.9718 .2343 .3708 .9277 1.2 .6)"/><use xlink:href="#z" width="3.4" height="8" transform="matrix(-.9037 .3706 .148 .9883 .4 -6.6)"/><use xlink:href="#A" width="5.3" height="11.2" transform="matrix(1.0014 -.0922 .179 .963 -5.85 -15.15)"/><use xlink:href="#C" width="10.1" height="8.4" transform="matrix(1.0163 -.0938 .0836 .9937 -5.9 -18.4)"/><use xlink:href="#D" width="14" height="54.4" transform="matrix(1.1304 -.1745 -.1085 .5704 -13.3 -37.25)"/><use xlink:href="#E" width="9.8" height="14.1" transform="matrix(.8987 .179 -.042 1.0559 -4.15 -33.05)"/><use xlink:href="#F" width="9.4" height="11.8" transform="matrix(.9552 -.051 -.0004 .9534 -5.15 -39.8)"/><use xlink:href="#G" width="2.7" height="5.3" transform="matrix(-.9614 -.2585 -.3475 .9378 5.8 -16.35)"/><use xlink:href="#S" width="5" height="9.5" transform="matrix(-.9941 .096 .0304 .8618 7.25 -22.1)"/><use xlink:href="#B" width="3.1" height="8.2" transform="matrix(.9045 .1443 -.0668 .8889 3.1 -28.95)"/><use xlink:href="#G" width="2.7" height="5.3" transform="matrix(.7969 -.084 .0968 .6643 -8.65 -23.8)"/><use xlink:href="#S" width="5" height="9.5" transform="matrix(.8675 .2783 -.0657 .6238 -9.8 -27)"/></g></g><g clip-path="url(#av)"><g transform="translate(919.35 43.55)"><use xlink:href="#x" width="14.7" height="4.3" transform="matrix(.8 0 0 .8 -5.4 -1.8)"/><use xlink:href="#y" width="6.4" height="3.7" transform="matrix(.6257 -.0526 .0179 .9684 -.7 -5.1)"/><use xlink:href="#z" width="3.4" height="8" transform="matrix(.9382 -.0666 .0082 .8733 -.95 -10.85)"/><use xlink:href="#A" width="5.3" height="11.2" transform="matrix(-.862 -.196 -.1624 .7605 4.7 -18.1)"/><use xlink:href="#B" width="3.1" height="8.2" transform="matrix(-.7948 -.3388 -.2579 .7922 -2.85 -31.35)"/><use xlink:href="#y" width="6.4" height="3.7" transform="matrix(-.888 .4587 .52 .8291 .55 -.65)"/><use xlink:href="#z" width="3.4" height="8" transform="matrix(-.9104 .3556 .149 .9669 .3 -7.35)"/><use xlink:href="#A" width="5.3" height="11.2" transform="matrix(1.0059 -.0577 .143 .9504 -5.75 -15.7)"/><use xlink:href="#C" width="10.1" height="8.4" transform="matrix(1.0195 -.0497 .044 .9963 -5.6 -18.7)"/><use xlink:href="#D" width="14" height="54.4" transform="matrix(1.1317 -.1801 -.1024 .5642 -13.6 -36.75)"/><use xlink:href="#E" width="9.8" height="14.1" transform="matrix(.9133 .1575 -.0369 1.049 -4.2 -33.2)"/><use xlink:href="#F" width="9.4" height="11.8" transform="matrix(.955 -.0501 0 .9536 -5.15 -40.1)"/><use xlink:href="#G" width="2.7" height="5.3" transform="matrix(-.957 -.2751 -.3459 .9362 6 -16.65)"/><use xlink:href="#S" width="5" height="9.5" transform="matrix(-.9933 .0871 .0354 .8827 7.45 -22.5)"/><use xlink:href="#B" width="3.1" height="8.2" transform="matrix(.9174 .1251 -.0679 .9054 3.1 -29.45)"/><use xlink:href="#G" width="2.7" height="5.3" transform="matrix(.7956 -.1229 .1224 .6735 -8.65 -23.5)"/><use xlink:href="#S" width="5" height="9.5" transform="matrix(.8727 .2472 -.0536 .6408 -9.8 -26.75)"/></g></g><g clip-path="url(#aw)"><g transform="translate(950.35 43.55)"><use xlink:href="#x" width="14.7" height="4.3" transform="matrix(.8 0 0 .8 -5.4 -1.8)"/><use xlink:href="#y" width="6.4" height="3.7" transform="matrix(.6401 -.0565 .0215 .9706 -.8 -4.75)"/><use xlink:href="#z" width="3.4" height="8" transform="matrix(.9487 -.0254 .0002 .8891 -.95 -10.6)"/><use xlink:href="#A" width="5.3" height="11.2" transform="matrix(-.8367 -.232 -.1831 .7527 4.85 -17.8)"/><use xlink:href="#B" width="3.1" height="8.2" transform="matrix(-.8321 -.3241 -.2587 .8314 -2.7 -31.6)"/><use xlink:href="#y" width="6.4" height="3.7" transform="matrix(-.7533 .657 .6488 .7056 -.15 -1.8)"/><use xlink:href="#z" width="3.4" height="8" transform="matrix(-.9156 .3434 .1467 .9461 0 -8.15)"/><use xlink:href="#A" width="5.3" height="11.2" transform="matrix(1.0092 -.0229 .1111 .9362 -5.65 -16.4)"/><use xlink:href="#C" width="10.1" height="8.4" transform="matrix(1.0207 -.0085 .004 .9973 -5.4 -19.15)"/><use xlink:href="#D" width="14" height="54.4" transform="matrix(1.1329 -.1891 -.098 .5579 -13.9 -36.25)"/><use xlink:href="#E" width="9.8" height="14.1" transform="matrix(.9274 .1354 -.0319 1.0421 -4.15 -33.4)"/><use xlink:href="#F" width="9.4" height="11.8" transform="matrix(.955 -.0461 .0005 .9538 -5.05 -40.4)"/><use xlink:href="#G" width="2.7" height="5.3" transform="matrix(-.9532 -.2917 -.342 .9366 6.25 -17)"/><use xlink:href="#S" width="5" height="9.5" transform="matrix(-.9926 .0783 .0439 .9035 7.6 -22.95)"/><use xlink:href="#B" width="3.1" height="8.2" transform="matrix(.9303 .1023 -.0691 .922 3.2 -30)"/><use xlink:href="#G" width="2.7" height="5.3" transform="matrix(.7923 -.162 .1488 .6818 -8.75 -23)"/><use xlink:href="#S" width="5" height="9.5" transform="matrix(.876 .219 -.0408 .6574 -9.9 -26.65)"/></g></g><g clip-path="url(#ax)"><g transform="translate(981.35 43.55)"><use xlink:href="#x" width="14.7" height="4.3" transform="matrix(.8 0 0 .8 -5.4 -1.8)"/><use xlink:href="#y" width="6.4" height="3.7" transform="matrix(.6545 -.0605 .022 .9728 -.85 -4.4)"/><use xlink:href="#z" width="3.4" height="8" transform="matrix(.9574 .0135 -.008 .9048 -1 -10.5)"/><use xlink:href="#A" width="5.3" height="11.2" transform="matrix(-.8664 -.2046 -.1874 .7914 5.1 -18)"/><use xlink:href="#B" width="3.1" height="8.2" transform="matrix(-.8702 -.3046 -.2585 .8708 -2.7 -31.8)"/><use xlink:href="#y" width="6.4" height="3.7" transform="matrix(-.5781 .816 .7487 .566 -.95 -2.85)"/><use xlink:href="#z" width="3.4" height="8" transform="matrix(-.9207 .3311 .1473 .9248 -.25 -8.85)"/><use xlink:href="#A" width="5.3" height="11.2" transform="matrix(1.0114 .0053 .0773 .9212 -5.55 -17)"/><use xlink:href="#C" width="10.1" height="8.4" transform="matrix(1.0214 -.0046 .0008 .9977 -5.3 -19.45)"/><use xlink:href="#D" width="14" height="54.4" transform="matrix(1.124 -.1894 -.0862 .5573 -14.2 -36.15)"/><use xlink:href="#E" width="9.8" height="14.1" transform="matrix(.9406 .1157 -.0236 1.0352 -4.25 -33.6)"/><use xlink:href="#F" width="9.4" height="11.8" transform="matrix(.955 -.0421 .0009 .954 -4.95 -40.7)"/><use xlink:href="#G" width="2.7" height="5.3" transform="matrix(-.96 -.2766 -.3076 .944 6.45 -17.4)"/><use xlink:href="#S" width="5" height="9.5" transform="matrix(-.9903 .0784 .0645 .9205 7.75 -23.5)"/><use xlink:href="#B" width="3.1" height="8.2" transform="matrix(.9426 .079 -.0702 .9386 3.25 -30.4)"/><use xlink:href="#G" width="2.7" height="5.3" transform="matrix(.7865 -.2036 .1759 .689 -8.7 -22.65)"/><use xlink:href="#S" width="5" height="9.5" transform="matrix(.8791 .1879 -.0295 .6738 -9.95 -26.5)"/></g></g><g clip-path="url(#ay)"><g transform="translate(1012.35 43.55)"><use xlink:href="#x" width="14.7" height="4.3" transform="matrix(.8 0 0 .8 -5.4 -1.8)"/><use xlink:href="#y" width="6.4" height="3.7" transform="matrix(.6688 -.0646 .0257 .975 -1 -4)"/><use xlink:href="#z" width="3.4" height="8" transform="matrix(.9638 .0593 -.0165 .9203 -1 -10.35)"/><use xlink:href="#A" width="5.3" height="11.2" transform="matrix(-.8961 -.1752 -.1958 .8296 5.2 -18.15)"/><use xlink:href="#B" width="3.1" height="8.2" transform="matrix(-.908 -.2828 -.2573 .9103 -2.7 -32)"/><use xlink:href="#y" width="6.4" height="3.7" transform="matrix(-.3676 .931 .8216 .4112 -1.8 -3.75)"/><use xlink:href="#z" width="3.4" height="8" transform="matrix(-.9267 .3158 .1479 .9035 -.45 -9.65)"/><use xlink:href="#A" width="5.3" height="11.2" transform="matrix(1.0123 .0403 .0475 .9048 -5.5 -17.55)"/><use xlink:href="#C" width="10.1" height="8.4" transform="matrix(1.0221 -.0004 .0007 .9982 -5.25 -19.85)"/><use xlink:href="#D" width="14" height="54.4" transform="matrix(1.1151 -.1929 -.0761 .5566 -14.4 -35.8)"/><use xlink:href="#E" width="9.8" height="14.1" transform="matrix(.9537 .0924 -.0187 1.0282 -4.2 -33.75)"/><use xlink:href="#F" width="9.4" height="11.8" transform="matrix(.9549 -.038 .0045 .9542 -5 -41)"/><use xlink:href="#G" width="2.7" height="5.3" transform="matrix(-.9665 -.2647 -.2738 .9511 6.7 -17.75)"/><use xlink:href="#S" width="5" height="9.5" transform="matrix(-.9883 .0787 .0862 .9371 7.85 -23.95)"/><use xlink:href="#B" width="3.1" height="8.2" transform="matrix(.9543 .0551 -.0714 .9552 3.3 -30.95)"/><use xlink:href="#G" width="2.7" height="5.3" transform="matrix(.7793 -.2425 .2059 .6945 -8.75 -22.3)"/><use xlink:href="#S" width="5" height="9.5" transform="matrix(.8806 .1598 -.0154 .69 -10.05 -26.4)"/></g></g><g clip-path="url(#az)"><g transform="translate(1043.35 43.55)"><use xlink:href="#x" width="14.7" height="4.3" transform="matrix(.8 0 0 .8 -5.4 -1.8)"/><use xlink:href="#y" width="6.4" height="3.7" transform="matrix(.6834 -.0666 .0261 .9772 -1.05 -3.7)"/><use xlink:href="#z" width="3.4" height="8" transform="matrix(.9684 .1027 -.0253 .9358 -1.05 -10.15)"/><use xlink:href="#A" width="5.3" height="11.2" transform="matrix(-.9243 -.1467 -.2013 .8686 5.4 -18.25)"/><use xlink:href="#B" width="3.1" height="8.2" transform="matrix(-.9455 -.261 -.256 .9506 -2.65 -32.1)"/><use xlink:href="#y" width="6.4" height="3.7" transform="matrix(-.1377 .9929 .8637 .2527 -2.6 -4.55)"/><use xlink:href="#z" width="3.4" height="8" transform="matrix(-.9315 .3034 .1482 .8822 -.6 -10.35)"/><use xlink:href="#A" width="5.3" height="11.2" transform="matrix(1.012 .0754 .016 .8875 -5.4 -18.25)"/><use xlink:href="#C" width="10.1" height="8.4" transform="matrix(1.0228 .0005 .0005 .9986 -5.15 -20.1)"/><use xlink:href="#D" width="14" height="54.4" transform="matrix(1.1061 -.1999 -.0665 .5558 -14.6 -35.6)"/><use xlink:href="#E" width="9.8" height="14.1" transform="matrix(.9662 .0686 -.014 1.0212 -4.2 -33.9)"/><use xlink:href="#F" width="9.4" height="11.8" transform="matrix(.9548 -.034 .0049 .9543 -4.95 -41.35)"/><use xlink:href="#G" width="2.7" height="5.3" transform="matrix(-.973 -.2527 -.2398 .9569 7 -18.15)"/><use xlink:href="#S" width="5" height="9.5" transform="matrix(-.986 .0822 .1055 .9535 8.1 -24.4)"/><use xlink:href="#B" width="3.1" height="8.2" transform="matrix(.9654 .0339 -.0732 .972 3.35 -31.35)"/><use xlink:href="#G" width="2.7" height="5.3" transform="matrix(.7706 -.2825 .2347 .7001 -8.75 -21.85)"/><use xlink:href="#S" width="5" height="9.5" transform="matrix(.8816 .1318 -.0024 .7059 -10.1 -26.2)"/></g></g><g clip-path="url(#aA)"><g transform="translate(1074.35 43.55)"><use xlink:href="#x" width="14.7" height="4.3" transform="matrix(.8 0 0 .8 -5.4 -1.8)"/><use xlink:href="#y" width="6.4" height="3.7" transform="matrix(.6977 -.0708 .0266 .9794 -1.15 -3.35)"/><use xlink:href="#z" width="3.4" height="8" transform="matrix(.9706 .1497 -.0375 .9511 -1.05 -9.95)"/><use xlink:href="#A" width="5.3" height="11.2" transform="matrix(-.9519 -.1134 -.2065 .9076 5.55 -18.4)"/><use xlink:href="#B" width="3.1" height="8.2" transform="matrix(-.9455 -.261 -.256 .9506 -2.65 -32.1)"/><use xlink:href="#y" width="6.4" height="3.7" transform="matrix(-.1402 .9911 .8653 .2367 -2.85 -5.6)"/><use xlink:href="#z" width="3.4" height="8" transform="matrix(-.937 .2878 .1484 .8609 -.85 -11.2)"/><use xlink:href="#A" width="5.3" height="11.2" transform="matrix(1.0109 .1071 -.0114 .8691 -5.3 -18.75)"/><use xlink:href="#C" width="10.1" height="8.4" transform="matrix(1.0234 .0047 .0004 .9991 -5.05 -20.45)"/><use xlink:href="#D" width="14" height="54.4" transform="matrix(1.091 -.2333 -.0392 .5562 -15.35 -35.2)"/><use xlink:href="#E" width="9.8" height="14.1" transform="matrix(.9779 .0473 -.0092 1.0141 -4.25 -34.1)"/><use xlink:href="#F" width="9.4" height="11.8" transform="matrix(.9548 -.0299 .0085 .9545 -4.85 -41.65)"/><use xlink:href="#G" width="2.7" height="5.3" transform="matrix(-.9792 -.2406 -.209 .9609 7.25 -18.65)"/><use xlink:href="#S" width="5" height="9.5" transform="matrix(-.9839 .0824 .1287 .9691 8.25 -24.95)"/><use xlink:href="#B" width="3.1" height="8.2" transform="matrix(.9695 .005 -.043 .9736 3.2 -31.3)"/><use xlink:href="#G" width="2.7" height="5.3" transform="matrix(.8097 -.2403 .2046 .7241 -8.6 -21.7)"/><use xlink:href="#S" width="5" height="9.5" transform="matrix(.8992 .1506 -.0099 .7117 -9.95 -25.95)"/></g></g><g clip-path="url(#aB)"><g transform="translate(1105.35 43.55)"><use xlink:href="#x" width="14.7" height="4.3" transform="matrix(.8 0 0 .8 -5.4 -1.8)"/><use xlink:href="#y" width="6.4" height="3.7" transform="matrix(.712 -.0752 .0303 .9816 -1.2 -2.9)"/><use xlink:href="#z" width="3.4" height="8" transform="matrix(.9711 .194 -.0469 .9664 -1.05 -9.8)"/><use xlink:href="#A" width="5.3" height="11.2" transform="matrix(-.978 -.0814 -.2144 .946 5.7 -18.65)"/><use xlink:href="#B" width="3.1" height="8.2" transform="matrix(-.9455 -.261 -.256 .9506 -2.65 -32.1)"/><use xlink:href="#y" width="6.4" height="3.7" transform="matrix(-.1446 .9894 .8672 .2212 -3.1 -6.65)"/><use xlink:href="#z" width="3.4" height="8" transform="matrix(-.9414 .2753 .1483 .8396 -1.1 -12)"/><use xlink:href="#A" width="5.3" height="11.2" transform="matrix(1.0083 .1422 -.0377 .8498 -5.25 -19.45)"/><use xlink:href="#C" width="10.1" height="8.4" transform="matrix(1.0241 .0056 .0002 .9996 -5 -20.85)"/><use xlink:href="#D" width="14" height="54.4" transform="matrix(1.0748 -.2694 -.0125 .5553 -16.05 -34.8)"/><use xlink:href="#E" width="9.8" height="14.1" transform="matrix(.9893 .0223 -.0046 1.0071 -4.25 -34.2)"/><use xlink:href="#F" width="9.4" height="11.8" transform="matrix(.9546 -.0259 .009 .9547 -4.75 -42)"/><use xlink:href="#G" width="2.7" height="5.3" transform="matrix(-.9854 -.2283 -.1749 .9644 7.55 -19.05)"/><use xlink:href="#S" width="5" height="9.5" transform="matrix(-.9819 .0826 .1526 .9842 8.35 -25.4)"/><use xlink:href="#B" width="3.1" height="8.2" transform="matrix(.9729 -.0177 -.0135 .9745 3.2 -31.25)"/><use xlink:href="#G" width="2.7" height="5.3" transform="matrix(.8477 -.1929 .1729 .7475 -8.45 -21.6)"/><use xlink:href="#S" width="5" height="9.5" transform="matrix(.9169 .1701 -.0193 .7174 -9.75 -25.85)"/></g></g><g clip-path="url(#aC)"><g transform="translate(1136.35 43.55)"><use xlink:href="#x" width="14.7" height="4.3" transform="matrix(.8 0 0 .8 -5.4 -1.8)"/><use xlink:href="#y" width="6.4" height="3.7" transform="matrix(.7265 -.0804 .0329 .9839 -1.3 -2.55)"/><use xlink:href="#z" width="3.4" height="8" transform="matrix(.9695 .242 -.0594 .9816 -1.05 -9.7)"/><use xlink:href="#A" width="5.3" height="11.2" transform="matrix(-1.0033 -.0462 -.2206 .9855 5.85 -18.75)"/><use xlink:href="#y" width="6.4" height="3.7" transform="matrix(-.1525 .9876 .8688 .2089 -3.3 -7.65)"/><use xlink:href="#z" width="3.4" height="8" transform="matrix(-.9463 .2632 .1483 .8188 -1.35 -12.6)"/><use xlink:href="#A" width="5.3" height="11.2" transform="matrix(1.0049 .1775 -.066 .8297 -5.2 -20.1)"/><use xlink:href="#C" width="10.1" height="8.4" transform="matrix(1.0247 .0123 0 1 -4.9 -21.15)"/><use xlink:href="#D" width="14" height="54.4" transform="matrix(1.0573 -.3047 .0123 .5532 -16.65 -34.25)"/><use xlink:href="#E" width="9.8" height="14.1" transform="translate(-4.2 -34.35)"/><use xlink:href="#F" width="9.4" height="11.8" transform="matrix(.9545 -.0251 .0126 .9548 -4.8 -42.35)"/><use xlink:href="#G" width="2.7" height="5.3" transform="matrix(-.9918 -.2174 -.1429 .967 7.85 -19.4)"/><use xlink:href="#S" width="5" height="9.5" transform="matrix(-.9797 .0872 .18 .9987 8.45 -25.85)"/><use xlink:href="#B" width="3.1" height="8.2" transform="matrix(.9756 -.0436 .0129 .9744 3.15 -31.25)"/><use xlink:href="#G" width="2.7" height="5.3" transform="matrix(.8824 -.1444 .1395 .7695 -8.25 -21.5)"/><use xlink:href="#S" width="5" height="9.5" transform="matrix(.9341 .1903 -.0288 .723 -9.55 -25.65)"/><use xlink:href="#B" width="3.1" height="8.2" transform="matrix(-.9607 -.2104 -.1933 .9946 -3.15 -32.05)"/></g></g><g clip-path="url(#aD)"><g transform="translate(1167.35 43.55)"><use xlink:href="#x" width="14.7" height="4.3" transform="matrix(.8 0 0 .8 -5.4 -1.8)"/><use xlink:href="#y" width="6.4" height="3.7" transform="matrix(.7265 -.0804 .0329 .9839 -1.3 -2.55)"/><use xlink:href="#z" width="3.4" height="8" transform="matrix(.9695 .242 -.0594 .9816 -1.05 -9.7)"/><use xlink:href="#A" width="5.3" height="11.2" transform="matrix(-1.0033 -.0462 -.2206 .9855 5.85 -18.75)"/><use xlink:href="#y" width="6.4" height="3.7" transform="matrix(-.1525 .9876 .8688 .2089 -3.3 -7.65)"/><use xlink:href="#z" width="3.4" height="8" transform="matrix(-.9463 .2632 .1483 .8188 -1.35 -12.6)"/><use xlink:href="#A" width="5.3" height="11.2" transform="matrix(1.0049 .1775 -.066 .8297 -5.2 -20.1)"/><use xlink:href="#C" width="10.1" height="8.4" transform="matrix(1.0243 .0359 -.0179 .9993 -4.85 -21)"/><use xlink:href="#D" width="14" height="54.4" transform="matrix(1.0375 -.3425 .0386 .5497 -17.35 -33.7)"/><use xlink:href="#E" width="9.8" height="14.1" transform="matrix(.9786 -.0132 .0005 .9957 -4.05 -33.9)"/><use xlink:href="#F" width="9.4" height="11.8" transform="matrix(.9547 -.0212 .013 .9545 -4.7 -42.05)"/><use xlink:href="#G" width="2.7" height="5.3" transform="matrix(-.9899 -.1926 -.1191 .9622 7.95 -20.05)"/><use xlink:href="#S" width="5" height="9.5" transform="matrix(-.9756 .116 .1523 .9557 8.6 -26.05)"/><use xlink:href="#B" width="3.1" height="8.2" transform="matrix(.9773 -.073 .0392 .9736 3.05 -31.3)"/><use xlink:href="#G" width="2.7" height="5.3" transform="matrix(.9143 -.0924 .1043 .79 -8.05 -21.35)"/><use xlink:href="#S" width="5" height="9.5" transform="matrix(.9509 .2111 -.0385 .7284 -9.5 -25.5)"/><use xlink:href="#B" width="3.1" height="8.2" transform="matrix(-.96 -.1828 -.179 .9848 -3.1 -31.7)"/></g></g><g clip-path="url(#aE)"><g transform="translate(1198.35 43.55)"><use xlink:href="#x" width="14.7" height="4.3" transform="matrix(.8 0 0 .8 -5.4 -1.8)"/><use xlink:href="#y" width="6.4" height="3.7" transform="matrix(.7265 -.0804 .0329 .9839 -1.3 -2.55)"/><use xlink:href="#z" width="3.4" height="8" transform="matrix(.9695 .242 -.0594 .9816 -1.05 -9.7)"/><use xlink:href="#A" width="5.3" height="11.2" transform="matrix(-1.0033 -.0462 -.2206 .9855 5.85 -18.75)"/><use xlink:href="#y" width="6.4" height="3.7" transform="matrix(-.1525 .9876 .8688 .2089 -3.3 -7.65)"/><use xlink:href="#z" width="3.4" height="8" transform="matrix(-.9463 .2632 .1483 .8188 -1.35 -12.6)"/><use xlink:href="#A" width="5.3" height="11.2" transform="matrix(1.0049 .1775 -.066 .8297 -5.2 -20.1)"/><use xlink:href="#C" width="10.1" height="8.4" transform="matrix(1.0234 .0587 -.0358 .9983 -4.7 -20.9)"/><use xlink:href="#D" width="14" height="54.4" transform="matrix(1.0177 -.3759 .0646 .545 -18 -33.25)"/><use xlink:href="#E" width="9.8" height="14.1" transform="matrix(.9571 -.0258 .001 .9913 -3.9 -33.45)"/><use xlink:href="#F" width="9.4" height="11.8" transform="matrix(.9549 -.0174 .0135 .9542 -4.65 -41.7)"/><use xlink:href="#G" width="2.7" height="5.3" transform="matrix(-.9884 -.1662 -.1007 .9568 8.15 -20.7)"/><use xlink:href="#S" width="5" height="9.5" transform="matrix(-.9708 .1459 .129 .9123 8.7 -26.35)"/><use xlink:href="#B" width="3.1" height="8.2" transform="matrix(.9785 -.0993 .0687 .9718 3.05 -31.35)"/><use xlink:href="#G" width="2.7" height="5.3" transform="matrix(.9432 -.0339 .0675 .8089 -7.85 -21.2)"/><use xlink:href="#S" width="5" height="9.5" transform="matrix(.9673 .2326 -.0484 .7337 -9.25 -25.3)"/><use xlink:href="#B" width="3.1" height="8.2" transform="matrix(-.9591 -.1567 -.1681 .9748 -3.1 -31.35)"/></g></g><g clip-path="url(#aF)"><g transform="translate(1229.35 43.55)"><use xlink:href="#x" width="14.7" height="4.3" transform="matrix(.8 0 0 .8 -5.4 -1.8)"/><use xlink:href="#y" width="6.4" height="3.7" transform="matrix(-.1697 .9826 .8729 .1661 -4.15 -10.8)"/><use xlink:href="#z" width="3.4" height="8" transform="matrix(-.9845 -.0325 -.0546 .768 -1.1 -14.05)"/><use xlink:href="#A" width="5.3" height="11.2" transform="matrix(1.0181 .1292 -.0251 .7764 -5.1 -21.55)"/><use xlink:href="#y" width="6.4" height="3.7" transform="matrix(.8192 -.0647 -.0223 .9929 -1.4 -1.5)"/><use xlink:href="#z" width="3.4" height="8" transform="matrix(.9527 .2781 -.0786 .9892 -.95 -8.75)"/><use xlink:href="#A" width="5.3" height="11.2" transform="matrix(-1.0018 -.0657 -.2183 .9821 5.8 -17.65)"/><use xlink:href="#C" width="10.1" height="8.4" transform="matrix(1.022 .0814 -.057 .9967 -4.6 -20.85)"/><use xlink:href="#D" width="14" height="54.4" transform="matrix(.9982 -.4085 .0902 .5394 -18.6 -32.7)"/><use xlink:href="#E" width="9.8" height="14.1" transform="matrix(.9353 -.0409 .0047 .987 -3.8 -33)"/><use xlink:href="#F" width="9.4" height="11.8" transform="matrix(.9552 -.0168 .017 .9538 -4.6 -41.5)"/><use xlink:href="#G" width="2.7" height="5.3" transform="matrix(-.9857 -.1433 -.0795 .9513 8.3 -21.3)"/><use xlink:href="#S" width="5" height="9.5" transform="matrix(-.965 .1755 .1073 .8684 8.9 -26.6)"/><use xlink:href="#B" width="3.1" height="8.2" transform="matrix(.9789 -.129 .0995 .9692 2.9 -31.25)"/><use xlink:href="#G" width="2.7" height="5.3" transform="matrix(.9683 .0227 .0302 .8261 -7.7 -21.1)"/><use xlink:href="#S" width="5" height="9.5" transform="matrix(.9839 .2552 -.0591 .7391 -9.1 -25.15)"/><use xlink:href="#B" width="3.1" height="8.2" transform="matrix(-.9575 -.1307 -.1574 .9647 -3 -30.95)"/></g></g><g clip-path="url(#aG)"><g transform="translate(1260.35 43.55)"><use xlink:href="#x" width="14.7" height="4.3" transform="matrix(.8 0 0 .8 -5.4 -1.8)"/><use xlink:href="#y" width="6.4" height="3.7" transform="matrix(-.3149 .819 .8333 .2918 -3.4 -11.55)"/><use xlink:href="#z" width="3.4" height="8" transform="matrix(-.9899 .0137 -.0532 .7496 -.7 -14.65)"/><use xlink:href="#A" width="5.3" height="11.2" transform="matrix(1.0125 .2536 -.0756 .7433 -4.3 -22.05)"/><use xlink:href="#y" width="6.4" height="3.7" transform="matrix(.8501 -.0564 -.0398 .9952 -1.5 -1.15)"/><use xlink:href="#z" width="3.4" height="8" transform="matrix(.9464 .2897 -.0833 .9917 -.9 -8.5)"/><use xlink:href="#A" width="5.3" height="11.2" transform="matrix(-1.0012 -.0706 -.2177 .9806 5.8 -17.35)"/><use xlink:href="#C" width="10.1" height="8.4" transform="matrix(1.0197 .1075 -.0748 .995 -4.5 -20.7)"/><use xlink:href="#D" width="14" height="54.4" transform="matrix(.9753 -.4718 .1176 .5408 -18.7 -31.65)"/><use xlink:href="#E" width="9.8" height="14.1" transform="matrix(.9134 -.0523 .0052 .9826 -3.6 -32.55)"/><use xlink:href="#F" width="9.4" height="11.8" transform="matrix(.9554 -.013 .0175 .9536 -4.55 -41.2)"/><use xlink:href="#G" width="2.7" height="5.3" transform="matrix(-.983 -.1174 -.0585 .9454 8.6 -22)"/><use xlink:href="#S" width="5" height="9.5" transform="matrix(-.9583 .2049 .0872 .8239 8.95 -26.8)"/><use xlink:href="#B" width="3.1" height="8.2" transform="matrix(.9789 -.129 .0995 .9692 2.9 -31.25)"/><use xlink:href="#G" width="2.7" height="5.3" transform="matrix(.9714 -.0134 .067 .8433 -7.4 -20.55)"/><use xlink:href="#S" width="5" height="9.5" transform="matrix(.9877 .2285 -.0466 .7508 -8.9 -24.8)"/><use xlink:href="#B" width="3.1" height="8.2" transform="matrix(-.9551 -.105 -.1438 .9549 -2.9 -30.6)"/></g></g><g clip-path="url(#aH)"><g transform="translate(1291.35 43.55)"><use xlink:href="#x" width="14.7" height="4.3" transform="matrix(.8 0 0 .8 -5.4 -1.8)"/><use xlink:href="#y" width="6.4" height="3.7" transform="matrix(-.4055 .6411 .7763 .4101 -2.75 -12.05)"/><use xlink:href="#z" width="3.4" height="8" transform="matrix(-.9931 .0617 -.0548 .731 -.3 -15.25)"/><use xlink:href="#A" width="5.3" height="11.2" transform="matrix(.9907 .3815 -.1249 .7067 -3.45 -22.5)"/><use xlink:href="#y" width="6.4" height="3.7" transform="matrix(.8809 -.0504 -.0611 .9969 -1.5 -.8)"/><use xlink:href="#z" width="3.4" height="8" transform="matrix(.9408 .3016 -.0919 .994 -.9 -8.1)"/><use xlink:href="#A" width="5.3" height="11.2" transform="matrix(-1.0005 -.0788 -.2175 .9797 5.8 -17)"/><use xlink:href="#C" width="10.1" height="8.4" transform="matrix(1.0172 .1302 -.0959 .9927 -4.35 -20.55)"/><use xlink:href="#D" width="14" height="54.4" transform="matrix(.9497 -.5341 .1454 .5412 -18.8 -30.5)"/><use xlink:href="#E" width="9.8" height="14.1" transform="matrix(.8914 -.0631 .0089 .9782 -3.5 -32.1)"/><use xlink:href="#F" width="9.4" height="11.8" transform="matrix(.9556 -.0092 .0211 .9532 -4.5 -40.95)"/><use xlink:href="#G" width="2.7" height="5.3" transform="matrix(-.9792 -.0949 -.0378 .939 8.65 -22.6)"/><use xlink:href="#S" width="5" height="9.5" transform="matrix(-.95 .2372 .0687 .7791 9.1 -27.1)"/><use xlink:href="#B" width="3.1" height="8.2" transform="matrix(.9789 -.129 .0995 .9692 2.9 -31.25)"/><use xlink:href="#G" width="2.7" height="5.3" transform="matrix(.9729 -.0516 .1093 .8584 -7.1 -20.1)"/><use xlink:href="#S" width="5" height="9.5" transform="matrix(.9916 .2023 -.037 .7625 -8.7 -24.5)"/><use xlink:href="#B" width="3.1" height="8.2" transform="matrix(-.9521 -.0795 -.1335 .9445 -2.9 -30.25)"/></g></g><g clip-path="url(#aI)"><g transform="translate(1322.35 43.55)"><use xlink:href="#x" width="14.7" height="4.3" transform="matrix(.8 0 0 .8 -5.4 -1.8)"/><use xlink:href="#y" width="6.4" height="3.7" transform="matrix(-.4414 .4647 .7025 .5208 -2.2 -12.7)"/><use xlink:href="#z" width="3.4" height="8" transform="matrix(-.9939 .1136 -.057 .7127 .05 -15.9)"/><use xlink:href="#A" width="5.3" height="11.2" transform="matrix(.9536 .5093 -.1686 .6677 -2.65 -23.1)"/><use xlink:href="#B" width="3.1" height="8.2" transform="matrix(.9371 -.1451 .1277 .7604 3.05 -30.35)"/><use xlink:href="#y" width="6.4" height="3.7" transform="matrix(.9118 -.0439 -.0793 .9986 -1.5 -.4)"/><use xlink:href="#z" width="3.4" height="8" transform="matrix(.935 .3134 -.1005 .9963 -.85 -7.8)"/><use xlink:href="#A" width="5.3" height="11.2" transform="matrix(-1.0001 -.0837 -.2173 .9789 5.9 -16.65)"/><use xlink:href="#C" width="10.1" height="8.4" transform="matrix(1.0137 .1561 -.1136 .9902 -4.25 -20.5)"/><use xlink:href="#D" width="14" height="54.4" transform="matrix(.9182 -.598 .1735 .5402 -18.95 -29.35)"/><use xlink:href="#E" width="9.8" height="14.1" transform="matrix(.8691 -.0761 .0094 .9739 -3.3 -31.65)"/><use xlink:href="#F" width="9.4" height="11.8" transform="matrix(.9558 -.0085 .0215 .9529 -4.45 -40.6)"/><use xlink:href="#G" width="2.7" height="5.3" transform="matrix(-.9751 -.0731 -.021 .9321 8.8 -23.25)"/><use xlink:href="#S" width="5" height="9.5" transform="matrix(-.9421 .267 .053 .734 9.2 -27.3)"/><use xlink:href="#G" width="2.7" height="5.3" transform="matrix(.973 -.09 .1503 .8718 -6.85 -19.5)"/><use xlink:href="#S" width="5" height="9.5" transform="matrix(.9948 .1761 -.0271 .774 -8.45 -24)"/><use xlink:href="#B" width="3.1" height="8.2" transform="matrix(-.9484 -.0542 -.1235 .9341 -2.8 -29.8)"/></g></g><g clip-path="url(#aJ)"><g transform="translate(1353.35 43.55)"><use xlink:href="#x" width="14.7" height="4.3" transform="matrix(.8 0 0 .8 -5.4 -1.8)"/><use xlink:href="#y" width="6.4" height="3.7" transform="matrix(-.5975 .1632 .4377 .7792 -1.1 -10.8)"/><use xlink:href="#z" width="3.4" height="8" transform="matrix(-.974 .0597 -.0819 .7185 .6 -14.7)"/><use xlink:href="#A" width="5.3" height="11.2" transform="matrix(.9921 .3674 -.1079 .7194 -2.95 -22)"/><use xlink:href="#B" width="3.1" height="8.2" transform="matrix(.9261 -.1594 .142 .7451 3 -30.05)"/><use xlink:href="#y" width="6.4" height="3.7" transform="matrix(.9426 -.0337 -.1008 .9995 -1.65 -.1)"/><use xlink:href="#z" width="3.4" height="8" transform="matrix(.9291 .325 -.1059 .9988 -.9 -7.45)"/><use xlink:href="#A" width="5.3" height="11.2" transform="matrix(-.9994 -.0919 -.2171 .978 5.9 -16.3)"/><use xlink:href="#C" width="10.1" height="8.4" transform="matrix(1.0102 .1787 -.1346 .9871 -4.15 -20.35)"/><use xlink:href="#D" width="14" height="54.4" transform="matrix(.8845 -.6572 .2018 .5376 -19.05 -28.15)"/><use xlink:href="#E" width="9.8" height="14.1" transform="matrix(.8468 -.0857 .013 .9695 -3.2 -31.2)"/><use xlink:href="#F" width="9.4" height="11.8" transform="matrix(.956 -.0047 .0251 .9525 -4.4 -40.35)"/><use xlink:href="#G" width="2.7" height="5.3" transform="matrix(-.9649 -.026 .0129 .9171 8.3 -23.55)"/><use xlink:href="#S" width="5" height="9.5" transform="matrix(-.9182 .3172 .1124 .6877 8.75 -27.2)"/><use xlink:href="#G" width="2.7" height="5.3" transform="matrix(.9715 -.1285 .1926 .8832 -6.55 -19)"/><use xlink:href="#S" width="5" height="9.5" transform="matrix(.9973 .1498 -.0142 .7854 -8.2 -23.65)"/><use xlink:href="#B" width="3.1" height="8.2" transform="matrix(-.944 -.0291 -.1136 .9235 -2.75 -29.5)"/></g></g><g clip-path="url(#aK)"><g transform="translate(1384.35 43.55)"><use xlink:href="#x" width="14.7" height="4.3" transform="matrix(.8 0 0 .8 -5.4 -1.8)"/><use xlink:href="#y" width="6.4" height="3.7" transform="matrix(-.5757 -.1629 .084 .9114 -.25 -8.8)"/><use xlink:href="#z" width="3.4" height="8" transform="matrix(-.9515 .0084 -.1056 .7238 1.05 -13.55)"/><use xlink:href="#A" width="5.3" height="11.2" transform="matrix(1.0107 .229 -.0403 .7657 -3.2 -20.95)"/><use xlink:href="#B" width="3.1" height="8.2" transform="matrix(.9152 -.174 .1559 .7298 2.85 -29.8)"/><use xlink:href="#y" width="6.4" height="3.7" transform="matrix(.9733 -.026 -.1191 1.0004 -1.7 .25)"/><use xlink:href="#z" width="3.4" height="8" transform="matrix(.923 .3366 -.1146 1.001 -.85 -7.15)"/><use xlink:href="#A" width="5.3" height="11.2" transform="matrix(-.9989 -.0968 -.2169 .9771 5.9 -15.95)"/><use xlink:href="#C" width="10.1" height="8.4" transform="matrix(1.0061 .2011 -.1522 .984 -4 -20.25)"/><use xlink:href="#D" width="14" height="54.4" transform="matrix(.8447 -.7173 .2321 .5329 -19.15 -26.85)"/><use xlink:href="#E" width="9.8" height="14.1" transform="matrix(.8245 -.0947 .0134 .9651 -3 -30.8)"/><use xlink:href="#F" width="9.4" height="11.8" transform="matrix(.9562 -.0009 .0256 .9522 -4.35 -40.1)"/><use xlink:href="#G" width="2.7" height="5.3" transform="matrix(-.9528 .0132 .0512 .9005 7.85 -23.9)"/><use xlink:href="#S" width="5" height="9.5" transform="matrix(-.8922 .3665 .1651 .6369 8.3 -27.15)"/><use xlink:href="#G" width="2.7" height="5.3" transform="matrix(.9685 -.167 .2393 .8918 -6.35 -18.55)"/><use xlink:href="#S" width="5" height="9.5" transform="matrix(.9991 .1235 -.0037 .7966 -8.05 -23.35)"/><use xlink:href="#B" width="3.1" height="8.2" transform="matrix(-.9389 -.0044 -.1009 .9131 -2.7 -29.05)"/></g></g><g clip-path="url(#aL)"><g transform="translate(1415.35 43.55)"><use xlink:href="#x" width="14.7" height="4.3" transform="matrix(.8 0 0 .8 -5.4 -1.8)"/><use xlink:href="#y" width="6.4" height="3.7" transform="matrix(-.3936 -.4229 -.3011 .8863 .3 -6.7)"/><use xlink:href="#z" width="3.4" height="8" transform="matrix(-.9264 -.0402 -.1332 .7282 1.55 -12.4)"/><use xlink:href="#A" width="5.3" height="11.2" transform="matrix(1.011 .0905 .0353 .8052 -3.4 -19.85)"/><use xlink:href="#B" width="3.1" height="8.2" transform="matrix(.9047 -.1884 .1718 .7142 2.8 -29.45)"/><use xlink:href="#y" width="6.4" height="3.7" transform="matrix(1.004 -.0182 -.1411 1.0009 -1.7 .6)"/><use xlink:href="#z" width="3.4" height="8" transform="matrix(.9177 .3488 -.1238 1.0034 -.75 -6.8)"/><use xlink:href="#A" width="5.3" height="11.2" transform="matrix(-.9983 -.1052 -.2169 .9769 5.85 -15.55)"/><use xlink:href="#C" width="10.1" height="8.4" transform="matrix(1.0014 .2272 -.1731 .9805 -3.9 -20.1)"/><use xlink:href="#D" width="14" height="54.4" transform="matrix(.8044 -.774 .2611 .5278 -19.2 -25.7)"/><use xlink:href="#E" width="9.8" height="14.1" transform="matrix(.802 -.106 .0177 .9608 -2.9 -30.35)"/><use xlink:href="#F" width="9.4" height="11.8" transform="matrix(.9564 -.0008 .0294 .9519 -4.25 -39.8)"/><use xlink:href="#G" width="2.7" height="5.3" transform="matrix(-.9387 .058 .0856 .8829 7.35 -24.2)"/><use xlink:href="#S" width="5" height="9.5" transform="matrix(-.8634 .4171 .2098 .5831 7.75 -27)"/><use xlink:href="#G" width="2.7" height="5.3" transform="matrix(.9644 -.2069 .2854 .8993 -6 -17.95)"/><use xlink:href="#S" width="5" height="9.5" transform="matrix(1.0002 .0998 .0078 .8076 -7.75 -22.95)"/><use xlink:href="#B" width="3.1" height="8.2" transform="matrix(-.9332 .0194 -.0933 .9024 -2.65 -28.75)"/></g></g></svg>