<svg xmlns="http://www.w3.org/2000/svg" xmlns:xlink="http://www.w3.org/1999/xlink" width="19" height="18" viewBox="0 0 19 18"><defs><g id="d"><path fill="#b9a258" d="m1.8 0 1.1.7q.4.3.4.7l-.6.6H1.3l-1-.5q-.5-.4-.4-.8L.6 0zM.6.6h.3l1.9.6Q2 .4 1.6.3H.8z"/><path fill="#dcc58e" d="M.6.5.8.3h.8q.5.2 1.2.8L.8.6z"/><path fill="none" stroke="#5e4320" stroke-linecap="round" stroke-linejoin="round" stroke-opacity=".8" stroke-width="__RESOLUTION__" d="M1.8 0 .6.2 0 .7q-.1.4.4.8l1 .5h1.3l.6-.6q0-.4-.4-.7z" vector-effect="non-scaling-stroke"/></g><g id="e"><path fill="#957e41" d="M9.1.6q1.2.5 1.5 1.4.5 1.3-.1 2.5l-.6.8Q8.8 6.9 6.5 7.5t-4 0L1.7 7q1.7.3 3.7-.4Q9 4.6 9 .5"/><path fill="#b9a258" d="M1.7 7Q.5 6.3.1 5.2V5q-.5-1.6.6-3.2l.5-.5q-1.6 3.1.1 3.3l2-.2L6 3.3q2.3-1 2.5-3l.5.2q0 4-3.7 6-2 .7-3.7.4"/><path fill="#dcc58e" d="M1.3 1.5Q2.4.3 4 0l4 .2.6.1q-.2 2-2.5 3L3.4 4.6h-2q-1.7 0-.1-3.2"/><path fill="none" stroke="#633e15" stroke-linecap="round" stroke-linejoin="round" stroke-opacity=".7" stroke-width="__RESOLUTION__" d="M9.1.6q1.2.5 1.5 1.4.5 1.3-.1 2.5l-.6.8Q8.8 6.9 6.5 7.5t-4 0L1.7 7Q.5 6.3.1 5.2V5q-.5-1.6.6-3.2l.5-.5Q2.4.3 4 .1l4 .2.6.1z" vector-effect="non-scaling-stroke"/><path fill="#ececec" d="m9.5 1.4.7 2-1.5 1.3q-.2.7-.1 1.7l-.8.4L7.2 3 5.8.4l.7-.3 1.2 2z"/><path fill="#fff" d="M5.9.4 7.2 3l.6 3.9-1.1.5-.2-1.7-2.8.7-.6-2.6 2.5-.9-1-2z"/><path fill="none" stroke="#633e15" stroke-linecap="round" stroke-linejoin="round" stroke-opacity=".3" stroke-width="__RESOLUTION__" d="m9.5 1.4-1.9.8M6.5 5.7l-2.8.7-.6-2.6L5.6 3 4.6.9" vector-effect="non-scaling-stroke"/><path fill="none" stroke="#633e15" stroke-linecap="round" stroke-linejoin="round" stroke-opacity=".6" stroke-width="__RESOLUTION__" d="M2 2.7Q2.8 1.5 4.4.8L3.6.5M5.4.2 4.2.8l1 .3M.6 5.3l.5.3.7.3m.6-2.2-.7-.4-.1.2-.4 1.3M1 3l.7.3m-.6 2.2q0 1 .8 1.7" vector-effect="non-scaling-stroke"/><path fill="none" stroke="#633e15" stroke-linecap="round" stroke-linejoin="round" stroke-width="__RESOLUTION__" d="m8.6 3.6.6-.9-.4-.4m.6-.2-.3.6.4.3m-5 2 .4-.6-.3-.3m.6-.1-.2.3.7.5" vector-effect="non-scaling-stroke"/></g><g id="f"><path fill="#b9a258" d="m.6.6.9-.6q.5 0 .8.6.2.6.1 1.4l-.5 1.3q-.4.5-1 .5-.4 0-.6-.6Q0 2.6 0 1.8T.6.6M2 2.8Q2.3 1.5 2 1L1.7.5q-.2.3-.2 0L1 1.8q-.2 1.5 1 1"/><path fill="#dcc58e" d="M2 2.8q-1.2.5-1-1L1.4.5q0 .3.2 0l.5.5q.2.5 0 1.8"/><path fill="none" stroke="#5e4120" stroke-linecap="round" stroke-linejoin="round" stroke-opacity=".8" stroke-width="__RESOLUTION__" d="M.6.6Q.2 1 .1 1.9t.1 1.3.7.6q.5 0 1-.5L2.4 2q.1-.8-.1-1.4T1.5 0z" vector-effect="non-scaling-stroke"/><path fill="#000" d="M2.2 3q.1.7-.3 1l-1 .1-.5-.2L2 2.7z"/></g><g id="g"><path fill="#d83838" d="M4.2 5H5l.6.5q.1.3-.2.6l-.8.5-.3.1q-.6-.6-.2-1.7"/><path fill="#a22020" d="m4.4 6.7-.8-.1-.5-.4.1-.7 1-.5q-.5 1 .1 1.7"/><path fill="#d83838" d="m3.9 4.2.8-.1.6.3-.2.7-.7.5q-.9-.3-.6-1.4"/><path fill="#a22020" d="M3.9 4.2q-.3 1 .5 1.4h-.1l-1 .1q-.4-.1-.5-.3l.2-.6z"/><path fill="#d83838" d="m3.3 3.3.8-.1.6.3q.1.3-.2.7l-.5.5q-1-.3-.7-1.4"/><path fill="#a22020" d="M4 4.7H3q-.4 0-.5-.4-.3-.3 0-.6l.6-.5h.1Q3 4.4 4 4.6"/><path fill="#d83838" d="M3 2.3h.4l.5.4q.2.2 0 .5t-.4.4Q2.4 3.4 3 2.3"/><path fill="#a22020" d="M3.5 3.7h-.7l-.5-.4v-.5l.5-.4.2-.1q-.6 1 .5 1.4"/><path fill="#ffcf84" d="M2.4.3V0zl.1.1.2.9.3.8.1.5-.2.1-.1.1-.4.4-.2-.1-2 .4-.3.1.4-.2q.2-.6 1.5-.8h-.2l-.1-.1h-.2l.1-.1h.4l-.2-.3-1.1-1V.9l1.9 1.4z"/><path fill="#9d5906" d="M2.4.3v2L.4.9h.2l.9.5.3.2L1.2.4l.1-.2h.5l.2.4.3.6V.6z"/></g><g id="a"><path fill="#b9a258" d="m0 2.8 1.2.2q1-.3 1.9 0 1 .1 1.6.8t.9-.8.7-2q.6 1.1.5 3.2l-.3 2.7-.4.4-.7.4-.4.2h-.2L4 8l-.2.1Q2.4 8 1.6 6.6.5 5.2.2 4zm4.8 1.5q-.1-.2-.3-.2l-.6.2-.5.6-.1.4.3.3.5-.2.5-.6zm1 3q.2-.2 0-.3L5 6.9 4 7l-.6.4q-.3.2 0 .4h.7l1-.2z"/><path fill="#957e41" d="M6.3 1q-.5.5-.7 2-.3 1.5-.9.8T3.1 3q-1-.3-1.9 0L.1 2.7v-.4H0l.6-1Q1.7 0 3.4 0 4.8-.1 6 .8zM4.8 4.3l-.2.6-.5.4-.5.3-.4-.2.2-.6.5-.5.6-.2q.2 0 .3.2m1 3-.6.4-1 .2h-.8q-.2-.2 0-.4l.7-.4 1-.2h.7q.2.1 0 .4"/><path fill="#dcc58e" d="m6.5 6.9.3-2.7Q6.8 2 6.3 1l.5.5q.8.9.9 2.3T7 6l-.3.5-.1.1z"/><path fill="none" stroke="#633e15" stroke-linecap="round" stroke-linejoin="round" stroke-opacity=".7" stroke-width="__RESOLUTION__" d="M0 2.8.4 4q.4 1.2 1.3 2.6T3.8 8H4l.8-.1m.2-.1.4-.2.7-.4.4-.4.2-.2.1-.1.3-.5q.6-1 .6-2.3-.1-1.4-1-2.3L6.3 1M6 .8Q4.8-.2 3.4 0 1.7.1.6 1.4l-.6 1h0v.4" vector-effect="non-scaling-stroke"/><path fill="none" stroke="#633e15" stroke-linecap="round" stroke-linejoin="round" stroke-width="__RESOLUTION__" d="M5.8 4v.3L6 5.6l.6-.2m-.6.1-.6.2m1 .5-.5.2q-.2 1-1 1.5m1-1.5-.7.2" vector-effect="non-scaling-stroke"/><path fill="none" stroke="#633e15" stroke-linecap="round" stroke-linejoin="round" stroke-opacity=".5" stroke-width="__RESOLUTION__" d="m.8 5.3.5.1.8.2M.5 4.5l.6.1.2-1.2V3m-.2 1.5.7.2m-.6.6q.3 1 .8 1.5" vector-effect="non-scaling-stroke"/></g><g id="p" transform="translate(4.45 6.4)"><use xlink:href="#a" width="7.7" height="8.1" transform="translate(-4.45 -6.4)"/><use xlink:href="#b" width="25.9" height="25.9" transform="matrix(.0556 -.0804 .069 .0561 -2.25 -2.1)"/><use xlink:href="#c" width="25.9" height="25.9" transform="matrix(.0469 -.0736 .0624 .0512 -1.95 -2.15)"/><use xlink:href="#b" width="25.9" height="25.9" transform="matrix(.0328 -.0804 .071 .0561 1.4 -3.55)"/><use xlink:href="#c" width="25.9" height="25.9" transform="matrix(.0266 -.0736 .0642 .0512 1.6 -3.6)"/></g><use xlink:href="#d" id="r" width="3.3" height="2"/><use xlink:href="#e" id="q" width="10.8" height="7.8"/><use xlink:href="#f" id="o" width="2.5" height="4.2"/><use xlink:href="#g" id="k" width="5.7" height="6.7"/><use xlink:href="#h" id="j" width="14.7" height="4.3"/><path id="h" fill="#382c16" d="M5.8-1.9Q7.9-1.4 8-.5 8 .3 5.9 1 3.8 1.8.7 2l-5.2-.4Q-6.7 1.2-6.7.3q-.1-.8 2-1.6 2.2-.8 5.2-.9z" transform="translate(6.75 2.25)"/><path id="c" fill="#d83838" d="M9-4.8q1.7 0 2.9 1.2T13-.8V.9q0 1.6-1.1 2.8Q10.5 4.8 9 4.8H4.9V9q0 1.7-1.3 2.8Q2.5 13 1 13H-.8q-1.6 0-2.8-1.2T-4.9 9V4.9H-9q-1.7 0-2.8-1.3Q-13 2.5-13 .8V-.8q0-1.6 1.3-2.8 1.1-1.2 2.7-1.2h4.2V-9q0-1.6 1.2-2.8t2.8-1.1H.9q1.6 0 2.8 1.1t1.1 2.9v4.1z" transform="translate(12.95 12.95)"/><path id="b" fill="#000" d="M9-4.8q1.7 0 2.9 1.2T13-.8V.9q0 1.6-1.1 2.8Q10.5 4.8 9 4.8H4.9V9q0 1.7-1.3 2.8Q2.5 13 1 13H-.8q-1.6 0-2.8-1.2T-4.9 9V4.9H-9q-1.7 0-2.8-1.3Q-13 2.5-13 .8V-.8q0-1.6 1.3-2.8 1.1-1.2 2.7-1.2h4.2V-9q0-1.6 1.2-2.8t2.8-1.1H.9q1.6 0 2.8 1.1t1.1 2.9v4.1z" transform="translate(12.95 12.95)"/><clipPath id="i"><path d="M1 1h17v16H1z"/></clipPath></defs><g clip-path="url(#i)"><g transform="translate(11 15.85)"><use xlink:href="#j" width="14.7" height="4.3" transform="matrix(.3795 0 0 .3804 -2.55 -.85)"/><use xlink:href="#k" width="5.7" height="6.7" transform="rotate(184.028 3.119 -3.84)scale(.995)"/><use xlink:href="#o" width="2.5" height="4.2" transform="matrix(1 0 .0026 .9054 .45 -4.45)"/><use xlink:href="#p" width="8.6" height="8.1" transform="matrix(.9951 .0625 -.0775 1 -3.35 -9.5)"/><use xlink:href="#q" width="10.8" height="7.8" transform="matrix(1 .0192 0 1 -6.7 -14.85)"/><use xlink:href="#o" width="2.5" height="4.2" transform="matrix(1 0 -.1216 1 -2.6 -3.3)"/><use xlink:href="#r" width="3.3" height="2" transform="rotate(118.232 .214 -4.387)scale(.999 -.999)"/><use xlink:href="#k" width="5.7" height="6.7" transform="matrix(.9348 -.351 -.351 -.9348 -7.65 -3.75)"/></g></g></svg>