<svg xmlns="http://www.w3.org/2000/svg" xmlns:xlink="http://www.w3.org/1999/xlink" width="20" height="22" viewBox="0 0 20 22"><defs><use xlink:href="#a" id="e" width="17.9" height="19.9"/><use xlink:href="#b" id="d" width="14.7" height="4.3"/><clipPath id="c"><path d="M1 1h18v20H1z"/></clipPath><path id="b" fill="#382c16" d="M5.8-1.9Q7.9-1.4 8-.5 8 .3 5.9 1 3.8 1.8.7 2l-5.2-.4Q-6.7 1.2-6.7.3q-.1-.8 2-1.6 2.2-.8 5.2-.9z" transform="translate(6.75 2.25)"/><g id="a"><path fill="#9e9354" d="m15.3 3.8.1 1.6q.2 3.9-2.2 6.7T7 15 .6 12.2l-.4-.4-.2-1.6q-.3-4.1 2.2-6.8Q4.7.3 8.4.5q3.7-.2 6.5 2.7z"/><path fill="#766d3f" d="m.2 11.8.4.3Q3.3 15 7 15t6.2-2.8q2.4-2.9 2.2-6.8l-.2-1.6q2.4 2.7 2.6 6.4.2 4-2.2 6.9-2.5 2.7-6.1 2.8-3.8 0-6.5-2.8Q.8 14.7.2 11.7"/><path fill="none" stroke="#423a24" stroke-linecap="round" stroke-linejoin="round" stroke-width="__RESOLUTION__" d="m15.3 3.8-.4-.4Q12.1.3 8.4.5 4.7.3 2.2 3.3q-2.4 2.8-2.2 7l.2 1.6Q.7 14.7 3 17q2.7 3 6.5 3 3.6 0 6.1-2.8 2.5-2.9 2.3-6.9-.2-3.7-2.6-6.4" vector-effect="non-scaling-stroke"/><path fill="#c5b994" d="M5.7 3Q5 2.8 5 2.3t.6-1T7 .7h1.4q.6.2.6.7t-.6 1-1.4.7zM1.9 5.2l.9-.7h.8q.2.3.1 1t-.5 1.2-.9.7q-.4.1-.7-.2t-.2-.9z"/><path fill="none" stroke="#57532d" stroke-linecap="round" stroke-linejoin="round" stroke-width="__RESOLUTION__" d="M17.4 6q-.2-2-2.9 0m2.3 6.2q.5 1.8-1.4 3.5m-7-11.1q-2 .4-2.3 2.5M1.7 8.6Q.6 10 1.5 12.4m8.2 0q-.4 1-1.3 1.8M10.9 1q-2-2-3.8.5" vector-effect="non-scaling-stroke"/></g></defs><g clip-path="url(#c)"><g transform="translate(10 18.55)"><use xlink:href="#d" width="14.7" height="4.3" transform="matrix(.6992 0 0 .7 -4.7 -1.55)"/><use xlink:href="#e" width="17.9" height="19.9" transform="translate(-9 -17.55)"/></g></g></svg>