<svg xmlns="http://www.w3.org/2000/svg" xmlns:xlink="http://www.w3.org/1999/xlink" width="1807" height="54" viewBox="0 0 1807 54"><defs><clipPath id="F"><path d="M1 1h41v52H1z"/></clipPath><clipPath id="U"><path d="M43 1h41v52H43z"/></clipPath><clipPath id="W"><path d="M85 1h41v52H85z"/></clipPath><clipPath id="Y"><path d="M127 1h41v52h-41z"/></clipPath><clipPath id="aa"><path d="M169 1h41v52h-41z"/></clipPath><clipPath id="ac"><path d="M211 1h41v52h-41z"/></clipPath><clipPath id="ae"><path d="M253 1h41v52h-41z"/></clipPath><clipPath id="ag"><path d="M295 1h41v52h-41z"/></clipPath><clipPath id="ah"><path d="M337 1h41v52h-41z"/></clipPath><clipPath id="ai"><path d="M379 1h41v52h-41z"/></clipPath><clipPath id="aj"><path d="M421 1h41v52h-41z"/></clipPath><clipPath id="ak"><path d="M463 1h41v52h-41z"/></clipPath><clipPath id="al"><path d="M505 1h41v52h-41z"/></clipPath><clipPath id="ax"><path d="M547 1h41v52h-41z"/></clipPath><clipPath id="ay"><path d="M589 1h41v52h-41z"/></clipPath><clipPath id="az"><path d="M631 1h41v52h-41z"/></clipPath><clipPath id="aA"><path d="M673 1h41v52h-41z"/></clipPath><clipPath id="aB"><path d="M715 1h41v52h-41z"/></clipPath><clipPath id="aC"><path d="M757 1h41v52h-41z"/></clipPath><clipPath id="aD"><path d="M799 1h41v52h-41z"/></clipPath><clipPath id="aE"><path d="M841 1h41v52h-41z"/></clipPath><clipPath id="aF"><path d="M883 1h41v52h-41z"/></clipPath><clipPath id="aG"><path d="M925 1h41v52h-41z"/></clipPath><clipPath id="aH"><path d="M967 1h41v52h-41z"/></clipPath><clipPath id="aI"><path d="M1009 1h41v52h-41z"/></clipPath><clipPath id="aJ"><path d="M1051 1h41v52h-41z"/></clipPath><clipPath id="aK"><path d="M1093 1h41v52h-41z"/></clipPath><clipPath id="aL"><path d="M1135 1h41v52h-41z"/></clipPath><clipPath id="aM"><path d="M1177 1h41v52h-41z"/></clipPath><clipPath id="aN"><path d="M1219 1h41v52h-41z"/></clipPath><clipPath id="aO"><path d="M1261 1h41v52h-41z"/></clipPath><clipPath id="aP"><path d="M1303 1h41v52h-41z"/></clipPath><clipPath id="aQ"><path d="M1345 1h41v52h-41z"/></clipPath><clipPath id="aR"><path d="M1387 1h41v52h-41z"/></clipPath><clipPath id="aS"><path d="M1429 1h41v52h-41z"/></clipPath><clipPath id="aT"><path d="M1471 1h41v52h-41z"/></clipPath><clipPath id="aU"><path d="M1513 1h41v52h-41z"/></clipPath><clipPath id="aV"><path d="M1555 1h41v52h-41z"/></clipPath><clipPath id="aW"><path d="M1597 1h41v52h-41z"/></clipPath><clipPath id="aX"><path d="M1639 1h41v52h-41z"/></clipPath><clipPath id="aY"><path d="M1681 1h41v52h-41z"/></clipPath><clipPath id="aZ"><path d="M1723 1h41v52h-41z"/></clipPath><clipPath id="ba"><path d="M1765 1h41v52h-41z"/></clipPath><g id="q"><path fill="#5d1301" d="m5 .2.2-.1L6.5 0 7 2.2 5.7 3.8 4.6 1.6z"/><path fill="#701802" d="m5 .2-.6 1.3 1.2 2.3-5.2-.1Q.1 3.6 0 3l1.3-1.5 2.4-1z"/><path fill="none" stroke="#161616" stroke-linecap="round" stroke-linejoin="round" stroke-opacity=".5" stroke-width="__RESOLUTION__" d="m5.6 3.8 1.3-1.6L6.4 0M3.7.5l-2.4 1Q0 3 0 3.3t.4.4l5.2.2" vector-effect="non-scaling-stroke"/></g><g id="r"><path fill="#611401" d="m5 .2.2-.1L6.5 0 7 2.2 5.7 3.8 4.6 1.6z"/><path fill="#751902" d="m5 .2-.6 1.3 1.2 2.3-5.2-.1Q.1 3.6 0 3l1.3-1.5 2.4-1z"/><path fill="none" stroke="#171717" stroke-linecap="round" stroke-linejoin="round" stroke-opacity=".5" stroke-width="__RESOLUTION__" d="m5.6 3.8 1.3-1.6L6.4 0M3.7.5l-2.4 1Q0 3 0 3.3t.4.4l5.2.2" vector-effect="non-scaling-stroke"/></g><g id="s"><path fill="#651401" d="m5 .2.2-.1L6.5 0 7 2.2 5.7 3.8 4.6 1.6z"/><path fill="#7a1a02" d="m5 .2-.6 1.3 1.2 2.3-5.2-.1Q.1 3.6 0 3l1.3-1.5 2.4-1z"/><path fill="none" stroke="#181818" stroke-linecap="round" stroke-linejoin="round" stroke-opacity=".5" stroke-width="__RESOLUTION__" d="m5.6 3.8 1.3-1.6L6.4 0M3.7.5l-2.4 1Q0 3 0 3.3t.4.4l5.2.2" vector-effect="non-scaling-stroke"/></g><g id="t"><path fill="#691501" d="m5 .2.2-.1L6.5 0 7 2.2 5.7 3.8 4.6 1.6z"/><path fill="#7f1b02" d="m5 .2-.6 1.3 1.2 2.3-5.2-.1Q.1 3.6 0 3l1.3-1.5 2.4-1z"/><path fill="none" stroke="#191919" stroke-linecap="round" stroke-linejoin="round" stroke-opacity=".5" stroke-width="__RESOLUTION__" d="m5.6 3.8 1.3-1.6L6.4 0M3.7.5l-2.4 1Q0 3 0 3.3t.4.4l5.2.2" vector-effect="non-scaling-stroke"/></g><g id="u"><path fill="#6d1601" d="m5 .2.2-.1L6.5 0 7 2.2 5.7 3.8 4.6 1.6z"/><path fill="#831c02" d="m5 .2-.6 1.3 1.2 2.3-5.2-.1Q.1 3.6 0 3l1.3-1.5 2.4-1z"/><path fill="none" stroke="#1a1a1a" stroke-linecap="round" stroke-linejoin="round" stroke-opacity=".5" stroke-width="__RESOLUTION__" d="m5.6 3.8 1.3-1.6L6.4 0M3.7.5l-2.4 1Q0 3 0 3.3t.4.4l5.2.2" vector-effect="non-scaling-stroke"/></g><g id="v"><path fill="#701701" d="m5 .2.2-.1L6.5 0 7 2.2 5.7 3.8 4.6 1.6z"/><path fill="#881d02" d="m5 .2-.6 1.3 1.2 2.3-5.2-.1Q.1 3.6 0 3l1.3-1.5 2.4-1z"/><path fill="none" stroke="#1b1b1b" stroke-linecap="round" stroke-linejoin="round" stroke-opacity=".5" stroke-width="__RESOLUTION__" d="m5.6 3.8 1.3-1.6L6.4 0M3.7.5l-2.4 1Q0 3 0 3.3t.4.4l5.2.2" vector-effect="non-scaling-stroke"/></g><g id="w"><path fill="#dbbb85" d="m3.7.2.2 2 .1.2-.1.9-.1.2q-.8 0-1 .2l-1.4.1V5l-1-.3L0 3.5q-.2-.7.5-2L1 0z"/><path fill="#c5b896" d="m3.9 2.3.2-.1-.1.2z"/><path fill="#b89d70" d="m3.8 3.5.2.7-1.2.2.1.5-1.3-.1-.1-.6-.1-.4 1.4-.1q.2-.2 1-.2"/><path fill="none" stroke="#1f1f1f" stroke-linecap="round" stroke-linejoin="round" stroke-opacity=".3" stroke-width="__RESOLUTION__" d="m3.7.2.2 2m-.1 1.2.2.8-1.1.2v.5l-1.3-.1-.1-.6-.1.8-1-.3L0 3.5h0q-.2-.7.5-2L1 0" vector-effect="non-scaling-stroke"/></g><g id="x"><path fill="#fdf4ca" d="m10 5.5.9-.4 5.9-.9 1 1.1h.3l-.7.2-.7-.8-2.5.5-.5.2-.9-.1-1.3.6-.5.4zm10.2-1.8 1-.2q2.3.9 3.8 2.6h-1l-2-1.4-.7.1-.1-.6z"/><path fill="#dcdeb1" d="m10 5.5 1 .8.6-.4 1.2-.6.9.1.5-.2 2.5-.6.8.9.5-.2 1.4-.2.8-1.4 1 .5.1.6.8-.1L24 6.1l-3.4.2-.6.3-3.7.2-1-.6-.7.6-3.8.4-1.6-.4V6z"/><path fill="#ffffec" d="m25 6-.3.4-.6.1-3.6.5-.6-.3-3.8.4-.8.7-.9-.5-3.6.3-1.7.3V6.7l1.7.5 3.8-.4.6-.6 1.1.6 3.7-.2.6-.3L24 6z"/><path fill="#e6ddb8" d="M24.7 6.5h-.1Q23.1 8.4 21.4 9h-1.1l1-.5h.6l2.2-2 .6-.2zm-7 1.8-1 .8h-5.8l-.8-.2 4.4-.1.6-.3.5.2h1.1z"/><path fill="#887e5e" d="m20.3 9.1-.8-1h-1.7l-.1.2-1 .4h-1.1l-.4-.1-.6.2h-4.4l-1-.5H9v-.5l1.7-.3 3.6-.3.9.6.8-.7 3.8-.4.7.4 3.5-.5-2.2 2h-.6z"/><path fill="none" stroke="#b8bd97" stroke-linecap="round" stroke-linejoin="round" stroke-opacity=".7" stroke-width="__RESOLUTION__" d="M18 5.3h-.2l-1-1.1-5.9.8-.9.5-.8.4m8.9-.6 1.3-.2.8-1.4 1-.3m0 .1q2.3.8 3.8 2.5l-.3.4v0h-.1q-1.4 2-3.1 2.7h-1.2l-.8-1H18l-.3.1-1 1h-5.8l-.7-.4-1-.5m8.5-.1h.1L18 8" vector-effect="non-scaling-stroke"/><path fill="#a1428c" d="M10.1.3 6.8 3.6l-1-.5L9.5 0z"/><path fill="#803473" d="M6.8 3.6 10.1.3l.8.8-2.1 3.3.6 2.4-2.7.4zm-.2 4.7.5 4 3.2 1.9.8-1.4-2.1-2L9.5 8z"/><path fill="#662a59" d="m5.8 3.1 1 .5-.1 3.7-.8-.5zm.8 5.2.5 4-1-.7-.3-3.8z"/><path fill="none" stroke="#3d1933" stroke-linecap="round" stroke-linejoin="round" stroke-width="__RESOLUTION__" d="M10.1.3 9.5 0 5.8 3.1l.1 3.7.8.5m-.2.8-.7-.4.3 3.8 1 .7" vector-effect="non-scaling-stroke"/><path fill="none" stroke="#4a1e41" stroke-linecap="round" stroke-linejoin="round" stroke-width="__RESOLUTION__" d="m9.5 6.9-.8-2.6L11 1.1l-.8-.8m-3 12 3.2 1.9.8-1.4-2.1-2L9.5 8m-3.1.3" vector-effect="non-scaling-stroke"/><path fill="#ed9c16" d="M6.5 6.2h3v2.3l-3 .7z"/><path fill="#cc8512" d="m6.6 9.3-1.4-.9V5.7l1.3.5z"/><path fill="none" stroke="#99640d" stroke-linecap="round" stroke-linejoin="round" stroke-opacity=".7" stroke-width="__RESOLUTION__" d="M6.5 6.2h3v2.3l-3 .7" vector-effect="non-scaling-stroke"/><path fill="#d08133" d="m6.2 7.6.2.7-4.8.3-.2-.6z"/><path fill="#a44f11" d="M6.2 7.6 1.4 8l-.1-.6 4.8-.6z"/><path fill="#632856" d="M.4 8.8 0 8l.3-.7L1 7h.5Q1.4 8.4.4 8.9"/><path fill="#803473" d="M.4 8.8q1-.4 1.1-1.7l.2.2q.3.3.4.7l-.4.7Q1.4 9 1 9z"/><path fill="none" stroke="#3d1933" stroke-linecap="round" stroke-linejoin="round" stroke-width="__RESOLUTION__" d="M1.5 7H1l-.7.3L0 8l.3.7.1.1.7.2q.4 0 .6-.3l.4-.8q-.1-.4-.4-.7z" vector-effect="non-scaling-stroke"/></g><g id="y"><path fill="#dbbb85" d="m7.2 15.5-.7.2-1-.1q-1-.5-1.3-1.9l-.7-2 3.6.5q1 1.8 0 3.3"/><path fill="#b3996d" d="m7.2 12.2 2.6.3q.3 1.7 1.2 3.3l-3.8-.3q.9-1.5 0-3.3"/><path fill="none" stroke="#1f1f1f" stroke-linecap="round" stroke-linejoin="round" stroke-opacity=".3" stroke-width="__RESOLUTION__" d="m7.2 15.5-.7.2-1-.1q-1-.5-1.3-1.9l-.7-2" vector-effect="non-scaling-stroke"/><path fill="#d4cbad" d="m7.5 4.4 6-3-3.6 7.8z"/><path fill="none" stroke="#523109" stroke-linecap="round" stroke-linejoin="round" stroke-opacity=".3" stroke-width="__RESOLUTION__" d="m9.9 9.2 3.6-7.8-6 3" vector-effect="non-scaling-stroke"/><path fill="#d4cbad" d="M5.9 6.5q2.7-1.5 5-1.3 1.7 4.7-.8 7.8-.3.8-2 .5L6.7 9.7z"/><path fill="#fbf0cc" d="m5.9 6.5.7 3.2 1.6 3.8h-.4q-1.6-1.2-4.4-1.8L3.6 8z"/><path fill="#fbf0cc" d="M4.6 5 10 0l-.5 1.7-3.8 5.7z"/><path fill="#d4cbad" d="m5.8 7.4 3.8-5.8-1.7 5z"/><path fill="none" stroke="#523109" stroke-linecap="round" stroke-linejoin="round" stroke-opacity=".3" stroke-width="__RESOLUTION__" d="M9.6 1.7 10 0 4.6 5m5-3.3L7.9 6.6" vector-effect="non-scaling-stroke"/><path fill="#d4cbad" d="M11.2 6.3h4.5l-3.8 4.8z"/><path fill="none" stroke="#523109" stroke-linecap="round" stroke-linejoin="round" stroke-opacity=".3" stroke-width="__RESOLUTION__" d="m11.9 11 3.8-4.7h-4.5" vector-effect="non-scaling-stroke"/><path fill="#fbf0cc" d="m8.6 7.2 4.7-2.5-3.7 3.7z"/><path fill="#d4cbad" d="m9.6 8.4 3.7-3.6-1.7 6z"/><path fill="none" stroke="#523109" stroke-linecap="round" stroke-linejoin="round" stroke-opacity=".3" stroke-width="__RESOLUTION__" d="M13.3 4.8 8.6 7.2m4.7-2.4-1.7 6" vector-effect="non-scaling-stroke"/><path fill="#d4cbad" d="m9.4 10.7 3.7.6-3.2 3z"/><path fill="none" stroke="#523109" stroke-linecap="round" stroke-linejoin="round" stroke-opacity=".3" stroke-width="__RESOLUTION__" d="m9.9 14.3 3.1-3-3.6-.7" vector-effect="non-scaling-stroke"/><path fill="#d4cbad" d="M4.1 10.7 0 12.4l2.7-3.5z"/><path fill="none" stroke="#523109" stroke-linecap="round" stroke-linejoin="round" stroke-opacity=".3" stroke-width="__RESOLUTION__" d="M2.7 8.9 0 12.4l4.1-1.7" vector-effect="non-scaling-stroke"/><path fill="#fbf0cc" d="m3.5 7.7 2.3-5v5.9z"/><path fill="none" stroke="#523109" stroke-linecap="round" stroke-linejoin="round" stroke-opacity=".3" stroke-width="__RESOLUTION__" d="M5.8 8.6V2.8L3.5 7.7" vector-effect="non-scaling-stroke"/><path fill="#fbf0cc" d="m4.4 8.7 2.4-.9L8 12.2z"/><path fill="none" stroke="#523109" stroke-linecap="round" stroke-linejoin="round" stroke-opacity=".3" stroke-width="__RESOLUTION__" d="M4.4 8.7 8 12.2 6.8 7.8" vector-effect="non-scaling-stroke"/><path fill="#fbf0cc" d="m3 10-.2-5.5 2.6 5.2z"/><path fill="none" stroke="#523109" stroke-linecap="round" stroke-linejoin="round" stroke-opacity=".3" stroke-width="__RESOLUTION__" d="M5.4 9.7 2.7 4.6 3 10" vector-effect="non-scaling-stroke"/><path fill="#d4cbad" d="M7 12.6 9.8 11l-1 3.3z"/><path fill="none" stroke="#523109" stroke-linecap="round" stroke-linejoin="round" stroke-opacity=".3" stroke-width="__RESOLUTION__" d="m8.8 14.3 1-3.3L7 12.6" vector-effect="non-scaling-stroke"/><path fill="#dbbb85" d="M4.5 11.9q1-1.3 2.5-1.6l-.3 1.5-1.3 1.6q-1.2-.4-1-1.5"/><path fill="none" stroke="#1f1f1f" stroke-linecap="round" stroke-linejoin="round" stroke-opacity=".3" stroke-width="__RESOLUTION__" d="m5.4 13.4 1.2-1.6.3-1.5q-1.5.3-2.5 1.6" vector-effect="non-scaling-stroke"/></g><g id="z"><path fill="#751802" d="m5 .2.2-.1L6.5 0 7 2.2 5.7 3.8 4.6 1.6z"/><path fill="#8d1f03" d="m5 .2-.6 1.3 1.2 2.3-5.2-.1Q.1 3.6 0 3l1.3-1.5 2.4-1z"/><path fill="none" stroke="#1c1c1c" stroke-linecap="round" stroke-linejoin="round" stroke-opacity=".5" stroke-width="__RESOLUTION__" d="m5.6 3.8 1.3-1.6L6.4 0M3.7.5l-2.4 1Q0 3 0 3.3t.4.4l5.2.2" vector-effect="non-scaling-stroke"/></g><g id="A"><path fill="#52514b" d="M4.8 10.4q-1 .7-3.2.6-.4-.5-1.2-4.2-.5-2.3-.3-5.1 1.4-3.1 4.4-.5.7 1.2.1 4 .5 2.7.1 5.2"/><path fill="none" stroke="#1f1f1f" stroke-linecap="round" stroke-linejoin="round" stroke-opacity=".3" stroke-width="__RESOLUTION__" d="M4.8 10.4q.4-2.5-.1-5.2.6-2.9-.2-4M0 1.7q-.3 2.8.3 5 .8 3.8 1.1 4.4" vector-effect="non-scaling-stroke"/></g><g id="B"><path fill="#8d1f03" d="M4.3 2.6 4 3l-.4 1.7L3 8.2l-1 .3h-.5Q1 6.3 2 4.4l-.1-1 .6-1L3.3 1q.8.7 1 1.6"/><path fill="#751802" d="M1.6 8.5.5 8.3V8Q0 5 1.1 2.2L3.2 1l-.7 1.5-.7.9.1 1q-.9 1.9-.3 4"/><path fill="#661502" d="m.5 8.3-.3-.4q-.5-4 .4-6l2-1.4q.8-1 1.3 0l.6 1q.2 1-.2 1.1Q4 1.6 3.2 1L1.1 2.3Q0 5.1.5 8.2z"/><path fill="none" stroke="#4f0e01" stroke-linecap="round" stroke-linejoin="round" stroke-width="__RESOLUTION__" d="m.5 8.3-.3-.4q-.5-4 .4-6l2-1.4q.8-1 1.3 0l.6 1" vector-effect="non-scaling-stroke"/></g><g id="C"><path fill="#8d1f03" d="M1.9.1 3.3 0l.4 2.9-2-.6L0 1.9Q-.2 1.2.3.6z"/><path fill="#751802" d="M3.7 2.9 3.3 0l1.8.1q.2.2.3 2z"/><path fill="none" stroke="#1c1c1c" stroke-linecap="round" stroke-linejoin="round" stroke-opacity=".5" stroke-width="__RESOLUTION__" d="M1.9.1.3.6q-.5.6-.2 1.3l1.6.4 2 .6M5 .1q.3.2.4 2l-1.7.7" vector-effect="non-scaling-stroke"/></g><g id="D"><path fill="#dbbb85" d="M.9 1.4Q1.8-.2 2.4.1l.7.5.3.3.2-.4h.1Q4.9.3 6 .9q.2 1.5-.6 1.4h-.7L4 2.2q-.3.6-.9.6Q1.7 2.3.9 1.4m3.8.9.7.4-.4 1-.6.3q0 .6-.3 1.2l-1 .1q-.2-.7.2-1.4h.4q-.1-.8.2-1.5l.7-.1zm-1 1.6.7.2z"/><path fill="#b89d70" d="M3 5.3h-.9Q1.3 5.6.6 5-.6 3 .8 1.5l.1-.1q.8.9 2.1 1.5.6 0 .9-.7h.7v.1l-.6.1q-.4.7-.3 1.5h-.4Q3 4.6 3 5.3"/><path fill="none" stroke="#1f1f1f" stroke-linecap="round" stroke-linejoin="round" stroke-opacity=".3" stroke-width="__RESOLUTION__" d="M.9 1.4Q1.8-.2 2.4.1l.7.5.3.3.2-.4h.1Q4.9.3 6 .9q.2 1.5-.6 1.4h-.7m0 0 .8.4-.4 1-.6.3q0 .6-.3 1.2l-1 .1v0H2Q1.3 5.6.6 5m3.8-1-.7-.2-.4.1" vector-effect="non-scaling-stroke"/></g><g id="b"><path fill="#7d1702" d="m4.1 1.4-.5.9V3L3 2Q3.4.6 3.9.3h.6q-.3.6.2 1zm.4 6.7q.2.4 1.1.5l.5-.1v.8h-.6q-1 0-1.3-.7-.1-.2.3-.5"/><path fill="#661502" d="m3.6 2.3.5-.9h.7l1.7.5q1.3 3.2.5 6l-1 .6h-.4q-.9 0-1.1-.4-1-2.9-1-5.8"/><path fill="#bd2703" d="M4.8 1.4q-.6-.3-.2-1 1.4 0 2.8 1 1.2 3.2.3 7.3l-1.5.6-.1-.8.9-.6q.8-2.9-.5-6z"/><path fill="none" stroke="#45303b" stroke-linecap="round" stroke-linejoin="round" stroke-width="__RESOLUTION__" d="M4.6.5h-.7Q3.5.8 3.1 2l.4 1v-.8m1 5.8q-.4.3-.3.5.4.7 1.3.8l.7-.1 1.5-.6q.9-4.1-.3-7.3Q6 .4 4.5.4" vector-effect="non-scaling-stroke"/><path fill="none" stroke="#734e19" stroke-linecap="round" stroke-linejoin="round" stroke-width="__RESOLUTION__" d="M3.6 2.3q0 2.9.9 5.8" vector-effect="non-scaling-stroke"/><path fill="#d12b04" d="m1.8.9-.1 2.4-.8-.7V0z"/><path fill="#8d1f03" d="M1.7 3.3 1.8.9l2.7 1q.5 1 .3 1.8z"/><path fill="#661502" d="M1.8.9.8 0l3.4 1.4.2.6z"/><path fill="none" stroke="#5c1301" stroke-linecap="round" stroke-linejoin="round" stroke-width="__RESOLUTION__" d="M1.8.9.8 0 1 2.6l.8.7 3.1.4q.2-.8-.3-1.8m-.3-.5L.9 0" vector-effect="non-scaling-stroke"/><path fill="#8d1f03" d="M4.7 6.8q.7.6.9 1.4L3.7 10l-.9-2.5z"/><path fill="#d12b04" d="M3.7 10 3 9.8 1.9 7.3l.9.2z"/><path fill="#661502" d="m1.9 7.3 2.4-.9.4.3-1.9.7z"/><path fill="none" stroke="#5c1301" stroke-linecap="round" stroke-linejoin="round" stroke-width="__RESOLUTION__" d="M4.7 6.8q.7.6.9 1.4L3.7 10 3 9.8 1.9 7.3l2.4-.9m-1.5 1-.9-.1" vector-effect="non-scaling-stroke"/><path fill="#8d1f03" d="M4.5 4.3q.8.7.7 1.5l-3.6 1-.4-2.5z"/><path fill="#d12b04" d="m1.6 6.8-1-.4L0 3.7l1.2.5z"/><path fill="#661502" d="m0 3.9 4-.1.5.5H1.2z"/><path fill="none" stroke="#5c1301" stroke-linecap="round" stroke-linejoin="round" stroke-width="__RESOLUTION__" d="M4.5 4.3q.8.7.7 1.5l-3.6 1-1-.4L0 3.7h4m-2.8.5L0 3.9" vector-effect="non-scaling-stroke"/></g><g id="d"><path fill="#332207" fill-opacity=".3" d="m4.4 1.8 1 .2h2q.8-.1.5-1.3l1.3.7.9 2.4q0 2-.7 3.1l-.5.9q-.6 1.3-.4 3.3l-.5.3-1.9.8-2 .5h-.2l-.4-.1q-1.3-.5-1-2.7l.2-1 .1-.4.1-.3q1.3-4 .4-5.7z"/><path fill="#b3996d" d="M6.9 0 8 .8q.3 1.1-.5 1.2H5.4l-1-.2-.1-.1q-.9-.5-.7-1Q5.8 0 6.9 0"/><path fill="#343340" d="M3.9 12.7h.3l2-.5q1-.3 1.9-.8l.4 1.5-2 .7-2.7.2-.2-1.1z"/><path fill="#4e4b5f" d="M3.8 13.8h-.1q-1.2-.3-1.9-1.2v-.1l.6.2h1.2z"/><path fill="none" stroke="#1f1f1f" stroke-linecap="round" stroke-linejoin="round" stroke-opacity=".5" stroke-width="__RESOLUTION__" d="m3.6.8-1.7.7q-.6.3-1.3 2.3t-.1 3l-.1.1q-.8 3.7.1 4.8M6.9 0q1.6 0 2.4 1.4l.8 2.4q0 2-.7 3.1l-.5.9L8.6 9q-.2.9-.1 2.1" vector-effect="non-scaling-stroke"/><path fill="none" stroke="#1c1c1c" stroke-linecap="round" stroke-linejoin="round" stroke-opacity=".5" stroke-width="__RESOLUTION__" d="m8 11.4.5 1.5m-6.7-.3.7.2h1.4" vector-effect="non-scaling-stroke"/><path fill="#52514b" d="m.7 13.5-.1-1.8q3.8 1.7 8-.6l.3 1.3q-2.7 2.7-8.2 1"/></g><g id="f"><path fill="none" stroke="#1c1c1c" stroke-linecap="round" stroke-linejoin="round" stroke-opacity=".5" stroke-width="__RESOLUTION__" d="M1.3 0 0 7.7l1.7 1 5.5.2L10 7.7q-.8-1.4-.8-4.1 0-2.2-1-3.1" vector-effect="non-scaling-stroke"/><path fill="#332207" fill-opacity=".3" d="M10 7.7q-1.6.8-3 1.2l-4 .3q-.7-3.6.7-8.2L8.3.5q1 .9 1 3.1 0 2.7.7 4.1"/></g><g id="g"><path fill="#661502" d="m6.2 7.4-2.6.5-.6-.6 2.5-.5z"/><path fill="#8d1f03" d="m3.6 7.9 2.6-.5L6 9.6l-2.4-.2z"/><path fill="none" stroke="#5c1301" stroke-linecap="round" stroke-linejoin="round" stroke-width="__RESOLUTION__" d="m6.2 7.4-.7-.6-2.5.5m.6 2.1 2.4.3.2-2.3" vector-effect="non-scaling-stroke"/><path fill="#661502" d="m2.3 5.3 3-1.7.9.2-3 1.7z"/><path fill="#8d1f03" d="M6.2 3.9 6.4 6l-3 .9-.2-1.4z"/><path fill="none" stroke="#5c1301" stroke-linecap="round" stroke-linejoin="round" stroke-width="__RESOLUTION__" d="m2.3 5.3 3-1.7.9.2.2 2.3-3 .9" vector-effect="non-scaling-stroke"/><path fill="#661502" d="M1 3.4 2.6 0 4 .2 1.9 3.7z"/><path fill="#8d1f03" d="m4 .2 1 2-2.5 2.6-.6-1.1z"/><path fill="none" stroke="#5c1301" stroke-linecap="round" stroke-linejoin="round" stroke-width="__RESOLUTION__" d="M1 3.4 2.6 0 4 .2l1 2-2.5 2.6" vector-effect="non-scaling-stroke"/><path fill="#bd2703" d="m1 7.9.3.6.5.7H2l.4-.1q.6-.2 1.1-.6 0-3-1.3-5.3l-.8-.4H.9l-.5.6L0 3q.1-.6.7-.8l.5-.1 1.2.3q1.8 3.4 1.8 6.4-.7 1-1.7 1.2H2L1 8.8z"/><path fill="#661502" d="m.4 3.4.6-.5h.3l.8.3q1.4 2.3 1.3 5.3-.5.5-1.1.6h-.4v.1l-.6-.6-.2-.7Q.4 5.7.4 3.4"/></g><g id="k"><path fill="none" stroke="#1f1f1f" stroke-linecap="round" stroke-linejoin="round" stroke-opacity=".3" stroke-width="__RESOLUTION__" d="M5.7 10.7q-.1-.1.7-1.5l.5-1.6 1-1.1M3 5.1q-.6.5-.6 1.5l-.1 1.8q-.6.6 0 1.7" vector-effect="non-scaling-stroke"/><path fill="#332207" fill-opacity=".3" d="m6.8 7.6-.4 1.6q-.9 1.4-.8 1.5l-1.3-.1 1-3.3L3 6v-.8l-.1-.4L4.1 6q2.3.2 3.7-.7v1.2z"/><path fill="#bd2703" d="m7 1.2-1 .1q-1.4 1.6-3.4.5l-.9-.5q1.9.1 3.7-1 .8-.1 1.5.8z"/><path fill="#8d1f03" d="M2.6 1.8q2 1 3.4-.5l1-.1 1.5 1.4-.4 2-.1.1q-2.2 1-3.9.4L2.9 2.5z"/><path fill="#a17638" d="M7 1.2V1z"/><path fill="#7d1702" d="M7 1.1Q6.2.2 5.3.3h2.4zm-5.3.2.9.5.3.7-1.2-.3-1-.7z"/><path fill="#661502" d="M2.9 2.5 4.1 5q1.7.7 3.9-.4h.1l.4-2.2L7 1.2V1l.7-.9 1.5 2q.7 1.7-.7 3.1-2.5 1.4-5.2.4l-.4-1.3v-.1l-1.2-2z"/><path fill="#5e3e14" d="m1.7 2.2 1.2 2v.2-.2.2L0 4.6l.7-3.1z"/><path fill="none" stroke="#4a0d01" stroke-linecap="round" stroke-linejoin="round" stroke-width="__RESOLUTION__" d="M5.4.4q-1.9 1-3.7.9l-1 .2 1 .7 1.2 2v.2l.4 1.3q2.7 1 5.2-.4 1.4-1.4.7-3.1L7.7.1zM4 5q1.7.7 3.9-.4H8l.4-2.2M2.9 4.3 0 4.6l.7-3.1" vector-effect="non-scaling-stroke"/></g><g id="T" transform="translate(5.7 3.55)"><use xlink:href="#a" width="4.6" height="7.9" transform="translate(-1.65 -2.4)"/><use xlink:href="#b" width="8.1" height="10" transform="translate(-5.7 -3.55)"/></g><g id="Q"><use xlink:href="#c" width="10.1" height="12.7"/><use xlink:href="#d" width="10.1" height="14.1"/></g><g id="P"><use xlink:href="#e" width="10" height="9.3"/><use xlink:href="#f" width="10" height="9.3"/></g><g id="J" transform="translate(2.7 4.15)"><use xlink:href="#g" width="6.3" height="10" transform="translate(-1.35 -4.15)"/><use xlink:href="#h" width="4.5" height="7.2" transform="translate(-2.7 -1.85)"/><use xlink:href="#i" width="1.8" height="4.6" transform="translate(-2.7 .75)"/></g><g id="H" transform="translate(5.7 3.45)"><use xlink:href="#j" width="5.9" height="8.8" transform="translate(-3.7 -1.5)"/><use xlink:href="#k" width="9.4" height="10.7" transform="translate(-5.7 -3.45)"/></g><use xlink:href="#l" id="a" width="4.6" height="7.9"/><use xlink:href="#m" id="c" width="10.1" height="12.7"/><use xlink:href="#n" id="e" width="10" height="9.3"/><use xlink:href="#o" id="h" width="4.5" height="7.2"/><use xlink:href="#p" id="j" width="5.9" height="8.8"/><use xlink:href="#q" id="af" width="6.9" height="3.8"/><use xlink:href="#r" id="ad" width="6.9" height="3.8"/><use xlink:href="#s" id="ab" width="6.9" height="3.8"/><use xlink:href="#t" id="Z" width="6.9" height="3.8"/><use xlink:href="#u" id="X" width="6.9" height="3.8"/><use xlink:href="#v" id="V" width="6.9" height="3.8"/><use xlink:href="#w" id="S" width="4" height="5"/><use xlink:href="#x" id="R" width="24.9" height="14.2"/><use xlink:href="#y" id="O" width="15.7" height="15.8"/><use xlink:href="#z" id="N" width="6.9" height="3.8"/><use xlink:href="#A" id="M" width="5" height="11.1"/><use xlink:href="#B" id="L" width="4.5" height="8.4"/><use xlink:href="#C" id="K" width="5.4" height="2.9"/><use xlink:href="#D" id="I" width="6" height="5.5"/><use xlink:href="#E" id="G" width="14.7" height="4.3"/><path id="l" fill="#2d212e" d="m2.3-.9-.7 4.3-.6.2-1.5.4q-1-1.1-1.2-3.2l-.5-3.1q-.2-.7.3-1.6h4z" transform="translate(2.3 3.95)"/><path id="m" fill="#2d212e" d="M1.9-6.3q1.5 0 2.4 1.4L5-2.5q0 2-.7 3l-.6 1q-.6 1.3-.4 3.3L3 5l-1.9.9-2 .4h-1.7l-.6-.1-1.1-.7q-1.2-.9-.3-5V.4q-.5-1 .2-3t1.3-2.2l1.6-.8q-.1.4.8 1l1 .3h2.2q.7-.1.5-1.3z" transform="translate(5.05 6.35)"/><path id="n" fill="#2d212e" d="M3.3-4.2q.9.9.9 3.2 0 2.7.8 4-1.5.8-2.8 1.2l-4.1.3-1.4-.4L-5 3l1.3-7.6q1 .8 2.6 1 1.8.1 4.4-.6" transform="translate(5 4.65)"/><path id="o" fill="#2d212e" d="M1.4-2.7 2 0q.5 1.7.1 3.2L.5 3l-1 .6q-.1-1.2-.9-2.2L-2.2-1 .6-3.6q.6.3.7.9" transform="translate(2.25 3.6)"/><path id="p" fill="#2d212e" d="M-2-1.1q-.2-2.4 1.1-3.2 1.5-.2 2.8 1Q3-2 2.8.2l-1 1.1-.4 1.6Q.6 4.3.8 4.4L-2.6 4q-.6-1.2-.1-1.8.2-.3.2-1.8-.1-1 .5-1.5" transform="translate(2.95 4.35)"/><path id="E" fill="#382c16" d="M5.8-1.9Q7.9-1.4 8-.5 8 .3 5.9 1 3.8 1.8.7 2l-5.2-.4Q-6.7 1.2-6.7.3q-.1-.8 2-1.6 2.2-.8 5.2-.9z" transform="translate(6.75 2.25)"/><path id="i" fill="none" stroke="#1c1c1c" stroke-linecap="round" stroke-linejoin="round" stroke-opacity=".5" stroke-width="__RESOLUTION__" d="m-2.7.8.9 2.3q.8 1 .9 2.3" transform="translate(2.7 -.75)" vector-effect="non-scaling-stroke"/></defs><g clip-path="url(#F)"><g transform="translate(30.7 48.75)"><use xlink:href="#G" width="14.7" height="4.3" transform="matrix(.8 0 0 .8008 -5.4 -1.8)"/><use xlink:href="#H" width="9.4" height="10.7" transform="matrix(-.7629 .059 .147 .7423 7.25 -28.65)"/><use xlink:href="#I" width="6" height="5.5" transform="matrix(.1255 .669 .6668 .0763 5.35 -17.6)"/><use xlink:href="#J" width="7.7" height="10" transform="matrix(.8425 -.2017 .145 .742 3.2 -23.85)"/><use xlink:href="#K" width="5.4" height="2.9" transform="matrix(1.0005 -.0152 -.0321 .9505 -7.5 -3.75)"/><use xlink:href="#L" width="4.5" height="8.4" transform="matrix(-.8341 -.0284 -.13 .7067 -.9 -9.4)"/><use xlink:href="#M" width="5" height="11.1" transform="matrix(.7403 .6613 -.4638 .7136 -.85 -17.15)"/><use xlink:href="#N" width="6.9" height="3.8" transform="matrix(.8575 -.0429 .2322 1.0069 .3 -.2)"/><use xlink:href="#L" width="4.5" height="8.4" transform="matrix(-.817 .5935 .3461 .8245 3.15 -7.2)"/><use xlink:href="#O" width="15.7" height="15.8" transform="matrix(.9841 .139 -.1833 .9898 -6.85 -44.75)"/><use xlink:href="#M" width="5" height="11.1" transform="matrix(.9841 -.1744 .1842 1.006 -3.75 -14.75)"/><use xlink:href="#P" width="10" height="9.3" transform="matrix(.8508 -.2316 .2512 .9556 -4.5 -15.7)"/><use xlink:href="#Q" width="10.1" height="14.1" transform="matrix(.8902 .1707 .081 .941 -5.25 -29.8)"/><use xlink:href="#H" width="9.4" height="10.7" transform="matrix(.7241 .3778 -.1992 .882 -7.45 -30.45)"/><use xlink:href="#R" width="24.9" height="14.2" transform="matrix(-.9036 .2414 .2634 .9552 -7.15 -23.2)"/><use xlink:href="#S" width="4" height="5" transform="matrix(.8937 .5536 -.2835 .9968 -10.05 -18.6)"/><use xlink:href="#T" width="8.7" height="10" transform="matrix(-.5674 -.6676 -.493 .5719 -2.05 -17.15)"/></g></g><g clip-path="url(#U)"><g transform="translate(72.7 48.75)"><use xlink:href="#G" width="14.7" height="4.3" transform="matrix(.8 0 0 .8008 -5.4 -1.8)"/><use xlink:href="#H" width="9.4" height="10.7" transform="matrix(-.767 .0511 .1508 .7552 7 -29.25)"/><use xlink:href="#I" width="6" height="5.5" transform="matrix(.1246 .6694 .6672 .0791 4.9 -17.95)"/><use xlink:href="#J" width="7.7" height="10" transform="matrix(.8527 -.1588 .1129 .755 3.25 -24.4)"/><use xlink:href="#K" width="5.4" height="2.9" transform="matrix(1.0004 -.0133 -.0293 .9546 -6.9 -3.55)"/><use xlink:href="#L" width="4.5" height="8.4" transform="matrix(-.8405 -.0148 -.1181 .722 -.45 -9.45)"/><use xlink:href="#M" width="5" height="11.1" transform="matrix(.7735 .6177 -.4398 .7516 -.85 -17.35)"/><use xlink:href="#V" width="6.9" height="3.8" transform="matrix(.8124 -.3002 .49 .8816 -.35 .45)"/><use xlink:href="#L" width="4.5" height="8.4" transform="matrix(-.8025 .602 .3562 .8165 2.45 -7.9)"/><use xlink:href="#O" width="15.7" height="15.8" transform="matrix(.9859 .126 -.1665 .9917 -7.15 -45.05)"/><use xlink:href="#M" width="5" height="11.1" transform="matrix(.9907 -.1265 .1239 1.0086 -3.75 -15.25)"/><use xlink:href="#P" width="10" height="9.3" transform="matrix(.8695 -.2091 .2312 .9615 -4.5 -16.25)"/><use xlink:href="#Q" width="10.1" height="14.1" transform="matrix(.8974 .1423 .0876 .9461 -5.4 -30.1)"/><use xlink:href="#H" width="9.4" height="10.7" transform="matrix(.7445 .329 -.1575 .8895 -7.55 -30.65)"/><use xlink:href="#R" width="24.9" height="14.2" transform="matrix(-.9151 .1915 .2193 .9654 -6.35 -22.8)"/><use xlink:href="#S" width="4" height="5" transform="matrix(.9317 .4915 -.2174 .978 -9.8 -18.45)"/><use xlink:href="#T" width="8.7" height="10" transform="matrix(-.5883 -.6452 -.459 .5854 -1.4 -17.65)"/></g></g><g clip-path="url(#W)"><g transform="translate(114.7 48.75)"><use xlink:href="#G" width="14.7" height="4.3" transform="matrix(.8 0 0 .8008 -5.4 -1.8)"/><use xlink:href="#H" width="9.4" height="10.7" transform="matrix(-.7709 .0473 .1566 .7682 6.85 -29.85)"/><use xlink:href="#I" width="6" height="5.5" transform="matrix(.1248 .67 .6679 .082 4.35 -18.35)"/><use xlink:href="#J" width="7.7" height="10" transform="matrix(.8609 -.1178 .078 .7672 3 -25)"/><use xlink:href="#K" width="5.4" height="2.9" transform="matrix(1.0004 -.0097 -.0256 .9588 -6.3 -3.45)"/><use xlink:href="#L" width="4.5" height="8.4" transform="matrix(-.8468 -.0005 -.1072 .7373 .05 -9.4)"/><use xlink:href="#M" width="5" height="11.1" transform="matrix(.8043 .5751 -.4132 .7904 -.8 -17.6)"/><use xlink:href="#X" width="6.9" height="3.8" transform="matrix(.6924 -.5335 .6982 .6949 -.5 .95)"/><use xlink:href="#L" width="4.5" height="8.4" transform="matrix(-.788 .6128 .369 .8081 1.75 -8.65)"/><use xlink:href="#O" width="15.7" height="15.8" transform="matrix(.988 .1135 -.1497 .9938 -7.45 -45.25)"/><use xlink:href="#M" width="5" height="11.1" transform="matrix(.9954 -.079 .0623 1.0084 -3.65 -15.9)"/><use xlink:href="#P" width="10" height="9.3" transform="matrix(.8884 -.1853 .2107 .9679 -4.7 -16.85)"/><use xlink:href="#Q" width="10.1" height="14.1" transform="matrix(.9045 .1118 .0963 .9512 -5.45 -30.35)"/><use xlink:href="#H" width="9.4" height="10.7" transform="matrix(.7617 .2819 -.1182 .8953 -7.75 -30.85)"/><use xlink:href="#R" width="24.9" height="14.2" transform="matrix(-.9237 .1464 .1769 .9741 -5.55 -22.55)"/><use xlink:href="#S" width="4" height="5" transform="matrix(.9671 .4268 -.156 .9557 -9.7 -18.35)"/><use xlink:href="#T" width="8.7" height="10" transform="matrix(-.6093 -.6232 -.4249 .5986 -.8 -18.05)"/></g></g><g clip-path="url(#Y)"><g transform="translate(156.7 48.75)"><use xlink:href="#G" width="14.7" height="4.3" transform="matrix(.8 0 0 .8008 -5.4 -1.8)"/><use xlink:href="#H" width="9.4" height="10.7" transform="matrix(-.775 .041 .1599 .7816 6.6 -30.4)"/><use xlink:href="#I" width="6" height="5.5" transform="matrix(.1251 .6706 .6688 .0829 3.85 -18.75)"/><use xlink:href="#J" width="7.7" height="10" transform="matrix(.8672 -.0763 .0448 .7777 2.95 -25.5)"/><use xlink:href="#K" width="5.4" height="2.9" transform="matrix(1.0004 -.0094 -.0219 .963 -5.75 -3.3)"/><use xlink:href="#L" width="4.5" height="8.4" transform="matrix(-.8528 .0112 -.0958 .7524 .6 -9.35)"/><use xlink:href="#M" width="5" height="11.1" transform="matrix(.8345 .5283 -.3867 .827 -.75 -17.75)"/><use xlink:href="#Z" width="6.9" height="3.8" transform="matrix(.5043 -.7242 .8447 .4606 -.35 1.25)"/><use xlink:href="#L" width="4.5" height="8.4" transform="matrix(-.7733 .6234 .379 .8008 1 -9.45)"/><use xlink:href="#O" width="15.7" height="15.8" transform="matrix(.9896 .1042 -.136 .9953 -7.7 -45.5)"/><use xlink:href="#M" width="5" height="11.1" transform="matrix(.9979 -.0313 .0046 1.0044 -3.6 -16.45)"/><use xlink:href="#P" width="10" height="9.3" transform="matrix(.9066 -.1606 .1901 .9739 -4.7 -17.25)"/><use xlink:href="#Q" width="10.1" height="14.1" transform="matrix(.9103 .0839 .1052 .9561 -5.55 -30.55)"/><use xlink:href="#H" width="9.4" height="10.7" transform="matrix(.7759 .234 -.0757 .8996 -7.85 -31.15)"/><use xlink:href="#R" width="24.9" height="14.2" transform="matrix(-.9305 .098 .1342 .9809 -4.75 -22.2)"/><use xlink:href="#S" width="4" height="5" transform="matrix(.9984 .362 -.0981 .93 -9.55 -18.1)"/><use xlink:href="#T" width="8.7" height="10" transform="matrix(-.6298 -.6023 -.3929 .6096 -.15 -18.55)"/></g></g><g clip-path="url(#aa)"><g transform="translate(198.7 48.75)"><use xlink:href="#G" width="14.7" height="4.3" transform="matrix(.8 0 0 .8008 -5.4 -1.8)"/><use xlink:href="#H" width="9.4" height="10.7" transform="matrix(-.779 .0347 .1659 .7945 6.4 -31)"/><use xlink:href="#I" width="6" height="5.5" transform="matrix(.1275 .6707 .6694 .0858 3.4 -19.1)"/><use xlink:href="#J" width="7.7" height="10" transform="matrix(.8715 -.0345 .0108 .7866 2.85 -26.05)"/><use xlink:href="#K" width="5.4" height="2.9" transform="matrix(1.0003 -.0091 -.0213 .9671 -5.15 -3.15)"/><use xlink:href="#L" width="4.5" height="8.4" transform="matrix(-.8586 .0232 -.0815 .7676 1.05 -9.4)"/><use xlink:href="#M" width="5" height="11.1" transform="matrix(.8605 .4828 -.3548 .864 -.7 -17.95)"/><use xlink:href="#ab" width="6.9" height="3.8" transform="matrix(.2683 -.8501 .9171 .2041 .15 1.3)"/><use xlink:href="#L" width="4.5" height="8.4" transform="matrix(-.7586 .6335 .3915 .792 .3 -10.15)"/><use xlink:href="#O" width="15.7" height="15.8" transform="matrix(.9914 .0916 -.1191 .9969 -8.05 -45.8)"/><use xlink:href="#M" width="5" height="11.1" transform="matrix(.998 .0131 -.0526 .9968 -3.55 -16.95)"/><use xlink:href="#P" width="10" height="9.3" transform="matrix(.9241 -.1349 .1692 .9794 -4.75 -17.8)"/><use xlink:href="#Q" width="10.1" height="14.1" transform="matrix(.9154 .0529 .1141 .9611 -5.7 -30.85)"/><use xlink:href="#H" width="9.4" height="10.7" transform="matrix(.7878 .1829 -.036 .9018 -7.95 -31.25)"/><use xlink:href="#R" width="24.9" height="14.2" transform="matrix(-.9347 .0493 .0912 .9858 -3.95 -21.95)"/><use xlink:href="#S" width="4" height="5" transform="matrix(.9913 .3722 -.1081 .9407 -9.15 -18.15)"/><use xlink:href="#T" width="8.7" height="10" transform="matrix(-.6674 -.562 -.3751 .6482 .35 -19)"/></g></g><g clip-path="url(#ac)"><g transform="translate(240.7 48.75)"><use xlink:href="#G" width="14.7" height="4.3" transform="matrix(.8 0 0 .8008 -5.4 -1.8)"/><use xlink:href="#H" width="9.4" height="10.7" transform="matrix(-.7829 .0282 .172 .8074 6.2 -31.65)"/><use xlink:href="#I" width="6" height="5.5" transform="matrix(.1277 .6713 .67 .0889 2.9 -19.45)"/><use xlink:href="#J" width="7.7" height="10" transform="matrix(.8738 .0046 -.0213 .7941 2.75 -26.6)"/><use xlink:href="#K" width="5.4" height="2.9" transform="matrix(1.0003 -.0088 -.0175 .9713 -4.5 -3)"/><use xlink:href="#L" width="4.5" height="8.4" transform="matrix(-.8642 .0381 -.069 .7824 1.5 -9.35)"/><use xlink:href="#M" width="5" height="11.1" transform="matrix(.8853 .4331 -.3233 .8987 -.65 -18.15)"/><use xlink:href="#ad" width="6.9" height="3.8" transform="matrix(.0004 -.9007 .9152 -.0528 .85 1)"/><use xlink:href="#L" width="4.5" height="8.4" transform="matrix(-.7437 .6434 .4012 .7844 -.4 -10.95)"/><use xlink:href="#O" width="15.7" height="15.8" transform="matrix(.993 .079 -.1055 .9979 -8.2 -46.05)"/><use xlink:href="#M" width="5" height="11.1" transform="matrix(.996 .0575 -.1088 .9859 -3.4 -17.65)"/><use xlink:href="#P" width="10" height="9.3" transform="matrix(.9405 -.1115 .1483 .9845 -4.75 -18.35)"/><use xlink:href="#Q" width="10.1" height="14.1" transform="matrix(.9193 .0246 .1231 .9659 -5.75 -31.1)"/><use xlink:href="#H" width="9.4" height="10.7" transform="matrix(.7958 .1339 .0008 .9023 -8.15 -31.5)"/><use xlink:href="#R" width="24.9" height="14.2" transform="matrix(-.9364 .0004 .048 .9889 -3.15 -21.5)"/><use xlink:href="#S" width="4" height="5" transform="matrix(.9832 .3879 -.1217 .9511 -8.65 -18.05)"/><use xlink:href="#T" width="8.7" height="10" transform="matrix(-.7047 -.5188 -.3548 .6876 .9 -19.6)"/></g></g><g clip-path="url(#ae)"><g transform="translate(282.7 48.75)"><use xlink:href="#G" width="14.7" height="4.3" transform="matrix(.8 0 0 .8008 -5.4 -1.8)"/><use xlink:href="#H" width="9.4" height="10.7" transform="matrix(-.7867 .0242 .1755 .8208 6.05 -32.2)"/><use xlink:href="#I" width="6" height="5.5" transform="matrix(.1279 .6719 .6707 .0919 2.4 -19.85)"/><use xlink:href="#J" width="7.7" height="10" transform="matrix(.8739 .0467 -.0566 .7999 2.7 -27.1)"/><use xlink:href="#K" width="5.4" height="2.9" transform="matrix(1.0003 -.0052 -.0137 .9754 -3.9 -2.9)"/><use xlink:href="#L" width="4.5" height="8.4" transform="matrix(-.8696 .0503 -.0562 .7969 2 -9.25)"/><use xlink:href="#M" width="5" height="11.1" transform="matrix(.9074 .3821 -.2864 .9332 -.65 -18.35)"/><use xlink:href="#af" width="6.9" height="3.8" transform="matrix(-.2705 -.868 .8421 -.2989 1.55 .15)"/><use xlink:href="#L" width="4.5" height="8.4" transform="matrix(-.7287 .653 .4133 .7754 -1.2 -11.55)"/><use xlink:href="#O" width="15.7" height="15.8" transform="matrix(.9943 .0696 -.0885 .9991 -8.55 -46.25)"/><use xlink:href="#M" width="5" height="11.1" transform="matrix(.9917 .105 -.1672 .9713 -3.35 -18.2)"/><use xlink:href="#P" width="10" height="9.3" transform="matrix(.9566 -.0841 .1304 .9886 -4.9 -18.9)"/><use xlink:href="#Q" width="10.1" height="14.1" transform="matrix(.9224 -.0009 .1322 .9707 -5.8 -31.35)"/><use xlink:href="#H" width="9.4" height="10.7" transform="matrix(.8008 .0845 .0433 .9007 -8.15 -31.65)"/><use xlink:href="#R" width="24.9" height="14.2" transform="matrix(-.9354 -.0455 .0048 .9901 -2.45 -21.2)"/><use xlink:href="#S" width="4" height="5" transform="matrix(.9761 .4002 -.1355 .9613 -8.25 -18.05)"/><use xlink:href="#T" width="8.7" height="10" transform="matrix(-.7376 -.4756 -.3292 .7276 1.3 -20.2)"/></g></g><g clip-path="url(#ag)"><g transform="translate(324.7 48.75)"><use xlink:href="#G" width="14.7" height="4.3" transform="matrix(.8 0 0 .8008 -5.4 -1.8)"/><use xlink:href="#H" width="9.4" height="10.7" transform="matrix(-.7906 .0177 .1818 .8336 5.85 -32.9)"/><use xlink:href="#I" width="6" height="5.5" transform="matrix(.1282 .6725 .6712 .0949 1.9 -20.2)"/><use xlink:href="#J" width="7.7" height="10" transform="matrix(.8717 .0917 -.0925 .8042 2.65 -27.6)"/><use xlink:href="#K" width="5.4" height="2.9" transform="matrix(1.0002 -.0049 -.0131 .9795 -3.35 -2.7)"/><use xlink:href="#L" width="4.5" height="8.4" transform="matrix(-.8747 .0656 -.0428 .8112 2.45 -9.3)"/><use xlink:href="#M" width="5" height="11.1" transform="matrix(.9254 .3331 -.2501 .9655 -.6 -18.65)"/><use xlink:href="#ab" width="6.9" height="3.8" transform="matrix(-.0763 -.9153 .9375 -.1284 -.3 -.5)"/><use xlink:href="#L" width="4.5" height="8.4" transform="matrix(-.7135 .6622 .4227 .7675 -1.9 -12.45)"/><use xlink:href="#O" width="15.7" height="15.8" transform="matrix(.9956 .057 -.0749 .9997 -8.75 -46.55)"/><use xlink:href="#M" width="5" height="11.1" transform="matrix(.985 .1522 -.2211 .9541 -3.3 -18.8)"/><use xlink:href="#P" width="10" height="9.3" transform="matrix(.972 -.0558 .1092 .9929 -4.95 -19.35)"/><use xlink:href="#Q" width="10.1" height="14.1" transform="matrix(.9244 -.0326 .1382 .9758 -5.9 -31.55)"/><use xlink:href="#H" width="9.4" height="10.7" transform="matrix(.8028 .0351 .0829 .8974 -8.2 -31.8)"/><use xlink:href="#R" width="24.9" height="14.2" transform="matrix(-.9318 -.0943 -.0352 .9892 -1.75 -20.85)"/><use xlink:href="#S" width="4" height="5" transform="matrix(.9689 .4123 -.1497 .9714 -7.8 -18)"/><use xlink:href="#T" width="8.7" height="10" transform="matrix(-.7693 -.4278 -.3029 .7657 1.85 -20.85)"/></g></g><g clip-path="url(#ah)"><g transform="translate(366.7 48.75)"><use xlink:href="#G" width="14.7" height="4.3" transform="matrix(.8 0 0 .8008 -5.4 -1.8)"/><use xlink:href="#H" width="9.4" height="10.7" transform="matrix(-.7944 .011 .1881 .8464 5.6 -33.4)"/><use xlink:href="#I" width="6" height="5.5" transform="matrix(.1284 .6731 .6718 .098 1.4 -20.55)"/><use xlink:href="#J" width="7.7" height="10" transform="matrix(.8676 .1338 -.1315 .8064 2.5 -28.15)"/><use xlink:href="#K" width="5.4" height="2.9" transform="matrix(1.0002 -.0045 -.0092 .9836 -2.8 -2.6)"/><use xlink:href="#L" width="4.5" height="8.4" transform="matrix(-.8795 .0811 -.0289 .8253 2.9 -9.25)"/><use xlink:href="#M" width="5" height="11.1" transform="matrix(.9417 .2802 -.2081 .9969 -.55 -18.85)"/><use xlink:href="#X" width="6.9" height="3.8" transform="matrix(.122 -.9198 .9977 .0619 -2.2 -1.55)"/><use xlink:href="#L" width="4.5" height="8.4" transform="matrix(-.6983 .6711 .4345 .7581 -2.55 -13.1)"/><use xlink:href="#O" width="15.7" height="15.8" transform="matrix(.9968 .0443 -.0579 1.0004 -9.1 -46.8)"/><use xlink:href="#M" width="5" height="11.1" transform="matrix(.9762 .1991 -.2767 .933 -3.2 -19.35)"/><use xlink:href="#P" width="10" height="9.3" transform="matrix(.9864 -.0267 .0879 .9967 -4.95 -20)"/><use xlink:href="#Q" width="10.1" height="14.1" transform="matrix(.9255 -.0614 .1475 .9804 -5.95 -31.8)"/><use xlink:href="#H" width="9.4" height="10.7" transform="matrix(.8017 -.0142 .1222 .8924 -8.25 -31.95)"/><use xlink:href="#R" width="24.9" height="14.2" transform="matrix(-.9256 -.1429 -.0783 .9865 -1.1 -20.45)"/><use xlink:href="#S" width="4" height="5" transform="matrix(.9615 .4244 -.1609 .9817 -7.3 -17.9)"/><use xlink:href="#T" width="8.7" height="10" transform="matrix(-.7979 -.3779 -.2737 .8029 2.25 -21.35)"/></g></g><g clip-path="url(#ai)"><g transform="translate(408.7 48.75)"><use xlink:href="#G" width="14.7" height="4.3" transform="matrix(.8 0 0 .8008 -5.4 -1.8)"/><use xlink:href="#H" width="9.4" height="10.7" transform="matrix(-.7982 .007 .1948 .8597 5.45 -34)"/><use xlink:href="#I" width="6" height="5.5" transform="matrix(.1304 .6738 .6725 .1024 .9 -21)"/><use xlink:href="#J" width="7.7" height="10" transform="matrix(.8618 .1767 -.1688 .8077 2.45 -28.65)"/><use xlink:href="#K" width="5.4" height="2.9" transform="matrix(1.0001 -.0009 -.0053 .9877 -2.15 -2.5)"/><use xlink:href="#L" width="4.5" height="8.4" transform="matrix(-.8843 .0938 -.0118 .8392 3.45 -9.2)"/><use xlink:href="#M" width="5" height="11.1" transform="matrix(.9542 .2297 -.1672 1.026 -.45 -19.1)"/><use xlink:href="#N" width="6.9" height="3.8" transform="matrix(.3241 -.88 1.0156 .278 -4 -2.75)"/><use xlink:href="#L" width="4.5" height="8.4" transform="matrix(-.6848 .6801 .446 .7501 -3.3 -13.85)"/><use xlink:href="#O" width="15.7" height="15.8" transform="matrix(.9977 .0349 -.0442 1.0005 -9.3 -47.05)"/><use xlink:href="#M" width="5" height="11.1" transform="matrix(.9658 .2458 -.3293 .9102 -3.05 -19.9)"/><use xlink:href="#P" width="10" height="9.3" transform="matrix(1 0 .0691 1 -5 -20.45)"/><use xlink:href="#Q" width="10.1" height="14.1" transform="matrix(.9257 -.0936 .1592 .9851 -6.05 -32)"/><use xlink:href="#H" width="9.4" height="10.7" transform="matrix(.7973 -.0646 .1644 .8856 -8.25 -32.15)"/><use xlink:href="#R" width="24.9" height="14.2" transform="matrix(-.9175 -.1916 -.1234 .982 -.35 -20.1)"/><use xlink:href="#S" width="4" height="5" transform="matrix(.9544 .4387 -.1773 .9917 -6.9 -17.85)"/><use xlink:href="#T" width="8.7" height="10" transform="matrix(-.8228 -.33 -.2436 .8392 2.65 -21.95)"/></g></g><g clip-path="url(#aj)"><g transform="translate(450.7 48.75)"><use xlink:href="#G" width="14.7" height="4.3" transform="matrix(.8 0 0 .8008 -5.4 -1.8)"/><use xlink:href="#H" width="9.4" height="10.7" transform="matrix(-.7973 -.0315 .1338 .8637 5.45 -33.55)"/><use xlink:href="#I" width="6" height="5.5" transform="matrix(.1047 .6776 .6679 .1239 .4 -21.15)"/><use xlink:href="#J" width="7.7" height="10" transform="matrix(.8546 .2022 -.1967 .8015 2.1 -28.55)"/><use xlink:href="#K" width="5.4" height="2.9" transform="matrix(1.0001 -.0006 -.0047 .9918 -1.55 -2.35)"/><use xlink:href="#L" width="4.5" height="8.4" transform="matrix(-.8886 .1096 .0003 .8527 3.9 -9.2)"/><use xlink:href="#M" width="5" height="11.1" transform="matrix(.9646 .1755 -.1206 1.0538 -.4 -19.25)"/><use xlink:href="#N" width="6.9" height="3.8" transform="matrix(.4726 -.8084 .9494 .4543 -5.2 -2.9)"/><use xlink:href="#L" width="4.5" height="8.4" transform="matrix(-.7218 .6302 .3825 .7815 -3.25 -13.5)"/><use xlink:href="#O" width="15.7" height="15.8" transform="matrix(.9987 .0222 -.0273 1.0006 -9.65 -47.3)"/><use xlink:href="#M" width="5" height="11.1" transform="matrix(.9554 .284 -.3446 .907 -3.05 -19.8)"/><use xlink:href="#P" width="10" height="9.3" transform="matrix(.9907 .0183 .0523 .9927 -4.95 -20.25)"/><use xlink:href="#Q" width="10.1" height="14.1" transform="matrix(.9115 -.1289 .169 .9797 -6 -31.5)"/><use xlink:href="#H" width="9.4" height="10.7" transform="matrix(.7964 -.0809 .1917 .8799 -8.25 -31.5)"/><use xlink:href="#R" width="24.9" height="14.2" transform="matrix(-.9274 -.131 -.0604 .9873 -.2 -20.5)"/><use xlink:href="#S" width="4" height="5" transform="matrix(.9798 .3676 -.1278 1.0032 -6.4 -17.55)"/><use xlink:href="#T" width="8.7" height="10" transform="matrix(-.8347 -.2884 -.2072 .8452 2.95 -21.9)"/></g></g><g clip-path="url(#ak)"><g transform="translate(492.7 48.75)"><use xlink:href="#G" width="14.7" height="4.3" transform="matrix(.8 0 0 .8008 -5.4 -1.8)"/><use xlink:href="#H" width="9.4" height="10.7" transform="matrix(-.7947 -.0698 .0761 .8638 5.5 -33.05)"/><use xlink:href="#I" width="6" height="5.5" transform="matrix(.0807 .6806 .6631 .1445 -.25 -21.2)"/><use xlink:href="#J" width="7.7" height="10" transform="matrix(.8462 .2313 -.225 .7948 1.85 -28.5)"/><use xlink:href="#K" width="5.4" height="2.9" transform="matrix(1 -.0003 -.0007 .9959 -.95 -2.15)"/><use xlink:href="#L" width="4.5" height="8.4" transform="matrix(-.8926 .1256 .0157 .866 4.35 -9.2)"/><use xlink:href="#M" width="5" height="11.1" transform="matrix(.9716 .124 -.0719 1.0795 -.35 -19.45)"/><use xlink:href="#N" width="6.9" height="3.8" transform="matrix(.6064 -.7134 .8512 .6199 -6.25 -3.25)"/><use xlink:href="#L" width="4.5" height="8.4" transform="matrix(-.7551 .5811 .3192 .8082 -3.1 -13.15)"/><use xlink:href="#O" width="15.7" height="15.8" transform="matrix(.9994 .0095 -.0136 1.0004 -9.9 -47.5)"/><use xlink:href="#M" width="5" height="11.1" transform="matrix(.9431 .3254 -.3615 .9039 -3 -19.8)"/><use xlink:href="#P" width="10" height="9.3" transform="matrix(.9809 .0395 .0351 .9853 -4.85 -20.1)"/><use xlink:href="#Q" width="10.1" height="14.1" transform="matrix(.8958 -.1665 .1811 .9744 -6 -31.1)"/><use xlink:href="#H" width="9.4" height="10.7" transform="matrix(.7951 -.0985 .2189 .8739 -8.25 -30.95)"/><use xlink:href="#R" width="24.9" height="14.2" transform="matrix(-.9338 -.0704 .0006 .9891 0 -20.85)"/><use xlink:href="#S" width="4" height="5" transform="matrix(1.0007 .2974 -.0761 1.0129 -5.95 -17.45)"/><use xlink:href="#T" width="8.7" height="10" transform="matrix(-.8452 -.2475 -.17 .8505 3.35 -21.85)"/></g></g><g clip-path="url(#al)"><g transform="translate(534.7 48.75)"><use xlink:href="#G" width="14.7" height="4.3" transform="matrix(.8 0 0 .8008 -5.4 -1.8)"/><use xlink:href="#H" width="9.4" height="10.7" transform="matrix(-.7901 -.1081 .019 .8601 5.55 -32.6)"/><use xlink:href="#I" width="6" height="5.5" transform="matrix(.0545 .683 .657 .1671 -.7 -21.5)"/><use xlink:href="#J" width="7.7" height="10" transform="matrix(.8376 .2572 -.2531 .7871 1.45 -28.5)"/><use xlink:href="#K" width="5.4" height="2.9" transform="translate(-.35 -2.05)"/><use xlink:href="#L" width="4.5" height="8.4" transform="matrix(-.8969 .1409 .0337 .8789 4.85 -9.2)"/><use xlink:href="#M" width="5" height="11.1" transform="matrix(.9761 .0717 -.0257 1.1028 -.25 -19.65)"/><use xlink:href="#N" width="6.9" height="3.8" transform="matrix(.7217 -.5965 .7271 .7628 -7.1 -3.6)"/><use xlink:href="#L" width="4.5" height="8.4" transform="matrix(-.7869 .5277 .2541 .8297 -2.95 -12.8)"/><use xlink:href="#O" width="15.7" height="15.8" transform="translate(-10.15 -47.75)"/><use xlink:href="#M" width="5" height="11.1" transform="matrix(.9303 .3631 -.3784 .9004 -2.9 -19.6)"/><use xlink:href="#P" width="10" height="9.3" transform="matrix(.9707 .0602 .0213 .9776 -4.75 -19.95)"/><use xlink:href="#Q" width="10.1" height="14.1" transform="matrix(.8785 -.203 .193 .9689 -5.95 -30.6)"/><use xlink:href="#H" width="9.4" height="10.7" transform="matrix(.793 -.1187 .2489 .8662 -8.2 -30.5)"/><use xlink:href="#R" width="24.9" height="14.2" transform="matrix(-.9363 -.0126 .0649 .9865 .2 -21.3)"/><use xlink:href="#S" width="4" height="5" transform="matrix(1.0167 .2262 -.027 1.0199 -5.45 -17.15)"/><use xlink:href="#T" width="8.7" height="10" transform="matrix(-.8531 -.2091 -.1355 .8538 3.7 -21.8)"/></g></g><g clip-path="url(#ax)"><g transform="translate(576.7 48.75)"><use xlink:href="#G" width="14.7" height="4.3" transform="matrix(.8 0 0 .8008 -5.4 -1.8)"/><use xlink:href="#H" width="9.4" height="10.7" transform="matrix(-.7838 -.146 -.0344 .8525 5.4 -32.1)"/><use xlink:href="#I" width="6" height="5.5" transform="matrix(.0303 .6843 .6509 .1872 -1.25 -21.6)"/><use xlink:href="#J" width="7.7" height="10" transform="matrix(.8273 .2856 -.2835 .7775 1.2 -28.45)"/><use xlink:href="#K" width="5.4" height="2.9" transform="matrix(1 0 .0222 1.0022 .05 -1.95)"/><use xlink:href="#L" width="4.5" height="8.4" transform="matrix(-.8946 .1622 .062 .8724 4.95 -9)"/><use xlink:href="#M" width="5" height="11.1" transform="matrix(.9808 .0432 -.0048 1.0901 -.3 -19.2)"/><use xlink:href="#N" width="6.9" height="3.8" transform="matrix(.8164 -.4588 .5794 .8814 -7.9 -4.1)"/><use xlink:href="#L" width="4.5" height="8.4" transform="matrix(-.8134 .4753 .1848 .8466 -2.85 -12.45)"/><use xlink:href="#O" width="15.7" height="15.8" transform="rotate(-.029 -94905.156 20576.276)"/><use xlink:href="#M" width="5" height="11.1" transform="matrix(.9146 .4034 -.3952 .8967 -2.95 -19.55)"/><use xlink:href="#P" width="10" height="9.3" transform="matrix(.96 .0805 .0047 .9697 -4.65 -19.85)"/><use xlink:href="#Q" width="10.1" height="14.1" transform="matrix(.8605 -.2355 .2017 .9639 -6 -30.15)"/><use xlink:href="#H" width="9.4" height="10.7" transform="matrix(.7909 -.1363 .2758 .8584 -8.15 -29.85)"/><use xlink:href="#R" width="24.9" height="14.2" transform="matrix(-.9349 .0452 .1256 .9801 .35 -21.5)"/><use xlink:href="#S" width="4" height="5" transform="matrix(1.0276 .1542 .0225 1.0243 -5 -17)"/><use xlink:href="#T" width="8.7" height="10" transform="matrix(-.8598 -.1677 -.0983 .856 4 -21.65)"/></g></g><g clip-path="url(#ay)"><g transform="translate(618.7 48.75)"><use xlink:href="#G" width="14.7" height="4.3" transform="matrix(.8 0 0 .8008 -5.4 -1.8)"/><use xlink:href="#H" width="9.4" height="10.7" transform="matrix(-.7756 -.1835 -.0923 .8409 5.55 -31.6)"/><use xlink:href="#I" width="6" height="5.5" transform="matrix(.0062 .6848 .6434 .2093 -1.85 -21.8)"/><use xlink:href="#J" width="7.7" height="10" transform="matrix(.8171 .3109 -.311 .7677 .95 -28.45)"/><use xlink:href="#K" width="5.4" height="2.9" transform="matrix(1 0 .0446 1.0038 .45 -1.85)"/><use xlink:href="#L" width="4.5" height="8.4" transform="matrix(-.8924 .1827 .0949 .8645 5.1 -8.8)"/><use xlink:href="#M" width="5" height="11.1" transform="matrix(.9849 .0138 .0144 1.077 -.4 -18.75)"/><use xlink:href="#N" width="6.9" height="3.8" transform="matrix(.8843 -.3095 .4097 .9733 -8.6 -4.65)"/><use xlink:href="#L" width="4.5" height="8.4" transform="matrix(-.8379 .419 .1173 .8574 -2.75 -12.05)"/><use xlink:href="#O" width="15.7" height="15.8" transform="rotate(-.252 -10720.164 2373.924)"/><use xlink:href="#M" width="5" height="11.1" transform="matrix(.8986 .44 -.4092 .894 -2.85 -19.45)"/><use xlink:href="#P" width="10" height="9.3" transform="matrix(.9489 .1004 -.0086 .9614 -4.55 -19.65)"/><use xlink:href="#Q" width="10.1" height="14.1" transform="matrix(.8405 -.2697 .2134 .9582 -5.95 -29.65)"/><use xlink:href="#H" width="9.4" height="10.7" transform="matrix(.7885 -.1539 .3052 .8487 -8.1 -29.3)"/><use xlink:href="#R" width="24.9" height="14.2" transform="matrix(-.9299 .1028 .189 .9694 .5 -21.75)"/><use xlink:href="#S" width="4" height="5" transform="matrix(1.0334 .0818 .0724 1.0261 -4.45 -16.8)"/><use xlink:href="#T" width="8.7" height="10" transform="matrix(-.8645 -.1261 -.0639 .8563 4.3 -21.6)"/></g></g><g clip-path="url(#az)"><g transform="translate(660.7 48.75)"><use xlink:href="#G" width="14.7" height="4.3" transform="matrix(.8 0 0 .8008 -5.4 -1.8)"/><use xlink:href="#H" width="9.4" height="10.7" transform="matrix(-.7649 -.2232 -.1462 .8259 5.5 -31.1)"/><use xlink:href="#I" width="6" height="5.5" transform="matrix(-.0157 .6843 .636 .229 -2.25 -21.9)"/><use xlink:href="#J" width="7.7" height="10" transform="matrix(.805 .3384 -.3382 .757 .55 -28.35)"/><use xlink:href="#K" width="5.4" height="2.9" transform="matrix(1 0 .0703 1.0048 .8 -1.75)"/><use xlink:href="#L" width="4.5" height="8.4" transform="matrix(-.8891 .2061 .1245 .8559 5.2 -8.75)"/><use xlink:href="#M" width="5" height="11.1" transform="matrix(.9881 -.0092 .0331 1.0635 -.35 -18.35)"/><use xlink:href="#N" width="6.9" height="3.8" transform="matrix(.9257 -.1477 .2294 1.0321 -9 -5.25)"/><use xlink:href="#L" width="4.5" height="8.4" transform="matrix(-.8586 .3615 .0493 .8628 -2.7 -11.75)"/><use xlink:href="#O" width="15.7" height="15.8" transform="rotate(-.28 -9565.7 2170.246)"/><use xlink:href="#M" width="5" height="11.1" transform="matrix(.8796 .4789 -.4261 .8898 -2.8 -19.4)"/><use xlink:href="#P" width="10" height="9.3" transform="matrix(.9375 .1199 -.0216 .953 -4.5 -19.45)"/><use xlink:href="#Q" width="10.1" height="14.1" transform="matrix(.8191 -.3026 .225 .9523 -5.95 -29.15)"/><use xlink:href="#H" width="9.4" height="10.7" transform="matrix(.7856 -.1714 .3315 .8391 -8.1 -28.65)"/><use xlink:href="#R" width="24.9" height="14.2" transform="matrix(-.9207 .1629 .2515 .9545 .55 -21.95)"/><use xlink:href="#S" width="4" height="5" transform="matrix(1.0341 .0094 .1225 1.0255 -4 -16.55)"/><use xlink:href="#T" width="8.7" height="10" transform="matrix(-.8668 -.0873 -.0268 .8555 4.7 -21.5)"/></g></g><g clip-path="url(#aA)"><g transform="translate(702.7 48.75)"><use xlink:href="#G" width="14.7" height="4.3" transform="matrix(.8 0 0 .8008 -5.4 -1.8)"/><use xlink:href="#H" width="9.4" height="10.7" transform="matrix(-.7531 -.2598 -.1985 .8075 5.45 -30.6)"/><use xlink:href="#I" width="6" height="5.5" transform="matrix(-.042 .6828 .6279 .2485 -2.9 -22.05)"/><use xlink:href="#J" width="7.7" height="10" transform="matrix(.7932 .3629 -.365 .7453 .2 -28.3)"/><use xlink:href="#K" width="5.4" height="2.9" transform="matrix(1 0 .0928 1.0054 1.2 -1.65)"/><use xlink:href="#L" width="4.5" height="8.4" transform="matrix(-.8852 .2294 .1537 .8462 5.35 -8.6)"/><use xlink:href="#M" width="5" height="11.1" transform="matrix(.9905 -.039 .0514 1.0498 -.4 -17.85)"/><use xlink:href="#N" width="6.9" height="3.8" transform="matrix(.9377 .0127 .0381 1.0581 -9.35 -5.75)"/><use xlink:href="#L" width="4.5" height="8.4" transform="matrix(-.8743 .306 -.0159 .8627 -2.65 -11.45)"/><use xlink:href="#O" width="15.7" height="15.8" transform="rotate(-.499 -5355.64 1240.99)"/><use xlink:href="#M" width="5" height="11.1" transform="matrix(.8605 .5142 -.4429 .8851 -2.8 -19.3)"/><use xlink:href="#P" width="10" height="9.3" transform="matrix(.9256 .1389 -.0375 .9443 -4.4 -19.3)"/><use xlink:href="#Q" width="10.1" height="14.1" transform="matrix(.7976 -.3315 .2365 .9463 -5.85 -28.75)"/><use xlink:href="#H" width="9.4" height="10.7" transform="matrix(.7823 -.1888 .3576 .8288 -8.15 -28.15)"/><use xlink:href="#R" width="24.9" height="14.2" transform="matrix(-.9077 .2224 .3099 .9367 .7 -22.25)"/><use xlink:href="#S" width="4" height="5" transform="matrix(1.0296 -.0593 .1761 1.0219 -3.4 -16.3)"/><use xlink:href="#T" width="8.7" height="10" transform="matrix(-.8676 -.0457 .0044 .853 4.95 -21.5)"/></g></g><g clip-path="url(#aB)"><g transform="translate(744.7 48.75)"><use xlink:href="#G" width="14.7" height="4.3" transform="matrix(.8 0 0 .8008 -5.4 -1.8)"/><use xlink:href="#H" width="9.4" height="10.7" transform="matrix(-.7394 -.2958 -.2516 .7849 5.4 -29.95)"/><use xlink:href="#I" width="6" height="5.5" transform="matrix(-.066 .6805 .6184 .2697 -3.4 -22.25)"/><use xlink:href="#J" width="7.7" height="10" transform="matrix(.7793 .3896 -.3938 .7314 -.05 -28.25)"/><use xlink:href="#K" width="5.4" height="2.9" transform="matrix(1 0 .1154 1.0055 1.55 -1.55)"/><use xlink:href="#L" width="4.5" height="8.4" transform="matrix(-.8815 .2497 .1823 .8355 5.5 -8.4)"/><use xlink:href="#M" width="5" height="11.1" transform="matrix(.9922 -.0656 .0725 1.0354 -.45 -17.45)"/><use xlink:href="#N" width="6.9" height="3.8" transform="matrix(.9207 .1757 -.1479 1.0489 -9.55 -6.4)"/><use xlink:href="#L" width="4.5" height="8.4" transform="matrix(-.8873 .2471 -.0865 .8569 -2.6 -11.1)"/><use xlink:href="#O" width="15.7" height="15.8" transform="rotate(-.533 -4978.304 1175.706)"/><use xlink:href="#M" width="5" height="11.1" transform="matrix(.8383 .5515 -.4598 .8802 -2.65 -19.2)"/><use xlink:href="#P" width="10" height="9.3" transform="matrix(.9133 .1575 -.05 .9355 -4.3 -19.1)"/><use xlink:href="#Q" width="10.1" height="14.1" transform="matrix(.774 -.3618 .2478 .9402 -5.9 -28.3)"/><use xlink:href="#H" width="9.4" height="10.7" transform="matrix(.7779 -.2088 .386 .8163 -8.05 -27.5)"/><use xlink:href="#R" width="24.9" height="14.2" transform="matrix(-.8918 .2779 .3701 .9141 .65 -22.35)"/><use xlink:href="#S" width="4" height="5" transform="matrix(1.02 -.1308 .2263 1.0162 -2.85 -16.15)"/><use xlink:href="#T" width="8.7" height="10" transform="matrix(-.8665 -.0043 .041 .8489 5.2 -21.35)"/></g></g><g clip-path="url(#aC)"><g transform="translate(786.7 48.75)"><use xlink:href="#G" width="14.7" height="4.3" transform="matrix(.8 0 0 .8008 -5.4 -1.8)"/><use xlink:href="#H" width="9.4" height="10.7" transform="matrix(-.7241 -.3311 -.3001 .76 5.3 -29.5)"/><use xlink:href="#I" width="6" height="5.5" transform="matrix(-.0899 .6774 .6092 .2885 -3.9 -22.4)"/><use xlink:href="#J" width="7.7" height="10" transform="matrix(.7659 .4133 -.4197 .7177 -.45 -28.2)"/><use xlink:href="#K" width="5.4" height="2.9" transform="matrix(1 0 .1413 1.0046 1.95 -1.45)"/><use xlink:href="#L" width="4.5" height="8.4" transform="matrix(-.8764 .2729 .2131 .8232 5.7 -8.25)"/><use xlink:href="#M" width="5" height="11.1" transform="matrix(.9931 -.0923 .0898 1.021 -.5 -17)"/><use xlink:href="#N" width="6.9" height="3.8" transform="matrix(.8744 .3362 -.333 1.0059 -9.6 -6.85)"/><use xlink:href="#L" width="4.5" height="8.4" transform="matrix(-.8957 .1908 -.1535 .8459 -2.55 -10.75)"/><use xlink:href="#O" width="15.7" height="15.8" transform="rotate(-.75 -3512.758 843.301)scale(.9999)"/><use xlink:href="#M" width="5" height="11.1" transform="matrix(.8145 .5878 -.4765 .8749 -2.6 -19.15)"/><use xlink:href="#P" width="10" height="9.3" transform="matrix(.9007 .1756 -.0654 .9263 -4.2 -18.95)"/><use xlink:href="#Q" width="10.1" height="14.1" transform="matrix(.7505 -.3882 .256 .9347 -5.75 -27.8)"/><use xlink:href="#H" width="9.4" height="10.7" transform="matrix(.7738 -.2261 .4113 .8043 -8 -26.95)"/><use xlink:href="#R" width="24.9" height="14.2" transform="matrix(-.8722 .3361 .4282 .8893 .85 -22.6)"/><use xlink:href="#S" width="4" height="5" transform="matrix(1.0055 -.2012 .2798 1.0071 -2.35 -15.95)"/><use xlink:href="#T" width="8.7" height="10" transform="matrix(-.8632 .0341 .0745 .8435 5.4 -21.25)"/></g></g><g clip-path="url(#aD)"><g transform="translate(828.7 48.75)"><use xlink:href="#G" width="14.7" height="4.3" transform="matrix(.8 0 0 .8008 -5.4 -1.8)"/><use xlink:href="#H" width="9.4" height="10.7" transform="matrix(-.7071 -.3656 -.3464 .7321 5.2 -28.95)"/><use xlink:href="#I" width="6" height="5.5" transform="matrix(-.1158 .6731 .5983 .3091 -4.45 -22.5)"/><use xlink:href="#J" width="7.7" height="10" transform="matrix(.7504 .4389 -.4452 .7031 -.7 -28.05)"/><use xlink:href="#K" width="5.4" height="2.9" transform="matrix(1 0 .1639 1.0036 2.35 -1.3)"/><use xlink:href="#L" width="4.5" height="8.4" transform="matrix(-.8706 .296 .2406 .8105 5.8 -8.1)"/><use xlink:href="#M" width="5" height="11.1" transform="matrix(.993 -.1225 .1065 1.0062 -.5 -16.6)"/><use xlink:href="#N" width="6.9" height="3.8" transform="matrix(.8021 .4835 -.5108 .9288 -9.55 -7.25)"/><use xlink:href="#L" width="4.5" height="8.4" transform="matrix(-.901 .1314 -.2193 .8296 -2.5 -10.4)"/><use xlink:href="#O" width="15.7" height="15.8" transform="rotate(-.78 -3361.877 826.31)scale(.9999)"/><use xlink:href="#M" width="5" height="11.1" transform="matrix(.7911 .6206 -.4933 .8694 -2.6 -19)"/><use xlink:href="#P" width="10" height="9.3" transform="matrix(.8878 .1932 -.0804 .9168 -4.05 -18.85)"/><use xlink:href="#Q" width="10.1" height="14.1" transform="matrix(.7247 -.4157 .2672 .9283 -5.75 -27.4)"/><use xlink:href="#H" width="9.4" height="10.7" transform="matrix(.7693 -.2434 .4389 .79 -7.95 -26.4)"/><use xlink:href="#R" width="24.9" height="14.2" transform="matrix(-.8477 .3785 .4756 .8643 .7 -22.4)"/><use xlink:href="#S" width="4" height="5" transform="matrix(.9853 -.2735 .3296 .9963 -1.8 -15.75)"/><use xlink:href="#T" width="8.7" height="10" transform="matrix(-.8582 .0722 .1104 .8364 5.75 -21.15)"/></g></g><g clip-path="url(#aE)"><g transform="translate(870.7 48.75)"><use xlink:href="#G" width="14.7" height="4.3" transform="matrix(.8 0 0 .8008 -5.4 -1.8)"/><use xlink:href="#H" width="9.4" height="10.7" transform="matrix(-.6884 -.3992 -.3904 .7015 5.05 -28.4)"/><use xlink:href="#I" width="6" height="5.5" transform="matrix(-.1394 .6682 .5878 .3272 -5 -22.65)"/><use xlink:href="#J" width="7.7" height="10" transform="matrix(.7355 .4616 -.4701 .6876 -1.05 -28.05)"/><use xlink:href="#K" width="5.4" height="2.9" transform="matrix(1 0 .1866 1.0021 2.75 -1.25)"/><use xlink:href="#L" width="4.5" height="8.4" transform="matrix(-.8654 .3161 .2674 .797 5.9 -7.9)"/><use xlink:href="#M" width="5" height="11.1" transform="matrix(.9924 -.1494 .1228 .9913 -.5 -16.15)"/><use xlink:href="#N" width="6.9" height="3.8" transform="matrix(.7052 .616 -.6691 .8229 -9.35 -7.65)"/><use xlink:href="#L" width="4.5" height="8.4" transform="matrix(-.9022 .0751 -.2835 .8083 -2.45 -10)"/><use xlink:href="#O" width="15.7" height="15.8" transform="rotate(-1.003 -2596.725 648.604)scale(.9999)"/><use xlink:href="#M" width="5" height="11.1" transform="matrix(.7643 .6549 -.51 .8635 -2.55 -18.95)"/><use xlink:href="#P" width="10" height="9.3" transform="matrix(.8745 .2103 -.0921 .9074 -4.05 -18.6)"/><use xlink:href="#Q" width="10.1" height="14.1" transform="matrix(.6981 -.4417 .2782 .9218 -5.6 -27)"/><use xlink:href="#H" width="9.4" height="10.7" transform="matrix(.7645 -.2605 .4634 .7763 -7.85 -25.8)"/><use xlink:href="#R" width="24.9" height="14.2" transform="matrix(-.8219 .4202 .5239 .8367 .6 -22.25)"/><use xlink:href="#S" width="4" height="5" transform="matrix(.961 -.3408 .3823 .9817 -1.25 -15.5)"/><use xlink:href="#T" width="8.7" height="10" transform="matrix(-.8512 .1127 .1431 .8283 6 -21.05)"/></g></g><g clip-path="url(#aF)"><g transform="translate(912.7 48.75)"><use xlink:href="#G" width="14.7" height="4.3" transform="matrix(.8 0 0 .8008 -5.4 -1.8)"/><use xlink:href="#H" width="9.4" height="10.7" transform="matrix(-.668 -.4344 -.4344 .668 4.95 -27.85)"/><use xlink:href="#I" width="6" height="5.5" transform="matrix(-.1646 .6626 .5763 .3477 -5.45 -22.8)"/><use xlink:href="#J" width="7.7" height="10" transform="matrix(.7194 .4871 -.4968 .6712 -1.35 -27.95)"/><use xlink:href="#K" width="5.4" height="2.9" transform="matrix(1 0 .2128 1 3.1 -1.15)"/><use xlink:href="#L" width="4.5" height="8.4" transform="matrix(-.8593 .3401 .2954 .7829 6.05 -7.8)"/><use xlink:href="#M" width="5" height="11.1" transform="matrix(.9909 -.1808 .1426 .9759 -.5 -15.75)"/><use xlink:href="#N" width="6.9" height="3.8" transform="matrix(.5864 .7321 -.8085 .6905 -9.05 -7.8)"/><use xlink:href="#L" width="4.5" height="8.4" transform="matrix(-.9 .0181 -.349 .7817 -2.45 -9.7)"/><use xlink:href="#O" width="15.7" height="15.8" transform="matrix(.9997 -.018 .018 .9997 -12 -45.05)"/><use xlink:href="#M" width="5" height="11.1" transform="matrix(.7389 .6874 -.5271 .8587 -2.45 -18.75)"/><use xlink:href="#P" width="10" height="9.3" transform="matrix(.8615 .2273 -.1076 .8978 -3.9 -18.4)"/><use xlink:href="#Q" width="10.1" height="14.1" transform="matrix(.6721 -.4661 .29 .9159 -5.65 -26.55)"/><use xlink:href="#H" width="9.4" height="10.7" transform="matrix(.7592 -.28 .4899 .7619 -7.85 -25.2)"/><use xlink:href="#R" width="24.9" height="14.2" transform="matrix(-.794 .4603 .5681 .8084 .55 -22.05)"/><use xlink:href="#S" width="4" height="5" transform="matrix(.9333 -.4066 .4327 .9666 -.7 -15.3)"/><use xlink:href="#T" width="8.7" height="10" transform="matrix(-.8426 .1538 .1787 .8188 6.2 -20.95)"/></g></g><g clip-path="url(#aG)"><g transform="translate(954.7 48.75)"><use xlink:href="#G" width="14.7" height="4.3" transform="matrix(.8 0 0 .8008 -5.4 -1.8)"/><use xlink:href="#H" width="9.4" height="10.7" transform="matrix(-.6971 -.3839 -.3839 .6971 5 -28.45)"/><use xlink:href="#I" width="6" height="5.5" transform="matrix(-.2337 .6404 .5341 .4073 -5.1 -23.05)"/><use xlink:href="#J" width="7.7" height="10" transform="matrix(.7144 .4976 -.5142 .6328 -.85 -27.8)"/><use xlink:href="#K" width="5.4" height="2.9" transform="matrix(.9722 -.2295 .4279 .9256 2.75 -.6)"/><use xlink:href="#L" width="4.5" height="8.4" transform="matrix(-.8424 .3765 .3092 .7726 5.45 -8.3)"/><use xlink:href="#M" width="5" height="11.1" transform="matrix(.9959 -.1404 .0942 .968 -.6 -16.15)"/><use xlink:href="#N" width="6.9" height="3.8" transform="matrix(.7321 .5638 -.6518 .8314 -9.4 -6.45)"/><use xlink:href="#L" width="4.5" height="8.4" transform="matrix(-.9058 .044 -.3208 .8027 -2.15 -9.65)"/><use xlink:href="#O" width="15.7" height="15.8" transform="rotate(-1.25 -2055.982 537.126)scale(.9998)"/><use xlink:href="#M" width="5" height="11.1" transform="matrix(.7785 .6384 -.4847 .8811 -2.6 -18.6)"/><use xlink:href="#P" width="10" height="9.3" transform="matrix(.8824 .1803 -.0915 .9015 -4.05 -18.35)"/><use xlink:href="#Q" width="10.1" height="14.1" transform="matrix(.696 -.4449 .2823 .9205 -5.7 -26.9)"/><use xlink:href="#H" width="9.4" height="10.7" transform="matrix(.747 -.2872 .4691 .7623 -7.95 -25.45)"/><use xlink:href="#R" width="24.9" height="14.2" transform="matrix(-.7626 .5012 .6133 .7756 .35 -21.75)"/><use xlink:href="#S" width="4" height="5" transform="matrix(.9215 -.4255 .4576 .9554 -.65 -15.35)"/><use xlink:href="#T" width="8.7" height="10" transform="matrix(-.8355 .1893 .1881 .813 5.9 -21.45)"/></g></g><g clip-path="url(#aH)"><g transform="translate(996.7 48.75)"><use xlink:href="#G" width="14.7" height="4.3" transform="matrix(.8 0 0 .8008 -5.4 -1.8)"/><use xlink:href="#H" width="9.4" height="10.7" transform="matrix(-.7226 -.3341 -.3341 .7226 5 -29.2)"/><use xlink:href="#I" width="6" height="5.5" transform="matrix(-.3018 .6108 .4878 .4612 -4.7 -23.2)"/><use xlink:href="#J" width="7.7" height="10" transform="matrix(.7085 .5114 -.5294 .5958 -.3 -27.7)"/><use xlink:href="#K" width="5.4" height="2.9" transform="matrix(.8925 -.4465 .6214 .8064 2.55 -.15)"/><use xlink:href="#L" width="4.5" height="8.4" transform="matrix(-.8233 .4158 .3245 .7623 4.95 -8.95)"/><use xlink:href="#M" width="5" height="11.1" transform="matrix(.9998 -.101 .0508 .958 -.7 -16.4)"/><use xlink:href="#N" width="6.9" height="3.8" transform="matrix(.8342 .3685 -.4707 .9405 -9.45 -5.15)"/><use xlink:href="#L" width="4.5" height="8.4" transform="matrix(-.9108 .072 -.2921 .8235 -1.9 -9.55)"/><use xlink:href="#O" width="15.7" height="15.8" transform="rotate(-1.284 -1989.832 531.14)scale(.9998)"/><use xlink:href="#M" width="5" height="11.1" transform="matrix(.8158 .5888 -.4417 .9028 -2.85 -18.55)"/><use xlink:href="#P" width="10" height="9.3" transform="matrix(.9009 .1349 -.0762 .9053 -4.05 -18.15)"/><use xlink:href="#Q" width="10.1" height="14.1" transform="matrix(.7194 -.4248 .2754 .9258 -5.75 -27.3)"/><use xlink:href="#H" width="9.4" height="10.7" transform="matrix(.7355 -.294 .4509 .7623 -8.1 -25.65)"/><use xlink:href="#R" width="24.9" height="14.2" transform="matrix(-.7309 .5376 .6542 .7425 .3 -21.45)"/><use xlink:href="#S" width="4" height="5" transform="matrix(.9119 -.4417 .4868 .9427 -.7 -15.4)"/><use xlink:href="#T" width="8.7" height="10" transform="matrix(-.8279 .2228 .198 .8076 5.45 -21.9)"/></g></g><g clip-path="url(#aI)"><g transform="translate(1038.7 48.75)"><use xlink:href="#G" width="14.7" height="4.3" transform="matrix(.8 0 0 .8008 -5.4 -1.8)"/><use xlink:href="#H" width="9.4" height="10.7" transform="matrix(-.7445 -.2826 -.2826 .7445 4.95 -29.8)"/><use xlink:href="#I" width="6" height="5.5" transform="matrix(-.3644 .5752 .4344 .5113 -4.3 -23.45)"/><use xlink:href="#J" width="7.7" height="10" transform="matrix(.7041 .5229 -.5424 .5588 .2 -27.55)"/><use xlink:href="#K" width="5.4" height="2.9" transform="matrix(.7631 -.6421 .7858 .6451 2.6 .3)"/><use xlink:href="#L" width="4.5" height="8.4" transform="matrix(-.8038 .4516 .3395 .7518 4.4 -9.35)"/><use xlink:href="#M" width="5" height="11.1" transform="matrix(1.0021 -.0615 .0085 .9462 -.8 -16.8)"/><use xlink:href="#N" width="6.9" height="3.8" transform="matrix(.8861 .1608 -.2767 1.0108 -9.35 -3.65)"/><use xlink:href="#L" width="4.5" height="8.4" transform="matrix(-.9149 .1004 -.2622 .8434 -1.65 -9.6)"/><use xlink:href="#O" width="15.7" height="15.8" transform="rotate(-1.502 -1690.861 458.683)scale(.9998)"/><use xlink:href="#M" width="5" height="11.1" transform="matrix(.8517 .5343 -.3977 .9224 -3 -18.5)"/><use xlink:href="#P" width="10" height="9.3" transform="matrix(.9173 .085 -.0638 .9085 -4.15 -18.1)"/><use xlink:href="#Q" width="10.1" height="14.1" transform="matrix(.7436 -.4011 .2715 .9301 -5.9 -27.65)"/><use xlink:href="#H" width="9.4" height="10.7" transform="matrix(.7241 -.3006 .4328 .7619 -8.05 -25.85)"/><use xlink:href="#R" width="24.9" height="14.2" transform="matrix(-.6985 .5732 .6966 .7065 .2 -21.15)"/><use xlink:href="#S" width="4" height="5" transform="matrix(.9005 -.4606 .5127 .9307 -.65 -15.45)"/><use xlink:href="#T" width="8.7" height="10" transform="matrix(-.8181 .2587 .2078 .802 5.1 -22.35)"/></g></g><g clip-path="url(#aJ)"><g transform="translate(1080.7 48.75)"><use xlink:href="#G" width="14.7" height="4.3" transform="matrix(.8 0 0 .8008 -5.4 -1.8)"/><use xlink:href="#H" width="9.4" height="10.7" transform="matrix(-.7635 -.2272 -.2272 .7635 4.9 -30.4)"/><use xlink:href="#I" width="6" height="5.5" transform="matrix(-.4246 .5318 .376 .5553 -3.85 -23.5)"/><use xlink:href="#J" width="7.7" height="10" transform="matrix(.6994 .5343 -.5548 .5199 .6 -27.5)"/><use xlink:href="#K" width="5.4" height="2.9" transform="matrix(.5945 -.8003 .9083 .4543 2.65 .65)"/><use xlink:href="#L" width="4.5" height="8.4" transform="matrix(-.7828 .4865 .3542 .741 3.85 -9.95)"/><use xlink:href="#M" width="5" height="11.1" transform="matrix(1.0028 -.022 -.0328 .9322 -.95 -17.1)"/><use xlink:href="#N" width="6.9" height="3.8" transform="matrix(.899 .1595 -.2435 1.0131 -8.95 -3.55)"/><use xlink:href="#L" width="4.5" height="8.4" transform="matrix(-.9182 .1291 -.2312 .8621 -1.35 -9.6)"/><use xlink:href="#O" width="15.7" height="15.8" transform="rotate(-1.284 -1989.832 531.14)scale(.9998)"/><use xlink:href="#M" width="5" height="11.1" transform="matrix(.8824 .4805 -.3529 .9399 -3.25 -18.4)"/><use xlink:href="#P" width="10" height="9.3" transform="matrix(.9308 .0368 -.0484 .9117 -4.25 -18.05)"/><use xlink:href="#Q" width="10.1" height="14.1" transform="matrix(.7657 -.3786 .2645 .9353 -6.05 -27.9)"/><use xlink:href="#H" width="9.4" height="10.7" transform="matrix(.7126 -.3069 .4149 .761 -8.2 -26.05)"/><use xlink:href="#R" width="24.9" height="14.2" transform="matrix(-.663 .6051 .7333 .6683 -.3 -21.4)"/><use xlink:href="#S" width="4" height="5" transform="matrix(.8887 -.4792 .5412 .9163 -.7 -15.45)"/><use xlink:href="#T" width="8.7" height="10" transform="matrix(-.8067 .2942 .2175 .7963 4.7 -22.85)"/></g></g><g clip-path="url(#aK)"><g transform="translate(1122.7 48.75)"><use xlink:href="#G" width="14.7" height="4.3" transform="matrix(.8 0 0 .8008 -5.4 -1.8)"/><use xlink:href="#H" width="9.4" height="10.7" transform="matrix(-.7778 -.173 -.173 .7778 4.85 -31.1)"/><use xlink:href="#I" width="6" height="5.5" transform="matrix(-.4797 .4822 .3132 .5927 -3.35 -23.65)"/><use xlink:href="#J" width="7.7" height="10" transform="matrix(.6929 .548 -.5633 .483 1.05 -27.4)"/><use xlink:href="#K" width="5.4" height="2.9" transform="matrix(.3943 -.9157 .9856 .2417 2.9 .8)"/><use xlink:href="#L" width="4.5" height="8.4" transform="matrix(-.7586 .5229 .3687 .7298 3.3 -10.45)"/><use xlink:href="#M" width="5" height="11.1" transform="matrix(1.002 .0141 -.0727 .9165 -1 -17.45)"/><use xlink:href="#N" width="6.9" height="3.8" transform="matrix(.9118 .1615 -.2077 1.0157 -8.6 -3.4)"/><use xlink:href="#L" width="4.5" height="8.4" transform="matrix(-.921 .1551 -.1963 .8804 -1.15 -9.5)"/><use xlink:href="#O" width="15.7" height="15.8" transform="rotate(-1.25 -2055.957 534.833)scale(.9998)"/><use xlink:href="#M" width="5" height="11.1" transform="matrix(.9097 .425 -.3105 .9543 -3.4 -18.2)"/><use xlink:href="#P" width="10" height="9.3" transform="matrix(.9417 -.0126 -.0329 .9147 -4.25 -17.85)"/><use xlink:href="#Q" width="10.1" height="14.1" transform="matrix(.7884 -.3526 .2574 .9405 -6 -28.45)"/><use xlink:href="#H" width="9.4" height="10.7" transform="matrix(.7011 -.313 .3971 .7598 -8.2 -26.4)"/><use xlink:href="#R" width="24.9" height="14.2" transform="matrix(-.6248 .6382 .771 .6271 -.9 -21.65)"/><use xlink:href="#S" width="4" height="5" transform="matrix(.8766 -.4976 .5665 .9029 -.7 -15.5)"/><use xlink:href="#T" width="8.7" height="10" transform="matrix(-.7948 .3266 .2271 .7905 4.15 -23.3)"/></g></g><g clip-path="url(#aL)"><g transform="translate(1164.7 48.75)"><use xlink:href="#G" width="14.7" height="4.3" transform="matrix(.8 0 0 .8008 -5.4 -1.8)"/><use xlink:href="#H" width="9.4" height="10.7" transform="matrix(-.7887 -.1186 -.1186 .7887 4.8 -31.65)"/><use xlink:href="#I" width="6" height="5.5" transform="matrix(-.5288 .4292 .2492 .6229 -2.9 -23.8)"/><use xlink:href="#J" width="7.7" height="10" transform="matrix(.6885 .5609 -.5707 .4469 1.5 -27.25)"/><use xlink:href="#K" width="5.4" height="2.9" transform="matrix(.1731 -.9827 1.014 .0172 3.35 .8)"/><use xlink:href="#L" width="4.5" height="8.4" transform="matrix(-.7345 .5558 .3828 .7185 2.75 -10.95)"/><use xlink:href="#M" width="5" height="11.1" transform="matrix(.9995 .0535 -.1113 .899 -1.15 -17.7)"/><use xlink:href="#N" width="6.9" height="3.8" transform="matrix(.9246 .1635 -.1755 1.0164 -8.1 -3.25)"/><use xlink:href="#L" width="4.5" height="8.4" transform="matrix(-.9225 .1844 -.1632 .8967 -.75 -9.5)"/><use xlink:href="#O" width="15.7" height="15.8" transform="matrix(.9996 -.018 .018 .9996 -12 -45.05)"/><use xlink:href="#M" width="5" height="11.1" transform="matrix(.9347 .365 -.2643 .9675 -3.65 -18.2)"/><use xlink:href="#P" width="10" height="9.3" transform="matrix(.9498 -.0654 -.0211 .9174 -4.3 -17.75)"/><use xlink:href="#Q" width="10.1" height="14.1" transform="matrix(.8091 -.3279 .2534 .9447 -6.15 -28.7)"/><use xlink:href="#H" width="9.4" height="10.7" transform="matrix(.69 -.32 .3815 .7585 -8.3 -26.55)"/><use xlink:href="#R" width="24.9" height="14.2" transform="matrix(-.5884 .6679 .8058 .5873 -1.55 -21.95)"/><use xlink:href="#S" width="4" height="5" transform="matrix(.865 -.5169 .5951 .8882 -.75 -15.6)"/><use xlink:href="#T" width="8.7" height="10" transform="matrix(-.7809 .3627 .2371 .7852 3.8 -23.8)"/></g></g><g clip-path="url(#aM)"><g transform="translate(1206.7 48.75)"><use xlink:href="#G" width="14.7" height="4.3" transform="matrix(.8 0 0 .8008 -5.4 -1.8)"/><use xlink:href="#H" width="9.4" height="10.7" transform="matrix(-.7907 -.1012 -.0906 .7925 4.85 -31.95)"/><use xlink:href="#I" width="6" height="5.5" transform="matrix(-.4451 .5145 .3536 .5695 -2.6 -23.25)"/><use xlink:href="#J" width="7.7" height="10" transform="matrix(.7294 .4986 -.5284 .5211 1.55 -27.6)"/><use xlink:href="#K" width="5.4" height="2.9" transform="matrix(.1183 -.9902 1.0112 -.0089 3.1 .35)"/><use xlink:href="#L" width="4.5" height="8.4" transform="matrix(-.7071 .5898 .3942 .7081 2.2 -11.5)"/><use xlink:href="#M" width="5" height="11.1" transform="matrix(.9952 .0959 -.1515 .8795 -1.3 -18)"/><use xlink:href="#N" width="6.9" height="3.8" transform="matrix(.9374 .1655 -.1433 1.0162 -7.75 -3.1)"/><use xlink:href="#L" width="4.5" height="8.4" transform="matrix(-.923 .2139 -.1291 .9118 -.45 -9.4)"/><use xlink:href="#O" width="15.7" height="15.8" transform="rotate(-1.003 -2596.725 648.604)scale(.9999)"/><use xlink:href="#M" width="5" height="11.1" transform="matrix(.9548 .3066 -.2176 .9786 -3.75 -18)"/><use xlink:href="#P" width="10" height="9.3" transform="matrix(.9583 -.0546 -.0049 .9318 -4.35 -18.2)"/><use xlink:href="#Q" width="10.1" height="14.1" transform="matrix(.8291 -.3023 .2462 .9498 -6.3 -29.15)"/><use xlink:href="#H" width="9.4" height="10.7" transform="matrix(.7129 -.2812 .3456 .7835 -8.25 -27.4)"/><use xlink:href="#R" width="24.9" height="14.2" transform="matrix(-.573 .6805 .8119 .5752 -2.1 -22.05)"/><use xlink:href="#S" width="4" height="5" transform="matrix(.8691 -.5085 .5829 .8937 -1.5 -15.7)"/><use xlink:href="#T" width="8.7" height="10" transform="matrix(-.7998 .3201 .1959 .8281 3.65 -23.95)"/></g></g><g clip-path="url(#aN)"><g transform="translate(1248.7 48.75)"><use xlink:href="#G" width="14.7" height="4.3" transform="matrix(.8 0 0 .8008 -5.4 -1.8)"/><use xlink:href="#H" width="9.4" height="10.7" transform="matrix(-.7924 -.0869 -.063 .7957 5.05 -32.2)"/><use xlink:href="#I" width="6" height="5.5" transform="matrix(-.3488 .5846 .4478 .4994 -2.35 -22.65)"/><use xlink:href="#J" width="7.7" height="10" transform="matrix(.7657 .4349 -.4795 .5904 1.55 -27.85)"/><use xlink:href="#K" width="5.4" height="2.9" transform="matrix(.0663 -.9951 1.0076 -.0353 2.75 -.2)"/><use xlink:href="#L" width="4.5" height="8.4" transform="matrix(-.6801 .6203 .4077 .6962 1.55 -11.95)"/><use xlink:href="#M" width="5" height="11.1" transform="matrix(.9895 .1348 -.1872 .8588 -1.35 -18.35)"/><use xlink:href="#N" width="6.9" height="3.8" transform="matrix(.9508 .1644 -.1114 1.015 -7.4 -3)"/><use xlink:href="#L" width="4.5" height="8.4" transform="matrix(-.9226 .2436 -.0941 .9255 -.2 -9.45)"/><use xlink:href="#O" width="15.7" height="15.8" transform="rotate(-.78 -3361.877 826.31)scale(.9999)"/><use xlink:href="#M" width="5" height="11.1" transform="matrix(.9713 .2472 -.1705 .9874 -3.95 -17.9)"/><use xlink:href="#P" width="10" height="9.3" transform="matrix(.9669 -.0428 .0049 .9459 -4.45 -18.65)"/><use xlink:href="#Q" width="10.1" height="14.1" transform="matrix(.8492 -.2729 .2389 .9548 -6.25 -29.55)"/><use xlink:href="#H" width="9.4" height="10.7" transform="matrix(.7349 -.2395 .3074 .8083 -8.3 -28.1)"/><use xlink:href="#R" width="24.9" height="14.2" transform="matrix(-.5584 .6936 .821 .5612 -2.7 -22.1)"/><use xlink:href="#S" width="4" height="5" transform="matrix(.874 -.5013 .5745 .8985 -2.25 -15.9)"/><use xlink:href="#T" width="8.7" height="10" transform="matrix(-.8169 .2782 .1536 .8689 3.45 -24.15)"/></g></g><g clip-path="url(#aO)"><g transform="translate(1290.7 48.75)"><use xlink:href="#G" width="14.7" height="4.3" transform="matrix(.8 0 0 .8008 -5.4 -1.8)"/><use xlink:href="#H" width="9.4" height="10.7" transform="matrix(-.7941 -.0699 -.0353 .798 5.2 -32.5)"/><use xlink:href="#I" width="6" height="5.5" transform="matrix(-.2418 .637 .5298 .4121 -1.9 -21.95)"/><use xlink:href="#J" width="7.7" height="10" transform="matrix(.7964 .3687 -.4194 .6566 1.6 -28.1)"/><use xlink:href="#K" width="5.4" height="2.9" transform="matrix(.0141 -.9972 1.0034 -.0615 2.6 -.75)"/><use xlink:href="#L" width="4.5" height="8.4" transform="matrix(-.6518 .6496 .4209 .6841 1.05 -12.5)"/><use xlink:href="#M" width="5" height="11.1" transform="matrix(.9823 .1734 -.2214 .8368 -1.5 -18.65)"/><use xlink:href="#N" width="6.9" height="3.8" transform="matrix(.9636 .1664 -.0764 1.013 -7 -2.95)"/><use xlink:href="#L" width="4.5" height="8.4" transform="matrix(-.9213 .2735 -.0581 .9379 .05 -9.45)"/><use xlink:href="#O" width="15.7" height="15.8" transform="rotate(-.75 -3512.733 839.485)scale(.9999)"/><use xlink:href="#M" width="5" height="11.1" transform="matrix(.9847 .1836 -.123 .994 -4.1 -17.8)"/><use xlink:href="#P" width="10" height="9.3" transform="matrix(.9754 -.0308 .0212 .9597 -4.55 -19.1)"/><use xlink:href="#Q" width="10.1" height="14.1" transform="matrix(.8674 -.2452 .2316 .9597 -6.4 -30)"/><use xlink:href="#H" width="9.4" height="10.7" transform="matrix(.7539 -.1987 .2703 .8304 -8.2 -28.95)"/><use xlink:href="#R" width="24.9" height="14.2" transform="matrix(-.5412 .7083 .8281 .5498 -3.2 -22.2)"/><use xlink:href="#S" width="4" height="5" transform="matrix(.879 -.4941 .566 .9033 -2.95 -16.05)"/><use xlink:href="#T" width="8.7" height="10" transform="matrix(-.8318 .2354 .1043 .9078 3.3 -24.35)"/></g></g><g clip-path="url(#aP)"><g transform="translate(1332.7 48.75)"><use xlink:href="#G" width="14.7" height="4.3" transform="matrix(.8 0 0 .8008 -5.4 -1.8)"/><use xlink:href="#H" width="9.4" height="10.7" transform="matrix(-.7954 -.0529 -.0075 .7993 5.4 -32.8)"/><use xlink:href="#I" width="6" height="5.5" transform="matrix(-.1251 .6705 .5941 .3136 -1.55 -21.2)"/><use xlink:href="#J" width="7.7" height="10" transform="matrix(.8215 .3003 -.3505 .7166 1.55 -28.45)"/><use xlink:href="#K" width="5.4" height="2.9" transform="matrix(-.0349 -.9964 .9985 -.0875 2.3 -1.35)"/><use xlink:href="#L" width="4.5" height="8.4" transform="matrix(-.6201 .6796 .4337 .6717 .45 -12.95)"/><use xlink:href="#M" width="5" height="11.1" transform="matrix(.9736 .2118 -.2567 .8125 -1.55 -18.95)"/><use xlink:href="#N" width="6.9" height="3.8" transform="matrix(.9765 .1683 -.045 1.0096 -6.6 -2.85)"/><use xlink:href="#L" width="4.5" height="8.4" transform="matrix(-.919 .3035 -.0214 .9489 .25 -9.4)"/><use xlink:href="#O" width="15.7" height="15.8" transform="rotate(-.533 -4977.806 1175.586)scale(.9998)"/><use xlink:href="#M" width="5" height="11.1" transform="matrix(.9936 .1227 -.0753 .9983 -4.25 -17.75)"/><use xlink:href="#P" width="10" height="9.3" transform="matrix(.9837 -.0218 .0348 .9734 -4.7 -19.55)"/><use xlink:href="#Q" width="10.1" height="14.1" transform="matrix(.8854 -.2137 .2274 .9639 -6.5 -30.3)"/><use xlink:href="#H" width="9.4" height="10.7" transform="matrix(.7711 -.1539 .229 .8514 -8.15 -29.75)"/><use xlink:href="#R" width="24.9" height="14.2" transform="matrix(-.5259 .7208 .835 .5383 -3.75 -22.25)"/><use xlink:href="#S" width="4" height="5" transform="matrix(.8838 -.4868 .5545 .9098 -3.65 -16.15)"/><use xlink:href="#T" width="8.7" height="10" transform="matrix(-.8445 .1918 .054 .9437 3.15 -24.5)"/></g></g><g clip-path="url(#aQ)"><g transform="translate(1374.7 48.75)"><use xlink:href="#G" width="14.7" height="4.3" transform="matrix(.8 0 0 .8008 -5.4 -1.8)"/><use xlink:href="#H" width="9.4" height="10.7" transform="matrix(-.7962 -.0386 .0177 .7996 5.5 -33.05)"/><use xlink:href="#I" width="6" height="5.5" transform="matrix(-.0065 .6828 .6403 .2055 -1.05 -20.55)"/><use xlink:href="#J" width="7.7" height="10" transform="matrix(.84 .2332 -.2732 .7692 1.45 -28.6)"/><use xlink:href="#K" width="5.4" height="2.9" transform="matrix(-.087 -.9929 .9929 -.1133 2.15 -1.85)"/><use xlink:href="#L" width="4.5" height="8.4" transform="matrix(-.5893 .7061 .4462 .6592 -.1 -13.5)"/><use xlink:href="#M" width="5" height="11.1" transform="matrix(.9634 .2496 -.2877 .7878 -1.7 -19.35)"/><use xlink:href="#N" width="6.9" height="3.8" transform="matrix(.9893 .1703 -.0138 1.0053 -6.2 -2.65)"/><use xlink:href="#L" width="4.5" height="8.4" transform="matrix(-.9157 .3337 .0129 .9584 .5 -9.4)"/><use xlink:href="#O" width="15.7" height="15.8" transform="rotate(-.499 -5355.64 1240.99)"/><use xlink:href="#M" width="5" height="11.1" transform="matrix(.9987 .0614 -.0307 1.0002 -4.35 -17.55)"/><use xlink:href="#P" width="10" height="9.3" transform="matrix(.9919 -.0094 .052 .9867 -4.8 -20.05)"/><use xlink:href="#Q" width="10.1" height="14.1" transform="matrix(.9016 -.1842 .2199 .9688 -6.5 -30.8)"/><use xlink:href="#H" width="9.4" height="10.7" transform="matrix(.7853 -.1105 .1892 .8698 -8.1 -30.45)"/><use xlink:href="#R" width="24.9" height="14.2" transform="matrix(-.5104 .733 .8434 .524 -4.3 -22.35)"/><use xlink:href="#S" width="4" height="5" transform="matrix(.8886 -.4795 .5459 .9144 -4.4 -16.25)"/><use xlink:href="#T" width="8.7" height="10" transform="matrix(-.8549 .1475 -.0001 .9767 3 -24.6)"/></g></g><g clip-path="url(#aR)"><g transform="translate(1416.7 48.75)"><use xlink:href="#G" width="14.7" height="4.3" transform="matrix(.8 0 0 .8008 -5.4 -1.8)"/><use xlink:href="#H" width="9.4" height="10.7" transform="matrix(-.7969 -.0235 .0462 .7989 5.7 -33.3)"/><use xlink:href="#I" width="6" height="5.5" transform="matrix(.1113 .6741 .6674 .0912 -.55 -19.8)"/><use xlink:href="#J" width="7.7" height="10" transform="matrix(.854 .1626 -.1906 .8136 1.4 -28.8)"/><use xlink:href="#K" width="5.4" height="2.9" transform="rotate(-98.033 -.136 -2.075)scale(.9968)"/><use xlink:href="#L" width="4.5" height="8.4" transform="matrix(-.5571 .7333 .4593 .6472 -.7 -14)"/><use xlink:href="#M" width="5" height="11.1" transform="matrix(.9524 .288 -.3196 .7619 -1.75 -19.6)"/><use xlink:href="#N" width="6.9" height="3.8" transform="matrix(1.0027 .172 .0159 1 -5.8 -2.6)"/><use xlink:href="#L" width="4.5" height="8.4" transform="matrix(-.9127 .3636 .0524 .9664 .8 -9.35)"/><use xlink:href="#O" width="15.7" height="15.8" transform="rotate(-.28 -9565.7 2170.246)"/><use xlink:href="#M" width="5" height="11.1" transform="matrix(1 0 .0159 1 -4.55 -17.5)"/><use xlink:href="#P" width="10" height="9.3" transform="matrix(1 0 .0691 1 -5 -20.45)"/><use xlink:href="#Q" width="10.1" height="14.1" transform="matrix(.9173 -.1543 .2149 .9737 -6.6 -31.15)"/><use xlink:href="#H" width="9.4" height="10.7" transform="matrix(.7973 -.0646 .1469 .887 -8.05 -31.4)"/><use xlink:href="#R" width="24.9" height="14.2" transform="matrix(-.4957 .7457 .8509 .5135 -4.85 -22.45)"/><use xlink:href="#S" width="4" height="5" transform="matrix(.8933 -.4751 .5382 .9201 -5.1 -16.4)"/><use xlink:href="#T" width="8.7" height="10" transform="matrix(-.8631 .1041 -.0594 1.0063 2.8 -24.7)"/></g></g><g clip-path="url(#aS)"><g transform="translate(1458.7 48.75)"><use xlink:href="#G" width="14.7" height="4.3" transform="matrix(.8 0 0 .8008 -5.4 -1.8)"/><use xlink:href="#H" width="9.4" height="10.7" transform="matrix(-.7944 -.0146 .0528 .7947 5.8 -32.9)"/><use xlink:href="#I" width="6" height="5.5" transform="matrix(.1104 .6736 .6673 .0884 -.2 -19.7)"/><use xlink:href="#J" width="7.7" height="10" transform="matrix(.8573 .1367 -.1665 .816 1.5 -28.45)"/><use xlink:href="#K" width="5.4" height="2.9" transform="matrix(.0003 -.997 .9928 .0045 .9 -2.3)"/><use xlink:href="#L" width="4.5" height="8.4" transform="matrix(-.6071 .6779 .4111 .6693 -.7 -13.65)"/><use xlink:href="#M" width="5" height="11.1" transform="matrix(.9452 .303 -.3144 .7672 -1.9 -19.5)"/><use xlink:href="#N" width="6.9" height="3.8" transform="matrix(.9925 .1492 .0313 1.0022 -5.3 -2.35)"/><use xlink:href="#L" width="4.5" height="8.4" transform="matrix(-.9064 .3813 .0765 .9584 1.05 -9.2)"/><use xlink:href="#O" width="15.7" height="15.8" transform="rotate(-.252 -10720.14 2362.562)"/><use xlink:href="#M" width="5" height="11.1" transform="matrix(.9998 -.0135 .0272 1.0047 -4.45 -17.3)"/><use xlink:href="#P" width="10" height="9.3" transform="matrix(.9898 -.0216 .0833 .9974 -4.95 -20.1)"/><use xlink:href="#Q" width="10.1" height="14.1" transform="matrix(.9192 -.1256 .2024 .9712 -6.55 -31.05)"/><use xlink:href="#H" width="9.4" height="10.7" transform="matrix(.8008 -.0252 .1177 .8914 -8.05 -31.35)"/><use xlink:href="#R" width="24.9" height="14.2" transform="matrix(-.5231 .7306 .8289 .5452 -5.15 -22.55)"/><use xlink:href="#S" width="4" height="5" transform="matrix(.933 -.3967 .4713 .9517 -5.55 -16.55)"/><use xlink:href="#T" width="8.7" height="10" transform="matrix(-.8689 .0267 -.1116 .9719 2.6 -24)"/></g></g><g clip-path="url(#aT)"><g transform="translate(1500.7 48.75)"><use xlink:href="#G" width="14.7" height="4.3" transform="matrix(.8 0 0 .8008 -5.4 -1.8)"/><use xlink:href="#H" width="9.4" height="10.7" transform="matrix(-.7918 -.0076 .0625 .7903 5.9 -32.65)"/><use xlink:href="#I" width="6" height="5.5" transform="matrix(.1129 .6729 .6671 .088 .3 -19.55)"/><use xlink:href="#J" width="7.7" height="10" transform="matrix(.8599 .1139 -.1445 .8179 1.65 -28.15)"/><use xlink:href="#K" width="5.4" height="2.9" transform="matrix(.1395 -.9869 .9775 .1467 -.05 -2.15)"/><use xlink:href="#L" width="4.5" height="8.4" transform="matrix(-.652 .6213 .3607 .6901 -.7 -13.25)"/><use xlink:href="#M" width="5" height="11.1" transform="matrix(.9395 .3158 -.3092 .7734 -2.05 -19.35)"/><use xlink:href="#N" width="6.9" height="3.8" transform="matrix(.9819 .1299 .0488 1.0042 -4.8 -2.05)"/><use xlink:href="#L" width="4.5" height="8.4" transform="matrix(-.8999 .4017 .1045 .9493 1.25 -8.9)"/><use xlink:href="#O" width="15.7" height="15.8" transform="rotate(-.034 -79088.49 17142.943)"/><use xlink:href="#M" width="5" height="11.1" transform="matrix(.9994 -.0269 .0407 1.0091 -4.25 -17.05)"/><use xlink:href="#P" width="10" height="9.3" transform="matrix(.9791 -.0428 .0969 .9948 -4.85 -19.6)"/><use xlink:href="#Q" width="10.1" height="14.1" transform="matrix(.9207 -.0974 .1894 .9693 -6.45 -30.95)"/><use xlink:href="#H" width="9.4" height="10.7" transform="matrix(.8025 .0078 .0872 .8954 -8.05 -31.2)"/><use xlink:href="#R" width="24.9" height="14.2" transform="matrix(-.5511 .7153 .8065 .5773 -5.35 -22.75)"/><use xlink:href="#S" width="4" height="5" transform="matrix(.9672 -.3148 .4066 .9786 -6.05 -16.75)"/><use xlink:href="#T" width="8.7" height="10" transform="matrix(-.868 -.0495 -.1649 .9342 2.5 -23.3)"/></g></g><g clip-path="url(#aU)"><g transform="translate(1542.7 48.75)"><use xlink:href="#G" width="14.7" height="4.3" transform="matrix(.8 0 0 .8008 -5.4 -1.8)"/><use xlink:href="#H" width="9.4" height="10.7" transform="matrix(-.7892 -.0007 .0696 .786 6.05 -32.15)"/><use xlink:href="#I" width="6" height="5.5" transform="matrix(.1132 .6726 .6671 .0855 .7 -19.4)"/><use xlink:href="#J" width="7.7" height="10" transform="matrix(.8619 .091 -.1198 .8197 1.75 -27.75)"/><use xlink:href="#K" width="5.4" height="2.9" transform="matrix(.2792 -.9565 .942 .2848 -1 -2.1)"/><use xlink:href="#L" width="4.5" height="8.4" transform="matrix(-.6918 .5619 .3117 .706 -.7 -12.95)"/><use xlink:href="#M" width="5" height="11.1" transform="matrix(.9325 .3315 -.3039 .7796 -2.15 -19.25)"/><use xlink:href="#N" width="6.9" height="3.8" transform="matrix(.971 .111 .0665 1.0058 -4.25 -1.85)"/><use xlink:href="#L" width="4.5" height="8.4" transform="matrix(-.8929 .4218 .1321 .9395 1.45 -8.9)"/><use xlink:href="#O" width="15.7" height="15.8" transform="translate(-10.15 -47.75)"/><use xlink:href="#M" width="5" height="11.1" transform="matrix(.9986 -.0436 .0577 1.0132 -4.15 -16.9)"/><use xlink:href="#P" width="10" height="9.3" transform="matrix(.968 -.0635 .1137 .9917 -4.7 -19.15)"/><use xlink:href="#Q" width="10.1" height="14.1" transform="matrix(.9213 -.0693 .1795 .9667 -6.35 -30.9)"/><use xlink:href="#H" width="9.4" height="10.7" transform="matrix(.8024 .0462 .0595 .8981 -8.1 -31.15)"/><use xlink:href="#R" width="24.9" height="14.2" transform="matrix(-.5788 .6989 .7828 .6085 -5.65 -22.9)"/><use xlink:href="#S" width="4" height="5" transform="matrix(.9943 -.2301 .3404 1.0011 -6.5 -16.95)"/><use xlink:href="#T" width="8.7" height="10" transform="matrix(-.8601 -.1252 -.2111 .8945 2.3 -22.6)"/></g></g><g clip-path="url(#aV)"><g transform="translate(1584.7 48.75)"><use xlink:href="#G" width="14.7" height="4.3" transform="matrix(.8 0 0 .8008 -5.4 -1.8)"/><use xlink:href="#H" width="9.4" height="10.7" transform="matrix(-.7865 .0036 .0791 .7813 6.2 -31.75)"/><use xlink:href="#I" width="6" height="5.5" transform="matrix(.1156 .672 .667 .0851 1.05 -19.2)"/><use xlink:href="#J" width="7.7" height="10" transform="matrix(.8633 .0681 -.0977 .8205 1.85 -27.45)"/><use xlink:href="#K" width="5.4" height="2.9" transform="matrix(.4102 -.9079 .8859 .4187 -1.9 -2.05)"/><use xlink:href="#L" width="4.5" height="8.4" transform="matrix(-.728 .4977 .2622 .7186 -.55 -12.55)"/><use xlink:href="#M" width="5" height="11.1" transform="matrix(.9253 .3471 -.2985 .7858 -2.25 -19.2)"/><use xlink:href="#N" width="6.9" height="3.8" transform="matrix(.9597 .0925 .0842 1.0071 -3.75 -1.75)"/><use xlink:href="#L" width="4.5" height="8.4" transform="matrix(-.8869 .439 .1562 .9294 1.65 -8.7)"/><use xlink:href="#O" width="15.7" height="15.8" transform="matrix(.9991 .0136 -.0181 1.0005 -9.8 -47.4)"/><use xlink:href="#M" width="5" height="11.1" transform="matrix(.9978 -.0571 .0714 1.0173 -4.15 -16.65)"/><use xlink:href="#P" width="10" height="9.3" transform="matrix(.9564 -.0838 .1304 .9884 -4.7 -18.7)"/><use xlink:href="#Q" width="10.1" height="14.1" transform="matrix(.9211 -.0412 .1666 .9646 -6.25 -30.8)"/><use xlink:href="#H" width="9.4" height="10.7" transform="matrix(.8004 .0845 .0318 .9 -8.05 -31.15)"/><use xlink:href="#R" width="24.9" height="14.2" transform="matrix(-.606 .6814 .758 .6386 -5.9 -23)"/><use xlink:href="#S" width="4" height="5" transform="matrix(1.0141 -.143 .2697 1.02 -7 -17.1)"/><use xlink:href="#T" width="8.7" height="10" transform="matrix(-.8457 -.2001 -.2534 .8526 1.95 -21.9)"/></g></g><g clip-path="url(#aW)"><g transform="translate(1626.7 48.75)"><use xlink:href="#G" width="14.7" height="4.3" transform="matrix(.8 0 0 .8008 -5.4 -1.8)"/><use xlink:href="#H" width="9.4" height="10.7" transform="matrix(-.7837 .0104 .0885 .7766 6.3 -31.35)"/><use xlink:href="#I" width="6" height="5.5" transform="matrix(.1159 .6716 .6671 .0826 1.5 -19.05)"/><use xlink:href="#J" width="7.7" height="10" transform="matrix(.8642 .0424 -.0758 .8206 2.1 -27)"/><use xlink:href="#K" width="5.4" height="2.9" transform="matrix(.5361 -.8397 .8127 .5397 -2.9 -2.2)"/><use xlink:href="#L" width="4.5" height="8.4" transform="matrix(-.757 .434 .2124 .7278 -.55 -12.2)"/><use xlink:href="#M" width="5" height="11.1" transform="matrix(.9178 .3625 -.2931 .7919 -2.45 -19.1)"/><use xlink:href="#N" width="6.9" height="3.8" transform="matrix(.9483 .0714 .102 1.0081 -3.25 -1.45)"/><use xlink:href="#L" width="4.5" height="8.4" transform="matrix(-.8791 .459 .1828 .9181 1.85 -8.5)"/><use xlink:href="#O" width="15.7" height="15.8" transform="matrix(.998 .0305 -.0394 1.0004 -9.4 -47.1)"/><use xlink:href="#M" width="5" height="11.1" transform="matrix(.9968 -.0705 .0853 1.0212 -4 -16.45)"/><use xlink:href="#P" width="10" height="9.3" transform="matrix(.9444 -.1036 .1437 .9852 -4.55 -18.35)"/><use xlink:href="#Q" width="10.1" height="14.1" transform="matrix(.9199 -.0163 .1569 .9618 -6.15 -30.7)"/><use xlink:href="#H" width="9.4" height="10.7" transform="matrix(.7967 .1228 .004 .901 -7.95 -31.05)"/><use xlink:href="#R" width="24.9" height="14.2" transform="matrix(-.6348 .6609 .732 .6678 -6.1 -23.15)"/><use xlink:href="#S" width="4" height="5" transform="matrix(1.0261 -.0543 .2015 1.0333 -7.4 -17.3)"/><use xlink:href="#T" width="8.7" height="10" transform="matrix(-.8238 -.2761 -.2916 .8089 1.7 -21.2)"/></g></g><g clip-path="url(#aX)"><g transform="translate(1668.7 48.75)"><use xlink:href="#G" width="14.7" height="4.3" transform="matrix(.8 0 0 .8008 -5.4 -1.8)"/><use xlink:href="#H" width="9.4" height="10.7" transform="matrix(-.7809 .0172 .0954 .7721 6.35 -31)"/><use xlink:href="#I" width="6" height="5.5" transform="matrix(.1161 .6714 .6669 .0822 1.9 -18.9)"/><use xlink:href="#J" width="7.7" height="10" transform="matrix(.8643 .0195 -.0538 .8201 2.25 -26.65)"/><use xlink:href="#K" width="5.4" height="2.9" transform="matrix(.6484 -.7564 .7233 .6487 -3.7 -2.3)"/><use xlink:href="#L" width="4.5" height="8.4" transform="matrix(-.7805 .3689 .1602 .7341 -.6 -11.75)"/><use xlink:href="#M" width="5" height="11.1" transform="matrix(.9101 .3777 -.2875 .798 -2.5 -19.05)"/><use xlink:href="#N" width="6.9" height="3.8" transform="matrix(.9362 .0539 .1199 1.0088 -2.75 -1.25)"/><use xlink:href="#L" width="4.5" height="8.4" transform="matrix(-.8708 .4789 .206 .9067 2 -8.3)"/><use xlink:href="#O" width="15.7" height="15.8" transform="matrix(.9967 .0441 -.0575 1.0002 -9.1 -46.75)"/><use xlink:href="#M" width="5" height="11.1" transform="matrix(.9954 -.0871 .0993 1.0249 -3.9 -16.3)"/><use xlink:href="#P" width="10" height="9.3" transform="matrix(.9321 -.1229 .1602 .9813 -4.45 -17.9)"/><use xlink:href="#Q" width="10.1" height="14.1" transform="matrix(.918 .0086 .1441 .9593 -6.05 -30.55)"/><use xlink:href="#H" width="9.4" height="10.7" transform="matrix(.7916 .1584 -.0238 .901 -8 -30.95)"/><use xlink:href="#R" width="24.9" height="14.2" transform="matrix(-.6609 .6412 .7049 .696 -6.3 -23.2)"/><use xlink:href="#S" width="4" height="5" transform="matrix(1.0303 .032 .1327 1.0421 -7.85 -17.55)"/><use xlink:href="#T" width="8.7" height="10" transform="matrix(-.7963 -.3472 -.3282 .7627 1.35 -20.45)"/></g></g><g clip-path="url(#aY)"><g transform="translate(1710.7 48.75)"><use xlink:href="#G" width="14.7" height="4.3" transform="matrix(.8 0 0 .8008 -5.4 -1.8)"/><use xlink:href="#H" width="9.4" height="10.7" transform="matrix(-.778 .0239 .1046 .7672 6.5 -30.65)"/><use xlink:href="#I" width="6" height="5.5" transform="matrix(.1185 .6707 .667 .0797 2.35 -18.75)"/><use xlink:href="#J" width="7.7" height="10" transform="matrix(.8637 -.0005 -.0293 .8192 2.35 -26.3)"/><use xlink:href="#K" width="5.4" height="2.9" transform="matrix(.7481 -.6582 .6172 .7453 -4.45 -2.4)"/><use xlink:href="#L" width="4.5" height="8.4" transform="matrix(-.7995 .3002 .1106 .7363 -.6 -11.35)"/><use xlink:href="#M" width="5" height="11.1" transform="matrix(.9021 .3929 -.2819 .8041 -2.6 -18.95)"/><use xlink:href="#N" width="6.9" height="3.8" transform="matrix(.9239 .0368 .1378 1.0092 -2.25 -1.05)"/><use xlink:href="#L" width="4.5" height="8.4" transform="matrix(-.8637 .4957 .2316 .894 2.2 -8.15)"/><use xlink:href="#O" width="15.7" height="15.8" transform="matrix(.995 .0609 -.0789 .9993 -8.75 -46.45)"/><use xlink:href="#M" width="5" height="11.1" transform="matrix(.994 -.1005 .1135 1.0284 -3.75 -16.05)"/><use xlink:href="#P" width="10" height="9.3" transform="matrix(.9193 -.1417 .1735 .9777 -4.35 -17.45)"/><use xlink:href="#Q" width="10.1" height="14.1" transform="matrix(.9152 .0364 .1346 .9563 -5.9 -30.4)"/><use xlink:href="#H" width="9.4" height="10.7" transform="matrix(.7843 .1963 -.0517 .9002 -7.95 -30.9)"/><use xlink:href="#R" width="24.9" height="14.2" transform="matrix(-.6863 .6206 .6767 .723 -6.5 -23.4)"/><use xlink:href="#S" width="4" height="5" transform="matrix(1.0265 .1219 .0602 1.0465 -8.2 -17.7)"/><use xlink:href="#T" width="8.7" height="10" transform="matrix(-.7627 -.4157 -.3581 .7163 .9 -19.8)"/></g></g><g clip-path="url(#aZ)"><g transform="translate(1752.7 48.75)"><use xlink:href="#G" width="14.7" height="4.3" transform="matrix(.8 0 0 .8008 -5.4 -1.8)"/><use xlink:href="#H" width="9.4" height="10.7" transform="matrix(-.7751 .0306 .1112 .7625 6.7 -30.2)"/><use xlink:href="#I" width="6" height="5.5" transform="matrix(.1188 .6704 .6668 .0794 2.75 -18.6)"/><use xlink:href="#J" width="7.7" height="10" transform="matrix(.8626 -.0233 -.0076 .8174 2.45 -26)"/><use xlink:href="#K" width="5.4" height="2.9" transform="matrix(.835 -.5443 .5012 .8233 -5.1 -2.6)"/><use xlink:href="#L" width="4.5" height="8.4" transform="matrix(-.8119 .2336 .0614 .7353 -.65 -11.05)"/><use xlink:href="#M" width="5" height="11.1" transform="matrix(.8952 .4048 -.2762 .8101 -2.8 -18.8)"/><use xlink:href="#N" width="6.9" height="3.8" transform="matrix(.9112 .0201 .1557 1.0092 -1.65 -.85)"/><use xlink:href="#L" width="4.5" height="8.4" transform="matrix(-.8545 .5153 .2537 .8815 2.4 -7.95)"/><use xlink:href="#O" width="15.7" height="15.8" transform="matrix(.9933 .0745 -.0969 .9984 -8.4 -46.1)"/><use xlink:href="#M" width="5" height="11.1" transform="matrix(.9924 -.1139 .1277 1.0317 -3.6 -15.8)"/><use xlink:href="#P" width="10" height="9.3" transform="matrix(.9061 -.1601 .1898 .9733 -4.25 -17.1)"/><use xlink:href="#Q" width="10.1" height="14.1" transform="matrix(.9116 .064 .122 .9535 -5.8 -30.35)"/><use xlink:href="#H" width="9.4" height="10.7" transform="matrix(.7752 .2338 -.0795 .8984 -7.8 -30.8)"/><use xlink:href="#R" width="24.9" height="14.2" transform="matrix(-.7112 .599 .6475 .749 -6.75 -23.4)"/><use xlink:href="#S" width="4" height="5" transform="matrix(1.0148 .2115 -.0054 1.0459 -8.7 -17.9)"/><use xlink:href="#T" width="8.7" height="10" transform="matrix(-.7216 -.4834 -.3838 .6691 .5 -19.05)"/></g></g><g clip-path="url(#ba)"><g transform="translate(1794.7 48.75)"><use xlink:href="#G" width="14.7" height="4.3" transform="matrix(.8 0 0 .8008 -5.4 -1.8)"/><use xlink:href="#H" width="9.4" height="10.7" transform="matrix(-.7722 .0376 .1208 .7577 6.85 -29.85)"/><use xlink:href="#I" width="6" height="5.5" transform="matrix(.1214 .67 .6668 .0792 3.2 -18.4)"/><use xlink:href="#J" width="7.7" height="10" transform="matrix(.8608 -.0489 .0133 .8152 2.65 -25.55)"/><use xlink:href="#K" width="5.4" height="2.9" transform="matrix(.9043 -.4231 .3763 .8847 -5.85 -2.9)"/><use xlink:href="#L" width="4.5" height="8.4" transform="matrix(-.8191 .1676 .0128 .731 -.75 -10.6)"/><use xlink:href="#M" width="5" height="11.1" transform="matrix(.8872 .4216 -.273 .8161 -2.8 -18.75)"/><use xlink:href="#N" width="6.9" height="3.8" transform="matrix(.8982 .0041 .1745 1.0094 -1.2 -.7)"/><use xlink:href="#L" width="4.5" height="8.4" transform="matrix(-.846 .5358 .2787 .8682 2.55 -7.7)"/><use xlink:href="#O" width="15.7" height="15.8" transform="matrix(.9914 .0916 -.1191 .997 -8 -45.8)"/><use xlink:href="#M" width="5" height="11.1" transform="matrix(.9906 -.1306 .1455 1.0348 -3.55 -15.6)"/><use xlink:href="#P" width="10" height="9.3" transform="matrix(.8931 -.1785 .2063 .9693 -4.15 -16.6)"/><use xlink:href="#Q" width="10.1" height="14.1" transform="matrix(.9075 .0914 .1128 .9506 -5.7 -30.25)"/><use xlink:href="#H" width="9.4" height="10.7" transform="matrix(.765 .2712 -.1108 .8958 -7.75 -30.75)"/><use xlink:href="#R" width="24.9" height="14.2" transform="matrix(-.7366 .5772 .6177 .7754 -6.95 -23.5)"/><use xlink:href="#S" width="4" height="5" transform="matrix(.9961 .3005 -.0777 1.0406 -9.05 -18.05)"/><use xlink:href="#T" width="8.7" height="10" transform="matrix(-.6773 -.546 -.4071 .6216 -.05 -18.4)"/></g></g></svg>