<svg xmlns="http://www.w3.org/2000/svg" xmlns:xlink="http://www.w3.org/1999/xlink" width="1373" height="61" viewBox="0 0 1373 61"><defs><clipPath id="q"><path d="M1 1h27v59H1z"/></clipPath><clipPath id="w"><path d="M29 1h27v59H29z"/></clipPath><clipPath id="x"><path d="M57 1h27v59H57z"/></clipPath><clipPath id="y"><path d="M85 1h27v59H85z"/></clipPath><clipPath id="z"><path d="M113 1h27v59h-27z"/></clipPath><clipPath id="A"><path d="M141 1h27v59h-27z"/></clipPath><clipPath id="B"><path d="M169 1h27v59h-27z"/></clipPath><clipPath id="C"><path d="M197 1h27v59h-27z"/></clipPath><clipPath id="D"><path d="M225 1h27v59h-27z"/></clipPath><clipPath id="E"><path d="M253 1h27v59h-27z"/></clipPath><clipPath id="F"><path d="M281 1h27v59h-27z"/></clipPath><clipPath id="G"><path d="M309 1h27v59h-27z"/></clipPath><clipPath id="H"><path d="M337 1h27v59h-27z"/></clipPath><clipPath id="I"><path d="M365 1h27v59h-27z"/></clipPath><clipPath id="J"><path d="M393 1h27v59h-27z"/></clipPath><clipPath id="K"><path d="M421 1h27v59h-27z"/></clipPath><clipPath id="L"><path d="M449 1h27v59h-27z"/></clipPath><clipPath id="M"><path d="M477 1h27v59h-27z"/></clipPath><clipPath id="O"><path d="M505 1h27v59h-27z"/></clipPath><clipPath id="Q"><path d="M533 1h27v59h-27z"/></clipPath><clipPath id="S"><path d="M561 1h27v59h-27z"/></clipPath><clipPath id="U"><path d="M589 1h27v59h-27z"/></clipPath><clipPath id="W"><path d="M617 1h27v59h-27z"/></clipPath><clipPath id="Y"><path d="M645 1h27v59h-27z"/></clipPath><clipPath id="aa"><path d="M673 1h27v59h-27z"/></clipPath><clipPath id="ac"><path d="M701 1h27v59h-27z"/></clipPath><clipPath id="ad"><path d="M729 1h27v59h-27z"/></clipPath><clipPath id="ae"><path d="M757 1h27v59h-27z"/></clipPath><clipPath id="af"><path d="M785 1h27v59h-27z"/></clipPath><clipPath id="ag"><path d="M813 1h27v59h-27z"/></clipPath><clipPath id="ah"><path d="M841 1h27v59h-27z"/></clipPath><clipPath id="ai"><path d="M869 1h27v59h-27z"/></clipPath><clipPath id="aj"><path d="M897 1h27v59h-27z"/></clipPath><clipPath id="ak"><path d="M925 1h27v59h-27z"/></clipPath><clipPath id="al"><path d="M953 1h27v59h-27z"/></clipPath><clipPath id="am"><path d="M981 1h27v59h-27z"/></clipPath><clipPath id="an"><path d="M1009 1h27v59h-27z"/></clipPath><clipPath id="ao"><path d="M1037 1h27v59h-27z"/></clipPath><clipPath id="ap"><path d="M1065 1h27v59h-27z"/></clipPath><clipPath id="aq"><path d="M1093 1h27v59h-27z"/></clipPath><clipPath id="ar"><path d="M1121 1h27v59h-27z"/></clipPath><clipPath id="as"><path d="M1149 1h27v59h-27z"/></clipPath><clipPath id="at"><path d="M1177 1h27v59h-27z"/></clipPath><clipPath id="av"><path d="M1205 1h27v59h-27z"/></clipPath><clipPath id="ax"><path d="M1233 1h27v59h-27z"/></clipPath><clipPath id="az"><path d="M1261 1h27v59h-27z"/></clipPath><clipPath id="aB"><path d="M1289 1h27v59h-27z"/></clipPath><clipPath id="aD"><path d="M1317 1h27v59h-27z"/></clipPath><clipPath id="aF"><path d="M1345 1h27v59h-27z"/></clipPath><g id="a"><path fill="#ffec2a" fill-opacity=".1" d="M6 3.3q2.4-1.8 4.7-1t3.5 4 .3 6.6-3 5.6Q9.3 20.4 7 19.6q-2.3-.9-3.5-4-1-3.3-.2-6.7.7-3.6 2.8-5.6"/><path fill="#ffec2a" fill-opacity=".1" d="M6.6 4.9q1.8-1.4 3.6-.7t2.7 3 .3 5.2-2.3 4.4q-1.8 1.4-3.7.8-1.8-.7-2.7-3.1-.8-2.5-.2-5.2t2.3-4.4"/><path fill="#fff" fill-opacity=".3" d="M7.3 7q1.2-.9 2.4-.5t1.8 2.1.2 3.5T10 15t-2.4.5q-1.2-.4-1.8-2.1-.6-1.6-.2-3.4.4-1.9 1.5-3"/><path fill="#ffec2a" fill-opacity=".1" d="M2.9 1Q4.2-.5 5.2.5t1 4.1q.2 3.2-.6 6.6-.8 3.5-2.1 5.4-1.4 1.7-2.4.7T0 13q0-3.2.8-6.6.8-3.5 2-5.4"/><path fill="#ffec2a" fill-opacity=".1" d="M2.9 2.7q1-1.3 1.8-.6t.8 3.3q.2 2.5-.5 5.1-.7 2.8-1.7 4.2t-1.8.6Q.8 14.4.7 12q-.1-2.5.6-5.1.5-2.8 1.6-4.3"/><path fill="#fff" fill-opacity=".3" d="M2.9 4.8q.7-.8 1.2-.3t.6 2.2-.5 3.4q-.3 1.8-1 2.8t-1.3.4-.5-2.2.4-3.4q.4-1.9 1.1-2.9"/></g><g id="b"><path fill="#ffec2a" fill-opacity=".1" d="M6 3.3q2.4-1.8 4.7-1t3.5 4 .3 6.6-3 5.6Q9.3 20.4 7 19.6q-2.3-.9-3.5-4-1-3.3-.2-6.7.7-3.6 2.8-5.6"/><path fill="#ffec2a" fill-opacity=".1" d="M6.6 4.9q1.8-1.4 3.6-.7t2.7 3 .3 5.2-2.3 4.4q-1.8 1.4-3.7.8-1.8-.7-2.7-3.1-.8-2.5-.2-5.2t2.3-4.4"/><path fill="#fff" fill-opacity=".5" d="M7.3 7q1.2-.9 2.4-.5t1.8 2.1.2 3.5T10 15t-2.4.5q-1.2-.4-1.8-2.1-.6-1.6-.2-3.4.4-1.9 1.5-3"/><path fill="#ffec2a" fill-opacity=".1" d="M2.9 1Q4.2-.5 5.2.5t1 4.1q.2 3.2-.6 6.6-.8 3.5-2.1 5.4-1.4 1.7-2.4.7T0 13q0-3.2.8-6.6.8-3.5 2-5.4"/><path fill="#ffec2a" fill-opacity=".1" d="M2.9 2.7q1-1.3 1.8-.6t.8 3.3q.2 2.5-.5 5.1-.7 2.8-1.7 4.2t-1.8.6Q.8 14.4.7 12q-.1-2.5.6-5.1.5-2.8 1.6-4.3"/><path fill="#fff" fill-opacity=".5" d="M2.9 4.8q.7-.8 1.2-.3t.6 2.2-.5 3.4q-.3 1.8-1 2.8t-1.3.4-.5-2.2.4-3.4q.4-1.9 1.1-2.9"/></g><g id="c"><path fill="#ffec2a" fill-opacity=".2" d="M6 3.3q2.4-1.8 4.7-1t3.5 4 .3 6.6-3 5.6Q9.3 20.4 7 19.6q-2.3-.9-3.5-4-1-3.3-.2-6.7.7-3.6 2.8-5.6"/><path fill="#ffec2a" fill-opacity=".2" d="M6.6 4.9q1.8-1.4 3.6-.7t2.7 3 .3 5.2-2.3 4.4q-1.8 1.4-3.7.8-1.8-.7-2.7-3.1-.8-2.5-.2-5.2t2.3-4.4"/><path fill="#fff" fill-opacity=".6" d="M7.3 7q1.2-.9 2.4-.5t1.8 2.1.2 3.5T10 15t-2.4.5q-1.2-.4-1.8-2.1-.6-1.6-.2-3.4.4-1.9 1.5-3"/><path fill="#ffec2a" fill-opacity=".2" d="M2.9 1Q4.2-.5 5.2.5t1 4.1q.2 3.2-.6 6.6-.8 3.5-2.1 5.4-1.4 1.7-2.4.7T0 13q0-3.2.8-6.6.8-3.5 2-5.4"/><path fill="#ffec2a" fill-opacity=".2" d="M2.9 2.7q1-1.3 1.8-.6t.8 3.3q.2 2.5-.5 5.1-.7 2.8-1.7 4.2t-1.8.6Q.8 14.4.7 12q-.1-2.5.6-5.1.5-2.8 1.6-4.3"/><path fill="#fff" fill-opacity=".6" d="M2.9 4.8q.7-.8 1.2-.3t.6 2.2-.5 3.4q-.3 1.8-1 2.8t-1.3.4-.5-2.2.4-3.4q.4-1.9 1.1-2.9"/></g><g id="d"><path fill="#ffec2a" fill-opacity=".2" d="M6 3.3q2.4-1.8 4.7-1t3.5 4 .3 6.6-3 5.6Q9.3 20.4 7 19.6q-2.3-.9-3.5-4-1-3.3-.2-6.7.7-3.6 2.8-5.6"/><path fill="#ffec2a" fill-opacity=".2" d="M6.6 4.9q1.8-1.4 3.6-.7t2.7 3 .3 5.2-2.3 4.4q-1.8 1.4-3.7.8-1.8-.7-2.7-3.1-.8-2.5-.2-5.2t2.3-4.4"/><path fill="#fff" fill-opacity=".7" d="M7.3 7q1.2-.9 2.4-.5t1.8 2.1.2 3.5T10 15t-2.4.5q-1.2-.4-1.8-2.1-.6-1.6-.2-3.4.4-1.9 1.5-3"/><path fill="#ffec2a" fill-opacity=".2" d="M2.9 1Q4.2-.5 5.2.5t1 4.1q.2 3.2-.6 6.6-.8 3.5-2.1 5.4-1.4 1.7-2.4.7T0 13q0-3.2.8-6.6.8-3.5 2-5.4"/><path fill="#ffec2a" fill-opacity=".2" d="M2.9 2.7q1-1.3 1.8-.6t.8 3.3q.2 2.5-.5 5.1-.7 2.8-1.7 4.2t-1.8.6Q.8 14.4.7 12q-.1-2.5.6-5.1.5-2.8 1.6-4.3"/><path fill="#fff" fill-opacity=".7" d="M2.9 4.8q.7-.8 1.2-.3t.6 2.2-.5 3.4q-.3 1.8-1 2.8t-1.3.4-.5-2.2.4-3.4q.4-1.9 1.1-2.9"/></g><g id="e"><path fill="#ffec2a" fill-opacity=".2" d="M6 3.3q2.4-1.8 4.7-1t3.5 4 .3 6.6-3 5.6Q9.3 20.4 7 19.6q-2.3-.9-3.5-4-1-3.3-.2-6.7.7-3.6 2.8-5.6"/><path fill="#ffec2a" fill-opacity=".2" d="M6.6 4.9q1.8-1.4 3.6-.7t2.7 3 .3 5.2-2.3 4.4q-1.8 1.4-3.7.8-1.8-.7-2.7-3.1-.8-2.5-.2-5.2t2.3-4.4"/><path fill="#fff" fill-opacity=".8" d="M7.3 7q1.2-.9 2.4-.5t1.8 2.1.2 3.5T10 15t-2.4.5q-1.2-.4-1.8-2.1-.6-1.6-.2-3.4.4-1.9 1.5-3"/><path fill="#ffec2a" fill-opacity=".2" d="M2.9 1Q4.2-.5 5.2.5t1 4.1q.2 3.2-.6 6.6-.8 3.5-2.1 5.4-1.4 1.7-2.4.7T0 13q0-3.2.8-6.6.8-3.5 2-5.4"/><path fill="#ffec2a" fill-opacity=".2" d="M2.9 2.7q1-1.3 1.8-.6t.8 3.3q.2 2.5-.5 5.1-.7 2.8-1.7 4.2t-1.8.6Q.8 14.4.7 12q-.1-2.5.6-5.1.5-2.8 1.6-4.3"/><path fill="#fff" fill-opacity=".8" d="M2.9 4.8q.7-.8 1.2-.3t.6 2.2-.5 3.4q-.3 1.8-1 2.8t-1.3.4-.5-2.2.4-3.4q.4-1.9 1.1-2.9"/></g><g id="f"><path fill="#ffec2a" fill-opacity=".3" d="M6 3.3q2.4-1.8 4.7-1t3.5 4 .3 6.6-3 5.6Q9.3 20.4 7 19.6q-2.3-.9-3.5-4-1-3.3-.2-6.7.7-3.6 2.8-5.6"/><path fill="#ffec2a" fill-opacity=".3" d="M6.6 4.9q1.8-1.4 3.6-.7t2.7 3 .3 5.2-2.3 4.4q-1.8 1.4-3.7.8-1.8-.7-2.7-3.1-.8-2.5-.2-5.2t2.3-4.4"/><path fill="#fff" fill-opacity=".9" d="M7.3 7q1.2-.9 2.4-.5t1.8 2.1.2 3.5T10 15t-2.4.5q-1.2-.4-1.8-2.1-.6-1.6-.2-3.4.4-1.9 1.5-3"/><path fill="#ffec2a" fill-opacity=".3" d="M2.9 1Q4.2-.5 5.2.5t1 4.1q.2 3.2-.6 6.6-.8 3.5-2.1 5.4-1.4 1.7-2.4.7T0 13q0-3.2.8-6.6.8-3.5 2-5.4"/><path fill="#ffec2a" fill-opacity=".3" d="M2.9 2.7q1-1.3 1.8-.6t.8 3.3q.2 2.5-.5 5.1-.7 2.8-1.7 4.2t-1.8.6Q.8 14.4.7 12q-.1-2.5.6-5.1.5-2.8 1.6-4.3"/><path fill="#fff" fill-opacity=".9" d="M2.9 4.8q.7-.8 1.2-.3t.6 2.2-.5 3.4q-.3 1.8-1 2.8t-1.3.4-.5-2.2.4-3.4q.4-1.9 1.1-2.9"/></g><g id="g"><path fill="#ffec2a" fill-opacity=".3" d="M6 3.3q2.4-1.8 4.7-1t3.5 4 .3 6.6-3 5.6Q9.3 20.4 7 19.6q-2.3-.9-3.5-4-1-3.3-.2-6.7.7-3.6 2.8-5.6"/><path fill="#ffec2a" fill-opacity=".3" d="M6.6 4.9q1.8-1.4 3.6-.7t2.7 3 .3 5.2-2.3 4.4q-1.8 1.4-3.7.8-1.8-.7-2.7-3.1-.8-2.5-.2-5.2t2.3-4.4"/><path fill="#fff" d="M7.3 7q1.2-.9 2.4-.5t1.8 2.1.2 3.5T10 15t-2.4.5q-1.2-.4-1.8-2.1-.6-1.6-.2-3.4.4-1.9 1.5-3"/><path fill="#ffec2a" fill-opacity=".3" d="M2.9 1Q4.2-.5 5.2.5t1 4.1q.2 3.2-.6 6.6-.8 3.5-2.1 5.4-1.4 1.7-2.4.7T0 13q0-3.2.8-6.6.8-3.5 2-5.4"/><path fill="#ffec2a" fill-opacity=".3" d="M2.9 2.7q1-1.3 1.8-.6t.8 3.3q.2 2.5-.5 5.1-.7 2.8-1.7 4.2t-1.8.6Q.8 14.4.7 12q-.1-2.5.6-5.1.5-2.8 1.6-4.3"/><path fill="#fff" d="M2.9 4.8q.7-.8 1.2-.3t.6 2.2-.5 3.4q-.3 1.8-1 2.8t-1.3.4-.5-2.2.4-3.4q.4-1.9 1.1-2.9"/></g><g id="h"><path fill="#ffec2a" fill-opacity=".2" d="M6 3.3q2.4-1.8 4.7-1t3.5 4 .3 6.6-3 5.6Q9.3 20.4 7 19.6q-2.3-.9-3.5-4-1-3.3-.2-6.7.7-3.6 2.8-5.6"/><path fill="#ffec2a" fill-opacity=".2" d="M6.6 4.9q1.8-1.4 3.6-.7t2.7 3 .3 5.2-2.3 4.4q-1.8 1.4-3.7.8-1.8-.7-2.7-3.1-.8-2.5-.2-5.2t2.3-4.4"/><path fill="#fff" fill-opacity=".7" d="M7.3 7q1.2-.9 2.4-.5t1.8 2.1.2 3.5T10 15t-2.4.5q-1.2-.4-1.8-2.1-.6-1.6-.2-3.4.4-1.9 1.5-3"/><path fill="#ffec2a" fill-opacity=".2" d="M2.9 1Q4.2-.5 5.2.5t1 4.1q.2 3.2-.6 6.6-.8 3.5-2.1 5.4-1.4 1.7-2.4.7T0 13q0-3.2.8-6.6.8-3.5 2-5.4"/><path fill="#ffec2a" fill-opacity=".2" d="M2.9 2.7q1-1.3 1.8-.6t.8 3.3q.2 2.5-.5 5.1-.7 2.8-1.7 4.2t-1.8.6Q.8 14.4.7 12q-.1-2.5.6-5.1.5-2.8 1.6-4.3"/><path fill="#fff" fill-opacity=".7" d="M2.9 4.8q.7-.8 1.2-.3t.6 2.2-.5 3.4q-.3 1.8-1 2.8t-1.3.4-.5-2.2.4-3.4q.4-1.9 1.1-2.9"/></g><g id="i"><path fill="#ffec2a" fill-opacity=".1" d="M6 3.3q2.4-1.8 4.7-1t3.5 4 .3 6.6-3 5.6Q9.3 20.4 7 19.6q-2.3-.9-3.5-4-1-3.3-.2-6.7.7-3.6 2.8-5.6"/><path fill="#ffec2a" fill-opacity=".1" d="M6.6 4.9q1.8-1.4 3.6-.7t2.7 3 .3 5.2-2.3 4.4q-1.8 1.4-3.7.8-1.8-.7-2.7-3.1-.8-2.5-.2-5.2t2.3-4.4"/><path fill="#fff" fill-opacity=".5" d="M7.3 7q1.2-.9 2.4-.5t1.8 2.1.2 3.5T10 15t-2.4.5q-1.2-.4-1.8-2.1-.6-1.6-.2-3.4.4-1.9 1.5-3"/><path fill="#ffec2a" fill-opacity=".1" d="M2.9 1Q4.2-.5 5.2.5t1 4.1q.2 3.2-.6 6.6-.8 3.5-2.1 5.4-1.4 1.7-2.4.7T0 13q0-3.2.8-6.6.8-3.5 2-5.4"/><path fill="#ffec2a" fill-opacity=".1" d="M2.9 2.7q1-1.3 1.8-.6t.8 3.3q.2 2.5-.5 5.1-.7 2.8-1.7 4.2t-1.8.6Q.8 14.4.7 12q-.1-2.5.6-5.1.5-2.8 1.6-4.3"/><path fill="#fff" fill-opacity=".5" d="M2.9 4.8q.7-.8 1.2-.3t.6 2.2-.5 3.4q-.3 1.8-1 2.8t-1.3.4-.5-2.2.4-3.4q.4-1.9 1.1-2.9"/></g><g id="j"><path fill="#ffec2a" fill-opacity=".1" d="M6 3.3q2.4-1.8 4.7-1t3.5 4 .3 6.6-3 5.6Q9.3 20.4 7 19.6q-2.3-.9-3.5-4-1-3.3-.2-6.7.7-3.6 2.8-5.6"/><path fill="#ffec2a" fill-opacity=".1" d="M6.6 4.9q1.8-1.4 3.6-.7t2.7 3 .3 5.2-2.3 4.4q-1.8 1.4-3.7.8-1.8-.7-2.7-3.1-.8-2.5-.2-5.2t2.3-4.4"/><path fill="#fff" fill-opacity=".3" d="M7.3 7q1.2-.9 2.4-.5t1.8 2.1.2 3.5T10 15t-2.4.5q-1.2-.4-1.8-2.1-.6-1.6-.2-3.4.4-1.9 1.5-3"/><path fill="#ffec2a" fill-opacity=".1" d="M2.9 1Q4.2-.5 5.2.5t1 4.1q.2 3.2-.6 6.6-.8 3.5-2.1 5.4-1.4 1.7-2.4.7T0 13q0-3.2.8-6.6.8-3.5 2-5.4"/><path fill="#ffec2a" fill-opacity=".1" d="M2.9 2.7q1-1.3 1.8-.6t.8 3.3q.2 2.5-.5 5.1-.7 2.8-1.7 4.2t-1.8.6Q.8 14.4.7 12q-.1-2.5.6-5.1.5-2.8 1.6-4.3"/><path fill="#fff" fill-opacity=".3" d="M2.9 4.8q.7-.8 1.2-.3t.6 2.2-.5 3.4q-.3 1.8-1 2.8t-1.3.4-.5-2.2.4-3.4q.4-1.9 1.1-2.9"/></g><g id="k"><path fill="#ffec2a" fill-opacity=".1" d="M6 3.3q2.4-1.8 4.7-1t3.5 4 .3 6.6-3 5.6Q9.3 20.4 7 19.6q-2.3-.9-3.5-4-1-3.3-.2-6.7.7-3.6 2.8-5.6"/><path fill="#ffec2a" fill-opacity=".1" d="M6.6 4.9q1.8-1.4 3.6-.7t2.7 3 .3 5.2-2.3 4.4q-1.8 1.4-3.7.8-1.8-.7-2.7-3.1-.8-2.5-.2-5.2t2.3-4.4"/><path fill="#fff" fill-opacity=".2" d="M7.3 7q1.2-.9 2.4-.5t1.8 2.1.2 3.5T10 15t-2.4.5q-1.2-.4-1.8-2.1-.6-1.6-.2-3.4.4-1.9 1.5-3"/><path fill="#ffec2a" fill-opacity=".1" d="M2.9 1Q4.2-.5 5.2.5t1 4.1q.2 3.2-.6 6.6-.8 3.5-2.1 5.4-1.4 1.7-2.4.7T0 13q0-3.2.8-6.6.8-3.5 2-5.4"/><path fill="#ffec2a" fill-opacity=".1" d="M2.9 2.7q1-1.3 1.8-.6t.8 3.3q.2 2.5-.5 5.1-.7 2.8-1.7 4.2t-1.8.6Q.8 14.4.7 12q-.1-2.5.6-5.1.5-2.8 1.6-4.3"/><path fill="#fff" fill-opacity=".2" d="M2.9 4.8q.7-.8 1.2-.3t.6 2.2-.5 3.4q-.3 1.8-1 2.8t-1.3.4-.5-2.2.4-3.4q.4-1.9 1.1-2.9"/></g><g id="l"><path fill="#ffec2a" fill-opacity="0" d="M6 3.3q2.4-1.8 4.7-1t3.5 4 .3 6.6-3 5.6Q9.3 20.4 7 19.6q-2.3-.9-3.5-4-1-3.3-.2-6.7.7-3.6 2.8-5.6"/><path fill="#ffec2a" fill-opacity="0" d="M6.6 4.9q1.8-1.4 3.6-.7t2.7 3 .3 5.2-2.3 4.4q-1.8 1.4-3.7.8-1.8-.7-2.7-3.1-.8-2.5-.2-5.2t2.3-4.4"/><path fill="#fff" fill-opacity=".1" d="M7.3 7q1.2-.9 2.4-.5t1.8 2.1.2 3.5T10 15t-2.4.5q-1.2-.4-1.8-2.1-.6-1.6-.2-3.4.4-1.9 1.5-3"/><path fill="#ffec2a" fill-opacity="0" d="M2.9 1Q4.2-.5 5.2.5t1 4.1q.2 3.2-.6 6.6-.8 3.5-2.1 5.4-1.4 1.7-2.4.7T0 13q0-3.2.8-6.6.8-3.5 2-5.4"/><path fill="#ffec2a" fill-opacity="0" d="M2.9 2.7q1-1.3 1.8-.6t.8 3.3q.2 2.5-.5 5.1-.7 2.8-1.7 4.2t-1.8.6Q.8 14.4.7 12q-.1-2.5.6-5.1.5-2.8 1.6-4.3"/><path fill="#fff" fill-opacity=".1" d="M2.9 4.8q.7-.8 1.2-.3t.6 2.2-.5 3.4q-.3 1.8-1 2.8t-1.3.4-.5-2.2.4-3.4q.4-1.9 1.1-2.9"/></g><g id="m" fill-opacity="0"><path fill="#ffec2a" d="M6 3.3q2.4-1.8 4.7-1t3.5 4 .3 6.6-3 5.6Q9.3 20.4 7 19.6q-2.3-.9-3.5-4-1-3.3-.2-6.7.7-3.6 2.8-5.6"/><path fill="#ffec2a" d="M6.6 4.9q1.8-1.4 3.6-.7t2.7 3 .3 5.2-2.3 4.4q-1.8 1.4-3.7.8-1.8-.7-2.7-3.1-.8-2.5-.2-5.2t2.3-4.4"/><path fill="#fff" d="M7.3 7q1.2-.9 2.4-.5t1.8 2.1.2 3.5T10 15t-2.4.5q-1.2-.4-1.8-2.1-.6-1.6-.2-3.4.4-1.9 1.5-3"/><path fill="#ffec2a" d="M2.9 1Q4.2-.5 5.2.5t1 4.1q.2 3.2-.6 6.6-.8 3.5-2.1 5.4-1.4 1.7-2.4.7T0 13q0-3.2.8-6.6.8-3.5 2-5.4"/><path fill="#ffec2a" d="M2.9 2.7q1-1.3 1.8-.6t.8 3.3q.2 2.5-.5 5.1-.7 2.8-1.7 4.2t-1.8.6Q.8 14.4.7 12q-.1-2.5.6-5.1.5-2.8 1.6-4.3"/><path fill="#fff" d="M2.9 4.8q.7-.8 1.2-.3t.6 2.2-.5 3.4q-.3 1.8-1 2.8t-1.3.4-.5-2.2.4-3.4q.4-1.9 1.1-2.9"/></g><g id="n" fill-opacity="0"><path fill="#ffec2a" d="M6 3.3q2.4-1.8 4.7-1t3.5 4 .3 6.6-3 5.6Q9.3 20.4 7 19.6q-2.3-.9-3.5-4-1-3.3-.2-6.7.7-3.6 2.8-5.6"/><path fill="#ffec2a" d="M6.6 4.9q1.8-1.4 3.6-.7t2.7 3 .3 5.2-2.3 4.4q-1.8 1.4-3.7.8-1.8-.7-2.7-3.1-.8-2.5-.2-5.2t2.3-4.4"/><path fill="#fff" d="M7.3 7q1.2-.9 2.4-.5t1.8 2.1.2 3.5T10 15t-2.4.5q-1.2-.4-1.8-2.1-.6-1.6-.2-3.4.4-1.9 1.5-3"/><path fill="#ffec2a" d="M2.9 1Q4.2-.5 5.2.5t1 4.1q.2 3.2-.6 6.6-.8 3.5-2.1 5.4-1.4 1.7-2.4.7T0 13q0-3.2.8-6.6.8-3.5 2-5.4"/><path fill="#ffec2a" d="M2.9 2.7q1-1.3 1.8-.6t.8 3.3q.2 2.5-.5 5.1-.7 2.8-1.7 4.2t-1.8.6Q.8 14.4.7 12q-.1-2.5.6-5.1.5-2.8 1.6-4.3"/><path fill="#fff" d="M2.9 4.8q.7-.8 1.2-.3t.6 2.2-.5 3.4q-.3 1.8-1 2.8t-1.3.4-.5-2.2.4-3.4q.4-1.9 1.1-2.9"/></g><g id="o"><path fill="red" d="m.2 29.2 5.7-7.3Q.7 30 4.9 38.3l.9-6.8Q7.3 22 16 21.5l-1 3.3 2.8-.8-.5 4.4q2.2-3.6 6.9-3.4l5.7 3.2 1.5-3.7-4.3-3.5 2.7-.6q.5 1.2.6 2.8 5.8 3.3 4.2 9.5l-1.6-.4-5.7 5.2.1-1.1-1.5 2q-2.4 3.2-6.4 3.2l-2.6 1.8.1-2.6-4.2 2.6-.2-2 .1 1-5.4-5.8-.5 4.8q-2.7-.1-3.5-2.7-1-3.8-2-4.1L0 37zm21.4 1q-3.4 2.8-3.3 7.5l1.5.4q6.7.1 5.7-6.9-1.2-1.5-4-1"/><path fill="#fc3" d="m29.8 20.5-2.7.6 4.3 3.4-1.4 3.8-5.8-3.3q-4.6-.1-7 3.5l.6-4.5-2.8.8 1-3.2q-8.7.5-10.2 9.9l-.9 6.8Q.7 30 5.9 21.9L.2 29.2l1.6-6.1q1.1-4.1 3.3-7.6 2.6-3.9 7.2-3.8 1.3.4 2 1l.1.1q2.3-.2 4.5.6 3.8 1.6 7.6 3.6 2.2 1.2 3.3 3.4"/><path fill="#d20000" d="m0 37 1.4-2.3q.9.3 2 4 .8 2.7 3.5 2.8l.4-4.9 5.4 5.9v-1l.1 2 4.2-2.6v2.5l2.5-1.7q4 0 6.5-3.2l1.4-2-.1 1.1 5.7-5.2 1.6.4Q32 42.7 24 48.8q-2 1.6-4.3 1.2-3.9 0-5.9-3.3l-1.4-.5-7.7-3Q.6 41.5 0 37"/><path fill="#693" d="m24.8 3 1.1.6q3.4 4.5-.4 7.7-.9.8-2.2.4-7.9-2.2-7.5-11l.3-.7q4.1 2.3 8.7 3"/><path fill="#f90" d="M21.6 30.2q2.7-.5 3.8 1 1.1 7-5.6 7l-1.5-.6q-.1-4.6 3.2-7.5"/></g><g id="v"><path fill="#fff" d="M17.3 59.6q1.4.3 2.2 2.3.9 2.1.6 4.8t-1.5 4.2q-1.3 1.7-2.8 1.3t-2.2-2.4T13 65t1.6-4.2 2.7-1.2m-7 12.2q.5 2-.7 2.9l-3.4.2q-2.1-.8-4-2.7-1.7-2-2.1-4-.3-2 .9-2.9l3.3-.1q2 .7 3.9 2.7 1.7 2 2.1 3.9M34.4 4.1l-6.1 17.5-7.4 1.6 3.5-16z"/><path fill="#403015" d="m21.2 7.5 1.7-5 .7 5.7-12.5 43.1-5.4 1.8L16 22.7z"/><path fill="#e0c7a9" d="m16 22.9-4.2-4.7L16.6 0l4.6 7.5z"/></g><g id="s"><path fill="#403015" d="m8.4 3.1-.8-1.2Q6.8.7 5.5.9-.5 2 1.9 7.4q.9 2 .9 4.4 0 4.3 3.4 5.5 1 .6 1.5-.3 3.4-6.8.7-13.9m1.5 12.8q-.7 2.6-3.2 2.3-4-.3-4.4-4.7-.1-2.2-1-3.7-2.7-4.2.1-8Q3-.2 5.2 0q4.4.8 5 5.6 1 5.2-.3 10.3"/><path fill="#88652d" d="M8.4 3.1q2.7 7-.7 13.9-.4.9-1.5.4-3.3-1.2-3.4-5.5 0-2.4-1-4.5Q-.4 2 5.6.9q1.3-.2 2 1z"/></g><use xlink:href="#a" id="aE" width="14.8" height="19.9"/><use xlink:href="#b" id="aC" width="14.8" height="19.9"/><use xlink:href="#c" id="aA" width="14.8" height="19.9"/><use xlink:href="#d" id="ay" width="14.8" height="19.9"/><use xlink:href="#e" id="aw" width="14.8" height="19.9"/><use xlink:href="#f" id="au" width="14.8" height="19.9"/><use xlink:href="#g" id="ab" width="14.8" height="19.9"/><use xlink:href="#h" id="Z" width="14.8" height="19.9"/><use xlink:href="#i" id="X" width="14.8" height="19.9"/><use xlink:href="#j" id="V" width="14.8" height="19.9"/><use xlink:href="#k" id="T" width="14.8" height="19.9"/><use xlink:href="#l" id="R" width="14.8" height="19.9"/><use xlink:href="#m" id="P" width="14.8" height="19.9"/><use xlink:href="#n" id="N" width="14.8" height="19.9"/><use xlink:href="#o" id="u" width="35" height="50"/><use xlink:href="#p" id="r" width="11.3" height="5"/><path id="p" fill="#382c16" d="M0-2.5q2.4 0 4 .8 1.6.6 1.7 1.7Q5.6 1.1 4 1.9t-4 .7-4-.8T-5.6 0t1.7-1.8T0-2.5" transform="translate(5.6 2.5)"/><path id="t" fill="#030" d="M-4.6-20.1h1v9.7h-1z" transform="translate(4.65 20.1)"/></defs><g clip-path="url(#q)"><g transform="translate(17.05 55.3)"><use xlink:href="#r" width="11.3" height="5" transform="translate(-5.25 -2.15)"/><use xlink:href="#s" width="10.7" height="18.3" transform="matrix(-.4101 -.3968 -.405 .2143 3.25 -1.15)"/><use xlink:href="#s" width="10.7" height="18.3" transform="matrix(.1147 .4789 -.4632 .1196 6.7 -2.9)"/><use xlink:href="#t" width="1.1" height="9.7" transform="matrix(-.5 0 0 .5 3.2 -19.35)"/><use xlink:href="#u" width="35" height="50" transform="translate(-7.95 -24.5)scale(.5002)"/><use xlink:href="#v" width="34.4" height="75.2" transform="matrix(-.5 0 0 .5 2.8 -42.3)"/></g></g><g clip-path="url(#w)"><g transform="translate(45.05 55.3)"><use xlink:href="#r" width="11.3" height="5" transform="translate(-5.25 -2.15)"/><use xlink:href="#s" width="10.7" height="18.3" transform="matrix(-.4101 -.3968 -.405 .2143 3.25 -1.15)"/><use xlink:href="#s" width="10.7" height="18.3" transform="matrix(.1147 .4789 -.4632 .1196 6.7 -2.9)"/><use xlink:href="#t" width="1.1" height="9.7" transform="matrix(-.5076 -.0047 0 .4858 3.2 -18.65)"/><use xlink:href="#u" width="35" height="50" transform="matrix(.5078 .0047 0 .486 -8.1 -23.75)"/><use xlink:href="#v" width="34.4" height="75.2" transform="matrix(-.5076 -.0047 0 .4858 2.8 -40.9)"/></g></g><g clip-path="url(#x)"><g transform="translate(73.05 55.3)"><use xlink:href="#r" width="11.3" height="5" transform="translate(-5.25 -2.15)"/><use xlink:href="#s" width="10.7" height="18.3" transform="matrix(-.4101 -.3968 -.405 .2143 3.25 -1.15)"/><use xlink:href="#s" width="10.7" height="18.3" transform="matrix(.1147 .4789 -.4632 .1196 6.7 -2.9)"/><use xlink:href="#t" width="1.1" height="9.7" transform="matrix(-.5146 -.0094 0 .4727 3.2 -17.9)"/><use xlink:href="#u" width="35" height="50" transform="matrix(.5148 .0094 0 .4729 -8.3 -22.95)"/><use xlink:href="#v" width="34.4" height="75.2" transform="matrix(-.5146 -.0094 0 .4727 2.8 -39.6)"/></g></g><g clip-path="url(#y)"><g transform="translate(101.05 55.3)"><use xlink:href="#r" width="11.3" height="5" transform="translate(-5.25 -2.15)"/><use xlink:href="#s" width="10.7" height="18.3" transform="matrix(-.4101 -.3968 -.405 .2143 3.25 -1.15)"/><use xlink:href="#s" width="10.7" height="18.3" transform="matrix(.1147 .4789 -.4632 .1196 6.7 -2.9)"/><use xlink:href="#t" width="1.1" height="9.7" transform="matrix(-.521 -.0142 0 .4606 3.25 -17.3)"/><use xlink:href="#u" width="35" height="50" transform="matrix(.5212 .0142 0 .4608 -8.35 -22.3)"/><use xlink:href="#v" width="34.4" height="75.2" transform="matrix(-.521 -.0142 0 .4606 2.85 -38.45)"/></g></g><g clip-path="url(#z)"><g transform="translate(129.05 55.3)"><use xlink:href="#r" width="11.3" height="5" transform="translate(-5.25 -2.15)"/><use xlink:href="#s" width="10.7" height="18.3" transform="matrix(-.4101 -.3968 -.405 .2143 3.25 -1.15)"/><use xlink:href="#s" width="10.7" height="18.3" transform="matrix(.1147 .4789 -.4632 .1196 6.7 -2.9)"/><use xlink:href="#t" width="1.1" height="9.7" transform="matrix(-.5268 -.0189 0 .4496 3.3 -16.75)"/><use xlink:href="#u" width="35" height="50" transform="matrix(.527 .0189 0 .4498 -8.45 -21.8)"/><use xlink:href="#v" width="34.4" height="75.2" transform="matrix(-.5268 -.0189 0 .4496 2.9 -37.4)"/></g></g><g clip-path="url(#A)"><g transform="translate(157.05 55.3)"><use xlink:href="#r" width="11.3" height="5" transform="translate(-5.25 -2.15)"/><use xlink:href="#s" width="10.7" height="18.3" transform="matrix(-.4101 -.3968 -.405 .2143 3.25 -1.15)"/><use xlink:href="#s" width="10.7" height="18.3" transform="matrix(.1147 .4789 -.4632 .1196 6.7 -2.9)"/><use xlink:href="#t" width="1.1" height="9.7" transform="matrix(-.5319 -.0236 0 .4397 3.3 -16.25)"/><use xlink:href="#u" width="35" height="50" transform="matrix(.5322 .0236 0 .4398 -8.55 -21.25)"/><use xlink:href="#v" width="34.4" height="75.2" transform="matrix(-.5319 -.0236 0 .4397 2.9 -36.4)"/></g></g><g clip-path="url(#B)"><g transform="translate(185.05 55.3)"><use xlink:href="#r" width="11.3" height="5" transform="translate(-5.25 -2.15)"/><use xlink:href="#s" width="10.7" height="18.3" transform="matrix(-.4101 -.3968 -.405 .2143 3.25 -1.15)"/><use xlink:href="#s" width="10.7" height="18.3" transform="matrix(.1147 .4789 -.4632 .1196 6.7 -2.9)"/><use xlink:href="#t" width="1.1" height="9.7" transform="matrix(-.5365 -.0282 0 .4307 3.35 -15.8)"/><use xlink:href="#u" width="35" height="50" transform="matrix(.5367 .0283 0 .4309 -8.6 -20.8)"/><use xlink:href="#v" width="34.4" height="75.2" transform="matrix(-.5365 -.0282 0 .4307 2.9 -35.55)"/></g></g><g clip-path="url(#C)"><g transform="translate(213.05 55.3)"><use xlink:href="#r" width="11.3" height="5" transform="translate(-5.25 -2.15)"/><use xlink:href="#s" width="10.7" height="18.3" transform="matrix(-.4101 -.3968 -.405 .2143 3.25 -1.15)"/><use xlink:href="#s" width="10.7" height="18.3" transform="matrix(.1147 .4789 -.4632 .1196 6.7 -2.9)"/><use xlink:href="#t" width="1.1" height="9.7" transform="matrix(-.5406 -.0311 0 .4229 3.35 -15.35)"/><use xlink:href="#u" width="35" height="50" transform="matrix(.5408 .0311 0 .423 -8.7 -20.4)"/><use xlink:href="#v" width="34.4" height="75.2" transform="matrix(-.5406 -.0311 0 .4229 2.95 -34.75)"/></g></g><g clip-path="url(#D)"><g transform="translate(241.05 55.3)"><use xlink:href="#r" width="11.3" height="5" transform="translate(-5.25 -2.15)"/><use xlink:href="#s" width="10.7" height="18.3" transform="matrix(-.4101 -.3968 -.405 .2143 3.25 -1.15)"/><use xlink:href="#s" width="10.7" height="18.3" transform="matrix(.1147 .4789 -.4632 .1196 6.7 -2.9)"/><use xlink:href="#t" width="1.1" height="9.7" transform="matrix(-.5441 -.0338 0 .416 3.4 -15)"/><use xlink:href="#u" width="35" height="50" transform="matrix(.5443 .0338 0 .4162 -8.75 -20)"/><use xlink:href="#v" width="34.4" height="75.2" transform="matrix(-.5441 -.0338 0 .416 2.95 -34.1)"/></g></g><g clip-path="url(#E)"><g transform="translate(269.05 55.3)"><use xlink:href="#r" width="11.3" height="5" transform="translate(-5.25 -2.15)"/><use xlink:href="#s" width="10.7" height="18.3" transform="matrix(-.4101 -.3968 -.405 .2143 3.25 -1.15)"/><use xlink:href="#s" width="10.7" height="18.3" transform="matrix(.1147 .4789 -.4632 .1196 6.7 -2.9)"/><use xlink:href="#t" width="1.1" height="9.7" transform="matrix(-.5471 -.0363 0 .4103 3.4 -14.7)"/><use xlink:href="#u" width="35" height="50" transform="matrix(.5473 .0364 0 .4104 -8.8 -19.7)"/><use xlink:href="#v" width="34.4" height="75.2" transform="matrix(-.5471 -.0363 0 .4103 2.95 -33.5)"/></g></g><g clip-path="url(#F)"><g transform="translate(297.05 55.3)"><use xlink:href="#r" width="11.3" height="5" transform="translate(-5.25 -2.15)"/><use xlink:href="#s" width="10.7" height="18.3" transform="matrix(-.4101 -.3968 -.405 .2143 3.25 -1.15)"/><use xlink:href="#s" width="10.7" height="18.3" transform="matrix(.1147 .4789 -.4632 .1196 6.7 -2.9)"/><use xlink:href="#t" width="1.1" height="9.7" transform="matrix(-.5494 -.0388 0 .4055 3.4 -14.4)"/><use xlink:href="#u" width="35" height="50" transform="matrix(.5497 .0388 0 .4057 -8.85 -19.4)"/><use xlink:href="#v" width="34.4" height="75.2" transform="matrix(-.5494 -.0388 0 .4055 2.95 -33.05)"/></g></g><g clip-path="url(#G)"><g transform="translate(325.05 55.3)"><use xlink:href="#r" width="11.3" height="5" transform="translate(-5.25 -2.15)"/><use xlink:href="#s" width="10.7" height="18.3" transform="matrix(-.4101 -.3968 -.405 .2143 3.25 -1.15)"/><use xlink:href="#s" width="10.7" height="18.3" transform="matrix(.1147 .4789 -.4632 .1196 6.7 -2.9)"/><use xlink:href="#t" width="1.1" height="9.7" transform="matrix(-.5512 -.0412 0 .4019 3.4 -14.25)"/><use xlink:href="#u" width="35" height="50" transform="matrix(.5515 .0412 0 .402 -8.85 -19.25)"/><use xlink:href="#v" width="34.4" height="75.2" transform="matrix(-.5512 -.0412 0 .4019 2.95 -32.7)"/></g></g><g clip-path="url(#H)"><g transform="translate(353.05 55.3)"><use xlink:href="#r" width="11.3" height="5" transform="translate(-5.25 -2.15)"/><use xlink:href="#s" width="10.7" height="18.3" transform="matrix(-.4101 -.3968 -.405 .2143 3.25 -1.15)"/><use xlink:href="#s" width="10.7" height="18.3" transform="matrix(.1147 .4789 -.4632 .1196 6.7 -2.9)"/><use xlink:href="#t" width="1.1" height="9.7" transform="matrix(-.5526 -.0415 0 .3992 3.4 -14.15)"/><use xlink:href="#u" width="35" height="50" transform="matrix(.5529 .0415 0 .3994 -8.9 -19.1)"/><use xlink:href="#v" width="34.4" height="75.2" transform="matrix(-.5526 -.0415 0 .3992 3 -32.45)"/></g></g><g clip-path="url(#I)"><g transform="translate(381.05 55.3)"><use xlink:href="#r" width="11.3" height="5" transform="translate(-5.25 -2.15)"/><use xlink:href="#s" width="10.7" height="18.3" transform="matrix(-.4101 -.3968 -.405 .2143 3.25 -1.15)"/><use xlink:href="#s" width="10.7" height="18.3" transform="matrix(.1147 .4789 -.4632 .1196 6.7 -2.9)"/><use xlink:href="#t" width="1.1" height="9.7" transform="matrix(-.5533 -.0436 0 .3977 3.4 -14.1)"/><use xlink:href="#u" width="35" height="50" transform="matrix(.5535 .0436 0 .3978 -8.9 -19.1)"/><use xlink:href="#v" width="34.4" height="75.2" transform="matrix(-.5533 -.0436 0 .3977 3 -32.35)"/></g></g><g clip-path="url(#J)"><g transform="translate(409.05 55.3)"><use xlink:href="#r" width="11.3" height="5" transform="translate(-5.25 -2.15)"/><use xlink:href="#s" width="10.7" height="18.3" transform="matrix(-.4101 -.3968 -.405 .2143 3.25 -1.15)"/><use xlink:href="#s" width="10.7" height="18.3" transform="matrix(.1147 .4789 -.4632 .1196 6.7 -2.9)"/><use xlink:href="#t" width="1.1" height="9.7" transform="matrix(-.5537 -.0439 0 .3972 3.4 -13.95)"/><use xlink:href="#u" width="35" height="50" transform="matrix(.554 .0439 0 .3973 -8.9 -18.95)"/><use xlink:href="#v" width="34.4" height="75.2" transform="matrix(-.5537 -.0439 0 .3972 3 -32.15)"/></g></g><g clip-path="url(#K)"><g transform="translate(437.05 55.3)"><use xlink:href="#r" width="11.3" height="5" transform="translate(-5.25 -2.15)"/><use xlink:href="#s" width="10.7" height="18.3" transform="matrix(-.4101 -.3968 -.405 .2143 3.25 -1.15)"/><use xlink:href="#s" width="10.7" height="18.3" transform="matrix(.1147 .4789 -.4632 .1196 6.7 -2.9)"/><use xlink:href="#t" width="1.1" height="9.7" transform="matrix(-.5529 -.0417 0 .3992 3.4 -14.1)"/><use xlink:href="#u" width="35" height="50" transform="matrix(.5531 .0417 0 .3994 -8.9 -19.05)"/><use xlink:href="#v" width="34.4" height="75.2" transform="matrix(-.5529 -.0417 0 .3992 3 -32.4)"/></g></g><g clip-path="url(#L)"><g transform="translate(465.05 55.3)"><use xlink:href="#r" width="11.3" height="5" transform="translate(-5.25 -2.15)"/><use xlink:href="#s" width="10.7" height="18.3" transform="matrix(-.4101 -.3968 -.405 .2143 3.25 -1.15)"/><use xlink:href="#s" width="10.7" height="18.3" transform="matrix(.1147 .4789 -.4632 .1196 6.7 -2.9)"/><use xlink:href="#t" width="1.1" height="9.7" transform="matrix(-.5504 -.0411 0 .4054 3.4 -14.45)"/><use xlink:href="#u" width="35" height="50" transform="matrix(.5506 .0412 0 .4056 -8.85 -19.5)"/><use xlink:href="#v" width="34.4" height="75.2" transform="matrix(-.5504 -.0411 0 .4054 2.95 -33.1)"/></g></g><g clip-path="url(#M)"><g transform="translate(493.05 55.3)"><use xlink:href="#r" width="11.3" height="5" transform="translate(-5.25 -2.15)"/><use xlink:href="#s" width="10.7" height="18.3" transform="matrix(-.4101 -.3968 -.405 .2143 3.25 -1.15)"/><use xlink:href="#s" width="10.7" height="18.3" transform="matrix(.1147 .4789 -.4632 .1196 6.7 -2.9)"/><use xlink:href="#t" width="1.1" height="9.7" transform="matrix(-.5463 -.0385 0 .4158 3.45 -15)"/><use xlink:href="#u" width="35" height="50" transform="matrix(.5465 .0385 0 .4159 -8.75 -20.1)"/><use xlink:href="#v" width="34.4" height="75.2" transform="matrix(-.5463 -.0385 0 .4158 3 -34.05)"/><use xlink:href="#N" width="14.8" height="19.9" transform="matrix(1 0 0 1.0269 -8.8 -18)"/></g></g><g clip-path="url(#O)"><g transform="translate(521.05 55.3)"><use xlink:href="#r" width="11.3" height="5" transform="translate(-5.25 -2.15)"/><use xlink:href="#s" width="10.7" height="18.3" transform="matrix(-.4101 -.3968 -.405 .2143 3.25 -1.15)"/><use xlink:href="#s" width="10.7" height="18.3" transform="matrix(.1147 .4789 -.4632 .1196 6.7 -2.9)"/><use xlink:href="#t" width="1.1" height="9.7" transform="matrix(-.5405 -.0356 0 .4302 3.4 -15.9)"/><use xlink:href="#u" width="35" height="50" transform="matrix(.5407 .0356 0 .4304 -8.65 -21.1)"/><use xlink:href="#v" width="34.4" height="75.2" transform="matrix(-.5405 -.0356 0 .4302 3 -35.65)"/><use xlink:href="#P" width="14.8" height="19.9" transform="matrix(1 0 0 1.0305 -8.8 -18.25)"/></g></g><g clip-path="url(#Q)"><g transform="translate(549.05 55.3)"><use xlink:href="#r" width="11.3" height="5" transform="translate(-5.25 -2.15)"/><use xlink:href="#s" width="10.7" height="18.3" transform="matrix(-.4101 -.3968 -.405 .2143 3.25 -1.15)"/><use xlink:href="#s" width="10.7" height="18.3" transform="matrix(.1147 .4789 -.4632 .1196 6.7 -2.9)"/><use xlink:href="#t" width="1.1" height="9.7" transform="matrix(-.5331 -.0306 0 .4488 3.35 -17.1)"/><use xlink:href="#u" width="35" height="50" transform="matrix(.5333 .0306 0 .449 -8.55 -22.4)"/><use xlink:href="#v" width="34.4" height="75.2" transform="matrix(-.5331 -.0306 0 .4488 2.9 -37.7)"/><use xlink:href="#R" width="14.8" height="19.9" transform="matrix(1 0 0 1.0413 -8.8 -18.75)"/></g></g><g clip-path="url(#S)"><g transform="translate(577.05 55.3)"><use xlink:href="#r" width="11.3" height="5" transform="translate(-5.25 -2.15)"/><use xlink:href="#s" width="10.7" height="18.3" transform="matrix(-.4101 -.3968 -.405 .2143 3.25 -1.15)"/><use xlink:href="#s" width="10.7" height="18.3" transform="matrix(.1147 .4789 -.4632 .1196 6.7 -2.9)"/><use xlink:href="#t" width="1.1" height="9.7" transform="matrix(-.524 -.0255 0 .4716 3.3 -18.5)"/><use xlink:href="#u" width="35" height="50" transform="matrix(.5242 .0255 0 .4718 -8.4 -23.9)"/><use xlink:href="#v" width="34.4" height="75.2" transform="matrix(-.524 -.0255 0 .4716 2.85 -40.15)"/><use xlink:href="#T" width="14.8" height="19.9" transform="matrix(1 0 0 1.0594 -8.75 -19.75)"/></g></g><g clip-path="url(#U)"><g transform="translate(605.05 55.3)"><use xlink:href="#r" width="11.3" height="5" transform="translate(-5.25 -2.15)"/><use xlink:href="#s" width="10.7" height="18.3" transform="matrix(-.4101 -.3968 -.405 .2143 3.25 -1.15)"/><use xlink:href="#s" width="10.7" height="18.3" transform="matrix(.1147 .4789 -.4632 .1196 6.7 -2.9)"/><use xlink:href="#t" width="1.1" height="9.7" transform="matrix(-.5131 -.0203 0 .4984 3.3 -20.1)"/><use xlink:href="#u" width="35" height="50" transform="matrix(.5133 .0203 0 .4986 -8.15 -25.7)"/><use xlink:href="#v" width="34.4" height="75.2" transform="matrix(-.5131 -.0203 0 .4984 2.9 -43)"/><use xlink:href="#V" width="14.8" height="19.9" transform="matrix(1 0 0 1.0847 -8.75 -21)"/></g></g><g clip-path="url(#W)"><g transform="translate(633.05 55.3)"><use xlink:href="#r" width="11.3" height="5" transform="translate(-5.25 -2.15)"/><use xlink:href="#s" width="10.7" height="18.3" transform="matrix(-.4101 -.3968 -.405 .2143 3.25 -1.15)"/><use xlink:href="#s" width="10.7" height="18.3" transform="matrix(.1147 .4789 -.4632 .1196 6.7 -2.9)"/><use xlink:href="#t" width="1.1" height="9.7" transform="matrix(-.5005 -.0134 0 .5294 3.2 -22.05)"/><use xlink:href="#u" width="35" height="50" transform="matrix(.5008 .0134 0 .5296 -8 -27.75)"/><use xlink:href="#v" width="34.4" height="75.2" transform="matrix(-.5005 -.0134 0 .5294 2.8 -46.3)"/><use xlink:href="#X" width="14.8" height="19.9" transform="matrix(1 0 0 1.1172 -8.7 -22.7)"/></g></g><g clip-path="url(#Y)"><g transform="translate(661.05 55.3)"><use xlink:href="#r" width="11.3" height="5" transform="translate(-5.25 -2.15)"/><use xlink:href="#s" width="10.7" height="18.3" transform="matrix(-.4101 -.3968 -.405 .2143 3.25 -1.15)"/><use xlink:href="#s" width="10.7" height="18.3" transform="matrix(.1147 .4789 -.4632 .1196 6.7 -2.9)"/><use xlink:href="#t" width="1.1" height="9.7" transform="matrix(-.4862 -.0066 0 .5646 3.1 -24.2)"/><use xlink:href="#u" width="35" height="50" transform="matrix(.4864 .0066 0 .5648 -7.7 -30.15)"/><use xlink:href="#v" width="34.4" height="75.2" transform="matrix(-.4862 -.0066 0 .5646 2.7 -50.1)"/><use xlink:href="#Z" width="14.8" height="19.9" transform="matrix(1 0 0 1.1569 -8.65 -24.75)"/></g></g><g clip-path="url(#aa)"><g transform="translate(689.05 55.3)"><use xlink:href="#r" width="11.3" height="5" transform="translate(-5.25 -2.15)"/><use xlink:href="#s" width="10.7" height="18.3" transform="matrix(-.4101 -.3968 -.405 .2143 3.25 -1.15)"/><use xlink:href="#s" width="10.7" height="18.3" transform="matrix(.1147 .4789 -.4632 .1196 6.7 -2.9)"/><use xlink:href="#t" width="1.1" height="9.7" transform="matrix(-.47 0 0 .6039 3.05 -26.6)"/><use xlink:href="#u" width="35" height="50" transform="matrix(.4702 0 0 .6041 -7.4 -32.8)"/><use xlink:href="#v" width="34.4" height="75.2" transform="matrix(-.47 0 0 .6039 2.65 -54.25)"/><use xlink:href="#ab" width="14.8" height="19.9" transform="matrix(1 0 0 1.2039 -8.6 -27.15)"/></g></g><g clip-path="url(#ac)"><g transform="translate(717.05 55.3)"><use xlink:href="#r" width="11.3" height="5" transform="translate(-5.25 -2.15)"/><use xlink:href="#s" width="10.7" height="18.3" transform="matrix(-.4101 -.3968 -.405 .2143 3.25 -1.15)"/><use xlink:href="#s" width="10.7" height="18.3" transform="matrix(.1147 .4789 -.4632 .1196 6.7 -2.9)"/><use xlink:href="#t" width="1.1" height="9.7" transform="matrix(-.47 0 0 .6038 3.05 -26.6)"/><use xlink:href="#u" width="35" height="50" transform="matrix(.4702 0 0 .6041 -7.4 -32.8)"/><use xlink:href="#v" width="34.4" height="75.2" transform="matrix(-.47 0 0 .6038 2.65 -54.25)"/><use xlink:href="#ab" width="14.8" height="19.9" transform="matrix(1 0 0 1.2038 -8.6 -27.15)"/></g></g><g clip-path="url(#ad)"><g transform="translate(745.05 55.3)"><use xlink:href="#r" width="11.3" height="5" transform="translate(-5.25 -2.15)"/><use xlink:href="#s" width="10.7" height="18.3" transform="matrix(-.4101 -.3968 -.405 .2143 3.25 -1.15)"/><use xlink:href="#s" width="10.7" height="18.3" transform="matrix(.1147 .4789 -.4632 .1196 6.7 -2.9)"/><use xlink:href="#t" width="1.1" height="9.7" transform="matrix(-.4701 0 0 .6037 3.05 -26.65)"/><use xlink:href="#u" width="35" height="50" transform="matrix(.4703 0 0 .6039 -7.4 -32.85)"/><use xlink:href="#v" width="34.4" height="75.2" transform="matrix(-.4701 0 0 .6037 2.65 -54.3)"/><use xlink:href="#ab" width="14.8" height="19.9" transform="matrix(1 0 0 1.2034 -8.6 -27.15)"/></g></g><g clip-path="url(#ae)"><g transform="translate(773.05 55.3)"><use xlink:href="#r" width="11.3" height="5" transform="translate(-5.25 -2.15)"/><use xlink:href="#s" width="10.7" height="18.3" transform="matrix(-.4101 -.3968 -.405 .2143 3.25 -1.15)"/><use xlink:href="#s" width="10.7" height="18.3" transform="matrix(.1147 .4789 -.4632 .1196 6.7 -2.9)"/><use xlink:href="#t" width="1.1" height="9.7" transform="matrix(-.4701 0 0 .6035 3.05 -26.6)"/><use xlink:href="#u" width="35" height="50" transform="matrix(.4703 0 0 .6037 -7.4 -32.8)"/><use xlink:href="#v" width="34.4" height="75.2" transform="matrix(-.4701 0 0 .6035 2.65 -54.25)"/><use xlink:href="#ab" width="14.8" height="19.9" transform="matrix(1 0 0 1.2028 -8.6 -27.15)"/></g></g><g clip-path="url(#af)"><g transform="translate(801.05 55.3)"><use xlink:href="#r" width="11.3" height="5" transform="translate(-5.25 -2.15)"/><use xlink:href="#s" width="10.7" height="18.3" transform="matrix(-.4101 -.3968 -.405 .2143 3.25 -1.15)"/><use xlink:href="#s" width="10.7" height="18.3" transform="matrix(.1147 .4789 -.4632 .1196 6.7 -2.9)"/><use xlink:href="#t" width="1.1" height="9.7" transform="matrix(-.4702 0 0 .6031 3.05 -26.5)"/><use xlink:href="#u" width="35" height="50" transform="matrix(.4704 0 0 .6034 -7.4 -32.7)"/><use xlink:href="#v" width="34.4" height="75.2" transform="matrix(-.4702 0 0 .6031 2.65 -54.2)"/><use xlink:href="#ab" width="14.8" height="19.9" transform="matrix(1 0 0 1.2019 -8.6 -27)"/></g></g><g clip-path="url(#ag)"><g transform="translate(829.05 55.3)"><use xlink:href="#r" width="11.3" height="5" transform="translate(-5.25 -2.15)"/><use xlink:href="#s" width="10.7" height="18.3" transform="matrix(-.4101 -.3968 -.405 .2143 3.25 -1.15)"/><use xlink:href="#s" width="10.7" height="18.3" transform="matrix(.1147 .4789 -.4632 .1196 6.7 -2.9)"/><use xlink:href="#t" width="1.1" height="9.7" transform="matrix(-.4704 0 0 .6027 3.05 -26.5)"/><use xlink:href="#u" width="35" height="50" transform="matrix(.4706 0 0 .6029 -7.4 -32.7)"/><use xlink:href="#v" width="34.4" height="75.2" transform="matrix(-.4704 0 0 .6027 2.65 -54.15)"/><use xlink:href="#ab" width="14.8" height="19.9" transform="matrix(1 0 0 1.2007 -8.6 -27)"/></g></g><g clip-path="url(#ah)"><g transform="translate(857.05 55.3)"><use xlink:href="#r" width="11.3" height="5" transform="translate(-5.25 -2.15)"/><use xlink:href="#s" width="10.7" height="18.3" transform="matrix(-.4101 -.3968 -.405 .2143 3.25 -1.15)"/><use xlink:href="#s" width="10.7" height="18.3" transform="matrix(.1147 .4789 -.4632 .1196 6.7 -2.9)"/><use xlink:href="#t" width="1.1" height="9.7" transform="matrix(-.4705 0 0 .6021 3.05 -26.45)"/><use xlink:href="#u" width="35" height="50" transform="matrix(.4707 0 0 .6023 -7.4 -32.65)"/><use xlink:href="#v" width="34.4" height="75.2" transform="matrix(-.4705 0 0 .6021 2.65 -54.05)"/><use xlink:href="#ab" width="14.8" height="19.9" transform="matrix(1 0 0 1.1991 -8.6 -27.05)"/></g></g><g clip-path="url(#ai)"><g transform="translate(885.05 55.3)"><use xlink:href="#r" width="11.3" height="5" transform="translate(-5.25 -2.15)"/><use xlink:href="#s" width="10.7" height="18.3" transform="matrix(-.4101 -.3968 -.405 .2143 3.25 -1.15)"/><use xlink:href="#s" width="10.7" height="18.3" transform="matrix(.1147 .4789 -.4632 .1196 6.7 -2.9)"/><use xlink:href="#t" width="1.1" height="9.7" transform="matrix(-.4707 0 0 .6013 3.05 -26.45)"/><use xlink:href="#u" width="35" height="50" transform="matrix(.4709 0 0 .6016 -7.4 -32.65)"/><use xlink:href="#v" width="34.4" height="75.2" transform="matrix(-.4707 0 0 .6013 2.65 -54)"/><use xlink:href="#ab" width="14.8" height="19.9" transform="matrix(1 0 0 1.1973 -8.6 -26.9)"/></g></g><g clip-path="url(#aj)"><g transform="translate(913.05 55.3)"><use xlink:href="#r" width="11.3" height="5" transform="translate(-5.25 -2.15)"/><use xlink:href="#s" width="10.7" height="18.3" transform="matrix(-.4101 -.3968 -.405 .2143 3.25 -1.15)"/><use xlink:href="#s" width="10.7" height="18.3" transform="matrix(.1147 .4789 -.4632 .1196 6.7 -2.9)"/><use xlink:href="#t" width="1.1" height="9.7" transform="matrix(-.471 0 0 .6004 3.05 -26.4)"/><use xlink:href="#u" width="35" height="50" transform="matrix(.4712 0 0 .6007 -7.45 -32.55)"/><use xlink:href="#v" width="34.4" height="75.2" transform="matrix(-.471 0 0 .6004 2.65 -53.95)"/><use xlink:href="#ab" width="14.8" height="19.9" transform="matrix(1 0 0 1.1949 -8.55 -26.9)"/></g></g><g clip-path="url(#ak)"><g transform="translate(941.05 55.3)"><use xlink:href="#r" width="11.3" height="5" transform="translate(-5.25 -2.15)"/><use xlink:href="#s" width="10.7" height="18.3" transform="matrix(-.4101 -.3968 -.405 .2143 3.25 -1.15)"/><use xlink:href="#s" width="10.7" height="18.3" transform="matrix(.1147 .4789 -.4632 .1196 6.7 -2.9)"/><use xlink:href="#t" width="1.1" height="9.7" transform="matrix(-.4713 0 0 .5993 3.05 -26.3)"/><use xlink:href="#u" width="35" height="50" transform="matrix(.4715 0 0 .5995 -7.45 -32.45)"/><use xlink:href="#v" width="34.4" height="75.2" transform="matrix(-.4713 0 0 .5993 2.65 -53.75)"/><use xlink:href="#ab" width="14.8" height="19.9" transform="matrix(1 0 0 1.1922 -8.55 -26.8)"/></g></g><g clip-path="url(#al)"><g transform="translate(969.05 55.3)"><use xlink:href="#r" width="11.3" height="5" transform="translate(-5.25 -2.15)"/><use xlink:href="#s" width="10.7" height="18.3" transform="matrix(-.4101 -.3968 -.405 .2143 3.25 -1.15)"/><use xlink:href="#s" width="10.7" height="18.3" transform="matrix(.1147 .4789 -.4632 .1196 6.7 -2.9)"/><use xlink:href="#t" width="1.1" height="9.7" transform="matrix(-.4717 0 0 .5979 3.05 -26.15)"/><use xlink:href="#u" width="35" height="50" transform="matrix(.4719 0 0 .5982 -7.45 -32.3)"/><use xlink:href="#v" width="34.4" height="75.2" transform="matrix(-.4717 0 0 .5979 2.65 -53.6)"/><use xlink:href="#ab" width="14.8" height="19.9" transform="matrix(1 0 0 1.1889 -8.55 -26.75)"/></g></g><g clip-path="url(#am)"><g transform="translate(997.05 55.3)"><use xlink:href="#r" width="11.3" height="5" transform="translate(-5.25 -2.15)"/><use xlink:href="#s" width="10.7" height="18.3" transform="matrix(-.4101 -.3968 -.405 .2143 3.25 -1.15)"/><use xlink:href="#s" width="10.7" height="18.3" transform="matrix(.1147 .4789 -.4632 .1196 6.7 -2.9)"/><use xlink:href="#t" width="1.1" height="9.7" transform="matrix(-.4722 0 0 .5963 3.05 -26.1)"/><use xlink:href="#u" width="35" height="50" transform="matrix(.4724 0 0 .5965 -7.45 -32.2)"/><use xlink:href="#v" width="34.4" height="75.2" transform="matrix(-.4722 0 0 .5963 2.65 -53.4)"/><use xlink:href="#ab" width="14.8" height="19.9" transform="matrix(1 0 0 1.1852 -8.55 -26.65)"/></g></g><g clip-path="url(#an)"><g transform="translate(1025.05 55.3)"><use xlink:href="#r" width="11.3" height="5" transform="translate(-5.25 -2.15)"/><use xlink:href="#s" width="10.7" height="18.3" transform="matrix(-.4101 -.3968 -.405 .2143 3.25 -1.15)"/><use xlink:href="#s" width="10.7" height="18.3" transform="matrix(.1147 .4789 -.4632 .1196 6.7 -2.9)"/><use xlink:href="#t" width="1.1" height="9.7" transform="matrix(-.4728 0 0 .5943 3.05 -25.95)"/><use xlink:href="#u" width="35" height="50" transform="matrix(.473 0 0 .5945 -7.45 -32.05)"/><use xlink:href="#v" width="34.4" height="75.2" transform="matrix(-.4728 0 0 .5943 2.65 -53.2)"/><use xlink:href="#ab" width="14.8" height="19.9" transform="matrix(1 0 0 1.1808 -8.5 -26.5)"/></g></g><g clip-path="url(#ao)"><g transform="translate(1053.05 55.3)"><use xlink:href="#r" width="11.3" height="5" transform="translate(-5.25 -2.15)"/><use xlink:href="#s" width="10.7" height="18.3" transform="matrix(-.4101 -.3968 -.405 .2143 3.25 -1.15)"/><use xlink:href="#s" width="10.7" height="18.3" transform="matrix(.1147 .4789 -.4632 .1196 6.7 -2.9)"/><use xlink:href="#t" width="1.1" height="9.7" transform="matrix(-.4735 0 0 .5918 3.05 -25.75)"/><use xlink:href="#u" width="35" height="50" transform="matrix(.4737 0 0 .5921 -7.45 -31.8)"/><use xlink:href="#v" width="34.4" height="75.2" transform="matrix(-.4735 0 0 .5918 2.65 -52.9)"/><use xlink:href="#ab" width="14.8" height="19.9" transform="matrix(1 0 0 1.1756 -8.5 -26.4)"/></g></g><g clip-path="url(#ap)"><g transform="translate(1081.05 55.3)"><use xlink:href="#r" width="11.3" height="5" transform="translate(-5.25 -2.15)"/><use xlink:href="#s" width="10.7" height="18.3" transform="matrix(-.4101 -.3968 -.405 .2143 3.25 -1.15)"/><use xlink:href="#s" width="10.7" height="18.3" transform="matrix(.1147 .4789 -.4632 .1196 6.7 -2.9)"/><use xlink:href="#t" width="1.1" height="9.7" transform="matrix(-.4744 0 0 .5889 3.05 -25.5)"/><use xlink:href="#u" width="35" height="50" transform="matrix(.4746 0 0 .5891 -7.5 -31.55)"/><use xlink:href="#v" width="34.4" height="75.2" transform="matrix(-.4744 0 0 .5889 2.7 -52.5)"/><use xlink:href="#ab" width="14.8" height="19.9" transform="matrix(1 0 0 1.1697 -8.5 -26.25)"/></g></g><g clip-path="url(#aq)"><g transform="translate(1109.05 55.3)"><use xlink:href="#r" width="11.3" height="5" transform="translate(-5.25 -2.15)"/><use xlink:href="#s" width="10.7" height="18.3" transform="matrix(-.4101 -.3968 -.405 .2143 3.25 -1.15)"/><use xlink:href="#s" width="10.7" height="18.3" transform="matrix(.1147 .4789 -.4632 .1196 6.7 -2.9)"/><use xlink:href="#t" width="1.1" height="9.7" transform="matrix(-.4754 0 0 .5851 3.05 -25.25)"/><use xlink:href="#u" width="35" height="50" transform="matrix(.4756 0 0 .5853 -7.5 -31.25)"/><use xlink:href="#v" width="34.4" height="75.2" transform="matrix(-.4754 0 0 .5851 2.7 -52.1)"/><use xlink:href="#ab" width="14.8" height="19.9" transform="matrix(1 0 0 1.1628 -8.45 -26.1)"/></g></g><g clip-path="url(#ar)"><g transform="translate(1137.05 55.3)"><use xlink:href="#r" width="11.3" height="5" transform="translate(-5.25 -2.15)"/><use xlink:href="#s" width="10.7" height="18.3" transform="matrix(-.4101 -.3968 -.405 .2143 3.25 -1.15)"/><use xlink:href="#s" width="10.7" height="18.3" transform="matrix(.1147 .4789 -.4632 .1196 6.7 -2.9)"/><use xlink:href="#t" width="1.1" height="9.7" transform="matrix(-.4768 0 0 .5803 3.05 -24.85)"/><use xlink:href="#u" width="35" height="50" transform="matrix(.477 0 0 .5805 -7.55 -30.85)"/><use xlink:href="#v" width="34.4" height="75.2" transform="matrix(-.4768 0 0 .5803 2.7 -51.45)"/><use xlink:href="#ab" width="14.8" height="19.9" transform="matrix(1 0 0 1.1549 -8.45 -25.9)"/></g></g><g clip-path="url(#as)"><g transform="translate(1165.05 55.3)"><use xlink:href="#r" width="11.3" height="5" transform="translate(-5.25 -2.15)"/><use xlink:href="#s" width="10.7" height="18.3" transform="matrix(-.4101 -.3968 -.405 .2143 3.25 -1.15)"/><use xlink:href="#s" width="10.7" height="18.3" transform="matrix(.1147 .4789 -.4632 .1196 6.7 -2.9)"/><use xlink:href="#t" width="1.1" height="9.7" transform="matrix(-.4787 0 0 .5739 3.1 -24.5)"/><use xlink:href="#u" width="35" height="50" transform="matrix(.4789 0 0 .5741 -7.55 -30.4)"/><use xlink:href="#v" width="34.4" height="75.2" transform="matrix(-.4787 0 0 .5739 2.7 -50.8)"/><use xlink:href="#ab" width="14.8" height="19.9" transform="matrix(1 0 0 1.1456 -8.4 -25.65)"/></g></g><g clip-path="url(#at)"><g transform="translate(1193.05 55.3)"><use xlink:href="#r" width="11.3" height="5" transform="translate(-5.25 -2.15)"/><use xlink:href="#s" width="10.7" height="18.3" transform="matrix(-.4101 -.3968 -.405 .2143 3.25 -1.15)"/><use xlink:href="#s" width="10.7" height="18.3" transform="matrix(.1147 .4789 -.4632 .1196 6.7 -2.9)"/><use xlink:href="#t" width="1.1" height="9.7" transform="matrix(-.4813 0 0 .5649 3.1 -23.85)"/><use xlink:href="#u" width="35" height="50" transform="matrix(.4815 0 0 .5651 -7.6 -29.65)"/><use xlink:href="#v" width="34.4" height="75.2" transform="matrix(-.4813 0 0 .5649 2.7 -49.75)"/><use xlink:href="#au" width="14.8" height="19.9" transform="matrix(1 0 0 1.135 -8.4 -25.25)"/></g></g><g clip-path="url(#av)"><g transform="translate(1221.05 55.3)"><use xlink:href="#r" width="11.3" height="5" transform="translate(-5.25 -2.15)"/><use xlink:href="#s" width="10.7" height="18.3" transform="matrix(-.4101 -.3968 -.405 .2143 3.25 -1.15)"/><use xlink:href="#s" width="10.7" height="18.3" transform="matrix(.1147 .4789 -.4632 .1196 6.7 -2.9)"/><use xlink:href="#t" width="1.1" height="9.7" transform="matrix(-.4851 0 0 .5517 3.15 -22.9)"/><use xlink:href="#u" width="35" height="50" transform="matrix(.4853 0 0 .5519 -7.6 -28.55)"/><use xlink:href="#v" width="34.4" height="75.2" transform="matrix(-.4851 0 0 .5517 2.75 -48.2)"/><use xlink:href="#aw" width="14.8" height="19.9" transform="matrix(1 0 0 1.1225 -8.4 -24.85)"/></g></g><g clip-path="url(#ax)"><g transform="translate(1249.05 55.3)"><use xlink:href="#r" width="11.3" height="5" transform="translate(-5.25 -2.15)"/><use xlink:href="#s" width="10.7" height="18.3" transform="matrix(-.4101 -.3968 -.405 .2143 3.25 -1.15)"/><use xlink:href="#s" width="10.7" height="18.3" transform="matrix(.1147 .4789 -.4632 .1196 6.7 -2.9)"/><use xlink:href="#t" width="1.1" height="9.7" transform="matrix(-.49 0 0 .5348 3.15 -21.7)"/><use xlink:href="#u" width="35" height="50" transform="matrix(.4902 0 0 .535 -7.75 -27.2)"/><use xlink:href="#v" width="34.4" height="75.2" transform="matrix(-.49 0 0 .5348 2.75 -46.2)"/><use xlink:href="#ay" width="14.8" height="19.9" transform="matrix(1 0 0 1.1076 -8.4 -24.35)"/></g></g><g clip-path="url(#az)"><g transform="translate(1277.05 55.3)"><use xlink:href="#r" width="11.3" height="5" transform="translate(-5.25 -2.15)"/><use xlink:href="#s" width="10.7" height="18.3" transform="matrix(-.4101 -.3968 -.405 .2143 3.25 -1.15)"/><use xlink:href="#s" width="10.7" height="18.3" transform="matrix(.1147 .4789 -.4632 .1196 6.7 -2.9)"/><use xlink:href="#t" width="1.1" height="9.7" transform="matrix(-.494 0 0 .521 3.15 -20.75)"/><use xlink:href="#u" width="35" height="50" transform="matrix(.4942 0 0 .5212 -7.8 -26.1)"/><use xlink:href="#v" width="34.4" height="75.2" transform="matrix(-.494 0 0 .521 2.75 -44.65)"/><use xlink:href="#aA" width="14.8" height="19.9" transform="matrix(1 0 0 1.0895 -8.4 -23.7)"/></g></g><g clip-path="url(#aB)"><g transform="translate(1305.05 55.3)"><use xlink:href="#r" width="11.3" height="5" transform="translate(-5.25 -2.15)"/><use xlink:href="#s" width="10.7" height="18.3" transform="matrix(-.4101 -.3968 -.405 .2143 3.25 -1.15)"/><use xlink:href="#s" width="10.7" height="18.3" transform="matrix(.1147 .4789 -.4632 .1196 6.7 -2.9)"/><use xlink:href="#t" width="1.1" height="9.7" transform="matrix(-.4967 0 0 .5116 3.15 -20.05)"/><use xlink:href="#u" width="35" height="50" transform="matrix(.4969 0 0 .5118 -7.85 -25.3)"/><use xlink:href="#v" width="34.4" height="75.2" transform="matrix(-.4967 0 0 .5116 2.75 -43.5)"/><use xlink:href="#aC" width="14.8" height="19.9" transform="matrix(1 0 0 1.067 -8.45 -22.9)"/></g></g><g clip-path="url(#aD)"><g transform="translate(1333.05 55.3)"><use xlink:href="#r" width="11.3" height="5" transform="translate(-5.25 -2.15)"/><use xlink:href="#s" width="10.7" height="18.3" transform="matrix(-.4101 -.3968 -.405 .2143 3.25 -1.15)"/><use xlink:href="#s" width="10.7" height="18.3" transform="matrix(.1147 .4789 -.4632 .1196 6.7 -2.9)"/><use xlink:href="#t" width="1.1" height="9.7" transform="matrix(-.4986 0 0 .505 3.15 -19.6)"/><use xlink:href="#u" width="35" height="50" transform="matrix(.4988 0 0 .5052 -7.9 -24.8)"/><use xlink:href="#v" width="34.4" height="75.2" transform="matrix(-.4986 0 0 .505 2.75 -42.75)"/><use xlink:href="#aE" width="14.8" height="19.9" transform="matrix(1 0 0 1.0382 -8.45 -21.9)"/></g></g><g clip-path="url(#aF)"><g transform="translate(1361.05 55.3)"><use xlink:href="#r" width="11.3" height="5" transform="translate(-5.25 -2.15)"/><use xlink:href="#s" width="10.7" height="18.3" transform="matrix(-.4101 -.3968 -.405 .2143 3.25 -1.15)"/><use xlink:href="#s" width="10.7" height="18.3" transform="matrix(.1147 .4789 -.4632 .1196 6.7 -2.9)"/><use xlink:href="#t" width="1.1" height="9.7" transform="matrix(-.5 0 0 .5 3.2 -19.35)"/><use xlink:href="#u" width="35" height="50" transform="translate(-7.95 -24.5)scale(.5002)"/><use xlink:href="#v" width="34.4" height="75.2" transform="matrix(-.5 0 0 .5 2.8 -42.3)"/><use xlink:href="#N" width="14.8" height="19.9" transform="translate(-8.45 -20.6)"/></g></g></svg>