<svg xmlns="http://www.w3.org/2000/svg" xmlns:xlink="http://www.w3.org/1999/xlink" width="1233" height="87" viewBox="0 0 1233 87"><defs><g id="aq"><path fill="#980000" d="M.2 6.4 0 5.9l.1-.2.5-.4q1-2.6 3.4-4.2l.7-.5Q6-.2 7.7.1l1.6.6q1.4 1.1 1.7 3 .4 1.7-.2 3.4l.2.6-.2.5-.3.2h-.3.5l-1.3.1h-3l-.7-.1-4.3-1.3-.8-.4zm6.9.9L5 6.6l-2.3-.4-2-.3v.2q2.6 1.5 5.8 1.6l.4-.2z"/><path fill="#980000" d="m.2 6.4.4.3.8.4 4.3 1.3.8.1h4.1q-.8 2-2.6 3-2.6 1.4-5.3-.2l-1.2-.9L.5 9Q.1 8 .3 6.7zm.3.4"/><path fill="#980000" d="m7.1 7.3-.2.2-.5.2Q3.2 7.6.6 6l.1-.2 2 .3 2.2.4z"/><path fill="none" stroke="#980000" stroke-linecap="round" stroke-linejoin="round" stroke-opacity=".4" stroke-width="__RESOLUTION__" d="m10.7 8.5-.5-.1h.3l.3-.2.2-.5-.2-.6q.6-1.7.3-3.3-.4-2-1.8-3.2L7.6.1q-1.5-.3-3 .5l-.6.5Q1.7 2.7.6 5.4l-.5.3L0 6l.2.4.4.4.8.5h0l4.3 1.2.8.1h2.9zq-1 2-2.7 3-2.6 1.4-5.3-.2l-1.2-.9L.5 9Q.1 8 .3 6.7l-.1-.4" vector-effect="non-scaling-stroke"/></g><g id="ar"><path fill="#9d1101" d="M.2 6.4 0 5.9l.1-.2.5-.4q1-2.6 3.4-4.2l.7-.5Q6-.2 7.7.1l1.6.6q1.4 1.1 1.7 3 .4 1.7-.2 3.4l.2.6-.2.5-.3.2h-.3.5l-1.3.1h-3l-.7-.1-4.3-1.3-.8-.4zm6.9.9L5 6.6l-2.3-.4-2-.3v.2q2.6 1.5 5.8 1.6l.4-.2z"/><path fill="#9b0e00" d="m.2 6.4.4.3.8.4 4.3 1.3.8.1h4.1q-.8 2-2.6 3-2.6 1.4-5.3-.2l-1.2-.9L.5 9Q.1 8 .3 6.7zm.3.4"/><path fill="#a01504" d="m7.1 7.3-.2.2-.5.2Q3.2 7.6.6 6l.1-.2 2 .3 2.2.4z"/><path fill="none" stroke="#870000" stroke-linecap="round" stroke-linejoin="round" stroke-opacity=".4" stroke-width="__RESOLUTION__" d="m10.7 8.5-.5-.1h.3l.3-.2.2-.5-.2-.6q.6-1.7.3-3.3-.4-2-1.8-3.2L7.6.1q-1.5-.3-3 .5l-.6.5Q1.7 2.7.6 5.4l-.5.3L0 6l.2.4.4.4.8.5h0l4.3 1.2.8.1h2.9zq-1 2-2.7 3-2.6 1.4-5.3-.2l-1.2-.9L.5 9Q.1 8 .3 6.7l-.1-.4" vector-effect="non-scaling-stroke"/></g><g id="as"><path fill="#9c0e00" d="M.2 6.4 0 5.9l.1-.2.5-.4q1-2.6 3.4-4.2l.7-.5Q6-.2 7.7.1l1.6.6q1.4 1.1 1.7 3 .4 1.7-.2 3.4l.2.6-.2.5-.3.2h-.3.5l-1.3.1h-3l-.7-.1-4.3-1.3-.8-.4zm6.9.9L5 6.6l-2.3-.4-2-.3v.2q2.6 1.5 5.8 1.6l.4-.2z"/><path fill="#9a0c00" d="m.2 6.4.4.3.8.4 4.3 1.3.8.1h4.1q-.8 2-2.6 3-2.6 1.4-5.3-.2l-1.2-.9L.5 9Q.1 8 .3 6.7zm.3.4"/><path fill="#9e1203" d="m7.1 7.3-.2.2-.5.2Q3.2 7.6.6 6l.1-.2 2 .3 2.2.4z"/><path fill="none" stroke="#8a0100" stroke-linecap="round" stroke-linejoin="round" stroke-opacity=".4" stroke-width="__RESOLUTION__" d="m10.7 8.5-.5-.1h.3l.3-.2.2-.5-.2-.6q.6-1.7.3-3.3-.4-2-1.8-3.2L7.6.1q-1.5-.3-3 .5l-.6.5Q1.7 2.7.6 5.4l-.5.3L0 6l.2.4.4.4.8.5h0l4.3 1.2.8.1h2.9zq-1 2-2.7 3-2.6 1.4-5.3-.2l-1.2-.9L.5 9Q.1 8 .3 6.7l-.1-.4" vector-effect="non-scaling-stroke"/></g><g id="at"><path fill="#a22302" d="M.2 6.4 0 5.9l.1-.2.5-.4q1-2.6 3.4-4.2l.7-.5Q6-.2 7.7.1l1.6.6q1.4 1.1 1.7 3 .4 1.7-.2 3.4l.2.6-.2.5-.3.2h-.3.5l-1.3.1h-3l-.7-.1-4.3-1.3-.8-.4zm6.9.9L5 6.6l-2.3-.4-2-.3v.2q2.6 1.5 5.8 1.6l.4-.2z"/><path fill="#a01c01" d="m.2 6.4.4.3.8.4 4.3 1.3.8.1h4.1q-.8 2-2.6 3-2.6 1.4-5.3-.2l-1.2-.9L.5 9Q.1 8 .3 6.7zm.3.4"/><path fill="#a92a08" d="m7.1 7.3-.2.2-.5.2Q3.2 7.6.6 6l.1-.2 2 .3 2.2.4z"/><path fill="none" stroke="#760000" stroke-linecap="round" stroke-linejoin="round" stroke-opacity=".4" stroke-width="__RESOLUTION__" d="m10.7 8.5-.5-.1h.3l.3-.2.2-.5-.2-.6q.6-1.7.3-3.3-.4-2-1.8-3.2L7.6.1q-1.5-.3-3 .5l-.6.5Q1.7 2.7.6 5.4l-.5.3L0 6l.2.4.4.4.8.5h0l4.3 1.2.8.1h2.9zq-1 2-2.7 3-2.6 1.4-5.3-.2l-1.2-.9L.5 9Q.1 8 .3 6.7l-.1-.4" vector-effect="non-scaling-stroke"/></g><g id="au"><path fill="#a01e01" d="M.2 6.4 0 5.9l.1-.2.5-.4q1-2.6 3.4-4.2l.7-.5Q6-.2 7.7.1l1.6.6q1.4 1.1 1.7 3 .4 1.7-.2 3.4l.2.6-.2.5-.3.2h-.3.5l-1.3.1h-3l-.7-.1-4.3-1.3-.8-.4zm6.9.9L5 6.6l-2.3-.4-2-.3v.2q2.6 1.5 5.8 1.6l.4-.2z"/><path fill="#9e1901" d="m.2 6.4.4.3.8.4 4.3 1.3.8.1h4.1q-.8 2-2.6 3-2.6 1.4-5.3-.2l-1.2-.9L.5 9Q.1 8 .3 6.7zm.3.4"/><path fill="#a52406" d="m7.1 7.3-.2.2-.5.2Q3.2 7.6.6 6l.1-.2 2 .3 2.2.4z"/><path fill="none" stroke="#7c0200" stroke-linecap="round" stroke-linejoin="round" stroke-opacity=".4" stroke-width="__RESOLUTION__" d="m10.7 8.5-.5-.1h.3l.3-.2.2-.5-.2-.6q.6-1.7.3-3.3-.4-2-1.8-3.2L7.6.1q-1.5-.3-3 .5l-.6.5Q1.7 2.7.6 5.4l-.5.3L0 6l.2.4.4.4.8.5h0l4.3 1.2.8.1h2.9zq-1 2-2.7 3-2.6 1.4-5.3-.2l-1.2-.9L.5 9Q.1 8 .3 6.7l-.1-.4" vector-effect="non-scaling-stroke"/></g><g id="av"><path fill="#a83403" d="M.2 6.4 0 5.9l.1-.2.5-.4q1-2.6 3.4-4.2l.7-.5Q6-.2 7.7.1l1.6.6q1.4 1.1 1.7 3 .4 1.7-.2 3.4l.2.6-.2.5-.3.2h-.3.5l-1.3.1h-3l-.7-.1-4.3-1.3-.8-.4zm6.9.9L5 6.6l-2.3-.4-2-.3v.2q2.6 1.5 5.8 1.6l.4-.2z"/><path fill="#a32a02" d="m.2 6.4.4.3.8.4 4.3 1.3.8.1h4.1q-.8 2-2.6 3-2.6 1.4-5.3-.2l-1.2-.9L.5 9Q.1 8 .3 6.7zm.3.4"/><path fill="#b1400c" d="m7.1 7.3-.2.2-.5.2Q3.2 7.6.6 6l.1-.2 2 .3 2.2.4z"/><path fill="none" stroke="#650000" stroke-linecap="round" stroke-linejoin="round" stroke-opacity=".4" stroke-width="__RESOLUTION__" d="m10.7 8.5-.5-.1h.3l.3-.2.2-.5-.2-.6q.6-1.7.3-3.3-.4-2-1.8-3.2L7.6.1q-1.5-.3-3 .5l-.6.5Q1.7 2.7.6 5.4l-.5.3L0 6l.2.4.4.4.8.5h0l4.3 1.2.8.1h2.9zq-1 2-2.7 3-2.6 1.4-5.3-.2l-1.2-.9L.5 9Q.1 8 .3 6.7l-.1-.4" vector-effect="non-scaling-stroke"/></g><g id="aw"><path fill="#a42d02" d="M.2 6.4 0 5.9l.1-.2.5-.4q1-2.6 3.4-4.2l.7-.5Q6-.2 7.7.1l1.6.6q1.4 1.1 1.7 3 .4 1.7-.2 3.4l.2.6-.2.5-.3.2h-.3.5l-1.3.1h-3l-.7-.1-4.3-1.3-.8-.4zm6.9.9L5 6.6l-2.3-.4-2-.3v.2q2.6 1.5 5.8 1.6l.4-.2z"/><path fill="#a12501" d="m.2 6.4.4.3.8.4 4.3 1.3.8.1h4.1q-.8 2-2.6 3-2.6 1.4-5.3-.2l-1.2-.9L.5 9Q.1 8 .3 6.7zm.3.4"/><path fill="#ac3709" d="m7.1 7.3-.2.2-.5.2Q3.2 7.6.6 6l.1-.2 2 .3 2.2.4z"/><path fill="none" stroke="#6e0300" stroke-linecap="round" stroke-linejoin="round" stroke-opacity=".4" stroke-width="__RESOLUTION__" d="m10.7 8.5-.5-.1h.3l.3-.2.2-.5-.2-.6q.6-1.7.3-3.3-.4-2-1.8-3.2L7.6.1q-1.5-.3-3 .5l-.6.5Q1.7 2.7.6 5.4l-.5.3L0 6l.2.4.4.4.8.5h0l4.3 1.2.8.1h2.9zq-1 2-2.7 3-2.6 1.4-5.3-.2l-1.2-.9L.5 9Q.1 8 .3 6.7l-.1-.4" vector-effect="non-scaling-stroke"/></g><g id="ax"><path fill="#ad4604" d="M.2 6.4 0 5.9l.1-.2.5-.4q1-2.6 3.4-4.2l.7-.5Q6-.2 7.7.1l1.6.6q1.4 1.1 1.7 3 .4 1.7-.2 3.4l.2.6-.2.5-.3.2h-.3.5l-1.3.1h-3l-.7-.1-4.3-1.3-.8-.4zm6.9.9L5 6.6l-2.3-.4-2-.3v.2q2.6 1.5 5.8 1.6l.4-.2z"/><path fill="#a83903" d="m.2 6.4.4.3.8.4 4.3 1.3.8.1h4.1q-.8 2-2.6 3-2.6 1.4-5.3-.2l-1.2-.9L.5 9Q.1 8 .3 6.7zm.3.4"/><path fill="#ba5510" d="m7.1 7.3-.2.2-.5.2Q3.2 7.6.6 6l.1-.2 2 .3 2.2.4z"/><path fill="none" stroke="#540000" stroke-linecap="round" stroke-linejoin="round" stroke-opacity=".4" stroke-width="__RESOLUTION__" d="m10.7 8.5-.5-.1h.3l.3-.2.2-.5-.2-.6q.6-1.7.3-3.3-.4-2-1.8-3.2L7.6.1q-1.5-.3-3 .5l-.6.5Q1.7 2.7.6 5.4l-.5.3L0 6l.2.4.4.4.8.5h0l4.3 1.2.8.1h2.9zq-1 2-2.7 3-2.6 1.4-5.3-.2l-1.2-.9L.5 9Q.1 8 .3 6.7l-.1-.4" vector-effect="non-scaling-stroke"/></g><g id="ay"><path fill="#a93d03" d="M.2 6.4 0 5.9l.1-.2.5-.4q1-2.6 3.4-4.2l.7-.5Q6-.2 7.7.1l1.6.6q1.4 1.1 1.7 3 .4 1.7-.2 3.4l.2.6-.2.5-.3.2h-.3.5l-1.3.1h-3l-.7-.1-4.3-1.3-.8-.4zm6.9.9L5 6.6l-2.3-.4-2-.3v.2q2.6 1.5 5.8 1.6l.4-.2z"/><path fill="#a43202" d="m.2 6.4.4.3.8.4 4.3 1.3.8.1h4.1q-.8 2-2.6 3-2.6 1.4-5.3-.2l-1.2-.9L.5 9Q.1 8 .3 6.7zm.3.4"/><path fill="#b3490d" d="m7.1 7.3-.2.2-.5.2Q3.2 7.6.6 6l.1-.2 2 .3 2.2.4z"/><path fill="none" stroke="#600400" stroke-linecap="round" stroke-linejoin="round" stroke-opacity=".4" stroke-width="__RESOLUTION__" d="m10.7 8.5-.5-.1h.3l.3-.2.2-.5-.2-.6q.6-1.7.3-3.3-.4-2-1.8-3.2L7.6.1q-1.5-.3-3 .5l-.6.5Q1.7 2.7.6 5.4l-.5.3L0 6l.2.4.4.4.8.5h0l4.3 1.2.8.1h2.9zq-1 2-2.7 3-2.6 1.4-5.3-.2l-1.2-.9L.5 9Q.1 8 .3 6.7l-.1-.4" vector-effect="non-scaling-stroke"/></g><g id="az"><path fill="#b45706" d="M.2 6.4 0 5.9l.1-.2.5-.4q1-2.6 3.4-4.2l.7-.5Q6-.2 7.7.1l1.6.6q1.4 1.1 1.7 3 .4 1.7-.2 3.4l.2.6-.2.5-.3.2h-.3.5l-1.3.1h-3l-.7-.1-4.3-1.3-.8-.4zm6.9.9L5 6.6l-2.3-.4-2-.3v.2q2.6 1.5 5.8 1.6l.4-.2z"/><path fill="#ac4704" d="m.2 6.4.4.3.8.4 4.3 1.3.8.1h4.1q-.8 2-2.6 3-2.6 1.4-5.3-.2l-1.2-.9L.5 9Q.1 8 .3 6.7zm.3.4"/><path fill="#c36b15" d="m7.1 7.3-.2.2-.5.2Q3.2 7.6.6 6l.1-.2 2 .3 2.2.4z"/><path fill="none" stroke="#400" stroke-linecap="round" stroke-linejoin="round" stroke-opacity=".4" stroke-width="__RESOLUTION__" d="m10.7 8.5-.5-.1h.3l.3-.2.2-.5-.2-.6q.6-1.7.3-3.3-.4-2-1.8-3.2L7.6.1q-1.5-.3-3 .5l-.6.5Q1.7 2.7.6 5.4l-.5.3L0 6l.2.4.4.4.8.5h0l4.3 1.2.8.1h2.9zq-1 2-2.7 3-2.6 1.4-5.3-.2l-1.2-.9L.5 9Q.1 8 .3 6.7l-.1-.4" vector-effect="non-scaling-stroke"/></g><g id="aA"><path fill="#ae4b04" d="M.2 6.4 0 5.9l.1-.2.5-.4q1-2.6 3.4-4.2l.7-.5Q6-.2 7.7.1l1.6.6q1.4 1.1 1.7 3 .4 1.7-.2 3.4l.2.6-.2.5-.3.2h-.3.5l-1.3.1h-3l-.7-.1-4.3-1.3-.8-.4zm6.9.9L5 6.6l-2.3-.4-2-.3v.2q2.6 1.5 5.8 1.6l.4-.2z"/><path fill="#a83f03" d="m.2 6.4.4.3.8.4 4.3 1.3.8.1h4.1q-.8 2-2.6 3-2.6 1.4-5.3-.2l-1.2-.9L.5 9Q.1 8 .3 6.7zm.3.4"/><path fill="#ba5c10" d="m7.1 7.3-.2.2-.5.2Q3.2 7.6.6 6l.1-.2 2 .3 2.2.4z"/><path fill="none" stroke="#540500" stroke-linecap="round" stroke-linejoin="round" stroke-opacity=".4" stroke-width="__RESOLUTION__" d="m10.7 8.5-.5-.1h.3l.3-.2.2-.5-.2-.6q.6-1.7.3-3.3-.4-2-1.8-3.2L7.6.1q-1.5-.3-3 .5l-.6.5Q1.7 2.7.6 5.4l-.5.3L0 6l.2.4.4.4.8.5h0l4.3 1.2.8.1h2.9zq-1 2-2.7 3-2.6 1.4-5.3-.2l-1.2-.9L.5 9Q.1 8 .3 6.7l-.1-.4" vector-effect="non-scaling-stroke"/></g><g id="aB"><path fill="#b96907" d="M.2 6.4 0 5.9l.1-.2.5-.4q1-2.6 3.4-4.2l.7-.5Q6-.2 7.7.1l1.6.6q1.4 1.1 1.7 3 .4 1.7-.2 3.4l.2.6-.2.5-.3.2h-.3.5l-1.3.1h-3l-.7-.1-4.3-1.3-.8-.4zm6.9.9L5 6.6l-2.3-.4-2-.3v.2q2.6 1.5 5.8 1.6l.4-.2z"/><path fill="#b15605" d="m.2 6.4.4.3.8.4 4.3 1.3.8.1h4.1q-.8 2-2.6 3-2.6 1.4-5.3-.2l-1.2-.9L.5 9Q.1 8 .3 6.7zm.3.4"/><path fill="#cc8019" d="m7.1 7.3-.2.2-.5.2Q3.2 7.6.6 6l.1-.2 2 .3 2.2.4z"/><path fill="none" stroke="#300" stroke-linecap="round" stroke-linejoin="round" stroke-opacity=".4" stroke-width="__RESOLUTION__" d="m10.7 8.5-.5-.1h.3l.3-.2.2-.5-.2-.6q.6-1.7.3-3.3-.4-2-1.8-3.2L7.6.1q-1.5-.3-3 .5l-.6.5Q1.7 2.7.6 5.4l-.5.3L0 6l.2.4.4.4.8.5h0l4.3 1.2.8.1h2.9zq-1 2-2.7 3-2.6 1.4-5.3-.2l-1.2-.9L.5 9Q.1 8 .3 6.7l-.1-.4" vector-effect="non-scaling-stroke"/></g><g id="aC"><path fill="#b35b05" d="M.2 6.4 0 5.9l.1-.2.5-.4q1-2.6 3.4-4.2l.7-.5Q6-.2 7.7.1l1.6.6q1.4 1.1 1.7 3 .4 1.7-.2 3.4l.2.6-.2.5-.3.2h-.3.5l-1.3.1h-3l-.7-.1-4.3-1.3-.8-.4zm6.9.9L5 6.6l-2.3-.4-2-.3v.2q2.6 1.5 5.8 1.6l.4-.2z"/><path fill="#ab4c04" d="m.2 6.4.4.3.8.4 4.3 1.3.8.1h4.1q-.8 2-2.6 3-2.6 1.4-5.3-.2l-1.2-.9L.5 9Q.1 8 .3 6.7zm.3.4"/><path fill="#c16e14" d="m7.1 7.3-.2.2-.5.2Q3.2 7.6.6 6l.1-.2 2 .3 2.2.4z"/><path fill="none" stroke="#460600" stroke-linecap="round" stroke-linejoin="round" stroke-opacity=".4" stroke-width="__RESOLUTION__" d="m10.7 8.5-.5-.1h.3l.3-.2.2-.5-.2-.6q.6-1.7.3-3.3-.4-2-1.8-3.2L7.6.1q-1.5-.3-3 .5l-.6.5Q1.7 2.7.6 5.4l-.5.3L0 6l.2.4.4.4.8.5h0l4.3 1.2.8.1h2.9zq-1 2-2.7 3-2.6 1.4-5.3-.2l-1.2-.9L.5 9Q.1 8 .3 6.7l-.1-.4" vector-effect="non-scaling-stroke"/></g><g id="aD"><path fill="#bf7a08" d="M.2 6.4 0 5.9l.1-.2.5-.4q1-2.6 3.4-4.2l.7-.5Q6-.2 7.7.1l1.6.6q1.4 1.1 1.7 3 .4 1.7-.2 3.4l.2.6-.2.5-.3.2h-.3.5l-1.3.1h-3l-.7-.1-4.3-1.3-.8-.4zm6.9.9L5 6.6l-2.3-.4-2-.3v.2q2.6 1.5 5.8 1.6l.4-.2z"/><path fill="#b46406" d="m.2 6.4.4.3.8.4 4.3 1.3.8.1h4.1q-.8 2-2.6 3-2.6 1.4-5.3-.2l-1.2-.9L.5 9Q.1 8 .3 6.7zm.3.4"/><path fill="#d4961d" d="m7.1 7.3-.2.2-.5.2Q3.2 7.6.6 6l.1-.2 2 .3 2.2.4z"/><path fill="none" stroke="#200" stroke-linecap="round" stroke-linejoin="round" stroke-opacity=".4" stroke-width="__RESOLUTION__" d="m10.7 8.5-.5-.1h.3l.3-.2.2-.5-.2-.6q.6-1.7.3-3.3-.4-2-1.8-3.2L7.6.1q-1.5-.3-3 .5l-.6.5Q1.7 2.7.6 5.4l-.5.3L0 6l.2.4.4.4.8.5h0l4.3 1.2.8.1h2.9zq-1 2-2.7 3-2.6 1.4-5.3-.2l-1.2-.9L.5 9Q.1 8 .3 6.7l-.1-.4" vector-effect="non-scaling-stroke"/></g><g id="aE"><path fill="#b76a06" d="M.2 6.4 0 5.9l.1-.2.5-.4q1-2.6 3.4-4.2l.7-.5Q6-.2 7.7.1l1.6.6q1.4 1.1 1.7 3 .4 1.7-.2 3.4l.2.6-.2.5-.3.2h-.3.5l-1.3.1h-3l-.7-.1-4.3-1.3-.8-.4zm6.9.9L5 6.6l-2.3-.4-2-.3v.2q2.6 1.5 5.8 1.6l.4-.2z"/><path fill="#ae5804" d="m.2 6.4.4.3.8.4 4.3 1.3.8.1h4.1q-.8 2-2.6 3-2.6 1.4-5.3-.2l-1.2-.9L.5 9Q.1 8 .3 6.7zm.3.4"/><path fill="#c88117" d="m7.1 7.3-.2.2-.5.2Q3.2 7.6.6 6l.1-.2 2 .3 2.2.4z"/><path fill="none" stroke="#380700" stroke-linecap="round" stroke-linejoin="round" stroke-opacity=".4" stroke-width="__RESOLUTION__" d="m10.7 8.5-.5-.1h.3l.3-.2.2-.5-.2-.6q.6-1.7.3-3.3-.4-2-1.8-3.2L7.6.1q-1.5-.3-3 .5l-.6.5Q1.7 2.7.6 5.4l-.5.3L0 6l.2.4.4.4.8.5h0l4.3 1.2.8.1h2.9zq-1 2-2.7 3-2.6 1.4-5.3-.2l-1.2-.9L.5 9Q.1 8 .3 6.7l-.1-.4" vector-effect="non-scaling-stroke"/></g><g id="aF"><path fill="#c48c09" d="M.2 6.4 0 5.9l.1-.2.5-.4q1-2.6 3.4-4.2l.7-.5Q6-.2 7.7.1l1.6.6q1.4 1.1 1.7 3 .4 1.7-.2 3.4l.2.6-.2.5-.3.2h-.3.5l-1.3.1h-3l-.7-.1-4.3-1.3-.8-.4zm6.9.9L5 6.6l-2.3-.4-2-.3v.2q2.6 1.5 5.8 1.6l.4-.2z"/><path fill="#b97207" d="m.2 6.4.4.3.8.4 4.3 1.3.8.1h4.1q-.8 2-2.6 3-2.6 1.4-5.3-.2l-1.2-.9L.5 9Q.1 8 .3 6.7zm.3.4"/><path fill="#ddab21" d="m7.1 7.3-.2.2-.5.2Q3.2 7.6.6 6l.1-.2 2 .3 2.2.4z"/><path fill="none" stroke="#100" stroke-linecap="round" stroke-linejoin="round" stroke-opacity=".4" stroke-width="__RESOLUTION__" d="m10.7 8.5-.5-.1h.3l.3-.2.2-.5-.2-.6q.6-1.7.3-3.3-.4-2-1.8-3.2L7.6.1q-1.5-.3-3 .5l-.6.5Q1.7 2.7.6 5.4l-.5.3L0 6l.2.4.4.4.8.5h0l4.3 1.2.8.1h2.9zq-1 2-2.7 3-2.6 1.4-5.3-.2l-1.2-.9L.5 9Q.1 8 .3 6.7l-.1-.4" vector-effect="non-scaling-stroke"/></g><g id="aG"><path fill="#bc7a07" d="M.2 6.4 0 5.9l.1-.2.5-.4q1-2.6 3.4-4.2l.7-.5Q6-.2 7.7.1l1.6.6q1.4 1.1 1.7 3 .4 1.7-.2 3.4l.2.6-.2.5-.3.2h-.3.5l-1.3.1h-3l-.7-.1-4.3-1.3-.8-.4zm6.9.9L5 6.6l-2.3-.4-2-.3v.2q2.6 1.5 5.8 1.6l.4-.2z"/><path fill="#b26505" d="m.2 6.4.4.3.8.4 4.3 1.3.8.1h4.1q-.8 2-2.6 3-2.6 1.4-5.3-.2l-1.2-.9L.5 9Q.1 8 .3 6.7zm.3.4"/><path fill="#cf931a" d="m7.1 7.3-.2.2-.5.2Q3.2 7.6.6 6l.1-.2 2 .3 2.2.4z"/><path fill="none" stroke="#2a0800" stroke-linecap="round" stroke-linejoin="round" stroke-opacity=".4" stroke-width="__RESOLUTION__" d="m10.7 8.5-.5-.1h.3l.3-.2.2-.5-.2-.6q.6-1.7.3-3.3-.4-2-1.8-3.2L7.6.1q-1.5-.3-3 .5l-.6.5Q1.7 2.7.6 5.4l-.5.3L0 6l.2.4.4.4.8.5h0l4.3 1.2.8.1h2.9zq-1 2-2.7 3-2.6 1.4-5.3-.2l-1.2-.9L.5 9Q.1 8 .3 6.7l-.1-.4" vector-effect="non-scaling-stroke"/></g><g id="aH"><path fill="#ca9e0b" d="M.2 6.4 0 5.9l.1-.2.5-.4q1-2.6 3.4-4.2l.7-.5Q6-.2 7.7.1l1.6.6q1.4 1.1 1.7 3 .4 1.7-.2 3.4l.2.6-.2.5-.3.2h-.3.5l-1.3.1h-3l-.7-.1-4.3-1.3-.8-.4zm6.9.9L5 6.6l-2.3-.4-2-.3v.2q2.6 1.5 5.8 1.6l.4-.2z"/><path fill="#bd8108" d="m.2 6.4.4.3.8.4 4.3 1.3.8.1h4.1q-.8 2-2.6 3-2.6 1.4-5.3-.2l-1.2-.9L.5 9Q.1 8 .3 6.7zm.3.4"/><path fill="#e6c126" d="m7.1 7.3-.2.2-.5.2Q3.2 7.6.6 6l.1-.2 2 .3 2.2.4z"/><path fill="none" stroke="#000" stroke-linecap="round" stroke-linejoin="round" stroke-opacity=".4" stroke-width="__RESOLUTION__" d="m10.7 8.5-.5-.1h.3l.3-.2.2-.5-.2-.6q.6-1.7.3-3.3-.4-2-1.8-3.2L7.6.1q-1.5-.3-3 .5l-.6.5Q1.7 2.7.6 5.4l-.5.3L0 6l.2.4.4.4.8.5h0l4.3 1.2.8.1h2.9zq-1 2-2.7 3-2.6 1.4-5.3-.2l-1.2-.9L.5 9Q.1 8 .3 6.7l-.1-.4" vector-effect="non-scaling-stroke"/></g><g id="aI"><path fill="#c08908" d="M.2 6.4 0 5.9l.1-.2.5-.4q1-2.6 3.4-4.2l.7-.5Q6-.2 7.7.1l1.6.6q1.4 1.1 1.7 3 .4 1.7-.2 3.4l.2.6-.2.5-.3.2h-.3.5l-1.3.1h-3l-.7-.1-4.3-1.3-.8-.4zm6.9.9L5 6.6l-2.3-.4-2-.3v.2q2.6 1.5 5.8 1.6l.4-.2z"/><path fill="#b57206" d="m.2 6.4.4.3.8.4 4.3 1.3.8.1h4.1q-.8 2-2.6 3-2.6 1.4-5.3-.2l-1.2-.9L.5 9Q.1 8 .3 6.7zm.3.4"/><path fill="#d6a61e" d="m7.1 7.3-.2.2-.5.2Q3.2 7.6.6 6l.1-.2 2 .3 2.2.4z"/><path fill="none" stroke="#1d0a00" stroke-linecap="round" stroke-linejoin="round" stroke-opacity=".4" stroke-width="__RESOLUTION__" d="m10.7 8.5-.5-.1h.3l.3-.2.2-.5-.2-.6q.6-1.7.3-3.3-.4-2-1.8-3.2L7.6.1q-1.5-.3-3 .5l-.6.5Q1.7 2.7.6 5.4l-.5.3L0 6l.2.4.4.4.8.5h0l4.3 1.2.8.1h2.9zq-1 2-2.7 3-2.6 1.4-5.3-.2l-1.2-.9L.5 9Q.1 8 .3 6.7l-.1-.4" vector-effect="non-scaling-stroke"/></g><g id="aJ"><path fill="#f00f0f" d="M15.4 5.5Q17 5 20.7 3q-1.6 2.6-2 4.6-.3 1.1.6 2.2 1 1.3 3.6 1.8-1.2 0-2.4.7-1 .7-1.3 1.3-.5 1 .5 2.7.7 1.5 2.7 3.8-6.6-3.5-9.2-1.8-2.1 1.5-2.9 3.3 0-1.7-.3-2.4-.5-2.1-1.8-2.5-3-1-7.4.4.8-.5 2.3-2.6 1-1.2.6-3.1Q3.3 8.7 0 6.2l3.4.4 2.9-.4q1-.3 1.2-6.1V0q2 3.1 4 4.9 1.5 1.2 3.9.5"/><path fill="#a6691f" d="M12.2 13.7h-.7l-.6-.4-3.5-6.1q-.2-.3 0-.8l.7-.6L9.5 5l.9-.1q.4 0 .5.5-2.3.8-2.5 1.4 2.5 5.3 3.7 6.9m1.9 4h-.7q-.7-.1-.9-.6t0-1.2q.3-.5 1-.9.3-.2.7-.2-1.2.4-1 1.7 0 1.2 1 1.2z"/><path fill="#fc0" d="M12.2 13.7q-1.3-1.6-3.7-6.9.1-.6 2.4-1.5l2.4 6.6v.8l-.6.7-.3.2zm1.9 1 .5.1q.5.2.8.7.2.5 0 1.1l-.9 1-.4.1q-1 0-1-1.3-.2-1.2 1-1.6"/></g><g id="aK"><path fill="#fff" d="m13.9.6.4.1.3.1.3.2q1 1.6.6 3.6-.4 1.9-1.7 3.3L11 5.7l.6 2H9.8v1.5Q4.6 11.5.7 11.6L0 10.2l2.1-4.5L8.9 1zm6.5 9.3q-.5 2.9-3 5l-2 1.4-.4.2-3.1.9h-2q2.6-.3 5-2.1 2.6-2 2.9-3.7.5.2-.1 2.3 2.2-2.1 2.7-4"/><path fill="#fff" d="m14.9 1 1 .5 1.1.7.2.2.3.2.2.1v4.7q.5 1.7-2.2 5 .2-3.3-.5-3.5-1.8 3.8-4.4 5.1l-7.3 1.1-.3-.2Q1.3 13.4.6 11.6q3.9-.1 9.3-2.4l-.1-1.5h1.8l-.6-2 2.8 2.2q1.3-1.4 1.7-3.3.4-2-.6-3.6"/><path fill="#fff" fill-opacity=".5" d="m17 2.3.2.1z"/><path fill="#fff" d="M17.7 2.8q2 1.8 2.5 4.1l.2 1.2v1.8q-.6 1.9-2.7 4 .6-2.1.1-2.3-.3 1.7-2.9 3.7-2.4 1.8-5 2.2-3.8-.2-6.6-2.4l7.3-1.1q2.6-1.3 4.4-5.1.7.2.5 3.6 2.7-3.4 2.2-5.1zM0 10.2v-.5l-.1-1q0-3.6 3-6.1l.5-.4Q6.3 0 10.3 0l1.3.1h.4l1.9.5-5 .5-6.7 4.6z"/><path fill="none" stroke="#fff" stroke-linecap="round" stroke-linejoin="round" stroke-opacity=".4" stroke-width="__RESOLUTION__" d="m13.9.6.4.1.3.1.3.2 1 .5 1.1.7h0l.2.2.3.2.2.1q2 1.9 2.5 4.2l.2 1.2v1.8q-.5 2.9-3 5l-2 1.4-.4.2-3.1.9h-2q-3.8-.1-6.6-2.3m.2-12.9Q6.3 0 10.3 0l1.3.1h.4l1.9.5M3.3 15l-.3-.2Q1.3 13.4.6 11.6L0 10.2v-.5l-.1-1q0-3.6 3-6.1h0l.5-.4" vector-effect="non-scaling-stroke"/><path fill="#fff" d="M11.6 1.5h-.4L9.6 1q0-.4.5-.4 1.5 0 1.5.6z"/></g><g id="b"><path fill="#fff" d="M21 .5q2.7.9 4.5 3v.2l-5.7 10.5v.3l-.2.6-.4 2.5q-1 3-2.9 7-3.8 2-13.2-.8l-.3-.3-2.1-1.7-.7-5.4 5.7-11Q6.7 4 8.4 3l5.2-.3L20.5.4zm-7.8 9.3-4.6-.1Q7 9.4 6 9q-1.3 1.5-3 4.3-1.5 2.5 0 1.5l2.4.6 4-.5z"/><path fill="#fff" d="M25.6 3.7q3.7 4.5 4 8.5l-1.4 8.6-8.4 7-2.7.2q-7-1.8-14-4.2 9.4 2.8 13.2.8 1.9-4 2.9-7l.4-2.5.2-.6v-.3zM8.4 2.9Q10.7 1.2 14 0h3.6l2.8.4-6.8 2.2zm4.8 6.9L9.4 15l-4 .5-2.5-.7q-1.4 1 0-1.5Q4.7 10.5 6.1 9q1 .5 2.4.6l4.6.1z"/><path fill="none" stroke="#fff" stroke-linecap="round" stroke-linejoin="round" stroke-opacity=".3" stroke-width="__RESOLUTION__" d="M21 .5q2.7.9 4.5 3v.2q3.9 4.5 4.1 8.5l-1.4 8.6-8.4 7-2.7.2q-7-1.8-14-4.2m-.3-.3L.7 21.8 0 16.4l5.7-11Q6.7 4 8.4 3q2.3-1.8 5.6-3h3.6l2.8.4" vector-effect="non-scaling-stroke"/><path fill="#fff" d="m14 1.1 1.1.3q.4.3.3.7 0 .5-.5.8l-1.1.2q-.7 0-1-.3l-2.3.3q-2.1.7.4-.6Q13.3 1 14 1m2 2.3q-.2-.3-.1-.7l.5-.8.7-.2q.4 0 .6.4v.7q0 .5-.3.7-.4.4-.8.3z"/></g><g id="aM"><path fill="#980000" d="m13.9.6.4.1.3.1.3.2q1 1.6.6 3.6-.4 1.9-1.7 3.3L11 5.7l.6 2H9.8v1.5Q4.6 11.5.7 11.6L0 10.2l2.1-4.5L8.9 1zm6.5 9.3q-.5 2.9-3 5l-2 1.4-.4.2-3.1.9h-2q2.6-.3 5-2.1 2.6-2 2.9-3.7.5.2-.1 2.3 2.2-2.1 2.7-4"/><path fill="#980000" d="m14.9 1 1 .5 1.1.7.2.2.3.2.2.1v4.7q.5 1.7-2.2 5 .2-3.3-.5-3.5-1.8 3.8-4.4 5.1l-7.3 1.1-.3-.2Q1.3 13.4.6 11.6q3.9-.1 9.3-2.4l-.1-1.5h1.8l-.6-2 2.8 2.2q1.3-1.4 1.7-3.3.4-2-.6-3.6"/><path fill="#980000" fill-opacity=".5" d="m17 2.3.2.1z"/><path fill="#980000" d="M17.7 2.8q2 1.8 2.5 4.1l.2 1.2v1.8q-.6 1.9-2.7 4 .6-2.1.1-2.3-.3 1.7-2.9 3.7-2.4 1.8-5 2.2-3.8-.2-6.6-2.4l7.3-1.1q2.6-1.3 4.4-5.1.7.2.5 3.6 2.7-3.4 2.2-5.1zM0 10.2v-.5l-.1-1q0-3.6 3-6.1l.5-.4Q6.3 0 10.3 0l1.3.1h.4l1.9.5-5 .5-6.7 4.6z"/><path fill="none" stroke="#980000" stroke-linecap="round" stroke-linejoin="round" stroke-opacity=".4" stroke-width="__RESOLUTION__" d="m13.9.6.4.1.3.1.3.2 1 .5 1.1.7h0l.2.2.3.2.2.1q2 1.9 2.5 4.2l.2 1.2v1.8q-.5 2.9-3 5l-2 1.4-.4.2-3.1.9h-2q-3.8-.1-6.6-2.3m.2-12.9Q6.3 0 10.3 0l1.3.1h.4l1.9.5M3.3 15l-.3-.2Q1.3 13.4.6 11.6L0 10.2v-.5l-.1-1q0-3.6 3-6.1h0l.5-.4" vector-effect="non-scaling-stroke"/><path fill="#980000" d="M11.6 1.5h-.4L9.6 1q0-.4.5-.4 1.5 0 1.5.6z"/></g><g id="d"><path fill="#980000" d="M21 .5q2.7.9 4.5 3v.2l-5.7 10.5v.3l-.2.6-.4 2.5q-1 3-2.9 7-3.8 2-13.2-.8l-.3-.3-2.1-1.7-.7-5.4 5.7-11Q6.7 4 8.4 3l5.2-.3L20.5.4zm-7.8 9.3-4.6-.1Q7 9.4 6 9q-1.3 1.5-3 4.3-1.5 2.5 0 1.5l2.4.6 4-.5z"/><path fill="#980000" d="M25.6 3.7q3.7 4.5 4 8.5l-1.4 8.6-8.4 7-2.7.2q-7-1.8-14-4.2 9.4 2.8 13.2.8 1.9-4 2.9-7l.4-2.5.2-.6v-.3zM8.4 2.9Q10.7 1.2 14 0h3.6l2.8.4-6.8 2.2zm4.8 6.9L9.4 15l-4 .5-2.5-.7q-1.4 1 0-1.5Q4.7 10.5 6.1 9q1 .5 2.4.6l4.6.1z"/><path fill="none" stroke="#980000" stroke-linecap="round" stroke-linejoin="round" stroke-opacity=".3" stroke-width="__RESOLUTION__" d="M21 .5q2.7.9 4.5 3v.2q3.9 4.5 4.1 8.5l-1.4 8.6-8.4 7-2.7.2q-7-1.8-14-4.2m-.3-.3L.7 21.8 0 16.4l5.7-11Q6.7 4 8.4 3q2.3-1.8 5.6-3h3.6l2.8.4" vector-effect="non-scaling-stroke"/><path fill="#980000" d="m14 1.1 1.1.3q.4.3.3.7 0 .5-.5.8l-1.1.2q-.7 0-1-.3l-2.3.3q-2.1.7.4-.6Q13.3 1 14 1m2 2.3q-.2-.3-.1-.7l.5-.8.7-.2q.4 0 .6.4v.7q0 .5-.3.7-.4.4-.8.3z"/></g><g id="aO"><path fill="#a11400" d="m13.9.6.4.1.3.1.3.2q1 1.6.6 3.6-.4 1.9-1.7 3.3L11 5.7l.6 2H9.8v1.5Q4.6 11.5.7 11.6L0 10.2l2.1-4.5L8.9 1zm6.5 9.3q-.5 2.9-3 5l-2 1.4-.4.2-3.1.9h-2q2.6-.3 5-2.1 2.6-2 2.9-3.7.5.2-.1 2.3 2.2-2.1 2.7-4"/><path fill="#9e0d00" d="m14.9 1 1 .5 1.1.7.2.2.3.2.2.1v4.7q.5 1.7-2.2 5 .2-3.3-.5-3.5-1.8 3.8-4.4 5.1l-7.3 1.1-.3-.2Q1.3 13.4.6 11.6q3.9-.1 9.3-2.4l-.1-1.5h1.8l-.6-2 2.8 2.2q1.3-1.4 1.7-3.3.4-2-.6-3.6"/><path fill="#8b0802" fill-opacity=".5" d="m17 2.3.2.1z"/><path fill="#980900" d="M17.7 2.8q2 1.8 2.5 4.1l.2 1.2v1.8q-.6 1.9-2.7 4 .6-2.1.1-2.3-.3 1.7-2.9 3.7-2.4 1.8-5 2.2-3.8-.2-6.6-2.4l7.3-1.1q2.6-1.3 4.4-5.1.7.2.5 3.6 2.7-3.4 2.2-5.1z"/><path fill="#a21b0c" d="M.1 10.2v-.5l-.1-1q0-3.6 3-6.1l.5-.4Q6.3 0 10.3 0l1.3.1h.4l1.9.5-5 .5-6.7 4.6z"/><path fill="none" stroke="#870000" stroke-linecap="round" stroke-linejoin="round" stroke-opacity=".4" stroke-width="__RESOLUTION__" d="m13.9.6.4.1.3.1.3.2 1 .5 1.1.7h0l.2.2.3.2.2.1q2 1.9 2.5 4.2l.2 1.2v1.8q-.5 2.9-3 5l-2 1.4-.4.2-3.1.9h-2q-3.8-.1-6.6-2.3m.2-12.9Q6.3 0 10.3 0l1.3.1h.4l1.9.5M3.3 15l-.3-.2Q1.3 13.4.6 11.6L0 10.2v-.5l-.1-1q0-3.6 3-6.1h0l.5-.4" vector-effect="non-scaling-stroke"/><path fill="#a21a18" d="M11.6 1.5h-.4L9.6 1q0-.4.5-.4 1.5 0 1.5.6z"/></g><g id="g"><path fill="#a11400" d="M21 .5q2.7.9 4.5 3v.2l-5.7 10.5v.3l-.2.6-.4 2.5q-1 3-2.9 7-3.8 2-13.2-.8l-.3-.3-2.1-1.7-.7-5.4 5.7-11Q6.7 4 8.4 3l5.2-.3L20.5.4zm-7.8 9.3-4.6-.1Q7 9.4 6 9q-1.3 1.5-3 4.3-1.5 2.5 0 1.5l2.4.6 4-.5z"/><path fill="#9e0d00" d="M25.6 3.7q3.7 4.5 4 8.5l-1.4 8.6-8.4 7-2.7.2q-7-1.8-14-4.2 9.4 2.8 13.2.8 1.9-4 2.9-7l.4-2.5.2-.6v-.3z"/><path fill="#a21b12" d="M8.4 2.9Q10.6 1.2 14 0h3.6l2.8.4-6.8 2.2zm4.8 6.9L9.4 15l-4 .5-2.5-.7q-1.4 1 0-1.5Q4.7 10.5 6.1 9q1 .5 2.4.6l4.6.1z"/><path fill="none" stroke="#870000" stroke-linecap="round" stroke-linejoin="round" stroke-opacity=".3" stroke-width="__RESOLUTION__" d="M21 .5q2.7.9 4.5 3v.2q3.9 4.5 4.1 8.5l-1.4 8.6-8.4 7-2.7.2q-7-1.8-14-4.2m-.3-.3L.7 21.8 0 16.4l5.7-11Q6.7 4 8.4 3q2.3-1.8 5.6-3h3.6l2.8.4" vector-effect="non-scaling-stroke"/><path fill="#a21b1b" d="m14 1.1 1.1.3q.4.3.3.7 0 .5-.5.8l-1.1.2q-.7 0-1-.3l-2.3.3q-2.1.7.4-.6Q13.3 1 14 1m2 2.3q-.2-.3-.1-.7l.5-.8.7-.2q.4 0 .6.4v.7q0 .5-.3.7-.4.4-.8.3z"/></g><g id="aP"><path fill="#ac2a00" d="m13.9.6.4.1.3.1.3.2q1 1.6.6 3.6-.4 1.9-1.7 3.3L11 5.7l.6 2H9.8v1.5Q4.6 11.5.7 11.6L0 10.2l2.1-4.5L8.9 1zm6.5 9.3q-.5 2.9-3 5l-2 1.4-.4.2-3.1.9h-2q2.6-.3 5-2.1 2.6-2 2.9-3.7.5.2-.1 2.3 2.2-2.1 2.7-4"/><path fill="#a41a00" d="m14.9 1 1 .5 1.1.7.2.2.3.2.2.1v4.7q.5 1.7-2.2 5 .2-3.3-.5-3.5-1.8 3.8-4.4 5.1l-7.3 1.1-.3-.2Q1.3 13.4.6 11.6q3.9-.1 9.3-2.4l-.1-1.5h1.8l-.6-2 2.8 2.2q1.3-1.4 1.7-3.3.4-2-.6-3.6"/><path fill="#7f1004" fill-opacity=".5" d="m17 2.3.2.1z"/><path fill="#991400" d="M17.7 2.8q2 1.8 2.5 4.1l.2 1.2v1.8q-.6 1.9-2.7 4 .6-2.1.1-2.3-.3 1.7-2.9 3.7-2.4 1.8-5 2.2-3.8-.2-6.6-2.4l7.3-1.1q2.6-1.3 4.4-5.1.7.2.5 3.6 2.7-3.4 2.2-5.1z"/><path fill="#ae3818" d="M.1 10.2v-.5l-.1-1q0-3.6 3-6.1l.5-.4Q6.3 0 10.3 0l1.3.1h.4l1.9.5-5 .5-6.7 4.6z"/><path fill="none" stroke="#760000" stroke-linecap="round" stroke-linejoin="round" stroke-opacity=".4" stroke-width="__RESOLUTION__" d="m13.9.6.4.1.3.1.3.2 1 .5 1.1.7h0l.2.2.3.2.2.1q2 1.9 2.5 4.2l.2 1.2v1.8q-.5 2.9-3 5l-2 1.4-.4.2-3.1.9h-2q-3.8-.1-6.6-2.3m.2-12.9Q6.3 0 10.3 0l1.3.1h.4l1.9.5M3.3 15l-.3-.2Q1.3 13.4.6 11.6L0 10.2v-.5l-.1-1q0-3.6 3-6.1h0l.5-.4" vector-effect="non-scaling-stroke"/><path fill="#ae3631" d="M11.6 1.5h-.4L9.6 1q0-.4.5-.4 1.5 0 1.5.6z"/></g><g id="j"><path fill="#ac2a00" d="M21 .5q2.7.9 4.5 3v.2l-5.7 10.5v.3l-.2.6-.4 2.5q-1 3-2.9 7-3.8 2-13.2-.8l-.3-.3-2.1-1.7-.7-5.4 5.7-11Q6.7 4 8.4 3l5.2-.3L20.5.4zm-7.8 9.3-4.6-.1Q7 9.4 6 9q-1.3 1.5-3 4.3-1.5 2.5 0 1.5l2.4.6 4-.5z"/><path fill="#a41a00" d="M25.6 3.7q3.7 4.5 4 8.5l-1.4 8.6-8.4 7-2.7.2q-7-1.8-14-4.2 9.4 2.8 13.2.8 1.9-4 2.9-7l.4-2.5.2-.6v-.3z"/><path fill="#ad3825" d="M8.4 2.9Q10.6 1.2 14 0h3.6l2.8.4-6.8 2.2zm4.8 6.9L9.4 15l-4 .5-2.5-.7q-1.4 1 0-1.5Q4.7 10.5 6.1 9q1 .5 2.4.6l4.6.1z"/><path fill="none" stroke="#760000" stroke-linecap="round" stroke-linejoin="round" stroke-opacity=".3" stroke-width="__RESOLUTION__" d="M21 .5q2.7.9 4.5 3v.2q3.9 4.5 4.1 8.5l-1.4 8.6-8.4 7-2.7.2q-7-1.8-14-4.2m-.3-.3L.7 21.8 0 16.4l5.7-11Q6.7 4 8.4 3q2.3-1.8 5.6-3h3.6l2.8.4" vector-effect="non-scaling-stroke"/><path fill="#ae3838" d="m14 1.1 1.1.3q.4.3.3.7 0 .5-.5.8l-1.1.2q-.7 0-1-.3l-2.3.3q-2.1.7.4-.6Q13.3 1 14 1m2 2.3q-.2-.3-.1-.7l.5-.8.7-.2q.4 0 .6.4v.7q0 .5-.3.7-.4.4-.8.3z"/></g><g id="aQ"><path fill="#b81a03" d="M34.7 28.4q-4.3-4-6.6-3.5-1.8.3-2.9 3.7.1-4.1-2.4-6.1 4.9-.1 4.8-3.4t-5.3-7q2.9 1 6.3-2-1.4 3.8-.9 5.9.5 1.9 2.8 3.3l3.4 1.2q-2.4.4-2.4 2-.1 2 3.2 5.9"/><path fill="none" stroke="#d01d04" stroke-linecap="round" stroke-linejoin="round" stroke-width="__RESOLUTION__" d="M33.9 20.5q-2.4.4-2.4 2-.1 2 3.2 5.9" vector-effect="non-scaling-stroke"/><path fill="#f43404" d="M5.5 3.3Q16.3 9 16.3 2.6l4 1.7q-.7.4-1.4 1.9-1 2.2-.5 4.5.7 3.7 3.8 8.5l4.1 5.2q-5.8-2.8-16.6 1.3 12.2-8.4-4.3-22.4M3.1 2.2 0 .9Q.6-.4 2 .2t2 2.2z"/><path fill="none" stroke="#fc563f" stroke-linecap="round" stroke-linejoin="round" stroke-width="__RESOLUTION__" d="M5.5 3.3Q16.3 9 16.3 2.6" vector-effect="non-scaling-stroke"/><path fill="none" stroke="#d01d04" stroke-linecap="round" stroke-linejoin="round" stroke-width="__RESOLUTION__" d="M9.7 25.7Q22 17.3 5.5 3.3M3 2.2 0 .9Q.6-.4 2 .2t2 2.2z" vector-effect="non-scaling-stroke"/><path fill="#f43404" d="m8.5 26.2-.2.4L6.6 28q-1-.5-.2-1.1t2.1-.7"/><path fill="none" stroke="#d01d04" stroke-linecap="round" stroke-linejoin="round" stroke-width="__RESOLUTION__" d="m8.5 26.2-.2.4L6.6 28q-1-.5-.2-1.1t2.1-.7" vector-effect="non-scaling-stroke"/></g><g id="bo"><path fill="#b63f00" d="m13.9.6.4.1.3.1.3.2q1 1.6.6 3.6-.4 1.9-1.7 3.3L11 5.7l.6 2H9.8v1.5Q4.6 11.5.7 11.6L0 10.2l2.1-4.5L8.9 1zm6.5 9.3q-.5 2.9-3 5l-2 1.4-.4.2-3.1.9h-2q2.6-.3 5-2.1 2.6-2 2.9-3.7.5.2-.1 2.3 2.2-2.1 2.7-4"/><path fill="#ab2700" d="m14.9 1 1 .5 1.1.7.2.2.3.2.2.1v4.7q.5 1.7-2.2 5 .2-3.3-.5-3.5-1.8 3.8-4.4 5.1l-7.3 1.1-.3-.2Q1.3 13.4.6 11.6q3.9-.1 9.3-2.4l-.1-1.5h1.8l-.6-2 2.8 2.2q1.3-1.4 1.7-3.3.4-2-.6-3.6"/><path fill="#721806" fill-opacity=".5" d="m17 2.3.2.1z"/><path fill="#9a1d00" d="M17.7 2.8q2 1.8 2.5 4.1l.2 1.2v1.8q-.6 1.9-2.7 4 .6-2.1.1-2.3-.3 1.7-2.9 3.7-2.4 1.8-5 2.2-3.8-.2-6.6-2.4l7.3-1.1q2.6-1.3 4.4-5.1.7.2.5 3.6 2.7-3.4 2.2-5.1z"/><path fill="#b95425" d="M.1 10.2v-.5l-.1-1q0-3.6 3-6.1l.5-.4Q6.3 0 10.3 0l1.3.1h.4l1.9.5-5 .5-6.7 4.6z"/><path fill="none" stroke="#650000" stroke-linecap="round" stroke-linejoin="round" stroke-opacity=".4" stroke-width="__RESOLUTION__" d="m13.9.6.4.1.3.1.3.2 1 .5 1.1.7h0l.2.2.3.2.2.1q2 1.9 2.5 4.2l.2 1.2v1.8q-.5 2.9-3 5l-2 1.4-.4.2-3.1.9h-2q-3.8-.1-6.6-2.3m.2-12.9Q6.3 0 10.3 0l1.3.1h.4l1.9.5M3.3 15l-.3-.2Q1.3 13.4.6 11.6L0 10.2v-.5l-.1-1q0-3.6 3-6.1h0l.5-.4" vector-effect="non-scaling-stroke"/><path fill="#b9514a" d="M11.6 1.5h-.4L9.6 1q0-.4.5-.4 1.5 0 1.5.6z"/></g><g id="m"><path fill="#b63f00" d="M21 .5q2.7.9 4.5 3v.2l-5.7 10.5v.3l-.2.6-.4 2.5q-1 3-2.9 7-3.8 2-13.2-.8l-.3-.3-2.1-1.7-.7-5.4 5.7-11Q6.7 4 8.4 3l5.2-.3L20.5.4zm-7.8 9.3-4.6-.1Q7 9.4 6 9q-1.3 1.5-3 4.3-1.5 2.5 0 1.5l2.4.6 4-.5z"/><path fill="#ab2700" d="M25.6 3.7q3.7 4.5 4 8.5l-1.4 8.6-8.4 7-2.7.2q-7-1.8-14-4.2 9.4 2.8 13.2.8 1.9-4 2.9-7l.4-2.5.2-.6v-.3z"/><path fill="#b75438" d="M8.4 2.9Q10.6 1.2 14 0h3.6l2.8.4-6.8 2.2zm4.8 6.9L9.4 15l-4 .5-2.5-.7q-1.4 1 0-1.5Q4.7 10.5 6.1 9q1 .5 2.4.6l4.6.1z"/><path fill="none" stroke="#650000" stroke-linecap="round" stroke-linejoin="round" stroke-opacity=".3" stroke-width="__RESOLUTION__" d="M21 .5q2.7.9 4.5 3v.2q3.9 4.5 4.1 8.5l-1.4 8.6-8.4 7-2.7.2q-7-1.8-14-4.2m-.3-.3L.7 21.8 0 16.4l5.7-11Q6.7 4 8.4 3q2.3-1.8 5.6-3h3.6l2.8.4" vector-effect="non-scaling-stroke"/><path fill="#b95454" d="m14 1.1 1.1.3q.4.3.3.7 0 .5-.5.8l-1.1.2q-.7 0-1-.3l-2.3.3q-2.1.7.4-.6Q13.3 1 14 1m2 2.3q-.2-.3-.1-.7l.5-.8.7-.2q.4 0 .6.4v.7q0 .5-.3.7-.4.4-.8.3z"/></g><g id="bp"><path fill="#c15500" d="m13.9.6.4.1.3.1.3.2q1 1.6.6 3.6-.4 1.9-1.7 3.3L11 5.7l.6 2H9.8v1.5Q4.6 11.5.7 11.6L0 10.2l2.1-4.5L8.9 1zm6.5 9.3q-.5 2.9-3 5l-2 1.4-.4.2-3.1.9h-2q2.6-.3 5-2.1 2.6-2 2.9-3.7.5.2-.1 2.3 2.2-2.1 2.7-4"/><path fill="#b13500" d="m14.9 1 1 .5 1.1.7.2.2.3.2.2.1v4.7q.5 1.7-2.2 5 .2-3.3-.5-3.5-1.8 3.8-4.4 5.1l-7.3 1.1-.3-.2Q1.3 13.4.6 11.6q3.9-.1 9.3-2.4l-.1-1.5h1.8l-.6-2 2.8 2.2q1.3-1.4 1.7-3.3.4-2-.6-3.6"/><path fill="#662009" fill-opacity=".5" d="m17 2.3.2.1z"/><path fill="#9b2801" d="M17.7 2.8q2 1.8 2.5 4.1l.2 1.2v1.8q-.6 1.9-2.7 4 .6-2.1.1-2.3-.3 1.7-2.9 3.7-2.4 1.8-5 2.2-3.8-.2-6.6-2.4l7.3-1.1q2.6-1.3 4.4-5.1.7.2.5 3.6 2.7-3.4 2.2-5.1z"/><path fill="#c57131" d="M.1 10.2v-.5l-.1-1q0-3.6 3-6.1l.5-.4Q6.3 0 10.3 0l1.3.1h.4l1.9.5-5 .5-6.7 4.6z"/><path fill="none" stroke="#540000" stroke-linecap="round" stroke-linejoin="round" stroke-opacity=".4" stroke-width="__RESOLUTION__" d="m13.9.6.4.1.3.1.3.2 1 .5 1.1.7h0l.2.2.3.2.2.1q2 1.9 2.5 4.2l.2 1.2v1.8q-.5 2.9-3 5l-2 1.4-.4.2-3.1.9h-2q-3.8-.1-6.6-2.3m.2-12.9Q6.3 0 10.3 0l1.3.1h.4l1.9.5M3.3 15l-.3-.2Q1.3 13.4.6 11.6L0 10.2v-.5l-.1-1q0-3.6 3-6.1h0l.5-.4" vector-effect="non-scaling-stroke"/><path fill="#c56d63" d="M11.6 1.5h-.4L9.6 1q0-.4.5-.4 1.5 0 1.5.6z"/></g><g id="p"><path fill="#c15500" d="M21 .5q2.7.9 4.5 3v.2l-5.7 10.5v.3l-.2.6-.4 2.5q-1 3-2.9 7-3.8 2-13.2-.8l-.3-.3-2.1-1.7-.7-5.4 5.7-11Q6.7 4 8.4 3l5.2-.3L20.5.4zm-7.8 9.3-4.6-.1Q7 9.4 6 9q-1.3 1.5-3 4.3-1.5 2.5 0 1.5l2.4.6 4-.5z"/><path fill="#b13500" d="M25.6 3.7q3.7 4.5 4 8.5l-1.4 8.6-8.4 7-2.7.2q-7-1.8-14-4.2 9.4 2.8 13.2.8 1.9-4 2.9-7l.4-2.5.2-.6v-.3z"/><path fill="#c2714b" d="M8.4 2.9Q10.6 1.2 14 0h3.6l2.8.4-6.8 2.2zm4.8 6.9L9.4 15l-4 .5-2.5-.7q-1.4 1 0-1.5Q4.7 10.5 6.1 9q1 .5 2.4.6l4.6.1z"/><path fill="none" stroke="#540000" stroke-linecap="round" stroke-linejoin="round" stroke-opacity=".3" stroke-width="__RESOLUTION__" d="M21 .5q2.7.9 4.5 3v.2q3.9 4.5 4.1 8.5l-1.4 8.6-8.4 7-2.7.2q-7-1.8-14-4.2m-.3-.3L.7 21.8 0 16.4l5.7-11Q6.7 4 8.4 3q2.3-1.8 5.6-3h3.6l2.8.4" vector-effect="non-scaling-stroke"/><path fill="#c57171" d="m14 1.1 1.1.3q.4.3.3.7 0 .5-.5.8l-1.1.2q-.7 0-1-.3l-2.3.3q-2.1.7.4-.6Q13.3 1 14 1m2 2.3q-.2-.3-.1-.7l.5-.8.7-.2q.4 0 .6.4v.7q0 .5-.3.7-.4.4-.8.3z"/></g><g id="bq"><path fill="#cb6900" d="m13.9.6.4.1.3.1.3.2q1 1.6.6 3.6-.4 1.9-1.7 3.3L11 5.7l.6 2H9.8v1.5Q4.6 11.5.7 11.6L0 10.2l2.1-4.5L8.9 1zm6.5 9.3q-.5 2.9-3 5l-2 1.4-.4.2-3.1.9h-2q2.6-.3 5-2.1 2.6-2 2.9-3.7.5.2-.1 2.3 2.2-2.1 2.7-4"/><path fill="#b94200" d="m14.9 1 1 .5 1.1.7.2.2.3.2.2.1v4.7q.5 1.7-2.2 5 .2-3.3-.5-3.5-1.8 3.8-4.4 5.1l-7.3 1.1-.3-.2Q1.3 13.4.6 11.6q3.9-.1 9.3-2.4l-.1-1.5h1.8l-.6-2 2.8 2.2q1.3-1.4 1.7-3.3.4-2-.6-3.6"/><path fill="#5a290b" fill-opacity=".5" d="m17 2.3.2.1z"/><path fill="#9d3101" d="M17.7 2.8q2 1.8 2.5 4.1l.2 1.2v1.8q-.6 1.9-2.7 4 .6-2.1.1-2.3-.3 1.7-2.9 3.7-2.4 1.8-5 2.2-3.8-.2-6.6-2.4l7.3-1.1q2.6-1.3 4.4-5.1.7.2.5 3.6 2.7-3.4 2.2-5.1z"/><path fill="#d08c3e" d="M.1 10.2v-.5l-.1-1q0-3.6 3-6.1l.5-.4Q6.3 0 10.3 0l1.3.1h.4l1.9.5-5 .5-6.7 4.6z"/><path fill="none" stroke="#400" stroke-linecap="round" stroke-linejoin="round" stroke-opacity=".4" stroke-width="__RESOLUTION__" d="m13.9.6.4.1.3.1.3.2 1 .5 1.1.7h0l.2.2.3.2.2.1q2 1.9 2.5 4.2l.2 1.2v1.8q-.5 2.9-3 5l-2 1.4-.4.2-3.1.9h-2q-3.8-.1-6.6-2.3m.2-12.9Q6.3 0 10.3 0l1.3.1h.4l1.9.5M3.3 15l-.3-.2Q1.3 13.4.6 11.6L0 10.2v-.5l-.1-1q0-3.6 3-6.1h0l.5-.4" vector-effect="non-scaling-stroke"/><path fill="#d1877b" d="M11.6 1.5h-.4L9.6 1q0-.4.5-.4 1.5 0 1.5.6z"/></g><g id="s"><path fill="#cb6900" d="M21 .5q2.7.9 4.5 3v.2l-5.7 10.5v.3l-.2.6-.4 2.5q-1 3-2.9 7-3.8 2-13.2-.8l-.3-.3-2.1-1.7-.7-5.4 5.7-11Q6.7 4 8.4 3l5.2-.3L20.5.4zm-7.8 9.3-4.6-.1Q7 9.4 6 9q-1.3 1.5-3 4.3-1.5 2.5 0 1.5l2.4.6 4-.5z"/><path fill="#b94200" d="M25.6 3.7q3.7 4.5 4 8.5l-1.4 8.6-8.4 7-2.7.2q-7-1.8-14-4.2 9.4 2.8 13.2.8 1.9-4 2.9-7l.4-2.5.2-.6v-.3z"/><path fill="#ce8d5e" d="M8.4 2.9Q10.6 1.2 14 0h3.6l2.8.4-6.8 2.2zm4.8 6.9L9.4 15l-4 .5-2.5-.7q-1.4 1 0-1.5Q4.7 10.5 6.1 9q1 .5 2.4.6l4.6.1z"/><path fill="none" stroke="#400" stroke-linecap="round" stroke-linejoin="round" stroke-opacity=".3" stroke-width="__RESOLUTION__" d="M21 .5q2.7.9 4.5 3v.2q3.9 4.5 4.1 8.5l-1.4 8.6-8.4 7-2.7.2q-7-1.8-14-4.2m-.3-.3L.7 21.8 0 16.4l5.7-11Q6.7 4 8.4 3q2.3-1.8 5.6-3h3.6l2.8.4" vector-effect="non-scaling-stroke"/><path fill="#d18d8d" d="m14 1.1 1.1.3q.4.3.3.7 0 .5-.5.8l-1.1.2q-.7 0-1-.3l-2.3.3q-2.1.7.4-.6Q13.3 1 14 1m2 2.3q-.2-.3-.1-.7l.5-.8.7-.2q.4 0 .6.4v.7q0 .5-.3.7-.4.4-.8.3z"/></g><g id="br"><path fill="#d67f00" d="m13.9.6.4.1.3.1.3.2q1 1.6.6 3.6-.4 1.9-1.7 3.3L11 5.7l.6 2H9.8v1.5Q4.6 11.5.7 11.6L0 10.2l2.1-4.5L8.9 1zm6.5 9.3q-.5 2.9-3 5l-2 1.4-.4.2-3.1.9h-2q2.6-.3 5-2.1 2.6-2 2.9-3.7.5.2-.1 2.3 2.2-2.1 2.7-4"/><path fill="#bf5000" d="m14.9 1 1 .5 1.1.7.2.2.3.2.2.1v4.7q.5 1.7-2.2 5 .2-3.3-.5-3.5-1.8 3.8-4.4 5.1l-7.3 1.1-.3-.2Q1.3 13.4.6 11.6q3.9-.1 9.3-2.4l-.1-1.5h1.8l-.6-2 2.8 2.2q1.3-1.4 1.7-3.3.4-2-.6-3.6"/><path fill="#4e310e" fill-opacity=".5" d="m17 2.3.2.1z"/><path fill="#9e3c02" d="M17.7 2.8q2 1.8 2.5 4.1l.2 1.2v1.8q-.6 1.9-2.7 4 .6-2.1.1-2.3-.3 1.7-2.9 3.7-2.4 1.8-5 2.2-3.8-.2-6.6-2.4l7.3-1.1q2.6-1.3 4.4-5.1.7.2.5 3.6 2.7-3.4 2.2-5.1z"/><path fill="#dca94a" d="M.1 10.2v-.5l-.1-1q0-3.6 3-6.1l.5-.4Q6.3 0 10.3 0l1.3.1h.4l1.9.5-5 .5-6.7 4.6z"/><path fill="none" stroke="#300" stroke-linecap="round" stroke-linejoin="round" stroke-opacity=".4" stroke-width="__RESOLUTION__" d="m13.9.6.4.1.3.1.3.2 1 .5 1.1.7h0l.2.2.3.2.2.1q2 1.9 2.5 4.2l.2 1.2v1.8q-.5 2.9-3 5l-2 1.4-.4.2-3.1.9h-2q-3.8-.1-6.6-2.3m.2-12.9Q6.3 0 10.3 0l1.3.1h.4l1.9.5M3.3 15l-.3-.2Q1.3 13.4.6 11.6L0 10.2v-.5l-.1-1q0-3.6 3-6.1h0l.5-.4" vector-effect="non-scaling-stroke"/><path fill="#dda394" d="M11.6 1.5h-.4L9.6 1q0-.4.5-.4 1.5 0 1.5.6z"/></g><g id="v"><path fill="#d67f00" d="M21 .5q2.7.9 4.5 3v.2l-5.7 10.5v.3l-.2.6-.4 2.5q-1 3-2.9 7-3.8 2-13.2-.8l-.3-.3-2.1-1.7-.7-5.4 5.7-11Q6.7 4 8.4 3l5.2-.3L20.5.4zm-7.8 9.3-4.6-.1Q7 9.4 6 9q-1.3 1.5-3 4.3-1.5 2.5 0 1.5l2.4.6 4-.5z"/><path fill="#bf5000" d="M25.6 3.7q3.7 4.5 4 8.5l-1.4 8.6-8.4 7-2.7.2q-7-1.8-14-4.2 9.4 2.8 13.2.8 1.9-4 2.9-7l.4-2.5.2-.6v-.3z"/><path fill="#d9aa71" d="M8.4 2.9Q10.6 1.2 14 0h3.6l2.8.4-6.8 2.2zm4.8 6.9L9.4 15l-4 .5-2.5-.7q-1.4 1 0-1.5Q4.7 10.5 6.1 9q1 .5 2.4.6l4.6.1z"/><path fill="none" stroke="#300" stroke-linecap="round" stroke-linejoin="round" stroke-opacity=".3" stroke-width="__RESOLUTION__" d="M21 .5q2.7.9 4.5 3v.2q3.9 4.5 4.1 8.5l-1.4 8.6-8.4 7-2.7.2q-7-1.8-14-4.2m-.3-.3L.7 21.8 0 16.4l5.7-11Q6.7 4 8.4 3q2.3-1.8 5.6-3h3.6l2.8.4" vector-effect="non-scaling-stroke"/><path fill="#daa" d="m14 1.1 1.1.3q.4.3.3.7 0 .5-.5.8l-1.1.2q-.7 0-1-.3l-2.3.3q-2.1.7.4-.6Q13.3 1 14 1m2 2.3q-.2-.3-.1-.7l.5-.8.7-.2q.4 0 .6.4v.7q0 .5-.3.7-.4.4-.8.3z"/></g><g id="bs"><path fill="#e09400" d="m13.9.6.4.1.3.1.3.2q1 1.6.6 3.6-.4 1.9-1.7 3.3L11 5.7l.6 2H9.8v1.5Q4.6 11.5.7 11.6L0 10.2l2.1-4.5L8.9 1zm6.5 9.3q-.5 2.9-3 5l-2 1.4-.4.2-3.1.9h-2q2.6-.3 5-2.1 2.6-2 2.9-3.7.5.2-.1 2.3 2.2-2.1 2.7-4"/><path fill="#c65d00" d="m14.9 1 1 .5 1.1.7.2.2.3.2.2.1v4.7q.5 1.7-2.2 5 .2-3.3-.5-3.5-1.8 3.8-4.4 5.1l-7.3 1.1-.3-.2Q1.3 13.4.6 11.6q3.9-.1 9.3-2.4l-.1-1.5h1.8l-.6-2 2.8 2.2q1.3-1.4 1.7-3.3.4-2-.6-3.6"/><path fill="#413910" fill-opacity=".5" d="m17 2.3.2.1z"/><path fill="#9f4502" d="M17.7 2.8q2 1.8 2.5 4.1l.2 1.2v1.8q-.6 1.9-2.7 4 .6-2.1.1-2.3-.3 1.7-2.9 3.7-2.4 1.8-5 2.2-3.8-.2-6.6-2.4l7.3-1.1q2.6-1.3 4.4-5.1.7.2.5 3.6 2.7-3.4 2.2-5.1z"/><path fill="#e7c557" d="M.1 10.2v-.5l-.1-1q0-3.6 3-6.1l.5-.4Q6.3 0 10.3 0l1.3.1h.4l1.9.5-5 .5-6.7 4.6z"/><path fill="none" stroke="#200" stroke-linecap="round" stroke-linejoin="round" stroke-opacity=".4" stroke-width="__RESOLUTION__" d="m13.9.6.4.1.3.1.3.2 1 .5 1.1.7h0l.2.2.3.2.2.1q2 1.9 2.5 4.2l.2 1.2v1.8q-.5 2.9-3 5l-2 1.4-.4.2-3.1.9h-2q-3.8-.1-6.6-2.3m.2-12.9Q6.3 0 10.3 0l1.3.1h.4l1.9.5M3.3 15l-.3-.2Q1.3 13.4.6 11.6L0 10.2v-.5l-.1-1q0-3.6 3-6.1h0l.5-.4" vector-effect="non-scaling-stroke"/><path fill="#e8bead" d="M11.6 1.5h-.4L9.6 1q0-.4.5-.4 1.5 0 1.5.6z"/></g><g id="y"><path fill="#e09400" d="M21 .5q2.7.9 4.5 3v.2l-5.7 10.5v.3l-.2.6-.4 2.5q-1 3-2.9 7-3.8 2-13.2-.8l-.3-.3-2.1-1.7-.7-5.4 5.7-11Q6.7 4 8.4 3l5.2-.3L20.5.4zm-7.8 9.3-4.6-.1Q7 9.4 6 9q-1.3 1.5-3 4.3-1.5 2.5 0 1.5l2.4.6 4-.5z"/><path fill="#c65d00" d="M25.6 3.7q3.7 4.5 4 8.5l-1.4 8.6-8.4 7-2.7.2q-7-1.8-14-4.2 9.4 2.8 13.2.8 1.9-4 2.9-7l.4-2.5.2-.6v-.3z"/><path fill="#e3c684" d="M8.4 2.9Q10.6 1.2 14 0h3.6l2.8.4-6.8 2.2zm4.8 6.9L9.4 15l-4 .5-2.5-.7q-1.4 1 0-1.5Q4.7 10.5 6.1 9q1 .5 2.4.6l4.6.1z"/><path fill="none" stroke="#200" stroke-linecap="round" stroke-linejoin="round" stroke-opacity=".3" stroke-width="__RESOLUTION__" d="M21 .5q2.7.9 4.5 3v.2q3.9 4.5 4.1 8.5l-1.4 8.6-8.4 7-2.7.2q-7-1.8-14-4.2m-.3-.3L.7 21.8 0 16.4l5.7-11Q6.7 4 8.4 3q2.3-1.8 5.6-3h3.6l2.8.4" vector-effect="non-scaling-stroke"/><path fill="#e8c6c6" d="m14 1.1 1.1.3q.4.3.3.7 0 .5-.5.8l-1.1.2q-.7 0-1-.3l-2.3.3q-2.1.7.4-.6Q13.3 1 14 1m2 2.3q-.2-.3-.1-.7l.5-.8.7-.2q.4 0 .6.4v.7q0 .5-.3.7-.4.4-.8.3z"/></g><g id="bt"><path fill="#ebaa00" d="m13.9.6.4.1.3.1.3.2q1 1.6.6 3.6-.4 1.9-1.7 3.3L11 5.7l.6 2H9.8v1.5Q4.6 11.5.7 11.6L0 10.2l2.1-4.5L8.9 1zm6.5 9.3q-.5 2.9-3 5l-2 1.4-.4.2-3.1.9h-2q2.6-.3 5-2.1 2.6-2 2.9-3.7.5.2-.1 2.3 2.2-2.1 2.7-4"/><path fill="#cc6a00" d="m14.9 1 1 .5 1.1.7.2.2.3.2.2.1v4.7q.5 1.7-2.2 5 .2-3.3-.5-3.5-1.8 3.8-4.4 5.1l-7.3 1.1-.3-.2Q1.3 13.4.6 11.6q3.9-.1 9.3-2.4l-.1-1.5h1.8l-.6-2 2.8 2.2q1.3-1.4 1.7-3.3.4-2-.6-3.6"/><path fill="#354112" fill-opacity=".5" d="m17 2.3.2.1z"/><path fill="#a05002" d="M17.7 2.8q2 1.8 2.5 4.1l.2 1.2v1.8q-.6 1.9-2.7 4 .6-2.1.1-2.3-.3 1.7-2.9 3.7-2.4 1.8-5 2.2-3.8-.2-6.6-2.4l7.3-1.1q2.6-1.3 4.4-5.1.7.2.5 3.6 2.7-3.4 2.2-5.1z"/><path fill="#f3e263" d="M.1 10.2v-.5l-.1-1q0-3.6 3-6.1l.5-.4Q6.3 0 10.3 0l1.3.1h.4l1.9.5-5 .5-6.7 4.6z"/><path fill="none" stroke="#100" stroke-linecap="round" stroke-linejoin="round" stroke-opacity=".4" stroke-width="__RESOLUTION__" d="m13.9.6.4.1.3.1.3.2 1 .5 1.1.7h0l.2.2.3.2.2.1q2 1.9 2.5 4.2l.2 1.2v1.8q-.5 2.9-3 5l-2 1.4-.4.2-3.1.9h-2q-3.8-.1-6.6-2.3m.2-12.9Q6.3 0 10.3 0l1.3.1h.4l1.9.5M3.3 15l-.3-.2Q1.3 13.4.6 11.6L0 10.2v-.5l-.1-1q0-3.6 3-6.1h0l.5-.4" vector-effect="non-scaling-stroke"/><path fill="#f4dac6" d="M11.6 1.5h-.4L9.6 1q0-.4.5-.4 1.5 0 1.5.6z"/></g><g id="D"><path fill="#ebaa00" d="M21 .5q2.7.9 4.5 3v.2l-5.7 10.5v.3l-.2.6-.4 2.5q-1 3-2.9 7-3.8 2-13.2-.8l-.3-.3-2.1-1.7-.7-5.4 5.7-11Q6.7 4 8.4 3l5.2-.3L20.5.4zm-7.8 9.3-4.6-.1Q7 9.4 6 9q-1.3 1.5-3 4.3-1.5 2.5 0 1.5l2.4.6 4-.5z"/><path fill="#cc6a00" d="M25.6 3.7q3.7 4.5 4 8.5l-1.4 8.6-8.4 7-2.7.2q-7-1.8-14-4.2 9.4 2.8 13.2.8 1.9-4 2.9-7l.4-2.5.2-.6v-.3z"/><path fill="#eee397" d="M8.4 2.9Q10.6 1.2 14 0h3.6l2.8.4-6.8 2.2zm4.8 6.9L9.4 15l-4 .5-2.5-.7q-1.4 1 0-1.5Q4.7 10.5 6.1 9q1 .5 2.4.6l4.6.1z"/><path fill="none" stroke="#100" stroke-linecap="round" stroke-linejoin="round" stroke-opacity=".3" stroke-width="__RESOLUTION__" d="M21 .5q2.7.9 4.5 3v.2q3.9 4.5 4.1 8.5l-1.4 8.6-8.4 7-2.7.2q-7-1.8-14-4.2m-.3-.3L.7 21.8 0 16.4l5.7-11Q6.7 4 8.4 3q2.3-1.8 5.6-3h3.6l2.8.4" vector-effect="non-scaling-stroke"/><path fill="#f4e3e3" d="m14 1.1 1.1.3q.4.3.3.7 0 .5-.5.8l-1.1.2q-.7 0-1-.3l-2.3.3q-2.1.7.4-.6Q13.3 1 14 1m2 2.3q-.2-.3-.1-.7l.5-.8.7-.2q.4 0 .6.4v.7q0 .5-.3.7-.4.4-.8.3z"/></g><g id="bu"><path fill="#f5bf00" d="m13.9.6.4.1.3.1.3.2q1 1.6.6 3.6-.4 1.9-1.7 3.3L11 5.7l.6 2H9.8v1.5Q4.6 11.5.7 11.6L0 10.2l2.1-4.5L8.9 1zm6.5 9.3q-.5 2.9-3 5l-2 1.4-.4.2-3.1.9h-2q2.6-.3 5-2.1 2.6-2 2.9-3.7.5.2-.1 2.3 2.2-2.1 2.7-4"/><path fill="#d37801" d="m14.9 1 1 .5 1.1.7.2.2.3.2.2.1v4.7q.5 1.7-2.2 5 .2-3.3-.5-3.5-1.8 3.8-4.4 5.1l-7.3 1.1-.3-.2Q1.3 13.4.6 11.6q3.9-.1 9.3-2.4l-.1-1.5h1.8l-.6-2 2.8 2.2q1.3-1.4 1.7-3.3.4-2-.6-3.6"/><path fill="#294a15" fill-opacity=".5" d="m17 2.3.2.1z"/><path fill="#a15a03" d="M17.7 2.8q2 1.8 2.5 4.1l.2 1.2v1.8q-.6 1.9-2.7 4 .6-2.1.1-2.3-.3 1.7-2.9 3.7-2.4 1.8-5 2.2-3.8-.2-6.6-2.4l7.3-1.1q2.6-1.3 4.4-5.1.7.2.5 3.6 2.7-3.4 2.2-5.1z"/><path fill="#fefe70" d="M.1 10.2v-.5l-.1-1q0-3.6 3-6.1l.5-.4Q6.3 0 10.3 0l1.3.1h.4l1.9.5-5 .5-6.7 4.6z"/><path fill="none" stroke="#000" stroke-linecap="round" stroke-linejoin="round" stroke-opacity=".4" stroke-width="__RESOLUTION__" d="m13.9.6.4.1.3.1.3.2 1 .5 1.1.7h0l.2.2.3.2.2.1q2 1.9 2.5 4.2l.2 1.2v1.8q-.5 2.9-3 5l-2 1.4-.4.2-3.1.9h-2q-3.8-.1-6.6-2.3m.2-12.9Q6.3 0 10.3 0l1.3.1h.4l1.9.5M3.3 15l-.3-.2Q1.3 13.4.6 11.6L0 10.2v-.5l-.1-1q0-3.6 3-6.1h0l.5-.4" vector-effect="non-scaling-stroke"/><path fill="#fff5df" d="M11.6 1.5h-.4L9.6 1q0-.4.5-.4 1.5 0 1.5.6z"/></g><g id="H"><path fill="#f5bf00" d="M21 .5q2.7.9 4.5 3v.2l-5.7 10.5v.3l-.2.6-.4 2.5q-1 3-2.9 7-3.8 2-13.2-.8l-.3-.3-2.1-1.7-.7-5.4 5.7-11Q6.7 4 8.4 3l5.2-.3L20.5.4zm-7.8 9.3-4.6-.1Q7 9.4 6 9q-1.3 1.5-3 4.3-1.5 2.5 0 1.5l2.4.6 4-.5z"/><path fill="#d37801" d="M25.6 3.7q3.7 4.5 4 8.5l-1.4 8.6-8.4 7-2.7.2q-7-1.8-14-4.2 9.4 2.8 13.2.8 1.9-4 2.9-7l.4-2.5.2-.6v-.3z"/><path fill="#f9ffaa" d="M8.4 2.9Q10.6 1.2 14 0h3.6l2.8.4-6.8 2.2zm4.8 6.9L9.4 15l-4 .5-2.5-.7q-1.4 1 0-1.5Q4.7 10.5 6.1 9q1 .5 2.4.6l4.6.1z"/><path fill="none" stroke="#000" stroke-linecap="round" stroke-linejoin="round" stroke-opacity=".3" stroke-width="__RESOLUTION__" d="M21 .5q2.7.9 4.5 3v.2q3.9 4.5 4.1 8.5l-1.4 8.6-8.4 7-2.7.2q-7-1.8-14-4.2m-.3-.3L.7 21.8 0 16.4l5.7-11Q6.7 4 8.4 3q2.3-1.8 5.6-3h3.6l2.8.4" vector-effect="non-scaling-stroke"/><path fill="#fff" d="m14 1.1 1.1.3q.4.3.3.7 0 .5-.5.8l-1.1.2q-.7 0-1-.3l-2.3.3q-2.1.7.4-.6Q13.3 1 14 1m2 2.3q-.2-.3-.1-.7l.5-.8.7-.2q.4 0 .6.4v.7q0 .5-.3.7-.4.4-.8.3z"/></g><g id="I" transform="translate(14.25 21.85)"><use xlink:href="#a" width="11.2" height="12.2" transform="matrix(1.03 -.4673 .4733 1.2 -1.75 -12.65)"/><use xlink:href="#a" width="11.2" height="12.2" transform="matrix(1.2 -.7357 .5396 1.29 -14.25 -13.65)"/><use xlink:href="#b" width="29.6" height="28" transform="translate(-12.25 -18.15)"/><use xlink:href="#a" width="11.2" height="12.2" transform="matrix(1.2 -.7357 .5396 1.29 5.85 -9.15)"/></g><g id="K" transform="translate(14.25 21.85)"><use xlink:href="#c" width="11.2" height="12.2" transform="matrix(1.03 -.4673 .4733 1.2 -1.75 -12.65)"/><use xlink:href="#c" width="11.2" height="12.2" transform="matrix(1.2 -.7357 .5396 1.29 -14.25 -13.65)"/><use xlink:href="#d" width="29.6" height="28" transform="translate(-12.25 -18.15)"/><use xlink:href="#c" width="11.2" height="12.2" transform="matrix(1.2 -.7357 .5396 1.29 5.85 -9.15)"/></g><g id="P" transform="translate(14.25 21.85)"><use xlink:href="#e" width="11.2" height="12.2" transform="matrix(1.03 -.4673 .4733 1.2 -1.75 -12.65)"/><use xlink:href="#f" width="11.2" height="12.2" transform="matrix(1.2 -.7357 .5396 1.29 -14.25 -13.65)"/><use xlink:href="#g" width="29.6" height="28" transform="translate(-12.25 -18.15)"/><use xlink:href="#f" width="11.2" height="12.2" transform="matrix(1.2 -.7357 .5396 1.29 5.85 -9.15)"/></g><g id="S" transform="translate(14.25 21.85)"><use xlink:href="#h" width="11.2" height="12.2" transform="matrix(1.03 -.4673 .4733 1.2 -1.75 -12.65)"/><use xlink:href="#i" width="11.2" height="12.2" transform="matrix(1.2 -.7357 .5396 1.29 -14.25 -13.65)"/><use xlink:href="#j" width="29.6" height="28" transform="translate(-12.25 -18.15)"/><use xlink:href="#i" width="11.2" height="12.2" transform="matrix(1.2 -.7357 .5396 1.29 5.85 -9.15)"/></g><g id="X" transform="translate(14.25 21.85)"><use xlink:href="#k" width="11.2" height="12.2" transform="matrix(1.03 -.4673 .4733 1.2 -1.75 -12.65)"/><use xlink:href="#l" width="11.2" height="12.2" transform="matrix(1.2 -.7357 .5396 1.29 -14.25 -13.65)"/><use xlink:href="#m" width="29.6" height="28" transform="translate(-12.25 -18.15)"/><use xlink:href="#l" width="11.2" height="12.2" transform="matrix(1.2 -.7357 .5396 1.29 5.85 -9.15)"/></g><g id="aa" transform="translate(14.25 21.85)"><use xlink:href="#n" width="11.2" height="12.2" transform="matrix(1.03 -.4673 .4733 1.2 -1.75 -12.65)"/><use xlink:href="#o" width="11.2" height="12.2" transform="matrix(1.2 -.7357 .5396 1.29 -14.25 -13.65)"/><use xlink:href="#p" width="29.6" height="28" transform="translate(-12.25 -18.15)"/><use xlink:href="#o" width="11.2" height="12.2" transform="matrix(1.2 -.7357 .5396 1.29 5.85 -9.15)"/></g><g id="ad" transform="translate(14.25 21.85)"><use xlink:href="#q" width="11.2" height="12.2" transform="matrix(1.03 -.4673 .4733 1.2 -1.75 -12.65)"/><use xlink:href="#r" width="11.2" height="12.2" transform="matrix(1.2 -.7357 .5396 1.29 -14.25 -13.65)"/><use xlink:href="#s" width="29.6" height="28" transform="translate(-12.25 -18.15)"/><use xlink:href="#r" width="11.2" height="12.2" transform="matrix(1.2 -.7357 .5396 1.29 5.85 -9.15)"/></g><g id="af" transform="translate(14.25 21.85)"><use xlink:href="#t" width="11.2" height="12.2" transform="matrix(1.03 -.4673 .4733 1.2 -1.75 -12.65)"/><use xlink:href="#u" width="11.2" height="12.2" transform="matrix(1.2 -.7357 .5396 1.29 -14.25 -13.65)"/><use xlink:href="#v" width="29.6" height="28" transform="translate(-12.25 -18.15)"/><use xlink:href="#u" width="11.2" height="12.2" transform="matrix(1.2 -.7357 .5396 1.29 5.85 -9.15)"/></g><g id="ai" transform="translate(14.25 21.85)"><use xlink:href="#w" width="11.2" height="12.2" transform="matrix(1.03 -.4673 .4733 1.2 -1.75 -12.65)"/><use xlink:href="#x" width="11.2" height="12.2" transform="matrix(1.2 -.7357 .5396 1.29 -14.25 -13.65)"/><use xlink:href="#y" width="29.6" height="28" transform="translate(-12.25 -18.15)"/><use xlink:href="#x" width="11.2" height="12.2" transform="matrix(1.2 -.7357 .5396 1.29 5.85 -9.15)"/></g><g id="al" transform="translate(14.25 21.85)"><use xlink:href="#A" width="11.2" height="12.2" transform="matrix(1.03 -.4673 .4733 1.2 -1.75 -12.65)"/><use xlink:href="#B" width="11.2" height="12.2" transform="matrix(1.2 -.7357 .5396 1.29 -14.25 -13.65)"/><use xlink:href="#D" width="29.6" height="28" transform="translate(-12.25 -18.15)"/><use xlink:href="#B" width="11.2" height="12.2" transform="matrix(1.2 -.7357 .5396 1.29 5.85 -9.15)"/></g><g id="an" transform="translate(14.25 21.85)"><use xlink:href="#E" width="11.2" height="12.2" transform="matrix(1.03 -.4673 .4733 1.2 -1.75 -12.65)"/><use xlink:href="#F" width="11.2" height="12.2" transform="matrix(1.2 -.7357 .5396 1.29 -14.25 -13.65)"/><use xlink:href="#H" width="29.6" height="28" transform="translate(-12.25 -18.15)"/><use xlink:href="#F" width="11.2" height="12.2" transform="matrix(1.2 -.7357 .5396 1.29 5.85 -9.15)"/></g><g id="bX" transform="translate(21.45 22.15)"><use xlink:href="#I" width="40" height="31.7" transform="matrix(.9967 .004 .3355 .7181 -21.45 -22.15)"/><use xlink:href="#J" width="20.4" height="17.4" transform="matrix(1.5 .1752 -.1116 1.55 -12.65 -15)"/><use xlink:href="#J" width="20.4" height="17.4" transform="matrix(1.39 0 -.0056 1.38 -16.5 -9.95)"/><use xlink:href="#J" width="20.4" height="17.4" transform="matrix(.8659 0 .123 .8211 -16.8 1.8)"/></g><g id="bV" transform="translate(21.45 22.15)"><use xlink:href="#K" width="40" height="31.7" transform="matrix(.9967 .004 .3355 .7181 -21.45 -22.15)"/><use xlink:href="#L" width="20.4" height="17.4" transform="matrix(1.5 .1752 -.1116 1.55 -12.65 -15)"/><use xlink:href="#L" width="20.4" height="17.4" transform="matrix(1.39 0 -.0056 1.38 -16.5 -9.95)"/><use xlink:href="#L" width="20.4" height="17.4" transform="matrix(.8659 0 .123 .8211 -16.8 1.8)"/></g><g id="bT" transform="translate(21.45 22.15)"><use xlink:href="#P" width="40" height="31.7" transform="matrix(.9967 .004 .3355 .7181 -21.45 -22.15)"/><use xlink:href="#R" width="20.4" height="17.4" transform="matrix(1.5 .1752 -.1116 1.55 -12.65 -15)"/><use xlink:href="#R" width="20.4" height="17.4" transform="matrix(1.39 0 -.0056 1.38 -16.5 -9.95)"/><use xlink:href="#R" width="20.4" height="17.4" transform="matrix(.8659 0 .123 .8211 -16.8 1.8)"/></g><g id="bR" transform="translate(21.45 22.15)"><use xlink:href="#S" width="40" height="31.7" transform="matrix(.9967 .004 .3355 .7181 -21.45 -22.15)"/><use xlink:href="#T" width="20.4" height="17.4" transform="matrix(1.5 .1752 -.1116 1.55 -12.65 -15)"/><use xlink:href="#T" width="20.4" height="17.4" transform="matrix(1.39 0 -.0056 1.38 -16.5 -9.95)"/><use xlink:href="#T" width="20.4" height="17.4" transform="matrix(.8659 0 .123 .8211 -16.8 1.8)"/></g><g id="bP" transform="translate(25.55 12.45)"><use xlink:href="#V" width="27.9" height="27.9" transform="translate(-7.45 -2.85)scale(.6188)"/><use xlink:href="#W" width="34.7" height="28.6" transform="translate(-25.55 -12.45)scale(1.21)"/></g><g id="bO" transform="translate(21.45 22.15)"><use xlink:href="#X" width="40" height="31.7" transform="matrix(.9967 .004 .3355 .7181 -21.45 -22.15)"/><use xlink:href="#Z" width="20.4" height="17.4" transform="matrix(1.5 .1752 -.1116 1.55 -12.65 -15)"/><use xlink:href="#Z" width="20.4" height="17.4" transform="matrix(1.39 0 -.0056 1.38 -16.5 -9.95)"/><use xlink:href="#Z" width="20.4" height="17.4" transform="matrix(.8659 0 .123 .8211 -16.8 1.8)"/></g><g id="bM" transform="translate(21.45 22.15)"><use xlink:href="#aa" width="40" height="31.7" transform="matrix(.9967 .004 .3355 .7181 -21.45 -22.15)"/><use xlink:href="#ab" width="20.4" height="17.4" transform="matrix(1.5 .1752 -.1116 1.55 -12.65 -15)"/><use xlink:href="#ab" width="20.4" height="17.4" transform="matrix(1.39 0 -.0056 1.38 -16.5 -9.95)"/><use xlink:href="#ab" width="20.4" height="17.4" transform="matrix(.8659 0 .123 .8211 -16.8 1.8)"/></g><g id="bK" transform="translate(21.45 22.15)"><use xlink:href="#ad" width="40" height="31.7" transform="matrix(.9967 .004 .3355 .7181 -21.45 -22.15)"/><use xlink:href="#ae" width="20.4" height="17.4" transform="matrix(1.5 .1752 -.1116 1.55 -12.65 -15)"/><use xlink:href="#ae" width="20.4" height="17.4" transform="matrix(1.39 0 -.0056 1.38 -16.5 -9.95)"/><use xlink:href="#ae" width="20.4" height="17.4" transform="matrix(.8659 0 .123 .8211 -16.8 1.8)"/></g><g id="bH" transform="translate(21.45 22.15)"><use xlink:href="#af" width="40" height="31.7" transform="matrix(.9967 .004 .3355 .7181 -21.45 -22.15)"/><use xlink:href="#ah" width="20.4" height="17.4" transform="matrix(1.5 .1752 -.1116 1.55 -12.65 -15)"/><use xlink:href="#ah" width="20.4" height="17.4" transform="matrix(1.39 0 -.0056 1.38 -16.5 -9.95)"/><use xlink:href="#ah" width="20.4" height="17.4" transform="matrix(.8659 0 .123 .8211 -16.8 1.8)"/></g><g id="bF" transform="translate(21.45 22.15)"><use xlink:href="#ai" width="40" height="31.7" transform="matrix(.9967 .004 .3355 .7181 -21.45 -22.15)"/><use xlink:href="#aj" width="20.4" height="17.4" transform="matrix(1.5 .1752 -.1116 1.55 -12.65 -15)"/><use xlink:href="#aj" width="20.4" height="17.4" transform="matrix(1.39 0 -.0056 1.38 -16.5 -9.95)"/><use xlink:href="#aj" width="20.4" height="17.4" transform="matrix(.8659 0 .123 .8211 -16.8 1.8)"/></g><g id="bD" transform="translate(21.45 22.15)"><use xlink:href="#al" width="40" height="31.7" transform="matrix(.9967 .004 .3355 .7181 -21.45 -22.15)"/><use xlink:href="#am" width="20.4" height="17.4" transform="matrix(1.5 .1752 -.1116 1.55 -12.65 -15)"/><use xlink:href="#am" width="20.4" height="17.4" transform="matrix(1.39 0 -.0056 1.38 -16.5 -9.95)"/><use xlink:href="#am" width="20.4" height="17.4" transform="matrix(.8659 0 .123 .8211 -16.8 1.8)"/></g><g id="bB" transform="translate(25.55 12.45)"><use xlink:href="#V" width="27.9" height="27.9" transform="translate(-7.45 -2.85)scale(.6188)"/><use xlink:href="#W" width="34.7" height="28.6" transform="translate(-17.6 -6.6)scale(.815)"/></g><g id="bz" transform="translate(21.45 22.15)"><use xlink:href="#an" width="40" height="31.7" transform="matrix(.9967 .004 .3355 .7181 -21.45 -22.15)"/><use xlink:href="#ap" width="20.4" height="17.4" transform="matrix(1.5 .1752 -.1116 1.55 -12.65 -15)"/><use xlink:href="#ap" width="20.4" height="17.4" transform="matrix(1.39 0 -.0056 1.38 -16.5 -9.95)"/><use xlink:href="#ap" width="20.4" height="17.4" transform="matrix(.8659 0 .123 .8211 -16.8 1.8)"/></g><use xlink:href="#aNN" id="a" width="11.2" height="12.2"/><use xlink:href="#aq" id="c" width="11.2" height="12.2"/><use xlink:href="#ar" id="f" width="11.2" height="12.2"/><use xlink:href="#as" id="e" width="11.2" height="12.2"/><use xlink:href="#at" id="i" width="11.2" height="12.2"/><use xlink:href="#au" id="h" width="11.2" height="12.2"/><use xlink:href="#av" id="l" width="11.2" height="12.2"/><use xlink:href="#aw" id="k" width="11.2" height="12.2"/><use xlink:href="#ax" id="o" width="11.2" height="12.2"/><use xlink:href="#ay" id="n" width="11.2" height="12.2"/><use xlink:href="#az" id="r" width="11.2" height="12.2"/><use xlink:href="#aA" id="q" width="11.2" height="12.2"/><use xlink:href="#aB" id="u" width="11.2" height="12.2"/><use xlink:href="#aC" id="t" width="11.2" height="12.2"/><use xlink:href="#aD" id="x" width="11.2" height="12.2"/><use xlink:href="#aE" id="w" width="11.2" height="12.2"/><use xlink:href="#aF" id="B" width="11.2" height="12.2"/><use xlink:href="#aG" id="A" width="11.2" height="12.2"/><use xlink:href="#aH" id="F" width="11.2" height="12.2"/><use xlink:href="#aI" id="E" width="11.2" height="12.2"/><use xlink:href="#aJ" id="bv" width="22.9" height="21.6"/><use xlink:href="#aK" id="J" width="20.4" height="17.4"/><use xlink:href="#aM" id="L" width="20.4" height="17.4"/><use xlink:href="#aO" id="R" width="20.4" height="17.4"/><use xlink:href="#aP" id="T" width="20.4" height="17.4"/><use xlink:href="#aQ" id="W" width="34.7" height="28.6"/><use xlink:href="#aR" id="V" width="27.9" height="27.9"/><use xlink:href="#bo" id="Z" width="20.4" height="17.4"/><use xlink:href="#bp" id="ab" width="20.4" height="17.4"/><use xlink:href="#bq" id="ae" width="20.4" height="17.4"/><use xlink:href="#br" id="ah" width="20.4" height="17.4"/><use xlink:href="#bs" id="aj" width="20.4" height="17.4"/><use xlink:href="#bt" id="am" width="20.4" height="17.4"/><use xlink:href="#bu" id="ap" width="20.4" height="17.4"/><use xlink:href="#bv" id="bY" width="22.9" height="21.6" transform="matrix(-1 0 0 1 29.95 4.5)"/><use xlink:href="#W" id="bI" width="34.7" height="28.6" transform="scale(1.21)"/><use xlink:href="#bv" id="bA" width="22.9" height="21.6" transform="matrix(-1.58 0 0 1.58 36.35 0)"/><use xlink:href="#bw" id="by" width="14.7" height="4.2"/><clipPath id="bx"><path d="M1 1h87v85H1z"/></clipPath><clipPath id="bC"><path d="M89 1h87v85H89z"/></clipPath><clipPath id="bE"><path d="M177 1h87v85h-87z"/></clipPath><clipPath id="bG"><path d="M265 1h87v85h-87z"/></clipPath><clipPath id="bJ"><path d="M353 1h87v85h-87z"/></clipPath><clipPath id="bL"><path d="M441 1h87v85h-87z"/></clipPath><clipPath id="bN"><path d="M529 1h87v85h-87z"/></clipPath><clipPath id="bQ"><path d="M617 1h87v85h-87z"/></clipPath><clipPath id="bS"><path d="M705 1h87v85h-87z"/></clipPath><clipPath id="bU"><path d="M793 1h87v85h-87z"/></clipPath><clipPath id="bW"><path d="M881 1h87v85h-87z"/></clipPath><clipPath id="bZ"><path d="M969 1h87v85h-87z"/></clipPath><clipPath id="ca"><path d="M1057 1h87v85h-87z"/></clipPath><clipPath id="cb"><path d="M1145 1h87v85h-87z"/></clipPath><path id="aR" fill="#fff" d="M9.8-10.2q3.3 3.3 4 7.7l.1 2.2q0 5.7-4.1 9.8-3.3 3.3-7.6 4l-2.2.1q-5.8 0-10-4.1-2.6-2.6-3.5-6-.5-1.8-.5-3.8 0-5.8 4-10h.2q4-4 9.8-4 3.7 0 6.6 1.7 1.7.9 3.2 2.3" transform="translate(14 14.3)"/><path id="bw" fill="#382c16" d="M5.8-1.9Q7.9-1.4 8-.5 8 .3 5.9 1 3.8 1.8.7 2l-5.2-.4Q-6.7 1.2-6.7.3q-.1-.8 2-1.6 2.2-.8 5.2-.9z" transform="translate(6.75 2.2)"/></defs><g clip-path="url(#bx)"><g transform="translate(55.3 83)"><use xlink:href="#by" width="14.7" height="4.2" transform="matrix(1.9886 .1326 -.2972 1.1689 -12.75 -3.9)"/><use xlink:href="#bz" width="50.5" height="38.3" transform="translate(-18.4 -35.35)"/><use xlink:href="#bA" width="36.4" height="34.2" transform="matrix(-1.5 0 0 1.5 .25 -82)"/><use xlink:href="#bB" width="42" height="34.5" transform="translate(-24.75 -39.2)scale(.916)"/></g></g><g clip-path="url(#bC)"><g transform="translate(143.3 83)"><use xlink:href="#by" width="14.7" height="4.2" transform="matrix(1.9886 .1326 -.2972 1.1689 -12.75 -3.9)"/><use xlink:href="#bD" width="50.5" height="38.3" transform="translate(-18.4 -35.35)"/><use xlink:href="#bA" width="36.4" height="34.2" transform="matrix(-1.5 0 0 1.5 .25 -82)"/><use xlink:href="#bB" width="42" height="34.5" transform="translate(-24.75 -39.2)scale(.916)"/></g></g><g clip-path="url(#bE)"><g transform="translate(231.3 83)"><use xlink:href="#by" width="14.7" height="4.2" transform="matrix(1.9886 .1326 -.2972 1.1689 -12.75 -3.9)"/><use xlink:href="#bF" width="50.5" height="38.3" transform="translate(-18.4 -35.35)"/><use xlink:href="#bA" width="36.4" height="34.2" transform="matrix(-1.5 0 0 1.5 .25 -82)"/><use xlink:href="#bB" width="42" height="34.5" transform="translate(-24.75 -39.2)scale(.916)"/></g></g><g clip-path="url(#bG)"><g transform="translate(319.3 83)"><use xlink:href="#by" width="14.7" height="4.2" transform="matrix(1.9886 .1326 -.2972 1.1689 -12.75 -3.9)"/><use xlink:href="#bH" width="50.5" height="38.3" transform="translate(-18.4 -35.35)"/><use xlink:href="#bI" width="42" height="34.5" transform="translate(-24.75 -39.2)scale(.916)"/></g></g><g clip-path="url(#bJ)"><g transform="translate(407.3 83)"><use xlink:href="#by" width="14.7" height="4.2" transform="matrix(1.9886 .1326 -.2972 1.1689 -12.75 -3.9)"/><use xlink:href="#bK" width="50.5" height="38.3" transform="translate(-18.4 -35.35)"/><use xlink:href="#bI" width="42" height="34.5" transform="translate(-24.75 -39.2)scale(.916)"/></g></g><g clip-path="url(#bL)"><g transform="translate(495.3 83)"><use xlink:href="#by" width="14.7" height="4.2" transform="matrix(1.9886 .1326 -.2972 1.1689 -12.75 -3.9)"/><use xlink:href="#bM" width="50.5" height="38.3" transform="translate(-18.4 -35.35)"/><use xlink:href="#bI" width="42" height="34.5" transform="translate(-24.75 -39.2)scale(.916)"/></g></g><g clip-path="url(#bN)"><g transform="translate(583.3 83)"><use xlink:href="#by" width="14.7" height="4.2" transform="matrix(1.9886 .1326 -.2972 1.1689 -12.75 -3.9)"/><use xlink:href="#bO" width="50.5" height="38.3" transform="translate(-18.4 -35.35)"/><use xlink:href="#bP" width="42" height="34.5" transform="translate(-24.75 -39.2)scale(.916)"/></g></g><g clip-path="url(#bQ)"><g transform="translate(671.3 83)"><use xlink:href="#by" width="14.7" height="4.2" transform="matrix(1.9886 .1326 -.2972 1.1689 -12.75 -3.9)"/><use xlink:href="#bR" width="50.5" height="38.3" transform="translate(-18.4 -35.35)"/><use xlink:href="#bP" width="42" height="34.5" transform="translate(-24.75 -39.2)scale(.916)"/></g></g><g clip-path="url(#bS)"><g transform="translate(759.3 83)"><use xlink:href="#by" width="14.7" height="4.2" transform="matrix(1.9886 .1326 -.2972 1.1689 -12.75 -3.9)"/><use xlink:href="#bT" width="50.5" height="38.3" transform="translate(-18.4 -35.35)"/><use xlink:href="#bP" width="42" height="34.5" transform="translate(-24.75 -39.2)scale(.916)"/></g></g><g clip-path="url(#bU)"><g transform="translate(847.3 83)"><use xlink:href="#by" width="14.7" height="4.2" transform="matrix(1.9886 .1326 -.2972 1.1689 -12.75 -3.9)"/><use xlink:href="#bV" width="50.5" height="38.3" transform="translate(-18.4 -35.35)"/><use xlink:href="#bI" width="42" height="34.5" transform="translate(-24.75 -39.2)scale(.916)"/></g></g><g clip-path="url(#bW)"><g transform="translate(935.3 83)"><use xlink:href="#by" width="14.7" height="4.2" transform="matrix(1.9886 .1326 -.2972 1.1689 -12.75 -3.9)"/><use xlink:href="#bX" width="50.5" height="38.3" transform="translate(-18.4 -35.35)"/><use xlink:href="#bY" width="36.4" height="34.2" transform="matrix(-1.5 0 0 1.5 .25 -82)"/></g></g><g clip-path="url(#bZ)"><g transform="translate(1023.3 83)"><use xlink:href="#by" width="14.7" height="4.2" transform="matrix(1.9886 .1326 -.2972 1.1689 -12.75 -3.9)"/><use xlink:href="#bV" width="50.5" height="38.3" transform="translate(-18.4 -35.35)"/><use xlink:href="#bY" width="36.4" height="34.2" transform="matrix(-1.5 0 0 1.5 .25 -82)"/></g></g><g clip-path="url(#ca)"><g transform="translate(1111.3 83)"><use xlink:href="#by" width="14.7" height="4.2" transform="matrix(1.9886 .1326 -.2972 1.1689 -12.75 -3.9)"/><use xlink:href="#bV" width="50.5" height="38.3" transform="translate(-18.4 -35.35)"/><use xlink:href="#bY" width="36.4" height="34.2" transform="matrix(-1.5 0 0 1.5 .25 -82)"/></g></g><g clip-path="url(#cb)"><g transform="translate(1199.3 83)"><use xlink:href="#by" width="14.7" height="4.2" transform="matrix(1.9886 .1326 -.2972 1.1689 -12.75 -3.9)"/><use xlink:href="#bz" width="50.5" height="38.3" transform="translate(-18.4 -35.35)"/><use xlink:href="#bY" width="36.4" height="34.2" transform="matrix(-1.5 0 0 1.5 .25 -82)"/></g></g></svg>