<svg xmlns="http://www.w3.org/2000/svg" xmlns:xlink="http://www.w3.org/1999/xlink" width="1225" height="59" viewBox="0 0 1225 59"><defs><clipPath id="X"><path d="M1 1h35v57H1z"/></clipPath><clipPath id="an"><path d="M37 1h35v57H37z"/></clipPath><clipPath id="ao"><path d="M73 1h35v57H73z"/></clipPath><clipPath id="ap"><path d="M109 1h35v57h-35z"/></clipPath><clipPath id="aq"><path d="M145 1h35v57h-35z"/></clipPath><clipPath id="ar"><path d="M181 1h35v57h-35z"/></clipPath><clipPath id="as"><path d="M217 1h35v57h-35z"/></clipPath><clipPath id="at"><path d="M253 1h35v57h-35z"/></clipPath><clipPath id="au"><path d="M289 1h35v57h-35z"/></clipPath><clipPath id="av"><path d="M325 1h35v57h-35z"/></clipPath><clipPath id="aw"><path d="M361 1h35v57h-35z"/></clipPath><clipPath id="ax"><path d="M397 1h35v57h-35z"/></clipPath><clipPath id="ay"><path d="M433 1h35v57h-35z"/></clipPath><clipPath id="az"><path d="M469 1h35v57h-35z"/></clipPath><clipPath id="aA"><path d="M505 1h35v57h-35z"/></clipPath><clipPath id="aB"><path d="M541 1h35v57h-35z"/></clipPath><clipPath id="aC"><path d="M577 1h35v57h-35z"/></clipPath><clipPath id="aD"><path d="M613 1h35v57h-35z"/></clipPath><clipPath id="aE"><path d="M649 1h35v57h-35z"/></clipPath><clipPath id="aF"><path d="M685 1h35v57h-35z"/></clipPath><clipPath id="aG"><path d="M721 1h35v57h-35z"/></clipPath><clipPath id="aH"><path d="M757 1h35v57h-35z"/></clipPath><clipPath id="aI"><path d="M793 1h35v57h-35z"/></clipPath><clipPath id="aJ"><path d="M829 1h35v57h-35z"/></clipPath><clipPath id="aK"><path d="M865 1h35v57h-35z"/></clipPath><clipPath id="aL"><path d="M901 1h35v57h-35z"/></clipPath><clipPath id="aM"><path d="M937 1h35v57h-35z"/></clipPath><clipPath id="aN"><path d="M973 1h35v57h-35z"/></clipPath><clipPath id="aO"><path d="M1009 1h35v57h-35z"/></clipPath><clipPath id="aP"><path d="M1045 1h35v57h-35z"/></clipPath><clipPath id="aQ"><path d="M1081 1h35v57h-35z"/></clipPath><clipPath id="aR"><path d="M1117 1h35v57h-35z"/></clipPath><clipPath id="aS"><path d="M1153 1h35v57h-35z"/></clipPath><clipPath id="aT"><path d="M1189 1h35v57h-35z"/></clipPath><g id="M"><path fill="#2d212e" d="m0 3.4.1-.2q2.5-4 5-3 1 .8.4 2.9l.2.4v.9q-.3 1.2-.1 1.5.4.7-.4 1.5L2.1 7l-.5-1.4q-.3-.9-.1-1.5l-.3-.3Q.5 3.3 0 3.4"/><path fill="#fbf4ce" d="M.1 3.4H0z"/></g><g id="O"><path fill="#dbbb85" d="m3.1 0 .3 1.9V3q0 .9-.4 1.8l-.1 1.9q-.7.2-1-.2V4.8L1.7 6l-.9-.2-.1-1v-.7Q.1 4 0 3.1v-.2l.3-.7.6-2z"/><path fill="#755725" d="M0 2.9v.3V3z"/><path fill="#b89d70" d="M0 3.2q.2.8.9 1l-.1.7-.8-.4V3zm3 3.5.1-2q.4-.8.4-1.7V1.9q0 .4.3 1T4 4.6l-.7.7z"/><path fill="none" stroke="#1c1c1c" stroke-linecap="round" stroke-linejoin="round" stroke-opacity=".5" stroke-width="__RESOLUTION__" d="M3.4 1.9 3 0M.9 0 .3 2.2l-.3.7v1.7l.8.3.1 1 .9.2m0-1.2L2 6.5q.3.4 1 .2l.5-1.4.8-.7Q4 3.4 3.7 2.9t-.3-1" vector-effect="non-scaling-stroke"/></g><g id="P"><path fill="#f8f3df" d="m7 11.7.3-.4z"/><path fill="#ba9f71" d="M7.7 16.2q-1-1-2.1-3.4v-.2l3 1.4.5 2.3z"/><path fill="#dbbb85" d="m8.5 14-2.9-1.4v.2q1 2.4 2 3.3l.1.1h-.3L5.2 15l.3-2.4z"/><path fill="#d4cbad" d="M5.5 8.6 2 .8l5.6 3.1z"/><path fill="none" stroke="#523109" stroke-linecap="round" stroke-linejoin="round" stroke-opacity=".3" stroke-width="__RESOLUTION__" d="M5.5 8.6 2 .8l5.6 3.1" vector-effect="non-scaling-stroke"/><path fill="#fbf0cc" d="m10.9 9.9-7.3.6.6-5.3 4.9 1z"/><path fill="#fbf0cc" d="M10.4 4.8 9.2 7.2 5.5 1.6 5 0z"/><path fill="#d4cbad" d="m9.2 7.2-2-.7-1.7-4.9z"/><path fill="none" stroke="#523109" stroke-linecap="round" stroke-linejoin="round" stroke-opacity=".3" stroke-width="__RESOLUTION__" d="M7.2 6.5 5.5 1.6 5 0l5.4 4.8" vector-effect="non-scaling-stroke"/><path fill="#d4cbad" d="M4.3 5.5 3.6 10 0 4.8z"/><path fill="none" stroke="#523109" stroke-linecap="round" stroke-linejoin="round" stroke-opacity=".3" stroke-width="__RESOLUTION__" d="M3.6 10 0 4.9l4.3.7" vector-effect="non-scaling-stroke"/><path fill="#fbf0cc" d="M3.9 9.9 2.4 3.4l4.3 3.1z"/><path fill="none" stroke="#523109" stroke-linecap="round" stroke-linejoin="round" stroke-opacity=".3" stroke-width="__RESOLUTION__" d="M3.9 9.9 2.4 3.4l4.3 3.1" vector-effect="non-scaling-stroke"/><path fill="#fbf0cc" d="M5.5 13.4 1.6 9l4.5 1.1z"/><path fill="none" stroke="#523109" stroke-linecap="round" stroke-linejoin="round" stroke-opacity=".3" stroke-width="__RESOLUTION__" d="M5.5 13.4 1.6 9l4.5 1.1" vector-effect="non-scaling-stroke"/><path fill="#b3996d" d="M6.2 14.4q-.6-1.9-.3-4.4l1-.2.8-.4 1.6-.5h.7l1 .1v.3l-.3 1-1.7 2-.3-1.8L7 12.2l-.2 1.4-.4 1z"/><path fill="#dbbb85" d="m6.4 14.6.3-1.1.2-1.3.2-.1 1.6-1.5.3 1.7 1.7-2 .3-1-.1.5-.3.5-.4 1q.3.5.2 1l-.3.4-.3.7v.1h-.1v.2l-.1.3-.3 1.1-.4.6q-1 .1-2-.6z"/><path fill="#f4dfb5" d="m10.2 12.8-.5.8v.2-.3l.1-.1z"/><path fill="none" stroke="#1b1b1b" stroke-linecap="round" stroke-linejoin="round" stroke-opacity=".5" stroke-width="__RESOLUTION__" d="m6.2 14.4.2.1m3.8-3.3q.3.6.2 1v.2l-.3.3-.3.7v.1h-.1v.2h0l-.1.3-.3 1.1-.4.6q-1 .1-2-.6l-.4-.4" vector-effect="non-scaling-stroke"/><path fill="#fff" d="M10.7 9.7v1q-.3.8-.7.9v-.8q.2-.8.7-1.1m-2.3 1.4v.8q-.6.4-1 0v-1q.7-.3 1 .2"/><path fill="none" stroke="#1f1f1f" stroke-linecap="round" stroke-linejoin="round" stroke-opacity=".5" stroke-width="__RESOLUTION__" d="M10 10.8q.2-.7.6-1.1m-2.2 1.4q-.3-.5-1-.2" vector-effect="non-scaling-stroke"/><path fill="#d4cbad" d="m9.5 9 1.4-2 2.6 3.5z"/><path fill="none" stroke="#523109" stroke-linecap="round" stroke-linejoin="round" stroke-opacity=".3" stroke-width="__RESOLUTION__" d="m10.9 7.2 2.6 3.4-4-1.6" vector-effect="non-scaling-stroke"/><path fill="#dbbb85" d="M4.5 11.4 6 12.5q-.5.8-1.7.3Q3.2 12 3 11.2z"/><path fill="none" stroke="#1f1f1f" stroke-linecap="round" stroke-linejoin="round" stroke-opacity=".3" stroke-width="__RESOLUTION__" d="M6 12.5q-.5.8-1.7.3Q3.2 12 3 11.2l1.5.2" vector-effect="non-scaling-stroke"/><path fill="#fbf0cc" d="M9.2 8.4V2.6l2.2 4.9z"/><path fill="none" stroke="#523109" stroke-linecap="round" stroke-linejoin="round" stroke-opacity=".3" stroke-width="__RESOLUTION__" d="M9.2 8.4V2.6l2.2 4.9" vector-effect="non-scaling-stroke"/><path fill="#fbf0cc" d="m8.3 9-3.1 3.7.5-3.8z"/><path fill="none" stroke="#523109" stroke-linecap="round" stroke-linejoin="round" stroke-opacity=".3" stroke-width="__RESOLUTION__" d="m8.3 9-3.1 3.7.5-3.8" vector-effect="non-scaling-stroke"/><path fill="#fbf0cc" d="m8.6 7.6 2.2.7-3.4 3.6z"/><path fill="none" stroke="#523109" stroke-linecap="round" stroke-linejoin="round" stroke-opacity=".3" stroke-width="__RESOLUTION__" d="m10.8 8.3-3.4 3.6 1.2-4.3" vector-effect="non-scaling-stroke"/></g><g id="Q"><path fill="#52514b" d="M5.4 1.4Q5.7 4.9 4 8q-.5.9-1 2.6-1.5.4-3-.6.5-1.5.3-2.5Q-.2 4.8 1.6 0z"/><path fill="none" stroke="#1f1f1f" stroke-linecap="round" stroke-linejoin="round" stroke-opacity=".3" stroke-width="__RESOLUTION__" d="M3 10.6Q3.5 8.9 4 8q1.7-3.1 1.4-6.6M1.6 0Q-.2 4.8.3 7.5q.2 1-.3 2.5" vector-effect="non-scaling-stroke"/></g><g id="R"><path fill="#4e4b5f" d="m.6 9.6.3-1.8-.2-3.4Q.6 2.5 1.2.9q.5-.8 1.9 1.2l1.5 2.6q.1 1.3-.5 2.7l-1 2.2zm2.1-2q.8-.6 1.5-1.9Q3.5 7 2.7 7.5"/><path fill="none" stroke="#1e1e24" stroke-linecap="round" stroke-linejoin="round" stroke-width="__RESOLUTION__" d="m3 9.6 1.1-2.2q.6-1.5.6-2.8L3 2.1Q1.7 0 1.2.8.6 2.5.7 4.4l.2 3.4-.3 1.8m3.6-3.9Q3.5 7 2.7 7.5" vector-effect="non-scaling-stroke"/><path fill="#52514b" d="M5 1.2q.5 3.4-1 6.6-.4.9-.6 2.2-1.5 1-3.2-.3.2-1.1-.2-3T1.2 0z"/><path fill="none" stroke="#1f1f1f" stroke-linecap="round" stroke-linejoin="round" stroke-opacity=".3" stroke-width="__RESOLUTION__" d="M3.4 10q.3-1.3.7-2.2 1.4-3.2.9-6.6M1 0Q-.4 5 0 6.8t.1 2.9" vector-effect="non-scaling-stroke"/></g><g id="S"><path fill="#dbbb85" d="M3.9 1.2q1.1 1 .8 1.6l-.6.5-.3.2.3.3v.1q-.1 1-.8 1.8-1.3-.2-1-.8l.2-.6.2-.6q-.5-.4-.4-.8.7-1.1 1.6-1.6m-1.5 3-.4.6-.8-.5-.2-.6-.9-.4q-.2-.5.1-1h.1q.6 0 1 .6.6 0 1.2.5zM1.3 3.1l-.3.6z"/><path fill="#b89d70" d="M3.9 1.2q-1 .5-1.6 1.6-.1.4.4.8l-.3.6v-.5Q2 3.2 1.3 3v-.2q-.5-.6-1-.6l.1-.8Q.4.7.9.3 2.8-.5 4 1z"/><path fill="none" stroke="#1c1c1c" stroke-linecap="round" stroke-linejoin="round" stroke-opacity=".5" stroke-width="__RESOLUTION__" d="m2.5 4.2-.2.6q-.3.6 1 .8.7-.8.8-1.8v-.1l-.3-.3.3-.2.6-.5q.3-.6-.8-1.6v0q-1 .6-1.6 1.7m.1 1.4-.4.6-.8-.5-.2-.6-.9-.4q-.2-.5.1-1h.1l.1-.8Q.4.7.9.3M1 3.7l.3-.6" vector-effect="non-scaling-stroke"/></g><g id="T"><path fill="#8d1f03" d="M4.3 2.6 4 3l-.4 1.7L3 8.2l-1 .3h-.5Q1 6.3 2 4.4l-.1-1 .6-1L3.3 1q.8.7 1 1.6"/><path fill="#751802" d="M1.6 8.5.5 8.3V8Q0 5 1.1 2.2L3.2 1l-.7 1.5-.7.9.1 1q-.9 1.9-.3 4"/><path fill="#661502" d="m.5 8.3-.3-.4q-.5-4 .4-6l2-1.4q.8-1 1.3 0l.6 1q.2 1-.2 1.1Q4 1.6 3.2 1L1.1 2.3Q0 5.1.5 8.2z"/><path fill="none" stroke="#4f0e01" stroke-linecap="round" stroke-linejoin="round" stroke-width="__RESOLUTION__" d="m.5 8.3-.3-.4q-.5-4 .4-6l2-1.4q.8-1 1.3 0l.6 1" vector-effect="non-scaling-stroke"/></g><g id="U"><path fill="#661502" d="m2.6 0-.5 1.8-1.4.7 1.5.5.4 1.3H2Q.3 4.3.1 3.6q-.2-1 .2-2L1 0z"/><path fill="#8d1f03" d="M2.7 4.3 2.2 3 .8 2.5l1.4-.7.5-1.7h1L4 1.7q.3 1.1.2 2.2-.4.4-1.4.4"/><path fill="none" stroke="#1c1c1c" stroke-linecap="round" stroke-linejoin="round" stroke-opacity=".5" stroke-width="__RESOLUTION__" d="M1 0 .3 1.7q-.4.9-.2 1.9.1.6 1.9.7h.6q1.1 0 1.5-.4.1-1.1-.2-2.2L3.7.1" vector-effect="non-scaling-stroke"/></g><g id="V"><path fill="#661502" d="m.2.1 1 .2q.4 1.2 1.5 1.5 1.1.1 1.2 2.1L0 1.7z"/><path fill="#8d1f03" d="M1.3.4 2.9 0l2.3 1.2q1.2 1.2.6 2-.4.4-1.9.7-.1-2-1.2-2.1Q1.6 1.5 1.2.4"/><path fill="none" stroke="#1c1c1c" stroke-linecap="round" stroke-linejoin="round" stroke-opacity=".5" stroke-width="__RESOLUTION__" d="m2.9 0 2.3 1.2q1.2 1.2.6 2-.4.4-1.9.7L0 1.7.2 0" vector-effect="non-scaling-stroke"/></g><g id="b"><path fill="#7d1702" d="m4.1 1.4-.5.9V3L3 2Q3.4.6 3.9.3h.6q-.3.6.2 1zm.4 6.7q.2.4 1.1.5l.5-.1v.8h-.6q-1 0-1.3-.7-.1-.2.3-.5"/><path fill="#661502" d="m3.6 2.3.5-.9h.7l1.7.5q1.3 3.2.5 6l-1 .6h-.4q-.9 0-1.1-.4-1-2.9-1-5.8"/><path fill="#bd2703" d="M4.8 1.4q-.6-.3-.2-1 1.4 0 2.8 1 1.2 3.2.3 7.3l-1.5.6-.1-.8.9-.6q.8-2.9-.5-6z"/><path fill="none" stroke="#c27517" stroke-linecap="round" stroke-linejoin="round" stroke-width="__RESOLUTION__" d="M4.1 1.4" vector-effect="non-scaling-stroke"/><path fill="none" stroke="#45303b" stroke-linecap="round" stroke-linejoin="round" stroke-width="__RESOLUTION__" d="M4.6.5h-.7Q3.5.8 3.1 2l.4 1v-.8m1 5.8q-.4.3-.3.5.4.7 1.3.8l.7-.1 1.5-.6q.9-4.1-.3-7.3Q6 .4 4.5.4" vector-effect="non-scaling-stroke"/><path fill="none" stroke="#734e19" stroke-linecap="round" stroke-linejoin="round" stroke-width="__RESOLUTION__" d="M3.6 2.3q0 2.9.9 5.8" vector-effect="non-scaling-stroke"/><path fill="#d12b04" d="m1.8.9-.1 2.4-.8-.7V0z"/><path fill="#8d1f03" d="M1.7 3.3 1.8.9l2.7 1q.5 1 .3 1.8z"/><path fill="#661502" d="M1.8.9.8 0l3.4 1.4.2.6z"/><path fill="none" stroke="#5c1301" stroke-linecap="round" stroke-linejoin="round" stroke-width="__RESOLUTION__" d="M1.8.9.8 0 1 2.6l.8.7 3.1.4q.2-.8-.3-1.8m-.3-.5L.9 0" vector-effect="non-scaling-stroke"/><path fill="#8d1f03" d="M4.7 6.8q.7.6.9 1.4L3.7 10l-.9-2.5z"/><path fill="#d12b04" d="M3.7 10 3 9.8 1.9 7.3l.9.2z"/><path fill="#661502" d="m1.9 7.3 2.4-.9.4.3-1.9.7z"/><path fill="none" stroke="#5c1301" stroke-linecap="round" stroke-linejoin="round" stroke-width="__RESOLUTION__" d="M4.7 6.8q.7.6.9 1.4L3.7 10 3 9.8 1.9 7.3l2.4-.9m-1.5 1-.9-.1" vector-effect="non-scaling-stroke"/><path fill="#8d1f03" d="M4.5 4.3q.8.7.7 1.5l-3.6 1-.4-2.5z"/><path fill="#d12b04" d="m1.6 6.8-1-.4L0 3.7l1.2.5z"/><path fill="#661502" d="m0 3.9 4-.1.5.5H1.2z"/><path fill="none" stroke="#5c1301" stroke-linecap="round" stroke-linejoin="round" stroke-width="__RESOLUTION__" d="M4.5 4.3q.8.7.7 1.5l-3.6 1-1-.4L0 3.7h4m-2.8.5L0 3.9" vector-effect="non-scaling-stroke"/></g><g id="d"><path fill="none" stroke="#1f1f1f" stroke-linecap="round" stroke-linejoin="round" stroke-opacity=".3" stroke-width="__RESOLUTION__" d="M5.7 10.7q-.1-.1.7-1.5l.5-1.6 1-1.1M3 5.1q-.6.5-.6 1.5l-.1 1.8q-.6.6 0 1.7" vector-effect="non-scaling-stroke"/><path fill="#332207" fill-opacity=".3" d="m6.8 7.6-.4 1.6q-.9 1.4-.8 1.5l-1.3-.1 1-3.3L3 6v-.8l-.1-.4L4.1 6q2.3.2 3.7-.7v1.2z"/><path fill="#bd2703" d="m7 1.2-1 .1q-1.4 1.6-3.4.5l-.9-.5q1.9.1 3.7-1 .8-.1 1.5.8z"/><path fill="#8d1f03" d="M2.6 1.8q2 1 3.4-.5l1-.1 1.5 1.4-.4 2-.1.1q-2.2 1-3.9.4L2.9 2.5z"/><path fill="#a17638" d="M7 1.2V1z"/><path fill="#7d1702" d="M7 1.1Q6.2.2 5.3.3h2.4zm-5.3.2.9.5.3.7-1.2-.3-1-.7z"/><path fill="#661502" d="M2.9 2.5 4.1 5q1.7.7 3.9-.4h.1l.4-2.2L7 1.2V1l.7-.9 1.5 2q.7 1.7-.7 3.1-2.5 1.4-5.2.4l-.4-1.3v-.1l-1.2-2z"/><path fill="#ffcd2b" d="M8 4.7"/><path fill="#ffeeb5" d="M7 1.1"/><path fill="#5e3e14" d="m1.7 2.2 1.2 2v.2-.2.2L0 4.6l.7-3.1z"/><path fill="none" stroke="#4a0d01" stroke-linecap="round" stroke-linejoin="round" stroke-width="__RESOLUTION__" d="M5.4.4q-1.9 1-3.7.9l-1 .2 1 .7 1.2 2v.2l.4 1.3q2.7 1 5.2-.4 1.4-1.4.7-3.1L7.7.1zM4 5q1.7.7 3.9-.4H8l.4-2.2M8 4.6zm-5.1-.3L0 4.6l.7-3.1" vector-effect="non-scaling-stroke"/></g><g id="h"><path fill="none" stroke="#1c1c1c" stroke-linecap="round" stroke-linejoin="round" stroke-opacity=".5" stroke-width="__RESOLUTION__" d="m7.8 0 1.7 1.7q1.1 1.6 1 3.2L10 6.1l-.3 5m-7.1 1.3q.2-1.5-1.5-4.6Q-.4 5 .1 2.5v-.2l1.3-1" vector-effect="non-scaling-stroke"/><path fill="#4a4946" d="m9.3 12.6-.2.3q-1.7 1.3-2.9 1.3-1.4 0-2.6-.5L2.5 13q-.2-.1 0-1.4 1.4.9 3.6.7 1.6-.2 3.1-1.3.5-.5.5-1.3l.2 1.3-.8.3z"/><path fill="#5a5854" d="m9.3 12.6-.2-1.2.8-.3.6.2q.4.1.4 1-.1.7-.6.7l-.6-.2-.4.3z"/><path fill="#ff3" d="M9 11.7q-.7.3-1.4.9-.2.5-.1 1.3l1.4-.8zm.3-.6.2-.1v2.2l-.2.2q-1.2.8-2.5 1.2-.1-.7.1-2v-.3z"/><path fill="#ff3" d="m8.8 12.9-.4.2-.4.2-.2-.2.2-.3.4-.4h.4l.2.1z"/><path fill="#332207" fill-opacity=".3" d="M1.2 8Q-.5 5 0 2.6v-.1l1.3-1.1q1.3 4.3 4.5 6-1.3 3.2-1 5.7l-2.3-.6Q2.8 11 1.1 8"/></g><g id="j"><path fill="#332207" fill-opacity=".3" d="M0 7.7q1-1.4 1.5-4.1.3-2.2 1.4-3.1l2.2.5Q2.9 8 3.9 9.1l-1.2-.3Q1.4 8.5 0 7.7"/><path fill="none" stroke="#1c1c1c" stroke-linecap="round" stroke-linejoin="round" stroke-opacity=".5" stroke-width="__RESOLUTION__" d="M10 0v7.7l-1.9 1-4.3.5-1.1-.3Q1.4 8.5 0 7.7q1-1.4 1.5-4.1.3-2.2 1.4-3.1" vector-effect="non-scaling-stroke"/></g><g id="m"><path fill="none" stroke="#1f1f1f" stroke-linecap="round" stroke-linejoin="round" stroke-opacity=".3" stroke-width="__RESOLUTION__" d="M5.2 9.6q.8-.9.5-1.6-.2-.3 0-1.5.2-.9-.2-1.4M2 9.4l-.4-1.5-.1-1.5L1 6q-.7-.5-1-.4" vector-effect="non-scaling-stroke"/><path fill="#661502" d="M3.9 5q.6.4 3.6-1l-1-2.8h.1Q6 .2 5.2.3L6.7.2Q8.3 4.4 8 4.5q-3.6 1.8-5 1l-.2-1.3V4L2 1.9l1 .4z"/><path fill="#8d1f03" d="m6.6 1.2.9 2.9q-3 1.3-3.6.9L3 2.3l-.3-.8q1.7 1.2 2.9-.2z"/><path fill="#7d1702" d="m3 2.3-1-.4-.8-.8.9-.1.7.5z"/><path fill="#5e3e14" d="M2.9 4v.2z"/><path fill="#bd2703" d="M5.2.3q.8-.1 1.4.9l-1 .1q-1.1 1.4-2.8.2L2.1 1Q3.7 1 5.2.3"/><path fill="#ffeeb5" d="M6.6 1.2"/><path fill="none" stroke="#4a0d01" stroke-linecap="round" stroke-linejoin="round" stroke-width="__RESOLUTION__" d="m6.6 1.2.9 2.9q-3 1.3-3.6.9M2 1.9 2.8 4v.2h0m0 0L3 5.5q1.4.8 5-1 .2-.1-1.4-4.3L5.2.3q-1.5.9-3.1.7l-.9.1.9.7" vector-effect="non-scaling-stroke"/></g><g id="n"><path fill="#661502" d="m6.2 7.4-2.6.5-.6-.6 2.5-.5z"/><path fill="#8d1f03" d="m3.6 7.9 2.6-.5L6 9.6l-2.4-.2z"/><path fill="none" stroke="#5c1301" stroke-linecap="round" stroke-linejoin="round" stroke-width="__RESOLUTION__" d="m6.2 7.4-.7-.6-2.5.5m.6 2.1 2.4.3.2-2.3" vector-effect="non-scaling-stroke"/><path fill="#661502" d="m2.3 5.3 3-1.7.9.2-3 1.7z"/><path fill="#8d1f03" d="M6.2 3.9 6.4 6l-3 .9-.2-1.4z"/><path fill="none" stroke="#5c1301" stroke-linecap="round" stroke-linejoin="round" stroke-width="__RESOLUTION__" d="m2.3 5.3 3-1.7.9.2.2 2.3-3 .9" vector-effect="non-scaling-stroke"/><path fill="#661502" d="M1 3.4 2.6 0 4 .2 1.9 3.7z"/><path fill="#8d1f03" d="m4 .2 1 2-2.5 2.6-.6-1.1z"/><path fill="none" stroke="#5c1301" stroke-linecap="round" stroke-linejoin="round" stroke-width="__RESOLUTION__" d="M1 3.4 2.6 0 4 .2l1 2-2.5 2.6" vector-effect="non-scaling-stroke"/><path fill="#bd2703" d="m1 7.9.3.6.5.7H2l.4-.1q.6-.2 1.1-.6 0-3-1.3-5.3l-.8-.4H.9l-.5.6L0 3q.1-.6.7-.8l.5-.1 1.2.3q1.8 3.4 1.8 6.4-.7 1-1.7 1.2H2L1 8.8z"/><path fill="#661502" d="m.4 3.4.6-.5h.3l.8.3q1.4 2.3 1.3 5.3-.5.5-1.1.6h-.4v.1l-.6-.6-.2-.7Q.4 5.7.4 3.4"/></g><g id="am" transform="translate(5.7 3.55)"><use xlink:href="#a" width="4.6" height="7.9" transform="translate(-1.65 -2.4)"/><use xlink:href="#b" width="8.1" height="10" transform="translate(-5.7 -3.55)"/></g><g id="ak" transform="translate(5.7 3.45)"><use xlink:href="#c" width="5.9" height="8.8" transform="translate(-3.7 -1.5)"/><use xlink:href="#d" width="9.4" height="10.7" transform="translate(-5.7 -3.45)"/></g><g id="ai" transform="translate(5.95 13.15)"><use xlink:href="#e" width="6.4" height="3.3" transform="translate(-4.6 -13.15)"/><use xlink:href="#f" width="10.6" height="13.2" transform="translate(-5.95 -13)"/><use xlink:href="#g" width="5.5" height="9.3" transform="translate(-1.6 -9.4)"/><use xlink:href="#h" width="10.8" height="14.6" transform="translate(-5.95 -12.95)"/></g><g id="ah" transform="translate(5.55 .4)"><use xlink:href="#i" width="10.1" height="9.3" transform="translate(-5.55 -.4)"/><use xlink:href="#j" width="10.1" height="9.3" transform="translate(-5.55 -.4)"/><use xlink:href="#k" width="2.2" height="6.3" transform="translate(1.15 1.55)"/></g><g id="ae" transform="translate(3.8 4.1)"><use xlink:href="#l" width="5.8" height="7.3" transform="translate(-3.75 -1.9)"/><use xlink:href="#m" width="8.1" height="9.6" transform="translate(-3.8 -4.1)"/></g><g id="ac" transform="translate(2.7 4.15)"><use xlink:href="#n" width="6.3" height="10" transform="translate(-1.35 -4.15)"/><use xlink:href="#o" width="4.5" height="7.2" transform="translate(-2.7 -1.85)"/><use xlink:href="#p" width="1.8" height="4.6" transform="translate(-2.7 .75)"/></g><use xlink:href="#q" id="a" width="4.6" height="7.9"/><use xlink:href="#H" id="c" width="5.9" height="8.8"/><use xlink:href="#I" id="g" width="5.5" height="9.3"/><use xlink:href="#J" id="f" width="10.6" height="13.2"/><use xlink:href="#K" id="k" width="2.2" height="6.3"/><use xlink:href="#L" id="i" width="10.1" height="9.3"/><use xlink:href="#M" id="l" width="5.8" height="7.3"/><use xlink:href="#N" id="o" width="4.5" height="7.2"/><use xlink:href="#O" id="al" width="4.2" height="6.7"/><use xlink:href="#P" id="aj" width="13.5" height="16.3"/><use xlink:href="#Q" id="ag" width="5.5" height="10.7"/><use xlink:href="#R" id="af" width="5.1" height="10.4"/><use xlink:href="#S" id="ad" width="4.8" height="5.5"/><use xlink:href="#T" id="ab" width="4.5" height="8.4"/><use xlink:href="#U" id="aa" width="4.1" height="4.3"/><use xlink:href="#V" id="Z" width="6" height="3.9"/><use xlink:href="#W" id="Y" width="14.7" height="4.3"/><path id="q" fill="#2d212e" d="m2.3-.9-.7 4.3-.6.2-1.5.4q-1-1.1-1.2-3.2l-.5-3.1q-.2-.7.3-1.6h4z" transform="translate(2.3 3.95)"/><path id="H" fill="#2d212e" d="M-2-1.1q-.2-2.4 1.1-3.2 1.5-.2 2.8 1Q3-2 2.8.2l-1 1.1-.4 1.6Q.6 4.3.8 4.4L-2.6 4q-.6-1.2-.1-1.8.2-.3.2-1.8-.1-1 .5-1.5" transform="translate(2.95 4.35)"/><path id="I" fill="#7d1702" d="M2.8-1.4 1.6-.2v3.9L0 4.6V.5l-2.7.5V-.8l2.5-1.4L-.4-4l1.5-.7.3 2L2.7-3z" transform="translate(2.75 4.65)"/><path id="J" fill="#2d212e" d="M5.3-1.7 4.8-.4l-.3 5.1Q2.6 6.8-.3 6.5l-2.3-.6q.2-1.4-1.5-4.5-1.5-2.8-1-5.3v-.2l1.2-1L-1.2-4q1.8.7 3 .3 1-.4.5-3h.2L4.3-5q1 1.6 1 3.2" transform="translate(5.25 6.6)"/><path id="K" fill="#7d1702" d="m1 2.2-2.1 1 .5-5.4 1.7-1z" transform="translate(1.1 3.15)"/><path id="L" fill="#2d212e" d="M4.9-4.6 5 3 3.1 4.1q-2.3.8-4.3.5l-1.1-.3Q-3.6 3.9-5 3q1-1.5 1.4-4 .4-2.3 1.5-3.2l2.2.5q3 .4 4.8-1" transform="translate(5.05 4.65)"/><path id="N" fill="#2d212e" d="M1.4-2.7 2 0q.5 1.7.1 3.2L.5 3l-1 .6q-.1-1.2-.9-2.2L-2.2-1 .6-3.6q.6.3.7.9" transform="translate(2.25 3.6)"/><path id="W" fill="#382c16" d="M5.8-1.9Q7.9-1.4 8-.5 8 .3 5.9 1 3.8 1.8.7 2l-5.2-.4Q-6.7 1.2-6.7.3q-.1-.8 2-1.6 2.2-.8 5.2-.9z" transform="translate(6.75 2.25)"/><path id="e" fill="#dbbb85" d="M1.1-10q-1.2.4-3-.3l-2.7-1.2q2.8-2.2 6.2-1.5.6 2.6-.5 3" transform="translate(4.6 13.15)"/><path id="p" fill="none" stroke="#1c1c1c" stroke-linecap="round" stroke-linejoin="round" stroke-opacity=".5" stroke-width="__RESOLUTION__" d="m-2.7.8.9 2.3q.8 1 .9 2.3" transform="translate(2.7 -.75)" vector-effect="non-scaling-stroke"/></defs><g clip-path="url(#X)"><g transform="translate(16.8 55.3)"><use xlink:href="#Y" width="14.7" height="4.3" transform="matrix(.8 0 0 .8 -5.4 -1.8)"/><use xlink:href="#Z" width="6" height="3.9" transform="matrix(1 0 .0058 1 .9 -3.4)"/><use xlink:href="#aa" width="4.1" height="4.3" transform="matrix(1 0 .0479 1 -5.55 -1.6)"/><use xlink:href="#ab" width="4.5" height="8.4" transform="matrix(.996 -.0886 .0447 1 .65 -10.65)"/><use xlink:href="#ac" width="7.7" height="10" transform="matrix(.458 -.6634 .6259 .5762 3.35 -25.85)"/><use xlink:href="#ad" width="4.8" height="5.5" transform="rotate(-37.663 -27.568 -22.822)scale(.996)"/><use xlink:href="#ae" width="8.1" height="9.6" transform="matrix(-.8033 .2776 .134 .9944 5.8 -34.15)"/><use xlink:href="#ab" width="4.5" height="8.4" transform="matrix(1 0 -.0935 1 -4.3 -9.15)"/><use xlink:href="#af" width="5.1" height="10.4" transform="matrix(1 0 .0058 1 1.2 -19.25)"/><use xlink:href="#ag" width="5.5" height="10.7" transform="matrix(1.0047 -.0259 -.0918 .9966 -1.95 -18.5)"/><use xlink:href="#ah" width="10.1" height="9.3" transform="matrix(.9998 -.0133 .036 .9994 -3.15 -19.9)"/><use xlink:href="#ai" width="10.8" height="14.8" transform="matrix(1.0063 -.0362 .1571 .987 -4.7 -31.8)"/><use xlink:href="#aj" width="13.5" height="16.3" transform="matrix(.998 -.0379 .0379 .998 -6.9 -46.85)"/><use xlink:href="#ak" width="9.4" height="10.7" transform="matrix(.997 .021 .091 .9031 -8.55 -31.95)"/><use xlink:href="#al" width="4.2" height="6.7" transform="matrix(.9794 .0622 -.1269 .7932 -4.9 -16.05)"/><use xlink:href="#am" width="8.7" height="10" transform="matrix(.9898 -.075 .0215 1.0014 -10.05 -22.95)"/></g></g><g clip-path="url(#an)"><g transform="translate(52.8 55.3)"><use xlink:href="#Y" width="14.7" height="4.3" transform="matrix(.8 0 0 .8 -5.4 -1.8)"/><use xlink:href="#Z" width="6" height="3.9" transform="matrix(1 0 .0058 1 .9 -3.4)"/><use xlink:href="#aa" width="4.1" height="4.3" transform="matrix(1 0 .0479 1 -5.55 -1.6)"/><use xlink:href="#ab" width="4.5" height="8.4" transform="matrix(.996 -.0886 .0447 1 .65 -10.65)"/><use xlink:href="#ac" width="7.7" height="10" transform="matrix(.0914 -.8005 .8228 .2132 3.45 -26.1)"/><use xlink:href="#ad" width="4.8" height="5.5" transform="matrix(.4525 -.8855 .8974 .5404 8.55 -24.9)"/><use xlink:href="#ae" width="8.1" height="9.6" transform="matrix(-.5688 .6296 .5867 .7904 2.75 -35.1)"/><use xlink:href="#ab" width="4.5" height="8.4" transform="matrix(1 0 -.0935 1 -4.3 -9.15)"/><use xlink:href="#af" width="5.1" height="10.4" transform="matrix(1 0 .0058 1 1.2 -19.25)"/><use xlink:href="#ag" width="5.5" height="10.7" transform="matrix(1.0047 -.0259 -.0918 .9966 -1.95 -18.5)"/><use xlink:href="#ah" width="10.1" height="9.3" transform="matrix(.9998 -.0133 .036 .9994 -3.15 -19.9)"/><use xlink:href="#ai" width="10.8" height="14.8" transform="matrix(1.0063 -.0362 .1571 .987 -4.7 -31.8)"/><use xlink:href="#aj" width="13.5" height="16.3" transform="matrix(.998 -.0379 .0379 .998 -6.9 -46.85)"/><use xlink:href="#ak" width="9.4" height="10.7" transform="matrix(.997 .021 .091 .9031 -8.55 -31.95)"/><use xlink:href="#al" width="4.2" height="6.7" transform="matrix(.9794 .0622 -.1269 .7932 -4.9 -16.05)"/><use xlink:href="#am" width="8.7" height="10" transform="matrix(.9898 -.075 .0215 1.0014 -10.05 -22.95)"/></g></g><g clip-path="url(#ao)"><g transform="translate(88.8 55.3)"><use xlink:href="#Y" width="14.7" height="4.3" transform="matrix(.8 0 0 .8 -5.4 -1.8)"/><use xlink:href="#Z" width="6" height="3.9" transform="matrix(1 0 .0058 1 .9 -3.4)"/><use xlink:href="#aa" width="4.1" height="4.3" transform="matrix(1 0 .0479 1 -5.55 -1.6)"/><use xlink:href="#ab" width="4.5" height="8.4" transform="matrix(.996 -.0886 .0447 1 .65 -10.65)"/><use xlink:href="#ac" width="7.7" height="10" transform="matrix(-.2955 -.7488 .8263 -.1986 4.45 -26.7)"/><use xlink:href="#ad" width="4.8" height="5.5" transform="matrix(.0309 -.9949 1.0862 .1828 9.3 -28.55)"/><use xlink:href="#ae" width="8.1" height="9.6" transform="matrix(-.1917 .8273 .8798 .4017 -.2 -34.7)"/><use xlink:href="#ab" width="4.5" height="8.4" transform="matrix(1 0 -.0935 1 -4.3 -9.15)"/><use xlink:href="#af" width="5.1" height="10.4" transform="matrix(1 0 .0058 1 1.2 -19.25)"/><use xlink:href="#ag" width="5.5" height="10.7" transform="matrix(1.0047 -.0259 -.0918 .9966 -1.95 -18.5)"/><use xlink:href="#ah" width="10.1" height="9.3" transform="matrix(.9998 -.0133 .036 .9994 -3.15 -19.9)"/><use xlink:href="#ai" width="10.8" height="14.8" transform="matrix(1.0063 -.0362 .1571 .987 -4.7 -31.8)"/><use xlink:href="#aj" width="13.5" height="16.3" transform="rotate(.373 7156.245 -952.776)scale(.9986)"/><use xlink:href="#ak" width="9.4" height="10.7" transform="matrix(.9954 .021 -.097 .997 -7.5 -32.15)"/><use xlink:href="#al" width="4.2" height="6.7" transform="matrix(.9747 .0622 -.1873 .7932 -6.2 -15.8)"/><use xlink:href="#am" width="8.7" height="10" transform="matrix(.9955 -.075 -.0547 1.0014 -10.75 -22.7)"/></g></g><g clip-path="url(#ap)"><g transform="translate(124.8 55.3)"><use xlink:href="#Y" width="14.7" height="4.3" transform="matrix(.8 0 0 .8 -5.4 -1.8)"/><use xlink:href="#Z" width="6" height="3.9" transform="matrix(1 0 .0058 1 .9 -3.4)"/><use xlink:href="#aa" width="4.1" height="4.3" transform="matrix(1 0 .0479 1 -5.55 -1.6)"/><use xlink:href="#ab" width="4.5" height="8.4" transform="matrix(.996 -.0886 .0447 1 .65 -10.65)"/><use xlink:href="#ac" width="7.7" height="10" transform="matrix(-.6139 -.5221 .6359 -.5647 6.1 -27.9)"/><use xlink:href="#ad" width="4.8" height="5.5" transform="matrix(-.3947 -.9137 1.1313 -.2329 10.2 -32.55)"/><use xlink:href="#ae" width="8.1" height="9.6" transform="matrix(.2308 .8178 .9481 -.0725 -2.35 -33.15)"/><use xlink:href="#ab" width="4.5" height="8.4" transform="matrix(1 0 -.0935 1 -4.3 -9.15)"/><use xlink:href="#af" width="5.1" height="10.4" transform="matrix(1 0 .0058 1 1.2 -19.25)"/><use xlink:href="#ag" width="5.5" height="10.7" transform="matrix(1.0047 -.0259 -.0918 .9966 -1.95 -18.5)"/><use xlink:href="#ah" width="10.1" height="9.3" transform="matrix(.9998 -.0133 .036 .9994 -3.15 -19.9)"/><use xlink:href="#ai" width="10.8" height="14.8" transform="matrix(1.0022 -.0658 .1743 .9847 -4.9 -31.6)"/><use xlink:href="#aj" width="13.5" height="16.3" transform="rotate(-2.785 -950.766 119.943)scale(.9983)"/><use xlink:href="#ak" width="9.4" height="10.7" transform="matrix(.9928 .07 -.1447 .9906 -7.4 -32.25)"/><use xlink:href="#al" width="4.2" height="6.7" transform="matrix(.9677 .1064 -.2557 .7833 -7.15 -16)"/><use xlink:href="#am" width="8.7" height="10" transform="matrix(1.001 -.0267 -.1447 .997 -11.05 -23.1)"/></g></g><g clip-path="url(#aq)"><g transform="translate(160.8 55.3)"><use xlink:href="#Y" width="14.7" height="4.3" transform="matrix(.8 0 0 .8 -5.4 -1.8)"/><use xlink:href="#Z" width="6" height="3.9" transform="matrix(1 0 .0058 1 .9 -3.4)"/><use xlink:href="#aa" width="4.1" height="4.3" transform="matrix(1 0 .0479 1 -5.55 -1.6)"/><use xlink:href="#ab" width="4.5" height="8.4" transform="matrix(.996 -.0886 .0447 1 .65 -10.65)"/><use xlink:href="#ac" width="7.7" height="10" transform="matrix(-.7375 -.419 .5573 -.723 6.15 -28.8)"/><use xlink:href="#ad" width="4.8" height="5.5" transform="matrix(-.6595 -.7422 1.021 -.6466 9.5 -34.6)"/><use xlink:href="#ae" width="8.1" height="9.6" transform="matrix(.4119 .7812 .9765 -.2856 -3.3 -32.4)"/><use xlink:href="#ab" width="4.5" height="8.4" transform="matrix(1 0 -.0935 1 -4.3 -9.15)"/><use xlink:href="#af" width="5.1" height="10.4" transform="matrix(1 0 .0058 1 1.2 -19.25)"/><use xlink:href="#ag" width="5.5" height="10.7" transform="matrix(1.0047 -.0259 -.0918 .9966 -1.95 -18.5)"/><use xlink:href="#ah" width="10.1" height="9.3" transform="matrix(.9998 -.0133 .036 .9994 -3.15 -19.9)"/><use xlink:href="#ai" width="10.8" height="14.8" transform="matrix(.9977 -.0927 .1921 .9826 -5.05 -31.35)"/><use xlink:href="#aj" width="13.5" height="16.3" transform="rotate(-6.035 -434.108 51.789)scale(.9978)"/><use xlink:href="#ak" width="9.4" height="10.7" transform="matrix(.9875 .1216 -.196 .9814 -7.35 -32.45)"/><use xlink:href="#al" width="4.2" height="6.7" transform="matrix(.9586 .152 -.3268 .7669 -8.05 -16.35)"/><use xlink:href="#am" width="8.7" height="10" transform="matrix(1.0043 .0179 -.2327 .985 -11.35 -23.55)"/></g></g><g clip-path="url(#ar)"><g transform="translate(196.8 55.3)"><use xlink:href="#Y" width="14.7" height="4.3" transform="matrix(.8 0 0 .8 -5.4 -1.8)"/><use xlink:href="#Z" width="6" height="3.9" transform="matrix(1 0 .0058 1 .9 -3.4)"/><use xlink:href="#aa" width="4.1" height="4.3" transform="matrix(1 0 .0479 1 -5.55 -1.6)"/><use xlink:href="#ab" width="4.5" height="8.4" transform="matrix(.996 -.0886 .0447 1 .65 -10.65)"/><use xlink:href="#ac" width="7.7" height="10" transform="matrix(-.8434 -.2909 .4443 -.87 6.25 -30)"/><use xlink:href="#ad" width="4.8" height="5.5" transform="matrix(-.859 -.4971 .7574 -1.0114 8.85 -36.9)"/><use xlink:href="#ae" width="8.1" height="9.6" transform="matrix(.5878 .7044 .9545 -.5147 -3.9 -31.35)"/><use xlink:href="#ab" width="4.5" height="8.4" transform="matrix(1 0 -.0935 1 -4.3 -9.15)"/><use xlink:href="#af" width="5.1" height="10.4" transform="matrix(1 0 .0058 1 1.2 -19.25)"/><use xlink:href="#ag" width="5.5" height="10.7" transform="matrix(1.0047 -.0259 -.0918 .9966 -1.95 -18.5)"/><use xlink:href="#ah" width="10.1" height="9.3" transform="matrix(.9998 -.0133 .036 .9994 -3.15 -19.9)"/><use xlink:href="#ai" width="10.8" height="14.8" transform="matrix(.9921 -.1251 .2137 .9799 -5.35 -31.2)"/><use xlink:href="#aj" width="13.5" height="16.3" transform="rotate(-9.4 -276.222 30.864)scale(.998)"/><use xlink:href="#ak" width="9.4" height="10.7" transform="matrix(.9801 .1724 -.2477 .9701 -7.25 -32.65)"/><use xlink:href="#al" width="4.2" height="6.7" transform="matrix(.948 .1967 -.3984 .7444 -9.05 -16.65)"/><use xlink:href="#am" width="8.7" height="10" transform="matrix(1.0054 .0664 -.323 .9652 -11.7 -23.9)"/></g></g><g clip-path="url(#as)"><g transform="translate(232.8 55.3)"><use xlink:href="#Y" width="14.7" height="4.3" transform="matrix(.8 0 0 .8 -5.4 -1.8)"/><use xlink:href="#Z" width="6" height="3.9" transform="matrix(1 0 .0058 1 .9 -3.4)"/><use xlink:href="#aa" width="4.1" height="4.3" transform="matrix(1 0 .0479 1 -5.55 -1.6)"/><use xlink:href="#ab" width="4.5" height="8.4" transform="matrix(.996 -.0886 .0447 1 .65 -10.65)"/><use xlink:href="#ac" width="7.7" height="10" transform="matrix(-.9264 -.1349 .2922 -.9993 6.5 -31.2)"/><use xlink:href="#ad" width="4.8" height="5.5" transform="matrix(-.9717 -.2023 .3641 -1.2684 8.05 -39.35)"/><use xlink:href="#ae" width="8.1" height="9.6" transform="matrix(.7491 .5875 .8772 -.7461 -4.3 -30.25)"/><use xlink:href="#ab" width="4.5" height="8.4" transform="matrix(1 0 -.0935 1 -4.3 -9.15)"/><use xlink:href="#af" width="5.1" height="10.4" transform="matrix(1 0 .0058 1 1.2 -19.25)"/><use xlink:href="#ag" width="5.5" height="10.7" transform="matrix(1.0047 -.0259 -.0918 .9966 -1.95 -18.5)"/><use xlink:href="#ah" width="10.1" height="9.3" transform="matrix(.9998 -.0133 .036 .9994 -3.15 -19.9)"/><use xlink:href="#ai" width="10.8" height="14.8" transform="matrix(.9812 -.1751 .217 .9948 -5.35 -31.1)"/><use xlink:href="#aj" width="13.5" height="16.3" transform="rotate(-10.064 -257.555 29.684)scale(.9974)"/><use xlink:href="#ak" width="9.4" height="10.7" transform="matrix(.9801 .1724 -.1849 .9812 -7.45 -32.65)"/><use xlink:href="#al" width="4.2" height="6.7" transform="matrix(.9164 .3493 -.5075 .6613 -9.65 -16.85)"/><use xlink:href="#am" width="8.7" height="10" transform="matrix(.993 .2315 -.465 .8895 -11.15 -24.7)"/></g></g><g clip-path="url(#at)"><g transform="translate(268.8 55.3)"><use xlink:href="#Y" width="14.7" height="4.3" transform="matrix(.8 0 0 .8 -5.4 -1.8)"/><use xlink:href="#Z" width="6" height="3.9" transform="matrix(1 0 .0058 1 .9 -3.4)"/><use xlink:href="#aa" width="4.1" height="4.3" transform="matrix(1 0 .0479 1 -5.55 -1.6)"/><use xlink:href="#ab" width="4.5" height="8.4" transform="matrix(.996 -.0886 .0447 1 .65 -10.65)"/><use xlink:href="#ac" width="7.7" height="10" transform="matrix(-.9793 .0387 .107 -1.1003 6.8 -32.65)"/><use xlink:href="#ad" width="4.8" height="5.5" transform="matrix(-.9857 .1125 -.1141 -1.3708 7.15 -42)"/><use xlink:href="#ae" width="8.1" height="9.6" transform="matrix(.8864 .4335 .7401 -.9687 -4.25 -29.05)"/><use xlink:href="#ab" width="4.5" height="8.4" transform="matrix(1 0 -.0935 1 -4.3 -9.15)"/><use xlink:href="#af" width="5.1" height="10.4" transform="matrix(1 0 .0058 1 1.2 -19.25)"/><use xlink:href="#ag" width="5.5" height="10.7" transform="matrix(1.0047 -.0259 -.0918 .9966 -1.95 -18.5)"/><use xlink:href="#ah" width="10.1" height="9.3" transform="matrix(.9998 -.0133 .036 .9994 -3.15 -19.9)"/><use xlink:href="#ai" width="10.8" height="14.8" transform="matrix(.989 -.1313 .1948 .9987 -5.3 -31.4)"/><use xlink:href="#aj" width="13.5" height="16.3" transform="rotate(-11.024 -234.313 27.333)scale(.9973)"/><use xlink:href="#ak" width="9.4" height="10.7" transform="matrix(.9849 .1387 -.1486 .9867 -7.7 -32.55)"/><use xlink:href="#al" width="4.2" height="6.7" transform="matrix(.9392 .3248 -.4629 .6719 -9.1 -16.7)"/><use xlink:href="#am" width="8.7" height="10" transform="matrix(1.0078 .2059 -.4026 .9006 -11.15 -24.45)"/></g></g><g clip-path="url(#au)"><g transform="translate(304.8 55.3)"><use xlink:href="#Y" width="14.7" height="4.3" transform="matrix(.8 0 0 .8 -5.4 -1.8)"/><use xlink:href="#Z" width="6" height="3.9" transform="matrix(1 0 .0058 1 .9 -3.4)"/><use xlink:href="#aa" width="4.1" height="4.3" transform="matrix(1 0 .0479 1 -5.55 -1.6)"/><use xlink:href="#ab" width="4.5" height="8.4" transform="matrix(.996 -.0886 .0447 1 .65 -10.65)"/><use xlink:href="#ac" width="7.7" height="10" transform="matrix(-.9976 .2299 -.1012 -1.1653 7.05 -34.25)"/><use xlink:href="#ad" width="4.8" height="5.5" transform="matrix(-.9001 .4166 -.6178 -1.2909 6.05 -44.8)"/><use xlink:href="#ae" width="8.1" height="9.6" transform="matrix(.9919 .2487 .554 -1.1633 -4.05 -27.85)"/><use xlink:href="#ab" width="4.5" height="8.4" transform="matrix(1 0 -.0935 1 -4.3 -9.15)"/><use xlink:href="#af" width="5.1" height="10.4" transform="matrix(1 0 .0058 1 1.2 -19.25)"/><use xlink:href="#ag" width="5.5" height="10.7" transform="matrix(1.0047 -.0259 -.0918 .9966 -1.95 -18.5)"/><use xlink:href="#ah" width="10.1" height="9.3" transform="matrix(.9998 -.0133 .036 .9994 -3.15 -19.9)"/><use xlink:href="#ai" width="10.8" height="14.8" transform="matrix(.9949 -.092 .1732 1.0026 -5.05 -31.55)"/><use xlink:href="#aj" width="13.5" height="16.3" transform="rotate(-11.913 -216.062 25.655)scale(.9979)"/><use xlink:href="#ak" width="9.4" height="10.7" transform="matrix(.9891 .1045 -.1175 .9909 -7.85 -32.35)"/><use xlink:href="#al" width="4.2" height="6.7" transform="matrix(.9609 .3037 -.4184 .6813 -8.45 -16.5)"/><use xlink:href="#am" width="8.7" height="10" transform="matrix(1.0223 .1813 -.3446 .9073 -11 -24.3)"/></g></g><g clip-path="url(#av)"><g transform="translate(340.8 55.3)"><use xlink:href="#Y" width="14.7" height="4.3" transform="matrix(.8 0 0 .8 -5.4 -1.8)"/><use xlink:href="#Z" width="6" height="3.9" transform="matrix(1 0 .0058 1 .9 -3.4)"/><use xlink:href="#aa" width="4.1" height="4.3" transform="matrix(1 0 .0479 1 -5.55 -1.6)"/><use xlink:href="#ab" width="4.5" height="8.4" transform="matrix(.996 -.0886 .0447 1 .65 -10.65)"/><use xlink:href="#ac" width="7.7" height="10" transform="matrix(-1.0198 .0812 .0666 -1.1671 6.95 -33.95)"/><use xlink:href="#ad" width="4.8" height="5.5" transform="matrix(-.7589 .6444 -.8618 -1.1388 7.45 -45.35)"/><use xlink:href="#ae" width="8.1" height="9.6" transform="matrix(.9005 .3421 .6142 -1.117 -3.85 -28.45)"/><use xlink:href="#ab" width="4.5" height="8.4" transform="matrix(1 0 -.0935 1 -4.3 -9.15)"/><use xlink:href="#af" width="5.1" height="10.4" transform="matrix(1 0 .0058 1 1.2 -19.25)"/><use xlink:href="#ag" width="5.5" height="10.7" transform="matrix(1.0047 -.0259 -.0918 .9966 -1.95 -18.5)"/><use xlink:href="#ah" width="10.1" height="9.3" transform="matrix(.9998 -.0133 .036 .9994 -3.15 -19.9)"/><use xlink:href="#ai" width="10.8" height="14.8" transform="matrix(.9995 -.0523 .1549 1.0061 -4.9 -31.8)"/><use xlink:href="#aj" width="13.5" height="16.3" transform="rotate(-9.041 -286.05 36.248)scale(.9972)"/><use xlink:href="#ak" width="9.4" height="10.7" transform="matrix(.9922 .0725 -.0847 .9945 -7.85 -32.15)"/><use xlink:href="#al" width="4.2" height="6.7" transform="matrix(.9834 .2811 -.3746 .6891 -7.9 -16.4)"/><use xlink:href="#am" width="8.7" height="10" transform="matrix(1.0363 .1592 -.2868 .9116 -10.95 -24.1)"/></g></g><g clip-path="url(#aw)"><g transform="translate(376.8 55.3)"><use xlink:href="#Y" width="14.7" height="4.3" transform="matrix(.8 0 0 .8 -5.4 -1.8)"/><use xlink:href="#Z" width="6" height="3.9" transform="matrix(1 0 .0058 1 .9 -3.4)"/><use xlink:href="#aa" width="4.1" height="4.3" transform="matrix(1 0 .0479 1 -5.55 -1.6)"/><use xlink:href="#ab" width="4.5" height="8.4" transform="matrix(.996 -.0886 .0447 1 .65 -10.65)"/><use xlink:href="#ac" width="7.7" height="10" transform="matrix(-1.0208 -.0627 .2334 -1.1444 6.75 -33.95)"/><use xlink:href="#ad" width="4.8" height="5.5" transform="matrix(-.5643 .8268 -1.0751 -.9388 8.7 -46)"/><use xlink:href="#ae" width="8.1" height="9.6" transform="matrix(.8021 .4188 .6705 -1.0698 -3.55 -29.2)"/><use xlink:href="#ab" width="4.5" height="8.4" transform="matrix(1 0 -.0935 1 -4.3 -9.15)"/><use xlink:href="#af" width="5.1" height="10.4" transform="matrix(1 0 .0058 1 1.2 -19.25)"/><use xlink:href="#ag" width="5.5" height="10.7" transform="matrix(1.0047 -.0259 -.0918 .9966 -1.95 -18.5)"/><use xlink:href="#ah" width="10.1" height="9.3" transform="matrix(.9998 -.0133 .036 .9994 -3.15 -19.9)"/><use xlink:href="#ai" width="10.8" height="14.8" transform="matrix(.9995 -.0491 .1516 1.0061 -4.9 -31.8)"/><use xlink:href="#aj" width="13.5" height="16.3" transform="rotate(-6.281 -415.232 54.908)scale(.9972)"/><use xlink:href="#ak" width="9.4" height="10.7" transform="matrix(.9912 .0701 -.0963 .9947 -7.8 -32.15)"/><use xlink:href="#al" width="4.2" height="6.7" transform="matrix(.9788 .281 -.3827 .6885 -8.1 -16.4)"/><use xlink:href="#am" width="8.7" height="10" transform="matrix(1.0338 .1592 -.2971 .9115 -11.05 -24.05)"/></g></g><g clip-path="url(#ax)"><g transform="translate(412.8 55.3)"><use xlink:href="#Y" width="14.7" height="4.3" transform="matrix(.8 0 0 .8 -5.4 -1.8)"/><use xlink:href="#Z" width="6" height="3.9" transform="matrix(1 0 .0058 1 .9 -3.4)"/><use xlink:href="#aa" width="4.1" height="4.3" transform="matrix(1 0 .0479 1 -5.55 -1.6)"/><use xlink:href="#ab" width="4.5" height="8.4" transform="matrix(.996 -.0886 .0447 1 .65 -10.65)"/><use xlink:href="#ac" width="7.7" height="10" transform="matrix(-1.0007 -.2097 .3967 -1.0989 6.55 -33.95)"/><use xlink:href="#ad" width="4.8" height="5.5" transform="matrix(-.3255 .9539 -1.2427 -.7054 9.75 -46.4)"/><use xlink:href="#ae" width="8.1" height="9.6" transform="matrix(.6996 .4788 .726 -1.0206 -3.25 -29.8)"/><use xlink:href="#ab" width="4.5" height="8.4" transform="matrix(1 0 -.0935 1 -4.3 -9.15)"/><use xlink:href="#af" width="5.1" height="10.4" transform="matrix(1 0 .0058 1 1.2 -19.25)"/><use xlink:href="#ag" width="5.5" height="10.7" transform="matrix(1.0047 -.0259 -.0918 .9966 -1.95 -18.5)"/><use xlink:href="#ah" width="10.1" height="9.3" transform="matrix(.9998 -.0133 .036 .9994 -3.15 -19.9)"/><use xlink:href="#ai" width="10.8" height="14.8" transform="matrix(.9995 -.0491 .1516 1.0061 -4.9 -31.8)"/><use xlink:href="#aj" width="13.5" height="16.3" transform="rotate(-3.581 -732.388 101.972)scale(.9973)"/><use xlink:href="#ak" width="9.4" height="10.7" transform="matrix(.9902 .0701 -.1094 .9949 -7.85 -32.15)"/><use xlink:href="#al" width="4.2" height="6.7" transform="matrix(.9754 .2802 -.3911 .6889 -8.3 -16.4)"/><use xlink:href="#am" width="8.7" height="10" transform="matrix(1.0317 .159 -.3099 .9113 -11.1 -24.1)"/></g></g><g clip-path="url(#ay)"><g transform="translate(448.8 55.3)"><use xlink:href="#Y" width="14.7" height="4.3" transform="matrix(.8 0 0 .8 -5.4 -1.8)"/><use xlink:href="#Z" width="6" height="3.9" transform="matrix(1 0 .0058 1 .9 -3.4)"/><use xlink:href="#aa" width="4.1" height="4.3" transform="matrix(1 0 .0479 1 -5.55 -1.6)"/><use xlink:href="#ab" width="4.5" height="8.4" transform="matrix(.996 -.0886 .0447 1 .65 -10.65)"/><use xlink:href="#ac" width="7.7" height="10" transform="matrix(-.9504 -.4757 .6063 -.9398 6.3 -32.2)"/><use xlink:href="#ad" width="4.8" height="5.5" transform="matrix(-.6418 .8044 -.9383 -1.0207 11.6 -43.15)"/><use xlink:href="#ae" width="8.1" height="9.6" transform="matrix(.5996 .5968 .8608 -.8123 -3.4 -30.7)"/><use xlink:href="#ab" width="4.5" height="8.4" transform="matrix(1 0 -.0935 1 -4.3 -9.15)"/><use xlink:href="#af" width="5.1" height="10.4" transform="matrix(1 0 .0058 1 1.2 -19.25)"/><use xlink:href="#ag" width="5.5" height="10.7" transform="matrix(1.0047 -.0259 -.0918 .9966 -1.95 -18.5)"/><use xlink:href="#ah" width="10.1" height="9.3" transform="matrix(.9998 -.0133 .036 .9994 -3.15 -19.9)"/><use xlink:href="#ai" width="10.8" height="14.8" transform="matrix(.9995 -.0523 .1549 1.0061 -4.9 -31.8)"/><use xlink:href="#aj" width="13.5" height="16.3" transform="rotate(-4.308 -607.505 84.305)scale(.997)"/><use xlink:href="#ak" width="9.4" height="10.7" transform="matrix(.9893 .07 -.1225 .995 -7.75 -32.1)"/><use xlink:href="#al" width="4.2" height="6.7" transform="matrix(.972 .2795 -.3995 .6893 -8.45 -16.4)"/><use xlink:href="#am" width="8.7" height="10" transform="matrix(1.0297 .1587 -.3198 .9121 -11.2 -24.05)"/></g></g><g clip-path="url(#az)"><g transform="translate(484.8 55.3)"><use xlink:href="#Y" width="14.7" height="4.3" transform="matrix(.8 0 0 .8 -5.4 -1.8)"/><use xlink:href="#Z" width="6" height="3.9" transform="matrix(1 0 .0058 1 .9 -3.4)"/><use xlink:href="#aa" width="4.1" height="4.3" transform="matrix(1 0 .0479 1 -5.55 -1.6)"/><use xlink:href="#ab" width="4.5" height="8.4" transform="matrix(.996 -.0886 .0447 1 .65 -10.65)"/><use xlink:href="#ac" width="7.7" height="10" transform="matrix(-.8255 -.7331 .768 -.7452 6 -30.5)"/><use xlink:href="#ad" width="4.8" height="5.5" transform="matrix(-.894 .5544 -.5599 -1.225 13.25 -39.8)"/><use xlink:href="#ae" width="8.1" height="9.6" transform="matrix(.4803 .6959 .9488 -.5894 -3.25 -31.55)"/><use xlink:href="#ab" width="4.5" height="8.4" transform="matrix(1 0 -.0935 1 -4.3 -9.15)"/><use xlink:href="#af" width="5.1" height="10.4" transform="matrix(1 0 .0058 1 1.2 -19.25)"/><use xlink:href="#ag" width="5.5" height="10.7" transform="matrix(1.0047 -.0259 -.0918 .9966 -1.95 -18.5)"/><use xlink:href="#ah" width="10.1" height="9.3" transform="matrix(.9998 -.0133 .036 .9994 -3.15 -19.9)"/><use xlink:href="#ai" width="10.8" height="14.8" transform="matrix(.9963 -.0836 .1651 1.011 -5.05 -31.7)"/><use xlink:href="#aj" width="13.5" height="16.3" transform="rotate(-5.283 -493.481 68.454)scale(.997)"/><use xlink:href="#ak" width="9.4" height="10.7" transform="matrix(.9884 .07 -.1357 .9948 -7.7 -32.1)"/><use xlink:href="#al" width="4.2" height="6.7" transform="matrix(.9685 .2788 -.4102 .6882 -8.6 -16.4)"/><use xlink:href="#am" width="8.7" height="10" transform="matrix(1.0277 .1585 -.3327 .9116 -11.35 -24.05)"/></g></g><g clip-path="url(#aA)"><g transform="translate(520.8 55.3)"><use xlink:href="#Y" width="14.7" height="4.3" transform="matrix(.8 0 0 .8 -5.4 -1.8)"/><use xlink:href="#Z" width="6" height="3.9" transform="matrix(1 0 .0058 1 .9 -3.4)"/><use xlink:href="#aa" width="4.1" height="4.3" transform="matrix(1 0 .0479 1 -5.55 -1.6)"/><use xlink:href="#ab" width="4.5" height="8.4" transform="matrix(.996 -.0886 .0447 1 .65 -10.65)"/><use xlink:href="#ac" width="7.7" height="10" transform="matrix(-.6339 -.9566 .8757 -.5303 5.8 -29)"/><use xlink:href="#ad" width="4.8" height="5.5" transform="matrix(-1.0526 .2248 -.1532 -1.2993 14.7 -36.35)"/><use xlink:href="#ae" width="8.1" height="9.6" transform="matrix(.3477 .7717 .9842 -.3706 -2.85 -32.3)"/><use xlink:href="#ab" width="4.5" height="8.4" transform="matrix(1 0 -.0935 1 -4.3 -9.15)"/><use xlink:href="#af" width="5.1" height="10.4" transform="matrix(1 0 .0058 1 1.2 -19.25)"/><use xlink:href="#ag" width="5.5" height="10.7" transform="matrix(1.0047 -.0259 -.0918 .9966 -1.95 -18.5)"/><use xlink:href="#ah" width="10.1" height="9.3" transform="matrix(.9998 -.0133 .036 .9994 -3.15 -19.9)"/><use xlink:href="#ai" width="10.8" height="14.8" transform="matrix(.9919 -.118 .1755 1.0163 -5.15 -31.55)"/><use xlink:href="#aj" width="13.5" height="16.3" transform="rotate(-6.281 -413.054 56.855)scale(.9972)"/><use xlink:href="#ak" width="9.4" height="10.7" transform="matrix(.9875 .0699 -.1489 .9945 -7.75 -32.15)"/><use xlink:href="#al" width="4.2" height="6.7" transform="matrix(.9651 .2781 -.4187 .6883 -8.8 -16.4)"/><use xlink:href="#am" width="8.7" height="10" transform="matrix(1.0256 .1583 -.3457 .9109 -11.3 -24.1)"/></g></g><g clip-path="url(#aB)"><g transform="translate(556.8 55.3)"><use xlink:href="#Y" width="14.7" height="4.3" transform="matrix(.8 0 0 .8 -5.4 -1.8)"/><use xlink:href="#Z" width="6" height="3.9" transform="matrix(1 0 .0058 1 .9 -3.4)"/><use xlink:href="#aa" width="4.1" height="4.3" transform="matrix(1 0 .0479 1 -5.55 -1.6)"/><use xlink:href="#ab" width="4.5" height="8.4" transform="matrix(.996 -.0886 .0447 1 .65 -10.65)"/><use xlink:href="#ac" width="7.7" height="10" transform="matrix(-.8798 -.6833 .6688 -.8155 5.85 -30.35)"/><use xlink:href="#ad" width="4.8" height="5.5" transform="matrix(-.8591 -.6374 .9538 -.9254 8.8 -38.35)"/><use xlink:href="#ae" width="8.1" height="9.6" transform="matrix(.5641 .6947 .9111 -.6457 -3.45 -31.6)"/><use xlink:href="#ab" width="4.5" height="8.4" transform="matrix(1 0 -.0935 1 -4.3 -9.15)"/><use xlink:href="#af" width="5.1" height="10.4" transform="matrix(1 0 .0058 1 1.2 -19.25)"/><use xlink:href="#ag" width="5.5" height="10.7" transform="matrix(1.0047 -.0259 -.0918 .9966 -1.95 -18.5)"/><use xlink:href="#ah" width="10.1" height="9.3" transform="matrix(.9998 -.0133 .036 .9994 -3.15 -19.9)"/><use xlink:href="#ai" width="10.8" height="14.8" transform="matrix(.9867 -.1528 .1896 1.0214 -5.3 -31.4)"/><use xlink:href="#aj" width="13.5" height="16.3" transform="rotate(-8.044 -320.36 43.578)scale(.997)"/><use xlink:href="#ak" width="9.4" height="10.7" transform="matrix(.9865 .0725 -.1622 .9945 -7.65 -32.15)"/><use xlink:href="#al" width="4.2" height="6.7" transform="matrix(.9615 .2811 -.4283 .6891 -8.9 -16.4)"/><use xlink:href="#am" width="8.7" height="10" transform="matrix(1.0239 .1592 -.3579 .9116 -11.4 -24.1)"/></g></g><g clip-path="url(#aC)"><g transform="translate(592.8 55.3)"><use xlink:href="#Y" width="14.7" height="4.3" transform="matrix(.8 0 0 .8 -5.4 -1.8)"/><use xlink:href="#Z" width="6" height="3.9" transform="matrix(1 0 .0058 1 .9 -3.4)"/><use xlink:href="#aa" width="4.1" height="4.3" transform="matrix(1 0 .0479 1 -5.55 -1.6)"/><use xlink:href="#ab" width="4.5" height="8.4" transform="matrix(.996 -.0886 .0447 1 .65 -10.65)"/><use xlink:href="#ac" width="7.7" height="10" transform="matrix(-1.0235 -.3535 .3689 -1.0235 6.2 -32.2)"/><use xlink:href="#ad" width="4.8" height="5.5" transform="matrix(-.9802 -.3681 .6907 -1.1703 7.15 -40.9)"/><use xlink:href="#ae" width="8.1" height="9.6" transform="matrix(.7632 .557 .7619 -.9054 -3.55 -30.6)"/><use xlink:href="#ab" width="4.5" height="8.4" transform="matrix(1 0 -.0935 1 -4.3 -9.15)"/><use xlink:href="#af" width="5.1" height="10.4" transform="matrix(1 0 .0058 1 1.2 -19.25)"/><use xlink:href="#ag" width="5.5" height="10.7" transform="matrix(1.0047 -.0259 -.0918 .9966 -1.95 -18.5)"/><use xlink:href="#ah" width="10.1" height="9.3" transform="matrix(.9998 -.0133 .036 .9994 -3.15 -19.9)"/><use xlink:href="#ai" width="10.8" height="14.8" transform="matrix(.9919 -.118 .1755 1.0163 -5.15 -31.55)"/><use xlink:href="#aj" width="13.5" height="16.3" transform="rotate(-10.015 -255.177 34.569)scale(.997)"/><use xlink:href="#ak" width="9.4" height="10.7" transform="matrix(.9875 .0699 -.1488 .9945 -7.7 -32.2)"/><use xlink:href="#al" width="4.2" height="6.7" transform="matrix(.9651 .2781 -.4187 .6883 -8.75 -16.4)"/><use xlink:href="#am" width="8.7" height="10" transform="matrix(1.0256 .1583 -.3457 .9109 -11.3 -24.1)"/></g></g><g clip-path="url(#aD)"><g transform="translate(628.8 55.3)"><use xlink:href="#Y" width="14.7" height="4.3" transform="matrix(.8 0 0 .8 -5.4 -1.8)"/><use xlink:href="#Z" width="6" height="3.9" transform="matrix(1 0 .0058 1 .9 -3.4)"/><use xlink:href="#aa" width="4.1" height="4.3" transform="matrix(1 0 .0479 1 -5.55 -1.6)"/><use xlink:href="#ab" width="4.5" height="8.4" transform="matrix(.996 -.0886 .0447 1 .65 -10.65)"/><use xlink:href="#ac" width="7.7" height="10" transform="matrix(-1.052 -.0056 .0098 -1.1216 6.4 -34.55)"/><use xlink:href="#ad" width="4.8" height="5.5" transform="matrix(-1.0227 -.0856 .3614 -1.344 5.25 -43.65)"/><use xlink:href="#ae" width="8.1" height="9.6" transform="matrix(.927 .362 .5345 -1.1304 -3.15 -29.6)"/><use xlink:href="#ab" width="4.5" height="8.4" transform="matrix(1 0 -.0935 1 -4.3 -9.15)"/><use xlink:href="#af" width="5.1" height="10.4" transform="matrix(1 0 .0058 1 1.2 -19.25)"/><use xlink:href="#ag" width="5.5" height="10.7" transform="matrix(1.0047 -.0259 -.0918 .9966 -1.95 -18.5)"/><use xlink:href="#ah" width="10.1" height="9.3" transform="matrix(.9998 -.0133 .036 .9994 -3.15 -19.9)"/><use xlink:href="#ai" width="10.8" height="14.8" transform="matrix(.9963 -.0836 .1651 1.011 -5.05 -31.65)"/><use xlink:href="#aj" width="13.5" height="16.3" transform="rotate(-11.913 -212.718 28.426)scale(.9979)"/><use xlink:href="#ak" width="9.4" height="10.7" transform="matrix(.9884 .07 -.1357 .9948 -7.7 -32.15)"/><use xlink:href="#al" width="4.2" height="6.7" transform="matrix(.9685 .2788 -.4102 .6882 -8.6 -16.4)"/><use xlink:href="#am" width="8.7" height="10" transform="matrix(1.0277 .1585 -.3327 .9116 -11.3 -24.05)"/></g></g><g clip-path="url(#aE)"><g transform="translate(664.8 55.3)"><use xlink:href="#Y" width="14.7" height="4.3" transform="matrix(.8 0 0 .8 -5.4 -1.8)"/><use xlink:href="#Z" width="6" height="3.9" transform="matrix(1 0 .0058 1 .9 -3.4)"/><use xlink:href="#aa" width="4.1" height="4.3" transform="matrix(1 0 .0479 1 -5.55 -1.6)"/><use xlink:href="#ab" width="4.5" height="8.4" transform="matrix(.996 -.0886 .0447 1 .65 -10.65)"/><use xlink:href="#ac" width="7.7" height="10" transform="matrix(-.9691 .3188 -.3743 -1.092 6.45 -37.4)"/><use xlink:href="#ad" width="4.8" height="5.5" transform="matrix(-.9867 .191 -.0054 -1.4249 3.25 -46.35)"/><use xlink:href="#ae" width="8.1" height="9.6" transform="matrix(1.039 .1224 .2441 -1.296 -2.55 -28.65)"/><use xlink:href="#ab" width="4.5" height="8.4" transform="matrix(1 0 -.0935 1 -4.3 -9.15)"/><use xlink:href="#af" width="5.1" height="10.4" transform="matrix(1 0 .0058 1 1.2 -19.25)"/><use xlink:href="#ag" width="5.5" height="10.7" transform="matrix(1.0047 -.0259 -.0918 .9966 -1.95 -18.5)"/><use xlink:href="#ah" width="10.1" height="9.3" transform="matrix(.9998 -.0133 .036 .9994 -3.15 -19.9)"/><use xlink:href="#ai" width="10.8" height="14.8" transform="matrix(.9995 -.0523 .1549 1.0061 -4.9 -31.8)"/><use xlink:href="#aj" width="13.5" height="16.3" transform="matrix(.9848 -.1567 .1567 .9848 -9.6 -44)"/><use xlink:href="#ak" width="9.4" height="10.7" transform="matrix(.9893 .07 -.1225 .995 -7.75 -32.15)"/><use xlink:href="#al" width="4.2" height="6.7" transform="matrix(.972 .2795 -.3995 .6893 -8.45 -16.4)"/><use xlink:href="#am" width="8.7" height="10" transform="matrix(1.0297 .1587 -.3198 .9121 -11.25 -24.1)"/></g></g><g clip-path="url(#aF)"><g transform="translate(700.8 55.3)"><use xlink:href="#Y" width="14.7" height="4.3" transform="matrix(.8 0 0 .8 -5.4 -1.8)"/><use xlink:href="#Z" width="6" height="3.9" transform="matrix(1 0 .0058 1 .9 -3.4)"/><use xlink:href="#aa" width="4.1" height="4.3" transform="matrix(1 0 .0479 1 -5.55 -1.6)"/><use xlink:href="#ab" width="4.5" height="8.4" transform="matrix(.996 -.0886 .0447 1 .65 -10.65)"/><use xlink:href="#ac" width="7.7" height="10" transform="matrix(-1.0474 -.0554 .0638 -1.1216 6.4 -33.55)"/><use xlink:href="#ad" width="4.8" height="5.5" transform="matrix(-1.0096 .2245 -.1625 -1.4212 6.65 -43.4)"/><use xlink:href="#ae" width="8.1" height="9.6" transform="matrix(.9341 .5032 .6125 -1.0365 -3.6 -30.15)"/><use xlink:href="#ab" width="4.5" height="8.4" transform="matrix(1 0 -.0935 1 -4.3 -9.15)"/><use xlink:href="#af" width="5.1" height="10.4" transform="matrix(1 0 .0058 1 1.2 -19.25)"/><use xlink:href="#ag" width="5.5" height="10.7" transform="matrix(1.0047 -.0259 -.0918 .9966 -1.95 -18.5)"/><use xlink:href="#ah" width="10.1" height="9.3" transform="matrix(.9998 -.0133 .036 .9994 -3.15 -19.9)"/><use xlink:href="#ai" width="10.8" height="14.8" transform="matrix(.9995 -.0491 .1516 1.0061 -4.9 -31.8)"/><use xlink:href="#aj" width="13.5" height="16.3" transform="rotate(-6.281 -412.598 56.88)scale(.9972)"/><use xlink:href="#ak" width="9.4" height="10.7" transform="matrix(.9902 .0701 -.1094 .9949 -7.8 -32.2)"/><use xlink:href="#al" width="4.2" height="6.7" transform="matrix(.9754 .2802 -.3911 .689 -8.3 -16.45)"/><use xlink:href="#am" width="8.7" height="10" transform="matrix(1.0317 .159 -.3099 .9113 -11.15 -24.05)"/></g></g><g clip-path="url(#aG)"><g transform="translate(736.8 55.3)"><use xlink:href="#Y" width="14.7" height="4.3" transform="matrix(.8 0 0 .8 -5.4 -1.8)"/><use xlink:href="#Z" width="6" height="3.9" transform="matrix(1 0 .0058 1 .9 -3.4)"/><use xlink:href="#aa" width="4.1" height="4.3" transform="matrix(1 0 .0479 1 -5.55 -1.6)"/><use xlink:href="#ab" width="4.5" height="8.4" transform="matrix(.996 -.0886 .0447 1 .65 -10.65)"/><use xlink:href="#ac" width="7.7" height="10" transform="matrix(-.9811 -.4435 .4671 -.9865 6 -30.45)"/><use xlink:href="#ad" width="4.8" height="5.5" transform="matrix(-1.0312 .2623 -.3184 -1.4004 10.15 -40.35)"/><use xlink:href="#ae" width="8.1" height="9.6" transform="matrix(.6937 .8238 .8433 -.6918 -3.7 -31.85)"/><use xlink:href="#ab" width="4.5" height="8.4" transform="matrix(1 0 -.0935 1 -4.3 -9.15)"/><use xlink:href="#af" width="5.1" height="10.4" transform="matrix(1 0 .0058 1 1.2 -19.25)"/><use xlink:href="#ag" width="5.5" height="10.7" transform="matrix(1.0047 -.0259 -.0918 .9966 -1.95 -18.5)"/><use xlink:href="#ah" width="10.1" height="9.3" transform="matrix(.9998 -.0133 .036 .9994 -3.15 -19.9)"/><use xlink:href="#ai" width="10.8" height="14.8" transform="matrix(.9995 -.0491 .1516 1.0061 -4.9 -31.8)"/><use xlink:href="#aj" width="13.5" height="16.3" transform="rotate(-3.581 -732.388 101.972)scale(.9973)"/><use xlink:href="#ak" width="9.4" height="10.7" transform="matrix(.9912 .0701 -.0963 .9947 -7.85 -32.2)"/><use xlink:href="#al" width="4.2" height="6.7" transform="matrix(.9789 .281 -.3827 .6885 -8.1 -16.45)"/><use xlink:href="#am" width="8.7" height="10" transform="matrix(1.0338 .1592 -.2971 .9115 -11.05 -24.1)"/></g></g><g clip-path="url(#aH)"><g transform="translate(772.8 55.3)"><use xlink:href="#Y" width="14.7" height="4.3" transform="matrix(.8 0 0 .8 -5.4 -1.8)"/><use xlink:href="#Z" width="6" height="3.9" transform="matrix(1 0 .0058 1 .9 -3.4)"/><use xlink:href="#aa" width="4.1" height="4.3" transform="matrix(1 0 .0479 1 -5.55 -1.6)"/><use xlink:href="#ab" width="4.5" height="8.4" transform="matrix(.996 -.0886 .0447 1 .65 -10.65)"/><use xlink:href="#ac" width="7.7" height="10" transform="matrix(-.7726 -.7927 .7851 -.7154 5.75 -28)"/><use xlink:href="#ad" width="4.8" height="5.5" transform="matrix(-1.0527 .3009 -.4772 -1.3622 13.6 -37.45)"/><use xlink:href="#ae" width="8.1" height="9.6" transform="matrix(.3473 1.0385 .9236 -.326 -2.7 -33.15)"/><use xlink:href="#ab" width="4.5" height="8.4" transform="matrix(1 0 -.0935 1 -4.3 -9.15)"/><use xlink:href="#af" width="5.1" height="10.4" transform="matrix(1 0 .0058 1 1.2 -19.25)"/><use xlink:href="#ag" width="5.5" height="10.7" transform="matrix(1.0047 -.0259 -.0918 .9966 -1.95 -18.5)"/><use xlink:href="#ah" width="10.1" height="9.3" transform="matrix(.9998 -.0133 .036 .9994 -3.15 -19.9)"/><use xlink:href="#ai" width="10.8" height="14.8" transform="matrix(.9995 -.0523 .1549 1.0061 -4.9 -31.8)"/><use xlink:href="#aj" width="13.5" height="16.3" transform="rotate(-4.308 -607.505 84.305)scale(.997)"/><use xlink:href="#ak" width="9.4" height="10.7" transform="matrix(.9922 .0725 -.0847 .9945 -7.85 -32.15)"/><use xlink:href="#al" width="4.2" height="6.7" transform="matrix(.9834 .2811 -.3746 .6891 -7.9 -16.4)"/><use xlink:href="#am" width="8.7" height="10" transform="matrix(1.0363 .1592 -.2868 .9116 -11 -24.1)"/></g></g><g clip-path="url(#aI)"><g transform="translate(808.8 55.3)"><use xlink:href="#Y" width="14.7" height="4.3" transform="matrix(.8 0 0 .8 -5.4 -1.8)"/><use xlink:href="#Z" width="6" height="3.9" transform="matrix(1 0 .0058 1 .9 -3.4)"/><use xlink:href="#aa" width="4.1" height="4.3" transform="matrix(1 0 .0479 1 -5.55 -1.6)"/><use xlink:href="#ab" width="4.5" height="8.4" transform="matrix(.996 -.0886 .0447 1 .65 -10.65)"/><use xlink:href="#ac" width="7.7" height="10" transform="matrix(-.7258 -.8472 .7999 -.6805 5.75 -29.25)"/><use xlink:href="#ad" width="4.8" height="5.5" transform="matrix(-1.0728 -.2735 .2994 -1.3746 13.15 -36.55)"/><use xlink:href="#ae" width="8.1" height="9.6" transform="matrix(.4755 .8908 .8843 -.4971 -2.7 -32.2)"/><use xlink:href="#ab" width="4.5" height="8.4" transform="matrix(1 0 -.0935 1 -4.3 -9.15)"/><use xlink:href="#af" width="5.1" height="10.4" transform="matrix(1 0 .0058 1 1.2 -19.25)"/><use xlink:href="#ag" width="5.5" height="10.7" transform="matrix(1.0047 -.0259 -.0918 .9966 -1.95 -18.5)"/><use xlink:href="#ah" width="10.1" height="9.3" transform="matrix(.9998 -.0133 .036 .9994 -3.15 -19.9)"/><use xlink:href="#ai" width="10.8" height="14.8" transform="matrix(.9963 -.0836 .1651 1.011 -5.1 -31.7)"/><use xlink:href="#aj" width="13.5" height="16.3" transform="rotate(-5.283 -493.481 68.454)scale(.997)"/><use xlink:href="#ak" width="9.4" height="10.7" transform="matrix(.9901 .0788 -.0701 .9975 -7.85 -32.25)"/><use xlink:href="#al" width="4.2" height="6.7" transform="matrix(.9819 .2736 -.3696 .6925 -7.8 -16.45)"/><use xlink:href="#am" width="8.7" height="10" transform="matrix(1.034 .1547 -.2809 .9153 -10.9 -24.2)"/></g></g><g clip-path="url(#aJ)"><g transform="translate(844.8 55.3)"><use xlink:href="#Y" width="14.7" height="4.3" transform="matrix(.8 0 0 .8 -5.4 -1.8)"/><use xlink:href="#Z" width="6" height="3.9" transform="matrix(1 0 .0058 1 .9 -3.4)"/><use xlink:href="#aa" width="4.1" height="4.3" transform="matrix(1 0 .0479 1 -5.55 -1.6)"/><use xlink:href="#ab" width="4.5" height="8.4" transform="matrix(.996 -.0886 .0447 1 .65 -10.65)"/><use xlink:href="#ac" width="7.7" height="10" transform="matrix(-.675 -.9015 .8127 -.649 5.75 -30.3)"/><use xlink:href="#ad" width="4.8" height="5.5" transform="matrix(-.7935 -.7894 .9534 -.9837 12.25 -36.3)"/><use xlink:href="#ae" width="8.1" height="9.6" transform="matrix(.5682 .7309 .8121 -.6663 -2.4 -31.1)"/><use xlink:href="#ab" width="4.5" height="8.4" transform="matrix(1 0 -.0935 1 -4.3 -9.15)"/><use xlink:href="#af" width="5.1" height="10.4" transform="matrix(1 0 .0058 1 1.2 -19.25)"/><use xlink:href="#ag" width="5.5" height="10.7" transform="matrix(1.0047 -.0259 -.0918 .9966 -1.95 -18.5)"/><use xlink:href="#ah" width="10.1" height="9.3" transform="matrix(.9998 -.0133 .036 .9994 -3.15 -19.9)"/><use xlink:href="#ai" width="10.8" height="14.8" transform="matrix(.9919 -.118 .1755 1.0163 -5.2 -31.55)"/><use xlink:href="#aj" width="13.5" height="16.3" transform="rotate(-6.281 -413.054 56.855)scale(.9972)"/><use xlink:href="#ak" width="9.4" height="10.7" transform="matrix(.9879 .0873 -.0568 1.0005 -7.95 -32.4)"/><use xlink:href="#al" width="4.2" height="6.7" transform="matrix(.9798 .272 -.3672 .6957 -7.6 -16.55)"/><use xlink:href="#am" width="8.7" height="10" transform="matrix(1.0321 .1499 -.2776 .9192 -10.7 -24.25)"/></g></g><g clip-path="url(#aK)"><g transform="translate(880.8 55.3)"><use xlink:href="#Y" width="14.7" height="4.3" transform="matrix(.8 0 0 .8 -5.4 -1.8)"/><use xlink:href="#Z" width="6" height="3.9" transform="matrix(1 0 .0058 1 .9 -3.4)"/><use xlink:href="#aa" width="4.1" height="4.3" transform="matrix(1 0 .0479 1 -5.55 -1.6)"/><use xlink:href="#ab" width="4.5" height="8.4" transform="matrix(.996 -.0886 .0447 1 .65 -10.65)"/><use xlink:href="#ac" width="7.7" height="10" transform="matrix(-.621 -.9542 .8261 -.6177 5.75 -31.5)"/><use xlink:href="#ad" width="4.8" height="5.5" transform="matrix(-.2905 -1.0964 1.2953 -.3297 11.1 -36.55)"/><use xlink:href="#ae" width="8.1" height="9.6" transform="matrix(.6228 .5687 .7083 -.8266 -1.8 -30.1)"/><use xlink:href="#ab" width="4.5" height="8.4" transform="matrix(1 0 -.0935 1 -4.3 -9.15)"/><use xlink:href="#af" width="5.1" height="10.4" transform="matrix(1 0 .0058 1 1.2 -19.25)"/><use xlink:href="#ag" width="5.5" height="10.7" transform="matrix(1.0047 -.0259 -.0918 .9966 -1.95 -18.5)"/><use xlink:href="#ah" width="10.1" height="9.3" transform="matrix(.9998 -.0133 .036 .9994 -3.15 -19.9)"/><use xlink:href="#ai" width="10.8" height="14.8" transform="matrix(.9867 -.1528 .1896 1.0214 -5.4 -31.4)"/><use xlink:href="#aj" width="13.5" height="16.3" transform="rotate(-8.044 -320.36 43.578)scale(.997)"/><use xlink:href="#ak" width="9.4" height="10.7" transform="matrix(.9857 .0959 -.0403 1.0034 -7.95 -32.55)"/><use xlink:href="#al" width="4.2" height="6.7" transform="matrix(.9785 .2672 -.3648 .699 -7.5 -16.7)"/><use xlink:href="#am" width="8.7" height="10" transform="matrix(1.0303 .1452 -.2743 .9231 -10.6 -24.3)"/></g></g><g clip-path="url(#aL)"><g transform="translate(916.8 55.3)"><use xlink:href="#Y" width="14.7" height="4.3" transform="matrix(.8 0 0 .8 -5.4 -1.8)"/><use xlink:href="#Z" width="6" height="3.9" transform="matrix(1 0 .0058 1 .9 -3.4)"/><use xlink:href="#aa" width="4.1" height="4.3" transform="matrix(1 0 .0479 1 -5.55 -1.6)"/><use xlink:href="#ab" width="4.5" height="8.4" transform="matrix(.996 -.0886 .0447 1 .65 -10.65)"/><use xlink:href="#ac" width="7.7" height="10" transform="matrix(-.8288 -.743 .6611 -.8213 6 -32.2)"/><use xlink:href="#ad" width="4.8" height="5.5" transform="matrix(-.4985 -.986 1.2253 -.5732 9.3 -38.2)"/><use xlink:href="#ae" width="8.1" height="9.6" transform="matrix(.6745 .5053 .6431 -.9326 -2.05 -29.85)"/><use xlink:href="#ab" width="4.5" height="8.4" transform="matrix(1 0 -.0935 1 -4.3 -9.15)"/><use xlink:href="#af" width="5.1" height="10.4" transform="matrix(1 0 .0058 1 1.2 -19.25)"/><use xlink:href="#ag" width="5.5" height="10.7" transform="matrix(1.0047 -.0259 -.0918 .9966 -1.95 -18.5)"/><use xlink:href="#ah" width="10.1" height="9.3" transform="matrix(.9998 -.0133 .036 .9994 -3.15 -19.9)"/><use xlink:href="#ai" width="10.8" height="14.8" transform="matrix(.9944 -.1136 .1782 1.0095 -5.1 -31.6)"/><use xlink:href="#aj" width="13.5" height="16.3" transform="rotate(-10.015 -255.177 34.569)scale(.997)"/><use xlink:href="#ak" width="9.4" height="10.7" transform="matrix(.9834 .1044 -.027 1.006 -7.9 -32.65)"/><use xlink:href="#al" width="4.2" height="6.7" transform="matrix(.9772 .2623 -.3623 .7022 -7.45 -16.8)"/><use xlink:href="#am" width="8.7" height="10" transform="matrix(1.0284 .1406 -.2709 .9269 -10.45 -24.45)"/></g></g><g clip-path="url(#aM)"><g transform="translate(952.8 55.3)"><use xlink:href="#Y" width="14.7" height="4.3" transform="matrix(.8 0 0 .8 -5.4 -1.8)"/><use xlink:href="#Z" width="6" height="3.9" transform="matrix(1 0 .0058 1 .9 -3.4)"/><use xlink:href="#aa" width="4.1" height="4.3" transform="matrix(1 0 .0479 1 -5.55 -1.6)"/><use xlink:href="#ab" width="4.5" height="8.4" transform="matrix(.996 -.0886 .0447 1 .65 -10.65)"/><use xlink:href="#ac" width="7.7" height="10" transform="matrix(-.9725 -.4917 .4443 -.9836 6.2 -33)"/><use xlink:href="#ad" width="4.8" height="5.5" transform="matrix(-.6756 -.8382 1.1076 -.8068 7.6 -40)"/><use xlink:href="#ae" width="8.1" height="9.6" transform="matrix(.7207 .4383 .5639 -1.0354 -2 -29.55)"/><use xlink:href="#ab" width="4.5" height="8.4" transform="matrix(1 0 -.0935 1 -4.3 -9.15)"/><use xlink:href="#af" width="5.1" height="10.4" transform="matrix(1 0 .0058 1 1.2 -19.25)"/><use xlink:href="#ag" width="5.5" height="10.7" transform="matrix(1.0047 -.0259 -.0918 .9966 -1.95 -18.5)"/><use xlink:href="#ah" width="10.1" height="9.3" transform="matrix(.9998 -.0133 .036 .9994 -3.15 -19.9)"/><use xlink:href="#ai" width="10.8" height="14.8" transform="matrix(1.0011 -.0747 .1673 .9981 -4.95 -31.7)"/><use xlink:href="#aj" width="13.5" height="16.3" transform="rotate(-11.913 -212.718 28.426)scale(.9979)"/><use xlink:href="#ak" width="9.4" height="10.7" transform="matrix(.981 .1159 -.0146 1.0085 -7.9 -32.8)"/><use xlink:href="#al" width="4.2" height="6.7" transform="matrix(.9764 .2587 -.3592 .7069 -7.25 -16.9)"/><use xlink:href="#am" width="8.7" height="10" transform="matrix(1.0266 .1378 -.2684 .9313 -10.3 -24.55)"/></g></g><g clip-path="url(#aN)"><g transform="translate(988.8 55.3)"><use xlink:href="#Y" width="14.7" height="4.3" transform="matrix(.8 0 0 .8 -5.4 -1.8)"/><use xlink:href="#Z" width="6" height="3.9" transform="matrix(1 0 .0058 1 .9 -3.4)"/><use xlink:href="#aa" width="4.1" height="4.3" transform="matrix(1 0 .0479 1 -5.55 -1.6)"/><use xlink:href="#ab" width="4.5" height="8.4" transform="matrix(.996 -.0886 .0447 1 .65 -10.65)"/><use xlink:href="#ac" width="7.7" height="10" transform="matrix(-1.0443 -.2178 .188 -1.0885 6.5 -34.2)"/><use xlink:href="#ad" width="4.8" height="5.5" transform="matrix(-.814 -.6611 .9487 -1.0133 5.65 -41.8)"/><use xlink:href="#ae" width="8.1" height="9.6" transform="matrix(.7616 .3647 .4701 -1.1315 -2 -29.4)"/><use xlink:href="#ab" width="4.5" height="8.4" transform="matrix(1 0 -.0935 1 -4.3 -9.15)"/><use xlink:href="#af" width="5.1" height="10.4" transform="matrix(1 0 .0058 1 1.2 -19.25)"/><use xlink:href="#ag" width="5.5" height="10.7" transform="matrix(1.0047 -.0259 -.0918 .9966 -1.95 -18.5)"/><use xlink:href="#ah" width="10.1" height="9.3" transform="matrix(.9998 -.0133 .036 .9994 -3.15 -19.9)"/><use xlink:href="#ai" width="10.8" height="14.8" transform="matrix(1.0063 -.0362 .1571 .987 -4.7 -31.8)"/><use xlink:href="#aj" width="13.5" height="16.3" transform="rotate(-9.311 -276.156 36.536)scale(.9975)"/><use xlink:href="#ak" width="9.4" height="10.7" transform="matrix(.9857 .091 .0132 .9832 -8.1 -32.5)"/><use xlink:href="#al" width="4.2" height="6.7" transform="matrix(.9803 .2087 -.302 .735 -6.6 -16.65)"/><use xlink:href="#am" width="8.7" height="10" transform="matrix(1.0216 .0811 -.1959 .9569 -10.3 -24.15)"/></g></g><g clip-path="url(#aO)"><g transform="translate(1024.8 55.3)"><use xlink:href="#Y" width="14.7" height="4.3" transform="matrix(.8 0 0 .8 -5.4 -1.8)"/><use xlink:href="#Z" width="6" height="3.9" transform="matrix(1 0 .0058 1 .9 -3.4)"/><use xlink:href="#aa" width="4.1" height="4.3" transform="matrix(1 0 .0479 1 -5.55 -1.6)"/><use xlink:href="#ab" width="4.5" height="8.4" transform="matrix(.996 -.0886 .0447 1 .65 -10.65)"/><use xlink:href="#ac" width="7.7" height="10" transform="matrix(-1.0422 .0555 -.0849 -1.1263 6.45 -35.7)"/><use xlink:href="#ad" width="4.8" height="5.5" transform="matrix(-.911 -.4612 .7474 -1.191 3.9 -43.75)"/><use xlink:href="#ae" width="8.1" height="9.6" transform="matrix(.794 .2899 .3623 -1.2189 -1.9 -29.1)"/><use xlink:href="#ab" width="4.5" height="8.4" transform="matrix(1 0 -.0935 1 -4.3 -9.15)"/><use xlink:href="#af" width="5.1" height="10.4" transform="matrix(1 0 .0058 1 1.2 -19.25)"/><use xlink:href="#ag" width="5.5" height="10.7" transform="matrix(1.0047 -.0259 -.0918 .9966 -1.95 -18.5)"/><use xlink:href="#ah" width="10.1" height="9.3" transform="matrix(.9998 -.0133 .036 .9994 -3.15 -19.9)"/><use xlink:href="#ai" width="10.8" height="14.8" transform="matrix(1.0063 -.0362 .1571 .987 -4.7 -31.8)"/><use xlink:href="#aj" width="13.5" height="16.3" transform="rotate(-7.011 -372.43 48.051)scale(.9979)"/><use xlink:href="#ak" width="9.4" height="10.7" transform="matrix(.9901 .0659 .0385 .9572 -8.2 -32.4)"/><use xlink:href="#al" width="4.2" height="6.7" transform="matrix(.9828 .1568 -.2467 .7582 -6 -16.4)"/><use xlink:href="#am" width="8.7" height="10" transform="matrix(1.0138 .0272 -.1251 .9771 -10.2 -23.65)"/></g></g><g clip-path="url(#aP)"><g transform="translate(1060.8 55.3)"><use xlink:href="#Y" width="14.7" height="4.3" transform="matrix(.8 0 0 .8 -5.4 -1.8)"/><use xlink:href="#Z" width="6" height="3.9" transform="matrix(1 0 .0058 1 .9 -3.4)"/><use xlink:href="#aa" width="4.1" height="4.3" transform="matrix(1 0 .0479 1 -5.55 -1.6)"/><use xlink:href="#ab" width="4.5" height="8.4" transform="matrix(.996 -.0886 .0447 1 .65 -10.65)"/><use xlink:href="#ac" width="7.7" height="10" transform="matrix(-.9691 .3188 -.3743 -1.092 6.45 -37.4)"/><use xlink:href="#ad" width="4.8" height="5.5" transform="matrix(-.9608 -.2567 .5196 -1.3281 2 -45.75)"/><use xlink:href="#ae" width="8.1" height="9.6" transform="matrix(.8195 .2135 .2441 -1.296 -1.7 -29)"/><use xlink:href="#ab" width="4.5" height="8.4" transform="matrix(1 0 -.0935 1 -4.3 -9.15)"/><use xlink:href="#af" width="5.1" height="10.4" transform="matrix(1 0 .0058 1 1.2 -19.25)"/><use xlink:href="#ag" width="5.5" height="10.7" transform="matrix(1.0047 -.0259 -.0918 .9966 -1.95 -18.5)"/><use xlink:href="#ah" width="10.1" height="9.3" transform="matrix(.9998 -.0133 .036 .9994 -3.15 -19.9)"/><use xlink:href="#ai" width="10.8" height="14.8" transform="matrix(1.0063 -.0362 .1571 .987 -4.7 -31.8)"/><use xlink:href="#aj" width="13.5" height="16.3" transform="rotate(-4.527 -585.156 76.321)scale(.9983)"/><use xlink:href="#ak" width="9.4" height="10.7" transform="matrix(.9938 .0438 .0655 .9304 -8.4 -32.15)"/><use xlink:href="#al" width="4.2" height="6.7" transform="matrix(.9823 .1084 -.1871 .7779 -5.5 -16.3)"/><use xlink:href="#am" width="8.7" height="10" transform="matrix(1.0031 -.0223 -.0524 .992 -10.1 -23.4)"/></g></g><g clip-path="url(#aQ)"><g transform="translate(1096.8 55.3)"><use xlink:href="#Y" width="14.7" height="4.3" transform="matrix(.8 0 0 .8 -5.4 -1.8)"/><use xlink:href="#Z" width="6" height="3.9" transform="matrix(1 0 .0058 1 .9 -3.4)"/><use xlink:href="#aa" width="4.1" height="4.3" transform="matrix(1 0 .0479 1 -5.55 -1.6)"/><use xlink:href="#ab" width="4.5" height="8.4" transform="matrix(.996 -.0886 .0447 1 .65 -10.65)"/><use xlink:href="#ac" width="7.7" height="10" transform="matrix(-.7726 -.7927 .5829 -.5887 6.4 -29.35)"/><use xlink:href="#ad" width="4.8" height="5.5" transform="matrix(-.9767 .5177 -.425 -1.2122 12.6 -38)"/><use xlink:href="#ae" width="8.1" height="9.6" transform="matrix(.4111 .7402 .8487 -.49 -2.65 -31.15)"/><use xlink:href="#ab" width="4.5" height="8.4" transform="matrix(1 0 -.0935 1 -4.3 -9.15)"/><use xlink:href="#af" width="5.1" height="10.4" transform="matrix(1 0 .0058 1 1.2 -19.25)"/><use xlink:href="#ag" width="5.5" height="10.7" transform="matrix(1.0047 -.0259 -.0918 .9966 -1.95 -18.5)"/><use xlink:href="#ah" width="10.1" height="9.3" transform="matrix(.9998 -.0133 .036 .9994 -3.15 -19.9)"/><use xlink:href="#ai" width="10.8" height="14.8" transform="matrix(1.0063 -.0362 .1571 .987 -4.7 -31.8)"/><use xlink:href="#aj" width="13.5" height="16.3" transform="matrix(.998 -.0379 .0379 .998 -6.9 -46.85)"/><use xlink:href="#ak" width="9.4" height="10.7" transform="matrix(.997 .021 .091 .9031 -8.55 -31.95)"/><use xlink:href="#al" width="4.2" height="6.7" transform="matrix(.9794 .0622 -.1269 .7932 -4.9 -16.05)"/><use xlink:href="#am" width="8.7" height="10" transform="matrix(.9898 -.075 .0215 1.0014 -10.05 -22.95)"/></g></g><g clip-path="url(#aR)"><g transform="translate(1132.8 55.3)"><use xlink:href="#Y" width="14.7" height="4.3" transform="matrix(.8 0 0 .8 -5.4 -1.8)"/><use xlink:href="#Z" width="6" height="3.9" transform="matrix(1 0 .0058 1 .9 -3.4)"/><use xlink:href="#aa" width="4.1" height="4.3" transform="matrix(1 0 .0479 1 -5.55 -1.6)"/><use xlink:href="#ab" width="4.5" height="8.4" transform="matrix(.996 -.0886 .0447 1 .65 -10.65)"/><use xlink:href="#ac" width="7.7" height="10" transform="matrix(-.7726 -.7927 .5829 -.5887 6.4 -29.35)"/><use xlink:href="#ad" width="4.8" height="5.5" transform="matrix(-.9767 .5177 -.425 -1.2122 12.6 -38)"/><use xlink:href="#ae" width="8.1" height="9.6" transform="matrix(.4111 .7402 .8487 -.49 -2.65 -31.15)"/><use xlink:href="#ab" width="4.5" height="8.4" transform="matrix(1 0 -.0935 1 -4.3 -9.15)"/><use xlink:href="#af" width="5.1" height="10.4" transform="matrix(1 0 .0058 1 1.2 -19.25)"/><use xlink:href="#ag" width="5.5" height="10.7" transform="matrix(1.0047 -.0259 -.0918 .9966 -1.95 -18.5)"/><use xlink:href="#ah" width="10.1" height="9.3" transform="matrix(.9998 -.0133 .036 .9994 -3.15 -19.9)"/><use xlink:href="#ai" width="10.8" height="14.8" transform="matrix(1.0063 -.0362 .1571 .987 -4.7 -31.8)"/><use xlink:href="#aj" width="13.5" height="16.3" transform="matrix(.998 -.0379 .0379 .998 -6.9 -46.85)"/><use xlink:href="#ak" width="9.4" height="10.7" transform="matrix(.997 .021 .091 .9031 -8.55 -31.95)"/><use xlink:href="#al" width="4.2" height="6.7" transform="matrix(.9794 .0622 -.1269 .7932 -4.9 -16.05)"/><use xlink:href="#am" width="8.7" height="10" transform="matrix(.9898 -.075 .0215 1.0014 -10.05 -22.95)"/></g></g><g clip-path="url(#aS)"><g transform="translate(1168.8 55.3)"><use xlink:href="#Y" width="14.7" height="4.3" transform="matrix(.8 0 0 .8 -5.4 -1.8)"/><use xlink:href="#Z" width="6" height="3.9" transform="matrix(1 0 .0058 1 .9 -3.4)"/><use xlink:href="#aa" width="4.1" height="4.3" transform="matrix(1 0 .0479 1 -5.55 -1.6)"/><use xlink:href="#ab" width="4.5" height="8.4" transform="matrix(.996 -.0886 .0447 1 .65 -10.65)"/><use xlink:href="#ac" width="7.7" height="10" transform="matrix(.8438 -.775 .5311 .5008 1.6 -26.8)"/><use xlink:href="#ad" width="4.8" height="5.5" transform="matrix(-.0827 -1.0678 .9301 -.2208 9.2 -21.7)"/><use xlink:href="#ae" width="8.1" height="9.6" transform="matrix(-.6268 .5669 .5654 .8074 3.25 -36.2)"/><use xlink:href="#ab" width="4.5" height="8.4" transform="matrix(1 0 -.0935 1 -4.3 -9.15)"/><use xlink:href="#af" width="5.1" height="10.4" transform="matrix(1 0 .0058 1 1.2 -19.25)"/><use xlink:href="#ag" width="5.5" height="10.7" transform="matrix(1.0047 -.0259 -.0918 .9966 -1.95 -18.5)"/><use xlink:href="#ah" width="10.1" height="9.3" transform="matrix(.9998 -.0133 .036 .9994 -3.15 -19.9)"/><use xlink:href="#ai" width="10.8" height="14.8" transform="matrix(1.0063 -.0362 .1571 .987 -4.7 -31.8)"/><use xlink:href="#aj" width="13.5" height="16.3" transform="matrix(.998 -.0379 .0379 .998 -6.9 -46.85)"/><use xlink:href="#ak" width="9.4" height="10.7" transform="matrix(.997 .021 .091 .9031 -8.55 -31.95)"/><use xlink:href="#al" width="4.2" height="6.7" transform="matrix(.9794 .0622 -.1269 .7932 -4.9 -16.05)"/><use xlink:href="#am" width="8.7" height="10" transform="matrix(.9898 -.075 .0215 1.0014 -10.05 -22.95)"/></g></g><g clip-path="url(#aT)"><g transform="translate(1204.8 55.3)"><use xlink:href="#Y" width="14.7" height="4.3" transform="matrix(.8 0 0 .8 -5.4 -1.8)"/><use xlink:href="#Z" width="6" height="3.9" transform="matrix(1 0 .0058 1 .9 -3.4)"/><use xlink:href="#aa" width="4.1" height="4.3" transform="matrix(1 0 .0479 1 -5.55 -1.6)"/><use xlink:href="#ab" width="4.5" height="8.4" transform="matrix(.996 -.0886 .0447 1 .65 -10.65)"/><use xlink:href="#ac" width="7.7" height="10" transform="matrix(.7903 -.1676 .0589 .8505 3 -26.5)"/><use xlink:href="#ad" width="4.8" height="5.5" transform="matrix(.9979 -.0002 .0002 .9979 2.9 -18.55)"/><use xlink:href="#ae" width="8.1" height="9.6" transform="matrix(-.8033 .2776 .134 .9944 5.8 -34.15)"/><use xlink:href="#ab" width="4.5" height="8.4" transform="matrix(1 0 -.0935 1 -4.3 -9.15)"/><use xlink:href="#af" width="5.1" height="10.4" transform="matrix(1 0 .0058 1 1.2 -19.25)"/><use xlink:href="#ag" width="5.5" height="10.7" transform="matrix(1.0047 -.0259 -.0918 .9966 -1.95 -18.5)"/><use xlink:href="#ah" width="10.1" height="9.3" transform="matrix(.9998 -.0133 .036 .9994 -3.15 -19.9)"/><use xlink:href="#ai" width="10.8" height="14.8" transform="matrix(1.0063 -.0362 .1571 .987 -4.7 -31.8)"/><use xlink:href="#aj" width="13.5" height="16.3" transform="matrix(.998 -.0379 .0379 .998 -6.9 -46.85)"/><use xlink:href="#ak" width="9.4" height="10.7" transform="matrix(.997 .021 .091 .9031 -8.55 -31.95)"/><use xlink:href="#al" width="4.2" height="6.7" transform="matrix(.9794 .0622 -.1269 .7932 -4.9 -16.05)"/><use xlink:href="#am" width="8.7" height="10" transform="matrix(.9898 -.075 .0215 1.0014 -10.05 -22.95)"/></g></g></svg>