<svg xmlns="http://www.w3.org/2000/svg" xmlns:xlink="http://www.w3.org/1999/xlink" width="1831" height="97" viewBox="0 0 1831 97"><defs><clipPath id="D"><path d="M1 1h60v95H1z"/></clipPath><clipPath id="G"><path d="M62 1h60v95H62z"/></clipPath><clipPath id="H"><path d="M123 1h60v95h-60z"/></clipPath><clipPath id="I"><path d="M184 1h60v95h-60z"/></clipPath><clipPath id="J"><path d="M245 1h60v95h-60z"/></clipPath><clipPath id="K"><path d="M306 1h60v95h-60z"/></clipPath><clipPath id="L"><path d="M367 1h60v95h-60z"/></clipPath><clipPath id="Y"><path d="M428 1h60v95h-60z"/></clipPath><clipPath id="Z"><path d="M489 1h60v95h-60z"/></clipPath><clipPath id="aa"><path d="M550 1h60v95h-60z"/></clipPath><clipPath id="ac"><path d="M611 1h60v95h-60z"/></clipPath><clipPath id="ad"><path d="M672 1h60v95h-60z"/></clipPath><clipPath id="af"><path d="M733 1h60v95h-60z"/></clipPath><clipPath id="ah"><path d="M794 1h60v95h-60z"/></clipPath><clipPath id="aj"><path d="M855 1h60v95h-60z"/></clipPath><clipPath id="al"><path d="M916 1h60v95h-60z"/></clipPath><clipPath id="an"><path d="M977 1h60v95h-60z"/></clipPath><clipPath id="ap"><path d="M1038 1h60v95h-60z"/></clipPath><clipPath id="ar"><path d="M1099 1h60v95h-60z"/></clipPath><clipPath id="as"><path d="M1160 1h60v95h-60z"/></clipPath><clipPath id="at"><path d="M1221 1h60v95h-60z"/></clipPath><clipPath id="au"><path d="M1282 1h60v95h-60z"/></clipPath><clipPath id="av"><path d="M1343 1h60v95h-60z"/></clipPath><clipPath id="aw"><path d="M1404 1h60v95h-60z"/></clipPath><clipPath id="ax"><path d="M1465 1h60v95h-60z"/></clipPath><clipPath id="ay"><path d="M1526 1h60v95h-60z"/></clipPath><clipPath id="az"><path d="M1587 1h60v95h-60z"/></clipPath><clipPath id="aA"><path d="M1648 1h60v95h-60z"/></clipPath><clipPath id="aB"><path d="M1709 1h60v95h-60z"/></clipPath><clipPath id="aC"><path d="M1770 1h60v95h-60z"/></clipPath><g id="p"><path fill="#d3a401" d="M2.5 52.9Q2 25.6 0 0q4.1 36.8 5.9 73.6l-.3.4q-3-7.7-3.2-21.1"/><path fill="#fff5d5" d="M4.7 63 4 62l-.3-.7q0-6.7 1.5-13 .5-2 .4-4.3 1.9-6.6 4.8-11.4l.7-1.3q.9.2 1.7.6l.2.4q-1.5-.2-2.2 1.5l-.5 5.9-.3.2q-1-1.2-2.4 4l-1 3.8-1 5.4zm2-15.3.9-3.8q.7-1.6 2-2.1l1.2 1.3-1 2.9-.1.8q.1 9.6-.3 19.1l-.3 1.5-.4 1.6q-1.4 2.2-2.9-.2-1-10.6.8-21.1"/><path fill="#d3a401" d="M10.4 39.7q.4-.2 1 1l-.7 2.3-1.1-1.3q-1.3.5-2 2.2 1.5-5.2 2.5-4zM13 78.9l-.5.7q-1 1.6-2.4 1.4h-.7q-1.1 0-2-1.4l-2.8-4.4q-1-1.6-1.1-4-.1-2.5.7-4.4l.4-3.8.9-10 1-5.4Q5 58.2 6 68.9q1.5 2.4 2.9.2l.3-1.6.3-1.5v1q-.2 1.5-.1 3.1l3.7 7.5zm-3-39q-.4.4-.6 1.3.2-.9.5-1.3"/><path fill="#fc0" d="M11.5 40.8q1.2 2.7 3.1 12.3l1.3 13.6q.7 2 .6 4.4t-1 4.1l-2.3 3.7-.2-1.4L9.3 70v-3.1l.1-1q.4-9.5.3-19.1l.2-.8.9-3z"/><path fill="#836501" d="M10 81h-.4z"/><path fill="none" stroke="#c90" stroke-linecap="round" stroke-linejoin="round" stroke-width="__RESOLUTION__" d="M10.4 39.7q.4-.2 1 1 1.3 2.7 3.2 12.3l1.3 13.7q.7 2 .6 4.4t-1 4.1l-2.3 3.7-.6.8q-1 1.6-2.3 1.4L10 81h-.5q-1.2 0-2-1.3l-2.9-4.5q-1-1.6-1.1-4-.1-2.5.7-4.4l.4-3.8.9-10 1-5.4 1-3.7q1.5-5.2 2.5-4l.2-.2zm-.9 1.6q.2-1 .5-1.3m-.5 41h.5" vector-effect="non-scaling-stroke"/></g><g id="q"><path fill="#e7f3fa" fill-opacity="0" d="M150.3 24.2q17 9.4 17 22.7t-17 22.7-41.1 9.5-41.1-9.5-17-22.7 17-22.8 41.1-9.4 41 9.4"/><path fill="none" stroke="#e7f3fa" stroke-linecap="round" stroke-linejoin="round" stroke-opacity="0" stroke-width="__RESOLUTION__" d="M114.2 47.3v3.1l4.3-2.4zL0 27.5M118.5 48l1.2-.6-5.5-3v2.9m4.3.7 3.3.6-2.1-1.2 74.5-41.3M64.7 16.8l49.6 27.5V0m0 50.4v58.1M195 61.3l-73.1-12.7 70.8 39.2M33.4 95l80.8-44.7" vector-effect="non-scaling-stroke"/></g><g id="r"><path fill="#e7f3fa" fill-opacity="0" d="M150.3 24.2q17 9.4 17 22.7t-17 22.7-41.1 9.5-41.1-9.5-17-22.7 17-22.8 41.1-9.4 41 9.4"/><path fill="none" stroke="#e7f3fa" stroke-linecap="round" stroke-linejoin="round" stroke-opacity="0" stroke-width="__RESOLUTION__" d="M114.2 47.3v3.1l4.3-2.4zL0 27.5M118.5 48l1.2-.6-5.5-3v2.9m4.3.7 3.3.6-2.1-1.2 74.5-41.3M64.7 16.8l49.6 27.5V0m0 50.4v58.1M195 61.3l-73.1-12.7 70.8 39.2M33.4 95l80.8-44.7" vector-effect="non-scaling-stroke"/></g><g id="s"><path fill="#e7f3fa" fill-opacity=".1" d="M150.3 24.2q17 9.4 17 22.7t-17 22.7-41.1 9.5-41.1-9.5-17-22.7 17-22.8 41.1-9.4 41 9.4"/><path fill="none" stroke="#e7f3fa" stroke-linecap="round" stroke-linejoin="round" stroke-opacity=".1" stroke-width="__RESOLUTION__" d="M114.2 47.3v3.1l4.3-2.4zL0 27.5M118.5 48l1.2-.6-5.5-3v2.9m4.3.7 3.3.6-2.1-1.2 74.5-41.3M64.7 16.8l49.6 27.5V0m0 50.4v58.1M195 61.3l-73.1-12.7 70.8 39.2M33.4 95l80.8-44.7" vector-effect="non-scaling-stroke"/></g><g id="t"><path fill="#e7f3fa" fill-opacity=".1" d="M150.3 24.2q17 9.4 17 22.7t-17 22.7-41.1 9.5-41.1-9.5-17-22.7 17-22.8 41.1-9.4 41 9.4"/><path fill="none" stroke="#e7f3fa" stroke-linecap="round" stroke-linejoin="round" stroke-opacity=".1" stroke-width="__RESOLUTION__" d="M114.2 47.3v3.1l4.3-2.4zL0 27.5M118.5 48l1.2-.6-5.5-3v2.9m4.3.7 3.3.6-2.1-1.2 74.5-41.3M64.7 16.8l49.6 27.5V0m0 50.4v58.1M195 61.3l-73.1-12.7 70.8 39.2M33.4 95l80.8-44.7" vector-effect="non-scaling-stroke"/></g><g id="u"><path fill="#e7f3fa" fill-opacity=".1" d="M150.3 24.2q17 9.4 17 22.7t-17 22.7-41.1 9.5-41.1-9.5-17-22.7 17-22.8 41.1-9.4 41 9.4"/><path fill="none" stroke="#e7f3fa" stroke-linecap="round" stroke-linejoin="round" stroke-opacity=".1" stroke-width="__RESOLUTION__" d="M114.2 47.3v3.1l4.3-2.4zL0 27.5M118.5 48l1.2-.6-5.5-3v2.9m4.3.7 3.3.6-2.1-1.2 74.5-41.3M64.7 16.8l49.6 27.5V0m0 50.4v58.1M195 61.3l-73.1-12.7 70.8 39.2M33.4 95l80.8-44.7" vector-effect="non-scaling-stroke"/></g><g id="v"><path fill="#e7f3fa" fill-opacity=".1" d="M150.3 24.2q17 9.4 17 22.7t-17 22.7-41.1 9.5-41.1-9.5-17-22.7 17-22.8 41.1-9.4 41 9.4"/><path fill="none" stroke="#e7f3fa" stroke-linecap="round" stroke-linejoin="round" stroke-opacity=".1" stroke-width="__RESOLUTION__" d="M114.2 47.3v3.1l4.3-2.4zL0 27.5M118.5 48l1.2-.6-5.5-3v2.9m4.3.7 3.3.6-2.1-1.2 74.5-41.3M64.7 16.8l49.6 27.5V0m0 50.4v58.1M195 61.3l-73.1-12.7 70.8 39.2M33.4 95l80.8-44.7" vector-effect="non-scaling-stroke"/></g><g id="w"><path fill="#e7f3fa" fill-opacity=".2" d="M150.3 24.2q17 9.4 17 22.7t-17 22.7-41.1 9.5-41.1-9.5-17-22.7 17-22.8 41.1-9.4 41 9.4"/><path fill="none" stroke="#e7f3fa" stroke-linecap="round" stroke-linejoin="round" stroke-opacity=".2" stroke-width="__RESOLUTION__" d="M114.2 47.3v3.1l4.3-2.4zL0 27.5M118.5 48l1.2-.6-5.5-3v2.9m4.3.7 3.3.6-2.1-1.2 74.5-41.3M64.7 16.8l49.6 27.5V0m0 50.4v58.1M195 61.3l-73.1-12.7 70.8 39.2M33.4 95l80.8-44.7" vector-effect="non-scaling-stroke"/></g><g id="x"><path fill="#e7f3fa" fill-opacity=".2" d="M150.3 24.2q17 9.4 17 22.7t-17 22.7-41.1 9.5-41.1-9.5-17-22.7 17-22.8 41.1-9.4 41 9.4"/><path fill="none" stroke="#e7f3fa" stroke-linecap="round" stroke-linejoin="round" stroke-opacity=".2" stroke-width="__RESOLUTION__" d="M114.2 47.3v3.1l4.3-2.4zL0 27.5M118.5 48l1.2-.6-5.5-3v2.9m4.3.7 3.3.6-2.1-1.2 74.5-41.3M64.7 16.8l49.6 27.5V0m0 50.4v58.1M195 61.3l-73.1-12.7 70.8 39.2M33.4 95l80.8-44.7" vector-effect="non-scaling-stroke"/></g><g id="y"><path fill="#e7f3fa" fill-opacity=".2" d="M150.3 24.2q17 9.4 17 22.7t-17 22.7-41.1 9.5-41.1-9.5-17-22.7 17-22.8 41.1-9.4 41 9.4"/><path fill="none" stroke="#e7f3fa" stroke-linecap="round" stroke-linejoin="round" stroke-opacity=".2" stroke-width="__RESOLUTION__" d="M114.2 47.3v3.1l4.3-2.4zL0 27.5M118.5 48l1.2-.6-5.5-3v2.9m4.3.7 3.3.6-2.1-1.2 74.5-41.3M64.7 16.8l49.6 27.5V0m0 50.4v58.1M195 61.3l-73.1-12.7 70.8 39.2M33.4 95l80.8-44.7" vector-effect="non-scaling-stroke"/></g><g id="z"><path fill="#e7f3fa" fill-opacity=".2" d="M150.3 24.2q17 9.4 17 22.7t-17 22.7-41.1 9.5-41.1-9.5-17-22.7 17-22.8 41.1-9.4 41 9.4"/><path fill="none" stroke="#e7f3fa" stroke-linecap="round" stroke-linejoin="round" stroke-opacity=".2" stroke-width="__RESOLUTION__" d="M114.2 47.3v3.1l4.3-2.4zL0 27.5M118.5 48l1.2-.6-5.5-3v2.9m4.3.7 3.3.6-2.1-1.2 74.5-41.3M64.7 16.8l49.6 27.5V0m0 50.4v58.1M195 61.3l-73.1-12.7 70.8 39.2M33.4 95l80.8-44.7" vector-effect="non-scaling-stroke"/></g><g id="B"><path fill="#e7f3fa" fill-opacity=".3" d="M150.3 24.2q17 9.4 17 22.7t-17 22.7-41.1 9.5-41.1-9.5-17-22.7 17-22.8 41.1-9.4 41 9.4"/><path fill="none" stroke="#e7f3fa" stroke-linecap="round" stroke-linejoin="round" stroke-opacity=".3" stroke-width="__RESOLUTION__" d="M114.2 47.3v3.1l4.3-2.4zL0 27.5M118.5 48l1.2-.6-5.5-3v2.9m4.3.7 3.3.6-2.1-1.2 74.5-41.3M64.7 16.8l49.6 27.5V0m0 50.4v58.1M195 61.3l-73.1-12.7 70.8 39.2M33.4 95l80.8-44.7" vector-effect="non-scaling-stroke"/></g><g id="a" fill="none" stroke="#960" stroke-linecap="round" stroke-linejoin="round"><path stroke-width="1.8" d="m.9 149.5 1.3-3.4.3-.5q9.6-17.5 20.6-35l3.2-5Q33 94.8 40.5 84.1q5.9-8.7 12.2-17.4l9-12.8"/><path stroke-width="1.5" d="M59.7 57.6q4.2-5.7 14.2-17.1M129 .8l-26 10.7-3.8 3.9v1.1m-17.5 1.7-2 16.7 19.4-19.5v-3.7M74.5 40.8l9.7.4 5.6-2.4m-21.6 7.8 11.7-11.8m34-34L103 11.5M53.7 50l1.6 12M42.6 82.2l12.9-8.4M66 35.4l-1.4 14.9"/></g><g id="o"><path fill="#fc0" d="M8.6.9 10 2.3l-.9.2H5.7L4 2.2l-2.2-.3h-.2v-.1l2-1.1.7-.4.3.1v.1l-.3.2h.2l1 .2z"/><path fill="#090" d="M8.7.8h-.2zM4.6.5"/><path fill="#960" d="M8.6.9h-3L4.4.7h-.2l.3-.2.2-.2H5l.8-.2H6l.4-.1q1.2 0 2.2.8zm-6.8 1 2.1.3H4l1.8.2h3.4l.8-.2.8.5q1 .8 1.3 2.1.1 1-.2 2-2.7 1.1-4.8 1-1 1.2-2.6 1.7L3.6 9q-1-.7-1.2-1.8-1-.2-1.6-.7-.9-.9-.8-2.1t1-2.1l.3-.1.4-.2zm6.3-1 .4-.2zM4.8 2.6q-1.1.2-2 1.4l4-.2q-1-1.5-2-1.3"/><path fill="#775100" d="m11.9 6.8-.4.4q-.7 1.1-1.9 1.2L8 8.3l-.1.3q-.8 1-2 1.2l-1.5-.2q1.7-.4 2.7-1.7 2 .2 4.8-1M4.8 2.6q1-.3 2 1.2l-4 .2q.9-1.2 2-1.5"/><path fill="none" stroke="#000" stroke-linecap="round" stroke-linejoin="round" stroke-opacity=".3" stroke-width="__RESOLUTION__" d="M8.1.9H5.6L4.4.7h-.2m.3-.2L4.3.3m-.7.4-2 1.1v0l.2.1 2.1.3H4l1.8.3h3.4l.8-.2L8.7.8 8.6.7h-.1L8 1m2.7 1.8q1 .8 1.3 2.1.1 1-.2 2l-.3.4q-.8 1.1-2 1.2L8 8.3l-.1.3q-.8 1-2 1.2l-1.5-.2-.8-.5q-1-.7-1.2-1.8-1-.2-1.6-.7-.9-.9-.8-2.1t1-2.1l.3-.1.4-.4m4-1.6H6m-1 0-.3.1h.2m-.3.1v.3M1.3 2l.3-.2" vector-effect="non-scaling-stroke"/><path fill="#333" d="M7.6 5.1q.6 1.1 0 1.5t-1.2.3q-.7 0-1.2-.4-.3-.2.1-1.1t.9-1q.8-.3 1.3.7"/><path fill="none" stroke="#000" stroke-linecap="round" stroke-linejoin="round" stroke-opacity=".3" stroke-width="__RESOLUTION__" d="M7.6 5.1q-.5-1-1.4-.7-.6.1-.9 1t-.1 1.1q.5.4 1.2.4t1.2-.3q.5-.4 0-1.5" vector-effect="non-scaling-stroke"/><path fill="#fff" d="M7.2 5.3v.3l-.2.3h-.3l-.3-.3v-.4l.3-.3H7z"/><path fill="#333" d="M10.8 3.1q.5 0 .8.9.2.8 0 1-.4.5-1 .7l-1-.1Q9 5.2 9.5 4t1.2-1"/><path fill="none" stroke="#000" stroke-linecap="round" stroke-linejoin="round" stroke-opacity=".3" stroke-width="__RESOLUTION__" d="M10.8 3.1q.5 0 .8.9.2.8 0 1-.4.5-1 .7l-1-.1Q9 5.2 9.5 4t1.2-1" vector-effect="non-scaling-stroke"/><path fill="#fff" d="m9.9 4.1.2-.2.3-.1.2.2v.3l-.2.4h-.2q-.2 0-.2-.2z"/><path fill="#000" fill-opacity=".3" d="M1.6 1.8 3.5.7l.8-.4.3.1-.1.1-.3.2h.3L4 2.3h-.1z"/></g><g id="n" transform="translate(-131.3 70.6)"><use xlink:href="#a" width="129.8" height="150.3" transform="translate(131.3 -49.5)"/><use xlink:href="#b" width="16.6" height="81" transform="matrix(-.313 -.6173 -.6173 .313 237.1 6.85)"/><use xlink:href="#b" width="16.6" height="81" transform="matrix(.089 -.5808 -.5808 -.089 239.4 14.8)"/><use xlink:href="#b" width="16.6" height="81" transform="rotate(43.07 219.9 295.25)scale(.3175)"/><use xlink:href="#b" width="16.6" height="81" transform="matrix(-.0658 -.2104 -.2104 .0658 277.15 -52.35)"/><use xlink:href="#b" width="16.6" height="81" transform="matrix(.0174 -.407 -.407 -.0174 263.4 -28.15)"/><use xlink:href="#b" width="16.6" height="81" transform="matrix(-.0495 -.4105 -.4105 .0495 250.55 -10.75)"/><use xlink:href="#b" width="16.6" height="81" transform="matrix(.1991 -.3631 -.3631 -.1991 246.3 10.8)"/><use xlink:href="#b" width="16.6" height="81" transform="rotate(-1.54 -1573.63 -6625.48)scale(.5877)"/><use xlink:href="#b" width="16.6" height="81" transform="rotate(16.27 363.37 787.62)scale(.4127)"/><use xlink:href="#b" width="16.6" height="81" transform="rotate(33.77 211.35 350.47)scale(.494)"/><use xlink:href="#b" width="16.6" height="81" transform="rotate(-7.31 -422.89 -1619.52)scale(.462)"/><use xlink:href="#b" width="16.6" height="81" transform="rotate(18.5 276.25 604.91)scale(.5341)"/><use xlink:href="#b" width="16.6" height="81" transform="matrix(-.0965 -.3087 -.3087 .0965 270.3 -46.2)"/></g><g id="aq" transform="translate(6.75 57.15)"><use xlink:href="#c" width="194.8" height="108.5" transform="matrix(-.0744 0 0 .1186 8.25 -52.9)"/><use xlink:href="#c" width="194.8" height="108.5" transform="matrix(-.0398 0 0 .0651 16.15 -42.65)"/></g><g id="ao" transform="translate(6.75 57.15)"><use xlink:href="#d" width="194.8" height="108.5" transform="matrix(-.0749 0 0 .1186 8.3 -51.55)"/><use xlink:href="#e" width="194.8" height="108.5" transform="matrix(-.04 0 0 .0651 16.2 -41.95)"/></g><g id="am" transform="translate(6.75 57.15)"><use xlink:href="#f" width="194.8" height="108.5" transform="matrix(-.0755 0 0 .1186 8.35 -50.2)"/><use xlink:href="#g" width="194.8" height="108.5" transform="matrix(-.0403 0 0 .0651 16.2 -41.2)"/></g><g id="ak" transform="translate(6.75 57.15)"><use xlink:href="#h" width="194.8" height="108.5" transform="matrix(-.076 0 0 .1186 8.4 -48.85)"/><use xlink:href="#i" width="194.8" height="108.5" transform="matrix(-.0406 0 0 .0651 16.25 -40.5)"/><use xlink:href="#c" width="194.8" height="108.5" transform="matrix(-.0429 0 0 .1089 27.25 -57.15)"/></g><g id="ai" transform="translate(6.75 57.15)"><use xlink:href="#j" width="194.8" height="108.5" transform="matrix(-.0765 0 0 .1186 8.5 -47.5)"/><use xlink:href="#k" width="194.8" height="108.5" transform="matrix(-.0408 0 0 .0651 16.25 -39.8)"/><use xlink:href="#d" width="194.8" height="108.5" transform="matrix(-.0449 0 0 .1089 27.45 -55.7)"/></g><g id="ag" transform="translate(6.75 57.15)"><use xlink:href="#l" width="194.8" height="108.5" transform="matrix(-.0771 0 0 .1186 8.55 -46.15)"/><use xlink:href="#m" width="194.8" height="108.5" transform="matrix(-.0411 0 0 .0651 16.3 -39.1)"/><use xlink:href="#f" width="194.8" height="108.5" transform="matrix(-.0468 0 0 .1089 27.7 -54.3)"/></g><g id="F" transform="translate(17.2 20.85)"><use xlink:href="#n" width="145.8" height="171.4" transform="matrix(-.1065 -.0291 -.0565 .099 8.05 -16.6)"/><use xlink:href="#o" width="12.1" height="9.7" transform="translate(-6.45 -8.15)"/></g><use xlink:href="#p" id="b" width="16.6" height="81"/><use xlink:href="#q" id="c" width="194.8" height="108.5"/><use xlink:href="#r" id="e" width="194.8" height="108.5"/><use xlink:href="#s" id="d" width="194.8" height="108.5"/><use xlink:href="#t" id="g" width="194.8" height="108.5"/><use xlink:href="#u" id="f" width="194.8" height="108.5"/><use xlink:href="#v" id="i" width="194.8" height="108.5"/><use xlink:href="#w" id="h" width="194.8" height="108.5"/><use xlink:href="#x" id="k" width="194.8" height="108.5"/><use xlink:href="#y" id="j" width="194.8" height="108.5"/><use xlink:href="#z" id="m" width="194.8" height="108.5"/><use xlink:href="#B" id="l" width="194.8" height="108.5"/><use xlink:href="#C" id="E" width="14.7" height="4.3"/><path id="C" fill="#382c16" d="M5.8-1.9Q7.9-1.4 8-.5 8 .3 5.9 1 3.8 1.8.7 2l-5.2-.4Q-6.7 1.2-6.7.3q-.1-.8 2-1.6 2.2-.8 5.2-.9z" transform="translate(6.75 2.25)"/><path id="ae" fill="#afd8ed" fill-opacity=".3" d="M23.6-39.4q8.8 8.7 8.9 21.2Q32.4-5.8 23.6 3q-8.7 8.8-21.1 8.8T-18.8 3q-8.7-8.8-8.7-21.2t8.7-21.2q8.8-8.8 21.3-8.8t21.1 8.8" transform="translate(27.55 48.2)"/><path id="ab" fill="#afdaed" fill-opacity=".7" d="M11.5-12.8Q7.2-8.5 1-8.5t-10.5-4.3-4.3-10.4 4.2-10.5T1.2-38q6 0 10.4 4.3 4.3 4.3 4.3 10.5 0 6-4.3 10.3" transform="translate(13.75 38.05)"/></defs><g clip-path="url(#D)"><g transform="translate(28.55 83.8)"><use xlink:href="#E" width="14.7" height="4.3" transform="matrix(-.64 0 0 .64 4.3 -1.4)"/><use xlink:href="#F" width="25.3" height="22.4" transform="translate(-16.9 -22)"/></g></g><g clip-path="url(#G)"><g transform="translate(89.55 83.8)"><use xlink:href="#E" width="14.7" height="4.3" transform="matrix(-.64 0 0 .64 4.3 -1.4)"/><use xlink:href="#F" width="25.3" height="22.4" transform="matrix(1.0404 0 -.0372 .9443 -16.8 -20.85)"/></g></g><g clip-path="url(#H)"><g transform="translate(150.55 83.8)"><use xlink:href="#E" width="14.7" height="4.3" transform="matrix(-.64 0 0 .64 4.3 -1.4)"/><use xlink:href="#F" width="25.3" height="22.4" transform="matrix(1.0808 0 -.0699 .8873 -16.85 -19.65)"/></g></g><g clip-path="url(#I)"><g transform="translate(211.55 83.8)"><use xlink:href="#E" width="14.7" height="4.3" transform="matrix(-.64 0 0 .64 4.3 -1.4)"/><use xlink:href="#F" width="25.3" height="22.4" transform="matrix(1.1212 0 -.0987 .8296 -16.95 -18.45)"/></g></g><g clip-path="url(#J)"><g transform="translate(272.55 83.8)"><use xlink:href="#E" width="14.7" height="4.3" transform="matrix(-.64 0 0 .64 4.3 -1.4)"/><use xlink:href="#F" width="25.3" height="22.4" transform="matrix(1.1333 0 -.1042 .8121 -16.95 -18.1)"/></g></g><g clip-path="url(#K)"><g transform="translate(333.55 83.8)"><use xlink:href="#E" width="14.7" height="4.3" transform="matrix(-.64 0 0 .64 4.3 -1.4)"/><use xlink:href="#F" width="25.3" height="22.4" transform="matrix(1.1454 0 -.1124 .7944 -17 -17.7)"/></g></g><g clip-path="url(#L)"><g transform="translate(394.55 83.8)"><use xlink:href="#E" width="14.7" height="4.3" transform="matrix(-.64 0 0 .64 4.3 -1.4)"/><use xlink:href="#F" width="25.3" height="22.4" transform="matrix(1.1575 0 -.1201 .7767 -17.05 -17.35)"/></g></g><g clip-path="url(#Y)"><g transform="translate(455.55 83.8)"><use xlink:href="#E" width="14.7" height="4.3" transform="matrix(-.64 0 0 .64 4.3 -1.4)"/><use xlink:href="#F" width="25.3" height="22.4" transform="matrix(1.1697 0 -.1274 .7589 -17.1 -16.95)"/></g></g><g clip-path="url(#Z)"><g transform="translate(516.55 83.8)"><use xlink:href="#E" width="14.7" height="4.3" transform="matrix(-.64 0 0 .64 4.3 -1.4)"/><use xlink:href="#F" width="25.3" height="22.4" transform="matrix(1.1818 0 -.1348 .7414 -17.2 -16.6)"/></g></g><g clip-path="url(#aa)"><g transform="translate(577.55 83.8)"><use xlink:href="#E" width="14.7" height="4.3" transform="matrix(-.64 0 0 .64 4.3 -1.4)"/><use xlink:href="#F" width="25.3" height="22.4" transform="matrix(1 0 -.0456 1 -16.2 -36.15)"/><use xlink:href="#ab" width="29.6" height="29.6" transform="translate(-13.75 -38.05)"/></g></g><g clip-path="url(#ac)"><g transform="translate(638.55 83.8)"><use xlink:href="#E" width="14.7" height="4.3" transform="matrix(-.64 0 0 .64 4.3 -1.4)"/><use xlink:href="#F" width="25.3" height="22.4" transform="matrix(1 0 -.0421 .9541 -16.25 -35.95)"/><use xlink:href="#ab" width="29.6" height="29.6" transform="translate(-13.75 -38.05)"/></g></g><g clip-path="url(#ad)"><g transform="translate(699.55 83.8)"><use xlink:href="#E" width="14.7" height="4.3" transform="matrix(-.64 0 0 .64 4.3 -1.4)"/><use xlink:href="#F" width="25.3" height="22.4" transform="matrix(1 0 -.0401 .9082 -16.25 -35.8)"/><use xlink:href="#ae" width="60" height="60" transform="translate(-27.55 -48.2)"/></g></g><g clip-path="url(#af)"><g transform="translate(760.55 83.8)"><use xlink:href="#E" width="14.7" height="4.3" transform="matrix(-.64 0 0 .64 4.3 -1.4)"/><use xlink:href="#F" width="25.3" height="22.4" transform="matrix(1 0 -.0381 .8624 -16.3 -35.6)"/><use xlink:href="#ag" width="36.4" height="66.6" transform="translate(-21.3 -82.8)"/></g></g><g clip-path="url(#ah)"><g transform="translate(821.55 83.8)"><use xlink:href="#E" width="14.7" height="4.3" transform="matrix(-.64 0 0 .64 4.3 -1.4)"/><use xlink:href="#F" width="25.3" height="22.4" transform="matrix(1 0 -.0361 .8165 -16.3 -35.4)"/><use xlink:href="#ai" width="36.4" height="66.6" transform="translate(-21.3 -82.8)"/></g></g><g clip-path="url(#aj)"><g transform="translate(882.55 83.8)"><use xlink:href="#E" width="14.7" height="4.3" transform="matrix(-.64 0 0 .64 4.3 -1.4)"/><use xlink:href="#F" width="25.3" height="22.4" transform="matrix(1 0 -.0352 .7708 -16.3 -35.2)"/><use xlink:href="#ak" width="36.4" height="66.6" transform="translate(-21.3 -82.8)"/></g></g><g clip-path="url(#al)"><g transform="translate(943.55 83.8)"><use xlink:href="#E" width="14.7" height="4.3" transform="matrix(-.64 0 0 .64 4.3 -1.4)"/><use xlink:href="#F" width="25.3" height="22.4" transform="matrix(1 0 -.0442 .9999 -16.2 -35.25)"/><use xlink:href="#am" width="36.4" height="66.6" transform="translate(-21.3 -82.8)"/></g></g><g clip-path="url(#an)"><g transform="translate(1004.55 83.8)"><use xlink:href="#E" width="14.7" height="4.3" transform="matrix(-.64 0 0 .64 4.3 -1.4)"/><use xlink:href="#F" width="25.3" height="22.4" transform="matrix(.9751 0 -.0449 1.0214 -15.7 -35.05)"/><use xlink:href="#ao" width="36.4" height="66.6" transform="translate(-21.3 -82.8)"/></g></g><g clip-path="url(#ap)"><g transform="translate(1065.55 83.8)"><use xlink:href="#E" width="14.7" height="4.3" transform="matrix(-.64 0 0 .64 4.3 -1.4)"/><use xlink:href="#F" width="25.3" height="22.4" transform="matrix(.9502 0 -.0459 1.043 -15.35 -34.95)"/><use xlink:href="#aq" width="36.4" height="66.6" transform="translate(-21.3 -82.8)"/></g></g><g clip-path="url(#ar)"><g transform="translate(1126.55 83.8)"><use xlink:href="#E" width="14.7" height="4.3" transform="matrix(-.64 0 0 .64 4.3 -1.4)"/><use xlink:href="#F" width="25.3" height="22.4" transform="matrix(.9254 0 -.0486 1.0646 -14.85 -34.85)"/><use xlink:href="#aq" width="36.4" height="66.6" transform="translate(-21.3 -82.8)"/></g></g><g clip-path="url(#as)"><g transform="translate(1187.55 83.8)"><use xlink:href="#E" width="14.7" height="4.3" transform="matrix(-.64 0 0 .64 4.3 -1.4)"/><use xlink:href="#F" width="25.3" height="22.4" transform="matrix(1 0 -.3158 .7414 -10.55 -16.1)"/><use xlink:href="#aq" width="36.4" height="66.6" transform="translate(-21.3 -82.8)"/></g></g><g clip-path="url(#at)"><g transform="translate(1248.55 83.8)"><use xlink:href="#E" width="14.7" height="4.3" transform="matrix(-.64 0 0 .64 4.3 -1.4)"/><use xlink:href="#F" width="25.3" height="22.4" transform="matrix(1 0 .1217 1 -19.7 -21.5)"/><use xlink:href="#aq" width="36.4" height="66.6" transform="translate(-21.3 -82.8)"/></g></g><g clip-path="url(#au)"><g transform="translate(1309.55 83.8)"><use xlink:href="#E" width="14.7" height="4.3" transform="matrix(-.64 0 0 .64 4.3 -1.4)"/><use xlink:href="#F" width="25.3" height="22.4" transform="matrix(1 0 -.0544 1.0323 -16.05 -22.15)"/><use xlink:href="#aq" width="36.4" height="66.6" transform="translate(-21.3 -82.8)"/></g></g><g clip-path="url(#av)"><g transform="translate(1370.55 83.8)"><use xlink:href="#E" width="14.7" height="4.3" transform="matrix(-.64 0 0 .64 4.3 -1.4)"/><use xlink:href="#F" width="25.3" height="22.4" transform="matrix(1 0 -.2388 1.0324 -12.15 -22.1)"/><use xlink:href="#aq" width="36.4" height="66.6" transform="translate(-21.3 -82.8)"/></g></g><g clip-path="url(#aw)"><g transform="translate(1431.55 83.8)"><use xlink:href="#E" width="14.7" height="4.3" transform="matrix(-.64 0 0 .64 4.3 -1.4)"/><use xlink:href="#F" width="25.3" height="22.4" transform="matrix(1 0 -.4259 1 -8.25 -21.5)"/><use xlink:href="#aq" width="36.4" height="66.6" transform="translate(-21.3 -82.8)"/></g></g><g clip-path="url(#ax)"><g transform="translate(1492.55 83.8)"><use xlink:href="#E" width="14.7" height="4.3" transform="matrix(-.64 0 0 .64 4.3 -1.4)"/><use xlink:href="#F" width="25.3" height="22.4" transform="matrix(1 0 -.2343 1.0341 -12.2 -22.15)"/><use xlink:href="#aq" width="36.4" height="66.6" transform="translate(-21.3 -82.8)"/></g></g><g clip-path="url(#ay)"><g transform="translate(1553.55 83.8)"><use xlink:href="#E" width="14.7" height="4.3" transform="matrix(-.64 0 0 .64 4.3 -1.4)"/><use xlink:href="#F" width="25.3" height="22.4" transform="matrix(1 0 -.0417 1.0342 -16.25 -22.2)"/><use xlink:href="#aq" width="36.4" height="66.6" transform="translate(-21.3 -82.8)"/></g></g><g clip-path="url(#az)"><g transform="translate(1614.55 83.8)"><use xlink:href="#E" width="14.7" height="4.3" transform="matrix(-.64 0 0 .64 4.3 -1.4)"/><use xlink:href="#F" width="25.3" height="22.4" transform="matrix(1 0 .1369 1 -19.95 -21.5)"/><use xlink:href="#aq" width="36.4" height="66.6" transform="translate(-21.3 -82.8)"/></g></g><g clip-path="url(#aA)"><g transform="translate(1675.55 83.8)"><use xlink:href="#E" width="14.7" height="4.3" transform="matrix(-.64 0 0 .64 4.3 -1.4)"/><use xlink:href="#F" width="25.3" height="22.4" transform="matrix(1 0 .0886 1.002 -18.9 -21.7)"/><use xlink:href="#aq" width="36.4" height="66.6" transform="translate(-21.3 -82.8)"/></g></g><g clip-path="url(#aB)"><g transform="translate(1736.55 83.8)"><use xlink:href="#E" width="14.7" height="4.3" transform="matrix(-.64 0 0 .64 4.3 -1.4)"/><use xlink:href="#F" width="25.3" height="22.4" transform="matrix(1 0 .0442 1.002 -17.85 -21.9)"/><use xlink:href="#aq" width="36.4" height="66.6" transform="translate(-21.3 -82.8)"/></g></g><g clip-path="url(#aC)"><g transform="translate(1797.55 83.8)"><use xlink:href="#E" width="14.7" height="4.3" transform="matrix(-.64 0 0 .64 4.3 -1.4)"/><use xlink:href="#F" width="25.3" height="22.4" transform="translate(-16.9 -22)"/><use xlink:href="#aq" width="36.4" height="66.6" transform="translate(-21.3 -82.8)"/></g></g></svg>