<svg xmlns="http://www.w3.org/2000/svg" xmlns:xlink="http://www.w3.org/1999/xlink" width="892" height="100" viewBox="0 0 892 100"><defs><g id="a"><path fill="#fff" d="m21.2 6.8-3.8 3.6L12 10l1.7-6.4L17.6 0l5.9.2z"/><path fill="none" stroke="#fff" stroke-linecap="round" stroke-linejoin="round" stroke-width="__RESOLUTION__" d="M21.2 6.8 23.5.2l-6-.2-3.8 3.6-1.6 6.4" vector-effect="non-scaling-stroke"/><path fill="#fff" d="M3.6 15.2H9l5.7 4.4 4.9 8.7-6.3-1-5.6-4.4zm5.7 5 1.5 1.1 2.5 6-2.5-6zm-6.4 0 .9 1.5.5 4.8-.5-4.8zm5.5 10-4.1-3.7-2.9-5.6L0 14.4l3.7 2.9 3 5.5zl-4.6-8.5zm2.4-8.9 8.8 7z"/><path fill="none" stroke="#fff" stroke-linecap="round" stroke-linejoin="round" stroke-width="__RESOLUTION__" d="m19.6 28.3-5-8.7-5.5-4.3-5.5-.1m4 7.7 5.7 4.4-2.5-6-1.5-1.1m-5 6.3-.5-4.8-.9-1.5m-1.5.7 2.9 5.6 4 3.8-4.5-8.6m4.6 8.6-1.7-7.5-3-5.5-3.7-3m13.3 13 6.3 1-8.8-7" vector-effect="non-scaling-stroke"/><path fill="#fff" d="m20.9 16.6-4.5-3 9-1.7-9 1.7zl4.5-4.7-7.2-3.3-5.7 1.1-3.7 4.8 6.4 3.2zm-6-2.7 1.5-.3z"/><path fill="none" stroke="#fff" stroke-linecap="round" stroke-linejoin="round" stroke-width="__RESOLUTION__" d="m25.4 11.9-9 1.7 4.5 3zl-7.2-3.3-5.7 1.1-3.7 4.8m6.4 3.2 5.7-1.1m-4.5-3-1.5.3" vector-effect="non-scaling-stroke"/></g><g id="b"><path fill="#fff" d="M9.4 0q3.2 0 4.9 2.2 4 4.2 4 10.8-.5 3-2.8 4.2-2.8.8-4.1 0l-1.8-5.3-.6.2Q5.6 10 7 4.9 7.4 3 9.3 0"/><path fill="#fff" d="m9 12.2-6-.8q-.9-5.7 2.7-9.8Q7 .2 9.5 0 7.4 3 7 4.8 5.6 10 9 12.2"/><path fill="none" stroke="#fff" stroke-linecap="round" stroke-linejoin="round" stroke-width="__RESOLUTION__" d="M9.4 0q3.2 0 4.9 2.2 4 4.2 4 10.8-.5 3-2.8 4.2-2.8.8-4.1 0m-8.2-5.8q-1-5.7 2.6-9.8Q7 .2 9.5 0" vector-effect="non-scaling-stroke"/><path fill="#fff" d="M9.2 11q.7 2.1 2.2 3.4.9 2 .7 2.2-.4.5-2.1 1T6.5 20l-5 6q1.7-6.8 3.7-9.9 1.8-2.8 4-5.1"/><path fill="#fff" d="M9.2 11q-2.2 2.3-4 5.1-2 3-3.6 10Q.3 22 0 17q1.3-3.5 3.3-6 1-1.5 2.7-1.5T9.2 11"/><path fill="none" stroke="#fff" stroke-linecap="round" stroke-linejoin="round" stroke-width="__RESOLUTION__" d="m1.6 26 4.9-6q1.7-2 3.5-2.4 1.6-.5 2-1 .2-.3-.6-2.2-1.5-1.3-2.3-3.4Q7.8 9.6 6 9.6q-1.6 0-2.7 1.5-2 2.5-3.3 6 .3 4.9 1.6 9" vector-effect="non-scaling-stroke"/><path fill="#fff" d="m11.1 11.7-.1-2q.1-2 .7-3.4 2.6 1.2 2.8 3.2l-2.3 1.7z"/><path fill="#fff" d="m11.7 6.3.2-.4q.7-1.6 1.6-1.6T15 5.9l.5 1.7v.1q-.3 1.1-1 1.8-.3-2-2.9-3.2"/><path fill="#fff" d="M15.5 7.7v2q-.1 2.2-.8 3.7l-.9 1.3q-1.5-1.3-1.6-3.5l2.3-1.7q.8-.6 1-1.8"/><path fill="#fff" d="m13.8 14.7-.8.3q-1 0-1.5-1.6-.4-.7-.4-1.7l1.1-.5q0 2.2 1.6 3.5"/><path fill="none" stroke="#fff" stroke-linecap="round" stroke-linejoin="round" stroke-width="__RESOLUTION__" d="m11.1 11.7-.1-2q.1-2 .7-3.4l.2-.4q.7-1.6 1.6-1.6T15 5.9l.5 1.7v2.1q-.1 2.1-.9 3.7l-.8 1.3-.8.3q-1 0-1.6-1.6-.3-.7-.3-1.7l1.1-.5 2.3-1.7q.7-.6 1-1.8" vector-effect="non-scaling-stroke"/><path fill="#fff" d="m14 11-.5.3-.6-.2-.2-.3 1.3-1 .2.6z"/></g><g id="c"><path fill="#fff" d="M5.5 19.5q1.6-5 .9-10.9l-.6-1Q4 4.4 2.7.3L4 0l2.3.2q1.2.6 2.5 2.6 1.3 1.9.8 5.9-.7 4-.5 6.8T7.2 19l-1.6.4zM7.6 7.9l-1.8-.4z"/><path fill="#fff" d="m5.8 7.6.6 1q.7 5.9-.9 10.9l-3-.2q-1.4-.3.2-4.4t.2-6.5T.3 3.5Q-.9 1.3 2.2.4l.5-.2q1.3 4.1 3 7.4-1.6-.7-1.8.8.3-1.6 1.9-.9"/><path fill="none" stroke="#fff" stroke-linecap="round" stroke-linejoin="round" stroke-width="__RESOLUTION__" d="m5.5 19.5 1.6-.4q2-.8 1.9-3.6t.5-6.7-.8-6Q7.4 1 6.3.3L4 0 2.7.3l-.6.1q-3 .8-1.8 3.2t2.6 4.8-.2 6.5-.2 4.5zm.3-12 1.8.3m-3.7.5q.2-1.5 1.8-.8" vector-effect="non-scaling-stroke"/></g><g id="d"><path fill="#fff" d="m7.4 13.9 5.7-11.4zM5.7 19l-2-4.3 2.6-6.6L13.9 0l1.4 5.4-2.8 6.5z"/><path fill="none" stroke="#fff" stroke-linecap="round" stroke-linejoin="round" stroke-width="__RESOLUTION__" d="M13.1 2.5 7.4 13.9m5.2-2 2.7-6.5L13.9 0 6.3 8.2l-2.6 6.6 2 4.3" vector-effect="non-scaling-stroke"/><path fill="#fff" d="m2.7 17.7 3.9-5.3 4.7-2.8 4 .8-2.7 6.3-3.5 3zm10.9-6.6-3.7 2.8.8-2.7-.8 2.7zm-3.7 2.8-2 1.5z"/><path fill="none" stroke="#fff" stroke-linecap="round" stroke-linejoin="round" stroke-width="__RESOLUTION__" d="m2.7 17.7-2.7 1m9 1 3.6-3 2.7-6.2-4-.9-4.7 2.8-3.9 5.3m8-6.5-.8 2.7 3.7-2.9m-5.7 4.3 2-1.4" vector-effect="non-scaling-stroke"/></g><g id="e"><path fill="#fff" d="M12.7.7Q11 4.7 10 5.5q-1.8-2-3.6-1.2Q4.9 2.7 3 2.7 7.2 2.2 9.3 0z"/><path fill="#fff" d="M3 2.7q1.9 0 3.5 1.6 1.8-.7 3.6 1.2 1-.8 2.6-4.8 1.1 1-.4 5L9.7 9.4q-2.9 2-4.3-1.6-3.3 1-4.1-1.8-.8-1.8.7-3.2zm3.5 1.6Q5.1 5.6 5.4 7.7q-.3-2.1 1.1-3.4"/><path fill="none" stroke="#fff" stroke-linecap="round" stroke-linejoin="round" stroke-width="__RESOLUTION__" d="M12.7.7 9.3 0Q7.2 2.2 3 2.7l-1 .1Q.6 4.2 1.3 6q.8 2.8 4.1 1.7Q5 5.6 6.5 4.3M5.4 7.7q1.4 3.6 4.3 1.7v-.1l2.6-3.5q1.5-4 .3-5.1" vector-effect="non-scaling-stroke"/><path fill="#fff" d="M2.2 3.5H3q.8.4 1.3 1.2T4 5.9q-.6.4-.9 2.6-.3 1.3-.9 1.4Q.4 7.3 2 3.4"/><path fill="#fff" d="m2.3 10-1.1-.4q-.7-.4-1-2.2T.2 5q.4-1 1.2-1.4l.8-.3q-1.7 4 .1 6.5"/><path fill="none" stroke="#fff" stroke-linecap="round" stroke-linejoin="round" stroke-width="__RESOLUTION__" d="M2.2 3.5H3q.8.4 1.3 1.2T4 5.9q-.6.4-.9 2.6-.3 1.3-.9 1.4l-1.1-.3q-.7-.4-1-2.2T.2 5q.4-1 1.2-1.4z" vector-effect="non-scaling-stroke"/><path fill="#fff" d="m6.1 11.2-1-.6q-.6-.7-.8-2.6-.2-1.8.1-2.3.4-1 1.3-1.2h.7Q4.6 8 6.1 11.1"/><path fill="#fff" d="m6.5 4.5.9.3q.7.5 1.2 1.5.3 1-.4 1.2T7.1 9.9q-.3 1.3-1 1.3-1.4-3.1.4-6.7"/><path fill="none" stroke="#fff" stroke-linecap="round" stroke-linejoin="round" stroke-width="__RESOLUTION__" d="m6.1 11.2-1-.6q-.6-.7-.8-2.6-.2-1.8.1-2.3.4-1 1.3-1.2h.7l1 .2q.7.5 1.1 1.6.4 1-.3 1.2T7.1 9.9q-.4 1.3-1 1.3" vector-effect="non-scaling-stroke"/></g><g id="f"><path fill="none" stroke="#fff" stroke-linecap="round" stroke-linejoin="round" stroke-width="1" d="M10.5 33.6Q8.1 16.4.4.5"/><path fill="#fff" d="m15.5 47.1.2 1.3q-2.3 6.9-4.9 7.1t-4-6.5q2.5-6.7 2.3-16l2.4-.6q.2 3.3 2 9.4.4 1.9 2 5.3m-4.9 2.1q-.5.1-.8.8l-.2.9v.4q.1.7.6 1.2t.9.3l.8-.8q.3-.6.2-1.3l-.2-.5-.4-.7q-.4-.4-.9-.3"/><path fill="#fff" d="M10.6 49.3q.5-.2.9.3l.4.6.2.5-.2 1.4-.8.7q-.5.1-1-.3t-.5-1.2v-.4l.2-.9q.2-.6.8-.7"/><path fill="none" stroke="#fff" stroke-linecap="round" stroke-linejoin="round" stroke-width="__RESOLUTION__" d="m15.5 47.1.2 1.3q-2.3 6.9-4.9 7.1t-4-6.5q2.5-6.7 2.3-16l2.4-.6q.2 3.3 2 9.4.4 1.9 2 5.3" vector-effect="non-scaling-stroke"/></g><g id="g"><path fill="#f5e1d6" d="m21.2 6.8-3.8 3.6L12 10l1.7-6.4L17.6 0l5.9.2z"/><path fill="none" stroke="#fceed6" stroke-linecap="round" stroke-linejoin="round" stroke-width="__RESOLUTION__" d="M21.2 6.8 23.5.2l-6-.2-3.8 3.6-1.6 6.4" vector-effect="non-scaling-stroke"/><path fill="#f5e1d6" d="M3.6 15.2H9l5.7 4.4 4.9 8.7-6.3-1-5.6-4.4zm5.7 5 1.5 1.1 2.5 6-2.5-6zm-6.4 0 .9 1.5.5 4.8-.5-4.8zm5.5 10-4.1-3.7-2.9-5.6L0 14.4l3.7 2.9 3 5.5zl-4.6-8.5zm2.4-8.9 8.8 7z"/><path fill="none" stroke="#fceed6" stroke-linecap="round" stroke-linejoin="round" stroke-width="__RESOLUTION__" d="m19.6 28.3-5-8.7-5.5-4.3-5.5-.1m4 7.7 5.7 4.4-2.5-6-1.5-1.1m-5 6.3-.5-4.8-.9-1.5m-1.5.7 2.9 5.6 4 3.8-4.5-8.6m4.6 8.6-1.7-7.5-3-5.5-3.7-3m13.3 13 6.3 1-8.8-7" vector-effect="non-scaling-stroke"/><path fill="#f5e1d6" d="m20.9 16.6-4.5-3 9-1.7-9 1.7zl4.5-4.7-7.2-3.3-5.7 1.1-3.7 4.8 6.4 3.2zm-6-2.7 1.5-.3z"/><path fill="none" stroke="#fceed6" stroke-linecap="round" stroke-linejoin="round" stroke-width="__RESOLUTION__" d="m25.4 11.9-9 1.7 4.5 3zl-7.2-3.3-5.7 1.1-3.7 4.8m6.4 3.2 5.7-1.1m-4.5-3-1.5.3" vector-effect="non-scaling-stroke"/></g><g id="h"><path fill="#f0dfd6" d="M9.4 0q3.2 0 4.9 2.2 4 4.2 4 10.8-.5 3-2.8 4.2-2.8.8-4.1 0l-1.8-5.3-.6.2Q5.6 10 7 4.9 7.4 3 9.3 0"/><path fill="#f5e1d6" d="m9 12.2-6-.8q-.9-5.7 2.7-9.8Q7 .2 9.5 0 7.4 3 7 4.8 5.6 10 9 12.2"/><path fill="none" stroke="#fceed6" stroke-linecap="round" stroke-linejoin="round" stroke-width="__RESOLUTION__" d="M9.4 0q3.2 0 4.9 2.2 4 4.2 4 10.8-.5 3-2.8 4.2-2.8.8-4.1 0m-8.2-5.8q-1-5.7 2.6-9.8Q7 .2 9.5 0" vector-effect="non-scaling-stroke"/><path fill="#f2e7d5" d="M9.2 11q.7 2.1 2.2 3.4.9 2 .7 2.2-.4.5-2.1 1T6.5 20l-5 6q1.7-6.8 3.7-9.9 1.8-2.8 4-5.1"/><path fill="#fcedd5" d="M9.2 11q-2.2 2.3-4 5.1-2 3-3.6 10Q.3 22 0 17q1.3-3.5 3.3-6 1-1.5 2.7-1.5T9.2 11"/><path fill="none" stroke="#efe3d5" stroke-linecap="round" stroke-linejoin="round" stroke-width="__RESOLUTION__" d="m1.6 26 4.9-6q1.7-2 3.5-2.4 1.6-.5 2-1 .2-.3-.6-2.2-1.5-1.3-2.3-3.4Q7.8 9.6 6 9.6q-1.6 0-2.7 1.5-2 2.5-3.3 6 .3 4.9 1.6 9" vector-effect="non-scaling-stroke"/><path fill="#f5e1d6" d="m11.1 11.7-.1-2q.1-2 .7-3.4 2.6 1.2 2.8 3.2l-2.3 1.7z"/><path fill="#f0dfd6" d="m11.7 6.3.2-.4q.7-1.6 1.6-1.6T15 5.9l.5 1.7v.1q-.3 1.1-1 1.8-.3-2-2.9-3.2"/><path fill="#fefefe" d="M15.5 7.7v2q-.1 2.2-.8 3.7l-.9 1.3q-1.5-1.3-1.6-3.5l2.3-1.7q.8-.6 1-1.8"/><path fill="#f1f1f1" d="m13.8 14.7-.8.3q-1 0-1.5-1.6-.4-.7-.4-1.7l1.1-.5q0 2.2 1.6 3.5"/><path fill="none" stroke="#e5dbd5" stroke-linecap="round" stroke-linejoin="round" stroke-width="__RESOLUTION__" d="m11.1 11.7-.1-2q.1-2 .7-3.4l.2-.4q.7-1.6 1.6-1.6T15 5.9l.5 1.7v2.1q-.1 2.1-.9 3.7l-.8 1.3-.8.3q-1 0-1.6-1.6-.3-.7-.3-1.7l1.1-.5 2.3-1.7q.7-.6 1-1.8" vector-effect="non-scaling-stroke"/><path fill="#d4d4d4" d="m14 11-.5.3-.6-.2-.2-.3 1.3-1 .2.6z"/></g><g id="i"><path fill="#f5e1d6" d="M5.5 19.5q1.6-5 .9-10.9l-.6-1Q4 4.4 2.7.3L4 0l2.3.2q1.2.6 2.5 2.6 1.3 1.9.8 5.9-.7 4-.5 6.8T7.2 19l-1.6.4zM7.6 7.9l-1.8-.4z"/><path fill="#f0dfd6" d="m5.8 7.6.6 1q.7 5.9-.9 10.9l-3-.2q-1.4-.3.2-4.4t.2-6.5T.3 3.5Q-.9 1.3 2.2.4l.5-.2q1.3 4.1 3 7.4-1.6-.7-1.8.8.3-1.6 1.9-.9"/><path fill="none" stroke="#fceed6" stroke-linecap="round" stroke-linejoin="round" stroke-width="__RESOLUTION__" d="m5.5 19.5 1.6-.4q2-.8 1.9-3.6t.5-6.7-.8-6Q7.4 1 6.3.3L4 0 2.7.3l-.6.1q-3 .8-1.8 3.2t2.6 4.8-.2 6.5-.2 4.5zm.3-12 1.8.3m-3.7.5q.2-1.5 1.8-.8" vector-effect="non-scaling-stroke"/></g><g id="j"><path fill="#f5e1d6" d="m7.4 13.9 5.7-11.4zM5.7 19l-2-4.3 2.6-6.6L13.9 0l1.4 5.4-2.8 6.5z"/><path fill="none" stroke="#fceed6" stroke-linecap="round" stroke-linejoin="round" stroke-width="__RESOLUTION__" d="M13.1 2.5 7.4 13.9m5.2-2 2.7-6.5L13.9 0 6.3 8.2l-2.6 6.6 2 4.3" vector-effect="non-scaling-stroke"/><path fill="#f5e1d6" d="m2.7 17.7 3.9-5.3 4.7-2.8 4 .8-2.7 6.3-3.5 3zm10.9-6.6-3.7 2.8.8-2.7-.8 2.7zm-3.7 2.8-2 1.5z"/><path fill="none" stroke="#fceed6" stroke-linecap="round" stroke-linejoin="round" stroke-width="__RESOLUTION__" d="m2.7 17.7-2.7 1m9 1 3.6-3 2.7-6.2-4-.9-4.7 2.8-3.9 5.3m8-6.5-.8 2.7 3.7-2.9m-5.7 4.3 2-1.4" vector-effect="non-scaling-stroke"/></g><g id="k"><path fill="#f0e5d5" d="M12.7.7Q11 4.7 10 5.5q-1.8-2-3.6-1.2Q4.9 2.7 3 2.7 7.2 2.2 9.3 0z"/><path fill="#fcedd5" d="M3 2.7q1.9 0 3.5 1.6 1.8-.7 3.6 1.2 1-.8 2.6-4.8 1.1 1-.4 5L9.7 9.4q-2.9 2-4.3-1.6-3.3 1-4.1-1.8-.8-1.8.7-3.2zm3.5 1.6Q5.1 5.6 5.4 7.7q-.3-2.1 1.1-3.4"/><path fill="none" stroke="#eae0d4" stroke-linecap="round" stroke-linejoin="round" stroke-width="__RESOLUTION__" d="M12.7.7 9.3 0Q7.2 2.2 3 2.7l-1 .1Q.6 4.2 1.3 6q.8 2.8 4.1 1.7Q5 5.6 6.5 4.3M5.4 7.7q1.4 3.6 4.3 1.7v-.1l2.6-3.5q1.5-4 .3-5.1" vector-effect="non-scaling-stroke"/><path fill="#e8e5df" d="M2.2 3.5H3q.8.4 1.3 1.2T4 5.9q-.6.4-.9 2.6-.3 1.3-.9 1.4Q.4 7.3 2 3.4"/><path fill="#f5f1ec" d="m2.3 10-1.1-.4q-.7-.4-1-2.2T.2 5q.4-1 1.2-1.4l.8-.3q-1.7 4 .1 6.5"/><path fill="none" stroke="#e0deda" stroke-linecap="round" stroke-linejoin="round" stroke-width="__RESOLUTION__" d="M2.2 3.5H3q.8.4 1.3 1.2T4 5.9q-.6.4-.9 2.6-.3 1.3-.9 1.4l-1.1-.3q-.7-.4-1-2.2T.2 5q.4-1 1.2-1.4z" vector-effect="non-scaling-stroke"/><path fill="#f5f1ec" d="m6.1 11.2-1-.6q-.6-.7-.8-2.6-.2-1.8.1-2.3.4-1 1.3-1.2h.7Q4.6 8 6.1 11.1"/><path fill="#e8e5df" d="m6.5 4.5.9.3q.7.5 1.2 1.5.3 1-.4 1.2T7.1 9.9q-.3 1.3-1 1.3-1.4-3.1.4-6.7"/><path fill="none" stroke="#e0deda" stroke-linecap="round" stroke-linejoin="round" stroke-width="__RESOLUTION__" d="m6.1 11.2-1-.6q-.6-.7-.8-2.6-.2-1.8.1-2.3.4-1 1.3-1.2h.7l1 .2q.7.5 1.1 1.6.4 1-.3 1.2T7.1 9.9q-.4 1.3-1 1.3" vector-effect="non-scaling-stroke"/></g><g id="l"><path fill="none" stroke="#e6e3db" stroke-linecap="round" stroke-linejoin="round" stroke-width="1" d="M10.5 33.6Q8.1 16.4.4.5"/><path fill="#f3e1d6" d="m15.5 47.1.2 1.3q-2.3 6.9-4.9 7.1t-4-6.5q2.5-6.7 2.3-16l2.4-.6q.2 3.3 2 9.4.4 1.9 2 5.3m-4.9 2.1q-.5.1-.8.8l-.2.9v.4q.1.7.6 1.2t.9.3l.8-.8q.3-.6.2-1.3l-.2-.5-.4-.7q-.4-.4-.9-.3"/><path fill="#f9ecd6" d="M10.6 49.3q.5-.2.9.3l.4.6.2.5-.2 1.4-.8.7q-.5.1-1-.3t-.5-1.2v-.4l.2-.9q.2-.6.8-.7"/><path fill="none" stroke="#f9ecd6" stroke-linecap="round" stroke-linejoin="round" stroke-width="__RESOLUTION__" d="m15.5 47.1.2 1.3q-2.3 6.9-4.9 7.1t-4-6.5q2.5-6.7 2.3-16l2.4-.6q.2 3.3 2 9.4.4 1.9 2 5.3" vector-effect="non-scaling-stroke"/></g><g id="m"><path fill="none" stroke="#e7e4db" stroke-linecap="round" stroke-linejoin="round" stroke-width="1" d="M10.5 33.6Q8.1 16.4.4.5"/><path fill="#f4e1d6" d="m15.5 47.1.2 1.3q-2.3 6.9-4.9 7.1t-4-6.5q2.5-6.7 2.3-16l2.4-.6q.2 3.3 2 9.4.4 1.9 2 5.3m-4.9 2.1q-.5.1-.8.8l-.2.9v.4q.1.7.6 1.2t.9.3l.8-.8q.3-.6.2-1.3l-.2-.5-.4-.7q-.4-.4-.9-.3"/><path fill="#faecd6" d="M10.6 49.3q.5-.2.9.3l.4.6.2.5-.2 1.4-.8.7q-.5.1-1-.3t-.5-1.2v-.4l.2-.9q.2-.6.8-.7"/><path fill="none" stroke="#faecd6" stroke-linecap="round" stroke-linejoin="round" stroke-width="__RESOLUTION__" d="m15.5 47.1.2 1.3q-2.3 6.9-4.9 7.1t-4-6.5q2.5-6.7 2.3-16l2.4-.6q.2 3.3 2 9.4.4 1.9 2 5.3" vector-effect="non-scaling-stroke"/></g><g id="n"><path fill="#ebc5af" d="m21.2 6.8-3.8 3.6L12 10l1.7-6.4L17.6 0l5.9.2z"/><path fill="none" stroke="#f9ddae" stroke-linecap="round" stroke-linejoin="round" stroke-width="__RESOLUTION__" d="M21.2 6.8 23.5.2l-6-.2-3.8 3.6-1.6 6.4" vector-effect="non-scaling-stroke"/><path fill="#ebc5af" d="M3.6 15.2H9l5.7 4.4 4.9 8.7-6.3-1-5.6-4.4zm5.7 5 1.5 1.1 2.5 6-2.5-6zm-6.4 0 .9 1.5.5 4.8-.5-4.8zm5.5 10-4.1-3.7-2.9-5.6L0 14.4l3.7 2.9 3 5.5zl-4.6-8.5zm2.4-8.9 8.8 7z"/><path fill="none" stroke="#f9ddae" stroke-linecap="round" stroke-linejoin="round" stroke-width="__RESOLUTION__" d="m19.6 28.3-5-8.7-5.5-4.3-5.5-.1m4 7.7 5.7 4.4-2.5-6-1.5-1.1m-5 6.3-.5-4.8-.9-1.5m-1.5.7 2.9 5.6 4 3.8-4.5-8.6m4.6 8.6-1.7-7.5-3-5.5-3.7-3m13.3 13 6.3 1-8.8-7" vector-effect="non-scaling-stroke"/><path fill="#ebc5af" d="m20.9 16.6-4.5-3 9-1.7-9 1.7zl4.5-4.7-7.2-3.3-5.7 1.1-3.7 4.8 6.4 3.2zm-6-2.7 1.5-.3z"/><path fill="none" stroke="#f9ddae" stroke-linecap="round" stroke-linejoin="round" stroke-width="__RESOLUTION__" d="m25.4 11.9-9 1.7 4.5 3zl-7.2-3.3-5.7 1.1-3.7 4.8m6.4 3.2 5.7-1.1m-4.5-3-1.5.3" vector-effect="non-scaling-stroke"/></g><g id="o"><path fill="#e1c1ae" d="M9.4 0q3.2 0 4.9 2.2 4 4.2 4 10.8-.5 3-2.8 4.2-2.8.8-4.1 0l-1.8-5.3-.6.2Q5.6 10 7 4.9 7.4 3 9.3 0"/><path fill="#ebc5af" d="m9 12.2-6-.8q-.9-5.7 2.7-9.8Q7 .2 9.5 0 7.4 3 7 4.8 5.6 10 9 12.2"/><path fill="none" stroke="#f9ddae" stroke-linecap="round" stroke-linejoin="round" stroke-width="__RESOLUTION__" d="M9.4 0q3.2 0 4.9 2.2 4 4.2 4 10.8-.5 3-2.8 4.2-2.8.8-4.1 0m-8.2-5.8q-1-5.7 2.6-9.8Q7 .2 9.5 0" vector-effect="non-scaling-stroke"/><path fill="#e7d0ac" d="M9.2 11q.7 2.1 2.2 3.4.9 2 .7 2.2-.4.5-2.1 1T6.5 20l-5 6q1.7-6.8 3.7-9.9 1.8-2.8 4-5.1"/><path fill="#f9dcad" d="M9.2 11q-2.2 2.3-4 5.1-2 3-3.6 10Q.3 22 0 17q1.3-3.5 3.3-6 1-1.5 2.7-1.5T9.2 11"/><path fill="none" stroke="#e0c8ac" stroke-linecap="round" stroke-linejoin="round" stroke-width="__RESOLUTION__" d="m1.6 26 4.9-6q1.7-2 3.5-2.4 1.6-.5 2-1 .2-.3-.6-2.2-1.5-1.3-2.3-3.4Q7.8 9.6 6 9.6q-1.6 0-2.7 1.5-2 2.5-3.3 6 .3 4.9 1.6 9" vector-effect="non-scaling-stroke"/><path fill="#ebc5af" d="m11.1 11.7-.1-2q.1-2 .7-3.4 2.6 1.2 2.8 3.2l-2.3 1.7z"/><path fill="#e1c1ae" d="m11.7 6.3.2-.4q.7-1.6 1.6-1.6T15 5.9l.5 1.7v.1q-.3 1.1-1 1.8-.3-2-2.9-3.2"/><path fill="#fefefe" d="M15.5 7.7v2q-.1 2.2-.8 3.7l-.9 1.3q-1.5-1.3-1.6-3.5l2.3-1.7q.8-.6 1-1.8"/><path fill="#e4e4e4" d="m13.8 14.7-.8.3q-1 0-1.5-1.6-.4-.7-.4-1.7l1.1-.5q0 2.2 1.6 3.5"/><path fill="none" stroke="#cbb8ac" stroke-linecap="round" stroke-linejoin="round" stroke-width="__RESOLUTION__" d="m11.1 11.7-.1-2q.1-2 .7-3.4l.2-.4q.7-1.6 1.6-1.6T15 5.9l.5 1.7v2.1q-.1 2.1-.9 3.7l-.8 1.3-.8.3q-1 0-1.6-1.6-.3-.7-.3-1.7l1.1-.5 2.3-1.7q.7-.6 1-1.8" vector-effect="non-scaling-stroke"/><path fill="#aaa" d="m14 11-.5.3-.6-.2-.2-.3 1.3-1 .2.6z"/></g><g id="p"><path fill="#ebc5af" d="M5.5 19.5q1.6-5 .9-10.9l-.6-1Q4 4.4 2.7.3L4 0l2.3.2q1.2.6 2.5 2.6 1.3 1.9.8 5.9-.7 4-.5 6.8T7.2 19l-1.6.4zM7.6 7.9l-1.8-.4z"/><path fill="#e1c1ae" d="m5.8 7.6.6 1q.7 5.9-.9 10.9l-3-.2q-1.4-.3.2-4.4t.2-6.5T.3 3.5Q-.9 1.3 2.2.4l.5-.2q1.3 4.1 3 7.4-1.6-.7-1.8.8.3-1.6 1.9-.9"/><path fill="none" stroke="#f9ddae" stroke-linecap="round" stroke-linejoin="round" stroke-width="__RESOLUTION__" d="m5.5 19.5 1.6-.4q2-.8 1.9-3.6t.5-6.7-.8-6Q7.4 1 6.3.3L4 0 2.7.3l-.6.1q-3 .8-1.8 3.2t2.6 4.8-.2 6.5-.2 4.5zm.3-12 1.8.3m-3.7.5q.2-1.5 1.8-.8" vector-effect="non-scaling-stroke"/></g><g id="q"><path fill="#ebc5af" d="m7.4 13.9 5.7-11.4zM5.7 19l-2-4.3 2.6-6.6L13.9 0l1.4 5.4-2.8 6.5z"/><path fill="none" stroke="#f9ddae" stroke-linecap="round" stroke-linejoin="round" stroke-width="__RESOLUTION__" d="M13.1 2.5 7.4 13.9m5.2-2 2.7-6.5L13.9 0 6.3 8.2l-2.6 6.6 2 4.3" vector-effect="non-scaling-stroke"/><path fill="#ebc5af" d="m2.7 17.7 3.9-5.3 4.7-2.8 4 .8-2.7 6.3-3.5 3zm10.9-6.6-3.7 2.8.8-2.7-.8 2.7zm-3.7 2.8-2 1.5z"/><path fill="none" stroke="#f9ddae" stroke-linecap="round" stroke-linejoin="round" stroke-width="__RESOLUTION__" d="m2.7 17.7-2.7 1m9 1 3.6-3 2.7-6.2-4-.9-4.7 2.8-3.9 5.3m8-6.5-.8 2.7 3.7-2.9m-5.7 4.3 2-1.4" vector-effect="non-scaling-stroke"/></g><g id="r"><path fill="#e1cdac" d="M12.7.7Q11 4.7 10 5.5q-1.8-2-3.6-1.2Q4.9 2.7 3 2.7 7.2 2.2 9.3 0z"/><path fill="#f9dcad" d="M3 2.7q1.9 0 3.5 1.6 1.8-.7 3.6 1.2 1-.8 2.6-4.8 1.1 1-.4 5L9.7 9.4q-2.9 2-4.3-1.6-3.3 1-4.1-1.8-.8-1.8.7-3.2zm3.5 1.6Q5.1 5.6 5.4 7.7q-.3-2.1 1.1-3.4"/><path fill="none" stroke="#d6c2ab" stroke-linecap="round" stroke-linejoin="round" stroke-width="__RESOLUTION__" d="M12.7.7 9.3 0Q7.2 2.2 3 2.7l-1 .1Q.6 4.2 1.3 6q.8 2.8 4.1 1.7Q5 5.6 6.5 4.3M5.4 7.7q1.4 3.6 4.3 1.7v-.1l2.6-3.5q1.5-4 .3-5.1" vector-effect="non-scaling-stroke"/><path fill="#d3ccbf" d="M2.2 3.5H3q.8.4 1.3 1.2T4 5.9q-.6.4-.9 2.6-.3 1.3-.9 1.4Q.4 7.3 2 3.4"/><path fill="#ebe4d9" d="m2.3 10-1.1-.4q-.7-.4-1-2.2T.2 5q.4-1 1.2-1.4l.8-.3q-1.7 4 .1 6.5"/><path fill="none" stroke="#c3beb7" stroke-linecap="round" stroke-linejoin="round" stroke-width="__RESOLUTION__" d="M2.2 3.5H3q.8.4 1.3 1.2T4 5.9q-.6.4-.9 2.6-.3 1.3-.9 1.4l-1.1-.3q-.7-.4-1-2.2T.2 5q.4-1 1.2-1.4z" vector-effect="non-scaling-stroke"/><path fill="#ebe4d9" d="m6.1 11.2-1-.6q-.6-.7-.8-2.6-.2-1.8.1-2.3.4-1 1.3-1.2h.7Q4.6 8 6.1 11.1"/><path fill="#d3ccbf" d="m6.5 4.5.9.3q.7.5 1.2 1.5.3 1-.4 1.2T7.1 9.9q-.3 1.3-1 1.3-1.4-3.1.4-6.7"/><path fill="none" stroke="#c3beb7" stroke-linecap="round" stroke-linejoin="round" stroke-width="__RESOLUTION__" d="m6.1 11.2-1-.6q-.6-.7-.8-2.6-.2-1.8.1-2.3.4-1 1.3-1.2h.7l1 .2q.7.5 1.1 1.6.4 1-.3 1.2T7.1 9.9q-.4 1.3-1 1.3" vector-effect="non-scaling-stroke"/></g><g id="s"><path fill="none" stroke="#cfcab9" stroke-linecap="round" stroke-linejoin="round" stroke-width="1" d="M10.5 33.6Q8.1 16.4.4.5"/><path fill="#e9c4af" d="m15.5 47.1.2 1.3q-2.3 6.9-4.9 7.1t-4-6.5q2.5-6.7 2.3-16l2.4-.6q.2 3.3 2 9.4.4 1.9 2 5.3m-4.9 2.1q-.5.1-.8.8l-.2.9v.4q.1.7.6 1.2t.9.3l.8-.8q.3-.6.2-1.3l-.2-.5-.4-.7q-.4-.4-.9-.3"/><path fill="#f6daae" d="M10.6 49.3q.5-.2.9.3l.4.6.2.5-.2 1.4-.8.7q-.5.1-1-.3t-.5-1.2v-.4l.2-.9q.2-.6.8-.7"/><path fill="none" stroke="#f6daae" stroke-linecap="round" stroke-linejoin="round" stroke-width="__RESOLUTION__" d="m15.5 47.1.2 1.3q-2.3 6.9-4.9 7.1t-4-6.5q2.5-6.7 2.3-16l2.4-.6q.2 3.3 2 9.4.4 1.9 2 5.3" vector-effect="non-scaling-stroke"/></g><g id="t"><path fill="none" stroke="#d0cab9" stroke-linecap="round" stroke-linejoin="round" stroke-width="1" d="M10.5 33.6Q8.1 16.4.4.5"/><path fill="#eac5af" d="m15.5 47.1.2 1.3q-2.3 6.9-4.9 7.1t-4-6.5q2.5-6.7 2.3-16l2.4-.6q.2 3.3 2 9.4.4 1.9 2 5.3m-4.9 2.1q-.5.1-.8.8l-.2.9v.4q.1.7.6 1.2t.9.3l.8-.8q.3-.6.2-1.3l-.2-.5-.4-.7q-.4-.4-.9-.3"/><path fill="#f7dbae" d="M10.6 49.3q.5-.2.9.3l.4.6.2.5-.2 1.4-.8.7q-.5.1-1-.3t-.5-1.2v-.4l.2-.9q.2-.6.8-.7"/><path fill="none" stroke="#f7dbae" stroke-linecap="round" stroke-linejoin="round" stroke-width="__RESOLUTION__" d="m15.5 47.1.2 1.3q-2.3 6.9-4.9 7.1t-4-6.5q2.5-6.7 2.3-16l2.4-.6q.2 3.3 2 9.4.4 1.9 2 5.3" vector-effect="non-scaling-stroke"/></g><g id="u"><path fill="#e2a988" d="m21.2 6.8-3.8 3.6L12 10l1.7-6.4L17.6 0l5.9.2z"/><path fill="none" stroke="#f8cd87" stroke-linecap="round" stroke-linejoin="round" stroke-width="__RESOLUTION__" d="M21.2 6.8 23.5.2l-6-.2-3.8 3.6-1.6 6.4" vector-effect="non-scaling-stroke"/><path fill="#e2a988" d="M3.6 15.2H9l5.7 4.4 4.9 8.7-6.3-1-5.6-4.4zm5.7 5 1.5 1.1 2.5 6-2.5-6zm-6.4 0 .9 1.5.5 4.8-.5-4.8zm5.5 10-4.1-3.7-2.9-5.6L0 14.4l3.7 2.9 3 5.5zl-4.6-8.5zm2.4-8.9 8.8 7z"/><path fill="none" stroke="#f8cd87" stroke-linecap="round" stroke-linejoin="round" stroke-width="__RESOLUTION__" d="m19.6 28.3-5-8.7-5.5-4.3-5.5-.1m4 7.7 5.7 4.4-2.5-6-1.5-1.1m-5 6.3-.5-4.8-.9-1.5m-1.5.7 2.9 5.6 4 3.8-4.5-8.6m4.6 8.6-1.7-7.5-3-5.5-3.7-3m13.3 13 6.3 1-8.8-7" vector-effect="non-scaling-stroke"/><path fill="#e2a988" d="m20.9 16.6-4.5-3 9-1.7-9 1.7zl4.5-4.7-7.2-3.3-5.7 1.1-3.7 4.8 6.4 3.2zm-6-2.7 1.5-.3z"/><path fill="none" stroke="#f8cd87" stroke-linecap="round" stroke-linejoin="round" stroke-width="__RESOLUTION__" d="m25.4 11.9-9 1.7 4.5 3zl-7.2-3.3-5.7 1.1-3.7 4.8m6.4 3.2 5.7-1.1m-4.5-3-1.5.3" vector-effect="non-scaling-stroke"/></g><g id="v"><path fill="#d3a387" d="M9.4 0q3.2 0 4.9 2.2 4 4.2 4 10.8-.5 3-2.8 4.2-2.8.8-4.1 0l-1.8-5.3-.6.2Q5.6 10 7 4.9 7.4 3 9.3 0"/><path fill="#e2a988" d="m9 12.2-6-.8q-.9-5.7 2.7-9.8Q7 .2 9.5 0 7.4 3 7 4.8 5.6 10 9 12.2"/><path fill="none" stroke="#f8cd87" stroke-linecap="round" stroke-linejoin="round" stroke-width="__RESOLUTION__" d="M9.4 0q3.2 0 4.9 2.2 4 4.2 4 10.8-.5 3-2.8 4.2-2.8.8-4.1 0m-8.2-5.8q-1-5.7 2.6-9.8Q7 .2 9.5 0" vector-effect="non-scaling-stroke"/><path fill="#dcba83" d="M9.2 11q.7 2.1 2.2 3.4.9 2 .7 2.2-.4.5-2.1 1T6.5 20l-5 6q1.7-6.8 3.7-9.9 1.8-2.8 4-5.1"/><path fill="#f7cc85" d="M9.2 11q-2.2 2.3-4 5.1-2 3-3.6 10Q.3 22 0 17q1.3-3.5 3.3-6 1-1.5 2.7-1.5T9.2 11"/><path fill="none" stroke="#d1ae83" stroke-linecap="round" stroke-linejoin="round" stroke-width="__RESOLUTION__" d="m1.6 26 4.9-6q1.7-2 3.5-2.4 1.6-.5 2-1 .2-.3-.6-2.2-1.5-1.3-2.3-3.4Q7.8 9.6 6 9.6q-1.6 0-2.7 1.5-2 2.5-3.3 6 .3 4.9 1.6 9" vector-effect="non-scaling-stroke"/><path fill="#e2a988" d="m11.1 11.7-.1-2q.1-2 .7-3.4 2.6 1.2 2.8 3.2l-2.3 1.7z"/><path fill="#d3a387" d="m11.7 6.3.2-.4q.7-1.6 1.6-1.6T15 5.9l.5 1.7v.1q-.3 1.1-1 1.8-.3-2-2.9-3.2"/><path fill="#fff" d="M15.5 7.7v2q-.1 2.2-.8 3.7l-.9 1.3q-1.5-1.3-1.6-3.5l2.3-1.7q.8-.6 1-1.8"/><path fill="#d8d8d8" d="m13.8 14.7-.8.3q-1 0-1.5-1.6-.4-.7-.4-1.7l1.1-.5q0 2.2 1.6 3.5"/><path fill="none" stroke="#b39684" stroke-linecap="round" stroke-linejoin="round" stroke-width="__RESOLUTION__" d="m11.1 11.7-.1-2q.1-2 .7-3.4l.2-.4q.7-1.6 1.6-1.6T15 5.9l.5 1.7v2.1q-.1 2.1-.9 3.7l-.8 1.3-.8.3q-1 0-1.6-1.6-.3-.7-.3-1.7l1.1-.5 2.3-1.7q.7-.6 1-1.8" vector-effect="non-scaling-stroke"/><path fill="gray" d="m14 11-.5.3-.6-.2-.2-.3 1.3-1 .2.6z"/></g><g id="w"><path fill="#e2a988" d="M5.5 19.5q1.6-5 .9-10.9l-.6-1Q4 4.4 2.7.3L4 0l2.3.2q1.2.6 2.5 2.6 1.3 1.9.8 5.9-.7 4-.5 6.8T7.2 19l-1.6.4zM7.6 7.9l-1.8-.4z"/><path fill="#d3a387" d="m5.8 7.6.6 1q.7 5.9-.9 10.9l-3-.2q-1.4-.3.2-4.4t.2-6.5T.3 3.5Q-.9 1.3 2.2.4l.5-.2q1.3 4.1 3 7.4-1.6-.7-1.8.8.3-1.6 1.9-.9"/><path fill="none" stroke="#f8cd87" stroke-linecap="round" stroke-linejoin="round" stroke-width="__RESOLUTION__" d="m5.5 19.5 1.6-.4q2-.8 1.9-3.6t.5-6.7-.8-6Q7.4 1 6.3.3L4 0 2.7.3l-.6.1q-3 .8-1.8 3.2t2.6 4.8-.2 6.5-.2 4.5zm.3-12 1.8.3m-3.7.5q.2-1.5 1.8-.8" vector-effect="non-scaling-stroke"/></g><g id="x"><path fill="#e2a988" d="m7.4 13.9 5.7-11.4zM5.7 19l-2-4.3 2.6-6.6L13.9 0l1.4 5.4-2.8 6.5z"/><path fill="none" stroke="#f8cd87" stroke-linecap="round" stroke-linejoin="round" stroke-width="__RESOLUTION__" d="M13.1 2.5 7.4 13.9m5.2-2 2.7-6.5L13.9 0 6.3 8.2l-2.6 6.6 2 4.3" vector-effect="non-scaling-stroke"/><path fill="#e2a988" d="m2.7 17.7 3.9-5.3 4.7-2.8 4 .8-2.7 6.3-3.5 3zm10.9-6.6-3.7 2.8.8-2.7-.8 2.7zm-3.7 2.8-2 1.5z"/><path fill="none" stroke="#f8cd87" stroke-linecap="round" stroke-linejoin="round" stroke-width="__RESOLUTION__" d="m2.7 17.7-2.7 1m9 1 3.6-3 2.7-6.2-4-.9-4.7 2.8-3.9 5.3m8-6.5-.8 2.7 3.7-2.9m-5.7 4.3 2-1.4" vector-effect="non-scaling-stroke"/></g><g id="y"><path fill="#d3b583" d="M12.7.7Q11 4.7 10 5.5q-1.8-2-3.6-1.2Q4.9 2.7 3 2.7 7.2 2.2 9.3 0z"/><path fill="#f7cc85" d="M3 2.7q1.9 0 3.5 1.6 1.8-.7 3.6 1.2 1-.8 2.6-4.8 1.1 1-.4 5L9.7 9.4q-2.9 2-4.3-1.6-3.3 1-4.1-1.8-.8-1.8.7-3.2zm3.5 1.6Q5.1 5.6 5.4 7.7q-.3-2.1 1.1-3.4"/><path fill="none" stroke="#c2a582" stroke-linecap="round" stroke-linejoin="round" stroke-width="__RESOLUTION__" d="M12.7.7 9.3 0Q7.2 2.2 3 2.7l-1 .1Q.6 4.2 1.3 6q.8 2.8 4.1 1.7Q5 5.6 6.5 4.3M5.4 7.7q1.4 3.6 4.3 1.7v-.1l2.6-3.5q1.5-4 .3-5.1" vector-effect="non-scaling-stroke"/><path fill="#beb4a1" d="M2.2 3.5H3q.8.4 1.3 1.2T4 5.9q-.6.4-.9 2.6-.3 1.3-.9 1.4Q.4 7.3 2 3.4"/><path fill="#e2d8c7" d="m2.3 10-1.1-.4q-.7-.4-1-2.2T.2 5q.4-1 1.2-1.4l.8-.3q-1.7 4 .1 6.5"/><path fill="none" stroke="#a69f94" stroke-linecap="round" stroke-linejoin="round" stroke-width="__RESOLUTION__" d="M2.2 3.5H3q.8.4 1.3 1.2T4 5.9q-.6.4-.9 2.6-.3 1.3-.9 1.4l-1.1-.3q-.7-.4-1-2.2T.2 5q.4-1 1.2-1.4z" vector-effect="non-scaling-stroke"/><path fill="#e2d8c7" d="m6.1 11.2-1-.6q-.6-.7-.8-2.6-.2-1.8.1-2.3.4-1 1.3-1.2h.7Q4.6 8 6.1 11.1"/><path fill="#beb4a1" d="m6.5 4.5.9.3q.7.5 1.2 1.5.3 1-.4 1.2T7.1 9.9q-.3 1.3-1 1.3-1.4-3.1.4-6.7"/><path fill="none" stroke="#a69f94" stroke-linecap="round" stroke-linejoin="round" stroke-width="__RESOLUTION__" d="m6.1 11.2-1-.6q-.6-.7-.8-2.6-.2-1.8.1-2.3.4-1 1.3-1.2h.7l1 .2q.7.5 1.1 1.6.4 1-.3 1.2T7.1 9.9q-.4 1.3-1 1.3" vector-effect="non-scaling-stroke"/></g><g id="z"><path fill="none" stroke="#b8af97" stroke-linecap="round" stroke-linejoin="round" stroke-width="1" d="M10.5 33.6Q8.1 16.4.4.5"/><path fill="#dfa887" d="m15.5 47.1.2 1.3q-2.3 6.9-4.9 7.1t-4-6.5q2.5-6.7 2.3-16l2.4-.6q.2 3.3 2 9.4.4 1.9 2 5.3m-4.9 2.1q-.5.1-.8.8l-.2.9v.4q.1.7.6 1.2t.9.3l.8-.8q.3-.6.2-1.3l-.2-.5-.4-.7q-.4-.4-.9-.3"/><path fill="#f2c887" d="M10.6 49.3q.5-.2.9.3l.4.6.2.5-.2 1.4-.8.7q-.5.1-1-.3t-.5-1.2v-.4l.2-.9q.2-.6.8-.7"/><path fill="none" stroke="#f2c887" stroke-linecap="round" stroke-linejoin="round" stroke-width="__RESOLUTION__" d="m15.5 47.1.2 1.3q-2.3 6.9-4.9 7.1t-4-6.5q2.5-6.7 2.3-16l2.4-.6q.2 3.3 2 9.4.4 1.9 2 5.3" vector-effect="non-scaling-stroke"/></g><g id="A"><path fill="none" stroke="#b9b097" stroke-linecap="round" stroke-linejoin="round" stroke-width="1" d="M10.5 33.6Q8.1 16.4.4.5"/><path fill="#e0a887" d="m15.5 47.1.2 1.3q-2.3 6.9-4.9 7.1t-4-6.5q2.5-6.7 2.3-16l2.4-.6q.2 3.3 2 9.4.4 1.9 2 5.3m-4.9 2.1q-.5.1-.8.8l-.2.9v.4q.1.7.6 1.2t.9.3l.8-.8q.3-.6.2-1.3l-.2-.5-.4-.7q-.4-.4-.9-.3"/><path fill="#f4c987" d="M10.6 49.3q.5-.2.9.3l.4.6.2.5-.2 1.4-.8.7q-.5.1-1-.3t-.5-1.2v-.4l.2-.9q.2-.6.8-.7"/><path fill="none" stroke="#f4c987" stroke-linecap="round" stroke-linejoin="round" stroke-width="__RESOLUTION__" d="m15.5 47.1.2 1.3q-2.3 6.9-4.9 7.1t-4-6.5q2.5-6.7 2.3-16l2.4-.6q.2 3.3 2 9.4.4 1.9 2 5.3" vector-effect="non-scaling-stroke"/></g><g id="B"><path fill="#d88c5f" d="m21.2 6.8-3.8 3.6L12 10l1.7-6.4L17.6 0l5.9.2z"/><path fill="none" stroke="#f5bc5f" stroke-linecap="round" stroke-linejoin="round" stroke-width="__RESOLUTION__" d="M21.2 6.8 23.5.2l-6-.2-3.8 3.6-1.6 6.4" vector-effect="non-scaling-stroke"/><path fill="#d88c5f" d="M3.6 15.2H9l5.7 4.4 4.9 8.7-6.3-1-5.6-4.4zm5.7 5 1.5 1.1 2.5 6-2.5-6zm-6.4 0 .9 1.5.5 4.8-.5-4.8zm5.5 10-4.1-3.7-2.9-5.6L0 14.4l3.7 2.9 3 5.5zl-4.6-8.5zm2.4-8.9 8.8 7z"/><path fill="none" stroke="#f5bc5f" stroke-linecap="round" stroke-linejoin="round" stroke-width="__RESOLUTION__" d="m19.6 28.3-5-8.7-5.5-4.3-5.5-.1m4 7.7 5.7 4.4-2.5-6-1.5-1.1m-5 6.3-.5-4.8-.9-1.5m-1.5.7 2.9 5.6 4 3.8-4.5-8.6m4.6 8.6-1.7-7.5-3-5.5-3.7-3m13.3 13 6.3 1-8.8-7" vector-effect="non-scaling-stroke"/><path fill="#d88c5f" d="m20.9 16.6-4.5-3 9-1.7-9 1.7zl4.5-4.7-7.2-3.3-5.7 1.1-3.7 4.8 6.4 3.2zm-6-2.7 1.5-.3z"/><path fill="none" stroke="#f5bc5f" stroke-linecap="round" stroke-linejoin="round" stroke-width="__RESOLUTION__" d="m25.4 11.9-9 1.7 4.5 3zl-7.2-3.3-5.7 1.1-3.7 4.8m6.4 3.2 5.7-1.1m-4.5-3-1.5.3" vector-effect="non-scaling-stroke"/></g><g id="C"><path fill="#c4835e" d="M9.4 0q3.2 0 4.9 2.2 4 4.2 4 10.8-.5 3-2.8 4.2-2.8.8-4.1 0l-1.8-5.3-.6.2Q5.6 10 7 4.9 7.4 3 9.3 0"/><path fill="#d88c5f" d="m9 12.2-6-.8q-.9-5.7 2.7-9.8Q7 .2 9.5 0 7.4 3 7 4.8 5.6 10 9 12.2"/><path fill="none" stroke="#f5bc5f" stroke-linecap="round" stroke-linejoin="round" stroke-width="__RESOLUTION__" d="M9.4 0q3.2 0 4.9 2.2 4 4.2 4 10.8-.5 3-2.8 4.2-2.8.8-4.1 0m-8.2-5.8q-1-5.7 2.6-9.8Q7 .2 9.5 0" vector-effect="non-scaling-stroke"/><path fill="#cfa359" d="M9.2 11q.7 2.1 2.2 3.4.9 2 .7 2.2-.4.5-2.1 1T6.5 20l-5 6q1.7-6.8 3.7-9.9 1.8-2.8 4-5.1"/><path fill="#f4ba5b" d="M9.2 11q-2.2 2.3-4 5.1-2 3-3.6 10Q.3 22 0 17q1.3-3.5 3.3-6 1-1.5 2.7-1.5T9.2 11"/><path fill="none" stroke="#c19259" stroke-linecap="round" stroke-linejoin="round" stroke-width="__RESOLUTION__" d="m1.6 26 4.9-6q1.7-2 3.5-2.4 1.6-.5 2-1 .2-.3-.6-2.2-1.5-1.3-2.3-3.4Q7.8 9.6 6 9.6q-1.6 0-2.7 1.5-2 2.5-3.3 6 .3 4.9 1.6 9" vector-effect="non-scaling-stroke"/><path fill="#d88c5f" d="m11.1 11.7-.1-2q.1-2 .7-3.4 2.6 1.2 2.8 3.2l-2.3 1.7z"/><path fill="#c4835e" d="m11.7 6.3.2-.4q.7-1.6 1.6-1.6T15 5.9l.5 1.7v.1q-.3 1.1-1 1.8-.3-2-2.9-3.2"/><path fill="#fff" d="M15.5 7.7v2q-.1 2.2-.8 3.7l-.9 1.3q-1.5-1.3-1.6-3.5l2.3-1.7q.8-.6 1-1.8"/><path fill="#cbcbcb" d="m13.8 14.7-.8.3q-1 0-1.5-1.6-.4-.7-.4-1.7l1.1-.5q0 2.2 1.6 3.5"/><path fill="none" stroke="#99725b" stroke-linecap="round" stroke-linejoin="round" stroke-width="__RESOLUTION__" d="m11.1 11.7-.1-2q.1-2 .7-3.4l.2-.4q.7-1.6 1.6-1.6T15 5.9l.5 1.7v2.1q-.1 2.1-.9 3.7l-.8 1.3-.8.3q-1 0-1.6-1.6-.3-.7-.3-1.7l1.1-.5 2.3-1.7q.7-.6 1-1.8" vector-effect="non-scaling-stroke"/><path fill="#555" d="m14 11-.5.3-.6-.2-.2-.3 1.3-1 .2.6z"/></g><g id="D"><path fill="#d88c5f" d="M5.5 19.5q1.6-5 .9-10.9l-.6-1Q4 4.4 2.7.3L4 0l2.3.2q1.2.6 2.5 2.6 1.3 1.9.8 5.9-.7 4-.5 6.8T7.2 19l-1.6.4zM7.6 7.9l-1.8-.4z"/><path fill="#c4835e" d="m5.8 7.6.6 1q.7 5.9-.9 10.9l-3-.2q-1.4-.3.2-4.4t.2-6.5T.3 3.5Q-.9 1.3 2.2.4l.5-.2q1.3 4.1 3 7.4-1.6-.7-1.8.8.3-1.6 1.9-.9"/><path fill="none" stroke="#f5bc5f" stroke-linecap="round" stroke-linejoin="round" stroke-width="__RESOLUTION__" d="m5.5 19.5 1.6-.4q2-.8 1.9-3.6t.5-6.7-.8-6Q7.4 1 6.3.3L4 0 2.7.3l-.6.1q-3 .8-1.8 3.2t2.6 4.8-.2 6.5-.2 4.5zm.3-12 1.8.3m-3.7.5q.2-1.5 1.8-.8" vector-effect="non-scaling-stroke"/></g><g id="E"><path fill="#d88c5f" d="m7.4 13.9 5.7-11.4zM5.7 19l-2-4.3 2.6-6.6L13.9 0l1.4 5.4-2.8 6.5z"/><path fill="none" stroke="#f5bc5f" stroke-linecap="round" stroke-linejoin="round" stroke-width="__RESOLUTION__" d="M13.1 2.5 7.4 13.9m5.2-2 2.7-6.5L13.9 0 6.3 8.2l-2.6 6.6 2 4.3" vector-effect="non-scaling-stroke"/><path fill="#d88c5f" d="m2.7 17.7 3.9-5.3 4.7-2.8 4 .8-2.7 6.3-3.5 3zm10.9-6.6-3.7 2.8.8-2.7-.8 2.7zm-3.7 2.8-2 1.5z"/><path fill="none" stroke="#f5bc5f" stroke-linecap="round" stroke-linejoin="round" stroke-width="__RESOLUTION__" d="m2.7 17.7-2.7 1m9 1 3.6-3 2.7-6.2-4-.9-4.7 2.8-3.9 5.3m8-6.5-.8 2.7 3.7-2.9m-5.7 4.3 2-1.4" vector-effect="non-scaling-stroke"/></g><g id="F"><path fill="#c49b59" d="M12.7.7Q11 4.7 10 5.5q-1.8-2-3.6-1.2Q4.9 2.7 3 2.7 7.2 2.2 9.3 0z"/><path fill="#f4ba5b" d="M3 2.7q1.9 0 3.5 1.6 1.8-.7 3.6 1.2 1-.8 2.6-4.8 1.1 1-.4 5L9.7 9.4q-2.9 2-4.3-1.6-3.3 1-4.1-1.8-.8-1.8.7-3.2zm3.5 1.6Q5.1 5.6 5.4 7.7q-.3-2.1 1.1-3.4"/><path fill="none" stroke="#ad8658" stroke-linecap="round" stroke-linejoin="round" stroke-width="__RESOLUTION__" d="M12.7.7 9.3 0Q7.2 2.2 3 2.7l-1 .1Q.6 4.2 1.3 6q.8 2.8 4.1 1.7Q5 5.6 6.5 4.3M5.4 7.7q1.4 3.6 4.3 1.7v-.1l2.6-3.5q1.5-4 .3-5.1" vector-effect="non-scaling-stroke"/><path fill="#a89b81" d="M2.2 3.5H3q.8.4 1.3 1.2T4 5.9q-.6.4-.9 2.6-.3 1.3-.9 1.4Q.4 7.3 2 3.4"/><path fill="#d8cab4" d="m2.3 10-1.1-.4q-.7-.4-1-2.2T.2 5q.4-1 1.2-1.4l.8-.3q-1.7 4 .1 6.5"/><path fill="none" stroke="#887f6f" stroke-linecap="round" stroke-linejoin="round" stroke-width="__RESOLUTION__" d="M2.2 3.5H3q.8.4 1.3 1.2T4 5.9q-.6.4-.9 2.6-.3 1.3-.9 1.4l-1.1-.3q-.7-.4-1-2.2T.2 5q.4-1 1.2-1.4z" vector-effect="non-scaling-stroke"/><path fill="#d8cab4" d="m6.1 11.2-1-.6q-.6-.7-.8-2.6-.2-1.8.1-2.3.4-1 1.3-1.2h.7Q4.6 8 6.1 11.1"/><path fill="#a89b81" d="m6.5 4.5.9.3q.7.5 1.2 1.5.3 1-.4 1.2T7.1 9.9q-.3 1.3-1 1.3-1.4-3.1.4-6.7"/><path fill="none" stroke="#887f6f" stroke-linecap="round" stroke-linejoin="round" stroke-width="__RESOLUTION__" d="m6.1 11.2-1-.6q-.6-.7-.8-2.6-.2-1.8.1-2.3.4-1 1.3-1.2h.7l1 .2q.7.5 1.1 1.6.4 1-.3 1.2T7.1 9.9q-.4 1.3-1 1.3" vector-effect="non-scaling-stroke"/></g><g id="G"><path fill="none" stroke="#9f9473" stroke-linecap="round" stroke-linejoin="round" stroke-width="1" d="M10.5 33.6Q8.1 16.4.4.5"/><path fill="#d38a5f" d="m15.5 47.1.2 1.3q-2.3 6.9-4.9 7.1t-4-6.5q2.5-6.7 2.3-16l2.4-.6q.2 3.3 2 9.4.4 1.9 2 5.3m-4.9 2.1q-.5.1-.8.8l-.2.9v.4q.1.7.6 1.2t.9.3l.8-.8q.3-.6.2-1.3l-.2-.5-.4-.7q-.4-.4-.9-.3"/><path fill="#edb55e" d="M10.6 49.3q.5-.2.9.3l.4.6.2.5-.2 1.4-.8.7q-.5.1-1-.3t-.5-1.2v-.4l.2-.9q.2-.6.8-.7"/><path fill="none" stroke="#edb55e" stroke-linecap="round" stroke-linejoin="round" stroke-width="__RESOLUTION__" d="m15.5 47.1.2 1.3q-2.3 6.9-4.9 7.1t-4-6.5q2.5-6.7 2.3-16l2.4-.6q.2 3.3 2 9.4.4 1.9 2 5.3" vector-effect="non-scaling-stroke"/></g><g id="H"><path fill="none" stroke="#a09574" stroke-linecap="round" stroke-linejoin="round" stroke-width="1" d="M10.5 33.6Q8.1 16.4.4.5"/><path fill="#d58b5f" d="m15.5 47.1.2 1.3q-2.3 6.9-4.9 7.1t-4-6.5q2.5-6.7 2.3-16l2.4-.6q.2 3.3 2 9.4.4 1.9 2 5.3m-4.9 2.1q-.5.1-.8.8l-.2.9v.4q.1.7.6 1.2t.9.3l.8-.8q.3-.6.2-1.3l-.2-.5-.4-.7q-.4-.4-.9-.3"/><path fill="#efb65e" d="M10.6 49.3q.5-.2.9.3l.4.6.2.5-.2 1.4-.8.7q-.5.1-1-.3t-.5-1.2v-.4l.2-.9q.2-.6.8-.7"/><path fill="none" stroke="#efb65e" stroke-linecap="round" stroke-linejoin="round" stroke-width="__RESOLUTION__" d="m15.5 47.1.2 1.3q-2.3 6.9-4.9 7.1t-4-6.5q2.5-6.7 2.3-16l2.4-.6q.2 3.3 2 9.4.4 1.9 2 5.3" vector-effect="non-scaling-stroke"/></g><g id="I"><path fill="#ce7038" d="m21.2 6.8-3.8 3.6L12 10l1.7-6.4L17.6 0l5.9.2z"/><path fill="none" stroke="#f2ab37" stroke-linecap="round" stroke-linejoin="round" stroke-width="__RESOLUTION__" d="M21.2 6.8 23.5.2l-6-.2-3.8 3.6-1.6 6.4" vector-effect="non-scaling-stroke"/><path fill="#ce7038" d="M3.6 15.2H9l5.7 4.4 4.9 8.7-6.3-1-5.6-4.4zm5.7 5 1.5 1.1 2.5 6-2.5-6zm-6.4 0 .9 1.5.5 4.8-.5-4.8zm5.5 10-4.1-3.7-2.9-5.6L0 14.4l3.7 2.9 3 5.5zl-4.6-8.5zm2.4-8.9 8.8 7z"/><path fill="none" stroke="#f2ab37" stroke-linecap="round" stroke-linejoin="round" stroke-width="__RESOLUTION__" d="m19.6 28.3-5-8.7-5.5-4.3-5.5-.1m4 7.7 5.7 4.4-2.5-6-1.5-1.1m-5 6.3-.5-4.8-.9-1.5m-1.5.7 2.9 5.6 4 3.8-4.5-8.6m4.6 8.6-1.7-7.5-3-5.5-3.7-3m13.3 13 6.3 1-8.8-7" vector-effect="non-scaling-stroke"/><path fill="#ce7038" d="m20.9 16.6-4.5-3 9-1.7-9 1.7zl4.5-4.7-7.2-3.3-5.7 1.1-3.7 4.8 6.4 3.2zm-6-2.7 1.5-.3z"/><path fill="none" stroke="#f2ab37" stroke-linecap="round" stroke-linejoin="round" stroke-width="__RESOLUTION__" d="m25.4 11.9-9 1.7 4.5 3zl-7.2-3.3-5.7 1.1-3.7 4.8m6.4 3.2 5.7-1.1m-4.5-3-1.5.3" vector-effect="non-scaling-stroke"/></g><g id="J"><path fill="#b56536" d="M9.4 0q3.2 0 4.9 2.2 4 4.2 4 10.8-.5 3-2.8 4.2-2.8.8-4.1 0l-1.8-5.3-.6.2Q5.6 10 7 4.9 7.4 3 9.3 0"/><path fill="#ce7038" d="m9 12.2-6-.8q-.9-5.7 2.7-9.8Q7 .2 9.5 0 7.4 3 7 4.8 5.6 10 9 12.2"/><path fill="none" stroke="#f2ab37" stroke-linecap="round" stroke-linejoin="round" stroke-width="__RESOLUTION__" d="M9.4 0q3.2 0 4.9 2.2 4 4.2 4 10.8-.5 3-2.8 4.2-2.8.8-4.1 0m-8.2-5.8q-1-5.7 2.6-9.8Q7 .2 9.5 0" vector-effect="non-scaling-stroke"/><path fill="#c48c30" d="M9.2 11q.7 2.1 2.2 3.4.9 2 .7 2.2-.4.5-2.1 1T6.5 20l-5 6q1.7-6.8 3.7-9.9 1.8-2.8 4-5.1"/><path fill="#f1a933" d="M9.2 11q-2.2 2.3-4 5.1-2 3-3.6 10Q.3 22 0 17q1.3-3.5 3.3-6 1-1.5 2.7-1.5T9.2 11"/><path fill="none" stroke="#b27730" stroke-linecap="round" stroke-linejoin="round" stroke-width="__RESOLUTION__" d="m1.6 26 4.9-6q1.7-2 3.5-2.4 1.6-.5 2-1 .2-.3-.6-2.2-1.5-1.3-2.3-3.4Q7.8 9.6 6 9.6q-1.6 0-2.7 1.5-2 2.5-3.3 6 .3 4.9 1.6 9" vector-effect="non-scaling-stroke"/><path fill="#ce7038" d="m11.1 11.7-.1-2q.1-2 .7-3.4 2.6 1.2 2.8 3.2l-2.3 1.7z"/><path fill="#b56536" d="m11.7 6.3.2-.4q.7-1.6 1.6-1.6T15 5.9l.5 1.7v.1q-.3 1.1-1 1.8-.3-2-2.9-3.2"/><path fill="#fff" d="M15.5 7.7v2q-.1 2.2-.8 3.7l-.9 1.3q-1.5-1.3-1.6-3.5l2.3-1.7q.8-.6 1-1.8"/><path fill="#bebebe" d="m13.8 14.7-.8.3q-1 0-1.5-1.6-.4-.7-.4-1.7l1.1-.5q0 2.2 1.6 3.5"/><path fill="none" stroke="#7f4f32" stroke-linecap="round" stroke-linejoin="round" stroke-width="__RESOLUTION__" d="m11.1 11.7-.1-2q.1-2 .7-3.4l.2-.4q.7-1.6 1.6-1.6T15 5.9l.5 1.7v2.1q-.1 2.1-.9 3.7l-.8 1.3-.8.3q-1 0-1.6-1.6-.3-.7-.3-1.7l1.1-.5 2.3-1.7q.7-.6 1-1.8" vector-effect="non-scaling-stroke"/><path fill="#2b2b2b" d="m14 11-.5.3-.6-.2-.2-.3 1.3-1 .2.6z"/></g><g id="K"><path fill="#ce7038" d="M5.5 19.5q1.6-5 .9-10.9l-.6-1Q4 4.4 2.7.3L4 0l2.3.2q1.2.6 2.5 2.6 1.3 1.9.8 5.9-.7 4-.5 6.8T7.2 19l-1.6.4zM7.6 7.9l-1.8-.4z"/><path fill="#b56536" d="m5.8 7.6.6 1q.7 5.9-.9 10.9l-3-.2q-1.4-.3.2-4.4t.2-6.5T.3 3.5Q-.9 1.3 2.2.4l.5-.2q1.3 4.1 3 7.4-1.6-.7-1.8.8.3-1.6 1.9-.9"/><path fill="none" stroke="#f2ab37" stroke-linecap="round" stroke-linejoin="round" stroke-width="__RESOLUTION__" d="m5.5 19.5 1.6-.4q2-.8 1.9-3.6t.5-6.7-.8-6Q7.4 1 6.3.3L4 0 2.7.3l-.6.1q-3 .8-1.8 3.2t2.6 4.8-.2 6.5-.2 4.5zm.3-12 1.8.3m-3.7.5q.2-1.5 1.8-.8" vector-effect="non-scaling-stroke"/></g><g id="L"><path fill="#ce7038" d="m7.4 13.9 5.7-11.4zM5.7 19l-2-4.3 2.6-6.6L13.9 0l1.4 5.4-2.8 6.5z"/><path fill="none" stroke="#f2ab37" stroke-linecap="round" stroke-linejoin="round" stroke-width="__RESOLUTION__" d="M13.1 2.5 7.4 13.9m5.2-2 2.7-6.5L13.9 0 6.3 8.2l-2.6 6.6 2 4.3" vector-effect="non-scaling-stroke"/><path fill="#ce7038" d="m2.7 17.7 3.9-5.3 4.7-2.8 4 .8-2.7 6.3-3.5 3zm10.9-6.6-3.7 2.8.8-2.7-.8 2.7zm-3.7 2.8-2 1.5z"/><path fill="none" stroke="#f2ab37" stroke-linecap="round" stroke-linejoin="round" stroke-width="__RESOLUTION__" d="m2.7 17.7-2.7 1m9 1 3.6-3 2.7-6.2-4-.9-4.7 2.8-3.9 5.3m8-6.5-.8 2.7 3.7-2.9m-5.7 4.3 2-1.4" vector-effect="non-scaling-stroke"/></g><g id="M"><path fill="#b58330" d="M12.7.7Q11 4.7 10 5.5q-1.8-2-3.6-1.2Q4.9 2.7 3 2.7 7.2 2.2 9.3 0z"/><path fill="#f1a933" d="M3 2.7q1.9 0 3.5 1.6 1.8-.7 3.6 1.2 1-.8 2.6-4.8 1.1 1-.4 5L9.7 9.4q-2.9 2-4.3-1.6-3.3 1-4.1-1.8-.8-1.8.7-3.2zm3.5 1.6Q5.1 5.6 5.4 7.7q-.3-2.1 1.1-3.4"/><path fill="none" stroke="#99682f" stroke-linecap="round" stroke-linejoin="round" stroke-width="__RESOLUTION__" d="M12.7.7 9.3 0Q7.2 2.2 3 2.7l-1 .1Q.6 4.2 1.3 6q.8 2.8 4.1 1.7Q5 5.6 6.5 4.3M5.4 7.7q1.4 3.6 4.3 1.7v-.1l2.6-3.5q1.5-4 .3-5.1" vector-effect="non-scaling-stroke"/><path fill="#938261" d="M2.2 3.5H3q.8.4 1.3 1.2T4 5.9q-.6.4-.9 2.6-.3 1.3-.9 1.4Q.4 7.3 2 3.4"/><path fill="#cebda1" d="m2.3 10-1.1-.4q-.7-.4-1-2.2T.2 5q.4-1 1.2-1.4l.8-.3q-1.7 4 .1 6.5"/><path fill="none" stroke="#6b5f4c" stroke-linecap="round" stroke-linejoin="round" stroke-width="__RESOLUTION__" d="M2.2 3.5H3q.8.4 1.3 1.2T4 5.9q-.6.4-.9 2.6-.3 1.3-.9 1.4l-1.1-.3q-.7-.4-1-2.2T.2 5q.4-1 1.2-1.4z" vector-effect="non-scaling-stroke"/><path fill="#cebda1" d="m6.1 11.2-1-.6q-.6-.7-.8-2.6-.2-1.8.1-2.3.4-1 1.3-1.2h.7Q4.6 8 6.1 11.1"/><path fill="#938261" d="m6.5 4.5.9.3q.7.5 1.2 1.5.3 1-.4 1.2T7.1 9.9q-.3 1.3-1 1.3-1.4-3.1.4-6.7"/><path fill="none" stroke="#6b5f4c" stroke-linecap="round" stroke-linejoin="round" stroke-width="__RESOLUTION__" d="m6.1 11.2-1-.6q-.6-.7-.8-2.6-.2-1.8.1-2.3.4-1 1.3-1.2h.7l1 .2q.7.5 1.1 1.6.4 1-.3 1.2T7.1 9.9q-.4 1.3-1 1.3" vector-effect="non-scaling-stroke"/></g><g id="N"><path fill="none" stroke="#887b51" stroke-linecap="round" stroke-linejoin="round" stroke-width="1" d="M10.5 33.6Q8.1 16.4.4.5"/><path fill="#ca6e37" d="m15.5 47.1.2 1.3q-2.3 6.9-4.9 7.1t-4-6.5q2.5-6.7 2.3-16l2.4-.6q.2 3.3 2 9.4.4 1.9 2 5.3m-4.9 2.1q-.5.1-.8.8l-.2.9v.4q.1.7.6 1.2t.9.3l.8-.8q.3-.6.2-1.3l-.2-.5-.4-.7q-.4-.4-.9-.3"/><path fill="#eaa437" d="M10.6 49.3q.5-.2.9.3l.4.6.2.5-.2 1.4-.8.7q-.5.1-1-.3t-.5-1.2v-.4l.2-.9q.2-.6.8-.7"/><path fill="none" stroke="#eaa437" stroke-linecap="round" stroke-linejoin="round" stroke-width="__RESOLUTION__" d="m15.5 47.1.2 1.3q-2.3 6.9-4.9 7.1t-4-6.5q2.5-6.7 2.3-16l2.4-.6q.2 3.3 2 9.4.4 1.9 2 5.3" vector-effect="non-scaling-stroke"/></g><g id="O"><path fill="none" stroke="#897b52" stroke-linecap="round" stroke-linejoin="round" stroke-width="1" d="M10.5 33.6Q8.1 16.4.4.5"/><path fill="#cb6e38" d="m15.5 47.1.2 1.3q-2.3 6.9-4.9 7.1t-4-6.5q2.5-6.7 2.3-16l2.4-.6q.2 3.3 2 9.4.4 1.9 2 5.3m-4.9 2.1q-.5.1-.8.8l-.2.9v.4q.1.7.6 1.2t.9.3l.8-.8q.3-.6.2-1.3l-.2-.5-.4-.7q-.4-.4-.9-.3"/><path fill="#eca537" d="M10.6 49.3q.5-.2.9.3l.4.6.2.5-.2 1.4-.8.7q-.5.1-1-.3t-.5-1.2v-.4l.2-.9q.2-.6.8-.7"/><path fill="none" stroke="#eca537" stroke-linecap="round" stroke-linejoin="round" stroke-width="__RESOLUTION__" d="m15.5 47.1.2 1.3q-2.3 6.9-4.9 7.1t-4-6.5q2.5-6.7 2.3-16l2.4-.6q.2 3.3 2 9.4.4 1.9 2 5.3" vector-effect="non-scaling-stroke"/></g><g id="P"><path fill="#c55310" d="m21.2 6.8-3.8 3.6L12 10l1.7-6.4L17.6 0l5.9.2z"/><path fill="none" stroke="#f09b0f" stroke-linecap="round" stroke-linejoin="round" stroke-width="__RESOLUTION__" d="M21.2 6.8 23.5.2l-6-.2-3.8 3.6-1.6 6.4" vector-effect="non-scaling-stroke"/><path fill="#c55310" d="M3.6 15.2H9l5.7 4.4 4.9 8.7-6.3-1-5.6-4.4zm5.7 5 1.5 1.1 2.5 6-2.5-6zm-6.4 0 .9 1.5.5 4.8-.5-4.8zm5.5 10-4.1-3.7-2.9-5.6L0 14.4l3.7 2.9 3 5.5zl-4.6-8.5zm2.4-8.9 8.8 7z"/><path fill="none" stroke="#f09b0f" stroke-linecap="round" stroke-linejoin="round" stroke-width="__RESOLUTION__" d="m19.6 28.3-5-8.7-5.5-4.3-5.5-.1m4 7.7 5.7 4.4-2.5-6-1.5-1.1m-5 6.3-.5-4.8-.9-1.5m-1.5.7 2.9 5.6 4 3.8-4.5-8.6m4.6 8.6-1.7-7.5-3-5.5-3.7-3m13.3 13 6.3 1-8.8-7" vector-effect="non-scaling-stroke"/><path fill="#c55310" d="m20.9 16.6-4.5-3 9-1.7-9 1.7zl4.5-4.7-7.2-3.3-5.7 1.1-3.7 4.8 6.4 3.2zm-6-2.7 1.5-.3z"/><path fill="none" stroke="#f09b0f" stroke-linecap="round" stroke-linejoin="round" stroke-width="__RESOLUTION__" d="m25.4 11.9-9 1.7 4.5 3zl-7.2-3.3-5.7 1.1-3.7 4.8m6.4 3.2 5.7-1.1m-4.5-3-1.5.3" vector-effect="non-scaling-stroke"/></g><g id="Q"><path fill="#a7460e" d="M9.4 0q3.2 0 4.9 2.2 4 4.2 4 10.8-.5 3-2.8 4.2-2.8.8-4.1 0l-1.8-5.3-.6.2Q5.6 10 7 4.9 7.4 3 9.3 0"/><path fill="#c55310" d="m9 12.2-6-.8q-.9-5.7 2.7-9.8Q7 .2 9.5 0 7.4 3 7 4.8 5.6 10 9 12.2"/><path fill="none" stroke="#f09b0f" stroke-linecap="round" stroke-linejoin="round" stroke-width="__RESOLUTION__" d="M9.4 0q3.2 0 4.9 2.2 4 4.2 4 10.8-.5 3-2.8 4.2-2.8.8-4.1 0m-8.2-5.8q-1-5.7 2.6-9.8Q7 .2 9.5 0" vector-effect="non-scaling-stroke"/><path fill="#b87507" d="M9.2 11q.7 2.1 2.2 3.4.9 2 .7 2.2-.4.5-2.1 1T6.5 20l-5 6q1.7-6.8 3.7-9.9 1.8-2.8 4-5.1"/><path fill="#ef980a" d="M9.2 11q-2.2 2.3-4 5.1-2 3-3.6 10Q.3 22 0 17q1.3-3.5 3.3-6 1-1.5 2.7-1.5T9.2 11"/><path fill="none" stroke="#a35c07" stroke-linecap="round" stroke-linejoin="round" stroke-width="__RESOLUTION__" d="m1.6 26 4.9-6q1.7-2 3.5-2.4 1.6-.5 2-1 .2-.3-.6-2.2-1.5-1.3-2.3-3.4Q7.8 9.6 6 9.6q-1.6 0-2.7 1.5-2 2.5-3.3 6 .3 4.9 1.6 9" vector-effect="non-scaling-stroke"/><path fill="#c55310" d="m11.1 11.7-.1-2q.1-2 .7-3.4 2.6 1.2 2.8 3.2l-2.3 1.7z"/><path fill="#a7460e" d="m11.7 6.3.2-.4q.7-1.6 1.6-1.6T15 5.9l.5 1.7v.1q-.3 1.1-1 1.8-.3-2-2.9-3.2"/><path fill="#fff" d="M15.5 7.7v2q-.1 2.2-.8 3.7l-.9 1.3q-1.5-1.3-1.6-3.5l2.3-1.7q.8-.6 1-1.8"/><path fill="#b1b1b1" d="m13.8 14.7-.8.3q-1 0-1.5-1.6-.4-.7-.4-1.7l1.1-.5q0 2.2 1.6 3.5"/><path fill="none" stroke="#662c09" stroke-linecap="round" stroke-linejoin="round" stroke-width="__RESOLUTION__" d="m11.1 11.7-.1-2q.1-2 .7-3.4l.2-.4q.7-1.6 1.6-1.6T15 5.9l.5 1.7v2.1q-.1 2.1-.9 3.7l-.8 1.3-.8.3q-1 0-1.6-1.6-.3-.7-.3-1.7l1.1-.5 2.3-1.7q.7-.6 1-1.8" vector-effect="non-scaling-stroke"/><path fill="#000" d="m14 11-.5.3-.6-.2-.2-.3 1.3-1 .2.6z"/></g><g id="R"><path fill="#c55310" d="M5.5 19.5q1.6-5 .9-10.9l-.6-1Q4 4.4 2.7.3L4 0l2.3.2q1.2.6 2.5 2.6 1.3 1.9.8 5.9-.7 4-.5 6.8T7.2 19l-1.6.4zM7.6 7.9l-1.8-.4z"/><path fill="#a7460e" d="m5.8 7.6.6 1q.7 5.9-.9 10.9l-3-.2q-1.4-.3.2-4.4t.2-6.5T.3 3.5Q-.9 1.3 2.2.4l.5-.2q1.3 4.1 3 7.4-1.6-.7-1.8.8.3-1.6 1.9-.9"/><path fill="none" stroke="#f09b0f" stroke-linecap="round" stroke-linejoin="round" stroke-width="__RESOLUTION__" d="m5.5 19.5 1.6-.4q2-.8 1.9-3.6t.5-6.7-.8-6Q7.4 1 6.3.3L4 0 2.7.3l-.6.1q-3 .8-1.8 3.2t2.6 4.8-.2 6.5-.2 4.5zm.3-12 1.8.3m-3.7.5q.2-1.5 1.8-.8" vector-effect="non-scaling-stroke"/></g><g id="S"><path fill="#c55310" d="m7.4 13.9 5.7-11.4zM5.7 19l-2-4.3 2.6-6.6L13.9 0l1.4 5.4-2.8 6.5z"/><path fill="none" stroke="#f09b0f" stroke-linecap="round" stroke-linejoin="round" stroke-width="__RESOLUTION__" d="M13.1 2.5 7.4 13.9m5.2-2 2.7-6.5L13.9 0 6.3 8.2l-2.6 6.6 2 4.3" vector-effect="non-scaling-stroke"/><path fill="#c55310" d="m2.7 17.7 3.9-5.3 4.7-2.8 4 .8-2.7 6.3-3.5 3zm10.9-6.6-3.7 2.8.8-2.7-.8 2.7zm-3.7 2.8-2 1.5z"/><path fill="none" stroke="#f09b0f" stroke-linecap="round" stroke-linejoin="round" stroke-width="__RESOLUTION__" d="m2.7 17.7-2.7 1m9 1 3.6-3 2.7-6.2-4-.9-4.7 2.8-3.9 5.3m8-6.5-.8 2.7 3.7-2.9m-5.7 4.3 2-1.4" vector-effect="non-scaling-stroke"/></g><g id="T"><path fill="#a76a07" d="M12.7.7Q11 4.7 10 5.5q-1.8-2-3.6-1.2Q4.9 2.7 3 2.7 7.2 2.2 9.3 0z"/><path fill="#ef980a" d="M3 2.7q1.9 0 3.5 1.6 1.8-.7 3.6 1.2 1-.8 2.6-4.8 1.1 1-.4 5L9.7 9.4q-2.9 2-4.3-1.6-3.3 1-4.1-1.8-.8-1.8.7-3.2zm3.5 1.6Q5.1 5.6 5.4 7.7q-.3-2.1 1.1-3.4"/><path fill="none" stroke="#854a05" stroke-linecap="round" stroke-linejoin="round" stroke-width="__RESOLUTION__" d="M12.7.7 9.3 0Q7.2 2.2 3 2.7l-1 .1Q.6 4.2 1.3 6q.8 2.8 4.1 1.7Q5 5.6 6.5 4.3M5.4 7.7q1.4 3.6 4.3 1.7v-.1l2.6-3.5q1.5-4 .3-5.1" vector-effect="non-scaling-stroke"/><path fill="#7d6942" d="M2.2 3.5H3q.8.4 1.3 1.2T4 5.9q-.6.4-.9 2.6-.3 1.3-.9 1.4Q.4 7.3 2 3.4"/><path fill="#c5b08f" d="m2.3 10-1.1-.4q-.7-.4-1-2.2T.2 5q.4-1 1.2-1.4l.8-.3q-1.7 4 .1 6.5"/><path fill="none" stroke="#4d3f28" stroke-linecap="round" stroke-linejoin="round" stroke-width="__RESOLUTION__" d="M2.2 3.5H3q.8.4 1.3 1.2T4 5.9q-.6.4-.9 2.6-.3 1.3-.9 1.4l-1.1-.3q-.7-.4-1-2.2T.2 5q.4-1 1.2-1.4z" vector-effect="non-scaling-stroke"/><path fill="#c5b08f" d="m6.1 11.2-1-.6q-.6-.7-.8-2.6-.2-1.8.1-2.3.4-1 1.3-1.2h.7Q4.6 8 6.1 11.1"/><path fill="#7d6942" d="m6.5 4.5.9.3q.7.5 1.2 1.5.3 1-.4 1.2T7.1 9.9q-.3 1.3-1 1.3-1.4-3.1.4-6.7"/><path fill="none" stroke="#4d3f28" stroke-linecap="round" stroke-linejoin="round" stroke-width="__RESOLUTION__" d="m6.1 11.2-1-.6q-.6-.7-.8-2.6-.2-1.8.1-2.3.4-1 1.3-1.2h.7l1 .2q.7.5 1.1 1.6.4 1-.3 1.2T7.1 9.9q-.4 1.3-1 1.3" vector-effect="non-scaling-stroke"/></g><g id="U"><path fill="none" stroke="#705f2e" stroke-linecap="round" stroke-linejoin="round" stroke-width="1" d="M10.5 33.6Q8.1 16.4.4.5"/><path fill="#be500f" d="m15.5 47.1.2 1.3q-2.3 6.9-4.9 7.1t-4-6.5q2.5-6.7 2.3-16l2.4-.6q.2 3.3 2 9.4.4 1.9 2 5.3m-4.9 2.1q-.5.1-.8.8l-.2.9v.4q.1.7.6 1.2t.9.3l.8-.8q.3-.6.2-1.3l-.2-.5-.4-.7q-.4-.4-.9-.3"/><path fill="#e5910e" d="M10.6 49.3q.5-.2.9.3l.4.6.2.5-.2 1.4-.8.7q-.5.1-1-.3t-.5-1.2v-.4l.2-.9q.2-.6.8-.7"/><path fill="none" stroke="#e5910e" stroke-linecap="round" stroke-linejoin="round" stroke-width="__RESOLUTION__" d="m15.5 47.1.2 1.3q-2.3 6.9-4.9 7.1t-4-6.5q2.5-6.7 2.3-16l2.4-.6q.2 3.3 2 9.4.4 1.9 2 5.3" vector-effect="non-scaling-stroke"/></g><g id="V"><path fill="none" stroke="#71612f" stroke-linecap="round" stroke-linejoin="round" stroke-width="1" d="M10.5 33.6Q8.1 16.4.4.5"/><path fill="#c1510f" d="m15.5 47.1.2 1.3q-2.3 6.9-4.9 7.1t-4-6.5q2.5-6.7 2.3-16l2.4-.6q.2 3.3 2 9.4.4 1.9 2 5.3m-4.9 2.1q-.5.1-.8.8l-.2.9v.4q.1.7.6 1.2t.9.3l.8-.8q.3-.6.2-1.3l-.2-.5-.4-.7q-.4-.4-.9-.3"/><path fill="#e8930e" d="M10.6 49.3q.5-.2.9.3l.4.6.2.5-.2 1.4-.8.7q-.5.1-1-.3t-.5-1.2v-.4l.2-.9q.2-.6.8-.7"/><path fill="none" stroke="#e8930e" stroke-linecap="round" stroke-linejoin="round" stroke-width="__RESOLUTION__" d="m15.5 47.1.2 1.3q-2.3 6.9-4.9 7.1t-4-6.5q2.5-6.7 2.3-16l2.4-.6q.2 3.3 2 9.4.4 1.9 2 5.3" vector-effect="non-scaling-stroke"/></g><g id="bh"><path fill="#a7460e" d="m51.5 12 2-4.4q2.7 2.4 4.6.2-2 3.5-6.6 4.3 4.7-.8 6.6-4.3-2 2.2-4.5-.2l5.1-2.8 1.6-1.9-.3 6q-.6 2.8-3 3.8zm-45-1.4L2.3 9l-.6-.4Q.3 7.5 0 5.5L1 0q0 4.9 2.3 7.5Q2 5 3.9 3l1.4 5.6zM3.9 3q-2 2.1-.6 4.5Q1.1 4.8 1 0z"/><path fill="none" stroke="#ed960f" stroke-linecap="round" stroke-linejoin="round" stroke-width="__RESOLUTION__" d="m53.6 7.6-2.2 4.5q4.7-.8 6.6-4.3-1.9 2.2-4.5-.2l5.2-2.8m1.5-1.9-.3 6q-.6 2.8-2.9 3.8l-5.6-.6M1 0 0 5.5q.4 2 1.7 3.2l.6.4 4.2 1.5m-1.2-2L4 3q-2 2.1-.6 4.5Q1.1 4.8 1 0l2.9 3" vector-effect="non-scaling-stroke"/></g><g id="bf"><path fill="#a7460e" d="M50.7 45 49 42.3l6.3 4q2.8 2.3 3.3 5.1l-1.8 5.2q.2-5.2-3.1-9.2 1.9 3.2-1.2 4.3zm1.8 6.7q3.1-1.1 1.2-4.3 3.2 4 3.1 9.2zm12.2-14.2.7-5.3L65 30l3.6 3.4q1.4 1.8.9 4l-3.1 4q1.8-4 .6-7.2.4 2.6-2.3 3.3 2.7-.7 2.3-3.3 1.2 3.2-.6 7.2zM21.8 5q.9-2.7 3.4-2.1-3.1-1.5-7.2 0 4.1-1.5 7.2 0-2.5-.6-3.4 2l5.3-.3 2.2.5-3.1-3.8q-1.8-1.6-4-1.2L18 3zM11.4 57.4l-4 2.8-4.2.1L0 56.5q3.6 2.5 7 1.9-2.6-.1-2.8-2.9l5 1.8zm-7.2-1.9q.2 2.8 2.8 2.9-3.4.6-7-2z"/><path fill="none" stroke="#ed960f" stroke-linecap="round" stroke-linejoin="round" stroke-width="__RESOLUTION__" d="m50.7 45 1.8 6.7q3.1-1.1 1.2-4.3 3.2 4 3.1 9.2l1.8-5.2q-.6-2.8-3.3-5.1l-6.3-4m16.4-10.1-.7 5.3q2.7-.7 2.3-3.3 1.2 3.2-.6 7.2l3.1-4q.5-2.2-.9-4L65 30m1.4 11.4-1.7-3.9M52.5 51.7l4.3 4.9M18 3q4.1-1.6 7.3-.1-2.6-.6-3.5 2l5.4-.3m2.1.5-3.1-3.8q-1.8-1.6-4-1.2L18 3l3.8 2M0 56.5l3.3 3.8 4.2-.1 4-2.8m-2.3-.1-5-1.8q.2 2.8 2.8 2.9-3.4.6-7-2l4.2-.9" vector-effect="non-scaling-stroke"/></g><g id="bd"><path fill="#a7460e" d="m47.9 14.4 1-2 .8 4.8q0 2.4-1.7 3.9l-5 1.2q3.9-2.1 4.9-5.4-1.2 2.3-3.8 1.2zM44 18q2.6 1.1 3.8-1.2-1 3.3-4.8 5.4zM28 8l-3.8-3.8-1-4.2 5 1.3Q30 2.8 30 5.1l-.8 4.9zm.4 14.3 1.9-4.5q1.3-2 3.6-2.3l4.7 1.6q-4.4-.4-7 2 2.3-1.4 4 1l-5.3 1zm7.2-2.2q-1.7-2.4-4-1 2.7-2.4 7-2zm-7.9 9.5L34 28q3.4-.3 6.7 1.3l5.4 4.9q-5.8-3.7-11.3-4.2 4.2.9 4.6 3.8l-8.2-3.4zm11.6 4.2q-.3-3-4.5-3.8 5.5.4 11.3 4.2zM0 51.6l1-4.3q2.6 1.1 3.9-1.2-1 3.3-4.9 5.4 3.9-2 4.9-5.4-1.3 2.4-3.9 1.3l3.8-3.8 1-2 .9 4.9q0 2.3-1.8 3.8zM23.4 0q3.8 2.1 4.8 5.5Q27 3 24.4 4.2q2.6-1.1 3.8 1.3-1-3.4-4.8-5.5"/><path fill="none" stroke="#ed960f" stroke-linecap="round" stroke-linejoin="round" stroke-width="__RESOLUTION__" d="M47.9 14.4 44 18q2.6 1.1 3.8-1.2-1 3.3-4.8 5.4l4.9-1.2q1.7-1.6 1.7-3.9l-.8-4.8M28.2 8l-3.9-3.8-1-4.2 5 1.3Q30 2.8 30 5.1l-.8 4.9m9.5 7L34 15.6q-2.2.3-3.5 2.3l-1.9 4.5m1.9-1.1 5.3-1.1q-1.7-2.4-4-1 2.7-2.4 7-2l-3 3m10.5 14.1L41 29.4q-3.4-1.6-6.7-1.3l-6.4 1.7m3.5.7 8.2 3.4q-.4-3-4.6-3.8 5.5.5 11.3 4.2l-6.7-.4M44 18.1l-1 4.2m-42 25-1 4.3q3.9-2.1 4.9-5.5-1.3 2.4-3.9 1.3l3.8-3.8m1-2 .9 4.9q0 2.3-1.8 3.8L0 51.6M24.4 4.1Q27 3 28.2 5.4q-1-3.4-4.8-5.5" vector-effect="non-scaling-stroke"/></g><g id="bb"><path fill="#a7460e" d="m25 0 2.2 4.5q0 2.3-1.8 3.8l-2.5 1.5 4.2 1.5q-5.1-.7-8.8 1.5 3-1.2 4.4 1.3l-6.4.7-2.6 1 3.4-4.5q1.9-1.9 4.6-2l.3-.5.4-5.4Q25 4.7 24 7.2q1.9-3 1-7.2.9 4.3-1 7.2 1-2.5-1.6-3.8zm-2.2 14.1q-1.5-2.5-4.5-1.3 3.7-2.2 8.8-1.5zM21 10.8l1.8-1zm7.5 2-.6 4.9q-.8 2.2-2.9 3l-5-.2q4.2-.8 6.2-3.7-1.8 1.8-4 0l4.7-2.4zm-6.3 4q2.1 1.8 4 0-2 2.8-6.2 3.7zM21.3 0l-1.4 4q-2.5-1.3-4 .9 1.4-3.3 5.4-4.9-4 1.6-5.3 4.9 1.4-2.2 3.9-.9l-4.2 3.5-1.2 1.8-.3-5Q14.4 2 16.3.8zm-10 18.2L8.2 22q-1.7 1.5-4 1.1l-4.1-3q4 1.7 7.3.3-2.6.6-3.4-2.1l5.3.4zm-7.4 0q.8 2.8 3.4 2.2Q4 21.8 0 20.2z"/><path fill="none" stroke="#ed960f" stroke-linecap="round" stroke-linejoin="round" stroke-width="__RESOLUTION__" d="m22.9 9.8 2.5-1.5q1.8-1.5 1.8-3.8L25 0q.9 4.3-1 7.2 1-2.5-1.6-3.8L22 8.8m-.2.5q-2.8.1-4.8 2l-3.2 4.5m2.4-1 6.6-.7q-1.5-2.5-4.5-1.3 3.7-2.2 8.8-1.5l-4.2-1.5-1.8 1m-1 9.7 5 .3q2.1-.9 2.9-3.2l.6-4.9m-1.5 1.6-4.9 2.5q2.3 1.8 4.1 0-2 2.8-6.2 3.7l2.1-3.7m.6-2.7 4.3-2.8M19.9 4l1.4-4q-4 1.7-5.3 4.9 1.4-2.2 3.9-.8l-4.2 3.4m-1.2 1.8-.3-5Q14.4 2 16.3.9l5-.8M0 20.2 4.1 23q2.3.4 4-1.1l3.2-3.8m-2.1.5-5.4-.5q.9 2.7 3.4 2.2Q4 21.8 0 20.1l3.8-1.9M25 0l-2.6 3.4" vector-effect="non-scaling-stroke"/></g><use xlink:href="#a" id="ba" width="25.4" height="30.3"/><use xlink:href="#b" id="aZ" width="18.4" height="26.1"/><use xlink:href="#c" id="aY" width="9.7" height="19.6"/><use xlink:href="#d" id="aX" width="15.3" height="19.8"/><use xlink:href="#e" id="aW" width="13.2" height="11.2"/><use xlink:href="#f" id="aV" width="15.8" height="55.5"/><use xlink:href="#g" id="aT" width="25.4" height="30.3"/><use xlink:href="#h" id="aS" width="18.4" height="26.1"/><use xlink:href="#i" id="aR" width="9.7" height="19.6"/><use xlink:href="#j" id="aQ" width="15.3" height="19.8"/><use xlink:href="#k" id="aP" width="13.2" height="11.2"/><use xlink:href="#l" id="aO" width="15.8" height="55.5"/><use xlink:href="#m" id="aN" width="15.8" height="55.5"/><use xlink:href="#n" id="aL" width="25.4" height="30.3"/><use xlink:href="#o" id="aK" width="18.4" height="26.1"/><use xlink:href="#p" id="aJ" width="9.7" height="19.6"/><use xlink:href="#q" id="aI" width="15.3" height="19.8"/><use xlink:href="#r" id="aH" width="13.2" height="11.2"/><use xlink:href="#s" id="aG" width="15.8" height="55.5"/><use xlink:href="#t" id="aF" width="15.8" height="55.5"/><use xlink:href="#u" id="aD" width="25.4" height="30.3"/><use xlink:href="#v" id="aC" width="18.4" height="26.1"/><use xlink:href="#w" id="aB" width="9.7" height="19.6"/><use xlink:href="#x" id="aA" width="15.3" height="19.8"/><use xlink:href="#y" id="az" width="13.2" height="11.2"/><use xlink:href="#z" id="ay" width="15.8" height="55.5"/><use xlink:href="#A" id="ax" width="15.8" height="55.5"/><use xlink:href="#B" id="av" width="25.4" height="30.3"/><use xlink:href="#C" id="au" width="18.4" height="26.1"/><use xlink:href="#D" id="at" width="9.7" height="19.6"/><use xlink:href="#E" id="as" width="15.3" height="19.8"/><use xlink:href="#F" id="ar" width="13.2" height="11.2"/><use xlink:href="#G" id="aq" width="15.8" height="55.5"/><use xlink:href="#H" id="ap" width="15.8" height="55.5"/><use xlink:href="#I" id="an" width="25.4" height="30.3"/><use xlink:href="#J" id="am" width="18.4" height="26.1"/><use xlink:href="#K" id="al" width="9.7" height="19.6"/><use xlink:href="#L" id="ak" width="15.3" height="19.8"/><use xlink:href="#M" id="aj" width="13.2" height="11.2"/><use xlink:href="#N" id="ai" width="15.8" height="55.5"/><use xlink:href="#O" id="ah" width="15.8" height="55.5"/><use xlink:href="#P" id="af" width="25.4" height="30.3"/><use xlink:href="#Q" id="ae" width="18.4" height="26.1"/><use xlink:href="#R" id="ad" width="9.7" height="19.6"/><use xlink:href="#S" id="ac" width="15.3" height="19.8"/><use xlink:href="#T" id="ab" width="13.2" height="11.2"/><use xlink:href="#U" id="aa" width="15.8" height="55.5"/><use xlink:href="#V" id="Z" width="15.8" height="55.5"/><use xlink:href="#W" id="Y" width="14.7" height="4.3"/><clipPath id="X"><path d="M1 1h80v98H1z"/></clipPath><clipPath id="ag"><path d="M82 1h80v98H82z"/></clipPath><clipPath id="ao"><path d="M163 1h80v98h-80z"/></clipPath><clipPath id="aw"><path d="M244 1h80v98h-80z"/></clipPath><clipPath id="aE"><path d="M325 1h80v98h-80z"/></clipPath><clipPath id="aM"><path d="M406 1h80v98h-80z"/></clipPath><clipPath id="aU"><path d="M487 1h80v98h-80z"/></clipPath><clipPath id="bc"><path d="M568 1h80v98h-80z"/></clipPath><clipPath id="be"><path d="M649 1h80v98h-80z"/></clipPath><clipPath id="bg"><path d="M730 1h80v98h-80z"/></clipPath><path id="W" fill="#382c16" d="M5.8-1.9Q7.9-1.4 8-.5 8 .3 5.9 1 3.8 1.8.7 2l-5.2-.4Q-6.7 1.2-6.7.3q-.1-.8 2-1.6 2.2-.8 5.2-.9z" transform="translate(6.75 2.25)"/></defs><g clip-path="url(#X)"><g transform="translate(37.55 96)"><use xlink:href="#Y" width="14.7" height="4.3" transform="translate(-6.85 -2.15)"/><use xlink:href="#Z" width="15.8" height="55.5" transform="matrix(.262 1.1808 .3014 .0048 -1.3 -46.9)"/><use xlink:href="#aa" width="15.8" height="55.5" transform="matrix(.8942 .157 .0902 -.3745 1.9 -50.75)"/><use xlink:href="#ab" width="13.2" height="11.2" transform="matrix(.4334 .7445 -.9947 .3473 -12.35 -64.15)"/><use xlink:href="#ac" width="15.3" height="19.8" transform="matrix(-.3726 -1.6098 1.2323 -.2852 -21.45 -51.7)"/><use xlink:href="#ad" width="9.7" height="19.6" transform="matrix(.7569 .7029 -.6125 .7419 5.3 -66.1)"/><use xlink:href="#ae" width="18.4" height="26.1" transform="rotate(-5.8 -769.114 26.334)scale(.9983)"/><use xlink:href="#ab" width="13.2" height="11.2" transform="translate(-10.25 -41.7)"/><use xlink:href="#af" width="25.4" height="30.3" transform="rotate(39.338 114.743 -4.257)scale(.9984)"/></g></g><g clip-path="url(#ag)"><g transform="translate(118.55 96)"><use xlink:href="#Y" width="14.7" height="4.3" transform="translate(-6.85 -2.15)"/><use xlink:href="#ah" width="15.8" height="55.5" transform="matrix(.6099 1.0419 .2879 -.0881 -1.15 -49.7)"/><use xlink:href="#ai" width="15.8" height="55.5" transform="matrix(.9072 .0202 .0322 -.3836 2.25 -52.1)"/><use xlink:href="#aj" width="13.2" height="11.2" transform="matrix(.6042 .6115 -.8736 .5852 -12.75 -65.25)"/><use xlink:href="#ak" width="15.3" height="19.8" transform="matrix(-.5254 -1.5645 1.1976 -.4022 -19 -50.65)"/><use xlink:href="#al" width="9.7" height="19.6" transform="matrix(.822 .6223 -.5349 .7976 4.15 -67.65)"/><use xlink:href="#am" width="18.4" height="26.1" transform="rotate(-14.824 -294.137 -2.89)scale(.997)"/><use xlink:href="#aj" width="13.2" height="11.2" transform="rotate(-11.035 -233.442 28.908)scale(.9989)"/><use xlink:href="#an" width="25.4" height="30.3" transform="rotate(33.604 134.243 -7.2)scale(.9967)"/></g></g><g clip-path="url(#ao)"><g transform="translate(199.55 96)"><use xlink:href="#Y" width="14.7" height="4.3" transform="translate(-6.85 -2.15)"/><use xlink:href="#ap" width="15.8" height="55.5" transform="matrix(.902 .8014 .2468 -.1719 -.95 -52.35)"/><use xlink:href="#aq" width="15.8" height="55.5" transform="matrix(.8995 -.1145 -.0238 -.3841 2.55 -53.55)"/><use xlink:href="#ar" width="13.2" height="11.2" transform="matrix(.7397 .4375 -.698 .7855 -13.25 -65.9)"/><use xlink:href="#as" width="15.3" height="19.8" transform="matrix(-.6788 -1.5034 1.1508 -.5196 -16.5 -49.7)"/><use xlink:href="#at" width="9.7" height="19.6" transform="matrix(.8782 .5398 -.4552 .8455 3.05 -69.1)"/><use xlink:href="#au" width="18.4" height="26.1" transform="rotate(-24.082 -176.573 -10.339)scale(.9962)"/><use xlink:href="#ar" width="13.2" height="11.2" transform="rotate(-22.085 -123.689 .065)scale(.998)"/><use xlink:href="#av" width="25.4" height="30.3" transform="rotate(28.057 160.94 -11.51)scale(.9965)"/></g></g><g clip-path="url(#aw)"><g transform="translate(280.55 96)"><use xlink:href="#Y" width="14.7" height="4.3" transform="translate(-6.85 -2.15)"/><use xlink:href="#ax" width="15.8" height="55.5" transform="matrix(1.1058 .4828 .1814 -.2398 -.8 -55.05)"/><use xlink:href="#ay" width="15.8" height="55.5" transform="matrix(.8718 -.2466 -.0817 -.3757 3 -54.95)"/><use xlink:href="#az" width="13.2" height="11.2" transform="matrix(.8259 .2377 -.4781 .9355 -13.6 -66.05)"/><use xlink:href="#aA" width="15.3" height="19.8" transform="matrix(-.8206 -1.4301 1.0947 -.6282 -13.65 -48.8)"/><use xlink:href="#aB" width="9.7" height="19.6" transform="matrix(.9277 .4492 -.3683 .8867 1.9 -70.5)"/><use xlink:href="#aC" width="18.4" height="26.1" transform="matrix(.8317 -.5472 .5472 .8317 -13 -70.4)"/><use xlink:href="#az" width="13.2" height="11.2" transform="rotate(-33.335 -85.24 -10.69)scale(.997)"/><use xlink:href="#aD" width="25.4" height="30.3" transform="rotate(22.318 203.652 -17.527)scale(.9964)"/></g></g><g clip-path="url(#aE)"><g transform="translate(361.55 96)"><use xlink:href="#Y" width="14.7" height="4.3" transform="translate(-6.85 -2.15)"/><use xlink:href="#aF" width="15.8" height="55.5" transform="matrix(1.2011 .1213 .0983 -.2842 -.55 -57.75)"/><use xlink:href="#aG" width="15.8" height="55.5" transform="matrix(.8248 -.373 -.1365 -.3591 3.4 -56.4)"/><use xlink:href="#aH" width="13.2" height="11.2" transform="matrix(.8593 .023 -.2279 1.0257 -13.95 -65.9)"/><use xlink:href="#aI" width="15.3" height="19.8" transform="matrix(-.9592 -1.3403 1.026 -.7343 -10.6 -47.9)"/><use xlink:href="#aJ" width="9.7" height="19.6" transform="matrix(.9668 .3574 -.2779 .9191 .6 -71.75)"/><use xlink:href="#aK" width="18.4" height="26.1" transform="rotate(-42.61 -94.114 -15.284)scale(.995)"/><use xlink:href="#aH" width="13.2" height="11.2" transform="rotate(-44.398 -65.669 -17.007)scale(.9964)"/><use xlink:href="#aL" width="25.4" height="30.3" transform="rotate(16.775 273.214 -28.156)scale(.9965)"/></g></g><g clip-path="url(#aM)"><g transform="translate(442.55 96)"><use xlink:href="#Y" width="14.7" height="4.3" transform="translate(-6.85 -2.15)"/><use xlink:href="#aN" width="15.8" height="55.5" transform="matrix(1.1798 -.2515 .0067 -.3008 -.2 -60.45)"/><use xlink:href="#aO" width="15.8" height="55.5" transform="matrix(.7581 -.4937 -.1882 -.3346 3.7 -57.8)"/><use xlink:href="#aP" width="13.2" height="11.2" transform="matrix(.8373 -.1903 .0331 1.0502 -13.85 -65.25)"/><use xlink:href="#aQ" width="15.3" height="19.8" transform="matrix(-1.084 -1.2408 .9498 -.8298 -7.4 -47.3)"/><use xlink:href="#aR" width="9.7" height="19.6" transform="matrix(.9977 .259 -.1878 .9417 -.55 -72.9)"/><use xlink:href="#aS" width="18.4" height="26.1" transform="rotate(-51.876 -74.72 -16.386)scale(.9946)"/><use xlink:href="#aP" width="13.2" height="11.2" transform="rotate(-55.65 -52.787 -21.501)scale(.996)"/><use xlink:href="#aT" width="25.4" height="30.3" transform="rotate(11.038 419.897 -48.93)scale(.9965)"/></g></g><g clip-path="url(#aU)"><g transform="translate(523.55 96)"><use xlink:href="#Y" width="14.7" height="4.3" transform="translate(-6.85 -2.15)"/><use xlink:href="#aV" width="15.8" height="55.5" transform="matrix(1.0446 -.6039 -.0859 -.2882 .15 -63.2)"/><use xlink:href="#aV" width="15.8" height="55.5" transform="matrix(.6763 -.6023 -.2372 -.3024 4.2 -59.2)"/><use xlink:href="#aW" width="13.2" height="11.2" transform="matrix(.7621 -.3961 .2984 1.0071 -13.45 -64.35)"/><use xlink:href="#aX" width="15.3" height="19.8" transform="matrix(-1.2043 -1.1277 .8633 -.9219 -3.95 -46.75)"/><use xlink:href="#aY" width="9.7" height="19.6" transform="matrix(1.0186 .1619 -.0954 .9558 -1.6 -73.9)"/><use xlink:href="#aZ" width="18.4" height="26.1" transform="rotate(-60.982 -61.236 -17.19)scale(.9957)"/><use xlink:href="#aW" width="13.2" height="11.2" transform="rotate(-66.71 -43.617 -25.118)scale(.997)"/><use xlink:href="#ba" width="25.4" height="30.3" transform="rotate(5.492 855.236 -109.983)scale(.9969)"/><use xlink:href="#bb" width="28.6" height="23.2" transform="translate(-22.6 -73.2)"/></g></g><g clip-path="url(#bc)"><use xlink:href="#bd" width="49.7" height="51.5" transform="translate(579 3.05)"/></g><g clip-path="url(#be)"><use xlink:href="#bf" width="69.7" height="60.8" transform="translate(654.1 1)"/></g><g clip-path="url(#bg)"><use xlink:href="#bh" width="60.3" height="12.7" transform="translate(730 48.25)"/></g></svg>