<svg xmlns="http://www.w3.org/2000/svg" xmlns:xlink="http://www.w3.org/1999/xlink" width="1837" height="24" viewBox="0 0 1837 24"><defs><path id="a" fill="#c9e9dd" d="M4.2-.1 4.7 1q.6 1.4.2 2-1 1.7-2.6 1.3l-6-2.1Q-6 1.4-4.3-.4l3.1-3.2q.9-.8 1.6-.8 1.3 0 2.3.9Q2.8-2.4 4-.2" transform="translate(5.05 4.4)"/><path id="b" fill="#94cab9" d="m-1-2 2.3.6Q4-.7 4.7 0l-1 1.2-1.8 1.2q-3 .2-4.2-.7-1.8-1-2.3-3L-2-2.4z" transform="translate(4.6 2.4)"/><path id="c" fill="#c9e9dd" d="M3.9 0q0 1.3-1.1 2.3h-.1q-1.2 1-2.8 1L-1 3q-1-.2-1.7-.8-1-1-1-2.3t1.1-2.3 2.8-1h.4v.1q1.3 0 2.3.9Q4-1.4 4-.1" transform="translate(3.85 3.25)"/><path id="d" fill="#94cab9" d="m7.2-3.9.2.9Q4.2-.5 3.6 3l-8.8.8-1.4-.2-.1.3-.3-2q0-.7-.3-1L-6 .3l5.1-2 7.7-2.1z" transform="translate(7.35 3.9)"/><path id="e" fill="#c9e9dd" d="M0-2.4q0-.4.2-.7.3-.6.8-.3t.8 1.2L2.3 0l.5 2.5q.3 1.1-.2.9l-.7-.6v.4q-.1.2-1.3-.7l-2-1.9-1.3-1.9q-.4-.8.2-.4H-1q1.1-.2 1-.8" transform="translate(2.85 3.55)"/><path id="f" fill="#cdebdf" d="M4.2-.1 4.7 1q.6 1.4.2 2-1 1.7-2.6 1.3l-6-2.1Q-6 1.4-4.3-.4l3.1-3.2q.9-.8 1.6-.8 1.3 0 2.3.9Q2.8-2.4 4-.2" transform="translate(5.05 4.4)"/><path id="g" fill="#9ccebe" d="m-1-2 2.3.6Q4-.7 4.7 0l-1 1.2-1.8 1.2q-3 .2-4.2-.7-1.8-1-2.3-3L-2-2.4z" transform="translate(4.6 2.4)"/><path id="h" fill="#cdebdf" d="M3.9 0q0 1.3-1.1 2.3h-.1q-1.2 1-2.8 1L-1 3q-1-.2-1.7-.8-1-1-1-2.3t1.1-2.3 2.8-1h.4v.1q1.3 0 2.3.9Q4-1.4 4-.1" transform="translate(3.85 3.25)"/><path id="i" fill="#9ccebe" d="m7.2-3.9.2.9Q4.2-.5 3.6 3l-8.8.8-1.4-.2-.1.3-.3-2q0-.7-.3-1L-6 .3l5.1-2 7.7-2.1z" transform="translate(7.35 3.9)"/><path id="j" fill="#cdebdf" d="M0-2.4q0-.4.2-.7.3-.6.8-.3t.8 1.2L2.3 0l.5 2.5q.3 1.1-.2.9l-.7-.6v.4q-.1.2-1.3-.7l-2-1.9-1.3-1.9q-.4-.8.2-.4H-1q1.1-.2 1-.8" transform="translate(2.85 3.55)"/><path id="k" fill="#d1ece2" d="M4.2-.1 4.7 1q.6 1.4.2 2-1 1.7-2.6 1.3l-6-2.1Q-6 1.4-4.3-.4l3.1-3.2q.9-.8 1.6-.8 1.3 0 2.3.9Q2.8-2.4 4-.2" transform="translate(5.05 4.4)"/><path id="l" fill="#a3d2c3" d="m-1-2 2.3.6Q4-.7 4.7 0l-1 1.2-1.8 1.2q-3 .2-4.2-.7-1.8-1-2.3-3L-2-2.4z" transform="translate(4.6 2.4)"/><path id="m" fill="#d1ece2" d="M3.9 0q0 1.3-1.1 2.3h-.1q-1.2 1-2.8 1L-1 3q-1-.2-1.7-.8-1-1-1-2.3t1.1-2.3 2.8-1h.4v.1q1.3 0 2.3.9Q4-1.4 4-.1" transform="translate(3.85 3.25)"/><path id="n" fill="#a3d2c3" d="m7.2-3.9.2.9Q4.2-.5 3.6 3l-8.8.8-1.4-.2-.1.3-.3-2q0-.7-.3-1L-6 .3l5.1-2 7.7-2.1z" transform="translate(7.35 3.9)"/><path id="o" fill="#d1ece2" d="M0-2.4q0-.4.2-.7.3-.6.8-.3t.8 1.2L2.3 0l.5 2.5q.3 1.1-.2.9l-.7-.6v.4q-.1.2-1.3-.7l-2-1.9-1.3-1.9q-.4-.8.2-.4H-1q1.1-.2 1-.8" transform="translate(2.85 3.55)"/><path id="p" fill="#96cbbb" d="m7.2-3.9.2.9Q4.2-.5 3.6 3l-8.8.8-1.4-.2-.1.3-.3-2q0-.7-.3-1L-6 .3l5.1-2 7.7-2.1z" transform="translate(7.35 3.9)"/><path id="q" fill="#d5eee4" d="M4.2-.1 4.7 1q.6 1.4.2 2-1 1.7-2.6 1.3l-6-2.1Q-6 1.4-4.3-.4l3.1-3.2q.9-.8 1.6-.8 1.3 0 2.3.9Q2.8-2.4 4-.2" transform="translate(5.05 4.4)"/><path id="r" fill="#abd6c8" d="m-1-2 2.3.6Q4-.7 4.7 0l-1 1.2-1.8 1.2q-3 .2-4.2-.7-1.8-1-2.3-3L-2-2.4z" transform="translate(4.6 2.4)"/><path id="s" fill="#d5eee4" d="M3.9 0q0 1.3-1.1 2.3h-.1q-1.2 1-2.8 1L-1 3q-1-.2-1.7-.8-1-1-1-2.3t1.1-2.3 2.8-1h.4v.1q1.3 0 2.3.9Q4-1.4 4-.1" transform="translate(3.85 3.25)"/><path id="t" fill="#abd6c8" d="m7.2-3.9.2.9Q4.2-.5 3.6 3l-8.8.8-1.4-.2-.1.3-.3-2q0-.7-.3-1L-6 .3l5.1-2 7.7-2.1z" transform="translate(7.35 3.9)"/><path id="u" fill="#d5eee4" d="M0-2.4q0-.4.2-.7.3-.6.8-.3t.8 1.2L2.3 0l.5 2.5q.3 1.1-.2.9l-.7-.6v.4q-.1.2-1.3-.7l-2-1.9-1.3-1.9q-.4-.8.2-.4H-1q1.1-.2 1-.8" transform="translate(2.85 3.55)"/><path id="v" fill="#a0d0c1" d="m7.2-3.9.2.9Q4.2-.5 3.6 3l-8.8.8-1.4-.2-.1.3-.3-2q0-.7-.3-1L-6 .3l5.1-2 7.7-2.1z" transform="translate(7.35 3.9)"/><path id="w" fill="#d9efe7" d="M4.2-.1 4.7 1q.6 1.4.2 2-1 1.7-2.6 1.3l-6-2.1Q-6 1.4-4.3-.4l3.1-3.2q.9-.8 1.6-.8 1.3 0 2.3.9Q2.8-2.4 4-.2" transform="translate(5.05 4.4)"/><path id="x" fill="#b3d9cd" d="m-1-2 2.3.6Q4-.7 4.7 0l-1 1.2-1.8 1.2q-3 .2-4.2-.7-1.8-1-2.3-3L-2-2.4z" transform="translate(4.6 2.4)"/><path id="y" fill="#d9efe7" d="M3.9 0q0 1.3-1.1 2.3h-.1q-1.2 1-2.8 1L-1 3q-1-.2-1.7-.8-1-1-1-2.3t1.1-2.3 2.8-1h.4v.1q1.3 0 2.3.9Q4-1.4 4-.1" transform="translate(3.85 3.25)"/><path id="z" fill="#b3d9cd" d="m7.2-3.9.2.9Q4.2-.5 3.6 3l-8.8.8-1.4-.2-.1.3-.3-2q0-.7-.3-1L-6 .3l5.1-2 7.7-2.1z" transform="translate(7.35 3.9)"/><path id="A" fill="#d9efe7" d="M0-2.4q0-.4.2-.7.3-.6.8-.3t.8 1.2L2.3 0l.5 2.5q.3 1.1-.2.9l-.7-.6v.4q-.1.2-1.3-.7l-2-1.9-1.3-1.9q-.4-.8.2-.4H-1q1.1-.2 1-.8" transform="translate(2.85 3.55)"/><path id="B" fill="#a9d5c7" d="m7.2-3.9.2.9Q4.2-.5 3.6 3l-8.8.8-1.4-.2-.1.3-.3-2q0-.7-.3-1L-6 .3l5.1-2 7.7-2.1z" transform="translate(7.35 3.9)"/><path id="C" fill="#ddf1e9" d="M4.2-.1 4.7 1q.6 1.4.2 2-1 1.7-2.6 1.3l-6-2.1Q-6 1.4-4.3-.4l3.1-3.2q.9-.8 1.6-.8 1.3 0 2.3.9Q2.8-2.4 4-.2" transform="translate(5.05 4.4)"/><path id="D" fill="#baddd2" d="m-1-2 2.3.6Q4-.7 4.7 0l-1 1.2-1.8 1.2q-3 .2-4.2-.7-1.8-1-2.3-3L-2-2.4z" transform="translate(4.6 2.4)"/><path id="E" fill="#ddf1e9" d="M3.9 0q0 1.3-1.1 2.3h-.1q-1.2 1-2.8 1L-1 3q-1-.2-1.7-.8-1-1-1-2.3t1.1-2.3 2.8-1h.4v.1q1.3 0 2.3.9Q4-1.4 4-.1" transform="translate(3.85 3.25)"/><path id="F" fill="#baddd2" d="m7.2-3.9.2.9Q4.2-.5 3.6 3l-8.8.8-1.4-.2-.1.3-.3-2q0-.7-.3-1L-6 .3l5.1-2 7.7-2.1z" transform="translate(7.35 3.9)"/><path id="G" fill="#ddf1e9" d="M0-2.4q0-.4.2-.7.3-.6.8-.3t.8 1.2L2.3 0l.5 2.5q.3 1.1-.2.9l-.7-.6v.4q-.1.2-1.3-.7l-2-1.9-1.3-1.9q-.4-.8.2-.4H-1q1.1-.2 1-.8" transform="translate(2.85 3.55)"/><path id="H" fill="#e0f3ec" d="M4.2-.1 4.7 1q.6 1.4.2 2-1 1.7-2.6 1.3l-6-2.1Q-6 1.4-4.3-.4l3.1-3.2q.9-.8 1.6-.8 1.3 0 2.3.9Q2.8-2.4 4-.2" transform="translate(5.05 4.4)"/><path id="I" fill="#c2e1d7" d="m-1-2 2.3.6Q4-.7 4.7 0l-1 1.2-1.8 1.2q-3 .2-4.2-.7-1.8-1-2.3-3L-2-2.4z" transform="translate(4.6 2.4)"/><path id="J" fill="#e0f3ec" d="M3.9 0q0 1.3-1.1 2.3h-.1q-1.2 1-2.8 1L-1 3q-1-.2-1.7-.8-1-1-1-2.3t1.1-2.3 2.8-1h.4v.1q1.3 0 2.3.9Q4-1.4 4-.1" transform="translate(3.85 3.25)"/><path id="K" fill="#c2e1d7" d="m7.2-3.9.2.9Q4.2-.5 3.6 3l-8.8.8-1.4-.2-.1.3-.3-2q0-.7-.3-1L-6 .3l5.1-2 7.7-2.1z" transform="translate(7.35 3.9)"/><path id="L" fill="#e0f3ec" d="M0-2.4q0-.4.2-.7.3-.6.8-.3t.8 1.2L2.3 0l.5 2.5q.3 1.1-.2.9l-.7-.6v.4q-.1.2-1.3-.7l-2-1.9-1.3-1.9q-.4-.8.2-.4H-1q1.1-.2 1-.8" transform="translate(2.85 3.55)"/><path id="M" fill="#bcddd3" d="m7.2-3.9.2.9Q4.2-.5 3.6 3l-8.8.8-1.4-.2-.1.3-.3-2q0-.7-.3-1L-6 .3l5.1-2 7.7-2.1z" transform="translate(7.35 3.9)"/><path id="N" fill="#e4f4ee" d="M4.2-.1 4.7 1q.6 1.4.2 2-1 1.7-2.6 1.3l-6-2.1Q-6 1.4-4.3-.4l3.1-3.2q.9-.8 1.6-.8 1.3 0 2.3.9Q2.8-2.4 4-.2" transform="translate(5.05 4.4)"/><path id="O" fill="#cae5dc" d="m-1-2 2.3.6Q4-.7 4.7 0l-1 1.2-1.8 1.2q-3 .2-4.2-.7-1.8-1-2.3-3L-2-2.4z" transform="translate(4.6 2.4)"/><path id="P" fill="#e4f3ed" d="M3.9 0q0 1.3-1.1 2.3h-.1q-1.2 1-2.8 1L-1 3q-1-.2-1.7-.8-1-1-1-2.3t1.1-2.3 2.8-1h.4v.1q1.3 0 2.3.9Q4-1.4 4-.1" transform="translate(3.85 3.25)"/><path id="Q" fill="#c9e4dc" d="m7.2-3.9.2.9Q4.2-.5 3.6 3l-8.8.8-1.4-.2-.1.3-.3-2q0-.7-.3-1L-6 .3l5.1-2 7.7-2.1z" transform="translate(7.35 3.9)"/><path id="R" fill="#e4f3ed" d="M0-2.4q0-.4.2-.7.3-.6.8-.3t.8 1.2L2.3 0l.5 2.5q.3 1.1-.2.9l-.7-.6v.4q-.1.2-1.3-.7l-2-1.9-1.3-1.9q-.4-.8.2-.4H-1q1.1-.2 1-.8" transform="translate(2.85 3.55)"/><path id="S" fill="#c6e3da" d="m7.2-3.9.2.9Q4.2-.5 3.6 3l-8.8.8-1.4-.2-.1.3-.3-2q0-.7-.3-1L-6 .3l5.1-2 7.7-2.1z" transform="translate(7.35 3.9)"/><path id="T" fill="#e8f6f1" d="M4.2-.1 4.7 1q.6 1.4.2 2-1 1.7-2.6 1.3l-6-2.1Q-6 1.4-4.3-.4l3.1-3.2q.9-.8 1.6-.8 1.3 0 2.3.9Q2.8-2.4 4-.2" transform="translate(5.05 4.4)"/><path id="U" fill="#d1e9e1" d="m-1-2 2.3.6Q4-.7 4.7 0l-1 1.2-1.8 1.2q-3 .2-4.2-.7-1.8-1-2.3-3L-2-2.4z" transform="translate(4.6 2.4)"/><path id="V" fill="#e7f5f0" d="M3.9 0q0 1.3-1.1 2.3h-.1q-1.2 1-2.8 1L-1 3q-1-.2-1.7-.8-1-1-1-2.3t1.1-2.3 2.8-1h.4v.1q1.3 0 2.3.9Q4-1.4 4-.1" transform="translate(3.85 3.25)"/><path id="W" fill="#d1e8e1" d="m7.2-3.9.2.9Q4.2-.5 3.6 3l-8.8.8-1.4-.2-.1.3-.3-2q0-.7-.3-1L-6 .3l5.1-2 7.7-2.1z" transform="translate(7.35 3.9)"/><path id="X" fill="#e7f5f0" d="M0-2.4q0-.4.2-.7.3-.6.8-.3t.8 1.2L2.3 0l.5 2.5q.3 1.1-.2.9l-.7-.6v.4q-.1.2-1.3-.7l-2-1.9-1.3-1.9q-.4-.8.2-.4H-1q1.1-.2 1-.8" transform="translate(2.85 3.55)"/><path id="Y" fill="#cfe8e0" d="m7.2-3.9.2.9Q4.2-.5 3.6 3l-8.8.8-1.4-.2-.1.3-.3-2q0-.7-.3-1L-6 .3l5.1-2 7.7-2.1z" transform="translate(7.35 3.9)"/><path id="Z" fill="#ecf7f3" d="M4.2-.1 4.7 1q.6 1.4.2 2-1 1.7-2.6 1.3l-6-2.1Q-6 1.4-4.3-.4l3.1-3.2q.9-.8 1.6-.8 1.3 0 2.3.9Q2.8-2.4 4-.2" transform="translate(5.05 4.4)"/><path id="aa" fill="#d9ece6" d="m-1-2 2.3.6Q4-.7 4.7 0l-1 1.2-1.8 1.2q-3 .2-4.2-.7-1.8-1-2.3-3L-2-2.4z" transform="translate(4.6 2.4)"/><path id="ab" fill="#ebf7f2" d="M3.9 0q0 1.3-1.1 2.3h-.1q-1.2 1-2.8 1L-1 3q-1-.2-1.7-.8-1-1-1-2.3t1.1-2.3 2.8-1h.4v.1q1.3 0 2.3.9Q4-1.4 4-.1" transform="translate(3.85 3.25)"/><path id="ac" fill="#d8ece6" d="m7.2-3.9.2.9Q4.2-.5 3.6 3l-8.8.8-1.4-.2-.1.3-.3-2q0-.7-.3-1L-6 .3l5.1-2 7.7-2.1z" transform="translate(7.35 3.9)"/><path id="ad" fill="#ebf7f2" d="M0-2.4q0-.4.2-.7.3-.6.8-.3t.8 1.2L2.3 0l.5 2.5q.3 1.1-.2.9l-.7-.6v.4q-.1.2-1.3-.7l-2-1.9-1.3-1.9q-.4-.8.2-.4H-1q1.1-.2 1-.8" transform="translate(2.85 3.55)"/><path id="ae" fill="#eff8f5" d="M4.2-.1 4.7 1q.6 1.4.2 2-1 1.7-2.6 1.3l-6-2.1Q-6 1.4-4.3-.4l3.1-3.2q.9-.8 1.6-.8 1.3 0 2.3.9Q2.8-2.4 4-.2" transform="translate(5.05 4.4)"/><path id="af" fill="#e0efeb" d="m-1-2 2.3.6Q4-.7 4.7 0l-1 1.2-1.8 1.2q-3 .2-4.2-.7-1.8-1-2.3-3L-2-2.4z" transform="translate(4.6 2.4)"/><path id="ag" fill="#eff8f5" d="M3.9 0q0 1.3-1.1 2.3h-.1q-1.2 1-2.8 1L-1 3q-1-.2-1.7-.8-1-1-1-2.3t1.1-2.3 2.8-1h.4v.1q1.3 0 2.3.9Q4-1.4 4-.1" transform="translate(3.85 3.25)"/><path id="ah" fill="#e0efeb" d="m7.2-3.9.2.9Q4.2-.5 3.6 3l-8.8.8-1.4-.2-.1.3-.3-2q0-.7-.3-1L-6 .3l5.1-2 7.7-2.1z" transform="translate(7.35 3.9)"/><path id="ai" fill="#eff8f5" d="M0-2.4q0-.4.2-.7.3-.6.8-.3t.8 1.2L2.3 0l.5 2.5q.3 1.1-.2.9l-.7-.6v.4q-.1.2-1.3-.7l-2-1.9-1.3-1.9q-.4-.8.2-.4H-1q1.1-.2 1-.8" transform="translate(2.85 3.55)"/><path id="aj" fill="#e2f0ec" d="m7.2-3.9.2.9Q4.2-.5 3.6 3l-8.8.8-1.4-.2-.1.3-.3-2q0-.7-.3-1L-6 .3l5.1-2 7.7-2.1z" transform="translate(7.35 3.9)"/><path id="ak" fill="#f3faf7" d="M4.2-.1 4.7 1q.6 1.4.2 2-1 1.7-2.6 1.3l-6-2.1Q-6 1.4-4.3-.4l3.1-3.2q.9-.8 1.6-.8 1.3 0 2.3.9Q2.8-2.4 4-.2" transform="translate(5.05 4.4)"/><path id="al" fill="#e8f3f0" d="m-1-2 2.3.6Q4-.7 4.7 0l-1 1.2-1.8 1.2q-3 .2-4.2-.7-1.8-1-2.3-3L-2-2.4z" transform="translate(4.6 2.4)"/><path id="am" fill="#f3faf7" d="M3.9 0q0 1.3-1.1 2.3h-.1q-1.2 1-2.8 1L-1 3q-1-.2-1.7-.8-1-1-1-2.3t1.1-2.3 2.8-1h.4v.1q1.3 0 2.3.9Q4-1.4 4-.1" transform="translate(3.85 3.25)"/><path id="an" fill="#e8f3f0" d="m7.2-3.9.2.9Q4.2-.5 3.6 3l-8.8.8-1.4-.2-.1.3-.3-2q0-.7-.3-1L-6 .3l5.1-2 7.7-2.1z" transform="translate(7.35 3.9)"/><path id="ao" fill="#f3faf7" d="M0-2.4q0-.4.2-.7.3-.6.8-.3t.8 1.2L2.3 0l.5 2.5q.3 1.1-.2.9l-.7-.6v.4q-.1.2-1.3-.7l-2-1.9-1.3-1.9q-.4-.8.2-.4H-1q1.1-.2 1-.8" transform="translate(2.85 3.55)"/><path id="ap" fill="#ebf5f2" d="m7.2-3.9.2.9Q4.2-.5 3.6 3l-8.8.8-1.4-.2-.1.3-.3-2q0-.7-.3-1L-6 .3l5.1-2 7.7-2.1z" transform="translate(7.35 3.9)"/><path id="aq" fill="#f7fbfa" d="M4.2-.1 4.7 1q.6 1.4.2 2-1 1.7-2.6 1.3l-6-2.1Q-6 1.4-4.3-.4l3.1-3.2q.9-.8 1.6-.8 1.3 0 2.3.9Q2.8-2.4 4-.2" transform="translate(5.05 4.4)"/><path id="ar" fill="#eff7f5" d="m-1-2 2.3.6Q4-.7 4.7 0l-1 1.2-1.8 1.2q-3 .2-4.2-.7-1.8-1-2.3-3L-2-2.4z" transform="translate(4.6 2.4)"/><path id="as" fill="#f7fbfa" d="M3.9 0q0 1.3-1.1 2.3h-.1q-1.2 1-2.8 1L-1 3q-1-.2-1.7-.8-1-1-1-2.3t1.1-2.3 2.8-1h.4v.1q1.3 0 2.3.9Q4-1.4 4-.1" transform="translate(3.85 3.25)"/><path id="at" fill="#eff7f5" d="m7.2-3.9.2.9Q4.2-.5 3.6 3l-8.8.8-1.4-.2-.1.3-.3-2q0-.7-.3-1L-6 .3l5.1-2 7.7-2.1z" transform="translate(7.35 3.9)"/><path id="au" fill="#f7fbfa" d="M0-2.4q0-.4.2-.7.3-.6.8-.3t.8 1.2L2.3 0l.5 2.5q.3 1.1-.2.9l-.7-.6v.4q-.1.2-1.3-.7l-2-1.9-1.3-1.9q-.4-.8.2-.4H-1q1.1-.2 1-.8" transform="translate(2.85 3.55)"/><path id="av" fill="#f5faf8" d="m7.2-3.9.2.9Q4.2-.5 3.6 3l-8.8.8-1.4-.2-.1.3-.3-2q0-.7-.3-1L-6 .3l5.1-2 7.7-2.1z" transform="translate(7.35 3.9)"/><path id="aw" fill="#fbfdfc" d="M4.2-.1 4.7 1q.6 1.4.2 2-1 1.7-2.6 1.3l-6-2.1Q-6 1.4-4.3-.4l3.1-3.2q.9-.8 1.6-.8 1.3 0 2.3.9Q2.8-2.4 4-.2" transform="translate(5.05 4.4)"/><path id="ax" fill="#f7fbfa" d="m-1-2 2.3.6Q4-.7 4.7 0l-1 1.2-1.8 1.2q-3 .2-4.2-.7-1.8-1-2.3-3L-2-2.4z" transform="translate(4.6 2.4)"/><path id="ay" fill="#fbfdfc" d="M3.9 0q0 1.3-1.1 2.3h-.1q-1.2 1-2.8 1L-1 3q-1-.2-1.7-.8-1-1-1-2.3t1.1-2.3 2.8-1h.4v.1q1.3 0 2.3.9Q4-1.4 4-.1" transform="translate(3.85 3.25)"/><path id="az" fill="#f7fbfa" d="m7.2-3.9.2.9Q4.2-.5 3.6 3l-8.8.8-1.4-.2-.1.3-.3-2q0-.7-.3-1L-6 .3l5.1-2 7.7-2.1z" transform="translate(7.35 3.9)"/><path id="aA" fill="#fbfdfc" d="M0-2.4q0-.4.2-.7.3-.6.8-.3t.8 1.2L2.3 0l.5 2.5q.3 1.1-.2.9l-.7-.6v.4q-.1.2-1.3-.7l-2-1.9-1.3-1.9q-.4-.8.2-.4H-1q1.1-.2 1-.8" transform="translate(2.85 3.55)"/><path id="aB" fill="#fff" d="m7.2-3.9.2.9Q4.2-.5 3.6 3l-8.8.8-1.4-.2-.1.3-.3-2q0-.7-.3-1L-6 .3l5.1-2 7.7-2.1z" transform="translate(7.35 3.9)"/><path id="aC" fill="#fff" d="M4.2-.1 4.7 1q.6 1.4.2 2-1 1.7-2.6 1.3l-6-2.1Q-6 1.4-4.3-.4l3.1-3.2q.9-.8 1.6-.8 1.3 0 2.3.9Q2.8-2.4 4-.2" transform="translate(5.05 4.4)"/><path id="aD" fill="#fff" d="m-1-2 2.3.6Q4-.7 4.7 0l-1 1.2-1.8 1.2q-3 .2-4.2-.7-1.8-1-2.3-3L-2-2.4z" transform="translate(4.6 2.4)"/><path id="aE" fill="#fff" d="M3.9 0q0 1.3-1.1 2.3h-.1q-1.2 1-2.8 1L-1 3q-1-.2-1.7-.8-1-1-1-2.3t1.1-2.3 2.8-1h.4v.1q1.3 0 2.3.9Q4-1.4 4-.1" transform="translate(3.85 3.25)"/><path id="aF" fill="#fff" d="M0-2.4q0-.4.2-.7.3-.6.8-.3t.8 1.2L2.3 0l.5 2.5q.3 1.1-.2.9l-.7-.6v.4q-.1.2-1.3-.7l-2-1.9-1.3-1.9q-.4-.8.2-.4H-1q1.1-.2 1-.8" transform="translate(2.85 3.55)"/><path id="aG" fill="#c6e8db" d="M4.2-.1 4.7 1q.6 1.4.2 2-1 1.7-2.6 1.3l-6-2.1Q-6 1.4-4.3-.4l3.1-3.2q.9-.8 1.6-.8 1.3 0 2.3.9Q2.8-2.4 4-.2" transform="translate(5.05 4.4)"/><path id="aH" fill="#8dc7b5" d="m-1-2 2.3.6Q4-.7 4.7 0l-1 1.2-1.8 1.2q-3 .2-4.2-.7-1.8-1-2.3-3L-2-2.4z" transform="translate(4.6 2.4)"/><path id="aI" fill="#c6e8db" d="M3.9 0q0 1.3-1.1 2.3h-.1q-1.2 1-2.8 1L-1 3q-1-.2-1.7-.8-1-1-1-2.3t1.1-2.3 2.8-1h.4v.1q1.3 0 2.3.9Q4-1.4 4-.1" transform="translate(3.85 3.25)"/><path id="aJ" fill="#8dc7b5" d="m7.2-3.9.2.9Q4.2-.5 3.6 3l-8.8.8-1.4-.2-.1.3-.3-2q0-.7-.3-1L-6 .3l5.1-2 7.7-2.1z" transform="translate(7.35 3.9)"/><path id="aK" fill="#c6e8db" d="M0-2.4q0-.4.2-.7.3-.6.8-.3t.8 1.2L2.3 0l.5 2.5q.3 1.1-.2.9l-.7-.6v.4q-.1.2-1.3-.7l-2-1.9-1.3-1.9q-.4-.8.2-.4H-1q1.1-.2 1-.8" transform="translate(2.85 3.55)"/><path id="bj" fill="#fff" fill-opacity=".5" d="M.6-3.1q1.3 0 2.2.9 1.1 1 1.1 2.3T2.8 2.4h-.1Q.3 1.4.4-3z" transform="translate(-.5 3.15)"/><path id="bl" fill="none" stroke="#111" stroke-linecap="round" stroke-linejoin="round" stroke-opacity=".5" stroke-width="__RESOLUTION__" d="M11.2-2Q8 .5 7.4 4l-8.8.8-1.4-.2-.1.4-.3-2.1q0-.7-.3-1l1.3-.6 5.1-2q3.4-1.1 7.7-2.1l.4-.1" transform="translate(3.55 2.9)" vector-effect="non-scaling-stroke"/><path id="bu" fill="none" stroke="#222" stroke-linecap="round" stroke-linejoin="round" stroke-opacity=".5" stroke-width="__RESOLUTION__" d="M11.2-2Q8 .5 7.4 4l-8.8.8-1.4-.2-.1.4-.3-2.1q0-.7-.3-1l1.3-.6 5.1-2q3.4-1.1 7.7-2.1l.4-.1" transform="translate(3.55 2.9)" vector-effect="non-scaling-stroke"/><path id="bD" fill="none" stroke="#333" stroke-linecap="round" stroke-linejoin="round" stroke-opacity=".5" stroke-width="__RESOLUTION__" d="M11.2-2Q8 .5 7.4 4l-8.8.8-1.4-.2-.1.4-.3-2.1q0-.7-.3-1l1.3-.6 5.1-2q3.4-1.1 7.7-2.1l.4-.1" transform="translate(3.55 2.9)" vector-effect="non-scaling-stroke"/><path id="bF" fill="none" stroke="#151515" stroke-linecap="round" stroke-linejoin="round" stroke-opacity=".5" stroke-width="__RESOLUTION__" d="M11.2-2Q8 .5 7.4 4l-8.8.8-1.4-.2-.1.4-.3-2.1q0-.7-.3-1l1.3-.6 5.1-2q3.4-1.1 7.7-2.1l.4-.1" transform="translate(3.55 2.9)" vector-effect="non-scaling-stroke"/><path id="bO" fill="none" stroke="#444" stroke-linecap="round" stroke-linejoin="round" stroke-opacity=".5" stroke-width="__RESOLUTION__" d="M11.2-2Q8 .5 7.4 4l-8.8.8-1.4-.2-.1.4-.3-2.1q0-.7-.3-1l1.3-.6 5.1-2q3.4-1.1 7.7-2.1l.4-.1" transform="translate(3.55 2.9)" vector-effect="non-scaling-stroke"/><path id="bQ" fill="none" stroke="#2b2b2b" stroke-linecap="round" stroke-linejoin="round" stroke-opacity=".5" stroke-width="__RESOLUTION__" d="M11.2-2Q8 .5 7.4 4l-8.8.8-1.4-.2-.1.4-.3-2.1q0-.7-.3-1l1.3-.6 5.1-2q3.4-1.1 7.7-2.1l.4-.1" transform="translate(3.55 2.9)" vector-effect="non-scaling-stroke"/><path id="bZ" fill="none" stroke="#555" stroke-linecap="round" stroke-linejoin="round" stroke-opacity=".5" stroke-width="__RESOLUTION__" d="M11.2-2Q8 .5 7.4 4l-8.8.8-1.4-.2-.1.4-.3-2.1q0-.7-.3-1l1.3-.6 5.1-2q3.4-1.1 7.7-2.1l.4-.1" transform="translate(3.55 2.9)" vector-effect="non-scaling-stroke"/><path id="cb" fill="none" stroke="#404040" stroke-linecap="round" stroke-linejoin="round" stroke-opacity=".5" stroke-width="__RESOLUTION__" d="M11.2-2Q8 .5 7.4 4l-8.8.8-1.4-.2-.1.4-.3-2.1q0-.7-.3-1l1.3-.6 5.1-2q3.4-1.1 7.7-2.1l.4-.1" transform="translate(3.55 2.9)" vector-effect="non-scaling-stroke"/><path id="ck" fill="none" stroke="#666" stroke-linecap="round" stroke-linejoin="round" stroke-opacity=".5" stroke-width="__RESOLUTION__" d="M11.2-2Q8 .5 7.4 4l-8.8.8-1.4-.2-.1.4-.3-2.1q0-.7-.3-1l1.3-.6 5.1-2q3.4-1.1 7.7-2.1l.4-.1" transform="translate(3.55 2.9)" vector-effect="non-scaling-stroke"/><path id="ct" fill="none" stroke="#777" stroke-linecap="round" stroke-linejoin="round" stroke-opacity=".5" stroke-width="__RESOLUTION__" d="M11.2-2Q8 .5 7.4 4l-8.8.8-1.4-.2-.1.4-.3-2.1q0-.7-.3-1l1.3-.6 5.1-2q3.4-1.1 7.7-2.1l.4-.1" transform="translate(3.55 2.9)" vector-effect="non-scaling-stroke"/><path id="cv" fill="none" stroke="#6a6a6a" stroke-linecap="round" stroke-linejoin="round" stroke-opacity=".5" stroke-width="__RESOLUTION__" d="M11.2-2Q8 .5 7.4 4l-8.8.8-1.4-.2-.1.4-.3-2.1q0-.7-.3-1l1.3-.6 5.1-2q3.4-1.1 7.7-2.1l.4-.1" transform="translate(3.55 2.9)" vector-effect="non-scaling-stroke"/><path id="cD" fill="#fefefe" fill-opacity=".5" d="M.6-3.1q1.3 0 2.2.9 1.1 1 1.1 2.3T2.8 2.4h-.1Q.3 1.4.4-3z" transform="translate(-.5 3.15)"/><path id="cF" fill="none" stroke="#888" stroke-linecap="round" stroke-linejoin="round" stroke-opacity=".5" stroke-width="__RESOLUTION__" d="M11.2-2Q8 .5 7.4 4l-8.8.8-1.4-.2-.1.4-.3-2.1q0-.7-.3-1l1.3-.6 5.1-2q3.4-1.1 7.7-2.1l.4-.1" transform="translate(3.55 2.9)" vector-effect="non-scaling-stroke"/><path id="cH" fill="none" stroke="gray" stroke-linecap="round" stroke-linejoin="round" stroke-opacity=".5" stroke-width="__RESOLUTION__" d="M11.2-2Q8 .5 7.4 4l-8.8.8-1.4-.2-.1.4-.3-2.1q0-.7-.3-1l1.3-.6 5.1-2q3.4-1.1 7.7-2.1l.4-.1" transform="translate(3.55 2.9)" vector-effect="non-scaling-stroke"/><path id="cQ" fill="none" stroke="#999" stroke-linecap="round" stroke-linejoin="round" stroke-opacity=".5" stroke-width="__RESOLUTION__" d="M11.2-2Q8 .5 7.4 4l-8.8.8-1.4-.2-.1.4-.3-2.1q0-.7-.3-1l1.3-.6 5.1-2q3.4-1.1 7.7-2.1l.4-.1" transform="translate(3.55 2.9)" vector-effect="non-scaling-stroke"/><path id="cS" fill="none" stroke="#959595" stroke-linecap="round" stroke-linejoin="round" stroke-opacity=".5" stroke-width="__RESOLUTION__" d="M11.2-2Q8 .5 7.4 4l-8.8.8-1.4-.2-.1.4-.3-2.1q0-.7-.3-1l1.3-.6 5.1-2q3.4-1.1 7.7-2.1l.4-.1" transform="translate(3.55 2.9)" vector-effect="non-scaling-stroke"/><path id="db" fill="none" stroke="#aaa" stroke-linecap="round" stroke-linejoin="round" stroke-opacity=".5" stroke-width="__RESOLUTION__" d="M11.2-2Q8 .5 7.4 4l-8.8.8-1.4-.2-.1.4-.3-2.1q0-.7-.3-1l1.3-.6 5.1-2q3.4-1.1 7.7-2.1l.4-.1" transform="translate(3.55 2.9)" vector-effect="non-scaling-stroke"/><path id="dk" fill="none" stroke="#bbb" stroke-linecap="round" stroke-linejoin="round" stroke-opacity=".5" stroke-width="__RESOLUTION__" d="M11.2-2Q8 .5 7.4 4l-8.8.8-1.4-.2-.1.4-.3-2.1q0-.7-.3-1l1.3-.6 5.1-2q3.4-1.1 7.7-2.1l.4-.1" transform="translate(3.55 2.9)" vector-effect="non-scaling-stroke"/><path id="dm" fill="none" stroke="#bfbfbf" stroke-linecap="round" stroke-linejoin="round" stroke-opacity=".5" stroke-width="__RESOLUTION__" d="M11.2-2Q8 .5 7.4 4l-8.8.8-1.4-.2-.1.4-.3-2.1q0-.7-.3-1l1.3-.6 5.1-2q3.4-1.1 7.7-2.1l.4-.1" transform="translate(3.55 2.9)" vector-effect="non-scaling-stroke"/><path id="dv" fill="none" stroke="#ccc" stroke-linecap="round" stroke-linejoin="round" stroke-opacity=".5" stroke-width="__RESOLUTION__" d="M11.2-2Q8 .5 7.4 4l-8.8.8-1.4-.2-.1.4-.3-2.1q0-.7-.3-1l1.3-.6 5.1-2q3.4-1.1 7.7-2.1l.4-.1" transform="translate(3.55 2.9)" vector-effect="non-scaling-stroke"/><path id="dx" fill="none" stroke="#d4d4d4" stroke-linecap="round" stroke-linejoin="round" stroke-opacity=".5" stroke-width="__RESOLUTION__" d="M11.2-2Q8 .5 7.4 4l-8.8.8-1.4-.2-.1.4-.3-2.1q0-.7-.3-1l1.3-.6 5.1-2q3.4-1.1 7.7-2.1l.4-.1" transform="translate(3.55 2.9)" vector-effect="non-scaling-stroke"/><path id="dG" fill="none" stroke="#ddd" stroke-linecap="round" stroke-linejoin="round" stroke-opacity=".5" stroke-width="__RESOLUTION__" d="M11.2-2Q8 .5 7.4 4l-8.8.8-1.4-.2-.1.4-.3-2.1q0-.7-.3-1l1.3-.6 5.1-2q3.4-1.1 7.7-2.1l.4-.1" transform="translate(3.55 2.9)" vector-effect="non-scaling-stroke"/><path id="dI" fill="none" stroke="#eaeaea" stroke-linecap="round" stroke-linejoin="round" stroke-opacity=".5" stroke-width="__RESOLUTION__" d="M11.2-2Q8 .5 7.4 4l-8.8.8-1.4-.2-.1.4-.3-2.1q0-.7-.3-1l1.3-.6 5.1-2q3.4-1.1 7.7-2.1l.4-.1" transform="translate(3.55 2.9)" vector-effect="non-scaling-stroke"/><path id="dR" fill="none" stroke="#eee" stroke-linecap="round" stroke-linejoin="round" stroke-opacity=".5" stroke-width="__RESOLUTION__" d="M11.2-2Q8 .5 7.4 4l-8.8.8-1.4-.2-.1.4-.3-2.1q0-.7-.3-1l1.3-.6 5.1-2q3.4-1.1 7.7-2.1l.4-.1" transform="translate(3.55 2.9)" vector-effect="non-scaling-stroke"/><path id="dT" fill="none" stroke="#fff" stroke-linecap="round" stroke-linejoin="round" stroke-opacity=".5" stroke-width="__RESOLUTION__" d="M11.2-2Q8 .5 7.4 4l-8.8.8-1.4-.2-.1.4-.3-2.1q0-.7-.3-1l1.3-.6 5.1-2q3.4-1.1 7.7-2.1l.4-.1" transform="translate(3.55 2.9)" vector-effect="non-scaling-stroke"/><path id="el" fill="none" stroke="#000" stroke-linecap="round" stroke-linejoin="round" stroke-opacity=".5" stroke-width="__RESOLUTION__" d="M11.2-2Q8 .5 7.4 4l-8.8.8-1.4-.2-.1.4-.3-2.1q0-.7-.3-1l1.3-.6 5.1-2q3.4-1.1 7.7-2.1l.4-.1" transform="translate(3.55 2.9)" vector-effect="non-scaling-stroke"/><use xlink:href="#a" id="be" width="10.1" height="8.8"/><use xlink:href="#b" id="bc" width="9.3" height="4.8"/><use xlink:href="#c" id="bi" width="7.8" height="6.5"/><use xlink:href="#d" id="bk" width="14.8" height="7.8" transform="scale(.9288 .9236)"/><use xlink:href="#e" id="aL" width="5.8" height="7.1"/><use xlink:href="#f" id="bp" width="10.1" height="8.8"/><use xlink:href="#g" id="bm" width="9.3" height="4.8"/><use xlink:href="#h" id="bs" width="7.8" height="6.5"/><use xlink:href="#i" id="bt" width="14.8" height="7.8" transform="scale(.9288 .9236)"/><use xlink:href="#j" id="aM" width="5.8" height="7.1"/><use xlink:href="#k" id="bx" width="10.1" height="8.8"/><use xlink:href="#l" id="bv" width="9.3" height="4.8"/><use xlink:href="#m" id="bB" width="7.8" height="6.5"/><use xlink:href="#n" id="bC" width="14.8" height="7.8" transform="scale(.9288 .9236)"/><use xlink:href="#o" id="aN" width="5.8" height="7.1"/><use xlink:href="#p" id="bE" width="14.8" height="7.8"/><use xlink:href="#q" id="bI" width="10.1" height="8.8"/><use xlink:href="#r" id="bG" width="9.3" height="4.8"/><use xlink:href="#s" id="bM" width="7.8" height="6.5"/><use xlink:href="#t" id="bN" width="14.8" height="7.8" transform="scale(.9288 .9236)"/><use xlink:href="#u" id="aO" width="5.8" height="7.1"/><use xlink:href="#v" id="bP" width="14.8" height="7.8"/><use xlink:href="#w" id="bT" width="10.1" height="8.8"/><use xlink:href="#x" id="bR" width="9.3" height="4.8"/><use xlink:href="#y" id="bX" width="7.8" height="6.5"/><use xlink:href="#z" id="bY" width="14.8" height="7.8" transform="scale(.9288 .9236)"/><use xlink:href="#A" id="aP" width="5.8" height="7.1"/><use xlink:href="#B" id="ca" width="14.8" height="7.8"/><use xlink:href="#C" id="cf" width="10.1" height="8.8"/><use xlink:href="#D" id="cc" width="9.3" height="4.8"/><use xlink:href="#E" id="ci" width="7.8" height="6.5"/><use xlink:href="#F" id="cj" width="14.8" height="7.8" transform="scale(.9288 .9236)"/><use xlink:href="#G" id="aQ" width="5.8" height="7.1"/><use xlink:href="#H" id="cn" width="10.1" height="8.8"/><use xlink:href="#I" id="cl" width="9.3" height="4.8"/><use xlink:href="#J" id="cp" width="7.8" height="6.5"/><use xlink:href="#K" id="cs" width="14.8" height="7.8" transform="scale(.9288 .9236)"/><use xlink:href="#L" id="aR" width="5.8" height="7.1"/><use xlink:href="#M" id="cu" width="14.8" height="7.8"/><use xlink:href="#N" id="cy" width="10.1" height="8.8"/><use xlink:href="#O" id="cw" width="9.3" height="4.8"/><use xlink:href="#P" id="cA" width="7.8" height="6.5"/><use xlink:href="#Q" id="cE" width="14.8" height="7.8" transform="scale(.9288 .9236)"/><use xlink:href="#R" id="aS" width="5.8" height="7.1"/><use xlink:href="#S" id="cG" width="14.8" height="7.8"/><use xlink:href="#T" id="cK" width="10.1" height="8.8"/><use xlink:href="#U" id="cI" width="9.3" height="4.8"/><use xlink:href="#V" id="cO" width="7.8" height="6.5"/><use xlink:href="#W" id="cP" width="14.8" height="7.8" transform="scale(.9288 .9236)"/><use xlink:href="#X" id="aT" width="5.8" height="7.1"/><use xlink:href="#Y" id="cR" width="14.8" height="7.8"/><use xlink:href="#Z" id="cW" width="10.1" height="8.8"/><use xlink:href="#aa" id="cT" width="9.3" height="4.8"/><use xlink:href="#ab" id="cZ" width="7.8" height="6.5"/><use xlink:href="#ac" id="da" width="14.8" height="7.8" transform="scale(.9288 .9236)"/><use xlink:href="#ad" id="aU" width="5.8" height="7.1"/><use xlink:href="#ae" id="de" width="10.1" height="8.8"/><use xlink:href="#af" id="dc" width="9.3" height="4.8"/><use xlink:href="#ag" id="di" width="7.8" height="6.5"/><use xlink:href="#ah" id="dj" width="14.8" height="7.8" transform="scale(.9288 .9236)"/><use xlink:href="#ai" id="aV" width="5.8" height="7.1"/><use xlink:href="#aj" id="dl" width="14.8" height="7.8"/><use xlink:href="#ak" id="dp" width="10.1" height="8.8"/><use xlink:href="#al" id="dn" width="9.3" height="4.8"/><use xlink:href="#am" id="dt" width="7.8" height="6.5"/><use xlink:href="#an" id="du" width="14.8" height="7.8" transform="scale(.9288 .9236)"/><use xlink:href="#ao" id="aX" width="5.8" height="7.1"/><use xlink:href="#ap" id="dw" width="14.8" height="7.8"/><use xlink:href="#aq" id="dA" width="10.1" height="8.8"/><use xlink:href="#ar" id="dy" width="9.3" height="4.8"/><use xlink:href="#as" id="dE" width="7.8" height="6.5"/><use xlink:href="#at" id="dF" width="14.8" height="7.8" transform="scale(.9288 .9236)"/><use xlink:href="#au" id="aY" width="5.8" height="7.1"/><use xlink:href="#av" id="dH" width="14.8" height="7.8"/><use xlink:href="#aw" id="dL" width="10.1" height="8.8"/><use xlink:href="#ax" id="dJ" width="9.3" height="4.8"/><use xlink:href="#ay" id="dP" width="7.8" height="6.5"/><use xlink:href="#az" id="dQ" width="14.8" height="7.8" transform="scale(.9288 .9236)"/><use xlink:href="#aA" id="aZ" width="5.8" height="7.1"/><use xlink:href="#aB" id="dS" width="14.8" height="7.8"/><use xlink:href="#aC" id="dW" width="10.1" height="8.8"/><use xlink:href="#aD" id="dU" width="9.3" height="4.8"/><use xlink:href="#aE" id="dZ" width="7.8" height="6.5"/><use xlink:href="#aB" id="eb" width="14.8" height="7.8" transform="scale(.9288 .9236)"/><use xlink:href="#aF" id="ba" width="5.8" height="7.1"/><use xlink:href="#ac" id="ec" width="14.8" height="7.8"/><use xlink:href="#z" id="ed" width="14.8" height="7.8"/><use xlink:href="#aG" id="eg" width="10.1" height="8.8"/><use xlink:href="#aH" id="ee" width="9.3" height="4.8"/><use xlink:href="#aI" id="ej" width="7.8" height="6.5"/><use xlink:href="#aJ" id="ek" width="14.8" height="7.8"/><use xlink:href="#aJ" id="em" width="14.8" height="7.8" transform="scale(.9288 .9236)"/><use xlink:href="#aK" id="bb" width="5.8" height="7.1"/><use xlink:href="#aL" id="gI" width="5.8" height="7.1"/><use xlink:href="#aM" id="gD" width="5.8" height="7.1"/><use xlink:href="#aN" id="gy" width="5.8" height="7.1"/><use xlink:href="#aO" id="gs" width="5.8" height="7.1"/><use xlink:href="#aP" id="gm" width="5.8" height="7.1"/><use xlink:href="#aQ" id="gg" width="5.8" height="7.1"/><use xlink:href="#aR" id="gb" width="5.8" height="7.1"/><use xlink:href="#aS" id="fV" width="5.8" height="7.1"/><use xlink:href="#aT" id="fP" width="5.8" height="7.1"/><use xlink:href="#aU" id="fJ" width="5.8" height="7.1"/><use xlink:href="#aV" id="fE" width="5.8" height="7.1"/><use xlink:href="#aX" id="fy" width="5.8" height="7.1"/><use xlink:href="#aY" id="fs" width="5.8" height="7.1"/><use xlink:href="#aZ" id="fm" width="5.8" height="7.1"/><use xlink:href="#ba" id="fg" width="5.8" height="7.1"/><use xlink:href="#bb" id="es" width="5.8" height="7.1"/><g id="bg"><path fill="#fff" fill-opacity=".5" d="M2 0q.2 1.3 1.6 3.5L4 4.6Q4 8.5.5 5.9-.3 3.7.2.7.4-.1 2 0"/><path fill="#111" fill-opacity=".3" d="M5.1 7.5q.5-1.6 2.7-2.3l-1 1.2z"/></g><g id="bd"><path fill="#fff" d="M.9 0q.6 0 1.3.7l1.3 2.2q.7 1.4.2 1.9l-.9.4Q4 3.9.9 0"/><path fill="#f1ead5" d="M2.8 5.2h-.2q-.7.1-1.4-.6-.8-.7-1-1.8Q-.2 1.7 0 .9T.9 0q3 3.9 1.9 5.2"/></g><g id="bq"><path fill="#fff" fill-opacity=".5" d="M2 0q.2 1.3 1.6 3.5L4 4.6Q4 8.5.5 5.9-.3 3.7.2.7.4-.1 2 0"/><path fill="#222" fill-opacity=".3" d="M5.1 7.5q.5-1.6 2.7-2.3l-1 1.2z"/></g><g id="bn"><path fill="#fff" d="M.9 0q.6 0 1.3.7l1.3 2.2q.7 1.4.2 1.9l-.9.4Q4 3.9.9 0"/><path fill="#f2ecd8" d="M2.8 5.2h-.2q-.7.1-1.4-.6-.8-.7-1-1.8Q-.2 1.7 0 .9T.9 0q3 3.9 1.9 5.2"/></g><g id="by"><path fill="#fff" fill-opacity=".5" d="M2 0q.2 1.3 1.6 3.5L4 4.6Q4 8.5.5 5.9-.3 3.7.2.7.4-.1 2 0"/><path fill="#333" fill-opacity=".3" d="M5.1 7.5q.5-1.6 2.7-2.3l-1 1.2z"/></g><g id="bw"><path fill="#fff" d="M.9 0q.6 0 1.3.7l1.3 2.2q.7 1.4.2 1.9l-.9.4Q4 3.9.9 0"/><path fill="#f3eddb" d="M2.8 5.2h-.2q-.7.1-1.4-.6-.8-.7-1-1.8Q-.2 1.7 0 .9T.9 0q3 3.9 1.9 5.2"/></g><g id="bJ"><path fill="#fff" fill-opacity=".5" d="M2 0q.2 1.3 1.6 3.5L4 4.6Q4 8.5.5 5.9-.3 3.7.2.7.4-.1 2 0"/><path fill="#444" fill-opacity=".3" d="M5.1 7.5q.5-1.6 2.7-2.3l-1 1.2z"/></g><g id="bH"><path fill="#fff" d="M.9 0q.6 0 1.3.7l1.3 2.2q.7 1.4.2 1.9l-.9.4Q4 3.9.9 0"/><path fill="#f4efde" d="M2.8 5.2h-.2q-.7.1-1.4-.6-.8-.7-1-1.8Q-.2 1.7 0 .9T.9 0q3 3.9 1.9 5.2"/></g><g id="bU"><path fill="#fff" fill-opacity=".5" d="M2 0q.2 1.3 1.6 3.5L4 4.6Q4 8.5.5 5.9-.3 3.7.2.7.4-.1 2 0"/><path fill="#555" fill-opacity=".3" d="M5.1 7.5q.5-1.6 2.7-2.3l-1 1.2z"/></g><g id="bS"><path fill="#fff" d="M.9 0q.6 0 1.3.7l1.3 2.2q.7 1.4.2 1.9l-.9.4Q4 3.9.9 0"/><path fill="#f5f0e1" d="M2.8 5.2h-.2q-.7.1-1.4-.6-.8-.7-1-1.8Q-.2 1.7 0 .9T.9 0q3 3.9 1.9 5.2"/></g><g id="cg"><path fill="#fff" fill-opacity=".5" d="M2 0q.2 1.3 1.6 3.5L4 4.6Q4 8.5.5 5.9-.3 3.7.2.7.4-.1 2 0"/><path fill="#666" fill-opacity=".3" d="M5.1 7.5q.5-1.6 2.7-2.3l-1 1.2z"/></g><g id="cd"><path fill="#fff" d="M.9 0q.6 0 1.3.7l1.3 2.2q.7 1.4.2 1.9l-.9.4Q4 3.9.9 0"/><path fill="#f6f2e4" d="M2.8 5.2h-.2q-.7.1-1.4-.6-.8-.7-1-1.8Q-.2 1.7 0 .9T.9 0q3 3.9 1.9 5.2"/></g><g id="co"><path fill="#fff" fill-opacity=".5" d="M2 0q.2 1.3 1.6 3.5L4 4.6Q4 8.5.5 5.9-.3 3.7.2.7.4-.1 2 0"/><path fill="#777" fill-opacity=".3" d="M5.1 7.5q.5-1.6 2.7-2.3l-1 1.2z"/></g><g id="cm"><path fill="#fff" d="M.9 0q.6 0 1.3.7l1.3 2.2q.7 1.4.2 1.9l-.9.4Q4 3.9.9 0"/><path fill="#f7f3e7" d="M2.8 5.2h-.2q-.7.1-1.4-.6-.8-.7-1-1.8Q-.2 1.7 0 .9T.9 0q3 3.9 1.9 5.2"/></g><g id="cz"><path fill="#fff" fill-opacity=".5" d="M2 0q.2 1.3 1.6 3.5L4 4.6Q4 8.5.5 5.9-.3 3.7.2.7.4-.1 2 0"/><path fill="#888" fill-opacity=".3" d="M5.1 7.5q.5-1.6 2.7-2.3l-1 1.2z"/></g><g id="cx"><path fill="#fff" d="M.9 0q.6 0 1.3.7l1.3 2.2q.7 1.4.2 1.9l-.9.4Q4 3.9.9 0"/><path fill="#f8f5ea" d="M2.8 5.2h-.2q-.7.1-1.4-.6-.8-.7-1-1.8Q-.2 1.7 0 .9T.9 0q3 3.9 1.9 5.2"/></g><g id="cL"><path fill="#fff" fill-opacity=".5" d="M2 0q.2 1.3 1.6 3.5L4 4.6Q4 8.5.5 5.9-.3 3.7.2.7.4-.1 2 0"/><path fill="#999" fill-opacity=".3" d="M5.1 7.5q.5-1.6 2.7-2.3l-1 1.2z"/></g><g id="cJ"><path fill="#fff" d="M.9 0q.6 0 1.3.7l1.3 2.2q.7 1.4.2 1.9l-.9.4Q4 3.9.9 0"/><path fill="#f9f6ed" d="M2.8 5.2h-.2q-.7.1-1.4-.6-.8-.7-1-1.8Q-.2 1.7 0 .9T.9 0q3 3.9 1.9 5.2"/></g><g id="cX"><path fill="#fff" fill-opacity=".5" d="M2 0q.2 1.3 1.6 3.5L4 4.6Q4 8.5.5 5.9-.3 3.7.2.7.4-.1 2 0"/><path fill="#aaa" fill-opacity=".3" d="M5.1 7.5q.5-1.6 2.7-2.3l-1 1.2z"/></g><g id="cU"><path fill="#fff" d="M.9 0q.6 0 1.3.7l1.3 2.2q.7 1.4.2 1.9l-.9.4Q4 3.9.9 0"/><path fill="#faf8f0" d="M2.8 5.2h-.2q-.7.1-1.4-.6-.8-.7-1-1.8Q-.2 1.7 0 .9T.9 0q3 3.9 1.9 5.2"/></g><g id="df"><path fill="#fefefe" fill-opacity=".5" d="M2 0q.2 1.3 1.6 3.5L4 4.6Q4 8.5.5 5.9-.3 3.7.2.7.4-.1 2 0"/><path fill="#bbb" fill-opacity=".3" d="M5.1 7.5q.5-1.6 2.7-2.3l-1 1.2z"/></g><g id="dd"><path fill="#fefefe" d="M.9 0q.6 0 1.3.7l1.3 2.2q.7 1.4.2 1.9l-.9.4Q4 3.9.9 0"/><path fill="#faf8f2" d="M2.8 5.2h-.2q-.7.1-1.4-.6-.8-.7-1-1.8Q-.2 1.7 0 .9T.9 0q3 3.9 1.9 5.2"/></g><g id="dq"><path fill="#fefefe" fill-opacity=".5" d="M2 0q.2 1.3 1.6 3.5L4 4.6Q4 8.5.5 5.9-.3 3.7.2.7.4-.1 2 0"/><path fill="#ccc" fill-opacity=".3" d="M5.1 7.5q.5-1.6 2.7-2.3l-1 1.2z"/></g><g id="do"><path fill="#fefefe" d="M.9 0q.6 0 1.3.7l1.3 2.2q.7 1.4.2 1.9l-.9.4Q4 3.9.9 0"/><path fill="#fbfaf5" d="M2.8 5.2h-.2q-.7.1-1.4-.6-.8-.7-1-1.8Q-.2 1.7 0 .9T.9 0q3 3.9 1.9 5.2"/></g><g id="dB"><path fill="#fefefe" fill-opacity=".5" d="M2 0q.2 1.3 1.6 3.5L4 4.6Q4 8.5.5 5.9-.3 3.7.2.7.4-.1 2 0"/><path fill="#ddd" fill-opacity=".3" d="M5.1 7.5q.5-1.6 2.7-2.3l-1 1.2z"/></g><g id="dz"><path fill="#fefefe" d="M.9 0q.6 0 1.3.7l1.3 2.2q.7 1.4.2 1.9l-.9.4Q4 3.9.9 0"/><path fill="#fcfbf8" d="M2.8 5.2h-.2q-.7.1-1.4-.6-.8-.7-1-1.8Q-.2 1.7 0 .9T.9 0q3 3.9 1.9 5.2"/></g><g id="dN"><path fill="#fefefe" fill-opacity=".5" d="M2 0q.2 1.3 1.6 3.5L4 4.6Q4 8.5.5 5.9-.3 3.7.2.7.4-.1 2 0"/><path fill="#eee" fill-opacity=".3" d="M5.1 7.5q.5-1.6 2.7-2.3l-1 1.2z"/></g><g id="dK"><path fill="#fefefe" d="M.9 0q.6 0 1.3.7l1.3 2.2q.7 1.4.2 1.9l-.9.4Q4 3.9.9 0"/><path fill="#fdfdfb" d="M2.8 5.2h-.2q-.7.1-1.4-.6-.8-.7-1-1.8Q-.2 1.7 0 .9T.9 0q3 3.9 1.9 5.2"/></g><g id="dX" fill="#fff"><path fill-opacity=".5" d="M2 0q.2 1.3 1.6 3.5L4 4.6Q4 8.5.5 5.9-.3 3.7.2.7.4-.1 2 0"/><path fill-opacity=".3" d="M5.1 7.5q.5-1.6 2.7-2.3l-1 1.2z"/></g><g id="dV" fill="#fff"><path d="M.9 0q.6 0 1.3.7l1.3 2.2q.7 1.4.2 1.9l-.9.4Q4 3.9.9 0"/><path d="M2.8 5.2h-.2q-.7.1-1.4-.6-.8-.7-1-1.8Q-.2 1.7 0 .9T.9 0q3 3.9 1.9 5.2"/></g><g id="eh"><path fill="#fff" fill-opacity=".5" d="M2 0q.2 1.3 1.6 3.5L4 4.6Q4 8.5.5 5.9-.3 3.7.2.7.4-.1 2 0"/><path fill="#000" fill-opacity=".3" d="M5.1 7.5q.5-1.6 2.7-2.3l-1 1.2z"/></g><g id="ef"><path fill="#fff" d="M.9 0q.6 0 1.3.7l1.3 2.2q.7 1.4.2 1.9l-.9.4Q4 3.9.9 0"/><path fill="#f0e9d2" d="M2.8 5.2h-.2q-.7.1-1.4-.6-.8-.7-1-1.8Q-.2 1.7 0 .9T.9 0q3 3.9 1.9 5.2"/></g><g id="gH" transform="translate(5.5 6.5)"><use xlink:href="#bc" width="9.3" height="4.8" transform="translate(-1.2 -2.95)"/><use xlink:href="#bd" width="3.9" height="5.3" transform="translate(1.55 -4.85)"/><use xlink:href="#be" width="10.1" height="8.8" transform="translate(-5.5 -6.5)"/><use xlink:href="#bg" width="7.8" height="7.5" transform="translate(.25 -5.65)"/></g><g id="gG" transform="translate(3.85 3.35)"><use xlink:href="#bh" width=".1" height=".1" transform="translate(.5 -3.35)"/><use xlink:href="#bi" width="7.8" height="6.5" transform="translate(-3.85 -3.35)"/><use xlink:href="#bj" width="3.4" height="5.6" transform="translate(.5 -3.3)"/></g><g id="gF" transform="translate(4.1 1.15)"><use xlink:href="#bk" width="13.7" height="7.3" transform="translate(-4.1 -1.15)"/><use xlink:href="#bl" width="14.8" height="7.8" transform="matrix(.9288 0 0 .9236 -4.1 -1.15)"/></g><g id="gC" transform="translate(5.5 6.5)"><use xlink:href="#bm" width="9.3" height="4.8" transform="translate(-1.2 -2.95)"/><use xlink:href="#bn" width="3.9" height="5.3" transform="translate(1.55 -4.85)"/><use xlink:href="#bp" width="10.1" height="8.8" transform="translate(-5.5 -6.5)"/><use xlink:href="#bq" width="7.8" height="7.5" transform="translate(.25 -5.65)"/></g><g id="gB" transform="translate(3.85 3.35)"><use xlink:href="#br" width=".1" height=".1" transform="translate(.5 -3.35)"/><use xlink:href="#bs" width="7.8" height="6.5" transform="translate(-3.85 -3.35)"/><use xlink:href="#bj" width="3.4" height="5.6" transform="translate(.5 -3.3)"/></g><g id="gA" transform="translate(4.1 1.15)"><use xlink:href="#bt" width="13.7" height="7.3" transform="translate(-4.1 -1.15)"/><use xlink:href="#bu" width="14.8" height="7.8" transform="matrix(.9288 0 0 .9236 -4.1 -1.15)"/></g><g id="gx" transform="translate(5.5 6.5)"><use xlink:href="#bv" width="9.3" height="4.8" transform="translate(-1.2 -2.95)"/><use xlink:href="#bw" width="3.9" height="5.3" transform="translate(1.55 -4.85)"/><use xlink:href="#bx" width="10.1" height="8.8" transform="translate(-5.5 -6.5)"/><use xlink:href="#by" width="7.8" height="7.5" transform="translate(.25 -5.65)"/></g><g id="gw" transform="translate(3.85 3.35)"><use xlink:href="#bA" width=".1" height=".1" transform="translate(.5 -3.35)"/><use xlink:href="#bB" width="7.8" height="6.5" transform="translate(-3.85 -3.35)"/><use xlink:href="#bj" width="3.4" height="5.6" transform="translate(.5 -3.3)"/></g><g id="gv" transform="translate(4.1 1.15)"><use xlink:href="#bC" width="13.7" height="7.3" transform="translate(-4.1 -1.15)"/><use xlink:href="#bD" width="14.8" height="7.8" transform="matrix(.9288 0 0 .9236 -4.1 -1.15)"/></g><g id="gt"><use xlink:href="#bE" width="14.8" height="7.8"/><use xlink:href="#bF" width="14.8" height="7.8"/></g><g id="gr" transform="translate(5.5 6.5)"><use xlink:href="#bG" width="9.3" height="4.8" transform="translate(-1.2 -2.95)"/><use xlink:href="#bH" width="3.9" height="5.3" transform="translate(1.55 -4.85)"/><use xlink:href="#bI" width="10.1" height="8.8" transform="translate(-5.5 -6.5)"/><use xlink:href="#bJ" width="7.8" height="7.5" transform="translate(.25 -5.65)"/></g><g id="gq" transform="translate(3.85 3.35)"><use xlink:href="#bL" width=".1" height=".1" transform="translate(.5 -3.35)"/><use xlink:href="#bM" width="7.8" height="6.5" transform="translate(-3.85 -3.35)"/><use xlink:href="#bj" width="3.4" height="5.6" transform="translate(.5 -3.3)"/></g><g id="gp" transform="translate(4.1 1.15)"><use xlink:href="#bN" width="13.7" height="7.3" transform="translate(-4.1 -1.15)"/><use xlink:href="#bO" width="14.8" height="7.8" transform="matrix(.9288 0 0 .9236 -4.1 -1.15)"/></g><g id="gn"><use xlink:href="#bP" width="14.8" height="7.8"/><use xlink:href="#bQ" width="14.8" height="7.8"/></g><g id="gl" transform="translate(5.5 6.5)"><use xlink:href="#bR" width="9.3" height="4.8" transform="translate(-1.2 -2.95)"/><use xlink:href="#bS" width="3.9" height="5.3" transform="translate(1.55 -4.85)"/><use xlink:href="#bT" width="10.1" height="8.8" transform="translate(-5.5 -6.5)"/><use xlink:href="#bU" width="7.8" height="7.5" transform="translate(.25 -5.65)"/></g><g id="gk" transform="translate(3.85 3.35)"><use xlink:href="#bW" width=".1" height=".1" transform="translate(.5 -3.35)"/><use xlink:href="#bX" width="7.8" height="6.5" transform="translate(-3.85 -3.35)"/><use xlink:href="#bj" width="3.4" height="5.6" transform="translate(.5 -3.3)"/></g><g id="gj" transform="translate(4.1 1.15)"><use xlink:href="#bY" width="13.7" height="7.3" transform="translate(-4.1 -1.15)"/><use xlink:href="#bZ" width="14.8" height="7.8" transform="matrix(.9288 0 0 .9236 -4.1 -1.15)"/></g><g id="gh"><use xlink:href="#ca" width="14.8" height="7.8"/><use xlink:href="#cb" width="14.8" height="7.8"/></g><g id="gf" transform="translate(5.5 6.5)"><use xlink:href="#cc" width="9.3" height="4.8" transform="translate(-1.2 -2.95)"/><use xlink:href="#cd" width="3.9" height="5.3" transform="translate(1.55 -4.85)"/><use xlink:href="#cf" width="10.1" height="8.8" transform="translate(-5.5 -6.5)"/><use xlink:href="#cg" width="7.8" height="7.5" transform="translate(.25 -5.65)"/></g><g id="ge" transform="translate(3.85 3.35)"><use xlink:href="#ch" width=".1" height=".1" transform="translate(.5 -3.35)"/><use xlink:href="#ci" width="7.8" height="6.5" transform="translate(-3.85 -3.35)"/><use xlink:href="#bj" width="3.4" height="5.6" transform="translate(.5 -3.3)"/></g><g id="gd" transform="translate(4.1 1.15)"><use xlink:href="#cj" width="13.7" height="7.3" transform="translate(-4.1 -1.15)"/><use xlink:href="#ck" width="14.8" height="7.8" transform="matrix(.9288 0 0 .9236 -4.1 -1.15)"/></g><g id="ga" transform="translate(5.5 6.5)"><use xlink:href="#cl" width="9.3" height="4.8" transform="translate(-1.2 -2.95)"/><use xlink:href="#cm" width="3.9" height="5.3" transform="translate(1.55 -4.85)"/><use xlink:href="#cn" width="10.1" height="8.8" transform="translate(-5.5 -6.5)"/><use xlink:href="#co" width="7.8" height="7.5" transform="translate(.25 -5.65)"/></g><g id="fZ" transform="translate(3.85 3.35)"><use xlink:href="#cq" width=".1" height=".1" transform="translate(.5 -3.35)"/><use xlink:href="#cp" width="7.8" height="6.5" transform="translate(-3.85 -3.35)"/><use xlink:href="#bj" width="3.4" height="5.6" transform="translate(.5 -3.3)"/></g><g id="fY" transform="translate(4.1 1.15)"><use xlink:href="#cs" width="13.7" height="7.3" transform="translate(-4.1 -1.15)"/><use xlink:href="#ct" width="14.8" height="7.8" transform="matrix(.9288 0 0 .9236 -4.1 -1.15)"/></g><g id="fW"><use xlink:href="#cu" width="14.8" height="7.8"/><use xlink:href="#cv" width="14.8" height="7.8"/></g><g id="fU" transform="translate(5.5 6.5)"><use xlink:href="#cw" width="9.3" height="4.8" transform="translate(-1.2 -2.95)"/><use xlink:href="#cx" width="3.9" height="5.3" transform="translate(1.55 -4.85)"/><use xlink:href="#cy" width="10.1" height="8.8" transform="translate(-5.5 -6.5)"/><use xlink:href="#cz" width="7.8" height="7.5" transform="translate(.25 -5.65)"/></g><g id="fT" transform="translate(3.85 3.35)"><use xlink:href="#cB" width=".1" height=".1" transform="translate(.5 -3.35)"/><use xlink:href="#cA" width="7.8" height="6.5" transform="translate(-3.85 -3.35)"/><use xlink:href="#cD" width="3.4" height="5.6" transform="translate(.5 -3.3)"/></g><g id="fS" transform="translate(4.1 1.15)"><use xlink:href="#cE" width="13.7" height="7.3" transform="translate(-4.1 -1.15)"/><use xlink:href="#cF" width="14.8" height="7.8" transform="matrix(.9288 0 0 .9236 -4.1 -1.15)"/></g><g id="fQ"><use xlink:href="#cG" width="14.8" height="7.8"/><use xlink:href="#cH" width="14.8" height="7.8"/></g><g id="fO" transform="translate(5.5 6.5)"><use xlink:href="#cI" width="9.3" height="4.8" transform="translate(-1.2 -2.95)"/><use xlink:href="#cJ" width="3.9" height="5.3" transform="translate(1.55 -4.85)"/><use xlink:href="#cK" width="10.1" height="8.8" transform="translate(-5.5 -6.5)"/><use xlink:href="#cL" width="7.8" height="7.5" transform="translate(.25 -5.65)"/></g><g id="fN" transform="translate(3.85 3.35)"><use xlink:href="#cN" width=".1" height=".1" transform="translate(.5 -3.35)"/><use xlink:href="#cO" width="7.8" height="6.5" transform="translate(-3.85 -3.35)"/><use xlink:href="#cD" width="3.4" height="5.6" transform="translate(.5 -3.3)"/></g><g id="fM" transform="translate(4.1 1.15)"><use xlink:href="#cP" width="13.7" height="7.3" transform="translate(-4.1 -1.15)"/><use xlink:href="#cQ" width="14.8" height="7.8" transform="matrix(.9288 0 0 .9236 -4.1 -1.15)"/></g><g id="fK"><use xlink:href="#cR" width="14.8" height="7.8"/><use xlink:href="#cS" width="14.8" height="7.8"/></g><g id="fI" transform="translate(5.5 6.5)"><use xlink:href="#cT" width="9.3" height="4.8" transform="translate(-1.2 -2.95)"/><use xlink:href="#cU" width="3.9" height="5.3" transform="translate(1.55 -4.85)"/><use xlink:href="#cW" width="10.1" height="8.8" transform="translate(-5.5 -6.5)"/><use xlink:href="#cX" width="7.8" height="7.5" transform="translate(.25 -5.65)"/></g><g id="fH" transform="translate(3.85 3.35)"><use xlink:href="#cY" width=".1" height=".1" transform="translate(.5 -3.35)"/><use xlink:href="#cZ" width="7.8" height="6.5" transform="translate(-3.85 -3.35)"/><use xlink:href="#cD" width="3.4" height="5.6" transform="translate(.5 -3.3)"/></g><g id="fG" transform="translate(4.1 1.15)"><use xlink:href="#da" width="13.7" height="7.3" transform="translate(-4.1 -1.15)"/><use xlink:href="#db" width="14.8" height="7.8" transform="matrix(.9288 0 0 .9236 -4.1 -1.15)"/></g><g id="fD" transform="translate(5.5 6.5)"><use xlink:href="#dc" width="9.3" height="4.8" transform="translate(-1.2 -2.95)"/><use xlink:href="#dd" width="3.9" height="5.3" transform="translate(1.55 -4.85)"/><use xlink:href="#de" width="10.1" height="8.8" transform="translate(-5.5 -6.5)"/><use xlink:href="#df" width="7.8" height="7.5" transform="translate(.25 -5.65)"/></g><g id="fC" transform="translate(3.85 3.35)"><use xlink:href="#dh" width=".1" height=".1" transform="translate(.5 -3.35)"/><use xlink:href="#di" width="7.8" height="6.5" transform="translate(-3.85 -3.35)"/><use xlink:href="#cD" width="3.4" height="5.6" transform="translate(.5 -3.3)"/></g><g id="fB" transform="translate(4.1 1.15)"><use xlink:href="#dj" width="13.7" height="7.3" transform="translate(-4.1 -1.15)"/><use xlink:href="#dk" width="14.8" height="7.8" transform="matrix(.9288 0 0 .9236 -4.1 -1.15)"/></g><g id="fz"><use xlink:href="#dl" width="14.8" height="7.8"/><use xlink:href="#dm" width="14.8" height="7.8"/></g><g id="fx" transform="translate(5.5 6.5)"><use xlink:href="#dn" width="9.3" height="4.8" transform="translate(-1.2 -2.95)"/><use xlink:href="#do" width="3.9" height="5.3" transform="translate(1.55 -4.85)"/><use xlink:href="#dp" width="10.1" height="8.8" transform="translate(-5.5 -6.5)"/><use xlink:href="#dq" width="7.8" height="7.5" transform="translate(.25 -5.65)"/></g><g id="fw" transform="translate(3.85 3.35)"><use xlink:href="#ds" width=".1" height=".1" transform="translate(.5 -3.35)"/><use xlink:href="#dt" width="7.8" height="6.5" transform="translate(-3.85 -3.35)"/><use xlink:href="#cD" width="3.4" height="5.6" transform="translate(.5 -3.3)"/></g><g id="fv" transform="translate(4.1 1.15)"><use xlink:href="#du" width="13.7" height="7.3" transform="translate(-4.1 -1.15)"/><use xlink:href="#dv" width="14.8" height="7.8" transform="matrix(.9288 0 0 .9236 -4.1 -1.15)"/></g><g id="ft"><use xlink:href="#dw" width="14.8" height="7.8"/><use xlink:href="#dx" width="14.8" height="7.8"/></g><g id="fr" transform="translate(5.5 6.5)"><use xlink:href="#dy" width="9.3" height="4.8" transform="translate(-1.2 -2.95)"/><use xlink:href="#dz" width="3.9" height="5.3" transform="translate(1.55 -4.85)"/><use xlink:href="#dA" width="10.1" height="8.8" transform="translate(-5.5 -6.5)"/><use xlink:href="#dB" width="7.8" height="7.5" transform="translate(.25 -5.65)"/></g><g id="fq" transform="translate(3.85 3.35)"><use xlink:href="#dD" width=".1" height=".1" transform="translate(.5 -3.35)"/><use xlink:href="#dE" width="7.8" height="6.5" transform="translate(-3.85 -3.35)"/><use xlink:href="#cD" width="3.4" height="5.6" transform="translate(.5 -3.3)"/></g><g id="fp" transform="translate(4.1 1.15)"><use xlink:href="#dF" width="13.7" height="7.3" transform="translate(-4.1 -1.15)"/><use xlink:href="#dG" width="14.8" height="7.8" transform="matrix(.9288 0 0 .9236 -4.1 -1.15)"/></g><g id="fn"><use xlink:href="#dH" width="14.8" height="7.8"/><use xlink:href="#dI" width="14.8" height="7.8"/></g><g id="fl" transform="translate(5.5 6.5)"><use xlink:href="#dJ" width="9.3" height="4.8" transform="translate(-1.2 -2.95)"/><use xlink:href="#dK" width="3.9" height="5.3" transform="translate(1.55 -4.85)"/><use xlink:href="#dL" width="10.1" height="8.8" transform="translate(-5.5 -6.5)"/><use xlink:href="#dN" width="7.8" height="7.5" transform="translate(.25 -5.65)"/></g><g id="fk" transform="translate(3.85 3.35)"><use xlink:href="#dO" width=".1" height=".1" transform="translate(.5 -3.35)"/><use xlink:href="#dP" width="7.8" height="6.5" transform="translate(-3.85 -3.35)"/><use xlink:href="#cD" width="3.4" height="5.6" transform="translate(.5 -3.3)"/></g><g id="fj" transform="translate(4.1 1.15)"><use xlink:href="#dQ" width="13.7" height="7.3" transform="translate(-4.1 -1.15)"/><use xlink:href="#dR" width="14.8" height="7.8" transform="matrix(.9288 0 0 .9236 -4.1 -1.15)"/></g><g id="fh"><use xlink:href="#dS" width="14.8" height="7.8"/><use xlink:href="#dT" width="14.8" height="7.8"/></g><g id="ff" transform="translate(5.5 6.5)"><use xlink:href="#dU" width="9.3" height="4.8" transform="translate(-1.2 -2.95)"/><use xlink:href="#dV" width="3.9" height="5.3" transform="translate(1.55 -4.85)"/><use xlink:href="#dW" width="10.1" height="8.8" transform="translate(-5.5 -6.5)"/><use xlink:href="#dX" width="7.8" height="7.5" transform="translate(.25 -5.65)"/></g><g id="fe" transform="translate(3.85 3.35)"><use xlink:href="#dZ" width="7.8" height="6.5" transform="translate(-3.85 -3.35)"/><use xlink:href="#bj" width="3.4" height="5.6" transform="translate(.5 -3.3)"/></g><g id="fd" transform="translate(4.1 1.15)"><use xlink:href="#eb" width="13.7" height="7.3" transform="translate(-4.1 -1.15)"/><use xlink:href="#dT" width="14.8" height="7.8" transform="matrix(.9288 0 0 .9236 -4.1 -1.15)"/></g><g id="fb"><use xlink:href="#ec" width="14.8" height="7.8"/><use xlink:href="#db" width="14.8" height="7.8"/></g><g id="eZ"><use xlink:href="#ed" width="14.8" height="7.8"/><use xlink:href="#bZ" width="14.8" height="7.8"/></g><g id="er" transform="translate(5.5 6.5)"><use xlink:href="#ee" width="9.3" height="4.8" transform="translate(-1.2 -2.95)"/><use xlink:href="#ef" width="3.9" height="5.3" transform="translate(1.55 -4.85)"/><use xlink:href="#eg" width="10.1" height="8.8" transform="translate(-5.5 -6.5)"/><use xlink:href="#eh" width="7.8" height="7.5" transform="translate(.25 -5.65)"/></g><g id="eq" transform="translate(3.85 3.35)"><use xlink:href="#ei" width=".1" height=".1" transform="translate(.5 -3.35)"/><use xlink:href="#ej" width="7.8" height="6.5" transform="translate(-3.85 -3.35)"/><use xlink:href="#bj" width="3.4" height="5.6" transform="translate(.5 -3.3)"/></g><g id="ep"><use xlink:href="#ek" width="14.8" height="7.8"/><use xlink:href="#el" width="14.8" height="7.8"/></g><g id="eo" transform="translate(4.1 1.15)"><use xlink:href="#em" width="13.7" height="7.3" transform="translate(-4.1 -1.15)"/><use xlink:href="#el" width="14.8" height="7.8" transform="matrix(.9288 0 0 .9236 -4.1 -1.15)"/></g><clipPath id="en"><path d="M1 1h26v22H1z"/></clipPath><clipPath id="et"><path d="M28 1h26v22H28z"/></clipPath><clipPath id="eu"><path d="M55 1h26v22H55z"/></clipPath><clipPath id="ev"><path d="M82 1h26v22H82z"/></clipPath><clipPath id="ew"><path d="M109 1h26v22h-26z"/></clipPath><clipPath id="ex"><path d="M136 1h26v22h-26z"/></clipPath><clipPath id="ey"><path d="M163 1h26v22h-26z"/></clipPath><clipPath id="ez"><path d="M190 1h26v22h-26z"/></clipPath><clipPath id="eA"><path d="M217 1h26v22h-26z"/></clipPath><clipPath id="eB"><path d="M244 1h26v22h-26z"/></clipPath><clipPath id="eC"><path d="M271 1h26v22h-26z"/></clipPath><clipPath id="eD"><path d="M298 1h26v22h-26z"/></clipPath><clipPath id="eE"><path d="M325 1h26v22h-26z"/></clipPath><clipPath id="eF"><path d="M352 1h26v22h-26z"/></clipPath><clipPath id="eG"><path d="M379 1h26v22h-26z"/></clipPath><clipPath id="eH"><path d="M406 1h26v22h-26z"/></clipPath><clipPath id="eI"><path d="M433 1h26v22h-26z"/></clipPath><clipPath id="eJ"><path d="M460 1h26v22h-26z"/></clipPath><clipPath id="eK"><path d="M487 1h26v22h-26z"/></clipPath><clipPath id="eL"><path d="M514 1h26v22h-26z"/></clipPath><clipPath id="eM"><path d="M541 1h26v22h-26z"/></clipPath><clipPath id="eN"><path d="M568 1h26v22h-26z"/></clipPath><clipPath id="eO"><path d="M595 1h26v22h-26z"/></clipPath><clipPath id="eP"><path d="M622 1h26v22h-26z"/></clipPath><clipPath id="eQ"><path d="M649 1h26v22h-26z"/></clipPath><clipPath id="eR"><path d="M676 1h26v22h-26z"/></clipPath><clipPath id="eS"><path d="M703 1h26v22h-26z"/></clipPath><clipPath id="eT"><path d="M730 1h26v22h-26z"/></clipPath><clipPath id="eU"><path d="M757 1h26v22h-26z"/></clipPath><clipPath id="eV"><path d="M784 1h26v22h-26z"/></clipPath><clipPath id="eW"><path d="M811 1h26v22h-26z"/></clipPath><clipPath id="eX"><path d="M838 1h26v22h-26z"/></clipPath><clipPath id="eY"><path d="M865 1h26v22h-26z"/></clipPath><clipPath id="fa"><path d="M892 1h26v22h-26z"/></clipPath><clipPath id="fc"><path d="M919 1h26v22h-26z"/></clipPath><clipPath id="fi"><path d="M946 1h26v22h-26z"/></clipPath><clipPath id="fo"><path d="M973 1h26v22h-26z"/></clipPath><clipPath id="fu"><path d="M1000 1h26v22h-26z"/></clipPath><clipPath id="fA"><path d="M1027 1h26v22h-26z"/></clipPath><clipPath id="fF"><path d="M1054 1h26v22h-26z"/></clipPath><clipPath id="fL"><path d="M1081 1h26v22h-26z"/></clipPath><clipPath id="fR"><path d="M1108 1h26v22h-26z"/></clipPath><clipPath id="fX"><path d="M1135 1h26v22h-26z"/></clipPath><clipPath id="gc"><path d="M1162 1h26v22h-26z"/></clipPath><clipPath id="gi"><path d="M1189 1h26v22h-26z"/></clipPath><clipPath id="go"><path d="M1216 1h26v22h-26z"/></clipPath><clipPath id="gu"><path d="M1243 1h26v22h-26z"/></clipPath><clipPath id="gz"><path d="M1270 1h26v22h-26z"/></clipPath><clipPath id="gE"><path d="M1297 1h26v22h-26z"/></clipPath><clipPath id="gJ"><path d="M1324 1h26v22h-26z"/></clipPath><clipPath id="gK"><path d="M1351 1h26v22h-26z"/></clipPath><clipPath id="gL"><path d="M1378 1h26v22h-26z"/></clipPath><clipPath id="gM"><path d="M1405 1h26v22h-26z"/></clipPath><clipPath id="gN"><path d="M1432 1h26v22h-26z"/></clipPath><clipPath id="gO"><path d="M1459 1h26v22h-26z"/></clipPath><clipPath id="gP"><path d="M1486 1h26v22h-26z"/></clipPath><clipPath id="gQ"><path d="M1513 1h26v22h-26z"/></clipPath><clipPath id="gR"><path d="M1540 1h26v22h-26z"/></clipPath><clipPath id="gS"><path d="M1567 1h26v22h-26z"/></clipPath><clipPath id="gT"><path d="M1594 1h26v22h-26z"/></clipPath><clipPath id="gU"><path d="M1621 1h26v22h-26z"/></clipPath><clipPath id="gV"><path d="M1648 1h26v22h-26z"/></clipPath><clipPath id="gW"><path d="M1675 1h26v22h-26z"/></clipPath><clipPath id="gX"><path d="M1702 1h26v22h-26z"/></clipPath><clipPath id="gY"><path d="M1729 1h26v22h-26z"/></clipPath><clipPath id="gZ"><path d="M1756 1h26v22h-26z"/></clipPath><clipPath id="ha"><path d="M1783 1h26v22h-26z"/></clipPath><clipPath id="hb"><path d="M1810 1h26v22h-26z"/></clipPath></defs><g clip-path="url(#en)"><g transform="translate(11.3 20)"><use xlink:href="#eo" width="13.7" height="7.3" transform="translate(-3.8 -3.25)scale(.5222)"/><use xlink:href="#ep" width="14.8" height="7.8" transform="translate(-.45 -3)scale(.5222)"/><use xlink:href="#eq" width="7.8" height="6.5" transform="matrix(-1 0 -.1231 1 4.5 -7)"/><use xlink:href="#er" width="13.6" height="8.8" transform="rotate(2.511 280.57 -109.986)scale(.9996)"/><use xlink:href="#es" width="5.8" height="7.1" transform="translate(-7.5 -9.05)"/></g></g><g clip-path="url(#et)"><g transform="translate(38.3 20)"><use xlink:href="#eo" width="13.7" height="7.3" transform="translate(-3.8 -3.25)scale(.5222)"/><use xlink:href="#ep" width="14.8" height="7.8" transform="translate(-.45 -3)scale(.5222)"/><use xlink:href="#eq" width="7.8" height="6.5" transform="matrix(-1 0 -.1231 1 4.5 -7)"/><use xlink:href="#er" width="13.6" height="8.8" transform="rotate(2.799 247.424 -99.225)scale(.9994)"/><use xlink:href="#es" width="5.8" height="7.1" transform="matrix(1 0 -.0138 1.0345 -7.3 -9.3)"/></g></g><g clip-path="url(#eu)"><g transform="translate(65.3 20)"><use xlink:href="#eo" width="13.7" height="7.3" transform="translate(-3.8 -3.25)scale(.5222)"/><use xlink:href="#ep" width="14.8" height="7.8" transform="translate(-.45 -3)scale(.5222)"/><use xlink:href="#eq" width="7.8" height="6.5" transform="matrix(-1 0 -.1231 1 4.5 -7)"/><use xlink:href="#er" width="13.6" height="8.8" transform="rotate(3.281 208.975 -84.605)scale(.9993)"/><use xlink:href="#es" width="5.8" height="7.1" transform="matrix(1 0 -.0285 1.0688 -7.15 -9.6)"/></g></g><g clip-path="url(#ev)"><g transform="translate(92.3 20)"><use xlink:href="#eo" width="13.7" height="7.3" transform="translate(-3.8 -3.25)scale(.5222)"/><use xlink:href="#ep" width="14.8" height="7.8" transform="translate(-.45 -3)scale(.5222)"/><use xlink:href="#eq" width="7.8" height="6.5" transform="matrix(-1 0 -.1231 1 4.5 -7)"/><use xlink:href="#er" width="13.6" height="8.8" transform="rotate(3.803 179.209 -73.79)scale(.9995)"/><use xlink:href="#es" width="5.8" height="7.1" transform="matrix(1 0 -.0441 1.1028 -7 -9.8)"/></g></g><g clip-path="url(#ew)"><g transform="translate(119.3 20)"><use xlink:href="#eo" width="13.7" height="7.3" transform="translate(-3.8 -3.25)scale(.5222)"/><use xlink:href="#ep" width="14.8" height="7.8" transform="translate(-.45 -3)scale(.5222)"/><use xlink:href="#eq" width="7.8" height="6.5" transform="matrix(-1 0 -.1231 1 4.5 -7)"/><use xlink:href="#er" width="13.6" height="8.8" transform="rotate(3.792 178.228 -73.938)scale(.9994)"/><use xlink:href="#es" width="5.8" height="7.1" transform="matrix(1 0 -.0606 1.1366 -6.8 -10.05)"/></g></g><g clip-path="url(#ex)"><g transform="translate(146.3 20)"><use xlink:href="#eo" width="13.7" height="7.3" transform="translate(-3.8 -3.25)scale(.5222)"/><use xlink:href="#ep" width="14.8" height="7.8" transform="translate(-.45 -3)scale(.5222)"/><use xlink:href="#eq" width="7.8" height="6.5" transform="matrix(-1 0 -.1231 1 4.5 -7)"/><use xlink:href="#er" width="13.6" height="8.8" transform="rotate(4.01 167.674 -70.207)scale(.9993)"/><use xlink:href="#es" width="5.8" height="7.1" transform="matrix(1 0 -.0819 1.17 -6.65 -10.35)"/></g></g><g clip-path="url(#ey)"><g transform="translate(173.3 20)"><use xlink:href="#eo" width="13.7" height="7.3" transform="translate(-3.8 -3.25)scale(.5222)"/><use xlink:href="#ep" width="14.8" height="7.8" transform="translate(-.45 -3)scale(.5222)"/><use xlink:href="#eq" width="7.8" height="6.5" transform="matrix(-1 0 -.1231 1 4.5 -7)"/><use xlink:href="#er" width="13.6" height="8.8" transform="rotate(4.045 166.256 -68.953)scale(.9994)"/><use xlink:href="#es" width="5.8" height="7.1" transform="matrix(1 0 -.1013 1.2034 -6.45 -10.65)"/></g></g><g clip-path="url(#ez)"><g transform="translate(200.3 20)"><use xlink:href="#eo" width="13.7" height="7.3" transform="translate(-3.8 -3.25)scale(.5222)"/><use xlink:href="#ep" width="14.8" height="7.8" transform="translate(-.45 -3)scale(.5222)"/><use xlink:href="#eq" width="7.8" height="6.5" transform="matrix(-1 0 -.1231 1 4.5 -7)"/><use xlink:href="#er" width="13.6" height="8.8" transform="rotate(4.264 157.588 -66.393)scale(.9994)"/><use xlink:href="#es" width="5.8" height="7.1" transform="matrix(1 0 -.1017 1.2089 -6.45 -10.75)"/></g></g><g clip-path="url(#eA)"><g transform="translate(227.3 20)"><use xlink:href="#eo" width="13.7" height="7.3" transform="translate(-3.8 -3.25)scale(.5222)"/><use xlink:href="#ep" width="14.8" height="7.8" transform="translate(-.45 -3)scale(.5222)"/><use xlink:href="#eq" width="7.8" height="6.5" transform="matrix(-1 0 -.1231 1 4.5 -7)"/><use xlink:href="#er" width="13.6" height="8.8" transform="rotate(4.292 155.856 -65.965)scale(.9994)"/><use xlink:href="#es" width="5.8" height="7.1" transform="matrix(1 0 -.107 1.2142 -6.3 -10.7)"/></g></g><g clip-path="url(#eB)"><g transform="translate(254.3 20)"><use xlink:href="#eo" width="13.7" height="7.3" transform="translate(-3.8 -3.25)scale(.5222)"/><use xlink:href="#ep" width="14.8" height="7.8" transform="translate(-.45 -3)scale(.5222)"/><use xlink:href="#eq" width="7.8" height="6.5" transform="matrix(-1 0 -.1231 1 4.5 -7)"/><use xlink:href="#er" width="13.6" height="8.8" transform="rotate(4.51 147.58 -62.394)scale(.9994)"/><use xlink:href="#es" width="5.8" height="7.1" transform="matrix(1 0 -.1123 1.2196 -6.35 -10.8)"/></g></g><g clip-path="url(#eC)"><g transform="translate(281.3 20)"><use xlink:href="#eo" width="13.7" height="7.3" transform="translate(-3.8 -3.25)scale(.5222)"/><use xlink:href="#ep" width="14.8" height="7.8" transform="translate(-.45 -3)scale(.5222)"/><use xlink:href="#eq" width="7.8" height="6.5" transform="matrix(-1 0 -.1231 1 4.5 -7)"/><use xlink:href="#er" width="13.6" height="8.8" transform="rotate(4.546 146.433 -61.962)scale(.9993)"/><use xlink:href="#es" width="5.8" height="7.1" transform="matrix(1 0 -.1137 1.2253 -6.25 -10.85)"/></g></g><g clip-path="url(#eD)"><g transform="translate(308.3 20)"><use xlink:href="#eo" width="13.7" height="7.3" transform="translate(-3.8 -3.25)scale(.5222)"/><use xlink:href="#ep" width="14.8" height="7.8" transform="translate(-.45 -3)scale(.5222)"/><use xlink:href="#eq" width="7.8" height="6.5" transform="matrix(-1 0 -.1231 1 4.5 -7)"/><use xlink:href="#er" width="13.6" height="8.8" transform="rotate(4.764 139.606 -59.387)scale(.9994)"/><use xlink:href="#es" width="5.8" height="7.1" transform="matrix(1 0 -.1191 1.2306 -6.3 -10.85)"/></g></g><g clip-path="url(#eE)"><g transform="translate(335.3 20)"><use xlink:href="#eo" width="13.7" height="7.3" transform="translate(-3.8 -3.25)scale(.5222)"/><use xlink:href="#ep" width="14.8" height="7.8" transform="translate(-.45 -3)scale(.5222)"/><use xlink:href="#eq" width="7.8" height="6.5" transform="matrix(-1 0 -.1231 1 4.5 -7)"/><use xlink:href="#er" width="13.6" height="8.8" transform="rotate(4.793 138.162 -59.043)scale(.9994)"/><use xlink:href="#es" width="5.8" height="7.1" transform="matrix(1 0 -.1246 1.2359 -6.15 -10.95)"/></g></g><g clip-path="url(#eF)"><g transform="translate(362.3 20)"><use xlink:href="#eo" width="13.7" height="7.3" transform="translate(-3.8 -3.25)scale(.5222)"/><use xlink:href="#ep" width="14.8" height="7.8" transform="translate(-.45 -3)scale(.5222)"/><use xlink:href="#eq" width="7.8" height="6.5" transform="matrix(-1 0 -.1231 1 4.5 -7)"/><use xlink:href="#er" width="13.6" height="8.8" transform="rotate(5.011 131.462 -56.697)scale(.9994)"/><use xlink:href="#es" width="5.8" height="7.1" transform="matrix(1 0 -.126 1.2416 -6.2 -11)"/></g></g><g clip-path="url(#eG)"><g transform="translate(389.3 20)"><use xlink:href="#eo" width="13.7" height="7.3" transform="translate(-3.8 -3.25)scale(.5222)"/><use xlink:href="#ep" width="14.8" height="7.8" transform="translate(-.45 -3)scale(.5222)"/><use xlink:href="#eq" width="7.8" height="6.5" transform="matrix(-1 0 -.1231 1 4.5 -7)"/><use xlink:href="#er" width="13.6" height="8.8" transform="rotate(5.04 130.69 -56.403)scale(.9994)"/><use xlink:href="#es" width="5.8" height="7.1" transform="matrix(1 0 -.1315 1.2469 -6.1 -10.95)"/></g></g><g clip-path="url(#eH)"><g transform="translate(416.3 20)"><use xlink:href="#eo" width="13.7" height="7.3" transform="translate(-3.8 -3.25)scale(.5222)"/><use xlink:href="#ep" width="14.8" height="7.8" transform="translate(-.45 -3)scale(.5222)"/><use xlink:href="#eq" width="7.8" height="6.5" transform="matrix(-1 0 -.1231 1 4.5 -7)"/><use xlink:href="#er" width="13.6" height="8.8" transform="rotate(5.274 125.327 -54.182)scale(.9997)"/><use xlink:href="#es" width="5.8" height="7.1" transform="matrix(1 0 -.1368 1.2526 -6.15 -11.05)"/></g></g><g clip-path="url(#eI)"><g transform="translate(443.3 20)"><use xlink:href="#eo" width="13.7" height="7.3" transform="rotate(75.006 4.402 -4.517)scale(.5222)"/><use xlink:href="#eq" width="7.8" height="6.5" transform="matrix(-1 0 -.1231 1 4.5 -11.7)"/><use xlink:href="#er" width="13.6" height="8.8" transform="translate(-4.65 -17.8)"/><use xlink:href="#es" width="5.8" height="7.1" transform="rotate(-87.208 -5.96 3.735)scale(.9998)"/><use xlink:href="#ep" width="14.8" height="7.8" transform="rotate(75.211 4.625 -1.65)scale(.5191)"/></g></g><g clip-path="url(#eJ)"><g transform="translate(470.3 20)"><use xlink:href="#eo" width="13.7" height="7.3" transform="rotate(75.006 4.402 -4.517)scale(.5222)"/><use xlink:href="#eq" width="7.8" height="6.5" transform="matrix(-1 0 -.1228 .9996 4.55 -11.85)"/><use xlink:href="#er" width="13.6" height="8.8" transform="translate(-4.65 -17.95)"/><use xlink:href="#es" width="5.8" height="7.1" transform="rotate(-82.442 -6.509 4.032)scale(.999)"/><use xlink:href="#ep" width="14.8" height="7.8" transform="rotate(76.191 4.624 -1.72)scale(.5187)"/></g></g><g clip-path="url(#eK)"><g transform="translate(497.3 20)"><use xlink:href="#eo" width="13.7" height="7.3" transform="rotate(75.006 4.402 -4.517)scale(.5222)"/><use xlink:href="#eq" width="7.8" height="6.5" transform="matrix(-1 0 -.1228 .9995 4.55 -11.95)"/><use xlink:href="#er" width="13.6" height="8.8" transform="translate(-4.65 -18.05)"/><use xlink:href="#es" width="5.8" height="7.1" transform="rotate(-77.456 -7.25 4.379)scale(.9986)"/><use xlink:href="#ep" width="14.8" height="7.8" transform="rotate(76.963 4.693 -1.78)scale(.5187)"/></g></g><g clip-path="url(#eL)"><g transform="translate(524.3 20)"><use xlink:href="#eo" width="13.7" height="7.3" transform="rotate(75.006 4.402 -4.517)scale(.5222)"/><use xlink:href="#eq" width="7.8" height="6.5" transform="matrix(-1 0 -.1228 .9994 4.55 -12.1)"/><use xlink:href="#er" width="13.6" height="8.8" transform="translate(-4.65 -18.2)"/><use xlink:href="#es" width="5.8" height="7.1" transform="rotate(-72.428 -8.052 4.908)scale(.999)"/><use xlink:href="#ep" width="14.8" height="7.8" transform="rotate(77.732 4.753 -1.784)scale(.5186)"/></g></g><g clip-path="url(#eM)"><g transform="translate(551.3 20)"><use xlink:href="#eo" width="13.7" height="7.3" transform="rotate(75.006 4.402 -4.517)scale(.5222)"/><use xlink:href="#eq" width="7.8" height="6.5" transform="matrix(-1 0 -.1228 .9994 4.55 -12.25)"/><use xlink:href="#er" width="13.6" height="8.8" transform="translate(-4.65 -18.35)"/><use xlink:href="#es" width="5.8" height="7.1" transform="rotate(-77.454 -7.282 4.354)scale(.9985)"/><use xlink:href="#ep" width="14.8" height="7.8" transform="rotate(78.692 4.781 -1.88)scale(.5187)"/></g></g><g clip-path="url(#eN)"><g transform="translate(578.3 20)"><use xlink:href="#eo" width="13.7" height="7.3" transform="rotate(75.006 4.402 -4.517)scale(.5222)"/><use xlink:href="#eq" width="7.8" height="6.5" transform="matrix(-1 0 -.1228 .9993 4.55 -12.35)"/><use xlink:href="#er" width="13.6" height="8.8" transform="translate(-4.65 -18.45)"/><use xlink:href="#es" width="5.8" height="7.1" transform="rotate(-82.442 -6.559 4.09)scale(.999)"/><use xlink:href="#ep" width="14.8" height="7.8" transform="rotate(79.468 4.845 -1.942)scale(.5186)"/></g></g><g clip-path="url(#eO)"><g transform="translate(605.3 20)"><use xlink:href="#eo" width="13.7" height="7.3" transform="rotate(90 3.5 -4.45)scale(.5222)"/><use xlink:href="#eq" width="7.8" height="6.5" transform="matrix(-1 0 -.1229 .9996 4.5 -12.5)"/><use xlink:href="#er" width="13.6" height="8.8" transform="translate(-4.65 -18.6)"/><use xlink:href="#es" width="5.8" height="7.1" transform="rotate(-87.208 -5.96 3.735)scale(.9998)"/><use xlink:href="#ep" width="14.8" height="7.8" transform="rotate(80.26 4.821 -1.984)scale(.519)"/></g></g><g clip-path="url(#eP)"><g transform="translate(632.3 20)"><use xlink:href="#eo" width="13.7" height="7.3" transform="rotate(90 3.5 -4.45)scale(.5222)"/><use xlink:href="#eq" width="7.8" height="6.5" transform="matrix(-1 0 -.1228 .9993 4.5 -12.55)"/><use xlink:href="#er" width="13.6" height="8.8" transform="translate(-4.65 -18.65)"/><use xlink:href="#es" width="5.8" height="7.1" transform="rotate(-82.442 -6.509 4.032)scale(.999)"/><use xlink:href="#ep" width="14.8" height="7.8" transform="rotate(80.434 4.894 -2.008)scale(.5187)"/></g></g><g clip-path="url(#eQ)"><g transform="translate(659.3 20)"><use xlink:href="#eo" width="13.7" height="7.3" transform="rotate(90 3.5 -4.45)scale(.5222)"/><use xlink:href="#eq" width="7.8" height="6.5" transform="matrix(-1 0 -.1228 .9993 4.5 -12.6)"/><use xlink:href="#er" width="13.6" height="8.8" transform="translate(-4.65 -18.7)"/><use xlink:href="#es" width="5.8" height="7.1" transform="rotate(-77.456 -7.25 4.379)scale(.9986)"/><use xlink:href="#ep" width="14.8" height="7.8" transform="rotate(80.434 4.978 -2.029)scale(.5187)"/></g></g><g clip-path="url(#eR)"><g transform="translate(686.3 20)"><use xlink:href="#eo" width="13.7" height="7.3" transform="rotate(90 3.5 -4.45)scale(.5222)"/><use xlink:href="#eq" width="7.8" height="6.5" transform="matrix(-1 0 -.1228 .9994 4.5 -12.65)"/><use xlink:href="#er" width="13.6" height="8.8" transform="translate(-4.65 -18.75)"/><use xlink:href="#es" width="5.8" height="7.1" transform="rotate(-72.428 -8.052 4.908)scale(.999)"/><use xlink:href="#ep" width="14.8" height="7.8" transform="rotate(80.434 5.037 -2.079)scale(.5187)"/></g></g><g clip-path="url(#eS)"><g transform="translate(713.3 20)"><use xlink:href="#eo" width="13.7" height="7.3" transform="rotate(90 3.5 -4.45)scale(.5222)"/><use xlink:href="#eq" width="7.8" height="6.5" transform="matrix(-1 0 -.1228 .9994 4.5 -12.7)"/><use xlink:href="#er" width="13.6" height="8.8" transform="translate(-4.65 -18.8)"/><use xlink:href="#es" width="5.8" height="7.1" transform="rotate(-74.957 -7.618 4.669)scale(.9983)"/><use xlink:href="#ep" width="14.8" height="7.8" transform="rotate(80.434 5.096 -2.129)scale(.5187)"/></g></g><g clip-path="url(#eT)"><g transform="translate(740.3 20)"><use xlink:href="#eo" width="13.7" height="7.3" transform="rotate(90 3.5 -4.45)scale(.5222)"/><use xlink:href="#eq" width="7.8" height="6.5" transform="matrix(-1 0 -.1228 .9994 4.5 -12.7)"/><use xlink:href="#er" width="13.6" height="8.8" transform="translate(-4.65 -18.8)"/><use xlink:href="#es" width="5.8" height="7.1" transform="rotate(-77.454 -7.282 4.354)scale(.9985)"/><use xlink:href="#ep" width="14.8" height="7.8" transform="rotate(80.434 5.18 -2.15)scale(.5187)"/></g></g><g clip-path="url(#eU)"><g transform="translate(767.3 20)"><use xlink:href="#eo" width="13.7" height="7.3" transform="rotate(90 3.5 -4.45)scale(.5222)"/><use xlink:href="#eq" width="7.8" height="6.5" transform="matrix(-1 0 -.1228 .9995 4.5 -12.75)"/><use xlink:href="#er" width="13.6" height="8.8" transform="translate(-4.65 -18.85)"/><use xlink:href="#es" width="5.8" height="7.1" transform="rotate(-79.95 -6.893 4.225)scale(.9988)"/><use xlink:href="#ep" width="14.8" height="7.8" transform="rotate(80.434 5.24 -2.2)scale(.5187)"/></g></g><g clip-path="url(#eV)"><g transform="translate(794.3 20)"><use xlink:href="#eo" width="13.7" height="7.3" transform="rotate(90 3.5 -4.45)scale(.5222)"/><use xlink:href="#eq" width="7.8" height="6.5" transform="matrix(-1 0 -.1228 .9995 4.5 -12.8)"/><use xlink:href="#er" width="13.6" height="8.8" transform="translate(-4.65 -18.9)"/><use xlink:href="#es" width="5.8" height="7.1" transform="rotate(-82.442 -6.559 4.09)scale(.999)"/><use xlink:href="#ep" width="14.8" height="7.8" transform="rotate(80.434 5.298 -2.25)scale(.5187)"/></g></g><g clip-path="url(#eW)"><g transform="translate(821.3 20)"><use xlink:href="#eo" width="13.7" height="7.3" transform="rotate(90 3.5 -4.45)scale(.5222)"/><use xlink:href="#eq" width="7.8" height="6.5" transform="matrix(-1 0 -.1228 .9996 4.5 -12.85)"/><use xlink:href="#er" width="13.6" height="8.8" transform="translate(-4.65 -18.95)"/><use xlink:href="#es" width="5.8" height="7.1" transform="rotate(-84.747 -6.227 3.91)scale(.9994)"/><use xlink:href="#ep" width="14.8" height="7.8" transform="rotate(80.434 5.382 -2.27)scale(.5187)"/></g></g><g clip-path="url(#eX)"><g transform="translate(848.3 20)"><use xlink:href="#eo" width="13.7" height="7.3" transform="rotate(90 3.75 -4.35)scale(.5222)"/><use xlink:href="#eq" width="7.8" height="6.5" transform="matrix(-1 0 -.1231 1 4.5 -12.9)"/><use xlink:href="#er" width="13.6" height="8.8" transform="translate(-4.65 -19)"/><use xlink:href="#es" width="5.8" height="7.1" transform="rotate(-87.208 -5.96 3.735)scale(.9998)"/><use xlink:href="#ep" width="14.8" height="7.8" transform="rotate(80.26 5.43 -2.345)scale(.519)"/></g></g><g clip-path="url(#eY)"><g transform="translate(875.3 20)"><use xlink:href="#eo" width="13.7" height="7.3" transform="rotate(90 3.75 -4.35)scale(.5222)"/><use xlink:href="#eq" width="7.8" height="6.5" transform="matrix(-1 0 -.1231 1 4.5 -12.9)"/><use xlink:href="#er" width="13.6" height="8.8" transform="translate(-4.65 -19)"/><use xlink:href="#es" width="5.8" height="7.1" transform="rotate(-87.208 -5.96 3.735)scale(.9998)"/><use xlink:href="#eZ" width="14.8" height="7.8" transform="rotate(55.675 8.255 -2.482)scale(.5184)"/></g></g><g clip-path="url(#fa)"><g transform="translate(902.3 20)"><use xlink:href="#eo" width="13.7" height="7.3" transform="rotate(90 3.75 -4.35)scale(.5222)"/><use xlink:href="#eq" width="7.8" height="6.5" transform="matrix(-1 0 -.1231 1 4.5 -12.9)"/><use xlink:href="#er" width="13.6" height="8.8" transform="translate(-4.65 -19)"/><use xlink:href="#es" width="5.8" height="7.1" transform="rotate(-87.208 -5.96 3.735)scale(.9998)"/><use xlink:href="#fb" width="14.8" height="7.8" transform="rotate(31.066 15.096 -2.161)scale(.5186)"/></g></g><g clip-path="url(#fc)"><g transform="translate(929.3 20)"><use xlink:href="#fd" width="13.7" height="7.3" transform="translate(-4.1 -8.4)scale(.5222)"/><use xlink:href="#fe" width="7.8" height="6.5" transform="matrix(-1 0 -.1231 1 4.5 -11.7)"/><use xlink:href="#ff" width="13.6" height="8.8" transform="translate(1.4 -15.95)"/><use xlink:href="#fg" width="5.8" height="7.1" transform="rotate(32.1 25.202 -13.46)scale(.9983)"/><use xlink:href="#fh" width="14.8" height="7.8" transform="rotate(6.477 68.863 2.753)scale(.5195)"/></g></g><g clip-path="url(#fi)"><g transform="translate(956.3 20)"><use xlink:href="#fj" width="13.7" height="7.3" transform="translate(-4.1 -8.35)scale(.5222)"/><use xlink:href="#fk" width="7.8" height="6.5" transform="matrix(-1 0 -.1229 .9996 4.55 -11.65)"/><use xlink:href="#fl" width="13.6" height="8.8" transform="translate(1.35 -15.9)"/><use xlink:href="#fm" width="5.8" height="7.1" transform="rotate(32.067 25.144 -13.442)scale(.9968)"/><use xlink:href="#fn" width="14.8" height="7.8" transform="rotate(3.31 132.629 5.69)scale(.5195)"/></g></g><g clip-path="url(#fo)"><g transform="translate(983.3 20)"><use xlink:href="#fp" width="13.7" height="7.3" transform="translate(-4.1 -8.3)scale(.5222)"/><use xlink:href="#fq" width="7.8" height="6.5" transform="matrix(-1 0 -.1229 .9996 4.55 -11.6)"/><use xlink:href="#fr" width="13.6" height="8.8" transform="translate(1.35 -15.9)"/><use xlink:href="#fs" width="5.8" height="7.1" transform="rotate(32.054 25.043 -13.506)scale(.9968)"/><use xlink:href="#ft" width="14.8" height="7.8" transform="rotate(.298 1433.946 82.876)scale(.5196)"/></g></g><g clip-path="url(#fu)"><g transform="translate(1010.3 20)"><use xlink:href="#fv" width="13.7" height="7.3" transform="translate(-4.1 -8.25)scale(.5222)"/><use xlink:href="#fw" width="7.8" height="6.5" transform="matrix(-1 0 -.1229 .9996 4.55 -11.55)"/><use xlink:href="#fx" width="13.6" height="8.8" transform="translate(1.3 -15.85)"/><use xlink:href="#fy" width="5.8" height="7.1" transform="rotate(31.855 25.194 -13.632)scale(.9968)"/><use xlink:href="#fz" width="14.8" height="7.8" transform="matrix(.5191 -.0228 .0228 .5191 .35 -7.35)"/></g></g><g clip-path="url(#fA)"><g transform="translate(1037.3 20)"><use xlink:href="#fB" width="13.7" height="7.3" transform="translate(-4.1 -8.2)scale(.5222)"/><use xlink:href="#fC" width="7.8" height="6.5" transform="matrix(-1 0 -.1229 .9996 4.55 -11.5)"/><use xlink:href="#fD" width="13.6" height="8.8" transform="translate(1.25 -15.85)"/><use xlink:href="#fE" width="5.8" height="7.1" transform="rotate(31.842 25.118 -13.61)scale(.9968)"/><use xlink:href="#fb" width="14.8" height="7.8" transform="rotate(-5.51 -74.674 -6.197)scale(.5196)"/></g></g><g clip-path="url(#fF)"><g transform="translate(1064.3 20)"><use xlink:href="#fG" width="13.7" height="7.3" transform="translate(-4.1 -8.15)scale(.5222)"/><use xlink:href="#fH" width="7.8" height="6.5" transform="matrix(-1 0 -.1229 .9996 4.55 -11.45)"/><use xlink:href="#fI" width="13.6" height="8.8" transform="translate(1.25 -15.8)"/><use xlink:href="#fJ" width="5.8" height="7.1" transform="rotate(31.83 25.042 -13.587)scale(.9968)"/><use xlink:href="#fK" width="14.8" height="7.8" transform="matrix(.5139 -.077 .077 .5139 .15 -7.1)"/></g></g><g clip-path="url(#fL)"><g transform="translate(1091.3 20)"><use xlink:href="#fM" width="13.7" height="7.3" transform="translate(-4.1 -8.1)scale(.5222)"/><use xlink:href="#fN" width="7.8" height="6.5" transform="matrix(-1 0 -.1229 .9996 4.55 -11.4)"/><use xlink:href="#fO" width="13.6" height="8.8" transform="translate(1.2 -15.8)"/><use xlink:href="#fP" width="5.8" height="7.1" transform="rotate(31.817 24.965 -13.565)scale(.9968)"/><use xlink:href="#fQ" width="14.8" height="7.8" transform="matrix(.5091 -.1038 .1038 .5091 .1 -7)"/></g></g><g clip-path="url(#fR)"><g transform="translate(1118.3 20)"><use xlink:href="#fS" width="13.7" height="7.3" transform="translate(-4.1 -8.05)scale(.5222)"/><use xlink:href="#fT" width="7.8" height="6.5" transform="matrix(-1 0 -.1229 .9996 4.55 -11.35)"/><use xlink:href="#fU" width="13.6" height="8.8" transform="translate(1.15 -15.75)"/><use xlink:href="#fV" width="5.8" height="7.1" transform="rotate(31.809 24.885 -13.541)scale(.9968)"/><use xlink:href="#fW" width="14.8" height="7.8" transform="matrix(.5029 -.1303 .1303 .5029 0 -6.85)"/></g></g><g clip-path="url(#fX)"><g transform="translate(1145.3 20)"><use xlink:href="#fY" width="13.7" height="7.3" transform="translate(-4.1 -8)scale(.5222)"/><use xlink:href="#fZ" width="7.8" height="6.5" transform="matrix(-1 0 -.1229 .9996 4.55 -11.3)"/><use xlink:href="#ga" width="13.6" height="8.8" transform="translate(1.15 -15.75)"/><use xlink:href="#gb" width="5.8" height="7.1" transform="rotate(31.604 24.914 -13.443)scale(.9968)"/><use xlink:href="#eZ" width="14.8" height="7.8" transform="rotate(-17.532 -22.125 -2.914)scale(.5195)"/></g></g><g clip-path="url(#gc)"><g transform="translate(1172.3 20)"><use xlink:href="#gd" width="13.7" height="7.3" transform="translate(-4.1 -7.95)scale(.5222)"/><use xlink:href="#ge" width="7.8" height="6.5" transform="matrix(-1 0 -.1229 .9996 4.55 -11.25)"/><use xlink:href="#gf" width="13.6" height="8.8" transform="translate(1.1 -15.7)"/><use xlink:href="#gg" width="5.8" height="7.1" transform="rotate(31.592 24.837 -13.421)scale(.9968)"/><use xlink:href="#gh" width="14.8" height="7.8" transform="rotate(-20.542 -18.173 -2.723)scale(.5195)"/></g></g><g clip-path="url(#gi)"><g transform="translate(1199.3 20)"><use xlink:href="#gj" width="13.7" height="7.3" transform="translate(-4.1 -7.9)scale(.5222)"/><use xlink:href="#gk" width="7.8" height="6.5" transform="matrix(-1 0 -.1229 .9996 4.55 -11.2)"/><use xlink:href="#gl" width="13.6" height="8.8" transform="translate(.85 -15.7)"/><use xlink:href="#gm" width="5.8" height="7.1" transform="rotate(31.584 24.755 -13.398)scale(.9969)"/><use xlink:href="#gn" width="14.8" height="7.8" transform="rotate(-23.55 -15.62 -2.505)scale(.5196)"/></g></g><g clip-path="url(#go)"><g transform="translate(1226.3 20)"><use xlink:href="#gp" width="13.7" height="7.3" transform="translate(-4.1 -7.85)scale(.5222)"/><use xlink:href="#gq" width="7.8" height="6.5" transform="matrix(-1 0 -.1229 .9996 4.55 -11.15)"/><use xlink:href="#gr" width="13.6" height="8.8" transform="translate(.55 -15.75)"/><use xlink:href="#gs" width="5.8" height="7.1" transform="rotate(31.571 24.59 -13.35)scale(.9968)"/><use xlink:href="#gt" width="14.8" height="7.8" transform="rotate(-26.56 -13.415 -2.384)scale(.5195)"/></g></g><g clip-path="url(#gu)"><g transform="translate(1253.3 20)"><use xlink:href="#gv" width="13.7" height="7.3" transform="translate(-4.1 -7.8)scale(.5222)"/><use xlink:href="#gw" width="7.8" height="6.5" transform="matrix(-1 0 -.1229 .9996 4.55 -11.1)"/><use xlink:href="#gx" width="13.6" height="8.8" transform="translate(.3 -15.75)"/><use xlink:href="#gy" width="5.8" height="7.1" transform="rotate(31.558 24.513 -13.328)scale(.9968)"/><use xlink:href="#ep" width="14.8" height="7.8" transform="rotate(-29.59 -11.792 -2.507)scale(.5203)"/></g></g><g clip-path="url(#gz)"><g transform="translate(1280.3 20)"><use xlink:href="#gA" width="13.7" height="7.3" transform="translate(-4.1 -7.75)scale(.5222)"/><use xlink:href="#gB" width="7.8" height="6.5" transform="matrix(-1 0 -.1229 .9996 4.55 -11.05)"/><use xlink:href="#gC" width="13.6" height="8.8" transform="translate(.05 -15.75)"/><use xlink:href="#gD" width="5.8" height="7.1" transform="rotate(31.357 24.664 -13.457)scale(.9968)"/><use xlink:href="#ep" width="14.8" height="7.8" transform="rotate(-32.065 -10.516 -2.08)scale(.5193)"/></g></g><g clip-path="url(#gE)"><g transform="translate(1307.3 20)"><use xlink:href="#gF" width="13.7" height="7.3" transform="translate(-4.1 -7.7)scale(.5222)"/><use xlink:href="#gG" width="7.8" height="6.5" transform="matrix(-1 0 -.1229 .9996 4.55 -11)"/><use xlink:href="#gH" width="13.6" height="8.8" transform="translate(-.25 -15.8)"/><use xlink:href="#gI" width="5.8" height="7.1" transform="rotate(31.35 24.582 -13.433)scale(.9968)"/><use xlink:href="#ep" width="14.8" height="7.8" transform="rotate(-34.563 -9.486 -1.805)scale(.5191)"/></g></g><g clip-path="url(#gJ)"><g transform="translate(1334.3 20)"><use xlink:href="#eo" width="13.7" height="7.3" transform="translate(-4.1 -7.65)scale(.5222)"/><use xlink:href="#eq" width="7.8" height="6.5" transform="matrix(-1 0 -.1231 1 4.5 -10.95)"/><use xlink:href="#er" width="13.6" height="8.8" transform="translate(-.5 -15.8)"/><use xlink:href="#es" width="5.8" height="7.1" transform="rotate(31.383 24.374 -13.376)scale(.9984)"/><use xlink:href="#ep" width="14.8" height="7.8" transform="rotate(-36.877 -8.523 -1.425)scale(.519)"/></g></g><g clip-path="url(#gK)"><g transform="translate(1361.3 20)"><use xlink:href="#eo" width="13.7" height="7.3" transform="translate(-4.1 -7.65)scale(.5222)"/><use xlink:href="#eq" width="7.8" height="6.5" transform="matrix(-1 0 -.1231 1 4.5 -10.95)"/><use xlink:href="#er" width="13.6" height="8.8" transform="translate(-.5 -15.8)"/><use xlink:href="#es" width="5.8" height="7.1" transform="rotate(31.383 24.374 -13.376)scale(.9984)"/><use xlink:href="#ep" width="14.8" height="7.8" transform="matrix(.401 -.329 .329 .401 -1 -5.15)"/></g></g><g clip-path="url(#gL)"><g transform="translate(1388.3 20)"><use xlink:href="#eo" width="13.7" height="7.3" transform="translate(-4.1 -7.65)scale(.5222)"/><use xlink:href="#eq" width="7.8" height="6.5" transform="matrix(-1 0 -.1231 1 4.5 -10.95)"/><use xlink:href="#er" width="13.6" height="8.8" transform="translate(-.5 -15.8)"/><use xlink:href="#es" width="5.8" height="7.1" transform="rotate(31.383 24.374 -13.376)scale(.9984)"/><use xlink:href="#ep" width="14.8" height="7.8" transform="rotate(-41.873 -7.019 -1.037)scale(.5185)"/></g></g><g clip-path="url(#gM)"><g transform="translate(1415.3 20)"><use xlink:href="#eo" width="13.7" height="7.3" transform="translate(-4.1 -8.4)scale(.5222)"/><use xlink:href="#eq" width="7.8" height="6.5" transform="matrix(-1 0 -.1231 1 4.5 -11.7)"/><use xlink:href="#er" width="13.6" height="8.8" transform="translate(-8.15 -17.55)"/><use xlink:href="#es" width="5.8" height="7.1" transform="rotate(-1.004 -780.017 429.808)scale(.9989)"/><use xlink:href="#ep" width="14.8" height="7.8" transform="rotate(-44.352 -6.44 -.694)scale(.5191)"/></g></g><g clip-path="url(#gN)"><g transform="translate(1442.3 20)"><use xlink:href="#eo" width="13.7" height="7.3" transform="translate(-3.8 -3.25)scale(.5222)"/><use xlink:href="#ep" width="14.8" height="7.8" transform="translate(-.45 -3)scale(.5222)"/><use xlink:href="#eq" width="7.8" height="6.5" transform="matrix(-1 0 -.1231 1 4.5 -7)"/><use xlink:href="#er" width="13.6" height="8.8" transform="translate(-7.1 -13.1)"/><use xlink:href="#es" width="5.8" height="7.1" transform="translate(-7.5 -9.05)"/></g></g><g clip-path="url(#gO)"><g transform="translate(1469.3 20)"><use xlink:href="#eo" width="13.7" height="7.3" transform="translate(-3.8 -3.75)scale(.5222)"/><use xlink:href="#ep" width="14.8" height="7.8" transform="translate(-.45 -3.5)scale(.5222)"/><use xlink:href="#eq" width="7.8" height="6.5" transform="matrix(-1 0 -.1229 .9996 4.5 -7.5)"/><use xlink:href="#er" width="13.6" height="8.8" transform="translate(-7.1 -13.6)"/><use xlink:href="#es" width="5.8" height="7.1" transform="translate(-7.5 -9.55)"/></g></g><g clip-path="url(#gP)"><g transform="translate(1496.3 20)"><use xlink:href="#eo" width="13.7" height="7.3" transform="translate(-3.8 -4.2)scale(.5222)"/><use xlink:href="#ep" width="14.8" height="7.8" transform="translate(-.45 -3.95)scale(.5222)"/><use xlink:href="#eq" width="7.8" height="6.5" transform="matrix(-1 0 -.1229 .9996 4.5 -7.95)"/><use xlink:href="#er" width="13.6" height="8.8" transform="translate(-7.1 -14.05)"/><use xlink:href="#es" width="5.8" height="7.1" transform="translate(-7.5 -10)"/></g></g><g clip-path="url(#gQ)"><g transform="translate(1523.3 20)"><use xlink:href="#eo" width="13.7" height="7.3" transform="translate(-3.8 -4.7)scale(.5222)"/><use xlink:href="#ep" width="14.8" height="7.8" transform="translate(-.45 -4.45)scale(.5222)"/><use xlink:href="#eq" width="7.8" height="6.5" transform="matrix(-1 0 -.1229 .9996 4.5 -8.45)"/><use xlink:href="#er" width="13.6" height="8.8" transform="translate(-7.1 -14.55)"/><use xlink:href="#es" width="5.8" height="7.1" transform="translate(-7.5 -10.5)"/></g></g><g clip-path="url(#gR)"><g transform="translate(1550.3 20)"><use xlink:href="#eo" width="13.7" height="7.3" transform="translate(-3.8 -5.2)scale(.5222)"/><use xlink:href="#ep" width="14.8" height="7.8" transform="translate(-.45 -4.95)scale(.5222)"/><use xlink:href="#eq" width="7.8" height="6.5" transform="matrix(-1 0 -.1229 .9996 4.5 -8.95)"/><use xlink:href="#er" width="13.6" height="8.8" transform="translate(-7.1 -15.05)"/><use xlink:href="#es" width="5.8" height="7.1" transform="translate(-7.5 -11)"/></g></g><g clip-path="url(#gS)"><g transform="translate(1577.3 20)"><use xlink:href="#eo" width="13.7" height="7.3" transform="translate(-3.8 -5.65)scale(.5222)"/><use xlink:href="#ep" width="14.8" height="7.8" transform="translate(-.45 -5.4)scale(.5222)"/><use xlink:href="#eq" width="7.8" height="6.5" transform="matrix(-1 0 -.1229 .9996 4.5 -9.4)"/><use xlink:href="#er" width="13.6" height="8.8" transform="translate(-7.1 -15.5)"/><use xlink:href="#es" width="5.8" height="7.1" transform="translate(-7.5 -11.45)"/></g></g><g clip-path="url(#gT)"><g transform="translate(1604.3 20)"><use xlink:href="#eo" width="13.7" height="7.3" transform="translate(-3.8 -6.15)scale(.5222)"/><use xlink:href="#ep" width="14.8" height="7.8" transform="translate(-.45 -5.9)scale(.5222)"/><use xlink:href="#eq" width="7.8" height="6.5" transform="matrix(-1 0 -.1231 1 4.5 -9.9)"/><use xlink:href="#er" width="13.6" height="8.8" transform="translate(-7.1 -16)"/><use xlink:href="#es" width="5.8" height="7.1" transform="translate(-7.5 -11.95)"/></g></g><g clip-path="url(#gU)"><g transform="translate(1631.3 20)"><use xlink:href="#eo" width="13.7" height="7.3" transform="translate(-3.8 -3.25)scale(.5222)"/><use xlink:href="#ep" width="14.8" height="7.8" transform="translate(-.45 -3)scale(.5222)"/><use xlink:href="#eq" width="7.8" height="6.5" transform="matrix(-1 0 -.1231 1 4.5 -7)"/><use xlink:href="#er" width="13.6" height="8.8" transform="translate(-3.75 -11.8)"/><use xlink:href="#es" width="5.8" height="7.1" transform="translate(-7.5 -9.05)"/></g></g><g clip-path="url(#gV)"><g transform="translate(1658.3 20)"><use xlink:href="#eo" width="13.7" height="7.3" transform="translate(-3.8 -3.3)scale(.5222)"/><use xlink:href="#ep" width="14.8" height="7.8" transform="translate(-.45 -3.05)scale(.5222)"/><use xlink:href="#eq" width="7.8" height="6.5" transform="matrix(-1 0 -.1229 .9996 4.5 -7.05)"/><use xlink:href="#er" width="13.6" height="8.8" transform="translate(-3.9 -12.1)"/><use xlink:href="#es" width="5.8" height="7.1" transform="translate(-7.5 -9.1)"/></g></g><g clip-path="url(#gW)"><g transform="translate(1685.3 20)"><use xlink:href="#eo" width="13.7" height="7.3" transform="translate(-3.8 -3.4)scale(.5222)"/><use xlink:href="#ep" width="14.8" height="7.8" transform="translate(-.45 -3.15)scale(.5222)"/><use xlink:href="#eq" width="7.8" height="6.5" transform="matrix(-1 0 -.1229 .9996 4.5 -7.15)"/><use xlink:href="#er" width="13.6" height="8.8" transform="translate(-4.05 -12.4)"/><use xlink:href="#es" width="5.8" height="7.1" transform="translate(-7.5 -9.2)"/></g></g><g clip-path="url(#gX)"><g transform="translate(1712.3 20)"><use xlink:href="#eo" width="13.7" height="7.3" transform="translate(-3.8 -3.45)scale(.5222)"/><use xlink:href="#ep" width="14.8" height="7.8" transform="translate(-.45 -3.2)scale(.5222)"/><use xlink:href="#eq" width="7.8" height="6.5" transform="matrix(-1 0 -.1229 .9996 4.5 -7.2)"/><use xlink:href="#er" width="13.6" height="8.8" transform="translate(-4.2 -12.65)"/><use xlink:href="#es" width="5.8" height="7.1" transform="translate(-7.5 -9.25)"/></g></g><g clip-path="url(#gY)"><g transform="translate(1739.3 20)"><use xlink:href="#eo" width="13.7" height="7.3" transform="translate(-3.8 -3.55)scale(.5222)"/><use xlink:href="#ep" width="14.8" height="7.8" transform="translate(-.45 -3.3)scale(.5222)"/><use xlink:href="#eq" width="7.8" height="6.5" transform="matrix(-1 0 -.1229 .9996 4.5 -7.3)"/><use xlink:href="#er" width="13.6" height="8.8" transform="translate(-4.35 -12.95)"/><use xlink:href="#es" width="5.8" height="7.1" transform="translate(-7.5 -9.35)"/></g></g><g clip-path="url(#gZ)"><g transform="translate(1766.3 20)"><use xlink:href="#eo" width="13.7" height="7.3" transform="translate(-3.8 -3.6)scale(.5222)"/><use xlink:href="#ep" width="14.8" height="7.8" transform="translate(-.45 -3.35)scale(.5222)"/><use xlink:href="#eq" width="7.8" height="6.5" transform="matrix(-1 0 -.1229 .9996 4.5 -7.35)"/><use xlink:href="#er" width="13.6" height="8.8" transform="translate(-4.5 -13.25)"/><use xlink:href="#es" width="5.8" height="7.1" transform="translate(-7.5 -9.4)"/></g></g><g clip-path="url(#ha)"><g transform="translate(1793.3 20)"><use xlink:href="#eo" width="13.7" height="7.3" transform="translate(-3.8 -3.7)scale(.5222)"/><use xlink:href="#ep" width="14.8" height="7.8" transform="translate(-.45 -3.45)scale(.5222)"/><use xlink:href="#eq" width="7.8" height="6.5" transform="matrix(-1 0 -.1231 1 4.5 -7.45)"/><use xlink:href="#er" width="13.6" height="8.8" transform="translate(-4.65 -13.55)"/><use xlink:href="#es" width="5.8" height="7.1" transform="translate(-7.5 -9.5)"/></g></g><g clip-path="url(#hb)"><g transform="translate(1820.3 20)"><use xlink:href="#eo" width="13.7" height="7.3" transform="translate(-3.8 -3.25)scale(.5222)"/><use xlink:href="#ep" width="14.8" height="7.8" transform="translate(-.45 -3)scale(.5222)"/><use xlink:href="#eq" width="7.8" height="6.5" transform="matrix(-1 0 -.1231 1 4.5 -7)"/><use xlink:href="#er" width="13.6" height="8.8" transform="translate(-4.65 -13.1)"/><use xlink:href="#es" width="5.8" height="7.1" transform="translate(-7.5 -9.05)"/></g></g></svg>