<svg xmlns="http://www.w3.org/2000/svg" xmlns:xlink="http://www.w3.org/1999/xlink" width="28" height="40" viewBox="0 0 28 40"><defs><g id="a"><path fill="#82281d" d="m4.3 9.4-1.8-.1q-.3-2.4.3-4.2 1.3-.7 2 .4z"/><path fill="none" stroke="#000" stroke-linecap="round" stroke-linejoin="round" stroke-opacity=".3" stroke-width="__RESOLUTION__" d="m4.3 9.4.5-3.9q-.7-1.1-2-.4-.6 1.8-.3 4.2z" vector-effect="non-scaling-stroke"/><path fill="#ff8219" d="M4.6 23.9q-2.2-.5-3.3-1.7l-.7-2.3.8-1q5.9 2.6 14.2-1.1l2.6-2.4.2 3.3q-5.1 5.4-13.8 5.2"/><path fill="#b15112" d="M4.6 23.9q8.7.2 13.8-5.2l.2 2.9q-3.4 2.6-10.1 2.7z"/><path fill="none" stroke="#000" stroke-linecap="round" stroke-linejoin="round" stroke-opacity=".3" stroke-width="__RESOLUTION__" d="m18.2 15.4-2.6 2.4q-8.4 3.7-14.2 1.1l-.8 1 .6 2.3q1.1 1.2 3.4 1.7l3.9.4q6.7-.1 10-2.8" vector-effect="non-scaling-stroke"/><path fill="#cc4333" d="M12.7 3.2q1.9-1.5 5.5-2.2v.1q-.1 3.9-.6 4.5L19.4 7h2q-.2 6.3-3.1 9.8l-.6.2q2.1-11.3-6.9-12.5zm-2 1.3Q9 4.3 6.9 4.4 8.2 1.2 11.5 0q.1 2.5-.8 4.5"/><path fill="#82281d" d="M18.2 1.1q1.6 2.8 1.3 5.9l-1.9-1.5q.5-.6.6-4.4M21.5 7q1.1 3.6-.3 6.8-1.1 1.8-3 3 3-3.5 3.3-9.8M10.8 4.5q.9-2 .8-4.5 1 1.6 1.2 3.2z"/><path fill="none" stroke="#000" stroke-linecap="round" stroke-linejoin="round" stroke-opacity=".3" stroke-width="__RESOLUTION__" d="M12.7 3.2q1.9-1.5 5.5-2.2v.1q1.6 2.8 1.3 5.9v0h2v0q1.1 3.6-.3 6.8-1.1 1.8-3 3l-.5.2M7 4.5Q8.2 1.2 11.5 0q1 1.6 1.2 3.2" vector-effect="non-scaling-stroke"/><path fill="#cc4333" d="M15.5 4.2q1.2.6 2.3 1.6 2.7 2.5 2.7 6v.5q-.1 3.3-2.7 5.6-2.7 2.6-6.6 2.6T4.6 18q-2-1.9-2.5-4.4 1.8-1.6 12.4 2 3.4-.8 3.8-4.7.2-1.7-1.3-2.1Q4.7 12.1 2.8 8q.7-1.2 1.8-2.3L7.1 4l2.4-.7 1.7-.1q2.3 0 4.3 1"/><path fill="#82281d" d="M2.8 8q1.9 4.2 14.2.8 1.5.4 1.3 2.1-.4 4-3.8 4.7Q3.9 12 2 13.6v-1.7q0-2.2.9-3.9"/><path fill="none" stroke="#000" stroke-linecap="round" stroke-linejoin="round" stroke-opacity=".3" stroke-width="__RESOLUTION__" d="M15.5 4.2q-2-1-4.3-1l-1.7.2M7.1 4 4.6 5.8Q3.5 6.8 2.8 8q-.9 1.7-.9 3.8l.2 1.7q.5 2.5 2.5 4.4 2.8 2.5 6.6 2.5t6.6-2.5q2.5-2.4 2.7-5.7" vector-effect="non-scaling-stroke"/><path fill="#fff" d="m12.6 15.2-.3-.9q-.3-1.2.3-2.5t1.7-1.8l2-.1q.7.3 1.1 1.3.2 1.2-.3 2.3-.6 1.4-1.7 2l-2.2.2z"/><path fill="#e2e2e2" d="M17.4 11.2q-.3-1-1.1-1.3l-2 .1q-1 .5-1.6 1.8t-.4 2.5l.3.9-.7-1.5q-.2-1.3.4-2.7.6-1.3 1.7-1.8l2-.1q1 .5 1.3 1.8z"/><path fill="none" stroke="#000" stroke-linecap="round" stroke-linejoin="round" stroke-opacity=".3" stroke-width="__RESOLUTION__" d="m12.6 15.2.6.5 2.2-.1q1.1-.7 1.6-2.1.5-1.1.4-2.3l-.1-.3Q17 9.5 16 9l-2 .1q-1.1.6-1.8 1.9t-.3 2.7z" vector-effect="non-scaling-stroke"/><path fill="#151500" d="M12.2 13q0-1 .4-1.7t.9-.9.9.6.4 1.7-.4 1.7-1 .9q-.4 0-.8-.7t-.4-1.6"/><path fill="none" stroke="#000" stroke-linecap="round" stroke-linejoin="round" stroke-opacity=".3" stroke-width="__RESOLUTION__" d="M12.2 13q0 1 .4 1.7t.9.6.9-.9.4-1.7-.4-1.7-1-.5q-.4 0-.8.7t-.4 1.8" vector-effect="non-scaling-stroke"/><path fill="#fff" d="m15 11.8-.1.4-.3.3-.4-.1-.2-.5.2-.4.4-.3.3.2z"/><path fill="#cc4333" d="m1.6 12.3.4-.7.2-.1q1.4-1 3.2-1 1 0 3.3 1.3l2 2.8v4.8q-6.5.9-10.5-2.1L0 15.9l.6-1.5zm5.7 3.2 1.9-.5q0-1-.7-1.2-.8.6-1.2 1.7"/><path fill="#82281d" d="m1.6 12.3-1 2.1q-.3-1.2.4-2.1zm-1.4 5q4 3 10.5 2.1l-.9.9q-5.2 1.2-9.2-.9zm9-2.4-1.9.6q.4-1.1 1.1-1.6.8.1.8 1"/><path fill="none" stroke="#000" stroke-linecap="round" stroke-linejoin="round" stroke-opacity=".3" stroke-width="__RESOLUTION__" d="m10.8 14.7-2.2-3q-2.1-1.1-3.2-1.1-1.8 0-3.2.9H2l-.4.8-1 2.1-.6 1.5.2 1.3.4 2.2q4 2.1 9.3.9m-8.4-8H1q-.7.9-.4 2.1m8.6.5q0-.9-.7-1-.8.5-1.2 1.6" vector-effect="non-scaling-stroke"/><path fill="#cc4333" d="M16.6 6.7q2 .6 1.2 2.5-2.5 1.4-5.7 1.7-.8-1-.6-1.9z"/><path fill="none" stroke="#000" stroke-linecap="round" stroke-linejoin="round" stroke-opacity=".3" stroke-width="__RESOLUTION__" d="M16.6 6.7 11.5 9q-.2.8.6 1.8 3.2-.3 5.8-1.7.7-2-1.3-2.5" vector-effect="non-scaling-stroke"/><path fill="#ff8219" d="M16.5 18.2q1-2.5 2.8-4.8 3-3.6 5.7-2.7-1 5.3-3.6 8.4l-5 .7z"/><path fill="#b15112" d="M25 10.8q.5 3.8-2 8-1.9 3-5.4 3.2l-1.2-2.2 5-.7q2.5-3.1 3.6-8.3"/><path fill="none" stroke="#000" stroke-linecap="round" stroke-linejoin="round" stroke-opacity=".3" stroke-width="__RESOLUTION__" d="M16.5 18.2q1-2.5 2.8-4.8 3-3.6 5.7-2.7.5 3.9-2 8.2-1.9 2.9-5.4 3m-1.2-2.1" vector-effect="non-scaling-stroke"/><path fill="#ff8219" d="M9.3 20.6q.6-1.7 1.4-2.6 1 1 1.3 1.8l.9-2q.9.5 1.5 1.5 0-1.7.5-2.5 1.4.6 2.1 1.5-2 3.1-7.7 2.3"/><path fill="none" stroke="#000" stroke-linecap="round" stroke-linejoin="round" stroke-opacity=".3" stroke-width="__RESOLUTION__" d="M9.3 20.6q.6-1.7 1.4-2.6 1 1 1.3 1.8l.9-2q.9.5 1.5 1.5 0-1.7.5-2.5 1.4.6 2.1 1.5" vector-effect="non-scaling-stroke"/></g><g id="b"><path fill="#cc4333" d="M0 2.4Q-.1 1.7.7 1L1.9.3 3.5 0Q5.2 0 6 .9l.7 1.3q-1.8 1.4-3 1.6Q1.2 3.7 0 2.4"/><path fill="#82281d" d="M0 2.4q1.2 1.3 3.7 1.4 1.2-.2 3-1.6l.1.5q0 .9-.8 1.8h-.1q-1 .8-2 .8h-.7l-1.4-.7Q.8 4 .3 3z"/><path fill="none" stroke="#000" stroke-linecap="round" stroke-linejoin="round" stroke-opacity=".3" stroke-width="__RESOLUTION__" d="M6.7 2.2 6 .8Q5.2 0 3.5 0L1.9.3.7 1q-.8.7-.7 1.4l.3.6q.6 1 1.5 1.6l1.4.7h.7q1 0 2-.7v-.1h0q.9-.9.9-1.8z" vector-effect="non-scaling-stroke"/></g><g id="c"><path fill="#82281d" d="M.1 2.6 1.8 0l3.8.9 1 1.9V3Q5.5 1.4.1 2.5"/><path fill="#cc4333" d="m6.7 3-.1 1.3-.7.4-1.3-.4-1.1.6-.9-.6-.5.6-1.9-.5L0 2.6h.1q5.4-1.2 6.6.4M2 3l.6 1.4zm2 0 .6 1.4z"/><path fill="none" stroke="#000" stroke-linecap="round" stroke-linejoin="round" stroke-opacity=".3" stroke-width="__RESOLUTION__" d="M.1 2.6 1.8 0l3.8.9 1 1.9v1.5l-.7.4-1.3-.4-1.1.6-.9-.6-.5.6-1.9-.5L0 2.6zm2.6 1.7L2 3m2.6 1.3L4 3" vector-effect="non-scaling-stroke"/><path fill="#b37e5c" d="M7 5.5 5.4 4.3q-.1-.8.1-1.3z"/><path fill="#e9bda1" d="M7 5.5 5.5 3l.4-.5q.7.5.9 1l.3 2.1z"/><path fill="none" stroke="#000" stroke-linecap="round" stroke-linejoin="round" stroke-opacity=".5" stroke-width="__RESOLUTION__" d="M5.5 3q-.2.5-.1 1.3l1.5 1.2.2.1-.3-2q-.2-.7-.9-1.2z" vector-effect="non-scaling-stroke"/><path fill="#e9bda1" d="m3.7 3.5.5-.3q.5.6.5 1.3l-.4 2-.1-.1z"/><path fill="#b37e5c" d="M3.7 3.5 4 6.4 3 4.6z"/><path fill="none" stroke="#000" stroke-linecap="round" stroke-linejoin="round" stroke-opacity=".5" stroke-width="__RESOLUTION__" d="m4.2 6.4.5-2q0-.7-.5-1.3-.3 0-.5.3L3 4.6z" vector-effect="non-scaling-stroke"/><path fill="#b37e5c" d="M.7 5.7.5 4l.7-1.3z"/><path fill="#e9bda1" d="m1.3 2.9.4.4q.3.4.5 1.1L.6 6.2v-.5z"/><path fill="none" stroke="#000" stroke-linecap="round" stroke-linejoin="round" stroke-opacity=".5" stroke-width="__RESOLUTION__" d="M.7 5.7.5 4l.7-1.3h0l.5.4q.3.4.5 1.2L.6 6.2z" vector-effect="non-scaling-stroke"/></g><g id="d"><path fill="#82281d" d="M6.5 4.4q-.6-.8-2-1.2-2.6-.7-1.7 2L.2 2.6Q-.4.5 1 0q4.1 1.5 5.5 4.3z"/><path fill="#cc4333" d="M2.8 5.3q-1-2.7 1.7-2.1 1.4.5 2 1.2 2.7 4 .4 8.5l-.6 1.7-.5-.9-.5 1-.4-1-.8.8v-2.3Q2.3 9.8 3 5.5v-.1zm1.8 7.3-.5-.4z"/><path fill="none" stroke="#000" stroke-linecap="round" stroke-linejoin="round" stroke-opacity=".3" stroke-width="__RESOLUTION__" d="M6.5 4.4Q5.3 1.5 1.1 0-.4.6.1 2.5l2.7 2.8.2.1h0q-.7 4.4 1 6.8l.5.4m-.5-.4.1 2.3.8-.8.3 1 .6-1 .5 1 .5-1.8q2.4-4.6-.3-8.5" vector-effect="non-scaling-stroke"/></g><g id="e"><path fill="#82281d" d="M3.8 0q1.5 0 2.7.9 1 .7 1.1 2 0 1-1 1.8h-.1l-.1.1-.6.3-2.1.4q-1.6 0-2.6-.7L1 4.6l-.6-.7-.3-.8-.1-.3q0-1.1 1-2Q2 .1 3.6.1z"/><path fill="none" stroke="#000" stroke-linecap="round" stroke-linejoin="round" stroke-opacity=".3" stroke-width="__RESOLUTION__" d="M3.8 0h-.3Q2 0 1 .9q-1.2.9-1.1 2v.4l.3.7.6.7.2.1q1 .6 2.6.7L5.8 5l.6-.2.1-.1.1-.1q1-.8 1-1.8 0-1.3-1.1-2Q5.3-.1 3.8.1" vector-effect="non-scaling-stroke"/></g><g id="f"><path fill="#82281d" d="m8.8 5.8.4-3.4-2.2.3Q5.5 1.4 3.4 1.4l-1.5.2.1-.3h.2Q3.8 0 5.8 0t3.6 1.4T11.2 5v.8q0 1.9-1.3 3.6L8 10.7l-.8.4.3-.4q1.4-1.6 1.4-3.6v-.7z"/><path fill="#cc4333" d="m7 2.7 2.2-.3-.4 3.4v-.1q-.4-1.9-1.8-3"/><path fill="#b15112" d="m8.8 5.8.1.6V7q0 2-1.4 3.6l-.3.4-1.8.2Q2.7 11.1 1.2 9 0 7.6 0 6v-.1q1 1.9 3.7 2.2 2.8.2 4.8-1.2zm-7-4.2 1.6-.3q2 0 3.5 1.4H7q-1.6.9-3.5 1l-3-.3Q1 2.3 1.9 1.6m-.2.9q.7.8 1.8 1.2-1.1-.4-1.8-1.2m0 6.6q2 1.5 4.8.8-2.8.7-4.8-.8"/><path fill="#ff8219" d="M7 2.8q1.4 1 1.8 2.9l-.3 1.2Q6.5 8.3 3.7 8T0 5.9V4.7l.5-1.3 3 .3q2-.1 3.5-1M7.4 4l-3.9-.2zm-1 3q-3.5.7-6-1.3 2.5 2 6 1.2"/><path fill="none" stroke="#000" stroke-linecap="round" stroke-linejoin="round" stroke-opacity=".3" stroke-width="__RESOLUTION__" d="m8.8 5.8.1.6V7q0 2-1.4 3.6l-.3.4.9-.4 1.8-1.4q1.4-1.6 1.4-3.6V5q-.3-2.2-2-3.6Q7.9 0 5.8 0 3.9 0 2.3 1.3h-.1l-.2.3 1.5-.3q2 0 3.6 1.4h0q1.4 1.2 1.8 3zM0 5.9Q.1 7.7 1.2 9q1.6 2 4.2 2.3l1.8-.2M0 5.9V4.7l.5-1.3Q1 2.3 1.8 1.6m1.7 2.1q-1.1-.4-1.8-1.2m1.8 1.2 3.9.2m-.9 6q-2.8.7-4.8-.8M.5 5.7q2.3 2 5.9 1.2" vector-effect="non-scaling-stroke"/></g><g id="g"><path fill="#82281d" d="m6 2 .4 1.3-.1.5q-.3.8-1.4 1.3h-.2l-2.2.3Q1.4 5 .5 4.1t-.3-2L.9 1 2.1.3l2.4.1z"/><path fill="none" stroke="#000" stroke-linecap="round" stroke-linejoin="round" stroke-opacity=".3" stroke-width="__RESOLUTION__" d="m6 2 .4 1.3-.1.5q-.3.8-1.4 1.3h-.2l-2.2.3Q1.4 5 .5 4.1t-.3-2L.9 1 2.1.3l2.4.1z" vector-effect="non-scaling-stroke"/></g><g id="h"><path fill="#82281d" d="M9.7 2.5 8.4 4.4 5.1 5.8 4 6l-1.5-.5.5-.9-1.1-.4.3-.4-.6-.6L5.3 0zm-6.3.9L3 4.6zm-.7-.5-.5.9z"/><path fill="none" stroke="#000" stroke-linecap="round" stroke-linejoin="round" stroke-opacity=".3" stroke-width="__RESOLUTION__" d="M9.7 2.5 8.4 4.4 5.1 5.8 4 6l-1.5-.5.5-.9-1.1-.4.3-.4-.6-.6L5.3 0zM3 4.6l.4-1.2m-1.2.4.5-1" vector-effect="non-scaling-stroke"/><path fill="#b37e5c" d="m2.5 3.1-.2 1.2-2.1.9z"/><path fill="#e9bda1" d="m.2 5.2-.2.1.8-2q.5-.5 1.4-.9l.3.7z"/><path fill="none" stroke="#000" stroke-linecap="round" stroke-linejoin="round" stroke-opacity=".5" stroke-width="__RESOLUTION__" d="m2.5 3.1-.2 1.2-2.1.9-.2.1.8-2q.4-.5 1.4-.9z" vector-effect="non-scaling-stroke"/><path fill="#e9bda1" d="m.7 6-.2.1.8-1.9q.5-.6 1.4-.9l.3.6z"/><path fill="#b37e5c" d="m3 4-.2 1.2L.7 6z"/><path fill="none" stroke="#000" stroke-linecap="round" stroke-linejoin="round" stroke-opacity=".5" stroke-width="__RESOLUTION__" d="m.7 6-.2.1.8-1.9q.5-.6 1.4-.9l.3.6-.2 1.2z" vector-effect="non-scaling-stroke"/><path fill="#e9bda1" d="m2.5 7.3-.1.2V5.4L3.3 4l.5.5z"/><path fill="#b37e5c" d="M3.8 4.6q.3.5.4 1.3L2.5 7.3z"/><path fill="none" stroke="#000" stroke-linecap="round" stroke-linejoin="round" stroke-opacity=".5" stroke-width="__RESOLUTION__" d="m2.5 7.3-.1.2V5.4L3.3 4l.5.5q.3.5.4 1.3z" vector-effect="non-scaling-stroke"/></g><g id="i"><path fill="#ff8a7c" d="M4.9 1.7q.6.9.8 2l.1.3-.8-.3L2 3l-2 .5Q2.6 1.9 3.3 0z"/><path fill="none" stroke="#000" stroke-linecap="round" stroke-linejoin="round" stroke-opacity=".4" stroke-width="__RESOLUTION__" d="M4.9 1.7q.6.9.8 2l.1.3-.8-.3L2 3l-2 .5Q2.6 1.9 3.3 0z" vector-effect="non-scaling-stroke"/></g><g id="j"><path fill="#e9bda1" d="M11.6 4.1h-.3L10.7 3l1.7-.7v.1z"/><path fill="#b37e5c" d="M12.4 2.4v1.8l-.8-.1z"/><path fill="none" stroke="#000" stroke-linecap="round" stroke-linejoin="round" stroke-opacity=".3" stroke-width="__RESOLUTION__" d="M11.6 4.1h-.3L10.7 3l1.7-.7v1.9z" vector-effect="non-scaling-stroke"/><path fill="#82281d" d="m9.5 4.8-.7 1zM4.3 3.5l1.9 2L9.4 3l3.3 2.2-.8 1.4-3.1-1L5 10l-3.9.8-1.1-3 1.1-3.4z"/><path fill="#cc4333" d="M12.8 5.3 9.3 3l-3 2.4-2-2Q6.7 2.6 8 1.3q3.7 1.6 5 3.3l.1.2z"/><path fill="none" stroke="#000" stroke-linecap="round" stroke-linejoin="round" stroke-opacity=".3" stroke-width="__RESOLUTION__" d="m8.8 5.8.7-1m3.3.5.2-.5-.1-.2q-1.3-1.7-5-3.3-1.2 1.2-3.6 2.2L1 4.3 0 7.7l1.1 3L5 10l3.8-4.3 3 1z" vector-effect="non-scaling-stroke"/><path fill="#e9bda1" d="m8 3-.4.2-1.3-.6L7.8 0l.1.1z"/><path fill="#b37e5c" d="m7.9.1 1 2.2-1 .7z"/><path fill="none" stroke="#000" stroke-linecap="round" stroke-linejoin="round" stroke-opacity=".3" stroke-width="__RESOLUTION__" d="m8 3-.4.2-1.3-.6L7.8 0l.1.1 1 2.2z" vector-effect="non-scaling-stroke"/><path fill="#b37e5c" d="m2.3 1.9 2 1.8-.8.8z"/><path fill="#e9bda1" d="m3.5 4.5-.3.3-1.8-.3.8-2.7v.1z"/><path fill="none" stroke="#000" stroke-linecap="round" stroke-linejoin="round" stroke-opacity=".3" stroke-width="__RESOLUTION__" d="m2.3 1.9 2 1.8-.8.8-.3.3-1.8-.3.8-2.7z" vector-effect="non-scaling-stroke"/></g><g id="q"><path fill="#cfd1b8" d="M.3.6.4.3h.1z"/><path fill="none" stroke="#000" stroke-linecap="round" stroke-linejoin="round" stroke-opacity=".5" stroke-width="__RESOLUTION__" d="M.5.3.3.6h0" vector-effect="non-scaling-stroke"/></g><use xlink:href="#a" id="w" width="25.1" height="24.3"/><use xlink:href="#b" id="v" width="6.8" height="5.3"/><use xlink:href="#c" id="u" width="7.1" height="6.5"/><use xlink:href="#d" id="t" width="8" height="14.7"/><use xlink:href="#e" id="s" width="7.6" height="5.5"/><use xlink:href="#f" id="r" width="11.3" height="11.3"/><use xlink:href="#g" id="p" width="6.3" height="5.5"/><use xlink:href="#h" id="o" width="9.7" height="7.5"/><use xlink:href="#i" id="n" width="5.8" height="4"/><use xlink:href="#j" id="m" width="13" height="10.7"/><clipPath id="k"><path d="M1 1h26v38H1z"/></clipPath><path id="l" fill="#000" fill-opacity=".3" d="M5.6-2.8Q7.9-1.6 8 0q-.1 1.7-2.4 2.8T0 4q-3.3 0-5.6-1.2T-7.9 0t2.3-2.8T0-4t5.6 1.2" transform="translate(7.9 3.95)"/></defs><g clip-path="url(#k)"><g transform="translate(15.25 33.55)"><use xlink:href="#l" width="15.8" height="8" transform="translate(-7.9 -3.95)"/><use xlink:href="#m" width="13" height="10.7" transform="matrix(-1 0 0 1 -1.25 -12.2)"/><use xlink:href="#n" width="5.8" height="4" transform="matrix(-1 0 0 1 -2.7 -11.45)"/><use xlink:href="#o" width="9.7" height="7.5" transform="matrix(-1 0 0 1 9.45 -6)"/><use xlink:href="#p" width="6.3" height="5.5" transform="matrix(-1 0 0 1 7.35 -7.75)"/><use xlink:href="#q" width=".8" height=".8" transform="translate(3.85 -2.35)"/><use xlink:href="#r" width="11.3" height="11.3" transform="matrix(-1 0 0 1 5.45 -10.7)"/><use xlink:href="#s" width="7.6" height="5.5" transform="rotate(174.508 2.295 -6.58)scale(1 -1)"/><use xlink:href="#t" width="8" height="14.7" transform="matrix(-.3199 .3199 .3199 .3199 -2.6 -10)"/><use xlink:href="#t" width="8" height="14.7" transform="matrix(.3176 .2195 -.1715 .1899 4.35 -8.7)"/><use xlink:href="#u" width="7.1" height="6.5" transform="matrix(-1 0 0 1 -1.65 -1.3)"/><use xlink:href="#v" width="6.8" height="5.3" transform="matrix(-1 0 0 1 -1.25 -4.25)"/><use xlink:href="#w" width="25.1" height="24.3" transform="matrix(-1 0 0 1 11.5 -32.55)"/></g></g></svg>