<svg xmlns="http://www.w3.org/2000/svg" xmlns:xlink="http://www.w3.org/1999/xlink" width="1979" height="48" viewBox="0 0 1979 48"><defs><clipPath id="k"><path d="M1 1h45v46H1z"/></clipPath><clipPath id="v"><path d="M47 1h45v46H47z"/></clipPath><clipPath id="w"><path d="M93 1h45v46H93z"/></clipPath><clipPath id="x"><path d="M139 1h45v46h-45z"/></clipPath><clipPath id="y"><path d="M185 1h45v46h-45z"/></clipPath><clipPath id="z"><path d="M231 1h45v46h-45z"/></clipPath><clipPath id="A"><path d="M277 1h45v46h-45z"/></clipPath><clipPath id="B"><path d="M323 1h45v46h-45z"/></clipPath><clipPath id="C"><path d="M369 1h45v46h-45z"/></clipPath><clipPath id="D"><path d="M415 1h45v46h-45z"/></clipPath><clipPath id="E"><path d="M461 1h45v46h-45z"/></clipPath><clipPath id="F"><path d="M507 1h45v46h-45z"/></clipPath><clipPath id="G"><path d="M553 1h45v46h-45z"/></clipPath><clipPath id="H"><path d="M599 1h45v46h-45z"/></clipPath><clipPath id="I"><path d="M645 1h45v46h-45z"/></clipPath><clipPath id="J"><path d="M691 1h45v46h-45z"/></clipPath><clipPath id="K"><path d="M737 1h45v46h-45z"/></clipPath><clipPath id="L"><path d="M783 1h45v46h-45z"/></clipPath><clipPath id="M"><path d="M829 1h45v46h-45z"/></clipPath><clipPath id="N"><path d="M875 1h45v46h-45z"/></clipPath><clipPath id="O"><path d="M921 1h45v46h-45z"/></clipPath><clipPath id="P"><path d="M967 1h45v46h-45z"/></clipPath><clipPath id="Q"><path d="M1013 1h45v46h-45z"/></clipPath><clipPath id="R"><path d="M1059 1h45v46h-45z"/></clipPath><clipPath id="S"><path d="M1105 1h45v46h-45z"/></clipPath><clipPath id="T"><path d="M1151 1h45v46h-45z"/></clipPath><clipPath id="U"><path d="M1197 1h45v46h-45z"/></clipPath><clipPath id="V"><path d="M1243 1h45v46h-45z"/></clipPath><clipPath id="W"><path d="M1289 1h45v46h-45z"/></clipPath><clipPath id="X"><path d="M1335 1h45v46h-45z"/></clipPath><clipPath id="Y"><path d="M1381 1h45v46h-45z"/></clipPath><clipPath id="Z"><path d="M1427 1h45v46h-45z"/></clipPath><clipPath id="aa"><path d="M1473 1h45v46h-45z"/></clipPath><clipPath id="ab"><path d="M1519 1h45v46h-45z"/></clipPath><clipPath id="ac"><path d="M1565 1h45v46h-45z"/></clipPath><clipPath id="ad"><path d="M1611 1h45v46h-45z"/></clipPath><clipPath id="ae"><path d="M1657 1h45v46h-45z"/></clipPath><clipPath id="af"><path d="M1703 1h45v46h-45z"/></clipPath><clipPath id="ag"><path d="M1749 1h45v46h-45z"/></clipPath><clipPath id="ah"><path d="M1795 1h45v46h-45z"/></clipPath><clipPath id="ai"><path d="M1841 1h45v46h-45z"/></clipPath><clipPath id="aj"><path d="M1887 1h45v46h-45z"/></clipPath><clipPath id="ak"><path d="M1933 1h45v46h-45z"/></clipPath><use xlink:href="#a" id="u" width="6.2" height="5"/><use xlink:href="#b" id="t" width="7" height="6"/><use xlink:href="#c" id="s" width="10.3" height="8"/><use xlink:href="#d" id="r" width="16.7" height="12.7"/><use xlink:href="#e" id="q" width="21.4" height="27.5"/><use xlink:href="#f" id="p" width="6.4" height="5.6"/><use xlink:href="#g" id="o" width="23.3" height="20.8"/><use xlink:href="#h" id="n" width="9.7" height="11.1"/><use xlink:href="#i" id="m" width="11.2" height="6.4"/><use xlink:href="#j" id="l" width="14.7" height="4.3"/><g id="a"><path fill="#f4d940" d="M4.4 2.4q0-.6-.8-1L3 1.2l.7-.6.4-.3q.6 0 .8.4L5 1v.5q0 .5-.4.8h-.1zm-1.8.4q.4 0 .7.4l.3.3.2.6q.1.5-.2.7l-.2.1q-.1-.7-.9-1l-.7-.3.5-.7.2-.2z"/><path fill="#a76421" d="m2.9 1.2.8.2q.7.4.6 1H4l-1-.2h-.2l-.1-.6zm1.8 2.1-.1-.5v-.2l.2-.5.7-.5.4.3q.3.4.3 1.2-.2.7-.7.7h-.2zm-3 .3.8.2q.8.4 1 1.1l-.3.1L2 4.6 1.7 4z"/><path fill="#710202" d="M4.4 2.4Q5 2 5 1.5V1q.4.1.8.6V2l-.3-.3q-.4.1-.7.5l-.2.4v.7H4l-.4.2-.2-.3q-.3-.4-.8-.5l-.2-.3q-.8-.3-1.5 0l-.6.4v-.2l.2-1.1.7-.5-.2.4 1.5-.2.4.1-.2.3q0 .4.2.6l1.1.3zM0 3.6l.6-.2 1.2.2-.1.4.3.6q-.9.7-1.3.3-.8-.4-.6-1.4"/><path fill="#c1001e" d="m4 .3-.3.3-.8.6v.1l-.4-.1-1.5.2.2-.4.2-.3q1.3-1 2.5-.6zM.3 2.8q.2-.3.6-.4.6-.3 1.4 0h.1l.2.3h-.1l-.3.2-.5.7-1-.2-.7.1z"/><path fill="none" stroke="#544a29" stroke-linecap="round" stroke-linejoin="round" stroke-opacity=".7" stroke-width="__RESOLUTION__" d="M4.5 2.3Q5 2 5 1.5V1L4.8.7Q4.6.3 4 .3l-.3.3-.8.6M.3 2.8q.2-.3.6-.4.6-.3 1.4 0h.1l.2.3q.4.1.7.4l.3.4.2.5q.1.5-.2.8h0m1.9-3.2.4.3q.2.4.2 1.2-.1.7-.7.7h-.1M4 .3 3.9.1Q2.7-.2 1.4.8m.4 2.8.5-.6.2-.2h.1m-2.3 0" vector-effect="non-scaling-stroke"/></g><g id="b"><path fill="#c1001e" d="M.2 1.8.6.7l.9-.6q.8-.3 1.8.4l.5.8.1.3q1.8.7 3 2.4l-.4 1q-.5.6-1.7.8h-.2l-1.3-2-1.4-1.1V3Q1.3 2.3 0 2z"/><path fill="#710202" d="M4.6 6Q3.5 6 3 5.4l-.8-1.1-1.7-.1Q-.2 3.2.1 2q1.2.3 1.8 1v-.3l1.4 1.1Q4 4.7 4.6 6M1.8 3.7l.3.6z"/><path fill="none" stroke="#710202" stroke-linecap="round" stroke-linejoin="round" stroke-width="__RESOLUTION__" d="M.2 1.8.6.7l.9-.6q.8-.3 1.8.4l.5.8.1.3q1.8.7 3 2.4m-4.7.3-.4-.6" vector-effect="non-scaling-stroke"/></g><g id="c"><path fill="#710202" d="M8.9 5.6 9.7 4l-.3-.3-.9-.5-.3-.1q-1-.2-2 .6l-.2.6-.4-.7-.4-.4-.4-.1q-1-.4-2.3.4-1-.8-1.6-.6l.4-.5L2.5 2l1-1.7q3.3-.8 6.5.6.3 1.6.2 4.2.3 1-.1 2h-.7z"/><path fill="#c1001e" d="M8.2 3h.3l.9.5.3.3L9 5.6l-.1.1h-.1L7 4v.1h-.4l-.7.1-.4.4q-.2 1 .1 2.1l-.1.2h-.8l.4-.3-.4-1.2h-.2L4.3 5h-.1l-1-1h-1l-.2.1h.1l.3-.8h.1q-1-.8-1.6-.6L.5 3 0 4.2v1l.6.4h.7l.2-1 .5-.4.3-.7.1-.1q1.3-.8 2.4-.4H5l.5.4.4.7.2-.6q1-.8 2-.6M6 4.2"/><path fill="#8f8146" d="M8.9 5.6h-.2z"/><path fill="#d68729" d="m8.8 5.6.6 1.5h-.2q-1.5 1-2.4.9v-.9Q7 5.6 8.7 5.6zm-4.2-.1h.2l.4 1.3-.4.2Q3 8 2.3 7.9l.1-.9v-.1q.5-1.3 2-1.4z"/><path fill="#f4d940" d="M8.7 5.6Q7 5.6 6.8 7.1V8L6 7.5l-.1-.2-.2-.5q-.3-1.1-.1-2.1l.4-.4.7-.1H7v-.1zm-7.3 0 .2-1 .5-.4L3 4l.3.1 1 1 .3.4h-.2q-1.5 0-2 1.4V7l-.1.9-.8-.5-.1-.5-.1-.7z"/><path fill="none" stroke="#544a29" stroke-linecap="round" stroke-linejoin="round" stroke-opacity=".7" stroke-width="__RESOLUTION__" d="M8.9 5.6 7 4m2.3 3h.2M.9 2.8q.7-.2 1.6.6M6.8 8q.9.1 2.4-.9h.2M7.1 4.2h-.4l-.7.1h0l-.4.4q-.2 1 .1 2.1l.2.5v.1l.9.6M.9 2.8.5 3 0 4.2m2 0L3 4h.3m1 1 .3.4m.6 1.3-.5.2q-1.6 1-2.4.9l-.8-.5-.1-.5" vector-effect="non-scaling-stroke"/><path fill="none" stroke="#544a29" stroke-linecap="round" stroke-linejoin="round" stroke-opacity=".7" stroke-width="__RESOLUTION__" d="m2.6 2-1.3.2-.4.6m1.6.6q1.3-.8 2.4-.4M5 3l.5.3.4.8.2-.7q1-.7 2-.5M4.8 7h.8l.1-.2M1.9 4.3l.3-.7.1-.1M0 4.2v1l.7.4h.6l.3-1 .4-.4h.1m1.2 0 1 .9h0M1.4 7l-.1-.7v-.5" vector-effect="non-scaling-stroke"/></g><g id="d"><path fill="#fe0c43" d="M10.8 2.5 13.6.7q-.8 3.8-3.7 3.9Q7 4.6 5.3 6L2.2 8.6l-2 .2.5-.4q.5-.4 1-.3.5 0 1.2-.4l4.6-4.2z"/><path fill="#c1001e" d="M13.7.7q2.7 2.5 3 6.5l-1 2.2q-2.4 2-7.3 2.8h-.2l-.4-.3.6.1q-.9-1.2-1-2.9-.6 1.2-.5 2.2L5.2 10q-1.4 1.8-3.9 1.4L.1 9.8q-.2-.8 0-1l2.1-.2L5.3 6Q7 4.6 10 4.6q2.8-.1 3.7-3.9"/><path fill="#710202" d="m16.7 7.2-.6 3.8-2.6 1-2.4.6-2.7-.3v-.1q4.8-.7 7.3-2.8zm-8.5 5-2.7-.5-3 .6-1.2-.9q2.4.4 3.9-1.3l1.7 1.2q-.1-1 .5-2.2.1 1.7 1 2.9l-.6-.1z"/><path fill="#8f8146" d="m8.4 12.3-.2-.1z"/><path fill="none" stroke="#544a29" stroke-linecap="round" stroke-linejoin="round" stroke-opacity=".7" stroke-width="__RESOLUTION__" d="m13.5 12-2.4.6-2.7-.3h0l-.2-.1-2.8-.5-2.9.6-1.2-.9L.1 9.9q-.2-.8 0-1l.5-.4q.5-.4 1.1-.3.5 0 1.2-.4l4.5-4.2 3.3-1" vector-effect="non-scaling-stroke"/><path fill="none" stroke="#544a29" stroke-linecap="round" stroke-linejoin="round" stroke-opacity=".5" stroke-width="__RESOLUTION__" d="M1.4 11.4q-.5-.7-.2-1.7m7.4 2.6q-1.2-.8-1.8-2.6m-1-.1L5.6 8m1-.2V6.3m-.1 5.3q-1-.5-1.3-1.5" vector-effect="non-scaling-stroke"/><path fill="#f4d940" d="M8.8 1.9 8.9.4V.3l1.6-.3 2.7 2.8-.7 1h-.2l-1.8-2.6z"/><path fill="#a76421" d="m8.8 1.9 1.7-.7 1.8 2.7-3 1.5h-1z"/><path fill="none" stroke="#544a29" stroke-linecap="round" stroke-linejoin="round" stroke-opacity=".7" stroke-width="__RESOLUTION__" d="m12.3 3.9.2-.1.7-1h0L10.7 0 9 .3v.1l-.2 1.5-.5 3.5h1z" vector-effect="non-scaling-stroke"/><path fill="#f4d940" d="m7.2 5.6.4.2.3.1-3 .7-.2-1.3.6-.4z"/><path fill="#a76421" d="m4.9 6.6 3-.7-2.6 1.8-.4-.2z"/><path fill="none" stroke="#544a29" stroke-linecap="round" stroke-linejoin="round" stroke-opacity=".7" stroke-width="__RESOLUTION__" d="m7.2 5.6-1.9-.7-.6.3.2 1.4v.9l.4.3 2.6-1.9m0 0-.3-.1" vector-effect="non-scaling-stroke"/></g><g id="e"><path fill="#c1001e" d="m9 .3 5-.3h.4v3.3l.7 2.8q1 .7-1.2 1.8-2 1-.7 5v.2l.9 2q.9 1.8 3.6 4.2l-.5 2.5-7.3 1.8q-5.7-1.9-7.8-4.5v-.6l-.1-1-.5-4q-.2-.9.5-2.9h.1L4 12.1l.5-.8.2-3v-.7l-.4-1-1.7.4.6-2.1.5-.7.9 1.9.8-.1 3.4-3.7.3-.4-.4-.8h-.8l.6-.5z"/><path fill="#f4d940" d="M7.9 1h.8l.5.9-.4.4q1-1.7-5.9 0l-.3-.7 1-.5zM2.5 7l1.8-.4.5 1v.2l-4.5.4.2-.7z"/><path fill="#a76421" d="M8.8 2.3 5.4 6l-.8.1-.8-2-.9-1.8q6.9-1.7 5.9 0m-4.1 6-.1 3h-.1l-.5.8-1.9-1.5-2-1.5L0 9l.3-.7 4.5-.5zm8.5 4.6q-1.3-4 .7-5 2.1-1.1 1.2-1.8 2 .9 1.7 1.1l-.1 2.6q-3.4-.4-3.2 1.9z"/><path fill="#710202" d="M2.1 19.1q2.1 2.6 7.8 4.5l7.3-1.8.5-2.4 1.9 1.5 1.5 1.5-.6 1-.4.6q-3.9 3.2-5.6 3.5h-.3l-3.8-.4-5.1-1.5-1.9-.8q-1.6-2.5-1.3-5.7"/><path fill="#d8a532" d="M17.7 19.4Q15 17 14.1 15q5.5 2 6.9 5.4v.3h.2v.1l.2.6-.3.9-1.5-1.5z"/><path fill="none" stroke="#544a29" stroke-linecap="round" stroke-linejoin="round" stroke-opacity=".7" stroke-width="__RESOLUTION__" d="m9 .3-.5.4-.6.4h.8l.5.8-.4.4L5.4 6l-.8.1-.8-2-.6.8L2.5 7l1.8-.4v0l.5 1v.2l-.1.5-.1 3h-.1l-.5.8-1.9-1.5-2-1.5L0 9l.3-.7.2-.8 2-.5M2 10.6q-.7 2-.6 2.9h.1l.5 4 .1 1v.6q-.3 3.2 1.4 5.7l1.8.8 5.1 1.5 3.8.4h.3q1.7-.3 5.7-3.5l.3-.6.6-1 .2-1-.1-.5M7.9 1.1H3.6l-1 .5.3.7.9 1.9" vector-effect="non-scaling-stroke"/><path fill="none" stroke="#524728" stroke-linecap="round" stroke-linejoin="round" stroke-opacity=".5" stroke-width="__RESOLUTION__" d="M4.2 7q1.7-1.1 3.4.5" vector-effect="non-scaling-stroke"/><path fill="#a76421" d="m4.4 15.8-.4.1-2-.9-.2-.7 2.3-1.7z"/><path fill="none" stroke="#544a29" stroke-linecap="round" stroke-linejoin="round" stroke-opacity=".7" stroke-width="__RESOLUTION__" d="M4.4 15.8 4 12.5l-2.2 1.8.1.7L4 16z" vector-effect="non-scaling-stroke"/></g><g id="f"><path fill="#710202" d="M6.3 3.2q-.5.7-1.7.4-.6-.3-.6-.9v-.5q.8-1.2 2-.5.5.4.4 1.1z"/><path fill="#710202" d="m3.8 1 .8.1Q5.8 1.7 6 4l-.6 1.1-.7.5h-.5q-1.8-1-1.6-2.8.4-1.5 1.2-1.7z"/><path fill="#a76421" d="M3.1 1v.5q-.2.5-.5.7l-1.3.2H1q.4-1 2.1-1.4"/><path fill="#f4d940" d="M3.1 1q-1.6.5-2 1.4L1 2.3Q.7 2 .9 1.5l.7-.9q.4-.3.9-.4l.3.2z"/><path fill="none" stroke="#544a29" stroke-linecap="round" stroke-linejoin="round" stroke-opacity=".7" stroke-width="__RESOLUTION__" d="M1 2.3Q.6 2 .9 1.5l.7-.9q.4-.3.9-.4l.3.2.3.6" vector-effect="non-scaling-stroke"/><path fill="#c1001e" d="M4.6.7v.6Q3.4.8 2 1.7 1.5.6 2.4.1q1.4-.5 2.2.4"/><path fill="#710202" d="M4.6 1.3q-.1 1-1 1.4Q3 3 2 2v-.3q1.4-.9 2.6-.4"/><path fill="none" stroke="#544a29" stroke-linecap="round" stroke-linejoin="round" stroke-opacity=".7" stroke-width="__RESOLUTION__" d="M2 1.7Q1.5.6 2.4.1q1.4-.5 2.2.4" vector-effect="non-scaling-stroke"/><path fill="#f4d940" d="M.3 4.7q-.4-.3-.2-.8L.5 3q.3-.4.9-.4l.2.1.5.7Q.6 3.9.4 4.8z"/><path fill="#a76421" d="M.4 4.8q.1-1 1.7-1.4v.4l-.4.7-1 .3z"/><path fill="none" stroke="#544a29" stroke-linecap="round" stroke-linejoin="round" stroke-opacity=".7" stroke-width="__RESOLUTION__" d="m2 3.4-.4-.6-.3-.2q-.5 0-.8.4l-.4.9q-.2.5.2.8h0" vector-effect="non-scaling-stroke"/><path fill="#c1001e" d="M1.3 3.8q-.5-1 .1-1.5 1.2-.5 2.2.5l.1.6q-1.3-.4-2.4.5z"/><path fill="#710202" d="M1.3 3.9q1.2-1 2.4-.5.2 1-.6 1.4-.5.4-1.7-.7z"/><path fill="none" stroke="#544a29" stroke-linecap="round" stroke-linejoin="round" stroke-opacity=".7" stroke-width="__RESOLUTION__" d="M3.6 2.8q-1-1-2.2-.5-.6.6-.1 1.5" vector-effect="non-scaling-stroke"/></g><g id="g"><path fill="#a76421" d="m3.8 10.4.1-.7q10-3 9.4 3.4l-1.3-.5.9.5q-1.9.3-2.4.7 1 4 8 6.3l-1.3.7q-5.8-.7-13.5-10.4"/><path fill="#b78635" d="m12 12.6 4.9 2.3v.8l-4-2.6z"/><path fill="#cf973c" d="m16.9 14.9 4-.5.4.7-4.5.6z"/><path fill="#d8a532" d="m21.4 15.2-1.1 4-1.8.9q-7-2.4-8-6.3.5-.5 2.4-.7l4 2.5z"/><path fill="none" stroke="#514728" stroke-linecap="round" stroke-linejoin="round" stroke-opacity=".7" stroke-width="__RESOLUTION__" d="m21.4 15.2-1.1 4-1.8.9-1.3.7q-5.8-.7-13.4-10.5" vector-effect="non-scaling-stroke"/><path fill="#f4d940" d="M22.8 15.1 20 19.2l-.5-3.7z"/><path fill="none" stroke="#8c621e" stroke-linecap="round" stroke-linejoin="round" stroke-opacity=".6" stroke-width="__RESOLUTION__" d="m20 19.2 2.8-4.1" vector-effect="non-scaling-stroke"/><path fill="#710202" d="M10.5 6.4q2.5 1.6 1.9 3-1.3-.8-2.8-.3-.4-1.9.9-2.7"/><path fill="#c1001e" d="M12.4 9.4q.5-1.4-1.9-3 2.2.3 2.7 1.7.1.8-.7 1.3z"/><path fill="none" stroke="#544a2a" stroke-linecap="round" stroke-linejoin="round" stroke-opacity=".7" stroke-width="__RESOLUTION__" d="M10.5 6.4q-1.3.8-1 2.7 1.6-.5 2.9.3" vector-effect="non-scaling-stroke"/><path fill="#c1001e" d="m15 10.5-.3-1.6v-.2h.1l2-.7.7 1.5 1.4.7-.3.2-2.1-.3zl1.5-.4 2.1.3.3-.1 2.3-1.5V9l2 1.6-1.4 3.2.2 1.7-4.1.2-5.6-2.3q.8-1.9-1.1-3.4-2.4.4-3 2.4L0 8.7l2.5-2.2 3.8-.8h2.1L11.9 8l2.6 2.6zm5.8.6-1.7-.5-.3-.4.3.3zm-2.2-.7.5.2z"/><path fill="none" stroke="#514728" stroke-linecap="round" stroke-linejoin="round" stroke-opacity=".7" stroke-width="__RESOLUTION__" d="m18.9 10.3-1.4-.9-.6-1.4-2.1.7h0V9l.1 1.6 1.6-.4 2.1.3zl2.3-1.5V9l2 1.6-1.4 3.2.2 1.7-4.1.2-5.6-2.3q.8-1.9-1.1-3.4-2.4.4-3 2.4M0 8.7l2.5-2.2 3.8-.8m8.2 4.9.5-.1m3.9-.3.3.3 1.6.6m-1.6-.5-.6-.2" vector-effect="non-scaling-stroke"/><path fill="none" stroke="#524728" stroke-linecap="round" stroke-linejoin="round" stroke-opacity=".5" stroke-width="__RESOLUTION__" d="M6.3 5.8h2.1L11.9 8l2.6 2.5" vector-effect="non-scaling-stroke"/><path fill="#c1001e" d="M13.5 8q2.2.3 2.7 1.7.1.8-.8 1.3.5-1.4-1.9-3"/><path fill="#710202" d="M15.4 11q-1.3-.9-2.8-.4-.4-1.8.9-2.6 2.5 1.6 1.9 3"/><path fill="none" stroke="#544a2a" stroke-linecap="round" stroke-linejoin="round" stroke-opacity=".7" stroke-width="__RESOLUTION__" d="M15.4 11q-1.3-.9-2.8-.4-.4-1.8.9-2.6" vector-effect="non-scaling-stroke"/><path fill="#cf7e1d" d="m10.9 8.5-1.4-.2Q7.3 5.1 4.8 2.8l.5-.2 2.2 1.9.8.9z"/><path fill="#f4d940" d="M10.9 8.5 8.1 5.4l-.7-.9-2.2-1.9.5-.2 2 1.8.9.9 1.9 2.2.9 1zM8.6 5.1l-.9-.9 1.4-1.7 1 .7z"/><path fill="none" stroke="#544a29" stroke-linecap="round" stroke-linejoin="round" stroke-opacity=".5" stroke-width="__RESOLUTION__" d="m5.3 2.6-.5.2q2.6 2.4 4.7 5.6m2-.2-1-1L8.8 5l-1-.8-2-1.8-.5.2" vector-effect="non-scaling-stroke"/><path fill="#f4d940" d="M4 1.9 5.4.2l1 .6L5 2.7l1.9 2.2.9 1-.6.3L4.4 3l-.8-1L1.5.4 2 0zl1 .8z"/><path fill="#cf7e1d" d="M7.2 6.2 5.8 6Q3.7 2.8 1.1.5l.4-.2 2.3 1.9.8.8z"/><path fill="none" stroke="#544a29" stroke-linecap="round" stroke-linejoin="round" stroke-opacity=".5" stroke-width="__RESOLUTION__" d="m5 2.7 1.9 2.2.9 1m-2 .1Q3.7 2.8 1.1.5l.4-.2L2 0l2 1.9 1 .8" vector-effect="non-scaling-stroke"/></g><g id="h"><path fill="#c1001e" d="M6.7 0Q8 .3 9 .9 5.4 3.3 3.6 7.1v1.5l2 2.5-3.2-.7-.1-.4-.3-.6.1-.1h-.5L1.2 9h-.1L.3 8Q0 7.4 0 6.9l.4-.4.3-.1q.6-2.7 6-6.4"/><path fill="#fe0c43" d="M6.7 0Q1.3 3.7.7 6.4l-.2.1Q1 3.9 2.4 2.3 4.5.2 6.7 0"/><path fill="#a39550" d="M2.1 9.3h.1z"/><path fill="#710202" d="m5.8 11.1-2-2.5V7Q5.4 3.3 8.9.9q1.8 1.6-.7 6.9.6 1.2.2 2.2zm2.5-3.3q-.7.4-2.2.5 1.6-.1 2.2-.5"/><path fill="none" stroke="#544a29" stroke-linecap="round" stroke-linejoin="round" stroke-opacity=".6" stroke-width="__RESOLUTION__" d="M9 .9Q8 .3 6.5 0q-2 .2-4.1 2.3-1.3 1.6-2 4.2M9 .9q1.7 1.6-.8 6.9.6 1.2.2 2.2l-2.8 1M6 8.2q1.6-.1 2.2-.5" vector-effect="non-scaling-stroke"/></g><g id="i"><path fill="#8f8146" d="M4 6.4q-2.6-1-4-2.3Q.1 2 1.3.7L4.8.5l1.5.5q.8-.8 2-1l.4.3.2.2H7.8l-1.6.7-.2.4-.2.3-1.5.5q-1 1.1-.3 4m5.2-4.5.4.3.2.1-1.1-.1-1.6.4q.7-.7 2-.7"/><path fill="#f0dfb9" d="M8.7.3h.6l.8 1 .2 1 .6 1 .3 1q0 .4-.4.7l-.5-.6L10 4V2.9l-.1-.5-.1-.2h-.1l-.3-.3h-.1L9 1 8.9.4zm1.6 2h-.7.5z"/><path fill="#bdab86" d="M10.8 5q-.6.4-2 .4l.8-.6.3-.8.5.4z"/><path fill="#a39550" d="m8.8 5.4-.5.1-4.4.9q-.6-2.9.4-4l1.5-.5.2-.4.2-.3L7.8.5h1L9 1l.1.8q-1.3 0-2 .7l1.6-.4 1 .1.3.6L9.9 4l-.2.8z"/><path fill="none" stroke="#544a29" stroke-linecap="round" stroke-linejoin="round" stroke-opacity=".6" stroke-width="__RESOLUTION__" d="m8.4 0 .3.3.2.2m0-.2h.4l.8 1 .2 1 .6 1 .3 1q0 .4-.4.7-.6.4-2 .4m-.6.2L4 6.4m5.3-4.5.3.3h.6l.1.1m-.6 0" vector-effect="non-scaling-stroke"/><path fill="none" stroke="#544a29" stroke-linecap="round" stroke-linejoin="round" stroke-opacity=".6" stroke-width="__RESOLUTION__" d="m8.8 5.4-.5.1m.5-5L9 1l.1.8m.6.5.2.5V4m-.2.8-1 .6" vector-effect="non-scaling-stroke"/></g><path id="j" fill="#382c16" d="M5.8-1.9Q7.9-1.4 8-.5 8 .3 5.9 1 3.8 1.8.7 2l-5.2-.4Q-6.7 1.2-6.7.3q-.1-.8 2-1.6 2.2-.8 5.2-.9z" transform="translate(6.75 2.25)"/></defs><g clip-path="url(#k)"><g transform="translate(23 43.05)"><use xlink:href="#l" width="14.7" height="4.3" transform="matrix(-.6122 0 0 .6122 4.15 -1.4)"/><use xlink:href="#m" width="11.2" height="6.4" transform="matrix(-.3608 .4927 -.4308 -.5881 -6.3 -7.15)"/><use xlink:href="#n" width="9.7" height="11.1" transform="matrix(-.6444 -.3142 -.4753 .5628 -.45 -10.55)"/><use xlink:href="#o" width="23.3" height="20.8" transform="matrix(.9808 -.1916 .1916 .9808 -6 -37.6)"/><use xlink:href="#p" width="6.4" height="5.6" transform="translate(-7.1 -26.55)"/><use xlink:href="#q" width="21.4" height="27.5" transform="translate(-10.65 -31.85)"/><use xlink:href="#r" width="16.7" height="12.7" transform="matrix(1.0132 -.3814 .5618 .8604 -22 -11.95)"/><use xlink:href="#s" width="10.3" height="8" transform="matrix(-.2958 .5236 .4677 .2073 11.95 -10.95)"/><use xlink:href="#n" width="9.7" height="11.1" transform="matrix(-.3422 .7336 .5345 .3517 7.85 -14.8)"/><use xlink:href="#t" width="7" height="6" transform="matrix(-.0457 .9545 -.9857 -.2406 4 -21.55)"/><use xlink:href="#u" width="6.2" height="5" transform="matrix(.0749 .9517 -1.0072 -.1144 .1 -18.8)"/></g></g><g clip-path="url(#v)"><g transform="translate(69 43.05)"><use xlink:href="#l" width="14.7" height="4.3" transform="matrix(-.6122 0 0 .6122 4.15 -1.4)"/><use xlink:href="#m" width="11.2" height="6.4" transform="matrix(-.3594 .4925 -.4291 -.5879 -5.65 -7.15)"/><use xlink:href="#n" width="9.7" height="11.1" transform="matrix(-.6444 -.3121 -.4739 .5623 .25 -10.45)"/><use xlink:href="#o" width="23.3" height="20.8" transform="rotate(-10.01 -215.51 13.635)scale(.9988)"/><use xlink:href="#p" width="6.4" height="5.6" transform="translate(-6.7 -26)"/><use xlink:href="#q" width="21.4" height="27.5" transform="translate(-10.7 -31.35)"/><use xlink:href="#r" width="16.7" height="12.7" transform="matrix(.9947 -.3675 .5378 .8825 -21.8 -11.75)"/><use xlink:href="#s" width="10.3" height="8" transform="matrix(-.3201 .5529 .4972 .1891 11.95 -10.35)"/><use xlink:href="#n" width="9.7" height="11.1" transform="matrix(-.3428 .7323 .5357 .376 7.85 -14.1)"/><use xlink:href="#t" width="7" height="6" transform="matrix(.131 .9302 -1.0102 -.0801 3.85 -21.05)"/><use xlink:href="#u" width="6.2" height="5" transform="matrix(.2039 .9368 -1.0121 .0312 .7 -18.6)"/></g></g><g clip-path="url(#w)"><g transform="translate(115 43.05)"><use xlink:href="#l" width="14.7" height="4.3" transform="matrix(-.6122 0 0 .6122 4.15 -1.4)"/><use xlink:href="#m" width="11.2" height="6.4" transform="matrix(-.3594 .4925 -.4291 -.5879 -5 -7.2)"/><use xlink:href="#n" width="9.7" height="11.1" transform="matrix(-.6444 -.3121 -.4739 .5623 .95 -10.3)"/><use xlink:href="#o" width="23.3" height="20.8" transform="rotate(-8.81 -242.387 15.27)scale(.999)"/><use xlink:href="#p" width="6.4" height="5.6" transform="translate(-6.3 -25.45)"/><use xlink:href="#q" width="21.4" height="27.5" transform="translate(-10.7 -30.9)"/><use xlink:href="#r" width="16.7" height="12.7" transform="matrix(.9778 -.3524 .5174 .903 -21.55 -11.5)"/><use xlink:href="#s" width="10.3" height="8" transform="matrix(-.3447 .5829 .5258 .1711 12.1 -9.7)"/><use xlink:href="#n" width="9.7" height="11.1" transform="matrix(-.346 .7309 .5379 .3996 7.8 -13.45)"/><use xlink:href="#t" width="7" height="6" transform="matrix(.2975 .874 -1.0094 .076 3.75 -20.45)"/><use xlink:href="#u" width="6.2" height="5" transform="matrix(.3304 .9048 -.9957 .1762 1.3 -18.35)"/></g></g><g clip-path="url(#x)"><g transform="translate(161 43.05)"><use xlink:href="#l" width="14.7" height="4.3" transform="matrix(-.6122 0 0 .6122 4.15 -1.4)"/><use xlink:href="#m" width="11.2" height="6.4" transform="matrix(-.3594 .4925 -.4291 -.5879 -4.4 -7.2)"/><use xlink:href="#n" width="9.7" height="11.1" transform="matrix(-.6444 -.3121 -.4739 .5623 1.6 -10.2)"/><use xlink:href="#o" width="23.3" height="20.8" transform="rotate(-7.803 -270.776 17.623)scale(.9987)"/><use xlink:href="#p" width="6.4" height="5.6" transform="translate(-5.85 -24.85)"/><use xlink:href="#q" width="21.4" height="27.5" transform="translate(-10.75 -30.4)"/><use xlink:href="#r" width="16.7" height="12.7" transform="matrix(.9597 -.3407 .4934 .9248 -21.25 -11.3)"/><use xlink:href="#s" width="10.3" height="8" transform="matrix(-.372 .6114 .5543 .1489 12.2 -8.95)"/><use xlink:href="#n" width="9.7" height="11.1" transform="matrix(-.3492 .7295 .5378 .4254 7.8 -12.7)"/><use xlink:href="#t" width="7" height="6" transform="matrix(.4479 .7888 -.9827 .2365 3.55 -19.9)"/><use xlink:href="#u" width="6.2" height="5" transform="matrix(.4521 .8557 -.9587 .3172 1.8 -18.05)"/></g></g><g clip-path="url(#y)"><g transform="translate(207 43.05)"><use xlink:href="#l" width="14.7" height="4.3" transform="matrix(-.6122 0 0 .6122 4.15 -1.4)"/><use xlink:href="#m" width="11.2" height="6.4" transform="matrix(-.3594 .4925 -.4291 -.5879 -3.75 -7.2)"/><use xlink:href="#n" width="9.7" height="11.1" transform="matrix(-.6444 -.3121 -.4739 .5623 2.25 -10.1)"/><use xlink:href="#o" width="23.3" height="20.8" transform="rotate(-6.797 -307.44 19.343)scale(.9987)"/><use xlink:href="#p" width="6.4" height="5.6" transform="translate(-5.45 -24.3)"/><use xlink:href="#q" width="21.4" height="27.5" transform="translate(-10.75 -29.9)"/><use xlink:href="#r" width="16.7" height="12.7" transform="matrix(.9426 -.326 .4685 .9458 -21.1 -11.05)"/><use xlink:href="#s" width="10.3" height="8" transform="matrix(-.3979 .6405 .5819 .1242 12.25 -8.45)"/><use xlink:href="#n" width="9.7" height="11.1" transform="matrix(-.3523 .7281 .5366 .4516 7.75 -12.15)"/><use xlink:href="#t" width="7" height="6" transform="matrix(.5775 .6789 -.932 .3874 3.4 -19.35)"/><use xlink:href="#u" width="6.2" height="5" transform="matrix(.5692 .7884 -.9019 .4513 2.4 -17.65)"/></g></g><g clip-path="url(#z)"><g transform="translate(253 43.05)"><use xlink:href="#l" width="14.7" height="4.3" transform="matrix(-.6122 0 0 .6122 4.15 -1.4)"/><use xlink:href="#m" width="11.2" height="6.4" transform="matrix(-.3594 .4925 -.4291 -.5879 -3.1 -7.25)"/><use xlink:href="#n" width="9.7" height="11.1" transform="matrix(-.6444 -.3121 -.4739 .5623 2.95 -9.95)"/><use xlink:href="#o" width="23.3" height="20.8" transform="rotate(-5.787 -357.725 23.572)scale(.9987)"/><use xlink:href="#p" width="6.4" height="5.6" transform="translate(-5.05 -23.75)"/><use xlink:href="#q" width="21.4" height="27.5" transform="translate(-10.8 -29.45)"/><use xlink:href="#r" width="16.7" height="12.7" transform="matrix(.9242 -.3147 .4459 .9648 -20.8 -10.85)"/><use xlink:href="#s" width="10.3" height="8" transform="matrix(-.4265 .6677 .6083 .097 12.35 -7.75)"/><use xlink:href="#n" width="9.7" height="11.1" transform="matrix(-.3554 .7267 .5358 .4763 7.8 -11.4)"/><use xlink:href="#t" width="7" height="6" transform="matrix(.684 .5466 -.8565 .5312 3.2 -18.75)"/><use xlink:href="#u" width="6.2" height="5" transform="matrix(.6742 .7073 -.8265 .5759 2.8 -17.2)"/></g></g><g clip-path="url(#A)"><g transform="translate(299 43.05)"><use xlink:href="#l" width="14.7" height="4.3" transform="matrix(-.6122 0 0 .6122 4.15 -1.4)"/><use xlink:href="#m" width="11.2" height="6.4" transform="matrix(-.3594 .4925 -.4291 -.5879 -2.45 -7.25)"/><use xlink:href="#n" width="9.7" height="11.1" transform="matrix(-.6444 -.3121 -.4739 .5623 3.6 -9.85)"/><use xlink:href="#o" width="23.3" height="20.8" transform="rotate(-4.778 -427.318 27.788)scale(.9988)"/><use xlink:href="#p" width="6.4" height="5.6" transform="translate(-4.65 -23.2)"/><use xlink:href="#q" width="21.4" height="27.5" transform="translate(-10.8 -28.95)"/><use xlink:href="#r" width="16.7" height="12.7" transform="matrix(.9058 -.3036 .4194 .9846 -20.6 -10.55)"/><use xlink:href="#s" width="10.3" height="8" transform="matrix(-.4552 .6963 .6335 .0697 12.5 -7.1)"/><use xlink:href="#n" width="9.7" height="11.1" transform="matrix(-.3593 .726 .5335 .5037 7.8 -10.7)"/><use xlink:href="#t" width="7" height="6" transform="matrix(.7606 .4016 -.7613 .6586 3.05 -17.95)"/><use xlink:href="#u" width="6.2" height="5" transform="matrix(.7677 .6124 -.7318 .6907 3.3 -16.7)"/></g></g><g clip-path="url(#B)"><g transform="translate(345 43.05)"><use xlink:href="#l" width="14.7" height="4.3" transform="matrix(-.6122 0 0 .6122 4.15 -1.4)"/><use xlink:href="#m" width="11.2" height="6.4" transform="matrix(-.3594 .4925 -.4291 -.5879 -1.85 -7.25)"/><use xlink:href="#n" width="9.7" height="11.1" transform="matrix(-.6444 -.3121 -.4739 .5623 4.25 -9.75)"/><use xlink:href="#o" width="23.3" height="20.8" transform="rotate(-3.772 -536.227 34.03)scale(.9988)"/><use xlink:href="#p" width="6.4" height="5.6" transform="translate(-4.2 -22.6)"/><use xlink:href="#q" width="21.4" height="27.5" transform="translate(-10.85 -28.45)"/><use xlink:href="#r" width="16.7" height="12.7" transform="matrix(.8883 -.2898 .3954 1.0024 -20.35 -10.3)"/><use xlink:href="#s" width="10.3" height="8" transform="matrix(-.5887 .4747 .482 .3446 10.95 -5.9)"/><use xlink:href="#n" width="9.7" height="11.1" transform="matrix(-.5783 .5762 .3164 .6322 8.75 -10.2)"/><use xlink:href="#t" width="7" height="6" transform="matrix(.8077 .2476 -.6475 .7693 2.8 -17.3)"/><use xlink:href="#u" width="6.2" height="5" transform="matrix(.8495 .5024 -.624 .7883 3.75 -16.2)"/></g></g><g clip-path="url(#C)"><g transform="translate(391 43.05)"><use xlink:href="#l" width="14.7" height="4.3" transform="matrix(-.6122 0 0 .6122 4.15 -1.4)"/><use xlink:href="#m" width="11.2" height="6.4" transform="matrix(-.3594 .4925 -.4291 -.5879 -1.2 -7.3)"/><use xlink:href="#n" width="9.7" height="11.1" transform="matrix(-.6444 -.3121 -.4739 .5623 4.95 -9.6)"/><use xlink:href="#o" width="23.3" height="20.8" transform="rotate(-2.766 -724.275 45.713)scale(.9988)"/><use xlink:href="#p" width="6.4" height="5.6" transform="translate(-3.8 -22.05)"/><use xlink:href="#q" width="21.4" height="27.5" transform="translate(-10.85 -28)"/><use xlink:href="#r" width="16.7" height="12.7" transform="matrix(.8697 -.2791 .3674 1.0209 -20.05 -10.05)"/><use xlink:href="#s" width="10.3" height="8" transform="matrix(-.6366 .2452 .2345 .4963 9.35 -4.2)"/><use xlink:href="#n" width="9.7" height="11.1" transform="matrix(-.7389 .3651 .0779 .6774 9.4 -9.1)"/><use xlink:href="#t" width="7" height="6" transform="matrix(.8246 .0906 -.5151 .8626 2.8 -16.45)"/><use xlink:href="#u" width="6.2" height="5" transform="matrix(.9145 .3845 -.5035 .8693 4.3 -15.5)"/></g></g><g clip-path="url(#D)"><g transform="translate(437 43.05)"><use xlink:href="#l" width="14.7" height="4.3" transform="matrix(-.6122 0 0 .6122 4.15 -1.4)"/><use xlink:href="#m" width="11.2" height="6.4" transform="matrix(-.3608 .4927 -.4308 -.5881 -.55 -7.3)"/><use xlink:href="#n" width="9.7" height="11.1" transform="matrix(-.6444 -.3142 -.4753 .5628 5.55 -9.5)"/><use xlink:href="#o" width="23.3" height="20.8" transform="rotate(-1.767 -1119.954 70.293)scale(.9989)"/><use xlink:href="#p" width="6.4" height="5.6" transform="translate(-3.4 -21.5)"/><use xlink:href="#q" width="21.4" height="27.5" transform="translate(-10.9 -27.5)"/><use xlink:href="#r" width="16.7" height="12.7" transform="matrix(.8518 -.2687 .3412 1.0389 -19.85 -9.75)"/><use xlink:href="#s" width="10.3" height="8" transform="matrix(-.6074 .0353 -.0349 .5046 7.35 -2.05)"/><use xlink:href="#n" width="9.7" height="11.1" transform="matrix(-.8256 .11 -.1502 .6389 9.7 -7.6)"/><use xlink:href="#t" width="7" height="6" transform="matrix(.8117 -.0638 -.3739 .933 2.65 -15.7)"/><use xlink:href="#u" width="6.2" height="5" transform="matrix(.9638 .259 -.3739 .933 4.8 -14.9)"/></g></g><g clip-path="url(#E)"><g transform="translate(483 43.05)"><use xlink:href="#l" width="14.7" height="4.3" transform="matrix(-.6122 0 0 .6122 4.15 -1.4)"/><use xlink:href="#m" width="11.2" height="6.4" transform="matrix(-.2313 .5644 -.5587 -.4664 1.1 -7.75)"/><use xlink:href="#n" width="9.7" height="11.1" transform="matrix(-.6899 -.1921 -.3657 .638 6.3 -10.5)"/><use xlink:href="#o" width="23.3" height="20.8" transform="rotate(-2.766 -720.011 43.736)scale(.9987)"/><use xlink:href="#p" width="6.4" height="5.6" transform="translate(-4.4 -21.5)"/><use xlink:href="#q" width="21.4" height="27.5" transform="rotate(1.014 1567.848 -607.014)scale(.9999)"/><use xlink:href="#r" width="16.7" height="12.7" transform="matrix(.8522 -.2536 .3159 1.0293 -19.75 -10.05)"/><use xlink:href="#s" width="10.3" height="8" transform="matrix(-.6069 .0373 -.0313 .5045 5.75 -1.85)"/><use xlink:href="#n" width="9.7" height="11.1" transform="matrix(-.8318 .0369 -.2257 .6364 8.95 -6.85)"/><use xlink:href="#t" width="7" height="6" transform="matrix(.7991 -.1524 -.2854 .9743 2.8 -15.7)"/><use xlink:href="#u" width="6.2" height="5" transform="matrix(.9696 .2331 -.3482 .9416 5.25 -15.05)"/></g></g><g clip-path="url(#F)"><g transform="translate(529 43.05)"><use xlink:href="#l" width="14.7" height="4.3" transform="matrix(-.6122 0 0 .6122 4.15 -1.4)"/><use xlink:href="#m" width="11.2" height="6.4" transform="matrix(-.088 .6039 -.6552 -.3172 2.6 -8.1)"/><use xlink:href="#n" width="9.7" height="11.1" transform="matrix(-.7133 -.0659 -.2459 .6932 6.7 -11.5)"/><use xlink:href="#o" width="23.3" height="20.8" transform="rotate(-3.784 -529.05 31.007)scale(.9985)"/><use xlink:href="#p" width="6.4" height="5.6" transform="translate(-5.4 -21.5)"/><use xlink:href="#q" width="21.4" height="27.5" transform="rotate(2.024 791.931 -300.026)scale(.9997)"/><use xlink:href="#r" width="16.7" height="12.7" transform="matrix(.8525 -.2414 .2935 1.0197 -19.6 -10.35)"/><use xlink:href="#s" width="10.3" height="8" transform="matrix(-.6064 .0399 -.0291 .5044 4.15 -1.75)"/><use xlink:href="#n" width="9.7" height="11.1" transform="matrix(-.8318 -.0328 -.3024 .6255 8.15 -6.15)"/><use xlink:href="#t" width="7" height="6" transform="matrix(.7762 -.2417 -.1967 1.0075 3 -15.65)"/><use xlink:href="#u" width="6.2" height="5" transform="matrix(.9754 .2075 -.3233 .9504 5.6 -15.2)"/></g></g><g clip-path="url(#G)"><g transform="translate(575 43.05)"><use xlink:href="#l" width="14.7" height="4.3" transform="matrix(-.6122 0 0 .6122 4.15 -1.4)"/><use xlink:href="#m" width="11.2" height="6.4" transform="matrix(.0586 .6076 -.7124 -.1516 4 -8.55)"/><use xlink:href="#n" width="9.7" height="11.1" transform="matrix(-.7137 .06 -.1159 .7265 7.1 -12.45)"/><use xlink:href="#o" width="23.3" height="20.8" transform="rotate(-4.797 -418.81 21.914)scale(.9984)"/><use xlink:href="#p" width="6.4" height="5.6" transform="translate(-6.4 -21.5)"/><use xlink:href="#q" width="21.4" height="27.5" transform="rotate(3.034 532.39 -196.444)scale(.9996)"/><use xlink:href="#r" width="16.7" height="12.7" transform="matrix(.8526 -.2293 .2716 1.0095 -19.5 -10.6)"/><use xlink:href="#s" width="10.3" height="8" transform="matrix(-.6059 .0426 -.0269 .5043 2.6 -1.55)"/><use xlink:href="#n" width="9.7" height="11.1" transform="matrix(-.8257 -.1022 -.3794 .6052 7.3 -5.35)"/><use xlink:href="#t" width="7" height="6" transform="matrix(.7435 -.3278 -.1043 1.0325 3.25 -15.7)"/><use xlink:href="#u" width="6.2" height="5" transform="matrix(.9805 .1819 -.2982 .9585 6 -15.3)"/></g></g><g clip-path="url(#H)"><g transform="translate(621 43.05)"><use xlink:href="#l" width="14.7" height="4.3" transform="matrix(-.6122 0 0 .6122 4.15 -1.4)"/><use xlink:href="#m" width="11.2" height="6.4" transform="matrix(.2018 .5756 -.7284 .0227 5.1 -8.9)"/><use xlink:href="#n" width="9.7" height="11.1" transform="matrix(-.6904 .1885 .0132 .7357 7.25 -13.35)"/><use xlink:href="#o" width="23.3" height="20.8" transform="rotate(-5.813 -348.461 17.854)scale(.9982)"/><use xlink:href="#p" width="6.4" height="5.6" transform="translate(-7.4 -21.5)"/><use xlink:href="#q" width="21.4" height="27.5" transform="rotate(4.045 403.169 -145.375)scale(.9995)"/><use xlink:href="#r" width="16.7" height="12.7" transform="matrix(.8524 -.2171 .2501 .9989 -19.45 -10.9)"/><use xlink:href="#s" width="10.3" height="8" transform="matrix(-.6055 .0452 -.0247 .5042 .95 -1.4)"/><use xlink:href="#n" width="9.7" height="11.1" transform="matrix(-.8133 -.1735 -.4554 .5754 6.5 -4.5)"/><use xlink:href="#t" width="7" height="6" transform="matrix(.7026 -.4074 -.0056 1.0491 3.35 -15.65)"/><use xlink:href="#u" width="6.2" height="5" transform="matrix(.9854 .1528 -.2729 .966 6.4 -15.35)"/></g></g><g clip-path="url(#I)"><g transform="translate(667 43.05)"><use xlink:href="#l" width="14.7" height="4.3" transform="matrix(-.6122 0 0 .6122 4.15 -1.4)"/><use xlink:href="#m" width="11.2" height="6.4" transform="matrix(.335 .5093 -.7007 .198 6.3 -9)"/><use xlink:href="#n" width="9.7" height="11.1" transform="matrix(-.6452 .3086 .144 .721 7.35 -14.2)"/><use xlink:href="#o" width="23.3" height="20.8" transform="rotate(-7.015 -289.076 14.212)scale(.998)"/><use xlink:href="#p" width="6.4" height="5.6" transform="translate(-8.4 -21.5)"/><use xlink:href="#q" width="21.4" height="27.5" transform="rotate(5.057 324.472 -114.722)scale(.9994)"/><use xlink:href="#r" width="16.7" height="12.7" transform="matrix(.8522 -.2051 .229 .9879 -19.4 -11.2)"/><use xlink:href="#s" width="10.3" height="8" transform="matrix(-.6049 .0478 -.0225 .504 -.6 -1.2)"/><use xlink:href="#n" width="9.7" height="11.1" transform="matrix(-.7947 -.2435 -.5294 .536 5.5 -3.65)"/><use xlink:href="#t" width="7" height="6" transform="matrix(.6517 -.4841 .0883 1.0562 3.55 -15.6)"/><use xlink:href="#u" width="6.2" height="5" transform="matrix(.9891 .1269 -.2474 .9729 6.85 -15.55)"/></g></g><g clip-path="url(#J)"><g transform="translate(713 43.05)"><use xlink:href="#l" width="14.7" height="4.3" transform="matrix(-.6122 0 0 .6122 4.15 -1.4)"/><use xlink:href="#m" width="11.2" height="6.4" transform="matrix(.4485 .4142 -.6329 .3613 7.35 -9.05)"/><use xlink:href="#n" width="9.7" height="11.1" transform="matrix(-.5798 .42 .2724 .6833 7.35 -14.9)"/><use xlink:href="#o" width="23.3" height="20.8" transform="rotate(-8.09 -252.033 11.67)scale(.9984)"/><use xlink:href="#p" width="6.4" height="5.6" transform="translate(-9.4 -21.5)"/><use xlink:href="#q" width="21.4" height="27.5" transform="rotate(6.272 264.138 -90.905)scale(.9996)"/><use xlink:href="#r" width="16.7" height="12.7" transform="matrix(.8522 -.1936 .2106 .9766 -19.35 -11.5)"/><use xlink:href="#s" width="10.3" height="8" transform="matrix(-.6046 .0509 -.0217 .5039 -2.15 -1.1)"/><use xlink:href="#n" width="9.7" height="11.1" transform="matrix(-.7712 -.3116 -.6019 .4871 4.6 -2.9)"/><use xlink:href="#t" width="7" height="6" transform="matrix(.5934 -.5555 .1898 1.0543 3.75 -15.6)"/><use xlink:href="#u" width="6.2" height="5" transform="matrix(.9921 .1038 -.222 .9797 7.25 -15.7)"/></g></g><g clip-path="url(#K)"><g transform="translate(759 43.05)"><use xlink:href="#l" width="14.7" height="4.3" transform="matrix(-.6122 0 0 .6122 4.15 -1.4)"/><use xlink:href="#m" width="11.2" height="6.4" transform="matrix(.526 .308 -.5416 .4857 7.2 -9.75)"/><use xlink:href="#n" width="9.7" height="11.1" transform="matrix(-.5366 .4721 .3447 .6461 7.1 -15.35)"/><use xlink:href="#o" width="23.3" height="20.8" transform="rotate(-8.296 -247.623 12.191)scale(.998)"/><use xlink:href="#p" width="6.4" height="5.6" transform="rotate(-2.282 -541.055 240.404)scale(.9997)"/><use xlink:href="#q" width="21.4" height="27.5" transform="rotate(5.518 303.78 -105.11)scale(.9993)"/><use xlink:href="#r" width="16.7" height="12.7" transform="matrix(.8256 -.1837 .2041 .9781 -18.9 -12.1)"/><use xlink:href="#s" width="10.3" height="8" transform="matrix(-.6046 -.0453 -.0941 .5053 -2.15 -1.35)"/><use xlink:href="#n" width="9.7" height="11.1" transform="matrix(-.735 -.3838 -.6286 .4453 4.35 -2.8)"/><use xlink:href="#t" width="7" height="6" transform="matrix(.6237 -.5438 .1943 1.0465 3.6 -16.15)"/><use xlink:href="#u" width="6.2" height="5" transform="matrix(.9873 .1002 -.227 .9788 7.45 -16.35)"/></g></g><g clip-path="url(#L)"><g transform="translate(805 43.05)"><use xlink:href="#l" width="14.7" height="4.3" transform="matrix(-.6122 0 0 .6122 4.15 -1.4)"/><use xlink:href="#m" width="11.2" height="6.4" transform="matrix(.5797 .1892 -.4257 .5899 7.1 -10.3)"/><use xlink:href="#n" width="9.7" height="11.1" transform="matrix(-.4907 .5197 .4144 .601 6.75 -15.8)"/><use xlink:href="#o" width="23.3" height="20.8" transform="rotate(-8.568 -241.573 12.446)scale(.9981)"/><use xlink:href="#p" width="6.4" height="5.6" transform="rotate(-4.562 -271.427 123.079)scale(.9995)"/><use xlink:href="#q" width="21.4" height="27.5" transform="rotate(4.781 354.245 -121.565)scale(.9994)"/><use xlink:href="#r" width="16.7" height="12.7" transform="matrix(.7988 -.1772 .1997 .9797 -18.4 -12.6)"/><use xlink:href="#s" width="10.3" height="8" transform="matrix(-.5889 -.1416 -.1688 .4957 -2.4 -1.55)"/><use xlink:href="#n" width="9.7" height="11.1" transform="matrix(-.6916 -.4545 -.654 .4018 4.1 -2.6)"/><use xlink:href="#t" width="7" height="6" transform="matrix(.6567 -.5293 .1982 1.0395 3.45 -16.7)"/><use xlink:href="#u" width="6.2" height="5" transform="matrix(.9825 .0995 -.2354 .9777 7.6 -16.95)"/></g></g><g clip-path="url(#M)"><g transform="translate(851 43.05)"><use xlink:href="#l" width="14.7" height="4.3" transform="matrix(-.6122 0 0 .6122 4.15 -1.4)"/><use xlink:href="#m" width="11.2" height="6.4" transform="matrix(.607 .0617 -.2906 .6671 6.9 -10.7)"/><use xlink:href="#n" width="9.7" height="11.1" transform="matrix(-.4388 .5642 .4783 .5485 6.35 -16.15)"/><use xlink:href="#o" width="23.3" height="20.8" transform="rotate(-9.025 -231.073 12.042)scale(.9983)"/><use xlink:href="#p" width="6.4" height="5.6" transform="rotate(-7.03 -176.579 81.476)scale(.9992)"/><use xlink:href="#q" width="21.4" height="27.5" transform="matrix(.997 .0705 -.0705 .997 -9.2 -30.3)"/><use xlink:href="#r" width="16.7" height="12.7" transform="matrix(.7725 -.1682 .192 .982 -18.05 -13.15)"/><use xlink:href="#s" width="10.3" height="8" transform="matrix(-.5587 -.2324 -.2426 .475 -2.6 -1.8)"/><use xlink:href="#n" width="9.7" height="11.1" transform="matrix(-.6431 -.5182 -.6765 .3569 3.7 -2.65)"/><use xlink:href="#t" width="7" height="6" transform="matrix(.6878 -.5153 .202 1.0325 3.35 -17.3)"/><use xlink:href="#u" width="6.2" height="5" transform="matrix(.9777 .0988 -.2438 .9766 7.85 -17.65)"/></g></g><g clip-path="url(#N)"><g transform="translate(897 43.05)"><use xlink:href="#l" width="14.7" height="4.3" transform="matrix(-.6122 0 0 .6122 4.15 -1.4)"/><use xlink:href="#m" width="11.2" height="6.4" transform="matrix(.6064 -.0665 -.1422 .714 6.9 -10.95)"/><use xlink:href="#n" width="9.7" height="11.1" transform="matrix(-.3849 .6024 .5341 .4911 6.05 -16.4)"/><use xlink:href="#o" width="23.3" height="20.8" transform="rotate(-9.292 -226.133 12.282)scale(.9984)"/><use xlink:href="#p" width="6.4" height="5.6" transform="rotate(-9.31 -133.964 62.345)scale(.999)"/><use xlink:href="#q" width="21.4" height="27.5" transform="rotate(3.31 523.202 -178.82)scale(.9996)"/><use xlink:href="#r" width="16.7" height="12.7" transform="matrix(.7462 -.1594 .1876 .9836 -17.6 -13.75)"/><use xlink:href="#s" width="10.3" height="8" transform="matrix(-.5137 -.319 -.3141 .4432 -2.9 -2)"/><use xlink:href="#n" width="9.7" height="11.1" transform="matrix(-.587 -.5788 -.6959 .3107 3.3 -2.5)"/><use xlink:href="#t" width="7" height="6" transform="matrix(.7187 -.4997 .2091 1.0247 3.25 -17.9)"/><use xlink:href="#u" width="6.2" height="5" transform="matrix(.9729 .0981 -.249 .9763 7.95 -18.25)"/></g></g><g clip-path="url(#O)"><g transform="translate(943 43.05)"><use xlink:href="#l" width="14.7" height="4.3" transform="matrix(-.6122 0 0 .6122 4.15 -1.4)"/><use xlink:href="#m" width="11.2" height="6.4" transform="matrix(.578 -.1937 .0103 .7283 6.8 -11.15)"/><use xlink:href="#n" width="9.7" height="11.1" transform="matrix(-.3256 .6365 .5845 .4261 5.75 -16.7)"/><use xlink:href="#o" width="23.3" height="20.8" transform="rotate(-9.564 -221 12.206)scale(.9985)"/><use xlink:href="#p" width="6.4" height="5.6" transform="rotate(-11.78 -106.574 50.232)scale(.9987)"/><use xlink:href="#q" width="21.4" height="27.5" transform="rotate(2.764 632.556 -215.399)scale(.9997)"/><use xlink:href="#r" width="16.7" height="12.7" transform="matrix(.7194 -.1532 .1832 .9851 -17.25 -14.15)"/><use xlink:href="#s" width="10.3" height="8" transform="matrix(-.4553 -.3973 -.38 .4018 -3.3 -2.15)"/><use xlink:href="#n" width="9.7" height="11.1" transform="matrix(-.5273 -.6318 -.7122 .2637 2.85 -2.55)"/><use xlink:href="#t" width="7" height="6" transform="matrix(.7509 -.4802 .2127 1.0177 3.2 -18.45)"/><use xlink:href="#u" width="6.2" height="5" transform="matrix(.9685 .0943 -.2573 .975 8.2 -18.9)"/></g></g><g clip-path="url(#P)"><g transform="translate(989 43.05)"><use xlink:href="#l" width="14.7" height="4.3" transform="matrix(-.6122 0 0 .6122 4.15 -1.4)"/><use xlink:href="#m" width="11.2" height="6.4" transform="matrix(.5233 -.3121 .1646 .709 6.9 -11.25)"/><use xlink:href="#n" width="9.7" height="11.1" transform="matrix(-.2656 .664 .6271 .3561 5.25 -16.9)"/><use xlink:href="#o" width="23.3" height="20.8" transform="rotate(-10.024 -212.775 12.078)scale(.9985)"/><use xlink:href="#p" width="6.4" height="5.6" transform="rotate(-14.061 -89.662 42.86)scale(.9985)"/><use xlink:href="#q" width="21.4" height="27.5" transform="rotate(2.024 872.72 -295.788)scale(.9997)"/><use xlink:href="#r" width="16.7" height="12.7" transform="matrix(.693 -.1447 .1788 .9867 -16.85 -14.65)"/><use xlink:href="#s" width="10.3" height="8" transform="matrix(-.3853 -.4652 -.4416 .3492 -3.8 -2.4)"/><use xlink:href="#n" width="9.7" height="11.1" transform="matrix(-.4607 -.6801 -.7253 .2158 2.5 -2.5)"/><use xlink:href="#t" width="7" height="6" transform="matrix(.7812 -.4614 .2196 1.0099 2.95 -19.05)"/><use xlink:href="#u" width="6.2" height="5" transform="matrix(.9637 .0936 -.2658 .9737 8.35 -19.55)"/></g></g><g clip-path="url(#Q)"><g transform="translate(1035 43.05)"><use xlink:href="#l" width="14.7" height="4.3" transform="matrix(-.6122 0 0 .6122 4.15 -1.4)"/><use xlink:href="#m" width="11.2" height="6.4" transform="matrix(.4448 -.4162 .3113 .6574 7.05 -11.4)"/><use xlink:href="#n" width="9.7" height="11.1" transform="matrix(-.201 .6865 .6606 .2842 5 -17.1)"/><use xlink:href="#o" width="23.3" height="20.8" transform="rotate(-10.292 -209.068 12.518)scale(.9986)"/><use xlink:href="#p" width="6.4" height="5.6" transform="rotate(-16.53 -76.557 37.035)scale(.998)"/><use xlink:href="#q" width="21.4" height="27.5" transform="rotate(1.284 1389.581 -473.089)scale(.9999)"/><use xlink:href="#r" width="16.7" height="12.7" transform="matrix(.6661 -.1387 .171 .9888 -16.4 -15.2)"/><use xlink:href="#s" width="10.3" height="8" transform="matrix(-.307 -.52 -.4958 .2871 -4.35 -2.65)"/><use xlink:href="#n" width="9.7" height="11.1" transform="matrix(-.3921 -.7203 -.7353 .1673 1.95 -2.55)"/><use xlink:href="#t" width="7" height="6" transform="matrix(.8125 -.4385 .2231 1.0027 2.85 -19.6)"/><use xlink:href="#u" width="6.2" height="5" transform="matrix(.9589 .0929 -.271 .9733 8.55 -20.25)"/></g></g><g clip-path="url(#R)"><g transform="translate(1081 43.05)"><use xlink:href="#l" width="14.7" height="4.3" transform="matrix(-.6122 0 0 .6122 4.15 -1.4)"/><use xlink:href="#m" width="11.2" height="6.4" transform="matrix(.346 -.5013 .4439 .5759 7.4 -11.45)"/><use xlink:href="#n" width="9.7" height="11.1" transform="matrix(-.1369 .7023 .6866 .2071 4.6 -17.25)"/><use xlink:href="#o" width="23.3" height="20.8" transform="rotate(-10.564 -204.876 12.423)scale(.9987)"/><use xlink:href="#p" width="6.4" height="5.6" transform="rotate(-18.816 -67.93 32.926)scale(.998)"/><use xlink:href="#q" width="21.4" height="27.5" transform="rotate(.55 3281.005 -1099.025)"/><use xlink:href="#r" width="16.7" height="12.7" transform="matrix(.6397 -.1305 .1666 .9903 -16 -15.75)"/><use xlink:href="#s" width="10.3" height="8" transform="matrix(-.2193 -.5625 -.5413 .2166 -4.95 -2.9)"/><use xlink:href="#n" width="9.7" height="11.1" transform="matrix(-.3176 -.7546 -.7416 .1209 1.45 -2.7)"/><use xlink:href="#t" width="7" height="6" transform="matrix(.8419 -.4165 .2265 .9956 2.75 -20.3)"/><use xlink:href="#u" width="6.2" height="5" transform="matrix(.9541 .0922 -.2794 .9718 8.7 -20.85)"/></g></g><g clip-path="url(#S)"><g transform="translate(1127 43.05)"><use xlink:href="#l" width="14.7" height="4.3" transform="matrix(-.6122 0 0 .6122 4.15 -1.4)"/><use xlink:href="#m" width="11.2" height="6.4" transform="matrix(.233 -.5638 .5578 .4682 7.8 -11.45)"/><use xlink:href="#n" width="9.7" height="11.1" transform="matrix(-.0715 .7124 .7038 .1292 4.4 -17.3)"/><use xlink:href="#o" width="23.3" height="20.8" transform="matrix(.9808 -.1916 .1916 .9808 -6 -37.6)"/><use xlink:href="#p" width="6.4" height="5.6" transform="rotate(-21.297 -60.504 29.65)scale(.999)"/><use xlink:href="#q" width="21.4" height="27.5" transform="translate(-10.65 -31.85)"/><use xlink:href="#r" width="16.7" height="12.7" transform="matrix(.6132 -.1243 .1635 .9921 -15.55 -16.2)"/><use xlink:href="#s" width="10.3" height="8" transform="matrix(-.1274 -.5905 -.5767 .1405 -5.7 -3.15)"/><use xlink:href="#n" width="9.7" height="11.1" transform="matrix(-.2435 -.7811 -.7455 .0726 .85 -2.75)"/><use xlink:href="#t" width="7" height="6" transform="matrix(.8717 -.3937 .2342 .9883 2.65 -20.8)"/><use xlink:href="#u" width="6.2" height="5" transform="matrix(.9496 .092 -.2878 .9713 8.9 -21.5)"/></g></g><g clip-path="url(#T)"><g transform="translate(1173 43.05)"><use xlink:href="#l" width="14.7" height="4.3" transform="matrix(-.6122 0 0 .6122 4.15 -1.4)"/><use xlink:href="#m" width="11.2" height="6.4" transform="matrix(.3372 -.5073 .4865 .533 7.2 -10.3)"/><use xlink:href="#n" width="9.7" height="11.1" transform="matrix(-.1881 .6999 .6628 .2456 5.3 -16.75)"/><use xlink:href="#o" width="23.3" height="20.8" transform="rotate(-8.557 -252.251 16.413)scale(.9987)"/><use xlink:href="#p" width="6.4" height="5.6" transform="rotate(-16.82 -75.18 38.652)scale(.9981)"/><use xlink:href="#q" width="21.4" height="27.5" transform="rotate(.762 2359.018 -808.835)scale(.9999)"/><use xlink:href="#r" width="16.7" height="12.7" transform="matrix(.6588 -.058 .1058 1.0049 -15.9 -16.65)"/><use xlink:href="#s" width="10.3" height="8" transform="matrix(-.1897 -.5741 -.5429 .1952 -4.5 -3)"/><use xlink:href="#n" width="9.7" height="11.1" transform="matrix(-.3238 -.7519 -.7148 .1427 1.9 -3)"/><use xlink:href="#t" width="7" height="6" transform="matrix(.8751 -.3198 .1155 1.0068 2.7 -20.25)"/><use xlink:href="#u" width="6.2" height="5" transform="matrix(.952 .1303 -.3134 .9608 8.25 -20.5)"/></g></g><g clip-path="url(#U)"><g transform="translate(1219 43.05)"><use xlink:href="#l" width="14.7" height="4.3" transform="matrix(-.6122 0 0 .6122 4.15 -1.4)"/><use xlink:href="#m" width="11.2" height="6.4" transform="matrix(.4314 -.43 .4094 .5878 6.55 -9.15)"/><use xlink:href="#n" width="9.7" height="11.1" transform="matrix(-.3048 .6675 .6016 .3553 6 -15.9)"/><use xlink:href="#o" width="23.3" height="20.8" transform="rotate(-6.283 -340.207 21.537)scale(.9988)"/><use xlink:href="#p" width="6.4" height="5.6" transform="rotate(-12.534 -99.65 53.565)scale(.9985)"/><use xlink:href="#q" width="21.4" height="27.5" transform="rotate(1.524 1163.595 -406.401)scale(.9999)"/><use xlink:href="#r" width="16.7" height="12.7" transform="matrix(.6973 .0128 .0452 1.015 -16.25 -17.1)"/><use xlink:href="#s" width="10.3" height="8" transform="matrix(-.2496 -.5517 -.5049 .2442 -3.25 -2.85)"/><use xlink:href="#n" width="9.7" height="11.1" transform="matrix(-.4015 -.7149 -.6778 .2081 2.8 -3.45)"/><use xlink:href="#t" width="7" height="6" transform="matrix(.8728 -.251 .0001 1.012 2.7 -19.55)"/><use xlink:href="#u" width="6.2" height="5" transform="matrix(.9525 .1725 -.3419 .9495 7.45 -19.55)"/></g></g><g clip-path="url(#V)"><g transform="translate(1265 43.05)"><use xlink:href="#l" width="14.7" height="4.3" transform="matrix(-.6122 0 0 .6122 4.15 -1.4)"/><use xlink:href="#m" width="11.2" height="6.4" transform="matrix(.5074 -.3372 .3264 .6317 6.1 -8.05)"/><use xlink:href="#n" width="9.7" height="11.1" transform="matrix(-.4139 .617 .5243 .4496 6.95 -15.05)"/><use xlink:href="#o" width="23.3" height="20.8" transform="rotate(-4.008 -528.453 33.738)scale(.9987)"/><use xlink:href="#p" width="6.4" height="5.6" transform="rotate(-8.254 -148.11 83.347)scale(.9988)"/><use xlink:href="#q" width="21.4" height="27.5" transform="rotate(2.282 765.664 -273.962)scale(.9997)"/><use xlink:href="#r" width="16.7" height="12.7" transform="matrix(.7267 .0958 -.0095 1.0215 -16.35 -17.6)"/><use xlink:href="#s" width="10.3" height="8" transform="matrix(-.3086 -.5221 -.4627 .2875 -2.1 -2.65)"/><use xlink:href="#n" width="9.7" height="11.1" transform="matrix(-.4751 -.67 -.6342 .2696 3.75 -3.9)"/><use xlink:href="#t" width="7" height="6" transform="matrix(.8653 -.1841 -.1149 1.0033 2.65 -18.9)"/><use xlink:href="#u" width="6.2" height="5" transform="matrix(.9519 .2119 -.37 .9374 6.7 -18.65)"/></g></g><g clip-path="url(#W)"><g transform="translate(1311 43.05)"><use xlink:href="#l" width="14.7" height="4.3" transform="matrix(-.6122 0 0 .6122 4.15 -1.4)"/><use xlink:href="#m" width="11.2" height="6.4" transform="matrix(.5638 -.2315 .2391 .6641 5.6 -6.95)"/><use xlink:href="#n" width="9.7" height="11.1" transform="matrix(-.5164 .5469 .4328 .5281 7.85 -13.9)"/><use xlink:href="#o" width="23.3" height="20.8" transform="rotate(-1.543 -1358.233 87.523)scale(.9988)"/><use xlink:href="#p" width="6.4" height="5.6" transform="rotate(-3.793 -318.335 186.727)scale(.9992)"/><use xlink:href="#q" width="21.4" height="27.5" transform="rotate(3.045 564.897 -207.03)scale(.9996)"/><use xlink:href="#r" width="16.7" height="12.7" transform="matrix(.7464 .1832 -.0681 1.0244 -16.45 -18.3)"/><use xlink:href="#s" width="10.3" height="8" transform="matrix(-.3642 -.4863 -.4162 .3261 -.9 -2.65)"/><use xlink:href="#n" width="9.7" height="11.1" transform="matrix(-.5436 -.6175 -.5865 .3226 4.55 -4.2)"/><use xlink:href="#t" width="7" height="6" transform="matrix(.8531 -.1168 -.2313 .9808 2.65 -18.15)"/><use xlink:href="#u" width="6.2" height="5" transform="matrix(.9488 .2547 -.3946 .9257 6.1 -17.7)"/></g></g><g clip-path="url(#X)"><g transform="translate(1357 43.05)"><use xlink:href="#l" width="14.7" height="4.3" transform="matrix(-.6122 0 0 .6122 4.15 -1.4)"/><use xlink:href="#m" width="11.2" height="6.4" transform="matrix(.5985 -.1168 .149 .6846 5.25 -5.9)"/><use xlink:href="#n" width="9.7" height="11.1" transform="matrix(-.6057 .4618 .3282 .5899 8.7 -12.7)"/><use xlink:href="#o" width="23.3" height="20.8" transform="rotate(.54 3844.758 -230.573)scale(.9986)"/><use xlink:href="#p" width="6.4" height="5.6" transform="rotate(.292 4060.776 -2460.39)scale(.9996)"/><use xlink:href="#q" width="21.4" height="27.5" transform="rotate(3.809 444.603 -166.079)scale(.9996)"/><use xlink:href="#r" width="16.7" height="12.7" transform="matrix(.7553 .276 -.1304 1.0235 -16.35 -18.9)"/><use xlink:href="#s" width="10.3" height="8" transform="matrix(-.4142 -.4459 -.368 .3569 .05 -2.5)"/><use xlink:href="#n" width="9.7" height="11.1" transform="matrix(-.6065 -.558 -.5348 .3689 5.45 -4.7)"/><use xlink:href="#t" width="7" height="6" transform="matrix(.8357 -.0551 -.341 .946 2.6 -17.45)"/><use xlink:href="#u" width="6.2" height="5" transform="matrix(.9447 .2944 -.4219 .912 5.35 -16.75)"/></g></g><g clip-path="url(#Y)"><g transform="translate(1403 43.05)"><use xlink:href="#l" width="14.7" height="4.3" transform="matrix(-.6122 0 0 .6122 4.15 -1.4)"/><use xlink:href="#m" width="11.2" height="6.4" transform="matrix(.6102 .0014 .0583 .6933 5 -4.7)"/><use xlink:href="#n" width="9.7" height="11.1" transform="matrix(-.6826 .3611 .2187 .6313 9.35 -11.35)"/><use xlink:href="#o" width="23.3" height="20.8" transform="rotate(3.002 683.444 -39.867)scale(.9986)"/><use xlink:href="#p" width="6.4" height="5.6" transform="rotate(4.768 245.634 -153.994)scale(.9998)"/><use xlink:href="#q" width="21.4" height="27.5" transform="rotate(4.768 349.945 -133.674)scale(.9998)"/><use xlink:href="#r" width="16.7" height="12.7" transform="matrix(.7523 .3757 -.1911 1.0198 -16.15 -19.65)"/><use xlink:href="#s" width="10.3" height="8" transform="matrix(-.4618 -.3996 -.3183 .3824 1.2 -2.3)"/><use xlink:href="#n" width="9.7" height="11.1" transform="matrix(-.6638 -.4931 -.4801 .4094 6.2 -5.15)"/><use xlink:href="#t" width="7" height="6" transform="matrix(.8139 .004 -.45 .8984 2.6 -16.7)"/><use xlink:href="#u" width="6.2" height="5" transform="matrix(.9387 .3381 -.45 .8984 4.65 -15.75)"/></g></g><g clip-path="url(#Z)"><g transform="translate(1449 43.05)"><use xlink:href="#l" width="14.7" height="4.3" transform="matrix(-.6122 0 0 .6122 4.15 -1.4)"/><use xlink:href="#m" width="11.2" height="6.4" transform="matrix(.6101 .0004 .0124 .7009 3.5 -4.7)"/><use xlink:href="#n" width="9.7" height="11.1" transform="matrix(-.7099 .2771 .1385 .6647 8.7 -10.85)"/><use xlink:href="#o" width="23.3" height="20.8" transform="rotate(2.055 990.5 -59.6)scale(.9985)"/><use xlink:href="#p" width="6.4" height="5.6" transform="rotate(3.803 311.017 -168.634)scale(.9996)"/><use xlink:href="#q" width="21.4" height="27.5" transform="rotate(3.803 435.465 -166.734)scale(.9996)"/><use xlink:href="#r" width="16.7" height="12.7" transform="matrix(.7858 .335 -.1756 1.0153 -16.55 -19)"/><use xlink:href="#s" width="10.3" height="8" transform="matrix(-.4517 -.4087 -.3358 .3677 1.65 -2.45)"/><use xlink:href="#n" width="9.7" height="11.1" transform="matrix(-.6524 -.5072 -.5007 .3889 6.7 -5.05)"/><use xlink:href="#t" width="7" height="6" transform="matrix(.7998 .0635 -.5424 .8735 2.85 -16.55)"/><use xlink:href="#u" width="6.2" height="5" transform="matrix(.883 .4127 -.5424 .8735 4.7 -15.55)"/></g></g><g clip-path="url(#aa)"><g transform="translate(1495 43.05)"><use xlink:href="#l" width="14.7" height="4.3" transform="matrix(-.6122 0 0 .6122 4.15 -1.4)"/><use xlink:href="#m" width="11.2" height="6.4" transform="matrix(.61 .0004 -.0314 .7056 1.95 -4.5)"/><use xlink:href="#n" width="9.7" height="11.1" transform="matrix(-.7272 .1951 .0518 .6886 8 -10.35)"/><use xlink:href="#o" width="23.3" height="20.8" transform="rotate(1.291 1570.008 -93.137)scale(.9986)"/><use xlink:href="#p" width="6.4" height="5.6" transform="rotate(3.045 393.32 -181.762)scale(.9996)"/><use xlink:href="#q" width="21.4" height="27.5" transform="rotate(3.045 537.62 -206.305)scale(.9996)"/><use xlink:href="#r" width="16.7" height="12.7" transform="matrix(.8173 .2946 -.1651 1.0103 -17 -18.35)"/><use xlink:href="#s" width="10.3" height="8" transform="matrix(-.4408 -.4197 -.3539 .3521 2.1 -2.6)"/><use xlink:href="#n" width="9.7" height="11.1" transform="matrix(-.6398 -.5242 -.522 .3669 7.35 -5.1)"/><use xlink:href="#t" width="7" height="6" transform="matrix(.781 .1239 -.6354 .8396 3.05 -16.35)"/><use xlink:href="#u" width="6.2" height="5" transform="matrix(.8224 .4809 -.6354 .8396 4.6 -15.2)"/></g></g><g clip-path="url(#ab)"><g transform="translate(1541 43.05)"><use xlink:href="#l" width="14.7" height="4.3" transform="matrix(-.6122 0 0 .6122 4.15 -1.4)"/><use xlink:href="#m" width="11.2" height="6.4" transform="matrix(.6099 .0004 -.0781 .7072 .45 -4.4)"/><use xlink:href="#n" width="9.7" height="11.1" transform="matrix(-.7357 .1103 -.0341 .7011 7.3 -9.7)"/><use xlink:href="#o" width="23.3" height="20.8" transform="rotate(.528 3814.434 -223.812)scale(.9986)"/><use xlink:href="#p" width="6.4" height="5.6" transform="rotate(2.282 528.463 -202.676)scale(.9997)"/><use xlink:href="#q" width="21.4" height="27.5" transform="rotate(2.282 711.657 -274.142)scale(.9997)"/><use xlink:href="#r" width="16.7" height="12.7" transform="matrix(.8466 .2517 -.1514 1.0058 -17.35 -17.7)"/><use xlink:href="#s" width="10.3" height="8" transform="matrix(-.431 -.429 -.3713 .3355 2.45 -2.75)"/><use xlink:href="#n" width="9.7" height="11.1" transform="matrix(-.6286 -.5388 -.5412 .3456 8 -4.9)"/><use xlink:href="#t" width="7" height="6" transform="matrix(.7583 .1793 -.7294 .7935 3.2 -16.1)"/><use xlink:href="#u" width="6.2" height="5" transform="matrix(.757 .5416 -.7294 .7935 4.7 -14.95)"/></g></g><g clip-path="url(#ac)"><g transform="translate(1587 43.05)"><use xlink:href="#l" width="14.7" height="4.3" transform="matrix(-.6122 0 0 .6122 4.15 -1.4)"/><use xlink:href="#m" width="11.2" height="6.4" transform="matrix(.6098 .0004 -.1251 .7057 -1.05 -4.3)"/><use xlink:href="#n" width="9.7" height="11.1" transform="matrix(-.7344 .0262 -.1245 .702 6.4 -9.15)"/><use xlink:href="#o" width="23.3" height="20.8" transform="matrix(.9987 -.0007 .0007 .9987 -2.15 -35)"/><use xlink:href="#p" width="6.4" height="5.6" transform="rotate(1.524 797.343 -247.416)scale(.9999)"/><use xlink:href="#q" width="21.4" height="27.5" transform="rotate(1.524 1054.508 -412.468)scale(.9999)"/><use xlink:href="#r" width="16.7" height="12.7" transform="matrix(.8737 .2064 -.141 1.0006 -17.75 -17)"/><use xlink:href="#s" width="10.3" height="8" transform="matrix(-.421 -.4381 -.388 .3181 2.9 -2.85)"/><use xlink:href="#n" width="9.7" height="11.1" transform="matrix(-.617 -.5531 -.5606 .3215 8.55 -4.85)"/><use xlink:href="#t" width="7" height="6" transform="matrix(.7309 .2344 -.8177 .7397 3.35 -16)"/><use xlink:href="#u" width="6.2" height="5" transform="matrix(.6875 .5945 -.8177 .7397 4.7 -14.6)"/></g></g><g clip-path="url(#ad)"><g transform="translate(1633 43.05)"><use xlink:href="#l" width="14.7" height="4.3" transform="matrix(-.6122 0 0 .6122 4.15 -1.4)"/><use xlink:href="#m" width="11.2" height="6.4" transform="matrix(.6097 .0004 -.1723 .701 -2.55 -4.2)"/><use xlink:href="#n" width="9.7" height="11.1" transform="matrix(-.7235 -.0538 -.2181 .6904 5.55 -8.5)"/><use xlink:href="#o" width="23.3" height="20.8" transform="rotate(-.803 -2479.965 150.255)scale(.9987)"/><use xlink:href="#p" width="6.4" height="5.6" transform="rotate(.762 1606.372 -371.546)scale(.9999)"/><use xlink:href="#q" width="21.4" height="27.5" transform="rotate(.762 2092.043 -822.095)scale(.9999)"/><use xlink:href="#r" width="16.7" height="12.7" transform="matrix(.8984 .1589 -.1276 .9958 -18.05 -16.3)"/><use xlink:href="#s" width="10.3" height="8" transform="matrix(-.4093 -.4483 -.4038 .2998 3.4 -2.95)"/><use xlink:href="#n" width="9.7" height="11.1" transform="matrix(-.6051 -.5672 -.578 .2982 9.1 -4.75)"/><use xlink:href="#t" width="7" height="6" transform="matrix(.7007 .2841 -.9023 .6763 3.55 -15.7)"/><use xlink:href="#u" width="6.2" height="5" transform="matrix(.6149 .6395 -.9023 .6763 4.7 -14.2)"/></g></g><g clip-path="url(#ae)"><g transform="translate(1679 43.05)"><use xlink:href="#l" width="14.7" height="4.3" transform="matrix(-.6122 0 0 .6122 4.15 -1.4)"/><use xlink:href="#m" width="11.2" height="6.4" transform="matrix(.6096 .0014 -.2212 .6933 -4.1 -4)"/><use xlink:href="#n" width="9.7" height="11.1" transform="matrix(-.7039 -.1329 -.3097 .6676 4.6 -7.85)"/><use xlink:href="#o" width="23.3" height="20.8" transform="rotate(-1.767 -1119.954 70.293)scale(.9989)"/><use xlink:href="#p" width="6.4" height="5.6" transform="translate(-3.4 -21.5)"/><use xlink:href="#q" width="21.4" height="27.5" transform="translate(-10.9 -27.5)"/><use xlink:href="#r" width="16.7" height="12.7" transform="matrix(.9207 .1099 -.1182 .9907 -18.3 -15.5)"/><use xlink:href="#s" width="10.3" height="8" transform="matrix(-.3999 -.4573 -.4192 .2816 3.85 -3.1)"/><use xlink:href="#n" width="9.7" height="11.1" transform="matrix(-.5924 -.5836 -.5958 .2729 9.65 -4.7)"/><use xlink:href="#t" width="7" height="6" transform="matrix(.6668 .3335 -.9832 .6048 3.7 -15.45)"/><use xlink:href="#u" width="6.2" height="5" transform="matrix(.5414 .6769 -.9832 .6048 4.65 -13.75)"/></g></g><g clip-path="url(#af)"><g transform="translate(1725 43.05)"><use xlink:href="#l" width="14.7" height="4.3" transform="matrix(-.6122 0 0 .6122 4.15 -1.4)"/><use xlink:href="#m" width="11.2" height="6.4" transform="matrix(.591 .1479 -.3807 .619 -4.25 -4.9)"/><use xlink:href="#n" width="9.7" height="11.1" transform="matrix(-.6994 -.1524 -.3286 .6573 4.1 -8.2)"/><use xlink:href="#o" width="23.3" height="20.8" transform="rotate(-2.755 -727.235 47.01)scale(.9987)"/><use xlink:href="#p" width="6.4" height="5.6" transform="translate(-3.8 -22.05)"/><use xlink:href="#q" width="21.4" height="27.5" transform="translate(-10.85 -28)"/><use xlink:href="#r" width="16.7" height="12.7" transform="matrix(.9422 .0619 -.0398 .9999 -18.85 -15.4)"/><use xlink:href="#s" width="10.3" height="8" transform="matrix(-.4862 -.3612 -.3417 .3716 5.35 -4.35)"/><use xlink:href="#n" width="9.7" height="11.1" transform="matrix(-.6993 -.4428 -.5134 .4026 10.4 -6.15)"/><use xlink:href="#t" width="7" height="6" transform="matrix(.6375 .4276 -1.0174 .5083 3.65 -16.15)"/><use xlink:href="#u" width="6.2" height="5" transform="matrix(.4998 .7182 -1.0103 .5217 4.25 -14.35)"/></g></g><g clip-path="url(#ag)"><g transform="translate(1771 43.05)"><use xlink:href="#l" width="14.7" height="4.3" transform="matrix(-.6122 0 0 .6122 4.15 -1.4)"/><use xlink:href="#m" width="11.2" height="6.4" transform="matrix(.5373 .2867 -.5195 .5081 -4.3 -5.65)"/><use xlink:href="#n" width="9.7" height="11.1" transform="matrix(-.6943 -.1734 -.3483 .6469 3.55 -8.45)"/><use xlink:href="#o" width="23.3" height="20.8" transform="rotate(-3.761 -538.534 34.914)scale(.9986)"/><use xlink:href="#p" width="6.4" height="5.6" transform="translate(-4.2 -22.6)"/><use xlink:href="#q" width="21.4" height="27.5" transform="translate(-10.85 -28.45)"/><use xlink:href="#r" width="16.7" height="12.7" transform="matrix(.9614 .0127 .0353 1.0033 -19.45 -15.15)"/><use xlink:href="#s" width="10.3" height="8" transform="matrix(-.5504 -.2514 -.2439 .4428 6.65 -5.6)"/><use xlink:href="#n" width="9.7" height="11.1" transform="matrix(-.7743 -.286 -.4036 .5103 10.8 -7.45)"/><use xlink:href="#t" width="7" height="6" transform="matrix(.5936 .5222 -1.0451 .4082 3.75 -16.9)"/><use xlink:href="#u" width="6.2" height="5" transform="matrix(.4565 .7579 -1.0321 .4391 3.7 -15)"/></g></g><g clip-path="url(#ah)"><g transform="translate(1817 43.05)"><use xlink:href="#l" width="14.7" height="4.3" transform="matrix(-.6122 0 0 .6122 4.15 -1.4)"/><use xlink:href="#m" width="11.2" height="6.4" transform="matrix(.4516 .4085 -.6274 .367 -4.4 -6.25)"/><use xlink:href="#n" width="9.7" height="11.1" transform="matrix(-.6893 -.1921 -.3657 .6371 3.05 -8.8)"/><use xlink:href="#o" width="23.3" height="20.8" transform="rotate(-4.762 -429.368 27.918)scale(.9985)"/><use xlink:href="#p" width="6.4" height="5.6" transform="translate(-4.6 -23.2)"/><use xlink:href="#q" width="21.4" height="27.5" transform="translate(-10.8 -28.95)"/><use xlink:href="#r" width="16.7" height="12.7" transform="matrix(.9778 -.0384 .1107 1.0007 -19.95 -14.85)"/><use xlink:href="#s" width="10.3" height="8" transform="matrix(-.5908 -.1288 -.1336 .4885 7.7 -6.65)"/><use xlink:href="#n" width="9.7" height="11.1" transform="matrix(-.8152 -.115 -.2722 .5892 11 -8.95)"/><use xlink:href="#t" width="7" height="6" transform="matrix(.5377 .6108 -1.0622 .3109 3.75 -17.55)"/><use xlink:href="#u" width="6.2" height="5" transform="matrix(.4074 .7963 -1.0472 .3563 3.3 -15.5)"/></g></g><g clip-path="url(#ai)"><g transform="translate(1863 43.05)"><use xlink:href="#l" width="14.7" height="4.3" transform="matrix(-.6122 0 0 .6122 4.15 -1.4)"/><use xlink:href="#m" width="11.2" height="6.4" transform="matrix(.339 .506 -.6981 .2041 -4.4 -6.6)"/><use xlink:href="#n" width="9.7" height="11.1" transform="matrix(-.683 -.2129 -.3848 .6255 2.5 -9.15)"/><use xlink:href="#o" width="23.3" height="20.8" transform="rotate(-5.765 -359.56 23.704)scale(.9985)"/><use xlink:href="#p" width="6.4" height="5.6" transform="translate(-5.05 -23.75)"/><use xlink:href="#q" width="21.4" height="27.5" transform="translate(-10.8 -29.45)"/><use xlink:href="#r" width="16.7" height="12.7" transform="matrix(.9914 -.0912 .1892 .9918 -20.45 -14.5)"/><use xlink:href="#s" width="10.3" height="8" transform="matrix(-.6042 -.0006 -.0157 .5072 8.65 -7.8)"/><use xlink:href="#n" width="9.7" height="11.1" transform="matrix(-.8188 .0574 -.1244 .6356 10.9 -10.3)"/><use xlink:href="#t" width="7" height="6" transform="matrix(.4665 .695 -1.0704 .2137 3.65 -18.35)"/><use xlink:href="#u" width="6.2" height="5" transform="matrix(.3579 .8303 -1.0558 .2736 2.85 -16.05)"/></g></g><g clip-path="url(#aj)"><g transform="translate(1909 43.05)"><use xlink:href="#l" width="14.7" height="4.3" transform="matrix(-.6122 0 0 .6122 4.15 -1.4)"/><use xlink:href="#m" width="11.2" height="6.4" transform="matrix(.2062 .5735 -.7274 .0291 -4.55 -6.95)"/><use xlink:href="#n" width="9.7" height="11.1" transform="matrix(-.6761 -.2335 -.4035 .6134 1.85 -9.4)"/><use xlink:href="#o" width="23.3" height="20.8" transform="rotate(-6.765 -308.969 20.79)scale(.9984)"/><use xlink:href="#p" width="6.4" height="5.6" transform="translate(-5.45 -24.3)"/><use xlink:href="#q" width="21.4" height="27.5" transform="translate(-10.75 -29.9)"/><use xlink:href="#r" width="16.7" height="12.7" transform="matrix(1.002 -.1455 .267 .9767 -20.85 -14.05)"/><use xlink:href="#s" width="10.3" height="8" transform="matrix(-.5903 .1233 .1018 .4975 9.55 -8.7)"/><use xlink:href="#n" width="9.7" height="11.1" transform="matrix(-.7858 .2263 .0255 .6457 10.6 -11.55)"/><use xlink:href="#t" width="7" height="6" transform="matrix(.3849 .7694 -1.0699 .1176 3.85 -18.9)"/><use xlink:href="#u" width="6.2" height="5" transform="matrix(.3058 .8613 -1.058 .1917 2.25 -16.65)"/></g></g><g clip-path="url(#ak)"><g transform="translate(1955 43.05)"><use xlink:href="#l" width="14.7" height="4.3" transform="matrix(-.6122 0 0 .6122 4.15 -1.4)"/><use xlink:href="#m" width="11.2" height="6.4" transform="matrix(.0613 .6071 -.7133 -.146 -4.8 -7.1)"/><use xlink:href="#n" width="9.7" height="11.1" transform="matrix(-.6692 -.2543 -.4226 .6017 1.3 -9.7)"/><use xlink:href="#o" width="23.3" height="20.8" transform="rotate(-7.809 -270.63 18.33)scale(.9988)"/><use xlink:href="#p" width="6.4" height="5.6" transform="translate(-5.85 -24.85)"/><use xlink:href="#q" width="21.4" height="27.5" transform="translate(-10.75 -30.4)"/><use xlink:href="#r" width="16.7" height="12.7" transform="matrix(1.0101 -.2021 .3442 .9565 -21.25 -13.65)"/><use xlink:href="#s" width="10.3" height="8" transform="matrix(-.5503 .2456 .2175 .4599 10.2 -9.5)"/><use xlink:href="#n" width="9.7" height="11.1" transform="matrix(-.7179 .3873 .1757 .6201 10.1 -12.7)"/><use xlink:href="#t" width="7" height="6" transform="matrix(.2922 .835 -1.0609 .0238 3.85 -19.6)"/><use xlink:href="#u" width="6.2" height="5" transform="matrix(.2517 .8896 -1.0543 .1118 1.75 -17.15)"/></g></g></svg>