<svg xmlns="http://www.w3.org/2000/svg" xmlns:xlink="http://www.w3.org/1999/xlink" width="3738" height="71" viewBox="0 0 3738 71"><defs><clipPath id="b"><path d="M1 1h36v69H1z"/></clipPath><clipPath id="i"><path d="M38 1h36v69H38z"/></clipPath><clipPath id="j"><path d="M75 1h36v69H75z"/></clipPath><clipPath id="k"><path d="M112 1h36v69h-36z"/></clipPath><clipPath id="l"><path d="M149 1h36v69h-36z"/></clipPath><clipPath id="m"><path d="M186 1h36v69h-36z"/></clipPath><clipPath id="n"><path d="M223 1h36v69h-36z"/></clipPath><clipPath id="o"><path d="M260 1h36v69h-36z"/></clipPath><clipPath id="p"><path d="M297 1h36v69h-36z"/></clipPath><clipPath id="q"><path d="M334 1h36v69h-36z"/></clipPath><clipPath id="r"><path d="M371 1h36v69h-36z"/></clipPath><clipPath id="s"><path d="M408 1h36v69h-36z"/></clipPath><clipPath id="t"><path d="M445 1h36v69h-36z"/></clipPath><clipPath id="u"><path d="M482 1h36v69h-36z"/></clipPath><clipPath id="v"><path d="M519 1h36v69h-36z"/></clipPath><clipPath id="w"><path d="M556 1h36v69h-36z"/></clipPath><clipPath id="x"><path d="M593 1h36v69h-36z"/></clipPath><clipPath id="y"><path d="M630 1h36v69h-36z"/></clipPath><clipPath id="z"><path d="M667 1h36v69h-36z"/></clipPath><clipPath id="A"><path d="M704 1h36v69h-36z"/></clipPath><clipPath id="B"><path d="M741 1h36v69h-36z"/></clipPath><clipPath id="C"><path d="M778 1h36v69h-36z"/></clipPath><clipPath id="E"><path d="M815 1h36v69h-36z"/></clipPath><clipPath id="F"><path d="M852 1h36v69h-36z"/></clipPath><clipPath id="G"><path d="M889 1h36v69h-36z"/></clipPath><clipPath id="I"><path d="M926 1h36v69h-36z"/></clipPath><clipPath id="J"><path d="M963 1h36v69h-36z"/></clipPath><clipPath id="K"><path d="M1000 1h36v69h-36z"/></clipPath><clipPath id="M"><path d="M1037 1h36v69h-36z"/></clipPath><clipPath id="N"><path d="M1074 1h36v69h-36z"/></clipPath><clipPath id="O"><path d="M1111 1h36v69h-36z"/></clipPath><clipPath id="P"><path d="M1148 1h36v69h-36z"/></clipPath><clipPath id="Q"><path d="M1185 1h36v69h-36z"/></clipPath><clipPath id="R"><path d="M1222 1h36v69h-36z"/></clipPath><clipPath id="S"><path d="M1259 1h36v69h-36z"/></clipPath><clipPath id="T"><path d="M1296 1h36v69h-36z"/></clipPath><clipPath id="U"><path d="M1333 1h36v69h-36z"/></clipPath><clipPath id="V"><path d="M1370 1h36v69h-36z"/></clipPath><clipPath id="W"><path d="M1407 1h36v69h-36z"/></clipPath><clipPath id="X"><path d="M1444 1h36v69h-36z"/></clipPath><clipPath id="Y"><path d="M1481 1h36v69h-36z"/></clipPath><clipPath id="Z"><path d="M1518 1h36v69h-36z"/></clipPath><clipPath id="ac"><path d="M1555 1h36v69h-36z"/></clipPath><clipPath id="ad"><path d="M1592 1h36v69h-36z"/></clipPath><clipPath id="ae"><path d="M1629 1h36v69h-36z"/></clipPath><clipPath id="af"><path d="M1666 1h36v69h-36z"/></clipPath><clipPath id="ag"><path d="M1703 1h36v69h-36z"/></clipPath><clipPath id="ah"><path d="M1740 1h36v69h-36z"/></clipPath><clipPath id="aj"><path d="M1777 1h36v69h-36z"/></clipPath><clipPath id="ak"><path d="M1814 1h36v69h-36z"/></clipPath><clipPath id="al"><path d="M1851 1h36v69h-36z"/></clipPath><clipPath id="am"><path d="M1888 1h36v69h-36z"/></clipPath><clipPath id="ao"><path d="M1925 1h36v69h-36z"/></clipPath><clipPath id="ap"><path d="M1962 1h36v69h-36z"/></clipPath><clipPath id="aq"><path d="M1999 1h36v69h-36z"/></clipPath><clipPath id="ar"><path d="M2036 1h36v69h-36z"/></clipPath><clipPath id="as"><path d="M2073 1h36v69h-36z"/></clipPath><clipPath id="at"><path d="M2110 1h36v69h-36z"/></clipPath><clipPath id="au"><path d="M2147 1h36v69h-36z"/></clipPath><clipPath id="av"><path d="M2184 1h36v69h-36z"/></clipPath><clipPath id="aw"><path d="M2221 1h36v69h-36z"/></clipPath><clipPath id="ax"><path d="M2258 1h36v69h-36z"/></clipPath><clipPath id="ay"><path d="M2295 1h36v69h-36z"/></clipPath><clipPath id="az"><path d="M2332 1h36v69h-36z"/></clipPath><clipPath id="aA"><path d="M2369 1h36v69h-36z"/></clipPath><clipPath id="aB"><path d="M2406 1h36v69h-36z"/></clipPath><clipPath id="aC"><path d="M2443 1h36v69h-36z"/></clipPath><clipPath id="aD"><path d="M2480 1h36v69h-36z"/></clipPath><clipPath id="aE"><path d="M2517 1h36v69h-36z"/></clipPath><clipPath id="aF"><path d="M2554 1h36v69h-36z"/></clipPath><clipPath id="aG"><path d="M2591 1h36v69h-36z"/></clipPath><clipPath id="aH"><path d="M2628 1h36v69h-36z"/></clipPath><clipPath id="aI"><path d="M2665 1h36v69h-36z"/></clipPath><clipPath id="aJ"><path d="M2702 1h36v69h-36z"/></clipPath><clipPath id="aK"><path d="M2739 1h36v69h-36z"/></clipPath><clipPath id="aL"><path d="M2776 1h36v69h-36z"/></clipPath><clipPath id="aM"><path d="M2813 1h36v69h-36z"/></clipPath><clipPath id="aN"><path d="M2850 1h36v69h-36z"/></clipPath><clipPath id="aO"><path d="M2887 1h36v69h-36z"/></clipPath><clipPath id="aP"><path d="M2924 1h36v69h-36z"/></clipPath><clipPath id="aQ"><path d="M2961 1h36v69h-36z"/></clipPath><clipPath id="aR"><path d="M2998 1h36v69h-36z"/></clipPath><clipPath id="aS"><path d="M3035 1h36v69h-36z"/></clipPath><clipPath id="aT"><path d="M3072 1h36v69h-36z"/></clipPath><clipPath id="aU"><path d="M3109 1h36v69h-36z"/></clipPath><clipPath id="aV"><path d="M3146 1h36v69h-36z"/></clipPath><clipPath id="aW"><path d="M3183 1h36v69h-36z"/></clipPath><clipPath id="aX"><path d="M3220 1h36v69h-36z"/></clipPath><clipPath id="aY"><path d="M3257 1h36v69h-36z"/></clipPath><clipPath id="aZ"><path d="M3294 1h36v69h-36z"/></clipPath><clipPath id="ba"><path d="M3331 1h36v69h-36z"/></clipPath><clipPath id="bb"><path d="M3368 1h36v69h-36z"/></clipPath><clipPath id="bc"><path d="M3405 1h36v69h-36z"/></clipPath><clipPath id="bd"><path d="M3442 1h36v69h-36z"/></clipPath><clipPath id="be"><path d="M3479 1h36v69h-36z"/></clipPath><clipPath id="bf"><path d="M3516 1h36v69h-36z"/></clipPath><clipPath id="bg"><path d="M3553 1h36v69h-36z"/></clipPath><clipPath id="bh"><path d="M3590 1h36v69h-36z"/></clipPath><clipPath id="bi"><path d="M3627 1h36v69h-36z"/></clipPath><clipPath id="bj"><path d="M3664 1h36v69h-36z"/></clipPath><clipPath id="bk"><path d="M3701 1h36v69h-36z"/></clipPath><g id="an"><path fill="#c2bda3" d="M1.7.2h.2l2 .8L5 2q.3.4-.2.5H3.3l.2-.2q.3-.2 0-.8L2.3.6z"/><path fill="#fffdf9" d="m3.4 2.5-2-.8L.2.8Q-.1.3.3.2h1.4l.7.4 1 1q.4.5.2.8z"/><path fill="none" stroke="#867b59" stroke-linecap="round" stroke-linejoin="round" stroke-width="__RESOLUTION__" d="M1.7.2h.2l2 .8L5 2q.3.4-.2.5H3.3l-1.9-.8L.2.8Q-.1.3.3.2z" vector-effect="non-scaling-stroke"/></g><g id="ai"><path fill="#fffdf9" d="m.7 1.3 1.2-1L3 .2q.5.2.5.9L3 2.3l-.5.2-1.2-.1Q.8 2 .7 1.6z"/><path fill="#c2bda3" d="M.7 1.3v.2q.1.6.6.9h1.1l.5-.1v.1q-.6.7-1.2 1l-1.2.1Q0 3.3.2 2.7q0-.8.5-1.5z"/><path fill="none" stroke="#867b59" stroke-linecap="round" stroke-linejoin="round" stroke-width="__RESOLUTION__" d="M3 2.3q.4-.6.5-1.2T3 .2H1.9l-1.2 1h0Q.2 2 .2 2.8q-.2.5.3.8h1.2q.7-.4 1.2-1.1z" vector-effect="non-scaling-stroke"/></g><g id="ab"><path fill="#fffdf9" d="m2.5 3-.4-.2q-.6-.3-.9-1T1 .6V.3q.6-.3 1.3 0 .6.1.8.7t.1 1.3z"/><path fill="#c2bda3" d="M1 .3v.3q-.1.6.2 1.3t.9 1l.4.2h-.1l-1.2.1q-.6-.3-1-.9V1.2z"/><path fill="none" stroke="#867b59" stroke-linecap="round" stroke-linejoin="round" stroke-width="__RESOLUTION__" d="m2.5 3 .7-.8q.2-.6-.1-1.2-.2-.6-.8-.7Q1.6 0 1 .3h0l-.8.9v1.1q.3.6 1 .9l1.2-.1z" vector-effect="non-scaling-stroke"/></g><g id="aa"><path fill="#283f44" d="M0 7.4Q.3 5 1 3.3L2.6.5 3 0l-.2 3.1q1.1.3 1.8.9.9-1.6 2-2.7v6.1L5.5 9.8H4.4q-2.2 0-3-.8zm4.5 1.1-1-.3.4 1.2zM2 7.7l-1-.4.5 1.3zm1.4-1v-.6zM2 6.3v-.6z"/><path fill="#000" d="M6.7 1.3 7.2 4l.3 5q0 .8-.7 1.5l-.9.7-2.1-.2L1 9.9q-.8-.3-1-2.6L1.4 9q.7.8 3 .8h1.1l1.2-2.4z"/><path fill="#e6dbb7" d="m4.5 8.5-.6.9-.4-1.2zM2 7.7l-.5.9L1 7.3z"/><path fill="none" stroke="#000" stroke-linecap="round" stroke-linejoin="round" stroke-width="__RESOLUTION__" d="m3.5 6.2-.1.6M2.1 5.6l-.1.6" vector-effect="non-scaling-stroke"/></g><g id="L"><path fill="#142021" d="M.8 7.7Q0 6.5 0 5q0-2 1.3-3.3T4.6.5t3.3 1.3T9 5.1 7.9 8.3Q6.5 9.6 4.6 9.7h-.5l-.8-1V7.3l1.3-2.1-2.4 1.6.9-3.2-2.2 2z"/><path fill="#c00" d="M.8 7.7 1 5.6l2.2-2-.9 3.2 2.4-1.6-1.3 2v1.4l.9 1q-.5.8-1.5 1.1-1.1.3-1.5-1z"/><path fill="none" stroke="#939ea1" stroke-linecap="round" stroke-linejoin="round" stroke-width="__RESOLUTION__" d="M7.8 2.3q0-1.4-.7-2-.8-.5-1.8.3-1.1.6-1.8 2.1l-.7 1.7m.8-4-1.3 2Q1 4.6 1.2 6.7q-.2 2.1 1 2.9T5 9.3l.5-.4" vector-effect="non-scaling-stroke"/></g><g id="H"><path fill="#c00" d="m8.5 3.7-1.7-.6-1.6.9L4 6.4l.4-2.6-1.3 1 1.1-2.4-1.9 1 1.9-2.1L5.6 1q2.2.2 2.7 1.2t.2 1.5"/><path fill="#3e6266" d="m5.6 1-1.4.3-1.9 2.1 1.9-1-1.1 2.4 1.3-1L4 6.4 5.2 4l1.6-.8 1.7.5Q9 5 9 6.4q0 1.8-1.2 2.8-1.4 1.1-3.3.7-2-.4-3.3-2.1Q0 6.2 0 4.3t1.3-3T4.6.8z"/><path fill="none" stroke="#939ea1" stroke-linecap="round" stroke-linejoin="round" stroke-width="__RESOLUTION__" d="M8.4 2.7Q8.2 1 7.2.4L5.1.2M1.5 6.7l-.2 1.7q0 1.3.8 1.9l1.9-.1.3-.3" vector-effect="non-scaling-stroke"/></g><g id="D"><path fill="#fffdf9" d="m1.2.1.2.8.2 2.6L1.4 6l-.2.5q-.4 0-.8-1-.3-.9-.3-2.2t.3-2.2.7-1"/><path fill="#c2bda3" d="m1.2 6.5.2-.5.2-2.5L1.4.9 1.2 0q.5 0 .9 1l.2 2.2L2 5.6q-.3.9-.8.9"/><path fill="none" stroke="#867b59" stroke-linecap="round" stroke-linejoin="round" stroke-width="__RESOLUTION__" d="M1.2.1q-.5.1-.8 1T.1 3.4q0 1.2.3 2.2.3.9.8.9h0q.5 0 .9-1l.2-2.2L2 1.1q-.3-1-.7-1z" vector-effect="non-scaling-stroke"/></g><g id="h"><path fill="#ad0101" d="m.4 1.6-.2-.1-.2-.4L4.5 0l.4 1.7z"/><path fill="#e40101" d="m.3 1.5 3 1.3-1.2.5-2-1.4.4-.1z"/></g><g id="g"><path fill="#c2bda3" d="M3.3 1.6q0 .6-.5 1.1t-1.1.5-1.1-.5-.5-1.1l.3.1q.5.4 1.2.4T3 1.8z"/><path fill="#fffdf9" d="m3.3 1.6-.4.2q-.5.4-1.2.4-.8 0-1.3-.4l-.3-.1Q.1 1 .6.6T1.7 0q.7 0 1.1.5t.5 1"/><path fill="none" stroke="#867b59" stroke-linecap="round" stroke-linejoin="round" stroke-width="__RESOLUTION__" d="M.1 1.7q0 .6.5 1.1t1.1.5 1.1-.5.5-1.1v-.2q-.1-.6-.5-1T1.7.1.6.6q-.5.4-.5 1" vector-effect="non-scaling-stroke"/></g><g id="f"><path fill="#900" d="M4.4 5.2 4.2 4l.9-.3.9.1.8-1.1 1.5.3-.5 1 .1 1.6zM1.3.7.3.3 1.4 0z"/><path fill="#e40101" d="m8.3 3-1.5-.3L6 3.8l-.9-.1-.9.3.2 1.2L0 3.6.6 2 .3.3l1 .4 1.9 1.2 5.1.8z"/></g><g id="e"><path fill="#283f44" d="M.6 3.3 1.5.5 2 0l.4 3.1q1.1.3 2 .9l1.1-2.9L8 5.5q1 2 .5 3.9l-1.8 1-1.8.4-1.4-.4-1.6-2Q.8 7 .6 3.4m4.3 5.2"/><path fill="#000" d="M8.4 9.4q-.3 1.4-2 2t-4.1-.5T0 7.3q.1-2.2.6-4 .2 3.6 1.2 5.2l1.6 1.9 1.4.4 1.8-.4z"/></g><path id="a" fill="#382c16" d="M3.4-1.7q1.4.5 1.4 1.4T3.5 1.3t-3.2 1L-3 1.9Q-4.3 1.4-4.3.6-4.4-.4-3-1q1.3-.8 3.2-1z" transform="translate(4.35 2.05)"/><path id="d" fill="#000" d="M.2-1.8q1.4-.7 2.4.9T.7 1.5L-3.5 3H-6q-.7-.3 2-2.2T.2-1.8" transform="translate(6.15 2.05)"/><use xlink:href="#a" id="c" width="9.2" height="4.3"/></defs><g clip-path="url(#b)"><g transform="translate(11.3 65.6)"><use xlink:href="#c" width="9.2" height="4.3" transform="matrix(.6614 0 0 .7349 -3.7 -1.35)"/><use xlink:href="#d" width="8.9" height="5.3" transform="matrix(-.3575 -.0042 .005 -.4241 .15 -.55)"/><use xlink:href="#e" width="8.6" height="11.6" transform="translate(-4.35 -13.25)"/><use xlink:href="#f" width="8.3" height="5.6" transform="matrix(-1.2265 -.4883 .0513 .9946 4.8 -8.05)"/><use xlink:href="#g" width="3.4" height="3.4" transform="translate(-4.95 -4)"/><use xlink:href="#d" width="8.9" height="5.3" transform="matrix(-.247 .2635 .093 .4739 3.5 -2.4)"/><use xlink:href="#h" width="4.8" height="3.3" transform="rotate(122.328 1.628 -4.023)scale(.9973)"/></g></g><g clip-path="url(#i)"><g transform="translate(48.3 65.6)"><use xlink:href="#c" width="9.2" height="4.3" transform="matrix(.6614 0 0 .7349 -3.7 -1.35)"/><use xlink:href="#d" width="8.9" height="5.3" transform="matrix(-.3422 .1016 -.1205 -.406 -.05 -2.75)"/><use xlink:href="#e" width="8.6" height="11.6" transform="matrix(.9674 0 0 1.0873 -4.2 -15.35)"/><use xlink:href="#f" width="8.3" height="5.6" transform="matrix(-1.1866 -.531 .0497 1.0814 4.65 -9.65)"/><use xlink:href="#g" width="3.4" height="3.4" transform="translate(-4.95 -5.05)"/><use xlink:href="#d" width="8.9" height="5.3" transform="matrix(-.1598 .3234 .2252 .4265 2.45 -3.7)"/><use xlink:href="#h" width="4.8" height="3.3" transform="rotate(146.658 .475 -4.407)scale(.9956)"/></g></g><g clip-path="url(#j)"><g transform="translate(85.3 65.6)"><use xlink:href="#c" width="9.2" height="4.3" transform="matrix(.6614 0 0 .7349 -3.7 -1.35)"/><use xlink:href="#d" width="8.9" height="5.3" transform="matrix(-.303 .188 -.223 -.3595 -.3 -4.6)"/><use xlink:href="#e" width="8.6" height="11.6" transform="matrix(.9407 0 0 1.1587 -4.05 -17.05)"/><use xlink:href="#f" width="8.3" height="5.6" transform="matrix(-1.1538 -.5659 .0483 1.1525 4.55 -11.05)"/><use xlink:href="#g" width="3.4" height="3.4" transform="translate(-4.95 -6)"/><use xlink:href="#d" width="8.9" height="5.3" transform="matrix(-.0584 .3562 .34 .3418 1.5 -5)"/><use xlink:href="#h" width="4.8" height="3.3" transform="rotate(166.484 -.574 -4.783)scale(.996)"/></g></g><g clip-path="url(#k)"><g transform="translate(122.3 65.6)"><use xlink:href="#c" width="9.2" height="4.3" transform="matrix(.6614 0 0 .7349 -3.7 -1.35)"/><use xlink:href="#d" width="8.9" height="5.3" transform="matrix(-.2524 .2516 -.2985 -.2995 -.7 -6.25)"/><use xlink:href="#e" width="8.6" height="11.6" transform="matrix(.92 0 0 1.2143 -3.95 -18.35)"/><use xlink:href="#f" width="8.3" height="5.6" transform="matrix(-1.1284 -.593 .0472 1.2077 4.45 -12.05)"/><use xlink:href="#g" width="3.4" height="3.4" transform="translate(-4.95 -6.8)"/><use xlink:href="#d" width="8.9" height="5.3" transform="matrix(.0458 .3581 .4245 .2288 .5 -5.75)"/><use xlink:href="#h" width="4.8" height="3.3" transform="rotate(181.8 -1.481 -5.153)scale(.9966)"/></g></g><g clip-path="url(#l)"><g transform="translate(159.3 65.6)"><use xlink:href="#c" width="9.2" height="4.3" transform="matrix(.6614 0 0 .7349 -3.7 -1.35)"/><use xlink:href="#d" width="8.9" height="5.3" transform="matrix(-.1984 .296 -.3511 -.2354 -1.05 -7.55)"/><use xlink:href="#e" width="8.6" height="11.6" transform="matrix(.9052 0 0 1.254 -3.9 -19.3)"/><use xlink:href="#f" width="8.3" height="5.6" transform="matrix(-1.1102 -.6124 .0465 1.2472 4.4 -12.75)"/><use xlink:href="#g" width="3.4" height="3.4" transform="translate(-4.95 -7.45)"/><use xlink:href="#d" width="8.9" height="5.3" transform="matrix(.1472 .3293 .4729 .0964 -.25 -6.4)"/><use xlink:href="#h" width="4.8" height="3.3" transform="rotate(192.815 -2.132 -5.457)scale(.996)"/></g></g><g clip-path="url(#m)"><g transform="translate(196.3 65.6)"><use xlink:href="#c" width="9.2" height="4.3" transform="matrix(.6614 0 0 .7349 -3.7 -1.35)"/><use xlink:href="#d" width="8.9" height="5.3" transform="matrix(-.1483 .324 -.3844 -.1759 -1.5 -8.65)"/><use xlink:href="#e" width="8.6" height="11.6" transform="matrix(.8963 0 0 1.2778 -3.85 -19.85)"/><use xlink:href="#f" width="8.3" height="5.6" transform="matrix(-1.0993 -.624 .046 1.2709 4.35 -13.2)"/><use xlink:href="#g" width="3.4" height="3.4" transform="translate(-4.95 -8)"/><use xlink:href="#d" width="8.9" height="5.3" transform="matrix(.237 .2717 .4807 -.0443 -1.1 -7.05)"/><use xlink:href="#h" width="4.8" height="3.3" transform="rotate(199.547 -2.596 -5.654)scale(.9956)"/></g></g><g clip-path="url(#n)"><g transform="translate(233.3 65.6)"><use xlink:href="#c" width="9.2" height="4.3" transform="matrix(.6614 0 0 .7349 -3.7 -1.35)"/><use xlink:href="#d" width="8.9" height="5.3" transform="matrix(-.1074 .3397 -.4031 -.1275 -1.8 -9.45)"/><use xlink:href="#e" width="8.6" height="11.6" transform="matrix(.8933 0 0 1.2857 -3.85 -20.05)"/><use xlink:href="#f" width="8.3" height="5.6" transform="matrix(-1.0957 -.6279 .0459 1.2788 4.3 -13.35)"/><use xlink:href="#g" width="3.4" height="3.4" transform="translate(-4.95 -8.45)"/><use xlink:href="#d" width="8.9" height="5.3" transform="matrix(.3058 .1919 .4473 -.182 -1.55 -7.3)"/><use xlink:href="#h" width="4.8" height="3.3" transform="rotate(201.802 -2.73 -5.697)scale(.9965)"/></g></g><g clip-path="url(#o)"><g transform="translate(270.3 65.6)"><use xlink:href="#c" width="9.2" height="4.3" transform="matrix(.6614 0 0 .7349 -3.7 -1.35)"/><use xlink:href="#d" width="8.9" height="5.3" transform="rotate(102.527 2.966 -5.797)scale(.3564 .4228)"/><use xlink:href="#e" width="8.6" height="11.6" transform="matrix(.8933 0 0 1.2794 -3.85 -19.95)"/><use xlink:href="#f" width="8.3" height="5.6" transform="matrix(-1.0957 -.6248 .0459 1.2725 4.3 -13.25)"/><use xlink:href="#g" width="3.4" height="3.4" transform="translate(-4.95 -8.75)"/><use xlink:href="#d" width="8.9" height="5.3" transform="matrix(.2556 .2543 .4763 -.0781 -1.15 -7.05)"/><use xlink:href="#h" width="4.8" height="3.3" transform="matrix(-.9232 -.3785 .3776 -.921 -3.15 -11.85)"/></g></g><g clip-path="url(#p)"><g transform="translate(307.3 65.6)"><use xlink:href="#c" width="9.2" height="4.3" transform="matrix(.6614 0 0 .7349 -3.7 -1.35)"/><use xlink:href="#d" width="8.9" height="5.3" transform="matrix(-.0589 .3515 -.417 -.0699 -2.2 -10.2)"/><use xlink:href="#e" width="8.6" height="11.6" transform="matrix(.8933 0 0 1.2603 -3.85 -19.45)"/><use xlink:href="#f" width="8.3" height="5.6" transform="matrix(-1.0957 -.6155 .0459 1.2536 4.3 -12.9)"/><use xlink:href="#g" width="3.4" height="3.4" transform="translate(-4.95 -8.95)"/><use xlink:href="#d" width="8.9" height="5.3" transform="matrix(.1941 .3039 .4822 .0257 -.65 -6.85)"/><use xlink:href="#h" width="4.8" height="3.3" transform="matrix(-.9193 -.4056 .4017 -.9106 -3.25 -11.6)"/></g></g><g clip-path="url(#q)"><g transform="translate(344.3 65.6)"><use xlink:href="#c" width="9.2" height="4.3" transform="matrix(.6614 0 0 .7349 -3.7 -1.35)"/><use xlink:href="#d" width="8.9" height="5.3" transform="matrix(-.0527 .3526 -.4184 -.0625 -2.2 -10.4)"/><use xlink:href="#e" width="8.6" height="11.6" transform="matrix(.8933 0 0 1.2286 -3.85 -18.7)"/><use xlink:href="#f" width="8.3" height="5.6" transform="matrix(-1.0957 -.6 .0459 1.222 4.3 -12.35)"/><use xlink:href="#g" width="3.4" height="3.4" transform="translate(-4.95 -9)"/><use xlink:href="#d" width="8.9" height="5.3" transform="matrix(.1222 .3395 .4644 .1313 -.05 -6.5)"/><use xlink:href="#h" width="4.8" height="3.3" transform="matrix(-.9111 -.4507 .4413 -.8919 -3.35 -11.1)"/></g></g><g clip-path="url(#r)"><g transform="translate(381.3 65.6)"><use xlink:href="#c" width="9.2" height="4.3" transform="matrix(.6614 0 0 .7349 -3.7 -1.35)"/><use xlink:href="#d" width="8.9" height="5.3" transform="matrix(-.1469 .3246 -.3851 -.1743 -1.4 -8.9)"/><use xlink:href="#e" width="8.6" height="11.6" transform="matrix(.8933 0 0 1.1842 -3.85 -17.65)"/><use xlink:href="#f" width="8.3" height="5.6" transform="matrix(-1.0957 -.5783 .0459 1.1778 4.3 -11.5)"/><use xlink:href="#g" width="3.4" height="3.4" transform="translate(-5.35 -8.35)"/><use xlink:href="#d" width="8.9" height="5.3" transform="matrix(.0443 .3584 .4237 .2306 .7 -6.1)"/><use xlink:href="#h" width="4.8" height="3.3" transform="matrix(-.8958 -.5141 .4952 -.8628 -3.45 -10.4)"/></g></g><g clip-path="url(#s)"><g transform="translate(418.3 65.6)"><use xlink:href="#c" width="9.2" height="4.3" transform="matrix(.6614 0 0 .7349 -3.7 -1.35)"/><use xlink:href="#d" width="8.9" height="5.3" transform="matrix(-.2309 .2714 -.322 -.2739 -.85 -7.15)"/><use xlink:href="#e" width="8.6" height="11.6" transform="matrix(.8933 0 0 1.1271 -3.85 -16.25)"/><use xlink:href="#f" width="8.3" height="5.6" transform="matrix(-1.0957 -.5504 .0459 1.121 4.3 -10.4)"/><use xlink:href="#g" width="3.4" height="3.4" transform="translate(-5.7 -7.7)"/><use xlink:href="#d" width="8.9" height="5.3" transform="matrix(-.0334 .3596 .3633 .3173 1.35 -5.5)"/><use xlink:href="#h" width="4.8" height="3.3" transform="matrix(-.8678 -.5981 .5645 -.8189 -3.6 -9.5)"/></g></g><g clip-path="url(#t)"><g transform="translate(455.3 65.6)"><use xlink:href="#c" width="9.2" height="4.3" transform="matrix(.6614 0 0 .7349 -3.7 -1.35)"/><use xlink:href="#d" width="8.9" height="5.3" transform="matrix(-.2971 .1971 -.2339 -.3525 -.4 -5.35)"/><use xlink:href="#e" width="8.6" height="11.6" transform="matrix(.8933 0 0 1.0573 -3.85 -14.6)"/><use xlink:href="#f" width="8.3" height="5.6" transform="matrix(-1.0957 -.5163 .0459 1.0516 4.3 -9.15)"/><use xlink:href="#g" width="3.4" height="3.4" transform="translate(-6.1 -7.05)"/><use xlink:href="#d" width="8.9" height="5.3" transform="matrix(-.1118 .3432 .2842 .3898 2.2 -4.75)"/><use xlink:href="#h" width="4.8" height="3.3" transform="matrix(-.8256 -.6959 .6408 -.7603 -3.7 -8.45)"/></g></g><g clip-path="url(#u)"><g transform="translate(492.3 65.6)"><use xlink:href="#c" width="9.2" height="4.3" transform="matrix(.6614 0 0 .7349 -3.7 -1.35)"/><use xlink:href="#d" width="8.9" height="5.3" transform="matrix(-.3404 .1075 -.1275 -.4038 -.15 -3.55)"/><use xlink:href="#e" width="8.6" height="11.6" transform="matrix(.8933 0 0 .9749 -3.85 -12.6)"/><use xlink:href="#f" width="8.3" height="5.6" transform="matrix(-1.0957 -.4761 .0459 .9696 4.3 -7.55)"/><use xlink:href="#g" width="3.4" height="3.4" transform="translate(-6.5 -6.4)"/><use xlink:href="#d" width="8.9" height="5.3" transform="matrix(-.1848 .3099 .1911 .4431 3 -3.85)"/><use xlink:href="#h" width="4.8" height="3.3" transform="matrix(-.7591 -.8104 .7255 -.6796 -3.85 -7.2)"/></g></g><g clip-path="url(#v)"><g transform="translate(529.3 65.6)"><use xlink:href="#c" width="9.2" height="4.3" transform="matrix(.6614 0 0 .7349 -3.7 -1.35)"/><use xlink:href="#d" width="8.9" height="5.3" transform="matrix(-.3573 .0094 -.0111 -.4239 -.05 -1.8)"/><use xlink:href="#e" width="8.6" height="11.6" transform="matrix(.8933 0 0 .8797 -3.85 -10.3)"/><use xlink:href="#f" width="8.3" height="5.6" transform="matrix(-1.0957 -.4296 .0459 .875 4.3 -5.75)"/><use xlink:href="#g" width="3.4" height="3.4" transform="translate(-6.85 -5.75)"/><use xlink:href="#d" width="8.9" height="5.3" transform="matrix(-.2479 .2622 .0902 .4744 3.65 -2.85)"/><use xlink:href="#h" width="4.8" height="3.3" transform="matrix(-.6665 -.9321 .8085 -.5781 -4 -5.8)"/></g></g><g clip-path="url(#w)"><g transform="translate(566.3 65.6)"><use xlink:href="#c" width="9.2" height="4.3" transform="matrix(.6614 0 0 .7349 -3.7 -1.35)"/><use xlink:href="#d" width="8.9" height="5.3" transform="matrix(-.3463 -.0894 .1061 -.4108 -.15 -.05)"/><use xlink:href="#e" width="8.6" height="11.6" transform="matrix(.8933 0 0 .7719 -3.85 -7.75)"/><use xlink:href="#f" width="8.3" height="5.6" transform="matrix(-1.0957 -.3769 .0459 .7677 4.3 -3.75)"/><use xlink:href="#g" width="3.4" height="3.4" transform="translate(-4.95 -4)"/><use xlink:href="#d" width="8.9" height="5.3" transform="matrix(-.3001 .2013 -.016 .483 4.35 -1.75)"/><use xlink:href="#h" width="4.8" height="3.3" transform="matrix(-.536 -1.0599 .8881 -.4491 -4.1 -4.3)"/></g></g><g clip-path="url(#x)"><g transform="translate(603.3 65.6)"><use xlink:href="#c" width="9.2" height="4.3" transform="matrix(.6614 0 0 .7349 -3.7 -1.35)"/><use xlink:href="#d" width="8.9" height="5.3" transform="matrix(-.1719 -.2715 .5655 -.2467 -1.85 -.3)"/><use xlink:href="#e" width="8.6" height="11.6" transform="matrix(.798 0 0 1.0064 -3.4 -12.1)"/><use xlink:href="#f" width="8.3" height="5.6" transform="matrix(-.9788 -.4915 .041 1.0009 3.9 -6.85)"/><use xlink:href="#g" width="3.4" height="3.4" transform="translate(-4.95 -4)"/><use xlink:href="#d" width="8.9" height="5.3" transform="matrix(-.4672 -.041 -.2016 .3736 5.55 -1.2)"/><use xlink:href="#h" width="4.8" height="3.3" transform="matrix(-1.287 -.4201 .3083 -.9445 -3.6 -5.25)"/></g></g><g clip-path="url(#y)"><g transform="translate(640.3 65.6)"><use xlink:href="#c" width="9.2" height="4.3" transform="matrix(.6614 0 0 .7349 -3.7 -1.35)"/><use xlink:href="#d" width="8.9" height="5.3" transform="matrix(.0524 -.2811 .7147 .3814 -3.1 -2.5)"/><use xlink:href="#e" width="8.6" height="11.6" transform="matrix(.7027 0 0 1.2409 -3 -16.4)"/><use xlink:href="#f" width="8.3" height="5.6" transform="matrix(-.8619 -.606 .0361 1.2342 3.45 -10)"/><use xlink:href="#g" width="3.4" height="3.4" transform="translate(-4.95 -4)"/><use xlink:href="#d" width="8.9" height="5.3" transform="matrix(-.415 -.3992 -.3007 .2094 5.25 .1)"/><use xlink:href="#h" width="4.8" height="3.3" transform="matrix(-1.3597 .6804 -.4442 -.8875 -1.85 -7)"/></g></g><g clip-path="url(#z)"><g transform="translate(677.3 65.6)"><use xlink:href="#c" width="9.2" height="4.3" transform="matrix(.6614 0 0 .7349 -3.7 -1.35)"/><use xlink:href="#d" width="8.9" height="5.3" transform="matrix(.2021 -.1477 .1738 .9895 -2.55 -5.55)"/><use xlink:href="#e" width="8.6" height="11.6" transform="matrix(.6075 0 0 1.4754 -2.5 -20.75)"/><use xlink:href="#f" width="8.3" height="5.6" transform="matrix(-.7451 -.7205 .0312 1.4674 3.05 -13.05)"/><use xlink:href="#g" width="3.4" height="3.4" transform="translate(-4.95 -4)"/><use xlink:href="#d" width="8.9" height="5.3" transform="matrix(-.0849 -.6792 -.3056 .0449 3.15 .95)"/><use xlink:href="#h" width="4.8" height="3.3" transform="matrix(-.5327 1.6036 -.9424 -.3131 .2 -10.3)"/></g></g><g clip-path="url(#A)"><g transform="translate(714.3 65.6)"><use xlink:href="#c" width="9.2" height="4.3" transform="matrix(.6614 0 0 .7349 -3.7 -1.35)"/><use xlink:href="#d" width="8.9" height="5.3" transform="matrix(.202 -.1473 .1711 .9894 -2.55 -12.2)"/><use xlink:href="#e" width="8.6" height="11.6" transform="matrix(.6139 0 0 1.3169 -2.55 -25.5)"/><use xlink:href="#f" width="8.3" height="5.6" transform="matrix(-.7529 -.6431 .0315 1.3098 3.05 -18.65)"/><use xlink:href="#g" width="3.4" height="3.4" transform="translate(-5.45 -12.45)"/><use xlink:href="#d" width="8.9" height="5.3" transform="matrix(-.0838 -.679 -.3055 .0444 3.15 -5.65)"/><use xlink:href="#h" width="4.8" height="3.3" transform="matrix(-.5303 2.38 -.8996 -.2005 -.05 -16.25)"/></g></g><g clip-path="url(#B)"><g transform="translate(751.3 65.6)"><use xlink:href="#c" width="9.2" height="4.3" transform="matrix(.6614 0 0 .7349 -3.7 -1.35)"/><use xlink:href="#d" width="8.9" height="5.3" transform="matrix(.202 -.1473 .1711 .9894 -2.55 -18.9)"/><use xlink:href="#e" width="8.6" height="11.6" transform="matrix(.6203 0 0 1.1585 -2.65 -30.3)"/><use xlink:href="#f" width="8.3" height="5.6" transform="matrix(-.7608 -.5657 .0318 1.1522 3 -24.3)"/><use xlink:href="#g" width="3.4" height="3.4" transform="translate(-6 -20.95)"/><use xlink:href="#d" width="8.9" height="5.3" transform="matrix(-.0838 -.679 -.3055 .0444 3.15 -12.35)"/><use xlink:href="#h" width="4.8" height="3.3" transform="matrix(-.3895 3.1653 -.8449 -.104 -.25 -22.2)"/></g></g><g clip-path="url(#C)"><g transform="translate(788.3 65.6)"><use xlink:href="#c" width="9.2" height="4.3" transform="matrix(.6614 0 0 .7349 -3.7 -1.35)"/><use xlink:href="#d" width="8.9" height="5.3" transform="matrix(.2021 -.1477 .1738 .9895 -2.55 -25.55)"/><use xlink:href="#e" width="8.6" height="11.6" transform="matrix(.6267 0 0 1 -2.75 -35.05)"/><use xlink:href="#f" width="8.3" height="5.6" transform="matrix(-.7686 -.4883 .0322 .9946 3 -29.85)"/><use xlink:href="#D" width="2.5" height="6.6" transform="translate(-6.85 -26.35)"/><use xlink:href="#d" width="8.9" height="5.3" transform="matrix(-.0849 -.6792 -.3056 .0449 3.15 -19.05)"/><use xlink:href="#h" width="4.8" height="3.3" transform="matrix(-.095 3.9396 -.7807 -.0188 -.2 -27.95)"/></g></g><g clip-path="url(#E)"><g transform="translate(825.3 65.6)"><use xlink:href="#c" width="9.2" height="4.3" transform="matrix(.6614 0 0 .7349 -3.7 -1.35)"/><use xlink:href="#d" width="8.9" height="5.3" transform="matrix(.2021 -.1477 .1738 .9895 -2.55 -25.55)"/><use xlink:href="#e" width="8.6" height="11.6" transform="matrix(.6267 0 0 1 -2.75 -35.05)"/><use xlink:href="#f" width="8.3" height="5.6" transform="matrix(-.7686 -.4883 .0322 .9946 3 -29.85)"/><use xlink:href="#D" width="2.5" height="6.6" transform="translate(-6.85 -26.35)"/><use xlink:href="#d" width="8.9" height="5.3" transform="matrix(.3368 -.7131 -.4379 .3133 .15 -22.85)"/><use xlink:href="#h" width="4.8" height="3.3" transform="rotate(91.285 13.881 -14.546)scale(3.47 .7809)"/></g></g><g clip-path="url(#F)"><g transform="translate(862.3 65.6)"><use xlink:href="#c" width="9.2" height="4.3" transform="matrix(.6614 0 0 .7349 -3.7 -1.35)"/><use xlink:href="#d" width="8.9" height="5.3" transform="matrix(.2021 -.1477 .1738 .9895 -2.55 -25.55)"/><use xlink:href="#e" width="8.6" height="11.6" transform="matrix(.6267 0 0 1 -2.75 -35.05)"/><use xlink:href="#f" width="8.3" height="5.6" transform="matrix(-.7686 -.4883 .0322 .9946 3 -29.85)"/><use xlink:href="#D" width="2.5" height="6.6" transform="translate(-6.85 -26.35)"/><use xlink:href="#d" width="8.9" height="5.3" transform="matrix(.7549 -.4779 -.35 .6843 -3.2 -28.5)"/><use xlink:href="#h" width="4.8" height="3.3" transform="matrix(-.0672 2.9991 -.7807 -.0175 -.6 -29.55)"/></g></g><g clip-path="url(#G)"><g transform="translate(899.3 65.6)"><use xlink:href="#c" width="9.2" height="4.3" transform="matrix(.6614 0 0 .7349 -3.7 -1.35)"/><use xlink:href="#H" width="9.1" height="10.6" transform="translate(-4.45 -38.9)"/><use xlink:href="#h" width="4.8" height="3.3" transform="matrix(-.0566 2.5289 -.7807 -.0175 -.8 -30.4)"/></g></g><g clip-path="url(#I)"><g transform="translate(936.3 65.6)"><use xlink:href="#c" width="9.2" height="4.3" transform="matrix(.6614 0 0 .7349 -3.7 -1.35)"/><use xlink:href="#H" width="9.1" height="10.6" transform="translate(-4.45 -39.75)"/><use xlink:href="#h" width="4.8" height="3.3" transform="matrix(-.0461 2.0587 -.7807 -.0175 -1 -31.3)"/></g></g><g clip-path="url(#J)"><g transform="translate(973.3 65.6)"><use xlink:href="#c" width="9.2" height="4.3" transform="matrix(.6614 0 0 .7349 -3.7 -1.35)"/><use xlink:href="#H" width="9.1" height="10.6" transform="translate(-4.45 -40.5)"/><use xlink:href="#h" width="4.8" height="3.3" transform="matrix(-.0356 1.5885 -.7807 -.0175 -1.2 -32.15)"/></g></g><g clip-path="url(#K)"><g transform="translate(1010.3 65.6)"><use xlink:href="#c" width="9.2" height="4.3" transform="matrix(.6614 0 0 .7349 -3.7 -1.35)"/><use xlink:href="#L" width="9.1" height="10.8" transform="translate(-4.45 -40.95)"/><use xlink:href="#h" width="4.8" height="3.3" transform="matrix(-.027 1.1183 -.7807 -.0188 -1.4 -32.95)"/></g></g><g clip-path="url(#M)"><g transform="translate(1047.3 65.6)"><use xlink:href="#c" width="9.2" height="4.3" transform="matrix(.6614 0 0 .7349 -3.7 -1.35)"/><use xlink:href="#L" width="9.1" height="10.8" transform="translate(-4.45 -41.6)"/><use xlink:href="#h" width="4.8" height="3.3" transform="matrix(-.027 1.1183 -.7807 -.0188 -1.4 -32.95)"/></g></g><g clip-path="url(#N)"><g transform="translate(1084.3 65.6)"><use xlink:href="#c" width="9.2" height="4.3" transform="matrix(.6614 0 0 .7349 -3.7 -1.35)"/><use xlink:href="#L" width="9.1" height="10.8" transform="translate(-4.45 -42.15)"/><use xlink:href="#h" width="4.8" height="3.3" transform="matrix(-.027 1.1183 -.7807 -.0188 -1.4 -32.95)"/></g></g><g clip-path="url(#O)"><g transform="translate(1121.3 65.6)"><use xlink:href="#c" width="9.2" height="4.3" transform="matrix(.6614 0 0 .7349 -3.7 -1.35)"/><use xlink:href="#H" width="9.1" height="10.6" transform="translate(-4.45 -42.85)"/></g></g><g clip-path="url(#P)"><g transform="translate(1158.3 65.6)"><use xlink:href="#c" width="9.2" height="4.3" transform="matrix(.6614 0 0 .7349 -3.7 -1.35)"/><use xlink:href="#H" width="9.1" height="10.6" transform="translate(-4.45 -43.3)"/></g></g><g clip-path="url(#Q)"><g transform="translate(1195.3 65.6)"><use xlink:href="#c" width="9.2" height="4.3" transform="matrix(.6614 0 0 .7349 -3.7 -1.35)"/><use xlink:href="#H" width="9.1" height="10.6" transform="translate(-4.45 -43.6)"/></g></g><g clip-path="url(#R)"><g transform="translate(1232.3 65.6)"><use xlink:href="#c" width="9.2" height="4.3" transform="matrix(.6614 0 0 .7349 -3.7 -1.35)"/><use xlink:href="#L" width="9.1" height="10.8" transform="translate(-4.45 -43.6)"/></g></g><g clip-path="url(#S)"><g transform="translate(1269.3 65.6)"><use xlink:href="#c" width="9.2" height="4.3" transform="matrix(.6614 0 0 .7349 -3.7 -1.35)"/><use xlink:href="#L" width="9.1" height="10.8" transform="translate(-4.45 -43.8)"/></g></g><g clip-path="url(#T)"><g transform="translate(1306.3 65.6)"><use xlink:href="#c" width="9.2" height="4.3" transform="matrix(.6614 0 0 .7349 -3.7 -1.35)"/><use xlink:href="#L" width="9.1" height="10.8" transform="translate(-4.45 -43.9)"/></g></g><g clip-path="url(#U)"><g transform="translate(1343.3 65.6)"><use xlink:href="#c" width="9.2" height="4.3" transform="matrix(.6614 0 0 .7349 -3.7 -1.35)"/><use xlink:href="#H" width="9.1" height="10.6" transform="translate(-4.45 -44.2)"/></g></g><g clip-path="url(#V)"><g transform="translate(1380.3 65.6)"><use xlink:href="#c" width="9.2" height="4.3" transform="matrix(.6614 0 0 .7349 -3.7 -1.35)"/><use xlink:href="#H" width="9.1" height="10.6" transform="translate(-4.45 -44.25)"/></g></g><g clip-path="url(#W)"><g transform="translate(1417.3 65.6)"><use xlink:href="#c" width="9.2" height="4.3" transform="matrix(.6614 0 0 .7349 -3.7 -1.35)"/><use xlink:href="#H" width="9.1" height="10.6" transform="translate(-4.45 -44.35)"/></g></g><g clip-path="url(#X)"><g transform="translate(1454.3 65.6)"><use xlink:href="#c" width="9.2" height="4.3" transform="matrix(.6614 0 0 .7349 -3.7 -1.35)"/><use xlink:href="#H" width="9.1" height="10.6" transform="translate(-4.45 -44.4)"/></g></g><g clip-path="url(#Y)"><g transform="translate(1491.3 65.6)"><use xlink:href="#c" width="9.2" height="4.3" transform="matrix(.6614 0 0 .7349 -3.7 -1.35)"/><use xlink:href="#L" width="9.1" height="10.8" transform="translate(-4.45 -44.15)"/></g></g><g clip-path="url(#Z)"><g transform="translate(1528.3 65.6)"><use xlink:href="#c" width="9.2" height="4.3" transform="matrix(.6614 0 0 .7349 -3.7 -1.35)"/><use xlink:href="#d" width="8.9" height="5.3" transform="matrix(.0897 .3451 -.4095 .1064 -2.35 -42.95)"/><use xlink:href="#aa" width="7.5" height="11.3" transform="rotate(65.214 38.262 -19.134)scale(.9968)"/><use xlink:href="#f" width="8.3" height="5.6" transform="rotate(65.214 36.865 -20.113)scale(.9968)"/><use xlink:href="#ab" width="3.4" height="3.4" transform="translate(-.7 -37)"/><use xlink:href="#d" width="8.9" height="5.3" transform="matrix(.2512 -.2587 -.0845 -.4746 -3.9 -33.15)"/><use xlink:href="#h" width="4.8" height="3.3" transform="matrix(.9364 -1.0333 .7374 .6683 -2.9 -38.8)"/></g></g><g clip-path="url(#ac)"><g transform="translate(1565.3 65.6)"><use xlink:href="#c" width="9.2" height="4.3" transform="matrix(.6614 0 0 .7349 -3.7 -1.35)"/><use xlink:href="#d" width="8.9" height="5.3" transform="matrix(-.0191 .3625 -.4241 .0115 -.8 -43.45)"/><use xlink:href="#aa" width="7.5" height="11.3" transform="matrix(-.3769 .8529 -.9741 -.4976 7.4 -39.7)"/><use xlink:href="#f" width="8.3" height="5.6" transform="matrix(-.3769 .8529 -.9741 -.4976 5.6 -40.65)"/><use xlink:href="#ab" width="3.4" height="3.4" transform="translate(-1.9 -36.8)"/><use xlink:href="#d" width="8.9" height="5.3" transform="matrix(.2891 -.2709 -.0331 -.4673 -3.6 -33.05)"/><use xlink:href="#h" width="4.8" height="3.3" transform="matrix(.0091 -1.865 1.0205 .0674 -.4 -41.7)"/></g></g><g clip-path="url(#ad)"><g transform="translate(1602.3 65.6)"><use xlink:href="#c" width="9.2" height="4.3" transform="matrix(.6614 0 0 .7349 -3.7 -1.35)"/><use xlink:href="#d" width="8.9" height="5.3" transform="matrix(-.1108 .3509 -.4201 -.0648 .45 -43.7)"/><use xlink:href="#aa" width="7.5" height="11.3" transform="matrix(-.7912 .3869 -.408 -1.1014 5 -33.9)"/><use xlink:href="#f" width="8.3" height="5.6" transform="matrix(-.7912 .3869 -.408 -1.1014 4.3 -35.9)"/><use xlink:href="#ab" width="3.4" height="3.4" transform="translate(-2.9 -36.65)"/><use xlink:href="#d" width="8.9" height="5.3" transform="matrix(.321 -.2799 .0042 -.4574 -3.4 -33.1)"/><use xlink:href="#h" width="4.8" height="3.3" transform="matrix(-.8924 -1.9503 .9816 -.339 1.15 -42.75)"/></g></g><g clip-path="url(#ae)"><g transform="translate(1639.3 65.6)"><use xlink:href="#c" width="9.2" height="4.3" transform="matrix(.6614 0 0 .7349 -3.7 -1.35)"/><use xlink:href="#d" width="8.9" height="5.3" transform="matrix(-.1792 .326 -.4075 -.1232 1.5 -43.85)"/><use xlink:href="#aa" width="7.5" height="11.3" transform="matrix(-.8384 -.0704 .2682 -1.2081 .85 -30.95)"/><use xlink:href="#f" width="8.3" height="5.6" transform="matrix(-.8384 -.0704 .2682 -1.2081 1.4 -33.2)"/><use xlink:href="#ab" width="3.4" height="3.4" transform="translate(-3.7 -36.5)"/><use xlink:href="#d" width="8.9" height="5.3" transform="matrix(.3472 -.2847 .0335 -.4474 -3.15 -33.1)"/><use xlink:href="#h" width="4.8" height="3.3" transform="matrix(-1.2236 -1.8781 .9329 -.4711 1.5 -43.15)"/></g></g><g clip-path="url(#af)"><g transform="translate(1676.3 65.6)"><use xlink:href="#c" width="9.2" height="4.3" transform="matrix(.6614 0 0 .7349 -3.7 -1.35)"/><use xlink:href="#d" width="8.9" height="5.3" transform="matrix(-.2247 .3 -.3929 -.1651 2.2 -43.95)"/><use xlink:href="#aa" width="7.5" height="11.3" transform="matrix(-.7229 -.3694 .7548 -1.0352 -2.65 -30.4)"/><use xlink:href="#f" width="8.3" height="5.6" transform="matrix(-.7229 -.3694 .7548 -1.0352 -1.2 -32.3)"/><use xlink:href="#ab" width="3.4" height="3.4" transform="translate(-4.25 -36.4)"/><use xlink:href="#d" width="8.9" height="5.3" transform="matrix(.3662 -.2872 .0541 -.4391 -3.05 -33.15)"/><use xlink:href="#h" width="4.8" height="3.3" transform="matrix(-1.4897 -1.265 .7769 -.708 -.65 -40.95)"/></g></g><g clip-path="url(#ag)"><g transform="translate(1713.3 65.6)"><use xlink:href="#c" width="9.2" height="4.3" transform="matrix(.6614 0 0 .7349 -3.7 -1.35)"/><use xlink:href="#d" width="8.9" height="5.3" transform="matrix(-.2501 .2816 -.3823 -.1889 2.45 -43.9)"/><use xlink:href="#aa" width="7.5" height="11.3" transform="matrix(-.6052 -.5145 1.0072 -.8343 -4.75 -30.8)"/><use xlink:href="#f" width="8.3" height="5.6" transform="matrix(-.6052 -.5145 1.0072 -.8343 -2.85 -32.35)"/><use xlink:href="#ab" width="3.4" height="3.4" transform="translate(-4.6 -36.35)"/><use xlink:href="#d" width="8.9" height="5.3" transform="matrix(.3778 -.2885 .0652 -.4338 -3 -33.1)"/><use xlink:href="#h" width="4.8" height="3.3" transform="matrix(-1.5408 -.771 .6077 -.8655 -2.05 -39.3)"/></g></g><g clip-path="url(#ah)"><g transform="translate(1750.3 65.6)"><use xlink:href="#c" width="9.2" height="4.3" transform="matrix(.6614 0 0 .7349 -3.7 -1.35)"/><use xlink:href="#d" width="8.9" height="5.3" transform="matrix(-.2587 .2753 -.379 -.1969 2.6 -43.9)"/><use xlink:href="#aa" width="7.5" height="11.3" transform="matrix(-.5599 -.5572 1.0802 -.7568 -5.45 -31)"/><use xlink:href="#f" width="8.3" height="5.6" transform="matrix(-.5599 -.5572 1.0802 -.7568 -3.45 -32.35)"/><use xlink:href="#ai" width="3.5" height="3.7" transform="translate(-5.55 -36.05)"/><use xlink:href="#d" width="8.9" height="5.3" transform="matrix(.382 -.2897 .0701 -.432 -2.95 -33.1)"/><use xlink:href="#h" width="4.8" height="3.3" transform="matrix(-1.4831 -.4263 .4505 -.9625 -3 -38.1)"/></g></g><g clip-path="url(#aj)"><g transform="translate(1787.3 65.6)"><use xlink:href="#c" width="9.2" height="4.3" transform="matrix(.6614 0 0 .7349 -3.7 -1.35)"/><use xlink:href="#d" width="8.9" height="5.3" transform="matrix(-.2587 .2753 -.379 -.1969 2.6 -43.9)"/><use xlink:href="#aa" width="7.5" height="11.3" transform="matrix(-.5779 -.668 .9005 -.7646 -4.55 -30.2)"/><use xlink:href="#f" width="8.3" height="5.6" transform="matrix(-.5779 -.668 .9005 -.7646 -2.85 -31.65)"/><use xlink:href="#ai" width="3.5" height="3.7" transform="translate(-5.55 -36.05)"/><use xlink:href="#d" width="8.9" height="5.3" transform="matrix(.382 -.2897 .0701 -.432 -2.95 -33.1)"/><use xlink:href="#h" width="4.8" height="3.3" transform="matrix(-1.3992 -.2094 .3306 -1.0141 -3.5 -37.45)"/></g></g><g clip-path="url(#ak)"><g transform="translate(1824.3 65.6)"><use xlink:href="#c" width="9.2" height="4.3" transform="matrix(.6614 0 0 .7349 -3.7 -1.35)"/><use xlink:href="#d" width="8.9" height="5.3" transform="matrix(-.2587 .2753 -.379 -.1969 2.6 -43.9)"/><use xlink:href="#aa" width="7.5" height="11.3" transform="matrix(-.5832 -.7852 .7318 -.7472 -3.8 -29.65)"/><use xlink:href="#f" width="8.3" height="5.6" transform="matrix(-.5832 -.7852 .7318 -.7472 -2.45 -30.95)"/><use xlink:href="#ai" width="3.5" height="3.7" transform="translate(-5.55 -36.05)"/><use xlink:href="#d" width="8.9" height="5.3" transform="matrix(.382 -.2897 .0701 -.432 -2.95 -33.1)"/><use xlink:href="#h" width="4.8" height="3.3" transform="matrix(-1.3345 -.0934 .2551 -1.038 -3.85 -37)"/></g></g><g clip-path="url(#al)"><g transform="translate(1861.3 65.6)"><use xlink:href="#c" width="9.2" height="4.3" transform="matrix(.6614 0 0 .7349 -3.7 -1.35)"/><use xlink:href="#d" width="8.9" height="5.3" transform="matrix(-.2587 .2753 -.379 -.1969 2.6 -43.9)"/><use xlink:href="#aa" width="7.5" height="11.3" transform="matrix(-.5756 -.9074 .5769 -.7063 -3.25 -29.2)"/><use xlink:href="#f" width="8.3" height="5.6" transform="matrix(-.5756 -.9074 .5769 -.7063 -2.2 -30.45)"/><use xlink:href="#ai" width="3.5" height="3.7" transform="translate(-5.55 -36.05)"/><use xlink:href="#d" width="8.9" height="5.3" transform="matrix(.382 -.2897 .0701 -.432 -2.95 -33.1)"/><use xlink:href="#h" width="4.8" height="3.3" transform="matrix(-1.311 -.0571 .232 -1.045 -3.9 -36.85)"/></g></g><g clip-path="url(#am)"><g transform="translate(1898.3 65.6)"><use xlink:href="#c" width="9.2" height="4.3" transform="matrix(1.8118 -.9163 .1939 .3834 1.25 -1.45)"/><use xlink:href="#d" width="8.9" height="5.3" transform="matrix(.4615 .1394 .2419 .3766 11.75 -30.3)"/><use xlink:href="#aa" width="7.5" height="11.3" transform="matrix(-.4566 -.697 1.5646 .3662 3.6 -31.75)"/><use xlink:href="#f" width="8.3" height="5.6" transform="matrix(-.4566 -.697 1.5646 .3662 6.55 -31.05)"/><use xlink:href="#an" width="5.3" height="2.7" transform="translate(19.85 -30.3)"/><use xlink:href="#d" width="8.9" height="5.3" transform="matrix(-.5968 -.2393 -.3835 .065 25.2 -28.7)"/><use xlink:href="#h" width="4.8" height="3.3" transform="matrix(-3.2853 -.9613 .4787 -.9575 6.75 -32.4)"/></g></g><g clip-path="url(#ao)"><g transform="translate(1935.3 65.6)"><use xlink:href="#c" width="9.2" height="4.3" transform="matrix(.6614 0 0 .7349 10.9 -9.2)"/><use xlink:href="#H" width="9.1" height="10.6" transform="rotate(48.708 57.386 -11.27)scale(.995)"/><use xlink:href="#h" width="4.8" height="3.3" transform="matrix(2.2802 3.0274 -.9408 .4892 10.4 -43.35)"/></g></g><g clip-path="url(#ap)"><g transform="translate(1972.3 65.6)"><use xlink:href="#c" width="9.2" height="4.3" transform="matrix(.6614 0 0 .7349 9.75 -8.55)"/><use xlink:href="#H" width="9.1" height="10.6" transform="rotate(43.385 66.753 -12.433)scale(.9937)"/><use xlink:href="#h" width="4.8" height="3.3" transform="matrix(2.8337 1.5761 -.6608 .8273 10.75 -47.8)"/></g></g><g clip-path="url(#aq)"><g transform="translate(2009.3 65.6)"><use xlink:href="#c" width="9.2" height="4.3" transform="matrix(.6614 0 0 .7349 8.7 -7.9)"/><use xlink:href="#H" width="9.1" height="10.6" transform="rotate(38.58 77.49 -13.41)scale(.994)"/><use xlink:href="#h" width="4.8" height="3.3" transform="matrix(2.7397 .3866 -.3195 1.0103 10 -51.3)"/></g></g><g clip-path="url(#ar)"><g transform="translate(2046.3 65.6)"><use xlink:href="#c" width="9.2" height="4.3" transform="matrix(.6614 0 0 .7349 7.75 -7.35)"/><use xlink:href="#L" width="9.1" height="10.8" transform="rotate(33.861 90.434 -14.517)scale(.9945)"/><use xlink:href="#h" width="4.8" height="3.3" transform="matrix(2.3158 -.41 .0098 1.0607 8.8 -53.6)"/></g></g><g clip-path="url(#as)"><g transform="translate(2083.3 65.6)"><use xlink:href="#c" width="9.2" height="4.3" transform="matrix(.6614 0 0 .7349 6.85 -6.8)"/><use xlink:href="#L" width="9.1" height="10.8" transform="rotate(29.804 105.385 -15.27)scale(.9949)"/><use xlink:href="#h" width="4.8" height="3.3" transform="matrix(1.8038 -.8624 .2926 1.0187 7.35 -55.05)"/></g></g><g clip-path="url(#at)"><g transform="translate(2120.3 65.6)"><use xlink:href="#c" width="9.2" height="4.3" transform="matrix(.6614 0 0 .7349 6 -6.3)"/><use xlink:href="#L" width="9.1" height="10.8" transform="rotate(25.834 124.403 -15.91)scale(.9953)"/><use xlink:href="#h" width="4.8" height="3.3" transform="matrix(1.3466 -1.0567 .507 .9303 6.25 -55.75)"/></g></g><g clip-path="url(#au)"><g transform="translate(2157.3 65.6)"><use xlink:href="#c" width="9.2" height="4.3" transform="matrix(.6614 0 0 .7349 5.25 -5.85)"/><use xlink:href="#H" width="9.1" height="10.6" transform="rotate(22.338 147.126 -16.42)scale(.9956)"/><use xlink:href="#h" width="4.8" height="3.3" transform="matrix(.994 -1.1082 .6605 .8282 5.45 -56.1)"/></g></g><g clip-path="url(#av)"><g transform="translate(2194.3 65.6)"><use xlink:href="#c" width="9.2" height="4.3" transform="matrix(.6614 0 0 .7349 4.6 -5.5)"/><use xlink:href="#H" width="9.1" height="10.6" transform="rotate(19.308 173.02 -16.73)scale(.996)"/><use xlink:href="#h" width="4.8" height="3.3" transform="matrix(.7599 -1.0907 .7569 .7411 4.95 -56.2)"/></g></g><g clip-path="url(#aw)"><g transform="translate(2231.3 65.6)"><use xlink:href="#c" width="9.2" height="4.3" transform="matrix(.6614 0 0 .7349 4 -5.15)"/><use xlink:href="#H" width="9.1" height="10.6" transform="matrix(.9549 .2839 -.2839 .9549 3.7 -59)"/><use xlink:href="#h" width="4.8" height="3.3" transform="matrix(.6317 -1.0598 .8075 .6856 4.65 -56.3)"/></g></g><g clip-path="url(#ax)"><g transform="translate(2268.3 65.6)"><use xlink:href="#c" width="9.2" height="4.3" transform="matrix(.6614 0 0 .7349 3.5 -4.85)"/><use xlink:href="#L" width="9.1" height="10.8" transform="rotate(14.275 239.334 -17.397)scale(.9965)"/><use xlink:href="#h" width="4.8" height="3.3" transform="matrix(.59 -1.0492 .8262 .6658 4.35 -56.35)"/></g></g><g clip-path="url(#ay)"><g transform="translate(2305.3 65.6)"><use xlink:href="#c" width="9.2" height="4.3" transform="matrix(.6614 0 0 .7349 3.1 -4.6)"/><use xlink:href="#L" width="9.1" height="10.8" transform="matrix(.974 .2119 -.2119 .974 2.8 -60.2)"/><use xlink:href="#h" width="4.8" height="3.3" transform="matrix(.3833 -1.1091 .9291 .5054 3.3 -56.65)"/></g></g><g clip-path="url(#az)"><g transform="translate(2342.3 65.6)"><use xlink:href="#c" width="9.2" height="4.3" transform="matrix(.6614 0 0 .7349 2.75 -4.35)"/><use xlink:href="#L" width="9.1" height="10.8" transform="rotate(10.548 329.519 -16.488)scale(.997)"/><use xlink:href="#h" width="4.8" height="3.3" transform="matrix(.1793 -1.131 1.0042 .3273 2.35 -56.95)"/></g></g><g clip-path="url(#aA)"><g transform="translate(2379.3 65.6)"><use xlink:href="#c" width="9.2" height="4.3" transform="matrix(.6614 0 0 .7349 2.45 -4.2)"/><use xlink:href="#H" width="9.1" height="10.6" transform="rotate(9.3 377.064 -16.4)scale(.997)"/><use xlink:href="#h" width="4.8" height="3.3" transform="matrix(-.0202 -1.1164 1.0451 .1424 1.5 -57.1)"/></g></g><g clip-path="url(#aB)"><g transform="translate(2416.3 65.6)"><use xlink:href="#c" width="9.2" height="4.3" transform="matrix(.6614 0 0 .7349 2.25 -4.1)"/><use xlink:href="#H" width="9.1" height="10.6" transform="rotate(8.315 423.785 -15.935)scale(.9972)"/><use xlink:href="#h" width="4.8" height="3.3" transform="matrix(-.2126 -1.066 1.052 -.0463 .75 -57.15)"/></g></g><g clip-path="url(#aC)"><g transform="translate(2453.3 65.6)"><use xlink:href="#c" width="9.2" height="4.3" transform="matrix(.6614 0 0 .7349 2.15 -4)"/><use xlink:href="#H" width="9.1" height="10.6" transform="rotate(7.797 452.599 -16.1)scale(.9973)"/><use xlink:href="#h" width="4.8" height="3.3" transform="matrix(-.3848 -.9851 1.0244 -.2329 .1 -57.35)"/></g></g><g clip-path="url(#aD)"><g transform="translate(2490.3 65.6)"><use xlink:href="#c" width="9.2" height="4.3" transform="matrix(.6614 0 0 .7349 2.1 -4)"/><use xlink:href="#d" width="8.9" height="5.3" transform="matrix(.1231 -.3337 .396 .1461 .95 -52)"/><use xlink:href="#e" width="8.6" height="11.6" transform="rotate(7.759 476.632 -27.507)scale(.9977)"/><use xlink:href="#f" width="8.3" height="5.6" transform="matrix(-1.1468 -.6479 -.0832 .9902 9 -58.2)"/><use xlink:href="#g" width="3.4" height="3.4" transform="rotate(7.759 408.593 -31.412)scale(.9977)"/><use xlink:href="#d" width="8.9" height="5.3" transform="matrix(-.1426 -.6036 -.4459 -.1843 6.55 -48.6)"/><use xlink:href="#h" width="4.8" height="3.3" transform="matrix(-.5387 -.8758 .9626 -.4145 -.35 -57.4)"/></g></g><g clip-path="url(#aE)"><g transform="translate(2527.3 65.6)"><use xlink:href="#c" width="9.2" height="4.3" transform="matrix(.6614 0 0 .7349 2.05 -4)"/><use xlink:href="#d" width="8.9" height="5.3" transform="matrix(.1219 -.334 .3963 .1446 .9 -51.75)"/><use xlink:href="#e" width="8.6" height="11.6" transform="rotate(7.56 486.928 -27.61)scale(.9973)"/><use xlink:href="#f" width="8.3" height="5.6" transform="matrix(-1.1485 -.6437 -.0797 .99 8.95 -57.95)"/><use xlink:href="#g" width="3.4" height="3.4" transform="rotate(7.56 417.105 -31.737)scale(.9973)"/><use xlink:href="#d" width="8.9" height="5.3" transform="matrix(-.1447 -.6028 -.4464 -.1826 6.55 -48.35)"/><use xlink:href="#h" width="4.8" height="3.3" transform="matrix(-.6666 -.7442 .871 -.5787 -.7 -57.35)"/></g></g><g clip-path="url(#aF)"><g transform="translate(2564.3 65.6)"><use xlink:href="#c" width="9.2" height="4.3" transform="matrix(.6614 0 0 .7349 2 -3.95)"/><use xlink:href="#d" width="8.9" height="5.3" transform="matrix(.1217 -.3341 .3964 .1444 .9 -51.1)"/><use xlink:href="#e" width="8.6" height="11.6" transform="rotate(7.536 483.518 -27.27)scale(.9973)"/><use xlink:href="#f" width="8.3" height="5.6" transform="matrix(-1.1488 -.6432 -.0793 .9901 8.95 -57.3)"/><use xlink:href="#g" width="3.4" height="3.4" transform="rotate(7.536 413.478 -31.425)scale(.9973)"/><use xlink:href="#d" width="8.9" height="5.3" transform="matrix(-.1449 -.6028 -.4465 -.1824 6.55 -47.7)"/><use xlink:href="#h" width="4.8" height="3.3" transform="matrix(-.7657 -.5957 .7495 -.7263 -.85 -57.45)"/></g></g><g clip-path="url(#aG)"><g transform="translate(2601.3 65.6)"><use xlink:href="#c" width="9.2" height="4.3" transform="matrix(.6614 0 0 .7349 1.85 -3.9)"/><use xlink:href="#d" width="8.9" height="5.3" transform="matrix(.1204 -.3346 .397 .1429 .8 -50.05)"/><use xlink:href="#e" width="8.6" height="11.6" transform="rotate(7.304 490.998 -28.191)scale(.9974)"/><use xlink:href="#f" width="8.3" height="5.6" transform="matrix(-1.1515 -.6386 -.0753 .9905 8.8 -56.3)"/><use xlink:href="#g" width="3.4" height="3.4" transform="rotate(7.304 418.4 -31.817)scale(.9974)"/><use xlink:href="#d" width="8.9" height="5.3" transform="matrix(-.1474 -.6022 -.4472 -.1806 6.4 -46.75)"/><use xlink:href="#h" width="4.8" height="3.3" transform="matrix(-.8337 -.4401 .6074 -.8484 -1 -57.6)"/></g></g><g clip-path="url(#aH)"><g transform="translate(2638.3 65.6)"><use xlink:href="#c" width="9.2" height="4.3" transform="matrix(.6614 0 0 .7349 1.7 -3.8)"/><use xlink:href="#d" width="8.9" height="5.3" transform="matrix(.1189 -.3351 .3976 .1412 .65 -48.55)"/><use xlink:href="#e" width="8.6" height="11.6" transform="rotate(7.054 496.557 -28.572)scale(.9975)"/><use xlink:href="#f" width="8.3" height="5.6" transform="matrix(-1.1544 -.6337 -.071 .9909 8.65 -54.9)"/><use xlink:href="#g" width="3.4" height="3.4" transform="rotate(7.054 420.975 -32.87)scale(.9975)"/><use xlink:href="#d" width="8.9" height="5.3" transform="matrix(-.15 -.6017 -.4481 -.1787 6.3 -45.25)"/><use xlink:href="#h" width="4.8" height="3.3" transform="matrix(-.7731 -.6008 .7448 -.7286 -1.6 -55.05)"/></g></g><g clip-path="url(#aI)"><g transform="translate(2675.3 65.6)"><use xlink:href="#c" width="9.2" height="4.3" transform="matrix(.6614 0 0 .7349 1.45 -3.7)"/><use xlink:href="#d" width="8.9" height="5.3" transform="matrix(.1174 -.3357 .3983 .1393 .55 -46.6)"/><use xlink:href="#e" width="8.6" height="11.6" transform="rotate(6.787 499.627 -28.782)scale(.9976)"/><use xlink:href="#f" width="8.3" height="5.6" transform="matrix(-1.1574 -.6284 -.0664 .9913 8.55 -53)"/><use xlink:href="#g" width="3.4" height="3.4" transform="rotate(6.787 421.952 -33.06)scale(.9976)"/><use xlink:href="#d" width="8.9" height="5.3" transform="matrix(-.1528 -.601 -.4489 -.1767 6.2 -43.4)"/><use xlink:href="#h" width="4.8" height="3.3" transform="matrix(-.6819 -.7545 .8607 -.5877 -2.05 -52.6)"/></g></g><g clip-path="url(#aJ)"><g transform="translate(2712.3 65.6)"><use xlink:href="#c" width="9.2" height="4.3" transform="matrix(.6614 0 0 .7349 1.15 -3.6)"/><use xlink:href="#d" width="8.9" height="5.3" transform="matrix(.1158 -.3363 .399 .1374 .4 -44.25)"/><use xlink:href="#e" width="8.6" height="11.6" transform="rotate(6.509 500.285 -29.33)scale(.9977)"/><use xlink:href="#f" width="8.3" height="5.6" transform="matrix(-1.1606 -.6227 -.0615 .9917 8.35 -50.7)"/><use xlink:href="#g" width="3.4" height="3.4" transform="rotate(6.509 418.473 -33.058)scale(.9977)"/><use xlink:href="#d" width="8.9" height="5.3" transform="matrix(-.1558 -.6003 -.4498 -.1745 6.15 -41.05)"/><use xlink:href="#h" width="4.8" height="3.3" transform="matrix(-.5602 -.8941 .9505 -.429 -2.45 -50.1)"/></g></g><g clip-path="url(#aK)"><g transform="translate(2749.3 65.6)"><use xlink:href="#c" width="9.2" height="4.3" transform="matrix(.6614 0 0 .7349 .85 -3.4)"/><use xlink:href="#d" width="8.9" height="5.3" transform="matrix(.1129 -.3374 .4003 .134 .2 -41.4)"/><use xlink:href="#e" width="8.6" height="11.6" transform="rotate(6.017 514.024 -30.83)scale(.9979)"/><use xlink:href="#f" width="8.3" height="5.6" transform="matrix(-1.1661 -.613 -.0531 .9924 8.1 -47.95)"/><use xlink:href="#g" width="3.4" height="3.4" transform="rotate(6.017 425.095 -34.743)scale(.9979)"/><use xlink:href="#d" width="8.9" height="5.3" transform="matrix(-.1609 -.5991 -.4514 -.1707 5.9 -38.2)"/><use xlink:href="#h" width="4.8" height="3.3" transform="matrix(-.4101 -1.0135 1.0113 -.2571 -2.7 -47.7)"/></g></g><g clip-path="url(#aL)"><g transform="translate(2786.3 65.6)"><use xlink:href="#c" width="9.2" height="4.3" transform="matrix(.6614 0 0 .7349 .45 -3.25)"/><use xlink:href="#d" width="8.9" height="5.3" transform="matrix(.11 -.3384 .4015 .1305 -.05 -38.3)"/><use xlink:href="#e" width="8.6" height="11.6" transform="rotate(5.514 528.109 -33.237)scale(.998)"/><use xlink:href="#f" width="8.3" height="5.6" transform="matrix(-1.1717 -.6028 -.0444 .993 7.85 -44.9)"/><use xlink:href="#g" width="3.4" height="3.4" transform="rotate(5.514 431.149 -36.893)scale(.998)"/><use xlink:href="#d" width="8.9" height="5.3" transform="matrix(-.1662 -.5977 -.453 -.1667 5.75 -35.15)"/><use xlink:href="#h" width="4.8" height="3.3" transform="matrix(-.2318 -1.1078 1.0417 -.0738 -2.8 -45.25)"/></g></g><g clip-path="url(#aM)"><g transform="translate(2823.3 65.6)"><use xlink:href="#c" width="9.2" height="4.3" transform="matrix(.6614 0 0 .7349 0 -3.05)"/><use xlink:href="#d" width="8.9" height="5.3" transform="matrix(.1058 -.3398 .4032 .1255 -.35 -34.6)"/><use xlink:href="#e" width="8.6" height="11.6" transform="rotate(4.804 562.047 -37.905)scale(.9983)"/><use xlink:href="#f" width="8.3" height="5.6" transform="matrix(-1.1793 -.5883 -.0321 .9937 7.45 -41.3)"/><use xlink:href="#g" width="3.4" height="3.4" transform="rotate(4.804 451.383 -42.816)scale(.9983)"/><use xlink:href="#d" width="8.9" height="5.3" transform="matrix(-.1736 -.5957 -.4551 -.1611 5.5 -31.55)"/><use xlink:href="#h" width="4.8" height="3.3" transform="matrix(-.0398 -1.1698 1.0394 .106 -2.75 -42.7)"/></g></g><g clip-path="url(#aN)"><g transform="translate(2860.3 65.6)"><use xlink:href="#c" width="9.2" height="4.3" transform="matrix(.6614 0 0 .7349 -.5 -2.8)"/><use xlink:href="#d" width="8.9" height="5.3" transform="matrix(.1026 -.3409 .4044 .1217 -.55 -30.45)"/><use xlink:href="#e" width="8.6" height="11.6" transform="rotate(4.268 577.64 -41.68)scale(.9985)"/><use xlink:href="#f" width="8.3" height="5.6" transform="matrix(-1.185 -.5774 -.0228 .9942 7.25 -37.25)"/><use xlink:href="#g" width="3.4" height="3.4" transform="rotate(4.268 452.486 -46.423)scale(.9985)"/><use xlink:href="#d" width="8.9" height="5.3" transform="matrix(-.1793 -.5942 -.4567 -.1569 5.3 -27.45)"/><use xlink:href="#h" width="4.8" height="3.3" transform="matrix(-.0587 -1.6384 .9679 .0721 -2.7 -37.5)"/></g></g><g clip-path="url(#aO)"><g transform="translate(2897.3 65.6)"><use xlink:href="#c" width="9.2" height="4.3" transform="matrix(.6614 0 0 .7349 -1 -2.55)"/><use xlink:href="#d" width="8.9" height="5.3" transform="matrix(.0982 -.3423 .4061 .1165 -.9 -26.05)"/><use xlink:href="#e" width="8.6" height="11.6" transform="rotate(3.525 626.222 -52.612)scale(.9987)"/><use xlink:href="#f" width="8.3" height="5.6" transform="matrix(-1.1927 -.5621 -.0098 .9946 6.8 -32.9)"/><use xlink:href="#g" width="3.4" height="3.4" transform="rotate(3.525 474.822 -56.9)scale(.9987)"/><use xlink:href="#d" width="8.9" height="5.3" transform="matrix(-.187 -.592 -.4588 -.151 5 -23.1)"/><use xlink:href="#h" width="4.8" height="3.3" transform="matrix(-.0847 -2.1067 .8959 .04 -2.7 -32.35)"/></g></g><g clip-path="url(#aP)"><g transform="translate(2934.3 65.6)"><use xlink:href="#c" width="9.2" height="4.3" transform="matrix(.6614 0 0 .7349 -1.6 -2.3)"/><use xlink:href="#d" width="8.9" height="5.3" transform="matrix(.0937 -.3436 .4077 .1112 -1.15 -21.05)"/><use xlink:href="#e" width="8.6" height="11.6" transform="rotate(2.76 696.232 -68.696)scale(.999)"/><use xlink:href="#f" width="8.3" height="5.6" transform="matrix(-1.2004 -.5463 .0034 .995 6.35 -28)"/><use xlink:href="#g" width="3.4" height="3.4" transform="rotate(2.76 502.954 -73.387)scale(.999)"/><use xlink:href="#d" width="8.9" height="5.3" transform="matrix(-.1949 -.5896 -.4609 -.1449 4.75 -18.25)"/><use xlink:href="#h" width="4.8" height="3.3" transform="matrix(-.1149 -2.5749 .8228 .015 -2.7 -27.15)"/></g></g><g clip-path="url(#aQ)"><g transform="translate(2971.3 65.6)"><use xlink:href="#c" width="9.2" height="4.3" transform="matrix(.6614 0 0 .7349 -2.25 -2)"/><use xlink:href="#d" width="8.9" height="5.3" transform="matrix(.0879 -.3453 .4096 .1043 -1.6 -15.8)"/><use xlink:href="#e" width="8.6" height="11.6" transform="rotate(1.795 903.36 -111.526)scale(.9993)"/><use xlink:href="#f" width="8.3" height="5.6" transform="matrix(-1.2098 -.5262 .0201 .995 5.9 -22.85)"/><use xlink:href="#g" width="3.4" height="3.4" transform="rotate(1.795 606.37 -116.452)scale(.9993)"/><use xlink:href="#d" width="8.9" height="5.3" transform="matrix(-.2049 -.5864 -.4634 -.1372 4.4 -13)"/><use xlink:href="#h" width="4.8" height="3.3" transform="matrix(-.1491 -3.0428 .7491 -.0037 -2.65 -22.05)"/></g></g><g clip-path="url(#aR)"><g transform="translate(3008.3 65.6)"><use xlink:href="#c" width="9.2" height="4.3" transform="matrix(.6614 0 0 .7349 -2.95 -1.7)"/><use xlink:href="#d" width="8.9" height="5.3" transform="matrix(.082 -.3468 .4115 .0973 -2 -9.9)"/><use xlink:href="#e" width="8.6" height="11.6" transform="rotate(.814 1574.906 -271.646)scale(.9996)"/><use xlink:href="#f" width="8.3" height="5.6" transform="matrix(-1.219 -.5055 .0372 .9949 5.35 -17.1)"/><use xlink:href="#g" width="3.4" height="3.4" transform="rotate(.814 920.195 -277.555)scale(.9996)"/><use xlink:href="#d" width="8.9" height="5.3" transform="matrix(-.215 -.583 -.4658 -.1292 4.05 -7.25)"/><use xlink:href="#h" width="4.8" height="3.3" transform="matrix(-.1875 -3.5105 .6748 -.0211 -2.65 -16.85)"/></g></g><g clip-path="url(#aS)"><g transform="translate(3045.3 65.6)"><use xlink:href="#c" width="9.2" height="4.3" transform="matrix(.6614 0 0 .7349 -3.7 -1.35)"/><use xlink:href="#d" width="8.9" height="5.3" transform="matrix(.0771 -.3481 .413 .0915 -2.3 -3.75)"/><use xlink:href="#e" width="8.6" height="11.6" transform="translate(-4.25 -16.25)"/><use xlink:href="#f" width="8.3" height="5.6" transform="matrix(-1.2265 -.4883 .0513 .9946 4.9 -11.05)"/><use xlink:href="#g" width="3.4" height="3.4" transform="translate(-4.2 -6.95)"/><use xlink:href="#d" width="8.9" height="5.3" transform="matrix(-.2233 -.5801 -.4678 -.1227 3.75 -1.2)"/><use xlink:href="#h" width="4.8" height="3.3" transform="rotate(-93.478 -6.521 -4.375)scale(3.9852 .6012)"/></g></g><g clip-path="url(#aT)"><g transform="translate(3082.3 65.6)"><use xlink:href="#c" width="9.2" height="4.3" transform="matrix(.6614 0 0 .7349 -3.7 -1.35)"/><use xlink:href="#d" width="8.9" height="5.3" transform="matrix(.352 .0635 -.0753 .4176 -4.05 -2.7)"/><use xlink:href="#e" width="8.6" height="11.6" transform="translate(-4.35 -13.25)"/><use xlink:href="#f" width="8.3" height="5.6" transform="matrix(-1.2265 -.4883 .0513 .9946 4.8 -8.05)"/><use xlink:href="#g" width="3.4" height="3.4" transform="translate(-4.75 -3.6)"/><use xlink:href="#d" width="8.9" height="5.3" transform="matrix(-.247 .2635 .093 .4739 3.5 -2.4)"/><use xlink:href="#h" width="4.8" height="3.3" transform="matrix(-.3761 1.8336 -.9758 -.2001 -.15 -5.2)"/></g></g><g clip-path="url(#aU)"><g transform="translate(3119.3 65.6)"><use xlink:href="#c" width="9.2" height="4.3" transform="matrix(.6614 0 0 .7349 -3.7 -1.35)"/><use xlink:href="#d" width="8.9" height="5.3" transform="matrix(-.0913 .3454 -.4099 -.1083 -.6 -3.4)"/><use xlink:href="#e" width="8.6" height="11.6" transform="matrix(.9776 0 0 1.06 -4.25 -14.7)"/><use xlink:href="#f" width="8.3" height="5.6" transform="matrix(-1.1991 -.5176 .0502 1.0543 4.7 -9.2)"/><use xlink:href="#g" width="3.4" height="3.4" transform="translate(-3.75 -3.2)"/><use xlink:href="#d" width="8.9" height="5.3" transform="matrix(-.1903 .3064 .183 .4464 2.85 -3.35)"/><use xlink:href="#h" width="4.8" height="3.3" transform="matrix(-.5014 1.4969 -.944 -.3162 -.45 -6.05)"/></g></g><g clip-path="url(#aV)"><g transform="translate(3156.3 65.6)"><use xlink:href="#c" width="9.2" height="4.3" transform="matrix(.6614 0 0 .7349 -3.7 -1.35)"/><use xlink:href="#d" width="8.9" height="5.3" transform="matrix(-.3392 .112 -.1329 -.4024 .3 -1.35)"/><use xlink:href="#e" width="8.6" height="11.6" transform="matrix(.9579 0 0 1.1129 -4.15 -15.95)"/><use xlink:href="#f" width="8.3" height="5.6" transform="matrix(-1.1748 -.5435 .0492 1.1069 4.6 -10.15)"/><use xlink:href="#g" width="3.4" height="3.4" transform="translate(-3.15 -2.95)"/><use xlink:href="#d" width="8.9" height="5.3" transform="matrix(-.1268 .3378 .2667 .4018 2.25 -4.15)"/><use xlink:href="#h" width="4.8" height="3.3" transform="matrix(-.5506 1.1634 -.8999 -.4259 -.6 -6.75)"/></g></g><g clip-path="url(#aW)"><g transform="translate(3193.3 65.6)"><use xlink:href="#c" width="9.2" height="4.3" transform="matrix(.6614 0 0 .7349 -3.7 -1.35)"/><use xlink:href="#d" width="8.9" height="5.3" transform="matrix(-.3575 -.0042 .005 -.4241 .15 -.55)"/><use xlink:href="#e" width="8.6" height="11.6" transform="matrix(.9407 0 0 1.1587 -4.05 -17.05)"/><use xlink:href="#f" width="8.3" height="5.6" transform="matrix(-1.1538 -.5659 .0483 1.1525 4.55 -11.05)"/><use xlink:href="#g" width="3.4" height="3.4" transform="translate(-4.95 -4)"/><use xlink:href="#d" width="8.9" height="5.3" transform="matrix(-.0584 .3562 .34 .3418 1.5 -5)"/><use xlink:href="#h" width="4.8" height="3.3" transform="rotate(122.328 1.628 -4.023)scale(.9973)"/></g></g><g clip-path="url(#aX)"><g transform="translate(3230.3 65.6)"><use xlink:href="#c" width="9.2" height="4.3" transform="matrix(.6614 0 0 .7349 -3.7 -1.35)"/><use xlink:href="#d" width="8.9" height="5.3" transform="matrix(-.3422 .1016 -.1205 -.406 -.05 -2.75)"/><use xlink:href="#e" width="8.6" height="11.6" transform="matrix(.9263 0 0 1.1975 -4 -17.95)"/><use xlink:href="#f" width="8.3" height="5.6" transform="matrix(-1.1361 -.5848 .0476 1.1911 4.5 -11.75)"/><use xlink:href="#g" width="3.4" height="3.4" transform="translate(-4.95 -5.05)"/><use xlink:href="#d" width="8.9" height="5.3" transform="matrix(.011 .3609 .4004 .2687 .85 -5.5)"/><use xlink:href="#h" width="4.8" height="3.3" transform="rotate(146.658 .475 -4.407)scale(.9956)"/></g></g><g clip-path="url(#aY)"><g transform="translate(3267.3 65.6)"><use xlink:href="#c" width="9.2" height="4.3" transform="matrix(.6614 0 0 .7349 -3.7 -1.35)"/><use xlink:href="#d" width="8.9" height="5.3" transform="matrix(-.303 .188 -.223 -.3595 -.3 -4.6)"/><use xlink:href="#e" width="8.6" height="11.6" transform="matrix(.9144 0 0 1.2293 -3.95 -18.7)"/><use xlink:href="#f" width="8.3" height="5.6" transform="matrix(-1.1215 -.6003 .047 1.2227 4.4 -12.35)"/><use xlink:href="#g" width="3.4" height="3.4" transform="translate(-4.95 -6)"/><use xlink:href="#d" width="8.9" height="5.3" transform="matrix(.0801 .3519 .4447 .1868 .2 -6.05)"/><use xlink:href="#h" width="4.8" height="3.3" transform="rotate(166.484 -.574 -4.783)scale(.996)"/></g></g><g clip-path="url(#aZ)"><g transform="translate(3304.3 65.6)"><use xlink:href="#c" width="9.2" height="4.3" transform="matrix(.6614 0 0 .7349 -3.7 -1.35)"/><use xlink:href="#d" width="8.9" height="5.3" transform="matrix(-.2524 .2516 -.2985 -.2995 -.7 -6.25)"/><use xlink:href="#e" width="8.6" height="11.6" transform="matrix(.9052 0 0 1.254 -3.9 -19.3)"/><use xlink:href="#f" width="8.3" height="5.6" transform="matrix(-1.1102 -.6124 .0465 1.2472 4.4 -12.75)"/><use xlink:href="#g" width="3.4" height="3.4" transform="translate(-4.95 -6.8)"/><use xlink:href="#d" width="8.9" height="5.3" transform="matrix(.1472 .3293 .4729 .0964 -.25 -6.4)"/><use xlink:href="#h" width="4.8" height="3.3" transform="rotate(181.8 -1.481 -5.153)scale(.9966)"/></g></g><g clip-path="url(#ba)"><g transform="translate(3341.3 65.6)"><use xlink:href="#c" width="9.2" height="4.3" transform="matrix(.6614 0 0 .7349 -3.7 -1.35)"/><use xlink:href="#d" width="8.9" height="5.3" transform="matrix(-.1984 .296 -.3511 -.2354 -1.05 -7.55)"/><use xlink:href="#e" width="8.6" height="11.6" transform="matrix(.8986 0 0 1.2716 -3.85 -19.7)"/><use xlink:href="#f" width="8.3" height="5.6" transform="matrix(-1.1021 -.621 .0461 1.2647 4.35 -13.05)"/><use xlink:href="#g" width="3.4" height="3.4" transform="translate(-4.95 -7.45)"/><use xlink:href="#d" width="8.9" height="5.3" transform="matrix(.2086 .294 .4829 .0022 -.8 -6.75)"/><use xlink:href="#h" width="4.8" height="3.3" transform="rotate(192.815 -2.132 -5.457)scale(.996)"/></g></g><g clip-path="url(#bb)"><g transform="translate(3378.3 65.6)"><use xlink:href="#c" width="9.2" height="4.3" transform="matrix(.6614 0 0 .7349 -3.7 -1.35)"/><use xlink:href="#d" width="8.9" height="5.3" transform="matrix(-.1483 .324 -.3844 -.1759 -1.5 -8.65)"/><use xlink:href="#e" width="8.6" height="11.6" transform="matrix(.8946 0 0 1.2822 -3.85 -20)"/><use xlink:href="#f" width="8.3" height="5.6" transform="matrix(-1.0973 -.6261 .0459 1.2753 4.35 -13.3)"/><use xlink:href="#g" width="3.4" height="3.4" transform="translate(-4.95 -8)"/><use xlink:href="#d" width="8.9" height="5.3" transform="matrix(.2621 .2475 .474 -.0904 -1.25 -7.1)"/><use xlink:href="#h" width="4.8" height="3.3" transform="rotate(199.547 -2.596 -5.654)scale(.9956)"/></g></g><g clip-path="url(#bc)"><g transform="translate(3415.3 65.6)"><use xlink:href="#c" width="9.2" height="4.3" transform="matrix(.6614 0 0 .7349 -3.7 -1.35)"/><use xlink:href="#d" width="8.9" height="5.3" transform="rotate(102.527 2.966 -5.797)scale(.3564 .4228)"/><use xlink:href="#e" width="8.6" height="11.6" transform="matrix(.8933 0 0 1.2794 -3.85 -19.95)"/><use xlink:href="#f" width="8.3" height="5.6" transform="matrix(-1.0957 -.6248 .0459 1.2725 4.3 -13.25)"/><use xlink:href="#g" width="3.4" height="3.4" transform="translate(-4.95 -8.75)"/><use xlink:href="#d" width="8.9" height="5.3" transform="matrix(.2556 .2543 .4763 -.0781 -1.15 -7.05)"/><use xlink:href="#h" width="4.8" height="3.3" transform="matrix(-.9263 -.3797 .3776 -.921 -3.15 -11.85)"/></g></g><g clip-path="url(#bd)"><g transform="translate(3452.3 65.6)"><use xlink:href="#c" width="9.2" height="4.3" transform="matrix(.6614 0 0 .7349 -3.7 -1.35)"/><use xlink:href="#d" width="8.9" height="5.3" transform="matrix(-.0589 .3515 -.417 -.0699 -2.2 -10.2)"/><use xlink:href="#e" width="8.6" height="11.6" transform="matrix(.8933 0 0 1.2603 -3.85 -19.45)"/><use xlink:href="#f" width="8.3" height="5.6" transform="matrix(-1.0957 -.6155 .0459 1.2536 4.3 -12.9)"/><use xlink:href="#g" width="3.4" height="3.4" transform="translate(-4.95 -8.95)"/><use xlink:href="#d" width="8.9" height="5.3" transform="matrix(.1941 .3039 .4822 .0257 -.65 -6.85)"/><use xlink:href="#h" width="4.8" height="3.3" transform="matrix(-.9315 -.4109 .4017 -.9106 -3.3 -11.6)"/></g></g><g clip-path="url(#be)"><g transform="translate(3489.3 65.6)"><use xlink:href="#c" width="9.2" height="4.3" transform="matrix(.6614 0 0 .7349 -3.7 -1.35)"/><use xlink:href="#d" width="8.9" height="5.3" transform="matrix(-.0527 .3526 -.4184 -.0625 -2.2 -10.4)"/><use xlink:href="#e" width="8.6" height="11.6" transform="matrix(.8933 0 0 1.2286 -3.85 -18.7)"/><use xlink:href="#f" width="8.3" height="5.6" transform="matrix(-1.0957 -.6 .0459 1.222 4.3 -12.35)"/><use xlink:href="#g" width="3.4" height="3.4" transform="translate(-4.95 -9)"/><use xlink:href="#d" width="8.9" height="5.3" transform="matrix(.1222 .3395 .4644 .1313 -.05 -6.5)"/><use xlink:href="#h" width="4.8" height="3.3" transform="matrix(-.938 -.4641 .4413 -.8919 -3.4 -11.1)"/></g></g><g clip-path="url(#bf)"><g transform="translate(3526.3 65.6)"><use xlink:href="#c" width="9.2" height="4.3" transform="matrix(.6614 0 0 .7349 -3.7 -1.35)"/><use xlink:href="#d" width="8.9" height="5.3" transform="matrix(-.1469 .3246 -.3851 -.1743 -1.4 -8.9)"/><use xlink:href="#e" width="8.6" height="11.6" transform="matrix(.8933 0 0 1.1842 -3.85 -17.65)"/><use xlink:href="#f" width="8.3" height="5.6" transform="matrix(-1.0957 -.5783 .0459 1.1778 4.3 -11.5)"/><use xlink:href="#g" width="3.4" height="3.4" transform="translate(-4.95 -8.15)"/><use xlink:href="#d" width="8.9" height="5.3" transform="matrix(.0443 .3584 .4237 .2306 .7 -6.1)"/><use xlink:href="#h" width="4.8" height="3.3" transform="matrix(-.942 -.5407 .4952 -.8628 -3.5 -10.4)"/></g></g><g clip-path="url(#bg)"><g transform="translate(3563.3 65.6)"><use xlink:href="#c" width="9.2" height="4.3" transform="matrix(.6614 0 0 .7349 -3.7 -1.35)"/><use xlink:href="#d" width="8.9" height="5.3" transform="matrix(-.2309 .2714 -.322 -.2739 -.85 -7.15)"/><use xlink:href="#e" width="8.6" height="11.6" transform="matrix(.8933 0 0 1.1271 -3.85 -16.25)"/><use xlink:href="#f" width="8.3" height="5.6" transform="matrix(-1.0957 -.5504 .0459 1.121 4.3 -10.4)"/><use xlink:href="#g" width="3.4" height="3.4" transform="translate(-4.95 -7.35)"/><use xlink:href="#d" width="8.9" height="5.3" transform="matrix(-.0334 .3596 .3633 .3173 1.35 -5.5)"/><use xlink:href="#h" width="4.8" height="3.3" transform="matrix(-.9364 -.6454 .5645 -.8189 -3.7 -9.65)"/></g></g><g clip-path="url(#bh)"><g transform="translate(3600.3 65.6)"><use xlink:href="#c" width="9.2" height="4.3" transform="matrix(.6614 0 0 .7349 -3.7 -1.35)"/><use xlink:href="#d" width="8.9" height="5.3" transform="matrix(-.2971 .1971 -.2339 -.3525 -.4 -5.35)"/><use xlink:href="#e" width="8.6" height="11.6" transform="matrix(.8933 0 0 1.0573 -3.85 -14.6)"/><use xlink:href="#f" width="8.3" height="5.6" transform="matrix(-1.0957 -.5163 .0459 1.0516 4.3 -9.15)"/><use xlink:href="#g" width="3.4" height="3.4" transform="translate(-4.95 -6.5)"/><use xlink:href="#d" width="8.9" height="5.3" transform="matrix(-.1118 .3432 .2842 .3898 2.2 -4.75)"/><use xlink:href="#h" width="4.8" height="3.3" transform="matrix(-.9174 -.7732 .6408 -.7603 -3.8 -8.6)"/></g></g><g clip-path="url(#bi)"><g transform="translate(3637.3 65.6)"><use xlink:href="#c" width="9.2" height="4.3" transform="matrix(.6614 0 0 .7349 -3.7 -1.35)"/><use xlink:href="#d" width="8.9" height="5.3" transform="matrix(-.3404 .1075 -.1275 -.4038 -.15 -3.55)"/><use xlink:href="#e" width="8.6" height="11.6" transform="matrix(.8933 0 0 .9749 -3.85 -12.6)"/><use xlink:href="#f" width="8.3" height="5.6" transform="matrix(-1.0957 -.4761 .0459 .9696 4.3 -7.55)"/><use xlink:href="#g" width="3.4" height="3.4" transform="translate(-4.95 -5.65)"/><use xlink:href="#d" width="8.9" height="5.3" transform="matrix(-.1848 .3099 .1911 .4431 3 -3.85)"/><use xlink:href="#h" width="4.8" height="3.3" transform="matrix(-.8708 -.9296 .7255 -.6796 -4.05 -7.4)"/></g></g><g clip-path="url(#bj)"><g transform="translate(3674.3 65.6)"><use xlink:href="#c" width="9.2" height="4.3" transform="matrix(.6614 0 0 .7349 -3.7 -1.35)"/><use xlink:href="#d" width="8.9" height="5.3" transform="matrix(-.3573 .0094 -.0111 -.4239 -.05 -1.8)"/><use xlink:href="#e" width="8.6" height="11.6" transform="matrix(.8933 0 0 .8797 -3.85 -10.3)"/><use xlink:href="#f" width="8.3" height="5.6" transform="matrix(-1.0957 -.4296 .0459 .875 4.3 -5.75)"/><use xlink:href="#g" width="3.4" height="3.4" transform="translate(-4.95 -4.85)"/><use xlink:href="#d" width="8.9" height="5.3" transform="matrix(-.2479 .2622 .0902 .4744 3.65 -2.85)"/><use xlink:href="#h" width="4.8" height="3.3" transform="matrix(-.7905 -1.1056 .8085 -.5781 -4.15 -6.1)"/></g></g><g clip-path="url(#bk)"><g transform="translate(3711.3 65.6)"><use xlink:href="#c" width="9.2" height="4.3" transform="matrix(.6614 0 0 .7349 -3.7 -1.35)"/><use xlink:href="#d" width="8.9" height="5.3" transform="matrix(-.3463 -.0894 .1061 -.4108 -.15 -.05)"/><use xlink:href="#e" width="8.6" height="11.6" transform="matrix(.8933 0 0 .7719 -3.85 -7.75)"/><use xlink:href="#f" width="8.3" height="5.6" transform="matrix(-1.0957 -.3769 .0459 .7677 4.3 -3.75)"/><use xlink:href="#g" width="3.4" height="3.4" transform="translate(-4.95 -4)"/><use xlink:href="#d" width="8.9" height="5.3" transform="matrix(-.3001 .2013 -.016 .483 4.35 -1.75)"/><use xlink:href="#h" width="4.8" height="3.3" transform="matrix(-.6581 -1.3012 .8881 -.4491 -4.25 -4.55)"/></g></g></svg>