<svg xmlns="http://www.w3.org/2000/svg" xmlns:xlink="http://www.w3.org/1999/xlink" width="365" height="47" viewBox="0 0 365 47"><defs><clipPath id="c"><path d="M1 1h27v45H1z"/></clipPath><clipPath id="j"><path d="M29 1h27v45H29z"/></clipPath><clipPath id="k"><path d="M57 1h27v45H57z"/></clipPath><clipPath id="l"><path d="M85 1h27v45H85z"/></clipPath><clipPath id="m"><path d="M113 1h27v45h-27z"/></clipPath><clipPath id="n"><path d="M141 1h27v45h-27z"/></clipPath><clipPath id="o"><path d="M169 1h27v45h-27z"/></clipPath><clipPath id="p"><path d="M197 1h27v45h-27z"/></clipPath><clipPath id="q"><path d="M225 1h27v45h-27z"/></clipPath><clipPath id="r"><path d="M253 1h27v45h-27z"/></clipPath><clipPath id="s"><path d="M281 1h27v45h-27z"/></clipPath><clipPath id="t"><path d="M309 1h27v45h-27z"/></clipPath><clipPath id="u"><path d="M337 1h27v45h-27z"/></clipPath><path id="a" fill="#221c18" d="M-.6-13.9q-1.1-5.2-6.3-.6 4.2-9.5 5.3-15.8Q3.3-22.8 7-9.5q-2.5-4.3-5.8-3.9v.3Q.2-6.7.2 6.2 0 19 .7 29.2l-.2.8-.7.3-.7-.2q-.2-.3-.3-15.3 0-18.2.9-24.7 1-6.8-.4-4" transform="translate(6.95 30.35)"/><path id="b" fill="#382c16" d="M0-2.5q2.4 0 4 .8 1.6.6 1.7 1.7Q5.6 1.1 4 1.9t-4 .7-4-.8T-5.6 0t1.7-1.8T0-2.5" transform="translate(5.6 2.5)"/><path id="i" fill="#fff" d="m9.6-7.7.4-.1q2 1.7 3.6 5.6 1 2.6.9 4.2l-.1 1.3Q12.9 1.9 12-.8l1 1q.2-.8-.6-2.5l-1.5-2.2zm.9 7.6 1.2 2.7q.6 1 1.2 1.4V3q-.2-.8-.8-1.8l2 3q.5 2 0 2.8-.2.7-1.2-.4-1.8-2.4-3-5.4l-.5-2z" transform="translate(-9.45 7.85)"/><path id="g" fill="#000" d="M14.4-2.2q1.8 4 2.1 8.2.5 6.8-5 10.1T-1 19.7t-11.5-3.3-3-10.4q.9-4.5 3.7-8.9l1.6-2.4 1.5-2q5.4-6.4 10.5-5.9t9.7 6.5v.1l.3.2q1.5 2.1 2.5 4.3" transform="translate(15.85 13.35)"/><use xlink:href="#a" id="h" width="13.9" height="60.6"/><use xlink:href="#b" id="d" width="11.3" height="5"/><g id="f"><path fill="#6b582c" d="m8.4 3.1-.8-1.2Q6.8.7 5.5.9-.5 2 1.9 7.4q.9 2 .9 4.4 0 4.3 3.4 5.5 1 .6 1.5-.3 3.4-6.8.7-13.9m1.5 12.8q-.7 2.6-3.2 2.3-4-.3-4.4-4.7-.1-2.2-1-3.7-2.7-4.2.1-8Q3-.2 5.2 0q4.4.8 5 5.6 1 5.2-.3 10.3"/><path fill="#f0bf1a" d="M8.4 3.1q2.7 7-.7 13.9-.4.9-1.5.4-3.3-1.2-3.4-5.5 0-2.4-1-4.5Q-.4 2 5.6.9q1.3-.2 2 1z"/></g><g id="e"><path fill="#4a3d1e" d="m8.4 3.1-.8-1.2Q6.8.7 5.5.9-.5 2 1.9 7.4q.9 2 .9 4.4 0 4.3 3.4 5.5 1 .6 1.5-.3 3.4-6.8.7-13.9m1.5 12.8q-.7 2.6-3.2 2.3-4-.3-4.4-4.7-.1-2.2-1-3.7-2.7-4.2.1-8Q3-.2 5.2 0q4.4.8 5 5.6 1 5.2-.3 10.3"/><path fill="#a78512" d="M8.4 3.1q2.7 7-.7 13.9-.4.9-1.5.4-3.3-1.2-3.4-5.5 0-2.4-1-4.5Q-.4 2 5.6.9q1.3-.2 2 1z"/></g></defs><g clip-path="url(#c)"><g transform="translate(16.45 42.7)"><use xlink:href="#d" width="11.3" height="5" transform="translate(-4.65 -2.15)"/><use xlink:href="#e" width="10.7" height="18.3" transform="matrix(-.3234 -.4613 -.4326 .1322 4.8 -2.35)"/><use xlink:href="#f" width="10.7" height="18.3" transform="matrix(-.0277 .4839 -.4705 -.0186 6.3 -2.7)"/><use xlink:href="#g" width="32.5" height="33" transform="matrix(-.4996 .0068 -.1107 .5032 4.4 -17.7)"/><use xlink:href="#h" width="13.9" height="60.6" transform="matrix(.4996 -.0068 -.0621 .5026 1.9 -40.8)"/><use xlink:href="#i" width="5" height="15.2" transform="matrix(-.4996 .0068 -.1107 .5032 -8.85 -14.75)"/></g></g><g clip-path="url(#j)"><g transform="translate(44.45 42.7)"><use xlink:href="#d" width="11.3" height="5" transform="translate(-4.65 -2.15)"/><use xlink:href="#e" width="10.7" height="18.3" transform="matrix(-.3234 -.4613 -.4326 .1322 4.8 -2.35)"/><use xlink:href="#f" width="10.7" height="18.3" transform="matrix(-.0277 .4839 -.4705 -.0186 6.3 -2.7)"/><use xlink:href="#g" width="32.5" height="33" transform="matrix(-.4995 .0135 -.0494 .5086 4.5 -17.95)"/><use xlink:href="#h" width="13.9" height="60.6" transform="matrix(.4995 -.0135 -.0008 .5073 -.85 -41.3)"/><use xlink:href="#i" width="5" height="15.2" transform="matrix(-.4995 .0135 -.0494 .5086 -8.45 -14.8)"/></g></g><g clip-path="url(#k)"><g transform="translate(72.45 42.7)"><use xlink:href="#d" width="11.3" height="5" transform="translate(-4.65 -2.15)"/><use xlink:href="#e" width="10.7" height="18.3" transform="matrix(-.3234 -.4613 -.4326 .1322 4.8 -2.35)"/><use xlink:href="#f" width="10.7" height="18.3" transform="matrix(-.0277 .4839 -.4705 -.0186 6.3 -2.7)"/><use xlink:href="#g" width="32.5" height="33" transform="matrix(-.4992 .022 .0089 .507 4.55 -18.2)"/><use xlink:href="#h" width="13.9" height="60.6" transform="matrix(.4992 -.022 .0575 .5049 -3.45 -41.35)"/><use xlink:href="#i" width="5" height="15.2" transform="matrix(-.4992 .022 .0089 .507 -8.05 -14.85)"/></g></g><g clip-path="url(#l)"><g transform="translate(100.45 42.7)"><use xlink:href="#d" width="11.3" height="5" transform="translate(-4.65 -2.15)"/><use xlink:href="#e" width="10.7" height="18.3" transform="matrix(-.3234 -.4613 -.4326 .1322 4.8 -2.35)"/><use xlink:href="#f" width="10.7" height="18.3" transform="matrix(-.0277 .4839 -.4705 -.0186 6.3 -2.7)"/><use xlink:href="#g" width="32.5" height="33" transform="matrix(-.4989 .0306 .0676 .4984 4.65 -18.35)"/><use xlink:href="#h" width="13.9" height="60.6" transform="matrix(.4989 -.0306 .1161 .4955 -6.1 -40.9)"/><use xlink:href="#i" width="5" height="15.2" transform="matrix(-.4989 .0306 .0676 .4984 -7.6 -14.8)"/></g></g><g clip-path="url(#m)"><g transform="translate(128.45 42.7)"><use xlink:href="#d" width="11.3" height="5" transform="translate(-4.65 -2.15)"/><use xlink:href="#e" width="10.7" height="18.3" transform="matrix(-.3234 -.4613 -.4326 .1322 4.8 -2.35)"/><use xlink:href="#f" width="10.7" height="18.3" transform="matrix(-.0277 .4839 -.4705 -.0186 6.3 -2.7)"/><use xlink:href="#g" width="32.5" height="33" transform="matrix(-.4989 .0288 .0658 .4985 4.75 -18.3)"/><use xlink:href="#h" width="13.9" height="60.6" transform="matrix(.4989 -.0288 .1144 .4957 -5.9 -40.95)"/><use xlink:href="#i" width="5" height="15.2" transform="matrix(-.4989 .0288 .0658 .4985 -7.55 -14.85)"/></g></g><g clip-path="url(#n)"><g transform="translate(156.45 42.7)"><use xlink:href="#d" width="11.3" height="5" transform="translate(-4.65 -2.15)"/><use xlink:href="#e" width="10.7" height="18.3" transform="matrix(-.3234 -.4613 -.4326 .1322 4.8 -2.35)"/><use xlink:href="#f" width="10.7" height="18.3" transform="matrix(-.0277 .4839 -.4705 -.0186 6.3 -2.7)"/><use xlink:href="#g" width="32.5" height="33" transform="matrix(-.4989 .0285 .0616 .499 4.9 -18.3)"/><use xlink:href="#h" width="13.9" height="60.6" transform="matrix(.4989 -.0285 .1101 .4962 -5.55 -40.95)"/><use xlink:href="#i" width="5" height="15.2" transform="matrix(-.4989 .0285 .0616 .499 -7.4 -14.85)"/></g></g><g clip-path="url(#o)"><g transform="translate(184.45 42.7)"><use xlink:href="#d" width="11.3" height="5" transform="translate(-4.65 -2.15)"/><use xlink:href="#e" width="10.7" height="18.3" transform="matrix(-.3234 -.4613 -.4326 .1322 4.8 -2.35)"/><use xlink:href="#f" width="10.7" height="18.3" transform="matrix(-.0277 .4839 -.4705 -.0186 6.3 -2.7)"/><use xlink:href="#g" width="32.5" height="33" transform="matrix(-.499 .0264 .055 .4996 5.2 -18.25)"/><use xlink:href="#h" width="13.9" height="60.6" transform="matrix(.499 -.0264 .1036 .4971 -4.95 -40.95)"/><use xlink:href="#i" width="5" height="15.2" transform="matrix(-.499 .0264 .055 .4996 -7.15 -14.8)"/></g></g><g clip-path="url(#p)"><g transform="translate(212.45 42.7)"><use xlink:href="#d" width="11.3" height="5" transform="translate(-4.65 -2.15)"/><use xlink:href="#e" width="10.7" height="18.3" transform="matrix(-.3234 -.4613 -.4326 .1322 4.8 -2.35)"/><use xlink:href="#f" width="10.7" height="18.3" transform="matrix(-.0277 .4839 -.4705 -.0186 6.3 -2.7)"/><use xlink:href="#g" width="32.5" height="33" transform="matrix(-.4992 .0241 .0461 .5005 5.6 -18.3)"/><use xlink:href="#h" width="13.9" height="60.6" transform="matrix(.4992 -.0241 .0947 .4981 -4.15 -41.1)"/><use xlink:href="#i" width="5" height="15.2" transform="matrix(-.4992 .0241 .0461 .5005 -6.8 -14.95)"/></g></g><g clip-path="url(#q)"><g transform="translate(240.45 42.7)"><use xlink:href="#d" width="11.3" height="5" transform="translate(-4.65 -2.15)"/><use xlink:href="#e" width="10.7" height="18.3" transform="matrix(-.3234 -.4613 -.4326 .1322 4.8 -2.35)"/><use xlink:href="#f" width="10.7" height="18.3" transform="matrix(-.0277 .4839 -.4705 -.0186 6.3 -2.7)"/><use xlink:href="#g" width="32.5" height="33" transform="matrix(-.4994 .02 .0333 .5013 6.05 -18.25)"/><use xlink:href="#h" width="13.9" height="60.6" transform="matrix(.4994 -.02 .082 .4994 -3.05 -41.1)"/><use xlink:href="#i" width="5" height="15.2" transform="matrix(-.4994 .02 .0333 .5013 -6.4 -15)"/></g></g><g clip-path="url(#r)"><g transform="translate(268.45 42.7)"><use xlink:href="#d" width="11.3" height="5" transform="translate(-4.65 -2.15)"/><use xlink:href="#e" width="10.7" height="18.3" transform="matrix(-.3234 -.4613 -.4326 .1322 4.8 -2.35)"/><use xlink:href="#f" width="10.7" height="18.3" transform="matrix(-.0277 .4839 -.4705 -.0186 6.3 -2.7)"/><use xlink:href="#g" width="32.5" height="33" transform="matrix(-.4996 .0157 .0199 .5019 6.65 -18.15)"/><use xlink:href="#h" width="13.9" height="60.6" transform="matrix(.4996 -.0157 .0685 .5004 -1.9 -41.15)"/><use xlink:href="#i" width="5" height="15.2" transform="matrix(-.4996 .0157 .0199 .5019 -5.9 -15)"/></g></g><g clip-path="url(#s)"><g transform="translate(296.45 42.7)"><use xlink:href="#d" width="11.3" height="5" transform="translate(-4.65 -2.15)"/><use xlink:href="#e" width="10.7" height="18.3" transform="matrix(-.3234 -.4613 -.4326 .1322 4.8 -2.35)"/><use xlink:href="#f" width="10.7" height="18.3" transform="matrix(-.0277 .4839 -.4705 -.0186 6.3 -2.7)"/><use xlink:href="#g" width="32.5" height="33" transform="matrix(-.4997 .0112 .0024 .5021 7.45 -18)"/><use xlink:href="#h" width="13.9" height="60.6" transform="matrix(.4997 -.0112 .0511 .501 -.25 -41.05)"/><use xlink:href="#i" width="5" height="15.2" transform="matrix(-.4997 .0112 .0024 .5021 -5.2 -14.95)"/></g></g><g clip-path="url(#t)"><g transform="translate(324.45 42.7)"><use xlink:href="#d" width="11.3" height="5" transform="translate(-4.65 -2.15)"/><use xlink:href="#e" width="10.7" height="18.3" transform="matrix(-.3234 -.4613 -.4326 .1322 4.8 -2.35)"/><use xlink:href="#f" width="10.7" height="18.3" transform="matrix(-.0277 .4839 -.4705 -.0186 6.3 -2.7)"/><use xlink:href="#g" width="32.5" height="33" transform="matrix(-.4999 .0049 -.0157 .5015 8.3 -17.85)"/><use xlink:href="#h" width="13.9" height="60.6" transform="matrix(.4999 -.0049 .033 .5011 1.35 -40.95)"/><use xlink:href="#i" width="5" height="15.2" transform="matrix(-.4999 .0049 -.0157 .5015 -4.45 -15)"/></g></g><g clip-path="url(#u)"><g transform="translate(352.45 42.7)"><use xlink:href="#d" width="11.3" height="5" transform="translate(-4.65 -2.15)"/><use xlink:href="#e" width="10.7" height="18.3" transform="matrix(-.3234 -.4613 -.4326 .1322 4.8 -2.35)"/><use xlink:href="#f" width="10.7" height="18.3" transform="matrix(-.0277 .4839 -.4705 -.0186 6.3 -2.7)"/><use xlink:href="#g" width="32.5" height="33" transform="matrix(-.5 0 -.0391 .5 9.3 -17.85)"/><use xlink:href="#h" width="13.9" height="60.6" transform="matrix(.5 0 .0096 .5 3.5 -40.95)"/><use xlink:href="#i" width="5" height="15.2" transform="matrix(-.5 0 -.0391 .5 -3.55 -15.1)"/></g></g></svg>