<svg xmlns="http://www.w3.org/2000/svg" xmlns:xlink="http://www.w3.org/1999/xlink" width="10" height="10" viewBox="0 0 10 10"><defs><clipPath id="a"><path d="M1 1h8v8H1z"/></clipPath><g id="b"><path fill="#b6ebe4" d="m6.8.7.4-.7-.4 3.6-.4 1.6.4 1.7q0 .5-1.3.7-.6-.5-.1-3.2.5-2.3 1.4-3.7"/><path fill="#73d9c4" d="M5.5 7.6q-1.6.2-3.3-.1Q-.2 7 0 5.7q1.4-2.6 1.4-4.4V.8Q2 .3 3.1.1l1-.1 2.6.7Q6 2 5.5 4.4q-.5 2.7 0 3.2M2 4.8Q3.1 3.3 3.1 0q0 3.2-1.1 4.7"/><path fill="none" stroke="#000" stroke-linecap="round" stroke-linejoin="round" stroke-opacity=".5" stroke-width="__RESOLUTION__" d="m6.8.7.4-.7-.4 3.6-.4 1.6.4 1.7M0 5.7q1.4-2.6 1.4-4.4V.8M3.2 0q0 3.2-1.1 4.7" vector-effect="non-scaling-stroke"/></g></defs><g clip-path="url(#a)"><use xlink:href="#b" width="7.2" height="7.7" transform="translate(1 1)"/></g></svg>