<svg xmlns="http://www.w3.org/2000/svg" xmlns:xlink="http://www.w3.org/1999/xlink" width="1519" height="194" viewBox="0 0 1519 194"><defs><use xlink:href="#a" id="b" width="22.9" height="21.6"/><use xlink:href="#b" id="I" width="22.9" height="21.6" transform="matrix(-1 0 0 1 29.95 4.5)"/><use xlink:href="#b" id="F" width="22.9" height="21.6" transform="matrix(-1.06 0 0 1.06 30.65 4)"/><use xlink:href="#b" id="D" width="22.9" height="21.6" transform="matrix(-1.13 0 0 1.13 31.35 3.55)"/><use xlink:href="#b" id="B" width="22.9" height="21.6" transform="matrix(-1.19 0 0 1.19 32.1 3)"/><use xlink:href="#b" id="z" width="22.9" height="21.6" transform="matrix(-1.26 0 0 1.26 32.8 2.5)"/><use xlink:href="#b" id="x" width="22.9" height="21.6" transform="matrix(-1.32 0 0 1.32 33.5 2)"/><use xlink:href="#b" id="v" width="22.9" height="21.6" transform="matrix(-1.39 0 0 1.39 34.2 1.55)"/><use xlink:href="#b" id="t" width="22.9" height="21.6" transform="matrix(-1.45 0 0 1.45 34.9 1)"/><use xlink:href="#b" id="r" width="22.9" height="21.6" transform="matrix(-1.52 0 0 1.52 35.65 .5)"/><use xlink:href="#b" id="p" width="22.9" height="21.6" transform="matrix(-1.58 0 0 1.58 36.35 0)"/><use xlink:href="#c" id="i" width="13.7" height="19.1"/><use xlink:href="#d" id="h" width="27.4" height="51.3"/><use xlink:href="#e" id="g" width="14.7" height="4.3"/><clipPath id="f"><path d="M1 1h137v192H1z"/></clipPath><clipPath id="q"><path d="M139 1h137v192H139z"/></clipPath><clipPath id="s"><path d="M277 1h137v192H277z"/></clipPath><clipPath id="u"><path d="M415 1h137v192H415z"/></clipPath><clipPath id="w"><path d="M553 1h137v192H553z"/></clipPath><clipPath id="y"><path d="M691 1h137v192H691z"/></clipPath><clipPath id="A"><path d="M829 1h137v192H829z"/></clipPath><clipPath id="C"><path d="M967 1h137v192H967z"/></clipPath><clipPath id="E"><path d="M1105 1h137v192h-137z"/></clipPath><clipPath id="G"><path d="M1243 1h137v192h-137z"/></clipPath><clipPath id="H"><path d="M1381 1h137v192h-137z"/></clipPath><g id="a"><path fill="#fff" d="M7.5 0q2 3.1 4 4.9 1.5 1.2 3.9.5Q17 5 20.7 3q-1.6 2.6-2 4.5-.3 1.2.6 2.3 1 1.3 3.6 1.7-1.2 0-2.4.8-1 .6-1.3 1.3-.5 1 .5 2.7.7 1.5 2.7 3.8-6.6-3.5-9.2-1.8-2.1 1.5-2.9 3.3 0-1.7-.3-2.4-.5-2.1-1.8-2.5-3-1-7.4.4.8-.5 2.3-2.6 1-1.2.6-3.1Q3.3 8.7 0 6.2l3.4.4 2.9-.4q1-.3 1.2-6.1z"/><path fill="#35479e" d="M12.2 13.7h-.7l-.6-.4-3.5-6.1q-.2-.3 0-.8l.7-.6L9.5 5l.9-.1q.4 0 .5.5-2.3.8-2.5 1.4 2.5 5.3 3.7 6.9m1.9 4h-.7q-.7-.1-.9-.6t0-1.2q.3-.5 1-.9.3-.2.7-.2-1.2.4-1 1.7 0 1.2 1 1.2z"/><path fill="#578afd" d="M12.2 13.7q-1.3-1.6-3.7-6.9.1-.6 2.4-1.5l2.4 6.6v.8l-.6.7-.3.2zm1.9 1 .5.1q.5.2.8.7.2.5 0 1.1l-.9 1-.4.1q-1 0-1-1.3-.2-1.2 1-1.6"/></g><g id="c"><path fill="#996" d="M12.3 10.3q-1.5 3.7-4 6.1-2.5 2.5-4.7 2.2-2.3-.4-2.9-3.2t.7-6.6q1.4-3.7 3.9-6.1T10.1.5 13 3.8t-.7 6.5"/><path fill="none" stroke="#000" stroke-linecap="round" stroke-linejoin="round" stroke-width="1" d="M12.3 10.3q-1.5 3.7-4 6.1-2.5 2.5-4.7 2.2-2.3-.4-2.9-3.2t.7-6.6q1.4-3.7 3.9-6.1T10.1.5 13 3.8t-.7 6.5"/><path fill="#bcbc9c" d="M11 6.5q-1.6 6-3.8 8.4-2.7 2.8-3 1.4-.5-1.4-1.2-.4-.8.9 1.1-1.6 1.9-2.6 7-7.8"/></g><g id="d"><path fill="#996" d="M4.4 7.3Q8.3.5 13.8.5T23 7.3q4 6.7 4 16.3T23 40t-9.3 6.8T4.4 40 .5 23.7 4.4 7.3"/><path fill="none" stroke="#000" stroke-linecap="round" stroke-linejoin="round" stroke-width="1" d="M4.4 7.3Q8.3.5 13.8.5T23 7.3q4 6.7 4 16.3T23 40t-9.3 6.8T4.4 40 .5 23.7 4.4 7.3"/><path fill="#000" d="M13.9 50.6q-7.5 2-11.4-1.8Q-1.3 45 .8 37.4q.6-2.5 1.8-4.8l18.5 14.8q-3.6 2.1-7.2 3.1"/><path fill="#bcbc9c" d="M14.7 6.7q1.1-2.7 1.8 15.7.5 18.4-13.3 11Q2.6 18.7 5.8 12q4-8.3 5.9-5.5t3 .2"/></g><g id="o"><path fill="#f6f" d="m12 9.7.1 1 .6 2.3v.5q-.4-.7-.9-.7-.7 0-1.1 1l-.4 1.3v1.1l.2 1.9h-.2l-.6.1-.5-.8q-1.2-.1-2-1.9l-.2-.7q-1.3-.1-2.2-2.2t-1-5.2L4 5.1l.7-3Q5.8 0 7.3 0t2.3 2.2q.6 1.3.9 3l.8 1.4q.7 1.4.9 3.1m-5.5-.6-.2 2q0 2.1.6 3.7-.6-1.6-.6-3.8zm2 3.4L8.5 14q0 1.9.6 3.3v.1-.1q-.6-1.4-.6-3.3z"/><path fill="#f90" d="m12.7 13.5.2.3.4 1.7v.7l-.2 1.7q-.4 0-.7.4H12l-.2.1-.3-.1-.2.1-.4-.1-.1-.1-.5-.1-.2-1.8.1-1.2.4-1.3q.4-1 1.1-1 .5 0 .9.7"/><path fill="#75754f" d="M13.2 17.9q1.4.5 2 2 1 2 2.4 3.7l.6.5q1.3 1.3 1.8 2.9l.4.9-.1.4q.3.7 1 1.2l.1.1-1-.7h-.2v-.2l-.1-.1q-.7 0-1.2-.6v-.1q-1.4-.6-2.4-1.7l1.4 3.2.7 1.6-.1.1q-1 .8-1 1.6h-.2q-.7 0-1.1.3l-2.9-6.1.1 1.5q.1 2.6-.8 4.9l-.5.7v.2H12v-.3l-.4-.3-.2-.2V33q-.9-3.7-.7-7.5l-.1-1.8-1.3.9-.3.4-.2.2h-.1l.2-.5.2-.2q-.2-.4 0-.8l.2-.2V23L6 25.2l-1.6.5h-.5q-1 .7-1.9.4l-1.9.7 1.6-1 .1-.1v-.2q.6-.6 1.4-1 .7-1 1.8-1.7l1-.6q1.7-1 3-2.4V19l.4-.5.4-.3.6-.1h.2l.4.1h.1l.4.2.2-.1.3.1h.2l.2-.1q.4-.4.9-.4"/><path fill="none" stroke="#000" stroke-linecap="round" stroke-linejoin="round" stroke-width="__RESOLUTION__" d="m12 9.7.1 1m.6 2.3v.5m.6 2v.8l-.1 1.5m-3.5.4-.5-.8q-1.2-.1-2-1.9l-.2-.7q-1.3-.1-2.2-2.2t-1-5.2L4 5.1m3 9.7q-.6-1.6-.6-3.7l.1-2m2.7 8.3-.1-.1q-.6-1.4-.6-3.3l.1-1.4m1.9 5.5-.3-1.8.1-1.2" vector-effect="non-scaling-stroke"/></g><g id="l"><path fill="#996" d="M4.7 30.2Q.3 25.6.5 19.6q.2-8 8.3-13.7 8-5.6 18-5.4t17 6.5 8.8 12.4T50 30.2q-62.8-33.6-45.2 0"/><path fill="#75754f" d="m49.9 30.2-3.5 3q-8.1 5.7-19.3 5.7t-19-5.7l-3.4-3q-17.6-33.6 45.2 0"/><path fill="none" stroke="#000" stroke-linecap="round" stroke-linejoin="round" stroke-width="1" d="M4.7 30.2Q.3 25.6.5 19.6q.2-8 8.3-13.7 8-5.6 18-5.4t17 6.5 8.8 12.4T50 30.2l-3.5 3q-8.1 5.7-19.3 5.7t-19-5.7z"/><path fill="#bcbc9c" d="M34.6 13.9q-7.8-4-16-3.2l-12 1q-3.8 0 2.2-3.7T23 2.4q8.4-1.7 13.7 3 5.4 4.6 6.9 9.7.5 2 1.2 3.2-2.4-.6-10.2-4.6"/></g><g id="k"><path fill="#7f337f" d="m12 9.7.1 1 .6 2.3v.5q-.4-.7-.9-.7-.7 0-1.1 1l-.4 1.3v1.1l.2 1.9h-.2l-.6.1-.5-.8q-1.2-.1-2-1.9l-.2-.7q-1.3-.1-2.2-2.2t-1-5.2L4 5.1l.7-3Q5.8 0 7.3 0t2.3 2.2q.6 1.3.9 3l.8 1.4q.7 1.4.9 3.1m-5.5-.6-.2 2q0 2.1.6 3.7-.6-1.6-.6-3.8zm2 3.4L8.5 14q0 1.9.6 3.3v.1-.1q-.6-1.4-.6-3.3z"/><path fill="#7f4c00" d="m12.7 13.5.2.3.4 1.7v.7l-.2 1.7q-.4 0-.7.4H12l-.2.1-.3-.1-.2.1-.4-.1-.1-.1-.5-.1-.2-1.8.1-1.2.4-1.3q.4-1 1.1-1 .5 0 .9.7"/><path fill="#3a3a27" d="M13.2 17.9q1.4.5 2 2 1 2 2.4 3.7l.6.5q1.3 1.3 1.8 2.9l.4.9-.1.4q.3.7 1 1.2l.1.1-1-.7h-.2v-.2l-.1-.1q-.7 0-1.2-.6v-.1q-1.4-.6-2.4-1.7l1.4 3.2.7 1.6-.1.1q-1 .8-1 1.6h-.2q-.7 0-1.1.3l-2.9-6.1.1 1.5q.1 2.6-.8 4.9l-.5.7v.2H12v-.3l-.4-.3-.2-.2V33q-.9-3.7-.7-7.5l-.1-1.8-1.3.9-.3.4-.2.2h-.1l.2-.5.2-.2q-.2-.4 0-.8l.2-.2V23L6 25.2l-1.6.5h-.5q-1 .7-1.9.4l-1.9.7 1.6-1 .1-.1v-.2q.6-.6 1.4-1 .7-1 1.8-1.7l1-.6q1.7-1 3-2.4V19l.4-.5.4-.3.6-.1h.2l.4.1h.1l.4.2.2-.1.3.1h.2l.2-.1q.4-.4.9-.4"/><path fill="none" stroke="#000" stroke-linecap="round" stroke-linejoin="round" stroke-width="__RESOLUTION__" d="m12 9.7.1 1m.6 2.3v.5m.6 2v.8l-.1 1.5m-3.5.4-.5-.8q-1.2-.1-2-1.9l-.2-.7q-1.3-.1-2.2-2.2t-1-5.2L4 5.1m3 9.7q-.6-1.6-.6-3.7l.1-2m2.7 8.3-.1-.1q-.6-1.4-.6-3.3l.1-1.4m1.9 5.5-.3-1.8.1-1.2" vector-effect="non-scaling-stroke"/></g><g id="j"><path fill="#000" d="m65.6 18.4-21.9 4.1-.5-3.6 22.3-1.1zM37 31.9l1.3-3.5 19.8 10.4-.3.5z"/><path fill="#996" d="m44.2 19 .5 3.5q.3 5.7-1.8 10.1-2.9 5.6-9.2 5.7-6.3 0-9.8-5.3-3.1-4.6-1.2-10.5l.7-1.7q3-6.8 4-13.6T34.7.5t7.2 5.3z"/><path fill="none" stroke="#000" stroke-linecap="round" stroke-linejoin="round" stroke-width="1" d="m44.2 19 .5 3.5q.3 5.7-1.8 10.1-2.9 5.6-9.2 5.7-6.3 0-9.8-5.3-3.1-4.6-1.2-10.5l.7-1.7q3-6.8 4-13.6T34.7.5t7.2 5.3z"/><path fill="#bcbc9c" d="M34.2 30.2q-1.9 4.7-5 4.2-3-.5-4.1-2-1.2-1.5-1.5-4.2-.2-2.8.9-6.3l.5-1.2q5.3 5.8 11.6 3.2z"/><path fill="#000" d="M4.4 18.6 14.5 20q5.9 1.1 10 2.1 4.2 1 4.1 1.6 0 .5-4.3 0L14 22.3 4.1 20Q0 19.2 0 18.7q.1-.5 4.4 0M14 35.2q-.1-.5 3.7-2.4t9.4-4q5.5-2.2 9.6-3.5l2.4-.7 1.8-.1q.1.3-1.9 1.4l-1.8.9q-3.8 1.8-9.3 4.1l-9.6 3.5q-4 1.2-4.3.8"/><path fill="#797951" d="M41.6 6 44 19.2l.4 3.4q.4 5.7-1.8 10.1-2.2 4.5-9.1 5.7 4.6-1.9 5.5-12.5 2-1.1 1.9-1.4H39v-4.1q-6.2 4-13.6-3.2.7-3.4 1.6-9.6 1-7 7.3-7T41.6 6"/></g><path id="e" fill="#382c16" d="M5.8-1.9Q7.9-1.4 8-.5 8 .3 5.9 1 3.8 1.8.7 2l-5.2-.4Q-6.7 1.2-6.7.3q-.1-.8 2-1.6 2.2-.8 5.2-.9z" transform="translate(6.75 2.25)"/><path id="n" fill="none" stroke="#666" stroke-linecap="round" stroke-linejoin="round" stroke-width="__RESOLUTION__" d="m-6.7-6.7 5.7-.1m-4.4-5.6h3m-7 11.6 11-.2m-13.3 5.9 15.5-.2" transform="translate(11.7 12.45)" vector-effect="non-scaling-stroke"/><path id="m" fill="#abab83" d="M-2.1-10.8q2.8 1.3 5 4.3T5.1.8Q5 5 2.6 8t-5.7 3-1-.2q2-.4 4.4-6.8T-1.1-7.1t-1-3.7" transform="translate(5.05 11.1)"/></defs><g clip-path="url(#f)"><g transform="translate(34.25 189.6)"><use xlink:href="#g" width="14.7" height="4.3" transform="rotate(3.294 70.053 -136.02)scale(1.3662)"/><use xlink:href="#h" width="27.4" height="51.3" transform="matrix(-.3642 -.0114 -.1479 .3551 3.7 -18.8)"/><use xlink:href="#h" width="27.4" height="51.3" transform="matrix(-.3644 -.0126 .0631 .3618 6.45 -15.35)"/><use xlink:href="#i" width="13.7" height="19.1" transform="matrix(.3035 -.9679 -.5152 -.1534 -6.45 -19.3)"/><use xlink:href="#j" width="65.5" height="39.3" transform="translate(-33.25 -47.9)"/><use xlink:href="#k" width="21.4" height="34.1" transform="matrix(-.9705 -.2379 -.2136 .9765 .95 -58.95)"/><use xlink:href="#l" width="53.6" height="39.4" transform="translate(-25.2 -72)"/><use xlink:href="#m" width="10.2" height="22.1" transform="translate(17.1 -63.7)"/><use xlink:href="#n" width="15.5" height="17.4" transform="matrix(.8422 0 -.6067 .6599 -9.65 -69.6)"/><use xlink:href="#o" width="21.4" height="34.1" transform="matrix(1 0 -.0251 1 16.4 -53.35)"/><use xlink:href="#i" width="13.7" height="19.1" transform="matrix(-.7442 -.6898 -.3617 .3953 17.55 -23.4)"/><use xlink:href="#p" width="36.4" height="34.2" transform="translate(6.25 -188.6)scale(2.667)"/></g></g><g clip-path="url(#q)"><g transform="translate(172.25 189.6)"><use xlink:href="#g" width="14.7" height="4.3" transform="rotate(3.294 70.053 -136.02)scale(1.3662)"/><use xlink:href="#h" width="27.4" height="51.3" transform="matrix(-.3642 -.0114 -.1479 .3551 3.7 -18.8)"/><use xlink:href="#h" width="27.4" height="51.3" transform="matrix(-.3644 -.0126 .0631 .3618 6.45 -15.35)"/><use xlink:href="#i" width="13.7" height="19.1" transform="matrix(.3035 -.9679 -.5152 -.1534 -6.45 -19.3)"/><use xlink:href="#j" width="65.5" height="39.3" transform="translate(-33.25 -47.9)"/><use xlink:href="#k" width="21.4" height="34.1" transform="matrix(-.9705 -.2379 -.2136 .9765 .95 -58.95)"/><use xlink:href="#l" width="53.6" height="39.4" transform="translate(-25.2 -72)"/><use xlink:href="#m" width="10.2" height="22.1" transform="translate(17.1 -63.7)"/><use xlink:href="#n" width="15.5" height="17.4" transform="matrix(.8422 0 -.6067 .6599 -9.65 -69.6)"/><use xlink:href="#o" width="21.4" height="34.1" transform="matrix(1 0 -.0251 1 16.4 -53.35)"/><use xlink:href="#i" width="13.7" height="19.1" transform="matrix(-.7442 -.6898 -.3617 .3953 17.55 -23.4)"/><use xlink:href="#r" width="36.4" height="34.2" transform="translate(6.25 -188.6)scale(2.667)"/></g></g><g clip-path="url(#s)"><g transform="translate(310.25 189.6)"><use xlink:href="#g" width="14.7" height="4.3" transform="rotate(3.294 70.053 -136.02)scale(1.3662)"/><use xlink:href="#h" width="27.4" height="51.3" transform="matrix(-.3642 -.0114 -.1479 .3551 3.7 -18.8)"/><use xlink:href="#h" width="27.4" height="51.3" transform="matrix(-.3644 -.0126 .0631 .3618 6.45 -15.35)"/><use xlink:href="#i" width="13.7" height="19.1" transform="matrix(.3035 -.9679 -.5152 -.1534 -6.45 -19.3)"/><use xlink:href="#j" width="65.5" height="39.3" transform="translate(-33.25 -47.9)"/><use xlink:href="#k" width="21.4" height="34.1" transform="matrix(-.9705 -.2379 -.2136 .9765 .95 -58.95)"/><use xlink:href="#l" width="53.6" height="39.4" transform="translate(-25.2 -72)"/><use xlink:href="#m" width="10.2" height="22.1" transform="translate(17.1 -63.7)"/><use xlink:href="#n" width="15.5" height="17.4" transform="matrix(.8422 0 -.6067 .6599 -9.65 -69.6)"/><use xlink:href="#o" width="21.4" height="34.1" transform="matrix(1 0 -.0251 1 16.4 -53.35)"/><use xlink:href="#i" width="13.7" height="19.1" transform="matrix(-.7442 -.6898 -.3617 .3953 17.55 -23.4)"/><use xlink:href="#t" width="36.4" height="34.2" transform="translate(6.25 -188.6)scale(2.667)"/></g></g><g clip-path="url(#u)"><g transform="translate(448.25 189.6)"><use xlink:href="#g" width="14.7" height="4.3" transform="rotate(3.294 70.053 -136.02)scale(1.3662)"/><use xlink:href="#h" width="27.4" height="51.3" transform="matrix(-.3642 -.0114 -.1479 .3551 3.7 -18.8)"/><use xlink:href="#h" width="27.4" height="51.3" transform="matrix(-.3644 -.0126 .0631 .3618 6.45 -15.35)"/><use xlink:href="#i" width="13.7" height="19.1" transform="matrix(.3035 -.9679 -.5152 -.1534 -6.45 -19.3)"/><use xlink:href="#j" width="65.5" height="39.3" transform="translate(-33.25 -47.9)"/><use xlink:href="#k" width="21.4" height="34.1" transform="matrix(-.9705 -.2379 -.2136 .9765 .95 -58.95)"/><use xlink:href="#l" width="53.6" height="39.4" transform="translate(-25.2 -72)"/><use xlink:href="#m" width="10.2" height="22.1" transform="translate(17.1 -63.7)"/><use xlink:href="#n" width="15.5" height="17.4" transform="matrix(.8422 0 -.6067 .6599 -9.65 -69.6)"/><use xlink:href="#o" width="21.4" height="34.1" transform="matrix(1 0 -.0251 1 16.4 -53.35)"/><use xlink:href="#i" width="13.7" height="19.1" transform="matrix(-.7442 -.6898 -.3617 .3953 17.55 -23.4)"/><use xlink:href="#v" width="36.4" height="34.2" transform="translate(6.25 -188.6)scale(2.667)"/></g></g><g clip-path="url(#w)"><g transform="translate(586.25 189.6)"><use xlink:href="#g" width="14.7" height="4.3" transform="rotate(3.294 70.053 -136.02)scale(1.3662)"/><use xlink:href="#h" width="27.4" height="51.3" transform="matrix(-.3642 -.0114 -.1479 .3551 3.7 -18.8)"/><use xlink:href="#h" width="27.4" height="51.3" transform="matrix(-.3644 -.0126 .0631 .3618 6.45 -15.35)"/><use xlink:href="#i" width="13.7" height="19.1" transform="matrix(.3035 -.9679 -.5152 -.1534 -6.45 -19.3)"/><use xlink:href="#j" width="65.5" height="39.3" transform="translate(-33.25 -47.9)"/><use xlink:href="#k" width="21.4" height="34.1" transform="matrix(-.9705 -.2379 -.2136 .9765 .95 -58.95)"/><use xlink:href="#l" width="53.6" height="39.4" transform="translate(-25.2 -72)"/><use xlink:href="#m" width="10.2" height="22.1" transform="translate(17.1 -63.7)"/><use xlink:href="#n" width="15.5" height="17.4" transform="matrix(.8422 0 -.6067 .6599 -9.65 -69.6)"/><use xlink:href="#o" width="21.4" height="34.1" transform="matrix(1 0 -.0251 1 16.4 -53.35)"/><use xlink:href="#i" width="13.7" height="19.1" transform="matrix(-.7442 -.6898 -.3617 .3953 17.55 -23.4)"/><use xlink:href="#x" width="36.4" height="34.2" transform="translate(6.25 -188.6)scale(2.667)"/></g></g><g clip-path="url(#y)"><g transform="translate(724.25 189.6)"><use xlink:href="#g" width="14.7" height="4.3" transform="rotate(3.294 70.053 -136.02)scale(1.3662)"/><use xlink:href="#h" width="27.4" height="51.3" transform="matrix(-.3642 -.0114 -.1479 .3551 3.7 -18.8)"/><use xlink:href="#h" width="27.4" height="51.3" transform="matrix(-.3644 -.0126 .0631 .3618 6.45 -15.35)"/><use xlink:href="#i" width="13.7" height="19.1" transform="matrix(.3035 -.9679 -.5152 -.1534 -6.45 -19.3)"/><use xlink:href="#j" width="65.5" height="39.3" transform="translate(-33.25 -47.9)"/><use xlink:href="#k" width="21.4" height="34.1" transform="matrix(-.9705 -.2379 -.2136 .9765 .95 -58.95)"/><use xlink:href="#l" width="53.6" height="39.4" transform="translate(-25.2 -72)"/><use xlink:href="#m" width="10.2" height="22.1" transform="translate(17.1 -63.7)"/><use xlink:href="#n" width="15.5" height="17.4" transform="matrix(.8422 0 -.6067 .6599 -9.65 -69.6)"/><use xlink:href="#o" width="21.4" height="34.1" transform="matrix(1 0 -.0251 1 16.4 -53.35)"/><use xlink:href="#i" width="13.7" height="19.1" transform="matrix(-.7442 -.6898 -.3617 .3953 17.55 -23.4)"/><use xlink:href="#z" width="36.4" height="34.2" transform="translate(6.25 -188.6)scale(2.667)"/></g></g><g clip-path="url(#A)"><g transform="translate(862.25 189.6)"><use xlink:href="#g" width="14.7" height="4.3" transform="rotate(3.294 70.053 -136.02)scale(1.3662)"/><use xlink:href="#h" width="27.4" height="51.3" transform="matrix(-.3642 -.0114 -.1479 .3551 3.7 -18.8)"/><use xlink:href="#h" width="27.4" height="51.3" transform="matrix(-.3644 -.0126 .0631 .3618 6.45 -15.35)"/><use xlink:href="#i" width="13.7" height="19.1" transform="matrix(.3035 -.9679 -.5152 -.1534 -6.45 -19.3)"/><use xlink:href="#j" width="65.5" height="39.3" transform="translate(-33.25 -47.9)"/><use xlink:href="#k" width="21.4" height="34.1" transform="matrix(-.9705 -.2379 -.2136 .9765 .95 -58.95)"/><use xlink:href="#l" width="53.6" height="39.4" transform="translate(-25.2 -72)"/><use xlink:href="#m" width="10.2" height="22.1" transform="translate(17.1 -63.7)"/><use xlink:href="#n" width="15.5" height="17.4" transform="matrix(.8422 0 -.6067 .6599 -9.65 -69.6)"/><use xlink:href="#o" width="21.4" height="34.1" transform="matrix(1 0 -.0251 1 16.4 -53.35)"/><use xlink:href="#i" width="13.7" height="19.1" transform="matrix(-.7442 -.6898 -.3617 .3953 17.55 -23.4)"/><use xlink:href="#B" width="36.4" height="34.2" transform="translate(6.25 -188.6)scale(2.667)"/></g></g><g clip-path="url(#C)"><g transform="translate(1000.25 189.6)"><use xlink:href="#g" width="14.7" height="4.3" transform="rotate(3.294 70.053 -136.02)scale(1.3662)"/><use xlink:href="#h" width="27.4" height="51.3" transform="matrix(-.3642 -.0114 -.1479 .3551 3.7 -18.8)"/><use xlink:href="#h" width="27.4" height="51.3" transform="matrix(-.3644 -.0126 .0631 .3618 6.45 -15.35)"/><use xlink:href="#i" width="13.7" height="19.1" transform="matrix(.3035 -.9679 -.5152 -.1534 -6.45 -19.3)"/><use xlink:href="#j" width="65.5" height="39.3" transform="translate(-33.25 -47.9)"/><use xlink:href="#k" width="21.4" height="34.1" transform="matrix(-.9705 -.2379 -.2136 .9765 .95 -58.95)"/><use xlink:href="#l" width="53.6" height="39.4" transform="translate(-25.2 -72)"/><use xlink:href="#m" width="10.2" height="22.1" transform="translate(17.1 -63.7)"/><use xlink:href="#n" width="15.5" height="17.4" transform="matrix(.8422 0 -.6067 .6599 -9.65 -69.6)"/><use xlink:href="#o" width="21.4" height="34.1" transform="matrix(1 0 -.0251 1 16.4 -53.35)"/><use xlink:href="#i" width="13.7" height="19.1" transform="matrix(-.7442 -.6898 -.3617 .3953 17.55 -23.4)"/><use xlink:href="#D" width="36.4" height="34.2" transform="translate(6.25 -188.6)scale(2.667)"/></g></g><g clip-path="url(#E)"><g transform="translate(1138.25 189.6)"><use xlink:href="#g" width="14.7" height="4.3" transform="rotate(3.294 70.053 -136.02)scale(1.3662)"/><use xlink:href="#h" width="27.4" height="51.3" transform="matrix(-.3642 -.0114 -.1479 .3551 3.7 -18.8)"/><use xlink:href="#h" width="27.4" height="51.3" transform="matrix(-.3644 -.0126 .0631 .3618 6.45 -15.35)"/><use xlink:href="#i" width="13.7" height="19.1" transform="matrix(.3035 -.9679 -.5152 -.1534 -6.45 -19.3)"/><use xlink:href="#j" width="65.5" height="39.3" transform="translate(-33.25 -47.9)"/><use xlink:href="#k" width="21.4" height="34.1" transform="matrix(-.9705 -.2379 -.2136 .9765 .95 -58.95)"/><use xlink:href="#l" width="53.6" height="39.4" transform="translate(-25.2 -72)"/><use xlink:href="#m" width="10.2" height="22.1" transform="translate(17.1 -63.7)"/><use xlink:href="#n" width="15.5" height="17.4" transform="matrix(.8422 0 -.6067 .6599 -9.65 -69.6)"/><use xlink:href="#o" width="21.4" height="34.1" transform="matrix(1 0 -.0251 1 16.4 -53.35)"/><use xlink:href="#i" width="13.7" height="19.1" transform="matrix(-.7442 -.6898 -.3617 .3953 17.55 -23.4)"/><use xlink:href="#F" width="36.4" height="34.2" transform="translate(6.25 -188.6)scale(2.667)"/></g></g><g clip-path="url(#G)"><g transform="translate(1276.25 189.6)"><use xlink:href="#g" width="14.7" height="4.3" transform="rotate(3.294 70.053 -136.02)scale(1.3662)"/><use xlink:href="#h" width="27.4" height="51.3" transform="matrix(-.3642 -.0114 -.1479 .3551 3.7 -18.8)"/><use xlink:href="#h" width="27.4" height="51.3" transform="matrix(-.3644 -.0126 .0631 .3618 6.45 -15.35)"/><use xlink:href="#i" width="13.7" height="19.1" transform="matrix(.3035 -.9679 -.5152 -.1534 -6.45 -19.3)"/><use xlink:href="#j" width="65.5" height="39.3" transform="translate(-33.25 -47.9)"/><use xlink:href="#k" width="21.4" height="34.1" transform="matrix(-.9705 -.2379 -.2136 .9765 .95 -58.95)"/><use xlink:href="#l" width="53.6" height="39.4" transform="translate(-25.2 -72)"/><use xlink:href="#m" width="10.2" height="22.1" transform="translate(17.1 -63.7)"/><use xlink:href="#n" width="15.5" height="17.4" transform="matrix(.8422 0 -.6067 .6599 -9.65 -69.6)"/><use xlink:href="#o" width="21.4" height="34.1" transform="matrix(1 0 -.0251 1 16.4 -53.35)"/><use xlink:href="#i" width="13.7" height="19.1" transform="matrix(-.7442 -.6898 -.3617 .3953 17.55 -23.4)"/></g></g><g clip-path="url(#H)"><g transform="translate(1414.25 189.6)"><use xlink:href="#g" width="14.7" height="4.3" transform="rotate(3.294 70.053 -136.02)scale(1.3662)"/><use xlink:href="#h" width="27.4" height="51.3" transform="matrix(-.3642 -.0114 -.1479 .3551 3.7 -18.8)"/><use xlink:href="#h" width="27.4" height="51.3" transform="matrix(-.3644 -.0126 .0631 .3618 6.45 -15.35)"/><use xlink:href="#i" width="13.7" height="19.1" transform="matrix(.3035 -.9679 -.5152 -.1534 -6.45 -19.3)"/><use xlink:href="#j" width="65.5" height="39.3" transform="translate(-33.25 -47.9)"/><use xlink:href="#k" width="21.4" height="34.1" transform="matrix(-.9705 -.2379 -.2136 .9765 .95 -58.95)"/><use xlink:href="#l" width="53.6" height="39.4" transform="translate(-25.2 -72)"/><use xlink:href="#m" width="10.2" height="22.1" transform="translate(17.1 -63.7)"/><use xlink:href="#n" width="15.5" height="17.4" transform="matrix(.8422 0 -.6067 .6599 -9.65 -69.6)"/><use xlink:href="#o" width="21.4" height="34.1" transform="matrix(1 0 -.0251 1 16.4 -53.35)"/><use xlink:href="#i" width="13.7" height="19.1" transform="matrix(-.7442 -.6898 -.3617 .3953 17.55 -23.4)"/><use xlink:href="#I" width="36.4" height="34.2" transform="translate(6.25 -188.6)scale(2.667)"/></g></g></svg>