<svg xmlns="http://www.w3.org/2000/svg" xmlns:xlink="http://www.w3.org/1999/xlink" width="2131" height="108" viewBox="0 0 2131 108"><defs><clipPath id="q"><path d="M1 1h70v106H1z"/></clipPath><clipPath id="G"><path d="M72 1h70v106H72z"/></clipPath><clipPath id="H"><path d="M143 1h70v106h-70z"/></clipPath><clipPath id="I"><path d="M214 1h70v106h-70z"/></clipPath><clipPath id="J"><path d="M285 1h70v106h-70z"/></clipPath><clipPath id="K"><path d="M356 1h70v106h-70z"/></clipPath><clipPath id="L"><path d="M427 1h70v106h-70z"/></clipPath><clipPath id="M"><path d="M498 1h70v106h-70z"/></clipPath><clipPath id="N"><path d="M569 1h70v106h-70z"/></clipPath><clipPath id="O"><path d="M640 1h70v106h-70z"/></clipPath><clipPath id="P"><path d="M711 1h70v106h-70z"/></clipPath><clipPath id="Q"><path d="M782 1h70v106h-70z"/></clipPath><clipPath id="R"><path d="M853 1h70v106h-70z"/></clipPath><clipPath id="S"><path d="M924 1h70v106h-70z"/></clipPath><clipPath id="T"><path d="M995 1h70v106h-70z"/></clipPath><clipPath id="U"><path d="M1066 1h70v106h-70z"/></clipPath><clipPath id="V"><path d="M1137 1h70v106h-70z"/></clipPath><clipPath id="W"><path d="M1208 1h70v106h-70z"/></clipPath><clipPath id="X"><path d="M1279 1h70v106h-70z"/></clipPath><clipPath id="Y"><path d="M1350 1h70v106h-70z"/></clipPath><clipPath id="Z"><path d="M1421 1h70v106h-70z"/></clipPath><clipPath id="aa"><path d="M1492 1h70v106h-70z"/></clipPath><clipPath id="ab"><path d="M1563 1h70v106h-70z"/></clipPath><clipPath id="ac"><path d="M1634 1h70v106h-70z"/></clipPath><clipPath id="ad"><path d="M1705 1h70v106h-70z"/></clipPath><clipPath id="ae"><path d="M1776 1h70v106h-70z"/></clipPath><clipPath id="af"><path d="M1847 1h70v106h-70z"/></clipPath><clipPath id="ag"><path d="M1918 1h70v106h-70z"/></clipPath><clipPath id="ah"><path d="M1989 1h70v106h-70z"/></clipPath><clipPath id="ai"><path d="M2060 1h70v106h-70z"/></clipPath><use xlink:href="#a" id="p" width="27.7" height="8"/><use xlink:href="#b" id="F" width="30.6" height="30.6"/><use xlink:href="#c" id="E" width="39.3" height="50.1"/><use xlink:href="#d" id="D" width="16.4" height="22.3"/><use xlink:href="#e" id="C" width="16.4" height="22.3"/><use xlink:href="#f" id="B" width="18.4" height="25.9"/><use xlink:href="#g" id="A" width="18.4" height="25.9"/><use xlink:href="#h" id="z" width="16.1" height="14.2"/><use xlink:href="#i" id="y" width="16.1" height="14.2"/><use xlink:href="#j" id="x" width="26.4" height="21.6"/><use xlink:href="#k" id="w" width="16.3" height="17.6"/><use xlink:href="#l" id="v" width="12.3" height="14.2"/><use xlink:href="#m" id="u" width="16.3" height="17.6"/><use xlink:href="#n" id="t" width="12.3" height="14.2"/><use xlink:href="#o" id="s" width="29.5" height="43"/><use xlink:href="#p" id="r" width="27.7" height="8" transform="matrix(.3796 -.0043 -.3052 .5189 2.45 .1)"/><g id="b"><path fill="#2d4939" d="m22.5 8.7 2.5 4.9 5.6 4.5L20.2 16l-2.5-2.1.7 4.4 5.9 4.7-9.8-4.4 2.3-9.9-.6-2zl-6.3-2-2-6.7 4.1 1z"/><path fill="#203428" d="m16.2 6.8.6 1.9-2.3 9.9 9.8 4.5-11.1.5h-.4l-3.3-2.7-.4 7.3-3.6 2.4 1.4-3-3.4-9.4 1-2.8L9.2 2.1l5-2.1zL11.1 5zm-4.4 10.4 1.3 6.4z"/><path fill="none" stroke="#000" stroke-linecap="round" stroke-linejoin="round" stroke-width="__RESOLUTION__" d="m24.3 23-5.9-4.7-.7-4.4 2.6 2.1 10.3 2.1-5.6-4.5-2.5-4.9-6.3-2L11.1 5m13.2 18-11.1.6.6 3m8.6-17.9 2.4 1.9 4-.3m-4 .3 2.3 1.9m-4.6-3.8L18.3 1M9.2 2 4.5 15.5l-1 2.8 3.4 9.5-1.4 2.9 3.6-2.4.4-7.3 3.3 2.7h.4l-1.4-6.4m-7.3-1.8-4.5 7" vector-effect="non-scaling-stroke"/></g><g id="c"><path fill="#ff910b" d="M30.6 5.6Q33.8 7 36.5 10q1.9 3 2.3 6l.2 1-4.4 9q.2-3.7-1-7.4-5.8-9.6-9.8-7l1.7 5.6v.4q2.7 3.7 3.9 7 1.6 4.5.6 8.2.2-4.7-.6-8.2.8 3.5.6 8.2l-.5 1.5q-3.1 7-9.8 5.5V22.3q-6 19.2-7.9 9.5t1.9-19.6q-4.1 1-8 6.3-1.4 4.4-.8 9L.1 22.2.6 16q.3-2.3 1.6-4.7Q4 8.4 7.5 6.4q1.6-.8 4.5 1.3Q11.5 5 9.3 4l2.5-2.2L15.2.7l6-.7 4 .6L28.3 3q-1.5 3-1.1 5.6 1.3-2.2 3.4-3m-11 11.9v-.9l.2-2.2-.2.3-.2-.4zv4.8z"/><path fill="#f17901" d="M39 17.2q.5 4.7.2 9.6-.5 5.2-8.6 20.4-2 1.1-4.2.6-6.3 4.5-13.7.5-3.1-.1-5.4-1.3Q0 34.4 0 29.4l.1-7.3 4.8 5.4q-.7-4.6.8-9 3.8-5.4 8-6.3-3.8 10-1.9 19.6t7.8-9.6v17.4q6.7 1.6 9.8-5.4l.6-1.5q1-3.8-.6-8.3-1.3-4-3.8-6.9l-.2-.5-1.6-5.5q4-2.6 9.8 7 1.2 3.6 1 7.4-.2 4.1-2.1 8.3 1.9-4.2 2.1-8.3zM7.5 6.5Q8.3 5 9.4 3.8q2.1 1.1 2.5 3.8-2.9-2-4.4-1.1M28.3 3l2.2 2.7q-2 .8-3.3 3-.3-2.5 1-5.6m-2.6 14.6q2.4 2.8 3.8 6.8-1.2-3.2-3.8-6.9M30 33.8v-1zm-23.2.5q-1.5-3.4-1.9-6.7.4 3.4 1.9 6.8m12.8-17.7v.9l-.2-3.2.3.4zv-2l.2-.2z"/><path fill="none" stroke="#824409" stroke-linecap="round" stroke-linejoin="round" stroke-opacity=".8" stroke-width="__RESOLUTION__" d="M30.6 5.6Q33.8 7 36.5 10q1.9 3 2.3 6l.2 1q.5 4.8.2 9.7-.4 5.2-8.6 20.4M7.3 47Q0 34.4 0 29.4l.1-7.3.5-6.2q.3-2.3 1.6-4.6Q4 8.4 7.5 6.4 8.3 5.2 9.4 4l2.4-2.2L15.2.7l6-.7 4 .6L28.3 3l2.2 2.6" vector-effect="non-scaling-stroke"/><path fill="none" stroke="#fec667" stroke-linecap="round" stroke-linejoin="round" stroke-width="__RESOLUTION__" d="M30.6 5.6q-2.2.8-3.4 3m-1.7 8.5v.4q2.6 2.9 3.9 7 .8 3.4.6 8.2v1m-10.3 6v-25m-14 3.8q-1.5 4.4-.8 9 .4 3.4 1.9 6.8m25.7 0q1.9-4.3 2.1-8.4.2-3.7-1-7.4M7.5 6.5q1.6-.9 4.5 1.2" vector-effect="non-scaling-stroke"/></g><g id="d"><path fill="#81842e" d="M1.9 2Q2.8.8 4 .3l2 .2q1.9-1 4 .3l1.3 1q2 1.7 3.3 4.7 1.6 3.7 1.9 7.6t-1.3 8.2q-.9-.1-1.5-1-1.8-2.2-2.7-4.1Q3.5 12 1.9 2m8.2 12q.2 1.5.9 3.1-.8-1.6-.9-3.1m-2-6.6Q5.4 4 6 .5q-.6 3.5 2 7"/><path fill="#54561e" d="M13.7 21.3q-2.8 1.4-6.5-1.3-4.1-2.9-6-6.6-1.7-3.9-1-7.6Q.5 4 1.4 2.6l.5-.7q1.6 10.1 9 15.3 1 2 2.8 4"/><path fill="none" stroke="#000" stroke-linecap="round" stroke-linejoin="round" stroke-opacity=".3" stroke-width="__RESOLUTION__" d="M1.9 2Q2.8.8 4 .3l2 .2q1.9-1 4 .3l1.3 1q2 1.7 3.3 4.7 1.6 3.7 1.9 7.6t-1.3 8.2q-.9-.1-1.5-1-2.8 1.4-6.5-1.3-4.1-2.9-6-6.6-1.7-3.9-1-7.6Q.5 4 1.4 2.6zm9 15.2q-.6-1.6-.8-3.1m3.6 7.2Q11.9 19 11 17.2M6 .5q-.6 3.5 2 7" vector-effect="non-scaling-stroke"/></g><g id="e"><path fill="#81842e" d="m10.5.5 2-.2q1.2.5 2 1.7-1.5 10-9 15.2-.9 2-2.7 4-.6 1-1.5 1-1.5-4.2-1.3-8 .3-4 1.9-7.6 1.3-3 3.3-4.7l1.3-1q2.1-1.3 4-.4.6 3.6-2.2 7.1 2.8-3.5 2.2-7M6.4 14q-.2 1.5-.9 3.1.7-1.6.9-3.1"/><path fill="#54561e" d="m14.6 2 .5.5Q16 4 16.3 5.9q.6 3.7-1.1 7.6Q13.4 17 9.3 20q-3.7 2.7-6.5 1.3 1.8-2.2 2.7-4.1Q13 12 14.5 2"/><path fill="none" stroke="#000" stroke-linecap="round" stroke-linejoin="round" stroke-opacity=".3" stroke-width="__RESOLUTION__" d="M14.6 2Q13.7.8 12.4.3l-1.9.2q.6 3.5-2.2 7M2.8 21.3q2.8 1.4 6.6-1.3 4.1-2.9 5.9-6.6 1.8-3.9 1-7.6Q16 4 15.2 2.6l-.5-.7M5.5 17.3q-.9 2-2.7 4-.6 1-1.5 1Q-.2 18 0 14.2q.3-4 1.9-7.6 1.3-3 3.3-4.7l1.3-1q2.1-1.3 4-.4m-5 16.8q.7-1.6.9-3.1" vector-effect="non-scaling-stroke"/></g><g id="f"><path fill="#54561e" d="M8.7 0h.2q1.2-.1 2.4 1.7L14 9.6q1 2.9 0 7.1-.8 4.3-2.2 6.8T8.4 26Q6.7 26 4 23.5q-.5-.8-.5-.2l-.7-3q-.8-4.4.7-8.7L5 7.2Q6.1 4 7 2.6 8.6.7 8.7 0"/><path fill="#81842e" d="M8.7 0Q8.6.7 7 2.6 6 4 5 7.2l-1.5 4.3Q2 16 2.7 20.3l.8 3L2.4 22q-.7-1-1.3-1.2-1-.8-1.1-2.3 0-3.3 1.4-6.9L3 7.3l1.8-5.6Q7.2.2 8.7 0"/><path fill="none" stroke="#000" stroke-linecap="round" stroke-linejoin="round" stroke-opacity=".3" stroke-width="__RESOLUTION__" d="M8.5 26q1.8 0 3.2-2.5t2.4-6.8q.9-4.2-.1-7.1l-2.7-8Q10.1 0 8.9 0h-.2Q7.3.3 4.9 1.7L3 7.3l-1.6 4.3Q0 15.2 0 18.5" vector-effect="non-scaling-stroke"/><path fill="#2d4939" d="M14.2 5q1 .7.3 4.9 2.4 0 3.6-3.3.7 5.3-3.6 10.4.1.6 3.7-1.2-3.7 4.8-6.4 5.8-2.2-4.6-2.5-8Q9.7 11 11 8.4z"/><path fill="none" stroke="#000" stroke-linecap="round" stroke-linejoin="round" stroke-opacity=".3" stroke-width="__RESOLUTION__" d="m14.2 5-3.1 3.5Q9.6 11 9.4 13.6q.2 3.4 2.3 8 2.8-1 6.6-5.8-3.7 1.9-3.8 1.2 4.3-5.1 3.7-10.4-1.3 3.3-3.8 3.3.8-4.3-.2-4.9m4.2 1-.2.6m-15.8 15q-.6-9.4 2.4-14.7" vector-effect="non-scaling-stroke"/></g><g id="g"><path fill="#81842e" d="M9.7 0q1.4.3 3.8 1.7l1.8 5.6 1.7 4.3q1.4 3.6 1.4 6.9-.2 1.7-1.1 2.2-.6.2-1.3 1.2l-1.1 1.4.8-3q.7-4.4-.8-8.7l-1.5-4.4Q12.2 4 11.3 2.6 9.8.7 9.7 0"/><path fill="#54561e" d="M14.9 23.3q0-.7-.4.2-2.8 2.6-4.6 2.5-1.8 0-3.3-2.5t-2.3-6.8q-1-4.2.1-7.1l2.7-8Q8.3 0 9.4 0h.3q.1.7 1.6 2.6.9 1.4 2.1 4.6l1.5 4.3q1.5 4.4.7 8.7z"/><path fill="none" stroke="#000" stroke-linecap="round" stroke-linejoin="round" stroke-opacity=".3" stroke-width="__RESOLUTION__" d="M9.7 0q1.4.3 3.8 1.7l1.8 5.6 1.7 4.3q1.4 3.6 1.4 6.9M9.9 26q-1.8 0-3.3-2.5t-2.3-6.8q-1-4.2.1-7.1l2.7-8Q8.3 0 9.4 0h.3" vector-effect="non-scaling-stroke"/><path fill="#2d4939" d="M.2 6.7Q1.5 10 4 9.9q-.8-4.2.2-4.8l3.2 3.4q1.4 2.6 1.7 5.2-.4 3.4-2.4 8-2.7-1-6.5-5.9 3.6 1.9 3.7 1.2Q-.4 12 .2 6.7"/><path fill="none" stroke="#000" stroke-linecap="round" stroke-linejoin="round" stroke-opacity=".3" stroke-width="__RESOLUTION__" d="M.2 6.7Q1.5 10 4 9.9q-.8-4.2.2-4.8l3.2 3.4q1.4 2.6 1.7 5.2-.4 3.4-2.4 8-2.7-1-6.5-5.9 3.6 1.9 3.7 1.2Q-.4 12 .2 6.7L0 6m16 15.5q.6-9.3-2.4-14.7" vector-effect="non-scaling-stroke"/></g><g id="h"><path fill="#54561e" d="M2.9 3.7 7 .6q-.3 3.7-1.8 7.5L4.1 9.6q-.5.8-2.1 2h-.7l1-2.4q.3-.9.2-2.3-.2-1.6.4-3.2M8.5 14l-.2-.1-.5-.2-.6-.4q3-2.7 4-4.6h.5q-.8 2.6-3.2 5.3m-4.4-.7L3.8 12l1-1.2Q6 9.7 6.5 8.6h1.3q-.6 1.5-2 2.8t-1.7 2"/><path fill="#81842e" d="M7 .7q5.7-1.4 9.1.1-.7 3.8-2.7 7.8h.1q-.4 3.1-2.9 5.6L8.5 14q2.3-2.7 3.1-5.3h-.5q-.9 2-3.9 4.7l-.4.3-2.8-.3q.3-.8 1.7-2 1.4-1.3 2-2.7l-1.3-.1q-.3 1.1-1.5 2.3l-1.1 1.2-.8.8-2.2-.1.5-1.1.7-.1q1.5-1.2 2-2l1.2-1.4Q6.7 4.4 7 .7"/><path fill="#41413a" d="m.8 12.8-.6-.4V11q.4.5 1.2.6z"/><path fill="#23231f" d="m.1 11.2-.1-.3v-.2l.7-5L2 8.3l.1.9-.9 2.5q-.8-.1-1.2-.5"/><path fill="none" stroke="#000" stroke-linecap="round" stroke-linejoin="round" stroke-opacity=".3" stroke-width="__RESOLUTION__" d="M16.2.8q-.8 3.8-2.8 7.8m.1 0q-.4 3.1-2.9 5.6L8.5 14m-.2 0-.5-.2-.6-.4-.4.4-2.7-.4-.3-1.3-.8.8-2.2-.1-.6-.4h0l-.1-1.2-.1-.3v-.2l.6-5L2 8.3l.2.9q.3-.9.2-2.3-.1-1.6.5-3.2m.9 8.4 1-1.2Q6 9.7 6.5 8.6m.8 4.8q3-2.7 4-4.6" vector-effect="non-scaling-stroke"/></g><g id="i"><path fill="#54561e" d="m9.2.7 4.1 3q.6 1.6.4 3.2-.1 1.4.2 2.3l1 2.5-.8-.1q-1.5-1.2-2-2L11 8.2Q9.4 4.4 9.2.7M12.4 12l-.3 1.3q-.3-.8-1.6-2Q9 10 8.5 8.7l1.3-.1q.3 1.1 1.5 2.3zm-3.5 1.3-.6.4-.5.2h-.1q-2.4-2.6-3.2-5.2H5q1 1.9 3.9 4.5"/><path fill="#81842e" d="M9.2.7q.3 3.7 1.8 7.5l1 1.4q.5.8 2 2h.8l.5 1.2h-2.2l-.8-.7-1.1-1.2Q10 9.7 9.7 8.6H8.4q.6 1.5 2 2.8t1.7 2l-2.8.4-.4-.4q-3-2.7-3.9-4.6h-.5q.8 2.5 3.2 5.2l-2.2.2q-2.4-2.5-2.9-5.6h.1Q.7 4.6 0 .8 3.5-.7 9.2.6"/><path fill="#23231f" d="m14.9 11.7-1-2.5.2-1 1.4-2.5.7 5v.2l-.2.2q-.3.5-1.2.5"/><path fill="#41413a" d="m15.4 12.8-.6-1.2q.9 0 1.2-.4l-.1 1.2z"/><path fill="none" stroke="#000" stroke-linecap="round" stroke-linejoin="round" stroke-opacity=".3" stroke-width="__RESOLUTION__" d="M13.9 9.2q-.3-.9-.2-2.3.2-1.6-.4-3.2m2.8 7.5v-.5l-.6-5-1.4 2.6-.2.9m2.2 2-.2 1.2h0l-.5.4h-2.2l-.8-.7-.3 1.3-2.8.4-.4-.5-.6.5-.5.2m-.1 0-2.2.1q-2.4-2.4-2.9-5.5m.1 0Q.7 4.6 0 .8m12.4 11.3-1.1-1.2q-1.2-1.2-1.5-2.3m-.9 4.8q-3-2.7-3.9-4.6" vector-effect="non-scaling-stroke"/></g><g id="j"><path fill="#ff910b" d="m18.7 7.7.3-1.5q1.8 1.8 2.6 3.9 1.1 2.7.8 6v.2q-1.2 1.7-3 1.2 1.2-4.6-.7-9.8m4-.8-.1-1.1q2.9 2.7 3.7 8.2l-1.8 1.8q.5-5.6-1.9-9M.1 14q.5-7.6 3.7-8.2v1q-2.3 3.4-1.8 9zm4.8-4q-.5-1.5-.5-6l.1-2.7V0l.8 2.5 2.2 5.9q-1.6 4.5-.5 9.2-1.7.4-2.9-1.4v-.1q-.4-3.3.8-6"/><path fill="#f17901" d="M21.6 10q1-1.5 1-3.1 2.4 3.3 1.9 8.9l1.8-1.8.1.7q-1.7 4.7-5 4.7-2.4 3.3-7.8 1.7-6.1 1.6-8.5-1.7-3.3 0-5.1-4.7l.1-.7L2 15.8q-.5-5.6 1.8-9 0 1.7 1 3.3-1.1 2.7-.7 6v.2l.5 2.2.5.9-.5-.9-.5-2.2Q5.3 18 7 17.5q-1.1-4.6.5-9.1 1 1.6 2.7 3 1.4-3.4 3.1-5 2 2 3 5 1.6-1.4 2.3-3.7 2 5.2.8 9.9 1.8.4 3-1.4v-.1q.3-3.3-.8-6m-.3 9.3.6-.9.5-2.2-.5 2.2z"/><path fill="none" stroke="#824409" stroke-linecap="round" stroke-linejoin="round" stroke-opacity=".8" stroke-width="__RESOLUTION__" d="m18.7 7.7.3-1.5q1.8 1.8 2.6 3.9 1-1.6 1-3.2V5.8h0q2.9 2.7 3.7 8.2l.1.7q-1.7 4.7-5 4.7v0q-2.4 3.3-7.8 1.7-6.1 1.6-8.5-1.7v0q-3.3 0-5.1-4.7l.1-.7q.5-7.6 3.7-8.2h0v1q0 1.7 1 3.3-.3-1.6-.3-6.1V0l.8 2.5 2.2 5.9q1 1.6 2.7 3 1.4-3.4 3.1-5 2 2 3 5 1.6-1.4 2.3-3.7" vector-effect="non-scaling-stroke"/><path fill="none" stroke="#fec667" stroke-linecap="round" stroke-linejoin="round" stroke-width="__RESOLUTION__" d="M22.4 16.1q.3-3.3-.8-6m.8 6.2-.5 2.2-.5.9M4 16.3l.5 2.2.5.9m-1-3.3q-.4-3.4.8-6" vector-effect="non-scaling-stroke"/></g><g id="k"><path fill="#81842e" d="M11.1 4.4q.1 1.2-2.6 2.1-2.5.9-2.2 2 .8 2.1 2 4.1l.4.6H9q2.3 0 3.3.8t1.3 2.5l-1.3.6-2.5.5-4.1-.7-.5-1.7-.4.1L3 8.1l.5-1q-.6-2.4 2.3-4.8l.4-.7.5-1q.6-.3 2 1.4 1.8 2 2.4 2.3"/><path fill="#41413a" d="m8.3 12.6.7-.2h1.4q1.2-.7 2.2.3l.6.8q1.4-.4 3.1 1.5l-2 1.1-.6.4q-.4-1.7-1.4-2.5-1-.7-3.3-.8h-.3l1.7-.8-1.7.8zm4.9.9-1 .5z"/><path fill="#54561e" d="m5.7 16.9-3.7-1-.3-1.4L0 7.8Q-.3 6.8.8.1l5.8.4-.5 1.1-.3.7q-3 2.4-2.4 4.9L3 8l1.8 7.2.4-.1z"/><path fill="none" stroke="#000" stroke-linecap="round" stroke-linejoin="round" stroke-opacity=".3" stroke-width="__RESOLUTION__" d="M11.1 4.4q.1 1.2-2.6 2.1-2.5.9-2.2 2 .8 2.1 2 4.1l.7-.2h1.4q1.2-.7 2.2.3l.6.8q1.4-.4 3.1 1.5l-2 1.1-.6.4-1.4.6-2.5.5v0l-4.1-.7-3.7-1-.3-1.4L0 7.8Q-.3 6.8.8.1m9.5 12.3-1.7.8H9q2.3 0 3.3.8l.9-.5m-4.5-.3-.4-.6m5.3 3.9q-.3-1.7-1.4-2.5m-6-12.4-.3.7q-3 2.4-2.4 4.9" vector-effect="non-scaling-stroke"/></g><g id="l"><path fill="#81842e" d="M7.3 0q.5-.1 2.7 1 .8.9 1.5 2.5l.8 2.5q.1 2.5-.6 4.7l-1.5 2.9-3.2.6-3.1-2 1-1.1q1.4-1.6 2.4-6.9l.4-1.3q.3-1-.4-2.9"/><path fill="#54561e" d="M3.9 12.2 0 8.5q.6-1.1 1.7-1.9Q2.7 6 3 5.4q1.3-3 1.5-4.2L7.3 0q.7 1.9.4 2.9l-.4 1.3q-1 5.3-2.3 6.9z"/><path fill="none" stroke="#000" stroke-linecap="round" stroke-linejoin="round" stroke-opacity=".3" stroke-width="__RESOLUTION__" d="M7.3 0q.5-.1 2.7 1 .8.9 1.5 2.5l.8 2.5q.1 2.5-.6 4.7l-1.5 2.9-3.2.6M0 8.5q.6-1.1 1.7-1.9Q2.7 6 3 5.4q1.3-3 1.5-4.2L7.3 0m0 4.2q-1 5.3-2.3 6.9" vector-effect="non-scaling-stroke"/></g><g id="m"><path fill="#54561e" d="M15.5.1q1 6.7.7 7.8l-1.5 6.7q0 1-.4 1.4l-3.6 1 .3-2 .4.2L13.3 8l-.5-1q.5-2.4-2.4-4.8l-.4-.7-.5-1z"/><path fill="#81842e" d="m9.6.6.5 1 .4.7q2.9 2.4 2.4 4.9l.4 1-1.8 7.2-.4-.3-.5 1.8-4.1.8v-.1L4 17.1l-1.3-.6Q3 14.8 4.1 14t3.5-.8l.4-.6q1.2-1.9 2-4.1.3-1.1-2.2-2-2.6-.9-2.6-2.1.7-.3 2.4-2.3Q9 .4 9.6.6"/><path fill="#41413a" d="M2.7 16.6 2 16l-2-1q1.8-2 3.1-1.5l.7-1q.9-1 2.1-.1h1.4l.7.2-.4.6-1.7-.8 1.7.8q-2.4 0-3.5.8t-1.4 2.5M4.1 14l-1-.5z"/><path fill="none" stroke="#000" stroke-linecap="round" stroke-linejoin="round" stroke-opacity=".3" stroke-width="__RESOLUTION__" d="m10.7 17 3.6-1q.4-.3.4-1.4l1.6-6.7q.2-1.1-.9-7.8m-5.3 1.5.4.7q2.9 2.4 2.4 4.9M10.6 17l-4.1.6v0L4 17.1l-1.3-.6-.7-.4-2-1q1.7-2 3.1-1.6l.6-.9q1-1 2.2-.2h1.4l.7.2q1.2-1.9 2-4.1.3-1.1-2.2-2-2.6-.9-2.6-2.1m.7 8 1.7.9.4-.6m-.4.6q-2.4 0-3.5.8t-1.4 2.5m.4-3 1 .5" vector-effect="non-scaling-stroke"/></g><g id="n"><path fill="#54561e" d="m5 0 2.8 1.3 1.5 4.1q.3.6 1.3 1.2 1.2.8 1.7 1.9l-3.9 3.7-1-1.1Q6 9.5 5 4.2l-.4-1.3q-.2-1 .5-2.9"/><path fill="#81842e" d="M5 0q-.7 1.9-.4 2.9L5 4.2q1 5.3 2.4 6.9l1 1.1-3.1 2-3.2-.6-1.5-3Q-.1 8.6 0 6l.8-2.5Q1.4 1.9 2.4 1 4.5-.1 5 0"/><path fill="none" stroke="#000" stroke-linecap="round" stroke-linejoin="round" stroke-opacity=".3" stroke-width="__RESOLUTION__" d="M12.3 8.5q-.5-1.1-1.7-1.9-1-.6-1.2-1.2-1.3-3-1.6-4.2L5.1 0q-.6-.1-2.7 1-1 .9-1.7 2.5L0 6q-.1 2.5.6 4.7l1.5 2.9 3.2.6M5 4.2q1 5.3 2.4 6.9" vector-effect="non-scaling-stroke"/></g><g id="o"><path fill="#f17901" d="M2.5 28.8v-.1q.9-4.1 3.8-6.2l8.7 1.1h8.9q.9-.2 2.7 5.4-7.4 3.4-11.8 4.7-4.5-1.3-12.3-4.8zm0-.1v.2z"/><path fill="#ff910b" d="M26.6 29q-2 9-5 11.8-.3-2.7-2.3-4-1.1 3.8-4.7 6.1-3.1-2.3-4.3-6-2 1.2-3.7 4.7-3-7.4-4-12.9 7.8 3.5 12.2 4.9 4.5-1.4 11.8-4.8"/><path fill="none" stroke="#824409" stroke-linecap="round" stroke-linejoin="round" stroke-opacity=".8" stroke-width="__RESOLUTION__" d="M2.5 28.8v-.1q.9-4.1 3.8-6.2l8.7 1.1h8.9q.9-.2 2.7 5.4v.1q-2 9-5 11.9-.4-2.8-2.3-4-1.2 3.7-4.8 6-3-2.3-4.2-6-2 1.2-3.7 4.7-3-7.3-4-12.8z" vector-effect="non-scaling-stroke"/><path fill="#ff910b" d="m21.3 7.6 3 2.4q1.3.6 2.2 1.4 2.6 2.4 2.9 6.1l.1.9q.1 1.7-.3 3.2-7-7.8-11.1-9.2-1.8 0-3.6 1.1-1.9 1-3.2 3.2 1.7-1.5 3.2-2.1 4.9-2.1 7.6 5.3l1.3 5.4 1.1-4.5 1.9 4.9q-5.1 2.6-8 3l-3.9.5q-3-.2-6-1.2v-4.9l-2.3 4Q3.5 25.7 1 23.5.2 21.9 0 20l-.1-.8q3.4-6.3 10.4-8.7l-5-1.6Q7 7.9 9 7.7q2.4-1.6 5.3-1.7h.1l1.2.1.1 4.8z"/><path fill="#f17901" d="M21.3 7.6 15.8 11l-.1-5q3 .2 5.6 1.5M6.3 27l2.2-4v5zm20.1-1.4-1.9-4.8-1 4.4-1.4-5.4q-2.7-7.4-7.6-5.3-1.5.5-3.2 2.1 1.3-2.3 3.2-3.2 1.8-1.1 3.5-1.1 4.2 1.4 11.1 9.2-.5 1.9-1.8 3.7l-.4.2z"/><path fill="#ffb130" d="m5.5 9 4.9 1.5q-7 2.4-10.4 8.7v-.7q.4-5.3 4.6-8.9z"/><path fill="none" stroke="#824409" stroke-linecap="round" stroke-linejoin="round" stroke-opacity=".8" stroke-width="__RESOLUTION__" d="M29.2 21.6q.4-1.5.3-3.2l-.1-.9q-.2-3.7-3-6-.8-.9-2.1-1.5l-3-2.4q-2.6-1.3-5.6-1.5h-1.3q-3 0-5.3 1.7Q7 7.9 5.5 9l-1 .6q-4 3.6-4.5 8.9V20q.2 1.8.9 3.6h0q2.7 2.2 5.4 3.4l2.2 1q3 1 6 1.2l3.9-.5q2.9-.3 8-3l.5-.2.4-.2q1.3-1.8 1.8-3.7" vector-effect="non-scaling-stroke"/><path fill="none" stroke="#fec667" stroke-linecap="round" stroke-linejoin="round" stroke-width="__RESOLUTION__" d="M22.1 19.9q-2.7-7.4-7.6-5.3-1.4.5-3.1 2.1" vector-effect="non-scaling-stroke"/><path fill="#815c2d" d="m16.5 6.4.6.1 1.2.6q1.5 1 1.7 2.3t-1.2 2.3-3.4 1-3.5-1-1.7-2.2q0-1.4 1.2-2.4l1.2-.6q-.5-2-.4-3.7.1.4.7.6t1.6 0 1.6-.7l.5-.7q-.4 2.6-.2 4.4.2 1.7 1 2.6-.8-.8-1-2.6m-2.2 3.8q-1-1.9-1.6-3.7.6 1.8 1.6 3.7m1 .4q1.2 0 2.1-.8-.9.9-2 .8"/><path fill="#b17e3d" d="m16.7 2-.6.7q-.6.5-1.6.7t-1.6 0-.7-.5v-.2q0-.6.6-1t1.5-.6 1.6 0 .7.6z"/><path fill="none" stroke="#000" stroke-linecap="round" stroke-linejoin="round" stroke-opacity=".3" stroke-width="__RESOLUTION__" d="m12.7 6.5-1.2.7q-1.3 1-1.2 2.3t1.6 2.2 3.5 1 3.4-1q1.3-1 1.2-2.2Q19.9 8 18.4 7l-1.2-.6-.7-.2q.2 1.9 1 2.8m-1-2.7q-.3-1.8.2-4.3v-.3q-.1-.5-.7-.7t-1.7 0q-.9.2-1.5.7t-.6.9v.2q-.1 1.7.5 3.6.5 1.8 1.6 3.7m3-.4q-.9.8-2 .8" vector-effect="non-scaling-stroke"/><path fill="#81842e" d="M20.8 13.6Q21.1 6.7 24 0q6 8 3.8 15.8h-2.7q-2.9-.3-4.3-2.2"/><path fill="none" stroke="#000" stroke-linecap="round" stroke-linejoin="round" stroke-opacity=".3" stroke-width="__RESOLUTION__" d="M20.8 13.6q1.5 1.9 4.3 2.2h2.7Q30 8 24 0q-2.9 6.7-3.2 13.6" vector-effect="non-scaling-stroke"/><path fill="#81842e" d="M10.1 13.6q-1.5 1.9-4.3 2.2H3.1Q.9 8 6.8 0q3 6.7 3.3 13.6"/><path fill="none" stroke="#000" stroke-linecap="round" stroke-linejoin="round" stroke-opacity=".3" stroke-width="__RESOLUTION__" d="M10.1 13.6q-1.5 1.9-4.3 2.2H3.1Q.9 8 6.8 0q3 6.7 3.3 13.6" vector-effect="non-scaling-stroke"/></g><path id="a" fill="#000" fill-opacity=".4" d="M13.9-.8q0 1.6-4 3T.3 3.9l-9.9-.5q-4.1-1-4.2-2.6 0-1.6 4-3t9.7-1.6l9.8.5q4.1.9 4.2 2.5" transform="translate(13.85 3.95)"/></defs><g clip-path="url(#q)"><g transform="translate(35.5 86.1)"><use xlink:href="#r" width="12.9" height="4.3" transform="matrix(1.5046 .3108 -.2998 1.5596 -9.15 -5.35)"/><use xlink:href="#s" width="29.5" height="43" transform="rotate(-6.488 -630.483 123.999)"/><use xlink:href="#t" width="12.3" height="14.2" transform="translate(-13.3 -23.85)"/><use xlink:href="#u" width="16.3" height="17.6" transform="matrix(1 0 .2386 1 -19.2 -16.05)"/><use xlink:href="#v" width="12.3" height="14.2" transform="rotate(-30.73 -27.645 -10.14)"/><use xlink:href="#w" width="16.3" height="17.6" transform="rotate(37.744 33.242 3.34)"/><use xlink:href="#x" width="26.4" height="21.6" transform="matrix(1 .1401 0 1 -12.65 -27.55)"/><use xlink:href="#y" width="16.1" height="14.2" transform="rotate(-10.48 -116.743 119.032)"/><use xlink:href="#z" width="16.1" height="14.2" transform="matrix(.9443 .2404 -.3289 .6903 8.7 -37.1)"/><use xlink:href="#A" width="18.4" height="25.9" transform="rotate(-10.48 -224.975 163.255)"/><use xlink:href="#B" width="18.4" height="25.9" transform="matrix(.992 .092 -.1259 .7251 14.35 -49.2)"/><use xlink:href="#C" width="16.4" height="22.3" transform="translate(-26.65 -53.3)"/><use xlink:href="#D" width="16.4" height="22.3" transform="rotate(-9.207 -360.516 -82.778)"/><use xlink:href="#E" width="39.3" height="50.1" transform="matrix(1 -.1069 0 1 -18.85 -61.6)"/><use xlink:href="#F" width="30.6" height="30.6" transform="rotate(22.688 43.647 -39.609)"/></g></g><g clip-path="url(#G)"><g transform="translate(106.5 86.1)"><use xlink:href="#r" width="12.9" height="4.3" transform="matrix(1.5046 .3108 -.2998 1.5596 -9.15 -5.35)"/><use xlink:href="#s" width="29.5" height="43" transform="rotate(-5.05 -830.777 162.731)scale(.9997)"/><use xlink:href="#t" width="12.3" height="14.2" transform="translate(-13.3 -23.1)"/><use xlink:href="#u" width="16.3" height="17.6" transform="matrix(1 0 .2133 1.0007 -18.8 -15.2)"/><use xlink:href="#v" width="12.3" height="14.2" transform="matrix(.881 -.4702 .4702 .881 1.5 -17.4)"/><use xlink:href="#w" width="16.3" height="17.6" transform="rotate(36.853 35.415 3.457)scale(.9984)"/><use xlink:href="#x" width="26.4" height="21.6" transform="matrix(1.0058 .0841 0 1 -12.75 -28.1)"/><use xlink:href="#y" width="16.1" height="14.2" transform="rotate(-8.289 -166.27 155.12)scale(.9995)"/><use xlink:href="#z" width="16.1" height="14.2" transform="matrix(.96 .1918 -.2814 .7604 9.05 -36.55)"/><use xlink:href="#A" width="18.4" height="25.9" transform="rotate(-8.289 -303.599 207.597)scale(.9995)"/><use xlink:href="#B" width="18.4" height="25.9" transform="matrix(.9943 .0706 -.1068 .7812 14.35 -50.05)"/><use xlink:href="#C" width="16.4" height="22.3" transform="translate(-26.65 -55.85)"/><use xlink:href="#D" width="16.4" height="22.3" transform="matrix(.9915 -.1267 .1267 .9915 9.1 -60.55)"/><use xlink:href="#E" width="39.3" height="50.1" transform="matrix(1.0028 -.0666 0 1 -18.9 -64.25)"/><use xlink:href="#F" width="30.6" height="30.6" transform="rotate(20.812 48.999 -42.772)scale(.9989)"/></g></g><g clip-path="url(#H)"><g transform="translate(177.5 86.1)"><use xlink:href="#r" width="12.9" height="4.3" transform="matrix(1.5046 .3108 -.2998 1.5596 -9.15 -5.35)"/><use xlink:href="#s" width="29.5" height="43" transform="matrix(.9976 -.066 .066 .9976 -17.1 -74.5)"/><use xlink:href="#t" width="12.3" height="14.2" transform="translate(-13.3 -22.35)"/><use xlink:href="#u" width="16.3" height="17.6" transform="matrix(1 0 .1902 1.0011 -18.35 -14.35)"/><use xlink:href="#v" width="12.3" height="14.2" transform="rotate(-25.567 -41.842 -13.2)scale(.9987)"/><use xlink:href="#w" width="16.3" height="17.6" transform="rotate(36.069 37.718 3.686)scale(.9984)"/><use xlink:href="#x" width="26.4" height="21.6" transform="matrix(1.0088 .0309 0 1 -12.75 -28.7)"/><use xlink:href="#y" width="16.1" height="14.2" transform="rotate(-6.26 -243.565 210.917)scale(.9997)"/><use xlink:href="#z" width="16.1" height="14.2" transform="matrix(.9733 .1458 -.226 .8277 9.3 -36.05)"/><use xlink:href="#A" width="18.4" height="25.9" transform="rotate(-6.26 -426.095 278.433)scale(.9997)"/><use xlink:href="#B" width="18.4" height="25.9" transform="matrix(.9962 .053 -.0849 .837 14.3 -51.05)"/><use xlink:href="#C" width="16.4" height="22.3" transform="translate(-26.65 -58.4)"/><use xlink:href="#D" width="16.4" height="22.3" transform="rotate(-5.505 -642.68 -129.93)scale(.9997)"/><use xlink:href="#E" width="39.3" height="50.1" transform="matrix(1.0042 -.0309 0 1 -18.95 -66.85)"/><use xlink:href="#F" width="30.6" height="30.6" transform="rotate(19.046 54.951 -45.991)scale(.999)"/></g></g><g clip-path="url(#I)"><g transform="translate(248.5 86.1)"><use xlink:href="#r" width="12.9" height="4.3" transform="matrix(1.5046 .3108 -.2998 1.5596 -9.15 -5.35)"/><use xlink:href="#s" width="29.5" height="43" transform="matrix(.9989 -.044 .044 .9989 -16.7 -76.5)"/><use xlink:href="#t" width="12.3" height="14.2" transform="translate(-13.3 -21.65)"/><use xlink:href="#u" width="16.3" height="17.6" transform="matrix(1 0 .164 1.0016 -17.9 -13.55)"/><use xlink:href="#v" width="12.3" height="14.2" transform="matrix(.9191 -.391 .391 .9191 1.8 -21.1)"/><use xlink:href="#w" width="16.3" height="17.6" transform="rotate(35.102 40.19 3.635)scale(.9984)"/><use xlink:href="#x" width="26.4" height="21.6" transform="matrix(1.0089 -.0224 0 1 -12.75 -29.35)"/><use xlink:href="#y" width="16.1" height="14.2" transform="rotate(-4.05 -413.425 338.004)scale(.9998)"/><use xlink:href="#z" width="16.1" height="14.2" transform="matrix(.9848 .0958 -.158 .8914 9.45 -35.4)"/><use xlink:href="#A" width="18.4" height="25.9" transform="rotate(-4.05 -697.296 436.304)scale(.9998)"/><use xlink:href="#B" width="18.4" height="25.9" transform="matrix(.9978 .0354 -.0592 .8922 14.25 -51.95)"/><use xlink:href="#C" width="16.4" height="22.3" transform="translate(-26.65 -61)"/><use xlink:href="#D" width="16.4" height="22.3" transform="rotate(-3.544 -1030.197 -194.46)scale(.9998)"/><use xlink:href="#E" width="39.3" height="50.1" transform="matrix(1.0042 .0048 0 1 -18.95 -69.3)"/><use xlink:href="#F" width="30.6" height="30.6" transform="rotate(17.278 62.149 -49.677)scale(.999)"/></g></g><g clip-path="url(#J)"><g transform="translate(319.5 86.1)"><use xlink:href="#r" width="12.9" height="4.3" transform="matrix(1.5046 .3108 -.2998 1.5596 -9.15 -5.35)"/><use xlink:href="#s" width="29.5" height="43" transform="rotate(-1.26 -3573.37 697.007)"/><use xlink:href="#t" width="12.3" height="14.2" transform="translate(-13.3 -20.9)"/><use xlink:href="#u" width="16.3" height="17.6" transform="matrix(1 0 .1412 1.0009 -17.5 -12.7)"/><use xlink:href="#v" width="12.3" height="14.2" transform="matrix(.9355 -.3502 .3502 .9355 2 -23)"/><use xlink:href="#w" width="16.3" height="17.6" transform="rotate(34.324 42.686 3.843)scale(.9985)"/><use xlink:href="#x" width="26.4" height="21.6" transform="matrix(1.0059 -.0756 0 1 -12.75 -29.95)"/><use xlink:href="#y" width="16.1" height="14.2" transform="rotate(-2.023 -899.016 702.201)"/><use xlink:href="#z" width="16.1" height="14.2" transform="matrix(.9936 .0482 -.0835 .949 9.65 -34.75)"/><use xlink:href="#A" width="18.4" height="25.9" transform="rotate(-2.023 -1471.625 886.127)"/><use xlink:href="#B" width="18.4" height="25.9" transform="matrix(.999 .0177 -.0298 .9466 14.1 -52.85)"/><use xlink:href="#C" width="16.4" height="22.3" transform="translate(-26.65 -63.55)"/><use xlink:href="#D" width="16.4" height="22.3" transform="rotate(-1.77 -2125.073 -370.99)scale(.9999)"/><use xlink:href="#E" width="39.3" height="50.1" transform="matrix(1.0027 .0438 0 1 -18.9 -71.95)"/><use xlink:href="#F" width="30.6" height="30.6" transform="rotate(15.518 70.747 -54.12)scale(.9991)"/></g></g><g clip-path="url(#K)"><g transform="translate(390.5 86.1)"><use xlink:href="#r" width="12.9" height="4.3" transform="matrix(1.5046 .3108 -.2998 1.5596 -9.15 -5.35)"/><use xlink:href="#s" width="29.5" height="43" transform="translate(-15.7 -80.35)"/><use xlink:href="#t" width="12.3" height="14.2" transform="translate(-13.3 -20.15)"/><use xlink:href="#u" width="16.3" height="17.6" transform="matrix(1 0 .1186 1 -17.1 -11.85)"/><use xlink:href="#v" width="12.3" height="14.2" transform="rotate(-17.951 -77.432 -19.206)"/><use xlink:href="#w" width="16.3" height="17.6" transform="rotate(33.444 45.242 3.827)"/><use xlink:href="#x" width="26.4" height="21.6" transform="matrix(1 -.1326 0 1 -12.65 -30.6)"/><use xlink:href="#y" width="16.1" height="14.2" transform="translate(-25.75 -34.3)"/><use xlink:href="#z" width="16.1" height="14.2" transform="translate(9.7 -34.05)"/><use xlink:href="#A" width="18.4" height="25.9" transform="translate(-32 -54.75)"/><use xlink:href="#B" width="18.4" height="25.9" transform="translate(13.9 -53.75)"/><use xlink:href="#C" width="16.4" height="22.3" transform="translate(-26.65 -66.1)"/><use xlink:href="#D" width="16.4" height="22.3" transform="translate(10.95 -67.45)"/><use xlink:href="#E" width="39.3" height="50.1" transform="matrix(1 .0814 0 1 -18.85 -74.5)"/><use xlink:href="#F" width="30.6" height="30.6" transform="rotate(13.715 81.957 -60.258)"/></g></g><g clip-path="url(#L)"><g transform="translate(461.5 86.1)"><use xlink:href="#r" width="12.9" height="4.3" transform="matrix(1.5046 .3108 -.2998 1.5596 -9.15 -5.35)"/><use xlink:href="#s" width="29.5" height="43" transform="rotate(.539 8640.512 -1689.458)"/><use xlink:href="#t" width="12.3" height="14.2" transform="rotate(2.55 507.77 -304.531)scale(.9999)"/><use xlink:href="#u" width="16.3" height="17.6" transform="matrix(.989 -.1445 .2397 .9759 -18.35 -13.65)"/><use xlink:href="#v" width="12.3" height="14.2" transform="rotate(-16.055 -92.093 -21.304)scale(.999)"/><use xlink:href="#w" width="16.3" height="17.6" transform="rotate(33.62 47.277 3.146)scale(.9984)"/><use xlink:href="#x" width="26.4" height="21.6" transform="matrix(1.0011 -.1054 0 1 -12.65 -32.15)"/><use xlink:href="#y" width="16.1" height="14.2" transform="matrix(.9995 -.0273 .0273 .9995 -26 -34.95)"/><use xlink:href="#z" width="16.1" height="14.2" transform="rotate(.516 3865.803 1093.648)"/><use xlink:href="#A" width="18.4" height="25.9" transform="rotate(-.75 -4237.383 2453.124)"/><use xlink:href="#B" width="18.4" height="25.9" transform="rotate(.516 6045.632 1578.253)"/><use xlink:href="#C" width="16.4" height="22.3" transform="rotate(1.805 2128.928 -869.964)scale(.9999)"/><use xlink:href="#D" width="16.4" height="22.3" transform="rotate(-1.513 -2565.99 -442.949)"/><use xlink:href="#E" width="39.3" height="50.1" transform="matrix(1.0001 .088 0 1 -18.85 -75.35)"/><use xlink:href="#F" width="30.6" height="30.6" transform="rotate(11.282 97.953 -71.78)scale(.9993)"/></g></g><g clip-path="url(#M)"><g transform="translate(532.5 86.1)"><use xlink:href="#r" width="12.9" height="4.3" transform="matrix(1.5046 .3108 -.2998 1.5596 -9.15 -5.35)"/><use xlink:href="#s" width="29.5" height="43" transform="rotate(1.26 3730.367 -731.91)"/><use xlink:href="#t" width="12.3" height="14.2" transform="rotate(5.286 272.546 -150.427)scale(.9997)"/><use xlink:href="#u" width="16.3" height="17.6" transform="matrix(.9563 -.2891 .36 .9363 -19.55 -15.3)"/><use xlink:href="#v" width="12.3" height="14.2" transform="rotate(-14.288 -109.951 -23.1)scale(.9992)"/><use xlink:href="#w" width="16.3" height="17.6" transform="rotate(34.07 48.885 2.247)scale(.9984)"/><use xlink:href="#x" width="26.4" height="21.6" transform="matrix(1.0019 -.079 0 1 -12.65 -33.7)"/><use xlink:href="#y" width="16.1" height="14.2" transform="rotate(-3.314 -626.658 435.92)scale(.9998)"/><use xlink:href="#z" width="16.1" height="14.2" transform="rotate(1.037 1963.507 554.03)"/><use xlink:href="#A" width="18.4" height="25.9" transform="rotate(-1.501 -2145.81 1233.262)"/><use xlink:href="#B" width="18.4" height="25.9" transform="rotate(1.037 3037.554 803.969)"/><use xlink:href="#C" width="16.4" height="22.3" transform="rotate(3.797 1027.209 -425.958)scale(.9998)"/><use xlink:href="#D" width="16.4" height="22.3" transform="matrix(.9984 -.0527 .0527 .9984 10.65 -68.3)"/><use xlink:href="#E" width="39.3" height="50.1" transform="matrix(1.0002 .0965 0 1 -18.85 -76.2)"/><use xlink:href="#F" width="30.6" height="30.6" transform="rotate(8.811 123.647 -89.825)scale(.9995)"/></g></g><g clip-path="url(#N)"><g transform="translate(603.5 86.1)"><use xlink:href="#r" width="12.9" height="4.3" transform="matrix(1.5046 .3108 -.2998 1.5596 -9.15 -5.35)"/><use xlink:href="#s" width="29.5" height="43" transform="rotate(1.8 2641.245 -519.138)scale(.9999)"/><use xlink:href="#t" width="12.3" height="14.2" transform="rotate(8.028 196.872 -102.604)scale(.9996)"/><use xlink:href="#u" width="16.3" height="17.6" transform="matrix(.9026 -.4274 .4715 .8835 -20.5 -16.85)"/><use xlink:href="#v" width="12.3" height="14.2" transform="matrix(.9755 -.2167 .2167 .9755 2.45 -29.4)"/><use xlink:href="#w" width="16.3" height="17.6" transform="rotate(34.335 50.79 1.419)scale(.9984)"/><use xlink:href="#x" width="26.4" height="21.6" transform="matrix(1.002 -.0526 0 1 -12.75 -35.25)"/><use xlink:href="#y" width="16.1" height="14.2" transform="rotate(-5.062 -421.085 282.318)scale(.9997)"/><use xlink:href="#z" width="16.1" height="14.2" transform="rotate(1.553 1338.96 372.984)"/><use xlink:href="#A" width="18.4" height="25.9" transform="rotate(-2.253 -1449.856 823.804)scale(.9999)"/><use xlink:href="#B" width="18.4" height="25.9" transform="rotate(1.553 2053.483 547.796)"/><use xlink:href="#C" width="16.4" height="22.3" transform="rotate(5.787 683.126 -288.419)scale(.9997)"/><use xlink:href="#D" width="16.4" height="22.3" transform="matrix(.9966 -.079 .079 .9966 10.5 -68.7)"/><use xlink:href="#E" width="39.3" height="50.1" transform="matrix(1.0006 .1019 0 1 -18.8 -77)"/><use xlink:href="#F" width="30.6" height="30.6" transform="rotate(6.526 164.363 -118.919)scale(.9996)"/></g></g><g clip-path="url(#O)"><g transform="translate(674.5 86.1)"><use xlink:href="#r" width="12.9" height="4.3" transform="matrix(1.5046 .3108 -.2998 1.5596 -9.15 -5.35)"/><use xlink:href="#s" width="29.5" height="43" transform="rotate(2.522 1905.083 -377.12)scale(.9999)"/><use xlink:href="#t" width="12.3" height="14.2" transform="rotate(10.767 159.782 -79.56)scale(.9994)"/><use xlink:href="#u" width="16.3" height="17.6" transform="matrix(.8291 -.5563 .5781 .8158 -21.2 -18.45)"/><use xlink:href="#v" width="12.3" height="14.2" transform="rotate(-10.761 -162.496 -28.962)scale(.9994)"/><use xlink:href="#w" width="16.3" height="17.6" transform="rotate(34.599 52.535 .456)scale(.9984)"/><use xlink:href="#x" width="26.4" height="21.6" transform="matrix(1.0013 -.0263 0 1 -12.7 -36.9)"/><use xlink:href="#y" width="16.1" height="14.2" transform="rotate(-6.814 -321.226 206.77)scale(.9997)"/><use xlink:href="#z" width="16.1" height="14.2" transform="rotate(2.258 940.276 259.352)scale(.9999)"/><use xlink:href="#A" width="18.4" height="25.9" transform="matrix(.9985 -.0524 .0524 .9985 -34 -56.85)"/><use xlink:href="#B" width="18.4" height="25.9" transform="matrix(.9991 .0394 -.0394 .9991 16.2 -56)"/><use xlink:href="#C" width="16.4" height="22.3" transform="rotate(7.78 515.391 -220.835)scale(.9995)"/><use xlink:href="#D" width="16.4" height="22.3" transform="rotate(-6.04 -649.617 -132.627)scale(.9997)"/><use xlink:href="#E" width="39.3" height="50.1" transform="matrix(1.0007 .1104 0 1 -18.8 -77.8)"/><use xlink:href="#F" width="30.6" height="30.6" transform="rotate(4.061 258.851 -186.386)scale(.9997)"/></g></g><g clip-path="url(#P)"><g transform="translate(745.5 86.1)"><use xlink:href="#r" width="12.9" height="4.3" transform="matrix(1.5046 .3108 -.2998 1.5596 -9.15 -5.35)"/><use xlink:href="#s" width="29.5" height="43" transform="rotate(3.228 1503.126 -298.116)"/><use xlink:href="#t" width="12.3" height="14.2" transform="rotate(13.497 138.05 -66.251)"/><use xlink:href="#u" width="16.3" height="17.6" transform="rotate(-42.434 -36.494 17.844)"/><use xlink:href="#v" width="12.3" height="14.2" transform="rotate(-8.975 -205.453 -32.47)"/><use xlink:href="#w" width="16.3" height="17.6" transform="rotate(34.957 54.267 -.594)scale(.9999)"/><use xlink:href="#x" width="26.4" height="21.6" transform="translate(-12.65 -38.5)"/><use xlink:href="#y" width="16.1" height="14.2" transform="rotate(-8.743 -257.147 157.978)"/><use xlink:href="#z" width="16.1" height="14.2" transform="rotate(2.86 759.674 205.494)"/><use xlink:href="#A" width="18.4" height="25.9" transform="rotate(-3.756 -891.074 497.474)"/><use xlink:href="#B" width="18.4" height="25.9" transform="rotate(2.86 1142.014 308.179)"/><use xlink:href="#C" width="16.4" height="22.3" transform="rotate(9.823 413.27 -180.291)"/><use xlink:href="#D" width="16.4" height="22.3" transform="rotate(-7.706 -510.871 -110.1)"/><use xlink:href="#E" width="39.3" height="50.1" transform="matrix(1.0008 .1208 0 1 -18.8 -78.6)"/><use xlink:href="#F" width="30.6" height="30.6" transform="rotate(1.863 555 -399.763)"/></g></g><g clip-path="url(#Q)"><g transform="translate(816.5 86.1)"><use xlink:href="#r" width="12.9" height="4.3" transform="matrix(1.5046 .3108 -.2998 1.5596 -9.15 -5.35)"/><use xlink:href="#s" width="29.5" height="43" transform="rotate(3.78 1259.066 -256.97)scale(.9998)"/><use xlink:href="#t" width="12.3" height="14.2" transform="rotate(10.767 162.195 -79.52)scale(.9994)"/><use xlink:href="#u" width="16.3" height="17.6" transform="rotate(-43.904 -33.699 17.061)scale(.9983)"/><use xlink:href="#v" width="12.3" height="14.2" transform="matrix(.992 -.1227 .1227 .992 2.85 -31.35)"/><use xlink:href="#w" width="16.3" height="17.6" transform="matrix(.8829 .4664 -.5113 .8645 8.55 -29.05)"/><use xlink:href="#x" width="26.4" height="21.6" transform="matrix(1 .0009 0 1 -12.65 -36.7)"/><use xlink:href="#y" width="16.1" height="14.2" transform="matrix(.9816 -.1689 .1881 .943 -26.05 -36.5)"/><use xlink:href="#z" width="16.1" height="14.2" transform="rotate(3.297 624.547 161.131)scale(.9999)"/><use xlink:href="#A" width="18.4" height="25.9" transform="matrix(.9966 -.0706 .08 .9552 -33.75 -55.6)"/><use xlink:href="#B" width="18.4" height="25.9" transform="rotate(3.297 955.004 254.215)scale(.9999)"/><use xlink:href="#C" width="16.4" height="22.3" transform="rotate(9.77 406.095 -178.196)scale(.9994)"/><use xlink:href="#D" width="16.4" height="22.3" transform="rotate(-6.04 -634.405 -132.774)scale(.9997)"/><use xlink:href="#E" width="39.3" height="50.1" transform="matrix(1.0005 .1277 0 1 -18.8 -77)"/><use xlink:href="#F" width="30.6" height="30.6" transform="rotate(-.499 -2029.224 1462.345)"/></g></g><g clip-path="url(#R)"><g transform="translate(887.5 86.1)"><use xlink:href="#r" width="12.9" height="4.3" transform="matrix(1.5046 .3108 -.2998 1.5596 -9.15 -5.35)"/><use xlink:href="#s" width="29.5" height="43" transform="rotate(4.51 1035.01 -217.542)scale(.9997)"/><use xlink:href="#t" width="12.3" height="14.2" transform="rotate(8.028 203.666 -102.723)scale(.9996)"/><use xlink:href="#u" width="16.3" height="17.6" transform="rotate(-45.609 -30.989 16.289)scale(.9983)"/><use xlink:href="#v" width="12.3" height="14.2" transform="rotate(-5.286 -326.085 -48.7)scale(.9997)"/><use xlink:href="#w" width="16.3" height="17.6" transform="matrix(.9336 .3552 -.4483 .9055 7.75 -26.9)"/><use xlink:href="#x" width="26.4" height="21.6" transform="matrix(1 .0052 0 1 -12.65 -34.95)"/><use xlink:href="#y" width="16.1" height="14.2" transform="matrix(.975 -.1856 .2205 .897 -25.05 -35.65)"/><use xlink:href="#z" width="16.1" height="14.2" transform="rotate(4.004 486.078 117.646)scale(.9997)"/><use xlink:href="#A" width="18.4" height="25.9" transform="matrix(.9953 -.0789 .0961 .9122 -33.2 -54.05)"/><use xlink:href="#B" width="18.4" height="25.9" transform="rotate(4.004 757.43 197.68)scale(.9997)"/><use xlink:href="#C" width="16.4" height="22.3" transform="rotate(9.76 397.41 -175.219)scale(.9994)"/><use xlink:href="#D" width="16.4" height="22.3" transform="matrix(.9966 -.079 .079 .9966 10.6 -65.4)"/><use xlink:href="#E" width="39.3" height="50.1" transform="matrix(1.0002 .1363 0 1 -18.8 -75.4)"/><use xlink:href="#F" width="30.6" height="30.6" transform="rotate(-2.78 -354.57 255.253)scale(.9998)"/></g></g><g clip-path="url(#S)"><g transform="translate(958.5 86.1)"><use xlink:href="#r" width="12.9" height="4.3" transform="matrix(1.5046 .3108 -.2998 1.5596 -9.15 -5.35)"/><use xlink:href="#s" width="29.5" height="43" transform="rotate(5.044 906.94 -194.621)scale(.9997)"/><use xlink:href="#t" width="12.3" height="14.2" transform="rotate(5.286 287.759 -150.044)scale(.9997)"/><use xlink:href="#u" width="16.3" height="17.6" transform="rotate(-47.131 -28.502 15.607)scale(.9983)"/><use xlink:href="#v" width="12.3" height="14.2" transform="rotate(-3.52 -474.133 -69.936)scale(.9998)"/><use xlink:href="#w" width="16.3" height="17.6" transform="matrix(.9703 .2387 -.3821 .9419 6.95 -24.7)"/><use xlink:href="#x" width="26.4" height="21.6" transform="matrix(1 .0094 0 1 -12.6 -33.25)"/><use xlink:href="#y" width="16.1" height="14.2" transform="matrix(.9682 -.2021 .252 .8493 -24.15 -34.9)"/><use xlink:href="#z" width="16.1" height="14.2" transform="rotate(4.52 405.792 91.819)scale(.9997)"/><use xlink:href="#A" width="18.4" height="25.9" transform="matrix(.994 -.0873 .1075 .8694 -32.45 -52.25)"/><use xlink:href="#B" width="18.4" height="25.9" transform="rotate(4.52 643.406 165.538)scale(.9997)"/><use xlink:href="#C" width="16.4" height="22.3" transform="rotate(9.567 395.347 -175.683)scale(.9994)"/><use xlink:href="#D" width="16.4" height="22.3" transform="matrix(.9984 -.0527 .0527 .9984 10.9 -63.4)"/><use xlink:href="#E" width="39.3" height="50.1" transform="matrix(1.0004 .1416 0 1 -18.85 -73.75)"/><use xlink:href="#F" width="30.6" height="30.6" transform="rotate(-5.062 -189.66 136.698)scale(.9997)"/></g></g><g clip-path="url(#T)"><g transform="translate(1029.5 86.1)"><use xlink:href="#r" width="12.9" height="4.3" transform="matrix(1.5046 .3108 -.2998 1.5596 -9.15 -5.35)"/><use xlink:href="#s" width="29.5" height="43" transform="rotate(5.77 777.165 -171.459)scale(.9997)"/><use xlink:href="#t" width="12.3" height="14.2" transform="rotate(2.55 550.466 -304.358)scale(.9999)"/><use xlink:href="#u" width="16.3" height="17.6" transform="rotate(-48.655 -26.242 15.176)scale(.9983)"/><use xlink:href="#v" width="12.3" height="14.2" transform="rotate(-1.76 -914.78 -132.924)scale(.9999)"/><use xlink:href="#w" width="16.3" height="17.6" transform="matrix(.9925 .1186 -.313 .9734 6.3 -22.4)"/><use xlink:href="#x" width="26.4" height="21.6" transform="matrix(1 .0136 0 1 -12.6 -31.55)"/><use xlink:href="#y" width="16.1" height="14.2" transform="matrix(.9611 -.2184 .2769 .8016 -23.1 -34.05)"/><use xlink:href="#z" width="16.1" height="14.2" transform="rotate(5.039 341.301 71.514)scale(.9997)"/><use xlink:href="#A" width="18.4" height="25.9" transform="matrix(.9925 -.0956 .1201 .8261 -31.7 -50.55)"/><use xlink:href="#B" width="18.4" height="25.9" transform="rotate(5.039 553.818 140.155)scale(.9997)"/><use xlink:href="#C" width="16.4" height="22.3" transform="rotate(9.561 386.472 -173.198)scale(.9994)"/><use xlink:href="#D" width="16.4" height="22.3" transform="rotate(-1.513 -2315.896 -451.01)"/><use xlink:href="#E" width="39.3" height="50.1" transform="matrix(1.0001 .1503 0 1 -18.85 -72.1)"/><use xlink:href="#F" width="30.6" height="30.6" transform="rotate(-7.53 -123.431 89.932)"/></g></g><g clip-path="url(#U)"><g transform="translate(1100.5 86.1)"><use xlink:href="#r" width="12.9" height="4.3" transform="matrix(1.5046 .3108 -.2998 1.5596 -9.15 -5.35)"/><use xlink:href="#s" width="29.5" height="43" transform="rotate(6.46 680.535 -155.287)"/><use xlink:href="#t" width="12.3" height="14.2" transform="translate(-13.3 -22.35)"/><use xlink:href="#u" width="16.3" height="17.6" transform="rotate(-50.242 -24.048 14.806)"/><use xlink:href="#v" width="12.3" height="14.2" transform="translate(4.05 -27)"/><use xlink:href="#w" width="16.3" height="17.6" transform="matrix(1 0 -.2443 1 6 -20.2)"/><use xlink:href="#x" width="26.4" height="21.6" transform="matrix(1 .019 0 1 -12.65 -29.75)"/><use xlink:href="#y" width="16.1" height="14.2" transform="matrix(.9538 -.2373 .3004 .7535 -21.95 -33.4)"/><use xlink:href="#z" width="16.1" height="14.2" transform="rotate(5.716 280.313 54.276)"/><use xlink:href="#A" width="18.4" height="25.9" transform="matrix(.9914 -.1033 .1307 .7832 -30.95 -48.9)"/><use xlink:href="#B" width="18.4" height="25.9" transform="rotate(5.716 467.086 115.23)"/><use xlink:href="#C" width="16.4" height="22.3" transform="rotate(9.7 372.037 -168.662)"/><use xlink:href="#D" width="16.4" height="22.3" transform="translate(11.35 -59.2)"/><use xlink:href="#E" width="39.3" height="50.1" transform="matrix(1 .1603 0 1 -18.85 -70.65)"/><use xlink:href="#F" width="30.6" height="30.6" transform="rotate(-9.98 -89.954 65.424)"/></g></g><g clip-path="url(#V)"><g transform="translate(1171.5 86.1)"><use xlink:href="#r" width="12.9" height="4.3" transform="matrix(1.5046 .3108 -.2998 1.5596 -9.15 -5.35)"/><use xlink:href="#s" width="29.5" height="43" transform="rotate(5.044 871.135 -194.181)scale(.9997)"/><use xlink:href="#t" width="12.3" height="14.2" transform="translate(-13.55 -23.6)"/><use xlink:href="#u" width="16.3" height="17.6" transform="rotate(-48.139 -25.397 15.375)scale(.9983)"/><use xlink:href="#v" width="12.3" height="14.2" transform="translate(4.05 -25.1)"/><use xlink:href="#w" width="16.3" height="17.6" transform="matrix(1 0 -.2272 1.0002 5.7 -18)"/><use xlink:href="#x" width="26.4" height="21.6" transform="matrix(1.0012 .0403 0 1 -12.65 -30)"/><use xlink:href="#y" width="16.1" height="14.2" transform="matrix(.9674 -.1889 .2522 .8098 -22.8 -32.8)"/><use xlink:href="#z" width="16.1" height="14.2" transform="rotate(4.52 356.45 79.177)scale(.9997)"/><use xlink:href="#A" width="18.4" height="25.9" transform="matrix(.9937 -.0826 .1093 .8277 -31.2 -49.25)"/><use xlink:href="#B" width="18.4" height="25.9" transform="rotate(4.52 593.988 150.995)scale(.9997)"/><use xlink:href="#C" width="16.4" height="22.3" transform="rotate(7.756 465.253 -208.628)scale(.9995)"/><use xlink:href="#D" width="16.4" height="22.3" transform="translate(11.25 -59.85)"/><use xlink:href="#E" width="39.3" height="50.1" transform="matrix(1.0007 .1364 0 1 -18.85 -70.45)"/><use xlink:href="#F" width="30.6" height="30.6" transform="rotate(-5.062 -182.282 136.457)scale(.9997)"/></g></g><g clip-path="url(#W)"><g transform="translate(1242.5 86.1)"><use xlink:href="#r" width="12.9" height="4.3" transform="matrix(1.5046 .3108 -.2998 1.5596 -9.15 -5.35)"/><use xlink:href="#s" width="29.5" height="43" transform="rotate(3.78 1161.343 -252.987)scale(.9998)"/><use xlink:href="#t" width="12.3" height="14.2" transform="translate(-13.8 -24.85)"/><use xlink:href="#u" width="16.3" height="17.6" transform="rotate(-46.104 -26.903 16.098)scale(.9983)"/><use xlink:href="#v" width="12.3" height="14.2" transform="translate(4.05 -23.15)"/><use xlink:href="#w" width="16.3" height="17.6" transform="matrix(1 0 -.2132 1.0002 5.45 -15.8)"/><use xlink:href="#x" width="26.4" height="21.6" transform="matrix(1.0016 .0661 0 1 -12.65 -30.25)"/><use xlink:href="#y" width="16.1" height="14.2" transform="matrix(.9789 -.1426 .1996 .8633 -23.5 -32.2)"/><use xlink:href="#z" width="16.1" height="14.2" transform="rotate(3.297 491.252 121.495)scale(.9999)"/><use xlink:href="#A" width="18.4" height="25.9" transform="matrix(.996 -.0612 .0847 .872 -31.45 -49.7)"/><use xlink:href="#B" width="18.4" height="25.9" transform="rotate(3.297 819.128 215.523)scale(.9999)"/><use xlink:href="#C" width="16.4" height="22.3" transform="rotate(5.77 625.145 -276.695)scale(.9997)"/><use xlink:href="#D" width="16.4" height="22.3" transform="translate(11.2 -60.55)"/><use xlink:href="#E" width="39.3" height="50.1" transform="matrix(1.0016 .1106 0 1 -18.9 -70.25)"/><use xlink:href="#F" width="30.6" height="30.6" transform="rotate(-.504 -1852.792 1434.94)"/></g></g><g clip-path="url(#X)"><g transform="translate(1313.5 86.1)"><use xlink:href="#r" width="12.9" height="4.3" transform="matrix(1.5046 .3108 -.2998 1.5596 -9.15 -5.35)"/><use xlink:href="#s" width="29.5" height="43" transform="rotate(2.522 1738.14 -373.446)scale(.9999)"/><use xlink:href="#t" width="12.3" height="14.2" transform="translate(-14.1 -26.05)"/><use xlink:href="#u" width="16.3" height="17.6" transform="rotate(-43.884 -28.667 17.087)scale(.9983)"/><use xlink:href="#v" width="12.3" height="14.2" transform="translate(4.1 -21.25)"/><use xlink:href="#w" width="16.3" height="17.6" transform="matrix(1 0 -.1991 1.0001 5.2 -13.6)"/><use xlink:href="#x" width="26.4" height="21.6" transform="matrix(1.0017 .0886 0 1 -12.65 -30.45)"/><use xlink:href="#y" width="16.1" height="14.2" transform="matrix(.9882 -.0956 .1374 .9137 -24.3 -31.65)"/><use xlink:href="#z" width="16.1" height="14.2" transform="rotate(2.258 719.52 196.452)scale(.9999)"/><use xlink:href="#A" width="18.4" height="25.9" transform="matrix(.9978 -.0398 .0602 .9154 -31.65 -49.95)"/><use xlink:href="#B" width="18.4" height="25.9" transform="rotate(2.258 1206.693 321.351)scale(.9999)"/><use xlink:href="#C" width="16.4" height="22.3" transform="rotate(3.785 951.944 -416.22)scale(.9998)"/><use xlink:href="#D" width="16.4" height="22.3" transform="translate(11.1 -61.2)"/><use xlink:href="#E" width="39.3" height="50.1" transform="matrix(1.0015 .0882 0 1 -18.9 -70.05)"/><use xlink:href="#F" width="30.6" height="30.6" transform="rotate(4.061 232.057 -185.436)scale(.9997)"/></g></g><g clip-path="url(#Y)"><g transform="translate(1384.5 86.1)"><use xlink:href="#r" width="12.9" height="4.3" transform="matrix(1.5046 .3108 -.2998 1.5596 -9.15 -5.35)"/><use xlink:href="#s" width="29.5" height="43" transform="rotate(1.26 3471.323 -729.06)"/><use xlink:href="#t" width="12.3" height="14.2" transform="translate(-14.35 -27.3)"/><use xlink:href="#u" width="16.3" height="17.6" transform="rotate(-41.853 -30.338 17.999)scale(.9983)"/><use xlink:href="#v" width="12.3" height="14.2" transform="translate(4.1 -19.3)"/><use xlink:href="#w" width="16.3" height="17.6" transform="matrix(1 0 -.1819 1.0003 4.9 -11.4)"/><use xlink:href="#x" width="26.4" height="21.6" transform="matrix(1.0009 .1145 0 1 -12.65 -30.75)"/><use xlink:href="#y" width="16.1" height="14.2" transform="matrix(.9952 -.048 .0717 .9593 -24.9 -30.95)"/><use xlink:href="#z" width="16.1" height="14.2" transform="rotate(1.037 1570.563 477.48)"/><use xlink:href="#A" width="18.4" height="25.9" transform="matrix(.9991 -.0183 .0299 .9582 -31.85 -50.3)"/><use xlink:href="#B" width="18.4" height="25.9" transform="rotate(1.037 2641.898 732.967)"/><use xlink:href="#C" width="16.4" height="22.3" transform="rotate(1.8 2003.728 -864.183)scale(.9999)"/><use xlink:href="#D" width="16.4" height="22.3" transform="translate(11.05 -61.9)"/><use xlink:href="#E" width="39.3" height="50.1" transform="matrix(1.0009 .0658 0 1 -18.85 -69.95)"/><use xlink:href="#F" width="30.6" height="30.6" transform="rotate(8.811 107.123 -88.226)scale(.9995)"/></g></g><g clip-path="url(#Z)"><g transform="translate(1455.5 86.1)"><use xlink:href="#r" width="12.9" height="4.3" transform="matrix(1.5046 .3108 -.2998 1.5596 -9.15 -5.35)"/><use xlink:href="#s" width="29.5" height="43" transform="translate(-15.7 -76.35)"/><use xlink:href="#t" width="12.3" height="14.2" transform="translate(-14.6 -28.55)"/><use xlink:href="#u" width="16.3" height="17.6" transform="rotate(-39.713 -32.606 19.213)"/><use xlink:href="#v" width="12.3" height="14.2" transform="translate(4.05 -17.4)"/><use xlink:href="#w" width="16.3" height="17.6" transform="matrix(1 0 -.1695 1 4.45 -9.15)"/><use xlink:href="#x" width="26.4" height="21.6" transform="matrix(1 .1401 0 1 -12.65 -31)"/><use xlink:href="#y" width="16.1" height="14.2" transform="translate(-25.75 -30.25)"/><use xlink:href="#z" width="16.1" height="14.2" transform="translate(9.5 -28.5)"/><use xlink:href="#A" width="18.4" height="25.9" transform="translate(-32 -50.7)"/><use xlink:href="#B" width="18.4" height="25.9" transform="translate(13.7 -48.2)"/><use xlink:href="#C" width="16.4" height="22.3" transform="translate(-26.85 -62.9)"/><use xlink:href="#D" width="16.4" height="22.3" transform="translate(10.95 -62.55)"/><use xlink:href="#E" width="39.3" height="50.1" transform="matrix(1 .0433 0 1 -18.85 -69.7)"/><use xlink:href="#F" width="30.6" height="30.6" transform="rotate(13.715 68.653 -58.658)"/></g></g><g clip-path="url(#aa)"><g transform="translate(1526.5 86.1)"><use xlink:href="#r" width="12.9" height="4.3" transform="matrix(1.5046 .3108 -.2998 1.5596 -9.15 -5.35)"/><use xlink:href="#s" width="29.5" height="43" transform="rotate(.539 8257.563 -1687.658)"/><use xlink:href="#t" width="12.3" height="14.2" transform="rotate(2.55 648.733 -331.262)scale(.9999)"/><use xlink:href="#u" width="16.3" height="17.6" transform="rotate(-40.328 -33.333 18.818)scale(.9984)"/><use xlink:href="#v" width="12.3" height="14.2" transform="matrix(.9994 -.0307 .0307 .9994 3.75 -20)"/><use xlink:href="#w" width="16.3" height="17.6" transform="matrix(.9925 .1186 -.254 .9781 5.25 -13.7)"/><use xlink:href="#x" width="26.4" height="21.6" transform="matrix(1.0014 .1103 0 1 -12.65 -31.8)"/><use xlink:href="#y" width="16.1" height="14.2" transform="matrix(.9995 -.0273 .0273 .9995 -26 -30.9)"/><use xlink:href="#z" width="16.1" height="14.2" transform="rotate(.516 3404.654 1079.057)"/><use xlink:href="#A" width="18.4" height="25.9" transform="rotate(-.75 -3928.24 2455.15)"/><use xlink:href="#B" width="18.4" height="25.9" transform="rotate(.516 5584.483 1563.662)"/><use xlink:href="#C" width="16.4" height="22.3" transform="rotate(1.805 2022.541 -873.049)scale(.9999)"/><use xlink:href="#D" width="16.4" height="22.3" transform="rotate(-1.513 -2429.656 -441.149)"/><use xlink:href="#E" width="39.3" height="50.1" transform="matrix(1.0003 .0316 0 1 -18.85 -70.5)"/><use xlink:href="#F" width="30.6" height="30.6" transform="rotate(11.282 85.297 -70.53)scale(.9993)"/></g></g><g clip-path="url(#ab)"><g transform="translate(1597.5 86.1)"><use xlink:href="#r" width="12.9" height="4.3" transform="matrix(1.5046 .3108 -.2998 1.5596 -9.15 -5.35)"/><use xlink:href="#s" width="29.5" height="43" transform="rotate(1.26 3582.666 -730.285)"/><use xlink:href="#t" width="12.3" height="14.2" transform="rotate(5.286 317.635 -161.192)scale(.9997)"/><use xlink:href="#u" width="16.3" height="17.6" transform="rotate(-40.845 -34.178 18.696)scale(.9983)"/><use xlink:href="#v" width="12.3" height="14.2" transform="rotate(-3.52 -365.903 -68.237)scale(.9998)"/><use xlink:href="#w" width="16.3" height="17.6" transform="matrix(.9703 .2387 -.3408 .9481 6.15 -18.2)"/><use xlink:href="#x" width="26.4" height="21.6" transform="matrix(1.0021 .0835 0 1 -12.7 -32.7)"/><use xlink:href="#y" width="16.1" height="14.2" transform="rotate(-3.314 -556.664 437.944)scale(.9998)"/><use xlink:href="#z" width="16.1" height="14.2" transform="rotate(1.037 1814.279 547.094)"/><use xlink:href="#A" width="18.4" height="25.9" transform="rotate(-1.501 -1991.265 1235.287)"/><use xlink:href="#B" width="18.4" height="25.9" transform="rotate(1.037 2888.35 799.794)"/><use xlink:href="#C" width="16.4" height="22.3" transform="rotate(3.797 973.553 -427.2)scale(.9998)"/><use xlink:href="#D" width="16.4" height="22.3" transform="rotate(-3.022 -1244.966 -234.88)scale(.9998)"/><use xlink:href="#E" width="39.3" height="50.1" transform="matrix(1.0004 .0262 0 1 -18.8 -71.4)"/><use xlink:href="#F" width="30.6" height="30.6" transform="rotate(8.811 111.316 -88.875)scale(.9995)"/></g></g><g clip-path="url(#ac)"><g transform="translate(1668.5 86.1)"><use xlink:href="#r" width="12.9" height="4.3" transform="matrix(1.5046 .3108 -.2998 1.5596 -9.15 -5.35)"/><use xlink:href="#s" width="29.5" height="43" transform="rotate(1.8 2550.513 -517.713)scale(.9999)"/><use xlink:href="#t" width="12.3" height="14.2" transform="rotate(8.028 211.586 -107.217)scale(.9996)"/><use xlink:href="#u" width="16.3" height="17.6" transform="rotate(-41.353 -34.868 18.398)scale(.9983)"/><use xlink:href="#v" width="12.3" height="14.2" transform="rotate(-5.286 -270.822 -46.692)scale(.9997)"/><use xlink:href="#w" width="16.3" height="17.6" transform="matrix(.9336 .3552 -.4213 .9117 7.25 -22.65)"/><use xlink:href="#x" width="26.4" height="21.6" transform="matrix(1.0023 .0534 0 1 -12.75 -33.55)"/><use xlink:href="#y" width="16.1" height="14.2" transform="rotate(-5.062 -375.836 284.318)scale(.9997)"/><use xlink:href="#z" width="16.1" height="14.2" transform="rotate(1.553 1289.13 371.815)"/><use xlink:href="#A" width="18.4" height="25.9" transform="rotate(-2.253 -1348.127 825.804)scale(.9999)"/><use xlink:href="#B" width="18.4" height="25.9" transform="rotate(1.553 2003.628 544.782)"/><use xlink:href="#C" width="16.4" height="22.3" transform="rotate(5.787 646.994 -287.088)scale(.9997)"/><use xlink:href="#D" width="16.4" height="22.3" transform="matrix(.9966 -.079 .079 .9966 10.5 -67.65)"/><use xlink:href="#E" width="39.3" height="50.1" transform="matrix(1.0006 .0175 0 1 -18.8 -72.35)"/><use xlink:href="#F" width="30.6" height="30.6" transform="rotate(6.526 153.4 -118.294)scale(.9996)"/></g></g><g clip-path="url(#ad)"><g transform="translate(1739.5 86.1)"><use xlink:href="#r" width="12.9" height="4.3" transform="matrix(1.5046 .3108 -.2998 1.5596 -9.15 -5.35)"/><use xlink:href="#s" width="29.5" height="43" transform="rotate(2.522 1848.3 -375.87)scale(.9999)"/><use xlink:href="#t" width="12.3" height="14.2" transform="rotate(10.767 159.657 -80.887)scale(.9994)"/><use xlink:href="#u" width="16.3" height="17.6" transform="rotate(-41.866 -35.747 18.242)scale(.9984)"/><use xlink:href="#v" width="12.3" height="14.2" transform="matrix(.992 -.1227 .1227 .992 2.95 -27.75)"/><use xlink:href="#w" width="16.3" height="17.6" transform="matrix(.8829 .4664 -.4981 .8687 8.3 -26.95)"/><use xlink:href="#x" width="26.4" height="21.6" transform="matrix(1.0015 .0266 0 1 -12.7 -34.35)"/><use xlink:href="#y" width="16.1" height="14.2" transform="rotate(-6.814 -287.63 208.77)scale(.9997)"/><use xlink:href="#z" width="16.1" height="14.2" transform="rotate(2.258 942.787 258.033)scale(.9999)"/><use xlink:href="#A" width="18.4" height="25.9" transform="rotate(-3.004 -1024.743 620.949)scale(.9999)"/><use xlink:href="#B" width="18.4" height="25.9" transform="rotate(2.258 1431.204 381.639)scale(.9999)"/><use xlink:href="#C" width="16.4" height="22.3" transform="rotate(7.78 487.424 -219.303)scale(.9995)"/><use xlink:href="#D" width="16.4" height="22.3" transform="rotate(-6.04 -651.487 -133.2)scale(.9997)"/><use xlink:href="#E" width="39.3" height="50.1" transform="matrix(1.0007 .0089 0 1 -18.75 -73.25)"/><use xlink:href="#F" width="30.6" height="30.6" transform="rotate(4.061 250.39 -186.086)scale(.9997)"/></g></g><g clip-path="url(#ae)"><g transform="translate(1810.5 86.1)"><use xlink:href="#r" width="12.9" height="4.3" transform="matrix(1.5046 .3108 -.2998 1.5596 -9.15 -5.35)"/><use xlink:href="#s" width="29.5" height="43" transform="rotate(3.228 1465.855 -297.066)"/><use xlink:href="#t" width="12.3" height="14.2" transform="rotate(13.497 129.177 -65.201)"/><use xlink:href="#u" width="16.3" height="17.6" transform="rotate(-42.434 -36.494 17.844)"/><use xlink:href="#v" width="12.3" height="14.2" transform="rotate(-8.975 -192.074 -31.42)"/><use xlink:href="#w" width="16.3" height="17.6" transform="rotate(34.957 54.267 -.594)scale(.9999)"/><use xlink:href="#x" width="26.4" height="21.6" transform="translate(-12.65 -35.4)"/><use xlink:href="#y" width="16.1" height="14.2" transform="rotate(-8.743 -230.983 159.978)"/><use xlink:href="#z" width="16.1" height="14.2" transform="rotate(2.86 789.716 204.744)"/><use xlink:href="#A" width="18.4" height="25.9" transform="rotate(-3.756 -830.074 499.474)"/><use xlink:href="#B" width="18.4" height="25.9" transform="rotate(2.86 1172.057 307.429)"/><use xlink:href="#C" width="16.4" height="22.3" transform="rotate(9.823 389.997 -178.291)"/><use xlink:href="#D" width="16.4" height="22.3" transform="rotate(-7.706 -522.007 -110.85)"/><use xlink:href="#E" width="39.3" height="50.1" transform="matrix(1.0008 .0009 0 1 -18.8 -74.15)"/><use xlink:href="#F" width="30.6" height="30.6" transform="rotate(1.863 555 -399.763)"/></g></g><g clip-path="url(#af)"><g transform="translate(1881.5 86.1)"><use xlink:href="#r" width="12.9" height="4.3" transform="matrix(1.5046 .3108 -.2998 1.5596 -9.15 -5.35)"/><use xlink:href="#s" width="29.5" height="43" transform="rotate(1.26 3648.564 -731.01)"/><use xlink:href="#t" width="12.3" height="14.2" transform="rotate(10.767 155.297 -78.87)scale(.9994)"/><use xlink:href="#u" width="16.3" height="17.6" transform="matrix(.8291 -.5563 .5986 .806 -21.5 -19.15)"/><use xlink:href="#v" width="12.3" height="14.2" transform="matrix(.9725 -.2295 .2295 .9725 2.2 -27.45)"/><use xlink:href="#w" width="16.3" height="17.6" transform="rotate(35.567 49.57 .175)scale(.9984)"/><use xlink:href="#x" width="26.4" height="21.6" transform="matrix(1.0015 .0266 0 1 -12.65 -33.8)"/><use xlink:href="#y" width="16.1" height="14.2" transform="rotate(-9.026 -206.043 151.379)scale(.9995)"/><use xlink:href="#z" width="16.1" height="14.2" transform="matrix(.9908 .0873 -.1208 .9448 10.75 -38.8)"/><use xlink:href="#A" width="18.4" height="25.9" transform="rotate(-5.027 -590.67 365.525)scale(.9997)"/><use xlink:href="#B" width="18.4" height="25.9" transform="matrix(.9974 .0571 -.0702 .9443 16.4 -56.4)"/><use xlink:href="#C" width="16.4" height="22.3" transform="rotate(7.78 472.45 -216.807)scale(.9995)"/><use xlink:href="#D" width="16.4" height="22.3" transform="matrix(.9898 -.1392 .1392 .9898 9.9 -68.55)"/><use xlink:href="#E" width="39.3" height="50.1" transform="matrix(1.0015 -.0183 0 1 -18.85 -71.7)"/><use xlink:href="#F" width="30.6" height="30.6" transform="rotate(6.007 171.912 -129.429)scale(.9996)"/></g></g><g clip-path="url(#ag)"><g transform="translate(1952.5 86.1)"><use xlink:href="#r" width="12.9" height="4.3" transform="matrix(1.5046 .3108 -.2998 1.5596 -9.15 -5.35)"/><use xlink:href="#s" width="29.5" height="43" transform="rotate(-.539 -8310.495 1652.333)"/><use xlink:href="#t" width="12.3" height="14.2" transform="rotate(8.029 199.014 -102.39)scale(.9995)"/><use xlink:href="#u" width="16.3" height="17.6" transform="matrix(.9026 -.4274 .5173 .8671 -21.2 -18.4)"/><use xlink:href="#v" width="12.3" height="14.2" transform="rotate(-17.56 -78.198 -18.376)scale(.999)"/><use xlink:href="#w" width="16.3" height="17.6" transform="rotate(36.085 45.225 .974)scale(.9983)"/><use xlink:href="#x" width="26.4" height="21.6" transform="matrix(1.0023 .0534 0 1 -12.7 -32.2)"/><use xlink:href="#y" width="16.1" height="14.2" transform="rotate(-9.3 -182.479 143.583)scale(.9994)"/><use xlink:href="#z" width="16.1" height="14.2" transform="matrix(.9814 .1257 -.1851 .8861 10.3 -38.4)"/><use xlink:href="#A" width="18.4" height="25.9" transform="rotate(-6.3 -446.743 285.692)scale(.9996)"/><use xlink:href="#B" width="18.4" height="25.9" transform="matrix(.9961 .0657 -.0863 .89 16.05 -54.5)"/><use xlink:href="#C" width="16.4" height="22.3" transform="rotate(5.788 608.427 -283.63)scale(.9996)"/><use xlink:href="#D" width="16.4" height="22.3" transform="rotate(-8.266 -452.215 -99.45)scale(.9995)"/><use xlink:href="#E" width="39.3" height="50.1" transform="matrix(1.0018 -.0401 0 1 -18.85 -69.15)"/><use xlink:href="#F" width="30.6" height="30.6" transform="rotate(10.056 102.554 -80.896)scale(.9994)"/></g></g><g clip-path="url(#ah)"><g transform="translate(2023.5 86.1)"><use xlink:href="#r" width="12.9" height="4.3" transform="matrix(1.5046 .3108 -.2998 1.5596 -9.15 -5.35)"/><use xlink:href="#s" width="29.5" height="43" transform="rotate(-2.528 -1720.28 340.64)scale(.9998)"/><use xlink:href="#t" width="12.3" height="14.2" transform="rotate(5.286 288.3 -150.07)scale(.9997)"/><use xlink:href="#u" width="16.3" height="17.6" transform="matrix(.9563 -.2891 .4298 .9201 -20.75 -17.65)"/><use xlink:href="#v" width="12.3" height="14.2" transform="rotate(-22.035 -54.39 -14.987)scale(.9988)"/><use xlink:href="#w" width="16.3" height="17.6" transform="rotate(36.598 41.064 1.684)scale(.9983)"/><use xlink:href="#x" width="26.4" height="21.6" transform="matrix(1.0021 .0835 0 1 -12.7 -30.7)"/><use xlink:href="#y" width="16.1" height="14.2" transform="rotate(-9.765 -157.638 133.64)scale(.9994)"/><use xlink:href="#z" width="16.1" height="14.2" transform="matrix(.9705 .1634 -.2409 .8234 9.8 -38)"/><use xlink:href="#A" width="18.4" height="25.9" transform="rotate(-7.762 -343.45 227.7)scale(.9996)"/><use xlink:href="#B" width="18.4" height="25.9" transform="matrix(.9947 .0742 -.1028 .8349 15.45 -52.8)"/><use xlink:href="#C" width="16.4" height="22.3" transform="rotate(3.797 886.14 -418.981)scale(.9997)"/><use xlink:href="#D" width="16.4" height="22.3" transform="rotate(-8.527 -421.917 -93.836)scale(.9994)"/><use xlink:href="#E" width="39.3" height="50.1" transform="matrix(1.0016 -.0619 0 1 -18.9 -66.65)"/><use xlink:href="#F" width="30.6" height="30.6" transform="rotate(14.288 71.59 -59.217)scale(.9992)"/></g></g><g clip-path="url(#ai)"><g transform="translate(2094.5 86.1)"><use xlink:href="#r" width="12.9" height="4.3" transform="matrix(1.5046 .3108 -.2998 1.5596 -9.15 -5.35)"/><use xlink:href="#s" width="29.5" height="43" transform="rotate(-4.543 -927.605 181.628)"/><use xlink:href="#t" width="12.3" height="14.2" transform="rotate(2.7 535.717 -286.511)"/><use xlink:href="#u" width="16.3" height="17.6" transform="matrix(.989 -.1476 .3367 .9654 -20.05 -16.9)"/><use xlink:href="#v" width="12.3" height="14.2" transform="rotate(-26.38 -38.956 -12.393)"/><use xlink:href="#w" width="16.3" height="17.6" transform="rotate(37.188 37.097 2.327)"/><use xlink:href="#x" width="26.4" height="21.6" transform="matrix(1.0015 .112 0 1 -12.65 -29.2)"/><use xlink:href="#y" width="16.1" height="14.2" transform="rotate(-10.131 -136.477 125.48)"/><use xlink:href="#z" width="16.1" height="14.2" transform="matrix(.9581 .2036 -.2902 .758 9.3 -37.55)"/><use xlink:href="#A" width="18.4" height="25.9" transform="rotate(-9.132 -275.433 190.35)"/><use xlink:href="#B" width="18.4" height="25.9" transform="matrix(.9935 .0836 -.1159 .7802 14.9 -50.95)"/><use xlink:href="#C" width="16.4" height="22.3" transform="rotate(1.966 1632.17 -791.84)"/><use xlink:href="#D" width="16.4" height="22.3" transform="rotate(-8.906 -387.881 -87.373)"/><use xlink:href="#E" width="39.3" height="50.1" transform="matrix(1.0011 -.0853 0 1 -18.85 -64.05)"/><use xlink:href="#F" width="30.6" height="30.6" transform="rotate(18.518 54.474 -47.293)"/></g></g></svg>