<svg xmlns="http://www.w3.org/2000/svg" xmlns:xlink="http://www.w3.org/1999/xlink" width="100" height="139" viewBox="0 0 100 139"><defs><g id="h"><path fill="#e7eded" d="M37.8 14.5 36.1 22l-6.8.8Q27 18.5 23 17.5l.1-5 5.3-4 5.6-.1zm-13.2 0 3.7 1.8 3.6 3.5 1.6-3-.1-5.7-3.8-.8z"/><path fill="#d9dfdf" d="m24.6 14.5 5-4.1 3.8.7v5.7l-1.5 3-3.6-3.4z"/><path fill="#e7eded" d="m9.7 0 5.4.8 1.8 6.3-2.7 6.1-6.3-1.7q.2-4-2.2-8.2zM8.2 8 12 9.2l2.5 1.3V4.4l-3.2-1.9-3 2.2z"/><path fill="#d9dfdf" d="m8.2 8 .2-3.3 3-2.2 3.3 1.9-.1 6.1L12 9.2z"/><path fill="#e9c9f2" fill-opacity=".4" d="M36.1 28q-8.2-2.8-7.7-5.2 4.6-1.2 9.4-.7t7.2 4.3q-.5 4.4-8.9 1.6M8 13.2q-.9 1.9-5.1-.9T.6 7.2Q2.5 4.6 4.5 7q2 2.3 3.5 6.2"/><path fill="none" stroke="#000" stroke-linecap="round" stroke-linejoin="round" stroke-opacity=".4" stroke-width="1" d="M24.2 13.4q5-5.6 7.7-.3M14.4 8q-.6-7.5-3.5-5"/><path fill="#e7eded" d="M11.5 13.6q2.4-.4 6.7 1.8 4 1.8 4.7 5 3 2 3 4.1v.5l-1.3-.8-1.4-2.4q-2.1-2.8-7.3-3.3-1.9-3.4-7.3-3.7l1.1-.4 1.6-.7z"/></g><g id="d"><path fill="#e7eded" d="m1.7 67.4 1.6 3q2.6 3.9 9 5.1 2.2 4.5 9 5.5l-1.4.4q-1 .6-2 .7l-.1.1q-3.1.3-8.5-3-5-2.8-5.6-7Q0 69.5 0 66.7v-.6z"/><path fill="#eaf3f3" d="M34.4 17.5v-.2q1.3-1.7 2-3.4Q40 6.7 36.5.3q5.4 5.3 2.9 13.2l-.3 1 .8-1 5.3-6.3q-1.2 4-2.4 6.5l-1 2v.3l-.7 3.4 3-2.8v.7l1.3.2.3-.1 2.3-.2-3.6 2.3v-.1l-.3-2.1.3 2.1-2.7 3.7-9.3-1.9v-.5zm3.9-.8.7-2.2z"/><path fill="#fede81" d="M39.3 13.5h.5l-.8 1zm3.4.1"/><path fill="#c5cbcb" d="M42.8 13.7q2.3-3.1 4.6-2.2-2 .8-2.8 2.5-.5 1.1-.6 2.6l-3 2.8.7-3.4v-.4zm5.2 3.5q1.8.2 2.2 2.1-.5-2-3.9 1l-.7.9-2 2.3-2-.4 2.7-3.7v.1z"/><path fill="none" stroke="#9fb1ac" stroke-linecap="round" stroke-linejoin="round" stroke-width="__RESOLUTION__" d="M34.4 17.5v-.2q1.3-1.7 2-3.4Q40 6.7 36.5.3q5.4 5.3 2.9 13.2h.5l5.3-6.3q-1.2 4-2.4 6.5m0 0q2.4-3.1 4.7-2.2-2 .8-2.8 2.6-.5 1-.6 2.5v.7l1.3.2.3-.1 2.4-.2q1.8.2 2.2 2.1-.5-2-3.9 1l-.7.9m-3-7.4-.9 1.9v.3m-1.9-2.5-.8 1-.7 2.2m.7-2.2.3-1m5 5.9v.1m-.3-2.2.3 2.1" vector-effect="non-scaling-stroke"/></g><g id="a"><path fill="#e9efef" d="M52.5 6.9q1.7-.2 3 .4 1.2.5 2.1 1.6l.5.6q1.9.6 3.9 1.6l2.2 2.2 3.6 3.8q4.7 5.1 2.9 13.5l-.6 2.3-1-4.2q-2.2-8.4-6-11.7-2.7-2.3-5.5-3.4l-.1-.1L56 13l-4.2-.3-4.4-4q2.8-1.6 5.1-1.8"/><path fill="#f5fbfb" d="M57.6 13.6q2.8 1 5.6 3.4 3.7 3.3 6 11.7l.9 4.2.6-2.3q1.8-8.4-2.9-13.5l-3.6-3.9-2.2-2.1q-2-1-4-1.6l-.4-.6q-1-1.1-2.2-1.6t-2.9-.4l-4.3-5.2q6.7-4.3 15.9 4.4T82 24.5t14.2 32Q97.4 79 85 89.7q-5.5 4.7-13.5 7l-.4.1Q61 100 52.4 101l-4.1.3q2.8-1.4 4.2-3.7l.7-1.3q.7-2 .6-4.4l-.4-3 2.5-2.8-1.3.4-1.9 3-2 2.3-3.6 2q-2.3.9-5 1H39Q29.6 96 25.4 91l-.1-.1-.1-.2q-1.5-2-2.3-4.8l-1.8-3q10.7 7.2 19 1.8 3.8 1.3 7.3 1 2.9-.1 5.5-1.4l3.6-2.4 4.8-4.9 3.6-1L68 60.1l-1.1.1-2.5.7q6.6-5.2 3.3-10 1.4-2 1.6-3.9.3-2.6-2-5.2l-3.2-3v-.2l-6.9-10.9.1-3.5-3 .1-5.4-3q-7.8-3.5-15 2.3-8.6-2.5-16.2 7.4l.8-3.3q0-2.9.9-5.1v-.3q2.5-5.9 11.1-7.6 9.5-4.3 15.6 3 7-.6 10.7 5.1l.5.9zM3.1 48.8q2.3-6.5 7.8-8.2 6.4-4.6 9.3 3.4 4.3-.4 5.8 6l.3 1.4h-2l-3-3.4q-4.2-3.9-9.4 2.4-5-2.9-11 7.7l1-3.6q.4-3 1.2-5.5z"/><path fill="#fff" d="M52.5 6.9q-2.2.2-5.1 1.9l4.4 3.8 4.2.4 1.5.5h.1l-.3 10.2-.5-.8Q53 17 46 17.7q-6.1-7.3-15.6-3-8.6 1.7-11.1 7.7v.2q-.9 2.2-.9 5l-.9 3.4q7.7-9.9 16.2-7.3 7.3-5.9 15.1-2.4l5.3 3 3.1-.1-.1 3.5L64 38.6l.1.3 3.2 3q2.3 2.5 2 5.2-.2 1.9-1.6 3.8 3.3 4.8-3.3 10l2.5-.6 1.1-.1L65 76l-3.5 1-4.8 4.9-3.6 2.4q-2.7 1.3-5.6 1.5-3.4.2-7.3-1.1-8.2 5.4-19-1.8l1.8 3q.8 2.8 2.3 4.8l.1.2q4.3 5 13.7 3.8h3.1q2.8-.1 5-1l3.6-2 2-2.3 1.9-3L56 86l-2.5 2.9.4 2.9q.1 2.5-.6 4.4l-.7 1.4q-1.4 2.2-4.2 3.6H47q-8.7.2-16.2-2.3-4.2-1.4-8-3.6l-6.5-4.6q-3.2-2.7-6-6-4-4.2-6.3-8.8l-1.4-3.1q-7-18.4 9.5-44.3Q17.8 18 26.8 10.8t21.4-9.1zm-49.4 42v.2q-.8 2.5-1.2 5.5l-1 3.6q6-10.6 11-7.7 5.1-6.2 9.5-2.4l2.9 3.5 2-.1-.3-1.4q-1.5-6.3-5.8-6-2.9-8-9.3-3.4-5.5 1.7-7.8 8.2"/><path fill="none" stroke="#7cabbe" stroke-linecap="round" stroke-linejoin="round" stroke-width="1" d="m48.7 1.4 1.5-.7 1.9-.2h2.4q1.4-.1 2.2.4t1.6.7T60 2.7l1.8 1.4 1.6 1.2L65 7m.9.9 1.4 1.4 1.7 1.3 1.5 1.7q.5.8 1.2 1.3l1.3 1.2 1.4 1.7q.9 1.2 1.6 1.5m.9.8 1.2 1.6 1.4 1.8q.6 1 1 1.1l1.4 1.2q.9 1.2 1.6 1.7t1.2 1.6q.4 1.1 1 2l1.2 1.6 1 1.7.9 1.7.8 2m.5 1.2q.8.9 1 1.8l.6 1.9.6 2q.2 1.2.8 1.9t.9 1.9l.4 2.3.3 1.6.5 1.9.7 2.3m.3 1.2q-.4 1-.4 2l.2 2q.2.9 0 1.9l-.3 2q0 1.1.2 1.8.3.8 0 1.8l-.5 2.4m-.3 1.2q.1.9-.3 1.9l-.7 1.8-.8 2.2-1 1.7q-.5.5-.9 1.7l-.8 1.9m-32.8 17-1.9.1-2.3.5-1.8.2-1.7-.1h-2l-2 .1-1.9.2-2-.2H40M78 94q-1.3.4-1.8.9t-1.8.9l-2.3.4q-.9.1-1.6.5l-1.6.7-2 .6-2 .6-1.9.5-2.1.4-2 .4M90 84l-1.5 1.5L87 87l-1.6 1.7-1.6 1.2-1.5 1.2-1.7 1.4-1.5 1M30.5 8.3l1.8-.9 1.7-1q1-.5 1.6-1.2t1.9-.9l2.1-.5 2-.5 2-.5 2-.5 2-.4M2.2 50.3l.4-1.8.3-2q.2-1 .7-1.7t1-1.8l.9-2.3.9-1.7q.5-.6.6-1.6.2-1.1.8-2L9 33.7M.8 65.4l-.1-2v-2l-.1-2-.1-1.8.4-2 .4-2.3.6-1.8m18.5-34.6 1.4-1.5q.8-.9 1.3-1.8t1.3-1.3 1.9-1l1.6-1.3 1.5-1.1M9.6 32.6l1-1.3 1-2 1-2 1-1.8 1-1.4 1.2-1.7 1.2-1.5 1.3-1.3 1.2-1.9M21 94.3l-2-1.4-1.6-1.2-1.3-1.1-1.3-1.6q-.4-.9-1.4-1.3l-1.7-1.2q-.8-.8-1-1.6-.3-.7-1-1.1L8 82m30.9 18.7-2-.5-2.1-.3q-1.3 0-2.2-.5-.8-.5-1.5-.7l-2-.3q-1.3-.1-2-.6-.8-.5-1.7-.8t-1.8-1.2q-.8-1-1.6-1M7.3 81.1q-.1-.8-1.1-1.7l-1.3-1.8L4 76l-.7-1.7-.7-2.1-.8-1.9-.7-1.6q-.5-.9-.1-2.1"/></g><g id="k" transform="translate(52 69.05)"><use xlink:href="#a" width="96.8" height="101.6" transform="translate(-48.65 -53.7)"/><use xlink:href="#b" width="33.5" height="34.6" transform="matrix(-2.96 -.091 -.091 2.96 50.05 -51.75)"/><use xlink:href="#c" width="16.2" height="33.5" transform="matrix(-2.96 -.091 -.091 2.96 49.55 -50)"/><use xlink:href="#d" width="50.4" height="82.3" transform="translate(-33.75 -69.05)"/></g><path id="f" fill="#000" fill-opacity=".1" d="M6-16.8q-5 3.4-2.7 8.6-2.4 1.2-3 3-.7 1.6-.3 2.6t.2 1.1L-.9.4q-1 1.5-.4 5.3.5 3.6 3.5 5.2-.8 4.7 4.9 5.7h-.3Q3 16.3-1 15q-5.4-2-7-6.3-2.2-5.7.2-11.2 1.8-4.4 5.4-8.7Q.4-14.7 6-16.9m-7.3 30.4q-1.9-1.4-3.3-4.4.4 3.7 3.4 4.5m-2.2-17Q-6-1.5-5.2 1q.1-2.2 1.8-4.3" transform="translate(9.15 16.85)"/><path id="g" fill="url(#e)" d="m.1-17.2 2.6 1 1.1.4 1.9.7 1.9 1.2L9-12.3l1 1.2.3.3-.1.4h-.1l.1.2.4-.1.3.2 1.2 1.6.9 2.3q.3 1 .8 1.5.7.7 1 1.9l.6 1.7h-.1l.8 2q.4 1.3 0 2.5l-.4.2-.1.1v.2l.3.2.1.4-.5 2.3-.9 1.7-.9 1.5-1 1.6h.1L11 13.4l-1.8 1.1-1.5 1-2 1-2 .4-2 .3-.4-.2-.2-.2H.9l-.2.3-.4.1-2.3-.3-2-.2-1.7-.4-2.2-.7-2.3-.6q-1.2-.3-1.5-1.2v-.1q-.3-.6-1.2-.7l-.3-.1-.2-.4.2-.3-.2-.2-.2.1h-.4l-.2-.3q-.5-1.2-1.1-1.9-.7-.9-.8-1.8-.1-.7-.5-1.6t-.5-2.3l.2-2.3.5-1.8q0-1.2.5-2.7t1.1-2.3l1-1.7q.5-1.1 2.6-3.4v-.1l1.2-1.1 1.2-1.7 1.4-1.4 1.5-1.4q.9-.8 2.1-1l1.4-.5.5-.1h.1zm.8 33.9h.3z" transform="translate(17.1 17.45)"/><path id="j" fill="#b0ad99" fill-opacity=".6" d="M18.8-.1q-.2 3-4.9 5.3Q8.5 7.8.9 7.8t-13-2.6Q-17 3-17-.1q.2-3 4.9-5.3Q-6.7-8.1.8-8q7.6 0 13 2.6 4.7 2.3 4.9 5.3" transform="translate(17 8)"/><use xlink:href="#f" id="c" width="16.2" height="33.5"/><use xlink:href="#g" id="b" width="33.5" height="34.6"/><use xlink:href="#h" id="l" width="45" height="29.1"/><radialGradient id="e" cx="0" cy="0" r="819.2" gradientTransform="translate(11.75 -3.6)scale(.0376)" gradientUnits="userSpaceOnUse" spreadMethod="pad"><stop offset=".3" stop-color="#c0d1d1" stop-opacity="0"/><stop offset="1" stop-color="#6a7b7b" stop-opacity=".5"/></radialGradient><clipPath id="i"><path d="M1 1h98v137H1z"/></clipPath></defs><g clip-path="url(#i)"><g transform="translate(49.65 113.65)"><use xlink:href="#j" width="35.8" height="15.8" transform="translate(-46.35 -18.85)scale(2.6729)"/><use xlink:href="#k" width="102" height="119.8" transform="matrix(.9575 0 0 1.05 -48.65 -112.65)"/><use xlink:href="#l" width="45" height="29.1" transform="matrix(.9575 0 0 1.05 -33.5 -72.45)"/></g></g></svg>