<svg xmlns="http://www.w3.org/2000/svg" xmlns:xlink="http://www.w3.org/1999/xlink" width="507" height="35" viewBox="0 0 507 35"><defs><clipPath id="f"><path d="M1 1h22v33H1z"/></clipPath><clipPath id="m"><path d="M24 1h22v33H24z"/></clipPath><clipPath id="n"><path d="M47 1h22v33H47z"/></clipPath><clipPath id="o"><path d="M70 1h22v33H70z"/></clipPath><clipPath id="p"><path d="M93 1h22v33H93z"/></clipPath><clipPath id="q"><path d="M116 1h22v33h-22z"/></clipPath><clipPath id="r"><path d="M139 1h22v33h-22z"/></clipPath><clipPath id="s"><path d="M162 1h22v33h-22z"/></clipPath><clipPath id="t"><path d="M185 1h22v33h-22z"/></clipPath><clipPath id="u"><path d="M208 1h22v33h-22z"/></clipPath><clipPath id="v"><path d="M231 1h22v33h-22z"/></clipPath><clipPath id="w"><path d="M254 1h22v33h-22z"/></clipPath><clipPath id="x"><path d="M277 1h22v33h-22z"/></clipPath><clipPath id="y"><path d="M300 1h22v33h-22z"/></clipPath><clipPath id="z"><path d="M323 1h22v33h-22z"/></clipPath><clipPath id="A"><path d="M346 1h22v33h-22z"/></clipPath><clipPath id="B"><path d="M369 1h22v33h-22z"/></clipPath><clipPath id="C"><path d="M392 1h22v33h-22z"/></clipPath><clipPath id="D"><path d="M415 1h22v33h-22z"/></clipPath><clipPath id="E"><path d="M438 1h22v33h-22z"/></clipPath><clipPath id="F"><path d="M461 1h22v33h-22z"/></clipPath><clipPath id="G"><path d="M484 1h22v33h-22z"/></clipPath><use xlink:href="#a" id="l" width="14.3" height="13.1"/><use xlink:href="#b" id="k" width="12.9" height="11.4"/><use xlink:href="#c" id="j" width="7.8" height="6.5"/><use xlink:href="#d" id="i" width="5.5" height="9.5"/><use xlink:href="#e" id="h" width="10.6" height="7.7"/><g id="a"><path fill="#d9ceb4" d="M7.5 10.8v.3l.4 1.4-3.8.6q-.6 0-.7-.3 0-1.2.8-2.3 1.6-1 3.2.3"/><path fill="none" stroke="#b59463" stroke-linecap="round" stroke-linejoin="round" stroke-width="__RESOLUTION__" d="m7.9 12.5-3.8.6q-.6 0-.7-.3 0-1.2.8-2.3 1.6-1 3.2.3" vector-effect="non-scaling-stroke"/><path fill="#d9ceb4" d="M7.1 6.8 5.1 9Q2.4 7.3.3 4.2q-.6-.9-.3-1.4 1.5-1.3 3.9-1Q7 3.3 7 6.8"/><path fill="none" stroke="#b59463" stroke-linecap="round" stroke-linejoin="round" stroke-width="__RESOLUTION__" d="M5 9Q2.6 7.3.5 4.2q-.6-.9-.3-1.4 1.5-1.3 3.9-1 3.1 1.5 3.1 5" vector-effect="non-scaling-stroke"/><path fill="#cf7b16" d="M11.3 4.8q1.8.6 2.9 4.4.4 2-.4 2.8h-.2q-2.2 1.6-5.6.9-3.1-1.6-4-4.1-.3-1 .8-1.9l2.1-1.4q1.5-1.3 3.1-1z"/><path fill="none" stroke="#93550b" stroke-linecap="round" stroke-linejoin="round" stroke-width="__RESOLUTION__" d="M11.3 4.8 10 4.5q-1.5-.3-3.1 1L4.8 7q-1.1.9-.8 1.8.9 2.5 4 4.1 3.4.7 5.6-.8l.2-.1q.8-.8.4-2.8-1-3.8-3-4.4" vector-effect="non-scaling-stroke"/><path fill="#d9ceb4" d="M12.2 6.9Q11.7 8 11.1 8l-2.4.1q-2-2.6-3-6.5Q5.6.5 6.2.1q2-.6 4.3.6 2.6 2.7 1.8 6"/><path fill="none" stroke="#b59463" stroke-linecap="round" stroke-linejoin="round" stroke-width="__RESOLUTION__" d="M12.2 6.9Q13 3.5 10.4.8 8-.4 6 .2q-.6.4-.3 1.5.9 3.9 3 6.5" vector-effect="non-scaling-stroke"/></g><g id="b"><path fill="#beddfc" d="M8.2.9q.7 1.3 2.7 3.3t1.5 3.3q-.8 2.1-2.9 2-3.1-2-3.2-7.5 0-1 1.9-1.1"/><path fill="#89bcfa" d="m9.5 9.6-7.4-.8Q-1 8.5.5 6.1l3-4.3Q4.6.6 5.4.5 6.8 0 8.2.9q-1.9.1-2 1 .1 5.5 3.3 7.7"/><path fill="#feb09e" fill-opacity=".5" d="m1 6.6 1.2.3 1 .5q.4.3.4.6-.1.2-.6.2L1.9 8 .8 7.2l-.3-.5zm11-.1.6.2-.4.6-1 .6L10 8q-.4 0-.5-.2t.3-.6l1-.6z"/><path fill="#a68eb5" d="M0 8.5q.6-.7 2.5-1.2l3-.8h1.3l1 .3 2 .7q2.6.7 3.1 1.4-3.7.8-6.8 2.3l-.5.3.1-.7v.6l-.4-.2Q3 9.6 0 8.5"/><path fill="#7b6a87" d="m12.9 8.9-1.2 1-5.6 1.4q3.1-1.6 6.8-2.5m-7.6 2.4L.8 9.6 0 8.4q3 1.1 5.3 2.8"/><path fill="#fff" d="M8.8 8.1 7 7.6q-1-.4-1-2.1t.6-2.6q.5-.8 1.4-.8-.2 4.5.7 6"/><path fill="#f0e9d2" d="M8 2.1q.9 0 1.7 1 .9.8 1.2 2t-.3 2.2-1.5.8h-.5Q8 6.6 8 2.1"/><path fill="#a68eb5" d="M10 2.2q0 .2-.7.3l-1.2.1H7q-.4 0-.4-.2L7 2l1-.4 1.3.1zM2.7.6 2.6.1 3 0l1 .3q.6.3 1.1.9l.4.7-.6-.1-1.2-.6z"/><path fill="#000" d="M7.5 6.2v-.5l.3-.1h.4l.2.4-.1.3-.3.3-.4-.2z"/><path fill="#fff" d="M4.6 2q.9-.1 1.4.8t.4 2.6-1 2L3.8 8q.8-1.5.7-6"/><path fill="#f0e9d2" d="M4.6 2q0 4.5-.7 6h-.5q-.9 0-1.6-.8-.6-1-.2-2.2t1.2-2.1 1.8-1"/><path fill="#000" d="m5.2 6-.2.3-.4.1-.3-.2-.1-.3.3-.4.3-.1.4.2z"/><path fill="#d9d5de" fill-opacity=".5" d="m6.8 9.2-.5 1.2-.5.4-.3-.6.2-1.4.5-1.3.5-.4q.2 0 .2.7z"/></g><g id="c"><path fill="#beddfc" d="M4.4 0q1.3.1 2.3 1t1 2.3-1.1 2.3h-.1Q4.1 4.6 4.3.1z"/><path fill="#89bcfa" d="M4.4 0Q4 4.6 6.5 5.6q-1.1.9-2.7.9l-1.1-.1q-.9-.3-1.6-.9Q0 4.6 0 3.4 0 1.9 1.2 1 2.4 0 4 0z"/></g><g id="e"><path fill="#eaa32d" d="M4.7.4 6.6 0q1.9.9 2.8 1.9t.7 2l-.2 1.6-2.7.4q-2.6.5-4.2-.5-1.5-1.9-.9-3.3T4.6.4"/><path fill="none" stroke="#93550b" stroke-linecap="round" stroke-linejoin="round" stroke-width="__RESOLUTION__" d="M4.7.4q-2 .3-2.5 1.7-.7 1.4.8 3.3 1.7 1 4.2.5l2.8-.4.1-1.6q.1-1-.7-2Q8.5.9 6.6 0z" vector-effect="non-scaling-stroke"/><path fill="#fef7e0" d="m4.6 2.9.3 1.8Q2 6 .9 5.9q-.7-.1-.9-.6-.1-1.5.9-2.9 1.9-1.3 3.7.5"/><path fill="none" stroke="#b59463" stroke-linecap="round" stroke-linejoin="round" stroke-width="__RESOLUTION__" d="M4.9 4.7Q2 6 .9 5.9q-.7-.1-.9-.6-.1-1.5.9-2.9 1.9-1.3 3.7.5" vector-effect="non-scaling-stroke"/><path fill="#fef7e0" d="M8 6.2q-.3 1.1-1.3 1.4l-1 .1q-1.6-.1-1.8-1-.1-2.2.6-3.1.8-1.1 1.7-.7.5.2 1 1l.7 1q.2.5.1 1.2"/><path fill="none" stroke="#b59463" stroke-linecap="round" stroke-linejoin="round" stroke-width="__RESOLUTION__" d="M8 6.2q-.3 1.1-1.3 1.4l-1 .1q-1.6-.1-1.8-1-.1-2.2.6-3.1.8-1.1 1.7-.7.5.2 1 1l.7 1q.2.5.1 1.2" vector-effect="non-scaling-stroke"/><path fill="#fef7e0" d="m9.4 3.2.8.7.3.6.1.8q-.1.6-.6.8h-.6q-.9 0-1-.5 0-1.4.3-1.9.4-.6.7-.5"/><path fill="none" stroke="#b59463" stroke-linecap="round" stroke-linejoin="round" stroke-width="__RESOLUTION__" d="m9.5 3.3.6.6.4.6.1.8q-.2.6-.7.8h-.5q-.9 0-1-.5 0-1.4.3-1.9t.7-.5" vector-effect="non-scaling-stroke"/></g><path id="d" fill="#6b8fc4" d="M3.8-6.5q.7-.3.9.3.1.7-.4 1.7L3-2.1 1.2.4Q.3 1.6.1.9t.5-2.7 1.5-3.3 1.6-1.4M.4-8.3q.3 0 .3 1l-.1 3-.3 3.1Q.2.3-.2.3q-.3 0-.5-1.7t-.1-3.3l.6-2.6q.3-1 .6-1" transform="translate(.85 8.35)"/><path id="g" fill="#000" d="M5.6-.8q2.3.3 2.3.9 0 .4-2.4.8L0 1.3-5.5.9Q-7.8.5-7.8.1q0-.6 2.3-1L0-1.1z" transform="translate(7.85 1.2)"/></defs><g clip-path="url(#f)"><g transform="translate(10 26.35)"><use xlink:href="#g" width="15.7" height="2.5" transform="translate(-7.4 -.95)"/><use xlink:href="#h" width="10.6" height="7.7" transform="matrix(.558 .0229 -.0771 .6261 -3.75 -10.8)"/><use xlink:href="#i" width="5.5" height="9.5" transform="matrix(.9416 .33 -.2865 .8175 2.95 -21.85)"/><use xlink:href="#j" width="7.8" height="6.5" transform="translate(-2.95 -13.9)"/><use xlink:href="#i" width="5.5" height="9.5" transform="matrix(-.8162 .0956 .076 .6402 -2.1 -25.35)"/><use xlink:href="#k" width="12.9" height="11.4" transform="rotate(-26.004 -42.594 10.122)scale(.9963)"/><use xlink:href="#l" width="14.3" height="13.1" transform="matrix(-.558 .092 0 .9041 9.55 -20.8)"/></g></g><g clip-path="url(#m)"><g transform="translate(33 26.35)"><use xlink:href="#g" width="15.7" height="2.5" transform="translate(-7.4 -.95)"/><use xlink:href="#h" width="10.6" height="7.7" transform="matrix(.5585 .0029 -.0553 .6282 -3.9 -9.25)"/><use xlink:href="#i" width="5.5" height="9.5" transform="matrix(.9952 .1364 -.057 .8584 .35 -20.6)"/><use xlink:href="#j" width="7.8" height="6.5" transform="translate(-2.75 -11.6)"/><use xlink:href="#i" width="5.5" height="9.5" transform="matrix(-.8242 .0542 .0118 .643 0 -22.85)"/><use xlink:href="#k" width="12.9" height="11.4" transform="matrix(.9361 -.389 .2969 .9833 -7.45 -15.75)"/><use xlink:href="#l" width="14.3" height="13.1" transform="matrix(-.5617 .0447 0 .7807 9.9 -15.4)"/></g></g><g clip-path="url(#n)"><g transform="translate(56 26.35)"><use xlink:href="#g" width="15.7" height="2.5" transform="translate(-7.4 -.95)"/><use xlink:href="#h" width="10.6" height="7.7" transform="matrix(.5583 -.0128 -.0336 .6299 -4.15 -7.8)"/><use xlink:href="#i" width="5.5" height="9.5" transform="matrix(1.0104 -.0581 .1674 .8376 -2.1 -18.85)"/><use xlink:href="#j" width="7.8" height="6.5" transform="translate(-2.5 -9.25)"/><use xlink:href="#i" width="5.5" height="9.5" transform="matrix(-.8305 .0115 -.0478 .6397 2.05 -20.3)"/><use xlink:href="#k" width="12.9" height="11.4" transform="matrix(.9745 -.341 .143 1.0498 -5.9 -13.8)"/><use xlink:href="#l" width="14.3" height="13.1" transform="matrix(-.5618 0 0 .6573 10.3 -9.85)"/></g></g><g clip-path="url(#o)"><g transform="translate(79 26.35)"><use xlink:href="#g" width="15.7" height="2.5" transform="translate(-7.4 -.95)"/><use xlink:href="#h" width="10.6" height="7.7" transform="matrix(.5576 -.0331 -.0142 .6308 -4.3 -6.25)"/><use xlink:href="#i" width="5.5" height="9.5" transform="matrix(.9858 -.2602 .3827 .7577 -4.45 -16.55)"/><use xlink:href="#j" width="7.8" height="6.5" transform="translate(-2.3 -6.95)"/><use xlink:href="#i" width="5.5" height="9.5" transform="matrix(-.8345 -.0285 -.1102 .6305 4.15 -17.75)"/><use xlink:href="#k" width="12.9" height="11.4" transform="matrix(1.0115 -.2898 -.0259 1.0915 -4.35 -11.7)"/><use xlink:href="#l" width="14.3" height="13.1" transform="matrix(-.558 -.0457 0 .5339 10.5 -4.4)"/></g></g><g clip-path="url(#p)"><g transform="translate(102 26.35)"><use xlink:href="#g" width="15.7" height="2.5" transform="translate(-7.4 -.95)"/><use xlink:href="#h" width="10.6" height="7.7" transform="matrix(.5576 -.032 -.0139 .6307 -4.65 -6.3)"/><use xlink:href="#i" width="5.5" height="9.5" transform="matrix(.8937 -.4722 .5256 .7267 -5.9 -15.6)"/><use xlink:href="#j" width="7.8" height="6.5" transform="translate(-2.3 -6.5)"/><use xlink:href="#i" width="5.5" height="9.5" transform="matrix(-.8242 -.0976 -.1334 .6269 4.8 -17.45)"/><use xlink:href="#k" width="12.9" height="11.4" transform="matrix(1.0116 -.2066 -.0676 1.0992 -3.75 -11.8)"/><use xlink:href="#l" width="14.3" height="13.1" transform="matrix(-.558 -.0457 0 .5339 10.5 -4.4)"/></g></g><g clip-path="url(#q)"><g transform="translate(125 26.35)"><use xlink:href="#g" width="15.7" height="2.5" transform="translate(-7.4 -.95)"/><use xlink:href="#h" width="10.6" height="7.7" transform="matrix(.5576 -.032 -.0139 .6307 -4.95 -6.4)"/><use xlink:href="#i" width="5.5" height="9.5" transform="matrix(.7555 -.6597 .6707 .6673 -7.3 -14.5)"/><use xlink:href="#j" width="7.8" height="6.5" transform="translate(-2.3 -6.1)"/><use xlink:href="#i" width="5.5" height="9.5" transform="matrix(-.8084 -.1648 -.1559 .623 5.55 -17.15)"/><use xlink:href="#k" width="12.9" height="11.4" transform="matrix(1.0056 -.1282 -.1115 1.1052 -3.25 -11.9)"/><use xlink:href="#l" width="14.3" height="13.1" transform="matrix(-.558 -.0457 0 .5339 10.5 -4.4)"/></g></g><g clip-path="url(#r)"><g transform="translate(148 26.35)"><use xlink:href="#g" width="15.7" height="2.5" transform="translate(-7.4 -.95)"/><use xlink:href="#h" width="10.6" height="7.7" transform="matrix(.5576 -.0331 -.0142 .6308 -5.3 -6.45)"/><use xlink:href="#i" width="5.5" height="9.5" transform="rotate(-54.396 -17.022 1.891)scale(.9971)"/><use xlink:href="#h" width="10.6" height="7.7" transform="matrix(-.7204 -.059 0 .7204 9.05 1.45)"/><use xlink:href="#j" width="7.8" height="6.5" transform="translate(-2.3 -5.65)"/><use xlink:href="#i" width="5.5" height="9.5" transform="matrix(-.7876 -.2313 -.1805 .6181 6.35 -16.85)"/><use xlink:href="#k" width="12.9" height="11.4" transform="matrix(.9937 -.0514 -.1561 1.11 -2.6 -11.85)"/></g></g><g clip-path="url(#s)"><g transform="translate(171 26.35)"><use xlink:href="#g" width="15.7" height="2.5" transform="translate(-7.4 -.95)"/><use xlink:href="#h" width="10.6" height="7.7" transform="matrix(.5494 .0971 -.1585 .6098 -5 -6.25)"/><use xlink:href="#i" width="5.5" height="9.5" transform="matrix(.5653 -.8192 .8031 .4883 -7.45 -12.9)"/><use xlink:href="#h" width="10.6" height="7.7" transform="matrix(-.7204 -.0573 0 .7204 8.7 .5)"/><use xlink:href="#j" width="7.8" height="6.5" transform="translate(-2.3 -6.2)"/><use xlink:href="#i" width="5.5" height="9.5" transform="matrix(-.775 -.2677 -.2097 .6081 6.55 -17.05)"/><use xlink:href="#k" width="12.9" height="11.4" transform="matrix(1.0294 .0092 -.1679 1.1545 -2.85 -13.6)"/></g></g><g clip-path="url(#t)"><g transform="translate(194 26.35)"><use xlink:href="#g" width="15.7" height="2.5" transform="translate(-7.4 -.95)"/><use xlink:href="#h" width="10.6" height="7.7" transform="matrix(.511 .2225 -.2964 .5553 -4.55 -6.05)"/><use xlink:href="#i" width="5.5" height="9.5" transform="matrix(.5537 -.8267 .7891 .399 -6.15 -12.75)"/><use xlink:href="#h" width="10.6" height="7.7" transform="matrix(-.7204 -.0573 0 .7204 8.4 -.5)"/><use xlink:href="#j" width="7.8" height="6.5" transform="translate(-2.3 -6.7)"/><use xlink:href="#i" width="5.5" height="9.5" transform="matrix(-.7611 -.3046 -.2388 .5971 6.9 -17.4)"/><use xlink:href="#k" width="12.9" height="11.4" transform="matrix(1.0611 .0745 -.1802 1.1995 -3 -15.25)"/></g></g><g clip-path="url(#u)"><g transform="translate(217 26.35)"><use xlink:href="#g" width="15.7" height="2.5" transform="translate(-7.4 -.95)"/><use xlink:href="#h" width="10.6" height="7.7" transform="matrix(.4455 .3354 -.4186 .4707 -3.9 -5.65)"/><use xlink:href="#i" width="5.5" height="9.5" transform="matrix(.5402 -.837 .7661 .3181 -4.75 -12.65)"/><use xlink:href="#h" width="10.6" height="7.7" transform="matrix(-.7204 -.059 0 .7204 8.05 -1.45)"/><use xlink:href="#j" width="7.8" height="6.5" transform="translate(-2.3 -7.25)"/><use xlink:href="#i" width="5.5" height="9.5" transform="matrix(-.7457 -.3426 -.2679 .5854 7.05 -17.6)"/><use xlink:href="#k" width="12.9" height="11.4" transform="matrix(1.0888 .1448 -.197 1.2444 -3.15 -17.05)"/></g></g><g clip-path="url(#v)"><g transform="translate(240 26.35)"><use xlink:href="#g" width="15.7" height="2.5" transform="translate(-7.4 -.95)"/><use xlink:href="#h" width="10.6" height="7.7" transform="matrix(.4455 .3354 -.4186 .4707 -3.9 -5.65)"/><use xlink:href="#i" width="5.5" height="9.5" transform="matrix(.5927 -.7989 .7687 .4364 -4.2 -14.65)"/><use xlink:href="#h" width="10.6" height="7.7" transform="matrix(-.6724 .0799 .1317 .7066 7.85 -6)"/><use xlink:href="#j" width="7.8" height="6.5" transform="translate(-2.3 -9.05)"/><use xlink:href="#i" width="5.5" height="9.5" transform="matrix(-.7727 -.2742 -.2711 .5923 7.6 -19.65)"/><use xlink:href="#k" width="12.9" height="11.4" transform="matrix(1.0871 .1634 -.2468 1.2345 -2.65 -18.8)"/></g></g><g clip-path="url(#w)"><g transform="translate(263 26.35)"><use xlink:href="#g" width="15.7" height="2.5" transform="translate(-7.4 -.95)"/><use xlink:href="#h" width="10.6" height="7.7" transform="matrix(.4455 .3354 -.4186 .4707 -3.9 -5.65)"/><use xlink:href="#i" width="5.5" height="9.5" transform="matrix(.6411 -.7607 .7539 .5604 -3.5 -16.75)"/><use xlink:href="#h" width="10.6" height="7.7" transform="matrix(-.5995 .1982 .2608 .6682 7.55 -10.4)"/><use xlink:href="#j" width="7.8" height="6.5" transform="translate(-2.3 -10.85)"/><use xlink:href="#i" width="5.5" height="9.5" transform="matrix(-.7948 -.2029 -.277 .5988 8.1 -21.8)"/><use xlink:href="#k" width="12.9" height="11.4" transform="matrix(1.0848 .1866 -.3002 1.2223 -2.15 -20.5)"/></g></g><g clip-path="url(#x)"><g transform="translate(286 26.35)"><use xlink:href="#g" width="15.7" height="2.5" transform="translate(-7.4 -.95)"/><use xlink:href="#i" width="5.5" height="9.5" transform="rotate(-46.159 -23.444 -6.315)scale(.9964)"/><use xlink:href="#h" width="10.6" height="7.7" transform="matrix(-.5085 .2924 .3813 .607 7.05 -14.6)"/><use xlink:href="#j" width="7.8" height="6.5" transform="translate(-2.3 -12.65)"/><use xlink:href="#i" width="5.5" height="9.5" transform="matrix(-.8101 -.1338 -.2834 .6061 8.6 -23.8)"/><use xlink:href="#k" width="12.9" height="11.4" transform="matrix(1.083 .2079 -.3545 1.2086 -1.55 -22.4)"/><use xlink:href="#l" width="14.3" height="13.1" transform="matrix(.6395 -.1546 .186 1.0741 -9 -16.15)"/></g></g><g clip-path="url(#y)"><g transform="translate(309 26.35)"><use xlink:href="#g" width="15.7" height="2.5" transform="translate(-7.4 -.95)"/><use xlink:href="#i" width="5.5" height="9.5" transform="rotate(-33.815 -30.702 -7.176)scale(.9944)"/><use xlink:href="#h" width="10.6" height="7.7" transform="matrix(-.4289 .3983 .507 .5046 6.35 -14.05)"/><use xlink:href="#j" width="7.8" height="6.5" transform="translate(-2.2 -10.55)"/><use xlink:href="#i" width="5.5" height="9.5" transform="matrix(-.8219 .0076 -.0976 .6519 6.3 -21.9)"/><use xlink:href="#k" width="12.9" height="11.4" transform="matrix(1.1051 .1023 -.2779 1.2259 -2.05 -19.45)"/><use xlink:href="#l" width="14.3" height="13.1" transform="matrix(.6357 -.1678 .1076 .812 -7.5 -10.05)"/></g></g><g clip-path="url(#z)"><g transform="translate(332 26.35)"><use xlink:href="#g" width="15.7" height="2.5" transform="translate(-7.4 -.95)"/><use xlink:href="#i" width="5.5" height="9.5" transform="matrix(.9263 -.3614 .3614 .9263 .55 -17.5)"/><use xlink:href="#h" width="10.6" height="7.7" transform="matrix(-.3277 .4846 .6076 .377 5.4 -13.45)"/><use xlink:href="#j" width="7.8" height="6.5" transform="translate(-2.1 -8.5)"/><use xlink:href="#i" width="5.5" height="9.5" transform="matrix(-.8085 .1504 .0882 .6436 4 -19.45)"/><use xlink:href="#k" width="12.9" height="11.4" transform="matrix(1.1176 -.0004 -.2021 1.2393 -2.5 -16.3)"/><use xlink:href="#l" width="14.3" height="13.1" transform="matrix(.6318 -.1817 .0527 .546 -6.2 -3.9)"/></g></g><g clip-path="url(#A)"><g transform="translate(355 26.35)"><use xlink:href="#g" width="15.7" height="2.5" transform="translate(-7.4 -.95)"/><use xlink:href="#i" width="5.5" height="9.5" transform="matrix(.9825 -.156 .156 .9825 2.4 -16.2)"/><use xlink:href="#h" width="10.6" height="7.7" transform="matrix(-.2099 .5467 .6777 .2303 4.45 -12.65)"/><use xlink:href="#j" width="7.8" height="6.5" transform="translate(-2 -6.4)"/><use xlink:href="#i" width="5.5" height="9.5" transform="matrix(-.771 .2901 .2654 .5827 1.75 -16.6)"/><use xlink:href="#k" width="12.9" height="11.4" transform="matrix(1.1197 -.1091 -.1256 1.2485 -2.7 -13.25)"/><use xlink:href="#l" width="14.3" height="13.1" transform="matrix(.628 -.1967 .0164 .2775 -5.2 2.3)"/></g></g><g clip-path="url(#B)"><g transform="translate(378 26.35)"><use xlink:href="#g" width="15.7" height="2.5" transform="translate(-7.4 -.95)"/><use xlink:href="#i" width="5.5" height="9.5" transform="rotate(.772 1251.927 225.32)scale(.9944)"/><use xlink:href="#h" width="10.6" height="7.7" transform="matrix(-.2099 .5467 .6777 .2303 4.45 -12.65)"/><use xlink:href="#j" width="7.8" height="6.5" transform="translate(-2 -6.55)"/><use xlink:href="#i" width="5.5" height="9.5" transform="matrix(-.7785 .2613 .2434 .5926 1.3 -16.75)"/><use xlink:href="#k" width="12.9" height="11.4" transform="matrix(1.162 -.19 -.0407 1.3179 -3.85 -12.65)"/><use xlink:href="#l" width="14.3" height="13.1" transform="matrix(.628 -.1967 .0164 .2775 -5.2 2.3)"/></g></g><g clip-path="url(#C)"><g transform="translate(401 26.35)"><use xlink:href="#g" width="15.7" height="2.5" transform="translate(-7.4 -.95)"/><use xlink:href="#i" width="5.5" height="9.5" transform="rotate(10.561 95.023 12.769)scale(.9935)"/><use xlink:href="#h" width="10.6" height="7.7" transform="matrix(-.2099 .5467 .6777 .2303 4.45 -12.65)"/><use xlink:href="#j" width="7.8" height="6.5" transform="translate(-2 -6.75)"/><use xlink:href="#i" width="5.5" height="9.5" transform="matrix(-.7857 .2335 .2228 .6019 .85 -16.85)"/><use xlink:href="#k" width="12.9" height="11.4" transform="matrix(1.1984 -.2778 .0488 1.3815 -5.05 -11.95)"/><use xlink:href="#l" width="14.3" height="13.1" transform="matrix(.628 -.1967 .0164 .2775 -5.2 2.3)"/></g></g><g clip-path="url(#D)"><g transform="translate(424 26.35)"><use xlink:href="#g" width="15.7" height="2.5" transform="translate(-7.4 -.95)"/><use xlink:href="#h" width="10.6" height="7.7" transform="matrix(.7621 -.0624 0 .7621 -4.5 -.25)"/><use xlink:href="#i" width="5.5" height="9.5" transform="rotate(20.574 49.984 4.16)scale(.9937)"/><use xlink:href="#j" width="7.8" height="6.5" transform="translate(-2 -6.9)"/><use xlink:href="#i" width="5.5" height="9.5" transform="matrix(-.792 .2074 .2029 .6108 .35 -17)"/><use xlink:href="#k" width="12.9" height="11.4" transform="matrix(1.2281 -.375 .1515 1.4385 -6.2 -11.2)"/></g></g><g clip-path="url(#E)"><g transform="translate(447 26.35)"><use xlink:href="#g" width="15.7" height="2.5" transform="translate(-7.4 -.95)"/><use xlink:href="#h" width="10.6" height="7.7" transform="matrix(.717 -.057 0 .7171 -4.45 -1.45)"/><use xlink:href="#i" width="5.5" height="9.5" transform="matrix(.9563 .2702 -.2623 .9282 3.75 -18.25)"/><use xlink:href="#j" width="7.8" height="6.5" transform="translate(-2.1 -7.7)"/><use xlink:href="#i" width="5.5" height="9.5" transform="matrix(-.8012 .1705 .1613 .6229 .15 -17.7)"/><use xlink:href="#k" width="12.9" height="11.4" transform="matrix(1.1165 -.4027 .2095 1.3212 -6.35 -11.75)"/></g></g><g clip-path="url(#F)"><g transform="translate(470 26.35)"><use xlink:href="#g" width="15.7" height="2.5" transform="translate(-7.4 -.95)"/><use xlink:href="#h" width="10.6" height="7.7" transform="matrix(.672 -.0534 0 .672 -4.4 -2.65)"/><use xlink:href="#i" width="5.5" height="9.5" transform="matrix(.9766 .1901 -.179 .9194 2.9 -19.1)"/><use xlink:href="#j" width="7.8" height="6.5" transform="translate(-2.2 -8.45)"/><use xlink:href="#i" width="5.5" height="9.5" transform="matrix(-.8096 .1323 .1178 .6331 -.05 -18.35)"/><use xlink:href="#k" width="12.9" height="11.4" transform="matrix(1.0054 -.4234 .2559 1.2025 -6.6 -12.4)"/></g></g><g clip-path="url(#G)"><g transform="translate(493 26.35)"><use xlink:href="#g" width="15.7" height="2.5" transform="translate(-7.4 -.95)"/><use xlink:href="#h" width="10.6" height="7.7" transform="matrix(.627 -.0513 0 .627 -4.4 -3.85)"/><use xlink:href="#i" width="5.5" height="9.5" transform="matrix(.9906 .1087 -.0991 .9036 2.1 -19.9)"/><use xlink:href="#j" width="7.8" height="6.5" transform="translate(-2.3 -9.25)"/><use xlink:href="#i" width="5.5" height="9.5" transform="matrix(-.8162 .0956 .076 .6402 -.35 -19.05)"/><use xlink:href="#k" width="12.9" height="11.4" transform="matrix(.8954 -.4368 .2912 1.0838 -6.55 -12.95)"/><use xlink:href="#l" width="14.3" height="13.1" transform="matrix(-.558 -.0457 0 .6108 11.55 -8.5)"/></g></g></svg>