<svg xmlns="http://www.w3.org/2000/svg" xmlns:xlink="http://www.w3.org/1999/xlink" width="385" height="26" viewBox="0 0 385 26"><defs><clipPath id="f"><path d="M1 1h23v24H1z"/></clipPath><clipPath id="k"><path d="M25 1h23v24H25z"/></clipPath><clipPath id="l"><path d="M49 1h23v24H49z"/></clipPath><clipPath id="m"><path d="M73 1h23v24H73z"/></clipPath><clipPath id="o"><path d="M97 1h23v24H97z"/></clipPath><clipPath id="p"><path d="M121 1h23v24h-23z"/></clipPath><clipPath id="q"><path d="M145 1h23v24h-23z"/></clipPath><clipPath id="r"><path d="M169 1h23v24h-23z"/></clipPath><clipPath id="s"><path d="M193 1h23v24h-23z"/></clipPath><clipPath id="t"><path d="M217 1h23v24h-23z"/></clipPath><clipPath id="v"><path d="M241 1h23v24h-23z"/></clipPath><clipPath id="w"><path d="M265 1h23v24h-23z"/></clipPath><clipPath id="x"><path d="M289 1h23v24h-23z"/></clipPath><clipPath id="z"><path d="M313 1h23v24h-23z"/></clipPath><clipPath id="A"><path d="M337 1h23v24h-23z"/></clipPath><clipPath id="B"><path d="M361 1h23v24h-23z"/></clipPath><path id="d" fill="#c9e9dc" d="m3-4.4.5 2.8.2 5q.1.8-.6 1.5l-1 .7-2-.1-2.9-1.3q-.7-.3-1-2.5.3-2.3 1.1-4.1l1.4-2.8.6-.5-.2 3.2q1.1.2 1.8.8 1-1.6 2-2.7M.7 2.9l-1-.4.4 1.2zm-3 0 .5-.9-1-.4z" transform="translate(3.75 5.65)"/><path id="y" fill="none" stroke="#6d5329" stroke-linecap="round" stroke-linejoin="round" stroke-opacity=".5" stroke-width="__RESOLUTION__" d="m-.5.5 1-1" transform="translate(.6 .6)" vector-effect="non-scaling-stroke"/><path id="u" fill="none" stroke="#6d5329" stroke-linecap="round" stroke-linejoin="round" stroke-opacity=".5" stroke-width="__RESOLUTION__" d="M-.7 1.8.8-1.8" transform="translate(.8 1.9)" vector-effect="non-scaling-stroke"/><path id="i" fill="#366d61" d="M.2-1.8q1.4-.7 2.4.9T.7 1.5L-3.5 3H-6q-.7-.3 2-2.2T.2-1.8" transform="translate(6.15 2.05)"/><g id="e"><path fill="#fcfff1" d="M.1 1.8Q.1 1 .6.6T1.8.1 3 .6q.4.4.4 1l-.3.4q-.6.3-1.4.3T.4 2z"/><path fill="#e3f3ed" d="m.1 1.8.3.1q.5.4 1.3.4T3.1 2l.3-.4v.1L3 3q-.5.5-1.2.5T.6 3 .1 1.8"/><path fill="none" stroke="#8dc7b5" stroke-linecap="round" stroke-linejoin="round" stroke-width="__RESOLUTION__" d="M3.4 1.7Q3.4 1 3 .5T1.8.1.6.6q-.5.5-.5 1.2T.6 3q.4.4 1.2.4t1-.4z" vector-effect="non-scaling-stroke"/></g><g id="c"><path fill="none" stroke="#366d61" stroke-linecap="round" stroke-linejoin="round" stroke-width="__RESOLUTION__" d="m3.6 6.2-.1.6M2.2 5.6l-.2.7" vector-effect="non-scaling-stroke"/><path fill="#fcfff1" d="m4.6 8.6-.6.8-.4-1.1zm-3 0-.5-1.2 1 .3z"/><path fill="#000" fill-opacity=".3" d="m6.8 1.4.5 2.8.3 5q0 .8-.7 1.5l-.9.7-2.1-.2L1.1 10q-.8-.3-1-2.5L1.5 9q.7.8 3 .8h1.2l1.1-2.4z"/><path fill="none" stroke="#366d61" stroke-linecap="round" stroke-linejoin="round" stroke-width="__RESOLUTION__" d="m6.8 1.4.5 2.8.3 5q0 .8-.7 1.5l-.9.7-2.1-.2L1.1 10q-.8-.3-1-2.5m3-7.4L3 3.2q1.2.3 1.9.9" vector-effect="non-scaling-stroke"/></g><g id="j" transform="translate(3.85 5.7)"><use xlink:href="#a" width="7.5" height="11.3" transform="translate(-3.75 -5.6)"/><use xlink:href="#c" width="7.7" height="11.4" transform="translate(-3.85 -5.7)"/></g><use xlink:href="#d" id="a" width="7.5" height="11.3"/><use xlink:href="#e" id="n" width="3.5" height="3.5"/></defs><g clip-path="url(#f)"><g transform="translate(11.1 20.85)"><use xlink:href="#e" width="3.5" height="3.5" transform="translate(1 -4.15)"/><use xlink:href="#i" width="8.9" height="5.3" transform="matrix(.3695 .0656 -.0778 .4384 -4.5 -2.15)"/><use xlink:href="#i" width="8.9" height="5.3" transform="matrix(.3603 -.1032 .1225 .4274 -.35 -.05)"/><use xlink:href="#j" width="7.7" height="11.4" transform="matrix(.99 -.0737 .1074 .9049 -4.65 -9.75)"/></g></g><g clip-path="url(#k)"><g transform="translate(35.1 20.85)"><use xlink:href="#e" width="3.5" height="3.5" transform="translate(1.2 -4.75)"/><use xlink:href="#i" width="8.9" height="5.3" transform="matrix(.3694 .0654 -.0775 .4382 -3.25 -2.85)"/><use xlink:href="#j" width="7.7" height="11.4" transform="matrix(1.013 -.0272 .1673 .8586 -4.7 -9.6)"/></g></g><g clip-path="url(#l)"><g transform="translate(59.1 20.85)"><use xlink:href="#e" width="3.5" height="3.5" transform="translate(1.4 -5.4)"/><use xlink:href="#i" width="8.9" height="5.3" transform="matrix(.3694 .0654 -.0777 .4383 -1.95 -3.5)"/><use xlink:href="#j" width="7.7" height="11.4" transform="matrix(1.034 .0144 .2213 .8089 -4.75 -9.3)"/></g></g><g clip-path="url(#m)"><g transform="translate(83.1 20.85)"><use xlink:href="#n" width="3.5" height="3.5" transform="translate(4.05 -4.95)"/><use xlink:href="#i" width="8.9" height="5.3" transform="matrix(.3695 .0666 -.0791 .4384 -.7 -4.2)"/><use xlink:href="#j" width="7.7" height="11.4" transform="matrix(1.0528 .0651 .2711 .7563 -4.7 -9.1)"/><use xlink:href="#i" width="8.9" height="5.3" transform="matrix(.2151 -.3114 -.2967 -.293 5.5 1.45)"/></g></g><g clip-path="url(#o)"><g transform="translate(107.1 20.85)"><use xlink:href="#n" width="3.5" height="3.5" transform="translate(4.05 -5.45)"/><use xlink:href="#i" width="8.9" height="5.3" transform="matrix(.3432 -.195 .2313 .4072 -1.9 -4.45)"/><use xlink:href="#j" width="7.7" height="11.4" transform="matrix(1.047 .1013 .0637 .9094 -3.65 -14.7)"/><use xlink:href="#i" width="8.9" height="5.3" transform="matrix(-.0326 -.4347 -.478 -.0463 6.9 -.3)"/></g></g><g clip-path="url(#p)"><g transform="translate(131.1 20.85)"><use xlink:href="#n" width="3.5" height="3.5" transform="translate(4.1 -6.95)"/><use xlink:href="#i" width="8.9" height="5.3" transform="matrix(.1438 -.3889 .4614 .1706 -1.9 -4.55)"/><use xlink:href="#j" width="7.7" height="11.4" transform="matrix(1.043 .1239 -.09 .9724 -2.8 -17.95)"/><use xlink:href="#i" width="8.9" height="5.3" transform="matrix(-.3385 -.3582 -.4536 .2985 8.15 -3.45)"/></g></g><g clip-path="url(#q)"><g transform="translate(155.1 20.85)"><use xlink:href="#n" width="3.5" height="3.5" transform="translate(4.15 -9.5)"/><use xlink:href="#i" width="8.9" height="5.3" transform="matrix(-.1461 -.4097 .486 -.1733 -.8 -5.65)"/><use xlink:href="#j" width="7.7" height="11.4" transform="matrix(1.0418 .1326 -.1484 .9874 -2.45 -19)"/><use xlink:href="#i" width="8.9" height="5.3" transform="matrix(-.5464 -.0726 -.1833 .579 8.3 -7.75)"/></g></g><g clip-path="url(#r)"><g transform="translate(179.1 20.85)"><use xlink:href="#n" width="3.5" height="3.5" transform="translate(3.15 -9.65)"/><use xlink:href="#i" width="8.9" height="5.3" transform="matrix(.0802 -.4321 .5126 .0952 -3.1 -6.25)"/><use xlink:href="#j" width="7.7" height="11.4" transform="matrix(1.0404 .1378 -.2045 .9991 -2.4 -19.3)"/><use xlink:href="#i" width="8.9" height="5.3" transform="matrix(-.3764 -.3555 -.4579 .3401 6.9 -5.55)"/></g></g><g clip-path="url(#s)"><g transform="translate(203.1 20.85)"><use xlink:href="#n" width="3.5" height="3.5" transform="translate(2.15 -9.75)"/><use xlink:href="#i" width="8.9" height="5.3" transform="matrix(.289 -.3367 .3995 .3429 -5 -7.6)"/><use xlink:href="#j" width="7.7" height="11.4" transform="matrix(1.0388 .1465 -.2662 1.0069 -2.35 -19.6)"/><use xlink:href="#i" width="8.9" height="5.3" transform="matrix(-.0909 -.477 -.5353 .0073 4.4 -4.25)"/></g></g><g clip-path="url(#t)"><g transform="translate(227.1 20.85)"><use xlink:href="#n" width="3.5" height="3.5" transform="translate(.85 -9.9)"/><use xlink:href="#i" width="8.9" height="5.3" transform="matrix(.4246 -.1469 .1743 .5037 -6.3 -9.3)"/><use xlink:href="#j" width="7.7" height="11.4" transform="matrix(1.0377 .155 -.3311 1.0114 -2.2 -19.85)"/><use xlink:href="#i" width="8.9" height="5.3" transform="matrix(.1908 -.4112 -.4096 -.2857 1.5 -4.1)"/><use xlink:href="#u" width="1.6" height="3.8" transform="translate(9 -6.35)"/></g></g><g clip-path="url(#v)"><g transform="translate(251.1 20.85)"><use xlink:href="#n" width="3.5" height="3.5" transform="translate(.75 -9.65)"/><use xlink:href="#i" width="8.9" height="5.3" transform="matrix(.4246 -.1469 .1743 .5037 -6.3 -9.3)"/><use xlink:href="#j" width="7.7" height="11.4" transform="matrix(1.0253 .0995 -.3045 1.024 -2.6 -19.1)"/><use xlink:href="#i" width="8.9" height="5.3" transform="matrix(.4017 -.0693 -.4631 -.2441 -.75 -5.75)"/><use xlink:href="#u" width="1.6" height="3.8" transform="translate(9.75 -6.65)"/></g></g><g clip-path="url(#w)"><g transform="translate(275.1 20.85)"><use xlink:href="#n" width="3.5" height="3.5" transform="translate(.45 -9.15)"/><use xlink:href="#i" width="8.9" height="5.3" transform="matrix(.4246 -.1469 .1743 .5037 -6.3 -9.3)"/><use xlink:href="#j" width="7.7" height="11.4" transform="matrix(1.0102 .0489 -.2791 1.0366 -2.95 -18.45)"/><use xlink:href="#i" width="8.9" height="5.3" transform="matrix(.2542 .2576 -.5134 -.1925 -.9 -7.45)"/><use xlink:href="#u" width="1.6" height="3.8" transform="translate(10.55 -6.95)"/></g></g><g clip-path="url(#x)"><g transform="translate(299.1 20.85)"><use xlink:href="#n" width="3.5" height="3.5" transform="translate(.05 -8.3)"/><use xlink:href="#j" width="7.7" height="11.4" transform="matrix(.9928 -.0001 -.2574 1.0484 -3.3 -17.75)"/><use xlink:href="#i" width="8.9" height="5.3" transform="matrix(-.0586 .3116 -.5579 -.1337 -.05 -7.45)"/><use xlink:href="#i" width="8.9" height="5.3" transform="matrix(.0555 .3899 -.4196 .1901 -5.8 -11.15)"/><use xlink:href="#y" width="1.2" height="1.1" transform="translate(11.5 -5.95)"/></g></g><g clip-path="url(#z)"><g transform="translate(323.1 20.85)"><use xlink:href="#n" width="3.5" height="3.5" transform="translate(-.55 -7.15)"/><use xlink:href="#j" width="7.7" height="11.4" transform="matrix(.9726 -.0472 -.231 1.0595 -4.15 -15.05)"/><use xlink:href="#i" width="8.9" height="5.3" transform="matrix(-.0444 .3156 -.5665 -.108 -.85 -4.75)"/><use xlink:href="#y" width="1.2" height="1.1" transform="translate(11.5 -5.95)"/></g></g><g clip-path="url(#A)"><g transform="translate(347.1 20.85)"><use xlink:href="#n" width="3.5" height="3.5" transform="translate(-1.3 -5.65)"/><use xlink:href="#j" width="7.7" height="11.4" transform="matrix(.9503 -.0924 -.2082 1.0701 -4.75 -12.3)"/><use xlink:href="#i" width="8.9" height="5.3" transform="matrix(-.0296 .3192 -.5741 -.0834 -1.75 -2.15)"/><use xlink:href="#y" width="1.2" height="1.1" transform="translate(11.5 -5.95)"/></g></g><g clip-path="url(#B)"><g transform="translate(371.1 20.85)"><use xlink:href="#n" width="3.5" height="3.5" transform="translate(-2.25 -3.9)"/><use xlink:href="#i" width="8.9" height="5.3" transform="matrix(.3695 .0666 -.0791 .4384 -6.55 -.45)"/><use xlink:href="#j" width="7.7" height="11.4" transform="matrix(.9259 -.139 -.1834 1.081 -5.5 -9.55)"/><use xlink:href="#i" width="8.9" height="5.3" transform="matrix(-.0161 .3221 -.5808 -.0579 -2.5 .55)"/><use xlink:href="#i" width="8.9" height="5.3" transform="matrix(.0633 .3954 -.4232 .2005 -7.85 -2.7)"/></g></g></svg>