<?xml version="1.0"?>
<svg xmlns="http://www.w3.org/2000/svg" xmlns:xlink="http://www.w3.org/1999/xlink" width="9.2px" height="12.5px"><g transform="matrix(1, 0, 0, 1, -3.4, -1.75)"><path fill-rule="evenodd" fill="#b3c79e" stroke="none" d="M3.4 9.1L4.1 7.25Q3.35 3.8 5.45 2.45Q7.05 1.7 8.35 1.75Q10.2 1.85 11 2.65Q12.85 4.5 12.15 6.25L12.5 6.8Q12.7 7.3 12.55 8.2L12 9.65Q11.4 10.5 11.05 10.2L10.95 10.25L11.5 14.2L5.45 14.25L5.9 12.3L4.3 12.2L4.15 9.25L3.4 9.1M12.15 6.25Q11.25 6.2 10.85 6.8Q11.25 6.2 12.15 6.25M5.9 12.3L7.65 11.85L5.9 12.3M5.25 9.4L4.15 9.25L5.25 9.4M7.55 7.8L4.1 7.25L7.55 7.8"/><path fill="none" stroke="#372511" vector-effect="non-scaling-stroke" stroke-width="1" stroke-linecap="round" stroke-linejoin="round" d="M3.4 9.1L4.1 7.25Q3.35 3.8 5.45 2.45Q7.05 1.7 8.35 1.75Q10.2 1.85 11 2.65Q12.85 4.5 12.15 6.25L12.5 6.8Q12.7 7.3 12.55 8.2L12 9.65Q11.4 10.5 11.05 10.2L10.95 10.25L11.5 14.2M5.45 14.25L5.9 12.3L4.3 12.2M10.85 6.8Q11.25 6.2 12.15 6.25M7.65 11.85L5.9 12.3M4.1 7.25L7.55 7.8"/><path fill="none" stroke="#000000" vector-effect="non-scaling-stroke" stroke-width="1" stroke-linecap="round" stroke-linejoin="round" d="M4.3 12.2L4.15 9.25"/><path fill="none" stroke="#a4a4a4" vector-effect="non-scaling-stroke" stroke-width="1" stroke-linecap="round" stroke-linejoin="round" d="M4.15 9.25L3.4 9.1M4.15 9.25L5.25 9.4"/></g></svg>
