<svg xmlns="http://www.w3.org/2000/svg" xmlns:xlink="http://www.w3.org/1999/xlink" width="206" height="244" viewBox="0 0 206 244"><defs><g id="i"><path fill="#fea2de" fill-opacity=".5" d="m3.6 2.2-.3-.8Q3 1 2.5 1l-.9.2-.3.9.3.8.9.4q.5 0 .8-.4.3-.3.3-.8M5.4 1q.8.9.8 2.2t-.9 2q-.8 1-2 1T1 5.3t-.8-2T1 1 3.3.3t2 .8"/><path fill="#fff" d="M3.6 2.2q0 .5-.3.8t-.8.4L1.6 3l-.3-.8.3-.8.9-.3q.5 0 .8.2z"/><path fill="none" stroke="#ff47a3" stroke-linecap="round" stroke-linejoin="round" stroke-width="__RESOLUTION__" d="M5.4 1.1q.8.9.8 2.2t-.9 2q-.8 1-2 1T1 5.3t-.8-2T1 1 3.3.3t2 .8" vector-effect="non-scaling-stroke"/></g><g id="j"><path fill="#ea8cc9" fill-opacity=".5" d="m3.6 2.2-.3-.8Q3 1 2.5 1l-.9.2-.3.9.3.8.9.4q.5 0 .8-.4.3-.3.3-.8M5.4 1q.8.9.8 2.2t-.9 2q-.8 1-2 1T1 5.3t-.8-2T1 1 3.3.3t2 .8"/><path fill="#ebebeb" d="M3.6 2.2q0 .5-.3.8t-.8.4L1.6 3l-.3-.8.3-.8.9-.3q.5 0 .8.2z"/><path fill="none" stroke="#eb2f8d" stroke-linecap="round" stroke-linejoin="round" stroke-width="__RESOLUTION__" d="M5.4 1.1q.8.9.8 2.2t-.9 2q-.8 1-2 1T1 5.3t-.8-2T1 1 3.3.3t2 .8" vector-effect="non-scaling-stroke"/></g><g id="k"><path fill="#fe98db" fill-opacity=".5" d="m3.6 2.2-.3-.8Q3 1 2.5 1l-.9.2-.3.9.3.8.9.4q.5 0 .8-.4.3-.3.3-.8M5.4 1q.8.9.8 2.2t-.9 2q-.8 1-2 1T1 5.3t-.8-2T1 1 3.3.3t2 .8"/><path fill="#fff" d="M3.6 2.2q0 .5-.3.8t-.8.4L1.6 3l-.3-.8.3-.8.9-.3q.5 0 .8.2z"/><path fill="none" stroke="#f39" stroke-linecap="round" stroke-linejoin="round" stroke-width="__RESOLUTION__" d="M5.4 1.1q.8.9.8 2.2t-.9 2q-.8 1-2 1T1 5.3t-.8-2T1 1 3.3.3t2 .8" vector-effect="non-scaling-stroke"/></g><g id="l"><path fill="#aa6693" fill-opacity=".5" d="m3.6 2.2-.3-.8Q3 1 2.5 1l-.9.2-.3.9.3.8.9.4q.5 0 .8-.4.3-.3.3-.8M5.4 1q.8.9.8 2.2t-.9 2q-.8 1-2 1T1 5.3t-.8-2T1 1 3.3.3t2 .8"/><path fill="#ababab" d="M3.6 2.2q0 .5-.3.8t-.8.4L1.6 3l-.3-.8.3-.8.9-.3q.5 0 .8.2z"/><path fill="none" stroke="#ab2266" stroke-linecap="round" stroke-linejoin="round" stroke-width="__RESOLUTION__" d="M5.4 1.1q.8.9.8 2.2t-.9 2q-.8 1-2 1T1 5.3t-.8-2T1 1 3.3.3t2 .8" vector-effect="non-scaling-stroke"/></g><g id="n"><path fill="#cd7ab1" fill-opacity=".5" d="m3.6 2.2-.3-.8Q3 1 2.5 1l-.9.2-.3.9.3.8.9.4q.5 0 .8-.4.3-.3.3-.8M5.4 1q.8.9.8 2.2t-.9 2q-.8 1-2 1T1 5.3t-.8-2T1 1 3.3.3t2 .8"/><path fill="#cecece" d="M3.6 2.2q0 .5-.3.8t-.8.4L1.6 3l-.3-.8.3-.8.9-.3q.5 0 .8.2z"/><path fill="none" stroke="#ce297b" stroke-linecap="round" stroke-linejoin="round" stroke-width="__RESOLUTION__" d="M5.4 1.1q.8.9.8 2.2t-.9 2q-.8 1-2 1T1 5.3t-.8-2T1 1 3.3.3t2 .8" vector-effect="non-scaling-stroke"/></g><g id="u"><path fill="#dd84be" fill-opacity=".5" d="m3.6 2.2-.3-.8Q3 1 2.5 1l-.9.2-.3.9.3.8.9.4q.5 0 .8-.4.3-.3.3-.8M5.4 1q.8.9.8 2.2t-.9 2q-.8 1-2 1T1 5.3t-.8-2T1 1 3.3.3t2 .8"/><path fill="#dedede" d="M3.6 2.2q0 .5-.3.8t-.8.4L1.6 3l-.3-.8.3-.8.9-.3q.5 0 .8.2z"/><path fill="none" stroke="#de2c85" stroke-linecap="round" stroke-linejoin="round" stroke-width="__RESOLUTION__" d="M5.4 1.1q.8.9.8 2.2t-.9 2q-.8 1-2 1T1 5.3t-.8-2T1 1 3.3.3t2 .8" vector-effect="non-scaling-stroke"/></g><g id="h" transform="translate(67.55 46.05)"><use xlink:href="#a" width="6.5" height="6.5" transform="translate(-67.55 -29.4)scale(4.75)"/><use xlink:href="#b" width="6.5" height="6.5" transform="translate(36.6 -3.7)scale(4.75)"/><use xlink:href="#a" width="6.5" height="6.5" transform="translate(-51.1 15.15)scale(4.75)"/><use xlink:href="#c" width="6.5" height="6.5" transform="translate(-.4 -46.05)scale(4.75)"/><use xlink:href="#a" width="6.5" height="6.5" transform="translate(-11.65 5)scale(4.75)"/><use xlink:href="#a" width="6.5" height="6.5" transform="translate(-42.45 -24.55)scale(4.75)"/></g><g id="g" transform="translate(49.4 61.75)"><use xlink:href="#d" width="6.5" height="6.5" transform="translate(-34.35 -61.75)scale(4.75)"/><use xlink:href="#e" width="6.5" height="6.5" transform="translate(18.45 -45.9)scale(4.75)"/><use xlink:href="#f" width="6.5" height="6.5" transform="translate(3.35 -7.4)scale(4.75)"/><use xlink:href="#f" width="6.5" height="6.5" transform="translate(-36.55 30.6)scale(4.75)"/><use xlink:href="#f" width="6.5" height="6.5" transform="translate(-49.4 -7.4)scale(4.75)"/><use xlink:href="#e" width="6.5" height="6.5" transform="translate(3.35 30.9)scale(4.75)"/></g><g id="A" transform="translate(82.05 72.8)"><use xlink:href="#g" width="98.8" height="123.5" transform="translate(-58.9 -55.25)"/><use xlink:href="#h" width="135.1" height="92.1" transform="translate(-82.05 -35.85)"/></g><g id="z"><path fill="#8e8d02" d="M12.9 56.1q-1-6.2-2.4-12.8l-1.1-5.4q-1.8-5.6-4.9-13.2-2.7-11.3.3-17.6Q7.2 1.7 13 .7q5.1-.8 10.3 1.9t6.4 6.9q2.3 8-1.3 12.9Q22 32 21.2 37.1q-.6 1.3-.8 3-1.8 10.4-2.3 20.4z"/><path fill="#c7c701" d="M18.1 60.5q-2 33.4 5.2 49t1.6 23-10 7.7q-4.4 0-10.6-4.3T2 116.5q15.8-23.3 10.9-60.4z"/><path fill="none" stroke="#5f5e01" stroke-linecap="round" stroke-linejoin="round" stroke-width="1" d="M12.9 56.1q-1-6.2-2.4-12.8l-1.1-5.4q-1.8-5.6-4.9-13.2-2.7-11.3.3-17.6Q7.2 1.7 13 .7q5.1-.8 10.3 1.9t6.4 6.9q2.3 8-1.3 12.9Q22 32 21.2 37.1q-.6 1.3-.8 3-1.8 10.4-2.3 20.4-2 33.4 5.2 49t1.6 23"/><path fill="none" stroke="#7e7e01" stroke-linecap="round" stroke-linejoin="round" stroke-width="1" d="M24.9 132.6q-5.7 7.5-10 7.6-4.4 0-10.6-4.3T2 116.5q15.8-23.3 10.8-60.4"/></g><use xlink:href="#i" id="c" width="6.5" height="6.5"/><use xlink:href="#j" id="b" width="6.5" height="6.5"/><use xlink:href="#k" id="a" width="6.5" height="6.5"/><use xlink:href="#l" id="f" width="6.5" height="6.5"/><use xlink:href="#n" id="e" width="6.5" height="6.5"/><use xlink:href="#u" id="d" width="6.5" height="6.5"/><use xlink:href="#v" id="x" width="24.8" height="5.9"/><path id="v" fill="#241506" fill-opacity=".3" d="m0-3 8.8.9q3.6.9 3.6 2.1T8.8 2L0 3q-5.1 0-8.7-1-3.7-.8-3.6-2-.1-1.2 3.6-2.1z" transform="translate(12.35 2.95)"/><path id="B" fill="none" stroke="#524b38" stroke-linecap="round" stroke-linejoin="round" stroke-width="1" d="M6.2-10.8 1.8 1.7l16.7 1" transform="translate(-1.35 11.3)"/><path id="y" fill="none" stroke="#524b38" stroke-linecap="round" stroke-linejoin="round" stroke-width="1" d="M-10.2-15.8-8.6-1l-3.3-5.3" transform="translate(12.35 16.3)"/><clipPath id="w"><path d="M1 1h204v242H1z"/></clipPath></defs><g clip-path="url(#w)"><g transform="translate(118.75 238.85)"><use xlink:href="#x" width="24.8" height="5.9" transform="matrix(.6768 0 0 1.4218 -8.85 -4.45)"/><use xlink:href="#y" width="4.3" height="15.8" transform="translate(-12.35 -16.3)"/><use xlink:href="#z" width="31.2" height="140.7" transform="matrix(1.0123 -.0334 .1295 .9825 -30.25 -144.2)"/><use xlink:href="#A" width="148.9" height="141.1" transform="matrix(-.7853 .6157 .6157 .7853 -.8 -237.85)"/><use xlink:href="#B" width="17.6" height="14.5" transform="translate(1.35 -11.3)"/></g></g></svg>