<svg xmlns="http://www.w3.org/2000/svg" xmlns:xlink="http://www.w3.org/1999/xlink" width="2323" height="62" viewBox="0 0 2323 62"><defs><clipPath id="as"><path d="M1 1h53v60H1z"/></clipPath><clipPath id="aH"><path d="M55 1h53v60H55z"/></clipPath><clipPath id="aI"><path d="M109 1h53v60h-53z"/></clipPath><clipPath id="aJ"><path d="M163 1h53v60h-53z"/></clipPath><clipPath id="aK"><path d="M217 1h53v60h-53z"/></clipPath><clipPath id="aL"><path d="M271 1h53v60h-53z"/></clipPath><clipPath id="aM"><path d="M325 1h53v60h-53z"/></clipPath><clipPath id="aN"><path d="M379 1h53v60h-53z"/></clipPath><clipPath id="aO"><path d="M433 1h53v60h-53z"/></clipPath><clipPath id="aP"><path d="M487 1h53v60h-53z"/></clipPath><clipPath id="aQ"><path d="M541 1h53v60h-53z"/></clipPath><clipPath id="aR"><path d="M595 1h53v60h-53z"/></clipPath><clipPath id="aS"><path d="M649 1h53v60h-53z"/></clipPath><clipPath id="aT"><path d="M703 1h53v60h-53z"/></clipPath><clipPath id="aU"><path d="M757 1h53v60h-53z"/></clipPath><clipPath id="aV"><path d="M811 1h53v60h-53z"/></clipPath><clipPath id="aW"><path d="M865 1h53v60h-53z"/></clipPath><clipPath id="aX"><path d="M919 1h53v60h-53z"/></clipPath><clipPath id="aY"><path d="M973 1h53v60h-53z"/></clipPath><clipPath id="aZ"><path d="M1027 1h53v60h-53z"/></clipPath><clipPath id="ba"><path d="M1081 1h53v60h-53z"/></clipPath><clipPath id="bb"><path d="M1135 1h53v60h-53z"/></clipPath><clipPath id="be"><path d="M1189 1h53v60h-53z"/></clipPath><clipPath id="bg"><path d="M1243 1h53v60h-53z"/></clipPath><clipPath id="bh"><path d="M1297 1h53v60h-53z"/></clipPath><clipPath id="bj"><path d="M1351 1h53v60h-53z"/></clipPath><clipPath id="bk"><path d="M1405 1h53v60h-53z"/></clipPath><clipPath id="bl"><path d="M1459 1h53v60h-53z"/></clipPath><clipPath id="bm"><path d="M1513 1h53v60h-53z"/></clipPath><clipPath id="bn"><path d="M1567 1h53v60h-53z"/></clipPath><clipPath id="bo"><path d="M1621 1h53v60h-53z"/></clipPath><clipPath id="bp"><path d="M1675 1h53v60h-53z"/></clipPath><clipPath id="bq"><path d="M1729 1h53v60h-53z"/></clipPath><clipPath id="br"><path d="M1783 1h53v60h-53z"/></clipPath><clipPath id="bs"><path d="M1837 1h53v60h-53z"/></clipPath><clipPath id="bu"><path d="M1891 1h53v60h-53z"/></clipPath><clipPath id="bv"><path d="M1945 1h53v60h-53z"/></clipPath><clipPath id="bw"><path d="M1999 1h53v60h-53z"/></clipPath><clipPath id="bx"><path d="M2053 1h53v60h-53z"/></clipPath><clipPath id="by"><path d="M2107 1h53v60h-53z"/></clipPath><clipPath id="bz"><path d="M2161 1h53v60h-53z"/></clipPath><clipPath id="bA"><path d="M2215 1h53v60h-53z"/></clipPath><clipPath id="bB"><path d="M2269 1h53v60h-53z"/></clipPath><g id="af"><path fill="#b5a68d" d="M5.9.6z"/><path fill="#f28c26" d="m5.8.6 1.8 1.6q.5 3.8-1 6.3L5 9.9l-2 .5Q1.2 10 .3 8.5-.3 7.3.1 5.8T.3 4Q0 3.6.6 1.6 1.2.6 2.9 0q1.8 0 2.9.6"/></g><g id="ai"><path fill="#d1581e" d="M6.1 0"/><path fill="#450b20" d="M6.1 0q.6 0 1.7.9l.9 2.5v2.2L8 7l-.5.9Q6.5 9 7 11.7q-.4 1-2.2 1.1l-2.3-.1q-.9-.3-1.9-1.1-.3-1.2.1-2.7Q1 7.7.2 6.1L0 3.6q.3-1.8.9-2L2.3.7q.6 1 3 .9Q7.2.8 6.1.1z"/></g><g id="ao"><path fill="#9e5213" d="M0 3.6v-.4l.3-.8L1 .2Q2 .5 2.7 0l1 2.2q0 .4.4 1l.6 2-1 .8-.5 1.5-1-.2L2 5.4v1.4l-1-.2-.1-1L0 5z"/><path fill="#b5a68d" d="M0 3.6"/></g><g id="e"><path fill="none" stroke="#212121" stroke-linecap="round" stroke-linejoin="round" stroke-opacity=".5" stroke-width="__RESOLUTION__" d="m6.3 1.6 2 1.5q1.2 1.4 1.1 3l-.3 1.5q-.6 2.8 0 5-1.8 2.1-4.7 1.8L2 13.8q.5-1 .6-1.6.2-1.3-.8-2.9L.3 6.6Q0 5.4.1 4.6v-.1l.5-1.6.2-.2L1.9 2" vector-effect="non-scaling-stroke"/><path fill="#422c09" fill-opacity=".3" d="M1.8 9.3Q-.2 6 0 4.6v-.1q.2-1.6.6-1.9.3 3.7 2.9 5L6 7.1q-2.2 4.8-1.7 7.3-1.2-.2-2.5-.7.5-.9.6-1.6.2-1.3-.8-2.8"/><path fill="#88532d" d="m9 11.5.3 1.6q.3.2.3.9 0 .8-.5.8l-.5-.3h-.1l-.4.3q-1.4.9-2.4.9-1.4 0-2.7-.6l-1-.7q-.3-.1-.1-1.3 1.4.9 3.6.8 1.2-.1 2.4-.6v-.1l.5-.3.2-.1q.4-.5.4-1.3"/><path fill="#ffbf1c" d="m8 14 .1.2-.2.3-.5.3H7l-.2-.1.1-.1.1-.2.5-.4zm-1.8-.2q1.1-.8 2.3-1h.3q0 1-.3 2.1l-.1.1-2.6 1q-.1-.7.3-2zm.5.3q-.2.5-.1 1.3l1.4-.7.2-1.3z"/><path fill="none" stroke="#212121" stroke-linecap="round" stroke-linejoin="round" stroke-opacity=".3" stroke-width="__RESOLUTION__" d="M7.1 7h1.8m-7.2-.6 2 1.2 2.4-.5" vector-effect="non-scaling-stroke"/><path fill="#45392e" fill-opacity=".3" d="M6.8 3.7q-.4.7-1.4.6-1.6-1-2.2-2.7L3 1.4 3.5 0l2.7 1.3z"/><path fill="#fedb8b" d="m6.3 1.7.9-.6.3.2-.4.4.9.5.3-.3.3.2-.9.6z"/><path fill="#ffbf1c" d="m7.3 8.9-2.4-3 3.7-1zm-.1-1.3.5-1.8-1.6.4z"/><path fill="none" stroke="#451700" stroke-linecap="round" stroke-linejoin="round" stroke-opacity=".7" stroke-width="__RESOLUTION__" d="m7.3 8.9-2.4-3 3.7-1z" vector-effect="non-scaling-stroke"/><path fill="#ffbf1c" d="M3.8 4.5h1l.2.4h-.5l.5 1 .4-.2.2.4H4.5z"/><path fill="#fedb8b" d="m3.3 3 1.5 1.1-.3 1-.3-.2.2-.4-.8-.6-.2.5L3 4z"/><path fill="#ffbf1c" d="M2 2.4h1l.2.4h-.6l.5 1 .5-.1.1.3h-1z"/><path fill="#fedb8b" d="m1.7 1.3 1.3 1-.7.7-.3-.2.4-.3-.7-.6-.4.3-.3-.3zm6.9 2.3.1 1.8-1 .4v-.4l.4-.1v-1l-.5.1V4z"/><path fill="#ffbf1c" d="m7.5 2.4 1 .3.1.3h-.5l.2 1h.4l.1.4-1.1-.3z"/></g><g id="aq"><path fill="#260610" d="M3.7 0Q5.5 0 6 1.3q.7 2.2.5 5.3-.3 2.7-1 4.1-.7.7-1.8 1h-.1l-.5-1.6v-.2l.6-2.1-.9-.9q0-1.7.3-2.4z"/><path fill="#450b20" d="m3.7 0-.6 4.5q-.2.7-.3 2.4l.9.9-.6 2v.2l.5 1.7-.6.2q-1.5 0-2.9-1.1-.4-4.6 1.3-10 1-.7 2.3-.8"/><path fill="none" stroke="#121e0d" stroke-linecap="round" stroke-linejoin="round" stroke-width="__RESOLUTION__" d="M3.7 11.8q1-.4 1.8-1.1.7-1.4 1-4.1.2-3.1-.5-5.3M3.6 11.8l-.6.1q-1.5 0-2.9-1.1-.4-4.6 1.3-10" vector-effect="non-scaling-stroke"/><path fill="#b38613" d="m2.2 9.3.2 1.5h-.7l-.1-1.7zm0-4.6L1.9 3l.7.3.2 1.7z"/><path fill="#ffbf1c" d="m1.6 9.1.5-1.7.7.4-.6 1.5zm1.2-4.2-.1 1.5h-.8l.3-1.7z"/></g><g id="ar"><path fill="#a17836" d="M3.1 4.6q-.6 1.7-.4 2.9Q.9 7.9.2 7q.2-.8.1-3Q.2 2 1.2.6q1.8-1.4 3 .5z"/><path fill="#f7e9ca" d="m1.6 5.7 1.6.2-.3 1.6-1.5-.2z"/><path fill="#c19142" d="m1.6 5.7-.2 1.6-1.3-.9V4.9z"/><path fill="none" stroke="#8d682f" stroke-linecap="round" stroke-linejoin="round" stroke-width="__RESOLUTION__" d="m2.9 7.5.3-1.6-1.7-.2m-.1 1.6L.1 6.4V4.9" vector-effect="non-scaling-stroke"/><path fill="#f7e9ca" d="M3.8 3.7 3.5 5l-1.9.6.3-2.1z"/><path fill="#c19142" d="m1.9 3.5-.3 2.1L0 4.9l.2-1.2z"/><path fill="none" stroke="#8d682f" stroke-linecap="round" stroke-linejoin="round" stroke-width="__RESOLUTION__" d="m3.5 5 .3-1.3M0 4.8l.2-1" vector-effect="non-scaling-stroke"/><path fill="#f7e9ca" d="m2.4 1.8 1.9-.3-.2 1.8-2 .4z"/><path fill="#c19142" d="M2 3.7.3 2.8l.4-1.5 1.7.5z"/><path fill="none" stroke="#8d682f" stroke-linecap="round" stroke-linejoin="round" stroke-width="__RESOLUTION__" d="m2.4 1.8 1.9-.3-.2 1.8" vector-effect="non-scaling-stroke"/><path fill="#f7e9ca" d="m2.3 2.7 1.8.6-1 1.7-1.8-.7z"/><path fill="#c19142" d="M1.3 4.3.1 2.5 1 1.2l1.3 1.5z"/><path fill="none" stroke="#8d682f" stroke-linecap="round" stroke-linejoin="round" stroke-width="__RESOLUTION__" d="m2.3 2.7 1.8.6-1 1.7-1.8-.7L.1 2.5 1 1.2z" vector-effect="non-scaling-stroke"/></g><g id="g"><path fill="#c5b896" d="m4.5 2.7-.1-.2h.2z"/><path fill="none" stroke="#212121" stroke-linecap="round" stroke-linejoin="round" stroke-opacity=".5" stroke-width="__RESOLUTION__" d="m4.3 3.8.2.7-1.2.3v.4H1.9l-.2-.7v.9L.3 5 .1 3.8h0q-.2-.6.5-2L1.1.3M3.3 0l1.1 2.6" vector-effect="non-scaling-stroke"/><path fill="#45392e" fill-opacity=".3" d="M3.3 4.8v.4H1.9L1.5 4h1.8q.2-.2 1.1-.2l.2.7z"/></g><g id="i"><path fill="none" stroke="#212121" stroke-linecap="round" stroke-linejoin="round" stroke-opacity=".5" stroke-width="__RESOLUTION__" d="M3.6 4Q3.7 2 3 .9T1.7.1q-1.3 1.7-1 3l-.6 2q-.2.7.1 3.4m1.8.1.5-1.5.4-1.9" vector-effect="non-scaling-stroke"/><path fill="#45392e" fill-opacity=".3" d="M1.7 0q.8-.2 1.4.9.6 1 .4 3l-.7 1.3q-1.2.3-1.8-1Q.2 6.7.8 8.7l-.6-.2Q-.1 5.7.1 5l.6-2q-.3-1.3 1-3"/></g><g id="o"><path fill="none" stroke="#212121" stroke-linecap="round" stroke-linejoin="round" stroke-opacity=".5" stroke-width="__RESOLUTION__" d="M2.2 3.2Q2 1.3 4.2 0v.1l.6 2.2Q5 3.5 4.6 4" vector-effect="non-scaling-stroke"/><path fill="#45392e" fill-opacity=".3" d="M4.3.2Q4.5 2.2 3 4l-.9-.8Q2 1.5 4.1 0z"/><path fill="#290612" d="m4.5 3.9 3.4-.3.4 1.7-3.5.5z"/><path fill="#450b20" d="m4.5 3.9.3 1.9-4.1-1V3z"/><path fill="#a37a8a" d="M.7 4.9 0 4.1l.5-1.7.4.5z"/><path fill="#290612" d="m6.9 4.8.9-1.1 1.8 2-1.3 1.6z"/><path fill="none" stroke="#451700" stroke-linecap="round" stroke-linejoin="round" stroke-opacity=".7" stroke-width="__RESOLUTION__" d="m6.9 4.8 1.4 2.5 1.2-1.6-1.7-2z" vector-effect="non-scaling-stroke"/><path fill="#450b20" d="m6.8 7.9-1.5-.4 1.2-3.3H7l.1 1z"/><path fill="#290612" d="m7 4.2 1 .4L7.3 8l-.5-.2.4-2.7z"/><path fill="none" stroke="#451700" stroke-linecap="round" stroke-linejoin="round" stroke-opacity=".7" stroke-width="__RESOLUTION__" d="m6.8 7.9-1.5-.4 1.2-3.3h.4m.2 0 .9.4L7.3 8l-.5-.2" vector-effect="non-scaling-stroke"/></g><g id="m"><path fill="none" stroke="#212121" stroke-linecap="round" stroke-linejoin="round" stroke-opacity=".5" stroke-width="__RESOLUTION__" d="M6.8 9q1.4-2.5.6-6.5Q6.7 1.4 5.5.8h0Q4.3 0 2.5 0 .8.7.3 1.6-.2 3.6.2 4v2q-.3 1.5.3 2.8 1 1.7 2.9 2" vector-effect="non-scaling-stroke"/><path fill="#45392e" fill-opacity=".3" d="M5.5.7q1.2.7 1.9 1.8.7 4-.7 6.5-.9 1.1-1.5 1.4l-1.8.3q-1.2-.7-.7-3 .5-1 .4-2.4t.2-2.1q.5-.8 2.4-1.2.9-.3-.2-1.3"/><path fill="#d62929" d="M1.5 5.7Q.5 5.5.3 4.2l1.4 1.2q0 .2-.2.3"/></g><g id="w"><path fill="none" stroke="#212121" stroke-linecap="round" stroke-linejoin="round" stroke-opacity=".5" stroke-width="__RESOLUTION__" d="M5.6 8.8q1.3-1.4 1-4.4M6 .8q.5 0 1.7.9l.9 2.5v2.2L8 7.7l-.5 1q-1 1.2-.5 3.8m-4.8-11-1.4.9q-.7.2-.9 2L.2 7Q1 8.6.8 9.7q-.4 1.5 0 2.7" vector-effect="non-scaling-stroke"/><path fill="#26060f" fill-opacity=".7" d="M7.6 8.6Q6.5 9.9 7 12.5q-.4.9-2.2 1l-2.3-.1Q1 10.7 3 8.3q3-2.8 2.3-6 1.9-.7.8-1.5.5 0 1.7.9l.9 2.5v2.2L8 7.7z"/><path fill="#6c3d24" d="m2.9 12.6 1.1.2q1.5.1 2.7-.8.3-.4.2-1.3l.5 2.2-.5.9q-1.4 1-2.4.9l-1.3-.3v-.1z"/><path fill="#88532d" d="m2.9 12.6.3 1.7-.6-.2-.4-.2-.1-.1H2L.9 13l-.3-1.4q1 .7 2.3 1"/><path fill="none" stroke="#562c1d" stroke-linecap="round" stroke-linejoin="round" stroke-width="__RESOLUTION__" d="m3.2 14.3 1.2.4q1 .2 2.4-.9l.5-.9-.4-2.1m-6.3.7L.9 13l1 .8h.2l.2.1.4.3.4.1" vector-effect="non-scaling-stroke"/><path fill="#fedb8b" d="m5.5.9.7-.9.3.2-.3.4.9.4.3-.5.3.2-.7.8z"/><path fill="#ffbf1c" d="m4 4.3 1-.2.2.3-.5.1.6 1 .4-.2.2.3-1.1.3z"/><path fill="#fedb8b" d="m3.3 2.9 1.6.8-.2 1.1-.4-.2.2-.4-.9-.5-.1.6-.3-.2z"/><path fill="#ffbf1c" d="m3.6 3.4.2.4-1.1.3-1-1.6 1.1-.3.3.4-.6.2.6.9z"/><path fill="#fedb8b" d="m1.3 1.5 1.4.8-.5.8-.4-.2.4-.3-.8-.6-.4.5-.3-.2zm6.9.6.3 1.8-.9.6-.1-.4.5-.2-.2-1-.5.2-.1-.4z"/><path fill="#ffbf1c" d="M6.9.7h1l.1.4-.5.1.4 1h.4l.2.3H7.4z"/><path fill="#fedb8b" d="m5.7 6.4-.3-1.2.3-.1.2.7.9-.2-.2-.6H7l.2 1.2z"/><path fill="#ffbf1c" d="M6.9 5.7 7 3.9l1.2.2-.1.4-.4-.2-.4 1 .6.2v.4z"/></g><g id="y"><path fill="#a86537" d="M8.2 1.3 8.1 0l1.3 1.8-1 1.6z"/><path fill="#7d3d11" d="M8.5 3.4 3 3.8 3.6 2l4.6-.7z"/><path fill="#4f260b" d="M3 3.8 0 2.2.3 1l3.3.8z"/><path fill="#ffbf1c" d="M4.9 1.9q1.3-.2 2.7 0h.3q0 1-.3 1.8h-.2l-2.9.1q-.1-.7.3-1.7zM7.1 3l-.2.2H5.8l-.1-.3.2-.1.5-.1H7l.2.2zm-.1.4.2-1.1-1.7.2q-.2.2-.1 1z"/></g><g id="P"><path fill="#925230" d="M6.2 0"/><path fill="none" stroke="#212121" stroke-linecap="round" stroke-linejoin="round" stroke-opacity=".5" stroke-width="__RESOLUTION__" d="M5 .5 3.5.7Q2.3.4.4 1.7 0 2 0 2.8l.2.4.2.1 4.8.3.4-.3 1.2-.9L6.2.1" vector-effect="non-scaling-stroke"/><path fill="#45392e" fill-opacity=".3" d="m6.2 0 .6 2.4-1.2 1-.4.2Q4.6 3 4.9.4z"/></g><g id="R"><path fill="none" stroke="#212121" stroke-linecap="round" stroke-linejoin="round" stroke-opacity=".5" stroke-width="__RESOLUTION__" d="M0 3.8Q.4 1.4 1.2.5T2.7.2q.8 1.6.3 3.2v2l-.7 3.2M.1 8.5q.1-.1 0-1.6L.4 5" vector-effect="non-scaling-stroke"/><path fill="#45392e" fill-opacity=".3" d="M2.7.3q.8 1.6.3 3.2v2l-.7 3.2h-.7q.9-1.5.7-4.2l-1.2.9v.2q-.6 0-.8-.4L0 3.8Q.4 1.4 1.2.7 2-.4 2.7.2"/></g><g id="T"><path fill="none" stroke="#212121" stroke-linecap="round" stroke-linejoin="round" stroke-opacity=".5" stroke-width="__RESOLUTION__" d="m0 7 .9-4.2.9-2.4L2 0m0 7.5 1.1-2.1 1-2.8.4-1.7" vector-effect="non-scaling-stroke"/><path fill="#45392e" fill-opacity=".3" d="m3.5.5 1 .4L4 2.6 3 5.3q-.9 2-1.1 2.1l-1 .2Q2.5 4.8 3.6.5"/></g><g id="V"><path fill="#325772" d="M4.6.4 4.5 0z"/><path fill="none" stroke="#212121" stroke-linecap="round" stroke-linejoin="round" stroke-opacity=".5" stroke-width="__RESOLUTION__" d="m4.5 0 .1.4.5.9v1.4l-1.8.4h-.1L0 2.4l.1-1 .5-.2L1.8.4M0 2.4l.1-1 .5-.2" vector-effect="non-scaling-stroke"/><path fill="#45392e" fill-opacity=".3" d="M3.3 3.1Q2.9 2.5 3 .2L4.5 0 5 1.3v1.4z"/></g><g id="X"><path fill="#755725" d="M0 3.6v-.3l.1.3z"/><path fill="none" stroke="#212121" stroke-linecap="round" stroke-linejoin="round" stroke-opacity=".5" stroke-width="__RESOLUTION__" d="M3.8 2.2 2.8 0m1 2.2q0 .4.4 1l.5 2-.9.8v0l-.5 1.5q-.7.2-1.1-.2v-.5l-1.1-.2-.1-1L0 5V3.2l.3-.7.8-2.3" vector-effect="non-scaling-stroke"/><path fill="#45392e" fill-opacity=".3" d="M3.8 2.2q0 .5.3 1.1l.6 2-1 .8-.5 1.5.1-2.1.5-2zM0 5.2V3.6q.2 1 1 1.2l-.1.8z"/></g><g id="bt" transform="translate(-.05 3.15)"><use xlink:href="#a" width="5.9" height="5.5" transform="translate(.05 -3.15)"/><use xlink:href="#b" width="5.3" height="5.5" transform="translate(.65 -3.15)"/></g><g id="bc" transform="translate(5.55 14.1)"><use xlink:href="#c" width="6.9" height="8" transform="matrix(1 0 .0368 .9816 -5.55 -14.05)"/><use xlink:href="#d" width="9.1" height="13.2" transform="matrix(1 0 .0368 .9816 -5.3 -12.65)"/><use xlink:href="#e" width="9.7" height="16" transform="translate(-5.45 -14.1)"/></g><g id="aG" transform="translate(1.85 .25)"><use xlink:href="#f" width="5.2" height="5.3" transform="matrix(.8679 0 0 1 -1.8 -.25)"/><use xlink:href="#g" width="4.6" height="5.3" transform="translate(-1.85 -.25)"/></g><g id="aF" transform="translate(2.4 1.2)"><use xlink:href="#h" width="3.6" height="8.7" transform="translate(-2.4 -1.15)"/><use xlink:href="#i" width="3.6" height="8.7" transform="translate(-2.4 -1.2)"/></g><g id="aC" transform="translate(4.85 12.2)"><use xlink:href="#j" width="2.6" height="3.6" transform="matrix(1.02 .0442 .0705 1.04 -.05 -12.2)"/><use xlink:href="#k" width="2.5" height="3.2" transform="translate(.3 -12.1)"/><use xlink:href="#l" width="7.7" height="10.3" transform="matrix(1.02 .0442 .0705 1.04 -4.85 -10.9)"/><use xlink:href="#m" width="7.7" height="10.8" transform="translate(-4.35 -10.75)"/><use xlink:href="#n" width="2.7" height="3.9" transform="matrix(1.02 .0442 .0705 1.04 -2.65 -11.5)"/><use xlink:href="#o" width="9.6" height="8.1" transform="translate(-4.6 -11.4)"/></g><g id="aB" transform="translate(3.1 12.7)"><use xlink:href="#p" width="8.7" height="12.8" transform="translate(-3.1 -11.9)"/><use xlink:href="#q" width="5.5" height="6.9" transform="translate(-2.1 -11.95)"/><use xlink:href="#w" width="8.7" height="14.7" transform="translate(-3.1 -12.7)"/></g><g id="aA" transform="translate(3.3 2.15)"><use xlink:href="#x" width="7.3" height="5.3" transform="matrix(.9108 .0906 -.0533 1.03 -2.5 -.85)"/><use xlink:href="#y" width="9.4" height="3.9" transform="translate(-3.3 -2.15)"/></g><g id="az"><use xlink:href="#O" width="6.8" height="3.6"/><use xlink:href="#P" width="6.8" height="3.6"/></g><g id="ax"><use xlink:href="#Q" width="3.1" height="8.7"/><use xlink:href="#R" width="3.1" height="8.7"/></g><g id="aw"><use xlink:href="#S" width="4.5" height="7.6"/><use xlink:href="#T" width="4.5" height="7.5"/></g><g id="au" transform="translate(3.2 .5)"><use xlink:href="#U" width="5.1" height="3.1" transform="translate(-3.15 -.5)"/><use xlink:href="#V" width="5.2" height="3.1" transform="translate(-3.2 -.5)"/></g><g id="at" transform="translate(1.3 -.65)"><use xlink:href="#W" width="4.7" height="7.6" transform="translate(-1.25 .65)"/><use xlink:href="#X" width="4.7" height="7.6" transform="translate(-1.3 .65)"/></g><path id="Y" fill="#260610" d="M3.5-1Q3.3.5 2.4 1.2 1 2.6-.2 2.7q-1 0-1.9-.6-1.1-.8-1.4-2.3l-.1-1.6 7.3-.7z" transform="translate(3.65 2.65)"/><path id="Z" fill="#9e5213" d="M2.4-.5h-.7l.8.4L2 1l-.7.3-.2 1.2H0l-.9.1q-1 .2-1.5-.3-1.3-2 .1-3.6h.2-.1q1-1.7 1.7-1.4l.7.6.3.2.2-.4h.1q1-.2 2.2.4Q3-.4 2.4-.5" transform="translate(2.95 2.75)"/><path id="aa" fill="#450b20" d="M4.6-1.8 4.1-.5q-.6 3-.1 5.3-2 2-4.8 1.8L-3.1 6l.6-1.7q.3-1.3-.7-3t-1.3-2.7q1.1 2 1.9.7.5-2.6-1.5-4.5l.1-.2 1.2-.6q2.2 3 4.4 3.2 1-1.9 0-3.8h.2L3.5-5q1.2 1.5 1 3.2" transform="translate(4.55 6.6)"/><path id="ab" fill="#f28c26" d="m2.9-3.4.2 1-.2-.7Q4-1.2 3 .7.9.5-1.5-2.6l.5-.2.3-.1.4-.4.5-1.4zM-3.3-.1l.5-1.6q2 1.8 1.5 4.5Q-2 4-3.2 2q-.3-1.3-.2-2z" transform="translate(3.45 4.65)"/><path id="ac" fill="#9e5213" d="m2.5-.1.1.1-.2 1 .2.7-1.4.3v.4H-.4l-.3-1 .1.4-.1.8-1.3-.3-.4-1.3q-.2-.6.6-2l.5-1.5 2.6-.2z" transform="translate(2.6 2.65)"/><path id="ad" fill="#f28c26" d="M1.3-3.4q.7 1 .5 3L1 .9.6 2.8.3 4.3H-1l-.6-.2q-.3-2.7-.1-3.4l.6-2q-.3-1.3 1-3 .8-.3 1.4.8" transform="translate(1.8 4.3)"/><path id="ae" fill="#f28c26" d="m.9-1.8.4 2q.2 1.2-.3 1.7H-.6l-.7-.7q0-1.6 2.2-3.1z" transform="translate(1.35 1.95)"/><path id="ag" fill="#f28c26" d="M1.3-1.8V.5l-.1.8q-.1.6-.6.5l-1.2-.2-.7-.5Q-.9-1 1.3-1.8" transform="translate(1.3 1.8)"/><path id="ah" fill="#9e5213" d="M2.4-3.4q1 .8-.8 1.6-2.4 0-3-.9 2.3-.8 3.8-.7m-4.3 1.8Q.7-.1.7 2.5.4 4.1-1.5 3-3.8-.1-2-1.6" transform="translate(2.7 3.45)"/><path id="ak" fill="#9e5213" d="M2.8-1.8 3.4.6l-1.2 1-.4.2-4.8-.2-.2-.2-.2-.4q0-.7.4-1.1 1.9-1.3 3.1-1l1.5-.2z" transform="translate(3.4 1.8)"/><path id="al" fill="#f28c26" d="M1.5-.9v2L.8 4.3H-.6l-.8-.1V2.5l.1-1.7-.2-1.4q.3-2.3 1.1-3.1t1.6-.4q.7 1.6.3 3.2" transform="translate(1.55 4.3)"/><path id="am" fill="#f28c26" d="m2.3-2.9-.4 1.8-1 2.7-1.1 2-1 .2-1-.5.9-4.3.9-2.4.1-.4z" transform="translate(2.25 3.8)"/><path id="an" fill="#9e5213" d="M2.5-.3v1.5l-1.8.4H.6L-2.5.7v-1l.5-.1 1.2-.8 2.7-.4z" transform="translate(2.55 1.55)"/><path id="b" fill="none" stroke="#1c1c1c" stroke-linecap="round" stroke-linejoin="round" stroke-opacity=".5" stroke-width="__RESOLUTION__" d="m4-.7.7-.2h.7q.7.2.6-1.3-1.1-.7-2.2-.5h-.1l-.2.4-.3-.3-.7-.5Q1.8-3.3.9-1.7h0q.9.9 2.2 1.4m.6 1 .7.2.7-.3.4-1.1-.8-.4M.7 2q.6.5 1.5.3l.9-.1v0h1q.4-.6.3-1.2" transform="translate(-.65 3.15)" vector-effect="non-scaling-stroke"/><path id="ap" fill="none" stroke="#000" stroke-linecap="round" stroke-linejoin="round" stroke-width="1" d="m-2.1 4.2 2-4.2 2.3 4.4" transform="translate(2.65 .5)"/><path id="k" fill="none" stroke="#212121" stroke-linecap="round" stroke-linejoin="round" stroke-opacity=".5" stroke-width="__RESOLUTION__" d="M2.8-8.9v-.8l-.2-1.8v-.6Q.8-11.5.3-9.9" transform="translate(-.3 12.1)" vector-effect="non-scaling-stroke"/><path id="bi" fill="none" stroke="#fff" stroke-linecap="round" stroke-linejoin="round" stroke-width="__RESOLUTION__" d="m-32.3-30.1.2 3.6m.7 3.9q1.2 4.2 3.9 8" transform="translate(32.3 30.1)" vector-effect="non-scaling-stroke"/><path id="bf" fill="none" stroke="#fff" stroke-linecap="round" stroke-linejoin="round" stroke-width="__RESOLUTION__" d="M-15.3-55.1q-2.1.8-4 2M-26-47q-5 6.2-6 14.2-1.4 10 4.5 18.2" transform="translate(32.3 55.15)" vector-effect="non-scaling-stroke"/><path id="bd" fill="none" stroke="#fff" stroke-linecap="round" stroke-linejoin="round" stroke-width="__RESOLUTION__" d="m9.4-49.7-3-2.5m-8-3.8q-3.5-1-7.2-.7-8.7.7-15.4 7.7-4.3 4.5-6.3 9.9" transform="translate(30.5 56.75)" vector-effect="non-scaling-stroke"/><path id="aD" fill="none" stroke="#000" stroke-linecap="round" stroke-linejoin="round" stroke-width="1" d="M-.4.8Q.8-2.3 2.3-.8 3.7.6 4 4.4q.2 4.6 2.5 5.8 2.4 1.2 4.6-2.6" transform="translate(.95 1.8)"/><use xlink:href="#Y" id="aj" width="7.3" height="5.3"/><use xlink:href="#Z" id="a" width="5.9" height="5.5"/><use xlink:href="#aa" id="d" width="9.1" height="13.2"/><use xlink:href="#ab" id="c" width="6.9" height="8"/><use xlink:href="#ac" id="f" width="5.2" height="5.3"/><use xlink:href="#ad" id="h" width="3.6" height="8.7"/><use xlink:href="#ae" id="n" width="2.7" height="3.9"/><use xlink:href="#af" id="l" width="7.7" height="10.3"/><use xlink:href="#ag" id="j" width="2.6" height="3.6"/><use xlink:href="#ah" id="q" width="5.5" height="6.9"/><use xlink:href="#ai" id="p" width="8.7" height="12.8"/><use xlink:href="#aj" id="x" width="7.3" height="5.3"/><use xlink:href="#ak" id="O" width="6.8" height="3.6"/><use xlink:href="#al" id="Q" width="3.1" height="8.7"/><use xlink:href="#am" id="S" width="4.5" height="7.6"/><use xlink:href="#an" id="U" width="5.1" height="3.1"/><use xlink:href="#ao" id="W" width="4.7" height="7.6"/><use xlink:href="#ap" id="aE" width="5.3" height="5.3"/><use xlink:href="#aq" id="ay" width="6.5" height="11.9"/><use xlink:href="#ar" id="av" width="4.3" height="7.7"/></defs><g clip-path="url(#as)"><g transform="translate(33.3 57.75)"><use xlink:href="#at" width="4.7" height="7.6" transform="matrix(.6564 -.4299 .5158 .4271 8.05 -16.5)"/><use xlink:href="#au" width="5.2" height="3.1" transform="matrix(1 0 .1505 1 7.25 -.95)"/><use xlink:href="#av" width="4.3" height="7.7" transform="matrix(-.8903 .4203 .4546 .9283 8.9 -7.8)"/><use xlink:href="#aw" width="4.5" height="7.6" transform="matrix(.0344 -.9957 .9927 .0865 3.3 -17)"/><use xlink:href="#ax" width="3.1" height="8.7" transform="rotate(-39.124 -36.547 -11.323)scale(.9967)"/><use xlink:href="#ay" width="6.5" height="11.9" transform="matrix(-.8579 .4414 .5319 .8243 4.3 -15.25)"/><use xlink:href="#az" width="6.8" height="3.6" transform="matrix(.9402 .0901 .0159 1 -7.75 -3.45)"/><use xlink:href="#av" width="4.3" height="7.7" transform="matrix(-.9416 .3474 .3765 1.0285 -4.5 -9.7)"/><use xlink:href="#ay" width="6.5" height="11.9" transform="matrix(.7467 .7162 -.6388 .6554 -3.2 -15.4)"/><use xlink:href="#aA" width="9.4" height="7.4" transform="matrix(1.0605 -.1064 .0728 1 -4.65 -16.15)"/><use xlink:href="#aB" width="8.7" height="14.7" transform="matrix(.8785 -.2019 .0575 1.0348 -4.55 -26.2)"/><use xlink:href="#aC" width="9.8" height="12.3" transform="translate(-9.05 -37.3)"/><use xlink:href="#aD" width="12.5" height="12.8" transform="rotate(-29.083 -26.868 -9.438)scale(.9986)"/><use xlink:href="#aE" width="5.3" height="5.3" transform="rotate(-23.457 -27.704 -37.782)scale(.8215)"/><use xlink:href="#aF" width="3.6" height="8.7" transform="matrix(.9681 -.2292 .3374 .9359 -5.05 -23.15)"/><use xlink:href="#aw" width="4.5" height="7.6" transform="matrix(.9436 .312 -.3611 .9261 -3.65 -18.35)"/><use xlink:href="#aG" width="4.6" height="5.3" transform="matrix(.7137 .6926 -.5903 .813 -6 -15.6)"/></g></g><g clip-path="url(#aH)"><g transform="translate(87.3 57.75)"><use xlink:href="#at" width="4.7" height="7.6" transform="matrix(.6007 -.502 .5615 .3623 8.85 -17.55)"/><use xlink:href="#au" width="5.2" height="3.1" transform="matrix(1 0 .1505 1 7.25 -.95)"/><use xlink:href="#av" width="4.3" height="7.7" transform="matrix(-.8903 .4203 .4546 .9283 8.9 -7.8)"/><use xlink:href="#aw" width="4.5" height="7.6" transform="matrix(-.0826 -.992 1.0236 -.0851 4.05 -17.15)"/><use xlink:href="#ax" width="3.1" height="8.7" transform="rotate(-40.339 -35.129 -11.822)scale(.9946)"/><use xlink:href="#ay" width="6.5" height="11.9" transform="matrix(-.8579 .4414 .5319 .8243 4.3 -15.25)"/><use xlink:href="#az" width="6.8" height="3.6" transform="matrix(.9402 .0901 .0159 1 -7.75 -3.45)"/><use xlink:href="#av" width="4.3" height="7.7" transform="matrix(-.9416 .3474 .3765 1.0285 -4.5 -9.7)"/><use xlink:href="#ay" width="6.5" height="11.9" transform="matrix(.7467 .7162 -.6388 .6554 -3.2 -15.4)"/><use xlink:href="#aA" width="9.4" height="7.4" transform="matrix(1.0605 -.1064 .0728 1 -4.65 -16.15)"/><use xlink:href="#aB" width="8.7" height="14.7" transform="matrix(.9008 -.1267 .0139 1.031 -3.8 -26.6)"/><use xlink:href="#aC" width="9.8" height="12.3" transform="rotate(3.045 702.632 -159.863)scale(.9996)"/><use xlink:href="#aD" width="12.5" height="12.8" transform="matrix(.8013 -.6057 .593 .7919 1.05 -14)"/><use xlink:href="#aE" width="5.3" height="5.3" transform="matrix(.7038 -.4321 .4209 .6971 12.45 -15.6)"/><use xlink:href="#aF" width="3.6" height="8.7" transform="matrix(.9937 .0046 .1047 .9878 -3.95 -24.1)"/><use xlink:href="#aw" width="4.5" height="7.6" transform="matrix(.8785 .4582 -.5037 .8533 -3.95 -19.35)"/><use xlink:href="#aG" width="4.6" height="5.3" transform="matrix(.5771 .8059 -.722 .6937 -6.6 -16.8)"/></g></g><g clip-path="url(#aI)"><g transform="translate(141.3 57.75)"><use xlink:href="#at" width="4.7" height="7.6" transform="matrix(.535 -.5708 .6001 .2934 9.8 -18.7)"/><use xlink:href="#au" width="5.2" height="3.1" transform="matrix(1 0 .1505 1 7.25 -.95)"/><use xlink:href="#av" width="4.3" height="7.7" transform="matrix(-.8903 .4203 .4546 .9283 8.9 -7.8)"/><use xlink:href="#aw" width="4.5" height="7.6" transform="matrix(-.1987 -.9743 1.0238 -.2651 4.95 -17.2)"/><use xlink:href="#ax" width="3.1" height="8.7" transform="matrix(.746 -.6573 .6573 .746 -.35 -25.55)"/><use xlink:href="#ay" width="6.5" height="11.9" transform="matrix(-.8579 .4414 .5319 .8243 4.3 -15.25)"/><use xlink:href="#az" width="6.8" height="3.6" transform="matrix(.9402 .0901 .0159 1 -7.75 -3.45)"/><use xlink:href="#av" width="4.3" height="7.7" transform="matrix(-.9416 .3474 .3765 1.0285 -4.5 -9.7)"/><use xlink:href="#ay" width="6.5" height="11.9" transform="matrix(.7467 .7162 -.6388 .6554 -3.2 -15.4)"/><use xlink:href="#aA" width="9.4" height="7.4" transform="matrix(1.0605 -.1064 .0728 1 -4.65 -16.15)"/><use xlink:href="#aB" width="8.7" height="14.7" transform="matrix(.9173 -.0485 -.0269 1.0254 -3.2 -26.9)"/><use xlink:href="#aC" width="9.8" height="12.3" transform="rotate(6.28 341.632 -72.224)scale(.9993)"/><use xlink:href="#aD" width="12.5" height="12.8" transform="matrix(.7141 -.7169 .6892 .699 1 -13.8)"/><use xlink:href="#aE" width="5.3" height="5.3" transform="matrix(.6402 -.5306 .5066 .63 12.1 -17)"/><use xlink:href="#aF" width="3.6" height="8.7" transform="matrix(.9632 .2367 -.1261 .9842 -2.95 -24.85)"/><use xlink:href="#aw" width="4.5" height="7.6" transform="matrix(.7937 .5899 -.6308 .7617 -4.05 -20.35)"/><use xlink:href="#aG" width="4.6" height="5.3" transform="matrix(.4235 .8946 -.8327 .5529 -7.25 -17.9)"/></g></g><g clip-path="url(#aJ)"><g transform="translate(195.3 57.75)"><use xlink:href="#at" width="4.7" height="7.6" transform="matrix(.4654 -.6298 .6308 .221 10.5 -19.8)"/><use xlink:href="#au" width="5.2" height="3.1" transform="matrix(1 0 .1505 1 7.25 -.95)"/><use xlink:href="#av" width="4.3" height="7.7" transform="matrix(-.8903 .4203 .4546 .9283 8.9 -7.8)"/><use xlink:href="#aw" width="4.5" height="7.6" transform="matrix(-.3128 -.9439 .9931 -.4477 5.75 -17.3)"/><use xlink:href="#ax" width="3.1" height="8.7" transform="rotate(-42.626 -32.833 -12.736)scale(.9954)"/><use xlink:href="#ay" width="6.5" height="11.9" transform="matrix(-.8579 .4414 .5608 .8692 4.3 -15.3)"/><use xlink:href="#az" width="6.8" height="3.6" transform="matrix(.9402 .0901 .0159 1 -7.75 -3.45)"/><use xlink:href="#av" width="4.3" height="7.7" transform="matrix(-.9416 .3474 .3765 1.0285 -4.5 -9.7)"/><use xlink:href="#ay" width="6.5" height="11.9" transform="matrix(.7467 .7162 -.6388 .6554 -3.2 -15.4)"/><use xlink:href="#aA" width="9.4" height="7.4" transform="matrix(1.0605 -.1064 .0728 1 -4.65 -16.15)"/><use xlink:href="#aB" width="8.7" height="14.7" transform="matrix(.9269 .0297 -.0688 1.0182 -2.5 -27.2)"/><use xlink:href="#aC" width="9.8" height="12.3" transform="rotate(9.525 225.944 -44.205)scale(.9995)"/><use xlink:href="#aD" width="12.5" height="12.8" transform="matrix(.6135 -.8161 .7711 .5976 .95 -13.45)"/><use xlink:href="#aE" width="5.3" height="5.3" transform="matrix(.5644 -.62 .5818 .555 11.45 -18.3)"/><use xlink:href="#aF" width="3.6" height="8.7" transform="matrix(.8789 .4588 -.3564 .9252 -1.65 -25.6)"/><use xlink:href="#aw" width="4.5" height="7.6" transform="matrix(.6878 .7104 -.7455 .6497 -4.2 -21.3)"/><use xlink:href="#aG" width="4.6" height="5.3" transform="matrix(.2603 .9544 -.9171 .3971 -7.85 -18.95)"/></g></g><g clip-path="url(#aK)"><g transform="translate(249.3 57.75)"><use xlink:href="#at" width="4.7" height="7.6" transform="matrix(.3467 -.7006 .659 .1075 11.95 -21.4)"/><use xlink:href="#au" width="5.2" height="3.1" transform="matrix(1 0 .1497 .9996 7.3 -.95)"/><use xlink:href="#av" width="4.3" height="7.7" transform="matrix(-.8903 .4203 .4546 .9283 8.9 -7.8)"/><use xlink:href="#aw" width="4.5" height="7.6" transform="matrix(-.4709 -.8737 .8978 -.613 7.85 -18.25)"/><use xlink:href="#ax" width="3.1" height="8.7" transform="matrix(.6025 -.7898 .7898 .6025 .85 -25.3)"/><use xlink:href="#ay" width="6.5" height="11.9" transform="matrix(-.8746 .404 .5216 .8914 4.45 -15.3)"/><use xlink:href="#az" width="6.8" height="3.6" transform="matrix(.9402 .0901 .0159 1 -7.75 -3.45)"/><use xlink:href="#av" width="4.3" height="7.7" transform="matrix(-.9404 .3474 .3093 1.0085 -4.05 -9.5)"/><use xlink:href="#ay" width="6.5" height="11.9" transform="matrix(.7449 .7157 -.6386 .6534 -2.65 -15.45)"/><use xlink:href="#aA" width="9.4" height="7.4" transform="matrix(1.0583 -.0557 .0179 1.0084 -4.2 -16.45)"/><use xlink:href="#aB" width="8.7" height="14.7" transform="matrix(.9317 .0533 -.0939 1.0159 -1.75 -27.3)"/><use xlink:href="#aC" width="9.8" height="12.3" transform="rotate(9.513 227.865 -39.23)scale(.999)"/><use xlink:href="#aD" width="12.5" height="12.8" transform="matrix(.6687 -.701 .7103 .7012 .95 -13.7)"/><use xlink:href="#aE" width="5.3" height="5.3" transform="matrix(.6047 -.5174 .5276 .6305 11.7 -16.8)"/><use xlink:href="#aF" width="3.6" height="8.7" transform="matrix(.8194 .5548 -.4583 .8773 -1 -25.7)"/><use xlink:href="#aw" width="4.5" height="7.6" transform="matrix(.557 .8146 -.8429 .5136 -4.1 -21.55)"/><use xlink:href="#aG" width="4.6" height="5.3" transform="matrix(.0954 .9839 -.9694 .2377 -7.9 -19.9)"/></g></g><g clip-path="url(#aL)"><g transform="translate(303.3 57.75)"><use xlink:href="#at" width="4.7" height="7.6" transform="matrix(.2194 -.7502 .6677 -.0088 13.35 -23.25)"/><use xlink:href="#au" width="5.2" height="3.1" transform="matrix(1 0 .1497 .9996 7.3 -.95)"/><use xlink:href="#av" width="4.3" height="7.7" transform="matrix(-.8903 .4203 .4546 .9283 8.9 -7.8)"/><use xlink:href="#aw" width="4.5" height="7.6" transform="matrix(-.6156 -.7777 .7768 -.7597 9.8 -19.25)"/><use xlink:href="#ax" width="3.1" height="8.7" transform="matrix(.4556 -.8825 .8825 .4556 1.75 -25)"/><use xlink:href="#ay" width="6.5" height="11.9" transform="matrix(-.8913 .3656 .4824 .9131 4.55 -15.3)"/><use xlink:href="#az" width="6.8" height="3.6" transform="matrix(.9402 .0901 .0159 1 -7.75 -3.45)"/><use xlink:href="#av" width="4.3" height="7.7" transform="matrix(-.9404 .3474 .2467 .9853 -3.65 -9.25)"/><use xlink:href="#ay" width="6.5" height="11.9" transform="matrix(.7449 .7157 -.6386 .6534 -2.1 -15.55)"/><use xlink:href="#aA" width="9.4" height="7.4" transform="matrix(1.054 -.0052 -.0356 1.0139 -3.65 -16.65)"/><use xlink:href="#aB" width="8.7" height="14.7" transform="matrix(.9358 .0782 -.1205 1.0129 -1.1 -27.6)"/><use xlink:href="#aC" width="9.8" height="12.3" transform="rotate(9.513 229.817 -33.947)scale(.999)"/><use xlink:href="#aD" width="12.5" height="12.8" transform="matrix(.7098 -.5825 .6347 .8014 1.1 -14)"/><use xlink:href="#aE" width="5.3" height="5.3" transform="matrix(.6322 -.4123 .4624 .703 11.85 -15.3)"/><use xlink:href="#aF" width="3.6" height="8.7" transform="matrix(.7483 .6468 -.5577 .8171 -.45 -25.65)"/><use xlink:href="#aw" width="4.5" height="7.6" transform="matrix(.414 .8955 -.9163 .3666 -4 -21.85)"/><use xlink:href="#aG" width="4.6" height="5.3" transform="matrix(-.0655 .986 -.9957 .0706 -7.9 -20.75)"/></g></g><g clip-path="url(#aM)"><g transform="translate(357.3 57.75)"><use xlink:href="#at" width="4.7" height="7.6" transform="matrix(.0867 -.7771 .6556 -.125 14.7 -24.95)"/><use xlink:href="#au" width="5.2" height="3.1" transform="matrix(1 0 .1505 1 7.25 -.95)"/><use xlink:href="#av" width="4.3" height="7.7" transform="matrix(-.8631 .4863 .4937 .9002 8.25 -7.85)"/><use xlink:href="#aw" width="4.5" height="7.6" transform="matrix(-.743 -.6588 .6337 -.8841 11.85 -20.45)"/><use xlink:href="#ax" width="3.1" height="8.7" transform="rotate(-72.724 -15.4 -14.218)scale(.994)"/><use xlink:href="#ay" width="6.5" height="11.9" transform="matrix(-.9066 .3288 .4458 .9329 4.7 -15.4)"/><use xlink:href="#az" width="6.8" height="3.6" transform="matrix(.9402 .0901 .0159 1 -7.75 -3.45)"/><use xlink:href="#av" width="4.3" height="7.7" transform="matrix(-.9416 .3474 .19 .9585 -3.1 -9.1)"/><use xlink:href="#ay" width="6.5" height="11.9" transform="matrix(.7467 .7162 -.6388 .6554 -1.55 -15.6)"/><use xlink:href="#aA" width="9.4" height="7.4" transform="matrix(1.0472 .0419 -.0918 1.0165 -3.15 -16.9)"/><use xlink:href="#aB" width="8.7" height="14.7" transform="matrix(.9395 .1047 -.1489 1.0094 -.35 -27.7)"/><use xlink:href="#aC" width="9.8" height="12.3" transform="rotate(9.525 231.144 -28.927)scale(.9995)"/><use xlink:href="#aD" width="12.5" height="12.8" transform="matrix(.7317 -.4689 .5493 .8926 1.2 -14.3)"/><use xlink:href="#aE" width="5.3" height="5.3" transform="matrix(.6433 -.3119 .3907 .7685 11.7 -13.95)"/><use xlink:href="#aF" width="3.6" height="8.7" transform="matrix(.6707 .7287 -.6481 .7489 .2 -25.55)"/><use xlink:href="#aw" width="4.5" height="7.6" transform="matrix(.2601 .9525 -.965 .2099 -3.9 -22)"/><use xlink:href="#aG" width="4.6" height="5.3" transform="matrix(-.2314 .9604 -.9935 -.0938 -7.85 -21.6)"/></g></g><g clip-path="url(#aN)"><g transform="translate(411.3 57.75)"><use xlink:href="#at" width="4.7" height="7.6" transform="matrix(.0377 -.7804 .6458 -.1643 13.9 -26.75)"/><use xlink:href="#au" width="5.2" height="3.1" transform="matrix(1 0 .1497 .9995 7.3 -.95)"/><use xlink:href="#av" width="4.3" height="7.7" transform="matrix(-.8631 .4863 .4937 .9002 8.25 -7.85)"/><use xlink:href="#aw" width="4.5" height="7.6" transform="matrix(-.8278 -.5442 .4981 -.9644 12.1 -22.05)"/><use xlink:href="#ax" width="3.1" height="8.7" transform="rotate(-85.229 -11.867 -13.878)scale(.993)"/><use xlink:href="#ay" width="6.5" height="11.9" transform="matrix(-.9129 .3068 .4169 .9227 5.05 -15.3)"/><use xlink:href="#az" width="6.8" height="3.6" transform="matrix(.9402 .0901 .0159 1 -7.75 -3.45)"/><use xlink:href="#av" width="4.3" height="7.7" transform="matrix(-.9552 .2972 .1621 .9619 -2.9 -9)"/><use xlink:href="#ay" width="6.5" height="11.9" transform="matrix(.7503 .709 -.6328 .6582 -1.55 -15.75)"/><use xlink:href="#aA" width="9.4" height="7.4" transform="matrix(1.0478 .0092 -.0586 1.0186 -3.2 -16.9)"/><use xlink:href="#aB" width="8.7" height="14.7" transform="matrix(.9097 .0923 -.1764 1.0257 .05 -27.8)"/><use xlink:href="#aC" width="9.8" height="12.3" transform="rotate(5.044 431.048 -52.54)scale(.9987)"/><use xlink:href="#aD" width="12.5" height="12.8" transform="matrix(.802 -.3166 .3917 .979 1.4 -14.65)"/><use xlink:href="#aE" width="5.3" height="5.3" transform="matrix(.6881 -.1803 .2561 .8271 11.65 -12.3)"/><use xlink:href="#aF" width="3.6" height="8.7" transform="matrix(.6235 .7665 -.67 .7352 .7 -25.4)"/><use xlink:href="#aw" width="4.5" height="7.6" transform="matrix(.2596 .9508 -.9635 .2095 -3.7 -22)"/><use xlink:href="#aG" width="4.6" height="5.3" transform="matrix(-.2972 .9529 -.9726 -.1373 -7.25 -21.65)"/></g></g><g clip-path="url(#aO)"><g transform="translate(465.3 57.75)"><use xlink:href="#at" width="4.7" height="7.6" transform="matrix(-.0076 -.7809 .6338 -.2033 13.1 -28.45)"/><use xlink:href="#au" width="5.2" height="3.1" transform="matrix(1 0 .1496 .9993 7.3 -.95)"/><use xlink:href="#av" width="4.3" height="7.7" transform="matrix(-.8631 .4863 .4937 .9002 8.25 -7.85)"/><use xlink:href="#aw" width="4.5" height="7.6" transform="matrix(-.8969 -.4191 .3539 -1.0257 12.35 -23.8)"/><use xlink:href="#ax" width="3.1" height="8.7" transform="rotate(-97.535 -9.036 -13.74)scale(.9922)"/><use xlink:href="#ay" width="6.5" height="11.9" transform="matrix(-.9181 .2898 .389 .913 5.25 -15.2)"/><use xlink:href="#az" width="6.8" height="3.6" transform="matrix(.9402 .0901 .0159 1 -7.75 -3.45)"/><use xlink:href="#av" width="4.3" height="7.7" transform="matrix(-.9673 .2465 .14 .9643 -2.7 -8.8)"/><use xlink:href="#ay" width="6.5" height="11.9" transform="matrix(.7533 .7047 -.6269 .6629 -1.5 -15.9)"/><use xlink:href="#aA" width="9.4" height="7.4" transform="matrix(1.0474 -.0194 -.0275 1.02 -3.2 -16.85)"/><use xlink:href="#aB" width="8.7" height="14.7" transform="matrix(.8799 .0818 -.2034 1.042 .45 -28.05)"/><use xlink:href="#aC" width="9.8" height="12.3" transform="rotate(.77 2787.696 -342.782)scale(.9983)"/><use xlink:href="#aD" width="12.5" height="12.8" transform="matrix(.843 -.1535 .2217 1.0392 1.7 -14.9)"/><use xlink:href="#aE" width="5.3" height="5.3" transform="matrix(.7081 -.0419 .1135 .8632 11.45 -10.55)"/><use xlink:href="#aF" width="3.6" height="8.7" transform="matrix(.5779 .8007 -.6906 .7242 1.15 -25.4)"/><use xlink:href="#aw" width="4.5" height="7.6" transform="matrix(.2594 .9498 -.9625 .2094 -3.4 -22.1)"/><use xlink:href="#aG" width="4.6" height="5.3" transform="matrix(-.3668 .9401 -.9497 -.1808 -6.55 -21.8)"/></g></g><g clip-path="url(#aP)"><g transform="translate(519.3 57.75)"><use xlink:href="#at" width="4.7" height="7.6" transform="matrix(-.058 -.7784 .6201 -.2421 12.25 -30.25)"/><use xlink:href="#au" width="5.2" height="3.1" transform="matrix(1 0 .1497 .9996 7.3 -.95)"/><use xlink:href="#av" width="4.3" height="7.7" transform="matrix(-.8625 .4846 .4925 .8994 8.3 -7.85)"/><use xlink:href="#aw" width="4.5" height="7.6" transform="matrix(-.9482 -.286 .2032 -1.0661 12.5 -25.6)"/><use xlink:href="#ax" width="3.1" height="8.7" transform="rotate(249.935 -6.64 -13.486)scale(.9919)"/><use xlink:href="#ay" width="6.5" height="11.9" transform="matrix(-.9246 .2704 .3651 .9023 5.5 -15.15)"/><use xlink:href="#az" width="6.8" height="3.6" transform="matrix(.9402 .0901 .0159 1 -7.75 -3.45)"/><use xlink:href="#av" width="4.3" height="7.7" transform="matrix(-.9769 .1979 .1153 .9668 -2.5 -8.8)"/><use xlink:href="#ay" width="6.5" height="11.9" transform="matrix(.7599 .6991 -.6241 .6668 -1.35 -15.95)"/><use xlink:href="#aA" width="9.4" height="7.4" transform="matrix(1.0461 -.0551 .0009 1.0203 -3.2 -16.8)"/><use xlink:href="#aB" width="8.7" height="14.7" transform="matrix(.85 .0752 -.2351 1.0576 1 -28.2)"/><use xlink:href="#aC" width="9.8" height="12.3" transform="rotate(-3.54 -598.297 71.414)scale(.9978)"/><use xlink:href="#aD" width="12.5" height="12.8" transform="matrix(.8515 .0078 .0428 1.07 2 -15.15)"/><use xlink:href="#aE" width="5.3" height="5.3" transform="matrix(.7006 .0926 -.0336 .8754 10.85 -9)"/><use xlink:href="#aF" width="3.6" height="8.7" transform="matrix(.5289 .8349 -.7146 .7115 1.65 -25.45)"/><use xlink:href="#aw" width="4.5" height="7.6" transform="matrix(.2599 .9495 -.9622 .2099 -3.1 -22.15)"/><use xlink:href="#aG" width="4.6" height="5.3" transform="matrix(-.4371 .9231 -.9256 -.2232 -5.8 -21.85)"/></g></g><g clip-path="url(#aQ)"><g transform="translate(573.3 57.75)"><use xlink:href="#at" width="4.7" height="7.6" transform="matrix(-.2417 -.7408 .532 -.4205 12.65 -30.55)"/><use xlink:href="#au" width="5.2" height="3.1" transform="matrix(1 0 .1495 .9992 7.3 -.95)"/><use xlink:href="#av" width="4.3" height="7.7" transform="matrix(-.8625 .4846 .4925 .8994 8.3 -7.85)"/><use xlink:href="#aw" width="4.5" height="7.6" transform="matrix(-.9533 -.2654 .1799 -1.0697 12.55 -25.85)"/><use xlink:href="#ax" width="3.1" height="8.7" transform="rotate(248.217 -6.329 -13.437)scale(.9909)"/><use xlink:href="#ay" width="6.5" height="11.9" transform="matrix(-.925 .2662 .3602 .9003 5.65 -15.15)"/><use xlink:href="#az" width="6.8" height="3.6" transform="matrix(.9402 .0901 .0159 1 -7.75 -3.45)"/><use xlink:href="#av" width="4.3" height="7.7" transform="matrix(-.9777 .1905 .1107 .9668 -2.5 -8.7)"/><use xlink:href="#ay" width="6.5" height="11.9" transform="matrix(.7589 .6979 -.6231 .6658 -1.4 -16)"/><use xlink:href="#aA" width="9.4" height="7.4" transform="matrix(1.0456 -.0594 .0047 1.0203 -3.2 -16.8)"/><use xlink:href="#aB" width="8.7" height="14.7" transform="matrix(.8556 .0645 -.2266 1.0605 1 -28.25)"/><use xlink:href="#aC" width="9.8" height="12.3" transform="rotate(-4.041 -522.988 62.434)scale(.9976)"/><use xlink:href="#aD" width="12.5" height="12.8" transform="matrix(.8281 .1692 -.1365 1.0695 2.3 -15.3)"/><use xlink:href="#aE" width="5.3" height="5.3" transform="matrix(.6669 .2247 -.1785 .862 9.85 -7.55)"/><use xlink:href="#aF" width="3.6" height="8.7" transform="matrix(.5207 .8385 -.7171 .708 1.7 -25.4)"/><use xlink:href="#aw" width="4.5" height="7.6" transform="matrix(.2593 .9488 -.9616 .2092 -3.05 -22.15)"/><use xlink:href="#aG" width="4.6" height="5.3" transform="matrix(-.445 .9198 -.9219 -.2266 -5.7 -21.85)"/></g></g><g clip-path="url(#aR)"><g transform="translate(627.3 57.75)"><use xlink:href="#at" width="4.7" height="7.6" transform="matrix(-.4135 -.6594 .395 -.5677 13 -30.95)"/><use xlink:href="#au" width="5.2" height="3.1" transform="matrix(1 0 .1495 .9993 7.3 -.95)"/><use xlink:href="#av" width="4.3" height="7.7" transform="matrix(-.8625 .4846 .4925 .8994 8.3 -7.85)"/><use xlink:href="#aw" width="4.5" height="7.6" transform="matrix(-.958 -.2482 .1607 -1.0727 12.6 -26.1)"/><use xlink:href="#ax" width="3.1" height="8.7" transform="rotate(246.659 -6.056 -13.457)scale(.9909)"/><use xlink:href="#ay" width="6.5" height="11.9" transform="matrix(-.9262 .2625 .3557 .8993 5.7 -15.1)"/><use xlink:href="#az" width="6.8" height="3.6" transform="matrix(.9402 .0901 .0159 1 -7.75 -3.45)"/><use xlink:href="#av" width="4.3" height="7.7" transform="matrix(-.9792 .1825 .1067 .967 -2.4 -8.75)"/><use xlink:href="#ay" width="6.5" height="11.9" transform="matrix(.7592 .6978 -.6208 .6681 -1.4 -16)"/><use xlink:href="#aA" width="9.4" height="7.4" transform="matrix(1.0453 -.064 .0092 1.0202 -3.15 -16.8)"/><use xlink:href="#aB" width="8.7" height="14.7" transform="matrix(.8609 .057 -.222 1.0632 1 -28.25)"/><use xlink:href="#aC" width="9.8" height="12.3" transform="rotate(-4.756 -444.245 53.314)scale(.9974)"/><use xlink:href="#aD" width="12.5" height="12.8" transform="matrix(.7746 .3248 -.3186 1.0385 2.75 -15.35)"/><use xlink:href="#aE" width="5.3" height="5.3" transform="matrix(.6085 .3496 -.3232 .824 8.7 -6.2)"/><use xlink:href="#aF" width="3.6" height="8.7" transform="matrix(.5135 .843 -.7207 .7058 1.9 -25.4)"/><use xlink:href="#aw" width="4.5" height="7.6" transform="matrix(.2593 .9487 -.9615 .2093 -2.95 -22.2)"/><use xlink:href="#aG" width="4.6" height="5.3" transform="matrix(-.4541 .9172 -.9181 -.2337 -5.6 -21.95)"/></g></g><g clip-path="url(#aS)"><g transform="translate(681.3 57.75)"><use xlink:href="#at" width="4.7" height="7.6" transform="matrix(-.5612 -.5402 .2171 -.672 13.3 -31.3)"/><use xlink:href="#au" width="5.2" height="3.1" transform="matrix(1 0 .1496 .9993 7.3 -.95)"/><use xlink:href="#av" width="4.3" height="7.7" transform="matrix(-.8625 .4846 .4925 .8994 8.3 -7.85)"/><use xlink:href="#aw" width="4.5" height="7.6" transform="matrix(-.9632 -.2277 .1379 -1.0759 12.6 -26.35)"/><use xlink:href="#ax" width="3.1" height="8.7" transform="rotate(244.914 -5.803 -13.374)scale(.9909)"/><use xlink:href="#ay" width="6.5" height="11.9" transform="matrix(-.9264 .2619 .3541 .8971 5.7 -15.15)"/><use xlink:href="#az" width="6.8" height="3.6" transform="matrix(.9402 .0901 .0159 1 -7.75 -3.45)"/><use xlink:href="#av" width="4.3" height="7.7" transform="matrix(-.9801 .1777 .1027 .9673 -2.45 -8.7)"/><use xlink:href="#ay" width="6.5" height="11.9" transform="matrix(.7617 .6952 -.6207 .6684 -1.3 -16.05)"/><use xlink:href="#aA" width="9.4" height="7.4" transform="matrix(1.0451 -.0686 .0137 1.0201 -3.2 -16.8)"/><use xlink:href="#aB" width="8.7" height="14.7" transform="matrix(.8663 .0495 -.2174 1.0659 1 -28.3)"/><use xlink:href="#aC" width="9.8" height="12.3" transform="rotate(-5.281 -398.727 47.339)scale(.9973)"/><use xlink:href="#aD" width="12.5" height="12.8" transform="matrix(.7452 .3845 -.3983 1.009 2.95 -15.35)"/><use xlink:href="#aE" width="5.3" height="5.3" transform="matrix(.578 .3961 -.3862 .7951 8.2 -5.7)"/><use xlink:href="#aF" width="3.6" height="8.7" transform="matrix(.5064 .8475 -.7221 .7059 1.95 -25.45)"/><use xlink:href="#aw" width="4.5" height="7.6" transform="matrix(.2594 .9487 -.9614 .2094 -2.9 -22.2)"/><use xlink:href="#aG" width="4.6" height="5.3" transform="matrix(-.466 .9131 -.915 -.2378 -5.4 -21.85)"/></g></g><g clip-path="url(#aT)"><g transform="translate(735.3 57.75)"><use xlink:href="#at" width="4.7" height="7.6" transform="matrix(-.5851 -.4712 .1959 -.6502 13.3 -31.35)"/><use xlink:href="#au" width="5.2" height="3.1" transform="matrix(1 0 .1496 .9993 7.3 -.95)"/><use xlink:href="#av" width="4.3" height="7.7" transform="matrix(-.8625 .4846 .4925 .8994 8.3 -7.85)"/><use xlink:href="#aw" width="4.5" height="7.6" transform="matrix(-.9671 -.2104 .1185 -1.0783 12.6 -26.65)"/><use xlink:href="#ax" width="3.1" height="8.7" transform="rotate(243.171 -5.48 -13.34)scale(.9909)"/><use xlink:href="#ay" width="6.5" height="11.9" transform="matrix(-.9275 .2583 .3495 .8961 5.75 -15.1)"/><use xlink:href="#az" width="6.8" height="3.6" transform="matrix(.9402 .0901 .0159 1 -7.75 -3.45)"/><use xlink:href="#av" width="4.3" height="7.7" transform="matrix(-.9816 .1697 .1019 .9672 -2.4 -8.65)"/><use xlink:href="#ay" width="6.5" height="11.9" transform="matrix(.762 .6951 -.6207 .6686 -1.3 -16.05)"/><use xlink:href="#aA" width="9.4" height="7.4" transform="matrix(1.0447 -.0731 .0182 1.02 -3.2 -16.8)"/><use xlink:href="#aB" width="8.7" height="14.7" transform="matrix(.8717 .039 -.2128 1.0686 .95 -28.4)"/><use xlink:href="#aC" width="9.8" height="12.3" transform="rotate(-5.812 -361.634 43.357)scale(.9973)"/><use xlink:href="#aD" width="12.5" height="12.8" transform="matrix(.7124 .4418 -.4763 .9741 3.1 -15.25)"/><use xlink:href="#aE" width="5.3" height="5.3" transform="matrix(.5448 .4402 -.4473 .7619 7.55 -5.3)"/><use xlink:href="#aF" width="3.6" height="8.7" transform="matrix(.5019 .8502 -.7257 .7037 2.1 -25.4)"/><use xlink:href="#aw" width="4.5" height="7.6" transform="matrix(.2594 .9487 -.9614 .2095 -2.75 -22.2)"/><use xlink:href="#aG" width="4.6" height="5.3" transform="matrix(-.475 .9104 -.9111 -.2448 -5.2 -21.9)"/></g></g><g clip-path="url(#aU)"><g transform="translate(789.3 57.75)"><use xlink:href="#at" width="4.7" height="7.6" transform="matrix(-.6037 -.4014 .1749 -.6288 13.4 -31.6)"/><use xlink:href="#au" width="5.2" height="3.1" transform="matrix(1 0 .1496 .9994 7.3 -.95)"/><use xlink:href="#av" width="4.3" height="7.7" transform="matrix(-.8625 .4846 .4925 .8994 8.3 -7.85)"/><use xlink:href="#aw" width="4.5" height="7.6" transform="matrix(-.9715 -.1897 .0956 -1.0806 12.7 -26.85)"/><use xlink:href="#ax" width="3.1" height="8.7" transform="rotate(241.42 -5.192 -13.353)scale(.9908)"/><use xlink:href="#ay" width="6.5" height="11.9" transform="matrix(-.9277 .2577 .345 .8951 5.85 -15.15)"/><use xlink:href="#az" width="6.8" height="3.6" transform="matrix(.9402 .0901 .0159 1 -7.75 -3.45)"/><use xlink:href="#av" width="4.3" height="7.7" transform="matrix(-.9825 .1649 .0979 .9674 -2.4 -8.7)"/><use xlink:href="#ay" width="6.5" height="11.9" transform="matrix(.7623 .6951 -.6206 .6689 -1.3 -16.05)"/><use xlink:href="#aA" width="9.4" height="7.4" transform="matrix(1.0444 -.0777 .0226 1.0199 -3.15 -16.8)"/><use xlink:href="#aB" width="8.7" height="14.7" transform="matrix(.8769 .0313 -.2046 1.072 1.05 -28.4)"/><use xlink:href="#aC" width="9.8" height="12.3" transform="rotate(-6.53 -320.958 37.976)scale(.9973)"/><use xlink:href="#aD" width="12.5" height="12.8" transform="matrix(.6765 .4967 -.5524 .9344 3.25 -15.3)"/><use xlink:href="#aE" width="5.3" height="5.3" transform="matrix(.5093 .482 -.5068 .7249 6.9 -5)"/><use xlink:href="#aF" width="3.6" height="8.7" transform="matrix(.4947 .8546 -.7294 .7014 2.2 -25.45)"/><use xlink:href="#aw" width="4.5" height="7.6" transform="matrix(.2595 .9486 -.9613 .2095 -2.7 -22.2)"/><use xlink:href="#aG" width="4.6" height="5.3" transform="matrix(-.4839 .9075 -.9079 -.2488 -5.1 -21.9)"/></g></g><g clip-path="url(#aV)"><g transform="translate(843.3 57.75)"><use xlink:href="#at" width="4.7" height="7.6" transform="matrix(-.6139 -.3356 .1568 -.6067 13.4 -31.7)"/><use xlink:href="#au" width="5.2" height="3.1" transform="matrix(1 0 .1496 .9994 7.3 -.95)"/><use xlink:href="#av" width="4.3" height="7.7" transform="matrix(-.8625 .4846 .4925 .8994 8.3 -7.85)"/><use xlink:href="#aw" width="4.5" height="7.6" transform="matrix(-.9748 -.1722 .0762 -1.0822 12.7 -27.1)"/><use xlink:href="#ax" width="3.1" height="8.7" transform="rotate(239.68 -4.895 -13.34)scale(.9908)"/><use xlink:href="#ay" width="6.5" height="11.9" transform="matrix(-.9288 .2541 .3434 .8929 5.85 -15.05)"/><use xlink:href="#az" width="6.8" height="3.6" transform="matrix(.9402 .0901 .0159 1 -7.75 -3.45)"/><use xlink:href="#av" width="4.3" height="7.7" transform="matrix(-.9838 .1568 .0939 .9676 -2.4 -8.65)"/><use xlink:href="#ay" width="6.5" height="11.9" transform="matrix(.7625 .6949 -.6205 .6691 -1.3 -16.05)"/><use xlink:href="#aA" width="9.4" height="7.4" transform="matrix(1.044 -.0822 .0271 1.0198 -3.2 -16.75)"/><use xlink:href="#aB" width="8.7" height="14.7" transform="matrix(.8821 .0234 -.2 1.0746 .95 -28.45)"/><use xlink:href="#aC" width="9.8" height="12.3" transform="rotate(-7.057 -297.233 34.99)scale(.9972)"/><use xlink:href="#aD" width="12.5" height="12.8" transform="matrix(.7139 .4385 -.4718 .9758 3.05 -15.35)"/><use xlink:href="#aE" width="5.3" height="5.3" transform="matrix(.5465 .4376 -.4438 .7635 7.6 -5.4)"/><use xlink:href="#aF" width="3.6" height="8.7" transform="matrix(.4874 .8589 -.733 .6991 2.25 -25.4)"/><use xlink:href="#aw" width="4.5" height="7.6" transform="matrix(.2596 .9486 -.9613 .2096 -2.6 -22.25)"/><use xlink:href="#aG" width="4.6" height="5.3" transform="matrix(-.4929 .9046 -.9039 -.2558 -4.95 -21.95)"/></g></g><g clip-path="url(#aW)"><g transform="translate(897.3 57.75)"><use xlink:href="#at" width="4.7" height="7.6" transform="matrix(-.5049 -.5207 .3253 -.5498 12.65 -32.15)"/><use xlink:href="#au" width="5.2" height="3.1" transform="matrix(1 0 .1496 .9995 7.3 -.95)"/><use xlink:href="#av" width="4.3" height="7.7" transform="matrix(-.8625 .4846 .4925 .8994 8.3 -7.85)"/><use xlink:href="#aw" width="4.5" height="7.6" transform="matrix(-.9783 -.1515 .0532 -1.0836 12.65 -27.35)"/><use xlink:href="#ax" width="3.1" height="8.7" transform="rotate(237.936 -4.651 -13.299)scale(.9908)"/><use xlink:href="#ay" width="6.5" height="11.9" transform="matrix(-.9299 .2504 .339 .8919 5.9 -15.05)"/><use xlink:href="#az" width="6.8" height="3.6" transform="matrix(.9402 .0901 .0159 1 -7.75 -3.45)"/><use xlink:href="#av" width="4.3" height="7.7" transform="matrix(-.9846 .152 .0899 .9678 -2.3 -8.7)"/><use xlink:href="#ay" width="6.5" height="11.9" transform="matrix(.765 .6923 -.6182 .6714 -1.4 -16.05)"/><use xlink:href="#aA" width="9.4" height="7.4" transform="matrix(1.0437 -.0868 .0316 1.0196 -3.2 -16.75)"/><use xlink:href="#aB" width="8.7" height="14.7" transform="matrix(.8871 .0155 -.1953 1.0772 1 -28.5)"/><use xlink:href="#aC" width="9.8" height="12.3" transform="rotate(-7.77 -269.165 31.647)scale(.997)"/><use xlink:href="#aD" width="12.5" height="12.8" transform="matrix(.7491 .3751 -.3891 1.0115 2.85 -15.4)"/><use xlink:href="#aE" width="5.3" height="5.3" transform="matrix(.5819 .3886 -.3789 .7978 8.2 -5.9)"/><use xlink:href="#aF" width="3.6" height="8.7" transform="matrix(.4801 .8632 -.7344 .6992 2.45 -25.4)"/><use xlink:href="#aw" width="4.5" height="7.6" transform="matrix(.2596 .9485 -.9612 .2096 -2.55 -22.25)"/><use xlink:href="#aG" width="4.6" height="5.3" transform="matrix(-.5018 .9016 -.8998 -.2626 -4.85 -21.95)"/></g></g><g clip-path="url(#aX)"><g transform="translate(951.3 57.75)"><use xlink:href="#at" width="4.7" height="7.6" transform="matrix(-.3394 -.6714 .4759 -.4453 11.9 -32.55)"/><use xlink:href="#au" width="5.2" height="3.1" transform="matrix(1 0 .1497 .9995 7.3 -.95)"/><use xlink:href="#av" width="4.3" height="7.7" transform="matrix(-.8625 .4846 .4925 .8994 8.3 -7.85)"/><use xlink:href="#aw" width="4.5" height="7.6" transform="matrix(-.9809 -.1339 .0337 -1.0845 12.7 -27.55)"/><use xlink:href="#ax" width="3.1" height="8.7" transform="rotate(236.188 -4.336 -13.298)scale(.9909)"/><use xlink:href="#ay" width="6.5" height="11.9" transform="matrix(-.9301 .2498 .3345 .8908 6 -15.1)"/><use xlink:href="#az" width="6.8" height="3.6" transform="matrix(.9402 .0901 .0159 1 -7.75 -3.45)"/><use xlink:href="#av" width="4.3" height="7.7" transform="matrix(-.9858 .1439 .0891 .9677 -2.35 -8.7)"/><use xlink:href="#ay" width="6.5" height="11.9" transform="matrix(.7653 .6923 -.6181 .6716 -1.35 -16.05)"/><use xlink:href="#aA" width="9.4" height="7.4" transform="matrix(1.0432 -.0913 .0361 1.0195 -3.2 -16.75)"/><use xlink:href="#aB" width="8.7" height="14.7" transform="matrix(.8921 .0046 -.1906 1.0798 1.05 -28.55)"/><use xlink:href="#aC" width="9.8" height="12.3" transform="rotate(-8.298 -251.208 29.238)scale(.997)"/><use xlink:href="#aD" width="12.5" height="12.8" transform="matrix(.7776 .3116 -.3037 1.0403 2.7 -15.3)"/><use xlink:href="#aE" width="5.3" height="5.3" transform="matrix(.6122 .3389 -.3113 .8265 8.85 -6.25)"/><use xlink:href="#aF" width="3.6" height="8.7" transform="matrix(.4728 .8673 -.738 .6969 2.5 -25.4)"/><use xlink:href="#aw" width="4.5" height="7.6" transform="matrix(.2597 .9485 -.9612 .2097 -2.45 -22.25)"/><use xlink:href="#aG" width="4.6" height="5.3" transform="matrix(-.5136 .8968 -.8966 -.2666 -4.75 -22)"/></g></g><g clip-path="url(#aY)"><g transform="translate(1005.3 57.75)"><use xlink:href="#at" width="4.7" height="7.6" transform="matrix(-.1306 -.7691 .5944 -.3002 11 -33)"/><use xlink:href="#au" width="5.2" height="3.1" transform="matrix(1 0 .1497 .9995 7.3 -.95)"/><use xlink:href="#av" width="4.3" height="7.7" transform="matrix(-.8625 .4846 .4925 .8994 8.3 -7.85)"/><use xlink:href="#aw" width="4.5" height="7.6" transform="matrix(-.9836 -.113 .0142 -1.0849 12.8 -27.8)"/><use xlink:href="#ax" width="3.1" height="8.7" transform="rotate(234.629 -4.112 -13.235)scale(.9909)"/><use xlink:href="#ay" width="6.5" height="11.9" transform="matrix(-.9312 .2462 .333 .8886 6 -15.05)"/><use xlink:href="#az" width="6.8" height="3.6" transform="matrix(.9402 .0901 .0159 1 -7.75 -3.45)"/><use xlink:href="#av" width="4.3" height="7.7" transform="matrix(-.9865 .1391 .0851 .9678 -2.3 -8.65)"/><use xlink:href="#ay" width="6.5" height="11.9" transform="matrix(.7655 .6922 -.6181 .6719 -1.3 -16.1)"/><use xlink:href="#aA" width="9.4" height="7.4" transform="matrix(1.0432 -.0925 .0406 1.0193 -3.2 -16.8)"/><use xlink:href="#aB" width="8.7" height="14.7" transform="matrix(.897 -.0006 -.1823 1.083 1.05 -28.5)"/><use xlink:href="#aC" width="9.8" height="12.3" transform="rotate(-9.014 -230.625 27.134)scale(.997)"/><use xlink:href="#aD" width="12.5" height="12.8" transform="matrix(.8009 .2481 -.2164 1.0626 2.55 -15.3)"/><use xlink:href="#aE" width="5.3" height="5.3" transform="matrix(.6382 .2887 -.2418 .8499 9.4 -6.75)"/><use xlink:href="#aF" width="3.6" height="8.7" transform="matrix(.4654 .8715 -.7416 .6945 2.65 -25.4)"/><use xlink:href="#aw" width="4.5" height="7.6" transform="matrix(.2598 .9485 -.9611 .2098 -2.4 -22.25)"/><use xlink:href="#aG" width="4.6" height="5.3" transform="matrix(-.5225 .8936 -.8924 -.2734 -4.5 -22.05)"/></g></g><g clip-path="url(#aZ)"><g transform="translate(1059.3 57.75)"><use xlink:href="#at" width="4.7" height="7.6" transform="matrix(-.1306 -.7691 .5944 -.3002 11 -33)"/><use xlink:href="#au" width="5.2" height="3.1" transform="matrix(1 0 .1497 .9996 7.3 -.95)"/><use xlink:href="#av" width="4.3" height="7.7" transform="matrix(-.8625 .4846 .4925 .8994 8.3 -7.85)"/><use xlink:href="#aw" width="4.5" height="7.6" transform="matrix(-.9856 -.0953 -.0052 -1.085 12.7 -28.1)"/><use xlink:href="#ax" width="3.1" height="8.7" transform="rotate(232.884 -3.83 -13.22)scale(.9908)"/><use xlink:href="#ay" width="6.5" height="11.9" transform="matrix(-.9314 .2456 .3285 .8875 6.05 -15.05)"/><use xlink:href="#az" width="6.8" height="3.6" transform="matrix(.9402 .0901 .0159 1 -7.75 -3.45)"/><use xlink:href="#av" width="4.3" height="7.7" transform="matrix(-.9877 .131 .0812 .968 -2.25 -8.65)"/><use xlink:href="#ay" width="6.5" height="11.9" transform="matrix(.7658 .6921 -.618 .6721 -1.3 -16.1)"/><use xlink:href="#aA" width="9.4" height="7.4" transform="matrix(1.0427 -.097 .045 1.0191 -3.2 -16.75)"/><use xlink:href="#aB" width="8.7" height="14.7" transform="matrix(.9018 -.0087 -.1775 1.0856 1 -28.55)"/><use xlink:href="#aC" width="9.8" height="12.3" transform="matrix(.983 -.1653 .1653 .983 -7.2 -35.8)"/><use xlink:href="#aD" width="12.5" height="12.8" transform="matrix(.8009 .2481 -.2164 1.0626 2.55 -15.3)"/><use xlink:href="#aE" width="5.3" height="5.3" transform="matrix(.6382 .2887 -.2418 .8499 9.4 -6.75)"/><use xlink:href="#aF" width="3.6" height="8.7" transform="matrix(.4608 .874 -.7453 .6922 2.75 -25.4)"/><use xlink:href="#aw" width="4.5" height="7.6" transform="matrix(.2599 .9484 -.9611 .2098 -2.3 -22.3)"/><use xlink:href="#aG" width="4.6" height="5.3" transform="matrix(-.5314 .8904 -.8892 -.2772 -4.4 -22)"/></g></g><g clip-path="url(#ba)"><g transform="translate(1113.3 57.75)"><use xlink:href="#at" width="4.7" height="7.6" transform="matrix(-.371 -.6854 .4656 -.4752 12.1 -32.55)"/><use xlink:href="#au" width="5.2" height="3.1" transform="matrix(1 0 .1505 1 7.25 -.95)"/><use xlink:href="#av" width="4.3" height="7.7" transform="matrix(-.8631 .4863 .4937 .9002 8.25 -7.85)"/><use xlink:href="#aw" width="4.5" height="7.6" transform="matrix(-.9875 -.0769 -.0279 -1.0847 12.75 -28.4)"/><use xlink:href="#ax" width="3.1" height="8.7" transform="rotate(231.09 -3.57 -13.188)scale(.9925)"/><use xlink:href="#ay" width="6.5" height="11.9" transform="matrix(-.9328 .2436 .3269 .8864 6.05 -15.05)"/><use xlink:href="#az" width="6.8" height="3.6" transform="matrix(.9402 .0901 .0159 1 -7.75 -3.45)"/><use xlink:href="#av" width="4.3" height="7.7" transform="matrix(-.9886 .1272 .08 .9681 -2.3 -8.65)"/><use xlink:href="#ay" width="6.5" height="11.9" transform="matrix(.7681 .6923 -.6178 .6745 -1.3 -16.05)"/><use xlink:href="#aA" width="9.4" height="7.4" transform="matrix(1.0423 -.1049 .0512 1.0189 -3.2 -16.75)"/><use xlink:href="#aB" width="8.7" height="14.7" transform="matrix(.9065 -.0207 -.1736 1.0885 1 -28.6)"/><use xlink:href="#aC" width="9.8" height="12.3" transform="rotate(-10.258 -202.298 23.399)scale(.9973)"/><use xlink:href="#aD" width="12.5" height="12.8" transform="matrix(.8009 .2481 -.2164 1.0626 2.55 -15.3)"/><use xlink:href="#aE" width="5.3" height="5.3" transform="matrix(.6382 .2887 -.2418 .8499 9.4 -6.75)"/><use xlink:href="#aF" width="3.6" height="8.7" transform="matrix(.4544 .879 -.749 .6922 2.85 -25.4)"/><use xlink:href="#aw" width="4.5" height="7.6" transform="matrix(.2631 .9484 -.961 .2131 -2.3 -22.3)"/><use xlink:href="#aG" width="4.6" height="5.3" transform="matrix(-.5424 .8875 -.8856 -.2848 -4.3 -22)"/></g></g><g clip-path="url(#bb)"><g transform="translate(1167.3 57.75)"><use xlink:href="#at" width="4.7" height="7.6" transform="matrix(-.7426 -.2292 -.3739 .5479 -17.75 -20.5)"/><use xlink:href="#au" width="5.2" height="3.1" transform="matrix(1 0 .1505 1 7.25 -.95)"/><use xlink:href="#av" width="4.3" height="7.7" transform="matrix(-.8631 .4863 .4937 .9002 8.25 -7.85)"/><use xlink:href="#aw" width="4.5" height="7.6" transform="matrix(.4921 .856 -.877 .633 -14.7 -24.95)"/><use xlink:href="#ax" width="3.1" height="8.7" transform="rotate(81.193 10.64 -15.746)scale(.9883)"/><use xlink:href="#ay" width="6.5" height="11.9" transform="matrix(-.837 .4768 .5452 .7706 2.75 -15.1)"/><use xlink:href="#az" width="6.8" height="3.6" transform="matrix(.9402 .0901 .0159 1 -7.75 -3.45)"/><use xlink:href="#av" width="4.3" height="7.7" transform="matrix(-.8976 .4695 .4544 .8393 -5.35 -8.7)"/><use xlink:href="#ay" width="6.5" height="11.9" transform="matrix(.6242 .8236 -.7132 .5316 -3.2 -14.4)"/><use xlink:href="#aA" width="9.4" height="7.4" transform="matrix(1.0423 -.1049 .0512 1.0189 -5.7 -16.65)"/><use xlink:href="#bc" width="9.8" height="16" transform="matrix(-1.0244 .3365 .5276 .9826 -3.6 -30.15)"/><use xlink:href="#aC" width="9.8" height="12.3" transform="matrix(.9814 -.1776 .1776 .9814 -17 -34.4)"/><use xlink:href="#aD" width="12.5" height="12.8" transform="matrix(.4983 -.6732 .9304 .5549 .55 -15.3)"/><use xlink:href="#aE" width="5.3" height="5.3" transform="matrix(.483 -.5064 .7215 .5086 10.85 -18.9)"/><use xlink:href="#aF" width="3.6" height="8.7" transform="matrix(-.3257 .9296 .8344 .5782 -2.4 -29.05)"/><use xlink:href="#aw" width="4.5" height="7.6" transform="matrix(.2672 -.9437 .9286 .3163 2.05 -20.8)"/><use xlink:href="#aG" width="4.6" height="5.3" transform="matrix(.9214 -.4747 .6066 .7011 3.95 -19.75)"/><use xlink:href="#bd" width="39.9" height="17.6" transform="translate(-30.5 -56.75)"/></g></g><g clip-path="url(#be)"><g transform="translate(1221.3 57.75)"><use xlink:href="#at" width="4.7" height="7.6" transform="matrix(-.7426 -.2292 -.3739 .5479 -17.75 -20.5)"/><use xlink:href="#au" width="5.2" height="3.1" transform="matrix(1 0 .1505 1 7.25 -.95)"/><use xlink:href="#av" width="4.3" height="7.7" transform="matrix(-.8631 .4863 .4937 .9002 8.25 -7.85)"/><use xlink:href="#aw" width="4.5" height="7.6" transform="matrix(.4921 .856 -.877 .633 -14.7 -24.95)"/><use xlink:href="#ax" width="3.1" height="8.7" transform="rotate(81.193 10.64 -15.746)scale(.9883)"/><use xlink:href="#ay" width="6.5" height="11.9" transform="matrix(-.837 .4768 .5452 .7706 2.75 -15.1)"/><use xlink:href="#az" width="6.8" height="3.6" transform="matrix(.9402 .0901 .0159 1 -7.75 -3.45)"/><use xlink:href="#av" width="4.3" height="7.7" transform="matrix(-.8976 .4695 .4544 .8393 -5.35 -8.7)"/><use xlink:href="#ay" width="6.5" height="11.9" transform="matrix(.6242 .8236 -.7132 .5316 -3.2 -14.4)"/><use xlink:href="#aA" width="9.4" height="7.4" transform="matrix(1.0423 -.1049 .0512 1.0189 -5.7 -16.65)"/><use xlink:href="#bc" width="9.8" height="16" transform="matrix(-1.0244 .3365 .5276 .9826 -3.6 -30.15)"/><use xlink:href="#aC" width="9.8" height="12.3" transform="matrix(.9814 -.1776 .1776 .9814 -17 -34.4)"/><use xlink:href="#aD" width="12.5" height="12.8" transform="matrix(.4151 -.7548 .9653 .5097 .65 -15.2)"/><use xlink:href="#aE" width="5.3" height="5.3" transform="matrix(.4177 -.5768 .7569 .4781 10.3 -19.9)"/><use xlink:href="#aF" width="3.6" height="8.7" transform="matrix(-.3257 .9296 .8344 .5782 -2.4 -29.05)"/><use xlink:href="#aw" width="4.5" height="7.6" transform="matrix(.2672 -.9437 .9286 .3163 2.05 -20.8)"/><use xlink:href="#aG" width="4.6" height="5.3" transform="matrix(.9214 -.4747 .6066 .7011 3.95 -19.75)"/><use xlink:href="#bf" width="16.9" height="40.5" transform="translate(-32.3 -55.15)"/></g></g><g clip-path="url(#bg)"><g transform="translate(1275.3 57.75)"><use xlink:href="#at" width="4.7" height="7.6" transform="matrix(-.7426 -.2292 -.3739 .5479 -17.75 -20.5)"/><use xlink:href="#au" width="5.2" height="3.1" transform="matrix(1 0 .1505 1 7.25 -.95)"/><use xlink:href="#av" width="4.3" height="7.7" transform="matrix(-.8631 .4863 .4937 .9002 8.25 -7.85)"/><use xlink:href="#aw" width="4.5" height="7.6" transform="matrix(.4921 .856 -.877 .633 -14.7 -24.95)"/><use xlink:href="#ax" width="3.1" height="8.7" transform="rotate(81.193 10.64 -15.746)scale(.9883)"/><use xlink:href="#ay" width="6.5" height="11.9" transform="matrix(-.837 .4768 .5452 .7706 2.75 -15.1)"/><use xlink:href="#az" width="6.8" height="3.6" transform="matrix(.9402 .0901 .0159 1 -7.75 -3.45)"/><use xlink:href="#av" width="4.3" height="7.7" transform="matrix(-.8976 .4695 .4544 .8393 -5.35 -8.7)"/><use xlink:href="#ay" width="6.5" height="11.9" transform="matrix(.6242 .8236 -.7132 .5316 -3.2 -14.4)"/><use xlink:href="#aA" width="9.4" height="7.4" transform="matrix(1.0423 -.1049 .0512 1.0189 -5.7 -16.65)"/><use xlink:href="#bc" width="9.8" height="16" transform="matrix(-1.0244 .3365 .5276 .9826 -3.6 -30.15)"/><use xlink:href="#aC" width="9.8" height="12.3" transform="matrix(.9814 -.1776 .1776 .9814 -17 -34.4)"/><use xlink:href="#aD" width="12.5" height="12.8" transform="matrix(.3186 -.8274 .9981 .4662 .6 -15.05)"/><use xlink:href="#aE" width="5.3" height="5.3" transform="matrix(.3413 -.6398 .7914 .4484 9.5 -20.75)"/><use xlink:href="#aF" width="3.6" height="8.7" transform="matrix(-.3257 .9296 .8344 .5782 -2.4 -29.05)"/><use xlink:href="#aw" width="4.5" height="7.6" transform="matrix(.2672 -.9437 .9286 .3163 2.05 -20.8)"/><use xlink:href="#aG" width="4.6" height="5.3" transform="matrix(.9214 -.4747 .6066 .7011 3.95 -19.75)"/><use xlink:href="#bf" width="16.9" height="40.5" transform="translate(-32.3 -55.15)"/></g></g><g clip-path="url(#bh)"><g transform="translate(1329.3 57.75)"><use xlink:href="#at" width="4.7" height="7.6" transform="matrix(-.7426 -.2292 -.3739 .5479 -17.75 -20.5)"/><use xlink:href="#au" width="5.2" height="3.1" transform="matrix(1 0 .1505 1 7.25 -.95)"/><use xlink:href="#av" width="4.3" height="7.7" transform="matrix(-.8631 .4863 .4937 .9002 8.25 -7.85)"/><use xlink:href="#aw" width="4.5" height="7.6" transform="matrix(.4921 .856 -.877 .633 -14.7 -24.95)"/><use xlink:href="#ax" width="3.1" height="8.7" transform="rotate(81.193 10.64 -15.746)scale(.9883)"/><use xlink:href="#ay" width="6.5" height="11.9" transform="matrix(-.837 .4768 .5452 .7706 2.75 -15.1)"/><use xlink:href="#az" width="6.8" height="3.6" transform="matrix(.9402 .0901 .0159 1 -7.75 -3.45)"/><use xlink:href="#av" width="4.3" height="7.7" transform="matrix(-.8976 .4695 .4544 .8393 -5.35 -8.7)"/><use xlink:href="#ay" width="6.5" height="11.9" transform="matrix(.6242 .8236 -.7132 .5316 -3.2 -14.4)"/><use xlink:href="#aA" width="9.4" height="7.4" transform="matrix(1.0423 -.1049 .0512 1.0189 -5.7 -16.65)"/><use xlink:href="#bc" width="9.8" height="16" transform="matrix(-1.0244 .3365 .5276 .9826 -3.6 -30.15)"/><use xlink:href="#aC" width="9.8" height="12.3" transform="matrix(.9814 -.1776 .1776 .9814 -17 -34.4)"/><use xlink:href="#aD" width="12.5" height="12.8" transform="matrix(.2124 -.8876 1.031 .419 .65 -14.85)"/><use xlink:href="#aE" width="5.3" height="5.3" transform="matrix(.257 -.6929 .8269 .4146 8.65 -21.4)"/><use xlink:href="#aF" width="3.6" height="8.7" transform="matrix(-.3257 .9296 .8344 .5782 -2.4 -29.05)"/><use xlink:href="#aw" width="4.5" height="7.6" transform="matrix(.2672 -.9437 .9286 .3163 2.05 -20.8)"/><use xlink:href="#aG" width="4.6" height="5.3" transform="matrix(.9214 -.4747 .6066 .7011 3.95 -19.75)"/><use xlink:href="#bi" width="4.8" height="15.5" transform="translate(-32.3 -30.1)"/></g></g><g clip-path="url(#bj)"><g transform="translate(1383.3 57.75)"><use xlink:href="#at" width="4.7" height="7.6" transform="matrix(-.7426 -.2292 -.3739 .5479 -17.75 -20.5)"/><use xlink:href="#au" width="5.2" height="3.1" transform="matrix(1 0 .1505 1 7.25 -.95)"/><use xlink:href="#av" width="4.3" height="7.7" transform="matrix(-.8631 .4863 .4937 .9002 8.25 -7.85)"/><use xlink:href="#aw" width="4.5" height="7.6" transform="matrix(.4921 .856 -.877 .633 -14.7 -24.95)"/><use xlink:href="#ax" width="3.1" height="8.7" transform="rotate(81.193 10.64 -15.746)scale(.9883)"/><use xlink:href="#ay" width="6.5" height="11.9" transform="matrix(-.837 .4768 .5452 .7706 2.75 -15.1)"/><use xlink:href="#az" width="6.8" height="3.6" transform="matrix(.9402 .0901 .0159 1 -7.75 -3.45)"/><use xlink:href="#av" width="4.3" height="7.7" transform="matrix(-.8976 .4695 .4544 .8393 -5.35 -8.7)"/><use xlink:href="#ay" width="6.5" height="11.9" transform="matrix(.6242 .8236 -.7132 .5316 -3.2 -14.4)"/><use xlink:href="#aA" width="9.4" height="7.4" transform="matrix(1.0423 -.1049 .0512 1.0189 -5.7 -16.65)"/><use xlink:href="#bc" width="9.8" height="16" transform="matrix(-1.0244 .3365 .5276 .9826 -3.6 -30.15)"/><use xlink:href="#aC" width="9.8" height="12.3" transform="matrix(.9814 -.1776 .1776 .9814 -17 -34.4)"/><use xlink:href="#aD" width="12.5" height="12.8" transform="matrix(.4352 -.714 .9683 .5444 .55 -15.3)"/><use xlink:href="#aE" width="5.3" height="5.3" transform="matrix(.4343 -.5407 .7576 .5033 10.4 -19.4)"/><use xlink:href="#aF" width="3.6" height="8.7" transform="matrix(-.3257 .9296 .8344 .5782 -2.4 -29.05)"/><use xlink:href="#aw" width="4.5" height="7.6" transform="matrix(.2672 -.9437 .9286 .3163 2.05 -20.8)"/><use xlink:href="#aG" width="4.6" height="5.3" transform="matrix(.9214 -.4747 .6066 .7011 3.95 -19.75)"/></g></g><g clip-path="url(#bk)"><g transform="translate(1437.3 57.75)"><use xlink:href="#at" width="4.7" height="7.6" transform="matrix(-.7426 -.2292 -.3739 .5479 -17.75 -20.5)"/><use xlink:href="#au" width="5.2" height="3.1" transform="matrix(1 0 .1505 1 7.25 -.95)"/><use xlink:href="#av" width="4.3" height="7.7" transform="matrix(-.8631 .4863 .4937 .9002 8.25 -7.85)"/><use xlink:href="#aw" width="4.5" height="7.6" transform="matrix(.4921 .856 -.877 .633 -14.7 -24.95)"/><use xlink:href="#ax" width="3.1" height="8.7" transform="rotate(81.193 10.64 -15.746)scale(.9883)"/><use xlink:href="#ay" width="6.5" height="11.9" transform="matrix(-.837 .4768 .5452 .7706 2.75 -15.1)"/><use xlink:href="#az" width="6.8" height="3.6" transform="matrix(.9402 .0901 .0159 1 -7.75 -3.45)"/><use xlink:href="#av" width="4.3" height="7.7" transform="matrix(-.8976 .4695 .4544 .8393 -5.35 -8.7)"/><use xlink:href="#ay" width="6.5" height="11.9" transform="matrix(.6242 .8236 -.7132 .5316 -3.2 -14.4)"/><use xlink:href="#aA" width="9.4" height="7.4" transform="matrix(1.0423 -.1049 .0512 1.0189 -5.7 -16.65)"/><use xlink:href="#bc" width="9.8" height="16" transform="matrix(-1.0244 .3365 .5276 .9826 -3.6 -30.15)"/><use xlink:href="#aC" width="9.8" height="12.3" transform="matrix(.9814 -.1776 .1776 .9814 -17 -34.4)"/><use xlink:href="#aD" width="12.5" height="12.8" transform="matrix(.5796 -.4931 .8887 .6656 .5 -15.65)"/><use xlink:href="#aE" width="5.3" height="5.3" transform="matrix(.5462 -.35 .6808 .5846 11.35 -16.8)"/><use xlink:href="#aF" width="3.6" height="8.7" transform="matrix(-.3257 .9296 .8344 .5782 -2.4 -29.05)"/><use xlink:href="#aw" width="4.5" height="7.6" transform="matrix(.2672 -.9437 .9286 .3163 2.05 -20.8)"/><use xlink:href="#aG" width="4.6" height="5.3" transform="matrix(.9214 -.4747 .6066 .7011 3.95 -19.75)"/></g></g><g clip-path="url(#bl)"><g transform="translate(1491.3 57.75)"><use xlink:href="#at" width="4.7" height="7.6" transform="matrix(-.5901 -.5034 -.5591 .3545 -6.7 -25.35)"/><use xlink:href="#au" width="5.2" height="3.1" transform="matrix(1 0 .1505 1 7.25 -.95)"/><use xlink:href="#av" width="4.3" height="7.7" transform="matrix(-.8631 .4863 .4937 .9002 8.25 -7.85)"/><use xlink:href="#aw" width="4.5" height="7.6" transform="matrix(.1129 .9789 -1.0538 .2338 -2.1 -28.25)"/><use xlink:href="#ax" width="3.1" height="8.7" transform="rotate(81.193 17.756 -8.033)scale(.9883)"/><use xlink:href="#ay" width="6.5" height="11.9" transform="matrix(-.9363 .2229 .307 .8918 5.7 -15)"/><use xlink:href="#az" width="6.8" height="3.6" transform="matrix(.9402 .0901 .0159 1 -7.75 -3.45)"/><use xlink:href="#av" width="4.3" height="7.7" transform="matrix(-.9612 .2193 .1022 .8778 -2.5 -7.95)"/><use xlink:href="#ay" width="6.5" height="11.9" transform="matrix(.7422 .7183 -.6234 .6339 -.95 -14.65)"/><use xlink:href="#aA" width="9.4" height="7.4" transform="matrix(1.0423 -.1049 .0512 1.0189 -3 -16.4)"/><use xlink:href="#aB" width="8.7" height="14.7" transform="matrix(.8158 .0261 -.0688 1.0182 -.6 -27.45)"/><use xlink:href="#aC" width="9.8" height="12.3" transform="rotate(-10.258 -201.83 33.83)scale(.9973)"/><use xlink:href="#aD" width="12.5" height="12.8" transform="matrix(.6349 -.2623 .7977 .7742 .65 -16.1)"/><use xlink:href="#aE" width="5.3" height="5.3" transform="matrix(.5841 -.1524 .6019 .655 11.6 -14.3)"/><use xlink:href="#aF" width="3.6" height="8.7" transform="matrix(.6438 -.745 .9165 .4357 -1.7 -22.95)"/><use xlink:href="#aw" width="4.5" height="7.6" transform="matrix(.9481 .237 -.2864 .9346 2.65 -20.95)"/><use xlink:href="#aG" width="4.6" height="5.3" transform="matrix(.5012 .9031 -.6796 .6257 1.9 -19)"/></g></g><g clip-path="url(#bm)"><g transform="translate(1545.3 57.75)"><use xlink:href="#at" width="4.7" height="7.6" transform="matrix(-.5537 -.5412 -.5806 .316 -5.55 -25)"/><use xlink:href="#au" width="5.2" height="3.1" transform="matrix(1 0 .1497 .9996 7.3 -.95)"/><use xlink:href="#av" width="4.3" height="7.7" transform="matrix(-.859 .4925 .4975 .8955 8.15 -7.85)"/><use xlink:href="#aw" width="4.5" height="7.6" transform="matrix(.1119 .9787 -1.0531 .2337 -1.1 -28)"/><use xlink:href="#ax" width="3.1" height="8.7" transform="rotate(81.23 17.86 -8.081)scale(.9877)"/><use xlink:href="#ay" width="6.5" height="11.9" transform="matrix(-.9424 .1919 .2762 .9008 6.05 -14.95)"/><use xlink:href="#az" width="6.8" height="3.6" transform="matrix(.9402 .0901 .0159 1 -7.75 -3.45)"/><use xlink:href="#av" width="4.3" height="7.7" transform="matrix(-.9721 .1676 .0693 .8787 -2.25 -7.9)"/><use xlink:href="#ay" width="6.5" height="11.9" transform="matrix(.7404 .7177 -.6232 .632 -.65 -14.75)"/><use xlink:href="#aA" width="9.4" height="7.4" transform="matrix(1.0423 -.1015 .0495 1.0188 -2.9 -16.35)"/><use xlink:href="#aB" width="8.7" height="14.7" transform="matrix(.8192 .0079 -.0763 1.0192 -.35 -27.4)"/><use xlink:href="#aC" width="9.8" height="12.3" transform="rotate(-10.258 -201.8 30.46)scale(.9967)"/><use xlink:href="#aD" width="12.5" height="12.8" transform="matrix(.6712 -.1431 .577 .9109 1.3 -16.25)"/><use xlink:href="#aE" width="5.3" height="5.3" transform="matrix(.596 -.0437 .4183 .7572 11.35 -12.5)"/><use xlink:href="#aF" width="3.6" height="8.7" transform="matrix(.7074 -.6861 .8553 .5203 -1.6 -23)"/><use xlink:href="#aw" width="4.5" height="7.6" transform="matrix(.924 .3145 -.3625 .9063 2.45 -20.8)"/><use xlink:href="#aG" width="4.6" height="5.3" transform="matrix(.4572 .9245 -.7076 .5912 1.5 -18.85)"/></g></g><g clip-path="url(#bn)"><g transform="translate(1599.3 57.75)"><use xlink:href="#at" width="4.7" height="7.6" transform="matrix(-.5168 -.5764 -.6001 .2771 -4.35 -24.8)"/><use xlink:href="#au" width="5.2" height="3.1" transform="matrix(1 0 .1497 .9996 7.3 -.95)"/><use xlink:href="#av" width="4.3" height="7.7" transform="matrix(-.8555 .5003 .5012 .8923 8.15 -7.85)"/><use xlink:href="#aw" width="4.5" height="7.6" transform="matrix(.1119 .9787 -1.0531 .2337 -.05 -27.75)"/><use xlink:href="#ax" width="3.1" height="8.7" transform="rotate(81.23 17.976 -8.181)scale(.9877)"/><use xlink:href="#ay" width="6.5" height="11.9" transform="matrix(-.9485 .1593 .2449 .9097 6.35 -14.8)"/><use xlink:href="#az" width="6.8" height="3.6" transform="matrix(.9402 .0901 .0159 1 -7.75 -3.45)"/><use xlink:href="#av" width="4.3" height="7.7" transform="matrix(-.9808 .1167 .0352 .8788 -2 -7.7)"/><use xlink:href="#ay" width="6.5" height="11.9" transform="matrix(.7404 .7177 -.6232 .632 -.45 -14.85)"/><use xlink:href="#aA" width="9.4" height="7.4" transform="matrix(1.0423 -.1015 .0495 1.0188 -2.8 -16.4)"/><use xlink:href="#aB" width="8.7" height="14.7" transform="matrix(.8223 -.0041 -.0854 1.0201 -.05 -27.35)"/><use xlink:href="#aC" width="9.8" height="12.3" transform="rotate(-10.258 -202.107 27.625)scale(.9967)"/><use xlink:href="#aD" width="12.5" height="12.8" transform="matrix(.686 -.021 .3415 .9899 2.05 -16.45)"/><use xlink:href="#aE" width="5.3" height="5.3" transform="matrix(.5892 .0626 .2242 .8121 10.9 -11.05)"/><use xlink:href="#aF" width="3.6" height="8.7" transform="matrix(.7668 -.6231 .7885 .5967 -1.45 -23.15)"/><use xlink:href="#aw" width="4.5" height="7.6" transform="matrix(.8942 .3901 -.4365 .8726 2.25 -20.7)"/><use xlink:href="#aG" width="4.6" height="5.3" transform="matrix(.4125 .9452 -.7332 .5591 1.15 -18.75)"/></g></g><g clip-path="url(#bo)"><g transform="translate(1653.3 57.75)"><use xlink:href="#at" width="4.7" height="7.6" transform="matrix(-.4776 -.609 -.6178 .235 -3.35 -24.45)"/><use xlink:href="#au" width="5.2" height="3.1" transform="matrix(1 0 .1497 .9996 7.3 -.95)"/><use xlink:href="#av" width="4.3" height="7.7" transform="matrix(-.8519 .5081 .5049 .8892 8.05 -7.8)"/><use xlink:href="#aw" width="4.5" height="7.6" transform="matrix(.1119 .9787 -1.0531 .2337 1 -27.55)"/><use xlink:href="#ax" width="3.1" height="8.7" transform="rotate(81.23 18.118 -8.252)scale(.9877)"/><use xlink:href="#ay" width="6.5" height="11.9" transform="matrix(-.9534 .1266 .2165 .9169 6.75 -14.7)"/><use xlink:href="#az" width="6.8" height="3.6" transform="matrix(.9402 .0901 .0159 1 -7.75 -3.45)"/><use xlink:href="#av" width="4.3" height="7.7" transform="matrix(-.9869 .0653 .0041 .8775 -1.75 -7.6)"/><use xlink:href="#ay" width="6.5" height="11.9" transform="matrix(.7404 .7177 -.6232 .632 -.2 -14.9)"/><use xlink:href="#aA" width="9.4" height="7.4" transform="matrix(1.0423 -.1015 .0495 1.0188 -2.65 -16.4)"/><use xlink:href="#aB" width="8.7" height="14.7" transform="matrix(.8251 -.0217 -.0945 1.0209 .2 -27.3)"/><use xlink:href="#aC" width="9.8" height="12.3" transform="rotate(-10.258 -202.11 24.536)scale(.9967)"/><use xlink:href="#aD" width="12.5" height="12.8" transform="matrix(.6782 .1016 .0981 1.0114 2.75 -16.4)"/><use xlink:href="#aE" width="5.3" height="5.3" transform="matrix(.5632 .1647 .0256 .8198 10.15 -9.65)"/><use xlink:href="#aF" width="3.6" height="8.7" transform="matrix(.8206 -.555 .7129 .6673 -1.25 -23.25)"/><use xlink:href="#aw" width="4.5" height="7.6" transform="matrix(.8582 .463 -.5075 .8329 2.15 -20.5)"/><use xlink:href="#aG" width="4.6" height="5.3" transform="matrix(.37 .9626 -.759 .5234 .8 -18.65)"/></g></g><g clip-path="url(#bp)"><g transform="translate(1707.3 57.75)"><use xlink:href="#at" width="4.7" height="7.6" transform="matrix(-.4364 -.6391 -.6319 .1939 -2.2 -24.15)"/><use xlink:href="#au" width="5.2" height="3.1" transform="matrix(1 0 .1497 .9996 7.3 -.95)"/><use xlink:href="#av" width="4.3" height="7.7" transform="matrix(-.8482 .5159 .5086 .8861 7.9 -7.8)"/><use xlink:href="#aw" width="4.5" height="7.6" transform="matrix(.1119 .9787 -1.0531 .2337 2.05 -27.35)"/><use xlink:href="#ax" width="3.1" height="8.7" transform="rotate(81.23 18.289 -8.348)scale(.9877)"/><use xlink:href="#ay" width="6.5" height="11.9" transform="matrix(-.9568 .0968 .1848 .9238 6.85 -14.6)"/><use xlink:href="#az" width="6.8" height="3.6" transform="matrix(.9402 .0901 .0159 1 -7.75 -3.45)"/><use xlink:href="#av" width="4.3" height="7.7" transform="matrix(-.9902 .0136 -.0269 .8749 -1.55 -7.4)"/><use xlink:href="#ay" width="6.5" height="11.9" transform="matrix(.7404 .7177 -.6232 .632 0 -14.95)"/><use xlink:href="#aA" width="9.4" height="7.4" transform="matrix(1.0423 -.1015 .0495 1.0188 -2.55 -16.4)"/><use xlink:href="#aB" width="8.7" height="14.7" transform="matrix(.8276 -.0367 -.1037 1.0217 .5 -27.25)"/><use xlink:href="#aC" width="9.8" height="12.3" transform="rotate(-10.258 -202.139 21.726)scale(.9967)"/><use xlink:href="#aD" width="12.5" height="12.8" transform="matrix(.6488 .2224 -.1329 .9757 3.45 -16.4)"/><use xlink:href="#aE" width="5.3" height="5.3" transform="matrix(.5205 .2607 -.1611 .7809 9.25 -8.65)"/><use xlink:href="#aF" width="3.6" height="8.7" transform="matrix(.87 -.4794 .6338 .7268 -1 -23.4)"/><use xlink:href="#aw" width="4.5" height="7.6" transform="matrix(.8146 .5354 -.5775 .7854 2 -20.35)"/><use xlink:href="#aG" width="4.6" height="5.3" transform="matrix(.3236 .9791 -.7831 .4864 .45 -18.5)"/></g></g><g clip-path="url(#bq)"><g transform="translate(1761.3 57.75)"><use xlink:href="#at" width="4.7" height="7.6" transform="matrix(-.3934 -.6664 -.6432 .1519 -1.05 -23.9)"/><use xlink:href="#au" width="5.2" height="3.1" transform="matrix(1 0 .1497 .9996 7.3 -.95)"/><use xlink:href="#av" width="4.3" height="7.7" transform="matrix(-.8462 .5208 .5151 .8812 7.85 -7.75)"/><use xlink:href="#aw" width="4.5" height="7.6" transform="matrix(.1119 .9787 -1.0531 .2337 3.1 -27.1)"/><use xlink:href="#ax" width="3.1" height="8.7" transform="rotate(81.23 18.405 -8.448)scale(.9877)"/><use xlink:href="#ay" width="6.5" height="11.9" transform="matrix(-.9596 .0639 .1559 .9291 7.15 -14.5)"/><use xlink:href="#az" width="6.8" height="3.6" transform="matrix(.9402 .0901 .0159 1 -7.75 -3.45)"/><use xlink:href="#av" width="4.3" height="7.7" transform="matrix(-.9908 -.035 -.0577 .8712 -1.3 -7.35)"/><use xlink:href="#ay" width="6.5" height="11.9" transform="matrix(.7404 .7177 -.6232 .632 .25 -15.05)"/><use xlink:href="#aA" width="9.4" height="7.4" transform="matrix(1.0423 -.1015 .0495 1.0188 -2.4 -16.45)"/><use xlink:href="#aB" width="8.7" height="14.7" transform="matrix(.8297 -.0545 -.1129 1.0224 .75 -27.15)"/><use xlink:href="#aC" width="9.8" height="12.3" transform="rotate(-10.258 -202.42 18.612)scale(.9967)"/><use xlink:href="#aD" width="12.5" height="12.8" transform="matrix(.5196 .4456 -.4818 .8567 4.15 -16.4)"/><use xlink:href="#aE" width="5.3" height="5.3" transform="matrix(.3865 .4338 -.4364 .6655 6.7 -7.1)"/><use xlink:href="#aF" width="3.6" height="8.7" transform="matrix(.9111 -.4025 .5475 .7791 -.85 -23.5)"/><use xlink:href="#aw" width="4.5" height="7.6" transform="matrix(.7669 .6012 -.6407 .7343 1.85 -20.2)"/><use xlink:href="#aG" width="4.6" height="5.3" transform="matrix(.2765 .9935 -.8039 .4511 .05 -18.35)"/></g></g><g clip-path="url(#br)"><g transform="translate(1815.3 57.75)"><use xlink:href="#at" width="4.7" height="7.6" transform="matrix(-.3484 -.692 -.6521 .1099 .05 -23.6)"/><use xlink:href="#au" width="5.2" height="3.1" transform="matrix(1 0 .1505 1 7.25 -.95)"/><use xlink:href="#av" width="4.3" height="7.7" transform="matrix(-.8426 .531 .5198 .8791 7.8 -7.8)"/><use xlink:href="#aw" width="4.5" height="7.6" transform="matrix(.1129 .9789 -1.0538 .2338 4.2 -26.95)"/><use xlink:href="#ax" width="3.1" height="8.7" transform="rotate(81.193 18.586 -8.541)scale(.9883)"/><use xlink:href="#ay" width="6.5" height="11.9" transform="matrix(-.9612 .0352 .1263 .934 7.45 -14.4)"/><use xlink:href="#az" width="6.8" height="3.6" transform="matrix(.9402 .0901 .0159 1 -7.75 -3.45)"/><use xlink:href="#av" width="4.3" height="7.7" transform="matrix(-.9887 -.0879 -.0912 .8664 -1.05 -7.25)"/><use xlink:href="#ay" width="6.5" height="11.9" transform="matrix(.7422 .7183 -.6234 .6339 .4 -15.05)"/><use xlink:href="#aA" width="9.4" height="7.4" transform="matrix(1.0423 -.1049 .0512 1.0189 -2.25 -16.5)"/><use xlink:href="#aB" width="8.7" height="14.7" transform="matrix(.8317 -.0712 -.1246 1.023 1.1 -27.1)"/><use xlink:href="#aC" width="9.8" height="12.3" transform="rotate(-10.258 -202.484 16.082)scale(.9973)"/><use xlink:href="#aD" width="12.5" height="12.8" transform="matrix(.3168 .6066 -.7652 .616 4.95 -16.15)"/><use xlink:href="#aE" width="5.3" height="5.3" transform="matrix(.1977 .5463 -.652 .4554 3.75 -6.6)"/><use xlink:href="#aF" width="3.6" height="8.7" transform="matrix(.9458 -.324 .4602 .8214 -.55 -23.65)"/><use xlink:href="#aw" width="4.5" height="7.6" transform="matrix(.7147 .6643 -.701 .679 1.75 -19.95)"/><use xlink:href="#aG" width="4.6" height="5.3" transform="matrix(.2318 1.0056 -.8254 .4131 -.25 -18.2)"/></g></g><g clip-path="url(#bs)"><g transform="translate(1869.3 57.75)"><use xlink:href="#bt" width="5.9" height="5.5" transform="matrix(.2791 .4943 -.3328 .3521 18.75 -18.4)"/><use xlink:href="#au" width="5.2" height="3.1" transform="matrix(1 0 .1505 1 7.25 -.95)"/><use xlink:href="#av" width="4.3" height="7.7" transform="matrix(-.8426 .531 .5198 .8791 7.8 -7.8)"/><use xlink:href="#aw" width="4.5" height="7.6" transform="matrix(-.5838 .7915 .7017 .675 14.8 -20.85)"/><use xlink:href="#ax" width="3.1" height="8.7" transform="matrix(-.6996 .6955 .6955 .6996 9.2 -23.85)"/><use xlink:href="#ay" width="6.5" height="11.9" transform="matrix(-.9539 -.4223 -.0135 .8495 8.95 -12.05)"/><use xlink:href="#az" width="6.8" height="3.6" transform="matrix(.9402 .0901 .0159 1 -7.75 -3.45)"/><use xlink:href="#av" width="4.3" height="7.7" transform="matrix(-.9657 -.3115 -.2594 .923 .15 -7.2)"/><use xlink:href="#ay" width="6.5" height="11.9" transform="matrix(.7422 .7183 -.6234 .6339 1.2 -14.75)"/><use xlink:href="#aA" width="9.4" height="7.4" transform="matrix(1.0345 .1596 -.2057 .9984 1.15 -17.9)"/><use xlink:href="#aB" width="8.7" height="14.7" transform="matrix(.8752 .1216 -.4485 .9553 7.3 -27.15)"/><use xlink:href="#aC" width="9.8" height="12.3" transform="rotate(-10.258 -205.508 -15.918)scale(.9973)"/><use xlink:href="#aD" width="12.5" height="12.8" transform="matrix(.0705 .6814 -.9402 .2887 5.5 -15.6)"/><use xlink:href="#aE" width="5.3" height="5.3" transform="matrix(-.018 .5811 -.7754 .1814 .85 -7.15)"/><use xlink:href="#aF" width="3.6" height="8.7" transform="matrix(.8574 .5035 -.4005 .8398 6.25 -25.8)"/><use xlink:href="#aw" width="4.5" height="7.6" transform="matrix(.5243 .7657 -.8703 .5341 2.85 -20.9)"/><use xlink:href="#aG" width="4.6" height="5.3" transform="matrix(.4881 .9056 -.6845 .6149 -2.85 -18.35)"/></g></g><g clip-path="url(#bu)"><g transform="translate(1923.3 57.75)"><use xlink:href="#bt" width="5.9" height="5.5" transform="matrix(.2778 .4941 -.3322 .3516 18.45 -17.75)"/><use xlink:href="#au" width="5.2" height="3.1" transform="matrix(1 0 .1505 1 7.25 -.95)"/><use xlink:href="#av" width="4.3" height="7.7" transform="matrix(-.8426 .531 .5198 .8791 7.8 -7.8)"/><use xlink:href="#aw" width="4.5" height="7.6" transform="matrix(-.6374 .7572 .6526 .7096 14.8 -20.7)"/><use xlink:href="#ax" width="3.1" height="8.7" transform="matrix(-.7454 .656 .6452 .7334 9.3 -23.8)"/><use xlink:href="#ay" width="6.5" height="11.9" transform="matrix(-.9539 -.4223 -.0135 .8495 8.95 -12.05)"/><use xlink:href="#az" width="6.8" height="3.6" transform="matrix(.9402 .0901 .0159 1 -7.75 -3.45)"/><use xlink:href="#av" width="4.3" height="7.7" transform="matrix(-.9657 -.3115 -.2594 .923 .15 -7.2)"/><use xlink:href="#ay" width="6.5" height="11.9" transform="matrix(.7422 .7183 -.6234 .6339 1.2 -14.75)"/><use xlink:href="#aA" width="9.4" height="7.4" transform="matrix(1.0345 .1596 -.2057 .9984 1.15 -17.9)"/><use xlink:href="#aB" width="8.7" height="14.7" transform="matrix(.8729 .1195 -.4275 .9579 7.05 -27.1)"/><use xlink:href="#aC" width="9.8" height="12.3" transform="rotate(-10.258 -204.791 -17.54)scale(.9967)"/><use xlink:href="#aD" width="12.5" height="12.8" transform="matrix(.1598 .6633 -.9136 .3605 5.75 -15.45)"/><use xlink:href="#aE" width="5.3" height="5.3" transform="matrix(.0572 .5721 -.7608 .2417 2.2 -6.75)"/><use xlink:href="#aF" width="3.6" height="8.7" transform="matrix(.8411 .5273 -.4231 .8271 6.25 -25.6)"/><use xlink:href="#aw" width="4.5" height="7.6" transform="matrix(.504 .7811 -.8819 .5054 2.85 -21)"/><use xlink:href="#aG" width="4.6" height="5.3" transform="matrix(.4647 .9196 -.6977 .5925 -2.95 -18.7)"/></g></g><g clip-path="url(#bv)"><g transform="translate(1977.3 57.75)"><use xlink:href="#bt" width="5.9" height="5.5" transform="matrix(.2778 .4941 -.3322 .3516 18.15 -17.15)"/><use xlink:href="#au" width="5.2" height="3.1" transform="matrix(1 0 .1505 1 7.25 -.95)"/><use xlink:href="#av" width="4.3" height="7.7" transform="matrix(-.8426 .531 .5198 .8791 7.8 -7.8)"/><use xlink:href="#aw" width="4.5" height="7.6" transform="matrix(-.6884 .7219 .6029 .7421 14.75 -20.4)"/><use xlink:href="#ax" width="3.1" height="8.7" transform="matrix(-.7906 .6141 .5915 .7672 9.55 -23.8)"/><use xlink:href="#ay" width="6.5" height="11.9" transform="matrix(-.9539 -.4223 -.0135 .8495 8.95 -12.05)"/><use xlink:href="#az" width="6.8" height="3.6" transform="matrix(.9402 .0901 .0159 1 -7.75 -3.45)"/><use xlink:href="#av" width="4.3" height="7.7" transform="matrix(-.9657 -.3115 -.2594 .923 .15 -7.2)"/><use xlink:href="#ay" width="6.5" height="11.9" transform="matrix(.7422 .7183 -.6234 .6339 1.2 -14.75)"/><use xlink:href="#aA" width="9.4" height="7.4" transform="matrix(1.0345 .1596 -.2057 .9984 1.15 -17.9)"/><use xlink:href="#aB" width="8.7" height="14.7" transform="matrix(.8708 .1192 -.4085 .9608 6.8 -27.05)"/><use xlink:href="#aC" width="9.8" height="12.3" transform="matrix(.9808 -.1775 .1775 .9808 0 -36.7)"/><use xlink:href="#aD" width="12.5" height="12.8" transform="matrix(.2471 .6334 -.8822 .431 6 -15.3)"/><use xlink:href="#aE" width="5.3" height="5.3" transform="matrix(.1312 .5533 -.7421 .3018 3.5 -6.4)"/><use xlink:href="#aF" width="3.6" height="8.7" transform="matrix(.8245 .5526 -.448 .8137 6.15 -25.5)"/><use xlink:href="#aw" width="4.5" height="7.6" transform="matrix(.4848 .7967 -.8941 .4768 2.8 -21.1)"/><use xlink:href="#aG" width="4.6" height="5.3" transform="matrix(.4417 .9342 -.7127 .5692 -2.95 -19)"/></g></g><g clip-path="url(#bw)"><g transform="translate(2031.3 57.75)"><use xlink:href="#bt" width="5.9" height="5.5" transform="matrix(.2778 .4941 -.3322 .3516 17.8 -16.55)"/><use xlink:href="#au" width="5.2" height="3.1" transform="matrix(1 0 .1505 1 7.25 -.95)"/><use xlink:href="#av" width="4.3" height="7.7" transform="matrix(-.8426 .531 .5198 .8791 7.8 -7.8)"/><use xlink:href="#aw" width="4.5" height="7.6" transform="matrix(-.7397 .6808 .5516 .7712 14.75 -20.2)"/><use xlink:href="#ax" width="3.1" height="8.7" transform="matrix(-.8334 .5691 .5387 .7955 9.75 -23.7)"/><use xlink:href="#ay" width="6.5" height="11.9" transform="matrix(-.9539 -.4223 -.0135 .8495 8.95 -12.05)"/><use xlink:href="#az" width="6.8" height="3.6" transform="matrix(.9402 .0901 .0159 1 -7.75 -3.45)"/><use xlink:href="#av" width="4.3" height="7.7" transform="matrix(-.9657 -.3115 -.2594 .923 .15 -7.2)"/><use xlink:href="#ay" width="6.5" height="11.9" transform="matrix(.7422 .7183 -.6234 .6339 1.2 -14.75)"/><use xlink:href="#aA" width="9.4" height="7.4" transform="matrix(1.0345 .1596 -.2057 .9984 1.15 -17.9)"/><use xlink:href="#aB" width="8.7" height="14.7" transform="matrix(.8687 .1189 -.3863 .9645 6.6 -27.1)"/><use xlink:href="#aC" width="9.8" height="12.3" transform="matrix(.9808 -.1775 .1775 .9808 .2 -36.6)"/><use xlink:href="#aD" width="12.5" height="12.8" transform="matrix(.3293 .5921 -.8469 .4959 6.25 -15.05)"/><use xlink:href="#aE" width="5.3" height="5.3" transform="matrix(.2013 .5247 -.7199 .3583 4.8 -6.25)"/><use xlink:href="#aF" width="3.6" height="8.7" transform="matrix(.8072 .5774 -.4724 .7996 6.15 -25.25)"/><use xlink:href="#aw" width="4.5" height="7.6" transform="matrix(.4651 .8119 -.9054 .448 2.7 -21.3)"/><use xlink:href="#aG" width="4.6" height="5.3" transform="matrix(.4182 .9483 -.7252 .5479 -3.1 -19.4)"/></g></g><g clip-path="url(#bx)"><g transform="translate(2085.3 57.75)"><use xlink:href="#bt" width="5.9" height="5.5" transform="matrix(.2778 .4941 -.3322 .3516 17.5 -15.95)"/><use xlink:href="#au" width="5.2" height="3.1" transform="matrix(1 0 .1505 1 7.25 -.95)"/><use xlink:href="#av" width="4.3" height="7.7" transform="matrix(-.8426 .531 .5198 .8791 7.8 -7.8)"/><use xlink:href="#aw" width="4.5" height="7.6" transform="matrix(-.7865 .6387 .499 .7969 14.65 -19.9)"/><use xlink:href="#ax" width="3.1" height="8.7" transform="matrix(-.8738 .5212 .4848 .8202 9.85 -23.55)"/><use xlink:href="#ay" width="6.5" height="11.9" transform="matrix(-.9539 -.4223 -.0135 .8495 8.95 -12.05)"/><use xlink:href="#az" width="6.8" height="3.6" transform="matrix(.9402 .0901 .0159 1 -7.75 -3.45)"/><use xlink:href="#av" width="4.3" height="7.7" transform="matrix(-.9657 -.3115 -.2594 .923 .15 -7.2)"/><use xlink:href="#ay" width="6.5" height="11.9" transform="matrix(.7422 .7183 -.6234 .6339 1.2 -14.75)"/><use xlink:href="#aA" width="9.4" height="7.4" transform="matrix(1.0345 .1596 -.2057 .9984 1.15 -17.9)"/><use xlink:href="#aB" width="8.7" height="14.7" transform="matrix(.8665 .1186 -.3673 .9666 6.4 -27.15)"/><use xlink:href="#aC" width="9.8" height="12.3" transform="matrix(.9808 -.1775 .1775 .9808 .35 -36.55)"/><use xlink:href="#aD" width="12.5" height="12.8" transform="matrix(.4049 .5403 -.8051 .5607 6.55 -14.7)"/><use xlink:href="#aE" width="5.3" height="5.3" transform="matrix(.2666 .4875 -.6917 .4155 6.1 -6.1)"/><use xlink:href="#aF" width="3.6" height="8.7" transform="matrix(.7892 .6016 -.4965 .7847 6 -25.05)"/><use xlink:href="#aw" width="4.5" height="7.6" transform="matrix(.4422 .828 -.9157 .4189 2.65 -21.4)"/><use xlink:href="#aG" width="4.6" height="5.3" transform="matrix(.3943 .9617 -.7387 .5239 -3.1 -19.7)"/></g></g><g clip-path="url(#by)"><g transform="translate(2139.3 57.75)"><use xlink:href="#bt" width="5.9" height="5.5" transform="matrix(.2791 .4943 -.3328 .3521 17.2 -15.4)"/><use xlink:href="#au" width="5.2" height="3.1" transform="matrix(1 0 .1505 1 7.25 -.95)"/><use xlink:href="#av" width="4.3" height="7.7" transform="matrix(-.8426 .531 .5198 .8791 7.8 -7.8)"/><use xlink:href="#aw" width="4.5" height="7.6" transform="matrix(-.8337 .5921 .4453 .8206 14.65 -19.6)"/><use xlink:href="#ax" width="3.1" height="8.7" transform="matrix(-.9124 .4713 .4309 .8422 10.05 -23.5)"/><use xlink:href="#ay" width="6.5" height="11.9" transform="matrix(-.9539 -.4223 -.0135 .8495 8.95 -12.05)"/><use xlink:href="#az" width="6.8" height="3.6" transform="matrix(.9402 .0901 .0159 1 -7.75 -3.45)"/><use xlink:href="#av" width="4.3" height="7.7" transform="matrix(-.9657 -.3115 -.2594 .923 .15 -7.2)"/><use xlink:href="#ay" width="6.5" height="11.9" transform="matrix(.7422 .7183 -.6234 .6339 1.2 -14.75)"/><use xlink:href="#aA" width="9.4" height="7.4" transform="matrix(1.0345 .1596 -.2057 .9984 1.15 -17.9)"/><use xlink:href="#aB" width="8.7" height="14.7" transform="matrix(.8645 .1201 -.3493 .9691 6.1 -27.2)"/><use xlink:href="#aC" width="9.8" height="12.3" transform="rotate(-10.258 -202.83 -20.732)scale(.9973)"/><use xlink:href="#aD" width="12.5" height="12.8" transform="matrix(.4735 .4798 -.7591 .6235 6.75 -14.55)"/><use xlink:href="#aE" width="5.3" height="5.3" transform="matrix(.3265 .443 -.6597 .4718 7.25 -6.15)"/><use xlink:href="#aF" width="3.6" height="8.7" transform="matrix(.7728 .6248 -.5204 .7707 6 -24.85)"/><use xlink:href="#aw" width="4.5" height="7.6" transform="matrix(.4238 .8423 -.9252 .3924 2.6 -21.55)"/><use xlink:href="#aG" width="4.6" height="5.3" transform="matrix(.3709 .9754 -.7516 .5019 -3.15 -20.1)"/></g></g><g clip-path="url(#bz)"><g transform="translate(2193.3 57.75)"><use xlink:href="#bt" width="5.9" height="5.5" transform="matrix(.2791 .4943 -.3328 .3521 17.2 -15.4)"/><use xlink:href="#au" width="5.2" height="3.1" transform="matrix(1 0 .1505 1 7.25 -.95)"/><use xlink:href="#av" width="4.3" height="7.7" transform="matrix(-.8426 .531 .5198 .8791 7.8 -7.8)"/><use xlink:href="#aw" width="4.5" height="7.6" transform="matrix(-.8337 .5921 .4453 .8206 14.65 -19.6)"/><use xlink:href="#ax" width="3.1" height="8.7" transform="matrix(-.9124 .4713 .4309 .8422 10.05 -23.5)"/><use xlink:href="#ay" width="6.5" height="11.9" transform="matrix(-.9539 -.4223 -.0135 .8495 8.95 -12.05)"/><use xlink:href="#az" width="6.8" height="3.6" transform="matrix(.9402 .0901 .0159 1 -7.75 -3.45)"/><use xlink:href="#av" width="4.3" height="7.7" transform="matrix(-.9657 -.3115 -.2594 .923 .15 -7.2)"/><use xlink:href="#ay" width="6.5" height="11.9" transform="matrix(.7422 .7183 -.6234 .6339 1.2 -14.75)"/><use xlink:href="#aA" width="9.4" height="7.4" transform="matrix(1.0345 .1596 -.2057 .9984 1.15 -17.9)"/><use xlink:href="#aB" width="8.7" height="14.7" transform="matrix(.8645 .1201 -.3493 .9691 6.1 -27.2)"/><use xlink:href="#aC" width="9.8" height="12.3" transform="rotate(-10.258 -202.83 -20.732)scale(.9973)"/><use xlink:href="#aD" width="12.5" height="12.8" transform="matrix(.4735 .4798 -.7591 .6235 6.75 -14.55)"/><use xlink:href="#aE" width="5.3" height="5.3" transform="matrix(.3265 .443 -.6597 .4718 7.25 -6.15)"/><use xlink:href="#aF" width="3.6" height="8.7" transform="matrix(.7728 .6248 -.5204 .7707 6 -24.85)"/><use xlink:href="#aw" width="4.5" height="7.6" transform="matrix(.4238 .8423 -.9252 .3924 2.6 -21.55)"/><use xlink:href="#aG" width="4.6" height="5.3" transform="matrix(.3709 .9754 -.7516 .5019 -3.15 -20.1)"/></g></g><g clip-path="url(#bA)"><g transform="translate(2247.3 57.75)"><use xlink:href="#bt" width="5.9" height="5.5" transform="matrix(.2791 .4943 -.3328 .3521 17.2 -15.4)"/><use xlink:href="#au" width="5.2" height="3.1" transform="matrix(1 0 .1505 1 7.25 -.95)"/><use xlink:href="#av" width="4.3" height="7.7" transform="matrix(-.8426 .531 .5198 .8791 7.8 -7.8)"/><use xlink:href="#aw" width="4.5" height="7.6" transform="matrix(-.8337 .5921 .4453 .8206 14.65 -19.6)"/><use xlink:href="#ax" width="3.1" height="8.7" transform="matrix(-.9124 .4713 .4309 .8422 10.05 -23.5)"/><use xlink:href="#ay" width="6.5" height="11.9" transform="matrix(-.9539 -.4223 -.0135 .8495 8.95 -12.05)"/><use xlink:href="#az" width="6.8" height="3.6" transform="matrix(.9402 .0901 .0159 1 -7.75 -3.45)"/><use xlink:href="#av" width="4.3" height="7.7" transform="matrix(-.9657 -.3115 -.2594 .923 .15 -7.2)"/><use xlink:href="#ay" width="6.5" height="11.9" transform="matrix(.7422 .7183 -.6234 .6339 1.2 -14.75)"/><use xlink:href="#aA" width="9.4" height="7.4" transform="matrix(1.0345 .1596 -.2057 .9984 1.15 -17.9)"/><use xlink:href="#aB" width="8.7" height="14.7" transform="matrix(.8645 .1201 -.3493 .9691 6.1 -27.2)"/><use xlink:href="#aC" width="9.8" height="12.3" transform="rotate(-10.258 -202.83 -20.732)scale(.9973)"/><use xlink:href="#aD" width="12.5" height="12.8" transform="matrix(.4735 .4798 -.7591 .6235 6.75 -14.55)"/><use xlink:href="#aE" width="5.3" height="5.3" transform="matrix(.3265 .443 -.6597 .4718 7.25 -6.15)"/><use xlink:href="#aF" width="3.6" height="8.7" transform="matrix(.7728 .6248 -.5204 .7707 6 -24.85)"/><use xlink:href="#aw" width="4.5" height="7.6" transform="matrix(.4238 .8423 -.9252 .3924 2.6 -21.55)"/><use xlink:href="#aG" width="4.6" height="5.3" transform="matrix(.3709 .9754 -.7516 .5019 -3.15 -20.1)"/></g></g><g clip-path="url(#bB)"><g transform="translate(2301.3 57.75)"><use xlink:href="#bt" width="5.9" height="5.5" transform="matrix(.2791 .4943 -.3328 .3521 17.2 -15.4)"/><use xlink:href="#au" width="5.2" height="3.1" transform="matrix(1 0 .1505 1 7.25 -.95)"/><use xlink:href="#av" width="4.3" height="7.7" transform="matrix(-.8426 .531 .5198 .8791 7.8 -7.8)"/><use xlink:href="#aw" width="4.5" height="7.6" transform="matrix(-.8337 .5921 .4453 .8206 14.65 -19.6)"/><use xlink:href="#ax" width="3.1" height="8.7" transform="matrix(-.9124 .4713 .4309 .8422 10.05 -23.5)"/><use xlink:href="#ay" width="6.5" height="11.9" transform="matrix(-.9539 -.4223 -.0135 .8495 8.95 -12.05)"/><use xlink:href="#az" width="6.8" height="3.6" transform="matrix(.9402 .0901 .0159 1 -7.75 -3.45)"/><use xlink:href="#av" width="4.3" height="7.7" transform="matrix(-.9657 -.3115 -.2594 .923 .15 -7.2)"/><use xlink:href="#ay" width="6.5" height="11.9" transform="matrix(.7422 .7183 -.6234 .6339 1.2 -14.75)"/><use xlink:href="#aA" width="9.4" height="7.4" transform="matrix(1.0345 .1596 -.2057 .9984 1.15 -17.9)"/><use xlink:href="#aB" width="8.7" height="14.7" transform="matrix(.8645 .1201 -.3493 .9691 6.1 -27.2)"/><use xlink:href="#aC" width="9.8" height="12.3" transform="rotate(-10.258 -202.83 -20.732)scale(.9973)"/><use xlink:href="#aD" width="12.5" height="12.8" transform="matrix(.4735 .4798 -.7591 .6235 6.75 -14.55)"/><use xlink:href="#aE" width="5.3" height="5.3" transform="matrix(.3265 .443 -.6597 .4718 7.25 -6.15)"/><use xlink:href="#aF" width="3.6" height="8.7" transform="matrix(.7728 .6248 -.5204 .7707 6 -24.85)"/><use xlink:href="#aw" width="4.5" height="7.6" transform="matrix(.4238 .8423 -.9252 .3924 2.6 -21.55)"/><use xlink:href="#aG" width="4.6" height="5.3" transform="matrix(.3709 .9754 -.7516 .5019 -3.15 -20.1)"/></g></g></svg>