<svg xmlns="http://www.w3.org/2000/svg" xmlns:xlink="http://www.w3.org/1999/xlink" width="80" height="96" viewBox="0 0 80 96"><defs><g id="b"><path fill="#795200" d="M2.8.5Q4-.1 6 1.3l.7.6q2.4 1.7 2.6 4.8l.1 12.8.2 9 .4 11.7q.2 4.7-4.8 3.8l-.2-.1-.7-.2v-1.5l.3-.4.5.4.6.4-.6-.4-.5-.5q1.9-3.2 2-21.7-3.6.5-5.2-2.4v-.2z"/><path fill="#960" d="m4.4 43.7-.3-.1q-3-1-3.6-3.5l.8-19.9.1-2.6q1.7 2.9 5.3 2.4-.1 18.6-2 21.8Q3 40.3 2 40.2q.9.1 2.8 1.6l-.3.4z"/><path fill="none" stroke="#312c11" stroke-linecap="round" stroke-linejoin="round" stroke-width="1" d="m9.4 6.7.1 12.8.2 9 .4 11.7q.2 4.7-4.8 3.8l-.2-.1-.7-.2-.3-.1q-3-1-3.6-3.5"/><path fill="none" stroke="#554d1e" stroke-linecap="round" stroke-linejoin="round" stroke-width="1" d="m.5 40.2.8-20 .1-2.6v-.3L2.8.5"/><path fill="none" stroke="#312c11" stroke-linecap="round" stroke-linejoin="round" stroke-width="1" d="m4.8 41.8.5.4.5.4M2 40.2q.9.1 2.7 1.6"/><path fill="none" stroke="#000" stroke-linecap="round" stroke-linejoin="round" stroke-opacity=".8" stroke-width="1" d="M1 24.2q1.5-1.3 1.9.3"/></g><g id="s"><path fill="#dadc43" d="M2.6.1q-.2.2 1.2 1.1t1.4 2.2-1 2.4-1.6 1T.8 5.6.5 3.1L2 .8z"/><path fill="none" stroke="#b7ba3a" stroke-linecap="round" stroke-linejoin="round" stroke-opacity=".9" stroke-width="__RESOLUTION__" d="M2.6.1q-.2.2 1.2 1.1t1.4 2.2-1 2.4-1.6 1T.8 5.6.5 3.1L2 .8" vector-effect="non-scaling-stroke"/><path fill="none" stroke="#99a82f" stroke-linecap="round" stroke-linejoin="round" stroke-width="__RESOLUTION__" d="m2 .8.6-.7" vector-effect="non-scaling-stroke"/></g><g id="r"><path fill="#a7a829" d="M2.6.1q-.2.2 1.2 1.1t1.4 2.2-1 2.4-1.6 1T.8 5.6.5 3.1L2 .8z"/><path fill="none" stroke="#838520" stroke-linecap="round" stroke-linejoin="round" stroke-opacity=".9" stroke-width="__RESOLUTION__" d="M2.6.1q-.2.2 1.2 1.1t1.4 2.2-1 2.4-1.6 1T.8 5.6.5 3.1L2 .8" vector-effect="non-scaling-stroke"/><path fill="none" stroke="#647215" stroke-linecap="round" stroke-linejoin="round" stroke-width="__RESOLUTION__" d="m2 .8.6-.7" vector-effect="non-scaling-stroke"/></g><g id="q"><path fill="#cbc433" d="M2.6.1q-.2.2 1.2 1.1t1.4 2.2-1 2.4-1.6 1T.8 5.6.5 3.1L2 .8z"/><path fill="none" stroke="#9e9928" stroke-linecap="round" stroke-linejoin="round" stroke-opacity=".9" stroke-width="__RESOLUTION__" d="M2.6.1q-.2.2 1.2 1.1t1.4 2.2-1 2.4-1.6 1T.8 5.6.5 3.1L2 .8" vector-effect="non-scaling-stroke"/><path fill="none" stroke="#78821a" stroke-linecap="round" stroke-linejoin="round" stroke-width="__RESOLUTION__" d="m2 .8.6-.7" vector-effect="non-scaling-stroke"/></g><g id="p"><path fill="#8b931d" d="M2.6.1q-.2.2 1.2 1.1t1.4 2.2-1 2.4-1.6 1T.8 5.6.5 3.1L2 .8z"/><path fill="none" stroke="#8b931d" stroke-linecap="round" stroke-linejoin="round" stroke-opacity=".9" stroke-width="__RESOLUTION__" d="M2.6.1q-.2.2 1.2 1.1t1.4 2.2-1 2.4-1.6 1T.8 5.6.5 3.1L2 .8" vector-effect="non-scaling-stroke"/><path fill="none" stroke="#8b931d" stroke-linecap="round" stroke-linejoin="round" stroke-width="__RESOLUTION__" d="m2 .8.6-.7" vector-effect="non-scaling-stroke"/></g><g id="o"><path fill="#bfc539" d="M2.6.1q-.2.2 1.2 1.1t1.4 2.2-1 2.4-1.6 1T.8 5.6.5 3.1L2 .8z"/><path fill="none" stroke="#a0a732" stroke-linecap="round" stroke-linejoin="round" stroke-opacity=".9" stroke-width="__RESOLUTION__" d="M2.6.1q-.2.2 1.2 1.1t1.4 2.2-1 2.4-1.6 1T.8 5.6.5 3.1L2 .8" vector-effect="non-scaling-stroke"/><path fill="none" stroke="#869828" stroke-linecap="round" stroke-linejoin="round" stroke-width="__RESOLUTION__" d="m2 .8.6-.7" vector-effect="non-scaling-stroke"/></g><g id="n"><path fill="#949823" d="M2.6.1q-.2.2 1.2 1.1t1.4 2.2-1 2.4-1.6 1T.8 5.6.5 3.1L2 .8z"/><path fill="none" stroke="#747a1c" stroke-linecap="round" stroke-linejoin="round" stroke-opacity=".9" stroke-width="__RESOLUTION__" d="M2.6.1q-.2.2 1.2 1.1t1.4 2.2-1 2.4-1.6 1T.8 5.6.5 3.1L2 .8" vector-effect="non-scaling-stroke"/><path fill="none" stroke="#596a12" stroke-linecap="round" stroke-linejoin="round" stroke-width="__RESOLUTION__" d="m2 .8.6-.7" vector-effect="non-scaling-stroke"/></g><g id="m"><path fill="#b3b12c" d="M2.6.1q-.2.2 1.2 1.1t1.4 2.2-1 2.4-1.6 1T.8 5.6.5 3.1L2 .8z"/><path fill="none" stroke="#8b8b22" stroke-linecap="round" stroke-linejoin="round" stroke-opacity=".9" stroke-width="__RESOLUTION__" d="M2.6.1q-.2.2 1.2 1.1t1.4 2.2-1 2.4-1.6 1T.8 5.6.5 3.1L2 .8" vector-effect="non-scaling-stroke"/><path fill="none" stroke="#6a7716" stroke-linecap="round" stroke-linejoin="round" stroke-width="__RESOLUTION__" d="m2 .8.6-.7" vector-effect="non-scaling-stroke"/></g><g id="l"><path fill="#9ea026" d="M2.6.1q-.2.2 1.2 1.1t1.4 2.2-1 2.4-1.6 1T.8 5.6.5 3.1L2 .8z"/><path fill="none" stroke="#7c801e" stroke-linecap="round" stroke-linejoin="round" stroke-opacity=".9" stroke-width="__RESOLUTION__" d="M2.6.1q-.2.2 1.2 1.1t1.4 2.2-1 2.4-1.6 1T.8 5.6.5 3.1L2 .8" vector-effect="non-scaling-stroke"/><path fill="none" stroke="#5f6e13" stroke-linecap="round" stroke-linejoin="round" stroke-width="__RESOLUTION__" d="m2 .8.6-.7" vector-effect="non-scaling-stroke"/></g><g id="k"><path fill="#3f600f" d="M18.9 6.9q-.6.8-1.5 1l-.1.1-.2.2h.5q2.1.2 2.6 1.2l.9 1.9.1.4h-1.9l-1.7-.2q0 .5 2 1.5 2.2 1.1 2.4 3.2.5-.8 1.5-1.1l3.5-1.3 1.1-.3q-.4.1.2 2t-.4 3.5q-1 1.3-2.5 1.7l-.1.1-.4.3h.9q3.3.3 4.1 2l1.4 3 .3.8-3.1-.1q-3.1 0-5.1-1.1l-.6-.3q.1 1-.2 1.9l-1.3 2.9-.4.8q.1-.4-1.1-2.3-1.2-2-1.3-4.2-.1-1.3.1-2.2-.6.5-1 .5h-.1q-.2.3.3 1.6.4 1.5-.5 2.6-.6 1-1.8 1.3l-.1.1-.2.2h.6q2.6.2 3.2 1.5l1 2.3.3.7-2.4-.2q-2.3 0-4-.8l-.4-.2q.1.8-.2 1.4l-.9 2.2-.3.6-.8-1.7q-1-1.5-1-3.1V31l-.7.8-.2-.8-.1-1.2-1.7-1.1h-.3l-1.4-.6q.4 1.1.3 1.5l-.3.5.9-.7q.4-.1.8.8h.7q.7.3.7.7-.1.4-1.3 2-1 1.2-1.8 1.5l-.8.8q-1.6 1.2-1.6 1.5l-.1-.6-.2-1.6h-.3l.3-.2-.1-.3q-.1-1.3 1.6-2.8l1-1-.7.5q-1.1.6-2.1.3t-1.3-1.5-.6-1.2l.7-.3 2.2-.9q.7-.2 1.2 0-.6-1.2.2-2.7t.5-1.7l.4.1-.1-.2-.5-2.4-.2-.7 1 1.2.7-.3 3-1.1h1.5q-.7-1.6.3-3.7 1-2 .6-2.2l.7.2-.1-.4-.8-3.1-.2-.9 1.1 1.3v-.3l.1-1.4-.6.3q-.5.1-1.7-.9h-.2q-.7 0-1.2-.4.4.9.3 1.2l-.1.2.6-.4q.3 0 .6.6v.1h.5q.7.2.6.6t-1 1.6q-.8 1-1.5 1.2l-.6.6-1.3 1.1-.1-.4-.1-1.2h-.3l.3-.3-.1-.2q-.1-1 1.3-2.3l.6-.6-.3.2q-1 .6-1.8.3T6.2 9t-.5-1l.6-.2L8 7.2 9 7q-.6-1 .1-2.2t.4-1.4l.4.2v-.3l-.5-1.8-.1-.6.8 1 1.4 1.8.6-.8.5-.8q-.2.2 1.3 1 1.3.7 1.4 2 .3-.5.9-.7l2.2-.8.7-.2q-.3.1.1 1.3t-.3 2.1M22 16q-.5.8-.4 2l.1.6-.1-.5q-.1-1.3.4-2M11 8.3l-.2-.3q-1.4-1-.4-2.6l.3-.4.3.5 1.1 1q.2 0 0-.8t-.6-2q.6 1.1.7 2t-.1.8l-1.1-1-.3-.5-.3.4q-1 1.6.4 2.7zM9.9 3.5l.8 1.5zm5.4 1.6q-.3.4-.2 1.1v.3-.3q-.1-.7.2-1.1M7.5 13h2.1-.4zm7.7-5.9q.1.6.4.8T17 8h.3-.3q-1.3.2-1.6 0-.2-.2-.3-.8h-.3l-.4.5.4.7.2-.2h2-2l-.2.2-.5-.7.4-.5.3-.6zm-1.9 1.7.3-.6.8-.6-.8.6zm1.6-.5.5 1 .4 1.4-.4-1.4zm.4 4.6-1.9-2.2-.2-.2.3.2zl.3-1q.3-.6.2-1.2l.4.2 1.3.5.1-.2v.2-.2l-.1.2-.8 1-1 1.4zM9.8 9.3l-.5.5zM9 7.1l.6.7v.1-.1zm2 2.5-1.1.5q-1 .6-1.7 1.8l-.7 1 .7-1q.7-1.2 1.7-1.8zm2.2 4.1q.3 1.2 1.2 2.4l-.4.7q-1.6 2.5.6 4.3l.4.4-.4-.4q-2.2-1.8-.6-4.3l.4-.7q-.9-1.2-1.2-2.4m1.2 2.4.6.7 1.7 1.7q.3 0 .1-1.4t-1-3.1q.9 1.8 1 3.1.2 1.4-.1 1.4L15 16.8zm.2 5.3q-1.1-.2-1.9-.7.7 1.4.5 1.9l-.2.4q.6-.6.9-.6.6-.2 1.1 1h.7l1-.3.7-.3q-.8-.1-2.4-1.3zm1.1 2q1 .4 1 .9-.1.5-1.7 2.7l-1.6 1.5-.8.4-.7.2H9.5l-.3-.1h-.4l.4-.3 1.1-1.7q1.1-1.7 2.5-2.7l.4-.2q1-.7 1.8-.8-.8.1-1.8.8l-.4.2q-1.4 1-2.5 2.7l-1.1 1.7-.4.3h.7l1.5.1h1l.7-.2.8-.3v-.1l1.6-1.5q1.6-2.2 1.7-2.7t-1-.8zm1.7-.5h.1zm-4.4 0-.6.6-.2.1-.6.4q-1.4.9-2.8.5h-.1q-.6-.2-1-.6l-.3-.6-.3-.8q-.5-1.8-.8-1.6h.2-.2q.3-.1.8 1.6l.3.8.4.6q.3.4.9.6h.1q1.4.4 2.8-.5l.6-.4.2-.1zm-1.4-3.5q.6.2 1 1l.1.3-.1-.3q-.4-.8-1-1m.6 4.2-1.1 1q-2.2 2-2 3.7v.4-.4q-.2-1.6 2-3.7zm-3.5.9.3 1q.1 1.1-.1 1.1l-1.3-1.3-.4-.5-1-1.9 1 1.9.4.5 1.3 1.3q.2 0 0-1zm.5 4.5v.9zm3.6-.1-.3.3-.6.4-.3.3-1.3 1.2 1.3-1.2.3-.2.6-.6zm-.3.3.4.6.1.3.5 1.7-.5-1.7-.1-.3zm3-.9-.4.1-1 .2h-.4l-.2-.1h.6l1-.1zm-1.8.2h-.2zm1.5.1h-1.1zm-8-3.8-.4.5q-1.2 1.9.5 3.3l.3.2-.3-.2q-1.7-1.4-.5-3.3zm-1.3 3.4-.1-.2q-.3-.6-.7-.8.4.2.7.8zm1.7 2.1q-.6 0-1.4.5-1.2.7-2.1 2.2l-1 1.4 1-1.3q.9-1.6 2.1-2.3.8-.5 1.4-.5m-1.8 0 .1-.2zm-2.6 4.3h2.1l.6-.1-.6.1zM25 21h-1.5l1.3-.2.6-.1-.6.1-1.3.2zm-3.2-1.5q.2 1 .6 1.3l.6.2-1.4.2-.3.2-.7-1 .7-.9-.7 1 .7 1 .3-.4L23 21l-.6-.2q-.4-.2-.6-1.3l-.1-.8-.4.8zm-3.1 2.9q.2-.7.5-1.1.9-1.2 1.3-1l.1.2-.1-.1q-.4-.3-1.3.9zm2.6-.8.8 1.6q.6 1.2.7 2.3-.1-1.1-.7-2.3zM23 21h.5z"/><path fill="none" stroke="#516010" stroke-linecap="round" stroke-linejoin="round" stroke-width="2" d="M18.9 6.9q-.6.8-1.5 1l-.1.1-.2.2h.5q2.1.2 2.6 1.2l.9 1.9.1.4h-1.9l-1.7-.2q0 .5 2 1.5 2.2 1.1 2.4 3.2.5-.8 1.5-1.1l3.5-1.3 1.1-.3q-.4.1.2 2t-.4 3.5q-1 1.3-2.5 1.7l-.1.1-.4.3h.9q3.3.3 4.1 2l1.4 3 .3.8-3.1-.1q-3.1 0-5.1-1.1l-.6-.3q.1 1-.2 1.9l-1.3 2.9-.4.8q.1-.4-1.1-2.3-1.2-2-1.3-4.2-.1-1.3.1-2.2-.6.5-1 .5h-.1q-.2.3.3 1.6.4 1.5-.5 2.6-.6 1-1.8 1.3l-.1.1-.2.2h.6q2.6.2 3.2 1.5l1 2.3.3.7-2.4-.2q-2.3 0-4-.8l-.4-.2q.1.8-.2 1.4l-.9 2.2-.3.6-.8-1.7q-1-1.5-1-3.1V31l-.7.8-.2-.8-.1-1.2-1.7-1.1h-.3l-1.4-.6q.4 1.1.3 1.5l-.3.5.9-.7q.4-.1.8.8h.7q.7.3.7.7-.1.4-1.3 2-1 1.2-1.8 1.5l-.8.8q-1.6 1.2-1.6 1.5l-.1-.6-.2-1.6h-.3l.3-.2-.1-.3q-.1-1.3 1.6-2.8l1-1-.7.5q-1.1.6-2.1.3t-1.3-1.5-.6-1.2l.7-.3 2.2-.9q.7-.2 1.2 0-.6-1.2.2-2.7t.5-1.7l.4.1-.1-.2-.5-2.4-.2-.7 1 1.2v0l.7-.3 3-1.1h1.5q-.7-1.6.3-3.7 1-2 .6-2.2l.7.2-.1-.4-.8-3.1-.2-.9 1.1 1.3v-.3l.1-1.4-.6.3q-.5.1-1.7-.9h-.2q-.7 0-1.2-.4.4.9.3 1.2l-.1.2.6-.4q.3 0 .6.6v.1h.5q.7.2.6.6t-1 1.6q-.8 1-1.5 1.2l-.6.6-1.3 1.1-.1-.4-.1-1.2h-.3l.3-.3-.1-.2q-.1-1 1.3-2.3l.6-.6-.3.2q-1 .6-1.8.3T6.2 9t-.5-1l.6-.2L8 7.2 9 7q-.6-1 .1-2.2t.4-1.4l.4.2v-.3l-.5-1.8-.1-.6.8 1 1.4 1.8.6-.8.5-.8q-.2.2 1.3 1 1.3.7 1.4 2 .3-.5.9-.7l2.2-.8.7-.2q-.3.1.1 1.3t-.3 2.1m2.8 11.8-.1-.5q-.1-1.3.4-2M11.5 3.7q.6 1.1.7 2t-.1.8l-1.1-1-.3-.5-.3.4q-1 1.6.4 2.7l.2.2M10.7 5l-.8-1.4m5.2 2.9v-.2q-.1-.8.2-1.2M9.6 13l-.4.1H7.5M17.4 8h-.3q-1.3.2-1.6 0-.2-.2-.3-.8h-.4l-.4.5.5.7.2-.2h2m-2.7-.4-.8.5-.3.6m2.5 1.9-.4-1.3-.5-1m-1.7 2.1.2.3 1.8 2.2.4-1.1q.2-.5.2-1.2l.3.2 1.3.5.2-.1v.1m-2.4 1.6.5.8h0l1-1.3.7-1.1M9.3 9.8l.5-.5m-.2-1.4L9 7m-1.5 5.8.7-1q.7-1.3 1.7-1.9l1.2-.4m3.9 12-.4-.4q-2.2-1.9-.6-4.3l.4-.7q-.9-1.2-1.2-2.4m2.6.2q.8 1.8 1 3.2t-.1 1.4L15 16.8l-.6-.7m.4-8.9.3-.6.1.6m-.7 14.2q-1-.2-1.8-.7.6 1.4.5 1.9l-.2.3q.6-.5.9-.5.5-.2 1.1 1h.7l1-.3.7-.3q-.8-.1-2.4-1.4zm.5 2q-.8 0-1.9.6l-.3.3q-1.4 1-2.5 2.7l-1.2 1.7-.3.2.3.1h.4l1.4.1h1l.8-.2.7-.3.1-.1 1.5-1.6q1.7-2.1 1.8-2.6 0-.6-1-.9h-.1m1.8-.6h-.1m-11-2-.1.1q.3-.2.7 1.5l.3.9.4.5q.4.4 1 .6l.1.1q1.3.4 2.7-.5l.7-.4.1-.1.7-.5m-.3-2.3-.1-.3q-.4-.8-1-1m-2.4 9.3-.1-.4q-.2-1.6 2-3.7l1.1-1m-6-.7 1 1.9.3.5L9 26.6q.2 0 0-1l-.2-1.2m.6 5.5-.1-.9m1 2 1.4-1.1.3-.2.6-.5.3-.3m.7 3L13 30l-.1-.3-.4-.6m1-.7h.6l1-.1.4-.1m-1.5.3h1.1m-7.7.2-.2-.2q-1.7-1.4-.5-3.2l.3-.6m-2 2.5q.4.1.6.7l.1.2M3 34.3 4 33q.9-1.5 2.1-2.2.8-.5 1.4-.6m-1.7-.1h-.2m.2 4.3-.6.1h-2m22.2-13.9-.6.2-1.4.1H25m-3.6-1.5-.7 1 .7 1 .3-.4H23l-.6-.2q-.4-.2-.6-1.3zl.4-.8.1.8m-1.2 1-.1-.2q-.4-.2-1.3 1l-.5 1m4.1 3q-.2-1-.7-2.2l-.8-1.7m2.1-.4H23"/></g><g id="g"><path fill="#795200" d="M5.7 2.4v.4q-.9 1.8-2.1 3v-.1Q1.4 4.4.5 2.5q2.8-4.9 5.2-.1"/><path fill="none" stroke="#312c11" stroke-linecap="round" stroke-linejoin="round" stroke-width="1" d="M5.7 2.4v.4q-.9 1.8-2.1 3v-.1Q1.4 4.4.5 2.5"/></g><path id="a" fill="none" stroke="#000" stroke-linecap="round" stroke-linejoin="round" stroke-opacity=".8" stroke-width="1" d="M5.8 2.7Q4.4.7 3 1.9M0 .6Q1.5-.7 1.9.9" transform="translate(.5 .5)"/><path id="c" fill="#241506" fill-opacity=".3" d="m0-3 8.8.9q3.6.9 3.6 2.1T8.8 2L0 3q-5.1 0-8.7-1-3.7-.8-3.6-2-.1-1.2 3.6-2.1z" transform="translate(12.35 2.95)"/><path id="h" fill="#554d1e" d="M9.2-4.6 7.9-8.4l1.5-.4L11-5.5l1.6-.3 1.8-2.9 1 .7-1 2.9 4.2 2.2-.5 1.6-3-.7Q6.9 2.6-1.3 3.3l.8-7.1q4 2 8.9 1.6z" transform="translate(1.3 8.8)"/><path id="f" fill="#000" d="M4.5-2.3 3.8.5l-8.3 1.9L.4-2z" transform="translate(4.5 2.3)"/><use xlink:href="#a" id="j" width="6.8" height="3.7"/><use xlink:href="#b" id="i" width="10.6" height="44.6"/><use xlink:href="#c" id="e" width="24.8" height="5.9"/><clipPath id="d"><path d="M1 1h78v94H1z"/></clipPath></defs><g clip-path="url(#d)"><g transform="translate(38.6 90.15)"><use xlink:href="#e" width="24.8" height="5.9" transform="matrix(.6768 0 0 1.4218 -9 -4.45)"/><use xlink:href="#f" width="9" height="4.7" transform="matrix(.6664 -.2622 1.3991 .6062 -4.05 .6)"/><use xlink:href="#f" width="9" height="4.7" transform="matrix(.6622 .3246 .0365 .9195 -7.9 -6.65)"/><use xlink:href="#g" width="6.2" height="6.3" transform="rotate(43.34 11.877 -9.528)scale(.9984)"/><use xlink:href="#h" width="20" height="12.1" transform="rotate(232.64 -6.06 -6.4)scale(.442)"/><use xlink:href="#i" width="10.6" height="44.6" transform="translate(-5.05 -46.95)"/><use xlink:href="#h" width="20" height="12.1" transform="matrix(.4201 .1392 .1392 -.4201 2.5 -12.6)"/><use xlink:href="#j" width="6.8" height="3.7" transform="translate(-4.25 -24.15)"/><use xlink:href="#k" width="32.6" height="37.8" transform="rotate(81.749 41.9 -15.8)scale(-1.0585 1.0585)"/><use xlink:href="#l" width="5.3" height="6.9" transform="matrix(-.4255 .8658 -.8044 -.3476 16.3 -66.7)"/><use xlink:href="#l" width="5.3" height="6.9" transform="matrix(-.6496 .3272 -.2526 -.6353 12.7 -60.55)"/><use xlink:href="#l" width="5.3" height="6.9" transform="matrix(.4246 .2852 -.031 .7124 8.45 -73)"/><use xlink:href="#l" width="5.3" height="6.9" transform="matrix(.0941 -.7506 .8467 -.5391 3.4 -58.85)"/><use xlink:href="#m" width="5.3" height="6.9" transform="matrix(-.0408 -1.1192 -1.102 .1598 16.25 -65)"/><use xlink:href="#n" width="5.3" height="6.9" transform="matrix(-.576 -.568 -.6177 .6535 15.2 -73)"/><use xlink:href="#o" width="5.3" height="6.9" transform="matrix(.6342 -.201 .3323 -.8262 3.9 -60.05)"/><use xlink:href="#o" width="5.3" height="6.9" transform="matrix(-.2798 .8887 .6925 .8696 5.4 -77.75)"/><use xlink:href="#m" width="5.3" height="6.9" transform="matrix(-.0681 -.3302 -.9398 -.3099 18.1 -63.65)"/><use xlink:href="#m" width="5.3" height="6.9" transform="matrix(.3777 .5113 1.0213 -.1112 2.05 -69.45)"/><use xlink:href="#p" width="5.3" height="6.9" transform="matrix(-.527 1.0722 -.9962 -.4305 -3 -60.3)"/><use xlink:href="#p" width="5.3" height="6.9" transform="matrix(-.8044 .4052 -.3128 -.7867 -7.5 -52.75)"/><use xlink:href="#p" width="5.3" height="6.9" transform="matrix(.5258 .3532 -.0384 .8822 -12.75 -68.15)"/><use xlink:href="#p" width="5.3" height="6.9" transform="matrix(.1165 -.9296 1.0486 -.6677 -19.05 -50.7)"/><use xlink:href="#p" width="5.3" height="6.9" transform="matrix(-.0506 -1.386 -1.3647 .1979 -3.05 -58.25)"/><use xlink:href="#p" width="5.3" height="6.9" transform="matrix(-.7133 -.7035 -.7649 .8093 -4.35 -68.2)"/><use xlink:href="#p" width="5.3" height="6.9" transform="matrix(.7854 -.249 .4115 -1.0231 -18.4 -52.1)"/><use xlink:href="#p" width="5.3" height="6.9" transform="matrix(-.3465 1.1006 .8576 1.077 -16.55 -74.05)"/><use xlink:href="#p" width="5.3" height="6.9" transform="matrix(-.0843 -.4089 -1.1638 -.3838 -.75 -56.65)"/><use xlink:href="#p" width="5.3" height="6.9" transform="matrix(.4678 .6332 1.2647 -.1377 -20.65 -63.85)"/><use xlink:href="#m" width="5.3" height="6.9" transform="matrix(-.6941 1.4123 -1.3121 -.567 6.15 -69.65)"/><use xlink:href="#m" width="5.3" height="6.9" transform="matrix(-1.0596 .5336 -.412 -1.0362 .2 -59.75)"/><use xlink:href="#m" width="5.3" height="6.9" transform="matrix(.6926 .4652 -.0506 1.1621 -6.7 -80.05)"/><use xlink:href="#m" width="5.3" height="6.9" transform="matrix(.1534 -1.2244 1.3811 -.8795 -14.95 -57)"/><use xlink:href="#q" width="5.3" height="6.9" transform="matrix(-.0666 -1.8257 -1.7975 .2607 6.05 -67)"/><use xlink:href="#r" width="5.3" height="6.9" transform="matrix(-.9395 -.9266 -1.0076 1.066 4.4 -80.05)"/><use xlink:href="#s" width="5.3" height="6.9" transform="matrix(1.0345 -.3279 .542 -1.3476 -14.1 -58.9)"/><use xlink:href="#s" width="5.3" height="6.9" transform="matrix(-.4564 1.4497 1.1297 1.4185 -11.65 -87.8)"/><use xlink:href="#q" width="5.3" height="6.9" transform="matrix(-.1111 -.5386 -1.533 -.5055 9.1 -64.8)"/><use xlink:href="#q" width="5.3" height="6.9" transform="matrix(.6161 .834 1.6659 -.1814 -17.1 -74.25)"/><use xlink:href="#k" width="32.6" height="37.8" transform="matrix(-.5725 -.8888 -.7956 .7171 28.45 -59)"/><use xlink:href="#l" width="5.3" height="6.9" transform="matrix(.0205 1.0377 -.8094 .1197 20.25 -67.6)"/><use xlink:href="#l" width="5.3" height="6.9" transform="matrix(-.3938 .6609 -.479 -.4507 19.9 -59.95)"/><use xlink:href="#l" width="5.3" height="6.9" transform="matrix(.4707 .0312 .279 .6783 11 -69.2)"/><use xlink:href="#l" width="5.3" height="6.9" transform="matrix(-.2435 -.7485 .4652 -.9661 12.95 -53.3)"/><use xlink:href="#m" width="5.3" height="6.9" transform="matrix(-.5119 -1.0164 -.837 .7544 20.85 -66.05)"/><use xlink:href="#n" width="5.3" height="6.9" transform="matrix(-.7159 -.2105 -.2281 .9463 16.65 -72.95)"/><use xlink:href="#o" width="5.3" height="6.9" transform="matrix(.4351 -.5354 -.0801 -.9496 12.85 -54.65)"/><use xlink:href="#o" width="5.3" height="6.9" transform="matrix(.15 .9788 .9406 .4263 6.5 -71.95)"/><use xlink:href="#m" width="5.3" height="6.9" transform="matrix(-.1971 -.269 -.9045 .2292 22.9 -65.85)"/><use xlink:href="#m" width="5.3" height="6.9" transform="matrix(.5288 .2668 .7915 -.6649 7.3 -62.4)"/><use xlink:href="#p" width="5.3" height="6.9" transform="matrix(.0253 1.285 -1.0023 .1483 7.05 -51.1)"/><use xlink:href="#p" width="5.3" height="6.9" transform="matrix(-.4877 .8185 -.5931 -.5582 6.55 -41.6)"/><use xlink:href="#p" width="5.3" height="6.9" transform="matrix(.5829 .0387 .3455 .84 -4.4 -53)"/><use xlink:href="#p" width="5.3" height="6.9" transform="matrix(-.3016 -.9269 .576 -1.1964 -2.05 -33.3)"/><use xlink:href="#p" width="5.3" height="6.9" transform="matrix(-.6339 -1.2587 -1.0365 .9342 7.85 -49.2)"/><use xlink:href="#p" width="5.3" height="6.9" transform="matrix(-.8866 -.2607 -.2825 1.1719 2.55 -57.7)"/><use xlink:href="#p" width="5.3" height="6.9" transform="matrix(.5388 -.663 -.0992 -1.176 -2.1 -35)"/><use xlink:href="#p" width="5.3" height="6.9" transform="matrix(.1857 1.2121 1.1648 .528 -10 -56.5)"/><use xlink:href="#p" width="5.3" height="6.9" transform="matrix(-.244 -.3332 -1.1201 .2838 10.45 -48.9)"/><use xlink:href="#p" width="5.3" height="6.9" transform="matrix(.6549 .3304 .9801 -.8233 -8.9 -44.65)"/><use xlink:href="#m" width="5.3" height="6.9" transform="matrix(.0334 1.6926 -1.3202 .1953 10.55 -64.8)"/><use xlink:href="#m" width="5.3" height="6.9" transform="matrix(-.6424 1.0781 -.7813 -.7353 9.95 -52.3)"/><use xlink:href="#m" width="5.3" height="6.9" transform="matrix(.7678 .0509 .455 1.1065 -4.45 -67.35)"/><use xlink:href="#m" width="5.3" height="6.9" transform="matrix(-.3973 -1.2209 .7587 -1.5759 -1.35 -41.45)"/><use xlink:href="#q" width="5.3" height="6.9" transform="matrix(-.8349 -1.6579 -1.3652 1.2305 11.65 -62.25)"/><use xlink:href="#r" width="5.3" height="6.9" transform="matrix(-1.1678 -.3434 -.3721 1.5436 4.7 -73.55)"/><use xlink:href="#s" width="5.3" height="6.9" transform="matrix(.7097 -.8733 -.1307 -1.549 -1.45 -43.65)"/><use xlink:href="#s" width="5.3" height="6.9" transform="matrix(.2446 1.5966 1.5343 .6954 -11.85 -71.9)"/><use xlink:href="#q" width="5.3" height="6.9" transform="matrix(-.3214 -.4389 -1.4754 .3738 15.05 -61.95)"/><use xlink:href="#q" width="5.3" height="6.9" transform="matrix(.8626 .4353 1.291 -1.0845 -10.5 -56.35)"/><use xlink:href="#k" width="32.6" height="37.8" transform="matrix(-.9654 -.4018 -.4494 .9375 10.85 -60.1)"/><use xlink:href="#l" width="5.3" height="6.9" transform="matrix(.4942 .7851 -.7359 .4865 -1.15 -62.7)"/><use xlink:href="#l" width="5.3" height="6.9" transform="matrix(-.0826 .6985 -.6739 -.1118 2 -56.65)"/><use xlink:href="#l" width="5.3" height="6.9" transform="matrix(.4741 -.2056 .5825 .3837 -10.9 -59.4)"/><use xlink:href="#l" width="5.3" height="6.9" transform="matrix(-.58 -.4547 .0128 -.9671 -1.7 -48.15)"/><use xlink:href="#m" width="5.3" height="6.9" transform="matrix(-.9645 -.5292 -.4728 .9862 .25 -61.8)"/><use xlink:href="#n" width="5.3" height="6.9" transform="matrix(-.7955 .1878 .2096 .8363 -7.15 -65)"/><use xlink:href="#o" width="5.3" height="6.9" transform="matrix(.1803 -.6224 -.5122 -.6886 -2.45 -49.15)"/><use xlink:href="#o" width="5.3" height="6.9" transform="matrix(.5938 .6769 1.1136 -.132 -16.5 -59.3)"/><use xlink:href="#m" width="5.3" height="6.9" transform="matrix(-.3154 -.1101 -.7788 .6167 2.35 -62.7)"/><use xlink:href="#m" width="5.3" height="6.9" transform="matrix(.6385 -.0534 .4693 -.8954 -11.35 -52.45)"/><use xlink:href="#p" width="5.3" height="6.9" transform="matrix(.612 .9723 -.9113 .6024 -6.5 -43.6)"/><use xlink:href="#p" width="5.3" height="6.9" transform="matrix(-.1023 .865 -.8345 -.1385 -2.65 -36.1)"/><use xlink:href="#p" width="5.3" height="6.9" transform="matrix(.5871 -.2547 .7214 .4752 -18.45 -39.5)"/><use xlink:href="#p" width="5.3" height="6.9" transform="matrix(-.7182 -.5631 .0159 -1.1976 -7.25 -25.55)"/><use xlink:href="#p" width="5.3" height="6.9" transform="matrix(-1.1945 -.6553 -.5855 1.2213 -4.8 -42.45)"/><use xlink:href="#p" width="5.3" height="6.9" transform="matrix(-.9852 .2326 .2596 1.0357 -13.85 -46.5)"/><use xlink:href="#p" width="5.3" height="6.9" transform="matrix(.2233 -.7708 -.6344 -.8527 -8.05 -26.8)"/><use xlink:href="#p" width="5.3" height="6.9" transform="matrix(.7354 .8382 1.3791 -.1635 -25.5 -39.4)"/><use xlink:href="#p" width="5.3" height="6.9" transform="matrix(-.3906 -.1363 -.9645 .7637 -2.2 -43.55)"/><use xlink:href="#p" width="5.3" height="6.9" transform="matrix(.7907 -.0662 .5811 -1.1089 -19.2 -30.85)"/><use xlink:href="#m" width="5.3" height="6.9" transform="matrix(.8062 1.2807 -1.2004 .7935 -9.3 -55.85)"/><use xlink:href="#m" width="5.3" height="6.9" transform="matrix(-.1348 1.1393 -1.0992 -.1824 -4.25 -46.05)"/><use xlink:href="#m" width="5.3" height="6.9" transform="matrix(.7733 -.3354 .9502 .6259 -25.15 -50.5)"/><use xlink:href="#m" width="5.3" height="6.9" transform="matrix(-.946 -.7418 .0209 -1.5775 -10.25 -32.15)"/><use xlink:href="#q" width="5.3" height="6.9" transform="matrix(-1.5733 -.8632 -.7712 1.6087 -7.15 -54.45)"/><use xlink:href="#r" width="5.3" height="6.9" transform="matrix(-1.2976 .3064 .342 1.3642 -19.05 -59.65)"/><use xlink:href="#s" width="5.3" height="6.9" transform="matrix(.2941 -1.0153 -.8356 -1.1232 -11.35 -33.8)"/><use xlink:href="#s" width="5.3" height="6.9" transform="matrix(.9687 1.1041 1.8165 -.2154 -34.45 -50.35)"/><use xlink:href="#q" width="5.3" height="6.9" transform="matrix(-.5145 -.1795 -1.2704 1.006 -3.6 -55.85)"/><use xlink:href="#q" width="5.3" height="6.9" transform="matrix(1.0415 -.0871 .7654 -1.4606 -26.05 -39.1)"/><use xlink:href="#k" width="32.6" height="37.8" transform="matrix(-1.0636 .0237 .1651 1.0146 12 -68.9)"/><use xlink:href="#l" width="5.3" height="6.9" transform="matrix(.8846 .5049 -.3453 .7255 .2 -66.45)"/><use xlink:href="#l" width="5.3" height="6.9" transform="matrix(.3392 .656 -.6433 .1671 6.45 -62.3)"/><use xlink:href="#l" width="5.3" height="6.9" transform="matrix(.2857 -.3712 .7247 .1117 -6.2 -59.7)"/><use xlink:href="#l" width="5.3" height="6.9" transform="matrix(-.7642 -.1761 -.5568 -.8681 8.25 -53.3)"/><use xlink:href="#m" width="5.3" height="6.9" transform="matrix(-1.1376 -.0903 .1737 1.0673 1.95 -66.2)"/><use xlink:href="#n" width="5.3" height="6.9" transform="matrix(-.5717 .4827 .6707 .6633 -6.25 -66.2)"/><use xlink:href="#o" width="5.3" height="6.9" transform="matrix(-.2108 -.6269 -.8434 -.4116 7.1 -53.9)"/><use xlink:href="#o" width="5.3" height="6.9" transform="matrix(.9065 .3689 .8772 -.5588 -11 -57.3)"/><use xlink:href="#m" width="5.3" height="6.9" transform="matrix(-.335 .0267 -.3056 .8588 3.2 -67.85)"/><use xlink:href="#m" width="5.3" height="6.9" transform="matrix(.516 -.3005 -.1234 -.9849 -2.5 -53.25)"/><use xlink:href="#p" width="5.3" height="6.9" transform="matrix(1.0955 .6253 -.4276 .8985 6.85 -47.3)"/><use xlink:href="#p" width="5.3" height="6.9" transform="matrix(.4201 .8124 -.7967 .2069 14.6 -42.15)"/><use xlink:href="#p" width="5.3" height="6.9" transform="matrix(.3538 -.4597 .8974 .1384 -1.05 -38.95)"/><use xlink:href="#p" width="5.3" height="6.9" transform="matrix(-.9464 -.2181 -.6895 -1.075 16.85 -30.95)"/><use xlink:href="#p" width="5.3" height="6.9" transform="matrix(-1.4088 -.1118 .2151 1.3217 8.95 -47)"/><use xlink:href="#p" width="5.3" height="6.9" transform="matrix(-.708 .5977 .8306 .8214 -1.15 -46.95)"/><use xlink:href="#p" width="5.3" height="6.9" transform="matrix(-.2611 -.7763 -1.0445 -.5097 15.35 -31.75)"/><use xlink:href="#p" width="5.3" height="6.9" transform="matrix(1.1226 .4568 1.0863 -.692 -7 -36.05)"/><use xlink:href="#p" width="5.3" height="6.9" transform="matrix(-.4149 .0331 -.3784 1.0635 10.55 -49)"/><use xlink:href="#p" width="5.3" height="6.9" transform="matrix(.639 -.3722 -.1528 -1.2196 3.45 -30.9)"/><use xlink:href="#m" width="5.3" height="6.9" transform="matrix(1.443 .8236 -.5632 1.1834 -2.8 -57.15)"/><use xlink:href="#m" width="5.3" height="6.9" transform="matrix(.5534 1.0701 -1.0494 .2725 7.35 -50.4)"/><use xlink:href="#m" width="5.3" height="6.9" transform="matrix(.466 -.6055 1.1821 .1823 -13.25 -46.1)"/><use xlink:href="#m" width="5.3" height="6.9" transform="matrix(-1.2465 -.2873 -.9082 -1.4161 10.3 -35.65)"/><use xlink:href="#q" width="5.3" height="6.9" transform="matrix(-1.8556 -.1473 .2833 1.741 0 -56.7)"/><use xlink:href="#r" width="5.3" height="6.9" transform="matrix(-.9326 .7873 1.0941 1.082 -13.3 -56.7)"/><use xlink:href="#s" width="5.3" height="6.9" transform="matrix(-.3439 -1.0225 -1.3757 -.6714 8.45 -36.65)"/><use xlink:href="#s" width="5.3" height="6.9" transform="matrix(1.4787 .6017 1.4308 -.9115 -21.05 -42.3)"/><use xlink:href="#q" width="5.3" height="6.9" transform="matrix(-.5465 .0435 -.4985 1.4008 2.15 -59.45)"/><use xlink:href="#q" width="5.3" height="6.9" transform="matrix(.8417 -.4902 -.2013 -1.6065 -7.25 -35.6)"/><use xlink:href="#k" width="32.6" height="37.8" transform="matrix(1.0329 -.2261 .2345 1.0355 -2.6 -63.3)"/><use xlink:href="#l" width="5.3" height="6.9" transform="matrix(-.6558 .7035 .6137 .6318 9.65 -63.65)"/><use xlink:href="#l" width="5.3" height="6.9" transform="matrix(-.0722 .7241 .6841 .0133 5.2 -58.05)"/><use xlink:href="#l" width="5.3" height="6.9" transform="matrix(-.4189 -.2977 -.6542 .2797 18.4 -58.5)"/><use xlink:href="#l" width="5.3" height="6.9" transform="matrix(.6673 -.3522 .1993 -.9834 7 -48.75)"/><use xlink:href="#m" width="5.3" height="6.9" transform="matrix(1.06 -.3555 .2467 1.0893 8.1 -62.95)"/><use xlink:href="#n" width="5.3" height="6.9" transform="matrix(.7375 .3401 -.3884 .809 15.95 -64.85)"/><use xlink:href="#o" width="5.3" height="6.9" transform="matrix(-.0401 -.6653 .6522 -.6022 7.9 -49.7)"/><use xlink:href="#o" width="5.3" height="6.9" transform="matrix(-.7295 .5749 -1.0611 -.3433 23.95 -57.3)"/><use xlink:href="#m" width="5.3" height="6.9" transform="matrix(.3329 -.0523 .6271 .772 6.2 -64.3)"/><use xlink:href="#m" width="5.3" height="6.9" transform="matrix(-.6132 -.1742 -.2631 -.9965 17.4 -51.25)"/><use xlink:href="#p" width="5.3" height="6.9" transform="matrix(-.8121 .8712 .7599 .7824 10.7 -43.3)"/><use xlink:href="#p" width="5.3" height="6.9" transform="matrix(-.0894 .8967 .8471 .0164 5.3 -36.4)"/><use xlink:href="#p" width="5.3" height="6.9" transform="matrix(-.5188 -.3687 -.8102 .3464 21.55 -36.9)"/><use xlink:href="#p" width="5.3" height="6.9" transform="matrix(.8264 -.4362 .2469 -1.2179 7.5 -24.85)"/><use xlink:href="#p" width="5.3" height="6.9" transform="matrix(1.3127 -.4402 .3055 1.349 8.85 -42.45)"/><use xlink:href="#p" width="5.3" height="6.9" transform="matrix(.9133 .4212 -.481 1.0018 18.55 -44.8)"/><use xlink:href="#p" width="5.3" height="6.9" transform="matrix(-.0497 -.8239 .8077 -.7457 8.6 -25.95)"/><use xlink:href="#p" width="5.3" height="6.9" transform="matrix(-.9034 .712 -1.314 -.4251 28.45 -35.45)"/><use xlink:href="#p" width="5.3" height="6.9" transform="matrix(.4122 -.0648 .7766 .956 6.5 -44.1)"/><use xlink:href="#p" width="5.3" height="6.9" transform="matrix(-.7594 -.2158 -.3258 -1.2341 20.35 -28)"/><use xlink:href="#m" width="5.3" height="6.9" transform="matrix(-1.0697 1.1475 1.001 1.0306 16.15 -55.15)"/><use xlink:href="#m" width="5.3" height="6.9" transform="matrix(-.1177 1.1811 1.1158 .0217 9 -46.1)"/><use xlink:href="#m" width="5.3" height="6.9" transform="matrix(-.6834 -.4856 -1.0671 .4563 30.5 -46.75)"/><use xlink:href="#m" width="5.3" height="6.9" transform="matrix(1.0885 -.5746 .3252 -1.6042 11.85 -30.95)"/><use xlink:href="#q" width="5.3" height="6.9" transform="matrix(1.729 -.5798 .4023 1.7768 13.7 -54.05)"/><use xlink:href="#r" width="5.3" height="6.9" transform="matrix(1.2029 .5548 -.6336 1.3196 26.45 -57.15)"/><use xlink:href="#s" width="5.3" height="6.9" transform="matrix(-.0654 -1.0852 1.0639 -.9823 13.35 -32.4)"/><use xlink:href="#s" width="5.3" height="6.9" transform="matrix(-1.19 .9379 -1.7307 -.56 39.5 -44.85)"/><use xlink:href="#q" width="5.3" height="6.9" transform="matrix(.543 -.0854 1.023 1.2593 10.55 -56.2)"/><use xlink:href="#q" width="5.3" height="6.9" transform="matrix(-1.0003 -.2842 -.4292 -1.6255 28.8 -35)"/><use xlink:href="#k" width="32.6" height="37.8" transform="matrix(1.0358 .224 -.3839 .9981 -1.85 -72.45)"/><use xlink:href="#l" width="5.3" height="6.9" transform="matrix(-.9765 .3459 .179 .8009 9.2 -67.75)"/><use xlink:href="#l" width="5.3" height="6.9" transform="matrix(-.4758 .6017 .5931 .2905 2.15 -64.7)"/><use xlink:href="#l" width="5.3" height="6.9" transform="matrix(-.1983 -.4303 -.7338 -.0229 13.95 -59.65)"/><use xlink:href="#l" width="5.3" height="6.9" transform="matrix(.7865 -.035 .7352 -.7759 -1.6 -55.85)"/><use xlink:href="#m" width="5.3" height="6.9" transform="matrix(1.1332 .1223 -.4039 1.05 7.45 -67.85)"/><use xlink:href="#n" width="5.3" height="6.9" transform="matrix(.4538 .5971 -.8019 .5468 15.45 -66.25)"/><use xlink:href="#o" width="5.3" height="6.9" transform="matrix(.3437 -.5962 .9157 -.259 -.35 -56.25)"/><use xlink:href="#o" width="5.3" height="6.9" transform="matrix(-.9681 .2037 -.7361 -.7318 18.15 -56.4)"/><use xlink:href="#m" width="5.3" height="6.9" transform="matrix(.3221 .0901 .1109 .9286 6.5 -69.7)"/><use xlink:href="#m" width="5.3" height="6.9" transform="matrix(-.4392 -.4019 .3366 -.9759 8.95 -53.85)"/><use xlink:href="#p" width="5.3" height="6.9" transform="matrix(-1.2093 .4283 .2216 .9918 -1.6 -49.55)"/><use xlink:href="#p" width="5.3" height="6.9" transform="matrix(-.5892 .7451 .7345 .3597 -10.25 -45.75)"/><use xlink:href="#p" width="5.3" height="6.9" transform="matrix(-.2455 -.5329 -.9087 -.0283 4.35 -39.55)"/><use xlink:href="#p" width="5.3" height="6.9" transform="matrix(.974 -.0433 .9104 -.9609 -14.85 -34.8)"/><use xlink:href="#p" width="5.3" height="6.9" transform="matrix(1.4033 .1514 -.5001 1.3003 -3.7 -49.6)"/><use xlink:href="#p" width="5.3" height="6.9" transform="matrix(.562 .7394 -.993 .6771 6.2 -47.7)"/><use xlink:href="#p" width="5.3" height="6.9" transform="matrix(.4257 -.7384 1.134 -.3207 -13.3 -35.35)"/><use xlink:href="#p" width="5.3" height="6.9" transform="matrix(-1.1988 .2523 -.9116 -.9062 9.5 -35.5)"/><use xlink:href="#p" width="5.3" height="6.9" transform="matrix(.3988 .1116 .1374 1.1499 -4.85 -51.95)"/><use xlink:href="#p" width="5.3" height="6.9" transform="matrix(-.5439 -.4977 .4168 -1.2085 -1.8 -32.3)"/><use xlink:href="#m" width="5.3" height="6.9" transform="matrix(-1.5928 .5642 .2919 1.3064 10 -57.75)"/><use xlink:href="#m" width="5.3" height="6.9" transform="matrix(-.7761 .9815 .9674 .4738 -1.4 -52.75)"/><use xlink:href="#m" width="5.3" height="6.9" transform="matrix(-.3234 -.7019 -1.1969 -.0373 17.8 -44.55)"/><use xlink:href="#m" width="5.3" height="6.9" transform="matrix(1.283 -.0571 1.1992 -1.2657 -7.5 -38.35)"/><use xlink:href="#q" width="5.3" height="6.9" transform="matrix(1.8484 .1995 -.6588 1.7128 7.25 -57.85)"/><use xlink:href="#r" width="5.3" height="6.9" transform="matrix(.7402 .974 -1.308 .8919 20.25 -55.3)"/><use xlink:href="#s" width="5.3" height="6.9" transform="matrix(.5607 -.9726 1.4936 -.4225 -5.4 -39.05)"/><use xlink:href="#s" width="5.3" height="6.9" transform="matrix(-1.5791 .3323 -1.2007 -1.1937 24.7 -39.25)"/><use xlink:href="#q" width="5.3" height="6.9" transform="matrix(.5254 .1469 .181 1.5147 5.7 -60.95)"/><use xlink:href="#q" width="5.3" height="6.9" transform="matrix(-.7164 -.6555 .549 -1.5918 9.7 -35.05)"/><use xlink:href="#g" width="6.2" height="6.3" transform="translate(-1.15 -6.6)"/></g></g></svg>