<svg xmlns="http://www.w3.org/2000/svg" xmlns:xlink="http://www.w3.org/1999/xlink" width="551" height="68" viewBox="0 0 551 68"><defs><use xlink:href="#a" id="T" width="18" height="16.9"/><use xlink:href="#b" id="S" width="7" height="7.6"/><use xlink:href="#c" id="R" width="9.6" height="12.4"/><use xlink:href="#d" id="Q" width="13.3" height="13.3"/><use xlink:href="#e" id="P" width="22.1" height="7.8"/><use xlink:href="#f" id="O" width="5.3" height="5.9"/><use xlink:href="#g" id="N" width="5" height="7"/><use xlink:href="#h" id="M" width="4.5" height="6.1"/><use xlink:href="#i" id="L" width="20.5" height="8.2" transform="translate(0 1.8)"/><use xlink:href="#j" id="K" width="13" height="3.9"/><use xlink:href="#k" id="I" width="22.9" height="21.6"/><use xlink:href="#l" id="ae" width="18" height="16.9"/><use xlink:href="#m" id="ad" width="7" height="7.6"/><use xlink:href="#n" id="ac" width="9.6" height="12.4"/><use xlink:href="#o" id="ab" width="13.3" height="13.3"/><use xlink:href="#p" id="aa" width="22.1" height="7.8"/><use xlink:href="#q" id="Z" width="5.3" height="5.9"/><use xlink:href="#r" id="Y" width="5" height="7"/><use xlink:href="#s" id="X" width="4.5" height="6.1"/><use xlink:href="#t" id="W" width="20.5" height="8.2" transform="translate(0 1.8)"/><use xlink:href="#u" id="V" width="13" height="3.9"/><use xlink:href="#v" id="J" width="34.7" height="28.6"/><use xlink:href="#w" id="af" width="27.9" height="27.9"/><use xlink:href="#x" id="aq" width="18" height="16.9"/><use xlink:href="#y" id="ap" width="7" height="7.6"/><use xlink:href="#z" id="ao" width="9.6" height="12.4"/><use xlink:href="#A" id="an" width="13.3" height="13.3"/><use xlink:href="#B" id="am" width="22.1" height="7.8"/><use xlink:href="#C" id="al" width="5.3" height="5.9"/><use xlink:href="#D" id="ak" width="5" height="7"/><use xlink:href="#E" id="aj" width="4.5" height="6.1"/><use xlink:href="#F" id="ai" width="20.5" height="8.2" transform="translate(0 1.8)"/><use xlink:href="#G" id="ah" width="13" height="3.9"/><use xlink:href="#H" id="ar" width="22.1" height="10"/><use xlink:href="#I" id="aI" width="22.9" height="21.6" transform="matrix(-1 0 0 1 29.95 4.5)"/><use xlink:href="#J" id="aC" width="34.7" height="28.6" transform="scale(1.21)"/><use xlink:href="#I" id="az" width="22.9" height="21.6" transform="matrix(-1.19 0 0 1.19 32.1 3)"/><use xlink:href="#I" id="ax" width="22.9" height="21.6" transform="matrix(-1.39 0 0 1.39 34.2 1.55)"/><use xlink:href="#I" id="au" width="22.9" height="21.6" transform="matrix(-1.58 0 0 1.58 36.35 0)"/><g id="a"><path fill="#ba1701" d="m14 5.6-.8-1.3 1.5-.1.9-.7v1l2 .4h-2.5z"/><path fill="#f30" d="m13.2 4.3.8 1.3.5.7-3.1-.2-.5-1.7 1.8-.8z"/><path fill="none" stroke="#5f0101" stroke-linecap="round" stroke-linejoin="round" stroke-width="__RESOLUTION__" d="m13.2 4.3.8 1.3m.7-1.4h-1.5m-.5-.7-1.9.9" vector-effect="non-scaling-stroke"/><path fill="#fff9ec" d="m8.9 12.6 1.8 2-2.6 1.8-1-3z"/><path fill="none" stroke="#7e5436" stroke-linecap="round" stroke-linejoin="round" stroke-width="__RESOLUTION__" d="m8.9 12.6 1.8 2-2.6 1.8-1-3" vector-effect="non-scaling-stroke"/><path fill="#fff9ec" d="m6.6 14.2-.8 2.7-3.2-1 2.1-2.5z"/><path fill="none" stroke="#7e5436" stroke-linecap="round" stroke-linejoin="round" stroke-width="__RESOLUTION__" d="m6.6 14.2-.8 2.7-3.2-1 2.1-2.5" vector-effect="non-scaling-stroke"/><path fill="#fff9ec" d="m3.8 13.2-2.2 1.6-1.6-2 3-1z"/><path fill="none" stroke="#7e5436" stroke-linecap="round" stroke-linejoin="round" stroke-width="__RESOLUTION__" d="m3.8 13.2-2.2 1.6-1.6-2 3-1" vector-effect="non-scaling-stroke"/><path fill="#ba1701" d="m14.2 2.6-1.6-.8 1.8-.8.6-1 .4 1L18 .4l-2.9 1.1z"/><path fill="#f30" d="m12.6 1.8 1.6.8.9.4-3.6 1.2L10 3l1.8-1.6z"/><path fill="none" stroke="#5f0101" stroke-linecap="round" stroke-linejoin="round" stroke-width="__RESOLUTION__" d="m12.6 1.8 1.6.8m.2-1.6-1.8.8m-.8-.4L10 3" vector-effect="non-scaling-stroke"/><path fill="#fff9ec" d="M9.2 3.2q-1.7.3-1.1 3.6-1.3.7-2.3 2.3-.6 3.5-.2 5.7L4 14.4q-.4-1-.7-1.1l-1.3-1q-.2-.5.7-2.6l-.8-1.6q-.2-.8 0-1.5.5-2.1 1.5-2.8 1.7-1.2 4.5-1z"/><path fill="#e0cab6" d="M5.6 14.8q-.4-2.3.2-5.8 1-1.5 2.3-2.2-.6-3.2 1.1-3.6 1.1.5 2.1 1.9t.4 3.7q-.8 2.8-.6 3l-1.7 1.4-1.8.4-.9 1.2z"/><path fill="none" stroke="#3c2500" stroke-linecap="round" stroke-linejoin="round" stroke-width="__RESOLUTION__" d="m9.2 3.2-1.3-.4q-2.8-.2-4.5 1-1 .7-1.5 2.8-.2.7 0 1.5l.8 1.6q-.8 2.1-.6 2.6M4 14.4l1.6.3 1.2.1.9-1.2m3.5-1.8q-.2-.3.6-3 .5-2.4-.5-3.7-1-1.5-2.1-2" vector-effect="non-scaling-stroke"/><path fill="#fff" d="m3.7 11.5-.8.4q-.5 0-.8-.5l-.6-1.1v-.4z"/><path fill="#d0c8bf" d="m1.6 10 .2-.8q.3-.4.8-.4t.8.4.5 1.1v.4l-.2.7z"/><path fill="#000" d="m2 10.3.2-.2.3.2.1.2v.4l-.3.1-.2-.1-.2-.3z"/><path fill="#d0c8bf" d="M5.9 11.5v-.2l-.1-.4q0-.6.5-1t1-.5l1.2.5.3.7z"/><path fill="#fff" d="M8.9 10.6v.3q0 .7-.4 1.2t-1.1.5-1.1-.5l-.4-.6z"/><path fill="#000" d="m6.4 11 .3-.2.4.1v.7l-.4.1-.3-.1-.1-.3z"/><path fill="#fff9ec" d="M1.3 9.3Q.8 8 1.1 7.2q1.1.3 2.2 1.6v.7l.2 1.1-.8-.5z"/><path fill="#fff" d="m1.1 7.2.4-.6q1.4-.2 2.4 1.8l-.6.3Q2.2 7.6 1 7.3"/><path fill="#e0cab6" d="M3.9 8.4q.5 2.2.3 2l-.3.1-.4.1-.2-1.1v-.7z"/><path fill="none" stroke="#3c2500" stroke-linecap="round" stroke-linejoin="round" stroke-width="__RESOLUTION__" d="M1.3 9.3Q.8 8 1.1 7.2l.4-.6m2 4" vector-effect="non-scaling-stroke"/><path fill="#e0cab6" d="m8.5 8.5.9-1q.8 1.8.4 1.9l-.4.3q-.3.4-.5.4h-.1l-1.1.2-2.1.4-.2-.3 3.3-.5-.2-.7z"/><path fill="#fff" d="m9.4 7.5-1 1-3.2.3.7-1q2-1.3 3.5-.3"/><path fill="#fff9ec" d="M8.5 8.5v.8l.2.6-3.3.5q-.5-.8-.2-1.6z"/><path fill="none" stroke="#3c2500" stroke-linecap="round" stroke-linejoin="round" stroke-width="__RESOLUTION__" d="M5.2 8.8q-.3.9.2 1.7" vector-effect="non-scaling-stroke"/><path fill="#de1d01" d="m10 2.4 1.2.7 1.3 1.8v2.6l-4.1.8Q4 8.4.8 7.3l6.9-.8L8.9 5 7.4 3.2z"/><path fill="#f30" d="M.8 7.3V5.5l.6-.7 3-2.3 2.6-1 1.2-.1 1.8 1-2.5.8L8.9 5 7.7 6.5z"/><path fill="#fe9981" d="m1.4 4.8 2-2.7 3-1.1 1.7.4-1.1.2-2.6.9z"/><path fill="none" stroke="#5f0101" stroke-linecap="round" stroke-linejoin="round" stroke-width="__RESOLUTION__" d="m10 2.4 1.2.7 1.3 1.8v2.6l-4.1.8Q4 8.4.8 7.3V5.5l.5-.7 2-2.7 3-1.1 1.9.4z" vector-effect="non-scaling-stroke"/></g><g id="b"><path fill="#182125" d="M0 4.4v-.6q-.1-1.6.9-2.7T3.3 0t2.6 1.1l.1.2v.5q.1 1.7-.8 2.8T2.8 5.7.1 4.6z"/><path fill="#2e3f45" d="M6 1.3q1 1 1 2.5.1 1.6-.9 2.7T3.9 7.6q-1.6 0-2.6-1.1-.9-1-1.1-2.1l.1.2q1 1.1 2.6 1.1 1.4 0 2.4-1.1t.9-2.7z"/><path fill="none" stroke="#151e20" stroke-linecap="round" stroke-linejoin="round" stroke-width="__RESOLUTION__" d="M0 4.4v-.6q-.1-1.6.9-2.7T3.3 0t2.6 1.1l.1.2q1 1 1 2.5.1 1.6-.9 2.7T3.9 7.6q-1.6 0-2.6-1.1-.9-1-1.1-2.1" vector-effect="non-scaling-stroke"/><path fill="#fff" d="m4.9 3.4-1.3.3-.6.7-1.4-.3v-.8l-1-.7 1-1.6L3.4.3l1.5 1zm-.7-.8-.3-1-.7.6.2.7zm-2-1.2-.6.6.5.7.6-.7z"/><path fill="none" stroke="#fff" stroke-linecap="round" stroke-linejoin="round" stroke-width="__RESOLUTION__" d="M4.5 3.8 2 4.5l1.4 1.4M.3 5l1.8-.5L.6 3" vector-effect="non-scaling-stroke"/></g><g id="c"><path fill="#b8bcc7" d="m7.7 1.3.4.5q1.4 1.8 1.5 4.4-.1 2.1-.3 2-1-.7-2 1.3-1 2.2-2.2 2.2-3.2.2-4.9-3.4L0 6.2v-.9l1.5-2.7q1.3-2.5 4.4-1 0-.5 1.8-.3"/><path fill="#f7f8f4" d="M7.7 1.3Q6 1 5.9 1.6 2.8.1 1.5 2.6L.1 5.3q.1-2 1.3-3.5Q2.7 0 4.8 0q1.6 0 2.9 1.3"/><path fill="#9da4b0" d="M.3 8.3q1.6 3.6 4.8 3.5 1.3-.1 2.3-2.4.8-1.9 1.9-1.2-.3 1.3-1.1 2.4-1.4 1.8-3.4 1.8t-3.4-1.8Q.6 9.6.3 8.3"/><path fill="none" stroke="#646d7b" stroke-linecap="round" stroke-linejoin="round" stroke-width="__RESOLUTION__" d="M9.3 8.2q.2.1.3-2Q9.5 3.6 8 1.8l-.4-.6Q6.4 0 4.6 0q-2 0-3.3 1.8Q.2 3.3 0 5.3m-.1.2v.7l.3 2.1q.3 1.3 1.1 2.3 1.4 1.8 3.4 1.8t3.4-1.8Q9 9.5 9.3 8.2" vector-effect="non-scaling-stroke"/><path fill="#444953" d="M6.8 4q-1 .4-1.4 2-.1.6.2 1l-4 1.3q-.4-.8-.4-1.8l.3-1.7.6-1.2Q3 2.5 4.3 2.5t2.2 1.1zM2 9l3.9-1.4.7.4-2.7 2.5q-1-.3-1.8-1.2z"/><path fill="#282c31" d="m1.6 8.3 4-1.2q-.3-.5-.2-1.1.3-1.6 1.3-2 .6 1 .7 2.5l-.3 1.7-.6 1.1q-.9 1.1-2.2 1.2h-.4L6.6 8l-.7-.4-4 1.4z"/></g><g id="d"><path fill="#d2d6db" d="M0 6.9v-.2q0-2 1-3.6L2 2q1.9-2 4.7-2 1.8 0 3.3.8 4 2.9-7.6 3.7-.9.7-1 3 0 .9.6 1.6l-2-.8z"/><path fill="#b8bcc7" d="M10 .8 11.4 2q2 1.9 2 4.7V7q-2.1 5.7-7.8 3.8-2.5-.6-3.5-1.7-.6-.7-.6-1.6.1-2.3 1-3Q14 3.7 10 .8"/><path fill="#9da4b0" d="M13.4 7q-.2 2.6-2 4.4-2 2-4.7 2l-1.5-.2q-1.3-.3-2.4-1.1l-.6-.5-.3-.2Q.6 10.1.3 8.2l2 .9q.9 1 3.5 1.7 5.6 1.9 7.7-3.8"/><path fill="none" stroke="#646d7b" stroke-linecap="round" stroke-linejoin="round" stroke-width="__RESOLUTION__" d="M0 6.9v-.2q0-2 1-3.6L2 2q1.9-2 4.7-2 1.8 0 3.3.8L11.4 2q2 1.9 2 4.7V7q-.2 2.6-2 4.4-2 2-4.7 2l-1.5-.2q-1.4-.3-2.5-1.1l-.6-.5-.2-.2Q.6 10.1.2 8.2z" vector-effect="non-scaling-stroke"/><path fill="#9da4b0" d="m10 3.4 1.2-.1.9.6q.3.4.3 1.3t-.5 1.6-1 .4-.3-1.4-.5-1.5q-.7-.5 0-.9M9 10.2q0-.5.3-1t.7-.6.6 0l.3.6-.4.9-.7.6h-.6q-.3-.1-.2-.5"/><path fill="#fff" d="M8.8.7q.3.2.1.4l-.6.5h-1q-.6 0-.8-.3T6.4.8l.7-.3 1-.1zm-4 1-.2.5-.7.5-.7.2q-.3 0-.4-.2l.2-.5.7-.5.7-.2q.3 0 .4.2"/></g><g id="e"><path fill="#b47e31" d="M0 3.7 11.7 0l10.2 1.8-11.2 3.9z"/><path fill="#824c00" d="m21.9 1.8.2 2.1-11.2 3.9-.2-2.1z"/><path fill="#e6b063" d="M10.9 7.8.2 5.8 0 3.7l10.7 2z"/><path fill="none" stroke="#693300" stroke-linecap="round" stroke-linejoin="round" stroke-width="__RESOLUTION__" d="M0 3.7 11.7 0l10.2 1.8.2 2.1-11.2 3.9-10.7-2z" vector-effect="non-scaling-stroke"/><path fill="#3e2911" d="M17.5 2.3q0 .8-2 1.5-1.9.7-4.6.9l-4.6-.3q-1.9-.3-1.8-1.1-.1-.9 1.8-1.6 1.9-.6 4.7-.8l4.5.1q2 .4 2 1.3"/></g><g id="f"><path fill="#e6b063" d="M0 2.7 2.4 0l1 .3-2.3 2.8z"/><path fill="#b47e31" d="m3.5.3 1.9 3L3 5.9 1.1 3z"/><path fill="#824c00" d="m3.1 5.9-1.2-.6L0 2.7l1 .4z"/><path fill="none" stroke="#693300" stroke-linecap="round" stroke-linejoin="round" stroke-width="__RESOLUTION__" d="M0 2.7 2.4 0l1 .3 2 3L3 5.9l-1.2-.6z" vector-effect="non-scaling-stroke"/><path fill="#555d3d" d="m3.4 2.3.6.3.3.6-.3.6-.6.3-.7-.2-.2-.7.2-.7z"/></g><g id="g"><path fill="#fff" d="M5 5.3q0 1.1-1.5 1.6.1-1.7-2.2-6.9L3 .6Q2.7 4 5.1 5.3"/><path fill="#fff9ec" d="M3.6 6.9Q1.9 7.2 2 5.6T0 1.8Q.2-.1 1.4 0q2.3 5.3 2.2 6.9"/><path fill="none" stroke="#7a5c4e" stroke-linecap="round" stroke-linejoin="round" stroke-width="__RESOLUTION__" d="M3.6 6.9Q1.9 7.2 2 5.6T0 1.8m0 0Q.2-.1 1.4 0l1.5.6Q2.7 4 5.1 5.3" vector-effect="non-scaling-stroke"/></g><g id="h"><path fill="#fff9ec" d="m4.5 2.8-.1 1.5-.6.2V5l-.9.3-.1-1.2-.3 1.4-.8-.1.1-1.4h-.3l-.1-.6-.5 1-.1-1-.8-.5q.9-1.3 1.5-1.6v-.2Q2.8-.1 4 0q.5 1.2.5 2.8M2.8 4h-.2z"/><path fill="#efcc94" d="m4.4 4.4-.3.6-.4.1-.2.6-.7.2.1-.6.9-.3v-.5zm-1.9 1-.2.6h-.6v-.7zm-1.6-1-.6-.6-.3-1 .8.5zm2.8.7"/><path fill="none" stroke="#7a5c4e" stroke-linecap="round" stroke-linejoin="round" stroke-width="__RESOLUTION__" d="m4.6 2.8-.2 1.5-.3.7-.4.1-.2.6-.7.2m0-1.9-.3 1.5-.2.6h-.6v-.7L1.8 4m-.4-.6-.5 1v.1l-.6-.6-.3-1q.9-1.3 1.5-1.6m0-.2Q2.8-.1 4 0q.5 1.2.5 2.8m-.7 1.8V5h-.1m-1-1" vector-effect="non-scaling-stroke"/></g><g id="i"><path fill="none" stroke="#b47e31" stroke-linecap="round" stroke-linejoin="round" stroke-width="__RESOLUTION__" d="M19.3 1.4q1.1 4.1-2.3 6-3.3 1.9-6.3-.4-3.1-2.6-5.3-2.7Q3.5 4.1 0 5.8" vector-effect="non-scaling-stroke"/><path fill="#fff0ce" d="m18.2 1.8.8-.4.5-1.4.4 1.7.6.6-1-.2-1 1.1.6-1.3z"/></g><g id="k"><path fill="#f00f0f" d="M15.4 5.5Q17 5 20.7 3q-1.6 2.6-2 4.6-.3 1.1.6 2.2 1 1.3 3.6 1.8-1.2 0-2.4.7-1 .7-1.3 1.3-.5 1 .5 2.7.7 1.5 2.7 3.8-6.6-3.5-9.2-1.8-2.1 1.5-2.9 3.3 0-1.7-.3-2.4-.5-2.1-1.8-2.5-3-1-7.4.4.8-.5 2.3-2.6 1-1.2.6-3.1Q3.3 8.7 0 6.2l3.4.4 2.9-.4q1-.3 1.2-6.1V0q2 3.1 4 4.9 1.5 1.2 3.9.5"/><path fill="#a6691f" d="M12.2 13.7h-.7l-.6-.4-3.5-6.1q-.2-.3 0-.8l.7-.6L9.5 5l.9-.1q.4 0 .5.5-2.3.8-2.5 1.4 2.5 5.3 3.7 6.9m1.9 4h-.7q-.7-.1-.9-.6t0-1.2q.3-.5 1-.9.3-.2.7-.2-1.2.4-1 1.7 0 1.2 1 1.2z"/><path fill="#fc0" d="M12.2 13.7q-1.3-1.6-3.7-6.9.1-.6 2.4-1.5l2.4 6.6v.8l-.6.7-.3.2zm1.9 1 .5.1q.5.2.8.7.2.5 0 1.1l-.9 1-.4.1q-1 0-1-1.3-.2-1.2 1-1.6"/></g><g id="l"><path fill="#fc0" d="m14 5.6-.8-1.3 1.5-.1.9-.7v1l2 .4h-2.5z"/><path fill="#fc0" d="m13.2 4.3.8 1.3.5.7-3.1-.2-.5-1.7 1.8-.8z"/><path fill="none" stroke="#fc0" stroke-linecap="round" stroke-linejoin="round" stroke-width="__RESOLUTION__" d="m13.2 4.3.8 1.3m.7-1.4h-1.5m-.5-.7-1.9.9" vector-effect="non-scaling-stroke"/><path fill="#fc0" d="m8.9 12.6 1.8 2-2.6 1.8-1-3z"/><path fill="none" stroke="#fc0" stroke-linecap="round" stroke-linejoin="round" stroke-width="__RESOLUTION__" d="m8.9 12.6 1.8 2-2.6 1.8-1-3" vector-effect="non-scaling-stroke"/><path fill="#fc0" d="m6.6 14.2-.8 2.7-3.2-1 2.1-2.5z"/><path fill="none" stroke="#fc0" stroke-linecap="round" stroke-linejoin="round" stroke-width="__RESOLUTION__" d="m6.6 14.2-.8 2.7-3.2-1 2.1-2.5" vector-effect="non-scaling-stroke"/><path fill="#fc0" d="m3.8 13.2-2.2 1.6-1.6-2 3-1z"/><path fill="none" stroke="#fc0" stroke-linecap="round" stroke-linejoin="round" stroke-width="__RESOLUTION__" d="m3.8 13.2-2.2 1.6-1.6-2 3-1" vector-effect="non-scaling-stroke"/><path fill="#fc0" d="m14.2 2.6-1.6-.8 1.8-.8.6-1 .4 1L18 .4l-2.9 1.1z"/><path fill="#fc0" d="m12.6 1.8 1.6.8.9.4-3.6 1.2L10 3l1.8-1.6z"/><path fill="none" stroke="#fc0" stroke-linecap="round" stroke-linejoin="round" stroke-width="__RESOLUTION__" d="m12.6 1.8 1.6.8m.2-1.6-1.8.8m-.8-.4L10 3" vector-effect="non-scaling-stroke"/><path fill="#fc0" d="M9.2 3.2q-1.7.3-1.1 3.6-1.3.7-2.3 2.3-.6 3.5-.2 5.7L4 14.4q-.4-1-.7-1.1l-1.3-1q-.2-.5.7-2.6l-.8-1.6q-.2-.8 0-1.5.5-2.1 1.5-2.8 1.7-1.2 4.5-1z"/><path fill="#fc0" d="M5.6 14.8q-.4-2.3.2-5.8 1-1.5 2.3-2.2-.6-3.2 1.1-3.6 1.1.5 2.1 1.9t.4 3.7q-.8 2.8-.6 3l-1.7 1.4-1.8.4-.9 1.2z"/><path fill="none" stroke="#fc0" stroke-linecap="round" stroke-linejoin="round" stroke-width="__RESOLUTION__" d="m9.2 3.2-1.3-.4q-2.8-.2-4.5 1-1 .7-1.5 2.8-.2.7 0 1.5l.8 1.6q-.8 2.1-.6 2.6M4 14.4l1.6.3 1.2.1.9-1.2m3.5-1.8q-.2-.3.6-3 .5-2.4-.5-3.7-1-1.5-2.1-2" vector-effect="non-scaling-stroke"/><path fill="#fc0" d="m3.7 11.5-.8.4q-.5 0-.8-.5l-.6-1.1v-.4zM1.4 9.9l.3-.7q.2-.4.7-.4t1 .4.4 1.1v.4l-.2.7z"/><path fill="#fc0" d="m2 10.3.2-.2.3.2.1.2v.4l-.3.1-.2-.1-.2-.3zm4 1.1-.1-.5q0-.6.5-1t1-.5l1.2.5.3.7zm3-.8v.3q0 .7-.4 1.2t-1.1.5-1.1-.5l-.4-.6z"/><path fill="#fc0" d="m6.4 11 .3-.2.4.1v.7l-.4.1-.3-.1-.1-.3zM1.3 9.3Q.8 8 1.1 7.2q1.1.3 2.1 1.6v.7l.2 1.1-.7-.5z"/><path fill="#fc0" d="m1.1 7.2.4-.6q1.4-.2 2.4 1.8l-.6.3Q2.2 7.6 1 7.3m2.8 1.2q.5 2.2.3 2l-.3.1-.4.1-.2-1.1v-.7z"/><path fill="none" stroke="#fc0" stroke-linecap="round" stroke-linejoin="round" stroke-width="__RESOLUTION__" d="M1.3 9.3Q.8 8 1.1 7.2l.4-.6m2 4" vector-effect="non-scaling-stroke"/><path fill="#fc0" d="m8.5 8.5.9-1q.8 1.8.4 1.9l-.4.3q-.3.4-.5.4h-.1l-1.1.2-2.1.4-.2-.3 3.3-.5-.2-.7z"/><path fill="#fc0" d="m9.4 7.5-1 1-3.2.3.7-1q2-1.3 3.5-.3"/><path fill="#fc0" d="M8.5 8.5v.8l.2.6-3.3.5q-.5-.8-.2-1.6z"/><path fill="none" stroke="#fc0" stroke-linecap="round" stroke-linejoin="round" stroke-width="__RESOLUTION__" d="M5.2 8.8q-.3.9.2 1.7" vector-effect="non-scaling-stroke"/><path fill="#fc0" d="m10 2.4 1.2.7 1.3 1.8v2.6l-4.1.8Q4 8.4.8 7.3l6.9-.8L8.9 5 7.4 3.2z"/><path fill="#fc0" d="M.8 7.3V5.5l.6-.7 3-2.3 2.6-1 1.2-.1 1.8 1-2.5.8L8.9 5 7.7 6.5z"/><path fill="#fc0" d="m1.4 4.8 2-2.7 3-1.1 1.7.4-1.1.2-2.6.9z"/><path fill="none" stroke="#fc0" stroke-linecap="round" stroke-linejoin="round" stroke-width="__RESOLUTION__" d="m10 2.4 1.2.7 1.3 1.8v2.6l-4.1.8Q4 8.4.8 7.3V5.5l.5-.7 2-2.7 3-1.1 1.9.4z" vector-effect="non-scaling-stroke"/></g><g id="m"><path fill="#fc0" d="M0 4.4v-.6q-.1-1.6.9-2.7T3.3 0t2.6 1.1l.1.2v.5q.1 1.7-.8 2.8T2.8 5.7.1 4.6z"/><path fill="#fc0" d="M6 1.3q1 1 1 2.5.1 1.6-.9 2.7T3.9 7.6q-1.6 0-2.6-1.1-.9-1-1.1-2.1l.1.2q1 1.1 2.6 1.1 1.4 0 2.4-1.1t.9-2.7z"/><path fill="none" stroke="#fc0" stroke-linecap="round" stroke-linejoin="round" stroke-width="__RESOLUTION__" d="M0 4.4v-.6q-.1-1.6.9-2.7T3.3 0t2.6 1.1l.1.2q1 1 1 2.5.1 1.6-.9 2.7T3.9 7.6q-1.6 0-2.6-1.1-.9-1-1.1-2.1" vector-effect="non-scaling-stroke"/><path fill="#fc0" d="m4.9 3.4-1.3.3-.6.7-1.4-.3v-.8l-1-.7 1-1.6L3.4.3l1.5 1zm-.7-.8-.3-1-.7.6.2.7zm-2-1.2-.6.6.5.7.6-.7z"/><path fill="none" stroke="#fc0" stroke-linecap="round" stroke-linejoin="round" stroke-width="__RESOLUTION__" d="M4.5 3.8 2 4.5l1.4 1.4M.3 5l1.8-.5L.6 3" vector-effect="non-scaling-stroke"/></g><g id="n"><path fill="#fc0" d="m7.7 1.3.4.5q1.4 1.8 1.5 4.4-.1 2.1-.3 2-1-.7-2 1.3-1 2.2-2.2 2.2-3.2.2-4.9-3.4L0 6.2v-.9l1.5-2.7q1.3-2.5 4.4-1 0-.5 1.8-.3"/><path fill="#fc0" d="M7.7 1.3Q6 1 5.9 1.6 2.8.1 1.5 2.6L.1 5.3q.1-2 1.3-3.5Q2.7 0 4.8 0q1.6 0 2.9 1.3m-7.4 7q1.6 3.6 4.8 3.5 1.3-.1 2.3-2.4.8-1.9 1.9-1.2-.3 1.3-1.1 2.4-1.4 1.8-3.4 1.8t-3.4-1.8Q.6 9.6.3 8.3"/><path fill="none" stroke="#fc0" stroke-linecap="round" stroke-linejoin="round" stroke-width="__RESOLUTION__" d="M9.3 8.2q.2.1.3-2Q9.5 3.6 8 1.8l-.4-.6Q6.4 0 4.6 0q-2 0-3.3 1.8Q.2 3.3 0 5.3m-.1.2v.7l.3 2.1q.3 1.3 1.1 2.3 1.4 1.8 3.4 1.8t3.4-1.8Q9 9.5 9.3 8.2" vector-effect="non-scaling-stroke"/><path fill="#fc0" d="M6.8 4q-1 .4-1.4 2-.1.6.2 1l-4 1.3q-.4-.8-.4-1.8l.3-1.7.6-1.2Q3 2.5 4.3 2.5t2.2 1.1zM2 9l3.9-1.4.7.4-2.7 2.5q-1-.3-1.8-1.2z"/><path fill="#fc0" d="m1.6 8.3 4-1.2q-.3-.5-.2-1.1.3-1.6 1.3-2 .6 1 .7 2.5l-.3 1.7-.6 1.1q-.9 1.1-2.2 1.2h-.4L6.6 8l-.7-.4-4 1.4z"/></g><g id="o"><path fill="#fc0" d="M0 6.9v-.2q0-2 1-3.6L2 2q1.9-2 4.7-2 1.8 0 3.3.8 4 2.9-7.6 3.7-.9.7-1 3 0 .9.6 1.6l-2-.8z"/><path fill="#fc0" d="M10 .8 11.4 2q2 1.9 2 4.7V7q-2.1 5.7-7.8 3.8-2.5-.6-3.5-1.7-.6-.7-.6-1.6.1-2.3 1-3Q14 3.7 10 .8"/><path fill="#fc0" d="M13.4 7q-.2 2.6-2 4.4-2 2-4.7 2l-1.5-.2q-1.3-.3-2.4-1.1l-.6-.5-.3-.2Q.6 10.1.3 8.2l2 .9q.9 1 3.5 1.7 5.6 1.9 7.7-3.8"/><path fill="none" stroke="#fc0" stroke-linecap="round" stroke-linejoin="round" stroke-width="__RESOLUTION__" d="M0 6.9v-.2q0-2 1-3.6L2 2q1.9-2 4.7-2 1.8 0 3.3.8L11.4 2q2 1.9 2 4.7V7q-.2 2.6-2 4.4-2 2-4.7 2l-1.5-.2q-1.4-.3-2.5-1.1l-.6-.5-.2-.2Q.6 10.1.2 8.2z" vector-effect="non-scaling-stroke"/><path fill="#fc0" d="m10 3.4 1.2-.1.9.6q.3.4.3 1.3t-.5 1.6-1 .4-.3-1.4-.5-1.5q-.7-.5 0-.9M9 10.2q0-.5.3-1t.7-.6.6 0l.3.6-.4.9-.7.6h-.6q-.3-.1-.2-.5M8.8.7q.3.2.1.4l-.6.4-1 .1q-.6 0-.8-.3T6.4.8l.7-.4h1zm-4 1-.2.5-.7.5-.7.2q-.3 0-.4-.3l.2-.5.7-.4.7-.3q.3 0 .4.2"/></g><g id="p"><path fill="#fc0" d="M0 3.7 11.7 0l10.2 1.8-11.2 3.9z"/><path fill="#fc0" d="m21.9 1.8.2 2.1-11.2 3.9-.2-2.1zm-11 6L.2 5.8 0 3.7l10.7 2z"/><path fill="none" stroke="#fc0" stroke-linecap="round" stroke-linejoin="round" stroke-width="__RESOLUTION__" d="M0 3.7 11.7 0l10.2 1.8.2 2.1-11.2 3.9-10.7-2z" vector-effect="non-scaling-stroke"/><path fill="#fc0" d="M17.5 2.3q0 .8-2 1.5-1.9.7-4.6.9l-4.6-.3q-1.9-.3-1.8-1.1-.1-.9 1.8-1.6 1.9-.6 4.7-.8l4.5.1q2 .4 2 1.3"/></g><g id="q"><path fill="#fc0" d="M0 2.7 2.4 0l1 .3-2.3 2.8z"/><path fill="#fc0" d="m3.5.3 1.9 3L3 5.9 1.1 3zM3 5.9l-1.2-.6L0 2.7l1 .4z"/><path fill="none" stroke="#fc0" stroke-linecap="round" stroke-linejoin="round" stroke-width="__RESOLUTION__" d="M0 2.7 2.4 0l1 .3 2 3L3 5.9l-1.2-.6z" vector-effect="non-scaling-stroke"/><path fill="#fc0" d="m3.4 2.3.6.3.3.6-.3.6-.6.3-.7-.2-.2-.7.2-.7z"/></g><g id="r"><path fill="#fc0" d="M5 5.3q0 1.1-1.5 1.6.1-1.7-2.2-6.9L3 .6Q2.7 4 5.1 5.3"/><path fill="#fc0" d="M3.6 6.9Q1.9 7.2 2 5.6T0 1.8Q.2-.1 1.4 0q2.3 5.3 2.2 6.9"/><path fill="none" stroke="#fc0" stroke-linecap="round" stroke-linejoin="round" stroke-width="__RESOLUTION__" d="M3.6 6.9Q1.9 7.2 2 5.6T0 1.8m0 0Q.2-.1 1.4 0l1.5.6Q2.7 4 5.1 5.3" vector-effect="non-scaling-stroke"/></g><g id="s"><path fill="#fc0" d="m4.5 2.8-.1 1.5-.6.2V5l-.9.3-.1-1.2-.3 1.4-.8-.1.1-1.4h-.3l-.1-.6-.5 1-.1-1-.8-.5q.9-1.3 1.5-1.6v-.2Q2.8-.1 4 0q.5 1.2.5 2.8M2.8 4h-.2z"/><path fill="#fc0" d="m4.4 4.4-.3.6-.4.1-.2.6-.7.2.1-.6.9-.3v-.5zm-1.9 1-.2.6h-.6v-.7zm-1.6-1-.6-.6-.3-1 .8.5zm2.8.7"/><path fill="none" stroke="#fc0" stroke-linecap="round" stroke-linejoin="round" stroke-width="__RESOLUTION__" d="m4.6 2.8-.2 1.5-.3.7-.4.1-.2.6-.7.2m0-1.9-.3 1.5-.2.6h-.6v-.7L1.8 4m-.4-.6-.5 1v.1l-.6-.6-.3-1q.9-1.3 1.5-1.6m0-.2Q2.8-.1 4 0q.5 1.2.5 2.8m-.7 1.8V5h-.1m-1-1" vector-effect="non-scaling-stroke"/></g><g id="t"><path fill="none" stroke="#fc0" stroke-linecap="round" stroke-linejoin="round" stroke-width="__RESOLUTION__" d="M19.3 1.4q1.1 4.1-2.3 6-3.3 1.9-6.3-.4-3.1-2.6-5.3-2.7Q3.5 4.1 0 5.8" vector-effect="non-scaling-stroke"/><path fill="#fc0" d="m18.2 1.8.8-.4.5-1.4.4 1.7.6.6-1-.2-1 1.1.6-1.3z"/></g><g id="v"><path fill="#b81a03" d="M34.7 28.4q-4.3-4-6.6-3.5-1.8.3-2.9 3.7.1-4.1-2.4-6.1 4.9-.1 4.8-3.4t-5.3-7q2.9 1 6.3-2-1.4 3.8-.9 5.9.5 1.9 2.8 3.3l3.4 1.2q-2.4.4-2.4 2-.1 2 3.2 5.9"/><path fill="none" stroke="#d01d04" stroke-linecap="round" stroke-linejoin="round" stroke-width="__RESOLUTION__" d="M33.9 20.5q-2.4.4-2.4 2-.1 2 3.2 5.9" vector-effect="non-scaling-stroke"/><path fill="#f43404" d="m4 2.4-.9-.2L0 .9Q.6-.4 2 .2t2 2.2m12.3.1 4 1.8q-.7.4-1.4 1.9-1 2.2-.5 4.5.7 3.7 3.8 8.5l4.1 5.2q-5.8-2.8-16.6 1.3 12.2-8.4-4.3-22.4Q16.2 9 16.2 2.6"/><path fill="none" stroke="#d01d04" stroke-linecap="round" stroke-linejoin="round" stroke-width="__RESOLUTION__" d="m4 2.4-.9-.2L0 .9Q.6-.4 2 .2t2 2.2m5.7 23.3Q22 17.3 5.5 3.3" vector-effect="non-scaling-stroke"/><path fill="none" stroke="#fc563f" stroke-linecap="round" stroke-linejoin="round" stroke-width="__RESOLUTION__" d="M5.5 3.3Q16.3 9 16.3 2.6" vector-effect="non-scaling-stroke"/><path fill="#f43404" d="M6.4 26.8q.8-.7 2.1-.7l-.2.5L6.6 28q-1-.5-.2-1.1"/><path fill="none" stroke="#d01d04" stroke-linecap="round" stroke-linejoin="round" stroke-width="__RESOLUTION__" d="M6.4 26.8q.8-.7 2.1-.7l-.2.5L6.6 28q-1-.5-.2-1.1" vector-effect="non-scaling-stroke"/></g><g id="x"><path fill="#980000" d="m14 5.6-.8-1.3 1.5-.1.9-.7v1l2 .4h-2.5z"/><path fill="#980000" d="m13.2 4.3.8 1.3.5.7-3.1-.2-.5-1.7 1.8-.8z"/><path fill="none" stroke="#980000" stroke-linecap="round" stroke-linejoin="round" stroke-width="__RESOLUTION__" d="m13.2 4.3.8 1.3m.7-1.4h-1.5m-.5-.7-1.9.9" vector-effect="non-scaling-stroke"/><path fill="#980000" d="m8.9 12.6 1.8 2-2.6 1.8-1-3z"/><path fill="none" stroke="#980000" stroke-linecap="round" stroke-linejoin="round" stroke-width="__RESOLUTION__" d="m8.9 12.6 1.8 2-2.6 1.8-1-3" vector-effect="non-scaling-stroke"/><path fill="#980000" d="m6.6 14.2-.8 2.7-3.2-1 2.1-2.5z"/><path fill="none" stroke="#980000" stroke-linecap="round" stroke-linejoin="round" stroke-width="__RESOLUTION__" d="m6.6 14.2-.8 2.7-3.2-1 2.1-2.5" vector-effect="non-scaling-stroke"/><path fill="#980000" d="m3.8 13.2-2.2 1.6-1.6-2 3-1z"/><path fill="none" stroke="#980000" stroke-linecap="round" stroke-linejoin="round" stroke-width="__RESOLUTION__" d="m3.8 13.2-2.2 1.6-1.6-2 3-1" vector-effect="non-scaling-stroke"/><path fill="#980000" d="m14.2 2.6-1.6-.8 1.8-.8.6-1 .4 1L18 .4l-2.9 1.1z"/><path fill="#980000" d="m12.6 1.8 1.6.8.9.4-3.6 1.2L10 3l1.8-1.6z"/><path fill="none" stroke="#980000" stroke-linecap="round" stroke-linejoin="round" stroke-width="__RESOLUTION__" d="m12.6 1.8 1.6.8m.2-1.6-1.8.8m-.8-.4L10 3" vector-effect="non-scaling-stroke"/><path fill="#980000" d="M9.2 3.2q-1.7.3-1.1 3.6-1.3.7-2.3 2.3-.6 3.5-.2 5.7L4 14.4q-.4-1-.7-1.1l-1.3-1q-.2-.5.7-2.6l-.8-1.6q-.2-.8 0-1.5.5-2.1 1.5-2.8 1.7-1.2 4.5-1z"/><path fill="#980000" d="M5.6 14.8q-.4-2.3.2-5.8 1-1.5 2.3-2.2-.6-3.2 1.1-3.6 1.1.5 2.1 1.9t.4 3.7q-.8 2.8-.6 3l-1.7 1.4-1.8.4-.9 1.2z"/><path fill="none" stroke="#980000" stroke-linecap="round" stroke-linejoin="round" stroke-width="__RESOLUTION__" d="m9.2 3.2-1.3-.4q-2.8-.2-4.5 1-1 .7-1.5 2.8-.2.7 0 1.5l.8 1.6q-.8 2.1-.6 2.6M4 14.4l1.6.3 1.2.1.9-1.2m3.5-1.8q-.2-.3.6-3 .5-2.4-.5-3.7-1-1.5-2.1-2" vector-effect="non-scaling-stroke"/><path fill="#980000" d="m3.7 11.5-.8.4q-.5 0-.8-.5l-.6-1.1v-.4zM1.4 9.9l.3-.7q.2-.4.7-.4t1 .4.4 1.1v.4l-.2.7z"/><path fill="#980000" d="m2 10.3.2-.2.3.2.1.2v.4l-.3.1-.2-.1-.2-.3zm4 1.1-.1-.5q0-.6.5-1t1-.5l1.2.5.3.7zm3-.8v.3q0 .7-.4 1.2t-1.1.5-1.1-.5l-.4-.6z"/><path fill="#980000" d="m6.4 11 .3-.2.4.1v.7l-.4.1-.3-.1-.1-.3zM1.3 9.3Q.8 8 1.1 7.2q1.1.3 2.1 1.6v.7l.2 1.1-.7-.5z"/><path fill="#980000" d="m1.1 7.2.4-.6q1.4-.2 2.4 1.8l-.6.3Q2.2 7.6 1 7.3m2.8 1.2q.5 2.2.3 2l-.3.1-.4.1-.2-1.1v-.7z"/><path fill="none" stroke="#980000" stroke-linecap="round" stroke-linejoin="round" stroke-width="__RESOLUTION__" d="M1.3 9.3Q.8 8 1.1 7.2l.4-.6m2 4" vector-effect="non-scaling-stroke"/><path fill="#980000" d="m8.5 8.5.9-1q.8 1.8.4 1.9l-.4.3q-.3.4-.5.4h-.1l-1.1.2-2.1.4-.2-.3 3.3-.5-.2-.7z"/><path fill="#980000" d="m9.4 7.5-1 1-3.2.3.7-1q2-1.3 3.5-.3"/><path fill="#980000" d="M8.5 8.5v.8l.2.6-3.3.5q-.5-.8-.2-1.6z"/><path fill="none" stroke="#980000" stroke-linecap="round" stroke-linejoin="round" stroke-width="__RESOLUTION__" d="M5.2 8.8q-.3.9.2 1.7" vector-effect="non-scaling-stroke"/><path fill="#980000" d="m10 2.4 1.2.7 1.3 1.8v2.6l-4.1.8Q4 8.4.8 7.3l6.9-.8L8.9 5 7.4 3.2z"/><path fill="#980000" d="M.8 7.3V5.5l.6-.7 3-2.3 2.6-1 1.2-.1 1.8 1-2.5.8L8.9 5 7.7 6.5z"/><path fill="#980000" d="m1.4 4.8 2-2.7 3-1.1 1.7.4-1.1.2-2.6.9z"/><path fill="none" stroke="#980000" stroke-linecap="round" stroke-linejoin="round" stroke-width="__RESOLUTION__" d="m10 2.4 1.2.7 1.3 1.8v2.6l-4.1.8Q4 8.4.8 7.3V5.5l.5-.7 2-2.7 3-1.1 1.9.4z" vector-effect="non-scaling-stroke"/></g><g id="y"><path fill="#980000" d="M0 4.4v-.6q-.1-1.6.9-2.7T3.3 0t2.6 1.1l.1.2v.5q.1 1.7-.8 2.8T2.8 5.7.1 4.6z"/><path fill="#980000" d="M6 1.3q1 1 1 2.5.1 1.6-.9 2.7T3.9 7.6q-1.6 0-2.6-1.1-.9-1-1.1-2.1l.1.2q1 1.1 2.6 1.1 1.4 0 2.4-1.1t.9-2.7z"/><path fill="none" stroke="#980000" stroke-linecap="round" stroke-linejoin="round" stroke-width="__RESOLUTION__" d="M0 4.4v-.6q-.1-1.6.9-2.7T3.3 0t2.6 1.1l.1.2q1 1 1 2.5.1 1.6-.9 2.7T3.9 7.6q-1.6 0-2.6-1.1-.9-1-1.1-2.1" vector-effect="non-scaling-stroke"/><path fill="#980000" d="m4.9 3.4-1.3.3-.6.7-1.4-.3v-.8l-1-.7 1-1.6L3.4.3l1.5 1zm-.7-.8-.3-1-.7.6.2.7zm-2-1.2-.6.6.5.7.6-.7z"/><path fill="none" stroke="#980000" stroke-linecap="round" stroke-linejoin="round" stroke-width="__RESOLUTION__" d="M4.5 3.8 2 4.5l1.4 1.4M.3 5l1.8-.5L.6 3" vector-effect="non-scaling-stroke"/></g><g id="z"><path fill="#980000" d="m7.7 1.3.4.5q1.4 1.8 1.5 4.4-.1 2.1-.3 2-1-.7-2 1.3-1 2.2-2.2 2.2-3.2.2-4.9-3.4L0 6.2v-.9l1.5-2.7q1.3-2.5 4.4-1 0-.5 1.8-.3"/><path fill="#980000" d="M7.7 1.3Q6 1 5.9 1.6 2.8.1 1.5 2.6L.1 5.3q.1-2 1.3-3.5Q2.7 0 4.8 0q1.6 0 2.9 1.3m-7.4 7q1.6 3.6 4.8 3.5 1.3-.1 2.3-2.4.8-1.9 1.9-1.2-.3 1.3-1.1 2.4-1.4 1.8-3.4 1.8t-3.4-1.8Q.6 9.6.3 8.3"/><path fill="none" stroke="#980000" stroke-linecap="round" stroke-linejoin="round" stroke-width="__RESOLUTION__" d="M9.3 8.2q.2.1.3-2Q9.5 3.6 8 1.8l-.4-.6Q6.4 0 4.6 0q-2 0-3.3 1.8Q.2 3.3 0 5.3m-.1.2v.7l.3 2.1q.3 1.3 1.1 2.3 1.4 1.8 3.4 1.8t3.4-1.8Q9 9.5 9.3 8.2" vector-effect="non-scaling-stroke"/><path fill="#980000" d="M6.8 4q-1 .4-1.4 2-.1.6.2 1l-4 1.3q-.4-.8-.4-1.8l.3-1.7.6-1.2Q3 2.5 4.3 2.5t2.2 1.1zM2 9l3.9-1.4.7.4-2.7 2.5q-1-.3-1.8-1.2z"/><path fill="#980000" d="m1.6 8.3 4-1.2q-.3-.5-.2-1.1.3-1.6 1.3-2 .6 1 .7 2.5l-.3 1.7-.6 1.1q-.9 1.1-2.2 1.2h-.4L6.6 8l-.7-.4-4 1.4z"/></g><g id="A"><path fill="#980000" d="M0 6.9v-.2q0-2 1-3.6L2 2q1.9-2 4.7-2 1.8 0 3.3.8 4 2.9-7.6 3.7-.9.7-1 3 0 .9.6 1.6l-2-.8z"/><path fill="#980000" d="M10 .8 11.4 2q2 1.9 2 4.7V7q-2.1 5.7-7.8 3.8-2.5-.6-3.5-1.7-.6-.7-.6-1.6.1-2.3 1-3Q14 3.7 10 .8"/><path fill="#980000" d="M13.4 7q-.2 2.6-2 4.4-2 2-4.7 2l-1.5-.2q-1.3-.3-2.4-1.1l-.6-.5-.3-.2Q.6 10.1.3 8.2l2 .9q.9 1 3.5 1.7 5.6 1.9 7.7-3.8"/><path fill="none" stroke="#980000" stroke-linecap="round" stroke-linejoin="round" stroke-width="__RESOLUTION__" d="M0 6.9v-.2q0-2 1-3.6L2 2q1.9-2 4.7-2 1.8 0 3.3.8L11.4 2q2 1.9 2 4.7V7q-.2 2.6-2 4.4-2 2-4.7 2l-1.5-.2q-1.4-.3-2.5-1.1l-.6-.5-.2-.2Q.6 10.1.2 8.2z" vector-effect="non-scaling-stroke"/><path fill="#980000" d="m10 3.4 1.2-.1.9.6q.3.4.3 1.3t-.5 1.6-1 .4-.3-1.4-.5-1.5q-.7-.5 0-.9M9 10.2q0-.5.3-1t.7-.6.6 0l.3.6-.4.9-.7.6h-.6q-.3-.1-.2-.5M8.8.7q.3.2.1.4l-.6.4-1 .1q-.6 0-.8-.3T6.4.8l.7-.4h1zm-4 1-.2.5-.7.5-.7.2q-.3 0-.4-.3l.2-.5.7-.4.7-.3q.3 0 .4.2"/></g><g id="B"><path fill="#980000" d="M0 3.7 11.7 0l10.2 1.8-11.2 3.9z"/><path fill="#980000" d="m21.9 1.8.2 2.1-11.2 3.9-.2-2.1zm-11 6L.2 5.8 0 3.7l10.7 2z"/><path fill="none" stroke="#980000" stroke-linecap="round" stroke-linejoin="round" stroke-width="__RESOLUTION__" d="M0 3.7 11.7 0l10.2 1.8.2 2.1-11.2 3.9-10.7-2z" vector-effect="non-scaling-stroke"/><path fill="#980000" d="M17.5 2.3q0 .8-2 1.5-1.9.7-4.6.9l-4.6-.3q-1.9-.3-1.8-1.1-.1-.9 1.8-1.6 1.9-.6 4.7-.8l4.5.1q2 .4 2 1.3"/></g><g id="C"><path fill="#980000" d="M0 2.7 2.4 0l1 .3-2.3 2.8z"/><path fill="#980000" d="m3.5.3 1.9 3L3 5.9 1.1 3zM3 5.9l-1.2-.6L0 2.7l1 .4z"/><path fill="none" stroke="#980000" stroke-linecap="round" stroke-linejoin="round" stroke-width="__RESOLUTION__" d="M0 2.7 2.4 0l1 .3 2 3L3 5.9l-1.2-.6z" vector-effect="non-scaling-stroke"/><path fill="#980000" d="m3.4 2.3.6.3.3.6-.3.6-.6.3-.7-.2-.2-.7.2-.7z"/></g><g id="D"><path fill="#980000" d="M5 5.3q0 1.1-1.5 1.6.1-1.7-2.2-6.9L3 .6Q2.7 4 5.1 5.3"/><path fill="#980000" d="M3.6 6.9Q1.9 7.2 2 5.6T0 1.8Q.2-.1 1.4 0q2.3 5.3 2.2 6.9"/><path fill="none" stroke="#980000" stroke-linecap="round" stroke-linejoin="round" stroke-width="__RESOLUTION__" d="M3.6 6.9Q1.9 7.2 2 5.6T0 1.8m0 0Q.2-.1 1.4 0l1.5.6Q2.7 4 5.1 5.3" vector-effect="non-scaling-stroke"/></g><g id="E"><path fill="#980000" d="m4.5 2.8-.1 1.5-.6.2V5l-.9.3-.1-1.2-.3 1.4-.8-.1.1-1.4h-.3l-.1-.6-.5 1-.1-1-.8-.5q.9-1.3 1.5-1.6v-.2Q2.8-.1 4 0q.5 1.2.5 2.8M2.8 4h-.2z"/><path fill="#980000" d="m4.4 4.4-.3.6-.4.1-.2.6-.7.2.1-.6.9-.3v-.5zm-1.9 1-.2.6h-.6v-.7zm-1.6-1-.6-.6-.3-1 .8.5zm2.8.7"/><path fill="none" stroke="#980000" stroke-linecap="round" stroke-linejoin="round" stroke-width="__RESOLUTION__" d="m4.6 2.8-.2 1.5-.3.7-.4.1-.2.6-.7.2m0-1.9-.3 1.5-.2.6h-.6v-.7L1.8 4m-.4-.6-.5 1v.1l-.6-.6-.3-1q.9-1.3 1.5-1.6m0-.2Q2.8-.1 4 0q.5 1.2.5 2.8m-.7 1.8V5h-.1m-1-1" vector-effect="non-scaling-stroke"/></g><g id="F"><path fill="none" stroke="#980000" stroke-linecap="round" stroke-linejoin="round" stroke-width="__RESOLUTION__" d="M19.3 1.4q1.1 4.1-2.3 6-3.3 1.9-6.3-.4-3.1-2.6-5.3-2.7Q3.5 4.1 0 5.8" vector-effect="non-scaling-stroke"/><path fill="#980000" d="m18.2 1.8.8-.4.5-1.4.4 1.7.6.6-1-.2-1 1.1.6-1.3z"/></g><g id="H"><path fill="none" stroke="#b47e31" stroke-linecap="round" stroke-linejoin="round" stroke-width="__RESOLUTION__" d="M19.3 3.2q1.1 4.1-2.3 6-3.3 1.9-6.3-.4Q7.6 6.2 5.4 6 3.5 5.9 0 7.6" vector-effect="non-scaling-stroke"/><path fill="#ffd652" d="m17 3.3 2-.4L17.8 0 20 2.4l2.2-.3-1.4 1.2-.8 3.8L19 4z"/></g><g id="aM" transform="translate(20.25 15.35)"><use xlink:href="#K" width="13" height="3.9" transform="translate(-8.85 11.25)"/><use xlink:href="#L" width="22.1" height="10" transform="translate(-2.65 -4.35)"/><use xlink:href="#M" width="4.5" height="6.1" transform="matrix(-.4924 -.9934 -.9326 -.2629 -12.35 -7.25)"/><use xlink:href="#N" width="5" height="7" transform="matrix(-.4588 -.7741 -.832 .5932 -6.75 -11.45)"/><use xlink:href="#O" width="5.3" height="5.9" transform="rotate(15.26 -24.42 -51.83)scale(.9979)"/><use xlink:href="#P" width="22.1" height="7.8" transform="rotate(15.26 -11.53 -46.34)scale(.9979)"/><use xlink:href="#O" width="5.3" height="5.9" transform="rotate(15.26 -39.22 -7.67)scale(.9979)"/><use xlink:href="#O" width="5.3" height="5.9" transform="rotate(15.26 -31.11 21.65)scale(.9979)"/><use xlink:href="#N" width="5" height="7" transform="matrix(.5442 -.7951 -.8289 -.4949 -5.15 -6.45)"/><use xlink:href="#Q" width="13.3" height="13.3" transform="rotate(36.12 10.62 -13.22)scale(.9984)"/><use xlink:href="#N" width="5" height="7" transform="rotate(-28.11 -3.82 -9.76)scale(.9622)"/><use xlink:href="#N" width="5" height="7" transform="matrix(.8394 .4606 .4606 -.8394 8.4 .25)"/><use xlink:href="#M" width="4.5" height="6.1" transform="matrix(-.602 .8307 .6839 .5903 16.25 -6.5)"/><use xlink:href="#R" width="9.6" height="12.4" transform="rotate(36.12 12.1 -21.93)scale(.9984)"/><use xlink:href="#S" width="7" height="7.6" transform="translate(17.15 -12.15)"/><use xlink:href="#T" width="18" height="16.9" transform="matrix(-.6556 -.4351 -.4351 .6556 13.5 -7.55)"/></g><g id="aG" transform="translate(20.25 15.35)"><use xlink:href="#V" width="13" height="3.9" transform="translate(-8.85 11.25)"/><use xlink:href="#W" width="22.1" height="10" transform="translate(-2.65 -4.35)"/><use xlink:href="#X" width="4.5" height="6.1" transform="matrix(-.4924 -.9934 -.9326 -.2629 -12.35 -7.25)"/><use xlink:href="#Y" width="5" height="7" transform="matrix(-.4588 -.7741 -.832 .5932 -6.75 -11.45)"/><use xlink:href="#Z" width="5.3" height="5.9" transform="rotate(15.26 -24.42 -51.83)scale(.9979)"/><use xlink:href="#aa" width="22.1" height="7.8" transform="rotate(15.26 -11.53 -46.34)scale(.9979)"/><use xlink:href="#Z" width="5.3" height="5.9" transform="rotate(15.26 -39.22 -7.67)scale(.9979)"/><use xlink:href="#Z" width="5.3" height="5.9" transform="rotate(15.26 -31.11 21.65)scale(.9979)"/><use xlink:href="#Y" width="5" height="7" transform="matrix(.5442 -.7951 -.8289 -.4949 -5.15 -6.45)"/><use xlink:href="#ab" width="13.3" height="13.3" transform="rotate(36.12 10.62 -13.22)scale(.9984)"/><use xlink:href="#Y" width="5" height="7" transform="rotate(-28.11 -3.82 -9.76)scale(.9622)"/><use xlink:href="#Y" width="5" height="7" transform="matrix(.8394 .4606 .4606 -.8394 8.4 .25)"/><use xlink:href="#X" width="4.5" height="6.1" transform="matrix(-.602 .8307 .6839 .5903 16.25 -6.5)"/><use xlink:href="#ac" width="9.6" height="12.4" transform="rotate(36.12 12.1 -21.93)scale(.9984)"/><use xlink:href="#ad" width="7" height="7.6" transform="translate(17.15 -12.15)"/><use xlink:href="#ae" width="18" height="16.9" transform="matrix(-.6556 -.4351 -.4351 .6556 13.5 -7.55)"/></g><g id="aE" transform="translate(25.55 12.45)"><use xlink:href="#af" width="27.9" height="27.9" transform="translate(-7.45 -2.85)scale(.6188)"/><use xlink:href="#J" width="34.7" height="28.6" transform="translate(-25.55 -12.45)scale(1.21)"/></g><g id="aB" transform="translate(20.25 15.35)"><use xlink:href="#ah" width="13" height="3.9" transform="translate(-8.85 11.25)"/><use xlink:href="#ai" width="22.1" height="10" transform="translate(-2.65 -4.35)"/><use xlink:href="#aj" width="4.5" height="6.1" transform="matrix(-.4924 -.9934 -.9326 -.2629 -12.35 -7.25)"/><use xlink:href="#ak" width="5" height="7" transform="matrix(-.4588 -.7741 -.832 .5932 -6.75 -11.45)"/><use xlink:href="#al" width="5.3" height="5.9" transform="rotate(15.26 -24.42 -51.83)scale(.9979)"/><use xlink:href="#am" width="22.1" height="7.8" transform="rotate(15.26 -11.53 -46.34)scale(.9979)"/><use xlink:href="#al" width="5.3" height="5.9" transform="rotate(15.26 -39.22 -7.67)scale(.9979)"/><use xlink:href="#al" width="5.3" height="5.9" transform="rotate(15.26 -31.11 21.65)scale(.9979)"/><use xlink:href="#ak" width="5" height="7" transform="matrix(.5442 -.7951 -.8289 -.4949 -5.15 -6.45)"/><use xlink:href="#an" width="13.3" height="13.3" transform="rotate(36.12 10.62 -13.22)scale(.9984)"/><use xlink:href="#ak" width="5" height="7" transform="rotate(-28.11 -3.82 -9.76)scale(.9622)"/><use xlink:href="#ak" width="5" height="7" transform="matrix(.8394 .4606 .4606 -.8394 8.4 .25)"/><use xlink:href="#aj" width="4.5" height="6.1" transform="matrix(-.602 .8307 .6839 .5903 16.25 -6.5)"/><use xlink:href="#ao" width="9.6" height="12.4" transform="rotate(36.12 12.1 -21.93)scale(.9984)"/><use xlink:href="#ap" width="7" height="7.6" transform="translate(17.15 -12.15)"/><use xlink:href="#aq" width="18" height="16.9" transform="matrix(-.6556 -.4351 -.4351 .6556 13.5 -7.55)"/></g><g id="av" transform="translate(25.55 12.45)"><use xlink:href="#af" width="27.9" height="27.9" transform="translate(-7.45 -2.85)scale(.6188)"/><use xlink:href="#J" width="34.7" height="28.6" transform="translate(-17.6 -6.6)scale(.815)"/></g><g id="at" transform="translate(20.25 15.35)"><use xlink:href="#K" width="13" height="3.9" transform="translate(-8.85 11.25)"/><use xlink:href="#ar" width="22.1" height="10" transform="translate(-2.65 -4.35)"/><use xlink:href="#M" width="4.5" height="6.1" transform="matrix(-.4924 -.9934 -.9326 -.2629 -12.35 -7.25)"/><use xlink:href="#N" width="5" height="7" transform="matrix(-.4588 -.7741 -.832 .5932 -6.75 -11.45)"/><use xlink:href="#O" width="5.3" height="5.9" transform="rotate(15.26 -24.42 -51.83)scale(.9979)"/><use xlink:href="#P" width="22.1" height="7.8" transform="rotate(15.26 -11.53 -46.34)scale(.9979)"/><use xlink:href="#O" width="5.3" height="5.9" transform="rotate(15.26 -39.22 -7.67)scale(.9979)"/><use xlink:href="#O" width="5.3" height="5.9" transform="rotate(15.26 -31.11 21.65)scale(.9979)"/><use xlink:href="#N" width="5" height="7" transform="matrix(.5442 -.7951 -.8289 -.4949 -5.15 -6.45)"/><use xlink:href="#Q" width="13.3" height="13.3" transform="rotate(36.12 10.62 -13.22)scale(.9984)"/><use xlink:href="#N" width="5" height="7" transform="rotate(-28.11 -3.82 -9.76)scale(.9622)"/><use xlink:href="#N" width="5" height="7" transform="matrix(.8394 .4606 .4606 -.8394 8.4 .25)"/><use xlink:href="#M" width="4.5" height="6.1" transform="matrix(-.602 .8307 .6839 .5903 16.25 -6.5)"/><use xlink:href="#R" width="9.6" height="12.4" transform="rotate(36.12 12.1 -21.93)scale(.9984)"/><use xlink:href="#S" width="7" height="7.6" transform="translate(17.15 -12.15)"/><use xlink:href="#T" width="18" height="16.9" transform="matrix(-.6556 -.4351 -.4351 .6556 13.5 -7.55)"/></g><clipPath id="as"><path d="M1 1h54v66H1z"/></clipPath><clipPath id="aw"><path d="M56 1h54v66H56z"/></clipPath><clipPath id="ay"><path d="M111 1h54v66h-54z"/></clipPath><clipPath id="aA"><path d="M166 1h54v66h-54z"/></clipPath><clipPath id="aD"><path d="M221 1h54v66h-54z"/></clipPath><clipPath id="aF"><path d="M276 1h54v66h-54z"/></clipPath><clipPath id="aH"><path d="M331 1h54v66h-54z"/></clipPath><clipPath id="aJ"><path d="M386 1h54v66h-54z"/></clipPath><clipPath id="aK"><path d="M441 1h54v66h-54z"/></clipPath><clipPath id="aL"><path d="M496 1h54v66h-54z"/></clipPath><path id="j" fill="#3e2911" d="M4.6-1.7q1.9.4 1.9 1.3T4.6 1L0 1.9l-4.6-.2q-2-.4-1.9-1.2 0-.8 1.9-1.5L0-1.8z" transform="translate(6.5 1.95)"/><path id="u" fill="#fc0" d="M4.6-1.7q1.9.4 1.9 1.3T4.6 1L0 1.9l-4.6-.2q-2-.4-1.9-1.2 0-.8 1.9-1.5L0-1.8z" transform="translate(6.5 1.95)"/><path id="w" fill="#fff" d="M9.8-10.2q3.3 3.3 4 7.7l.1 2.2q0 5.7-4.1 9.8-3.3 3.3-7.6 4l-2.2.1q-5.8 0-10-4.1-2.6-2.6-3.5-6-.5-1.8-.5-3.8 0-5.8 4-10h.2q4-4 9.8-4 3.7 0 6.6 1.7 1.7.9 3.2 2.3" transform="translate(14 14.3)"/><path id="G" fill="#980000" d="M4.6-1.7q1.9.4 1.9 1.3T4.6 1L0 1.9l-4.6-.2q-2-.4-1.9-1.2 0-.8 1.9-1.5L0-1.8z" transform="translate(6.5 1.95)"/></defs><g clip-path="url(#as)"><g transform="translate(18.9 62.6)"><use xlink:href="#at" width="44.5" height="32.5" transform="translate(-17.9 -28.45)"/><use xlink:href="#au" width="36.4" height="34.2" transform="translate(7.05 -61.6)scale(.7893)"/><use xlink:href="#av" width="42" height="34.5" transform="matrix(-.916 0 0 .916 24.55 -39.2)"/></g></g><g clip-path="url(#aw)"><g transform="translate(73.9 62.6)"><use xlink:href="#at" width="44.5" height="32.5" transform="translate(-17.9 -28.45)"/><use xlink:href="#ax" width="36.4" height="34.2" transform="translate(7.05 -61.6)scale(.7893)"/><use xlink:href="#av" width="42" height="34.5" transform="matrix(-.916 0 0 .916 24.55 -39.2)"/></g></g><g clip-path="url(#ay)"><g transform="translate(128.9 62.6)"><use xlink:href="#at" width="44.5" height="32.5" transform="translate(-17.9 -28.45)"/><use xlink:href="#az" width="36.4" height="34.2" transform="translate(7.05 -61.6)scale(.7893)"/><use xlink:href="#av" width="42" height="34.5" transform="matrix(-.916 0 0 .916 24.55 -39.2)"/></g></g><g clip-path="url(#aA)"><g transform="translate(183.9 62.6)"><use xlink:href="#aB" width="44.5" height="32.5" transform="translate(-17.9 -28.45)"/><use xlink:href="#aC" width="42" height="34.5" transform="matrix(-.916 0 0 .916 24.55 -39.2)"/></g></g><g clip-path="url(#aD)"><g transform="translate(238.9 62.6)"><use xlink:href="#aB" width="44.5" height="32.5" transform="translate(-17.9 -28.45)"/><use xlink:href="#aE" width="42" height="34.5" transform="matrix(-.916 0 0 .916 24.55 -39.2)"/></g></g><g clip-path="url(#aF)"><g transform="translate(293.9 62.6)"><use xlink:href="#aG" width="44.5" height="32.5" transform="translate(-17.9 -28.45)"/><use xlink:href="#aC" width="42" height="34.5" transform="matrix(-.916 0 0 .916 24.55 -39.2)"/></g></g><g clip-path="url(#aH)"><g transform="translate(348.9 62.6)"><use xlink:href="#aB" width="44.5" height="32.5" transform="translate(-17.9 -28.45)"/><use xlink:href="#aI" width="36.4" height="34.2" transform="translate(7.05 -61.6)scale(.7893)"/></g></g><g clip-path="url(#aJ)"><g transform="translate(403.9 62.6)"><use xlink:href="#aG" width="44.5" height="32.5" transform="translate(-17.9 -28.45)"/><use xlink:href="#aI" width="36.4" height="34.2" transform="translate(7.05 -61.6)scale(.7893)"/></g></g><g clip-path="url(#aK)"><g transform="translate(458.9 62.6)"><use xlink:href="#aG" width="44.5" height="32.5" transform="translate(-17.9 -28.45)"/><use xlink:href="#aI" width="36.4" height="34.2" transform="translate(7.05 -61.6)scale(.7893)"/></g></g><g clip-path="url(#aL)"><g transform="translate(513.9 62.6)"><use xlink:href="#aM" width="44.5" height="32.5" transform="translate(-17.9 -28.45)"/><use xlink:href="#aI" width="36.4" height="34.2" transform="translate(7.05 -61.6)scale(.7893)"/></g></g></svg>