<svg xmlns="http://www.w3.org/2000/svg" xmlns:xlink="http://www.w3.org/1999/xlink" width="936" height="76" viewBox="0 0 936 76"><defs><use xlink:href="#a" id="w" width="4" height="5.5"/><use xlink:href="#b" id="f" width="22.9" height="21.6"/><use xlink:href="#c" id="z" width="5.6" height="5.3"/><use xlink:href="#d" id="B" width="7" height="5.2"/><use xlink:href="#e" id="C" width="7" height="5.2"/><use xlink:href="#f" id="ao" width="22.9" height="21.6" transform="matrix(-1 0 0 1 29.95 4.5)"/><use xlink:href="#f" id="al" width="22.9" height="21.6" transform="matrix(-1.06 0 0 1.06 30.65 4)"/><use xlink:href="#f" id="aj" width="22.9" height="21.6" transform="matrix(-1.13 0 0 1.13 31.35 3.55)"/><use xlink:href="#f" id="ah" width="22.9" height="21.6" transform="matrix(-1.19 0 0 1.19 32.1 3)"/><use xlink:href="#f" id="af" width="22.9" height="21.6" transform="matrix(-1.26 0 0 1.26 32.8 2.5)"/><use xlink:href="#f" id="ad" width="22.9" height="21.6" transform="matrix(-1.32 0 0 1.32 33.5 2)"/><use xlink:href="#f" id="ab" width="22.9" height="21.6" transform="matrix(-1.39 0 0 1.39 34.2 1.55)"/><use xlink:href="#f" id="Z" width="22.9" height="21.6" transform="matrix(-1.45 0 0 1.45 34.9 1)"/><use xlink:href="#f" id="X" width="22.9" height="21.6" transform="matrix(-1.52 0 0 1.52 35.65 .5)"/><use xlink:href="#f" id="V" width="22.9" height="21.6" transform="matrix(-1.58 0 0 1.58 36.35 0)"/><use xlink:href="#g" id="T" width="9.4" height="4.9"/><use xlink:href="#h" id="S" width="9.5" height="11.6"/><use xlink:href="#k" id="R" width="15.1" height="13.5"/><use xlink:href="#l" id="Q" width="7.7" height="9.6"/><use xlink:href="#m" id="O" width="13.7" height="13.6"/><use xlink:href="#n" id="N" width="30.4" height="32"/><use xlink:href="#o" id="M" width="13.7" height="19.9"/><use xlink:href="#p" id="L" width="40.5" height="33.5"/><use xlink:href="#q" id="K" width="9.3" height="7.9"/><use xlink:href="#r" id="I" width="13.8" height="13.6"/><use xlink:href="#s" id="H" width="13.7" height="19.9"/><use xlink:href="#t" id="G" width="9.3" height="7.9"/><use xlink:href="#u" id="E" width="14.7" height="4.3"/><g id="a"><path fill="#7472b1" d="m2.3.6 1.1 1L4 3.7l-.2 1.1-1 .4-.1.3-1.9-.7-.3-1.5L0 0zm.5 4.6.6-1.5zm.6-1.5V1.5zM2.3 4 .6 3.3z"/><path fill="none" stroke="#3d3e6d" stroke-linecap="round" stroke-linejoin="round" stroke-width="__RESOLUTION__" d="m2.3.6 1.1 1L4 3.7l-.2 1.1-1 .4-.1.3-1.9-.7-.3-1.5L0 0m.6 3.3 1.7.7" vector-effect="non-scaling-stroke"/><path fill="none" stroke="#8d4e01" stroke-linecap="round" stroke-linejoin="round" stroke-width="__RESOLUTION__" d="m3.4 3.8-.6 1.4m.6-1.5V1.5" vector-effect="non-scaling-stroke"/></g><g id="b"><path fill="#fff" d="M7.5 0q2 3.1 4 4.9 1.5 1.2 3.9.5Q17 5 20.7 3q-1.6 2.6-2 4.5-.3 1.2.6 2.3 1 1.3 3.6 1.7-1.2 0-2.4.8-1 .6-1.3 1.3-.5 1 .5 2.7.7 1.5 2.7 3.8-6.6-3.5-9.2-1.8-2.1 1.5-2.9 3.3 0-1.7-.3-2.4-.5-2.1-1.8-2.5-3-1-7.4.4.8-.5 2.3-2.6 1-1.2.6-3.1Q3.3 8.7 0 6.2l3.4.4 2.9-.4q1-.3 1.2-6.1z"/><path fill="#35479e" d="M12.2 13.7h-.7l-.6-.4-3.5-6.1q-.2-.3 0-.8l.7-.6L9.5 5l.9-.1q.4 0 .5.5-2.3.8-2.5 1.4 2.5 5.3 3.7 6.9m1.9 4h-.7q-.7-.1-.9-.6t0-1.2q.3-.5 1-.9.3-.2.7-.2-1.2.4-1 1.7 0 1.2 1 1.2z"/><path fill="#578afd" d="M12.2 13.7q-1.3-1.6-3.7-6.9.1-.6 2.4-1.5l2.4 6.6v.8l-.6.7-.3.2zm1.9 1 .5.1q.5.2.8.7.2.5 0 1.1l-.9 1-.4.1q-1 0-1-1.3-.2-1.2 1-1.6"/></g><g id="v"><path fill="#aa8559" d="m1.9 14.6 1.5-.2 5.4 41.9q-.5.7-1.5.2z"/><path fill="none" stroke="#423122" stroke-linecap="round" stroke-linejoin="round" stroke-width="__RESOLUTION__" d="m1.9 14.6 1.5-.2 5.4 41.9q-.5.7-1.5.2" vector-effect="non-scaling-stroke"/><path fill="none" stroke="#ddb562" stroke-linecap="round" stroke-linejoin="round" stroke-width="__RESOLUTION__" d="M7.3 56.5 1.9 14.6" vector-effect="non-scaling-stroke"/><path fill="#c1ced7" d="m5.3 14.9-1 1.8-1.6-10L.4 0l2.9 5.3z"/><path fill="#a5b0ba" d="m4.3 16.8-3.1-.4L0 7.7.5 0l2.2 6.8z"/><path fill="none" stroke="#768894" stroke-linecap="round" stroke-linejoin="round" stroke-width="__RESOLUTION__" d="M1.2 16.4 0 7.7.5 0" vector-effect="non-scaling-stroke"/><path fill="none" stroke="#fff" stroke-linecap="round" stroke-linejoin="round" stroke-width="__RESOLUTION__" d="m.5 0 2.9 5.3 1.9 9.6" vector-effect="non-scaling-stroke"/></g><g id="c"><path fill="#ffec0b" d="m2.5.7 2.2 2.2q.9.9.9 1.3t-.9.7l-1.8.4h-2Q.2 5 0 3.6T.6.8Q1.3-.7 2.5.6"/><path fill="none" stroke="#fef2ab" stroke-linecap="round" stroke-linejoin="round" stroke-width="__RESOLUTION__" d="m2.5.7 2.2 2.2q.9.9.9 1.3t-.9.7l-1.8.4h-2Q.2 5 0 3.6T.6.8Q1.3-.7 2.5.6" vector-effect="non-scaling-stroke"/></g><g id="d"><path fill="#e8d9c1" d="m.7.9 3-.9.4.2 2 1.5h.1l.8 1q-.9-1-2.3-1.3-1.8-.4-3 .7v3h-.5q-.8-.2-1-1.2L0 2.3Q0 1.2.7.9"/><path fill="#fff" d="M1.7 5.2V2Q3 1 4.8 1.4q1.4.3 2.3 1.3.2.8-.2 1l-.5.2H4.2Q2.8 4 1.7 5.2"/><path fill="none" stroke="#a98241" stroke-linecap="round" stroke-linejoin="round" stroke-width="__RESOLUTION__" d="M6.2 1.7 4 .1 3.8 0 .6.9M7 2.7l-.8-1m.8 1q.2.8-.2 1l-.5.2" vector-effect="non-scaling-stroke"/><path fill="none" stroke="#000" stroke-linecap="round" stroke-linejoin="round" stroke-width="__RESOLUTION__" d="M6.3 3.9H4.2Q2.8 4 1.7 5.2" vector-effect="non-scaling-stroke"/></g><g id="e"><path fill="#d5c8b1" d="m.7.9 3-.9.4.2 2 1.5h.1l.8 1q-.9-1-2.3-1.3-1.8-.4-3 .7v3h-.5q-.8-.2-1-1.2L0 2.3Q0 1.2.7.9"/><path fill="#ebebeb" d="M1.7 5.2V2Q3 1 4.8 1.4q1.4.3 2.3 1.3.2.8-.2 1l-.5.2H4.2Q2.8 4 1.7 5.2"/><path fill="none" stroke="#9b773b" stroke-linecap="round" stroke-linejoin="round" stroke-width="__RESOLUTION__" d="M6.2 1.7 4 .1 3.8 0 .6.9M7 2.7l-.8-1m.8 1q.2.8-.2 1l-.5.2" vector-effect="non-scaling-stroke"/><path fill="none" stroke="#000" stroke-linecap="round" stroke-linejoin="round" stroke-width="__RESOLUTION__" d="M6.3 3.9H4.2Q2.8 4 1.7 5.2" vector-effect="non-scaling-stroke"/></g><g id="g"><path fill="#9f9bc4" d="m8 2.3-1-.4zM.8 0 6 .4l.8.6 1-.6 1.2.7.5 2L2.8 5l-.3-4z"/><path fill="#7472b1" d="m.7 0 1.8.9.3 4L0 3.3z"/><path fill="none" stroke="#3d3e6d" stroke-linecap="round" stroke-linejoin="round" stroke-width="__RESOLUTION__" d="m7 1.9 1 .4M2.9 4.9l6.6-1.8-.4-2L7.8.5 6.7 1 5.9.3.7 0 0 3.4z" vector-effect="non-scaling-stroke"/></g><g id="h"><path fill="#916a38" d="M8.4 0q1.2 2.3 1.1 7.2-.3-.1-1 1.3l-1.2 1.7-.8.7-4.2-9.5Q8 1 8.4 0M7.3 7Q5.2 5.2 4.1 2.4q1 2.8 3.2 4.5"/><path fill="#755227" d="m6.6 10.9-.8.6q-.3.2-.9-.8-.8-1.3-1.9-2-.7-1.3-1-3L1.6 4Q1 2.4 0 1.6l1.7-.1h.6z"/><path fill="none" stroke="#372411" stroke-linecap="round" stroke-linejoin="round" stroke-width="__RESOLUTION__" d="M8.4 0q1.2 2.3 1.1 7.2-.3-.1-1 1.3l-1.2 1.7-.8.7h0l-.8.6q-.3.2-.9-.8-.8-1.3-1.9-2-.7-1.3-1-3L1.6 4Q1 2.4 0 1.6m4.1.9q1 2.8 3.2 4.6" vector-effect="non-scaling-stroke"/></g><g id="k"><path fill="#c5904c" d="M10.7 3.3 15.1 5q-4.4 3.5-5.3 7.4l-2.9 1Q7.2 8 10.7 3.2"/><path fill="#916a38" d="M10.7 3.3Q7.3 8 7 13.5l-7-1.8Q-.4 5.7 2.2.9q3.4-2.6 8.6 2.3M2.9 4.9q2 0 3.6 1.8Q5 4.9 2.9 4.9m5.1 1Q5.8 3 3.7 2.3 5.7 3 8 5.9"/><path fill="none" stroke="#543d21" stroke-linecap="round" stroke-linejoin="round" stroke-width="__RESOLUTION__" d="M9.8 12.5q.9-4 5.3-7.4l-4.4-1.8Q5.5-1.8 2.1.8-.4 5.7.1 11.7m6.4-5.1Q5 4.9 2.9 4.9m.8-2.6Q5.7 3 8 6" vector-effect="non-scaling-stroke"/></g><g id="l"><path fill="#9f9bc4" d="M6.2 0h1.4l.1 1.3q-.2 1.1-1.5 3.3-1.7 2.7-4.2 5L.4 8.9q2.8-3 5.8-8.9"/><path fill="#7472b1" d="M.4 8.9 0 8.2l3.3-5L4.8.9q.9-1 1.4-.9-3 5.9-5.8 8.9"/><path fill="none" stroke="#3d3e6d" stroke-linecap="round" stroke-linejoin="round" stroke-width="__RESOLUTION__" d="M6.2 0h1.4m.1 1.3q-.2 1.1-1.5 3.3-1.7 2.7-4.2 5M0 8.3l3.3-5.1L4.8.9q.9-1 1.4-.9" vector-effect="non-scaling-stroke"/></g><g id="m"><path fill="#573d13" d="M12.8 1.2q1 3.2.8 6.4v4.2l-8.1 1.8V9.5q0-3.9-1-7.3zm.8 6.4L5.5 9.5z"/><path fill="#231807" d="m5.5 13.6-5.5-2V1q2-.2 4.5 1.2 1 3.4 1 7.3z"/><path fill="#7a561b" d="m0 1 8.7-1q2-.2 4 1.2l-8.2 1Q2.1.8 0 .8"/><path fill="none" stroke="#000" stroke-linecap="round" stroke-linejoin="round" stroke-width="__RESOLUTION__" d="M12.8 1.2q1 3.2.8 6.4v4.2l-8.1 1.8-5.5-2V1l8.7-1q2-.2 4 1.1M5.6 9.6l8.1-2" vector-effect="non-scaling-stroke"/><path fill="#ba3a3a" d="M11.2 6.2 11 9.8 9 10V6.6z"/></g><g id="n"><path fill="#b15cb1" d="M22.4 11v.9q-.4 2.8-4.8 3.8l-4.6 1-2.5-2-1.7-1-.7-.3q-1-.5-2.1-.6l1.3-.7h.1l3.3-4.8-.2-.9 7.8 1.2.6.4.5.3zM2.8 16.8q1.1-.6 3.1-.4 1.5.2 2.8.8z"/><path fill="#93468f" d="m13 16.7 4.6-1q4.4-1 4.8-3.8V11q4.3 4.5 6 11l-.8 1.5-7.1 7.2-.2-.4.3.3.1-1.2v-.2l.2-1.3q-3.8-7.3-7.9-11.2"/><path fill="#64416d" d="m22.4 11-3-2.7L19 8l-.7-.4-7.8-1.2q.7-.6 1.8-1 1.3-.7 3.5-.5 2.5.2 4.4 1.3l.8.4 1.6 1.2q5.1 4.1 7.8 14.5l-2 2.6-6.8 7.1-1.1-1.2 7-7.3.8-1.5q-1.6-6.5-5.9-11M6 12.8q1 .1 2.1.6l.8.4 1.6 1 2.5 1.9q4.1 3.9 7.9 11.3l-.1 1.1-.1.3-.1 1.3-.3-.5q-6-9.5-10-12.2-.8-.6-1.6-.9-1.3-.6-2.8-.7-2-.2-3.2.4l-.3.2-1.8 1.4-.5-1q-.5-1.7 1.4-3.6.8-.9 2.6-1.1z"/><path fill="none" stroke="#000" stroke-linecap="round" stroke-linejoin="round" stroke-width="__RESOLUTION__" d="m10.5 6.4.3.9L7.4 12h0l-1.4.7M20.8 29l-.1.3m-.2 1.4 1 1.2 6.9-7.1" vector-effect="non-scaling-stroke"/><path fill="none" stroke="#000" stroke-linecap="round" stroke-linejoin="round" stroke-width="__RESOLUTION__" d="m20.9 28-.1 1.1m-.1.3-.1 1.3m7.7-5.8 2.1-2.6q-2.7-10.4-7.8-14.5L21 6.7l-.8-.5q-1.9-1.1-4.4-1.3-2.2-.1-3.5.5-1.1.4-1.8 1" vector-effect="non-scaling-stroke"/><path fill="#ddc8a6" d="m15.7 1.5.9 4.3-.9.6-.9-4.4z"/><path fill="#c09e58" d="m14.8 2 1 4.4q-.8.3-1-.3l-.9-4.4q.3.5.9.3"/><path fill="none" stroke="#bb924f" stroke-linecap="round" stroke-linejoin="round" stroke-width="__RESOLUTION__" d="m16.6 5.8-.9-4.3" vector-effect="non-scaling-stroke"/><path fill="none" stroke="#4d3a1e" stroke-linecap="round" stroke-linejoin="round" stroke-width="__RESOLUTION__" d="m15.7 1.5-.9.5q-.7.2-.9-.3l.9 4.4q.2.6 1 .3l.8-.6" vector-effect="non-scaling-stroke"/><path fill="#c09e58" d="M16.8.2q-.4.1-.5.6t0 1.3l-4 .4L12 2q0-.6.9-1.2.7-.6 2-.7z"/><path fill="#ddc8a6" d="M16.3 2q-.2-.6 0-1.2t.5-.7l.6.9-.6 1.4z"/><path fill="#a27b3e" d="m12.3 2.5 4-.4.5.3q-.8.5-2 .6H13z"/><path fill="none" stroke="#765a2e" stroke-linecap="round" stroke-linejoin="round" stroke-width="__RESOLUTION__" d="M16.3 2q-.2-.6 0-1.2t.5-.7m-.6 2 .6.3" vector-effect="non-scaling-stroke"/><path fill="none" stroke="#4d3a1e" stroke-linecap="round" stroke-linejoin="round" stroke-width="__RESOLUTION__" d="M16.8.2 14.9 0q-1.2.2-2 .8T12.1 2l.2.5.6.5h2q1-.1 1.9-.5l.6-1.5z" vector-effect="non-scaling-stroke"/></g><g id="o"><path fill="#fff" d="M13.5 9.5q.3 1 0 1.3l-1.1.7q-2.5 1.6-4.2 8.4l-2.1-1q3.6-5.3 5-10.7z"/><path fill="#f5ead3" d="M11 8.3q-1.3 5.3-5 10.5l-2.2-1.1q-.1-.8.4-1l.9-.2q3.6-3.4 3.6-5.6L8.5 9Q8.3 8 9 7.2z"/><path fill="none" stroke="#746330" stroke-linecap="round" stroke-linejoin="round" stroke-width="__RESOLUTION__" d="M8.2 20q1.8-6.8 4.2-8.5l1.1-.7q.3-.3 0-1.3M9 7.2q-.6.9-.5 1.8l.2 1.9q0 2.2-3.6 5.6l-.9.3q-.6.1-.5.9" vector-effect="non-scaling-stroke"/><path fill="#fff" d="M12.1 8.2q1.1.6.5 1.9-.6 1.1-2 2-3.4-6-8-9Q4.2 1.5 3.7 0q.6.1.7.7l.3 1.6q1 2.8 7.4 5.9"/><path fill="#f5ead3" d="M2.7 3q4.5 3 7.9 9.1-1.5-1.3-2-1.1-1.2-.1-3.6-4.4-1.6-3-5-3.6z"/><path fill="none" stroke="#746330" stroke-linecap="round" stroke-linejoin="round" stroke-width="__RESOLUTION__" d="M12.1 8.2q-6.3-3-7.4-5.9L4.4.7Q4.3.1 3.7 0m4.9 11Q7.4 10.9 5 6.6 3.4 3.6 0 3" vector-effect="non-scaling-stroke"/></g><g id="p"><path fill="#f5ead3" d="m2.1 21.8 3.4 2.4-2.3 5.3-3.2-3z"/><path fill="none" stroke="#746330" stroke-linecap="round" stroke-linejoin="round" stroke-width="__RESOLUTION__" d="m2.1 21.8 3.4 2.4-2.3 5.3-3.2-3z" vector-effect="non-scaling-stroke"/><path fill="#f5ead3" d="m11.5 28.2 6-.8.4 5.7-6.1.4z"/><path fill="none" stroke="#746330" stroke-linecap="round" stroke-linejoin="round" stroke-width="__RESOLUTION__" d="m11.5 28.2 6-.8.4 5.7-6.1.4z" vector-effect="non-scaling-stroke"/><path fill="#f5ead3" d="m5.4 26 4 .9.1 5.7-4.1-1.4z"/><path fill="none" stroke="#746330" stroke-linecap="round" stroke-linejoin="round" stroke-width="__RESOLUTION__" d="m5.4 26 4 .9.1 5.7-4.1-1.4z" vector-effect="non-scaling-stroke"/><path fill="#f5ead3" d="m24.7 0 14.6 7 1.2 6.8-6.9 14-11 2.9-10.9-2.3q-4.2.3-7.2-1.3-.4-4.2.2-8v.6l2.8 4.8 3.1-2.1 3.7-1.9v-4.7l-4.4-4.4-3.5 1.5q.5-5 6.2-9z"/><path fill="#fff" d="m4.5 27.1-1.8-2.6Q-.6 19 2.7 12q1.7-4.3 2.4-9.4Q8.8.2 13.6 0h11.2L12.6 3.9q-5.6 4-6.2 9l-2 1.3.3 5q-.6 3.7-.2 7.9M2.3 19l.1 2.6z"/><path fill="#d2af8c" d="m6.4 12.9-.6 5.4-1 1.4v-.5l-.4-5z"/><path fill="#5a4014" d="m6.4 12.9 3.5-1.5 4.4 4.4v4.7l-3.6 1.9-4.9-4z"/><path fill="#e6d2bd" d="m10.7 22.4-3.2 2-2.7-4.7 1-1.3z"/><path fill="none" stroke="#746330" stroke-linecap="round" stroke-linejoin="round" stroke-width="__RESOLUTION__" d="m24.7 0 14.6 7 1.2 6.8-6.9 14-11 2.9-10.9-2.3q-4.2.3-7.2-1.3l-1.8-2.6q-3.3-5.5 0-12.6 1.7-4.2 2.4-9.3Q8.7.2 13.6 0zM6.4 12.9l3.5-1.5 4.4 4.4v4.7l-3.6 1.9-3.2 2-2.7-4.7v-.5l-.4-5zm-.6 5.5.6-5.5m-4 8.7L2.3 19m8.4 3.4-4.9-4" vector-effect="non-scaling-stroke"/><path fill="none" stroke="#746330" stroke-linecap="round" stroke-linejoin="round" stroke-width="__RESOLUTION__" d="M15.2 15q1-2 3.9-3.2l3.5-1.5" vector-effect="non-scaling-stroke"/><path fill="#fff" d="M7.3 12.8q2 0 3.4 1.3 1.5 1.5 1.5 3.5T10.6 21t-3.4 1.5T3.9 21t-1.4-3.4 1.4-3.4q1.4-1.4 3.4-1.4"/><path fill="none" stroke="#746330" stroke-linecap="round" stroke-linejoin="round" stroke-width="__RESOLUTION__" d="M7.3 12.8q2 0 3.4 1.3 1.5 1.5 1.5 3.5T10.6 21t-3.4 1.5T3.9 21t-1.4-3.4 1.4-3.4q1.4-1.4 3.4-1.4" vector-effect="non-scaling-stroke"/><path fill="#000" d="m6.6 19.8-.6-.3-.2-.5.2-.6.6-.2.6.2q.2.2.2.6l-.3.6z"/></g><g id="q"><path fill="#fff" d="m9.3 4.3-.7 3.6-4.8-1Q.5 6.4 0 6l.4-2.3 4.2.4z"/><path fill="#f5ead3" d="M9.3 4.3 4.6 4 .4 3.7l.1-1.8.8.2Q2 2 6.4 0q2.2.4 2.1 1.7.8 0 .9 1zm-5.5-1q.9-.6 2.4-1l2.2-.6-2.2.6q-1.5.4-2.4 1"/><path fill="none" stroke="#746330" stroke-linecap="round" stroke-linejoin="round" stroke-width="__RESOLUTION__" d="M0 6q.5.4 3.8.9l4.8 1m.7-3.7V2.8q-.1-1-.9-1l-2.3.6q-1.5.4-2.3 1M6.4 0Q2 2.1 1.3 2l-.9-.2m7.9-.2q0-1.2-2-1.6" vector-effect="non-scaling-stroke"/></g><g id="r"><path fill="#573d13" d="M13.4 1.2q.7 2.1.2 10.5l-7.5 1.9V2.2z"/><path fill="#7a561b" d="M13.4 1.2 6 2.2Q3.6.8 1.3 1l8-1q2-.2 4 1.2"/><path fill="#231807" d="M6.1 2.2v11.4l-5.5-2-.1-4.9-.4-.2q-.5-2.2 1-5.5h.2Q3.6.8 6.1 2.2"/><path fill="none" stroke="#000" stroke-linecap="round" stroke-linejoin="round" stroke-width="__RESOLUTION__" d="M13.6 11.8q.5-8.5-.2-10.6-2-1.4-4.1-1.1M1.2 1Q-.4 4.4 0 6.5l.4.2q.2.6.1 4.9l5.5 2m0 0 7.5-1.8M9.3 0l-8 .9h-.1" vector-effect="non-scaling-stroke"/></g><g id="s"><path fill="#ebebeb" d="M13.5 9.5q.3 1 0 1.3l-1.1.7q-2.5 1.6-4.2 8.4l-2.1-1q3.6-5.3 5-10.7z"/><path fill="#e1d7c2" d="M11 8.3q-1.3 5.3-5 10.5l-2.2-1.1q-.1-.8.4-1l.9-.2q3.6-3.4 3.6-5.6L8.5 9Q8.3 8 9 7.2z"/><path fill="none" stroke="#6a5b2c" stroke-linecap="round" stroke-linejoin="round" stroke-width="__RESOLUTION__" d="M8.2 20q1.8-6.8 4.2-8.5l1.1-.7q.3-.3 0-1.3M9 7.2q-.6.9-.5 1.8l.2 1.9q0 2.2-3.6 5.6l-.9.3q-.6.1-.5.9" vector-effect="non-scaling-stroke"/><path fill="#ebebeb" d="M12.1 8.2q1.1.6.5 1.9-.6 1.1-2 2-3.4-6-8-9Q4.2 1.5 3.7 0q.6.1.7.7l.3 1.6q1 2.8 7.4 5.9"/><path fill="#e1d7c2" d="M2.7 3q4.5 3 7.9 9.1-1.5-1.3-2-1.1-1.2-.1-3.6-4.4-1.6-3-5-3.6z"/><path fill="none" stroke="#6a5b2c" stroke-linecap="round" stroke-linejoin="round" stroke-width="__RESOLUTION__" d="M12.1 8.2q-6.3-3-7.4-5.9L4.4.7Q4.3.1 3.7 0m4.9 11Q7.4 10.9 5 6.6 3.4 3.6 0 3" vector-effect="non-scaling-stroke"/></g><g id="t"><path fill="#ebebeb" d="m9.3 4.3-.7 3.6-4.8-1Q.5 6.4 0 6l.4-2.3 4.2.4z"/><path fill="#e1d7c2" d="M9.3 4.3 4.6 4 .4 3.7l.1-1.8.8.2Q2 2 6.4 0q2.2.4 2.1 1.7.8 0 .9 1zm-5.5-1q.9-.6 2.4-1l2.2-.6-2.2.6q-1.5.4-2.4 1"/><path fill="none" stroke="#6a5b2c" stroke-linecap="round" stroke-linejoin="round" stroke-width="__RESOLUTION__" d="M0 6q.5.4 3.8.9l4.8 1m.7-3.7V2.8q-.1-1-.9-1l-2.3.6q-1.5.4-2.3 1M6.4 0Q2 2.1 1.3 2l-.9-.2m7.9-.2q0-1.2-2-1.6" vector-effect="non-scaling-stroke"/></g><g id="x" transform="translate(4.95 28.05)"><use xlink:href="#v" width="8.8" height="56.7" transform="translate(-4.2 -28.05)"/><use xlink:href="#w" width="4" height="5.5" transform="matrix(-.9013 -1.48 .9441 -.3436 -1.4 4.4)"/></g><g id="A"><path fill="#f1d7a3" d="M18.4 5.9h-2.9L18 2.1z"/><path fill="none" stroke="#fff" stroke-linecap="round" stroke-linejoin="round" stroke-width="__RESOLUTION__" d="M18.4 5.9 18 2.1" vector-effect="non-scaling-stroke"/><path fill="none" stroke="#000" stroke-linecap="round" stroke-linejoin="round" stroke-width="__RESOLUTION__" d="m18 2.2-2.5 3.7" vector-effect="non-scaling-stroke"/><path fill="#7472b1" d="M.1 4.8q0-1 .5-1.7.4-.9 1.3-1.2l.7-.1 1-.1 1.3-.2 1.5-.1 1.2-.1L9.1.8l1.3-.5.6-.3h.1L11 1l-1 2.6-2 3.6-.8 1.2-.9 1.1-1 .9q-.6.4-1.2.5H2.3l-1-.6Q.7 9.6.4 8.7-.2 7 .1 4.9"/><path fill="none" stroke="#3d3e6d" stroke-linecap="round" stroke-linejoin="round" stroke-width="__RESOLUTION__" d="M.1 4.8q0-1 .5-1.7.4-.9 1.3-1.2l.7-.1 1-.1 1.3-.2 1.5-.1 1.2-.1L9.1.8l1.3-.5.6-.3h.1L11 1l-1 2.6-2 3.6-.8 1.2-.9 1.1-1 .9q-.6.4-1.2.5H2.3l-1-.6" vector-effect="non-scaling-stroke"/></g><g id="y"><path fill="#7472b1" d="m6.6 12.2-1.4.3-2-.7-1.1-1-.7-1L1 8.5.5 7.1Q.1 5.3 0 3.4V1l.2-1h.1l.6.6 1.3.8 1.3.9 1.3.6 1.6.6 1.4.6 1.1.4.7.4q.7.6.9 1.5.1.8-.2 1.6-.6 1.9-2 3.2-.9.7-1.8 1"/><path fill="none" stroke="#272847" stroke-linecap="round" stroke-linejoin="round" stroke-width="__RESOLUTION__" d="M10.3 8q.3-.8.2-1.6-.2-.9-.9-1.5l-.7-.4-1.1-.4-1.4-.7-1.6-.6-1.2-.6-1.4-.9L.9.6.3 0H.2L0 1v2.5q0 1.9.5 3.7L1 8.6l.4 1.2.7 1 1.1 1 2 .7 1.3-.3" vector-effect="non-scaling-stroke"/><path fill="#9f9bc4" d="M16 14.7q-2-4.5-1-10.2-5-2.8-9.6-2 6-2 11.8-1.7l6.5 1.7L27 6l.7 2.5 1.1 3 5-2-1.6 7.7-8.5 1.7z"/><path fill="#7472b1" d="M5.5 2.6q4.6-1 9.6 1.8-1 5.8.9 10.2l-9.5-2.2q-2.8-4.5-1-9.9m28.4 7-5 2-1.1-3z"/><path fill="none" stroke="#3d3e6d" stroke-linecap="round" stroke-linejoin="round" stroke-width="__RESOLUTION__" d="m16 14.7 7.9 4.2 8.5-1.7 1.5-7.6-6.1-1.1 1.2 3m-1.2-3L27.1 6l-3.4-3.6L17.2.7Q11.4.4 5.5 2.6q-1.8 5.3 1 9.8l9.5 2.2" vector-effect="non-scaling-stroke"/></g><g id="U" transform="translate(0 28.2)"><use xlink:href="#x" width="9.5" height="56.7" transform="matrix(-1 0 0 1 9.5 -28.2)"/><use xlink:href="#w" width="4" height="5.5" transform="matrix(-.377 -1.7 1.01 -.0209 2.7 4.55)"/></g><g id="P" transform="translate(0 9.45)"><use xlink:href="#y" width="33.9" height="18.9" transform="translate(0 -9.45)"/><use xlink:href="#z" width="5.6" height="5.3" transform="translate(23.5 -3.9)"/><use xlink:href="#A" width="18.4" height="11" transform="translate(14.65 -4.9)"/></g><g id="J" transform="translate(0 3.15)"><use xlink:href="#B" width="7" height="5.2" transform="translate(0 -3.15)"/><use xlink:href="#B" width="7" height="5.2" transform="translate(2.05 -1.95)"/></g><g id="F" transform="translate(0 3.15)"><use xlink:href="#C" width="7" height="5.2" transform="translate(0 -3.15)"/><use xlink:href="#C" width="7" height="5.2" transform="translate(2.05 -1.95)"/></g><clipPath id="D"><path d="M1 1h84v74H1z"/></clipPath><clipPath id="W"><path d="M86 1h84v74H86z"/></clipPath><clipPath id="Y"><path d="M171 1h84v74h-84z"/></clipPath><clipPath id="aa"><path d="M256 1h84v74h-84z"/></clipPath><clipPath id="ac"><path d="M341 1h84v74h-84z"/></clipPath><clipPath id="ae"><path d="M426 1h84v74h-84z"/></clipPath><clipPath id="ag"><path d="M511 1h84v74h-84z"/></clipPath><clipPath id="ai"><path d="M596 1h84v74h-84z"/></clipPath><clipPath id="ak"><path d="M681 1h84v74h-84z"/></clipPath><clipPath id="am"><path d="M766 1h84v74h-84z"/></clipPath><clipPath id="an"><path d="M851 1h84v74h-84z"/></clipPath><path id="u" fill="#382c16" d="M5.8-1.9Q7.9-1.4 8-.5 8 .3 5.9 1 3.8 1.8.7 2l-5.2-.4Q-6.7 1.2-6.7.3q-.1-.8 2-1.6 2.2-.8 5.2-.9z" transform="translate(6.75 2.25)"/></defs><g clip-path="url(#D)"><g transform="translate(59.95 70.5)"><use xlink:href="#E" width="14.7" height="4.3" transform="matrix(-.8 0 0 .801 5.35 -1.75)"/><use xlink:href="#F" width="9.1" height="6.3" transform="matrix(1.2198 0 0 1.4715 -4.7 -8.3)"/><use xlink:href="#G" width="9.3" height="7.9" transform="translate(-11.6 -7.8)"/><use xlink:href="#H" width="13.7" height="19.9" transform="matrix(-.9853 .2655 .2491 .9473 -7.05 -24.4)"/><use xlink:href="#I" width="13.8" height="13.6" transform="translate(-21.8 -33.15)"/><use xlink:href="#J" width="9.1" height="6.3" transform="matrix(1.2198 0 0 1.2908 2.8 -4.2)"/><use xlink:href="#K" width="9.3" height="7.9" transform="translate(-1.35 -3.7)"/><use xlink:href="#L" width="40.5" height="33.5" transform="matrix(-1 0 0 1 24.25 -45.4)"/><use xlink:href="#M" width="13.7" height="19.9" transform="matrix(-.9853 .2655 .2491 .9473 1.7 -18.9)"/><use xlink:href="#N" width="30.4" height="32" transform="matrix(.9739 .2131 -.4138 .9336 -9.85 -54.85)"/><use xlink:href="#O" width="13.7" height="13.6" transform="translate(-4.2 -26.1)"/><use xlink:href="#P" width="33.9" height="18.9" transform="rotate(3.527 1063.381 -309.91)scale(.7998)"/><use xlink:href="#Q" width="7.7" height="9.6" transform="matrix(-.7284 -.2073 -.0615 .5374 -8.65 -46.6)"/><use xlink:href="#Q" width="7.7" height="9.6" transform="matrix(1.025 -.2288 .1204 .7795 -15.7 -53.05)"/><use xlink:href="#Q" width="7.7" height="9.6" transform="matrix(-.525 -.596 .3046 -.7282 .9 -34.5)"/><use xlink:href="#Q" width="7.7" height="9.6" transform="matrix(.6945 -.5383 .362 .4721 -1.4 -37.65)"/><use xlink:href="#R" width="15.1" height="13.5" transform="matrix(.708 -.1576 .5744 .8428 -13.15 -53.45)"/><use xlink:href="#S" width="9.5" height="11.6" transform="matrix(.7332 .3545 -.3934 .4824 -7.45 -46.05)"/><use xlink:href="#Q" width="7.7" height="9.6" transform="matrix(-.8635 -.5164 -.4416 .6583 3.95 -49.35)"/><use xlink:href="#Q" width="7.7" height="9.6" transform="matrix(-.2301 1.0076 .5946 .3051 -.75 -51.75)"/><use xlink:href="#T" width="9.4" height="4.9" transform="rotate(35.264 57.906 -15.633)scale(.797)"/><use xlink:href="#U" width="9.5" height="56.7" transform="matrix(.7971 .0172 .0725 .7207 -.4 -69.45)"/><use xlink:href="#V" width="36.4" height="34.2" transform="matrix(-1 0 0 1 -22.6 -69.5)"/></g></g><g clip-path="url(#W)"><g transform="translate(144.95 70.5)"><use xlink:href="#E" width="14.7" height="4.3" transform="matrix(-.8 0 0 .801 5.35 -1.75)"/><use xlink:href="#F" width="9.1" height="6.3" transform="matrix(1.2198 0 0 1.4715 -4.7 -8.3)"/><use xlink:href="#G" width="9.3" height="7.9" transform="translate(-11.6 -7.8)"/><use xlink:href="#H" width="13.7" height="19.9" transform="matrix(-.9853 .2655 .2491 .9473 -7.05 -24.4)"/><use xlink:href="#I" width="13.8" height="13.6" transform="translate(-21.8 -33.15)"/><use xlink:href="#J" width="9.1" height="6.3" transform="matrix(1.2198 0 0 1.2908 2.8 -4.2)"/><use xlink:href="#K" width="9.3" height="7.9" transform="translate(-1.35 -3.7)"/><use xlink:href="#L" width="40.5" height="33.5" transform="matrix(-1 0 0 1 24.25 -45.4)"/><use xlink:href="#M" width="13.7" height="19.9" transform="matrix(-.9853 .2655 .2491 .9473 1.7 -18.9)"/><use xlink:href="#N" width="30.4" height="32" transform="matrix(.9739 .2131 -.4138 .9336 -9.85 -54.85)"/><use xlink:href="#O" width="13.7" height="13.6" transform="translate(-4.2 -26.1)"/><use xlink:href="#P" width="33.9" height="18.9" transform="rotate(3.527 1063.381 -309.91)scale(.7998)"/><use xlink:href="#Q" width="7.7" height="9.6" transform="matrix(-.7284 -.2073 -.0615 .5374 -8.65 -46.6)"/><use xlink:href="#Q" width="7.7" height="9.6" transform="matrix(1.025 -.2288 .1204 .7795 -15.7 -53.05)"/><use xlink:href="#Q" width="7.7" height="9.6" transform="matrix(-.525 -.596 .3046 -.7282 .9 -34.5)"/><use xlink:href="#Q" width="7.7" height="9.6" transform="matrix(.6945 -.5383 .362 .4721 -1.4 -37.65)"/><use xlink:href="#R" width="15.1" height="13.5" transform="matrix(.708 -.1576 .5744 .8428 -13.15 -53.45)"/><use xlink:href="#S" width="9.5" height="11.6" transform="matrix(.7332 .3545 -.3934 .4824 -7.45 -46.05)"/><use xlink:href="#Q" width="7.7" height="9.6" transform="matrix(-.8635 -.5164 -.4416 .6583 3.95 -49.35)"/><use xlink:href="#Q" width="7.7" height="9.6" transform="matrix(-.2301 1.0076 .5946 .3051 -.75 -51.75)"/><use xlink:href="#T" width="9.4" height="4.9" transform="rotate(35.264 57.906 -15.633)scale(.797)"/><use xlink:href="#U" width="9.5" height="56.7" transform="matrix(.7971 .0172 .0725 .7207 -.4 -69.45)"/><use xlink:href="#X" width="36.4" height="34.2" transform="matrix(-1 0 0 1 -22.6 -69.5)"/></g></g><g clip-path="url(#Y)"><g transform="translate(229.95 70.5)"><use xlink:href="#E" width="14.7" height="4.3" transform="matrix(-.8 0 0 .801 5.35 -1.75)"/><use xlink:href="#F" width="9.1" height="6.3" transform="matrix(1.2198 0 0 1.4715 -4.7 -8.3)"/><use xlink:href="#G" width="9.3" height="7.9" transform="translate(-11.6 -7.8)"/><use xlink:href="#H" width="13.7" height="19.9" transform="matrix(-.9853 .2655 .2491 .9473 -7.05 -24.4)"/><use xlink:href="#I" width="13.8" height="13.6" transform="translate(-21.8 -33.15)"/><use xlink:href="#J" width="9.1" height="6.3" transform="matrix(1.2198 0 0 1.2908 2.8 -4.2)"/><use xlink:href="#K" width="9.3" height="7.9" transform="translate(-1.35 -3.7)"/><use xlink:href="#L" width="40.5" height="33.5" transform="matrix(-1 0 0 1 24.25 -45.4)"/><use xlink:href="#M" width="13.7" height="19.9" transform="matrix(-.9853 .2655 .2491 .9473 1.7 -18.9)"/><use xlink:href="#N" width="30.4" height="32" transform="matrix(.9739 .2131 -.4138 .9336 -9.85 -54.85)"/><use xlink:href="#O" width="13.7" height="13.6" transform="translate(-4.2 -26.1)"/><use xlink:href="#P" width="33.9" height="18.9" transform="rotate(3.527 1063.381 -309.91)scale(.7998)"/><use xlink:href="#Q" width="7.7" height="9.6" transform="matrix(-.7284 -.2073 -.0615 .5374 -8.65 -46.6)"/><use xlink:href="#Q" width="7.7" height="9.6" transform="matrix(1.025 -.2288 .1204 .7795 -15.7 -53.05)"/><use xlink:href="#Q" width="7.7" height="9.6" transform="matrix(-.525 -.596 .3046 -.7282 .9 -34.5)"/><use xlink:href="#Q" width="7.7" height="9.6" transform="matrix(.6945 -.5383 .362 .4721 -1.4 -37.65)"/><use xlink:href="#R" width="15.1" height="13.5" transform="matrix(.708 -.1576 .5744 .8428 -13.15 -53.45)"/><use xlink:href="#S" width="9.5" height="11.6" transform="matrix(.7332 .3545 -.3934 .4824 -7.45 -46.05)"/><use xlink:href="#Q" width="7.7" height="9.6" transform="matrix(-.8635 -.5164 -.4416 .6583 3.95 -49.35)"/><use xlink:href="#Q" width="7.7" height="9.6" transform="matrix(-.2301 1.0076 .5946 .3051 -.75 -51.75)"/><use xlink:href="#T" width="9.4" height="4.9" transform="rotate(35.264 57.906 -15.633)scale(.797)"/><use xlink:href="#U" width="9.5" height="56.7" transform="matrix(.7971 .0172 .0725 .7207 -.4 -69.45)"/><use xlink:href="#Z" width="36.4" height="34.2" transform="matrix(-1 0 0 1 -22.6 -69.5)"/></g></g><g clip-path="url(#aa)"><g transform="translate(314.95 70.5)"><use xlink:href="#E" width="14.7" height="4.3" transform="matrix(-.8 0 0 .801 5.35 -1.75)"/><use xlink:href="#F" width="9.1" height="6.3" transform="matrix(1.2198 0 0 1.4715 -4.7 -8.3)"/><use xlink:href="#G" width="9.3" height="7.9" transform="translate(-11.6 -7.8)"/><use xlink:href="#H" width="13.7" height="19.9" transform="matrix(-.9853 .2655 .2491 .9473 -7.05 -24.4)"/><use xlink:href="#I" width="13.8" height="13.6" transform="translate(-21.8 -33.15)"/><use xlink:href="#J" width="9.1" height="6.3" transform="matrix(1.2198 0 0 1.2908 2.8 -4.2)"/><use xlink:href="#K" width="9.3" height="7.9" transform="translate(-1.35 -3.7)"/><use xlink:href="#L" width="40.5" height="33.5" transform="matrix(-1 0 0 1 24.25 -45.4)"/><use xlink:href="#M" width="13.7" height="19.9" transform="matrix(-.9853 .2655 .2491 .9473 1.7 -18.9)"/><use xlink:href="#N" width="30.4" height="32" transform="matrix(.9739 .2131 -.4138 .9336 -9.85 -54.85)"/><use xlink:href="#O" width="13.7" height="13.6" transform="translate(-4.2 -26.1)"/><use xlink:href="#P" width="33.9" height="18.9" transform="rotate(3.527 1063.381 -309.91)scale(.7998)"/><use xlink:href="#Q" width="7.7" height="9.6" transform="matrix(-.7284 -.2073 -.0615 .5374 -8.65 -46.6)"/><use xlink:href="#Q" width="7.7" height="9.6" transform="matrix(1.025 -.2288 .1204 .7795 -15.7 -53.05)"/><use xlink:href="#Q" width="7.7" height="9.6" transform="matrix(-.525 -.596 .3046 -.7282 .9 -34.5)"/><use xlink:href="#Q" width="7.7" height="9.6" transform="matrix(.6945 -.5383 .362 .4721 -1.4 -37.65)"/><use xlink:href="#R" width="15.1" height="13.5" transform="matrix(.708 -.1576 .5744 .8428 -13.15 -53.45)"/><use xlink:href="#S" width="9.5" height="11.6" transform="matrix(.7332 .3545 -.3934 .4824 -7.45 -46.05)"/><use xlink:href="#Q" width="7.7" height="9.6" transform="matrix(-.8635 -.5164 -.4416 .6583 3.95 -49.35)"/><use xlink:href="#Q" width="7.7" height="9.6" transform="matrix(-.2301 1.0076 .5946 .3051 -.75 -51.75)"/><use xlink:href="#T" width="9.4" height="4.9" transform="rotate(35.264 57.906 -15.633)scale(.797)"/><use xlink:href="#U" width="9.5" height="56.7" transform="matrix(.7971 .0172 .0725 .7207 -.4 -69.45)"/><use xlink:href="#ab" width="36.4" height="34.2" transform="matrix(-1 0 0 1 -22.6 -69.5)"/></g></g><g clip-path="url(#ac)"><g transform="translate(399.95 70.5)"><use xlink:href="#E" width="14.7" height="4.3" transform="matrix(-.8 0 0 .801 5.35 -1.75)"/><use xlink:href="#F" width="9.1" height="6.3" transform="matrix(1.2198 0 0 1.4715 -4.7 -8.3)"/><use xlink:href="#G" width="9.3" height="7.9" transform="translate(-11.6 -7.8)"/><use xlink:href="#H" width="13.7" height="19.9" transform="matrix(-.9853 .2655 .2491 .9473 -7.05 -24.4)"/><use xlink:href="#I" width="13.8" height="13.6" transform="translate(-21.8 -33.15)"/><use xlink:href="#J" width="9.1" height="6.3" transform="matrix(1.2198 0 0 1.2908 2.8 -4.2)"/><use xlink:href="#K" width="9.3" height="7.9" transform="translate(-1.35 -3.7)"/><use xlink:href="#L" width="40.5" height="33.5" transform="matrix(-1 0 0 1 24.25 -45.4)"/><use xlink:href="#M" width="13.7" height="19.9" transform="matrix(-.9853 .2655 .2491 .9473 1.7 -18.9)"/><use xlink:href="#N" width="30.4" height="32" transform="matrix(.9739 .2131 -.4138 .9336 -9.85 -54.85)"/><use xlink:href="#O" width="13.7" height="13.6" transform="translate(-4.2 -26.1)"/><use xlink:href="#P" width="33.9" height="18.9" transform="rotate(3.527 1063.381 -309.91)scale(.7998)"/><use xlink:href="#Q" width="7.7" height="9.6" transform="matrix(-.7284 -.2073 -.0615 .5374 -8.65 -46.6)"/><use xlink:href="#Q" width="7.7" height="9.6" transform="matrix(1.025 -.2288 .1204 .7795 -15.7 -53.05)"/><use xlink:href="#Q" width="7.7" height="9.6" transform="matrix(-.525 -.596 .3046 -.7282 .9 -34.5)"/><use xlink:href="#Q" width="7.7" height="9.6" transform="matrix(.6945 -.5383 .362 .4721 -1.4 -37.65)"/><use xlink:href="#R" width="15.1" height="13.5" transform="matrix(.708 -.1576 .5744 .8428 -13.15 -53.45)"/><use xlink:href="#S" width="9.5" height="11.6" transform="matrix(.7332 .3545 -.3934 .4824 -7.45 -46.05)"/><use xlink:href="#Q" width="7.7" height="9.6" transform="matrix(-.8635 -.5164 -.4416 .6583 3.95 -49.35)"/><use xlink:href="#Q" width="7.7" height="9.6" transform="matrix(-.2301 1.0076 .5946 .3051 -.75 -51.75)"/><use xlink:href="#T" width="9.4" height="4.9" transform="rotate(35.264 57.906 -15.633)scale(.797)"/><use xlink:href="#U" width="9.5" height="56.7" transform="matrix(.7971 .0172 .0725 .7207 -.4 -69.45)"/><use xlink:href="#ad" width="36.4" height="34.2" transform="matrix(-1 0 0 1 -22.6 -69.5)"/></g></g><g clip-path="url(#ae)"><g transform="translate(484.95 70.5)"><use xlink:href="#E" width="14.7" height="4.3" transform="matrix(-.8 0 0 .801 5.35 -1.75)"/><use xlink:href="#F" width="9.1" height="6.3" transform="matrix(1.2198 0 0 1.4715 -4.7 -8.3)"/><use xlink:href="#G" width="9.3" height="7.9" transform="translate(-11.6 -7.8)"/><use xlink:href="#H" width="13.7" height="19.9" transform="matrix(-.9853 .2655 .2491 .9473 -7.05 -24.4)"/><use xlink:href="#I" width="13.8" height="13.6" transform="translate(-21.8 -33.15)"/><use xlink:href="#J" width="9.1" height="6.3" transform="matrix(1.2198 0 0 1.2908 2.8 -4.2)"/><use xlink:href="#K" width="9.3" height="7.9" transform="translate(-1.35 -3.7)"/><use xlink:href="#L" width="40.5" height="33.5" transform="matrix(-1 0 0 1 24.25 -45.4)"/><use xlink:href="#M" width="13.7" height="19.9" transform="matrix(-.9853 .2655 .2491 .9473 1.7 -18.9)"/><use xlink:href="#N" width="30.4" height="32" transform="matrix(.9739 .2131 -.4138 .9336 -9.85 -54.85)"/><use xlink:href="#O" width="13.7" height="13.6" transform="translate(-4.2 -26.1)"/><use xlink:href="#P" width="33.9" height="18.9" transform="rotate(3.527 1063.381 -309.91)scale(.7998)"/><use xlink:href="#Q" width="7.7" height="9.6" transform="matrix(-.7284 -.2073 -.0615 .5374 -8.65 -46.6)"/><use xlink:href="#Q" width="7.7" height="9.6" transform="matrix(1.025 -.2288 .1204 .7795 -15.7 -53.05)"/><use xlink:href="#Q" width="7.7" height="9.6" transform="matrix(-.525 -.596 .3046 -.7282 .9 -34.5)"/><use xlink:href="#Q" width="7.7" height="9.6" transform="matrix(.6945 -.5383 .362 .4721 -1.4 -37.65)"/><use xlink:href="#R" width="15.1" height="13.5" transform="matrix(.708 -.1576 .5744 .8428 -13.15 -53.45)"/><use xlink:href="#S" width="9.5" height="11.6" transform="matrix(.7332 .3545 -.3934 .4824 -7.45 -46.05)"/><use xlink:href="#Q" width="7.7" height="9.6" transform="matrix(-.8635 -.5164 -.4416 .6583 3.95 -49.35)"/><use xlink:href="#Q" width="7.7" height="9.6" transform="matrix(-.2301 1.0076 .5946 .3051 -.75 -51.75)"/><use xlink:href="#T" width="9.4" height="4.9" transform="rotate(35.264 57.906 -15.633)scale(.797)"/><use xlink:href="#U" width="9.5" height="56.7" transform="matrix(.7971 .0172 .0725 .7207 -.4 -69.45)"/><use xlink:href="#af" width="36.4" height="34.2" transform="matrix(-1 0 0 1 -22.6 -69.5)"/></g></g><g clip-path="url(#ag)"><g transform="translate(569.95 70.5)"><use xlink:href="#E" width="14.7" height="4.3" transform="matrix(-.8 0 0 .801 5.35 -1.75)"/><use xlink:href="#F" width="9.1" height="6.3" transform="matrix(1.2198 0 0 1.4715 -4.7 -8.3)"/><use xlink:href="#G" width="9.3" height="7.9" transform="translate(-11.6 -7.8)"/><use xlink:href="#H" width="13.7" height="19.9" transform="matrix(-.9853 .2655 .2491 .9473 -7.05 -24.4)"/><use xlink:href="#I" width="13.8" height="13.6" transform="translate(-21.8 -33.15)"/><use xlink:href="#J" width="9.1" height="6.3" transform="matrix(1.2198 0 0 1.2908 2.8 -4.2)"/><use xlink:href="#K" width="9.3" height="7.9" transform="translate(-1.35 -3.7)"/><use xlink:href="#L" width="40.5" height="33.5" transform="matrix(-1 0 0 1 24.25 -45.4)"/><use xlink:href="#M" width="13.7" height="19.9" transform="matrix(-.9853 .2655 .2491 .9473 1.7 -18.9)"/><use xlink:href="#N" width="30.4" height="32" transform="matrix(.9739 .2131 -.4138 .9336 -9.85 -54.85)"/><use xlink:href="#O" width="13.7" height="13.6" transform="translate(-4.2 -26.1)"/><use xlink:href="#P" width="33.9" height="18.9" transform="rotate(3.527 1063.381 -309.91)scale(.7998)"/><use xlink:href="#Q" width="7.7" height="9.6" transform="matrix(-.7284 -.2073 -.0615 .5374 -8.65 -46.6)"/><use xlink:href="#Q" width="7.7" height="9.6" transform="matrix(1.025 -.2288 .1204 .7795 -15.7 -53.05)"/><use xlink:href="#Q" width="7.7" height="9.6" transform="matrix(-.525 -.596 .3046 -.7282 .9 -34.5)"/><use xlink:href="#Q" width="7.7" height="9.6" transform="matrix(.6945 -.5383 .362 .4721 -1.4 -37.65)"/><use xlink:href="#R" width="15.1" height="13.5" transform="matrix(.708 -.1576 .5744 .8428 -13.15 -53.45)"/><use xlink:href="#S" width="9.5" height="11.6" transform="matrix(.7332 .3545 -.3934 .4824 -7.45 -46.05)"/><use xlink:href="#Q" width="7.7" height="9.6" transform="matrix(-.8635 -.5164 -.4416 .6583 3.95 -49.35)"/><use xlink:href="#Q" width="7.7" height="9.6" transform="matrix(-.2301 1.0076 .5946 .3051 -.75 -51.75)"/><use xlink:href="#T" width="9.4" height="4.9" transform="rotate(35.264 57.906 -15.633)scale(.797)"/><use xlink:href="#U" width="9.5" height="56.7" transform="matrix(.7971 .0172 .0725 .7207 -.4 -69.45)"/><use xlink:href="#ah" width="36.4" height="34.2" transform="matrix(-1 0 0 1 -22.6 -69.5)"/></g></g><g clip-path="url(#ai)"><g transform="translate(654.95 70.5)"><use xlink:href="#E" width="14.7" height="4.3" transform="matrix(-.8 0 0 .801 5.35 -1.75)"/><use xlink:href="#F" width="9.1" height="6.3" transform="matrix(1.2198 0 0 1.4715 -4.7 -8.3)"/><use xlink:href="#G" width="9.3" height="7.9" transform="translate(-11.6 -7.8)"/><use xlink:href="#H" width="13.7" height="19.9" transform="matrix(-.9853 .2655 .2491 .9473 -7.05 -24.4)"/><use xlink:href="#I" width="13.8" height="13.6" transform="translate(-21.8 -33.15)"/><use xlink:href="#J" width="9.1" height="6.3" transform="matrix(1.2198 0 0 1.2908 2.8 -4.2)"/><use xlink:href="#K" width="9.3" height="7.9" transform="translate(-1.35 -3.7)"/><use xlink:href="#L" width="40.5" height="33.5" transform="matrix(-1 0 0 1 24.25 -45.4)"/><use xlink:href="#M" width="13.7" height="19.9" transform="matrix(-.9853 .2655 .2491 .9473 1.7 -18.9)"/><use xlink:href="#N" width="30.4" height="32" transform="matrix(.9739 .2131 -.4138 .9336 -9.85 -54.85)"/><use xlink:href="#O" width="13.7" height="13.6" transform="translate(-4.2 -26.1)"/><use xlink:href="#P" width="33.9" height="18.9" transform="rotate(3.527 1063.381 -309.91)scale(.7998)"/><use xlink:href="#Q" width="7.7" height="9.6" transform="matrix(-.7284 -.2073 -.0615 .5374 -8.65 -46.6)"/><use xlink:href="#Q" width="7.7" height="9.6" transform="matrix(1.025 -.2288 .1204 .7795 -15.7 -53.05)"/><use xlink:href="#Q" width="7.7" height="9.6" transform="matrix(-.525 -.596 .3046 -.7282 .9 -34.5)"/><use xlink:href="#Q" width="7.7" height="9.6" transform="matrix(.6945 -.5383 .362 .4721 -1.4 -37.65)"/><use xlink:href="#R" width="15.1" height="13.5" transform="matrix(.708 -.1576 .5744 .8428 -13.15 -53.45)"/><use xlink:href="#S" width="9.5" height="11.6" transform="matrix(.7332 .3545 -.3934 .4824 -7.45 -46.05)"/><use xlink:href="#Q" width="7.7" height="9.6" transform="matrix(-.8635 -.5164 -.4416 .6583 3.95 -49.35)"/><use xlink:href="#Q" width="7.7" height="9.6" transform="matrix(-.2301 1.0076 .5946 .3051 -.75 -51.75)"/><use xlink:href="#T" width="9.4" height="4.9" transform="rotate(35.264 57.906 -15.633)scale(.797)"/><use xlink:href="#U" width="9.5" height="56.7" transform="matrix(.7971 .0172 .0725 .7207 -.4 -69.45)"/><use xlink:href="#aj" width="36.4" height="34.2" transform="matrix(-1 0 0 1 -22.6 -69.5)"/></g></g><g clip-path="url(#ak)"><g transform="translate(739.95 70.5)"><use xlink:href="#E" width="14.7" height="4.3" transform="matrix(-.8 0 0 .801 5.35 -1.75)"/><use xlink:href="#F" width="9.1" height="6.3" transform="matrix(1.2198 0 0 1.4715 -4.7 -8.3)"/><use xlink:href="#G" width="9.3" height="7.9" transform="translate(-11.6 -7.8)"/><use xlink:href="#H" width="13.7" height="19.9" transform="matrix(-.9853 .2655 .2491 .9473 -7.05 -24.4)"/><use xlink:href="#I" width="13.8" height="13.6" transform="translate(-21.8 -33.15)"/><use xlink:href="#J" width="9.1" height="6.3" transform="matrix(1.2198 0 0 1.2908 2.8 -4.2)"/><use xlink:href="#K" width="9.3" height="7.9" transform="translate(-1.35 -3.7)"/><use xlink:href="#L" width="40.5" height="33.5" transform="matrix(-1 0 0 1 24.25 -45.4)"/><use xlink:href="#M" width="13.7" height="19.9" transform="matrix(-.9853 .2655 .2491 .9473 1.7 -18.9)"/><use xlink:href="#N" width="30.4" height="32" transform="matrix(.9739 .2131 -.4138 .9336 -9.85 -54.85)"/><use xlink:href="#O" width="13.7" height="13.6" transform="translate(-4.2 -26.1)"/><use xlink:href="#P" width="33.9" height="18.9" transform="rotate(3.527 1063.381 -309.91)scale(.7998)"/><use xlink:href="#Q" width="7.7" height="9.6" transform="matrix(-.7284 -.2073 -.0615 .5374 -8.65 -46.6)"/><use xlink:href="#Q" width="7.7" height="9.6" transform="matrix(1.025 -.2288 .1204 .7795 -15.7 -53.05)"/><use xlink:href="#Q" width="7.7" height="9.6" transform="matrix(-.525 -.596 .3046 -.7282 .9 -34.5)"/><use xlink:href="#Q" width="7.7" height="9.6" transform="matrix(.6945 -.5383 .362 .4721 -1.4 -37.65)"/><use xlink:href="#R" width="15.1" height="13.5" transform="matrix(.708 -.1576 .5744 .8428 -13.15 -53.45)"/><use xlink:href="#S" width="9.5" height="11.6" transform="matrix(.7332 .3545 -.3934 .4824 -7.45 -46.05)"/><use xlink:href="#Q" width="7.7" height="9.6" transform="matrix(-.8635 -.5164 -.4416 .6583 3.95 -49.35)"/><use xlink:href="#Q" width="7.7" height="9.6" transform="matrix(-.2301 1.0076 .5946 .3051 -.75 -51.75)"/><use xlink:href="#T" width="9.4" height="4.9" transform="rotate(35.264 57.906 -15.633)scale(.797)"/><use xlink:href="#U" width="9.5" height="56.7" transform="matrix(.7971 .0172 .0725 .7207 -.4 -69.45)"/><use xlink:href="#al" width="36.4" height="34.2" transform="matrix(-1 0 0 1 -22.6 -69.5)"/></g></g><g clip-path="url(#am)"><g transform="translate(824.95 70.5)"><use xlink:href="#E" width="14.7" height="4.3" transform="matrix(-.8 0 0 .801 5.35 -1.75)"/><use xlink:href="#F" width="9.1" height="6.3" transform="matrix(1.2198 0 0 1.4715 -4.7 -8.3)"/><use xlink:href="#G" width="9.3" height="7.9" transform="translate(-11.6 -7.8)"/><use xlink:href="#H" width="13.7" height="19.9" transform="matrix(-.9853 .2655 .2491 .9473 -7.05 -24.4)"/><use xlink:href="#I" width="13.8" height="13.6" transform="translate(-21.8 -33.15)"/><use xlink:href="#J" width="9.1" height="6.3" transform="matrix(1.2198 0 0 1.2908 2.8 -4.2)"/><use xlink:href="#K" width="9.3" height="7.9" transform="translate(-1.35 -3.7)"/><use xlink:href="#L" width="40.5" height="33.5" transform="matrix(-1 0 0 1 24.25 -45.4)"/><use xlink:href="#M" width="13.7" height="19.9" transform="matrix(-.9853 .2655 .2491 .9473 1.7 -18.9)"/><use xlink:href="#N" width="30.4" height="32" transform="matrix(.9739 .2131 -.4138 .9336 -9.85 -54.85)"/><use xlink:href="#O" width="13.7" height="13.6" transform="translate(-4.2 -26.1)"/><use xlink:href="#P" width="33.9" height="18.9" transform="rotate(3.527 1063.381 -309.91)scale(.7998)"/><use xlink:href="#Q" width="7.7" height="9.6" transform="matrix(-.7284 -.2073 -.0615 .5374 -8.65 -46.6)"/><use xlink:href="#Q" width="7.7" height="9.6" transform="matrix(1.025 -.2288 .1204 .7795 -15.7 -53.05)"/><use xlink:href="#Q" width="7.7" height="9.6" transform="matrix(-.525 -.596 .3046 -.7282 .9 -34.5)"/><use xlink:href="#Q" width="7.7" height="9.6" transform="matrix(.6945 -.5383 .362 .4721 -1.4 -37.65)"/><use xlink:href="#R" width="15.1" height="13.5" transform="matrix(.708 -.1576 .5744 .8428 -13.15 -53.45)"/><use xlink:href="#S" width="9.5" height="11.6" transform="matrix(.7332 .3545 -.3934 .4824 -7.45 -46.05)"/><use xlink:href="#Q" width="7.7" height="9.6" transform="matrix(-.8635 -.5164 -.4416 .6583 3.95 -49.35)"/><use xlink:href="#Q" width="7.7" height="9.6" transform="matrix(-.2301 1.0076 .5946 .3051 -.75 -51.75)"/><use xlink:href="#T" width="9.4" height="4.9" transform="rotate(35.264 57.906 -15.633)scale(.797)"/><use xlink:href="#U" width="9.5" height="56.7" transform="matrix(.7971 .0172 .0725 .7207 -.4 -69.45)"/></g></g><g clip-path="url(#an)"><g transform="translate(909.95 70.5)"><use xlink:href="#E" width="14.7" height="4.3" transform="matrix(-.8 0 0 .801 5.35 -1.75)"/><use xlink:href="#F" width="9.1" height="6.3" transform="matrix(1.2198 0 0 1.4715 -4.7 -8.3)"/><use xlink:href="#G" width="9.3" height="7.9" transform="translate(-11.6 -7.8)"/><use xlink:href="#H" width="13.7" height="19.9" transform="matrix(-.9853 .2655 .2491 .9473 -7.05 -24.4)"/><use xlink:href="#I" width="13.8" height="13.6" transform="translate(-21.8 -33.15)"/><use xlink:href="#J" width="9.1" height="6.3" transform="matrix(1.2198 0 0 1.2908 2.8 -4.2)"/><use xlink:href="#K" width="9.3" height="7.9" transform="translate(-1.35 -3.7)"/><use xlink:href="#L" width="40.5" height="33.5" transform="matrix(-1 0 0 1 24.25 -45.4)"/><use xlink:href="#M" width="13.7" height="19.9" transform="matrix(-.9853 .2655 .2491 .9473 1.7 -18.9)"/><use xlink:href="#N" width="30.4" height="32" transform="matrix(.9739 .2131 -.4138 .9336 -9.85 -54.85)"/><use xlink:href="#O" width="13.7" height="13.6" transform="translate(-4.2 -26.1)"/><use xlink:href="#P" width="33.9" height="18.9" transform="rotate(3.527 1063.381 -309.91)scale(.7998)"/><use xlink:href="#Q" width="7.7" height="9.6" transform="matrix(-.7284 -.2073 -.0615 .5374 -8.65 -46.6)"/><use xlink:href="#Q" width="7.7" height="9.6" transform="matrix(1.025 -.2288 .1204 .7795 -15.7 -53.05)"/><use xlink:href="#Q" width="7.7" height="9.6" transform="matrix(-.525 -.596 .3046 -.7282 .9 -34.5)"/><use xlink:href="#Q" width="7.7" height="9.6" transform="matrix(.6945 -.5383 .362 .4721 -1.4 -37.65)"/><use xlink:href="#R" width="15.1" height="13.5" transform="matrix(.708 -.1576 .5744 .8428 -13.15 -53.45)"/><use xlink:href="#S" width="9.5" height="11.6" transform="matrix(.7332 .3545 -.3934 .4824 -7.45 -46.05)"/><use xlink:href="#Q" width="7.7" height="9.6" transform="matrix(-.8635 -.5164 -.4416 .6583 3.95 -49.35)"/><use xlink:href="#Q" width="7.7" height="9.6" transform="matrix(-.2301 1.0076 .5946 .3051 -.75 -51.75)"/><use xlink:href="#T" width="9.4" height="4.9" transform="rotate(35.264 57.906 -15.633)scale(.797)"/><use xlink:href="#U" width="9.5" height="56.7" transform="matrix(.7971 .0172 .0725 .7207 -.4 -69.45)"/><use xlink:href="#ao" width="36.4" height="34.2" transform="matrix(-1 0 0 1 -22.6 -69.5)"/></g></g></svg>