<svg xmlns="http://www.w3.org/2000/svg" xmlns:xlink="http://www.w3.org/1999/xlink" width="2221" height="99" viewBox="0 0 2221 99"><defs><g id="Q"><path fill="#fff" d="m12.9 10.8 6.3-4.1 1.3 3.4.4 2 1.3 4.4 5-1 .6-2.2-.3-1.7.7-2v6.1l-5.7 1.8v.2l.3.8-6.8 4.7-1.6 2.6 5.8 8.9 3.5 1.5.4.7 2 1.4 4.5-4.4-.1-8 .6-.2.1 8.5-4 5.9 1.4 1.7-.4.3-.7.7-.4.4-1.4 1-1.2.6-1 .4-.5.2-2.2 1-1 .2-1.7.4-.4.1-.8.2-.3-.1-1-.4-.8-.8-1.5-1.3 2.1-8.7-.2-.5-5.4-10.6 7.4-7.1-2-3.3h-.4l-.5.2-3.6 1-8.1-6.5 1.3-2.9L.1 3.5l1-1.1 3.4 2.7 2.3-5 2.5.9-2.7 7z"/><path fill="none" stroke="#fff" stroke-linecap="round" stroke-linejoin="round" stroke-width="__RESOLUTION__" d="M22.2 16.5 20.8 12l-.3-2-1.3-3.4-6.3 4.1M6.6 8.1 9.3 1 6.8 0 4.5 5 1.1 2.3l-1 1L4 6.4 2.6 9.2l8.1 6.5 3.6-1m.5-.1.5-.2 1.9 3.3L9.8 25l5.4 10.6m.2.5-2.1 8.7m1.4 1.3 1 .8m.9.4h.2m.9-.1.4-.1m1.6-.4 1.1-.2m2.2-1 .5-.2m1-.4 1.1-.6m1.5-1 .4-.4m.7-.7.3-.4-1.3-1.6 4-6-.2-8.4-.5.2M26 38.2l-1.9-1.4-.5-.7-3.4-1.4-5.8-8.9 1.6-2.6 6.7-4.8-.2-.7v-.3l5.7-1.7V9.6" vector-effect="non-scaling-stroke"/></g><g id="b"><path fill="#fff" d="M.1 1.3 1.2.5q2.2-1.1 4.1.9 1.2 2 .1 4.2-1.8 2-4 3.7l-1.3.9q8.2-8 0-8.9"/><path fill="none" stroke="#fff" stroke-linecap="round" stroke-linejoin="round" stroke-width="__RESOLUTION__" d="M.1 1.3 1.2.5q2.2-1.1 4.1.9 1.2 2 .1 4.2-1.8 2-4 3.7l-1.3.9" vector-effect="non-scaling-stroke"/></g><g id="g"><path fill="#fff" d="M11.7 2.3 14.8.6V.4l1-.4.3.9zm5.3 6-1.2.1v1.3l.2.4-1.8-1.2L16 3.4l4.8 1.2-.7 3.3h-.9L19 8zm-7.3 2.5-.8-.3-1.2.1-1 .1h-.5l-1.2.1 5.9-1.1 5.5 3.2-1 .6-1 .7-.7.3-.8.5 1.2-2.4-1.7-.7z"/><path fill="none" stroke="#fff" stroke-linecap="round" stroke-linejoin="round" stroke-width="__RESOLUTION__" d="M14.8.4v.2l-3.1 1.6h0L8.6 7.6l.1.2-3.6 1.7-4.6.6-.4 1.2h.6M16 10l-.3-.4V8.4l1.2-.1m2-.3h.2m-3 2 1.2 2.4-.4.2m-7.2-1.9-.7-.3-1.2.1m-1.1.1h-.4m9.1 2.8-1 .7m-.6.3-.9.5 1.3-2.4-1.8-.7" vector-effect="non-scaling-stroke"/></g><g id="k"><path fill="#fff" d="m2.7 7.2-1.2-1-1.5-2 .5-2L3 1.6 3.9 0l2.7 3.4-2.1-.5-1.8 2 3.1 1.6 1-.5L6 7v-.3h-.6L4.3 7H4l-1 .2z"/><path fill="#fff" d="m6.6 3.4.2.2-.3.2.3 1.6L8.2 5 9 7l3 1.4-.4.5-.6-.1-3-.2h-.7l-.3.3-1.2 1-.9.7L6 8V7l.9-1-1 .5-3.2-1.6 1.7-2z"/><path fill="none" stroke="#fff" stroke-linecap="round" stroke-linejoin="round" stroke-width="__RESOLUTION__" d="m6.8 3.6-.3.1.3 1.7m5.3 3-.4.5-.6-.1M8 8.6h-.7l-.3.3m-1.2 1-.9.7L6 8V6.7h-.6M4.3 7H4m-1 .2h-.3" vector-effect="non-scaling-stroke"/></g><g id="m"><path fill="#fff" d="m22.5 17.7.3.8-6.8 4.7-1.6 2.6 5.8 8.9 3.5 1.5.2.3-.2-.3.2.3-4.1-.1-6.5-6.8 4.1 8.6-1.7 5.2 7-1.5 1.4-5 2 1.4 4.5-4.4-.1-8 .6-.2.1 8.5-4 5.9 1.4 1.7-.4.3-.7.7-.4.4-1.4 1-1.2.5-1 .5-.5.2-2.2 1-1 .2-1.7.4-.4.1-.8.2-.3-.1-1-.4-.4-.4-.4-.4-1.5-1.3 2.1-8.7-.2-.5-.7-1.3-4.7-9.3 7.4-7.1-2-3.3h-.4l3.5-2.1.6 4.8z"/><path fill="none" stroke="#fff" stroke-linecap="round" stroke-linejoin="round" stroke-width="__RESOLUTION__" d="M22.2 16.5 20.8 12l-.3-2-1.3-3.4-6.3 4.1m9.6 6.9v-.3l5.7-1.7v-6m-5.7 8.1.2.8-6.7 4.7-1.6 2.6 5.8 8.9 3.5 1.5.2.3.2.4 2 1.4M30.4 26l.5-.3.2 8.5-4 5.9 1.3 1.7-.3.3m-.7.7-.4.4m-1.5 1-1.2.5m-1 .5-.4.2m-2.2 1-1 .2M18 47l-.3.1m-.8.2-.3-.1m-1-.4-.4-.4-.4-.4m-1.5-1.3 2.1-8.7m-.2-.5-.7-1.3-4.7-9.3 7.4-7.1-2-3.3h-.4M6.6 8.2 9.3 1 6.8 0 4.5 5 1.1 2.3l-1 1L4 6.4 2.6 9.2l8.1 6.5 3.6-1" vector-effect="non-scaling-stroke"/></g><g id="s"><path fill="#fff" fill-opacity=".5" d="M.1 1.3 1.2.5q2.2-1.1 4.1.9 1.2 2 .1 4.2-1.8 2-4 3.7l-1.3.9q8.2-8 0-8.9"/><path fill="none" stroke="#fff" stroke-linecap="round" stroke-linejoin="round" stroke-opacity=".5" stroke-width="__RESOLUTION__" d="M.1 1.3 1.2.5q2.2-1.1 4.1.9 1.2 2 .1 4.2-1.8 2-4 3.7l-1.3.9" vector-effect="non-scaling-stroke"/></g><g id="t"><path fill="#fff" fill-opacity=".5" d="M11.7 2.3 14.8.6V.4l1-.4.3.9zm5.3 6-1.2.1v1.3l.2.4-1.8-1.2L16 3.4l4.8 1.2-.7 3.3h-.9L19 8zm-7.3 2.5-.8-.3-1.2.1-1 .1h-.5l-1.2.1 5.9-1.1 5.5 3.2-1 .6-1 .7-.7.3-.8.5 1.2-2.4-1.7-.7z"/><path fill="none" stroke="#fff" stroke-linecap="round" stroke-linejoin="round" stroke-opacity=".7" stroke-width="__RESOLUTION__" d="M14.8.4v.2l-3.1 1.6h0L8.6 7.6l.1.2-3.6 1.7-4.6.6-.4 1.2h.6M16 10l-.3-.4V8.4l1.2-.1m2-.3h.2m-3 2 1.2 2.4-.4.2m-7.2-1.9-.7-.3-1.2.1m-1.1.1h-.4m9.1 2.8-1 .7m-.6.3-.9.5 1.3-2.4-1.8-.7" vector-effect="non-scaling-stroke"/></g><g id="u"><path fill="#fff" fill-opacity=".5" d="m2.7 7.2-1.2-1-1.5-2 .5-2L3 1.6 3.9 0l2.7 3.4-2.1-.5-1.8 2 3.1 1.6 1-.5L6 7v-.3h-.6L4.3 7H4l-1 .2z"/><path fill="#fff" fill-opacity=".3" d="m6.6 3.4.2.2-.3.2.3 1.6L8.2 5 9 7l3 1.4-.4.5-.6-.1-3-.2h-.7l-.3.3-1.2 1-.9.7L6 8V7l.9-1-1 .5-3.2-1.6 1.7-2z"/><path fill="none" stroke="#fff" stroke-linecap="round" stroke-linejoin="round" stroke-opacity=".7" stroke-width="__RESOLUTION__" d="m6.8 3.6-.3.1.3 1.7m5.3 3-.4.5-.6-.1M8 8.6h-.7l-.3.3m-1.2 1-.9.7L6 8V6.7h-.6M4.3 7H4m-1 .2h-.3" vector-effect="non-scaling-stroke"/></g><g id="v"><path fill="#fff" fill-opacity=".5" d="m22.5 17.7.3.8-6.8 4.7-1.6 2.6 5.8 8.9 3.5 1.5.2.3-.2-.3.2.3-4.1-.1-6.5-6.8 4.1 8.6-1.7 5.2 7-1.5 1.4-5 2 1.4 4.5-4.4-.1-8 .6-.2.1 8.5-4 5.9 1.4 1.7-.4.3-.7.7-.4.4-1.4 1-1.2.5-1 .5-.5.2-2.2 1-1 .2-1.7.4-.4.1-.8.2-.3-.1-1-.4-.4-.4-.4-.4-1.5-1.3 2.1-8.7-.2-.5-.7-1.3-4.7-9.3 7.4-7.1-2-3.3h-.4l3.5-2.1.6 4.8z"/><path fill="none" stroke="#fff" stroke-linecap="round" stroke-linejoin="round" stroke-opacity=".7" stroke-width="__RESOLUTION__" d="M22.2 16.5 20.8 12l-.3-2-1.3-3.4-6.3 4.1m9.6 6.9v-.3l5.7-1.7v-6m-5.7 8.1.2.8-6.7 4.7-1.6 2.6 5.8 8.9 3.5 1.5.2.3.2.4 2 1.4M30.4 26l.5-.3.2 8.5-4 5.9 1.3 1.7-.3.3m-.7.7-.4.4m-1.5 1-1.2.5m-1 .5-.4.2m-2.2 1-1 .2M18 47l-.3.1m-.8.2-.3-.1m-1-.4-.4-.4-.4-.4m-1.5-1.3 2.1-8.7m-.2-.5-.7-1.3-4.7-9.3 7.4-7.1-2-3.3h-.4M6.6 8.2 9.3 1 6.8 0 4.5 5 1.1 2.3l-1 1L4 6.4 2.6 9.2l8.1 6.5 3.6-1" vector-effect="non-scaling-stroke"/></g><g id="F" transform="translate(2.55 5.15)"><use xlink:href="#a" width="11.7" height="10.2" transform="translate(-2.55 -5.05)"/><use xlink:href="#b" width="6" height="10.3" transform="translate(3.25 -5.15)"/></g><g id="E"><use xlink:href="#c" width="1.8" height="9.4"/><use xlink:href="#d" width="1.8" height="9.4"/></g><g id="D"><path fill="#fff" d="m23.7 10-3.3 4.9-1.6-2h.2l-.1-.1.4-.7zm-4.2 7.9-8 4.8-2.3 3-2.2-.9.3-1.4 9.9-5.2-1.9-1.2h.4l-1.9-1.7h3.8l1.4 1.8-.2.1zm.2 26 2.3 3.5-1 3.6-5.2-1.4-3.2-4.4.9.3-8.5-8-.1-1.9-4.7-2.3v-1L4.8 34l-.3-5.5 3.2 1.3 2.1-.7v4.6l-1.2-.6-2-.1-1.1 2 4.9 5 .4 1.2 6.4 4.7zM5.1 34.1l-.4-.1z"/><path fill="none" stroke="#fff" stroke-linecap="round" stroke-linejoin="round" stroke-width="__RESOLUTION__" d="m19.3 12.2 1.8-3-2.5-1.9-4.8-.6.4-1.8 4.1.2 1.3-5 1.2.2-1.5 4.8 2 .1 2.6 4.3-.2.4-3.3 5-.2.2v.1l.6 1.9-1.3.8-8 4.8-2.3 3-2.3-.9-2.2-.7 9.2-6.8 1.4-.3h.4l-1.9-1.7m5-2.4h.2l-.1-.1.4-.7M.1 32.1v1.1l4.7 2.3.1 1.9 8.5 8-1-.3 3.3 4.3 5.2 1.5 1.1-3.4-2.4-3.7L17 40v-.1l.9-1.2-.6-1-1.5 1.3-6-4.7v-5.1l-2.1.7-3.2-1.4.3 5.5.4.2m9 7.6 1 .4 1.8-2.3m-2.8.4 1.7-1.3M17 12.5l1.8.4" vector-effect="non-scaling-stroke"/></g><g id="A" transform="translate(17.05 4.5)"><use xlink:href="#e" width="19.3" height="14.7" transform="translate(-17.05 -2.8)"/><use xlink:href="#f" width="20.8" height="16.3" transform="translate(-16.95 -4.5)"/><use xlink:href="#g" width="20.8" height="15.1" transform="translate(-17.05 -3.25)"/></g><g id="z" transform="translate(2.4 2.15)"><use xlink:href="#h" width="9.6" height="7.3" transform="translate(.2 1.5)"/><use xlink:href="#i" width="12.1" height="10.8" transform="translate(-2.4 -2.15)"/><use xlink:href="#k" width="12.2" height="10.8" transform="translate(-2.4 -1.95)"/></g><g id="x"><use xlink:href="#l" width="31.3" height="47.4"/><use xlink:href="#m" width="31.3" height="47.4"/></g><g id="w" fill="#fff"><path d="m41.5 4.1 3 2.7h-6.7v3l4.4 3.2-15.6 2.6 2.9-4.2h-7.7l-5.2 2.3L0 12l3.7-3.3 4.9-1.5-.8 2.9 7.6 2.3 2.4-2 10.9-.4 6.2.6.8-3.8z"/><path d="m41.5 4.1-5.8 2.8-.8 3.7-6.2-.6-10.9.3-2.4 2-7.6-2.2.8-2.9L30.9 0l2.1.8-1.3.6.2 2 7.2.4z"/></g><g id="L" transform="translate(2.55 5.15)"><use xlink:href="#a" width="11.7" height="10.2" transform="translate(-2.55 -5.05)"/><use xlink:href="#s" width="6" height="10.3" transform="translate(3.25 -5.15)"/></g><g id="K"><path fill="#fff" fill-opacity=".5" d="m23.7 10-3.3 4.9-1.6-2h.2l-.1-.1.4-.7zm-4.2 7.9-8 4.8-2.3 3-2.2-.9.3-1.4 9.9-5.2-1.9-1.2h.4l-1.9-1.7h3.8l1.4 1.8-.2.1zm.2 26 2.3 3.5-1 3.6-5.2-1.4-3.2-4.4.9.3-8.5-8-.1-1.9-4.7-2.3v-1L4.8 34l-.3-5.5 3.2 1.3 2.1-.7v4.6l-1.2-.6-2-.1-1.1 2 4.9 5 .4 1.2 6.4 4.7zM5.1 34.1l-.4-.1z"/><path fill="none" stroke="#fff" stroke-linecap="round" stroke-linejoin="round" stroke-opacity=".7" stroke-width="__RESOLUTION__" d="m19.3 12.2 1.8-3-2.5-1.9-4.8-.6.4-1.8 4.1.2 1.3-5 1.2.2-1.5 4.8 2 .1 2.6 4.3-.2.4-3.3 5-.2.2v.1l.6 1.9-1.3.8-8 4.8-2.3 3-2.3-.9-2.2-.7 9.2-6.8 1.4-.3h.4l-1.9-1.7m5-2.4h.2l-.1-.1.4-.7M.1 32.1v1.1l4.7 2.3.1 1.9 8.5 8-1-.3 3.3 4.3 5.2 1.5 1.1-3.4-2.4-3.7L17 40v-.1l.9-1.2-.6-1-1.5 1.3-6-4.7v-5.1l-2.1.7-3.2-1.4.3 5.5.4.2m9 7.6 1 .4 1.8-2.3m-2.8.4 1.7-1.3M17 12.5l1.8.4" vector-effect="non-scaling-stroke"/></g><g id="J" transform="translate(17.05 4.5)"><use xlink:href="#e" width="19.3" height="14.7" transform="translate(-17.05 -2.8)"/><use xlink:href="#f" width="20.8" height="16.3" transform="translate(-16.95 -4.5)"/><use xlink:href="#t" width="20.8" height="15.1" transform="translate(-17.05 -3.25)"/></g><g id="I" transform="translate(2.4 2.15)"><use xlink:href="#h" width="9.6" height="7.3" transform="translate(.2 1.5)"/><use xlink:href="#i" width="12.1" height="10.8" transform="translate(-2.4 -2.15)"/><use xlink:href="#u" width="12.2" height="10.8" transform="translate(-2.4 -1.95)"/></g><g id="H"><use xlink:href="#l" width="31.3" height="47.4"/><use xlink:href="#v" width="31.3" height="47.4"/></g><g id="aa" transform="translate(26.6 64.1)"><use xlink:href="#w" width="44.5" height="15.6" transform="translate(-20.85 -5.75)scale(.9683)"/><g clip-path="none"><use xlink:href="#x" width="31.3" height="47.4" transform="translate(-15.5 -46.15)scale(1.06)"/></g><use xlink:href="#z" width="12.2" height="10.9" transform="matrix(1.03 0 0 1.02 5.05 -3.4)"/><use xlink:href="#A" width="20.9" height="16.4" transform="matrix(.7328 0 0 .7386 -12.3 -2.95)"/><g clip-path="none"><use xlink:href="#B" width="24.1" height="51" transform="translate(-10.85 -61.75)scale(1.06)"/><use xlink:href="#C" width="23.9" height="50.8" transform="translate(-10.7 -61.65)scale(1.06)"/><use xlink:href="#D" width="24.1" height="51" transform="translate(-10.85 -61.75)scale(1.06)"/></g><use xlink:href="#E" width="1.8" height="9.4" transform="translate(-19.5 -8.75)scale(1.06)"/><use xlink:href="#F" width="11.8" height="10.3" transform="matrix(.3876 -.3772 .48 .4615 -26.6 -5.9)"/><use xlink:href="#F" width="11.8" height="10.3" transform="matrix(.2458 .4539 -.5775 .2926 -11.5 -8.55)"/><use xlink:href="#F" width="11.8" height="10.3" transform="matrix(-.1755 .3241 .6349 .3217 8.8 -16.3)"/><use xlink:href="#G" width=".8" height=".9" transform="matrix(-.2207 .4075 .5185 .2627 5.25 -9.3)"/><use xlink:href="#F" width="11.8" height="10.3" transform="matrix(.5928 -.1551 .1973 .7057 -19.75 -51.55)"/><use xlink:href="#F" width="11.8" height="10.3" transform="matrix(-.422 .2817 .1067 .1495 14.15 -36.4)"/><use xlink:href="#F" width="11.8" height="10.3" transform="matrix(-.2115 -.1706 -.3343 .3878 20.55 -40.2)"/><use xlink:href="#G" width=".8" height=".9" transform="matrix(-.266 -.2146 -.273 .3167 15.95 -43.65)"/></g><g id="V" transform="translate(26.6 64.1)"><use xlink:href="#w" width="44.5" height="15.6" transform="translate(-20.85 -5.75)scale(.9683)"/><g clip-path="none"><use xlink:href="#H" width="31.3" height="47.4" transform="translate(-15.5 -46.15)scale(1.06)"/></g><use xlink:href="#I" width="12.2" height="10.9" transform="matrix(1.03 0 0 1.02 5.05 -3.4)"/><use xlink:href="#J" width="20.9" height="16.4" transform="matrix(.7328 0 0 .7386 -12.3 -2.95)"/><g clip-path="none"><use xlink:href="#B" width="24.1" height="51" transform="translate(-10.85 -61.75)scale(1.06)"/><use xlink:href="#C" width="23.9" height="50.8" transform="translate(-10.7 -61.65)scale(1.06)"/><use xlink:href="#K" width="24.1" height="51" transform="translate(-10.85 -61.75)scale(1.06)"/></g><use xlink:href="#E" width="1.8" height="9.4" transform="translate(-19.5 -8.75)scale(1.06)"/><use xlink:href="#L" width="11.8" height="10.3" transform="matrix(.3876 -.3772 .48 .4615 -26.6 -5.9)"/><use xlink:href="#L" width="11.8" height="10.3" transform="matrix(.2458 .4539 -.5775 .2926 -11.5 -8.55)"/><use xlink:href="#L" width="11.8" height="10.3" transform="matrix(-.1755 .3241 .6349 .3217 8.8 -16.3)"/><use xlink:href="#G" width=".8" height=".9" transform="matrix(-.2207 .4075 .5185 .2627 5.25 -9.3)"/><use xlink:href="#L" width="11.8" height="10.3" transform="matrix(.5928 -.1551 .1973 .7057 -19.75 -51.55)"/><use xlink:href="#L" width="11.8" height="10.3" transform="matrix(-.422 .2817 .1067 .1495 14.15 -36.4)"/><use xlink:href="#L" width="11.8" height="10.3" transform="matrix(-.2115 -.1706 -.3343 .3878 20.55 -40.2)"/><use xlink:href="#G" width=".8" height=".9" transform="matrix(-.266 -.2146 -.273 .3167 15.95 -43.65)"/></g><clipPath id="U"><path d="M1 1h110v97H1z"/></clipPath><clipPath id="X"><path d="M112 1h110v97H112z"/></clipPath><clipPath id="Y"><path d="M223 1h110v97H223z"/></clipPath><clipPath id="Z"><path d="M334 1h110v97H334z"/></clipPath><clipPath id="ab"><path d="M445 1h110v97H445z"/></clipPath><clipPath id="ac"><path d="M556 1h110v97H556z"/></clipPath><clipPath id="ad"><path d="M667 1h110v97H667z"/></clipPath><clipPath id="af"><path d="M778 1h110v97H778z"/></clipPath><clipPath id="ag"><path d="M889 1h110v97H889z"/></clipPath><clipPath id="ah"><path d="M1000 1h110v97h-110z"/></clipPath><clipPath id="ai"><path d="M1111 1h110v97h-110z"/></clipPath><clipPath id="aj"><path d="M1222 1h110v97h-110z"/></clipPath><clipPath id="ak"><path d="M1333 1h110v97h-110z"/></clipPath><clipPath id="al"><path d="M1444 1h110v97h-110z"/></clipPath><clipPath id="am"><path d="M1555 1h110v97h-110z"/></clipPath><clipPath id="an"><path d="M1666 1h110v97h-110z"/></clipPath><clipPath id="ao"><path d="M1777 1h110v97h-110z"/></clipPath><clipPath id="ap"><path d="M1888 1h110v97h-110z"/></clipPath><clipPath id="aq"><path d="M1999 1h110v97h-110z"/></clipPath><path id="M" fill="#fff" d="M5.2-3.7q1.2 2 .1 4.2Q3.1 3 0 5.1-3 3-5.3.6q-1.1-2.3.1-4.2 2.5-2.7 5.2-.2 2.8-2.5 5.2.1" transform="translate(5.85 5.05)"/><path id="d" fill="#fff" d="M-.1-9.2.9 0H-.6L-1-9.4z" transform="translate(.9 9.4)"/><path id="N" fill="#fff" d="m8.8-25.2-1.5 4.8 1.9.1 2.7 4.4-3.7 5.5v.2l.6 1.8-9.4 5.6-2.3 3-4.4-1.6 9.2-6.8 1.7-.3-1.8-1.6L5-13l2 .5-.1-.2L9-16.4l-2.4-1.8-4.9-.6.4-1.8 4.1.1 1.4-4.9zM4.9 14.4l.1.1 5 7.5-1.1 3.4L3.6 24 .4 19.6l1 .3-8.5-8-.2-1.8-4.6-2.4v-1l4.6 1.9-.3-5.5 3.3 1.3 2-.7.1 5.1 6 4.7 1.5-1.3.6 1z" transform="translate(11.95 25.4)"/><path id="O" fill="#fff" d="m1.2-4.6 3.1-1.7v-.1l4.1-1.7 2 5.5L9.5 1l-4.2.6v1.2l1.4 2.9-.9.4-3.5 2 1.2-2.3-5.1-2.1-8.9.6.4-1.2 4.6-.6L-1.8 1l-.1-.2z" transform="translate(10.4 8.1)"/><path id="P" fill="#fff" d="M.5-1.4.7 0l1.4-.3.8 2 3.2 1.4-.5.5-4.3-.3-2.4 2 1-2.7v-1l-3.3.5-1.2-1L-6-1l.9-3.8 2.9-.6 3 3.8z" transform="translate(6.05 5.4)"/><path id="e" fill="none" stroke="#fff" stroke-linecap="round" stroke-linejoin="round" stroke-width="__RESOLUTION__" d="M-2.2-2.7-5.3-1h-.1l-3.1 5.3.2.2-3.7 1.7-4.5.5L-17 8l.6-.1M-.1 9.4l.4-.1-1.5-2.9V5.2L-.1 5m-7.3 2.6-.7-.3h-1.2m6 4-.8.4L-3 9.5l-1.7-.8m3 1.7-1.1.6m-7.6-3.4h-.5M1.9 4.8l.3-.1" transform="translate(17.05 2.8)" vector-effect="non-scaling-stroke"/><path id="h" fill="none" stroke="#fff" stroke-linecap="round" stroke-linejoin="round" stroke-width="__RESOLUTION__" d="m4.4 1.6-.3.2.3 1.6M1.7 5h-.3m-.9.2H.3M3.4 8l-.9.7L3.6 6V4.7l-.6.1m2.6 1.9H5l-.3.2m5-.5-.4.5h-.6" transform="translate(-.2 -1.5)" vector-effect="non-scaling-stroke"/><path id="S" fill="#fdffec" d="M2.7 3.7q-1.1.8-2.4.4l-.6-.3-1.3-1.3-1-1.2-.5-.7-.5-.6Q-2-2.2-.3-3.8l3 .1q1.8 1.8 0 3.7 1.9 2 0 3.7" transform="translate(3.6 4.2)"/><path id="G" fill="none" stroke="#fff" stroke-linecap="round" stroke-linejoin="round" stroke-width="__RESOLUTION__" d="m13.8-13.7.5-.8" transform="translate(-13.65 14.6)" vector-effect="non-scaling-stroke"/><path id="B" fill="none" stroke="#fff" stroke-linecap="round" stroke-linejoin="round" stroke-width="__RESOLUTION__" d="m-.4-34.9 1.9.5-.1-.2 2.2-3.6-2.4-1.9-5-.6.4-1.8 4.2.2 1.3-5 1.2.2-1.4 4.8 1.9.1 2.7 4.4-3.7 5.5v.2l.6 1.8-9.4 5.6-2.3 3-4.4-1.6 9.1-6.8 1.8-.3-1.9-1.7m.4 25 1.7-1.3-6-4.7-.1-5.1-2.1.6-3.2-1.3.2 5.5.5.2m-5.1-2v1l4.7 2.3.1 1.9 8.5 8-1-.3L-1.7 2l5.2 1.5L4.6.1l-5-7.5-.1-.1-1.9 2.3-1-.3m1.7-2.9 1.5-1.3.6 1-.9 1.2" transform="translate(17.5 47.4)" vector-effect="non-scaling-stroke"/><path id="ae" fill="none" stroke="#f9f9f9" stroke-linecap="round" stroke-linejoin="round" stroke-width="__RESOLUTION__" d="m25.3-26.6 13.7.3M17.9-50.7 40.5-87m-52.8 49.5-14.2-9.2m20.7 27.3-23 27.6m29-49.7-.3-8.7" transform="translate(28.75 87.05)" vector-effect="non-scaling-stroke"/><use xlink:href="#M" id="a" width="11.7" height="10.2"/><use xlink:href="#d" id="c" width="1.8" height="9.4"/><use xlink:href="#N" id="R" width="23.9" height="50.8"/><use xlink:href="#O" id="f" width="20.8" height="16.3"/><use xlink:href="#P" id="i" width="12.1" height="10.8"/><use xlink:href="#Q" id="l" width="31.3" height="47.4"/><use xlink:href="#R" id="C" width="23.9" height="50.8"/><use xlink:href="#S" id="T" width="7.3" height="8.4"/><use xlink:href="#T" id="W" width="7.3" height="8.4" transform="scale(1.96)"/></defs><g clip-path="url(#U)"><g transform="translate(50.55 88.05)"><use xlink:href="#V" width="48.9" height="73.4" transform="matrix(1.0036 0 0 1.0052 -26.6 -64.45)"/><use xlink:href="#W" width="14.2" height="16.5" transform="matrix(.6284 .1927 -.1929 .6292 12.95 -74.5)"/><use xlink:href="#W" width="14.2" height="16.5" transform="matrix(-.4889 -.4379 -.4384 .4895 29.25 -56.45)"/><use xlink:href="#W" width="14.2" height="16.5" transform="matrix(-.638 .1535 -.1537 -.6388 16.55 -49)"/><use xlink:href="#W" width="14.2" height="16.5" transform="matrix(-.6284 .1927 .1929 .6292 1 -40.35)"/><use xlink:href="#W" width="14.2" height="16.5" transform="matrix(.4629 -.4653 .466 .4635 8.3 -22)"/><use xlink:href="#W" width="14.2" height="16.5" transform="matrix(-.6284 -.1927 .1929 -.6292 -2.8 -13.4)"/><use xlink:href="#W" width="14.2" height="16.5" transform="matrix(.4889 .4379 .4384 -.4895 -19.1 -31.45)"/><use xlink:href="#W" width="14.2" height="16.5" transform="matrix(.638 -.1535 .1537 .6388 -6.4 -38.9)"/><use xlink:href="#W" width="14.2" height="16.5" transform="matrix(.6284 -.1927 -.1929 -.6292 9.15 -47.55)"/><use xlink:href="#W" width="14.2" height="16.5" transform="matrix(-.4629 .4653 -.466 -.4635 1.85 -65.9)"/><use xlink:href="#W" width="14.2" height="16.5" transform="matrix(-.4203 .1288 .129 .4208 -3 -36.45)"/><use xlink:href="#W" width="14.2" height="16.5" transform="matrix(.327 -.2928 .2932 .3274 -13.85 -24.35)"/><use xlink:href="#W" width="14.2" height="16.5" transform="matrix(.4267 .1027 .1028 -.4272 -5.4 -19.4)"/><use xlink:href="#W" width="14.2" height="16.5" transform="matrix(-.4203 -.1288 .129 -.4208 -.45 -18.4)"/><use xlink:href="#W" width="14.2" height="16.5" transform="matrix(.3096 .3112 .3116 -.31 4.45 -30.7)"/></g></g><g clip-path="url(#X)"><g transform="translate(161.55 88.05)"><use xlink:href="#V" width="48.9" height="73.4" transform="matrix(1.0036 0 0 1.0052 -26.6 -64.45)"/><use xlink:href="#W" width="14.2" height="16.5" transform="matrix(.5989 .0155 -.0159 .5996 9.55 -69.75)"/><use xlink:href="#W" width="14.2" height="16.5" transform="matrix(-.3222 -.5041 -.5044 .3229 26.95 -51.1)"/><use xlink:href="#W" width="14.2" height="16.5" transform="matrix(-.5227 .2908 -.2908 -.5234 17.1 -54.75)"/><use xlink:href="#W" width="14.2" height="16.5" transform="matrix(-.5989 .0155 .0159 .5996 4.4 -35.6)"/><use xlink:href="#W" width="14.2" height="16.5" transform="matrix(.2927 -.5218 .5222 .2934 10.9 -16.8)"/><use xlink:href="#W" width="14.2" height="16.5" transform="matrix(-.5989 -.0155 .0159 -.5996 .6 -18.15)"/><use xlink:href="#W" width="14.2" height="16.5" transform="matrix(.3222 .5041 .5044 -.3229 -16.8 -36.8)"/><use xlink:href="#W" width="14.2" height="16.5" transform="matrix(.5227 -.2908 .2908 .5234 -6.95 -33.15)"/><use xlink:href="#W" width="14.2" height="16.5" transform="matrix(.5989 -.0155 -.0159 -.5996 5.75 -52.3)"/><use xlink:href="#W" width="14.2" height="16.5" transform="matrix(-.2927 .5218 -.5222 -.2934 -.75 -71.1)"/><use xlink:href="#W" width="14.2" height="16.5" transform="matrix(-.4005 .0103 .0106 .401 -.75 -33.25)"/><use xlink:href="#W" width="14.2" height="16.5" transform="matrix(.2155 -.3371 .3373 .216 -12.3 -20.75)"/><use xlink:href="#W" width="14.2" height="16.5" transform="matrix(.3496 .1945 .1945 -.3501 -5.7 -23.25)"/><use xlink:href="#W" width="14.2" height="16.5" transform="matrix(-.4005 -.0103 .0106 -.401 1.8 -21.6)"/><use xlink:href="#W" width="14.2" height="16.5" transform="matrix(.1957 .349 .3493 -.1962 6.1 -34.15)"/></g></g><g clip-path="url(#Y)"><g transform="translate(272.55 88.05)"><use xlink:href="#V" width="48.9" height="73.4" transform="matrix(1.0036 0 0 1.0052 -26.6 -64.45)"/><use xlink:href="#W" width="14.2" height="16.5" transform="matrix(.5299 -.1254 .1249 .5304 8.4 -63.9)"/><use xlink:href="#W" width="14.2" height="16.5" transform="matrix(-.1662 -.5178 -.5179 .1669 22.6 -47.05)"/><use xlink:href="#W" width="14.2" height="16.5" transform="matrix(-.3918 .3769 -.3767 -.3925 15.05 -60.45)"/><use xlink:href="#W" width="14.2" height="16.5" transform="matrix(-.5299 -.1254 -.1249 .5304 5.55 -29.75)"/><use xlink:href="#W" width="14.2" height="16.5" transform="matrix(.1361 -.5265 .5267 .1368 15.5 -13.05)"/><use xlink:href="#W" width="14.2" height="16.5" transform="matrix(-.5299 .1254 -.1249 -.5304 1.75 -24)"/><use xlink:href="#W" width="14.2" height="16.5" transform="matrix(.1662 .5178 .5179 -.1669 -12.45 -40.85)"/><use xlink:href="#W" width="14.2" height="16.5" transform="matrix(.3918 -.3769 .3767 .3925 -4.9 -27.45)"/><use xlink:href="#W" width="14.2" height="16.5" transform="matrix(.5299 .1254 .1249 -.5304 4.6 -58.15)"/><use xlink:href="#W" width="14.2" height="16.5" transform="matrix(-.1361 .5265 -.5267 -.1368 -5.35 -74.85)"/><use xlink:href="#W" width="14.2" height="16.5" transform="matrix(-.3544 -.0839 -.0835 .3547 .1 -29.35)"/><use xlink:href="#W" width="14.2" height="16.5" transform="matrix(.1111 -.3463 .3464 .1116 -9.4 -18.1)"/><use xlink:href="#W" width="14.2" height="16.5" transform="matrix(.2621 .2521 .2519 -.2625 -4.4 -27.05)"/><use xlink:href="#W" width="14.2" height="16.5" transform="matrix(-.3544 .0839 -.0835 -.3547 2.65 -25.5)"/><use xlink:href="#W" width="14.2" height="16.5" transform="matrix(.091 .3522 .3523 -.0915 9.3 -36.7)"/></g></g><g clip-path="url(#Z)"><g transform="translate(383.55 88.05)"><use xlink:href="#aa" width="48.9" height="73.4" transform="matrix(1.2527 0 0 1.0052 -33.2 -64.45)"/><use xlink:href="#W" width="14.2" height="16.5" transform="matrix(.4392 -.2251 .2245 .4396 9.25 -57.8)"/><use xlink:href="#W" width="14.2" height="16.5" transform="matrix(-.0341 -.4917 -.4917 .0348 16.9 -44.7)"/><use xlink:href="#W" width="14.2" height="16.5" transform="matrix(-.2632 .4165 -.4162 -.2638 11.3 -65.25)"/><use xlink:href="#W" width="14.2" height="16.5" transform="matrix(-.4392 -.2251 -.2245 .4396 4.7 -23.65)"/><use xlink:href="#W" width="14.2" height="16.5" transform="matrix(.0058 -.4929 .4929 .0064 21.3 -10.95)"/><use xlink:href="#W" width="14.2" height="16.5" transform="matrix(-.4392 .2251 -.2245 -.4396 .9 -30.1)"/><use xlink:href="#W" width="14.2" height="16.5" transform="matrix(.0341 .4917 .4917 -.0348 -6.75 -43.2)"/><use xlink:href="#W" width="14.2" height="16.5" transform="matrix(.2632 -.4165 .4162 .2638 -1.15 -22.65)"/><use xlink:href="#W" width="14.2" height="16.5" transform="matrix(.4392 .2251 .2245 -.4396 5.45 -64.25)"/><use xlink:href="#W" width="14.2" height="16.5" transform="matrix(-.0058 .4929 -.4929 -.0064 -11.15 -76.95)"/><use xlink:href="#W" width="14.2" height="16.5" transform="matrix(-.2938 -.1506 -.1502 .294 -.55 -25.3)"/><use xlink:href="#W" width="14.2" height="16.5" transform="matrix(.0228 -.3288 .3288 .0233 -5.6 -16.5)"/><use xlink:href="#W" width="14.2" height="16.5" transform="matrix(.1761 .2786 .2784 -.1764 -1.85 -30.3)"/><use xlink:href="#W" width="14.2" height="16.5" transform="matrix(-.2938 .1506 -.1502 -.294 2 -29.55)"/><use xlink:href="#W" width="14.2" height="16.5" transform="matrix(.0039 .3296 .3297 -.0043 13.2 -38.1)"/></g></g><g clip-path="url(#ab)"><g transform="translate(494.55 88.05)"><use xlink:href="#aa" width="48.9" height="73.4" transform="matrix(1.2527 0 0 1.0052 -33.2 -64.45)"/><use xlink:href="#W" width="14.2" height="16.5" transform="matrix(.3409 -.2876 .2871 .341 11.7 -52.1)"/><use xlink:href="#W" width="14.2" height="16.5" transform="matrix(.0701 -.4398 -.4397 -.0695 10.75 -43.8)"/><use xlink:href="#W" width="14.2" height="16.5" transform="matrix(-.1469 .4203 -.4199 -.1473 6.3 -68.9)"/><use xlink:href="#W" width="14.2" height="16.5" transform="matrix(-.3409 -.2876 -.2871 .341 2.25 -17.95)"/><use xlink:href="#W" width="14.2" height="16.5" transform="matrix(-.0953 -.4351 .435 -.0947 27.5 -10.5)"/><use xlink:href="#W" width="14.2" height="16.5" transform="matrix(-.3409 .2876 -.2871 -.341 -1.55 -35.8)"/><use xlink:href="#W" width="14.2" height="16.5" transform="matrix(-.0701 .4398 .4397 .0695 -.6 -44.1)"/><use xlink:href="#W" width="14.2" height="16.5" transform="matrix(.1469 -.4203 .4199 .1473 3.85 -19)"/><use xlink:href="#W" width="14.2" height="16.5" transform="matrix(.3409 .2876 .2871 -.341 7.9 -69.95)"/><use xlink:href="#W" width="14.2" height="16.5" transform="matrix(.0953 .4351 -.435 .0947 -17.35 -77.4)"/><use xlink:href="#W" width="14.2" height="16.5" transform="matrix(-.228 -.1924 -.192 .2281 -2.15 -21.5)"/><use xlink:href="#W" width="14.2" height="16.5" transform="matrix(-.0469 -.2941 .294 -.0465 -1.5 -15.9)"/><use xlink:href="#W" width="14.2" height="16.5" transform="matrix(.0983 .2811 .2809 -.0985 1.45 -32.65)"/><use xlink:href="#W" width="14.2" height="16.5" transform="matrix(-.228 .1924 -.192 -.2281 .4 -33.35)"/><use xlink:href="#W" width="14.2" height="16.5" transform="matrix(-.0637 .291 .2909 .0634 17.25 -38.4)"/></g></g><g clip-path="url(#ac)"><g transform="translate(605.55 88.05)"><use xlink:href="#aa" width="48.9" height="73.4" transform="matrix(1.2527 0 0 1.0052 -33.2 -64.45)"/><use xlink:href="#W" width="14.2" height="16.5" transform="matrix(.2463 -.3175 .3169 .2463 15.4 -47.2)"/><use xlink:href="#W" width="14.2" height="16.5" transform="matrix(.1443 -.3743 -.3741 -.1439 4.7 -44.45)"/><use xlink:href="#W" width="14.2" height="16.5" transform="matrix(-.0505 .3979 -.3975 -.0508 .6 -71.2)"/><use xlink:href="#W" width="14.2" height="16.5" transform="matrix(-.2463 -.3175 -.3169 .2463 -1.45 -13.05)"/><use xlink:href="#W" width="14.2" height="16.5" transform="matrix(-.1657 -.3654 .3652 -.1652 33.55 -11.4)"/><use xlink:href="#W" width="14.2" height="16.5" transform="matrix(-.2463 .3175 -.3169 -.2463 -5.25 -40.7)"/><use xlink:href="#W" width="14.2" height="16.5" transform="matrix(-.1443 .3743 .3741 .1439 5.45 -43.45)"/><use xlink:href="#W" width="14.2" height="16.5" transform="matrix(.0505 -.3979 .3975 .0508 9.55 -16.7)"/><use xlink:href="#W" width="14.2" height="16.5" transform="matrix(.2463 .3175 .3169 -.2463 11.6 -74.85)"/><use xlink:href="#W" width="14.2" height="16.5" transform="matrix(.1657 .3654 -.3652 .1652 -23.4 -76.5)"/><use xlink:href="#W" width="14.2" height="16.5" transform="matrix(-.1647 -.2123 -.212 .1647 -4.6 -18.2)"/><use xlink:href="#W" width="14.2" height="16.5" transform="matrix(-.0965 -.2504 .2502 -.0962 2.6 -16.35)"/><use xlink:href="#W" width="14.2" height="16.5" transform="matrix(.0338 .2661 .2659 -.034 5.3 -34.25)"/><use xlink:href="#W" width="14.2" height="16.5" transform="matrix(-.1647 .2123 -.212 -.1647 -2.05 -36.65)"/><use xlink:href="#W" width="14.2" height="16.5" transform="matrix(-.1108 .2444 .2443 .1105 21.3 -37.75)"/></g></g><g clip-path="url(#ad)"><g transform="translate(716.55 88.05)"><use xlink:href="#ae" width="69.3" height="95.3" transform="translate(-28.75 -87.05)"/><use xlink:href="#W" width="14.2" height="16.5" transform="matrix(.1614 -.3227 .3222 .1613 19.7 -43.25)"/><use xlink:href="#W" width="14.2" height="16.5" transform="matrix(.1926 -.3045 -.3042 -.1922 -1 -46.05)"/><use xlink:href="#W" width="14.2" height="16.5" transform="matrix(.0251 .3593 -.3589 .025 -5.15 -72.5)"/><use xlink:href="#W" width="14.2" height="16.5" transform="matrix(-.1614 -.3227 -.3222 .1613 -5.75 -9.1)"/><use xlink:href="#W" width="14.2" height="16.5" transform="matrix(-.2099 -.2929 .2926 -.2095 39.05 -13.4)"/><use xlink:href="#W" width="14.2" height="16.5" transform="matrix(-.1614 .3227 -.3222 -.1613 -9.55 -44.65)"/><use xlink:href="#W" width="14.2" height="16.5" transform="matrix(-.1926 .3045 .3042 .1922 11.15 -41.85)"/><use xlink:href="#W" width="14.2" height="16.5" transform="matrix(-.0251 -.3593 .3589 -.025 15.3 -15.4)"/><use xlink:href="#W" width="14.2" height="16.5" transform="matrix(.1614 .3227 .3222 -.1613 15.9 -78.8)"/><use xlink:href="#W" width="14.2" height="16.5" transform="matrix(.2099 .2929 -.2926 .2095 -28.9 -74.5)"/><use xlink:href="#W" width="14.2" height="16.5" transform="matrix(-.1079 -.2158 -.2155 .1079 -7.5 -15.55)"/><use xlink:href="#W" width="14.2" height="16.5" transform="matrix(-.1288 -.2036 .2034 -.1286 6.35 -17.45)"/><use xlink:href="#W" width="14.2" height="16.5" transform="matrix(-.0168 .2403 .24 .0167 9.1 -35.1)"/><use xlink:href="#W" width="14.2" height="16.5" transform="matrix(-.1079 .2158 -.2155 -.1079 -4.95 -39.3)"/><use xlink:href="#W" width="14.2" height="16.5" transform="matrix(-.1404 .1959 .1957 .1401 25 -36.45)"/></g></g><g clip-path="url(#af)"><g transform="translate(827.55 88.05)"><use xlink:href="#ae" width="69.3" height="95.3" transform="translate(-28.75 -87.05)"/><use xlink:href="#W" width="14.2" height="16.5" transform="matrix(.0918 -.3097 .3093 .0917 24.35 -40.3)"/><use xlink:href="#W" width="14.2" height="16.5" transform="matrix(.2174 -.2383 -.238 -.2171 -5.9 -48.5)"/><use xlink:href="#W" width="14.2" height="16.5" transform="rotate(75.93 41.228 -43.15)scale(.3225 .322)"/><use xlink:href="#W" width="14.2" height="16.5" transform="matrix(-.0918 -.3097 -.3093 .0917 -10.4 -6.15)"/><use xlink:href="#W" width="14.2" height="16.5" transform="matrix(-.2308 -.2254 .2251 -.2305 43.8 -16.15)"/><use xlink:href="#W" width="14.2" height="16.5" transform="matrix(-.0918 .3097 -.3093 -.0917 -14.2 -47.6)"/><use xlink:href="#W" width="14.2" height="16.5" transform="matrix(-.2174 .2383 .238 .2171 16.05 -39.4)"/><use xlink:href="#W" width="14.2" height="16.5" transform="rotate(255.93 4.45 -15.74)scale(.3225 .322)"/><use xlink:href="#W" width="14.2" height="16.5" transform="matrix(.0918 .3097 .3093 -.0917 20.55 -81.75)"/><use xlink:href="#W" width="14.2" height="16.5" transform="rotate(44.32 71.258 -77.185)scale(.3226 .3222)"/><use xlink:href="#W" width="14.2" height="16.5" transform="matrix(-.0614 -.2072 -.2069 .0613 -10.6 -13.5)"/><use xlink:href="#W" width="14.2" height="16.5" transform="matrix(-.1454 -.1593 .1591 -.1452 9.65 -19.05)"/><use xlink:href="#W" width="14.2" height="16.5" transform="matrix(-.0524 .2092 .209 .0524 12.8 -35.2)"/><use xlink:href="#W" width="14.2" height="16.5" transform="matrix(-.0614 .2072 -.2069 -.0613 -8.05 -41.35)"/><use xlink:href="#W" width="14.2" height="16.5" transform="matrix(-.1544 .1507 .1505 .1542 28.2 -34.6)"/></g></g><g clip-path="url(#ag)"><g transform="translate(938.55 88.05)"><use xlink:href="#ae" width="69.3" height="95.3" transform="translate(-28.75 -87.05)"/><use xlink:href="#W" width="14.2" height="16.5" transform="matrix(.0354 -.286 .2857 .0352 29.05 -38.1)"/><use xlink:href="#W" width="14.2" height="16.5" transform="matrix(.2263 -.1778 -.1775 -.2261 -10.1 -51.4)"/><use xlink:href="#W" width="14.2" height="16.5" transform="matrix(.1149 .2638 -.2634 .1148 -15.7 -72.15)"/><use xlink:href="#W" width="14.2" height="16.5" transform="matrix(-.0354 -.286 -.2857 .0352 -15.1 -3.95)"/><use xlink:href="#W" width="14.2" height="16.5" transform="matrix(-.2362 -.1645 .1642 -.2359 47.9 -19.25)"/><use xlink:href="#W" width="14.2" height="16.5" transform="matrix(-.0354 .286 -.2857 -.0352 -18.9 -49.8)"/><use xlink:href="#W" width="14.2" height="16.5" transform="matrix(-.2263 .1778 .1775 .2261 20.25 -36.5)"/><use xlink:href="#W" width="14.2" height="16.5" transform="matrix(-.1149 -.2638 .2634 -.1148 25.85 -15.75)"/><use xlink:href="#W" width="14.2" height="16.5" transform="matrix(.0354 .286 .2857 -.0352 25.25 -83.95)"/><use xlink:href="#W" width="14.2" height="16.5" transform="matrix(.2362 .1645 -.1642 .2359 -37.75 -68.65)"/><use xlink:href="#W" width="14.2" height="16.5" transform="matrix(-.0237 -.1913 -.1911 .0235 -13.75 -12.15)"/><use xlink:href="#W" width="14.2" height="16.5" transform="matrix(-.1514 -.1189 .1187 -.1512 12.5 -21)"/><use xlink:href="#W" width="14.2" height="16.5" transform="matrix(-.0768 .1764 .1762 .0768 16.2 -34.85)"/><use xlink:href="#W" width="14.2" height="16.5" transform="matrix(-.0237 .1913 -.1911 -.0235 -11.2 -42.7)"/><use xlink:href="#W" width="14.2" height="16.5" transform="matrix(-.158 .11 .1098 .1578 30.9 -32.5)"/></g></g><g clip-path="url(#ah)"><g transform="translate(1049.55 88.05)"><use xlink:href="#W" width="14.2" height="16.5" transform="matrix(-.0057 -.2567 .2564 -.0059 33.4 -36.85)"/><use xlink:href="#W" width="14.2" height="16.5" transform="matrix(.2224 -.1276 -.1273 -.2222 -13.5 -54.5)"/><use xlink:href="#W" width="14.2" height="16.5" transform="matrix(.1352 .2178 -.2174 .1352 -20.1 -71.05)"/><use xlink:href="#W" width="14.2" height="16.5" transform="matrix(.0057 -.2567 -.2564 -.0059 -19.45 -2.7)"/><use xlink:href="#W" width="14.2" height="16.5" transform="matrix(-.2294 -.1146 .1143 -.2292 51.1 -22.5)"/><use xlink:href="#W" width="14.2" height="16.5" transform="matrix(.0057 .2567 -.2564 .0059 -23.25 -51.05)"/><use xlink:href="#W" width="14.2" height="16.5" transform="matrix(-.2224 .1276 .1273 .2222 23.65 -33.4)"/><use xlink:href="#W" width="14.2" height="16.5" transform="matrix(-.1352 -.2178 .2174 -.1352 30.25 -16.85)"/><use xlink:href="#W" width="14.2" height="16.5" transform="matrix(-.0057 .2567 .2564 .0059 29.6 -85.2)"/><use xlink:href="#W" width="14.2" height="16.5" transform="matrix(.2294 .1146 -.1143 .2292 -40.95 -65.4)"/><use xlink:href="#W" width="14.2" height="16.5" transform="matrix(.0038 -.1717 -.1715 -.0039 -16.65 -11.25)"/><use xlink:href="#W" width="14.2" height="16.5" transform="matrix(-.1487 -.0853 .0851 -.1486 14.75 -23.05)"/><use xlink:href="#W" width="14.2" height="16.5" transform="matrix(-.0904 .1456 .1454 .0904 19.15 -34.1)"/><use xlink:href="#W" width="14.2" height="16.5" transform="matrix(.0038 .1717 -.1715 .0039 -14.1 -43.6)"/><use xlink:href="#W" width="14.2" height="16.5" transform="matrix(-.1534 .0766 .0764 .1533 33.05 -30.35)"/></g></g><g clip-path="url(#ai)"><g transform="translate(1160.55 88.05)"><use xlink:href="#W" width="14.2" height="16.5" transform="matrix(-.0357 -.2258 .2256 -.0359 37.4 -36.05)"/><use xlink:href="#W" width="14.2" height="16.5" transform="matrix(.2115 -.086 -.0857 -.2114 -16.2 -57.5)"/><use xlink:href="#W" width="14.2" height="16.5" transform="matrix(.1453 .176 -.1757 .1454 -23.95 -69.65)"/><use xlink:href="#W" width="14.2" height="16.5" transform="matrix(.0357 -.2258 -.2256 -.0359 -23.45 -1.9)"/><use xlink:href="#W" width="14.2" height="16.5" transform="matrix(-.2161 -.0737 .0734 -.216 53.65 -25.65)"/><use xlink:href="#W" width="14.2" height="16.5" transform="matrix(.0357 .2258 -.2256 .0359 -27.25 -51.85)"/><use xlink:href="#W" width="14.2" height="16.5" transform="matrix(-.2115 .086 .0857 .2114 26.35 -30.4)"/><use xlink:href="#W" width="14.2" height="16.5" transform="matrix(-.1453 -.176 .1757 -.1454 34.1 -18.25)"/><use xlink:href="#W" width="14.2" height="16.5" transform="matrix(-.0357 .2258 .2256 .0359 33.6 -86)"/><use xlink:href="#W" width="14.2" height="16.5" transform="matrix(.2161 .0737 -.0734 .216 -43.5 -62.25)"/><use xlink:href="#W" width="14.2" height="16.5" transform="matrix(.0239 -.151 -.1508 -.024 -19.3 -10.7)"/><use xlink:href="#W" width="14.2" height="16.5" transform="matrix(-.1414 -.0575 .0573 -.1414 16.5 -25.1)"/><use xlink:href="#W" width="14.2" height="16.5" transform="matrix(-.0972 .1177 .1175 .0972 21.7 -33.25)"/><use xlink:href="#W" width="14.2" height="16.5" transform="matrix(.0239 .151 -.1508 .024 -16.75 -44.15)"/><use xlink:href="#W" width="14.2" height="16.5" transform="matrix(-.1445 .0493 .0491 .1445 34.75 -28.25)"/></g></g><g clip-path="url(#aj)"><g transform="translate(1271.55 88.05)"><use xlink:href="#W" width="14.2" height="16.5" transform="matrix(-.0553 -.1962 .196 -.0555 40.9 -35.65)"/><use xlink:href="#W" width="14.2" height="16.5" transform="matrix(.1962 -.054 -.0537 -.1962 -18.35 -60.3)"/><use xlink:href="#W" width="14.2" height="16.5" transform="matrix(.1471 .1405 -.1403 .1472 -27.15 -68.2)"/><use xlink:href="#W" width="14.2" height="16.5" transform="matrix(.0553 -.1962 -.196 -.0555 -26.95 -1.5)"/><use xlink:href="#W" width="14.2" height="16.5" transform="matrix(-.199 -.0426 .0423 -.1989 55.6 -28.6)"/><use xlink:href="#W" width="14.2" height="16.5" transform="matrix(.0553 .1962 -.196 .0555 -30.75 -52.25)"/><use xlink:href="#W" width="14.2" height="16.5" transform="matrix(-.1962 .054 .0537 .1962 28.5 -27.6)"/><use xlink:href="#W" width="14.2" height="16.5" transform="matrix(-.1471 -.1405 .1403 -.1472 37.3 -19.7)"/><use xlink:href="#W" width="14.2" height="16.5" transform="matrix(-.0553 .1962 .196 .0555 37.1 -86.4)"/><use xlink:href="#W" width="14.2" height="16.5" transform="matrix(.199 .0426 -.0423 .1989 -45.45 -59.3)"/><use xlink:href="#W" width="14.2" height="16.5" transform="matrix(.037 -.1312 -.1311 -.0371 -21.65 -10.45)"/><use xlink:href="#W" width="14.2" height="16.5" transform="matrix(-.1312 -.0361 .0359 -.1312 17.95 -26.95)"/><use xlink:href="#W" width="14.2" height="16.5" transform="matrix(-.0984 .094 .0938 .0984 23.85 -32.2)"/><use xlink:href="#W" width="14.2" height="16.5" transform="matrix(.037 .1312 -.1311 .0371 -19.1 -44.4)"/><use xlink:href="#W" width="14.2" height="16.5" transform="matrix(-.1331 .0285 .0283 .1331 36.1 -26.3)"/></g></g><g clip-path="url(#ak)"><g transform="translate(1382.55 88.05)"><use xlink:href="#W" width="14.2" height="16.5" transform="matrix(-.0669 -.1696 .1695 -.0671 43.9 -35.65)"/><use xlink:href="#W" width="14.2" height="16.5" transform="matrix(.1795 -.0303 -.0301 -.1795 -19.9 -62.85)"/><use xlink:href="#W" width="14.2" height="16.5" transform="matrix(.1436 .1119 -.1116 .1437 -29.7 -66.7)"/><use xlink:href="#W" width="14.2" height="16.5" transform="matrix(.0669 -.1696 -.1695 -.0671 -29.95 -1.5)"/><use xlink:href="#W" width="14.2" height="16.5" transform="matrix(-.181 -.02 .0197 -.181 57 -31.25)"/><use xlink:href="#W" width="14.2" height="16.5" transform="matrix(.0669 .1696 -.1695 .0671 -33.75 -52.25)"/><use xlink:href="#W" width="14.2" height="16.5" transform="matrix(-.1795 .0303 .0301 .1795 30.05 -25.05)"/><use xlink:href="#W" width="14.2" height="16.5" transform="matrix(-.1436 -.1119 .1116 -.1437 39.85 -21.2)"/><use xlink:href="#W" width="14.2" height="16.5" transform="matrix(-.0669 .1696 .1695 .0671 40.1 -86.4)"/><use xlink:href="#W" width="14.2" height="16.5" transform="matrix(.181 .02 -.0197 .181 -46.85 -56.65)"/><use xlink:href="#W" width="14.2" height="16.5" transform="matrix(.0447 -.1134 -.1134 -.0449 -23.65 -10.5)"/><use xlink:href="#W" width="14.2" height="16.5" transform="matrix(-.1201 -.0203 .0201 -.1201 19 -28.65)"/><use xlink:href="#W" width="14.2" height="16.5" transform="matrix(-.0961 .0748 .0747 .0961 25.55 -31.25)"/><use xlink:href="#W" width="14.2" height="16.5" transform="matrix(.0447 .1134 -.1134 .0449 -21.1 -44.35)"/><use xlink:href="#W" width="14.2" height="16.5" transform="matrix(-.1211 .0134 .0132 .121 37 -24.55)"/></g></g><g clip-path="url(#al)"><g transform="translate(1493.55 88.05)"><use xlink:href="#W" width="14.2" height="16.5" transform="matrix(-.0728 -.1472 .1471 -.073 46.3 -35.85)"/><use xlink:href="#W" width="14.2" height="16.5" transform="matrix(.1634 -.0137 -.0135 -.1634 -21 -65)"/><use xlink:href="#W" width="14.2" height="16.5" transform="matrix(.1373 .0895 -.0894 .1374 -31.7 -65.3)"/><use xlink:href="#W" width="14.2" height="16.5" transform="matrix(.0728 -.1472 -.1471 -.073 -32.35 -1.7)"/><use xlink:href="#W" width="14.2" height="16.5" transform="matrix(-.1639 -.0043 .004 -.1639 58 -33.45)"/><use xlink:href="#W" width="14.2" height="16.5" transform="matrix(.0728 .1472 -.1471 .073 -36.15 -52.05)"/><use xlink:href="#W" width="14.2" height="16.5" transform="matrix(-.1634 .0137 .0135 .1634 31.15 -22.9)"/><use xlink:href="#W" width="14.2" height="16.5" transform="matrix(-.1373 -.0895 .0894 -.1374 41.85 -22.6)"/><use xlink:href="#W" width="14.2" height="16.5" transform="matrix(-.0728 .1472 .1471 .073 42.5 -86.2)"/><use xlink:href="#W" width="14.2" height="16.5" transform="matrix(.1639 .0043 -.004 .1639 -47.85 -54.45)"/><use xlink:href="#W" width="14.2" height="16.5" transform="matrix(.0487 -.0984 -.0984 -.0488 -25.3 -10.6)"/><use xlink:href="#W" width="14.2" height="16.5" transform="matrix(-.1093 -.0092 .009 -.1093 19.7 -30.05)"/><use xlink:href="#W" width="14.2" height="16.5" transform="matrix(-.0918 .0599 .0598 .0919 26.95 -30.3)"/><use xlink:href="#W" width="14.2" height="16.5" transform="matrix(.0487 .0984 -.0984 .0488 -22.75 -44.25)"/><use xlink:href="#W" width="14.2" height="16.5" transform="matrix(-.1096 .0029 .0027 .1096 37.65 -23.05)"/></g></g><g clip-path="url(#am)"><g transform="translate(1604.55 88.05)"><use xlink:href="#W" width="14.2" height="16.5" transform="matrix(-.0759 -.1287 .1286 -.076 48.35 -36)"/><use xlink:href="#W" width="14.2" height="16.5" transform="matrix(.1492 -.0015 -.0013 -.1492 -21.95 -66.8)"/><use xlink:href="#W" width="14.2" height="16.5" transform="matrix(.1306 .0721 -.0719 .1307 -33.4 -64.1)"/><use xlink:href="#W" width="14.2" height="16.5" transform="matrix(.0759 -.1287 -.1286 -.076 -34.4 -1.85)"/><use xlink:href="#W" width="14.2" height="16.5" transform="matrix(-.149 .0071 -.0073 -.149 58.75 -35.3)"/><use xlink:href="#W" width="14.2" height="16.5" transform="matrix(.0759 .1287 -.1286 .076 -38.2 -51.9)"/><use xlink:href="#W" width="14.2" height="16.5" transform="matrix(-.1492 .0015 .0013 .1492 32.1 -21.1)"/><use xlink:href="#W" width="14.2" height="16.5" transform="matrix(-.1306 -.0721 .0719 -.1307 43.55 -23.8)"/><use xlink:href="#W" width="14.2" height="16.5" transform="matrix(-.0759 .1287 .1286 .076 44.55 -86.05)"/><use xlink:href="#W" width="14.2" height="16.5" transform="matrix(.149 -.0071 .0073 .149 -48.6 -52.6)"/><use xlink:href="#W" width="14.2" height="16.5" transform="matrix(.0507 -.0861 -.086 -.0509 -26.65 -10.75)"/><use xlink:href="#W" width="14.2" height="16.5" transform="matrix(-.0997 -.001 .0009 -.0998 20.35 -31.25)"/><use xlink:href="#W" width="14.2" height="16.5" transform="matrix(-.0873 .0482 .0481 .0874 28 -29.45)"/><use xlink:href="#W" width="14.2" height="16.5" transform="matrix(.0507 .0861 -.086 .0509 -24.1 -44.1)"/><use xlink:href="#W" width="14.2" height="16.5" transform="matrix(-.0997 -.0047 -.0049 .0997 38.15 -21.75)"/></g></g><g clip-path="url(#an)"><g transform="translate(1715.55 88.05)"><use xlink:href="#W" width="14.2" height="16.5" transform="matrix(-.0762 -.1149 .1148 -.0764 49.8 -36.3)"/><use xlink:href="#W" width="14.2" height="16.5" transform="matrix(.1375 .0059 .0061 -.1375 -22.4 -68.2)"/><use xlink:href="#W" width="14.2" height="16.5" transform="matrix(.1238 .06 -.0599 .1239 -34.5 -63.15)"/><use xlink:href="#W" width="14.2" height="16.5" transform="matrix(.0762 -.1149 -.1148 -.0764 -35.85 -2.15)"/><use xlink:href="#W" width="14.2" height="16.5" transform="matrix(-.137 .0138 -.014 -.137 59.2 -36.75)"/><use xlink:href="#W" width="14.2" height="16.5" transform="matrix(.0762 .1149 -.1148 .0764 -39.65 -51.6)"/><use xlink:href="#W" width="14.2" height="16.5" transform="matrix(-.1375 -.0059 -.0061 .1375 32.55 -19.7)"/><use xlink:href="#W" width="14.2" height="16.5" transform="matrix(-.1238 -.06 .0599 -.1239 44.65 -24.75)"/><use xlink:href="#W" width="14.2" height="16.5" transform="matrix(-.0762 .1149 .1148 .0764 46 -85.75)"/><use xlink:href="#W" width="14.2" height="16.5" transform="matrix(.137 -.0138 .014 .137 -49.05 -51.15)"/><use xlink:href="#W" width="14.2" height="16.5" transform="matrix(.051 -.0768 -.0768 -.0511 -27.65 -10.85)"/><use xlink:href="#W" width="14.2" height="16.5" transform="matrix(-.092 .0039 -.0041 -.092 20.7 -32.2)"/><use xlink:href="#W" width="14.2" height="16.5" transform="matrix(-.0828 .0401 .0401 .0829 28.8 -28.85)"/><use xlink:href="#W" width="14.2" height="16.5" transform="matrix(.051 .0768 -.0768 .0511 -25.1 -44)"/><use xlink:href="#W" width="14.2" height="16.5" transform="matrix(-.0916 -.0092 -.0094 .0916 38.45 -20.8)"/></g></g><g clip-path="url(#ao)"><g transform="translate(1826.55 88.05)"><use xlink:href="#W" width="14.2" height="16.5" transform="matrix(-.0758 -.1051 .105 -.076 50.8 -36.5)"/><use xlink:href="#W" width="14.2" height="16.5" transform="matrix(.129 .0106 .0108 -.129 -22.8 -69.15)"/><use xlink:href="#W" width="14.2" height="16.5" transform="matrix(.1185 .0518 -.0517 .1187 -35.3 -62.45)"/><use xlink:href="#W" width="14.2" height="16.5" transform="matrix(.0758 -.1051 -.105 -.076 -36.85 -2.35)"/><use xlink:href="#W" width="14.2" height="16.5" transform="matrix(-.1281 .018 -.0182 -.1282 59.55 -37.75)"/><use xlink:href="#W" width="14.2" height="16.5" transform="matrix(.0758 .1051 -.105 .076 -40.65 -51.4)"/><use xlink:href="#W" width="14.2" height="16.5" transform="matrix(-.129 -.0106 -.0108 .129 32.95 -18.75)"/><use xlink:href="#W" width="14.2" height="16.5" transform="matrix(-.1185 -.0518 .0517 -.1187 45.45 -25.45)"/><use xlink:href="#W" width="14.2" height="16.5" transform="matrix(-.0758 .1051 .105 .076 47 -85.55)"/><use xlink:href="#W" width="14.2" height="16.5" transform="matrix(.1281 -.018 .0182 .1282 -49.4 -50.15)"/><use xlink:href="#W" width="14.2" height="16.5" transform="matrix(.0507 -.0703 -.0702 -.0508 -28.35 -11)"/><use xlink:href="#W" width="14.2" height="16.5" transform="matrix(-.0862 .0071 -.0072 -.0863 20.9 -32.9)"/><use xlink:href="#W" width="14.2" height="16.5" transform="matrix(-.0793 .0346 .0346 .0794 29.3 -28.4)"/><use xlink:href="#W" width="14.2" height="16.5" transform="matrix(.0507 .0703 -.0702 .0508 -25.8 -43.85)"/><use xlink:href="#W" width="14.2" height="16.5" transform="matrix(-.0857 -.0121 -.0122 .0857 38.7 -20.15)"/></g></g><g clip-path="url(#ap)"><g transform="translate(1937.55 88.05)"><use xlink:href="#W" width="14.2" height="16.5" transform="matrix(-.0752 -.0994 .0994 -.0753 51.45 -36.6)"/><use xlink:href="#W" width="14.2" height="16.5" transform="matrix(.1238 .013 .0131 -.1238 -22.95 -69.8)"/><use xlink:href="#W" width="14.2" height="16.5" transform="matrix(.1151 .0473 -.0472 .1152 -35.8 -62.05)"/><use xlink:href="#W" width="14.2" height="16.5" transform="matrix(.0752 -.0994 -.0994 -.0753 -37.5 -2.45)"/><use xlink:href="#W" width="14.2" height="16.5" transform="matrix(-.1228 .0201 -.0202 -.1229 59.65 -38.35)"/><use xlink:href="#W" width="14.2" height="16.5" transform="matrix(.0752 .0994 -.0994 .0753 -41.3 -51.3)"/><use xlink:href="#W" width="14.2" height="16.5" transform="matrix(-.1238 -.013 -.0131 .1238 33.1 -18.1)"/><use xlink:href="#W" width="14.2" height="16.5" transform="matrix(-.1151 -.0473 .0472 -.1152 45.95 -25.85)"/><use xlink:href="#W" width="14.2" height="16.5" transform="matrix(-.0752 .0994 .0994 .0753 47.65 -85.45)"/><use xlink:href="#W" width="14.2" height="16.5" transform="matrix(.1228 -.0201 .0202 .1229 -49.5 -49.55)"/><use xlink:href="#W" width="14.2" height="16.5" transform="matrix(.0503 -.0665 -.0665 -.0504 -28.7 -11.15)"/><use xlink:href="#W" width="14.2" height="16.5" transform="matrix(-.0828 .0087 -.0088 -.0828 21.1 -33.3)"/><use xlink:href="#W" width="14.2" height="16.5" transform="matrix(-.077 .0316 .0315 .0771 29.55 -28.1)"/><use xlink:href="#W" width="14.2" height="16.5" transform="matrix(.0503 .0665 -.0665 .0504 -26.15 -43.7)"/><use xlink:href="#W" width="14.2" height="16.5" transform="matrix(-.0822 -.0134 -.0135 .0822 38.8 -19.75)"/></g></g><g clip-path="url(#aq)"><g transform="translate(2048.55 88.05)"><use xlink:href="#W" width="14.2" height="16.5" transform="matrix(-.0751 -.0976 .0976 -.0753 51.6 -36.65)"/><use xlink:href="#W" width="14.2" height="16.5" transform="matrix(.1222 .0139 .014 -.1223 -23.05 -69.9)"/><use xlink:href="#W" width="14.2" height="16.5" transform="matrix(.1142 .0458 -.0456 .1143 -35.9 -61.95)"/><use xlink:href="#W" width="14.2" height="16.5" transform="matrix(.0751 -.0976 -.0976 -.0753 -37.65 -2.5)"/><use xlink:href="#W" width="14.2" height="16.5" transform="matrix(-.1212 .0209 -.021 -.1213 59.7 -38.55)"/><use xlink:href="#W" width="14.2" height="16.5" transform="matrix(.0751 .0976 -.0976 .0753 -41.45 -51.25)"/><use xlink:href="#W" width="14.2" height="16.5" transform="matrix(-.1222 -.0139 -.014 .1223 33.2 -18)"/><use xlink:href="#W" width="14.2" height="16.5" transform="matrix(-.1142 -.0458 .0456 -.1143 46.05 -25.95)"/><use xlink:href="#W" width="14.2" height="16.5" transform="matrix(-.0751 .0976 .0976 .0753 47.8 -85.4)"/><use xlink:href="#W" width="14.2" height="16.5" transform="matrix(.1212 -.0209 .021 .1213 -49.55 -49.35)"/><use xlink:href="#W" width="14.2" height="16.5" transform="matrix(.0502 -.0653 -.0653 -.0504 -28.85 -11.1)"/><use xlink:href="#W" width="14.2" height="16.5" transform="matrix(-.0818 .0093 -.0094 -.0818 21.15 -33.45)"/><use xlink:href="#W" width="14.2" height="16.5" transform="matrix(-.0763 .0306 .0305 .0764 29.7 -28.05)"/><use xlink:href="#W" width="14.2" height="16.5" transform="matrix(.0502 .0653 -.0653 .0504 -26.3 -43.75)"/><use xlink:href="#W" width="14.2" height="16.5" transform="matrix(-.0811 -.014 -.0141 .0811 38.8 -19.65)"/></g></g></svg>