<svg xmlns="http://www.w3.org/2000/svg" xmlns:xlink="http://www.w3.org/1999/xlink" width="28" height="56" viewBox="0 0 28 56"><defs><g id="s"><path fill="#9c783d" d="M6.7.9 8 0q.5 1.3.4 2.2L8 3.3l-.1.9L7.8 6v1.9l.1.3q-.2.7-1.1 1.2L6.3 5z"/><path fill="#8b6b36" d="m6.7.9-.3 4.3.4 4.1-.4.2-1.7.6h-.1l-.4-5.8.1-2.7z"/><path fill="#846431" d="M4.4 1.6 4 4.3l.5 5.8h-1l-1.2-.2-.6-.3-.7-.2q.4-1.1.2-2.4L1 6.5.4 4.7 0 3.3V1.8l2.1.3h.3zm-2 8.3L2.2 2z"/><path fill="none" stroke="#382716" stroke-linecap="round" stroke-linejoin="round" stroke-width="__RESOLUTION__" d="M8 0 6.7.9l-2.3.6-2 .6H2l-2-.4.1 1.6.4 1.4.6 1.8.2.5q.2 1.3-.2 2.4" vector-effect="non-scaling-stroke"/><path fill="none" stroke="#5b3f24" stroke-linecap="round" stroke-linejoin="round" stroke-width="__RESOLUTION__" d="m6.7.9-.3 4.3.4 4.1q.9-.4 1.1-1v-.5L7.8 6V4.2l.2-.9.4-1.1Q8.5 1.3 8 0M4.4 1.6 4 4.3l.5 5.8h0l1.7-.6.5-.1m-2.2.7h-1l-1.2-.2-.6-.3-.7-.2m1-7.3.3 7.8" vector-effect="non-scaling-stroke"/></g><g id="t"><path fill="#324d65" d="m6.9.8.8.1L9 4.4 7.5 7l-.8-.8Q6 3.5 6.9.8M6 .3q.4 3.2-.6 6l-2 1.2h-.1l-1.2-2 .3-2.6.1-.2.7-.9 1-1.1L3 .3q2.2-.6 3.2 0M3.8 6Q3 4 3.6 2 3 4 3.7 6"/><path fill="#243648" d="M6.9.8Q6 3.5 6.5 6.2l.9.8L9 4.4 7.7.8zM6 .3l.4.3h.4l1-.3q.8 0 2.6 2.7l.4.5v.1q.6 1 1.3 1-.6 1.2-1.1.6v1.1l-.5 1.5q-.2.2.2 1l.9 3.2q-1.2-1.2-1.3-.4-.8.3-2.1 1.5l.5-2.2-.7-.5.5-.8q-1-.4-2.4-1.5L3.9 9.3l.6 1-.6.3q0 .8-1.1 1.9 0-1.1-2.8-2.2 2.1 0 1.3-.8l1-1.1L1.5 7l-.1-.1q0-2.1.4-3.3l.6-.7-.3 2.6 1.2 2 2.2-1.2q1-2.8.6-6"/><path fill="none" stroke="#50829c" stroke-linecap="round" stroke-linejoin="round" stroke-width="__RESOLUTION__" d="M3.6 2Q3 4 3.7 6" vector-effect="non-scaling-stroke"/></g><g id="w"><path fill="#f1e9bc" d="m3.4.7.1.7.7.9-4.2.5.3-1.5Q0 .5.3.3L2.9 0z"/><path fill="none" stroke="#1f1e1d" stroke-linecap="round" stroke-linejoin="round" stroke-opacity=".5" stroke-width="__RESOLUTION__" d="m3.4.7.1.7.7.9-4.2.5.3-1.5Q0 .5.3.3L2.9 0z" vector-effect="non-scaling-stroke"/></g><g id="x"><path fill="#c4ae35" d="M4.4 10.6 4.1.5 5.4 0l.4 11-1.4.6zM2.1 1.3 2 11.6v1.1l-1.9.7.8-11.7z"/><path fill="#a98d30" d="m4.1.5.3 10.1-2.5 1 .2-10.3z"/><path fill="none" stroke="#7e6325" stroke-linecap="round" stroke-linejoin="round" stroke-width="__RESOLUTION__" d="M4.4 10.6v1l1.4-.6-.4-11L4 .5l-2 .8-1.3.4L0 13.3l1.9-.6v-1.1z" vector-effect="non-scaling-stroke"/></g><g id="L"><path fill="#f1e9bc" d="M6.5.4h1l-.4 6.7-.4 4.7-1.1.8H2l-2-1.2.5-1.1 2.4-9.1 1-1.1zm-1.4 9.8-.2 2.4zm-2.5 1.5-.3 1z"/><path fill="none" stroke="#1f1e1d" stroke-linecap="round" stroke-linejoin="round" stroke-opacity=".5" stroke-width="__RESOLUTION__" d="m7 7.1-.3 4.7-1.1.8H2l-2-1.2.5-1.1 2.4-9.1 1-1.1 2.6.4m-1.6 12 .2-2.4m-2.7 2.5.2-1" vector-effect="non-scaling-stroke"/></g><g id="M"><path fill="#8c6535" d="M.6 4.5v.3l.8.6.9-.3v-.5l.6.9L2.6 7H1.2L.1 6.5 0 4.8z"/><path fill="#e4d08d" d="m2.4 4.6-.1.5-.9.3-.8-.7v-.2l.2-1.2.7.6 1-.1z"/><path fill="#c89a4f" d="M2.6 3.8 1.4 4l-.7-.7.5-3.3 1.9.7z"/><path fill="none" stroke="#1f1e1d" stroke-linecap="round" stroke-linejoin="round" stroke-opacity=".5" stroke-width="__RESOLUTION__" d="m2.4 4.6-.1.5-.9.3-.8-.7v-.2l-.6.3v1.6l1.2.7h1.4l.3-1.6zl.2-.8.7-3.1h-.1L1.3 0 .8 3.4.6 4.5" vector-effect="non-scaling-stroke"/></g><g id="N"><path fill="#7b582f" d="M0 4.2 1 .7l2.8.1.1.8.3.8q.3 1 .2 2.1l-.9.4q-1.9.4-3.5-.7"/><path fill="#3e2c17" d="M0 4.2q1.6 1 3.5.7l.9-.4q.1-1.1-.3-2.1L4 1.6l.3.7Q5 4 4.5 5.5l-.2.1-3.6-.1z"/><path fill="#e6a81a" d="M2.5 2.6.8 3v.6H.7l-.5-.7.1-.7.5-.1 1.7-.2 1.3.5.4.2q.7.4-.2.8l-.4-.2-1-.4z"/><path fill="#e4b57a" d="M2.5 2.7h.2l.9.4q.5 1.4-.6 1.6l-.4-1.3zM1.5.3l1-.3L4 .8l-.2 1.5-1.3-.5z"/><path fill="#ffce8c" d="M2.5 1.8.9 2 1 .9l.6-.6zM.8 3.5v-.6l1.7-.2.1.7.4 1.3-.3-.1h-.8Q.7 4.3.8 3.6zm1.8-.1.1 1.2z"/><path fill="none" stroke="#1f1e1d" stroke-linecap="round" stroke-linejoin="round" stroke-opacity=".5" stroke-width="__RESOLUTION__" d="M2.5 2.7h.2l-.2-.2m0-.7L.9 2H.4l-.2.8.5.7h0l.1-.6 1.7-.3m.5 2q1-.2.6-1.5l-1-.5m1.2-.3.4.2q.6.4-.2.8l-.4-.2M1.6.3l1-.3L4 .8l-.2 1.5-1.3-.5M1.4.3 1 .9.8 2M3 4.7l-.3-.1h-.8Q.7 4.3.8 3.6v-.1m1.9 1.1-.1-1.2" vector-effect="non-scaling-stroke"/></g><g id="O"><path fill="#6d4f29" d="M.3 5 0 2.8.6.7l1-.7 1.1.4.5 3.1-.4 1.8-1.2-.5-.2-.1v.1z"/><path fill="#ffce8c" d="m2.8 5.3-.4 2-1 .3V4.7h.1zm-1.4-.5h.2z"/><path fill="#e4b57a" d="m1.5 7.6-.8.2L.3 5l1.1-.2z"/><path fill="none" stroke="#1f1e1d" stroke-linecap="round" stroke-linejoin="round" stroke-opacity=".6" stroke-width="__RESOLUTION__" d="M.3 5 0 2.8.6.7l1-.7 1.1.4.5 3.1-.4 1.8-1.2-.5-.2-.1v.1z" vector-effect="non-scaling-stroke"/><path fill="none" stroke="#1f1e1d" stroke-linecap="round" stroke-linejoin="round" stroke-opacity=".3" stroke-width="__RESOLUTION__" d="m2.8 5.3-.4 2m-1.7.5L.3 5" vector-effect="non-scaling-stroke"/><path fill="none" stroke="#1f1e1d" stroke-linecap="round" stroke-linejoin="round" stroke-opacity=".5" stroke-width="__RESOLUTION__" d="M1.6 4.8h-.2" vector-effect="non-scaling-stroke"/></g><g id="a"><path fill="#ffce8c" d="M9.7 16v-1.9q.2-.2.5-.2 1.5-.2 1.4.3l-1 1.4-.6.3zm-6.9-1.8V16l-.6-.2L1 14.7q-.1-.5 1.4-.6z"/><path fill="none" stroke="#1f1e1d" stroke-linecap="round" stroke-linejoin="round" stroke-opacity=".3" stroke-width="__RESOLUTION__" d="M9.7 14.1q.2-.2.5-.2 1.5-.2 1.4.3l-1 1.4-.6.3-.3.1m-6.9-1.8-.4-.1q-1.6.1-1.4.6l1.2 1.1.6.2" vector-effect="non-scaling-stroke"/><path fill="#febf74" d="m3.5 15.5-.2-1.1.2-.8-.2-.7q3.2-1.5 5.9 0l-.2.7.3.6q.2 1.3-1.2 3-1.4 1.8-2 1.6l-.8-.6-.6-.8zm3.8 2.3-2 .4zM6 17.6l.1-2z"/><path fill="none" stroke="#1f1f1f" stroke-linecap="round" stroke-linejoin="round" stroke-opacity=".3" stroke-width="__RESOLUTION__" d="M8.2 17.3Q6.7 19 6 18.8l-.8-.6-.6-.8-1.2-2" vector-effect="non-scaling-stroke"/><path fill="none" stroke="#1f1e1d" stroke-linecap="round" stroke-linejoin="round" stroke-opacity=".5" stroke-width="__RESOLUTION__" d="m5.3 18.2 2-.4m-1.2-2.2-.1 2" vector-effect="non-scaling-stroke"/><path fill="none" stroke="#1f1f1f" stroke-linecap="round" stroke-linejoin="round" stroke-opacity=".6" stroke-width="__RESOLUTION__" d="m7.3 15.6.5-.2h.3m-2.6.2q-.2-.2-.6-.2h-.2" vector-effect="non-scaling-stroke"/><path fill="#324d65" d="m9.1 2-.2-.2zM7.3 6.3q-1.9 0-3.3-.7T2.5 3.4t1.2-2.3Q4.8.3 6.8.4t3.4 1.2 1.6 2.6q0 1.3-1.3 1.7zm-.1-5q-2.2-.2-2.8.5.6-.7 2.8-.5"/><path fill="#243648" d="m7.3 6.3 3.3-.4q1.3-.4 1.2-1.8T10 1.6Q8.9.6 6.9.4t-3.1.7Q2.3 2 2.5 3.4T4 5.6t3.3.7M12.8 5q0 2.2-1.8 3.9-1.8 1.5-4.5 1.6-2.6 0-4.5-1.4T0 5.5t1.9-3.8T6.3 0t4.5 1.5 2 3.6"/><path fill="none" stroke="#50829c" stroke-linecap="round" stroke-linejoin="round" stroke-width="__RESOLUTION__" d="M8.9 1.8 9 2m-4.7-.2q.6-.6 2.8-.4" vector-effect="non-scaling-stroke"/><path fill="#745736" d="m7.6 8-.1 2 .1.3q-.4-.4-1.7-.5h-.2l.2-2.5 1-.2z"/><path fill="none" stroke="#403121" stroke-linecap="round" stroke-linejoin="round" stroke-width="__RESOLUTION__" d="m7.6 8-.1 2 .1.3q-.4-.4-1.7-.5h-.2l.2-2.5 1-.2z" vector-effect="non-scaling-stroke"/></g><g id="e"><path fill="#755725" d="M0 3.1v-.2z"/><path fill="none" stroke="#1f1e1d" stroke-linecap="round" stroke-linejoin="round" stroke-opacity=".3" stroke-width="__RESOLUTION__" d="M3.4 1.9 3 0m.3 1.9q0 .4.3 1T4 4.6l-.7.7-.5 1.4q-.7.2-1-.2V6l-1-.2-.1-1-.8-.4V2.8l.3-.7.6-2m1 5.9V4.8l-.2-.4M.8 4v.7" vector-effect="non-scaling-stroke"/><path fill="#301905" fill-opacity=".3" d="M3.4 1.9q0 .5.3 1T4 4.7l-.7.7-.5 1.3.1-1.9q.4-.8.4-1.7zm-2.6 3L0 4.5V3.2q.2.8.9 1z"/></g><g id="h"><path fill="#e6a81a" d="M9.6 9.9q.3 1.6-2.2-.4L1.3 5 .2.7.9 0l1.5 4.5z"/><path fill="none" stroke="#b47714" stroke-linecap="round" stroke-linejoin="round" stroke-width="__RESOLUTION__" d="M9.6 9.9q.3 1.6-2.2-.4L1.3 5 .2.7" vector-effect="non-scaling-stroke"/></g><g id="f"><path fill="#c09762" d="m6.8 2.6-1 1.3-2 .3q-1.4-.1-2-2 .5-.2.8-.8L3 0l3 .8z"/><path fill="#c4ae35" d="m5.9 6-.3-2 .3-.4-.2-2.3 2.3.2-.2 3.1zM2.6 4.3v2L1 6.1 0 2.3l2.3-.6.1 2z"/><path fill="#a98d30" d="m5.7 4 .2 2-3.1.3-.1-2 1.1-.1V4h.8z"/><path fill="none" stroke="#7e6325" stroke-linecap="round" stroke-linejoin="round" stroke-width="__RESOLUTION__" d="m5.9 6 2-1.3.1-3.2M2.7 6.3 5.9 6M0 2.4.9 6l1.9.2" vector-effect="non-scaling-stroke"/><path fill="#fff" fill-opacity=".9" d="M10.3 11.5v-.2h.2v.2z"/><path fill="#fbebeb" d="M9.6 12.6V12l.3-.2h.2v.3l-.2.3-.1.1z"/><path fill="#af7618" d="M12.2 13.2q-1.6-1.5-.9-1.8l1.1.7.6.7 1.3 1.2 1.1.7.7.4q.9-.2.4.6l-.3.2-1.1-.5-.6-.4-.5-.3h-.1l-.7-.5z"/><path fill="#8f680e" d="m12.2 13.2 1 1-.8.1-.8-.8v-.8zm.8-.4-.6-.7 1-.2 1.6-.6h1.1l-.2 1-.4-.4-.3 1.1-.5-.8z"/><path fill="#646320" d="m13.3 14.2.6.5h.1l.6.4q-1.3.5-1.8 1.5-.7 1-.4 1.7L10.6 20h-.1q1 2 3.7 1.5.8-.2 1.3-.8l2.1-2.4.3-1.6-.1-1.7.6-1v-.2q-.8-.5-1 .4l-1.9.4-.1.1-1-.7q1.4-.4 2-1l.2-.2-.2-.1-.1-.5q1.9-.4 2.9 1.2l-.5 2q.1 1.2-.3 2.6-.8 2.7-3.2 5l-2 .1q-2-.4-3-2t-.3-3.7l.5-1.5.4-.8-.1-.2q.8-.5 1.7-.6z"/><path fill="#c6c64a" d="m14.6 15 .5.5 1.1.4.3-.1q.5-.9-.4-.7l-.6-.4 1.9-.4.4.7.1 1.7-.4.8q-1.1.8-2.2 1l-2.9-.2q-.3-.8.4-1.7.5-1 1.7-1.6"/><path fill="#bbc415" fill-opacity=".7" d="m15.1 15.5 1.1.4z"/><path fill="#cbd504" fill-opacity=".3" d="m16.1 15.1-.7-.4h.1z"/><path fill="#765814" d="M14.4 14 13 12.8l1.7-.5.5.7.3-1.1.4.4.2-1 .2.9.1.5v.3q-.6.6-2 1"/><path fill="#949402" fill-opacity=".8" d="M10.7 15q-.1-.4.1-.8l.8-.7.8.8q-.9.2-1.7.7"/><path fill="#504905" fill-opacity=".9" d="m16.4 12.7.2.1-.3.2z"/><path fill="#a2a912" fill-opacity=".7" d="m17.9 16.8-.3 1.4-.1-.7z"/><path fill="#979631" d="m17.6 18.3-2.1 2.4q-.5.6-1.3.9-2.7.4-3.7-1.7l.1.1 1.8-1.6h2.9q1-.1 2.2-1z"/><path fill="#eef37e" d="m14.4 18.1-.5.8-.8.4-.8-.1q-.3-.3-.3-.8.1-.4.5-.9l.9-.4q.4 0 .7.3.4.3.3.7"/><path fill="#d1a921" d="m10.8 11.9.4-.5.4.4v.5l.7-.5.1.1h.4l-.3.6q-1.1.3-1.7-.4z"/><path fill="#d04040" d="M10.8 11.9v.2l-.1.2q.9.7 2.2.4h.5q.6.1.1.6h-.6l-1.1.1h-.5q-1-.1-1.5-1l.3-.2zm-1.9 2.2.2.4q.7.6 1.8.7 1.2.2 2.3-.6l.2-.1.1-.3q.2 1.3-.9 2.3t-2.6.9-1.6-1.5z"/><path fill="#7d530d" d="M10.8 12q.5.8 1.7.5l.3-.5.6-.1.4-.1-.2.4-.5.6h-.3q-1.3.2-2.1-.5z"/><path fill="#af7618" d="m12.8 12-.4-.1-.1-.1-.7.5v-.5l-.4-.4.1-.2q.3-.8 1-.8 1.6 0 1.4 1.1v.3l-.3.1z"/><path fill="#8f680e" d="m11.2 11.4.1-.2z"/><path fill="#a90127" fill-opacity=".7" d="m13.6 12.2.2.4.1.4-.4.3q.5-.5-.1-.6h-.3z"/><path fill="#910520" d="M13.9 13q.2 1.5-.2 2.6-.4 1.3-2.3 2.4-.7.5-1.9.5-1.2-.4-1.6-1.6t.4-2.4l1.5-2q.5.8 1.5 1l-.6-.1-.6-.3-1 .8-.2.2-.5 1.8q.3 1.4 1.7 1.5 1.4 0 2.5-1t.9-2.2l-.1-.2-.4-.5-.1-.1.6-.1z"/><path fill="#dc8772" d="M10.7 13.4h1l1 .1.3.1.2 1q-1.2.7-2.3.6-1.2-.1-1.9-.8l-.1-.3.1-.2z"/><path fill="#f70c28" fill-opacity=".7" d="M11.8 13.4h1.1v.1h-.2z"/><path fill="#8c0f0c" fill-opacity=".6" d="m9 13.9 1-.8.7.3zm4-.2-.3-.2h.3l.4.5z"/><path fill="#f8a274" fill-opacity=".7" d="m13.2 14.6-.1-1 .3.4.1.2-.1.3z"/><path fill="#fcc" d="M9.3 15.3q-.3-.2-.2-.5l.3-.6q.3-.4.7-.4l.6.2q.2.2.1.5l-.4.7-.5.3z"/></g><g id="i"><path fill="#ffce8c" d="M.2.7 1.9 0 2 3H0z"/><path fill="#6d4f29" d="M.1 3h2v1.1q0 1.2.3 1.8h-2q-.5-.6-.4-2z"/><path fill="none" stroke="#1f1e1d" stroke-linecap="round" stroke-linejoin="round" stroke-opacity=".3" stroke-width="__RESOLUTION__" d="M.2.7.1 3m2-.1-.3-3" vector-effect="non-scaling-stroke"/><path fill="none" stroke="#1f1e1d" stroke-linecap="round" stroke-linejoin="round" stroke-opacity=".6" stroke-width="__RESOLUTION__" d="M.1 3h2v1.1q0 1.2.3 1.8M.1 3 0 4q-.1 1.2.4 1.9" vector-effect="non-scaling-stroke"/></g><g id="aa" transform="translate(7.75 18.7)"><use xlink:href="#a" width="12.8" height="18.8" transform="translate(-6.1 -18.7)"/><use xlink:href="#b" width="12.2" height="13.1" transform="translate(-5.5 -10.65)scale(.9258)"/><use xlink:href="#c" width="15.8" height="2" transform="translate(-7.75 -4.7)"/></g><g id="Z"><use xlink:href="#d" width="4.2" height="6.7"/><use xlink:href="#e" width="4.2" height="6.7"/></g><g id="Y" transform="translate(3.95 13.85)"><use xlink:href="#f" width="19.2" height="23.3" transform="translate(-3.95 -13.85)"/><use xlink:href="#g" width="8.8" height="12.6" transform="matrix(.8989 0 0 .9045 -3.65 -9.9)"/><use xlink:href="#h" width="9.8" height="10.7" transform="translate(-2.75 -12.5)"/></g><g id="X" transform="translate(1.15 1.2)"><use xlink:href="#i" width="2.5" height="5.9" transform="translate(.35 1.45)"/><use xlink:href="#j" width="4.2" height="2.8" transform="rotate(-13.77 -1.4 4.66)scale(.9978)"/></g><g id="V" transform="translate(3.85 2.2)"><use xlink:href="#k" width="7.3" height="5.3" transform="translate(-3.7 -.9)"/><use xlink:href="#l" width="5.8" height="13.3" transform="matrix(1.19 .2236 .0226 1.01 -3.85 -2.2)"/></g><g id="U" transform="translate(3.95 1.05)"><use xlink:href="#m" width=".7" height=".1" transform="translate(3.25 -.35)"/><use xlink:href="#n" width="7.5" height="12.7" transform="translate(-3.95 -1.05)"/></g><g id="T" transform="translate(2.25 -1.65)"><use xlink:href="#o" width=".8" height=".1" transform="translate(.65 1.95)"/><use xlink:href="#p" width="3.3" height="7.1" transform="translate(-2.25 1.65)"/></g><g id="S" transform="translate(1.45 .4)"><use xlink:href="#q" width="4.7" height="5.9" transform="translate(-1.45 -.4)"/><use xlink:href="#r" width="4" height="4.3" transform="translate(-1.35 .3)"/></g><use xlink:href="#s" id="v" width="8.4" height="10.1"/><use xlink:href="#t" id="b" width="12.2" height="13.1"/><use xlink:href="#u" id="d" width="4.2" height="6.7"/><use xlink:href="#v" id="g" width="8.4" height="10.1" transform="matrix(1.03 .0611 0 1.2 .1 0)"/><use xlink:href="#w" id="j" width="4.2" height="2.8"/><use xlink:href="#x" id="l" width="5.8" height="13.3"/><use xlink:href="#K" id="k" width="7.3" height="5.3"/><use xlink:href="#L" id="n" width="7.5" height="12.7"/><use xlink:href="#M" id="p" width="3.3" height="7.1"/><use xlink:href="#N" id="q" width="4.7" height="5.9"/><use xlink:href="#O" id="W" width="3.1" height="7.8"/><use xlink:href="#P" id="R" width="14.7" height="4.3"/><path id="u" fill="#ffce8c" d="M1.3-1.5q0 .5.3 1 .4.6.5 1.8l-.8.6-.5 1.4q-.6.2-1-.2.2-.9 0-1.7v1.2l-1-.2v-.9l-.8-.4V-.5l.2-.7.7-2.1H1z" transform="translate(2.05 3.35)"/><path id="K" fill="#f1e9bc" d="M3.5-1Q3.3.5 2.4 1.2 1 2.6-.2 2.7q-1 0-1.9-.6-1.1-.8-1.4-2.3l-.1-1.6 7.3-.7z" transform="translate(3.65 2.65)"/><path id="P" fill="#382c16" d="M5.8-1.9Q7.9-1.4 8-.5 8 .3 5.9 1 3.8 1.8.7 2l-5.2-.4Q-6.7 1.2-6.7.3q-.1-.8 2-1.6 2.2-.8 5.2-.9z" transform="translate(6.75 2.25)"/><path id="c" fill="#ddaf64" d="M0 .5 2.2.2 3.7 0 4 1.9zm15.9.2-4 1.4.2-1.9 1.5.2z"/><path id="m" fill="none" stroke="#1f1e1d" stroke-linecap="round" stroke-linejoin="round" stroke-opacity=".5" stroke-width="__RESOLUTION__" d="M3.1-.7h.7" transform="translate(-3.1 .75)" vector-effect="non-scaling-stroke"/><path id="o" fill="#ddd6c1" d="M1.5 2H.6z" transform="translate(-.65 -1.95)"/><path id="r" fill="none" stroke="#1c1c1c" stroke-linecap="round" stroke-linejoin="round" stroke-opacity=".5" stroke-width="__RESOLUTION__" d="m-.4.3-1 3.6q.2.6 2 .7 1.6 0 2.1-.4L2.4 2 2.2.5" transform="translate(1.35 -.3)" vector-effect="non-scaling-stroke"/><clipPath id="Q"><path d="M1 1h26v54H1z"/></clipPath></defs><g clip-path="url(#Q)"><g transform="translate(12.85 51.6)"><use xlink:href="#R" width="14.7" height="4.3" transform="matrix(.7884 0 0 .793 -5.3 -1.8)"/><use xlink:href="#S" width="4.7" height="5.9" transform="matrix(.9421 -.0734 .5859 .9912 2.6 -3.4)"/><use xlink:href="#S" width="4.7" height="5.9" transform="matrix(.9855 0 -.0879 .9912 -6.35 -3.6)"/><use xlink:href="#T" width="3.7" height="7.1" transform="matrix(-.9626 -.1239 -.2402 .9839 -1.55 -9)"/><use xlink:href="#U" width="7.9" height="12.7" transform="matrix(-.9664 -.2336 -.2216 .9536 1.2 -17.95)"/><use xlink:href="#T" width="3.7" height="7.1" transform="matrix(.9481 -.0799 .4485 .9591 1.35 -8.85)"/><use xlink:href="#U" width="7.9" height="12.7" transform="matrix(.9194 -.3797 .5014 .8519 -4.4 -16.1)"/><use xlink:href="#V" width="7.5" height="14.7" transform="matrix(1.0945 .1064 0 1.1 -5.1 -21.95)"/><use xlink:href="#W" width="3.1" height="7.8" transform="matrix(.6719 -.5992 .5366 .7305 -11.85 -25.15)"/><use xlink:href="#X" width="4.7" height="8.6" transform="matrix(-.7978 -.6135 -.5796 .7953 -2.8 -30.2)"/><use xlink:href="#X" width="4.7" height="8.6" transform="matrix(.8785 -.4271 .551 .8392 .05 -30.05)"/><use xlink:href="#Y" width="19.2" height="23.3" transform="matrix(.9867 .0991 -.0497 1.0177 -5.1 -34.2)"/><use xlink:href="#Z" width="4.2" height="6.7" transform="matrix(-1.1378 -.5726 -.1228 .3661 10 -17.15)"/><use xlink:href="#Z" width="4.2" height="6.7" transform="matrix(.4 -1.006 .4382 .2514 -7.75 -18.85)"/><use xlink:href="#aa" width="15.8" height="20.2" transform="matrix(.9868 -.0434 .0264 .9908 -9.1 -49.9)"/><use xlink:href="#W" width="3.1" height="7.8" transform="matrix(-.954 -.2009 -.0221 .9029 9.25 -24.6)"/></g></g></svg>