<svg xmlns="http://www.w3.org/2000/svg" xmlns:xlink="http://www.w3.org/1999/xlink" width="23" height="46" viewBox="0 0 23 46"><defs><g id="d"><path fill="#aeaf85" d="m5.3 3.6 2.4.4 1.7-1.3-.2 2-.3 2.2.8.2 3.8-2.9 1.5 1L2.1 16.7l-2-4.1 5-4.5zM5.1 10V8zm2.2 0 1.5-1.8.1-1.2-.1 1.3z"/><path fill="#eaece1" d="M9.4 2.7 7.7 4l-2.4-.5V2l2-1.8 2.4.7zM8.9 7l.3-2.3 2.4-2 1.9 1.5-3.8 3z"/><path fill="none" stroke="#000" stroke-linecap="round" stroke-linejoin="round" stroke-opacity=".5" stroke-width="__RESOLUTION__" d="M5.3 3.6 5.2 8 5 10m4.1-5.3L9 7l-.1 1.3-1.6 1.6m6.3-5.7-2-1.4-2.3 1.9.2-2L9.6 1 7.2.3 5.4 1.9l-.1 1.7m8.2.6 1.5 1L2.1 16.7l-2-4.1 5-4.5" vector-effect="non-scaling-stroke"/></g><g id="f"><path fill="#c6e8db" d="M5 .3 3.5 6l1.3 1.3-2.3 2.2L.8 8l.8-.7L.3.3z"/><path fill="none" stroke="#000" stroke-linecap="round" stroke-linejoin="round" stroke-opacity=".5" stroke-width="__RESOLUTION__" d="M5 .3 3.5 6l1.3 1.3-2.3 2.2" vector-effect="non-scaling-stroke"/><path fill="none" stroke="#000" stroke-linecap="round" stroke-linejoin="round" stroke-opacity=".2" stroke-width="__RESOLUTION__" d="M2.4 9.6.8 8l.8-.7L.3.3" vector-effect="non-scaling-stroke"/></g><g id="g"><path fill="#366d61" d="M.3 6.2 4.2 1Q5.6-.4 5.9 1q-.7 2.9 0 4l.8 1-1.5.7-1.5.3Q2 7.2.4 6.2"/><path fill="none" stroke="#000" stroke-linecap="round" stroke-linejoin="round" stroke-opacity=".5" stroke-width="__RESOLUTION__" d="m6.7 6-.8-1q-.7-1.1 0-4-.3-1.4-1.7 0l-4 5.2" vector-effect="non-scaling-stroke"/></g><g id="h"><path fill="#366d61" d="m2.8.8 1-.4L5.1.2l2.1.5L9 2.2q.9 1.2.9 2.9 0 2-1.4 3.4l-.5.4.1-1.2-.3-1-.5-.6V6Q7 3.6 5.6 2.2q-.7-.6-1.8-1z"/><path fill="#bbbc98" d="M8 8.9q-.8.6-1.9.9h-1q-1.7 0-3-1l3.1-.5q1.5 0 2.9-.6l-.3-1-.5-.7q-.1 1.6-2 2.3 1.5 0 2.8-.6z"/><path fill="#cfd1b8" d="m2.1 8.8-.3-.2-.2-1 .2-.7H2v-.1l.6-.8q.9-.8 1.9-1Q6 4.6 7.3 6q0 1.7-2 2.4h-.4q-1.8-.1-3-1.5 1.2 1.4 3 1.5h.4z"/><path fill="#c9e9dc" d="M1.8 8.6 1 7.5H.9v-.1Q0 6 .4 4.4q.1-1.6 1.3-2.7v-.1L2.8.8l1 .4q1 .4 1.8 1Q7.1 3.5 7.3 6q-1.4-1.4-3-1-.9.2-1.8 1l-.6.8V7l-.3.7z"/><path fill="none" stroke="#000" stroke-linecap="round" stroke-linejoin="round" stroke-opacity=".5" stroke-width="__RESOLUTION__" d="m2.8.8 1-.4L5.1.2l2.1.5L9 2.2q.9 1.2.9 2.9 0 2-1.4 3.4l-.5.4q-.9.7-1.9.9h-1q-1.7 0-3-1l-.4-.2L1 7.5m0 0Q0 6 .4 4.4q.1-1.6 1.3-2.7v-.1L2.8.8" vector-effect="non-scaling-stroke"/><path fill="none" stroke="#000" stroke-linecap="round" stroke-linejoin="round" stroke-opacity=".5" stroke-width="__RESOLUTION__" d="m7.3 6 .5.7.3 1v1.2m-6.2-2-.3.8.1.9m.1-1.7H2v-.1l.6-.8q.9-.8 1.9-1Q6 4.6 7.3 6" vector-effect="non-scaling-stroke"/><path fill="none" stroke="#000" stroke-linecap="round" stroke-linejoin="round" stroke-opacity=".2" stroke-width="__RESOLUTION__" d="M5.3 8.4h-.4q-1.9-.1-3-1.5m6.2.8q-1.3.6-2.8.6" vector-effect="non-scaling-stroke"/></g><g id="i"><path fill="#c6e8db" d="M.3 2.7q-.1-.8.6-1.5L2.3.6 3.7.3q1.7 0 2.5.9L7 2.3Q5.2 3.9 4 4.1 1.5 4 .3 2.7"/><path fill="#366d61" d="M.3 2.7Q1.5 3.9 4 4q1.2-.2 3-1.6V3q0 .9-.8 1.7l-.1.1q-.9.8-2 .8l-.6-.1L2 4.8Q1.1 4.3.5 3.2z"/><path fill="none" stroke="#000" stroke-linecap="round" stroke-linejoin="round" stroke-opacity=".2" stroke-width="__RESOLUTION__" d="m7 2.4-.8-1.2q-.8-1-2.4-1L2.2.5l-1.3.8q-.8.6-.6 1.3" vector-effect="non-scaling-stroke"/><path fill="none" stroke="#000" stroke-linecap="round" stroke-linejoin="round" stroke-opacity=".5" stroke-width="__RESOLUTION__" d="M7 2.4V3q0 .9-.8 1.7h0l-.1.1q-.9.8-2 .8l-.6-.1L2 4.8Q1.1 4.3.5 3.2l-.2-.6" vector-effect="non-scaling-stroke"/></g><g id="j"><path fill="#366d61" d="M.4 2.8 2 .3l3.9.9 1 1.8v.3z"/><path fill="#c6e8db" d="M6.9 3.3 7 4.9l-1.3.7-1.1-.4-.7.2-1-.8-.5.6-1.9-.5-.2-1.8v-.1zm-4.6 0 .6 1.3zm2 0 .3 1.9z"/><path fill="none" stroke="#000" stroke-linecap="round" stroke-linejoin="round" stroke-opacity=".5" stroke-width="__RESOLUTION__" d="M.4 2.8 2 .3l3.9.9 1 1.8v.3L7 4.9l-1.3.7-1.1-.4-.7.2-1-.8-.5.6-1.9-.5-.2-1.8z" vector-effect="non-scaling-stroke"/><path fill="none" stroke="#000" stroke-linecap="round" stroke-linejoin="round" stroke-opacity=".2" stroke-width="__RESOLUTION__" d="m2.9 4.6-.6-1.3M4.6 5l-.3-1.8" vector-effect="non-scaling-stroke"/></g><g id="k"><path fill="#366d61" d="m6.2 2.2.4 1.3-.1.6q-.3.7-1.4 1.2H5l-2.3.3q-1-.2-1.9-1.1T.4 2.4l.8-1.1L2.3.6h2.5z"/><path fill="none" stroke="#000" stroke-linecap="round" stroke-linejoin="round" stroke-opacity=".5" stroke-width="__RESOLUTION__" d="m6.2 2.2.4 1.3-.1.6q-.3.7-1.4 1.2H5h0l-2.3.3q-1-.2-1.9-1.1T.4 2.4l.8-1.1L2.3.6h2.5z" vector-effect="non-scaling-stroke"/></g><g id="l"><path fill="#366d61" d="M8.4 2.7 7 4.6 4 6.1l-1.3.2-1.5-.6.4-.8-1-.4.2-.4-.6-.6L4.1.1zM2 3.7l-.4 1.2zM1.4 3 .9 4z"/><path fill="none" stroke="#000" stroke-linecap="round" stroke-linejoin="round" stroke-opacity=".5" stroke-width="__RESOLUTION__" d="M8.4 2.7 7 4.6 4 6.1l-1.3.2-1.5-.6.4-.8-1-.4.2-.4-.6-.6L4.1.1zM1.5 4.9 2 3.6M.8 4l.6-.9" vector-effect="non-scaling-stroke"/></g><g id="n"><path fill="#c6e8db" d="M13 4.2 9.6 2 6.5 4.4l-2-2Q7 1.5 8.2.3q3.6 1.6 4.9 3.2l.2.3z"/><path fill="#366d61" d="m4.5 2.4 2 2L9.6 2 13 4.2l-.9 1.4-3-.9-3.8 4.2-4 .7-1-3 1-3.4zm5.3 1.3-.8 1z"/><path fill="none" stroke="#000" stroke-linecap="round" stroke-linejoin="round" stroke-opacity=".5" stroke-width="__RESOLUTION__" d="m13 4.2.3-.4M4.4 2.4l-3.1.9-1 3.4 1 3 4-.8L9 4.7l.7-1m3.2.5L12 5.6l-3-.9" vector-effect="non-scaling-stroke"/><path fill="none" stroke="#000" stroke-linecap="round" stroke-linejoin="round" stroke-opacity=".2" stroke-width="__RESOLUTION__" d="m13.3 3.8-.2-.3q-1.3-1.6-5-3.2Q7 1.5 4.6 2.4" vector-effect="non-scaling-stroke"/></g><g id="c"><path fill="#c9e9dc" d="m17 7.9-.2.4-1.6 4.1-10.7.3L2 6.3l1-3q6.9-1.2 13.2-.2.8 1.4 1 3.4l.1.4z"/><path fill="#366d61" d="m16.8 8.3.9 3.9-2.1 7.4q.4 1-.1 1.6l-12.1-.4.5-1.6-1.7-7.7L2 6.1l2.5 6.6 10.7-.3zm-12 9.1-1 1.8zm9.8.7 1 1.4z"/><path fill="#c7316a" d="M17.4 6.9 17 8z"/><path fill="none" stroke="#000" stroke-linecap="round" stroke-linejoin="round" stroke-opacity=".5" stroke-width="__RESOLUTION__" d="m17 7.9-.2.4.9 3.9-2.1 7.4q.4 1-.1 1.6l-12.1-.4.5-1.6-1.7-7.7L2 6.1l1-2.8q6.9-1.2 13.2-.2.8 1.4 1 3.4l.1.4v0zl.4-1M3.9 19.2l.8-1.7m10.9 2-1-1.4" vector-effect="non-scaling-stroke"/><path fill="#c6e8db" d="m6.8 3.6 2.4-1.3 2.9.3 1.3 3.6-.9 2.8-.6.5-4.5.2z"/><path fill="#366d61" d="m6.8 3.6.6 6L6 8.5V5.1z"/><path fill="none" stroke="#000" stroke-linecap="round" stroke-linejoin="round" stroke-opacity=".5" stroke-width="__RESOLUTION__" d="m12 9.5.5-.5.9-2.9-1.3-3.5-2.9-.3-2.4 1.3L6 5" vector-effect="non-scaling-stroke"/><path fill="#a2b88f" d="M18.9 2.6v.1l-.2.2z"/><path fill="#366d61" d="m18.9 2.6-.2.3L17.1 4q.1-1.1-.5-2T14.4.7l.8-.1q1.6-.2 2.8.9l.2.2 1 .5z"/><path fill="#dddcc6" d="m18.7 2.9.2-.2.4 1.4q.1 1.6-1 2.8-1 1.1-2.6 1.3-1.6 0-2.7-1l-1-1 1-.3q0 .4.4.7.4.5 1 .5t1.1-.5.5-1l-.2-.8 1.3-.7z"/><path fill="#c6e8db" d="M12 6.2V6l-.6-.4.3-.8v-.3q-.1-1.4.7-2.5l.1-.3q.8-.8 1.9-1.1 1.6.6 2.2 1.4t.5 2l-1.3.7L13 5.9zm3.2-3.7-.4-.2-.5.2-.1.4.2.4.3.1.5-.1.1-.4z"/><path fill="#000" d="m15.8 4.8.2.8q0 .6-.4 1t-1.1.5-1.1-.5q-.3-.3-.4-.7z"/><path fill="#fcfff1" d="m15.2 2.5.1.4-.1.4-.4.1-.5-.1q-.2-.2-.1-.4l.2-.4.3-.2z"/><path fill="none" stroke="#000" stroke-linecap="round" stroke-linejoin="round" stroke-opacity=".5" stroke-width="__RESOLUTION__" d="M18.9 2.7v-.1l-.2.3zm-6.8 3.5V6l-.8-.4.4-.8v-.3q-.2-1.4.6-2.5l.2-.3q.8-.8 1.9-1.1l.8-.1q1.6-.2 2.8.9l.2.2 1 .5-.3.4m-6 3.3-.9.3m3.8-1.4 1.3-.7 1.6-1.2m-5.7 3 2.8-1.1" vector-effect="non-scaling-stroke"/><path fill="none" stroke="#2b0b18" stroke-linecap="round" stroke-linejoin="round" stroke-opacity=".2" stroke-width="__RESOLUTION__" d="m18.9 2.7.4 1.4q.1 1.6-1 2.8-1 1.1-2.6 1.3-1.6 0-2.7-1l-1-1" vector-effect="non-scaling-stroke"/><path fill="#fff" d="m15.2 6.2.2-.3.7-.2.7.2.2.3-.2.4-.7.2-.7-.2q-.2-.1-.2-.4"/><path fill="#c6e8db" d="M5.3.4q1 .3 1.9 1.2l.1.2q.8 1.1.7 2.5v.3l.3.8-.6.3-.1.1-.9-.2-2.8-1.1-1.2-.7q-.3-1.1.4-2T5.3.4m0 1.8L5 2l-.4.2-.2.4.2.4.4.1.4-.1.2-.4z"/><path fill="#dddcc6" d="m7.6 5.9-.9 1Q5.5 8 3.9 8q-1.6-.2-2.6-1.4T.4 3.9l.4-1.4.1.2 1.8 1.2 1.2.7-.2.8q0 .6.4 1t1.1.5 1.1-.5l.4-.7z"/><path fill="#a2b88f" d="M.8 2.4v-.1l.2.3z"/><path fill="#366d61" d="m.8 2.3-.3-.4 1-.5.2-.2Q2.9 0 4.5.1l.8.2Q3.7.9 3.1 1.8t-.5 2L1 2.6z"/><path fill="#000" d="m3.9 4.5 2.8 1.1-.4.7q-.5.5-1.1.5t-1-.5q-.6-.4-.5-1z"/><path fill="#fcfff1" d="m5.4 2.2.1.4-.1.4-.5.1-.4-.1-.2-.4.2-.4.4-.2z"/><path fill="none" stroke="#000" stroke-linecap="round" stroke-linejoin="round" stroke-opacity=".5" stroke-width="__RESOLUTION__" d="M5.3.4q1 .3 1.9 1.2l.1.2q.8 1.1.7 2.5v.3l.3.8-.6.3-.1.1-.9-.2-2.8-1.1-1.2-.7L1 2.6l-.2-.3v.1l.1.2m-.1-.3-.3-.4 1-.5.2-.2Q2.9 0 4.5.1l.8.2" vector-effect="non-scaling-stroke"/><path fill="none" stroke="#2b0b18" stroke-linecap="round" stroke-linejoin="round" stroke-opacity=".2" stroke-width="__RESOLUTION__" d="m7.6 5.9-.9 1Q5.5 8 3.9 8q-1.6-.2-2.6-1.4T.4 3.9l.4-1.4" vector-effect="non-scaling-stroke"/><path fill="#fff" d="M4.5 5.9q0 .3-.2.4l-.7.2-.7-.2-.3-.4.3-.3.7-.2.6.2z"/><path fill="#366d61" d="M6.5 8q-4 1.9-5-.9z"/><path fill="none" stroke="#000" stroke-linecap="round" stroke-linejoin="round" stroke-opacity=".5" stroke-width="__RESOLUTION__" d="m6.5 8-5-.9" vector-effect="non-scaling-stroke"/><path fill="#366d61" d="m13 8.2 5.2-.9q-1.2 2.8-5.1.9"/><path fill="none" stroke="#000" stroke-linecap="round" stroke-linejoin="round" stroke-opacity=".5" stroke-width="__RESOLUTION__" d="m13 8.2 5.2-.9" vector-effect="non-scaling-stroke"/><path fill="#c9e9dc" d="m15.4 10.3 2-.2 1.9 2-1.8 1-2 1-.6-1zM.3 12.1 2 10l2 .2.5 2.8-.6 1-2-1z"/><path fill="#366d61" d="M19.3 12v1.4L16.5 16l-1-1.9 2-1zM4 14.2 3 16 .1 13.4V12L2 13z"/><path fill="none" stroke="#000" stroke-linecap="round" stroke-linejoin="round" stroke-opacity=".5" stroke-width="__RESOLUTION__" d="m15.4 10.3 2-.2 1.9 2v1.3L16.5 16m1-3-2 1.1m-15.2-2L2 10l2 .2M3 16 .2 13.4v-1.3M2 13l2 1" vector-effect="non-scaling-stroke"/></g><g id="a"><path fill="#eaece1" d="m3 10.8 2.1-4.2.7 3.3q-.4 2.3-.3 5.3-1.9-2.4-2.5-4.4M1.3 5.4q.8-.9 1.3.1-.5 2.7-.3 5l-.7-.1-.4-2.8z"/><path fill="#aeaf85" d="m5.8 9.9-.7-3.3L3 10.8l-.3-1.6-.4 1.4q-.2-2.4.3-5-.5-1-1.3-.1l.2-2 1.3-1 1.5 3 3.4-3 .8 1.3q-2 2-2.7 6M1.5 3.4l-.2 2-.1 2.1-1-3.1zM3 8l-.3 1.3z"/><path fill="#366d61" d="m7.7 2.5-3.4 3-1.5-3L6 0z"/><path fill="none" stroke="#000" stroke-linecap="round" stroke-linejoin="round" stroke-opacity=".5" stroke-width="__RESOLUTION__" d="M3 10.8q.6 2 2.5 4.4-.1-3 .3-5.3.7-4 2.7-6.1m-.9-1.3-3.3 3-1.5-3m-1.3 1-.2 2-.1 2-1-3.1m2 6.2.4-1.4.3-1.3m-.8 2.7-.6-.2-.4-2.8M3 10.8l-.3-1.6" vector-effect="non-scaling-stroke"/></g><g id="C" transform="translate(10.35 17.1)"><use xlink:href="#a" width="8.7" height="15.4" transform="translate(-4.45 4.05)"/><use xlink:href="#b" width="15.2" height="16.8" transform="matrix(.2565 -.3748 .4469 .192 -10.35 -11.4)"/><use xlink:href="#b" width="15.2" height="16.8" transform="matrix(-.2565 -.3748 -.4469 .192 10.15 -10.65)"/><use xlink:href="#c" width="19.6" height="21.4" transform="translate(-10.1 -12.1)"/></g><g id="y"><path fill="#cfd1b8" d="M.3.6.4.3h.1z"/><path fill="none" stroke="#000" stroke-linecap="round" stroke-linejoin="round" stroke-opacity=".5" stroke-width="__RESOLUTION__" d="M.5.3.3.6h0" vector-effect="non-scaling-stroke"/></g><use xlink:href="#d" id="b" width="15.2" height="16.8"/><use xlink:href="#e" id="D" width="24.5" height="40.5"/><use xlink:href="#f" id="B" width="5.3" height="9.8"/><use xlink:href="#g" id="A" width="6.9" height="7"/><use xlink:href="#h" id="z" width="10.2" height="10.1"/><use xlink:href="#i" id="x" width="7.3" height="5.8"/><use xlink:href="#j" id="w" width="7.3" height="5.8"/><use xlink:href="#k" id="v" width="6.8" height="6"/><use xlink:href="#l" id="u" width="8.6" height="6.5"/><use xlink:href="#m" id="q" width="5.8" height="4"/><use xlink:href="#n" id="p" width="13.5" height="9.9"/><path id="e" fill="none" stroke="#c9e9dc" stroke-linecap="round" stroke-linejoin="round" stroke-opacity=".8" stroke-width="__RESOLUTION__" d="M12.1-39.1q-3 3.7-6.2 4.1-2.3.3-4.6-1.2Q0-37-1-38q-1.2-1.4-2.3-1.8-2.4-.9-4.1 3-1.8 4.2-2.4 8.7l-.3 1.5q-1 8.7-1.4 17.2L-12 0" transform="translate(12.15 40.25)" vector-effect="non-scaling-stroke"/><path id="m" fill="#1d1d12" d="m2.8 1.7.1.3-.8-.3q-2.8-1-5-.1Q-.3-.1.4-2q2 1.6 2.4 3.7" transform="translate(2.9 2)"/><clipPath id="o"><path d="M1 1h21v44H1z"/></clipPath></defs><g clip-path="url(#o)"><g transform="translate(11.15 42.05)"><use xlink:href="#p" width="13.5" height="9.9" transform="rotate(45 12.978 5.726)scale(-1 1)"/><use xlink:href="#q" width="5.8" height="4" transform="matrix(-1 0 0 1 -.55 -12.5)"/><use xlink:href="#u" width="8.6" height="6.5" transform="matrix(-1 0 0 1 10.2 -4.15)"/><use xlink:href="#v" width="6.8" height="6" transform="matrix(-.873 0 0 1 9.2 -5.9)"/><use xlink:href="#w" width="7.3" height="5.8" transform="matrix(-1 0 0 1 -2.75 -3.15)"/><use xlink:href="#x" width="7.3" height="5.8" transform="matrix(-.7794 0 0 1 -3.15 -6.1)"/><use xlink:href="#y" width=".8" height=".8" transform="translate(3.85 -2.35)"/><use xlink:href="#z" width="10.2" height="10.1" transform="matrix(-1 0 0 1 5.2 -9.55)"/><use xlink:href="#A" width="6.9" height="7" transform="matrix(-1 0 0 1 3.85 -14)"/><use xlink:href="#B" width="5.3" height="9.8" transform="matrix(-.3918 .2262 .2262 .3918 -1.4 -7)"/><use xlink:href="#B" width="5.3" height="9.8" transform="matrix(-.3734 -.3545 -.0747 .2789 4.25 -5.3)"/><use xlink:href="#C" width="20.5" height="36.5" transform="matrix(-1 0 0 1 10.35 -35)"/><use xlink:href="#D" width="24.5" height="40.5" transform="matrix(-.1939 0 -.0727 .5305 10.25 -41.05)"/><use xlink:href="#D" width="24.5" height="40.5" transform="matrix(.1939 0 .0727 .5305 -9.35 -41.05)"/></g></g></svg>