<svg xmlns="http://www.w3.org/2000/svg" xmlns:xlink="http://www.w3.org/1999/xlink" width="2113" height="85" viewBox="0 0 2113 85"><defs><g id="M"><path fill="#b81a03" d="M34.7 28.4q-4.3-4-6.6-3.5-1.8.3-2.9 3.7.1-4.1-2.4-6.1 4.9-.1 4.8-3.4t-5.3-7q2.9 1 6.3-2-1.4 3.8-.9 5.9.5 1.9 2.8 3.3l3.4 1.2q-2.4.4-2.4 2-.1 2 3.2 5.9"/><path fill="none" stroke="#d01d04" stroke-linecap="round" stroke-linejoin="round" stroke-width="__RESOLUTION__" d="M33.9 20.5q-2.4.4-2.4 2-.1 2 3.2 5.9" vector-effect="non-scaling-stroke"/><path fill="#f43404" d="M5.5 3.3Q16.3 9 16.3 2.6l4 1.7q-.7.4-1.4 1.9-1 2.2-.5 4.5.7 3.7 3.8 8.5l4.1 5.2q-5.8-2.8-16.6 1.3 12.2-8.4-4.3-22.4M2 .2q1.4.7 2 2.2l-.9-.2L0 .9Q.6-.4 2 .2"/><path fill="none" stroke="#fc563f" stroke-linecap="round" stroke-linejoin="round" stroke-width="__RESOLUTION__" d="M5.5 3.3Q16.3 9 16.3 2.6" vector-effect="non-scaling-stroke"/><path fill="none" stroke="#d01d04" stroke-linecap="round" stroke-linejoin="round" stroke-width="__RESOLUTION__" d="M9.7 25.7Q22 17.3 5.5 3.3M2 .2q1.4.7 2 2.2l-.9-.2L0 .9Q.6-.4 2 .2" vector-effect="non-scaling-stroke"/><path fill="#f43404" d="M6.7 28q-1.1-.7-.3-1.3.8-.5 2.1-.5l-.2.4z"/><path fill="none" stroke="#d01d04" stroke-linecap="round" stroke-linejoin="round" stroke-width="__RESOLUTION__" d="M6.7 28q-1.1-.7-.3-1.3.8-.5 2.1-.5l-.2.4z" vector-effect="non-scaling-stroke"/></g><g id="O" fill="#2f2f19"><path fill-opacity=".2" d="M1.5 1.3 1.2.8l-.4.3-.3.7v.8l.3.3.4-.2.3-.7zM2 .7l-.1 1.4-.4 1.4q-.5.5-.9.4l-.5-.7q-.2-.6 0-1.4L.5.5Q1 0 1.4 0z"/><path d="M1.5 1.3V2l-.2.7-.5.2-.3-.3v-.8l.3-.7.4-.2z"/></g><g id="Q"><path fill="#000" d="m8.6 1 .6.5 3 2.9L15 7.5q1.2 1.8 1.8 3.8l.2.8q.2 1.7-.7 3.2L13.6 13q-2.3-1.7-6.1-2.9l-.3-.1-1-.7-1-1.2-.2-.7.1-1 1.3-3Q7.2 2 8.6 1"/><path fill="#262615" d="M8.6 1Q7.2 2 6.4 3.6l-1.3 3-.1 1 .1.7 1 1.2 1.1.6-5.4-.3.1-.3.2-.7q.6-.7.3-1.5V7l-.7-1.2.2-1.1Q2.3 3 3.7 1.5 4.8.5 6.3.2q1-.3 2.3.8"/><path fill="#52522c" d="M1.8 9.7H.6l.9-.1.2-.3.4-.6-.1.6z"/><path fill="none" stroke="#000" stroke-linecap="round" stroke-linejoin="round" stroke-opacity=".5" stroke-width="__RESOLUTION__" d="M1.5 9.6 0 9.5m1.7-3.7L2.3 7l.2.2q.3.8-.4 1.6l-.6.8m7.1-8.5Q7.3-.1 6.3 0" vector-effect="non-scaling-stroke"/></g><g id="R" fill="#3a2f17"><path fill-opacity=".2" d="M1.5 1.3 1.2.8l-.4.3-.3.7v.8l.3.3.4-.2.3-.7zM2 .7l-.1 1.4-.4 1.4q-.5.5-.9.4l-.5-.7q-.2-.6 0-1.4L.5.5Q1 0 1.4 0z"/><path d="M1.5 1.3V2l-.2.7-.5.2-.3-.3v-.8l.3-.7.4-.2z"/></g><g id="S"><path fill="#0f0400" d="m8.6 1 .6.5 3 2.9L15 7.5q1.2 1.8 1.8 3.8l.2.8q.2 1.7-.7 3.2L13.6 13q-2.3-1.7-6.1-2.9l-.3-.1-1-.7-1-1.2-.2-.7.1-1 1.3-3Q7.2 2 8.6 1"/><path fill="#322713" d="M8.6 1Q7.2 2 6.4 3.6l-1.3 3-.1 1 .1.7 1 1.2 1.1.6-5.4-.3.1-.3.2-.7q.6-.7.3-1.5V7l-.7-1.2.2-1.1Q2.3 3 3.7 1.5 4.8.5 6.3.2q1-.3 2.3.8"/><path fill="#5a4f28" d="M1.8 9.7H.6l.9-.1.2-.3.4-.6-.1.6z"/><path fill="none" stroke="#0f0400" stroke-linecap="round" stroke-linejoin="round" stroke-opacity=".5" stroke-width="__RESOLUTION__" d="M1.5 9.6 0 9.5m1.7-3.7L2.3 7l.2.2q.3.8-.4 1.6l-.6.8m7.1-8.5Q7.3-.1 6.3 0" vector-effect="non-scaling-stroke"/></g><g id="T" fill="#5e3011"><path fill-opacity=".2" d="M1.5 1.3 1.2.8l-.4.3-.3.7v.8l.3.3.4-.2.3-.7zM2 .7l-.1 1.4-.4 1.4q-.5.5-.9.4l-.5-.7q-.2-.6 0-1.4L.5.5Q1 0 1.4 0z"/><path d="M1.5 1.3V2l-.2.7-.5.2-.3-.3v-.8l.3-.7.4-.2z"/></g><g id="U"><path fill="#3e1000" d="m8.6 1 .6.5 3 2.9L15 7.5q1.2 1.8 1.8 3.8l.2.8q.2 1.7-.7 3.2L13.6 13q-2.3-1.7-6.1-2.9l-.3-.1-1-.7-1-1.2-.2-.7.1-1 1.3-3Q7.2 2 8.6 1"/><path fill="#582a0e" d="M8.6 1Q7.2 2 6.4 3.6l-1.3 3-.1 1 .1.7 1 1.2 1.1.6-5.4-.3.1-.3.2-.7q.6-.7.3-1.5V7l-.7-1.2.2-1.1Q2.3 3 3.7 1.5 4.8.5 6.3.2q1-.3 2.3.8"/><path fill="#77491e" d="M1.8 9.7H.6l.9-.1.2-.3.4-.6-.1.6z"/><path fill="none" stroke="#3e1000" stroke-linecap="round" stroke-linejoin="round" stroke-opacity=".5" stroke-width="__RESOLUTION__" d="M1.5 9.6 0 9.5m1.7-3.7L2.3 7l.2.2q.3.8-.4 1.6l-.6.8m7.1-8.5Q7.3-.1 6.3 0" vector-effect="non-scaling-stroke"/></g><g id="W" fill="#9a3208"><path fill-opacity=".2" d="M1.5 1.3 1.2.8l-.4.3-.3.7v.8l.3.3.4-.2.3-.7zM2 .7l-.1 1.4-.4 1.4q-.5.5-.9.4l-.5-.7q-.2-.6 0-1.4L.5.5Q1 0 1.4 0z"/><path d="M1.5 1.3V2l-.2.7-.5.2-.3-.3v-.8l.3-.7.4-.2z"/></g><g id="X"><path fill="#8b2300" d="m8.6 1 .6.5 3 2.9L15 7.5q1.2 1.8 1.8 3.8l.2.8q.2 1.7-.7 3.2L13.6 13q-2.3-1.7-6.1-2.9l-.3-.1-1-.7-1-1.2-.2-.7.1-1 1.3-3Q7.2 2 8.6 1"/><path fill="#972f06" d="M8.6 1Q7.2 2 6.4 3.6l-1.3 3-.1 1 .1.7 1 1.2 1.1.6-5.4-.3.1-.3.2-.7q.6-.7.3-1.5V7l-.7-1.2.2-1.1Q2.3 3 3.7 1.5 4.8.5 6.3.2q1-.3 2.3.8"/><path fill="#a53d0e" d="M1.8 9.7H.6l.9-.1.2-.3.4-.6-.1.6z"/><path fill="none" stroke="#8b2300" stroke-linecap="round" stroke-linejoin="round" stroke-opacity=".5" stroke-width="__RESOLUTION__" d="M1.5 9.6 0 9.5m1.7-3.7L2.3 7l.2.2q.3.8-.4 1.6l-.6.8m7.1-8.5Q7.3-.1 6.3 0" vector-effect="non-scaling-stroke"/></g><g id="Y" fill="#a44823"><path fill-opacity=".2" d="M1.5 1.3 1.2.8l-.4.3-.3.7v.8l.3.3.4-.2.3-.7zM2 .7l-.1 1.4-.4 1.4q-.5.5-.9.4l-.5-.7q-.2-.6 0-1.4L.5.5Q1 0 1.4 0z"/><path d="M1.5 1.3V2l-.2.7-.5.2-.3-.3v-.8l.3-.7.4-.2z"/></g><g id="Z"><path fill="#973b1c" d="m8.6 1 .6.5 3 2.9L15 7.5q1.2 1.8 1.8 3.8l.2.8q.2 1.7-.7 3.2L13.6 13q-2.3-1.7-6.1-2.9l-.3-.1-1-.7-1-1.2-.2-.7.1-1 1.3-3Q7.2 2 8.6 1"/><path fill="#a14521" d="M8.6 1Q7.2 2 6.4 3.6l-1.3 3-.1 1 .1.7 1 1.2 1.1.6-5.4-.3.1-.3.2-.7q.6-.7.3-1.5V7l-.7-1.2.2-1.1Q2.3 3 3.7 1.5 4.8.5 6.3.2q1-.3 2.3.8"/><path fill="#ae5228" d="M1.8 9.7H.6l.9-.1.2-.3.4-.6-.1.6z"/><path fill="none" stroke="#973b1c" stroke-linecap="round" stroke-linejoin="round" stroke-opacity=".5" stroke-width="__RESOLUTION__" d="M1.5 9.6 0 9.5m1.7-3.7L2.3 7l.2.2q.3.8-.4 1.6l-.6.8m7.1-8.5Q7.3-.1 6.3 0" vector-effect="non-scaling-stroke"/></g><g id="aa" fill="#c48b73"><path fill-opacity=".2" d="M1.5 1.3 1.2.8l-.4.3-.3.7v.8l.3.3.4-.2.3-.7zM2 .7l-.1 1.4-.4 1.4q-.5.5-.9.4l-.5-.7q-.2-.6 0-1.4L.5.5Q1 0 1.4 0z"/><path d="M1.5 1.3V2l-.2.7-.5.2-.3-.3v-.8l.3-.7.4-.2z"/></g><g id="ac"><path fill="#bc836f" d="m8.6 1 .6.5 3 2.9L15 7.5q1.2 1.8 1.8 3.8l.2.8q.2 1.7-.7 3.2L13.6 13q-2.3-1.7-6.1-2.9l-.3-.1-1-.7-1-1.2-.2-.7.1-1 1.3-3Q7.2 2 8.6 1"/><path fill="#c38a72" d="M8.6 1Q7.2 2 6.4 3.6l-1.3 3-.1 1 .1.7 1 1.2 1.1.6-5.4-.3.1-.3.2-.7q.6-.7.3-1.5V7l-.7-1.2.2-1.1Q2.3 3 3.7 1.5 4.8.5 6.3.2q1-.3 2.3.8"/><path fill="#cb9277" d="M1.8 9.7H.6l.9-.1.2-.3.4-.6-.1.6z"/><path fill="none" stroke="#bc836f" stroke-linecap="round" stroke-linejoin="round" stroke-opacity=".5" stroke-width="__RESOLUTION__" d="M1.5 9.6 0 9.5m1.7-3.7L2.3 7l.2.2q.3.8-.4 1.6l-.6.8m7.1-8.5Q7.3-.1 6.3 0" vector-effect="non-scaling-stroke"/></g><g id="ad" fill="#fafafa"><path fill-opacity=".2" d="M1.5 1.3 1.2.8l-.4.3-.3.7v.8l.3.3.4-.2.3-.7zM2 .7l-.1 1.4-.4 1.4q-.5.5-.9.4l-.5-.7q-.2-.6 0-1.4L.5.5Q1 0 1.4 0z"/><path d="M1.5 1.3V2l-.2.7-.5.2-.3-.3v-.8l.3-.7.4-.2z"/></g><g id="ae"><path fill="#fafafa" d="m8.6 1 .6.5 3 2.9L15 7.5q1.2 1.8 1.8 3.8l.2.8q.2 1.7-.7 3.2L13.6 13q-2.3-1.7-6.1-2.9l-.3-.1-1-.7-1-1.2-.2-.7.1-1 1.3-3Q7.2 2 8.6 1"/><path fill="#fafafa" d="M8.6 1Q7.2 2 6.4 3.6l-1.3 3-.1 1 .1.7 1 1.2 1.1.6-5.4-.3.1-.3.2-.7q.6-.7.3-1.5V7l-.7-1.2.2-1.1Q2.3 3 3.7 1.5 4.8.5 6.3.2q1-.3 2.3.8"/><path fill="#fbfbfa" d="M1.8 9.7H.6l.9-.1.2-.3.4-.6-.1.6z"/><path fill="none" stroke="#fafafa" stroke-linecap="round" stroke-linejoin="round" stroke-opacity=".5" stroke-width="__RESOLUTION__" d="M1.5 9.6 0 9.5m1.7-3.7L2.3 7l.2.2q.3.8-.4 1.6l-.6.8m7.1-8.5Q7.3-.1 6.3 0" vector-effect="non-scaling-stroke"/></g><g id="g"><path fill="#3e3e22" d="M15.2 20.7q.3 1.6 1.7-5.2t2.7-6.9 2.2-.5 1.4-2 1 1.8l1 5.7.2 1 .1 1 1 1.6q-.1 1 1 1.2l.1.2q-.5 1.3-2 2l-3 1.5q-3.1 1.5-6.4 2.1l-3.7.8 1.8-2.4q1-1.4.8-1.9"/><path fill="#52522c" d="m25.2 13.7-1-5.8q-.5-3.3-1-1.8t-1.3 2q-1 .5-2.4.5t-2.7 6.9-1.7 5.2l.2-5q0-3.4-1.5-7.7t-6-.1-5.9 6.8v-.2l.3-1.3.9-1.2h-.4q2.7-4 7.1-8Q14.1-.3 19 .2q4.9.3 5.5 6.8zM2.4 12.4l-.1.4v.3Q0 16 1.8 14.8q-.3.9-1.8 1.7l.7-2z"/><path fill="none" stroke="#000" stroke-linecap="round" stroke-linejoin="round" stroke-opacity=".5" stroke-width="__RESOLUTION__" d="m26.5 17.2-1-1.6-.1-1-.2-1-.7-6.6Q23.9.5 19 .2q-5-.5-9.2 3.7-4.3 4-7.1 8.2L3 12m-.8 1.2L2 14.5l-.1.2Q3.3 12 7.8 7.9t6 0 1.6 7.8l-.2 5m11.6-3-.3-.5M2.4 12.4l.1-.3h.1zl-.1.4v.3m-.4 1.6q-.3.9-1.8 1.7l.7-2 1.6-2" vector-effect="non-scaling-stroke"/></g><g id="e"><path fill="#17ff1d" fill-opacity=".2" d="M7.7 2.8Q7.4 4.5 6 6.3T3 9H.6q-.8-.7-.5-2.4.2-1.7 1.7-3.5Q3 1.1 4.6.4h2.6q.9.6.5 2.4m-2-.4Q5 2 4.3 2.4T2.8 3.8t-1 1.9.4 1.3l1.3-.1q.8-.4 1.5-1.4t.9-1.8q.1-1-.3-1.4"/><path fill="#fff" d="M5.7 2.4q.4.3.2 1.3-.2.8-.9 1.8T3.5 6.9H2.2q-.5-.4-.3-1.3t.9-1.8 1.5-1.5 1.4 0"/><path fill="#17ff1d" fill-opacity=".2" d="M8.2 6.6q.4.1.4.9T8.2 9q-.3.9-.9 1.4t-1 .3q-.5-.2-.5-1t.4-1.6q.3-1 .9-1.4.5-.5 1-.2m-.4.9q-.3-.1-.6.2l-.5.7-.1.8q0 .4.2.5l.6-.1.4-.7.2-1z"/><path fill="#fff" d="M7.7 7.5 8 8l-.2.9-.5.6-.5.2q-.2-.1-.3-.5l.2-.8.5-.8q.3-.2.5-.1"/></g><g id="l"><path fill="#483d1f" d="M15.2 20.7q.3 1.6 1.7-5.2t2.7-6.9 2.2-.5 1.4-2 1 1.8l1 5.7.2 1 .1 1 1 1.6q-.1 1 1 1.2l.1.2q-.5 1.3-2 2l-3 1.5q-3.1 1.5-6.4 2.1l-3.7.8 1.8-2.4q1-1.4.8-1.9"/><path fill="#5a4f28" d="m25.2 13.7-1-5.8q-.5-3.3-1-1.8t-1.3 2q-1 .5-2.4.5t-2.7 6.9-1.7 5.2l.2-5q0-3.4-1.5-7.7t-6-.1-5.9 6.8v-.2l.3-1.3.9-1.2h-.4q2.7-4 7.1-8Q14.1-.3 19 .2q4.9.3 5.5 6.8zM2.4 12.4l-.1.4v.3Q0 16 1.8 14.8q-.3.9-1.8 1.7l.7-2z"/><path fill="none" stroke="#0f0400" stroke-linecap="round" stroke-linejoin="round" stroke-opacity=".5" stroke-width="__RESOLUTION__" d="m26.5 17.2-1-1.6-.1-1-.2-1-.7-6.6Q23.9.5 19 .2q-5-.5-9.2 3.7-4.3 4-7.1 8.2L3 12m-.8 1.2L2 14.5l-.1.2Q3.3 12 7.8 7.9t6 0 1.6 7.8l-.2 5m11.6-3-.3-.5M2.4 12.4l.1-.3h.1zl-.1.4v.3m-.4 1.6q-.3.9-1.8 1.7l.7-2 1.6-2" vector-effect="non-scaling-stroke"/></g><g id="j"><path fill="#24f01a" fill-opacity=".2" d="M7.7 2.8Q7.4 4.5 6 6.3T3 9H.6q-.8-.7-.5-2.4.2-1.7 1.7-3.5Q3 1.1 4.6.4h2.6q.9.6.5 2.4m-2-.4Q5 2 4.3 2.4T2.8 3.8t-1 1.9.4 1.3l1.3-.1q.8-.4 1.5-1.4t.9-1.8q.1-1-.3-1.4"/><path fill="#fbf0ec" d="M5.7 2.4q.4.3.2 1.3-.2.8-.9 1.8T3.5 6.9H2.2q-.5-.4-.3-1.3t.9-1.8 1.5-1.5 1.4 0"/><path fill="#24f01a" fill-opacity=".2" d="M8.2 6.6q.4.1.4.9T8.2 9q-.3.9-.9 1.4t-1 .3q-.5-.2-.5-1t.4-1.6q.3-1 .9-1.4.5-.5 1-.2m-.4.9q-.3-.1-.6.2l-.5.7-.1.8q0 .4.2.5l.6-.1.4-.7.2-1z"/><path fill="#fbf0ec" d="M7.7 7.5 8 8l-.2.9-.5.6-.5.2q-.2-.1-.3-.5l.2-.8.5-.8q.3-.2.5-.1"/></g><g id="q"><path fill="#693b17" d="M15.2 20.7q.3 1.6 1.7-5.2t2.7-6.9 2.2-.5 1.4-2 1 1.8l1 5.7.2 1 .1 1 1 1.6q-.1 1 1 1.2l.1.2q-.5 1.3-2 2l-3 1.5q-3.1 1.5-6.4 2.1l-3.7.8 1.8-2.4q1-1.4.8-1.9"/><path fill="#77491e" d="m25.2 13.7-1-5.8q-.5-3.3-1-1.8t-1.3 2q-1 .5-2.4.5t-2.7 6.9-1.7 5.2l.2-5q0-3.4-1.5-7.7t-6-.1-5.9 6.8v-.2l.3-1.3.9-1.2h-.4q2.7-4 7.1-8Q14.1-.3 19 .2q4.9.3 5.5 6.8zM2.4 12.4l-.1.4v.3Q0 16 1.8 14.8q-.3.9-1.8 1.7l.7-2z"/><path fill="none" stroke="#3e1000" stroke-linecap="round" stroke-linejoin="round" stroke-opacity=".5" stroke-width="__RESOLUTION__" d="m26.5 17.2-1-1.6-.1-1-.2-1-.7-6.6Q23.9.5 19 .2q-5-.5-9.2 3.7-4.3 4-7.1 8.2L3 12m-.8 1.2L2 14.5l-.1.2Q3.3 12 7.8 7.9t6 0 1.6 7.8l-.2 5m11.6-3-.3-.5M2.4 12.4l.1-.3h.1zl-.1.4v.3m-.4 1.6q-.3.9-1.8 1.7l.7-2 1.6-2" vector-effect="non-scaling-stroke"/></g><g id="o"><path fill="#4ec214" fill-opacity=".2" d="M7.7 2.8Q7.4 4.5 6 6.3T3 9H.6q-.8-.7-.5-2.4.2-1.7 1.7-3.5Q3 1.1 4.6.4h2.6q.9.6.5 2.4m-2-.4Q5 2 4.3 2.4T2.8 3.8t-1 1.9.4 1.3l1.3-.1q.8-.4 1.5-1.4t.9-1.8q.1-1-.3-1.4"/><path fill="#f0c2b2" d="M5.7 2.4q.4.3.2 1.3-.2.8-.9 1.8T3.5 6.9H2.2q-.5-.4-.3-1.3t.9-1.8 1.5-1.5 1.4 0"/><path fill="#4ec214" fill-opacity=".2" d="M8.2 6.6q.4.1.4.9T8.2 9q-.3.9-.9 1.4t-1 .3q-.5-.2-.5-1t.4-1.6q.3-1 .9-1.4.5-.5 1-.2m-.4.9q-.3-.1-.6.2l-.5.7-.1.8q0 .4.2.5l.6-.1.4-.7.2-1z"/><path fill="#f0c2b2" d="M7.7 7.5 8 8l-.2.9-.5.6-.5.2q-.2-.1-.3-.5l.2-.8.5-.8q.3-.2.5-.1"/></g><g id="v"><path fill="#9e360a" d="M15.2 20.7q.3 1.6 1.7-5.2t2.7-6.9 2.2-.5 1.4-2 1 1.8l1 5.7.2 1 .1 1 1 1.6q-.1 1 1 1.2l.1.2q-.5 1.3-2 2l-3 1.5q-3.1 1.5-6.4 2.1l-3.7.8 1.8-2.4q1-1.4.8-1.9"/><path fill="#a53d0e" d="m25.2 13.7-1-5.8q-.5-3.3-1-1.8t-1.3 2q-1 .5-2.4.5t-2.7 6.9-1.7 5.2l.2-5q0-3.4-1.5-7.7t-6-.1-5.9 6.8v-.2l.3-1.3.9-1.2h-.4q2.7-4 7.1-8Q14.1-.3 19 .2q4.9.3 5.5 6.8zM2.4 12.4l-.1.4v.3Q0 16 1.8 14.8q-.3.9-1.8 1.7l.7-2z"/><path fill="none" stroke="#8b2300" stroke-linecap="round" stroke-linejoin="round" stroke-opacity=".5" stroke-width="__RESOLUTION__" d="m26.5 17.2-1-1.6-.1-1-.2-1-.7-6.6Q23.9.5 19 .2q-5-.5-9.2 3.7-4.3 4-7.1 8.2L3 12m-.8 1.2L2 14.5l-.1.2Q3.3 12 7.8 7.9t6 0 1.6 7.8l-.2 5m11.6-3-.3-.5M2.4 12.4l.1-.3h.1zl-.1.4v.3m-.4 1.6q-.3.9-1.8 1.7l.7-2 1.6-2" vector-effect="non-scaling-stroke"/></g><g id="t"><path fill="#927409" fill-opacity=".2" d="M7.7 2.8Q7.4 4.5 6 6.3T3 9H.6q-.8-.7-.5-2.4.2-1.7 1.7-3.5Q3 1.1 4.6.4h2.6q.9.6.5 2.4m-2-.4Q5 2 4.3 2.4T2.8 3.8t-1 1.9.4 1.3l1.3-.1q.8-.4 1.5-1.4t.9-1.8q.1-1-.3-1.4"/><path fill="#dc7451" d="M5.7 2.4q.4.3.2 1.3-.2.8-.9 1.8T3.5 6.9H2.2q-.5-.4-.3-1.3t.9-1.8 1.5-1.5 1.4 0"/><path fill="#927409" fill-opacity=".2" d="M8.2 6.6q.4.1.4.9T8.2 9q-.3.9-.9 1.4t-1 .3q-.5-.2-.5-1t.4-1.6q.3-1 .9-1.4.5-.5 1-.2m-.4.9q-.3-.1-.6.2l-.5.7-.1.8q0 .4.2.5l.6-.1.4-.7.2-1z"/><path fill="#dc7451" d="M7.7 7.5 8 8l-.2.9-.5.6-.5.2q-.2-.1-.3-.5l.2-.8.5-.8q.3-.2.5-.1"/></g><g id="A"><path fill="#a84c25" d="M15.2 20.7q.3 1.6 1.7-5.2t2.7-6.9 2.2-.5 1.4-2 1 1.8l1 5.7.2 1 .1 1 1 1.6q-.1 1 1 1.2l.1.2q-.5 1.3-2 2l-3 1.5q-3.1 1.5-6.4 2.1l-3.7.8 1.8-2.4q1-1.4.8-1.9"/><path fill="#ae5228" d="m25.2 13.7-1-5.8q-.5-3.3-1-1.8t-1.3 2q-1 .5-2.4.5t-2.7 6.9-1.7 5.2l.2-5q0-3.4-1.5-7.7t-6-.1-5.9 6.8v-.2l.3-1.3.9-1.2h-.4q2.7-4 7.1-8Q14.1-.3 19 .2q4.9.3 5.5 6.8zM2.4 12.4l-.1.4v.3Q0 16 1.8 14.8q-.3.9-1.8 1.7l.7-2z"/><path fill="none" stroke="#973b1c" stroke-linecap="round" stroke-linejoin="round" stroke-opacity=".5" stroke-width="__RESOLUTION__" d="m26.5 17.2-1-1.6-.1-1-.2-1-.7-6.6Q23.9.5 19 .2q-5-.5-9.2 3.7-4.3 4-7.1 8.2L3 12m-.8 1.2L2 14.5l-.1.2Q3.3 12 7.8 7.9t6 0 1.6 7.8l-.2 5m11.6-3-.3-.5M2.4 12.4l.1-.3h.1zl-.1.4v.3m-.4 1.6q-.3.9-1.8 1.7l.7-2 1.6-2" vector-effect="non-scaling-stroke"/></g><g id="y"><path fill="#9d8324" fill-opacity=".2" d="M7.7 2.8Q7.4 4.5 6 6.3T3 9H.6q-.8-.7-.5-2.4.2-1.7 1.7-3.5Q3 1.1 4.6.4h2.6q.9.6.5 2.4m-2-.4Q5 2 4.3 2.4T2.8 3.8t-1 1.9.4 1.3l1.3-.1q.8-.4 1.5-1.4t.9-1.8q.1-1-.3-1.4"/><path fill="#df8364" d="M5.7 2.4q.4.3.2 1.3-.2.8-.9 1.8T3.5 6.9H2.2q-.5-.4-.3-1.3t.9-1.8 1.5-1.5 1.4 0"/><path fill="#9d8324" fill-opacity=".2" d="M8.2 6.6q.4.1.4.9T8.2 9q-.3.9-.9 1.4t-1 .3q-.5-.2-.5-1t.4-1.6q.3-1 .9-1.4.5-.5 1-.2m-.4.9q-.3-.1-.6.2l-.5.7-.1.8q0 .4.2.5l.6-.1.4-.7.2-1z"/><path fill="#df8364" d="M7.7 7.5 8 8l-.2.9-.5.6-.5.2q-.2-.1-.3-.5l.2-.8.5-.8q.3-.2.5-.1"/></g><g id="F"><path fill="#c78e75" d="M15.2 20.7q.3 1.6 1.7-5.2t2.7-6.9 2.2-.5 1.4-2 1 1.8l1 5.7.2 1 .1 1 1 1.6q-.1 1 1 1.2l.1.2q-.5 1.3-2 2l-3 1.5q-3.1 1.5-6.4 2.1l-3.7.8 1.8-2.4q1-1.4.8-1.9"/><path fill="#cb9277" d="m25.2 13.7-1-5.8q-.5-3.3-1-1.8t-1.3 2q-1 .5-2.4.5t-2.7 6.9-1.7 5.2l.2-5q0-3.4-1.5-7.7t-6-.1-5.9 6.8v-.2l.3-1.3.9-1.2h-.4q2.7-4 7.1-8Q14.1-.3 19 .2q4.9.3 5.5 6.8zM2.4 12.4l-.1.4v.3Q0 16 1.8 14.8q-.3.9-1.8 1.7l.7-2z"/><path fill="none" stroke="#bc836f" stroke-linecap="round" stroke-linejoin="round" stroke-opacity=".5" stroke-width="__RESOLUTION__" d="m26.5 17.2-1-1.6-.1-1-.2-1-.7-6.6Q23.9.5 19 .2q-5-.5-9.2 3.7-4.3 4-7.1 8.2L3 12m-.8 1.2L2 14.5l-.1.2Q3.3 12 7.8 7.9t6 0 1.6 7.8l-.2 5m11.6-3-.3-.5M2.4 12.4l.1-.3h.1zl-.1.4v.3m-.4 1.6q-.3.9-1.8 1.7l.7-2 1.6-2" vector-effect="non-scaling-stroke"/></g><g id="D"><path fill="#c0b274" fill-opacity=".2" d="M7.7 2.8Q7.4 4.5 6 6.3T3 9H.6q-.8-.7-.5-2.4.2-1.7 1.7-3.5Q3 1.1 4.6.4h2.6q.9.6.5 2.4m-2-.4Q5 2 4.3 2.4T2.8 3.8t-1 1.9.4 1.3l1.3-.1q.8-.4 1.5-1.4t.9-1.8q.1-1-.3-1.4"/><path fill="#ebb29e" d="M5.7 2.4q.4.3.2 1.3-.2.8-.9 1.8T3.5 6.9H2.2q-.5-.4-.3-1.3t.9-1.8 1.5-1.5 1.4 0"/><path fill="#c0b274" fill-opacity=".2" d="M8.2 6.6q.4.1.4.9T8.2 9q-.3.9-.9 1.4t-1 .3q-.5-.2-.5-1t.4-1.6q.3-1 .9-1.4.5-.5 1-.2m-.4.9q-.3-.1-.6.2l-.5.7-.1.8q0 .4.2.5l.6-.1.4-.7.2-1z"/><path fill="#ebb29e" d="M7.7 7.5 8 8l-.2.9-.5.6-.5.2q-.2-.1-.3-.5l.2-.8.5-.8q.3-.2.5-.1"/></g><g id="L"><path fill="#fbfbfa" d="M15.2 20.7q.3 1.6 1.7-5.2t2.7-6.9 2.2-.5 1.4-2 1 1.8l1 5.7.2 1 .1 1 1 1.6q-.1 1 1 1.2l.1.2q-.5 1.3-2 2l-3 1.5q-3.1 1.5-6.4 2.1l-3.7.8 1.8-2.4q1-1.4.8-1.9"/><path fill="#fbfbfa" d="m25.2 13.7-1-5.8q-.5-3.3-1-1.8t-1.3 2q-1 .5-2.4.5t-2.7 6.9-1.7 5.2l.2-5q0-3.4-1.5-7.7t-6-.1-5.9 6.8v-.2l.3-1.3.9-1.2h-.4q2.7-4 7.1-8Q14.1-.3 19 .2q4.9.3 5.5 6.8zM2.4 12.4l-.1.4v.3Q0 16 1.8 14.8q-.3.9-1.8 1.7l.7-2z"/><path fill="none" stroke="#fafafa" stroke-linecap="round" stroke-linejoin="round" stroke-opacity=".5" stroke-width="__RESOLUTION__" d="m26.5 17.2-1-1.6-.1-1-.2-1-.7-6.6Q23.9.5 19 .2q-5-.5-9.2 3.7-4.3 4-7.1 8.2L3 12m-.8 1.2L2 14.5l-.1.2Q3.3 12 7.8 7.9t6 0 1.6 7.8l-.2 5m11.6-3-.3-.5M2.4 12.4l.1-.3h.1zl-.1.4v.3m-.4 1.6q-.3.9-1.8 1.7l.7-2 1.6-2" vector-effect="non-scaling-stroke"/></g><g id="I"><path fill="#fafefa" fill-opacity=".2" d="M7.7 2.8Q7.4 4.5 6 6.3T3 9H.6q-.8-.7-.5-2.4.2-1.7 1.7-3.5Q3 1.1 4.6.4h2.6q.9.6.5 2.4m-2-.4Q5 2 4.3 2.4T2.8 3.8t-1 1.9.4 1.3l1.3-.1q.8-.4 1.5-1.4t.9-1.8q.1-1-.3-1.4"/><path fill="#fefefe" d="M5.7 2.4q.4.3.2 1.3-.2.8-.9 1.8T3.5 6.9H2.2q-.5-.4-.3-1.3t.9-1.8 1.5-1.5 1.4 0"/><path fill="#fafefa" fill-opacity=".2" d="M8.2 6.6q.4.1.4.9T8.2 9q-.3.9-.9 1.4t-1 .3q-.5-.2-.5-1t.4-1.6q.3-1 .9-1.4.5-.5 1-.2m-.4.9q-.3-.1-.6.2l-.5.7-.1.8q0 .4.2.5l.6-.1.4-.7.2-1z"/><path fill="#fefefe" d="M7.7 7.5 8 8l-.2.9-.5.6-.5.2q-.2-.1-.3-.5l.2-.8.5-.8q.3-.2.5-.1"/></g><g id="aX" transform="translate(25.55 12.45)"><use xlink:href="#a" width="27.9" height="27.9" transform="translate(-7.45 -2.85)scale(.6188)"/><use xlink:href="#b" width="34.7" height="28.6" transform="translate(-25.55 -12.45)scale(1.21)"/></g><g id="aW" transform="translate(16.6 12.6)"><use xlink:href="#c" width=".6" height=".1" transform="translate(-12.4 4.5)"/><use xlink:href="#d" width="17.1" height="15.3" transform="matrix(1.09 0 -.6578 1.23 -6.55 -7.8)"/><use xlink:href="#e" width="8.6" height="10.8" transform="translate(-5.7 -6.35)"/><use xlink:href="#f" width="2" height="3.9" transform="rotate(19.55 9.81 -9.01)scale(.999)"/><use xlink:href="#g" width="27.6" height="25.1" transform="translate(-11.1 -12.6)"/></g><g id="aT" transform="translate(16.6 12.6)"><use xlink:href="#h" width=".6" height=".1" transform="translate(-12.4 4.5)"/><use xlink:href="#i" width="17.1" height="15.3" transform="matrix(1.09 0 -.6578 1.23 -6.55 -7.8)"/><use xlink:href="#j" width="8.6" height="10.8" transform="translate(-5.7 -6.35)"/><use xlink:href="#k" width="2" height="3.9" transform="rotate(19.55 9.81 -9.01)scale(.999)"/><use xlink:href="#l" width="27.6" height="25.1" transform="translate(-11.1 -12.6)"/></g><g id="aQ" transform="translate(16.6 12.6)"><use xlink:href="#m" width=".6" height=".1" transform="translate(-12.4 4.5)"/><use xlink:href="#n" width="17.1" height="15.3" transform="matrix(1.09 0 -.6578 1.23 -6.55 -7.8)"/><use xlink:href="#o" width="8.6" height="10.8" transform="translate(-5.7 -6.35)"/><use xlink:href="#p" width="2" height="3.9" transform="rotate(19.55 9.81 -9.01)scale(.999)"/><use xlink:href="#q" width="27.6" height="25.1" transform="translate(-11.1 -12.6)"/></g><g id="aM" transform="translate(16.6 12.6)"><use xlink:href="#r" width=".6" height=".1" transform="translate(-12.4 4.5)"/><use xlink:href="#s" width="17.1" height="15.3" transform="matrix(1.09 0 -.6578 1.23 -6.55 -7.8)"/><use xlink:href="#t" width="8.6" height="10.8" transform="translate(-5.7 -6.35)"/><use xlink:href="#u" width="2" height="3.9" transform="rotate(19.55 9.81 -9.01)scale(.999)"/><use xlink:href="#v" width="27.6" height="25.1" transform="translate(-11.1 -12.6)"/></g><g id="aI" transform="translate(16.6 12.6)"><use xlink:href="#w" width=".6" height=".1" transform="translate(-12.4 4.5)"/><use xlink:href="#x" width="17.1" height="15.3" transform="matrix(1.09 0 -.6578 1.23 -6.55 -7.8)"/><use xlink:href="#y" width="8.6" height="10.8" transform="translate(-5.7 -6.35)"/><use xlink:href="#z" width="2" height="3.9" transform="rotate(19.55 9.81 -9.01)scale(.999)"/><use xlink:href="#A" width="27.6" height="25.1" transform="translate(-11.1 -12.6)"/></g><g id="aE" transform="translate(16.6 12.6)"><use xlink:href="#B" width=".6" height=".1" transform="translate(-12.4 4.5)"/><use xlink:href="#C" width="17.1" height="15.3" transform="matrix(1.09 0 -.6578 1.23 -6.55 -7.8)"/><use xlink:href="#D" width="8.6" height="10.8" transform="translate(-5.7 -6.35)"/><use xlink:href="#E" width="2" height="3.9" transform="rotate(19.55 9.81 -9.01)scale(.999)"/><use xlink:href="#F" width="27.6" height="25.1" transform="translate(-11.1 -12.6)"/></g><g id="aB" transform="translate(25.55 12.45)"><use xlink:href="#a" width="27.9" height="27.9" transform="translate(-7.45 -2.85)scale(.6188)"/><use xlink:href="#b" width="34.7" height="28.6" transform="translate(-17.6 -6.6)scale(.815)"/></g><g id="az" transform="translate(16.6 12.6)"><use xlink:href="#G" width=".6" height=".1" transform="translate(-12.4 4.5)"/><use xlink:href="#H" width="17.1" height="15.3" transform="matrix(1.09 0 -.6578 1.23 -6.55 -7.8)"/><use xlink:href="#I" width="8.6" height="10.8" transform="translate(-5.7 -6.35)"/><use xlink:href="#K" width="2" height="3.9" transform="rotate(19.55 9.81 -9.01)scale(.999)"/><use xlink:href="#L" width="27.6" height="25.1" transform="translate(-11.1 -12.6)"/></g><clipPath id="ax"><path d="M1 1h65v83H1z"/></clipPath><clipPath id="aC"><path d="M67 1h65v83H67z"/></clipPath><clipPath id="aG"><path d="M133 1h65v83h-65z"/></clipPath><clipPath id="aK"><path d="M199 1h65v83h-65z"/></clipPath><clipPath id="aO"><path d="M265 1h65v83h-65z"/></clipPath><clipPath id="aR"><path d="M331 1h65v83h-65z"/></clipPath><clipPath id="aU"><path d="M397 1h65v83h-65z"/></clipPath><clipPath id="aY"><path d="M463 1h65v83h-65z"/></clipPath><clipPath id="aZ"><path d="M529 1h65v83h-65z"/></clipPath><clipPath id="ba"><path d="M595 1h65v83h-65z"/></clipPath><clipPath id="bb"><path d="M661 1h65v83h-65z"/></clipPath><clipPath id="bc"><path d="M727 1h65v83h-65z"/></clipPath><clipPath id="bd"><path d="M793 1h65v83h-65z"/></clipPath><clipPath id="bf"><path d="M859 1h65v83h-65z"/></clipPath><clipPath id="bg"><path d="M925 1h65v83h-65z"/></clipPath><clipPath id="bh"><path d="M991 1h65v83h-65z"/></clipPath><clipPath id="bi"><path d="M1057 1h65v83h-65z"/></clipPath><clipPath id="bj"><path d="M1123 1h65v83h-65z"/></clipPath><clipPath id="bk"><path d="M1189 1h65v83h-65z"/></clipPath><clipPath id="bl"><path d="M1255 1h65v83h-65z"/></clipPath><clipPath id="bm"><path d="M1321 1h65v83h-65z"/></clipPath><clipPath id="bn"><path d="M1387 1h65v83h-65z"/></clipPath><clipPath id="bO"><path d="M1453 1h65v83h-65z"/></clipPath><clipPath id="bP"><path d="M1519 1h65v83h-65z"/></clipPath><clipPath id="bQ"><path d="M1585 1h65v83h-65z"/></clipPath><clipPath id="bR"><path d="M1651 1h65v83h-65z"/></clipPath><clipPath id="bS"><path d="M1717 1h65v83h-65z"/></clipPath><clipPath id="bT"><path d="M1783 1h65v83h-65z"/></clipPath><clipPath id="bU"><path d="M1849 1h65v83h-65z"/></clipPath><clipPath id="bV"><path d="M1915 1h65v83h-65z"/></clipPath><clipPath id="bW"><path d="M1981 1h65v83h-65z"/></clipPath><use xlink:href="#arr" id="af" width="22.9" height="21.6"/><use xlink:href="#M" id="b" width="34.7" height="28.6"/><use xlink:href="#N" id="a" width="27.9" height="27.9"/><use xlink:href="#O" id="f" width="2" height="3.9"/><use xlink:href="#Q" id="d" width="17.1" height="15.3"/><use xlink:href="#R" id="k" width="2" height="3.9"/><use xlink:href="#S" id="i" width="17.1" height="15.3"/><use xlink:href="#T" id="p" width="2" height="3.9"/><use xlink:href="#U" id="n" width="17.1" height="15.3"/><use xlink:href="#W" id="u" width="2" height="3.9"/><use xlink:href="#X" id="s" width="17.1" height="15.3"/><use xlink:href="#Y" id="z" width="2" height="3.9"/><use xlink:href="#Z" id="x" width="17.1" height="15.3"/><use xlink:href="#aa" id="E" width="2" height="3.9"/><use xlink:href="#ac" id="C" width="17.1" height="15.3"/><use xlink:href="#ad" id="K" width="2" height="3.9"/><use xlink:href="#ae" id="H" width="17.1" height="15.3"/><use xlink:href="#af" id="be" width="22.9" height="21.6" transform="matrix(-1 0 0 1 29.95 4.5)"/><use xlink:href="#ag" id="aV" width="53.7" height="25.4"/><use xlink:href="#ai" id="aS" width="53.7" height="25.4"/><use xlink:href="#aj" id="aP" width="53.7" height="25.4"/><use xlink:href="#b" id="aN" width="34.7" height="28.6" transform="scale(1.21)"/><use xlink:href="#ak" id="aL" width="53.7" height="25.4"/><use xlink:href="#af" id="aJ" width="22.9" height="21.6" transform="matrix(-1.19 0 0 1.19 32.1 3)"/><use xlink:href="#al" id="aH" width="53.7" height="25.4"/><use xlink:href="#af" id="aF" width="22.9" height="21.6" transform="matrix(-1.39 0 0 1.39 34.2 1.55)"/><use xlink:href="#am" id="aD" width="53.7" height="25.4"/><use xlink:href="#af" id="aA" width="22.9" height="21.6" transform="matrix(-1.58 0 0 1.58 36.35 0)"/><use xlink:href="#ao" id="ay" width="53.7" height="25.4"/><path id="N" fill="#fff" d="M9.8-10.2q3.3 3.3 4 7.7l.1 2.2q0 5.7-4.1 9.8-3.3 3.3-7.6 4l-2.2.1q-5.8 0-10-4.1-2.6-2.6-3.5-6-.5-1.8-.5-3.8 0-5.8 4-10h.2q4-4 9.8-4 3.7 0 6.6 1.7 1.7.9 3.2 2.3" transform="translate(14 14.3)"/><path id="ag" fill="url(#ap)" d="M15.5-5.4Q14.4-1.9 26.9-2q-8.2.6-7.4 7-10.8.3-11.7 5.8Q.4 8.3-4.8 12.7q-2.8-4.6-11-3-.5-5.4-8.9-6.5 3.9-4.8-2.1-6.2 6.8-1.6 6.7-5.9 15.6 5.1 18-3.8 4 5 12.6 1.7-2.1 5.3 5 5.6" transform="translate(26.85 12.7)"/><path id="c" fill="#262615" d="m-12.4 4.5.6.1z" transform="translate(12.4 -4.5)"/><path id="ai" fill="url(#aq)" d="M15.5-5.4Q14.4-1.9 26.9-2q-8.2.6-7.4 7-10.8.3-11.7 5.8Q.4 8.3-4.8 12.7q-2.8-4.6-11-3-.5-5.4-8.9-6.5 3.9-4.8-2.1-6.2 6.8-1.6 6.7-5.9 15.6 5.1 18-3.8 4 5 12.6 1.7-2.1 5.3 5 5.6" transform="translate(26.85 12.7)"/><path id="h" fill="#322713" d="m-12.4 4.5.6.1z" transform="translate(12.4 -4.5)"/><path id="aj" fill="url(#ar)" d="M15.5-5.4Q14.4-1.9 26.9-2q-8.2.6-7.4 7-10.8.3-11.7 5.8Q.4 8.3-4.8 12.7q-2.8-4.6-11-3-.5-5.4-8.9-6.5 3.9-4.8-2.1-6.2 6.8-1.6 6.7-5.9 15.6 5.1 18-3.8 4 5 12.6 1.7-2.1 5.3 5 5.6" transform="translate(26.85 12.7)"/><path id="m" fill="#582a0e" d="m-12.4 4.5.6.1z" transform="translate(12.4 -4.5)"/><path id="ak" fill="url(#at)" d="M15.5-5.4Q14.4-1.9 26.9-2q-8.2.6-7.4 7-10.8.3-11.7 5.8Q.4 8.3-4.8 12.7q-2.8-4.6-11-3-.5-5.4-8.9-6.5 3.9-4.8-2.1-6.2 6.8-1.6 6.7-5.9 15.6 5.1 18-3.8 4 5 12.6 1.7-2.1 5.3 5 5.6" transform="translate(26.85 12.7)"/><path id="r" fill="#972f06" d="m-12.4 4.5.6.1z" transform="translate(12.4 -4.5)"/><path id="al" fill="url(#au)" d="M15.5-5.4Q14.4-1.9 26.9-2q-8.2.6-7.4 7-10.8.3-11.7 5.8Q.4 8.3-4.8 12.7q-2.8-4.6-11-3-.5-5.4-8.9-6.5 3.9-4.8-2.1-6.2 6.8-1.6 6.7-5.9 15.6 5.1 18-3.8 4 5 12.6 1.7-2.1 5.3 5 5.6" transform="translate(26.85 12.7)"/><path id="w" fill="#a14521" d="m-12.4 4.5.6.1z" transform="translate(12.4 -4.5)"/><path id="am" fill="url(#av)" d="M15.5-5.4Q14.4-1.9 26.9-2q-8.2.6-7.4 7-10.8.3-11.7 5.8Q.4 8.3-4.8 12.7q-2.8-4.6-11-3-.5-5.4-8.9-6.5 3.9-4.8-2.1-6.2 6.8-1.6 6.7-5.9 15.6 5.1 18-3.8 4 5 12.6 1.7-2.1 5.3 5 5.6" transform="translate(26.85 12.7)"/><path id="B" fill="#c38a72" d="m-12.4 4.5.6.1z" transform="translate(12.4 -4.5)"/><path id="ao" fill="url(#aw)" d="M15.5-5.4Q14.4-1.9 26.9-2q-8.2.6-7.4 7-10.8.3-11.7 5.8Q.4 8.3-4.8 12.7q-2.8-4.6-11-3-.5-5.4-8.9-6.5 3.9-4.8-2.1-6.2 6.8-1.6 6.7-5.9 15.6 5.1 18-3.8 4 5 12.6 1.7-2.1 5.3 5 5.6" transform="translate(26.85 12.7)"/><path id="G" fill="#fafafa" d="m-12.4 4.5.6.1z" transform="translate(12.4 -4.5)"/><radialGradient id="ap" cx="0" cy="0" r="819.2" gradientTransform="matrix(0 -.0164 .0314 0 -1.5 -1)" gradientUnits="userSpaceOnUse" spreadMethod="pad"><stop offset=".4" stop-color="#000"/><stop offset="1" stop-color="#2b362d" stop-opacity="0"/></radialGradient><radialGradient id="aq" cx="0" cy="0" r="819.2" gradientTransform="matrix(0 -.0164 .0314 0 -1.5 -1)" gradientUnits="userSpaceOnUse" spreadMethod="pad"><stop offset=".4" stop-color="#0f0400"/><stop offset="1" stop-color="#363529" stop-opacity="0"/></radialGradient><radialGradient id="ar" cx="0" cy="0" r="819.2" gradientTransform="matrix(0 -.0164 .0314 0 -1.5 -1)" gradientUnits="userSpaceOnUse" spreadMethod="pad"><stop offset=".4" stop-color="#3e1000"/><stop offset="1" stop-color="#5c351f" stop-opacity="0"/></radialGradient><radialGradient id="at" cx="0" cy="0" r="819.2" gradientTransform="matrix(0 -.0164 .0314 0 -1.5 -1)" gradientUnits="userSpaceOnUse" spreadMethod="pad"><stop offset=".4" stop-color="#8b2300"/><stop offset="1" stop-color="#98340e" stop-opacity="0"/></radialGradient><radialGradient id="au" cx="0" cy="0" r="819.2" gradientTransform="matrix(0 -.0164 .0314 0 -1.5 -1)" gradientUnits="userSpaceOnUse" spreadMethod="pad"><stop offset=".4" stop-color="#973b1c"/><stop offset="1" stop-color="#a34a28" stop-opacity="0"/></radialGradient><radialGradient id="av" cx="0" cy="0" r="819.2" gradientTransform="matrix(0 -.0164 .0314 0 -1.5 -1)" gradientUnits="userSpaceOnUse" spreadMethod="pad"><stop offset=".4" stop-color="#bc836f"/><stop offset="1" stop-color="#c48d77" stop-opacity="0"/></radialGradient><radialGradient id="aw" cx="0" cy="0" r="819.2" gradientTransform="matrix(0 -.0164 .0314 0 -1.5 -1)" gradientUnits="userSpaceOnUse" spreadMethod="pad"><stop offset=".4" stop-color="#fafafa"/><stop offset="1" stop-color="#fafbfa" stop-opacity="0"/></radialGradient></defs><g clip-path="url(#ax)"><g transform="translate(43.85 70.7)"><use xlink:href="#ay" width="53.7" height="25.4" transform="matrix(-.8227 0 0 .8227 17.65 -7.85)"/><use xlink:href="#az" width="33.1" height="25.1" transform="matrix(-1 0 -.2944 1 21.4 -15.15)"/><use xlink:href="#aA" width="36.4" height="34.2" transform="matrix(-1 0 0 1 -6.5 -69.7)"/><use xlink:href="#aB" width="42" height="34.5" transform="translate(-24.75 -39.2)scale(.916)"/></g></g><g clip-path="url(#aC)"><g transform="translate(109.85 70.7)"><use xlink:href="#aD" width="53.7" height="25.4" transform="matrix(-.8227 0 .0912 .8268 15.95 -8.3)"/><use xlink:href="#aE" width="33.1" height="25.1" transform="matrix(-1 0 -.1779 1.0049 18.85 -15.6)"/><use xlink:href="#aF" width="36.4" height="34.2" transform="matrix(-1 0 0 1 -6.5 -69.7)"/><use xlink:href="#aB" width="42" height="34.5" transform="translate(-24.75 -39.2)scale(.916)"/></g></g><g clip-path="url(#aG)"><g transform="translate(175.85 70.7)"><use xlink:href="#aH" width="53.7" height="25.4" transform="matrix(-.8227 0 .1492 .8239 14.85 -8.5)"/><use xlink:href="#aI" width="33.1" height="25.1" transform="matrix(-1 0 -.1104 1.0019 17.3 -15.8)"/><use xlink:href="#aJ" width="36.4" height="34.2" transform="matrix(-1 0 0 1 -6.5 -69.7)"/><use xlink:href="#aB" width="42" height="34.5" transform="translate(-24.75 -39.2)scale(.916)"/></g></g><g clip-path="url(#aK)"><g transform="translate(241.85 70.7)"><use xlink:href="#aL" width="53.7" height="25.4" transform="matrix(-.8227 0 .1683 .8227 14.5 -8.6)"/><use xlink:href="#aM" width="33.1" height="25.1" transform="matrix(-1 0 -.0897 1 16.75 -15.9)"/><use xlink:href="#aN" width="42" height="34.5" transform="translate(-24.75 -39.2)scale(.916)"/></g></g><g clip-path="url(#aO)"><g transform="translate(307.85 70.7)"><use xlink:href="#aP" width="53.7" height="25.4" transform="matrix(-.8227 0 .1869 .8226 13.2 -9.25)"/><use xlink:href="#aQ" width="33.1" height="25.1" transform="matrix(-1 0 -.0621 1.0002 15.25 -16.55)"/><use xlink:href="#aN" width="42" height="34.5" transform="translate(-24.75 -39.2)scale(.916)"/></g></g><g clip-path="url(#aR)"><g transform="translate(373.85 70.7)"><use xlink:href="#aS" width="53.7" height="25.4" transform="matrix(-.8227 0 .1985 .8227 12.4 -9.6)"/><use xlink:href="#aT" width="33.1" height="25.1" transform="matrix(-1 0 -.0486 1 14.4 -16.9)"/><use xlink:href="#aN" width="42" height="34.5" transform="translate(-24.75 -39.2)scale(.916)"/></g></g><g clip-path="url(#aU)"><g transform="translate(439.85 70.7)"><use xlink:href="#aV" width="53.7" height="25.4" transform="matrix(-.8227 0 .2049 .8227 12.2 -9.75)"/><use xlink:href="#aW" width="33.1" height="25.1" transform="matrix(-1 0 -.0452 1 14.1 -17.05)"/><use xlink:href="#aX" width="42" height="34.5" transform="translate(-24.75 -39.2)scale(.916)"/></g></g><g clip-path="url(#aY)"><g transform="translate(505.85 70.7)"><use xlink:href="#aV" width="53.7" height="25.4" transform="matrix(-.805 0 .1576 .8092 11.95 -10)"/><use xlink:href="#aW" width="33.1" height="25.1" transform="matrix(-.9996 -.0223 -.0091 .9891 13 -16.9)"/><use xlink:href="#aX" width="42" height="34.5" transform="translate(-24.75 -39.2)scale(.916)"/></g></g><g clip-path="url(#aZ)"><g transform="translate(571.85 70.7)"><use xlink:href="#aV" width="53.7" height="25.4" transform="matrix(-.7894 0 .1162 .7958 11.8 -10.1)"/><use xlink:href="#aW" width="33.1" height="25.1" transform="matrix(-.9987 -.0439 .0177 .9785 12.1 -16.65)"/><use xlink:href="#aX" width="42" height="34.5" transform="translate(-24.75 -39.2)scale(.916)"/></g></g><g clip-path="url(#ba)"><g transform="translate(637.85 70.7)"><use xlink:href="#aV" width="53.7" height="25.4" transform="matrix(-.7759 0 .083 .7824 11.6 -10.25)"/><use xlink:href="#aW" width="33.1" height="25.1" transform="matrix(-.9977 -.0615 .043 .9686 11.3 -16.5)"/><use xlink:href="#aN" width="42" height="34.5" transform="translate(-24.75 -39.2)scale(.916)"/></g></g><g clip-path="url(#bb)"><g transform="translate(703.85 70.7)"><use xlink:href="#aV" width="53.7" height="25.4" transform="matrix(-.7645 0 .0575 .7699 11.4 -10.35)"/><use xlink:href="#aW" width="33.1" height="25.1" transform="matrix(-.9966 -.0751 .0638 .9597 10.65 -16.35)"/><use xlink:href="#aN" width="42" height="34.5" transform="translate(-24.75 -39.2)scale(.916)"/></g></g><g clip-path="url(#bc)"><g transform="translate(769.85 70.7)"><use xlink:href="#aV" width="53.7" height="25.4" transform="matrix(-.7552 0 .0365 .7591 11.25 -10.4)"/><use xlink:href="#aW" width="33.1" height="25.1" transform="matrix(-.9955 -.0881 .0833 .9518 10.05 -16.2)"/><use xlink:href="#aN" width="42" height="34.5" transform="translate(-24.75 -39.2)scale(.916)"/></g></g><g clip-path="url(#bd)"><g transform="translate(835.85 70.7)"><use xlink:href="#aV" width="53.7" height="25.4" transform="matrix(-.7479 0 .0198 .7504 11.15 -10.45)"/><use xlink:href="#aW" width="33.1" height="25.1" transform="matrix(-.9942 -.1003 .0956 .9457 9.6 -16.1)"/><use xlink:href="#be" width="36.4" height="34.2" transform="matrix(-1 0 0 1 -6.5 -69.7)"/></g></g><g clip-path="url(#bf)"><g transform="translate(901.85 70.7)"><use xlink:href="#aV" width="53.7" height="25.4" transform="matrix(-.7427 0 .0071 .7439 11.05 -10.45)"/><use xlink:href="#aW" width="33.1" height="25.1" transform="matrix(-.9937 -.1053 .1038 .9413 9.3 -16)"/><use xlink:href="#be" width="36.4" height="34.2" transform="matrix(-1 0 0 1 -6.5 -69.7)"/></g></g><g clip-path="url(#bg)"><g transform="translate(967.85 70.7)"><use xlink:href="#aV" width="53.7" height="25.4" transform="matrix(-.7396 0 .0006 .7399 11.05 -10.5)"/><use xlink:href="#aW" width="33.1" height="25.1" transform="matrix(-.9932 -.1095 .1112 .9384 9.1 -16.05)"/><use xlink:href="#be" width="36.4" height="34.2" transform="matrix(-1 0 0 1 -6.5 -69.7)"/></g></g><g clip-path="url(#bh)"><g transform="translate(1033.85 70.7)"><use xlink:href="#aV" width="53.7" height="25.4" transform="matrix(-.7386 0 0 .7386 11.05 -10.5)"/><use xlink:href="#aW" width="33.1" height="25.1" transform="matrix(-.9931 -.1131 .1132 .9378 9 -16)"/><use xlink:href="#be" width="36.4" height="34.2" transform="matrix(-1 0 0 1 -6.5 -69.7)"/></g></g><g clip-path="url(#bi)"><g transform="translate(1099.85 70.7)"><use xlink:href="#aV" width="53.7" height="25.4" transform="matrix(-.7351 0 0 .7351 10.95 -10.45)"/><use xlink:href="#aW" width="33.1" height="25.1" transform="matrix(-.9868 -.1092 .1031 .9327 9 -15.95)"/><use xlink:href="#be" width="36.4" height="34.2" transform="matrix(-1 0 0 1 -6.5 -69.7)"/></g></g><g clip-path="url(#bj)"><g transform="translate(1165.85 70.7)"><use xlink:href="#aV" width="53.7" height="25.4" transform="matrix(-.7247 0 0 .7247 10.6 -10.35)"/><use xlink:href="#aW" width="33.1" height="25.1" transform="matrix(-.9676 -.1071 .0811 .9173 9.05 -15.75)"/><use xlink:href="#be" width="36.4" height="34.2" transform="matrix(-1 0 0 1 -6.5 -69.7)"/></g></g><g clip-path="url(#bk)"><g transform="translate(1231.85 70.7)"><use xlink:href="#aV" width="53.7" height="25.4" transform="matrix(-.7073 0 0 .7073 10.2 -10.15)"/><use xlink:href="#aW" width="33.1" height="25.1" transform="matrix(-.9357 -.1035 .0471 .8905 8.95 -15.35)"/><use xlink:href="#be" width="36.4" height="34.2" transform="matrix(-1 0 0 1 -6.5 -69.7)"/></g></g><g clip-path="url(#bl)"><g transform="translate(1297.85 70.7)"><use xlink:href="#aV" width="53.7" height="25.4" transform="matrix(-.683 0 0 .683 9.65 -9.85)"/><use xlink:href="#aW" width="33.1" height="25.1" transform="matrix(-.8911 -.0986 .0007 .8509 8.9 -14.8)"/><use xlink:href="#be" width="36.4" height="34.2" transform="matrix(-1 0 0 1 -6.5 -69.7)"/></g></g><g clip-path="url(#bm)"><g transform="translate(1363.85 70.7)"><use xlink:href="#aV" width="53.7" height="25.4" transform="matrix(-.6517 0 0 .6517 8.8 -9.5)"/><use xlink:href="#aW" width="33.1" height="25.1" transform="matrix(-.8336 -.0923 -.049 .7966 8.65 -13.95)"/><use xlink:href="#be" width="36.4" height="34.2" transform="matrix(-1 0 0 1 -6.5 -69.7)"/></g></g><g clip-path="url(#bn)"><g transform="translate(1429.85 70.7)"><use xlink:href="#aV" width="53.7" height="25.4" transform="matrix(-.6135 0 0 .6135 7.85 -9.15)"/><use xlink:href="#aW" width="33.1" height="25.1" transform="matrix(-.7635 -.0845 -.1027 .7263 8.3 -12.9)"/><use xlink:href="#be" width="36.4" height="34.2" transform="matrix(-1 0 0 1 -6.5 -69.7)"/></g></g><g clip-path="url(#bO)"><g transform="translate(1495.85 70.7)"><use xlink:href="#aV" width="53.7" height="25.4" transform="matrix(-.5683 0 0 .5683 6.7 -8.65)"/><use xlink:href="#aW" width="33.1" height="25.1" transform="matrix(-.6805 -.0753 -.1539 .6391 7.9 -11.55)"/><use xlink:href="#be" width="36.4" height="34.2" transform="matrix(-1 0 0 1 -6.5 -69.7)"/></g></g><g clip-path="url(#bP)"><g transform="translate(1561.85 70.7)"><use xlink:href="#aV" width="53.7" height="25.4" transform="matrix(-.5162 0 0 .5162 5.35 -8.1)"/><use xlink:href="#aW" width="33.1" height="25.1" transform="matrix(-.5848 -.0647 -.1929 .5358 6.95 -10.05)"/><use xlink:href="#be" width="36.4" height="34.2" transform="matrix(-1 0 0 1 -6.5 -69.7)"/></g></g><g clip-path="url(#bQ)"><g transform="translate(1627.85 70.7)"><use xlink:href="#aV" width="53.7" height="25.4" transform="matrix(-.4571 0 0 .4571 3.85 -7.45)"/><use xlink:href="#aW" width="33.1" height="25.1" transform="matrix(-.4763 -.0543 -.2135 .4193 5.65 -8.3)"/><use xlink:href="#be" width="36.4" height="34.2" transform="matrix(-1 0 0 1 -6.5 -69.7)"/></g></g><g clip-path="url(#bR)"><g transform="translate(1693.85 70.7)"><use xlink:href="#aV" width="53.7" height="25.4" transform="matrix(-.444 0 0 .444 3.6 -7.3)"/><use xlink:href="#aW" width="33.1" height="25.1" transform="matrix(-.4633 -.0451 -.1923 .3927 5.05 -8.05)"/><use xlink:href="#be" width="36.4" height="34.2" transform="matrix(-1 0 0 1 -6.5 -69.7)"/></g></g><g clip-path="url(#bS)"><g transform="translate(1759.85 70.7)"><use xlink:href="#aV" width="53.7" height="25.4" transform="matrix(-.4048 0 0 .4048 2.8 -6.8)"/><use xlink:href="#aW" width="33.1" height="25.1" transform="matrix(-.4237 -.0245 -.1372 .3105 3.45 -6.9)"/><use xlink:href="#be" width="36.4" height="34.2" transform="matrix(-1 0 0 1 -6.5 -69.7)"/></g></g><g clip-path="url(#bT)"><g transform="translate(1825.85 70.7)"><use xlink:href="#aV" width="53.7" height="25.4" transform="matrix(-.3393 0 0 .3393 1.5 -6)"/><use xlink:href="#aW" width="33.1" height="25.1" transform="matrix(-.3558 .0017 -.0611 .1658 1.05 -4.95)"/><use xlink:href="#be" width="36.4" height="34.2" transform="matrix(-1 0 0 1 -6.5 -69.7)"/></g></g><g clip-path="url(#bU)"><g transform="translate(1891.85 70.7)"><use xlink:href="#aV" width="53.7" height="25.4" transform="matrix(-.3182 0 0 .3182 .95 -5.75)"/><use xlink:href="#aW" width="33.1" height="25.1" transform="matrix(-.3558 .0017 -.0611 .1658 1.05 -4.95)"/><use xlink:href="#be" width="36.4" height="34.2" transform="matrix(-1 0 0 1 -6.5 -69.7)"/></g></g><g clip-path="url(#bV)"><g transform="translate(1957.85 70.7)"><use xlink:href="#aV" width="53.7" height="25.4" transform="matrix(-.2548 0 0 .2548 -.75 -5)"/><use xlink:href="#aW" width="33.1" height="25.1" transform="matrix(-.3558 .0017 -.0611 .1658 1.05 -4.95)"/><use xlink:href="#be" width="36.4" height="34.2" transform="matrix(-1 0 0 1 -6.5 -69.7)"/></g></g><g clip-path="url(#bW)"><g transform="translate(2023.85 70.7)"><use xlink:href="#aV" width="53.7" height="25.4" transform="matrix(-.1491 0 0 .1491 -3.6 -3.6)"/><use xlink:href="#be" width="36.4" height="34.2" transform="matrix(-1 0 0 1 -6.5 -69.7)"/></g></g></svg>