<svg xmlns="http://www.w3.org/2000/svg" xmlns:xlink="http://www.w3.org/1999/xlink" width="1106" height="116" viewBox="0 0 1106 116"><defs><clipPath id="t"><path d="M1 1h64v114H1z"/></clipPath><clipPath id="F"><path d="M66 1h64v114H66z"/></clipPath><clipPath id="G"><path d="M131 1h64v114h-64z"/></clipPath><clipPath id="H"><path d="M196 1h64v114h-64z"/></clipPath><clipPath id="I"><path d="M261 1h64v114h-64z"/></clipPath><clipPath id="J"><path d="M326 1h64v114h-64z"/></clipPath><clipPath id="K"><path d="M391 1h64v114h-64z"/></clipPath><clipPath id="L"><path d="M456 1h64v114h-64z"/></clipPath><clipPath id="M"><path d="M521 1h64v114h-64z"/></clipPath><clipPath id="N"><path d="M586 1h64v114h-64z"/></clipPath><clipPath id="O"><path d="M651 1h64v114h-64z"/></clipPath><clipPath id="P"><path d="M716 1h64v114h-64z"/></clipPath><clipPath id="Q"><path d="M781 1h64v114h-64z"/></clipPath><clipPath id="R"><path d="M846 1h64v114h-64z"/></clipPath><clipPath id="S"><path d="M911 1h64v114h-64z"/></clipPath><clipPath id="T"><path d="M976 1h64v114h-64z"/></clipPath><clipPath id="U"><path d="M1041 1h64v114h-64z"/></clipPath><use xlink:href="#a" id="s" width="19.6" height="59.1"/><use xlink:href="#b" id="r" width="93" height="46.3"/><use xlink:href="#c" id="q" width="65.1" height="23.9"/><use xlink:href="#g" id="E" width="61.8" height="10.3"/><use xlink:href="#h" id="D" width="65.1" height="23.9"/><use xlink:href="#i" id="C" width="61.8" height="10.3"/><use xlink:href="#j" id="B" width="8.8" height="64.6"/><use xlink:href="#k" id="z" width="6.8" height="3.7"/><use xlink:href="#l" id="y" width="10.6" height="44.6"/><use xlink:href="#m" id="u" width="24.8" height="5.9"/><g id="a"><path fill="url(#n)" d="M-13.2 39.3Q-14.7 7-9.6 5.3q6.5-2 14.5-3.6.6-.7-.5 13.7L3.5 21l-6.6-.6-1.6-.1q-.2 0-.9 2.2-.8 2.6-.8 4.9 0 .9.9 2.6t.8 2.9q0 1-1.2 2.6-1.3 1.7-2.4 1.7-1.5 0-3.1-.8-.8 0-1.8 2.9" transform="translate(14 -1.15)"/><path fill="#b3a744" d="M.8 38.2q1-3 1.8-3 1.6.8 3.1.8 1.2 0 2.4-1.7 1.2-1.5 1.2-2.6t-.9-2.9q-.8-1.7-.8-2.6 0-2.3.8-4.9.7-2.2 1-2.2l1.4.1 6.7.6q-3 14.1-15.4 38.8Q1 47.2.8 38.1"/><path fill="none" stroke="#22240f" stroke-linecap="round" stroke-linejoin="round" stroke-opacity=".3" stroke-width="1" d="m17.6 19.8.8-5.6Q19.6-.2 18.9.6q-8 1.6-14.5 3.6-5 1.6-3.6 34 .3 9 1.2 20.4Q14.7 34 17.7 19.9"/></g><g id="b"><path fill="#a08e4a" d="m45 6.2-1.5 2.4q-1.7 2.7-2.4 5v.1l-.5 1.9.1 1.9h2Q32.3 23.4 20 31.9l-.1-.2q1.9-1.2 2-2.6l-3.5-2Q32.5 13.6 45 6.1"/><path fill="#9bab2e" d="M42.7 17.5h-2l-.1-1.9.4-1.9q.8-2.4 2.5-5.1L45 6.1Q50.9 2.6 56.4.5q1.8 2.1 4.2 3.3-12.2 5-19.5 9.9 17.2-8 23.7-8.6l6.7-.3-6.6 2-.7.1Q55 10.4 42.6 17.5m-24.3 9.6 3.6 2q-.1 1.4-2 2.6-2.7 1.7-11.5 5.5 5-5.4 10-10.1"/><path fill="#9b8147" d="m19.9 31.7.1.2L.5 45.8l7.8-8.5v-.1q8.9-3.8 11.6-5.5"/><path fill="#626a23" d="m64.9 6.8 6.6-2q7.3.6 21 12.3Q70.3 5.3 64.8 6.7"/><path fill="#828d27" d="M64.8 5q-6.4.7-23.7 8.7 7.3-4.8 19.5-9.9 1.9.9 4.2 1.3"/><path fill="none" stroke="#1f210d" stroke-linecap="round" stroke-linejoin="round" stroke-opacity=".3" stroke-width="1" d="M45 6.2Q32.5 13.6 18.4 27q-5 4.7-10 10.1h-.1L.5 45.9l19.5-14q12.4-8.5 22.7-14.4Q55 10.3 64.2 7l.7-.3 6.6-1.9q7.3.6 21 12.3Q70.3 5.3 64.8 6.7M56.5.5Q50.9 2.6 45 6.2"/><path fill="none" stroke="#1f210d" stroke-linecap="round" stroke-linejoin="round" stroke-opacity=".3" stroke-width="1" d="m71.5 4.8-6.7.3q-2.3-.4-4.2-1.3-2.4-1.2-4.3-3.3"/></g><g id="c"><path fill="url(#o)" d="M2-6q8-20 60.8 15.7Q9.8-8.4 2.1-6" transform="translate(1.8 13.65)"/><path fill="none" stroke="#17190a" stroke-linecap="round" stroke-linejoin="round" stroke-opacity=".3" stroke-width="1" d="M3.9 7.6q-.6 1.3-.9 2.9L.5 13.6q.3-2.1 2.5-3.1-1.3-2.2.9-2.9 8-20 60.7 15.8Q11.6 5.2 3.9 7.6"/></g><g id="g"><path fill="#a9ba32" d="M.5 6.6Q35.1-7 61.3 9.8 19.4 2 .5 6.5"/><path fill="none" stroke="#22240f" stroke-linecap="round" stroke-linejoin="round" stroke-opacity=".3" stroke-width="1" d="M.5 6.6Q19.4 2 61.3 9.8 35-7 .5 6.5"/></g><g id="h"><path fill="url(#p)" d="M2-6q8-20 60.8 15.7Q9.8-8.4 2.1-6" transform="translate(1.8 13.65)"/><path fill="none" stroke="#161709" stroke-linecap="round" stroke-linejoin="round" stroke-opacity=".3" stroke-width="1" d="M3.9 7.6q-.6 1.3-.9 2.9L.5 13.6q.3-2.1 2.5-3.1-1.3-2.2.9-2.9 8-20 60.7 15.8Q11.6 5.2 3.9 7.6"/></g><g id="i"><path fill="#768222" d="M.5 6.6Q35.1-7 61.3 9.8 19.4 2 .5 6.5"/><path fill="none" stroke="#17190a" stroke-linecap="round" stroke-linejoin="round" stroke-opacity=".3" stroke-width="1" d="M.5 6.6Q19.4 2 61.3 9.8 35-7 .5 6.5"/></g><g id="j"><path fill="#cfb65c" d="M.5 8.2q.4-11.6.9-6 .5-4.2.8 6.4t1.2 20.6l.6 5.4v.7l.6 1.9-.2 1.3-.6.5zM3.8 39l.6-.4.8 6.8q.8 6.4 3 17.3v.9l-.8.4q-.8 0-1-.7z"/><path fill="#ffe7ab" d="M.5 8.2 3.8 39l-.5.4-1.2-1-.7-2.3.3-1.5-.3-3.2Q.2 18 .4 11.8zm5.9 55Q4.8 64.4 3.9 59v-1L2 38.4l1.2 1 .5-.4z"/><path fill="none" stroke="#000" stroke-linecap="round" stroke-linejoin="round" stroke-opacity=".3" stroke-width="__RESOLUTION__" d="M4.4 38.6v-.1l.3-1.3-.6-1.9-.1-.7-.6-5.5q-1-9.9-1.2-20.5-.3-10.7-.8-6.5-.5-5.6-.9 6l-.2 3.7Q.2 18 1.5 31.4l.3 3.2-.3 1.5.7 2.2v.1l1.2 1 .5-.4zl.8 6.8q.9 6.4 3 17.3l.1-4.4.2 5.7-.2-1.3-.1.9-.8.3q-.8 0-1-.7-1.6 1.1-2.5-4.2v-1l-.5 2 .3 2.5 1.4 1.8m-3-25.9L3.9 58" vector-effect="non-scaling-stroke"/></g><g id="l"><path fill="#795200" d="m9.4 6.7.1 12.8.2 9 .4 11.7q.2 4.7-4.8 3.8l-.2-.1-.7-.2v-1.5l.3-.4q1.9-3.2 2-21.8-3.6.5-5.2-2.4v-.2L2.8.5Q4-.1 6 1.3l.7.6q2.4 1.7 2.6 4.8M5.8 42.6l-.5-.4-.5-.5.5.4z"/><path fill="#960" d="m4.4 43.7-.3-.1q-3-1-3.6-3.5l.8-19.9.1-2.6q1.7 2.9 5.3 2.4-.1 18.6-2 21.8Q3 40.3 2 40.2q.9.1 2.8 1.6l-.3.4z"/><path fill="none" stroke="#312c11" stroke-linecap="round" stroke-linejoin="round" stroke-width="1" d="m9.4 6.7.1 12.8.2 9 .4 11.7q.2 4.7-4.8 3.8l-.2-.1-.7-.2-.3-.1q-3-1-3.6-3.5"/><path fill="none" stroke="#554d1e" stroke-linecap="round" stroke-linejoin="round" stroke-width="1" d="m.5 40.2.8-20 .1-2.6v-.3L2.8.5"/><path fill="none" stroke="#312c11" stroke-linecap="round" stroke-linejoin="round" stroke-width="1" d="M4.8 41.8Q2.9 40.3 2 40.2m2.8 1.6.5.4.5.4"/><path fill="none" stroke="#000" stroke-linecap="round" stroke-linejoin="round" stroke-opacity=".8" stroke-width="1" d="M1 24.2q1.5-1.3 1.9.3"/></g><g id="A" transform="translate(7.9 12.55)"><use xlink:href="#q" width="65.1" height="23.9" transform="matrix(.4829 .282 -.3887 .5004 1.4 -1.6)"/><use xlink:href="#r" width="93" height="46.3" transform="matrix(-.2776 .1115 .0927 .3726 23.5 -12.55)"/><use xlink:href="#s" width="19.6" height="59.1" transform="matrix(-.4854 .1631 -.05 .4039 8.3 .45)"/></g><g id="w"><path fill="#795200" d="M5.7 2.4v.4q-.9 1.8-2.1 3v-.1Q1.4 4.4.5 2.5q2.8-4.9 5.2-.1"/><path fill="none" stroke="#312c11" stroke-linecap="round" stroke-linejoin="round" stroke-width="1" d="M5.7 2.4v.4q-.9 1.8-2.1 3v-.1Q1.4 4.4.5 2.5"/></g><path id="k" fill="none" stroke="#000" stroke-linecap="round" stroke-linejoin="round" stroke-opacity=".8" stroke-width="1" d="M5.8 2.7Q4.4.7 3 1.9M0 .6Q1.5-.7 1.9.9" transform="translate(.5 .5)"/><path id="m" fill="#241506" fill-opacity=".3" d="m0-3 8.8.9q3.6.9 3.6 2.1T8.8 2L0 3q-5.1 0-8.7-1-3.7-.8-3.6-2-.1-1.2 3.6-2.1z" transform="translate(12.35 2.95)"/><path id="x" fill="#554d1e" d="M9.2-4.6 7.9-8.4l1.5-.4L11-5.5l1.6-.3 1.8-2.9 1 .7-1 2.9 4.2 2.2-.5 1.6-3-.7Q6.9 2.6-1.3 3.3l.8-7.1q4 2 8.9 1.6z" transform="translate(1.3 8.8)"/><path id="v" fill="#000" d="M4.5-2.3 3.8.5l-8.3 1.9L.4-2z" transform="translate(4.5 2.3)"/><linearGradient id="n" x1="-819.2" x2="819.2" gradientTransform="matrix(.0043 -.0116 .0336 .0126 -2.25 18)" gradientUnits="userSpaceOnUse" spreadMethod="pad"><stop offset=".5" stop-color="#bbca35" stop-opacity="1"/><stop offset="1" stop-color="#89992a" stop-opacity="1"/></linearGradient><linearGradient id="o" x1="-819.2" x2="819.2" gradientTransform="matrix(.0394 0 0 .0105 31 4.85)" gradientUnits="userSpaceOnUse" spreadMethod="pad"><stop offset=".5" stop-color="#828d25" stop-opacity="1"/><stop offset="1" stop-color="#5f6a1d" stop-opacity="1"/></linearGradient><linearGradient id="p" x1="-819.2" x2="819.2" gradientTransform="matrix(.0394 0 0 .0105 31 4.85)" gradientUnits="userSpaceOnUse" spreadMethod="pad"><stop offset=".5" stop-color="#798222" stop-opacity="1"/><stop offset="1" stop-color="#58631b" stop-opacity="1"/></linearGradient></defs><g clip-path="url(#t)"><g transform="translate(22.25 111)"><use xlink:href="#u" width="24.8" height="5.9" transform="matrix(.6768 0 0 1.4218 -8.85 -4.45)"/><use xlink:href="#v" width="9" height="4.7" transform="matrix(-.2871 .4296 -1.4204 -.5356 2.4 -10.9)"/><use xlink:href="#v" width="9" height="4.7" transform="matrix(-.2096 -.7053 .6499 -.6486 2.5 -14.8)"/><use xlink:href="#w" width="6.2" height="6.3" transform="rotate(-89.327 -9.641 -5.828)scale(.9962)"/><use xlink:href="#x" width="20" height="12.1" transform="matrix(.0231 -.4235 .4406 .0266 -6.1 -25.65)"/><use xlink:href="#y" width="10.6" height="44.6" transform="matrix(.9999 -.0195 -.0619 .9653 -2.45 -53.8)"/><use xlink:href="#z" width="6.8" height="3.7" transform="matrix(1 .0508 -.0322 .9984 -3.35 -31.75)"/><use xlink:href="#A" width="40.7" height="41.3" transform="matrix(.6928 -.8343 .7169 .9267 -20.35 -75.7)"/><use xlink:href="#B" width="8.8" height="64.6" transform="matrix(.6377 .6956 -.0055 .2259 -4.65 -72.7)"/><use xlink:href="#q" width="65.1" height="23.9" transform="matrix(.3187 -.3081 .448 .4715 .95 -59.25)"/><use xlink:href="#r" width="93" height="46.3" transform="matrix(.0818 .2612 .3696 .0387 -7.7 -80.65)"/><use xlink:href="#s" width="19.6" height="59.1" transform="matrix(.1122 .4469 .3866 .1649 3.6 -64.15)"/><use xlink:href="#x" width="20" height="12.1" transform="matrix(.3767 -.2169 -.2301 -.3649 6.6 -20.2)"/><use xlink:href="#C" width="61.8" height="10.3" transform="matrix(.6687 .1213 .427 .5677 -3.05 -60.65)"/><use xlink:href="#D" width="65.1" height="23.9" transform="matrix(.5675 .3759 -.4807 .3101 -1.1 -61.45)"/><use xlink:href="#E" width="61.8" height="10.3" transform="matrix(-.2691 -.6006 -.2256 1.4222 14.75 -35.35)"/><use xlink:href="#w" width="6.2" height="6.3" transform="rotate(60.153 15.143 -7.098)scale(.9984)"/></g></g><g clip-path="url(#F)"><g transform="translate(87.25 111)"><use xlink:href="#u" width="24.8" height="5.9" transform="matrix(.6768 0 0 1.4218 -8.85 -4.45)"/><use xlink:href="#v" width="9" height="4.7" transform="matrix(-.2799 .4334 -1.4268 -.5135 2.5 -10.7)"/><use xlink:href="#v" width="9" height="4.7" transform="matrix(-.1938 -.7092 .6633 -.6326 2.25 -14.45)"/><use xlink:href="#w" width="6.2" height="6.3" transform="rotate(-85.733 -10.269 -5.52)scale(.9959)"/><use xlink:href="#x" width="20" height="12.1" transform="matrix(.0225 -.4234 .4406 .0253 -6.1 -25.3)"/><use xlink:href="#y" width="10.6" height="44.6" transform="matrix(.9998 -.0221 -.0606 .9663 -2.5 -53.6)"/><use xlink:href="#z" width="6.8" height="3.7" transform="matrix(1 .0481 -.031 .9983 -3.35 -31.45)"/><use xlink:href="#A" width="40.7" height="41.3" transform="matrix(.7038 -.8533 .6892 .9403 -19.5 -75)"/><use xlink:href="#B" width="8.8" height="64.6" transform="matrix(.6159 .7052 -.0104 .2301 -3.95 -72)"/><use xlink:href="#q" width="65.1" height="23.9" transform="matrix(.3061 -.3227 .4639 .4516 1.15 -58.4)"/><use xlink:href="#r" width="93" height="46.3" transform="matrix(.0912 .2577 .3697 .022 -8.3 -79.4)"/><use xlink:href="#s" width="19.6" height="59.1" transform="matrix(.1283 .4422 .3913 .1476 3.6 -63.45)"/><use xlink:href="#x" width="20" height="12.1" transform="matrix(.3764 -.2179 -.2305 -.3641 6.6 -19.9)"/><use xlink:href="#C" width="61.8" height="10.3" transform="matrix(.6643 .0645 .4436 .5387 -3.05 -59.45)"/><use xlink:href="#D" width="65.1" height="23.9" transform="matrix(.5746 .3318 -.4618 .3568 -1.2 -60.45)"/><use xlink:href="#E" width="61.8" height="10.3" transform="matrix(-.2892 -.586 -.1662 1.4631 15.55 -35.35)"/><use xlink:href="#w" width="6.2" height="6.3" transform="rotate(58.403 15.436 -7.042)scale(.9969)"/></g></g><g clip-path="url(#G)"><g transform="translate(152.25 111)"><use xlink:href="#u" width="24.8" height="5.9" transform="matrix(.6768 0 0 1.4218 -8.85 -4.45)"/><use xlink:href="#v" width="9" height="4.7" transform="matrix(-.2607 .4451 -1.4478 -.451 2.8 -10.1)"/><use xlink:href="#v" width="9" height="4.7" transform="matrix(-.1471 -.7203 .7011 -.5902 1.45 -13.15)"/><use xlink:href="#w" width="6.2" height="6.3" transform="matrix(.2587 -.961 .961 .2587 -4.8 -15.2)"/><use xlink:href="#x" width="20" height="12.1" transform="matrix(.0224 -.4235 .4408 .0216 -6.1 -24.6)"/><use xlink:href="#y" width="10.6" height="44.6" transform="matrix(1.0004 -.0304 -.0607 .968 -2.5 -52.95)"/><use xlink:href="#z" width="6.8" height="3.7" transform="matrix(1.0006 .0398 -.031 .9983 -3.35 -30.75)"/><use xlink:href="#A" width="40.7" height="41.3" transform="matrix(.7231 -.8816 .6462 .9575 -18.2 -73.7)"/><use xlink:href="#B" width="8.8" height="64.6" transform="matrix(.5821 .7173 -.0183 .236 -3.05 -70.8)"/><use xlink:href="#q" width="65.1" height="23.9" transform="matrix(.2879 -.3408 .4858 .4224 1.25 -57.3)"/><use xlink:href="#r" width="93" height="46.3" transform="matrix(.1044 .2517 .3694 -.0006 -9.2 -77.7)"/><use xlink:href="#s" width="19.6" height="59.1" transform="matrix(.1511 .4335 .3975 .1234 3.5 -62.55)"/><use xlink:href="#x" width="20" height="12.1" transform="matrix(.3765 -.2209 -.2305 -.362 6.6 -19.35)"/><use xlink:href="#C" width="61.8" height="10.3" transform="matrix(.6497 -.0177 .4621 .4959 -3.05 -57.65)"/><use xlink:href="#D" width="65.1" height="23.9" transform="matrix(.5777 .2674 -.4288 .4237 -1.3 -58.85)"/><use xlink:href="#E" width="61.8" height="10.3" transform="matrix(-.3146 -.5638 -.0782 1.5198 16.45 -35.25)"/><use xlink:href="#w" width="6.2" height="6.3" transform="rotate(52.886 16.51 -6.769)scale(.9967)"/></g></g><g clip-path="url(#H)"><g transform="translate(217.25 111)"><use xlink:href="#u" width="24.8" height="5.9" transform="matrix(.6768 0 0 1.4218 -8.85 -4.45)"/><use xlink:href="#v" width="9" height="4.7" transform="matrix(-.2288 .4623 -1.4758 -.3483 3.25 -9.1)"/><use xlink:href="#v" width="9" height="4.7" transform="matrix(-.0706 -.7319 .761 -.5104 .1 -11.1)"/><use xlink:href="#w" width="6.2" height="6.3" transform="rotate(-56.657 -16.927 -2.242)scale(.9943)"/><use xlink:href="#x" width="20" height="12.1" transform="matrix(.021 -.4237 .4411 .0159 -6.1 -23.45)"/><use xlink:href="#y" width="10.6" height="44.6" transform="matrix(1.0011 -.0432 -.0607 .9702 -2.5 -51.9)"/><use xlink:href="#z" width="6.8" height="3.7" transform="matrix(1.0014 .027 -.031 .9983 -3.35 -29.65)"/><use xlink:href="#A" width="40.7" height="41.3" transform="matrix(.7467 -.9212 .5916 .9763 -16.65 -71.75)"/><use xlink:href="#B" width="8.8" height="64.6" transform="matrix(.5392 .7297 -.0281 .2437 -1.9 -68.95)"/><use xlink:href="#q" width="65.1" height="23.9" transform="matrix(.2633 -.3648 .511 .3803 1.75 -55.6)"/><use xlink:href="#r" width="93" height="46.3" transform="matrix(.1206 .2424 .367 -.0321 -10.1 -75.05)"/><use xlink:href="#s" width="19.6" height="59.1" transform="matrix(.1791 .4199 .4033 .0893 3.55 -60.95)"/><use xlink:href="#x" width="20" height="12.1" transform="matrix(.3766 -.2255 -.2306 -.3588 6.65 -18.35)"/><use xlink:href="#C" width="61.8" height="10.3" transform="matrix(.6186 -.1194 .4822 .4384 -2.95 -54.8)"/><use xlink:href="#D" width="65.1" height="23.9" transform="matrix(.5735 .1853 -.3741 .5028 -1.4 -56.35)"/><use xlink:href="#E" width="61.8" height="10.3" transform="matrix(-.347 -.5312 .0513 1.5762 17.5 -34.8)"/><use xlink:href="#w" width="6.2" height="6.3" transform="rotate(43.617 18.83 -6.375)scale(.9965)"/></g></g><g clip-path="url(#I)"><g transform="translate(282.25 111)"><use xlink:href="#u" width="24.8" height="5.9" transform="matrix(.6768 0 0 1.4218 -8.85 -4.45)"/><use xlink:href="#v" width="9" height="4.7" transform="matrix(-.1813 .4829 -1.5033 -.1988 3.95 -7.65)"/><use xlink:href="#v" width="9" height="4.7" transform="matrix(.0387 -.7341 .8283 -.3916 -1.75 -8.35)"/><use xlink:href="#w" width="6.2" height="6.3" transform="rotate(-31.091 -30.076 3.35)scale(.994)"/><use xlink:href="#x" width="20" height="12.1" transform="matrix(.0218 -.4238 .4415 .0083 -6.05 -21.8)"/><use xlink:href="#y" width="10.6" height="44.6" transform="matrix(1.0021 -.062 -.0626 .9729 -2.5 -50.3)"/><use xlink:href="#z" width="6.8" height="3.7" transform="matrix(1.0022 .0096 -.0309 .9983 -3.35 -28)"/><use xlink:href="#A" width="40.7" height="41.3" transform="matrix(.7785 -.9729 .527 .9961 -14.75 -69.1)"/><use xlink:href="#B" width="8.8" height="64.6" transform="matrix(.4888 .742 -.0403 .253 -.45 -66.65)"/><use xlink:href="#q" width="65.1" height="23.9" transform="matrix(.2309 -.3901 .5403 .3261 2.3 -53.45)"/><use xlink:href="#r" width="93" height="46.3" transform="matrix(.1404 .2289 .3622 -.0696 -11.1 -71.65)"/><use xlink:href="#s" width="19.6" height="59.1" transform="matrix(.2137 .3996 .4086 .0475 3.7 -59)"/><use xlink:href="#x" width="20" height="12.1" transform="matrix(.377 -.2327 -.2315 -.3548 6.65 -17)"/><use xlink:href="#C" width="61.8" height="10.3" transform="matrix(.5631 -.233 .4995 .3683 -2.4 -51.35)"/><use xlink:href="#D" width="65.1" height="23.9" transform="matrix(.5558 .0903 -.2914 .5865 -1.1 -53.25)"/><use xlink:href="#E" width="61.8" height="10.3" transform="matrix(-.3841 -.4883 .2276 1.6221 18.95 -34.3)"/><use xlink:href="#w" width="6.2" height="6.3" transform="rotate(30.802 23.63 -6.021)scale(.9963)"/></g></g><g clip-path="url(#J)"><g transform="translate(347.25 111)"><use xlink:href="#u" width="24.8" height="5.9" transform="matrix(.6768 0 0 1.4218 -8.85 -4.45)"/><use xlink:href="#v" width="9" height="4.7" transform="matrix(-.1186 .502 -1.5164 -.0068 4.7 -5.8)"/><use xlink:href="#v" width="9" height="4.7" transform="matrix(.178 -.7124 .888 -.226 -4.05 -4.95)"/><use xlink:href="#w" width="6.2" height="6.3" transform="rotate(1.515 540.126 -207.643)scale(.995)"/><use xlink:href="#x" width="20" height="12.1" transform="matrix(.0218 -.4239 .4417 .0001 -6.05 -19.5)"/><use xlink:href="#y" width="10.6" height="44.6" transform="matrix(1.0027 -.0805 -.0627 .9735 -2.5 -48.1)"/><use xlink:href="#z" width="6.8" height="3.7" transform="matrix(1.0027 -.0089 -.031 .9983 -3.35 -25.75)"/><use xlink:href="#A" width="40.7" height="41.3" transform="matrix(.7789 -.9867 .5273 .9858 -14.7 -66.7)"/><use xlink:href="#B" width="8.8" height="64.6" transform="matrix(.4891 .7325 -.0404 .2536 -.45 -64.5)"/><use xlink:href="#q" width="65.1" height="23.9" transform="matrix(.231 -.3942 .5406 .316 2.3 -51.35)"/><use xlink:href="#r" width="93" height="46.3" transform="matrix(.1405 .2261 .3624 -.0763 -11.1 -69.25)"/><use xlink:href="#s" width="19.6" height="59.1" transform="matrix(.2138 .3954 .4088 .04 3.7 -56.9)"/><use xlink:href="#x" width="20" height="12.1" transform="matrix(.3772 -.2395 -.2316 -.3503 6.65 -14.95)"/><use xlink:href="#C" width="61.8" height="10.3" transform="matrix(.5634 -.2433 .4997 .3589 -2.4 -49.2)"/><use xlink:href="#D" width="65.1" height="23.9" transform="matrix(.5561 .0799 -.2915 .5916 -1.1 -51.05)"/><use xlink:href="#E" width="61.8" height="10.3" transform="matrix(-.3843 -.4809 .2277 1.6169 18.95 -32.5)"/><use xlink:href="#w" width="6.2" height="6.3" transform="rotate(14.07 41.533 -6.77)scale(.9967)"/></g></g><g clip-path="url(#K)"><g transform="translate(412.25 111)"><use xlink:href="#u" width="24.8" height="5.9" transform="matrix(.6768 0 0 1.4218 -8.85 -4.45)"/><use xlink:href="#v" width="9" height="4.7" transform="matrix(-.0397 .5144 -1.4984 .229 5.5 -3.5)"/><use xlink:href="#v" width="9" height="4.7" transform="matrix(.3399 -.6511 .9164 -.0132 -6.7 -.95)"/><use xlink:href="#w" width="6.2" height="6.3" transform="rotate(41.535 13.613 -9.837)scale(.9946)"/><use xlink:href="#x" width="20" height="12.1" transform="matrix(.0224 -.4242 .4417 -.0118 -6.05 -16.9)"/><use xlink:href="#y" width="10.6" height="44.6" transform="matrix(1.0028 -.1074 -.0639 .9745 -2.45 -45.55)"/><use xlink:href="#z" width="6.8" height="3.7" transform="matrix(1.0028 -.0359 -.0322 .9984 -3.35 -23.25)"/><use xlink:href="#A" width="40.7" height="41.3" transform="matrix(.7802 -1.007 .5261 .9708 -14.65 -63.8)"/><use xlink:href="#B" width="8.8" height="64.6" transform="matrix(.4882 .7188 -.0407 .2545 -.4 -62)"/><use xlink:href="#q" width="65.1" height="23.9" transform="matrix(.2316 -.4001 .5402 .3012 2.35 -48.9)"/><use xlink:href="#r" width="93" height="46.3" transform="matrix(.1402 .2222 .3625 -.086 -11 -66.5)"/><use xlink:href="#s" width="19.6" height="59.1" transform="matrix(.2133 .3893 .4087 .0289 3.75 -54.5)"/><use xlink:href="#x" width="20" height="12.1" transform="matrix(.3775 -.2495 -.2312 -.3438 6.65 -12.65)"/><use xlink:href="#C" width="61.8" height="10.3" transform="matrix(.5637 -.2583 .4993 .3452 -2.35 -46.65)"/><use xlink:href="#D" width="65.1" height="23.9" transform="matrix(.556 .0649 -.2923 .599 -1.1 -48.55)"/><use xlink:href="#E" width="61.8" height="10.3" transform="matrix(-.3837 -.4702 .2257 1.6096 18.95 -30.55)"/><use xlink:href="#w" width="6.2" height="6.3" transform="rotate(-5.97 -63.739 5.33)scale(.9971)"/></g></g><g clip-path="url(#L)"><g transform="translate(477.25 111)"><use xlink:href="#u" width="24.8" height="5.9" transform="matrix(.6768 0 0 1.4218 -8.85 -4.45)"/><use xlink:href="#v" width="9" height="4.7" transform="matrix(-.5145 -.0498 -.1932 -1.506 8.3 -6.15)"/><use xlink:href="#v" width="9" height="4.7" transform="matrix(.66 .323 .033 .9173 -9.3 -14.5)"/><use xlink:href="#w" width="6.2" height="6.3" transform="rotate(81.98 8.33 -8.602)scale(.9956)"/><use xlink:href="#x" width="20" height="12.1" transform="matrix(.0231 -.4233 .442 .0325 -6.1 -22.45)"/><use xlink:href="#y" width="10.6" height="44.6" transform="matrix(1.0032 -.0101 -.064 .9639 -2.45 -50.55)"/><use xlink:href="#z" width="6.8" height="3.7" transform="matrix(1.0033 .0616 -.0309 .9983 -3.35 -28.55)"/><use xlink:href="#A" width="40.7" height="41.3" transform="matrix(.6864 -.8141 .7454 .922 -21.25 -72.9)"/><use xlink:href="#B" width="8.8" height="64.6" transform="matrix(.6605 .6932 -.0012 .2226 -5.25 -69.75)"/><use xlink:href="#q" width="65.1" height="23.9" transform="matrix(.3284 -.2956 .4376 .4892 .9 -56.1)"/><use xlink:href="#r" width="93" height="46.3" transform="matrix(.0753 .2645 .3703 .0532 -7.2 -77.8)"/><use xlink:href="#s" width="19.6" height="59.1" transform="matrix(.1008 .4514 .384 .1802 3.75 -60.85)"/><use xlink:href="#x" width="20" height="12.1" transform="matrix(.3779 -.2139 -.2322 -.3678 6.6 -16.9)"/><use xlink:href="#C" width="61.8" height="10.3" transform="matrix(.6723 .1728 .4173 .5942 -3.1 -58.2)"/><use xlink:href="#D" width="65.1" height="23.9" transform="matrix(.5638 .4161 -.493 .2678 -1.15 -58.8)"/><use xlink:href="#E" width="61.8" height="10.3" transform="matrix(-.257 -.6141 -.2628 1.3857 14.3 -31.75)"/><use xlink:href="#w" width="6.2" height="6.3" transform="rotate(-57.161 -9.006 -3.895)scale(.997)"/></g></g><g clip-path="url(#M)"><g transform="translate(542.25 111)"><use xlink:href="#u" width="24.8" height="5.9" transform="matrix(.6768 0 0 1.4218 -8.85 -4.45)"/><use xlink:href="#v" width="9" height="4.7" transform="matrix(-.2552 -.4496 1.1168 -1.0287 6.35 -10.95)"/><use xlink:href="#v" width="9" height="4.7" transform="matrix(.1348 .7236 -.7121 .5786 -7.15 -19.8)"/><use xlink:href="#w" width="6.2" height="6.3" transform="rotate(106.06 5.973 -8.976)scale(.9962)"/><use xlink:href="#x" width="20" height="12.1" transform="matrix(.0226 -.4228 .4402 .0566 -6.1 -25.85)"/><use xlink:href="#y" width="10.6" height="44.6" transform="matrix(.9989 .0486 -.0638 .9621 -2.45 -53.85)"/><use xlink:href="#z" width="6.8" height="3.7" transform="matrix(.9991 .119 -.0309 .9983 -3.35 -31.8)"/><use xlink:href="#A" width="40.7" height="41.3" transform="matrix(.6827 -.7799 .735 .9691 -20.9 -77.25)"/><use xlink:href="#B" width="8.8" height="64.6" transform="matrix(.6517 .7343 -.002 .2237 -5.05 -73.2)"/><use xlink:href="#q" width="65.1" height="23.9" transform="matrix(.3251 -.2793 .4383 .5122 .95 -59.1)"/><use xlink:href="#r" width="93" height="46.3" transform="matrix(.0764 .2687 .3689 .0721 -7.35 -81.3)"/><use xlink:href="#s" width="19.6" height="59.1" transform="matrix(.1029 .4572 .3832 .2 3.65 -63.8)"/><use xlink:href="#x" width="20" height="12.1" transform="matrix(.3761 -.1918 -.2303 -.3814 6.6 -19.55)"/><use xlink:href="#C" width="61.8" height="10.3" transform="matrix(.669 .2003 .4178 .6133 -2.95 -61.3)"/><use xlink:href="#D" width="65.1" height="23.9" transform="matrix(.5625 .4403 -.4886 .2493 -1.05 -61.85)"/><use xlink:href="#E" width="61.8" height="10.3" transform="matrix(-.2586 -.627 -.2539 1.3812 14.45 -34.05)"/><use xlink:href="#w" width="6.2" height="6.3" transform="rotate(-87.952 -5.174 -5.993)scale(.9991)"/></g></g><g clip-path="url(#N)"><g transform="translate(607.25 111)"><use xlink:href="#u" width="24.8" height="5.9" transform="matrix(.6768 0 0 1.4218 -8.85 -4.45)"/><use xlink:href="#v" width="9" height="4.7" transform="matrix(-.1024 -.5077 1.3845 -.6311 5.85 -13.4)"/><use xlink:href="#v" width="9" height="4.7" transform="matrix(-.0903 .7312 -.8562 .3347 -6.45 -20.65)"/><use xlink:href="#w" width="6.2" height="6.3" transform="rotate(114.26 5.136 -9.155)scale(.9974)"/><use xlink:href="#x" width="20" height="12.1" transform="matrix(.0231 -.4226 .4393 .0662 -6.1 -26.95)"/><use xlink:href="#y" width="10.6" height="44.6" transform="matrix(.997 .0703 -.0618 .9626 -2.4 -54.9)"/><use xlink:href="#z" width="6.8" height="3.7" transform="matrix(.9971 .1408 -.0322 .9984 -3.35 -32.85)"/><use xlink:href="#A" width="40.7" height="41.3" transform="matrix(.6909 -.7745 .7147 .9938 -20.35 -78.45)"/><use xlink:href="#B" width="8.8" height="64.6" transform="matrix(.6357 .7549 -.0055 .226 -4.65 -74)"/><use xlink:href="#q" width="65.1" height="23.9" transform="matrix(.3178 -.2804 .4466 .5131 1.05 -59.9)"/><use xlink:href="#r" width="93" height="46.3" transform="matrix(.0816 .2693 .3685 .072 -7.6 -82.15)"/><use xlink:href="#s" width="19.6" height="59.1" transform="matrix(.1118 .4582 .3854 .2001 3.7 -64.65)"/><use xlink:href="#x" width="20" height="12.1" transform="matrix(.3757 -.1837 -.2294 -.3866 6.55 -20.35)"/><use xlink:href="#C" width="61.8" height="10.3" transform="matrix(.6668 .1817 .4258 .6077 -3 -61.8)"/><use xlink:href="#D" width="65.1" height="23.9" transform="matrix(.5658 .428 -.4793 .2678 -1.1 -62.45)"/><use xlink:href="#E" width="61.8" height="10.3" transform="matrix(-.2683 -.6265 -.2251 1.4061 14.8 -34.8)"/><use xlink:href="#w" width="6.2" height="6.3" transform="rotate(-98.051 -4.04 -6.622)scale(.9996)"/></g></g><g clip-path="url(#O)"><g transform="translate(672.25 111)"><use xlink:href="#u" width="24.8" height="5.9" transform="matrix(.6768 0 0 1.4218 -8.85 -4.45)"/><use xlink:href="#v" width="9" height="4.7" transform="matrix(-.0812 -.5112 1.4082 -.571 5.55 -13.1)"/><use xlink:href="#v" width="9" height="4.7" transform="matrix(-.0451 .7351 -.8332 .3852 -6.7 -19.9)"/><use xlink:href="#w" width="6.2" height="6.3" transform="rotate(112.09 5.35 -9.079)scale(.9961)"/><use xlink:href="#x" width="20" height="12.1" transform="matrix(.0225 -.4227 .4396 .0624 -6.05 -26.65)"/><use xlink:href="#y" width="10.6" height="44.6" transform="matrix(.9976 .0618 -.0605 .9638 -2.45 -54.7)"/><use xlink:href="#z" width="6.8" height="3.7" transform="matrix(.9978 .1323 -.0309 .9983 -3.3 -32.55)"/><use xlink:href="#A" width="40.7" height="41.3" transform="matrix(.7023 -.7963 .6876 1.0007 -19.45 -77.5)"/><use xlink:href="#B" width="8.8" height="64.6" transform="matrix(.6145 .7589 -.0104 .2298 -3.9 -73.2)"/><use xlink:href="#q" width="65.1" height="23.9" transform="matrix(.3055 -.2979 .4628 .4918 1.25 -59.25)"/><use xlink:href="#r" width="93" height="46.3" transform="matrix(.091 .2661 .3689 .0531 -8.25 -81.1)"/><use xlink:href="#s" width="19.6" height="59.1" transform="matrix(.128 .4541 .3904 .1809 3.65 -64.1)"/><use xlink:href="#x" width="20" height="12.1" transform="matrix(.3755 -.1868 -.2299 -.3845 6.65 -20.15)"/><use xlink:href="#C" width="61.8" height="10.3" transform="matrix(.6628 .1205 .4426 .5774 -3 -60.7)"/><use xlink:href="#D" width="65.1" height="23.9" transform="matrix(.5733 .381 -.4608 .3189 -1.15 -61.5)"/><use xlink:href="#E" width="61.8" height="10.3" transform="matrix(-.2885 -.6118 -.1659 1.453 15.55 -34.9)"/><use xlink:href="#w" width="6.2" height="6.3" transform="rotate(-95.312 -4.37 -6.452)scale(.9992)"/></g></g><g clip-path="url(#P)"><g transform="translate(737.25 111)"><use xlink:href="#u" width="24.8" height="5.9" transform="matrix(.6768 0 0 1.4218 -8.85 -4.45)"/><use xlink:href="#v" width="9" height="4.7" transform="matrix(-.0183 -.5173 1.4672 -.3948 4.65 -12.3)"/><use xlink:href="#v" width="9" height="4.7" transform="matrix(.0897 .7304 -.7482 .5307 -7.1 -17.5)"/><use xlink:href="#w" width="6.2" height="6.3" transform="rotate(106.06 5.948 -8.995)scale(.9962)"/><use xlink:href="#x" width="20" height="12.1" transform="matrix(.0224 -.4228 .4405 .0546 -6.05 -25.8)"/><use xlink:href="#y" width="10.6" height="44.6" transform="matrix(.9998 .0444 -.0606 .9657 -2.45 -53.9)"/><use xlink:href="#z" width="6.8" height="3.7" transform="matrix(1 .1148 -.0309 .9983 -3.3 -31.75)"/><use xlink:href="#A" width="40.7" height="41.3" transform="matrix(.7226 -.8295 .6458 1.0081 -18.15 -75.85)"/><use xlink:href="#B" width="8.8" height="64.6" transform="matrix(.5817 .7625 -.0183 .2352 -3 -71.8)"/><use xlink:href="#q" width="65.1" height="23.9" transform="matrix(.2877 -.3201 .4855 .4598 1.3 -58)"/><use xlink:href="#r" width="93" height="46.3" transform="matrix(.1044 .2601 .3692 .027 -9.1 -79.25)"/><use xlink:href="#s" width="19.6" height="59.1" transform="matrix(.151 .4458 .3973 .1534 3.55 -63.05)"/><use xlink:href="#x" width="20" height="12.1" transform="matrix(.3763 -.1932 -.2304 -.3801 6.65 -19.55)"/><use xlink:href="#C" width="61.8" height="10.3" transform="matrix(.6493 .0309 .4619 .5316 -3 -58.55)"/><use xlink:href="#D" width="65.1" height="23.9" transform="matrix(.5773 .3113 -.4285 .3926 -1.25 -59.65)"/><use xlink:href="#E" width="61.8" height="10.3" transform="matrix(-.3144 -.5886 -.0782 1.5175 16.5 -34.65)"/><use xlink:href="#w" width="6.2" height="6.3" transform="rotate(-87.952 -5.147 -5.917)scale(.9991)"/></g></g><g clip-path="url(#Q)"><g transform="translate(802.25 111)"><use xlink:href="#u" width="24.8" height="5.9" transform="matrix(.6768 0 0 1.4218 -8.85 -4.45)"/><use xlink:href="#v" width="9" height="4.7" transform="matrix(.0854 -.5099 1.5165 -.0932 3.25 -11.1)"/><use xlink:href="#v" width="9" height="4.7" transform="matrix(.3056 .6691 -.5532 .7325 -8.05 -13.25)"/><use xlink:href="#w" width="6.2" height="6.3" transform="rotate(96.02 6.97 -8.75)scale(.9963)"/><use xlink:href="#x" width="20" height="12.1" transform="matrix(.021 -.4232 .4417 .0427 -6.05 -24.4)"/><use xlink:href="#y" width="10.6" height="44.6" transform="matrix(1.0025 .0174 -.0607 .9683 -2.45 -52.65)"/><use xlink:href="#z" width="6.8" height="3.7" transform="matrix(1.0027 .0878 -.0309 .9983 -3.3 -30.4)"/><use xlink:href="#A" width="40.7" height="41.3" transform="matrix(.7477 -.8777 .5925 1.0141 -16.65 -73.35)"/><use xlink:href="#B" width="8.8" height="64.6" transform="matrix(.54 .7638 -.0282 .2424 -1.85 -69.7)"/><use xlink:href="#q" width="65.1" height="23.9" transform="matrix(.2636 -.3495 .5117 .412 1.8 -56.1)"/><use xlink:href="#r" width="93" height="46.3" transform="matrix(.1208 .2501 .3675 -.0099 -10.05 -76.3)"/><use xlink:href="#s" width="19.6" height="59.1" transform="matrix(.1794 .4316 .4038 .114 3.6 -61.4)"/><use xlink:href="#x" width="20" height="12.1" transform="matrix(.3772 -.2031 -.231 -.3735 6.7 -18.5)"/><use xlink:href="#C" width="61.8" height="10.3" transform="matrix(.6195 -.0821 .4829 .4685 -2.85 -55.7)"/><use xlink:href="#D" width="65.1" height="23.9" transform="matrix(.5743 .2204 -.3745 .4811 -1.25 -57.1)"/><use xlink:href="#E" width="61.8" height="10.3" transform="matrix(-.3475 -.5533 .0515 1.5823 17.65 -34.4)"/><use xlink:href="#w" width="6.2" height="6.3" transform="rotate(-75.18 -6.7 -5.003)scale(.9981)"/></g></g><g clip-path="url(#R)"><g transform="translate(867.25 111)"><use xlink:href="#u" width="24.8" height="5.9" transform="matrix(.6768 0 0 1.4218 -8.85 -4.45)"/><use xlink:href="#v" width="9" height="4.7" transform="matrix(.2247 -.4647 1.4808 .3301 1.65 -9.4)"/><use xlink:href="#v" width="9" height="4.7" transform="matrix(.3897 .6222 -.4521 .7969 -8.05 -12.5)"/><use xlink:href="#w" width="6.2" height="6.3" transform="rotate(81.98 8.355 -8.573)scale(.9956)"/><use xlink:href="#x" width="20" height="12.1" transform="matrix(.0218 -.4235 .443 .0237 -6.1 -22.4)"/><use xlink:href="#y" width="10.6" height="44.6" transform="matrix(1.0056 -.0271 -.0627 .9718 -2.55 -50.85)"/><use xlink:href="#z" width="6.8" height="3.7" transform="matrix(1.0056 .0446 -.0309 .9983 -3.35 -28.5)"/><use xlink:href="#A" width="40.7" height="41.3" transform="matrix(.7811 -.9468 .5289 1.0155 -14.8 -70.05)"/><use xlink:href="#B" width="8.8" height="64.6" transform="matrix(.4906 .7598 -.0404 .2519 -.45 -67.15)"/><use xlink:href="#q" width="65.1" height="23.9" transform="matrix(.2317 -.3825 .5422 .3453 2.35 -53.8)"/><use xlink:href="#r" width="93" height="46.3" transform="matrix(.141 .234 .3635 -.0571 -11.05 -72.45)"/><use xlink:href="#s" width="19.6" height="59.1" transform="matrix(.2144 .4074 .41 .0618 3.7 -59.3)"/><use xlink:href="#x" width="20" height="12.1" transform="matrix(.3783 -.2198 -.2324 -.3632 6.7 -17.1)"/><use xlink:href="#C" width="61.8" height="10.3" transform="matrix(.565 -.2137 .5013 .3862 -2.45 -51.9)"/><use xlink:href="#D" width="65.1" height="23.9" transform="matrix(.5577 .1097 -.2923 .577 -1.1 -53.7)"/><use xlink:href="#E" width="61.8" height="10.3" transform="matrix(-.3855 -.5022 .2286 1.6317 19.05 -34.05)"/><use xlink:href="#w" width="6.2" height="6.3" transform="rotate(-57.161 -9.136 -3.549)scale(.997)"/></g></g><g clip-path="url(#S)"><g transform="translate(932.25 111)"><use xlink:href="#u" width="24.8" height="5.9" transform="matrix(.6768 0 0 1.4218 -8.85 -4.45)"/><use xlink:href="#v" width="9" height="4.7" transform="matrix(.376 -.3524 1.2611 .8378 -.05 -7.55)"/><use xlink:href="#v" width="9" height="4.7" transform="matrix(.5962 .4266 -.1124 .9089 -8 -9.85)"/><use xlink:href="#w" width="6.2" height="6.3" transform="rotate(63.902 10.289 -8.588)scale(.994)"/><use xlink:href="#x" width="20" height="12.1" transform="matrix(.0218 -.4239 .4434 .0018 -6.1 -19.8)"/><use xlink:href="#y" width="10.6" height="44.6" transform="matrix(1.0066 -.0766 -.0628 .9734 -2.55 -48.35)"/><use xlink:href="#z" width="6.8" height="3.7" transform="matrix(1.0066 -.005 -.0309 .9983 -3.35 -26.05)"/><use xlink:href="#A" width="40.7" height="41.3" transform="matrix(.7818 -.9838 .5295 .988 -14.8 -67)"/><use xlink:href="#B" width="8.8" height="64.6" transform="matrix(.4911 .7345 -.0405 .2535 -.5 -64.7)"/><use xlink:href="#q" width="65.1" height="23.9" transform="matrix(.2319 -.3933 .5427 .3181 2.3 -51.6)"/><use xlink:href="#r" width="93" height="46.3" transform="matrix(.1411 .2267 .3638 -.0749 -11.05 -69.6)"/><use xlink:href="#s" width="19.6" height="59.1" transform="matrix(.2147 .3963 .4104 .0416 3.7 -57.15)"/><use xlink:href="#x" width="20" height="12.1" transform="matrix(.3786 -.2381 -.2326 -.3512 6.7 -15.2)"/><use xlink:href="#C" width="61.8" height="10.3" transform="matrix(.5655 -.2411 .5018 .3609 -2.45 -49.45)"/><use xlink:href="#D" width="65.1" height="23.9" transform="matrix(.5582 .0821 -.2926 .5905 -1.1 -51.35)"/><use xlink:href="#E" width="61.8" height="10.3" transform="matrix(-.3858 -.4825 .2289 1.618 19 -32.65)"/><use xlink:href="#w" width="6.2" height="6.3" transform="rotate(-34.086 -14.275 -1.164)scale(.9964)"/></g></g><g clip-path="url(#T)"><g transform="translate(997.25 111)"><use xlink:href="#u" width="24.8" height="5.9" transform="matrix(.6768 0 0 1.4218 -8.85 -4.45)"/><use xlink:href="#v" width="9" height="4.7" transform="matrix(.4911 -.1561 .7737 1.3014 -1.2 -5.15)"/><use xlink:href="#v" width="9" height="4.7" transform="matrix(.7321 -.0224 .4589 .7904 -7 -4.25)"/><use xlink:href="#w" width="6.2" height="6.3" transform="rotate(41.535 13.613 -9.837)scale(.9946)"/><use xlink:href="#x" width="20" height="12.1" transform="matrix(.0216 -.4245 .4423 -.0276 -6.05 -16.65)"/><use xlink:href="#y" width="10.6" height="44.6" transform="matrix(1.0038 -.1416 -.062 .9733 -2.45 -45.35)"/><use xlink:href="#z" width="6.8" height="3.7" transform="matrix(1.004 -.0716 -.0322 .9984 -3.35 -23.1)"/><use xlink:href="#A" width="40.7" height="41.3" transform="matrix(.7497 -.992 .592 .9153 -16.65 -63.75)"/><use xlink:href="#B" width="8.8" height="64.6" transform="matrix(.5398 .6745 -.0285 .2457 -1.8 -62.4)"/><use xlink:href="#q" width="65.1" height="23.9" transform="matrix(.2644 -.3896 .5118 .3289 1.85 -49.45)"/><use xlink:href="#r" width="93" height="46.3" transform="matrix(.1206 .2298 .368 -.0681 -10 -67.75)"/><use xlink:href="#s" width="19.6" height="59.1" transform="matrix(.1791 .401 .4042 .0494 3.65 -55.05)"/><use xlink:href="#x" width="20" height="12.1" transform="matrix(.3779 -.2619 -.2308 -.3351 6.65 -12.75)"/><use xlink:href="#C" width="61.8" height="10.3" transform="matrix(.6204 -.1799 .4829 .3896 -2.85 -48.25)"/><use xlink:href="#D" width="65.1" height="23.9" transform="matrix(.5748 .1283 -.3756 .5381 -1.25 -50)"/><use xlink:href="#E" width="61.8" height="10.3" transform="matrix(-.3473 -.4955 .0496 1.5665 17.65 -30.35)"/><use xlink:href="#w" width="6.2" height="6.3" transform="rotate(-5.97 -63.51 10.15)scale(.9971)"/></g></g><g clip-path="url(#U)"><g transform="translate(1062.25 111)"><use xlink:href="#u" width="24.8" height="5.9" transform="matrix(.6768 0 0 1.4218 -8.85 -4.45)"/><use xlink:href="#v" width="9" height="4.7" transform="matrix(.4911 -.1561 .7737 1.3014 -1.2 -5.15)"/><use xlink:href="#v" width="9" height="4.7" transform="matrix(.7321 -.0224 .4589 .7904 -7 -4.25)"/><use xlink:href="#w" width="6.2" height="6.3" transform="rotate(41.535 13.613 -9.837)scale(.9946)"/><use xlink:href="#x" width="20" height="12.1" transform="matrix(.0224 -.4245 .4422 -.0275 -6.05 -16.7)"/><use xlink:href="#y" width="10.6" height="44.6" transform="matrix(1.004 -.1431 -.0639 .9756 -2.45 -45.45)"/><use xlink:href="#z" width="6.8" height="3.7" transform="matrix(1.004 -.0716 -.0322 .9984 -3.35 -23.1)"/><use xlink:href="#A" width="40.7" height="41.3" transform="matrix(.7811 -1.0336 .5267 .9509 -14.7 -63.2)"/><use xlink:href="#B" width="8.8" height="64.6" transform="matrix(.4888 .7005 -.0407 .2557 -.4 -61.9)"/><use xlink:href="#q" width="65.1" height="23.9" transform="matrix(.2318 -.4079 .5409 .2816 2.35 -48.95)"/><use xlink:href="#r" width="93" height="46.3" transform="matrix(.1404 .2169 .363 -.0988 -11.05 -66)"/><use xlink:href="#s" width="19.6" height="59.1" transform="matrix(.2135 .3813 .4092 .0143 3.75 -54.6)"/><use xlink:href="#x" width="20" height="12.1" transform="matrix(.378 -.2627 -.2315 -.3351 6.65 -12.85)"/><use xlink:href="#C" width="61.8" height="10.3" transform="matrix(.5644 -.2781 .4999 .327 -2.35 -46.55)"/><use xlink:href="#D" width="65.1" height="23.9" transform="matrix(.5566 .045 -.2926 .6087 -1.1 -48.5)"/><use xlink:href="#E" width="61.8" height="10.3" transform="matrix(-.3842 -.456 .226 1.5997 19 -31.2)"/><use xlink:href="#w" width="6.2" height="6.3" transform="rotate(-5.97 -63.51 10.15)scale(.9971)"/></g></g></svg>