<svg xmlns="http://www.w3.org/2000/svg" xmlns:xlink="http://www.w3.org/1999/xlink" width="3661" height="62" viewBox="0 0 3661 62"><defs><clipPath id="c"><path d="M1 1h60v60H1z"/></clipPath><clipPath id="f"><path d="M62 1h60v60H62z"/></clipPath><clipPath id="g"><path d="M123 1h60v60h-60z"/></clipPath><clipPath id="h"><path d="M184 1h60v60h-60z"/></clipPath><clipPath id="i"><path d="M245 1h60v60h-60z"/></clipPath><clipPath id="j"><path d="M306 1h60v60h-60z"/></clipPath><clipPath id="k"><path d="M367 1h60v60h-60z"/></clipPath><clipPath id="l"><path d="M428 1h60v60h-60z"/></clipPath><clipPath id="m"><path d="M489 1h60v60h-60z"/></clipPath><clipPath id="n"><path d="M550 1h60v60h-60z"/></clipPath><clipPath id="o"><path d="M611 1h60v60h-60z"/></clipPath><clipPath id="p"><path d="M672 1h60v60h-60z"/></clipPath><clipPath id="q"><path d="M733 1h60v60h-60z"/></clipPath><clipPath id="r"><path d="M794 1h60v60h-60z"/></clipPath><clipPath id="s"><path d="M855 1h60v60h-60z"/></clipPath><clipPath id="t"><path d="M916 1h60v60h-60z"/></clipPath><clipPath id="u"><path d="M977 1h60v60h-60z"/></clipPath><clipPath id="v"><path d="M1038 1h60v60h-60z"/></clipPath><clipPath id="w"><path d="M1099 1h60v60h-60z"/></clipPath><clipPath id="y"><path d="M1160 1h60v60h-60z"/></clipPath><clipPath id="A"><path d="M1221 1h60v60h-60z"/></clipPath><clipPath id="C"><path d="M1282 1h60v60h-60z"/></clipPath><clipPath id="E"><path d="M1343 1h60v60h-60z"/></clipPath><clipPath id="F"><path d="M1404 1h60v60h-60z"/></clipPath><clipPath id="G"><path d="M1465 1h60v60h-60z"/></clipPath><clipPath id="H"><path d="M1526 1h60v60h-60z"/></clipPath><clipPath id="I"><path d="M1587 1h60v60h-60z"/></clipPath><clipPath id="J"><path d="M1648 1h60v60h-60z"/></clipPath><clipPath id="K"><path d="M1709 1h60v60h-60z"/></clipPath><clipPath id="L"><path d="M1770 1h60v60h-60z"/></clipPath><clipPath id="M"><path d="M1831 1h60v60h-60z"/></clipPath><clipPath id="N"><path d="M1892 1h60v60h-60z"/></clipPath><clipPath id="O"><path d="M1953 1h60v60h-60z"/></clipPath><clipPath id="P"><path d="M2014 1h60v60h-60z"/></clipPath><clipPath id="Q"><path d="M2075 1h60v60h-60z"/></clipPath><clipPath id="R"><path d="M2136 1h60v60h-60z"/></clipPath><clipPath id="S"><path d="M2197 1h60v60h-60z"/></clipPath><clipPath id="T"><path d="M2258 1h60v60h-60z"/></clipPath><clipPath id="U"><path d="M2319 1h60v60h-60z"/></clipPath><clipPath id="V"><path d="M2380 1h60v60h-60z"/></clipPath><clipPath id="W"><path d="M2441 1h60v60h-60z"/></clipPath><clipPath id="X"><path d="M2502 1h60v60h-60z"/></clipPath><clipPath id="Y"><path d="M2563 1h60v60h-60z"/></clipPath><clipPath id="Z"><path d="M2624 1h60v60h-60z"/></clipPath><clipPath id="aa"><path d="M2685 1h60v60h-60z"/></clipPath><clipPath id="ab"><path d="M2746 1h60v60h-60z"/></clipPath><clipPath id="ac"><path d="M2807 1h60v60h-60z"/></clipPath><clipPath id="ad"><path d="M2868 1h60v60h-60z"/></clipPath><clipPath id="ae"><path d="M2929 1h60v60h-60z"/></clipPath><clipPath id="af"><path d="M2990 1h60v60h-60z"/></clipPath><clipPath id="ag"><path d="M3051 1h60v60h-60z"/></clipPath><clipPath id="ah"><path d="M3112 1h60v60h-60z"/></clipPath><clipPath id="ai"><path d="M3173 1h60v60h-60z"/></clipPath><clipPath id="aj"><path d="M3234 1h60v60h-60z"/></clipPath><clipPath id="ak"><path d="M3295 1h60v60h-60z"/></clipPath><clipPath id="al"><path d="M3356 1h60v60h-60z"/></clipPath><clipPath id="am"><path d="M3417 1h60v60h-60z"/></clipPath><clipPath id="an"><path d="M3478 1h60v60h-60z"/></clipPath><clipPath id="ao"><path d="M3539 1h60v60h-60z"/></clipPath><clipPath id="ap"><path d="M3600 1h60v60h-60z"/></clipPath><path id="b" fill="#382c16" d="M5.8-1.9Q7.9-1.4 8-.5 8 .3 5.9 1 3.8 1.8.7 2l-5.2-.4Q-6.7 1.2-6.7.3q-.1-.8 2-1.6 2.2-.8 5.2-.9z" transform="translate(6.75 2.25)"/><path id="D" fill="#afd8ed" fill-opacity=".3" d="M23.6-39.4q8.8 8.7 8.9 21.2Q32.4-5.8 23.6 3q-8.7 8.8-21.1 8.8T-18.8 3q-8.7-8.8-8.7-21.2t8.7-21.2q8.8-8.8 21.3-8.8t21.1 8.8" transform="translate(27.55 48.2)"/><path id="B" fill="#afd8ed" fill-opacity=".4" d="M-23-19.8q0 10.3 7.4 17.5Q-8.3 5 1.9 5t17.7-7.3q7.2-7.2 7.3-17.5t-7.3-17.7-17.7-7.3-17.6 7.3-7.3 17.7" transform="translate(22.95 44.8)"/><path id="z" fill="#afd9ed" fill-opacity=".6" d="M-18.3-21.5q0 8.1 5.7 14 5.9 5.8 14.1 5.8t14-5.8 5.9-14q-.1-8.3-5.9-14.1t-14-5.8-14 5.8q-5.9 5.8-5.9 14" transform="translate(18.35 41.4)"/><path id="x" fill="#afdaed" fill-opacity=".7" d="M-13.7-23.2q0 6 4.2 10.4Q-5-8.5 1.2-8.5q6 0 10.4-4.3 4.3-4.3 4.3-10.4t-4.3-10.5Q7.2-38 1-38t-10.5 4.3-4.3 10.5" transform="translate(13.75 38.05)"/><use xlink:href="#a" id="e" width="8.3" height="14.3"/><use xlink:href="#b" id="d" width="14.7" height="4.3"/><g id="a"><path fill="#607782" d="M5.9 9.1q.2 1.3-.3 2.2-.3.8-1 .8T3 11.3q-.6-1-.9-2.2Q2 7.9 2.3 7t1.1-.9T5 7t1 2.1"/><path fill="#afdfed" fill-opacity=".8" d="M1.3.5 1.2.3V.1q0-.2 1.5.7 1.7 1.3 2.2 2.6l2.6 4q1.3 2.5.5 4.8-2 2.4-3.8 2l-1.6-.7-.2-.1-1-2Q.4 10 .8 8q.7-2.5.9-5.5L1.4.8z"/><path fill="#607982" fill-opacity=".8" d="m1.4.8.4 1.7Q1.6 5.5 1 8q-.5 2.1.4 3.4l1 2-1.2-1.3Q-.2 10.5 0 9.5q-.2-.6.7-4.2.8-3.1.6-4.4"/><path fill="none" stroke="#3b5d78" stroke-linecap="round" stroke-linejoin="round" stroke-opacity=".6" stroke-width="__RESOLUTION__" d="m2.7 13.5 1.5.7q1.8.4 3.8-2 .9-2.2-.5-4.7L5 3.4Q4.4 2 2.7.8 1.2-.2 1 0l.1.3v.2m.2.2q.2 1.4-.6 4.5-1 3.6-.7 4.2-.3 1.1 1 2.8l1.4 1.2" vector-effect="non-scaling-stroke"/><path fill="#d2e9f4" fill-opacity=".7" d="M2.6 11.7q-.2-.3.1-1.5t.8-1.3q.8-.2 1.3 1.3.5 1.8 0 2.3H3.7z"/><path fill="none" stroke="#3a5b78" stroke-linecap="round" stroke-linejoin="round" stroke-opacity=".6" stroke-width="__RESOLUTION__" d="m2.6 11.7 1 .9 1.2-.1q.5-.5 0-2.3Q4.3 8.8 3.5 9q-.4 0-.8 1.3t-.1 1.5" vector-effect="non-scaling-stroke"/><path fill="#fff" d="M4.6 10.8q0 .2-.2.3H4l-.2-.3v-.6l.2-.3h.4l.2.3z"/><path fill="#e8f3fa" fill-opacity=".8" d="m2.5 2.6-.3-1.2.3-.4.6.4.7 1.2q.3.5.2 1t-.2.4L3 3.7zm3.2 5.6Q5 7.7 4.7 7t-.2-1.3q0-.8.5-.8.3-.2.6.6t1 1.5q.6.7.8 2.4t-.5.4z"/><path fill="#d2e9f4" fill-opacity=".7" d="M6.2 10.1q0-1.3.3-1.5.4-.4 1 .8.5 1.4.3 2-.2.5-.6.5t-.8-.4q-.2-.2-.2-1.4"/><path fill="none" stroke="#3a5978" stroke-linecap="round" stroke-linejoin="round" stroke-opacity=".6" stroke-width="__RESOLUTION__" d="M6.2 10.1q0 1.2.2 1.4.4.4.8.4t.6-.5-.3-2q-.6-1.2-1-.8-.3.2-.3 1.5" vector-effect="non-scaling-stroke"/><path fill="#fff" d="M7.3 10.1v.4H7l-.3-.4v-.8q0-.2.2 0l.2.3z"/></g></defs><g clip-path="url(#c)"><g transform="translate(28.55 49.2)"><use xlink:href="#d" width="14.7" height="4.3" transform="matrix(-.64 0 0 .64 4.3 -1.4)"/><use xlink:href="#e" width="8.3" height="14.3" transform="translate(-4.7 -14)"/></g></g><g clip-path="url(#f)"><g transform="translate(89.55 49.2)"><use xlink:href="#d" width="14.7" height="4.3" transform="matrix(-.64 0 0 .64 4.3 -1.4)"/><use xlink:href="#e" width="8.3" height="14.3" transform="matrix(1.0202 0 -.0175 .9723 -4.6 -13.65)"/></g></g><g clip-path="url(#g)"><g transform="translate(150.55 49.2)"><use xlink:href="#d" width="14.7" height="4.3" transform="matrix(-.64 0 0 .64 4.3 -1.4)"/><use xlink:href="#e" width="8.3" height="14.3" transform="matrix(1.0404 0 -.0372 .9443 -4.4 -13.3)"/></g></g><g clip-path="url(#h)"><g transform="translate(211.55 49.2)"><use xlink:href="#d" width="14.7" height="4.3" transform="matrix(-.64 0 0 .64 4.3 -1.4)"/><use xlink:href="#e" width="8.3" height="14.3" transform="matrix(1.0606 0 -.0526 .916 -4.35 -12.9)"/></g></g><g clip-path="url(#i)"><g transform="translate(272.55 49.2)"><use xlink:href="#d" width="14.7" height="4.3" transform="matrix(-.64 0 0 .64 4.3 -1.4)"/><use xlink:href="#e" width="8.3" height="14.3" transform="matrix(1.0808 0 -.0699 .8873 -4.2 -12.55)"/></g></g><g clip-path="url(#j)"><g transform="translate(333.55 49.2)"><use xlink:href="#d" width="14.7" height="4.3" transform="matrix(-.64 0 0 .64 4.3 -1.4)"/><use xlink:href="#e" width="8.3" height="14.3" transform="matrix(1.101 0 -.0833 .8586 -4.15 -12.2)"/></g></g><g clip-path="url(#k)"><g transform="translate(394.55 49.2)"><use xlink:href="#d" width="14.7" height="4.3" transform="matrix(-.64 0 0 .64 4.3 -1.4)"/><use xlink:href="#e" width="8.3" height="14.3" transform="matrix(1.1212 0 -.0987 .8296 -4.05 -11.8)"/></g></g><g clip-path="url(#l)"><g transform="translate(455.55 49.2)"><use xlink:href="#d" width="14.7" height="4.3" transform="matrix(-.64 0 0 .64 4.3 -1.4)"/><use xlink:href="#e" width="8.3" height="14.3" transform="matrix(1.1279 0 -.1013 .8198 -4 -11.7)"/></g></g><g clip-path="url(#m)"><g transform="translate(516.55 49.2)"><use xlink:href="#d" width="14.7" height="4.3" transform="matrix(-.64 0 0 .64 4.3 -1.4)"/><use xlink:href="#e" width="8.3" height="14.3" transform="matrix(1.1347 0 -.1069 .8099 -3.95 -11.5)"/></g></g><g clip-path="url(#n)"><g transform="translate(577.55 49.2)"><use xlink:href="#d" width="14.7" height="4.3" transform="matrix(-.64 0 0 .64 4.3 -1.4)"/><use xlink:href="#e" width="8.3" height="14.3" transform="matrix(1.1414 0 -.1097 .8003 -3.95 -11.45)"/></g></g><g clip-path="url(#o)"><g transform="translate(638.55 49.2)"><use xlink:href="#d" width="14.7" height="4.3" transform="matrix(-.64 0 0 .64 4.3 -1.4)"/><use xlink:href="#e" width="8.3" height="14.3" transform="matrix(1.1481 0 -.115 .7904 -3.9 -11.3)"/></g></g><g clip-path="url(#p)"><g transform="translate(699.55 49.2)"><use xlink:href="#d" width="14.7" height="4.3" transform="matrix(-.64 0 0 .64 4.3 -1.4)"/><use xlink:href="#e" width="8.3" height="14.3" transform="matrix(1.1549 0 -.1176 .7808 -3.9 -11.2)"/></g></g><g clip-path="url(#q)"><g transform="translate(760.55 49.2)"><use xlink:href="#d" width="14.7" height="4.3" transform="matrix(-.64 0 0 .64 4.3 -1.4)"/><use xlink:href="#e" width="8.3" height="14.3" transform="matrix(1.1616 0 -.1226 .7708 -3.9 -11)"/></g></g><g clip-path="url(#r)"><g transform="translate(821.55 49.2)"><use xlink:href="#d" width="14.7" height="4.3" transform="matrix(-.64 0 0 .64 4.3 -1.4)"/><use xlink:href="#e" width="8.3" height="14.3" transform="matrix(1.1683 0 -.1275 .7608 -3.85 -10.95)"/></g></g><g clip-path="url(#s)"><g transform="translate(882.55 49.2)"><use xlink:href="#d" width="14.7" height="4.3" transform="matrix(-.64 0 0 .64 4.3 -1.4)"/><use xlink:href="#e" width="8.3" height="14.3" transform="matrix(1.1751 0 -.1297 .7512 -3.85 -10.8)"/></g></g><g clip-path="url(#t)"><g transform="translate(943.55 49.2)"><use xlink:href="#d" width="14.7" height="4.3" transform="matrix(-.64 0 0 .64 4.3 -1.4)"/><use xlink:href="#e" width="8.3" height="14.3" transform="matrix(1.1818 0 -.1348 .7414 -3.9 -10.7)"/></g></g><g clip-path="url(#u)"><g transform="translate(1004.55 49.2)"><use xlink:href="#d" width="14.7" height="4.3" transform="matrix(-.64 0 0 .64 4.3 -1.4)"/><use xlink:href="#e" width="8.3" height="14.3" transform="matrix(1.1212 0 -.11 .8285 -4 -16.5)"/></g></g><g clip-path="url(#v)"><g transform="translate(1065.55 49.2)"><use xlink:href="#d" width="14.7" height="4.3" transform="matrix(-.64 0 0 .64 4.3 -1.4)"/><use xlink:href="#e" width="8.3" height="14.3" transform="matrix(1.0606 0 -.0808 .9147 -4.1 -22.35)"/></g></g><g clip-path="url(#w)"><g transform="translate(1126.55 49.2)"><use xlink:href="#d" width="14.7" height="4.3" transform="matrix(-.64 0 0 .64 4.3 -1.4)"/><use xlink:href="#e" width="8.3" height="14.3" transform="matrix(1 0 -.0456 1 -4.35 -28.15)"/><use xlink:href="#x" width="29.6" height="29.6" transform="translate(-13.75 -38.05)"/></g></g><g clip-path="url(#y)"><g transform="translate(1187.55 49.2)"><use xlink:href="#d" width="14.7" height="4.3" transform="matrix(-.64 0 0 .64 4.3 -1.4)"/><use xlink:href="#e" width="8.3" height="14.3" transform="matrix(1 0 -.043 .9744 -4.4 -28.25)"/><use xlink:href="#z" width="39.7" height="39.7" transform="translate(-18.35 -41.4)"/></g></g><g clip-path="url(#A)"><g transform="translate(1248.55 49.2)"><use xlink:href="#d" width="14.7" height="4.3" transform="matrix(-.64 0 0 .64 4.3 -1.4)"/><use xlink:href="#e" width="8.3" height="14.3" transform="matrix(1 0 -.0419 .949 -4.4 -28.3)"/><use xlink:href="#B" width="49.9" height="49.8" transform="translate(-22.95 -44.8)"/></g></g><g clip-path="url(#C)"><g transform="translate(1309.55 49.2)"><use xlink:href="#d" width="14.7" height="4.3" transform="matrix(-.64 0 0 .64 4.3 -1.4)"/><use xlink:href="#e" width="8.3" height="14.3" transform="matrix(1 0 -.0408 .9235 -4.4 -28.45)"/><use xlink:href="#D" width="60" height="60" transform="translate(-27.55 -48.2)"/></g></g><g clip-path="url(#E)"><g transform="translate(1370.55 49.2)"><use xlink:href="#d" width="14.7" height="4.3" transform="matrix(-.64 0 0 .64 4.3 -1.4)"/><use xlink:href="#e" width="8.3" height="14.3" transform="matrix(1 0 -.0397 .898 -4.4 -28.55)"/><use xlink:href="#D" width="60" height="60" transform="translate(-27.55 -48.2)"/></g></g><g clip-path="url(#F)"><g transform="translate(1431.55 49.2)"><use xlink:href="#d" width="14.7" height="4.3" transform="matrix(-.64 0 0 .64 4.3 -1.4)"/><use xlink:href="#e" width="8.3" height="14.3" transform="matrix(1 0 -.0385 .8725 -4.4 -28.65)"/><use xlink:href="#D" width="60" height="60" transform="translate(-27.55 -48.2)"/></g></g><g clip-path="url(#G)"><g transform="translate(1492.55 49.2)"><use xlink:href="#d" width="14.7" height="4.3" transform="matrix(-.64 0 0 .64 4.3 -1.4)"/><use xlink:href="#e" width="8.3" height="14.3" transform="matrix(1 0 -.0374 .8471 -4.4 -28.75)"/></g></g><g clip-path="url(#H)"><g transform="translate(1553.55 49.2)"><use xlink:href="#d" width="14.7" height="4.3" transform="matrix(-.64 0 0 .64 4.3 -1.4)"/><use xlink:href="#e" width="8.3" height="14.3" transform="matrix(1 0 -.0363 .8216 -4.4 -28.8)"/></g></g><g clip-path="url(#I)"><g transform="translate(1614.55 49.2)"><use xlink:href="#d" width="14.7" height="4.3" transform="matrix(-.64 0 0 .64 4.3 -1.4)"/><use xlink:href="#e" width="8.3" height="14.3" transform="matrix(1 0 -.0352 .7961 -4.4 -28.95)"/></g></g><g clip-path="url(#J)"><g transform="translate(1675.55 49.2)"><use xlink:href="#d" width="14.7" height="4.3" transform="matrix(-.64 0 0 .64 4.3 -1.4)"/><use xlink:href="#e" width="8.3" height="14.3" transform="matrix(1 0 -.0352 .7708 -4.4 -29.05)"/></g></g><g clip-path="url(#K)"><g transform="translate(1736.55 49.2)"><use xlink:href="#d" width="14.7" height="4.3" transform="matrix(-.64 0 0 .64 4.3 -1.4)"/><use xlink:href="#e" width="8.3" height="14.3" transform="matrix(1 0 -.0373 .847 -4.35 -28.45)"/></g></g><g clip-path="url(#L)"><g transform="translate(1797.55 49.2)"><use xlink:href="#d" width="14.7" height="4.3" transform="matrix(-.64 0 0 .64 4.3 -1.4)"/><use xlink:href="#e" width="8.3" height="14.3" transform="matrix(1 0 -.0406 .9234 -4.35 -27.9)"/></g></g><g clip-path="url(#M)"><g transform="translate(1858.55 49.2)"><use xlink:href="#d" width="14.7" height="4.3" transform="matrix(-.64 0 0 .64 4.3 -1.4)"/><use xlink:href="#e" width="8.3" height="14.3" transform="matrix(1 0 -.0442 .9999 -4.35 -27.25)"/></g></g><g clip-path="url(#N)"><g transform="translate(1919.55 49.2)"><use xlink:href="#d" width="14.7" height="4.3" transform="matrix(-.64 0 0 .64 4.3 -1.4)"/><use xlink:href="#e" width="8.3" height="14.3" transform="matrix(.9876 0 -.0443 1.0106 -4.25 -27.1)"/></g></g><g clip-path="url(#O)"><g transform="translate(1980.55 49.2)"><use xlink:href="#d" width="14.7" height="4.3" transform="matrix(-.64 0 0 .64 4.3 -1.4)"/><use xlink:href="#e" width="8.3" height="14.3" transform="matrix(.9751 0 -.0449 1.0214 -4.15 -26.85)"/></g></g><g clip-path="url(#P)"><g transform="translate(2041.55 49.2)"><use xlink:href="#d" width="14.7" height="4.3" transform="matrix(-.64 0 0 .64 4.3 -1.4)"/><use xlink:href="#e" width="8.3" height="14.3" transform="matrix(.9627 0 -.0454 1.0322 -4.1 -26.7)"/></g></g><g clip-path="url(#Q)"><g transform="translate(2102.55 49.2)"><use xlink:href="#d" width="14.7" height="4.3" transform="matrix(-.64 0 0 .64 4.3 -1.4)"/><use xlink:href="#e" width="8.3" height="14.3" transform="matrix(.9502 0 -.0459 1.043 -4.1 -26.6)"/></g></g><g clip-path="url(#R)"><g transform="translate(2163.55 49.2)"><use xlink:href="#d" width="14.7" height="4.3" transform="matrix(-.64 0 0 .64 4.3 -1.4)"/><use xlink:href="#e" width="8.3" height="14.3" transform="matrix(.9378 0 -.0465 1.0538 -4.05 -26.5)"/></g></g><g clip-path="url(#S)"><g transform="translate(2224.55 49.2)"><use xlink:href="#d" width="14.7" height="4.3" transform="matrix(-.64 0 0 .64 4.3 -1.4)"/><use xlink:href="#e" width="8.3" height="14.3" transform="matrix(.9254 0 -.0486 1.0646 -3.95 -26.35)"/></g></g><g clip-path="url(#T)"><g transform="translate(2285.55 49.2)"><use xlink:href="#d" width="14.7" height="4.3" transform="matrix(-.64 0 0 .64 4.3 -1.4)"/><use xlink:href="#e" width="8.3" height="14.3" transform="matrix(.9502 0 -.1582 .9657 -2.65 -21)"/></g></g><g clip-path="url(#U)"><g transform="translate(2346.55 49.2)"><use xlink:href="#d" width="14.7" height="4.3" transform="matrix(-.64 0 0 .64 4.3 -1.4)"/><use xlink:href="#e" width="8.3" height="14.3" transform="matrix(.9751 0 -.2469 .8568 -1.6 -15.7)"/></g></g><g clip-path="url(#V)"><g transform="translate(2407.55 49.2)"><use xlink:href="#d" width="14.7" height="4.3" transform="matrix(-.64 0 0 .64 4.3 -1.4)"/><use xlink:href="#e" width="8.3" height="14.3" transform="matrix(1 0 -.3158 .7414 -.9 -10.2)"/></g></g><g clip-path="url(#W)"><g transform="translate(2468.55 49.2)"><use xlink:href="#d" width="14.7" height="4.3" transform="matrix(-.64 0 0 .64 4.3 -1.4)"/><use xlink:href="#e" width="8.3" height="14.3" transform="matrix(1 0 -.1966 .85 -2.4 -11.5)"/></g></g><g clip-path="url(#X)"><g transform="translate(2529.55 49.2)"><use xlink:href="#d" width="14.7" height="4.3" transform="matrix(-.64 0 0 .64 4.3 -1.4)"/><use xlink:href="#e" width="8.3" height="14.3" transform="matrix(1 0 -.0495 .9387 -4.3 -12.65)"/></g></g><g clip-path="url(#Y)"><g transform="translate(2590.55 49.2)"><use xlink:href="#d" width="14.7" height="4.3" transform="matrix(-.64 0 0 .64 4.3 -1.4)"/><use xlink:href="#e" width="8.3" height="14.3" transform="matrix(1 0 .1217 1 -6.5 -13.5)"/></g></g><g clip-path="url(#Z)"><g transform="translate(2651.55 49.2)"><use xlink:href="#d" width="14.7" height="4.3" transform="matrix(-.64 0 0 .64 4.3 -1.4)"/><use xlink:href="#e" width="8.3" height="14.3" transform="matrix(1 0 .032 1.02 -5.4 -13.75)"/></g></g><g clip-path="url(#aa)"><g transform="translate(2712.55 49.2)"><use xlink:href="#d" width="14.7" height="4.3" transform="matrix(-.64 0 0 .64 4.3 -1.4)"/><use xlink:href="#e" width="8.3" height="14.3" transform="matrix(1 0 -.0544 1.0323 -4.3 -13.9)"/></g></g><g clip-path="url(#ab)"><g transform="translate(2773.55 49.2)"><use xlink:href="#d" width="14.7" height="4.3" transform="matrix(-.64 0 0 .64 4.3 -1.4)"/><use xlink:href="#e" width="8.3" height="14.3" transform="matrix(1 0 -.146 1.0364 -3.1 -13.9)"/></g></g><g clip-path="url(#ac)"><g transform="translate(2834.55 49.2)"><use xlink:href="#d" width="14.7" height="4.3" transform="matrix(-.64 0 0 .64 4.3 -1.4)"/><use xlink:href="#e" width="8.3" height="14.3" transform="matrix(1 0 -.2388 1.0324 -1.9 -13.85)"/></g></g><g clip-path="url(#ad)"><g transform="translate(2895.55 49.2)"><use xlink:href="#d" width="14.7" height="4.3" transform="matrix(-.64 0 0 .64 4.3 -1.4)"/><use xlink:href="#e" width="8.3" height="14.3" transform="matrix(1 0 -.3321 1.0199 -.75 -13.75)"/></g></g><g clip-path="url(#ae)"><g transform="translate(2956.55 49.2)"><use xlink:href="#d" width="14.7" height="4.3" transform="matrix(-.64 0 0 .64 4.3 -1.4)"/><use xlink:href="#e" width="8.3" height="14.3" transform="matrix(1 0 -.4259 1 .5 -13.5)"/></g></g><g clip-path="url(#af)"><g transform="translate(3017.55 49.2)"><use xlink:href="#d" width="14.7" height="4.3" transform="matrix(-.64 0 0 .64 4.3 -1.4)"/><use xlink:href="#e" width="8.3" height="14.3" transform="matrix(1 0 -.3282 1.0215 -.75 -13.8)"/></g></g><g clip-path="url(#ag)"><g transform="translate(3078.55 49.2)"><use xlink:href="#d" width="14.7" height="4.3" transform="matrix(-.64 0 0 .64 4.3 -1.4)"/><use xlink:href="#e" width="8.3" height="14.3" transform="matrix(1 0 -.2343 1.0341 -1.9 -13.9)"/></g></g><g clip-path="url(#ah)"><g transform="translate(3139.55 49.2)"><use xlink:href="#d" width="14.7" height="4.3" transform="matrix(-.64 0 0 .64 4.3 -1.4)"/><use xlink:href="#e" width="8.3" height="14.3" transform="matrix(1 0 -.1374 1.0386 -3.15 -14)"/></g></g><g clip-path="url(#ai)"><g transform="translate(3200.55 49.2)"><use xlink:href="#d" width="14.7" height="4.3" transform="matrix(-.64 0 0 .64 4.3 -1.4)"/><use xlink:href="#e" width="8.3" height="14.3" transform="matrix(1 0 -.0417 1.0342 -4.35 -13.95)"/></g></g><g clip-path="url(#aj)"><g transform="translate(3261.55 49.2)"><use xlink:href="#d" width="14.7" height="4.3" transform="matrix(-.64 0 0 .64 4.3 -1.4)"/><use xlink:href="#e" width="8.3" height="14.3" transform="matrix(1 0 .0453 1.0211 -5.45 -13.75)"/></g></g><g clip-path="url(#ak)"><g transform="translate(3322.55 49.2)"><use xlink:href="#d" width="14.7" height="4.3" transform="matrix(-.64 0 0 .64 4.3 -1.4)"/><use xlink:href="#e" width="8.3" height="14.3" transform="matrix(1 0 .1369 1 -6.65 -13.5)"/></g></g><g clip-path="url(#al)"><g transform="translate(3383.55 49.2)"><use xlink:href="#d" width="14.7" height="4.3" transform="matrix(-.64 0 0 .64 4.3 -1.4)"/><use xlink:href="#e" width="8.3" height="14.3" transform="matrix(1 0 .1108 1.0013 -6.25 -13.6)"/></g></g><g clip-path="url(#am)"><g transform="translate(3444.55 49.2)"><use xlink:href="#d" width="14.7" height="4.3" transform="matrix(-.64 0 0 .64 4.3 -1.4)"/><use xlink:href="#e" width="8.3" height="14.3" transform="matrix(1 0 .0886 1.002 -6 -13.7)"/></g></g><g clip-path="url(#an)"><g transform="translate(3505.55 49.2)"><use xlink:href="#d" width="14.7" height="4.3" transform="matrix(-.64 0 0 .64 4.3 -1.4)"/><use xlink:href="#e" width="8.3" height="14.3" transform="matrix(1 0 .0663 1.0022 -5.65 -13.8)"/></g></g><g clip-path="url(#ao)"><g transform="translate(3566.55 49.2)"><use xlink:href="#d" width="14.7" height="4.3" transform="matrix(-.64 0 0 .64 4.3 -1.4)"/><use xlink:href="#e" width="8.3" height="14.3" transform="matrix(1 0 .0442 1.002 -5.3 -13.9)"/></g></g><g clip-path="url(#ap)"><g transform="translate(3627.55 49.2)"><use xlink:href="#d" width="14.7" height="4.3" transform="matrix(-.64 0 0 .64 4.3 -1.4)"/><use xlink:href="#e" width="8.3" height="14.3" transform="matrix(1 0 .0221 1.0012 -5.1 -13.9)"/></g></g></svg>