<?xml version="1.0"?>
<svg xmlns="http://www.w3.org/2000/svg" xmlns:xlink="http://www.w3.org/1999/xlink" width="15.7px" height="15.7px"><g transform="matrix(1, 0, 0, 1, 0, 0)"><use xlink:href="#object-0" width="15.7" height="15.7" transform="matrix(1, 0, 0, 1, 0, 0)"/></g><defs><g transform="matrix(1, 0, 0, 1, 0, 0)" id="object-0"><path fill-rule="evenodd" fill="#000000" stroke="none" d="M13.95 4.5L14.35 5.3L14.35 1.3L1.1 1.3L1.1 11.35L1.95 12.3L2.75 12.7Q4.7 14 8.05 11.85Q10.05 9.7 10.3 6.7Q11.25 3.6 13.95 4.5M12.75 9.15L12.5 8.6L12 8.4L11.45 8.6L11.25 9.15L11.45 9.65L12 9.9L12.5 9.65L12.75 9.15M4.35 9.2L3.8 8.95L3.6 8.45L3.8 7.9Q4.05 7.7 4.35 7.7L4.85 7.9L5.1 8.45L4.85 8.95L4.35 9.2M0.5 15.15L0.5 0.65L15 0.65L15 15.15L0.5 15.15"/><path fill-rule="evenodd" fill="#e3e3e3" stroke="none" d="M2.75 12.7L1.95 12.3L1.1 11.35L1.1 1.3L14.35 1.3L14.35 5.3L13.95 4.5Q13.05 3.2 11.3 3.85Q8.35 4.9 8.15 8.7Q8.35 11.7 4.7 12.75L2.75 12.7M12.75 9.15L12.5 9.65L12 9.9L11.45 9.65L11.25 9.15L11.45 8.6L12 8.4L12.5 8.6L12.75 9.15M4.35 9.2L4.85 8.95L5.1 8.45L4.85 7.9L4.35 7.7Q4.05 7.7 3.8 7.9L3.6 8.45L3.8 8.95L4.35 9.2"/><path fill-rule="evenodd" fill="#404040" stroke="none" d="M13.95 4.5Q11.25 3.6 10.3 6.7Q10.05 9.7 8.05 11.85Q4.7 14 2.75 12.7L4.7 12.75Q8.35 11.7 8.15 8.7Q8.35 4.9 11.3 3.85Q13.05 3.2 13.95 4.5"/><path fill-rule="evenodd" fill="#555555" stroke="none" d="M0.5 15.15L15 15.15L15 0.65L0.5 0.65L0.5 15.15M0 15.7L0 0L15.7 0L15.7 15.7L0 15.7"/></g></defs></svg>
