<svg xmlns="http://www.w3.org/2000/svg" xmlns:xlink="http://www.w3.org/1999/xlink" width="617" height="63" viewBox="0 0 617 63"><defs><use xlink:href="#a" id="c" width="22.9" height="21.6"/><use xlink:href="#b" id="k" width="9.3" height="11.3"/><use xlink:href="#c" id="U" width="22.9" height="21.6" transform="matrix(-1 0 0 1 29.95 4.5)"/><use xlink:href="#c" id="R" width="22.9" height="21.6" transform="matrix(-1.06 0 0 1.06 30.65 4)"/><use xlink:href="#c" id="P" width="22.9" height="21.6" transform="matrix(-1.13 0 0 1.13 31.35 3.55)"/><use xlink:href="#c" id="N" width="22.9" height="21.6" transform="matrix(-1.19 0 0 1.19 32.1 3)"/><use xlink:href="#c" id="L" width="22.9" height="21.6" transform="matrix(-1.26 0 0 1.26 32.8 2.5)"/><use xlink:href="#c" id="J" width="22.9" height="21.6" transform="matrix(-1.32 0 0 1.32 33.5 2)"/><use xlink:href="#c" id="H" width="22.9" height="21.6" transform="matrix(-1.39 0 0 1.39 34.2 1.55)"/><use xlink:href="#c" id="F" width="22.9" height="21.6" transform="matrix(-1.45 0 0 1.45 34.9 1)"/><use xlink:href="#c" id="D" width="22.9" height="21.6" transform="matrix(-1.52 0 0 1.52 35.65 .5)"/><use xlink:href="#c" id="B" width="22.9" height="21.6" transform="matrix(-1.58 0 0 1.58 36.35 0)"/><use xlink:href="#d" id="A" width="44" height="44"/><use xlink:href="#f" id="y" width="1.5" height="15.8"/><use xlink:href="#g" id="x" width="19.5" height="8.9"/><use xlink:href="#h" id="w" width="4.9" height="6.8"/><use xlink:href="#i" id="v" width="9.7" height="3.8"/><use xlink:href="#j" id="u" width="7.6" height="8"/><use xlink:href="#k" id="t" width="9.3" height="11.3" transform="matrix(.9176 -.006 -.2051 .7656 2.35 .05)"/><use xlink:href="#l" id="s" width="13.9" height="12.2"/><use xlink:href="#m" id="r" width="18.9" height="12.8"/><use xlink:href="#n" id="q" width="12.1" height="25.4"/><clipPath id="p"><path d="M1 1h55v61H1z"/></clipPath><clipPath id="C"><path d="M57 1h55v61H57z"/></clipPath><clipPath id="E"><path d="M113 1h55v61h-55z"/></clipPath><clipPath id="G"><path d="M169 1h55v61h-55z"/></clipPath><clipPath id="I"><path d="M225 1h55v61h-55z"/></clipPath><clipPath id="K"><path d="M281 1h55v61h-55z"/></clipPath><clipPath id="M"><path d="M337 1h55v61h-55z"/></clipPath><clipPath id="O"><path d="M393 1h55v61h-55z"/></clipPath><clipPath id="Q"><path d="M449 1h55v61h-55z"/></clipPath><clipPath id="S"><path d="M505 1h55v61h-55z"/></clipPath><clipPath id="T"><path d="M561 1h55v61h-55z"/></clipPath><g id="a"><path fill="#fff" d="M7.5 0q2 3.1 4 4.9 1.5 1.2 3.9.5Q17 5 20.7 3q-1.6 2.6-2 4.5-.3 1.2.6 2.3 1 1.3 3.6 1.7-1.2 0-2.4.8-1 .6-1.3 1.3-.5 1 .5 2.7.7 1.5 2.7 3.8-6.6-3.5-9.2-1.8-2.1 1.5-2.9 3.3 0-1.7-.3-2.4-.5-2.1-1.8-2.5-3-1-7.4.4.8-.5 2.3-2.6 1-1.2.6-3.1Q3.3 8.7 0 6.2l3.4.4 2.9-.4q1-.3 1.2-6.1z"/><path fill="#35479e" d="M12.2 13.7h-.7l-.6-.4-3.5-6.1q-.2-.3 0-.8l.7-.6L9.5 5l.9-.1q.4 0 .5.5-2.3.8-2.5 1.4 2.5 5.3 3.7 6.9m1.9 4h-.7q-.7-.1-.9-.6t0-1.2q.3-.5 1-.9.3-.2.7-.2-1.2.4-1 1.7 0 1.2 1 1.2z"/><path fill="#578afd" d="M12.2 13.7q-1.3-1.6-3.7-6.9.1-.6 2.4-1.5l2.4 6.6v.8l-.6.7-.3.2zm1.9 1 .5.1q.5.2.8.7.2.5 0 1.1l-.9 1-.4.1q-1 0-1-1.3-.2-1.2 1-1.6"/></g><g id="b"><path fill="#ff9411" d="M.8 6 1 4.3l2.9-4 4.7 1.3.4 2-2.9-.5-2.9 4.1z"/><path fill="#d95b00" d="m.8 6 2.4 1.2 2.9-4.1 2.9.6v2.7L4 11 .4 9z"/><path fill="none" stroke="#fff260" stroke-linecap="round" stroke-linejoin="round" stroke-opacity=".7" stroke-width="__RESOLUTION__" d="m9 3.7-.4-2.1L3.9.4 1 4.3.8 6" vector-effect="non-scaling-stroke"/><path fill="none" stroke="#ffb404" stroke-linecap="round" stroke-linejoin="round" stroke-opacity=".7" stroke-width="__RESOLUTION__" d="M9 3.7v2.7L4 11 .4 9l.4-3" vector-effect="non-scaling-stroke"/></g><g id="f" fill="none" stroke-linecap="round" stroke-linejoin="round" stroke-width="1"><path stroke="#ffd447" stroke-opacity=".7" d="m.4 5.2.3-2.4" vector-effect="non-scaling-stroke"/><path stroke="#ffd447" stroke-opacity=".3" d="M.7 2.8 1.2.4" vector-effect="non-scaling-stroke"/><path stroke="#ffbb1e" d="M.5 10.3v-.4L.3 8.5V6.9m0 0 .1-1.7" vector-effect="non-scaling-stroke"/><path stroke="#f29700" d="m1 15.4-.3-2.7-.1-1.3-.1-.8v-.3" vector-effect="non-scaling-stroke"/></g><g id="g"><path fill="#d95b00" d="m13.5 2.3-.9.3zm-3.3-1 9-1-4.5 5.1L2.8 8.6 0 5.5l1-1.9 4.9 1.2 6.7-2.2zM3.4 5.5l2.5-.7z"/><path fill="#ff9411" d="m10.2 1.3 2.4 1.3-6.7 2.2L1 3.6l.9-1.4z"/><path fill="none" stroke="#ed870c" stroke-linecap="round" stroke-linejoin="round" stroke-opacity=".7" stroke-width="__RESOLUTION__" d="m12.6 2.6.9-.3m-.9.3L5.9 4.8l-2.5.7" vector-effect="non-scaling-stroke"/><path fill="none" stroke="#fff260" stroke-linecap="round" stroke-linejoin="round" stroke-opacity=".7" stroke-width="__RESOLUTION__" d="m10.2 1.3-8.3.9L1 3.6m1.8 5 11.9-3.2 4.4-5" vector-effect="non-scaling-stroke"/></g><g id="h"><path fill="#ff9411" d="m2.3 5-.6 1.4L.4 5.2l.2-1.3 1-1 .2-2L3.3.5v3l1.4.8-.8 2z"/><path fill="none" stroke="#fff260" stroke-linecap="round" stroke-linejoin="round" stroke-opacity=".7" stroke-width="__RESOLUTION__" d="m2.3 5 1.5 1.2.8-2-1.4-.8v-3L1.8 1l-.2 2-1 .9-.2 1.3 1.3 1.2z" vector-effect="non-scaling-stroke"/></g><g id="i"><path fill="#d95b00" d="M4 .5Q6.4.2 8.8.5l.5 2-2.6.8q-1.4-.5-2.9-.4 2.4-.3.1-2.4"/><path fill="#ff9411" d="M4 .5q2.2 2.2-.1 2.4h-.3q-1.3 0-2.6.5L0 1.9 1.2 1l.5-.1z"/><path fill="none" stroke="#ffb404" stroke-linecap="round" stroke-linejoin="round" stroke-opacity=".7" stroke-width="__RESOLUTION__" d="M3.9 2.9q1.4-.1 2.9.4l2.5-.7L8.8.5h0Q6.4.2 3.9.5" vector-effect="non-scaling-stroke"/><path fill="none" stroke="#fff260" stroke-linecap="round" stroke-linejoin="round" stroke-opacity=".7" stroke-width="__RESOLUTION__" d="M3.9 2.9h-.3q-1.3 0-2.6.5M1.2 1l.5-.1L4 .5" vector-effect="non-scaling-stroke"/></g><g id="j"><path fill="#fe8205" d="M1.2 2 2 .4h2l.5.1-1.6 1 .6 2.2 2.3.6L7 2.7l.2.3-.8 3.3-1.1.6-2.5-1zm4 4.1.5-.6z"/><path fill="#ff9411" d="M4.6.5Q6 1.1 7 2.7L5.8 4.3l-2.3-.6L3 1.6z"/><path fill="#d95b00" d="M5.4 6.9 4 7.6.8 6.5Q0 4.8.6 3.5L1.2 2 3 5.9z"/><path fill="none" stroke="#fff260" stroke-linecap="round" stroke-linejoin="round" stroke-opacity=".7" stroke-width="__RESOLUTION__" d="M1.2 2 2 .4h2l.5.1q1.5.6 2.6 2.2l.2.3-.8 3.3-1.1.6m.3-1.4-.5.6" vector-effect="non-scaling-stroke"/><path fill="none" stroke="#ffb404" stroke-linecap="round" stroke-linejoin="round" stroke-opacity=".7" stroke-width="__RESOLUTION__" d="M5.4 6.9 4 7.6.8 6.5Q0 4.8.6 3.5L1.2 2" vector-effect="non-scaling-stroke"/></g><g id="l"><path fill="#ffa611" d="M3.2 2.8 3.6.4l3.4 1 3.2-1 .7 3.4L13.6 6l-2.7 2.3-.3 2L8 8.5l-3.5.2.3-3.4z"/><path fill="#d95b00" d="m3.2 2.8 1.7 2.6-.3 3.5 3.5-.2 2.5 1.7-.3 1.4-3.4-1.1-3.2 1.1L3 8.4.4 6.1 3 3.8z"/><path fill="none" stroke="#fff260" stroke-linecap="round" stroke-linejoin="round" stroke-opacity=".7" stroke-width="__RESOLUTION__" d="m10.6 10.4.3-2 2.7-2.3-2.7-2.3-.6-3.4-3.4 1-3.2-1-.5 2.4-.2 1L.4 6 3 8.4l.7 3.4 3.2-1.1 3.3 1.1z" vector-effect="non-scaling-stroke"/></g><g id="m"><path fill="#fe8001" d="m14.2 3 2.4 3-2.2-.9 1.5 2.3h-3l2.5 1.1-1.8 1.8 2 .1q-2.5 1.3-7.7 2.1l-1.1-.1 3-2.8-3.3-1.7L11 5l-.6-3z"/><path fill="#ff9411" d="m14.2 3-3.8-1 .6 3.2L6.5 8l3.4 1.7-3.1 2.8-5.1-.6L0 5.2 5.2.3l5.9.5z"/><path fill="#d95b00" d="m15.6 10.4-2-.1 1.8-1.8L13 7.4h2.9l-1.5-2.2 2.2.8 1.9 2-.6 1-1.5.8z"/><path fill="none" stroke="#ffb404" stroke-linecap="round" stroke-linejoin="round" stroke-opacity=".7" stroke-width="__RESOLUTION__" d="m16.6 6-2.4-3m-7.4 9.4 1 .1q5.3-.8 7.8-2.1l.8-.5 1.5-.8.6-1L16.6 6" vector-effect="non-scaling-stroke"/><path fill="none" stroke="#fff260" stroke-linecap="round" stroke-linejoin="round" stroke-opacity=".7" stroke-width="__RESOLUTION__" d="M14.2 3 11 .8 5.2.3M1.7 11.9l5 .6" vector-effect="non-scaling-stroke"/></g><g id="n"><path fill="#ff9411" d="M2.8 25Q.3 17.7.4 10.4V7.9Q3 3.6 5.6 7.4v.2L7 9.8q1.3 1.8 3.1 3.7l2 5.4-3.6 6.2z"/><path fill="#d95b00" d="m.4 8 .3-3.6.3-1.8L2.3.4l1.8 1.1.4 2.9 1.1 3Q3 3.5.4 7.9"/><path fill="none" stroke="#fff260" stroke-linecap="round" stroke-linejoin="round" stroke-opacity=".7" stroke-width="__RESOLUTION__" d="M2.8 25Q.3 17.7.4 10.4V7.9m5.3-.4L7 9.8q1.2 1.8 3 3.7M8.5 25.2H2.8" vector-effect="non-scaling-stroke"/><path fill="none" stroke="#ffb404" stroke-linecap="round" stroke-linejoin="round" stroke-opacity=".7" stroke-width="__RESOLUTION__" d="m.4 8 .3-3.6.3-1.8L2.3.4l1.8 1.1.4 2.9 1.1 3" vector-effect="non-scaling-stroke"/></g><g id="z"><path fill="#ff9411" d="m16.7.4 1.7 1.1 1.9 4.6L19 7.7l-1.8-.3-.2.5-2.3 1-2.4 1.3-1.3.6H9.7l-2.2-.3H6.3l-3-.3L3.1 8l12.2-5.4Q14 1.4 11.7.7zm-2.1 6q-2-1.3-3 1.4 1-2.7 3-1.4"/><path fill="#d95b00" d="m20.3 6.1.9 2.2-3.8 2.5L14.8 9 17 8l.2-.5 1.8.3z"/><path fill="#fff" d="m11 10.8-.3.8-.5.7-.5-.7-.1-.8zm-7.7-.6L2 10l-1-.5L0 8l1.1-.7 2 .7z"/><path fill="#ffb60b" d="M1.1 7.3q6.8-3.7 7.9-5L11.6.8q2.4.7 3.6 1.7L3 8z"/><path fill="none" stroke="#fff260" stroke-linecap="round" stroke-linejoin="round" stroke-opacity=".7" stroke-width="__RESOLUTION__" d="m16.7.4 1.7 1.1 1.9 4.6M9.6 10.8l-2.2-.3m-1.1 0-3-.3L2 10" vector-effect="non-scaling-stroke"/><path fill="none" stroke="#fba515" stroke-linecap="round" stroke-linejoin="round" stroke-opacity=".7" stroke-width="__RESOLUTION__" d="m20.3 6.1.9 2.2m-3.8 2.5L14.8 9q-1.6.7-2.5 1.3l-1.2.6-.4.8-.5.7-.5-.7-.1-.8H11m-3.7-.2-.5.4-.6-.5M17 7.9l-2.2 1" vector-effect="non-scaling-stroke"/><path fill="none" stroke="#375975" stroke-linecap="round" stroke-linejoin="round" stroke-opacity=".4" stroke-width="__RESOLUTION__" d="m7.4 10.6-1.1-.1" vector-effect="non-scaling-stroke"/><path fill="none" stroke="#832e01" stroke-linecap="round" stroke-linejoin="round" stroke-width="__RESOLUTION__" d="M11.7 7.8q1-2.7 2.9-1.4" vector-effect="non-scaling-stroke"/><path fill="none" stroke="#375975" stroke-linecap="round" stroke-linejoin="round" stroke-opacity=".4" stroke-width="__RESOLUTION__" d="m17.3 6.8.2 1.3" vector-effect="non-scaling-stroke"/></g><radialGradient id="o" cx="0" cy="0" r="819.2" gradientTransform="translate(21.95 -22.05)scale(.0275)" gradientUnits="userSpaceOnUse" spreadMethod="pad"><stop offset=".3" stop-color="#fffcde" stop-opacity=".1"/><stop offset=".3" stop-color="#ffe912" stop-opacity=".1"/><stop offset=".5" stop-color="#ff6800" stop-opacity=".1"/><stop offset="1" stop-color="#f81" stop-opacity="0"/></radialGradient><path id="d" fill="url(#o)" d="M22-44q9 0 15.5 6.4T44-22q0 9-6.5 15.5T22 0 6.4-6.5 0-22q0-9.1 6.4-15.6T22-44" transform="translate(0 44)"/></defs><g clip-path="url(#p)"><g transform="translate(19.6 51.5)"><use xlink:href="#q" width="12.1" height="25.4" transform="translate(-17.15 -26.3)"/><use xlink:href="#r" width="18.9" height="12.8" transform="rotate(22.133 28.404 -35.947)scale(.9988)"/><use xlink:href="#s" width="13.9" height="12.2" transform="translate(-18.6 -33)"/><use xlink:href="#t" width="10.9" height="8.7" transform="matrix(-.6983 .0854 -.0973 .3389 12.45 .3)"/><use xlink:href="#k" width="9.3" height="11.3" transform="matrix(-.5203 .1953 .1953 .5203 8.35 -4.05)"/><use xlink:href="#t" width="10.9" height="8.7" transform="matrix(.3637 .0467 .1375 .573 .1 2.2)"/><use xlink:href="#u" width="7.6" height="8" transform="translate(1.45 -3.85)"/><use xlink:href="#k" width="9.3" height="11.3" transform="matrix(-.5219 .1931 .1931 .5219 4.45 -2.1)"/><use xlink:href="#v" width="9.7" height="3.8" transform="rotate(251.71 .615 -1.624)scale(.999)"/><use xlink:href="#w" width="4.9" height="6.8" transform="matrix(.5483 .0571 -.0399 .3828 6 -3.2)"/><use xlink:href="#w" width="4.9" height="6.8" transform="matrix(-.1315 .5379 .5379 .1315 3.45 -2.95)"/><use xlink:href="#x" width="19.5" height="8.9" transform="matrix(-.5408 -.192 -.192 .5408 9.25 -16.6)"/><use xlink:href="#y" width="1.5" height="15.8" transform="rotate(15 98.62 55.018)scale(.8465)"/><use xlink:href="#z" width="21.5" height="12.7" transform="matrix(-.8465 0 0 .8465 17.6 -16.9)"/><use xlink:href="#x" width="19.5" height="8.9" transform="matrix(-.5741 -.0049 -.0049 .5741 4.45 -17.65)"/><use xlink:href="#y" width="1.5" height="15.8" transform="matrix(-.7963 .2865 .2558 .7112 10.05 -21.05)"/><use xlink:href="#A" width="44" height="44" transform="matrix(-.8465 0 0 .8465 20.95 -27.15)"/><use xlink:href="#B" width="36.4" height="34.2" transform="translate(4.9 -50.5)scale(.8572)"/></g></g><g clip-path="url(#C)"><g transform="translate(75.6 51.5)"><use xlink:href="#q" width="12.1" height="25.4" transform="translate(-17.15 -26.3)"/><use xlink:href="#r" width="18.9" height="12.8" transform="rotate(22.133 28.404 -35.947)scale(.9988)"/><use xlink:href="#s" width="13.9" height="12.2" transform="translate(-18.6 -33)"/><use xlink:href="#t" width="10.9" height="8.7" transform="matrix(-.6983 .0854 -.0973 .3389 12.45 .3)"/><use xlink:href="#k" width="9.3" height="11.3" transform="matrix(-.5203 .1953 .1953 .5203 8.35 -4.05)"/><use xlink:href="#t" width="10.9" height="8.7" transform="matrix(.3637 .0467 .1375 .573 .1 2.2)"/><use xlink:href="#u" width="7.6" height="8" transform="translate(1.45 -3.85)"/><use xlink:href="#k" width="9.3" height="11.3" transform="matrix(-.5219 .1931 .1931 .5219 4.45 -2.1)"/><use xlink:href="#v" width="9.7" height="3.8" transform="rotate(251.71 .615 -1.624)scale(.999)"/><use xlink:href="#w" width="4.9" height="6.8" transform="matrix(.5483 .0571 -.0399 .3828 6 -3.2)"/><use xlink:href="#w" width="4.9" height="6.8" transform="matrix(-.1315 .5379 .5379 .1315 3.45 -2.95)"/><use xlink:href="#x" width="19.5" height="8.9" transform="matrix(-.5408 -.192 -.192 .5408 9.25 -16.6)"/><use xlink:href="#y" width="1.5" height="15.8" transform="rotate(15 98.62 55.018)scale(.8465)"/><use xlink:href="#z" width="21.5" height="12.7" transform="matrix(-.8465 0 0 .8465 17.6 -16.9)"/><use xlink:href="#x" width="19.5" height="8.9" transform="matrix(-.5741 -.0049 -.0049 .5741 4.45 -17.65)"/><use xlink:href="#y" width="1.5" height="15.8" transform="matrix(-.7963 .2865 .2558 .7112 10.05 -21.05)"/><use xlink:href="#A" width="44" height="44" transform="matrix(-.8465 0 0 .8465 20.95 -27.15)"/><use xlink:href="#D" width="36.4" height="34.2" transform="translate(4.9 -50.5)scale(.8572)"/></g></g><g clip-path="url(#E)"><g transform="translate(131.6 51.5)"><use xlink:href="#q" width="12.1" height="25.4" transform="translate(-17.15 -26.3)"/><use xlink:href="#r" width="18.9" height="12.8" transform="rotate(22.133 28.404 -35.947)scale(.9988)"/><use xlink:href="#s" width="13.9" height="12.2" transform="translate(-18.6 -33)"/><use xlink:href="#t" width="10.9" height="8.7" transform="matrix(-.6983 .0854 -.0973 .3389 12.45 .3)"/><use xlink:href="#k" width="9.3" height="11.3" transform="matrix(-.5203 .1953 .1953 .5203 8.35 -4.05)"/><use xlink:href="#t" width="10.9" height="8.7" transform="matrix(.3637 .0467 .1375 .573 .1 2.2)"/><use xlink:href="#u" width="7.6" height="8" transform="translate(1.45 -3.85)"/><use xlink:href="#k" width="9.3" height="11.3" transform="matrix(-.5219 .1931 .1931 .5219 4.45 -2.1)"/><use xlink:href="#v" width="9.7" height="3.8" transform="rotate(251.71 .615 -1.624)scale(.999)"/><use xlink:href="#w" width="4.9" height="6.8" transform="matrix(.5483 .0571 -.0399 .3828 6 -3.2)"/><use xlink:href="#w" width="4.9" height="6.8" transform="matrix(-.1315 .5379 .5379 .1315 3.45 -2.95)"/><use xlink:href="#x" width="19.5" height="8.9" transform="matrix(-.5408 -.192 -.192 .5408 9.25 -16.6)"/><use xlink:href="#y" width="1.5" height="15.8" transform="rotate(15 98.62 55.018)scale(.8465)"/><use xlink:href="#z" width="21.5" height="12.7" transform="matrix(-.8465 0 0 .8465 17.6 -16.9)"/><use xlink:href="#x" width="19.5" height="8.9" transform="matrix(-.5741 -.0049 -.0049 .5741 4.45 -17.65)"/><use xlink:href="#y" width="1.5" height="15.8" transform="matrix(-.7963 .2865 .2558 .7112 10.05 -21.05)"/><use xlink:href="#A" width="44" height="44" transform="matrix(-.8465 0 0 .8465 20.95 -27.15)"/><use xlink:href="#F" width="36.4" height="34.2" transform="translate(4.9 -50.5)scale(.8572)"/></g></g><g clip-path="url(#G)"><g transform="translate(187.6 51.5)"><use xlink:href="#q" width="12.1" height="25.4" transform="translate(-17.15 -26.3)"/><use xlink:href="#r" width="18.9" height="12.8" transform="rotate(22.133 28.404 -35.947)scale(.9988)"/><use xlink:href="#s" width="13.9" height="12.2" transform="translate(-18.6 -33)"/><use xlink:href="#t" width="10.9" height="8.7" transform="matrix(-.6983 .0854 -.0973 .3389 12.45 .3)"/><use xlink:href="#k" width="9.3" height="11.3" transform="matrix(-.5203 .1953 .1953 .5203 8.35 -4.05)"/><use xlink:href="#t" width="10.9" height="8.7" transform="matrix(.3637 .0467 .1375 .573 .1 2.2)"/><use xlink:href="#u" width="7.6" height="8" transform="translate(1.45 -3.85)"/><use xlink:href="#k" width="9.3" height="11.3" transform="matrix(-.5219 .1931 .1931 .5219 4.45 -2.1)"/><use xlink:href="#v" width="9.7" height="3.8" transform="rotate(251.71 .615 -1.624)scale(.999)"/><use xlink:href="#w" width="4.9" height="6.8" transform="matrix(.5483 .0571 -.0399 .3828 6 -3.2)"/><use xlink:href="#w" width="4.9" height="6.8" transform="matrix(-.1315 .5379 .5379 .1315 3.45 -2.95)"/><use xlink:href="#x" width="19.5" height="8.9" transform="matrix(-.5408 -.192 -.192 .5408 9.25 -16.6)"/><use xlink:href="#y" width="1.5" height="15.8" transform="rotate(15 98.62 55.018)scale(.8465)"/><use xlink:href="#z" width="21.5" height="12.7" transform="matrix(-.8465 0 0 .8465 17.6 -16.9)"/><use xlink:href="#x" width="19.5" height="8.9" transform="matrix(-.5741 -.0049 -.0049 .5741 4.45 -17.65)"/><use xlink:href="#y" width="1.5" height="15.8" transform="matrix(-.7963 .2865 .2558 .7112 10.05 -21.05)"/><use xlink:href="#A" width="44" height="44" transform="matrix(-.8465 0 0 .8465 20.95 -27.15)"/><use xlink:href="#H" width="36.4" height="34.2" transform="translate(4.9 -50.5)scale(.8572)"/></g></g><g clip-path="url(#I)"><g transform="translate(243.6 51.5)"><use xlink:href="#q" width="12.1" height="25.4" transform="translate(-17.15 -26.3)"/><use xlink:href="#r" width="18.9" height="12.8" transform="rotate(22.133 28.404 -35.947)scale(.9988)"/><use xlink:href="#s" width="13.9" height="12.2" transform="translate(-18.6 -33)"/><use xlink:href="#t" width="10.9" height="8.7" transform="matrix(-.6983 .0854 -.0973 .3389 12.45 .3)"/><use xlink:href="#k" width="9.3" height="11.3" transform="matrix(-.5203 .1953 .1953 .5203 8.35 -4.05)"/><use xlink:href="#t" width="10.9" height="8.7" transform="matrix(.3637 .0467 .1375 .573 .1 2.2)"/><use xlink:href="#u" width="7.6" height="8" transform="translate(1.45 -3.85)"/><use xlink:href="#k" width="9.3" height="11.3" transform="matrix(-.5219 .1931 .1931 .5219 4.45 -2.1)"/><use xlink:href="#v" width="9.7" height="3.8" transform="rotate(251.71 .615 -1.624)scale(.999)"/><use xlink:href="#w" width="4.9" height="6.8" transform="matrix(.5483 .0571 -.0399 .3828 6 -3.2)"/><use xlink:href="#w" width="4.9" height="6.8" transform="matrix(-.1315 .5379 .5379 .1315 3.45 -2.95)"/><use xlink:href="#x" width="19.5" height="8.9" transform="matrix(-.5408 -.192 -.192 .5408 9.25 -16.6)"/><use xlink:href="#y" width="1.5" height="15.8" transform="rotate(15 98.62 55.018)scale(.8465)"/><use xlink:href="#z" width="21.5" height="12.7" transform="matrix(-.8465 0 0 .8465 17.6 -16.9)"/><use xlink:href="#x" width="19.5" height="8.9" transform="matrix(-.5741 -.0049 -.0049 .5741 4.45 -17.65)"/><use xlink:href="#y" width="1.5" height="15.8" transform="matrix(-.7963 .2865 .2558 .7112 10.05 -21.05)"/><use xlink:href="#A" width="44" height="44" transform="matrix(-.8465 0 0 .8465 20.95 -27.15)"/><use xlink:href="#J" width="36.4" height="34.2" transform="translate(4.9 -50.5)scale(.8572)"/></g></g><g clip-path="url(#K)"><g transform="translate(299.6 51.5)"><use xlink:href="#q" width="12.1" height="25.4" transform="translate(-17.15 -26.3)"/><use xlink:href="#r" width="18.9" height="12.8" transform="rotate(22.133 28.404 -35.947)scale(.9988)"/><use xlink:href="#s" width="13.9" height="12.2" transform="translate(-18.6 -33)"/><use xlink:href="#t" width="10.9" height="8.7" transform="matrix(-.6983 .0854 -.0973 .3389 12.45 .3)"/><use xlink:href="#k" width="9.3" height="11.3" transform="matrix(-.5203 .1953 .1953 .5203 8.35 -4.05)"/><use xlink:href="#t" width="10.9" height="8.7" transform="matrix(.3637 .0467 .1375 .573 .1 2.2)"/><use xlink:href="#u" width="7.6" height="8" transform="translate(1.45 -3.85)"/><use xlink:href="#k" width="9.3" height="11.3" transform="matrix(-.5219 .1931 .1931 .5219 4.45 -2.1)"/><use xlink:href="#v" width="9.7" height="3.8" transform="rotate(251.71 .615 -1.624)scale(.999)"/><use xlink:href="#w" width="4.9" height="6.8" transform="matrix(.5483 .0571 -.0399 .3828 6 -3.2)"/><use xlink:href="#w" width="4.9" height="6.8" transform="matrix(-.1315 .5379 .5379 .1315 3.45 -2.95)"/><use xlink:href="#x" width="19.5" height="8.9" transform="matrix(-.5408 -.192 -.192 .5408 9.25 -16.6)"/><use xlink:href="#y" width="1.5" height="15.8" transform="rotate(15 98.62 55.018)scale(.8465)"/><use xlink:href="#z" width="21.5" height="12.7" transform="matrix(-.8465 0 0 .8465 17.6 -16.9)"/><use xlink:href="#x" width="19.5" height="8.9" transform="matrix(-.5741 -.0049 -.0049 .5741 4.45 -17.65)"/><use xlink:href="#y" width="1.5" height="15.8" transform="matrix(-.7963 .2865 .2558 .7112 10.05 -21.05)"/><use xlink:href="#A" width="44" height="44" transform="matrix(-.8465 0 0 .8465 20.95 -27.15)"/><use xlink:href="#L" width="36.4" height="34.2" transform="translate(4.9 -50.5)scale(.8572)"/></g></g><g clip-path="url(#M)"><g transform="translate(355.6 51.5)"><use xlink:href="#q" width="12.1" height="25.4" transform="translate(-17.15 -26.3)"/><use xlink:href="#r" width="18.9" height="12.8" transform="rotate(22.133 28.404 -35.947)scale(.9988)"/><use xlink:href="#s" width="13.9" height="12.2" transform="translate(-18.6 -33)"/><use xlink:href="#t" width="10.9" height="8.7" transform="matrix(-.6983 .0854 -.0973 .3389 12.45 .3)"/><use xlink:href="#k" width="9.3" height="11.3" transform="matrix(-.5203 .1953 .1953 .5203 8.35 -4.05)"/><use xlink:href="#t" width="10.9" height="8.7" transform="matrix(.3637 .0467 .1375 .573 .1 2.2)"/><use xlink:href="#u" width="7.6" height="8" transform="translate(1.45 -3.85)"/><use xlink:href="#k" width="9.3" height="11.3" transform="matrix(-.5219 .1931 .1931 .5219 4.45 -2.1)"/><use xlink:href="#v" width="9.7" height="3.8" transform="rotate(251.71 .615 -1.624)scale(.999)"/><use xlink:href="#w" width="4.9" height="6.8" transform="matrix(.5483 .0571 -.0399 .3828 6 -3.2)"/><use xlink:href="#w" width="4.9" height="6.8" transform="matrix(-.1315 .5379 .5379 .1315 3.45 -2.95)"/><use xlink:href="#x" width="19.5" height="8.9" transform="matrix(-.5408 -.192 -.192 .5408 9.25 -16.6)"/><use xlink:href="#y" width="1.5" height="15.8" transform="rotate(15 98.62 55.018)scale(.8465)"/><use xlink:href="#z" width="21.5" height="12.7" transform="matrix(-.8465 0 0 .8465 17.6 -16.9)"/><use xlink:href="#x" width="19.5" height="8.9" transform="matrix(-.5741 -.0049 -.0049 .5741 4.45 -17.65)"/><use xlink:href="#y" width="1.5" height="15.8" transform="matrix(-.7963 .2865 .2558 .7112 10.05 -21.05)"/><use xlink:href="#A" width="44" height="44" transform="matrix(-.8465 0 0 .8465 20.95 -27.15)"/><use xlink:href="#N" width="36.4" height="34.2" transform="translate(4.9 -50.5)scale(.8572)"/></g></g><g clip-path="url(#O)"><g transform="translate(411.6 51.5)"><use xlink:href="#q" width="12.1" height="25.4" transform="translate(-17.15 -26.3)"/><use xlink:href="#r" width="18.9" height="12.8" transform="rotate(22.133 28.404 -35.947)scale(.9988)"/><use xlink:href="#s" width="13.9" height="12.2" transform="translate(-18.6 -33)"/><use xlink:href="#t" width="10.9" height="8.7" transform="matrix(-.6983 .0854 -.0973 .3389 12.45 .3)"/><use xlink:href="#k" width="9.3" height="11.3" transform="matrix(-.5203 .1953 .1953 .5203 8.35 -4.05)"/><use xlink:href="#t" width="10.9" height="8.7" transform="matrix(.3637 .0467 .1375 .573 .1 2.2)"/><use xlink:href="#u" width="7.6" height="8" transform="translate(1.45 -3.85)"/><use xlink:href="#k" width="9.3" height="11.3" transform="matrix(-.5219 .1931 .1931 .5219 4.45 -2.1)"/><use xlink:href="#v" width="9.7" height="3.8" transform="rotate(251.71 .615 -1.624)scale(.999)"/><use xlink:href="#w" width="4.9" height="6.8" transform="matrix(.5483 .0571 -.0399 .3828 6 -3.2)"/><use xlink:href="#w" width="4.9" height="6.8" transform="matrix(-.1315 .5379 .5379 .1315 3.45 -2.95)"/><use xlink:href="#x" width="19.5" height="8.9" transform="matrix(-.5408 -.192 -.192 .5408 9.25 -16.6)"/><use xlink:href="#y" width="1.5" height="15.8" transform="rotate(15 98.62 55.018)scale(.8465)"/><use xlink:href="#z" width="21.5" height="12.7" transform="matrix(-.8465 0 0 .8465 17.6 -16.9)"/><use xlink:href="#x" width="19.5" height="8.9" transform="matrix(-.5741 -.0049 -.0049 .5741 4.45 -17.65)"/><use xlink:href="#y" width="1.5" height="15.8" transform="matrix(-.7963 .2865 .2558 .7112 10.05 -21.05)"/><use xlink:href="#A" width="44" height="44" transform="matrix(-.8465 0 0 .8465 20.95 -27.15)"/><use xlink:href="#P" width="36.4" height="34.2" transform="translate(4.9 -50.5)scale(.8572)"/></g></g><g clip-path="url(#Q)"><g transform="translate(467.6 51.5)"><use xlink:href="#q" width="12.1" height="25.4" transform="translate(-17.15 -26.3)"/><use xlink:href="#r" width="18.9" height="12.8" transform="rotate(22.133 28.404 -35.947)scale(.9988)"/><use xlink:href="#s" width="13.9" height="12.2" transform="translate(-18.6 -33)"/><use xlink:href="#t" width="10.9" height="8.7" transform="matrix(-.6983 .0854 -.0973 .3389 12.45 .3)"/><use xlink:href="#k" width="9.3" height="11.3" transform="matrix(-.5203 .1953 .1953 .5203 8.35 -4.05)"/><use xlink:href="#t" width="10.9" height="8.7" transform="matrix(.3637 .0467 .1375 .573 .1 2.2)"/><use xlink:href="#u" width="7.6" height="8" transform="translate(1.45 -3.85)"/><use xlink:href="#k" width="9.3" height="11.3" transform="matrix(-.5219 .1931 .1931 .5219 4.45 -2.1)"/><use xlink:href="#v" width="9.7" height="3.8" transform="rotate(251.71 .615 -1.624)scale(.999)"/><use xlink:href="#w" width="4.9" height="6.8" transform="matrix(.5483 .0571 -.0399 .3828 6 -3.2)"/><use xlink:href="#w" width="4.9" height="6.8" transform="matrix(-.1315 .5379 .5379 .1315 3.45 -2.95)"/><use xlink:href="#x" width="19.5" height="8.9" transform="matrix(-.5408 -.192 -.192 .5408 9.25 -16.6)"/><use xlink:href="#y" width="1.5" height="15.8" transform="rotate(15 98.62 55.018)scale(.8465)"/><use xlink:href="#z" width="21.5" height="12.7" transform="matrix(-.8465 0 0 .8465 17.6 -16.9)"/><use xlink:href="#x" width="19.5" height="8.9" transform="matrix(-.5741 -.0049 -.0049 .5741 4.45 -17.65)"/><use xlink:href="#y" width="1.5" height="15.8" transform="matrix(-.7963 .2865 .2558 .7112 10.05 -21.05)"/><use xlink:href="#A" width="44" height="44" transform="matrix(-.8465 0 0 .8465 20.95 -27.15)"/><use xlink:href="#R" width="36.4" height="34.2" transform="translate(4.9 -50.5)scale(.8572)"/></g></g><g clip-path="url(#S)"><g transform="translate(523.6 51.5)"><use xlink:href="#q" width="12.1" height="25.4" transform="translate(-17.15 -26.3)"/><use xlink:href="#r" width="18.9" height="12.8" transform="rotate(22.133 28.404 -35.947)scale(.9988)"/><use xlink:href="#s" width="13.9" height="12.2" transform="translate(-18.6 -33)"/><use xlink:href="#t" width="10.9" height="8.7" transform="matrix(-.6983 .0854 -.0973 .3389 12.45 .3)"/><use xlink:href="#k" width="9.3" height="11.3" transform="matrix(-.5203 .1953 .1953 .5203 8.35 -4.05)"/><use xlink:href="#t" width="10.9" height="8.7" transform="matrix(.3637 .0467 .1375 .573 .1 2.2)"/><use xlink:href="#u" width="7.6" height="8" transform="translate(1.45 -3.85)"/><use xlink:href="#k" width="9.3" height="11.3" transform="matrix(-.5219 .1931 .1931 .5219 4.45 -2.1)"/><use xlink:href="#v" width="9.7" height="3.8" transform="rotate(251.71 .615 -1.624)scale(.999)"/><use xlink:href="#w" width="4.9" height="6.8" transform="matrix(.5483 .0571 -.0399 .3828 6 -3.2)"/><use xlink:href="#w" width="4.9" height="6.8" transform="matrix(-.1315 .5379 .5379 .1315 3.45 -2.95)"/><use xlink:href="#x" width="19.5" height="8.9" transform="matrix(-.5408 -.192 -.192 .5408 9.25 -16.6)"/><use xlink:href="#y" width="1.5" height="15.8" transform="rotate(15 98.62 55.018)scale(.8465)"/><use xlink:href="#z" width="21.5" height="12.7" transform="matrix(-.8465 0 0 .8465 17.6 -16.9)"/><use xlink:href="#x" width="19.5" height="8.9" transform="matrix(-.5741 -.0049 -.0049 .5741 4.45 -17.65)"/><use xlink:href="#y" width="1.5" height="15.8" transform="matrix(-.7963 .2865 .2558 .7112 10.05 -21.05)"/><use xlink:href="#A" width="44" height="44" transform="matrix(-.8465 0 0 .8465 20.95 -27.15)"/></g></g><g clip-path="url(#T)"><g transform="translate(579.6 51.5)"><use xlink:href="#q" width="12.1" height="25.4" transform="translate(-17.15 -26.3)"/><use xlink:href="#r" width="18.9" height="12.8" transform="rotate(22.133 28.404 -35.947)scale(.9988)"/><use xlink:href="#s" width="13.9" height="12.2" transform="translate(-18.6 -33)"/><use xlink:href="#t" width="10.9" height="8.7" transform="matrix(-.6983 .0854 -.0973 .3389 12.45 .3)"/><use xlink:href="#k" width="9.3" height="11.3" transform="matrix(-.5203 .1953 .1953 .5203 8.35 -4.05)"/><use xlink:href="#t" width="10.9" height="8.7" transform="matrix(.3637 .0467 .1375 .573 .1 2.2)"/><use xlink:href="#u" width="7.6" height="8" transform="translate(1.45 -3.85)"/><use xlink:href="#k" width="9.3" height="11.3" transform="matrix(-.5219 .1931 .1931 .5219 4.45 -2.1)"/><use xlink:href="#v" width="9.7" height="3.8" transform="rotate(251.71 .615 -1.624)scale(.999)"/><use xlink:href="#w" width="4.9" height="6.8" transform="matrix(.5483 .0571 -.0399 .3828 6 -3.2)"/><use xlink:href="#w" width="4.9" height="6.8" transform="matrix(-.1315 .5379 .5379 .1315 3.45 -2.95)"/><use xlink:href="#x" width="19.5" height="8.9" transform="matrix(-.5408 -.192 -.192 .5408 9.25 -16.6)"/><use xlink:href="#y" width="1.5" height="15.8" transform="rotate(15 98.62 55.018)scale(.8465)"/><use xlink:href="#z" width="21.5" height="12.7" transform="matrix(-.8465 0 0 .8465 17.6 -16.9)"/><use xlink:href="#x" width="19.5" height="8.9" transform="matrix(-.5741 -.0049 -.0049 .5741 4.45 -17.65)"/><use xlink:href="#y" width="1.5" height="15.8" transform="matrix(-.7963 .2865 .2558 .7112 10.05 -21.05)"/><use xlink:href="#A" width="44" height="44" transform="matrix(-.8465 0 0 .8465 20.95 -27.15)"/><use xlink:href="#U" width="36.4" height="34.2" transform="translate(4.9 -50.5)scale(.8572)"/></g></g></svg>