<svg xmlns="http://www.w3.org/2000/svg" xmlns:xlink="http://www.w3.org/1999/xlink" width="4071" height="89" viewBox="0 0 4071 89"><defs><clipPath id="b"><path d="M1 1h54v43H1z"/></clipPath><clipPath id="i"><path d="M56 1h54v43H56z"/></clipPath><clipPath id="j"><path d="M111 1h54v43h-54z"/></clipPath><clipPath id="k"><path d="M166 1h54v43h-54z"/></clipPath><clipPath id="l"><path d="M221 1h54v43h-54z"/></clipPath><clipPath id="m"><path d="M276 1h54v43h-54z"/></clipPath><clipPath id="n"><path d="M331 1h54v43h-54z"/></clipPath><clipPath id="o"><path d="M386 1h54v43h-54z"/></clipPath><clipPath id="p"><path d="M441 1h54v43h-54z"/></clipPath><clipPath id="q"><path d="M496 1h54v43h-54z"/></clipPath><clipPath id="r"><path d="M551 1h54v43h-54z"/></clipPath><clipPath id="s"><path d="M606 1h54v43h-54z"/></clipPath><clipPath id="t"><path d="M661 1h54v43h-54z"/></clipPath><clipPath id="u"><path d="M716 1h54v43h-54z"/></clipPath><clipPath id="v"><path d="M771 1h54v43h-54z"/></clipPath><clipPath id="w"><path d="M826 1h54v43h-54z"/></clipPath><clipPath id="x"><path d="M881 1h54v43h-54z"/></clipPath><clipPath id="y"><path d="M936 1h54v43h-54z"/></clipPath><clipPath id="z"><path d="M991 1h54v43h-54z"/></clipPath><clipPath id="A"><path d="M1046 1h54v43h-54z"/></clipPath><clipPath id="B"><path d="M1101 1h54v43h-54z"/></clipPath><clipPath id="C"><path d="M1156 1h54v43h-54z"/></clipPath><clipPath id="D"><path d="M1211 1h54v43h-54z"/></clipPath><clipPath id="E"><path d="M1266 1h54v43h-54z"/></clipPath><clipPath id="F"><path d="M1321 1h54v43h-54z"/></clipPath><clipPath id="H"><path d="M1376 1h54v43h-54z"/></clipPath><clipPath id="I"><path d="M1431 1h54v43h-54z"/></clipPath><clipPath id="J"><path d="M1486 1h54v43h-54z"/></clipPath><clipPath id="K"><path d="M1541 1h54v43h-54z"/></clipPath><clipPath id="L"><path d="M1596 1h54v43h-54z"/></clipPath><clipPath id="M"><path d="M1651 1h54v43h-54z"/></clipPath><clipPath id="N"><path d="M1706 1h54v43h-54z"/></clipPath><clipPath id="O"><path d="M1761 1h54v43h-54z"/></clipPath><clipPath id="P"><path d="M1816 1h54v43h-54z"/></clipPath><clipPath id="Q"><path d="M1871 1h54v43h-54z"/></clipPath><clipPath id="R"><path d="M1926 1h54v43h-54z"/></clipPath><clipPath id="S"><path d="M1981 1h54v43h-54z"/></clipPath><clipPath id="T"><path d="M2036 1h54v43h-54z"/></clipPath><clipPath id="U"><path d="M2091 1h54v43h-54z"/></clipPath><clipPath id="V"><path d="M2146 1h54v43h-54z"/></clipPath><clipPath id="W"><path d="M2201 1h54v43h-54z"/></clipPath><clipPath id="X"><path d="M2256 1h54v43h-54z"/></clipPath><clipPath id="Y"><path d="M2311 1h54v43h-54z"/></clipPath><clipPath id="Z"><path d="M2366 1h54v43h-54z"/></clipPath><clipPath id="aa"><path d="M2421 1h54v43h-54z"/></clipPath><clipPath id="ab"><path d="M2476 1h54v43h-54z"/></clipPath><clipPath id="ac"><path d="M2531 1h54v43h-54z"/></clipPath><clipPath id="ad"><path d="M2586 1h54v43h-54z"/></clipPath><clipPath id="ae"><path d="M2641 1h54v43h-54z"/></clipPath><clipPath id="af"><path d="M2696 1h54v43h-54z"/></clipPath><clipPath id="ah"><path d="M2751 1h54v43h-54z"/></clipPath><clipPath id="ak"><path d="M2806 1h54v43h-54z"/></clipPath><clipPath id="an"><path d="M2861 1h54v43h-54z"/></clipPath><clipPath id="aq"><path d="M2916 1h54v43h-54z"/></clipPath><clipPath id="as"><path d="M2971 1h54v43h-54z"/></clipPath><clipPath id="av"><path d="M3026 1h54v43h-54z"/></clipPath><clipPath id="ay"><path d="M3081 1h54v43h-54z"/></clipPath><clipPath id="aB"><path d="M3136 1h54v43h-54z"/></clipPath><clipPath id="aD"><path d="M3191 1h54v43h-54z"/></clipPath><clipPath id="aG"><path d="M3246 1h54v43h-54z"/></clipPath><clipPath id="aI"><path d="M3301 1h54v43h-54z"/></clipPath><clipPath id="aK"><path d="M3356 1h54v43h-54z"/></clipPath><clipPath id="aL"><path d="M3411 1h54v43h-54z"/></clipPath><clipPath id="aM"><path d="M3466 1h54v43h-54z"/></clipPath><clipPath id="aN"><path d="M3521 1h54v43h-54z"/></clipPath><clipPath id="aO"><path d="M3576 1h54v43h-54z"/></clipPath><clipPath id="aP"><path d="M3631 1h54v43h-54z"/></clipPath><clipPath id="aQ"><path d="M3686 1h54v43h-54z"/></clipPath><clipPath id="aR"><path d="M3741 1h54v43h-54z"/></clipPath><clipPath id="aS"><path d="M3796 1h54v43h-54z"/></clipPath><clipPath id="aT"><path d="M3851 1h54v43h-54z"/></clipPath><clipPath id="aU"><path d="M3906 1h54v43h-54z"/></clipPath><clipPath id="aV"><path d="M3961 1h54v43h-54z"/></clipPath><clipPath id="aW"><path d="M4016 1h54v43h-54z"/></clipPath><clipPath id="aX"><path d="M1 45h54v43H1z"/></clipPath><path id="a" fill="#382c16" d="M5.8-1.9Q7.9-1.4 8-.5 8 .3 5.9 1 3.8 1.8.7 2l-5.2-.4Q-6.7 1.2-6.7.3q-.1-.8 2-1.6 2.2-.8 5.2-.9z" transform="translate(6.75 2.25)"/><path id="aJ" fill="#5c3d00" fill-opacity=".2" d="M.5-1.4 1.8-.3.9 1.4-.7 1-1.8-.8z" transform="translate(1.85 1.4)"/><path id="aH" fill="#5c3d00" fill-opacity=".3" d="M.5-1.4 1.8-.3.9 1.4-.7 1-1.8-.8z" transform="translate(1.85 1.4)"/><path id="aF" fill="#5c3d00" fill-opacity=".4" d="M.5-1.4 1.8-.3.9 1.4-.7 1-1.8-.8z" transform="translate(1.85 1.4)"/><path id="aE" fill="#5c3d00" fill-opacity=".1" d="M.5-1.4 1.8-.3.9 1.4-.7 1-1.8-.8z" transform="translate(1.85 1.4)"/><path id="aC" fill="#5c3d00" fill-opacity=".2" d="M.5-1.4 1.8-.3.9 1.4-.7 1-1.8-.8z" transform="translate(1.85 1.4)"/><path id="aA" fill="#5c3d00" fill-opacity=".5" d="M.5-1.4 1.8-.3.9 1.4-.7 1-1.8-.8z" transform="translate(1.85 1.4)"/><path id="az" fill="#5c3d00" fill-opacity=".3" d="M.5-1.4 1.8-.3.9 1.4-.7 1-1.8-.8z" transform="translate(1.85 1.4)"/><path id="ax" fill="#5c3d00" fill-opacity=".6" d="M.5-1.4 1.8-.3.9 1.4-.7 1-1.8-.8z" transform="translate(1.85 1.4)"/><path id="aw" fill="#5c3d00" fill-opacity=".4" d="M.5-1.4 1.8-.3.9 1.4-.7 1-1.8-.8z" transform="translate(1.85 1.4)"/><path id="au" fill="#5c3d00" fill-opacity=".6" d="M.5-1.4 1.8-.3.9 1.4-.7 1-1.8-.8z" transform="translate(1.85 1.4)"/><path id="at" fill="#5c3d00" fill-opacity=".5" d="M.5-1.4 1.8-.3.9 1.4-.7 1-1.8-.8z" transform="translate(1.85 1.4)"/><path id="ar" fill="#5c3d00" fill-opacity=".6" d="M.5-1.4 1.8-.3.9 1.4-.7 1-1.8-.8z" transform="translate(1.85 1.4)"/><path id="ap" fill="#5c3d00" fill-opacity=".8" d="M.5-1.4 1.8-.3.9 1.4-.7 1-1.8-.8z" transform="translate(1.85 1.4)"/><path id="ao" fill="#5c3d00" fill-opacity=".7" d="M.5-1.4 1.8-.3.9 1.4-.7 1-1.8-.8z" transform="translate(1.85 1.4)"/><path id="am" fill="#5c3d00" fill-opacity=".9" d="M.5-1.4 1.8-.3.9 1.4-.7 1-1.8-.8z" transform="translate(1.85 1.4)"/><path id="al" fill="#5c3d00" fill-opacity=".8" d="M.5-1.4 1.8-.3.9 1.4-.7 1-1.8-.8z" transform="translate(1.85 1.4)"/><path id="aj" fill="#5c3d00" fill-opacity=".9" d="M.5-1.4 1.8-.3.9 1.4-.7 1-1.8-.8z" transform="translate(1.85 1.4)"/><path id="ai" fill="#5c3d00" fill-opacity=".9" d="M.5-1.4 1.8-.3.9 1.4-.7 1-1.8-.8z" transform="translate(1.85 1.4)"/><path id="ag" fill="#5c3d00" d="M.5-1.4 1.8-.3.9 1.4-.7 1-1.8-.8z" transform="translate(1.85 1.4)"/><g id="G"><path fill="#f5eec5" d="m13.2 3.5.6-.4q.6-.2 1 .3t.5 1.2h-1.2q-.6-.2-.6-.5l-.3-.4zv.3l-.7.6q-.9.1-1.5-.4l.8-1z"/><path fill="#d2c086" d="m13.2 3.7.3.3q0 .4.6.5h1.2l-.8 1h-1l-1.3 1.9q-.7 1.4-.6 2.9l.2 2.3v1.6l-.4 1.8q-.2 1-1 2.2L9 19.9l-1.2.6-1.2.5-1.6-.3-1-.1-1.2-.6L1 18.5l-.7-.8 1.2.7 2.9.5 2.6.2q.7 0 1.9-2.3l-3.1-1.5 4-.2L11 13l.2-.9q-1-1.9-.8-2.8l1.7-4-.4 1 .1-.4v-.1l.3-.5-.7-.4-.3-.8q.6.5 1.5.3l.8-.6zM.5 14l.7-1.7.1-.1q0 1 1.6 2zm4.8-6.2L6 6.6l1.1-3.3-.5-1.6q.9.3 1.6-.2l.9-.6v.6H9l-.3.4.7.9 1-.7-1.1 1.4h-1l-.9 3.1-.4 1-.3.4.1-.4zm8-4.1q0 .2.2.3-.2-.1-.2-.3"/><path fill="#ccb157" d="m6.6 21-.1.8Q6 23.2 5.8 23l-1.7-.8-.1-1.5v-.1l1 .1zm-3.8-1-.1.4-.2 1.1L1 20.3l-.1-1 .1-.8zm1.2.7h1z"/><path fill="#f1eac2" d="M.3 17.7q-.4-1.7.2-3.6l2.4.1q-1.6-.9-1.6-2l.1-.2q1.5-2.5 2.8-3l1-.8V8L7 7.6l-.1.4.2-.4h.5q1.8-.2 2.7 1.7-.1.9.9 2.9l-.1.8-1.2 2v.2l-4 .1L9 16.8q-1.3 2.3-2 2.3l-2.6-.2-2.9-.5zm6.4-16Q6.9.6 8.1.1l1.1.8-1 .6q-.6.6-1.5.2m2.5-.2.9.1.4.5-1 .7-.7-1z"/><path fill="none" stroke="#9d7e37" stroke-linecap="round" stroke-linejoin="round" stroke-width="__RESOLUTION__" d="M15.3 4.6q0-.7-.4-1.2t-1.1-.3l-.6.4v.3q0 .2.3.3m1.8.5-.8.9h-1l-1.2 1.9q-.7 1.4-.6 2.9l.1 2.3v1.6l-.3 1.8q-.3 1-1.1 2.2L9 19.9l-1.2.6-1.2.5-.1.8Q6 23.2 5.8 23l-1.7-.8M4 20.8 2.8 20l-.1.4m-.2 1.1L1 20.3m0-1.8-.7-.8q-.4-1.7.2-3.6l.7-1.7.1-.2.1-.2q1.5-2.5 2.8-3l1-.8m2-4.8-.5-1.6Q6.9.6 8.1.1l1.1.8v.6h-.1l-.3.4m1.7.2L9.4 3.5h-1l-.9 3.1-.4 1h.4q1.8-.1 2.8 1.8m1.4-3.6.3-.5-.7-.4-.3-.8.8-1 1.4.4M6.8 8l.3-.4M4 20.6l1 .2 1.5.1v.1M5 20.8l-1-.2m-3-2.1L2.8 20" vector-effect="non-scaling-stroke"/><path fill="none" stroke="#3f2f16" stroke-linecap="round" stroke-linejoin="round" stroke-width="__RESOLUTION__" d="m2.7 20.4-.2 1.1" vector-effect="non-scaling-stroke"/><path fill="#6b582c" d="M3 10.2q-.1.6.1 1.2l.9.5q.4.4 1 .1l-1.2 1.2q-1.3 0-1.7-1.4zm4 1.3-.3 1.4 2.6.7-.8.9h-.9q-1.3-.1-1.8-1.4 0-.9 1.3-1.6"/><path fill="#3f2f16" d="M5 12q-.5.4-1 0l-.9-.6q-.2-.6 0-1.2l.4-.6 1.2-.4q.7.8.8 2.2zm2-.5h2.5v.8l-.2 1.3-2.6-.7z"/></g><g id="h"><path fill="#d2c086" d="m6 .5 1.6 1.3v.8l1 .5v1.8l-1-.9v-.6L5.9 1.8zm1.8 6.3-.8.6-1 .7-.5-.5-.3.3.2-.3h-.3l.2-.2 1-1 .4-.4-1.2-1 .6-1.3 1.5 1.2v.2l-.5.5 1.1.9zm-.8.6-.7-1z"/><path fill="#f9efd0" d="m6 .5-.1 1.3-.3-.3H3.4L1.9 3.3l-.3-.8v-1l1-1.4h2.8zM7.6 4l1 .9v1.2l-.4.4-1.1-.9.5-.5zm1-.9-1-.5V1.1l1 .7v.4zm-3.1 2-1-.9-1.6 1.2L2.3 4l2.4-1.2h.1l1.3.9z"/><path fill="#64532d" d="M8.7 4.9V3.6l1 1.7-.2.8zM9 7.2l-1.3.4v-.8l.4-.3z"/><path fill="#b8a05f" d="M8.7 3.6v-.5l-.1-1 1.3 2-.2 1.2zm.8 2.5-.2 1H9l-.8-.6.5-.4V4.9zM6 8.1l-.2.1-.3.2.8.4.3 1.8-1.1 1.3-2.3-.7-.7-1.5-2.5-1V6l3-.6.8 2.6H4l1.2-.4h.4l-.3.3.3-.4zm-4.8.4 1.5-.4-.1-1L.9 7zM4 10.8h1.5l-.1-1.4-1.8.4z"/><path fill="none" stroke="#8e7439" stroke-linecap="round" stroke-linejoin="round" stroke-width="__RESOLUTION__" d="m5.9 1.8 1.7 1.6V5l-.5.5m-.8.9.4-.5-1.2-1-1-.8h0L2.9 5.3 2.3 4M2.6.1l-1 1.4v1l.3.8 1.4-1.8h2.4l.2.3m.4 4.7.7.9" vector-effect="non-scaling-stroke"/><path fill="none" stroke="#685528" stroke-linecap="round" stroke-linejoin="round" stroke-width="__RESOLUTION__" d="m5.9 8.3-.3.1m.8.4.3 1.8-1.1 1.3-2.3-.6-.7-1.6-2.5-1V6M3 5.4 3.9 8h0l1.2-.3.4-.1" vector-effect="non-scaling-stroke"/></g><g id="g"><path fill="#f5eec5" d="m9.5 1.1.7-1 1.5.5.6-.5 1.2.3.3 1.2-.5.2-.6.3q-.4 0-.6-.3l-.3-1-.8 1-1-.4z"/><path fill="#d2c086" d="m9.5 1.1.5.3 1 .5.8-1 .3.9q.2.3.6.3l.6-.3.5-.2-.8.9h-1l-1.8 3.7h.4l1 1.7.2 4q-.3 2.4-1.5 4-1.7 2-2.5 2.2l-2.8.3-2.5-.7-2.2-2.3q1.3 1 4 1.1l2.7.3q.5-.1 4-6.1l-.3-2.9-2.5.4-2.8 1.4.3-.9.3-1 4-1.3-.5-.8V5l1.1-2.6-.2.5.2-.5-.7-.3zM5.4 5.8v-.4L5 3.8l1.2.6L7.5 3v.6h-.1L7 4l.7.9 1-.7-.8 1-.3.5h-1l-.6 2-.3 1-.4.9h-.1l-1.7.3zm4.8.4-.7-.7-.1-.1z"/><path fill="#f1eac2" d="M.3 15.4q-.4-1.8.2-3.7.3-1.1 2-3.5 1-1.7 2.8-2.4l-1.7 4 1.7-.2 2.9-1.4 2.6-.4.1 2.8Q7.5 16.8 7 16.8l-2.6-.3q-2.8-.1-4.1-1.1M5 3.8q.2-1.1 1.3-1.6l1.2.8L6 4.3zm2.5-.2.9.1.3.5-.9.7-.7-1zM8 5.2l1.4.3v-.1l.5.8v.1L6 7.8l.6-2.1h1z"/><path fill="none" stroke="#9d7e37" stroke-linecap="round" stroke-linejoin="round" stroke-width="__RESOLUTION__" d="M13.8 1.6 13.5.4 12.3 0l-.6.5-1.4-.5-.9 1 .4.9.7.3-.2.5m3.5-1.2-.8.9h-1l-1.8 3.7h.4l1 1.7v0l.2 4q-.3 2.4-1.5 4-1.7 2-2.5 2.2l-2.8.3-2.5-.7-2.2-2.3q-.5-1.8.2-3.7.3-1.1 2-3.5 1-1.7 2.8-2.4m.1-.4L5 3.8q.3-1.1 1.4-1.6l1.2.8v.6h-.2L7 4m1.7.2-.7 1 1.4.3v-.1h0m0 0 .8.7v.1M6.1 7.7l-.3 1-.4.9v0M8 5.2l-.3.5h-1l-.6 2" vector-effect="non-scaling-stroke"/></g><g id="f"><path fill="#f1eac2" d="m4.4.1.7.9-1.8 1.2.3.2-.3.7-.7.2H2l-.6.6-1.1-.3q-.7-.1.3-.6l-.1-.3.4-.5 1.9-.7L2 1 3.3.2z"/><path fill="#c2a954" d="m1.4 4 .6-.6h.6l.7 1.5 1-.3v1h.1q.3 0 .4.3l-.1.5-.5.2-.6-.2-.8.3h-.2l-.4-.2q.1-1-.1-1.8t-.8-.8"/><path fill="#b69f54" d="m2.2 6.6.4.2h-.4zm.6.2.8-.4.6.2z"/><path fill="none" stroke="#8a733e" stroke-linecap="round" stroke-linejoin="round" stroke-width="__RESOLUTION__" d="M3.3 2.2 5 .8 4.4.1M2.1 1l.7.5M1.4 4l.6-.6h.6l.7-.3.3-.7m-.4 2.5-.7-1.5m1.1 3 .6.2.5-.2m0-.5q0-.2-.3-.2h-.1V4.6" vector-effect="non-scaling-stroke"/></g><g id="e"><path fill="#f1eac2" d="M1.1 7 .9 4.4l8.7.1 1.8-.3.5-1.2.8-.8 2.8.7 1.9 3.3-1.7 1q-3.4 1.7-3.6 1.5l-4.5 4-1.2-.8-.3-1.2L5 9.3.8 11.1 0 7.8l4.8-.1 1-1.1-.2-.7zm5.3 4.8 1.2.8L3 14.2l-1-3.1zm6.3-9.7-.8.8-4.1-.6 1-2.2zm.2 4.4q1.2-.8-.1-2-.5-.4-1.4-.3.9-.1 1.4.4 1.3 1.1.1 1.9M6.5 8.3l6.1-1.7z"/><path fill="none" stroke="#8a733e" stroke-linecap="round" stroke-linejoin="round" stroke-width="__RESOLUTION__" d="M9.6 4.5.9 4.3l.2 2.8m5.3 4.7 1.2.8m5-10.5-.7.8-.5 1.3q.9-.1 1.4.4 1.3 1.1.1 1.9m-.3-4.4L8.8.1l-1 2.2m-1.4 9.5-4.2-.7.9 3.1" vector-effect="non-scaling-stroke"/><path fill="none" stroke="#8a733e" stroke-linecap="round" stroke-linejoin="round" stroke-opacity=".7" stroke-width="__RESOLUTION__" d="M4.9 7.7H.1l.7 3.4m11.8-4.5L6.5 8.3" vector-effect="non-scaling-stroke"/></g><g id="d"><path fill="#c2a954" d="M1.9.8h2l.7-.7.8.6L5 1 4.5.8l-.3.5-.5-.3-.1.5h-2l-.6.4-.6-.2-.2-.6.6-.3L.5.4l1-.3z"/><path fill="#f1eac2" d="M5 1h.2l.3.5-.5.7V3h.6v.7H5l.9.2-.6 1.6h.1l.5.9-.3.8.2.1-.6.9-.7-.5-.2.3-.2-.3-.1-.8h.5l.2-1.5-.2-.1-.4.9-.6-.1v.3l-1 .4.1-1.1.8.1.5-.1.5-.7-.2-.5-.8-.2v.8h-.7v-1l.5.2h.2l.1-.3.8.3.1-.2h-.6l-.3-.2v-.4l.8-.4-.1-.9-.8-.3v-.4l.2-.4.5.2.3-.4zm.2 4.7-.1-.2h-.2l.4 1.1-.2.2.1.2.3-.4-.2-1zM5 6.8h-.5z"/><path fill="none" stroke="#8a733e" stroke-linecap="round" stroke-linejoin="round" stroke-width="__RESOLUTION__" d="m4.3 8-.2-.3-.1-.8h.9l.2-.1m-2.6 0 .1-1.1.9.1.4-.1m.5-.7-.1-.5m-.8.6h-.8v-1l.5.2m.4-.4v-.4l.8-.4-.2-.9-.8-.3v-.4H1.6l-.6.4-.6-.2-.2-.6.6-.3M.5.4l1-.3.4.7m1.7.3-.1.4m.9-.6-.3.4" vector-effect="non-scaling-stroke"/></g><use xlink:href="#a" id="c" width="14.7" height="4.3"/></defs><g clip-path="url(#b)"><g transform="translate(18.6 28.65)"><use xlink:href="#c" width="14.7" height="4.3" transform="matrix(.548 0 0 .6575 -3.05 -1.2)"/><use xlink:href="#d" width="5.9" height="8.2" transform="rotate(71.075 8.615 -8.585)scale(-.9903 .9903)"/><use xlink:href="#e" width="17.4" height="14.3" transform="matrix(-.1147 .27 .4057 .1762 -5.9 -5.5)"/><use xlink:href="#e" width="17.4" height="14.3" transform="matrix(-.3443 -.0957 .1136 -.4084 6.1 5.85)"/><use xlink:href="#f" width="5.2" height="6.8" transform="matrix(-.6977 .7132 .7132 .6977 -3.95 -8.3)"/><use xlink:href="#f" width="5.2" height="6.8" transform="matrix(-.6713 .7368 .7368 .6713 1.35 -5.75)"/><use xlink:href="#g" width="13.9" height="18.5" transform="matrix(-.9863 .1536 .1536 .9863 8.85 -24.7)"/><use xlink:href="#d" width="5.9" height="8.2" transform="rotate(-10.18 -37.987 -56.286)scale(.9935)"/><use xlink:href="#h" width="9.9" height="12" transform="matrix(-.4805 -.8743 -.8743 .4805 6.2 -4.05)"/></g></g><g clip-path="url(#i)"><g transform="translate(73.6 28.65)"><use xlink:href="#c" width="14.7" height="4.3" transform="matrix(.548 0 0 .6575 -3.05 -1.2)"/><use xlink:href="#d" width="5.9" height="8.2" transform="matrix(-.1686 -.975 -.8575 .4921 -1.75 -14.3)"/><use xlink:href="#e" width="17.4" height="14.3" transform="matrix(-.1147 .27 .4057 .1762 -5.9 -5.5)"/><use xlink:href="#e" width="17.4" height="14.3" transform="matrix(-.3443 -.0957 .1136 -.4084 6.1 5.85)"/><use xlink:href="#f" width="5.2" height="6.8" transform="matrix(-.6964 .7119 .7119 .6964 -4 -8.3)"/><use xlink:href="#f" width="5.2" height="6.8" transform="matrix(-.6703 .7352 .7352 .6703 1.3 -5.7)"/><use xlink:href="#g" width="13.9" height="18.5" transform="matrix(-.9973 -.0183 -.0183 .9973 11.4 -23.1)"/><use xlink:href="#d" width="5.9" height="8.2" transform="rotate(-10.18 -37.987 -56.286)scale(.9935)"/><use xlink:href="#h" width="9.9" height="12" transform="rotate(63.443 6.158 3.18)scale(-.9962 .9962)"/></g></g><g clip-path="url(#j)"><g transform="translate(128.6 28.65)"><use xlink:href="#c" width="14.7" height="4.3" transform="matrix(.548 0 0 .6575 -3.05 -1.2)"/><use xlink:href="#d" width="5.9" height="8.2" transform="matrix(-.0173 -.9894 -.7448 .6494 -1.25 -14.6)"/><use xlink:href="#e" width="17.4" height="14.3" transform="matrix(-.1147 .27 .4057 .1762 -5.9 -5.5)"/><use xlink:href="#e" width="17.4" height="14.3" transform="matrix(-.3443 -.0957 .1136 -.4084 6.1 5.85)"/><use xlink:href="#f" width="5.2" height="6.8" transform="matrix(-.6963 .7117 .7117 .6963 -4 -8.3)"/><use xlink:href="#f" width="5.2" height="6.8" transform="matrix(-.6702 .7351 .7351 .6702 1.3 -5.7)"/><use xlink:href="#g" width="13.9" height="18.5" transform="rotate(9.298 139.18 71.31)scale(-.9965 .9965)"/><use xlink:href="#d" width="5.9" height="8.2" transform="matrix(.9779 -.1756 .1756 .9779 7 -4)"/><use xlink:href="#h" width="9.9" height="12" transform="matrix(-.41 -.9078 -.9078 .41 6.45 -3.45)"/></g></g><g clip-path="url(#k)"><g transform="translate(183.6 28.65)"><use xlink:href="#c" width="14.7" height="4.3" transform="matrix(.548 0 0 .6575 -3.05 -1.2)"/><use xlink:href="#d" width="5.9" height="8.2" transform="matrix(.1342 -.9798 -.6064 .7798 -.7 -14.65)"/><use xlink:href="#e" width="17.4" height="14.3" transform="matrix(-.1147 .27 .4057 .1762 -5.9 -5.5)"/><use xlink:href="#e" width="17.4" height="14.3" transform="matrix(-.3443 -.0957 .1136 -.4084 6.1 5.85)"/><use xlink:href="#f" width="5.2" height="6.8" transform="matrix(-.6962 .7116 .7116 .6962 -4 -8.3)"/><use xlink:href="#f" width="5.2" height="6.8" transform="matrix(-.6701 .7349 .7349 .6701 1.3 -5.7)"/><use xlink:href="#g" width="13.9" height="18.5" transform="rotate(15.785 80.232 43.1)scale(-.9959 .9959)"/><use xlink:href="#d" width="5.9" height="8.2" transform="matrix(.1813 .9716 .9716 -.1812 6.05 -.45)"/><use xlink:href="#h" width="9.9" height="12" transform="matrix(-.3741 -.9232 -.9232 .3741 6.5 -3.1)"/></g></g><g clip-path="url(#l)"><g transform="translate(238.6 28.65)"><use xlink:href="#c" width="14.7" height="4.3" transform="matrix(.548 0 0 .6575 -3.05 -1.2)"/><use xlink:href="#d" width="5.9" height="8.2" transform="matrix(.2856 -.9459 -.4458 .8815 -.3 -14.75)"/><use xlink:href="#e" width="17.4" height="14.3" transform="matrix(-.1147 .27 .4057 .1762 -5.9 -5.5)"/><use xlink:href="#e" width="17.4" height="14.3" transform="matrix(-.3443 -.0957 .1136 -.4084 6.1 5.85)"/><use xlink:href="#f" width="5.2" height="6.8" transform="matrix(-.696 .7115 .7115 .696 -4 -8.3)"/><use xlink:href="#f" width="5.2" height="6.8" transform="matrix(-.67 .7348 .7348 .67 1.3 -5.7)"/><use xlink:href="#g" width="13.9" height="18.5" transform="matrix(-.9334 -.3455 -.3455 .9334 15.6 -19.3)"/><use xlink:href="#d" width="5.9" height="8.2" transform="matrix(-.0089 .9887 .9886 .0089 4.75 -.4)"/><use xlink:href="#h" width="9.9" height="12" transform="rotate(70.188 5.339 3.21)scale(-.996 .996)"/></g></g><g clip-path="url(#m)"><g transform="translate(293.6 28.65)"><use xlink:href="#c" width="14.7" height="4.3" transform="matrix(.548 0 0 .6575 -3.05 -1.2)"/><use xlink:href="#d" width="5.9" height="8.2" transform="matrix(.4299 -.8889 -.2688 .9507 .25 -14.6)"/><use xlink:href="#e" width="17.4" height="14.3" transform="matrix(-.1147 .27 .4057 .1762 -5.9 -5.5)"/><use xlink:href="#e" width="17.4" height="14.3" transform="matrix(-.3443 -.0957 .1136 -.4084 6.1 5.85)"/><use xlink:href="#f" width="5.2" height="6.8" transform="matrix(-.6959 .7114 .7114 .6959 -4.05 -8.3)"/><use xlink:href="#f" width="5.2" height="6.8" transform="matrix(-.6699 .7347 .7347 .6699 1.25 -5.65)"/><use xlink:href="#g" width="13.9" height="18.5" transform="rotate(23.063 53.927 30.35)scale(-.995 .995)"/><use xlink:href="#d" width="5.9" height="8.2" transform="matrix(-.198 .9685 .9684 .198 3.5 -.55)"/><use xlink:href="#h" width="9.9" height="12" transform="rotate(72.435 4.982 3.222)scale(-.996 .996)"/></g></g><g clip-path="url(#n)"><g transform="translate(348.6 28.65)"><use xlink:href="#c" width="14.7" height="4.3" transform="matrix(.548 0 0 .6575 -3.05 -1.2)"/><use xlink:href="#d" width="5.9" height="8.2" transform="matrix(.5636 -.8101 -.0821 .9848 .65 -14.3)"/><use xlink:href="#e" width="17.4" height="14.3" transform="matrix(-.1147 .27 .4057 .1762 -5.9 -5.5)"/><use xlink:href="#e" width="17.4" height="14.3" transform="matrix(-.3443 -.0957 .1136 -.4084 6.1 5.85)"/><use xlink:href="#f" width="5.2" height="6.8" transform="matrix(-.6958 .7112 .7112 .6958 -4.05 -8.3)"/><use xlink:href="#f" width="5.2" height="6.8" transform="matrix(-.6698 .7345 .7345 .6698 1.25 -5.65)"/><use xlink:href="#g" width="13.9" height="18.5" transform="matrix(-.9097 -.4061 -.4061 .9097 16.45 -18.4)"/><use xlink:href="#d" width="5.9" height="8.2" transform="matrix(-.3829 .9112 .9112 .3829 2.3 -.9)"/><use xlink:href="#h" width="9.9" height="12" transform="rotate(74.525 4.705 3.32)scale(-.997 .997)"/></g></g><g clip-path="url(#o)"><g transform="translate(403.6 28.65)"><use xlink:href="#c" width="14.7" height="4.3" transform="matrix(.548 0 0 .6575 -3.05 -1.2)"/><use xlink:href="#d" width="5.9" height="8.2" transform="matrix(.6833 -.7115 .1043 .9823 .85 -13.9)"/><use xlink:href="#e" width="17.4" height="14.3" transform="matrix(-.1147 .27 .4057 .1762 -5.9 -5.5)"/><use xlink:href="#e" width="17.4" height="14.3" transform="matrix(-.3443 -.0957 .1136 -.4084 6.1 5.85)"/><use xlink:href="#f" width="5.2" height="6.8" transform="matrix(-.6957 .7111 .7111 .6957 -4.05 -8.3)"/><use xlink:href="#f" width="5.2" height="6.8" transform="matrix(-.6697 .7344 .7344 .6697 1.25 -5.65)"/><use xlink:href="#g" width="13.9" height="18.5" transform="rotate(23.788 52 29.708)scale(-.995 .995)"/><use xlink:href="#d" width="5.9" height="8.2" transform="matrix(-.5507 .8208 .8208 .5507 1.15 -1.4)"/><use xlink:href="#h" width="9.9" height="12" transform="matrix(-.3333 -.9384 -.9384 .3333 6.6 -2.9)"/></g></g><g clip-path="url(#p)"><g transform="translate(458.6 28.65)"><use xlink:href="#c" width="14.7" height="4.3" transform="matrix(.548 0 0 .6575 -3.05 -1.2)"/><use xlink:href="#d" width="5.9" height="8.2" transform="matrix(.7842 -.598 .293 .9424 1.2 -13.4)"/><use xlink:href="#e" width="17.4" height="14.3" transform="matrix(-.1147 .27 .4057 .1762 -5.9 -5.5)"/><use xlink:href="#e" width="17.4" height="14.3" transform="matrix(-.3443 -.0957 .1136 -.4084 6.1 5.85)"/><use xlink:href="#f" width="5.2" height="6.8" transform="matrix(-.6955 .7109 .7109 .6955 -4.05 -8.3)"/><use xlink:href="#f" width="5.2" height="6.8" transform="matrix(-.6696 .7343 .7343 .6696 1.25 -5.65)"/><use xlink:href="#g" width="13.9" height="18.5" transform="matrix(-.917 -.386 -.386 .917 16.2 -18.65)"/><use xlink:href="#d" width="5.9" height="8.2" transform="matrix(-.7005 .6977 .6977 .7005 .2 -1.95)"/><use xlink:href="#h" width="9.9" height="12" transform="matrix(-.4016 -.911 -.911 .4016 6.5 -3.65)"/></g></g><g clip-path="url(#q)"><g transform="translate(513.6 28.65)"><use xlink:href="#c" width="14.7" height="4.3" transform="matrix(.548 0 0 .6575 -3.05 -1.2)"/><use xlink:href="#d" width="5.9" height="8.2" transform="matrix(.8692 -.4685 .4686 .8692 1.35 -12.85)"/><use xlink:href="#e" width="17.4" height="14.3" transform="matrix(-.1147 .27 .4057 .1762 -5.9 -5.5)"/><use xlink:href="#e" width="17.4" height="14.3" transform="matrix(-.3443 -.0957 .1136 -.4084 6.1 5.85)"/><use xlink:href="#f" width="5.2" height="6.8" transform="matrix(-.6965 .712 .712 .6965 -4 -8.3)"/><use xlink:href="#f" width="5.2" height="6.8" transform="matrix(-.6705 .7354 .7354 .6705 1.3 -5.7)"/><use xlink:href="#g" width="13.9" height="18.5" transform="matrix(-.9254 -.3654 -.3654 .9254 16 -18.95)"/><use xlink:href="#d" width="5.9" height="8.2" transform="matrix(-.8234 .5511 .5511 .8233 -.7 -2.5)"/><use xlink:href="#h" width="9.9" height="12" transform="rotate(62.163 6.833 3.175)scale(-.9954 .9954)"/></g></g><g clip-path="url(#r)"><g transform="translate(568.6 28.65)"><use xlink:href="#c" width="14.7" height="4.3" transform="matrix(.548 0 0 .6575 -3.05 -1.2)"/><use xlink:href="#d" width="5.9" height="8.2" transform="matrix(.7344 -.6575 .6575 .7345 .6 -13.7)"/><use xlink:href="#e" width="17.4" height="14.3" transform="matrix(-.1147 .27 .4057 .1762 -5.9 -5.5)"/><use xlink:href="#e" width="17.4" height="14.3" transform="matrix(-.3443 -.0957 .1136 -.4084 6.1 5.85)"/><use xlink:href="#f" width="5.2" height="6.8" transform="matrix(-.7345 .6704 .6704 .7345 -3.75 -8.4)"/><use xlink:href="#f" width="5.2" height="6.8" transform="matrix(-.7012 .7037 .7037 .7012 1.45 -5.85)"/><use xlink:href="#g" width="13.9" height="18.5" transform="rotate(-160.434 6.161 -11)scale(.995 -.995)"/><use xlink:href="#d" width="5.9" height="8.2" transform="matrix(-.8354 .5293 .5293 .8354 -.55 -2.75)"/><use xlink:href="#h" width="9.9" height="12" transform="matrix(-.5285 -.8433 -.8433 .5285 6.3 -5.15)"/></g></g><g clip-path="url(#s)"><g transform="translate(623.6 28.65)"><use xlink:href="#c" width="14.7" height="4.3" transform="matrix(.548 0 0 .6575 -3.05 -1.2)"/><use xlink:href="#d" width="5.9" height="8.2" transform="matrix(.5741 -.8014 .8014 .5742 -.3 -14.35)"/><use xlink:href="#e" width="17.4" height="14.3" transform="matrix(-.1147 .27 .4057 .1762 -5.9 -5.5)"/><use xlink:href="#e" width="17.4" height="14.3" transform="matrix(-.3443 -.0957 .1136 -.4084 6.1 5.85)"/><use xlink:href="#f" width="5.2" height="6.8" transform="matrix(-.7688 .6308 .6308 .7688 -3.5 -8.5)"/><use xlink:href="#f" width="5.2" height="6.8" transform="matrix(-.7337 .6698 .6698 .7337 1.75 -6)"/><use xlink:href="#g" width="13.9" height="18.5" transform="matrix(-.9511 -.292 -.292 .9511 15.1 -19.85)"/><use xlink:href="#d" width="5.9" height="8.2" transform="matrix(-.8467 .5104 .5104 .8467 -.35 -3.1)"/><use xlink:href="#h" width="9.9" height="12" transform="rotate(53.879 8.732 3.176)scale(-.995 .995)"/></g></g><g clip-path="url(#t)"><g transform="translate(678.6 28.65)"><use xlink:href="#c" width="14.7" height="4.3" transform="matrix(.548 0 0 .6575 -3.05 -1.2)"/><use xlink:href="#d" width="5.9" height="8.2" transform="matrix(.4021 -.9003 .9004 .4021 -1.15 -14.75)"/><use xlink:href="#e" width="17.4" height="14.3" transform="matrix(-.1147 .27 .4057 .1762 -5.9 -5.5)"/><use xlink:href="#e" width="17.4" height="14.3" transform="matrix(-.3443 -.0957 .1136 -.4084 6.1 5.85)"/><use xlink:href="#f" width="5.2" height="6.8" transform="matrix(-.8008 .5897 .5897 .8008 -3.15 -8.65)"/><use xlink:href="#f" width="5.2" height="6.8" transform="matrix(-.76 .6397 .6397 .76 2 -6.2)"/><use xlink:href="#g" width="13.9" height="18.5" transform="rotate(14.06 89.99 48.795)scale(-.995 .995)"/><use xlink:href="#d" width="5.9" height="8.2" transform="matrix(-.8576 .4913 .4913 .8575 -.2 -3.4)"/><use xlink:href="#h" width="9.9" height="12" transform="matrix(-.6443 -.7582 -.7582 .6443 6 -6.4)"/></g></g><g clip-path="url(#u)"><g transform="translate(733.6 28.65)"><use xlink:href="#c" width="14.7" height="4.3" transform="matrix(.548 0 0 .6575 -3.05 -1.2)"/><use xlink:href="#d" width="5.9" height="8.2" transform="matrix(.2272 -.9599 .96 .2272 -2 -14.9)"/><use xlink:href="#e" width="17.4" height="14.3" transform="matrix(-.1147 .27 .4057 .1762 -5.9 -5.5)"/><use xlink:href="#e" width="17.4" height="14.3" transform="matrix(-.3443 -.0957 .1136 -.4084 6.1 5.85)"/><use xlink:href="#f" width="5.2" height="6.8" transform="matrix(-.8286 .5501 .5501 .8286 -3 -8.8)"/><use xlink:href="#f" width="5.2" height="6.8" transform="matrix(-.7869 .6062 .6062 .7869 2.15 -6.35)"/><use xlink:href="#g" width="13.9" height="18.5" transform="rotate(10.54 120.99 64.008)scale(-.995 .995)"/><use xlink:href="#d" width="5.9" height="8.2" transform="matrix(-.8696 .4691 .4691 .8695 -.1 -3.7)"/><use xlink:href="#h" width="9.9" height="12" transform="matrix(-.6986 -.7084 -.7084 .6986 5.7 -7)"/></g></g><g clip-path="url(#v)"><g transform="translate(788.6 28.65)"><use xlink:href="#c" width="14.7" height="4.3" transform="matrix(.548 0 0 .6575 -3.05 -1.2)"/><use xlink:href="#d" width="5.9" height="8.2" transform="rotate(-86.247 -9.383 -6.032)scale(.987)"/><use xlink:href="#e" width="17.4" height="14.3" transform="matrix(-.1147 .27 .4057 .1762 -5.9 -5.5)"/><use xlink:href="#e" width="17.4" height="14.3" transform="matrix(-.3443 -.0957 .1136 -.4084 6.1 5.85)"/><use xlink:href="#f" width="5.2" height="6.8" transform="matrix(-.8542 .5095 .5095 .8542 -2.75 -8.85)"/><use xlink:href="#f" width="5.2" height="6.8" transform="matrix(-.8103 .5746 .5746 .8103 2.3 -6.45)"/><use xlink:href="#g" width="13.9" height="18.5" transform="rotate(6.51 198.544 102.06)scale(-.995 .995)"/><use xlink:href="#d" width="5.9" height="8.2" transform="matrix(-.8795 .4496 .4496 .8795 .1 -4)"/><use xlink:href="#h" width="9.9" height="12" transform="rotate(41.349 12.754 3.512)scale(-.995 .995)"/></g></g><g clip-path="url(#w)"><g transform="translate(843.6 28.65)"><use xlink:href="#c" width="14.7" height="4.3" transform="matrix(.548 0 0 .6575 -3.05 -1.2)"/><use xlink:href="#d" width="5.9" height="8.2" transform="rotate(-95.017 -8.575 -5.847)scale(.9869)"/><use xlink:href="#e" width="17.4" height="14.3" transform="matrix(-.1147 .27 .4057 .1762 -5.9 -5.5)"/><use xlink:href="#e" width="17.4" height="14.3" transform="matrix(-.3443 -.0957 .1136 -.4084 6.1 5.85)"/><use xlink:href="#f" width="5.2" height="6.8" transform="matrix(-.8777 .4682 .4682 .8777 -2.55 -8.9)"/><use xlink:href="#f" width="5.2" height="6.8" transform="matrix(-.8323 .5424 .5424 .8323 2.5 -6.5)"/><use xlink:href="#g" width="13.9" height="18.5" transform="rotate(1.78 731.718 370.14)scale(-.995 .995)"/><use xlink:href="#d" width="5.9" height="8.2" transform="matrix(-.889 .4297 .4297 .889 .3 -4.3)"/><use xlink:href="#h" width="9.9" height="12" transform="rotate(37.112 14.69 3.77)scale(-.995 .995)"/></g></g><g clip-path="url(#x)"><g transform="translate(898.6 28.65)"><use xlink:href="#c" width="14.7" height="4.3" transform="matrix(.548 0 0 .6575 -3.05 -1.2)"/><use xlink:href="#d" width="5.9" height="8.2" transform="rotate(257.197 -7.912 -5.759)scale(.9864)"/><use xlink:href="#e" width="17.4" height="14.3" transform="matrix(-.1147 .27 .4057 .1762 -5.9 -5.5)"/><use xlink:href="#e" width="17.4" height="14.3" transform="matrix(-.3443 -.0957 .1136 -.4084 6.1 5.85)"/><use xlink:href="#f" width="5.2" height="6.8" transform="matrix(-.8975 .4291 .4291 .8975 -2.35 -9.05)"/><use xlink:href="#f" width="5.2" height="6.8" transform="matrix(-.851 .5124 .5124 .851 2.7 -6.65)"/><use xlink:href="#g" width="13.9" height="18.5" transform="matrix(-.9931 .0568 .0568 .9931 10.55 -23.4)"/><use xlink:href="#d" width="5.9" height="8.2" transform="matrix(-.8994 .4068 .4068 .8994 .5 -4.55)"/><use xlink:href="#h" width="9.9" height="12" transform="rotate(33.06 16.88 4.065)scale(-.9949 .9949)"/></g></g><g clip-path="url(#y)"><g transform="translate(953.6 28.65)"><use xlink:href="#c" width="14.7" height="4.3" transform="matrix(.548 0 0 .6575 -3.05 -1.2)"/><use xlink:href="#d" width="5.9" height="8.2" transform="matrix(-.3341 -.9277 .9278 -.3341 -4.55 -14.55)"/><use xlink:href="#e" width="17.4" height="14.3" transform="matrix(-.1147 .27 .4057 .1762 -5.9 -5.5)"/><use xlink:href="#e" width="17.4" height="14.3" transform="matrix(-.3443 -.0957 .1136 -.4084 6.1 5.85)"/><use xlink:href="#f" width="5.2" height="6.8" transform="matrix(-.9155 .3896 .3896 .9155 -2.15 -9.05)"/><use xlink:href="#f" width="5.2" height="6.8" transform="matrix(-.8702 .4792 .4792 .8702 2.9 -6.7)"/><use xlink:href="#g" width="13.9" height="18.5" transform="matrix(-.9818 .156 .156 .9818 9.05 -24.3)"/><use xlink:href="#d" width="5.9" height="8.2" transform="matrix(-.908 .3866 .3866 .9079 .6 -4.95)"/><use xlink:href="#h" width="9.9" height="12" transform="rotate(28.824 19.933 4.522)scale(-.995 .995)"/></g></g><g clip-path="url(#z)"><g transform="translate(1008.6 28.65)"><use xlink:href="#c" width="14.7" height="4.3" transform="matrix(.548 0 0 .6575 -3.05 -1.2)"/><use xlink:href="#d" width="5.9" height="8.2" transform="matrix(-.4294 -.8873 .8874 -.4295 -4.9 -14.3)"/><use xlink:href="#e" width="17.4" height="14.3" transform="matrix(-.1147 .27 .4057 .1762 -5.9 -5.5)"/><use xlink:href="#e" width="17.4" height="14.3" transform="matrix(-.3443 -.0957 .1136 -.4084 6.1 5.85)"/><use xlink:href="#f" width="5.2" height="6.8" transform="matrix(-.9315 .3497 .3497 .9315 -2 -9.05)"/><use xlink:href="#f" width="5.2" height="6.8" transform="matrix(-.8864 .4486 .4486 .8864 3 -6.8)"/><use xlink:href="#g" width="13.9" height="18.5" transform="matrix(-.9583 .2621 .2621 .9583 7.25 -25.05)"/><use xlink:href="#d" width="5.9" height="8.2" transform="matrix(-.916 .3662 .3662 .916 .85 -5.25)"/><use xlink:href="#h" width="9.9" height="12" transform="matrix(-.9048 -.414 -.414 .9048 4.3 -9.4)"/></g></g><g clip-path="url(#A)"><g transform="translate(1063.6 28.65)"><use xlink:href="#c" width="14.7" height="4.3" transform="matrix(.548 0 0 .6575 -3.05 -1.2)"/><use xlink:href="#d" width="5.9" height="8.2" transform="matrix(-.5083 -.8443 .8444 -.5084 -5.25 -14.1)"/><use xlink:href="#e" width="17.4" height="14.3" transform="matrix(-.1147 .27 .4057 .1762 -5.9 -5.5)"/><use xlink:href="#e" width="17.4" height="14.3" transform="matrix(-.3443 -.0957 .1136 -.4084 6.1 5.85)"/><use xlink:href="#f" width="5.2" height="6.8" transform="matrix(-.9447 .3127 .3127 .9447 -1.8 -9.15)"/><use xlink:href="#f" width="5.2" height="6.8" transform="matrix(-.9 .4208 .4208 .9 3.2 -6.85)"/><use xlink:href="#g" width="13.9" height="18.5" transform="matrix(-.92 .3734 .3734 .92 5.4 -25.75)"/><use xlink:href="#d" width="5.9" height="8.2" transform="matrix(-.9249 .3427 .3427 .9248 1 -5.55)"/><use xlink:href="#h" width="9.9" height="12" transform="rotate(20.542 28.652 6.35)scale(-.9952 .9952)"/></g></g><g clip-path="url(#B)"><g transform="translate(1118.6 28.65)"><use xlink:href="#c" width="14.7" height="4.3" transform="matrix(.548 0 0 .6575 -3.05 -1.2)"/><use xlink:href="#d" width="5.9" height="8.2" transform="matrix(-.5667 -.8062 .8063 -.5667 -5.45 -13.9)"/><use xlink:href="#e" width="17.4" height="14.3" transform="matrix(-.1147 .27 .4057 .1762 -5.9 -5.5)"/><use xlink:href="#e" width="17.4" height="14.3" transform="matrix(-.3443 -.0957 .1136 -.4084 6.1 5.85)"/><use xlink:href="#f" width="5.2" height="6.8" transform="matrix(-.9554 .2787 .2787 .9554 -1.65 -9.2)"/><use xlink:href="#f" width="5.2" height="6.8" transform="matrix(-.9126 .3927 .3927 .9126 3.35 -6.95)"/><use xlink:href="#g" width="13.9" height="18.5" transform="matrix(-.863 .4899 .4899 .863 3.15 -26.2)"/><use xlink:href="#d" width="5.9" height="8.2" transform="matrix(-.932 .3219 .3219 .9319 1.15 -5.9)"/><use xlink:href="#h" width="9.9" height="12" transform="matrix(-.9553 -.2795 -.2795 .9553 3.7 -10)"/></g></g><g clip-path="url(#C)"><g transform="translate(1173.6 28.65)"><use xlink:href="#c" width="14.7" height="4.3" transform="matrix(.548 0 0 .6575 -3.05 -1.2)"/><use xlink:href="#d" width="5.9" height="8.2" transform="matrix(-.6116 -.7726 .7727 -.6116 -5.75 -13.65)"/><use xlink:href="#e" width="17.4" height="14.3" transform="matrix(-.1147 .27 .4057 .1762 -5.9 -5.5)"/><use xlink:href="#e" width="17.4" height="14.3" transform="matrix(-.3443 -.0957 .1136 -.4084 6.1 5.85)"/><use xlink:href="#f" width="5.2" height="6.8" transform="matrix(-.9656 .2417 .2417 .9656 -1.5 -9.2)"/><use xlink:href="#f" width="5.2" height="6.8" transform="matrix(-.9242 .3647 .3647 .9242 3.45 -7.05)"/><use xlink:href="#g" width="13.9" height="18.5" transform="matrix(-.7872 .6058 .6058 .7872 .8 -26.65)"/><use xlink:href="#d" width="5.9" height="8.2" transform="matrix(-.9386 .3011 .3011 .9386 1.35 -6.2)"/><use xlink:href="#h" width="9.9" height="12" transform="matrix(-.9728 -.2115 -.2115 .9728 3.3 -10.25)"/></g></g><g clip-path="url(#D)"><g transform="translate(1228.6 28.65)"><use xlink:href="#c" width="14.7" height="4.3" transform="matrix(.548 0 0 .6575 -3.05 -1.2)"/><use xlink:href="#d" width="5.9" height="8.2" transform="matrix(-.6418 -.7477 .7478 -.6418 -5.8 -13.55)"/><use xlink:href="#e" width="17.4" height="14.3" transform="matrix(-.1147 .27 .4057 .1762 -5.9 -5.5)"/><use xlink:href="#e" width="17.4" height="14.3" transform="matrix(-.3443 -.0957 .1136 -.4084 6.1 5.85)"/><use xlink:href="#f" width="5.2" height="6.8" transform="matrix(-.9735 .2078 .2078 .9735 -1.35 -9.2)"/><use xlink:href="#f" width="5.2" height="6.8" transform="matrix(-.9348 .3367 .3367 .9348 3.55 -7.05)"/><use xlink:href="#g" width="13.9" height="18.5" transform="matrix(-.4669 .8748 .8748 .4669 -4.55 -25.55)"/><use xlink:href="#d" width="5.9" height="8.2" transform="matrix(-.9457 .277 .277 .9457 1.5 -6.4)"/><use xlink:href="#h" width="9.9" height="12" transform="matrix(-.9859 -.1392 -.1392 .9859 3 -10.45)"/></g></g><g clip-path="url(#E)"><g transform="translate(1283.6 28.65)"><use xlink:href="#c" width="14.7" height="4.3" transform="matrix(.548 0 0 .6575 -3.05 -1.2)"/><use xlink:href="#d" width="5.9" height="8.2" transform="matrix(-.6608 -.7309 .731 -.6608 -5.9 -13.4)"/><use xlink:href="#e" width="17.4" height="14.3" transform="matrix(-.1147 .27 .4057 .1762 -5.9 -5.5)"/><use xlink:href="#e" width="17.4" height="14.3" transform="matrix(-.3443 -.0957 .1136 -.4084 6.1 5.85)"/><use xlink:href="#f" width="5.2" height="6.8" transform="matrix(-.9796 .1774 .1774 .9796 -1.2 -9.25)"/><use xlink:href="#f" width="5.2" height="6.8" transform="matrix(-.9435 .3118 .3118 .9435 3.7 -7.1)"/><use xlink:href="#g" width="13.9" height="18.5" transform="matrix(-.0658 .9902 .9902 .0658 -9.05 -22.45)"/><use xlink:href="#d" width="5.9" height="8.2" transform="matrix(-.9513 .2558 .2558 .9513 1.8 -6.8)"/><use xlink:href="#h" width="9.9" height="12" transform="matrix(-.9937 -.0661 -.0661 .9937 2.65 -10.6)"/></g></g><g clip-path="url(#F)"><g transform="translate(1338.6 28.65)"><use xlink:href="#c" width="14.7" height="4.3" transform="matrix(.548 0 0 .6575 -3.05 -1.2)"/><use xlink:href="#d" width="5.9" height="8.2" transform="rotate(227.414 -5.878 -5.44)scale(.987)"/><use xlink:href="#e" width="17.4" height="14.3" transform="matrix(-.1147 .27 .4057 .1762 -5.9 -5.5)"/><use xlink:href="#e" width="17.4" height="14.3" transform="matrix(-.3443 -.0957 .1136 -.4084 6.1 5.85)"/><use xlink:href="#f" width="5.2" height="6.8" transform="matrix(-.9852 .1439 .1439 .9852 -1.1 -9.2)"/><use xlink:href="#f" width="5.2" height="6.8" transform="matrix(-.9514 .287 .287 .9514 3.85 -7.2)"/><use xlink:href="#G" width="15.4" height="23.1" transform="rotate(69.72 5.015 -21.19)scale(.9922 -.9922)"/><use xlink:href="#d" width="5.9" height="8.2" transform="matrix(-.9571 .2355 .2356 .957 1.95 -7.15)"/><use xlink:href="#h" width="9.9" height="12" transform="matrix(-.996 .0031 .0031 .996 2.4 -10.65)"/></g></g><g clip-path="url(#H)"><g transform="translate(1393.6 28.65)"><use xlink:href="#c" width="14.7" height="4.3" transform="matrix(.548 0 0 .6575 -3.05 -1.2)"/><use xlink:href="#d" width="5.9" height="8.2" transform="matrix(-.6861 -.7075 .7076 -.6861 -5.95 -13.5)"/><use xlink:href="#e" width="17.4" height="14.3" transform="matrix(-.1147 .27 .4057 .1762 -5.9 -5.5)"/><use xlink:href="#e" width="17.4" height="14.3" transform="matrix(-.3443 -.0957 .1136 -.4084 6.1 5.85)"/><use xlink:href="#f" width="5.2" height="6.8" transform="matrix(-.9888 .1172 .1172 .9888 -1 -9.25)"/><use xlink:href="#f" width="5.2" height="6.8" transform="matrix(-.9585 .2623 .2623 .9585 4 -7.3)"/><use xlink:href="#G" width="15.4" height="23.1" transform="rotate(72.194 5 -20.871)scale(.9915 -.9915)"/><use xlink:href="#d" width="5.9" height="8.2" transform="matrix(-.8827 .4363 .4363 .8826 1.15 -6.6)"/><use xlink:href="#h" width="9.9" height="12" transform="matrix(-.996 .0031 .0031 .996 2.4 -10.65)"/></g></g><g clip-path="url(#I)"><g transform="translate(1448.6 28.65)"><use xlink:href="#c" width="14.7" height="4.3" transform="matrix(.548 0 0 .6575 -3.05 -1.2)"/><use xlink:href="#d" width="5.9" height="8.2" transform="matrix(-.7046 -.6893 .6893 -.7047 -6.05 -13.6)"/><use xlink:href="#e" width="17.4" height="14.3" transform="matrix(-.1147 .27 .4057 .1762 -5.9 -5.5)"/><use xlink:href="#e" width="17.4" height="14.3" transform="matrix(-.3443 -.0957 .1136 -.4084 6.1 5.85)"/><use xlink:href="#f" width="5.2" height="6.8" transform="matrix(-.992 .0876 .0876 .992 -.9 -9.25)"/><use xlink:href="#f" width="5.2" height="6.8" transform="matrix(-.9642 .241 .241 .9642 4.05 -7.25)"/><use xlink:href="#G" width="15.4" height="23.1" transform="matrix(.2622 .9566 .9566 -.2622 -16.4 -19.8)"/><use xlink:href="#d" width="5.9" height="8.2" transform="matrix(-.767 .6174 .6174 .7669 .45 -6.05)"/><use xlink:href="#h" width="9.9" height="12" transform="matrix(-.996 .0031 .0031 .996 2.4 -10.65)"/></g></g><g clip-path="url(#J)"><g transform="translate(1503.6 28.65)"><use xlink:href="#c" width="14.7" height="4.3" transform="matrix(.548 0 0 .6575 -3.05 -1.2)"/><use xlink:href="#d" width="5.9" height="8.2" transform="rotate(222.859 -5.764 -5.643)scale(.9859)"/><use xlink:href="#e" width="17.4" height="14.3" transform="matrix(-.1147 .27 .4057 .1762 -5.9 -5.5)"/><use xlink:href="#e" width="17.4" height="14.3" transform="matrix(-.3443 -.0957 .1136 -.4084 6.1 5.85)"/><use xlink:href="#f" width="5.2" height="6.8" transform="matrix(-.994 .0616 .0616 .994 -.8 -9.15)"/><use xlink:href="#f" width="5.2" height="6.8" transform="matrix(-.9692 .2199 .2199 .9692 4.1 -7.25)"/><use xlink:href="#G" width="15.4" height="23.1" transform="matrix(.2238 .9667 .9667 -.2238 -16.2 -20.5)"/><use xlink:href="#d" width="5.9" height="8.2" transform="matrix(-.6148 .7694 .7694 .6148 -.05 -5.65)"/><use xlink:href="#h" width="9.9" height="12" transform="matrix(-.996 .0031 .0031 .996 2.4 -10.65)"/></g></g><g clip-path="url(#K)"><g transform="translate(1558.6 28.65)"><use xlink:href="#c" width="14.7" height="4.3" transform="matrix(.548 0 0 .6575 -3.05 -1.2)"/><use xlink:href="#d" width="5.9" height="8.2" transform="rotate(221.345 -5.738 -5.746)scale(.986)"/><use xlink:href="#e" width="17.4" height="14.3" transform="matrix(-.1147 .27 .4057 .1762 -5.9 -5.5)"/><use xlink:href="#e" width="17.4" height="14.3" transform="matrix(-.3443 -.0957 .1136 -.4084 6.1 5.85)"/><use xlink:href="#f" width="5.2" height="6.8" transform="matrix(-.9952 .0392 .0392 .9952 -.8 -9.2)"/><use xlink:href="#f" width="5.2" height="6.8" transform="matrix(-.9738 .199 .199 .9738 4.25 -7.3)"/><use xlink:href="#G" width="15.4" height="23.1" transform="matrix(.1819 .9758 .9758 -.1819 -16.1 -21.05)"/><use xlink:href="#d" width="5.9" height="8.2" transform="matrix(-.4334 .885 .885 .4334 -.35 -5.4)"/><use xlink:href="#h" width="9.9" height="12" transform="matrix(-.996 .0031 .0031 .996 2.4 -10.65)"/></g></g><g clip-path="url(#L)"><g transform="translate(1613.6 28.65)"><use xlink:href="#c" width="14.7" height="4.3" transform="matrix(.548 0 0 .6575 -3.05 -1.2)"/><use xlink:href="#d" width="5.9" height="8.2" transform="matrix(-.7574 -.6318 .6319 -.7574 -6.3 -13.9)"/><use xlink:href="#e" width="17.4" height="14.3" transform="matrix(-.1147 .27 .4057 .1762 -5.9 -5.5)"/><use xlink:href="#e" width="17.4" height="14.3" transform="matrix(-.3443 -.0957 .1136 -.4084 6.1 5.85)"/><use xlink:href="#f" width="5.2" height="6.8" transform="matrix(-.996 .0139 .0139 .996 -.6 -9.2)"/><use xlink:href="#f" width="5.2" height="6.8" transform="matrix(-.9772 .1816 .1816 .9772 4.3 -7.3)"/><use xlink:href="#G" width="15.4" height="23.1" transform="rotate(81.726 4.592 -20.04)scale(.993 -.993)"/><use xlink:href="#d" width="5.9" height="8.2" transform="matrix(-.2314 .9587 .9587 .2314 -.4 -5.35)"/><use xlink:href="#h" width="9.9" height="12" transform="matrix(-.996 .0031 .0031 .996 2.4 -10.65)"/></g></g><g clip-path="url(#M)"><g transform="translate(1668.6 28.65)"><use xlink:href="#c" width="14.7" height="4.3" transform="matrix(.548 0 0 .6575 -3.05 -1.2)"/><use xlink:href="#d" width="5.9" height="8.2" transform="matrix(-.7739 -.6117 .6118 -.774 -6.3 -13.9)"/><use xlink:href="#e" width="17.4" height="14.3" transform="matrix(-.1147 .27 .4057 .1762 -5.9 -5.5)"/><use xlink:href="#e" width="17.4" height="14.3" transform="matrix(-.3443 -.0957 .1136 -.4084 6.1 5.85)"/><use xlink:href="#f" width="5.2" height="6.8" transform="matrix(-.9961 -.0044 -.0044 .9961 -.5 -9.15)"/><use xlink:href="#f" width="5.2" height="6.8" transform="matrix(-.9803 .1645 .1645 .9803 4.3 -7.4)"/><use xlink:href="#G" width="15.4" height="23.1" transform="matrix(.1004 .9883 .9883 -.1004 -15.8 -22.2)"/><use xlink:href="#d" width="5.9" height="8.2" transform="matrix(-.0216 .9869 .9869 .0216 -.5 -5.5)"/><use xlink:href="#h" width="9.9" height="12" transform="matrix(-.996 .0031 .0031 .996 2.4 -10.65)"/></g></g><g clip-path="url(#N)"><g transform="translate(1723.6 28.65)"><use xlink:href="#c" width="14.7" height="4.3" transform="matrix(.548 0 0 .6575 -3.05 -1.2)"/><use xlink:href="#d" width="5.9" height="8.2" transform="matrix(-.7919 -.5886 .5887 -.7919 -6.45 -14.05)"/><use xlink:href="#e" width="17.4" height="14.3" transform="matrix(-.1147 .27 .4057 .1762 -5.9 -5.5)"/><use xlink:href="#e" width="17.4" height="14.3" transform="matrix(-.3443 -.0957 .1136 -.4084 6.1 5.85)"/><use xlink:href="#f" width="5.2" height="6.8" transform="matrix(-.9958 -.0223 -.0223 .9958 -.45 -9.2)"/><use xlink:href="#f" width="5.2" height="6.8" transform="matrix(-.983 .1477 .1477 .983 4.4 -7.35)"/><use xlink:href="#G" width="15.4" height="23.1" transform="matrix(.0609 .9919 .9919 -.0609 -15.5 -22.75)"/><use xlink:href="#d" width="5.9" height="8.2" transform="matrix(.1894 .9686 .9685 -.1894 -.6 -5.75)"/><use xlink:href="#h" width="9.9" height="12" transform="matrix(-.996 .0031 .0031 .996 2.4 -10.65)"/></g></g><g clip-path="url(#O)"><g transform="translate(1778.6 28.65)"><use xlink:href="#c" width="14.7" height="4.3" transform="matrix(.548 0 0 .6575 -3.05 -1.2)"/><use xlink:href="#d" width="5.9" height="8.2" transform="matrix(-.8073 -.5677 .5677 -.8074 -6.55 -14.2)"/><use xlink:href="#e" width="17.4" height="14.3" transform="matrix(-.1147 .27 .4057 .1762 -5.9 -5.5)"/><use xlink:href="#e" width="17.4" height="14.3" transform="matrix(-.3443 -.0957 .1136 -.4084 6.1 5.85)"/><use xlink:href="#f" width="5.2" height="6.8" transform="matrix(-.9952 -.0397 -.0397 .9952 -.45 -9.2)"/><use xlink:href="#f" width="5.2" height="6.8" transform="matrix(-.9849 .1343 .1343 .9849 4.45 -7.35)"/><use xlink:href="#G" width="15.4" height="23.1" transform="matrix(.0181 .994 .994 -.0181 -15.25 -23.35)"/><use xlink:href="#d" width="5.9" height="8.2" transform="matrix(.3947 .9042 .9042 -.3947 -.65 -6.3)"/><use xlink:href="#h" width="9.9" height="12" transform="matrix(-.996 .0031 .0031 .996 2.4 -10.65)"/></g></g><g clip-path="url(#P)"><g transform="translate(1833.6 28.65)"><use xlink:href="#c" width="14.7" height="4.3" transform="matrix(.548 0 0 .6575 -3.05 -1.2)"/><use xlink:href="#d" width="5.9" height="8.2" transform="rotate(213.602 -5.476 -6.121)scale(.9871)"/><use xlink:href="#e" width="17.4" height="14.3" transform="matrix(-.1147 .27 .4057 .1762 -5.9 -5.5)"/><use xlink:href="#e" width="17.4" height="14.3" transform="matrix(-.3443 -.0957 .1136 -.4084 6.1 5.85)"/><use xlink:href="#f" width="5.2" height="6.8" transform="matrix(-.9943 -.0568 -.0568 .9943 -.4 -9.2)"/><use xlink:href="#f" width="5.2" height="6.8" transform="matrix(-.9866 .1214 .1214 .9866 4.5 -7.4)"/><use xlink:href="#G" width="15.4" height="23.1" transform="matrix(-.0183 .9943 .9943 .0183 -15.1 -23.75)"/><use xlink:href="#d" width="5.9" height="8.2" transform="rotate(53.797 6.5 -4.165)scale(.988 -.988)"/><use xlink:href="#h" width="9.9" height="12" transform="matrix(-.996 .0031 .0031 .996 2.4 -10.65)"/></g></g><g clip-path="url(#Q)"><g transform="translate(1888.6 28.65)"><use xlink:href="#c" width="14.7" height="4.3" transform="matrix(.548 0 0 .6575 -3.05 -1.2)"/><use xlink:href="#d" width="5.9" height="8.2" transform="matrix(-.8365 -.5245 .5246 -.8365 -6.7 -14.4)"/><use xlink:href="#e" width="17.4" height="14.3" transform="matrix(-.1147 .27 .4057 .1762 -5.9 -5.5)"/><use xlink:href="#e" width="17.4" height="14.3" transform="matrix(-.3443 -.0957 .1136 -.4084 6.1 5.85)"/><use xlink:href="#f" width="5.2" height="6.8" transform="matrix(-.9934 -.0701 -.0701 .9934 -.35 -9.25)"/><use xlink:href="#f" width="5.2" height="6.8" transform="matrix(-.9881 .1087 .1087 .9881 4.55 -7.4)"/><use xlink:href="#G" width="15.4" height="23.1" transform="matrix(-.0612 .9926 .9926 .0612 -14.8 -24.35)"/><use xlink:href="#d" width="5.9" height="8.2" transform="matrix(.1682 .9734 .771 -.6159 -1.1 -6.75)"/><use xlink:href="#h" width="9.9" height="12" transform="matrix(-.996 .0031 .0031 .996 2.4 -10.65)"/></g></g><g clip-path="url(#R)"><g transform="translate(1943.6 28.65)"><use xlink:href="#c" width="14.7" height="4.3" transform="matrix(.548 0 0 .6575 -3.05 -1.2)"/><use xlink:href="#d" width="5.9" height="8.2" transform="matrix(-.8502 -.5024 .5024 -.8503 -6.65 -14.5)"/><use xlink:href="#e" width="17.4" height="14.3" transform="matrix(-.1147 .27 .4057 .1762 -5.9 -5.5)"/><use xlink:href="#e" width="17.4" height="14.3" transform="matrix(-.3443 -.0957 .1136 -.4084 6.1 5.85)"/><use xlink:href="#f" width="5.2" height="6.8" transform="matrix(-.9924 -.083 -.083 .9924 -.35 -9.15)"/><use xlink:href="#f" width="5.2" height="6.8" transform="matrix(-.9891 .0996 .0996 .9891 4.6 -7.4)"/><use xlink:href="#G" width="15.4" height="23.1" transform="matrix(-.1007 .9895 .9895 .1007 -14.45 -24.8)"/><use xlink:href="#d" width="5.9" height="8.2" transform="matrix(-.2393 .9585 .7462 -.6461 -1.55 -7.35)"/><use xlink:href="#h" width="9.9" height="12" transform="matrix(-.996 .0031 .0031 .996 2.4 -10.65)"/></g></g><g clip-path="url(#S)"><g transform="translate(1998.6 28.65)"><use xlink:href="#c" width="14.7" height="4.3" transform="matrix(.548 0 0 .6575 -3.05 -1.2)"/><use xlink:href="#d" width="5.9" height="8.2" transform="matrix(-.8633 -.4799 .48 -.8634 -6.85 -14.5)"/><use xlink:href="#e" width="17.4" height="14.3" transform="matrix(-.1147 .27 .4057 .1762 -5.9 -5.5)"/><use xlink:href="#e" width="17.4" height="14.3" transform="matrix(-.3443 -.0957 .1136 -.4084 6.1 5.85)"/><use xlink:href="#f" width="5.2" height="6.8" transform="matrix(-.9912 -.0955 -.0955 .9912 -.35 -9.15)"/><use xlink:href="#f" width="5.2" height="6.8" transform="matrix(-.9903 .0877 .0877 .9903 4.7 -7.45)"/><use xlink:href="#G" width="15.4" height="23.1" transform="matrix(-.1434 .9844 .9844 .1434 -14.1 -25.3)"/><use xlink:href="#d" width="5.9" height="8.2" transform="matrix(-.5751 .8026 .7209 -.6745 -1.8 -8.65)"/><use xlink:href="#h" width="9.9" height="12" transform="matrix(-.996 .0031 .0031 .996 2.4 -10.65)"/></g></g><g clip-path="url(#T)"><g transform="translate(2053.6 28.65)"><use xlink:href="#c" width="14.7" height="4.3" transform="matrix(.548 0 0 .6575 -3.05 -1.2)"/><use xlink:href="#d" width="5.9" height="8.2" transform="matrix(-.8759 -.4571 .4571 -.876 -6.85 -14.7)"/><use xlink:href="#e" width="17.4" height="14.3" transform="matrix(-.1147 .27 .4057 .1762 -5.9 -5.5)"/><use xlink:href="#e" width="17.4" height="14.3" transform="matrix(-.3443 -.0957 .1136 -.4084 6.1 5.85)"/><use xlink:href="#f" width="5.2" height="6.8" transform="matrix(-.9903 -.1043 -.1043 .9903 -.3 -9.2)"/><use xlink:href="#f" width="5.2" height="6.8" transform="matrix(-.9907 .0825 .0825 .9907 4.7 -7.45)"/><use xlink:href="#G" width="15.4" height="23.1" transform="matrix(-.1858 .9774 .9774 .1858 -13.75 -25.75)"/><use xlink:href="#d" width="5.9" height="8.2" transform="matrix(-.8106 .5642 .6998 -.6967 -1.8 -10.2)"/><use xlink:href="#h" width="9.9" height="12" transform="matrix(-.996 .0031 .0031 .996 2.4 -10.65)"/></g></g><g clip-path="url(#U)"><g transform="translate(2108.6 28.65)"><use xlink:href="#c" width="14.7" height="4.3" transform="matrix(.548 0 0 .6575 -3.05 -1.2)"/><use xlink:href="#d" width="5.9" height="8.2" transform="rotate(206.05 -5.162 -6.602)scale(.9883)"/><use xlink:href="#e" width="17.4" height="14.3" transform="matrix(-.1147 .27 .4057 .1762 -5.9 -5.5)"/><use xlink:href="#e" width="17.4" height="14.3" transform="matrix(-.3443 -.0957 .1136 -.4084 6.1 5.85)"/><use xlink:href="#f" width="5.2" height="6.8" transform="matrix(-.9897 -.1094 -.1094 .9897 -.25 -9.15)"/><use xlink:href="#f" width="5.2" height="6.8" transform="matrix(-.9914 .0744 .0744 .9914 4.75 -7.5)"/><use xlink:href="#G" width="15.4" height="23.1" transform="rotate(103.052 3.69 -18.4)scale(.995 -.995)"/><use xlink:href="#d" width="5.9" height="8.2" transform="matrix(-.9423 .2984 .6811 -.7154 -1.45 -11.8)"/><use xlink:href="#h" width="9.9" height="12" transform="matrix(-.996 .0031 .0031 .996 2.4 -10.65)"/></g></g><g clip-path="url(#V)"><g transform="translate(2163.6 28.65)"><use xlink:href="#c" width="14.7" height="4.3" transform="matrix(.548 0 0 .6575 -3.05 -1.2)"/><use xlink:href="#d" width="5.9" height="8.2" transform="rotate(204.537 -5.134 -6.633)scale(.9885)"/><use xlink:href="#e" width="17.4" height="14.3" transform="matrix(-.1147 .27 .4057 .1762 -5.9 -5.5)"/><use xlink:href="#e" width="17.4" height="14.3" transform="matrix(-.3443 -.0957 .1136 -.4084 6.1 5.85)"/><use xlink:href="#f" width="5.2" height="6.8" transform="matrix(-.9888 -.1174 -.1174 .9888 -.2 -9.2)"/><use xlink:href="#f" width="5.2" height="6.8" transform="matrix(-.9917 .07 .07 .9917 4.75 -7.4)"/><use xlink:href="#G" width="15.4" height="23.1" transform="matrix(-.2664 .9588 .9588 .2664 -12.95 -26.6)"/><use xlink:href="#d" width="5.9" height="8.2" transform="matrix(-.9882 .0481 .6625 -.7329 -.85 -13.3)"/><use xlink:href="#h" width="9.9" height="12" transform="matrix(-.996 .0031 .0031 .996 2.4 -10.65)"/></g></g><g clip-path="url(#W)"><g transform="translate(2218.6 28.65)"><use xlink:href="#c" width="14.7" height="4.3" transform="matrix(.548 0 0 .6575 -3.05 -1.2)"/><use xlink:href="#d" width="5.9" height="8.2" transform="matrix(-.9112 -.3838 .3838 -.9113 -7 -14.9)"/><use xlink:href="#e" width="17.4" height="14.3" transform="matrix(-.1147 .27 .4057 .1762 -5.9 -5.5)"/><use xlink:href="#e" width="17.4" height="14.3" transform="matrix(-.3443 -.0957 .1136 -.4084 6.1 5.85)"/><use xlink:href="#f" width="5.2" height="6.8" transform="matrix(-.9883 -.1217 -.1217 .9883 -.25 -9.2)"/><use xlink:href="#f" width="5.2" height="6.8" transform="matrix(-.992 .0659 .0659 .992 4.75 -7.45)"/><use xlink:href="#G" width="15.4" height="23.1" transform="matrix(-.3045 .9475 .9475 .3045 -12.55 -27)"/><use xlink:href="#d" width="5.9" height="8.2" transform="matrix(-.9754 -.164 .6466 -.7472 -.05 -14.6)"/><use xlink:href="#h" width="9.9" height="12" transform="matrix(-.996 .0031 .0031 .996 2.4 -10.65)"/></g></g><g clip-path="url(#X)"><g transform="translate(2273.6 28.65)"><use xlink:href="#c" width="14.7" height="4.3" transform="matrix(.548 0 0 .6575 -3.05 -1.2)"/><use xlink:href="#d" width="5.9" height="8.2" transform="matrix(-.9212 -.3597 .3598 -.9213 -7.1 -14.95)"/><use xlink:href="#e" width="17.4" height="14.3" transform="matrix(-.1147 .27 .4057 .1762 -5.9 -5.5)"/><use xlink:href="#e" width="17.4" height="14.3" transform="matrix(-.3443 -.0957 .1136 -.4084 6.1 5.85)"/><use xlink:href="#f" width="5.2" height="6.8" transform="matrix(-.9882 -.1223 -.1223 .9882 -.25 -9.2)"/><use xlink:href="#f" width="5.2" height="6.8" transform="matrix(-.9921 .0653 .0653 .9921 4.75 -7.45)"/><use xlink:href="#G" width="15.4" height="23.1" transform="matrix(-.3452 .9336 .9336 .3452 -12.1 -27.35)"/><use xlink:href="#d" width="5.9" height="8.2" transform="matrix(-.9302 -.3352 .6335 -.7584 .8 -15.6)"/><use xlink:href="#h" width="9.9" height="12" transform="matrix(-.996 .0031 .0031 .996 2.4 -10.65)"/></g></g><g clip-path="url(#Y)"><g transform="translate(2328.6 28.65)"><use xlink:href="#c" width="14.7" height="4.3" transform="matrix(.548 0 0 .6575 -3.05 -1.2)"/><use xlink:href="#d" width="5.9" height="8.2" transform="matrix(-.9308 -.3378 .3378 -.9309 -7.1 -15.05)"/><use xlink:href="#e" width="17.4" height="14.3" transform="matrix(-.1147 .27 .4057 .1762 -5.9 -5.5)"/><use xlink:href="#e" width="17.4" height="14.3" transform="matrix(-.3443 -.0957 .1136 -.4084 6.1 5.85)"/><use xlink:href="#f" width="5.2" height="6.8" transform="matrix(-.9882 -.1258 -.1258 .9882 -.2 -9.15)"/><use xlink:href="#f" width="5.2" height="6.8" transform="matrix(-.9922 .0655 .0655 .9922 4.75 -7.45)"/><use xlink:href="#G" width="15.4" height="23.1" transform="matrix(-.3849 .9194 .9194 .3849 -11.7 -27.65)"/><use xlink:href="#d" width="5.9" height="8.2" transform="matrix(-.8741 -.4616 .6236 -.7667 1.5 -16.3)"/><use xlink:href="#h" width="9.9" height="12" transform="matrix(-.996 .0031 .0031 .996 2.4 -10.65)"/></g></g><g clip-path="url(#Z)"><g transform="translate(2383.6 28.65)"><use xlink:href="#c" width="14.7" height="4.3" transform="matrix(.548 0 0 .6575 -3.05 -1.2)"/><use xlink:href="#d" width="5.9" height="8.2" transform="matrix(-.9308 -.3378 .3378 -.9309 -7.1 -15.05)"/><use xlink:href="#e" width="17.4" height="14.3" transform="matrix(-.1146 .2697 .4057 .175 -5.95 -6.1)"/><use xlink:href="#e" width="17.4" height="14.3" transform="matrix(-.3196 -.1583 .1878 -.3792 5.2 4.95)"/><use xlink:href="#f" width="5.2" height="6.8" transform="matrix(-.9877 -.1257 -.1257 .9877 -.2 -9.75)"/><use xlink:href="#f" width="5.2" height="6.8" transform="matrix(-.9494 .291 .291 .9494 3.85 -8.6)"/><use xlink:href="#G" width="15.4" height="23.1" transform="matrix(-.3849 .9194 .9194 .3849 -11.7 -27.65)"/><use xlink:href="#d" width="5.9" height="8.2" transform="matrix(-.8234 -.5469 .6168 -.7723 1.95 -16.8)"/><use xlink:href="#h" width="9.9" height="12" transform="matrix(-.996 .0031 .0031 .996 2.4 -10.65)"/></g></g><g clip-path="url(#aa)"><g transform="translate(2438.6 28.65)"><use xlink:href="#c" width="14.7" height="4.3" transform="matrix(.548 0 0 .6575 -3.05 -1.2)"/><use xlink:href="#d" width="5.9" height="8.2" transform="matrix(-.9308 -.3378 .3378 -.9309 -7.1 -15.05)"/><use xlink:href="#e" width="17.4" height="14.3" transform="matrix(-.1146 .2697 .4057 .175 -5.95 -6.6)"/><use xlink:href="#e" width="17.4" height="14.3" transform="matrix(-.2907 -.2063 .2447 -.3449 4.4 4.1)"/><use xlink:href="#f" width="5.2" height="6.8" transform="matrix(-.9877 -.1257 -.1257 .9877 -.2 -10.25)"/><use xlink:href="#f" width="5.2" height="6.8" transform="matrix(-.8772 .4635 .4635 .8772 3 -9.4)"/><use xlink:href="#G" width="15.4" height="23.1" transform="matrix(-.3849 .9194 .9194 .3849 -11.7 -27.65)"/><use xlink:href="#d" width="5.9" height="8.2" transform="matrix(-.7885 -.596 .6131 -.7753 2.3 -17.15)"/><use xlink:href="#h" width="9.9" height="12" transform="matrix(-.996 .0031 .0031 .996 2.4 -10.65)"/></g></g><g clip-path="url(#ab)"><g transform="translate(2493.6 28.65)"><use xlink:href="#c" width="14.7" height="4.3" transform="matrix(.548 0 0 .6575 -3.05 -1.2)"/><use xlink:href="#d" width="5.9" height="8.2" transform="matrix(-.9308 -.3378 .3378 -.9309 -7.1 -15.05)"/><use xlink:href="#e" width="17.4" height="14.3" transform="matrix(-.1146 .2697 .4057 .175 -5.95 -7)"/><use xlink:href="#e" width="17.4" height="14.3" transform="matrix(-.2632 -.2401 .2849 -.3123 3.65 3.4)"/><use xlink:href="#f" width="5.2" height="6.8" transform="rotate(7.253 83.92 -6.903)scale(-.9957 .9957)"/><use xlink:href="#f" width="5.2" height="6.8" transform="matrix(-.7984 .5881 .5881 .7984 2.35 -9.8)"/><use xlink:href="#G" width="15.4" height="23.1" transform="matrix(-.3849 .9194 .9194 .3849 -11.7 -27.65)"/><use xlink:href="#d" width="5.9" height="8.2" transform="matrix(-.7779 -.6124 .6124 -.7778 2.5 -17.2)"/><use xlink:href="#h" width="9.9" height="12" transform="matrix(-.996 .0031 .0031 .996 2.4 -10.65)"/></g></g><g clip-path="url(#ac)"><g transform="translate(2548.6 28.65)"><use xlink:href="#c" width="14.7" height="4.3" transform="matrix(.548 0 0 .6575 -3.05 -1.2)"/><use xlink:href="#d" width="5.9" height="8.2" transform="matrix(-.9308 -.3378 .3378 -.9309 -7.1 -15.05)"/><use xlink:href="#e" width="17.4" height="14.3" transform="matrix(-.1146 .2697 .4057 .175 -5.95 -7.3)"/><use xlink:href="#e" width="17.4" height="14.3" transform="matrix(-.2412 -.2622 .311 -.2862 3.25 2.85)"/><use xlink:href="#f" width="5.2" height="6.8" transform="matrix(-.9877 -.1257 -.1257 .9877 -.2 -10.95)"/><use xlink:href="#f" width="5.2" height="6.8" transform="matrix(-.7298 .6709 .6709 .7298 1.75 -10.2)"/><use xlink:href="#G" width="15.4" height="23.1" transform="matrix(-.3849 .9194 .9194 .3849 -11.7 -27.65)"/><use xlink:href="#d" width="5.9" height="8.2" transform="matrix(-.7779 -.6124 .6124 -.7778 2.5 -17.2)"/><use xlink:href="#h" width="9.9" height="12" transform="matrix(-.996 .0031 .0031 .996 2.4 -10.65)"/></g></g><g clip-path="url(#ad)"><g transform="translate(2603.6 28.65)"><use xlink:href="#c" width="14.7" height="4.3" transform="matrix(.548 0 0 .6575 -3.05 -1.2)"/><use xlink:href="#d" width="5.9" height="8.2" transform="matrix(-.9308 -.3378 .3378 -.9309 -7.1 -15.05)"/><use xlink:href="#e" width="17.4" height="14.3" transform="matrix(-.1146 .2697 .4057 .175 -5.95 -7.45)"/><use xlink:href="#e" width="17.4" height="14.3" transform="matrix(-.2271 -.2744 .3256 -.2694 2.95 2.45)"/><use xlink:href="#f" width="5.2" height="6.8" transform="matrix(-.9877 -.1257 -.1257 .9877 -.2 -11.1)"/><use xlink:href="#f" width="5.2" height="6.8" transform="matrix(-.6868 .7147 .7147 .6868 1.5 -10.25)"/><use xlink:href="#G" width="15.4" height="23.1" transform="matrix(-.3849 .9194 .9194 .3849 -11.7 -27.65)"/><use xlink:href="#d" width="5.9" height="8.2" transform="matrix(-.7779 -.6124 .6124 -.7778 2.5 -17.2)"/><use xlink:href="#h" width="9.9" height="12" transform="matrix(-.996 .0031 .0031 .996 2.4 -10.65)"/></g></g><g clip-path="url(#ae)"><g transform="translate(2658.6 28.65)"><use xlink:href="#c" width="14.7" height="4.3" transform="matrix(.548 0 0 .6575 -3.05 -1.2)"/><use xlink:href="#d" width="5.9" height="8.2" transform="matrix(-.9308 -.3378 .3378 -.9309 -7.1 -15.05)"/><use xlink:href="#e" width="17.4" height="14.3" transform="matrix(-.1147 .27 .4057 .1762 -5.9 -7.5)"/><use xlink:href="#e" width="17.4" height="14.3" transform="matrix(-.2228 -.2787 .3306 -.2643 2.8 2.3)"/><use xlink:href="#f" width="5.2" height="6.8" transform="rotate(7.255 87.84 -7.152)scale(-.9962 .9962)"/><use xlink:href="#f" width="5.2" height="6.8" transform="matrix(-.6724 .7304 .7304 .6724 1.4 -10.3)"/><use xlink:href="#G" width="15.4" height="23.1" transform="matrix(-.3849 .9194 .9194 .3849 -11.7 -27.65)"/><use xlink:href="#d" width="5.9" height="8.2" transform="matrix(-.7779 -.6124 .6124 -.7778 2.5 -17.2)"/><use xlink:href="#h" width="9.9" height="12" transform="matrix(-.996 .0031 .0031 .996 2.4 -10.65)"/></g></g><g clip-path="url(#af)"><g transform="translate(2713.6 28.65)"><use xlink:href="#c" width="14.7" height="4.3" transform="matrix(.548 0 0 .6575 -3.05 -1.2)"/><use xlink:href="#ag" width="3.6" height="2.8" transform="translate(2.6 -7)scale(1.105)"/><use xlink:href="#ag" width="3.6" height="2.8" transform="translate(12.95 -6.3)scale(.6139)"/><use xlink:href="#ag" width="3.6" height="2.8" transform="translate(17.45 -.9)scale(.7981)"/><use xlink:href="#ag" width="3.6" height="2.8" transform="matrix(-.6857 -.2072 -.2072 .6857 16.05 -2.35)"/><use xlink:href="#ag" width="3.6" height="2.8" transform="matrix(-.381 -.1151 -.1151 .381 9.5 -3.85)"/><use xlink:href="#ag" width="3.6" height="2.8" transform="rotate(16.81 7.393 18.445)scale(-.5173 .5173)"/><use xlink:href="#d" width="5.9" height="8.2" transform="matrix(1.0494 1.1778 .0669 1.3303 5.6 -9.6)"/><use xlink:href="#d" width="5.9" height="8.2" transform="matrix(-.4751 -.8683 -.8683 .4751 -.1 -11.8)"/><use xlink:href="#e" width="17.4" height="14.3" transform="matrix(-.1147 .27 .4057 .1762 -5.9 -5.5)"/><use xlink:href="#e" width="17.4" height="14.3" transform="matrix(-.3443 -.0957 .1136 -.4084 6.1 5.85)"/><use xlink:href="#f" width="5.2" height="6.8" transform="matrix(-.6977 .7132 .7132 .6977 -3.95 -8.3)"/><use xlink:href="#f" width="5.2" height="6.8" transform="matrix(-.6713 .7368 .7368 .6713 1.35 -5.75)"/><use xlink:href="#g" width="13.9" height="18.5" transform="matrix(-.88 -.467 -.467 .88 16.55 -19.45)"/><use xlink:href="#h" width="9.9" height="12" transform="matrix(-.4805 -.8743 -.8743 .4805 6.2 -4.05)"/></g></g><g clip-path="url(#ah)"><g transform="translate(2768.6 28.65)"><use xlink:href="#c" width="14.7" height="4.3" transform="matrix(.548 0 0 .6575 -3.05 -1.2)"/><use xlink:href="#ai" width="3.6" height="2.8" transform="rotate(-13.53 -30.39 -10.444)scale(1.104)"/><use xlink:href="#ai" width="3.6" height="2.8" transform="rotate(-13.533 -25.781 -65.452)scale(.6043)"/><use xlink:href="#aj" width="3.6" height="2.8" transform="rotate(9.773 17.103 110.47)scale(.7912)"/><use xlink:href="#ai" width="3.6" height="2.8" transform="matrix(-.6176 -.3616 -.3616 .6176 16.75 -2.45)"/><use xlink:href="#ai" width="3.6" height="2.8" transform="matrix(-.3381 -.1979 -.1979 .3381 8.8 -5.1)"/><use xlink:href="#aj" width="3.6" height="2.8" transform="matrix(-.509 -.0629 -.0629 .509 4.8 -1.9)"/><use xlink:href="#d" width="5.9" height="8.2" transform="matrix(.9606 1.2478 -.0246 1.3314 6.2 -8.65)"/><use xlink:href="#d" width="5.9" height="8.2" transform="matrix(-.3787 -.9129 -.9129 .3787 .4 -11.75)"/><use xlink:href="#e" width="17.4" height="14.3" transform="matrix(-.1146 .2697 .4057 .175 -5.95 -5.5)"/><use xlink:href="#e" width="17.4" height="14.3" transform="matrix(-.344 -.0956 .1134 -.4081 6.1 5.85)"/><use xlink:href="#f" width="5.2" height="6.8" transform="matrix(-.715 .6933 .6933 .715 -3.9 -8.3)"/><use xlink:href="#f" width="5.2" height="6.8" transform="matrix(-.6704 .7354 .7354 .6704 1.3 -5.7)"/><use xlink:href="#g" width="13.9" height="18.5" transform="matrix(-.8453 -.5242 -.5242 .8453 17.75 -18.2)"/><use xlink:href="#h" width="9.9" height="12" transform="rotate(64.713 6.234 3.294)scale(-.9961 .9961)"/></g></g><g clip-path="url(#ak)"><g transform="translate(2823.6 28.65)"><use xlink:href="#c" width="14.7" height="4.3" transform="matrix(.548 0 0 .6575 -3.05 -1.2)"/><use xlink:href="#al" width="3.6" height="2.8" transform="rotate(-27.085 -15.659 -5.2)scale(1.1032)"/><use xlink:href="#al" width="3.6" height="2.8" transform="rotate(-27.086 -11.208 -38.717)scale(.5947)"/><use xlink:href="#am" width="3.6" height="2.8" transform="rotate(19.556 14.942 58.969)scale(.7842)"/><use xlink:href="#al" width="3.6" height="2.8" transform="rotate(43.895 11.703 20.452)scale(-.715 .715)"/><use xlink:href="#al" width="3.6" height="2.8" transform="matrix(-.2778 -.2673 -.2673 .2778 7.95 -6.4)"/><use xlink:href="#am" width="3.6" height="2.8" transform="matrix(-.5078 .0244 .0244 .5078 3.85 -2.35)"/><use xlink:href="#d" width="5.9" height="8.2" transform="matrix(.8764 1.308 -.116 1.326 6.7 -7.85)"/><use xlink:href="#d" width="5.9" height="8.2" transform="matrix(-.2856 -.9462 -.9463 .2856 .85 -11.65)"/><use xlink:href="#e" width="17.4" height="14.3" transform="matrix(-.1146 .2697 .4057 .175 -5.95 -5.5)"/><use xlink:href="#e" width="17.4" height="14.3" transform="matrix(-.344 -.0956 .1134 -.4081 6.1 5.85)"/><use xlink:href="#f" width="5.2" height="6.8" transform="matrix(-.7326 .6746 .6746 .7326 -3.75 -8.25)"/><use xlink:href="#f" width="5.2" height="6.8" transform="matrix(-.6704 .7354 .7354 .6704 1.3 -5.7)"/><use xlink:href="#g" width="13.9" height="18.5" transform="rotate(35.12 36.314 21.1)scale(-.9944 .9944)"/><use xlink:href="#h" width="9.9" height="12" transform="matrix(-.3737 -.9234 -.9234 .3737 6.9 -3.2)"/></g></g><g clip-path="url(#an)"><g transform="translate(2878.6 28.65)"><use xlink:href="#c" width="14.7" height="4.3" transform="matrix(.548 0 0 .6575 -3.05 -1.2)"/><use xlink:href="#ao" width="3.6" height="2.8" transform="matrix(.8343 -.721 .721 .8343 -.1 -8.05)"/><use xlink:href="#ao" width="3.6" height="2.8" transform="rotate(-40.837 -5.389 -29.686)scale(.5854)"/><use xlink:href="#ap" width="3.6" height="2.8" transform="rotate(29.35 14.798 41.314)scale(.7775)"/><use xlink:href="#ao" width="3.6" height="2.8" transform="matrix(-.3825 -.6039 -.6039 .3825 17.9 -2.5)"/><use xlink:href="#ao" width="3.6" height="2.8" transform="matrix(-.2031 -.3206 -.3206 .2031 7.15 -7.6)"/><use xlink:href="#ap" width="3.6" height="2.8" transform="matrix(-.492 .1094 .1094 .492 3 -2.9)"/><use xlink:href="#d" width="5.9" height="8.2" transform="matrix(.7952 1.3587 -.1919 1.3167 7.25 -7.1)"/><use xlink:href="#d" width="5.9" height="8.2" transform="matrix(-.2016 -.9676 -.9677 .2016 1.3 -11.45)"/><use xlink:href="#e" width="17.4" height="14.3" transform="matrix(-.1146 .2697 .4057 .175 -5.95 -5.5)"/><use xlink:href="#e" width="17.4" height="14.3" transform="matrix(-.344 -.0956 .1134 -.4081 6.1 5.85)"/><use xlink:href="#f" width="5.2" height="6.8" transform="matrix(-.7472 .6583 .6583 .7472 -3.7 -8.25)"/><use xlink:href="#f" width="5.2" height="6.8" transform="matrix(-.6704 .7354 .7354 .6704 1.3 -5.7)"/><use xlink:href="#g" width="13.9" height="18.5" transform="matrix(-.7797 -.617 -.617 .7797 19.65 -15.95)"/><use xlink:href="#h" width="9.9" height="12" transform="rotate(70.95 5.635 3.602)scale(-.996 .996)"/></g></g><g clip-path="url(#aq)"><g transform="translate(2933.6 28.65)"><use xlink:href="#c" width="14.7" height="4.3" transform="matrix(.548 0 0 .6575 -3.05 -1.2)"/><use xlink:href="#ar" width="3.6" height="2.8" transform="rotate(-54.401 -8.451 -3.298)scale(1.1026)"/><use xlink:href="#ar" width="3.6" height="2.8" transform="rotate(-54.407 -1.869 -25.433)scale(.5763)"/><use xlink:href="#ao" width="3.6" height="2.8" transform="rotate(39.33 15.168 32.289)scale(.771)"/><use xlink:href="#ar" width="3.6" height="2.8" transform="matrix(-.2302 -.6767 -.6767 .2302 18.45 -2.45)"/><use xlink:href="#ar" width="3.6" height="2.8" transform="rotate(71.216 9.304 -.061)scale(-.3736 .3736)"/><use xlink:href="#ao" width="3.6" height="2.8" transform="matrix(-.4616 .1914 .1914 .4616 2 -3.4)"/><use xlink:href="#d" width="5.9" height="8.2" transform="matrix(.7225 1.3987 -.2608 1.3043 7.6 -6.5)"/><use xlink:href="#d" width="5.9" height="8.2" transform="matrix(-.1215 -.981 -.981 .1215 1.75 -11.35)"/><use xlink:href="#e" width="17.4" height="14.3" transform="matrix(-.1146 .2697 .4057 .175 -5.95 -5.5)"/><use xlink:href="#e" width="17.4" height="14.3" transform="matrix(-.344 -.0956 .1134 -.4081 6.1 5.85)"/><use xlink:href="#f" width="5.2" height="6.8" transform="matrix(-.7589 .6447 .6447 .7589 -3.5 -8.3)"/><use xlink:href="#f" width="5.2" height="6.8" transform="matrix(-.6704 .7354 .7354 .6704 1.3 -5.7)"/><use xlink:href="#g" width="13.9" height="18.5" transform="matrix(-.7489 -.654 -.654 .7489 20.45 -15.05)"/><use xlink:href="#h" width="9.9" height="12" transform="matrix(-.2832 -.955 -.955 .2832 7.4 -2.5)"/></g></g><g clip-path="url(#as)"><g transform="translate(2988.6 28.65)"><use xlink:href="#c" width="14.7" height="4.3" transform="matrix(.548 0 0 .6575 -3.05 -1.2)"/><use xlink:href="#at" width="3.6" height="2.8" transform="rotate(-67.963 -7.166 -3.374)scale(1.1029)"/><use xlink:href="#at" width="3.6" height="2.8" transform="rotate(-67.96 .75 -23.121)scale(.5674)"/><use xlink:href="#au" width="3.6" height="2.8" transform="rotate(49.132 15.49 26.508)scale(.7645)"/><use xlink:href="#at" width="3.6" height="2.8" transform="matrix(-.0651 -.712 -.712 .0651 18.8 -2.65)"/><use xlink:href="#at" width="3.6" height="2.8" transform="rotate(84.773 8.21 -2.172)scale(-.3677 .3677)"/><use xlink:href="#au" width="3.6" height="2.8" transform="matrix(-.4188 .265 .265 .4188 1.05 -3.9)"/><use xlink:href="#d" width="5.9" height="8.2" transform="matrix(.6547 1.4316 -.3228 1.29 8 -5.9)"/><use xlink:href="#d" width="5.9" height="8.2" transform="rotate(86.95 6.905 -4.494)scale(-.9885 .9886)"/><use xlink:href="#e" width="17.4" height="14.3" transform="matrix(-.1146 .2697 .4057 .175 -5.95 -5.5)"/><use xlink:href="#e" width="17.4" height="14.3" transform="matrix(-.344 -.0956 .1134 -.4081 6.1 5.85)"/><use xlink:href="#f" width="5.2" height="6.8" transform="matrix(-.77 .6313 .6313 .77 -3.45 -8.25)"/><use xlink:href="#f" width="5.2" height="6.8" transform="matrix(-.6704 .7354 .7354 .6704 1.3 -5.7)"/><use xlink:href="#g" width="13.9" height="18.5" transform="matrix(-.7195 -.686 -.686 .7195 21.05 -14.2)"/><use xlink:href="#h" width="9.9" height="12" transform="rotate(75.933 5.21 3.77)scale(-.996 .996)"/></g></g><g clip-path="url(#av)"><g transform="translate(3043.6 28.65)"><use xlink:href="#c" width="14.7" height="4.3" transform="matrix(.548 0 0 .6575 -3.05 -1.2)"/><use xlink:href="#aw" width="3.6" height="2.8" transform="rotate(-81.694 -6.084 -3.542)scale(1.1034)"/><use xlink:href="#aw" width="3.6" height="2.8" transform="rotate(-81.693 3.044 -21.522)scale(.5586)"/><use xlink:href="#ax" width="3.6" height="2.8" transform="rotate(58.935 15.89 22.543)scale(.7581)"/><use xlink:href="#aw" width="3.6" height="2.8" transform="matrix(.1058 -.7074 -.7074 -.1058 19.2 -2.8)"/><use xlink:href="#aw" width="3.6" height="2.8" transform="rotate(98.513 7.2 -3.858)scale(-.362 .362)"/><use xlink:href="#ax" width="3.6" height="2.8" transform="matrix(-.3645 .3296 .3296 .3645 .1 -4.25)"/><use xlink:href="#d" width="5.9" height="8.2" transform="matrix(.5974 1.4564 -.3736 1.2759 8.35 -5.45)"/><use xlink:href="#d" width="5.9" height="8.2" transform="rotate(90.26 6.6 -4.33)scale(-.9885 .9886)"/><use xlink:href="#e" width="17.4" height="14.3" transform="matrix(-.1146 .2697 .4057 .175 -5.95 -5.5)"/><use xlink:href="#e" width="17.4" height="14.3" transform="matrix(-.344 -.0956 .1134 -.4081 6.1 5.85)"/><use xlink:href="#f" width="5.2" height="6.8" transform="matrix(-.7806 .6181 .6181 .7806 -3.35 -8.2)"/><use xlink:href="#f" width="5.2" height="6.8" transform="matrix(-.6704 .7354 .7354 .6704 1.3 -5.7)"/><use xlink:href="#g" width="13.9" height="18.5" transform="rotate(45.868 26.728 18.716)scale(-.994 .994)"/><use xlink:href="#h" width="9.9" height="12" transform="matrix(-.2082 -.9741 -.9741 .2082 7.7 -1.85)"/></g></g><g clip-path="url(#ay)"><g transform="translate(3098.6 28.65)"><use xlink:href="#c" width="14.7" height="4.3" transform="matrix(.548 0 0 .6575 -3.05 -1.2)"/><use xlink:href="#az" width="3.6" height="2.8" transform="rotate(-95.033 -5.49 -3.936)scale(1.1035)"/><use xlink:href="#az" width="3.6" height="2.8" transform="rotate(-95.033 5.14 -20.337)scale(.5494)"/><use xlink:href="#aA" width="3.6" height="2.8" transform="rotate(68.916 16.352 19.378)scale(.752)"/><use xlink:href="#az" width="3.6" height="2.8" transform="matrix(.2662 -.6639 -.6639 -.2662 19.4 -3.15)"/><use xlink:href="#az" width="3.6" height="2.8" transform="rotate(111.84 6.072 -5.258)scale(-.3562 .3562)"/><use xlink:href="#aA" width="3.6" height="2.8" transform="matrix(-.2994 .3846 .3846 .2994 -.9 -4.65)"/><use xlink:href="#d" width="5.9" height="8.2" transform="matrix(.5463 1.4763 -.4177 1.2619 8.55 -5.05)"/><use xlink:href="#d" width="5.9" height="8.2" transform="matrix(.0527 -.9868 -.9869 -.0527 2.6 -10.85)"/><use xlink:href="#e" width="17.4" height="14.3" transform="matrix(-.1146 .2697 .4057 .175 -5.95 -5.5)"/><use xlink:href="#e" width="17.4" height="14.3" transform="matrix(-.344 -.0956 .1134 -.4081 6.1 5.85)"/><use xlink:href="#f" width="5.2" height="6.8" transform="matrix(-.7885 .6079 .6079 .7885 -3.35 -8.25)"/><use xlink:href="#f" width="5.2" height="6.8" transform="matrix(-.6704 .7354 .7354 .6704 1.3 -5.7)"/><use xlink:href="#g" width="13.9" height="18.5" transform="rotate(47.638 25.636 18.525)scale(-.994 .994)"/><use xlink:href="#h" width="9.9" height="12" transform="rotate(79.483 4.887 3.92)scale(-.996 .996)"/></g></g><g clip-path="url(#aB)"><g transform="translate(3153.6 28.65)"><use xlink:href="#c" width="14.7" height="4.3" transform="matrix(.548 0 0 .6575 -3.05 -1.2)"/><use xlink:href="#aC" width="3.6" height="2.8" transform="rotate(251.424 -4.852 -4.323)scale(1.1024)"/><use xlink:href="#aC" width="3.6" height="2.8" transform="rotate(251.424 7.307 -19.322)scale(.54)"/><use xlink:href="#aw" width="3.6" height="2.8" transform="matrix(.1461 .7314 -.7314 .1461 30 -3)"/><use xlink:href="#aC" width="3.6" height="2.8" transform="matrix(.4139 -.5827 -.5827 -.4139 19.75 -3.5)"/><use xlink:href="#aC" width="3.6" height="2.8" transform="rotate(125.393 4.94 -6.505)scale(-.35 .35)"/><use xlink:href="#aw" width="3.6" height="2.8" transform="matrix(-.2278 .4265 .4265 .2278 -1.7 -4.95)"/><use xlink:href="#d" width="5.9" height="8.2" transform="matrix(.5066 1.4903 -.4553 1.2486 8.85 -4.75)"/><use xlink:href="#d" width="5.9" height="8.2" transform="rotate(95.54 6.279 -4.104)scale(-.988 .9881)"/><use xlink:href="#e" width="17.4" height="14.3" transform="matrix(-.1146 .2697 .4057 .175 -5.95 -5.5)"/><use xlink:href="#e" width="17.4" height="14.3" transform="matrix(-.344 -.0956 .1134 -.4081 6.1 5.85)"/><use xlink:href="#f" width="5.2" height="6.8" transform="matrix(-.7941 .6006 .6006 .7941 -3.25 -8.2)"/><use xlink:href="#f" width="5.2" height="6.8" transform="matrix(-.6704 .7354 .7354 .6704 1.3 -5.7)"/><use xlink:href="#g" width="13.9" height="18.5" transform="rotate(49.14 24.76 18.297)scale(-.994 .994)"/><use xlink:href="#h" width="9.9" height="12" transform="rotate(80.955 4.85 3.962)scale(-.996 .996)"/></g></g><g clip-path="url(#aD)"><g transform="translate(3208.6 28.65)"><use xlink:href="#c" width="14.7" height="4.3" transform="matrix(.548 0 0 .6575 -3.05 -1.2)"/><use xlink:href="#aE" width="3.6" height="2.8" transform="rotate(237.687 -4.282 -4.875)scale(1.1034)"/><use xlink:href="#aE" width="3.6" height="2.8" transform="rotate(237.69 9.383 -18.461)scale(.531)"/><use xlink:href="#aF" width="3.6" height="2.8" transform="rotate(88.474 17.34 14.727)scale(.7398)"/><use xlink:href="#aE" width="3.6" height="2.8" transform="matrix(.5409 -.468 -.468 -.5409 19.95 -3.95)"/><use xlink:href="#aE" width="3.6" height="2.8" transform="rotate(139.12 3.72 -7.611)scale(-.3444 .3444)"/><use xlink:href="#aF" width="3.6" height="2.8" transform="matrix(-.1509 .4552 .4552 .1509 -2.65 -5.3)"/><use xlink:href="#d" width="5.9" height="8.2" transform="matrix(.4739 1.5011 -.4825 1.2382 9 -4.55)"/><use xlink:href="#d" width="5.9" height="8.2" transform="matrix(.1291 -.9793 -.9794 -.1291 3 -10.6)"/><use xlink:href="#e" width="17.4" height="14.3" transform="matrix(-.1146 .2697 .4057 .175 -5.95 -5.5)"/><use xlink:href="#e" width="17.4" height="14.3" transform="matrix(-.344 -.0956 .1134 -.4081 6.1 5.85)"/><use xlink:href="#f" width="5.2" height="6.8" transform="matrix(-.7992 .5938 .5938 .7992 -3.25 -8.25)"/><use xlink:href="#f" width="5.2" height="6.8" transform="matrix(-.6704 .7354 .7354 .6704 1.3 -5.7)"/><use xlink:href="#g" width="13.9" height="18.5" transform="matrix(-.634 -.7656 -.7656 .634 22.75 -12)"/><use xlink:href="#h" width="9.9" height="12" transform="matrix(-.139 -.9863 -.9863 .139 8 -1.25)"/></g></g><g clip-path="url(#aG)"><g transform="translate(3263.6 28.65)"><use xlink:href="#c" width="14.7" height="4.3" transform="matrix(.548 0 0 .6575 -3.05 -1.2)"/><use xlink:href="#aE" width="3.6" height="2.8" transform="rotate(237.687 -4.282 -4.875)scale(1.1034)"/><use xlink:href="#aE" width="3.6" height="2.8" transform="rotate(237.69 9.383 -18.461)scale(.531)"/><use xlink:href="#aH" width="3.6" height="2.8" transform="rotate(98.062 17.856 12.918)scale(.733)"/><use xlink:href="#aE" width="3.6" height="2.8" transform="matrix(.5409 -.468 -.468 -.5409 19.95 -3.95)"/><use xlink:href="#aE" width="3.6" height="2.8" transform="rotate(139.12 3.72 -7.611)scale(-.3444 .3444)"/><use xlink:href="#aH" width="3.6" height="2.8" transform="rotate(98.75 .556 -4.34)scale(.4752 -.4752)"/><use xlink:href="#d" width="5.9" height="8.2" transform="matrix(.4482 1.509 -.4994 1.2313 9.15 -4.35)"/><use xlink:href="#d" width="5.9" height="8.2" transform="matrix(.1508 -.9761 -.9762 -.1508 3.1 -10.5)"/><use xlink:href="#e" width="17.4" height="14.3" transform="matrix(-.1146 .2697 .4057 .175 -5.95 -5.5)"/><use xlink:href="#e" width="17.4" height="14.3" transform="matrix(-.344 -.0956 .1134 -.4081 6.1 5.85)"/><use xlink:href="#f" width="5.2" height="6.8" transform="matrix(-.802 .59 .59 .802 -3.25 -8.2)"/><use xlink:href="#f" width="5.2" height="6.8" transform="matrix(-.6704 .7354 .7354 .6704 1.3 -5.7)"/><use xlink:href="#g" width="13.9" height="18.5" transform="rotate(51.146 23.754 17.975)scale(-.994 .994)"/><use xlink:href="#h" width="9.9" height="12" transform="matrix(-.126 -.988 -.988 .126 8.1 -1.15)"/></g></g><g clip-path="url(#aI)"><g transform="translate(3318.6 28.65)"><use xlink:href="#c" width="14.7" height="4.3" transform="matrix(.548 0 0 .6575 -3.05 -1.2)"/><use xlink:href="#aE" width="3.6" height="2.8" transform="rotate(237.687 -4.282 -4.875)scale(1.1034)"/><use xlink:href="#aE" width="3.6" height="2.8" transform="rotate(237.69 9.383 -18.461)scale(.531)"/><use xlink:href="#aJ" width="3.6" height="2.8" transform="rotate(108.033 18.428 11.166)scale(.7262)"/><use xlink:href="#aE" width="3.6" height="2.8" transform="matrix(.5409 -.468 -.468 -.5409 19.95 -3.95)"/><use xlink:href="#aE" width="3.6" height="2.8" transform="rotate(139.12 3.72 -7.611)scale(-.3444 .3444)"/><use xlink:href="#aJ" width="3.6" height="2.8" transform="matrix(.01 .4706 .4706 -.01 -4.7 -5.85)"/><use xlink:href="#d" width="5.9" height="8.2" transform="matrix(.4348 1.5129 -.5104 1.2267 9.2 -4.3)"/><use xlink:href="#d" width="5.9" height="8.2" transform="matrix(.1638 -.974 -.974 -.1638 3.1 -10.5)"/><use xlink:href="#e" width="17.4" height="14.3" transform="matrix(-.1146 .2697 .4057 .175 -5.95 -5.5)"/><use xlink:href="#e" width="17.4" height="14.3" transform="matrix(-.344 -.0956 .1134 -.4081 6.1 5.85)"/><use xlink:href="#f" width="5.2" height="6.8" transform="matrix(-.8044 .5866 .5866 .8044 -3.25 -8.25)"/><use xlink:href="#f" width="5.2" height="6.8" transform="matrix(-.6704 .7354 .7354 .6704 1.3 -5.7)"/><use xlink:href="#g" width="13.9" height="18.5" transform="rotate(51.646 23.409 17.938)scale(-.994 .994)"/><use xlink:href="#h" width="9.9" height="12" transform="rotate(83.22 4.694 4.038)scale(-.996 .996)"/></g></g><g clip-path="url(#aK)"><g transform="translate(3373.6 28.65)"><use xlink:href="#c" width="14.7" height="4.3" transform="matrix(.548 0 0 .6575 -3.05 -1.2)"/><use xlink:href="#aE" width="3.6" height="2.8" transform="rotate(117.863 18.914 9.385)scale(.7204)"/><use xlink:href="#aE" width="3.6" height="2.8" transform="rotate(78.95 .948 -6.334)scale(.467 -.467)"/><use xlink:href="#d" width="5.9" height="8.2" transform="matrix(.4315 1.5152 -.5181 1.2252 9.2 -4.2)"/><use xlink:href="#d" width="5.9" height="8.2" transform="matrix(.1705 -.9733 -.9734 -.1706 3.2 -10.45)"/><use xlink:href="#e" width="17.4" height="14.3" transform="matrix(-.1147 .27 .4057 .1762 -5.9 -5.5)"/><use xlink:href="#e" width="17.4" height="14.3" transform="matrix(-.3443 -.0957 .1136 -.4084 6.1 5.85)"/><use xlink:href="#f" width="5.2" height="6.8" transform="matrix(-.806 .5872 .5872 .806 -3.2 -8.2)"/><use xlink:href="#f" width="5.2" height="6.8" transform="matrix(-.6713 .7368 .7368 .6713 1.35 -5.75)"/><use xlink:href="#g" width="13.9" height="18.5" transform="rotate(51.783 23.55 17.97)scale(-.9956 .9956)"/><use xlink:href="#h" width="9.9" height="12" transform="matrix(-.1162 -.9896 -.9896 .1162 8.1 -.95)"/></g></g><g clip-path="url(#aL)"><g transform="translate(3428.6 28.65)"><use xlink:href="#c" width="14.7" height="4.3" transform="matrix(.548 0 0 .6575 -3.05 -1.2)"/><use xlink:href="#d" width="5.9" height="8.2" transform="matrix(.4315 1.5152 -.5181 1.2252 9.2 -4.2)"/><use xlink:href="#d" width="5.9" height="8.2" transform="matrix(.1705 -.9733 -.9734 -.1706 3.2 -10.45)"/><use xlink:href="#e" width="17.4" height="14.3" transform="matrix(-.1147 .27 .4057 .1762 -5.9 -5.5)"/><use xlink:href="#e" width="17.4" height="14.3" transform="matrix(-.3443 -.0957 .1136 -.4084 6.1 5.85)"/><use xlink:href="#f" width="5.2" height="6.8" transform="matrix(-.806 .5872 .5872 .806 -3.2 -8.2)"/><use xlink:href="#f" width="5.2" height="6.8" transform="matrix(-.6713 .7368 .7368 .6713 1.35 -5.75)"/><use xlink:href="#g" width="13.9" height="18.5" transform="rotate(51.783 23.55 17.97)scale(-.9956 .9956)"/><use xlink:href="#h" width="9.9" height="12" transform="matrix(-.1162 -.9896 -.9896 .1162 8.1 -.95)"/></g></g><g clip-path="url(#aM)"><g transform="translate(3483.6 28.65)"><use xlink:href="#c" width="14.7" height="4.3" transform="matrix(.548 0 0 .6575 -3.05 -1.2)"/><use xlink:href="#d" width="5.9" height="8.2" transform="matrix(.4315 1.5152 -.5181 1.2252 9.2 -4.2)"/><use xlink:href="#d" width="5.9" height="8.2" transform="matrix(.1641 -.9739 -.974 -.1641 3.1 -10.45)"/><use xlink:href="#e" width="17.4" height="14.3" transform="matrix(-.1146 .2697 .4057 .175 -5.95 -5.5)"/><use xlink:href="#e" width="17.4" height="14.3" transform="matrix(-.344 -.0956 .1134 -.4081 6.1 5.85)"/><use xlink:href="#f" width="5.2" height="6.8" transform="matrix(-.8044 .5866 .5866 .8044 -3.25 -8.2)"/><use xlink:href="#f" width="5.2" height="6.8" transform="matrix(-.6704 .7354 .7354 .6704 1.3 -5.7)"/><use xlink:href="#g" width="13.9" height="18.5" transform="matrix(-.6202 -.7768 -.7768 .6202 23 -11.75)"/><use xlink:href="#h" width="9.9" height="12" transform="rotate(83.22 4.641 4.035)scale(-.996 .996)"/></g></g><g clip-path="url(#aN)"><g transform="translate(3538.6 28.65)"><use xlink:href="#c" width="14.7" height="4.3" transform="matrix(.548 0 0 .6575 -3.05 -1.2)"/><use xlink:href="#d" width="5.9" height="8.2" transform="matrix(.4315 1.5152 -.5181 1.2252 9.2 -4.2)"/><use xlink:href="#d" width="5.9" height="8.2" transform="matrix(.1552 -.9754 -.9755 -.1552 3 -10.55)"/><use xlink:href="#e" width="17.4" height="14.3" transform="matrix(-.1146 .2697 .4057 .175 -5.95 -5.5)"/><use xlink:href="#e" width="17.4" height="14.3" transform="matrix(-.344 -.0956 .1134 -.4081 6.1 5.85)"/><use xlink:href="#f" width="5.2" height="6.8" transform="matrix(-.802 .59 .59 .802 -3.25 -8.2)"/><use xlink:href="#f" width="5.2" height="6.8" transform="matrix(-.6704 .7354 .7354 .6704 1.3 -5.7)"/><use xlink:href="#g" width="13.9" height="18.5" transform="matrix(-.6372 -.763 -.763 .6372 22.85 -12)"/><use xlink:href="#h" width="9.9" height="12" transform="matrix(-.126 -.9881 -.9881 .126 8 -1.1)"/></g></g><g clip-path="url(#aO)"><g transform="translate(3593.6 28.65)"><use xlink:href="#c" width="14.7" height="4.3" transform="matrix(.548 0 0 .6575 -3.05 -1.2)"/><use xlink:href="#d" width="5.9" height="8.2" transform="matrix(.4315 1.5152 -.5181 1.2252 9.2 -4.2)"/><use xlink:href="#d" width="5.9" height="8.2" transform="rotate(98.036 6.051 -4.087)scale(-.9878 .9879)"/><use xlink:href="#e" width="17.4" height="14.3" transform="matrix(-.1146 .2697 .4057 .175 -5.95 -5.5)"/><use xlink:href="#e" width="17.4" height="14.3" transform="matrix(-.344 -.0956 .1134 -.4081 6.1 5.85)"/><use xlink:href="#f" width="5.2" height="6.8" transform="matrix(-.7992 .5938 .5938 .7992 -3.25 -8.15)"/><use xlink:href="#f" width="5.2" height="6.8" transform="matrix(-.6704 .7354 .7354 .6704 1.3 -5.7)"/><use xlink:href="#g" width="13.9" height="18.5" transform="matrix(-.6663 -.7378 -.7378 .6663 22.5 -12.55)"/><use xlink:href="#h" width="9.9" height="12" transform="matrix(-.139 -.9863 -.9863 .139 8 -1.2)"/></g></g><g clip-path="url(#aP)"><g transform="translate(3648.6 28.65)"><use xlink:href="#c" width="14.7" height="4.3" transform="matrix(.548 0 0 .6575 -3.05 -1.2)"/><use xlink:href="#d" width="5.9" height="8.2" transform="matrix(.4315 1.5152 -.5181 1.2252 9.2 -4.2)"/><use xlink:href="#d" width="5.9" height="8.2" transform="rotate(96.561 6.112 -4.288)scale(-.988 .988)"/><use xlink:href="#e" width="17.4" height="14.3" transform="matrix(-.1146 .2697 .4057 .175 -5.95 -5.5)"/><use xlink:href="#e" width="17.4" height="14.3" transform="matrix(-.344 -.0956 .1134 -.4081 6.1 5.85)"/><use xlink:href="#f" width="5.2" height="6.8" transform="matrix(-.7941 .6006 .6006 .7941 -3.3 -8.2)"/><use xlink:href="#f" width="5.2" height="6.8" transform="matrix(-.6704 .7354 .7354 .6704 1.3 -5.7)"/><use xlink:href="#g" width="13.9" height="18.5" transform="matrix(-.7017 -.7043 -.7043 .7017 22 -13.3)"/><use xlink:href="#h" width="9.9" height="12" transform="rotate(-99.045 3.4 -4.067)scale(.996 -.996)"/></g></g><g clip-path="url(#aQ)"><g transform="translate(3703.6 28.65)"><use xlink:href="#c" width="14.7" height="4.3" transform="matrix(.548 0 0 .6575 -3.05 -1.2)"/><use xlink:href="#d" width="5.9" height="8.2" transform="matrix(.4315 1.5152 -.5181 1.2252 9.2 -4.2)"/><use xlink:href="#d" width="5.9" height="8.2" transform="matrix(.0826 -.9848 -.9849 -.0826 2.25 -11.1)"/><use xlink:href="#e" width="17.4" height="14.3" transform="matrix(-.1146 .2697 .4057 .175 -5.95 -5.5)"/><use xlink:href="#e" width="17.4" height="14.3" transform="matrix(-.344 -.0956 .1134 -.4081 6.1 5.85)"/><use xlink:href="#f" width="5.2" height="6.8" transform="matrix(-.7886 .6079 .6079 .7886 -3.35 -8.2)"/><use xlink:href="#f" width="5.2" height="6.8" transform="matrix(-.6704 .7354 .7354 .6704 1.3 -5.7)"/><use xlink:href="#g" width="13.9" height="18.5" transform="matrix(-.7467 -.6568 -.6568 .7467 21.45 -14.2)"/><use xlink:href="#h" width="9.9" height="12" transform="rotate(79.483 4.857 3.946)scale(-.996 .996)"/></g></g><g clip-path="url(#aR)"><g transform="translate(3758.6 28.65)"><use xlink:href="#c" width="14.7" height="4.3" transform="matrix(.548 0 0 .6575 -3.05 -1.2)"/><use xlink:href="#d" width="5.9" height="8.2" transform="matrix(.4315 1.5152 -.5181 1.2252 9.2 -4.2)"/><use xlink:href="#d" width="5.9" height="8.2" transform="matrix(.0441 -.9876 -.9876 -.0441 1.8 -11.35)"/><use xlink:href="#e" width="17.4" height="14.3" transform="matrix(-.1146 .2697 .4057 .175 -5.95 -5.5)"/><use xlink:href="#e" width="17.4" height="14.3" transform="matrix(-.344 -.0956 .1134 -.4081 6.1 5.85)"/><use xlink:href="#f" width="5.2" height="6.8" transform="matrix(-.7806 .6182 .6182 .7806 -3.4 -8.2)"/><use xlink:href="#f" width="5.2" height="6.8" transform="matrix(-.6704 .7354 .7354 .6704 1.3 -5.7)"/><use xlink:href="#g" width="13.9" height="18.5" transform="matrix(-.7985 -.593 -.593 .7985 20.7 -15.4)"/><use xlink:href="#h" width="9.9" height="12" transform="rotate(77.935 4.957 3.916)scale(-.9961 .9961)"/></g></g><g clip-path="url(#aS)"><g transform="translate(3813.6 28.65)"><use xlink:href="#c" width="14.7" height="4.3" transform="matrix(.548 0 0 .6575 -3.05 -1.2)"/><use xlink:href="#d" width="5.9" height="8.2" transform="matrix(.4315 1.5152 -.5181 1.2252 9.2 -4.2)"/><use xlink:href="#d" width="5.9" height="8.2" transform="matrix(.0005 -.9889 -.989 -.0005 1.35 -11.7)"/><use xlink:href="#e" width="17.4" height="14.3" transform="matrix(-.1146 .2697 .4057 .175 -5.95 -5.5)"/><use xlink:href="#e" width="17.4" height="14.3" transform="matrix(-.344 -.0956 .1134 -.4081 6.1 5.85)"/><use xlink:href="#f" width="5.2" height="6.8" transform="matrix(-.7701 .6313 .6313 .7701 -3.45 -8.2)"/><use xlink:href="#f" width="5.2" height="6.8" transform="matrix(-.6704 .7354 .7354 .6704 1.3 -5.7)"/><use xlink:href="#g" width="13.9" height="18.5" transform="rotate(31.09 39.729 26.906)scale(-.995 .995)"/><use xlink:href="#h" width="9.9" height="12" transform="rotate(75.933 5.146 3.82)scale(-.996 .996)"/></g></g><g clip-path="url(#aT)"><g transform="translate(3868.6 28.65)"><use xlink:href="#c" width="14.7" height="4.3" transform="matrix(.548 0 0 .6575 -3.05 -1.2)"/><use xlink:href="#d" width="5.9" height="8.2" transform="matrix(.4315 1.5152 -.5181 1.2252 9.2 -4.2)"/><use xlink:href="#d" width="5.9" height="8.2" transform="matrix(-.0481 -.9878 -.9878 .048 .75 -12.15)"/><use xlink:href="#e" width="17.4" height="14.3" transform="matrix(-.1146 .2697 .4057 .175 -5.95 -5.5)"/><use xlink:href="#e" width="17.4" height="14.3" transform="matrix(-.344 -.0956 .1134 -.4081 6.1 5.85)"/><use xlink:href="#f" width="5.2" height="6.8" transform="matrix(-.7589 .6447 .6447 .7589 -3.55 -8.3)"/><use xlink:href="#f" width="5.2" height="6.8" transform="matrix(-.6704 .7354 .7354 .6704 1.3 -5.7)"/><use xlink:href="#g" width="13.9" height="18.5" transform="rotate(24.804 50.393 32.42)scale(-.9954 .9954)"/><use xlink:href="#h" width="9.9" height="12" transform="matrix(-.2832 -.955 -.955 .2832 7.35 -2.45)"/></g></g><g clip-path="url(#aU)"><g transform="translate(3923.6 28.65)"><use xlink:href="#c" width="14.7" height="4.3" transform="matrix(.548 0 0 .6575 -3.05 -1.2)"/><use xlink:href="#d" width="5.9" height="8.2" transform="matrix(.4315 1.5152 -.5181 1.2252 9.2 -4.2)"/><use xlink:href="#d" width="5.9" height="8.2" transform="rotate(83.737 7.076 -6.191)scale(-.989 .9891)"/><use xlink:href="#e" width="17.4" height="14.3" transform="matrix(-.1146 .2697 .4057 .175 -5.95 -5.5)"/><use xlink:href="#e" width="17.4" height="14.3" transform="matrix(-.344 -.0956 .1134 -.4081 6.1 5.85)"/><use xlink:href="#f" width="5.2" height="6.8" transform="matrix(-.7472 .6583 .6583 .7472 -3.65 -8.25)"/><use xlink:href="#f" width="5.2" height="6.8" transform="matrix(-.6704 .7354 .7354 .6704 1.3 -5.7)"/><use xlink:href="#g" width="13.9" height="18.5" transform="rotate(17.558 72.218 43.708)scale(-.9961 .9961)"/><use xlink:href="#h" width="9.9" height="12" transform="rotate(70.95 5.54 3.617)scale(-.996 .996)"/></g></g><g clip-path="url(#aV)"><g transform="translate(3978.6 28.65)"><use xlink:href="#c" width="14.7" height="4.3" transform="matrix(.548 0 0 .6575 -3.05 -1.2)"/><use xlink:href="#d" width="5.9" height="8.2" transform="matrix(.4315 1.5152 -.5181 1.2252 9.2 -4.2)"/><use xlink:href="#d" width="5.9" height="8.2" transform="matrix(-.1723 -.974 -.974 .1723 -.65 -12.95)"/><use xlink:href="#e" width="17.4" height="14.3" transform="matrix(-.1146 .2697 .4057 .175 -5.95 -5.5)"/><use xlink:href="#e" width="17.4" height="14.3" transform="matrix(-.344 -.0956 .1134 -.4081 6.1 5.85)"/><use xlink:href="#f" width="5.2" height="6.8" transform="matrix(-.7326 .6746 .6746 .7326 -3.7 -8.2)"/><use xlink:href="#f" width="5.2" height="6.8" transform="matrix(-.6704 .7354 .7354 .6704 1.3 -5.7)"/><use xlink:href="#g" width="13.9" height="18.5" transform="matrix(-.983 -.1654 -.1654 .983 14.4 -21.45)"/><use xlink:href="#h" width="9.9" height="12" transform="rotate(67.967 5.799 3.48)scale(-.9962 .9962)"/></g></g><g clip-path="url(#aW)"><g transform="translate(4033.6 28.65)"><use xlink:href="#c" width="14.7" height="4.3" transform="matrix(.548 0 0 .6575 -3.05 -1.2)"/><use xlink:href="#d" width="5.9" height="8.2" transform="matrix(.4315 1.5152 -.5181 1.2252 9.2 -4.2)"/><use xlink:href="#d" width="5.9" height="8.2" transform="matrix(-.244 -.9586 -.9587 .244 -1.45 -13.5)"/><use xlink:href="#e" width="17.4" height="14.3" transform="matrix(-.1146 .2697 .4057 .175 -5.95 -5.5)"/><use xlink:href="#e" width="17.4" height="14.3" transform="matrix(-.344 -.0956 .1134 -.4081 6.1 5.85)"/><use xlink:href="#f" width="5.2" height="6.8" transform="matrix(-.715 .6933 .6933 .715 -3.9 -8.25)"/><use xlink:href="#f" width="5.2" height="6.8" transform="matrix(-.6704 .7354 .7354 .6704 1.3 -5.7)"/><use xlink:href="#g" width="13.9" height="18.5" transform="matrix(-.9976 -.0134 -.0134 .9976 11.85 -23.1)"/><use xlink:href="#h" width="9.9" height="12" transform="rotate(64.713 6.18 3.384)scale(-.9961 .9961)"/></g></g><g clip-path="url(#aX)"><g transform="translate(18.6 72.65)"><use xlink:href="#c" width="14.7" height="4.3" transform="matrix(.548 0 0 .6575 -3.05 -1.2)"/><use xlink:href="#d" width="5.9" height="8.2" transform="matrix(.4315 1.5152 -.5181 1.2252 9.2 -4.2)"/><use xlink:href="#d" width="5.9" height="8.2" transform="rotate(71.075 8.615 -8.585)scale(-.9903 .9903)"/><use xlink:href="#e" width="17.4" height="14.3" transform="matrix(-.1147 .27 .4057 .1762 -5.9 -5.5)"/><use xlink:href="#e" width="17.4" height="14.3" transform="matrix(-.3443 -.0957 .1136 -.4084 6.1 5.85)"/><use xlink:href="#f" width="5.2" height="6.8" transform="matrix(-.6977 .7132 .7132 .6977 -3.95 -8.3)"/><use xlink:href="#f" width="5.2" height="6.8" transform="matrix(-.6713 .7368 .7368 .6713 1.35 -5.75)"/><use xlink:href="#g" width="13.9" height="18.5" transform="matrix(-.9863 .1536 .1536 .9863 8.85 -24.7)"/><use xlink:href="#d" width="5.9" height="8.2" transform="rotate(-10.18 -37.987 -56.286)scale(.9935)"/><use xlink:href="#h" width="9.9" height="12" transform="matrix(-.4805 -.8743 -.8743 .4805 6.2 -4.05)"/></g></g></svg>