<svg xmlns="http://www.w3.org/2000/svg" xmlns:xlink="http://www.w3.org/1999/xlink" width="1317" height="47" viewBox="0 0 1317 47"><defs><clipPath id="ak"><path d="M1 1h27v45H1z"/></clipPath><clipPath id="az"><path d="M29 1h27v45H29z"/></clipPath><clipPath id="aA"><path d="M57 1h27v45H57z"/></clipPath><clipPath id="aB"><path d="M85 1h27v45H85z"/></clipPath><clipPath id="aC"><path d="M113 1h27v45h-27z"/></clipPath><clipPath id="aD"><path d="M141 1h27v45h-27z"/></clipPath><clipPath id="aE"><path d="M169 1h27v45h-27z"/></clipPath><clipPath id="aF"><path d="M197 1h27v45h-27z"/></clipPath><clipPath id="aG"><path d="M225 1h27v45h-27z"/></clipPath><clipPath id="aH"><path d="M253 1h27v45h-27z"/></clipPath><clipPath id="aI"><path d="M281 1h27v45h-27z"/></clipPath><clipPath id="aJ"><path d="M309 1h27v45h-27z"/></clipPath><clipPath id="aK"><path d="M337 1h27v45h-27z"/></clipPath><clipPath id="aL"><path d="M365 1h27v45h-27z"/></clipPath><clipPath id="aM"><path d="M393 1h27v45h-27z"/></clipPath><clipPath id="aN"><path d="M421 1h27v45h-27z"/></clipPath><clipPath id="aO"><path d="M449 1h27v45h-27z"/></clipPath><clipPath id="aP"><path d="M477 1h27v45h-27z"/></clipPath><clipPath id="aQ"><path d="M505 1h27v45h-27z"/></clipPath><clipPath id="aR"><path d="M533 1h27v45h-27z"/></clipPath><clipPath id="aS"><path d="M561 1h27v45h-27z"/></clipPath><clipPath id="aT"><path d="M589 1h27v45h-27z"/></clipPath><clipPath id="aU"><path d="M617 1h27v45h-27z"/></clipPath><clipPath id="aV"><path d="M645 1h27v45h-27z"/></clipPath><clipPath id="aW"><path d="M673 1h27v45h-27z"/></clipPath><clipPath id="aX"><path d="M701 1h27v45h-27z"/></clipPath><clipPath id="aY"><path d="M729 1h27v45h-27z"/></clipPath><clipPath id="aZ"><path d="M757 1h27v45h-27z"/></clipPath><clipPath id="ba"><path d="M785 1h27v45h-27z"/></clipPath><clipPath id="bb"><path d="M813 1h27v45h-27z"/></clipPath><clipPath id="bc"><path d="M841 1h27v45h-27z"/></clipPath><clipPath id="bd"><path d="M869 1h27v45h-27z"/></clipPath><clipPath id="be"><path d="M897 1h27v45h-27z"/></clipPath><clipPath id="bf"><path d="M925 1h27v45h-27z"/></clipPath><clipPath id="bh"><path d="M953 1h27v45h-27z"/></clipPath><clipPath id="bi"><path d="M981 1h27v45h-27z"/></clipPath><clipPath id="bj"><path d="M1009 1h27v45h-27z"/></clipPath><clipPath id="bk"><path d="M1037 1h27v45h-27z"/></clipPath><clipPath id="bl"><path d="M1065 1h27v45h-27z"/></clipPath><clipPath id="bm"><path d="M1093 1h27v45h-27z"/></clipPath><clipPath id="bn"><path d="M1121 1h27v45h-27z"/></clipPath><clipPath id="bo"><path d="M1149 1h27v45h-27z"/></clipPath><clipPath id="bp"><path d="M1177 1h27v45h-27z"/></clipPath><clipPath id="bq"><path d="M1205 1h27v45h-27z"/></clipPath><clipPath id="br"><path d="M1233 1h27v45h-27z"/></clipPath><clipPath id="bs"><path d="M1261 1h27v45h-27z"/></clipPath><clipPath id="bt"><path d="M1289 1h27v45h-27z"/></clipPath><g id="Q"><path fill="#e8ddc7" d="M0 .1h1.5q.4.2.5.5.3 1.6 0 1.7h-.3V1.1Q1 .2 0 .1"/><path fill="#bdb4a2" d="M0 .1q1.1.1 1.7 1v1.2l-.1-.1-.5-.7L0 .3z"/></g><g id="S"><path fill="#bdb4a2" d="m1.8 6-.2-.1-.3-.2Q.6 5.1.5 4.2V4l-.2-.7v-.9l.3-1L.3.8 0 .3V0l2.3.8-.8 2.4L1 4z"/><path fill="#e8ddc7" d="m2.3.8.9.4 2.9 3.3-1.3 1-2.4.6-.6-.1L1 4l.4-.8z"/></g><g id="b"><path fill="#a62c2c" d="m.3 5.6.2-.4 2.2-.4v.6q-1.2 1-2.5 1z"/><path fill="none" stroke="#1f1f1f" stroke-linecap="round" stroke-linejoin="round" stroke-opacity=".3" stroke-width="__RESOLUTION__" d="m.5 5.2.3-1L1 2.4Q1.2 1 1.9.5T3 .1M.3 5.6l-.1.8L0 7.8m2.7-2.4v-.6m.8-1.3-.8 2h0l-.3 3.4m.3-3.4z" vector-effect="non-scaling-stroke"/></g><g id="d"><path fill="#a62c2c" d="m2 .9-1.2.9.9-1.2H2zM.2 3q.3.9 1 1.2l.7-1L1.7 8 .5 7.8z"/><path fill="none" stroke="#1f1f1f" stroke-linecap="round" stroke-linejoin="round" stroke-opacity=".5" stroke-width="__RESOLUTION__" d="M2 .9V.6M.2 3l.2 4.8m1.3.1.2-4.6L2 .9M0 0l.2 3" vector-effect="non-scaling-stroke"/></g><g id="T"><path fill="#a62c2c" d="m2.3.4.5 1q.1.6-.2 1t-.9.4-1-.4-.7-1q0-.6.3-1t.9-.4 1 .4"/><path fill="#f0ece8" d="m3 2.4 2.6.3.6 3.2L5 4.2z"/></g><g id="V"><path fill="#bdb4a2" d="M2.2 7.7 2 7.6 0 6.1q-.1-.4 1.6-4.3L3 .8 6.3 0l.5 2.1-.1.4-.2.7-.3.4.3 1.1v.4l-.6-.5-1.3.4-.6.8-1.5.1z"/><path fill="#e8ddc7" d="m2.2 7.7.2-1.8L4 5.8l.6-.8 1.3-.4.5.5v.5l-.2.6q-.2 1-.7 1.6l-.4.2-.8.2z"/></g><g id="W"><path fill="#a62c2c" d="m.2 3.9-.1-.5v-.3l.2-.8.8-2.2L3.4 0l.3 2v2.3l-.4.9-.1 2.1q-.7.2-1-.2L2 5.2v1.3l-1-.2-.1-1V4.1z"/><path fill="#912f2f" d="M3.7 2q0 .5.4 1.2L4.6 5l-.9.8-.5 1.5.2-2.1.3-1v-.9zM.9 5.4 0 4.9V3.4l.2.5.8.2-.1 1.2z"/><path fill="#8b5e3d" d="M.9 5.3"/></g><g id="Y"><path fill="#bdbaaf" d="M3.5 5Q1.3 3.7 0 .8l3-.3.7 2.5z"/><path fill="#e8ddc7" d="m3.5 5 .3-2L3 .5 7.6 0l-.5 4q-1 2.4-3.2 1.2z"/></g><g id="l"><path fill="none" stroke="#1f1f1f" stroke-linecap="round" stroke-linejoin="round" stroke-opacity=".3" stroke-width="__RESOLUTION__" d="M6.7 1 3.9 0 1.3.5Q.3 1.9 0 4l1 .6.4.4.6 1.4q.6 1.7 2 2l3.6-.3.9-2.7-.6-2.9z" vector-effect="non-scaling-stroke"/><path fill="#38311e" fill-opacity=".3" d="m6.6 1 1.2 1.6.7 2.7-1 2.8-3.5.3q-1.5-.3-2-2L1.4 5Q7 7 5.3 4.5q-2.5-1.6-2-1.6h2q1.5-.1 1.3-2"/></g><g id="j"><path fill="none" stroke="#1f1f1f" stroke-linecap="round" stroke-linejoin="round" stroke-opacity=".3" stroke-width="__RESOLUTION__" d="M6.6 5.8q-1.6.6-2.3.6l-.8-.2-.4-.3q-.6-.5-.8-1.5v-.1l-.1-.4v-.5L2 3v-.1l.1-.6.2-.5-.3-.5-.2-.6" vector-effect="non-scaling-stroke"/><path fill="none" stroke="#52351b" stroke-linecap="round" stroke-linejoin="round" stroke-width="__RESOLUTION__" d="m2.2 2.2.4.3" vector-effect="non-scaling-stroke"/><path fill="#f0ece8" d="M2.4 5.9v1.8L1.2 4.5v-3Q2.5.6 4 1.3 3.1 4.2 3.6 8zl-.2-1z"/><path fill="none" stroke="#000" stroke-linecap="round" stroke-linejoin="round" stroke-opacity=".4" stroke-width="__RESOLUTION__" d="M2.4 6v1.8L1.2 4.5v-3M4 1.3Q3.1 4.2 3.6 8L2.4 5.9l-.2-1" vector-effect="non-scaling-stroke"/><path fill="#f0ece8" d="M2.8.3 0 5l.1-3 1.5-2z"/><path fill="none" stroke="#000" stroke-linecap="round" stroke-linejoin="round" stroke-opacity=".4" stroke-width="__RESOLUTION__" d="M1.6 0 .1 2 0 5 2.8.3" vector-effect="non-scaling-stroke"/></g><g id="Z"><path fill="#d1cec2" d="m7.3 3.8-.8-1.3-1.2-.6v-.1l1.2.7q.3.8.8 1.3M.8 2.6l-.3.2-.6 1q.1-.7.6-1z"/><path fill="#e8ddc7" d="M7.3 3.8q.7 2.2.5 3-.8 1.9-.6 2.5L8 13l-4 1.3-.7-1.2-.6-4.7 1.7-.2 1.2-.6q1.2 0 2.1-.9-1 .9-2.1.9l-1.1.5h-.1l-1.9-.7-1.3-3.2-.4-1.7.7-.4.2-.2.4-1.3L4.5 0l.8 1.8-1.8.4 2 1.5zM5.4 5.9l.3 1.7z"/><path fill="#bdb4a2" d="m5.3 1.9 1.2.6.7 1.3-1.8-.1-1.9-1.6zm-.8 6.3-1.6.2.6 4.7.7 1.2-1.4.4-1.3-.8.1-.4.7-1.6L2 9.3.4 7.4l-.4-3v-.5l.6-1.1.3-.2.4 1.6 1.3 3.3z"/><path fill="#b0824f" fill-opacity=".3" d="M4.6 8.2"/><path fill="none" stroke="#1f1f1f" stroke-linecap="round" stroke-linejoin="round" stroke-opacity=".5" stroke-width="__RESOLUTION__" d="M7.3 3.8q-.5-.5-.8-1.3h0m1.3 4.3q.2-.8-.5-3m.8 9.2-1-3.7q-.1-.6.7-2.5M0 3.8v.6m2 4.9.3 2.6-.7 1.6-.1.4M.6 2.8q-.5.3-.6 1" vector-effect="non-scaling-stroke"/><path fill="none" stroke="#1f1f1f" stroke-linecap="round" stroke-linejoin="round" stroke-opacity=".3" stroke-width="__RESOLUTION__" d="M7.8 6.8q-1 .8-2.1.8l-1.1.6h-.1m1.2-.6-.3-1.7m-.1-4.1L4.5 0M2.2.6l-.4 1.3-.2.2m3 9q-.4 1.5-.1 3.1m2.7-6-.5 1.5m.8.2L7 11.3M2 9.2q1 .8 2.3 1m-2.3.4q1 .8 2.3 1" vector-effect="non-scaling-stroke"/></g><g id="aa"><path fill="#74718c" d="M6 1.2 3.7 7.8l-2.5-.1L0 6.6 1.2 0l1.7.7z"/><path fill="none" stroke="#6a5f39" stroke-linecap="round" stroke-linejoin="round" stroke-width="__RESOLUTION__" d="M6 1.2 3.7 7.8M0 6.6 1.2 0" vector-effect="non-scaling-stroke"/><path fill="#453a25" fill-opacity=".3" d="M1 7.7 0 6.5 1.3 0 3 .7z"/></g><g id="ab"><path fill="#74718c" d="M5.6 0 3.7 7.6l-2 .5.3-6.6zM.1 3.3V1.1z"/><path fill="#66606c" d="M1.7 8.1 0 7V3.3l.1-2.2 1.9.4z"/><path fill="none" stroke="#6a5f39" stroke-linecap="round" stroke-linejoin="round" stroke-width="__RESOLUTION__" d="M5.6 0 3.7 7.6M0 7V1.1" vector-effect="non-scaling-stroke"/></g><g id="ac"><path fill="#a62c2c" d="m3 .2 1.5.2.3 1.4L5 3 3.6 4.6l-2-1.3 1.6.2v-.7l.2-.5zM1.7 3.3l1.9 1.3V5L.8 3.9v-.3l.5-1.4.7.3zm2 1.3v-.3l-.1.2z"/><path fill="#912f2f" d="m3 .2.4 2.1L2.3 2l-.2.4-.8-.2.1-.3-.4-.1.8-1.8z"/><path fill="#c44040" d="m3.4 2.3-.2.6v.5l-1.6-.1.5-.8.2-.6zM.9 3.6 0 2.9l.4-1.3.6.1.5.2-.2.3z"/><path fill="#d64646" d="M3.5 4.6"/><path fill="none" stroke="#1f1f1f" stroke-linecap="round" stroke-linejoin="round" stroke-opacity=".3" stroke-width="__RESOLUTION__" d="M4.9 1.8 4.4.4 3 .2 1.9 0 1 1.8" vector-effect="non-scaling-stroke"/><path fill="none" stroke="#1f1f1f" stroke-linecap="round" stroke-linejoin="round" stroke-opacity=".3" stroke-width="__RESOLUTION__" d="m1.6 3.3 1.9 1.3h0m0 0L5 3.1l-.2-1.4m-2.7.7.1-.5m-.2.5-.4.9" vector-effect="non-scaling-stroke"/></g><g id="ad"><use xlink:href="#a" width="3.8" height="8.8"/><use xlink:href="#b" width="3.5" height="8.8"/></g><g id="ae"><use xlink:href="#c" width="2" height="4.2"/><use xlink:href="#d" width="2" height="7.9"/></g><g id="af"><path fill="#e8ddc7" d="m3.9 1.3-1 3.9Q2.3 7 2.6 8.4h-2Q.9 4.5 2 .2q1-.3 2 1.2"/><path fill="#bdb4a2" d="M1.9 0Q.8 4.5.7 8.6L0 8q.2-1 0-3.5Q0 2.3.9.7z"/><path fill="none" stroke="#000" stroke-linecap="round" stroke-linejoin="round" stroke-opacity=".4" stroke-width="__RESOLUTION__" d="M2.6 8.4q-.3-1.3.3-3.2l1-3.9M0 8q.2-1 0-3.5Q0 2.3.9.7" vector-effect="non-scaling-stroke"/></g><g id="ag"><path fill="#ffce8c" d="M3.9 0q.1.7.6 1.9l.3 1.6-.3-1.6z"/><path fill="#e8ddc7" d="M3.9 0q0 .7.6 1.9l.3 1.6h.3l.1 1.7h-2v-.3h-.4v.3l-1.3-.3-.1-.3-.5-.2-.1.5-.8-.3.3-1.3h.2L1.6 0zm.9 3.5H3.1l.1 1.4L3 3.5zm-2.1.4L.5 3.3z"/><path fill="none" stroke="#1f1f1f" stroke-linecap="round" stroke-linejoin="round" stroke-opacity=".3" stroke-width="__RESOLUTION__" d="M3.9 0q0 .7.6 1.9l.3 1.6h.3l.1 1.7h-2m-.4 0-1.3-.3-.1-.3m-.6.3L0 4.6l.3-1.3h.2L1.6 0m1.6 4.9-.1-1.4h1.7M.5 3.3l2.2.6" vector-effect="non-scaling-stroke"/></g><g id="ah"><path fill="#e8ddc7" d="M1 .4h.5l1-.4Q2.7.5 4 1.4l.1.2 1 .7.1.1.1.1h-.1l-1.1-1 1.1 1h.1l.2-.1.3.9-1 .6v-.3l-.3.1.2.8-.7.1-.4-1H3L1.2 1.8zm3.5 3.3-.1-.5-1.5.2v.2-.2l1.5-.2zm.7-1.1-.6.4z"/><path fill="#bdb4a2" d="M3.6 4.7h-.4l-.1-.3-.5-.1-.2-.2-.3-.2-.1-.2L0 2Q0 1 .6.3H1v1.6l2 1.7h.6l.4 1zm-.5-.3L3 3.6z"/><path fill="none" stroke="#1f1f1f" stroke-linecap="round" stroke-linejoin="round" stroke-opacity=".3" stroke-width="__RESOLUTION__" d="M2.5 0Q2.7.5 4 1.4l.1.2 1.1 1 .1-.1.2-.1.3.9m-1.3.4.2.8-.7.1h-.4l-.4.1-.1-.3-.1-.8-.1-.2 1.5-.3zm-2.1.4-.3-.2-.1-.1L0 2Q0 1 .6.3m4 2.7.6-.4" vector-effect="non-scaling-stroke"/></g><g id="ai"><path fill="#f0ece8" d="m2 0 .9 1-.3 6.7-.1.1-1-2.9-.4-1 .1-.2L.1 6H0l.3-4zm-.1.9-.7 2.8z"/><path fill="#ccc3bc" d="M2.9 1V.8l1.2.5.3 2.6-1.9 3.8zM1.5 4.9 0 5.9l1.1-2.2-.1.2z"/><path fill="none" stroke="#000" stroke-linecap="round" stroke-linejoin="round" stroke-opacity=".4" stroke-width="__RESOLUTION__" d="m4 1.3.3 2.6-1.8 3.8m-1-2.8L0 5.9" vector-effect="non-scaling-stroke"/><path fill="none" stroke="#1f1f1f" stroke-linecap="round" stroke-linejoin="round" stroke-opacity=".3" stroke-width="__RESOLUTION__" d="m2.6 7.7-.1.1-1-2.9-.4-1 .1-.2.7-2.8m-1.8 5L0 6l.3-4L2 0" vector-effect="non-scaling-stroke"/></g><g id="v"><path fill="none" stroke="#1f1f1f" stroke-linecap="round" stroke-linejoin="round" stroke-opacity=".3" stroke-width="__RESOLUTION__" d="M7.9 1.6 4.9 0l-4 1.2-.9 5 1 2 3.3-2.8 4.6-.9z" vector-effect="non-scaling-stroke"/><path fill="#3d3521" fill-opacity=".3" d="M4.3 5.4 1.1 8 0 6.2l.8-5.1q.5 1 3.2.7 2.6-.2 2.8.6t-4 1.7q-1.1.7 6 .4z"/></g><g id="o"><path fill="none" stroke="#1f1f1f" stroke-linecap="round" stroke-linejoin="round" stroke-opacity=".3" stroke-width="__RESOLUTION__" d="m1.4 6 2.3.6.8-.1.4-.3q.6-.5.8-1.5v0V4l.1-.1V3l-.3-1h0l.3-.5L6 1" vector-effect="non-scaling-stroke"/><path fill="none" stroke="#52351b" stroke-linecap="round" stroke-linejoin="round" stroke-width="__RESOLUTION__" d="m3.2 3.3.7-.1m1.5-.4.3-.2" vector-effect="non-scaling-stroke"/><path fill="#f0ece8" d="M5.4.4 6.5 0l.9 2.4L7 5.1z"/><path fill="none" stroke="#000" stroke-linecap="round" stroke-linejoin="round" stroke-opacity=".4" stroke-width="__RESOLUTION__" d="m6.5 0 .9 2.4L7 5.1 5.4.4" vector-effect="non-scaling-stroke"/><path fill="#f0ece8" d="M1.3 6.1v1.8L.1 5 0 2.3Q1.4.6 2.8.6q-.7 3.4-.3 7zm-.3-1 .3.9z"/><path fill="none" stroke="#000" stroke-linecap="round" stroke-linejoin="round" stroke-opacity=".4" stroke-width="__RESOLUTION__" d="M1.3 6.1v1.8L.1 5 0 2.3M2.8.6q-.7 3.4-.3 7L1.2 6 1 5.2" vector-effect="non-scaling-stroke"/><path fill="#f0ece8" d="M2.9.5h1.3L2.7 5.8l-.6-2.9z"/><path fill="none" stroke="#000" stroke-linecap="round" stroke-linejoin="round" stroke-opacity=".4" stroke-width="__RESOLUTION__" d="m2.9.5-.8 2.4.6 2.9L4.2.5" vector-effect="non-scaling-stroke"/></g><g id="x"><path fill="#e7d6bc" d="M0 0"/><path fill="none" stroke="#653f01" stroke-linecap="round" stroke-linejoin="round" stroke-width="__RESOLUTION__" d="M0 0" vector-effect="non-scaling-stroke"/></g><g id="C"><path fill="none" stroke="#6a5f39" stroke-linecap="round" stroke-linejoin="round" stroke-width="__RESOLUTION__" d="m8.9 4.5-.6-1.3-.3.9m.3-.9.5-1.1.9.4Q9.4.5 8.3 0m-8 5.9 1-2.2-.4-.4q-1-.8-.9-1.4L1.5.3q.6 1.7 2.2 2h0l.9.2-1.7 2.2-.7-.4-.9-.6" vector-effect="non-scaling-stroke"/><path fill="#453a25" fill-opacity=".3" d="M5.8 3.7 2.6 6.4.2 5.8l1.1-2 1 .6.5.3 1.8-2.2.3 1zM3.7 2.3H1.9l-1 .9q-1-.8-.9-1.4L1.5.3q.6 1.7 2.2 2"/><path fill="#88532d" d="m2.8 4.7 1.1-1.3q3 .4 4.8-1L8.8 4Q8 5.6 3 4.7zM1 4.3l.1-.7 1.4 1z"/><path fill="none" stroke="#6a5f39" stroke-linecap="round" stroke-linejoin="round" stroke-width="__RESOLUTION__" d="M3 4.7h-.2" vector-effect="non-scaling-stroke"/><path fill="#ad7901" d="m8.2 2.7-.1 2.8-2.5.6.1-2.8zm-.4.6-1.7.4L6 5.5l1.7-.3z"/></g><g id="bg" transform="translate(5.95 10.45)"><use xlink:href="#e" width="6.1" height="6.1" transform="translate(-4.1 -6.7)"/><use xlink:href="#j" width="6.6" height="8" transform="translate(-5.95 -6.95)"/><use xlink:href="#k" width="8.5" height="8.4" transform="translate(-4.25 -10.45)"/><use xlink:href="#l" width="8.5" height="8.4" transform="translate(-4.25 -10.45)"/><use xlink:href="#m" width="2.1" height="2.3" transform="matrix(-.9933 0 0 .9933 -.5 -4.6)"/></g><g id="ay" transform="translate(5.5 7.45)"><use xlink:href="#n" width="6.8" height="8.2" transform="translate(-2.05 -4.95)"/><use xlink:href="#o" width="7.3" height="7.8" transform="translate(-1.45 -3.4)"/><use xlink:href="#u" width="8.9" height="8.2" transform="translate(-3.8 -7.45)"/><use xlink:href="#v" width="8.9" height="8.2" transform="translate(-3.8 -7.45)"/><use xlink:href="#m" width="2.1" height="2.3" transform="matrix(1.88 0 0 .9757 -5.5 -1)"/><use xlink:href="#w" width="6.2" height="6" transform="translate(1.1 -5.95)"/></g><g id="ax" transform="translate(1.15 -.8)"><use xlink:href="#x" width=".1" height=".1" transform="translate(2.4 2.65)"/><use xlink:href="#y" width="4.6" height="7.3" transform="matrix(.9674 0 0 .9388 -1.15 .8)"/><use xlink:href="#z" width="4.5" height="5" transform="translate(-1.15 2.7)"/></g><g id="av" transform="translate(3.9 -.05)"><use xlink:href="#A" width="7.7" height="5.6" transform="translate(-3 .2)"/><use xlink:href="#B" width="9.7" height="7" transform="translate(-3.9 .05)"/><use xlink:href="#C" width="9.7" height="6.3" transform="translate(-3.9 .05)"/></g><use xlink:href="#D" id="a" width="3.8" height="8.8"/><use xlink:href="#E" id="c" width="2" height="4.2"/><use xlink:href="#Q" id="m" width="2.1" height="2.3"/><use xlink:href="#R" id="k" width="8.5" height="8.4"/><use xlink:href="#S" id="e" width="6.1" height="6.1"/><use xlink:href="#T" id="w" width="6.2" height="6"/><use xlink:href="#U" id="u" width="8.9" height="8.2"/><use xlink:href="#V" id="n" width="6.8" height="8.2"/><use xlink:href="#W" id="y" width="4.6" height="7.3"/><use xlink:href="#X" id="B" width="9.7" height="7"/><use xlink:href="#Y" id="A" width="7.7" height="5.6"/><use xlink:href="#Z" id="aw" width="8.1" height="14.8"/><use xlink:href="#aa" id="au" width="6" height="7.8"/><use xlink:href="#ab" id="at" width="5.6" height="8.1"/><use xlink:href="#ac" id="as" width="5" height="5"/><use xlink:href="#ad" id="ar" width="3.8" height="8.8" transform="matrix(.8964 -.0039 .087 .8326 0 .05)"/><use xlink:href="#ae" id="aq" width="2" height="7.9" transform="matrix(.9726 -.2293 .1674 .9872 0 .45)"/><use xlink:href="#af" id="ap" width="3.9" height="8.6"/><use xlink:href="#ag" id="ao" width="5.2" height="5.2"/><use xlink:href="#ah" id="an" width="5.8" height="4.8"/><use xlink:href="#ai" id="am" width="4.3" height="7.8"/><use xlink:href="#aj" id="al" width="14.7" height="4.3"/><path id="D" fill="#e8ddc7" d="M1.8-3.1q.2 1-.1 2.2L.9 1H.6v3.5l-2.4-1.1.2-1.4Q-.3 2 .8 1V.4l-2.2.4.2-1L-.8-2q.2-1.3.8-1.9t1.2-.4.7 1.2" transform="translate(1.9 4.4)"/><path id="E" fill="#e8ddc7" d="M1-1.2.9 1 .2 2q-.7-.3-1-1.2L-1-2l1.7.6-1 1.2z" transform="translate(1 2.1)"/><path id="R" fill="#74718c" d="m2.4-3.3 1.2 1.6.6 2.8-.9 2.8-3.5.3q-1.4-.3-2-2L-2.8.8l-.5-.5-1-.5q.4-2.2 1.3-3.5l2.7-.5z" transform="translate(4.25 4.25)"/><path id="U" fill="#74718c" d="m.5-4.1 3 1.6 1 3-4.7.8-3.2 2.8-1-2 .9-5z" transform="translate(4.45 4.1)"/><path id="X" fill="#74718c" d="M3.5-3.5q1.1.6 1.4 2.5l-1-.4-.4 1.1L4 1 1 3.6l-5.6-1.3 1.1-2-.4-.5q-1-.9-.9-1.5L-3.3-3q.6 1.6 2.1 2h.1l.9.1.2 1 1.4.2L3.2-1l.1.2z" transform="translate(4.8 3.5)"/><path id="aj" fill="#382c16" d="M5.8-1.9Q7.9-1.4 8-.5 8 .3 5.9 1 3.8 1.8.7 2l-5.2-.4Q-6.7 1.2-6.7.3q-.1-.8 2-1.6 2.2-.8 5.2-.9z" transform="translate(6.75 2.25)"/><path id="z" fill="none" stroke="#1f1f1f" stroke-linecap="round" stroke-linejoin="round" stroke-opacity=".3" stroke-width="__RESOLUTION__" d="M-1.1 3.7v1.7l.9.4v.9L1 7 .8 5.7m1.7-3 .3 1 .5 1.8-.9.7h0L2 7.7q-.7.3-1-.1V7" transform="translate(1.15 -2.7)" vector-effect="non-scaling-stroke"/></defs><g clip-path="url(#ak)"><g transform="translate(12.25 42.3)"><use xlink:href="#al" width="14.7" height="4.3" transform="matrix(.8 0 0 .8 -5.4 -1.8)"/><use xlink:href="#am" width="4.3" height="7.8" transform="matrix(.9665 .1702 -.2657 .9879 -2.65 -32.7)"/><use xlink:href="#an" width="5.8" height="4.8" transform="translate(.15 -3.3)"/><use xlink:href="#ao" width="5.2" height="5.2" transform="translate(-4.95 -2.4)"/><use xlink:href="#ap" width="3.9" height="8.6" transform="translate(.25 -10.5)"/><use xlink:href="#aq" width="3.3" height="8.3" transform="matrix(.9834 -.1782 .0441 .9989 3.95 -24.15)"/><use xlink:href="#ar" width="4.2" height="7.4" transform="matrix(.9275 -.3708 .2373 .9801 1.45 -29.85)"/><use xlink:href="#as" width="5" height="5" transform="translate(4.2 -17.6)"/><use xlink:href="#ap" width="3.9" height="8.6" transform="translate(-3.5 -9.6)"/><use xlink:href="#at" width="5.6" height="8.1" transform="translate(.8 -16.7)"/><use xlink:href="#au" width="6" height="7.8" transform="rotate(-4.291 -206.57 38.365)scale(.9996)"/><use xlink:href="#av" width="9.7" height="7" transform="matrix(.9998 -.0133 -.0046 1 -2.25 -19.6)"/><use xlink:href="#aw" width="8.1" height="14.8" transform="matrix(1 0 .0349 .9994 -2.2 -32.45)"/><use xlink:href="#ad" width="3.8" height="8.8" transform="rotate(4.262 405.222 -66.883)scale(.9998)"/><use xlink:href="#ax" width="4.5" height="6.9" transform="translate(-5.2 -16.95)"/><use xlink:href="#ae" width="2" height="7.9" transform="translate(-4.4 -22.7)"/><use xlink:href="#ay" width="12.8" height="11.9" transform="translate(-4.2 -41.05)"/></g></g><g clip-path="url(#az)"><g transform="translate(40.25 42.3)"><use xlink:href="#al" width="14.7" height="4.3" transform="matrix(.8 0 0 .8 -5.4 -1.8)"/><use xlink:href="#am" width="4.3" height="7.8" transform="matrix(.9305 .3077 -.4044 .938 -2 -32.8)"/><use xlink:href="#an" width="5.8" height="4.8" transform="translate(.15 -3.3)"/><use xlink:href="#ao" width="5.2" height="5.2" transform="translate(-5.05 -2.45)"/><use xlink:href="#ap" width="3.9" height="8.6" transform="rotate(2.253 267.387 13.822)scale(.9998)"/><use xlink:href="#aq" width="3.3" height="8.3" transform="matrix(.9757 -.2128 .0793 .9963 4.05 -23.9)"/><use xlink:href="#ar" width="4.2" height="7.4" transform="matrix(.943 -.3258 .2186 .9819 1.75 -29.7)"/><use xlink:href="#as" width="5" height="5" transform="rotate(-2.793 -353.719 -96.873)scale(.9995)"/><use xlink:href="#ap" width="3.9" height="8.6" transform="matrix(1 0 -.0138 .988 -3.5 -9.6)"/><use xlink:href="#at" width="5.6" height="8.1" transform="matrix(.998 -.0576 .0576 .998 .9 -16.35)"/><use xlink:href="#au" width="6" height="7.8" transform="matrix(.9966 -.0743 .0793 .9964 -3.45 -15.3)"/><use xlink:href="#av" width="9.7" height="7" transform="matrix(1.0008 .0051 -.0183 .9922 -2.15 -19.65)"/><use xlink:href="#aw" width="8.1" height="14.8" transform="matrix(1.0049 -.0223 .0092 .9998 -1.85 -32.25)"/><use xlink:href="#ad" width="3.8" height="8.8" transform="matrix(.9973 .066 -.066 .9973 -3.55 -30)"/><use xlink:href="#ax" width="4.5" height="6.9" transform="rotate(-1.542 -624.603 158.824)scale(.9997)"/><use xlink:href="#ae" width="2" height="7.9" transform="rotate(-3.022 -430.437 65.473)scale(.9997)"/><use xlink:href="#ay" width="12.8" height="11.9" transform="rotate(.304 7657.865 -699.482)"/></g></g><g clip-path="url(#aA)"><g transform="translate(68.25 42.3)"><use xlink:href="#al" width="14.7" height="4.3" transform="matrix(.8 0 0 .8 -5.4 -1.8)"/><use xlink:href="#am" width="4.3" height="7.8" transform="matrix(.8758 .4386 -.5382 .8674 -1.3 -32.9)"/><use xlink:href="#an" width="5.8" height="4.8" transform="translate(.15 -3.3)"/><use xlink:href="#ao" width="5.2" height="5.2" transform="translate(-5.15 -2.55)"/><use xlink:href="#ap" width="3.9" height="8.6" transform="rotate(4.505 134.744 10.616)scale(.9995)"/><use xlink:href="#aq" width="3.3" height="8.3" transform="matrix(.9664 -.2507 .1181 .9922 4.2 -23.8)"/><use xlink:href="#ar" width="4.2" height="7.4" transform="matrix(.9565 -.2837 .2014 .9838 2.15 -29.45)"/><use xlink:href="#as" width="5" height="5" transform="matrix(.994 -.1005 .1005 .994 4.3 -17.2)"/><use xlink:href="#ap" width="3.9" height="8.6" transform="matrix(1 0 -.0304 .9757 -3.5 -9.6)"/><use xlink:href="#at" width="5.6" height="8.1" transform="matrix(.9922 -.1183 .1183 .9922 .95 -16)"/><use xlink:href="#au" width="6" height="7.8" transform="matrix(.9967 -.0743 .0876 .9958 -3.45 -15.25)"/><use xlink:href="#av" width="9.7" height="7" transform="matrix(1.0014 .0267 -.0352 .9841 -2.05 -19.9)"/><use xlink:href="#aw" width="8.1" height="14.8" transform="matrix(1.0092 -.0448 -.0132 .9997 -1.6 -32.05)"/><use xlink:href="#ad" width="3.8" height="8.8" transform="rotate(3.505 486.995 -68.88)scale(.9995)"/><use xlink:href="#ax" width="4.5" height="6.9" transform="rotate(-3.27 -292.645 56.516)scale(.9993)"/><use xlink:href="#ae" width="2" height="7.9" transform="rotate(-6.048 -213.873 24.29)scale(.9994)"/><use xlink:href="#ay" width="12.8" height="11.9" transform="rotate(.797 2879.358 -235.82)scale(.9999)"/></g></g><g clip-path="url(#aB)"><g transform="translate(96.25 42.3)"><use xlink:href="#al" width="14.7" height="4.3" transform="matrix(.8 0 0 .8 -5.4 -1.8)"/><use xlink:href="#am" width="4.3" height="7.8" transform="matrix(.8009 .5628 -.6576 .7802 -.65 -32.95)"/><use xlink:href="#an" width="5.8" height="4.8" transform="translate(.15 -3.3)"/><use xlink:href="#ao" width="5.2" height="5.2" transform="translate(-5.2 -2.6)"/><use xlink:href="#ap" width="3.9" height="8.6" transform="rotate(6.759 90.232 9.966)scale(.9992)"/><use xlink:href="#aq" width="3.3" height="8.3" transform="matrix(.9557 -.2881 .1566 .9866 4.3 -23.6)"/><use xlink:href="#ar" width="4.2" height="7.4" transform="matrix(.9689 -.2379 .1874 .9849 2.45 -29.2)"/><use xlink:href="#as" width="5" height="5" transform="matrix(.9869 -.152 .152 .9869 4.4 -17)"/><use xlink:href="#ap" width="3.9" height="8.6" transform="matrix(1 0 -.0466 .9632 -3.5 -9.6)"/><use xlink:href="#at" width="5.6" height="8.1" transform="rotate(-10.294 -86.347 -13.653)scale(.9989)"/><use xlink:href="#au" width="6" height="7.8" transform="matrix(.9966 -.0743 .0926 .9955 -3.35 -15.25)"/><use xlink:href="#av" width="9.7" height="7" transform="matrix(1.0014 .0483 -.0518 .9757 -1.9 -20.05)"/><use xlink:href="#aw" width="8.1" height="14.8" transform="matrix(1.0128 -.0709 -.0356 .999 -1.3 -31.85)"/><use xlink:href="#ad" width="3.8" height="8.8" transform="rotate(3.034 558.32 -71.468)scale(.9995)"/><use xlink:href="#ax" width="4.5" height="6.9" transform="rotate(-4.812 -196.073 27.526)scale(.999)"/><use xlink:href="#ae" width="2" height="7.9" transform="rotate(-9.257 -139.403 9.54)scale(.999)"/><use xlink:href="#ay" width="12.8" height="11.9" transform="rotate(1.284 1766.172 -126.913)scale(.9999)"/></g></g><g clip-path="url(#aC)"><g transform="translate(124.25 42.3)"><use xlink:href="#al" width="14.7" height="4.3" transform="matrix(.8 0 0 .8 -5.4 -1.8)"/><use xlink:href="#am" width="4.3" height="7.8" transform="matrix(.7087 .6746 -.7654 .6743 .05 -32.9)"/><use xlink:href="#an" width="5.8" height="4.8" transform="translate(.15 -3.3)"/><use xlink:href="#ao" width="5.2" height="5.2" transform="translate(-5.3 -2.7)"/><use xlink:href="#ap" width="3.9" height="8.6" transform="rotate(9.007 68.124 9.326)scale(.999)"/><use xlink:href="#aq" width="3.3" height="8.3" transform="matrix(.9445 -.322 .1917 .9801 4.4 -23.4)"/><use xlink:href="#ar" width="4.2" height="7.4" transform="matrix(.9784 -.1949 .1702 .9863 2.85 -29.05)"/><use xlink:href="#as" width="5" height="5" transform="rotate(-11.553 -80.81 -30.394)scale(.9981)"/><use xlink:href="#ap" width="3.9" height="8.6" transform="matrix(1 0 -.0624 .9503 -3.5 -9.55)"/><use xlink:href="#at" width="5.6" height="8.1" transform="matrix(.9697 -.238 .238 .9697 1.15 -15.3)"/><use xlink:href="#au" width="6" height="7.8" transform="matrix(.9966 -.0743 .1009 .9948 -3.3 -15.2)"/><use xlink:href="#av" width="9.7" height="7" transform="matrix(1.0012 .0667 -.0681 .9671 -1.9 -20.15)"/><use xlink:href="#aw" width="8.1" height="14.8" transform="matrix(1.016 -.0938 -.0612 .9976 -.9 -31.65)"/><use xlink:href="#ad" width="3.8" height="8.8" transform="rotate(2.563 657.92 -76.21)scale(.9995)"/><use xlink:href="#ax" width="4.5" height="6.9" transform="rotate(-6.538 -142.942 11.597)scale(.9986)"/><use xlink:href="#ae" width="2" height="7.9" transform="rotate(-12.28 -104.71 3.076)scale(.9986)"/><use xlink:href="#ay" width="12.8" height="11.9" transform="rotate(1.777 1261.448 -76)scale(.9998)"/></g></g><g clip-path="url(#aD)"><g transform="translate(152.25 42.3)"><use xlink:href="#al" width="14.7" height="4.3" transform="matrix(.8 0 0 .8 -5.4 -1.8)"/><use xlink:href="#am" width="4.3" height="7.8" transform="matrix(.6048 .7708 -.856 .5571 .75 -32.95)"/><use xlink:href="#an" width="5.8" height="4.8" transform="translate(.15 -3.3)"/><use xlink:href="#ao" width="5.2" height="5.2" transform="translate(-5.4 -2.75)"/><use xlink:href="#ap" width="3.9" height="8.6" transform="rotate(11.265 55.14 8.895)scale(.9987)"/><use xlink:href="#aq" width="3.3" height="8.3" transform="matrix(.9311 -.3586 .2297 .9717 4.55 -23.25)"/><use xlink:href="#ar" width="4.2" height="7.4" transform="matrix(.9866 -.1481 .153 .9874 3.15 -28.9)"/><use xlink:href="#as" width="5" height="5" transform="rotate(-14.536 -63 -26.163)scale(.9976)"/><use xlink:href="#ap" width="3.9" height="8.6" transform="matrix(1 0 -.0748 .9375 -3.5 -9.65)"/><use xlink:href="#at" width="5.6" height="8.1" transform="matrix(.9531 -.2966 .2966 .9531 1.25 -15)"/><use xlink:href="#au" width="6" height="7.8" transform="matrix(.9967 -.0743 .1092 .9941 -3.3 -15.15)"/><use xlink:href="#av" width="9.7" height="7" transform="matrix(1.0004 .0884 -.0842 .9581 -1.8 -20.4)"/><use xlink:href="#aw" width="8.1" height="14.8" transform="matrix(1.0188 -.1169 -.0835 .9958 -.65 -31.35)"/><use xlink:href="#ad" width="3.8" height="8.8" transform="rotate(2.282 734.29 -76.152)scale(.9995)"/><use xlink:href="#ax" width="4.5" height="6.9" transform="rotate(-8.265 -111.798 2.01)scale(.9983)"/><use xlink:href="#ae" width="2" height="7.9" transform="rotate(-15.31 -83.192 -.956)scale(.9983)"/><use xlink:href="#ay" width="12.8" height="11.9" transform="rotate(2.27 974.744 -48.345)scale(.9997)"/></g></g><g clip-path="url(#aE)"><g transform="translate(180.25 42.3)"><use xlink:href="#al" width="14.7" height="4.3" transform="matrix(.8 0 0 .8 -5.4 -1.8)"/><use xlink:href="#am" width="4.3" height="7.8" transform="matrix(.352 .9256 -.9535 .3246 2.55 -32.45)"/><use xlink:href="#an" width="5.8" height="4.8" transform="translate(.15 -3.3)"/><use xlink:href="#ao" width="5.2" height="5.2" transform="translate(-5.5 -2.85)"/><use xlink:href="#ap" width="3.9" height="8.6" transform="rotate(13.531 46.325 8.608)scale(.9992)"/><use xlink:href="#aq" width="3.3" height="8.3" transform="matrix(.9171 -.3954 .2684 .9624 4.6 -23.1)"/><use xlink:href="#ar" width="4.2" height="7.4" transform="matrix(.9925 -.1046 .1392 .9881 3.55 -28.75)"/><use xlink:href="#as" width="5" height="5" transform="rotate(-17.51 -51.105 -23.159)scale(.998)"/><use xlink:href="#ap" width="3.9" height="8.6" transform="matrix(1 0 -.0919 .9243 -3.5 -9.6)"/><use xlink:href="#at" width="5.6" height="8.1" transform="rotate(-20.792 -39.388 -11.03)scale(.999)"/><use xlink:href="#au" width="6" height="7.8" transform="matrix(.9968 -.0748 .1168 .9937 -3.3 -15.1)"/><use xlink:href="#av" width="9.7" height="7" transform="matrix(.9993 .1117 -.1003 .9492 -1.7 -20.55)"/><use xlink:href="#aw" width="8.1" height="14.8" transform="matrix(1.0209 -.1439 -.1099 .9935 -.3 -31.2)"/><use xlink:href="#ad" width="3.8" height="8.8" transform="rotate(1.984 840.82 -76.67)scale(.9996)"/><use xlink:href="#ax" width="4.5" height="6.9" transform="rotate(-9.966 -91.268 -3.624)scale(.9985)"/><use xlink:href="#ae" width="2" height="7.9" transform="rotate(-18.518 -68.19 -3.718)scale(.999)"/><use xlink:href="#ay" width="12.8" height="11.9" transform="rotate(2.792 783.487 -30.385)scale(.9998)"/></g></g><g clip-path="url(#aF)"><g transform="translate(208.25 42.3)"><use xlink:href="#al" width="14.7" height="4.3" transform="matrix(.8 0 0 .8 -5.4 -1.8)"/><use xlink:href="#am" width="4.3" height="7.8" transform="matrix(.0656 1.0005 -.9917 .0789 4.25 -31.65)"/><use xlink:href="#an" width="5.8" height="4.8" transform="translate(.15 -3.3)"/><use xlink:href="#ao" width="5.2" height="5.2" transform="translate(-5.5 -2.85)"/><use xlink:href="#ap" width="3.9" height="8.6" transform="rotate(13.531 46.325 8.608)scale(.9992)"/><use xlink:href="#aq" width="3.3" height="8.3" transform="matrix(.9042 -.4281 .2998 .9493 4.65 -23)"/><use xlink:href="#ar" width="4.2" height="7.4" transform="matrix(.9883 -.1352 .1477 .9872 3.45 -28.65)"/><use xlink:href="#as" width="5" height="5" transform="matrix(.9374 -.3471 .3445 .9321 5 -16.55)"/><use xlink:href="#ap" width="3.9" height="8.6" transform="matrix(1 0 -.0919 .9243 -3.5 -9.6)"/><use xlink:href="#at" width="5.6" height="8.1" transform="rotate(-20.792 -39.388 -11.03)scale(.999)"/><use xlink:href="#au" width="6" height="7.8" transform="matrix(.9968 -.0748 .1168 .9937 -3.3 -15.1)"/><use xlink:href="#av" width="9.7" height="7" transform="matrix(.9993 .1117 -.1003 .9492 -1.7 -20.55)"/><use xlink:href="#aw" width="8.1" height="14.8" transform="matrix(1.0209 -.1439 -.1099 .9935 -.3 -31.2)"/><use xlink:href="#ad" width="3.8" height="8.8" transform="matrix(.9991 -.0141 .0141 .9991 -2.2 -29)"/><use xlink:href="#ax" width="4.5" height="6.9" transform="rotate(-13.016 -71.079 -7.443)scale(.9972)"/><use xlink:href="#ae" width="2" height="7.9" transform="rotate(-22.287 -56.513 -5.594)scale(.9975)"/><use xlink:href="#ay" width="12.8" height="11.9" transform="rotate(5.535 393.587 -17.99)scale(.9994)"/></g></g><g clip-path="url(#aG)"><g transform="translate(236.25 42.3)"><use xlink:href="#al" width="14.7" height="4.3" transform="matrix(.8 0 0 .8 -5.4 -1.8)"/><use xlink:href="#am" width="4.3" height="7.8" transform="matrix(-.2356 .9868 -.9686 -.1618 6.05 -30.75)"/><use xlink:href="#an" width="5.8" height="4.8" transform="translate(.15 -3.3)"/><use xlink:href="#ao" width="5.2" height="5.2" transform="translate(-5.5 -2.85)"/><use xlink:href="#ap" width="3.9" height="8.6" transform="rotate(13.531 46.325 8.608)scale(.9992)"/><use xlink:href="#aq" width="3.3" height="8.3" transform="matrix(.8894 -.4641 .3287 .9368 4.65 -22.9)"/><use xlink:href="#ar" width="4.2" height="7.4" transform="matrix(.9828 -.1691 .1565 .9866 3.35 -28.6)"/><use xlink:href="#as" width="5" height="5" transform="matrix(.9203 -.3964 .3877 .9112 5.35 -16.75)"/><use xlink:href="#ap" width="3.9" height="8.6" transform="matrix(1 0 -.0919 .9243 -3.5 -9.6)"/><use xlink:href="#at" width="5.6" height="8.1" transform="rotate(-20.792 -39.388 -11.03)scale(.999)"/><use xlink:href="#au" width="6" height="7.8" transform="matrix(.9968 -.0748 .1168 .9937 -3.3 -15.1)"/><use xlink:href="#av" width="9.7" height="7" transform="matrix(.9993 .1117 -.1003 .9492 -1.7 -20.55)"/><use xlink:href="#aw" width="8.1" height="14.8" transform="matrix(1.0209 -.1439 -.1099 .9935 -.3 -31.2)"/><use xlink:href="#ad" width="3.8" height="8.8" transform="rotate(-3.795 -439.598 19.436)scale(.9988)"/><use xlink:href="#ax" width="4.5" height="6.9" transform="rotate(-16.036 -58.342 -9.847)scale(.9966)"/><use xlink:href="#ae" width="2" height="7.9" transform="rotate(-26.046 -47.786 -7.067)scale(.997)"/><use xlink:href="#ay" width="12.8" height="11.9" transform="rotate(8.311 260.51 -13.739)scale(.999)"/></g></g><g clip-path="url(#aH)"><g transform="translate(264.25 42.3)"><use xlink:href="#al" width="14.7" height="4.3" transform="matrix(.8 0 0 .8 -5.4 -1.8)"/><use xlink:href="#am" width="4.3" height="7.8" transform="matrix(-.3264 .9439 -.9202 -.1589 6.3 -30.55)"/><use xlink:href="#an" width="5.8" height="4.8" transform="translate(.15 -3.3)"/><use xlink:href="#ao" width="5.2" height="5.2" transform="translate(-5.5 -2.85)"/><use xlink:href="#ap" width="3.9" height="8.6" transform="rotate(13.531 46.325 8.608)scale(.9992)"/><use xlink:href="#aq" width="3.3" height="8.3" transform="matrix(.8748 -.4968 .36 .9222 4.55 -22.75)"/><use xlink:href="#ar" width="4.2" height="7.4" transform="matrix(.9769 -.1996 .1652 .9859 3.3 -28.5)"/><use xlink:href="#as" width="5" height="5" transform="matrix(.9005 -.4449 .4297 .8883 5.75 -16.9)"/><use xlink:href="#ap" width="3.9" height="8.6" transform="matrix(1 0 -.0919 .9243 -3.5 -9.6)"/><use xlink:href="#at" width="5.6" height="8.1" transform="rotate(-20.792 -39.388 -11.03)scale(.999)"/><use xlink:href="#au" width="6" height="7.8" transform="matrix(.9968 -.0748 .1168 .9937 -3.3 -15.1)"/><use xlink:href="#av" width="9.7" height="7" transform="matrix(.9993 .1117 -.1003 .9492 -1.7 -20.55)"/><use xlink:href="#aw" width="8.1" height="14.8" transform="matrix(1.0209 -.1439 -.1099 .9935 -.3 -31.2)"/><use xlink:href="#ad" width="3.8" height="8.8" transform="rotate(-6.788 -245.213 4.915)scale(.9983)"/><use xlink:href="#ax" width="4.5" height="6.9" transform="rotate(-19.052 -49.16 -11.926)scale(.996)"/><use xlink:href="#ae" width="2" height="7.9" transform="rotate(-29.81 -41.183 -8.145)scale(.9966)"/><use xlink:href="#ay" width="12.8" height="11.9" transform="rotate(11.272 190.678 -11.91)scale(.9987)"/></g></g><g clip-path="url(#aI)"><g transform="translate(292.25 42.3)"><use xlink:href="#al" width="14.7" height="4.3" transform="matrix(.8 0 0 .8 -5.4 -1.8)"/><use xlink:href="#am" width="4.3" height="7.8" transform="matrix(-.4133 .8927 -.8719 -.1581 6.6 -30.3)"/><use xlink:href="#an" width="5.8" height="4.8" transform="translate(.15 -3.3)"/><use xlink:href="#ao" width="5.2" height="5.2" transform="translate(-5.5 -2.85)"/><use xlink:href="#ap" width="3.9" height="8.6" transform="rotate(13.531 46.325 8.608)scale(.9992)"/><use xlink:href="#aq" width="3.3" height="8.3" transform="matrix(.8573 -.5319 .3908 .9066 4.7 -22.7)"/><use xlink:href="#ar" width="4.2" height="7.4" transform="matrix(.9692 -.233 .174 .9852 3.1 -28.4)"/><use xlink:href="#as" width="5" height="5" transform="matrix(.8798 -.4896 .4704 .8635 6.05 -17.2)"/><use xlink:href="#ap" width="3.9" height="8.6" transform="matrix(1 0 -.0919 .9243 -3.5 -9.6)"/><use xlink:href="#at" width="5.6" height="8.1" transform="rotate(-20.792 -39.388 -11.03)scale(.999)"/><use xlink:href="#au" width="6" height="7.8" transform="matrix(.9968 -.0748 .1168 .9937 -3.3 -15.1)"/><use xlink:href="#av" width="9.7" height="7" transform="matrix(.9993 .1117 -.1003 .9492 -1.7 -20.55)"/><use xlink:href="#aw" width="8.1" height="14.8" transform="matrix(1.0209 -.1439 -.1099 .9935 -.3 -31.2)"/><use xlink:href="#ad" width="3.8" height="8.8" transform="rotate(-9.786 -169.408 -.383)scale(.9978)"/><use xlink:href="#ax" width="4.5" height="6.9" transform="matrix(.9223 -.374 .374 .9223 1.8 -17.05)"/><use xlink:href="#ae" width="2" height="7.9" transform="rotate(-33.577 -36.049 -9.068)scale(.9961)"/><use xlink:href="#ay" width="12.8" height="11.9" transform="rotate(14.05 152.141 -10.51)scale(.9985)"/></g></g><g clip-path="url(#aJ)"><g transform="translate(320.25 42.3)"><use xlink:href="#al" width="14.7" height="4.3" transform="matrix(.8 0 0 .8 -5.4 -1.8)"/><use xlink:href="#am" width="4.3" height="7.8" transform="matrix(-.4961 .8337 -.8241 -.1566 6.9 -29.95)"/><use xlink:href="#an" width="5.8" height="4.8" transform="translate(.15 -3.3)"/><use xlink:href="#ao" width="5.2" height="5.2" transform="translate(-5.5 -2.85)"/><use xlink:href="#ap" width="3.9" height="8.6" transform="rotate(13.531 46.325 8.608)scale(.9992)"/><use xlink:href="#aq" width="3.3" height="8.3" transform="matrix(.8402 -.5637 .4209 .89 4.6 -22.65)"/><use xlink:href="#ar" width="4.2" height="7.4" transform="matrix(.9613 -.2631 .1828 .9844 3.05 -28.3)"/><use xlink:href="#as" width="5" height="5" transform="matrix(.8552 -.5361 .5098 .8369 6.5 -17.3)"/><use xlink:href="#ap" width="3.9" height="8.6" transform="matrix(1 0 -.0919 .9243 -3.5 -9.6)"/><use xlink:href="#at" width="5.6" height="8.1" transform="rotate(-20.792 -39.388 -11.03)scale(.999)"/><use xlink:href="#au" width="6" height="7.8" transform="matrix(.9968 -.0748 .1168 .9937 -3.3 -15.1)"/><use xlink:href="#av" width="9.7" height="7" transform="matrix(.9993 .1117 -.1003 .9492 -1.7 -20.55)"/><use xlink:href="#aw" width="8.1" height="14.8" transform="matrix(1.0209 -.1439 -.1099 .9935 -.3 -31.2)"/><use xlink:href="#ad" width="3.8" height="8.8" transform="rotate(-12.778 -129.553 -3.881)scale(.9974)"/><use xlink:href="#ax" width="4.5" height="6.9" transform="rotate(-25.091 -37.808 -13.955)scale(.9947)"/><use xlink:href="#ae" width="2" height="7.9" transform="rotate(-37.34 -31.893 -9.787)scale(.9957)"/><use xlink:href="#ay" width="12.8" height="11.9" transform="rotate(16.825 126.615 -9.396)scale(.9981)"/></g></g><g clip-path="url(#aK)"><g transform="translate(348.25 42.3)"><use xlink:href="#al" width="14.7" height="4.3" transform="matrix(.8 0 0 .8 -5.4 -1.8)"/><use xlink:href="#am" width="4.3" height="7.8" transform="matrix(-.2785 .9077 -.8365 -.0554 6.25 -30.55)"/><use xlink:href="#an" width="5.8" height="4.8" transform="translate(.15 -3.3)"/><use xlink:href="#ao" width="5.2" height="5.2" transform="translate(-5.5 -2.85)"/><use xlink:href="#ap" width="3.9" height="8.6" transform="rotate(13.531 46.325 8.608)scale(.9992)"/><use xlink:href="#aq" width="3.3" height="8.3" transform="matrix(.8215 -.5982 .4511 .8735 4.65 -22.5)"/><use xlink:href="#ar" width="4.2" height="7.4" transform="matrix(.9523 -.2964 .1922 .984 2.95 -28.3)"/><use xlink:href="#as" width="5" height="5" transform="matrix(.8298 -.5818 .55 .8087 6.9 -17.45)"/><use xlink:href="#ap" width="3.9" height="8.6" transform="matrix(1 0 -.0919 .9243 -3.5 -9.6)"/><use xlink:href="#at" width="5.6" height="8.1" transform="rotate(-20.792 -39.388 -11.03)scale(.999)"/><use xlink:href="#au" width="6" height="7.8" transform="matrix(.9968 -.0748 .1168 .9937 -3.3 -15.1)"/><use xlink:href="#av" width="9.7" height="7" transform="matrix(.9993 .1117 -.1003 .9492 -1.7 -20.55)"/><use xlink:href="#aw" width="8.1" height="14.8" transform="matrix(1.0209 -.1439 -.1099 .9935 -.3 -31.2)"/><use xlink:href="#ad" width="3.8" height="8.8" transform="rotate(-15.783 -104.753 -5.512)scale(.9978)"/><use xlink:href="#ax" width="4.5" height="6.9" transform="rotate(-28.295 -33.536 -14.677)scale(.9953)"/><use xlink:href="#ae" width="2" height="7.9" transform="rotate(-41.096 -28.537 -10.317)scale(.997)"/><use xlink:href="#ay" width="12.8" height="11.9" transform="rotate(19.834 106.466 -8.887)scale(.9989)"/></g></g><g clip-path="url(#aL)"><g transform="translate(376.25 42.3)"><use xlink:href="#al" width="14.7" height="4.3" transform="matrix(.8 0 0 .8 -5.4 -1.8)"/><use xlink:href="#am" width="4.3" height="7.8" transform="matrix(-.0571 .9286 -.8371 .0409 5.75 -30.85)"/><use xlink:href="#an" width="5.8" height="4.8" transform="translate(.15 -3.3)"/><use xlink:href="#ao" width="5.2" height="5.2" transform="translate(-5.5 -2.85)"/><use xlink:href="#ap" width="3.9" height="8.6" transform="rotate(13.531 46.325 8.608)scale(.9992)"/><use xlink:href="#aq" width="3.3" height="8.3" transform="matrix(.7964 -.6187 .4288 .8479 4.8 -22.75)"/><use xlink:href="#ar" width="4.2" height="7.4" transform="matrix(.9692 -.233 .174 .9852 3.2 -28.7)"/><use xlink:href="#as" width="5" height="5" transform="matrix(.8282 -.5707 .5475 .8157 6.35 -18.05)"/><use xlink:href="#ap" width="3.9" height="8.6" transform="matrix(1 0 -.0919 .9243 -3.5 -9.6)"/><use xlink:href="#at" width="5.6" height="8.1" transform="rotate(-20.792 -39.388 -11.03)scale(.999)"/><use xlink:href="#au" width="6" height="7.8" transform="matrix(.9968 -.0748 .1168 .9937 -3.3 -15.1)"/><use xlink:href="#av" width="9.7" height="7" transform="matrix(.9993 .1117 -.1003 .9492 -1.7 -20.55)"/><use xlink:href="#aw" width="8.1" height="14.8" transform="matrix(1.0209 -.1439 -.1099 .9935 -.3 -31.2)"/><use xlink:href="#ad" width="3.8" height="8.8" transform="matrix(.9431 -.3211 .3163 .9289 -2.45 -28.05)"/><use xlink:href="#ax" width="4.5" height="6.9" transform="rotate(-35.33 -25.64 -13.7)scale(.9935)"/><use xlink:href="#ae" width="2" height="7.9" transform="matrix(.699 -.7076 .6626 .6546 .1 -20.85)"/><use xlink:href="#ay" width="12.8" height="11.9" transform="rotate(19.793 106.659 -9.01)scale(.9979)"/></g></g><g clip-path="url(#aM)"><g transform="translate(404.25 42.3)"><use xlink:href="#al" width="14.7" height="4.3" transform="matrix(.8 0 0 .8 -5.4 -1.8)"/><use xlink:href="#am" width="4.3" height="7.8" transform="matrix(.1587 .8968 -.8257 .1425 5.05 -31.2)"/><use xlink:href="#an" width="5.8" height="4.8" transform="translate(.15 -3.3)"/><use xlink:href="#ao" width="5.2" height="5.2" transform="translate(-5.5 -2.85)"/><use xlink:href="#ap" width="3.9" height="8.6" transform="rotate(13.531 46.325 8.608)scale(.9992)"/><use xlink:href="#aq" width="3.3" height="8.3" transform="matrix(.7722 -.6389 .4077 .8232 4.9 -23.05)"/><use xlink:href="#ar" width="4.2" height="7.4" transform="matrix(.9828 -.1691 .1565 .9866 3.45 -29)"/><use xlink:href="#as" width="5" height="5" transform="matrix(.8283 -.5601 .5499 .821 5.85 -18.5)"/><use xlink:href="#ap" width="3.9" height="8.6" transform="matrix(1 0 -.0919 .9243 -3.5 -9.6)"/><use xlink:href="#at" width="5.6" height="8.1" transform="rotate(-20.792 -39.388 -11.03)scale(.999)"/><use xlink:href="#au" width="6" height="7.8" transform="matrix(.9968 -.0748 .1168 .9937 -3.3 -15.1)"/><use xlink:href="#av" width="9.7" height="7" transform="matrix(.9993 .1117 -.1003 .9492 -1.7 -20.55)"/><use xlink:href="#aw" width="8.1" height="14.8" transform="matrix(1.0209 -.1439 -.1099 .9935 -.3 -31.2)"/><use xlink:href="#ad" width="3.8" height="8.8" transform="matrix(.9241 -.3702 .3591 .8965 -2.45 -27.5)"/><use xlink:href="#ax" width="4.5" height="6.9" transform="rotate(-42.36 -20.52 -12.923)scale(.993)"/><use xlink:href="#ae" width="2" height="7.9" transform="matrix(.6468 -.7548 .6588 .5645 .45 -20.55)"/><use xlink:href="#ay" width="12.8" height="11.9" transform="rotate(19.793 106.752 -9.323)scale(.9979)"/></g></g><g clip-path="url(#aN)"><g transform="translate(432.25 42.3)"><use xlink:href="#al" width="14.7" height="4.3" transform="matrix(.8 0 0 .8 -5.4 -1.8)"/><use xlink:href="#am" width="4.3" height="7.8" transform="matrix(.226 .8862 -.8131 .1847 5.1 -31.3)"/><use xlink:href="#an" width="5.8" height="4.8" transform="translate(.15 -3.3)"/><use xlink:href="#ao" width="5.2" height="5.2" transform="translate(-5.5 -2.85)"/><use xlink:href="#ap" width="3.9" height="8.6" transform="rotate(13.531 46.325 8.608)scale(.9992)"/><use xlink:href="#aq" width="3.3" height="8.3" transform="matrix(.7487 -.6595 .3904 .7977 4.9 -23.25)"/><use xlink:href="#ar" width="4.2" height="7.4" transform="matrix(.9925 -.1046 .1392 .9881 3.7 -29.35)"/><use xlink:href="#as" width="5" height="5" transform="matrix(.8298 -.55 .55 .8298 5.35 -18.95)"/><use xlink:href="#ap" width="3.9" height="8.6" transform="matrix(1 0 -.0919 .9243 -3.5 -9.6)"/><use xlink:href="#at" width="5.6" height="8.1" transform="rotate(-20.792 -39.388 -11.03)scale(.999)"/><use xlink:href="#au" width="6" height="7.8" transform="matrix(.9968 -.0748 .1168 .9937 -3.3 -15.1)"/><use xlink:href="#av" width="9.7" height="7" transform="matrix(.9993 .1117 -.1003 .9492 -1.7 -20.55)"/><use xlink:href="#aw" width="8.1" height="14.8" transform="matrix(1.0209 -.1439 -.1099 .9935 -.3 -31.2)"/><use xlink:href="#ad" width="3.8" height="8.8" transform="matrix(.9023 -.4218 .4029 .8618 -2.45 -27)"/><use xlink:href="#ax" width="4.5" height="6.9" transform="rotate(-49.352 -16.646 -12.393)scale(.9943)"/><use xlink:href="#ae" width="2" height="7.9" transform="matrix(.59 -.8012 .6483 .4773 .85 -20.25)"/><use xlink:href="#ay" width="12.8" height="11.9" transform="rotate(19.834 106.459 -9.77)scale(.9989)"/></g></g><g clip-path="url(#aO)"><g transform="translate(460.25 42.3)"><use xlink:href="#al" width="14.7" height="4.3" transform="matrix(.8 0 0 .8 -5.4 -1.8)"/><use xlink:href="#am" width="4.3" height="7.8" transform="matrix(.296 .87 -.7979 .2291 5.3 -31.35)"/><use xlink:href="#an" width="5.8" height="4.8" transform="translate(.15 -3.3)"/><use xlink:href="#ao" width="5.2" height="5.2" transform="translate(-5.5 -2.85)"/><use xlink:href="#ap" width="3.9" height="8.6" transform="rotate(13.531 46.325 8.608)scale(.9992)"/><use xlink:href="#aq" width="3.3" height="8.3" transform="matrix(.7284 -.6876 .4215 .7729 4.65 -23.2)"/><use xlink:href="#ar" width="4.2" height="7.4" transform="matrix(.9939 -.1045 .1219 .9886 3.55 -29.45)"/><use xlink:href="#as" width="5" height="5" transform="matrix(.7739 -.6233 .6233 .7739 5.7 -18.9)"/><use xlink:href="#ap" width="3.9" height="8.6" transform="matrix(1 0 -.0919 .9243 -3.5 -9.6)"/><use xlink:href="#at" width="5.6" height="8.1" transform="rotate(-20.792 -39.388 -11.03)scale(.999)"/><use xlink:href="#au" width="6" height="7.8" transform="matrix(.9968 -.0748 .1168 .9937 -3.3 -15.1)"/><use xlink:href="#av" width="9.7" height="7" transform="matrix(.9993 .1117 -.1003 .9492 -1.7 -20.55)"/><use xlink:href="#aw" width="8.1" height="14.8" transform="matrix(1.0209 -.1439 -.1099 .9935 -.3 -31.2)"/><use xlink:href="#ad" width="3.8" height="8.8" transform="matrix(.901 -.4211 .3873 .8784 -2.45 -27)"/><use xlink:href="#ax" width="4.5" height="6.9" transform="rotate(-45.38 -18.684 -12.94)scale(.9924)"/><use xlink:href="#ae" width="2" height="7.9" transform="matrix(.5458 -.8299 .6651 .4803 .9 -20.2)"/><use xlink:href="#ay" width="12.8" height="11.9" transform="rotate(19.788 108.786 -9.67)scale(.9975)"/></g></g><g clip-path="url(#aP)"><g transform="translate(488.25 42.3)"><use xlink:href="#al" width="14.7" height="4.3" transform="matrix(.8 0 0 .8 -5.4 -1.8)"/><use xlink:href="#am" width="4.3" height="7.8" transform="matrix(.362 .8495 -.7812 .2699 5.45 -31.3)"/><use xlink:href="#an" width="5.8" height="4.8" transform="translate(.15 -3.3)"/><use xlink:href="#ao" width="5.2" height="5.2" transform="translate(-5.5 -2.85)"/><use xlink:href="#ap" width="3.9" height="8.6" transform="rotate(13.531 46.325 8.608)scale(.9992)"/><use xlink:href="#aq" width="3.3" height="8.3" transform="matrix(.7104 -.7141 .4545 .7463 4.4 -23.05)"/><use xlink:href="#ar" width="4.2" height="7.4" transform="matrix(.9958 -.1014 .1049 .9891 3.3 -29.65)"/><use xlink:href="#as" width="5" height="5" transform="matrix(.713 -.6917 .6917 .713 5.95 -18.8)"/><use xlink:href="#ap" width="3.9" height="8.6" transform="matrix(1 0 -.0919 .9243 -3.5 -9.6)"/><use xlink:href="#at" width="5.6" height="8.1" transform="rotate(-20.792 -39.388 -11.03)scale(.999)"/><use xlink:href="#au" width="6" height="7.8" transform="matrix(.9968 -.0748 .1168 .9937 -3.3 -15.1)"/><use xlink:href="#av" width="9.7" height="7" transform="matrix(.9993 .1117 -.1003 .9492 -1.7 -20.55)"/><use xlink:href="#aw" width="8.1" height="14.8" transform="matrix(1.0209 -.1439 -.1099 .9935 -.3 -31.2)"/><use xlink:href="#ad" width="3.8" height="8.8" transform="matrix(.9008 -.4209 .3719 .8958 -2.45 -27.05)"/><use xlink:href="#ax" width="4.5" height="6.9" transform="matrix(.7446 -.6559 .6559 .7446 3.7 -17.3)"/><use xlink:href="#ae" width="2" height="7.9" transform="matrix(.5014 -.8574 .6829 .4839 .95 -20.15)"/><use xlink:href="#ay" width="12.8" height="11.9" transform="rotate(19.785 110.691 -9.85)scale(.997)"/></g></g><g clip-path="url(#aQ)"><g transform="translate(516.25 42.3)"><use xlink:href="#al" width="14.7" height="4.3" transform="matrix(.8 0 0 .8 -5.4 -1.8)"/><use xlink:href="#am" width="4.3" height="7.8" transform="matrix(.4305 .8233 -.7624 .3123 5.5 -31.3)"/><use xlink:href="#an" width="5.8" height="4.8" transform="translate(.15 -3.3)"/><use xlink:href="#ao" width="5.2" height="5.2" transform="translate(-5.5 -2.85)"/><use xlink:href="#ap" width="3.9" height="8.6" transform="rotate(13.531 46.325 8.608)scale(.9992)"/><use xlink:href="#aq" width="3.3" height="8.3" transform="matrix(.6891 -.7424 .4859 .7183 4.05 -22.9)"/><use xlink:href="#ar" width="4.2" height="7.4" transform="matrix(.9975 -.1015 .0912 .989 3.1 -29.75)"/><use xlink:href="#as" width="5" height="5" transform="rotate(-49.41 -17.12 -16.172)scale(.993)"/><use xlink:href="#ap" width="3.9" height="8.6" transform="matrix(1 0 -.0919 .9243 -3.5 -9.6)"/><use xlink:href="#at" width="5.6" height="8.1" transform="rotate(-20.792 -39.388 -11.03)scale(.999)"/><use xlink:href="#au" width="6" height="7.8" transform="matrix(.9968 -.0748 .1168 .9937 -3.3 -15.1)"/><use xlink:href="#av" width="9.7" height="7" transform="matrix(.9993 .1117 -.1003 .9492 -1.7 -20.55)"/><use xlink:href="#aw" width="8.1" height="14.8" transform="matrix(1.0209 -.1439 -.1099 .9935 -.3 -31.2)"/><use xlink:href="#ad" width="3.8" height="8.8" transform="matrix(.9005 -.4208 .3558 .9129 -2.4 -27)"/><use xlink:href="#ax" width="4.5" height="6.9" transform="rotate(-37.37 -23.9 -14.343)scale(.9922)"/><use xlink:href="#ae" width="2" height="7.9" transform="matrix(.4557 -.8825 .7025 .485 1.05 -20)"/><use xlink:href="#ay" width="12.8" height="11.9" transform="rotate(19.793 112.677 -10.06)scale(.9979)"/></g></g><g clip-path="url(#aR)"><g transform="translate(544.25 42.3)"><use xlink:href="#al" width="14.7" height="4.3" transform="matrix(.8 0 0 .8 -5.4 -1.8)"/><use xlink:href="#am" width="4.3" height="7.8" transform="matrix(.4305 .8233 -.7624 .3123 5.5 -31.3)"/><use xlink:href="#an" width="5.8" height="4.8" transform="translate(.15 -3.3)"/><use xlink:href="#ao" width="5.2" height="5.2" transform="translate(-5.5 -2.85)"/><use xlink:href="#ap" width="3.9" height="8.6" transform="rotate(13.531 46.325 8.608)scale(.9992)"/><use xlink:href="#aq" width="3.3" height="8.3" transform="matrix(.6666 -.7701 .5134 .6907 3.75 -22.85)"/><use xlink:href="#ar" width="4.2" height="7.4" transform="matrix(.9992 -.1016 .0742 .989 2.9 -29.85)"/><use xlink:href="#as" width="5" height="5" transform="rotate(-54.882 -14.706 -15.705)scale(.993)"/><use xlink:href="#ap" width="3.9" height="8.6" transform="matrix(1 0 -.0919 .9243 -3.5 -9.6)"/><use xlink:href="#at" width="5.6" height="8.1" transform="rotate(-20.792 -39.388 -11.03)scale(.999)"/><use xlink:href="#au" width="6" height="7.8" transform="matrix(.9968 -.0748 .1168 .9937 -3.3 -15.1)"/><use xlink:href="#av" width="9.7" height="7" transform="matrix(.9993 .1117 -.1003 .9492 -1.7 -20.55)"/><use xlink:href="#aw" width="8.1" height="14.8" transform="matrix(1.0209 -.1439 -.1099 .9935 -.3 -31.2)"/><use xlink:href="#ad" width="3.8" height="8.8" transform="matrix(.9003 -.4207 .3392 .9298 -2.4 -27)"/><use xlink:href="#ax" width="4.5" height="6.9" transform="rotate(-33.366 -27.271 -15.173)scale(.992)"/><use xlink:href="#ae" width="2" height="7.9" transform="matrix(.4087 -.9051 .7205 .488 1.15 -19.9)"/><use xlink:href="#ay" width="12.8" height="11.9" transform="matrix(-.1952 .9778 -.1952 .9778 8.35 -41.3)"/></g></g><g clip-path="url(#aS)"><g transform="translate(572.25 42.3)"><use xlink:href="#al" width="14.7" height="4.3" transform="matrix(.8 0 0 .8 -5.4 -1.8)"/><use xlink:href="#am" width="4.3" height="7.8" transform="matrix(.4305 .8233 -.7624 .3123 5.5 -31.3)"/><use xlink:href="#an" width="5.8" height="4.8" transform="translate(.15 -3.3)"/><use xlink:href="#ao" width="5.2" height="5.2" transform="translate(-5.5 -2.85)"/><use xlink:href="#ap" width="3.9" height="8.6" transform="rotate(13.531 46.325 8.608)scale(.9992)"/><use xlink:href="#aq" width="3.3" height="8.3" transform="matrix(.6456 -.795 .5417 .6603 3.45 -22.7)"/><use xlink:href="#ar" width="4.2" height="7.4" transform="matrix(1.0008 -.1018 .0605 .9886 2.75 -30)"/><use xlink:href="#as" width="5" height="5" transform="rotate(-60.08 -12.657 -15.223)scale(.9942)"/><use xlink:href="#ap" width="3.9" height="8.6" transform="matrix(1 0 -.0919 .9243 -3.5 -9.6)"/><use xlink:href="#at" width="5.6" height="8.1" transform="rotate(-20.792 -39.388 -11.03)scale(.999)"/><use xlink:href="#au" width="6" height="7.8" transform="matrix(.9968 -.0748 .1168 .9937 -3.3 -15.1)"/><use xlink:href="#av" width="9.7" height="7" transform="matrix(.9993 .1117 -.1003 .9492 -1.7 -20.55)"/><use xlink:href="#aw" width="8.1" height="14.8" transform="matrix(1.0209 -.1439 -.1099 .9935 -.3 -31.2)"/><use xlink:href="#ad" width="3.8" height="8.8" transform="matrix(.9012 -.4212 .323 .9471 -2.35 -27.05)"/><use xlink:href="#ax" width="4.5" height="6.9" transform="rotate(-29.52 -31.735 -16.276)scale(.9932)"/><use xlink:href="#ae" width="2" height="7.9" transform="matrix(.3614 -.9262 .7393 .4922 1.15 -19.85)"/><use xlink:href="#ay" width="12.8" height="11.9" transform="rotate(-177.024 5.3 -17.5)scale(.9977 -.9977)"/></g></g><g clip-path="url(#aT)"><g transform="translate(600.25 42.3)"><use xlink:href="#al" width="14.7" height="4.3" transform="matrix(.8 0 0 .8 -5.4 -1.8)"/><use xlink:href="#am" width="4.3" height="7.8" transform="matrix(.4305 .8233 -.7624 .3123 5.5 -31.3)"/><use xlink:href="#an" width="5.8" height="4.8" transform="translate(.15 -3.3)"/><use xlink:href="#ao" width="5.2" height="5.2" transform="translate(-5.5 -2.85)"/><use xlink:href="#ap" width="3.9" height="8.6" transform="rotate(13.531 46.325 8.608)scale(.9992)"/><use xlink:href="#aq" width="3.3" height="8.3" transform="matrix(.6223 -.8225 .5688 .6301 3.15 -22.7)"/><use xlink:href="#ar" width="4.2" height="7.4" transform="matrix(1.0025 -.1046 .0449 .9881 2.55 -30.05)"/><use xlink:href="#as" width="5" height="5" transform="rotate(-56.665 -14.052 -15.117)scale(.9925)"/><use xlink:href="#ap" width="3.9" height="8.6" transform="matrix(1 0 -.0919 .9243 -3.5 -9.6)"/><use xlink:href="#at" width="5.6" height="8.1" transform="rotate(-20.792 -39.388 -11.03)scale(.999)"/><use xlink:href="#au" width="6" height="7.8" transform="matrix(.9968 -.0748 .1168 .9937 -3.3 -15.1)"/><use xlink:href="#av" width="9.7" height="7" transform="matrix(.9993 .1117 -.1003 .9492 -1.7 -20.55)"/><use xlink:href="#aw" width="8.1" height="14.8" transform="matrix(1.0209 -.1439 -.1099 .9935 -.3 -31.2)"/><use xlink:href="#ad" width="3.8" height="8.8" transform="matrix(.9004 -.4207 .3265 .9445 -2.35 -27.1)"/><use xlink:href="#ax" width="4.5" height="6.9" transform="rotate(-34.584 -26.622 -14.366)scale(.9915)"/><use xlink:href="#ae" width="2" height="7.9" transform="matrix(.428 -.8957 .7091 .4931 .9 -19.95)"/><use xlink:href="#ay" width="12.8" height="11.9" transform="matrix(-.997 -.0353 -.0353 .997 11.4 -34.5)"/></g></g><g clip-path="url(#aU)"><g transform="translate(628.25 42.3)"><use xlink:href="#al" width="14.7" height="4.3" transform="matrix(.8 0 0 .8 -5.4 -1.8)"/><use xlink:href="#am" width="4.3" height="7.8" transform="matrix(.4305 .8233 -.7624 .3123 5.5 -31.3)"/><use xlink:href="#an" width="5.8" height="4.8" transform="translate(.15 -3.3)"/><use xlink:href="#ao" width="5.2" height="5.2" transform="translate(-5.5 -2.85)"/><use xlink:href="#ap" width="3.9" height="8.6" transform="rotate(13.531 46.325 8.608)scale(.9992)"/><use xlink:href="#aq" width="3.3" height="8.3" transform="matrix(.647 -.8034 .557 .6502 3.2 -22.75)"/><use xlink:href="#ar" width="4.2" height="7.4" transform="matrix(1.0024 -.1019 .0436 .988 2.75 -30.05)"/><use xlink:href="#as" width="5" height="5" transform="rotate(-53.17 -15.51 -14.945)scale(.9922)"/><use xlink:href="#ap" width="3.9" height="8.6" transform="matrix(1 0 -.0919 .9243 -3.5 -9.6)"/><use xlink:href="#at" width="5.6" height="8.1" transform="rotate(-20.792 -39.388 -11.03)scale(.999)"/><use xlink:href="#au" width="6" height="7.8" transform="matrix(.9968 -.0748 .1168 .9937 -3.3 -15.1)"/><use xlink:href="#av" width="9.7" height="7" transform="matrix(.9993 .1117 -.1003 .9492 -1.7 -20.55)"/><use xlink:href="#aw" width="8.1" height="14.8" transform="matrix(1.0209 -.1439 -.1099 .9935 -.3 -31.2)"/><use xlink:href="#ad" width="3.8" height="8.8" transform="matrix(.9007 -.4209 .3341 .9415 -2.4 -27.2)"/><use xlink:href="#ax" width="4.5" height="6.9" transform="matrix(.7635 -.632 .632 .7635 3.1 -17.55)"/><use xlink:href="#ae" width="2" height="7.9" transform="matrix(.4902 -.8628 .6814 .4923 .75 -19.95)"/><use xlink:href="#ay" width="12.8" height="11.9" transform="matrix(-.9976 -.0184 -.0184 .9976 11.3 -34.4)"/></g></g><g clip-path="url(#aV)"><g transform="translate(656.25 42.3)"><use xlink:href="#al" width="14.7" height="4.3" transform="matrix(.8 0 0 .8 -5.4 -1.8)"/><use xlink:href="#am" width="4.3" height="7.8" transform="matrix(.4305 .8233 -.7624 .3123 5.5 -31.3)"/><use xlink:href="#an" width="5.8" height="4.8" transform="translate(.15 -3.3)"/><use xlink:href="#ao" width="5.2" height="5.2" transform="translate(-5.5 -2.85)"/><use xlink:href="#ap" width="3.9" height="8.6" transform="rotate(13.531 46.325 8.608)scale(.9992)"/><use xlink:href="#aq" width="3.3" height="8.3" transform="matrix(.6724 -.7846 .5429 .6733 3.3 -22.85)"/><use xlink:href="#ar" width="4.2" height="7.4" transform="matrix(1.0024 -.1019 .0436 .988 2.9 -30.05)"/><use xlink:href="#as" width="5" height="5" transform="rotate(-49.858 -17.19 -14.661)scale(.992)"/><use xlink:href="#ap" width="3.9" height="8.6" transform="matrix(1 0 -.0919 .9243 -3.5 -9.6)"/><use xlink:href="#at" width="5.6" height="8.1" transform="rotate(-20.792 -39.388 -11.03)scale(.999)"/><use xlink:href="#au" width="6" height="7.8" transform="matrix(.9968 -.0748 .1168 .9937 -3.3 -15.1)"/><use xlink:href="#av" width="9.7" height="7" transform="matrix(.9993 .1117 -.1003 .9492 -1.7 -20.55)"/><use xlink:href="#aw" width="8.1" height="14.8" transform="matrix(1.0209 -.1439 -.1099 .9935 -.3 -31.2)"/><use xlink:href="#ad" width="3.8" height="8.8" transform="matrix(.9009 -.421 .3386 .9396 -2.35 -27.3)"/><use xlink:href="#ax" width="4.5" height="6.9" transform="rotate(-44.648 -19.96 -12.038)scale(.9908)"/><use xlink:href="#ae" width="2" height="7.9" transform="matrix(.5526 -.8238 .6523 .4928 .5 -20)"/><use xlink:href="#ay" width="12.8" height="11.9" transform="matrix(-.9978 -.0048 -.0048 .9978 11.15 -34.15)"/></g></g><g clip-path="url(#aW)"><g transform="translate(684.25 42.3)"><use xlink:href="#al" width="14.7" height="4.3" transform="matrix(.8 0 0 .8 -5.4 -1.8)"/><use xlink:href="#am" width="4.3" height="7.8" transform="matrix(.4305 .8233 -.7624 .3123 5.5 -31.3)"/><use xlink:href="#an" width="5.8" height="4.8" transform="translate(.15 -3.3)"/><use xlink:href="#ao" width="5.2" height="5.2" transform="translate(-5.5 -2.85)"/><use xlink:href="#ap" width="3.9" height="8.6" transform="rotate(13.531 46.325 8.608)scale(.9992)"/><use xlink:href="#aq" width="3.3" height="8.3" transform="matrix(.6972 -.7651 .5301 .6944 3.4 -22.95)"/><use xlink:href="#ar" width="4.2" height="7.4" transform="matrix(1.0024 -.1019 .0436 .988 3.05 -30)"/><use xlink:href="#as" width="5" height="5" transform="rotate(-46.31 -19.17 -14.353)scale(.9934)"/><use xlink:href="#ap" width="3.9" height="8.6" transform="matrix(1 0 -.0919 .9243 -3.5 -9.6)"/><use xlink:href="#at" width="5.6" height="8.1" transform="rotate(-20.792 -39.388 -11.03)scale(.999)"/><use xlink:href="#au" width="6" height="7.8" transform="matrix(.9968 -.0748 .1168 .9937 -3.3 -15.1)"/><use xlink:href="#av" width="9.7" height="7" transform="matrix(.9993 .1117 -.1003 .9492 -1.7 -20.55)"/><use xlink:href="#aw" width="8.1" height="14.8" transform="matrix(1.0209 -.1439 -.1099 .9935 -.3 -31.2)"/><use xlink:href="#ad" width="3.8" height="8.8" transform="matrix(.9023 -.4218 .3467 .9374 -2.35 -27.45)"/><use xlink:href="#ax" width="4.5" height="6.9" transform="rotate(-49.8 -17.647 -11.202)scale(.9922)"/><use xlink:href="#ae" width="2" height="7.9" transform="matrix(.6132 -.7814 .626 .4913 .35 -20.05)"/><use xlink:href="#ay" width="12.8" height="11.9" transform="matrix(-.9978 .0092 .0092 .9978 11.05 -34.1)"/></g></g><g clip-path="url(#aX)"><g transform="translate(712.25 42.3)"><use xlink:href="#al" width="14.7" height="4.3" transform="matrix(.8 0 0 .8 -5.4 -1.8)"/><use xlink:href="#am" width="4.3" height="7.8" transform="matrix(.4305 .8233 -.7624 .3123 5.5 -31.3)"/><use xlink:href="#an" width="5.8" height="4.8" transform="translate(.15 -3.3)"/><use xlink:href="#ao" width="5.2" height="5.2" transform="translate(-5.5 -2.85)"/><use xlink:href="#ap" width="3.9" height="8.6" transform="rotate(13.531 46.325 8.608)scale(.9992)"/><use xlink:href="#aq" width="3.3" height="8.3" transform="matrix(.7215 -.7447 .5167 .7152 3.5 -23.1)"/><use xlink:href="#ar" width="4.2" height="7.4" transform="matrix(1.0024 -.1019 .0436 .988 3.25 -29.95)"/><use xlink:href="#as" width="5" height="5" transform="rotate(-43.84 -20.475 -14.953)scale(.9921)"/><use xlink:href="#ap" width="3.9" height="8.6" transform="matrix(1 0 -.0919 .9243 -3.5 -9.6)"/><use xlink:href="#at" width="5.6" height="8.1" transform="rotate(-20.792 -39.388 -11.03)scale(.999)"/><use xlink:href="#au" width="6" height="7.8" transform="matrix(.9968 -.0748 .1168 .9937 -3.3 -15.1)"/><use xlink:href="#av" width="9.7" height="7" transform="matrix(.9993 .1117 -.1003 .9492 -1.7 -20.55)"/><use xlink:href="#aw" width="8.1" height="14.8" transform="matrix(1.0209 -.1439 -.1099 .9935 -.3 -31.2)"/><use xlink:href="#ad" width="3.8" height="8.8" transform="matrix(.901 -.4211 .3472 .9245 -2.35 -27.3)"/><use xlink:href="#ax" width="4.5" height="6.9" transform="rotate(-49.661 -17.552 -11.401)scale(.991)"/><use xlink:href="#ae" width="2" height="7.9" transform="matrix(.6084 -.7836 .629 .4884 .45 -20.05)"/><use xlink:href="#ay" width="12.8" height="11.9" transform="matrix(-.9978 .0088 .0088 .9978 11.05 -34.3)"/></g></g><g clip-path="url(#aY)"><g transform="translate(740.25 42.3)"><use xlink:href="#al" width="14.7" height="4.3" transform="matrix(.8 0 0 .8 -5.4 -1.8)"/><use xlink:href="#am" width="4.3" height="7.8" transform="matrix(.4305 .8233 -.7624 .3123 5.5 -31.3)"/><use xlink:href="#an" width="5.8" height="4.8" transform="translate(.15 -3.3)"/><use xlink:href="#ao" width="5.2" height="5.2" transform="translate(-5.5 -2.85)"/><use xlink:href="#ap" width="3.9" height="8.6" transform="rotate(13.531 46.325 8.608)scale(.9992)"/><use xlink:href="#aq" width="3.3" height="8.3" transform="matrix(.7428 -.726 .5025 .7358 3.5 -23.2)"/><use xlink:href="#ar" width="4.2" height="7.4" transform="matrix(1.0024 -.1019 .0436 .988 3.4 -29.95)"/><use xlink:href="#as" width="5" height="5" transform="rotate(-41.128 -22.231 -15.714)scale(.9926)"/><use xlink:href="#ap" width="3.9" height="8.6" transform="matrix(1 0 -.0919 .9243 -3.5 -9.6)"/><use xlink:href="#at" width="5.6" height="8.1" transform="rotate(-20.792 -39.388 -11.03)scale(.999)"/><use xlink:href="#au" width="6" height="7.8" transform="matrix(.9968 -.0748 .1168 .9937 -3.3 -15.1)"/><use xlink:href="#av" width="9.7" height="7" transform="matrix(.9993 .1117 -.1003 .9492 -1.7 -20.55)"/><use xlink:href="#aw" width="8.1" height="14.8" transform="matrix(1.0209 -.1439 -.1099 .9935 -.3 -31.2)"/><use xlink:href="#ad" width="3.8" height="8.8" transform="matrix(.9008 -.4209 .3512 .9114 -2.35 -27.2)"/><use xlink:href="#ax" width="4.5" height="6.9" transform="matrix(.642 -.7554 .7554 .642 2.8 -17.3)"/><use xlink:href="#ae" width="2" height="7.9" transform="matrix(.6022 -.7888 .6344 .4844 .45 -20.1)"/><use xlink:href="#ay" width="12.8" height="11.9" transform="matrix(-.9978 .0088 .0088 .9978 11.05 -34.5)"/></g></g><g clip-path="url(#aZ)"><g transform="translate(768.25 42.3)"><use xlink:href="#al" width="14.7" height="4.3" transform="matrix(.8 0 0 .8 -5.4 -1.8)"/><use xlink:href="#am" width="4.3" height="7.8" transform="matrix(.4305 .8233 -.7624 .3123 5.5 -31.3)"/><use xlink:href="#an" width="5.8" height="4.8" transform="translate(.15 -3.3)"/><use xlink:href="#ao" width="5.2" height="5.2" transform="translate(-5.5 -2.85)"/><use xlink:href="#ap" width="3.9" height="8.6" transform="rotate(13.531 46.325 8.608)scale(.9992)"/><use xlink:href="#aq" width="3.3" height="8.3" transform="matrix(.7659 -.7043 .4876 .7562 3.6 -23.25)"/><use xlink:href="#ar" width="4.2" height="7.4" transform="matrix(1.0024 -.1019 .0436 .988 3.55 -29.9)"/><use xlink:href="#as" width="5" height="5" transform="matrix(.776 -.6197 .6197 .776 5 -18.6)"/><use xlink:href="#ap" width="3.9" height="8.6" transform="matrix(1 0 -.0919 .9243 -3.5 -9.6)"/><use xlink:href="#at" width="5.6" height="8.1" transform="rotate(-20.792 -39.388 -11.03)scale(.999)"/><use xlink:href="#au" width="6" height="7.8" transform="matrix(.9968 -.0748 .1168 .9937 -3.3 -15.1)"/><use xlink:href="#av" width="9.7" height="7" transform="matrix(.9993 .1117 -.1003 .9492 -1.7 -20.55)"/><use xlink:href="#aw" width="8.1" height="14.8" transform="matrix(1.0209 -.1439 -.1099 .9935 -.3 -31.2)"/><use xlink:href="#ad" width="3.8" height="8.8" transform="matrix(.9005 -.4208 .355 .8982 -2.4 -27)"/><use xlink:href="#ax" width="4.5" height="6.9" transform="matrix(.6426 -.7555 .7555 .6426 3.1 -17.2)"/><use xlink:href="#ae" width="2" height="7.9" transform="matrix(.5986 -.7919 .6382 .4825 .5 -20.15)"/><use xlink:href="#ay" width="12.8" height="11.9" transform="matrix(-.9978 .0088 .0088 .9978 11.05 -34.7)"/></g></g><g clip-path="url(#ba)"><g transform="translate(796.25 42.3)"><use xlink:href="#al" width="14.7" height="4.3" transform="matrix(.8 0 0 .8 -5.4 -1.8)"/><use xlink:href="#am" width="4.3" height="7.8" transform="matrix(.4305 .8233 -.7624 .3123 5.5 -31.3)"/><use xlink:href="#an" width="5.8" height="4.8" transform="translate(.15 -3.3)"/><use xlink:href="#ao" width="5.2" height="5.2" transform="translate(-5.5 -2.85)"/><use xlink:href="#ap" width="3.9" height="8.6" transform="rotate(13.531 46.325 8.608)scale(.9992)"/><use xlink:href="#aq" width="3.3" height="8.3" transform="matrix(.7884 -.6817 .4694 .7779 3.8 -23.4)"/><use xlink:href="#ar" width="4.2" height="7.4" transform="matrix(1.0024 -.1019 .0436 .988 3.7 -29.9)"/><use xlink:href="#as" width="5" height="5" transform="matrix(.8029 -.5852 .5852 .8029 5.2 -18.8)"/><use xlink:href="#ap" width="3.9" height="8.6" transform="matrix(1 0 -.0919 .9243 -3.5 -9.6)"/><use xlink:href="#at" width="5.6" height="8.1" transform="rotate(-20.792 -39.388 -11.03)scale(.999)"/><use xlink:href="#au" width="6" height="7.8" transform="matrix(.9968 -.0748 .1168 .9937 -3.3 -15.1)"/><use xlink:href="#av" width="9.7" height="7" transform="matrix(.9993 .1117 -.1003 .9492 -1.7 -20.55)"/><use xlink:href="#aw" width="8.1" height="14.8" transform="matrix(1.0209 -.1439 -.1099 .9935 -.3 -31.2)"/><use xlink:href="#ad" width="3.8" height="8.8" transform="matrix(.9003 -.4207 .3586 .8851 -2.4 -26.95)"/><use xlink:href="#ax" width="4.5" height="6.9" transform="rotate(-49.402 -16.859 -12.167)scale(.9922)"/><use xlink:href="#ae" width="2" height="7.9" transform="matrix(.5924 -.797 .6436 .4784 .5 -20.1)"/><use xlink:href="#ay" width="12.8" height="11.9" transform="matrix(-.9978 .0088 .0088 .9978 11.05 -34.9)"/></g></g><g clip-path="url(#bb)"><g transform="translate(824.25 42.3)"><use xlink:href="#al" width="14.7" height="4.3" transform="matrix(.8 0 0 .8 -5.4 -1.8)"/><use xlink:href="#am" width="4.3" height="7.8" transform="matrix(.4305 .8233 -.7624 .3123 5.5 -31.3)"/><use xlink:href="#an" width="5.8" height="4.8" transform="translate(.15 -3.3)"/><use xlink:href="#ao" width="5.2" height="5.2" transform="translate(-5.5 -2.85)"/><use xlink:href="#ap" width="3.9" height="8.6" transform="rotate(13.531 46.325 8.608)scale(.9992)"/><use xlink:href="#aq" width="3.3" height="8.3" transform="matrix(.8116 -.6595 .4547 .7981 3.85 -23.55)"/><use xlink:href="#ar" width="4.2" height="7.4" transform="matrix(1.0025 -.1046 .0449 .9881 3.8 -29.8)"/><use xlink:href="#as" width="5" height="5" transform="matrix(.8298 -.55 .55 .8298 5.35 -18.95)"/><use xlink:href="#ap" width="3.9" height="8.6" transform="matrix(1 0 -.0919 .9243 -3.5 -9.6)"/><use xlink:href="#at" width="5.6" height="8.1" transform="rotate(-20.792 -39.388 -11.03)scale(.999)"/><use xlink:href="#au" width="6" height="7.8" transform="matrix(.9968 -.0748 .1168 .9937 -3.3 -15.1)"/><use xlink:href="#av" width="9.7" height="7" transform="matrix(.9993 .1117 -.1003 .9492 -1.7 -20.55)"/><use xlink:href="#aw" width="8.1" height="14.8" transform="matrix(1.0209 -.1439 -.1099 .9935 -.3 -31.2)"/><use xlink:href="#ad" width="3.8" height="8.8" transform="matrix(.9012 -.4212 .3628 .8728 -2.45 -26.8)"/><use xlink:href="#ax" width="4.5" height="6.9" transform="rotate(-49.352 -16.646 -12.393)scale(.9943)"/><use xlink:href="#ae" width="2" height="7.9" transform="matrix(.59 -.8012 .6483 .4773 .5 -20.1)"/><use xlink:href="#ay" width="12.8" height="11.9" transform="matrix(-.9978 .0092 .0092 .9978 11.05 -35.1)"/></g></g><g clip-path="url(#bc)"><g transform="translate(852.25 42.3)"><use xlink:href="#al" width="14.7" height="4.3" transform="matrix(.8 0 0 .8 -5.4 -1.8)"/><use xlink:href="#am" width="4.3" height="7.8" transform="matrix(.4305 .8233 -.7624 .3123 5.5 -31.3)"/><use xlink:href="#an" width="5.8" height="4.8" transform="translate(.15 -3.3)"/><use xlink:href="#ao" width="5.2" height="5.2" transform="translate(-5.5 -2.85)"/><use xlink:href="#ap" width="3.9" height="8.6" transform="rotate(13.531 46.325 8.608)scale(.9992)"/><use xlink:href="#aq" width="3.3" height="8.3" transform="matrix(.7897 -.6716 .4848 .797 3.9 -23.3)"/><use xlink:href="#ar" width="4.2" height="7.4" transform="matrix(.9989 -.1192 .0742 .9871 3.6 -29.6)"/><use xlink:href="#as" width="5" height="5" transform="rotate(-40.122 -23.103 -17.05)scale(.9936)"/><use xlink:href="#ap" width="3.9" height="8.6" transform="matrix(1 0 -.0919 .9243 -3.5 -9.6)"/><use xlink:href="#at" width="5.6" height="8.1" transform="rotate(-20.792 -39.388 -11.03)scale(.999)"/><use xlink:href="#au" width="6" height="7.8" transform="matrix(.9968 -.0748 .1168 .9937 -3.3 -15.1)"/><use xlink:href="#av" width="9.7" height="7" transform="matrix(.9993 .1117 -.1003 .9492 -1.7 -20.55)"/><use xlink:href="#aw" width="8.1" height="14.8" transform="matrix(1.0209 -.1439 -.1099 .9935 -.3 -31.2)"/><use xlink:href="#ad" width="3.8" height="8.8" transform="matrix(.9004 -.4207 .375 .8802 -2.5 -26.95)"/><use xlink:href="#ax" width="4.5" height="6.9" transform="rotate(-44.38 -19.21 -13.197)scale(.9924)"/><use xlink:href="#ae" width="2" height="7.9" transform="matrix(.5349 -.837 .675 .4918 .55 -20.15)"/><use xlink:href="#ay" width="12.8" height="11.9" transform="rotate(5.062 396.7 115.64)scale(-.9974 .9974)"/></g></g><g clip-path="url(#bd)"><g transform="translate(880.25 42.3)"><use xlink:href="#al" width="14.7" height="4.3" transform="matrix(.8 0 0 .8 -5.4 -1.8)"/><use xlink:href="#am" width="4.3" height="7.8" transform="matrix(.4305 .8233 -.7624 .3123 5.5 -31.3)"/><use xlink:href="#an" width="5.8" height="4.8" transform="translate(.15 -3.3)"/><use xlink:href="#ao" width="5.2" height="5.2" transform="translate(-5.5 -2.85)"/><use xlink:href="#ap" width="3.9" height="8.6" transform="rotate(13.531 46.325 8.608)scale(.9992)"/><use xlink:href="#aq" width="3.3" height="8.3" transform="matrix(.7668 -.6866 .5144 .7968 3.95 -23.15)"/><use xlink:href="#ar" width="4.2" height="7.4" transform="matrix(.9951 -.1366 .108 .9849 3.45 -29.3)"/><use xlink:href="#as" width="5" height="5" transform="matrix(.6791 -.7248 .7248 .6791 5.7 -18.9)"/><use xlink:href="#ap" width="3.9" height="8.6" transform="matrix(1 0 -.0919 .9243 -3.5 -9.6)"/><use xlink:href="#at" width="5.6" height="8.1" transform="rotate(-20.792 -39.388 -11.03)scale(.999)"/><use xlink:href="#au" width="6" height="7.8" transform="matrix(.9968 -.0748 .1168 .9937 -3.3 -15.1)"/><use xlink:href="#av" width="9.7" height="7" transform="matrix(.9993 .1117 -.1003 .9492 -1.7 -20.55)"/><use xlink:href="#aw" width="8.1" height="14.8" transform="matrix(1.0209 -.1439 -.1099 .9935 -.3 -31.2)"/><use xlink:href="#ad" width="3.8" height="8.8" transform="matrix(.9007 -.4209 .3911 .887 -2.6 -27.1)"/><use xlink:href="#ax" width="4.5" height="6.9" transform="matrix(.767 -.6294 .6294 .767 3.75 -17.35)"/><use xlink:href="#ae" width="2" height="7.9" transform="matrix(.4787 -.8702 .7043 .5047 .5 -20.2)"/><use xlink:href="#ay" width="12.8" height="11.9" transform="matrix(-.9791 -.1871 -.1871 .9791 12.6 -34.05)"/></g></g><g clip-path="url(#be)"><g transform="translate(908.25 42.3)"><use xlink:href="#al" width="14.7" height="4.3" transform="matrix(.8 0 0 .8 -5.4 -1.8)"/><use xlink:href="#am" width="4.3" height="7.8" transform="matrix(.4305 .8233 -.7624 .3123 5.5 -31.3)"/><use xlink:href="#an" width="5.8" height="4.8" transform="translate(.15 -3.3)"/><use xlink:href="#ao" width="5.2" height="5.2" transform="translate(-5.5 -2.85)"/><use xlink:href="#ap" width="3.9" height="8.6" transform="rotate(13.531 46.325 8.608)scale(.9992)"/><use xlink:href="#aq" width="3.3" height="8.3" transform="matrix(.7458 -.6985 .547 .7938 4 -22.95)"/><use xlink:href="#ar" width="4.2" height="7.4" transform="matrix(.9904 -.157 .1385 .982 3.3 -29.05)"/><use xlink:href="#as" width="5" height="5" transform="rotate(-53.415 -15.858 -15.264)scale(.993)"/><use xlink:href="#ap" width="3.9" height="8.6" transform="matrix(1 0 -.0919 .9243 -3.5 -9.6)"/><use xlink:href="#at" width="5.6" height="8.1" transform="rotate(-20.792 -39.388 -11.03)scale(.999)"/><use xlink:href="#au" width="6" height="7.8" transform="matrix(.9968 -.0748 .1168 .9937 -3.3 -15.1)"/><use xlink:href="#av" width="9.7" height="7" transform="matrix(.9993 .1117 -.1003 .9492 -1.7 -20.55)"/><use xlink:href="#aw" width="8.1" height="14.8" transform="matrix(1.0209 -.1439 -.1099 .9935 -.3 -31.2)"/><use xlink:href="#ad" width="3.8" height="8.8" transform="matrix(.9009 -.421 .4046 .8949 -2.75 -27.2)"/><use xlink:href="#ax" width="4.5" height="6.9" transform="matrix(.8188 -.56 .56 .8188 3.8 -17.6)"/><use xlink:href="#ae" width="2" height="7.9" transform="matrix(.4205 -.8997 .7323 .5195 .6 -20.2)"/><use xlink:href="#ay" width="12.8" height="11.9" transform="matrix(-.955 -.2843 -.2843 .955 13.2 -33.5)"/></g></g><g clip-path="url(#bf)"><g transform="translate(936.25 42.3)"><use xlink:href="#al" width="14.7" height="4.3" transform="matrix(.8 0 0 .8 -5.4 -1.8)"/><use xlink:href="#am" width="4.3" height="7.8" transform="matrix(.4305 .8233 -.7624 .3123 5.5 -31.3)"/><use xlink:href="#an" width="5.8" height="4.8" transform="translate(.15 -3.3)"/><use xlink:href="#ao" width="5.2" height="5.2" transform="translate(-5.5 -2.85)"/><use xlink:href="#ap" width="3.9" height="8.6" transform="rotate(13.531 46.325 8.608)scale(.9992)"/><use xlink:href="#aq" width="3.3" height="8.3" transform="matrix(.7249 -.7121 .5788 .7922 4.1 -22.75)"/><use xlink:href="#ar" width="4.2" height="7.4" transform="matrix(.9864 -.1743 .1714 .9783 3.05 -28.7)"/><use xlink:href="#as" width="5" height="5" transform="rotate(-60.08 -13.317 -14.681)scale(.9942)"/><use xlink:href="#ap" width="3.9" height="8.6" transform="matrix(1 0 -.0919 .9243 -3.5 -9.6)"/><use xlink:href="#at" width="5.6" height="8.1" transform="rotate(-20.792 -39.388 -11.03)scale(.999)"/><use xlink:href="#au" width="6" height="7.8" transform="matrix(.9968 -.0748 .1168 .9937 -3.3 -15.1)"/><use xlink:href="#av" width="9.7" height="7" transform="matrix(.9993 .1117 -.1003 .9492 -1.7 -20.55)"/><use xlink:href="#aw" width="8.1" height="14.8" transform="matrix(1.0209 -.1439 -.1099 .9935 -.3 -31.2)"/><use xlink:href="#ad" width="3.8" height="8.8" transform="rotate(-25.055 -62.92 -7.487)scale(.996)"/><use xlink:href="#ax" width="4.5" height="6.9" transform="rotate(-29.52 -31.735 -16.276)scale(.9932)"/><use xlink:href="#ae" width="2" height="7.9" transform="matrix(.3614 -.9262 .7613 .5352 .65 -20.25)"/><use xlink:href="#bg" width="10.2" height="11.5" transform="rotate(22.509 96.623 20.87)scale(-.997 .997)"/></g></g><g clip-path="url(#bh)"><g transform="translate(964.25 42.3)"><use xlink:href="#al" width="14.7" height="4.3" transform="matrix(.8 0 0 .8 -5.4 -1.8)"/><use xlink:href="#am" width="4.3" height="7.8" transform="matrix(.4305 .8233 -.7624 .3123 5.5 -31.3)"/><use xlink:href="#an" width="5.8" height="4.8" transform="translate(.15 -3.3)"/><use xlink:href="#ao" width="5.2" height="5.2" transform="translate(-5.5 -2.85)"/><use xlink:href="#ap" width="3.9" height="8.6" transform="rotate(13.531 46.325 8.608)scale(.9992)"/><use xlink:href="#aq" width="3.3" height="8.3" transform="matrix(.7249 -.7121 .5788 .7922 4.1 -22.75)"/><use xlink:href="#ar" width="4.2" height="7.4" transform="matrix(.9864 -.1743 .1714 .9783 3.05 -28.7)"/><use xlink:href="#as" width="5" height="5" transform="rotate(-57.404 -14.522 -14.776)scale(.9925)"/><use xlink:href="#ap" width="3.9" height="8.6" transform="matrix(1 0 -.0919 .9243 -3.5 -9.6)"/><use xlink:href="#at" width="5.6" height="8.1" transform="rotate(-20.792 -39.388 -11.03)scale(.999)"/><use xlink:href="#au" width="6" height="7.8" transform="matrix(.9968 -.0748 .1168 .9937 -3.3 -15.1)"/><use xlink:href="#av" width="9.7" height="7" transform="matrix(.9993 .1117 -.1003 .9492 -1.7 -20.55)"/><use xlink:href="#aw" width="8.1" height="14.8" transform="matrix(1.0209 -.1439 -.1099 .9935 -.3 -31.2)"/><use xlink:href="#ad" width="3.8" height="8.8" transform="rotate(-25.05 -62.931 -7.486)scale(.9948)"/><use xlink:href="#ax" width="4.5" height="6.9" transform="matrix(.8261 -.5484 .5484 .8261 3.7 -17.7)"/><use xlink:href="#ae" width="2" height="7.9" transform="matrix(.4286 -.9372 .7318 .5242 .65 -20.35)"/><use xlink:href="#bg" width="10.2" height="11.5" transform="matrix(-.9199 -.3816 -.3816 .9199 15.4 -35)"/></g></g><g clip-path="url(#bi)"><g transform="translate(992.25 42.3)"><use xlink:href="#al" width="14.7" height="4.3" transform="matrix(.8 0 0 .8 -5.4 -1.8)"/><use xlink:href="#am" width="4.3" height="7.8" transform="matrix(.4305 .8233 -.7624 .3123 5.5 -31.3)"/><use xlink:href="#an" width="5.8" height="4.8" transform="translate(.15 -3.3)"/><use xlink:href="#ao" width="5.2" height="5.2" transform="translate(-5.5 -2.85)"/><use xlink:href="#ap" width="3.9" height="8.6" transform="rotate(13.531 46.325 8.608)scale(.9992)"/><use xlink:href="#aq" width="3.3" height="8.3" transform="matrix(.7249 -.7121 .5788 .7922 4.1 -22.75)"/><use xlink:href="#ar" width="4.2" height="7.4" transform="matrix(.9864 -.1743 .1714 .9783 3.05 -28.7)"/><use xlink:href="#as" width="5" height="5" transform="rotate(-54.644 -15.687 -14.848)scale(.9923)"/><use xlink:href="#ap" width="3.9" height="8.6" transform="matrix(1 0 -.0919 .9243 -3.5 -9.6)"/><use xlink:href="#at" width="5.6" height="8.1" transform="rotate(-20.792 -39.388 -11.03)scale(.999)"/><use xlink:href="#au" width="6" height="7.8" transform="matrix(.9968 -.0748 .1168 .9937 -3.3 -15.1)"/><use xlink:href="#av" width="9.7" height="7" transform="matrix(.9993 .1117 -.1003 .9492 -1.7 -20.55)"/><use xlink:href="#aw" width="8.1" height="14.8" transform="matrix(1.0209 -.1439 -.1099 .9935 -.3 -31.2)"/><use xlink:href="#ad" width="3.8" height="8.8" transform="rotate(-25.05 -62.931 -7.486)scale(.9948)"/><use xlink:href="#ax" width="4.5" height="6.9" transform="rotate(-37.606 -24.437 -14.138)scale(.9913)"/><use xlink:href="#ae" width="2" height="7.9" transform="matrix(.5023 -.9426 .7019 .5162 .55 -20.4)"/><use xlink:href="#bg" width="10.2" height="11.5" transform="rotate(22.53 94.554 21.358)scale(-.996 .996)"/></g></g><g clip-path="url(#bj)"><g transform="translate(1020.25 42.3)"><use xlink:href="#al" width="14.7" height="4.3" transform="matrix(.8 0 0 .8 -5.4 -1.8)"/><use xlink:href="#am" width="4.3" height="7.8" transform="matrix(.4305 .8233 -.7624 .3123 5.5 -31.3)"/><use xlink:href="#an" width="5.8" height="4.8" transform="translate(.15 -3.3)"/><use xlink:href="#ao" width="5.2" height="5.2" transform="translate(-5.5 -2.85)"/><use xlink:href="#ap" width="3.9" height="8.6" transform="rotate(13.531 46.325 8.608)scale(.9992)"/><use xlink:href="#aq" width="3.3" height="8.3" transform="matrix(.7249 -.7121 .5788 .7922 4.1 -22.75)"/><use xlink:href="#ar" width="4.2" height="7.4" transform="matrix(.9864 -.1743 .1714 .9783 3.05 -28.7)"/><use xlink:href="#as" width="5" height="5" transform="rotate(-51.885 -17.158 -14.893)scale(.9922)"/><use xlink:href="#ap" width="3.9" height="8.6" transform="matrix(1 0 -.0919 .9243 -3.5 -9.6)"/><use xlink:href="#at" width="5.6" height="8.1" transform="rotate(-20.792 -39.388 -11.03)scale(.999)"/><use xlink:href="#au" width="6" height="7.8" transform="matrix(.9968 -.0748 .1168 .9937 -3.3 -15.1)"/><use xlink:href="#av" width="9.7" height="7" transform="matrix(.9993 .1117 -.1003 .9492 -1.7 -20.55)"/><use xlink:href="#aw" width="8.1" height="14.8" transform="matrix(1.0209 -.1439 -.1099 .9935 -.3 -31.2)"/><use xlink:href="#ad" width="3.8" height="8.8" transform="rotate(-25.05 -63.044 -7.51)scale(.9948)"/><use xlink:href="#ax" width="4.5" height="6.9" transform="rotate(-41.63 -21.893 -13.29)scale(.991)"/><use xlink:href="#ae" width="2" height="7.9" transform="matrix(.575 -.9442 .6739 .5053 .5 -20.4)"/><use xlink:href="#bg" width="10.2" height="11.5" transform="rotate(22.53 93.55 21.558)scale(-.996 .996)"/></g></g><g clip-path="url(#bk)"><g transform="translate(1048.25 42.3)"><use xlink:href="#al" width="14.7" height="4.3" transform="matrix(.8 0 0 .8 -5.4 -1.8)"/><use xlink:href="#am" width="4.3" height="7.8" transform="matrix(.4305 .8233 -.7624 .3123 5.5 -31.3)"/><use xlink:href="#an" width="5.8" height="4.8" transform="translate(.15 -3.3)"/><use xlink:href="#ao" width="5.2" height="5.2" transform="translate(-5.5 -2.85)"/><use xlink:href="#ap" width="3.9" height="8.6" transform="rotate(13.531 46.325 8.608)scale(.9992)"/><use xlink:href="#aq" width="3.3" height="8.3" transform="matrix(.7249 -.7121 .5788 .7922 4.1 -22.75)"/><use xlink:href="#ar" width="4.2" height="7.4" transform="matrix(.9864 -.1743 .1714 .9783 3.05 -28.7)"/><use xlink:href="#as" width="5" height="5" transform="matrix(.6492 -.75 .75 .6492 4.85 -19.15)"/><use xlink:href="#ap" width="3.9" height="8.6" transform="matrix(1 0 -.0919 .9243 -3.5 -9.6)"/><use xlink:href="#at" width="5.6" height="8.1" transform="rotate(-20.792 -39.388 -11.03)scale(.999)"/><use xlink:href="#au" width="6" height="7.8" transform="matrix(.9968 -.0748 .1168 .9937 -3.3 -15.1)"/><use xlink:href="#av" width="9.7" height="7" transform="matrix(.9993 .1117 -.1003 .9492 -1.7 -20.55)"/><use xlink:href="#aw" width="8.1" height="14.8" transform="matrix(1.0209 -.1439 -.1099 .9935 -.3 -31.2)"/><use xlink:href="#ad" width="3.8" height="8.8" transform="rotate(-25.05 -63.044 -7.51)scale(.9948)"/><use xlink:href="#ax" width="4.5" height="6.9" transform="rotate(-45.658 -19.71 -12.632)scale(.9908)"/><use xlink:href="#ae" width="2" height="7.9" transform="matrix(.6526 -.9385 .6446 .496 .4 -20.6)"/><use xlink:href="#bg" width="10.2" height="11.5" transform="rotate(22.53 92.546 21.758)scale(-.996 .996)"/></g></g><g clip-path="url(#bl)"><g transform="translate(1076.25 42.3)"><use xlink:href="#al" width="14.7" height="4.3" transform="matrix(.8 0 0 .8 -5.4 -1.8)"/><use xlink:href="#am" width="4.3" height="7.8" transform="matrix(.4305 .8233 -.7624 .3123 5.5 -31.3)"/><use xlink:href="#an" width="5.8" height="4.8" transform="translate(.15 -3.3)"/><use xlink:href="#ao" width="5.2" height="5.2" transform="translate(-5.5 -2.85)"/><use xlink:href="#ap" width="3.9" height="8.6" transform="rotate(13.531 46.325 8.608)scale(.9992)"/><use xlink:href="#aq" width="3.3" height="8.3" transform="matrix(.7249 -.7121 .5788 .7922 4.1 -22.75)"/><use xlink:href="#ar" width="4.2" height="7.4" transform="matrix(.9864 -.1743 .1714 .9783 3.05 -28.7)"/><use xlink:href="#as" width="5" height="5" transform="rotate(-46.31 -20.34 -14.853)scale(.9934)"/><use xlink:href="#ap" width="3.9" height="8.6" transform="matrix(1 0 -.0919 .9243 -3.5 -9.6)"/><use xlink:href="#at" width="5.6" height="8.1" transform="rotate(-20.792 -39.388 -11.03)scale(.999)"/><use xlink:href="#au" width="6" height="7.8" transform="matrix(.9968 -.0748 .1168 .9937 -3.3 -15.1)"/><use xlink:href="#av" width="9.7" height="7" transform="matrix(.9993 .1117 -.1003 .9492 -1.7 -20.55)"/><use xlink:href="#aw" width="8.1" height="14.8" transform="matrix(1.0209 -.1439 -.1099 .9935 -.3 -31.2)"/><use xlink:href="#ad" width="3.8" height="8.8" transform="rotate(-25.055 -63.032 -7.512)scale(.996)"/><use xlink:href="#ax" width="4.5" height="6.9" transform="rotate(-49.8 -17.86 -12.153)scale(.9922)"/><use xlink:href="#ae" width="2" height="7.9" transform="matrix(.73 -.9302 .618 .485 .25 -20.65)"/><use xlink:href="#bg" width="10.2" height="11.5" transform="rotate(22.509 91.597 21.87)scale(-.997 .997)"/></g></g><g clip-path="url(#bm)"><g transform="translate(1104.25 42.3)"><use xlink:href="#al" width="14.7" height="4.3" transform="matrix(.8 0 0 .8 -5.4 -1.8)"/><use xlink:href="#am" width="4.3" height="7.8" transform="matrix(.4305 .8233 -.7624 .3123 5.5 -31.3)"/><use xlink:href="#an" width="5.8" height="4.8" transform="translate(.15 -3.3)"/><use xlink:href="#ao" width="5.2" height="5.2" transform="translate(-5.5 -2.85)"/><use xlink:href="#ap" width="3.9" height="8.6" transform="rotate(13.531 46.325 8.608)scale(.9992)"/><use xlink:href="#aq" width="3.3" height="8.3" transform="matrix(.7249 -.7121 .5788 .7922 4.1 -22.75)"/><use xlink:href="#ar" width="4.2" height="7.4" transform="matrix(.9864 -.1743 .1714 .9783 3.05 -28.7)"/><use xlink:href="#as" width="5" height="5" transform="rotate(-46.31 -20.34 -14.853)scale(.9934)"/><use xlink:href="#ap" width="3.9" height="8.6" transform="matrix(1 0 -.0919 .9243 -3.5 -9.6)"/><use xlink:href="#at" width="5.6" height="8.1" transform="rotate(-20.792 -39.388 -11.03)scale(.999)"/><use xlink:href="#au" width="6" height="7.8" transform="matrix(.9968 -.0748 .1168 .9937 -3.3 -15.1)"/><use xlink:href="#av" width="9.7" height="7" transform="matrix(.9993 .1117 -.1003 .9492 -1.7 -20.55)"/><use xlink:href="#aw" width="8.1" height="14.8" transform="matrix(1.0209 -.1439 -.1099 .9935 -.3 -31.2)"/><use xlink:href="#ad" width="3.8" height="8.8" transform="rotate(-25.055 -63.032 -7.512)scale(.996)"/><use xlink:href="#ax" width="4.5" height="6.9" transform="rotate(-49.8 -17.86 -12.153)scale(.9922)"/><use xlink:href="#ae" width="2" height="7.9" transform="matrix(.73 -.9302 .618 .485 .25 -20.65)"/><use xlink:href="#bg" width="10.2" height="11.5" transform="rotate(22.509 91.597 21.87)scale(-.997 .997)"/></g></g><g clip-path="url(#bn)"><g transform="translate(1132.25 42.3)"><use xlink:href="#al" width="14.7" height="4.3" transform="matrix(.8 0 0 .8 -5.4 -1.8)"/><use xlink:href="#am" width="4.3" height="7.8" transform="matrix(.4305 .8233 -.7624 .3123 5.5 -31.3)"/><use xlink:href="#an" width="5.8" height="4.8" transform="translate(.15 -3.3)"/><use xlink:href="#ao" width="5.2" height="5.2" transform="translate(-5.5 -2.85)"/><use xlink:href="#ap" width="3.9" height="8.6" transform="rotate(13.531 46.325 8.608)scale(.9992)"/><use xlink:href="#aq" width="3.3" height="8.3" transform="matrix(.7249 -.7121 .5788 .7922 4.1 -22.75)"/><use xlink:href="#ar" width="4.2" height="7.4" transform="matrix(.9864 -.1743 .1714 .9783 3.05 -28.7)"/><use xlink:href="#as" width="5" height="5" transform="rotate(-46.31 -20.34 -14.853)scale(.9934)"/><use xlink:href="#ap" width="3.9" height="8.6" transform="matrix(1 0 -.0919 .9243 -3.5 -9.6)"/><use xlink:href="#at" width="5.6" height="8.1" transform="rotate(-20.792 -39.388 -11.03)scale(.999)"/><use xlink:href="#au" width="6" height="7.8" transform="matrix(.9968 -.0748 .1168 .9937 -3.3 -15.1)"/><use xlink:href="#av" width="9.7" height="7" transform="matrix(.9993 .1117 -.1003 .9492 -1.7 -20.55)"/><use xlink:href="#aw" width="8.1" height="14.8" transform="matrix(1.0209 -.1439 -.1099 .9935 -.3 -31.2)"/><use xlink:href="#ad" width="3.8" height="8.8" transform="rotate(-25.055 -63.032 -7.512)scale(.996)"/><use xlink:href="#ax" width="4.5" height="6.9" transform="rotate(-49.8 -17.86 -12.153)scale(.9922)"/><use xlink:href="#ae" width="2" height="7.9" transform="matrix(.73 -.9302 .618 .485 .25 -20.65)"/><use xlink:href="#bg" width="10.2" height="11.5" transform="rotate(22.509 91.597 21.87)scale(-.997 .997)"/></g></g><g clip-path="url(#bo)"><g transform="translate(1160.25 42.3)"><use xlink:href="#al" width="14.7" height="4.3" transform="matrix(.8 0 0 .8 -5.4 -1.8)"/><use xlink:href="#am" width="4.3" height="7.8" transform="matrix(.4305 .8233 -.7624 .3123 5.5 -31.3)"/><use xlink:href="#an" width="5.8" height="4.8" transform="translate(.15 -3.3)"/><use xlink:href="#ao" width="5.2" height="5.2" transform="translate(-5.5 -2.85)"/><use xlink:href="#ap" width="3.9" height="8.6" transform="rotate(13.531 46.325 8.608)scale(.9992)"/><use xlink:href="#aq" width="3.3" height="8.3" transform="matrix(.7249 -.7121 .5788 .7922 4.1 -22.75)"/><use xlink:href="#ar" width="4.2" height="7.4" transform="matrix(.9864 -.1743 .1714 .9783 3.05 -28.7)"/><use xlink:href="#as" width="5" height="5" transform="rotate(-46.31 -20.34 -14.853)scale(.9934)"/><use xlink:href="#ap" width="3.9" height="8.6" transform="matrix(1 0 -.0919 .9243 -3.5 -9.6)"/><use xlink:href="#at" width="5.6" height="8.1" transform="rotate(-20.792 -39.388 -11.03)scale(.999)"/><use xlink:href="#au" width="6" height="7.8" transform="matrix(.9968 -.0748 .1168 .9937 -3.3 -15.1)"/><use xlink:href="#av" width="9.7" height="7" transform="matrix(.9993 .1117 -.1003 .9492 -1.7 -20.55)"/><use xlink:href="#aw" width="8.1" height="14.8" transform="matrix(1.0209 -.1439 -.1099 .9935 -.3 -31.2)"/><use xlink:href="#ad" width="3.8" height="8.8" transform="rotate(-25.055 -63.032 -7.512)scale(.996)"/><use xlink:href="#ax" width="4.5" height="6.9" transform="rotate(-49.8 -17.86 -12.153)scale(.9922)"/><use xlink:href="#ae" width="2" height="7.9" transform="matrix(.73 -.9302 .618 .485 .25 -20.65)"/><use xlink:href="#bg" width="10.2" height="11.5" transform="rotate(22.509 91.597 21.87)scale(-.997 .997)"/></g></g><g clip-path="url(#bp)"><g transform="translate(1188.25 42.3)"><use xlink:href="#al" width="14.7" height="4.3" transform="matrix(.8 0 0 .8 -5.4 -1.8)"/><use xlink:href="#am" width="4.3" height="7.8" transform="matrix(.4305 .8233 -.7624 .3123 5.5 -31.3)"/><use xlink:href="#an" width="5.8" height="4.8" transform="translate(.15 -3.3)"/><use xlink:href="#ao" width="5.2" height="5.2" transform="translate(-5.5 -2.85)"/><use xlink:href="#ap" width="3.9" height="8.6" transform="rotate(13.531 46.325 8.608)scale(.9992)"/><use xlink:href="#aq" width="3.3" height="8.3" transform="matrix(.7249 -.7121 .5788 .7922 4.1 -22.75)"/><use xlink:href="#ar" width="4.2" height="7.4" transform="matrix(.9864 -.1743 .1714 .9783 3.05 -28.7)"/><use xlink:href="#as" width="5" height="5" transform="rotate(-46.31 -20.34 -14.853)scale(.9934)"/><use xlink:href="#ap" width="3.9" height="8.6" transform="matrix(1 0 -.0919 .9243 -3.5 -9.6)"/><use xlink:href="#at" width="5.6" height="8.1" transform="rotate(-20.792 -39.388 -11.03)scale(.999)"/><use xlink:href="#au" width="6" height="7.8" transform="matrix(.9968 -.0748 .1168 .9937 -3.3 -15.1)"/><use xlink:href="#av" width="9.7" height="7" transform="matrix(.9993 .1117 -.1003 .9492 -1.7 -20.55)"/><use xlink:href="#aw" width="8.1" height="14.8" transform="matrix(1.0209 -.1439 -.1099 .9935 -.3 -31.2)"/><use xlink:href="#ad" width="3.8" height="8.8" transform="rotate(-25.055 -63.032 -7.512)scale(.996)"/><use xlink:href="#ax" width="4.5" height="6.9" transform="rotate(-49.8 -17.86 -12.153)scale(.9922)"/><use xlink:href="#ae" width="2" height="7.9" transform="matrix(.73 -.9302 .618 .485 .25 -20.65)"/><use xlink:href="#bg" width="10.2" height="11.5" transform="rotate(22.509 91.597 21.87)scale(-.997 .997)"/></g></g><g clip-path="url(#bq)"><g transform="translate(1216.25 42.3)"><use xlink:href="#al" width="14.7" height="4.3" transform="matrix(.8 0 0 .8 -5.4 -1.8)"/><use xlink:href="#am" width="4.3" height="7.8" transform="matrix(.4305 .8233 -.7624 .3123 5.5 -31.3)"/><use xlink:href="#an" width="5.8" height="4.8" transform="translate(.15 -3.3)"/><use xlink:href="#ao" width="5.2" height="5.2" transform="translate(-5.5 -2.85)"/><use xlink:href="#ap" width="3.9" height="8.6" transform="rotate(13.531 46.11 5)scale(.9992)"/><use xlink:href="#aq" width="3.3" height="8.3" transform="matrix(.9171 -.3954 .2174 .9844 4.6 -23.75)"/><use xlink:href="#ar" width="4.2" height="7.4" transform="matrix(.9925 -.1046 .1392 .9881 3.15 -28.75)"/><use xlink:href="#as" width="5" height="5" transform="matrix(.8853 -.4621 .4621 .8853 4.3 -16.6)"/><use xlink:href="#ap" width="3.9" height="8.6" transform="matrix(1 0 -.0919 .9243 -3.5 -9.6)"/><use xlink:href="#at" width="5.6" height="8.1" transform="rotate(-20.792 -39.388 -11.03)scale(.999)"/><use xlink:href="#au" width="6" height="7.8" transform="matrix(.9968 -.0748 .1584 .9906 -3.4 -14.7)"/><use xlink:href="#av" width="9.7" height="7" transform="matrix(.9993 .1117 -.1003 .9492 -1.85 -19.6)"/><use xlink:href="#aw" width="8.1" height="14.8" transform="matrix(1.0209 -.1439 -.1099 .9935 -.3 -31.2)"/><use xlink:href="#ad" width="3.8" height="8.8" transform="rotate(1.984 840.82 -76.67)scale(.9996)"/><use xlink:href="#ax" width="4.5" height="6.9" transform="rotate(-9.966 -96.419 5.75)scale(.9985)"/><use xlink:href="#ae" width="2" height="7.9" transform="matrix(1.1728 -.3929 .1241 .9162 -2.25 -21.85)"/><use xlink:href="#ay" width="12.8" height="11.9" transform="rotate(2.792 783.487 -30.385)scale(.9998)"/></g></g><g clip-path="url(#br)"><g transform="translate(1244.25 42.3)"><use xlink:href="#al" width="14.7" height="4.3" transform="matrix(.8 0 0 .8 -5.4 -1.8)"/><use xlink:href="#am" width="4.3" height="7.8" transform="matrix(.6695 .6669 -.6824 .5695 2.75 -31.9)"/><use xlink:href="#an" width="5.8" height="4.8" transform="translate(.15 -3.3)"/><use xlink:href="#ao" width="5.2" height="5.2" transform="translate(-5.4 -2.75)"/><use xlink:href="#ap" width="3.9" height="8.6" transform="rotate(10.511 58.865 5.275)scale(.9988)"/><use xlink:href="#aq" width="3.3" height="8.3" transform="matrix(.9355 -.3463 .1757 .9901 4.4 -23.9)"/><use xlink:href="#ar" width="4.2" height="7.4" transform="matrix(.9837 -.1648 .1573 .987 2.8 -29.05)"/><use xlink:href="#as" width="5" height="5" transform="rotate(-21.31 -42.629 -19.852)scale(.9977)"/><use xlink:href="#ap" width="3.9" height="8.6" transform="matrix(1 0 -.0706 .9418 -3.5 -9.65)"/><use xlink:href="#at" width="5.6" height="8.1" transform="rotate(-16.046 -53.094 -12.187)scale(.9982)"/><use xlink:href="#au" width="6" height="7.8" transform="matrix(.9965 -.0742 .1362 .9925 -3.4 -14.85)"/><use xlink:href="#av" width="9.7" height="7" transform="matrix(1.0005 .0832 -.0766 .9613 -2 -19.55)"/><use xlink:href="#aw" width="8.1" height="14.8" transform="matrix(1.018 -.1079 -.075 .9965 -.75 -31.5)"/><use xlink:href="#ad" width="3.8" height="8.8" transform="rotate(2.311 727.504 -79.152)scale(.9994)"/><use xlink:href="#ax" width="4.5" height="6.9" transform="rotate(-7.563 -127.886 15.102)scale(.9984)"/><use xlink:href="#ae" width="2" height="7.9" transform="matrix(1.1465 -.2921 .0953 .9361 -2.7 -22)"/><use xlink:href="#ay" width="12.8" height="11.9" transform="rotate(2.03 1096.114 -58.95)scale(.9997)"/></g></g><g clip-path="url(#bs)"><g transform="translate(1272.25 42.3)"><use xlink:href="#al" width="14.7" height="4.3" transform="matrix(.8 0 0 .8 -5.4 -1.8)"/><use xlink:href="#am" width="4.3" height="7.8" transform="matrix(.8551 .4421 -.5144 .8049 .05 -32.45)"/><use xlink:href="#an" width="5.8" height="4.8" transform="translate(.15 -3.3)"/><use xlink:href="#ao" width="5.2" height="5.2" transform="translate(-5.25 -2.65)"/><use xlink:href="#ap" width="3.9" height="8.6" transform="rotate(7.506 81.138 5.777)scale(.999)"/><use xlink:href="#aq" width="3.3" height="8.3" transform="matrix(.9523 -.297 .1365 .9944 4.35 -23.95)"/><use xlink:href="#ar" width="4.2" height="7.4" transform="matrix(.9714 -.2245 .1789 .9855 2.4 -29.3)"/><use xlink:href="#as" width="5" height="5" transform="rotate(-15.07 -62.541 -24.427)scale(.9981)"/><use xlink:href="#ap" width="3.9" height="8.6" transform="matrix(1 0 -.0506 .9589 -3.45 -9.55)"/><use xlink:href="#at" width="5.6" height="8.1" transform="rotate(-11.309 -77.978 -13.33)scale(.9985)"/><use xlink:href="#au" width="6" height="7.8" transform="matrix(.9965 -.0742 .1183 .994 -3.45 -15.1)"/><use xlink:href="#av" width="9.7" height="7" transform="matrix(1.0014 .0531 -.0558 .9729 -2.05 -19.55)"/><use xlink:href="#aw" width="8.1" height="14.8" transform="matrix(1.0141 -.0759 -.0441 .9986 -1.2 -31.8)"/><use xlink:href="#ad" width="3.8" height="8.8" transform="rotate(2.81 601.907 -73.913)scale(.9994)"/><use xlink:href="#ax" width="4.5" height="6.9" transform="rotate(-5.505 -176.04 29.588)scale(.9987)"/><use xlink:href="#ae" width="2" height="7.9" transform="matrix(1.1133 -.1975 .0679 .9554 -3.15 -22.25)"/><use xlink:href="#ay" width="12.8" height="11.9" transform="rotate(1.301 1736.14 -116.605)scale(.9998)"/></g></g><g clip-path="url(#bt)"><g transform="translate(1300.25 42.3)"><use xlink:href="#al" width="14.7" height="4.3" transform="matrix(.8 0 0 .8 -5.4 -1.8)"/><use xlink:href="#am" width="4.3" height="7.8" transform="matrix(.9665 .1702 -.2657 .9879 -2.65 -32.7)"/><use xlink:href="#an" width="5.8" height="4.8" transform="translate(.15 -3.3)"/><use xlink:href="#ao" width="5.2" height="5.2" transform="translate(-5.15 -2.55)"/><use xlink:href="#ap" width="3.9" height="8.6" transform="rotate(4.505 134.619 7.438)scale(.9995)"/><use xlink:href="#aq" width="3.3" height="8.3" transform="matrix(.9664 -.2507 .1008 .9972 4.15 -24.05)"/><use xlink:href="#ar" width="4.2" height="7.4" transform="matrix(.9565 -.2837 .2014 .9839 2 -29.5)"/><use xlink:href="#as" width="5" height="5" transform="rotate(-9.053 -106.845 -35.15)scale(.999)"/><use xlink:href="#ap" width="3.9" height="8.6" transform="matrix(1 0 -.0304 .9757 -3.45 -9.6)"/><use xlink:href="#at" width="5.6" height="8.1" transform="matrix(.9922 -.1183 .1183 .9922 1 -16)"/><use xlink:href="#au" width="6" height="7.8" transform="matrix(.9966 -.0743 .1009 .9954 -3.4 -15.2)"/><use xlink:href="#av" width="9.7" height="7" transform="matrix(1.0013 .0268 -.0352 .9841 -2.1 -19.6)"/><use xlink:href="#aw" width="8.1" height="14.8" transform="matrix(1.0092 -.0448 -.0132 .9997 -1.6 -32.05)"/><use xlink:href="#ad" width="3.8" height="8.8" transform="rotate(3.505 486.995 -68.88)scale(.9995)"/><use xlink:href="#ax" width="4.5" height="6.9" transform="rotate(-3.27 -297.325 66.901)scale(.9993)"/><use xlink:href="#ae" width="2" height="7.9" transform="matrix(1.0726 -.1136 .0428 .9738 -3.65 -22.45)"/><use xlink:href="#ay" width="12.8" height="11.9" transform="matrix(.9998 .0139 -.0139 .9998 -3 -40.1)"/></g></g></svg>