<svg xmlns="http://www.w3.org/2000/svg" xmlns:xlink="http://www.w3.org/1999/xlink" width="54" height="63" viewBox="0 0 54 63"><defs><g id="ar"><path fill="#7a7e56" d="M5.8.1 3.6 2.4 0 .6z"/><path fill="none" stroke="#4a4b27" stroke-linecap="round" stroke-linejoin="round" stroke-width="__RESOLUTION__" d="M.1.6 5.8 0" vector-effect="non-scaling-stroke"/></g><g id="d"><path fill="#ffc" fill-opacity=".5" d="m14 6.1-3.2-1 .8-1.3L21 .4l.2 1L17.3 3 14 5.7zm-8 6.2 1.8 1-2 1.6L2 14l.6-1.8v-.1z"/><path fill="#000" fill-opacity=".3" d="m21.2 1.4.1-.1v.5q-.2 2.3-1.2 5.5l-4.7 4.9-.2.1.1.1 1.7 4.8-5.8-.5-1.1-4.1-6.3-.8v-.1l1.1-.8L6 8.8l6 2.4 2.3-3.6v-.2L14 6.1l-.1-.4L17.4 3z"/><path fill="none" stroke="#000" stroke-linecap="round" stroke-linejoin="round" stroke-opacity=".4" stroke-width="__RESOLUTION__" d="M21.3.1v1.2q0 2.4-1.2 6l-4.7 4.9v.2l-.1-.1.1-.1v-1l-.3-1M17.4 3 14 5.7l.4 1.7m2.7 9.8-6-.6v1.5L2 19.5l-.3-3-1.7-2m3.7-2.7 1.1-.8 1.3-2.4M5 16.5q.3-1 1-1.7l1.7.1.7.4h0v.1h0m-2.3 1.3q.7-1 1.4.4l.3.7m-6.7-4.5v1.2m.4 2.1.8-4.2" vector-effect="non-scaling-stroke"/></g><g id="a"><path fill="#693" d="M4.9 0"/><path fill="#d9d5d0" d="m.9 5.9-.9-1 1.6-.2z"/><path fill="#fff" d="M3.7 7.3 3 4.5l2.9-.4z"/><path fill="none" stroke="#596f6c" stroke-linecap="round" stroke-linejoin="round" stroke-width="__RESOLUTION__" d="M1.6 4.7.9 5.9m5-1.8L3.7 7.3" vector-effect="non-scaling-stroke"/></g><g id="g"><path fill="#ffc" fill-opacity=".5" d="m2.6 13.7.1-.4 1.5-.7L1.5 18q-1.1 3.5 0 3L0 22l.7-4z"/><path fill="none" stroke="#000" stroke-linecap="round" stroke-linejoin="round" stroke-opacity=".4" stroke-width="__RESOLUTION__" d="M2.8 13.3 5.4 7l.2-7M1.5 21 6 18.2M1.5 21l-1.4.8.6-3.8 1.9-4.3M9.5.5 4.6 15.9" vector-effect="non-scaling-stroke"/><path fill="#000" fill-opacity=".6" d="m4.4 9.5 1-2.4.2-7 3.9.4-2.6 8.3z"/><path fill="#000" fill-opacity=".3" d="m6.9 8.8-1 3.3Q4.8 11 2.8 13.3l1.6-3.7z"/><path fill="#000" fill-opacity=".1" d="M1.8 17.9 4.7 15l.2 3.3-3 1.6z"/><path fill="none" stroke="#2e0a01" stroke-linecap="round" stroke-linejoin="round" stroke-width="__RESOLUTION__" d="m5 8 .5-1" vector-effect="non-scaling-stroke"/></g><g id="n"><path fill="#000" fill-opacity=".3" d="M11.8 6.5q.8 2.7.5 5.3Q9.2 4.5 6.5 10 5 7.8 2.7 7.4 6 5.7 7.6 3q2.8 1 4.1 3.1z"/><path fill="none" stroke="#000" stroke-linecap="round" stroke-linejoin="round" stroke-opacity=".4" stroke-width="__RESOLUTION__" d="m.1 7.5 2.6-.1q2.4.5 3.8 2.6 2.7-5.5 5.8 1.8.3-2.6-.5-5.3l-.1-.4q-1-2.8-4.3-5.5L6.9.5V1l-.9.3q-.6 0-.9-.4-.2-.3 0-.8l-.7.7Q5 4.5 1.6 5.9.8 3.8.1 6.2" vector-effect="non-scaling-stroke"/></g><g id="k"><path fill="#e3e2ce" d="m.1 1.9.1-.3.3-1L.6 0h.2l.1.2.8 1.2.1.5.1.2v.6l-.9.2q-.6 0-.9-.3-.2-.2 0-.7"/><path fill="#fff" d="m0 1.9.1-.1z"/></g><g id="O"><path fill="#2d311d" fill-opacity=".3" d="M11.8 6.5q.8 2.7.5 5.3Q9.2 4.5 6.5 10 5 7.8 2.7 7.4 6 5.7 7.6 3q2.8 1 4.1 3.1z"/><path fill="none" stroke="#2d311d" stroke-linecap="round" stroke-linejoin="round" stroke-opacity=".4" stroke-width="__RESOLUTION__" d="m.1 7.5 2.6-.1q2.4.5 3.8 2.6 2.7-5.5 5.8 1.8.3-2.6-.5-5.3l-.1-.4q-1-2.8-4.3-5.5L6.9.5V1l-.9.3q-.6 0-.9-.4-.2-.3 0-.8l-.7.7Q5 4.5 1.6 5.9.8 3.8.1 6.2" vector-effect="non-scaling-stroke"/></g><g id="s"><path fill="#878b6f" d="m.1 1.9.1-.3.3-1L.6 0h.2l.1.2.8 1.2.1.5.1.2v.6l-.9.2q-.6 0-.9-.3-.2-.2 0-.7"/><path fill="#929682" d="m0 1.9.1-.1z"/></g><g id="T"><path fill="#fcfbdc" d="m3.9.1.5.7Q4.8 2.7 3 4.5h-.9L.1 2 .5.6Q2.2 0 3.9.1"/><path fill="none" stroke="#4a4b27" stroke-linecap="round" stroke-linejoin="round" stroke-width="__RESOLUTION__" d="m3.9.1.5.7Q4.8 2.7 3 4.5h-.9" vector-effect="non-scaling-stroke"/><path fill="none" stroke="#b7b066" stroke-linecap="round" stroke-linejoin="round" stroke-width="__RESOLUTION__" d="M2.2 4.5.1 2" vector-effect="non-scaling-stroke"/></g><g id="S"><path fill="#ffc" fill-opacity=".3" d="M15.8 2.4v-.1q-2-2.3-6-2.1 4-.7 6 2v.1z"/><path fill="#000" fill-opacity=".3" d="m10.5 1.6.9 1.9zm2.2 2.1zl-1.3 1.8.2 3.9-.3-4zm-6.4 6.4v2.4l-1.9 6.4 1.9.4v2.6q-3.4 2.5-6.2-.5L3.6 9.2z"/><path fill="#ffc" fill-opacity=".5" d="m10.7 4.2.5.4L9 6.2l-1-.5 2.5-1.6zM5.9 8.3l-.5.4-.9-.6.4-.2.8.2z"/><path fill="none" stroke="#000" stroke-linecap="round" stroke-linejoin="round" stroke-opacity=".4" stroke-width="__RESOLUTION__" d="m15.8 2.3-.3.8q-1.2 3.2-3.8 6.3l-.3-4-5.1 4V22q-3.4 2.5-6.2-.5l3.7-13M12 4.8l-.6.7m0-2L9.6.2" vector-effect="non-scaling-stroke"/></g><g id="X"><path fill="#000" fill-opacity=".2" d="M6.1.2V0l.6.7-.2.7-2.1 4.1q1-3.5-4 2.7L5.3.5z"/><path fill="none" stroke="#000" stroke-linecap="round" stroke-linejoin="round" stroke-opacity=".4" stroke-width="__RESOLUTION__" d="m4.4 5.7 2-4.1.3-.8-.5-.7H6M4.4 5.8Q2.2 10 1.9 11.4q-.4 2.1-1.8 2.5" vector-effect="non-scaling-stroke"/></g><g id="aa"><path fill="#ffc" fill-opacity=".3" d="m4.5 3.2-2.7-2L7.5.5l2.8 1.4-.2.6z"/><path fill="#000" fill-opacity=".3" d="m10.1 2.4.9-.1h.2l2.7.3 1.7 3.2-1.2.5-4.4-.7-6.2.9-.5-.4-.7-2.6 1.8-.3z"/><path fill="#ffc" fill-opacity=".5" d="M.1 3.7 1 2.3l.9 1-1.5 1z"/><path fill="none" stroke="#000" stroke-linecap="round" stroke-linejoin="round" stroke-opacity=".4" stroke-width="__RESOLUTION__" d="m11 2.3-.7 3.2-.3.1 4.4.8 1.2-.6L13.5 2v-.3l-2-1.2M8.8 0 1.4 1.3.1 3.5l.2-.2-.1.3-.1-.1M10 5.6l-6.2.9-.5-.4h-.1 0v0" vector-effect="non-scaling-stroke"/></g><g id="Y"><path fill="#000" d="m2 0 1 1 .9 3L0 3.8l.9-2.2v-.3z"/><path fill="#e3b30f" d="m.9 1.3-.1.2z"/></g><g id="ap"><path fill="#9b927d" d="M17.5 14.2v.2h-.2z"/><path fill="#acaea6" d="m10 14.5-.1.2-.6-3.6 1-3 .1 1.4.5 2.7-.1.4zm.4-3.2-.5.9z"/><path fill="#000" d="m10.8 12.6.4 1.8.1.3-.8 1.8-.1-.6-.4-1.5z"/><path fill="#4e453a" d="M11.3 14.7v1.6l-.1.9v.4l-.2 1h-.7l.2-2.1zm0 3-.1-.4z"/><path fill="none" stroke="#000" stroke-linecap="round" stroke-linejoin="round" stroke-opacity=".4" stroke-width="__RESOLUTION__" d="m10 14.5-.1.2-.6-3.6 1-3 .1 1.4v0l.5 2.7-.1.4.3 1.8.2.3v1.6l-.2.9.1.2v.2-.3h0v-.1m-.9 1.4.2-2.2-.2-.5v0l-.3-1.5.8-1.8m-.9-.4.4-.9" vector-effect="non-scaling-stroke"/><path fill="#cdceca" d="m11.2 17.3.2-.7.2 1.8L11 21l-.7-.8.2-1.3z"/><path fill="none" stroke="#000" stroke-linecap="round" stroke-linejoin="round" stroke-opacity=".4" stroke-width="__RESOLUTION__" d="M11.4 16.7v-.1l.2 1.8L11 21l-.7-.8.2-1.3.7-1.7" vector-effect="non-scaling-stroke"/><path fill="#c5b58f" d="m1.3 7.8.4-2.1 1.9-1.2.5-.2L6.2 4h1.4q.6 2.2.3 3.5l-.2-.1-1.5-.3-1.9.1-.9.3Q2.4 8 1.8 9l-.4.3-.1.2q-.2-.7 0-1.6"/><path fill="#e3d0a5" d="M7.7 4H6.2l-2.1.3-.5.2-1.9 1.2-.4 2.1Q1 6.3 1 4.6v-.8q.3-1.3 1.3-2.3Q3.9 0 5.9 0 7.7 0 9 1l.4 3.4-.5-.2z"/><path fill="#b3a482" d="m1.3 9.4.2-.1.2-.4q.8-.9 1.8-1.4l.9-.3h1.8l1.5.2.3 1.8-.5-.2-.3-.1H7l-1-.3h-.7l-1.1.1-.8.2q-1 .3-1.7 1l-.1.1-.1.1Q.3 11.3.3 12.9v.1q-.6-1.8 1-3.6"/><path fill="#80755e" d="M7.7 7.4h.2q.4-1.3-.2-3.3l1.3.2.4.2.7.2V5h.1l.4.2.4 1.3.2.8-.2.7-.1.4-.2.3-.6.6-.3-.2.5.8q.5 1 .4 2.5v.7l.1.5v.3q-.1 1-.9 2l-.4.5-1.6 1-2 .3q-2.2 0-3.8-1.3Q.4 15 .3 13.2v-.3q0-1.6 1.2-2.8l.1-.1v-.1q.8-.7 1.7-1l.8-.2H6l1 .1.2.1.2.1.6.2.2.1.9.6.7.7q.6.8.9 1.7v.1-.1q-.2-.9-.9-1.7L9 10l-.8-.6-.2-.1zm.2 0 .4.1.4.4.1.1.2.2.6.7.2.3-.2-.3-.6-.7-.2-.2-.6-.4zM7.7 15q.8-2.2-1.2-3.2l-2.2.2q-.8.2-1 .8-.4.7 0 2 1.4 1.7 3.5 1.8l3.1-.5-3.1.5q-2.1-.1-3.5-1.8-.4-1.3 0-2 .2-.6 1-.8l2.2-.2q2 1 1.2 3.2"/><path fill="#93876c" d="M9.4 4.5 9 1l.5.3q1.6 1.4 1.7 3.4v.5l-.1.7-.1.6-.5-1.3-.3-.1-.1-.1v-.4z"/><path fill="#000" d="m11 8.1-.2.7h-.1l.2-.4z"/><path fill="#9b927d" d="m11.6 12.6-.2.3z"/><path fill="#b6ae9e" d="M11 21.3v-1 .5z"/><path fill="none" stroke="#000" stroke-linecap="round" stroke-linejoin="round" stroke-opacity=".4" stroke-width="__RESOLUTION__" d="M7.7 4H6.2l-2.1.3-.5.2-1.9 1.2-.4 2.1q-.1.9 0 1.6l.2-.1.3-.4q.7-.9 1.7-1.4l.9-.3h1.8l1.5.2h.2l.4.1.5.4V8l.2.2.6.7.2.3.3.2.6-.6M7.7 4l1.3.3.4.2.7.2M9 1Q7.7 0 5.9 0q-2 0-3.5 1.4-1 1-1.2 2.3l-.1.8.1 3.2M11 6.6V6l.1-.7v-.5q-.1-2-1.7-3.3L9 1m1.6 4.2.4 1.3.2.8-.2.7-.1.4m-1.1.7.5.8q.5 1 .4 2.5v.7l.1.5v.3q-.1 1-.9 2l-.4.5-1.6 1-2 .3q-2.2 0-3.8-1.3Q.4 15 .3 13.2v-.3q0-1.6 1.2-2.8l.1-.1v-.1q.8-.7 1.7-1l.8-.2H6l1 .1.2.1.2.1.6.2.2.1.9.6.7.7q.6.8.9 1.7v.1M.3 13q-.6-1.8 1-3.6M9.9 16l-3.1.5q-2.1-.1-3.5-1.8-.4-1.3 0-2 .2-.6 1-.8l2.2-.2q2 1 1.2 3.2" vector-effect="non-scaling-stroke"/></g><g id="an"><path fill="#fff" d="M22.6 11.3q-.1 4.6-3.4 7.9t-7.9 3.4q-4.6-.1-8-3.4Q.1 15.9.1 11.3t3.3-8Q6.7.2 11.3.2t7.9 3.3 3.4 7.9"/><path fill="none" stroke="#647b77" stroke-linecap="round" stroke-linejoin="round" stroke-width="__RESOLUTION__" d="M22.6 11.3q-.1 4.6-3.4 7.9t-7.9 3.4q-4.6-.1-8-3.4Q.1 15.9.1 11.3t3.3-8Q6.7.2 11.3.2t7.9 3.3 3.4 7.9" vector-effect="non-scaling-stroke"/><path fill="#000" d="M8.9 9.6q.9 1 .9 2.4t-1 2.3-2.4 1-2.3-1-1-2.4 1-2.3 2.4-1 2.3 1"/></g><g id="am" transform="translate(10.7 10.85)"><use xlink:href="#a" width="5.9" height="7.3" transform="translate(-7.6 3.45)"/><use xlink:href="#b" width="21.2" height="19.4" transform="translate(-10.6 -10.75)"/><use xlink:href="#c" width="18" height="18.1" transform="translate(-9.2 -9.4)"/><use xlink:href="#d" width="21.4" height="19.6" transform="translate(-10.7 -10.85)"/></g><g id="al"><path fill="#e8ecea" d="M1 5.7q-1-1-1-2.4T1.2.9q1-1 2.4-.9T6 1.1t.9 2.5T5.8 6t-2.5.9T1 5.7"/><path fill="none" stroke="#647b77" stroke-linecap="round" stroke-linejoin="round" stroke-width="__RESOLUTION__" d="M1 5.7q-1-1-1-2.4T1.2.9q1-1 2.4-.9T6 1.1t.9 2.5T5.8 6t-2.5.9T1 5.7" vector-effect="non-scaling-stroke"/><path fill="#000" d="M1.5 3 1 2.6q0-.4.3-.9l.8-.6H3q.3.1.3.5l-.2.8-.9.7z"/></g><g id="ak" transform="translate(4.8 11)"><use xlink:href="#e" width="9.3" height="21.8" transform="translate(-4.7 -10.9)"/><use xlink:href="#f" width="7.7" height="16.4" transform="translate(-4.6 -5.75)"/><use xlink:href="#g" width="9.6" height="21.9" transform="translate(-4.8 -11)"/></g><g id="aj" transform="translate(4.25 4.4)"><use xlink:href="#h" width="8.5" height="8.7" transform="translate(-4.25 -4.35)"/><use xlink:href="#i" width="3.5" height="4.3" transform="translate(-1.7 -2.8)"/><use xlink:href="#j" width="8.2" height="8.8" transform="translate(-4.2 -4.4)"/></g><g id="ai" transform="translate(.65 8.65)"><use xlink:href="#k" width="1.9" height="2.9" transform="translate(4.35 -8.65)"/><use xlink:href="#l" width="12.3" height="11.7" transform="translate(-.55 -6.9)"/><use xlink:href="#m" width="3.1" height="7.8" transform="translate(8.6 -2.95)"/><use xlink:href="#n" width="12.5" height="11.9" transform="translate(-.65 -7)"/></g><g id="ah" transform="translate(7.75 7.35)"><use xlink:href="#o" width="15.3" height="14.4" transform="translate(-7.65 -7.25)"/><use xlink:href="#p" width="15.6" height="14.7" transform="translate(-7.75 -7.35)"/><use xlink:href="#q" width="13" height="10.6" transform="translate(-5.7 -3.65)"/><use xlink:href="#r" width="13.8" height="9.8" transform="translate(-6.35 -2.55)"/></g><g id="ag" transform="translate(.65 8.65)"><use xlink:href="#s" width="1.9" height="2.9" transform="translate(4.35 -8.65)"/><use xlink:href="#M" width="12.3" height="11.7" transform="translate(-.55 -6.9)"/><use xlink:href="#N" width="3.1" height="7.8" transform="translate(8.6 -2.95)"/><use xlink:href="#O" width="12.5" height="11.9" transform="translate(-.65 -7)"/></g><g id="af" transform="translate(8.05 11.6)"><use xlink:href="#P" width=".1" height=".1" transform="translate(3.55 -8.15)"/><use xlink:href="#Q" width="15.7" height="22.9" transform="translate(-7.65 -11.5)"/><use xlink:href="#R" width="14.7" height="19.1" transform="translate(-6.65 -11.5)"/><use xlink:href="#S" width="15.8" height="23.1" transform="translate(-7.75 -11.6)"/><use xlink:href="#T" width="4.5" height="4.6" transform="translate(-8.05 1.85)"/><use xlink:href="#T" width="4.5" height="4.6" transform="translate(-6.3 -3.4)scale(.7407)"/><use xlink:href="#T" width="4.5" height="4.6" transform="rotate(44.84 7.74 -4.96)scale(.4881)"/></g><g id="ac" transform="translate(4.4 7.1)"><use xlink:href="#U" width=".6" height="2.5" transform="translate(-4.4 4.4)"/><use xlink:href="#W" width="8.6" height="14.1" transform="translate(-4.3 -7.05)"/><use xlink:href="#X" width="6.8" height="14.1" transform="translate(-2.25 -7.1)"/></g><g id="ab" transform="translate(8.15 3.25)"><use xlink:href="#Y" width="3.9" height="4.1" transform="translate(-8.15 -1.25)"/><use xlink:href="#Z" width="15.3" height="6.3" transform="translate(-7.25 -3.15)"/><use xlink:href="#aa" width="15.7" height="6.5" transform="translate(-7.5 -3.25)"/></g><g id="aM" transform="translate(33.1 55.25)"><use xlink:href="#ab" width="16.4" height="6.5" transform="matrix(-.9892 .149 .2285 .9746 7.85 -9.25)"/><use xlink:href="#ac" width="8.9" height="14.2" transform="matrix(-.9736 .2213 .2213 .9736 -2.8 -19.85)"/><use xlink:href="#ab" width="16.4" height="6.5" transform="matrix(-.9954 -.0484 -.0097 1 6.7 -1)"/><use xlink:href="#ac" width="8.9" height="14.2" transform="matrix(-.9715 .2338 .2038 .9787 -5.3 -13.95)"/><use xlink:href="#ad" width="8.2" height="4.2" transform="matrix(-.7223 .6884 .6884 .7223 -10.25 -17.6)"/><use xlink:href="#ae" width="8" height="4" transform="matrix(-.7223 .6884 .6884 .7223 -10.25 -17.5)"/><use xlink:href="#ad" width="8.2" height="4.2" transform="matrix(-.697 .3605 .4588 .887 -5.05 -19.9)"/><use xlink:href="#ae" width="8" height="4" transform="matrix(-.697 .3605 .4588 .887 -5.1 -19.75)"/><use xlink:href="#af" width="16.1" height="23.1" transform="matrix(-.9224 .3832 .3832 .9224 -18.2 -44.9)"/><use xlink:href="#ag" width="12.5" height="13.6" transform="matrix(-.1208 -.6859 -.8143 .1435 .3 -24.95)"/><use xlink:href="#ah" width="15.6" height="14.7" transform="matrix(-.9079 .4152 .4152 .9079 -2.85 -31)"/><use xlink:href="#ai" width="12.5" height="13.6" transform="matrix(-.595 -.5119 -.685 .7253 -.6 -25.05)"/><use xlink:href="#aj" width="8.5" height="8.8" transform="matrix(-1 0 0 1 6.8 -26.4)"/><use xlink:href="#ak" width="9.6" height="21.9" transform="matrix(-.9787 -.1994 -.1994 .9787 12.75 -40.55)"/><use xlink:href="#al" width="6.9" height="6.9" transform="matrix(-1 0 0 1 15.55 -50.1)"/><use xlink:href="#am" width="21.4" height="21.6" transform="matrix(-1 0 0 1 18.8 -55.25)"/><use xlink:href="#an" width="22.6" height="22.6" transform="matrix(.3268 -.2296 -.2296 -.3268 5.75 -37.75)"/><use xlink:href="#ao" width="8.4" height="7.8" transform="matrix(-1 0 0 1 10.85 -47.35)"/><use xlink:href="#ap" width="17.5" height="21.3" transform="matrix(-1 0 0 1 -6.05 -35.4)"/><use xlink:href="#aq" width="5.8" height="2.4" transform="matrix(1.45 0 0 1 2.65 -41.2)"/></g><path id="as" fill="#473218" d="m9-8.3-.8 6.6-2.8 2.9L4.7-6l-2-1.2L7.6-9zM-8.6 9-9 6.1V6l.3-1.5 3.4-2.9-1 4.3.8 2.6z" transform="translate(9 9.05)"/><path id="at" fill="#b3c07a" d="M10.6-8.5q0 2.4-1.2 6L4.7 2.4l-.1.1v.1l1.7 4.8-6-.6v1.5l-9.1 1.4-.3-3-1.5-2.2.6-2.3 1.8-.1.8-.1.5-.1 1.1-.8 1.3-2.4 3.3-2.2L.9-5.8l9.7-3.9zm-13.3 13" transform="translate(10.6 9.7)"/><path id="au" fill="#473218" d="M1.4-6.5v-1.2l1.4-.5 1 .5L3-4.8l-.8.2L1-5.5zM1.2.2.5-.2h-1.6l1-2.4v-.1l2.2.7zm-4.4 4.2.7-1.5 2 .2L.6 5.6l-4.4 2.7z" transform="translate(3.85 8.2)"/><path id="av" fill="#b0bf7a" d="m.4 3.4.9 3.9-6 3.6.6-3.9L.5-3.9l.3-7 3.9.4z" transform="translate(4.7 10.9)"/><path id="aw" fill="#3f2c15" d="m-.7-2.1 2 1.4q.8.7.2 1.7-.4 1-1.7 1l-.2-.6L-1.7.3-.5-1z" transform="translate(1.7 2.15)"/><path id="ax" fill="#9ead76" d="m0 1.4-4-3.8q-.6-2.2 1.5-1.9Q-.1-1.7 3.9.3q1 1.6-.5 2.2-1.5 0-2.5 1.8z" transform="translate(4.25 4.35)"/><path id="ay" fill="#734731" d="M1-1.4q.8 2.7.5 5.3Q0 .2-1.5-.2l.9-1.1.5-2.5 1 2z" transform="translate(1.55 3.85)"/><path id="az" fill="#adbf7a" d="m.7-5.5-.1-.2.6.4Q4.4-2.8 5.4.1v.4q.9 2.7.6 5.3Q3-1.4.3 4q-1.5-2.2-3.8-2.6h-2.6V.2q.6-2.3 1.5-.3 3.4-1.4 2.8-5l.7-.7q-.2.5 0 .8t.9.3l.9-.2z" transform="translate(6.15 5.85)"/><path id="aA" fill="#734731" d="M6.5-3.3Q5.8-.1 3.9 3.2l-.3-4.5-1.8-3-2.8-.8 4.9-.1zM.5-.7l.8 4.4-1.8 1.6-3.9-1.1 2.9-1zm-2 .7-2.9-2.6h-2.1l2.4-1.7 2 1z" transform="translate(6.5 5.25)"/><path id="aB" fill="#adbf7a" d="M7.5-2.5q-1 4.8-4.3 9.7Q-2 7-6 4.5l-1.6-2.4.9-2.3 9.4-7 5 2.5z" transform="translate(7.65 7.25)"/><path id="aC" fill="#5a4d30" d="M1-1.4q.8 2.7.5 5.3Q0 .2-1.5-.2l.9-1.1.5-2.5 1 2z" transform="translate(1.55 3.85)"/><path id="aD" fill="#717d4d" d="m.7-5.5-.1-.2.6.4Q4.4-2.8 5.4.1v.4q.9 2.7.6 5.3Q3-1.4.3 4q-1.5-2.2-3.8-2.6h-2.6V.2q.6-2.3 1.5-.3 3.4-1.4 2.8-5l.7-.7q-.2.5 0 .8t.9.3l.9-.2z" transform="translate(6.15 5.85)"/><path id="aE" fill="#734731" d="M7.1-6.6Q5.9-3.3 3.3-.2v-.1l-.3-4L4.3-6 3-6.1v-.1L1.2-9.6h.1q4-.2 5.9 2.1v.1zM.6-3.5v1.2L-1.7-.5l-1-1-.9-.3L-.3-4zM-4 3.3l1.9-.5v6.8l-5.2-1.2L-5.8 3z" transform="translate(7.35 9.55)"/><path id="aF" fill="#b0bf7a" d="M7.6-8.5Q6.4-5.2 3.8-2.1l-.3-4-5.1 4v12.5q-3.4 2.4-6.2-.6l3.7-12.9 7.5-5-1.6-3.3q4.1-.3 6 2.2z" transform="translate(7.8 11.45)"/><path id="aG" fill="#c90" d="M2.6-2 4 .5 1.8 2 .1.9h-3.8L-4-.6.3-.7z" transform="translate(4 2)"/><path id="aH" fill="#f8bf01" d="M4.3-5.5Q.2 2.3-.3 4.3T-2.1 7L-4 6.8q-.4-.6-.4-2.2 4.1-5.5 7-11 2-1.6 1.5.9" transform="translate(4.3 7)"/><path id="aI" fill="#f7bc02" d="M5.6-1.5v.2l2 3.9-1.2.5-4.3-.8-6.3.9-.5-.3-.8-3.2-1.1-1L-7.7.2-6.5-2 .9-3.1l2.6.3z" transform="translate(7.7 3.15)"/><path id="j" fill="none" stroke="#000" stroke-linecap="round" stroke-linejoin="round" stroke-opacity=".4" stroke-width="__RESOLUTION__" d="M-4.1-2.4 0 1.4l.9 3q1-1.9 2.5-2m.5-2q-4-2.1-6.5-4.7" transform="translate(4.2 4.4)" vector-effect="non-scaling-stroke"/><path id="r" fill="#000" fill-opacity=".3" d="M-6.3 4 3 1.7l4.5-4.2q-1 4.8-4.3 9.7Q-2 7-6 4.5z" transform="translate(6.35 2.55)"/><path id="p" fill="none" stroke="#000" stroke-linecap="round" stroke-linejoin="round" stroke-opacity=".4" stroke-width="__RESOLUTION__" d="m7.7-4.7-.2 2.2q-1 4.8-4.3 9.7Q-2 7-6 4.5l-1.6-2.4.9-2.3 9.4-7" transform="translate(7.75 7.35)" vector-effect="non-scaling-stroke"/><path id="P" fill="#9ead76" d="M3.6-8.1" transform="translate(-3.55 8.15)"/><path id="U" fill="none" stroke="#6b4b01" stroke-linecap="round" stroke-linejoin="round" stroke-width="__RESOLUTION__" d="M-4 6.8q-.3-.7-.3-2.3" transform="translate(4.4 -4.4)" vector-effect="non-scaling-stroke"/><path id="ao" fill="#000" fill-opacity=".3" d="m3.9-6.2.2.1q1.3 1.4 1.3 3.2T4 .3 1 1.5-2.2.2L-3-1l.5.1q2.4.4 4.3-.6Q3-2.1 3.5-3l.6-1.3q.2-1-.2-2" transform="translate(3.05 6.25)"/><path id="ad" fill="none" stroke="#000" stroke-linecap="round" stroke-linejoin="round" stroke-opacity=".4" stroke-width="__RESOLUTION__" d="m.1-.5 5.3-.3M6.7-2 8.1.5 5.9 2 4.2.9H.4m5.4 0H4.2" transform="translate(0 2.1)" vector-effect="non-scaling-stroke"/><use xlink:href="#arr" id="aJ" width="5.8" height="2.4"/><use xlink:href="#as" id="c" width="18" height="18.1"/><use xlink:href="#at" id="b" width="21.2" height="19.4"/><use xlink:href="#au" id="f" width="7.7" height="16.4"/><use xlink:href="#av" id="e" width="9.3" height="21.8"/><use xlink:href="#aw" id="i" width="3.5" height="4.3"/><use xlink:href="#ax" id="h" width="8.5" height="8.7"/><use xlink:href="#ay" id="m" width="3.1" height="7.8"/><use xlink:href="#az" id="l" width="12.3" height="11.7"/><use xlink:href="#aA" id="q" width="13" height="10.6"/><use xlink:href="#aB" id="o" width="15.3" height="14.4"/><use xlink:href="#aC" id="N" width="3.1" height="7.8"/><use xlink:href="#aD" id="M" width="12.3" height="11.7"/><use xlink:href="#aE" id="R" width="14.7" height="19.1"/><use xlink:href="#aF" id="Q" width="15.7" height="22.9"/><use xlink:href="#aG" id="aK" width="8" height="4"/><use xlink:href="#aH" id="W" width="8.6" height="14.1"/><use xlink:href="#aI" id="Z" width="15.3" height="6.3"/><use xlink:href="#aJ" id="aq" width="5.8" height="2.4"/><use xlink:href="#aK" id="ae" width="8" height="4"/><clipPath id="aL"><path d="M1 1h52v61H1z"/></clipPath></defs><g clip-path="url(#aL)"><g transform="translate(1 1)"><use xlink:href="#aM" width="51.9" height="60.8"/><use xlink:href="#ab" width="16.4" height="6.5" transform="matrix(-.9892 .149 .2285 .9746 7.85 -9.25)"/><use xlink:href="#ac" width="8.9" height="14.2" transform="matrix(-.9736 .2213 .2213 .9736 -2.8 -19.85)"/><use xlink:href="#ab" width="16.4" height="6.5" transform="matrix(-.9954 -.0484 -.0097 1.0036 6.7 -1)"/><use xlink:href="#ac" width="8.9" height="14.2" transform="matrix(-.9715 .2338 .2038 .9787 -5.3 -13.95)"/><use xlink:href="#ad" width="8.2" height="4.2" transform="matrix(-.7223 .6884 .6884 .7223 -10.25 -17.6)"/><use xlink:href="#ae" width="8" height="4" transform="matrix(-.7223 .6884 .6884 .7223 -10.25 -17.5)"/><use xlink:href="#ad" width="8.2" height="4.2" transform="matrix(-.697 .3605 .4588 .887 -5.05 -19.9)"/><use xlink:href="#ae" width="8" height="4" transform="matrix(-.697 .3605 .4588 .887 -5.1 -19.75)"/><use xlink:href="#af" width="16.1" height="23.1" transform="matrix(-.9224 .3832 .3832 .9224 -18.2 -44.9)"/><use xlink:href="#ag" width="12.5" height="13.6" transform="matrix(-.1208 -.6859 -.8143 .1435 .3 -24.95)"/><use xlink:href="#ah" width="15.6" height="14.7" transform="matrix(-.9079 .4152 .4152 .9079 -2.85 -31)"/><use xlink:href="#ai" width="12.5" height="13.6" transform="matrix(-.595 -.5119 -.685 .7253 -.6 -25.05)"/><use xlink:href="#aj" width="8.5" height="8.8" transform="matrix(-1 0 0 1 6.8 -26.4)"/><use xlink:href="#ak" width="9.6" height="21.9" transform="matrix(-.9787 -.1994 -.1994 .9787 12.75 -40.55)"/><use xlink:href="#al" width="6.9" height="6.9" transform="matrix(-1 0 0 1 15.55 -50.1)"/><use xlink:href="#am" width="21.4" height="21.6" transform="matrix(-1 0 0 1 18.8 -55.25)"/><use xlink:href="#an" width="22.6" height="22.6" transform="matrix(.3268 -.2296 -.2296 -.3268 5.75 -37.75)"/><use xlink:href="#ao" width="8.4" height="7.8" transform="matrix(-1 0 0 1 10.85 -47.35)"/><use xlink:href="#ap" width="17.5" height="21.3" transform="matrix(-1 0 0 1 -6.05 -35.4)"/><use xlink:href="#aq" width="5.8" height="2.4" transform="matrix(1.4458 0 0 1 2.65 -41.2)"/><use xlink:href="#Y" width="3.9" height="4.1" transform="translate(-8.15 -1.25)"/><use xlink:href="#Z" width="15.3" height="6.3" transform="translate(-7.25 -3.15)"/><use xlink:href="#aa" width="15.7" height="6.5" transform="translate(-7.5 -3.25)"/><use xlink:href="#U" width=".6" height="2.5" transform="translate(-4.4 4.4)"/><use xlink:href="#W" width="8.6" height="14.1" transform="translate(-4.3 -7.05)"/><use xlink:href="#X" width="6.8" height="14.1" transform="translate(-2.25 -7.1)"/><use xlink:href="#Y" width="3.9" height="4.1" transform="translate(-8.15 -1.25)"/><use xlink:href="#Z" width="15.3" height="6.3" transform="translate(-7.25 -3.15)"/><use xlink:href="#aa" width="15.7" height="6.5" transform="translate(-7.5 -3.25)"/><use xlink:href="#U" width=".6" height="2.5" transform="translate(-4.4 4.4)"/><use xlink:href="#W" width="8.6" height="14.1" transform="translate(-4.3 -7.05)"/><use xlink:href="#X" width="6.8" height="14.1" transform="translate(-2.25 -7.1)"/><use xlink:href="#P" width=".1" height=".1" transform="translate(3.55 -8.15)"/><use xlink:href="#Q" width="15.7" height="22.9" transform="translate(-7.65 -11.5)"/><use xlink:href="#R" width="14.7" height="19.1" transform="translate(-6.65 -11.5)"/><use xlink:href="#S" width="15.8" height="23.1" transform="translate(-7.75 -11.6)"/><use xlink:href="#T" width="4.5" height="4.6" transform="translate(-8.05 1.85)"/><use xlink:href="#T" width="4.5" height="4.6" transform="translate(-6.3 -3.4)scale(.7407)"/><use xlink:href="#T" width="4.5" height="4.6" transform="rotate(44.842 7.737 -4.965)scale(.4881)"/><use xlink:href="#s" width="1.9" height="2.9" transform="translate(4.35 -8.65)"/><use xlink:href="#M" width="12.3" height="11.7" transform="translate(-.55 -6.9)"/><use xlink:href="#N" width="3.1" height="7.8" transform="translate(8.6 -2.95)"/><use xlink:href="#O" width="12.5" height="11.9" transform="translate(-.65 -7)"/><use xlink:href="#o" width="15.3" height="14.4" transform="translate(-7.65 -7.25)"/><use xlink:href="#p" width="15.6" height="14.7" transform="translate(-7.75 -7.35)"/><use xlink:href="#q" width="13" height="10.6" transform="translate(-5.7 -3.65)"/><use xlink:href="#r" width="13.8" height="9.8" transform="translate(-6.35 -2.55)"/><use xlink:href="#k" width="1.9" height="2.9" transform="translate(4.35 -8.65)"/><use xlink:href="#l" width="12.3" height="11.7" transform="translate(-.55 -6.9)"/><use xlink:href="#m" width="3.1" height="7.8" transform="translate(8.6 -2.95)"/><use xlink:href="#n" width="12.5" height="11.9" transform="translate(-.65 -7)"/><use xlink:href="#h" width="8.5" height="8.7" transform="translate(-4.25 -4.35)"/><use xlink:href="#i" width="3.5" height="4.3" transform="translate(-1.7 -2.8)"/><use xlink:href="#j" width="8.2" height="8.8" transform="translate(-4.2 -4.4)"/><use xlink:href="#e" width="9.3" height="21.8" transform="translate(-4.7 -10.9)"/><use xlink:href="#f" width="7.7" height="16.4" transform="translate(-4.6 -5.75)"/><use xlink:href="#g" width="9.6" height="21.9" transform="translate(-4.8 -11)"/><use xlink:href="#a" width="5.9" height="7.3" transform="translate(-7.6 3.45)"/><use xlink:href="#b" width="21.2" height="19.4" transform="translate(-10.6 -10.75)"/><use xlink:href="#c" width="18" height="18.1" transform="translate(-9.2 -9.4)"/><use xlink:href="#d" width="21.4" height="19.6" transform="translate(-10.7 -10.85)"/><use xlink:href="#aI" width="15.3" height="6.3"/><use xlink:href="#aH" width="8.6" height="14.1"/><use xlink:href="#aI" width="15.3" height="6.3"/><use xlink:href="#aH" width="8.6" height="14.1"/><use xlink:href="#aK" width="8" height="4"/><use xlink:href="#aG" width="8" height="4"/><use xlink:href="#aK" width="8" height="4"/><use xlink:href="#aG" width="8" height="4"/><use xlink:href="#aF" width="15.7" height="22.9"/><use xlink:href="#aE" width="14.7" height="19.1"/><use xlink:href="#aD" width="12.3" height="11.7"/><use xlink:href="#aC" width="3.1" height="7.8"/><use xlink:href="#aB" width="15.3" height="14.4"/><use xlink:href="#aA" width="13" height="10.6"/><use xlink:href="#az" width="12.3" height="11.7"/><use xlink:href="#ay" width="3.1" height="7.8"/><use xlink:href="#ax" width="8.5" height="8.7"/><use xlink:href="#aw" width="3.5" height="4.3"/><use xlink:href="#av" width="9.3" height="21.8"/><use xlink:href="#au" width="7.7" height="16.4"/><use xlink:href="#at" width="21.2" height="19.4"/><use xlink:href="#as" width="18" height="18.1"/><use xlink:href="#aJ" width="5.8" height="2.4"/><use xlink:href="#arr" width="5.8" height="2.4"/></g></g></svg>