<svg xmlns="http://www.w3.org/2000/svg" xmlns:xlink="http://www.w3.org/1999/xlink" width="1000" height="34" viewBox="0 0 1000 34"><defs><g id="aL"><path fill="#a5dac6" d="m2 2.7-.4.1V3L0 3.4 2 0z"/><path fill="none" stroke="#e3f3ed" stroke-linecap="round" stroke-linejoin="round" stroke-width="__RESOLUTION__" d="M2 0 0 3.4l1.5-.5h0l.4-.1.2-.1" vector-effect="non-scaling-stroke"/></g><g id="aQ"><path fill="#b4e0cf" d="m2 2.7-.4.1V3L0 3.4 2 0z"/><path fill="none" stroke="#e7f5f0" stroke-linecap="round" stroke-linejoin="round" stroke-width="__RESOLUTION__" d="M2 0 0 3.4l1.5-.5h0l.4-.1.2-.1" vector-effect="non-scaling-stroke"/></g><g id="aR"><path fill="#cfece1" d="m0 1 .3-1 3.8 2.8.5.7-2-.8L.8 1.5z"/><path fill="none" stroke="#e7f5f0" stroke-linecap="round" stroke-linejoin="round" stroke-width="__RESOLUTION__" d="m0 1 .8.6 1.9 1.1 1.8.8" vector-effect="non-scaling-stroke"/></g><g id="ba"><path fill="#c3e6d9" d="m2 2.7-.4.1V3L0 3.4 2 0z"/><path fill="none" stroke="#ecf7f3" stroke-linecap="round" stroke-linejoin="round" stroke-width="__RESOLUTION__" d="M2 0 0 3.4l1.5-.5h0l.4-.1.2-.1" vector-effect="non-scaling-stroke"/></g><g id="bb"><path fill="#d9efe7" d="m0 1 .3-1 3.8 2.8.5.7-2-.8L.8 1.5z"/><path fill="none" stroke="#ecf7f3" stroke-linecap="round" stroke-linejoin="round" stroke-width="__RESOLUTION__" d="m0 1 .8.6 1.9 1.1 1.8.8" vector-effect="non-scaling-stroke"/></g><g id="bg"><path fill="#d2ede3" d="m2 2.7-.4.1V3L0 3.4 2 0z"/><path fill="none" stroke="#f1f9f6" stroke-linecap="round" stroke-linejoin="round" stroke-width="__RESOLUTION__" d="M2 0 0 3.4l1.5-.5h0l.4-.1.2-.1" vector-effect="non-scaling-stroke"/></g><g id="bh"><path fill="#e3f4ed" d="m0 1 .3-1 3.8 2.8.5.7-2-.8L.8 1.5z"/><path fill="none" stroke="#f1f9f6" stroke-linecap="round" stroke-linejoin="round" stroke-width="__RESOLUTION__" d="m0 1 .8.6 1.9 1.1 1.8.8" vector-effect="non-scaling-stroke"/></g><g id="bq"><path fill="#e0f2eb" d="m2 2.7-.4.1V3L0 3.4 2 0z"/><path fill="none" stroke="#f5faf8" stroke-linecap="round" stroke-linejoin="round" stroke-width="__RESOLUTION__" d="M2 0 0 3.4l1.5-.5h0l.4-.1.2-.1" vector-effect="non-scaling-stroke"/></g><g id="br"><path fill="#ebf7f2" d="m0 1 .3-1 3.8 2.8.5.7-2-.8L.8 1.5z"/><path fill="none" stroke="#f5faf8" stroke-linecap="round" stroke-linejoin="round" stroke-width="__RESOLUTION__" d="m0 1 .8.6 1.9 1.1 1.8.8" vector-effect="non-scaling-stroke"/></g><g id="bz"><path fill="#eff8f5" d="m2 2.7-.4.1V3L0 3.4 2 0z"/><path fill="none" stroke="#fafcfb" stroke-linecap="round" stroke-linejoin="round" stroke-width="__RESOLUTION__" d="M2 0 0 3.4l1.5-.5h0l.4-.1.2-.1" vector-effect="non-scaling-stroke"/></g><g id="bA"><path fill="#f5faf8" d="m0 1 .3-1 3.8 2.8.5.7-2-.8L.8 1.5z"/><path fill="none" stroke="#fafcfb" stroke-linecap="round" stroke-linejoin="round" stroke-width="__RESOLUTION__" d="m0 1 .8.6 1.9 1.1 1.8.8" vector-effect="non-scaling-stroke"/></g><g id="bF"><path fill="#fff" d="m2 2.7-.4.1V3L0 3.4 2 0z"/><path fill="none" stroke="#fff" stroke-linecap="round" stroke-linejoin="round" stroke-width="__RESOLUTION__" d="M2 0 0 3.4l1.5-.5h0l.4-.1.2-.1" vector-effect="non-scaling-stroke"/></g><g id="bG"><path fill="#fff" d="m0 1 .3-1 3.8 2.8.5.7-2-.8L.8 1.5z"/><path fill="none" stroke="#fff" stroke-linecap="round" stroke-linejoin="round" stroke-width="__RESOLUTION__" d="m0 1 .8.6 1.9 1.1 1.8.8" vector-effect="non-scaling-stroke"/></g><g id="bR"><path fill="#a5dac6" d="M1.6 2.5 0 3.9.4 0z"/><path fill="none" stroke="#fcfff1" stroke-linecap="round" stroke-linejoin="round" stroke-width="__RESOLUTION__" d="M.4 0 0 3.9l1.6-1.4" vector-effect="non-scaling-stroke"/></g><g id="bS"><path fill="#c9e9dc" d="M.5 1.5.1.7 0 .6 4.6 0l.8.2q-.9.5-2.6.9L1 1.5z"/><path fill="none" stroke="#8dc7b5" stroke-linecap="round" stroke-linejoin="round" stroke-width="__RESOLUTION__" d="M.5 1.5h.4l2-.5Q4.5.6 5.4.1" vector-effect="non-scaling-stroke"/></g><g id="g"><path fill="#fff" fill-opacity=".4" d="M0 1.9v-.5L2.3.6l.3-.1Q4 0 5.1 0z"/><path fill="#fcfff1" d="m1.8 2-.5.3-1 .2.2-1L.6 1q.9 0 1.2 1"/></g><g id="c"><path fill="#000" fill-opacity=".3" d="m1.6 0 2.8 1.7 1.2 1.9-1.3 3.2.7 1.6-.2 1.3-1.4-.4L0 7.4l-.1-1Q0 5.7.6 5q1-1.5 1.6-3.1z"/><path fill="none" stroke="#000" stroke-linecap="round" stroke-linejoin="round" stroke-opacity=".4" stroke-width="__RESOLUTION__" d="m7.6 4.7.9-.9 1.5-1-2.5-1-.6-.8L5.8.7 4.5 1l-3-1 .7 1.9Q1.6 3.5.6 5 0 5.6 0 6.5v1M7.8 7l-.2 1 2.7.5-1.4-2.8-.3-1.9m-3 5.8.7-.7 1 .7.3-1.5" vector-effect="non-scaling-stroke"/></g><g id="a" fill="none" stroke-linecap="round" stroke-linejoin="round" stroke-width="1"><path stroke="#232330" stroke-opacity=".7" d="m9.3 3.3.7-.4-2.5-1.2-.6-.8L5.8.6l-1.3.5-3-1.1.7 1.9Q1.6 3.5.6 5 0 5.6 0 6.5v1m9-1.3.7 1.4m-2-.3-.1.8 2 .3m-4 1.2.7-.7 1 .7.3-1.5" vector-effect="non-scaling-stroke"/><path stroke="#5e6171" d="M6.8 4.2 9 3.4l.3-.1q1.5-.5 2.5-.5m0 0 .9.2q-1.4.5-3 2.4l-.6.8-.5.5m-1.9-2q0 .6.4 1.3" vector-effect="non-scaling-stroke"/></g><g id="bT"><path fill="#7d978e" d="m0 4.9 1.6-3.3L2.8 0 5 .8z"/><path fill="#b4e0cf" d="m5 .8 1.3 2 .4-.1q1.8.6 1.7 1.6l-2.6.6q1.8 1.3 1.8 2.4l-3-.1q1 1.5 1.1 2.6-1.4-.4-3-1.5L2 6.8l-2-2zM4 5.1h.7l1.2-.2-1.2.1zM4 6l.8 1.2z"/><path fill="none" stroke="#2b2b2b" stroke-linecap="round" stroke-linejoin="round" stroke-opacity=".4" stroke-width="__RESOLUTION__" d="m0 4.9 1.6-3.3L2.8 0 5 .8" vector-effect="non-scaling-stroke"/><path fill="none" stroke="#5c5e66" stroke-linecap="round" stroke-linejoin="round" stroke-width="__RESOLUTION__" d="m5 .8 1.3 2" vector-effect="non-scaling-stroke"/><path fill="none" stroke="#57857b" stroke-linecap="round" stroke-linejoin="round" stroke-width="__RESOLUTION__" d="M6.7 2.7q1.9.7 1.7 1.6l-2.6.6q1.8 1.3 1.9 2.4l-3-.1q.9 1.6 1 2.7-1.4-.4-3-1.5m3.1-3.5-1.2.2h-.7m.7 2.1L3.9 6" vector-effect="non-scaling-stroke"/></g><g id="bW"><path fill="#fcfff3" d="M3.7 1.8q.3.6-1.3.8Q1.8 1 2.7 1q.8-.1 1 .8"/><path fill="#e7f5f0" d="M3 2.9.8 2.6v-.8l1.9-.6q.8.5.3 1.7"/><path fill="#fcfff3" d="M4 1.5q.9.2.6 1.2l-1.7.2q.1-1.6 1-1.4"/><path fill="none" stroke="#cfece1" stroke-linecap="round" stroke-linejoin="round" stroke-width="__RESOLUTION__" d="m2.9 2.9 1.7-.2q.3-1-.6-1.2" vector-effect="non-scaling-stroke"/><path fill="#e7f5f0" d="m1.7 1.9-1 .5L0 0h1z"/></g><g id="bX"><path fill="#55635e" d="m0 4.9 1.6-3.3L2.8 0 5 .8z"/><path fill="#728980" d="m5 .8 1.3 2 .4-.1q1.8.6 1.7 1.6l-2.6.6q1.8 1.3 1.8 2.4l-3-.1q1 1.5 1.1 2.6-1.4-.4-3-1.5L2 6.8l-2-2zM4 5.1h.7l1.2-.2-1.2.1zM4 6l.8 1.2z"/><path fill="none" stroke="#2b2b2b" stroke-linecap="round" stroke-linejoin="round" stroke-opacity=".4" stroke-width="__RESOLUTION__" d="m0 4.9 1.6-3.3L2.8 0 5 .8" vector-effect="non-scaling-stroke"/><path fill="none" stroke="#45454a" stroke-linecap="round" stroke-linejoin="round" stroke-width="__RESOLUTION__" d="m5 .8 1.3 2" vector-effect="non-scaling-stroke"/><path fill="none" stroke="#425a55" stroke-linecap="round" stroke-linejoin="round" stroke-width="__RESOLUTION__" d="M6.7 2.7q1.9.7 1.7 1.6l-2.6.6q1.8 1.3 1.9 2.4l-3-.1q.9 1.6 1 2.7-1.4-.4-3-1.5m3.1-3.5-1.2.2h-.7m.7 2.1L3.9 6" vector-effect="non-scaling-stroke"/></g><g id="j"><path fill="#2b2b2b" fill-opacity=".3" d="M7.4 1.2q1 1.6 1.6 4-.5 3.7-2.6 5.7l-4 .5L4 5.8q.9-3.2 3.4-4.6"/><path fill="none" stroke="#57857b" stroke-linecap="round" stroke-linejoin="round" stroke-width="__RESOLUTION__" d="M7.4 1.2q1 1.6 1.6 4-.5 3.7-2.6 5.7m1-9.7Q5.7 0 4.2 0 .9 1.9.2 4.7q-.6 2.8.5 6" vector-effect="non-scaling-stroke"/></g><g id="q"><path fill="#fff" fill-opacity=".4" d="M0 1.9v-.5L2.3.6l.3-.1Q4 0 5.1 0z"/><path fill="#fcfff3" d="m1.8 2-.5.3-1 .2.2-1L.6 1q.9 0 1.2 1"/></g><g id="m"><path fill="#2b2b2b" fill-opacity=".3" d="m1.6 0 2.8 1.7 1.2 1.9-1.3 3.2.7 1.6-.2 1.3-1.4-.4L0 7.4l-.1-1Q0 5.7.6 5q1-1.5 1.6-3.1z"/><path fill="none" stroke="#2b2b2b" stroke-linecap="round" stroke-linejoin="round" stroke-opacity=".4" stroke-width="__RESOLUTION__" d="m7.6 4.7.9-.9 1.5-1-2.5-1-.6-.8L5.8.7 4.5 1l-3-1 .7 1.9Q1.6 3.5.6 5 0 5.6 0 6.5v1M7.8 7l-.2 1 2.7.5-1.4-2.8-.3-1.9m-3 5.8.7-.7 1 .7.3-1.5" vector-effect="non-scaling-stroke"/></g><g id="k" fill="none" stroke-linecap="round" stroke-linejoin="round" stroke-width="1"><path stroke="#484852" stroke-opacity=".7" d="m9.3 3.3.7-.4-2.5-1.2-.6-.8L5.8.6l-1.3.5-3-1.1.7 1.9Q1.6 3.5.6 5 0 5.6 0 6.5v1m9-1.3.7 1.4m-2-.3-.1.8 2 .3m-4 1.2.7-.7 1 .7.3-1.5" vector-effect="non-scaling-stroke"/><path stroke="#797b89" d="M6.8 4.2 9 3.4l.3-.1q1.5-.5 2.5-.5m0 0 .9.2q-1.4.5-3 2.4l-.6.8-.5.5m-1.9-2q0 .6.4 1.3" vector-effect="non-scaling-stroke"/></g><g id="bY"><path fill="#97aca4" d="m0 4.9 1.6-3.3L2.8 0 5 .8z"/><path fill="#c3e6d9" d="m5 .8 1.3 2 .4-.1q1.8.6 1.7 1.6l-2.6.6q1.8 1.3 1.8 2.4l-3-.1q1 1.5 1.1 2.6-1.4-.4-3-1.5L2 6.8l-2-2zM4 5.1h.7l1.2-.2-1.2.1zM4 6l.8 1.2z"/><path fill="none" stroke="#555" stroke-linecap="round" stroke-linejoin="round" stroke-opacity=".4" stroke-width="__RESOLUTION__" d="m0 4.9 1.6-3.3L2.8 0 5 .8" vector-effect="non-scaling-stroke"/><path fill="none" stroke="#7d7e85" stroke-linecap="round" stroke-linejoin="round" stroke-width="__RESOLUTION__" d="m5 .8 1.3 2" vector-effect="non-scaling-stroke"/><path fill="none" stroke="#799d95" stroke-linecap="round" stroke-linejoin="round" stroke-width="__RESOLUTION__" d="M6.7 2.7q1.9.7 1.7 1.6l-2.6.6q1.8 1.3 1.9 2.4l-3-.1q.9 1.6 1 2.7-1.4-.4-3-1.5m3.1-3.5-1.2.2h-.7m.7 2.1L3.9 6" vector-effect="non-scaling-stroke"/></g><g id="ca"><path fill="#fdfff5" d="M3.7 1.8q.3.6-1.3.8Q1.8 1 2.7 1q.8-.1 1 .8"/><path fill="#ecf7f3" d="M3 2.9.8 2.6v-.8l1.9-.6q.8.5.3 1.7"/><path fill="#fdfff5" d="M4 1.5q.9.2.6 1.2l-1.7.2q.1-1.6 1-1.4"/><path fill="none" stroke="#d9efe7" stroke-linecap="round" stroke-linejoin="round" stroke-width="__RESOLUTION__" d="m2.9 2.9 1.7-.2q.3-1-.6-1.2" vector-effect="non-scaling-stroke"/><path fill="#ecf7f3" d="m1.7 1.9-1 .5L0 0h1z"/></g><g id="cb"><path fill="#77827e" d="m0 4.9 1.6-3.3L2.8 0 5 .8z"/><path fill="#8ea099" d="m5 .8 1.3 2 .4-.1q1.8.6 1.7 1.6l-2.6.6q1.8 1.3 1.8 2.4l-3-.1q1 1.5 1.1 2.6-1.4-.4-3-1.5L2 6.8l-2-2zM4 5.1h.7l1.2-.2-1.2.1zM4 6l.8 1.2z"/><path fill="none" stroke="#555" stroke-linecap="round" stroke-linejoin="round" stroke-opacity=".4" stroke-width="__RESOLUTION__" d="m0 4.9 1.6-3.3L2.8 0 5 .8" vector-effect="non-scaling-stroke"/><path fill="none" stroke="#696a6e" stroke-linecap="round" stroke-linejoin="round" stroke-width="__RESOLUTION__" d="m5 .8 1.3 2" vector-effect="non-scaling-stroke"/><path fill="none" stroke="#677a76" stroke-linecap="round" stroke-linejoin="round" stroke-width="__RESOLUTION__" d="M6.7 2.7q1.9.7 1.7 1.6l-2.6.6q1.8 1.3 1.9 2.4l-3-.1q.9 1.6 1 2.7-1.4-.4-3-1.5m3.1-3.5-1.2.2h-.7m.7 2.1L3.9 6" vector-effect="non-scaling-stroke"/></g><g id="t"><path fill="#555" fill-opacity=".3" d="M7.4 1.2q1 1.6 1.6 4-.5 3.7-2.6 5.7l-4 .5L4 5.8q.9-3.2 3.4-4.6"/><path fill="none" stroke="#799d95" stroke-linecap="round" stroke-linejoin="round" stroke-width="__RESOLUTION__" d="M7.4 1.2q1 1.6 1.6 4-.5 3.7-2.6 5.7m1-9.7Q5.7 0 4.2 0 .9 1.9.2 4.7q-.6 2.8.5 6" vector-effect="non-scaling-stroke"/></g><g id="A"><path fill="#fff" fill-opacity=".4" d="M0 1.9v-.5L2.3.6l.3-.1Q4 0 5.1 0z"/><path fill="#fdfff5" d="m1.8 2-.5.3-1 .2.2-1L.6 1q.9 0 1.2 1"/></g><g id="w"><path fill="#555" fill-opacity=".3" d="m1.6 0 2.8 1.7 1.2 1.9-1.3 3.2.7 1.6-.2 1.3-1.4-.4L0 7.4l-.1-1Q0 5.7.6 5q1-1.5 1.6-3.1z"/><path fill="none" stroke="#555" stroke-linecap="round" stroke-linejoin="round" stroke-opacity=".4" stroke-width="__RESOLUTION__" d="m7.6 4.7.9-.9 1.5-1-2.5-1-.6-.8L5.8.7 4.5 1l-3-1 .7 1.9Q1.6 3.5.6 5 0 5.6 0 6.5v1M7.8 7l-.2 1 2.7.5-1.4-2.8-.3-1.9m-3 5.8.7-.7 1 .7.3-1.5" vector-effect="non-scaling-stroke"/></g><g id="u" fill="none" stroke-linecap="round" stroke-linejoin="round" stroke-width="1"><path stroke="#6c6c75" stroke-opacity=".7" d="m9.3 3.3.7-.4-2.5-1.2-.6-.8L5.8.6l-1.3.5-3-1.1.7 1.9Q1.6 3.5.6 5 0 5.6 0 6.5v1m9-1.3.7 1.4m-2-.3-.1.8 2 .3m-4 1.2.7-.7 1 .7.3-1.5" vector-effect="non-scaling-stroke"/><path stroke="#9395a0" d="M6.8 4.2 9 3.4l.3-.1q1.5-.5 2.5-.5m0 0 .9.2q-1.4.5-3 2.4l-.6.8-.5.5m-1.9-2q0 .6.4 1.3" vector-effect="non-scaling-stroke"/></g><g id="cc"><path fill="#b1c1bb" d="m0 4.9 1.6-3.3L2.8 0 5 .8z"/><path fill="#d2ede3" d="m5 .8 1.3 2 .4-.1q1.8.6 1.7 1.6l-2.6.6q1.8 1.3 1.8 2.4l-3-.1q1 1.5 1.1 2.6-1.4-.4-3-1.5L2 6.8l-2-2zM4 5.1h.7l1.2-.2-1.2.1zM4 6l.8 1.2z"/><path fill="none" stroke="gray" stroke-linecap="round" stroke-linejoin="round" stroke-opacity=".4" stroke-width="__RESOLUTION__" d="m0 4.9 1.6-3.3L2.8 0 5 .8" vector-effect="non-scaling-stroke"/><path fill="none" stroke="#9e9fa4" stroke-linecap="round" stroke-linejoin="round" stroke-width="__RESOLUTION__" d="m5 .8 1.3 2" vector-effect="non-scaling-stroke"/><path fill="none" stroke="#9bb6b0" stroke-linecap="round" stroke-linejoin="round" stroke-width="__RESOLUTION__" d="M6.7 2.7q1.9.7 1.7 1.6l-2.6.6q1.8 1.3 1.9 2.4l-3-.1q.9 1.6 1 2.7-1.4-.4-3-1.5m3.1-3.5-1.2.2h-.7m.7 2.1L3.9 6" vector-effect="non-scaling-stroke"/></g><g id="ce"><path fill="#fefff8" d="M3.7 1.8q.3.6-1.3.8Q1.8 1 2.7 1q.8-.1 1 .8"/><path fill="#f1f9f6" d="M3 2.9.8 2.6v-.8l1.9-.6q.8.5.3 1.7"/><path fill="#fefff8" d="M4 1.5q.9.2.6 1.2l-1.7.2q.1-1.6 1-1.4"/><path fill="none" stroke="#e3f4ed" stroke-linecap="round" stroke-linejoin="round" stroke-width="__RESOLUTION__" d="m2.9 2.9 1.7-.2q.3-1-.6-1.2" vector-effect="non-scaling-stroke"/><path fill="#f1f9f6" d="m1.7 1.9-1 .5L0 0h1z"/></g><g id="cf"><path fill="#99a29f" d="m0 4.9 1.6-3.3L2.8 0 5 .8z"/><path fill="#abb9b3" d="m5 .8 1.3 2 .4-.1q1.8.6 1.7 1.6l-2.6.6q1.8 1.3 1.8 2.4l-3-.1q1 1.5 1.1 2.6-1.4-.4-3-1.5L2 6.8l-2-2zM4 5.1h.7l1.2-.2-1.2.1zM4 6l.8 1.2z"/><path fill="none" stroke="gray" stroke-linecap="round" stroke-linejoin="round" stroke-opacity=".4" stroke-width="__RESOLUTION__" d="m0 4.9 1.6-3.3L2.8 0 5 .8" vector-effect="non-scaling-stroke"/><path fill="none" stroke="#8f9092" stroke-linecap="round" stroke-linejoin="round" stroke-width="__RESOLUTION__" d="m5 .8 1.3 2" vector-effect="non-scaling-stroke"/><path fill="none" stroke="#8e9c99" stroke-linecap="round" stroke-linejoin="round" stroke-width="__RESOLUTION__" d="M6.7 2.7q1.9.7 1.7 1.6l-2.6.6q1.8 1.3 1.9 2.4l-3-.1q.9 1.6 1 2.7-1.4-.4-3-1.5m3.1-3.5-1.2.2h-.7m.7 2.1L3.9 6" vector-effect="non-scaling-stroke"/></g><g id="D"><path fill="gray" fill-opacity=".3" d="M7.4 1.2q1 1.6 1.6 4-.5 3.7-2.6 5.7l-4 .5L4 5.8q.9-3.2 3.4-4.6"/><path fill="none" stroke="#9bb6b0" stroke-linecap="round" stroke-linejoin="round" stroke-width="__RESOLUTION__" d="M7.4 1.2q1 1.6 1.6 4-.5 3.7-2.6 5.7m1-9.7Q5.7 0 4.2 0 .9 1.9.2 4.7q-.6 2.8.5 6" vector-effect="non-scaling-stroke"/></g><g id="K"><path fill="#fff" fill-opacity=".4" d="M0 1.9v-.5L2.3.6l.3-.1Q4 0 5.1 0z"/><path fill="#fefff8" d="m1.8 2-.5.3-1 .2.2-1L.6 1q.9 0 1.2 1"/></g><g id="G"><path fill="gray" fill-opacity=".3" d="m1.6 0 2.8 1.7 1.2 1.9-1.3 3.2.7 1.6-.2 1.3-1.4-.4L0 7.4l-.1-1Q0 5.7.6 5q1-1.5 1.6-3.1z"/><path fill="none" stroke="gray" stroke-linecap="round" stroke-linejoin="round" stroke-opacity=".4" stroke-width="__RESOLUTION__" d="m7.6 4.7.9-.9 1.5-1-2.5-1-.6-.8L5.8.7 4.5 1l-3-1 .7 1.9Q1.6 3.5.6 5 0 5.6 0 6.5v1M7.8 7l-.2 1 2.7.5-1.4-2.8-.3-1.9m-3 5.8.7-.7 1 .7.3-1.5" vector-effect="non-scaling-stroke"/></g><g id="E" fill="none" stroke-linecap="round" stroke-linejoin="round" stroke-width="1"><path stroke="#919198" stroke-opacity=".7" d="m9.3 3.3.7-.4-2.5-1.2-.6-.8L5.8.6l-1.3.5-3-1.1.7 1.9Q1.6 3.5.6 5 0 5.6 0 6.5v1m9-1.3.7 1.4m-2-.3-.1.8 2 .3m-4 1.2.7-.7 1 .7.3-1.5" vector-effect="non-scaling-stroke"/><path stroke="#afb0b8" d="M6.8 4.2 9 3.4l.3-.1q1.5-.5 2.5-.5m0 0 .9.2q-1.4.5-3 2.4l-.6.8-.5.5m-1.9-2q0 .6.4 1.3" vector-effect="non-scaling-stroke"/></g><g id="cg"><path fill="#cad5d1" d="m0 4.9 1.6-3.3L2.8 0 5 .8z"/><path fill="#e0f2eb" d="m5 .8 1.3 2 .4-.1q1.8.6 1.7 1.6l-2.6.6q1.8 1.3 1.8 2.4l-3-.1q1 1.5 1.1 2.6-1.4-.4-3-1.5L2 6.8l-2-2zM4 5.1h.7l1.2-.2-1.2.1zM4 6l.8 1.2z"/><path fill="none" stroke="#aaa" stroke-linecap="round" stroke-linejoin="round" stroke-opacity=".4" stroke-width="__RESOLUTION__" d="m0 4.9 1.6-3.3L2.8 0 5 .8" vector-effect="non-scaling-stroke"/><path fill="none" stroke="#bdbec1" stroke-linecap="round" stroke-linejoin="round" stroke-width="__RESOLUTION__" d="m5 .8 1.3 2" vector-effect="non-scaling-stroke"/><path fill="none" stroke="#bbceca" stroke-linecap="round" stroke-linejoin="round" stroke-width="__RESOLUTION__" d="M6.7 2.7q1.9.7 1.7 1.6l-2.6.6q1.8 1.3 1.9 2.4l-3-.1q.9 1.6 1 2.7-1.4-.4-3-1.5m3.1-3.5-1.2.2h-.7m.7 2.1L3.9 6" vector-effect="non-scaling-stroke"/></g><g id="ci"><path fill="#fdfefa" d="M3.7 1.8q.3.6-1.3.8Q1.8 1 2.7 1q.8-.1 1 .8"/><path fill="#f5faf8" d="M3 2.9.8 2.6v-.8l1.9-.6q.8.5.3 1.7"/><path fill="#fdfefa" d="M4 1.5q.9.2.6 1.2l-1.7.2q.1-1.6 1-1.4"/><path fill="none" stroke="#ebf7f2" stroke-linecap="round" stroke-linejoin="round" stroke-width="__RESOLUTION__" d="m2.9 2.9 1.7-.2q.3-1-.6-1.2" vector-effect="non-scaling-stroke"/><path fill="#f5faf8" d="m1.7 1.9-1 .5L0 0h1z"/></g><g id="cj"><path fill="#bbc0be" d="m0 4.9 1.6-3.3L2.8 0 5 .8z"/><path fill="#c6cfcc" d="m5 .8 1.3 2 .4-.1q1.8.6 1.7 1.6l-2.6.6q1.8 1.3 1.8 2.4l-3-.1q1 1.5 1.1 2.6-1.4-.4-3-1.5L2 6.8l-2-2zM4 5.1h.7l1.2-.2-1.2.1zM4 6l.8 1.2z"/><path fill="none" stroke="#aaa" stroke-linecap="round" stroke-linejoin="round" stroke-opacity=".4" stroke-width="__RESOLUTION__" d="m0 4.9 1.6-3.3L2.8 0 5 .8" vector-effect="non-scaling-stroke"/><path fill="none" stroke="#b4b4b6" stroke-linecap="round" stroke-linejoin="round" stroke-width="__RESOLUTION__" d="m5 .8 1.3 2" vector-effect="non-scaling-stroke"/><path fill="none" stroke="#b3bcba" stroke-linecap="round" stroke-linejoin="round" stroke-width="__RESOLUTION__" d="M6.7 2.7q1.9.7 1.7 1.6l-2.6.6q1.8 1.3 1.9 2.4l-3-.1q.9 1.6 1 2.7-1.4-.4-3-1.5m3.1-3.5-1.2.2h-.7m.7 2.1L3.9 6" vector-effect="non-scaling-stroke"/></g><g id="N"><path fill="#aaa" fill-opacity=".3" d="M7.4 1.2q1 1.6 1.6 4-.5 3.7-2.6 5.7l-4 .5L4 5.8q.9-3.2 3.4-4.6"/><path fill="none" stroke="#bbceca" stroke-linecap="round" stroke-linejoin="round" stroke-width="__RESOLUTION__" d="M7.4 1.2q1 1.6 1.6 4-.5 3.7-2.6 5.7m1-9.7Q5.7 0 4.2 0 .9 1.9.2 4.7q-.6 2.8.5 6" vector-effect="non-scaling-stroke"/></g><g id="U"><path fill="#fefefe" fill-opacity=".4" d="M0 1.9v-.5L2.3.6l.3-.1Q4 0 5.1 0z"/><path fill="#fdfefa" d="m1.8 2-.5.3-1 .2.2-1L.6 1q.9 0 1.2 1"/></g><g id="Q"><path fill="#aaa" fill-opacity=".3" d="m1.6 0 2.8 1.7 1.2 1.9-1.3 3.2.7 1.6-.2 1.3-1.4-.4L0 7.4l-.1-1Q0 5.7.6 5q1-1.5 1.6-3.1z"/><path fill="none" stroke="#aaa" stroke-linecap="round" stroke-linejoin="round" stroke-opacity=".4" stroke-width="__RESOLUTION__" d="m7.6 4.7.9-.9 1.5-1-2.5-1-.6-.8L5.8.7 4.5 1l-3-1 .7 1.9Q1.6 3.5.6 5 0 5.6 0 6.5v1M7.8 7l-.2 1 2.7.5-1.4-2.8-.3-1.9m-3 5.8.7-.7 1 .7.3-1.5" vector-effect="non-scaling-stroke"/></g><g id="O" fill="none" stroke-linecap="round" stroke-linejoin="round" stroke-width="1"><path stroke="#b5b5b9" stroke-opacity=".7" d="m9.3 3.3.7-.4-2.5-1.2-.6-.8L5.8.6l-1.3.5-3-1.1.7 1.9Q1.6 3.5.6 5 0 5.6 0 6.5v1m9-1.3.7 1.4m-2-.3-.1.8 2 .3m-4 1.2.7-.7 1 .7.3-1.5" vector-effect="non-scaling-stroke"/><path stroke="#c9cacf" d="M6.8 4.2 9 3.4l.3-.1q1.5-.5 2.5-.5m0 0 .9.2q-1.4.5-3 2.4l-.6.8-.5.5m-1.9-2q0 .6.4 1.3" vector-effect="non-scaling-stroke"/></g><g id="ck"><path fill="#e4eae7" d="m0 4.9 1.6-3.3L2.8 0 5 .8z"/><path fill="#eff8f5" d="m5 .8 1.3 2 .4-.1q1.8.6 1.7 1.6l-2.6.6q1.8 1.3 1.8 2.4l-3-.1q1 1.5 1.1 2.6-1.4-.4-3-1.5L2 6.8l-2-2zM4 5.1h.7l1.2-.2-1.2.1zM4 6l.8 1.2z"/><path fill="none" stroke="#d4d4d4" stroke-linecap="round" stroke-linejoin="round" stroke-opacity=".4" stroke-width="__RESOLUTION__" d="m0 4.9 1.6-3.3L2.8 0 5 .8" vector-effect="non-scaling-stroke"/><path fill="none" stroke="#dedee0" stroke-linecap="round" stroke-linejoin="round" stroke-width="__RESOLUTION__" d="m5 .8 1.3 2" vector-effect="non-scaling-stroke"/><path fill="none" stroke="#dde6e4" stroke-linecap="round" stroke-linejoin="round" stroke-width="__RESOLUTION__" d="M6.7 2.7q1.9.7 1.7 1.6l-2.6.6q1.8 1.3 1.9 2.4l-3-.1q.9 1.6 1 2.7-1.4-.4-3-1.5m3.1-3.5-1.2.2h-.7m.7 2.1L3.9 6" vector-effect="non-scaling-stroke"/></g><g id="cm"><path fill="#fefefc" d="M3.7 1.8q.3.6-1.3.8Q1.8 1 2.7 1q.8-.1 1 .8"/><path fill="#fafcfb" d="M3 2.9.8 2.6v-.8l1.9-.6q.8.5.3 1.7"/><path fill="#fefefc" d="M4 1.5q.9.2.6 1.2l-1.7.2q.1-1.6 1-1.4"/><path fill="none" stroke="#f5faf8" stroke-linecap="round" stroke-linejoin="round" stroke-width="__RESOLUTION__" d="m2.9 2.9 1.7-.2q.3-1-.6-1.2" vector-effect="non-scaling-stroke"/><path fill="#fafcfb" d="m1.7 1.9-1 .5L0 0h1z"/></g><g id="cn"><path fill="#dcdfde" d="m0 4.9 1.6-3.3L2.8 0 5 .8z"/><path fill="#e2e6e5" d="m5 .8 1.3 2 .4-.1q1.8.6 1.7 1.6l-2.6.6q1.8 1.3 1.8 2.4l-3-.1q1 1.5 1.1 2.6-1.4-.4-3-1.5L2 6.8l-2-2zM4 5.1h.7l1.2-.2-1.2.1zM4 6l.8 1.2z"/><path fill="none" stroke="#d4d4d4" stroke-linecap="round" stroke-linejoin="round" stroke-opacity=".4" stroke-width="__RESOLUTION__" d="m0 4.9 1.6-3.3L2.8 0 5 .8" vector-effect="non-scaling-stroke"/><path fill="none" stroke="#d9d9da" stroke-linecap="round" stroke-linejoin="round" stroke-width="__RESOLUTION__" d="m5 .8 1.3 2" vector-effect="non-scaling-stroke"/><path fill="none" stroke="#d8dddc" stroke-linecap="round" stroke-linejoin="round" stroke-width="__RESOLUTION__" d="M6.7 2.7q1.9.7 1.7 1.6l-2.6.6q1.8 1.3 1.9 2.4l-3-.1q.9 1.6 1 2.7-1.4-.4-3-1.5m3.1-3.5-1.2.2h-.7m.7 2.1L3.9 6" vector-effect="non-scaling-stroke"/></g><g id="X"><path fill="#d4d4d4" fill-opacity=".3" d="M7.4 1.2q1 1.6 1.6 4-.5 3.7-2.6 5.7l-4 .5L4 5.8q.9-3.2 3.4-4.6"/><path fill="none" stroke="#dde6e4" stroke-linecap="round" stroke-linejoin="round" stroke-width="__RESOLUTION__" d="M7.4 1.2q1 1.6 1.6 4-.5 3.7-2.6 5.7m1-9.7Q5.7 0 4.2 0 .9 1.9.2 4.7q-.6 2.8.5 6" vector-effect="non-scaling-stroke"/></g><g id="ae"><path fill="#fefefe" fill-opacity=".4" d="M0 1.9v-.5L2.3.6l.3-.1Q4 0 5.1 0z"/><path fill="#fefefc" d="m1.8 2-.5.3-1 .2.2-1L.6 1q.9 0 1.2 1"/></g><g id="aa"><path fill="#d4d4d4" fill-opacity=".3" d="m1.6 0 2.8 1.7 1.2 1.9-1.3 3.2.7 1.6-.2 1.3-1.4-.4L0 7.4l-.1-1Q0 5.7.6 5q1-1.5 1.6-3.1z"/><path fill="none" stroke="#d4d4d4" stroke-linecap="round" stroke-linejoin="round" stroke-opacity=".4" stroke-width="__RESOLUTION__" d="m7.6 4.7.9-.9 1.5-1-2.5-1-.6-.8L5.8.7 4.5 1l-3-1 .7 1.9Q1.6 3.5.6 5 0 5.6 0 6.5v1M7.8 7l-.2 1 2.7.5-1.4-2.8-.3-1.9m-3 5.8.7-.7 1 .7.3-1.5" vector-effect="non-scaling-stroke"/></g><g id="Y" fill="none" stroke-linecap="round" stroke-linejoin="round" stroke-width="1"><path stroke="#d9d9dc" stroke-opacity=".7" d="m9.3 3.3.7-.4-2.5-1.2-.6-.8L5.8.6l-1.3.5-3-1.1.7 1.9Q1.6 3.5.6 5 0 5.6 0 6.5v1m9-1.3.7 1.4m-2-.3-.1.8 2 .3m-4 1.2.7-.7 1 .7.3-1.5" vector-effect="non-scaling-stroke"/><path stroke="#e3e4e6" d="M6.8 4.2 9 3.4l.3-.1q1.5-.5 2.5-.5m0 0 .9.2q-1.4.5-3 2.4l-.6.8-.5.5m-1.9-2q0 .6.4 1.3" vector-effect="non-scaling-stroke"/></g><g id="cp"><path fill="#fff" d="M3.7 1.8q.3.6-1.3.8Q1.8 1 2.7 1q.8-.1 1 .8"/><path fill="#fff" d="M3 2.9.8 2.6v-.8l1.9-.6q.8.5.3 1.7"/><path fill="#fff" d="M4 1.5q.9.2.6 1.2l-1.7.2q.1-1.6 1-1.4"/><path fill="none" stroke="#fff" stroke-linecap="round" stroke-linejoin="round" stroke-width="__RESOLUTION__" d="m2.9 2.9 1.7-.2q.3-1-.6-1.2" vector-effect="non-scaling-stroke"/><path fill="#fff" d="m1.7 1.9-1 .5L0 0h1z"/></g><g id="cq"><path fill="#fff" d="m0 4.9 1.6-3.3L2.8 0 5 .8z"/><path fill="#fff" d="m5 .8 1.3 2 .4-.1q1.8.6 1.7 1.6l-2.6.6q1.8 1.3 1.8 2.4l-3-.1q1 1.5 1.1 2.6-1.4-.4-3-1.5L2 6.8l-2-2zM4 5.1h.7l1.2-.2-1.2.1zM4 6l.8 1.2z"/><path fill="none" stroke="#fff" stroke-linecap="round" stroke-linejoin="round" stroke-opacity=".4" stroke-width="__RESOLUTION__" d="m0 4.9 1.6-3.3L2.8 0 5 .8" vector-effect="non-scaling-stroke"/><path fill="none" stroke="#fff" stroke-linecap="round" stroke-linejoin="round" stroke-width="__RESOLUTION__" d="m5 .8 1.3 2m.4-.1q1.8.6 1.7 1.6l-2.6.6q1.8 1.3 1.8 2.4l-3-.1q1 1.5 1.1 2.6-1.4-.4-3-1.5M5.8 5l-1.2.2h-.7m.7 2.1L3.9 6" vector-effect="non-scaling-stroke"/></g><g id="al"><path fill="#fff" fill-opacity=".3" d="M7.4 1.2q1 1.6 1.6 4-.5 3.7-2.6 5.7l-4 .5L4 5.8q.9-3.2 3.4-4.6"/><path fill="none" stroke="#fff" stroke-linecap="round" stroke-linejoin="round" stroke-width="__RESOLUTION__" d="M7.4 1.2q1 1.6 1.6 4-.5 3.7-2.6 5.7m1-9.7Q5.7 0 4.2 0 .9 1.9.2 4.7q-.6 2.8.5 6" vector-effect="non-scaling-stroke"/></g><g id="as" fill="#fff"><path fill-opacity=".4" d="M0 1.9v-.5L2.3.6l.3-.1Q4 0 5.1 0z"/><path d="m1.8 2-.5.3-1 .2.2-1L.6 1q.9 0 1.2 1"/></g><g id="ao"><path fill="#fff" fill-opacity=".3" d="m1.6 0 2.8 1.7 1.2 1.9-1.3 3.2.7 1.6-.2 1.3-1.4-.4L0 7.4l-.1-1Q0 5.7.6 5q1-1.5 1.6-3.1z"/><path fill="none" stroke="#fff" stroke-linecap="round" stroke-linejoin="round" stroke-opacity=".4" stroke-width="__RESOLUTION__" d="m7.6 4.7.9-.9 1.5-1-2.5-1-.6-.8L5.8.7 4.5 1l-3-1 .7 1.9Q1.6 3.5.6 5 0 5.6 0 6.5v1M7.8 7l-.2 1 2.7.5-1.4-2.8-.3-1.9m-3 5.8.7-.7 1 .7.3-1.5" vector-effect="non-scaling-stroke"/></g><g id="am" fill="none" stroke="#fff" stroke-linecap="round" stroke-linejoin="round" stroke-width="1"><path stroke-opacity=".7" d="m9.3 3.3.7-.4-2.5-1.2-.6-.8L5.8.6l-1.3.5-3-1.1.7 1.9Q1.6 3.5.6 5 0 5.6 0 6.5v1m9-1.3.7 1.4m-2-.3-.1.8 2 .3m-4 1.2.7-.7 1 .7.3-1.5" vector-effect="non-scaling-stroke"/><path d="M6.8 4.2 9 3.4l.3-.1q1.5-.5 2.5-.5m0 0 .9.2q-1.4.5-3 2.4l-.6.8-.5.5m-1.9-2q0 .6.4 1.3" vector-effect="non-scaling-stroke"/></g><g id="cr"><path fill="#638377" d="m0 4.9 1.6-3.3L2.8 0 5 .8z"/><path fill="#a5dac6" d="m5 .8 1.3 2 .4-.1q1.8.6 1.7 1.6l-2.6.6q1.8 1.3 1.8 2.4l-3-.1q1 1.5 1.1 2.6-1.4-.4-3-1.5L2 6.8l-2-2zM4 5.1h.7l1.2-.2-1.2.1zM4 6l.8 1.2z"/><path fill="none" stroke="#000" stroke-linecap="round" stroke-linejoin="round" stroke-opacity=".4" stroke-width="__RESOLUTION__" d="m0 4.9 1.6-3.3L2.8 0 5 .8" vector-effect="non-scaling-stroke"/><path fill="none" stroke="#3c3e48" stroke-linecap="round" stroke-linejoin="round" stroke-width="__RESOLUTION__" d="m5 .8 1.3 2" vector-effect="non-scaling-stroke"/><path fill="none" stroke="#366d61" stroke-linecap="round" stroke-linejoin="round" stroke-width="__RESOLUTION__" d="M6.7 2.7q1.9.7 1.7 1.6l-2.6.6q1.8 1.3 1.9 2.4l-3-.1q.9 1.6 1 2.7-1.4-.4-3-1.5m3.1-3.5-1.2.2h-.7m.7 2.1L3.9 6" vector-effect="non-scaling-stroke"/></g><g id="ct"><path fill="#fcfff1" d="M3.7 1.8q.3.6-1.3.8Q1.8 1 2.7 1q.8-.1 1 .8"/><path fill="#e3f3ed" d="M3 2.9.8 2.6v-.8l1.9-.6q.8.5.3 1.7"/><path fill="#fcfff1" d="M4 1.5q.9.2.6 1.2l-1.7.2q.1-1.6 1-1.4"/><path fill="none" stroke="#c6e8db" stroke-linecap="round" stroke-linejoin="round" stroke-width="__RESOLUTION__" d="m2.9 2.9 1.7-.2q.3-1-.6-1.2" vector-effect="non-scaling-stroke"/><path fill="#e3f3ed" d="m1.7 1.9-1 .5L0 0h1z"/></g><g id="cu"><path fill="#33443d" d="m0 4.9 1.6-3.3L2.8 0 5 .8z"/><path fill="#557166" d="m5 .8 1.3 2 .4-.1q1.8.6 1.7 1.6l-2.6.6q1.8 1.3 1.8 2.4l-3-.1q1 1.5 1.1 2.6-1.4-.4-3-1.5L2 6.8l-2-2zM4 5.1h.7l1.2-.2-1.2.1zM4 6l.8 1.2z"/><path fill="none" stroke="#000" stroke-linecap="round" stroke-linejoin="round" stroke-opacity=".4" stroke-width="__RESOLUTION__" d="m0 4.9 1.6-3.3L2.8 0 5 .8" vector-effect="non-scaling-stroke"/><path fill="none" stroke="#1f2025" stroke-linecap="round" stroke-linejoin="round" stroke-width="__RESOLUTION__" d="m5 .8 1.3 2" vector-effect="non-scaling-stroke"/><path fill="none" stroke="#1c3832" stroke-linecap="round" stroke-linejoin="round" stroke-width="__RESOLUTION__" d="M6.7 2.7q1.9.7 1.7 1.6l-2.6.6q1.8 1.3 1.9 2.4l-3-.1q.9 1.6 1 2.7-1.4-.4-3-1.5m3.1-3.5-1.2.2h-.7m.7 2.1L3.9 6" vector-effect="non-scaling-stroke"/></g><g id="az"><path fill="#000" fill-opacity=".3" d="M7.4 1.2q1 1.6 1.6 4-.5 3.7-2.6 5.7l-4 .5L4 5.8q.9-3.2 3.4-4.6"/><path fill="none" stroke="#366d61" stroke-linecap="round" stroke-linejoin="round" stroke-width="__RESOLUTION__" d="M7.4 1.2q1 1.6 1.6 4-.5 3.7-2.6 5.7m1-9.7Q5.7 0 4.2 0 .9 1.9.2 4.7q-.6 2.8.5 6" vector-effect="non-scaling-stroke"/></g><g id="aG"><path fill="#000" fill-opacity=".3" d="m.3 0 3.2 1.7 1.6 1.9-.7 3.1 1 1.7v1.2L4 9.2.3 7.5l-.3-1Q0 5.7.3 5q.8-1.4 1-3z"/><path fill="none" stroke="#000" stroke-linecap="round" stroke-linejoin="round" stroke-opacity=".4" stroke-width="__RESOLUTION__" d="m.4 7.5-.4-1Q0 5.7.4 5q.8-1.4 1-3l-1-2 3 1.1L4.7.6l1.2.3.7.8 2.8 1-1.4 1 .7 1.9 2 2.8L7.9 8v1.6l-1.2-.8-.5.8m1-5 .7-.9M8 8l-.1-1.1" vector-effect="non-scaling-stroke"/></g><g id="aE"><path fill="#fff" fill-opacity=".3" d="m.5 0 2 .7q1.7.5 2.6 1.2L0 .4.3 0z"/><path fill="none" stroke="#000" stroke-linecap="round" stroke-linejoin="round" stroke-opacity=".4" stroke-width="__RESOLUTION__" d="m.5 0 2 .7q1.7.5 2.6 1.2" vector-effect="non-scaling-stroke"/></g><g id="aA"><path fill="none" stroke="#232330" stroke-linecap="round" stroke-linejoin="round" stroke-opacity=".7" stroke-width="__RESOLUTION__" d="m7.6 2.2-1.1-.5-.7-.8L4.6.6l-1.2.5L.2 0l1 2Q1 3.5.2 5q-.4.7-.2 1.5l.3 1m7.4-3.4-.2.5m-.1 0" vector-effect="non-scaling-stroke"/><path fill="none" stroke="#5e6171" stroke-linecap="round" stroke-linejoin="round" stroke-width="__RESOLUTION__" d="M7.6 4.7Q7 5.5 7 6.9" vector-effect="non-scaling-stroke"/><path fill="none" stroke="#232330" stroke-linecap="round" stroke-linejoin="round" stroke-opacity=".7" stroke-width="__RESOLUTION__" d="M8.1 4.1 8 3.9" vector-effect="non-scaling-stroke"/><path fill="none" stroke="#5e6171" stroke-linecap="round" stroke-linejoin="round" stroke-width="__RESOLUTION__" d="m8.1 4.1 2.1.7q1.6.4 2.5 1.2l.6.6-1.1-.1" vector-effect="non-scaling-stroke"/><path fill="none" stroke="#232330" stroke-linecap="round" stroke-linejoin="round" stroke-opacity=".7" stroke-width="__RESOLUTION__" d="m8.8 3.2.4-.5-.4-.1m-2.6 7 .5-.8 1.2.8V8l2.7.4-.7-1" vector-effect="non-scaling-stroke"/><path fill="#d5d5df" d="M7.8 5.2 8.1 4l.1-.7q.7.6.9 2.2l-.5.2q-.4-.1-.8-.5"/><path fill="none" stroke="#b6b6b6" stroke-linecap="round" stroke-linejoin="round" stroke-width="__RESOLUTION__" d="M7.8 5.2q.4.4.8.5l.5-.2q-.2-1.6-.9-2.2l-.1.7z" vector-effect="non-scaling-stroke"/></g><g id="ey" transform="translate(2.35 5.25)"><use xlink:href="#a" width="12.7" height="9.6" transform="translate(-2.35 -5.2)"/><use xlink:href="#b" width="10.2" height="9.7" transform="translate(-2.35 -5.2)"/><use xlink:href="#c" width="10.2" height="9.7" transform="translate(-2.35 -5.25)"/><use xlink:href="#d" width="6" height="4.4" transform="translate(4.35 -2.4)"/><use xlink:href="#e" width="4.5" height="3.5" transform="translate(4.55 .5)"/><use xlink:href="#f" width="2" height="3.4" transform="translate(3.95 -4)"/><use xlink:href="#g" width="5.1" height="2.5" transform="translate(4.85 -2.55)"/></g><g id="eu"><use xlink:href="#h" width="9" height="10.9"/><use xlink:href="#i" width="9" height="11.4"/><use xlink:href="#j" width="9" height="11.4"/></g><g id="er" transform="translate(2.35 5.25)"><use xlink:href="#k" width="12.7" height="9.6" transform="translate(-2.35 -5.2)"/><use xlink:href="#l" width="10.2" height="9.7" transform="translate(-2.35 -5.2)"/><use xlink:href="#m" width="10.2" height="9.7" transform="translate(-2.35 -5.25)"/><use xlink:href="#n" width="6" height="4.4" transform="translate(4.35 -2.4)"/><use xlink:href="#o" width="4.5" height="3.5" transform="translate(4.55 .5)"/><use xlink:href="#p" width="2" height="3.4" transform="translate(3.95 -4)"/><use xlink:href="#q" width="5.1" height="2.5" transform="translate(4.85 -2.55)"/></g><g id="en"><use xlink:href="#r" width="9" height="10.9"/><use xlink:href="#s" width="9" height="11.4"/><use xlink:href="#t" width="9" height="11.4"/></g><g id="ek" transform="translate(2.35 5.25)"><use xlink:href="#u" width="12.7" height="9.6" transform="translate(-2.35 -5.2)"/><use xlink:href="#v" width="10.2" height="9.7" transform="translate(-2.35 -5.2)"/><use xlink:href="#w" width="10.2" height="9.7" transform="translate(-2.35 -5.25)"/><use xlink:href="#x" width="6" height="4.4" transform="translate(4.35 -2.4)"/><use xlink:href="#y" width="4.5" height="3.5" transform="translate(4.55 .5)"/><use xlink:href="#z" width="2" height="3.4" transform="translate(3.95 -4)"/><use xlink:href="#A" width="5.1" height="2.5" transform="translate(4.85 -2.55)"/></g><g id="eg"><use xlink:href="#B" width="9" height="10.9"/><use xlink:href="#C" width="9" height="11.4"/><use xlink:href="#D" width="9" height="11.4"/></g><g id="ed" transform="translate(2.35 5.25)"><use xlink:href="#E" width="12.7" height="9.6" transform="translate(-2.35 -5.2)"/><use xlink:href="#F" width="10.2" height="9.7" transform="translate(-2.35 -5.2)"/><use xlink:href="#G" width="10.2" height="9.7" transform="translate(-2.35 -5.25)"/><use xlink:href="#H" width="6" height="4.4" transform="translate(4.35 -2.4)"/><use xlink:href="#I" width="4.5" height="3.5" transform="translate(4.55 .5)"/><use xlink:href="#J" width="2" height="3.4" transform="translate(3.95 -4)"/><use xlink:href="#K" width="5.1" height="2.5" transform="translate(4.85 -2.55)"/></g><g id="dZ"><use xlink:href="#L" width="9" height="10.9"/><use xlink:href="#M" width="9" height="11.4"/><use xlink:href="#N" width="9" height="11.4"/></g><g id="dW" transform="translate(2.35 5.25)"><use xlink:href="#O" width="12.7" height="9.6" transform="translate(-2.35 -5.2)"/><use xlink:href="#P" width="10.2" height="9.7" transform="translate(-2.35 -5.2)"/><use xlink:href="#Q" width="10.2" height="9.7" transform="translate(-2.35 -5.25)"/><use xlink:href="#R" width="6" height="4.4" transform="translate(4.35 -2.4)"/><use xlink:href="#S" width="4.5" height="3.5" transform="translate(4.55 .5)"/><use xlink:href="#T" width="2" height="3.4" transform="translate(3.95 -4)"/><use xlink:href="#U" width="5.1" height="2.5" transform="translate(4.85 -2.55)"/></g><g id="dS"><use xlink:href="#V" width="9" height="10.9"/><use xlink:href="#W" width="9" height="11.4"/><use xlink:href="#X" width="9" height="11.4"/></g><g id="dP" transform="translate(2.35 5.25)"><use xlink:href="#Y" width="12.7" height="9.6" transform="translate(-2.35 -5.2)"/><use xlink:href="#Z" width="10.2" height="9.7" transform="translate(-2.35 -5.2)"/><use xlink:href="#aa" width="10.2" height="9.7" transform="translate(-2.35 -5.25)"/><use xlink:href="#ab" width="6" height="4.4" transform="translate(4.35 -2.4)"/><use xlink:href="#ac" width="4.5" height="3.5" transform="translate(4.55 .5)"/><use xlink:href="#ad" width="2" height="3.4" transform="translate(3.95 -4)"/><use xlink:href="#ae" width="5.1" height="2.5" transform="translate(4.85 -2.55)"/></g><g id="dM"><use xlink:href="#aj" width="9" height="10.9"/><use xlink:href="#ak" width="9" height="11.4"/><use xlink:href="#al" width="9" height="11.4"/></g><g id="dJ" transform="translate(2.35 5.25)"><use xlink:href="#am" width="12.7" height="9.6" transform="translate(-2.35 -5.2)"/><use xlink:href="#an" width="10.2" height="9.7" transform="translate(-2.35 -5.2)"/><use xlink:href="#ao" width="10.2" height="9.7" transform="translate(-2.35 -5.25)"/><use xlink:href="#ap" width="6" height="4.4" transform="translate(4.35 -2.4)"/><use xlink:href="#aq" width="4.5" height="3.5" transform="translate(4.55 .5)"/><use xlink:href="#ar" width="2" height="3.4" transform="translate(3.95 -4)"/><use xlink:href="#as" width="5.1" height="2.5" transform="translate(4.85 -2.55)"/></g><g id="cz"><use xlink:href="#ax" width="9" height="10.9"/><use xlink:href="#ay" width="9" height="11.4"/><use xlink:href="#az" width="9" height="11.4"/></g><g id="cw" transform="translate(2.6 5.2)"><use xlink:href="#aA" width="13.3" height="9.6" transform="translate(-2.6 -5.2)"/><use xlink:href="#aB" width="5.3" height="1.5" transform="translate(4.4 1.1)"/><use xlink:href="#aC" width="1.6" height="3.9" transform="translate(4.8 -4.7)"/><use xlink:href="#aD" width="6.3" height="3.1" transform="translate(4.45 -1.15)"/><use xlink:href="#aE" width="5" height="1.9" transform="translate(5.1 -1.15)"/><use xlink:href="#aF" width="10.6" height="9.6" transform="translate(-2.6 -5.2)"/><use xlink:href="#aG" width="10.6" height="9.6" transform="translate(-2.55 -5.2)"/></g><use xlink:href="#aL" id="f" width="2" height="3.4"/><use xlink:href="#bVV" id="e" width="4.5" height="3.5"/><use xlink:href="#aM" id="d" width="6" height="4.4"/><use xlink:href="#aN" id="b" width="10.2" height="9.7"/><use xlink:href="#aO" id="bU" width="7" height="6.8"/><use xlink:href="#aP" id="i" width="9" height="11.4"/><use xlink:href="#aQ" id="p" width="2" height="3.4"/><use xlink:href="#aR" id="o" width="4.5" height="3.5"/><use xlink:href="#aS" id="n" width="6" height="4.4"/><use xlink:href="#aT" id="l" width="10.2" height="9.7"/><use xlink:href="#aU" id="bZ" width="7" height="6.8"/><use xlink:href="#aZ" id="s" width="9" height="11.4"/><use xlink:href="#ba" id="z" width="2" height="3.4"/><use xlink:href="#bb" id="y" width="4.5" height="3.5"/><use xlink:href="#bc" id="x" width="6" height="4.4"/><use xlink:href="#bd" id="v" width="10.2" height="9.7"/><use xlink:href="#be" id="cd" width="7" height="6.8"/><use xlink:href="#bf" id="C" width="9" height="11.4"/><use xlink:href="#bg" id="J" width="2" height="3.4"/><use xlink:href="#bh" id="I" width="4.5" height="3.5"/><use xlink:href="#bi" id="H" width="6" height="4.4"/><use xlink:href="#bn" id="F" width="10.2" height="9.7"/><use xlink:href="#bo" id="ch" width="7" height="6.8"/><use xlink:href="#bp" id="M" width="9" height="11.4"/><use xlink:href="#bq" id="T" width="2" height="3.4"/><use xlink:href="#br" id="S" width="4.5" height="3.5"/><use xlink:href="#bs" id="R" width="6" height="4.4"/><use xlink:href="#bt" id="P" width="10.2" height="9.7"/><use xlink:href="#bu" id="cl" width="7" height="6.8"/><use xlink:href="#bv" id="W" width="9" height="11.4"/><use xlink:href="#bz" id="ad" width="2" height="3.4"/><use xlink:href="#bA" id="ac" width="4.5" height="3.5"/><use xlink:href="#bB" id="ab" width="6" height="4.4"/><use xlink:href="#bC" id="Z" width="10.2" height="9.7"/><use xlink:href="#bD" id="co" width="7" height="6.8"/><use xlink:href="#bE" id="ak" width="9" height="11.4"/><use xlink:href="#bF" id="ar" width="2" height="3.4"/><use xlink:href="#bG" id="aq" width="4.5" height="3.5"/><use xlink:href="#bH" id="ap" width="6" height="4.4"/><use xlink:href="#bI" id="an" width="10.2" height="9.7"/><use xlink:href="#bJ" id="cs" width="7" height="6.8"/><use xlink:href="#bO" id="ay" width="9" height="11.4"/><use xlink:href="#bP" id="aF" width="10.6" height="9.6"/><use xlink:href="#bQ" id="aD" width="6.3" height="3.1"/><use xlink:href="#bR" id="aC" width="1.6" height="3.9"/><use xlink:href="#bS" id="aB" width="5.3" height="1.5"/><use xlink:href="#bT" id="ew" width="8.4" height="9.8"/><use xlink:href="#bU" id="ev" width="7" height="6.8"/><use xlink:href="#bW" id="et" width="4.6" height="2.9"/><use xlink:href="#bX" id="es" width="8.4" height="9.8"/><use xlink:href="#bY" id="ep" width="8.4" height="9.8"/><use xlink:href="#bZ" id="eo" width="7" height="6.8"/><use xlink:href="#ca" id="em" width="4.6" height="2.9"/><use xlink:href="#cb" id="el" width="8.4" height="9.8"/><use xlink:href="#cc" id="ei" width="8.4" height="9.8"/><use xlink:href="#cd" id="eh" width="7" height="6.8"/><use xlink:href="#ce" id="ef" width="4.6" height="2.9"/><use xlink:href="#cf" id="ee" width="8.4" height="9.8"/><use xlink:href="#cg" id="eb" width="8.4" height="9.8"/><use xlink:href="#ch" id="ea" width="7" height="6.8"/><use xlink:href="#ci" id="dY" width="4.6" height="2.9"/><use xlink:href="#cj" id="dX" width="8.4" height="9.8"/><use xlink:href="#ck" id="dU" width="8.4" height="9.8"/><use xlink:href="#cl" id="dT" width="7" height="6.8"/><use xlink:href="#cm" id="dR" width="4.6" height="2.9"/><use xlink:href="#cn" id="dQ" width="8.4" height="9.8"/><use xlink:href="#co" id="dN" width="7" height="6.8"/><use xlink:href="#cp" id="dL" width="4.6" height="2.9"/><use xlink:href="#cq" id="dK" width="8.4" height="9.8"/><use xlink:href="#cr" id="cB" width="8.4" height="9.8"/><use xlink:href="#cs" id="cA" width="7" height="6.8"/><use xlink:href="#ct" id="cy" width="4.6" height="2.9"/><use xlink:href="#cu" id="cx" width="8.4" height="9.8"/><path id="aM" fill="#e3f3ed" d="M2.1-2.2 3-2q-1.4.5-3 2.4l-.7.8-1 1-.3-.3Q-3 .7-3-.3v-.5l2.3-.8.3-.1z" transform="translate(3 2.2)"/><path id="aN" fill="#a5dac6" d="m1.9-3.9.5.8L5-2 3.5-1 3.8.8 5 3.6l-2.6-.4-.3 1.5-1-.7-.7.7-.8.1-1.4-.4L-5 2.6v-1q0-.8.5-1.4 1-1.5 1.7-3.1l-.7-2 2.9 1.2 1.3-.5z" transform="translate(5.05 4.85)"/><path id="aO" fill="#a0d0c1" d="M1.8.5Q.7 2.2-.7 3.4q-.5-1 .1-3.5L2-3l-.1 3 1.4-3 .2 3L2 3.4q-.4-.8-.2-3m.1-3.8L-.2-.7l-3.3 2q.3-.8 2.2-2.8z" transform="translate(3.5 3.4)"/><path id="aP" fill="#b4e0cf" d="M4.5-.5Q4 3.3 1.9 5.2l-4 .5-1.7-.6Q-4.9 1.8-4.3-1t4-4.7q1.5 0 3.2 1.2 1 1.6 1.6 4" transform="translate(4.5 5.7)"/><path id="aS" fill="#e7f5f0" d="M2.1-2.2 3-2q-1.4.5-3 2.4l-.7.8-1 1-.3-.3Q-3 .7-3-.3v-.5l2.3-.8.3-.1z" transform="translate(3 2.2)"/><path id="aT" fill="#b4e0cf" d="m1.9-3.9.5.8L5-2 3.5-1 3.8.8 5 3.6l-2.6-.4-.3 1.5-1-.7-.7.7-.8.1-1.4-.4L-5 2.6v-1q0-.8.5-1.4 1-1.5 1.7-3.1l-.7-2 2.9 1.2 1.3-.5z" transform="translate(5.05 4.85)"/><path id="aU" fill="#b3d9cd" d="M1.8.5Q.7 2.2-.7 3.4q-.5-1 .1-3.5L2-3l-.1 3 1.4-3 .2 3L2 3.4q-.4-.8-.2-3m.1-3.8L-.2-.7l-3.3 2q.3-.8 2.2-2.8z" transform="translate(3.5 3.4)"/><path id="aZ" fill="#c3e6d9" d="M4.5-.5Q4 3.3 1.9 5.2l-4 .5-1.7-.6Q-4.9 1.8-4.3-1t4-4.7q1.5 0 3.2 1.2 1 1.6 1.6 4" transform="translate(4.5 5.7)"/><path id="bc" fill="#ecf7f3" d="M2.1-2.2 3-2q-1.4.5-3 2.4l-.7.8-1 1-.3-.3Q-3 .7-3-.3v-.5l2.3-.8.3-.1z" transform="translate(3 2.2)"/><path id="bd" fill="#c3e6d9" d="m1.9-3.9.5.8L5-2 3.5-1 3.8.8 5 3.6l-2.6-.4-.3 1.5-1-.7-.7.7-.8.1-1.4-.4L-5 2.6v-1q0-.8.5-1.4 1-1.5 1.7-3.1l-.7-2 2.9 1.2 1.3-.5z" transform="translate(5.05 4.85)"/><path id="be" fill="#c6e3da" d="M1.8.5Q.7 2.2-.7 3.4q-.5-1 .1-3.5L2-3l-.1 3 1.4-3 .2 3L2 3.4q-.4-.8-.2-3m.1-3.8L-.2-.7l-3.3 2q.3-.8 2.2-2.8z" transform="translate(3.5 3.4)"/><path id="bf" fill="#d2ede3" d="M4.5-.5Q4 3.3 1.9 5.2l-4 .5-1.7-.6Q-4.9 1.8-4.3-1t4-4.7q1.5 0 3.2 1.2 1 1.6 1.6 4" transform="translate(4.5 5.7)"/><path id="bi" fill="#f1f9f6" d="M2.1-2.2 3-2q-1.4.5-3 2.4l-.7.8-1 1-.3-.3Q-3 .7-3-.3v-.5l2.3-.8.3-.1z" transform="translate(3 2.2)"/><path id="bn" fill="#d2ede3" d="m1.9-3.9.5.8L5-2 3.5-1 3.8.8 5 3.6l-2.6-.4-.3 1.5-1-.7-.7.7-.8.1-1.4-.4L-5 2.6v-1q0-.8.5-1.4 1-1.5 1.7-3.1l-.7-2 2.9 1.2 1.3-.5z" transform="translate(5.05 4.85)"/><path id="bo" fill="#d8ece6" d="M1.8.5Q.7 2.2-.7 3.4q-.5-1 .1-3.5L2-3l-.1 3 1.4-3 .2 3L2 3.4q-.4-.8-.2-3m.1-3.8L-.2-.7l-3.3 2q.3-.8 2.2-2.8z" transform="translate(3.5 3.4)"/><path id="bp" fill="#e0f2eb" d="M4.5-.5Q4 3.3 1.9 5.2l-4 .5-1.7-.6Q-4.9 1.8-4.3-1t4-4.7q1.5 0 3.2 1.2 1 1.6 1.6 4" transform="translate(4.5 5.7)"/><path id="bs" fill="#f5faf8" d="M2.1-2.2 3-2q-1.4.5-3 2.4l-.7.8-1 1-.3-.3Q-3 .7-3-.3v-.5l2.3-.8.3-.1z" transform="translate(3 2.2)"/><path id="bt" fill="#e0f2eb" d="m1.9-3.9.5.8L5-2 3.5-1 3.8.8 5 3.6l-2.6-.4-.3 1.5-1-.7-.7.7-.8.1-1.4-.4L-5 2.6v-1q0-.8.5-1.4 1-1.5 1.7-3.1l-.7-2 2.9 1.2 1.3-.5z" transform="translate(5.05 4.85)"/><path id="bu" fill="#ebf5f2" d="M1.8.5Q.7 2.2-.7 3.4q-.5-1 .1-3.5L2-3l-.1 3 1.4-3 .2 3L2 3.4q-.4-.8-.2-3m.1-3.8L-.2-.7l-3.3 2q.3-.8 2.2-2.8z" transform="translate(3.5 3.4)"/><path id="bv" fill="#eff8f5" d="M4.5-.5Q4 3.3 1.9 5.2l-4 .5-1.7-.6Q-4.9 1.8-4.3-1t4-4.7q1.5 0 3.2 1.2 1 1.6 1.6 4" transform="translate(4.5 5.7)"/><path id="bB" fill="#fafcfb" d="M2.1-2.2 3-2q-1.4.5-3 2.4l-.7.8-1 1-.3-.3Q-3 .7-3-.3v-.5l2.3-.8.3-.1z" transform="translate(3 2.2)"/><path id="bC" fill="#eff8f5" d="m1.9-3.9.5.8L5-2 3.5-1 3.8.8 5 3.6l-2.6-.4-.3 1.5-1-.7-.7.7-.8.1-1.4-.4L-5 2.6v-1q0-.8.5-1.4 1-1.5 1.7-3.1l-.7-2 2.9 1.2 1.3-.5z" transform="translate(5.05 4.85)"/><path id="bD" fill="#fff" d="M1.8.5Q.7 2.2-.7 3.4q-.5-1 .1-3.5L2-3l-.1 3 1.4-3 .2 3L2 3.4q-.4-.8-.2-3m.1-3.8L-.2-.7l-3.3 2q.3-.8 2.2-2.8z" transform="translate(3.5 3.4)"/><path id="bE" fill="#fff" d="M4.5-.5Q4 3.3 1.9 5.2l-4 .5-1.7-.6Q-4.9 1.8-4.3-1t4-4.7q1.5 0 3.2 1.2 1 1.6 1.6 4" transform="translate(4.5 5.7)"/><path id="bH" fill="#fff" d="M2.1-2.2 3-2q-1.4.5-3 2.4l-.7.8-1 1-.3-.3Q-3 .7-3-.3v-.5l2.3-.8.3-.1z" transform="translate(3 2.2)"/><path id="bI" fill="#fff" d="m1.9-3.9.5.8L5-2 3.5-1 3.8.8 5 3.6l-2.6-.4-.3 1.5-1-.7-.7.7-.8.1-1.4-.4L-5 2.6v-1q0-.8.5-1.4 1-1.5 1.7-3.1l-.7-2 2.9 1.2 1.3-.5z" transform="translate(5.05 4.85)"/><path id="bJ" fill="#8dc7b5" d="M1.8.5Q.7 2.2-.7 3.4q-.5-1 .1-3.5L2-3l-.1 3 1.4-3 .2 3L2 3.4q-.4-.8-.2-3m.1-3.8L-.2-.7l-3.3 2q.3-.8 2.2-2.8z" transform="translate(3.5 3.4)"/><path id="bO" fill="#a5dac6" d="M4.5-.5Q4 3.3 1.9 5.2l-4 .5-1.7-.6Q-4.9 1.8-4.3-1t4-4.7q1.5 0 3.2 1.2 1 1.6 1.6 4" transform="translate(4.5 5.7)"/><path id="bP" fill="#a5dac6" d="m4-2-1.3.9.7 1.9 1.9 2.8-2.6-.4v1.5L1.5 4l-.5.8H.2l-1.5-.4-3.6-1.7-.3-1q-.1-.9.3-1.5.7-1.5 1-3l-1.1-2 3.1 1.1 1.2-.5 1.2.3.8.8z" transform="translate(5.25 4.8)"/><path id="bQ" fill="#e3f3ed" d="M-2.2-1.5.1-1Q1.5-.4 2.4.5l.6.6-3.6.1-.2.1-1.7.4H-3q0-1.6.4-2.5l.1-.1.1-.2z" transform="translate(3.1 1.55)"/><path id="h" fill="none" stroke="#555" stroke-linecap="round" stroke-linejoin="round" stroke-width="__RESOLUTION__" d="M-3.4 2Q-4.6-1.3-4-4.1t4-4.7q1.5 0 3.2 1.2 1 1.5 1.6 4Q4.4.2 2.2 2.1" transform="translate(4.15 8.8)" vector-effect="non-scaling-stroke"/><path id="r" fill="none" stroke="#777" stroke-linecap="round" stroke-linejoin="round" stroke-width="__RESOLUTION__" d="M-3.4 2Q-4.6-1.3-4-4.1t4-4.7q1.5 0 3.2 1.2 1 1.5 1.6 4Q4.4.2 2.2 2.1" transform="translate(4.15 8.8)" vector-effect="non-scaling-stroke"/><path id="B" fill="none" stroke="#999" stroke-linecap="round" stroke-linejoin="round" stroke-width="__RESOLUTION__" d="M-3.4 2Q-4.6-1.3-4-4.1t4-4.7q1.5 0 3.2 1.2 1 1.5 1.6 4Q4.4.2 2.2 2.1" transform="translate(4.15 8.8)" vector-effect="non-scaling-stroke"/><path id="L" fill="none" stroke="#bababa" stroke-linecap="round" stroke-linejoin="round" stroke-width="__RESOLUTION__" d="M-3.4 2Q-4.6-1.3-4-4.1t4-4.7q1.5 0 3.2 1.2 1 1.5 1.6 4Q4.4.2 2.2 2.1" transform="translate(4.15 8.8)" vector-effect="non-scaling-stroke"/><path id="V" fill="none" stroke="#dcdcdc" stroke-linecap="round" stroke-linejoin="round" stroke-width="__RESOLUTION__" d="M-3.4 2Q-4.6-1.3-4-4.1t4-4.7q1.5 0 3.2 1.2 1 1.5 1.6 4Q4.4.2 2.2 2.1" transform="translate(4.15 8.8)" vector-effect="non-scaling-stroke"/><path id="aj" fill="none" stroke="#fff" stroke-linecap="round" stroke-linejoin="round" stroke-width="__RESOLUTION__" d="M-3.4 2Q-4.6-1.3-4-4.1t4-4.7q1.5 0 3.2 1.2 1 1.5 1.6 4Q4.4.2 2.2 2.1" transform="translate(4.15 8.8)" vector-effect="non-scaling-stroke"/><path id="ax" fill="none" stroke="#333" stroke-linecap="round" stroke-linejoin="round" stroke-width="__RESOLUTION__" d="M-3.4 2Q-4.6-1.3-4-4.1t4-4.7q1.5 0 3.2 1.2 1 1.5 1.6 4Q4.4.2 2.2 2.1" transform="translate(4.15 8.8)" vector-effect="non-scaling-stroke"/><clipPath id="cv"><path d="M1 1h36v32H1z"/></clipPath><clipPath id="cC"><path d="M38 1h36v32H38z"/></clipPath><clipPath id="cD"><path d="M75 1h36v32H75z"/></clipPath><clipPath id="cE"><path d="M112 1h36v32h-36z"/></clipPath><clipPath id="cF"><path d="M149 1h36v32h-36z"/></clipPath><clipPath id="cG"><path d="M186 1h36v32h-36z"/></clipPath><clipPath id="cH"><path d="M223 1h36v32h-36z"/></clipPath><clipPath id="cI"><path d="M260 1h36v32h-36z"/></clipPath><clipPath id="cJ"><path d="M297 1h36v32h-36z"/></clipPath><clipPath id="cK"><path d="M334 1h36v32h-36z"/></clipPath><clipPath id="cL"><path d="M371 1h36v32h-36z"/></clipPath><clipPath id="dG"><path d="M408 1h36v32h-36z"/></clipPath><clipPath id="dH"><path d="M445 1h36v32h-36z"/></clipPath><clipPath id="dI"><path d="M482 1h36v32h-36z"/></clipPath><clipPath id="dO"><path d="M519 1h36v32h-36z"/></clipPath><clipPath id="dV"><path d="M556 1h36v32h-36z"/></clipPath><clipPath id="ec"><path d="M593 1h36v32h-36z"/></clipPath><clipPath id="ej"><path d="M630 1h36v32h-36z"/></clipPath><clipPath id="eq"><path d="M667 1h36v32h-36z"/></clipPath><clipPath id="ex"><path d="M704 1h36v32h-36z"/></clipPath><clipPath id="ez"><path d="M741 1h36v32h-36z"/></clipPath><clipPath id="eA"><path d="M778 1h36v32h-36z"/></clipPath><clipPath id="eB"><path d="M815 1h36v32h-36z"/></clipPath><clipPath id="eC"><path d="M852 1h36v32h-36z"/></clipPath><clipPath id="eD"><path d="M889 1h36v32h-36z"/></clipPath><clipPath id="eE"><path d="M926 1h36v32h-36z"/></clipPath><clipPath id="eF"><path d="M963 1h36v32h-36z"/></clipPath></defs><g clip-path="url(#cv)"><g transform="translate(14.25 26.8)"><use xlink:href="#cw" width="13.3" height="9.6" transform="rotate(31.315 32.313 -11.366)scale(.9986)"/><use xlink:href="#cx" width="8.4" height="9.8" transform="matrix(-.9334 .0133 -.2851 1.1266 .7 -13.75)"/><use xlink:href="#cy" width="4.6" height="2.9" transform="matrix(.9067 -.1356 .2194 .9502 -3.6 -2.3)"/><use xlink:href="#cz" width="9" height="11.4" transform="matrix(.9625 -.2681 .2912 1.0455 -8.3 -12.05)"/><use xlink:href="#cA" width="7" height="6.8" transform="matrix(.9298 0 .2177 1 -9.35 -2.6)"/><use xlink:href="#cy" width="4.6" height="2.9" transform="matrix(1 0 -.1136 1 -1.15 -1.65)"/><use xlink:href="#cB" width="8.4" height="9.8" transform="matrix(-.9942 .0147 -.0544 1.1775 3.85 -11.8)"/></g></g><g clip-path="url(#cC)"><g transform="translate(51.25 26.8)"><use xlink:href="#cw" width="13.3" height="9.6" transform="rotate(31.562 32.27 -11.89)scale(.9971)"/><use xlink:href="#cx" width="8.4" height="9.8" transform="matrix(-.9327 .0332 -.2528 1.139 .2 -13.65)"/><use xlink:href="#cy" width="4.6" height="2.9" transform="matrix(.9063 -.1356 .2194 .9495 -3.6 -2.25)"/><use xlink:href="#cz" width="9" height="11.4" transform="matrix(.9554 -.2889 .3138 1.0378 -8.6 -11.9)"/><use xlink:href="#cA" width="7" height="6.8" transform="matrix(.8821 0 .2173 .9994 -9.1 -2.55)"/><use xlink:href="#cy" width="4.6" height="2.9" transform="matrix(1 0 -.1106 1 -1.15 -1.65)"/><use xlink:href="#cB" width="8.4" height="9.8" transform="matrix(-.9942 .0134 -.0522 1.1774 3.6 -11.75)"/></g></g><g clip-path="url(#cD)"><g transform="translate(88.25 26.8)"><use xlink:href="#cw" width="13.3" height="9.6" transform="rotate(31.807 32.229 -12.408)scale(.997)"/><use xlink:href="#cx" width="8.4" height="9.8" transform="matrix(-.9316 .0539 -.2192 1.1516 -.3 -13.6)"/><use xlink:href="#cy" width="4.6" height="2.9" transform="matrix(.9063 -.1356 .2194 .9495 -3.6 -2.25)"/><use xlink:href="#cz" width="9" height="11.4" transform="matrix(.9475 -.3135 .3405 1.0291 -8.9 -11.65)"/><use xlink:href="#cA" width="7" height="6.8" transform="matrix(.8345 0 .2173 .9994 -8.9 -2.5)"/><use xlink:href="#cy" width="4.6" height="2.9" transform="matrix(1 0 -.1106 1 -1.15 -1.65)"/><use xlink:href="#cB" width="8.4" height="9.8" transform="matrix(-.9942 .0134 -.0522 1.1774 3.25 -11.7)"/></g></g><g clip-path="url(#cE)"><g transform="translate(125.25 26.8)"><use xlink:href="#cw" width="13.3" height="9.6" transform="rotate(31.862 32.37 -13.028)scale(.997)"/><use xlink:href="#cx" width="8.4" height="9.8" transform="matrix(-.9298 .0776 -.1851 1.1633 -.8 -13.6)"/><use xlink:href="#cy" width="4.6" height="2.9" transform="matrix(.9063 -.1356 .2194 .9495 -3.6 -2.25)"/><use xlink:href="#cz" width="9" height="11.4" transform="matrix(.9389 -.3379 .367 1.0199 -9.15 -11.45)"/><use xlink:href="#cA" width="7" height="6.8" transform="matrix(.7868 0 .2173 .9994 -8.7 -2.45)"/><use xlink:href="#cy" width="4.6" height="2.9" transform="matrix(1 0 -.1106 1 -1.15 -1.65)"/><use xlink:href="#cB" width="8.4" height="9.8" transform="matrix(-.9942 .0134 -.0522 1.1774 2.95 -11.65)"/></g></g><g clip-path="url(#cF)"><g transform="translate(162.25 26.8)"><use xlink:href="#cw" width="13.3" height="9.6" transform="rotate(32.107 32.472 -13.671)scale(.997)"/><use xlink:href="#cx" width="8.4" height="9.8" transform="matrix(-.9277 .0982 -.1505 1.1738 -1.35 -13.55)"/><use xlink:href="#cy" width="4.6" height="2.9" transform="matrix(.9063 -.1356 .2194 .9495 -3.6 -2.25)"/><use xlink:href="#cz" width="9" height="11.4" transform="matrix(.9297 -.3621 .3933 1.0099 -9.4 -11.35)"/><use xlink:href="#cA" width="7" height="6.8" transform="matrix(.7391 0 .2173 .9994 -8.6 -2.4)"/><use xlink:href="#cy" width="4.6" height="2.9" transform="matrix(1 0 -.1106 1 -1.15 -1.65)"/><use xlink:href="#cB" width="8.4" height="9.8" transform="matrix(-.9942 .0134 -.0522 1.1774 2.65 -11.6)"/></g></g><g clip-path="url(#cG)"><g transform="translate(199.25 26.8)"><use xlink:href="#cw" width="13.3" height="9.6" transform="rotate(32.357 32.417 -14.17)scale(.997)"/><use xlink:href="#cx" width="8.4" height="9.8" transform="matrix(-.9252 .1188 -.1192 1.183 -1.85 -13.4)"/><use xlink:href="#cy" width="4.6" height="2.9" transform="matrix(.9063 -.1356 .2194 .9495 -3.6 -2.25)"/><use xlink:href="#cz" width="9" height="11.4" transform="matrix(.9212 -.383 .416 1.0006 -9.7 -11.15)"/><use xlink:href="#cA" width="7" height="6.8" transform="matrix(.6914 0 .2173 .9994 -8.3 -2.4)"/><use xlink:href="#cy" width="4.6" height="2.9" transform="matrix(1 0 -.1106 1 -1.15 -1.65)"/><use xlink:href="#cB" width="8.4" height="9.8" transform="matrix(-.9942 .0134 -.0522 1.1774 2.3 -11.55)"/></g></g><g clip-path="url(#cH)"><g transform="translate(236.25 26.8)"><use xlink:href="#cw" width="13.3" height="9.6" transform="rotate(32.598 32.322 -14.834)scale(.997)"/><use xlink:href="#cx" width="8.4" height="9.8" transform="matrix(-.9217 .1423 -.0838 1.1917 -2.3 -13.4)"/><use xlink:href="#cy" width="4.6" height="2.9" transform="matrix(.9063 -.1356 .2194 .9495 -3.6 -2.25)"/><use xlink:href="#cz" width="9" height="11.4" transform="matrix(.9108 -.4066 .4417 .9893 -9.95 -10.95)"/><use xlink:href="#cA" width="7" height="6.8" transform="matrix(.6437 0 .2173 .9994 -8.2 -2.35)"/><use xlink:href="#cy" width="4.6" height="2.9" transform="matrix(1 0 -.1106 1 -1.15 -1.65)"/><use xlink:href="#cB" width="8.4" height="9.8" transform="matrix(-.9942 .0134 -.0522 1.1774 2 -11.5)"/></g></g><g clip-path="url(#cI)"><g transform="translate(273.25 26.8)"><use xlink:href="#cw" width="13.3" height="9.6" transform="rotate(32.844 32.38 -15.26)scale(.997)"/><use xlink:href="#cx" width="8.4" height="9.8" transform="matrix(-.9182 .1627 -.0479 1.1992 -2.85 -13.3)"/><use xlink:href="#cy" width="4.6" height="2.9" transform="matrix(.9063 -.1356 .2194 .9495 -3.6 -2.25)"/><use xlink:href="#cz" width="9" height="11.4" transform="matrix(.8998 -.43 .4671 .9774 -10.15 -10.8)"/><use xlink:href="#cA" width="7" height="6.8" transform="matrix(.5961 0 .2173 .9994 -8 -2.3)"/><use xlink:href="#cy" width="4.6" height="2.9" transform="matrix(1 0 -.1106 1 -1.15 -1.65)"/><use xlink:href="#cB" width="8.4" height="9.8" transform="matrix(-.9942 .0134 -.0522 1.1774 1.7 -11.45)"/></g></g><g clip-path="url(#cJ)"><g transform="translate(310.25 26.8)"><use xlink:href="#cw" width="13.3" height="9.6" transform="rotate(33.09 32.216 -15.798)scale(.997)"/><use xlink:href="#cx" width="8.4" height="9.8" transform="matrix(-.9136 .186 -.0116 1.2057 -3.35 -13.3)"/><use xlink:href="#cy" width="4.6" height="2.9" transform="matrix(.9063 -.1356 .2194 .9495 -3.6 -2.25)"/><use xlink:href="#cz" width="9" height="11.4" transform="matrix(.8898 -.4502 .489 .9665 -10.35 -10.55)"/><use xlink:href="#cA" width="7" height="6.8" transform="matrix(.5484 0 .2173 .9994 -7.8 -2.25)"/><use xlink:href="#cy" width="4.6" height="2.9" transform="matrix(1 0 -.1106 1 -1.15 -1.65)"/><use xlink:href="#cB" width="8.4" height="9.8" transform="matrix(-.9942 .0134 -.0522 1.1774 1.35 -11.4)"/></g></g><g clip-path="url(#cK)"><g transform="translate(347.25 26.8)"><use xlink:href="#cw" width="13.3" height="9.6" transform="rotate(33.364 32.187 -16.373)scale(.9984)"/><use xlink:href="#cx" width="8.4" height="9.8" transform="matrix(-.9095 .2074 .0207 1.2111 -3.85 -13.15)"/><use xlink:href="#cy" width="4.6" height="2.9" transform="matrix(.9067 -.1356 .2194 .9502 -3.6 -2.3)"/><use xlink:href="#cz" width="9" height="11.4" transform="matrix(.8784 -.4746 .5155 .9542 -10.75 -10.4)"/><use xlink:href="#cA" width="7" height="6.8" transform="matrix(.5007 0 .2177 1 -7.65 -2.2)"/><use xlink:href="#cy" width="4.6" height="2.9" transform="matrix(1 0 -.1136 1 -1.15 -1.65)"/><use xlink:href="#cB" width="8.4" height="9.8" transform="matrix(-.9942 .0147 -.0544 1.1775 1 -11.35)"/></g></g><g clip-path="url(#cL)"><g transform="translate(384.25 26.8)"><use xlink:href="#cw" width="13.3" height="9.6" transform="rotate(3.555 313.558 -133.098)scale(.9982)"/><use xlink:href="#cx" width="8.4" height="9.8" transform="matrix(-.9091 .2062 .0171 1.2111 -4.4 -13.05)"/><use xlink:href="#cy" width="4.6" height="2.9" transform="matrix(.9063 -.1356 .2194 .9495 -3.6 -2.25)"/><use xlink:href="#cz" width="9" height="11.4" transform="matrix(.8326 -.5478 .595 .9044 -11.55 -9.7)"/><use xlink:href="#cA" width="7" height="6.8" transform="matrix(.507 -.0178 .0642 1.0483 -7.8 -2.05)"/><use xlink:href="#cy" width="4.6" height="2.9" transform="matrix(1 0 -.1106 1 -1.15 -1.65)"/><use xlink:href="#cB" width="8.4" height="9.8" transform="matrix(-.9942 .0134 -.0522 1.1774 .35 -11.3)"/></g></g><g clip-path="url(#dG)"><g transform="translate(421.25 26.8)"><use xlink:href="#cw" width="13.3" height="9.6" transform="rotate(-25.835 -44.28 14.971)scale(.997)"/><use xlink:href="#cx" width="8.4" height="9.8" transform="matrix(-.9091 .2062 .0171 1.2111 -5 -12.95)"/><use xlink:href="#cy" width="4.6" height="2.9" transform="matrix(.9063 -.1356 .2194 .9495 -3.6 -2.25)"/><use xlink:href="#cz" width="9" height="11.4" transform="matrix(.7812 -.6183 .6716 .8486 -12.2 -8.85)"/><use xlink:href="#cA" width="7" height="6.8" transform="matrix(.5126 -.0361 -.0987 1.0726 -7.85 -1.85)"/><use xlink:href="#cy" width="4.6" height="2.9" transform="matrix(1 0 -.1106 1 -1.15 -1.65)"/><use xlink:href="#cB" width="8.4" height="9.8" transform="matrix(-.9942 .0134 -.0522 1.1774 -.3 -11.2)"/></g></g><g clip-path="url(#dH)"><g transform="translate(458.25 26.8)"><use xlink:href="#cw" width="13.3" height="9.6" transform="rotate(-55.587 -20.662 5.049)scale(.9983)"/><use xlink:href="#cx" width="8.4" height="9.8" transform="matrix(-.9095 .2074 .0207 1.2111 -5.65 -12.95)"/><use xlink:href="#cy" width="4.6" height="2.9" transform="matrix(.9067 -.1356 .2194 .9502 -3.6 -2.3)"/><use xlink:href="#cz" width="9" height="11.4" transform="matrix(.7249 -.6854 .7445 .7874 -12.8 -8.05)"/><use xlink:href="#cA" width="7" height="6.8" transform="matrix(.5177 -.056 -.2681 1.0715 -8 -1.6)"/><use xlink:href="#cy" width="4.6" height="2.9" transform="matrix(1 0 -.1136 1 -1.15 -1.65)"/><use xlink:href="#cB" width="8.4" height="9.8" transform="matrix(-.9942 .0147 -.0544 1.1775 -.95 -11.15)"/></g></g><g clip-path="url(#dI)"><g transform="translate(495.25 26.8)"><use xlink:href="#dJ" width="12.7" height="9.7" transform="rotate(-9.226 -65.814 -53.96)scale(.9967)"/><use xlink:href="#dK" width="8.4" height="9.8" transform="matrix(-.6544 -.6835 -1.0705 .5667 7.8 -9.25)"/><use xlink:href="#dL" width="4.6" height="2.9" transform="matrix(.9067 -.1356 .2194 .9502 -3.6 -2.3)"/><use xlink:href="#dM" width="9" height="11.4" transform="matrix(.5832 .8076 -.8772 .6335 8.5 -13.7)"/><use xlink:href="#dN" width="7" height="6.8" transform="matrix(.6387 .4947 -.43 -1.5993 -4.8 -8.2)"/><use xlink:href="#dL" width="4.6" height="2.9" transform="matrix(1 0 -.1136 1 -1.15 -1.65)"/><use xlink:href="#dK" width="8.4" height="9.8" transform="matrix(-.526 -.8433 -1.0792 .4873 10.8 -6.25)"/></g></g><g clip-path="url(#dO)"><g transform="translate(532.25 26.8)"><use xlink:href="#dP" width="12.7" height="9.7" transform="rotate(-9.061 -66.705 -51.637)scale(.9962)"/><use xlink:href="#dQ" width="8.4" height="9.8" transform="matrix(-.6603 -.6628 -1.0639 .5977 7.7 -9.4)"/><use xlink:href="#dR" width="4.6" height="2.9" transform="matrix(.9063 -.1356 .2194 .9495 -3.6 -2.25)"/><use xlink:href="#dS" width="9" height="11.4" transform="matrix(.5932 .7982 -.867 .6444 8 -13.8)"/><use xlink:href="#dT" width="7" height="6.8" transform="matrix(.6372 .4946 -.3447 -1.5854 -5.1 -8.35)"/><use xlink:href="#dR" width="4.6" height="2.9" transform="matrix(1 0 -.1106 1 -1.15 -1.65)"/><use xlink:href="#dU" width="8.4" height="9.8" transform="matrix(-.5336 -.8263 -1.0734 .519 10.55 -6.4)"/></g></g><g clip-path="url(#dV)"><g transform="translate(569.25 26.8)"><use xlink:href="#dW" width="12.7" height="9.7" transform="rotate(-9.061 -66.664 -48.142)scale(.9962)"/><use xlink:href="#dX" width="8.4" height="9.8" transform="matrix(-.6679 -.6419 -1.0571 .6308 7.5 -9.4)"/><use xlink:href="#dY" width="4.6" height="2.9" transform="matrix(.9063 -.1356 .2194 .9495 -3.6 -2.25)"/><use xlink:href="#dZ" width="9" height="11.4" transform="matrix(.6066 .788 -.8559 .659 7.5 -13.85)"/><use xlink:href="#ea" width="7" height="6.8" transform="matrix(.6372 .4946 -.2627 -1.5683 -5.25 -8.5)"/><use xlink:href="#dY" width="4.6" height="2.9" transform="matrix(1 0 -.1106 1 -1.15 -1.65)"/><use xlink:href="#eb" width="8.4" height="9.8" transform="matrix(-.5429 -.8096 -1.0679 .5517 10.45 -6.65)"/></g></g><g clip-path="url(#ec)"><g transform="translate(606.25 26.8)"><use xlink:href="#ed" width="12.7" height="9.7" transform="rotate(-9.061 -66.599 -44.962)scale(.9962)"/><use xlink:href="#ee" width="8.4" height="9.8" transform="matrix(-.675 -.621 -1.0493 .6639 7.25 -9.55)"/><use xlink:href="#ef" width="4.6" height="2.9" transform="matrix(.9063 -.1356 .2194 .9495 -3.6 -2.25)"/><use xlink:href="#eg" width="9" height="11.4" transform="matrix(.6173 .7795 -.8468 .6706 7.05 -13.95)"/><use xlink:href="#eh" width="7" height="6.8" transform="matrix(.6372 .4946 -.1781 -1.5477 -5.5 -8.6)"/><use xlink:href="#ef" width="4.6" height="2.9" transform="matrix(1 0 -.1106 1 -1.15 -1.65)"/><use xlink:href="#ei" width="8.4" height="9.8" transform="matrix(-.5518 -.7928 -1.0614 .5843 10.25 -6.8)"/></g></g><g clip-path="url(#ej)"><g transform="translate(643.25 26.8)"><use xlink:href="#ek" width="12.7" height="9.7" transform="rotate(-9.061 -66.874 -41.491)scale(.9962)"/><use xlink:href="#el" width="8.4" height="9.8" transform="matrix(-.6815 -.6002 -1.0404 .6971 7.1 -9.65)"/><use xlink:href="#em" width="4.6" height="2.9" transform="matrix(.9063 -.1356 .2194 .9495 -3.6 -2.25)"/><use xlink:href="#en" width="9" height="11.4" transform="matrix(.6304 .7689 -.8352 .6848 6.5 -14.05)"/><use xlink:href="#eo" width="7" height="6.8" transform="matrix(.6372 .4946 -.1013 -1.5222 -5.8 -8.6)"/><use xlink:href="#em" width="4.6" height="2.9" transform="matrix(1 0 -.1106 1 -1.15 -1.65)"/><use xlink:href="#ep" width="8.4" height="9.8" transform="matrix(-.5603 -.776 -1.054 .617 10.15 -6.95)"/></g></g><g clip-path="url(#eq)"><g transform="translate(680.25 26.8)"><use xlink:href="#er" width="12.7" height="9.7" transform="matrix(.9838 -.1569 .1569 .9838 5.2 -11)"/><use xlink:href="#es" width="8.4" height="9.8" transform="matrix(-.6873 -.5794 -1.0306 .7302 6.8 -9.7)"/><use xlink:href="#et" width="4.6" height="2.9" transform="matrix(.9063 -.1356 .2194 .9495 -3.6 -2.25)"/><use xlink:href="#eu" width="9" height="11.4" transform="matrix(.6409 .7601 -.8257 .6961 6 -14.15)"/><use xlink:href="#ev" width="7" height="6.8" transform="matrix(.6372 .4946 -.0275 -1.493 -6 -8.7)"/><use xlink:href="#et" width="4.6" height="2.9" transform="matrix(1 0 -.1106 1 -1.15 -1.65)"/><use xlink:href="#ew" width="8.4" height="9.8" transform="matrix(-.5684 -.759 -1.0455 .6497 9.9 -7.2)"/></g></g><g clip-path="url(#ex)"><g transform="translate(717.25 26.8)"><use xlink:href="#ey" width="12.7" height="9.7" transform="rotate(-9.226 -65.84 -34.315)scale(.9967)"/><use xlink:href="#cx" width="8.4" height="9.8" transform="matrix(-.6927 -.5608 -1.0222 .7634 6.6 -9.8)"/><use xlink:href="#cy" width="4.6" height="2.9" transform="matrix(.9067 -.1356 .2194 .9502 -3.6 -2.3)"/><use xlink:href="#cz" width="9" height="11.4" transform="matrix(.6546 .7505 -.8151 .7111 5.5 -14.15)"/><use xlink:href="#cA" width="7" height="6.8" transform="matrix(.6387 .4947 .0396 -1.4603 -6.15 -8.8)"/><use xlink:href="#cy" width="4.6" height="2.9" transform="matrix(1 0 -.1136 1 -1.15 -1.65)"/><use xlink:href="#cB" width="8.4" height="9.8" transform="matrix(-.5762 -.744 -1.0361 .6858 9.75 -7.4)"/></g></g><g clip-path="url(#ez)"><g transform="translate(754.25 26.8)"><use xlink:href="#cw" width="13.3" height="9.6" transform="rotate(20.607 57.834 -2.274)scale(.9939)"/><use xlink:href="#cx" width="8.4" height="9.8" transform="matrix(-.873 -.1686 -.5415 1.1518 2.4 -14.85)"/><use xlink:href="#cy" width="4.6" height="2.9" transform="matrix(.9067 -.1356 .2194 .9502 -3.6 -2.3)"/><use xlink:href="#cz" width="9" height="11.4" transform="matrix(.9862 .126 -.1368 1.0712 -2.05 -15.65)"/><use xlink:href="#cA" width="7" height="6.8" transform="matrix(.6387 .4947 .0396 -1.4603 -6.15 -8.8)"/><use xlink:href="#cy" width="4.6" height="2.9" transform="matrix(1 0 -.1136 1 -1.15 -1.65)"/><use xlink:href="#cB" width="8.4" height="9.8" transform="matrix(-.9335 -.1036 -.0944 1.3116 6.4 -13.65)"/></g></g><g clip-path="url(#eA)"><g transform="translate(791.25 26.8)"><use xlink:href="#cw" width="13.3" height="9.6" transform="rotate(22.313 52.382 -2.166)scale(.9935)"/><use xlink:href="#cx" width="8.4" height="9.8" transform="matrix(-.861 -.211 -.6009 1.1142 2.8 -14.05)"/><use xlink:href="#cy" width="4.6" height="2.9" transform="matrix(.9063 -.1356 .2194 .9495 -3.6 -2.25)"/><use xlink:href="#cz" width="9" height="11.4" transform="matrix(.979 .1378 -.1707 1.0741 -2.05 -15.25)"/><use xlink:href="#cA" width="7" height="6.8" transform="matrix(.7063 .4303 .6742 -1.2109 -7.2 -7.8)"/><use xlink:href="#cy" width="4.6" height="2.9" transform="matrix(1 0 -.1106 1 -1.15 -1.65)"/><use xlink:href="#cB" width="8.4" height="9.8" transform="matrix(-.9242 -.1597 -.2052 1.2882 6.7 -12.9)"/></g></g><g clip-path="url(#eB)"><g transform="translate(828.25 26.8)"><use xlink:href="#cw" width="13.3" height="9.6" transform="rotate(24.077 47.369 -2.013)scale(.9942)"/><use xlink:href="#cx" width="8.4" height="9.8" transform="matrix(-.8479 -.2519 -.6605 1.0738 3.05 -13.3)"/><use xlink:href="#cy" width="4.6" height="2.9" transform="matrix(.9063 -.1356 .2194 .9495 -3.6 -2.25)"/><use xlink:href="#cz" width="9" height="11.4" transform="matrix(.972 .1498 -.2054 1.0763 -2.2 -15)"/><use xlink:href="#cA" width="7" height="6.8" transform="matrix(.7676 .3592 1.1003 -.7165 -8 -6.85)"/><use xlink:href="#cy" width="4.6" height="2.9" transform="matrix(1 0 -.1106 1 -1.15 -1.65)"/><use xlink:href="#cB" width="8.4" height="9.8" transform="matrix(-.9111 -.2191 -.3189 1.2543 6.9 -12)"/></g></g><g clip-path="url(#eC)"><g transform="translate(865.25 26.8)"><use xlink:href="#cw" width="13.3" height="9.6" transform="rotate(25.836 43.194 -1.761)scale(.995)"/><use xlink:href="#cx" width="8.4" height="9.8" transform="matrix(-.8327 -.2921 -.7175 1.0303 3.45 -12.6)"/><use xlink:href="#cy" width="4.6" height="2.9" transform="matrix(.9063 -.1356 .2194 .9495 -3.6 -2.25)"/><use xlink:href="#cz" width="9" height="11.4" transform="matrix(.9648 .1617 -.2438 1.0766 -2.15 -14.6)"/><use xlink:href="#cA" width="7" height="6.8" transform="matrix(.8217 .2798 1.2365 -.1143 -8.65 -5.9)"/><use xlink:href="#cy" width="4.6" height="2.9" transform="matrix(1 0 -.1106 1 -1.15 -1.65)"/><use xlink:href="#cB" width="8.4" height="9.8" transform="matrix(-.895 -.2746 -.4242 1.2119 7.1 -11.1)"/></g></g><g clip-path="url(#eD)"><g transform="translate(902.25 26.8)"><use xlink:href="#cw" width="13.3" height="9.6" transform="rotate(27.602 39.404 -1.694)scale(.9956)"/><use xlink:href="#cx" width="8.4" height="9.8" transform="matrix(-.8146 -.3341 -.7717 .9837 3.8 -11.75)"/><use xlink:href="#cy" width="4.6" height="2.9" transform="matrix(.9063 -.1356 .2194 .9495 -3.6 -2.25)"/><use xlink:href="#cz" width="9" height="11.4" transform="matrix(.9575 .1734 -.2791 1.0764 -2.25 -14.25)"/><use xlink:href="#cA" width="7" height="6.8" transform="matrix(.8674 .1928 1.0806 .4431 -9.05 -4.9)"/><use xlink:href="#cy" width="4.6" height="2.9" transform="matrix(1 0 -.1106 1 -1.15 -1.65)"/><use xlink:href="#cB" width="8.4" height="9.8" transform="matrix(-.8745 -.3319 -.5247 1.1608 7.4 -10.35)"/></g></g><g clip-path="url(#eE)"><g transform="translate(939.25 26.8)"><use xlink:href="#cw" width="13.3" height="9.6" transform="rotate(29.552 35.976 -1.582)scale(.9963)"/><use xlink:href="#cx" width="8.4" height="9.8" transform="matrix(-.7956 -.3724 -.823 .9344 4.1 -11.05)"/><use xlink:href="#cy" width="4.6" height="2.9" transform="matrix(.9063 -.1356 .2194 .9495 -3.6 -2.25)"/><use xlink:href="#cz" width="9" height="11.4" transform="matrix(.9501 .1849 -.3145 1.0751 -2.35 -13.9)"/><use xlink:href="#cA" width="7" height="6.8" transform="matrix(.9037 .0992 .7019 .8399 -9.2 -3.8)"/><use xlink:href="#cy" width="4.6" height="2.9" transform="matrix(1 0 -.1106 1 -1.15 -1.65)"/><use xlink:href="#cB" width="8.4" height="9.8" transform="matrix(-.8515 -.3848 -.6195 1.1015 7.6 -9.4)"/></g></g><g clip-path="url(#eF)"><g transform="translate(976.25 26.8)"><use xlink:href="#cw" width="13.3" height="9.6" transform="rotate(31.315 33.204 -1.322)scale(.9986)"/><use xlink:href="#cx" width="8.4" height="9.8" transform="matrix(-.7746 -.4126 -.873 .8834 4.4 -10.3)"/><use xlink:href="#cy" width="4.6" height="2.9" transform="matrix(.9067 -.1356 .2194 .9502 -3.6 -2.3)"/><use xlink:href="#cz" width="9" height="11.4" transform="matrix(.9431 .1966 -.3534 1.0726 -2.35 -13.55)"/><use xlink:href="#cA" width="7" height="6.8" transform="matrix(.9298 0 .2177 1 -9.35 -2.6)"/><use xlink:href="#cy" width="4.6" height="2.9" transform="matrix(1 0 -.1136 1 -1.15 -1.65)"/><use xlink:href="#cB" width="8.4" height="9.8" transform="matrix(-.8254 -.439 -.7123 1.0341 7.8 -8.5)"/></g></g></svg>