<svg xmlns="http://www.w3.org/2000/svg" xmlns:xlink="http://www.w3.org/1999/xlink" width="1002" height="79" viewBox="0 0 1002 79"><defs><use xlink:href="#a" id="s" width="5.7" height="9.3"/><use xlink:href="#b" id="F" width="18.2" height="20.6"/><use xlink:href="#c" id="J" width="4.5" height="2"/><use xlink:href="#d" id="H" width="6" height="7.6"/><use xlink:href="#c" id="N" width="4.5" height="2" transform="scale(.7143 .7)"/><use xlink:href="#e" id="L" width="5.2" height="7.6"/><use xlink:href="#f" id="h" width="22.9" height="21.6"/><use xlink:href="#g" id="r" width="27.7" height="8"/><use xlink:href="#h" id="aG" width="22.9" height="21.6" transform="matrix(-1 0 0 1 29.95 4.5)"/><use xlink:href="#h" id="aD" width="22.9" height="21.6" transform="matrix(-1.06 0 0 1.06 30.65 4)"/><use xlink:href="#h" id="aB" width="22.9" height="21.6" transform="matrix(-1.13 0 0 1.13 31.35 3.55)"/><use xlink:href="#h" id="az" width="22.9" height="21.6" transform="matrix(-1.19 0 0 1.19 32.1 3)"/><use xlink:href="#h" id="ax" width="22.9" height="21.6" transform="matrix(-1.26 0 0 1.26 32.8 2.5)"/><use xlink:href="#h" id="av" width="22.9" height="21.6" transform="matrix(-1.32 0 0 1.32 33.5 2)"/><use xlink:href="#h" id="at" width="22.9" height="21.6" transform="matrix(-1.39 0 0 1.39 34.2 1.55)"/><use xlink:href="#h" id="ar" width="22.9" height="21.6" transform="matrix(-1.45 0 0 1.45 34.9 1)"/><use xlink:href="#h" id="ap" width="22.9" height="21.6" transform="matrix(-1.52 0 0 1.52 35.65 .5)"/><use xlink:href="#h" id="an" width="22.9" height="21.6" transform="matrix(-1.58 0 0 1.58 36.35 0)"/><use xlink:href="#i" id="am" width="33" height="20.6"/><use xlink:href="#j" id="al" width="11.7" height="16.7"/><use xlink:href="#k" id="ak" width="14.7" height="17.6"/><use xlink:href="#l" id="aj" width="15.1" height="22.1"/><use xlink:href="#m" id="ai" width="12.7" height="13.6"/><use xlink:href="#n" id="af" width="14.5" height="18.9"/><use xlink:href="#o" id="ae" width="13.8" height="21.9"/><use xlink:href="#p" id="ad" width="9.8" height="12.9"/><use xlink:href="#q" id="ac" width="12.4" height="14.6"/><use xlink:href="#r" id="aa" width="27.7" height="8" transform="matrix(.3796 -.0043 -.3052 .5189 2.45 .1)"/><g id="f"><path fill="#fff" d="M7.5 0q2 3.1 4 4.9 1.5 1.2 3.9.5Q17 5 20.7 3q-1.6 2.6-2 4.5-.3 1.2.6 2.3 1 1.3 3.6 1.7-1.2 0-2.4.8-1 .6-1.3 1.3-.5 1 .5 2.7.7 1.5 2.7 3.8-6.6-3.5-9.2-1.8-2.1 1.5-2.9 3.3 0-1.7-.3-2.4-.5-2.1-1.8-2.5-3-1-7.4.4.8-.5 2.3-2.6 1-1.2.6-3.1Q3.3 8.7 0 6.2l3.4.4 2.9-.4q1-.3 1.2-6.1z"/><path fill="#f00f0f" d="M7.5 0"/><path fill="#35479e" d="M12.2 13.7h-.7l-.6-.4-3.5-6.1q-.2-.3 0-.8l.7-.6L9.5 5l.9-.1q.4 0 .5.5-2.3.8-2.5 1.4 2.5 5.3 3.7 6.9m1.9 4h-.7q-.7-.1-.9-.6t0-1.2q.3-.5 1-.9.3-.2.7-.2-1.2.4-1 1.7 0 1.2 1 1.2z"/><path fill="#578afd" d="M12.2 13.7q-1.3-1.6-3.7-6.9.1-.6 2.4-1.5l2.4 6.6v.8l-.6.7-.3.2zm1.9 1 .5.1q.5.2.8.7.2.5 0 1.1l-.9 1-.4.1q-1 0-1-1.3-.2-1.2 1-1.6"/><path fill="#c79a01" d="M14.1 17.7"/></g><g id="G"><path fill="none" stroke="#1f1f1f" stroke-linecap="round" stroke-linejoin="round" stroke-opacity=".5" stroke-width="__RESOLUTION__" d="M3.6 10.7Q5 15 6.8 17.9q1.2 2 2.3 2.6l.9.1q2.3-.3 3.5-1.4l.7-1q3.7-1.2 3.6-5.1-.2-2.3-1.2-5h.5q.8.2 1-.2.2-.3-.3-1.1l-1.6-1.4q.5-.2.4-.5 0-.5-.8-1L14.4 3h-.1l-.8-1L12.1.8" vector-effect="non-scaling-stroke"/><path fill="#252e0e" fill-opacity=".3" d="m10.5.3.5.2 1.1.3 1.4 1.3.5 1.6q1 1.9-.8 1.3 4.3 2.9 1.3 3.4h-1q2.4 9.3-1.1 7.7v1q-.1 2.8-3.3 3.3Q8 20 6.9 18q-1.7-2.9-3-6.2-4.7-5-3.7-7.1L4.6.8Q7.3-.4 10.5.3"/></g><g id="I"><path fill="none" stroke="#1f1f1f" stroke-linecap="round" stroke-linejoin="round" stroke-opacity=".3" stroke-width="__RESOLUTION__" d="M2.2 7.6Q.3 7.5 0 4.1l1 .8.3.1-.1-1.1L1.1 1 .8 0l2.8 2.7q.7.8.9 1.8l.3-.2 1.2-1Q6.2 6.7 3.9 7l-.7.3-.8-.2" vector-effect="non-scaling-stroke"/><path fill="#252e0e" fill-opacity=".3" d="m3.2 7.3-.9-.1-.2.4Q.5 7.5 0 4.1l1 .8.3.1-.1-1.1L1.1 1q1.8 3 2.1 4.7v.4z"/></g><g id="M"><path fill="#252e0e" fill-opacity=".3" d="m2.5 1.3.2.6q.5 1.7-.5 4.2l-1 1.5q.3-1.4-.1-3.8L.9 2.7l-.1.2-.8.9Q-.1.4 1.3 0l.2.4.2-.1z"/><path fill="none" stroke="#1f1f1f" stroke-linecap="round" stroke-linejoin="round" stroke-opacity=".3" stroke-width="__RESOLUTION__" d="M3 .2q1.9.1 2.2 3.5L4 2.9l-.3-.1q0 .9-.5 1.8l-1 1.5-1 1.5q.3-1.4-.1-3.8L.9 2.7l-.1.2-.8.9Q-.1.4 1.3 0" vector-effect="non-scaling-stroke"/></g><g id="i"><path fill="#88b526" d="M31.2 1.9 18.6 6.8l-10 9-8.6-.6 7.4-4.8 6.4-7L26.6 0z"/><path fill="#6a8c1e" d="m0 15.3 8.6.4 10-8.9 12.6-4.9L33 6.5 22.4 18.7l-12.2 1.9z"/><path fill="none" stroke="#3e2b0b" stroke-linecap="round" stroke-linejoin="round" stroke-width="__RESOLUTION__" d="M26.6 0 13.8 3.4l-6.4 7L0 15.3l10.2 5.3 12.2-1.9L33 6.5" vector-effect="non-scaling-stroke"/></g><g id="j"><path fill="#826445" d="M.4.6 5.2 0q.5-.3 1.7 1.2l2.1 2Q9 4.6 7 6T5.3 8.3q.6 1.9 1.5 3.5l.5-.3 1-.3q.9-1 1.6-.1l.6.7q1-.6 1.1 1 .1 1.1-.1 1.6L10 15.8l-1.9.9-5.8-.3-.3-.7h-.1L0 8.7Q-.1 7.7.4.6m7 12.3-.6-1.1zm.2-.7.7-1zm2.2.4.6-.8z"/><path fill="none" stroke="#3e2b0b" stroke-linecap="round" stroke-linejoin="round" stroke-width="__RESOLUTION__" d="M9 3.3Q9 4.6 7 6 5 7.3 5.3 8.3q.6 1.9 1.5 3.5l.5-.3 1-.3q.9-1 1.6-.1l.6.7q1-.6 1.1 1 .1 1.1-.1 1.6L10 15.8l-1.9.9v0l-5.8-.3-.3-.7m-.1 0L0 8.7Q-.1 7.7.4.6m6.4 11.2.7 1m.8-1.6-.6 1m2.8-.4-.8.8" vector-effect="non-scaling-stroke"/></g><g id="k"><path fill="#826445" d="m.9.1 5.8.5L3 8l1.8 7.2.4-.2.5 1.8-3.7-1q-.3-.3-.3-1.4L0 7.8Q-.3 6.8.8.1"/><path fill="#a28a61" d="M6.7.6q.6-.2 2 1.5 1.8 2 2.4 2.3 0 1.2-2.6 2.2-2.5.8-2.2 1.9.8 2.2 2 4.1l.7-.2h1.4q1.2-.7 2.2.3l.6.8q1.4-.4 1.5 1.2 0 1-.4 1.4l-2 1-2.5.5-4.1-.7-.5-1.8-.4.2L3 8.1zm2 12.6-.4-.6zm3.5.8 1-.5zm-2.7-.8.9-.8z"/><path fill="none" stroke="#3e2b0b" stroke-linecap="round" stroke-linejoin="round" stroke-width="__RESOLUTION__" d="M11.1 4.4q0 1.2-2.6 2.2-2.5.8-2.2 1.9.8 2.2 2 4.1l.7-.2h1.4q1.2-.7 2.2.3l.6.8q1.4-.4 1.5 1.2 0 1-.4 1.4l-2 1-2.5.5m-8.1-3L0 7.9Q-.2 6.8.9 0" vector-effect="non-scaling-stroke"/><path fill="none" stroke="#544f43" stroke-linecap="round" stroke-linejoin="round" stroke-width="__RESOLUTION__" d="m9.8 17.6-4.1-.7-3.7-1q-.3-.3-.3-1.4m6.6-1.9.4.6m4.5.3-1 .5m-1.8-1.6-1 .8" vector-effect="non-scaling-stroke"/></g><g id="l"><path fill="#a28a61" d="M4.9 0Q6 0 8.3.9l2.4 4.6 2.2 3.4q1.7 2.9 2.2 5.7 0 1.4-.6 2-.7.5-1.6 2.4.7-5.2-1.8-9.9-3-5.5-4.5-7T4.9 0"/><path fill="#826445" d="M12.9 19q-.1-.4-.4.3-2 2.6-3.5 2.8t-3.1-1.8-3-5.3q-1.5-3.5-1.1-6.1l1-7.1Q3.7.2 4.7.1L5 0q.1.6 1.7 2 1.5 1.5 4.5 7.1 2.5 4.7 1.8 10"/><path fill="none" stroke="#544f43" stroke-linecap="round" stroke-linejoin="round" stroke-width="__RESOLUTION__" d="M4.9 0Q6 0 8.3.9l2.4 4.6 2.2 3.4q1.7 2.9 2.2 5.7m-9.2 5.8q-1.6-2-3-5.4-1.5-3.5-1.1-6.1l1-7.1Q3.7.2 4.7.1L5 0m4 22q-1.5.3-3.1-1.6" vector-effect="non-scaling-stroke"/><path fill="#826445" d="M5.1 7.8q1.6 2 2.3 4.1.2 3-.9 7.1-3-.6-5.6-5L0 10.3l.7-2.7Q1.1 6 1.9 5.3zm-.8 7.3q-1.1-.9-2-2.6.9 1.7 2 2.6"/><path fill="none" stroke="#3e2b0b" stroke-linecap="round" stroke-linejoin="round" stroke-width="__RESOLUTION__" d="M6.6 19q-3-.5-5.7-5L0 10.3l.7-2.7Q1.1 6 1.9 5.3L5 7.8m-2.8 4.7q.9 1.7 2 2.5" vector-effect="non-scaling-stroke"/></g><g id="m"><path fill="#a28a61" d="M11.9.1q.7 3.4.4 7.3h.1q.9 2.7-.5 5.3l-2.2.4q1.2-2.9 1-5.3l-.5.1q-.1 2-2 4.8l-.2.5-2.8.2q0-.8.8-2.1t.9-2.8l-1.4.3q.2 1-.5 2.3l-.6 1.2-.5.9-2.8.2v-.1l-.7-1q.9.4 2 0 1-1.4 1.3-2.2l.4-1.4Q4.2 5 3 1.9 7.9-.6 11.9 0"/><path fill="#826445" d="M3 1.9Q4.2 5 4.2 8.7L3.7 10q-.2.8-1.2 2.2-1.2.4-2.1 0L.3 12l-.1-.2q-.4-.9.2-1.8l.8-.7.6.7q-.1-.7-.7-2Q.3 6.9.2 5.4zm1.4 10.4.6-1.2q.7-1.2.5-2.3l1.4-.2q-.2 1.3-1 2.7t-.8 2.1zm3.9.4Q10 9.9 10.2 8l.5-.1q.2 2.4-1 5.2h-.1L9 13zm-6.5-2.5"/><path fill="none" stroke="#3e2b0b" stroke-linecap="round" stroke-linejoin="round" stroke-width="__RESOLUTION__" d="M12.4 7.4q.2-3.9-.6-7.3M.4 12.3l.7 1v0l2.8-.1.5-.9.6-1.2q.7-1.2.5-2.3m-.3 4.6 2.8-.2.3-.5Q10 9.9 10.2 8m-.5 5 2.2-.3q1.3-2.6.5-5.3M9.6 13H9l-.7-.3m-7.9-.4L.3 12l-.1-.2q-.4-.9.2-1.8l.8-.7.6.7q-.1-.7-.7-2Q.3 6.9.2 5.4m5 8.1-.8-1.1" vector-effect="non-scaling-stroke"/></g><g id="n"><path fill="#826445" d="M6.7 12.6q2.2 1.6.6 3.4t-2.8 2.1l-2.4.7q-1.2.3-1.5-1.7l-.4-3.3q0-1.2.8-1.7t2.2-.8 3.4 1.3z"/><path fill="none" stroke="#3e2b0b" stroke-linecap="round" stroke-linejoin="round" stroke-width="__RESOLUTION__" d="M6.7 12.6q2.2 1.6.6 3.4t-2.8 2.1l-2.4.7q-1.2.3-1.5-1.7l-.4-3.3q0-1.2.8-1.7t2.2-.8 3.4 1.3z" vector-effect="non-scaling-stroke"/><path fill="#826445" d="M0 14.3Q-.1 3.9 7.6 0l.7.2q-5.4 8-5.9 14.7-2-1.2-2.4-.6"/><path fill="#a28a61" d="M2.5 14.9Q3 8.3 8.3.2q4.7.9 6.2 7l-.1 1q-.8 2.9-2.9 5.2-2.1 2.2-6.3 2.5-1.5-.2-2.7-1"/><path fill="none" stroke="#3e2b0b" stroke-linecap="round" stroke-linejoin="round" stroke-width="__RESOLUTION__" d="M8.3.2 7.6 0Q-.1 3.9 0 14.3M8.3.2q4.7.9 6.2 7" vector-effect="non-scaling-stroke"/></g><g id="o"><path fill="#826445" d="M13.8 16.5q.3 1.6-.9 3t-3.1 2l-2.1.4q-3.3 0-5.1-3.6L.8 9.8Q.2 6.5 0 3.5q1.5-2.3 2.6-3Q4.4 8.8 8 15.8q2.8-.4 5.8.7"/><path fill="#8f7b5c" d="M13.8 16.5q-3-1.1-5.8-.7Q4.6 8.8 2.7.5l.2-.1q1.3-.7 3 .6l3.6 4.8q3.3 4.6 4.4 10.7"/><path fill="none" stroke="#3e2b0b" stroke-linecap="round" stroke-linejoin="round" stroke-width="__RESOLUTION__" d="M2.6.5q-1.2.7-2.6 3 .2 3 .8 6.3l1.8 8.5q1.8 3.6 5.1 3.6l2.1-.4q2-.6 3.1-2t.8-3q-1-6.1-4.4-10.7L5.8 1Q4.1-.3 2.8.4z" vector-effect="non-scaling-stroke"/><path fill="#9f764d" d="m12 3.8 1.5 3.8q.4 5.3-1.7 7.1Q11.5 6.8 7.7 0q1 .4 2.2 1.7zm.2 5.8q.4-1.2 0-3.2.4 2 0 3.2"/><path fill="#84613e" d="M7.7 0q3.8 6.8 4.1 14.7-3.2-3.4-4.6-6.1-.8-2.4-.6-4.8z"/><path fill="none" stroke="#6a4f33" stroke-linecap="round" stroke-linejoin="round" stroke-width="__RESOLUTION__" d="M11.8 14.7q2-1.8 1.7-7.1l-1.4-3.8" vector-effect="non-scaling-stroke"/><path fill="none" stroke="#3e2b0b" stroke-linecap="round" stroke-linejoin="round" stroke-width="__RESOLUTION__" d="M11.8 14.7q-3.2-3.4-4.6-6.1-.8-2.4-.6-4.8m5.7 2.5q.2 2-.2 3.3" vector-effect="non-scaling-stroke"/></g><g id="p"><path fill="#a28a61" d="M5.6 0Q6-.1 7.8 1q.8.7 1.3 2.2l.7 2.3q0 2.3-.6 4.3Q8.9 11 8 11.4L5 13l-2.1-1.8q1.2-.8 2.4-6L6 2.7q.1-1-.4-2.6"/><path fill="#826445" d="M2.8 11.2Q1.2 9.8.4 7.8t.4-4.1 2-2.3h.1L5.6 0Q6 1.7 6 2.7l-.8 2.6Q4 10.4 2.8 11.2"/><path fill="none" stroke="#3e2b0b" stroke-linecap="round" stroke-linejoin="round" stroke-width="__RESOLUTION__" d="M5.6 0Q6-.1 7.8 1q.8.7 1.3 2.2l.7 2.3q0 2.3-.6 4.3Q8.9 11 8 11.4L5 13M3 1.4 5.6 0" vector-effect="non-scaling-stroke"/><path fill="none" stroke="#000" stroke-linecap="round" stroke-linejoin="round" stroke-opacity=".3" stroke-width="__RESOLUTION__" d="M.4 7.8q-.9-2 .4-4.1 1.2-2.1 2-2.3H3h-.1 0" vector-effect="non-scaling-stroke"/></g><g id="q"><path fill="#a28a61" d="M4.8 1.5Q7 .1 7.8 0l2.5.2L12 7l.2.4q.5 2 .2 4.3l-.8.5.1.3q-.3 1.2-1.4 1.2l-.1-1q-.1-2.5-.7-4.8l-.1-.5-.4.2q.1 1.1-.3 2.8l-.4 1.5-.4 2.3q-.7.6-2 .3-.2-1.2.4-3.1l.6-2.8V7.5H7q-.4-3.5-2.2-6m4.1 6.1L8.8 7zm2.7 4.6L11.3 7z"/><path fill="#d0bc93" d="m12 7 .2.4z"/><path fill="#826445" d="M10.3 13.7q-1.6.4-2.1-.6v-1.2l.5-1.6Q9 8.8 9 7.7l.4-.2.1.5q.6 2.2.7 4.7zm-4.4.8q-.8-.3-1-.9-.4-1.3 0-2.9l.4-.9q-.6-.2-1-.6.3 1.4-.1 2.9-1.2 1-2.4.9-1.4-.4-1.7-1.9-.3-2.4.4-3.9.3-1.6 1.2-2.7L2 4q2.4-1.8 2.8-2.5Q6.6 4 7 7.5h-.1v1l-.6 2.9q-.6 1.9-.4 3M4.2 9.3q-.1-.7-.5-1.3.4.5.5 1.3m1.1.6.4-2.1z"/><path fill="none" stroke="#3e2b0b" stroke-linecap="round" stroke-linejoin="round" stroke-width="__RESOLUTION__" d="M10.3.2 12 7l.2.4L12 7m.2.4q.5 2 .2 4.3l-.8.5.1.3q-.3 1.2-1.4 1.2-1.6.4-2.1-.6v-1.2L8 14.2q-.7.6-2 .3-.8-.2-1-.8-.4-1.4 0-3l.4-.9q-.6-.2-1-.6.3 1.4-.1 2.9-1.2 1-2.4.9-1.4-.4-1.7-1.8-.3-2.4.4-4 .3-1.5 1.2-2.7L2 4m7 3.6q.1 1.1-.4 2.8l-.4 1.4M8.7 7l.2.7m2.4-.6.3 5.2M3.7 7.9q.4.5.5 1.3m1.5-1.5-.4 2.1" vector-effect="non-scaling-stroke"/></g><g id="R"><path fill="#f8e9cb" d="M0 1.1.5.4q.6-1 3.8.9.9-.8 4.5.7 0-1 4.6-.6Q12.8.2 16 0q1.7.7.8 2.8l-1.3 1q-1 1.2-3 .9Q9 6.3 6 4.7q-3.8-.2-5.5-2Q-.1 2.2 0 1m13.2.3q-.2 1 2.3 2.5-2.4-1.4-2.3-2.5M6 4.7Q3 3.2 4.2 1.3 3 3.3 6 4.7M8.7 2q1 2.1 3.9 2.8Q9.7 4 8.7 2"/><path fill="none" stroke="#1f1f1f" stroke-linecap="round" stroke-linejoin="round" stroke-opacity=".3" stroke-width="__RESOLUTION__" d="M16.1.1q1.7.7.8 2.8l-1.3 1q-1 1.2-3 .9Q9 6.3 6 4.7q-3.8-.2-5.5-2Q-.1 2.2 0 1m15.5 2.8q-2.4-1.4-2.3-2.5m-9.1-.1Q3 3.3 5.9 4.7m6.7 0Q9.7 4.2 8.7 2" vector-effect="non-scaling-stroke"/></g><g id="Q" transform="translate(1.65 -.15)"><use xlink:href="#s" width="5.7" height="9.3" transform="translate(-1.65 .15)"/><use xlink:href="#E" width="4.6" height="9.3" transform="translate(-.55 .15)"/></g><g id="P"><path fill="#a28a61" d="m10.4.7 4.9-.5q-.7 2-.2 5 .5 3.4.1 5.3l-.8 1.1z"/><path fill="#928a72" d="M10.4.7"/><path fill="#826445" d="m10.3.7 4 11-1.6 1-3.5 1-.3.2H4.6q-1-.6-3-3.2Q.9 10.2.8 9L.5 6.4.2 2.6Q.2.2 0 0z"/><path fill="none" stroke="#3e2b0b" stroke-linecap="round" stroke-linejoin="round" stroke-width="__RESOLUTION__" d="m14.4 11.7.8-1.2q.4-2-.1-5.2-.4-3.1.2-5.1M0 0q.2.2.2 2.7l.3 3.7L.8 9q.1 1.2.8 1.8 2 2.7 3 3.3l4.3-.2h.3" vector-effect="non-scaling-stroke"/><path fill="none" stroke="#785e32" stroke-linecap="round" stroke-linejoin="round" stroke-width="__RESOLUTION__" d="m9.2 13.8 3.5-1.1 1.7-1" vector-effect="non-scaling-stroke"/></g><g id="T" transform="translate(5.8 1.65)"><use xlink:href="#F" width="18.2" height="20.6" transform="translate(-5.8 -1.65)"/><use xlink:href="#G" width="18.1" height="20.6" transform="translate(-5.75 -1.65)"/></g><g id="S"><path fill="#826445" d="M4.3 30.5q-.4-3.1-4-13.4-1-6.6 1.3-13.1Q7-1.6 15.8.6h.2q7.4 2.2 9.3 8.4-.1 7.2-4.1 11.4-1.3-.4-2.2.6-2.2 2.6-3.9 4l-1.2 3.2q-.5 1.7.3 3-6.1 1.3-9.9-.7m2.9-2.7q-1-7.3-.3-11.8-.6 4.5.3 11.8m-4.8-7.5L.3 17zm18-6.5q-2.7 6.6-8 7.8 5.3-1.2 8-7.8"/><path fill="#a28a61" d="m21.2 20.4-1.6 4.7q-1 2.9-1.1 5.8l-4.4.3q-.7-1.3-.3-3l1.3-3.2q1.7-1.5 3.9-4 .8-1 2.2-.6"/><path fill="none" stroke="#3e2b0b" stroke-linecap="round" stroke-linejoin="round" stroke-width="__RESOLUTION__" d="M4.3 30.5q-.4-3.1-4-13.4-1-6.6 1.3-13.1Q7-1.6 15.8.6h.2q7.4 2.2 9.3 8.4-.1 7.2-4.1 11.4l-1.6 4.7q-1 2.9-1.1 5.8M6.9 16q-.6 4.5.3 11.8M.3 17.1l2.1 3.2m10 1.3q5.3-1.2 8-7.8" vector-effect="non-scaling-stroke"/></g><g id="Y"><path fill="#a28a61" d="M0 10.7Q.2 6.2 5.3 0q1 5.3.4 10.7-2.1 1.2-4 .4-.8 0-1.7-.4m3.9-5.9q-1.6 1.7-2.2 6.3.5-4.6 2.2-6.3"/><path fill="none" stroke="#3e2b0b" stroke-linecap="round" stroke-linejoin="round" stroke-width="__RESOLUTION__" d="M0 10.7Q.2 6.2 5.3 0q1 5.3.4 10.7m-4 .4q.6-4.6 2.2-6.3" vector-effect="non-scaling-stroke"/></g><g id="X" transform="translate(3.1 7.65)"><use xlink:href="#H" width="6" height="7.6" transform="translate(-3.1 -7.65)"/><use xlink:href="#I" width="6" height="7.6" transform="translate(-3.1 -7.65)"/><use xlink:href="#J" width="4.5" height="2" transform="translate(-2 -1.2)"/><use xlink:href="#K" width="4.5" height="2" transform="translate(-2 -1.2)"/></g><g id="W"><path fill="#6a8c1e" d="m28.8 37.9-5 .2-2.6-2.4v-5.2l3.6 2.3 5.3-1.5z"/><path fill="none" stroke="#785e32" stroke-linecap="round" stroke-linejoin="round" stroke-width="__RESOLUTION__" d="m28.8 37.9 1.2-6.5-5.2 1.4-3.6-2.3v5.2l2.6 2.3z" vector-effect="non-scaling-stroke"/><path fill="#fff" d="m25.3 32 3.3.5-1.2 6.5z"/><path fill="none" stroke="#35271a" stroke-linecap="round" stroke-linejoin="round" stroke-width="__RESOLUTION__" d="M28.7 32.5 27.4 39" vector-effect="non-scaling-stroke"/><path fill="none" stroke="#fff" stroke-linecap="round" stroke-linejoin="round" stroke-width="__RESOLUTION__" d="m27.5 39-2.3-7" vector-effect="non-scaling-stroke"/><path fill="#88b526" d="M20.8 12q1.9 4.9 4.7 7.2.9.7.8 1.3l-.5 1.1-1 2.8 3.9 2.9q1.7 1.9 1.2 5.4-5.2 1.1-6.1.6l1.1-4.8q-2.8-3.6-5.6-2.3-.9-5.3 1.4-14.3"/><path fill="#6a8c1e" d="m23.8 33.3-1.3 1.4L8.3 33Q1.8 19.2.2 17l-.2-.2.3-.5q1.4-2.8 5.8-4.7 1.5-2.3 6-2.1 4.7.1 8.7 2.5-2.4 8.9-1.6 14.2 2.9-1.2 5.8 2.3z"/><path fill="none" stroke="#000" stroke-linecap="round" stroke-linejoin="round" stroke-opacity=".3" stroke-width="__RESOLUTION__" d="M20.8 12q1.9 4.9 4.7 7.2.9.7.8 1.3l-.5 1.1-1 2.8 3.9 2.9q1.7 1.9 1.2 5.4m-6.1.6-1.3 1.4L8.3 33Q1.8 19.2.2 17l-.2-.2.3-.5q1.4-2.8 5.8-4.7 1.5-2.3 6-2.1 4.7.1 8.7 2.5" vector-effect="non-scaling-stroke"/><path fill="#fff" d="m22 24.3.7-3.6q.9.1 2 1.7.4.6.2 2z"/><path fill="none" stroke="#785e32" stroke-linecap="round" stroke-linejoin="round" stroke-width="__RESOLUTION__" d="M25 24.5q.1-1.5-.4-2.2-1-1.5-2-1.6l-.6 3.6" vector-effect="non-scaling-stroke"/><path fill="#826445" d="M3.2 12.3Q1.3 6.9 5 0q3 5.1 4 10.6-2 1.6-4.2 1.8z"/><path fill="none" stroke="#3e2b0b" stroke-linecap="round" stroke-linejoin="round" stroke-width="__RESOLUTION__" d="M3.2 12.3Q1.3 6.9 5 0q3 5.1 4 10.6" vector-effect="non-scaling-stroke"/></g><g id="V" transform="translate(1.95 .5)"><use xlink:href="#L" width="5.2" height="7.6" transform="translate(-1.95 -.1)"/><use xlink:href="#M" width="5.2" height="7.6" transform="translate(-1.95 -.1)"/><use xlink:href="#N" width="3.3" height="1.4" transform="translate(-1.65 -.5)"/><use xlink:href="#O" width=".8" height=".7" transform="translate(-.1 .1)"/></g><g id="U"><path fill="#5e4235" d="m0 0 3.7.8q.5 1.8-.3 4.8L0 3.4z"/><path fill="none" stroke="#715133" stroke-linecap="round" stroke-linejoin="round" stroke-width="__RESOLUTION__" d="m0 0 3.7.8q.5 1.8-.3 4.8L0 3.4" vector-effect="non-scaling-stroke"/></g><g id="ah" transform="translate(13.3 7.95)"><use xlink:href="#P" width="15.4" height="14.3" transform="translate(-8.2 -7.95)"/><use xlink:href="#Q" width="5.7" height="9.3" transform="matrix(-2.37 -.0316 -.5857 1.65 5.65 -2.8)"/><use xlink:href="#R" width="17.1" height="5.5" transform="translate(-9 -5.25)"/></g><g id="ag" transform="translate(19.55 15.85)"><use xlink:href="#S" width="25.3" height="31.7" transform="translate(-14.4 -13.55)"/><use xlink:href="#T" width="18.2" height="20.6" transform="matrix(-1.51 .0983 -.1133 1.47 10.3 -15.85)"/></g><g id="ab" transform="translate(1.65 23.5)"><use xlink:href="#U" width="3.9" height="5.6" transform="translate(24.25 3.1)"/><use xlink:href="#V" width="5.2" height="8" transform="matrix(-1.55 0 0 1.55 27.15 15)"/><use xlink:href="#W" width="30.1" height="39" transform="translate(-1.65 -22.05)"/><use xlink:href="#X" width="6" height="8.4" transform="translate(3.35 -23.5)scale(1.55)"/><use xlink:href="#Y" width="6" height="11.4" transform="translate(9.65 -19.3)"/></g><clipPath id="Z"><path d="M1 1h90v77H1z"/></clipPath><clipPath id="ao"><path d="M92 1h90v77H92z"/></clipPath><clipPath id="aq"><path d="M183 1h90v77h-90z"/></clipPath><clipPath id="as"><path d="M274 1h90v77h-90z"/></clipPath><clipPath id="au"><path d="M365 1h90v77h-90z"/></clipPath><clipPath id="aw"><path d="M456 1h90v77h-90z"/></clipPath><clipPath id="ay"><path d="M547 1h90v77h-90z"/></clipPath><clipPath id="aA"><path d="M638 1h90v77h-90z"/></clipPath><clipPath id="aC"><path d="M729 1h90v77h-90z"/></clipPath><clipPath id="aE"><path d="M820 1h90v77h-90z"/></clipPath><clipPath id="aF"><path d="M911 1h90v77h-90z"/></clipPath><path id="a" fill="#f8e9cb" d="m-2.6-.2-.5-2.5q-.4-.8.6-.4l1-.2h.3Q2-3.8 2.4-4.6q.3 1.8-.6 5.7-.1-.1-.7 1l-1 1.4-.5.6-.6.5q-.2.2-.3-.6-.4-1-.8-1.5z" transform="translate(3.2 4.6)"/><path id="b" fill="#88b526" d="m0-10 .5.2 1.2.3L3-8.2l.8 1H4l1.4.8.8 1q0 .4-.4.5l1.5 1.4q.5.8.3 1.2-.1.4-.9.2l-.5-.1q1 2.8 1.1 5 .2 3.9-3.6 5L3 9q-1.1 1-3.5 1.3l-.9-.2q-1-.5-2.2-2.5-1.7-2.9-3-6.3-5.2-6-3.4-7.3t4.2-3.5q2.7-1.2 5.9-.5" transform="translate(10.5 10.3)"/><path id="c" fill="#ff910b" d="M1.4 1.9q-1-.2-1.3-.6-.2-.2 0-.6V.5q.3-.5 2 .4 0-.5 2.2-.9.5.2.2 1Q4 2 3 1.9q-.4.3-1.6 0"/><path id="d" fill="#88b526" d="m.9 3.2-.7.3-.8-.1-.3.4Q-2.4 3.7-3 .3l1 .8.3.1-.1-1.1-.1-2.8-.3-1.1L.6-1.1q.7.8.9 1.8l.2-.3L3-.5q.2 3.4-2 3.9z" transform="translate(3 3.8)"/><path id="e" fill="#88b526" d="m.3-3.3.1-.3q1.9.1 2.2 3.5L1.4-1h-.1Q1.2-.2.5.8l-1 1.5-.9 1.5q.2-1.4-.2-3.8l-.1-1.1-.2.2-.7.9q-.2-3.4 1.3-3.8l.2.4.2-.1z" transform="translate(2.55 3.8)"/><path id="g" fill="#000" fill-opacity=".4" d="M13.9-.8q0 1.6-4 3T.3 3.9l-9.9-.5q-4.1-1-4.2-2.6 0-1.6 4-3t9.7-1.6l9.8.5q4.1.9 4.2 2.5" transform="translate(13.85 3.95)"/><path id="E" fill="none" stroke="#1f1f1f" stroke-linecap="round" stroke-linejoin="round" stroke-opacity=".5" stroke-width="__RESOLUTION__" d="M-.5 7.3q.5.5.7 1.5.1.7.3.6l.6-.5.1-.1.6-.5.9-1.4q.6-1.1.7-1 .9-4 .6-5.7" transform="translate(.55 -.15)" vector-effect="non-scaling-stroke"/><path id="K" fill="none" stroke="#1f1f1f" stroke-linecap="round" stroke-linejoin="round" stroke-opacity=".3" stroke-width="__RESOLUTION__" d="M2.3-1.2q.5.2.2 1Q2 .8 1 .7.5 1-.6.7q-1-.2-1.3-.6-.2-.2 0-.6M1 .7Q.5.6.2-.3" transform="translate(2 1.2)" vector-effect="non-scaling-stroke"/><path id="O" fill="none" stroke="#1f1f1f" stroke-linecap="round" stroke-linejoin="round" stroke-opacity=".3" stroke-width="__RESOLUTION__" d="m-.1.1.8.7" transform="translate(.1 -.1)" vector-effect="non-scaling-stroke"/></defs><g clip-path="url(#Z)"><g transform="translate(59.95 72.6)"><use xlink:href="#aa" width="12.9" height="4.3" transform="matrix(-1 0 0 1 6.15 -2.45)"/><use xlink:href="#ab" width="30.1" height="51" transform="matrix(1.0141 .0415 -.0362 .9985 -.25 -71.6)"/><use xlink:href="#ac" width="12.4" height="14.6" transform="matrix(1.0032 -.0774 .0015 .9946 -12.9 -30.7)"/><use xlink:href="#ad" width="9.8" height="12.9" transform="matrix(1.0658 -.2213 .0127 1.0875 -11.2 -21.55)"/><use xlink:href="#ae" width="13.8" height="21.9" transform="matrix(1.0032 -.0774 .0044 .9944 -15.5 -43.45)"/><use xlink:href="#af" width="14.5" height="18.9" transform="matrix(-.4879 -.87 -.87 .4879 6.25 -51.3)"/><use xlink:href="#ag" width="30.4" height="34" transform="matrix(1.0565 .0318 0 1 -17.3 -60.25)"/><use xlink:href="#ah" width="21.4" height="20.4" transform="matrix(1 0 .1572 1 -12.65 -27.05)"/><use xlink:href="#ad" width="9.8" height="12.9" transform="matrix(1.1951 0 0 1.0901 3.25 -20.9)"/><use xlink:href="#ai" width="12.7" height="13.6" transform="matrix(.802 -.2395 .1324 .9798 13.95 -20.9)"/><use xlink:href="#af" width="14.5" height="18.9" transform="matrix(-.7375 -.671 -.671 .7375 25 -44.7)"/><use xlink:href="#aj" width="15.1" height="22.1" transform="matrix(.9916 -.1031 .0813 1 7.6 -37.5)"/><use xlink:href="#ak" width="14.7" height="17.6" transform="translate(2.35 -14.2)"/><use xlink:href="#al" width="11.7" height="16.7" transform="translate(-11.95 -16.2)"/><use xlink:href="#am" width="33" height="20.6" transform="rotate(-6.058 -160.945 292.81)scale(.9997)"/><use xlink:href="#an" width="36.4" height="34.2" transform="matrix(-1 0 0 1 -22.6 -69.5)"/></g></g><g clip-path="url(#ao)"><g transform="translate(150.95 72.6)"><use xlink:href="#aa" width="12.9" height="4.3" transform="matrix(-1 0 0 1 6.15 -2.45)"/><use xlink:href="#ab" width="30.1" height="51" transform="matrix(1.0141 .0415 -.0362 .9985 -.25 -71.6)"/><use xlink:href="#ac" width="12.4" height="14.6" transform="matrix(1.0032 -.0774 .0015 .9946 -12.9 -30.7)"/><use xlink:href="#ad" width="9.8" height="12.9" transform="matrix(1.0658 -.2213 .0127 1.0875 -11.2 -21.55)"/><use xlink:href="#ae" width="13.8" height="21.9" transform="matrix(1.0032 -.0774 .0044 .9944 -15.5 -43.45)"/><use xlink:href="#af" width="14.5" height="18.9" transform="matrix(-.4879 -.87 -.87 .4879 6.25 -51.3)"/><use xlink:href="#ag" width="30.4" height="34" transform="matrix(1.0565 .0318 0 1 -17.3 -60.25)"/><use xlink:href="#ah" width="21.4" height="20.4" transform="matrix(1 0 .1572 1 -12.65 -27.05)"/><use xlink:href="#ad" width="9.8" height="12.9" transform="matrix(1.1951 0 0 1.0901 3.25 -20.9)"/><use xlink:href="#ai" width="12.7" height="13.6" transform="matrix(.802 -.2395 .1324 .9798 13.95 -20.9)"/><use xlink:href="#af" width="14.5" height="18.9" transform="matrix(-.7375 -.671 -.671 .7375 25 -44.7)"/><use xlink:href="#aj" width="15.1" height="22.1" transform="matrix(.9916 -.1031 .0813 1 7.6 -37.5)"/><use xlink:href="#ak" width="14.7" height="17.6" transform="translate(2.35 -14.2)"/><use xlink:href="#al" width="11.7" height="16.7" transform="translate(-11.95 -16.2)"/><use xlink:href="#am" width="33" height="20.6" transform="rotate(-6.058 -160.945 292.81)scale(.9997)"/><use xlink:href="#ap" width="36.4" height="34.2" transform="matrix(-1 0 0 1 -22.6 -69.5)"/></g></g><g clip-path="url(#aq)"><g transform="translate(241.95 72.6)"><use xlink:href="#aa" width="12.9" height="4.3" transform="matrix(-1 0 0 1 6.15 -2.45)"/><use xlink:href="#ab" width="30.1" height="51" transform="matrix(1.0141 .0415 -.0362 .9985 -.25 -71.6)"/><use xlink:href="#ac" width="12.4" height="14.6" transform="matrix(1.0032 -.0774 .0015 .9946 -12.9 -30.7)"/><use xlink:href="#ad" width="9.8" height="12.9" transform="matrix(1.0658 -.2213 .0127 1.0875 -11.2 -21.55)"/><use xlink:href="#ae" width="13.8" height="21.9" transform="matrix(1.0032 -.0774 .0044 .9944 -15.5 -43.45)"/><use xlink:href="#af" width="14.5" height="18.9" transform="matrix(-.4879 -.87 -.87 .4879 6.25 -51.3)"/><use xlink:href="#ag" width="30.4" height="34" transform="matrix(1.0565 .0318 0 1 -17.3 -60.25)"/><use xlink:href="#ah" width="21.4" height="20.4" transform="matrix(1 0 .1572 1 -12.65 -27.05)"/><use xlink:href="#ad" width="9.8" height="12.9" transform="matrix(1.1951 0 0 1.0901 3.25 -20.9)"/><use xlink:href="#ai" width="12.7" height="13.6" transform="matrix(.802 -.2395 .1324 .9798 13.95 -20.9)"/><use xlink:href="#af" width="14.5" height="18.9" transform="matrix(-.7375 -.671 -.671 .7375 25 -44.7)"/><use xlink:href="#aj" width="15.1" height="22.1" transform="matrix(.9916 -.1031 .0813 1 7.6 -37.5)"/><use xlink:href="#ak" width="14.7" height="17.6" transform="translate(2.35 -14.2)"/><use xlink:href="#al" width="11.7" height="16.7" transform="translate(-11.95 -16.2)"/><use xlink:href="#am" width="33" height="20.6" transform="rotate(-6.058 -160.945 292.81)scale(.9997)"/><use xlink:href="#ar" width="36.4" height="34.2" transform="matrix(-1 0 0 1 -22.6 -69.5)"/></g></g><g clip-path="url(#as)"><g transform="translate(332.95 72.6)"><use xlink:href="#aa" width="12.9" height="4.3" transform="matrix(-1 0 0 1 6.15 -2.45)"/><use xlink:href="#ab" width="30.1" height="51" transform="matrix(1.0141 .0415 -.0362 .9985 -.25 -71.6)"/><use xlink:href="#ac" width="12.4" height="14.6" transform="matrix(1.0032 -.0774 .0015 .9946 -12.9 -30.7)"/><use xlink:href="#ad" width="9.8" height="12.9" transform="matrix(1.0658 -.2213 .0127 1.0875 -11.2 -21.55)"/><use xlink:href="#ae" width="13.8" height="21.9" transform="matrix(1.0032 -.0774 .0044 .9944 -15.5 -43.45)"/><use xlink:href="#af" width="14.5" height="18.9" transform="matrix(-.4879 -.87 -.87 .4879 6.25 -51.3)"/><use xlink:href="#ag" width="30.4" height="34" transform="matrix(1.0565 .0318 0 1 -17.3 -60.25)"/><use xlink:href="#ah" width="21.4" height="20.4" transform="matrix(1 0 .1572 1 -12.65 -27.05)"/><use xlink:href="#ad" width="9.8" height="12.9" transform="matrix(1.1951 0 0 1.0901 3.25 -20.9)"/><use xlink:href="#ai" width="12.7" height="13.6" transform="matrix(.802 -.2395 .1324 .9798 13.95 -20.9)"/><use xlink:href="#af" width="14.5" height="18.9" transform="matrix(-.7375 -.671 -.671 .7375 25 -44.7)"/><use xlink:href="#aj" width="15.1" height="22.1" transform="matrix(.9916 -.1031 .0813 1 7.6 -37.5)"/><use xlink:href="#ak" width="14.7" height="17.6" transform="translate(2.35 -14.2)"/><use xlink:href="#al" width="11.7" height="16.7" transform="translate(-11.95 -16.2)"/><use xlink:href="#am" width="33" height="20.6" transform="rotate(-6.058 -160.945 292.81)scale(.9997)"/><use xlink:href="#at" width="36.4" height="34.2" transform="matrix(-1 0 0 1 -22.6 -69.5)"/></g></g><g clip-path="url(#au)"><g transform="translate(423.95 72.6)"><use xlink:href="#aa" width="12.9" height="4.3" transform="matrix(-1 0 0 1 6.15 -2.45)"/><use xlink:href="#ab" width="30.1" height="51" transform="matrix(1.0141 .0415 -.0362 .9985 -.25 -71.6)"/><use xlink:href="#ac" width="12.4" height="14.6" transform="matrix(1.0032 -.0774 .0015 .9946 -12.9 -30.7)"/><use xlink:href="#ad" width="9.8" height="12.9" transform="matrix(1.0658 -.2213 .0127 1.0875 -11.2 -21.55)"/><use xlink:href="#ae" width="13.8" height="21.9" transform="matrix(1.0032 -.0774 .0044 .9944 -15.5 -43.45)"/><use xlink:href="#af" width="14.5" height="18.9" transform="matrix(-.4879 -.87 -.87 .4879 6.25 -51.3)"/><use xlink:href="#ag" width="30.4" height="34" transform="matrix(1.0565 .0318 0 1 -17.3 -60.25)"/><use xlink:href="#ah" width="21.4" height="20.4" transform="matrix(1 0 .1572 1 -12.65 -27.05)"/><use xlink:href="#ad" width="9.8" height="12.9" transform="matrix(1.1951 0 0 1.0901 3.25 -20.9)"/><use xlink:href="#ai" width="12.7" height="13.6" transform="matrix(.802 -.2395 .1324 .9798 13.95 -20.9)"/><use xlink:href="#af" width="14.5" height="18.9" transform="matrix(-.7375 -.671 -.671 .7375 25 -44.7)"/><use xlink:href="#aj" width="15.1" height="22.1" transform="matrix(.9916 -.1031 .0813 1 7.6 -37.5)"/><use xlink:href="#ak" width="14.7" height="17.6" transform="translate(2.35 -14.2)"/><use xlink:href="#al" width="11.7" height="16.7" transform="translate(-11.95 -16.2)"/><use xlink:href="#am" width="33" height="20.6" transform="rotate(-6.058 -160.945 292.81)scale(.9997)"/><use xlink:href="#av" width="36.4" height="34.2" transform="matrix(-1 0 0 1 -22.6 -69.5)"/></g></g><g clip-path="url(#aw)"><g transform="translate(514.95 72.6)"><use xlink:href="#aa" width="12.9" height="4.3" transform="matrix(-1 0 0 1 6.15 -2.45)"/><use xlink:href="#ab" width="30.1" height="51" transform="matrix(1.0141 .0415 -.0362 .9985 -.25 -71.6)"/><use xlink:href="#ac" width="12.4" height="14.6" transform="matrix(1.0032 -.0774 .0015 .9946 -12.9 -30.7)"/><use xlink:href="#ad" width="9.8" height="12.9" transform="matrix(1.0658 -.2213 .0127 1.0875 -11.2 -21.55)"/><use xlink:href="#ae" width="13.8" height="21.9" transform="matrix(1.0032 -.0774 .0044 .9944 -15.5 -43.45)"/><use xlink:href="#af" width="14.5" height="18.9" transform="matrix(-.4879 -.87 -.87 .4879 6.25 -51.3)"/><use xlink:href="#ag" width="30.4" height="34" transform="matrix(1.0565 .0318 0 1 -17.3 -60.25)"/><use xlink:href="#ah" width="21.4" height="20.4" transform="matrix(1 0 .1572 1 -12.65 -27.05)"/><use xlink:href="#ad" width="9.8" height="12.9" transform="matrix(1.1951 0 0 1.0901 3.25 -20.9)"/><use xlink:href="#ai" width="12.7" height="13.6" transform="matrix(.802 -.2395 .1324 .9798 13.95 -20.9)"/><use xlink:href="#af" width="14.5" height="18.9" transform="matrix(-.7375 -.671 -.671 .7375 25 -44.7)"/><use xlink:href="#aj" width="15.1" height="22.1" transform="matrix(.9916 -.1031 .0813 1 7.6 -37.5)"/><use xlink:href="#ak" width="14.7" height="17.6" transform="translate(2.35 -14.2)"/><use xlink:href="#al" width="11.7" height="16.7" transform="translate(-11.95 -16.2)"/><use xlink:href="#am" width="33" height="20.6" transform="rotate(-6.058 -160.945 292.81)scale(.9997)"/><use xlink:href="#ax" width="36.4" height="34.2" transform="matrix(-1 0 0 1 -22.6 -69.5)"/></g></g><g clip-path="url(#ay)"><g transform="translate(605.95 72.6)"><use xlink:href="#aa" width="12.9" height="4.3" transform="matrix(-1 0 0 1 6.15 -2.45)"/><use xlink:href="#ab" width="30.1" height="51" transform="matrix(1.0141 .0415 -.0362 .9985 -.25 -71.6)"/><use xlink:href="#ac" width="12.4" height="14.6" transform="matrix(1.0032 -.0774 .0015 .9946 -12.9 -30.7)"/><use xlink:href="#ad" width="9.8" height="12.9" transform="matrix(1.0658 -.2213 .0127 1.0875 -11.2 -21.55)"/><use xlink:href="#ae" width="13.8" height="21.9" transform="matrix(1.0032 -.0774 .0044 .9944 -15.5 -43.45)"/><use xlink:href="#af" width="14.5" height="18.9" transform="matrix(-.4879 -.87 -.87 .4879 6.25 -51.3)"/><use xlink:href="#ag" width="30.4" height="34" transform="matrix(1.0565 .0318 0 1 -17.3 -60.25)"/><use xlink:href="#ah" width="21.4" height="20.4" transform="matrix(1 0 .1572 1 -12.65 -27.05)"/><use xlink:href="#ad" width="9.8" height="12.9" transform="matrix(1.1951 0 0 1.0901 3.25 -20.9)"/><use xlink:href="#ai" width="12.7" height="13.6" transform="matrix(.802 -.2395 .1324 .9798 13.95 -20.9)"/><use xlink:href="#af" width="14.5" height="18.9" transform="matrix(-.7375 -.671 -.671 .7375 25 -44.7)"/><use xlink:href="#aj" width="15.1" height="22.1" transform="matrix(.9916 -.1031 .0813 1 7.6 -37.5)"/><use xlink:href="#ak" width="14.7" height="17.6" transform="translate(2.35 -14.2)"/><use xlink:href="#al" width="11.7" height="16.7" transform="translate(-11.95 -16.2)"/><use xlink:href="#am" width="33" height="20.6" transform="rotate(-6.058 -160.945 292.81)scale(.9997)"/><use xlink:href="#az" width="36.4" height="34.2" transform="matrix(-1 0 0 1 -22.6 -69.5)"/></g></g><g clip-path="url(#aA)"><g transform="translate(696.95 72.6)"><use xlink:href="#aa" width="12.9" height="4.3" transform="matrix(-1 0 0 1 6.15 -2.45)"/><use xlink:href="#ab" width="30.1" height="51" transform="matrix(1.0141 .0415 -.0362 .9985 -.25 -71.6)"/><use xlink:href="#ac" width="12.4" height="14.6" transform="matrix(1.0032 -.0774 .0015 .9946 -12.9 -30.7)"/><use xlink:href="#ad" width="9.8" height="12.9" transform="matrix(1.0658 -.2213 .0127 1.0875 -11.2 -21.55)"/><use xlink:href="#ae" width="13.8" height="21.9" transform="matrix(1.0032 -.0774 .0044 .9944 -15.5 -43.45)"/><use xlink:href="#af" width="14.5" height="18.9" transform="matrix(-.4879 -.87 -.87 .4879 6.25 -51.3)"/><use xlink:href="#ag" width="30.4" height="34" transform="matrix(1.0565 .0318 0 1 -17.3 -60.25)"/><use xlink:href="#ah" width="21.4" height="20.4" transform="matrix(1 0 .1572 1 -12.65 -27.05)"/><use xlink:href="#ad" width="9.8" height="12.9" transform="matrix(1.1951 0 0 1.0901 3.25 -20.9)"/><use xlink:href="#ai" width="12.7" height="13.6" transform="matrix(.802 -.2395 .1324 .9798 13.95 -20.9)"/><use xlink:href="#af" width="14.5" height="18.9" transform="matrix(-.7375 -.671 -.671 .7375 25 -44.7)"/><use xlink:href="#aj" width="15.1" height="22.1" transform="matrix(.9916 -.1031 .0813 1 7.6 -37.5)"/><use xlink:href="#ak" width="14.7" height="17.6" transform="translate(2.35 -14.2)"/><use xlink:href="#al" width="11.7" height="16.7" transform="translate(-11.95 -16.2)"/><use xlink:href="#am" width="33" height="20.6" transform="rotate(-6.058 -160.945 292.81)scale(.9997)"/><use xlink:href="#aB" width="36.4" height="34.2" transform="matrix(-1 0 0 1 -22.6 -69.5)"/></g></g><g clip-path="url(#aC)"><g transform="translate(787.95 72.6)"><use xlink:href="#aa" width="12.9" height="4.3" transform="matrix(-1 0 0 1 6.15 -2.45)"/><use xlink:href="#ab" width="30.1" height="51" transform="matrix(1.0141 .0415 -.0362 .9985 -.25 -71.6)"/><use xlink:href="#ac" width="12.4" height="14.6" transform="matrix(1.0032 -.0774 .0015 .9946 -12.9 -30.7)"/><use xlink:href="#ad" width="9.8" height="12.9" transform="matrix(1.0658 -.2213 .0127 1.0875 -11.2 -21.55)"/><use xlink:href="#ae" width="13.8" height="21.9" transform="matrix(1.0032 -.0774 .0044 .9944 -15.5 -43.45)"/><use xlink:href="#af" width="14.5" height="18.9" transform="matrix(-.4879 -.87 -.87 .4879 6.25 -51.3)"/><use xlink:href="#ag" width="30.4" height="34" transform="matrix(1.0565 .0318 0 1 -17.3 -60.25)"/><use xlink:href="#ah" width="21.4" height="20.4" transform="matrix(1 0 .1572 1 -12.65 -27.05)"/><use xlink:href="#ad" width="9.8" height="12.9" transform="matrix(1.1951 0 0 1.0901 3.25 -20.9)"/><use xlink:href="#ai" width="12.7" height="13.6" transform="matrix(.802 -.2395 .1324 .9798 13.95 -20.9)"/><use xlink:href="#af" width="14.5" height="18.9" transform="matrix(-.7375 -.671 -.671 .7375 25 -44.7)"/><use xlink:href="#aj" width="15.1" height="22.1" transform="matrix(.9916 -.1031 .0813 1 7.6 -37.5)"/><use xlink:href="#ak" width="14.7" height="17.6" transform="translate(2.35 -14.2)"/><use xlink:href="#al" width="11.7" height="16.7" transform="translate(-11.95 -16.2)"/><use xlink:href="#am" width="33" height="20.6" transform="rotate(-6.058 -160.945 292.81)scale(.9997)"/><use xlink:href="#aD" width="36.4" height="34.2" transform="matrix(-1 0 0 1 -22.6 -69.5)"/></g></g><g clip-path="url(#aE)"><g transform="translate(878.95 72.6)"><use xlink:href="#aa" width="12.9" height="4.3" transform="matrix(-1 0 0 1 6.15 -2.45)"/><use xlink:href="#ab" width="30.1" height="51" transform="matrix(1.0141 .0415 -.0362 .9985 -.25 -71.6)"/><use xlink:href="#ac" width="12.4" height="14.6" transform="matrix(1.0032 -.0774 .0015 .9946 -12.9 -30.7)"/><use xlink:href="#ad" width="9.8" height="12.9" transform="matrix(1.0658 -.2213 .0127 1.0875 -11.2 -21.55)"/><use xlink:href="#ae" width="13.8" height="21.9" transform="matrix(1.0032 -.0774 .0044 .9944 -15.5 -43.45)"/><use xlink:href="#af" width="14.5" height="18.9" transform="matrix(-.4879 -.87 -.87 .4879 6.25 -51.3)"/><use xlink:href="#ag" width="30.4" height="34" transform="matrix(1.0565 .0318 0 1 -17.3 -60.25)"/><use xlink:href="#ah" width="21.4" height="20.4" transform="matrix(1 0 .1572 1 -12.65 -27.05)"/><use xlink:href="#ad" width="9.8" height="12.9" transform="matrix(1.1951 0 0 1.0901 3.25 -20.9)"/><use xlink:href="#ai" width="12.7" height="13.6" transform="matrix(.802 -.2395 .1324 .9798 13.95 -20.9)"/><use xlink:href="#af" width="14.5" height="18.9" transform="matrix(-.7375 -.671 -.671 .7375 25 -44.7)"/><use xlink:href="#aj" width="15.1" height="22.1" transform="matrix(.9916 -.1031 .0813 1 7.6 -37.5)"/><use xlink:href="#ak" width="14.7" height="17.6" transform="translate(2.35 -14.2)"/><use xlink:href="#al" width="11.7" height="16.7" transform="translate(-11.95 -16.2)"/><use xlink:href="#am" width="33" height="20.6" transform="rotate(-6.058 -160.945 292.81)scale(.9997)"/></g></g><g clip-path="url(#aF)"><g transform="translate(969.95 72.6)"><use xlink:href="#aa" width="12.9" height="4.3" transform="matrix(-1 0 0 1 6.15 -2.45)"/><use xlink:href="#ab" width="30.1" height="51" transform="matrix(1.0141 .0415 -.0362 .9985 -.25 -71.6)"/><use xlink:href="#ac" width="12.4" height="14.6" transform="matrix(1.0032 -.0774 .0015 .9946 -12.9 -30.7)"/><use xlink:href="#ad" width="9.8" height="12.9" transform="matrix(1.0658 -.2213 .0127 1.0875 -11.2 -21.55)"/><use xlink:href="#ae" width="13.8" height="21.9" transform="matrix(1.0032 -.0774 .0044 .9944 -15.5 -43.45)"/><use xlink:href="#af" width="14.5" height="18.9" transform="matrix(-.4879 -.87 -.87 .4879 6.25 -51.3)"/><use xlink:href="#ag" width="30.4" height="34" transform="matrix(1.0565 .0318 0 1 -17.3 -60.25)"/><use xlink:href="#ah" width="21.4" height="20.4" transform="matrix(1 0 .1572 1 -12.65 -27.05)"/><use xlink:href="#ad" width="9.8" height="12.9" transform="matrix(1.1951 0 0 1.0901 3.25 -20.9)"/><use xlink:href="#ai" width="12.7" height="13.6" transform="matrix(.802 -.2395 .1324 .9798 13.95 -20.9)"/><use xlink:href="#af" width="14.5" height="18.9" transform="matrix(-.7375 -.671 -.671 .7375 25 -44.7)"/><use xlink:href="#aj" width="15.1" height="22.1" transform="matrix(.9916 -.1031 .0813 1 7.6 -37.5)"/><use xlink:href="#ak" width="14.7" height="17.6" transform="translate(2.35 -14.2)"/><use xlink:href="#al" width="11.7" height="16.7" transform="translate(-11.95 -16.2)"/><use xlink:href="#am" width="33" height="20.6" transform="rotate(-6.058 -160.945 292.81)scale(.9997)"/><use xlink:href="#aG" width="36.4" height="34.2" transform="matrix(-1 0 0 1 -22.6 -69.5)"/></g></g></svg>