<svg xmlns="http://www.w3.org/2000/svg" xmlns:xlink="http://www.w3.org/1999/xlink" width="1427" height="18" viewBox="0 0 1427 18"><defs><clipPath id="O"><path d="M1 1h30v16H1z"/></clipPath><clipPath id="R"><path d="M32 1h30v16H32z"/></clipPath><clipPath id="U"><path d="M63 1h30v16H63z"/></clipPath><clipPath id="X"><path d="M94 1h30v16H94z"/></clipPath><clipPath id="aa"><path d="M125 1h30v16h-30z"/></clipPath><clipPath id="ad"><path d="M156 1h30v16h-30z"/></clipPath><clipPath id="ag"><path d="M187 1h30v16h-30z"/></clipPath><clipPath id="aj"><path d="M218 1h30v16h-30z"/></clipPath><clipPath id="am"><path d="M249 1h30v16h-30z"/></clipPath><clipPath id="ap"><path d="M280 1h30v16h-30z"/></clipPath><clipPath id="as"><path d="M311 1h30v16h-30z"/></clipPath><clipPath id="au"><path d="M342 1h30v16h-30z"/></clipPath><clipPath id="ax"><path d="M373 1h30v16h-30z"/></clipPath><clipPath id="az"><path d="M404 1h30v16h-30z"/></clipPath><clipPath id="aB"><path d="M435 1h30v16h-30z"/></clipPath><clipPath id="aD"><path d="M466 1h30v16h-30z"/></clipPath><clipPath id="aF"><path d="M497 1h30v16h-30z"/></clipPath><clipPath id="aG"><path d="M528 1h30v16h-30z"/></clipPath><clipPath id="aI"><path d="M559 1h30v16h-30z"/></clipPath><clipPath id="aK"><path d="M590 1h30v16h-30z"/></clipPath><clipPath id="aM"><path d="M621 1h30v16h-30z"/></clipPath><clipPath id="aO"><path d="M652 1h30v16h-30z"/></clipPath><clipPath id="aQ"><path d="M683 1h30v16h-30z"/></clipPath><clipPath id="aS"><path d="M714 1h30v16h-30z"/></clipPath><clipPath id="aU"><path d="M745 1h30v16h-30z"/></clipPath><clipPath id="aW"><path d="M776 1h30v16h-30z"/></clipPath><clipPath id="aX"><path d="M807 1h30v16h-30z"/></clipPath><clipPath id="aY"><path d="M838 1h30v16h-30z"/></clipPath><clipPath id="aZ"><path d="M869 1h30v16h-30z"/></clipPath><clipPath id="bb"><path d="M900 1h30v16h-30z"/></clipPath><clipPath id="bc"><path d="M931 1h30v16h-30z"/></clipPath><clipPath id="bd"><path d="M962 1h30v16h-30z"/></clipPath><clipPath id="be"><path d="M993 1h30v16h-30z"/></clipPath><clipPath id="bg"><path d="M1024 1h30v16h-30z"/></clipPath><clipPath id="bh"><path d="M1055 1h30v16h-30z"/></clipPath><clipPath id="bj"><path d="M1086 1h30v16h-30z"/></clipPath><clipPath id="bm"><path d="M1117 1h30v16h-30z"/></clipPath><clipPath id="bn"><path d="M1148 1h30v16h-30z"/></clipPath><clipPath id="bo"><path d="M1179 1h30v16h-30z"/></clipPath><clipPath id="bp"><path d="M1210 1h30v16h-30z"/></clipPath><clipPath id="bq"><path d="M1241 1h30v16h-30z"/></clipPath><clipPath id="br"><path d="M1272 1h30v16h-30z"/></clipPath><clipPath id="bs"><path d="M1303 1h30v16h-30z"/></clipPath><clipPath id="bt"><path d="M1334 1h30v16h-30z"/></clipPath><clipPath id="bu"><path d="M1365 1h30v16h-30z"/></clipPath><clipPath id="bv"><path d="M1396 1h30v16h-30z"/></clipPath><path id="a" fill="#402e1a" fill-opacity=".1" d="M3.5 2.9.8 2.8H.2L1.9 1h.2l1.7.5q1 .4.9.8-.1.3-1.2.5m-4.3-.3-1-.3q-1-.4-.8-.8t1.2-.5T.9 1z" transform="translate(2.65 -.9)"/><path id="b" fill="#402e1a" fill-opacity=".4" d="M3.5 2.9.8 2.8H.2L1.9 1h.2l1.7.5q1 .4.9.8-.1.3-1.2.5m-4.3-.3-1-.3q-1-.4-.8-.8t1.2-.5T.9 1z" transform="translate(2.65 -.9)"/><path id="c" fill="#402e1a" fill-opacity=".3" d="M3.5 2.9.8 2.8H.2L1.9 1h.2l1.7.5q1 .4.9.8-.1.3-1.2.5m-4.3-.3-1-.3q-1-.4-.8-.8t1.2-.5T.9 1z" transform="translate(2.65 -.9)"/><path id="d" fill="#402e1a" fill-opacity=".2" d="M3.5 2.9.8 2.8H.2L1.9 1h.2l1.7.5q1 .4.9.8-.1.3-1.2.5m-4.3-.3-1-.3q-1-.4-.8-.8t1.2-.5T.9 1z" transform="translate(2.65 -.9)"/><path id="e" fill="#402e1a" fill-opacity="0" d="M3.5 2.9.8 2.8H.2L1.9 1h.2l1.7.5q1 .4.9.8-.1.3-1.2.5m-4.3-.3-1-.3q-1-.4-.8-.8t1.2-.5T.9 1z" transform="translate(2.65 -.9)"/><path id="f" fill="#402e1a" fill-opacity="0" d="M3.5 2.9.8 2.8H.2L1.9 1h.2l1.7.5q1 .4.9.8-.1.3-1.2.5m-4.3-.3-1-.3q-1-.4-.8-.8t1.2-.5T.9 1z" transform="translate(2.65 -.9)"/><path id="g" fill="#402e1a" fill-opacity="0" d="M3.5 2.9.8 2.8H.2L1.9 1h.2l1.7.5q1 .4.9.8-.1.3-1.2.5m-4.3-.3-1-.3q-1-.4-.8-.8t1.2-.5T.9 1z" transform="translate(2.65 -.9)"/><path id="h" fill="#402e1a" fill-opacity="0" d="M3.5 2.9.8 2.8H.2L1.9 1h.2l1.7.5q1 .4.9.8-.1.3-1.2.5m-4.3-.3-1-.3q-1-.4-.8-.8t1.2-.5T.9 1z" transform="translate(2.65 -.9)"/><path id="i" fill="#402e1a" fill-opacity="0" d="M3.5 2.9.8 2.8H.2L1.9 1h.2l1.7.5q1 .4.9.8-.1.3-1.2.5m-4.3-.3-1-.3q-1-.4-.8-.8t1.2-.5T.9 1z" transform="translate(2.65 -.9)"/><path id="j" fill="#402e1a" fill-opacity="0" d="M3.5 2.9.8 2.8H.2L1.9 1h.2l1.7.5q1 .4.9.8-.1.3-1.2.5m-4.3-.3-1-.3q-1-.4-.8-.8t1.2-.5T.9 1z" transform="translate(2.65 -.9)"/><path id="k" fill="#402e1a" fill-opacity="0" d="M3.5 2.9.8 2.8H.2L1.9 1h.2l1.7.5q1 .4.9.8-.1.3-1.2.5m-4.3-.3-1-.3q-1-.4-.8-.8t1.2-.5T.9 1z" transform="translate(2.65 -.9)"/><path id="l" fill="#402e1a" fill-opacity="0" d="M3.5 2.9.8 2.8H.2L1.9 1h.2l1.7.5q1 .4.9.8-.1.3-1.2.5m-4.3-.3-1-.3q-1-.4-.8-.8t1.2-.5T.9 1z" transform="translate(2.65 -.9)"/><path id="m" fill="#402e1a" fill-opacity="0" d="M3.5 2.9.8 2.8H.2L1.9 1h.2l1.7.5q1 .4.9.8-.1.3-1.2.5m-4.3-.3-1-.3q-1-.4-.8-.8t1.2-.5T.9 1z" transform="translate(2.65 -.9)"/><path id="n" fill="#402e1a" fill-opacity="0" d="M3.5 2.9.8 2.8H.2L1.9 1h.2l1.7.5q1 .4.9.8-.1.3-1.2.5m-4.3-.3-1-.3q-1-.4-.8-.8t1.2-.5T.9 1z" transform="translate(2.65 -.9)"/><path id="o" fill="#402e1a" fill-opacity=".1" d="M3.5 2.9.8 2.8H.2L1.9 1h.2l1.7.5q1 .4.9.8-.1.3-1.2.5m-4.3-.3-1-.3q-1-.4-.8-.8t1.2-.5T.9 1z" transform="translate(2.65 -.9)"/><path id="p" fill="#402e1a" fill-opacity=".1" d="M3.5 2.9.8 2.8H.2L1.9 1h.2l1.7.5q1 .4.9.8-.1.3-1.2.5m-4.3-.3-1-.3q-1-.4-.8-.8t1.2-.5T.9 1z" transform="translate(2.65 -.9)"/><path id="q" fill="#402e1a" fill-opacity=".1" d="M3.5 2.9.8 2.8H.2L1.9 1h.2l1.7.5q1 .4.9.8-.1.3-1.2.5m-4.3-.3-1-.3q-1-.4-.8-.8t1.2-.5T.9 1z" transform="translate(2.65 -.9)"/><path id="r" fill="#402e1a" fill-opacity=".4" d="M3.5 2.9.8 2.8H.2L1.9 1h.2l1.7.5q1 .4.9.8-.1.3-1.2.5m-4.3-.3-1-.3q-1-.4-.8-.8t1.2-.5T.9 1z" transform="translate(2.65 -.9)"/><path id="s" fill="#402e1a" fill-opacity=".1" d="M3.5 2.9.8 2.8H.2L1.9 1h.2l1.7.5q1 .4.9.8-.1.3-1.2.5m-4.3-.3-1-.3q-1-.4-.8-.8t1.2-.5T.9 1z" transform="translate(2.65 -.9)"/><path id="t" fill="#402e1a" fill-opacity=".3" d="M3.5 2.9.8 2.8H.2L1.9 1h.2l1.7.5q1 .4.9.8-.1.3-1.2.5m-4.3-.3-1-.3q-1-.4-.8-.8t1.2-.5T.9 1z" transform="translate(2.65 -.9)"/><path id="u" fill="#402e1a" fill-opacity=".3" d="M3.5 2.9.8 2.8H.2L1.9 1h.2l1.7.5q1 .4.9.8-.1.3-1.2.5m-4.3-.3-1-.3q-1-.4-.8-.8t1.2-.5T.9 1z" transform="translate(2.65 -.9)"/><path id="v" fill="#402e1a" fill-opacity=".1" d="M3.5 2.9.8 2.8H.2L1.9 1h.2l1.7.5q1 .4.9.8-.1.3-1.2.5m-4.3-.3-1-.3q-1-.4-.8-.8t1.2-.5T.9 1z" transform="translate(2.65 -.9)"/><path id="w" fill="#402e1a" fill-opacity=".3" d="M3.5 2.9.8 2.8H.2L1.9 1h.2l1.7.5q1 .4.9.8-.1.3-1.2.5m-4.3-.3-1-.3q-1-.4-.8-.8t1.2-.5T.9 1z" transform="translate(2.65 -.9)"/><path id="x" fill="#402e1a" fill-opacity=".2" d="M3.5 2.9.8 2.8H.2L1.9 1h.2l1.7.5q1 .4.9.8-.1.3-1.2.5m-4.3-.3-1-.3q-1-.4-.8-.8t1.2-.5T.9 1z" transform="translate(2.65 -.9)"/><path id="y" fill="#402e1a" fill-opacity=".3" d="M3.5 2.9.8 2.8H.2L1.9 1h.2l1.7.5q1 .4.9.8-.1.3-1.2.5m-4.3-.3-1-.3q-1-.4-.8-.8t1.2-.5T.9 1z" transform="translate(2.65 -.9)"/><path id="z" fill="#402e1a" fill-opacity=".2" d="M3.5 2.9.8 2.8H.2L1.9 1h.2l1.7.5q1 .4.9.8-.1.3-1.2.5m-4.3-.3-1-.3q-1-.4-.8-.8t1.2-.5T.9 1z" transform="translate(2.65 -.9)"/><path id="A" fill="#402e1a" fill-opacity=".2" d="M3.5 2.9.8 2.8H.2L1.9 1h.2l1.7.5q1 .4.9.8-.1.3-1.2.5m-4.3-.3-1-.3q-1-.4-.8-.8t1.2-.5T.9 1z" transform="translate(2.65 -.9)"/><path id="B" fill="#402e1a" fill-opacity=".2" d="M3.5 2.9.8 2.8H.2L1.9 1h.2l1.7.5q1 .4.9.8-.1.3-1.2.5m-4.3-.3-1-.3q-1-.4-.8-.8t1.2-.5T.9 1z" transform="translate(2.65 -.9)"/><path id="C" fill="#402e1a" fill-opacity=".2" d="M3.5 2.9.8 2.8H.2L1.9 1h.2l1.7.5q1 .4.9.8-.1.3-1.2.5m-4.3-.3-1-.3q-1-.4-.8-.8t1.2-.5T.9 1z" transform="translate(2.65 -.9)"/><path id="D" fill="#402e1a" fill-opacity=".2" d="M3.5 2.9.8 2.8H.2L1.9 1h.2l1.7.5q1 .4.9.8-.1.3-1.2.5m-4.3-.3-1-.3q-1-.4-.8-.8t1.2-.5T.9 1z" transform="translate(2.65 -.9)"/><path id="E" fill="#402e1a" fill-opacity=".2" d="M3.5 2.9.8 2.8H.2L1.9 1h.2l1.7.5q1 .4.9.8-.1.3-1.2.5m-4.3-.3-1-.3q-1-.4-.8-.8t1.2-.5T.9 1z" transform="translate(2.65 -.9)"/><path id="F" fill="#402e1a" fill-opacity=".3" d="M3.5 2.9.8 2.8H.2L1.9 1h.2l1.7.5q1 .4.9.8-.1.3-1.2.5m-4.3-.3-1-.3q-1-.4-.8-.8t1.2-.5T.9 1z" transform="translate(2.65 -.9)"/><path id="G" fill="#402e1a" fill-opacity=".1" d="M3.5 2.9.8 2.8H.2L1.9 1h.2l1.7.5q1 .4.9.8-.1.3-1.2.5m-4.3-.3-1-.3q-1-.4-.8-.8t1.2-.5T.9 1z" transform="translate(2.65 -.9)"/><path id="H" fill="#402e1a" fill-opacity=".3" d="M3.5 2.9.8 2.8H.2L1.9 1h.2l1.7.5q1 .4.9.8-.1.3-1.2.5m-4.3-.3-1-.3q-1-.4-.8-.8t1.2-.5T.9 1z" transform="translate(2.65 -.9)"/><path id="I" fill="#402e1a" fill-opacity=".1" d="M3.5 2.9.8 2.8H.2L1.9 1h.2l1.7.5q1 .4.9.8-.1.3-1.2.5m-4.3-.3-1-.3q-1-.4-.8-.8t1.2-.5T.9 1z" transform="translate(2.65 -.9)"/><path id="J" fill="#402e1a" fill-opacity=".3" d="M3.5 2.9.8 2.8H.2L1.9 1h.2l1.7.5q1 .4.9.8-.1.3-1.2.5m-4.3-.3-1-.3q-1-.4-.8-.8t1.2-.5T.9 1z" transform="translate(2.65 -.9)"/><path id="K" fill="#402e1a" fill-opacity=".1" d="M3.5 2.9.8 2.8H.2L1.9 1h.2l1.7.5q1 .4.9.8-.1.3-1.2.5m-4.3-.3-1-.3q-1-.4-.8-.8t1.2-.5T.9 1z" transform="translate(2.65 -.9)"/><path id="L" fill="#402e1a" fill-opacity=".4" d="M3.5 2.9.8 2.8H.2L1.9 1h.2l1.7.5q1 .4.9.8-.1.3-1.2.5m-4.3-.3-1-.3q-1-.4-.8-.8t1.2-.5T.9 1z" transform="translate(2.65 -.9)"/><path id="M" fill="#402e1a" fill-opacity="0" d="M3.5 2.9.8 2.8H.2L1.9 1h.2l1.7.5q1 .4.9.8-.1.3-1.2.5m-4.3-.3-1-.3q-1-.4-.8-.8t1.2-.5T.9 1z" transform="translate(2.65 -.9)"/><path id="N" fill="#402e1a" fill-opacity=".4" d="M3.5 2.9.8 2.8H.2L1.9 1h.2l1.7.5q1 .4.9.8-.1.3-1.2.5m-4.3-.3-1-.3q-1-.4-.8-.8t1.2-.5T.9 1z" transform="translate(2.65 -.9)"/><use xlink:href="#a" id="bl" width="7.3" height="2"/><use xlink:href="#b" id="bk" width="7.3" height="2"/><use xlink:href="#c" id="bi" width="7.3" height="2"/><use xlink:href="#d" id="bf" width="7.3" height="2"/><use xlink:href="#e" id="ba" width="7.3" height="2"/><use xlink:href="#f" id="aV" width="7.3" height="2"/><use xlink:href="#g" id="aT" width="7.3" height="2"/><use xlink:href="#h" id="aR" width="7.3" height="2"/><use xlink:href="#i" id="aP" width="7.3" height="2"/><use xlink:href="#j" id="aN" width="7.3" height="2"/><use xlink:href="#k" id="aL" width="7.3" height="2"/><use xlink:href="#l" id="aJ" width="7.3" height="2"/><use xlink:href="#m" id="aH" width="7.3" height="2"/><use xlink:href="#n" id="aE" width="7.3" height="2"/><use xlink:href="#o" id="aC" width="7.3" height="2"/><use xlink:href="#p" id="aA" width="7.3" height="2"/><use xlink:href="#q" id="ay" width="7.3" height="2"/><use xlink:href="#r" id="aw" width="7.3" height="2"/><use xlink:href="#s" id="av" width="7.3" height="2"/><use xlink:href="#t" id="at" width="7.3" height="2"/><use xlink:href="#u" id="ar" width="7.3" height="2"/><use xlink:href="#v" id="aq" width="7.3" height="2"/><use xlink:href="#w" id="ao" width="7.3" height="2"/><use xlink:href="#x" id="an" width="7.3" height="2"/><use xlink:href="#y" id="al" width="7.3" height="2"/><use xlink:href="#z" id="ak" width="7.3" height="2"/><use xlink:href="#A" id="ai" width="7.3" height="2"/><use xlink:href="#B" id="ah" width="7.3" height="2"/><use xlink:href="#C" id="af" width="7.3" height="2"/><use xlink:href="#D" id="ae" width="7.3" height="2"/><use xlink:href="#E" id="ac" width="7.3" height="2"/><use xlink:href="#F" id="ab" width="7.3" height="2"/><use xlink:href="#G" id="Z" width="7.3" height="2"/><use xlink:href="#H" id="Y" width="7.3" height="2"/><use xlink:href="#I" id="W" width="7.3" height="2"/><use xlink:href="#J" id="V" width="7.3" height="2"/><use xlink:href="#K" id="T" width="7.3" height="2"/><use xlink:href="#L" id="S" width="7.3" height="2"/><use xlink:href="#M" id="Q" width="7.3" height="2"/><use xlink:href="#N" id="P" width="7.3" height="2"/></defs><g clip-path="url(#O)"><g transform="translate(14.35 13.15)"><use xlink:href="#P" width="7.3" height="2" transform="matrix(.9113 .0879 -.4331 .9625 -9.6 -4.05)"/><use xlink:href="#Q" width="7.3" height="2" transform="matrix(.6597 -.6765 .6698 .8235 9.95 1.5)"/></g></g><g clip-path="url(#R)"><g transform="translate(45.35 13.15)"><use xlink:href="#S" width="7.3" height="2" transform="matrix(.8768 .2691 -.5742 .8737 -9.1 -5.1)"/><use xlink:href="#T" width="7.3" height="2" transform="matrix(.8222 -.5007 .4395 .941 7.7 1.2)"/></g></g><g clip-path="url(#U)"><g transform="translate(76.35 13.15)"><use xlink:href="#V" width="7.3" height="2" transform="matrix(.8054 .4431 -.6985 .7663 -8.35 -6)"/><use xlink:href="#W" width="7.3" height="2" transform="matrix(.9391 -.2878 .1906 .9997 5.65 .75)"/></g></g><g clip-path="url(#X)"><g transform="translate(107.35 13.15)"><use xlink:href="#Y" width="7.3" height="2" transform="matrix(.7019 .5972 -.8037 .6418 -7.6 -7)"/><use xlink:href="#Z" width="7.3" height="2" transform="matrix(1.001 -.0487 -.056 .9951 3.6 .15)"/></g></g><g clip-path="url(#aa)"><g transform="translate(138.35 13.15)"><use xlink:href="#ab" width="7.3" height="2" transform="matrix(.5669 .7297 -.8875 .5035 -6.8 -8)"/><use xlink:href="#ac" width="7.3" height="2" transform="matrix(1.001 -.0403 -.0485 .9985 2.75 .1)"/></g></g><g clip-path="url(#ad)"><g transform="translate(169.35 13.15)"><use xlink:href="#ae" width="7.3" height="2" transform="matrix(.4075 .8325 -.9479 .3551 -5.85 -8.7)"/><use xlink:href="#af" width="7.3" height="2" transform="matrix(1.0009 -.0357 -.0438 1.0018 1.9 0)"/></g></g><g clip-path="url(#ag)"><g transform="translate(200.35 13.15)"><use xlink:href="#ah" width="7.3" height="2" transform="matrix(.2333 .9009 -.9848 .2005 -4.75 -9.5)"/><use xlink:href="#ai" width="7.3" height="2" transform="matrix(1.0009 -.0311 -.0358 1.0053 1.05 -.05)"/></g></g><g clip-path="url(#aj)"><g transform="translate(231.35 13.15)"><use xlink:href="#ak" width="7.3" height="2" transform="matrix(.2132 .919 -.9861 .1702 -4.25 -9.95)"/><use xlink:href="#al" width="7.3" height="2" transform="matrix(1.0008 -.0264 -.031 1.0086 .15 -.15)"/></g></g><g clip-path="url(#am)"><g transform="translate(262.35 13.15)"><use xlink:href="#an" width="7.3" height="2" transform="matrix(.1955 .9367 -.9867 .1432 -3.8 -10.4)"/><use xlink:href="#ao" width="7.3" height="2" transform="matrix(1.0007 -.0185 -.0229 1.0119 -.7 -.25)"/></g></g><g clip-path="url(#ap)"><g transform="translate(293.35 13.15)"><use xlink:href="#aq" width="7.3" height="2" transform="matrix(.1772 .9541 -.9869 .1131 -3.25 -10.85)"/><use xlink:href="#ar" width="7.3" height="2" transform="matrix(1.0006 -.0139 -.0181 1.0151 -1.6 -.3)"/></g></g><g clip-path="url(#as)"><g transform="translate(324.35 13.15)"><use xlink:href="#W" width="7.3" height="2" transform="matrix(.155 .9717 -.986 .0864 -2.85 -11.25)"/><use xlink:href="#at" width="7.3" height="2" transform="matrix(1.0004 -.0092 -.0099 1.0184 -2.45 -.4)"/></g></g><g clip-path="url(#au)"><g transform="translate(355.35 13.15)"><use xlink:href="#av" width="7.3" height="2" transform="matrix(.1353 .9883 -.9845 .0566 -2.4 -11.7)"/><use xlink:href="#aw" width="7.3" height="2" transform="matrix(1.0002 -.0046 -.0049 1.0215 -3.35 -.45)"/></g></g><g clip-path="url(#ax)"><g transform="translate(386.35 13.15)"><use xlink:href="#ay" width="7.3" height="2" transform="matrix(.1162 1.0047 -.9821 .0305 -2 -12.15)"/><use xlink:href="#P" width="7.3" height="2" transform="matrix(1 0 0 1.0247 -4.2 -.6)"/></g></g><g clip-path="url(#az)"><g transform="translate(417.35 13.15)"><use xlink:href="#aA" width="7.3" height="2" transform="matrix(.2807 .9608 -.9672 .1971 -1.55 -11.35)"/><use xlink:href="#P" width="7.3" height="2" transform="matrix(.9893 .0133 -.0411 1.0264 -4.85 -.7)"/></g></g><g clip-path="url(#aB)"><g transform="translate(448.35 13.15)"><use xlink:href="#aC" width="7.3" height="2" transform="matrix(.4353 .8902 -.9241 .3601 -1.05 -10.45)"/><use xlink:href="#P" width="7.3" height="2" transform="matrix(.9784 .0263 -.0858 1.0262 -5.5 -.9)"/></g></g><g clip-path="url(#aD)"><g transform="translate(479.35 13.15)"><use xlink:href="#aE" width="7.3" height="2" transform="matrix(.5744 .7953 -.8537 .5143 -.5 -9.45)"/><use xlink:href="#P" width="7.3" height="2" transform="matrix(.9674 .039 -.1305 1.024 -6.25 -1.05)"/></g></g><g clip-path="url(#aF)"><g transform="translate(510.35 13.15)"><use xlink:href="#Q" width="7.3" height="2" transform="matrix(.6943 .6794 -.7577 .6552 .1 -8.45)"/><use xlink:href="#P" width="7.3" height="2" transform="matrix(.956 .0545 -.1718 1.0205 -6.95 -1.25)"/></g></g><g clip-path="url(#aG)"><g transform="translate(541.35 13.15)"><use xlink:href="#aH" width="7.3" height="2" transform="matrix(.7919 .5462 -.6386 .7785 .85 -7.4)"/><use xlink:href="#P" width="7.3" height="2" transform="matrix(.9446 .0666 -.2165 1.0146 -7.6 -1.4)"/></g></g><g clip-path="url(#aI)"><g transform="translate(572.35 13.15)"><use xlink:href="#aJ" width="7.3" height="2" transform="matrix(.8647 .3999 -.4997 .8804 1.55 -6.35)"/><use xlink:href="#P" width="7.3" height="2" transform="matrix(.9331 .0784 -.2609 1.0067 -8.25 -1.5)"/></g></g><g clip-path="url(#aK)"><g transform="translate(603.35 13.15)"><use xlink:href="#aL" width="7.3" height="2" transform="matrix(.9111 .245 -.3449 .9577 2.55 -5.35)"/><use xlink:href="#P" width="7.3" height="2" transform="matrix(.9211 .0929 -.3018 .9979 -8.95 -1.7)"/></g></g><g clip-path="url(#aM)"><g transform="translate(634.35 13.15)"><use xlink:href="#aN" width="7.3" height="2" transform="matrix(.9304 .0861 -.1783 1.0079 3.5 -4.3)"/><use xlink:href="#P" width="7.3" height="2" transform="matrix(.9092 .1041 -.3457 .9863 -9.6 -1.9)"/></g></g><g clip-path="url(#aO)"><g transform="translate(665.35 13.15)"><use xlink:href="#aP" width="7.3" height="2" transform="matrix(.9223 -.069 -.005 1.0293 4.45 -3.25)"/><use xlink:href="#P" width="7.3" height="2" transform="matrix(.8972 .1149 -.3891 .9727 -10.35 -2.05)"/></g></g><g clip-path="url(#aQ)"><g transform="translate(696.35 13.15)"><use xlink:href="#aR" width="7.3" height="2" transform="matrix(.8875 -.2219 .167 1.0205 5.6 -2.3)"/><use xlink:href="#P" width="7.3" height="2" transform="matrix(.8846 .1284 -.432 .9573 -10.9 -2.25)"/></g></g><g clip-path="url(#aS)"><g transform="translate(727.35 13.15)"><use xlink:href="#aT" width="7.3" height="2" transform="matrix(.8278 -.3652 .3393 .9818 6.75 -1.35)"/><use xlink:href="#P" width="7.3" height="2" transform="matrix(.8724 .1386 -.4713 .9415 -11.7 -2.35)"/></g></g><g clip-path="url(#aU)"><g transform="translate(758.35 13.15)"><use xlink:href="#aV" width="7.3" height="2" transform="matrix(.7465 -.496 .5056 .9146 8.1 -.5)"/><use xlink:href="#P" width="7.3" height="2" transform="matrix(.8602 .1503 -.5146 .9231 -12.35 -2.5)"/></g></g><g clip-path="url(#aW)"><g transform="translate(789.35 13.15)"><use xlink:href="#aV" width="7.3" height="2" transform="matrix(.8348 -.382 .3613 .9645 6.95 -.85)"/><use xlink:href="#P" width="7.3" height="2" transform="matrix(.8317 .2787 -.5853 .8644 -11.65 -3.35)"/></g></g><g clip-path="url(#aX)"><g transform="translate(820.35 13.15)"><use xlink:href="#aV" width="7.3" height="2" transform="matrix(.9058 -.2562 .2121 .994 5.85 -1.3)"/><use xlink:href="#P" width="7.3" height="2" transform="matrix(.7851 .4014 -.6516 .801 -10.75 -4.15)"/></g></g><g clip-path="url(#aY)"><g transform="translate(851.35 13.15)"><use xlink:href="#aV" width="7.3" height="2" transform="matrix(.9579 -.1178 .0655 1.001 4.8 -1.7)"/><use xlink:href="#P" width="7.3" height="2" transform="matrix(.7187 .5188 -.7113 .7327 -10 -4.8)"/></g></g><g clip-path="url(#aZ)"><g transform="translate(882.35 13.15)"><use xlink:href="#ba" width="7.3" height="2" transform="matrix(.9632 -.1023 .0572 1.0009 4 -1.85)"/><use xlink:href="#P" width="7.3" height="2" transform="matrix(.6369 .6234 -.7663 .6577 -9.1 -5.6)"/></g></g><g clip-path="url(#bb)"><g transform="translate(913.35 13.15)"><use xlink:href="#av" width="7.3" height="2" transform="matrix(.9684 -.0899 .0488 1.0011 3.2 -1.9)"/><use xlink:href="#P" width="7.3" height="2" transform="matrix(.5377 .7169 -.8118 .5814 -8.05 -6.3)"/></g></g><g clip-path="url(#bc)"><g transform="translate(944.35 13.15)"><use xlink:href="#aq" width="7.3" height="2" transform="matrix(.9734 -.0774 .0404 1.0011 2.4 -1.95)"/><use xlink:href="#P" width="7.3" height="2" transform="matrix(.4283 .7943 -.8506 .5042 -7.1 -6.95)"/></g></g><g clip-path="url(#bd)"><g transform="translate(975.35 13.15)"><use xlink:href="#ak" width="7.3" height="2" transform="matrix(.9782 -.0647 .0353 1.001 1.5 -2.05)"/><use xlink:href="#V" width="7.3" height="2" transform="matrix(.3482 .8485 -.9014 .407 -6.3 -7.6)"/></g></g><g clip-path="url(#be)"><g transform="translate(1006.35 13.15)"><use xlink:href="#bf" width="7.3" height="2" transform="matrix(.9829 -.052 .0269 1.0009 .6 -2.1)"/><use xlink:href="#ab" width="7.3" height="2" transform="matrix(.2622 .8956 -.9421 .3064 -5.55 -8.2)"/></g></g><g clip-path="url(#bg)"><g transform="translate(1037.35 13.15)"><use xlink:href="#ab" width="7.3" height="2" transform="matrix(.9875 -.0392 .0186 1.0008 -.1 -2.2)"/><use xlink:href="#ah" width="7.3" height="2" transform="matrix(.1732 .9334 -.9724 .1987 -4.7 -8.8)"/></g></g><g clip-path="url(#bh)"><g transform="translate(1068.35 13.15)"><use xlink:href="#bi" width="7.3" height="2" transform="matrix(.9918 -.0262 .0135 1.0006 -1 -2.25)"/><use xlink:href="#aq" width="7.3" height="2" transform="matrix(.0761 .9625 -.99 .0914 -3.9 -9.4)"/></g></g><g clip-path="url(#bj)"><g transform="translate(1099.35 13.15)"><use xlink:href="#bk" width="7.3" height="2" transform="matrix(.996 -.0132 .0051 1.0003 -1.8 -2.3)"/><use xlink:href="#bl" width="7.3" height="2" transform="matrix(-.0219 .9813 -.9958 -.014 -3.1 -9.95)"/></g></g><g clip-path="url(#bm)"><g transform="translate(1130.35 13.15)"><use xlink:href="#P" width="7.3" height="2" transform="translate(-2.65 -2.35)"/><use xlink:href="#aV" width="7.3" height="2" transform="rotate(97.303 3.52 -6.218)scale(.9975)"/></g></g><g clip-path="url(#bn)"><g transform="translate(1161.35 13.15)"><use xlink:href="#P" width="7.3" height="2" transform="matrix(.9929 .0052 -.0351 1.0038 -3.2 -2.45)"/><use xlink:href="#aV" width="7.3" height="2" transform="matrix(-.0048 .9926 -1.0022 -.0138 -1.65 -9.8)"/></g></g><g clip-path="url(#bo)"><g transform="translate(1192.35 13.15)"><use xlink:href="#P" width="7.3" height="2" transform="matrix(.9857 .0135 -.0704 1.0063 -3.85 -2.6)"/><use xlink:href="#aV" width="7.3" height="2" transform="matrix(.1122 .981 -1.0022 .0965 -1 -9.1)"/></g></g><g clip-path="url(#bp)"><g transform="translate(1223.35 13.15)"><use xlink:href="#P" width="7.3" height="2" transform="matrix(.9785 .0218 -.106 1.0076 -4.4 -2.7)"/><use xlink:href="#aV" width="7.3" height="2" transform="matrix(.2297 .955 -.99 .2068 -.45 -8.4)"/></g></g><g clip-path="url(#bq)"><g transform="translate(1254.35 13.15)"><use xlink:href="#P" width="7.3" height="2" transform="matrix(.9712 .0299 -.1418 1.0076 -4.95 -2.85)"/><use xlink:href="#aV" width="7.3" height="2" transform="matrix(.3396 .9162 -.9647 .3187 .2 -7.65)"/></g></g><g clip-path="url(#br)"><g transform="translate(1285.35 13.15)"><use xlink:href="#P" width="7.3" height="2" transform="matrix(.9639 .0347 -.1777 1.0064 -5.5 -3.05)"/><use xlink:href="#aV" width="7.3" height="2" transform="matrix(.4464 .8635 -.928 .4246 .8 -6.75)"/></g></g><g clip-path="url(#bs)"><g transform="translate(1316.35 13.15)"><use xlink:href="#P" width="7.3" height="2" transform="matrix(.9565 .0426 -.2137 1.0039 -6.15 -3.15)"/><use xlink:href="#aV" width="7.3" height="2" transform="matrix(.5471 .7993 -.879 .5305 1.45 -6)"/></g></g><g clip-path="url(#bt)"><g transform="translate(1347.35 13.15)"><use xlink:href="#P" width="7.3" height="2" transform="matrix(.949 .0503 -.2498 1.0001 -6.7 -3.3)"/><use xlink:href="#aP" width="7.3" height="2" transform="matrix(.8521 .4493 -.5401 .8783 2.1 -4)"/></g></g><g clip-path="url(#bu)"><g transform="translate(1378.35 13.15)"><use xlink:href="#P" width="7.3" height="2" transform="matrix(.9415 .0579 -.2858 .9949 -7.25 -3.5)"/><use xlink:href="#aJ" width="7.3" height="2" transform="matrix(.9607 0 -.0777 1.0353 3.5 -1.95)"/></g></g><g clip-path="url(#bv)"><g transform="translate(1409.35 13.15)"><use xlink:href="#P" width="7.3" height="2" transform="matrix(.9341 .0659 -.3226 .9893 -7.85 -3.6)"/><use xlink:href="#aE" width="7.3" height="2" transform="matrix(.8462 -.4465 .4051 .9625 5.35 -.1)"/></g></g></svg>