<svg xmlns="http://www.w3.org/2000/svg" xmlns:xlink="http://www.w3.org/1999/xlink" width="1451" height="68" viewBox="0 0 1451 68"><defs><clipPath id="f"><path d="M1 1h57v66H1z"/></clipPath><clipPath id="m"><path d="M59 1h57v66H59z"/></clipPath><clipPath id="o"><path d="M117 1h57v66h-57z"/></clipPath><clipPath id="q"><path d="M175 1h57v66h-57z"/></clipPath><clipPath id="r"><path d="M233 1h57v66h-57z"/></clipPath><clipPath id="s"><path d="M291 1h57v66h-57z"/></clipPath><clipPath id="u"><path d="M349 1h57v66h-57z"/></clipPath><clipPath id="v"><path d="M407 1h57v66h-57z"/></clipPath><clipPath id="w"><path d="M465 1h57v66h-57z"/></clipPath><clipPath id="x"><path d="M523 1h57v66h-57z"/></clipPath><clipPath id="y"><path d="M581 1h57v66h-57z"/></clipPath><clipPath id="z"><path d="M639 1h57v66h-57z"/></clipPath><clipPath id="A"><path d="M697 1h57v66h-57z"/></clipPath><clipPath id="B"><path d="M755 1h57v66h-57z"/></clipPath><clipPath id="C"><path d="M813 1h57v66h-57z"/></clipPath><clipPath id="D"><path d="M871 1h57v66h-57z"/></clipPath><clipPath id="E"><path d="M929 1h57v66h-57z"/></clipPath><clipPath id="F"><path d="M987 1h57v66h-57z"/></clipPath><clipPath id="G"><path d="M1045 1h57v66h-57z"/></clipPath><clipPath id="H"><path d="M1103 1h57v66h-57z"/></clipPath><clipPath id="I"><path d="M1161 1h57v66h-57z"/></clipPath><clipPath id="J"><path d="M1219 1h57v66h-57z"/></clipPath><clipPath id="K"><path d="M1277 1h57v66h-57z"/></clipPath><clipPath id="L"><path d="M1335 1h57v66h-57z"/></clipPath><clipPath id="M"><path d="M1393 1h57v66h-57z"/></clipPath><use xlink:href="#a" id="b" width="22.9" height="21.6"/><use xlink:href="#b" id="t" width="22.9" height="21.6" transform="matrix(-1 0 0 1 29.95 4.5)"/><use xlink:href="#b" id="p" width="22.9" height="21.6" transform="matrix(-1.19 0 0 1.19 32.1 3)"/><use xlink:href="#b" id="n" width="22.9" height="21.6" transform="matrix(-1.39 0 0 1.39 34.2 1.55)"/><use xlink:href="#b" id="l" width="22.9" height="21.6" transform="matrix(-1.58 0 0 1.58 36.35 0)"/><use xlink:href="#c" id="k" width="34.7" height="28.6"/><use xlink:href="#d" id="j" width="27.9" height="27.9"/><use xlink:href="#e" id="g" width="11.3" height="5"/><g id="a"><path fill="#f00f0f" d="M15.4 5.5Q17 5 20.7 3q-1.6 2.6-2 4.6-.3 1.1.6 2.2 1 1.3 3.6 1.8-1.2 0-2.4.7-1 .7-1.3 1.3-.5 1 .5 2.7.7 1.5 2.7 3.8-6.6-3.5-9.2-1.8-2.1 1.5-2.9 3.3 0-1.7-.3-2.4-.5-2.1-1.8-2.5-3-1-7.4.4.8-.5 2.3-2.6 1-1.2.6-3.1Q3.3 8.7 0 6.2l3.4.4 2.9-.4q1-.3 1.2-6.1V0q2 3.1 4 4.9 1.5 1.2 3.9.5"/><path fill="#a6691f" d="M12.2 13.7h-.7l-.6-.4-3.5-6.1q-.2-.3 0-.8l.7-.6L9.5 5l.9-.1q.4 0 .5.5-2.3.8-2.5 1.4 2.5 5.3 3.7 6.9m1.9 4h-.7q-.7-.1-.9-.6t0-1.2q.3-.5 1-.9.3-.2.7-.2-1.2.4-1 1.7 0 1.2 1 1.2z"/><path fill="#fc0" d="M12.2 13.7q-1.3-1.6-3.7-6.9.1-.6 2.4-1.5l2.4 6.6v.8l-.6.7-.3.2zm1.9 1 .5.1q.5.2.8.7.2.5 0 1.1l-.9 1-.4.1q-1 0-1-1.3-.2-1.2 1-1.6"/></g><g id="c"><path fill="#b81a03" d="M34.7 28.4q-4.3-4-6.6-3.5-1.8.3-2.9 3.7.1-4.1-2.4-6.1 4.9-.1 4.8-3.4t-5.3-7q2.9 1 6.3-2-1.4 3.8-.9 5.9.5 1.9 2.8 3.3l3.4 1.2q-2.4.4-2.4 2-.1 2 3.2 5.9"/><path fill="none" stroke="#d01d04" stroke-linecap="round" stroke-linejoin="round" stroke-width="__RESOLUTION__" d="M33.9 20.5q-2.4.4-2.4 2-.1 2 3.2 5.9" vector-effect="non-scaling-stroke"/><path fill="#f43404" d="M5.5 3.3Q16.3 9 16.3 2.6l4 1.7q-.7.4-1.4 1.9-1 2.2-.5 4.5.7 3.7 3.8 8.5l4.1 5.2q-5.8-2.8-16.6 1.3 12.2-8.4-4.3-22.4M3.1 2.2 0 .9Q.6-.4 2 .2t2 2.2z"/><path fill="none" stroke="#fc563f" stroke-linecap="round" stroke-linejoin="round" stroke-width="__RESOLUTION__" d="M5.5 3.3Q16.3 9 16.3 2.6" vector-effect="non-scaling-stroke"/><path fill="none" stroke="#d01d04" stroke-linecap="round" stroke-linejoin="round" stroke-width="__RESOLUTION__" d="M9.7 25.7Q22 17.3 5.5 3.3M3 2.2 0 .9Q.6-.4 2 .2t2 2.2z" vector-effect="non-scaling-stroke"/><path fill="#f43404" d="m8.5 26.2-.2.4L6.6 28q-1-.5-.2-1.1t2.1-.7"/><path fill="none" stroke="#d01d04" stroke-linecap="round" stroke-linejoin="round" stroke-width="__RESOLUTION__" d="m8.5 26.2-.2.4L6.6 28q-1-.5-.2-1.1t2.1-.7" vector-effect="non-scaling-stroke"/></g><g id="i"><path fill="#4b5257" d="M1.9 16.5q-.6-1.2-.7-2.4Q.7 11 2.6 8.7q2-2.3 5.1-2.3t5.7 2.3l1 1.1q.6 1 .7 2.2.5 3.2-1.4 5.4-2 2.3-5.1 2.3t-5.7-2.2z"/><path fill="#212e31" d="m1.9 16.5 1 1q2.6 2.2 5.7 2.2t5.1-2.2 1.4-5.5q-.1-1.2-.6-2.2 1.6 1.8 2 4.3.5 3.2-1.4 5.4T10 21.8t-5.8-2.2Q2.6 18 1.9 16.4"/><path fill="none" stroke="#000" stroke-linecap="round" stroke-linejoin="round" stroke-opacity=".3" stroke-width="__RESOLUTION__" d="m14.5 9.8-1.1-1q-2.5-2.4-5.7-2.4T2.6 8.8Q.5 11 1 14.3q.2 1.2.7 2.3.8 1.6 2.4 3 2.6 2.3 5.8 2.3t5-2.2 1.5-5.5q-.4-2.4-2-4.3" vector-effect="non-scaling-stroke"/><path fill="#c88e17" d="m14.4.4 1.1 4.2 3.7.4-1 4-3.4 1.1-3.5-3.3.1-3.8z"/><path fill="none" stroke="#000" stroke-linecap="round" stroke-linejoin="round" stroke-opacity=".3" stroke-width="__RESOLUTION__" d="m14.4.4 1.1 4.2 3.7.4-1 4-3.4 1.1-3.5-3.3.1-3.8z" vector-effect="non-scaling-stroke"/><path fill="#deab0e" d="m21 7.7-7.8 4.6q-3.3-.7-3.8-3.6L11.6 0l1.2 3.9 3.4-.7.4 3.9z"/><path fill="none" stroke="#000" stroke-linecap="round" stroke-linejoin="round" stroke-opacity=".3" stroke-width="__RESOLUTION__" d="m21 7.7-7.8 4.6q-3.3-.7-3.8-3.6L11.6 0l1.2 3.9 3.4-.7.4 3.9z" vector-effect="non-scaling-stroke"/><path fill="#fff" d="M9.8 20.1q-1.7 0-3-1.1-.9-.8-1.2-1.7l7.2-1.7.1.7q.3 1.6-.7 2.7t-2.3 1M3 16.9h-.3q-.7-.1-1.2-1.4L1 13.8q-.4-2-.2-3.4 0-1.2.5-1.9l2.5 7-.3.9z"/><path fill="none" stroke="#000" stroke-linecap="round" stroke-linejoin="round" stroke-opacity=".3" stroke-width="__RESOLUTION__" d="M9.8 20.1q1.4 0 2.4-1.1t.8-2.7l-.3-.7-7.1 1.7q.3.9 1.2 1.7 1.4 1.1 3 1.1M3 16.9h-.3q-.7-.1-1.2-1.4L1 13.8q-.4-2-.2-3.4 0-1.2.5-1.9l2.5 7-.3.9z" vector-effect="non-scaling-stroke"/><path fill="#cdcb94" d="m11.4 11.3.2 1.5q2-1 4.1-.3-2.8 6.6-10.8 5.2 1.8-4.2 6.5-6.4"/><path fill="none" stroke="#000" stroke-linecap="round" stroke-linejoin="round" stroke-opacity=".3" stroke-width="__RESOLUTION__" d="M11.4 11.3q-4.7 2.2-6.5 6.4 8 1.4 10.8-5.2-2.1-.7-4.1.3z" vector-effect="non-scaling-stroke"/><path fill="#cdcb94" d="M4.1 17Q.3 12.7 0 3.6q1 1.2 1.7 2.8l.6-1.5Q4.2 9.3 4 17.1"/><path fill="none" stroke="#000" stroke-linecap="round" stroke-linejoin="round" stroke-opacity=".3" stroke-width="__RESOLUTION__" d="M4.1 17Q.3 12.7 0 3.6q1 1.2 1.7 2.8l.6-1.5Q4.2 9.3 4 17.1" vector-effect="non-scaling-stroke"/></g><g id="h"><path fill="#c28319" d="M6.9 3.3Q3.9 5.5.4 4.7-.2 4.5 0 4q.2-1.8 2.2-2.3 1.1-.3 2-1 2.1-1.8 3.4 1 .2.6-.2 1z"/><path fill="none" stroke="#000" stroke-linecap="round" stroke-linejoin="round" stroke-opacity=".3" stroke-width="__RESOLUTION__" d="M6.9 3.3Q3.9 5.5.4 4.7-.2 4.5 0 4q.2-1.8 2.2-2.3 1.1-.3 2-1 2.1-1.8 3.4 1 .2.6-.2 1z" vector-effect="non-scaling-stroke"/></g><path id="d" fill="#fff" d="M9.8-10.2q3.3 3.3 4 7.7l.1 2.2q0 5.7-4.1 9.8-3.3 3.3-7.6 4l-2.2.1q-5.8 0-10-4.1-2.6-2.6-3.5-6-.5-1.8-.5-3.8 0-5.8 4-10h.2q4-4 9.8-4 3.7 0 6.6 1.7 1.7.9 3.2 2.3" transform="translate(14 14.3)"/><path id="e" fill="#382c16" d="M0-2.5q2.4 0 4 .8 1.6.6 1.7 1.7Q5.6 1.1 4 1.9t-4 .7-4-.8T-5.6 0t1.7-1.8T0-2.5" transform="translate(5.6 2.5)"/></defs><g clip-path="url(#f)"><g transform="translate(17.75 61.1)"><use xlink:href="#g" width="11.3" height="5" transform="translate(-5.25 -2.15)"/><use xlink:href="#h" width="7.7" height="4.8" transform="matrix(.7462 -.6441 -1.0887 -.8073 -5.8 4.1)"/><use xlink:href="#h" width="7.7" height="4.8" transform="matrix(1.0905 -.075 .0705 1.1279 -4.05 -.45)"/><use xlink:href="#i" width="20.9" height="21.8" transform="matrix(.9007 .4344 -.4581 .9498 8 -27.85)"/><use xlink:href="#j" width="27.9" height="27.9" transform="translate(-4 -16.95)scale(.4353)"/><use xlink:href="#k" width="34.7" height="28.6" transform="translate(-11.15 -19.6)scale(.5733)"/><use xlink:href="#l" width="36.4" height="34.2" transform="translate(3.75 -60.1)"/></g></g><g clip-path="url(#m)"><g transform="translate(75.75 61.1)"><use xlink:href="#g" width="11.3" height="5" transform="translate(-5.25 -2.15)"/><use xlink:href="#h" width="7.7" height="4.8" transform="matrix(.7462 -.6441 -1.0887 -.8073 -5.8 4.1)"/><use xlink:href="#h" width="7.7" height="4.8" transform="matrix(1.0905 -.075 .0705 1.1279 -4.05 -.45)"/><use xlink:href="#i" width="20.9" height="21.8" transform="matrix(.9007 .4344 -.4581 .9498 8 -27.85)"/><use xlink:href="#j" width="27.9" height="27.9" transform="translate(-4 -16.95)scale(.4353)"/><use xlink:href="#k" width="34.7" height="28.6" transform="translate(-11.15 -19.6)scale(.5733)"/><use xlink:href="#n" width="36.4" height="34.2" transform="translate(3.75 -60.1)"/></g></g><g clip-path="url(#o)"><g transform="translate(133.75 61.1)"><use xlink:href="#g" width="11.3" height="5" transform="translate(-5.25 -2.15)"/><use xlink:href="#h" width="7.7" height="4.8" transform="matrix(.7462 -.6441 -1.0887 -.8073 -5.8 4.1)"/><use xlink:href="#h" width="7.7" height="4.8" transform="matrix(1.0905 -.075 .0705 1.1279 -4.05 -.45)"/><use xlink:href="#i" width="20.9" height="21.8" transform="matrix(.9007 .4344 -.4581 .9498 8 -27.85)"/><use xlink:href="#j" width="27.9" height="27.9" transform="translate(-4 -16.95)scale(.4353)"/><use xlink:href="#k" width="34.7" height="28.6" transform="translate(-11.15 -19.6)scale(.5733)"/><use xlink:href="#p" width="36.4" height="34.2" transform="translate(3.75 -60.1)"/></g></g><g clip-path="url(#q)"><g transform="translate(191.75 61.1)"><use xlink:href="#g" width="11.3" height="5" transform="translate(-5.25 -2.15)"/><use xlink:href="#h" width="7.7" height="4.8" transform="matrix(.7462 -.6441 -1.0887 -.8073 -5.8 4.1)"/><use xlink:href="#h" width="7.7" height="4.8" transform="matrix(1.0905 -.075 .0705 1.1279 -4.05 -.45)"/><use xlink:href="#i" width="20.9" height="21.8" transform="matrix(.9007 .4344 -.4581 .9498 8 -27.85)"/><use xlink:href="#k" width="34.7" height="28.6" transform="matrix(.8505 0 0 .8504 -16.75 -23.7)"/></g></g><g clip-path="url(#r)"><g transform="translate(249.75 61.1)"><use xlink:href="#g" width="11.3" height="5" transform="translate(-5.25 -2.15)"/><use xlink:href="#h" width="7.7" height="4.8" transform="matrix(.7462 -.6441 -1.0887 -.8073 -5.8 4.1)"/><use xlink:href="#h" width="7.7" height="4.8" transform="matrix(1.0905 -.075 .0705 1.1279 -4.05 -.45)"/><use xlink:href="#i" width="20.9" height="21.8" transform="matrix(.9007 .4344 -.4581 .9498 8 -27.85)"/><use xlink:href="#j" width="27.9" height="27.9" transform="translate(-4 -16.95)scale(.4353)"/><use xlink:href="#k" width="34.7" height="28.6" transform="matrix(.8505 0 0 .8504 -16.75 -23.7)"/></g></g><g clip-path="url(#s)"><g transform="translate(307.75 61.1)"><use xlink:href="#g" width="11.3" height="5" transform="translate(-5.25 -2.15)"/><use xlink:href="#h" width="7.7" height="4.8" transform="matrix(.7462 -.6441 -1.0887 -.8073 -5.8 4.1)"/><use xlink:href="#h" width="7.7" height="4.8" transform="matrix(1.0905 -.075 .0705 1.1279 -4.05 -.45)"/><use xlink:href="#i" width="20.9" height="21.8" transform="matrix(.9007 .4344 -.4581 .9498 8 -27.85)"/><use xlink:href="#t" width="36.4" height="34.2" transform="translate(3.75 -60.1)"/></g></g><g clip-path="url(#u)"><g transform="translate(365.75 61.1)"><use xlink:href="#g" width="11.3" height="5" transform="translate(-5.25 -2.15)"/><use xlink:href="#h" width="7.7" height="4.8" transform="matrix(.7458 -.6423 -1.0863 -.8069 -5.85 4.05)"/><use xlink:href="#h" width="7.7" height="4.8" transform="matrix(1.0898 -.072 .0674 1.1272 -4 -.5)"/><use xlink:href="#i" width="20.9" height="21.8" transform="matrix(.9174 .3949 -.4101 .9628 6.55 -27.5)"/><use xlink:href="#t" width="36.4" height="34.2" transform="translate(3.75 -60.1)"/></g></g><g clip-path="url(#v)"><g transform="translate(423.75 61.1)"><use xlink:href="#g" width="11.3" height="5" transform="translate(-5.25 -2.15)"/><use xlink:href="#h" width="7.7" height="4.8" transform="matrix(.7458 -.6423 -1.0863 -.8069 -5.85 4.05)"/><use xlink:href="#h" width="7.7" height="4.8" transform="matrix(1.0898 -.072 .0674 1.1272 -4 -.5)"/><use xlink:href="#i" width="20.9" height="21.8" transform="matrix(.9338 .3547 -.365 .9737 5.05 -27.2)"/><use xlink:href="#t" width="36.4" height="34.2" transform="translate(3.75 -60.1)"/></g></g><g clip-path="url(#w)"><g transform="translate(481.75 61.1)"><use xlink:href="#g" width="11.3" height="5" transform="translate(-5.25 -2.15)"/><use xlink:href="#h" width="7.7" height="4.8" transform="matrix(.7458 -.6423 -1.0863 -.8069 -5.85 4.05)"/><use xlink:href="#h" width="7.7" height="4.8" transform="matrix(1.0898 -.072 .0674 1.1272 -4 -.5)"/><use xlink:href="#i" width="20.9" height="21.8" transform="matrix(.9484 .3138 -.3197 .9826 3.65 -26.85)"/><use xlink:href="#t" width="36.4" height="34.2" transform="translate(3.75 -60.1)"/></g></g><g clip-path="url(#x)"><g transform="translate(539.75 61.1)"><use xlink:href="#g" width="11.3" height="5" transform="translate(-5.25 -2.15)"/><use xlink:href="#h" width="7.7" height="4.8" transform="matrix(.7458 -.6423 -1.0863 -.8069 -5.85 4.05)"/><use xlink:href="#h" width="7.7" height="4.8" transform="matrix(1.0898 -.072 .0674 1.1272 -4 -.5)"/><use xlink:href="#i" width="20.9" height="21.8" transform="matrix(.9613 .2723 -.2711 .9902 2.15 -26.5)"/><use xlink:href="#t" width="36.4" height="34.2" transform="translate(3.75 -60.1)"/></g></g><g clip-path="url(#y)"><g transform="translate(597.75 61.1)"><use xlink:href="#g" width="11.3" height="5" transform="translate(-5.25 -2.15)"/><use xlink:href="#h" width="7.7" height="4.8" transform="matrix(.7458 -.6423 -1.0863 -.8069 -5.85 4.05)"/><use xlink:href="#h" width="7.7" height="4.8" transform="matrix(1.0898 -.072 .0674 1.1272 -4 -.5)"/><use xlink:href="#i" width="20.9" height="21.8" transform="matrix(.9724 .2303 -.2259 .9948 .8 -26.05)"/><use xlink:href="#t" width="36.4" height="34.2" transform="translate(3.75 -60.1)"/></g></g><g clip-path="url(#z)"><g transform="translate(655.75 61.1)"><use xlink:href="#g" width="11.3" height="5" transform="translate(-5.25 -2.15)"/><use xlink:href="#h" width="7.7" height="4.8" transform="matrix(.7458 -.6423 -1.0863 -.8069 -5.85 4.05)"/><use xlink:href="#h" width="7.7" height="4.8" transform="matrix(1.0898 -.072 .0674 1.1272 -4 -.5)"/><use xlink:href="#i" width="20.9" height="21.8" transform="matrix(.9809 .191 -.1807 .9973 -.65 -25.7)"/><use xlink:href="#t" width="36.4" height="34.2" transform="translate(3.75 -60.1)"/></g></g><g clip-path="url(#A)"><g transform="translate(713.75 61.1)"><use xlink:href="#g" width="11.3" height="5" transform="translate(-5.25 -2.15)"/><use xlink:href="#h" width="7.7" height="4.8" transform="matrix(.7458 -.6423 -1.0863 -.8069 -5.85 4.05)"/><use xlink:href="#h" width="7.7" height="4.8" transform="matrix(1.0898 -.072 .0674 1.1272 -4 -.5)"/><use xlink:href="#i" width="20.9" height="21.8" transform="matrix(.9884 .1482 -.1325 .9982 -2.05 -25.15)"/><use xlink:href="#t" width="36.4" height="34.2" transform="translate(3.75 -60.1)"/></g></g><g clip-path="url(#B)"><g transform="translate(771.75 61.1)"><use xlink:href="#g" width="11.3" height="5" transform="translate(-5.25 -2.15)"/><use xlink:href="#h" width="7.7" height="4.8" transform="matrix(.7458 -.6423 -1.0863 -.8069 -5.85 4.05)"/><use xlink:href="#h" width="7.7" height="4.8" transform="matrix(1.0898 -.072 .0674 1.1272 -4 -.5)"/><use xlink:href="#i" width="20.9" height="21.8" transform="matrix(.9941 .1052 -.0879 .9965 -3.4 -24.8)"/><use xlink:href="#t" width="36.4" height="34.2" transform="translate(3.75 -60.1)"/></g></g><g clip-path="url(#C)"><g transform="translate(829.75 61.1)"><use xlink:href="#g" width="11.3" height="5" transform="translate(-5.25 -2.15)"/><use xlink:href="#h" width="7.7" height="4.8" transform="matrix(.7458 -.6423 -1.0863 -.8069 -5.85 4.05)"/><use xlink:href="#h" width="7.7" height="4.8" transform="matrix(1.0898 -.072 .0674 1.1272 -4 -.5)"/><use xlink:href="#i" width="20.9" height="21.8" transform="matrix(.9979 .0619 -.0437 .9929 -4.8 -24.4)"/><use xlink:href="#t" width="36.4" height="34.2" transform="translate(3.75 -60.1)"/></g></g><g clip-path="url(#D)"><g transform="translate(887.75 61.1)"><use xlink:href="#g" width="11.3" height="5" transform="translate(-5.25 -2.15)"/><use xlink:href="#h" width="7.7" height="4.8" transform="matrix(.7458 -.6423 -1.0863 -.8069 -5.85 4.05)"/><use xlink:href="#h" width="7.7" height="4.8" transform="matrix(1.0898 -.072 .0674 1.1272 -4 -.5)"/><use xlink:href="#i" width="20.9" height="21.8" transform="matrix(.9997 .0185 0 .9873 -6.15 -24)"/><use xlink:href="#t" width="36.4" height="34.2" transform="translate(3.75 -60.1)"/></g></g><g clip-path="url(#E)"><g transform="translate(945.75 61.1)"><use xlink:href="#g" width="11.3" height="5" transform="translate(-5.25 -2.15)"/><use xlink:href="#h" width="7.7" height="4.8" transform="matrix(.7458 -.6423 -1.0863 -.8069 -5.85 4.05)"/><use xlink:href="#h" width="7.7" height="4.8" transform="matrix(1.0898 -.072 .0674 1.1272 -4 -.5)"/><use xlink:href="#i" width="20.9" height="21.8" transform="matrix(.9997 -.0183 .0431 .9795 -7.5 -23.55)"/><use xlink:href="#t" width="36.4" height="34.2" transform="translate(3.75 -60.1)"/></g></g><g clip-path="url(#F)"><g transform="translate(1003.75 61.1)"><use xlink:href="#g" width="11.3" height="5" transform="translate(-5.25 -2.15)"/><use xlink:href="#h" width="7.7" height="4.8" transform="matrix(.7458 -.6423 -1.0863 -.8069 -5.85 4.05)"/><use xlink:href="#h" width="7.7" height="4.8" transform="matrix(1.0898 -.072 .0674 1.1272 -4 -.5)"/><use xlink:href="#i" width="20.9" height="21.8" transform="matrix(.9978 -.0617 .0855 .9698 -8.8 -23.1)"/><use xlink:href="#t" width="36.4" height="34.2" transform="translate(3.75 -60.1)"/></g></g><g clip-path="url(#G)"><g transform="translate(1061.75 61.1)"><use xlink:href="#g" width="11.3" height="5" transform="translate(-5.25 -2.15)"/><use xlink:href="#h" width="7.7" height="4.8" transform="matrix(.7458 -.6423 -1.0863 -.8069 -5.85 4.05)"/><use xlink:href="#h" width="7.7" height="4.8" transform="matrix(1.0898 -.072 .0674 1.1272 -4 -.5)"/><use xlink:href="#i" width="20.9" height="21.8" transform="matrix(.9941 -.1049 .1272 .9583 -10.1 -22.65)"/><use xlink:href="#t" width="36.4" height="34.2" transform="translate(3.75 -60.1)"/></g></g><g clip-path="url(#H)"><g transform="translate(1119.75 61.1)"><use xlink:href="#g" width="11.3" height="5" transform="translate(-5.25 -2.15)"/><use xlink:href="#h" width="7.7" height="4.8" transform="matrix(.7462 -.6441 -1.0887 -.8073 -5.8 4.1)"/><use xlink:href="#h" width="7.7" height="4.8" transform="matrix(1.0905 -.075 .0705 1.1279 -4.05 -.45)"/><use xlink:href="#i" width="20.9" height="21.8" transform="matrix(.9888 -.1487 .1717 .9449 -11.55 -21.95)"/><use xlink:href="#t" width="36.4" height="34.2" transform="translate(3.75 -60.1)"/></g></g><g clip-path="url(#I)"><g transform="translate(1177.75 61.1)"><use xlink:href="#g" width="11.3" height="5" transform="translate(-5.25 -2.15)"/><use xlink:href="#h" width="7.7" height="4.8" transform="matrix(.7458 -.6423 -1.0863 -.8069 -5.85 4.05)"/><use xlink:href="#h" width="7.7" height="4.8" transform="matrix(1.0898 -.072 .0674 1.1272 -4 -.5)"/><use xlink:href="#i" width="20.9" height="21.8" transform="matrix(.9871 -.139 .1315 .9637 -11.2 -21.9)"/><use xlink:href="#t" width="36.4" height="34.2" transform="translate(3.75 -60.1)"/></g></g><g clip-path="url(#J)"><g transform="translate(1235.75 61.1)"><use xlink:href="#g" width="11.3" height="5" transform="translate(-5.25 -2.15)"/><use xlink:href="#h" width="7.7" height="4.8" transform="matrix(.7458 -.6423 -1.0863 -.8069 -5.85 4.05)"/><use xlink:href="#h" width="7.7" height="4.8" transform="matrix(1.0898 -.072 .0674 1.1272 -4 -.5)"/><use xlink:href="#i" width="20.9" height="21.8" transform="matrix(.9857 -.13 .0905 .9811 -10.9 -21.75)"/><use xlink:href="#t" width="36.4" height="34.2" transform="translate(3.75 -60.1)"/></g></g><g clip-path="url(#K)"><g transform="translate(1293.75 61.1)"><use xlink:href="#g" width="11.3" height="5" transform="translate(-5.25 -2.15)"/><use xlink:href="#h" width="7.7" height="4.8" transform="matrix(.7458 -.6423 -1.0863 -.8069 -5.85 4.05)"/><use xlink:href="#h" width="7.7" height="4.8" transform="matrix(1.0898 -.072 .0674 1.1272 -4 -.5)"/><use xlink:href="#i" width="20.9" height="21.8" transform="matrix(.9842 -.1211 .0483 .9968 -10.55 -21.65)"/><use xlink:href="#t" width="36.4" height="34.2" transform="translate(3.75 -60.1)"/></g></g><g clip-path="url(#L)"><g transform="translate(1351.75 61.1)"><use xlink:href="#g" width="11.3" height="5" transform="translate(-5.25 -2.15)"/><use xlink:href="#h" width="7.7" height="4.8" transform="matrix(.7458 -.6423 -1.0863 -.8069 -5.85 4.05)"/><use xlink:href="#h" width="7.7" height="4.8" transform="matrix(1.0898 -.072 .0674 1.1272 -4 -.5)"/><use xlink:href="#i" width="20.9" height="21.8" transform="matrix(.9826 -.1122 .0049 1.0107 -10.25 -21.55)"/><use xlink:href="#t" width="36.4" height="34.2" transform="translate(3.75 -60.1)"/></g></g><g clip-path="url(#M)"><g transform="translate(1409.75 61.1)"><use xlink:href="#g" width="11.3" height="5" transform="translate(-5.25 -2.15)"/><use xlink:href="#h" width="7.7" height="4.8" transform="matrix(.7462 -.6441 -1.0887 -.8073 -5.8 4.1)"/><use xlink:href="#h" width="7.7" height="4.8" transform="matrix(1.0905 -.075 .0705 1.1279 -4.05 -.45)"/><use xlink:href="#i" width="20.9" height="21.8" transform="matrix(.9812 -.104 -.0381 1.0226 -9.9 -21.8)"/><use xlink:href="#t" width="36.4" height="34.2" transform="translate(3.75 -60.1)"/></g></g></svg>