<svg xmlns="http://www.w3.org/2000/svg" xmlns:xlink="http://www.w3.org/1999/xlink" width="2739" height="35" viewBox="0 0 2739 35"><defs><clipPath id="d"><path d="M1 1h36v33H1z"/></clipPath><clipPath id="m"><path d="M38 1h36v33H38z"/></clipPath><clipPath id="p"><path d="M75 1h36v33H75z"/></clipPath><clipPath id="s"><path d="M112 1h36v33h-36z"/></clipPath><clipPath id="v"><path d="M149 1h36v33h-36z"/></clipPath><clipPath id="y"><path d="M186 1h36v33h-36z"/></clipPath><clipPath id="B"><path d="M223 1h36v33h-36z"/></clipPath><clipPath id="E"><path d="M260 1h36v33h-36z"/></clipPath><clipPath id="H"><path d="M297 1h36v33h-36z"/></clipPath><clipPath id="J"><path d="M334 1h36v33h-36z"/></clipPath><clipPath id="L"><path d="M371 1h36v33h-36z"/></clipPath><clipPath id="N"><path d="M408 1h36v33h-36z"/></clipPath><clipPath id="P"><path d="M445 1h36v33h-36z"/></clipPath><clipPath id="R"><path d="M482 1h36v33h-36z"/></clipPath><clipPath id="T"><path d="M519 1h36v33h-36z"/></clipPath><clipPath id="V"><path d="M556 1h36v33h-36z"/></clipPath><clipPath id="X"><path d="M593 1h36v33h-36z"/></clipPath><clipPath id="Z"><path d="M630 1h36v33h-36z"/></clipPath><clipPath id="ab"><path d="M667 1h36v33h-36z"/></clipPath><clipPath id="ad"><path d="M704 1h36v33h-36z"/></clipPath><clipPath id="ae"><path d="M741 1h36v33h-36z"/></clipPath><clipPath id="af"><path d="M778 1h36v33h-36z"/></clipPath><clipPath id="ag"><path d="M815 1h36v33h-36z"/></clipPath><clipPath id="ah"><path d="M852 1h36v33h-36z"/></clipPath><clipPath id="ai"><path d="M889 1h36v33h-36z"/></clipPath><clipPath id="aj"><path d="M926 1h36v33h-36z"/></clipPath><clipPath id="ak"><path d="M963 1h36v33h-36z"/></clipPath><clipPath id="al"><path d="M1000 1h36v33h-36z"/></clipPath><clipPath id="am"><path d="M1037 1h36v33h-36z"/></clipPath><clipPath id="an"><path d="M1074 1h36v33h-36z"/></clipPath><clipPath id="ao"><path d="M1111 1h36v33h-36z"/></clipPath><clipPath id="ap"><path d="M1148 1h36v33h-36z"/></clipPath><clipPath id="aq"><path d="M1185 1h36v33h-36z"/></clipPath><clipPath id="ar"><path d="M1222 1h36v33h-36z"/></clipPath><clipPath id="as"><path d="M1259 1h36v33h-36z"/></clipPath><clipPath id="at"><path d="M1296 1h36v33h-36z"/></clipPath><clipPath id="au"><path d="M1333 1h36v33h-36z"/></clipPath><clipPath id="av"><path d="M1370 1h36v33h-36z"/></clipPath><clipPath id="aw"><path d="M1407 1h36v33h-36z"/></clipPath><clipPath id="ax"><path d="M1444 1h36v33h-36z"/></clipPath><clipPath id="ay"><path d="M1481 1h36v33h-36z"/></clipPath><clipPath id="az"><path d="M1518 1h36v33h-36z"/></clipPath><clipPath id="aA"><path d="M1555 1h36v33h-36z"/></clipPath><clipPath id="aB"><path d="M1592 1h36v33h-36z"/></clipPath><clipPath id="aC"><path d="M1629 1h36v33h-36z"/></clipPath><clipPath id="aD"><path d="M1666 1h36v33h-36z"/></clipPath><clipPath id="aE"><path d="M1703 1h36v33h-36z"/></clipPath><clipPath id="aF"><path d="M1740 1h36v33h-36z"/></clipPath><clipPath id="aG"><path d="M1777 1h36v33h-36z"/></clipPath><clipPath id="aH"><path d="M1814 1h36v33h-36z"/></clipPath><clipPath id="aI"><path d="M1851 1h36v33h-36z"/></clipPath><clipPath id="aJ"><path d="M1888 1h36v33h-36z"/></clipPath><clipPath id="aK"><path d="M1925 1h36v33h-36z"/></clipPath><clipPath id="aL"><path d="M1962 1h36v33h-36z"/></clipPath><clipPath id="aM"><path d="M1999 1h36v33h-36z"/></clipPath><clipPath id="aN"><path d="M2036 1h36v33h-36z"/></clipPath><clipPath id="aO"><path d="M2073 1h36v33h-36z"/></clipPath><clipPath id="aP"><path d="M2110 1h36v33h-36z"/></clipPath><clipPath id="aQ"><path d="M2147 1h36v33h-36z"/></clipPath><clipPath id="aR"><path d="M2184 1h36v33h-36z"/></clipPath><clipPath id="aS"><path d="M2221 1h36v33h-36z"/></clipPath><clipPath id="aT"><path d="M2258 1h36v33h-36z"/></clipPath><clipPath id="aU"><path d="M2295 1h36v33h-36z"/></clipPath><clipPath id="aV"><path d="M2332 1h36v33h-36z"/></clipPath><clipPath id="aW"><path d="M2369 1h36v33h-36z"/></clipPath><clipPath id="aX"><path d="M2406 1h36v33h-36z"/></clipPath><clipPath id="aY"><path d="M2443 1h36v33h-36z"/></clipPath><clipPath id="aZ"><path d="M2480 1h36v33h-36z"/></clipPath><clipPath id="ba"><path d="M2517 1h36v33h-36z"/></clipPath><clipPath id="bb"><path d="M2554 1h36v33h-36z"/></clipPath><clipPath id="bc"><path d="M2591 1h36v33h-36z"/></clipPath><clipPath id="bd"><path d="M2628 1h36v33h-36z"/></clipPath><clipPath id="be"><path d="M2665 1h36v33h-36z"/></clipPath><clipPath id="bf"><path d="M2702 1h36v33h-36z"/></clipPath><path id="c" fill="#382c16" fill-opacity=".3" d="M3.4-1.7q1.4.5 1.4 1.4T3.5 1.3t-3.2 1L-3 1.9Q-4.3 1.4-4.3.6-4.4-.4-3-1q1.3-.8 3.2-1z" transform="translate(4.35 2.05)"/><path id="a" fill="#0d1417" d="m10-10.7 1.7 3.2 1.6-.2 1.8-3 1 .7-1 3 4.3 2-.5 1.7-3-.8-6.5 2.2L0 0v-2l9-2.1.8-2.5-1.3-3.8z" transform="translate(0 10.75)"/><path id="ac" fill="none" stroke="#0a1513" stroke-linecap="round" stroke-linejoin="round" stroke-width="1" d="M-25 6.9q.5.4 1.3.7" transform="translate(25.55 -6.35)"/><path id="aa" fill="none" stroke="#0a1513" stroke-linecap="round" stroke-linejoin="round" stroke-width="1" d="M-25.4 6.4q.5.7 1.4 1.2" transform="translate(25.9 -5.85)"/><path id="Y" fill="none" stroke="#0a1513" stroke-linecap="round" stroke-linejoin="round" stroke-width="1" d="M-25.8 5.9q.4 1.1 1.5 1.6" transform="translate(26.3 -5.35)"/><path id="W" fill="none" stroke="#0a1513" stroke-linecap="round" stroke-linejoin="round" stroke-width="1" d="M-26.2 5.4q.3 1.4 1.6 2" transform="translate(26.7 -4.85)"/><path id="U" fill="none" stroke="#0a1513" stroke-linecap="round" stroke-linejoin="round" stroke-width="1" d="M-26.5 4.9q.1 1.7 1.5 2.4" transform="translate(27.05 -4.35)"/><path id="S" fill="none" stroke="#0a1513" stroke-linecap="round" stroke-linejoin="round" stroke-width="1" d="M-27 4.4q.2 2 1.7 2.9" transform="translate(27.45 -3.9)"/><path id="Q" fill="none" stroke="#0a1513" stroke-linecap="round" stroke-linejoin="round" stroke-width="1" d="M-25.5 6.9q-1.5-1.2-.6-3.2" transform="translate(27.45 -3.2)"/><path id="O" fill="none" stroke="#0a1513" stroke-linecap="round" stroke-linejoin="round" stroke-width="1" d="M-25.8 6.5q-1.3-1.5.5-3.4" transform="translate(27.45 -2.55)"/><path id="M" fill="none" stroke="#0a1513" stroke-linecap="round" stroke-linejoin="round" stroke-width="1" d="M-26.1 6.1q-1-1.8 1.7-3.7" transform="translate(27.45 -1.9)"/><path id="K" fill="none" stroke="#0a1513" stroke-linecap="round" stroke-linejoin="round" stroke-width="1" d="M-26.4 5.7q-.9-2.1 2.8-4" transform="translate(27.5 -1.25)"/><path id="I" fill="none" stroke="#0a1513" stroke-linecap="round" stroke-linejoin="round" stroke-width="1" d="M-26.7 5.3q-.7-2.5 3.9-4.2" transform="translate(27.5 -.6)"/><path id="G" fill="#8e6140" fill-opacity=".1" d="M0-4.8q2 0 3.4 1.4T4.8 0 3.4 3.4 0 4.8t-3.4-1.4T-4.8 0t1.4-3.4T0-4.8" transform="translate(4.8 4.8)"/><path id="F" fill="none" stroke="#0a1513" stroke-linecap="round" stroke-linejoin="round" stroke-width="1" d="M-27 4.9q-.5-2.8 5-4.4" transform="translate(27.55 .05)"/><path id="D" fill="#8e6342" fill-opacity=".1" d="M0-4.8q2 0 3.4 1.4T4.8 0 3.4 3.4 0 4.8t-3.4-1.4T-4.8 0t1.4-3.4T0-4.8" transform="translate(4.8 4.8)"/><path id="C" fill="none" stroke="#0a1513" stroke-linecap="round" stroke-linejoin="round" stroke-width="1" d="m13.7-18.6 1.1-1.5m-30.2 9.7-1.1-.8m-9.8 14.6Q-25 1.1-20 .2M-.5 22.7v1.5" transform="translate(26.85 20.65)"/><path id="A" fill="#8f6848" fill-opacity=".2" d="M0-4.8q2 0 3.4 1.4T4.8 0 3.4 3.4 0 4.8t-3.4-1.4T-4.8 0t1.4-3.4T0-4.8" transform="translate(4.8 4.8)"/><path id="z" fill="none" stroke="#0a1513" stroke-linecap="round" stroke-linejoin="round" stroke-width="1" d="M-26 2.7Q-23.6.5-18.9 0m3.3-10.6 1.3 1M-.5 21v1.4M12.4-17l1.5-2.1" transform="translate(26.5 19.5)"/><path id="x" fill="#917253" fill-opacity=".3" d="M0-4.8q2 0 3.4 1.4T4.8 0 3.4 3.4 0 4.8t-3.4-1.4T-4.8 0t1.4-3.4T0-4.8" transform="translate(4.8 4.8)"/><path id="w" fill="none" stroke="#0a1513" stroke-linecap="round" stroke-linejoin="round" stroke-width="1" d="M-25.7 1.9q3.4-1.8 7.8-2m3.1-9.9 1.5 1.1m12.7 27v4.4m11.8-37.7L13-18" transform="translate(26.2 18.4)"/><path id="u" fill="#947f62" fill-opacity=".5" d="M0-4.8q2 0 3.4 1.4T4.8 0 3.4 3.4 0 4.8t-3.4-1.4T-4.8 0t1.4-3.4T0-4.8" transform="translate(4.8 4.8)"/><path id="t" fill="none" stroke="#0a1513" stroke-linecap="round" stroke-linejoin="round" stroke-width="1" d="M-23.9 1.2q4.3-1.2 9.2-1.3m1.7-8.5 2.1 1.4M-.6 13.7v5.5M8.1-11l3.2-4.3" transform="translate(24.4 15.95)"/><path id="r" fill="#979076" fill-opacity=".7" d="M0-4.8q2 0 3.4 1.4T4.8 0 3.4 3.4 0 4.8t-3.4-1.4T-4.8 0t1.4-3.4T0-4.8" transform="translate(4.8 4.8)"/><path id="q" fill="none" stroke="#0a1513" stroke-linecap="round" stroke-linejoin="round" stroke-width="1" d="M-22.1.4q5.2-.5 10.7-.5m.3-7.2 2.6 1.9M-.7 9.1v6.6M5.1-6.9 9.6-13" transform="translate(22.65 13.5)"/><path id="o" fill="#9ba68d" d="M0-4.8q2 0 3.4 1.4T4.8 0 3.4 3.4 0 4.8t-3.4-1.4T-4.8 0t1.4-3.4T0-4.8" transform="translate(4.8 4.8)"/><path id="n" fill="none" stroke="#0a1513" stroke-linecap="round" stroke-linejoin="round" stroke-width="1" d="m-20.4-.3 12.2.2M-9.3-6l3.2 2.3m5.3 8.4.1 7.7M2-2.8l5.8-7.7" transform="translate(20.9 11.05)"/><path id="i" fill="#000" d="M.2-1.8q1.4-.7 2.4.9T.7 1.5L-3.5 3H-6q-.7-.3 2-2.2T.2-1.8" transform="translate(6.15 2.05)"/><g id="b"><path fill="#e3f3ed" d="M2.1 7h.5v8.8l-.8.2z"/><path fill="#8dc7b5" d="m1.8 16-.4-.2V7h.7z"/><path fill="none" stroke="#543302" stroke-linecap="round" stroke-linejoin="round" stroke-opacity=".5" stroke-width="__RESOLUTION__" d="M2.6 7v8.8" vector-effect="non-scaling-stroke"/><path fill="#c6e8db" d="M3.2 5.7 3.6 7l-.5 1.5-1.1.3-1-.3L.4 7l.5-1.3 1-.3z"/><path fill="none" stroke="#3d4701" stroke-linecap="round" stroke-linejoin="round" stroke-opacity=".5" stroke-width="__RESOLUTION__" d="M3.2 5.7 3.6 7l-.5 1.5-1.1.3-1-.3L.4 7l.5-1.3" vector-effect="non-scaling-stroke"/><path fill="#c9e9dc" d="M3.3.4 2.8.1v.7l.4.1zm-.8.5V.6l.1-.6h.6l.4.7v1l-.3.2V2l-.1.2.6-.3.6.4v.3l-1.1.7-.9-.2v.1l-.1.9-1.9.5-.3.3.1-.9.2-.2-.2-1.5-.1-1L.6 0l.7.4v1l.2.7h.6l.3-.8zm1.1 1.5.5-.1-.3-.3-.4.1zM1.8 4.9l.8-.4.2.4-.5.2zm.6-1.8.8-.9zm-.9.3.2-.2.1-.1.5.2-.5-.2-.1.1zl.2.2-.4.3-.9-.1.6-.2h.2zm1.5.8h.1l.4-.3.2.4-.3.7zM.5.6v.6L.8 1l.3-.6L.7.3z"/><path fill="#fcfff1" d="m3.3.4-.1.5-.4-.1V.1zm.3 2-.2-.2.4-.3.3.4zm-2.1 1 .2.1-.4.3H.4l.6-.2h.2zM.5.5.8.3l.2.2-.2.6H.5z"/><path fill="#8dc7b5" d="M4.4 2.6v.5l-.5.2.2.5-.7 1.7h-.2l-.2.2-1.5.2L0 5.2V5l.4-.3L2.3 4l.1-.8.3.1-.2.8-.8.7.8-.6v-.1l.2-.8-.3-.1V3l.9.2zM1.6 4.9l.5.2.6-.2-.2-.4zM3 4.2l.4.8.3-.7-.3-.4zm.1 0 .9-.9z"/><path fill="none" stroke="#543302" stroke-linecap="round" stroke-linejoin="round" stroke-opacity=".6" stroke-width="__RESOLUTION__" d="M2.5 1V.5l.1-.6h.6l.4.7v1l-.3.2V2l-.1.2.6-.3.6.4v.3m-.4.7.2.5-.7 1.7h-.2l-.2.2-1.6.2L0 5.2V5l.2-.8.2-.3-.2-1.5-.1-1L.6 0l.7.4v.8m0 .2.2.7H2l.3-.8m0 2 .3.1-.2.8v0l-.8.7m.7-1.8v.2h0m.8-1.1-.8.9m0 .2h-.1L1.8 3l-.1.1-.2.1-.3.2m2.8 0-.9.9" vector-effect="non-scaling-stroke"/><path fill="#e3f3ed" d="m2 7 1.7-.6v1L2 8z"/><path fill="#8dc7b5" d="M2 7v1L.3 7.4v-1z"/><path fill="none" stroke="#366d61" stroke-linecap="round" stroke-linejoin="round" stroke-width="__RESOLUTION__" d="m2 8 1.7-.5V6.4L2 7 .3 6.4v1z" vector-effect="non-scaling-stroke"/><path fill="#0d1417" d="m1.3 11.4.3-.3.7.8-.3.3z"/></g><g id="l"><path fill="none" stroke="#fff" stroke-linecap="round" stroke-linejoin="round" stroke-width="1" d="m20 15.2-.2-.1L8 4.1m12 11.1.7.6 14.7 13.5m-15.3-14-.2-.1"/><path fill="none" stroke="#fff" stroke-linecap="round" stroke-linejoin="round" stroke-width="1" d="M19.8 15v.2h.3L28.8.5m-8.1 15.4 1-.7h-1.6v.1l-.2.3L19 17l-9.3 6.4m11-7.6-.6.5 2.7 15.4m-2.9-16.2-.1-.4-19.3-.4m19.4.8.2.8-1.1.7-6.7 11.3M31.1 8.7l-9.4 6.5 10.7.2M19.8 15 17.5 2.3"/><path fill="#fefce7" d="M19.6 4.7q4.4 0 7.5 3.2t3.2 7.5-3.2 7.6-7.6 3.2T12 23t-3.2-7.6q0-4.4 3.2-7.5t7.5-3.2"/></g><g id="k"><path fill="#8dc7b5" d="M0 3.5v-.8q.1-.8.8-1.5l.5-.4Q2.5.4 3.2 1l-.9.7Q.5.8 0 3.5M5.9.7h.3l.3.1.3.2L5.2.8zm-1.2.5v.1l.5.3q.5.5-.3 1l-.6-.4h-.1zm-1.3 0 .4.6v.3L3.4 2h-.6zM2.1 3.5v-.6l.2.1z"/><path fill="#a5dac6" d="M0 3.5Q.5.8 2.4 1.7l.8-.7.2.2-.6.8h.6q-.7.4-1.1 1l-.1-.1-.1.3v.3q-.9 1.3-.1 3l-.8-.4-.7-.9Q0 4.4 0 3.5m7.2-2.2.5.6q.4.8.3 1.9l-.7 2q-.5.8-2 1 1-1.9.7-2.8h.1q1.2.5 1.3-.8t-.8-.4q-.7.7-.6 1h-.1q-.5-1-1-1.2.8-.5.4-1h-.1l-.4-.3v-.1l.4-.4 1.6.2z"/><path fill="#e3f3ed" d="M3.2 1q-.8-.6-2-.2L2.4.3Q4.2-.4 6 .7l-.7.1H3.9zm2.1 5.8h-.4Q3.3 7 2 6.6q-.8-1.7 0-3l1 .8 1 .2q.5-.2.7-.8h-.3q-.9.1-2.1-.7.4-.6 1-1l.5.1v-.3l-.4-.6.5-.2.8.3-.5.9.7.3q.5.3 1 1.3 0-.3.7-1 1-.9.8.4T6.1 4H6q.3.9-.7 2.7"/><path fill="#dabe7e" d="m6.5.8.4.2h-.1z"/><path fill="#f3ecc7" d="m6.9 1 .2.1.1.2-.4-.4z"/><path fill="#fcfff1" d="m3.2 1 .6-.2h1.4l-.4.4v.1h-.1L3.9 1l-.5.2z"/><path fill="#fff" d="M2.3 3q1.3.8 2.1.8l.4-.1q-.3.6-.8.7l-1-.1-1-.8z"/><path fill="none" stroke="#634f2e" stroke-linecap="round" stroke-linejoin="round" stroke-opacity=".7" stroke-width="__RESOLUTION__" d="m1.3.8-.5.4Q.1 2 .1 2.7l-.1.8q0 .9.5 1.7l.6.9.9.4q1.3.6 2.9.4l.4-.2q1.5-.2 2-1L8 3.9q.1-1.1-.3-1.9l-.5-.6-.1-.2-.2-.2-.4-.1-.3-.2h-.3Q4.1-.3 2.3.4z" vector-effect="non-scaling-stroke"/><path fill="#c9e9dc" d="m4 1.3.6.1.3.4-.3.3-.6.1-.6-.1-.3-.4.3-.3z"/><path fill="none" stroke="#543a00" stroke-linecap="round" stroke-linejoin="round" stroke-opacity=".6" stroke-width="__RESOLUTION__" d="M4 1.3h-.6l-.2.4.2.4.6.1.6-.1.3-.3-.3-.4z" vector-effect="non-scaling-stroke"/><path fill="#366d61" d="m4 1.4.3.1.2.2-.2.2h-.6l-.2-.3.2-.2z"/></g><g id="j"><path fill="#36545c" d="m8.3 4.3-.4.2v1.7L6.6 8.6H5.4q-2.3 0-3-.8L1.1 6.2Q1.3 3.9 2 2l.2-.3L4 2l2.1.7q.1-.4 2.1 1.6M4.4 5.6V5zM3 5l.1-.6z"/><path fill="#1a272b" d="m1 6.2 1.4 1.6q.7.8 3 .8h1.2l1.2-2.4V4.5l.4-.1h.2l.1 3.4q.1.9-.6 1.5l-1 .7-2-.1L2 8.7q-.7-.3-1-2.5"/><path fill="none" stroke="#000" stroke-linecap="round" stroke-linejoin="round" stroke-opacity=".5" stroke-width="__RESOLUTION__" d="m6.2 2.7-2.1-.8m4.3 2.3L8.5 8q.1.8-.6 1.4l-1 .7-2-.1L2 8.7q-.7-.3-1-2.5" vector-effect="non-scaling-stroke"/><path fill="none" stroke="#000" stroke-linecap="round" stroke-linejoin="round" stroke-width="__RESOLUTION__" d="M4.5 5v.6M3 4.4V5" vector-effect="non-scaling-stroke"/><path fill="#1a272b" d="M10.7 3.8 8 4.4q-.3 0-.3.2l-.4-.7z"/><path fill="#36545c" d="m10.7 3.8-3.4.1L6 3.6l.5-1 1.6-.4q1.5.6 2.6 1.5"/><path fill="none" stroke="#000" stroke-linecap="round" stroke-linejoin="round" stroke-opacity=".5" stroke-width="__RESOLUTION__" d="M7.8 4.6q-.1-.1.2-.2l2.7-.7" vector-effect="non-scaling-stroke"/><path fill="#36545c" d="M.4.1q1.3.7 3.4 1.2l.4 1.3Q3 3.8.7 1z"/><path fill="none" stroke="#000" stroke-linecap="round" stroke-linejoin="round" stroke-opacity=".5" stroke-width="__RESOLUTION__" d="M.4.1q1.3.7 3.4 1.2" vector-effect="non-scaling-stroke"/><path fill="#c6e8db" d="m5.3 9.7-.1.3-.1.7L3.8 9l-.5 2-.9-.1.1-2.5-1.4.8-.7-.9L1.6 7 0 6.5v-.3l2.3.7-.6 1.3 1.2-.4.5 1.5.6-.7z"/><path fill="#fcfff1" d="M0 6.2v-.5l2.8.1 1.6.5 2 1.8-.2.5-.8-.5-.2 1.6L4 8.6l-.6.7-.5-1.5-1.2.4.7-1.3z"/><path fill="none" stroke="#6f6135" stroke-linecap="round" stroke-linejoin="round" stroke-width="__RESOLUTION__" d="m5.2 10-.1.7L3.8 9l-.5 2-.9-.1.1-2.5-1.4.8-.7-.9L1.6 7 0 6.5v-.3m0 0v-.5l2.8.1 1.6.5 2 1.8-.2.5-.8-.5-.2 1.6" vector-effect="non-scaling-stroke"/></g><g id="h"><path fill="#c2bda3" d="M3.3 1.6q0 .6-.5 1.1t-1.1.5-1.1-.5-.5-1.1l.3.1q.5.4 1.2.4T3 1.8z"/><path fill="#fffdf9" d="m3.3 1.6-.4.2q-.5.4-1.2.4-.8 0-1.3-.4l-.3-.1Q.1 1 .6.6T1.7 0q.7 0 1.1.5t.5 1"/><path fill="none" stroke="#867b59" stroke-linecap="round" stroke-linejoin="round" stroke-width="__RESOLUTION__" d="M.1 1.7q0 .6.5 1.1t1.1.5 1.1-.5.5-1.1v-.2q-.1-.6-.5-1T1.7.1.6.6q-.5.4-.5 1" vector-effect="non-scaling-stroke"/></g><g id="g" transform="translate(2.9 11.3)"><use xlink:href="#a" width="19.3" height="10.8" transform="matrix(.1785 -.0923 -.0923 -.1785 -1.9 2.2)"/><use xlink:href="#b" width="4.3" height="16" transform="translate(-2.05 -11.3)"/></g><use xlink:href="#c" id="f" width="9.2" height="4.3"/></defs><g clip-path="url(#d)"><g transform="translate(19.7 20.9)"><use xlink:href="#f" width="9.2" height="4.3" transform="matrix(.6614 0 0 .7349 -1.95 -2)"/><use xlink:href="#g" width="5.2" height="16" transform="matrix(-.9977 -.0072 -.0072 .9977 -1.2 -16.95)"/><use xlink:href="#h" width="3.4" height="3.4" transform="translate(2.7 -4.5)"/><use xlink:href="#i" width="8.9" height="5.3" transform="matrix(-.1299 -.3375 -.4678 -.1227 4.2 2.85)"/><use xlink:href="#i" width="8.9" height="5.3" transform="matrix(.352 .0635 -.0753 .4176 -4.05 -2.7)"/><use xlink:href="#j" width="10.8" height="10.9" transform="translate(-4.4 -9.75)"/><use xlink:href="#k" width="8" height="6.9" transform="translate(-3.55 -12.5)"/><use xlink:href="#l" width="35.9" height="32.3" transform="translate(-18.7 -19.9)"/></g></g><g clip-path="url(#m)"><g transform="translate(56.7 20.9)"><use xlink:href="#n" width="29.2" height="23.9" transform="matrix(.5 0 0 .5 -9.25 -8.55)"/><use xlink:href="#n" width="29.2" height="23.9" transform="rotate(64.16 3 -10.103)scale(.3919 -.3919)"/><use xlink:href="#n" width="29.2" height="23.9" transform="matrix(.1171 -.4845 -.4845 -.1171 3.2 7.8)"/><use xlink:href="#n" width="29.2" height="23.9" transform="matrix(-.3593 .1551 .1551 .3593 5.7 -9.8)"/><use xlink:href="#k" width="8" height="6.9" transform="translate(-3.7 -14.5)"/><use xlink:href="#o" width="9.6" height="9.6" transform="translate(-6.4 -10.25)scale(1.3125)"/></g></g><g clip-path="url(#p)"><g transform="translate(93.7 20.9)"><use xlink:href="#q" width="32.7" height="29.7" transform="matrix(.5 0 0 .5 -10.15 -9.8)"/><use xlink:href="#q" width="32.7" height="29.7" transform="matrix(.1708 .3527 .3527 -.1708 -8.6 -8.6)"/><use xlink:href="#q" width="32.7" height="29.7" transform="matrix(.1171 -.4845 -.4845 -.1171 4.2 8.95)"/><use xlink:href="#q" width="32.7" height="29.7" transform="matrix(-.3593 .1551 .1551 .3593 5.95 -10.95)"/><use xlink:href="#k" width="8" height="6.9" transform="rotate(-.28 -3062.456 737.253)scale(.9998)"/><use xlink:href="#r" width="9.6" height="9.6" transform="translate(-8.85 -12.75)scale(1.8336)"/></g></g><g clip-path="url(#s)"><g transform="translate(130.7 20.9)"><use xlink:href="#t" width="36.2" height="35.5" transform="matrix(.5 0 0 .5 -11 -11.05)"/><use xlink:href="#t" width="36.2" height="35.5" transform="matrix(.1708 .3527 .3527 -.1708 -9.75 -8.8)"/><use xlink:href="#t" width="36.2" height="35.5" transform="matrix(.1171 -.4845 -.4845 -.1171 5.15 10.1)"/><use xlink:href="#t" width="36.2" height="35.5" transform="matrix(-.3593 .1551 .1551 .3593 6.2 -12.1)"/><use xlink:href="#k" width="8" height="6.9" transform="rotate(-.556 -1604.29 363.22)scale(.9996)"/><use xlink:href="#u" width="9.6" height="9.6" transform="translate(-10.85 -14.8)scale(2.26)"/></g></g><g clip-path="url(#v)"><g transform="translate(167.7 20.9)"><use xlink:href="#w" width="39.8" height="41.4" transform="matrix(.5 0 0 .5 -11.9 -12.3)"/><use xlink:href="#w" width="39.8" height="41.4" transform="matrix(.1708 .3527 .3527 -.1708 -10.9 -9)"/><use xlink:href="#w" width="39.8" height="41.4" transform="matrix(.1171 -.4845 -.4845 -.1171 6.15 11.25)"/><use xlink:href="#w" width="39.8" height="41.4" transform="matrix(-.3593 .1551 .1551 .3593 6.45 -13.25)"/><use xlink:href="#k" width="8" height="6.9" transform="rotate(-1.015 -902.345 192.465)scale(.9995)"/><use xlink:href="#x" width="9.6" height="9.6" transform="translate(-12.5 -16.45)scale(2.5917)"/></g></g><g clip-path="url(#y)"><g transform="translate(204.7 20.9)"><use xlink:href="#z" width="41" height="43.3" transform="matrix(.5 0 0 .5 -12.05 -12.85)"/><use xlink:href="#z" width="41" height="43.3" transform="matrix(.1708 .3527 .3527 -.1708 -11.35 -8.9)"/><use xlink:href="#z" width="41" height="43.3" transform="matrix(.1171 -.4845 -.4845 -.1171 6.65 11.5)"/><use xlink:href="#z" width="41" height="43.3" transform="matrix(-.3593 .1551 .1551 .3593 6.4 -13.7)"/><use xlink:href="#k" width="8" height="6.9" transform="matrix(.999 -.0224 .0223 .999 -3.55 -16.4)"/><use xlink:href="#A" width="9.6" height="9.6" transform="translate(-13.6 -17.55)scale(2.8285)"/></g></g><g clip-path="url(#B)"><g transform="translate(241.7 20.9)"><use xlink:href="#C" width="42.1" height="45.4" transform="matrix(.5 0 0 .5 -12.25 -13.35)"/><use xlink:href="#C" width="42.1" height="45.4" transform="matrix(.1708 .3527 .3527 -.1708 -11.8 -8.85)"/><use xlink:href="#C" width="42.1" height="45.4" transform="matrix(.1171 -.4845 -.4845 -.1171 7.15 11.85)"/><use xlink:href="#C" width="42.1" height="45.4" transform="matrix(-.3593 .1551 .1551 .3593 6.35 -14.2)"/><use xlink:href="#k" width="8" height="6.9" transform="rotate(-1.543 -623.73 121.59)scale(.999)"/><use xlink:href="#D" width="9.6" height="9.6" transform="translate(-14.3 -18.25)scale(2.9706)"/></g></g><g clip-path="url(#E)"><g transform="translate(278.7 20.9)"><use xlink:href="#F" width="6" height="5.5" transform="matrix(.5 0 0 .5 -12.6 -3.05)"/><use xlink:href="#F" width="6" height="5.5" transform="matrix(.1708 .3527 .3527 -.1708 -4.65 -12.6)"/><use xlink:href="#F" width="6" height="5.5" transform="matrix(.1171 -.4845 -.4845 -.1171 -2.9 9.75)"/><use xlink:href="#F" width="6" height="5.5" transform="matrix(-.3593 .1551 .1551 .3593 9.8 -6.9)"/><use xlink:href="#k" width="8" height="6.9" transform="rotate(-1.795 -547.365 101.535)scale(.999)"/><use xlink:href="#G" width="9.6" height="9.6" transform="translate(-14.6 -18.45)scale(3.018)"/></g></g><g clip-path="url(#H)"><g transform="translate(315.7 20.9)"><use xlink:href="#I" width="5.5" height="5.2" transform="matrix(.5 0 0 .5 -12.55 -2.75)"/><use xlink:href="#I" width="5.5" height="5.2" transform="rotate(64.16 7.905 -9.9)scale(.3919 -.3919)"/><use xlink:href="#I" width="5.5" height="5.2" transform="matrix(.1171 -.4845 -.4845 -.1171 -3.2 9.65)"/><use xlink:href="#I" width="5.5" height="5.2" transform="matrix(-.3593 .1551 .1551 .3593 9.85 -6.65)"/><use xlink:href="#k" width="8" height="6.9" transform="rotate(-2.048 -489.772 86.372)scale(.9988)"/><use xlink:href="#G" width="9.6" height="9.6" transform="translate(-14.6 -18.45)scale(3.018)"/></g></g><g clip-path="url(#J)"><g transform="translate(352.7 20.9)"><use xlink:href="#K" width="4.9" height="5" transform="matrix(.5 0 0 .5 -12.55 -2.45)"/><use xlink:href="#K" width="4.9" height="5" transform="rotate(64.16 8.11 -9.75)scale(.3919 -.3919)"/><use xlink:href="#K" width="4.9" height="5" transform="matrix(.1171 -.4845 -.4845 -.1171 -3.5 9.6)"/><use xlink:href="#K" width="4.9" height="5" transform="matrix(-.3593 .1551 .1551 .3593 10 -6.4)"/><use xlink:href="#k" width="8" height="6.9" transform="rotate(-2.29 -445.78 74.942)scale(.9987)"/><use xlink:href="#G" width="9.6" height="9.6" transform="translate(-14.6 -18.45)scale(3.018)"/></g></g><g clip-path="url(#L)"><g transform="translate(389.7 20.9)"><use xlink:href="#M" width="4.3" height="4.7" transform="matrix(.5 0 0 .5 -12.55 -2.15)"/><use xlink:href="#M" width="4.3" height="4.7" transform="rotate(64.16 8.315 -9.6)scale(.3919 -.3919)"/><use xlink:href="#M" width="4.3" height="4.7" transform="matrix(.1171 -.4845 -.4845 -.1171 -3.85 9.5)"/><use xlink:href="#M" width="4.3" height="4.7" transform="matrix(-.3593 .1551 .1551 .3593 10.05 -6.15)"/><use xlink:href="#k" width="8" height="6.9" transform="matrix(.9976 -.0441 .044 .9976 -3.3 -18.15)"/></g></g><g clip-path="url(#N)"><g transform="translate(426.7 20.9)"><use xlink:href="#O" width="3.8" height="4.5" transform="matrix(.5 0 0 .5 -12.55 -1.85)"/><use xlink:href="#O" width="3.8" height="4.5" transform="matrix(.1708 .3527 .3527 -.1708 -3.75 -13)"/><use xlink:href="#O" width="3.8" height="4.5" transform="matrix(.1171 -.4845 -.4845 -.1171 -4.15 9.4)"/><use xlink:href="#O" width="3.8" height="4.5" transform="matrix(-.3593 .1551 .1551 .3593 10.15 -5.95)"/><use xlink:href="#k" width="8" height="6.9" transform="rotate(-2.761 -383.375 59.262)scale(.9985)"/></g></g><g clip-path="url(#P)"><g transform="translate(463.7 20.9)"><use xlink:href="#Q" width="3.2" height="4.2" transform="matrix(.5 0 0 .5 -12.55 -1.55)"/><use xlink:href="#Q" width="3.2" height="4.2" transform="rotate(64.16 8.74 -9.367)scale(.3919 -.3919)"/><use xlink:href="#Q" width="3.2" height="4.2" transform="matrix(.1171 -.4845 -.4845 -.1171 -4.45 9.3)"/><use xlink:href="#Q" width="3.2" height="4.2" transform="matrix(-.3593 .1551 .1551 .3593 10.25 -5.7)"/><use xlink:href="#k" width="8" height="6.9" transform="rotate(-2.802 -382.955 57.127)scale(.9984)"/></g></g><g clip-path="url(#R)"><g transform="translate(500.7 20.9)"><use xlink:href="#S" width="2.6" height="3.9" transform="matrix(.5 0 0 .5 -12.55 -1.2)"/><use xlink:href="#S" width="2.6" height="3.9" transform="rotate(64.16 8.944 -9.217)scale(.3919 -.3919)"/><use xlink:href="#S" width="2.6" height="3.9" transform="matrix(.1171 -.4845 -.4845 -.1171 -4.8 9.25)"/><use xlink:href="#S" width="2.6" height="3.9" transform="matrix(-.3593 .1551 .1551 .3593 10.35 -5.45)"/><use xlink:href="#k" width="8" height="6.9" transform="rotate(-3.026 -357.504 52.122)scale(.9983)"/></g></g><g clip-path="url(#T)"><g transform="translate(537.7 20.9)"><use xlink:href="#U" width="2.6" height="3.5" transform="matrix(.5 0 0 .5 -12.35 -1)"/><use xlink:href="#U" width="2.6" height="3.5" transform="matrix(.1708 .3527 .3527 -.1708 -3.05 -13.2)"/><use xlink:href="#U" width="2.6" height="3.5" transform="matrix(.1171 -.4845 -.4845 -.1171 -4.95 9)"/><use xlink:href="#U" width="2.6" height="3.5" transform="matrix(-.3593 .1551 .1551 .3593 10.3 -5.25)"/><use xlink:href="#k" width="8" height="6.9" transform="rotate(-3.055 -356.94 51.463)scale(.9982)"/></g></g><g clip-path="url(#V)"><g transform="translate(574.7 20.9)"><use xlink:href="#W" width="2.5" height="3.1" transform="matrix(.5 0 0 .5 -12.15 -.8)"/><use xlink:href="#W" width="2.5" height="3.1" transform="rotate(64.16 9.09 -8.808)scale(.3919 -.3919)"/><use xlink:href="#W" width="2.5" height="3.1" transform="matrix(.1171 -.4845 -.4845 -.1171 -5.2 8.75)"/><use xlink:href="#W" width="2.5" height="3.1" transform="matrix(-.3593 .1551 .1551 .3593 10.25 -5)"/><use xlink:href="#k" width="8" height="6.9" transform="rotate(-3.268 -335.531 46.568)scale(.9982)"/></g></g><g clip-path="url(#X)"><g transform="translate(611.7 20.9)"><use xlink:href="#Y" width="2.5" height="2.6" transform="matrix(.5 0 0 .5 -11.95 -.6)"/><use xlink:href="#Y" width="2.5" height="2.6" transform="matrix(.1708 .3527 .3527 -.1708 -2.55 -13.1)"/><use xlink:href="#Y" width="2.5" height="2.6" transform="matrix(.1171 -.4845 -.4845 -.1171 -5.35 8.5)"/><use xlink:href="#Y" width="2.5" height="2.6" transform="matrix(-.3593 .1551 .1551 .3593 10.2 -4.75)"/><use xlink:href="#k" width="8" height="6.9" transform="rotate(-3.285 -335.493 46.22)scale(.9981)"/></g></g><g clip-path="url(#Z)"><g transform="translate(648.7 20.9)"><use xlink:href="#aa" width="2.4" height="2.3" transform="matrix(.5 0 0 .5 -11.75 -.4)"/><use xlink:href="#aa" width="2.4" height="2.3" transform="rotate(64.16 9.26 -8.36)scale(.3919 -.3919)"/><use xlink:href="#aa" width="2.4" height="2.3" transform="rotate(-76.413 2.466 7.65)scale(.4985 -.4985)"/><use xlink:href="#aa" width="2.4" height="2.3" transform="matrix(-.3593 .1551 .1551 .3593 10.1 -4.5)"/><use xlink:href="#k" width="8" height="6.9" transform="rotate(-3.297 -336.07 45.975)scale(.9982)"/></g></g><g clip-path="url(#ab)"><g transform="translate(685.7 20.9)"><use xlink:href="#ac" width="2.4" height="1.8" transform="matrix(.5 0 0 .5 -11.6 -.2)"/><use xlink:href="#ac" width="2.4" height="1.8" transform="matrix(.1708 .3527 .3527 -.1708 -2.05 -13)"/><use xlink:href="#ac" width="2.4" height="1.8" transform="matrix(.1171 -.4845 -.4845 -.1171 -5.75 8.05)"/><use xlink:href="#ac" width="2.4" height="1.8" transform="matrix(-.3593 .1551 .1551 .3593 10.05 -4.3)"/><use xlink:href="#k" width="8" height="6.9" transform="rotate(-3.308 -335.742 45.752)scale(.998)"/></g></g><g clip-path="url(#ad)"><use xlink:href="#k" width="8" height="6.9" transform="rotate(-3.486 386.87 -11821.207)scale(.9982)"/></g><g clip-path="url(#ae)"><use xlink:href="#k" width="8" height="6.9" transform="rotate(-3.544 404.932 -12224.795)scale(.998)"/></g><g clip-path="url(#af)"><use xlink:href="#k" width="8" height="6.9" transform="rotate(-4.062 421.47 -11187.71)scale(.998)"/></g><g clip-path="url(#ag)"><use xlink:href="#k" width="8" height="6.9" transform="rotate(-5.048 439.194 -9422.012)scale(.9978)"/></g><g clip-path="url(#ah)"><use xlink:href="#k" width="8" height="6.9" transform="matrix(.9911 -.113 .113 .9911 867.9 2.35)"/></g><g clip-path="url(#ai)"><use xlink:href="#k" width="8" height="6.9" transform="rotate(-8.059 472.475 -6423.547)scale(.9972)"/></g><g clip-path="url(#aj)"><use xlink:href="#k" width="8" height="6.9" transform="rotate(-10.291 489.926 -5232.466)scale(.9974)"/></g><g clip-path="url(#ak)"><use xlink:href="#k" width="8" height="6.9" transform="rotate(-17.813 506.857 -3126.891)scale(.9964)"/></g><g clip-path="url(#al)"><use xlink:href="#k" width="8" height="6.9" transform="rotate(-24.576 524.586 -2336.087)scale(.996)"/></g><g clip-path="url(#am)"><use xlink:href="#k" width="8" height="6.9" transform="matrix(.8574 -.506 .506 .8574 1057.05 7.6)"/></g><g clip-path="url(#an)"><use xlink:href="#k" width="8" height="6.9" transform="matrix(.8117 -.576 .576 .8117 1094.85 8.55)"/></g><g clip-path="url(#ao)"><use xlink:href="#k" width="8" height="6.9" transform="matrix(.7692 -.6315 .6315 .7692 1132.6 9.2)"/></g><g clip-path="url(#ap)"><use xlink:href="#k" width="8" height="6.9" transform="rotate(-42.618 597.548 -1495.005)scale(.9951)"/></g><g clip-path="url(#aq)"><use xlink:href="#k" width="8" height="6.9" transform="rotate(-44.874 615.894 -1457.042)scale(.9951)"/></g><g clip-path="url(#ar)"><use xlink:href="#k" width="8" height="6.9" transform="rotate(-46.152 634.354 -1455.59)scale(.995)"/></g><g clip-path="url(#as)"><use xlink:href="#k" width="8" height="6.9" transform="matrix(.6838 -.725 .725 .6839 1281.85 10.35)"/></g><g clip-path="url(#at)"><use xlink:href="#k" width="8" height="6.9" transform="matrix(.6865 -.7202 .7201 .6866 1318.7 10.35)"/></g><g clip-path="url(#au)"><use xlink:href="#k" width="8" height="6.9" transform="matrix(.6959 -.711 .711 .6959 1355.6 10.35)"/></g><g clip-path="url(#av)"><use xlink:href="#k" width="8" height="6.9" transform="rotate(-44.381 709.096 -1701.607)scale(.9948)"/></g><g clip-path="url(#aw)"><use xlink:href="#k" width="8" height="6.9" transform="rotate(-42.857 728.32 -1815.466)scale(.9946)"/></g><g clip-path="url(#ax)"><use xlink:href="#k" width="8" height="6.9" transform="rotate(-40.853 747.467 -1962.498)scale(.9945)"/></g><g clip-path="url(#ay)"><use xlink:href="#k" width="8" height="6.9" transform="rotate(-38.372 767.103 -2153.398)scale(.9943)"/></g><g clip-path="url(#az)"><use xlink:href="#k" width="8" height="6.9" transform="matrix(.8082 -.5786 .5786 .8083 1539.1 11.2)"/></g><g clip-path="url(#aA)"><use xlink:href="#k" width="8" height="6.9" transform="rotate(-32.345 807.466 -2710.508)scale(.9938)"/></g><g clip-path="url(#aB)"><use xlink:href="#k" width="8" height="6.9" transform="matrix(.8719 -.4793 .4792 .8719 1611.9 11.7)"/></g><g clip-path="url(#aC)"><use xlink:href="#k" width="8" height="6.9" transform="rotate(-18.33 860.815 -5098.973)scale(.994)"/></g><g clip-path="url(#aD)"><use xlink:href="#k" width="8" height="6.9" transform="rotate(-9.292 915.848 -10347.581)scale(.9947)"/></g><g clip-path="url(#aE)"><use xlink:href="#k" width="8" height="6.9" transform="matrix(.9948 -.0262 .0261 .9948 1718.65 12.15)"/></g><g clip-path="url(#aF)"><use xlink:href="#k" width="8" height="6.9" transform="rotate(5.04 741.54 19940.371)scale(.995)"/></g><g clip-path="url(#aG)"><use xlink:href="#k" width="8" height="6.9" transform="rotate(10.53 832.235 9723.021)scale(.9949)"/></g><g clip-path="url(#aH)"><use xlink:href="#k" width="8" height="6.9" transform="rotate(14.784 869.956 7048.476)scale(.9946)"/></g><g clip-path="url(#aI)"><use xlink:href="#k" width="8" height="6.9" transform="rotate(17.8 896.077 5957.254)scale(.9945)"/></g><g clip-path="url(#aJ)"><use xlink:href="#k" width="8" height="6.9" transform="rotate(19.57 917.759 5516.31)scale(.9944)"/></g><g clip-path="url(#aK)"><use xlink:href="#k" width="8" height="6.9" transform="rotate(20.29 937.834 5420.008)scale(.9955)"/></g><g clip-path="url(#aL)"><use xlink:href="#k" width="8" height="6.9" transform="rotate(21.033 957.04 5325.039)scale(.9947)"/></g><g clip-path="url(#aM)"><use xlink:href="#k" width="8" height="6.9" transform="matrix(.9238 .3692 -.3693 .9238 2012.15 11.6)"/></g><g clip-path="url(#aN)"><use xlink:href="#k" width="8" height="6.9" transform="rotate(22.542 994.845 5147.614)scale(.9951)"/></g><g clip-path="url(#aO)"><use xlink:href="#k" width="8" height="6.9" transform="rotate(23.294 1013.681 5067.458)scale(.9953)"/></g><g clip-path="url(#aP)"><use xlink:href="#k" width="8" height="6.9" transform="matrix(.9092 .4056 -.4057 .9092 2123.8 12.45)"/></g><g clip-path="url(#aQ)"><use xlink:href="#k" width="8" height="6.9" transform="matrix(.904 .4176 -.4176 .904 2161.05 12.7)"/></g><g clip-path="url(#aR)"><use xlink:href="#k" width="8" height="6.9" transform="rotate(25.551 1070.519 4853.664)scale(.996)"/></g><g clip-path="url(#aS)"><use xlink:href="#k" width="8" height="6.9" transform="rotate(26.305 1089.348 4789.796)scale(.9963)"/></g><g clip-path="url(#aT)"><use xlink:href="#k" width="8" height="6.9" transform="rotate(27.054 1108.292 4730.182)scale(.9964)"/></g><g clip-path="url(#aU)"><use xlink:href="#k" width="8" height="6.9" transform="rotate(27.81 1127.154 4671.965)scale(.9967)"/></g><g clip-path="url(#aV)"><use xlink:href="#k" width="8" height="6.9" transform="rotate(28.557 1146.118 4618.126)scale(.997)"/></g><g clip-path="url(#aW)"><use xlink:href="#k" width="8" height="6.9" transform="rotate(29.32 1164.913 4564.29)scale(.9986)"/></g><g clip-path="url(#aX)"><use xlink:href="#k" width="8" height="6.9" transform="rotate(24.329 1175.647 5622.29)scale(.9972)"/></g><g clip-path="url(#aY)"><use xlink:href="#k" width="8" height="6.9" transform="rotate(19.54 1183.106 7142.642)scale(.9971)"/></g><g clip-path="url(#aZ)"><use xlink:href="#k" width="8" height="6.9" transform="rotate(14.562 1183.427 9766.769)scale(.9971)"/></g><g clip-path="url(#ba)"><use xlink:href="#k" width="8" height="6.9" transform="rotate(9.775 1166.524 14802.519)scale(.9972)"/></g><g clip-path="url(#bb)"><use xlink:href="#k" width="8" height="6.9" transform="rotate(4.803 1076.51 30609.323)scale(.9972)"/></g><g clip-path="url(#bc)"><use xlink:href="#k" width="8" height="6.9" transform="rotate(.017 -58083.733 8773282.8)scale(.9973)"/></g><g clip-path="url(#bd)"><use xlink:href="#k" width="8" height="6.9" transform="rotate(-4.765 1539.238 -31714.919)scale(.9967)"/></g><g clip-path="url(#be)"><use xlink:href="#k" width="8" height="6.9" transform="rotate(-9.55 1449.88 -16011.296)scale(.9963)"/></g><g clip-path="url(#bf)"><use xlink:href="#k" width="8" height="6.9" transform="matrix(.9646 -.2505 .2504 .9646 2713.2 19)"/></g></svg>