<svg xmlns="http://www.w3.org/2000/svg" xmlns:xlink="http://www.w3.org/1999/xlink" width="485" height="38" viewBox="0 0 485 38"><defs><use xlink:href="#a" id="b" width="22.9" height="21.6"/><use xlink:href="#b" id="A" width="22.9" height="21.6" transform="matrix(-1 0 0 1 29.95 4.5)"/><use xlink:href="#b" id="x" width="22.9" height="21.6" transform="matrix(-1.06 0 0 1.06 30.65 4)"/><use xlink:href="#b" id="v" width="22.9" height="21.6" transform="matrix(-1.13 0 0 1.13 31.35 3.55)"/><use xlink:href="#b" id="t" width="22.9" height="21.6" transform="matrix(-1.19 0 0 1.19 32.1 3)"/><use xlink:href="#b" id="r" width="22.9" height="21.6" transform="matrix(-1.26 0 0 1.26 32.8 2.5)"/><use xlink:href="#b" id="p" width="22.9" height="21.6" transform="matrix(-1.32 0 0 1.32 33.5 2)"/><use xlink:href="#b" id="n" width="22.9" height="21.6" transform="matrix(-1.39 0 0 1.39 34.2 1.55)"/><use xlink:href="#b" id="l" width="22.9" height="21.6" transform="matrix(-1.45 0 0 1.45 34.9 1)"/><use xlink:href="#b" id="j" width="22.9" height="21.6" transform="matrix(-1.52 0 0 1.52 35.65 .5)"/><use xlink:href="#b" id="h" width="22.9" height="21.6" transform="matrix(-1.58 0 0 1.58 36.35 0)"/><use xlink:href="#c" id="g" width="14.5" height="15.9"/><use xlink:href="#d" id="f" width="14.7" height="4.3"/><clipPath id="e"><path d="M1 1h43v36H1z"/></clipPath><clipPath id="i"><path d="M45 1h43v36H45z"/></clipPath><clipPath id="k"><path d="M89 1h43v36H89z"/></clipPath><clipPath id="m"><path d="M133 1h43v36h-43z"/></clipPath><clipPath id="o"><path d="M177 1h43v36h-43z"/></clipPath><clipPath id="q"><path d="M221 1h43v36h-43z"/></clipPath><clipPath id="s"><path d="M265 1h43v36h-43z"/></clipPath><clipPath id="u"><path d="M309 1h43v36h-43z"/></clipPath><clipPath id="w"><path d="M353 1h43v36h-43z"/></clipPath><clipPath id="y"><path d="M397 1h43v36h-43z"/></clipPath><clipPath id="z"><path d="M441 1h43v36h-43z"/></clipPath><g id="a"><path fill="#fff" d="M7.5 0q2 3.1 4 4.9 1.5 1.2 3.9.5Q17 5 20.7 3q-1.6 2.6-2 4.5-.3 1.2.6 2.3 1 1.3 3.6 1.7-1.2 0-2.4.8-1 .6-1.3 1.3-.5 1 .5 2.7.7 1.5 2.7 3.8-6.6-3.5-9.2-1.8-2.1 1.5-2.9 3.3 0-1.7-.3-2.4-.5-2.1-1.8-2.5-3-1-7.4.4.8-.5 2.3-2.6 1-1.2.6-3.1Q3.3 8.7 0 6.2l3.4.4 2.9-.4q1-.3 1.2-6.1z"/><path fill="#35479e" d="M12.2 13.7h-.7l-.6-.4-3.5-6.1q-.2-.3 0-.8l.7-.6L9.5 5l.9-.1q.4 0 .5.5-2.3.8-2.5 1.4 2.5 5.3 3.7 6.9m1.9 4h-.7q-.7-.1-.9-.6t0-1.2q.3-.5 1-.9.3-.2.7-.2-1.2.4-1 1.7 0 1.2 1 1.2z"/><path fill="#578afd" d="M12.2 13.7q-1.3-1.6-3.7-6.9.1-.6 2.4-1.5l2.4 6.6v.8l-.6.7-.3.2zm1.9 1 .5.1q.5.2.8.7.2.5 0 1.1l-.9 1-.4.1q-1 0-1-1.3-.2-1.2 1-1.6"/></g><g id="c"><path fill="#beb596" d="m7.2 3.6 5-1.5.1 2.5 1.3 2-1.4.2-1 2.7.8 1.1 2.1-.9.3 2.6-5.2 3.5L7 13l-.4-1.7 1.4-1 .6.1.7-3.3zM0 9.3q.4-.3.9-2.1l2 4.6z"/><path fill="#e0dacd" d="M12.3 2.1 7.2 3.6q-2.5-.4-2.7-1.3L2.3 1l5.5-1q1.4.3 4.5 2.1M6.9 13l2.3 2.8H9l-2.8.2z"/><path fill="#ae9f80" d="m7.2 3.6 2.1 3.5-.7 3.3H8l-1.3.8h-.1L7 13l-.7 3-5.7-3Q.1 11.8 0 9.3l3 2.4L.9 7.3.7 6l1.6-5 2.2 1.3q.2.9 2.7 1.3L7 8.7l-.4 2.6.4-2.6zM14 9.7l-2.1.9-.8-1.1 1.4-.8z"/><path fill="#ffda0b" d="m11.2 9.5 1-2.7 1.4-.2q-.2 1.3-1 2.1z"/><path fill="none" stroke="#3c231e" stroke-linecap="round" stroke-linejoin="round" stroke-width="__RESOLUTION__" d="m9.2 15.8 5.2-3.5-.3-2.6-1.5-1q.7-.7 1-2l-1.3-2.1V2Q9.1.3 7.6 0L2.3 1 .6 6l.2 1.2q-.5 1.9-.9 2Q.1 12 .6 13l5.7 3zm2-6.4 1-2.6" vector-effect="non-scaling-stroke"/><path fill="none" stroke="#8b785a" stroke-linecap="round" stroke-linejoin="round" stroke-width="__RESOLUTION__" d="m14.1 9.7-2.1.9m-4.8-7L7 8.7l-.4 2.6" vector-effect="non-scaling-stroke"/><path fill="#e0dacd" d="m11.9 4.4 1-.3 1.6 1.3-2 .1z"/><path fill="#ac9d7d" d="m11.9 4.4.6 1.1-.4 1.7z"/><path fill="#beb596" d="m12.6 5.6 1.9-.2-.6 1.6v.1H12z"/><path fill="none" stroke="#3c231e" stroke-linecap="round" stroke-linejoin="round" stroke-width="__RESOLUTION__" d="m14.5 5.4-1.6-1.2m-.8 3h1.8V7l.6-1.7" vector-effect="non-scaling-stroke"/></g><path id="d" fill="#382c16" d="M5.8-1.9Q7.9-1.4 8-.5 8 .3 5.9 1 3.8 1.8.7 2l-5.2-.4Q-6.7 1.2-6.7.3q-.1-.8 2-1.6 2.2-.8 5.2-.9z" transform="translate(6.75 2.25)"/></defs><g clip-path="url(#e)"><g transform="translate(34.9 34.4)"><use xlink:href="#f" width="14.7" height="4.3" transform="matrix(1.0566 .0332 0 1.0566 -7.2 -2.45)"/><use xlink:href="#g" width="14.5" height="15.9" transform="translate(-6.4 -13.55)"/><use xlink:href="#h" width="36.4" height="34.2" transform="matrix(-.7049 0 0 .7049 -8.25 -33.4)"/></g></g><g clip-path="url(#i)"><g transform="translate(78.9 34.4)"><use xlink:href="#f" width="14.7" height="4.3" transform="matrix(1.0566 .0332 0 1.0566 -7.2 -2.45)"/><use xlink:href="#g" width="14.5" height="15.9" transform="translate(-6.4 -13.55)"/><use xlink:href="#j" width="36.4" height="34.2" transform="matrix(-.7049 0 0 .7049 -8.25 -33.4)"/></g></g><g clip-path="url(#k)"><g transform="translate(122.9 34.4)"><use xlink:href="#f" width="14.7" height="4.3" transform="matrix(1.0566 .0332 0 1.0566 -7.2 -2.45)"/><use xlink:href="#g" width="14.5" height="15.9" transform="translate(-6.4 -13.55)"/><use xlink:href="#l" width="36.4" height="34.2" transform="matrix(-.7049 0 0 .7049 -8.25 -33.4)"/></g></g><g clip-path="url(#m)"><g transform="translate(166.9 34.4)"><use xlink:href="#f" width="14.7" height="4.3" transform="matrix(1.0566 .0332 0 1.0566 -7.2 -2.45)"/><use xlink:href="#g" width="14.5" height="15.9" transform="translate(-6.4 -13.55)"/><use xlink:href="#n" width="36.4" height="34.2" transform="matrix(-.7049 0 0 .7049 -8.25 -33.4)"/></g></g><g clip-path="url(#o)"><g transform="translate(210.9 34.4)"><use xlink:href="#f" width="14.7" height="4.3" transform="matrix(1.0566 .0332 0 1.0566 -7.2 -2.45)"/><use xlink:href="#g" width="14.5" height="15.9" transform="translate(-6.4 -13.55)"/><use xlink:href="#p" width="36.4" height="34.2" transform="matrix(-.7049 0 0 .7049 -8.25 -33.4)"/></g></g><g clip-path="url(#q)"><g transform="translate(254.9 34.4)"><use xlink:href="#f" width="14.7" height="4.3" transform="matrix(1.0566 .0332 0 1.0566 -7.2 -2.45)"/><use xlink:href="#g" width="14.5" height="15.9" transform="translate(-6.4 -13.55)"/><use xlink:href="#r" width="36.4" height="34.2" transform="matrix(-.7049 0 0 .7049 -8.25 -33.4)"/></g></g><g clip-path="url(#s)"><g transform="translate(298.9 34.4)"><use xlink:href="#f" width="14.7" height="4.3" transform="matrix(1.0566 .0332 0 1.0566 -7.2 -2.45)"/><use xlink:href="#g" width="14.5" height="15.9" transform="translate(-6.4 -13.55)"/><use xlink:href="#t" width="36.4" height="34.2" transform="matrix(-.7049 0 0 .7049 -8.25 -33.4)"/></g></g><g clip-path="url(#u)"><g transform="translate(342.9 34.4)"><use xlink:href="#f" width="14.7" height="4.3" transform="matrix(1.0566 .0332 0 1.0566 -7.2 -2.45)"/><use xlink:href="#g" width="14.5" height="15.9" transform="translate(-6.4 -13.55)"/><use xlink:href="#v" width="36.4" height="34.2" transform="matrix(-.7049 0 0 .7049 -8.25 -33.4)"/></g></g><g clip-path="url(#w)"><g transform="translate(386.9 34.4)"><use xlink:href="#f" width="14.7" height="4.3" transform="matrix(1.0566 .0332 0 1.0566 -7.2 -2.45)"/><use xlink:href="#g" width="14.5" height="15.9" transform="translate(-6.4 -13.55)"/><use xlink:href="#x" width="36.4" height="34.2" transform="matrix(-.7049 0 0 .7049 -8.25 -33.4)"/></g></g><g clip-path="url(#y)"><g transform="translate(430.9 34.4)"><use xlink:href="#f" width="14.7" height="4.3" transform="matrix(1.0566 .0332 0 1.0566 -7.2 -2.45)"/><use xlink:href="#g" width="14.5" height="15.9" transform="translate(-6.4 -13.55)"/></g></g><g clip-path="url(#z)"><g transform="translate(474.9 34.4)"><use xlink:href="#f" width="14.7" height="4.3" transform="matrix(1.0566 .0332 0 1.0566 -7.2 -2.45)"/><use xlink:href="#g" width="14.5" height="15.9" transform="translate(-6.4 -13.55)"/><use xlink:href="#A" width="36.4" height="34.2" transform="matrix(-.7049 0 0 .7049 -8.25 -33.4)"/></g></g></svg>