<svg xmlns="http://www.w3.org/2000/svg" xmlns:xlink="http://www.w3.org/1999/xlink" width="815" height="54" viewBox="0 0 815 54"><defs><g id="X"><path fill="#2d212e" d="m0 3.4.1-.2q2.5-4 5-3 1 .8.4 2.9l.2.4v.9q-.3 1.2-.1 1.5.4.7-.4 1.5L2.1 7l-.5-1.4q-.3-.9-.1-1.5l-.3-.3Q.5 3.3 0 3.4"/><path fill="#fbf4ce" d="M.1 3.4H0z"/></g><g id="c"><path fill="#f4dfb5" d="m5.3 6.9.3 1.7q-1.1.3-1.9-1-.3-1.2.3-1.8.7 0 1.2 1"/><path fill="none" stroke="#1f1f1f" stroke-linecap="round" stroke-linejoin="round" stroke-opacity=".3" stroke-width="__RESOLUTION__" d="M5.6 8.7q-1.1.2-1.9-1-.3-1.3.3-2 .7 0 1.2 1.2" vector-effect="non-scaling-stroke"/><path fill="none" stroke="#1c1c1c" stroke-linecap="round" stroke-linejoin="round" stroke-opacity=".5" stroke-width="__RESOLUTION__" d="M9.3 4.9 10.6 3 9.4 1v0L4.3 0l-.7.6 4.5.9 1.1 2.2L6 6.4l-.6 5.4-1.5-2.7L.8 7.8 0 3.4l2.7-3 .9.2" vector-effect="non-scaling-stroke"/><path fill="#ffd3ab" fill-opacity=".3" d="m9.4 1-.8 1.6-.5-1.1L3.7.6l.6-.6z"/><path fill="#481e00" fill-opacity=".3" d="m2.8 5.1 1 4-3-1.3L0 3.4z"/></g><g id="a"><path fill="#f4dfb5" d="M4.9 0 5 1l-.2 1.7.3 1.1-.2 1.9q-.2 1.1-.6 1.5L2 7Q1 7 .3 6l-.1-.2L1.7 0z"/><path fill="none" stroke="#1f1f1f" stroke-linecap="round" stroke-linejoin="round" stroke-opacity=".3" stroke-width="__RESOLUTION__" d="M.3 6Q1 7 1.9 7l2.5.2q.3-.4.4-1.5l.3-1.9-.2-1.1L5 .9 4.8 0M.3 5.8l-.2.5" vector-effect="non-scaling-stroke"/><path fill="#fff" d="M4.4 3v1q-.8-.1-1.2-.7v-.8q.6-.1 1.1.5"/><path fill="none" stroke="#1f1f1f" stroke-linecap="round" stroke-linejoin="round" stroke-opacity=".5" stroke-width="__RESOLUTION__" d="M4.4 3q-.6-.6-1.2-.5" vector-effect="non-scaling-stroke"/></g><g id="Z"><path fill="#dbbb85" d="m3.1 0 .3 1.9V3q0 .9-.4 1.8l-.1 1.9q-.7.2-1-.2V4.8L1.7 6l-.9-.2-.1-1v-.7Q.1 4 0 3.1v-.2l.3-.7.6-2z"/><path fill="#755725" d="M0 2.9v.3V3z"/><path fill="#b89d70" d="M0 3.2q.2.8.9 1l-.1.7-.8-.4V3zm3 3.5.1-2q.4-.8.4-1.7V1.9q0 .4.3 1T4 4.6l-.7.7z"/><path fill="none" stroke="#1c1c1c" stroke-linecap="round" stroke-linejoin="round" stroke-opacity=".5" stroke-width="__RESOLUTION__" d="M3.4 1.9 3 0M.9 0 .3 2.2l-.3.7v1.7l.8.3.1 1 .9.2m0-1.2L2 6.5q.3.4 1 .2l.5-1.4.8-.7Q4 3.4 3.7 2.9t-.3-1" vector-effect="non-scaling-stroke"/></g><g id="aa"><path fill="#52514b" d="M5.2 1.3q.9 3.1-.9 6.4l-1 2.3q-1.6.8-3-.4v-.3L0 6.6Q-.2 4.9 1.2.2q2.2-.6 4 1.1"/><path fill="#4e4b5f" d="M.2 9.2v.2z"/><path fill="none" stroke="#1c1c1c" stroke-linecap="round" stroke-linejoin="round" stroke-opacity=".5" stroke-width="__RESOLUTION__" d="m3.3 10 1-2.3q1.8-3.3.9-6.4M1.2.1Q0 4.9.1 6.7l.2 2.7v.3m-.1-.3v-.2" vector-effect="non-scaling-stroke"/></g><g id="ab"><path fill="#8d1f03" d="M4.3 2.6 4 3l-.4 1.7L3 8.2l-1 .3h-.5Q1 6.3 2 4.4l-.1-1 .6-1L3.3 1q.8.7 1 1.6"/><path fill="#751802" d="M1.6 8.5.5 8.3V8Q0 5 1.1 2.2L3.2 1l-.7 1.5-.7.9.1 1q-.9 1.9-.3 4"/><path fill="#661502" d="m.5 8.3-.3-.4q-.5-4 .4-6l2-1.4q.8-1 1.3 0l.6 1q.2 1-.2 1.1Q4 1.6 3.2 1L1.1 2.3Q0 5.1.5 8.2z"/><path fill="none" stroke="#4f0e01" stroke-linecap="round" stroke-linejoin="round" stroke-width="__RESOLUTION__" d="m.5 8.3-.3-.4q-.5-4 .4-6l2-1.4q.8-1 1.3 0l.6 1" vector-effect="non-scaling-stroke"/></g><g id="ac"><path fill="#dbbb85" d="M3.9 1.2q1.1 1 .8 1.6l-.6.5-.3.2.3.3v.1q-.1 1-.8 1.8-1.3-.2-1-.8l.2-.6.2-.6q-.5-.4-.4-.8.7-1.1 1.6-1.6m-1.5 3-.4.6-.8-.5-.2-.6-.9-.4q-.2-.5.1-1h.1q.6 0 1 .6.6 0 1.2.5zM1.3 3.1l-.3.6z"/><path fill="#b89d70" d="M3.9 1.2q-1 .5-1.6 1.6-.1.4.4.8l-.3.6v-.5Q2 3.2 1.3 3v-.2q-.5-.6-1-.6l.1-.8Q.4.7.9.3 2.8-.5 4 1z"/><path fill="none" stroke="#1c1c1c" stroke-linecap="round" stroke-linejoin="round" stroke-opacity=".5" stroke-width="__RESOLUTION__" d="m2.5 4.2-.2.6q-.3.6 1 .8.7-.8.8-1.8v-.1l-.3-.3.3-.2.6-.5q.3-.6-.8-1.6v0q-1 .6-1.6 1.7m.1 1.4-.4.6-.8-.5-.2-.6-.9-.4q-.2-.5.1-1h.1l.1-.8Q.4.7.9.3M1 3.7l.3-.6" vector-effect="non-scaling-stroke"/></g><g id="e"><path fill="#7d1702" d="m4.1 1.4-.5.9V3L3 2Q3.4.6 3.9.3h.6q-.3.6.2 1zm.4 6.7q.2.4 1.1.5l.5-.1v.8h-.6q-1 0-1.3-.7-.1-.2.3-.5"/><path fill="#661502" d="m3.6 2.3.5-.9h.7l1.7.5q1.3 3.2.5 6l-1 .6h-.4q-.9 0-1.1-.4-1-2.9-1-5.8"/><path fill="#bd2703" d="M4.8 1.4q-.6-.3-.2-1 1.4 0 2.8 1 1.2 3.2.3 7.3l-1.5.6-.1-.8.9-.6q.8-2.9-.5-6z"/><path fill="none" stroke="#c27517" stroke-linecap="round" stroke-linejoin="round" stroke-width="__RESOLUTION__" d="M4.1 1.4" vector-effect="non-scaling-stroke"/><path fill="none" stroke="#45303b" stroke-linecap="round" stroke-linejoin="round" stroke-width="__RESOLUTION__" d="M4.6.5h-.7Q3.5.8 3.1 2l.4 1v-.8m1 5.8q-.4.3-.3.5.4.7 1.3.8l.7-.1 1.5-.6q.9-4.1-.3-7.3Q6 .4 4.5.4" vector-effect="non-scaling-stroke"/><path fill="none" stroke="#734e19" stroke-linecap="round" stroke-linejoin="round" stroke-width="__RESOLUTION__" d="M3.6 2.3q0 2.9.9 5.8" vector-effect="non-scaling-stroke"/><path fill="#d12b04" d="m1.8.9-.1 2.4-.8-.7V0z"/><path fill="#8d1f03" d="M1.7 3.3 1.8.9l2.7 1q.5 1 .3 1.8z"/><path fill="#661502" d="M1.8.9.8 0l3.4 1.4.2.6z"/><path fill="none" stroke="#5c1301" stroke-linecap="round" stroke-linejoin="round" stroke-width="__RESOLUTION__" d="M1.8.9.8 0 1 2.6l.8.7 3.1.4q.2-.8-.3-1.8m-.3-.5L.9 0" vector-effect="non-scaling-stroke"/><path fill="#8d1f03" d="M4.7 6.8q.7.6.9 1.4L3.7 10l-.9-2.5z"/><path fill="#d12b04" d="M3.7 10 3 9.8 1.9 7.3l.9.2z"/><path fill="#661502" d="m1.9 7.3 2.4-.9.4.3-1.9.7z"/><path fill="none" stroke="#5c1301" stroke-linecap="round" stroke-linejoin="round" stroke-width="__RESOLUTION__" d="M4.7 6.8q.7.6.9 1.4L3.7 10 3 9.8 1.9 7.3l2.4-.9m-1.5 1-.9-.1" vector-effect="non-scaling-stroke"/><path fill="#8d1f03" d="M4.5 4.3q.8.7.7 1.5l-3.6 1-.4-2.5z"/><path fill="#d12b04" d="m1.6 6.8-1-.4L0 3.7l1.2.5z"/><path fill="#661502" d="m0 3.9 4-.1.5.5H1.2z"/><path fill="none" stroke="#5c1301" stroke-linecap="round" stroke-linejoin="round" stroke-width="__RESOLUTION__" d="M4.5 4.3q.8.7.7 1.5l-3.6 1-1-.4L0 3.7h4m-2.8.5L0 3.9" vector-effect="non-scaling-stroke"/></g><g id="g"><path fill="none" stroke="#1f1f1f" stroke-linecap="round" stroke-linejoin="round" stroke-opacity=".3" stroke-width="__RESOLUTION__" d="M5.7 10.7q-.1-.1.7-1.5l.5-1.6 1-1.1M3 5.1q-.6.5-.6 1.5l-.1 1.8q-.6.6 0 1.7" vector-effect="non-scaling-stroke"/><path fill="#332207" fill-opacity=".3" d="m6.8 7.6-.4 1.6q-.9 1.4-.8 1.5l-1.3-.1 1-3.3L3 6v-.8l-.1-.4L4.1 6q2.3.2 3.7-.7v1.2z"/><path fill="#bd2703" d="m7 1.2-1 .1q-1.4 1.6-3.4.5l-.9-.5q1.9.1 3.7-1 .8-.1 1.5.8z"/><path fill="#8d1f03" d="M2.6 1.8q2 1 3.4-.5l1-.1 1.5 1.4-.4 2-.1.1q-2.2 1-3.9.4L2.9 2.5z"/><path fill="#a17638" d="M7 1.2V1z"/><path fill="#7d1702" d="M7 1.1Q6.2.2 5.3.3h2.4zm-5.3.2.9.5.3.7-1.2-.3-1-.7z"/><path fill="#661502" d="M2.9 2.5 4.1 5q1.7.7 3.9-.4h.1l.4-2.2L7 1.2V1l.7-.9 1.5 2q.7 1.7-.7 3.1-2.5 1.4-5.2.4l-.4-1.3v-.1l-1.2-2z"/><path fill="#ffcd2b" d="M8 4.7"/><path fill="#ffeeb5" d="M7 1.1"/><path fill="#5e3e14" d="m1.7 2.2 1.2 2v.2-.2.2L0 4.6l.7-3.1z"/><path fill="none" stroke="#4a0d01" stroke-linecap="round" stroke-linejoin="round" stroke-width="__RESOLUTION__" d="M5.4.4q-1.9 1-3.7.9l-1 .2 1 .7 1.2 2v.2l.4 1.3q2.7 1 5.2-.4 1.4-1.4.7-3.1L7.7.1zM4 5q1.7.7 3.9-.4H8l.4-2.2M8 4.6zm-5.1-.3L0 4.6l.7-3.1" vector-effect="non-scaling-stroke"/></g><g id="i"><path fill="#fce69a" fill-opacity=".5" d="m5.2 0 3.9 4.8.8 2.4q.5 1.4-.2 2.3h-.8L8 6z"/><path fill="#411c01" fill-opacity=".3" d="m3.4 1.7.7-.6-.4 3.8L2.3 8l.6 4.2h-.1q-.3 1 .8 4.4-.8-1.5-1.5-2l-.7-.7Q.1 11.9 0 9.6l.2-4.5q.9-2.2 1.6-3 0 1.6.4 1.7.2-1.2 1.2-2.1"/><path fill="none" stroke="#1f1f1f" stroke-linecap="round" stroke-linejoin="round" stroke-opacity=".6" stroke-width="__RESOLUTION__" d="M9.3 10.7q1.6-.8 3.3-.5l-1.6-1m-4.3 6.3.6-.9v-2.5M10 9.4q.4-1.1 0-2.3L9 4.8 5.2 0 4 1l-.7.7q-1.1.8-1.2 2.1m-.4-1.7Q1 2.8.3 5L0 9.6q0 2.3 1.4 4.3l.7.6q.7.5 1.5 2" vector-effect="non-scaling-stroke"/><path fill="#f4dfb5" d="m6 13.1.3 1.8q-1.1.2-1.9-1-.2-1.2.3-1.9.7 0 1.3 1.1"/><path fill="none" stroke="#1f1f1f" stroke-linecap="round" stroke-linejoin="round" stroke-opacity=".3" stroke-width="__RESOLUTION__" d="M6.3 14.9q-1.1.2-1.9-1-.2-1.2.3-1.9.7 0 1.3 1.1" vector-effect="non-scaling-stroke"/></g><g id="p"><path fill="#f4dfb5" d="M5.4 1q0 2.4 1.7 3.2l-2.3.1-3.3-1L2 1.9Q2.5.7 2.5 0z"/><path fill="#52514b" d="m2.5 14.9-.3-1.2q4 2 6.7-.2l.2 1.2q-2.7 2.3-6.6.2"/><path fill="#ff3" d="M9.3 12.9V15q-1.6 1-2.2 1.1v-2.3q1-.9 1.9-1zm-.5.6-1 .7-.1 1.3 1-.6z"/><path fill="none" stroke="#1c1c1c" stroke-linecap="round" stroke-linejoin="round" stroke-opacity=".5" stroke-width="__RESOLUTION__" d="M6.8 3.2q1.6.9 2.2 2.9.7 2.5 0 4-.5 1.1-.3 2.8m-6 1.2-.5-2Q1.6 10 .6 8.9q-1.2-1.1.2-6l.7-.5" vector-effect="non-scaling-stroke"/><path fill="#7e5512" fill-opacity=".3" d="M8.7 10.7q-1.1 1.7-1.6 3.9l.4-4-2.2-.2-.1-1.1 4-1.8q.3 1.6-.5 3.2"/></g><g id="I"><path fill="none" stroke="#1c1c1c" stroke-linecap="round" stroke-linejoin="round" stroke-opacity=".5" stroke-width="__RESOLUTION__" d="M.4 0 0 2.7q0 1.1.6 1.2l4.4.7q1 0 1.6-.6l-.3-1q-.3-.8-2-1.1Q2.9 1.7 3.1.3" vector-effect="non-scaling-stroke"/><path fill="#7e5512" fill-opacity=".3" d="m.4 0 1.4.1.8 2.6 2.1 1 .3.9-4.4-.7Q0 3.9 0 2.7z"/></g><g id="K"><path fill="none" stroke="#1f1f1f" stroke-linecap="round" stroke-linejoin="round" stroke-opacity=".3" stroke-width="__RESOLUTION__" d="M5.2 9.6q.8-.9.5-1.6-.2-.3 0-1.5.2-.9-.2-1.4M2 9.4l-.4-1.5-.1-1.5L1 6q-.7-.5-1-.4" vector-effect="non-scaling-stroke"/><path fill="#661502" d="M3.9 5q.6.4 3.6-1l-1-2.8h.1Q6 .2 5.2.3L6.7.2Q8.3 4.4 8 4.5q-3.6 1.8-5 1l-.2-1.3V4L2 1.9l1 .4z"/><path fill="#8d1f03" d="m6.6 1.2.9 2.9q-3 1.3-3.6.9L3 2.3l-.3-.8q1.7 1.2 2.9-.2z"/><path fill="#7d1702" d="m3 2.3-1-.4-.8-.8.9-.1.7.5z"/><path fill="#5e3e14" d="M2.9 4v.2z"/><path fill="#bd2703" d="M5.2.3q.8-.1 1.4.9l-1 .1q-1.1 1.4-2.8.2L2.1 1Q3.7 1 5.2.3"/><path fill="#ffeeb5" d="M6.6 1.2"/><path fill="none" stroke="#4a0d01" stroke-linecap="round" stroke-linejoin="round" stroke-width="__RESOLUTION__" d="m6.6 1.2.9 2.9q-3 1.3-3.6.9M2 1.9 2.8 4v.2h0m0 0L3 5.5q1.4.8 5-1 .2-.1-1.4-4.3L5.2.3q-1.5.9-3.1.7l-.9.1.9.7" vector-effect="non-scaling-stroke"/></g><g id="L"><path fill="#661502" d="m6.2 7.4-2.6.5-.6-.6 2.5-.5z"/><path fill="#8d1f03" d="m3.6 7.9 2.6-.5L6 9.6l-2.4-.2z"/><path fill="none" stroke="#5c1301" stroke-linecap="round" stroke-linejoin="round" stroke-width="__RESOLUTION__" d="m6.2 7.4-.7-.6-2.5.5m.6 2.1 2.4.3.2-2.3" vector-effect="non-scaling-stroke"/><path fill="#661502" d="m2.3 5.3 3-1.7.9.2-3 1.7z"/><path fill="#8d1f03" d="M6.2 3.9 6.4 6l-3 .9-.2-1.4z"/><path fill="none" stroke="#5c1301" stroke-linecap="round" stroke-linejoin="round" stroke-width="__RESOLUTION__" d="m2.3 5.3 3-1.7.9.2.2 2.3-3 .9" vector-effect="non-scaling-stroke"/><path fill="#661502" d="M1 3.4 2.6 0 4 .2 1.9 3.7z"/><path fill="#8d1f03" d="m4 .2 1 2-2.5 2.6-.6-1.1z"/><path fill="none" stroke="#5c1301" stroke-linecap="round" stroke-linejoin="round" stroke-width="__RESOLUTION__" d="M1 3.4 2.6 0 4 .2l1 2-2.5 2.6" vector-effect="non-scaling-stroke"/><path fill="#bd2703" d="m1 7.9.3.6.5.7H2l.4-.1q.6-.2 1.1-.6 0-3-1.3-5.3l-.8-.4H.9l-.5.6L0 3q.1-.6.7-.8l.5-.1 1.2.3q1.8 3.4 1.8 6.4-.7 1-1.7 1.2H2L1 8.8z"/><path fill="#661502" d="m.4 3.4.6-.5h.3l.8.3q1.4 2.3 1.3 5.3-.5.5-1.1.6h-.4v.1l-.6-.6-.2-.7Q.4 5.7.4 3.4"/></g><g id="au" transform="translate(4.75 15.65)"><use xlink:href="#a" width="5.1" height="7.4" transform="translate(.4 -5.7)"/><use xlink:href="#b" width="9.7" height="11.8" transform="matrix(1.1 0 0 1 -4.05 -9.35)"/><use xlink:href="#c" width="10.7" height="11.8" transform="translate(-4.05 -9.35)"/></g><g id="ar" transform="translate(5.7 3.55)"><use xlink:href="#d" width="4.6" height="7.9" transform="translate(-1.65 -2.4)"/><use xlink:href="#e" width="8.1" height="10" transform="translate(-5.7 -3.55)"/></g><g id="ap" transform="translate(5.7 3.45)"><use xlink:href="#f" width="5.9" height="8.8" transform="translate(-3.7 -1.5)"/><use xlink:href="#g" width="9.4" height="10.7" transform="translate(-5.7 -3.45)"/></g><g id="ao" transform="translate(4.75 15.65)"><use xlink:href="#a" width="5.1" height="7.4" transform="translate(.4 -5.7)"/><use xlink:href="#h" width="12.5" height="16.6" transform="translate(-4.75 -15.65)"/><use xlink:href="#i" width="12.6" height="16.6" transform="translate(-4.75 -15.6)"/></g><g id="an" transform="translate(5.05 14.4)"><use xlink:href="#j" width="9.3" height="13.5" transform="translate(-5.05 -12.45)"/><use xlink:href="#k" width="5.7" height="13.5" transform="translate(-5.05 -12.45)"/><use xlink:href="#o" width="4.2" height="9.6" transform="translate(.05 -9.3)"/><use xlink:href="#p" width="9.3" height="16.2" transform="translate(-5.05 -14.4)"/></g><g id="am" transform="translate(5.85 .8)"><use xlink:href="#q" width="10.1" height="9.3" transform="translate(-5.85 -.8)"/><use xlink:href="#r" width="10.1" height="9.3" transform="translate(-5.85 -.8)"/><use xlink:href="#s" width="1.9" height="6.6" transform="translate(2.2 -.65)"/><use xlink:href="#G" width="6.8" height="8.8" transform="translate(-5.85 -.35)"/></g><g id="aj"><use xlink:href="#H" width="6.5" height="4.6"/><use xlink:href="#I" width="6.5" height="4.6"/></g><g id="ah" transform="translate(3.8 4.1)"><use xlink:href="#J" width="5.8" height="7.3" transform="translate(-3.75 -1.9)"/><use xlink:href="#K" width="8.1" height="9.6" transform="translate(-3.8 -4.1)"/></g><g id="ag" transform="translate(2.7 4.15)"><use xlink:href="#L" width="6.3" height="10" transform="translate(-1.35 -4.15)"/><use xlink:href="#M" width="4.5" height="7.2" transform="translate(-2.7 -1.85)"/><use xlink:href="#N" width="1.8" height="4.6" transform="translate(-2.7 .75)"/></g><clipPath id="ae"><path d="M1 1h36v52H1z"/></clipPath><clipPath id="as"><path d="M38 1h36v52H38z"/></clipPath><clipPath id="at"><path d="M75 1h36v52H75z"/></clipPath><clipPath id="av"><path d="M112 1h36v52h-36z"/></clipPath><clipPath id="aw"><path d="M149 1h36v52h-36z"/></clipPath><clipPath id="ax"><path d="M186 1h36v52h-36z"/></clipPath><clipPath id="ay"><path d="M223 1h36v52h-36z"/></clipPath><clipPath id="az"><path d="M260 1h36v52h-36z"/></clipPath><clipPath id="aA"><path d="M297 1h36v52h-36z"/></clipPath><clipPath id="aB"><path d="M334 1h36v52h-36z"/></clipPath><clipPath id="aC"><path d="M371 1h36v52h-36z"/></clipPath><clipPath id="aD"><path d="M408 1h36v52h-36z"/></clipPath><clipPath id="aE"><path d="M445 1h36v52h-36z"/></clipPath><clipPath id="aF"><path d="M482 1h36v52h-36z"/></clipPath><clipPath id="aG"><path d="M519 1h36v52h-36z"/></clipPath><clipPath id="aH"><path d="M556 1h36v52h-36z"/></clipPath><clipPath id="aI"><path d="M593 1h36v52h-36z"/></clipPath><clipPath id="aJ"><path d="M630 1h36v52h-36z"/></clipPath><clipPath id="aK"><path d="M667 1h36v52h-36z"/></clipPath><clipPath id="aL"><path d="M704 1h36v52h-36z"/></clipPath><clipPath id="aM"><path d="M741 1h36v52h-36z"/></clipPath><clipPath id="aN"><path d="M778 1h36v52h-36z"/></clipPath><use xlink:href="#O" id="b" width="9.7" height="11.8"/><use xlink:href="#P" id="d" width="4.6" height="7.9"/><use xlink:href="#Q" id="f" width="5.9" height="8.8"/><use xlink:href="#R" id="h" width="12.5" height="16.6"/><use xlink:href="#S" id="o" width="4.2" height="9.6"/><use xlink:href="#T" id="j" width="9.3" height="13.5"/><use xlink:href="#U" id="s" width="1.9" height="6.6"/><use xlink:href="#V" id="q" width="10.1" height="9.3"/><use xlink:href="#W" id="H" width="6.5" height="4.6"/><use xlink:href="#X" id="J" width="5.8" height="7.3"/><use xlink:href="#Y" id="M" width="4.5" height="7.2"/><use xlink:href="#Z" id="aq" width="4.2" height="6.7"/><use xlink:href="#aa" id="al" width="5.5" height="10.3"/><use xlink:href="#ab" id="ak" width="4.5" height="8.4"/><use xlink:href="#ac" id="ai" width="4.8" height="5.5"/><use xlink:href="#ad" id="af" width="14.7" height="4.3"/><path id="O" fill="#fe7e00" d="m4-2.2 1.2 2-1.3 1.7L3.8.4.9 3 .4 8.5-1 5.8l-2.8-1.3-.7-4.4 2.4-3 .9.2.5-.6z" transform="translate(4.55 3.3)"/><path id="P" fill="#2d212e" d="m2.3-.9-.7 4.3-.6.2-1.5.4q-1-1.1-1.2-3.2l-.5-3.1q-.2-.7.3-1.6h4z" transform="translate(2.3 3.95)"/><path id="Q" fill="#2d212e" d="M-2-1.1q-.2-2.4 1.1-3.2 1.5-.2 2.8 1Q3-2 2.8.2l-1 1.1-.4 1.6Q.6 4.3.8 4.4L-2.6 4q-.6-1.2-.1-1.8.2-.3.2-1.8-.1-1 .5-1.5" transform="translate(2.95 4.35)"/><path id="R" fill="#fe7e00" d="M2.8-3.6q.2 1 .9 2.4Q4-.1 3.6 1L4.8.8l1.5 1Q3.6 1.4 1 3.7v2.6l-1.5 2h-2.1q-.8-1.6-1.5-2.1l-.6-.6q-1.5-2.1-1.5-4.3l.2-4.5q.9-2.3 1.5-3.1 0 1.7.5 1.8 0-1.3 1-2.1l.8-.7 1-1z" transform="translate(6.25 8.35)"/><path id="S" fill="#fa6230" d="M2-2.2Q2.3-.6 1.5.9q-.3 2 .1 3.2l-1.7.7.4-4-2.2-.2-.2-2.2 2.4-.7-.4-2 1.3-.5q1 1.6.9 2.6" transform="translate(2.1 4.8)"/><path id="T" fill="#fbf4ce" d="M1.4-5.8q2.1.7 2.9 3.2t0 4 0 4Q3.3 6.6 1 6.8H.9Q0 6.8-1.8 6l-.7-2.6Q-3 1.3-4.2.1t.2-6q1.2-.8 1.9-1h.2q.7 0 3.2 1" transform="translate(4.7 6.75)"/><path id="U" fill="#fa6230" d="M-.6-2.7 1-3.3v5.8l-1.9.8z" transform="translate(.9 3.3)"/><path id="V" fill="#fbf4ce" d="M4.9-4.6 5 3 3.1 4.1l-2.6.6-2.8-.5Q-3.6 3.8-5.1 3q1-1.4 1.5-4 .3-2.3 1.4-3.2l4 .6q1.9-.1 3.1-1" transform="translate(5.05 4.65)"/><path id="W" fill="#f40b0b" d="m-2.8-2.3 2.7.3Q-.3-.6 1-.4q1.7.4 2 1l.3 1.1q-.6.6-1.5.6l-4.5-.7q-.6 0-.6-1.2z" transform="translate(3.25 2.3)"/><path id="Y" fill="#2d212e" d="M1.4-2.7 2 0q.5 1.7.1 3.2L.5 3l-1 .6q-.1-1.2-.9-2.2L-2.2-1 .6-3.6q.6.3.7.9" transform="translate(2.25 3.6)"/><path id="ad" fill="#382c16" d="M5.8-1.9Q7.9-1.4 8-.5 8 .3 5.9 1 3.8 1.8.7 2l-5.2-.4Q-6.7 1.2-6.7.3q-.1-.8 2-1.6 2.2-.8 5.2-.9z" transform="translate(6.75 2.25)"/><path id="k" fill="#7e5512" fill-opacity=".3" d="M.3-5v.3l-.1.2Q-.2-1.5.6 1H.5Q-.2 1-2.1.1l-.7-2.6q-.6-2-1.7-3.1t.2-6q1.1-.8 1.9-1Q.8-9 .5-5.2z" transform="translate(5.05 12.45)"/><path id="G" fill="#7e5512" fill-opacity=".3" d="M-5.8 6.9q1-1.4 1.4-4.1Q-4 .6-2.9-.3L1 .3Q-.6 4.4-.3 8.5l-2.8-.4Q-4.4 7.7-6 6.9" transform="translate(5.85 .35)"/><path id="r" fill="none" stroke="#1c1c1c" stroke-linecap="round" stroke-linejoin="round" stroke-opacity=".5" stroke-width="__RESOLUTION__" d="m4.1-.8.1 7.7-1.9 1-2.6.6-2.9-.4q-1.2-.4-2.7-1.2 1-1.4 1.5-4.1Q-4.1.6-3-.3" transform="translate(5.85 .8)" vector-effect="non-scaling-stroke"/><path id="N" fill="none" stroke="#1c1c1c" stroke-linecap="round" stroke-linejoin="round" stroke-opacity=".5" stroke-width="__RESOLUTION__" d="m-2.7.8.9 2.3q.8 1 .9 2.3" transform="translate(2.7 -.75)" vector-effect="non-scaling-stroke"/></defs><g clip-path="url(#ae)"><g transform="translate(19.4 50.9)"><use xlink:href="#af" width="14.7" height="4.3" transform="matrix(.8 0 0 .8 -5.4 -1.8)"/><use xlink:href="#ag" width="7.7" height="10" transform="matrix(.4968 -.8641 .7896 .6089 2.2 -23.05)"/><use xlink:href="#ah" width="8.1" height="9.6" transform="matrix(.8295 -.5513 .58 .8097 -1.7 -28.15)"/><use xlink:href="#ai" width="4.8" height="5.5" transform="rotate(-69.468 -8.87 -14.853)scale(.9965)"/><use xlink:href="#aj" width="6.5" height="4.6" transform="matrix(.9113 .0879 -.4331 .9625 -7.8 -6.3)"/><use xlink:href="#ak" width="4.5" height="8.4" transform="matrix(.8638 .5006 -.4818 .8313 -4.3 -12.3)"/><use xlink:href="#al" width="5.5" height="10.3" transform="matrix(.9774 .2716 -.3182 .9043 -1.4 -18.75)"/><use xlink:href="#aj" width="6.5" height="4.6" transform="matrix(.6868 -.7136 .6369 .7892 8.2 -1.65)"/><use xlink:href="#ak" width="4.5" height="8.4" transform="matrix(1.0262 -.849 .6795 .8133 3.05 -7.3)"/><use xlink:href="#al" width="5.5" height="10.3" transform="matrix(.785 -.7936 .8578 .8372 -3 -14.85)"/><use xlink:href="#am" width="10.1" height="9.3" transform="matrix(1.0734 -.3423 .2498 .9931 -5.5 -16.45)"/><use xlink:href="#an" width="9.3" height="16.2" transform="matrix(1.07 -.2247 -.0164 1.0746 -3.7 -32.35)"/><use xlink:href="#ao" width="12.6" height="18.1" transform="translate(-1.45 -47.55)"/><use xlink:href="#ap" width="9.4" height="10.7" transform="matrix(.7445 .6506 -.6613 .7592 -3.2 -35.35)"/><use xlink:href="#aq" width="4.2" height="6.7" transform="matrix(.8912 .4885 -.5252 .8286 -10.15 -22.9)"/><use xlink:href="#ar" width="8.7" height="10" transform="matrix(.9614 .331 -.4409 .7935 -12.1 -28.4)"/></g></g><g clip-path="url(#as)"><g transform="translate(56.4 50.9)"><use xlink:href="#af" width="14.7" height="4.3" transform="matrix(.8 0 0 .8 -5.4 -1.8)"/><use xlink:href="#ag" width="7.7" height="10" transform="matrix(.6162 -.8219 .6844 .6816 1.7 -23.55)"/><use xlink:href="#ah" width="8.1" height="9.6" transform="matrix(.888 -.5036 .4754 .8454 -1.45 -28.75)"/><use xlink:href="#ai" width="4.8" height="5.5" transform="rotate(-77.988 -7.081 -13.605)scale(.995)"/><use xlink:href="#aj" width="6.5" height="4.6" transform="matrix(.8054 .4431 -.6985 .7663 -6.25 -7.6)"/><use xlink:href="#ak" width="4.5" height="8.4" transform="matrix(.8468 .5413 -.5127 .7878 -3.05 -12.75)"/><use xlink:href="#al" width="5.5" height="10.3" transform="matrix(1.0272 .0952 -.1499 .9446 -1.75 -18.55)"/><use xlink:href="#aj" width="6.5" height="4.6" transform="matrix(.9067 -.41 .3069 .9564 6.15 -2.45)"/><use xlink:href="#ak" width="4.5" height="8.4" transform="matrix(1.1025 -.5701 .4959 .9113 2.15 -8.3)"/><use xlink:href="#al" width="5.5" height="10.3" transform="matrix(.8866 -.7597 .7758 .859 -3.2 -15.35)"/><use xlink:href="#am" width="10.1" height="9.3" transform="matrix(1.0691 -.2779 .2078 .998 -5.4 -17.2)"/><use xlink:href="#an" width="9.3" height="16.2" transform="matrix(1.0595 -.1973 -.0104 1.0621 -3.7 -32.65)"/><use xlink:href="#ao" width="12.6" height="18.1" transform="translate(-1.9 -47.95)"/><use xlink:href="#ap" width="9.4" height="10.7" transform="matrix(.8266 .5813 -.5204 .8377 -4.3 -35.25)"/><use xlink:href="#aq" width="4.2" height="6.7" transform="matrix(.8449 .5826 -.5127 .8011 -9.1 -22.7)"/><use xlink:href="#ar" width="8.7" height="10" transform="matrix(.9718 .3403 -.3941 .8056 -11.5 -28.3)"/></g></g><g clip-path="url(#at)"><g transform="translate(93.4 50.9)"><use xlink:href="#af" width="14.7" height="4.3" transform="matrix(.8 0 0 .8 -5.4 -1.8)"/><use xlink:href="#ag" width="7.7" height="10" transform="matrix(.7343 -.7634 .5745 .7394 1.3 -24.1)"/><use xlink:href="#ah" width="8.1" height="9.6" transform="matrix(.9466 -.4483 .3741 .8683 -1.3 -29.35)"/><use xlink:href="#ai" width="4.8" height="5.5" transform="rotate(-86.496 -5.598 -12.529)scale(.9947)"/><use xlink:href="#aj" width="6.5" height="4.6" transform="matrix(.5669 .7297 -.8875 .5035 -4.7 -8.85)"/><use xlink:href="#ak" width="4.5" height="8.4" transform="matrix(.8287 .5826 -.5392 .7461 -1.85 -13.25)"/><use xlink:href="#al" width="5.5" height="10.3" transform="matrix(1.0458 -.0832 .0209 .9548 -2 -18.4)"/><use xlink:href="#aj" width="6.5" height="4.6" transform="matrix(1.001 -.0487 -.056 .9951 4.3 -3.15)"/><use xlink:href="#ak" width="4.5" height="8.4" transform="matrix(1.1122 -.304 .2985 .9724 1.5 -9.2)"/><use xlink:href="#al" width="5.5" height="10.3" transform="matrix(.9897 -.7146 .6937 .8771 -3.4 -15.9)"/><use xlink:href="#am" width="10.1" height="9.3" transform="matrix(1.061 -.221 .164 1.0022 -5.25 -17.8)"/><use xlink:href="#an" width="9.3" height="16.2" transform="matrix(1.0488 -.1719 -.0096 1.0497 -3.65 -33.05)"/><use xlink:href="#au" width="12.6" height="18.1" transform="translate(-2.35 -48.35)"/><use xlink:href="#ap" width="9.4" height="10.7" transform="matrix(.9016 .506 -.3747 .8917 -5.35 -35.2)"/><use xlink:href="#aq" width="4.2" height="6.7" transform="matrix(.7905 .6724 -.5037 .7731 -7.95 -22.6)"/><use xlink:href="#ar" width="8.7" height="10" transform="matrix(.9833 .3497 -.3478 .816 -10.85 -28.15)"/></g></g><g clip-path="url(#av)"><g transform="translate(130.4 50.9)"><use xlink:href="#af" width="14.7" height="4.3" transform="matrix(.8 0 0 .8 -5.4 -1.8)"/><use xlink:href="#ag" width="7.7" height="10" transform="matrix(.849 -.6886 .4622 .7817 .8 -24.6)"/><use xlink:href="#ah" width="8.1" height="9.6" transform="matrix(1.0007 -.3929 .2732 .8805 -1.2 -29.8)"/><use xlink:href="#ai" width="4.8" height="5.5" transform="rotate(-95.015 -4.458 -11.642)scale(.9941)"/><use xlink:href="#aj" width="6.5" height="4.6" transform="matrix(.2333 .9009 -.9848 .2005 -2.95 -9.65)"/><use xlink:href="#ak" width="4.5" height="8.4" transform="matrix(.8087 .6234 -.5652 .7018 -.65 -13.75)"/><use xlink:href="#al" width="5.5" height="10.3" transform="matrix(1.0307 -.2719 .1905 .9335 -2.2 -18.25)"/><use xlink:href="#aj" width="6.5" height="4.6" transform="matrix(1.0009 -.0354 -.0399 .9966 2.35 -3.25)"/><use xlink:href="#ak" width="4.5" height="8.4" transform="matrix(1.0633 -.0597 .1018 .9921 .85 -10.15)"/><use xlink:href="#al" width="5.5" height="10.3" transform="matrix(1.0929 -.6583 .614 .8894 -3.55 -16.55)"/><use xlink:href="#am" width="10.1" height="9.3" transform="matrix(1.0503 -.1622 .1236 1.004 -5.05 -18.55)"/><use xlink:href="#an" width="9.3" height="16.2" transform="matrix(1.037 -.1505 -.0054 1.0373 -3.65 -33.35)"/><use xlink:href="#au" width="12.6" height="18.1" transform="translate(-2.75 -48.7)"/><use xlink:href="#ap" width="9.4" height="10.7" transform="matrix(.972 .4197 -.2247 .9222 -6.3 -34.9)"/><use xlink:href="#aq" width="4.2" height="6.7" transform="matrix(.7254 .7606 -.4943 .7468 -6.9 -22.4)"/><use xlink:href="#ar" width="8.7" height="10" transform="matrix(.9944 .3636 -.3049 .8237 -10.15 -28)"/></g></g><g clip-path="url(#aw)"><g transform="translate(167.4 50.9)"><use xlink:href="#af" width="14.7" height="4.3" transform="matrix(.8 0 0 .8 -5.4 -1.8)"/><use xlink:href="#ag" width="7.7" height="10" transform="matrix(.891 -.5745 .3895 .8526 .45 -25.55)"/><use xlink:href="#ah" width="8.1" height="9.6" transform="matrix(.9875 -.3508 .2848 .9021 -1.75 -30.5)"/><use xlink:href="#ai" width="4.8" height="5.5" transform="rotate(-81.196 -8.026 -11.534)scale(.9951)"/><use xlink:href="#aj" width="6.5" height="4.6" transform="matrix(.1955 .9367 -.9867 .1432 -1.8 -10.25)"/><use xlink:href="#ak" width="4.5" height="8.4" transform="matrix(.7845 .6661 -.5859 .6589 .7 -14.25)"/><use xlink:href="#al" width="5.5" height="10.3" transform="matrix(.9829 -.4547 .3533 .8824 -2.15 -17.95)"/><use xlink:href="#aj" width="6.5" height="4.6" transform="matrix(1.0007 -.0225 -.0266 .9979 .5 -3.25)"/><use xlink:href="#ak" width="4.5" height="8.4" transform="matrix(1.0426 -.037 .066 .9958 -.55 -10.4)"/><use xlink:href="#al" width="5.5" height="10.3" transform="matrix(1.1462 -.4645 .4171 .9668 -3.35 -17.3)"/><use xlink:href="#am" width="10.1" height="9.3" transform="matrix(1.0365 -.1051 .08 1.0046 -4.9 -19.2)"/><use xlink:href="#an" width="9.3" height="16.2" transform="matrix(1.0252 -.1262 -.0047 1.0249 -3.6 -33.65)"/><use xlink:href="#au" width="12.6" height="18.1" transform="translate(-3.2 -49.1)"/><use xlink:href="#ap" width="9.4" height="10.7" transform="matrix(.9923 .2993 -.1351 .9593 -6.35 -34.55)"/><use xlink:href="#aq" width="4.2" height="6.7" transform="matrix(.9256 .4533 -.2686 .8908 -5.45 -21.05)"/><use xlink:href="#ar" width="8.7" height="10" transform="matrix(1.0221 .1721 -.1407 .9084 -9.7 -26.7)"/></g></g><g clip-path="url(#ax)"><g transform="translate(204.4 50.9)"><use xlink:href="#af" width="14.7" height="4.3" transform="matrix(.8 0 0 .8 -5.4 -1.8)"/><use xlink:href="#ag" width="7.7" height="10" transform="matrix(.9205 -.4599 .3076 .9178 .15 -26.4)"/><use xlink:href="#ah" width="8.1" height="9.6" transform="matrix(.9731 -.3124 .2965 .9246 -2.2 -31.2)"/><use xlink:href="#ai" width="4.8" height="5.5" transform="rotate(-67.181 -12.514 -11.132)scale(.9958)"/><use xlink:href="#aj" width="6.5" height="4.6" transform="matrix(.155 .9717 -.986 .0864 -.65 -10.7)"/><use xlink:href="#ak" width="4.5" height="8.4" transform="matrix(.7604 .7054 -.6059 .6136 1.85 -14.75)"/><use xlink:href="#al" width="5.5" height="10.3" transform="matrix(.9004 -.6321 .5069 .8016 -2.15 -17.8)"/><use xlink:href="#aj" width="6.5" height="4.6" transform="matrix(1.0005 -.0096 -.0133 .999 -1.45 -3.35)"/><use xlink:href="#ak" width="4.5" height="8.4" transform="matrix(1.0215 -.0181 .0314 .9985 -1.9 -10.6)"/><use xlink:href="#al" width="5.5" height="10.3" transform="matrix(1.1686 -.2711 .2184 1.0035 -3.1 -17.95)"/><use xlink:href="#am" width="10.1" height="9.3" transform="matrix(1.0197 -.0499 .0399 1.0031 -4.65 -19.8)"/><use xlink:href="#an" width="9.3" height="16.2" transform="matrix(1.0128 -.1025 -.0007 1.0124 -3.45 -33.95)"/><use xlink:href="#au" width="12.6" height="18.1" transform="translate(-3.65 -49.5)"/><use xlink:href="#ap" width="9.4" height="10.7" transform="matrix(.9992 .1811 -.0395 .9883 -6.35 -34.2)"/><use xlink:href="#aq" width="4.2" height="6.7" transform="matrix(1.007 .1063 -.0006 .9669 -3.95 -19.7)"/><use xlink:href="#ar" width="8.7" height="10" transform="matrix(1.0153 -.0095 .0384 .9603 -8.95 -25.4)"/></g></g><g clip-path="url(#ay)"><g transform="translate(241.4 50.9)"><use xlink:href="#af" width="14.7" height="4.3" transform="matrix(.8 0 0 .8 -5.4 -1.8)"/><use xlink:href="#ag" width="7.7" height="10" transform="matrix(.9369 -.3462 .2169 .9754 -.15 -27.3)"/><use xlink:href="#ah" width="8.1" height="9.6" transform="matrix(.958 -.2761 .3094 .9477 -2.75 -31.95)"/><use xlink:href="#ai" width="4.8" height="5.5" transform="matrix(.599 -.7988 .7988 .599 .6 -19.3)"/><use xlink:href="#aj" width="6.5" height="4.6" transform="matrix(.1162 1.0047 -.9821 .0305 .45 -11.2)"/><use xlink:href="#ak" width="4.5" height="8.4" transform="matrix(.7359 .7449 -.6232 .5696 3.1 -15.25)"/><use xlink:href="#al" width="5.5" height="10.3" transform="matrix(.7893 -.7936 .6415 .698 -2.05 -17.6)"/><use xlink:href="#aj" width="6.5" height="4.6" transform="translate(-3.35 -3.4)"/><use xlink:href="#ak" width="4.5" height="8.4" transform="translate(-3.35 -10.85)"/><use xlink:href="#al" width="5.5" height="10.3" transform="matrix(1.1596 -.087 .0205 1.0009 -2.85 -18.6)"/><use xlink:href="#am" width="10.1" height="9.3" transform="translate(-4.45 -20.45)"/><use xlink:href="#an" width="9.3" height="16.2" transform="matrix(1 -.0814 0 1 -3.45 -34.25)"/><use xlink:href="#au" width="12.6" height="18.1" transform="translate(-4.1 -49.9)"/><use xlink:href="#ap" width="9.4" height="10.7" transform="matrix(.9926 .0656 .0572 1.0076 -6.35 -33.8)"/><use xlink:href="#aq" width="4.2" height="6.7" transform="matrix(.9643 -.2409 .2856 .9611 -2.25 -18.5)"/><use xlink:href="#ar" width="8.7" height="10" transform="matrix(.9753 -.1897 .2388 .9737 -8.2 -24.1)"/></g></g><g clip-path="url(#az)"><g transform="translate(278.4 50.9)"><use xlink:href="#af" width="14.7" height="4.3" transform="matrix(.8 0 0 .8 -5.4 -1.8)"/><use xlink:href="#ag" width="7.7" height="10" transform="matrix(.9771 -.1992 .0656 .9959 -.6 -28.05)"/><use xlink:href="#ah" width="8.1" height="9.6" transform="matrix(.9928 -.0786 .1132 .9892 -2.3 -32.85)"/><use xlink:href="#ai" width="4.8" height="5.5" transform="rotate(-40.86 -27.615 -8.758)scale(.996)"/><use xlink:href="#aj" width="6.5" height="4.6" transform="matrix(.4914 .856 -.9 .4213 1.75 -10.2)"/><use xlink:href="#ak" width="4.5" height="8.4" transform="matrix(.9106 .5121 -.4388 .7428 2.75 -14)"/><use xlink:href="#al" width="5.5" height="10.3" transform="matrix(.799 -.802 .658 .734 -2.05 -17.15)"/><use xlink:href="#aj" width="6.5" height="4.6" transform="matrix(.974 .0308 -.1017 1.0059 -4.75 -3.65)"/><use xlink:href="#ak" width="4.5" height="8.4" transform="matrix(1.0067 .098 -.0964 .9898 -4.15 -10.75)"/><use xlink:href="#al" width="5.5" height="10.3" transform="matrix(1.1504 .006 -.0542 1.0191 -2.95 -18.65)"/><use xlink:href="#am" width="10.1" height="9.3" transform="matrix(1.0012 .049 -.0223 .9998 -4.45 -20.45)"/><use xlink:href="#an" width="9.3" height="16.2" transform="matrix(1.0176 -.0007 -.0175 1.0006 -3.2 -34.2)"/><use xlink:href="#au" width="12.6" height="18.1" transform="translate(-3.55 -49.45)"/><use xlink:href="#ap" width="9.4" height="10.7" transform="matrix(.9866 -.0783 .1847 .9942 -6.25 -32.5)"/><use xlink:href="#aq" width="4.2" height="6.7" transform="matrix(.905 -.4087 .4316 .9031 .05 -18.1)"/><use xlink:href="#ar" width="8.7" height="10" transform="matrix(.9325 -.3402 .3677 .9309 -6.55 -22.55)"/></g></g><g clip-path="url(#aA)"><g transform="translate(315.4 50.9)"><use xlink:href="#af" width="14.7" height="4.3" transform="matrix(.8 0 0 .8 -5.4 -1.8)"/><use xlink:href="#ag" width="7.7" height="10" transform="matrix(.9955 -.0482 -.0833 .9935 -1.05 -28.65)"/><use xlink:href="#ah" width="8.1" height="9.6" transform="matrix(.9879 .1176 -.083 .9914 -1.6 -33.55)"/><use xlink:href="#ai" width="4.8" height="5.5" transform="rotate(-28.56 -42.724 -5.54)scale(.9954)"/><use xlink:href="#aj" width="6.5" height="4.6" transform="matrix(.7739 .5746 -.6647 .755 2.9 -8.8)"/><use xlink:href="#ak" width="4.5" height="8.4" transform="matrix(1.0154 .2445 -.2066 .8584 2.4 -12.6)"/><use xlink:href="#al" width="5.5" height="10.3" transform="matrix(.8124 -.8093 .677 .7697 -2.05 -16.75)"/><use xlink:href="#aj" width="6.5" height="4.6" transform="matrix(.947 .063 -.2046 1.0014 -6.15 -3.9)"/><use xlink:href="#ak" width="4.5" height="8.4" transform="matrix(1.0031 .2006 -.194 .9697 -5 -10.65)"/><use xlink:href="#al" width="5.5" height="10.3" transform="matrix(1.1334 .1001 -.136 1.031 -2.95 -18.7)"/><use xlink:href="#am" width="10.1" height="9.3" transform="matrix(.9996 .1014 -.0446 .9991 -4.35 -20.5)"/><use xlink:href="#an" width="9.3" height="16.2" transform="matrix(1.0287 .0769 -.0351 1.0009 -2.9 -34.1)"/><use xlink:href="#au" width="12.6" height="18.1" transform="translate(-3.05 -48.95)"/><use xlink:href="#ap" width="9.4" height="10.7" transform="matrix(.9591 -.2219 .3098 .9649 -6 -31.1)"/><use xlink:href="#aq" width="4.2" height="6.7" transform="matrix(.8173 -.5638 .5674 .8237 2.25 -17.65)"/><use xlink:href="#ar" width="8.7" height="10" transform="matrix(.8672 -.4824 .4901 .8717 -4.85 -21.15)"/></g></g><g clip-path="url(#aB)"><g transform="translate(352.4 50.9)"><use xlink:href="#af" width="14.7" height="4.3" transform="matrix(.8 0 0 .8 -5.4 -1.8)"/><use xlink:href="#ag" width="7.7" height="10" transform="matrix(.9904 .1004 -.2331 .9678 -1.5 -29.15)"/><use xlink:href="#ah" width="8.1" height="9.6" transform="matrix(.9432 .3119 -.2787 .9536 -.9 -34.1)"/><use xlink:href="#ai" width="4.8" height="5.5" transform="rotate(-16.277 -78.87 2.636)scale(.995)"/><use xlink:href="#aj" width="6.5" height="4.6" transform="matrix(.9173 .2128 -.3117 .9702 4.15 -7.2)"/><use xlink:href="#ak" width="4.5" height="8.4" transform="matrix(1.0433 -.0411 .0518 .9016 2.4 -11.15)"/><use xlink:href="#al" width="5.5" height="10.3" transform="matrix(.8231 -.8192 .6927 .8081 -2.05 -16.35)"/><use xlink:href="#aj" width="6.5" height="4.6" transform="matrix(.9189 .0934 -.3077 .9863 -7.55 -4.2)"/><use xlink:href="#ak" width="4.5" height="8.4" transform="matrix(.9889 .3035 -.2887 .94 -5.75 -10.65)"/><use xlink:href="#al" width="5.5" height="10.3" transform="matrix(1.1087 .1915 -.2165 1.0368 -3.05 -18.7)"/><use xlink:href="#am" width="10.1" height="9.3" transform="matrix(.9952 .1538 -.0702 .9977 -4.3 -20.5)"/><use xlink:href="#an" width="9.3" height="16.2" transform="matrix(1.0333 .1597 -.0527 1.0008 -2.55 -34.15)"/><use xlink:href="#au" width="12.6" height="18.1" transform="translate(-2.5 -48.5)"/><use xlink:href="#ap" width="9.4" height="10.7" transform="matrix(.9122 -.3562 .4306 .92 -5.65 -29.8)"/><use xlink:href="#aq" width="4.2" height="6.7" transform="matrix(.7035 -.7009 .6868 .7264 4.5 -17.4)"/><use xlink:href="#ar" width="8.7" height="10" transform="matrix(.7784 -.6153 .606 .7946 -2.95 -19.65)"/></g></g><g clip-path="url(#aC)"><g transform="translate(389.4 50.9)"><use xlink:href="#af" width="14.7" height="4.3" transform="matrix(.8 0 0 .8 -5.4 -1.8)"/><use xlink:href="#ag" width="7.7" height="10" transform="matrix(.9622 .2495 -.3772 .9198 -1.85 -29.6)"/><use xlink:href="#ah" width="8.1" height="9.6" transform="matrix(.8607 .4934 -.463 .8775 .1 -34.5)"/><use xlink:href="#ai" width="4.8" height="5.5" transform="rotate(-4.006 -330.076 64.33)scale(.995)"/><use xlink:href="#aj" width="6.5" height="4.6" transform="matrix(.9047 -.1604 .099 1.0274 5.65 -5.25)"/><use xlink:href="#ak" width="4.5" height="8.4" transform="matrix(.9911 -.323 .3199 .8646 2.65 -9.75)"/><use xlink:href="#al" width="5.5" height="10.3" transform="matrix(.8366 -.8263 .7076 .847 -2 -15.95)"/><use xlink:href="#aj" width="6.5" height="4.6" transform="matrix(.8898 .1219 -.413 .9592 -9 -4.35)"/><use xlink:href="#ak" width="4.5" height="8.4" transform="matrix(.9641 .4057 -.3794 .9012 -6.45 -10.55)"/><use xlink:href="#al" width="5.5" height="10.3" transform="matrix(1.0768 .2795 -.2987 1.0364 -3.05 -18.85)"/><use xlink:href="#am" width="10.1" height="9.3" transform="matrix(.9881 .2061 -.0924 .9959 -4.15 -20.55)"/><use xlink:href="#an" width="9.3" height="16.2" transform="matrix(1.0312 .2436 -.0703 1.0005 -2.2 -34.2)"/><use xlink:href="#au" width="12.6" height="18.1" transform="translate(-2 -48)"/><use xlink:href="#ap" width="9.4" height="10.7" transform="matrix(.8451 -.4847 .5479 .8581 -5.1 -28.45)"/><use xlink:href="#aq" width="4.2" height="6.7" transform="matrix(.5643 -.8176 .7919 .6094 6.85 -17.1)"/><use xlink:href="#ar" width="8.7" height="10" transform="matrix(.672 -.7301 .7078 .7047 -.9 -18.25)"/></g></g><g clip-path="url(#aD)"><g transform="translate(426.4 50.9)"><use xlink:href="#af" width="14.7" height="4.3" transform="matrix(.8 0 0 .8 -5.4 -1.8)"/><use xlink:href="#ag" width="7.7" height="10" transform="matrix(.9126 .3936 -.5132 .8516 -2.2 -29.95)"/><use xlink:href="#ah" width="8.1" height="9.6" transform="matrix(.7453 .6558 -.6293 .7677 .95 -34.6)"/><use xlink:href="#ai" width="4.8" height="5.5" transform="rotate(8.263 161.174 -56.522)scale(.9943)"/><use xlink:href="#aj" width="6.5" height="4.6" transform="matrix(.7465 -.496 .5056 .9146 7.5 -3.15)"/><use xlink:href="#ak" width="4.5" height="8.4" transform="matrix(.8643 -.5829 .5721 .7491 3.05 -8.5)"/><use xlink:href="#al" width="5.5" height="10.3" transform="matrix(.849 -.8374 .7247 .8862 -2 -15.6)"/><use xlink:href="#aj" width="6.5" height="4.6" transform="matrix(.8602 .1503 -.5146 .9231 -10.4 -4.6)"/><use xlink:href="#ak" width="4.5" height="8.4" transform="matrix(.9293 .5078 -.4675 .8542 -7.1 -10.5)"/><use xlink:href="#al" width="5.5" height="10.3" transform="matrix(1.0385 .3658 -.3868 1.0288 -3.05 -18.85)"/><use xlink:href="#am" width="10.1" height="9.3" transform="matrix(.979 .2586 -.1186 .9935 -4.15 -20.55)"/><use xlink:href="#an" width="9.3" height="16.2" transform="matrix(1.0228 .3298 -.0891 1 -1.8 -34.1)"/><use xlink:href="#au" width="12.6" height="18.1" transform="translate(-1.45 -47.55)"/><use xlink:href="#ap" width="9.4" height="10.7" transform="matrix(.7615 -.6021 .6548 .785 -4.55 -27.05)"/><use xlink:href="#aq" width="4.2" height="6.7" transform="matrix(.4113 -.9063 .8786 .4784 9.15 -16.9)"/><use xlink:href="#ar" width="8.7" height="10" transform="matrix(.5498 -.828 .7983 .6021 1.4 -16.85)"/></g></g><g clip-path="url(#aE)"><g transform="translate(463.4 50.9)"><use xlink:href="#af" width="14.7" height="4.3" transform="matrix(.8 0 0 .8 -5.4 -1.8)"/><use xlink:href="#ag" width="7.7" height="10" transform="matrix(.9357 .3324 -.4559 .8822 -1.6 -29.75)"/><use xlink:href="#ah" width="8.1" height="9.6" transform="matrix(.796 .5905 -.5622 .8161 1.05 -34.55)"/><use xlink:href="#ai" width="4.8" height="5.5" transform="rotate(16.3 79.943 -30.154)scale(.9933)"/><use xlink:href="#aj" width="6.5" height="4.6" transform="matrix(.9579 -.1178 .0655 1.001 5.5 -4.2)"/><use xlink:href="#ak" width="4.5" height="8.4" transform="matrix(.9103 -.4904 .4909 .8142 2.3 -9.05)"/><use xlink:href="#al" width="5.5" height="10.3" transform="matrix(.9585 -.7449 .6152 .9346 -2.1 -16.25)"/><use xlink:href="#aj" width="6.5" height="4.6" transform="matrix(.7851 .4014 -.6516 .801 -8.55 -5.7)"/><use xlink:href="#ak" width="4.5" height="8.4" transform="matrix(.901 .5323 -.4798 .8373 -5.85 -11.05)"/><use xlink:href="#al" width="5.5" height="10.3" transform="matrix(1.0786 .2102 -.2325 1.045 -3.2 -18.7)"/><use xlink:href="#am" width="10.1" height="9.3" transform="matrix(.9867 .2148 -.0966 .9955 -4.2 -20.5)"/><use xlink:href="#an" width="9.3" height="16.2" transform="matrix(1.0261 .2711 -.0711 1.0005 -2.15 -34.2)"/><use xlink:href="#au" width="12.6" height="18.1" transform="translate(-1.9 -47.85)"/><use xlink:href="#ap" width="9.4" height="10.7" transform="matrix(.838 -.4908 .5682 .8481 -5.2 -28.2)"/><use xlink:href="#aq" width="4.2" height="6.7" transform="matrix(.3555 -.936 .9044 .4041 7.6 -17.15)"/><use xlink:href="#ar" width="8.7" height="10" transform="matrix(.5423 -.8402 .8024 .5796 -.15 -17)"/></g></g><g clip-path="url(#aF)"><g transform="translate(500.4 50.9)"><use xlink:href="#af" width="14.7" height="4.3" transform="matrix(.8 0 0 .8 -5.4 -1.8)"/><use xlink:href="#ag" width="7.7" height="10" transform="matrix(.9557 .2708 -.3975 .9102 -1.05 -29.6)"/><use xlink:href="#ah" width="8.1" height="9.6" transform="matrix(.8442 .5193 -.4894 .8618 1.15 -34.45)"/><use xlink:href="#ai" width="4.8" height="5.5" transform="rotate(24.541 51.693 -21.355)scale(.9929)"/><use xlink:href="#aj" width="6.5" height="4.6" transform="matrix(.9673 -.0936 .0492 1.0011 4.05 -4.3)"/><use xlink:href="#ak" width="4.5" height="8.4" transform="matrix(.9485 -.3942 .4032 .8718 1.5 -9.6)"/><use xlink:href="#al" width="5.5" height="10.3" transform="matrix(1.0597 -.639 .5068 .9706 -2.1 -17)"/><use xlink:href="#aj" width="6.5" height="4.6" transform="matrix(.6369 .6234 -.7663 .6577 -6.7 -6.65)"/><use xlink:href="#ak" width="4.5" height="8.4" transform="matrix(.8728 .5573 -.4911 .8222 -4.6 -11.65)"/><use xlink:href="#al" width="5.5" height="10.3" transform="matrix(1.0966 .0528 -.0826 1.0399 -3.3 -18.55)"/><use xlink:href="#am" width="10.1" height="9.3" transform="matrix(.9931 .1713 -.0787 .997 -4.35 -20.5)"/><use xlink:href="#an" width="9.3" height="16.2" transform="matrix(1.0269 .2145 -.0575 1.0008 -2.4 -34.35)"/><use xlink:href="#au" width="12.6" height="18.1" transform="translate(-2.3 -48.2)"/><use xlink:href="#ap" width="9.4" height="10.7" transform="matrix(.8986 -.3734 .4762 .9032 -5.75 -29.35)"/><use xlink:href="#aq" width="4.2" height="6.7" transform="matrix(.2995 -.963 .9241 .3325 6.15 -17.35)"/><use xlink:href="#ar" width="8.7" height="10" transform="matrix(.5355 -.8535 .8078 .5574 -1.7 -17.15)"/></g></g><g clip-path="url(#aG)"><g transform="translate(537.4 50.9)"><use xlink:href="#af" width="14.7" height="4.3" transform="matrix(.8 0 0 .8 -5.4 -1.8)"/><use xlink:href="#ag" width="7.7" height="10" transform="matrix(.9716 .2119 -.3412 .9341 -.4 -29.4)"/><use xlink:href="#ah" width="8.1" height="9.6" transform="matrix(.8855 .4482 -.4169 .9006 1.25 -34.35)"/><use xlink:href="#ai" width="4.8" height="5.5" transform="rotate(32.65 38.106 -16.721)scale(.994)"/><use xlink:href="#aj" width="6.5" height="4.6" transform="matrix(.9764 -.0692 .036 1.0011 2.55 -4.5)"/><use xlink:href="#ak" width="4.5" height="8.4" transform="matrix(.9766 -.2954 .3089 .9198 .85 -10.05)"/><use xlink:href="#al" width="5.5" height="10.3" transform="matrix(1.1491 -.5196 .3975 .9945 -2.1 -17.6)"/><use xlink:href="#aj" width="6.5" height="4.6" transform="matrix(.4283 .7943 -.8506 .5042 -4.7 -7.5)"/><use xlink:href="#ak" width="4.5" height="8.4" transform="matrix(.8457 .5783 -.5046 .8053 -3.4 -12.2)"/><use xlink:href="#al" width="5.5" height="10.3" transform="matrix(1.0912 -.1053 .0579 1.0138 -3.35 -18.35)"/><use xlink:href="#am" width="10.1" height="9.3" transform="matrix(.9977 .1276 -.0574 .9985 -4.4 -20.45)"/><use xlink:href="#an" width="9.3" height="16.2" transform="matrix(1.0246 .1586 -.0439 1.0009 -2.75 -34.3)"/><use xlink:href="#au" width="12.6" height="18.1" transform="translate(-2.75 -48.5)"/><use xlink:href="#ap" width="9.4" height="10.7" transform="matrix(.9436 -.2495 .3789 .9496 -6.25 -30.4)"/><use xlink:href="#aq" width="4.2" height="6.7" transform="matrix(.2409 -.9875 .9394 .2594 4.65 -17.65)"/><use xlink:href="#ar" width="8.7" height="10" transform="matrix(.5313 -.8669 .8123 .5383 -3.25 -17.3)"/></g></g><g clip-path="url(#aH)"><g transform="translate(574.4 50.9)"><use xlink:href="#af" width="14.7" height="4.3" transform="matrix(.8 0 0 .8 -5.4 -1.8)"/><use xlink:href="#ag" width="7.7" height="10" transform="matrix(.9955 .0226 -.1567 .9831 -.35 -28.8)"/><use xlink:href="#ah" width="8.1" height="9.6" transform="matrix(.9697 .2153 -.1813 .9767 -.3 -33.75)"/><use xlink:href="#ai" width="4.8" height="5.5" transform="rotate(21.782 58.214 -15.378)scale(.995)"/><use xlink:href="#aj" width="6.5" height="4.6" transform="matrix(.9847 -.0476 .0229 1.0009 1.1 -4.55)"/><use xlink:href="#ak" width="4.5" height="8.4" transform="matrix(.994 -.1982 .209 .9577 .1 -10.65)"/><use xlink:href="#al" width="5.5" height="10.3" transform="matrix(1.2249 -.388 .2854 1.0075 -2.05 -18.35)"/><use xlink:href="#aj" width="6.5" height="4.6" transform="matrix(.3236 .8754 -.9199 .368 -3.45 -8.1)"/><use xlink:href="#ak" width="4.5" height="8.4" transform="matrix(.8163 .6008 -.5151 .7898 -2.1 -12.85)"/><use xlink:href="#al" width="5.5" height="10.3" transform="matrix(1.0628 -.2609 .1929 .9682 -3.3 -18.35)"/><use xlink:href="#am" width="10.1" height="9.3" transform="matrix(1.0004 .084 -.0394 .9993 -4.35 -20.45)"/><use xlink:href="#an" width="9.3" height="16.2" transform="matrix(1.0193 .1036 -.0271 1.0009 -3.1 -34.45)"/><use xlink:href="#au" width="12.6" height="18.1" transform="translate(-3.2 -48.85)"/><use xlink:href="#ap" width="9.4" height="10.7" transform="matrix(.9667 -.1795 .3456 .9733 -6.95 -31.25)"/><use xlink:href="#aq" width="4.2" height="6.7" transform="matrix(.3346 -.9549 .9165 .3389 3.65 -17.75)"/><use xlink:href="#ar" width="8.7" height="10" transform="matrix(.5979 -.8125 .7874 .5853 -4.6 -18)"/></g></g><g clip-path="url(#aI)"><g transform="translate(611.4 50.9)"><use xlink:href="#af" width="14.7" height="4.3" transform="matrix(.8 0 0 .8 -5.4 -1.8)"/><use xlink:href="#ag" width="7.7" height="10" transform="matrix(.9837 -.161 .0268 .9972 -.25 -28.1)"/><use xlink:href="#ah" width="8.1" height="9.6" transform="matrix(.9949 -.0305 .0652 .9931 -1.65 -33)"/><use xlink:href="#ai" width="4.8" height="5.5" transform="rotate(10.788 117.504 -11.63)scale(.9974)"/><use xlink:href="#aj" width="6.5" height="4.6" transform="matrix(.9927 -.0223 .0098 1.0005 -.4 -4.75)"/><use xlink:href="#ak" width="4.5" height="8.4" transform="matrix(1.0021 -.0973 .1045 .9846 -.5 -11.2)"/><use xlink:href="#al" width="5.5" height="10.3" transform="matrix(1.2845 -.2499 .1783 1.0076 -2 -19.1)"/><use xlink:href="#aj" width="6.5" height="4.6" transform="matrix(.2051 .9435 -.9687 .224 -2.3 -8.65)"/><use xlink:href="#ak" width="4.5" height="8.4" transform="matrix(.7863 .622 -.5276 .7726 -.8 -13.45)"/><use xlink:href="#al" width="5.5" height="10.3" transform="matrix(1.0125 -.4105 .3166 .9052 -3.2 -18.1)"/><use xlink:href="#am" width="10.1" height="9.3" transform="matrix(1.0011 .0403 -.018 .9999 -4.5 -20.4)"/><use xlink:href="#an" width="9.3" height="16.2" transform="matrix(1.011 .0496 -.0135 1.0005 -3.3 -34.55)"/><use xlink:href="#au" width="12.6" height="18.1" transform="translate(-3.6 -49.15)"/><use xlink:href="#ap" width="9.4" height="10.7" transform="matrix(.9853 -.1081 .311 .9971 -7.7 -32.05)"/><use xlink:href="#aq" width="4.2" height="6.7" transform="matrix(.427 -.9131 .888 .4157 2.75 -17.85)"/><use xlink:href="#ar" width="8.7" height="10" transform="matrix(.662 -.7526 .7592 .6342 -5.9 -18.8)"/></g></g><g clip-path="url(#aJ)"><g transform="translate(648.4 50.9)"><use xlink:href="#af" width="14.7" height="4.3" transform="matrix(.8 0 0 .8 -5.4 -1.8)"/><use xlink:href="#ag" width="7.7" height="10" transform="matrix(.9369 -.3462 .2169 .9754 -.15 -27.25)"/><use xlink:href="#ah" width="8.1" height="9.6" transform="matrix(.958 -.2761 .3094 .9477 -2.75 -31.9)"/><use xlink:href="#ai" width="4.8" height="5.5" transform="translate(1.45 -21.65)"/><use xlink:href="#aj" width="6.5" height="4.6" transform="translate(-1.8 -4.75)"/><use xlink:href="#ak" width="4.5" height="8.4" transform="translate(-1.25 -11.8)"/><use xlink:href="#al" width="5.5" height="10.3" transform="matrix(1.3291 -.0998 .0748 .9968 -1.9 -19.85)"/><use xlink:href="#aj" width="6.5" height="4.6" transform="rotate(85.76 4.327 -5.221)scale(.9981)"/><use xlink:href="#ak" width="4.5" height="8.4" transform="matrix(.7577 .6421 -.5394 .7572 .45 -13.95)"/><use xlink:href="#al" width="5.5" height="10.3" transform="matrix(.9412 -.5543 .4267 .8288 -3.1 -17.95)"/><use xlink:href="#am" width="10.1" height="9.3" transform="translate(-4.45 -20.4)"/><use xlink:href="#an" width="9.3" height="16.2" transform="translate(-3.6 -34.65)"/><use xlink:href="#au" width="12.6" height="18.1" transform="translate(-4.05 -49.5)"/><use xlink:href="#ap" width="9.4" height="10.7" transform="matrix(.9987 -.0353 .2796 1.0193 -8.35 -32.95)"/><use xlink:href="#aq" width="4.2" height="6.7" transform="matrix(.5152 -.8636 .8526 .4941 1.8 -17.85)"/><use xlink:href="#ar" width="8.7" height="10" transform="matrix(.7194 -.6912 .7289 .6832 -7.15 -19.6)"/></g></g><g clip-path="url(#aK)"><g transform="translate(685.4 50.9)"><use xlink:href="#af" width="14.7" height="4.3" transform="matrix(.8 0 0 .8 -5.4 -1.8)"/><use xlink:href="#ag" width="7.7" height="10" transform="matrix(.8833 -.4618 .3384 .9382 .2 -26.55)"/><use xlink:href="#ah" width="8.1" height="9.6" transform="matrix(.9396 -.3289 .3615 .9273 -2.45 -31.25)"/><use xlink:href="#ai" width="4.8" height="5.5" transform="rotate(-13.02 -90.52 -21.648)scale(.9983)"/><use xlink:href="#aj" width="6.5" height="4.6" transform="matrix(.9857 .0135 -.0704 1.0063 -2.8 -5)"/><use xlink:href="#ak" width="4.5" height="8.4" transform="matrix(.9954 .0872 -.0866 .9891 -1.8 -11.9)"/><use xlink:href="#al" width="5.5" height="10.3" transform="matrix(1.3322 -.0234 .0175 .9991 -2.05 -19.6)"/><use xlink:href="#aj" width="6.5" height="4.6" transform="matrix(.48 .8717 -.8862 .4625 .2 -8.2)"/><use xlink:href="#ak" width="4.5" height="8.4" transform="matrix(.9592 .4385 -.3419 .8893 .55 -12.8)"/><use xlink:href="#al" width="5.5" height="10.3" transform="matrix(.9148 -.6012 .499 .8438 -3.05 -17.4)"/><use xlink:href="#am" width="10.1" height="9.3" transform="matrix(1.0217 -.0583 .0444 1.0032 -4.65 -19.65)"/><use xlink:href="#an" width="9.3" height="16.2" transform="matrix(1.0183 -.0453 .0006 1.0125 -3.7 -34.15)"/><use xlink:href="#au" width="12.6" height="18.1" transform="translate(-3.55 -49.15)"/><use xlink:href="#ap" width="9.4" height="10.7" transform="matrix(.9907 .1094 .0694 1.0416 -7.4 -33.8)"/><use xlink:href="#aq" width="4.2" height="6.7" transform="matrix(.7747 -.6407 .6271 .7579 -.9 -18.65)"/><use xlink:href="#ar" width="8.7" height="10" transform="matrix(.8672 -.4975 .4953 .8461 -8.7 -21.75)"/></g></g><g clip-path="url(#aL)"><g transform="translate(722.4 50.9)"><use xlink:href="#af" width="14.7" height="4.3" transform="matrix(.8 0 0 .8 -5.4 -1.8)"/><use xlink:href="#ag" width="7.7" height="10" transform="matrix(.8145 -.5728 .4576 .885 .65 -25.85)"/><use xlink:href="#ah" width="8.1" height="9.6" transform="matrix(.9187 -.3815 .4133 .9046 -2.25 -30.6)"/><use xlink:href="#ai" width="4.8" height="5.5" transform="matrix(.8953 -.4377 .4377 .8953 3.7 -20.3)"/><use xlink:href="#aj" width="6.5" height="4.6" transform="matrix(.9712 .0298 -.1418 1.0077 -3.8 -5.3)"/><use xlink:href="#ak" width="4.5" height="8.4" transform="matrix(.9832 .1736 -.1714 .9709 -2.35 -11.95)"/><use xlink:href="#al" width="5.5" height="10.3" transform="rotate(2.25 494.118 -61.912)scale(1.332 .9989)"/><use xlink:href="#aj" width="6.5" height="4.6" transform="matrix(.8001 .5886 -.6321 .7778 1.65 -6.9)"/><use xlink:href="#ak" width="4.5" height="8.4" transform="matrix(1.1051 .1714 -.1111 .9713 .75 -11.65)"/><use xlink:href="#al" width="5.5" height="10.3" transform="matrix(.888 -.647 .5773 .8526 -3.05 -16.8)"/><use xlink:href="#am" width="10.1" height="9.3" transform="matrix(1.0399 -.1191 .0924 1.0042 -4.9 -19)"/><use xlink:href="#an" width="9.3" height="16.2" transform="matrix(1.0342 -.0957 .0046 1.025 -3.8 -33.7)"/><use xlink:href="#au" width="12.6" height="18.1" transform="translate(-3.05 -48.75)"/><use xlink:href="#ap" width="9.4" height="10.7" transform="matrix(.9609 .2539 -.1306 1.0225 -6.45 -34.4)"/><use xlink:href="#aq" width="4.2" height="6.7" transform="matrix(.9476 -.3416 .325 .9289 -3.55 -19.45)"/><use xlink:href="#ar" width="8.7" height="10" transform="matrix(.9648 -.277 .2335 .9351 -9.9 -23.8)"/></g></g><g clip-path="url(#aM)"><g transform="translate(759.4 50.9)"><use xlink:href="#af" width="14.7" height="4.3" transform="matrix(.8 0 0 .8 -5.4 -1.8)"/><use xlink:href="#ag" width="7.7" height="10" transform="matrix(.7319 -.6738 .5688 .8168 1.15 -25)"/><use xlink:href="#ah" width="8.1" height="9.6" transform="matrix(.8949 -.4328 .4638 .8791 -2.05 -30)"/><use xlink:href="#ai" width="4.8" height="5.5" transform="rotate(-39.103 -24.975 -16.955)scale(.9952)"/><use xlink:href="#aj" width="6.5" height="4.6" transform="matrix(.9565 .0424 -.2137 1.0039 -4.8 -5.6)"/><use xlink:href="#ak" width="4.5" height="8.4" transform="matrix(.9635 .2585 -.2537 .9454 -2.85 -12.05)"/><use xlink:href="#al" width="5.5" height="10.3" transform="matrix(1.3251 .1278 -.0958 .9938 -2.1 -19.25)"/><use xlink:href="#aj" width="6.5" height="4.6" transform="matrix(.9725 .1987 -.2733 .968 3.15 -5.1)"/><use xlink:href="#ak" width="4.5" height="8.4" transform="matrix(1.1736 -.1345 .1356 .9925 1.25 -10.25)"/><use xlink:href="#al" width="5.5" height="10.3" transform="matrix(.8588 -.6916 .6584 .8548 -3.15 -16.2)"/><use xlink:href="#am" width="10.1" height="9.3" transform="matrix(1.0544 -.1822 .1373 1.0033 -5.1 -18.25)"/><use xlink:href="#an" width="9.3" height="16.2" transform="matrix(1.0476 -.1476 .0052 1.0375 -3.9 -33.15)"/><use xlink:href="#au" width="12.6" height="18.1" transform="translate(-2.6 -48.4)"/><use xlink:href="#ap" width="9.4" height="10.7" transform="matrix(.9102 .3922 -.3241 .9644 -5.3 -34.9)"/><use xlink:href="#aq" width="4.2" height="6.7" transform="matrix(1.0096 -.0048 -.0139 .9848 -5.95 -20.4)"/><use xlink:href="#ar" width="8.7" height="10" transform="matrix(1.0075 -.0356 -.0377 .9465 -10.8 -25.7)"/></g></g><g clip-path="url(#aN)"><g transform="translate(796.4 50.9)"><use xlink:href="#af" width="14.7" height="4.3" transform="matrix(.8 0 0 .8 -5.4 -1.8)"/><use xlink:href="#ag" width="7.7" height="10" transform="matrix(.638 -.7644 .6713 .7358 1.65 -24.3)"/><use xlink:href="#ah" width="8.1" height="9.6" transform="matrix(.8693 -.4839 .5139 .8517 -1.75 -29.3)"/><use xlink:href="#ai" width="4.8" height="5.5" transform="rotate(-52.143 -16.09 -16.041)scale(.9958)"/><use xlink:href="#aj" width="6.5" height="4.6" transform="matrix(.9417 .0583 -.2865 .9957 -5.8 -5.85)"/><use xlink:href="#ak" width="4.5" height="8.4" transform="matrix(.9375 .3419 -.3333 .9139 -3.35 -12.1)"/><use xlink:href="#al" width="5.5" height="10.3" transform="matrix(1.3156 .2036 -.1527 .9867 -2.1 -19.1)"/><use xlink:href="#aj" width="6.5" height="4.6" transform="matrix(.966 -.2238 .1329 1.0009 4.9 -3.2)"/><use xlink:href="#ak" width="4.5" height="8.4" transform="matrix(1.1516 -.472 .3895 .9495 1.9 -8.9)"/><use xlink:href="#al" width="5.5" height="10.3" transform="matrix(.8288 -.7361 .743 .8517 -3.05 -15.6)"/><use xlink:href="#am" width="10.1" height="9.3" transform="matrix(1.065 -.2511 .1859 1.0003 -5.3 -17.5)"/><use xlink:href="#an" width="9.3" height="16.2" transform="matrix(1.059 -.2013 .01 1.0499 -4 -32.65)"/><use xlink:href="#au" width="12.6" height="18.1" transform="translate(-2.1 -48.05)"/><use xlink:href="#ap" width="9.4" height="10.7" transform="matrix(.841 .5224 -.5039 .8702 -4.25 -35.3)"/><use xlink:href="#aq" width="4.2" height="6.7" transform="matrix(.9543 .3338 -.3575 .9177 -8.4 -21.6)"/><use xlink:href="#ar" width="8.7" height="10" transform="matrix(.9903 .2072 -.2994 .8806 -11.4 -27.35)"/></g></g></svg>