<svg xmlns="http://www.w3.org/2000/svg" xmlns:xlink="http://www.w3.org/1999/xlink" width="721" height="52" viewBox="0 0 721 52"><defs><clipPath id="ae"><path d="M1 1h29v50H1z"/></clipPath><clipPath id="aq"><path d="M31 1h29v50H31z"/></clipPath><clipPath id="ar"><path d="M61 1h29v50H61z"/></clipPath><clipPath id="as"><path d="M91 1h29v50H91z"/></clipPath><clipPath id="at"><path d="M121 1h29v50h-29z"/></clipPath><clipPath id="au"><path d="M151 1h29v50h-29z"/></clipPath><clipPath id="av"><path d="M181 1h29v50h-29z"/></clipPath><clipPath id="aw"><path d="M211 1h29v50h-29z"/></clipPath><clipPath id="ax"><path d="M241 1h29v50h-29z"/></clipPath><clipPath id="ay"><path d="M271 1h29v50h-29z"/></clipPath><clipPath id="az"><path d="M301 1h29v50h-29z"/></clipPath><clipPath id="aA"><path d="M331 1h29v50h-29z"/></clipPath><clipPath id="aB"><path d="M361 1h29v50h-29z"/></clipPath><clipPath id="aC"><path d="M391 1h29v50h-29z"/></clipPath><clipPath id="aD"><path d="M421 1h29v50h-29z"/></clipPath><clipPath id="aE"><path d="M451 1h29v50h-29z"/></clipPath><clipPath id="aF"><path d="M481 1h29v50h-29z"/></clipPath><clipPath id="aG"><path d="M511 1h29v50h-29z"/></clipPath><clipPath id="aH"><path d="M541 1h29v50h-29z"/></clipPath><clipPath id="aI"><path d="M571 1h29v50h-29z"/></clipPath><clipPath id="aJ"><path d="M601 1h29v50h-29z"/></clipPath><clipPath id="aK"><path d="M631 1h29v50h-29z"/></clipPath><clipPath id="aL"><path d="M661 1h29v50h-29z"/></clipPath><clipPath id="aM"><path d="M691 1h29v50h-29z"/></clipPath><g id="O"><path fill="#f28c26" d="M5.5 0v2H2.8l1.5-.6-.7-.6z"/><path fill="#9e5213" d="m5.5 0-2 .8.8.6-1.5.6H0V0z"/></g><g id="b"><path fill="none" stroke="#212121" stroke-linecap="round" stroke-linejoin="round" stroke-opacity=".5" stroke-width="__RESOLUTION__" d="M3.6 4Q3.7 2 3 .9T1.7.1q-1.3 1.7-1 3l-.6 2q-.2.7.1 3.4m1.8.1.5-1.5.4-1.9" vector-effect="non-scaling-stroke"/><path fill="#45392e" fill-opacity=".3" d="M1.7 0q.8-.2 1.4.9.6 1 .4 3l-.7 1.3q-1.2.3-1.8-1Q.2 6.7.8 8.7l-.6-.2Q-.1 5.7.1 5l.6-2q-.3-1.3 1-3"/></g><g id="P"><path fill="#450b20" d="m1.8 11.5 1-1.7v-.2l-.1-2 1.1-.9.3-2.3.6-4.4Q6 .2 7.2 1.6q-.3 6.3-1.9 9.3-1.5.7-3 .7z"/><path fill="#260610" d="M4.7 0q-.6 3.7-.5 4.4l-.3 2.3-1.2.9.1 2v.2l-1 1.6h-.1l-1.5-1q-.4-1.3.1-4 .6-3 1.9-5.1Q3 0 4.7 0"/><path fill="none" stroke="#121e0d" stroke-linecap="round" stroke-linejoin="round" stroke-width="__RESOLUTION__" d="m1.8 11.5.5.1q1.5 0 3-.7 1.6-3 1.9-9.4m-5-.3Q.9 3.4.3 6.3t-.1 4.1l1.5 1" vector-effect="non-scaling-stroke"/><path fill="#b38613" d="M2.5 4v-.1l.1-1.6.7.3L3 4.3zM.8 8l.5.3L1 9.8l-.6-.1z"/><path fill="#ffbf1c" d="m3 4.3-.6 1.4-.6-.2.7-1.5zM.8 8.1l.9-1.6.5.5-1 1.3z"/></g><g id="Q"><path fill="#f28c26" d="M.2 5.2 0 4.7V2l.2-2h2.3l.1 3v1l-1 1.5-.4-1.2L.7 6z"/><path fill="#9e5213" d="M2.6 4 2 7.4l-1 .1-.8-.4L0 5.2l.6.8.5-1.7.4 1.2z"/></g><g id="W"><path fill="#f7f0e3" d="m4 0 1.5.2q1.2.6 2.1 2.1.5 2.3.2 2.8-.5.8-.3 2.3 0 1.1-.6 2.1-1 1.3-2.9 1.3h-.3q-1.6 0-2.5-1.2-.7-1-.7-2.1Q.6 5.9.1 5q-.3-.4.1-2.7.9-1.5 2-2.2L3.6 0z"/><path fill="#45392e" fill-opacity=".3" d="M.2 2.4Q1.1.9 2.2.2q4.6.6 3.9 3.6l.5 2.5q1.2 3.6-3 4.5-1.5 0-2.4-1.2-.7-1-.7-2.1Q.6 6 .1 5.2q-.3-.5.1-2.8"/></g><g id="ab" transform="translate(2.4 1.2)"><use xlink:href="#a" width="3.6" height="8.7" transform="translate(-2.4 -1.15)"/><use xlink:href="#b" width="3.6" height="8.7" transform="translate(-2.4 -1.2)"/></g><g id="ad"><path fill="#a17836" d="M3.1 4.6q-.6 1.7-.4 2.9Q.9 7.9.2 7q.2-.8.1-3Q.2 2 1.2.6q1.8-1.4 3 .5z"/><path fill="#f7e9ca" d="m1.6 5.7 1.6.2-.3 1.6-1.5-.2z"/><path fill="#c19142" d="m1.6 5.7-.2 1.6-1.3-.9V4.9z"/><path fill="none" stroke="#8d682f" stroke-linecap="round" stroke-linejoin="round" stroke-width="__RESOLUTION__" d="m2.9 7.5.3-1.6-1.7-.2m-.1 1.6L.1 6.4V4.9" vector-effect="non-scaling-stroke"/><path fill="#f7e9ca" d="M3.8 3.7 3.5 5l-1.9.6.3-2.1z"/><path fill="#c19142" d="m1.9 3.5-.3 2.1L0 4.9l.2-1.2z"/><path fill="none" stroke="#8d682f" stroke-linecap="round" stroke-linejoin="round" stroke-width="__RESOLUTION__" d="m3.5 5 .3-1.3M0 4.8l.2-1" vector-effect="non-scaling-stroke"/><path fill="#f7e9ca" d="m2.4 1.8 1.9-.3-.2 1.8-2 .4z"/><path fill="#c19142" d="M2 3.7.3 2.8l.4-1.5 1.7.5z"/><path fill="none" stroke="#8d682f" stroke-linecap="round" stroke-linejoin="round" stroke-width="__RESOLUTION__" d="m2.4 1.8 1.9-.3-.2 1.8" vector-effect="non-scaling-stroke"/><path fill="#f7e9ca" d="m2.3 2.7 1.8.6-1 1.7-1.8-.7z"/><path fill="#c19142" d="M1.3 4.3.1 2.5 1 1.2l1.3 1.5z"/><path fill="none" stroke="#8d682f" stroke-linecap="round" stroke-linejoin="round" stroke-width="__RESOLUTION__" d="m2.3 2.7 1.8.6-1 1.7-1.8-.7L.1 2.5 1 1.2z" vector-effect="non-scaling-stroke"/></g><g id="f"><path fill="none" stroke="#212121" stroke-linecap="round" stroke-linejoin="round" stroke-opacity=".5" stroke-width="__RESOLUTION__" d="M2.6 0v3q-.3 1.7-.5 4.4M.3 7 .1 4.9l-.1-3L.2.2" vector-effect="non-scaling-stroke"/><path fill="#45392e" fill-opacity=".3" d="M.2.2h.9q-.3 4.4 0 7.4l-.7-.4L0 4.9l-.1-3z"/></g><g id="h"><path fill="#f4dfb5" d="M2.7 4.9"/><path fill="none" stroke="#867259" stroke-linecap="round" stroke-linejoin="round" stroke-width="__RESOLUTION__" d="m2.8 5 .1.2.5-.1.8-.8v0l-1-.9-1 .1q-.3.3-.4.8zm-.1 0-.5.7-.1.1-.4.3-.4.3L0 4.9v-.3l.1-2.1Q.1 1 .7 0m3.5 4.4Q3.7 3 2.9 2.2q.2-.8-.3-1.7m-.8 3.8-.4.6" vector-effect="non-scaling-stroke"/></g><g id="k"><path fill="#5c441d" fill-opacity=".6" d="M1 .8H0V0h5.5v.8z"/><path fill="none" stroke="#c9b9a0" stroke-linecap="round" stroke-linejoin="round" stroke-width="__RESOLUTION__" d="M1.3.8H1" vector-effect="non-scaling-stroke"/></g><g id="n"><path fill="#756659" fill-opacity=".6" d="M4.9 1.4Q6 1.2 7.3.2l1.2.6V2zM1.9 0q.9 1 1.9 1.4l-3.5.3.1-.7.9-.7z"/><path fill="#d1581e" d="m1.3.3.3-.2L2 0z"/><path fill="none" stroke="#212121" stroke-linecap="round" stroke-linejoin="round" stroke-opacity=".5" stroke-width="__RESOLUTION__" d="m7.3.2 1.2.6V3q.2 1.7 0 2.7l-.6 2.2-.4 2.5q-.1 1.1.7 2m-4-9.9q0 3.2.7 3.8M1.3.2l.6-.2M.6 12.4q.9-1.4.8-2.5L.8 7.7Q.5 6 .3 5.7q-.4-.5-.2-2.2V3l.3-2" vector-effect="non-scaling-stroke"/><path fill="#88532d" d="M8 12.7q-.4.5-2.5 1l-2 .1q-2.3-.4-2.7-.9-.3-.1-.1-1.4 1 .5 3.5.5h.4q2.6-.1 3.5-.8.2 1.3 0 1.5"/><path fill="#995323" d="m6.6 10.3 1.4.9-.2 1.6-2-1.6zM.3 2.8V1L1.5.3l.4 2z"/><path fill="#7d3d11" d="m6.6 10.3-.8.9L.4 2.8 2 2.3z"/></g><g id="r"><path fill="none" stroke="#212121" stroke-linecap="round" stroke-linejoin="round" stroke-opacity=".5" stroke-width="__RESOLUTION__" d="M7.8 3.7q.5-.3.4-1.5Q7.8.7 7.8 0 5.9 1.2 5.5 2.6M.5 4Q0 3.6 0 2.4.4.9.4.3q1.8 1 2.3 2.5" vector-effect="non-scaling-stroke"/><path fill="#45392e" fill-opacity=".3" d="M8.2 2.2q0 1.2-.4 1.5-.3.6-.9.3.7-2.6.8-4 0 .7.5 2.2M.5 4Q0 3.6 0 2.4.4.9.4.3q1.8 1 2.3 2.5 0 .2-1.4 1.4-.6.3-.8-.2"/></g><g id="M"><path fill="#ffd919" d="m5 1.2.4.6z"/><path fill="none" stroke="#212121" stroke-linecap="round" stroke-linejoin="round" stroke-opacity=".5" stroke-width="__RESOLUTION__" d="m3.1.1.4.6.9.2.7.3.3.6h0L5 1.2m-5 2Q-.1 2.2.5 0" vector-effect="non-scaling-stroke"/><path fill="#45392e" fill-opacity=".3" d="M2.3 3.6 0 3q-.1-.7.5-3h1.4z"/></g><g id="ap" transform="translate(.65 2.5)"><use xlink:href="#e" width="2.7" height="7.5" transform="translate(-.65 -2.4)"/><use xlink:href="#f" width="2.7" height="7.6" transform="translate(-.65 -2.5)"/></g><g id="ao"><use xlink:href="#g" width="4.2" height="6.3"/><use xlink:href="#h" width="4.2" height="6.3"/></g><g id="an" transform="translate(.65 1)"><use xlink:href="#i" width="5.5" height="2" transform="translate(-.65 -1)"/><use xlink:href="#j" width="3" height="2" transform="translate(.55 -1)"/><use xlink:href="#k" width="5.5" height=".8" transform="translate(-.65 -1)"/></g><g id="al" transform="translate(4.1 14.25)"><use xlink:href="#l" width="5.3" height="1.9" transform="translate(-2.15 -14.25)"/><use xlink:href="#m" width="8.6" height="12.4" transform="translate(-4.1 -13.95)"/><use xlink:href="#n" width="8.6" height="13.8" transform="translate(-4.1 -13.95)"/></g><g id="ak" transform="translate(4.1 11.05)"><use xlink:href="#o" width="7.9" height="10.8" transform="translate(-4 -9.35)"/><use xlink:href="#p" width="7.9" height="10.8" transform="translate(-4 -9.35)"/><use xlink:href="#q" width="8.2" height="4.3" transform="translate(-4.1 -11.05)"/><use xlink:href="#r" width="8.2" height="4.3" transform="translate(-4.1 -11)"/></g><g id="aj" transform="translate(3.85 .9)"><use xlink:href="#s" width="7.8" height="5.2" transform="translate(-3.85 -.9)"/><use xlink:href="#I" width="6.1" height=".5" transform="translate(-2.75 2.9)"/><use xlink:href="#J" width="7.8" height="5.2" transform="translate(-3.85 -.9)"/><use xlink:href="#K" width="4.4" height=".5" transform="translate(-1.6 2.9)"/></g><g id="af"><use xlink:href="#L" width="5.4" height="3.5"/><use xlink:href="#M" width="5.4" height="3.5"/></g><use xlink:href="#N" id="a" width="3.6" height="8.7"/><use xlink:href="#O" id="aa" width="5.5" height="2"/><use xlink:href="#P" id="ac" width="7.2" height="11.6"/><use xlink:href="#Q" id="e" width="2.7" height="7.5"/><use xlink:href="#R" id="g" width="4.2" height="6.3"/><use xlink:href="#S" id="j" width="3" height="2"/><use xlink:href="#T" id="m" width="8.6" height="12.4"/><use xlink:href="#U" id="l" width="5.3" height="1.9"/><use xlink:href="#V" id="q" width="7.8" height="4.3" transform="scale(1.05 .9884)"/><use xlink:href="#W" id="o" width="7.9" height="10.8"/><use xlink:href="#X" id="J" width="7.8" height="5.2"/><use xlink:href="#Y" id="s" width="7.8" height="5.2"/><use xlink:href="#Z" id="L" width="5.4" height="3.5"/><use xlink:href="#aa" id="am" width="5.5" height="2"/><use xlink:href="#ab" id="ai" width="3.6" height="8.7" transform="matrix(-1.03 -.0719 -.0251 1.03 3.9 .25)"/><use xlink:href="#ac" id="ah" width="7.2" height="11.6" transform="matrix(-.9443 -.3635 -.328 .9113 10.55 2.6)"/><use xlink:href="#ad" id="ag" width="4.3" height="7.7"/><path id="N" fill="#f28c26" d="M1.3-3.4q.7 1 .5 3L1 .9.6 2.8.3 4.3H-1l-.6-.2q-.3-2.7-.1-3.4l.6-2q-.3-1.3 1-3 .8-.3 1.4.8" transform="translate(1.8 4.3)"/><path id="R" fill="#f7f0e3" d="m-.5-3 1 .4Q1-1.7.8-1l1.3 2.1-.8.8-.5.1-.1-.1-.1-.1-.5.8H0l-.4.3-.4.3-1.3-1.5v-.3l.1-2q0-1.5.6-2.5z" transform="translate(2.1 3.15)"/><path id="S" fill="#9e5213" d="M-.7-1H.6L1.5.2l-.4.8H-.6L0 .5l-1.6-.6.1-.1z" transform="translate(1.5 1)"/><path id="T" fill="#d1581e" d="M4.3-3.3q.1 1.6-.1 2.7l-.6 2.1-.4 2.6q-.1 1 .7 2 .1.2-7.7 0 .8-1.3.8-2.4l-.5-2.3-.5-2q-.5-.5-.2-2.6l.3-2.1.9-.7.6-.3q.8 1.1 1.8 1.4H.6Q1.7-5 3-6l1.2.7z" transform="translate(4.3 6.25)"/><path id="U" fill="#b5a68d" d="M2.7-.1Q0 2.7-2.6-.3q1.9-.6 5.1 0z" transform="translate(2.65 .6)"/><path id="V" fill="#f7f0e3" d="M3.5 1.7q-.2.5-.8.3L1.4.5q.4-1.4 2.2-2.6L4 0q0 1.2-.5 1.6m-7 .1Q-4 1.4-3.8.2q.4-1.5.4-2.2Q-1.7-.8-1.3.6l-1.3 1.5q-.6.2-.8-.3" transform="translate(3.85 2.15)"/><path id="X" fill="#5d75cf" d="M3.8-2.5q.5 2.2-.5 3.8l-.2.4q-1.7 1-3.3.9-1-.2-2-.8l-.6-.5q-1.7-1.5-.7-3.8z" transform="translate(3.9 2.55)"/><path id="Y" fill="#3e3c73" d="M3.8-2.5q.5 2.2-.5 3.8l-.2.4q-1.7 1-3.3.9-1-.2-2-.8l-.6-.5q-1.7-1.5-.7-3.8z" transform="translate(3.9 2.55)"/><path id="Z" fill="#f7f0e3" d="m1.7-.8.7.3.3.5-.1 1-2.9.8h-.1l-2.3-.4q-.1-1 .5-3.1H.4l.3.7z" transform="translate(2.7 1.75)"/><path id="i" fill="#f28c26" d="M.7-.2zL2 .5l-.7.6h-2v-2h1.9zM4.9-1v2H3.2l.4-.8-1-1.2z" transform="translate(.65 1)"/><path id="p" fill="none" stroke="#212121" stroke-linecap="round" stroke-linejoin="round" stroke-opacity=".5" stroke-width="__RESOLUTION__" d="M3.8-4.3q.3-.4-.2-2.7-.9-1.5-2.2-2.2L0-9.3h-.3l-1.4.2q-1.2.6-2 2.2-.4 2.3 0 2.7.4.8.3 2.3 0 1.2.7 2.2.9 1.1 2.5 1.2H0q1.9 0 2.9-1.3.6-1 .6-2.2-.2-1.5.3-2.3" transform="translate(4 9.35)" vector-effect="non-scaling-stroke"/><path id="K" fill="none" stroke="#212121" stroke-linecap="round" stroke-linejoin="round" stroke-opacity=".5" stroke-width="__RESOLUTION__" d="m-1.6 3 2 .4q1.4 0 2.4-.5" transform="translate(1.6 -2.9)" vector-effect="non-scaling-stroke"/><path id="I" fill="none" stroke="#1f1f1f" stroke-linecap="round" stroke-linejoin="round" stroke-opacity=".3" stroke-width="__RESOLUTION__" d="m-2.7 3 2.7.4 3.4-.5" transform="translate(2.75 -2.9)" vector-effect="non-scaling-stroke"/></defs><g clip-path="url(#ae)"><g transform="translate(15.5 45.5)"><use xlink:href="#af" width="5.4" height="3.5" transform="matrix(-.4013 0 .188 1 -.75 -9.05)"/><use xlink:href="#ag" width="4.3" height="7.7" transform="matrix(.5932 .0752 .2154 .9025 -3.5 -13.9)"/><use xlink:href="#ah" width="10.6" height="13.2" transform="matrix(.6106 .0611 .0949 .7573 -5.6 -18.35)"/><use xlink:href="#af" width="5.4" height="3.5" transform="matrix(1 0 -.202 1 -1.35 1.85)"/><use xlink:href="#ag" width="4.3" height="7.7" transform="matrix(-.974 -.0963 -.3578 .9575 4.1 -4.4)"/><use xlink:href="#ah" width="10.6" height="13.2" transform="matrix(-.9963 -.1257 -.2161 .9749 8.5 -14.85)"/><use xlink:href="#ai" width="3.9" height="9.2" transform="matrix(.6569 -.34 .1495 .6177 2.55 -30.55)"/><use xlink:href="#aj" width="7.8" height="5.2" transform="matrix(.9842 .2989 -.2299 .968 -2.75 -20.1)"/><use xlink:href="#ak" width="8.2" height="12.5" transform="matrix(.9569 .004 -.0692 .9505 -2.5 -40.6)"/><use xlink:href="#al" width="8.6" height="14.1" transform="matrix(.8576 -.1231 .0273 .971 -2.85 -29.8)"/><use xlink:href="#am" width="5.5" height="2" transform="matrix(-.5706 .4986 -.6394 -.7917 1.1 -16.4)"/><use xlink:href="#an" width="5.5" height="2" transform="matrix(-.0939 1.1712 -.8374 -.0888 -1.9 -15)"/><use xlink:href="#am" width="5.5" height="2" transform="matrix(-.5269 .7296 -.6969 -.6239 -2 -8.65)"/><use xlink:href="#an" width="5.5" height="2" transform="matrix(-.7471 .4492 -.2749 -1.1308 -4.55 -5)"/><use xlink:href="#an" width="5.5" height="2" transform="matrix(-.3781 .8222 -1.0109 -.3497 -6.75 -4.3)"/><use xlink:href="#ao" width="4.2" height="6.3" transform="matrix(-.7746 .1368 .0488 .6164 7 -27.75)"/><use xlink:href="#ap" width="2.7" height="7.6" transform="matrix(-.8616 .2646 .0749 .4981 6.85 -27.9)"/><use xlink:href="#ao" width="4.2" height="6.3" transform="matrix(.9656 -.2447 .3549 .9384 -4.75 -16.7)"/><use xlink:href="#ap" width="2.7" height="7.6" transform="matrix(.9952 .1059 -.0255 .8409 -4.05 -21.75)"/><use xlink:href="#ai" width="3.9" height="9.2" transform="matrix(-.8625 .2801 .1787 .8569 -1.7 -28.6)"/></g></g><g clip-path="url(#aq)"><g transform="translate(45.5 45.5)"><use xlink:href="#af" width="5.4" height="3.5" transform="matrix(-.5012 -.0092 .1463 1.0037 -.45 -8)"/><use xlink:href="#ag" width="4.3" height="7.7" transform="matrix(.6532 .0543 .2141 .925 -3.5 -13.2)"/><use xlink:href="#ah" width="10.6" height="13.2" transform="matrix(.6733 .0472 .1058 .7991 -6 -18.65)"/><use xlink:href="#af" width="5.4" height="3.5" transform="matrix(.9868 .1568 -.3193 .9641 -.7 -.25)"/><use xlink:href="#ag" width="4.3" height="7.7" transform="matrix(-.9737 -.1073 -.3197 .9256 4.4 -6.1)"/><use xlink:href="#ah" width="10.6" height="13.2" transform="matrix(-1.0061 -.0576 -.1429 .9505 8.25 -16.3)"/><use xlink:href="#ai" width="3.9" height="9.2" transform="matrix(.6888 -.383 .1669 .6668 2.6 -31)"/><use xlink:href="#aj" width="7.8" height="5.2" transform="matrix(.9964 .2495 -.1906 .9768 -2.95 -20.4)"/><use xlink:href="#ak" width="8.2" height="12.5" transform="matrix(.9565 .0049 -.0626 .951 -2.7 -41.25)"/><use xlink:href="#al" width="8.6" height="14.1" transform="matrix(.8821 -.1047 .0217 .9759 -3.05 -30.6)"/><use xlink:href="#am" width="5.5" height="2" transform="matrix(-.3729 .6574 -.8625 -.5351 1.3 -17.4)"/><use xlink:href="#an" width="5.5" height="2" transform="matrix(-.1841 1.159 -.8269 -.1536 -.75 -15.25)"/><use xlink:href="#am" width="5.5" height="2" transform="matrix(-.6048 .6633 -.6197 -.6975 -1.35 -8.9)"/><use xlink:href="#an" width="5.5" height="2" transform="matrix(-.8511 .0858 .179 -1.1567 -4.45 -5.55)"/><use xlink:href="#an" width="5.5" height="2" transform="matrix(-.6803 .5574 -.7619 -.7862 -6.25 -5.9)"/><use xlink:href="#ao" width="4.2" height="6.3" transform="matrix(-.7823 .2099 .09 .6157 7.4 -27.9)"/><use xlink:href="#ap" width="2.7" height="7.6" transform="matrix(-.8512 .3279 .1386 .4458 6.9 -27.95)"/><use xlink:href="#ao" width="4.2" height="6.3" transform="matrix(.95 -.2514 .3394 .9311 -5.5 -17.55)"/><use xlink:href="#ap" width="2.7" height="7.6" transform="matrix(.9925 .1007 -.0461 .8689 -4.65 -22.5)"/><use xlink:href="#ai" width="3.9" height="9.2" transform="matrix(-.894 .2158 .1253 .8882 -1.85 -29.4)"/></g></g><g clip-path="url(#ar)"><g transform="translate(75.5 45.5)"><use xlink:href="#af" width="5.4" height="3.5" transform="matrix(-.6008 -.024 .1064 1.0061 -.1 -6.8)"/><use xlink:href="#ag" width="4.3" height="7.7" transform="matrix(.7127 .0281 .2147 .9477 -3.6 -12.6)"/><use xlink:href="#ah" width="10.6" height="13.2" transform="matrix(.7358 .0293 .1188 .8409 -6.35 -18.9)"/><use xlink:href="#af" width="5.4" height="3.5" transform="matrix(.9493 .3097 -.4361 .9129 -.05 -2.45)"/><use xlink:href="#ag" width="4.3" height="7.7" transform="matrix(-.9734 -.1203 -.2862 .8927 4.75 -7.75)"/><use xlink:href="#ah" width="10.6" height="13.2" transform="matrix(-1.0117 .0054 -.077 .9213 8.05 -17.65)"/><use xlink:href="#ai" width="3.9" height="9.2" transform="matrix(.7192 -.4292 .1861 .7159 2.65 -31.55)"/><use xlink:href="#aj" width="7.8" height="5.2" transform="matrix(1.0067 .2015 -.1523 .9844 -3.15 -20.7)"/><use xlink:href="#ak" width="8.2" height="12.5" transform="matrix(.9561 .0087 -.0549 .9518 -2.8 -41.9)"/><use xlink:href="#al" width="8.6" height="14.1" transform="matrix(.9068 -.0841 .0174 .9807 -3.2 -31.45)"/><use xlink:href="#am" width="5.5" height="2" transform="matrix(-.1347 .7435 -.9905 -.2199 1.3 -18.4)"/><use xlink:href="#an" width="5.5" height="2" transform="matrix(-.2743 1.14 -.8115 -.2179 .55 -15.4)"/><use xlink:href="#am" width="5.5" height="2" transform="matrix(-.6757 .5898 -.5359 -.7628 -.6 -9.15)"/><use xlink:href="#an" width="5.5" height="2" transform="matrix(-.7915 -.2776 .6124 -1.0048 -4.4 -6.2)"/><use xlink:href="#an" width="5.5" height="2" transform="matrix(-.834 .1936 -.3293 -1.0731 -6.05 -7.65)"/><use xlink:href="#ao" width="4.2" height="6.3" transform="matrix(-.7835 .2856 .1335 .6119 7.85 -28.05)"/><use xlink:href="#ap" width="2.7" height="7.6" transform="matrix(-.8353 .3946 .1876 .3873 7 -27.85)"/><use xlink:href="#ao" width="4.2" height="6.3" transform="matrix(.9334 -.2635 .3238 .9249 -6.25 -18.15)"/><use xlink:href="#ap" width="2.7" height="7.6" transform="matrix(.9901 .0964 -.0708 .8961 -5.3 -23.15)"/><use xlink:href="#ai" width="3.9" height="9.2" transform="matrix(-.921 .1511 .0689 .9166 -2 -30)"/></g></g><g clip-path="url(#as)"><g transform="translate(105.5 45.5)"><use xlink:href="#af" width="5.4" height="3.5" transform="matrix(-.7 -.0431 .0666 1.007 .2 -5.65)"/><use xlink:href="#ag" width="4.3" height="7.7" transform="matrix(.771 -.0007 .2119 .9712 -3.6 -12)"/><use xlink:href="#ah" width="10.6" height="13.2" transform="matrix(.7979 .0076 .1326 .8826 -6.7 -19.1)"/><use xlink:href="#af" width="5.4" height="3.5" transform="matrix(.8867 .4578 -.5425 .8495 .65 -4.55)"/><use xlink:href="#ag" width="4.3" height="7.7" transform="matrix(-.9729 -.1332 -.2516 .8596 5.1 -9.4)"/><use xlink:href="#ah" width="10.6" height="13.2" transform="matrix(-1.0124 .0755 -.0157 .8877 7.8 -19)"/><use xlink:href="#ai" width="3.9" height="9.2" transform="matrix(.7483 -.4787 .2092 .7645 2.65 -32)"/><use xlink:href="#aj" width="7.8" height="5.2" transform="matrix(1.0142 .1564 -.1137 .9906 -3.3 -20.95)"/><use xlink:href="#ak" width="8.2" height="12.5" transform="matrix(.9557 .0126 -.0504 .9524 -2.95 -42.6)"/><use xlink:href="#al" width="8.6" height="14.1" transform="matrix(.9307 -.0654 .0131 .9856 -3.35 -32.3)"/><use xlink:href="#am" width="5.5" height="2" transform="matrix(.118 .7459 -1.0071 .119 1.15 -19.4)"/><use xlink:href="#an" width="5.5" height="2" transform="matrix(-.364 1.1147 -.7918 -.2816 1.75 -15.55)"/><use xlink:href="#am" width="5.5" height="2" transform="matrix(-.7387 .5099 -.4465 -.8191 .1 -9.45)"/><use xlink:href="#an" width="5.5" height="2" transform="matrix(-.5852 -.5796 .9601 -.6957 -4.45 -7.15)"/><use xlink:href="#an" width="5.5" height="2" transform="matrix(-.812 -.1846 .194 -1.134 -6.05 -9.6)"/><use xlink:href="#ao" width="4.2" height="6.3" transform="matrix(-.7783 .3634 .1783 .6052 8.25 -28.3)"/><use xlink:href="#ap" width="2.7" height="7.6" transform="matrix(-.8165 .4593 .2244 .3245 7.15 -27.85)"/><use xlink:href="#ao" width="4.2" height="6.3" transform="matrix(.9176 -.2722 .3084 .9185 -7.1 -18.9)"/><use xlink:href="#ap" width="2.7" height="7.6" transform="matrix(.9873 .0955 -.0939 .923 -6 -23.85)"/><use xlink:href="#ai" width="3.9" height="9.2" transform="matrix(-.9433 .0836 .0125 .9414 -2.15 -30.7)"/></g></g><g clip-path="url(#at)"><g transform="translate(135.5 45.5)"><use xlink:href="#af" width="5.4" height="3.5" transform="matrix(-.7985 -.0665 .0269 1.0062 .5 -4.55)"/><use xlink:href="#ag" width="4.3" height="7.7" transform="matrix(.8278 -.0367 .212 .994 -3.65 -11.25)"/><use xlink:href="#ah" width="10.6" height="13.2" transform="matrix(.8592 -.015 .1472 .924 -7.1 -19.3)"/><use xlink:href="#af" width="5.4" height="3.5" transform="matrix(.8032 .5913 -.64 .7738 1.4 -6.6)"/><use xlink:href="#ag" width="4.3" height="7.7" transform="matrix(-.9723 -.1462 -.2215 .8247 5.35 -11.1)"/><use xlink:href="#ah" width="10.6" height="13.2" transform="matrix(-1.0087 .1424 .0409 .8498 7.5 -20.35)"/><use xlink:href="#ai" width="3.9" height="9.2" transform="matrix(.8024 -.3929 .1833 .823 2.85 -32.1)"/><use xlink:href="#aj" width="7.8" height="5.2" transform="matrix(1.02 .1077 -.0749 .9953 -3.45 -21.25)"/><use xlink:href="#ak" width="8.2" height="12.5" transform="matrix(.9553 .0133 -.0458 .9529 -3.1 -43.25)"/><use xlink:href="#al" width="8.6" height="14.1" transform="matrix(.9544 -.0426 .0088 .9904 -3.55 -33.1)"/><use xlink:href="#am" width="5.5" height="2" transform="matrix(.1892 .7305 -.9904 .2154 1 -20.15)"/><use xlink:href="#an" width="5.5" height="2" transform="matrix(-.1963 1.1712 -.8182 -.1893 2.15 -16.4)"/><use xlink:href="#am" width="5.5" height="2" transform="matrix(-.6462 .6218 -.5722 -.7358 1.4 -9.95)"/><use xlink:href="#an" width="5.5" height="2" transform="matrix(-.6547 -.4992 .8271 -.8388 -2.8 -6.45)"/><use xlink:href="#an" width="5.5" height="2" transform="matrix(-.7172 -.3984 .4724 -1.0704 -5.05 -8.55)"/><use xlink:href="#ao" width="4.2" height="6.3" transform="matrix(-.8737 .2312 .1264 .6774 8.65 -26.25)"/><use xlink:href="#ap" width="2.7" height="7.6" transform="matrix(-.849 .4198 .2494 .4534 7.3 -26.85)"/><use xlink:href="#ao" width="4.2" height="6.3" transform="matrix(.9018 -.2805 .2932 .9118 -7.85 -19.65)"/><use xlink:href="#ap" width="2.7" height="7.6" transform="matrix(.9848 .0912 -.1214 .9488 -6.6 -24.65)"/><use xlink:href="#ai" width="3.9" height="9.2" transform="matrix(-.9606 .0136 -.0468 .9623 -2.25 -31.45)"/></g></g><g clip-path="url(#au)"><g transform="translate(165.5 45.5)"><use xlink:href="#af" width="5.4" height="3.5" transform="matrix(-.8966 -.0912 -.0093 1.0039 .8 -3.45)"/><use xlink:href="#ag" width="4.3" height="7.7" transform="matrix(.8828 -.0778 .2118 1.0168 -3.7 -10.5)"/><use xlink:href="#ah" width="10.6" height="13.2" transform="matrix(.9198 -.0409 .1624 .9653 -7.45 -19.5)"/><use xlink:href="#af" width="5.4" height="3.5" transform="matrix(.6976 .7124 -.7273 .6871 2.25 -8.65)"/><use xlink:href="#ag" width="4.3" height="7.7" transform="matrix(-.9715 -.1591 -.1905 .7894 5.65 -12.85)"/><use xlink:href="#ah" width="10.6" height="13.2" transform="matrix(-1.0006 .2093 .0925 .8085 7.35 -21.7)"/><use xlink:href="#ai" width="3.9" height="9.2" transform="matrix(.8475 -.3054 .1564 .8811 3.1 -32.2)"/><use xlink:href="#aj" width="7.8" height="5.2" transform="matrix(1.0235 .0588 -.0359 .9984 -3.65 -21.5)"/><use xlink:href="#ak" width="8.2" height="12.5" transform="matrix(.9548 .0172 -.0381 .9536 -3.25 -43.85)"/><use xlink:href="#al" width="8.6" height="14.1" transform="matrix(.9774 -.0218 .0044 .9952 -3.7 -33.9)"/><use xlink:href="#am" width="5.5" height="2" transform="matrix(.2586 .7088 -.965 .3097 1 -20.9)"/><use xlink:href="#an" width="5.5" height="2" transform="matrix(-.017 1.2035 -.8347 -.0952 2.4 -17.25)"/><use xlink:href="#am" width="5.5" height="2" transform="matrix(-.5352 .7204 -.6862 -.6317 2.7 -10.6)"/><use xlink:href="#an" width="5.5" height="2" transform="matrix(-.7153 -.4099 .6703 -.962 -1.1 -5.8)"/><use xlink:href="#an" width="5.5" height="2" transform="matrix(-.5705 -.5737 .7343 -.9371 -4.2 -7.6)"/><use xlink:href="#ao" width="4.2" height="6.3" transform="matrix(-.9464 .0794 .0654 .7451 8.85 -24.2)"/><use xlink:href="#ap" width="2.7" height="7.6" transform="matrix(-.8805 .3792 .2489 .591 7.45 -25.85)"/><use xlink:href="#ao" width="4.2" height="6.3" transform="matrix(.8859 -.2885 .2811 .904 -8.55 -20.25)"/><use xlink:href="#ap" width="2.7" height="7.6" transform="matrix(.9824 .0871 -.1502 .9738 -7.3 -25.25)"/><use xlink:href="#ai" width="3.9" height="9.2" transform="matrix(-.9725 -.0553 -.1118 .9789 -2.5 -32.1)"/></g></g><g clip-path="url(#av)"><g transform="translate(195.5 45.5)"><use xlink:href="#af" width="5.4" height="3.5" transform="matrix(-.9937 -.125 -.0503 1 1.2 -2.3)"/><use xlink:href="#ag" width="4.3" height="7.7" transform="matrix(.9358 -.125 .2111 1.0404 -3.6 -9.9)"/><use xlink:href="#ah" width="10.6" height="13.2" transform="matrix(.9794 -.0748 .181 1.0065 -7.85 -19.7)"/><use xlink:href="#af" width="5.4" height="3.5" transform="matrix(.5779 .8142 -.8044 .5917 3 -10.7)"/><use xlink:href="#ag" width="4.3" height="7.7" transform="matrix(-.9706 -.1746 -.1652 .7529 6 -14.5)"/><use xlink:href="#ah" width="10.6" height="13.2" transform="matrix(-.988 .2795 .1404 .7644 7 -23.05)"/><use xlink:href="#aj" width="7.8" height="5.2" transform="matrix(1.0247 .0123 0 1 -3.85 -21.85)"/><use xlink:href="#ak" width="8.2" height="12.5" transform="matrix(.9544 .0217 -.0342 .9541 -3.4 -44.5)"/><use xlink:href="#al" width="8.6" height="14.1" transform="translate(-3.9 -34.7)"/><use xlink:href="#am" width="5.5" height="2" transform="matrix(.3269 .681 -.931 .4032 .9 -21.6)"/><use xlink:href="#an" width="5.5" height="2" transform="matrix(.1608 1.2086 -.8405 -.0002 2.75 -18.1)"/><use xlink:href="#am" width="5.5" height="2" transform="matrix(-.4127 .7993 -.7814 -.5134 3.9 -11.15)"/><use xlink:href="#an" width="5.5" height="2" transform="matrix(-.7644 -.3144 .502 -1.0553 .6 -5.3)"/><use xlink:href="#an" width="5.5" height="2" transform="matrix(-.3818 -.7022 .959 -.7434 -3.25 -6.7)"/><use xlink:href="#ao" width="4.2" height="6.3" transform="matrix(-.9916 -.0888 -.0085 .8068 9.15 -22.2)"/><use xlink:href="#ap" width="2.7" height="7.6" transform="matrix(-.911 .3369 .2256 .7317 7.7 -24.9)"/><use xlink:href="#ai" width="3.9" height="9.2" transform="matrix(.9847 -.1251 .0408 1.0085 3.45 -32.3)"/><use xlink:href="#ao" width="4.2" height="6.3" transform="matrix(.8705 -.2971 .2675 .8974 -9.45 -21)"/><use xlink:href="#ap" width="2.7" height="7.6" transform="matrix(.9797 .0872 -.18 .9987 -7.95 -25.95)"/><use xlink:href="#ai" width="3.9" height="9.2" transform="matrix(-.9793 -.1291 -.1787 .9917 -2.65 -32.75)"/></g></g><g clip-path="url(#aw)"><g transform="translate(225.5 45.5)"><use xlink:href="#af" width="5.4" height="3.5" transform="matrix(-.9975 -.1101 -.0227 .9999 1.15 -1.65)"/><use xlink:href="#ag" width="4.3" height="7.7" transform="matrix(.9406 -.104 .2211 1.0158 -3.7 -9.05)"/><use xlink:href="#ah" width="10.6" height="13.2" transform="matrix(.9834 -.0565 .1761 .9933 -8 -19.05)"/><use xlink:href="#af" width="5.4" height="3.5" transform="matrix(.4865 .799 -.8406 .4863 3.3 -10.95)"/><use xlink:href="#ag" width="4.3" height="7.7" transform="matrix(-.9822 -.1261 -.1508 .737 5.9 -14.9)"/><use xlink:href="#ah" width="10.6" height="13.2" transform="matrix(-.9398 .4544 .2252 .7124 6.25 -23.65)"/><use xlink:href="#aj" width="7.8" height="5.2" transform="matrix(1.0235 -.0321 .04 .9987 -4.15 -21.15)"/><use xlink:href="#ak" width="8.2" height="12.5" transform="matrix(.9552 .0048 -.0293 .9539 -3.55 -43.8)"/><use xlink:href="#al" width="8.6" height="14.1" transform="matrix(.9872 .0394 -.0092 1.0142 -3.95 -34.35)"/><use xlink:href="#am" width="5.5" height="2" transform="matrix(.3258 .6525 -.9286 .3957 .6 -20.7)"/><use xlink:href="#an" width="5.5" height="2" transform="matrix(.4934 1.0434 -.7989 .2562 2 -17.65)"/><use xlink:href="#am" width="5.5" height="2" transform="matrix(-.1881 .8613 -.9045 -.299 4 -12.1)"/><use xlink:href="#an" width="5.5" height="2" transform="matrix(-.8285 .0291 .0313 -1.1647 2.25 -6.5)"/><use xlink:href="#an" width="5.5" height="2" transform="matrix(-.6466 -.5022 .5742 -1.0337 -.8 -6.55)"/><use xlink:href="#ao" width="4.2" height="6.3" transform="matrix(-.9892 -.1093 -.0514 .8344 8.55 -21.35)"/><use xlink:href="#ap" width="2.7" height="7.6" transform="matrix(-.9267 .3021 .198 .7507 7.15 -24.3)"/><use xlink:href="#ai" width="3.9" height="9.2" transform="matrix(.9778 -.0565 .0009 .9892 3.2 -31.65)"/><use xlink:href="#ao" width="4.2" height="6.3" transform="matrix(.8751 -.1318 .1147 .8957 -9.1 -23.05)"/><use xlink:href="#ap" width="2.7" height="7.6" transform="matrix(.9453 .1587 -.2444 .893 -7.4 -26.95)"/><use xlink:href="#ai" width="3.9" height="9.2" transform="matrix(-.9793 -.1291 -.1787 .9917 -2.65 -32.75)"/></g></g><g clip-path="url(#ax)"><g transform="translate(255.5 45.5)"><use xlink:href="#af" width="5.4" height="3.5" transform="matrix(-1.0012 -.0973 -.0002 .9992 1.15 -.95)"/><use xlink:href="#ag" width="4.3" height="7.7" transform="matrix(.9448 -.0872 .23 .992 -3.8 -8.25)"/><use xlink:href="#ah" width="10.6" height="13.2" transform="matrix(.9871 -.0397 .1736 .9802 -8.05 -18.3)"/><use xlink:href="#af" width="5.4" height="3.5" transform="matrix(.4013 .7765 -.8663 .378 3.7 -11.15)"/><use xlink:href="#ag" width="4.3" height="7.7" transform="matrix(-.9915 -.0826 -.1404 .7206 5.9 -15.35)"/><use xlink:href="#ah" width="10.6" height="13.2" transform="matrix(-.8609 .6219 .301 .6515 5.35 -24.3)"/><use xlink:href="#ai" width="3.9" height="9.2" transform="matrix(-.9038 -.1973 -.1234 .9054 -2.75 -32.4)"/><use xlink:href="#aj" width="7.8" height="5.2" transform="matrix(1.0201 -.0805 .0831 .9956 -4.45 -20.5)"/><use xlink:href="#ak" width="8.2" height="12.5" transform="matrix(.9557 -.0052 -.0252 .9536 -3.7 -43.25)"/><use xlink:href="#al" width="8.6" height="14.1" transform="matrix(.9726 .0809 -.0187 1.0282 -3.95 -34.05)"/><use xlink:href="#am" width="5.5" height="2" transform="matrix(.3232 .6256 -.9267 .3902 .25 -19.95)"/><use xlink:href="#an" width="5.5" height="2" transform="matrix(.7453 .796 -.6813 .4876 1.25 -17.2)"/><use xlink:href="#am" width="5.5" height="2" transform="matrix(.0343 .8642 -.9704 -.0557 4.05 -13.05)"/><use xlink:href="#an" width="5.5" height="2" transform="matrix(-.7444 .3686 -.4359 -1.0754 3.7 -7.85)"/><use xlink:href="#an" width="5.5" height="2" transform="matrix(-.8149 -.2039 .1161 -1.1486 1.6 -6.55)"/><use xlink:href="#ao" width="4.2" height="6.3" transform="matrix(-.9859 -.1344 -.0983 .8595 7.9 -20.5)"/><use xlink:href="#ap" width="2.7" height="7.6" transform="matrix(-.942 .267 .1681 .7696 6.8 -23.9)"/><use xlink:href="#ai" width="3.9" height="9.2" transform="matrix(.9666 .0043 -.0303 .9684 3.05 -31.2)"/><use xlink:href="#ao" width="4.2" height="6.3" transform="matrix(.8506 .019 -.0267 .8699 -8.55 -25)"/><use xlink:href="#ap" width="2.7" height="7.6" transform="matrix(.9057 .2265 -.294 .7842 -7 -27.75)"/></g></g><g clip-path="url(#ay)"><g transform="translate(285.5 45.5)"><use xlink:href="#af" width="5.4" height="3.5" transform="matrix(-1.0048 -.0844 .0224 .9979 1.2 -.35)"/><use xlink:href="#ag" width="4.3" height="7.7" transform="matrix(.949 -.0673 .2415 .9674 -3.8 -7.45)"/><use xlink:href="#ah" width="10.6" height="13.2" transform="matrix(.9906 -.0227 .1712 .9672 -8.25 -17.65)"/><use xlink:href="#af" width="5.4" height="3.5" transform="matrix(.3218 .7462 -.8778 .2732 3.95 -11.3)"/><use xlink:href="#ag" width="4.3" height="7.7" transform="matrix(-.9989 -.0353 -.128 .7045 5.75 -15.65)"/><use xlink:href="#ah" width="10.6" height="13.2" transform="matrix(-.7529 .7772 .365 .5847 4.3 -24.75)"/><use xlink:href="#ai" width="3.9" height="9.2" transform="matrix(-.8438 -.2425 -.1329 .8333 -2.65 -32.2)"/><use xlink:href="#aj" width="7.8" height="5.2" transform="matrix(1.0148 -.1254 .1228 .991 -4.7 -19.75)"/><use xlink:href="#ak" width="8.2" height="12.5" transform="matrix(.9559 -.0215 -.021 .9534 -3.85 -42.55)"/><use xlink:href="#al" width="8.6" height="14.1" transform="matrix(.9567 .1182 -.0319 1.0421 -3.95 -33.65)"/><use xlink:href="#am" width="5.5" height="2" transform="matrix(.3198 .599 -.9234 .3879 -.15 -19.2)"/><use xlink:href="#an" width="5.5" height="2" transform="matrix(.8977 .4991 -.4989 .6721 .5 -16.55)"/><use xlink:href="#am" width="5.5" height="2" transform="matrix(.2484 .8096 -.9701 .1979 4 -14)"/><use xlink:href="#an" width="5.5" height="2" transform="matrix(-.5254 .6465 -.8304 -.8048 5.05 -9.4)"/><use xlink:href="#an" width="5.5" height="2" transform="matrix(-.8491 .1422 -.3344 -1.0737 4.15 -6.8)"/><use xlink:href="#ao" width="4.2" height="6.3" transform="matrix(-.9826 -.1563 -.148 .8819 7.3 -19.6)"/><use xlink:href="#ap" width="2.7" height="7.6" transform="matrix(-.9552 .2343 .1394 .7869 6.2 -23.35)"/><use xlink:href="#ai" width="3.9" height="9.2" transform="matrix(.9511 .0667 -.0663 .9462 2.7 -30.65)"/><use xlink:href="#ao" width="4.2" height="6.3" transform="matrix(.8 .1625 -.1592 .8221 -8.2 -27.05)"/><use xlink:href="#ap" width="2.7" height="7.6" transform="matrix(.8621 .2905 -.3265 .6755 -6.65 -28.7)"/></g></g><g clip-path="url(#az)"><g transform="translate(315.5 45.5)"><use xlink:href="#af" width="5.4" height="3.5" transform="matrix(-1.0082 -.0715 .0481 .9959 1.15 .25)"/><use xlink:href="#ag" width="4.3" height="7.7" transform="matrix(.9526 -.0503 .2492 .9434 -3.95 -6.6)"/><use xlink:href="#ah" width="10.6" height="13.2" transform="matrix(.9938 -.0088 .1689 .9541 -8.35 -16.95)"/><use xlink:href="#af" width="5.4" height="3.5" transform="matrix(.2486 .7089 -.8771 .1706 4.25 -11.55)"/><use xlink:href="#ag" width="4.3" height="7.7" transform="matrix(-1.0041 .0093 -.1183 .6878 5.7 -16)"/><use xlink:href="#ah" width="10.6" height="13.2" transform="matrix(-.8161 .6813 .3293 .6372 4.6 -24.25)"/><use xlink:href="#ai" width="3.9" height="9.2" transform="matrix(-.7824 -.2816 -.1418 .7611 -2.6 -32)"/><use xlink:href="#aj" width="7.8" height="5.2" transform="matrix(1.0069 -.1733 .1655 .9843 -5 -19.1)"/><use xlink:href="#ak" width="8.2" height="12.5" transform="matrix(.9559 -.0378 -.0168 .9532 -4.05 -42)"/><use xlink:href="#al" width="8.6" height="14.1" transform="matrix(.9388 .1574 -.0419 1.056 -4 -33.3)"/><use xlink:href="#am" width="5.5" height="2" transform="matrix(.3177 .5715 -.9214 .3824 -.35 -18.3)"/><use xlink:href="#an" width="5.5" height="2" transform="matrix(.9458 .1887 -.2693 .7923 -.25 -15.9)"/><use xlink:href="#am" width="5.5" height="2" transform="matrix(.4377 .7042 -.9017 .4505 4 -14.9)"/><use xlink:href="#an" width="5.5" height="2" transform="matrix(-.2103 .8096 -1.0835 -.3961 6.2 -10.95)"/><use xlink:href="#an" width="5.5" height="2" transform="matrix(-.7379 .4809 -.7123 -.8311 6.25 -7.25)"/><use xlink:href="#ao" width="4.2" height="6.3" transform="matrix(-.9788 -.1781 -.2003 .9014 6.7 -18.7)"/><use xlink:href="#ap" width="2.7" height="7.6" transform="matrix(-.9679 .1979 .1097 .803 5.75 -22.9)"/><use xlink:href="#ai" width="3.9" height="9.2" transform="matrix(.9316 .127 -.0976 .9231 2.55 -30.1)"/><use xlink:href="#ao" width="4.2" height="6.3" transform="matrix(.7384 .1411 -.1165 .755 -7.6 -27.3)"/><use xlink:href="#ap" width="2.7" height="7.6" transform="matrix(.8576 .279 -.2157 .6423 -6.6 -28.65)"/></g></g><g clip-path="url(#aA)"><g transform="translate(345.5 45.5)"><use xlink:href="#af" width="5.4" height="3.5" transform="matrix(-1.0115 -.0584 .0705 .9935 1.05 .95)"/><use xlink:href="#ag" width="4.3" height="7.7" transform="matrix(.956 -.03 .2563 .9195 -4 -5.8)"/><use xlink:href="#ah" width="10.6" height="13.2" transform="matrix(.9967 .0051 .1665 .9411 -8.45 -16.2)"/><use xlink:href="#af" width="5.4" height="3.5" transform="matrix(.1843 .6654 -.8651 .0708 4.55 -11.8)"/><use xlink:href="#ag" width="4.3" height="7.7" transform="matrix(-1.0069 .0584 -.1077 .6716 5.5 -16.4)"/><use xlink:href="#ah" width="10.6" height="13.2" transform="matrix(-.8703 .5829 .29 .6886 4.8 -23.9)"/><use xlink:href="#ai" width="3.9" height="9.2" transform="matrix(-.7197 -.3138 -.147 .6891 -2.5 -31.75)"/><use xlink:href="#aj" width="7.8" height="5.2" transform="matrix(.9976 -.2175 .2079 .9757 -5.3 -18.45)"/><use xlink:href="#ak" width="8.2" height="12.5" transform="matrix(.9557 -.0509 -.0126 .9529 -4.2 -41.3)"/><use xlink:href="#al" width="8.6" height="14.1" transform="matrix(.9201 .1923 -.0523 1.0697 -4 -33)"/><use xlink:href="#am" width="5.5" height="2" transform="matrix(.3143 .5456 -.9203 .378 -.65 -17.5)"/><use xlink:href="#an" width="5.5" height="2" transform="matrix(.8959 -.1007 -.0141 .8369 -.85 -15.15)"/><use xlink:href="#am" width="5.5" height="2" transform="matrix(.5927 .5566 -.7698 .6812 3.85 -15.75)"/><use xlink:href="#an" width="5.5" height="2" transform="matrix(.1418 .8277 -1.1493 .0714 7.1 -12.55)"/><use xlink:href="#an" width="5.5" height="2" transform="matrix(-.4942 .7555 -.9572 -.4718 8.25 -7.8)"/><use xlink:href="#ao" width="4.2" height="6.3" transform="matrix(-.9743 -.2037 -.2558 .9184 6.05 -17.9)"/><use xlink:href="#ap" width="2.7" height="7.6" transform="matrix(-.9792 .1645 .0791 .8183 5.3 -22.35)"/><use xlink:href="#ai" width="3.9" height="9.2" transform="matrix(.9089 .1858 -.1304 .899 2.3 -29.55)"/><use xlink:href="#ao" width="4.2" height="6.3" transform="matrix(.6761 .1254 -.0788 .6866 -7.1 -27.55)"/><use xlink:href="#ap" width="2.7" height="7.6" transform="matrix(.8544 .2663 -.121 .5935 -6.45 -28.65)"/></g></g><g clip-path="url(#aB)"><g transform="translate(375.5 45.5)"><use xlink:href="#af" width="5.4" height="3.5" transform="matrix(.4195 .4892 -.7697 .4278 2.85 -10.2)"/><use xlink:href="#ag" width="4.3" height="7.7" transform="matrix(-.931 .0331 -.1444 .6775 4.75 -14.75)"/><use xlink:href="#ah" width="10.6" height="13.2" transform="matrix(-.9445 .3747 .1954 .7827 5.25 -22.95)"/><use xlink:href="#af" width="5.4" height="3.5" transform="matrix(-1.0146 -.0484 .0983 .9903 1.05 1.65)"/><use xlink:href="#ag" width="4.3" height="7.7" transform="matrix(.959 -.0137 .2668 .8952 -4.1 -4.95)"/><use xlink:href="#ah" width="10.6" height="13.2" transform="matrix(.9993 .0241 .1651 .9283 -8.5 -15.6)"/><use xlink:href="#ai" width="3.9" height="9.2" transform="matrix(-.6569 -.34 -.1495 .6177 -2.45 -31.55)"/><use xlink:href="#aj" width="7.8" height="5.2" transform="matrix(.9861 -.2649 .2496 .9662 -5.5 -17.75)"/><use xlink:href="#ak" width="8.2" height="12.5" transform="matrix(.9553 -.0684 -.0089 .9527 -4.3 -40.75)"/><use xlink:href="#al" width="8.6" height="14.1" transform="matrix(.8998 .2296 -.0667 1.0834 -3.95 -32.6)"/><use xlink:href="#am" width="5.5" height="2" transform="matrix(.2381 .5656 -.9592 .2621 -.4 -17.85)"/><use xlink:href="#an" width="5.5" height="2" transform="matrix(.8997 .1717 -.2624 .7941 -.65 -15.75)"/><use xlink:href="#am" width="5.5" height="2" transform="matrix(.6363 .5405 -.7465 .6747 3.35 -15.2)"/><use xlink:href="#an" width="5.5" height="2" transform="matrix(.3166 .7707 -1.1422 .2644 7 -12.45)"/><use xlink:href="#an" width="5.5" height="2" transform="matrix(.0313 .8761 -1.0866 .1826 8.65 -8.9)"/><use xlink:href="#ao" width="4.2" height="6.3" transform="matrix(-.9656 -.2447 -.3549 .9384 5.05 -16.5)"/><use xlink:href="#ap" width="2.7" height="7.6" transform="matrix(-.9952 .1059 .0255 .8409 4.55 -21.45)"/><use xlink:href="#ai" width="3.9" height="9.2" transform="matrix(.8625 .2801 -.1787 .8569 1.9 -28.6)"/><use xlink:href="#ao" width="4.2" height="6.3" transform="matrix(.6143 .1085 -.0488 .6164 -6.45 -27.75)"/><use xlink:href="#ap" width="2.7" height="7.6" transform="matrix(.8507 .2572 -.0416 .5325 -6.35 -28.6)"/></g></g><g clip-path="url(#aC)"><g transform="translate(405.5 45.5)"><use xlink:href="#af" width="5.4" height="3.5" transform="matrix(.5173 .3306 -.6245 .6325 1.8 -9.1)"/><use xlink:href="#ag" width="4.3" height="7.7" transform="matrix(-.8801 .0194 -.1699 .6802 4.3 -13.55)"/><use xlink:href="#ah" width="10.6" height="13.2" transform="matrix(-.9407 .1533 .066 .793 5.95 -20.85)"/><use xlink:href="#af" width="5.4" height="3.5" transform="matrix(-.9907 .2065 .226 .9731 .3 -.65)"/><use xlink:href="#ag" width="4.3" height="7.7" transform="matrix(.9243 -.0363 .2635 .8736 -4.5 -6.4)"/><use xlink:href="#ah" width="10.6" height="13.2" transform="matrix(.9892 .1001 .0686 .9126 -8 -17.05)"/><use xlink:href="#ai" width="3.9" height="9.2" transform="matrix(-.6664 -.3705 -.1774 .6602 -2.35 -31.8)"/><use xlink:href="#aj" width="7.8" height="5.2" transform="matrix(1.0047 -.1781 .1657 .9833 -5.15 -18.45)"/><use xlink:href="#ak" width="8.2" height="12.5" transform="matrix(.9557 -.0509 -.0126 .9529 -4.25 -41.3)"/><use xlink:href="#al" width="8.6" height="14.1" transform="matrix(.9201 .1922 -.0522 1.0697 -4 -32.95)"/><use xlink:href="#am" width="5.5" height="2" transform="matrix(.1631 .576 -.9848 .1431 0 -18.15)"/><use xlink:href="#an" width="5.5" height="2" transform="matrix(.819 .4411 -.4868 .6796 -.45 -16.3)"/><use xlink:href="#am" width="5.5" height="2" transform="matrix(.6819 .5207 -.7255 .668 2.85 -14.55)"/><use xlink:href="#an" width="5.5" height="2" transform="matrix(.476 .6768 -1.1021 .4579 6.85 -12.25)"/><use xlink:href="#an" width="5.5" height="2" transform="matrix(.5181 .6731 -.7947 .8115 8.7 -9.75)"/><use xlink:href="#ao" width="4.2" height="6.3" transform="matrix(-.9529 -.3008 -.3706 .9258 5.95 -17.25)"/><use xlink:href="#ap" width="2.7" height="7.6" transform="matrix(-.9894 .1131 .0595 .8467 5.1 -22.4)"/><use xlink:href="#ai" width="3.9" height="9.2" transform="matrix(.894 .2158 -.1368 .8863 2.05 -29.35)"/><use xlink:href="#ao" width="4.2" height="6.3" transform="matrix(.6805 .0989 -.0531 .6365 -6.8 -27.45)"/><use xlink:href="#ap" width="2.7" height="7.6" transform="matrix(.8225 .3253 -.0529 .521 -6.6 -28.3)"/></g></g><g clip-path="url(#aD)"><g transform="translate(435.5 45.5)"><use xlink:href="#af" width="5.4" height="3.5" transform="matrix(.5626 .159 -.4265 .7911 .75 -7.9)"/><use xlink:href="#ag" width="4.3" height="7.7" transform="matrix(-.8291 .0074 -.196 .6822 3.95 -12.5)"/><use xlink:href="#ah" width="10.6" height="13.2" transform="matrix(-.8898 -.0471 -.0589 .7829 6.55 -18.85)"/><use xlink:href="#af" width="5.4" height="3.5" transform="matrix(-.9038 .4469 .3561 .9379 -.5 -2.9)"/><use xlink:href="#ag" width="4.3" height="7.7" transform="matrix(.8893 -.0551 .2611 .8526 -5 -7.95)"/><use xlink:href="#ah" width="10.6" height="13.2" transform="matrix(.973 .1763 -.0163 .8877 -7.5 -18.35)"/><use xlink:href="#ai" width="3.9" height="9.2" transform="matrix(-.6751 -.4028 -.2086 .7018 -2.4 -32.1)"/><use xlink:href="#aj" width="7.8" height="5.2" transform="matrix(1.0163 -.0938 .0836 .9937 -4.85 -19.2)"/><use xlink:href="#ak" width="8.2" height="12.5" transform="matrix(.9558 -.0378 -.0168 .9532 -4.1 -42)"/><use xlink:href="#al" width="8.6" height="14.1" transform="matrix(.9388 .1574 -.0419 1.0559 -4 -33.3)"/><use xlink:href="#am" width="5.5" height="2" transform="matrix(.0892 .5768 -.9956 .0219 .25 -18.5)"/><use xlink:href="#an" width="5.5" height="2" transform="matrix(.6606 .6756 -.6688 .5015 -.2 -16.75)"/><use xlink:href="#am" width="5.5" height="2" transform="matrix(.7255 .5 -.7026 .6631 2.3 -14.1)"/><use xlink:href="#an" width="5.5" height="2" transform="matrix(.6098 .5508 -1.0291 .6454 6.65 -12)"/><use xlink:href="#an" width="5.5" height="2" transform="matrix(.7878 .2413 -.1739 1.1594 8.6 -10.15)"/><use xlink:href="#ao" width="4.2" height="6.3" transform="matrix(-.9379 -.3559 -.3885 .9129 6.85 -18.25)"/><use xlink:href="#ap" width="2.7" height="7.6" transform="matrix(-.9838 .1211 .0939 .8512 5.65 -23.15)"/><use xlink:href="#ai" width="3.9" height="9.2" transform="matrix(.921 .1511 -.0927 .9142 2.25 -30.1)"/><use xlink:href="#ao" width="4.2" height="6.3" transform="matrix(.7469 .0855 -.0579 .6568 -7.25 -27.05)"/><use xlink:href="#ap" width="2.7" height="7.6" transform="matrix(.7881 .394 -.0651 .5092 -6.9 -28.1)"/></g></g><g clip-path="url(#aE)"><g transform="translate(465.5 45.5)"><use xlink:href="#af" width="5.4" height="3.5" transform="matrix(.5555 -.0093 -.1911 .8893 -.2 -6.65)"/><use xlink:href="#ag" width="4.3" height="7.7" transform="matrix(-.7779 -.0027 -.2229 .6838 3.45 -11.4)"/><use xlink:href="#ah" width="10.6" height="13.2" transform="matrix(-.7986 -.2215 -.1831 .7527 6.75 -16.95)"/><use xlink:href="#af" width="5.4" height="3.5" transform="matrix(-.7609 .6586 .4799 .8875 -1.45 -5.1)"/><use xlink:href="#ag" width="4.3" height="7.7" transform="matrix(.8537 -.0752 .2585 .8316 -5.35 -9.45)"/><use xlink:href="#ah" width="10.6" height="13.2" transform="matrix(.9511 .2507 -.1014 .8541 -6.85 -19.65)"/><use xlink:href="#ai" width="3.9" height="9.2" transform="matrix(-.6832 -.437 -.2437 .7425 -2.35 -32.25)"/><use xlink:href="#aj" width="7.8" height="5.2" transform="matrix(1.0207 -.0085 .004 .9973 -4.4 -19.85)"/><use xlink:href="#ak" width="8.2" height="12.5" transform="matrix(.9559 -.0215 -.021 .9534 -3.85 -42.55)"/><use xlink:href="#al" width="8.6" height="14.1" transform="matrix(.9567 .1182 -.0319 1.0421 -3.9 -33.65)"/><use xlink:href="#am" width="5.5" height="2" transform="matrix(.0188 .5684 -.9913 -.0993 .45 -18.8)"/><use xlink:href="#an" width="5.5" height="2" transform="matrix(.4357 .857 -.789 .2805 .05 -17.1)"/><use xlink:href="#am" width="5.5" height="2" transform="matrix(.7706 .4755 -.6832 .6567 1.7 -13.5)"/><use xlink:href="#an" width="5.5" height="2" transform="matrix(.7131 .3999 -.9244 .8239 6.35 -11.85)"/><use xlink:href="#an" width="5.5" height="2" transform="matrix(.7582 -.251 .5538 1.0738 8.5 -10.1)"/><use xlink:href="#ao" width="4.2" height="6.3" transform="matrix(-.9196 -.4104 -.4061 .8997 7.75 -19)"/><use xlink:href="#ap" width="2.7" height="7.6" transform="matrix(-.9781 .1291 .1316 .8539 6.15 -24.05)"/><use xlink:href="#ai" width="3.9" height="9.2" transform="matrix(.9433 .0836 -.0461 .9399 2.45 -30.85)"/><use xlink:href="#ao" width="4.2" height="6.3" transform="matrix(.8132 .0696 -.0646 .6771 -7.65 -26.7)"/><use xlink:href="#ap" width="2.7" height="7.6" transform="matrix(.7496 .4593 -.0773 .4974 -7.25 -27.8)"/></g></g><g clip-path="url(#aF)"><g transform="translate(495.5 45.5)"><use xlink:href="#af" width="5.4" height="3.5" transform="matrix(.7088 -.0253 -.1187 .9266 -.45 -5.25)"/><use xlink:href="#ag" width="4.3" height="7.7" transform="matrix(-.8519 -.0005 -.2305 .777 3.6 -10.85)"/><use xlink:href="#ah" width="10.6" height="13.2" transform="matrix(-.8703 -.1701 -.1958 .8297 7.3 -17.7)"/><use xlink:href="#af" width="5.4" height="3.5" transform="matrix(-.6371 .6866 .5554 .8053 -2.1 -6.9)"/><use xlink:href="#ag" width="4.3" height="7.7" transform="matrix(.8177 -.0934 .2531 .8115 -5.75 -10.95)"/><use xlink:href="#ah" width="10.6" height="13.2" transform="matrix(.9245 .3197 -.1775 .8132 -6.25 -20.85)"/><use xlink:href="#ai" width="3.9" height="9.2" transform="matrix(-.7677 -.3759 -.2032 .8125 -2.6 -32.3)"/><use xlink:href="#aj" width="7.8" height="5.2" transform="matrix(1.0221 -.0004 .0007 .9982 -4.2 -20.55)"/><use xlink:href="#ak" width="8.2" height="12.5" transform="matrix(.9557 -.0052 -.0252 .9536 -3.75 -43.2)"/><use xlink:href="#al" width="8.6" height="14.1" transform="matrix(.9726 .0809 -.0187 1.0282 -3.95 -34.1)"/><use xlink:href="#am" width="5.5" height="2" transform="matrix(-.0137 .6095 -.9833 -.1559 .5 -19.1)"/><use xlink:href="#an" width="5.5" height="2" transform="matrix(.3375 .8988 -.8141 .1922 -.1 -17.35)"/><use xlink:href="#am" width="5.5" height="2" transform="matrix(.7136 .5546 -.7493 .5772 1.15 -13.65)"/><use xlink:href="#an" width="5.5" height="2" transform="matrix(.6638 .4746 -1.0078 .7155 5.4 -11.4)"/><use xlink:href="#an" width="5.5" height="2" transform="matrix(.7613 -.2374 .5349 1.0808 7.1 -9.75)"/><use xlink:href="#ao" width="4.2" height="6.3" transform="matrix(-.8982 -.4639 -.4204 .8876 8.6 -19.8)"/><use xlink:href="#ap" width="2.7" height="7.6" transform="matrix(-.9724 .1369 .1668 .8554 6.7 -24.95)"/><use xlink:href="#ai" width="3.9" height="9.2" transform="matrix(.9606 .0136 -.0002 .9631 2.6 -31.55)"/><use xlink:href="#ao" width="4.2" height="6.3" transform="matrix(.8756 .0231 -.0415 .7211 -8 -25.55)"/><use xlink:href="#ap" width="2.7" height="7.6" transform="matrix(.8038 .4237 -.1181 .5785 -7.15 -27.1)"/></g></g><g clip-path="url(#aG)"><g transform="translate(525.5 45.5)"><use xlink:href="#af" width="5.4" height="3.5" transform="matrix(.8616 -.0495 -.0461 .9582 -.7 -3.8)"/><use xlink:href="#ag" width="4.3" height="7.7" transform="matrix(-.9259 -.0003 -.2338 .8716 3.75 -10.25)"/><use xlink:href="#ah" width="10.6" height="13.2" transform="matrix(-.9388 -.1119 -.2065 .9076 7.95 -18.5)"/><use xlink:href="#af" width="5.4" height="3.5" transform="matrix(-.5176 .6974 .6208 .7177 -2.85 -8.65)"/><use xlink:href="#ag" width="4.3" height="7.7" transform="matrix(.7817 -.1073 .2503 .7906 -6.2 -12.45)"/><use xlink:href="#ah" width="10.6" height="13.2" transform="matrix(.8918 .3892 -.2493 .7651 -5.6 -22.2)"/><use xlink:href="#ai" width="3.9" height="9.2" transform="matrix(-.8475 -.3054 -.1564 .8811 -2.9 -32.2)"/><use xlink:href="#aj" width="7.8" height="5.2" transform="matrix(1.0234 .0047 .0004 .9991 -4.05 -21.15)"/><use xlink:href="#ak" width="8.2" height="12.5" transform="matrix(.9552 .0048 -.0294 .9538 -3.6 -43.8)"/><use xlink:href="#al" width="8.6" height="14.1" transform="matrix(.9872 .0394 -.0092 1.0141 -4 -34.35)"/><use xlink:href="#am" width="5.5" height="2" transform="matrix(-.0517 .6484 -.9724 -.2117 .55 -19.3)"/><use xlink:href="#an" width="5.5" height="2" transform="matrix(.2406 .9294 -.8303 .1025 -.35 -17.5)"/><use xlink:href="#am" width="5.5" height="2" transform="matrix(.6486 .629 -.8077 .4919 .55 -13.65)"/><use xlink:href="#an" width="5.5" height="2" transform="matrix(.6096 .542 -1.0777 .6048 4.3 -11.1)"/><use xlink:href="#an" width="5.5" height="2" transform="matrix(.7641 -.227 .5199 1.0874 5.8 -9.2)"/><use xlink:href="#ao" width="4.2" height="6.3" transform="matrix(-.8745 -.5179 -.4393 .8743 9.5 -20.65)"/><use xlink:href="#ap" width="2.7" height="7.6" transform="matrix(-.9666 .1447 .2024 .8555 7.25 -25.85)"/><use xlink:href="#ai" width="3.9" height="9.2" transform="matrix(.9725 -.0553 .0479 .9837 2.8 -32.3)"/><use xlink:href="#ao" width="4.2" height="6.3" transform="matrix(.9352 -.0287 -.0172 .7643 -8.25 -24.2)"/><use xlink:href="#ap" width="2.7" height="7.6" transform="matrix(.858 .3827 -.1673 .6568 -7.05 -26.45)"/></g></g><g clip-path="url(#aH)"><g transform="translate(555.5 45.5)"><use xlink:href="#af" width="5.4" height="3.5" transform="matrix(1.0136 -.0822 .0329 .9839 -1.1 -2.35)"/><use xlink:href="#ag" width="4.3" height="7.7" transform="matrix(-1 0 -.2322 .9676 4 -9.75)"/><use xlink:href="#ah" width="10.6" height="13.2" transform="matrix(-1.0033 -.0462 -.2206 .9855 8.55 -19.4)"/><use xlink:href="#af" width="5.4" height="3.5" transform="matrix(-.4042 .6922 .6747 .6273 -3.55 -10.55)"/><use xlink:href="#ag" width="4.3" height="7.7" transform="matrix(.7452 -.1238 .249 .77 -6.6 -14)"/><use xlink:href="#ah" width="10.6" height="13.2" transform="matrix(.8545 .4571 -.3133 .7121 -5.05 -23.4)"/><use xlink:href="#aj" width="7.8" height="5.2" transform="matrix(1.0247 .0123 0 1 -3.85 -21.85)"/><use xlink:href="#ak" width="8.2" height="12.5" transform="matrix(.9544 .0217 -.0342 .9541 -3.4 -44.5)"/><use xlink:href="#al" width="8.6" height="14.1" transform="translate(-3.9 -34.7)"/><use xlink:href="#am" width="5.5" height="2" transform="matrix(-.0964 .6845 -.9585 -.2667 .55 -19.7)"/><use xlink:href="#an" width="5.5" height="2" transform="matrix(.138 .9501 -.8365 .0116 -.5 -17.6)"/><use xlink:href="#am" width="5.5" height="2" transform="matrix(.576 .6958 -.8564 .4009 -.05 -13.65)"/><use xlink:href="#an" width="5.5" height="2" transform="matrix(.5467 .6051 -1.1371 .4837 3.25 -10.8)"/><use xlink:href="#an" width="5.5" height="2" transform="matrix(.7667 -.2164 .5013 1.0954 4.3 -8.75)"/><use xlink:href="#ao" width="4.2" height="6.3" transform="matrix(-.8729 -.3274 -.2805 .8475 9 -22.25)"/><use xlink:href="#ap" width="2.7" height="7.6" transform="matrix(-.9612 .1528 .2417 .8539 7.7 -26.7)"/><use xlink:href="#ai" width="3.9" height="9.2" transform="matrix(.9793 -.1291 .1024 1.0018 2.95 -33.05)"/><use xlink:href="#ao" width="4.2" height="6.3" transform="matrix(.9916 -.0888 .0085 .8068 -8.55 -23)"/><use xlink:href="#ap" width="2.7" height="7.6" transform="matrix(.911 .3369 -.2256 .7317 -6.9 -25.8)"/><use xlink:href="#ai" width="3.9" height="9.2" transform="matrix(-.9847 -.1251 -.0408 1.0085 -2.45 -33.1)"/></g></g><g clip-path="url(#aI)"><g transform="translate(585.5 45.5)"><use xlink:href="#af" width="5.4" height="3.5" transform="matrix(1.0136 -.0822 .0329 .9839 -1.1 -2.35)"/><use xlink:href="#ag" width="4.3" height="7.7" transform="matrix(-1 0 -.2322 .9676 4 -9.75)"/><use xlink:href="#ah" width="10.6" height="13.2" transform="matrix(-1.0033 -.0462 -.2206 .9855 8.55 -19.4)"/><use xlink:href="#af" width="5.4" height="3.5" transform="matrix(-.4692 .5726 .6203 .6983 -3 -10.4)"/><use xlink:href="#ag" width="4.3" height="7.7" transform="matrix(.7263 -.0866 .2426 .7897 -6.15 -14)"/><use xlink:href="#ah" width="10.6" height="13.2" transform="matrix(.8303 .3834 -.2529 .7326 -5.2 -22.6)"/><use xlink:href="#aj" width="7.8" height="5.2" transform="matrix(1.0236 .0542 -.0349 .9984 -3.7 -21.55)"/><use xlink:href="#ak" width="8.2" height="12.5" transform="matrix(.9548 .0173 -.0379 .9535 -3.3 -43.9)"/><use xlink:href="#al" width="8.6" height="14.1" transform="matrix(.9797 -.018 .0009 .9957 -3.7 -33.95)"/><use xlink:href="#am" width="5.5" height="2" transform="matrix(-.1432 .7179 -.9413 -.3209 .65 -19.95)"/><use xlink:href="#an" width="5.5" height="2" transform="matrix(.0338 .9596 -.8326 -.0767 -.7 -17.8)"/><use xlink:href="#am" width="5.5" height="2" transform="matrix(.4966 .7543 -.895 .3052 -.6 -13.7)"/><use xlink:href="#an" width="5.5" height="2" transform="matrix(.4774 .661 -1.183 .3569 2.15 -10.45)"/><use xlink:href="#an" width="5.5" height="2" transform="matrix(.7698 -.2034 .4861 1.1016 2.9 -8.3)"/><use xlink:href="#ao" width="4.2" height="6.3" transform="matrix(-.8354 -.1555 -.1411 .796 8.45 -23.8)"/><use xlink:href="#ap" width="2.7" height="7.6" transform="matrix(-.9238 .3511 .1921 .7257 7.4 -27.2)"/><use xlink:href="#ai" width="3.9" height="9.2" transform="matrix(.9793 -.1291 .1024 1.0018 2.95 -33.05)"/><use xlink:href="#ao" width="4.2" height="6.3" transform="matrix(.9892 -.1093 .0514 .8344 -8 -22.05)"/><use xlink:href="#ap" width="2.7" height="7.6" transform="matrix(.9267 .3021 -.198 .7507 -6.45 -25.25)"/><use xlink:href="#ai" width="3.9" height="9.2" transform="matrix(-.9778 -.0565 -.0009 .9892 -2.25 -32.6)"/></g></g><g clip-path="url(#aJ)"><g transform="translate(615.5 45.5)"><use xlink:href="#af" width="5.4" height="3.5" transform="matrix(-.5068 .4537 .5588 .7661 -2.6 -10.1)"/><use xlink:href="#ag" width="4.3" height="7.7" transform="matrix(.706 -.0531 .2401 .8089 -5.7 -13.95)"/><use xlink:href="#ah" width="10.6" height="13.2" transform="matrix(.8024 .313 -.1911 .749 -5.35 -21.85)"/><use xlink:href="#af" width="5.4" height="3.5" transform="matrix(1.0108 -.0582 -.0223 .9929 -1.15 -1.4)"/><use xlink:href="#ag" width="4.3" height="7.7" transform="matrix(-.9943 -.0221 -.26 .9663 4.05 -8.4)"/><use xlink:href="#ah" width="10.6" height="13.2" transform="matrix(-1.0018 -.0657 -.2183 .9821 8.5 -18.25)"/><use xlink:href="#ai" width="3.9" height="9.2" transform="matrix(.9035 -.1971 .1203 .9057 2.95 -32.45)"/><use xlink:href="#aj" width="7.8" height="5.2" transform="matrix(1.0206 .0984 -.0697 .9956 -3.55 -21.35)"/><use xlink:href="#ak" width="8.2" height="12.5" transform="matrix(.9552 .0135 -.0422 .953 -3.15 -43.4)"/><use xlink:href="#al" width="8.6" height="14.1" transform="matrix(.9589 -.0384 .0051 .9914 -3.55 -33.2)"/><use xlink:href="#am" width="5.5" height="2" transform="matrix(-.1958 .7482 -.9211 -.3773 .7 -20.2)"/><use xlink:href="#an" width="5.5" height="2" transform="matrix(-.0694 .9575 -.8193 -.167 -.95 -17.9)"/><use xlink:href="#am" width="5.5" height="2" transform="matrix(.4138 .804 -.9228 .2092 -1.15 -13.75)"/><use xlink:href="#an" width="5.5" height="2" transform="matrix(.4035 .7097 -1.2153 .2278 1.05 -10.05)"/><use xlink:href="#an" width="5.5" height="2" transform="matrix(.7726 -.1933 .4711 1.1089 1.55 -7.95)"/><use xlink:href="#ao" width="4.2" height="6.3" transform="matrix(-.7672 -.0073 -.0227 .7237 7.95 -25.3)"/><use xlink:href="#ap" width="2.7" height="7.6" transform="matrix(-.8457 .5412 .1494 .5963 7.2 -27.7)"/><use xlink:href="#ao" width="4.2" height="6.3" transform="matrix(.9859 -.1344 .0983 .8595 -7.45 -21.25)"/><use xlink:href="#ap" width="2.7" height="7.6" transform="matrix(.942 .267 -.1681 .7696 -6.15 -24.75)"/><use xlink:href="#ai" width="3.9" height="9.2" transform="matrix(-.9666 .0043 .0303 .9684 -2.05 -31.95)"/></g></g><g clip-path="url(#aK)"><g transform="translate(645.5 45.5)"><use xlink:href="#af" width="5.4" height="3.5" transform="matrix(-.5213 .3361 .49 .8286 -2.1 -9.85)"/><use xlink:href="#ag" width="4.3" height="7.7" transform="matrix(.6841 -.0216 .2345 .8289 -5.15 -13.95)"/><use xlink:href="#ah" width="10.6" height="13.2" transform="matrix(.7684 .25 -.1308 .7597 -5.4 -21)"/><use xlink:href="#af" width="5.4" height="3.5" transform="matrix(1.0086 -.0443 -.0611 .9969 -1.2 -.75)"/><use xlink:href="#ag" width="4.3" height="7.7" transform="matrix(-.9902 -.0354 -.2781 .9651 4.1 -7.55)"/><use xlink:href="#ah" width="10.6" height="13.2" transform="matrix(-1.0005 -.0788 -.2175 .9797 8.5 -17.5)"/><use xlink:href="#ai" width="3.9" height="9.2" transform="matrix(.8504 -.2366 .1301 .8413 3 -32.1)"/><use xlink:href="#aj" width="7.8" height="5.2" transform="matrix(1.0161 .1393 -.1043 .9916 -3.35 -21.05)"/><use xlink:href="#ak" width="8.2" height="12.5" transform="matrix(.9556 .0128 -.0465 .9525 -3.05 -42.8)"/><use xlink:href="#al" width="8.6" height="14.1" transform="matrix(.9377 -.0579 .0092 .987 -3.4 -32.5)"/><use xlink:href="#am" width="5.5" height="2" transform="matrix(-.289 .7123 -.8767 -.4776 .8 -19.4)"/><use xlink:href="#an" width="5.5" height="2" transform="matrix(-.0711 1.0049 -.8235 -.1491 -1.2 -17.3)"/><use xlink:href="#am" width="5.5" height="2" transform="matrix(.204 .879 -.9434 .0089 -1.35 -12.65)"/><use xlink:href="#an" width="5.5" height="2" transform="matrix(.141 .8157 -1.2055 -.1814 .05 -8.9)"/><use xlink:href="#an" width="5.5" height="2" transform="matrix(.7934 .2057 -.1285 1.1669 -.25 -7.6)"/><use xlink:href="#ao" width="4.2" height="6.3" transform="matrix(-.6752 .1108 .0703 .6355 7.4 -26.7)"/><use xlink:href="#ap" width="2.7" height="7.6" transform="matrix(-.7274 .7174 .1109 .466 6.75 -28.25)"/><use xlink:href="#ao" width="4.2" height="6.3" transform="matrix(.9826 -.1563 .148 .8819 -6.9 -20.3)"/><use xlink:href="#ap" width="2.7" height="7.6" transform="matrix(.9552 .2343 -.1394 .7869 -5.65 -24.2)"/><use xlink:href="#ai" width="3.9" height="9.2" transform="matrix(-.9511 .0667 .0663 .9462 -1.9 -31.5)"/></g></g><g clip-path="url(#aL)"><g transform="translate(675.5 45.5)"><use xlink:href="#af" width="5.4" height="3.5" transform="matrix(-.5128 .2261 .4143 .8847 -1.75 -9.65)"/><use xlink:href="#ag" width="4.3" height="7.7" transform="matrix(.6608 .0058 .2285 .8489 -4.75 -13.85)"/><use xlink:href="#ah" width="10.6" height="13.2" transform="matrix(.7307 .1896 -.0676 .7659 -5.55 -20.25)"/><use xlink:href="#af" width="5.4" height="3.5" transform="matrix(1.0064 -.0309 -.1008 .9995 -1.3 0)"/><use xlink:href="#ag" width="4.3" height="7.7" transform="matrix(-.9858 -.0522 -.3001 .9632 4.15 -6.6)"/><use xlink:href="#ah" width="10.6" height="13.2" transform="matrix(-.9994 -.0919 -.2171 .978 8.5 -16.8)"/><use xlink:href="#ai" width="3.9" height="9.2" transform="matrix(.7962 -.2715 .1379 .7773 2.85 -31.75)"/><use xlink:href="#aj" width="7.8" height="5.2" transform="matrix(1.0094 .1832 -.1387 .9864 -3.2 -20.8)"/><use xlink:href="#ak" width="8.2" height="12.5" transform="matrix(.9559 .009 -.0509 .952 -2.9 -42.15)"/><use xlink:href="#al" width="8.6" height="14.1" transform="matrix(.9162 -.0765 .0133 .9827 -3.25 -31.75)"/><use xlink:href="#am" width="5.5" height="2" transform="matrix(-.3801 .6634 -.8207 -.576 .85 -18.5)"/><use xlink:href="#an" width="5.5" height="2" transform="matrix(-.0748 1.0525 -.8278 -.1313 -1.4 -16.75)"/><use xlink:href="#am" width="5.5" height="2" transform="matrix(-.0119 .9017 -.9218 -.1843 -1.4 -11.5)"/><use xlink:href="#an" width="5.5" height="2" transform="matrix(-.1394 .8281 -1.0601 -.5649 -1.05 -7.7)"/><use xlink:href="#an" width="5.5" height="2" transform="matrix(.6129 .5784 -.6684 .926 -1.9 -6.9)"/><use xlink:href="#ao" width="4.2" height="6.3" transform="matrix(-.6999 .1146 .0637 .6306 7.4 -26.9)"/><use xlink:href="#ap" width="2.7" height="7.6" transform="matrix(-.7836 .6039 .1011 .4741 6.8 -28.15)"/><use xlink:href="#ao" width="4.2" height="6.3" transform="matrix(.9788 -.1781 .2003 .9014 -6.25 -19.5)"/><use xlink:href="#ap" width="2.7" height="7.6" transform="matrix(.9679 .1979 -.1097 .803 -5.2 -23.7)"/><use xlink:href="#ai" width="3.9" height="9.2" transform="matrix(-.9316 .127 .0976 .9231 -1.75 -30.8)"/></g></g><g clip-path="url(#aM)"><g transform="translate(705.5 45.5)"><use xlink:href="#af" width="5.4" height="3.5" transform="matrix(-.4843 .128 .3357 .9339 -1.35 -9.4)"/><use xlink:href="#ag" width="4.3" height="7.7" transform="matrix(.6363 .0335 .2251 .8688 -4.3 -13.85)"/><use xlink:href="#ah" width="10.6" height="13.2" transform="matrix(.6885 .1373 -.007 .7668 -5.6 -19.5)"/><use xlink:href="#af" width="5.4" height="3.5" transform="matrix(1.004 -.0182 -.1411 1.0009 -1.3 .65)"/><use xlink:href="#ag" width="4.3" height="7.7" transform="matrix(-.9814 -.0696 -.3232 .9615 4.1 -5.7)"/><use xlink:href="#ah" width="10.6" height="13.2" transform="matrix(-.9983 -.1052 -.2169 .9769 8.5 -16)"/><use xlink:href="#ai" width="3.9" height="9.2" transform="matrix(.7408 -.304 .1457 .7132 2.75 -31.4)"/><use xlink:href="#aj" width="7.8" height="5.2" transform="matrix(1.0014 .2272 -.1731 .9805 -3.05 -20.6)"/><use xlink:href="#ak" width="8.2" height="12.5" transform="matrix(.9563 .0084 -.0588 .9514 -2.75 -41.6)"/><use xlink:href="#al" width="8.6" height="14.1" transform="matrix(.8945 -.0945 .018 .9783 -3.05 -31)"/><use xlink:href="#am" width="5.5" height="2" transform="matrix(-.4624 .6054 -.7567 -.6669 .95 -17.7)"/><use xlink:href="#an" width="5.5" height="2" transform="matrix(-.0827 1.0999 -.832 -.1138 -1.65 -16.1)"/><use xlink:href="#am" width="5.5" height="2" transform="matrix(-.2297 .8708 -.8597 -.3749 -1.65 -10.4)"/><use xlink:href="#an" width="5.5" height="2" transform="matrix(-.4176 .7428 -.8032 -.8727 -2.4 -6.55)"/><use xlink:href="#an" width="5.5" height="2" transform="matrix(.2692 .8251 -1.0104 .4676 -3.65 -6)"/><use xlink:href="#ao" width="4.2" height="6.3" transform="matrix(-.7248 .1219 .058 .626 7.2 -27.15)"/><use xlink:href="#ap" width="2.7" height="7.6" transform="matrix(-.8245 .4919 .0921 .4824 6.8 -28.05)"/><use xlink:href="#ao" width="4.2" height="6.3" transform="matrix(.9743 -.2037 .2558 .9184 -5.75 -18.6)"/><use xlink:href="#ap" width="2.7" height="7.6" transform="matrix(.9792 .1645 -.0791 .8183 -4.8 -23.15)"/><use xlink:href="#ai" width="3.9" height="9.2" transform="matrix(-.9089 .1858 .1304 .899 -1.6 -30.25)"/></g></g></svg>