<svg xmlns="http://www.w3.org/2000/svg" xmlns:xlink="http://www.w3.org/1999/xlink" width="529" height="51" viewBox="0 0 529 51"><defs><use xlink:href="#a" id="f" width="22.9" height="21.6"/><use xlink:href="#b" id="j" width="1.9" height="2.7"/><use xlink:href="#c" id="n" width="11.7" height="8.7"/><use xlink:href="#d" id="m" width="12.5" height="10.7"/><use xlink:href="#e" id="p" width="8.9" height="10.5"/><use xlink:href="#f" id="R" width="22.9" height="21.6" transform="matrix(-1 0 0 1 29.95 4.5)"/><use xlink:href="#f" id="O" width="22.9" height="21.6" transform="matrix(-1.06 0 0 1.06 30.65 4)"/><use xlink:href="#f" id="M" width="22.9" height="21.6" transform="matrix(-1.13 0 0 1.13 31.35 3.55)"/><use xlink:href="#f" id="K" width="22.9" height="21.6" transform="matrix(-1.19 0 0 1.19 32.1 3)"/><use xlink:href="#f" id="I" width="22.9" height="21.6" transform="matrix(-1.26 0 0 1.26 32.8 2.5)"/><use xlink:href="#f" id="G" width="22.9" height="21.6" transform="matrix(-1.32 0 0 1.32 33.5 2)"/><use xlink:href="#f" id="E" width="22.9" height="21.6" transform="matrix(-1.39 0 0 1.39 34.2 1.55)"/><use xlink:href="#f" id="C" width="22.9" height="21.6" transform="matrix(-1.45 0 0 1.45 34.9 1)"/><use xlink:href="#f" id="A" width="22.9" height="21.6" transform="matrix(-1.52 0 0 1.52 35.65 .5)"/><use xlink:href="#f" id="y" width="22.9" height="21.6" transform="matrix(-1.58 0 0 1.58 36.35 0)"/><use xlink:href="#g" id="w" width="4.1" height="30.4"/><use xlink:href="#h" id="v" width="16.8" height="15.7"/><use xlink:href="#i" id="t" width="6.6" height="7.8"/><clipPath id="r"><path d="M1 1h47v49H1z"/></clipPath><clipPath id="z"><path d="M49 1h47v49H49z"/></clipPath><clipPath id="B"><path d="M97 1h47v49H97z"/></clipPath><clipPath id="D"><path d="M145 1h47v49h-47z"/></clipPath><clipPath id="F"><path d="M193 1h47v49h-47z"/></clipPath><clipPath id="H"><path d="M241 1h47v49h-47z"/></clipPath><clipPath id="J"><path d="M289 1h47v49h-47z"/></clipPath><clipPath id="L"><path d="M337 1h47v49h-47z"/></clipPath><clipPath id="N"><path d="M385 1h47v49h-47z"/></clipPath><clipPath id="P"><path d="M433 1h47v49h-47z"/></clipPath><clipPath id="Q"><path d="M481 1h47v49h-47z"/></clipPath><g id="a"><path fill="#fff" d="M7.5 0q2 3.1 4 4.9 1.5 1.2 3.9.5Q17 5 20.7 3q-1.6 2.6-2 4.5-.3 1.2.6 2.3 1 1.3 3.6 1.7-1.2 0-2.4.8-1 .6-1.3 1.3-.5 1 .5 2.7.7 1.5 2.7 3.8-6.6-3.5-9.2-1.8-2.1 1.5-2.9 3.3 0-1.7-.3-2.4-.5-2.1-1.8-2.5-3-1-7.4.4.8-.5 2.3-2.6 1-1.2.6-3.1Q3.3 8.7 0 6.2l3.4.4 2.9-.4q1-.3 1.2-6.1z"/><path fill="#35479e" d="M12.2 13.7h-.7l-.6-.4-3.5-6.1q-.2-.3 0-.8l.7-.6L9.5 5l.9-.1q.4 0 .5.5-2.3.8-2.5 1.4 2.5 5.3 3.7 6.9m1.9 4h-.7q-.7-.1-.9-.6t0-1.2q.3-.5 1-.9.3-.2.7-.2-1.2.4-1 1.7 0 1.2 1 1.2z"/><path fill="#578afd" d="M12.2 13.7q-1.3-1.6-3.7-6.9.1-.6 2.4-1.5l2.4 6.6v.8l-.6.7-.3.2zm1.9 1 .5.1q.5.2.8.7.2.5 0 1.1l-.9 1-.4.1q-1 0-1-1.3-.2-1.2 1-1.6"/></g><g id="g"><path fill="#563200" d="M4.1 23.9q-.2.5-1.4.8h-1q-1-.2-1.3-.8.5-.4 1.2-.5 1.6-.2 2.5.5"/><path fill="#ffffb6" d="M2.7 24.7q1.2-.3 1.4-.8-.6 3.4-.2 5.6-.3.7-1.3.9 1-2.4 0-5.7"/><path fill="#94700b" d="M.4 23.9q.4.6 1.3.8l.1 2.7q-.1 1.8-.7 2.8-.8-.3-.3-1.4.4-1.2-.4-4.9"/><path fill="#f1cd68" d="M1.7 24.7h1q1 3.3 0 5.7L1 30.2q.6-1 .7-2.7z"/><path fill="none" stroke="#000" stroke-linecap="round" stroke-linejoin="round" stroke-opacity=".3" stroke-width="__RESOLUTION__" d="M2.7 24.7q1.2-.3 1.4-.8-.8-.8-2.5-.6-.7.1-1.2.6.3.6 1.2.8zm0 5.7q.9-.2 1.2-.9-.4-2.1.2-5.6m-3 6.3q-.8-.3-.3-1.4t-.4-4.9m2.2 6.5-1.5-.2" vector-effect="non-scaling-stroke"/><path fill="#ffffb6" d="M4 18q-.4 3.1 0 5.5-.3 1-1.3 1.1.8-2.3-.1-5.6 1.2-.4 1.4-1"/><path fill="#f1cd68" d="m2.7 24.6-1.5-.2q.8-1.1.8-2.5 0-1.5-.4-3l1 .2q.9 3.3.1 5.5"/><path fill="#94700b" d="M1.2 24.4q-.7-.3-.5-1.1.5-1.3-.5-5.3.4.7 1.3 1 .5 1.4.4 2.9 0 1.4-.8 2.5"/><path fill="#563200" d="M.3 18q.5-.6 1.2-.6Q3 17 4 18q-.2.6-1.4 1h-1q-1-.3-1.3-1"/><path fill="none" stroke="#000" stroke-linecap="round" stroke-linejoin="round" stroke-opacity=".3" stroke-width="__RESOLUTION__" d="M4 18q-.4 3.1 0 5.5-.3 1-1.3 1.1l-1.5-.2q-.7-.3-.4-1.1.4-1.3-.5-5.3.5-.6 1.2-.6Q3 17 4 18q-.2.6-1.4 1h-1q-1-.3-1.3-1" vector-effect="non-scaling-stroke"/><path fill="#563200" d="M3.8 12.2q-.2.6-1.4 1h-1q-1-.3-1.3-1 .5-.6 1.2-.6 1.6-.3 2.5.6"/><path fill="#ffffb6" d="M2.4 13.3q1.2-.5 1.4-1.2-.4 3.3 0 5.7-.3.8-1.3 1 .8-2.2-.1-5.5"/><path fill="#94700b" d="M0 12.3q.4.6 1.4.8.5 1.5.4 3 0 1.4-.8 2.5-.7-.3-.5-1.1.5-1.3-.5-5.2"/><path fill="#f1cd68" d="M1.4 13.2h1q.9 3.4.1 5.6L1 18.6q.8-1.1.8-2.5 0-1.5-.5-3"/><path fill="none" stroke="#000" stroke-linecap="round" stroke-linejoin="round" stroke-opacity=".3" stroke-width="__RESOLUTION__" d="M2.4 13.3q1.2-.5 1.4-1.2-.9-.8-2.5-.5-.7 0-1.2.7.3.6 1.3.8zm.1 5.5q1-.1 1.3-1-.4-2.5 0-5.6M1 18.6q-.7-.3-.4-1.1.4-1.3-.5-5.2m2.4 6.5L1 18.6" vector-effect="non-scaling-stroke"/><path fill="#ffffb6" d="M3.8 6.4q-.6 3.5-.2 5.7-.3.7-1.3.8 1-2.3 0-5.6 1.3-.4 1.5-.9"/><path fill="#563200" d="M3.8 6.4q-.2.5-1.5.9l-1-.1Q.4 7 0 6.5q.6-.5 1.3-.6 1.6-.2 2.5.5"/><path fill="#f1cd68" d="M2.3 7.3q1 3.3 0 5.6l-1.5-.1q.5-1.1.6-2.8l-.1-2.8z"/><path fill="#94700b" d="M.8 12.8q-.7-.4-.4-1.5T0 6.4q.4.6 1.3.8l.1 2.8q0 1.7-.6 2.8"/><path fill="none" stroke="#000" stroke-linecap="round" stroke-linejoin="round" stroke-opacity=".3" stroke-width="__RESOLUTION__" d="M2.3 12.9q1-.1 1.3-.8-.5-2.2.1-5.7-.2.5-1.4.9l-1-.1Q.4 7 0 6.5q.9 3.7.5 4.8t.3 1.5zM0 6.5q.6-.5 1.3-.6 1.6-.2 2.5.5" vector-effect="non-scaling-stroke"/><path fill="#563200" d="M3.8.6q-.2.5-1.5.8h-1Q.4 1.2.1.5.6.2 1.3.1q1.6-.3 2.5.5"/><path fill="#ffffb6" d="M2.3 1.4q1.3-.3 1.5-.8-.6 3.5-.2 5.6-.4.7-1.3.9 1-2.4 0-5.7"/><path fill="#94700b" d="M0 .6q.4.6 1.3.8.2 1 .2 2.8-.2 1.7-.7 2.7Q0 6.5.4 5.4 1 4.5 0 .7"/><path fill="#f1cd68" d="M1.3 1.4h1q1 3.3 0 5.7L.8 6.9q.5-1 .6-2.7t-.1-2.8"/><path fill="none" stroke="#000" stroke-linecap="round" stroke-linejoin="round" stroke-opacity=".3" stroke-width="__RESOLUTION__" d="M2.3 1.4q1.3-.3 1.5-.8-.9-.7-2.5-.5Q.6 0 0 .5q.3.6 1.2.8zm0 5.7q1-.2 1.3-.9Q3 4.1 3.7.6m-3 6.3Q0 6.5.6 5.4 1 4.4.2.6m2.2 6.5L.8 6.9" vector-effect="non-scaling-stroke"/><path fill="#945a05" d="m4.1 19-1.5.4-1.4-2.8 2.8-.8z"/><path fill="#bc7905" d="m1.2 16.6 1.4 2.7L.5 18v-2.2z"/><path fill="none" stroke="#000" stroke-linecap="round" stroke-linejoin="round" stroke-opacity=".3" stroke-width="__RESOLUTION__" d="m2.6 19.4 1.5-.4M4 15.8l-2.8.8-.7-.9m2.1 3.7L.5 18" vector-effect="non-scaling-stroke"/></g><g id="h"><path fill="#c0590e" d="m15 1.4.7.3-.2 5.5-.8 1-2.8-1.3q1.9-2.2 2.7-4.6l-.3-.5v-.2l.5-.4z"/><path fill="#f17901" d="m11.9 6.9-.2-.1-.5-2.2 3-2.8.4.5q-.8 2.4-2.7 4.6"/><path fill="none" stroke="#fadfb4" stroke-linecap="round" stroke-linejoin="round" stroke-width="__RESOLUTION__" d="m15 1.4.4-1.3m.3 1.6 1-.3" vector-effect="non-scaling-stroke"/><path fill="none" stroke="#883a02" stroke-linecap="round" stroke-linejoin="round" stroke-width="__RESOLUTION__" d="m14.4 1.7.3-.5m1 .5-.2 5.5-.8 1m-3-1.4L11 4.6l3.1-2.9" vector-effect="non-scaling-stroke"/><path fill="#f17901" d="m13.9 7.5-3.4-.1L7.3 12l-.3-.3-.3-4.6.7-1.1q.7-.7 2.4-1.2l1.3.1zm-3.7 6.4"/><path fill="#c0590e" d="m6.7 7 .3 4.8.3.1 3.2-4.5h3.4l1 1.4 1 1.1q-1.1 2.5-3 4.6-5.8 1.6-9.8 1.1l.9-4zm3.5 6.9"/><path fill="none" stroke="#000" stroke-linecap="round" stroke-linejoin="round" stroke-opacity=".3" stroke-width="__RESOLUTION__" d="m13.9 7.5-2.8-2.6-1.3-.1Q8.1 5.3 7.4 6l-.7 1L4 11.6l-1 4q4.1.5 9.9-1.1 1.9-2.1 3-4.6l-1-1.1z" vector-effect="non-scaling-stroke"/><path fill="#f17901" d="m2.3 6.1.3-.4 3.2-.2L7 6l1.2 1v.3l-1.6.2-.9-.5-2.5.4-1 1.2-.7-1.1V7l.2-.3.3-.2zm-.6.6-.3.2v-.2z"/><path fill="#c0590e" d="m2.2 8.6 1-1.2L5.7 7l.9.5L8 7.4l-.1.5-.3.2-2.3 2.3v.1l.2.6-1.8.3z"/><path fill="none" stroke="#fadfb4" stroke-linecap="round" stroke-linejoin="round" stroke-width="__RESOLUTION__" d="m2.3 6.1-1-1M1.5 7 .1 6.7" vector-effect="non-scaling-stroke"/><path fill="none" stroke="#883a02" stroke-linecap="round" stroke-linejoin="round" stroke-width="__RESOLUTION__" d="m1.8 6.6-.3.2m0 .6.8 1.1 1.6 2.7 1.8-.3-.2-.5m2.7-3.2V7L7.1 6l-1.2-.5-3.3.2M7.7 8l.3-.2v-.4" vector-effect="non-scaling-stroke"/></g><g id="i"><path fill="#c0590e" d="m1.3 4.7-.7-1Q-.1 2.6.2 1.5T1.6.2 4 .5t2 1.9.4 2.3-.8 1.1l-.5.2h-.2q-1 .3-2.3-.4l-1.2-.9z"/><path fill="#9f490b" d="m5.6 5.9.8.7-.7 1h-.2l-2.2.2h-.6L1 6.3.7 5.1l.6-.4.1.1 1.2.9q1.2.7 2.3.5L5 6zm-.7.3.6 1.4zm-1.6.4v1.2z"/><path fill="none" stroke="#883a02" stroke-linecap="round" stroke-linejoin="round" stroke-width="__RESOLUTION__" d="m1.3 4.7-.7-1Q-.1 2.6.2 1.5T1.6.2 4 .5t2 1.9.4 2.3-.8 1.1l.8.7-.7 1h-.2l-2.2.2h-.5L.9 6.3.7 5.1h0zl.1.1 1.2.9q1.3.7 2.3.5l.2-.1.5-.2m-.1 1.7-.6-1.4M3.3 7.8V6.6" vector-effect="non-scaling-stroke"/></g><g id="k"><path fill="#f17901" d="M.1 3.9q-.2-.9 0-1.6l2.6-.2-1.9-.9Q.9.7 2.1 0l1.1.8.4 1v.1l.2.1h.1l.3.2.4.4-.1.5-.1.6-.4.7-2-1.1.4 1.2z"/><path fill="#c0590e" d="m3.9 2 1.8-.5q1.3 0 2.2.7.8.8.8 1.8T8 5.7t-2.2.7-2.2-.7l-.1-.1L2 5.4q-.6.1-.9.6l-1-2.1 2.3.6-.3-1.2 1.8 1.1-.5.7.2.2h.6q.3 0 .5-.3l.4-1q.2-.8-.6-1.3l-.4-.4zh-.1zm-.5 3.6V5zm0-.5"/><path fill="none" stroke="#000" stroke-linecap="round" stroke-linejoin="round" stroke-opacity=".3" stroke-width="__RESOLUTION__" d="m2.2 0 1 .8.4 1v.1l.2.1 1.9-.5q1.3 0 2.2.7.8.8.8 1.8T8 5.7t-2.2.7-2.2-.7l-.1-.1v0L2 5.4q-.6.1-.9.6m3-1.6.4-.7.1-.5v-.5l-.4-.4L4 2h-.2 0m.7.7q.8.5.6 1.2L4.9 5q-.2.3-.6.4l-.5-.2-.3-.1v.5m0-.5.6-.7" vector-effect="non-scaling-stroke"/></g><g id="o"><path fill="#22a8df" d="M.6 1.1v1z"/><path fill="#d0aa54" d="m.3 6.3-.1.3v-.4z"/><path fill="none" stroke="#000" stroke-linecap="round" stroke-linejoin="round" stroke-opacity=".3" stroke-width="__RESOLUTION__" d="M.2 6.6 0 9.3l3.4 2.6 5.9.9 3.2-2.2-.8-3.4.3-2.5-.9-2.3-.9-1.1h-3l-1.1 1-4.3-1.1V0L.7.3l-.2.8v1l.1 2.7-.5.2v1l.1.3zv-.4m5.9-2-4-1.3" vector-effect="non-scaling-stroke"/><path fill="#000" fill-opacity=".2" d="m11 7.5-1.2.4-.5 4.9-5.9-.9L.1 9.2l.1-2.6.1-.3V5l.5-.1L.6 2l1.6.8 4 1.3 2.4-1.3.9-.2L11 5.9z"/><path fill="#000" fill-opacity=".3" d="m6 2.3 1.2-1h3l.9 1.1-2.6.4-2.4 1.4-4-1.3-.3-1.7zm1.3 6.4-7-2.2-.1-.7 7 2.2z"/></g><g id="l"><path fill="#c0590e" d="M.7 5.2H6L8.1.9l1.2 1 1.4 4.8-1.5 3.7-4.1 1L2 8.9z"/><path fill="#a03900" d="M8.1.9 6 5.2H.7L.5 2.4l3-2.4z"/><path fill="none" stroke="#000" stroke-linecap="round" stroke-linejoin="round" stroke-opacity=".3" stroke-width="__RESOLUTION__" d="m9.2 10.4 1.6-3.7L9.3 2 8.1.9" vector-effect="non-scaling-stroke"/><path fill="#bc7905" d="m8.9 7.8 2.3-.1.3.9-3.3.6zm-4.1 0L3.4 6.6 5.9 6l1 .5zM1.7 5.3 0 1.3l.2-1L1.6 3z"/><path fill="#945a05" d="m8.9 7.8-.7 1.4-3.4-1.4 2.1-1.3zM3.4 6.6 1.7 5.3 1.6 3l4.3 3z"/><path fill="none" stroke="#000" stroke-linecap="round" stroke-linejoin="round" stroke-opacity=".3" stroke-width="__RESOLUTION__" d="m8.2 9.2 3.3-.6-.3-1-2.3.2-2-1.3-1-.5-4.3-3L.2.4l-.2 1 1.7 3.9 1.7 1.3 1.4 1.2z" vector-effect="non-scaling-stroke"/></g><g id="q"><path fill="#c0590e" d="m7 10.5-.3 1.8-3.2 1.3-.3-1.2-1.8-2 .3-1.5 1.9 1.4zm-4.1.1.3 1.8z"/><path fill="none" stroke="#883a02" stroke-linecap="round" stroke-linejoin="round" stroke-width="__RESOLUTION__" d="m7 10.5-.3 1.8-3.2 1.3-.3-1.2-1.8-2 .3-1.5m1.5 3.5-.3-1.8" vector-effect="non-scaling-stroke"/><path fill="none" stroke="#000" stroke-linecap="round" stroke-linejoin="round" stroke-opacity=".3" stroke-width="__RESOLUTION__" d="M1.7 8.9 0 7.1m9-4.5-1 7.9H7l-3.4-.2-1.9-1.4" vector-effect="non-scaling-stroke"/><path fill="#000" fill-opacity=".2" d="M6 0 3.6 10.3 1.7 8.9 0 7.1l4.2-7z"/></g><g id="x" transform="translate(8.25 3.95)"><use xlink:href="#j" width="1.9" height="2.7" transform="translate(-4.9 -1.3)"/><use xlink:href="#k" width="8.8" height="6.4" transform="translate(-8.25 -3.95)"/></g><g id="u" transform="translate(-.15 -2.05)"><use xlink:href="#l" width="11.5" height="11.3" transform="translate(.75 2.05)"/><use xlink:href="#m" width="12.5" height="10.7" transform="translate(.15 4.2)"/><use xlink:href="#n" width="11.7" height="8.7" transform="translate(.4 2.15)"/><use xlink:href="#o" width="12.5" height="12.8" transform="translate(.15 2.15)"/></g><g id="s"><use xlink:href="#p" width="8.9" height="10.5"/><use xlink:href="#q" width="8.9" height="13.7"/></g><path id="b" fill="#42c8ff" d="M.2-.3v-.5l.1-.5q.8.5.6 1.3L.5 1l-.5.4-.6-.1-.3-.2z" transform="translate(.9 1.35)"/><path id="c" fill="#22a8df" d="M1.4-.7h3l.9 1-2.6.4L.3 2.1l-4-1.3-1.6-.8.2-1.7 1-.4.2 1.3 4 1zm4.4 6L1.5 6.6l-7-2.1-.1-.8 7 2.2 4.7-1.1z" transform="translate(5.6 2.05)"/><path id="d" fill="#fce7b8" d="M2.3-4.6 4.9-5l.8 2.3-.1 2.5h-.1l.8 3.4L3 5.3l-6-.8-3.4-2.6.2-2.7.1-.4v-1.2l.5-.1-.2-2.8 1.6.8 4 1.3z" transform="translate(6.25 5.35)"/><path id="e" fill="#fce7b8" d="m4.5-2.6-1 7.9L-.8 5l-1.9-1.3-1.7-1.9L-.3-5l1.8-.1z" transform="translate(4.5 5.25)"/></defs><g clip-path="url(#r)"><g transform="translate(36.75 43.55)"><use xlink:href="#s" width="8.9" height="13.7" transform="matrix(.5073 .0398 -.0396 .5073 -6.75 -13.3)"/><use xlink:href="#t" width="6.6" height="7.8" transform="matrix(-1.0014 0 0 1.0011 1.8 -8)"/><use xlink:href="#t" width="6.6" height="7.8" transform="matrix(-1.0014 0 0 1.0011 6.7 -6.15)"/><use xlink:href="#u" width="12.5" height="12.8" transform="matrix(1.0014 0 0 1.0011 -5.6 -12.45)"/><use xlink:href="#s" width="8.9" height="13.7" transform="matrix(.3797 -.3402 .3401 .3795 1.45 -6.75)"/><use xlink:href="#v" width="16.8" height="15.7" transform="matrix(-1.0385 .0412 .0412 1.0381 9.8 -26.55)"/><use xlink:href="#w" width="4.1" height="30.4" transform="matrix(.6354 .7674 -.5917 .5309 6 -19.25)"/><use xlink:href="#x" width="8.8" height="6.4" transform="matrix(1.0336 -.9944 .994 1.0336 -14.8 -.5)"/><use xlink:href="#y" width="36.4" height="34.2" transform="matrix(-1 0 0 1 .6 -42.55)"/></g></g><g clip-path="url(#z)"><g transform="translate(84.75 43.55)"><use xlink:href="#s" width="8.9" height="13.7" transform="matrix(.5073 .0398 -.0396 .5073 -6.75 -13.3)"/><use xlink:href="#t" width="6.6" height="7.8" transform="matrix(-1.0014 0 0 1.0011 1.8 -8)"/><use xlink:href="#t" width="6.6" height="7.8" transform="matrix(-1.0014 0 0 1.0011 6.7 -6.15)"/><use xlink:href="#u" width="12.5" height="12.8" transform="matrix(1.0014 0 0 1.0011 -5.6 -12.45)"/><use xlink:href="#s" width="8.9" height="13.7" transform="matrix(.3797 -.3402 .3401 .3795 1.45 -6.75)"/><use xlink:href="#v" width="16.8" height="15.7" transform="matrix(-1.0385 .0412 .0412 1.0381 9.8 -26.55)"/><use xlink:href="#w" width="4.1" height="30.4" transform="matrix(.6354 .7674 -.5917 .5309 6 -19.25)"/><use xlink:href="#x" width="8.8" height="6.4" transform="matrix(1.0336 -.9944 .994 1.0336 -14.8 -.5)"/><use xlink:href="#A" width="36.4" height="34.2" transform="matrix(-1 0 0 1 .6 -42.55)"/></g></g><g clip-path="url(#B)"><g transform="translate(132.75 43.55)"><use xlink:href="#s" width="8.9" height="13.7" transform="matrix(.5073 .0398 -.0396 .5073 -6.75 -13.3)"/><use xlink:href="#t" width="6.6" height="7.8" transform="matrix(-1.0014 0 0 1.0011 1.8 -8)"/><use xlink:href="#t" width="6.6" height="7.8" transform="matrix(-1.0014 0 0 1.0011 6.7 -6.15)"/><use xlink:href="#u" width="12.5" height="12.8" transform="matrix(1.0014 0 0 1.0011 -5.6 -12.45)"/><use xlink:href="#s" width="8.9" height="13.7" transform="matrix(.3797 -.3402 .3401 .3795 1.45 -6.75)"/><use xlink:href="#v" width="16.8" height="15.7" transform="matrix(-1.0385 .0412 .0412 1.0381 9.8 -26.55)"/><use xlink:href="#w" width="4.1" height="30.4" transform="matrix(.6354 .7674 -.5917 .5309 6 -19.25)"/><use xlink:href="#x" width="8.8" height="6.4" transform="matrix(1.0336 -.9944 .994 1.0336 -14.8 -.5)"/><use xlink:href="#C" width="36.4" height="34.2" transform="matrix(-1 0 0 1 .6 -42.55)"/></g></g><g clip-path="url(#D)"><g transform="translate(180.75 43.55)"><use xlink:href="#s" width="8.9" height="13.7" transform="matrix(.5073 .0398 -.0396 .5073 -6.75 -13.3)"/><use xlink:href="#t" width="6.6" height="7.8" transform="matrix(-1.0014 0 0 1.0011 1.8 -8)"/><use xlink:href="#t" width="6.6" height="7.8" transform="matrix(-1.0014 0 0 1.0011 6.7 -6.15)"/><use xlink:href="#u" width="12.5" height="12.8" transform="matrix(1.0014 0 0 1.0011 -5.6 -12.45)"/><use xlink:href="#s" width="8.9" height="13.7" transform="matrix(.3797 -.3402 .3401 .3795 1.45 -6.75)"/><use xlink:href="#v" width="16.8" height="15.7" transform="matrix(-1.0385 .0412 .0412 1.0381 9.8 -26.55)"/><use xlink:href="#w" width="4.1" height="30.4" transform="matrix(.6354 .7674 -.5917 .5309 6 -19.25)"/><use xlink:href="#x" width="8.8" height="6.4" transform="matrix(1.0336 -.9944 .994 1.0336 -14.8 -.5)"/><use xlink:href="#E" width="36.4" height="34.2" transform="matrix(-1 0 0 1 .6 -42.55)"/></g></g><g clip-path="url(#F)"><g transform="translate(228.75 43.55)"><use xlink:href="#s" width="8.9" height="13.7" transform="matrix(.5073 .0398 -.0396 .5073 -6.75 -13.3)"/><use xlink:href="#t" width="6.6" height="7.8" transform="matrix(-1.0014 0 0 1.0011 1.8 -8)"/><use xlink:href="#t" width="6.6" height="7.8" transform="matrix(-1.0014 0 0 1.0011 6.7 -6.15)"/><use xlink:href="#u" width="12.5" height="12.8" transform="matrix(1.0014 0 0 1.0011 -5.6 -12.45)"/><use xlink:href="#s" width="8.9" height="13.7" transform="matrix(.3797 -.3402 .3401 .3795 1.45 -6.75)"/><use xlink:href="#v" width="16.8" height="15.7" transform="matrix(-1.0385 .0412 .0412 1.0381 9.8 -26.55)"/><use xlink:href="#w" width="4.1" height="30.4" transform="matrix(.6354 .7674 -.5917 .5309 6 -19.25)"/><use xlink:href="#x" width="8.8" height="6.4" transform="matrix(1.0336 -.9944 .994 1.0336 -14.8 -.5)"/><use xlink:href="#G" width="36.4" height="34.2" transform="matrix(-1 0 0 1 .6 -42.55)"/></g></g><g clip-path="url(#H)"><g transform="translate(276.75 43.55)"><use xlink:href="#s" width="8.9" height="13.7" transform="matrix(.5073 .0398 -.0396 .5073 -6.75 -13.3)"/><use xlink:href="#t" width="6.6" height="7.8" transform="matrix(-1.0014 0 0 1.0011 1.8 -8)"/><use xlink:href="#t" width="6.6" height="7.8" transform="matrix(-1.0014 0 0 1.0011 6.7 -6.15)"/><use xlink:href="#u" width="12.5" height="12.8" transform="matrix(1.0014 0 0 1.0011 -5.6 -12.45)"/><use xlink:href="#s" width="8.9" height="13.7" transform="matrix(.3797 -.3402 .3401 .3795 1.45 -6.75)"/><use xlink:href="#v" width="16.8" height="15.7" transform="matrix(-1.0385 .0412 .0412 1.0381 9.8 -26.55)"/><use xlink:href="#w" width="4.1" height="30.4" transform="matrix(.6354 .7674 -.5917 .5309 6 -19.25)"/><use xlink:href="#x" width="8.8" height="6.4" transform="matrix(1.0336 -.9944 .994 1.0336 -14.8 -.5)"/><use xlink:href="#I" width="36.4" height="34.2" transform="matrix(-1 0 0 1 .6 -42.55)"/></g></g><g clip-path="url(#J)"><g transform="translate(324.75 43.55)"><use xlink:href="#s" width="8.9" height="13.7" transform="matrix(.5073 .0398 -.0396 .5073 -6.75 -13.3)"/><use xlink:href="#t" width="6.6" height="7.8" transform="matrix(-1.0014 0 0 1.0011 1.8 -8)"/><use xlink:href="#t" width="6.6" height="7.8" transform="matrix(-1.0014 0 0 1.0011 6.7 -6.15)"/><use xlink:href="#u" width="12.5" height="12.8" transform="matrix(1.0014 0 0 1.0011 -5.6 -12.45)"/><use xlink:href="#s" width="8.9" height="13.7" transform="matrix(.3797 -.3402 .3401 .3795 1.45 -6.75)"/><use xlink:href="#v" width="16.8" height="15.7" transform="matrix(-1.0385 .0412 .0412 1.0381 9.8 -26.55)"/><use xlink:href="#w" width="4.1" height="30.4" transform="matrix(.6354 .7674 -.5917 .5309 6 -19.25)"/><use xlink:href="#x" width="8.8" height="6.4" transform="matrix(1.0336 -.9944 .994 1.0336 -14.8 -.5)"/><use xlink:href="#K" width="36.4" height="34.2" transform="matrix(-1 0 0 1 .6 -42.55)"/></g></g><g clip-path="url(#L)"><g transform="translate(372.75 43.55)"><use xlink:href="#s" width="8.9" height="13.7" transform="matrix(.5073 .0398 -.0396 .5073 -6.75 -13.3)"/><use xlink:href="#t" width="6.6" height="7.8" transform="matrix(-1.0014 0 0 1.0011 1.8 -8)"/><use xlink:href="#t" width="6.6" height="7.8" transform="matrix(-1.0014 0 0 1.0011 6.7 -6.15)"/><use xlink:href="#u" width="12.5" height="12.8" transform="matrix(1.0014 0 0 1.0011 -5.6 -12.45)"/><use xlink:href="#s" width="8.9" height="13.7" transform="matrix(.3797 -.3402 .3401 .3795 1.45 -6.75)"/><use xlink:href="#v" width="16.8" height="15.7" transform="matrix(-1.0385 .0412 .0412 1.0381 9.8 -26.55)"/><use xlink:href="#w" width="4.1" height="30.4" transform="matrix(.6354 .7674 -.5917 .5309 6 -19.25)"/><use xlink:href="#x" width="8.8" height="6.4" transform="matrix(1.0336 -.9944 .994 1.0336 -14.8 -.5)"/><use xlink:href="#M" width="36.4" height="34.2" transform="matrix(-1 0 0 1 .6 -42.55)"/></g></g><g clip-path="url(#N)"><g transform="translate(420.75 43.55)"><use xlink:href="#s" width="8.9" height="13.7" transform="matrix(.5073 .0398 -.0396 .5073 -6.75 -13.3)"/><use xlink:href="#t" width="6.6" height="7.8" transform="matrix(-1.0014 0 0 1.0011 1.8 -8)"/><use xlink:href="#t" width="6.6" height="7.8" transform="matrix(-1.0014 0 0 1.0011 6.7 -6.15)"/><use xlink:href="#u" width="12.5" height="12.8" transform="matrix(1.0014 0 0 1.0011 -5.6 -12.45)"/><use xlink:href="#s" width="8.9" height="13.7" transform="matrix(.3797 -.3402 .3401 .3795 1.45 -6.75)"/><use xlink:href="#v" width="16.8" height="15.7" transform="matrix(-1.0385 .0412 .0412 1.0381 9.8 -26.55)"/><use xlink:href="#w" width="4.1" height="30.4" transform="matrix(.6354 .7674 -.5917 .5309 6 -19.25)"/><use xlink:href="#x" width="8.8" height="6.4" transform="matrix(1.0336 -.9944 .994 1.0336 -14.8 -.5)"/><use xlink:href="#O" width="36.4" height="34.2" transform="matrix(-1 0 0 1 .6 -42.55)"/></g></g><g clip-path="url(#P)"><g transform="translate(468.75 43.55)"><use xlink:href="#s" width="8.9" height="13.7" transform="matrix(.5073 .0398 -.0396 .5073 -6.75 -13.3)"/><use xlink:href="#t" width="6.6" height="7.8" transform="matrix(-1.0014 0 0 1.0011 1.8 -8)"/><use xlink:href="#t" width="6.6" height="7.8" transform="matrix(-1.0014 0 0 1.0011 6.7 -6.15)"/><use xlink:href="#u" width="12.5" height="12.8" transform="matrix(1.0014 0 0 1.0011 -5.6 -12.45)"/><use xlink:href="#s" width="8.9" height="13.7" transform="matrix(.3797 -.3402 .3401 .3795 1.45 -6.75)"/><use xlink:href="#v" width="16.8" height="15.7" transform="matrix(-1.0385 .0412 .0412 1.0381 9.8 -26.55)"/><use xlink:href="#w" width="4.1" height="30.4" transform="matrix(.6354 .7674 -.5917 .5309 6 -19.25)"/><use xlink:href="#x" width="8.8" height="6.4" transform="matrix(1.0336 -.9944 .994 1.0336 -14.8 -.5)"/></g></g><g clip-path="url(#Q)"><g transform="translate(516.75 43.55)"><use xlink:href="#s" width="8.9" height="13.7" transform="matrix(.5073 .0398 -.0396 .5073 -6.75 -13.3)"/><use xlink:href="#t" width="6.6" height="7.8" transform="matrix(-1.0014 0 0 1.0011 1.8 -8)"/><use xlink:href="#t" width="6.6" height="7.8" transform="matrix(-1.0014 0 0 1.0011 6.7 -6.15)"/><use xlink:href="#u" width="12.5" height="12.8" transform="matrix(1.0014 0 0 1.0011 -5.6 -12.45)"/><use xlink:href="#s" width="8.9" height="13.7" transform="matrix(.3797 -.3402 .3401 .3795 1.45 -6.75)"/><use xlink:href="#v" width="16.8" height="15.7" transform="matrix(-1.0385 .0412 .0412 1.0381 9.8 -26.55)"/><use xlink:href="#w" width="4.1" height="30.4" transform="matrix(.6354 .7674 -.5917 .5309 6 -19.25)"/><use xlink:href="#x" width="8.8" height="6.4" transform="matrix(1.0336 -.9944 .994 1.0336 -14.8 -.5)"/><use xlink:href="#R" width="36.4" height="34.2" transform="matrix(-1 0 0 1 .6 -42.55)"/></g></g></svg>