<svg xmlns="http://www.w3.org/2000/svg" xmlns:xlink="http://www.w3.org/1999/xlink" width="231" height="27" viewBox="0 0 231 27"><defs><clipPath id="b"><path d="M1 1h22v25H1z"/></clipPath><clipPath id="f"><path d="M24 1h22v25H24z"/></clipPath><clipPath id="g"><path d="M47 1h22v25H47z"/></clipPath><clipPath id="h"><path d="M70 1h22v25H70z"/></clipPath><clipPath id="i"><path d="M93 1h22v25H93z"/></clipPath><clipPath id="j"><path d="M116 1h22v25h-22z"/></clipPath><clipPath id="k"><path d="M139 1h22v25h-22z"/></clipPath><clipPath id="l"><path d="M162 1h22v25h-22z"/></clipPath><clipPath id="m"><path d="M185 1h22v25h-22z"/></clipPath><clipPath id="n"><path d="M208 1h22v25h-22z"/></clipPath><g id="e"><path fill="#c7a556" d="M.1 15.6Q.9 9.2 5.8 5.3 11.4.9 19 .1q7.7-.7 13 2.6 2.9 1.8 3.5 5.2L18.9 2 6 12.1l-.1.6-.4-.2-1.5.8.8-1.3.5-1-.5 1-.8 1.3-2.7 1.6zm1.5-2.8-.3 2.1zm3.2-.8.7.5.5-.3-.5.3zM1.4 26l2-.8-.9 4.1z"/><path fill="#ae2620" d="m.1 15.6 1.2-.7L4 13.3l1.5-.8.4.2-2.5 12.5-2 .7q-1.5-4.4-1.4-8zm3-.9.9-1.4zm-2 .9.1-.7z"/><path fill="#e9d7ba" d="M35.5 7.9q.7 2.5.6 6.4-.2 3.9-1.9 6.9l-1-3-.1-.3-2.4-.7-2.1-.6-4.7 4.7-3 3.1-1.3-.4 1.3.4-2.1 2.2 2.9 2.5 1 .9.1 1.4v2.2l-.1.1Q8.9 41 2.5 29.3l.9-4.1 1.7-.8 2.2-.8.9-.5-1 .5-.1.6.1-.6.6-3.5.5-2.4.5-2.9-1.5-1.1-1.4-1 .1-.5V12L18.9 2zM8.8 12.6l-1.5 1.1zm25.4 4.5-1 1zm-2.3-1.6-1.2 1.7zm-8.6 5.3.6.5zm-1.4 10.9.9-.3zm-1.1-2.2.9-.4zm-12-14.7.6.4zm.4 5.5L8 20.2zm-5 6.3.8-2.2zm5.5-8.9H8.4z"/><path fill="#dc4e3a" d="m5.9 12.7 1.4 1 1.6 1.1-.5 2.8-.5 2.5H6.8h1l-.5 3.4-2.2 1 .6-1.9-.6 1.8-1.7.7zm.4 1.8 1-.8zm.5 3 1.6.2z"/><path fill="#c46953" d="m34.2 21.2-.1.2-2.7 4.9q-1 1.7-3.5 3.8l-3.2 2.5-1.9 1V30l-1.1-.9 3-1.4-3 1.4-2.9-2.5 2.1-2.2 1.1.4-1.1-.4 3-3.1 4.7-4.7 2.1.6 2.4.7v.3zm-2.7-1.5 1.7-1.5zm-.8-2.5-1.2 1.7zm-5.6 5.1-1.2-1zm-.7 8.5-1.6.6z"/><path fill="none" stroke="#000" stroke-linecap="round" stroke-linejoin="round" stroke-opacity=".3" stroke-width="__RESOLUTION__" d="m.1 15.6 1.2-.7.3-2.1m4.3-.1 1.4 1 1.5-1.1m25.4 8.6-1-3-1.7 1.5m-.8-2.5 2.4.7v.3l1.1-1.1m-4.7 1.8 1.2-1.7-2.1-.6-4.7 4.7 1.2 1m5.6-5.1 1.2-1.7m-11 8.9 1.1.4m-2.4-.8 1.3.4 3-3.1-.6-.6m-.6 13 .1-.1v-2.2l-.8.2m.8-.2V30l-1.1-.9-.9.4m2 1.9 1.6-.6m-2.7-1.7 3-1.5M4 13.3l.8-1.3.5-1m.6 1.7-.4-.2-1.5.8-.9 1.4m5.2 3 .5-2.9-1.5-1.1-1 .8M6 12.2l-.5.3-.7-.5M4 13.3l-2.7 1.6-.2.7m8.4-.4-.6-.4m-1 5.4.5-2.6H6.8m0 2.4 1 .1 1.5.2m-8 5.6 2-.8 1.8-.7 2.2-.9.9-.4m-3.1 1.3-.8 2.2m1.4-4-.6 1.9m2-.3.2-.6.6-3.4m.5-2.5h1.3m12 11.4-2.9-2.5 2.1-2.2" vector-effect="non-scaling-stroke"/></g><g id="d"><path fill="#403015" d="m8.4 3.1-.8-1.2Q6.8.7 5.5.9-.5 2 1.9 7.4q.9 2 .9 4.4 0 4.3 3.4 5.5 1 .6 1.5-.3 3.4-6.8.7-13.9m1.5 12.8q-.7 2.6-3.2 2.3-4-.3-4.4-4.7-.1-2.2-1-3.7-2.7-4.2.1-8Q3-.2 5.2 0q4.4.8 5 5.6 1 5.2-.3 10.3"/><path fill="#e74118" d="M8.4 3.1q2.7 7-.7 13.9-.4.9-1.5.4-3.3-1.2-3.4-5.5 0-2.4-1-4.5Q-.4 2 5.6.9q1.3-.2 2 1zm-4.1 7.5Q3.3 14 7 16.1 3.3 14 4.3 10.6"/><path fill="none" stroke="#f4aba2" stroke-linecap="round" stroke-linejoin="round" stroke-width="__RESOLUTION__" d="M7 16.1Q3.3 14 4.3 10.6" vector-effect="non-scaling-stroke"/></g><path id="a" fill="#382c16" d="M0-2.5q2.4 0 4 .8 1.6.6 1.7 1.7Q5.6 1.1 4 1.9t-4 .7-4-.8T-5.6 0t1.7-1.8T0-2.5" transform="translate(5.6 2.5)"/><use xlink:href="#a" id="c" width="11.3" height="5"/></defs><g clip-path="url(#b)"><g transform="translate(11.35 22.2)"><use xlink:href="#c" width="11.3" height="5" transform="translate(-4.65 -2.15)"/><use xlink:href="#d" width="10.7" height="18.3" transform="matrix(.285 .4027 .3126 -.2022 -.15 -.6)"/><use xlink:href="#d" width="10.7" height="18.3" transform="matrix(-.285 .4027 -.3126 -.2022 .95 -1.4)"/><use xlink:href="#e" width="36.1" height="36.5" transform="matrix(-.5 0 -.0813 -.4911 10.7 -3.25)"/></g></g><g clip-path="url(#f)"><g transform="translate(34.35 22.2)"><use xlink:href="#c" width="11.3" height="5" transform="translate(-4.65 -2.15)"/><use xlink:href="#d" width="10.7" height="18.3" transform="matrix(.285 .4027 .3126 -.2022 -.15 -.6)"/><use xlink:href="#d" width="10.7" height="18.3" transform="matrix(-.285 .4027 -.3126 -.2022 .95 -1.4)"/><use xlink:href="#e" width="36.1" height="36.5" transform="matrix(-.5 0 -.0804 -.491 10.65 -3.2)"/></g></g><g clip-path="url(#g)"><g transform="translate(57.35 22.2)"><use xlink:href="#c" width="11.3" height="5" transform="translate(-4.65 -2.15)"/><use xlink:href="#d" width="10.7" height="18.3" transform="matrix(.285 .4027 .3126 -.2022 -.15 -.6)"/><use xlink:href="#d" width="10.7" height="18.3" transform="matrix(-.285 .4027 -.3126 -.2022 .95 -1.4)"/><use xlink:href="#e" width="36.1" height="36.5" transform="matrix(-.5 0 -.0804 -.4911 10.65 -3.15)"/></g></g><g clip-path="url(#h)"><g transform="translate(80.35 22.2)"><use xlink:href="#c" width="11.3" height="5" transform="translate(-4.65 -2.15)"/><use xlink:href="#d" width="10.7" height="18.3" transform="matrix(.285 .4027 .3126 -.2022 -.15 -.6)"/><use xlink:href="#d" width="10.7" height="18.3" transform="matrix(-.285 .4027 -.3126 -.2022 .95 -1.4)"/><use xlink:href="#e" width="36.1" height="36.5" transform="matrix(-.5 0 -.0804 -.4912 10.65 -3)"/></g></g><g clip-path="url(#i)"><g transform="translate(103.35 22.2)"><use xlink:href="#c" width="11.3" height="5" transform="translate(-4.65 -2.15)"/><use xlink:href="#d" width="10.7" height="18.3" transform="matrix(.285 .4027 .3126 -.2022 -.15 -.6)"/><use xlink:href="#d" width="10.7" height="18.3" transform="matrix(-.285 .4027 -.3126 -.2022 .95 -1.4)"/><use xlink:href="#e" width="36.1" height="36.5" transform="matrix(-.5 0 -.0805 -.4913 10.7 -2.8)"/></g></g><g clip-path="url(#j)"><g transform="translate(126.35 22.2)"><use xlink:href="#c" width="11.3" height="5" transform="translate(-4.65 -2.15)"/><use xlink:href="#d" width="10.7" height="18.3" transform="matrix(.285 .4027 .3126 -.2022 -.15 -.6)"/><use xlink:href="#d" width="10.7" height="18.3" transform="matrix(-.285 .4027 -.3126 -.2022 .95 -1.4)"/><use xlink:href="#e" width="36.1" height="36.5" transform="matrix(-.5 0 -.0805 -.4915 10.7 -2.5)"/></g></g><g clip-path="url(#k)"><g transform="translate(149.35 22.2)"><use xlink:href="#c" width="11.3" height="5" transform="translate(-4.65 -2.15)"/><use xlink:href="#d" width="10.7" height="18.3" transform="matrix(.285 .4027 .3126 -.2022 -.15 -.6)"/><use xlink:href="#d" width="10.7" height="18.3" transform="matrix(-.285 .4027 -.3126 -.2022 .95 -1.4)"/><use xlink:href="#e" width="36.1" height="36.5" transform="matrix(-.5 0 -.0806 -.4918 10.7 -2.2)"/></g></g><g clip-path="url(#l)"><g transform="translate(172.35 22.2)"><use xlink:href="#c" width="11.3" height="5" transform="translate(-4.65 -2.15)"/><use xlink:href="#d" width="10.7" height="18.3" transform="matrix(.285 .4027 .3126 -.2022 -.15 -.6)"/><use xlink:href="#d" width="10.7" height="18.3" transform="matrix(-.285 .4027 -.3126 -.2022 .95 -1.4)"/><use xlink:href="#e" width="36.1" height="36.5" transform="matrix(-.5 0 -.0807 -.4921 10.75 -1.7)"/></g></g><g clip-path="url(#m)"><g transform="translate(195.35 22.2)"><use xlink:href="#c" width="11.3" height="5" transform="translate(-4.65 -2.15)"/><use xlink:href="#d" width="10.7" height="18.3" transform="matrix(.285 .4027 .3126 -.2022 -.15 -.6)"/><use xlink:href="#d" width="10.7" height="18.3" transform="matrix(-.285 .4027 -.3126 -.2022 .95 -1.4)"/><use xlink:href="#e" width="36.1" height="36.5" transform="matrix(-.5 0 -.0825 -.4922 10.75 -1.25)"/></g></g><g clip-path="url(#n)"><g transform="translate(218.35 22.2)"><use xlink:href="#c" width="11.3" height="5" transform="translate(-4.65 -2.15)"/><use xlink:href="#d" width="10.7" height="18.3" transform="matrix(.285 .4027 .3126 -.2022 -.15 -.6)"/><use xlink:href="#d" width="10.7" height="18.3" transform="matrix(-.285 .4027 -.3126 -.2022 .95 -1.4)"/><use xlink:href="#e" width="36.1" height="36.5" transform="matrix(-.5 0 -.083 -.4928 10.85 -.8)"/></g></g></svg>