<svg xmlns="http://www.w3.org/2000/svg" xmlns:xlink="http://www.w3.org/1999/xlink" width="1514" height="190" viewBox="0 0 1514 190"><defs><clipPath id="e"><path d="M1 1h88v188H1z"/></clipPath><clipPath id="r"><path d="M90 1h88v188H90z"/></clipPath><clipPath id="s"><path d="M179 1h88v188h-88z"/></clipPath><clipPath id="t"><path d="M268 1h88v188h-88z"/></clipPath><clipPath id="u"><path d="M357 1h88v188h-88z"/></clipPath><clipPath id="v"><path d="M446 1h88v188h-88z"/></clipPath><clipPath id="w"><path d="M535 1h88v188h-88z"/></clipPath><clipPath id="x"><path d="M624 1h88v188h-88z"/></clipPath><clipPath id="y"><path d="M713 1h88v188h-88z"/></clipPath><clipPath id="z"><path d="M802 1h88v188h-88z"/></clipPath><clipPath id="A"><path d="M891 1h88v188h-88z"/></clipPath><clipPath id="B"><path d="M980 1h88v188h-88z"/></clipPath><clipPath id="C"><path d="M1069 1h88v188h-88z"/></clipPath><clipPath id="D"><path d="M1158 1h88v188h-88z"/></clipPath><clipPath id="E"><path d="M1247 1h88v188h-88z"/></clipPath><clipPath id="F"><path d="M1336 1h88v188h-88z"/></clipPath><clipPath id="G"><path d="M1425 1h88v188h-88z"/></clipPath><g id="a"><path fill="#554d1e" d="m13.3.5 1.4.8Q11 10.7 8.4 22.1l-2.1-2.6q3.1-10.3 7-19"/><path fill="#a89f3e" d="m8.4 22.2-1.9 8.5q-1 .7-1.8-1l-.4-3.2 2-7z"/><path fill="#615b23" d="M6.6 30.7q-1.4 7.6-2.4 16-1 1.7-2.4-.1-1.4-.9-1.3-3.7 1.9-9.1 3.8-16.4l.5 3.2q.7 1.6 1.8 1m-2.7.6-.1-.5z"/><path fill="none" stroke="#000" stroke-linecap="round" stroke-linejoin="round" stroke-width="1" d="m13.3.5 1.4.8"/><path fill="none" stroke="#312c11" stroke-linecap="round" stroke-linejoin="round" stroke-width="1" d="M14.7 1.3Q11 10.7 8.4 22.1l-1.9 8.6q-1.3 7.6-2.3 16m2.4-16q-1.1.7-1.8-1l-.5-3.2"/><path fill="none" stroke="#554d1e" stroke-linecap="round" stroke-linejoin="round" stroke-width="1" d="M4.2 46.7q-1 1.7-2.4-.1-1.4-.9-1.3-3.7 1.9-9.1 3.8-16.4l2-7q3.1-10.3 7-19"/><path fill="none" stroke="#f4fbc6" stroke-linecap="round" stroke-linejoin="round" stroke-width="1" d="m3.8 30.9.1.4"/></g><g id="b"><path fill="#978f37" d="M7.8 23.9q-1.1 1.8-3.1-1.1-1.6-1.4-2-4 1.4-10 3-18.3l2.4.2q1.6 1.5 1.3 3.6-1.1 9.3-1.6 19.6m-1-18.2-.6-.9z"/><path fill="#78722c" d="M2.7 18.8q.4 2.6 2 4 2 2.9 3 1-.5 9.6-.6 20-1.7.9-3.6-.8-3-2-3-5.4l.1-1zm1.1 4.9-.6-.9z"/><path fill="none" stroke="#554d1e" stroke-linecap="round" stroke-linejoin="round" stroke-width="1" d="M2.7 18.8q.4 2.6 2 4 2 2.9 3 1M5.8.6q-1.6 8.3-3 18.3L.6 36.6m-.1 1q0 3.3 3 5.3 1.9 1.8 3.7.9"/><path fill="none" stroke="#312c11" stroke-linecap="round" stroke-linejoin="round" stroke-width="1" d="M7.8 23.9q.5-10.3 1.6-19.6M7.2 43.8q0-10.4.6-20"/><path fill="none" stroke="#f4fbc6" stroke-linecap="round" stroke-linejoin="round" stroke-width="1" d="m6.2 4.8.6.9M3.2 22.8l.6.9"/></g><g id="c"><path fill="#a89f3e" d="M2.8.5q1.5-.7 4 1.4 2.4 1.7 2.6 4.8 0 10.5.3 21.8-.5 3.7-5.3-1.3-2.8-3.9-3.1-7l.2-2.8zm1.7 6-.6-1z"/><path fill="#948534" d="m9.7 28.5.4 11.7q.2 4.7-4.8 3.7l-1.2-.3q-3-1-3.6-3.5l.8-19.9q.2 3.1 3 7 4.9 5 5.4 1.3M3 27.7l-.7-1zm2.8 14.9Q3.2 40.4 2 40.2q1.1.2 3.8 2.4"/><path fill="none" stroke="#312c11" stroke-linecap="round" stroke-linejoin="round" stroke-width="1" d="M9.4 6.7q0 10.5.3 21.8l.4 11.7q.2 4.7-4.7 3.7L4 43.7q-3-1-3.6-3.5"/><path fill="none" stroke="#554d1e" stroke-linecap="round" stroke-linejoin="round" stroke-width="1" d="m.5 40.2.8-20 .1-2.8L2.8.4m6.9 28q-.5 3.7-5.3-1.3-2.9-3.9-3.2-7"/><path fill="none" stroke="#f4fbc6" stroke-linecap="round" stroke-linejoin="round" stroke-width="1" d="m2.4 26.8.6.8m.9-22 .6.8"/><path fill="none" stroke="#312c11" stroke-linecap="round" stroke-linejoin="round" stroke-width="1" d="M2 40.2q1.2.2 3.8 2.4"/></g><g id="q"><path fill="#c8c7b7" d="M7.2 1.3q1.2 1.2 1.2 3T7.2 7.2t-3 1.2-2.8-1.2Q.1 6 .1 4.2t1.2-2.9 3-1.2 2.9 1.2"/><path fill="none" stroke="#4b5140" stroke-linecap="round" stroke-linejoin="round" stroke-width="__RESOLUTION__" d="M7.2 1.3q1.2 1.2 1.2 3T7.2 7.2t-3 1.2-2.8-1.2Q.1 6 .1 4.2t1.2-2.9 3-1.2 2.9 1.2" vector-effect="non-scaling-stroke"/><path fill="#000" d="m1.9 3 .6.4q.3.5.3 1t-.3 1.1l-.6.5-.7-.5-.3-1 .3-1.1z"/><path fill="#fff" d="M5.3 2.8q-.1.7-.5 1t-1.1.3-1-.4l-.4-1.2q.1-.6.6-1l1-.3q.7 0 1 .5z"/></g><g id="p"><path fill="#a7c53e" d="m21.4 12.8-1-2.3zM9.9 8.9q1.6-6 6.4-8.4l5.2 3.6q-4.8 3.4-6 8.8 4.8-4 9.6-5.5l1.5 3.6-3.5 3.3 4.5 1.4q.2 3.1-.5 6.2-1 6.5-3.1 12l-2.6-2.5-.2-.1q-.1-4.7-1.4-10-2.6-5.8-6.8-7.7zm5.6-2.1-2.4-1.4z"/><path fill="#7c8f2c" d="M24 33.9q-1.4 3.5-3.3 6.6-2.2-9.1-6.8-14.4l3.1-2.6-6.7.2q-.8-1.4-2.6-2.4-1.6-9.7-7.2-10 4.6-1.2 8.8.9L9.9 9l3.1 4.6q4.2 1.9 6.8 7.7 1.3 5.3 1.4 10l.2.1zM10.5 12.3l-1.3-.1z"/><path fill="none" stroke="#fbffaa" stroke-linecap="round" stroke-linejoin="round" stroke-width="1" d="m20.4 10.6 1 2.2m-8.3-7.4 2.4 1.4"/><path fill="none" stroke="#5a691b" stroke-linecap="round" stroke-linejoin="round" stroke-width="1" d="M9.9 9q1.6-6 6.4-8.5l5.2 3.6q-4.8 3.4-6 8.8m9.6-5.5 1.5 3.6-3.5 3.3m4.5 1.4q.2 3.1-.5 6.2-1 6.5-3.1 12M13 13.5q4.2 1.9 6.8 7.7 1.3 5.3 1.4 10l.2.1"/><path fill="none" stroke="#424d13" stroke-linecap="round" stroke-linejoin="round" stroke-width="1" d="M24 33.9q-1.4 3.5-3.3 6.6-2.2-9.1-6.8-14.4m3.1-2.6-6.7.2q-.8-1.4-2.6-2.4-1.6-9.7-7.2-10 4.6-1.2 8.8.9"/><path fill="none" stroke="#50441d" stroke-linecap="round" stroke-linejoin="round" stroke-width="1" d="M9.3 12.2 9.9 9m-.6 3.2h1.1"/></g><g id="o"><path fill="#8aa02e" d="m12.4 1.8 1.4-.6q3.9 1.4 3.4 4.8Q20 4.2 18.4.5l3 .6.9.2Q26 4 23 8l-5.7-.8-4.3.5zM23 7.9q2.9-4-1-6.5 7.3 2.5 7.5 7.4H27z"/><path fill="#a7c53e" d="m12.4 1.8.6 5.8 1 8-1.3.8-5.4-6.3-2.2-2.5q2.8-4 7.3-5.8m-5 8.3Q9.5 8.3 13 7.6q-3.4.7-5.6 2.5"/><path fill="#7c8f2c" d="m13 7.6 4.4-.5 5.7.8 4 1h.3l2.2-.2q0 .4 3 1.3 4 .5.1 5.4-1.7-3.7-5.2-5.7Q21 6.3 14 15.6zm-7.9 0L7.4 10l5.4 6.3Q2.8 14.7.4 19.1q.6-4 2.7-8.1.7-1.9 1.9-3.4"/><path fill="#364521" d="M27.6 9.8q3.4 1.9 5.1 5.6l-5.2 2.4q2.5-3.3 0-8"/><path fill="none" stroke="#424d13" stroke-linecap="round" stroke-linejoin="round" stroke-width="1" d="M17.3 6q.4-3.4-3.5-4.8l-1.5.6M5.1 7.6Q4 9 3.1 11"/><path fill="none" stroke="#5b691d" stroke-linecap="round" stroke-linejoin="round" stroke-width="1" d="m13 7.6 4.4-.5 5.7.8q2.8-4-1-6.5m5.3 8.3h.2m-.2-.8h-.3l-4-1"/><path fill="none" stroke="#424d13" stroke-linecap="round" stroke-linejoin="round" stroke-width="1" d="m22.2 1.4-.9-.3-3-.6M3.2 11Q1 15.1.5 19q2.3-4.3 12.3-2.6m1.3-.8 2-.4m-2 .5q7-9.3 13.4-5.9m0 0q3.5 2 5.3 5.7 3.9-4.9-.1-5.4-3.1-.9-3.1-1.2-.2-5-7.4-7.4"/><path fill="none" stroke="#6f7825" stroke-linecap="round" stroke-linejoin="round" stroke-width="1" d="m12.8 16.4 1.2-.7m-1-8.1q-3.4.7-5.6 2.5m5-8.4Q7.9 3.7 5 7.5"/></g><g id="n"><path fill="#a7c53e" d="M9.1 14.2Q14.3 8.7 11.3.5q3.4 1.4 5.9 3.1 1.4 4.9-2 10.5 4.2-2.1 6.2-6.6l.7.9q4.8 6.9 5.5 16.2h-3.4l-.7-2.4-2.1-3-5.3-3.6-4.8-2zm12-.4-1.4-1.5zm-7.7-5.7h2zm11 12-2-4z"/><path fill="#7c8f2c" d="m9.1 14.2 2.2-.6 4.8 2 5.3 3.5-6 4.4q-2.2-1.9-5.2-3-3.7-2.6-9.2-2.2zm14.4 8 .7 2.4h3.5q.2 2.8 0 6l-8.5-5.1z"/><path fill="#364521" d="M3.7 28.4Q-.8 24.5 1 18.3q5.5-.3 9.3 2.2-4.9 1.1-6.6 7.9"/><path fill="none" stroke="#5a691b" stroke-linecap="round" stroke-linejoin="round" stroke-width="1" d="M15.2 14q3.4-5.5 2-10.4-2.5-1.7-5.9-3.1 3 8.2-2.2 13.7L1 18.3q-1.8 6.2 2.7 10m7.6-14.7 4.8 2 5.3 3.6 2.1 3 .7 2.5m3.5-.1q-.8-9.3-5.6-16.2l-.7-1m0 11.8-6 4.4q-2.2-2-5.2-3.1-3.7-2.6-9.2-2.2m18.2 7.2 8.6 5q.1-3-.2-5.9"/><path fill="none" stroke="#fbffaa" stroke-linecap="round" stroke-linejoin="round" stroke-width="1" d="m19.8 12.3 1.3 1.5m-5.8-5.7h-1.9m9 8 2 4"/></g><g id="m"><path fill="#9e9354" d="M11 2.8v1q.2 2.8-1.5 4.7t-4.2 2-4.4-2l-.3-.3-.1-1Q.3 4.3 2 2.5q1.7-2 4.3-2t4.4 2zM1.8 6.2q1.7-.2.7-1.8 1 1.6-.7 1.8m3 2.4q1 .5 2.1-1.4-1 1.9-2 1.4m1.6-4.7q1-1.2 0-2 1 .8 0 2"/><path fill="#766d3f" d="m.6 8.2.3.3q1.9 2 4.4 2t4.3-2q1.6-2 1.5-4.7l-.1-1q1.6 1.8 1.8 4.4t-1.6 4.7T7 13.8q-2.5 0-4.4-2Q1 10.3.5 8.3"/><path fill="none" stroke="#474225" stroke-linecap="round" stroke-linejoin="round" stroke-width="1" d="m11 2.8-.3-.3q-2-2-4.4-2-2.6 0-4.3 2Q.3 4.3.5 7.2l.1 1"/><path fill="none" stroke="#2f2b1a" stroke-linecap="round" stroke-linejoin="round" stroke-width="1" d="M.6 8.2q.4 2 2 3.7 1.9 1.9 4.4 1.9t4.2-2 1.6-4.6-1.9-4.4"/><path fill="none" stroke="#57532d" stroke-linecap="round" stroke-linejoin="round" stroke-width="1" d="M2.5 4.4q1 1.6-.7 1.8m5.1 1q-1 1.9-2 1.4M6.4 2q1.1.6.1 1.8"/></g><g id="h"><path fill="#948534" d="M5.7 2.4v.4q-.9 1.8-2.1 3v-.1Q1.4 4.4.5 2.5q2.8-4.9 5.2-.1"/><path fill="none" stroke="#312c11" stroke-linecap="round" stroke-linejoin="round" stroke-width="1" d="M5.7 2.4v.4q-.9 1.8-2.1 3v-.1Q1.4 4.4.5 2.5"/></g><use xlink:href="#a" id="l" width="15.2" height="48"/><use xlink:href="#b" id="k" width="9.9" height="44.6"/><use xlink:href="#c" id="j" width="10.6" height="44.6"/><use xlink:href="#d" id="f" width="24.8" height="5.9"/><path id="d" fill="#241506" fill-opacity=".3" d="m0-3 8.8.9q3.6.9 3.6 2.1T8.8 2L0 3q-5.1 0-8.7-1-3.7-.8-3.6-2-.1-1.2 3.6-2.1z" transform="translate(12.35 2.95)"/><path id="i" fill="#554d1e" d="M9.2-4.6 7.9-8.4l1.5-.4L11-5.5l1.6-.3 1.8-2.9 1 .7-1 2.9 4.2 2.2-.5 1.6-3-.7Q6.9 2.6-1.3 3.3l.8-7.1q4 2 8.9 1.6z" transform="translate(1.3 8.8)"/><path id="g" fill="#000" d="m.4-1.9 4.1-.4L3.8.5l-8.3 1.9z" transform="translate(4.5 2.3)"/></defs><g clip-path="url(#e)"><g transform="translate(12.25 184.4)"><use xlink:href="#f" width="24.8" height="5.9" transform="matrix(.6768 0 0 1.4218 -8.85 -4.45)"/><use xlink:href="#g" width="9" height="4.7" transform="matrix(-.2871 .4296 -1.4204 -.5356 2.4 -10.9)"/><use xlink:href="#g" width="9" height="4.7" transform="matrix(-.2096 -.7053 .6499 -.6486 2.5 -14.8)"/><use xlink:href="#h" width="6.2" height="6.3" transform="rotate(-89.327 -9.641 -5.828)scale(.9962)"/><use xlink:href="#i" width="20" height="12.1" transform="matrix(.0237 -.4235 .4405 .0277 -6.05 -25.65)"/><use xlink:href="#j" width="10.6" height="44.6" transform="matrix(1 -.0209 -.0652 .9644 -2.4 -53.85)"/><use xlink:href="#k" width="9.9" height="44.6" transform="matrix(.9952 .0803 -.0949 .9593 3.7 -89.65)"/><use xlink:href="#l" width="15.2" height="48" transform="matrix(.9874 .1476 -.1651 .9495 16.5 -130.45)"/><use xlink:href="#m" width="13.3" height="14.3" transform="matrix(.8081 .2265 -.2251 .7717 23.6 -140.1)"/><use xlink:href="#n" width="28.3" height="31.1" transform="matrix(-.4697 .8458 .7954 .6099 24.15 -183.4)"/><use xlink:href="#m" width="13.3" height="14.3" transform="matrix(.9666 .2709 -.2693 .923 29.25 -143.5)"/><use xlink:href="#o" width="35.2" height="19.6" transform="matrix(1.0375 .0134 .1987 .929 35.75 -156.5)"/><use xlink:href="#i" width="20" height="12.1" transform="matrix(.377 -.218 -.231 -.3652 6.6 -20.25)"/><use xlink:href="#p" width="28.1" height="41" transform="matrix(.9884 -.0753 .5175 .9191 24.25 -148.4)"/><use xlink:href="#h" width="6.2" height="6.3" transform="rotate(60.153 15.143 -7.098)scale(.9984)"/><use xlink:href="#q" width="8.5" height="8.5" transform="rotate(-47.718 -31.025 1.08)scale(.7934)"/><use xlink:href="#q" width="8.5" height="8.5" transform="rotate(-4.08 -339.08 68.046)scale(.9376)"/></g></g><g clip-path="url(#r)"><g transform="translate(101.25 184.4)"><use xlink:href="#f" width="24.8" height="5.9" transform="matrix(.6768 0 0 1.4218 -8.85 -4.45)"/><use xlink:href="#g" width="9" height="4.7" transform="matrix(-.2799 .4334 -1.4268 -.5135 2.5 -10.7)"/><use xlink:href="#g" width="9" height="4.7" transform="matrix(-.1938 -.7092 .6633 -.6326 2.25 -14.45)"/><use xlink:href="#h" width="6.2" height="6.3" transform="rotate(-85.733 -10.269 -5.52)scale(.9959)"/><use xlink:href="#i" width="20" height="12.1" transform="matrix(.0226 -.4235 .4406 .0254 -6.1 -25.3)"/><use xlink:href="#j" width="10.6" height="44.6" transform="matrix(.9998 -.0221 -.0638 .9645 -2.45 -53.55)"/><use xlink:href="#k" width="9.9" height="44.6" transform="matrix(.9954 .075 -.0932 .9603 3.6 -89.4)"/><use xlink:href="#l" width="15.2" height="48" transform="matrix(.9875 .1434 -.1611 .9508 16.2 -130.2)"/><use xlink:href="#m" width="13.3" height="14.3" transform="matrix(.808 .2234 -.2234 .7717 23.35 -139.8)"/><use xlink:href="#n" width="28.3" height="31.1" transform="matrix(-.469 .8504 .7897 .6098 23.95 -182.9)"/><use xlink:href="#m" width="13.3" height="14.3" transform="matrix(.9664 .2672 -.2672 .923 29.1 -143)"/><use xlink:href="#o" width="35.2" height="19.6" transform="matrix(1.037 .0042 .2052 .9264 35.35 -156)"/><use xlink:href="#i" width="20" height="12.1" transform="matrix(.3765 -.2179 -.2305 -.3642 6.6 -19.9)"/><use xlink:href="#p" width="28.1" height="41" transform="matrix(.9858 -.0951 .5226 .9107 23.85 -147.6)"/><use xlink:href="#h" width="6.2" height="6.3" transform="rotate(58.403 15.436 -7.042)scale(.9969)"/><use xlink:href="#q" width="8.5" height="8.5" transform="rotate(-47.656 -30.835 1.197)scale(.792)"/><use xlink:href="#q" width="8.5" height="8.5" transform="rotate(-4.02 -341.286 70.056)scale(.9373)"/></g></g><g clip-path="url(#s)"><g transform="translate(190.25 184.4)"><use xlink:href="#f" width="24.8" height="5.9" transform="matrix(.6768 0 0 1.4218 -8.85 -4.45)"/><use xlink:href="#g" width="9" height="4.7" transform="matrix(-.2607 .4451 -1.4478 -.451 2.8 -10.1)"/><use xlink:href="#g" width="9" height="4.7" transform="matrix(-.1471 -.7203 .7011 -.5902 1.45 -13.15)"/><use xlink:href="#h" width="6.2" height="6.3" transform="matrix(.2587 -.961 .961 .2587 -4.8 -15.2)"/><use xlink:href="#i" width="20" height="12.1" transform="matrix(.0226 -.4236 .4408 .0217 -6.1 -24.6)"/><use xlink:href="#j" width="10.6" height="44.6" transform="matrix(1.0004 -.0304 -.0607 .9656 -2.5 -52.85)"/><use xlink:href="#k" width="9.9" height="44.6" transform="matrix(.996 .0667 -.0903 .9642 3.55 -88.9)"/><use xlink:href="#l" width="15.2" height="48" transform="matrix(.9881 .1353 -.1615 .955 16.2 -129.9)"/><use xlink:href="#m" width="13.3" height="14.3" transform="matrix(.8084 .2166 -.2235 .7733 23.2 -139.15)"/><use xlink:href="#n" width="28.3" height="31.1" transform="matrix(-.4792 .8638 .7768 .6094 24.4 -181.95)"/><use xlink:href="#m" width="13.3" height="14.3" transform="matrix(.9669 .2591 -.2673 .9249 28.8 -141.6)"/><use xlink:href="#o" width="35.2" height="19.6" transform="matrix(1.036 -.0275 .2254 .9195 34.7 -154.85)"/><use xlink:href="#i" width="20" height="12.1" transform="matrix(.3766 -.221 -.2307 -.3622 6.6 -19.35)"/><use xlink:href="#p" width="28.1" height="41" transform="matrix(.9786 -.1549 .5386 .8877 23.35 -145.65)"/><use xlink:href="#h" width="6.2" height="6.3" transform="rotate(52.886 16.51 -6.769)scale(.9967)"/><use xlink:href="#q" width="8.5" height="8.5" transform="rotate(-47.656 -30.156 1.497)scale(.792)"/><use xlink:href="#q" width="8.5" height="8.5" transform="rotate(-4.02 -332.737 70.356)scale(.9373)"/></g></g><g clip-path="url(#t)"><g transform="translate(279.25 184.4)"><use xlink:href="#f" width="24.8" height="5.9" transform="matrix(.6768 0 0 1.4218 -8.85 -4.45)"/><use xlink:href="#g" width="9" height="4.7" transform="matrix(-.2288 .4623 -1.4758 -.3483 3.25 -9.1)"/><use xlink:href="#g" width="9" height="4.7" transform="matrix(-.0706 -.7319 .761 -.5104 .1 -11.1)"/><use xlink:href="#h" width="6.2" height="6.3" transform="rotate(-56.657 -16.927 -2.242)scale(.9943)"/><use xlink:href="#i" width="20" height="12.1" transform="matrix(.0225 -.4236 .4412 .016 -6.1 -23.45)"/><use xlink:href="#j" width="10.6" height="44.6" transform="matrix(1.0012 -.0432 -.0607 .9669 -2.5 -51.8)"/><use xlink:href="#k" width="9.9" height="44.6" transform="matrix(.9965 .0573 -.0907 .9702 3.6 -88.1)"/><use xlink:href="#l" width="15.2" height="48" transform="matrix(.9889 .1227 -.1621 .9617 16.25 -129.45)"/><use xlink:href="#m" width="13.3" height="14.3" transform="matrix(.8089 .2061 -.2236 .7757 22.9 -138)"/><use xlink:href="#n" width="28.3" height="31.1" transform="matrix(-.4944 .8872 .755 .6094 24.9 -180.4)"/><use xlink:href="#m" width="13.3" height="14.3" transform="matrix(.9675 .2466 -.2675 .9278 28.4 -139.15)"/><use xlink:href="#o" width="35.2" height="19.6" transform="matrix(1.0326 -.0847 .2579 .907 33.4 -152.9)"/><use xlink:href="#i" width="20" height="12.1" transform="matrix(.3768 -.2257 -.2308 -.359 6.6 -18.35)"/><use xlink:href="#p" width="28.1" height="41" transform="matrix(.9604 -.2522 .566 .8477 22.45 -142.35)"/><use xlink:href="#h" width="6.2" height="6.3" transform="rotate(43.617 18.83 -6.375)scale(.9965)"/><use xlink:href="#q" width="8.5" height="8.5" transform="rotate(-47.656 -28.967 2.022)scale(.792)"/><use xlink:href="#q" width="8.5" height="8.5" transform="rotate(-4.02 -317.776 70.881)scale(.9373)"/></g></g><g clip-path="url(#u)"><g transform="translate(368.25 184.4)"><use xlink:href="#f" width="24.8" height="5.9" transform="matrix(.6768 0 0 1.4218 -8.85 -4.45)"/><use xlink:href="#g" width="9" height="4.7" transform="matrix(-.1813 .4829 -1.5033 -.1988 3.95 -7.65)"/><use xlink:href="#g" width="9" height="4.7" transform="matrix(.0387 -.7341 .8283 -.3916 -1.75 -8.35)"/><use xlink:href="#h" width="6.2" height="6.3" transform="rotate(-31.091 -30.076 3.35)scale(.994)"/><use xlink:href="#i" width="20" height="12.1" transform="matrix(.0224 -.4238 .4415 .0083 -6.1 -21.7)"/><use xlink:href="#j" width="10.6" height="44.6" transform="matrix(1.002 -.0605 -.0607 .9689 -2.5 -50.1)"/><use xlink:href="#k" width="9.9" height="44.6" transform="matrix(.9973 .0402 -.0911 .9785 3.55 -86.85)"/><use xlink:href="#l" width="15.2" height="48" transform="matrix(.9899 .1057 -.1597 .9715 16.15 -128.8)"/><use xlink:href="#m" width="13.3" height="14.3" transform="matrix(.8094 .192 -.2237 .779 22.5 -136.35)"/><use xlink:href="#n" width="28.3" height="31.1" transform="matrix(-.5178 .919 .7221 .6121 25.7 -178.05)"/><use xlink:href="#m" width="13.3" height="14.3" transform="matrix(.9682 .2296 -.2676 .9318 27.85 -135.85)"/><use xlink:href="#o" width="35.2" height="19.6" transform="matrix(1.0254 -.1566 .3051 .8856 31.9 -149.9)"/><use xlink:href="#i" width="20" height="12.1" transform="matrix(.3771 -.232 -.2309 -.3548 6.6 -16.9)"/><use xlink:href="#p" width="28.1" height="41" transform="matrix(.9209 -.3862 .5997 .7911 21.45 -137.65)"/><use xlink:href="#h" width="6.2" height="6.3" transform="rotate(30.802 23.63 -6.021)scale(.9963)"/><use xlink:href="#q" width="8.5" height="8.5" transform="rotate(-47.656 -27.382 2.722)scale(.792)"/><use xlink:href="#q" width="8.5" height="8.5" transform="rotate(-4.02 -297.827 71.581)scale(.9373)"/></g></g><g clip-path="url(#v)"><g transform="translate(457.25 184.4)"><use xlink:href="#f" width="24.8" height="5.9" transform="matrix(.6768 0 0 1.4218 -8.85 -4.45)"/><use xlink:href="#g" width="9" height="4.7" transform="matrix(-.1186 .502 -1.5164 -.0068 4.7 -5.8)"/><use xlink:href="#g" width="9" height="4.7" transform="matrix(.178 -.7124 .888 -.226 -4.05 -4.95)"/><use xlink:href="#h" width="6.2" height="6.3" transform="rotate(1.515 540.126 -207.643)scale(.995)"/><use xlink:href="#i" width="20" height="12.1" transform="matrix(.021 -.424 .4417 .0001 -6.1 -19.5)"/><use xlink:href="#j" width="10.6" height="44.6" transform="matrix(1.0025 -.079 -.0607 .9713 -2.5 -48.05)"/><use xlink:href="#k" width="9.9" height="44.6" transform="matrix(.9978 .022 -.0916 .989 3.55 -85.25)"/><use xlink:href="#l" width="15.2" height="48" transform="matrix(.9901 .0909 -.1606 .9829 16.2 -127.8)"/><use xlink:href="#m" width="13.3" height="14.3" transform="matrix(.8097 .1768 -.2238 .7825 21.9 -134.05)"/><use xlink:href="#n" width="28.3" height="31.1" transform="matrix(-.5465 .9596 .6798 .6169 26.55 -174.95)"/><use xlink:href="#m" width="13.3" height="14.3" transform="matrix(.9685 .2115 -.2676 .936 27.05 -131.3)"/><use xlink:href="#o" width="35.2" height="19.6" transform="matrix(1.0102 -.2488 .363 .8542 29.85 -145.8)"/><use xlink:href="#i" width="20" height="12.1" transform="matrix(.3771 -.2388 -.231 -.3502 6.65 -14.85)"/><use xlink:href="#p" width="28.1" height="41" transform="matrix(.8489 -.5422 .6394 .7166 20.35 -131.45)"/><use xlink:href="#h" width="6.2" height="6.3" transform="rotate(14.07 41.533 -6.77)scale(.9967)"/><use xlink:href="#q" width="8.5" height="8.5" transform="rotate(-47.656 -25.344 3.622)scale(.792)"/><use xlink:href="#q" width="8.5" height="8.5" transform="rotate(-4.02 -272.18 72.481)scale(.9373)"/></g></g><g clip-path="url(#w)"><g transform="translate(546.25 184.4)"><use xlink:href="#f" width="24.8" height="5.9" transform="matrix(.6768 0 0 1.4218 -8.85 -4.45)"/><use xlink:href="#g" width="9" height="4.7" transform="matrix(-.0397 .5144 -1.4984 .229 5.5 -3.5)"/><use xlink:href="#g" width="9" height="4.7" transform="matrix(.3399 -.6511 .9164 -.0132 -6.7 -.95)"/><use xlink:href="#h" width="6.2" height="6.3" transform="rotate(41.535 13.613 -9.837)scale(.9946)"/><use xlink:href="#i" width="20" height="12.1" transform="matrix(.0224 -.4242 .4417 -.0118 -6.05 -16.9)"/><use xlink:href="#j" width="10.6" height="44.6" transform="matrix(1.0028 -.1074 -.0639 .9745 -2.45 -45.55)"/><use xlink:href="#k" width="9.9" height="44.6" transform="matrix(.9978 -.0024 -.093 1.0024 3.55 -83.45)"/><use xlink:href="#l" width="15.2" height="48" transform="matrix(.9903 .0655 -.1614 .9982 16.4 -126.8)"/><use xlink:href="#m" width="13.3" height="14.3" transform="matrix(.8097 .1556 -.2253 .7883 21.3 -131.35)"/><use xlink:href="#n" width="28.3" height="31.1" transform="matrix(-.5847 1.0135 .6295 .6181 27.9 -171.6)"/><use xlink:href="#m" width="13.3" height="14.3" transform="matrix(.9685 .1861 -.2695 .9429 26.3 -126.05)"/><use xlink:href="#o" width="35.2" height="19.6" transform="matrix(.9862 -.3597 .4332 .8061 27.5 -140.95)"/><use xlink:href="#i" width="20" height="12.1" transform="matrix(.3775 -.2495 -.2312 -.3438 6.65 -12.65)"/><use xlink:href="#p" width="28.1" height="41" transform="matrix(.7332 -.7126 .6792 .6214 19.7 -124.2)"/><use xlink:href="#h" width="6.2" height="6.3" transform="rotate(-5.97 -63.739 5.33)scale(.9971)"/><use xlink:href="#q" width="8.5" height="8.5" transform="rotate(-47.718 -22.772 4.73)scale(.7934)"/><use xlink:href="#q" width="8.5" height="8.5" transform="rotate(-4.08 -236.596 71.696)scale(.9376)"/></g></g><g clip-path="url(#x)"><g transform="translate(635.25 184.4)"><use xlink:href="#f" width="24.8" height="5.9" transform="matrix(.6768 0 0 1.4218 -8.85 -4.45)"/><use xlink:href="#g" width="9" height="4.7" transform="matrix(-.5145 -.0498 -.1932 -1.506 8.3 -6.15)"/><use xlink:href="#g" width="9" height="4.7" transform="matrix(.66 .323 .033 .9173 -9.3 -14.5)"/><use xlink:href="#h" width="6.2" height="6.3" transform="rotate(81.98 8.33 -8.602)scale(.9956)"/><use xlink:href="#i" width="20" height="12.1" transform="matrix(.0218 -.4233 .442 .0312 -6.05 -22.45)"/><use xlink:href="#j" width="10.6" height="44.6" transform="matrix(1.0032 -.0101 -.0626 .9712 -2.5 -50.85)"/><use xlink:href="#k" width="9.9" height="44.6" transform="matrix(.9984 .0947 -.0917 .9964 3.45 -88.25)"/><use xlink:href="#l" width="15.2" height="48" transform="matrix(.991 .1621 -.1601 .9856 16.25 -130.45)"/><use xlink:href="#m" width="13.3" height="14.3" transform="matrix(.8103 .2349 -.2244 .7688 21.1 -134.65)"/><use xlink:href="#n" width="28.3" height="31.1" transform="matrix(-.5837 .9598 .6307 .6812 27.7 -174.3)"/><use xlink:href="#m" width="13.3" height="14.3" transform="matrix(.9693 .2809 -.2684 .9196 26.1 -128.75)"/><use xlink:href="#o" width="35.2" height="19.6" transform="matrix(.9862 -.2649 .4345 .8508 27.35 -143.6)"/><use xlink:href="#i" width="20" height="12.1" transform="matrix(.3774 -.2135 -.2318 -.3673 6.65 -16.95)"/><use xlink:href="#p" width="28.1" height="41" transform="matrix(.7327 -.6434 .6804 .6894 19.55 -127.6)"/><use xlink:href="#h" width="6.2" height="6.3" transform="rotate(-57.161 -9.006 -3.895)scale(.997)"/><use xlink:href="#q" width="8.5" height="8.5" transform="rotate(-47.656 -28.426 2.329)scale(.792)"/><use xlink:href="#q" width="8.5" height="8.5" transform="rotate(-4.02 -309.939 71.156)scale(.9373)"/></g></g><g clip-path="url(#y)"><g transform="translate(724.25 184.4)"><use xlink:href="#f" width="24.8" height="5.9" transform="matrix(.6768 0 0 1.4218 -8.85 -4.45)"/><use xlink:href="#g" width="9" height="4.7" transform="matrix(-.2552 -.4496 1.1168 -1.0287 6.35 -10.95)"/><use xlink:href="#g" width="9" height="4.7" transform="matrix(.1348 .7236 -.7121 .5786 -7.15 -19.8)"/><use xlink:href="#h" width="6.2" height="6.3" transform="rotate(106.06 5.973 -8.976)scale(.9962)"/><use xlink:href="#i" width="20" height="12.1" transform="matrix(.0218 -.4228 .4401 .0565 -6.05 -25.9)"/><use xlink:href="#j" width="10.6" height="44.6" transform="matrix(.999 .0471 -.0625 .9694 -2.5 -54.15)"/><use xlink:href="#k" width="9.9" height="44.6" transform="matrix(.9942 .1519 -.0914 .9929 3.45 -91.3)"/><use xlink:href="#l" width="15.2" height="48" transform="matrix(.9868 .219 -.1596 .9782 16.2 -132.85)"/><use xlink:href="#m" width="13.3" height="14.3" transform="matrix(.8069 .2816 -.2236 .7573 21.1 -136.75)"/><use xlink:href="#n" width="28.3" height="31.1" transform="matrix(-.5814 .9281 .628 .7185 27.65 -176.1)"/><use xlink:href="#m" width="13.3" height="14.3" transform="matrix(.9652 .3368 -.2674 .9059 26.05 -130.55)"/><use xlink:href="#o" width="35.2" height="19.6" transform="matrix(.9822 -.209 .4326 .8771 27.2 -145.35)"/><use xlink:href="#i" width="20" height="12.1" transform="matrix(.3759 -.1924 -.2308 -.3812 6.65 -19.65)"/><use xlink:href="#p" width="28.1" height="41" transform="matrix(.7297 -.6027 .6775 .7295 19.5 -129.75)"/><use xlink:href="#h" width="6.2" height="6.3" transform="rotate(-87.952 -5.174 -5.993)scale(.9991)"/><use xlink:href="#q" width="8.5" height="8.5" transform="rotate(-47.656 -31.766 .854)scale(.792)"/><use xlink:href="#q" width="8.5" height="8.5" transform="rotate(-4.02 -351.973 69.681)scale(.9373)"/></g></g><g clip-path="url(#z)"><g transform="translate(813.25 184.4)"><use xlink:href="#f" width="24.8" height="5.9" transform="matrix(.6768 0 0 1.4218 -8.85 -4.45)"/><use xlink:href="#g" width="9" height="4.7" transform="matrix(-.1024 -.5077 1.3845 -.6311 5.85 -13.4)"/><use xlink:href="#g" width="9" height="4.7" transform="matrix(-.0903 .7312 -.8562 .3347 -6.45 -20.65)"/><use xlink:href="#h" width="6.2" height="6.3" transform="rotate(114.26 5.136 -9.155)scale(.9974)"/><use xlink:href="#i" width="20" height="12.1" transform="matrix(.0236 -.4226 .4393 .0674 -6.05 -26.95)"/><use xlink:href="#j" width="10.6" height="44.6" transform="matrix(.9971 .0689 -.0651 .9613 -2.4 -54.9)"/><use xlink:href="#k" width="9.9" height="44.6" transform="matrix(.9923 .17 -.0947 .9536 3.7 -90.25)"/><use xlink:href="#l" width="15.2" height="48" transform="matrix(.9846 .2368 -.1647 .9374 16.4 -130)"/><use xlink:href="#m" width="13.3" height="14.3" transform="matrix(.8058 .2998 -.2246 .7537 23.55 -139.1)"/><use xlink:href="#n" width="28.3" height="31.1" transform="matrix(-.4685 .806 .793 .6831 24.1 -182.45)"/><use xlink:href="#m" width="13.3" height="14.3" transform="matrix(.9638 .3585 -.2686 .9015 29.15 -142)"/><use xlink:href="#o" width="35.2" height="19.6" transform="matrix(1.0345 .1067 .198 .9496 35.65 -154.45)"/><use xlink:href="#i" width="20" height="12.1" transform="matrix(.3759 -.1847 -.2303 -.387 6.6 -20.4)"/><use xlink:href="#p" width="28.1" height="41" transform="matrix(.9855 .0132 .5159 .9683 24.2 -147.35)"/><use xlink:href="#h" width="6.2" height="6.3" transform="rotate(-98.051 -4.04 -6.622)scale(.9996)"/><use xlink:href="#q" width="8.5" height="8.5" transform="rotate(-47.718 -32.777 .304)scale(.7934)"/><use xlink:href="#q" width="8.5" height="8.5" transform="rotate(-4.08 -360.84 67.271)scale(.9376)"/></g></g><g clip-path="url(#A)"><g transform="translate(902.25 184.4)"><use xlink:href="#f" width="24.8" height="5.9" transform="matrix(.6768 0 0 1.4218 -8.85 -4.45)"/><use xlink:href="#g" width="9" height="4.7" transform="matrix(-.0812 -.5112 1.4082 -.571 5.55 -13.1)"/><use xlink:href="#g" width="9" height="4.7" transform="matrix(-.0451 .7351 -.8332 .3852 -6.7 -19.9)"/><use xlink:href="#h" width="6.2" height="6.3" transform="rotate(112.09 5.35 -9.079)scale(.9961)"/><use xlink:href="#i" width="20" height="12.1" transform="matrix(.0226 -.4227 .4396 .0625 -6.05 -26.65)"/><use xlink:href="#j" width="10.6" height="44.6" transform="matrix(.9976 .0618 -.0637 .9616 -2.4 -54.6)"/><use xlink:href="#k" width="9.9" height="44.6" transform="matrix(.9931 .1588 -.0931 .955 3.65 -90.05)"/><use xlink:href="#l" width="15.2" height="48" transform="matrix(.9853 .2268 -.1608 .9398 16.25 -129.9)"/><use xlink:href="#m" width="13.3" height="14.3" transform="matrix(.8062 .2919 -.2229 .7549 23.4 -138.95)"/><use xlink:href="#n" width="28.3" height="31.1" transform="matrix(-.468 .8132 .7879 .6778 24 -182.1)"/><use xlink:href="#m" width="13.3" height="14.3" transform="matrix(.9643 .3491 -.2666 .9029 29.05 -141.65)"/><use xlink:href="#o" width="35.2" height="19.6" transform="matrix(1.0347 .0913 .2047 .9461 35.35 -154.2)"/><use xlink:href="#i" width="20" height="12.1" transform="matrix(.3756 -.1869 -.23 -.3846 6.65 -20.15)"/><use xlink:href="#p" width="28.1" height="41" transform="matrix(.9836 -.0125 .5214 .957 23.85 -146.65)"/><use xlink:href="#h" width="6.2" height="6.3" transform="rotate(-95.312 -4.37 -6.452)scale(.9992)"/><use xlink:href="#q" width="8.5" height="8.5" transform="rotate(-47.656 -32.534 .447)scale(.792)"/><use xlink:href="#q" width="8.5" height="8.5" transform="rotate(-4.02 -361.922 68.619)scale(.9373)"/></g></g><g clip-path="url(#B)"><g transform="translate(991.25 184.4)"><use xlink:href="#f" width="24.8" height="5.9" transform="matrix(.6768 0 0 1.4218 -8.85 -4.45)"/><use xlink:href="#g" width="9" height="4.7" transform="matrix(-.0183 -.5173 1.4672 -.3948 4.65 -12.3)"/><use xlink:href="#g" width="9" height="4.7" transform="matrix(.0897 .7304 -.7482 .5307 -7.1 -17.5)"/><use xlink:href="#h" width="6.2" height="6.3" transform="rotate(106.06 5.948 -8.995)scale(.9962)"/><use xlink:href="#i" width="20" height="12.1" transform="matrix(.0226 -.4229 .4406 .0548 -6.05 -25.8)"/><use xlink:href="#j" width="10.6" height="44.6" transform="matrix(.9998 .0444 -.0606 .9633 -2.45 -53.8)"/><use xlink:href="#k" width="9.9" height="44.6" transform="matrix(.9953 .1414 -.0903 .9597 3.6 -89.5)"/><use xlink:href="#l" width="15.2" height="48" transform="matrix(.9875 .2096 -.1614 .9451 16.25 -129.7)"/><use xlink:href="#m" width="13.3" height="14.3" transform="matrix(.8079 .2776 -.2234 .7583 23.25 -138.35)"/><use xlink:href="#n" width="28.3" height="31.1" transform="matrix(-.4789 .83 .7763 .669 24.35 -181.15)"/><use xlink:href="#m" width="13.3" height="14.3" transform="matrix(.9663 .3321 -.2672 .907 28.85 -140.35)"/><use xlink:href="#o" width="35.2" height="19.6" transform="matrix(1.0354 .0499 .2253 .9385 34.7 -153.3)"/><use xlink:href="#i" width="20" height="12.1" transform="matrix(.3764 -.1933 -.2305 -.3803 6.65 -19.55)"/><use xlink:href="#p" width="28.1" height="41" transform="matrix(.978 -.082 .5383 .9301 23.4 -144.9)"/><use xlink:href="#h" width="6.2" height="6.3" transform="rotate(-87.952 -5.147 -5.917)scale(.9991)"/><use xlink:href="#q" width="8.5" height="8.5" transform="rotate(-47.656 -31.628 .847)scale(.792)"/><use xlink:href="#q" width="8.5" height="8.5" transform="rotate(-4.02 -350.523 69.019)scale(.9373)"/></g></g><g clip-path="url(#C)"><g transform="translate(1080.25 184.4)"><use xlink:href="#f" width="24.8" height="5.9" transform="matrix(.6768 0 0 1.4218 -8.85 -4.45)"/><use xlink:href="#g" width="9" height="4.7" transform="matrix(.0854 -.5099 1.5165 -.0932 3.25 -11.1)"/><use xlink:href="#g" width="9" height="4.7" transform="matrix(.3056 .6691 -.5532 .7325 -8.05 -13.25)"/><use xlink:href="#h" width="6.2" height="6.3" transform="rotate(96.02 6.97 -8.75)scale(.9963)"/><use xlink:href="#i" width="20" height="12.1" transform="matrix(.0225 -.4231 .4418 .0428 -6.05 -24.35)"/><use xlink:href="#j" width="10.6" height="44.6" transform="matrix(1.0025 .0174 -.0607 .9651 -2.45 -52.55)"/><use xlink:href="#k" width="9.9" height="44.6" transform="matrix(.9979 .1179 -.0907 .9666 3.65 -88.55)"/><use xlink:href="#l" width="15.2" height="48" transform="matrix(.9903 .183 -.1623 .9537 16.3 -129.2)"/><use xlink:href="#m" width="13.3" height="14.3" transform="matrix(.8101 .2556 -.2239 .7636 23 -137.45)"/><use xlink:href="#n" width="28.3" height="31.1" transform="matrix(-.4951 .8588 .7561 .6564 24.95 -179.7)"/><use xlink:href="#m" width="13.3" height="14.3" transform="matrix(.9689 .3057 -.2678 .9134 28.45 -138.25)"/><use xlink:href="#o" width="35.2" height="19.6" transform="matrix(1.034 -.0222 .2583 .9244 33.5 -151.6)"/><use xlink:href="#i" width="20" height="12.1" transform="matrix(.3774 -.2032 -.2311 -.3737 6.65 -18.5)"/><use xlink:href="#p" width="28.1" height="41" transform="matrix(.9617 -.1944 .5668 .8837 22.55 -141.8)"/><use xlink:href="#h" width="6.2" height="6.3" transform="rotate(-75.18 -6.7 -5.003)scale(.9981)"/><use xlink:href="#q" width="8.5" height="8.5" transform="rotate(-47.656 -30.043 1.547)scale(.792)"/><use xlink:href="#q" width="8.5" height="8.5" transform="matrix(.935 -.0657 .0657 .935 -5.7 -23)"/></g></g><g clip-path="url(#D)"><g transform="translate(1169.25 184.4)"><use xlink:href="#f" width="24.8" height="5.9" transform="matrix(.6768 0 0 1.4218 -8.85 -4.45)"/><use xlink:href="#g" width="9" height="4.7" transform="matrix(.2247 -.4647 1.4808 .3301 1.65 -9.4)"/><use xlink:href="#g" width="9" height="4.7" transform="matrix(.3897 .6222 -.4521 .7969 -8.05 -12.5)"/><use xlink:href="#h" width="6.2" height="6.3" transform="rotate(81.98 8.355 -8.573)scale(.9956)"/><use xlink:href="#i" width="20" height="12.1" transform="matrix(.0225 -.4235 .443 .0237 -6.15 -22.35)"/><use xlink:href="#j" width="10.6" height="44.6" transform="matrix(1.0054 -.0257 -.0608 .9678 -2.5 -50.65)"/><use xlink:href="#k" width="9.9" height="44.6" transform="matrix(1.0008 .075 -.0913 .9764 3.55 -87.25)"/><use xlink:href="#l" width="15.2" height="48" transform="matrix(.9933 .1403 -.1601 .9669 16.2 -128.7)"/><use xlink:href="#m" width="13.3" height="14.3" transform="matrix(.8123 .2204 -.2244 .7721 22.55 -136.1)"/><use xlink:href="#n" width="28.3" height="31.1" transform="matrix(-.5195 .9019 .7247 .6379 25.75 -177.7)"/><use xlink:href="#m" width="13.3" height="14.3" transform="matrix(.9715 .2636 -.2684 .9235 27.9 -135.4)"/><use xlink:href="#o" width="35.2" height="19.6" transform="matrix(1.0289 -.121 .3062 .8972 31.95 -149.35)"/><use xlink:href="#i" width="20" height="12.1" transform="matrix(.3783 -.2191 -.2318 -.3632 6.6 -17)"/><use xlink:href="#p" width="28.1" height="41" transform="matrix(.9241 -.3545 .6018 .8129 21.55 -137.45)"/><use xlink:href="#h" width="6.2" height="6.3" transform="rotate(-57.161 -9.136 -3.549)scale(.997)"/><use xlink:href="#q" width="8.5" height="8.5" transform="rotate(-47.656 -27.835 2.522)scale(.792)"/><use xlink:href="#q" width="8.5" height="8.5" transform="rotate(-4.02 -302.79 70.694)scale(.9373)"/></g></g><g clip-path="url(#E)"><g transform="translate(1258.25 184.4)"><use xlink:href="#f" width="24.8" height="5.9" transform="matrix(.6768 0 0 1.4218 -8.85 -4.45)"/><use xlink:href="#g" width="9" height="4.7" transform="matrix(.376 -.3524 1.2611 .8378 -.05 -7.55)"/><use xlink:href="#g" width="9" height="4.7" transform="matrix(.5962 .4266 -.1124 .9089 -8 -9.85)"/><use xlink:href="#h" width="6.2" height="6.3" transform="rotate(63.902 10.289 -8.588)scale(.994)"/><use xlink:href="#i" width="20" height="12.1" transform="matrix(.021 -.4239 .4435 .0018 -6.15 -19.8)"/><use xlink:href="#j" width="10.6" height="44.6" transform="matrix(1.0064 -.0751 -.0608 .9712 -2.5 -48.3)"/><use xlink:href="#k" width="9.9" height="44.6" transform="matrix(1.0017 .0259 -.0919 .9888 3.55 -85.45)"/><use xlink:href="#l" width="15.2" height="48" transform="matrix(.994 .0947 -.1611 .9825 16.3 -128)"/><use xlink:href="#m" width="13.3" height="14.3" transform="matrix(.8129 .1801 -.2245 .7818 22 -134.25)"/><use xlink:href="#n" width="28.3" height="31.1" transform="matrix(-.5485 .9576 .6825 .6196 26.65 -175.1)"/><use xlink:href="#m" width="13.3" height="14.3" transform="matrix(.9723 .2154 -.2686 .9351 27.15 -131.45)"/><use xlink:href="#o" width="35.2" height="19.6" transform="matrix(1.0141 -.2449 .3646 .8558 29.95 -145.95)"/><use xlink:href="#i" width="20" height="12.1" transform="matrix(.3786 -.2373 -.2319 -.3511 6.65 -15.05)"/><use xlink:href="#p" width="28.1" height="41" transform="matrix(.8522 -.5389 .642 .7192 20.5 -131.65)"/><use xlink:href="#h" width="6.2" height="6.3" transform="rotate(-34.086 -14.275 -1.164)scale(.9964)"/><use xlink:href="#q" width="8.5" height="8.5" transform="rotate(-47.656 -24.948 3.797)scale(.792)"/><use xlink:href="#q" width="8.5" height="8.5" transform="rotate(-4.02 -266.455 71.969)scale(.9373)"/></g></g><g clip-path="url(#F)"><g transform="translate(1347.25 184.4)"><use xlink:href="#f" width="24.8" height="5.9" transform="matrix(.6768 0 0 1.4218 -8.85 -4.45)"/><use xlink:href="#g" width="9" height="4.7" transform="matrix(.4911 -.1561 .7737 1.3014 -1.2 -5.15)"/><use xlink:href="#g" width="9" height="4.7" transform="matrix(.7321 -.0224 .4589 .7904 -7 -4.25)"/><use xlink:href="#h" width="6.2" height="6.3" transform="rotate(41.535 13.613 -9.837)scale(.9946)"/><use xlink:href="#i" width="20" height="12.1" transform="matrix(.0216 -.4245 .4423 -.0276 -6.05 -16.65)"/><use xlink:href="#j" width="10.6" height="44.6" transform="matrix(1.0038 -.1416 -.062 .9733 -2.45 -45.35)"/><use xlink:href="#k" width="9.9" height="44.6" transform="matrix(.999 -.0405 -.093 .9929 3.6 -82.9)"/><use xlink:href="#l" width="15.2" height="48" transform="matrix(.9912 .0287 -.162 .9912 16.45 -126.15)"/><use xlink:href="#m" width="13.3" height="14.3" transform="matrix(.8105 .1258 -.225 .7951 22.05 -132.7)"/><use xlink:href="#n" width="28.3" height="31.1" transform="matrix(-.5483 .992 .6799 .5732 26.8 -173.9)"/><use xlink:href="#m" width="13.3" height="14.3" transform="matrix(.9694 .1505 -.2691 .951 27.3 -130.35)"/><use xlink:href="#o" width="35.2" height="19.6" transform="matrix(1.0118 -.3115 .3624 .8299 30 -144.95)"/><use xlink:href="#i" width="20" height="12.1" transform="matrix(.3779 -.2619 -.2308 -.3351 6.65 -12.75)"/><use xlink:href="#p" width="28.1" height="41" transform="matrix(.8506 -.5943 .6393 .6753 20.55 -130.05)"/><use xlink:href="#h" width="6.2" height="6.3" transform="rotate(-5.97 -63.51 10.15)scale(.9971)"/><use xlink:href="#q" width="8.5" height="8.5" transform="rotate(-47.718 -21.415 5.33)scale(.7934)"/><use xlink:href="#q" width="8.5" height="8.5" transform="rotate(-4.08 -219.75 72.296)scale(.9376)"/></g></g><g clip-path="url(#G)"><g transform="translate(1436.25 184.4)"><use xlink:href="#f" width="24.8" height="5.9" transform="matrix(.6768 0 0 1.4218 -8.85 -4.45)"/><use xlink:href="#g" width="9" height="4.7" transform="matrix(.4911 -.1561 .7737 1.3014 -1.2 -5.15)"/><use xlink:href="#g" width="9" height="4.7" transform="matrix(.7321 -.0224 .4589 .7904 -7 -4.25)"/><use xlink:href="#h" width="6.2" height="6.3" transform="rotate(41.535 13.613 -9.837)scale(.9946)"/><use xlink:href="#i" width="20" height="12.1" transform="matrix(.0224 -.4245 .4422 -.0275 -6.05 -16.7)"/><use xlink:href="#j" width="10.6" height="44.6" transform="matrix(1.004 -.1431 -.0639 .9756 -2.45 -45.45)"/><use xlink:href="#k" width="9.9" height="44.6" transform="matrix(.999 -.038 -.093 1.0045 3.55 -83.5)"/><use xlink:href="#l" width="15.2" height="48" transform="matrix(.9915 .0301 -.1615 1.0028 16.4 -127.25)"/><use xlink:href="#m" width="13.3" height="14.3" transform="matrix(.8106 .1265 -.2256 .7954 21.3 -132.05)"/><use xlink:href="#n" width="28.3" height="31.1" transform="matrix(-.5854 1.0332 .6303 .5949 27.9 -172.4)"/><use xlink:href="#m" width="13.3" height="14.3" transform="matrix(.9696 .1513 -.2698 .9514 26.3 -126.8)"/><use xlink:href="#o" width="35.2" height="19.6" transform="matrix(.9873 -.3945 .4337 .7897 27.55 -141.8)"/><use xlink:href="#i" width="20" height="12.1" transform="matrix(.378 -.2627 -.2315 -.3351 6.65 -12.85)"/><use xlink:href="#p" width="28.1" height="41" transform="matrix(.7341 -.7379 .6801 .5965 19.75 -124.8)"/><use xlink:href="#h" width="6.2" height="6.3" transform="rotate(-5.97 -63.51 10.15)scale(.9971)"/><use xlink:href="#q" width="8.5" height="8.5" transform="rotate(-47.718 -21.415 5.33)scale(.7934)"/><use xlink:href="#q" width="8.5" height="8.5" transform="rotate(-4.08 -219.75 72.296)scale(.9376)"/></g></g></svg>