<svg xmlns="http://www.w3.org/2000/svg" xmlns:xlink="http://www.w3.org/1999/xlink" width="731" height="88" viewBox="0 0 731 88"><defs><use xlink:href="#a" id="ad" width="22.9" height="21.6"/><use xlink:href="#b" id="av" width="10.7" height="9.7"/><use xlink:href="#c" id="au" width="22.8" height="30.1"/><use xlink:href="#d" id="at" width="23.1" height="27.4"/><use xlink:href="#e" id="as" width="13.1" height="18.9"/><use xlink:href="#f" id="ar" width="12.6" height="19.8"/><use xlink:href="#g" id="aq" width="13.2" height="11.2"/><use xlink:href="#h" id="ap" width="15.3" height="55"/><use xlink:href="#i" id="ao" width="14.2" height="11.1"/><use xlink:href="#j" id="an" width="13.3" height="13.9"/><use xlink:href="#k" id="am" width="16.1" height="20.4"/><use xlink:href="#l" id="al" width="26.3" height="12.1"/><use xlink:href="#m" id="ak" width="8.1" height="7.5"/><use xlink:href="#n" id="aj" width="26.1" height="27.4"/><use xlink:href="#o" id="ai" width="24.1" height="20"/><use xlink:href="#p" id="ah" width="8" height="8.8"/><use xlink:href="#q" id="ag" width="12.8" height="14.2"/><use xlink:href="#r" id="af" width="14.7" height="4.3"/><use xlink:href="#s" id="ae" width="34.7" height="28.6"/><use xlink:href="#t" id="aw" width="27.9" height="27.9"/><use xlink:href="#u" id="aO" width="10.7" height="9.7"/><use xlink:href="#v" id="aN" width="22.8" height="30.1"/><use xlink:href="#w" id="aM" width="23.1" height="27.4"/><use xlink:href="#x" id="aL" width="13.1" height="18.9"/><use xlink:href="#y" id="aK" width="12.6" height="19.8"/><use xlink:href="#z" id="aJ" width="13.2" height="11.2"/><use xlink:href="#A" id="aI" width="15.3" height="55"/><use xlink:href="#B" id="aH" width="14.2" height="11.1"/><use xlink:href="#C" id="aG" width="13.3" height="13.9"/><use xlink:href="#D" id="aF" width="16.1" height="20.4"/><use xlink:href="#E" id="aE" width="26.3" height="12.1"/><use xlink:href="#F" id="aD" width="8.1" height="7.5"/><use xlink:href="#G" id="aC" width="26.1" height="27.4"/><use xlink:href="#H" id="aB" width="24.1" height="20"/><use xlink:href="#I" id="aA" width="8" height="8.8"/><use xlink:href="#J" id="az" width="12.8" height="14.2"/><use xlink:href="#K" id="ax" width="14.7" height="4.3"/><use xlink:href="#L" id="bg" width="10.7" height="9.7"/><use xlink:href="#M" id="bf" width="22.8" height="30.1"/><use xlink:href="#N" id="be" width="23.1" height="27.4"/><use xlink:href="#O" id="bd" width="13.1" height="18.9"/><use xlink:href="#P" id="bc" width="12.6" height="19.8"/><use xlink:href="#Q" id="bb" width="13.2" height="11.2"/><use xlink:href="#R" id="ba" width="15.3" height="55"/><use xlink:href="#S" id="aZ" width="15.3" height="55"/><use xlink:href="#T" id="aY" width="14.2" height="11.1"/><use xlink:href="#U" id="aX" width="13.3" height="13.9"/><use xlink:href="#V" id="aW" width="16.1" height="20.4"/><use xlink:href="#W" id="aV" width="26.3" height="12.1"/><use xlink:href="#X" id="aU" width="8.1" height="7.5"/><use xlink:href="#Y" id="aT" width="26.1" height="27.4"/><use xlink:href="#Z" id="aS" width="24.1" height="20"/><use xlink:href="#aa" id="aR" width="8" height="8.8"/><use xlink:href="#ab" id="aQ" width="12.8" height="14.2"/><use xlink:href="#ac" id="aP" width="14.7" height="4.3"/><use xlink:href="#ad" id="bx" width="22.9" height="21.6" transform="matrix(-1 0 0 1 29.95 4.5)"/><use xlink:href="#ae" id="br" width="34.7" height="28.6" transform="scale(1.21)"/><use xlink:href="#ad" id="bo" width="22.9" height="21.6" transform="matrix(-1.19 0 0 1.19 32.1 3)"/><use xlink:href="#ad" id="bm" width="22.9" height="21.6" transform="matrix(-1.39 0 0 1.39 34.2 1.55)"/><use xlink:href="#ad" id="bj" width="22.9" height="21.6" transform="matrix(-1.58 0 0 1.58 36.35 0)"/><g id="a"><path fill="#f00f0f" d="M15.4 5.5Q17 5 20.7 3q-1.6 2.6-2 4.6-.3 1.1.6 2.2 1 1.3 3.6 1.8-1.2 0-2.4.7-1 .7-1.3 1.3-.5 1 .5 2.7.7 1.5 2.7 3.8-6.6-3.5-9.2-1.8-2.1 1.5-2.9 3.3 0-1.7-.3-2.4-.5-2.1-1.8-2.5-3-1-7.4.4.8-.5 2.3-2.6 1-1.2.6-3.1Q3.3 8.7 0 6.2l3.4.4 2.9-.4q1-.3 1.2-6.1V0q2 3.1 4 4.9 1.5 1.2 3.9.5"/><path fill="#a6691f" d="M12.2 13.7h-.7l-.6-.4-3.5-6.1q-.2-.3 0-.8l.7-.6L9.5 5l.9-.1q.4 0 .5.5-2.3.8-2.5 1.4 2.5 5.3 3.7 6.9m1.9 4h-.7q-.7-.1-.9-.6t0-1.2q.3-.5 1-.9.3-.2.7-.2-1.2.4-1 1.7 0 1.2 1 1.2z"/><path fill="#fc0" d="M12.2 13.7q-1.3-1.6-3.7-6.9.1-.6 2.4-1.5l2.4 6.6v.8l-.6.7-.3.2zm1.9 1 .5.1q.5.2.8.7.2.5 0 1.1l-.9 1-.4.1q-1 0-1-1.3-.2-1.2 1-1.6"/></g><g id="b"><path fill="#900" fill-opacity=".5" d="M9 2.4q.8.5 1.3 1.4.6 1.2.2 2.3l-.1.1Q9.6 6 5.8 2.3q-2.4-2.5-1.7.9.5 2-.7 3.6l-3 2.9q-.7-.2-.1-1.1t.6-2.3l-.2-3Q.6 2.1 2.3.9q1.1-1 2.4-.8L8.3 2z"/><path fill="#900" fill-opacity=".5" d="m.5 9.7 2.9-2.9q1.2-1.5.7-3.6-.7-3.4 1.7-.9 3.8 3.8 4.6 3.9l-.5.7-1.2.6-2.6-.2-.9-.6Q1.5 9.8.6 9.7z"/><path fill="none" stroke="#900" stroke-linecap="round" stroke-linejoin="round" stroke-width="__RESOLUTION__" d="M9 2.4 8.3 2 4.7 0Q3.4 0 2.3 1 .6 2 .6 3.3l.2 3q0 1.4-.6 2.3t.2 1h.1q.9.2 4.6-2.9l1 .6 2.5.3L10 7" vector-effect="non-scaling-stroke"/></g><g id="c"><path fill="#900" d="M2.1 21.6 0 14.5l3 1.9-.3-.7 4.9-.6.6.4 1.9-2.3.5.1 1.7-4.7L20.4 0l2.4 5.4-2.5 6.7-2.6 2.6 4 4.5-4.6 3.4-3-.6 3.4 7.1-5.6-.4-3.8-3.3 1.4 4.7-4-3.2zm9.2-.2 2.7.6z"/><path fill="none" stroke="#900" stroke-linecap="round" stroke-linejoin="round" stroke-width="__RESOLUTION__" d="M2.1 21.6 5.5 27l4 3.2m-1.4-4.7 3.9 3.3 5.6.3L14 22m3 .6 4.7-3.4M14.1 22l-2.8-.5m2.7.5 3 .6" vector-effect="non-scaling-stroke"/></g><g id="d"><path fill="#900" d="M11 0h8.4l3.8 11.6-5.1 5.3-4.6.3L6 11.6v-.4l.4-5.1z"/><path fill="none" stroke="#900" stroke-linecap="round" stroke-linejoin="round" stroke-width="__RESOLUTION__" d="M11 0h8.4l3.8 11.6-5.1 5.3-4.6.3L6 11.6v-.4l.4-5.1z" vector-effect="non-scaling-stroke"/><path fill="#900" d="M1.3 27.4H.7q-1.8-6.1 1-14 2.6-3.1 4.1-4.5 2.3-2.2 6.3-1l-7.8 8.2z"/><path fill="#900" d="m12 8 1.2.4 2.3 8q-.7 3.8-5 7.5-4.6 3.8-9.3 3.5l3.1-11.3z"/><path fill="none" stroke="#900" stroke-linecap="round" stroke-linejoin="round" stroke-width="__RESOLUTION__" d="M1.3 27.4H.7q-1.8-6.1 1-14 2.6-3.1 4.1-4.5 2.3-2.2 6.3-1l1 .5 2.4 8q-.7 3.8-5 7.5-4.6 3.8-9.3 3.5" vector-effect="non-scaling-stroke"/><path fill="#900" d="m15.8 3.4.2-.5Q17.2.6 18.5.7q1.3-.1 2.1 2l.6 2.5v.2q-.3 1.6-1.4 2.4-.3-2.7-4-4.5"/><path fill="#900" d="M21.1 5.5v2.7q-.1 3-1.1 5.2-.6 1.3-1.3 1.8-2.1-1.8-2.2-5L19.7 8q1-.8 1.4-2.4"/><path fill="#900" d="m18.7 15.2-1 .5q-1.4-.2-2.3-2.3-.4-1.1-.5-2.4l1.6-.8q0 3.1 2.2 5"/><path fill="#900" d="M15 11q-.3-1.3-.2-2.8.2-2.8 1-4.8 3.6 1.8 3.9 4.5l-3.2 2.4zm4.4-1.8-.3.9-.8.4q-.4 0-.7-.4l-.3-.4 1.8-1.3z"/></g><g id="e"><path fill="#900" d="M2.6.6 9.4 0l3.7 5.3-3 9.7-4.5 3.9-1.8-1.2L0 8.8l.8-6.3z"/><path fill="none" stroke="#900" stroke-linecap="round" stroke-linejoin="round" stroke-width="__RESOLUTION__" d="M13 5.3 9.5 0 2.6.6m0 0L.8 2.5 0 8.8l3.8 8.9 1.8 1.2L10 15l3-9.7" vector-effect="non-scaling-stroke"/></g><g id="f"><path fill="#900" d="M2.8 18.6 0 17.7l1.5-2-.5-1 2.6-6.5L11.2 0l1.4 5.4-2 4.6 2 .5-2.7 6.3-3.6 3-3-1-.3.3z"/><path fill="none" stroke="#900" stroke-linecap="round" stroke-linejoin="round" stroke-width="__RESOLUTION__" d="m2.8 18.6.2.5m6.9-2.3 2.7-6.4m-2-.4 2-4.7" vector-effect="non-scaling-stroke"/></g><g id="g" fill="#900"><path d="M12.7.7Q11 4.7 10 5.5q-1.8-2-3.6-1.2Q4.9 2.7 3 2.7 7.2 2.2 9.3 0z"/><path d="M3 2.7q1.9 0 3.5 1.6 1.8-.7 3.6 1.2 1-.8 2.6-4.8 1.1 1-.4 5L9.7 9.4q-2.9 2-4.3-1.6-3.3 1-4.1-1.8-.8-1.8.7-3.2z"/><path d="m2.2 3.4.8.1q.9.3 1.4 1.2t-.2 1.2q-.6.4-1 2.6-.3 1.3-.9 1.5-1.7-2.7-.1-6.6"/><path d="M2.3 10q-.4 0-1.1-.4t-1-2.2Q-.3 5.6 0 5.1q.5-1 1.3-1.5l.8-.3q-1.6 4 .1 6.6M6 11.1l-1-.6q-.6-.7-.8-2.6-.2-1.7.1-2.3.5-1 1.3-1.2l.7-.1Q4.5 8 6 11.1"/><path d="m6.5 4.4.8.4q.8.5 1.2 1.5t-.3 1.2-1.1 2.4q-.3 1.3-1 1.3-1.4-3.1.4-6.8"/></g><g id="h"><path fill="none" stroke="#900" stroke-linecap="round" stroke-linejoin="round" stroke-width="__RESOLUTION__" d="M10 33.1Q7.7 15.9 0 0" vector-effect="non-scaling-stroke"/><path fill="#900" d="M10.1 48.8q-.5 0-.8.7l-.2.9v.4q.1.8.6 1.2t.9.3l.8-.7q.3-.7.2-1.4l-.2-.5-.4-.7q-.4-.4-.9-.3M11 32q.2 3.3 2 9.4.4 1.8 2 5.3l.2 1.3q-2.2 6.7-4.8 7-2.6.1-4-6.6 2.5-6.6 2.3-15.9z"/><path fill="#900" d="M10.1 48.8q.5-.2.9.3l.4.6.2.5-.2 1.4-.8.7q-.5.1-1-.3t-.5-1.2v-.4l.2-.9q.2-.6.8-.7"/></g><g id="i"><path fill="#900" fill-opacity=".5" d="m10.4 4 .6-.1q1.1 0 2 .8t1 1.9-.4 1.9-1.6.8-2-.6l-.7-.5L8 6.7q-.7-1.2.5-1.8z"/><path fill="none" stroke="#900" stroke-linecap="round" stroke-linejoin="round" stroke-width="__RESOLUTION__" d="m10.4 4 .6-.1q1.1 0 2 .8t1 1.9-.4 1.9-1.6.8-2-.6" vector-effect="non-scaling-stroke"/><path fill="#900" d="m3 3.2.5 4L5 9.8H2l.4-1.2-2-.7z"/><path fill="#900" d="M5 9.8 3.5 7.2l-.5-4 2.5 3.7v2.9z"/><path fill="none" stroke="#900" stroke-linecap="round" stroke-linejoin="round" stroke-width="__RESOLUTION__" d="M3 3.2.4 7.9l2 .8-.4 1 3 .1h.5V6.9z" vector-effect="non-scaling-stroke"/><path fill="#900" fill-opacity=".5" d="M10.5 8.2q.2 1.2-.5 2t-1.8.9-2.1-.8q-.8-.9-1-2Q5 7 5.6 6q.7-.8 1.9-.8t2 .8 1 2"/><path fill="none" stroke="#900" stroke-linecap="round" stroke-linejoin="round" stroke-width="__RESOLUTION__" d="M10.5 8.2q.2 1.2-.5 2t-1.8.9-2.1-.8q-.8-.9-1-2Q5 7 5.6 6q.7-.8 1.9-.8t2 .8 1 2" vector-effect="non-scaling-stroke"/><path fill="#900" fill-opacity=".5" d="m10.6 4.7.3-.2zM10 .4q.5 1.2.4 2.9l.9.9-.4.3.9 1.2-6 1.7-2.3-3.5 1.3-2.6zM7.2 5l-2.4.2.2-.9-.2.9zM1 6.8l.7-.3.4 1-.5-1zM.6 6q.7.1 1 .5-.3-.4-1-.5m1.7-.3L3 8.2.9 7.8 0 6.5.3 5z"/><path fill="none" stroke="#900" stroke-linecap="round" stroke-linejoin="round" stroke-width="__RESOLUTION__" d="m10.9 4.5-.3.2M10 .4q.5 1.2.4 2.9l.9.9-.4.3M5 4.3l-.2.9 2.4-.1M2.1 7.4l-.5-1-.6.2m.6-.2q-.4-.4-1-.5m2.3 2.2-2-.3L0 6.5.3 5l2 .6" vector-effect="non-scaling-stroke"/><path fill="#900" fill-opacity=".5" d="m10.3 1.8-.6-.6-.3.3Q9 1.9 9 4l-.4-2.6.7-.9 1 .7z"/><path fill="#900" fill-opacity=".5" d="m9.4 1.5.2-.3.7.6v.6l-.7-.8z"/><path fill="#900" d="M9 4q.2-2.1.4-2.5h.2q-.4 1.6-.1 2.3h-.1z"/><path fill="#900" d="m9.6 1.6.7.8v.8l-.8.5q-.3-.6 0-2.2M7.9 4.8l-.6.2q-.6.2-1.4-.5v-1h1l.6.3zv-.2z"/><path fill="#900" fill-opacity=".5" d="m7.8 4.7-.4-1-.6-.3L6 3l-.6-.1.2-.5Q7 2.8 8 4v.6z"/><path fill="#900" d="M6.8 3.4h-1v1h-.3l-.1-1.5.6.1z"/><path fill="#900" fill-opacity=".5" d="m5.5 4.4-1.6-3h1.5L7.8 3 8 4Q7 3 5.6 2.4l-.2.5z"/><path fill="#900" d="m12 4 1.1 1.5-.4.5-1.4.6-1.8-1.1 1.2-.6 1.2.6.3-.5z"/><path fill="none" stroke="#900" stroke-linecap="round" stroke-linejoin="round" stroke-width="__RESOLUTION__" d="m12 4 1.1 1.5-.4.5-1.4.6-1.8-1.1 1.2-.6 1.2.6.3-.5z" vector-effect="non-scaling-stroke"/><path fill="#900" d="m7.2 5.7 1.7-.3-1.2 2-2.1.5-.9-.1.1-1.9.5 1 1 .1z"/><path fill="none" stroke="#900" stroke-linecap="round" stroke-linejoin="round" stroke-width="__RESOLUTION__" d="M7.2 5.7 6.2 7l-.9-.1-.5-1-.1 1.9.9.1 2.1-.5 1.2-2z" vector-effect="non-scaling-stroke"/><path fill="#900" fill-opacity=".5" d="m8.9 5.2 1.6-.5.3.8-2.4.9z"/><path fill="#900" fill-opacity=".5" d="m10.5 4.7-1.6.5-.6-1 .9-.3z"/><path fill="#900" fill-opacity=".5" d="m8.9 5.2-.6 1.2L7.9 5l.5-.7z"/><path fill="none" stroke="#900" stroke-linecap="round" stroke-linejoin="round" stroke-width="__RESOLUTION__" d="m10.8 5.5-.3-.8L9.2 4l-.9.3m0 2.1L7.9 5" vector-effect="non-scaling-stroke"/><path fill="#900" d="M8.3 2v-.3L9.5 0l.7.2.3.6-.7-.1zm-1.2.3.2.2-2.1-.4-.6.7-.2-.9.5-.6z"/><path fill="#900" fill-opacity=".5" d="m11.2 8.8-2 .2.8-1.5h1.5z"/><path fill="none" stroke="#900" stroke-linecap="round" stroke-linejoin="round" stroke-width="__RESOLUTION__" d="M10 7.5h1.5l-.3 1.3" vector-effect="non-scaling-stroke"/></g><g id="j"><path fill="#900" d="M3.3.8 6.5 0l3.2.8 3 4.3.6 7-3.9 1.1-.9-1.3L5 9.4 3.2 5.5zm8.1 6.4L8.8 5l1.8 3.1.8 2.9z"/><path fill="#900" d="m9.5 13.2-2.7.8-5.3-2.8L0 5.6 3.3.8v4.7l1.6 3.9 3.7 2.5zm1.9-6V11l-.9-2.8L8.9 5z"/><path fill="none" stroke="#900" stroke-linecap="round" stroke-linejoin="round" stroke-width="__RESOLUTION__" d="M3.3.8 6.5 0l3.2.8 3 4.3.6 7-3.9 1.1-2.6.8-5.3-2.8L0 5.6z" vector-effect="non-scaling-stroke"/></g><g id="k"><path fill="#900" d="M10.2 14.2q.9-.5 2.7-.8l2.7-.1.5 1.1q-2.2-.4-5.3.9z"/><path fill="#900" d="m15.6 13.3-2.7.1q-1.9.3-2.7.8-3.3-1.4-6-9Q9 3 13 3.7q2.8 6.1 2.6 9.6"/><path fill="#900" d="m10.2 14.2-2 2.2q-1.7 2.1-1.7 3.4-3.9 0-5.4-3.5 1.2 1.3 2.5-.5t1.2-5.1-.6-5.5q2.6 7.6 6 9m-6.6-1.3-.1.3-.4 1.4H3q-.9 2-2.1 0l.6-.6z"/><path fill="#900" d="m10.2 14.2.6 1q-3.2 2.9-3.6 5.3l-.7-.8q0-1.2 1.7-3.3z"/><path fill="none" stroke="#900" stroke-linecap="round" stroke-linejoin="round" stroke-width="__RESOLUTION__" d="M10.8 15.3q3-1.3 5.3-.9l-.5-1.1q.3-3.5-2.6-9.6M.9 14.6l.7-.6 2-1.1m2.9 6.9q-3.8 0-5.4-3.5m5.4 3.5.7.6q.4-2.3 3.6-5.1" vector-effect="non-scaling-stroke"/><path fill="#900" d="m5.4 7-.8.2.2.7v.8l.4.6h.1l.6.9q.2.5 0 1.1-.1.6-.5.8l-.3.1v.4q-.1.7-.5 1l-.1.1.2.2q.3.3.3.8v.2q.1.4 0 .8l-.6.7-.6.1-.5.4-.8.2-.1-.1v.6l-.4.6H1l-.6-.5q-.3-.5-.2-.9v-.3l-.3-.9q0-.5.5-.7h1l.5.3.4-.5v-.4q.1-.4.5-.7l.3-.1-.3-.5q-.3-.7-.1-1.3v-.4h-.1Q2 11 2 10.4t.3-1.2l.4-.4-.4-1.3.2-1.3-.2-.1q-.4-.4-.4-1l.3-1 1-.7v-.1q-.2-.7.2-1.2t1.1-.5h.4l.6-.8Q6.1.4 7 .4l1.3.4L9.5.5l1.6.4.3-.4q.5-.6 1.1-.5t.8.8l.2 1.2h.3q.6-.2.8.3t0 1l-.2.4.4.4V5l-1.3-1q-.2-2-2.6-1.3l-.2-.2q-1.6-1.3-2.6.3-1.6-.6-1.7 1.3z"/><path fill="#900" d="M14.8 5q-.2.5-.8.8l-1-1.9-4.8.1-1.6.9h-.1l-.2 1q-.3.6-.9 1V7l1-2.9q0-1.8 1.6-1.2 1-1.6 2.6-.4l.2.2q2.3-.6 2.5 1.3z"/><path fill="#900" d="m10.7 8-1-.9-.3 1.3 1.2.5zm1.8-1.7 1.2 2.3-1 .9.1 1.2-1.7.5-.8-1.2-1.5-.4-.3-3 1.7-1.2zM12 8.8l.5-1.1-.8-.7-.5.8z"/><path fill="none" stroke="#900" stroke-linecap="round" stroke-linejoin="round" stroke-width="__RESOLUTION__" d="m14.5 12-2.2-.8-1.4 1.9m-1.5-3 2.9 1.1 1.6-2.1" vector-effect="non-scaling-stroke"/></g><g id="l"><path fill="#900" d="m7 8.3.2-1.4Q17.4 6.3 26.3 0l-1 2.5-5 2.9L18.9 7l-1.7-.3z"/><path fill="#900" d="m7 8.3 10.2-1.7 1.7.4 1.4-1.6 5-2.9Q24 5.2 21.8 7.9 13 11.8 6.7 9.5z"/><path fill="none" stroke="#900" stroke-linecap="round" stroke-linejoin="round" stroke-width="__RESOLUTION__" d="m25.4 2.5.9-2.5M6.7 9.6q6.3 2.2 15.2-1.7 2.2-2.7 3.5-5.4" vector-effect="non-scaling-stroke"/><path fill="#900" d="M2.5 8.8Q5.7 10.1 8 6.1q1.8 1 1.6 2.8-.6 1.8-2.2 2.8-1.4.9-5.6-.3z"/><path fill="#900" d="m2.5 8.8-.7 2.6Q2 9 0 9l.2-1.3q.1-.5.9-.8.4-.1 1 .6.4.7.4 1.3"/><path fill="none" stroke="#900" stroke-linecap="round" stroke-linejoin="round" stroke-width="__RESOLUTION__" d="M1.8 11.4q4.2 1.2 5.6.2Q9 10.8 9.6 9 9.8 7.1 8 6.1q-2.3 4-5.5 2.7 0-.6-.4-1.3-.6-.7-1-.6-.8.3-.9.8L0 9q2 .1 1.8 2.4" vector-effect="non-scaling-stroke"/></g><g id="m"><path fill="#900" fill-opacity=".5" d="m.4 2.4 2.8-.6 1.5 5.5-1.5-.7-1.6.8L0 5.3z"/><path fill="#900" fill-opacity=".5" d="M4.7 7.3 3.2 1.8l3-1.8L8 4.7 4.7 7.5z"/><path fill="none" stroke="#900" stroke-linecap="round" stroke-linejoin="round" stroke-width="__RESOLUTION__" d="M.4 2.4 0 5.3l1.6 2 1.6-.7 1.5.7v.2l3.4-2.8L6 0" vector-effect="non-scaling-stroke"/></g><g id="n"><path fill="#900" d="M6.3 5.4h-.6l-.6-2.7-1-1.8.5-.5v.2-.2L8.1 0l.5.4-2.4.7 1.2 2H5.7z"/><path fill="#900" d="m8.6.4-.1.3Q8.2 2.5 10 5.3l-3.7.1-.7-2.3h1.8l-1.2-2z"/><path fill="#900" d="M6.7 3.7q.3.4 5.9 1.3l6.2.9-.2 7.7 1.6 2.7q.6 7.2-1.1 9.5l-1.3.3-4-.2Q13 20 12 19.6q-1.9-1.9-5.2-2.7l4.2-2.4q-3.7-.1-5.7-4.7l6.8.4z"/><path fill="#900" d="m6.7 3.7 5.4 6.5-6.8-.4q2 4.6 5.7 4.7l-4.2 2.4q3.3.9 5.2 2.7 1 .4 1.9 6.3-1.6 0-3.3-1.7-1.9-2.1-3.1-2.6-1-.3-1.9 0l3.1-2.2-2-2.5-1.3 2.7q-1 .9-3.3.9Q.8 19.4.2 17.3v-.1Q2.1 10.9 5 5.5l1.6-1.8z"/><path fill="#900" d="m13.9 25.9 3.9.2-.2 1q-4.6 1-7.1-1.5l-1.8-1.9q-1.1-.9-2.3-1-.5 0-1.1 1t-1.6.8q-2-.2-2.7-1.7-1.5-2.8-.8-5.5.2 5 3.2 5.9 1.1-1.2 2.2-1.6 1-.3 1.9 0 1.2.5 3.1 2.5 1.7 1.7 3.3 1.8m3.9.2 1.3-.3q4.5-1.3 6.7-4.5l.3 1Q25 25 18.5 26.8l-1 .2z"/><path fill="#900" d="M19.1 25.9q1.7-2.4 1.1-9.6l-1.5-2.8V6l1.7-.7q4 6 5.4 16.2-2.2 3.2-6.7 4.5M5.6 21.7q-1 .3-2.2 1.5-3-1-3.2-5.9.6 2 1.9 3.2 2.3 0 3.3-.9l1.4-2.7 1.9 2.6z"/><path fill="none" stroke="#900" stroke-linecap="round" stroke-linejoin="round" stroke-width="__RESOLUTION__" d="M20.4 5.2q4 6 5.4 16.2M.2 17.3v-.1Q2 10.9 4.9 5.5m20.9 15.9.3.9Q25 25 18.5 26.9l-1 .3q-4.5 1-7-1.6l-1.8-1.9q-1.1-.9-2.3-1-.4 0-1.1 1t-1.6.8q-2-.2-2.7-1.7-1.5-2.8-.8-5.5" vector-effect="non-scaling-stroke"/><path fill="#900" d="m23.5 10-1 .9-1 .2q-.6 0-.7-.2t.3-.7l.9-.7q.6-.4 1.1-.4l.5.3q.1.3-.2.7"/><path fill="none" stroke="#900" stroke-linecap="round" stroke-linejoin="round" stroke-width="__RESOLUTION__" d="M23.5 10q.2-.3.1-.6l-.5-.3q-.5 0-1.1.4l-.9.6q-.4.5-.3.7.1.3.6.3l1.1-.3z" vector-effect="non-scaling-stroke"/><path fill="#900" d="m25.7 16.7-1 .8-1 .3q-.5 0-.6-.3t.2-.7l1-.7q.5-.3 1-.3t.6.3q.1.2-.2.6"/><path fill="none" stroke="#900" stroke-linecap="round" stroke-linejoin="round" stroke-width="__RESOLUTION__" d="M25.7 16.7q.3-.3.2-.6t-.5-.4q-.6 0-1.2.4l-.9.7q-.3.5-.2.7.1.3.6.3l1-.3z" vector-effect="non-scaling-stroke"/><path fill="#900" d="m23.4 2.6-.1.2q-1.1 1.8-.9 4.4-1.1.7-3.3.9l-1-1h-.8l1-2.8.9-.6z"/><path fill="#900" d="m23.4 2.6-4.1 1.2h-.1v-.1l-.9.6-8.8-.1-4.6-2-.2-.6 4.5 1.9q8 .3 14-1.3z"/><path fill="#900" d="m18.3 4.3-1 2.8-7.4-.7-4.1-1.7-.9-2.5 4.6 2z"/><path fill="#900" d="m17.4 7 .7.1 1 1-2.5-.2h-.5l-5.7-.7-4.2-1.6-.4-.9 4 1.7zm-1.3.9h.6z"/><path fill="none" stroke="#900" stroke-linecap="round" stroke-linejoin="round" stroke-width="__RESOLUTION__" d="M22.4 7.2q-.2-2.6.9-4.4" vector-effect="non-scaling-stroke"/><path fill="#900" d="M23.2 4.6 22 3.5 23.2 2l1.7 1.4z"/><path fill="none" stroke="#900" stroke-linecap="round" stroke-linejoin="round" stroke-width="__RESOLUTION__" d="M23.2 4.6 22 3.5 23.2 2l1.7 1.4z" vector-effect="non-scaling-stroke"/></g><g id="o"><path fill="#900" fill-opacity=".5" d="M19.7 0q3.3 4.2 4.5 9.9-.1 2.8-2.5 5.7t-7.3 4q-6.7 1.1-11-.6Q-1 16.8.3 11.7q-.5-8 6.4-10.4L13.2 0z"/><path fill="none" stroke="#900" stroke-linecap="round" stroke-linejoin="round" stroke-width="__RESOLUTION__" d="M19.7 0q3.3 4.2 4.5 9.9-.1 2.8-2.5 5.7t-7.3 4q-6.7 1.1-11-.6" vector-effect="non-scaling-stroke"/></g><g id="p"><path fill="#900" d="m1.3 1.9 2.4 4.4.2 1.5-3 1L0 3.9z"/><path fill="#900" d="m3.9 7.8-.2-1.5-2.4-4.4L3.5 0l3 1.9L8 4.5z"/><path fill="none" stroke="#900" stroke-linecap="round" stroke-linejoin="round" stroke-width="__RESOLUTION__" d="M1.3 1.9 0 3.9l.9 4.9m5.6-7L3.4 0 1.3 1.9M8 4.5 6.5 1.7" vector-effect="non-scaling-stroke"/></g><g id="q"><path fill="#900" d="M10.6 6Q7.9 9.2 6.8 9.7L3.2 4.5 3 2.4 7 0z"/><path fill="#900" d="m3 2.4.2 2.1 3.6 5-4.2.6L.2 5.6 0 4.4z"/><path fill="none" stroke="#900" stroke-linecap="round" stroke-linejoin="round" stroke-width="__RESOLUTION__" d="M10.6 6 7 0M2.6 10 .2 5.7 0 4.4" vector-effect="non-scaling-stroke"/><path fill="#900" d="m7.2 7.8 3.5-2.2 2 3.8-4 3.4zm1.6 5-5.9 1.4-.6-4.8 4.9-1.6z"/><path fill="none" stroke="#900" stroke-linecap="round" stroke-linejoin="round" stroke-width="__RESOLUTION__" d="m7.2 7.8 3.5-2.2 2 3.8-4 3.4L3 14.1l-.7-4.7z" vector-effect="non-scaling-stroke"/><path fill="#900" d="M10.9 8.7q-.4-.2-.5-.7-.2-.5 0-.8t.6-.4l.7.2.6.7q.1.5-.1.8l-.5.5q-.4 0-.8-.3"/><path fill="none" stroke="#900" stroke-linecap="round" stroke-linejoin="round" stroke-width="__RESOLUTION__" d="M10.9 8.7q-.4-.2-.5-.7-.2-.5 0-.8t.6-.4l.7.2.6.7q.1.5-.1.8l-.5.5q-.4 0-.8-.3" vector-effect="non-scaling-stroke"/></g><g id="s"><path fill="#b81a03" d="M34.7 28.4q-4.3-4-6.6-3.5-1.8.3-2.9 3.7.1-4.1-2.4-6.1 4.9-.1 4.8-3.4t-5.3-7q2.9 1 6.3-2-1.4 3.8-.9 5.9.5 1.9 2.8 3.3l3.4 1.2q-2.4.4-2.4 2-.1 2 3.2 5.9"/><path fill="none" stroke="#d01d04" stroke-linecap="round" stroke-linejoin="round" stroke-width="__RESOLUTION__" d="M33.9 20.5q-2.4.4-2.4 2-.1 2 3.2 5.9" vector-effect="non-scaling-stroke"/><path fill="#f43404" d="M2 .2q1.4.7 2 2.2l-.9-.2L0 .9Q.6-.4 2 .2m14.3 2.4 4 1.7q-.7.4-1.4 1.9-1 2.2-.5 4.5.7 3.7 3.8 8.5l4.1 5.2q-5.8-2.8-16.6 1.3 12.2-8.4-4.3-22.4Q16.2 9 16.2 2.6"/><path fill="none" stroke="#d01d04" stroke-linecap="round" stroke-linejoin="round" stroke-width="__RESOLUTION__" d="M2 .2q1.4.7 2 2.2l-.9-.2L0 .9Q.6-.4 2 .2m7.7 25.5Q22 17.3 5.5 3.3" vector-effect="non-scaling-stroke"/><path fill="none" stroke="#fc563f" stroke-linecap="round" stroke-linejoin="round" stroke-width="__RESOLUTION__" d="M5.5 3.3Q16.3 9 16.3 2.6" vector-effect="non-scaling-stroke"/><path fill="#f43404" d="M6.7 28q-1.1-.7-.3-1.3.8-.5 2.1-.5l-.2.4z"/><path fill="none" stroke="#d01d04" stroke-linecap="round" stroke-linejoin="round" stroke-width="__RESOLUTION__" d="M6.7 28q-1.1-.7-.3-1.3.8-.5 2.1-.5l-.2.4z" vector-effect="non-scaling-stroke"/></g><g id="u"><path fill="#fc0" fill-opacity=".5" d="M9 2.4q.8.5 1.3 1.4.6 1.2.2 2.3l-.1.1Q9.6 6 5.8 2.3q-2.4-2.5-1.7.9.5 2-.7 3.6l-3 2.9q-.7-.2-.1-1.1t.6-2.3l-.2-3Q.6 2.1 2.3.9q1.1-1 2.4-.8L8.3 2z"/><path fill="#fc0" fill-opacity=".5" d="m.5 9.7 2.9-2.9q1.2-1.5.7-3.6-.7-3.4 1.7-.9 3.8 3.8 4.6 3.9l-.5.7-1.2.6-2.6-.2-.9-.6Q1.5 9.8.6 9.7z"/><path fill="none" stroke="#fc0" stroke-linecap="round" stroke-linejoin="round" stroke-width="__RESOLUTION__" d="M9 2.4 8.3 2 4.7 0Q3.4 0 2.3 1 .6 2 .6 3.3l.2 3q0 1.4-.6 2.3t.2 1h.1q.9.2 4.6-2.9l1 .6 2.5.3L10 7" vector-effect="non-scaling-stroke"/></g><g id="v"><path fill="#fc0" d="M2.1 21.6 0 14.5l3 1.9-.3-.7 4.9-.6.6.4 1.9-2.3.5.1 1.7-4.7L20.4 0l2.4 5.4-2.5 6.7-2.6 2.6 4 4.5-4.6 3.4-3-.6 3.4 7.1-5.6-.4-3.8-3.3 1.4 4.7-4-3.2zm9.2-.2 2.7.6z"/><path fill="none" stroke="#fc0" stroke-linecap="round" stroke-linejoin="round" stroke-width="__RESOLUTION__" d="M2.1 21.6 5.5 27l4 3.2m-1.4-4.7 3.9 3.3 5.6.3L14 22m3 .6 4.7-3.4M14.1 22l-2.8-.5m2.7.5 3 .6" vector-effect="non-scaling-stroke"/></g><g id="w"><path fill="#fc0" d="M11 0h8.4l3.8 11.6-5.1 5.3-4.6.3L6 11.6v-.4l.4-5.1z"/><path fill="none" stroke="#fc0" stroke-linecap="round" stroke-linejoin="round" stroke-width="__RESOLUTION__" d="M11 0h8.4l3.8 11.6-5.1 5.3-4.6.3L6 11.6v-.4l.4-5.1z" vector-effect="non-scaling-stroke"/><path fill="#fc0" d="M1.3 27.4H.7q-1.8-6.1 1-14 2.6-3.1 4.1-4.5 2.3-2.2 6.3-1l-7.8 8.2z"/><path fill="#fc0" d="m12 8 1.2.4 2.3 8q-.7 3.8-5 7.5-4.6 3.8-9.3 3.5l3.1-11.3z"/><path fill="none" stroke="#fc0" stroke-linecap="round" stroke-linejoin="round" stroke-width="__RESOLUTION__" d="M1.3 27.4H.7q-1.8-6.1 1-14 2.6-3.1 4.1-4.5 2.3-2.2 6.3-1l1 .5 2.4 8q-.7 3.8-5 7.5-4.6 3.8-9.3 3.5" vector-effect="non-scaling-stroke"/><path fill="#fc0" d="m15.8 3.4.2-.5Q17.2.6 18.5.7q1.3-.1 2.1 2l.6 2.5v.2q-.3 1.6-1.4 2.4-.3-2.7-4-4.5"/><path fill="#fc0" d="M21.1 5.5v2.7q-.1 3-1.1 5.2-.6 1.3-1.3 1.8-2.1-1.8-2.2-5L19.7 8q1-.8 1.4-2.4"/><path fill="#fc0" d="m18.7 15.2-1 .5q-1.4-.2-2.3-2.3-.4-1.1-.5-2.4l1.6-.8q0 3.1 2.2 5"/><path fill="#fc0" d="M15 11q-.3-1.3-.2-2.8.2-2.8 1-4.8 3.6 1.8 3.9 4.5l-3.2 2.4zm4.4-1.8-.3.9-.8.4q-.4 0-.7-.4l-.3-.4 1.8-1.3z"/></g><g id="x"><path fill="#fc0" d="M2.6.6 9.4 0l3.7 5.3-3 9.7-4.5 3.9-1.8-1.2L0 8.8l.8-6.3z"/><path fill="none" stroke="#fc0" stroke-linecap="round" stroke-linejoin="round" stroke-width="__RESOLUTION__" d="M13 5.3 9.5 0 2.6.6m0 0L.8 2.5 0 8.8l3.8 8.9 1.8 1.2L10 15l3-9.7" vector-effect="non-scaling-stroke"/></g><g id="y"><path fill="#fc0" d="M2.8 18.6 0 17.7l1.5-2-.5-1 2.6-6.5L11.2 0l1.4 5.4-2 4.6 2 .5-2.7 6.3-3.6 3-3-1-.3.3z"/><path fill="none" stroke="#fc0" stroke-linecap="round" stroke-linejoin="round" stroke-width="__RESOLUTION__" d="m2.8 18.6.2.5m6.9-2.3 2.7-6.4m-2-.4 2-4.7" vector-effect="non-scaling-stroke"/></g><g id="z" fill="#fc0"><path d="M12.7.7Q11 4.7 10 5.5q-1.8-2-3.6-1.2Q4.9 2.7 3 2.7 7.2 2.2 9.3 0z"/><path d="M3 2.7q1.9 0 3.5 1.6 1.8-.7 3.6 1.2 1-.8 2.6-4.8 1.1 1-.4 5L9.7 9.4q-2.9 2-4.3-1.6-3.3 1-4.1-1.8-.8-1.8.7-3.2z"/><path d="m2.2 3.4.8.1q.9.3 1.4 1.2t-.2 1.2q-.6.4-1 2.6-.3 1.3-.9 1.5-1.7-2.7-.1-6.6"/><path d="M2.3 10q-.4 0-1.1-.4t-1-2.2Q-.3 5.6 0 5.1q.5-1 1.3-1.5l.8-.3q-1.6 4 .1 6.6M6 11.1l-1-.6q-.6-.7-.8-2.6-.2-1.7.1-2.3.5-1 1.3-1.2l.7-.1Q4.5 8 6 11.1"/><path d="m6.5 4.4.8.4q.8.5 1.2 1.5t-.3 1.2-1.1 2.4q-.3 1.3-1 1.3-1.4-3.1.4-6.8"/></g><g id="A"><path fill="none" stroke="#fc0" stroke-linecap="round" stroke-linejoin="round" stroke-width="__RESOLUTION__" d="M10 33.1Q7.7 15.9 0 0" vector-effect="non-scaling-stroke"/><path fill="#fc0" d="M10.1 48.8q-.5 0-.8.7l-.2.9v.4q.1.8.6 1.2t.9.3l.8-.7q.3-.7.2-1.4l-.2-.5-.4-.7q-.4-.4-.9-.3M11 32q.2 3.3 2 9.4.4 1.8 2 5.3l.2 1.3q-2.2 6.7-4.8 7-2.6.1-4-6.6 2.5-6.6 2.3-15.9z"/><path fill="#fc0" d="M10.1 48.8q.5-.2.9.3l.4.6.2.5-.2 1.4-.8.7q-.5.1-1-.3t-.5-1.2v-.4l.2-.9q.2-.6.8-.7"/></g><g id="B"><path fill="#fc0" fill-opacity=".5" d="m10.4 4 .6-.1q1.1 0 2 .8t1 1.9-.4 1.9-1.6.8-2-.6l-.7-.5L8 6.7q-.7-1.2.5-1.8z"/><path fill="none" stroke="#fc0" stroke-linecap="round" stroke-linejoin="round" stroke-width="__RESOLUTION__" d="m10.4 4 .6-.1q1.1 0 2 .8t1 1.9-.4 1.9-1.6.8-2-.6" vector-effect="non-scaling-stroke"/><path fill="#fc0" d="m3 3.2.5 4L5 9.8H2l.4-1.2-2-.7z"/><path fill="#fc0" d="M5 9.8 3.5 7.2l-.5-4 2.5 3.7v2.9z"/><path fill="none" stroke="#fc0" stroke-linecap="round" stroke-linejoin="round" stroke-width="__RESOLUTION__" d="M3 3.2.4 7.9l2 .8-.4 1 3 .1h.5V6.9z" vector-effect="non-scaling-stroke"/><path fill="#fc0" fill-opacity=".5" d="M10.5 8.2q.2 1.2-.5 2t-1.8.9-2.1-.8q-.8-.9-1-2Q5 7 5.6 6q.7-.8 1.9-.8t2 .8 1 2"/><path fill="none" stroke="#fc0" stroke-linecap="round" stroke-linejoin="round" stroke-width="__RESOLUTION__" d="M10.5 8.2q.2 1.2-.5 2t-1.8.9-2.1-.8q-.8-.9-1-2Q5 7 5.6 6q.7-.8 1.9-.8t2 .8 1 2" vector-effect="non-scaling-stroke"/><path fill="#fc0" fill-opacity=".5" d="m10.6 4.7.3-.2zM10 .4q.5 1.2.4 2.9l.9.9-.4.3.9 1.2-6 1.7-2.3-3.5 1.3-2.6zM7.2 5l-2.4.2.2-.9-.2.9zM1 6.8l.7-.3.4 1-.5-1zM.6 6q.7.1 1 .5-.3-.4-1-.5m1.7-.3L3 8.2.9 7.8 0 6.5.3 5z"/><path fill="none" stroke="#fc0" stroke-linecap="round" stroke-linejoin="round" stroke-width="__RESOLUTION__" d="m10.9 4.5-.3.2M10 .4q.5 1.2.4 2.9l.9.9-.4.3M5 4.3l-.2.9 2.4-.1M2.1 7.4l-.5-1-.6.2m.6-.2q-.4-.4-1-.5m2.3 2.2-2-.3L0 6.5.3 5l2 .6" vector-effect="non-scaling-stroke"/><path fill="#fc0" fill-opacity=".5" d="m10.3 1.8-.6-.6-.3.3Q9 1.9 9 4l-.4-2.6.7-.9 1 .7z"/><path fill="#fc0" fill-opacity=".5" d="m9.4 1.5.2-.3.7.6v.6l-.7-.8z"/><path fill="#fc0" d="M9 4q.2-2.1.4-2.5h.2q-.4 1.6-.1 2.3h-.1z"/><path fill="#fc0" d="m9.6 1.6.7.8v.8l-.8.5q-.3-.6 0-2.2M7.9 4.8l-.6.2q-.6.2-1.4-.5v-1h1l.6.3zv-.2z"/><path fill="#fc0" fill-opacity=".5" d="m7.8 4.7-.4-1-.6-.3L6 3l-.6-.1.2-.5Q7 2.8 8 4v.6z"/><path fill="#fc0" d="M6.8 3.4h-1v1h-.3l-.1-1.5.6.1z"/><path fill="#fc0" fill-opacity=".5" d="m5.5 4.4-1.6-3h1.5L7.8 3 8 4Q7 3 5.6 2.4l-.2.5z"/><path fill="#fc0" d="m12 4 1.1 1.5-.4.5-1.4.6-1.8-1.1 1.2-.6 1.2.6.3-.5z"/><path fill="none" stroke="#fc0" stroke-linecap="round" stroke-linejoin="round" stroke-width="__RESOLUTION__" d="m12 4 1.1 1.5-.4.5-1.4.6-1.8-1.1 1.2-.6 1.2.6.3-.5z" vector-effect="non-scaling-stroke"/><path fill="#fc0" d="m7.2 5.7 1.7-.3-1.2 2-2.1.5-.9-.1.1-1.9.5 1 1 .1z"/><path fill="none" stroke="#fc0" stroke-linecap="round" stroke-linejoin="round" stroke-width="__RESOLUTION__" d="M7.2 5.7 6.2 7l-.9-.1-.5-1-.1 1.9.9.1 2.1-.5 1.2-2z" vector-effect="non-scaling-stroke"/><path fill="#fc0" fill-opacity=".5" d="m8.9 5.2 1.6-.5.3.8-2.4.9z"/><path fill="#fc0" fill-opacity=".5" d="m10.5 4.7-1.6.5-.6-1 .9-.3z"/><path fill="#fc0" fill-opacity=".5" d="m8.9 5.2-.6 1.2L7.9 5l.5-.7z"/><path fill="none" stroke="#fc0" stroke-linecap="round" stroke-linejoin="round" stroke-width="__RESOLUTION__" d="m10.8 5.5-.3-.8L9.2 4l-.9.3m0 2.1L7.9 5" vector-effect="non-scaling-stroke"/><path fill="#fc0" d="M8.3 2v-.3L9.5 0l.7.2.3.6-.7-.1zm-1.2.3.2.2-2.1-.4-.6.7-.2-.9.5-.6z"/><path fill="#fc0" fill-opacity=".5" d="m11.2 8.8-2 .2.8-1.5h1.5z"/><path fill="none" stroke="#fc0" stroke-linecap="round" stroke-linejoin="round" stroke-width="__RESOLUTION__" d="M10 7.5h1.5l-.3 1.3" vector-effect="non-scaling-stroke"/></g><g id="C"><path fill="#fc0" d="M3.3.8 6.5 0l3.2.8 3 4.3.6 7-3.9 1.1-.9-1.3L5 9.4 3.2 5.5zm8.1 6.4L8.8 5l1.8 3.1.8 2.9z"/><path fill="#fc0" d="m9.5 13.2-2.7.8-5.3-2.8L0 5.6 3.3.8v4.7l1.6 3.9 3.7 2.5zm1.9-6V11l-.9-2.8L8.9 5z"/><path fill="none" stroke="#fc0" stroke-linecap="round" stroke-linejoin="round" stroke-width="__RESOLUTION__" d="M3.3.8 6.5 0l3.2.8 3 4.3.6 7-3.9 1.1-2.6.8-5.3-2.8L0 5.6z" vector-effect="non-scaling-stroke"/></g><g id="D"><path fill="#fc0" d="M10.2 14.2q.9-.5 2.7-.8l2.7-.1.5 1.1q-2.2-.4-5.3.9z"/><path fill="#fc0" d="m15.6 13.3-2.7.1q-1.9.3-2.7.8-3.3-1.4-6-9Q9 3 13 3.7q2.8 6.1 2.6 9.6"/><path fill="#fc0" d="m10.2 14.2-2 2.2q-1.7 2.1-1.7 3.4-3.9 0-5.4-3.5 1.2 1.3 2.5-.5t1.2-5.1-.6-5.5q2.6 7.6 6 9m-6.6-1.3-.1.3-.4 1.4H3q-.9 2-2.1 0l.6-.6z"/><path fill="#fc0" d="m10.2 14.2.6 1q-3.2 2.9-3.6 5.3l-.7-.8q0-1.2 1.7-3.3z"/><path fill="none" stroke="#fc0" stroke-linecap="round" stroke-linejoin="round" stroke-width="__RESOLUTION__" d="M10.8 15.3q3-1.3 5.3-.9l-.5-1.1q.3-3.5-2.6-9.6M.9 14.6l.7-.6 2-1.1m2.9 6.9q-3.8 0-5.4-3.5m5.4 3.5.7.6q.4-2.3 3.6-5.1" vector-effect="non-scaling-stroke"/><path fill="#fc0" d="m5.4 7-.8.2.2.7v.8l.4.6h.1l.6.9q.2.5 0 1.1-.1.6-.5.8l-.3.1v.4q-.1.7-.5 1l-.1.1.2.2q.3.3.3.8v.2q.1.4 0 .8l-.6.7-.6.1-.5.4-.8.2-.1-.1v.6l-.4.6H1l-.6-.5q-.3-.5-.2-.9v-.3l-.3-.9q0-.5.5-.7h1l.5.3.4-.5v-.4q.1-.4.5-.7l.3-.1-.3-.5q-.3-.7-.1-1.3v-.4h-.1Q2 11 2 10.4t.3-1.2l.4-.4-.4-1.3.2-1.3-.2-.1q-.4-.4-.4-1l.3-1 1-.7v-.1q-.2-.7.2-1.2t1.1-.5h.4l.6-.8Q6.1.4 7 .4l1.3.4L9.5.5l1.6.4.3-.4q.5-.6 1.1-.5t.8.8l.2 1.2h.3q.6-.2.8.3t0 1l-.2.4.4.4V5l-1.3-1q-.2-2-2.6-1.3l-.2-.2q-1.6-1.3-2.6.3-1.6-.6-1.7 1.3z"/><path fill="#fc0" d="M14.8 5q-.2.5-.8.8l-1-1.9-4.8.1-1.6.9h-.1l-.2 1q-.3.6-.9 1V7l1-2.9q0-1.8 1.6-1.2 1-1.6 2.6-.4l.2.2q2.3-.6 2.5 1.3z"/><path fill="#fc0" d="m10.7 8-1-.9-.3 1.3 1.2.5zm1.8-1.7 1.2 2.3-1 .9.1 1.2-1.7.5-.8-1.2-1.5-.4-.3-3 1.7-1.2zM12 8.8l.5-1.1-.8-.7-.5.8z"/><path fill="none" stroke="#fc0" stroke-linecap="round" stroke-linejoin="round" stroke-width="__RESOLUTION__" d="m14.5 12-2.2-.8-1.4 1.9m-1.5-3 2.9 1.1 1.6-2.1" vector-effect="non-scaling-stroke"/></g><g id="E"><path fill="#fc0" d="m7 8.3.2-1.4Q17.4 6.3 26.3 0l-1 2.5-5 2.9L18.9 7l-1.7-.3z"/><path fill="#fc0" d="m7 8.3 10.2-1.7 1.7.4 1.4-1.6 5-2.9Q24 5.2 21.8 7.9 13 11.8 6.7 9.5z"/><path fill="none" stroke="#fc0" stroke-linecap="round" stroke-linejoin="round" stroke-width="__RESOLUTION__" d="m25.4 2.5.9-2.5M6.7 9.6q6.3 2.2 15.2-1.7 2.2-2.7 3.5-5.4" vector-effect="non-scaling-stroke"/><path fill="#fc0" d="M2.5 8.8Q5.7 10.1 8 6.1q1.8 1 1.6 2.8-.6 1.8-2.2 2.8-1.4.9-5.6-.3z"/><path fill="#fc0" d="m2.5 8.8-.7 2.6Q2 9 0 9l.2-1.3q.1-.5.9-.8.4-.1 1 .6.4.7.4 1.3"/><path fill="none" stroke="#fc0" stroke-linecap="round" stroke-linejoin="round" stroke-width="__RESOLUTION__" d="M1.8 11.4q4.2 1.2 5.6.2Q9 10.8 9.6 9 9.8 7.1 8 6.1q-2.3 4-5.5 2.7 0-.6-.4-1.3-.6-.7-1-.6-.8.3-.9.8L0 9q2 .1 1.8 2.4" vector-effect="non-scaling-stroke"/></g><g id="F"><path fill="#fc0" fill-opacity=".5" d="m.4 2.4 2.8-.6 1.5 5.5-1.5-.7-1.6.8L0 5.3z"/><path fill="#fc0" fill-opacity=".5" d="M4.7 7.3 3.2 1.8l3-1.8L8 4.7 4.7 7.5z"/><path fill="none" stroke="#fc0" stroke-linecap="round" stroke-linejoin="round" stroke-width="__RESOLUTION__" d="M.4 2.4 0 5.3l1.6 2 1.6-.7 1.5.7v.2l3.4-2.8L6 0" vector-effect="non-scaling-stroke"/></g><g id="G"><path fill="#fc0" d="M6.3 5.4h-.6l-.6-2.7-1-1.8.5-.5v.2-.2L8.1 0l.5.4-2.4.7 1.2 2H5.7z"/><path fill="#fc0" d="m8.6.4-.1.3Q8.2 2.5 10 5.3l-3.7.1-.7-2.3h1.8l-1.2-2z"/><path fill="#fc0" d="M6.7 3.7q.3.4 5.9 1.3l6.2.9-.2 7.7 1.6 2.7q.6 7.2-1.1 9.5l-1.3.3-4-.2Q13 20 12 19.6q-1.9-1.9-5.2-2.7l4.2-2.4q-3.7-.1-5.7-4.7l6.8.4z"/><path fill="#fc0" d="m6.7 3.7 5.4 6.5-6.8-.4q2 4.6 5.7 4.7l-4.2 2.4q3.3.9 5.2 2.7 1 .4 1.9 6.3-1.6 0-3.3-1.7-1.9-2.1-3.1-2.6-1-.3-1.9 0l3.1-2.2-2-2.5-1.3 2.7q-1 .9-3.3.9Q.8 19.4.2 17.3v-.1Q2.1 10.9 5 5.5l1.6-1.8z"/><path fill="#fc0" d="m13.9 25.9 3.9.2-.2 1q-4.6 1-7.1-1.5l-1.8-1.9q-1.1-.9-2.3-1-.5 0-1.1 1t-1.6.8q-2-.2-2.7-1.7-1.5-2.8-.8-5.5.2 5 3.2 5.9 1.1-1.2 2.2-1.6 1-.3 1.9 0 1.2.5 3.1 2.5 1.7 1.7 3.3 1.8m3.9.2 1.3-.3q4.5-1.3 6.7-4.5l.3 1Q25 25 18.5 26.8l-1 .2z"/><path fill="#fc0" d="M19.1 25.9q1.7-2.4 1.1-9.6l-1.5-2.8V6l1.7-.7q4 6 5.4 16.2-2.2 3.2-6.7 4.5M5.6 21.7q-1 .3-2.2 1.5-3-1-3.2-5.9.6 2 1.9 3.2 2.3 0 3.3-.9l1.4-2.7 1.9 2.6z"/><path fill="none" stroke="#fc0" stroke-linecap="round" stroke-linejoin="round" stroke-width="__RESOLUTION__" d="M20.4 5.2q4 6 5.4 16.2M.2 17.3v-.1Q2 10.9 4.9 5.5m20.9 15.9.3.9Q25 25 18.5 26.9l-1 .3q-4.5 1-7-1.6l-1.8-1.9q-1.1-.9-2.3-1-.4 0-1.1 1t-1.6.8q-2-.2-2.7-1.7-1.5-2.8-.8-5.5" vector-effect="non-scaling-stroke"/><path fill="#fc0" d="m23.5 10-1 .9-1 .2q-.6 0-.7-.2t.3-.7l.9-.7q.6-.4 1.1-.4l.5.3q.1.3-.2.7"/><path fill="none" stroke="#fc0" stroke-linecap="round" stroke-linejoin="round" stroke-width="__RESOLUTION__" d="M23.5 10q.2-.3.1-.6l-.5-.3q-.5 0-1.1.4l-.9.6q-.4.5-.3.7.1.3.6.3l1.1-.3z" vector-effect="non-scaling-stroke"/><path fill="#fc0" d="m25.7 16.7-1 .8-1 .3q-.5 0-.6-.3t.2-.7l1-.7q.5-.3 1-.3t.6.3q.1.2-.2.6"/><path fill="none" stroke="#fc0" stroke-linecap="round" stroke-linejoin="round" stroke-width="__RESOLUTION__" d="M25.7 16.7q.3-.3.2-.6t-.5-.4q-.6 0-1.2.4l-.9.7q-.3.5-.2.7.1.3.6.3l1-.3z" vector-effect="non-scaling-stroke"/><path fill="#fc0" d="m23.4 2.6-.1.2q-1.1 1.8-.9 4.4-1.1.7-3.3.9l-1-1h-.8l1-2.8.9-.6z"/><path fill="#fc0" d="m23.4 2.6-4.1 1.2h-.1v-.1l-.9.6-8.8-.1-4.6-2-.2-.6 4.5 1.9q8 .3 14-1.3z"/><path fill="#fc0" d="m18.3 4.3-1 2.8-7.4-.7-4.1-1.7-.9-2.5 4.6 2z"/><path fill="#fc0" d="m17.4 7 .7.1 1 1-2.5-.2h-.5l-5.7-.7-4.2-1.6-.4-.9 4 1.7zm-1.3.9h.6z"/><path fill="none" stroke="#fc0" stroke-linecap="round" stroke-linejoin="round" stroke-width="__RESOLUTION__" d="M22.4 7.2q-.2-2.6.9-4.4" vector-effect="non-scaling-stroke"/><path fill="#fc0" d="M23.2 4.6 22 3.5 23.2 2l1.7 1.4z"/><path fill="none" stroke="#fc0" stroke-linecap="round" stroke-linejoin="round" stroke-width="__RESOLUTION__" d="M23.2 4.6 22 3.5 23.2 2l1.7 1.4z" vector-effect="non-scaling-stroke"/></g><g id="H"><path fill="#fc0" fill-opacity=".5" d="M19.7 0q3.3 4.2 4.5 9.9-.1 2.8-2.5 5.7t-7.3 4q-6.7 1.1-11-.6Q-1 16.8.3 11.7q-.5-8 6.4-10.4L13.2 0z"/><path fill="none" stroke="#fc0" stroke-linecap="round" stroke-linejoin="round" stroke-width="__RESOLUTION__" d="M19.7 0q3.3 4.2 4.5 9.9-.1 2.8-2.5 5.7t-7.3 4q-6.7 1.1-11-.6" vector-effect="non-scaling-stroke"/></g><g id="I"><path fill="#fc0" d="m1.3 1.9 2.4 4.4.2 1.5-3 1L0 3.9z"/><path fill="#fc0" d="m3.9 7.8-.2-1.5-2.4-4.4L3.5 0l3 1.9L8 4.5z"/><path fill="none" stroke="#fc0" stroke-linecap="round" stroke-linejoin="round" stroke-width="__RESOLUTION__" d="M1.3 1.9 0 3.9l.9 4.9m5.6-7L3.4 0 1.3 1.9M8 4.5 6.5 1.7" vector-effect="non-scaling-stroke"/></g><g id="J"><path fill="#fc0" d="M10.6 6Q7.9 9.2 6.8 9.7L3.2 4.5 3 2.4 7 0z"/><path fill="#fc0" d="m3 2.4.2 2.1 3.6 5-4.2.6L.2 5.6 0 4.4z"/><path fill="none" stroke="#fc0" stroke-linecap="round" stroke-linejoin="round" stroke-width="__RESOLUTION__" d="M10.6 6 7 0M2.6 10 .2 5.7 0 4.4" vector-effect="non-scaling-stroke"/><path fill="#fc0" d="m7.2 7.8 3.5-2.2 2 3.8-4 3.4zm1.6 5-5.9 1.4-.6-4.8 4.9-1.6z"/><path fill="none" stroke="#fc0" stroke-linecap="round" stroke-linejoin="round" stroke-width="__RESOLUTION__" d="m7.2 7.8 3.5-2.2 2 3.8-4 3.4L3 14.1l-.7-4.7z" vector-effect="non-scaling-stroke"/><path fill="#fc0" d="M10.9 8.7q-.4-.2-.5-.7-.2-.5 0-.8t.6-.4l.7.2.6.7q.1.5-.1.8l-.5.5q-.4 0-.8-.3"/><path fill="none" stroke="#fc0" stroke-linecap="round" stroke-linejoin="round" stroke-width="__RESOLUTION__" d="M10.9 8.7q-.4-.2-.5-.7-.2-.5 0-.8t.6-.4l.7.2.6.7q.1.5-.1.8l-.5.5q-.4 0-.8-.3" vector-effect="non-scaling-stroke"/></g><g id="L"><path fill="#9cb6ff" fill-opacity=".5" d="M9 2.4q.8.5 1.3 1.4.6 1.2.2 2.3l-.1.1Q9.6 6 5.8 2.3q-2.4-2.5-1.7.9.5 2-.7 3.6l-3 2.9q-.7-.2-.1-1.1t.6-2.3l-.2-3Q.6 2.1 2.3.9q1.1-1 2.4-.8L8.3 2z"/><path fill="#2c6bfe" fill-opacity=".5" d="m.5 9.7 2.9-2.9q1.2-1.5.7-3.6-.7-3.4 1.7-.9 3.8 3.8 4.6 3.9l-.5.7-1.2.6-2.6-.2-.9-.6Q1.5 9.8.6 9.7z"/><path fill="none" stroke="#4765c8" stroke-linecap="round" stroke-linejoin="round" stroke-width="__RESOLUTION__" d="M9 2.4 8.3 2 4.7 0Q3.4 0 2.3 1 .6 2 .6 3.3l.2 3q0 1.4-.6 2.3t.2 1h.1q.9.2 4.6-2.9l1 .6 2.5.3L10 7" vector-effect="non-scaling-stroke"/></g><g id="M"><path fill="#8ac32d" d="M2.1 21.6 0 14.5l3 1.9-.3-.7 4.9-.6.6.4 1.9-2.3.5.1 1.7-4.7L20.4 0l2.4 5.4-2.5 6.7-2.6 2.6 4 4.5-4.6 3.4-3-.6 3.4 7.1-5.6-.4-3.8-3.3 1.4 4.7-4-3.2zm9.2-.2 2.7.6z"/><path fill="none" stroke="#5a7a1d" stroke-linecap="round" stroke-linejoin="round" stroke-width="__RESOLUTION__" d="M2.1 21.6 5.5 27l4 3.2m-1.4-4.7 3.9 3.3 5.6.3L14 22m3 .6 4.7-3.4M14.1 22l-2.8-.5m2.7.5 3 .6" vector-effect="non-scaling-stroke"/></g><g id="N"><path fill="#a2c22c" d="M11 0h8.4l3.8 11.6-5.1 5.3-4.6.3L6 11.6v-.4l.4-5.1z"/><path fill="none" stroke="#798e20" stroke-linecap="round" stroke-linejoin="round" stroke-width="__RESOLUTION__" d="M11 0h8.4l3.8 11.6-5.1 5.3-4.6.3L6 11.6v-.4l.4-5.1z" vector-effect="non-scaling-stroke"/><path fill="#fee2a5" d="M1.3 27.4H.7q-1.8-6.1 1-14 2.6-3.1 4.1-4.5 2.3-2.2 6.3-1l-7.8 8.2z"/><path fill="#ffc734" d="m12 8 1.2.4 2.3 8q-.7 3.8-5 7.5-4.6 3.8-9.3 3.5l3.1-11.3z"/><path fill="none" stroke="#c4830f" stroke-linecap="round" stroke-linejoin="round" stroke-width="__RESOLUTION__" d="M1.3 27.4H.7q-1.8-6.1 1-14 2.6-3.1 4.1-4.5 2.3-2.2 6.3-1l1 .5 2.4 8q-.7 3.8-5 7.5-4.6 3.8-9.3 3.5" vector-effect="non-scaling-stroke"/><path fill="#7b3815" d="m15.8 3.4.2-.5Q17.2.6 18.5.7q1.3-.1 2.1 2l.6 2.5v.2q-.3 1.6-1.4 2.4-.3-2.7-4-4.5"/><path fill="#fff" d="M21.1 5.5v2.7q-.1 3-1.1 5.2-.6 1.3-1.3 1.8-2.1-1.8-2.2-5L19.7 8q1-.8 1.4-2.4"/><path fill="#b1b1b1" d="m18.7 15.2-1 .5q-1.4-.2-2.3-2.3-.4-1.1-.5-2.4l1.6-.8q0 3.1 2.2 5"/><path fill="#c36622" d="M15 11q-.3-1.3-.2-2.8.2-2.8 1-4.8 3.6 1.8 3.9 4.5l-3.2 2.4z"/><path fill="#000" d="m19.4 9.2-.3.9-.8.4q-.4 0-.7-.4l-.3-.4 1.8-1.3z"/></g><g id="O"><path fill="#8ac32d" d="M2.6.6 9.4 0l3.7 5.3-3 9.7-4.5 3.9-1.8-1.2L0 8.8l.8-6.3z"/><path fill="none" stroke="#746330" stroke-linecap="round" stroke-linejoin="round" stroke-width="__RESOLUTION__" d="M13 5.3 9.5 0 2.6.6m0 0L.8 2.5 0 8.8l3.8 8.9 1.8 1.2L10 15l3-9.7" vector-effect="non-scaling-stroke"/></g><g id="P"><path fill="#658921" d="M2.8 18.6 0 17.7l1.5-2-.5-1 2.6-6.5L11.2 0l1.4 5.4-2 4.6 2 .5-2.7 6.3-3.6 3-3-1-.3.3z"/><path fill="none" stroke="#4f6a1a" stroke-linecap="round" stroke-linejoin="round" stroke-width="__RESOLUTION__" d="m2.8 18.6.2.5m6.9-2.3 2.7-6.4m-2-.4 2-4.7" vector-effect="non-scaling-stroke"/></g><g id="Q"><path fill="#eca613" d="M12.7.7Q11 4.7 10 5.5q-1.8-2-3.6-1.2Q4.9 2.7 3 2.7 7.2 2.2 9.3 0z"/><path fill="#ffc734" d="M3 2.7q1.9 0 3.5 1.6 1.8-.7 3.6 1.2 1-.8 2.6-4.8 1.1 1-.4 5L9.7 9.4q-2.9 2-4.3-1.6-3.3 1-4.1-1.8-.8-1.8.7-3.2z"/><path fill="#7d6942" d="m2.2 3.4.8.1q.9.3 1.4 1.2t-.2 1.2q-.6.4-1 2.6-.3 1.3-.9 1.5-1.7-2.7-.1-6.6"/><path fill="#c5b08f" d="M2.3 10q-.4 0-1.1-.4t-1-2.2Q-.3 5.6 0 5.1q.5-1 1.3-1.5l.8-.3q-1.6 4 .1 6.6M6 11.1l-1-.6q-.6-.7-.8-2.6-.2-1.7.1-2.3.5-1 1.3-1.2l.7-.1Q4.5 8 6 11.1"/><path fill="#7d6942" d="m6.5 4.4.8.4q.8.5 1.2 1.5t-.3 1.2-1.1 2.4q-.3 1.3-1 1.3-1.4-3.1.4-6.8"/></g><g id="R"><path fill="none" stroke="#705f2e" stroke-linecap="round" stroke-linejoin="round" stroke-width="__RESOLUTION__" d="M10 33.1Q7.7 15.9 0 0" vector-effect="non-scaling-stroke"/><path fill="#c26521" d="M10.1 48.8q-.5 0-.8.7l-.2.9v.4q.1.8.6 1.2t.9.3l.8-.7q.3-.7.2-1.4l-.2-.5-.4-.7q-.4-.4-.9-.3M11 32q.2 3.3 2 9.4.4 1.8 2 5.3l.2 1.3q-2.2 6.7-4.8 7-2.6.1-4-6.6 2.5-6.6 2.3-15.9z"/><path fill="#f7c032" d="M10.1 48.8q.5-.2.9.3l.4.6.2.5-.2 1.4-.8.7q-.5.1-1-.3t-.5-1.2v-.4l.2-.9q.2-.6.8-.7"/></g><g id="S"><path fill="none" stroke="#71612f" stroke-linecap="round" stroke-linejoin="round" stroke-width="__RESOLUTION__" d="M10 33.1Q7.7 15.9 0 0" vector-effect="non-scaling-stroke"/><path fill="#c56622" d="M10.1 48.8q-.5 0-.8.7l-.2.9v.4q.1.8.6 1.2t.9.3l.8-.7q.3-.7.2-1.4l-.2-.5-.4-.7q-.4-.4-.9-.3M11 32q.2 3.3 2 9.4.4 1.8 2 5.3l.2 1.3q-2.2 6.7-4.8 7-2.6.1-4-6.6 2.5-6.6 2.3-15.9z"/><path fill="#fac332" d="M10.1 48.8q.5-.2.9.3l.4.6.2.5-.2 1.4-.8.7q-.5.1-1-.3t-.5-1.2v-.4l.2-.9q.2-.6.8-.7"/></g><g id="T"><path fill="#9cb6ff" fill-opacity=".5" d="m10.4 4 .6-.1q1.1 0 2 .8t1 1.9-.4 1.9-1.6.8-2-.6l-.7-.5L8 6.7q-.7-1.2.5-1.8z"/><path fill="none" stroke="#4765c8" stroke-linecap="round" stroke-linejoin="round" stroke-width="__RESOLUTION__" d="m10.4 4 .6-.1q1.1 0 2 .8t1 1.9-.4 1.9-1.6.8-2-.6" vector-effect="non-scaling-stroke"/><path fill="#4e324d" d="m3 3.2.5 4L5 9.8H2l.4-1.2-2-.7z"/><path fill="#000" d="M5 9.8 3.5 7.2l-.5-4 2.5 3.7v2.9z"/><path fill="none" stroke="#582c01" stroke-linecap="round" stroke-linejoin="round" stroke-width="__RESOLUTION__" d="M3 3.2.4 7.9l2 .8-.4 1 3 .1h.5V6.9z" vector-effect="non-scaling-stroke"/><path fill="#9cb6ff" fill-opacity=".5" d="M10.5 8.2q.2 1.2-.5 2t-1.8.9-2.1-.8q-.8-.9-1-2Q5 7 5.6 6q.7-.8 1.9-.8t2 .8 1 2"/><path fill="none" stroke="#4765c8" stroke-linecap="round" stroke-linejoin="round" stroke-width="__RESOLUTION__" d="M10.5 8.2q.2 1.2-.5 2t-1.8.9-2.1-.8q-.8-.9-1-2Q5 7 5.6 6q.7-.8 1.9-.8t2 .8 1 2" vector-effect="non-scaling-stroke"/><path fill="#9cb6ff" fill-opacity=".5" d="m10.6 4.7.3-.2zM10 .4q.5 1.2.4 2.9l.9.9-.4.3.9 1.2-6 1.7-2.3-3.5 1.3-2.6zM7.2 5l-2.4.2.2-.9-.2.9z"/><path fill="#9cb4ff" fill-opacity=".5" d="m1 6.7.7-.3.4 1-.5-1zm-.4-.8q.7.1 1 .5-.3-.4-1-.5m1.7-.3L3 8.2.9 7.8 0 6.5.3 5z"/><path fill="none" stroke="#4765c8" stroke-linecap="round" stroke-linejoin="round" stroke-width="__RESOLUTION__" d="m10.9 4.5-.3.2M10 .4q.5 1.2.4 2.9l.9.9-.4.3M5 4.3l-.2.9 2.4-.1M2.1 7.4l-.5-1-.6.2m.6-.2q-.4-.4-1-.5m2.3 2.2-2-.3L0 6.5.3 5l2 .6" vector-effect="non-scaling-stroke"/><path fill="#9cb6ff" fill-opacity=".5" d="m10.3 1.8-.6-.6-.3.3Q9 1.9 9 4l-.4-2.6.7-.9 1 .7z"/><path fill="#2d59d6" fill-opacity=".5" d="m9.4 1.5.2-.3.7.6v.6l-.7-.8z"/><path fill="#c1c1c1" d="M9 4q.2-2.1.4-2.5h.2q-.4 1.6-.1 2.3h-.1z"/><path fill="#fff" d="m9.6 1.6.7.8v.8l-.8.5q-.3-.6 0-2.2M7.9 4.8l-.6.2q-.6.2-1.4-.5v-1h1l.6.3zv-.2z"/><path fill="#2d59d6" fill-opacity=".5" d="m7.8 4.7-.4-1-.6-.3L6 3l-.6-.1.2-.5Q7 2.8 8 4v.6z"/><path fill="#c1c1c1" d="M6.8 3.4h-1v1h-.3l-.1-1.5.6.1z"/><path fill="#9cb6ff" fill-opacity=".5" d="m5.5 4.4-1.6-3h1.5L7.8 3 8 4Q7 3 5.6 2.4l-.2.5z"/><path fill="#000" d="m12 4 1.1 1.5-.4.5-1.4.6-1.8-1.1 1.2-.6 1.2.6.3-.5z"/><path fill="none" stroke="#582c01" stroke-linecap="round" stroke-linejoin="round" stroke-width="__RESOLUTION__" d="m12 4 1.1 1.5-.4.5-1.4.6-1.8-1.1 1.2-.6 1.2.6.3-.5z" vector-effect="non-scaling-stroke"/><path fill="#000" d="m7.2 5.7 1.7-.3-1.2 2-2.1.5-.9-.1.1-1.9.5 1 1 .1z"/><path fill="none" stroke="#582c01" stroke-linecap="round" stroke-linejoin="round" stroke-width="__RESOLUTION__" d="M7.2 5.7 6.2 7l-.9-.1-.5-1-.1 1.9.9.1 2.1-.5 1.2-2z" vector-effect="non-scaling-stroke"/><path fill="#bad3ff" fill-opacity=".5" d="m8.9 5.2 1.6-.5.3.8-2.4.9z"/><path fill="#9cb6ff" fill-opacity=".5" d="m10.5 4.7-1.6.5-.6-1 .9-.3z"/><path fill="#2d59d6" fill-opacity=".5" d="m8.9 5.2-.6 1.2L7.9 5l.5-.7z"/><path fill="none" stroke="#4765c8" stroke-linecap="round" stroke-linejoin="round" stroke-width="__RESOLUTION__" d="m10.8 5.5-.3-.8L9.2 4l-.9.3m0 2.1L7.9 5" vector-effect="non-scaling-stroke"/><path fill="#000" d="M8.3 2v-.3L9.5 0l.7.2.3.6-.7-.1zm-1.2.3.2.2-2.1-.4-.6.7-.2-.9.5-.6z"/><path fill="#9cb6ff" fill-opacity=".5" d="m11.2 8.8-2 .2.8-1.5h1.5z"/><path fill="none" stroke="#4765c8" stroke-linecap="round" stroke-linejoin="round" stroke-width="__RESOLUTION__" d="M10 7.5h1.5l-.3 1.3" vector-effect="non-scaling-stroke"/></g><g id="U"><path fill="#000" d="M3.3.8 6.5 0l3.2.8 3 4.3.6 7-3.9 1.1-.9-1.3L5 9.4 3.2 5.5zm8.1 6.4L8.8 5l1.8 3.1.8 2.9z"/><path fill="#4e324d" d="m9.5 13.2-2.7.8-5.3-2.8L0 5.6 3.3.8v4.7l1.6 3.9 3.7 2.5zm1.9-6V11l-.9-2.8L8.9 5z"/><path fill="none" stroke="#582c01" stroke-linecap="round" stroke-linejoin="round" stroke-width="__RESOLUTION__" d="M3.3.8 6.5 0l3.2.8 3 4.3.6 7-3.9 1.1-2.6.8-5.3-2.8L0 5.6z" vector-effect="non-scaling-stroke"/></g><g id="V"><path fill="#ffec0b" d="M10.2 14.2q.9-.5 2.7-.8l2.7-.1.5 1.1q-2.2-.4-5.3.9z"/><path fill="#f1540e" d="m15.6 13.3-2.7.1q-1.9.3-2.7.8-3.3-1.4-6-9Q9 3 13 3.7q2.8 6.1 2.6 9.6"/><path fill="#d33600" d="m10.2 14.2-2 2.2q-1.7 2.1-1.7 3.4-3.9 0-5.4-3.5 1.2 1.3 2.5-.5t1.2-5.1-.6-5.5q2.6 7.6 6 9m-6.6-1.3-.1.3-.4 1.4H3q-.9 2-2.1 0l.6-.6z"/><path fill="#debc01" d="m10.2 14.2.6 1q-3.2 2.9-3.6 5.3l-.7-.8q0-1.2 1.7-3.3z"/><path fill="none" stroke="#8f1201" stroke-linecap="round" stroke-linejoin="round" stroke-width="__RESOLUTION__" d="M10.8 15.3q3-1.3 5.3-.9l-.5-1.1q.3-3.5-2.6-9.6M.9 14.6l.7-.6 2-1.1m2.9 6.9q-3.8 0-5.4-3.5m5.4 3.5.7.6q.4-2.3 3.6-5.1" vector-effect="non-scaling-stroke"/><path fill="#f4edf5" d="m5.4 7-.8.2.2.7v.8l.4.6h.1l.6.9q.2.5 0 1.1-.1.6-.5.8l-.3.1v.4q-.1.7-.5 1l-.1.1.2.2q.3.3.3.8v.2q.1.4 0 .8l-.6.7-.6.1-.5.4-.8.2-.1-.1v.6l-.4.6H1l-.6-.5q-.3-.5-.2-.9v-.3l-.3-.9q0-.5.5-.7h1l.5.3.4-.5v-.4q.1-.4.5-.7l.3-.1-.3-.5q-.3-.7-.1-1.3v-.4h-.1Q2 11 2 10.4t.3-1.2l.4-.4-.4-1.3.2-1.3-.2-.1q-.4-.4-.4-1l.3-1 1-.7v-.1q-.2-.7.2-1.2t1.1-.5h.4l.6-.8Q6.1.4 7 .4l1.3.4L9.5.5l1.6.4.3-.4q.5-.6 1.1-.5t.8.8l.2 1.2h.3q.6-.2.8.3t0 1l-.2.4.4.4V5l-1.3-1q-.2-2-2.6-1.3l-.2-.2q-1.6-1.3-2.6.3-1.6-.6-1.7 1.3z"/><path fill="#dbc4df" d="M14.8 5q-.2.5-.8.8l-1-1.9-4.8.1-1.6.9h-.1l-.2 1q-.3.6-.9 1V7l1-2.9q0-1.8 1.6-1.2 1-1.6 2.6-.4l.2.2q2.3-.6 2.5 1.3z"/><path fill="#fff" d="m10.7 8-1-.9-.3 1.3 1.2.5zm1.8-1.7 1.2 2.3-1 .9.1 1.2-1.7.5-.8-1.2-1.5-.4-.3-3 1.7-1.2zM12 8.8l.5-1.1-.8-.7-.5.8z"/><path fill="none" stroke="#fff" stroke-linecap="round" stroke-linejoin="round" stroke-width="__RESOLUTION__" d="m14.5 12-2.2-.8-1.4 1.9m-1.5-3 2.9 1.1 1.6-2.1" vector-effect="non-scaling-stroke"/></g><g id="W"><path fill="#fff" d="m7 8.3.2-1.4Q17.4 6.3 26.3 0l-1 2.5-5 2.9L18.9 7l-1.7-.3z"/><path fill="#d2d6db" d="m7 8.3 10.2-1.7 1.7.4 1.4-1.6 5-2.9Q24 5.2 21.8 7.9 13 11.8 6.7 9.5z"/><path fill="none" stroke="#646d7b" stroke-linecap="round" stroke-linejoin="round" stroke-width="__RESOLUTION__" d="m25.4 2.5.9-2.5M6.7 9.6q6.3 2.2 15.2-1.7 2.2-2.7 3.5-5.4" vector-effect="non-scaling-stroke"/><path fill="#fed985" d="M2.5 8.8Q5.7 10.1 8 6.1q1.8 1 1.6 2.8-.6 1.8-2.2 2.8-1.4.9-5.6-.3z"/><path fill="#fecb1f" d="m2.5 8.8-.7 2.6Q2 9 0 9l.2-1.3q.1-.5.9-.8.4-.1 1 .6.4.7.4 1.3"/><path fill="none" stroke="#a37201" stroke-linecap="round" stroke-linejoin="round" stroke-width="__RESOLUTION__" d="M1.8 11.4q4.2 1.2 5.6.2Q9 10.8 9.6 9 9.8 7.1 8 6.1q-2.3 4-5.5 2.7 0-.6-.4-1.3-.6-.7-1-.6-.8.3-.9.8L0 9q2 .1 1.8 2.4" vector-effect="non-scaling-stroke"/></g><g id="X"><path fill="#6079e0" fill-opacity=".5" d="m.4 2.4 2.8-.6 1.5 5.5-1.5-.7-1.6.8L0 5.3z"/><path fill="#9cb4ff" fill-opacity=".5" d="M4.7 7.3 3.2 1.8l3-1.8L8 4.7 4.7 7.5z"/><path fill="none" stroke="#4765c8" stroke-linecap="round" stroke-linejoin="round" stroke-width="__RESOLUTION__" d="M.4 2.4 0 5.3l1.6 2 1.6-.7 1.5.7v.2l3.4-2.8L6 0" vector-effect="non-scaling-stroke"/></g><g id="Y"><path fill="#fecb1f" d="M6.3 5.4h-.6l-.6-2.7-1-1.8.5-.5v.2-.2L8.1 0l.5.4-2.4.7 1.2 2H5.7z"/><path fill="#d33600" d="m8.6.4-.1.3Q8.2 2.5 10 5.3l-3.7.1-.7-2.3h1.8l-1.2-2z"/><path fill="#d33600" d="M6.7 3.7q.3.4 5.9 1.3l6.2.9-.2 7.7 1.6 2.7q.6 7.2-1.1 9.5l-1.3.3-4-.2Q13 20 12 19.6q-1.9-1.9-5.2-2.7l4.2-2.4q-3.7-.1-5.7-4.7l6.8.4z"/><path fill="#c02701" d="m6.7 3.7 5.4 6.5-6.8-.4q2 4.6 5.7 4.7l-4.2 2.4q3.3.9 5.2 2.7 1 .4 1.9 6.3-1.6 0-3.3-1.7-1.9-2.1-3.1-2.6-1-.3-1.9 0l3.1-2.2-2-2.5-1.3 2.7q-1 .9-3.3.9Q.8 19.4.2 17.3v-.1Q2.1 10.9 5 5.5l1.6-1.8z"/><path fill="#d39401" d="m13.9 25.9 3.9.2-.2 1q-4.6 1-7.1-1.5l-1.8-1.9q-1.1-.9-2.3-1-.5 0-1.1 1t-1.6.8q-2-.2-2.7-1.7-1.5-2.8-.8-5.5.2 5 3.2 5.9 1.1-1.2 2.2-1.6 1-.3 1.9 0 1.2.5 3.1 2.5 1.7 1.7 3.3 1.8"/><path fill="#fecb1f" d="m17.8 26 1.3-.1q4.5-1.3 6.7-4.5l.3.9Q25 25 18.5 26.9l-1 .3z"/><path fill="#f1540e" d="M19.1 25.9q1.7-2.4 1.1-9.6l-1.5-2.8V6l1.7-.7q4 6 5.4 16.2-2.2 3.2-6.7 4.5"/><path fill="#ac1602" d="M5.6 21.7q-1 .3-2.2 1.4-3-.9-3.2-5.8.5 2 1.9 3.2 2.2 0 3.2-.9l1.4-2.7 2 2.6z"/><path fill="none" stroke="#8f1201" stroke-linecap="round" stroke-linejoin="round" stroke-width="__RESOLUTION__" d="M20.4 5.2q4 6 5.4 16.2M.2 17.3v-.1Q2 10.9 4.9 5.5" vector-effect="non-scaling-stroke"/><path fill="none" stroke="#c78b01" stroke-linecap="round" stroke-linejoin="round" stroke-width="__RESOLUTION__" d="m25.8 21.4.3.9Q25 25 18.5 26.9l-1 .3q-4.5 1-7-1.6l-1.8-1.9q-1.1-.9-2.3-1-.4 0-1.1 1t-1.6.8q-2-.2-2.7-1.7-1.5-2.8-.8-5.5" vector-effect="non-scaling-stroke"/><path fill="#fecb1f" d="m23.5 10-1 .9-1 .2q-.6 0-.7-.2t.3-.7l.9-.7q.6-.4 1.1-.4l.5.3q.1.3-.2.7"/><path fill="none" stroke="#c78b01" stroke-linecap="round" stroke-linejoin="round" stroke-width="__RESOLUTION__" d="M23.5 10q.2-.3.1-.6l-.5-.3q-.5 0-1.1.4l-.9.6q-.4.5-.3.7.1.3.6.3l1.1-.3z" vector-effect="non-scaling-stroke"/><path fill="#fecb1f" d="m25.7 16.7-1 .8-1 .3q-.5 0-.6-.3t.2-.7l1-.7q.5-.3 1-.3t.6.3q.1.2-.2.6"/><path fill="none" stroke="#c78b01" stroke-linecap="round" stroke-linejoin="round" stroke-width="__RESOLUTION__" d="M25.7 16.7q.3-.3.2-.6t-.5-.4q-.6 0-1.2.4l-.9.7q-.3.5-.2.7.1.3.6.3l1-.3z" vector-effect="non-scaling-stroke"/><path fill="#f1540e" d="m23.4 2.6-.1.2q-1.1 1.8-.9 4.4-1.1.7-3.3.9l-1-1h-.8l1-2.8.9-.6z"/><path fill="#fecb1f" d="m23.4 2.6-4.1 1.2h-.1v-.1l-.9.6-8.8-.1-4.6-2-.2-.6 4.5 1.9q8 .3 14-1.3z"/><path fill="#d33600" d="m18.3 4.3-1 2.8-7.4-.7-4.1-1.7-.9-2.5 4.6 2z"/><path fill="#c02701" d="m17.4 7 .7.1 1 1-2.5-.2h-.5l-5.7-.7-4.2-1.6-.4-.9 4 1.7z"/><path fill="#d39401" d="M16.1 7.9h.6z"/><path fill="none" stroke="#8f1201" stroke-linecap="round" stroke-linejoin="round" stroke-width="__RESOLUTION__" d="M22.4 7.2q-.2-2.6.9-4.4" vector-effect="non-scaling-stroke"/><path fill="#fecb1f" d="M23.2 4.6 22 3.5 23.2 2l1.7 1.4z"/><path fill="none" stroke="#c78b01" stroke-linecap="round" stroke-linejoin="round" stroke-width="__RESOLUTION__" d="M23.2 4.6 22 3.5 23.2 2l1.7 1.4z" vector-effect="non-scaling-stroke"/></g><g id="Z"><path fill="#9cb6ff" fill-opacity=".5" d="M19.7 0q3.3 4.2 4.5 9.9-.1 2.8-2.5 5.7t-7.3 4q-6.7 1.1-11-.6Q-1 16.8.3 11.7q-.5-8 6.4-10.4L13.2 0z"/><path fill="none" stroke="#4765c8" stroke-linecap="round" stroke-linejoin="round" stroke-width="__RESOLUTION__" d="M19.7 0q3.3 4.2 4.5 9.9-.1 2.8-2.5 5.7t-7.3 4q-6.7 1.1-11-.6" vector-effect="non-scaling-stroke"/></g><g id="aa"><path fill="#d33600" d="m1.3 1.9 2.4 4.4.2 1.5-3 1L0 3.9z"/><path fill="#f1540e" d="m3.9 7.8-.2-1.5-2.4-4.4L3.5 0l3 1.9L8 4.5z"/><path fill="none" stroke="#8f1201" stroke-linecap="round" stroke-linejoin="round" stroke-width="__RESOLUTION__" d="M1.3 1.9 0 3.9l.9 4.9m5.6-7L3.4 0 1.3 1.9M8 4.5 6.5 1.7" vector-effect="non-scaling-stroke"/></g><g id="ab"><path fill="#f1540e" d="M10.6 6Q7.9 9.2 6.8 9.7L3.2 4.5 3 2.4 7 0z"/><path fill="#d33600" d="m3 2.4.2 2.1 3.6 5-4.2.6L.2 5.6 0 4.4z"/><path fill="none" stroke="#8f1201" stroke-linecap="round" stroke-linejoin="round" stroke-width="__RESOLUTION__" d="M10.6 6 7 0M2.6 10 .2 5.7 0 4.4" vector-effect="non-scaling-stroke"/><path fill="#c67b32" d="m7.2 7.8 3.5-2.2 2 3.8-4 3.4z"/><path fill="#9f540b" d="m8.8 12.8-5.9 1.4-.6-4.8 4.9-1.6z"/><path fill="none" stroke="#653507" stroke-linecap="round" stroke-linejoin="round" stroke-width="__RESOLUTION__" d="m7.2 7.8 3.5-2.2 2 3.8-4 3.4L3 14.1l-.7-4.7z" vector-effect="non-scaling-stroke"/><path fill="#fecb1f" d="M10.9 8.7q-.4-.2-.5-.7-.2-.5 0-.8t.6-.4l.7.2.6.7q.1.5-.1.8l-.5.5q-.4 0-.8-.3"/><path fill="none" stroke="#de8a25" stroke-linecap="round" stroke-linejoin="round" stroke-width="__RESOLUTION__" d="M10.9 8.7q-.4-.2-.5-.7-.2-.5 0-.8t.6-.4l.7.2.6.7q.1.5-.1.8l-.5.5q-.4 0-.8-.3" vector-effect="non-scaling-stroke"/></g><g id="bv" transform="translate(14.75 35.3)"><use xlink:href="#af" width="14.7" height="4.3" transform="translate(5.2 25.95)scale(.6629)"/><use xlink:href="#ag" width="12.8" height="14.2" transform="matrix(.4386 .9043 .9322 -.3367 13.95 -.1)"/><use xlink:href="#ah" width="8" height="8.8" transform="matrix(.4386 .9043 .9322 -.3367 9.5 .6)"/><use xlink:href="#ai" width="24.1" height="20" transform="matrix(-1 0 0 1 18.9 4.5)"/><use xlink:href="#aj" width="26.1" height="27.4" transform="matrix(-.9524 .3016 .4027 .9204 20.1 -6.1)"/><use xlink:href="#ak" width="8.1" height="7.5" transform="matrix(-.5449 .8367 .9061 .4384 12.15 14.5)"/><use xlink:href="#ag" width="12.8" height="14.2" transform="matrix(-.5449 .8367 .9061 .4384 7.5 5.65)"/><use xlink:href="#ah" width="8" height="8.8" transform="matrix(-.5449 .8367 .9061 .4384 4.05 3)"/><use xlink:href="#al" width="26.3" height="12.1" transform="matrix(-.5449 .8367 .9061 .4384 9.6 12.7)"/><use xlink:href="#am" width="16.1" height="20.4" transform="matrix(-1.18 .2631 .2631 1.18 9.95 -22.9)"/><use xlink:href="#an" width="13.3" height="13.9" transform="matrix(-1.18 .2631 .2631 1.18 5.05 2.15)"/><use xlink:href="#ao" width="14.2" height="11.1" transform="matrix(-1.18 .2631 .2631 1.18 6.75 -5.95)"/><use xlink:href="#ap" width="15.3" height="55" transform="matrix(.4847 .165 .0538 -.1029 -1.3 -20.7)"/><use xlink:href="#ap" width="15.3" height="55" transform="matrix(.1881 .3397 .1411 -.0524 -.05 -21.65)"/><use xlink:href="#aq" width="13.2" height="11.2" transform="matrix(.3456 -.0298 .0086 .4264 -3.05 -19.65)"/><use xlink:href="#aq" width="13.2" height="11.2" transform="matrix(.3855 -.0883 .1385 .3967 -1.2 -18.75)"/><use xlink:href="#ar" width="12.6" height="19.8" transform="matrix(.3855 -.0883 .1385 .3967 -7.65 -34.15)"/><use xlink:href="#as" width="13.1" height="18.9" transform="matrix(.511 -.1652 .2142 .4368 -6.7 -26.45)"/><use xlink:href="#at" width="23.1" height="27.4" transform="matrix(.352 .1784 -.1464 .3922 -10.75 -32.85)"/><use xlink:href="#au" width="22.8" height="30.1" transform="matrix(.5609 -.1349 .1127 .3226 -4.8 -31.45)"/><use xlink:href="#av" width="10.7" height="9.7" transform="matrix(-.9524 .3016 .4027 .9204 29.3 11.5)"/></g><g id="bt" transform="translate(25.55 12.45)"><use xlink:href="#aw" width="27.9" height="27.9" transform="translate(-7.45 -2.85)scale(.6188)"/><use xlink:href="#ae" width="34.7" height="28.6" transform="translate(-25.55 -12.45)scale(1.21)"/></g><g id="bq" transform="translate(14.75 35.3)"><use xlink:href="#ax" width="14.7" height="4.3" transform="translate(5.2 25.95)scale(.6629)"/><use xlink:href="#az" width="12.8" height="14.2" transform="matrix(.4386 .9043 .9322 -.3367 13.95 -.1)"/><use xlink:href="#aA" width="8" height="8.8" transform="matrix(.4386 .9043 .9322 -.3367 9.5 .6)"/><use xlink:href="#aB" width="24.1" height="20" transform="matrix(-1 0 0 1 18.9 4.5)"/><use xlink:href="#aC" width="26.1" height="27.4" transform="matrix(-.9524 .3016 .4027 .9204 20.1 -6.1)"/><use xlink:href="#aD" width="8.1" height="7.5" transform="matrix(-.5449 .8367 .9061 .4384 12.15 14.5)"/><use xlink:href="#az" width="12.8" height="14.2" transform="matrix(-.5449 .8367 .9061 .4384 7.5 5.65)"/><use xlink:href="#aA" width="8" height="8.8" transform="matrix(-.5449 .8367 .9061 .4384 4.05 3)"/><use xlink:href="#aE" width="26.3" height="12.1" transform="matrix(-.5449 .8367 .9061 .4384 9.6 12.7)"/><use xlink:href="#aF" width="16.1" height="20.4" transform="matrix(-1.18 .2631 .2631 1.18 9.95 -22.9)"/><use xlink:href="#aG" width="13.3" height="13.9" transform="matrix(-1.18 .2631 .2631 1.18 5.05 2.15)"/><use xlink:href="#aH" width="14.2" height="11.1" transform="matrix(-1.18 .2631 .2631 1.18 6.75 -5.95)"/><use xlink:href="#aI" width="15.3" height="55" transform="matrix(.4847 .165 .0538 -.1029 -1.3 -20.7)"/><use xlink:href="#aI" width="15.3" height="55" transform="matrix(.1881 .3397 .1411 -.0524 -.05 -21.65)"/><use xlink:href="#aJ" width="13.2" height="11.2" transform="matrix(.3456 -.0298 .0086 .4264 -3.05 -19.65)"/><use xlink:href="#aJ" width="13.2" height="11.2" transform="matrix(.3855 -.0883 .1385 .3967 -1.2 -18.75)"/><use xlink:href="#aK" width="12.6" height="19.8" transform="matrix(.3855 -.0883 .1385 .3967 -7.65 -34.15)"/><use xlink:href="#aL" width="13.1" height="18.9" transform="matrix(.511 -.1652 .2142 .4368 -6.7 -26.45)"/><use xlink:href="#aM" width="23.1" height="27.4" transform="matrix(.352 .1784 -.1464 .3922 -10.75 -32.85)"/><use xlink:href="#aN" width="22.8" height="30.1" transform="matrix(.5609 -.1349 .1127 .3226 -4.8 -31.45)"/><use xlink:href="#aO" width="10.7" height="9.7" transform="matrix(-.9524 .3016 .4027 .9204 29.3 11.5)"/></g><g id="bk" transform="translate(25.55 12.45)"><use xlink:href="#aw" width="27.9" height="27.9" transform="translate(-7.45 -2.85)scale(.6188)"/><use xlink:href="#ae" width="34.7" height="28.6" transform="translate(-17.6 -6.6)scale(.815)"/></g><g id="bi" transform="translate(14.75 35.3)"><use xlink:href="#aP" width="14.7" height="4.3" transform="translate(5.2 25.95)scale(.6629)"/><use xlink:href="#aQ" width="12.8" height="14.2" transform="matrix(.4386 .9043 .9322 -.3367 13.95 -.1)"/><use xlink:href="#aR" width="8" height="8.8" transform="matrix(.4386 .9043 .9322 -.3367 9.5 .6)"/><use xlink:href="#aS" width="24.1" height="20" transform="matrix(-1 0 0 1 18.9 4.5)"/><use xlink:href="#aT" width="26.1" height="27.4" transform="matrix(-.9524 .3016 .4027 .9204 20.1 -6.1)"/><use xlink:href="#aU" width="8.1" height="7.5" transform="matrix(-.5449 .8367 .9061 .4384 12.15 14.5)"/><use xlink:href="#aQ" width="12.8" height="14.2" transform="matrix(-.5449 .8367 .9061 .4384 7.5 5.65)"/><use xlink:href="#aR" width="8" height="8.8" transform="matrix(-.5449 .8367 .9061 .4384 4.05 3)"/><use xlink:href="#aV" width="26.3" height="12.1" transform="matrix(-.5449 .8367 .9061 .4384 9.6 12.7)"/><use xlink:href="#aW" width="16.1" height="20.4" transform="matrix(-1.18 .2631 .2631 1.18 9.95 -22.9)"/><use xlink:href="#aX" width="13.3" height="13.9" transform="matrix(-1.18 .2631 .2631 1.18 5.05 2.15)"/><use xlink:href="#aY" width="14.2" height="11.1" transform="matrix(-1.18 .2631 .2631 1.18 6.75 -5.95)"/><use xlink:href="#aZ" width="15.3" height="55" transform="matrix(.4847 .165 .0538 -.1029 -1.3 -20.7)"/><use xlink:href="#ba" width="15.3" height="55" transform="matrix(.1881 .3397 .1411 -.0524 -.05 -21.65)"/><use xlink:href="#bb" width="13.2" height="11.2" transform="matrix(.3456 -.0298 .0086 .4264 -3.05 -19.65)"/><use xlink:href="#bb" width="13.2" height="11.2" transform="matrix(.3855 -.0883 .1385 .3967 -1.2 -18.75)"/><use xlink:href="#bc" width="12.6" height="19.8" transform="matrix(.3855 -.0883 .1385 .3967 -7.65 -34.15)"/><use xlink:href="#bd" width="13.1" height="18.9" transform="matrix(.511 -.1652 .2142 .4368 -6.7 -26.45)"/><use xlink:href="#be" width="23.1" height="27.4" transform="matrix(.352 .1784 -.1464 .3922 -10.75 -32.85)"/><use xlink:href="#bf" width="22.8" height="30.1" transform="matrix(.5609 -.1349 .1127 .3226 -4.8 -31.45)"/><use xlink:href="#bg" width="10.7" height="9.7" transform="matrix(-.9524 .3016 .4027 .9204 29.3 11.5)"/></g><clipPath id="bh"><path d="M1 1h72v86H1z"/></clipPath><clipPath id="bl"><path d="M74 1h72v86H74z"/></clipPath><clipPath id="bn"><path d="M147 1h72v86h-72z"/></clipPath><clipPath id="bp"><path d="M220 1h72v86h-72z"/></clipPath><clipPath id="bs"><path d="M293 1h72v86h-72z"/></clipPath><clipPath id="bu"><path d="M366 1h72v86h-72z"/></clipPath><clipPath id="bw"><path d="M439 1h72v86h-72z"/></clipPath><clipPath id="by"><path d="M512 1h72v86h-72z"/></clipPath><clipPath id="bz"><path d="M585 1h72v86h-72z"/></clipPath><clipPath id="bA"><path d="M658 1h72v86h-72z"/></clipPath><path id="r" fill="#900" d="M5.8-1.9Q7.9-1.4 8-.5 8 .3 5.9 1 3.8 1.8.7 2l-5.2-.4Q-6.7 1.2-6.7.3q-.1-.8 2-1.6 2.2-.8 5.2-.9z" transform="translate(6.75 2.25)"/><path id="t" fill="#fff" d="M9.8-10.2q3.3 3.3 4 7.7l.1 2.2q0 5.7-4.1 9.8-3.3 3.3-7.6 4l-2.2.1q-5.8 0-10-4.1-2.6-2.6-3.5-6-.5-1.8-.5-3.8 0-5.8 4-10h.2q4-4 9.8-4 3.7 0 6.6 1.7 1.7.9 3.2 2.3" transform="translate(14 14.3)"/><path id="K" fill="#fc0" d="M5.8-1.9Q7.9-1.4 8-.5 8 .3 5.9 1 3.8 1.8.7 2l-5.2-.4Q-6.7 1.2-6.7.3q-.1-.8 2-1.6 2.2-.8 5.2-.9z" transform="translate(6.75 2.25)"/><path id="ac" fill="#382c16" d="M5.8-1.9Q7.9-1.4 8-.5 8 .3 5.9 1 3.8 1.8.7 2l-5.2-.4Q-6.7 1.2-6.7.3q-.1-.8 2-1.6 2.2-.8 5.2-.9z" transform="translate(6.75 2.25)"/></defs><g clip-path="url(#bh)"><g transform="translate(25.4 73.9)"><use xlink:href="#bi" width="48" height="75.3" transform="translate(-24.4 -62.75)"/><use xlink:href="#bj" width="36.4" height="34.2" transform="translate(10.45 -72.9)"/><use xlink:href="#bk" width="42" height="34.5" transform="matrix(-.916 0 0 .916 26.15 -39.2)"/></g></g><g clip-path="url(#bl)"><g transform="translate(98.4 73.9)"><use xlink:href="#bi" width="48" height="75.3" transform="translate(-24.4 -62.75)"/><use xlink:href="#bm" width="36.4" height="34.2" transform="translate(10.45 -72.9)"/><use xlink:href="#bk" width="42" height="34.5" transform="matrix(-.916 0 0 .916 26.15 -39.2)"/></g></g><g clip-path="url(#bn)"><g transform="translate(171.4 73.9)"><use xlink:href="#bi" width="48" height="75.3" transform="translate(-24.4 -62.75)"/><use xlink:href="#bo" width="36.4" height="34.2" transform="translate(10.45 -72.9)"/><use xlink:href="#bk" width="42" height="34.5" transform="matrix(-.916 0 0 .916 26.15 -39.2)"/></g></g><g clip-path="url(#bp)"><g transform="translate(244.4 73.9)"><use xlink:href="#bq" width="48" height="75.3" transform="translate(-24.4 -62.75)"/><use xlink:href="#br" width="42" height="34.5" transform="matrix(-.916 0 0 .916 26.15 -39.2)"/></g></g><g clip-path="url(#bs)"><g transform="translate(317.4 73.9)"><use xlink:href="#bq" width="48" height="75.3" transform="translate(-24.4 -62.75)"/><use xlink:href="#bt" width="42" height="34.5" transform="matrix(-.916 0 0 .916 26.15 -39.2)"/></g></g><g clip-path="url(#bu)"><g transform="translate(390.4 73.9)"><use xlink:href="#bv" width="48" height="75.3" transform="translate(-24.4 -62.75)"/><use xlink:href="#br" width="42" height="34.5" transform="matrix(-.916 0 0 .916 26.15 -39.2)"/></g></g><g clip-path="url(#bw)"><g transform="translate(463.4 73.9)"><use xlink:href="#bq" width="48" height="75.3" transform="translate(-24.4 -62.75)"/><use xlink:href="#bx" width="36.4" height="34.2" transform="translate(10.45 -72.9)"/></g></g><g clip-path="url(#by)"><g transform="translate(536.4 73.9)"><use xlink:href="#bv" width="48" height="75.3" transform="translate(-24.4 -62.75)"/><use xlink:href="#bx" width="36.4" height="34.2" transform="translate(10.45 -72.9)"/></g></g><g clip-path="url(#bz)"><g transform="translate(609.4 73.9)"><use xlink:href="#bv" width="48" height="75.3" transform="translate(-24.4 -62.75)"/><use xlink:href="#bx" width="36.4" height="34.2" transform="translate(10.45 -72.9)"/></g></g><g clip-path="url(#bA)"><g transform="translate(682.4 73.9)"><use xlink:href="#bi" width="48" height="75.3" transform="translate(-24.4 -62.75)"/><use xlink:href="#bx" width="36.4" height="34.2" transform="translate(10.45 -72.9)"/></g></g></svg>