<svg xmlns="http://www.w3.org/2000/svg" xmlns:xlink="http://www.w3.org/1999/xlink" width="401" height="29" viewBox="0 0 401 29"><defs><clipPath id="I"><path d="M1 1h24v27H1z"/></clipPath><clipPath id="S"><path d="M26 1h24v27H26z"/></clipPath><clipPath id="T"><path d="M51 1h24v27H51z"/></clipPath><clipPath id="U"><path d="M76 1h24v27H76z"/></clipPath><clipPath id="V"><path d="M101 1h24v27h-24z"/></clipPath><clipPath id="W"><path d="M126 1h24v27h-24z"/></clipPath><clipPath id="X"><path d="M151 1h24v27h-24z"/></clipPath><clipPath id="Y"><path d="M176 1h24v27h-24z"/></clipPath><clipPath id="Z"><path d="M201 1h24v27h-24z"/></clipPath><clipPath id="aa"><path d="M226 1h24v27h-24z"/></clipPath><clipPath id="ab"><path d="M251 1h24v27h-24z"/></clipPath><clipPath id="ac"><path d="M276 1h24v27h-24z"/></clipPath><clipPath id="ad"><path d="M301 1h24v27h-24z"/></clipPath><clipPath id="ae"><path d="M326 1h24v27h-24z"/></clipPath><clipPath id="af"><path d="M351 1h24v27h-24z"/></clipPath><clipPath id="ag"><path d="M376 1h24v27h-24z"/></clipPath><g id="F"><path fill="#366d61" d="m4.1 1.1-.3.8-.6.3q.5.6.5 1.3t-.5 1.3-1.3.5-1.3-.5T0 3.5t.6-1.3l-.1-.5.2-.7q.3-.3.7-.3T2 1l.1-.4.4-.2.3.1.1-.3q.2-.3.5-.3l.4.3zM2.5 4.8q.3 0 .6-.3l.3-.8-.3-.9q-.3-.3-.6-.3-.4 0-.7.3l-.2.9.2.8q.3.4.7.4"/><path fill="#140000" d="M2.5 4.9q-.4 0-.7-.4l-.2-.8.2-.9q.3-.3.7-.3t.6.3l.3.9-.3.8q-.3.4-.6.4"/><path fill="none" stroke="#362f20" stroke-linecap="round" stroke-linejoin="round" stroke-opacity=".3" stroke-width="__RESOLUTION__" d="m4.1 1.1-.3.8-.6.3q.5.6.5 1.3t-.5 1.3-1.3.5-1.3-.5T0 3.5t.6-1.3h0l-.1-.5.2-.7q.3-.3.7-.3T2 1h0l.1-.4.4-.2.3.1.1-.3q.2-.3.5-.3l.4.3z" vector-effect="non-scaling-stroke"/></g><g id="G"><path fill="#8dc7b5" d="M1.3 7.6h-.1Q0 6 0 4.6t1.2-3.1T4.7 0l2.2.5q.9.4 1.7 1.2 1.5 1.7.6 3.4T7.1 7.8 5 8.9H4Q2.6 9 1.4 7.8z"/><path fill="none" stroke="#000" stroke-linecap="round" stroke-linejoin="round" stroke-opacity=".3" stroke-width="__RESOLUTION__" d="M1.3 7.6h-.1Q0 6 0 4.6t1.2-3.1T4.7 0l2.2.5q.9.4 1.7 1.2 1.5 1.7.6 3.4T7.1 7.8 5 8.9" vector-effect="non-scaling-stroke"/></g><g id="H"><path fill="#366d61" d="M0 4.5 6.4 0 10 1.8l2 3.7.2 1.4-1.6 1.6L9 7.9l-1.2 1-.8-.3-1.4.6zm5.2 3.4 1.8.7zm1.3-.7L9 8z"/><path fill="none" stroke="#000" stroke-linecap="round" stroke-linejoin="round" stroke-opacity=".3" stroke-width="__RESOLUTION__" d="M0 4.5 6.4 0M10 1.8l2 3.7.2 1.4-1.6 1.6L9 7.9l-1.2 1-.8-.3-1.4.6M7 8.7l-1.8-.8m3.8 0-2.5-.7" vector-effect="non-scaling-stroke"/></g><g id="d"><path fill="none" stroke="#362e20" stroke-linecap="round" stroke-linejoin="round" stroke-opacity=".5" stroke-width="__RESOLUTION__" d="M13 1.9Q11.8 0 10.8 0 6.4.5 4.6 1.7L3.5 3.6M1.7 6.5.9 7.7l3.3.3-1.4 2.5 2-.8.3 2.4 4.9-3 3.5.4-.5-3.4v-.7" vector-effect="non-scaling-stroke"/><path fill="none" stroke="#000" stroke-linecap="round" stroke-linejoin="round" stroke-opacity=".3" stroke-width="__RESOLUTION__" d="M3.5 3.6H1.9L0 5.8l1.7.7m11.3-1 1.4.5L13 1.9" vector-effect="non-scaling-stroke"/><path fill="#fff" fill-opacity=".2" d="m13 1.8-5.5 1-.8.3-2-1.5Q6.5.4 10.8 0q1 0 2.3 1.8"/><path fill="#000" fill-opacity=".2" d="m6.7 3.1.8-.3 5.6-1 1.3 4.1-1.4-.4V6l.4 3.4-3.5-.3L5.2 12l1.2-3.4-1.1-.1.8-2-1-.2zm-5 3.3L.1 5.7l1.8-2.2h1.6z"/></g><g id="b"><path fill="#fff" d="M.7 7.6Q0 6.5 0 5q0-2 1.5-3.6Q2.8 0 5 0q1.5 0 2.7.8.6 1 .6 2.5 0 2-1.4 3.5-1.5 1.5-3.6 1.5-1.5 0-2.6-.7"/><path fill="#cecab0" d="M.7 7.6q1.1.7 2.6.7 2 0 3.6-1.5 1.4-1.5 1.4-3.5 0-1.4-.6-2.5l.9.7q1.5 1.5 1.5 3.6T8.5 8.6Q7.1 10.1 5 10.1T1.5 8.6z"/><path fill="none" stroke="#362d20" stroke-linecap="round" stroke-linejoin="round" stroke-opacity=".3" stroke-width="__RESOLUTION__" d="M7.7.8Q6.5 0 5 0 2.9 0 1.5 1.5 0 3 0 5.1q0 1.4.7 2.5l.8 1q1.4 1.5 3.5 1.5t3.6-1.5 1.5-3.5-1.5-3.6z" vector-effect="non-scaling-stroke"/><path fill="#000" d="M6.4 3.8q.3-.4.8-.4t.8.4l.3 1-.3 1q-.3.5-.8.5t-.9-.4-.3-1 .3-1.1"/></g><g id="a"><path fill="#366d61" d="M1.8 4.1 4 3.3l.9.3-2.5.9-.1 1.3-.5-.4z"/><path fill="#8dc7b5" d="m2.4 5.9.2-1.4 2.3-.8-.7 1.5z"/><path fill="none" stroke="#1f1f1f" stroke-linecap="round" stroke-linejoin="round" stroke-opacity=".3" stroke-width="__RESOLUTION__" d="m1.8 4.1.1 1.3.5.4 1.9-.6.7-1.6" vector-effect="non-scaling-stroke"/><path fill="#8dc7b5" d="M1.8 1.4 2.9.9l.6-.3q.5 0 1.9.7.6.7.2 1.5-1 1-1.9.8L1.1 4.8q-1.2-.7.7-3.4m2 .7V3l-.1.6.1-.6z"/><path fill="#366d61" d="M1.2 4.8Q.7 5 0 4.6q0-1.4.7-2.2l.9-.8.2-.2Q0 4.1 1.2 4.8"/><path fill="none" stroke="#1f1f1f" stroke-linecap="round" stroke-linejoin="round" stroke-opacity=".4" stroke-width="__RESOLUTION__" d="M1.8 1.4 2.9.9l.6-.3h0q.5 0 1.9.7.6.7.2 1.5-1 1-1.9.8L1.1 4.8Q.8 5 0 4.6q0-1.4.7-2.2l.9-.8zQ0 4.1 1.2 4.8m2.5-1.2.1-.6V2" vector-effect="non-scaling-stroke"/><path fill="#1d1d17" d="M4.1 0h.3v.8l-.1.5-.5.3-1 .3q-.7-.3-.5-1.2L3.4.2l.4.3.4-.2z"/><path fill="#c9c9c3" d="m4.1 0 .1.3-.4.2-.4-.3z"/></g><g id="i"><path fill="#000" fill-opacity=".2" d="M10.2 3.2Q8 5.2 5.7 6.5L5 5.3 2.8 6.7l-.2-2.3-2.6.1L3.3 3h2.2l-1-.9 2.6.3z"/><path fill="none" stroke="#362e20" stroke-linecap="round" stroke-linejoin="round" stroke-opacity=".4" stroke-width="__RESOLUTION__" d="m0 4.6 2.4-2H1.2L2.7 1 2.4.5 6 .1l2.5.9-.1-1 1.3 1.1.3-.6v1.1l.3 1.6Q8 5.2 5.7 6.5L5 5.3 2.8 6.7l-.2-2.3z" vector-effect="non-scaling-stroke"/></g><g id="p"><path fill="#000" fill-opacity=".8" d="m7.7 2 2.9-.9.2.3-.9 1L11 4l-3-.8.2-.4v-.1z"/><path fill="none" stroke="#362f20" stroke-linecap="round" stroke-linejoin="round" stroke-opacity=".3" stroke-width="__RESOLUTION__" d="m11 4 .3.5-2.6 2.8m-1-5.2.6.6h-.1l-.2.5 3 .7m-3-.7v2m-6.3.9L0 4.1 1.2.8 3.9 0l.7.7.6.7.1-.2h1.5l.9.9M4.5.7l-2.3.4m3 .2-1.5 2" vector-effect="non-scaling-stroke"/></g><g id="Q" transform="translate(5.65 4.2)"><use xlink:href="#a" width="5.8" height="5.8" transform="translate(-4.65 -3.1)"/><use xlink:href="#b" width="10.1" height="10.1" transform="rotate(31.79 8.3 1.15)scale(.407)"/><use xlink:href="#b" width="10.1" height="10.1" transform="rotate(31.78 5.75 -4.48)scale(.4893)"/><use xlink:href="#c" width="14.3" height="12" transform="translate(-5.65 -2.9)"/><use xlink:href="#d" width="14.4" height="12.1" transform="translate(-5.65 -2.95)"/></g><g id="P"><use xlink:href="#e" width="5.2" height="8.7"/><use xlink:href="#f" width="5.2" height="8.7"/><use xlink:href="#g" width="4.2" height="7.8"/></g><g id="O"><use xlink:href="#h" width="10.2" height="6.7"/><use xlink:href="#i" width="10.2" height="6.7"/></g><g id="N"><use xlink:href="#j" width="9.6" height="8.9"/><use xlink:href="#k" width="9.6" height="8.9"/></g><g id="M"><use xlink:href="#l" width="5.9" height="6.5"/><use xlink:href="#m" width="5.9" height="6.5"/></g><g id="J" transform="translate(7.15 3.15)"><use xlink:href="#n" width="1.1" height=".3" transform="translate(.35 -3.15)"/><use xlink:href="#o" width="11.3" height="8.8" transform="translate(-7.15 -3.15)"/><use xlink:href="#p" width="11.3" height="7.3" transform="translate(-7.15 -1.65)"/></g><path id="q" fill="#c9e9dc" d="M7.2-.1 5.8-.6v.7l.5 3.4-3.5-.3L-2 6l-.3-2.3-2.1.7L-2.9 2l-3.3-.3.7-1.2-1.6-.7 1.8-2.1h1.5l1.2-2Q-.7-5.5 3.6-6q1 0 2.2 1.8z" transform="translate(7.15 6)"/><path id="r" fill="#a5dac6" d="M.7-3.8q.7.1 1.1.6L2.6 1 1.9.3 2 3.2l-.5-.6-.3 1.9L.1 3l-1 .3-1-1.2h-.7l.8-3.1.9-1.7-1-.6 1.2-.5-.7-.6L0-4h.4z" transform="translate(2.6 4.3)"/><path id="B" fill="#fcfff1" d="m4.5-2.2.3-.6v1.1l.3 1.5Q2.8 2 .5 3.3L0 2l-2.3 1.4-.2-2.3-2.6.2 2.4-2H-4l1.5-1.6-.2-.5 3.4-.5 2.5 1-.1-1z" transform="translate(5.1 3.3)"/><path id="C" fill="#c9e9dc" d="M3.8-2.7Q5.4-1 4.5.5T2.3 3.3t-2 1.2h-1q-1.5 0-2.7-1.2l-.1-.2q-1.3-1.5-1.3-3t1.2-3 3.5-1.5l2.2.4q1 .4 1.7 1.3" transform="translate(4.75 4.45)"/><path id="D" fill="#c9e9dc" d="M2-3.2 3-.5 1.7 2.2-.5 3.3l-2.1-1.2-.3-3.2.9-1.2 1.4-1z" transform="translate(2.95 3.25)"/><path id="E" fill="#366d61" d="m1.5-1.5-1.1-1 .3-1.1.1-.1 1-.7 1.9.5L5-1.6l-.8.9 1.4 2.1L3 4.3l-3.8.1L-4 3l-1.7-1.9 1.2-3.5 2.7-.6 1.4 1.3v-.1h1.5z" transform="translate(5.65 4.4)"/><path id="g" fill="#000" fill-opacity=".2" d="m.4-.6.7 2-.4 1.4-.6-.1L.5 5l-1.1-.5.2 1.2-.7.8-.4.1-.9-1.2H-3l.7-3.1.9-1.7-1-.6L-1-.5l-.7-.6 1.3.4h.8z" transform="translate(3.05 1.15)"/><path id="e" fill="none" stroke="#362e20" stroke-linecap="round" stroke-linejoin="round" stroke-opacity=".4" stroke-width="__RESOLUTION__" d="M3.4.5q.7.1 1.1.6l.7 4.3-.6-.7v2.7l-.5-.6-.3 1.9-1.1-1.2h0l-1 .3m-1-1.3H0l.8-3.1m.9-1.7-1-.5L1.9.6 1.2 0l1.4.5m-1 7.3L.8 6.5m0-3.1.9-1.7" vector-effect="non-scaling-stroke"/><path id="j" fill="none" stroke="#362f20" stroke-linecap="round" stroke-linejoin="round" stroke-opacity=".3" stroke-width="__RESOLUTION__" d="m-4.1-4.7 2.2.5q1 .4 1.7 1.2Q1.4-1.3.4.4t-2 2.6-2 1.1h-1q-1.5.1-2.8-1.3h0q-1.3-1.5-1.2-3 0-1.5 1.1-3.1Q-6.3-4.8-4-4.8" transform="translate(8.75 4.7)" vector-effect="non-scaling-stroke"/><path id="l" fill="none" stroke="#000" stroke-linecap="round" stroke-linejoin="round" stroke-opacity=".3" stroke-width="__RESOLUTION__" d="M2-3.2H-.7l-1.3 1-1 1.1.3 3.2 2.2 1.2 2.4-1.1 1-2.6z" transform="translate(2.95 3.25)" vector-effect="non-scaling-stroke"/><path id="n" fill="#c63" d="m.4-3.1 1 .3z" transform="translate(-.35 3.15)"/><use xlink:href="#q" id="c" width="14.3" height="12"/><use xlink:href="#r" id="f" width="5.2" height="8.7"/><use xlink:href="#B" id="h" width="10.2" height="6.7"/><use xlink:href="#C" id="k" width="9.6" height="8.9"/><use xlink:href="#D" id="m" width="5.9" height="6.5"/><use xlink:href="#E" id="o" width="11.3" height="8.8"/><use xlink:href="#F" id="R" width="4.1" height="5.3"/><use xlink:href="#G" id="L" width="9.6" height="8.9"/><use xlink:href="#H" id="K" width="12.2" height="9.2"/></defs><g clip-path="url(#I)"><g transform="translate(8.2 23.5)"><use xlink:href="#J" width="11.3" height="8.8" transform="matrix(.387 .1003 .1003 -.387 2.95 -9.85)"/><use xlink:href="#K" width="12.2" height="9.2" transform="matrix(.2264 -.1402 .2626 .4242 4.55 -5.05)"/><use xlink:href="#L" width="9.6" height="8.9" transform="rotate(75 5.774 2.195)scale(-.4026 .4026)"/><use xlink:href="#M" width="5.9" height="6.5" transform="rotate(75 5.663 1.038)scale(-1 1)"/><use xlink:href="#N" width="9.6" height="8.9" transform="matrix(-.3949 .0768 .0607 .3117 5.85 -11.6)"/><use xlink:href="#K" width="12.2" height="9.2" transform="matrix(-.2637 .0372 -.0696 -.4942 -3.35 -4.4)"/><use xlink:href="#N" width="9.6" height="8.9" transform="rotate(45 7.9 -7.727)scale(.4026)"/><use xlink:href="#O" width="10.2" height="6.7" transform="rotate(248.266 3.089 .789)scale(.9968)"/><use xlink:href="#P" width="5.2" height="8.7" transform="matrix(-.8952 .4651 .3181 .9501 9.3 -19.85)"/><use xlink:href="#Q" width="14.4" height="13.3" transform="rotate(-8.49 -124.162 30.073)scale(.9991)"/><use xlink:href="#P" width="5.2" height="8.7" transform="matrix(-.8952 .4651 .3181 .9501 2.9 -17.25)"/><use xlink:href="#N" width="9.6" height="8.9" transform="matrix(-.3949 .0768 .0607 .3117 .75 -10.75)"/><use xlink:href="#J" width="11.3" height="8.8" transform="matrix(.3998 -.0032 -.0032 -.3998 -5.15 -6.45)"/><use xlink:href="#R" width="4.1" height="5.3" transform="rotate(135 4.992 1.453)scale(-1 1)"/></g></g><g clip-path="url(#S)"><g transform="translate(33.2 23.5)"><use xlink:href="#J" width="11.3" height="8.8" transform="matrix(.3871 .0987 .0987 -.3871 2.95 -9.75)"/><use xlink:href="#K" width="12.2" height="9.2" transform="matrix(.2277 -.1373 .2572 .4266 4.6 -5.05)"/><use xlink:href="#L" width="9.6" height="8.9" transform="rotate(76.72 5.519 2.105)scale(-.4023 .4023)"/><use xlink:href="#M" width="5.9" height="6.5" transform="rotate(-105.303 .8 -4.29)scale(.9991 -.9991)"/><use xlink:href="#N" width="9.6" height="8.9" transform="matrix(-.3946 .077 .0608 .3115 5.85 -11.5)"/><use xlink:href="#K" width="12.2" height="9.2" transform="matrix(-.2627 .0428 -.0807 -.495 -3.25 -4.25)"/><use xlink:href="#N" width="9.6" height="8.9" transform="matrix(.2847 .2847 -.2838 .2847 -3.1 -7.7)"/><use xlink:href="#O" width="10.2" height="6.7" transform="rotate(246.682 3.174 .741)scale(.9956)"/><use xlink:href="#P" width="5.2" height="8.7" transform="matrix(-.8139 .5832 .5089 .8451 9 -19.7)"/><use xlink:href="#Q" width="14.4" height="13.3" transform="rotate(-8.262 -127.493 30.809)scale(.9987)"/><use xlink:href="#P" width="5.2" height="8.7" transform="matrix(-.8139 .5832 .5089 .8451 2.65 -17.2)"/><use xlink:href="#N" width="9.6" height="8.9" transform="matrix(-.3946 .077 .0608 .3115 .75 -10.65)"/><use xlink:href="#J" width="11.3" height="8.8" transform="matrix(.3997 -.0036 -.0036 -.3997 -5.15 -6.3)"/><use xlink:href="#R" width="4.1" height="5.3" transform="rotate(135 4.992 1.453)scale(-1 1)"/></g></g><g clip-path="url(#T)"><g transform="translate(58.2 23.5)"><use xlink:href="#J" width="11.3" height="8.8" transform="matrix(.3875 .0968 .0968 -.3875 2.9 -9.5)"/><use xlink:href="#K" width="12.2" height="9.2" transform="matrix(.2319 -.1301 .2438 .4345 4.4 -5)"/><use xlink:href="#L" width="9.6" height="8.9" transform="matrix(-.0579 -.3982 -.3982 .0579 5.95 -3.3)"/><use xlink:href="#M" width="5.9" height="6.5" transform="rotate(73.444 5.675 1.244)scale(-.9991 .9991)"/><use xlink:href="#N" width="9.6" height="8.9" transform="matrix(-.3939 .0802 .0633 .3109 5.8 -11.25)"/><use xlink:href="#K" width="12.2" height="9.2" transform="matrix(-.2593 .06 -.1147 -.4963 -2.75 -3.75)"/><use xlink:href="#N" width="9.6" height="8.9" transform="matrix(.2847 .2847 -.2838 .2847 -2.9 -7.3)"/><use xlink:href="#O" width="10.2" height="6.7" transform="rotate(241.669 3.529 .572)scale(.9954)"/><use xlink:href="#P" width="5.2" height="8.7" transform="matrix(-.7148 .6925 .6705 .7042 8.55 -19.5)"/><use xlink:href="#Q" width="14.4" height="13.3" transform="rotate(-7.543 -138.296 35.07)scale(.9987)"/><use xlink:href="#P" width="5.2" height="8.7" transform="matrix(-.7148 .6925 .6705 .7042 2.15 -16.95)"/><use xlink:href="#N" width="9.6" height="8.9" transform="matrix(-.3939 .0802 .0633 .3109 .75 -10.45)"/><use xlink:href="#J" width="11.3" height="8.8" transform="matrix(.3997 -.0056 -.0056 -.3997 -5.2 -6.1)"/><use xlink:href="#R" width="4.1" height="5.3" transform="rotate(135 4.424 1.481)scale(-1 1)"/></g></g><g clip-path="url(#U)"><g transform="translate(83.2 23.5)"><use xlink:href="#J" width="11.3" height="8.8" transform="matrix(.3887 .0919 .0919 -.3887 2.9 -9.15)"/><use xlink:href="#K" width="12.2" height="9.2" transform="matrix(.2388 -.1169 .2189 .4475 4.1 -4.9)"/><use xlink:href="#L" width="9.6" height="8.9" transform="matrix(0 -.4026 -.4026 0 5.5 -2.6)"/><use xlink:href="#M" width="5.9" height="6.5" transform="rotate(71.42 5.676 1.512)scale(-.999 .999)"/><use xlink:href="#N" width="9.6" height="8.9" transform="matrix(-.3931 .0839 .0662 .3103 5.75 -10.9)"/><use xlink:href="#K" width="12.2" height="9.2" transform="matrix(-.2512 .0878 -.1725 -.4933 -2.2 -2.95)"/><use xlink:href="#N" width="9.6" height="8.9" transform="matrix(.2847 .2847 -.2838 .2847 -2.6 -6.7)"/><use xlink:href="#O" width="10.2" height="6.7" transform="rotate(233.375 3.943 .367)scale(.9952)"/><use xlink:href="#P" width="5.2" height="8.7" transform="matrix(-.6039 .7836 .796 .534 8.25 -19.25)"/><use xlink:href="#Q" width="14.4" height="13.3" transform="rotate(-6.526 -158.16 42.457)scale(.9987)"/><use xlink:href="#P" width="5.2" height="8.7" transform="matrix(-.6039 .7836 .796 .534 1.85 -16.65)"/><use xlink:href="#N" width="9.6" height="8.9" transform="matrix(-.3931 .0839 .0662 .3103 .65 -9.95)"/><use xlink:href="#J" width="11.3" height="8.8" transform="matrix(.3995 -.0106 -.0106 -.3995 -5.2 -5.55)"/></g></g><g clip-path="url(#V)"><g transform="translate(108.2 23.5)"><use xlink:href="#J" width="11.3" height="8.8" transform="matrix(.3898 .0865 .0865 -.3898 2.8 -8.55)"/><use xlink:href="#K" width="12.2" height="9.2" transform="matrix(.2469 -.0987 .1849 .4627 3.75 -4.9)"/><use xlink:href="#L" width="9.6" height="8.9" transform="matrix(.0806 -.3942 -.3942 -.0806 4.6 -1.7)"/><use xlink:href="#M" width="5.9" height="6.5" transform="matrix(-.3672 -.929 -.9289 .3672 5.4 -4.1)"/><use xlink:href="#N" width="9.6" height="8.9" transform="matrix(-.3915 .0905 .0714 .3091 5.55 -10.45)"/><use xlink:href="#K" width="12.2" height="9.2" transform="rotate(151.952 -.406 -1.137)scale(.266 .541)"/><use xlink:href="#N" width="9.6" height="8.9" transform="matrix(.2847 .2847 -.2838 .2847 -2.15 -5.85)"/><use xlink:href="#O" width="10.2" height="6.7" transform="rotate(221.607 4.548 .074)scale(.9952)"/><use xlink:href="#P" width="5.2" height="8.7" transform="matrix(-.4819 .8574 .8803 .3436 7.9 -18.9)"/><use xlink:href="#Q" width="14.4" height="13.3" transform="rotate(-5.032 -200.88 57.293)scale(.9986)"/><use xlink:href="#P" width="5.2" height="8.7" transform="matrix(-.4819 .8574 .8803 .3436 1.5 -16.3)"/><use xlink:href="#N" width="9.6" height="8.9" transform="matrix(-.3915 .0905 .0714 .3091 .5 -9.4)"/><use xlink:href="#J" width="11.3" height="8.8" transform="matrix(.3992 -.0161 -.0161 -.3992 -5.25 -5)"/></g></g><g clip-path="url(#W)"><g transform="translate(133.2 23.5)"><use xlink:href="#J" width="11.3" height="8.8" transform="matrix(.3915 .0782 .0782 -.3915 2.6 -7.85)"/><use xlink:href="#K" width="12.2" height="9.2" transform="matrix(.2556 -.0735 .1378 .4789 3.3 -4.75)"/><use xlink:href="#L" width="9.6" height="8.9" transform="rotate(116.578 2.053 .647)scale(-.402 .402)"/><use xlink:href="#M" width="5.9" height="6.5" transform="matrix(-.4272 -.9027 -.9027 .4272 5.5 -3.75)"/><use xlink:href="#N" width="9.6" height="8.9" transform="matrix(-.3897 .0975 .077 .3076 5.45 -9.65)"/><use xlink:href="#K" width="12.2" height="9.2" transform="matrix(-.2057 .1685 -.358 -.4369 -.45 -.65)"/><use xlink:href="#N" width="9.6" height="8.9" transform="matrix(.2847 .2847 -.2838 .2847 -1.6 -4.75)"/><use xlink:href="#O" width="10.2" height="6.7" transform="rotate(206.56 5.242 -.155)scale(.9955)"/><use xlink:href="#P" width="5.2" height="8.7" transform="matrix(-.3514 .9126 .9206 .1425 7.55 -18.4)"/><use xlink:href="#Q" width="14.4" height="13.3" transform="rotate(-3.06 -321.183 100.09)scale(.9986)"/><use xlink:href="#P" width="5.2" height="8.7" transform="matrix(-.3514 .9126 .9206 .1425 1.15 -15.85)"/><use xlink:href="#N" width="9.6" height="8.9" transform="matrix(-.3897 .0975 .077 .3076 .35 -8.5)"/><use xlink:href="#J" width="11.3" height="8.8" transform="matrix(.3987 -.0246 -.0246 -.3987 -5.25 -4.05)"/></g></g><g clip-path="url(#X)"><g transform="translate(158.2 23.5)"><use xlink:href="#J" width="11.3" height="8.8" transform="matrix(.3933 .0694 .0694 -.3933 2.45 -6.95)"/><use xlink:href="#K" width="12.2" height="9.2" transform="matrix(.2627 -.0428 .0802 .4922 2.8 -4.65)"/><use xlink:href="#L" width="9.6" height="8.9" transform="rotate(135 1.162 .306)scale(-.4026 .4026)"/><use xlink:href="#M" width="5.9" height="6.5" transform="rotate(60 5.615 3.225)scale(-1 1)"/><use xlink:href="#N" width="9.6" height="8.9" transform="matrix(-.3872 .1076 .085 .3056 5.25 -8.9)"/><use xlink:href="#K" width="12.2" height="9.2" transform="matrix(-.1602 .2128 -.4754 -.358 .6 .8)"/><use xlink:href="#N" width="9.6" height="8.9" transform="rotate(45 3.69 -2.872)scale(.4026)"/><use xlink:href="#O" width="10.2" height="6.7" transform="rotate(188.266 5.904 -.376)scale(.9968)"/><use xlink:href="#P" width="5.2" height="8.7" transform="matrix(-.2164 .9486 .9163 -.0573 7.3 -18)"/><use xlink:href="#Q" width="14.4" height="13.3" transform="rotate(-.924 -1029.478 351.492)scale(.9987)"/><use xlink:href="#P" width="5.2" height="8.7" transform="matrix(-.2164 .9486 .9163 -.0573 .9 -15.4)"/><use xlink:href="#N" width="9.6" height="8.9" transform="matrix(-.3872 .1076 .085 .3056 .2 -7.7)"/><use xlink:href="#J" width="11.3" height="8.8" transform="matrix(.3979 -.0347 -.0347 -.3979 -5.4 -2.95)"/></g></g><g clip-path="url(#Y)"><g transform="translate(183.2 23.5)"><use xlink:href="#J" width="11.3" height="8.8" transform="matrix(.3912 .0797 .0797 -.3912 2.7 -7.95)"/><use xlink:href="#K" width="12.2" height="9.2" transform="matrix(.1043 -.2446 .4583 .1954 -.5 -2.65)"/><use xlink:href="#L" width="9.6" height="8.9" transform="matrix(.2588 -.3076 -.3084 -.2578 2.1 -1.6)"/><use xlink:href="#M" width="5.9" height="6.5" transform="matrix(-.4196 -.9063 -.9063 .4196 5.5 -3.8)"/><use xlink:href="#N" width="9.6" height="8.9" transform="matrix(-.3897 .0973 .0768 .3077 5.4 -9.8)"/><use xlink:href="#K" width="12.2" height="9.2" transform="matrix(.0509 .2612 -.5523 .1075 1.4 -3.45)"/><use xlink:href="#N" width="9.6" height="8.9" transform="matrix(.401 .0351 -.0338 .4011 -2.1 -3.45)"/><use xlink:href="#O" width="10.2" height="6.7" transform="rotate(195.325 5.569 -.418)scale(.9955)"/><use xlink:href="#P" width="5.2" height="8.7" transform="matrix(-.3259 .88 .9203 .23 7.9 -19.15)"/><use xlink:href="#Q" width="14.4" height="13.3" transform="matrix(.9961 -.0966 .0575 .997 -5.8 -17.3)"/><use xlink:href="#P" width="5.2" height="8.7" transform="matrix(-.3259 .88 .9203 .23 1.35 -16.6)"/><use xlink:href="#N" width="9.6" height="8.9" transform="matrix(-.3897 .0973 .0768 .3077 .35 -8.7)"/><use xlink:href="#J" width="11.3" height="8.8" transform="matrix(.3988 -.023 -.023 -.3988 -5.35 -4.2)"/></g></g><g clip-path="url(#Z)"><g transform="translate(208.2 23.5)"><use xlink:href="#J" width="11.3" height="8.8" transform="matrix(.3891 .09 .09 -.3891 2.8 -8.85)"/><use xlink:href="#K" width="12.2" height="9.2" transform="matrix(-.1498 -.2196 .4114 -.2808 -.45 -2.65)"/><use xlink:href="#L" width="9.6" height="8.9" transform="matrix(.2298 -.3298 -.3298 -.2298 2 -2.95)"/><use xlink:href="#M" width="5.9" height="6.5" transform="rotate(-109.832 1.2 -3.98)scale(.999 -.999)"/><use xlink:href="#N" width="9.6" height="8.9" transform="matrix(-.3923 .0871 .0687 .3097 5.65 -10.7)"/><use xlink:href="#K" width="12.2" height="9.2" transform="matrix(.2283 .1363 -.2718 .4552 .8 -4.9)"/><use xlink:href="#N" width="9.6" height="8.9" transform="rotate(-35.062 -4.44 1.382)scale(.402)"/><use xlink:href="#O" width="10.2" height="6.7" transform="rotate(202.582 5.285 -.483)scale(.9948)"/><use xlink:href="#P" width="5.2" height="8.7" transform="matrix(-.4254 .7982 .8338 .5132 8.4 -20.3)"/><use xlink:href="#Q" width="14.4" height="13.3" transform="matrix(.9868 -.1792 .101 .9935 -5.75 -18)"/><use xlink:href="#P" width="5.2" height="8.7" transform="matrix(-.4254 .7982 .8338 .5132 1.85 -17.8)"/><use xlink:href="#N" width="9.6" height="8.9" transform="matrix(-.3923 .0871 .0687 .3097 .5 -9.7)"/><use xlink:href="#J" width="11.3" height="8.8" transform="matrix(.3994 -.0126 -.0126 -.3994 -5.2 -5.25)"/></g></g><g clip-path="url(#aa)"><g transform="translate(233.2 23.5)"><use xlink:href="#J" width="11.3" height="8.8" transform="matrix(.387 .1003 .1003 -.387 2.95 -9.85)"/><use xlink:href="#K" width="12.2" height="9.2" transform="matrix(-.2661 .0082 -.0153 -.4987 0 -6.75)"/><use xlink:href="#L" width="9.6" height="8.9" transform="matrix(.2013 -.3487 -.3487 -.2013 1.95 -4.2)"/><use xlink:href="#M" width="5.9" height="6.5" transform="rotate(75 5.663 1.038)scale(-1 1)"/><use xlink:href="#N" width="9.6" height="8.9" transform="matrix(-.3949 .0768 .0607 .3117 5.85 -11.6)"/><use xlink:href="#K" width="12.2" height="9.2" transform="matrix(.2545 -.0781 .1464 .4769 1.25 -3.3)"/><use xlink:href="#N" width="9.6" height="8.9" transform="rotate(-75 -.62 -1.149)scale(.4026)"/><use xlink:href="#O" width="10.2" height="6.7" transform="rotate(209.946 4.832 -.462)scale(.9956)"/><use xlink:href="#P" width="5.2" height="8.7" transform="matrix(-.5082 .7088 .6584 .7683 8.9 -21.4)"/><use xlink:href="#Q" width="14.4" height="13.3" transform="matrix(.9711 -.2624 .1475 .9882 -5.7 -18.7)"/><use xlink:href="#P" width="5.2" height="8.7" transform="matrix(-.5082 .7088 .6584 .7683 2.5 -18.8)"/><use xlink:href="#N" width="9.6" height="8.9" transform="matrix(-.3949 .0768 .0607 .3117 .75 -10.75)"/><use xlink:href="#J" width="11.3" height="8.8" transform="matrix(.3998 -.0032 -.0032 -.3998 -5.15 -6.45)"/><use xlink:href="#R" width="4.1" height="5.3" transform="matrix(.7146 -.7146 -.7146 -.7146 5.85 2.7)"/></g></g><g clip-path="url(#ab)"><g transform="translate(258.2 23.5)"><use xlink:href="#J" width="11.3" height="8.8" transform="matrix(.3871 .0987 .0987 -.3871 2.95 -9.75)"/><use xlink:href="#K" width="12.2" height="9.2" transform="matrix(-.2662 -.0048 .009 -.4988 .05 -6.4)"/><use xlink:href="#L" width="9.6" height="8.9" transform="matrix(.2031 -.347 -.347 -.2031 2 -4.1)"/><use xlink:href="#M" width="5.9" height="6.5" transform="matrix(-.2556 -.9659 -.9659 .2557 5.15 -4.7)"/><use xlink:href="#N" width="9.6" height="8.9" transform="matrix(-.3946 .077 .0608 .3115 5.85 -11.5)"/><use xlink:href="#K" width="12.2" height="9.2" transform="matrix(.2536 -.0802 .1503 .4752 1.15 -3.25)"/><use xlink:href="#N" width="9.6" height="8.9" transform="rotate(-71.714 -.769 -.977)scale(.4022)"/><use xlink:href="#O" width="10.2" height="6.7" transform="rotate(208.836 4.893 -.458)scale(.9942)"/><use xlink:href="#P" width="5.2" height="8.7" transform="matrix(-.5007 .7327 .7259 .6797 8.75 -20.75)"/><use xlink:href="#Q" width="14.4" height="13.3" transform="matrix(.9715 -.2568 .1444 .9882 -5.65 -18.65)"/><use xlink:href="#P" width="5.2" height="8.7" transform="matrix(-.5007 .7327 .7259 .6797 2.4 -18.15)"/><use xlink:href="#N" width="9.6" height="8.9" transform="matrix(-.3946 .077 .0608 .3115 .75 -10.65)"/><use xlink:href="#J" width="11.3" height="8.8" transform="matrix(.3997 -.0036 -.0036 -.3997 -5.15 -6.3)"/><use xlink:href="#R" width="4.1" height="5.3" transform="matrix(.6496 -.772 -.772 -.6496 5.55 2.6)"/></g></g><g clip-path="url(#ac)"><g transform="translate(283.2 23.5)"><use xlink:href="#J" width="11.3" height="8.8" transform="matrix(.3875 .0968 .0968 -.3875 2.9 -9.5)"/><use xlink:href="#K" width="12.2" height="9.2" transform="matrix(-.2622 -.0453 .0848 -.4913 .1 -5.4)"/><use xlink:href="#L" width="9.6" height="8.9" transform="matrix(.2106 -.3424 -.3424 -.2106 2 -3.7)"/><use xlink:href="#M" width="5.9" height="6.5" transform="matrix(-.2556 -.9659 -.9659 .2557 5.15 -4.45)"/><use xlink:href="#N" width="9.6" height="8.9" transform="matrix(-.3939 .0802 .0633 .3109 5.8 -11.25)"/><use xlink:href="#K" width="12.2" height="9.2" transform="matrix(.251 -.0879 .1648 .4703 .8 -2.95)"/><use xlink:href="#N" width="9.6" height="8.9" transform="rotate(-61.682 -1.448 -.524)scale(.402)"/><use xlink:href="#O" width="10.2" height="6.7" transform="rotate(205.813 5.043 -.498)scale(.9944)"/><use xlink:href="#P" width="5.2" height="8.7" transform="matrix(-.4936 .7575 .7833 .5869 8.6 -20.25)"/><use xlink:href="#Q" width="14.4" height="13.3" transform="matrix(.9733 -.248 .1444 .9882 -5.65 -18.3)"/><use xlink:href="#P" width="5.2" height="8.7" transform="matrix(-.4936 .7575 .7833 .5869 2.2 -17.75)"/><use xlink:href="#N" width="9.6" height="8.9" transform="matrix(-.3939 .0802 .0633 .3109 .75 -10.45)"/><use xlink:href="#J" width="11.3" height="8.8" transform="matrix(.3997 -.0056 -.0056 -.3997 -5.2 -6.1)"/><use xlink:href="#R" width="4.1" height="5.3" transform="matrix(.577 -.8278 -.8278 -.577 5.3 2.5)"/></g></g><g clip-path="url(#ad)"><g transform="translate(308.2 23.5)"><use xlink:href="#J" width="11.3" height="8.8" transform="matrix(.3887 .0919 .0919 -.3887 2.9 -9.15)"/><use xlink:href="#K" width="12.2" height="9.2" transform="matrix(-.2423 -.1096 .2054 -.454 .2 -3.95)"/><use xlink:href="#L" width="9.6" height="8.9" transform="matrix(.2226 -.3347 -.3347 -.2226 2 -3.1)"/><use xlink:href="#M" width="5.9" height="6.5" transform="matrix(-.2556 -.9659 -.9659 .2557 5.15 -4.1)"/><use xlink:href="#N" width="9.6" height="8.9" transform="matrix(-.3931 .0839 .0662 .3103 5.75 -10.9)"/><use xlink:href="#K" width="12.2" height="9.2" transform="matrix(.2461 -.1009 .189 .4611 .1 -2.6)"/><use xlink:href="#N" width="9.6" height="8.9" transform="matrix(.2847 -.2837 .2847 .2838 -1.25 -1.95)"/><use xlink:href="#O" width="10.2" height="6.7" transform="rotate(200.778 5.258 -.499)scale(.9948)"/><use xlink:href="#P" width="5.2" height="8.7" transform="matrix(-.4857 .7823 .8294 .4898 8.45 -19.7)"/><use xlink:href="#Q" width="14.4" height="13.3" transform="matrix(.9765 -.2311 .1444 .9882 -5.65 -17.9)"/><use xlink:href="#P" width="5.2" height="8.7" transform="matrix(-.4857 .7823 .8294 .4898 2.1 -17.1)"/><use xlink:href="#N" width="9.6" height="8.9" transform="matrix(-.3931 .0839 .0662 .3103 .65 -9.95)"/><use xlink:href="#J" width="11.3" height="8.8" transform="matrix(.3995 -.0106 -.0106 -.3995 -5.2 -5.55)"/><use xlink:href="#R" width="4.1" height="5.3" transform="matrix(.5053 -.8752 -.8752 -.5053 5.15 2.4)"/></g></g><g clip-path="url(#ae)"><g transform="translate(333.2 23.5)"><use xlink:href="#J" width="11.3" height="8.8" transform="matrix(.3898 .0865 .0865 -.3898 2.8 -8.55)"/><use xlink:href="#K" width="12.2" height="9.2" transform="matrix(-.1884 -.1876 .3515 -.3529 .05 -2.2)"/><use xlink:href="#L" width="9.6" height="8.9" transform="matrix(.2397 -.3227 -.3227 -.2397 2.1 -2.4)"/><use xlink:href="#M" width="5.9" height="6.5" transform="matrix(-.2556 -.9659 -.9659 .2557 5.15 -3.65)"/><use xlink:href="#N" width="9.6" height="8.9" transform="matrix(-.3915 .0905 .0714 .3091 5.55 -10.45)"/><use xlink:href="#K" width="12.2" height="9.2" transform="matrix(.2384 -.1179 .2209 .4466 -.65 -1.95)"/><use xlink:href="#N" width="9.6" height="8.9" transform="matrix(.374 -.1478 .1478 .374 -2 -2.7)"/><use xlink:href="#O" width="10.2" height="6.7" transform="rotate(193.543 5.562 -.559)scale(.9954)"/><use xlink:href="#P" width="5.2" height="8.7" transform="matrix(-.477 .807 .8638 .3898 8.35 -19.05)"/><use xlink:href="#Q" width="14.4" height="13.3" transform="matrix(.9801 -.2093 .1444 .9882 -5.8 -17.25)"/><use xlink:href="#P" width="5.2" height="8.7" transform="matrix(-.477 .807 .8638 .3898 1.9 -16.55)"/><use xlink:href="#N" width="9.6" height="8.9" transform="matrix(-.3915 .0905 .0714 .3091 .5 -9.4)"/><use xlink:href="#J" width="11.3" height="8.8" transform="matrix(.3992 -.0161 -.0161 -.3992 -5.25 -5)"/><use xlink:href="#R" width="4.1" height="5.3" transform="matrix(.5053 -.8752 -.8752 -.5053 5.15 2.4)"/></g></g><g clip-path="url(#af)"><g transform="translate(358.2 23.5)"><use xlink:href="#J" width="11.3" height="8.8" transform="matrix(.3915 .0782 .0782 -.3915 2.6 -7.85)"/><use xlink:href="#K" width="12.2" height="9.2" transform="matrix(-.0857 -.2518 .4718 -.1606 -.1 -.75)"/><use xlink:href="#L" width="9.6" height="8.9" transform="matrix(.2603 -.3062 -.3062 -.2603 2.1 -1.5)"/><use xlink:href="#M" width="5.9" height="6.5" transform="matrix(-.2556 -.9659 -.9659 .2557 5.15 -3)"/><use xlink:href="#N" width="9.6" height="8.9" transform="matrix(-.3897 .0975 .077 .3076 5.45 -9.65)"/><use xlink:href="#K" width="12.2" height="9.2" transform="matrix(.2265 -.1393 .261 .4245 -1.65 -1.15)"/><use xlink:href="#N" width="9.6" height="8.9" transform="rotate(8.273 23.172 -15.923)scale(.4024)"/><use xlink:href="#O" width="10.2" height="6.7" transform="rotate(184.307 5.937 -.574)scale(.9961)"/><use xlink:href="#P" width="5.2" height="8.7" transform="matrix(-.4674 .8318 .8865 .2883 8.15 -18.55)"/><use xlink:href="#Q" width="14.4" height="13.3" transform="matrix(.9838 -.1825 .1444 .9882 -5.75 -16.4)"/><use xlink:href="#P" width="5.2" height="8.7" transform="matrix(-.4674 .8318 .8865 .2883 1.8 -15.95)"/><use xlink:href="#N" width="9.6" height="8.9" transform="matrix(-.3897 .0975 .077 .3076 .35 -8.5)"/><use xlink:href="#J" width="11.3" height="8.8" transform="matrix(.3987 -.0246 -.0246 -.3987 -5.25 -4.05)"/><use xlink:href="#R" width="4.1" height="5.3" transform="rotate(120 .912 2.693)scale(-1.0106 1.0106)"/></g></g><g clip-path="url(#ag)"><g transform="translate(383.2 23.5)"><use xlink:href="#J" width="11.3" height="8.8" transform="matrix(.3933 .0694 .0694 -.3933 2.45 -6.95)"/><use xlink:href="#K" width="12.2" height="9.2" transform="matrix(.061 -.2592 .4857 .1142 0 -.2)"/><use xlink:href="#L" width="9.6" height="8.9" transform="rotate(135 1.162 .306)scale(-.4026 .4026)"/><use xlink:href="#M" width="5.9" height="6.5" transform="rotate(75 4.034 2.288)scale(-1 1)"/><use xlink:href="#N" width="9.6" height="8.9" transform="matrix(-.3872 .1076 .085 .3056 5.25 -8.9)"/><use xlink:href="#K" width="12.2" height="9.2" transform="matrix(.2098 -.1641 .3074 .3932 -2.85 -.15)"/><use xlink:href="#N" width="9.6" height="8.9" transform="rotate(45 3.69 -2.872)scale(.4026)"/><use xlink:href="#O" width="10.2" height="6.7" transform="rotate(173.265 6.334 -.63)scale(.9968)"/><use xlink:href="#P" width="5.2" height="8.7" transform="matrix(-.4586 .8572 .8982 .1864 8.05 -18)"/><use xlink:href="#Q" width="14.4" height="13.3" transform="rotate(-8.49 -107.033 32.022)scale(.9991)"/><use xlink:href="#P" width="5.2" height="8.7" transform="matrix(-.4586 .8572 .8982 .1864 1.65 -15.4)"/><use xlink:href="#N" width="9.6" height="8.9" transform="matrix(-.3872 .1076 .085 .3056 .2 -7.7)"/><use xlink:href="#J" width="11.3" height="8.8" transform="matrix(.3979 -.0347 -.0347 -.3979 -5.4 -2.95)"/></g></g></svg>