<svg xmlns="http://www.w3.org/2000/svg" xmlns:xlink="http://www.w3.org/1999/xlink" width="33" height="40" viewBox="0 0 33 40"><defs><g id="a"><path fill="none" stroke="#000" stroke-linecap="round" stroke-linejoin="round" stroke-opacity=".4" stroke-width="__RESOLUTION__" d="m20 9.3-7.9 4.6-6-3.1" vector-effect="non-scaling-stroke"/><path fill="#58b8ca" d="m10 6.9-1.2-1-1.6.8-.6-1q-.5-.7-2 .7l1-.5q.5 0 .8.5.7 1 1 .8z"/><path fill="#2296a2" d="M4.7 6.5q-.4.3-1 2.5l-.4 2.2-.1.7.9-3.3z"/><path fill="#28aebd" d="m3.2 11.9-.1.8v.2l.1 1.5q.5 1.8 1.9 2.5.4.3.4 1H6l1.3-3q-.6-2-1.7-2.7 0 .8-.2 1.3l-.4.4-.5-1-.1-1.1zm-.1.8.1-.8z"/><path fill="#1e828c" d="M6.1 18h1.2l.4-1-.4-2.1z"/><path fill="#13454a" d="M7.7 17q.3-.8.4-1.8l.5-1.8-.6-1.7-.6 3.2z"/><path fill="#1e84a5" d="M8.6 13.4q.6-1.7 1.4-2.3l.8-1.1.6-1.3q-.2-.8-1.3-1.8l-2.7.3q-.3.3-1-.7-.3-.5-.7-.5l-1 .5L4 8.6l-.9 3.3 1.2-.2v-.3l.3-1.3.4-.4q.4.1.5.8.2.7.1 1.5v.1q1.1.7 1.7 2.7l.6-3.2z"/><path fill="none" stroke="#000" stroke-linecap="round" stroke-linejoin="round" stroke-opacity=".4" stroke-width="__RESOLUTION__" d="m8.8 5.9-1.6.8-.6-1q-.5-.7-2 .7l-.5 2.2-.9 3.3-.1.7v.3l.1 1.5q.5 1.7 1.9 2.4.4.3.4 1.1m.2-5.7V12l-.1-1.5q-.1-.7-.5-.8l-.4.4-.3 1.3v.4l.1 1.1.5 1h0l.4-.4q.2-.5.2-1.3" vector-effect="non-scaling-stroke"/><path fill="#58b8ca" d="m11.6 3.2 1-.3q2-.4 1.2-1.8-.7-1.6-3.3-.2L8.9 2.3q-.5 2 2 .8l.4-.3.2-.1h.1q-.6.3 0 .5"/><path fill="#28a7b5" d="m10.9 3-.4.3 1-.1q-.5-.2.1-.6l-.1.1-.2.1z"/><path fill="none" stroke="#000" stroke-linecap="round" stroke-linejoin="round" stroke-opacity=".4" stroke-width="__RESOLUTION__" d="m11.6 3.2 1-.3q2-.4 1.2-1.8-.7-1.6-3.3-.2L8.9 2.3q-.5 2 2 .8l-.4.2zm0-.5-.2.1-.4.3" vector-effect="non-scaling-stroke"/><path fill="#58b8ca" d="m9.4 2.2-.4.2q-1.5 2.2 1.7 5.2l.2.2 2.7-.1-2.5-1.8q-1.8-1.6-.8-2.7l.6-.4h.1z"/><path fill="#1e84a5" d="M9 2.4q-2.3 2.4 1.8 7 .4.7.6 1.6l1.5-.9h.2l2.2-1.7-1.6-.7H11l-.2-.2Q7.5 4.6 9 2.4"/><path fill="none" stroke="#000" stroke-linecap="round" stroke-linejoin="round" stroke-opacity=".4" stroke-width="__RESOLUTION__" d="m9.4 2.2-.4.2q-2.3 2.4 1.8 7l.5 1.6m4-2.5-1.6-.8L11 5.9v0q-1.8-1.7-.7-2.7" vector-effect="non-scaling-stroke"/><path fill="#1e84a5" d="M4.9 18.3V18q-1.2-3-1.2-5.4 0-1.5.5-2.8l3.2-1q4.5-.8 3.5 1.9-1 2.6-5.8 8.2l-.1-.1zm0-.3.1.3z"/><path fill="none" stroke="#000" stroke-linecap="round" stroke-linejoin="round" stroke-opacity=".4" stroke-width="__RESOLUTION__" d="M4.9 18.3V18q-1.2-3-1.2-5.4 0-1.5.5-2.8l3.2-1q4.5-.8 3.5 1.9-1 2.6-5.8 8.2l-.1-.1zl-.1-.3" vector-effect="non-scaling-stroke"/><path fill="#155e76" d="M6.5 10.2q.6.8.8 1.8l.1.7q.2 1.5-.4 2.6-.5 1.1-1.3 1.2-1 .2-1.7-.7-.7-1-.9-2.4l.2-1.8.2-.9Q4 9.6 5 9.4t1.5.8"/><path fill="#fff5e9" d="M6.2 10.7q.6.8.8 1.8v.7q.2 1.5-.3 2.6T5.3 17t-1.6-.7q-.8-1-1-2.4l.2-1.8.2-.9q.6-1.1 1.5-1.3t1.6.8"/><path fill="none" stroke="#000" stroke-linecap="round" stroke-linejoin="round" stroke-opacity=".2" stroke-width="__RESOLUTION__" d="M6.2 10.7q.6.8.8 1.8v.7q.2 1.5-.3 2.6T5.3 17t-1.6-.7q-.8-1-1-2.4l.2-1.8.2-.9q.6-1.1 1.5-1.3t1.6.8" vector-effect="non-scaling-stroke"/><path fill="#000" d="M5.2 16.8q-.5.2-1.1-.3l-.7-1.6q-.2-1-.1-1.9.3-1 .7-1.2.5-.3 1 .3t.8 1.5q.2 1-.1 2-.1.9-.5 1.2"/><path fill="none" stroke="#000" stroke-linecap="round" stroke-linejoin="round" stroke-opacity=".3" stroke-width="__RESOLUTION__" d="M5.2 16.8q-.5.2-1.1-.3l-.7-1.6q-.2-1-.1-1.9.3-1 .7-1.2.5-.3 1 .3t.8 1.5q.2 1-.1 2-.1.9-.5 1.2" vector-effect="non-scaling-stroke"/><path fill="#fff" d="m3.9 13.6-.4-.1-.2-.6-.1-.6.3-.5.3.1.3.5v.7q0 .4-.2.5"/><path fill="#1e84a5" d="M2.3 22v-.4q-.2-.5-.8-.7H.6l-.4.6v.3l.1.7.2.4q.3 0 .2.3l.4.1q1.8 0 1.2-1.2zm-.3.2q-.2.5-.7.5l-.3-.4.3-.6h.3q.5.1.4.5"/><path fill="#58b8ca" d="M2 22.2q.1-.4-.4-.5h-.3l-.3.6.3.4q.6 0 .7-.5"/><path fill="none" stroke="#000" stroke-linecap="round" stroke-linejoin="round" stroke-opacity=".4" stroke-width="__RESOLUTION__" d="M2.3 22v-.4q-.2-.5-.8-.7H.6l-.4.6v.3l.1.7.2.4q.3 0 .2.3l.4.1q1.8 0 1.2-1.2z" vector-effect="non-scaling-stroke"/><path fill="#1e84a5" d="m3.8 19.3-.9-.4.4 1.7q.3.7.2 1.3t-.4.8h-.5l-1.2.5h.1l1 .2H3q.9-.1 1.2-.8v-1.1z"/><path fill="none" stroke="#000" stroke-linecap="round" stroke-linejoin="round" stroke-opacity=".4" stroke-width="__RESOLUTION__" d="m3.8 19.3.4 2.2q.2.6 0 1.1-.3.7-1.1.7l-.5.1-1-.1-.2-.1m1.2-.4.5-.2q.4 0 .4-.7l-.2-1.3-.4-1.7" vector-effect="non-scaling-stroke"/><path fill="#1e84a5" d="m5.7 17.9-.4-.2-.9-.8-.1-.1-.2-.1-.4-.2-.4-.1q-.6-.2-.7.3v1.2l.4 1.3.9.3-.3-1.3q-.1-.5.5-.5l1.1.8.5.2z"/><path fill="none" stroke="#000" stroke-linecap="round" stroke-linejoin="round" stroke-opacity=".4" stroke-width="__RESOLUTION__" d="m5.7 17.9-.4-.2-.9-.8-.1-.1-.2-.1-.4-.2-.4-.1q-.6-.2-.7.3v1.2l.4 1.3m.9.3-.3-1.3q-.1-.5.5-.5l1.1.8.5.2" vector-effect="non-scaling-stroke"/><path fill="#1e84a5" d="m20 8.8.7 3.4q.1 1-.4 2.8-.5 3.8-4.8 5.5-2.9 2.2-6 2.2-2.6 0-2.6-2.2v-.6q-1-3.1-1-6.1v-.3L6 11l4.2 3.2q9.6-3 9.8-5.4"/><path fill="#58b8ca" d="m6 11 .1-.3 2-1.3 1.6-.9 1.5-.3h.1l1.7-.5h.1q1.5-.7 3.4-.9 2.4.6 3.5 2-.2 2.4-9.8 5.3z"/><path fill="none" stroke="#000" stroke-linecap="round" stroke-linejoin="round" stroke-opacity=".4" stroke-width="__RESOLUTION__" d="m20 8.8.7 3.4q.1 1-.4 2.8M7 19.9q-1-3.1-1-6.1m2.2-4.4 1.7-.8 1.4-.4m1.9-.5q1.5-.7 3.4-.8 2.4.5 3.5 1.9" vector-effect="non-scaling-stroke"/><path fill="#58b8ca" d="M11 13.2Q7.8 13 5.2 15L5 16.1q0 1.8 1.1 4.7-.1 1.8-.7 3.8.7 1.2 2.8 1.9 1.6-.4 2.6-1.2 2.4-2.3 8-2.4.6-1.6.5-3.1v-.5q.2-2.6-1-5.1l-.1.2q-3.1-1.3-6-1.3z"/><path fill="none" stroke="#000" stroke-linecap="round" stroke-linejoin="round" stroke-opacity=".4" stroke-width="__RESOLUTION__" d="m11 13.2 1.2-.1q2.9 0 6 1.3l.1-.2q1.2 2.5 1 5.1v.5q.1 1.5-.5 3.1-5.6 0-8 2.4-1 .8-2.6 1.2-2.1-.6-2.8-2 .6-2 .7-3.7-1.1-3-1.1-4.7l.2-1.1q2.6-1.9 5.8-1.8" vector-effect="non-scaling-stroke"/><path fill="#58b8ca" d="m6.1 10.9.3-.5 2.9-.6q9.4 0 6.3 2.6-3.8.7-5.9 2.2t-4.5-1l.1-.9z"/><path fill="#1e84a5" d="M15.6 12.5q.9-.6 2.5-.5 1.5.2 2.2 3.5l1.1 2.6-1.5 2.4-4 1.5-.8-1-2.4 1.5-2-1-3.7 2q-1.8-3-2.4-5.4l.1-1.4.3-2.1.2-1q2.4 2.5 4.5 1t5.9-2.2"/><path fill="none" stroke="#000" stroke-linecap="round" stroke-linejoin="round" stroke-opacity=".4" stroke-width="__RESOLUTION__" d="m21.4 18.1-1.5 2.5-4 1.4-.9-1-2.4 1.5-1.9-1-3.8 2q-1.7-3-2.4-5.4l.2-1.4.3-2.1v0l.1-1 .2-.9.8-1.8" vector-effect="non-scaling-stroke"/><path fill="#155e76" d="M13.6 21.3q-1.5.2-2.4-.9t-.7-3q.2-1.7 1.3-3t2.7-1.6q1.5-.1 2.4 1 1 1.1.8 2.9-.3 1.8-1.5 3-1.1 1.5-2.6 1.6"/><path fill="#fff5e9" d="M16.6 17.3q-.2 1.4-1.2 2.5t-2.2 1.3q-1.3.1-2-.8-.8-1-.6-2.3 0-1 .6-1.8l.5-1q1-1 2.3-1.2t2 .8q.6.7.6 1.8z"/><path fill="none" stroke="#000" stroke-linecap="round" stroke-linejoin="round" stroke-opacity=".2" stroke-width="__RESOLUTION__" d="M16.6 17.3q-.2 1.4-1.2 2.5t-2.2 1.3q-1.3.1-2-.8-.8-1-.6-2.3 0-1 .6-1.8l.5-1q1-1 2.3-1.2t2 .8q.6.7.6 1.8z" vector-effect="non-scaling-stroke"/><path fill="#000" d="M13.2 20.8q-.7.2-1.5-.3-.5-.6-.5-1.6-.1-1 .3-1.9l1.3-1.2q.7-.3 1.2.3.7.4.8 1.4 0 1-.6 2-.4 1-1 1.3"/><path fill="none" stroke="#000" stroke-linecap="round" stroke-linejoin="round" stroke-opacity=".3" stroke-width="__RESOLUTION__" d="M13.2 20.8q-.7.2-1.5-.3-.5-.6-.5-1.6-.1-1 .3-1.9l1.3-1.2q.7-.3 1.2.3.7.4.8 1.4 0 1-.6 2-.4 1-1 1.3" vector-effect="non-scaling-stroke"/><path fill="#fff" d="m14.7 18.4-.5-.1-.1-.6v-.6l.4-.5.5.1.3.6-.3.6z"/><path fill="#1e84a5" d="m9 19.4-.3.2q-.3.4 0 .9l.6-.2h.6l.5.3.5.4q.4.9.3 1.9l-.2 2.4v1.5q.4 1.2 1.4 1.8t1.5.8l.5-.1.2-.2.3-.2q.2-.5 0-1-.2-.8-1.2-.8-.6 0-1 .4l.1.3q.2.2-.1.3l-.5-.5-.4-1.3v-1.6l.4-1.6.1-.3v-1.2q-.2-.8-.8-1.2-.6-.5-1.1-.5l-.3-.1-.4-.1zm4.8 8.4q.3.2.3.6t-.3.3q-.5 0-.7-.5t.4-.5z"/><path fill="#58b8ca" d="m13.9 27.8-.3-.1q-.5 0-.4.5.2.5.7.5.3 0 .3-.3 0-.4-.3-.6"/><path fill="none" stroke="#000" stroke-linecap="round" stroke-linejoin="round" stroke-opacity=".4" stroke-width="__RESOLUTION__" d="m9 19.4.7.3.4.1h.3q.5.1 1 .6.7.4.9 1.2v1.2l-.1.3-.3 1.6-.1 1.6.4 1.3.5.5q.3-.1.1-.3v-.3q.3-.4.9-.4 1 0 1.2.8.2.5 0 1l-.3.2-.2.2h-.5q-.6 0-1.5-.7T11 26.8l-.1-1.5.2-2.4q.1-1-.3-2l-.5-.3q-.2-.2-.5-.2l-.6-.1-.6.2" vector-effect="non-scaling-stroke"/><path fill="#1a5f66" d="M18 12.8q-.1-.5.3-.8h5.2l-.3.8z"/><path fill="#65d2de" d="M23.5 12h.8l-.4 1.2-1 .3.3-.7z"/><path fill="#58b8ca" d="M23.9 13.2q-.6 2.3 2.1 3.3 1.7.6 1.7 1.6 0 1.3-2.8 3l-2.6 1.6q-1.5.7-4 .5l-2.6-.4v-.4q.1-1 .6-1.8 6.4-4.3 10-1.9.6-1.4-1.2-2-2.8-1.1-2.2-3.2zm0 6.5q.2-.5-.2-.6l-1 .1-1.2.7q-.6.5-.7 1-.1.2 0 .4l.2.1 1.2-.1 1-.7h.1z"/><path fill="#1e84a5" d="m16.3 20.6.6-.7q1.5-2.3 1-3.6-.3-1.6.2-3.5h5l-.2.7q-.6 2 2.2 3.2 1.8.6 1.2 2-3.6-2.4-10 1.9"/><path fill="none" stroke="#000" stroke-linecap="round" stroke-linejoin="round" stroke-opacity=".4" stroke-width="__RESOLUTION__" d="m24.3 12-.4 1.2q-.6 2.3 2.1 3.3 1.7.6 1.7 1.6 0 1.3-2.8 3l-2.6 1.6q-1.5.7-4 .5l-2.6-.4m8.3-3.1-.7.9h0l-1.1.7-1.2.2-.1-.2q-.2-.1-.1-.4.1-.5.7-1l1.2-.7 1-.1q.4.1.3.6" vector-effect="non-scaling-stroke"/><path fill="#58b8ca" d="m29.5 9.2-.4-.3q-1.7-1.7-2.3-.5l-.3 1.6v.2q.4-.2.6 0 0 .2-.4.4h-.1q-2.3 1.1-4.6.7l-.7-.1q-1.7-.4-2.4-1-1.3-.1-1.5.4v.4l3 1 1 .2q3.4.5 6.7-.9 2.2-1.2 1.4-2.1"/><path fill="#1e84a5" d="M29.5 9.2q.8 1-1.4 2.1-3.3 1.4-6.7.9l-1-.1-3-1V11v1.5l.1.4q.3.6.9.7l4.3.1 2.4-.3q1.7-.3 3-.8 2.4-1 2-2.3z"/><path fill="#28a7b5" d="M26.7 10.6q.4-.2.4-.4-.3-.2-.6 0z"/><path fill="none" stroke="#000" stroke-linecap="round" stroke-linejoin="round" stroke-opacity=".4" stroke-width="__RESOLUTION__" d="m26.6 10.2.1-1.7q.7-1.2 2.4.4l.4.4.7 1.1q.3 1.3-2 2.3-1.5.5-3.2.8l-2.3.3h-4.3m.4-3.6q.8.7 2.4 1.1l.7.2q2.4.3 4.7-.9h.1l.4-.3m-.6 0 .1.4" vector-effect="non-scaling-stroke"/></g><g id="b"><path fill="#58b8ca" d="M.3 2.7q-.1-.8.6-1.5L2.3.6 3.7.3q1.7 0 2.5.9L7 2.3Q5.2 3.9 4 4.1 1.5 4 .3 2.7"/><path fill="#1e84a5" d="M.3 2.7Q1.5 3.9 4 4q1.2-.2 3-1.6V3q0 .9-.8 1.7l-.1.1q-.9.8-2 .8l-.6-.1L2 4.8Q1.1 4.3.5 3.2z"/><path fill="none" stroke="#000" stroke-linecap="round" stroke-linejoin="round" stroke-opacity=".4" stroke-width="__RESOLUTION__" d="m7 2.4-.8-1.2q-.8-1-2.4-1L2.2.5l-1.3.8q-.8.6-.6 1.3" vector-effect="non-scaling-stroke"/><path fill="none" stroke="#000" stroke-linecap="round" stroke-linejoin="round" stroke-opacity=".5" stroke-width="__RESOLUTION__" d="M7 2.4V3q0 .9-.8 1.7h0l-.1.1q-.9.8-2 .8l-.6-.1L2 4.8Q1.1 4.3.5 3.2l-.2-.6" vector-effect="non-scaling-stroke"/></g><g id="c"><path fill="#1e84a5" d="M.4 2.8 2 .3l3.9.9 1 1.8v.3z"/><path fill="#58b8ca" d="M6.9 3.3 7 4.9l-1.3.7-1.1-.4-.7.2-1-.8-.5.6-1.9-.5-.2-1.8v-.1zm-4.6 0 .6 1.3zm2 0 .3 1.9z"/><path fill="none" stroke="#000" stroke-linecap="round" stroke-linejoin="round" stroke-opacity=".5" stroke-width="__RESOLUTION__" d="M.4 2.8 2 .3l3.9.9 1 1.8v.3L7 4.9l-1.3.7-1.1-.4-.7.2-1-.8-.5.6-1.9-.5-.2-1.8z" vector-effect="non-scaling-stroke"/><path fill="none" stroke="#000" stroke-linecap="round" stroke-linejoin="round" stroke-opacity=".2" stroke-width="__RESOLUTION__" d="m2.9 4.6-.6-1.3M4.6 5l-.3-1.8" vector-effect="non-scaling-stroke"/></g><g id="d"><path fill="#1e84a5" d="M5 1.3 3.5 7.1l1.3 1.3-2.3 2.2L.8 9.1l.8-.8-1.3-7Q2-1.3 5 1.3"/><path fill="none" stroke="#000" stroke-linecap="round" stroke-linejoin="round" stroke-opacity=".5" stroke-width="__RESOLUTION__" d="M5 1.3 3.5 7.1l1.3 1.3-2.3 2.2" vector-effect="non-scaling-stroke"/><path fill="none" stroke="#000" stroke-linecap="round" stroke-linejoin="round" stroke-opacity=".2" stroke-width="__RESOLUTION__" d="M2.4 10.7.8 9l.8-.8-1.3-7" vector-effect="non-scaling-stroke"/></g><g id="e"><path fill="#1e84a5" d="M.3 6.2 4.2 1Q5.6-.4 5.9 1q-.7 2.9 0 4l.8 1-1.5.7-1.5.3Q2 7.2.4 6.2"/><path fill="none" stroke="#000" stroke-linecap="round" stroke-linejoin="round" stroke-opacity=".5" stroke-width="__RESOLUTION__" d="m6.7 6-.8-1q-.7-1.1 0-4-.3-1.4-1.7 0l-4 5.2" vector-effect="non-scaling-stroke"/></g><g id="f"><path fill="#1e84a5" d="m2.8.8 1-.4L5 .3l2 .4 1.4 1 .4.5q1 1.2 1 2.9 0 2-1.5 3.4-1 1-2.4 1.3l-1-.3Q4.8 9 5 8.2v-.3q.9-.3 1.7-1l.6-.8q-.1-2.5-1.7-3.9-.7-.6-1.8-1z"/><path fill="#58b8ca" d="m2.8.8 1 .4q1 .4 1.8 1Q7 3.6 7.2 6.1l-.6.8q-.8.6-1.7 1v.2q-.2.9.2 1.3l.9.4H5q-2 0-3.3-1.4L1.2 8 1 7.9l-.2-.4Q.2 6.5.3 5v-.7q.2-1.5 1.4-2.7zm2.1 7.1v-.2l.1-.9-.1-1.2Q3.9 2.8 2.6 3q-.6 0-1.4.8l-.3.8H.8v.1l-.2.8q-.2.8.3 2-.5-1.2-.3-2l.2-.7v-.2l.4-.8Q2 3.1 2.6 3 4 2.8 4.9 5.6L5 6.8v.9z"/><path fill="none" stroke="#000" stroke-linecap="round" stroke-linejoin="round" stroke-opacity=".5" stroke-width="__RESOLUTION__" d="M6 9.8q1.4-.3 2.4-1.3Q9.9 7 9.9 5q0-1.7-.9-2.9l-.4-.5-1.3-1L5 .3 3.9.4l-1 .4-1.1.8v0Q.5 2.9.3 4.4V5Q.2 6.4.9 7.5m4 .5v.2q-.2.9.2 1.3l.9.4H5q-2 0-3.3-1.4L1.2 8 1 7.9v0l-.2-.4q-.5-1-.3-1.9l.2-.7v-.2l.4-.8Q2 3.1 2.6 3 4 2.8 4.9 5.6L5 6.8v.9z" vector-effect="non-scaling-stroke"/></g><g id="g"><path fill="#1e84a5" d="m6.2 2.2.4 1.3-.1.6q-.3.7-1.4 1.2H5l-2.3.3q-1-.2-1.9-1.1T.4 2.4l.8-1.1L2.3.6h2.5z"/><path fill="none" stroke="#000" stroke-linecap="round" stroke-linejoin="round" stroke-opacity=".5" stroke-width="__RESOLUTION__" d="m6.2 2.2.4 1.3-.1.6q-.3.7-1.4 1.2H5h0l-2.3.3q-1-.2-1.9-1.1T.4 2.4l.8-1.1L2.3.6h2.5z" vector-effect="non-scaling-stroke"/></g><g id="h"><path fill="#1e84a5" d="M8.4 2.7 7 4.6 4 6.1l-1.3.2-1.5-.6.4-.8-1-.4.2-.4-.6-.6L4.1.1zM2 3.7l-.4 1.2zM1.4 3 .9 4z"/><path fill="none" stroke="#000" stroke-linecap="round" stroke-linejoin="round" stroke-opacity=".5" stroke-width="__RESOLUTION__" d="M8.4 2.7 7 4.6 4 6.1l-1.3.2-1.5-.6.4-.8-1-.4.2-.4-.6-.6L4.1.1zM1.5 4.9 2 3.6M.8 4l.6-.9" vector-effect="non-scaling-stroke"/></g><g id="i"><path fill="#1e84a5" d="M5.5.5Q7 .9 8.9 2.2v.3Q7.2 1.3 5.5 1 3 .4 3 4.3q0 .7-.7 1.4l-.1.1-.3.2h-.7q-.4-.1-.7-.4l-.2-.7v-.3l.3-.3q.3-.3.6-.2l.6.4.4-.2.3-.3v-.1q.6-4.4 3-3.4-2.4-1-3 3.4l-.2.4.1-.4Q3-.6 5.5.5M2.3 5.7l-.1.1z"/><path fill="#36c2d1" d="M.4 4.6H.2z"/><path fill="#1f7983" d="M.4 4.6v-.2zm-.1.3.2.6q.3.3.7.4h.6l.4-.1-.4.3h-.7l-.7-.5zm2 .8-.1.1zq.7-.7.8-1.5Q3 .4 5.4 1q1.7.3 3.4 1.5-1.7-1.1-3.4-1.4V1Q3.2.5 3.1 4.4 3 5 2.3 5.7"/><path fill="none" stroke="#000" stroke-linecap="round" stroke-linejoin="round" stroke-opacity=".4" stroke-width="__RESOLUTION__" d="M5.5.5q-2.4-1-3 3.4v0l-.2.4-.5.2-.6-.4q-.3-.1-.6.2l-.2.3v0m1.9 1.1-.1.1zq.7-.7.8-1.4Q3 .3 5.4 1h0v0Q3.2.5 3.1 4.4 3 5 2.3 5.7m6.6-3.5Q7 .9 5.5.4m0 .6q1.7.4 3.4 1.5M5.4.5Q3-.6 2.4 3.9l-.1.4v0m-2 .6.2.7.6.5h.8l.3-.3M.3 4.6v.3m0-.4" vector-effect="non-scaling-stroke"/><path fill="#58b8ca" d="m7.3 2-.6.1v.1q-.2 1-1.2 2.5-.4.5-1.3.2-.6-.2-.7-1v-.2l-.2.2v-.6l.1-.3.2-.5Q5.1.7 7.3 2M4.6 3.3h-.4l-.1.5v.5h.3l.2-.2.2-.3v-.5h-.1z"/><path fill="#1e84a5" d="M7.3 2Q5.1.6 3.6 2.5l-.2.5-.1.3v.6l-.2.2v-.9l.1-.9Q3.6 1.2 5 .7L7.9 2l-.2-.1z"/><path fill="none" stroke="#000" stroke-linecap="round" stroke-linejoin="round" stroke-opacity=".4" stroke-width="__RESOLUTION__" d="m3.3 3.9.2-.2v.2q0 .8.7 1 .9.3 1.3-.2 1-1.5 1.2-2.5v-.1l.6-.1.3-.1h.2L5 .8q-1.4.5-1.9 1.6l-.1.9v.9zm1.3-.6h-.4l-.1.5v.4h0v.1h.3l.2-.2.2-.3v-.5h-.1v0z" vector-effect="non-scaling-stroke"/><path fill="#42a7b8" fill-opacity=".7" d="m6 1.8.1.1zm-.5.1V2zm.1.2"/></g><g id="j"><path fill="#1e84a5" d="m9.8 3.7-.8 1zm3.2.5-.9 1.4-3-.9-3.8 4.2-4 .7-1-3 1-3.4 3.2-.8 2 2L9.6 2z"/><path fill="#58b8ca" d="M13 4.2 9.6 2 6.5 4.4l-2-2Q7 1.5 8.2.3q3.6 1.6 4.9 3.2l.2.3z"/><path fill="none" stroke="#000" stroke-linecap="round" stroke-linejoin="round" stroke-opacity=".5" stroke-width="__RESOLUTION__" d="m9 4.7.8-1m-.8 1 3.1.9.9-1.4.3-.4M4.5 2.4l-3.1.9L.3 6.7l1 3 4-.8L9 4.7" vector-effect="non-scaling-stroke"/><path fill="none" stroke="#000" stroke-linecap="round" stroke-linejoin="round" stroke-opacity=".2" stroke-width="__RESOLUTION__" d="m13.3 3.8-.2-.3q-1.3-1.6-5-3.2Q7 1.5 4.6 2.4" vector-effect="non-scaling-stroke"/></g><g id="q"><path fill="#cfd1b8" d="M.3.6.4.3h.1z"/><path fill="none" stroke="#000" stroke-linecap="round" stroke-linejoin="round" stroke-opacity=".5" stroke-width="__RESOLUTION__" d="M.5.3.3.6h0" vector-effect="non-scaling-stroke"/></g><use xlink:href="#a" id="w" width="30.4" height="29.6"/><use xlink:href="#b" id="v" width="7.3" height="5.8"/><use xlink:href="#c" id="u" width="7.3" height="5.8"/><use xlink:href="#d" id="t" width="5.3" height="10.9"/><use xlink:href="#e" id="s" width="6.9" height="7"/><use xlink:href="#f" id="r" width="10.1" height="10.1"/><use xlink:href="#g" id="p" width="6.8" height="6"/><use xlink:href="#h" id="o" width="8.6" height="6.5"/><use xlink:href="#i" id="n" width="9.2" height="6.3"/><use xlink:href="#j" id="m" width="13.5" height="9.9"/><clipPath id="k"><path d="M1 1h31v38H1z"/></clipPath><path id="l" fill="#000" fill-opacity=".3" d="M5.6-2.8Q7.9-1.6 8 0q-.1 1.7-2.4 2.8T0 4q-3.3 0-5.6-1.2T-7.9 0t2.3-2.8T0-4t5.6 1.2" transform="translate(7.9 3.95)"/></defs><g clip-path="url(#k)"><g transform="translate(19 34.65)"><use xlink:href="#l" width="15.8" height="8" transform="translate(-7.9 -3.95)"/><use xlink:href="#m" width="13.5" height="9.9" transform="matrix(-1 0 0 1 -1 -11.15)"/><use xlink:href="#n" width="9.2" height="6.3" transform="matrix(-1 0 0 1 -2.25 -12.8)"/><use xlink:href="#o" width="8.6" height="6.5" transform="matrix(-1 0 0 1 8.15 -6.25)"/><use xlink:href="#p" width="6.8" height="6" transform="matrix(-1 0 0 1 7.6 -8)"/><use xlink:href="#q" width=".8" height=".8" transform="translate(3.85 -2.35)"/><use xlink:href="#r" width="10.1" height="10.1" transform="matrix(-1 0 0 1 5.15 -9.55)"/><use xlink:href="#s" width="6.9" height="7" transform="matrix(-1 0 0 1 3.85 -14)"/><use xlink:href="#t" width="5.3" height="10.9" transform="matrix(-.3199 .3199 .3199 .3199 -1 -7.3)"/><use xlink:href="#t" width="5.3" height="10.9" transform="matrix(-.3734 -.3545 -.0747 .2789 4.7 -6.75)"/><use xlink:href="#u" width="7.3" height="5.8" transform="matrix(-1 0 0 1 -1.4 -1.55)"/><use xlink:href="#v" width="7.3" height="5.8" transform="matrix(-1 0 0 1 -1 -4.5)"/><use xlink:href="#w" width="30.4" height="29.6" transform="matrix(-1 0 0 1 12.45 -33.65)"/></g></g></svg>