<svg xmlns="http://www.w3.org/2000/svg" xmlns:xlink="http://www.w3.org/1999/xlink" width="559" height="80" viewBox="0 0 559 80"><defs><use xlink:href="#a" id="w" width="22.9" height="21.6"/><use xlink:href="#b" id="F" width="36.8" height="24.8"/><use xlink:href="#c" id="E" width="10.7" height="10.7"/><use xlink:href="#d" id="D" width="6.9" height="10.3"/><use xlink:href="#e" id="C" width="4.3" height="6.7"/><use xlink:href="#f" id="B" width="15.8" height="17.9"/><use xlink:href="#g" id="A" width="9.6" height="8.4"/><use xlink:href="#h" id="z" width="20.4" height="23.6"/><use xlink:href="#i" id="M" width="36.8" height="24.8"/><use xlink:href="#j" id="L" width="10.7" height="10.7"/><use xlink:href="#k" id="K" width="6.9" height="10.3"/><use xlink:href="#l" id="J" width="4.3" height="6.7"/><use xlink:href="#m" id="I" width="15.8" height="17.9"/><use xlink:href="#n" id="H" width="9.6" height="8.4"/><use xlink:href="#o" id="G" width="20.4" height="23.6"/><use xlink:href="#p" id="T" width="36.8" height="24.8"/><use xlink:href="#q" id="S" width="10.7" height="10.7"/><use xlink:href="#r" id="R" width="6.9" height="10.3"/><use xlink:href="#s" id="Q" width="4.3" height="6.7"/><use xlink:href="#t" id="P" width="15.8" height="17.9"/><use xlink:href="#u" id="O" width="9.6" height="8.4"/><use xlink:href="#v" id="N" width="20.4" height="23.6"/><use xlink:href="#w" id="al" width="22.9" height="21.6" transform="matrix(-1 0 0 1 29.95 4.5)"/><use xlink:href="#w" id="ae" width="22.9" height="21.6" transform="matrix(-1.19 0 0 1.19 32.1 3)"/><use xlink:href="#w" id="ac" width="22.9" height="21.6" transform="matrix(-1.39 0 0 1.39 34.2 1.55)"/><use xlink:href="#x" id="aa" width="34.7" height="28.6"/><use xlink:href="#y" id="Z" width="27.9" height="27.9"/><use xlink:href="#w" id="Y" width="22.9" height="21.6" transform="matrix(-1.58 0 0 1.58 36.35 0)"/><g id="a"><path fill="#f00f0f" d="M15.4 5.5Q17 5 20.7 3q-1.6 2.6-2 4.6-.3 1.1.6 2.2 1 1.3 3.6 1.8-1.2 0-2.4.7-1 .7-1.3 1.3-.5 1 .5 2.7.7 1.5 2.7 3.8-6.6-3.5-9.2-1.8-2.1 1.5-2.9 3.3 0-1.7-.3-2.4-.5-2.1-1.8-2.5-3-1-7.4.4.8-.5 2.3-2.6 1-1.2.6-3.1Q3.3 8.7 0 6.2l3.4.4 2.9-.4q1-.3 1.2-6.1V0q2 3.1 4 4.9 1.5 1.2 3.9.5"/><path fill="#a6691f" d="M12.2 13.7h-.7l-.6-.4-3.5-6.1q-.2-.3 0-.8l.7-.6L9.5 5l.9-.1q.4 0 .5.5-2.3.8-2.5 1.4 2.5 5.3 3.7 6.9m1.9 4h-.7q-.7-.1-.9-.6t0-1.2q.3-.5 1-.9.3-.2.7-.2-1.2.4-1 1.7 0 1.2 1 1.2z"/><path fill="#fc0" d="M12.2 13.7q-1.3-1.6-3.7-6.9.1-.6 2.4-1.5l2.4 6.6v.8l-.6.7-.3.2zm1.9 1 .5.1q.5.2.8.7.2.5 0 1.1l-.9 1-.4.1q-1 0-1-1.3-.2-1.2 1-1.6"/></g><g id="b"><path fill="#900" d="m36.6 11.3.2 1q-1.2 5-4.1 6.7 1 .5.5 1.3l-1.5 1.2-2.1.5-2.3.5-2.8.4-2.8.3-1.8-.4-2.1-.5-.9-.2-2-.6-2.8-1-3.1-.6q-1-2.1 0-4.3l.5.6-.4-1.5q1.3-2.3 4.5-2.4l-.3.4q-.6 1 0 2.2t1.9 2 2.7.7q1.2-.2 1.8-1.1.5-.9 0-2 13.8 2.3 16.9-3.3m-31-2.7L3.6 7Q3 4 12 2.5l-1.6 1.1Q8.3 5.1 6.9 6.7zm7.1 7.7q-1.4.2-1.8 1.3 0 1.5 1.2 3-1.1-1.6-1.2-3 .4-1.1 1.8-1.3"/><path fill="#900" d="M29.6 22q-.7 1.3-1.8 2l-.8-1.2q-.6 1.2-1.4 1.8-.3-1.1-1.1-1.7-.2 1.3-1.1 1.7-.4-1-1.7-1.4-.2.9-1.2 1.6 0-1-.6-2l-1.1 1.3-1-1.7 2 .5 1.9.3 2.8-.3 2.8-.4zm-12.7.2-.9 1.2-1.1-1.9zm10.2.6.2-.4zM9 19.9q-3.2-1-4.7-3.7l.9-7V9l.4-.5 1.3-1.8q1.3-1.6 3.4-3.1l1.6-1 .2-.2 1.6-.9 1-.6Q7.2.2 4.3 3.2 1.2 6 3 6.8l.5.3Q3 3.9 12 2.6l.1-.2 1.6-.9 1-.6.7-.4h.3Q23.5-1 30.2 1.9q5.2 4.6 6.4 9.4-3.1 5.5-16.8 3.2l-.1-.1q-.6-1.3-1.9-2-1.3-.8-2.6-.7-1 .1-1.5.6-3.2.1-4.6 2.4-.2-1.4 0-2.7-.5.9-.6 2.4l.5 1.2Q8 17.8 9 20M14.8.8l.9-.4zm-6.6 16Q7 15.4 6.7 13.7q-.3.9.2 2.1.8 1 1.3 1"/><path fill="#900" d="M19.8 14.5q.4 1.1-.1 2t-1.8 1-2.7-.6-1.9-2 0-2.1l.3-.5q.6-.5 1.5-.6 1.3-.1 2.7.7 1.3.7 1.9 2zm-3.9-.8q-.4-.1-.7.2-.1.3 0 .8 0 .5.5 1 .3.4.8.5l.6-.3.1-.8-.5-.9q-.3-.4-.7-.5m-6.9 1 .4 1.5-.5-.6-.6-1.2q.1-1.6.7-2.4-.3 1.3 0 2.7m-.9 2.2q-.5-.1-1.3-1.1-.5-1.3-.3-2.1.3 1.6 1.6 3.1"/><path fill="#900" d="M16 13.7q.3 0 .7.5l.5.9-.1.9-.7.2q-.4-.1-.7-.5-.5-.5-.6-1l.1-.8q.3-.3.7-.2M0 6h.1z"/><path fill="none" stroke="#900" stroke-linecap="round" stroke-linejoin="round" stroke-opacity=".3" stroke-width="__RESOLUTION__" d="m36.6 11.3.2 1q-1.2 5-4.1 6.7 1 .5.5 1.3l-1.5 1.2-2.1.5q-.7 1.3-1.8 2l-.7-1.2q-.7 1.2-1.5 1.8-.2-1.1-1.1-1.7-.2 1.3-1.1 1.7-.4-1-1.7-1.4-.2.9-1.2 1.6 0-1-.6-2l-1.1 1.3-1-1.7-.9-.2-.9 1.2-1.1-1.9-2.8-1q-1.1-1.5-1.2-3 .4-1.1 1.8-1.3m-8.4 0 .9-7V9l.4-.5-2-1.5-.5-.3q-2-.6 1-3.6T14.9 1l.6-.4h.3Q23.6-.8 30.3 2q5.2 4.6 6.4 9.4m-16.8 3.2q.4 1.1-.1 2t-1.8 1-2.7-.6-1.9-2 0-2.1l.3-.5q.6-.5 1.5-.6 1.3-.1 2.7.7 1.3.7 1.9 2zM15.7.5l-1 .4-1 .6-1.6 1H12l-1.7 1.1q-2 1.6-3.5 3.1L5.6 8.5M16 13.7q-.5-.1-.8.2-.1.3 0 .8 0 .5.5 1 .3.4.8.5l.6-.2.1-.9-.5-.9q-.3-.4-.7-.5m.9 8.5-2-.7m2.8.9 2.1.5 1.9.3 2.8-.3 2.8-.4 2.3-.5m-2.3.5-.3.3" vector-effect="non-scaling-stroke"/></g><g id="c"><path fill="#900" d="M7.4 0q3.2 1.9 3.3 6.2v.3Q7 9 2.7 8.6 2 9 .3 8.4q.4-1 1.4-2.2Q4 3.2 7.4 0"/><path fill="#900" d="M10.7 6.5q-.1 2.3-3.3 4.2l-4.6-.1h-.4Q-.9 11 .3 8.5q1.6.5 2.4.2 4.3.5 8-2.1"/><path fill="none" stroke="#900" stroke-linecap="round" stroke-linejoin="round" stroke-opacity=".3" stroke-width="__RESOLUTION__" d="m7.4 10.7-4.6-.1h-.4Q-.9 11 .3 8.5q.4-1 1.3-2.2Q4 3.2 7.5 0" vector-effect="non-scaling-stroke"/></g><g id="d"><path fill="#900" d="M.9 9.4Q.2 7 .1 4.7 0 3 .3 1.2q3-2 4.5-.7t2 3Q2.9 5.8.9 9.5"/><path fill="#900" d="M.9 9.4q2-3.7 5.9-5.8.3 1.1-.2 2.6-2.3 1.3-3.4 3.2-1.3 1.8-2.3 0"/><path fill="none" stroke="#900" stroke-linecap="round" stroke-linejoin="round" stroke-opacity=".3" stroke-width="__RESOLUTION__" d="M.3 1.2Q0 3 0 4.7q0 2.4.8 4.7 1 1.8 2.3 0 1.1-2 3.4-3.2" vector-effect="non-scaling-stroke"/></g><g id="e"><path fill="#900" d="m3.5 0 .1.2v.1q1 2.4.5 5.3-1-2.4-4-2.6 0-1.1.6-2L1 .8l.2-.3Q1.8.1 3.6 0"/><path fill="#900" d="M4.2 5.6q-.5 1.7-1.4.6Q1.8 5 .1 4.4V3q3 .2 4 2.6"/><path fill="none" stroke="#900" stroke-linecap="round" stroke-linejoin="round" stroke-opacity=".3" stroke-width="__RESOLUTION__" d="m3.5 0 .1.2v.1q1 2.4.5 5.3-.4 1.7-1.3.6T0 4.4" vector-effect="non-scaling-stroke"/></g><g id="f"><path fill="#900" d="M15.8 11q.1 2.7-.6 3.9l-.1.1-.1-.1q-1-1-2.1-1.2l-1.2-.1-.1-.1h-.1q-1.4-.4-2.6.7h-.1Q4.7 16 1 12.9q-.1 1.8 1 3.6-.8-.8-1.3-2.2Q-.8 7.8.9 1.8 2.5.9 3.9.5q3.3 1.1 2.2 4.3l-.4.7q4.2 4 9.3 2.3l.6 2.3z"/><path fill="#900" d="M15 7.8Q9.9 9.4 5.7 5.5l.4-.7Q7 1.6 3.9.5L6.7 0q3.2 0 5.2 2l1.4 1.9q1 1.8 1.7 3.9M2 16.5q-1-1.8-1-3.6 3.7 3.1 7.8 1.3h.1q1.2-1 2.6-.5v-.1h.2l1.2.2q1.2.2 2 1.1l.2.2q-.7 1-2.2.5l-1-.1q-2.6-.2-5.5 2.3-2.7.4-4.4-1.3"/><path fill="none" stroke="#900" stroke-linecap="round" stroke-linejoin="round" stroke-opacity=".3" stroke-width="__RESOLUTION__" d="m15.8 11-.2-.9-.6-2.3M3.9.5Q2.5.9.9 1.8q-1.7 6-.2 12.5.5 1.3 1.4 2.2 1.6 1.7 4.4 1.3 2.8-2.4 5.4-2.3m1.4-11.6-1.4-2Q9.9 0 6.7 0L3.9.5" vector-effect="non-scaling-stroke"/></g><g id="g"><path fill="#900" d="M7.2 8.4 0 3.4Q0 1 1.9 0q3.4 2.3 5.8 4.8 3.7 4-.1 3.6z"/><path fill="#900" d="m0 3.4 7.2 5L5.7 8Q.3 6.9 0 4.9z"/><path fill="none" stroke="#900" stroke-linecap="round" stroke-linejoin="round" stroke-opacity=".3" stroke-width="__RESOLUTION__" d="M7.2 8.4h.4q3.8.4.1-3.6Q5.3 2.3 1.9 0m3.8 8.2 1.5.2" vector-effect="non-scaling-stroke"/></g><g id="h"><path fill="#900" d="m20.4 19.7-.1 1.3q-.6 2.2-3.5 2.4-4.6 1-10.7-6.8-1.6 2.5-4.7 2 2.9-.1 4.7-3.6 5.8 7.7 10.1 6.9 1.8.3 4.2-2.3"/><path fill="#900" d="M1.4 18.6 0 18q2.5-.1 4.6-6.6 0-3.4-.4-6.2l1.5 7.9q1 2.3 3.9 3.3 2.7 1 5.5 0 1.5 0 2.9-.7 2.3 1.1 2.4 3.8-2.4 2.6-4.2 2.3-4.3.8-10.1-6.8-1.8 3.4-4.7 3.4"/><path fill="#900" d="M4.2 5.3q-.4-3-1.3-5.3 4.1 5.3 5 13 3.9 3.4 7.2 3.5-2.8 1-5.5 0-3-1-3.9-3.3z"/><path fill="none" stroke="#900" stroke-linecap="round" stroke-linejoin="round" stroke-opacity=".3" stroke-width="__RESOLUTION__" d="M16.8 23.5q-4.6.9-10.7-6.8-1.6 2.4-4.7 1.8L0 18.2q2.5-.1 4.6-6.6 0-3.4-.4-6.2-.5-3-1.3-5.3 4.1 5.3 5 13 3.9 3.4 7.2 3.5h0q1.5 0 2.9-.7" vector-effect="non-scaling-stroke"/></g><g id="i"><path fill="#fff" d="m36.6 11.3.2 1q-1.2 5-4.1 6.7 1 .5.5 1.3l-1.5 1.2-2.1.5-2.3.5-2.8.4-2.8.3-1.8-.4-2.1-.5-.9-.2-2-.6-2.8-1-3.1-.6q-1-2.1 0-4.3l.5.6-.4-1.5q1.3-2.3 4.5-2.4l-.3.4q-.6 1 0 2.2t1.9 2 2.7.7q1.2-.2 1.8-1.1.5-.9 0-2 13.8 2.3 16.9-3.3m-31-2.7L3.6 7Q3 4 12 2.5l-1.6 1.1Q8.3 5.1 6.9 6.7zm7.1 7.7q-1.4.2-1.8 1.3 0 1.5 1.2 3-1.1-1.6-1.2-3 .4-1.1 1.8-1.3"/><path fill="#fff" d="M29.6 22q-.7 1.3-1.8 2l-.8-1.2q-.6 1.2-1.4 1.8-.3-1.1-1.1-1.7-.2 1.3-1.1 1.7-.4-1-1.7-1.4-.2.9-1.2 1.6 0-1-.6-2l-1.1 1.3-1-1.7 2 .5 1.9.3 2.8-.3 2.8-.4zm-12.7.2-.9 1.2-1.1-1.9zm10.2.6.2-.4zM9 19.9q-3.2-1-4.7-3.7l.9-7V9l.4-.5 1.3-1.8q1.3-1.6 3.4-3.1l1.6-1 .2-.2 1.6-.9 1-.6Q7.2.2 4.3 3.2 1.2 6 3 6.8l.5.3Q3 3.9 12 2.6l.1-.2 1.6-.9 1-.6.7-.4h.3Q23.5-1 30.2 1.9q5.2 4.6 6.4 9.4-3.1 5.5-16.8 3.2l-.1-.1q-.6-1.3-1.9-2-1.3-.8-2.6-.7-1 .1-1.5.6-3.2.1-4.6 2.4-.2-1.4 0-2.7-.5.9-.6 2.4l.5 1.2Q8 17.8 9 20M14.8.8l.9-.4zm-6.6 16Q7 15.4 6.7 13.7q-.3.9.2 2.1.8 1 1.3 1"/><path fill="#fff" d="M19.8 14.5q.4 1.1-.1 2t-1.8 1-2.7-.6-1.9-2 0-2.1l.3-.5q.6-.5 1.5-.6 1.3-.1 2.7.7 1.3.7 1.9 2zm-3.9-.8q-.4-.1-.7.2-.1.3 0 .8 0 .5.5 1 .3.4.8.5l.6-.3.1-.8-.5-.9q-.3-.4-.7-.5m-6.9 1 .4 1.5-.5-.6-.6-1.2q.1-1.6.7-2.4-.3 1.3 0 2.7m-.9 2.2q-.5-.1-1.3-1.1-.5-1.3-.3-2.1.3 1.6 1.6 3.1"/><path fill="#fff" d="M16 13.7q.3 0 .7.5l.5.9-.1.9-.7.2q-.4-.1-.7-.5-.5-.5-.6-1l.1-.8q.3-.3.7-.2M0 6h.1z"/><path fill="none" stroke="#fff" stroke-linecap="round" stroke-linejoin="round" stroke-opacity=".3" stroke-width="__RESOLUTION__" d="m36.6 11.3.2 1q-1.2 5-4.1 6.7 1 .5.5 1.3l-1.5 1.2-2.1.5q-.7 1.3-1.8 2l-.7-1.2q-.7 1.2-1.5 1.8-.2-1.1-1.1-1.7-.2 1.3-1.1 1.7-.4-1-1.7-1.4-.2.9-1.2 1.6 0-1-.6-2l-1.1 1.3-1-1.7-.9-.2-.9 1.2-1.1-1.9-2.8-1q-1.1-1.5-1.2-3 .4-1.1 1.8-1.3m-8.4 0 .9-7V9l.4-.5-2-1.5-.5-.3q-2-.6 1-3.6T14.9 1l.6-.4h.3Q23.6-.8 30.3 2q5.2 4.6 6.4 9.4m-16.8 3.2q.4 1.1-.1 2t-1.8 1-2.7-.6-1.9-2 0-2.1l.3-.5q.6-.5 1.5-.6 1.3-.1 2.7.7 1.3.7 1.9 2zM15.7.5l-1 .4-1 .6-1.6 1H12l-1.7 1.1q-2 1.6-3.5 3.1L5.6 8.5M16 13.7q-.5-.1-.8.2-.1.3 0 .8 0 .5.5 1 .3.4.8.5l.6-.2.1-.9-.5-.9q-.3-.4-.7-.5m.9 8.5-2-.7m2.8.9 2.1.5 1.9.3 2.8-.3 2.8-.4 2.3-.5m-2.3.5-.3.3" vector-effect="non-scaling-stroke"/></g><g id="j"><path fill="#fff" d="M7.4 0q3.2 1.9 3.3 6.2v.3Q7 9 2.7 8.6 2 9 .3 8.4q.4-1 1.4-2.2Q4 3.2 7.4 0"/><path fill="#fff" d="M10.7 6.5q-.1 2.3-3.3 4.2l-4.6-.1h-.4Q-.9 11 .3 8.5q1.6.5 2.4.2 4.3.5 8-2.1"/><path fill="none" stroke="#fff" stroke-linecap="round" stroke-linejoin="round" stroke-opacity=".3" stroke-width="__RESOLUTION__" d="m7.4 10.7-4.6-.1h-.4Q-.9 11 .3 8.5q.4-1 1.3-2.2Q4 3.2 7.5 0" vector-effect="non-scaling-stroke"/></g><g id="k"><path fill="#fff" d="M.9 9.4Q.2 7 .1 4.7 0 3 .3 1.2q3-2 4.5-.7t2 3Q2.9 5.8.9 9.5"/><path fill="#fff" d="M.9 9.4q2-3.7 5.9-5.8.3 1.1-.2 2.6-2.3 1.3-3.4 3.2-1.3 1.8-2.3 0"/><path fill="none" stroke="#fff" stroke-linecap="round" stroke-linejoin="round" stroke-opacity=".3" stroke-width="__RESOLUTION__" d="M.3 1.2Q0 3 0 4.7q0 2.4.8 4.7 1 1.8 2.3 0 1.1-2 3.4-3.2" vector-effect="non-scaling-stroke"/></g><g id="l"><path fill="#fff" d="m3.5 0 .1.2v.1q1 2.4.5 5.3-1-2.4-4-2.6 0-1.1.6-2L1 .8l.2-.3Q1.8.1 3.6 0"/><path fill="#fff" d="M4.2 5.6q-.5 1.7-1.4.6Q1.8 5 .1 4.4V3q3 .2 4 2.6"/><path fill="none" stroke="#fff" stroke-linecap="round" stroke-linejoin="round" stroke-opacity=".3" stroke-width="__RESOLUTION__" d="m3.5 0 .1.2v.1q1 2.4.5 5.3-.4 1.7-1.3.6T0 4.4" vector-effect="non-scaling-stroke"/></g><g id="m"><path fill="#fff" d="M15.8 11q.1 2.7-.6 3.9l-.1.1-.1-.1q-1-1-2.1-1.2l-1.2-.1-.1-.1h-.1q-1.4-.4-2.6.7h-.1Q4.7 16 1 12.9q-.1 1.8 1 3.6-.8-.8-1.3-2.2Q-.8 7.8.9 1.8 2.5.9 3.9.5q3.3 1.1 2.2 4.3l-.4.7q4.2 4 9.3 2.3l.6 2.3z"/><path fill="#fff" d="M15 7.8Q9.9 9.4 5.7 5.5l.4-.7Q7 1.6 3.9.5L6.7 0q3.2 0 5.2 2l1.4 1.9q1 1.8 1.7 3.9M2 16.5q-1-1.8-1-3.6 3.7 3.1 7.8 1.3h.1q1.2-1 2.6-.5v-.1h.2l1.2.2q1.2.2 2 1.1l.2.2q-.7 1-2.2.5l-1-.1q-2.6-.2-5.5 2.3-2.7.4-4.4-1.3"/><path fill="none" stroke="#fff" stroke-linecap="round" stroke-linejoin="round" stroke-opacity=".3" stroke-width="__RESOLUTION__" d="m15.8 11-.2-.9-.6-2.3M3.9.5Q2.5.9.9 1.8q-1.7 6-.2 12.5.5 1.3 1.4 2.2 1.6 1.7 4.4 1.3 2.8-2.4 5.4-2.3m1.4-11.6-1.4-2Q9.9 0 6.7 0L3.9.5" vector-effect="non-scaling-stroke"/></g><g id="n"><path fill="#fff" d="M7.2 8.4 0 3.4Q0 1 1.9 0q3.4 2.3 5.8 4.8 3.7 4-.1 3.6z"/><path fill="#fff" d="m0 3.4 7.2 5L5.7 8Q.3 6.9 0 4.9z"/><path fill="none" stroke="#fff" stroke-linecap="round" stroke-linejoin="round" stroke-opacity=".3" stroke-width="__RESOLUTION__" d="M7.2 8.4h.4q3.8.4.1-3.6Q5.3 2.3 1.9 0m3.8 8.2 1.5.2" vector-effect="non-scaling-stroke"/></g><g id="o"><path fill="#fff" d="m20.4 19.7-.1 1.3q-.6 2.2-3.5 2.4-4.6 1-10.7-6.8-1.6 2.5-4.7 2 2.9-.1 4.7-3.6 5.8 7.7 10.1 6.9 1.8.3 4.2-2.3"/><path fill="#fff" d="M1.4 18.6 0 18q2.5-.1 4.6-6.6 0-3.4-.4-6.2l1.5 7.9q1 2.3 3.9 3.3 2.7 1 5.5 0 1.5 0 2.9-.7 2.3 1.1 2.4 3.8-2.4 2.6-4.2 2.3-4.3.8-10.1-6.8-1.8 3.4-4.7 3.4"/><path fill="#fff" d="M4.2 5.3q-.4-3-1.3-5.3 4.1 5.3 5 13 3.9 3.4 7.2 3.5-2.8 1-5.5 0-3-1-3.9-3.3z"/><path fill="none" stroke="#fff" stroke-linecap="round" stroke-linejoin="round" stroke-opacity=".3" stroke-width="__RESOLUTION__" d="M16.8 23.5q-4.6.9-10.7-6.8-1.6 2.4-4.7 1.8L0 18.2q2.5-.1 4.6-6.6 0-3.4-.4-6.2-.5-3-1.3-5.3 4.1 5.3 5 13 3.9 3.4 7.2 3.5h0q1.5 0 2.9-.7" vector-effect="non-scaling-stroke"/></g><g id="p"><path fill="#dedcc5" d="m36.6 11.3.2 1q-1.2 5-4.1 6.7 1 .5.5 1.3l-1.5 1.2-2.1.5-2.3.5-2.8.4-2.8.3-1.8-.4-2.1-.5-.9-.2-2-.6-2.8-1-3.1-.6q-1-2.1 0-4.3l.5.6-.4-1.5q1.3-2.3 4.5-2.4l-.3.4q-.6 1 0 2.2t1.9 2 2.7.7q1.2-.2 1.8-1.1.5-.9 0-2 13.8 2.3 16.9-3.3m-31-2.7L3.6 7Q3 4 12 2.5l-1.6 1.1Q8.3 5.1 6.9 6.7zm7.1 7.7q-1.4.2-1.8 1.3 0 1.5 1.2 3-1.1-1.6-1.2-3 .4-1.1 1.8-1.3"/><path fill="#ebebb7" d="M29.6 22q-.7 1.3-1.8 2l-.8-1.2q-.6 1.2-1.4 1.8-.3-1.1-1.1-1.7-.2 1.3-1.1 1.7-.4-1-1.7-1.4-.2.9-1.2 1.6 0-1-.6-2l-1.1 1.3-1-1.7 2 .5 1.9.3 2.8-.3 2.8-.4zm-12.7.2-.9 1.2-1.1-1.9zm10.2.6.2-.4z"/><path fill="#fffde3" d="M9 20q-3.2-1-4.7-3.8l.9-7V9l.4-.5 1.3-1.8q1.3-1.6 3.4-3.1l1.6-1 .2-.2 1.6-.9 1-.6Q7.2.2 4.3 3.2 1.2 6 3 6.8l.5.3Q3 3.9 12 2.6l.1-.2 1.6-.9 1-.6.7-.4h.3Q23.5-1 30.2 1.9q5.2 4.6 6.4 9.4-3.1 5.5-16.8 3.2l-.1-.1q-.6-1.3-1.9-2-1.3-.8-2.6-.7-1 .1-1.5.6-3.2.1-4.6 2.4-.2-1.4 0-2.7-.5.9-.6 2.4l.5 1.2Q8 17.8 9 20M14.8.8l.9-.4zm-6.6 16Q7 15.4 6.7 13.7q-.3.9.2 2.1.8 1 1.3 1"/><path fill="#fff" d="M19.8 14.5q.4 1.1-.1 2t-1.8 1-2.7-.6-1.9-2 0-2.1l.3-.5q.6-.5 1.5-.6 1.3-.1 2.7.7 1.3.7 1.9 2zm-3.9-.8q-.4-.1-.7.2-.1.3 0 .8 0 .5.5 1 .3.4.8.5l.6-.3.1-.8-.5-.9q-.3-.4-.7-.5"/><path fill="#a19f8f" d="m9.1 14.7.4 1.5-.5-.6-.6-1.2q.1-1.6.7-2.4-.3 1.3 0 2.7m-.9 2.2q-.5-.1-1.3-1.1-.5-1.3-.3-2.1.3 1.6 1.6 3.1"/><path fill="#000" d="M16 13.7q.3 0 .7.5l.5.9-.1.9-.7.2q-.4-.1-.7-.5-.5-.5-.6-1l.1-.8q.3-.3.7-.2"/><path fill="#c90" d="M0 6h.1z"/><path fill="none" stroke="#000" stroke-linecap="round" stroke-linejoin="round" stroke-opacity=".3" stroke-width="__RESOLUTION__" d="m36.6 11.3.2 1q-1.2 5-4.1 6.7 1 .5.5 1.3l-1.5 1.2-2.1.5q-.7 1.3-1.8 2l-.7-1.2q-.7 1.2-1.5 1.8-.2-1.1-1.1-1.7-.2 1.3-1.1 1.7-.4-1-1.7-1.4-.2.9-1.2 1.6 0-1-.6-2l-1.1 1.3-1-1.7-.9-.2-.9 1.2-1.1-1.9-2.8-1q-1.1-1.5-1.2-3 .4-1.1 1.8-1.3m-8.4 0 .9-7V9l.4-.5-2-1.5-.5-.3q-2-.6 1-3.6T14.9 1l.6-.4h.3Q23.6-.8 30.3 2q5.2 4.6 6.4 9.4m-16.8 3.2q.4 1.1-.1 2t-1.8 1-2.7-.6-1.9-2 0-2.1l.3-.5q.6-.5 1.5-.6 1.3-.1 2.7.7 1.3.7 1.9 2zM15.7.5l-1 .4-1 .6-1.6 1H12l-1.7 1.1q-2 1.6-3.5 3.1L5.6 8.5M16 13.7q-.5-.1-.8.2-.1.3 0 .8 0 .5.5 1 .3.4.8.5l.6-.2.1-.9-.5-.9q-.3-.4-.7-.5m.9 8.5-2-.7m2.8.9 2.1.5 1.9.3 2.8-.3 2.8-.4 2.3-.5m-2.3.5-.3.3" vector-effect="non-scaling-stroke"/></g><g id="q"><path fill="#fffde3" d="M7.4 0q3.2 1.9 3.3 6.2v.3Q7 9 2.7 8.6 2 9 .3 8.4q.4-1 1.4-2.2Q4 3.2 7.4 0"/><path fill="#dedcc5" d="M10.7 6.5q-.1 2.3-3.3 4.2l-4.6-.1h-.4Q-.9 11 .3 8.5q1.6.5 2.4.2 4.3.5 8-2.1"/><path fill="none" stroke="#000" stroke-linecap="round" stroke-linejoin="round" stroke-opacity=".3" stroke-width="__RESOLUTION__" d="m7.4 10.7-4.6-.1h-.4Q-.9 11 .3 8.5q.4-1 1.3-2.2Q4 3.2 7.5 0" vector-effect="non-scaling-stroke"/></g><g id="r"><path fill="#fffde3" d="M.9 9.4Q.2 7 .1 4.7 0 3 .3 1.2q3-2 4.5-.7t2 3Q2.9 5.8.9 9.5"/><path fill="#dedcc5" d="M.9 9.4q2-3.7 5.9-5.8.3 1.1-.2 2.6-2.3 1.3-3.4 3.2-1.3 1.8-2.3 0"/><path fill="none" stroke="#000" stroke-linecap="round" stroke-linejoin="round" stroke-opacity=".3" stroke-width="__RESOLUTION__" d="M.3 1.2Q0 3 0 4.7q0 2.4.8 4.7 1 1.8 2.3 0 1.1-2 3.4-3.2" vector-effect="non-scaling-stroke"/></g><g id="s"><path fill="#fffde3" d="m3.5 0 .1.2v.1q1 2.4.5 5.3-1-2.4-4-2.6 0-1.1.6-2L1 .8l.2-.3Q1.8.1 3.6 0"/><path fill="#dedcc5" d="M4.2 5.6q-.5 1.7-1.4.6Q1.8 5 .1 4.4V3q3 .2 4 2.6"/><path fill="none" stroke="#000" stroke-linecap="round" stroke-linejoin="round" stroke-opacity=".3" stroke-width="__RESOLUTION__" d="m3.5 0 .1.2v.1q1 2.4.5 5.3-.4 1.7-1.3.6T0 4.4" vector-effect="non-scaling-stroke"/></g><g id="t"><path fill="#fffde3" d="M15.8 11q.1 2.7-.6 3.9l-.1.1-.1-.1q-1-1-2.1-1.2l-1.2-.1-.1-.1h-.1q-1.4-.4-2.6.7h-.1Q4.7 16 1 12.9q-.1 1.8 1 3.6-.8-.8-1.3-2.2Q-.8 7.8.9 1.8 2.5.9 3.9.5q3.3 1.1 2.2 4.3l-.4.7q4.2 4 9.3 2.3l.6 2.3z"/><path fill="#dedcc5" d="M15 7.8Q9.9 9.4 5.7 5.5l.4-.7Q7 1.6 3.9.5L6.7 0q3.2 0 5.2 2l1.4 1.9q1 1.8 1.7 3.9M2 16.5q-1-1.8-1-3.6 3.7 3.1 7.8 1.3h.1q1.2-1 2.6-.5v-.1h.2l1.2.2q1.2.2 2 1.1l.2.2q-.7 1-2.2.5l-1-.1q-2.6-.2-5.5 2.3-2.7.4-4.4-1.3"/><path fill="none" stroke="#000" stroke-linecap="round" stroke-linejoin="round" stroke-opacity=".3" stroke-width="__RESOLUTION__" d="m15.8 11-.2-.9-.6-2.3M3.9.5Q2.5.9.9 1.8q-1.7 6-.2 12.5.5 1.3 1.4 2.2 1.6 1.7 4.4 1.3 2.8-2.4 5.4-2.3m1.4-11.6-1.4-2Q9.9 0 6.7 0L3.9.5" vector-effect="non-scaling-stroke"/></g><g id="u"><path fill="#fffde3" d="M7.2 8.4 0 3.4Q0 1 1.9 0q3.4 2.3 5.8 4.8 3.7 4-.1 3.6z"/><path fill="#dedcc5" d="m0 3.4 7.2 5L5.7 8Q.3 6.9 0 4.9z"/><path fill="none" stroke="#000" stroke-linecap="round" stroke-linejoin="round" stroke-opacity=".3" stroke-width="__RESOLUTION__" d="M7.2 8.4h.4q3.8.4.1-3.6Q5.3 2.3 1.9 0m3.8 8.2 1.5.2" vector-effect="non-scaling-stroke"/></g><g id="v"><path fill="#dedcc5" d="m20.4 19.7-.1 1.3q-.6 2.2-3.5 2.4-4.6 1-10.7-6.8-1.6 2.5-4.7 2 2.9-.1 4.7-3.6 5.8 7.7 10.1 6.9 1.8.3 4.2-2.3"/><path fill="#f2f0d7" d="M1.4 18.6 0 18q2.5-.1 4.6-6.6 0-3.4-.4-6.2l1.5 7.9q1 2.3 3.9 3.3 2.7 1 5.5 0 1.5 0 2.9-.7 2.3 1.1 2.4 3.8-2.4 2.6-4.2 2.3-4.3.8-10.1-6.8-1.8 3.4-4.7 3.4"/><path fill="#fffde3" d="M4.2 5.3q-.4-3-1.3-5.3 4.1 5.3 5 13 3.9 3.4 7.2 3.5-2.8 1-5.5 0-3-1-3.9-3.3z"/><path fill="none" stroke="#000" stroke-linecap="round" stroke-linejoin="round" stroke-opacity=".3" stroke-width="__RESOLUTION__" d="M16.8 23.5q-4.6.9-10.7-6.8-1.6 2.4-4.7 1.8L0 18.2q2.5-.1 4.6-6.6 0-3.4-.4-6.2-.5-3-1.3-5.3 4.1 5.3 5 13 3.9 3.4 7.2 3.5h0q1.5 0 2.9-.7" vector-effect="non-scaling-stroke"/></g><g id="x"><path fill="#fff" d="M34.7 28.4q-4.3-4-6.6-3.5-1.8.3-2.9 3.7.1-4.1-2.4-6.1 4.9-.1 4.8-3.4t-5.3-7q2.9 1 6.3-2-1.4 3.8-.9 5.9.5 1.9 2.8 3.3l3.4 1.2q-2.4.4-2.4 2-.1 2 3.2 5.9"/><path fill="none" stroke="#fff" stroke-linecap="round" stroke-linejoin="round" stroke-width="__RESOLUTION__" d="M33.9 20.5q-2.4.4-2.4 2-.1 2 3.2 5.9" vector-effect="non-scaling-stroke"/><path fill="#fff" d="M5.5 3.3Q16.3 9 16.3 2.6l4 1.7q-.7.4-1.4 1.9-1 2.2-.5 4.5.7 3.7 3.8 8.5l4.1 5.2q-5.8-2.8-16.6 1.3 12.2-8.4-4.3-22.4M2 .2q1.4.7 2 2.2l-.9-.2L0 .9Q.6-.4 2 .2"/><path fill="none" stroke="#fff" stroke-linecap="round" stroke-linejoin="round" stroke-width="__RESOLUTION__" d="M5.5 3.3Q16.3 9 16.3 2.6M9.7 25.7Q22 17.3 5.5 3.3M2 .2q1.4.7 2 2.2l-.9-.2L0 .9Q.6-.4 2 .2" vector-effect="non-scaling-stroke"/><path fill="#fff" d="M6.7 28q-1.1-.7-.3-1.3.8-.5 2.1-.5l-.2.4z"/><path fill="none" stroke="#fff" stroke-linecap="round" stroke-linejoin="round" stroke-width="__RESOLUTION__" d="M6.7 28q-1.1-.7-.3-1.3.8-.5 2.1-.5l-.2.4z" vector-effect="non-scaling-stroke"/></g><g id="aj" transform="translate(28.95 52.15)"><use xlink:href="#z" width="20.4" height="23.6" transform="matrix(-.9256 .3707 .3707 .9256 1.8 -30.45)"/><use xlink:href="#A" width="9.6" height="8.4" transform="matrix(-.6055 -.7938 -.7938 .6055 -11.15 -15.6)"/><use xlink:href="#B" width="15.8" height="17.9" transform="matrix(-.9675 -.1456 -.2505 .9959 -1.05 -17.05)"/><use xlink:href="#C" width="4.3" height="6.7" transform="rotate(-120 -9.59 1)scale(1 -1)"/><use xlink:href="#D" width="6.9" height="10.3" transform="matrix(-.5878 -.8071 -.8071 .5878 -5.3 -2.1)"/><use xlink:href="#E" width="10.7" height="10.7" transform="matrix(.8088 -.5854 -.5854 -.8088 -12.85 -2.7)"/><use xlink:href="#F" width="36.8" height="24.8" transform="matrix(-.6583 -.7743 -.6263 .7775 10.75 -23.65)"/></g><g id="ag" transform="translate(28.95 52.15)"><use xlink:href="#G" width="20.4" height="23.6" transform="matrix(-.9256 .3707 .3707 .9256 1.8 -30.45)"/><use xlink:href="#H" width="9.6" height="8.4" transform="matrix(-.6055 -.7938 -.7938 .6055 -11.15 -15.6)"/><use xlink:href="#I" width="15.8" height="17.9" transform="matrix(-.9675 -.1456 -.2505 .9959 -1.05 -17.05)"/><use xlink:href="#J" width="4.3" height="6.7" transform="rotate(-120 -9.59 1)scale(1 -1)"/><use xlink:href="#K" width="6.9" height="10.3" transform="matrix(-.5878 -.8071 -.8071 .5878 -5.3 -2.1)"/><use xlink:href="#L" width="10.7" height="10.7" transform="matrix(.8088 -.5854 -.5854 -.8088 -12.85 -2.7)"/><use xlink:href="#M" width="36.8" height="24.8" transform="matrix(-.6583 -.7743 -.6263 .7775 10.75 -23.65)"/></g><g id="V" transform="translate(28.95 52.15)"><use xlink:href="#N" width="20.4" height="23.6" transform="matrix(-.9256 .3707 .3707 .9256 1.8 -30.45)"/><use xlink:href="#O" width="9.6" height="8.4" transform="matrix(-.6055 -.7938 -.7938 .6055 -11.15 -15.6)"/><use xlink:href="#P" width="15.8" height="17.9" transform="matrix(-.9675 -.1456 -.2505 .9959 -1.05 -17.05)"/><use xlink:href="#Q" width="4.3" height="6.7" transform="rotate(-120 -9.59 1)scale(1 -1)"/><use xlink:href="#R" width="6.9" height="10.3" transform="matrix(-.5878 -.8071 -.8071 .5878 -5.3 -2.1)"/><use xlink:href="#S" width="10.7" height="10.7" transform="matrix(.8088 -.5854 -.5854 -.8088 -12.85 -2.7)"/><use xlink:href="#T" width="36.8" height="24.8" transform="matrix(-.6583 -.7743 -.6263 .7775 10.75 -23.65)"/></g><clipPath id="U"><path d="M1 1h61v78H1z"/></clipPath><clipPath id="ab"><path d="M63 1h61v78H63z"/></clipPath><clipPath id="ad"><path d="M125 1h61v78h-61z"/></clipPath><clipPath id="af"><path d="M187 1h61v78h-61z"/></clipPath><clipPath id="ah"><path d="M249 1h61v78h-61z"/></clipPath><clipPath id="ai"><path d="M311 1h61v78h-61z"/></clipPath><clipPath id="ak"><path d="M373 1h61v78h-61z"/></clipPath><clipPath id="am"><path d="M435 1h61v78h-61z"/></clipPath><clipPath id="an"><path d="M497 1h61v78h-61z"/></clipPath><path id="y" fill="#fff" d="M9.8-10.2q3.3 3.3 4 7.7l.1 2.2q0 5.7-4.1 9.8-3.3 3.3-7.6 4l-2.2.1q-5.8 0-10-4.1-2.6-2.6-3.5-6-.5-1.8-.5-3.8 0-5.8 4-10h.2q4-4 9.8-4 3.7 0 6.6 1.7 1.7.9 3.2 2.3" transform="translate(14 14.3)"/></defs><g clip-path="url(#U)"><g transform="translate(45.9 73.9)"><use xlink:href="#V" width="39.7" height="56.1" transform="matrix(-.9983 0 0 1.0009 15.4 -52)"/><use xlink:href="#Y" width="36.4" height="34.2" transform="matrix(-1 0 0 1 -8.55 -72.9)"/><use xlink:href="#Z" width="27.9" height="27.9" transform="translate(-5.35 -22.05)scale(.3481)"/><use xlink:href="#aa" width="34.7" height="28.6" transform="translate(-11.05 -24.1)scale(.4584)"/></g></g><g clip-path="url(#ab)"><g transform="translate(107.9 73.9)"><use xlink:href="#V" width="39.7" height="56.1" transform="matrix(-.9983 0 0 1.0009 15.4 -52)"/><use xlink:href="#ac" width="36.4" height="34.2" transform="matrix(-1 0 0 1 -8.55 -72.9)"/><use xlink:href="#Z" width="27.9" height="27.9" transform="translate(-5.35 -22.05)scale(.3481)"/><use xlink:href="#aa" width="34.7" height="28.6" transform="translate(-11.05 -24.1)scale(.4584)"/></g></g><g clip-path="url(#ad)"><g transform="translate(169.9 73.9)"><use xlink:href="#V" width="39.7" height="56.1" transform="matrix(-.9983 0 0 1.0009 15.4 -52)"/><use xlink:href="#ae" width="36.4" height="34.2" transform="matrix(-1 0 0 1 -8.55 -72.9)"/><use xlink:href="#Z" width="27.9" height="27.9" transform="translate(-5.35 -22.05)scale(.3481)"/><use xlink:href="#aa" width="34.7" height="28.6" transform="translate(-11.05 -24.1)scale(.4584)"/></g></g><g clip-path="url(#af)"><g transform="translate(231.9 73.9)"><use xlink:href="#ag" width="39.7" height="56.1" transform="matrix(-.9983 0 0 1.0009 14.8 -52.2)"/><use xlink:href="#aa" width="34.7" height="28.6" transform="matrix(.68 0 0 .68 -15.55 -27.4)"/></g></g><g clip-path="url(#ah)"><g transform="translate(293.9 73.9)"><use xlink:href="#ag" width="39.7" height="56.1" transform="matrix(-.9983 0 0 1.0009 14.8 -52.2)"/><use xlink:href="#Z" width="27.9" height="27.9" transform="translate(-5.35 -22.05)scale(.3481)"/><use xlink:href="#aa" width="34.7" height="28.6" transform="matrix(.68 0 0 .68 -15.55 -27.4)"/></g></g><g clip-path="url(#ai)"><g transform="translate(355.9 73.9)"><use xlink:href="#aj" width="39.7" height="56.1" transform="matrix(-.9983 0 0 1.0009 14.8 -52.2)"/><use xlink:href="#aa" width="34.7" height="28.6" transform="matrix(.68 0 0 .68 -15.55 -27.4)"/></g></g><g clip-path="url(#ak)"><g transform="translate(417.9 73.9)"><use xlink:href="#ag" width="39.7" height="56.1" transform="matrix(-.9983 0 0 1.0009 14.8 -52.2)"/><use xlink:href="#al" width="36.4" height="34.2" transform="matrix(-1 0 0 1 -8.55 -72.9)"/></g></g><g clip-path="url(#am)"><g transform="translate(479.9 73.9)"><use xlink:href="#aj" width="39.7" height="56.1" transform="matrix(-.9983 0 0 1.0009 14.8 -52.2)"/><use xlink:href="#al" width="36.4" height="34.2" transform="matrix(-1 0 0 1 -8.55 -72.9)"/></g></g><g clip-path="url(#an)"><g transform="translate(541.9 73.9)"><use xlink:href="#V" width="39.7" height="56.1" transform="matrix(-.9983 0 0 1.0009 14.8 -52.2)"/><use xlink:href="#al" width="36.4" height="34.2" transform="matrix(-1 0 0 1 -8.55 -72.9)"/></g></g></svg>