<svg xmlns="http://www.w3.org/2000/svg" xmlns:xlink="http://www.w3.org/1999/xlink" width="1303" height="103" viewBox="0 0 1303 103"><defs><clipPath id="l"><path d="M1 1h41v101H1z"/></clipPath><clipPath id="v"><path d="M43 1h41v101H43z"/></clipPath><clipPath id="w"><path d="M85 1h41v101H85z"/></clipPath><clipPath id="x"><path d="M127 1h41v101h-41z"/></clipPath><clipPath id="z"><path d="M169 1h41v101h-41z"/></clipPath><clipPath id="A"><path d="M211 1h41v101h-41z"/></clipPath><clipPath id="B"><path d="M253 1h41v101h-41z"/></clipPath><clipPath id="C"><path d="M295 1h41v101h-41z"/></clipPath><clipPath id="D"><path d="M337 1h41v101h-41z"/></clipPath><clipPath id="E"><path d="M379 1h41v101h-41z"/></clipPath><clipPath id="G"><path d="M421 1h41v101h-41z"/></clipPath><clipPath id="H"><path d="M463 1h41v101h-41z"/></clipPath><clipPath id="I"><path d="M505 1h41v101h-41z"/></clipPath><clipPath id="J"><path d="M547 1h41v101h-41z"/></clipPath><clipPath id="K"><path d="M589 1h41v101h-41z"/></clipPath><clipPath id="L"><path d="M631 1h41v101h-41z"/></clipPath><clipPath id="M"><path d="M673 1h41v101h-41z"/></clipPath><clipPath id="N"><path d="M715 1h41v101h-41z"/></clipPath><clipPath id="O"><path d="M757 1h41v101h-41z"/></clipPath><clipPath id="P"><path d="M799 1h41v101h-41z"/></clipPath><clipPath id="Q"><path d="M841 1h41v101h-41z"/></clipPath><clipPath id="R"><path d="M883 1h41v101h-41z"/></clipPath><clipPath id="S"><path d="M925 1h41v101h-41z"/></clipPath><clipPath id="T"><path d="M967 1h41v101h-41z"/></clipPath><clipPath id="U"><path d="M1009 1h41v101h-41z"/></clipPath><clipPath id="V"><path d="M1051 1h41v101h-41z"/></clipPath><clipPath id="W"><path d="M1093 1h41v101h-41z"/></clipPath><clipPath id="X"><path d="M1135 1h41v101h-41z"/></clipPath><clipPath id="Y"><path d="M1177 1h41v101h-41z"/></clipPath><clipPath id="Z"><path d="M1219 1h41v101h-41z"/></clipPath><clipPath id="aa"><path d="M1261 1h41v101h-41z"/></clipPath><use xlink:href="#a" id="F" width="7" height="7.6"/><use xlink:href="#b" id="y" width="20.5" height="8.2" transform="translate(0 1.8)"/><use xlink:href="#c" id="u" width="14.8" height="13"/><use xlink:href="#d" id="t" width="22.1" height="10"/><use xlink:href="#e" id="s" width="13.3" height="13.3"/><use xlink:href="#f" id="r" width="10.1" height="12.1"/><use xlink:href="#g" id="q" width="22.1" height="7.8"/><use xlink:href="#h" id="p" width="5.3" height="5.9"/><use xlink:href="#i" id="o" width="4.5" height="6.1"/><use xlink:href="#j" id="n" width="5" height="7"/><use xlink:href="#k" id="m" width="13" height="3.9"/><g id="a"><path fill="#182125" d="M0 4.4v-.6q-.1-1.6.9-2.7T3.3 0t2.6 1.1l.1.2v.5q.1 1.7-.8 2.8T2.8 5.7.1 4.6z"/><path fill="#2e3f45" d="M6 1.3q1 1 1 2.5.1 1.6-.9 2.7T3.9 7.6q-1.6 0-2.6-1.1-.9-1-1.1-2.1l.1.2q1 1.1 2.6 1.1 1.4 0 2.4-1.1t.9-2.7z"/><path fill="none" stroke="#151e20" stroke-linecap="round" stroke-linejoin="round" stroke-width="__RESOLUTION__" d="M0 4.4v-.6q-.1-1.6.9-2.7T3.3 0t2.6 1.1l.1.2q1 1 1 2.5.1 1.6-.9 2.7T3.9 7.6q-1.6 0-2.6-1.1-.9-1-1.1-2.1" vector-effect="non-scaling-stroke"/><path fill="#fff" d="m4.9 3.4-1.3.3-.6.7-1.4-.3v-.8l-1-.7 1-1.6L3.4.3l1.5 1zm-.7-.8-.3-1-.7.6.2.7zm-2-1.2-.6.6.5.7.6-.7z"/><path fill="none" stroke="#fff" stroke-linecap="round" stroke-linejoin="round" stroke-width="__RESOLUTION__" d="M4.5 3.8 2 4.5l1.4 1.4M.3 5l1.8-.5L.6 3" vector-effect="non-scaling-stroke"/></g><g id="b"><path fill="none" stroke="#b47e31" stroke-linecap="round" stroke-linejoin="round" stroke-width="__RESOLUTION__" d="M19.3 1.4q1.1 4.1-2.3 6-3.3 1.9-6.3-.4-3.1-2.6-5.3-2.7Q3.5 4.1 0 5.8" vector-effect="non-scaling-stroke"/><path fill="#fff0ce" d="m18.2 1.8.8-.4.5-1.4.4 1.7.6.6-1-.2-1 1.1.6-1.3z"/></g><g id="c"><path fill="#fff9ec" d="m12.2 8.3 2.6 1.1-1.2 1.8-2-1.7z"/><path fill="none" stroke="#7e5436" stroke-linecap="round" stroke-linejoin="round" stroke-width="__RESOLUTION__" d="m11.6 9.5 2 1.8 1.2-1.9-2.6-1.2" vector-effect="non-scaling-stroke"/><path fill="#fff9ec" d="M9.9 11.5q.3-1.6-.4-5.3V6q-.9-1.2-2-1.8.5-2.7-.9-3.1L7.8.8q2.4-.1 3.8.8.9.7 1.3 2.5v1.3l-.7 1.4q.7 1.8.6 2.2.7 1.2.5 1.8z"/><path fill="#e0cab6" d="M6.6 1.1q1.5.4 1 3.1 1 .6 1.9 1.8v.2q.7 3.7.3 5.3l-1.5-.6-.8-1.6L5 8.5l-.3-2.4Q4.4 4 5 2.8T6.6 1m1.8 8.5-.9-.3z"/><path fill="none" stroke="#3c2500" stroke-linecap="round" stroke-linejoin="round" stroke-width="__RESOLUTION__" d="M12.8 9q.1-.4-.6-2.2l.7-1.4" vector-effect="non-scaling-stroke"/><path fill="none" stroke="#40311a" stroke-linecap="round" stroke-linejoin="round" stroke-width="__RESOLUTION__" d="m5 8.5 2.5.8.9.3" vector-effect="non-scaling-stroke"/><path fill="#fff" d="m10.8 8.4-.4-.6v-.3q0-.6.3-1 .4-.4 1-.4t1 .4l.3.7v.3q0 .5-.4.9t-.9.4-1-.4"/><path fill="#000" d="m12.5 7.4.2.3-.2.2-.2.1-.3-.1-.1-.2.1-.3.3-.1z"/><path fill="#e0cab6" d="M11 7.6h-.4l-.3-.1q-.3.1.3-1.8l.7.3v.7z"/><path fill="#fff9ec" d="m11 7.6.3-1V6q1.1-1.1 2.3-1.4.3.7-.3 1.9-.3.3-1.4.6z"/><path fill="#fff" d="m11.3 6-.7-.3Q11.7 4 13.1 4l.5.6q-1.2.2-2.3 1.3"/><path fill="none" stroke="#3c2500" stroke-linecap="round" stroke-linejoin="round" stroke-width="__RESOLUTION__" d="m11 7.6.9-.4 1.4-.7q.6-1.2.3-1.9l-.5-.5" vector-effect="non-scaling-stroke"/><path fill="#fff9ec" d="M10.9 10.4 9.7 13l-2.3-1.4 1.9-1.9z"/><path fill="none" stroke="#7e5436" stroke-linecap="round" stroke-linejoin="round" stroke-width="__RESOLUTION__" d="m9.3 9.7-2 1.9L9.8 13l1.2-2.6" vector-effect="non-scaling-stroke"/><path fill="#fff9ec" d="m10.9 10.5 2-.7 1.9 2-3.3.6z"/><path fill="none" stroke="#7e5436" stroke-linecap="round" stroke-linejoin="round" stroke-width="__RESOLUTION__" d="m10.9 10.5.7 1.9 3.2-.7-2-1.9" vector-effect="non-scaling-stroke"/><path fill="#fe9981" d="M7.8.3 9.2 0l2.3.9 1.6 2-2.4-1.8-2-.7z"/><path fill="#f30" d="m7.8.3.9.2 2 .6L13 3l.5.5V5l-5.3-.7-1-1.1 1.1-1.5-2-.6z"/><path fill="#de1d01" d="M13.5 5q-2.5.9-5.9.8L4.4 5V3l.9-1.5 1-.5 2 .6L7.1 3l1 1.2z"/><path fill="none" stroke="#5f0101" stroke-linecap="round" stroke-linejoin="round" stroke-width="__RESOLUTION__" d="M13 3 11.6.9 9.2 0 7.8.3l-1.4.8-1.1.6-1 1.4v2l3.3.7q3.4 0 5.9-.8V3.5z" vector-effect="non-scaling-stroke"/><path fill="#f30" d="M3.8 6.2 3 5.8l2.8-.9 1.2 1L5.6 7 5 6.8l-1.4.6-.6.8-.2-.8-2 .5L3 7zl1.2.6z"/><path fill="none" stroke="#5f0101" stroke-linecap="round" stroke-linejoin="round" stroke-width="__RESOLUTION__" d="M3.8 6.2 3 5.8l2.8-.9 1.2 1L5.6 7 5 6.8l-1.4.6-.6.8-.2-.8-2 .5L3 7zl1.2.6" vector-effect="non-scaling-stroke"/><path fill="#f30" d="m4 5.3-1.5.2-1.1.7.5-1L0 4.9l2.4-.1 1.3-.7zL3.7 4l-.2-.7h2.8V5l-2.1.9z"/><path fill="none" stroke="#5f0101" stroke-linecap="round" stroke-linejoin="round" stroke-width="__RESOLUTION__" d="m3.7 4-1.3.8-2.4.1 1.9.3-.5 1 1-.7L4 5.3zl-.3-.6h2.8V5l-2 .9-.2-.6" vector-effect="non-scaling-stroke"/></g><g id="d"><path fill="none" stroke="#b47e31" stroke-linecap="round" stroke-linejoin="round" stroke-width="__RESOLUTION__" d="M19.3 3.2q1.1 4.1-2.3 6-3.3 1.9-6.3-.4Q7.6 6.2 5.4 6 3.5 5.9 0 7.6" vector-effect="non-scaling-stroke"/><path fill="#ffd652" d="m17 3.3 2-.4L17.8 0 20 2.4l2.2-.3-1.4 1.2-.8 3.8L19 4z"/></g><g id="e"><path fill="#d2d6db" d="M3.2 1Q4.6.1 6.4 0q2.7-.2 4.8 1.7l.9 1q1.2 1.5 1.2 3.6v1.5l-2 1q.6-.8.5-1.7-.2-2.2-1-2.9l-5.2-.3h-.3Q.3 3.2 3.2 1"/><path fill="#9da4b0" d="M3.2 1q-3 2.2 2.1 2.9h.3q-.7 5.6 2.8 6.6 2-.7 2.9-1.7l2-1q-.5 1.9-1.7 3.4l-.2.2-.6.4q-1 .9-2.4 1.3l-1.4.3q-2.8.1-4.8-1.7Q.2 10 0 7.4v-.3q-.1-2.8 1.7-4.8z"/><path fill="#b8bcc7" d="m5.6 4 5.2.2q.8.7 1 3 .1.8-.5 1.6-.8 1-2.9 1.7-3.5-1-2.8-6.5"/><path fill="none" stroke="#646d7b" stroke-linecap="round" stroke-linejoin="round" stroke-width="__RESOLUTION__" d="M13.3 6.5v-.2q0-2-1.2-3.5l-1-1.1Q9.2-.2 6.5 0 4.6.1 3.1 1L1.8 2.3Q-.1 4.3 0 7v.3q.2 2.5 2.2 4.3T7 13.4l1.4-.3q1.3-.4 2.4-1.2l.6-.6.2-.2q1.2-1.4 1.6-3.2z" vector-effect="non-scaling-stroke"/><path fill="#fff" d="m8.4 1.6.3-.3.8.2.6.4.3.5-.4.3-.7-.2-.7-.4q-.3-.4-.2-.6M5 .4h1l.7.3q.2.3-.1.5-.2.3-.7.4h-1q-.5-.1-.7-.3Q4 1 4.3.8z"/></g><g id="f"><path fill="#b8bcc7" d="m6.2.5.6.4q2 1.2 2.8 3.7l.5 1.9q-.5 1.3-2 1L4.8 11q-1.1 1.1-3.2-1.6l-1-1.9-.2-.7v-.2l1.3-.4q2.2-1.4 3.1-4.5Q4.5.8 6.2.5"/><path fill="#9da4b0" d="M10.1 6.5q.1 1.4-.3 2.6-.7 2.2-2.6 2.8t-3.9-.7L1.5 9.4q2.1 2.7 3.2 1.6l3.5-3.5q1.4.3 1.9-1"/><path fill="#d2d6db" d="M.3 6.6q-.5-2 0-3.6Q1 .7 3 .1q1.5-.5 3.2.3-1.7.3-1.5 1.2-.9 3.2-3 4.5z"/><path fill="none" stroke="#646d7b" stroke-linecap="round" stroke-linejoin="round" stroke-width="__RESOLUTION__" d="m6.2.5.6.4q2 1.2 2.8 3.7l.5 1.9q.1 1.4-.3 2.6-.7 2.2-2.6 2.8t-3.9-.7L1.5 9.4l-1-1.9-.2-.7m0-.2q-.5-2 0-3.6Q1 .7 3 .1q1.5-.5 3.2.3" vector-effect="non-scaling-stroke"/></g><g id="g"><path fill="#b47e31" d="M0 3.7 11.7 0l10.2 1.8-11.2 3.9z"/><path fill="#824c00" d="m21.9 1.8.2 2.1-11.2 3.9-.2-2.1z"/><path fill="#e6b063" d="M10.9 7.8.2 5.8 0 3.7l10.7 2z"/><path fill="none" stroke="#693300" stroke-linecap="round" stroke-linejoin="round" stroke-width="__RESOLUTION__" d="M0 3.7 11.7 0l10.2 1.8.2 2.1-11.2 3.9-10.7-2z" vector-effect="non-scaling-stroke"/><path fill="#3e2911" d="M17.5 2.3q0 .8-2 1.5-1.9.7-4.6.9l-4.6-.3q-1.9-.3-1.8-1.1-.1-.9 1.8-1.6 1.9-.6 4.7-.8l4.5.1q2 .4 2 1.3"/></g><g id="h"><path fill="#e6b063" d="M0 2.7 2.4 0l1 .3-2.3 2.8z"/><path fill="#b47e31" d="m3.5.3 1.9 3L3 5.9 1.1 3z"/><path fill="#824c00" d="m3.1 5.9-1.2-.6L0 2.7l1 .4z"/><path fill="none" stroke="#693300" stroke-linecap="round" stroke-linejoin="round" stroke-width="__RESOLUTION__" d="M0 2.7 2.4 0l1 .3 2 3L3 5.9l-1.2-.6z" vector-effect="non-scaling-stroke"/><path fill="#555d3d" d="m3.4 2.3.6.3.3.6-.3.6-.6.3-.7-.2-.2-.7.2-.7z"/></g><g id="i"><path fill="#fff9ec" d="m4.5 2.8-.1 1.5-.6.2V5l-.9.3-.1-1.2-.3 1.4-.8-.1.1-1.4h-.3l-.1-.6-.5 1-.1-1-.8-.5q.9-1.3 1.5-1.6v-.2Q2.8-.1 4 0q.5 1.2.5 2.8M2.8 4h-.2z"/><path fill="#efcc94" d="m4.4 4.4-.3.6-.4.1-.2.6-.7.2.1-.6.9-.3v-.5zm-1.9 1-.2.6h-.6v-.7zm-1.6-1-.6-.6-.3-1 .8.5zm2.8.7"/><path fill="none" stroke="#7a5c4e" stroke-linecap="round" stroke-linejoin="round" stroke-width="__RESOLUTION__" d="m4.6 2.8-.2 1.5-.3.7-.4.1-.2.6-.7.2m0-1.9-.3 1.5-.2.6h-.6v-.7L1.8 4m-.4-.6-.5 1v.1l-.6-.6-.3-1q.9-1.3 1.5-1.6m0-.2Q2.8-.1 4 0q.5 1.2.5 2.8m-.7 1.8V5h-.1m-1-1" vector-effect="non-scaling-stroke"/></g><g id="j"><path fill="#fff" d="M5 5.3q0 1.1-1.5 1.6.1-1.7-2.2-6.9L3 .6Q2.7 4 5.1 5.3"/><path fill="#fff9ec" d="M3.6 6.9Q1.9 7.2 2 5.6T0 1.8Q.2-.1 1.4 0q2.3 5.3 2.2 6.9"/><path fill="none" stroke="#7a5c4e" stroke-linecap="round" stroke-linejoin="round" stroke-width="__RESOLUTION__" d="M3.6 6.9Q1.9 7.2 2 5.6T0 1.8m0 0Q.2-.1 1.4 0l1.5.6Q2.7 4 5.1 5.3" vector-effect="non-scaling-stroke"/></g><path id="k" fill="#3e2911" d="M4.6-1.7q1.9.4 1.9 1.3T4.6 1L0 1.9l-4.6-.2q-2-.4-1.9-1.2 0-.8 1.9-1.5L0-1.8z" transform="translate(6.5 1.95)"/></defs><g clip-path="url(#l)"><g transform="translate(23.7 97.25)"><use xlink:href="#m" width="13" height="3.9" transform="matrix(.5 0 0 .5 -3.25 -.9)"/><use xlink:href="#n" width="5" height="7" transform="matrix(.2741 -.9217 -.7904 -.1278 -3.25 -67.2)"/><use xlink:href="#n" width="5" height="7" transform="rotate(182.288 -4.624 -36.172)scale(.9592)"/><use xlink:href="#o" width="4.5" height="6.1" transform="matrix(.7622 -.7785 -.7066 -.4921 -12.5 -76.65)"/><use xlink:href="#p" width="5.3" height="5.9" transform="rotate(27.589 106.142 -47.869)scale(.9987)"/><use xlink:href="#q" width="22.1" height="7.8" transform="rotate(27.589 112.79 -44.102)scale(.9987)"/><use xlink:href="#p" width="5.3" height="5.9" transform="rotate(27.589 95.21 -24.24)scale(.9987)"/><use xlink:href="#p" width="5.3" height="5.9" transform="rotate(27.589 97.91 -7.52)scale(.9987)"/><use xlink:href="#r" width="10.1" height="12.1" transform="matrix(.9589 -.2806 .2806 .9589 .15 -74.6)"/><use xlink:href="#s" width="13.3" height="13.3" transform="rotate(-16.31 -248.003 -8.658)scale(.9991)"/><use xlink:href="#o" width="4.5" height="6.1" transform="matrix(.9314 -.3081 .3737 -.9208 7.95 -78.3)"/><use xlink:href="#n" width="5" height="7" transform="matrix(-.5124 -.7135 .9362 -.4765 5.85 -73.95)"/><use xlink:href="#n" width="5" height="7" transform="matrix(-.9601 -.2542 .3504 -.8703 6.6 -68.7)"/><use xlink:href="#t" width="22.1" height="10" transform="matrix(-.8463 0 0 1 -.6 -75.2)"/><use xlink:href="#u" width="14.8" height="13" transform="matrix(.9121 -.407 .407 .9121 -12.8 -85.9)"/></g></g><g clip-path="url(#v)"><g transform="translate(65.7 97.25)"><use xlink:href="#m" width="13" height="3.9" transform="translate(-3.6 -1)scale(.5556)"/><use xlink:href="#n" width="5" height="7" transform="matrix(.2733 -.921 -.7903 -.1259 -3.4 -61.7)"/><use xlink:href="#n" width="5" height="7" transform="rotate(182.259 -4.61 -33.422)scale(.959)"/><use xlink:href="#o" width="4.5" height="6.1" transform="matrix(.7608 -.7775 -.7056 -.4911 -12.75 -71.15)"/><use xlink:href="#p" width="5.3" height="5.9" transform="rotate(27.812 92.846 -44.849)scale(.9969)"/><use xlink:href="#q" width="22.1" height="7.8" transform="rotate(27.812 99.675 -41.074)scale(.9969)"/><use xlink:href="#p" width="5.3" height="5.9" transform="rotate(27.812 82.02 -21.486)scale(.9969)"/><use xlink:href="#p" width="5.3" height="5.9" transform="rotate(27.812 84.53 -4.854)scale(.9969)"/><use xlink:href="#r" width="10.1" height="12.1" transform="rotate(-18.8 -207.114 -32.89)scale(.998)"/><use xlink:href="#s" width="13.3" height="13.3" transform="rotate(-18.8 -196.04 -7.94)scale(.998)"/><use xlink:href="#o" width="4.5" height="6.1" transform="matrix(.8997 -.3874 .2908 -.949 7.35 -72.9)"/><use xlink:href="#n" width="5" height="7" transform="matrix(-.571 -.6654 .8907 -.5536 5.7 -68.45)"/><use xlink:href="#n" width="5" height="7" transform="matrix(-.9595 -.2532 .3483 -.87 6.45 -63.15)"/><use xlink:href="#t" width="22.1" height="10" transform="matrix(-.8463 0 0 1 -.75 -69.7)"/><use xlink:href="#u" width="14.8" height="13" transform="rotate(-27.053 -170.997 -11.674)scale(.9973)"/></g></g><g clip-path="url(#w)"><g transform="translate(107.7 97.25)"><use xlink:href="#m" width="13" height="3.9" transform="translate(-3.95 -1.1)scale(.6111)"/><use xlink:href="#n" width="5" height="7" transform="matrix(.2733 -.921 -.7903 -.1259 -3.55 -56.25)"/><use xlink:href="#n" width="5" height="7" transform="rotate(182.259 -4.632 -30.696)scale(.959)"/><use xlink:href="#o" width="4.5" height="6.1" transform="matrix(.7608 -.7775 -.7056 -.4911 -12.9 -65.7)"/><use xlink:href="#p" width="5.3" height="5.9" transform="rotate(28.062 79.658 -41.908)scale(.9963)"/><use xlink:href="#q" width="22.1" height="7.8" transform="rotate(28.062 86.46 -38.081)scale(.9963)"/><use xlink:href="#p" width="5.3" height="5.9" transform="rotate(28.062 68.977 -18.726)scale(.9963)"/><use xlink:href="#p" width="5.3" height="5.9" transform="rotate(28.062 71.701 -2.294)scale(.9963)"/><use xlink:href="#r" width="10.1" height="12.1" transform="rotate(-21.316 -166.36 -28.145)scale(.9978)"/><use xlink:href="#s" width="13.3" height="13.3" transform="rotate(-21.316 -155.987 -6.523)scale(.9978)"/><use xlink:href="#o" width="4.5" height="6.1" transform="matrix(.862 -.4644 .2067 -.9708 6.7 -67.65)"/><use xlink:href="#n" width="5" height="7" transform="matrix(-.6268 -.6127 .8365 -.632 5.55 -63.1)"/><use xlink:href="#n" width="5" height="7" transform="matrix(-.9595 -.2532 .3483 -.87 6.3 -57.7)"/><use xlink:href="#t" width="22.1" height="10" transform="matrix(-.8463 0 0 1 -.9 -64.25)"/><use xlink:href="#u" width="14.8" height="13" transform="rotate(-30.065 -141.565 -9.874)scale(.997)"/></g></g><g clip-path="url(#x)"><g transform="translate(149.7 97.25)"><use xlink:href="#m" width="13" height="3.9" transform="translate(-4.35 -1.2)scale(.6667)"/><use xlink:href="#n" width="5" height="7" transform="matrix(.2733 -.921 -.7903 -.1259 -3.7 -50.75)"/><use xlink:href="#n" width="5" height="7" transform="rotate(182.259 -4.653 -27.944)scale(.959)"/><use xlink:href="#o" width="4.5" height="6.1" transform="matrix(.7608 -.7775 -.7056 -.4911 -13.05 -60.2)"/><use xlink:href="#p" width="5.3" height="5.9" transform="rotate(28.31 66.766 -38.768)scale(.996)"/><use xlink:href="#q" width="22.1" height="7.8" transform="rotate(28.31 73.468 -35.187)scale(.996)"/><use xlink:href="#p" width="5.3" height="5.9" transform="rotate(28.31 56.276 -15.985)scale(.996)"/><use xlink:href="#p" width="5.3" height="5.9" transform="rotate(28.31 58.69 .275)scale(.996)"/><use xlink:href="#r" width="10.1" height="12.1" transform="rotate(-23.836 -134.2 -24.241)scale(.9975)"/><use xlink:href="#s" width="13.3" height="13.3" transform="rotate(-23.836 -124.551 -4.883)scale(.9975)"/><use xlink:href="#o" width="4.5" height="6.1" transform="matrix(.8178 -.5379 .1212 -.9852 6.1 -62.3)"/><use xlink:href="#n" width="5" height="7" transform="matrix(-.6779 -.5554 .7778 -.7025 5.4 -57.7)"/><use xlink:href="#n" width="5" height="7" transform="matrix(-.9595 -.2532 .3483 -.87 6.15 -52.2)"/><use xlink:href="#y" width="22.1" height="10" transform="matrix(-.8463 0 0 1 -1.05 -58.75)"/><use xlink:href="#u" width="14.8" height="13" transform="rotate(-33.075 -117.623 -8.08)scale(.9968)"/></g></g><g clip-path="url(#z)"><g transform="translate(191.7 97.25)"><use xlink:href="#m" width="13" height="3.9" transform="translate(-4.7 -1.3)scale(.7222)"/><use xlink:href="#n" width="5" height="7" transform="matrix(.2733 -.921 -.7903 -.1259 -3.85 -45.25)"/><use xlink:href="#n" width="5" height="7" transform="rotate(182.259 -4.673 -25.193)scale(.959)"/><use xlink:href="#o" width="4.5" height="6.1" transform="matrix(.7608 -.7775 -.7056 -.4911 -13.2 -54.7)"/><use xlink:href="#p" width="5.3" height="5.9" transform="rotate(28.56 54.345 -35.9)scale(.9954)"/><use xlink:href="#q" width="22.1" height="7.8" transform="matrix(.8743 .4759 -.4759 .8743 -8 -33)"/><use xlink:href="#p" width="5.3" height="5.9" transform="rotate(28.56 43.478 -13.263)scale(.9954)"/><use xlink:href="#p" width="5.3" height="5.9" transform="rotate(28.56 46.005 2.828)scale(.9954)"/><use xlink:href="#r" width="10.1" height="12.1" transform="rotate(-26.54 -107.345 -20.28)scale(.9973)"/><use xlink:href="#s" width="13.3" height="13.3" transform="rotate(-26.54 -98.186 -3.125)scale(.9973)"/><use xlink:href="#o" width="4.5" height="6.1" transform="matrix(.7673 -.6072 .0347 -.992 5.55 -56.95)"/><use xlink:href="#n" width="5" height="7" transform="matrix(-.7254 -.4915 .7131 -.7677 5.2 -52.35)"/><use xlink:href="#n" width="5" height="7" transform="matrix(-.9595 -.2532 .3483 -.87 6 -46.7)"/><use xlink:href="#y" width="22.1" height="10" transform="matrix(-.8463 0 0 1 -1.2 -53.25)"/><use xlink:href="#u" width="14.8" height="13" transform="rotate(-36.086 -97.572 -5.892)scale(.9966)"/></g></g><g clip-path="url(#A)"><g transform="translate(233.7 97.25)"><use xlink:href="#m" width="13" height="3.9" transform="translate(-5.05 -1.4)scale(.7778)"/><use xlink:href="#n" width="5" height="7" transform="matrix(.2733 -.921 -.7903 -.1259 -4 -39.8)"/><use xlink:href="#n" width="5" height="7" transform="rotate(182.259 -4.695 -22.466)scale(.959)"/><use xlink:href="#o" width="4.5" height="6.1" transform="matrix(.7608 -.7775 -.7056 -.4911 -13.35 -49.25)"/><use xlink:href="#p" width="5.3" height="5.9" transform="rotate(28.806 41.766 -32.932)scale(.995)"/><use xlink:href="#q" width="22.1" height="7.8" transform="rotate(28.806 48.322 -29.22)scale(.995)"/><use xlink:href="#p" width="5.3" height="5.9" transform="rotate(28.806 31.355 -10.439)scale(.995)"/><use xlink:href="#p" width="5.3" height="5.9" transform="rotate(28.806 33.675 5.464)scale(.995)"/><use xlink:href="#r" width="10.1" height="12.1" transform="rotate(-29.061 -86.234 -16.38)scale(.997)"/><use xlink:href="#s" width="13.3" height="13.3" transform="rotate(-29.061 -77.641 -1.08)scale(.997)"/><use xlink:href="#o" width="4.5" height="6.1" transform="matrix(.711 -.6718 -.052 -.991 5 -51.7)"/><use xlink:href="#n" width="5" height="7" transform="matrix(-.7656 -.4261 .6431 -.8271 4.95 -47)"/><use xlink:href="#n" width="5" height="7" transform="matrix(-.9595 -.2532 .3483 -.87 5.85 -41.25)"/><use xlink:href="#y" width="22.1" height="10" transform="matrix(-.8463 0 0 1 -1.35 -47.8)"/><use xlink:href="#u" width="14.8" height="13" transform="rotate(-39.098 -80.911 -3.677)scale(.9964)"/></g></g><g clip-path="url(#B)"><g transform="translate(275.7 97.25)"><use xlink:href="#m" width="13" height="3.9" transform="translate(-5.4 -1.55)scale(.8333)"/><use xlink:href="#n" width="5" height="7" transform="matrix(.2741 -.9217 -.7904 -.1278 -4.15 -34.3)"/><use xlink:href="#n" width="5" height="7" transform="rotate(182.288 -4.745 -19.713)scale(.9592)"/><use xlink:href="#o" width="4.5" height="6.1" transform="matrix(.7622 -.7785 -.7066 -.4921 -13.4 -43.75)"/><use xlink:href="#p" width="5.3" height="5.9" transform="rotate(29.051 29.697 -30.038)scale(.9959)"/><use xlink:href="#q" width="22.1" height="7.8" transform="rotate(29.051 36.086 -26.442)scale(.9959)"/><use xlink:href="#p" width="5.3" height="5.9" transform="rotate(29.051 19.105 -7.73)scale(.9959)"/><use xlink:href="#p" width="5.3" height="5.9" transform="rotate(29.051 21.465 8.133)scale(.9959)"/><use xlink:href="#r" width="10.1" height="12.1" transform="rotate(-31.608 -68.474 -12.894)scale(.9983)"/><use xlink:href="#s" width="13.3" height="13.3" transform="rotate(-31.608 -60.117 1.397)scale(.9983)"/><use xlink:href="#o" width="4.5" height="6.1" transform="matrix(.6502 -.7327 -.1385 -.9826 4.4 -46.4)"/><use xlink:href="#n" width="5" height="7" transform="matrix(-.8001 -.3597 .5701 -.8806 4.75 -41.55)"/><use xlink:href="#n" width="5" height="7" transform="matrix(-.9601 -.2542 .3504 -.8703 5.7 -35.8)"/><use xlink:href="#y" width="22.1" height="10" transform="matrix(-.8463 0 0 1 -1.5 -42.3)"/><use xlink:href="#u" width="14.8" height="13" transform="rotate(-42.096 -66.619 -1.321)scale(.9978)"/></g></g><g clip-path="url(#C)"><g transform="translate(317.7 97.25)"><use xlink:href="#m" width="13" height="3.9" transform="translate(-5.8 -1.65)scale(.8889)"/><use xlink:href="#n" width="5" height="7" transform="matrix(.0964 -.9565 -.8004 .0213 -4.05 -28.4)"/><use xlink:href="#n" width="5" height="7" transform="rotate(191.316 -5.855 -15.526)scale(.9581)"/><use xlink:href="#o" width="4.5" height="6.1" transform="matrix(.8757 -.6446 -.617 -.598 -12.5 -36)"/><use xlink:href="#p" width="5.3" height="5.9" transform="rotate(13.787 47.752 -52.771)scale(.9962)"/><use xlink:href="#q" width="22.1" height="7.8" transform="rotate(13.787 61.33 -49.797)scale(.9962)"/><use xlink:href="#p" width="5.3" height="5.9" transform="matrix(.9675 .2374 -.2374 .9675 -.8 -8)"/><use xlink:href="#p" width="5.3" height="5.9" transform="rotate(13.787 41.375 22.903)scale(.9962)"/><use xlink:href="#r" width="10.1" height="12.1" transform="rotate(-16.28 -114.305 -10.108)scale(.9977)"/><use xlink:href="#s" width="13.3" height="13.3" transform="rotate(-16.28 -103.074 17.36)scale(.9977)"/><use xlink:href="#o" width="4.5" height="6.1" transform="matrix(.9721 -.1245 .538 -.833 3.85 -32.3)"/><use xlink:href="#n" width="5" height="7" transform="matrix(-.1306 -.8682 1.0504 0 4.8 -29.75)"/><use xlink:href="#n" width="5" height="7" transform="matrix(-.4671 -.8759 .8755 -.3365 4.4 -27)"/><use xlink:href="#y" width="22.1" height="10" transform="matrix(-.8976 0 0 1 -1.1 -34)"/><use xlink:href="#u" width="14.8" height="13" transform="rotate(-23.583 -103.605 11.366)scale(.997)"/></g></g><g clip-path="url(#D)"><g transform="translate(359.7 97.25)"><use xlink:href="#m" width="13" height="3.9" transform="translate(-6.15 -1.75)scale(.9444)"/><use xlink:href="#n" width="5" height="7" transform="matrix(-.0839 -.9577 -.7818 .1704 -4.05 -22.4)"/><use xlink:href="#n" width="5" height="7" transform="rotate(200.563 -6.404 -11.388)scale(.9572)"/><use xlink:href="#o" width="4.5" height="6.1" transform="matrix(.9678 -.4952 -.5148 -.6875 -11.7 -28.2)"/><use xlink:href="#p" width="5.3" height="5.9" transform="rotate(-1.275 -333.838 510.993)scale(.998)"/><use xlink:href="#q" width="22.1" height="7.8" transform="rotate(-1.275 -488.755 495.784)scale(.998)"/><use xlink:href="#p" width="5.3" height="5.9" transform="rotate(-1.275 -249.506 1.72)scale(.998)"/><use xlink:href="#p" width="5.3" height="5.9" transform="matrix(.9977 -.0222 .0222 .9977 6.8 -8.6)"/><use xlink:href="#r" width="10.1" height="12.1" transform="rotate(-.815 -1881.224 -45.026)scale(.9988)"/><use xlink:href="#s" width="13.3" height="13.3" transform="rotate(-.815 -1734.08 529.276)scale(.9988)"/><use xlink:href="#o" width="4.5" height="6.1" transform="matrix(.8164 .5417 .9545 -.2743 4.2 -18.45)"/><use xlink:href="#n" width="5" height="7" transform="matrix(.6566 -.5831 .5695 .8824 5.25 -18.9)"/><use xlink:href="#n" width="5" height="7" transform="matrix(.3206 -.9408 .8432 .4122 3 -19.1)"/><use xlink:href="#y" width="22.1" height="10" transform="matrix(-.9488 0 0 1 -.7 -25.75)"/><use xlink:href="#u" width="14.8" height="13" transform="rotate(-5.27 -390.835 81.105)scale(.9985)"/></g></g><g clip-path="url(#E)"><g transform="translate(401.7 97.25)"><use xlink:href="#m" width="13" height="3.9" transform="translate(-6.5 -1.85)"/><use xlink:href="#n" width="5" height="7" transform="matrix(-.2623 -.9252 -.736 .3154 -3.95 -16.5)"/><use xlink:href="#n" width="5" height="7" transform="rotate(209.85 -6.319 -7.232)scale(.9578)"/><use xlink:href="#o" width="4.5" height="6.1" transform="matrix(1.0345 -.3371 -.3982 -.7621 -10.75 -20.6)"/><use xlink:href="#F" width="7" height="7.6" transform="translate(-16.1 -96.25)"/><use xlink:href="#p" width="5.3" height="5.9" transform="rotate(-16.569 -11.098 38.887)scale(.999)"/><use xlink:href="#q" width="22.1" height="7.8" transform="rotate(-16.569 -23.828 37.21)scale(.999)"/><use xlink:href="#p" width="5.3" height="5.9" transform="rotate(-16.569 -9.215 -4.147)scale(.999)"/><use xlink:href="#p" width="5.3" height="5.9" transform="rotate(-16.569 -23.603 -28.16)scale(.999)"/><use xlink:href="#r" width="10.1" height="12.1" transform="rotate(14.306 83.15 1.503)scale(.9992)"/><use xlink:href="#s" width="13.3" height="13.3" transform="rotate(14.306 78.9 -33.98)scale(.9992)"/><use xlink:href="#o" width="4.5" height="6.1" transform="matrix(.2621 .9465 .9023 .4191 5.6 -3.8)"/><use xlink:href="#n" width="5" height="7" transform="matrix(.8487 .2352 -.4317 .9606 6.65 -8.45)"/><use xlink:href="#n" width="5" height="7" transform="matrix(.9097 -.4049 .2733 .9 2.2 -11.8)"/><use xlink:href="#y" width="22.1" height="10" transform="matrix(-1 0 0 1 -.3 -17.45)"/><use xlink:href="#u" width="14.8" height="13" transform="rotate(13.071 128.201 -33.037)scale(.9993)"/></g></g><g clip-path="url(#G)"><g transform="translate(443.7 97.25)"><use xlink:href="#m" width="13" height="3.9" transform="translate(-5.95 -1.7)scale(.9167)"/><use xlink:href="#n" width="5" height="7" transform="matrix(-.2613 -.9246 -.7358 .3135 -3.65 -18.5)"/><use xlink:href="#n" width="5" height="7" transform="rotate(209.82 -6.433 -8.273)scale(.9564)"/><use xlink:href="#o" width="4.5" height="6.1" transform="matrix(1.0336 -.3364 -.3973 -.7612 -10.5 -22.6)"/><use xlink:href="#F" width="7" height="7.6" transform="translate(-16.05 -88.35)"/><use xlink:href="#p" width="5.3" height="5.9" transform="rotate(-16.53 -16.764 37.983)scale(.9982)"/><use xlink:href="#q" width="22.1" height="7.8" transform="rotate(-16.53 -29.55 36.477)scale(.9982)"/><use xlink:href="#p" width="5.3" height="5.9" transform="matrix(.9569 -.284 .284 .9569 .85 -4.5)"/><use xlink:href="#p" width="5.3" height="5.9" transform="matrix(.9569 -.284 .284 .9569 7.1 -9.55)"/><use xlink:href="#r" width="10.1" height="12.1" transform="rotate(16.53 78.232 -.996)scale(.9982)"/><use xlink:href="#s" width="13.3" height="13.3" transform="rotate(16.53 75.38 -31.51)scale(.9982)"/><use xlink:href="#o" width="4.5" height="6.1" transform="matrix(.5176 .8328 .9839 .1434 6.15 -7.2)"/><use xlink:href="#n" width="5" height="7" transform="matrix(.8801 .0116 -.1703 1.0382 6.5 -11.25)"/><use xlink:href="#n" width="5" height="7" transform="matrix(.8688 -.4831 .3524 .8707 2.15 -14.35)"/><use xlink:href="#y" width="22.1" height="10" transform="matrix(-.9791 0 0 1 -.8 -19.75)"/><use xlink:href="#u" width="14.8" height="13" transform="rotate(13.029 136.78 -33.584)scale(.9985)"/></g></g><g clip-path="url(#H)"><g transform="translate(485.7 97.25)"><use xlink:href="#m" width="13" height="3.9" transform="translate(-5.4 -1.55)scale(.8333)"/><use xlink:href="#n" width="5" height="7" transform="matrix(-.2613 -.9246 -.7358 .3135 -3.4 -20.55)"/><use xlink:href="#n" width="5" height="7" transform="rotate(209.82 -6.58 -9.332)scale(.9564)"/><use xlink:href="#o" width="4.5" height="6.1" transform="matrix(1.0336 -.3364 -.3973 -.7612 -10.25 -24.65)"/><use xlink:href="#F" width="7" height="7.6" transform="translate(-16 -80.5)"/><use xlink:href="#p" width="5.3" height="5.9" transform="rotate(-16.53 -22.469 37.33)scale(.9982)"/><use xlink:href="#q" width="22.1" height="7.8" transform="rotate(-16.53 -35.254 35.824)scale(.9982)"/><use xlink:href="#p" width="5.3" height="5.9" transform="matrix(.9569 -.284 .284 .9569 .8 -6.15)"/><use xlink:href="#p" width="5.3" height="5.9" transform="matrix(.9569 -.284 .284 .9569 7.05 -11.2)"/><use xlink:href="#r" width="10.1" height="12.1" transform="rotate(18.787 74.616 -3.184)scale(.998)"/><use xlink:href="#s" width="13.3" height="13.3" transform="rotate(18.787 72.357 -29.98)scale(.998)"/><use xlink:href="#o" width="4.5" height="6.1" transform="matrix(.7355 .6483 .9845 -.1389 6.75 -10.5)"/><use xlink:href="#n" width="5" height="7" transform="matrix(.8537 -.2098 .0927 1.0477 6.45 -14)"/><use xlink:href="#n" width="5" height="7" transform="matrix(.8208 -.5602 .4274 .836 2.1 -16.85)"/><use xlink:href="#y" width="22.1" height="10" transform="matrix(-.9582 0 0 1 -1.3 -22)"/><use xlink:href="#u" width="14.8" height="13" transform="rotate(13.029 144.712 -34.046)scale(.9985)"/></g></g><g clip-path="url(#I)"><g transform="translate(527.7 97.25)"><use xlink:href="#m" width="13" height="3.9" transform="matrix(.75 0 0 .75 -4.9 -1.3)"/><use xlink:href="#n" width="5" height="7" transform="matrix(-.2613 -.9246 -.7358 .3135 -3.1 -22.55)"/><use xlink:href="#n" width="5" height="7" transform="rotate(209.82 -6.697 -10.371)scale(.9564)"/><use xlink:href="#o" width="4.5" height="6.1" transform="matrix(1.0336 -.3364 -.3973 -.7612 -9.95 -26.65)"/><use xlink:href="#F" width="7" height="7.6" transform="translate(-15.95 -72.6)"/><use xlink:href="#p" width="5.3" height="5.9" transform="rotate(-16.53 -28.148 36.505)scale(.9982)"/><use xlink:href="#q" width="22.1" height="7.8" transform="rotate(-16.53 -40.933 35)scale(.9982)"/><use xlink:href="#p" width="5.3" height="5.9" transform="matrix(.9569 -.284 .284 .9569 .8 -7.8)"/><use xlink:href="#p" width="5.3" height="5.9" transform="rotate(-16.53 -40.705 -30.691)scale(.9982)"/><use xlink:href="#r" width="10.1" height="12.1" transform="rotate(21.045 71.537 -4.655)scale(.9978)"/><use xlink:href="#s" width="13.3" height="13.3" transform="rotate(21.045 69.989 -28.734)scale(.9978)"/><use xlink:href="#o" width="4.5" height="6.1" transform="matrix(.8899 .412 .9035 -.4129 7.55 -13.6)"/><use xlink:href="#n" width="5" height="7" transform="matrix(.7711 -.42 .3561 .9882 6.35 -16.75)"/><use xlink:href="#n" width="5" height="7" transform="matrix(.768 -.6301 .5017 .7931 1.95 -19.4)"/><use xlink:href="#y" width="22.1" height="10" transform="matrix(-.9374 0 0 1 -1.8 -24.3)"/><use xlink:href="#u" width="14.8" height="13" transform="rotate(13.029 152.863 -34.533)scale(.9985)"/></g></g><g clip-path="url(#J)"><g transform="translate(569.7 97.25)"><use xlink:href="#m" width="13" height="3.9" transform="translate(-4.35 -1.2)scale(.6667)"/><use xlink:href="#n" width="5" height="7" transform="matrix(-.2613 -.9246 -.7358 .3135 -2.85 -24.6)"/><use xlink:href="#n" width="5" height="7" transform="rotate(209.82 -6.845 -11.43)scale(.9564)"/><use xlink:href="#o" width="4.5" height="6.1" transform="matrix(1.0336 -.3364 -.3973 -.7612 -9.7 -28.7)"/><use xlink:href="#F" width="7" height="7.6" transform="translate(-15.9 -64.75)"/><use xlink:href="#p" width="5.3" height="5.9" transform="rotate(-16.53 -33.852 35.852)scale(.9982)"/><use xlink:href="#q" width="22.1" height="7.8" transform="rotate(-16.53 -46.638 34.346)scale(.9982)"/><use xlink:href="#p" width="5.3" height="5.9" transform="matrix(.9569 -.284 .284 .9569 .75 -9.45)"/><use xlink:href="#p" width="5.3" height="5.9" transform="matrix(.9569 -.284 .284 .9569 7 -14.5)"/><use xlink:href="#r" width="10.1" height="12.1" transform="rotate(23.301 68.988 -6.261)scale(.9976)"/><use xlink:href="#s" width="13.3" height="13.3" transform="rotate(23.301 68.155 -28.083)scale(.9976)"/><use xlink:href="#o" width="4.5" height="6.1" transform="matrix(.971 .1418 .7481 -.6529 8.45 -16.6)"/><use xlink:href="#n" width="5" height="7" transform="matrix(.6378 -.6025 .5958 .8638 6.45 -19.6)"/><use xlink:href="#n" width="5" height="7" transform="matrix(.7071 -.6974 .5694 .7457 1.85 -21.95)"/><use xlink:href="#y" width="22.1" height="10" transform="matrix(-.9165 0 0 1 -2.35 -26.6)"/><use xlink:href="#u" width="14.8" height="13" transform="rotate(13.029 160.989 -35.24)scale(.9985)"/></g></g><g clip-path="url(#K)"><g transform="translate(611.7 97.25)"><use xlink:href="#m" width="13" height="3.9" transform="translate(-3.8 -1.05)scale(.5833)"/><use xlink:href="#n" width="5" height="7" transform="matrix(-.2613 -.9246 -.7358 .3135 -2.55 -26.6)"/><use xlink:href="#n" width="5" height="7" transform="rotate(209.82 -6.961 -12.47)scale(.9564)"/><use xlink:href="#o" width="4.5" height="6.1" transform="matrix(1.0336 -.3364 -.3973 -.7612 -9.4 -30.7)"/><use xlink:href="#F" width="7" height="7.6" transform="translate(-15.85 -56.9)"/><use xlink:href="#p" width="5.3" height="5.9" transform="rotate(-16.53 -39.532 35.027)scale(.9982)"/><use xlink:href="#q" width="22.1" height="7.8" transform="rotate(-16.53 -52.317 33.521)scale(.9982)"/><use xlink:href="#p" width="5.3" height="5.9" transform="matrix(.9569 -.284 .284 .9569 .75 -11.1)"/><use xlink:href="#p" width="5.3" height="5.9" transform="matrix(.9569 -.284 .284 .9569 7 -16.15)"/><use xlink:href="#r" width="10.1" height="12.1" transform="rotate(25.56 66.847 -7.746)scale(.9973)"/><use xlink:href="#s" width="13.3" height="13.3" transform="rotate(25.56 66.43 -27.468)scale(.9973)"/><use xlink:href="#o" width="4.5" height="6.1" transform="matrix(.9717 -.1368 .5311 -.8391 9.55 -19.65)"/><use xlink:href="#n" width="5" height="7" transform="matrix(.4627 -.745 .7961 .6826 6.55 -22.4)"/><use xlink:href="#n" width="5" height="7" transform="matrix(.6428 -.7568 .6349 .6903 1.8 -24.55)"/><use xlink:href="#y" width="22.1" height="10" transform="matrix(-.8956 0 0 1 -2.8 -28.85)"/><use xlink:href="#u" width="14.8" height="13" transform="rotate(13.029 168.92 -35.701)scale(.9985)"/></g></g><g clip-path="url(#L)"><g transform="translate(653.7 97.25)"><use xlink:href="#m" width="13" height="3.9" transform="matrix(.5 0 0 .5 -3.25 -.9)"/><use xlink:href="#n" width="5" height="7" transform="matrix(-.2623 -.9252 -.736 .3154 -2.3 -28.65)"/><use xlink:href="#n" width="5" height="7" transform="rotate(209.85 -7.113 -13.527)scale(.9578)"/><use xlink:href="#o" width="4.5" height="6.1" transform="matrix(1.0345 -.3371 -.3982 -.7621 -9.1 -32.75)"/><use xlink:href="#F" width="7" height="7.6" transform="translate(-15.8 -49)"/><use xlink:href="#p" width="5.3" height="5.9" transform="rotate(-16.569 -45.17 34.453)scale(.999)"/><use xlink:href="#q" width="22.1" height="7.8" transform="rotate(-16.569 -57.9 32.774)scale(.999)"/><use xlink:href="#p" width="5.3" height="5.9" transform="rotate(-16.569 -43.287 -8.582)scale(.999)"/><use xlink:href="#p" width="5.3" height="5.9" transform="rotate(-16.569 -57.675 -32.594)scale(.999)"/><use xlink:href="#r" width="10.1" height="12.1" transform="rotate(27.853 64.94 -9.147)scale(.9985)"/><use xlink:href="#s" width="13.3" height="13.3" transform="rotate(27.853 64.798 -27.412)scale(.9985)"/><use xlink:href="#o" width="4.5" height="6.1" transform="matrix(.8929 -.4078 .2715 -.9566 10.8 -22.7)"/><use xlink:href="#n" width="5" height="7" transform="matrix(.2597 -.8385 .9442 .4589 6.75 -25.2)"/><use xlink:href="#n" width="5" height="7" transform="matrix(.5728 -.8127 .6949 .6319 1.75 -27.05)"/><use xlink:href="#y" width="22.1" height="10" transform="matrix(-.8747 0 0 1 -3.35 -31.15)"/><use xlink:href="#u" width="14.8" height="13" transform="rotate(13.071 176.484 -36.137)scale(.9993)"/></g></g><g clip-path="url(#M)"><g transform="translate(695.7 97.25)"><use xlink:href="#m" width="13" height="3.9" transform="translate(-3.8 -1.05)scale(.5833)"/><use xlink:href="#n" width="5" height="7" transform="matrix(-.3336 -.9011 -.7075 .3731 -2.5 -26.15)"/><use xlink:href="#n" width="5" height="7" transform="rotate(205.285 -6.18 -12.215)scale(.9569)"/><use xlink:href="#o" width="4.5" height="6.1" transform="matrix(1.0038 -.4171 -.4563 -.7275 -9.4 -29.65)"/><use xlink:href="#F" width="7" height="7.6" transform="translate(-15.8 -49)"/><use xlink:href="#p" width="5.3" height="5.9" transform="rotate(-13.772 -48.96 43.656)scale(.9985)"/><use xlink:href="#q" width="22.1" height="7.8" transform="rotate(-13.772 -63.657 41.88)scale(.9985)"/><use xlink:href="#p" width="5.3" height="5.9" transform="matrix(.9698 -.2377 .2377 .9698 .5 -11)"/><use xlink:href="#p" width="5.3" height="5.9" transform="rotate(-13.772 -61.528 -36.625)scale(.9985)"/><use xlink:href="#r" width="10.1" height="12.1" transform="rotate(23.082 74.175 -7.112)scale(.9976)"/><use xlink:href="#s" width="13.3" height="13.3" transform="rotate(23.082 73.253 -29.115)scale(.9976)"/><use xlink:href="#o" width="4.5" height="6.1" transform="matrix(.9509 -.2421 .4362 -.8926 9.6 -18.85)"/><use xlink:href="#n" width="5" height="7" transform="matrix(.4628 -.745 .7961 .6826 6.8 -21.95)"/><use xlink:href="#n" width="5" height="7" transform="matrix(.6428 -.7568 .6349 .6903 2.1 -24.1)"/><use xlink:href="#y" width="22.1" height="10" transform="matrix(-.8956 0 0 1 -2.8 -28.85)"/><use xlink:href="#u" width="14.8" height="13" transform="rotate(10.791 201.989 -44.18)scale(.9988)"/></g></g><g clip-path="url(#N)"><g transform="translate(737.7 97.25)"><use xlink:href="#m" width="13" height="3.9" transform="translate(-4.35 -1.2)scale(.6667)"/><use xlink:href="#n" width="5" height="7" transform="matrix(-.4066 -.8706 -.6758 .4279 -2.55 -23.7)"/><use xlink:href="#n" width="5" height="7" transform="rotate(200.563 -5.4 -10.976)scale(.9572)"/><use xlink:href="#o" width="4.5" height="6.1" transform="matrix(.9678 -.4952 -.5148 -.6875 -9.8 -26.6)"/><use xlink:href="#F" width="7" height="7.6" transform="translate(-15.8 -49)"/><use xlink:href="#p" width="5.3" height="5.9" transform="rotate(-11.019 -53.667 57.348)scale(.9988)"/><use xlink:href="#q" width="22.1" height="7.8" transform="rotate(-11.019 -72.204 54.252)scale(.9988)"/><use xlink:href="#p" width="5.3" height="5.9" transform="matrix(.9804 -.1909 .1909 .9804 .45 -9.2)"/><use xlink:href="#p" width="5.3" height="5.9" transform="rotate(-11.019 -67.544 -42.878)scale(.9988)"/><use xlink:href="#r" width="10.1" height="12.1" transform="rotate(18.538 86.772 -5.04)scale(.998)"/><use xlink:href="#s" width="13.3" height="13.3" transform="rotate(18.538 84.464 -31.713)scale(.998)"/><use xlink:href="#o" width="4.5" height="6.1" transform="matrix(.9796 -.0691 .5858 -.8025 8.4 -15.1)"/><use xlink:href="#n" width="5" height="7" transform="matrix(.6378 -.6024 .5958 .8638 6.85 -18.75)"/><use xlink:href="#n" width="5" height="7" transform="matrix(.7071 -.6974 .5694 .7457 2.5 -21.2)"/><use xlink:href="#y" width="22.1" height="10" transform="matrix(-.9165 0 0 1 -2.35 -26.6)"/><use xlink:href="#u" width="14.8" height="13" transform="rotate(8.56 240.622 -56.975)scale(.999)"/></g></g><g clip-path="url(#O)"><g transform="translate(779.7 97.25)"><use xlink:href="#m" width="13" height="3.9" transform="matrix(.75 0 0 .75 -4.9 -1.35)"/><use xlink:href="#n" width="5" height="7" transform="matrix(-.4743 -.8358 -.64 .4801 -2.6 -21.1)"/><use xlink:href="#n" width="5" height="7" transform="rotate(196.033 -4.758 -9.707)scale(.9577)"/><use xlink:href="#o" width="4.5" height="6.1" transform="matrix(.9238 -.5733 -.5677 -.6448 -10.05 -23.5)"/><use xlink:href="#F" width="7" height="7.6" transform="rotate(27.563 64.204 -36.927)scale(.9986)"/><use xlink:href="#p" width="5.3" height="5.9" transform="rotate(-8.264 -61.716 79.03)scale(.999)"/><use xlink:href="#q" width="22.1" height="7.8" transform="rotate(-8.264 -86.111 74.832)scale(.999)"/><use xlink:href="#p" width="5.3" height="5.9" transform="rotate(-8.264 -51.784 -5.48)scale(.999)"/><use xlink:href="#p" width="5.3" height="5.9" transform="rotate(-8.264 -77.107 -54.62)scale(.999)"/><use xlink:href="#r" width="10.1" height="12.1" transform="rotate(13.808 108.325 -1.594)scale(.9985)"/><use xlink:href="#s" width="13.3" height="13.3" transform="rotate(13.808 104 -37.313)scale(.9985)"/><use xlink:href="#o" width="4.5" height="6.1" transform="matrix(.9769 .103 .7197 -.6854 7.4 -11.25)"/><use xlink:href="#n" width="5" height="7" transform="matrix(.7711 -.42 .3561 .9882 6.95 -15.55)"/><use xlink:href="#n" width="5" height="7" transform="matrix(.768 -.6301 .5017 .7931 2.85 -18.3)"/><use xlink:href="#y" width="22.1" height="10" transform="matrix(-.9374 0 0 1 -1.8 -24.3)"/><use xlink:href="#u" width="14.8" height="13" transform="rotate(6.51 297.642 -77.783)scale(.9992)"/></g></g><g clip-path="url(#P)"><g transform="translate(821.7 97.25)"><use xlink:href="#m" width="13" height="3.9" transform="translate(-5.4 -1.55)scale(.8333)"/><use xlink:href="#n" width="5" height="7" transform="matrix(-.5389 -.7957 -.5983 .5313 -2.7 -18.7)"/><use xlink:href="#n" width="5" height="7" transform="rotate(191.316 -4.194 -8.446)scale(.9581)"/><use xlink:href="#o" width="4.5" height="6.1" transform="matrix(.8757 -.6446 -.617 -.598 -10.3 -20.5)"/><use xlink:href="#F" width="7" height="7.6" transform="rotate(27.557 64.938 -37.972)scale(.9973)"/><use xlink:href="#p" width="5.3" height="5.9" transform="rotate(-5.506 -78.337 122.853)scale(.9994)"/><use xlink:href="#q" width="22.1" height="7.8" transform="rotate(-5.506 -114.427 114.864)scale(.9994)"/><use xlink:href="#p" width="5.3" height="5.9" transform="rotate(-5.506 -59.71 -4.435)scale(.9994)"/><use xlink:href="#p" width="5.3" height="5.9" transform="matrix(.9948 -.0959 .0959 .9948 7.1 -9.5)"/><use xlink:href="#r" width="10.1" height="12.1" transform="rotate(9.263 149.138 4.38)scale(.999)"/><use xlink:href="#s" width="13.3" height="13.3" transform="rotate(9.263 141.06 -49.323)scale(.999)"/><use xlink:href="#o" width="4.5" height="6.1" transform="matrix(.9428 .2751 .8307 -.5463 6.35 -7.5)"/><use xlink:href="#n" width="5" height="7" transform="matrix(.8537 -.2098 .0927 1.0477 7.15 -12.45)"/><use xlink:href="#n" width="5" height="7" transform="matrix(.8208 -.5602 .4274 .8359 3.2 -15.55)"/><use xlink:href="#y" width="22.1" height="10" transform="matrix(-.9582 0 0 1 -1.3 -22)"/><use xlink:href="#u" width="14.8" height="13" transform="rotate(4.28 424.856 -121.721)scale(.9995)"/></g></g><g clip-path="url(#Q)"><g transform="translate(863.7 97.25)"><use xlink:href="#m" width="13" height="3.9" transform="translate(-5.95 -1.7)scale(.9167)"/><use xlink:href="#n" width="5" height="7" transform="matrix(-.6027 -.7487 -.5546 .577 -2.85 -16.2)"/><use xlink:href="#n" width="5" height="7" transform="rotate(186.788 -3.762 -7.178)scale(.9585)"/><use xlink:href="#o" width="4.5" height="6.1" transform="matrix(.8197 -.7147 -.6644 -.5452 -10.6 -17.3)"/><use xlink:href="#F" width="7" height="7.6" transform="rotate(27.557 65.86 -39.063)scale(.9973)"/><use xlink:href="#p" width="5.3" height="5.9" transform="matrix(.9985 -.048 .048 .9985 -12.2 -5.75)"/><use xlink:href="#q" width="22.1" height="7.8" transform="rotate(-2.752 -198.23 232.656)scale(.9997)"/><use xlink:href="#p" width="5.3" height="5.9" transform="matrix(.9985 -.048 .048 .9985 0 -3.95)"/><use xlink:href="#p" width="5.3" height="5.9" transform="matrix(.9985 -.048 .048 .9985 7.2 -7.45)"/><use xlink:href="#r" width="10.1" height="12.1" transform="rotate(4.54 280.047 20.488)scale(.9994)"/><use xlink:href="#s" width="13.3" height="13.3" transform="rotate(4.54 256.144 -88.49)scale(.9994)"/><use xlink:href="#o" width="4.5" height="6.1" transform="matrix(.8801 .4357 .9154 -.3898 5.35 -3.7)"/><use xlink:href="#n" width="5" height="7" transform="matrix(.8801 .0116 -.1703 1.0382 7.5 -9.3)"/><use xlink:href="#n" width="5" height="7" transform="matrix(.8688 -.4831 .3524 .8707 3.65 -12.7)"/><use xlink:href="#y" width="22.1" height="10" transform="matrix(-.9791 0 0 1 -.8 -19.75)"/><use xlink:href="#u" width="14.8" height="13" transform="rotate(2.046 828.324 -268.23)scale(.9997)"/></g></g><g clip-path="url(#R)"><g transform="translate(905.7 97.25)"><use xlink:href="#m" width="13" height="3.9" transform="translate(-6.5 -1.85)"/><use xlink:href="#n" width="5" height="7" transform="matrix(-.6615 -.6998 -.5072 .621 -2.9 -13.8)"/><use xlink:href="#n" width="5" height="7" transform="rotate(182.288 -3.495 -5.933)scale(.9592)"/><use xlink:href="#o" width="4.5" height="6.1" transform="matrix(.7622 -.7785 -.7066 -.4921 -10.85 -14.3)"/><use xlink:href="#F" width="7" height="7.6" transform="rotate(27.557 66.704 -40.027)scale(.9973)"/><use xlink:href="#p" width="5.3" height="5.9" transform="translate(-12.3 -4.55)"/><use xlink:href="#q" width="22.1" height="7.8" transform="translate(-11.3 -8.1)"/><use xlink:href="#p" width="5.3" height="5.9" transform="translate(-.1 -2.2)"/><use xlink:href="#p" width="5.3" height="5.9" transform="translate(7.35 -5.35)"/><use xlink:href="#r" width="10.1" height="12.1" transform="translate(2.45 -20.1)"/><use xlink:href="#s" width="13.3" height="13.3" transform="translate(-6.25 -17.9)"/><use xlink:href="#o" width="4.5" height="6.1" transform="matrix(.7891 .5873 .9711 -.2233 4.5 .05)"/><use xlink:href="#n" width="5" height="7" transform="matrix(.8487 .2352 -.4317 .9606 7.85 -6.15)"/><use xlink:href="#n" width="5" height="7" transform="matrix(.9097 -.4049 .2733 .9 4.05 -9.75)"/><use xlink:href="#y" width="22.1" height="10" transform="matrix(-1 0 0 1 -.3 -17.45)"/><use xlink:href="#u" width="14.8" height="13" transform="translate(-10.1 -27.55)"/></g></g><g clip-path="url(#S)"><g transform="translate(947.7 97.25)"><use xlink:href="#m" width="13" height="3.9" transform="translate(-6.5 -1.85)"/><use xlink:href="#n" width="5" height="7" transform="matrix(-.6615 -.6998 -.5072 .621 -2.9 -13.8)"/><use xlink:href="#n" width="5" height="7" transform="rotate(182.288 -3.495 -5.933)scale(.9592)"/><use xlink:href="#o" width="4.5" height="6.1" transform="matrix(.7622 -.7785 -.7066 -.4921 -10.85 -14.3)"/><use xlink:href="#F" width="7" height="7.6" transform="rotate(27.557 67.625 -41.117)scale(.9973)"/><use xlink:href="#p" width="5.3" height="5.9" transform="translate(-12.3 -4.55)"/><use xlink:href="#q" width="22.1" height="7.8" transform="translate(-11.3 -8.1)"/><use xlink:href="#p" width="5.3" height="5.9" transform="translate(-.1 -2.2)"/><use xlink:href="#p" width="5.3" height="5.9" transform="translate(7.35 -5.35)"/><use xlink:href="#r" width="10.1" height="12.1" transform="translate(2.45 -20.1)"/><use xlink:href="#s" width="13.3" height="13.3" transform="translate(-6.25 -17.9)"/><use xlink:href="#o" width="4.5" height="6.1" transform="matrix(.7891 .5873 .9711 -.2233 4.5 .05)"/><use xlink:href="#n" width="5" height="7" transform="matrix(.8487 .2352 -.4317 .9606 7.85 -6.15)"/><use xlink:href="#n" width="5" height="7" transform="matrix(.9097 -.4049 .2733 .9 4.05 -9.75)"/><use xlink:href="#y" width="22.1" height="10" transform="matrix(-1 0 0 1 -.3 -17.45)"/><use xlink:href="#u" width="14.8" height="13" transform="translate(-10.1 -27.55)"/></g></g><g clip-path="url(#T)"><g transform="translate(989.7 97.25)"><use xlink:href="#m" width="13" height="3.9" transform="translate(-6.5 -1.85)"/><use xlink:href="#n" width="5" height="7" transform="matrix(-.6615 -.6998 -.5072 .621 -2.9 -13.8)"/><use xlink:href="#n" width="5" height="7" transform="rotate(182.288 -3.495 -5.933)scale(.9592)"/><use xlink:href="#o" width="4.5" height="6.1" transform="matrix(.7622 -.7785 -.7066 -.4921 -10.85 -14.3)"/><use xlink:href="#F" width="7" height="7.6" transform="rotate(27.557 68.445 -42.183)scale(.9973)"/><use xlink:href="#p" width="5.3" height="5.9" transform="translate(-12.3 -4.55)"/><use xlink:href="#q" width="22.1" height="7.8" transform="translate(-11.3 -8.1)"/><use xlink:href="#p" width="5.3" height="5.9" transform="translate(-.1 -2.2)"/><use xlink:href="#p" width="5.3" height="5.9" transform="translate(7.35 -5.35)"/><use xlink:href="#r" width="10.1" height="12.1" transform="translate(2.45 -20.1)"/><use xlink:href="#s" width="13.3" height="13.3" transform="translate(-6.25 -17.9)"/><use xlink:href="#o" width="4.5" height="6.1" transform="matrix(.7891 .5873 .9711 -.2233 4.5 .05)"/><use xlink:href="#n" width="5" height="7" transform="matrix(.8487 .2352 -.4317 .9606 7.85 -6.15)"/><use xlink:href="#n" width="5" height="7" transform="matrix(.9097 -.4049 .2733 .9 4.05 -9.75)"/><use xlink:href="#y" width="22.1" height="10" transform="matrix(-1 0 0 1 -.3 -17.45)"/><use xlink:href="#u" width="14.8" height="13" transform="translate(-10.1 -27.55)"/></g></g><g clip-path="url(#U)"><g transform="translate(1031.7 97.25)"><use xlink:href="#m" width="13" height="3.9" transform="translate(-6.5 -1.85)"/><use xlink:href="#n" width="5" height="7" transform="matrix(-.6615 -.6998 -.5072 .621 -2.9 -13.8)"/><use xlink:href="#n" width="5" height="7" transform="rotate(182.288 -3.495 -5.933)scale(.9592)"/><use xlink:href="#o" width="4.5" height="6.1" transform="matrix(.7622 -.7785 -.7066 -.4921 -10.85 -14.3)"/><use xlink:href="#F" width="7" height="7.6" transform="rotate(27.563 69.45 -43.292)scale(.9986)"/><use xlink:href="#p" width="5.3" height="5.9" transform="translate(-12.3 -4.55)"/><use xlink:href="#q" width="22.1" height="7.8" transform="translate(-11.3 -8.1)"/><use xlink:href="#p" width="5.3" height="5.9" transform="translate(-.1 -2.2)"/><use xlink:href="#p" width="5.3" height="5.9" transform="translate(7.35 -5.35)"/><use xlink:href="#r" width="10.1" height="12.1" transform="translate(2.45 -20.1)"/><use xlink:href="#s" width="13.3" height="13.3" transform="translate(-6.25 -17.9)"/><use xlink:href="#o" width="4.5" height="6.1" transform="matrix(.7891 .5873 .9711 -.2233 4.5 .05)"/><use xlink:href="#n" width="5" height="7" transform="matrix(.8487 .2352 -.4317 .9606 7.85 -6.15)"/><use xlink:href="#n" width="5" height="7" transform="matrix(.9097 -.4049 .2733 .9 4.05 -9.75)"/><use xlink:href="#y" width="22.1" height="10" transform="matrix(-1 0 0 1 -.3 -17.45)"/><use xlink:href="#u" width="14.8" height="13" transform="translate(-10.1 -27.55)"/></g></g><g clip-path="url(#V)"><g transform="translate(1073.7 97.25)"><use xlink:href="#m" width="13" height="3.9" transform="translate(-6.5 -1.85)"/><use xlink:href="#n" width="5" height="7" transform="matrix(-.6615 -.6998 -.5072 .621 -2.9 -13.8)"/><use xlink:href="#n" width="5" height="7" transform="rotate(182.288 -3.495 -5.933)scale(.9592)"/><use xlink:href="#o" width="4.5" height="6.1" transform="matrix(.7622 -.7785 -.7066 -.4921 -10.85 -14.3)"/><use xlink:href="#F" width="7" height="7.6" transform="rotate(22.836 80.278 -47.778)scale(.9977)"/><use xlink:href="#p" width="5.3" height="5.9" transform="translate(-12.3 -4.55)"/><use xlink:href="#q" width="22.1" height="7.8" transform="translate(-11.3 -8.1)"/><use xlink:href="#p" width="5.3" height="5.9" transform="translate(-.1 -2.2)"/><use xlink:href="#p" width="5.3" height="5.9" transform="translate(7.35 -5.35)"/><use xlink:href="#r" width="10.1" height="12.1" transform="translate(2.45 -20.1)"/><use xlink:href="#s" width="13.3" height="13.3" transform="translate(-6.25 -17.9)"/><use xlink:href="#o" width="4.5" height="6.1" transform="matrix(.7891 .5873 .9711 -.2233 4.5 .05)"/><use xlink:href="#n" width="5" height="7" transform="matrix(.8487 .2352 -.4317 .9606 7.85 -6.15)"/><use xlink:href="#n" width="5" height="7" transform="matrix(.9097 -.4049 .2733 .9 4.05 -9.75)"/><use xlink:href="#y" width="22.1" height="10" transform="matrix(-1 0 0 1 -.3 -17.45)"/><use xlink:href="#u" width="14.8" height="13" transform="translate(-10.1 -27.55)"/></g></g><g clip-path="url(#W)"><g transform="translate(1115.7 97.25)"><use xlink:href="#m" width="13" height="3.9" transform="translate(-6.5 -1.85)"/><use xlink:href="#n" width="5" height="7" transform="matrix(-.6615 -.6998 -.5072 .621 -2.9 -13.8)"/><use xlink:href="#n" width="5" height="7" transform="rotate(182.288 -3.495 -5.933)scale(.9592)"/><use xlink:href="#o" width="4.5" height="6.1" transform="matrix(.7622 -.7785 -.7066 -.4921 -10.85 -14.3)"/><use xlink:href="#F" width="7" height="7.6" transform="rotate(18.3 95.356 -54.531)scale(.998)"/><use xlink:href="#p" width="5.3" height="5.9" transform="translate(-12.3 -4.55)"/><use xlink:href="#q" width="22.1" height="7.8" transform="translate(-11.3 -8.1)"/><use xlink:href="#p" width="5.3" height="5.9" transform="translate(-.1 -2.2)"/><use xlink:href="#p" width="5.3" height="5.9" transform="translate(7.35 -5.35)"/><use xlink:href="#r" width="10.1" height="12.1" transform="translate(2.45 -20.1)"/><use xlink:href="#s" width="13.3" height="13.3" transform="translate(-6.25 -17.9)"/><use xlink:href="#o" width="4.5" height="6.1" transform="matrix(.7891 .5873 .9711 -.2233 4.5 .05)"/><use xlink:href="#n" width="5" height="7" transform="matrix(.8487 .2352 -.4317 .9606 7.85 -6.15)"/><use xlink:href="#n" width="5" height="7" transform="matrix(.9097 -.4049 .2733 .9 4.05 -9.75)"/><use xlink:href="#y" width="22.1" height="10" transform="matrix(-1 0 0 1 -.3 -17.45)"/><use xlink:href="#u" width="14.8" height="13" transform="translate(-10.1 -27.55)"/></g></g><g clip-path="url(#X)"><g transform="translate(1157.7 97.25)"><use xlink:href="#m" width="13" height="3.9" transform="translate(-6.5 -1.85)"/><use xlink:href="#n" width="5" height="7" transform="matrix(-.6615 -.6998 -.5072 .621 -2.9 -13.8)"/><use xlink:href="#n" width="5" height="7" transform="rotate(182.288 -3.495 -5.933)scale(.9592)"/><use xlink:href="#o" width="4.5" height="6.1" transform="matrix(.7622 -.7785 -.7066 -.4921 -10.85 -14.3)"/><use xlink:href="#F" width="7" height="7.6" transform="rotate(13.765 120.351 -66.641)scale(.9986)"/><use xlink:href="#p" width="5.3" height="5.9" transform="translate(-12.3 -4.55)"/><use xlink:href="#q" width="22.1" height="7.8" transform="translate(-11.3 -8.1)"/><use xlink:href="#p" width="5.3" height="5.9" transform="translate(-.1 -2.2)"/><use xlink:href="#p" width="5.3" height="5.9" transform="translate(7.35 -5.35)"/><use xlink:href="#r" width="10.1" height="12.1" transform="translate(2.45 -20.1)"/><use xlink:href="#s" width="13.3" height="13.3" transform="translate(-6.25 -17.9)"/><use xlink:href="#o" width="4.5" height="6.1" transform="matrix(.7891 .5873 .9711 -.2233 4.5 .05)"/><use xlink:href="#n" width="5" height="7" transform="matrix(.8487 .2352 -.4317 .9606 7.85 -6.15)"/><use xlink:href="#n" width="5" height="7" transform="matrix(.9097 -.4049 .2733 .9 4.05 -9.75)"/><use xlink:href="#y" width="22.1" height="10" transform="matrix(-1 0 0 1 -.3 -17.45)"/><use xlink:href="#u" width="14.8" height="13" transform="translate(-10.1 -27.55)"/></g></g><g clip-path="url(#Y)"><g transform="translate(1199.7 97.25)"><use xlink:href="#m" width="13" height="3.9" transform="translate(-6.5 -1.85)"/><use xlink:href="#n" width="5" height="7" transform="matrix(-.6615 -.6998 -.5072 .621 -2.9 -13.8)"/><use xlink:href="#n" width="5" height="7" transform="rotate(182.288 -3.495 -5.933)scale(.9592)"/><use xlink:href="#o" width="4.5" height="6.1" transform="matrix(.7622 -.7785 -.7066 -.4921 -10.85 -14.3)"/><use xlink:href="#F" width="7" height="7.6" transform="rotate(9.053 172.8 -93.12)scale(.999)"/><use xlink:href="#p" width="5.3" height="5.9" transform="translate(-12.3 -4.55)"/><use xlink:href="#q" width="22.1" height="7.8" transform="translate(-11.3 -8.1)"/><use xlink:href="#p" width="5.3" height="5.9" transform="translate(-.1 -2.2)"/><use xlink:href="#p" width="5.3" height="5.9" transform="translate(7.35 -5.35)"/><use xlink:href="#r" width="10.1" height="12.1" transform="translate(2.45 -20.1)"/><use xlink:href="#s" width="13.3" height="13.3" transform="translate(-6.25 -17.9)"/><use xlink:href="#o" width="4.5" height="6.1" transform="matrix(.7891 .5873 .9711 -.2233 4.5 .05)"/><use xlink:href="#n" width="5" height="7" transform="matrix(.8487 .2352 -.4317 .9606 7.85 -6.15)"/><use xlink:href="#n" width="5" height="7" transform="matrix(.9097 -.4049 .2733 .9 4.05 -9.75)"/><use xlink:href="#y" width="22.1" height="10" transform="matrix(-1 0 0 1 -.3 -17.45)"/><use xlink:href="#u" width="14.8" height="13" transform="translate(-10.1 -27.55)"/></g></g><g clip-path="url(#Z)"><g transform="translate(1241.7 97.25)"><use xlink:href="#m" width="13" height="3.9" transform="translate(-6.5 -1.85)"/><use xlink:href="#n" width="5" height="7" transform="matrix(-.6615 -.6998 -.5072 .621 -2.9 -13.8)"/><use xlink:href="#n" width="5" height="7" transform="rotate(182.288 -3.495 -5.933)scale(.9592)"/><use xlink:href="#o" width="4.5" height="6.1" transform="matrix(.7622 -.7785 -.7066 -.4921 -10.85 -14.3)"/><use xlink:href="#F" width="7" height="7.6" transform="rotate(4.528 323.848 -171.788)scale(.9995)"/><use xlink:href="#p" width="5.3" height="5.9" transform="translate(-12.3 -4.55)"/><use xlink:href="#q" width="22.1" height="7.8" transform="translate(-11.3 -8.1)"/><use xlink:href="#p" width="5.3" height="5.9" transform="translate(-.1 -2.2)"/><use xlink:href="#p" width="5.3" height="5.9" transform="translate(7.35 -5.35)"/><use xlink:href="#r" width="10.1" height="12.1" transform="translate(2.45 -20.1)"/><use xlink:href="#s" width="13.3" height="13.3" transform="translate(-6.25 -17.9)"/><use xlink:href="#o" width="4.5" height="6.1" transform="matrix(.7891 .5873 .9711 -.2233 4.5 .05)"/><use xlink:href="#n" width="5" height="7" transform="matrix(.8487 .2352 -.4317 .9606 7.85 -6.15)"/><use xlink:href="#n" width="5" height="7" transform="matrix(.9097 -.4049 .2733 .9 4.05 -9.75)"/><use xlink:href="#y" width="22.1" height="10" transform="matrix(-1 0 0 1 -.3 -17.45)"/><use xlink:href="#u" width="14.8" height="13" transform="translate(-10.1 -27.55)"/></g></g><g clip-path="url(#aa)"><g transform="translate(1283.7 97.25)"><use xlink:href="#m" width="13" height="3.9" transform="translate(-6.5 -1.85)"/><use xlink:href="#n" width="5" height="7" transform="matrix(-.6615 -.6998 -.5072 .621 -2.9 -13.8)"/><use xlink:href="#n" width="5" height="7" transform="rotate(182.288 -3.495 -5.933)scale(.9592)"/><use xlink:href="#o" width="4.5" height="6.1" transform="matrix(.7622 -.7785 -.7066 -.4921 -10.85 -14.3)"/><use xlink:href="#F" width="7" height="7.6" transform="translate(-12.55 -23.9)"/><use xlink:href="#p" width="5.3" height="5.9" transform="translate(-12.3 -4.55)"/><use xlink:href="#q" width="22.1" height="7.8" transform="translate(-11.3 -8.1)"/><use xlink:href="#p" width="5.3" height="5.9" transform="translate(-.1 -2.2)"/><use xlink:href="#p" width="5.3" height="5.9" transform="translate(7.35 -5.35)"/><use xlink:href="#r" width="10.1" height="12.1" transform="translate(2.45 -20.1)"/><use xlink:href="#s" width="13.3" height="13.3" transform="translate(-6.25 -17.9)"/><use xlink:href="#o" width="4.5" height="6.1" transform="matrix(.7891 .5873 .9711 -.2233 4.5 .05)"/><use xlink:href="#n" width="5" height="7" transform="matrix(.8487 .2352 -.4317 .9606 7.85 -6.15)"/><use xlink:href="#n" width="5" height="7" transform="matrix(.9097 -.4049 .2733 .9 4.05 -9.75)"/><use xlink:href="#y" width="22.1" height="10" transform="matrix(-1 0 0 1 -.3 -17.45)"/><use xlink:href="#u" width="14.8" height="13" transform="translate(-10.1 -27.55)"/></g></g></svg>