<svg xmlns="http://www.w3.org/2000/svg" xmlns:xlink="http://www.w3.org/1999/xlink" width="1876" height="67" viewBox="0 0 1876 67"><defs><clipPath id="f"><path d="M1 1h74v65H1z"/></clipPath><clipPath id="n"><path d="M76 1h74v65H76z"/></clipPath><clipPath id="p"><path d="M151 1h74v65h-74z"/></clipPath><clipPath id="r"><path d="M226 1h74v65h-74z"/></clipPath><clipPath id="s"><path d="M301 1h74v65h-74z"/></clipPath><clipPath id="t"><path d="M376 1h74v65h-74z"/></clipPath><clipPath id="v"><path d="M451 1h74v65h-74z"/></clipPath><clipPath id="w"><path d="M526 1h74v65h-74z"/></clipPath><clipPath id="x"><path d="M601 1h74v65h-74z"/></clipPath><clipPath id="y"><path d="M676 1h74v65h-74z"/></clipPath><clipPath id="z"><path d="M751 1h74v65h-74z"/></clipPath><clipPath id="A"><path d="M826 1h74v65h-74z"/></clipPath><clipPath id="B"><path d="M901 1h74v65h-74z"/></clipPath><clipPath id="C"><path d="M976 1h74v65h-74z"/></clipPath><clipPath id="D"><path d="M1051 1h74v65h-74z"/></clipPath><clipPath id="E"><path d="M1126 1h74v65h-74z"/></clipPath><clipPath id="F"><path d="M1201 1h74v65h-74z"/></clipPath><clipPath id="G"><path d="M1276 1h74v65h-74z"/></clipPath><clipPath id="H"><path d="M1351 1h74v65h-74z"/></clipPath><clipPath id="I"><path d="M1426 1h74v65h-74z"/></clipPath><clipPath id="J"><path d="M1501 1h74v65h-74z"/></clipPath><clipPath id="K"><path d="M1576 1h74v65h-74z"/></clipPath><clipPath id="L"><path d="M1651 1h74v65h-74z"/></clipPath><clipPath id="M"><path d="M1726 1h74v65h-74z"/></clipPath><clipPath id="N"><path d="M1801 1h74v65h-74z"/></clipPath><use xlink:href="#a" id="b" width="22.9" height="21.6"/><use xlink:href="#b" id="u" width="22.9" height="21.6" transform="matrix(-1 0 0 1 29.95 4.5)"/><use xlink:href="#b" id="q" width="22.9" height="21.6" transform="matrix(-1.19 0 0 1.19 32.1 3)"/><use xlink:href="#b" id="o" width="22.9" height="21.6" transform="matrix(-1.39 0 0 1.39 34.2 1.55)"/><use xlink:href="#b" id="m" width="22.9" height="21.6" transform="matrix(-1.58 0 0 1.58 36.35 0)"/><use xlink:href="#c" id="i" width="11.3" height="5"/><use xlink:href="#d" id="h" width="34.7" height="28.6"/><use xlink:href="#e" id="g" width="27.9" height="27.9"/><g id="a"><path fill="#f00f0f" d="M15.4 5.5Q17 5 20.7 3q-1.6 2.6-2 4.6-.3 1.1.6 2.2 1 1.3 3.6 1.8-1.2 0-2.4.7-1 .7-1.3 1.3-.5 1 .5 2.7.7 1.5 2.7 3.8-6.6-3.5-9.2-1.8-2.1 1.5-2.9 3.3 0-1.7-.3-2.4-.5-2.1-1.8-2.5-3-1-7.4.4.8-.5 2.3-2.6 1-1.2.6-3.1Q3.3 8.7 0 6.2l3.4.4 2.9-.4q1-.3 1.2-6.1V0q2 3.1 4 4.9 1.5 1.2 3.9.5"/><path fill="#a6691f" d="M12.2 13.7h-.7l-.6-.4-3.5-6.1q-.2-.3 0-.8l.7-.6L9.5 5l.9-.1q.4 0 .5.5-2.3.8-2.5 1.4 2.5 5.3 3.7 6.9m1.9 4h-.7q-.7-.1-.9-.6t0-1.2q.3-.5 1-.9.3-.2.7-.2-1.2.4-1 1.7 0 1.2 1 1.2z"/><path fill="#fc0" d="M12.2 13.7q-1.3-1.6-3.7-6.9.1-.6 2.4-1.5l2.4 6.6v.8l-.6.7-.3.2zm1.9 1 .5.1q.5.2.8.7.2.5 0 1.1l-.9 1-.4.1q-1 0-1-1.3-.2-1.2 1-1.6"/></g><g id="d"><path fill="#b81a03" d="M34.7 28.4q-4.3-4-6.6-3.5-1.8.3-2.9 3.7.1-4.1-2.4-6.1 4.9-.1 4.8-3.4t-5.3-7q2.9 1 6.3-2-1.4 3.8-.9 5.9.5 1.9 2.8 3.3l3.4 1.2q-2.4.4-2.4 2-.1 2 3.2 5.9"/><path fill="none" stroke="#d01d04" stroke-linecap="round" stroke-linejoin="round" stroke-width="__RESOLUTION__" d="M33.9 20.5q-2.4.4-2.4 2-.1 2 3.2 5.9" vector-effect="non-scaling-stroke"/><path fill="#f43404" d="M5.5 3.3Q16.3 9 16.3 2.6l4 1.7q-.7.4-1.4 1.9-1 2.2-.5 4.5.7 3.7 3.8 8.5l4.1 5.2q-5.8-2.8-16.6 1.3 12.2-8.4-4.3-22.4M3.1 2.2 0 .9Q.6-.4 2 .2t2 2.2z"/><path fill="none" stroke="#fc563f" stroke-linecap="round" stroke-linejoin="round" stroke-width="__RESOLUTION__" d="M5.5 3.3Q16.3 9 16.3 2.6" vector-effect="non-scaling-stroke"/><path fill="none" stroke="#d01d04" stroke-linecap="round" stroke-linejoin="round" stroke-width="__RESOLUTION__" d="M9.7 25.7Q22 17.3 5.5 3.3M3 2.2 0 .9Q.6-.4 2 .2t2 2.2z" vector-effect="non-scaling-stroke"/><path fill="#f43404" d="m8.5 26.2-.2.4L6.6 28q-1-.5-.2-1.1t2.1-.7"/><path fill="none" stroke="#d01d04" stroke-linecap="round" stroke-linejoin="round" stroke-width="__RESOLUTION__" d="m8.5 26.2-.2.4L6.6 28q-1-.5-.2-1.1t2.1-.7" vector-effect="non-scaling-stroke"/></g><g id="l"><path fill="#630" d="M17.5 28.5q-.2 0-.4.3l-.6.4q-3.2 2-7.3 2.1H7.6L6.1 31l-2-.6-1-.5-.5-.4-.4-.3L1.1 28l.4.7-1.4-2.5.1.1Q-.1 24.8.1 23l.4-2 .1-.7q.7-3.7 2-7.9L4.2 8v.2q1.4 2.4 1.6 4l.2-.1.6-.4.6-.2 1-.3.7-.2h1l1.2.3.5.2.1.1 1.3.5q.7-2.9 2-4.4l.7 1.9-3.3 12.5q-2.9 9.5 5.1 6.4M9.4 28l-.2-.5v-.1z"/><path fill="#fff" d="M15.7 9.6q.9 3 .4 5.9l.2.2 1.2 2.2.2.2.4.8q.8 2 1 4 .2.7-.1 2.3l-.4 1.2-.4 1.4H18l-.4.6-.2.2v-.1q-8 3.1-5.2-6.4zm1.5 15.9v.2zm.5 0v.2l.3-.2zm-.1.7h-.1v.4zm-.2 1.3V27v.2z"/><path fill="#630" d="M3.1 4.5q.4-2 1.3-3.5 1.7-2 1.4 0L4.7 4l1 1.2q1.2 1.5 2.8 2.6l.5 4h-.1v.4l.2.8v.3l-.8.7-.6-1.6v-.2L7.4 10q-.2-.8-.7-1.3z"/><path fill="#000" d="m26.6 24.4-.1.1-.1.1-8.2.8H18l-.1-.2v-.1h.2l8.1-.9h.1zm.2-3.2v.2L18 24.7h-.1l-.1-.1v-.2l8.8-3.2zM18 26.3V26h.2l7.3 1.7.1.2-.1.1h-.1l-7.2-1.6zm2-3.4-.2-.2.2.6q-.5 0-.9-.6l-.2-.7h-.1l.1-.7.5-.1zv.2z"/></g><g id="k"><path fill="#361b00" d="M2.5 13.7q-.2-2-1.1-3.3-2.8-4.5.3-8.5Q3.2-.2 5.7 0q4.9.9 5.5 6 1 5.5-.5 10.9l-.2.8q.9-2.8.6-5.9l-.5-.3q-1.3-.8-3.2-.9-3-.2-4.3 1.8zm7.6 4.7q-.2.7-1 1H7.2l-1.8-1.6.4-1.7q1 1.8 3.3 2.3h.7z"/><path fill="#898989" d="m2.5 13.7.6-1.2q1.4-2 4.3-1.8 1.9.1 3.1.9l.6.3q.3 3.1-.6 5.9l-.4.5-.2.2-.7-.1q-2.4-.5-3.4-2.3l-.3 1.7 1.7 1.6-1.8-.4q-2.7-1.2-2.9-4.8z"/></g><g id="j"><path fill="#630" d="M2.5 13.7q-.2-2-1.1-3.3-2.8-4.5.3-8.5Q3.2-.2 5.7 0q4.9.9 5.5 6 1 5.5-.5 10.9l-.2.8q.9-2.8.6-5.9l-.5-.3q-1.3-.8-3.2-.9-3-.2-4.3 1.8zm7.6 4.7q-.2.7-1 1H7.2l-1.8-1.6.4-1.7q1 1.8 3.3 2.3h.7z"/><path fill="#fff" d="m2.5 13.7.6-1.2q1.4-2 4.3-1.8 1.9.1 3.1.9l.6.3q.3 3.1-.6 5.9l-.4.5-.2.2-.7-.1q-2.4-.5-3.4-2.3l-.3 1.7 1.7 1.6-1.8-.4q-2.7-1.2-2.9-4.8z"/></g><path id="c" fill="#382c16" d="M0-2.5q2.4 0 4 .8 1.6.6 1.7 1.7Q5.6 1.1 4 1.9t-4 .7-4-.8T-5.6 0t1.7-1.8T0-2.5" transform="translate(5.6 2.5)"/><path id="e" fill="#fff" d="M9.8-10.2q3.3 3.3 4 7.7l.1 2.2q0 5.7-4.1 9.8-3.3 3.3-7.6 4l-2.2.1q-5.8 0-10-4.1-2.6-2.6-3.5-6-.5-1.8-.5-3.8 0-5.8 4-10h.2q4-4 9.8-4 3.7 0 6.6 1.7 1.7.9 3.2 2.3" transform="translate(14 14.3)"/></defs><g clip-path="url(#f)"><g transform="translate(48.65 59.7)"><use xlink:href="#g" width="27.9" height="27.9" transform="matrix(-.4353 0 0 .4353 11.5 -20.55)"/><use xlink:href="#h" width="34.7" height="28.6" transform="matrix(-.5733 0 0 .5733 18.65 -23.2)"/><use xlink:href="#i" width="11.3" height="5" transform="translate(-5.25 -2.15)"/><use xlink:href="#j" width="11.6" height="19.5" transform="matrix(.4101 .3968 .405 -.2143 -4.25 1)"/><use xlink:href="#k" width="11.6" height="19.5" transform="matrix(-.0638 -.4881 .473 -.0703 -8.9 2.3)"/><use xlink:href="#l" width="26.9" height="31.3" transform="rotate(-22.693 -75.517 50.814)skewX(10.448)"/><use xlink:href="#m" width="36.4" height="34.2" transform="matrix(-1 0 0 1 -11.3 -58.7)"/></g></g><g clip-path="url(#n)"><g transform="translate(123.65 59.7)"><use xlink:href="#g" width="27.9" height="27.9" transform="matrix(-.4353 0 0 .4353 11.5 -20.55)"/><use xlink:href="#h" width="34.7" height="28.6" transform="matrix(-.5733 0 0 .5733 18.65 -23.2)"/><use xlink:href="#i" width="11.3" height="5" transform="translate(-5.25 -2.15)"/><use xlink:href="#j" width="11.6" height="19.5" transform="matrix(.4101 .3968 .405 -.2143 -4.25 1)"/><use xlink:href="#k" width="11.6" height="19.5" transform="matrix(-.0638 -.4881 .473 -.0703 -8.9 2.3)"/><use xlink:href="#l" width="26.9" height="31.3" transform="rotate(-22.693 -75.517 50.814)skewX(10.448)"/><use xlink:href="#o" width="36.4" height="34.2" transform="matrix(-1 0 0 1 -11.3 -58.7)"/></g></g><g clip-path="url(#p)"><g transform="translate(198.65 59.7)"><use xlink:href="#g" width="27.9" height="27.9" transform="matrix(-.4353 0 0 .4353 11.5 -20.55)"/><use xlink:href="#h" width="34.7" height="28.6" transform="matrix(-.5733 0 0 .5733 18.65 -23.2)"/><use xlink:href="#i" width="11.3" height="5" transform="translate(-5.25 -2.15)"/><use xlink:href="#j" width="11.6" height="19.5" transform="matrix(.4101 .3968 .405 -.2143 -4.25 1)"/><use xlink:href="#k" width="11.6" height="19.5" transform="matrix(-.0638 -.4881 .473 -.0703 -8.9 2.3)"/><use xlink:href="#l" width="26.9" height="31.3" transform="rotate(-22.693 -75.517 50.814)skewX(10.448)"/><use xlink:href="#q" width="36.4" height="34.2" transform="matrix(-1 0 0 1 -11.3 -58.7)"/></g></g><g clip-path="url(#r)"><g transform="translate(273.65 59.7)"><use xlink:href="#h" width="34.7" height="28.6" transform="matrix(-.8505 0 0 .8504 24.25 -27.3)"/><use xlink:href="#i" width="11.3" height="5" transform="translate(-5.25 -2.15)"/><use xlink:href="#j" width="11.6" height="19.5" transform="matrix(.4101 .3968 .405 -.2143 -4.25 1)"/><use xlink:href="#k" width="11.6" height="19.5" transform="matrix(-.0638 -.4881 .473 -.0703 -8.9 2.3)"/><use xlink:href="#l" width="26.9" height="31.3" transform="rotate(-22.693 -75.517 50.814)skewX(10.448)"/></g></g><g clip-path="url(#s)"><g transform="translate(348.65 59.7)"><use xlink:href="#g" width="27.9" height="27.9" transform="matrix(-.4353 0 0 .4353 11.5 -20.55)"/><use xlink:href="#h" width="34.7" height="28.6" transform="matrix(-.8505 0 0 .8504 24.25 -27.3)"/><use xlink:href="#i" width="11.3" height="5" transform="translate(-5.25 -2.15)"/><use xlink:href="#j" width="11.6" height="19.5" transform="matrix(.4101 .3968 .405 -.2143 -4.25 1)"/><use xlink:href="#k" width="11.6" height="19.5" transform="matrix(-.0638 -.4881 .473 -.0703 -8.9 2.3)"/><use xlink:href="#l" width="26.9" height="31.3" transform="rotate(-22.693 -75.517 50.814)skewX(10.448)"/></g></g><g clip-path="url(#t)"><g transform="translate(423.65 59.7)"><use xlink:href="#i" width="11.3" height="5" transform="translate(-5.25 -2.15)"/><use xlink:href="#j" width="11.6" height="19.5" transform="matrix(.4101 .3968 .405 -.2143 -4.25 1)"/><use xlink:href="#k" width="11.6" height="19.5" transform="matrix(-.0638 -.4881 .473 -.0703 -8.9 2.3)"/><use xlink:href="#l" width="26.9" height="31.3" transform="rotate(-22.693 -75.517 50.814)skewX(10.448)"/><use xlink:href="#u" width="36.4" height="34.2" transform="matrix(-1 0 0 1 -11.3 -58.7)"/></g></g><g clip-path="url(#v)"><g transform="translate(498.65 59.7)"><use xlink:href="#i" width="11.3" height="5" transform="translate(-5.25 -2.15)"/><use xlink:href="#j" width="11.6" height="19.5" transform="matrix(.4091 .3965 .4046 -.2135 -4.25 .95)"/><use xlink:href="#k" width="11.6" height="19.5" transform="matrix(-.0626 -.4881 .473 -.069 -8.9 2.3)"/><use xlink:href="#l" width="26.9" height="31.3" transform="matrix(.9384 -.3423 .4968 .8847 -23.75 -26.05)"/><use xlink:href="#u" width="36.4" height="34.2" transform="matrix(-1 0 0 1 -11.3 -58.7)"/></g></g><g clip-path="url(#w)"><g transform="translate(573.65 59.7)"><use xlink:href="#i" width="11.3" height="5" transform="translate(-5.25 -2.15)"/><use xlink:href="#j" width="11.6" height="19.5" transform="matrix(.4091 .3965 .4046 -.2135 -4.25 .95)"/><use xlink:href="#k" width="11.6" height="19.5" transform="matrix(-.0626 -.4881 .473 -.069 -8.9 2.3)"/><use xlink:href="#l" width="26.9" height="31.3" transform="matrix(.9538 -.2974 .4372 .9149 -22.15 -26.85)"/><use xlink:href="#u" width="36.4" height="34.2" transform="matrix(-1 0 0 1 -11.3 -58.7)"/></g></g><g clip-path="url(#x)"><g transform="translate(648.65 59.7)"><use xlink:href="#i" width="11.3" height="5" transform="translate(-5.25 -2.15)"/><use xlink:href="#j" width="11.6" height="19.5" transform="matrix(.4091 .3965 .4046 -.2135 -4.25 .95)"/><use xlink:href="#k" width="11.6" height="19.5" transform="matrix(-.0626 -.4881 .473 -.069 -8.9 2.3)"/><use xlink:href="#l" width="26.9" height="31.3" transform="matrix(.9661 -.255 .3727 .9423 -20.4 -27.65)"/><use xlink:href="#u" width="36.4" height="34.2" transform="matrix(-1 0 0 1 -11.3 -58.7)"/></g></g><g clip-path="url(#y)"><g transform="translate(723.65 59.7)"><use xlink:href="#i" width="11.3" height="5" transform="translate(-5.25 -2.15)"/><use xlink:href="#j" width="11.6" height="19.5" transform="matrix(.4091 .3965 .4046 -.2135 -4.25 .95)"/><use xlink:href="#k" width="11.6" height="19.5" transform="matrix(-.0626 -.4881 .473 -.069 -8.9 2.3)"/><use xlink:href="#l" width="26.9" height="31.3" transform="matrix(.9772 -.2088 .3097 .9642 -18.7 -28.4)"/><use xlink:href="#u" width="36.4" height="34.2" transform="matrix(-1 0 0 1 -11.3 -58.7)"/></g></g><g clip-path="url(#z)"><g transform="translate(798.65 59.7)"><use xlink:href="#i" width="11.3" height="5" transform="translate(-5.25 -2.15)"/><use xlink:href="#j" width="11.6" height="19.5" transform="matrix(.4091 .3965 .4046 -.2135 -4.25 .95)"/><use xlink:href="#k" width="11.6" height="19.5" transform="matrix(-.0626 -.4881 .473 -.069 -8.9 2.3)"/><use xlink:href="#l" width="26.9" height="31.3" transform="matrix(.9857 -.1655 .2455 .9819 -16.9 -29)"/><use xlink:href="#u" width="36.4" height="34.2" transform="matrix(-1 0 0 1 -11.3 -58.7)"/></g></g><g clip-path="url(#A)"><g transform="translate(873.65 59.7)"><use xlink:href="#i" width="11.3" height="5" transform="translate(-5.25 -2.15)"/><use xlink:href="#j" width="11.6" height="19.5" transform="matrix(.4091 .3965 .4046 -.2135 -4.25 .95)"/><use xlink:href="#k" width="11.6" height="19.5" transform="matrix(-.0626 -.4881 .473 -.069 -8.9 2.3)"/><use xlink:href="#l" width="26.9" height="31.3" transform="matrix(.9926 -.1185 .1803 .9953 -15.15 -29.6)"/><use xlink:href="#u" width="36.4" height="34.2" transform="matrix(-1 0 0 1 -11.3 -58.7)"/></g></g><g clip-path="url(#B)"><g transform="translate(948.65 59.7)"><use xlink:href="#i" width="11.3" height="5" transform="translate(-5.25 -2.15)"/><use xlink:href="#j" width="11.6" height="19.5" transform="matrix(.4091 .3965 .4046 -.2135 -4.25 .95)"/><use xlink:href="#k" width="11.6" height="19.5" transform="matrix(-.0626 -.4881 .473 -.069 -8.9 2.3)"/><use xlink:href="#l" width="26.9" height="31.3" transform="matrix(.997 -.0746 .1111 1.0049 -13.25 -30.15)"/><use xlink:href="#u" width="36.4" height="34.2" transform="matrix(-1 0 0 1 -11.3 -58.7)"/></g></g><g clip-path="url(#C)"><g transform="translate(1023.65 59.7)"><use xlink:href="#i" width="11.3" height="5" transform="translate(-5.25 -2.15)"/><use xlink:href="#j" width="11.6" height="19.5" transform="matrix(.4091 .3965 .4046 -.2135 -4.25 .95)"/><use xlink:href="#k" width="11.6" height="19.5" transform="matrix(-.0626 -.4881 .473 -.069 -8.9 2.3)"/><use xlink:href="#l" width="26.9" height="31.3" transform="matrix(.9995 -.0272 .0449 1.0094 -11.35 -30.65)"/><use xlink:href="#u" width="36.4" height="34.2" transform="matrix(-1 0 0 1 -11.3 -58.7)"/></g></g><g clip-path="url(#D)"><g transform="translate(1098.65 59.7)"><use xlink:href="#i" width="11.3" height="5" transform="translate(-5.25 -2.15)"/><use xlink:href="#j" width="11.6" height="19.5" transform="matrix(.4091 .3965 .4046 -.2135 -4.25 .95)"/><use xlink:href="#k" width="11.6" height="19.5" transform="matrix(-.0626 -.4881 .473 -.069 -8.9 2.3)"/><use xlink:href="#l" width="26.9" height="31.3" transform="matrix(.9998 .0136 -.0182 1.0096 -9.55 -31.05)"/><use xlink:href="#u" width="36.4" height="34.2" transform="matrix(-1 0 0 1 -11.3 -58.7)"/></g></g><g clip-path="url(#E)"><g transform="translate(1173.65 59.7)"><use xlink:href="#i" width="11.3" height="5" transform="translate(-5.25 -2.15)"/><use xlink:href="#j" width="11.6" height="19.5" transform="matrix(.4091 .3965 .4046 -.2135 -4.25 .95)"/><use xlink:href="#k" width="11.6" height="19.5" transform="matrix(-.0626 -.4881 .473 -.069 -8.9 2.3)"/><use xlink:href="#l" width="26.9" height="31.3" transform="matrix(.9981 .0578 -.0844 1.0052 -7.6 -31.45)"/><use xlink:href="#u" width="36.4" height="34.2" transform="matrix(-1 0 0 1 -11.3 -58.7)"/></g></g><g clip-path="url(#F)"><g transform="translate(1248.65 59.7)"><use xlink:href="#i" width="11.3" height="5" transform="translate(-5.25 -2.15)"/><use xlink:href="#j" width="11.6" height="19.5" transform="matrix(.4091 .3965 .4046 -.2135 -4.25 .95)"/><use xlink:href="#k" width="11.6" height="19.5" transform="matrix(-.0626 -.4881 .473 -.069 -8.9 2.3)"/><use xlink:href="#l" width="26.9" height="31.3" transform="matrix(.9941 .105 -.1534 .996 -5.7 -31.8)"/><use xlink:href="#u" width="36.4" height="34.2" transform="matrix(-1 0 0 1 -11.3 -58.7)"/></g></g><g clip-path="url(#G)"><g transform="translate(1323.65 59.7)"><use xlink:href="#i" width="11.3" height="5" transform="translate(-5.25 -2.15)"/><use xlink:href="#j" width="11.6" height="19.5" transform="matrix(.4091 .3965 .4046 -.2135 -4.25 .95)"/><use xlink:href="#k" width="11.6" height="19.5" transform="matrix(-.0626 -.4881 .473 -.069 -8.9 2.3)"/><use xlink:href="#l" width="26.9" height="31.3" transform="matrix(.9884 .1488 -.2183 .9828 -3.7 -32.05)"/><use xlink:href="#u" width="36.4" height="34.2" transform="matrix(-1 0 0 1 -11.3 -58.7)"/></g></g><g clip-path="url(#H)"><g transform="translate(1398.65 59.7)"><use xlink:href="#i" width="11.3" height="5" transform="translate(-5.25 -2.15)"/><use xlink:href="#j" width="11.6" height="19.5" transform="matrix(.4091 .3965 .4046 -.2135 -4.25 .95)"/><use xlink:href="#k" width="11.6" height="19.5" transform="matrix(-.0626 -.4881 .473 -.069 -8.9 2.3)"/><use xlink:href="#l" width="26.9" height="31.3" transform="matrix(.9801 .1955 -.2822 .9654 -1.85 -32.2)"/><use xlink:href="#u" width="36.4" height="34.2" transform="matrix(-1 0 0 1 -11.3 -58.7)"/></g></g><g clip-path="url(#I)"><g transform="translate(1473.65 59.7)"><use xlink:href="#i" width="11.3" height="5" transform="translate(-5.25 -2.15)"/><use xlink:href="#j" width="11.6" height="19.5" transform="matrix(.4101 .3968 .405 -.2143 -4.25 1)"/><use xlink:href="#k" width="11.6" height="19.5" transform="matrix(-.0638 -.4881 .473 -.0703 -8.9 2.3)"/><use xlink:href="#l" width="26.9" height="31.3" transform="matrix(.9704 .2414 -.347 .9442 .1 -32.4)"/><use xlink:href="#u" width="36.4" height="34.2" transform="matrix(-1 0 0 1 -11.3 -58.7)"/></g></g><g clip-path="url(#J)"><g transform="translate(1548.65 59.7)"><use xlink:href="#i" width="11.3" height="5" transform="translate(-5.25 -2.15)"/><use xlink:href="#j" width="11.6" height="19.5" transform="matrix(.4091 .3965 .4046 -.2135 -4.25 .95)"/><use xlink:href="#k" width="11.6" height="19.5" transform="matrix(-.0626 -.4881 .473 -.069 -8.9 2.3)"/><use xlink:href="#l" width="26.9" height="31.3" transform="matrix(.9808 .1916 -.2775 .9647 -2.05 -32.65)"/><use xlink:href="#u" width="36.4" height="34.2" transform="matrix(-1 0 0 1 -11.3 -58.7)"/></g></g><g clip-path="url(#K)"><g transform="translate(1623.65 59.7)"><use xlink:href="#i" width="11.3" height="5" transform="translate(-5.25 -2.15)"/><use xlink:href="#j" width="11.6" height="19.5" transform="matrix(.4091 .3965 .4046 -.2135 -4.25 .95)"/><use xlink:href="#k" width="11.6" height="19.5" transform="matrix(-.0626 -.4881 .473 -.069 -8.9 2.3)"/><use xlink:href="#l" width="26.9" height="31.3" transform="matrix(.9891 .1441 -.2091 .9808 -4.2 -32.95)"/><use xlink:href="#u" width="36.4" height="34.2" transform="matrix(-1 0 0 1 -11.3 -58.7)"/></g></g><g clip-path="url(#L)"><g transform="translate(1698.65 59.7)"><use xlink:href="#i" width="11.3" height="5" transform="translate(-5.25 -2.15)"/><use xlink:href="#j" width="11.6" height="19.5" transform="matrix(.4091 .3965 .4046 -.2135 -4.25 .95)"/><use xlink:href="#k" width="11.6" height="19.5" transform="matrix(-.0626 -.4881 .473 -.069 -8.9 2.3)"/><use xlink:href="#l" width="26.9" height="31.3" transform="matrix(.995 .0962 -.1398 .9921 -6.3 -33.2)"/><use xlink:href="#u" width="36.4" height="34.2" transform="matrix(-1 0 0 1 -11.3 -58.7)"/></g></g><g clip-path="url(#M)"><g transform="translate(1773.65 59.7)"><use xlink:href="#i" width="11.3" height="5" transform="translate(-5.25 -2.15)"/><use xlink:href="#j" width="11.6" height="19.5" transform="matrix(.4091 .3965 .4046 -.2135 -4.25 .95)"/><use xlink:href="#k" width="11.6" height="19.5" transform="matrix(-.0626 -.4881 .473 -.069 -8.9 2.3)"/><use xlink:href="#l" width="26.9" height="31.3" transform="matrix(.9987 .0482 -.07 .9985 -8.4 -33.3)"/><use xlink:href="#u" width="36.4" height="34.2" transform="matrix(-1 0 0 1 -11.3 -58.7)"/></g></g><g clip-path="url(#N)"><g transform="translate(1848.65 59.7)"><use xlink:href="#i" width="11.3" height="5" transform="translate(-5.25 -2.15)"/><use xlink:href="#j" width="11.6" height="19.5" transform="matrix(.4101 .3968 .405 -.2143 -4.25 1)"/><use xlink:href="#k" width="11.6" height="19.5" transform="matrix(-.0638 -.4881 .473 -.0703 -8.9 2.3)"/><use xlink:href="#l" width="26.9" height="31.3" transform="translate(-10.4 -33.5)"/><use xlink:href="#u" width="36.4" height="34.2" transform="matrix(-1 0 0 1 -11.3 -58.7)"/></g></g></svg>