<svg xmlns="http://www.w3.org/2000/svg" xmlns:xlink="http://www.w3.org/1999/xlink" width="2206" height="57" viewBox="0 0 2206 57"><defs><clipPath id="i"><path d="M1 1h48v55H1z"/></clipPath><clipPath id="p"><path d="M50 1h48v55H50z"/></clipPath><clipPath id="q"><path d="M99 1h48v55H99z"/></clipPath><clipPath id="r"><path d="M148 1h48v55h-48z"/></clipPath><clipPath id="s"><path d="M197 1h48v55h-48z"/></clipPath><clipPath id="t"><path d="M246 1h48v55h-48z"/></clipPath><clipPath id="u"><path d="M295 1h48v55h-48z"/></clipPath><clipPath id="v"><path d="M344 1h48v55h-48z"/></clipPath><clipPath id="w"><path d="M393 1h48v55h-48z"/></clipPath><clipPath id="x"><path d="M442 1h48v55h-48z"/></clipPath><clipPath id="y"><path d="M491 1h48v55h-48z"/></clipPath><clipPath id="z"><path d="M540 1h48v55h-48z"/></clipPath><clipPath id="A"><path d="M589 1h48v55h-48z"/></clipPath><clipPath id="B"><path d="M638 1h48v55h-48z"/></clipPath><clipPath id="C"><path d="M687 1h48v55h-48z"/></clipPath><clipPath id="D"><path d="M736 1h48v55h-48z"/></clipPath><clipPath id="E"><path d="M785 1h48v55h-48z"/></clipPath><clipPath id="F"><path d="M834 1h48v55h-48z"/></clipPath><clipPath id="G"><path d="M883 1h48v55h-48z"/></clipPath><clipPath id="H"><path d="M932 1h48v55h-48z"/></clipPath><clipPath id="I"><path d="M981 1h48v55h-48z"/></clipPath><clipPath id="J"><path d="M1030 1h48v55h-48z"/></clipPath><clipPath id="K"><path d="M1079 1h48v55h-48z"/></clipPath><clipPath id="L"><path d="M1128 1h48v55h-48z"/></clipPath><clipPath id="M"><path d="M1177 1h48v55h-48z"/></clipPath><clipPath id="N"><path d="M1226 1h48v55h-48z"/></clipPath><clipPath id="O"><path d="M1275 1h48v55h-48z"/></clipPath><clipPath id="P"><path d="M1324 1h48v55h-48z"/></clipPath><clipPath id="Q"><path d="M1373 1h48v55h-48z"/></clipPath><clipPath id="R"><path d="M1422 1h48v55h-48z"/></clipPath><clipPath id="S"><path d="M1471 1h48v55h-48z"/></clipPath><clipPath id="T"><path d="M1520 1h48v55h-48z"/></clipPath><clipPath id="U"><path d="M1569 1h48v55h-48z"/></clipPath><clipPath id="V"><path d="M1618 1h48v55h-48z"/></clipPath><clipPath id="W"><path d="M1667 1h48v55h-48z"/></clipPath><clipPath id="X"><path d="M1716 1h48v55h-48z"/></clipPath><clipPath id="Y"><path d="M1765 1h48v55h-48z"/></clipPath><clipPath id="Z"><path d="M1814 1h48v55h-48z"/></clipPath><clipPath id="aa"><path d="M1863 1h48v55h-48z"/></clipPath><clipPath id="ab"><path d="M1912 1h48v55h-48z"/></clipPath><clipPath id="ac"><path d="M1961 1h48v55h-48z"/></clipPath><clipPath id="ad"><path d="M2010 1h48v55h-48z"/></clipPath><clipPath id="ae"><path d="M2059 1h48v55h-48z"/></clipPath><clipPath id="af"><path d="M2108 1h48v55h-48z"/></clipPath><clipPath id="ag"><path d="M2157 1h48v55h-48z"/></clipPath><path id="a" fill="#734731" d="m-.1-1.4-2.2.6-.1-.1h-.1v.6L-3.6-3l.4-.1-.2-.5 3.3-.2zm6.5-4q.7 1 .5 1.4L5.2 2 2.5-4v-.1L.1-7.7q5.6 1.5 6.3 2.3M-6.8 6.8l.4-1.4.5-3.2 1.3 1.2h2.2l.2 3.6-3.7.7z" transform="translate(6.85 7.65)"/><path id="h" fill="none" stroke="#000" stroke-linecap="round" stroke-linejoin="round" stroke-opacity=".4" stroke-width="__RESOLUTION__" d="M7.4-6.5q.7.9.5 1.3L6.2.8m-2.7-6L1.1-8.8M-6.4 7.5l1-3.4 1-7.2.2-.7m8.5.4L-1.6-2l.2 7.7L.2 7.4" transform="translate(6.5 8.95)" vector-effect="non-scaling-stroke"/><path id="g" fill="#000" fill-opacity=".3" d="M3.5-5.3 2.3-7.1q4-.4 5.6 1.9L6.2.8l-2-4.2-5.4 1.3-.3.9.2 6.9L.2 7.4Q-2 9-3.7 8.8l.5-3.9-2.2-.8 1-7.2 1.8 1 6.4-2.4z" transform="translate(5.4 7.15)"/><path id="b" fill="#b3c07a" d="M9.9 3.6v-.1L7.5 0q5.6 1.5 6.3 2.3.7.9.5 1.4l-1.7 6-2-4.3-5.5 1.4-.1-.1h-.1l.3 7.8 1.4 1.8q-2.1 1.5-3.9 1.3-1.4-.1-2.7-1.3L1 13l1-7.2.2-.7 2-.5L4 4z"/><use xlink:href="#a" id="f" width="13.8" height="15.3"/><use xlink:href="#b" id="e" width="14.3" height="17.6"/><use xlink:href="#c" id="n" width="22.8" height="22.3"/><g id="c"><path fill="#9b927d" d="m14.9 20.2-.1-.1z"/><path fill="#e3d0a5" d="M12.6 4.3q1.5-2.5 4.2-4l.5-.2q.8-.2 1.9.4 1.5.8 2.4 2.7.8 1.4 1 3Q20.3 8.5 18 8l-.6-1.2-.1-.1-1.5-1.9Q14.4 3.4 13 4z"/><path fill="#93876c" d="M22.6 6.2v.6q0 1.8-1 2.4l-.2.2-.5.1-1.9.3h-.1l-.3-.6-.6-1.1q2.3.4 4.6-2M19 9.9h-.1z"/><path fill="#9b927d" d="m13.5 14-.4.1z"/><path fill="#000" d="M18.9 9.9q-1.5 1.9-2.5 1.7l-.2-1.2-.4-1.2L18 8.1l.6 1.1zm-6.6 3.6q-2.1 1.4-3.1 1.3l.5-1.2v-.2l.1-.4v-.2l-.2-.5 2.4-1.2.1 1.3z"/><path fill="#80755e" d="M16.4 11.6h-.1l-.3.3.1.4-1.5 1.5-1.1.3h-.4l-.8-.2v-.4l-.2-1.1-.2-1.3q1.7.3 3.8-1.9l.4 1.2zm-6.9 2.1q-.3 1-.9 2t-2.2 1.6q.6-.7.6-2v-1l-.3-1-.7-1.6L5 10 3.5 9q-1.3-.7-2.3-.2l-.2.1q-1 .7-1 2.5T1 15l1.2 1.6q.6.6 1.3 1l.4.2 1.6.1.9-.6q.5-.7.5-2v-1l2.6-2 .1.5v.6zm-5.9 1.9q1.6 0 1.2-2l-1-1.7q-.6-.7-1-.7-.7-.1-1.1.6-.4 1.7.6 3.6L4 17.8l-1.7-2.4q-1-1.9-.6-3.6.4-.7 1-.6t1 .7L5 13.6q.3 2-1.3 2"/><path fill="#b6ae9e" d="M9.7 13.7h-.2l.2-.3.1-.3v-.3l-.2.6zm-3.2 3.6-.5.4-.4.3z"/><path fill="#b3a482" d="M1.3 8.8q1.4-1.6 4.2-.7 1.2.1 2 .7l.7.6 1 1.5.4 1.4-2.7 2-.2-1-.7-1.6L5 10 3.5 9q-1.3-.7-2.3-.2"/><path fill="#4e433a" d="m5.5 8 2.2-1.4q1.4 0 2.5.9l.4.5-2.4 1.4-.7-.6q-.9-.6-2-.7m6-3.3 1.1-.5.5-.2q1.3-.6 2.7.8l-2 1.3-.4-.3q-.9-.7-1.9-1.1m5.7 2 .2.1.6 1.2-2.2 1.1-.7-1.3zm-5.6 2.9.4 1.4-2.3 1.2-.5-1.4z"/><path fill="#c5b58f" d="M7.7 6.6q1-1.3 3.8-1.8 1 .4 1.9 1l.4.3L15 7.9l.7 1.4q-2.2 2.2-3.9 1.9l-.4-1.4-.9-1.7-.4-.5q-1.1-1-2.5-1"/><path fill="#928d7e" d="m15.9 4.9 1.3 1.9-2 1-1.4-1.6zM10.6 8l1 1.7L9 10.9l-.9-1.5z"/><path fill="none" stroke="#000" stroke-linecap="round" stroke-linejoin="round" stroke-opacity=".4" stroke-width="__RESOLUTION__" d="M12.6 4.3q1.5-2.5 4.2-4l.5-.2q.8-.2 1.9.4 1.5.8 2.4 2.7.8 1.4 1 3v.6q0 1.8-1 2.4l-.3.2-.5.1-1.8.3h-.1v.1m-2.6 1.8-.2.6-1.5 1.6-1.1.3h-.4v0l-.8-.3v-.4l-.1-1.1-.2-1.3-.4-1.4-1-1.7-.4-.5q-1.1-1-2.5-1L5.5 8.2q-2.8-.9-4.2.7l-.2.1q-1 .7-1 2.5t1 3.6l1.2 1.6q.6.6 1.3 1l.4.2 1.6.1.4-.2.5-.4q1.4-.6 2.1-1.6t.9-2h.2l-.5 1.1M7.7 6.6q1-1.3 3.8-1.8l1.1-.5.5-.2q1.3-.6 2.7.8l1.4 1.9.1.1.7 1.2.6 1.1.2.6h.1m-3.1-.6.3 1.2.3 1.2m-.6-2.4L15 7.9 13.7 6l-.3-.3q-.9-.7-1.9-1M8.2 9.4l1 1.5.4 1.4.1.5.1.3-.2.3v.3M8.2 9.4l-.7-.6q-.9-.6-2-.7m1.4 6.2-.2-1-.7-1.6L5 10 3.5 9q-1.3-.7-2.3-.2M7 14.3v1q0 1.3-.5 2l-.9.7M4 17.8l-1.7-2.4q-1-1.9-.6-3.6.4-.7 1-.6t1 .7L5 13.6q.3 2-1.3 2m6.1-2.8v.6l-.2.3" vector-effect="non-scaling-stroke"/><path fill="#acaea6" d="m9.9 16.4-.5.4.2-1q.1-1.3-.1-3.2l3.1-2.5-.1 1.1v.3l.3 2.8-.5.3zm1.7-3.1-1.3.9z"/><path fill="#000" d="M12.3 14.6v1.7l.1.4-2.6 1.6v-1.9z"/><path fill="#4e453a" d="m12.4 16.7.7 1.9v.1L10 20.8l-.2-2.5z"/><path fill="#cdceca" d="m13.2 18.7.6 1.3-1.1 2-2.2.2-.6-1.4z"/><path fill="none" stroke="#000" stroke-linecap="round" stroke-linejoin="round" stroke-opacity=".4" stroke-width="__RESOLUTION__" d="m9.9 16.4-.5.4.2-1q.1-1.3-.1-3.2l3.1-2.5-.1 1.1v.3l.3 2.8-.5.3v1.7l.1.4.7 1.9v.1h.2l.6 1.3-1.1 2-2.2.2-.6-1.4-.2-2.5v-.5zl2.4-1.8m-2-.4 1.3-.9" vector-effect="non-scaling-stroke"/><path fill="#acaea6" d="m16.2 12.5-.6.4.2-1q.1-1.2-.2-3.1l3-2.6v1.2l-.1-.7v1l.4 2.7-.4.4zm1.5-3-1.2.8z"/><path fill="#000" d="M18.5 10.8q-.1.8.1 1.6v.4l-2.4 1.6-.1-.5v-1.4z"/><path fill="#4e453a" d="m18.7 12.9.7 1.8.1.2-3.1 2-.2-2.4z"/><path fill="#cdceca" d="M19.5 14.9h.2l.5 1.2-1 2.1-2.2.2-.6-1.4z"/><path fill="none" stroke="#000" stroke-linecap="round" stroke-linejoin="round" stroke-opacity=".4" stroke-width="__RESOLUTION__" d="m16.2 12.5-.6.4.2-1q.1-1.2-.2-3.1l3-2.6v1.2l-.1-.7v1l.4 2.7-.4.4q-.1.8.1 1.6v.4l.8 2h.3l.5 1.3-1 2.1-2.2.2-.6-1.4-.2-2.5-.1-.5zl2.3-1.7m-2-.5 1.2-.9" vector-effect="non-scaling-stroke"/></g><g id="d"><path fill="#fcfbdc" d="m3.9.1.5.7Q4.8 2.7 3 4.5h-.9L.1 2 .5.6Q2.2 0 3.9.1"/><path fill="none" stroke="#4a4b27" stroke-linecap="round" stroke-linejoin="round" stroke-width="__RESOLUTION__" d="m3.9.1.5.7Q4.8 2.7 3 4.5h-.9" vector-effect="non-scaling-stroke"/><path fill="none" stroke="#b7b066" stroke-linecap="round" stroke-linejoin="round" stroke-width="__RESOLUTION__" d="M2.2 4.5.1 2" vector-effect="non-scaling-stroke"/></g><g id="o" transform="translate(8.05 8.95)"><use xlink:href="#d" width="4.5" height="4.6" transform="matrix(1.07 -.1056 0 1 -8.05 1.3)"/><use xlink:href="#d" width="4.5" height="4.6" transform="matrix(.7896 -.0782 0 .7407 -6.8 -2.95)"/><use xlink:href="#e" width="14.3" height="17.6" transform="translate(-6.4 -8.85)"/><use xlink:href="#f" width="13.8" height="15.3" transform="translate(-5.85 -8.8)"/><use xlink:href="#g" width="13.3" height="15.9" transform="translate(-5.4 -7.15)"/><use xlink:href="#d" width="4.5" height="4.6" transform="matrix(.3689 .3077 -.3669 .3824 -1.2 -6.6)"/><use xlink:href="#h" width="14.6" height="16.6" transform="translate(-6.5 -8.95)"/></g></defs><g clip-path="url(#i)"><g transform="translate(7.2 38.3)"><use xlink:href="#n" width="22.8" height="22.3" transform="rotate(5.05 397.996 -67.533)scale(.9269)"/><use xlink:href="#o" width="16.1" height="17.8" transform="rotate(35.08 65.632 2.31)scale(.9982)"/></g></g><g clip-path="url(#p)"><g transform="translate(56.2 38.3)"><use xlink:href="#n" width="22.8" height="22.3" transform="rotate(8.812 232.626 -13.682)scale(.9262)"/><use xlink:href="#o" width="16.1" height="17.8" transform="rotate(39.073 60.773 7.628)scale(.9963)"/></g></g><g clip-path="url(#q)"><g transform="translate(105.2 38.3)"><use xlink:href="#n" width="22.8" height="22.3" transform="rotate(12.8 164.892 7.235)scale(.9258)"/><use xlink:href="#o" width="16.1" height="17.8" transform="rotate(42.885 57.492 11.879)scale(.9961)"/></g></g><g clip-path="url(#r)"><g transform="translate(154.2 38.3)"><use xlink:href="#n" width="22.8" height="22.3" transform="rotate(16.825 129.843 18.283)scale(.9262)"/><use xlink:href="#o" width="16.1" height="17.8" transform="rotate(46.857 54.809 15.31)scale(.9975)"/></g></g><g clip-path="url(#s)"><g transform="translate(203.2 38.3)"><use xlink:href="#n" width="22.8" height="22.3" transform="rotate(17.295 126.848 19.054)scale(.9253)"/><use xlink:href="#o" width="16.1" height="17.8" transform="rotate(47.385 54.235 15.676)scale(.9959)"/></g></g><g clip-path="url(#t)"><g transform="translate(252.2 38.3)"><use xlink:href="#n" width="22.8" height="22.3" transform="rotate(17.789 123.575 19.94)scale(.9253)"/><use xlink:href="#o" width="16.1" height="17.8" transform="rotate(47.878 53.887 15.85)scale(.9958)"/></g></g><g clip-path="url(#u)"><g transform="translate(301.2 38.3)"><use xlink:href="#n" width="22.8" height="22.3" transform="rotate(18.075 121.52 20.316)scale(.9254)"/><use xlink:href="#o" width="16.1" height="17.8" transform="rotate(48.358 53.426 16.023)scale(.9958)"/></g></g><g clip-path="url(#v)"><g transform="translate(350.2 38.3)"><use xlink:href="#n" width="22.8" height="22.3" transform="rotate(18.539 118.606 20.43)scale(.9253)"/><use xlink:href="#o" width="16.1" height="17.8" transform="rotate(48.632 53.221 16.193)scale(.9958)"/></g></g><g clip-path="url(#w)"><g transform="translate(399.2 38.3)"><use xlink:href="#n" width="22.8" height="22.3" transform="rotate(18.795 117.196 20.797)scale(.9252)"/><use xlink:href="#o" width="16.1" height="17.8" transform="rotate(48.884 53.093 16.353)scale(.9958)"/></g></g><g clip-path="url(#x)"><g transform="translate(448.2 38.3)"><use xlink:href="#n" width="22.8" height="22.3" transform="rotate(19.038 115.883 21.035)scale(.9252)"/><use xlink:href="#o" width="16.1" height="17.8" transform="rotate(49.13 52.87 16.432)scale(.9958)"/></g></g><g clip-path="url(#y)"><g transform="translate(497.2 38.3)"><use xlink:href="#n" width="22.8" height="22.3" transform="rotate(19.077 115.58 21.424)scale(.9252)"/><use xlink:href="#o" width="16.1" height="17.8" transform="rotate(49.362 52.66 16.52)scale(.9957)"/></g></g><g clip-path="url(#z)"><g transform="translate(546.2 38.3)"><use xlink:href="#n" width="22.8" height="22.3" transform="rotate(19.287 114.4 21.131)scale(.9252)"/><use xlink:href="#o" width="16.1" height="17.8" transform="rotate(49.382 52.693 16.613)scale(.9957)"/></g></g><g clip-path="url(#A)"><g transform="translate(595.2 38.3)"><use xlink:href="#n" width="22.8" height="22.3" transform="rotate(19.347 114.06 21.007)scale(.9261)"/><use xlink:href="#o" width="16.1" height="17.8" transform="rotate(49.375 52.645 16.644)scale(.9974)"/></g></g><g clip-path="url(#B)"><g transform="translate(644.2 38.3)"><use xlink:href="#n" width="22.8" height="22.3" transform="rotate(19.295 114.158 20.845)scale(.9252)"/><use xlink:href="#o" width="16.1" height="17.8" transform="matrix(.6516 .7536 -.7558 .6483 30.85 -34.1)"/></g></g><g clip-path="url(#C)"><g transform="translate(693.2 38.3)"><use xlink:href="#n" width="22.8" height="22.3" transform="rotate(19.295 113.886 20.135)scale(.9252)"/><use xlink:href="#o" width="16.1" height="17.8" transform="matrix(.6597 .7487 -.7531 .6514 30.7 -34.15)"/></g></g><g clip-path="url(#D)"><g transform="translate(742.2 38.3)"><use xlink:href="#n" width="22.8" height="22.3" transform="rotate(19.295 113.564 19.13)scale(.9252)"/><use xlink:href="#o" width="16.1" height="17.8" transform="matrix(.6746 .7389 -.7502 .6547 30.25 -34.25)"/></g></g><g clip-path="url(#E)"><g transform="translate(791.2 38.3)"><use xlink:href="#n" width="22.8" height="22.3" transform="rotate(19.295 112.994 17.563)scale(.9252)"/><use xlink:href="#o" width="16.1" height="17.8" transform="matrix(.6962 .7237 -.7447 .6609 29.55 -34.3)"/></g></g><g clip-path="url(#F)"><g transform="translate(840.2 38.3)"><use xlink:href="#n" width="22.8" height="22.3" transform="rotate(19.295 112.375 15.701)scale(.9252)"/><use xlink:href="#o" width="16.1" height="17.8" transform="matrix(.7241 .7027 -.7389 .6674 28.75 -34.3)"/></g></g><g clip-path="url(#G)"><g transform="translate(889.2 38.3)"><use xlink:href="#n" width="22.8" height="22.3" transform="rotate(19.295 111.51 13.276)scale(.9252)"/><use xlink:href="#o" width="16.1" height="17.8" transform="matrix(.7557 .6774 -.7327 .6742 27.8 -34.35)"/></g></g><g clip-path="url(#H)"><g transform="translate(938.2 38.3)"><use xlink:href="#n" width="22.8" height="22.3" transform="rotate(19.295 110.593 10.556)scale(.9252)"/><use xlink:href="#o" width="16.1" height="17.8" transform="matrix(.7927 .6448 -.7238 .6836 26.6 -34.4)"/></g></g><g clip-path="url(#I)"><g transform="translate(987.2 38.3)"><use xlink:href="#n" width="22.8" height="22.3" transform="rotate(19.295 109.577 7.249)scale(.9252)"/><use xlink:href="#o" width="16.1" height="17.8" transform="matrix(.8322 .6066 -.7145 .6933 25.25 -34.6)"/></g></g><g clip-path="url(#J)"><g transform="translate(1036.2 38.3)"><use xlink:href="#n" width="22.8" height="22.3" transform="rotate(19.295 108.363 3.672)scale(.9252)"/><use xlink:href="#o" width="16.1" height="17.8" transform="matrix(.8755 .5594 -.7023 .7055 23.7 -34.65)"/></g></g><g clip-path="url(#K)"><g transform="translate(1085.2 38.3)"><use xlink:href="#n" width="22.8" height="22.3" transform="rotate(19.295 106.903 -.468)scale(.9252)"/><use xlink:href="#o" width="16.1" height="17.8" transform="matrix(.9213 .5019 -.6897 .7178 22.1 -34.7)"/></g></g><g clip-path="url(#L)"><g transform="translate(1134.2 38.3)"><use xlink:href="#n" width="22.8" height="22.3" transform="rotate(19.295 105.393 -4.902)scale(.9252)"/><use xlink:href="#o" width="16.1" height="17.8" transform="matrix(.9666 .4362 -.674 .7324 20.15 -34.75)"/></g></g><g clip-path="url(#M)"><g transform="translate(1183.2 38.3)"><use xlink:href="#n" width="22.8" height="22.3" transform="rotate(19.347 103.673 -9.823)scale(.9261)"/><use xlink:href="#o" width="16.1" height="17.8" transform="matrix(1.0123 .3588 -.6587 .7483 18.1 -34.9)"/></g></g><g clip-path="url(#N)"><g transform="translate(1232.2 38.3)"><use xlink:href="#n" width="22.8" height="22.3" transform="rotate(15.074 119.929 -13.369)scale(.9251)"/><use xlink:href="#o" width="16.1" height="17.8" transform="matrix(1.0349 .2832 -.6033 .7913 16.15 -32.7)"/></g></g><g clip-path="url(#O)"><g transform="translate(1281.2 38.3)"><use xlink:href="#n" width="22.8" height="22.3" transform="rotate(11.043 145.99 -20.9)scale(.9251)"/><use xlink:href="#o" width="16.1" height="17.8" transform="matrix(1.0521 .2098 -.5433 .8335 14.1 -30.5)"/></g></g><g clip-path="url(#P)"><g transform="translate(1330.2 38.3)"><use xlink:href="#n" width="22.8" height="22.3" transform="rotate(7.064 201.334 -38.449)scale(.9254)"/><use xlink:href="#o" width="16.1" height="17.8" transform="matrix(1.0648 .1351 -.4841 .8707 11.95 -28.3)"/></g></g><g clip-path="url(#Q)"><g transform="translate(1379.2 38.3)"><use xlink:href="#n" width="22.8" height="22.3" transform="matrix(.9182 .113 -.113 .9182 -3 -22.6)"/><use xlink:href="#o" width="16.1" height="17.8" transform="matrix(1.1201 -.0894 -.3658 .925 9.6 -24.3)"/></g></g><g clip-path="url(#R)"><g transform="translate(1428.2 38.3)"><use xlink:href="#n" width="22.8" height="22.3" transform="rotate(7.016 162.517 -33.295)scale(.9251)"/><use xlink:href="#o" width="16.1" height="17.8" transform="matrix(1.1249 -.3347 -.2455 .9639 7.6 -19.9)"/></g></g><g clip-path="url(#S)"><g transform="translate(1477.2 38.3)"><use xlink:href="#n" width="22.8" height="22.3" transform="rotate(7.064 141.61 -31.103)scale(.9254)"/><use xlink:href="#o" width="16.1" height="17.8" transform="matrix(1.0749 -.5885 -.1213 .9876 5.65 -15.15)"/></g></g><g clip-path="url(#T)"><g transform="translate(1526.2 38.3)"><use xlink:href="#n" width="22.8" height="22.3" transform="rotate(7.064 141.61 -31.103)scale(.9254)"/><use xlink:href="#o" width="16.1" height="17.8" transform="matrix(1.1621 -.3847 -.2532 .9436 7.35 -14.6)"/></g></g><g clip-path="url(#U)"><g transform="translate(1575.2 38.3)"><use xlink:href="#n" width="22.8" height="22.3" transform="rotate(7.064 141.61 -31.103)scale(.9254)"/><use xlink:href="#o" width="16.1" height="17.8" transform="matrix(1.2127 -.1716 -.3756 .8828 9.15 -13.85)"/></g></g><g clip-path="url(#V)"><g transform="translate(1624.2 38.3)"><use xlink:href="#n" width="22.8" height="22.3" transform="rotate(7.064 141.61 -31.103)scale(.9254)"/><use xlink:href="#o" width="16.1" height="17.8" transform="matrix(1.2244 .043 -.4861 .8067 11 -12.85)"/></g></g><g clip-path="url(#W)"><g transform="translate(1673.2 38.3)"><use xlink:href="#n" width="22.8" height="22.3" transform="rotate(7.064 141.61 -31.103)scale(.9254)"/><use xlink:href="#o" width="16.1" height="17.8" transform="matrix(1.1965 .2603 -.5831 .7173 12.75 -11.65)"/></g></g><g clip-path="url(#X)"><g transform="translate(1722.2 38.3)"><use xlink:href="#n" width="22.8" height="22.3" transform="rotate(7.064 141.61 -31.103)scale(.9254)"/><use xlink:href="#o" width="16.1" height="17.8" transform="matrix(1.1304 .4692 -.665 .617 14.35 -10.25)"/></g></g><g clip-path="url(#Y)"><g transform="translate(1771.2 38.3)"><use xlink:href="#n" width="22.8" height="22.3" transform="rotate(7.064 141.61 -31.103)scale(.9254)"/><use xlink:href="#o" width="16.1" height="17.8" transform="matrix(1.0282 .6631 -.7306 .5082 15.95 -8.8)"/></g></g><g clip-path="url(#Z)"><g transform="translate(1820.2 38.3)"><use xlink:href="#n" width="22.8" height="22.3" transform="rotate(7.064 141.61 -31.103)scale(.9254)"/><use xlink:href="#o" width="16.1" height="17.8" transform="matrix(.8932 .8358 -.7792 .3934 17.45 -6.95)"/></g></g><g clip-path="url(#aa)"><g transform="translate(1869.2 38.3)"><use xlink:href="#n" width="22.8" height="22.3" transform="rotate(7.064 141.61 -31.103)scale(.9254)"/><use xlink:href="#o" width="16.1" height="17.8" transform="matrix(.7296 .9819 -.8113 .2727 18.7 -5)"/></g></g><g clip-path="url(#ab)"><g transform="translate(1918.2 38.3)"><use xlink:href="#n" width="22.8" height="22.3" transform="rotate(7.064 141.61 -31.103)scale(.9254)"/><use xlink:href="#o" width="16.1" height="17.8" transform="matrix(.5456 1.0971 -.8248 .1559 19.9 -2.9)"/></g></g><g clip-path="url(#ac)"><g transform="translate(1967.2 38.3)"><use xlink:href="#n" width="22.8" height="22.3" transform="rotate(7.064 141.61 -31.103)scale(.9254)"/><use xlink:href="#o" width="16.1" height="17.8" transform="matrix(.6173 1.056 -.8117 .2104 19.4 -3.6)"/></g></g><g clip-path="url(#ad)"><g transform="translate(2016.2 38.3)"><use xlink:href="#n" width="22.8" height="22.3" transform="rotate(7.064 141.61 -31.103)scale(.9254)"/><use xlink:href="#o" width="16.1" height="17.8" transform="matrix(.6855 1.0126 -.7958 .2634 18.8 -4.2)"/></g></g><g clip-path="url(#ae)"><g transform="translate(2065.2 38.3)"><use xlink:href="#n" width="22.8" height="22.3" transform="rotate(7.064 141.61 -31.103)scale(.9254)"/><use xlink:href="#o" width="16.1" height="17.8" transform="matrix(.754 .9648 -.7763 .3179 18.35 -4.85)"/></g></g><g clip-path="url(#af)"><g transform="translate(2114.2 38.3)"><use xlink:href="#n" width="22.8" height="22.3" transform="rotate(7.064 141.61 -31.103)scale(.9254)"/><use xlink:href="#o" width="16.1" height="17.8" transform="matrix(.6855 1.0126 -.7958 .2633 18.85 -4.2)"/></g></g><g clip-path="url(#ag)"><g transform="translate(2163.2 38.3)"><use xlink:href="#n" width="22.8" height="22.3" transform="rotate(7.064 141.61 -31.103)scale(.9254)"/><use xlink:href="#o" width="16.1" height="17.8" transform="matrix(.6173 1.056 -.8118 .2103 19.35 -3.6)"/></g></g></svg>