<svg xmlns="http://www.w3.org/2000/svg" xmlns:xlink="http://www.w3.org/1999/xlink" width="65" height="82" viewBox="0 0 65 82"><defs><g id="u"><path fill="#29271f" d="M10.4 2.4q3.1-.6 2.9-2.2Q15 1 13 4.8q-1 1.9-.4 2.8l1.6 2.1-6 .6Q8 8.8 9.8 6.4q1.6-2.2.7-4"/><path fill="#484436" d="M10.4 2.4q.9 1.8-.7 4-1.8 2.4-1.4 3.9-4.1 0-8.3-1.2L1.3 7q.2-.5-.4-2.4Q0 2.4.4 1.4.9.2 1.5 0 .9 2.5 7.4 2.6z"/><path fill="none" stroke="#000" stroke-linecap="round" stroke-linejoin="round" stroke-opacity=".3" stroke-width="__RESOLUTION__" d="m14.2 9.7-1.6-2.1q-.6-1 .4-2.8 2-3.7.3-4.6.2 1.5-2.9 2.1l-3 .2Q.9 2.6 1.5 0 .9.2.4 1.4q-.3 1 .5 3.2.6 1.9.4 2.4L0 9" vector-effect="non-scaling-stroke"/></g><g id="v"><path fill="#f8e7cc" d="M11.4 3.8q.7 2.1-.4 4-1.1 2-3.3 2.7-2.3.6-4.5-.5Q1 9 .3 7t.4-4.1T4 .2t4.4.4 2.9 3.1"/><path fill="none" stroke="#000" stroke-linecap="round" stroke-linejoin="round" stroke-opacity=".3" stroke-width="__RESOLUTION__" d="M11.4 3.8q.7 2.1-.4 4-1.1 2-3.3 2.7-2.3.6-4.5-.5Q1 9 .3 7t.4-4.1T4 .2t4.4.4 2.9 3.1" vector-effect="non-scaling-stroke"/><path fill="#141414" d="M.7 3.7q4-5 9.2-2-5.6.2-9.2 2"/><path fill="none" stroke="#000" stroke-linecap="round" stroke-linejoin="round" stroke-opacity=".3" stroke-width="__RESOLUTION__" d="M.7 3.7q3.6-1.8 9.2-2-5.2-3-9.2 2" vector-effect="non-scaling-stroke"/></g><g id="C"><path fill="#212019" d="M10.4 2.4q3.1-.6 2.9-2.2Q15 1 13 4.8q-1 1.9-.4 2.8l1.6 2.1-6 .6Q8 8.8 9.8 6.4q1.6-2.2.7-4"/><path fill="#3b382c" d="M10.4 2.4q.9 1.8-.7 4-1.8 2.4-1.4 3.9-4.1 0-8.3-1.2L1.3 7q.2-.5-.4-2.4Q0 2.4.4 1.4.9.2 1.5 0 .9 2.5 7.4 2.6z"/><path fill="none" stroke="#000" stroke-linecap="round" stroke-linejoin="round" stroke-opacity=".3" stroke-width="__RESOLUTION__" d="m14.2 9.7-1.6-2.1q-.6-1 .4-2.8 2-3.7.3-4.6.2 1.5-2.9 2.1l-3 .2Q.9 2.6 1.5 0 .9.2.4 1.4q-.3 1 .5 3.2.6 1.9.4 2.4L0 9" vector-effect="non-scaling-stroke"/></g><g id="D"><path fill="#cdbfa8" d="M11.4 3.8q.7 2.1-.4 4-1.1 2-3.3 2.7-2.3.6-4.5-.5Q1 9 .3 7t.4-4.1T4 .2t4.4.4 2.9 3.1"/><path fill="none" stroke="#000" stroke-linecap="round" stroke-linejoin="round" stroke-opacity=".3" stroke-width="__RESOLUTION__" d="M11.4 3.8q.7 2.1-.4 4-1.1 2-3.3 2.7-2.3.6-4.5-.5Q1 9 .3 7t.4-4.1T4 .2t4.4.4 2.9 3.1" vector-effect="non-scaling-stroke"/><path fill="#101010" d="M.7 3.7q4-5 9.2-2-5.6.2-9.2 2"/><path fill="none" stroke="#000" stroke-linecap="round" stroke-linejoin="round" stroke-opacity=".3" stroke-width="__RESOLUTION__" d="M.7 3.7q3.6-1.8 9.2-2-5.2-3-9.2 2" vector-effect="non-scaling-stroke"/></g><g id="E"><path fill="#1b1a14" d="M10.4 2.4q3.1-.6 2.9-2.2Q15 1 13 4.8q-1 1.9-.4 2.8l1.6 2.1-6 .6Q8 8.8 9.8 6.4q1.6-2.2.7-4"/><path fill="#302d24" d="M10.4 2.4q.9 1.8-.7 4-1.8 2.4-1.4 3.9-4.1 0-8.3-1.2L1.3 7q.2-.5-.4-2.4Q0 2.4.4 1.4.9.2 1.5 0 .9 2.5 7.4 2.6z"/><path fill="none" stroke="#000" stroke-linecap="round" stroke-linejoin="round" stroke-opacity=".3" stroke-width="__RESOLUTION__" d="m14.2 9.7-1.6-2.1q-.6-1 .4-2.8 2-3.7.3-4.6.2 1.5-2.9 2.1l-3 .2Q.9 2.6 1.5 0 .9.2.4 1.4q-.3 1 .5 3.2.6 1.9.4 2.4L0 9" vector-effect="non-scaling-stroke"/></g><g id="F"><path fill="#a69b89" d="M11.4 3.8q.7 2.1-.4 4-1.1 2-3.3 2.7-2.3.6-4.5-.5Q1 9 .3 7t.4-4.1T4 .2t4.4.4 2.9 3.1"/><path fill="none" stroke="#000" stroke-linecap="round" stroke-linejoin="round" stroke-opacity=".3" stroke-width="__RESOLUTION__" d="M11.4 3.8q.7 2.1-.4 4-1.1 2-3.3 2.7-2.3.6-4.5-.5Q1 9 .3 7t.4-4.1T4 .2t4.4.4 2.9 3.1" vector-effect="non-scaling-stroke"/><path fill="#0d0d0d" d="M.7 3.7q4-5 9.2-2-5.6.2-9.2 2"/><path fill="none" stroke="#000" stroke-linecap="round" stroke-linejoin="round" stroke-opacity=".3" stroke-width="__RESOLUTION__" d="M.7 3.7q3.6-1.8 9.2-2-5.2-3-9.2 2" vector-effect="non-scaling-stroke"/></g><g id="G"><path fill="#f8e7cc" d="M12.9 2.2q2.2 2.3 2.2 5.4t-2.2 5.3-5.3 2.2-5.4-2.2T0 7.5t2.2-5.3T7.6 0t5.3 2.2"/><path fill="none" stroke="#000" stroke-linecap="round" stroke-linejoin="round" stroke-opacity=".3" stroke-width="__RESOLUTION__" d="M12.9 2.2q2.2 2.3 2.2 5.4t-2.2 5.3-5.3 2.2-5.4-2.2T0 7.5t2.2-5.3T7.6 0t5.3 2.2" vector-effect="non-scaling-stroke"/><path fill="#141414" d="M8.5 1.3q-2 7-1 12.1-5.1-7 1-12.1"/><path fill="none" stroke="#000" stroke-linecap="round" stroke-linejoin="round" stroke-opacity=".3" stroke-width="__RESOLUTION__" d="M8.5 1.3q-6.1 5-1 12.1-1-5.1 1-12.1" vector-effect="non-scaling-stroke"/></g><g id="H"><path fill="#f8e7cc" d="M1.5 4.9q-.9-.9-.9-2t.9-2T3.6 0t2.1.9.9 2-.9 2-2.1.9-2.1-.9"/><path fill="none" stroke="#000" stroke-linecap="round" stroke-linejoin="round" stroke-opacity=".3" stroke-width="__RESOLUTION__" d="M1.5 4.9q-.9-.9-.9-2t.9-2T3.6 0t2.1.9.9 2-.9 2-2.1.9-2.1-.9" vector-effect="non-scaling-stroke"/><path fill="#141414" d="M1.4 1.4q2.7-2 4.8.3z"/><path fill="none" stroke="#000" stroke-linecap="round" stroke-linejoin="round" stroke-opacity=".3" stroke-width="__RESOLUTION__" d="m1.4 1.4 4.8.3Q4-.6 1.3 1.4" vector-effect="non-scaling-stroke"/><path fill="#825854" d="M6.4 8.7q.5 1.8 1.9 3.6Q13 22 7.2 31.7 4.6 33.1 2 30.4q4.8-6.7.8-15.1Q.9 11.8.5 8.9z"/><path fill="#60413e" d="M.5 8.9Q0 5.8 1 3.4h5.6q-1 2.7-.3 5.3z"/><path fill="none" stroke="#000" stroke-linecap="round" stroke-linejoin="round" stroke-opacity=".3" stroke-width="__RESOLUTION__" d="M6.4 8.7q.5 1.8 1.9 3.6Q13 22 7.2 31.7 4.6 33.1 2 30.4q4.8-6.7.8-15.1Q.9 11.8.5 8.9 0 5.8 1 3.4h5.6q-1 2.7-.3 5.3" vector-effect="non-scaling-stroke"/><path fill="#825854" d="M1.6 5.3H0q-.3-1.5.5-2.8L7 2.4q.4 1.6-.4 3.1H5.3z"/><path fill="none" stroke="#000" stroke-linecap="round" stroke-linejoin="round" stroke-opacity=".3" stroke-width="__RESOLUTION__" d="M1.6 5.3H0q-.3-1.5.5-2.8L7 2.4q.4 1.6-.4 3.1H5.3" vector-effect="non-scaling-stroke"/></g><g id="I"><path fill="#f8e7cc" d="M6.1 3.3q-.3 1.2-1.4 2t-2.3.6q-1.3-.2-2-1.1T.1 2.6t1.4-2T3.8 0t2 1.1.3 2.2"/><path fill="none" stroke="#000" stroke-linecap="round" stroke-linejoin="round" stroke-opacity=".3" stroke-width="__RESOLUTION__" d="M6.1 3.3q-.3 1.2-1.4 2t-2.3.6q-1.3-.2-2-1.1T.1 2.6t1.4-2T3.8 0t2 1.1.3 2.2" vector-effect="non-scaling-stroke"/><path fill="#141414" d="M.3 3.1Q1.6-.2 4.8.4 1.9 1.5.3 3"/><path fill="none" stroke="#000" stroke-linecap="round" stroke-linejoin="round" stroke-opacity=".3" stroke-width="__RESOLUTION__" d="M.3 3.1Q1.9 1.5 4.8.4 1.5-.2.3 3" vector-effect="non-scaling-stroke"/><path fill="#825854" d="M8.9 5.8q1.4 1.2 3.6 1.7 9.8 5 10.1 16.3-2.1 3.5-5.3 2.2.3-8.4-7.8-12.6-3.7-1.7-5.8-3.7z"/><path fill="#60413e" d="M3.7 9.7Q1.5 7.5 1.1 4.8L6 1.4q.7 2.8 2.9 4.4z"/><path fill="none" stroke="#000" stroke-linecap="round" stroke-linejoin="round" stroke-opacity=".3" stroke-width="__RESOLUTION__" d="M8.9 5.8q1.4 1.2 3.6 1.7 9.8 5 10.1 16.3-2.1 3.5-5.3 2.2.3-8.4-7.8-12.6-3.7-1.7-5.8-3.7-2.2-2.2-2.6-4.9L6 1.4q.7 2.8 2.9 4.4" vector-effect="non-scaling-stroke"/><path fill="#825854" d="m3 5.9-1.7 1Q.1 6 .1 4.4l5.6-4q1.4 1 1.4 2.8L5.9 4z"/><path fill="none" stroke="#000" stroke-linecap="round" stroke-linejoin="round" stroke-opacity=".3" stroke-width="__RESOLUTION__" d="m3 5.9-1.7 1Q.1 6 .1 4.4l5.6-4q1.4 1 1.4 2.8L5.9 4" vector-effect="non-scaling-stroke"/></g><g id="J"><path fill="#fff7e6" d="M0 .1 2.3 0q5.5-.2 9.5 3.9 3.4 3.5 4 8.3L16 14q.1 6-3 9.9l-.5.5q-3.5 4-9.6 4.4H1z"/><path fill="none" stroke="#58360e" stroke-linecap="round" stroke-linejoin="round" stroke-width="__RESOLUTION__" d="M1.1 28.8h1.8q6-.2 9.6-4.3l.5-.5q3.1-3.8 3-10l-.1-1.8q-.7-4.8-4.1-8.3Q7.8-.2 2.3 0L0 .1" vector-effect="non-scaling-stroke"/></g><g id="i"><path fill="#aba590" d="M34.7 10.6 27.9.7l9.9-.7z"/><path fill="none" stroke="#000" stroke-linecap="round" stroke-linejoin="round" stroke-opacity=".3" stroke-width="__RESOLUTION__" d="m34.7 10.6 3-10.6-9.8.7z" vector-effect="non-scaling-stroke"/><path fill="#aba590" d="m41.3 23.4-9.6.5q3-4.2 4.6-9.7z"/><path fill="none" stroke="#000" stroke-linecap="round" stroke-linejoin="round" stroke-opacity=".3" stroke-width="__RESOLUTION__" d="m41.3 23.4-5-9.2q-1.6 5.5-4.6 9.7z" vector-effect="non-scaling-stroke"/><path fill="#aba590" d="m22.1 1.3 2.8 4.6q-4-1-9.4.2z"/><path fill="none" stroke="#000" stroke-linecap="round" stroke-linejoin="round" stroke-opacity=".3" stroke-width="__RESOLUTION__" d="M22.1 1.3 15.5 6q5.4-1.2 9.4-.2z" vector-effect="non-scaling-stroke"/><path fill="#aba590" d="m31.8 19.2-10.4 4.1q4.9-5.5 6.2-9.2z"/><path fill="none" stroke="#000" stroke-linecap="round" stroke-linejoin="round" stroke-opacity=".3" stroke-width="__RESOLUTION__" d="m31.8 19.2-4.2-5.1q-1.3 3.8-6.2 9.2z" vector-effect="non-scaling-stroke"/><path fill="#aba590" d="m0 9.4 10.7-3.3Q5.9 15.5 6.8 19z"/><path fill="none" stroke="#000" stroke-linecap="round" stroke-linejoin="round" stroke-opacity=".3" stroke-width="__RESOLUTION__" d="M0 9.4 6.8 19q-1-3.5 3.9-13z" vector-effect="non-scaling-stroke"/></g><g id="h" transform="translate(6.7 10.7)"><use xlink:href="#a" width="11.7" height="10.7" transform="matrix(.9865 0 0 .6259 -5.6 -10.7)"/><use xlink:href="#b" width="14.2" height="10.3" transform="matrix(.9722 0 0 .9269 -6.7 -9.7)"/></g><g id="g"><path fill="#aba590" d="M21.7 34.6 32 31l-3.2 9.7z"/><path fill="none" stroke="#000" stroke-linecap="round" stroke-linejoin="round" stroke-opacity=".3" stroke-width="__RESOLUTION__" d="m21.7 34.6 7.2 6.1 3-9.7z" vector-effect="non-scaling-stroke"/><path fill="#484436" d="M14.2 36.7q-4.9-1.1-8.7-5Q0 26.4 0 18.7T5.5 5.5 18.6 0q4.2 0 7.8 1.6Q44 29 14.2 36.7"/><path fill="#29271f" d="M26.4 1.6q2.9 1.4 5.4 3.9 5.4 5.4 5.4 13.1t-5.4 13.2-13.2 5.4l-4.4-.5Q44.1 29 26.4 1.6"/><path fill="none" stroke="#000" stroke-linecap="round" stroke-linejoin="round" stroke-opacity=".3" stroke-width="__RESOLUTION__" d="M14.2 36.7q-4.9-1.1-8.7-5Q0 26.4 0 18.7T5.5 5.5 18.6 0q4.2 0 7.8 1.6 2.9 1.4 5.4 3.9 5.4 5.4 5.4 13.1t-5.4 13.2-13.2 5.4z" vector-effect="non-scaling-stroke"/></g><g id="t"><path fill="#807b6c" d="M11.2.1Q8.8 7.4 2.1 10.2L0 0z"/><path fill="none" stroke="#000" stroke-linecap="round" stroke-linejoin="round" stroke-opacity=".3" stroke-width="__RESOLUTION__" d="M11.2.1 0 0l2 10.2Q8.9 7.4 11.3.1" vector-effect="non-scaling-stroke"/><path fill="#807b6c" d="m11.1 37.7-5.2-10q7.5-1.2 13.2 3.4z"/><path fill="none" stroke="#000" stroke-linecap="round" stroke-linejoin="round" stroke-opacity=".3" stroke-width="__RESOLUTION__" d="m11.1 37.7 8-6.6q-5.6-4.6-13.2-3.3z" vector-effect="non-scaling-stroke"/></g><g id="s" transform="translate(6.7 21.05)"><use xlink:href="#a" width="11.7" height="10.7" transform="translate(-5.6 -17.4)"/><use xlink:href="#b" width="14.2" height="10.3" transform="matrix(.9155 0 0 1 -6.5 -10.25)"/></g><g id="r" transform="translate(6.7 21.05)"><use xlink:href="#c" width="11.7" height="10.7" transform="matrix(.9865 0 0 .6259 -5.6 -10.7)"/><use xlink:href="#d" width="14.2" height="10.3" transform="matrix(.9722 0 0 .9269 -6.7 -9.7)"/></g><g id="l" transform="translate(6.7 21.05)"><use xlink:href="#c" width="11.7" height="10.7" transform="translate(-5.6 -17.4)"/><use xlink:href="#d" width="14.2" height="10.3" transform="matrix(.9155 0 0 1 -6.5 -10.25)"/></g><g id="k"><path fill="#60413e" d="m29.9 11.7-7.6 5.5q-1.9 1.3-3.5 1.1t-7-3.4T0 2l30.4-2q5.2 7.5-.5 11.7"/><path fill="none" stroke="#000" stroke-linecap="round" stroke-linejoin="round" stroke-opacity=".3" stroke-width="__RESOLUTION__" d="M29.9 11.7q5.7-4.2.5-11.7L0 2q6.5 9.7 11.9 13 5.3 3.2 7 3.3 1.5.2 3.4-1.2z" vector-effect="non-scaling-stroke"/></g><g id="j" transform="translate(6.7 21.05)"><use xlink:href="#e" width="11.7" height="10.7" transform="translate(-5.6 -17.4)"/><use xlink:href="#f" width="14.2" height="10.3" transform="matrix(.9155 0 0 1 -6.5 -10.25)"/></g><g id="Q" transform="translate(21.55 25.8)"><use xlink:href="#g" width="37.2" height="40.8" transform="translate(-17.95 -20.15)"/><use xlink:href="#h" width="13.8" height="10.6" transform="matrix(.9045 .8126 .601 -.6559 -21.55 8.6)"/><use xlink:href="#h" width="13.8" height="10.6" transform="matrix(1.19 .1597 -.0837 1.11 -9.5 -25.8)"/><use xlink:href="#i" width="41.3" height="23.9" transform="translate(-19.25 -14.9)"/></g><g id="O" transform="translate(31.1 23.3)"><use xlink:href="#j" width="13.8" height="21.1" transform="matrix(.498 -.7148 .5892 .4598 -27.65 -13.45)"/><use xlink:href="#k" width="32.9" height="18.4" transform="translate(-13.65 3.8)"/><use xlink:href="#l" width="13.8" height="21.1" transform="rotate(-91 -11.45 19.26)scale(.9978)"/><use xlink:href="#r" width="13.8" height="21.1" transform="matrix(.5508 .5202 -.5421 .515 21.7 -23.15)"/><use xlink:href="#s" width="13.8" height="21.1" transform="matrix(-.3172 -.9467 -.9467 .3172 31 1.3)"/><use xlink:href="#t" width="19.1" height="37.7" transform="translate(-18.15 -16.6)"/></g><use xlink:href="#u" id="b" width="14.2" height="10.3"/><use xlink:href="#v" id="a" width="11.7" height="10.7"/><use xlink:href="#C" id="d" width="14.2" height="10.3"/><use xlink:href="#D" id="c" width="11.7" height="10.7"/><use xlink:href="#E" id="f" width="14.2" height="10.3"/><use xlink:href="#F" id="e" width="11.7" height="10.7"/><use xlink:href="#G" id="S" width="15.1" height="15.1"/><use xlink:href="#H" id="R" width="10.4" height="32.2"/><use xlink:href="#I" id="P" width="22.6" height="26.4"/><use xlink:href="#J" id="N" width="16" height="28.9"/><use xlink:href="#K" id="M" width="53.5" height="15.4"/><clipPath id="L"><path d="M1 1h63v80H1z"/></clipPath><path id="K" fill="#382c16" d="M19.4-6.5q7.8 1.6 8 4.9.1 3.1-7.5 5.7-7.8 2.7-19 3.4-11 .6-19-1.1t-8-4.9q-.3-3.1 7.4-5.8T.2-7.6q11.1-.7 19.2 1.1" transform="translate(26.15 7.8)"/></defs><g clip-path="url(#L)"><g transform="translate(31.45 72.8)"><use xlink:href="#M" width="53.5" height="15.4" transform="matrix(-.5156 .0707 0 .8009 13.5 -8.1)"/><use xlink:href="#N" width="16" height="28.9" transform="rotate(2.737 837.006 150.662)scale(.9967)"/><use xlink:href="#O" width="62.1" height="45.5" transform="translate(-30.45 -48.85)"/><use xlink:href="#P" width="22.6" height="26.4" transform="translate(-27.3 -65.6)"/><use xlink:href="#Q" width="43.5" height="46.4" transform="translate(-22 -50.45)"/><use xlink:href="#R" width="10.4" height="32.2" transform="translate(3.05 -71.8)"/><use xlink:href="#S" width="15.1" height="15.1" transform="translate(-11.7 -29.45)"/></g></g></svg>