<svg xmlns="http://www.w3.org/2000/svg" xmlns:xlink="http://www.w3.org/1999/xlink" width="664" height="30" viewBox="0 0 664 30"><defs><path id="k" fill="url(#a)" d="M42.2 16.5q-8.8.2-7 5.2-7.3-2.2-9.5 1.9-4.5-4.4-10.4-2.9-3.1-5-10.6-6Q5.7 10.3 0 9q4.9-1.4 2.8-5.4Q18 8.3 15.8 0q5.8 4.7 11.3 1.6.8 5 6.7 5.2.9 3.2 11.1 3-6.5.7-2.7 6.6"/><path id="l" fill="url(#b)" d="M42.2 16.5q-8.8.2-7 5.2-7.3-2.2-9.5 1.9-4.5-4.4-10.4-2.9-3.1-5-10.6-6Q5.7 10.3 0 9q4.9-1.4 2.8-5.4Q18 8.3 15.8 0q5.8 4.7 11.3 1.6.8 5 6.7 5.2.9 3.2 11.1 3-6.5.7-2.7 6.6"/><path id="m" fill="url(#c)" d="M42.2 16.5q-8.8.2-7 5.2-7.3-2.2-9.5 1.9-4.5-4.4-10.4-2.9-3.1-5-10.6-6Q5.7 10.3 0 9q4.9-1.4 2.8-5.4Q18 8.3 15.8 0q5.8 4.7 11.3 1.6.8 5 6.7 5.2.9 3.2 11.1 3-6.5.7-2.7 6.6"/><path id="n" fill="url(#d)" d="M42.2 16.5q-8.8.2-7 5.2-7.3-2.2-9.5 1.9-4.5-4.4-10.4-2.9-3.1-5-10.6-6Q5.7 10.3 0 9q4.9-1.4 2.8-5.4Q18 8.3 15.8 0q5.8 4.7 11.3 1.6.8 5 6.7 5.2.9 3.2 11.1 3-6.5.7-2.7 6.6"/><path id="o" fill="url(#e)" d="M42.2 16.5q-8.8.2-7 5.2-7.3-2.2-9.5 1.9-4.5-4.4-10.4-2.9-3.1-5-10.6-6Q5.7 10.3 0 9q4.9-1.4 2.8-5.4Q18 8.3 15.8 0q5.8 4.7 11.3 1.6.8 5 6.7 5.2.9 3.2 11.1 3-6.5.7-2.7 6.6"/><path id="p" fill="url(#f)" d="M42.2 16.5q-8.8.2-7 5.2-7.3-2.2-9.5 1.9-4.5-4.4-10.4-2.9-3.1-5-10.6-6Q5.7 10.3 0 9q4.9-1.4 2.8-5.4Q18 8.3 15.8 0q5.8 4.7 11.3 1.6.8 5 6.7 5.2.9 3.2 11.1 3-6.5.7-2.7 6.6"/><path id="q" fill="url(#g)" d="M42.2 16.5q-8.8.2-7 5.2-7.3-2.2-9.5 1.9-4.5-4.4-10.4-2.9-3.1-5-10.6-6Q5.7 10.3 0 9q4.9-1.4 2.8-5.4Q18 8.3 15.8 0q5.8 4.7 11.3 1.6.8 5 6.7 5.2.9 3.2 11.1 3-6.5.7-2.7 6.6"/><path id="r" fill="url(#h)" d="M42.2 16.5q-8.8.2-7 5.2-7.3-2.2-9.5 1.9-4.5-4.4-10.4-2.9-3.1-5-10.6-6Q5.7 10.3 0 9q4.9-1.4 2.8-5.4Q18 8.3 15.8 0q5.8 4.7 11.3 1.6.8 5 6.7 5.2.9 3.2 11.1 3-6.5.7-2.7 6.6"/><path id="t" fill="url(#i)" d="M42.2 16.5q-8.8.2-7 5.2-7.3-2.2-9.5 1.9-4.5-4.4-10.4-2.9-3.1-5-10.6-6Q5.7 10.3 0 9q4.9-1.4 2.8-5.4Q18 8.3 15.8 0q5.8 4.7 11.3 1.6.8 5 6.7 5.2.9 3.2 11.1 3-6.5.7-2.7 6.6"/><path id="z" fill="url(#j)" d="M42.2 16.5q-8.8.2-7 5.2-7.3-2.2-9.5 1.9-4.5-4.4-10.4-2.9-3.1-5-10.6-6Q5.7 10.3 0 9q4.9-1.4 2.8-5.4Q18 8.3 15.8 0q5.8 4.7 11.3 1.6.8 5 6.7 5.2.9 3.2 11.1 3-6.5.7-2.7 6.6"/><path id="ay" fill="#9e3f28" d="m-3-1.5.2.5.6.5 1.8.9.8.2h1.2L3-.2v-.1l.2-.1.1-.4Q3.2-1 2.9-1l-.6-.2-.8-.1H.1l-.6.1-1-.1-.2-.1H-2q-.3-.1-.3-.4l-.4.1z" transform="translate(2.95 1.8)"/><path id="au" fill="#9e3f28" d="m-3.8-1.8.1.7.8.8L-.6 1l1 .3 1.7-.1Q3.3.7 4.1 0l.2-.3.1-.4q-.3-.4-.7-.5l-.9-.3h-1L0-1.4l-.9.1-1.4-.1-.3-.2H-3q-.4-.2 0-.6l-.5.2z" transform="translate(3.85 2.2)"/><path id="aq" fill="#9e3f28" d="m-4.7-2.1.1.8.9 1.1 2.8 1.8L.6 2l2-.2Q4.3 1.2 5 .1l.3-.3v-.5q-.2-.6-.8-.8l-1-.4H2.3q-1.5.1-2.4.4l-1.1.1-1.9-.2-.4-.2-.4-.1q-.5-.2.2-.8l-.6.3z" transform="translate(4.75 2.6)"/><path id="am" fill="#9e3f28" d="M-5.6-2.4v.1l.1 1 1 1.3L-1 2.2l1.7.5 2.6-.3Q5 1.7 6 .4l.3-.4v-.6q-.2-.7-.9-1L4.1-2H2.6q-1.7.1-2.8.5l-1.3.2-2.3-.3-.5-.2-.5-.2q-.5-.3.4-1l-.7.3z" transform="translate(5.65 3)"/><path id="ai" fill="#9e3f28" d="M-6.6-2.7v.2l.3 1Q-6-.7-5.2 0l3.8 2.8 2.2.6 3-.5q2-.7 3.2-2.2l.3-.5v-.7q-.2-1-1-1.3l-1.6-.5H3Q.9-2-.4-1.6l-1.5.4-2.7-.4-.6-.3-.5-.2q-.6-.3.6-1.2l-.8.3z" transform="translate(6.6 3.45)"/><path id="ae" fill="#9e3f28" d="M-7.5-3v.2l.3 1.2q.4 1 1.2 1.8l4.4 3.2 2.4.7 3.5-.6Q6.7 2.7 7.9 1V.9l.4-.5v-.8Q8.1-1.6 7.1-2l-1.7-.7-2 .1q-2.4.2-3.9.7l-1.8.4-3-.5H-6l-.6-.3q-.8-.4.8-1.5l-.9.5z" transform="translate(7.5 3.85)"/><path id="aa" fill="#9e3f28" d="M-8.4-3.2v.2l.3 1.4q.4 1 1.3 2l5 3.6 2.8.8L5 4q2.6-.9 4-2.9l.4-.7v-.9Q9.1-1.6 8-2.1l-2-.7-2.3.1q-2.7.2-4.3.9l-2 .4L-6-2l-.8-.3-.8-.3q-.7-.5 1.1-1.7l-1 .5z" transform="translate(8.4 4.25)"/><path id="V" fill="#9e3f28" d="M-9.3-3.5v.2l.3 1.6Q-8.6-.6-7.5.5l5.4 4.1 3.2.9 4.3-.8q3-1 4.5-3.2l.5-.8-.1-1q-.2-1.5-1.5-2l-2.2-.8-2.5.2q-3 .2-4.9 1l-2.3.4-3.8-.6-.8-.3-.8-.4q-.9-.5 1.2-1.9l-1 .7z" transform="translate(9.35 4.7)"/><path id="P" fill="#9e3f28" d="M-10.8-4v.1q0 2.4 2 4.6l.1.1 6.1 4.8.3.1q2.1.6 3.4.8h.3q6.9-.3 9.6-4l.2-.2.4-.7v-.1l.3-1q-.3-2.9-2-3.8l-.3-.1L8-4.1l-.6-.1Q6-4.4 4.5-4.3l-1.1.2q-2.1.6-4.1 1.8l-.6.4-2 .4h-.6L-7.6-2l-.6-.2-.5-.2-.4-.2-.5-.2-.4-.3q-.6-.6 1.6-2.1z" transform="translate(10.8 5.5)"/><path id="K" fill="#9e3f28" d="M-12.3-4.3Q-12.4-1.5-10 1l7.1 5.6.3.1q2.8 1 3.9.8h.4q8-.3 11-4.8l.2-.1.4-1 .1-.2V.3q-.5-3.5-2.3-4.5l-.4-.2L9-5.1l-.5-.2Q6.7-5.9 5-5.7l-1.3.3q-2.2.6-4.3 2.8l-.6.5-2.2.5h-.7l-4.3-.6-.7-.2-.5-.1-.6-.3-.6-.3-.4-.2q-.9-.8 1.6-2.6h.1z" transform="translate(12.3 6.3)"/><path id="E" fill="#9e3f28" d="M-13.8-4.8q-.1 3.2 2.6 6.2v.1l8 6.4.4.1q3.4 1.2 4.4.7H2q9.2-.2 12.5-5.6h.1V3l.6-1.1v-.2L14.9.2q-.7-4.2-2.5-5.4l-.5-.2-2-.8-.6-.2q-2-1-3.9-.6L4-6.6Q1.7-6-.6-3l-.6.7-2.5.6-.8.1-4.8-.6-.8-.2-.6-.2-.6-.3-.7-.3-.6-.3q-1.2-.8 1.7-3h.2z" transform="translate(13.8 7.15)"/><g id="s"><path fill="#000" fill-opacity=".4" d="m12.9 15.4-1.8.3L9 16q-4.2-.1-5.3-1Q.9 12.8.2 10.6q-.8-2.8 1.6-5.8l.9-1Q5.6.5 8.1 0h2q1.2.4 2.3 1.4l.4.4q1.5 1.6 2.3 3V5q1.3 2.2 1.3 4.4v.4l-.4 2q-.8 2-1.4 2.3zm1.8-6.7-.5.6q-.3.3-.2.7-.1.4.2.6l.5-.1.6-.6.3-.7-.3-.6zm-10.4.4q-.7 0-.9.3-.1.4.4.8L5 11l1.5.3q.6 0 .8-.3.1-.4-.4-.8l-1.3-.8z"/><path fill="#999" fill-opacity=".4" d="m14.8 8.7.5-.1.3.6-.3.7-.6.6h-.5q-.3-.1-.3-.4l.2-.8zm-10.5.4 1.5.2 1.3.8q.4.5.3.9t-.9.4L5 11l-1.3-.8q-.5-.4-.3-.8t.9-.4"/><path fill="none" stroke="#000" stroke-linecap="round" stroke-linejoin="round" stroke-opacity=".1" stroke-width="__RESOLUTION__" d="m12.9 15.4-1.8.3L9 16q-4.2-.1-5.3-1Q.9 12.8.2 10.6q-.8-2.8 1.6-5.8l.9-1Q5.6.5 8.1 0h2q1.2.4 2.3 1.4l.4.4q1.5 1.6 2.3 3V5q1.3 2.2 1.3 4.4m0 .4-.4 2q-.8 2-1.4 2.3" vector-effect="non-scaling-stroke"/></g><g id="u"><path fill="#000" fill-opacity=".6" d="m12.9 15.4-1.8.3L9 16q-4.2-.1-5.3-1Q.9 12.8.2 10.6q-.8-2.8 1.6-5.8l.9-1Q5.6.5 8.1 0h2q1.2.4 2.3 1.4l.4.4q1.5 1.6 2.3 3V5q1.3 2.2 1.3 4.4v.4l-.4 2q-.8 2-1.4 2.3zm1.8-6.7-.5.6q-.3.3-.2.7-.1.4.2.6l.5-.1.6-.6.3-.7-.3-.6zm-10.4.4q-.7 0-.9.3-.1.4.4.8L5 11l1.5.3q.6 0 .8-.3.1-.4-.4-.8l-1.3-.8z"/><path fill="#bbb" fill-opacity=".6" d="m14.8 8.7.5-.1.3.6-.3.7-.6.6h-.5q-.3-.1-.3-.4l.2-.8zm-10.5.4 1.5.2 1.3.8q.4.5.3.9t-.9.4L5 11l-1.3-.8q-.5-.4-.3-.8t.9-.4"/><path fill="none" stroke="#000" stroke-linecap="round" stroke-linejoin="round" stroke-opacity=".2" stroke-width="__RESOLUTION__" d="m12.9 15.4-1.8.3L9 16q-4.2-.1-5.3-1Q.9 12.8.2 10.6q-.8-2.8 1.6-5.8l.9-1Q5.6.5 8.1 0h2q1.2.4 2.3 1.4l.4.4q1.5 1.6 2.3 3V5q1.3 2.2 1.3 4.4m0 .4-.4 2q-.8 2-1.4 2.3" vector-effect="non-scaling-stroke"/></g><g id="v"><path fill="#000" fill-opacity=".8" d="m12.9 15.4-1.8.3L9 16q-4.2-.1-5.3-1Q.9 12.8.2 10.6q-.8-2.8 1.6-5.8l.9-1Q5.6.5 8.1 0h2q1.2.4 2.3 1.4l.4.4q1.5 1.6 2.3 3V5q1.3 2.2 1.3 4.4v.4l-.4 2q-.8 2-1.4 2.3zm1.8-6.7-.5.6q-.3.3-.2.7-.1.4.2.6l.5-.1.6-.6.3-.7-.3-.6zm-10.4.4q-.7 0-.9.3-.1.4.4.8L5 11l1.5.3q.6 0 .8-.3.1-.4-.4-.8l-1.3-.8z"/><path fill="#ddd" fill-opacity=".8" d="m14.8 8.7.5-.1.3.6-.3.7-.6.6h-.5q-.3-.1-.3-.4l.2-.8zm-10.5.4 1.5.2 1.3.8q.4.5.3.9t-.9.4L5 11l-1.3-.8q-.5-.4-.3-.8t.9-.4"/><path fill="none" stroke="#000" stroke-linecap="round" stroke-linejoin="round" stroke-opacity=".2" stroke-width="__RESOLUTION__" d="m12.9 15.4-1.8.3L9 16q-4.2-.1-5.3-1Q.9 12.8.2 10.6q-.8-2.8 1.6-5.8l.9-1Q5.6.5 8.1 0h2q1.2.4 2.3 1.4l.4.4q1.5 1.6 2.3 3V5q1.3 2.2 1.3 4.4m0 .4-.4 2q-.8 2-1.4 2.3" vector-effect="non-scaling-stroke"/></g><g id="w"><path fill="#b85c45" d="M6.9 2.2q3.3.3 5.6 1.2L11 4q-2-.3-3.7-1.2v.1h-.1zm.4.7q.9 1.3 1.9 1.7 1.6.8 3.5-.4-.5 2.8-5.1 2L7.3 6l-.2.3q-1.4.3-6-3Q-.2 1.8.1.4 0-.2 1.3.1-.8.9 6.5 3.9l1.1.4zm0 3q.4-.8.3-1.6 0 .9-.3 1.6"/><path fill="#de6f54" d="M12.5 3.5q-2.3-1-5.6-1.3l.3.7.4 1.4-1.1-.4Q-.8.9 1.3 0l1.4.6q1.6.1 4.2 1.5 3-.8 5.6 1.2m-5.2-.6Q9.1 3.7 11 4h1.6q-1.9 1.3-3.5.5-1-.4-1.8-1.7"/><path fill="none" stroke="#000" stroke-linecap="round" stroke-linejoin="round" stroke-opacity=".3" stroke-width="__RESOLUTION__" d="M12.5 3.5 11 4q-2-.3-3.7-1.2v.1h-.1l-.3-.7Q4.2.8 2.7.6L1.2.1Q.3-.2.1.4q-.3 1.4 1 2.8 4.6 3.4 6 3l.2-.3.3.3q4.6.7 5-2.1L11 4M6.9 2.2q3-.8 5.6 1.2m-4.9.9-.3-1.4m.3 1.4q0 .9-.3 1.6" vector-effect="non-scaling-stroke"/></g><g id="x"><path fill="#000" d="m12.9 15.4-1.8.3L9 16q-4.2-.1-5.3-1Q.9 12.8.2 10.6q-.8-2.8 1.6-5.8l.9-1Q5.6.5 8.1 0h2q1.2.4 2.3 1.4l.4.4q1.5 1.6 2.3 3V5q1.3 2.2 1.3 4.4v.4l-.4 2q-.8 2-1.4 2.3zm1.8-6.7-.5.6q-.3.3-.2.7-.1.4.2.6l.5-.1.6-.6.3-.7-.3-.6zm-10.4.4q-.7 0-.9.3-.1.4.4.8L5 11l1.5.3q.6 0 .8-.3.1-.4-.4-.8l-1.3-.8z"/><path fill="#fff" d="m14.8 8.7.5-.1.3.6-.3.7-.6.6h-.5q-.3-.1-.3-.4l.2-.8zm-10.5.4 1.5.2 1.3.8q.4.5.3.9t-.9.4L5 11l-1.3-.8q-.5-.4-.3-.8t.9-.4"/><path fill="none" stroke="#000" stroke-linecap="round" stroke-linejoin="round" stroke-opacity=".3" stroke-width="__RESOLUTION__" d="m12.9 15.4-1.8.3L9 16q-4.2-.1-5.3-1Q.9 12.8.2 10.6q-.8-2.8 1.6-5.8l.9-1Q5.6.5 8.1 0h2q1.2.4 2.3 1.4l.4.4q1.5 1.6 2.3 3V5q1.3 2.2 1.3 4.4m0 .4-.4 2q-.8 2-1.4 2.3" vector-effect="non-scaling-stroke"/></g><g id="y"><path fill="#b85c45" d="M2.4 4q-.6 0-.9.5l-.2.5-.8 2.6q-.6-.4-.5-1.2-.1-1 .4-1.8L.8 4l.6-.3q.6 0 1 .3m-1-.3L.8 4l-.4.6q-.1-2 .3-2.9-.1-2 .8-1.6-.4 1.8-.2 3.6zm-.2 3.6.2-.4.5-1.5Q2 3.8 3 4.5q.2.5-.1 1.2l-.3.8-1.2 2-.8-.4z"/><path fill="#de6f54" d="M.5 7.6 1.3 5l.2-.5q.3-.5.9-.5-.4-.3-1-.4Q1 2 1.4 0q1.4.5 2.1 2 .8 2.5.7 3.7.4 1-.3 1.7-1.4 1.4-2.5 1.1l1.2-2 .3-.8q.3-.7.1-1.2-1-.6-1.1.9l-.5 1.4-.2.4zM2.4 4l.6.5zm.6.5q1 .4 1.2 1v.2-.2Q4 4.9 3 4.5"/><path fill="none" stroke="#000" stroke-linecap="round" stroke-linejoin="round" stroke-opacity=".3" stroke-width="__RESOLUTION__" d="m2.4 4-1-.3v0L.8 4l-.4.6q-.5.9-.4 1.8-.1.8.5 1.1h0l.7-.3.2-.4.5-1.4Q2 3.8 3 4.5zm-1-4Q.6-.3.8 1.7q-.4.9-.3 2.9M3 4.5q.2.5-.1 1.2M1.4 8.5q1.1.3 2.5-1.1.7-.7.3-1.7v-.2Q4 4.8 3 4.5M1.5.1q1.3.4 2 1.9.8 2.5.7 3.7m-3 1.5-.6.9.8.4" vector-effect="non-scaling-stroke"/></g><g id="aB"><path fill="#d15536" d="M4.6 1Q3.1 2.2 2.7 2-.4 1 0 .6 1.7-.2 3.5.2q1 .3 1.2.9"/><path fill="none" stroke="#000" stroke-linecap="round" stroke-linejoin="round" stroke-opacity=".3" stroke-width="__RESOLUTION__" d="M4.6 1Q3.1 2.2 2.7 2-.4 1 0 .6 1.7-.2 3.5.2q1 .3 1.2.9" vector-effect="non-scaling-stroke"/><path fill="#9e3f28" d="M0 .6.3.5l4.4.5q0 .2-1.4.9-1.9-.1-3-1z"/></g><g id="ax"><path fill="#d15536" d="M0 .9v.2l1 1 1.8.9.8.3.3-.1q1 0 2.2-1l.3-.2.2-.2-.1-.2-.2-.3-.8-.8-.6-.3L3.5 0 2 .1.8.6z"/><path fill="none" stroke="#000" stroke-linecap="round" stroke-linejoin="round" stroke-opacity=".3" stroke-width="__RESOLUTION__" d="M0 .9.9.6 2 0h1.6L5 .3l.5.3.9.7.2.4h0l-.1.3-.2.2q-1.2 1-2.3 1h-.3L2.8 3 1 2.1l-1-1 1 .2 1.6.2 1 .1.8.2q.4.1 1.4-.5l.5.3h.2l-.6-.3h-.4q-.7.4-1.8.4h-1L1.5 2 .4 1.5zm3.8.2" vector-effect="non-scaling-stroke"/></g><g id="at"><path fill="#d15536" d="M0 1.3q.3.8 1.1 1.5l2.4 1.4 1.2.3H5q1.8 0 3-1.5l.3-.2.2-.4-.1-.2-.3-.5L7 .8 6.4.4 4.6 0l-2 .2L1 .8z"/><path fill="none" stroke="#000" stroke-linecap="round" stroke-linejoin="round" stroke-opacity=".3" stroke-width="__RESOLUTION__" d="m0 1.3 1-.5L2.7.2 4.6 0l1.8.4.7.4 1 1 .4.5v.2l-.1.4-.2.2Q6.8 4.5 5 4.5l-.4.1-1.2-.3L1 2.9q-.7-.7-1-1.5h1.2L3 1.3h1.6q1 .1 1.3.3.4.3 1.4-.1l.7.6.3.2h0H8l-.4.1q-1 .8-2.7.9H2.3L.6 2.5Q0 2 0 1.5m3 .2" vector-effect="non-scaling-stroke"/></g><g id="ap"><path fill="#d15536" d="M0 1.7q.2 1.1 1.3 2l2.9 2 1.5.3h.5q2.5-.2 3.9-1.9l.4-.3v-.6l-.1-.3-.4-.6-1.2-1.2-.9-.5L5.8.1 3.3.3 1.2 1z"/><path fill="none" stroke="#000" stroke-linecap="round" stroke-linejoin="round" stroke-opacity=".3" stroke-width="__RESOLUTION__" d="M0 1.7 1.2 1l2-.9L5.7 0Q7.5.3 8 .6l.8.5L10 2.3l.4.6.2.3-.1.5-.4.4Q8.7 5.8 6.2 6h-.5l-1.5-.3-3-2q-1-.9-1.2-2l1.3-.1L3.6 1h2.2l1.9.5q.5.3 1.3.1l1 1 .4.3.1.2-.3.2-.5.3Q8.6 4.8 6.1 5H3.4L.8 3.4Q0 2.6 0 1.8m2.3.1" vector-effect="non-scaling-stroke"/></g><g id="al"><path fill="#d15536" d="M0 2q0 1.3 1.4 2.4L4.9 7l2 .4h.6q3.1-.2 4.7-2.2l.4-.5V4l-.2-.5-.4-.7-1.4-1.4-1-.7Q9 .4 6.8 0L3.9.4l-2.5 1z"/><path fill="none" stroke="#000" stroke-linecap="round" stroke-linejoin="round" stroke-opacity=".3" stroke-width="__RESOLUTION__" d="m0 2 1.4-.7 2.5-1L6.8 0Q9 .4 9.6.7l1 .7L11.9 3l.5.7.2.4v.6l-.5.5q-1.5 2-4.7 2.3h-.6L5 7 1.4 4.6Q.1 3.4 0 2l1.5-.4L4.1.9 6.9.7q2 .4 2.5.7t1.2.4L12 3l.5.6.2.4-.3.4-.4.4q-1.4 1.7-4.6 2h-.9l-2-.2-3.3-2.2Q-.1 3.2 0 2m1.6.1" vector-effect="non-scaling-stroke"/></g><g id="ah"><path fill="#d15536" d="M0 2.4q0 1.5 1.5 3l4.1 2.9 2.3.5.7-.1q3.9-.3 5.6-2.6l.3-.6.1-.7-.2-.5-.6-.9-1.6-1.7-1.1-.8Q10.5.5 7.9.1L4.5.4 1.6 1.6z"/><path fill="none" stroke="#000" stroke-linecap="round" stroke-linejoin="round" stroke-opacity=".3" stroke-width="__RESOLUTION__" d="m0 2.4 1.6-.8L4.5.4 7.9 0q2.6.5 3.2.9l1.1.8 1.6 1.7.6.9.2.5v.7l-.4.6q-1.7 2.3-5.6 2.6h-.7l-2.3-.4-4.1-3Q0 4 0 2.6l1.7-.7L4.6.7 7.9.4q2.5.4 3.1.8t1.3.7l1.5 1.6.6.8.2.5-.1.6-.5.5q-1.6 2.2-5.4 2.5h-.9l-2.3-.3-4-2.8Q-.1 3.9 0 2.5m.8 0" vector-effect="non-scaling-stroke"/></g><g id="ad"><path fill="#d15536" d="M0 2.8q-.1 1.8 1.7 3.5l4.6 3.4 2.7.5h.9q4.5-.5 6.3-3l.5-.8v-.9l-.3-.6-.7-1L14 2l-1.3-1q-.6-.4-3.6-1L5 .6 1.8 1.8z"/><path fill="none" stroke="#000" stroke-linecap="round" stroke-linejoin="round" stroke-opacity=".3" stroke-width="__RESOLUTION__" d="m0 2.8 1.8-1L5.1.5l4-.5q3 .6 3.7 1l1.1 1 1.8 2 .7.9.3.6v1l-.5.7q-1.8 2.6-6.3 3H9l-2.7-.5-4.6-3.4Q-.2 4.5 0 2.7l1.8-1L5.1.5l4-.5q3 .6 3.7 1l1.1 1 1.8 2 .7.9.3.6v1l-.5.7q-1.8 2.6-6.3 3H9l-2.7-.5-4.6-3.4Q-.2 4.5 0 2.7" vector-effect="non-scaling-stroke"/></g><g id="Z"><path fill="#d15536" d="M0 3.5q-.1 2 1.8 3.8l.1.1 5.3 4q2.2.8 2.9.6h.3l.8-.1q5.4-.5 7.4-3.5l.4-.6.1-.2v-1l-.2-.9-.4-.7-.2-.4-.4-.6-1.7-1.7-.7-.6L13.3.6q-1.5-.4-3-.5L5.9.7 2.1 2.3z"/><path fill="none" stroke="#000" stroke-linecap="round" stroke-linejoin="round" stroke-opacity=".3" stroke-width="__RESOLUTION__" d="m0 3.5 2-1.2L6 .7l4.4-.7 3 .5 2.2 1.2.7.6L17.8 4l.4.6.2.4.4.7.3.9-.1 1-.1.2-.4.6h0q-2 3-7.3 3.5l-1 .1H10q-.7.1-2.8-.6h-.1l-5.3-4-.1-.1Q-.2 5.5 0 3.5l2-1.2L6 .7l4.4-.7 3 .5 2.2 1.2.7.6L17.8 4l.4.6.2.4.4.7.3.9-.1 1-.1.2-.4.6h0q-2 3-7.3 3.5l-1 .1H10q-.7.1-2.8-.6h-.1l-5.3-4-.1-.1Q-.2 5.5 0 3.5" vector-effect="non-scaling-stroke"/></g><g id="U"><path fill="#d15536" d="M0 4q-.1 2.3 2 4.5l.1.1L8 13.2q2.4.8 3.3.7l.2-.1h.1l1-.1q6.3-.6 8.4-4l.5-.7v-.3l.1-1.1-.2-1.1-.3-.8-.3-.5-.4-.7q-.8-1-2-2l-.8-.7L15.1.6Q13.6.2 11.8 0 9.2.3 6.6.9q-2 .7-4.3 1.9z"/><path fill="none" stroke="#000" stroke-linecap="round" stroke-linejoin="round" stroke-opacity=".3" stroke-width="__RESOLUTION__" d="m0 4 2.3-1.3L6.6 1q2.6-.6 5-.9 1.9.2 3.6.6L17.6 2l.8.6q1.2 1 2 2l.4.7.3.5.2.8.3 1v1.2l-.2.3-.4.7h0q-2.1 3.4-8.4 4l-1 .1h0-.3q-.9.2-3.3-.6h0L2 8.5h0Q-.1 6.3 0 4.1l2.3-1.3Q4.7 1.6 6.6.9q2.6-.6 5-.9 1.9.2 3.6.6l2.4 1.3.8.6q1.2 1 2 2l.4.7.3.5.2.8.3 1v1.2l-.2.3-.4.7h0q-2.1 3.4-8.4 4l-1 .1h0-.3q-.9.2-3.3-.6h0L2 8.5h0Q-.1 6.3 0 4.1" vector-effect="non-scaling-stroke"/></g><g id="Q"><path fill="#9e7056" d="M0 6.4Q.4 8 2.9 8.6h.5q6.4-.6 8.9-3.7.4-1 .6-2.1l-.1-.3-.1-.2-.1-.1-1.2-.9-.9-.6-.4-.1L8.8.3h-.4L7.7.2H7l-.4.2q-1.9.4-4 1.8l-1.1 1Q-.4 4.6 0 6.4"/><path fill="none" stroke="#000" stroke-linecap="round" stroke-linejoin="round" stroke-opacity=".3" stroke-width="__RESOLUTION__" d="M.1 6.3Q-.3 4.5 1.5 3l1.1-1Q4.7.7 6.6.3l.5-.1h.5l.3-.1H9l1.3.4.4.2.8.5 1.2.9h.1l.2.3v.3q-.1 1.1-.5 2.1-2.5 3.1-9 3.7h-.4Q.5 7.9 0 6.3m-.1.1q0-.3 2.1-.2l.9-.4Q7.5 5 9.5 3.3V2.1h.1l.1-.3h.4l-.2-.7.4-.4h.1l-.1-.4.6.3h-.2v.1l-.3.2-1 1.1Q6.9 3.8 2.8 4.9l-.8.6z" vector-effect="non-scaling-stroke"/></g><g id="O"><path fill="#d15536" d="M0 4.7q-.1 2.6 2.2 5l.1.2 6.6 5v.1q2.7 1 3.7.7h.3l1.2-.2q7.1-.7 9.3-4.5v.1l.6-1V10l.1-1.3-.2-1.2-.2-1-.3-.5-.5-.9q-.9-1.2-2.2-2.3l-1-.6L17 .6q-1.8-.5-4-.5-2.8.3-5.6 1-2.1.8-4.8 2.2z"/><path fill="none" stroke="#000" stroke-linecap="round" stroke-linejoin="round" stroke-opacity=".3" stroke-width="__RESOLUTION__" d="m0 4.7 2.6-1.4L7.4 1q2.8-.7 5.7-1 2 0 3.9.6L19.8 2l.8.6Q22 3.8 23 5l.5.9.3.5.2 1 .2 1.2v1.3l-.2.3-.5.9h0q-2.2 3.7-9.3 4.4l-1.2.1v.1h-.3q-1 .3-3.7-.7h0L2.2 9.9l-.1-.2Q-.1 7.4 0 4.8l2.6-1.4Q5.3 1.9 7.4 1q2.8-.7 5.7-1 2 0 3.9.6L19.8 2l.8.6Q22 3.8 23 5l.5.9.3.5.2 1 .2 1.2v1.3l-.2.3-.5.9h0q-2.2 3.7-9.3 4.4l-1.2.1v.1h-.3q-1 .3-3.7-.7h0L2.2 9.9l-.1-.2Q-.1 7.4 0 4.8" vector-effect="non-scaling-stroke"/></g><g id="L"><path fill="#9e7056" d="M.1 8.5q.6 2 3.2 3.3l.6-.2q8-.6 10.5-4.5.2-1.3-.1-2.7l-.1-.4-.2-.3-.1-.1-1.3-1.4-.9-.8-.4-.3L9.7.3 9.3.2H7.6L7 .3Q4.9.9 2.6 3L1.3 4.3Q-.4 6.5 0 8.6"/><path fill="none" stroke="#000" stroke-linecap="round" stroke-linejoin="round" stroke-opacity=".3" stroke-width="__RESOLUTION__" d="M.2 8.5q-.6-2.2 1.2-4.2l1.3-1.4Q5 1 7 .3l.6-.1.7-.1h1.1l.3.1 1.7.8.3.3 1 .8L14 3.5v.1l.2.3.2.4q.3 1.4 0 2.8Q12 11 4 11.6l-.6.1Q.8 10.4.2 8.5m-.1 0q.5 1 2.8 2l.8-.1q7-.9 9.3-4.1 0-1.1-.5-2.2v-.6l.1-.1-.7-1.3-.4-.8v-.2l-1-.7h0-.7l-.6.1-.8.6-5.6 3.2-1.1 1.3Q-.4 7.4 0 8.5z" vector-effect="non-scaling-stroke"/></g><g id="J"><path fill="#d15536" d="M0 5.3Q-.1 8.2 2.4 11h.1l7.2 5.7q3 1.1 4.2.9l.2-.1 1.4-.2q8-.8 10.3-5v.1l.6-1.1.1-.3V9.5l-.1-1.4-.2-1-.2-.6-.6-1q-1-1.4-2.5-2.6l-1-.7L18.8.7q-2-.6-4.5-.7-3.1.4-6.2 1.3-2.2.8-5.2 2.4z"/><path fill="none" stroke="#000" stroke-linecap="round" stroke-linejoin="round" stroke-opacity=".3" stroke-width="__RESOLUTION__" d="m0 5.3 2.9-1.6q3-1.6 5.2-2.4Q11.2.4 14.4 0q2.3.1 4.4.7l3 1.5 1.1.7q1.6 1.3 2.5 2.7l.6.9.2.6.2 1 .2 1.5-.1 1.5-.1.2-.5 1.1h-.1q-2.3 4.1-10.3 5h-1.4v.1h-.3q-1 .3-4-.7l-.2-.1-7.1-5.6-.1-.1Q-.1 8.2 0 5.3l2.9-1.6q3-1.6 5.2-2.4Q11.2.4 14.4 0q2.3.1 4.4.7l3 1.5 1.1.7q1.6 1.3 2.5 2.7l.6.9.2.6.2 1 .2 1.5-.1 1.5-.1.2-.5 1.1h-.1q-2.3 4.1-10.3 5h-1.4v.1h-.3q-1 .3-4-.7l-.2-.1-7.1-5.6-.1-.1Q-.1 8.2 0 5.3" vector-effect="non-scaling-stroke"/></g><g id="F"><path fill="#9e7056" d="M.3 10.6q.7 2.2 3.4 4.2l.7-.1q9.6-.8 12-5.5 0-1.7-.7-3.4l-.2-.5-.3-.4v-.1L13.9 3l-1-1.1-.4-.4L10.6.3l-.4-.1-.9-.1H8.2l-.7.2Q5.3 1 2.8 3.8L1.2 5.6q-1.7 2.6-1 5"/><path fill="none" stroke="#000" stroke-linecap="round" stroke-linejoin="round" stroke-opacity=".3" stroke-width="__RESOLUTION__" d="M.3 10.6q-.8-2.4.9-5l1.6-1.8Q5.3 1 7.5.2l.7-.2h2l.4.2 1.9 1.2.3.4 1 1.1 1.3 1.8.1.2.3.4.2.5q.8 1.7.8 3.4-2.5 4.6-12.1 5.5l-.7.1Q1 12.9.3 10.7q.7 2.2 3.4 4.2l.7-.1q9.6-.8 12-5.5 0-1.7-.7-3.4l-.2-.5-.3-.4v-.1L13.9 3l-1-1.1-.4-.4L10.6.3l-.4-.1-.9-.1H8.2l-.7.2Q5.3 1 2.8 3.8L1.2 5.6q-1.7 2.6-1 5z" vector-effect="non-scaling-stroke"/></g><g id="D"><path fill="#d15536" d="M0 5.9q-.1 3.3 2.7 6.3v.1l7.8 6.2.1.1q3.4 1.1 4.6.9l.2-.1h.1l1.5-.2q8.9-1 11.3-5.5l.7-1.1v-.3l.1-1.7L29 9l-.2-1.2-.2-.6L28 6q-1-1.6-2.8-3l-1.1-.7L20.6.8Q18.5.1 15.7 0 12.4.5 9 1.6q-2.5.8-6 2.6z"/><path fill="none" stroke="#000" stroke-linecap="round" stroke-linejoin="round" stroke-opacity=".3" stroke-width="__RESOLUTION__" d="m0 5.9 3.1-1.7q3.4-1.8 5.8-2.6Q12.1.5 15.8 0q2.6 0 4.9.8L24 2.4l1.2.8q1.7 1.3 2.7 2.9l.6 1 .3.7L29 9l.1 1.6v1.7l-.2.2-.6 1.3v-.1q-2.5 4.6-11.3 5.5l-1.5.2h-.4q-1.2.3-4.5-.8l-.1-.1-7.8-6.2v-.1Q-.2 9.2 0 5.9l3.1-1.7q3.4-1.8 5.8-2.6Q12.1.5 15.8 0q2.6 0 4.9.8L24 2.4l1.2.8q1.7 1.3 2.7 2.9l.6 1 .3.7L29 9l.1 1.6v1.7l-.2.2-.6 1.3v-.1q-2.5 4.6-11.3 5.5l-1.5.2h-.4q-1.2.3-4.5-.8l-.1-.1-7.8-6.2v-.1Q-.2 9.2 0 5.9" vector-effect="non-scaling-stroke"/></g><use xlink:href="#k" id="aA" width="44.9" height="23.6"/><use xlink:href="#l" id="aw" width="44.9" height="23.6"/><use xlink:href="#m" id="as" width="44.9" height="23.6"/><use xlink:href="#n" id="ao" width="44.9" height="23.6"/><use xlink:href="#o" id="ak" width="44.9" height="23.6"/><use xlink:href="#p" id="ag" width="44.9" height="23.6"/><use xlink:href="#q" id="ac" width="44.9" height="23.6"/><use xlink:href="#r" id="Y" width="44.9" height="23.6"/><use xlink:href="#s" id="W" width="16.4" height="15.9"/><use xlink:href="#t" id="T" width="44.9" height="23.6"/><use xlink:href="#u" id="R" width="16.4" height="15.9"/><use xlink:href="#v" id="M" width="16.4" height="15.9"/><use xlink:href="#w" id="H" width="12.7" height="6.3"/><use xlink:href="#x" id="G" width="16.4" height="15.9"/><use xlink:href="#y" id="C" width="4.3" height="8.6"/><use xlink:href="#z" id="B" width="44.9" height="23.6"/><clipPath id="A"><path d="M1 1h50v28H1z"/></clipPath><clipPath id="I"><path d="M52 1h50v28H52z"/></clipPath><clipPath id="N"><path d="M103 1h50v28h-50z"/></clipPath><clipPath id="S"><path d="M154 1h50v28h-50z"/></clipPath><clipPath id="X"><path d="M205 1h50v28h-50z"/></clipPath><clipPath id="ab"><path d="M256 1h50v28h-50z"/></clipPath><clipPath id="af"><path d="M307 1h50v28h-50z"/></clipPath><clipPath id="aj"><path d="M358 1h50v28h-50z"/></clipPath><clipPath id="an"><path d="M409 1h50v28h-50z"/></clipPath><clipPath id="ar"><path d="M460 1h50v28h-50z"/></clipPath><clipPath id="av"><path d="M511 1h50v28h-50z"/></clipPath><clipPath id="az"><path d="M562 1h50v28h-50z"/></clipPath><radialGradient id="a" cx="0" cy="0" r="819.2" gradientTransform="matrix(-.0079 -.0152 .026 0 21.9 10.85)" gradientUnits="userSpaceOnUse" spreadMethod="pad"><stop offset=".4" stop-color="#795828" stop-opacity=".3"/><stop offset="1" stop-color="#43321b" stop-opacity="0"/></radialGradient><radialGradient id="b" cx="0" cy="0" r="819.2" gradientTransform="matrix(-.0079 -.0152 .026 0 21.9 10.85)" gradientUnits="userSpaceOnUse" spreadMethod="pad"><stop offset=".4" stop-color="#795828" stop-opacity=".4"/><stop offset="1" stop-color="#43321b" stop-opacity="0"/></radialGradient><radialGradient id="c" cx="0" cy="0" r="819.2" gradientTransform="matrix(-.0079 -.0152 .026 0 21.9 10.85)" gradientUnits="userSpaceOnUse" spreadMethod="pad"><stop offset=".4" stop-color="#795828" stop-opacity=".5"/><stop offset="1" stop-color="#43321b" stop-opacity="0"/></radialGradient><radialGradient id="d" cx="0" cy="0" r="819.2" gradientTransform="matrix(-.0079 -.0152 .026 0 21.9 10.85)" gradientUnits="userSpaceOnUse" spreadMethod="pad"><stop offset=".4" stop-color="#795828" stop-opacity=".6"/><stop offset="1" stop-color="#43321b" stop-opacity="0"/></radialGradient><radialGradient id="e" cx="0" cy="0" r="819.2" gradientTransform="matrix(-.0079 -.0152 .026 0 21.9 10.85)" gradientUnits="userSpaceOnUse" spreadMethod="pad"><stop offset=".4" stop-color="#795828" stop-opacity=".6"/><stop offset="1" stop-color="#43321b" stop-opacity="0"/></radialGradient><radialGradient id="f" cx="0" cy="0" r="819.2" gradientTransform="matrix(-.0079 -.0152 .026 0 21.9 10.85)" gradientUnits="userSpaceOnUse" spreadMethod="pad"><stop offset=".4" stop-color="#795828" stop-opacity=".7"/><stop offset="1" stop-color="#43321b" stop-opacity="0"/></radialGradient><radialGradient id="g" cx="0" cy="0" r="819.2" gradientTransform="matrix(-.0079 -.0152 .026 0 21.9 10.85)" gradientUnits="userSpaceOnUse" spreadMethod="pad"><stop offset=".4" stop-color="#795828" stop-opacity=".8"/><stop offset="1" stop-color="#43321b" stop-opacity="0"/></radialGradient><radialGradient id="h" cx="0" cy="0" r="819.2" gradientTransform="matrix(-.0079 -.0152 .026 0 21.9 10.85)" gradientUnits="userSpaceOnUse" spreadMethod="pad"><stop offset=".4" stop-color="#795828" stop-opacity=".9"/><stop offset="1" stop-color="#43321b" stop-opacity="0"/></radialGradient><radialGradient id="i" cx="0" cy="0" r="819.2" gradientTransform="matrix(-.0079 -.0152 .026 0 21.9 10.85)" gradientUnits="userSpaceOnUse" spreadMethod="pad"><stop offset=".4" stop-color="#795828" stop-opacity=".9"/><stop offset="1" stop-color="#43321b" stop-opacity="0"/></radialGradient><radialGradient id="j" cx="0" cy="0" r="819.2" gradientTransform="matrix(-.0079 -.0152 .026 0 21.9 10.85)" gradientUnits="userSpaceOnUse" spreadMethod="pad"><stop offset=".4" stop-color="#795828"/><stop offset="1" stop-color="#43321b" stop-opacity="0"/></radialGradient></defs><g clip-path="url(#A)"><g transform="translate(25.7 14.9)"><use xlink:href="#B" width="44.9" height="23.6" transform="translate(-24.7 -13.9)scale(1.102)"/><use xlink:href="#C" width="4.3" height="8.6" transform="translate(12.35 2.8)"/><use xlink:href="#D" width="29.1" height="19.5" transform="translate(-13.75 -10.7)"/><use xlink:href="#E" width="28.9" height="16" transform="translate(-13.8 -7.15)"/><use xlink:href="#F" width="16.4" height="14.9" transform="translate(-1.95 -6.25)"/><use xlink:href="#G" width="16.4" height="15.9" transform="translate(-1.9 -6.25)"/><use xlink:href="#H" width="12.7" height="6.3" transform="translate(-1.2 7.35)"/></g></g><g clip-path="url(#I)"><g transform="translate(76.7 14.9)"><use xlink:href="#B" width="44.9" height="23.6" transform="translate(-24.7 -13.9)scale(1.102)"/><use xlink:href="#C" width="4.3" height="8.6" transform="translate(11.65 .9)"/><use xlink:href="#J" width="26.6" height="17.6" transform="translate(-12.55 -9.7)"/><use xlink:href="#K" width="25.9" height="14" transform="translate(-12.3 -6.3)"/><use xlink:href="#L" width="14.8" height="11.7" transform="translate(-1.8 -4.15)"/><use xlink:href="#M" width="16.4" height="15.9" transform="translate(-4.2 -7.3)"/><use xlink:href="#H" width="12.7" height="6.3" transform="translate(-1.5 5.7)"/></g></g><g clip-path="url(#N)"><g transform="translate(127.7 14.9)"><use xlink:href="#B" width="44.9" height="23.6" transform="translate(-24.7 -13.9)scale(1.102)"/><use xlink:href="#C" width="4.3" height="8.6" transform="translate(10.95 -1.05)"/><use xlink:href="#O" width="24.1" height="15.8" transform="translate(-11.4 -8.75)"/><use xlink:href="#P" width="22.7" height="12.1" transform="translate(-10.8 -5.5)"/><use xlink:href="#Q" width="13.3" height="8.5" transform="translate(-1.65 -2.05)"/><use xlink:href="#R" width="16.4" height="15.9" transform="translate(-6.5 -8.3)"/><use xlink:href="#H" width="12.7" height="6.3" transform="translate(-1.85 4)"/></g></g><g clip-path="url(#S)"><g transform="translate(178.7 14.9)"><use xlink:href="#T" width="44.9" height="23.6" transform="translate(-22.4 -12.7)scale(.9989)"/><use xlink:href="#C" width="4.3" height="8.6" transform="rotate(255.003 6.225 -1.878)scale(.7273)"/><use xlink:href="#U" width="21.6" height="13.9" transform="translate(-10.2 -7.75)"/><use xlink:href="#V" width="19.7" height="10.2" transform="translate(-9.35 -4.7)"/><use xlink:href="#W" width="16.4" height="15.9" transform="translate(-8.8 -9.35)"/><use xlink:href="#H" width="12.7" height="6.3" transform="rotate(-29.998 10.524 4.02)scale(.6692)"/></g></g><g clip-path="url(#X)"><g transform="translate(229.7 14.9)"><use xlink:href="#Y" width="44.9" height="23.6" transform="translate(-20.1 -11.5)scale(.8958)"/><use xlink:href="#C" width="4.3" height="8.6" transform="rotate(255.003 6.225 -1.878)scale(.7273)"/><use xlink:href="#Z" width="19.1" height="12.1" transform="translate(-9.05 -6.8)"/><use xlink:href="#aa" width="17.8" height="9" transform="translate(-8.4 -4.25)"/><use xlink:href="#W" width="16.4" height="15.9" transform="translate(-8.8 -9.35)"/><use xlink:href="#H" width="12.7" height="6.3" transform="rotate(-29.998 10.524 4.02)scale(.6692)"/></g></g><g clip-path="url(#ab)"><g transform="translate(280.7 14.9)"><use xlink:href="#ac" width="44.9" height="23.6" transform="translate(-17.75 -10.3)scale(.7927)"/><use xlink:href="#ad" width="16.8" height="10.3" transform="translate(-7.9 -5.85)"/><use xlink:href="#ae" width="15.8" height="7.9" transform="translate(-7.5 -3.85)"/></g></g><g clip-path="url(#af)"><g transform="translate(331.7 14.9)"><use xlink:href="#ag" width="44.9" height="23.6" transform="translate(-15.45 -9.05)scale(.6896)"/><use xlink:href="#ah" width="14.7" height="8.8" transform="translate(-6.9 -5.15)"/><use xlink:href="#ai" width="13.9" height="6.8" transform="translate(-6.6 -3.45)"/></g></g><g clip-path="url(#aj)"><g transform="translate(382.7 14.9)"><use xlink:href="#ak" width="44.9" height="23.6" transform="translate(-13.15 -7.85)scale(.5866)"/><use xlink:href="#al" width="12.7" height="7.5" transform="translate(-5.95 -4.5)"/><use xlink:href="#am" width="12" height="5.7" transform="translate(-5.65 -3)"/></g></g><g clip-path="url(#an)"><g transform="translate(433.7 14.9)"><use xlink:href="#ao" width="44.9" height="23.6" transform="translate(-10.8 -6.65)scale(.4835)"/><use xlink:href="#ap" width="10.6" height="6" transform="translate(-4.95 -3.8)"/><use xlink:href="#aq" width="10.2" height="4.7" transform="translate(-4.75 -2.6)"/></g></g><g clip-path="url(#ar)"><g transform="translate(484.7 14.9)"><use xlink:href="#as" width="44.9" height="23.6" transform="translate(-8.5 -5.45)scale(.3804)"/><use xlink:href="#at" width="8.6" height="4.6" transform="translate(-4 -3.1)"/><use xlink:href="#au" width="8.3" height="3.5" transform="translate(-3.85 -2.2)"/></g></g><g clip-path="url(#av)"><g transform="translate(535.7 14.9)"><use xlink:href="#aw" width="44.9" height="23.6" transform="translate(-6.15 -4.2)scale(.2773)"/><use xlink:href="#ax" width="6.6" height="3.3" transform="translate(-3.05 -2.45)"/><use xlink:href="#ay" width="6.3" height="2.5" transform="translate(-2.95 -1.8)"/></g></g><g clip-path="url(#az)"><g transform="translate(586.7 14.9)"><use xlink:href="#aA" width="44.9" height="23.6" transform="translate(-3.85 -3)scale(.1743)"/><use xlink:href="#aB" width="4.6" height="1.9" transform="translate(-2.1 -1.85)"/></g></g></svg>