<svg xmlns="http://www.w3.org/2000/svg" xmlns:xlink="http://www.w3.org/1999/xlink" width="1831" height="97" viewBox="0 0 1831 97"><defs><clipPath id="A"><path d="M1 1h60v95H1z"/></clipPath><clipPath id="E"><path d="M62 1h60v95H62z"/></clipPath><clipPath id="F"><path d="M123 1h60v95h-60z"/></clipPath><clipPath id="G"><path d="M184 1h60v95h-60z"/></clipPath><clipPath id="H"><path d="M245 1h60v95h-60z"/></clipPath><clipPath id="I"><path d="M306 1h60v95h-60z"/></clipPath><clipPath id="J"><path d="M367 1h60v95h-60z"/></clipPath><clipPath id="K"><path d="M428 1h60v95h-60z"/></clipPath><clipPath id="L"><path d="M489 1h60v95h-60z"/></clipPath><clipPath id="M"><path d="M550 1h60v95h-60z"/></clipPath><clipPath id="O"><path d="M611 1h60v95h-60z"/></clipPath><clipPath id="P"><path d="M672 1h60v95h-60z"/></clipPath><clipPath id="R"><path d="M733 1h60v95h-60z"/></clipPath><clipPath id="T"><path d="M794 1h60v95h-60z"/></clipPath><clipPath id="V"><path d="M855 1h60v95h-60z"/></clipPath><clipPath id="X"><path d="M916 1h60v95h-60z"/></clipPath><clipPath id="Z"><path d="M977 1h60v95h-60z"/></clipPath><clipPath id="ab"><path d="M1038 1h60v95h-60z"/></clipPath><clipPath id="ad"><path d="M1099 1h60v95h-60z"/></clipPath><clipPath id="ae"><path d="M1160 1h60v95h-60z"/></clipPath><clipPath id="af"><path d="M1221 1h60v95h-60z"/></clipPath><clipPath id="ag"><path d="M1282 1h60v95h-60z"/></clipPath><clipPath id="ah"><path d="M1343 1h60v95h-60z"/></clipPath><clipPath id="ai"><path d="M1404 1h60v95h-60z"/></clipPath><clipPath id="aj"><path d="M1465 1h60v95h-60z"/></clipPath><clipPath id="ak"><path d="M1526 1h60v95h-60z"/></clipPath><clipPath id="al"><path d="M1587 1h60v95h-60z"/></clipPath><clipPath id="am"><path d="M1648 1h60v95h-60z"/></clipPath><clipPath id="an"><path d="M1709 1h60v95h-60z"/></clipPath><clipPath id="ao"><path d="M1770 1h60v95h-60z"/></clipPath><g id="n"><path fill="#e7f3fa" fill-opacity="0" d="M150.3 24.2q17 9.4 17 22.7t-17 22.7-41.1 9.5-41.1-9.5-17-22.7 17-22.8 41.1-9.4 41 9.4"/><path fill="none" stroke="#e7f3fa" stroke-linecap="round" stroke-linejoin="round" stroke-opacity="0" stroke-width="__RESOLUTION__" d="M114.2 47.3v3.1l4.3-2.4zL0 27.5M118.5 48l1.2-.6-5.5-3v2.9m4.3.7 3.3.6-2.1-1.2 74.5-41.3M64.7 16.8l49.6 27.5V0m78.4 87.8-70.8-39.2 73 12.7m-80.7-10.9v58.1M33.4 95.1l80.8-44.7" vector-effect="non-scaling-stroke"/></g><g id="o"><path fill="#e7f3fa" fill-opacity="0" d="M150.3 24.2q17 9.4 17 22.7t-17 22.7-41.1 9.5-41.1-9.5-17-22.7 17-22.8 41.1-9.4 41 9.4"/><path fill="none" stroke="#e7f3fa" stroke-linecap="round" stroke-linejoin="round" stroke-opacity="0" stroke-width="__RESOLUTION__" d="M114.2 47.3v3.1l4.3-2.4zL0 27.5M118.5 48l1.2-.6-5.5-3v2.9m4.3.7 3.3.6-2.1-1.2 74.5-41.3M64.7 16.8l49.6 27.5V0m78.4 87.8-70.8-39.2 73 12.7m-80.7-10.9v58.1M33.4 95.1l80.8-44.7" vector-effect="non-scaling-stroke"/></g><g id="p"><path fill="#e7f3fa" fill-opacity=".1" d="M150.3 24.2q17 9.4 17 22.7t-17 22.7-41.1 9.5-41.1-9.5-17-22.7 17-22.8 41.1-9.4 41 9.4"/><path fill="none" stroke="#e7f3fa" stroke-linecap="round" stroke-linejoin="round" stroke-opacity=".1" stroke-width="__RESOLUTION__" d="M114.2 47.3v3.1l4.3-2.4zL0 27.5M118.5 48l1.2-.6-5.5-3v2.9m4.3.7 3.3.6-2.1-1.2 74.5-41.3M64.7 16.8l49.6 27.5V0m78.4 87.8-70.8-39.2 73 12.7m-80.7-10.9v58.1M33.4 95.1l80.8-44.7" vector-effect="non-scaling-stroke"/></g><g id="q"><path fill="#e7f3fa" fill-opacity=".1" d="M150.3 24.2q17 9.4 17 22.7t-17 22.7-41.1 9.5-41.1-9.5-17-22.7 17-22.8 41.1-9.4 41 9.4"/><path fill="none" stroke="#e7f3fa" stroke-linecap="round" stroke-linejoin="round" stroke-opacity=".1" stroke-width="__RESOLUTION__" d="M114.2 47.3v3.1l4.3-2.4zL0 27.5M118.5 48l1.2-.6-5.5-3v2.9m4.3.7 3.3.6-2.1-1.2 74.5-41.3M64.7 16.8l49.6 27.5V0m78.4 87.8-70.8-39.2 73 12.7m-80.7-10.9v58.1M33.4 95.1l80.8-44.7" vector-effect="non-scaling-stroke"/></g><g id="r"><path fill="#e7f3fa" fill-opacity=".1" d="M150.3 24.2q17 9.4 17 22.7t-17 22.7-41.1 9.5-41.1-9.5-17-22.7 17-22.8 41.1-9.4 41 9.4"/><path fill="none" stroke="#e7f3fa" stroke-linecap="round" stroke-linejoin="round" stroke-opacity=".1" stroke-width="__RESOLUTION__" d="M114.2 47.3v3.1l4.3-2.4zL0 27.5M118.5 48l1.2-.6-5.5-3v2.9m4.3.7 3.3.6-2.1-1.2 74.5-41.3M64.7 16.8l49.6 27.5V0m78.4 87.8-70.8-39.2 73 12.7m-80.7-10.9v58.1M33.4 95.1l80.8-44.7" vector-effect="non-scaling-stroke"/></g><g id="s"><path fill="#e7f3fa" fill-opacity=".1" d="M150.3 24.2q17 9.4 17 22.7t-17 22.7-41.1 9.5-41.1-9.5-17-22.7 17-22.8 41.1-9.4 41 9.4"/><path fill="none" stroke="#e7f3fa" stroke-linecap="round" stroke-linejoin="round" stroke-opacity=".1" stroke-width="__RESOLUTION__" d="M114.2 47.3v3.1l4.3-2.4zL0 27.5M118.5 48l1.2-.6-5.5-3v2.9m4.3.7 3.3.6-2.1-1.2 74.5-41.3M64.7 16.8l49.6 27.5V0m78.4 87.8-70.8-39.2 73 12.7m-80.7-10.9v58.1M33.4 95.1l80.8-44.7" vector-effect="non-scaling-stroke"/></g><g id="t"><path fill="#e7f3fa" fill-opacity=".2" d="M150.3 24.2q17 9.4 17 22.7t-17 22.7-41.1 9.5-41.1-9.5-17-22.7 17-22.8 41.1-9.4 41 9.4"/><path fill="none" stroke="#e7f3fa" stroke-linecap="round" stroke-linejoin="round" stroke-opacity=".2" stroke-width="__RESOLUTION__" d="M114.2 47.3v3.1l4.3-2.4zL0 27.5M118.5 48l1.2-.6-5.5-3v2.9m4.3.7 3.3.6-2.1-1.2 74.5-41.3M64.7 16.8l49.6 27.5V0m78.4 87.8-70.8-39.2 73 12.7m-80.7-10.9v58.1M33.4 95.1l80.8-44.7" vector-effect="non-scaling-stroke"/></g><g id="u"><path fill="#e7f3fa" fill-opacity=".2" d="M150.3 24.2q17 9.4 17 22.7t-17 22.7-41.1 9.5-41.1-9.5-17-22.7 17-22.8 41.1-9.4 41 9.4"/><path fill="none" stroke="#e7f3fa" stroke-linecap="round" stroke-linejoin="round" stroke-opacity=".2" stroke-width="__RESOLUTION__" d="M114.2 47.3v3.1l4.3-2.4zL0 27.5M118.5 48l1.2-.6-5.5-3v2.9m4.3.7 3.3.6-2.1-1.2 74.5-41.3M64.7 16.8l49.6 27.5V0m78.4 87.8-70.8-39.2 73 12.7m-80.7-10.9v58.1M33.4 95.1l80.8-44.7" vector-effect="non-scaling-stroke"/></g><g id="v"><path fill="#e7f3fa" fill-opacity=".2" d="M150.3 24.2q17 9.4 17 22.7t-17 22.7-41.1 9.5-41.1-9.5-17-22.7 17-22.8 41.1-9.4 41 9.4"/><path fill="none" stroke="#e7f3fa" stroke-linecap="round" stroke-linejoin="round" stroke-opacity=".2" stroke-width="__RESOLUTION__" d="M114.2 47.3v3.1l4.3-2.4zL0 27.5M118.5 48l1.2-.6-5.5-3v2.9m4.3.7 3.3.6-2.1-1.2 74.5-41.3M64.7 16.8l49.6 27.5V0m78.4 87.8-70.8-39.2 73 12.7m-80.7-10.9v58.1M33.4 95.1l80.8-44.7" vector-effect="non-scaling-stroke"/></g><g id="w"><path fill="#e7f3fa" fill-opacity=".2" d="M150.3 24.2q17 9.4 17 22.7t-17 22.7-41.1 9.5-41.1-9.5-17-22.7 17-22.8 41.1-9.4 41 9.4"/><path fill="none" stroke="#e7f3fa" stroke-linecap="round" stroke-linejoin="round" stroke-opacity=".2" stroke-width="__RESOLUTION__" d="M114.2 47.3v3.1l4.3-2.4zL0 27.5M118.5 48l1.2-.6-5.5-3v2.9m4.3.7 3.3.6-2.1-1.2 74.5-41.3M64.7 16.8l49.6 27.5V0m78.4 87.8-70.8-39.2 73 12.7m-80.7-10.9v58.1M33.4 95.1l80.8-44.7" vector-effect="non-scaling-stroke"/></g><g id="x"><path fill="#e7f3fa" fill-opacity=".3" d="M150.3 24.2q17 9.4 17 22.7t-17 22.7-41.1 9.5-41.1-9.5-17-22.7 17-22.8 41.1-9.4 41 9.4"/><path fill="none" stroke="#e7f3fa" stroke-linecap="round" stroke-linejoin="round" stroke-opacity=".3" stroke-width="__RESOLUTION__" d="M114.2 47.3v3.1l4.3-2.4zL0 27.5M118.5 48l1.2-.6-5.5-3v2.9m4.3.7 3.3.6-2.1-1.2 74.5-41.3M64.7 16.8l49.6 27.5V0m78.4 87.8-70.8-39.2 73 12.7m-80.7-10.9v58.1M33.4 95.1l80.8-44.7" vector-effect="non-scaling-stroke"/></g><g id="y"><path fill="#9c641f" d="m2.8 13.4-.1-1.2L1.2.9l.5-.9 1.6 14.7-.2.5z"/><path fill="#865b17" d="m2.8 13.4.3 1.8-1.2-1.3q.9.5.9-.6"/><path fill="#ba8b1f" d="m3 15.2.2-.5L1.7 0l1.7 11v1.5l.3-5.3-.1 6.8.1 2.1-.2-.5z"/><path fill="#8c6917" d="m3.3 11 .3-3.8-.2 5.3zm.4 7.7h-.2l-.4-3.5.2.5z"/><path fill="#57410f" d="M3.6 7.2v9l.2 2.4h-.1l-.3-3 .2.5-.1-2.2z"/><path fill="#d1bc45" d="m1.7 10.7.2.4.2.5-.6.1h-.2l-.9-.6-.2-.2v-.4zm2.6.3h1v.1l.2.3v.3l-.4.1H5l-.6-.4-.1-.1z"/><path fill="#a57a34" d="m0 12.2 1.5-.3.1.1.2.4.3.4v.1q-.3.1-.2.2l-.5.3q-.5.2-.8-.2l-.5-.5z"/></g><g id="m"><path fill="#960" d="m8.1.9.4-.1zh.5L8.4.7q-.9-.7-2-.7h-.7L5 .4l-.3.2-.1.2V.6l-.3.2h.3l1 .2zM10 2.3l.8.4q1 .8 1.2 2.1.2 1-.2 2-2.7 1.2-4.7 1-1 1.3-2.6 1.7l-1-.5q-1-.7-1.2-1.8-1-.2-1.6-.7-.9-.9-.8-2.1t1-2.1l.3-.1.4-.2.1-.1 2.1.3H4l1.8.3h3.4zm-5.3.3q-1 .2-1.9 1.4l4-.2q-1-1.5-2-1.3"/><path fill="#d1bc45" d="M8.1.9h.5L8.4.7h.2L10 2.3l-.9.2H5.7L4 2.2l-2.2-.3h-.2v-.1l2-1.1.7-.4.3.1v.1l-.3.2h.2l1 .2z"/><path fill="#775100" d="m11.9 6.8-.4.4q-.7 1.1-1.9 1.2L8 8.3l-.1.3q-.8 1-2 1.2l-1.5-.2q1.7-.4 2.7-1.7 2 .2 4.8-1M4.8 2.6q1-.3 2 1.2l-4 .2q.9-1.2 2-1.5"/><path fill="#cbb27f" d="M1.8 1.9h-.1z"/><path fill="none" stroke="#000" stroke-linecap="round" stroke-linejoin="round" stroke-opacity=".3" stroke-width="__RESOLUTION__" d="M8.5.8 8 .9H5.6L4.4.7V.6l.1-.1-.3-.1M6 .1h-.2m-1 .2-.2.2V.4L5 .3m3.4.5.2-.1L10 2.3l-.9.2H5.7L4 2.2h0l-2.2-.3h-.2v-.1l-.3.4-.3.1q-1 .9-1 2.1-.1 1.2.8 2 .7.6 1.6.8.3 1.1 1.2 1.8l.9.5 1.4.2q1.2-.2 2-1.2l.1-.2 1.6.2q1.2-.2 2-1.3l.2-.4q.4-1 .2-2-.2-1.2-1.2-2v-.1m-9.2-.9 2-1.2M1.5 2l-.3.1m.3-.3V2M4.4.8h.2" vector-effect="non-scaling-stroke"/><path fill="#333" d="M7.6 5.1q.6 1.1 0 1.5t-1.2.3q-.7 0-1.2-.4-.3-.2.1-1.1t.9-1q.8-.3 1.3.7"/><path fill="none" stroke="#000" stroke-linecap="round" stroke-linejoin="round" stroke-opacity=".3" stroke-width="__RESOLUTION__" d="M7.6 5.1q-.5-1-1.4-.7-.6.1-.9 1t-.1 1.1q.5.4 1.2.4t1.2-.3q.5-.4 0-1.5" vector-effect="non-scaling-stroke"/><path fill="#fff" d="M7.2 5.3v.3l-.2.3h-.3l-.3-.3v-.4l.3-.3H7z"/><path fill="#333" d="M10.8 3.1q.5 0 .8.9.2.8 0 1-.4.5-1 .7l-1-.1Q9 5.2 9.5 4t1.2-1"/><path fill="none" stroke="#000" stroke-linecap="round" stroke-linejoin="round" stroke-opacity=".3" stroke-width="__RESOLUTION__" d="M10.8 3.1q.5 0 .8.9.2.8 0 1-.4.5-1 .7l-1-.1Q9 5.2 9.5 4t1.2-1" vector-effect="non-scaling-stroke"/><path fill="#fff" d="m9.9 4.1.2-.2.3-.1.2.2v.3l-.2.4h-.2q-.2 0-.2-.2z"/><path fill="#000" fill-opacity=".3" d="M1.6 1.8 3.5.7l.8-.4.3.1-.1.1-.3.2h.3L4 2.3h-.1z"/></g><g id="ac" transform="translate(6.75 57.15)"><use xlink:href="#a" width="194.8" height="108.5" transform="matrix(-.0744 0 0 .1186 8.25 -52.9)"/><use xlink:href="#a" width="194.8" height="108.5" transform="matrix(-.0398 0 0 .0651 16.15 -42.65)"/></g><g id="aa" transform="translate(6.75 57.15)"><use xlink:href="#b" width="194.8" height="108.5" transform="matrix(-.0749 0 0 .1186 8.3 -51.55)"/><use xlink:href="#c" width="194.8" height="108.5" transform="matrix(-.04 0 0 .0651 16.2 -41.95)"/></g><g id="Y" transform="translate(6.75 57.15)"><use xlink:href="#d" width="194.8" height="108.5" transform="matrix(-.0755 0 0 .1186 8.35 -50.2)"/><use xlink:href="#e" width="194.8" height="108.5" transform="matrix(-.0403 0 0 .0651 16.2 -41.2)"/></g><g id="W" transform="translate(6.75 57.15)"><use xlink:href="#f" width="194.8" height="108.5" transform="matrix(-.076 0 0 .1186 8.4 -48.85)"/><use xlink:href="#g" width="194.8" height="108.5" transform="matrix(-.0406 0 0 .0651 16.25 -40.5)"/><use xlink:href="#a" width="194.8" height="108.5" transform="matrix(-.0429 0 0 .1089 27.25 -57.15)"/></g><g id="U" transform="translate(6.75 57.15)"><use xlink:href="#h" width="194.8" height="108.5" transform="matrix(-.0765 0 0 .1186 8.5 -47.5)"/><use xlink:href="#i" width="194.8" height="108.5" transform="matrix(-.0408 0 0 .0651 16.25 -39.8)"/><use xlink:href="#b" width="194.8" height="108.5" transform="matrix(-.0449 0 0 .1089 27.45 -55.7)"/></g><g id="S" transform="translate(6.75 57.15)"><use xlink:href="#j" width="194.8" height="108.5" transform="matrix(-.0771 0 0 .1186 8.55 -46.15)"/><use xlink:href="#k" width="194.8" height="108.5" transform="matrix(-.0411 0 0 .0651 16.3 -39.1)"/><use xlink:href="#d" width="194.8" height="108.5" transform="matrix(-.0468 0 0 .1089 27.7 -54.3)"/></g><g id="D" transform="translate(17.95 20.3)"><use xlink:href="#l" width="5.5" height="18.6" transform="matrix(-2.35 .1517 .7169 .8335 -4.9 -20.3)"/><use xlink:href="#m" width="12.1" height="9.7" transform="translate(-6.45 -8.15)"/></g><use xlink:href="#n" id="a" width="194.8" height="108.5"/><use xlink:href="#o" id="c" width="194.8" height="108.5"/><use xlink:href="#p" id="b" width="194.8" height="108.5"/><use xlink:href="#q" id="e" width="194.8" height="108.5"/><use xlink:href="#r" id="d" width="194.8" height="108.5"/><use xlink:href="#s" id="g" width="194.8" height="108.5"/><use xlink:href="#t" id="f" width="194.8" height="108.5"/><use xlink:href="#u" id="i" width="194.8" height="108.5"/><use xlink:href="#v" id="h" width="194.8" height="108.5"/><use xlink:href="#w" id="k" width="194.8" height="108.5"/><use xlink:href="#x" id="j" width="194.8" height="108.5"/><use xlink:href="#y" id="l" width="5.5" height="18.6"/><use xlink:href="#z" id="C" width="14.7" height="4.3"/><path id="z" fill="#382c16" d="M5.8-1.9Q7.9-1.4 8-.5 8 .3 5.9 1 3.8 1.8.7 2l-5.2-.4Q-6.7 1.2-6.7.3q-.1-.8 2-1.6 2.2-.8 5.2-.9z" transform="translate(6.75 2.25)"/><path id="Q" fill="#afd8ed" fill-opacity=".3" d="M23.6-39.4q8.8 8.7 8.9 21.2Q32.4-5.8 23.6 3q-8.7 8.8-21.1 8.8T-18.8 3q-8.7-8.8-8.7-21.2t8.7-21.2q8.8-8.8 21.3-8.8t21.1 8.8" transform="translate(27.55 48.2)"/><path id="N" fill="#afdaed" fill-opacity=".7" d="M11.5-12.8Q7.2-8.5 1-8.5t-10.5-4.3-4.3-10.4 4.2-10.5T1.2-38q6 0 10.4 4.3 4.3 4.3 4.3 10.5 0 6-4.3 10.3" transform="translate(13.75 38.05)"/></defs><g clip-path="url(#A)"><g transform="translate(28.55 83.8)"><use xlink:href="#C" width="14.7" height="4.3" transform="matrix(-.64 0 0 .64 4.3 -1.4)"/><use xlink:href="#D" width="26.4" height="21.9" transform="translate(-17.65 -21.45)"/></g></g><g clip-path="url(#E)"><g transform="translate(89.55 83.8)"><use xlink:href="#C" width="14.7" height="4.3" transform="matrix(-.64 0 0 .64 4.3 -1.4)"/><use xlink:href="#D" width="26.4" height="21.9" transform="matrix(1.0404 0 -.0372 .9443 -17.6 -20.3)"/></g></g><g clip-path="url(#F)"><g transform="translate(150.55 83.8)"><use xlink:href="#C" width="14.7" height="4.3" transform="matrix(-.64 0 0 .64 4.3 -1.4)"/><use xlink:href="#D" width="26.4" height="21.9" transform="matrix(1.0808 0 -.0699 .8873 -17.7 -19.15)"/></g></g><g clip-path="url(#G)"><g transform="translate(211.55 83.8)"><use xlink:href="#C" width="14.7" height="4.3" transform="matrix(-.64 0 0 .64 4.3 -1.4)"/><use xlink:href="#D" width="26.4" height="21.9" transform="matrix(1.1212 0 -.0987 .8296 -17.8 -18)"/></g></g><g clip-path="url(#H)"><g transform="translate(272.55 83.8)"><use xlink:href="#C" width="14.7" height="4.3" transform="matrix(-.64 0 0 .64 4.3 -1.4)"/><use xlink:href="#D" width="26.4" height="21.9" transform="matrix(1.1333 0 -.1042 .8121 -17.9 -17.65)"/></g></g><g clip-path="url(#I)"><g transform="translate(333.55 83.8)"><use xlink:href="#C" width="14.7" height="4.3" transform="matrix(-.64 0 0 .64 4.3 -1.4)"/><use xlink:href="#D" width="26.4" height="21.9" transform="matrix(1.1454 0 -.1124 .7944 -17.95 -17.3)"/></g></g><g clip-path="url(#J)"><g transform="translate(394.55 83.8)"><use xlink:href="#C" width="14.7" height="4.3" transform="matrix(-.64 0 0 .64 4.3 -1.4)"/><use xlink:href="#D" width="26.4" height="21.9" transform="matrix(1.1575 0 -.1201 .7767 -18 -16.9)"/></g></g><g clip-path="url(#K)"><g transform="translate(455.55 83.8)"><use xlink:href="#C" width="14.7" height="4.3" transform="matrix(-.64 0 0 .64 4.3 -1.4)"/><use xlink:href="#D" width="26.4" height="21.9" transform="matrix(1.1697 0 -.1274 .7589 -18.05 -16.55)"/></g></g><g clip-path="url(#L)"><g transform="translate(516.55 83.8)"><use xlink:href="#C" width="14.7" height="4.3" transform="matrix(-.64 0 0 .64 4.3 -1.4)"/><use xlink:href="#D" width="26.4" height="21.9" transform="matrix(1.1818 0 -.1348 .7414 -18.2 -16.2)"/></g></g><g clip-path="url(#M)"><g transform="translate(577.55 83.8)"><use xlink:href="#C" width="14.7" height="4.3" transform="matrix(-.64 0 0 .64 4.3 -1.4)"/><use xlink:href="#D" width="26.4" height="21.9" transform="matrix(1 0 -.0456 1 -16.95 -35.6)"/><use xlink:href="#N" width="29.6" height="29.6" transform="translate(-13.75 -38.05)"/></g></g><g clip-path="url(#O)"><g transform="translate(638.55 83.8)"><use xlink:href="#C" width="14.7" height="4.3" transform="matrix(-.64 0 0 .64 4.3 -1.4)"/><use xlink:href="#D" width="26.4" height="21.9" transform="matrix(1 0 -.0421 .9541 -17.05 -35.4)"/><use xlink:href="#N" width="29.6" height="29.6" transform="translate(-13.75 -38.05)"/></g></g><g clip-path="url(#P)"><g transform="translate(699.55 83.8)"><use xlink:href="#C" width="14.7" height="4.3" transform="matrix(-.64 0 0 .64 4.3 -1.4)"/><use xlink:href="#D" width="26.4" height="21.9" transform="matrix(1 0 -.0401 .9082 -17.05 -35.3)"/><use xlink:href="#Q" width="60" height="60" transform="translate(-27.55 -48.2)"/></g></g><g clip-path="url(#R)"><g transform="translate(760.55 83.8)"><use xlink:href="#C" width="14.7" height="4.3" transform="matrix(-.64 0 0 .64 4.3 -1.4)"/><use xlink:href="#D" width="26.4" height="21.9" transform="matrix(1 0 -.0381 .8624 -17.1 -35.1)"/><use xlink:href="#S" width="36.4" height="66.6" transform="translate(-21.3 -82.8)"/></g></g><g clip-path="url(#T)"><g transform="translate(821.55 83.8)"><use xlink:href="#C" width="14.7" height="4.3" transform="matrix(-.64 0 0 .64 4.3 -1.4)"/><use xlink:href="#D" width="26.4" height="21.9" transform="matrix(1 0 -.0361 .8165 -17.05 -35)"/><use xlink:href="#U" width="36.4" height="66.6" transform="translate(-21.3 -82.8)"/></g></g><g clip-path="url(#V)"><g transform="translate(882.55 83.8)"><use xlink:href="#C" width="14.7" height="4.3" transform="matrix(-.64 0 0 .64 4.3 -1.4)"/><use xlink:href="#D" width="26.4" height="21.9" transform="matrix(1 0 -.0352 .7708 -17.1 -34.8)"/><use xlink:href="#W" width="36.4" height="66.6" transform="translate(-21.3 -82.8)"/></g></g><g clip-path="url(#X)"><g transform="translate(943.55 83.8)"><use xlink:href="#C" width="14.7" height="4.3" transform="matrix(-.64 0 0 .64 4.3 -1.4)"/><use xlink:href="#D" width="26.4" height="21.9" transform="matrix(1 0 -.0442 .9999 -16.95 -34.7)"/><use xlink:href="#Y" width="36.4" height="66.6" transform="translate(-21.3 -82.8)"/></g></g><g clip-path="url(#Z)"><g transform="translate(1004.55 83.8)"><use xlink:href="#C" width="14.7" height="4.3" transform="matrix(-.64 0 0 .64 4.3 -1.4)"/><use xlink:href="#D" width="26.4" height="21.9" transform="matrix(.9751 0 -.0449 1.0214 -16.45 -34.5)"/><use xlink:href="#aa" width="36.4" height="66.6" transform="translate(-21.3 -82.8)"/></g></g><g clip-path="url(#ab)"><g transform="translate(1065.55 83.8)"><use xlink:href="#C" width="14.7" height="4.3" transform="matrix(-.64 0 0 .64 4.3 -1.4)"/><use xlink:href="#D" width="26.4" height="21.9" transform="matrix(.9502 0 -.0459 1.043 -16.05 -34.35)"/><use xlink:href="#ac" width="36.4" height="66.6" transform="translate(-21.3 -82.8)"/></g></g><g clip-path="url(#ad)"><g transform="translate(1126.55 83.8)"><use xlink:href="#C" width="14.7" height="4.3" transform="matrix(-.64 0 0 .64 4.3 -1.4)"/><use xlink:href="#D" width="26.4" height="21.9" transform="matrix(.9254 0 -.0486 1.0646 -15.55 -34.25)"/><use xlink:href="#ac" width="36.4" height="66.6" transform="translate(-21.3 -82.8)"/></g></g><g clip-path="url(#ae)"><g transform="translate(1187.55 83.8)"><use xlink:href="#C" width="14.7" height="4.3" transform="matrix(-.64 0 0 .64 4.3 -1.4)"/><use xlink:href="#D" width="26.4" height="21.9" transform="matrix(1 0 -.3158 .7414 -11.5 -15.7)"/><use xlink:href="#ac" width="36.4" height="66.6" transform="translate(-21.3 -82.8)"/></g></g><g clip-path="url(#af)"><g transform="translate(1248.55 83.8)"><use xlink:href="#C" width="14.7" height="4.3" transform="matrix(-.64 0 0 .64 4.3 -1.4)"/><use xlink:href="#D" width="26.4" height="21.9" transform="matrix(1 0 .1217 1 -20.35 -20.95)"/><use xlink:href="#ac" width="36.4" height="66.6" transform="translate(-21.3 -82.8)"/></g></g><g clip-path="url(#ag)"><g transform="translate(1309.55 83.8)"><use xlink:href="#C" width="14.7" height="4.3" transform="matrix(-.64 0 0 .64 4.3 -1.4)"/><use xlink:href="#D" width="26.4" height="21.9" transform="matrix(1 0 -.0544 1.0323 -16.85 -21.6)"/><use xlink:href="#ac" width="36.4" height="66.6" transform="translate(-21.3 -82.8)"/></g></g><g clip-path="url(#ah)"><g transform="translate(1370.55 83.8)"><use xlink:href="#C" width="14.7" height="4.3" transform="matrix(-.64 0 0 .64 4.3 -1.4)"/><use xlink:href="#D" width="26.4" height="21.9" transform="matrix(1 0 -.2388 1.0324 -13.05 -21.55)"/><use xlink:href="#ac" width="36.4" height="66.6" transform="translate(-21.3 -82.8)"/></g></g><g clip-path="url(#ai)"><g transform="translate(1431.55 83.8)"><use xlink:href="#C" width="14.7" height="4.3" transform="matrix(-.64 0 0 .64 4.3 -1.4)"/><use xlink:href="#D" width="26.4" height="21.9" transform="matrix(1 0 -.4259 1 -9.25 -20.95)"/><use xlink:href="#ac" width="36.4" height="66.6" transform="translate(-21.3 -82.8)"/></g></g><g clip-path="url(#aj)"><g transform="translate(1492.55 83.8)"><use xlink:href="#C" width="14.7" height="4.3" transform="matrix(-.64 0 0 .64 4.3 -1.4)"/><use xlink:href="#D" width="26.4" height="21.9" transform="matrix(1 0 -.2343 1.0341 -13.1 -21.6)"/><use xlink:href="#ac" width="36.4" height="66.6" transform="translate(-21.3 -82.8)"/></g></g><g clip-path="url(#ak)"><g transform="translate(1553.55 83.8)"><use xlink:href="#C" width="14.7" height="4.3" transform="matrix(-.64 0 0 .64 4.3 -1.4)"/><use xlink:href="#D" width="26.4" height="21.9" transform="matrix(1 0 -.0417 1.0342 -17 -21.65)"/><use xlink:href="#ac" width="36.4" height="66.6" transform="translate(-21.3 -82.8)"/></g></g><g clip-path="url(#al)"><g transform="translate(1614.55 83.8)"><use xlink:href="#C" width="14.7" height="4.3" transform="matrix(-.64 0 0 .64 4.3 -1.4)"/><use xlink:href="#D" width="26.4" height="21.9" transform="matrix(1 0 .1369 1 -20.65 -20.95)"/><use xlink:href="#ac" width="36.4" height="66.6" transform="translate(-21.3 -82.8)"/></g></g><g clip-path="url(#am)"><g transform="translate(1675.55 83.8)"><use xlink:href="#C" width="14.7" height="4.3" transform="matrix(-.64 0 0 .64 4.3 -1.4)"/><use xlink:href="#D" width="26.4" height="21.9" transform="matrix(1 0 .0886 1.002 -19.6 -21.15)"/><use xlink:href="#ac" width="36.4" height="66.6" transform="translate(-21.3 -82.8)"/></g></g><g clip-path="url(#an)"><g transform="translate(1736.55 83.8)"><use xlink:href="#C" width="14.7" height="4.3" transform="matrix(-.64 0 0 .64 4.3 -1.4)"/><use xlink:href="#D" width="26.4" height="21.9" transform="matrix(1 0 .0442 1.002 -18.6 -21.35)"/><use xlink:href="#ac" width="36.4" height="66.6" transform="translate(-21.3 -82.8)"/></g></g><g clip-path="url(#ao)"><g transform="translate(1797.55 83.8)"><use xlink:href="#C" width="14.7" height="4.3" transform="matrix(-.64 0 0 .64 4.3 -1.4)"/><use xlink:href="#D" width="26.4" height="21.9" transform="translate(-17.65 -21.45)"/><use xlink:href="#ac" width="36.4" height="66.6" transform="translate(-21.3 -82.8)"/></g></g></svg>