<svg xmlns="http://www.w3.org/2000/svg" xmlns:xlink="http://www.w3.org/1999/xlink" width="892" height="100" viewBox="0 0 892 100"><defs><g id="a"><path fill="#fff" d="m17.6 0 5.9.2-2.3 6.6-3.8 3.6L12 10l1.7-6.4z"/><path fill="none" stroke="#fff" stroke-linecap="round" stroke-linejoin="round" stroke-width="__RESOLUTION__" d="M21.2 6.8 23.5.2l-6-.2m0 0-3.8 3.6-1.6 6.4" vector-effect="non-scaling-stroke"/><path fill="#fff" d="m2.9 20.2.9 1.5.5 4.8-.5-4.8zm1.4 6.3-2.9-5.6L0 14.4l3.7 2.9 3 5.5 1.7 7.5zm-.5-4.8 4.6 8.6zm3.9 1.2-4.1-7.7H9l5.6 4.4 4.9 8.7-6.3-1zm1.6-2.7 1.5 1.1 2.5 6-2.5-6zm1.5 1.1 8.8 7z"/><path fill="none" stroke="#fff" stroke-linecap="round" stroke-linejoin="round" stroke-width="__RESOLUTION__" d="m4.3 26.5-.5-4.8-.9-1.5m-1.5.7 2.9 5.6m4 3.7-4.6-8.5m0-4.4-3.7-3M7.7 23l5.6 4.4-2.5-6-1.5-1.1m-.3-5H3.7m9.7 12 6.3 1-8.8-6.9m-6.5 5.2 4 3.8-1.6-7.5-3-5.5m15.9 11-5-8.7-5.5-4.3" vector-effect="non-scaling-stroke"/><path fill="#fff" d="m12.5 9.7 5.7-1.1 7.2 3.4-9 1.5-1.5.4 1.5-.4 4.5 3.1-5.8 1.1-6.3-3.2zm8.4 6.9-4.5-3.1 9-1.5z"/><path fill="none" stroke="#fff" stroke-linecap="round" stroke-linejoin="round" stroke-width="__RESOLUTION__" d="m25.4 12-7.2-3.4-5.7 1.1m0 0-3.7 4.8m6.3 3.2 5.8-1.1-4.5-3.1-1.5.3M25.4 12l-9 1.6m4.5 3.1 4.5-4.7" vector-effect="non-scaling-stroke"/></g><g id="b"><path fill="#fff" d="M9.4 0q3.2 0 4.9 2.2 4 4.2 4 10.8-.5 3-2.8 4.2-2.8.8-4.1 0l-1.8-5.3-.6.2Q5.6 10 7 4.9 7.4 3 9.3 0"/><path fill="#fff" d="m9 12.2-6-.8q-.9-5.7 2.7-9.8Q7 .2 9.5 0 7.4 3 7 4.8 5.6 10 9 12.2"/><path fill="none" stroke="#fff" stroke-linecap="round" stroke-linejoin="round" stroke-width="__RESOLUTION__" d="M9.4 0q3.2 0 4.9 2.2 4 4.2 4 10.8" vector-effect="non-scaling-stroke"/><path fill="#fff" d="M0 17.2q1.3-3.6 3.3-6.1 1-1.5 2.7-1.5l.8.1q-5 4.1-5.2 16.4Q.2 22 0 17"/><path fill="#fff" d="M6.8 9.7q1.3.2 2.4 1.3-2.2 2.3-4 5.1-2 3-3.6 10 .3-12.3 5.2-16.4"/><path fill="#fff" d="M9.2 11q.7 2.1 2.2 3.4.9 2 .7 2.2-.4.5-2.1 1T6.5 20l-5 6q1.7-6.8 3.7-9.9 1.8-2.8 4-5.1"/><path fill="none" stroke="#fff" stroke-linecap="round" stroke-linejoin="round" stroke-width="__RESOLUTION__" d="M11.4 14.4q.9 2 .7 2.2-.4.5-2.1 1T6.5 20l-5 6Q.4 22 0 17.2" vector-effect="non-scaling-stroke"/><path fill="#fff" d="m11.1 11.7-.1-2q.1-2 .7-3.4 2.6 1.2 2.8 3.2l-2.3 1.7z"/><path fill="#fff" d="m11.7 6.3.2-.4q.7-1.6 1.6-1.6T15 5.9l.5 1.7v.1q-.3 1.1-1 1.8-.3-2-2.9-3.2"/><path fill="#fff" d="M15.5 7.7v2q-.1 2.2-.8 3.7l-.9 1.3-.8.3q-1 0-1.5-1.6-.4-.7-.4-1.7l1.1-.5 2.3-1.7q.8-.6 1-1.8"/><path fill="#fff" d="m13 11-.3-.2 1.3-1 .3.6-.3.7-.5.2q-.4 0-.6-.2"/></g><g id="c"><path fill="#fff" d="M5.5 19.5q1.6-5 .9-10.9l-.6-1Q4 4.4 2.7.3L4 0l2.3.2q1.2.6 2.5 2.6 1.3 1.9.8 5.9-.7 4-.5 6.8T7.2 19l-1.6.4z"/><path fill="#fff" d="M2.7.3q1.3 4 3 7.3l.7 1q.7 5.9-.9 10.9l-3-.2q-1.4-.3.2-4.4t.2-6.5T.3 3.5Q-.9 1.3 2.2.4z"/><path fill="none" stroke="#fff" stroke-linecap="round" stroke-linejoin="round" stroke-width="__RESOLUTION__" d="m5.5 19.5 1.6-.4q2-.8 1.9-3.6t.5-6.7-.8-6Q7.4 1 6.3.3L4 0 2.7.3l-.6.1q-3 .8-1.8 3.2t2.6 4.8-.2 6.5-.2 4.5z" vector-effect="non-scaling-stroke"/></g><g id="d"><path fill="#fff" d="m12.6 12-6.9 7-2-4.3 2.6-6.6L13.9 0l1.4 5.4zm-5.2 1.8 5.7-11.3z"/><path fill="none" stroke="#fff" stroke-linecap="round" stroke-linejoin="round" stroke-width="__RESOLUTION__" d="m12.6 12 2.7-6.6L13.9 0 6.3 8.2l-2.6 6.6 2 4.3m7.4-16.6L7.4 13.9" vector-effect="non-scaling-stroke"/><path fill="#fff" d="m10.7 11.2-.8 2.7-2 1.4 2-1.4zm2.9-.1-3.7 2.8zM2.7 17.7l3.9-5.3 4.7-2.8 4 .8-2.7 6.3-3.5 3z"/><path fill="none" stroke="#fff" stroke-linecap="round" stroke-linejoin="round" stroke-width="__RESOLUTION__" d="m7.9 15.4 2-1.5.8-2.7m-.8 2.7 3.7-2.9m-4.5 8.7 3.5-3 2.7-6.2-4-.9-4.7 2.8-3.9 5.3-2.7 1" vector-effect="non-scaling-stroke"/></g><g id="e"><path fill="#fff" d="M3 2.7Q7.2 2.2 9.3 0l3.3.7q-1.5 4-2.5 4.8-1.8-2-3.6-1.2Q4.9 2.7 3 2.7"/><path fill="#fff" d="M3 2.7q1.9 0 3.5 1.6 1.8-.7 3.6 1.2 1-.8 2.6-4.8 1.1 1-.4 5L9.7 9.4q-2.9 2-4.3-1.6-3.3 1-4.1-1.8-.8-1.8.7-3.2zm3.5 1.6Q5.1 5.6 5.4 7.7q-.3-2.1 1.1-3.4"/><path fill="none" stroke="#fff" stroke-linecap="round" stroke-linejoin="round" stroke-width="__RESOLUTION__" d="M12.7.7 9.3 0Q7.2 2.2 3 2.7l-1 .1Q.6 4.2 1.3 6q.8 2.8 4.1 1.7 1.4 3.6 4.3 1.7v-.1l2.6-3.5q1.5-4 .3-5.1m-7.2 7Q5 5.6 6.5 4.3" vector-effect="non-scaling-stroke"/><path fill="#fff" d="m2.2 3.4.8.1q.9.3 1.4 1.2t-.2 1.2q-.6.4-1 2.6-.3 1.3-.9 1.5-1.7-2.7-.1-6.6"/><path fill="#fff" d="M2.3 10q-.4 0-1.1-.4t-1-2.2Q-.3 5.6 0 5.1q.5-1 1.3-1.5l.8-.3q-1.6 4 .1 6.6"/><path fill="none" stroke="#fff" stroke-linecap="round" stroke-linejoin="round" stroke-width="__RESOLUTION__" d="m2.2 3.4.8.1q.9.3 1.4 1.2t-.2 1.2q-.6.4-1 2.6-.3 1.3-.9 1.5" vector-effect="non-scaling-stroke"/><path fill="#fff" d="m6.1 11.2-1-.6q-.6-.7-.8-2.6-.2-1.7.1-2.3.5-1 1.3-1.2l.7-.1q-1.8 3.7-.3 6.8"/><path fill="#fff" d="m6.5 4.4.8.4q.8.5 1.2 1.5t-.3 1.2-1.1 2.4q-.3 1.3-1 1.3-1.4-3.1.4-6.8"/></g><g id="f"><path fill="none" stroke="#fff" stroke-linecap="round" stroke-linejoin="round" stroke-width="1" d="M10.5 33.6Q8.1 16.4.4.5"/><path fill="#fff" d="M13.6 41.8q.3 1.9 1.9 5.3l.3 1.3q-2.4 6.8-5 7.1-2.6.1-4-6.6Q9.3 42.3 9.1 33l2.4-.6q.2 3.3 2 9.4m-2 7.8q-.4-.5-.9-.4t-.8.8l-.2.9v.4q.1.8.6 1.2t.9.3l.8-.7q.3-.7.2-1.4l-.2-.5z"/><path fill="#fff" d="m11.5 49.6.4.6.2.5-.2 1.4-.8.7q-.5.1-1-.3t-.5-1.2v-.4l.2-.9q.2-.6.8-.7.5-.2.9.3"/><path fill="none" stroke="#fff" stroke-linecap="round" stroke-linejoin="round" stroke-width="__RESOLUTION__" d="M13.6 41.8q.3 1.9 1.9 5.3l.3 1.3q-2.4 6.8-5 7.1-2.6.1-4-6.6Q9.3 42.3 9.1 33l2.4-.6q.2 3.3 2 9.4" vector-effect="non-scaling-stroke"/></g><g id="g"><path fill="#f6fbfc" d="m17.6 0 5.9.2-2.3 6.6-3.8 3.6L12 10l1.7-6.4z"/><path fill="none" stroke="#fefefe" stroke-linecap="round" stroke-linejoin="round" stroke-width="__RESOLUTION__" d="M21.2 6.8 23.5.2l-6-.2" vector-effect="non-scaling-stroke"/><path fill="none" stroke="#ebf6fa" stroke-linecap="round" stroke-linejoin="round" stroke-width="__RESOLUTION__" d="m17.6 0-3.8 3.6-1.6 6.4" vector-effect="non-scaling-stroke"/><path fill="#f6fbfc" d="m2.9 20.2.9 1.5.5 4.8-.5-4.8zm1.4 6.3-2.9-5.6L0 14.4l3.7 2.9 3 5.5 1.7 7.5zm-.5-4.8 4.6 8.6zm3.9 1.2-4.1-7.7H9l5.6 4.4 4.9 8.7-6.3-1zm1.6-2.7 1.5 1.1 2.5 6-2.5-6zm1.5 1.1 8.8 7z"/><path fill="none" stroke="#ebf6fa" stroke-linecap="round" stroke-linejoin="round" stroke-width="__RESOLUTION__" d="m4.3 26.5-.5-4.8-.9-1.5m-1.5.7 2.9 5.6m4 3.7-4.6-8.5m0-4.4-3.7-3M7.7 23l5.6 4.4-2.5-6-1.5-1.1m-.3-5H3.7m9.7 12 6.3 1-8.8-6.9" vector-effect="non-scaling-stroke"/><path fill="none" stroke="#fefefe" stroke-linecap="round" stroke-linejoin="round" stroke-width="__RESOLUTION__" d="m4.3 26.5 4 3.7-1.7-7.4-3-5.5m16 11-5-8.7-5.5-4.3" vector-effect="non-scaling-stroke"/><path fill="#f6fbfc" d="m12.5 9.7 5.7-1.1 7.2 3.4-9 1.5-1.5.4 1.5-.4 4.5 3.1-5.8 1.1-6.3-3.2zm8.4 6.9-4.5-3.1 9-1.5z"/><path fill="none" stroke="#fefefe" stroke-linecap="round" stroke-linejoin="round" stroke-width="__RESOLUTION__" d="m25.4 12-7.2-3.4-5.7 1.1" vector-effect="non-scaling-stroke"/><path fill="none" stroke="#ebf6fa" stroke-linecap="round" stroke-linejoin="round" stroke-width="__RESOLUTION__" d="m12.5 9.7-3.7 4.8m6.3 3.2 5.8-1.1-4.5-3.1-1.5.3M25.4 12l-9 1.6m4.5 3.1 4.5-4.7" vector-effect="non-scaling-stroke"/></g><g id="h"><path fill="#efebf2" d="M9.4 0q3.2 0 4.9 2.2 4 4.2 4 10.8-.5 3-2.8 4.2-2.8.8-4.1 0l-1.8-5.3-.6.2Q5.6 10 7 4.9 7.4 3 9.3 0"/><path fill="#f6fbfc" d="m9 12.2-6-.8q-.9-5.7 2.7-9.8Q7 .2 9.5 0 7.4 3 7 4.8 5.6 10 9 12.2"/><path fill="none" stroke="#ebf6fa" stroke-linecap="round" stroke-linejoin="round" stroke-width="__RESOLUTION__" d="M9.4 0q3.2 0 4.9 2.2 4 4.2 4 10.8" vector-effect="non-scaling-stroke"/><path fill="#fefefe" d="M0 17.2q1.3-3.6 3.3-6.1 1-1.5 2.7-1.5l.8.1q-5 4.1-5.2 16.4Q.2 22 0 17"/><path fill="#f6fbfc" d="M6.8 9.7q1.3.2 2.4 1.3-2.2 2.3-4 5.1-2 3-3.6 10 .3-12.3 5.2-16.4"/><path fill="#efebf2" d="M9.2 11q.7 2.1 2.2 3.4.9 2 .7 2.2-.4.5-2.1 1T6.5 20l-5 6q1.7-6.8 3.7-9.9 1.8-2.8 4-5.1"/><path fill="none" stroke="#ebf6fa" stroke-linecap="round" stroke-linejoin="round" stroke-width="__RESOLUTION__" d="M11.4 14.4q.9 2 .7 2.2-.4.5-2.1 1T6.5 20l-5 6Q.4 22 0 17.2" vector-effect="non-scaling-stroke"/><path fill="#f6fbfc" d="m11.1 11.7-.1-2q.1-2 .7-3.4 2.6 1.2 2.8 3.2l-2.3 1.7z"/><path fill="#efebf2" d="m11.7 6.3.2-.4q.7-1.6 1.6-1.6T15 5.9l.5 1.7v.1q-.3 1.1-1 1.8-.3-2-2.9-3.2"/><path fill="#fefefe" d="M15.5 7.7v2q-.1 2.2-.8 3.7l-.9 1.3-.8.3q-1 0-1.5-1.6-.4-.7-.4-1.7l1.1-.5 2.3-1.7q.8-.6 1-1.8"/><path fill="#d4d4d4" d="m13 11-.3-.2 1.3-1 .3.6-.3.7-.5.2q-.4 0-.6-.2"/></g><g id="i"><path fill="#f6fbfc" d="M5.5 19.5q1.6-5 .9-10.9l-.6-1Q4 4.4 2.7.3L4 0l2.3.2q1.2.6 2.5 2.6 1.3 1.9.8 5.9-.7 4-.5 6.8T7.2 19l-1.6.4z"/><path fill="#efebf2" d="M2.7.3q1.3 4 3 7.3l.7 1q.7 5.9-.9 10.9l-3-.2q-1.4-.3.2-4.4t.2-6.5T.3 3.5Q-.9 1.3 2.2.4z"/><path fill="none" stroke="#ebf6fa" stroke-linecap="round" stroke-linejoin="round" stroke-width="__RESOLUTION__" d="m5.5 19.5 1.6-.4q2-.8 1.9-3.6t.5-6.7-.8-6Q7.4 1 6.3.3L4 0 2.7.3l-.6.1q-3 .8-1.8 3.2t2.6 4.8-.2 6.5-.2 4.5z" vector-effect="non-scaling-stroke"/></g><g id="j"><path fill="#f6fbfc" d="m12.6 12-6.9 7-2-4.3 2.6-6.6L13.9 0l1.4 5.4zm-5.2 1.8 5.7-11.3z"/><path fill="none" stroke="#ebf6fa" stroke-linecap="round" stroke-linejoin="round" stroke-width="__RESOLUTION__" d="m12.6 12 2.7-6.6L13.9 0 6.3 8.2l-2.6 6.6 2 4.3m7.4-16.6L7.4 13.9" vector-effect="non-scaling-stroke"/><path fill="#f6fbfc" d="m10.7 11.2-.8 2.7-2 1.4 2-1.4zm2.9-.1-3.7 2.8zM2.7 17.7l3.9-5.3 4.7-2.8 4 .8-2.7 6.3-3.5 3z"/><path fill="none" stroke="#ebf6fa" stroke-linecap="round" stroke-linejoin="round" stroke-width="__RESOLUTION__" d="m7.9 15.4 2-1.5.8-2.7m-.8 2.7 3.7-2.9m-4.5 8.7 3.5-3 2.7-6.2-4-.9-4.7 2.8-3.9 5.3-2.7 1" vector-effect="non-scaling-stroke"/></g><g id="k"><path fill="#efebf2" d="M3 2.7Q7.2 2.2 9.3 0l3.3.7q-1.5 4-2.5 4.8-1.8-2-3.6-1.2Q4.9 2.7 3 2.7"/><path fill="#f6fbfc" d="M3 2.7q1.9 0 3.5 1.6 1.8-.7 3.6 1.2 1-.8 2.6-4.8 1.1 1-.4 5L9.7 9.4q-2.9 2-4.3-1.6-3.3 1-4.1-1.8-.8-1.8.7-3.2zm3.5 1.6Q5.1 5.6 5.4 7.7q-.3-2.1 1.1-3.4"/><path fill="none" stroke="#ebf6fa" stroke-linecap="round" stroke-linejoin="round" stroke-width="__RESOLUTION__" d="M12.7.7 9.3 0Q7.2 2.2 3 2.7l-1 .1Q.6 4.2 1.3 6q.8 2.8 4.1 1.7 1.4 3.6 4.3 1.7v-.1l2.6-3.5q1.5-4 .3-5.1m-7.2 7Q5 5.6 6.5 4.3" vector-effect="non-scaling-stroke"/><path fill="#ebf6fa" d="m2.2 3.4.8.1q.9.3 1.4 1.2t-.2 1.2q-.6.4-1 2.6-.3 1.3-.9 1.5-1.7-2.7-.1-6.6"/><path fill="#fefefe" d="M2.3 10q-.4 0-1.1-.4t-1-2.2Q-.3 5.6 0 5.1q.5-1 1.3-1.5l.8-.3q-1.6 4 .1 6.6"/><path fill="none" stroke="#fefefe" stroke-linecap="round" stroke-linejoin="round" stroke-width="__RESOLUTION__" d="m2.2 3.4.8.1q.9.3 1.4 1.2t-.2 1.2q-.6.4-1 2.6-.3 1.3-.9 1.5" vector-effect="non-scaling-stroke"/><path fill="#fefefe" d="m6.1 11.2-1-.6q-.6-.7-.8-2.6-.2-1.7.1-2.3.5-1 1.3-1.2l.7-.1q-1.8 3.7-.3 6.8"/><path fill="#ebf6fa" d="m6.5 4.4.8.4q.8.5 1.2 1.5t-.3 1.2-1.1 2.4q-.3 1.3-1 1.3-1.4-3.1.4-6.8"/></g><g id="l"><path fill="none" stroke="#fcfcfc" stroke-linecap="round" stroke-linejoin="round" stroke-width="1" d="M10.5 33.6Q8.1 16.4.4.5"/><path fill="#eeeaf0" d="M13.6 41.8q.3 1.9 1.9 5.3l.3 1.3q-2.4 6.8-5 7.1-2.6.1-4-6.6Q9.3 42.3 9.1 33l2.4-.6q.2 3.3 2 9.4m-2 7.8q-.4-.5-.9-.4t-.8.8l-.2.9v.4q.1.8.6 1.2t.9.3l.8-.7q.3-.7.2-1.4l-.2-.5z"/><path fill="#f4f9fb" d="m11.5 49.6.4.6.2.5-.2 1.4-.8.7q-.5.1-1-.3t-.5-1.2v-.4l.2-.9q.2-.6.8-.7.5-.2.9.3"/><path fill="none" stroke="#eaf5f8" stroke-linecap="round" stroke-linejoin="round" stroke-width="__RESOLUTION__" d="M13.6 41.8q.3 1.9 1.9 5.3l.3 1.3q-2.4 6.8-5 7.1-2.6.1-4-6.6Q9.3 42.3 9.1 33l2.4-.6q.2 3.3 2 9.4" vector-effect="non-scaling-stroke"/></g><g id="m"><path fill="none" stroke="#fdfdfd" stroke-linecap="round" stroke-linejoin="round" stroke-width="1" d="M10.5 33.6Q8.1 16.4.4.5"/><path fill="#efebf1" d="M13.6 41.8q.3 1.9 1.9 5.3l.3 1.3q-2.4 6.8-5 7.1-2.6.1-4-6.6Q9.3 42.3 9.1 33l2.4-.6q.2 3.3 2 9.4m-2 7.8q-.4-.5-.9-.4t-.8.8l-.2.9v.4q.1.8.6 1.2t.9.3l.8-.7q.3-.7.2-1.4l-.2-.5z"/><path fill="#f5fafc" d="m11.5 49.6.4.6.2.5-.2 1.4-.8.7q-.5.1-1-.3t-.5-1.2v-.4l.2-.9q.2-.6.8-.7.5-.2.9.3"/><path fill="none" stroke="#ebf6f9" stroke-linecap="round" stroke-linejoin="round" stroke-width="__RESOLUTION__" d="M13.6 41.8q.3 1.9 1.9 5.3l.3 1.3q-2.4 6.8-5 7.1-2.6.1-4-6.6Q9.3 42.3 9.1 33l2.4-.6q.2 3.3 2 9.4" vector-effect="non-scaling-stroke"/></g><g id="n"><path fill="#eef7fb" d="m17.6 0 5.9.2-2.3 6.6-3.8 3.6L12 10l1.7-6.4z"/><path fill="none" stroke="#fefefe" stroke-linecap="round" stroke-linejoin="round" stroke-width="__RESOLUTION__" d="M21.2 6.8 23.5.2l-6-.2" vector-effect="non-scaling-stroke"/><path fill="none" stroke="#d9eff6" stroke-linecap="round" stroke-linejoin="round" stroke-width="__RESOLUTION__" d="m17.6 0-3.8 3.6-1.6 6.4" vector-effect="non-scaling-stroke"/><path fill="#eef7fb" d="m2.9 20.2.9 1.5.5 4.8-.5-4.8zm1.4 6.3-2.9-5.6L0 14.4l3.7 2.9 3 5.5 1.7 7.5zm-.5-4.8 4.6 8.6zm3.9 1.2-4.1-7.7H9l5.6 4.4 4.9 8.7-6.3-1zm1.6-2.7 1.5 1.1 2.5 6-2.5-6zm1.5 1.1 8.8 7z"/><path fill="none" stroke="#d9eff6" stroke-linecap="round" stroke-linejoin="round" stroke-width="__RESOLUTION__" d="m4.3 26.5-.5-4.8-.9-1.5m-1.5.7 2.9 5.6m4 3.7-4.6-8.5m0-4.4-3.7-3M7.7 23l5.6 4.4-2.5-6-1.5-1.1m-.3-5H3.7m9.7 12 6.3 1-8.8-6.9" vector-effect="non-scaling-stroke"/><path fill="none" stroke="#fefefe" stroke-linecap="round" stroke-linejoin="round" stroke-width="__RESOLUTION__" d="m4.3 26.5 4 3.7-1.7-7.4-3-5.5m16 11-5-8.7-5.5-4.3" vector-effect="non-scaling-stroke"/><path fill="#eef7fb" d="m12.5 9.7 5.7-1.1 7.2 3.4-9 1.5-1.5.4 1.5-.4 4.5 3.1-5.8 1.1-6.3-3.2zm8.4 6.9-4.5-3.1 9-1.5z"/><path fill="none" stroke="#fefefe" stroke-linecap="round" stroke-linejoin="round" stroke-width="__RESOLUTION__" d="m25.4 12-7.2-3.4-5.7 1.1" vector-effect="non-scaling-stroke"/><path fill="none" stroke="#d9eff6" stroke-linecap="round" stroke-linejoin="round" stroke-width="__RESOLUTION__" d="m12.5 9.7-3.7 4.8m6.3 3.2 5.8-1.1-4.5-3.1-1.5.3M25.4 12l-9 1.6m4.5 3.1 4.5-4.7" vector-effect="non-scaling-stroke"/></g><g id="o"><path fill="#e1d9e6" d="M9.4 0q3.2 0 4.9 2.2 4 4.2 4 10.8-.5 3-2.8 4.2-2.8.8-4.1 0l-1.8-5.3-.6.2Q5.6 10 7 4.9 7.4 3 9.3 0"/><path fill="#eef7fb" d="m9 12.2-6-.8q-.9-5.7 2.7-9.8Q7 .2 9.5 0 7.4 3 7 4.8 5.6 10 9 12.2"/><path fill="none" stroke="#d9eff6" stroke-linecap="round" stroke-linejoin="round" stroke-width="__RESOLUTION__" d="M9.4 0q3.2 0 4.9 2.2 4 4.2 4 10.8" vector-effect="non-scaling-stroke"/><path fill="#fefefe" d="M0 17.2q1.3-3.6 3.3-6.1 1-1.5 2.7-1.5l.8.1q-5 4.1-5.2 16.4Q.2 22 0 17"/><path fill="#eef7fb" d="M6.8 9.7q1.3.2 2.4 1.3-2.2 2.3-4 5.1-2 3-3.6 10 .3-12.3 5.2-16.4"/><path fill="#e1d9e6" d="M9.2 11q.7 2.1 2.2 3.4.9 2 .7 2.2-.4.5-2.1 1T6.5 20l-5 6q1.7-6.8 3.7-9.9 1.8-2.8 4-5.1"/><path fill="none" stroke="#d9eff6" stroke-linecap="round" stroke-linejoin="round" stroke-width="__RESOLUTION__" d="M11.4 14.4q.9 2 .7 2.2-.4.5-2.1 1T6.5 20l-5 6Q.4 22 0 17.2" vector-effect="non-scaling-stroke"/><path fill="#eef7fb" d="m11.1 11.7-.1-2q.1-2 .7-3.4 2.6 1.2 2.8 3.2l-2.3 1.7z"/><path fill="#e1d9e6" d="m11.7 6.3.2-.4q.7-1.6 1.6-1.6T15 5.9l.5 1.7v.1q-.3 1.1-1 1.8-.3-2-2.9-3.2"/><path fill="#fefefe" d="M15.5 7.7v2q-.1 2.2-.8 3.7l-.9 1.3-.8.3q-1 0-1.5-1.6-.4-.7-.4-1.7l1.1-.5 2.3-1.7q.8-.6 1-1.8"/><path fill="#aaa" d="m13 11-.3-.2 1.3-1 .3.6-.3.7-.5.2q-.4 0-.6-.2"/></g><g id="p"><path fill="#eef7fb" d="M5.5 19.5q1.6-5 .9-10.9l-.6-1Q4 4.4 2.7.3L4 0l2.3.2q1.2.6 2.5 2.6 1.3 1.9.8 5.9-.7 4-.5 6.8T7.2 19l-1.6.4z"/><path fill="#e1d9e6" d="M2.7.3q1.3 4 3 7.3l.7 1q.7 5.9-.9 10.9l-3-.2q-1.4-.3.2-4.4t.2-6.5T.3 3.5Q-.9 1.3 2.2.4z"/><path fill="none" stroke="#d9eff6" stroke-linecap="round" stroke-linejoin="round" stroke-width="__RESOLUTION__" d="m5.5 19.5 1.6-.4q2-.8 1.9-3.6t.5-6.7-.8-6Q7.4 1 6.3.3L4 0 2.7.3l-.6.1q-3 .8-1.8 3.2t2.6 4.8-.2 6.5-.2 4.5z" vector-effect="non-scaling-stroke"/></g><g id="q"><path fill="#eef7fb" d="m12.6 12-6.9 7-2-4.3 2.6-6.6L13.9 0l1.4 5.4zm-5.2 1.8 5.7-11.3z"/><path fill="none" stroke="#d9eff6" stroke-linecap="round" stroke-linejoin="round" stroke-width="__RESOLUTION__" d="m12.6 12 2.7-6.6L13.9 0 6.3 8.2l-2.6 6.6 2 4.3m7.4-16.6L7.4 13.9" vector-effect="non-scaling-stroke"/><path fill="#eef7fb" d="m10.7 11.2-.8 2.7-2 1.4 2-1.4zm2.9-.1-3.7 2.8zM2.7 17.7l3.9-5.3 4.7-2.8 4 .8-2.7 6.3-3.5 3z"/><path fill="none" stroke="#d9eff6" stroke-linecap="round" stroke-linejoin="round" stroke-width="__RESOLUTION__" d="m7.9 15.4 2-1.5.8-2.7m-.8 2.7 3.7-2.9m-4.5 8.7 3.5-3 2.7-6.2-4-.9-4.7 2.8-3.9 5.3-2.7 1" vector-effect="non-scaling-stroke"/></g><g id="r"><path fill="#e1d9e6" d="M3 2.7Q7.2 2.2 9.3 0l3.3.7q-1.5 4-2.5 4.8-1.8-2-3.6-1.2Q4.9 2.7 3 2.7"/><path fill="#eef7fb" d="M3 2.7q1.9 0 3.5 1.6 1.8-.7 3.6 1.2 1-.8 2.6-4.8 1.1 1-.4 5L9.7 9.4q-2.9 2-4.3-1.6-3.3 1-4.1-1.8-.8-1.8.7-3.2zm3.5 1.6Q5.1 5.6 5.4 7.7q-.3-2.1 1.1-3.4"/><path fill="none" stroke="#d9eff6" stroke-linecap="round" stroke-linejoin="round" stroke-width="__RESOLUTION__" d="M12.7.7 9.3 0Q7.2 2.2 3 2.7l-1 .1Q.6 4.2 1.3 6q.8 2.8 4.1 1.7 1.4 3.6 4.3 1.7v-.1l2.6-3.5q1.5-4 .3-5.1m-7.2 7Q5 5.6 6.5 4.3" vector-effect="non-scaling-stroke"/><path fill="#d9eff6" d="m2.2 3.4.8.1q.9.3 1.4 1.2t-.2 1.2q-.6.4-1 2.6-.3 1.3-.9 1.5-1.7-2.7-.1-6.6"/><path fill="#fefefe" d="M2.3 10q-.4 0-1.1-.4t-1-2.2Q-.3 5.6 0 5.1q.5-1 1.3-1.5l.8-.3q-1.6 4 .1 6.6"/><path fill="none" stroke="#fefefe" stroke-linecap="round" stroke-linejoin="round" stroke-width="__RESOLUTION__" d="m2.2 3.4.8.1q.9.3 1.4 1.2t-.2 1.2q-.6.4-1 2.6-.3 1.3-.9 1.5" vector-effect="non-scaling-stroke"/><path fill="#fefefe" d="m6.1 11.2-1-.6q-.6-.7-.8-2.6-.2-1.7.1-2.3.5-1 1.3-1.2l.7-.1q-1.8 3.7-.3 6.8"/><path fill="#d9eff6" d="m6.5 4.4.8.4q.8.5 1.2 1.5t-.3 1.2-1.1 2.4q-.3 1.3-1 1.3-1.4-3.1.4-6.8"/></g><g id="s"><path fill="none" stroke="#fcfcfc" stroke-linecap="round" stroke-linejoin="round" stroke-width="1" d="M10.5 33.6Q8.1 16.4.4.5"/><path fill="#dfd8e4" d="M13.6 41.8q.3 1.9 1.9 5.3l.3 1.3q-2.4 6.8-5 7.1-2.6.1-4-6.6Q9.3 42.3 9.1 33l2.4-.6q.2 3.3 2 9.4m-2 7.8q-.4-.5-.9-.4t-.8.8l-.2.9v.4q.1.8.6 1.2t.9.3l.8-.7q.3-.7.2-1.4l-.2-.5z"/><path fill="#ecf5f9" d="m11.5 49.6.4.6.2.5-.2 1.4-.8.7q-.5.1-1-.3t-.5-1.2v-.4l.2-.9q.2-.6.8-.7.5-.2.9.3"/><path fill="none" stroke="#d8edf4" stroke-linecap="round" stroke-linejoin="round" stroke-width="__RESOLUTION__" d="M13.6 41.8q.3 1.9 1.9 5.3l.3 1.3q-2.4 6.8-5 7.1-2.6.1-4-6.6Q9.3 42.3 9.1 33l2.4-.6q.2 3.3 2 9.4" vector-effect="non-scaling-stroke"/></g><g id="t"><path fill="none" stroke="#fdfdfd" stroke-linecap="round" stroke-linejoin="round" stroke-width="1" d="M10.5 33.6Q8.1 16.4.4.5"/><path fill="#e0d8e5" d="M13.6 41.8q.3 1.9 1.9 5.3l.3 1.3q-2.4 6.8-5 7.1-2.6.1-4-6.6Q9.3 42.3 9.1 33l2.4-.6q.2 3.3 2 9.4m-2 7.8q-.4-.5-.9-.4t-.8.8l-.2.9v.4q.1.8.6 1.2t.9.3l.8-.7q.3-.7.2-1.4l-.2-.5z"/><path fill="#edf6fa" d="m11.5 49.6.4.6.2.5-.2 1.4-.8.7q-.5.1-1-.3t-.5-1.2v-.4l.2-.9q.2-.6.8-.7.5-.2.9.3"/><path fill="none" stroke="#d8eef5" stroke-linecap="round" stroke-linejoin="round" stroke-width="__RESOLUTION__" d="M13.6 41.8q.3 1.9 1.9 5.3l.3 1.3q-2.4 6.8-5 7.1-2.6.1-4-6.6Q9.3 42.3 9.1 33l2.4-.6q.2 3.3 2 9.4" vector-effect="non-scaling-stroke"/></g><g id="u"><path fill="#e7f5fa" d="m17.6 0 5.9.2-2.3 6.6-3.8 3.6L12 10l1.7-6.4z"/><path fill="none" stroke="#fff" stroke-linecap="round" stroke-linejoin="round" stroke-width="__RESOLUTION__" d="M21.2 6.8 23.5.2l-6-.2" vector-effect="non-scaling-stroke"/><path fill="none" stroke="#c7e8f3" stroke-linecap="round" stroke-linejoin="round" stroke-width="__RESOLUTION__" d="m17.6 0-3.8 3.6-1.6 6.4" vector-effect="non-scaling-stroke"/><path fill="#e7f5fa" d="m2.9 20.2.9 1.5.5 4.8-.5-4.8zm1.4 6.3-2.9-5.6L0 14.4l3.7 2.9 3 5.5 1.7 7.5zm-.5-4.8 4.6 8.6zm3.9 1.2-4.1-7.7H9l5.6 4.4 4.9 8.7-6.3-1zm1.6-2.7 1.5 1.1 2.5 6-2.5-6zm1.5 1.1 8.8 7z"/><path fill="none" stroke="#c7e8f3" stroke-linecap="round" stroke-linejoin="round" stroke-width="__RESOLUTION__" d="m4.3 26.5-.5-4.8-.9-1.5m-1.5.7 2.9 5.6m4 3.7-4.6-8.5m0-4.4-3.7-3M7.7 23l5.6 4.4-2.5-6-1.5-1.1m-.3-5H3.7m9.7 12 6.3 1-8.8-6.9" vector-effect="non-scaling-stroke"/><path fill="none" stroke="#fff" stroke-linecap="round" stroke-linejoin="round" stroke-width="__RESOLUTION__" d="m4.3 26.5 4 3.7-1.7-7.4-3-5.5m16 11-5-8.7-5.5-4.3" vector-effect="non-scaling-stroke"/><path fill="#e7f5fa" d="m12.5 9.7 5.7-1.1 7.2 3.4-9 1.5-1.5.4 1.5-.4 4.5 3.1-5.8 1.1-6.3-3.2zm8.4 6.9-4.5-3.1 9-1.5z"/><path fill="none" stroke="#fff" stroke-linecap="round" stroke-linejoin="round" stroke-width="__RESOLUTION__" d="m25.4 12-7.2-3.4-5.7 1.1" vector-effect="non-scaling-stroke"/><path fill="none" stroke="#c7e8f3" stroke-linecap="round" stroke-linejoin="round" stroke-width="__RESOLUTION__" d="m12.5 9.7-3.7 4.8m6.3 3.2 5.8-1.1-4.5-3.1-1.5.3M25.4 12l-9 1.6m4.5 3.1 4.5-4.7" vector-effect="non-scaling-stroke"/></g><g id="v"><path fill="#d3c7da" d="M9.4 0q3.2 0 4.9 2.2 4 4.2 4 10.8-.5 3-2.8 4.2-2.8.8-4.1 0l-1.8-5.3-.6.2Q5.6 10 7 4.9 7.4 3 9.3 0"/><path fill="#e7f5fa" d="m9 12.2-6-.8q-.9-5.7 2.7-9.8Q7 .2 9.5 0 7.4 3 7 4.8 5.6 10 9 12.2"/><path fill="none" stroke="#c7e8f3" stroke-linecap="round" stroke-linejoin="round" stroke-width="__RESOLUTION__" d="M9.4 0q3.2 0 4.9 2.2 4 4.2 4 10.8" vector-effect="non-scaling-stroke"/><path fill="#fff" d="M0 17.2q1.3-3.6 3.3-6.1 1-1.5 2.7-1.5l.8.1q-5 4.1-5.2 16.4Q.2 22 0 17"/><path fill="#e7f5fa" d="M6.8 9.7q1.3.2 2.4 1.3-2.2 2.3-4 5.1-2 3-3.6 10 .3-12.3 5.2-16.4"/><path fill="#d3c7da" d="M9.2 11q.7 2.1 2.2 3.4.9 2 .7 2.2-.4.5-2.1 1T6.5 20l-5 6q1.7-6.8 3.7-9.9 1.8-2.8 4-5.1"/><path fill="none" stroke="#c7e8f3" stroke-linecap="round" stroke-linejoin="round" stroke-width="__RESOLUTION__" d="M11.4 14.4q.9 2 .7 2.2-.4.5-2.1 1T6.5 20l-5 6Q.4 22 0 17.2" vector-effect="non-scaling-stroke"/><path fill="#e7f5fa" d="m11.1 11.7-.1-2q.1-2 .7-3.4 2.6 1.2 2.8 3.2l-2.3 1.7z"/><path fill="#d3c7da" d="m11.7 6.3.2-.4q.7-1.6 1.6-1.6T15 5.9l.5 1.7v.1q-.3 1.1-1 1.8-.3-2-2.9-3.2"/><path fill="#fff" d="M15.5 7.7v2q-.1 2.2-.8 3.7l-.9 1.3-.8.3q-1 0-1.5-1.6-.4-.7-.4-1.7l1.1-.5 2.3-1.7q.8-.6 1-1.8"/><path fill="gray" d="m13 11-.3-.2 1.3-1 .3.6-.3.7-.5.2q-.4 0-.6-.2"/></g><g id="w"><path fill="#e7f5fa" d="M5.5 19.5q1.6-5 .9-10.9l-.6-1Q4 4.4 2.7.3L4 0l2.3.2q1.2.6 2.5 2.6 1.3 1.9.8 5.9-.7 4-.5 6.8T7.2 19l-1.6.4z"/><path fill="#d3c7da" d="M2.7.3q1.3 4 3 7.3l.7 1q.7 5.9-.9 10.9l-3-.2q-1.4-.3.2-4.4t.2-6.5T.3 3.5Q-.9 1.3 2.2.4z"/><path fill="none" stroke="#c7e8f3" stroke-linecap="round" stroke-linejoin="round" stroke-width="__RESOLUTION__" d="m5.5 19.5 1.6-.4q2-.8 1.9-3.6t.5-6.7-.8-6Q7.4 1 6.3.3L4 0 2.7.3l-.6.1q-3 .8-1.8 3.2t2.6 4.8-.2 6.5-.2 4.5z" vector-effect="non-scaling-stroke"/></g><g id="x"><path fill="#e7f5fa" d="m12.6 12-6.9 7-2-4.3 2.6-6.6L13.9 0l1.4 5.4zm-5.2 1.8 5.7-11.3z"/><path fill="none" stroke="#c7e8f3" stroke-linecap="round" stroke-linejoin="round" stroke-width="__RESOLUTION__" d="m12.6 12 2.7-6.6L13.9 0 6.3 8.2l-2.6 6.6 2 4.3m7.4-16.6L7.4 13.9" vector-effect="non-scaling-stroke"/><path fill="#e7f5fa" d="m10.7 11.2-.8 2.7-2 1.4 2-1.4zm2.9-.1-3.7 2.8zM2.7 17.7l3.9-5.3 4.7-2.8 4 .8-2.7 6.3-3.5 3z"/><path fill="none" stroke="#c7e8f3" stroke-linecap="round" stroke-linejoin="round" stroke-width="__RESOLUTION__" d="m7.9 15.4 2-1.5.8-2.7m-.8 2.7 3.7-2.9m-4.5 8.7 3.5-3 2.7-6.2-4-.9-4.7 2.8-3.9 5.3-2.7 1" vector-effect="non-scaling-stroke"/></g><g id="y"><path fill="#d3c7da" d="M3 2.7Q7.2 2.2 9.3 0l3.3.7q-1.5 4-2.5 4.8-1.8-2-3.6-1.2Q4.9 2.7 3 2.7"/><path fill="#e7f5fa" d="M3 2.7q1.9 0 3.5 1.6 1.8-.7 3.6 1.2 1-.8 2.6-4.8 1.1 1-.4 5L9.7 9.4q-2.9 2-4.3-1.6-3.3 1-4.1-1.8-.8-1.8.7-3.2zm3.5 1.6Q5.1 5.6 5.4 7.7q-.3-2.1 1.1-3.4"/><path fill="none" stroke="#c7e8f3" stroke-linecap="round" stroke-linejoin="round" stroke-width="__RESOLUTION__" d="M12.7.7 9.3 0Q7.2 2.2 3 2.7l-1 .1Q.6 4.2 1.3 6q.8 2.8 4.1 1.7 1.4 3.6 4.3 1.7v-.1l2.6-3.5q1.5-4 .3-5.1m-7.2 7Q5 5.6 6.5 4.3" vector-effect="non-scaling-stroke"/><path fill="#c7e8f3" d="m2.2 3.4.8.1q.9.3 1.4 1.2t-.2 1.2q-.6.4-1 2.6-.3 1.3-.9 1.5-1.7-2.7-.1-6.6"/><path fill="#fff" d="M2.3 10q-.4 0-1.1-.4t-1-2.2Q-.3 5.6 0 5.1q.5-1 1.3-1.5l.8-.3q-1.6 4 .1 6.6"/><path fill="none" stroke="#fff" stroke-linecap="round" stroke-linejoin="round" stroke-width="__RESOLUTION__" d="m2.2 3.4.8.1q.9.3 1.4 1.2t-.2 1.2q-.6.4-1 2.6-.3 1.3-.9 1.5" vector-effect="non-scaling-stroke"/><path fill="#fff" d="m6.1 11.2-1-.6q-.6-.7-.8-2.6-.2-1.7.1-2.3.5-1 1.3-1.2l.7-.1q-1.8 3.7-.3 6.8"/><path fill="#c7e8f3" d="m6.5 4.4.8.4q.8.5 1.2 1.5t-.3 1.2-1.1 2.4q-.3 1.3-1 1.3-1.4-3.1.4-6.8"/></g><g id="z"><path fill="none" stroke="#fbfbfb" stroke-linecap="round" stroke-linejoin="round" stroke-width="1" d="M10.5 33.6Q8.1 16.4.4.5"/><path fill="#d0c4d7" d="M13.6 41.8q.3 1.9 1.9 5.3l.3 1.3q-2.4 6.8-5 7.1-2.6.1-4-6.6Q9.3 42.3 9.1 33l2.4-.6q.2 3.3 2 9.4m-2 7.8q-.4-.5-.9-.4t-.8.8l-.2.9v.4q.1.8.6 1.2t.9.3l.8-.7q.3-.7.2-1.4l-.2-.5z"/><path fill="#e3f1f6" d="m11.5 49.6.4.6.2.5-.2 1.4-.8.7q-.5.1-1-.3t-.5-1.2v-.4l.2-.9q.2-.6.8-.7.5-.2.9.3"/><path fill="none" stroke="#c4e4ef" stroke-linecap="round" stroke-linejoin="round" stroke-width="__RESOLUTION__" d="M13.6 41.8q.3 1.9 1.9 5.3l.3 1.3q-2.4 6.8-5 7.1-2.6.1-4-6.6Q9.3 42.3 9.1 33l2.4-.6q.2 3.3 2 9.4" vector-effect="non-scaling-stroke"/></g><g id="A"><path fill="none" stroke="#fdfdfd" stroke-linecap="round" stroke-linejoin="round" stroke-width="1" d="M10.5 33.6Q8.1 16.4.4.5"/><path fill="#d1c5d9" d="M13.6 41.8q.3 1.9 1.9 5.3l.3 1.3q-2.4 6.8-5 7.1-2.6.1-4-6.6Q9.3 42.3 9.1 33l2.4-.6q.2 3.3 2 9.4m-2 7.8q-.4-.5-.9-.4t-.8.8l-.2.9v.4q.1.8.6 1.2t.9.3l.8-.7q.3-.7.2-1.4l-.2-.5z"/><path fill="#e5f3f8" d="m11.5 49.6.4.6.2.5-.2 1.4-.8.7q-.5.1-1-.3t-.5-1.2v-.4l.2-.9q.2-.6.8-.7.5-.2.9.3"/><path fill="none" stroke="#c5e6f1" stroke-linecap="round" stroke-linejoin="round" stroke-width="__RESOLUTION__" d="M13.6 41.8q.3 1.9 1.9 5.3l.3 1.3q-2.4 6.8-5 7.1-2.6.1-4-6.6Q9.3 42.3 9.1 33l2.4-.6q.2 3.3 2 9.4" vector-effect="non-scaling-stroke"/></g><g id="B"><path fill="#def1f7" d="m17.6 0 5.9.2-2.3 6.6-3.8 3.6L12 10l1.7-6.4z"/><path fill="none" stroke="#fff" stroke-linecap="round" stroke-linejoin="round" stroke-width="__RESOLUTION__" d="M21.2 6.8 23.5.2l-6-.2" vector-effect="non-scaling-stroke"/><path fill="none" stroke="#b3dfee" stroke-linecap="round" stroke-linejoin="round" stroke-width="__RESOLUTION__" d="m17.6 0-3.8 3.6-1.6 6.4" vector-effect="non-scaling-stroke"/><path fill="#def1f7" d="m2.9 20.2.9 1.5.5 4.8-.5-4.8zm1.4 6.3-2.9-5.6L0 14.4l3.7 2.9 3 5.5 1.7 7.5zm-.5-4.8 4.6 8.6zm3.9 1.2-4.1-7.7H9l5.6 4.4 4.9 8.7-6.3-1zm1.6-2.7 1.5 1.1 2.5 6-2.5-6zm1.5 1.1 8.8 7z"/><path fill="none" stroke="#b3dfee" stroke-linecap="round" stroke-linejoin="round" stroke-width="__RESOLUTION__" d="m4.3 26.5-.5-4.8-.9-1.5m-1.5.7 2.9 5.6m4 3.7-4.6-8.5m0-4.4-3.7-3M7.7 23l5.6 4.4-2.5-6-1.5-1.1m-.3-5H3.7m9.7 12 6.3 1-8.8-6.9" vector-effect="non-scaling-stroke"/><path fill="none" stroke="#fff" stroke-linecap="round" stroke-linejoin="round" stroke-width="__RESOLUTION__" d="m4.3 26.5 4 3.7-1.7-7.4-3-5.5m16 11-5-8.7-5.5-4.3" vector-effect="non-scaling-stroke"/><path fill="#def1f7" d="m12.5 9.7 5.7-1.1 7.2 3.4-9 1.5-1.5.4 1.5-.4 4.5 3.1-5.8 1.1-6.3-3.2zm8.4 6.9-4.5-3.1 9-1.5z"/><path fill="none" stroke="#fff" stroke-linecap="round" stroke-linejoin="round" stroke-width="__RESOLUTION__" d="m25.4 12-7.2-3.4-5.7 1.1" vector-effect="non-scaling-stroke"/><path fill="none" stroke="#b3dfee" stroke-linecap="round" stroke-linejoin="round" stroke-width="__RESOLUTION__" d="m12.5 9.7-3.7 4.8m6.3 3.2 5.8-1.1-4.5-3.1-1.5.3M25.4 12l-9 1.6m4.5 3.1 4.5-4.7" vector-effect="non-scaling-stroke"/></g><g id="C"><path fill="#c3b3cd" d="M9.4 0q3.2 0 4.9 2.2 4 4.2 4 10.8-.5 3-2.8 4.2-2.8.8-4.1 0l-1.8-5.3-.6.2Q5.6 10 7 4.9 7.4 3 9.3 0"/><path fill="#def1f7" d="m9 12.2-6-.8q-.9-5.7 2.7-9.8Q7 .2 9.5 0 7.4 3 7 4.8 5.6 10 9 12.2"/><path fill="none" stroke="#b3dfee" stroke-linecap="round" stroke-linejoin="round" stroke-width="__RESOLUTION__" d="M9.4 0q3.2 0 4.9 2.2 4 4.2 4 10.8" vector-effect="non-scaling-stroke"/><path fill="#fff" d="M0 17.2q1.3-3.6 3.3-6.1 1-1.5 2.7-1.5l.8.1q-5 4.1-5.2 16.4Q.2 22 0 17"/><path fill="#def1f7" d="M6.8 9.7q1.3.2 2.4 1.3-2.2 2.3-4 5.1-2 3-3.6 10 .3-12.3 5.2-16.4"/><path fill="#c3b3cd" d="M9.2 11q.7 2.1 2.2 3.4.9 2 .7 2.2-.4.5-2.1 1T6.5 20l-5 6q1.7-6.8 3.7-9.9 1.8-2.8 4-5.1"/><path fill="none" stroke="#b3dfee" stroke-linecap="round" stroke-linejoin="round" stroke-width="__RESOLUTION__" d="M11.4 14.4q.9 2 .7 2.2-.4.5-2.1 1T6.5 20l-5 6Q.4 22 0 17.2" vector-effect="non-scaling-stroke"/><path fill="#def1f7" d="m11.1 11.7-.1-2q.1-2 .7-3.4 2.6 1.2 2.8 3.2l-2.3 1.7z"/><path fill="#c3b3cd" d="m11.7 6.3.2-.4q.7-1.6 1.6-1.6T15 5.9l.5 1.7v.1q-.3 1.1-1 1.8-.3-2-2.9-3.2"/><path fill="#fff" d="M15.5 7.7v2q-.1 2.2-.8 3.7l-.9 1.3-.8.3q-1 0-1.5-1.6-.4-.7-.4-1.7l1.1-.5 2.3-1.7q.8-.6 1-1.8"/><path fill="#555" d="m13 11-.3-.2 1.3-1 .3.6-.3.7-.5.2q-.4 0-.6-.2"/></g><g id="D"><path fill="#def1f7" d="M5.5 19.5q1.6-5 .9-10.9l-.6-1Q4 4.4 2.7.3L4 0l2.3.2q1.2.6 2.5 2.6 1.3 1.9.8 5.9-.7 4-.5 6.8T7.2 19l-1.6.4z"/><path fill="#c3b3cd" d="M2.7.3q1.3 4 3 7.3l.7 1q.7 5.9-.9 10.9l-3-.2q-1.4-.3.2-4.4t.2-6.5T.3 3.5Q-.9 1.3 2.2.4z"/><path fill="none" stroke="#b3dfee" stroke-linecap="round" stroke-linejoin="round" stroke-width="__RESOLUTION__" d="m5.5 19.5 1.6-.4q2-.8 1.9-3.6t.5-6.7-.8-6Q7.4 1 6.3.3L4 0 2.7.3l-.6.1q-3 .8-1.8 3.2t2.6 4.8-.2 6.5-.2 4.5z" vector-effect="non-scaling-stroke"/></g><g id="E"><path fill="#def1f7" d="m12.6 12-6.9 7-2-4.3 2.6-6.6L13.9 0l1.4 5.4zm-5.2 1.8 5.7-11.3z"/><path fill="none" stroke="#b3dfee" stroke-linecap="round" stroke-linejoin="round" stroke-width="__RESOLUTION__" d="m12.6 12 2.7-6.6L13.9 0 6.3 8.2l-2.6 6.6 2 4.3m7.4-16.6L7.4 13.9" vector-effect="non-scaling-stroke"/><path fill="#def1f7" d="m10.7 11.2-.8 2.7-2 1.4 2-1.4zm2.9-.1-3.7 2.8zM2.7 17.7l3.9-5.3 4.7-2.8 4 .8-2.7 6.3-3.5 3z"/><path fill="none" stroke="#b3dfee" stroke-linecap="round" stroke-linejoin="round" stroke-width="__RESOLUTION__" d="m7.9 15.4 2-1.5.8-2.7m-.8 2.7 3.7-2.9m-4.5 8.7 3.5-3 2.7-6.2-4-.9-4.7 2.8-3.9 5.3-2.7 1" vector-effect="non-scaling-stroke"/></g><g id="F"><path fill="#c3b3cd" d="M3 2.7Q7.2 2.2 9.3 0l3.3.7q-1.5 4-2.5 4.8-1.8-2-3.6-1.2Q4.9 2.7 3 2.7"/><path fill="#def1f7" d="M3 2.7q1.9 0 3.5 1.6 1.8-.7 3.6 1.2 1-.8 2.6-4.8 1.1 1-.4 5L9.7 9.4q-2.9 2-4.3-1.6-3.3 1-4.1-1.8-.8-1.8.7-3.2zm3.5 1.6Q5.1 5.6 5.4 7.7q-.3-2.1 1.1-3.4"/><path fill="none" stroke="#b3dfee" stroke-linecap="round" stroke-linejoin="round" stroke-width="__RESOLUTION__" d="M12.7.7 9.3 0Q7.2 2.2 3 2.7l-1 .1Q.6 4.2 1.3 6q.8 2.8 4.1 1.7 1.4 3.6 4.3 1.7v-.1l2.6-3.5q1.5-4 .3-5.1m-7.2 7Q5 5.6 6.5 4.3" vector-effect="non-scaling-stroke"/><path fill="#b3dfee" d="m2.2 3.4.8.1q.9.3 1.4 1.2t-.2 1.2q-.6.4-1 2.6-.3 1.3-.9 1.5-1.7-2.7-.1-6.6"/><path fill="#fff" d="M2.3 10q-.4 0-1.1-.4t-1-2.2Q-.3 5.6 0 5.1q.5-1 1.3-1.5l.8-.3q-1.6 4 .1 6.6"/><path fill="none" stroke="#fff" stroke-linecap="round" stroke-linejoin="round" stroke-width="__RESOLUTION__" d="m2.2 3.4.8.1q.9.3 1.4 1.2t-.2 1.2q-.6.4-1 2.6-.3 1.3-.9 1.5" vector-effect="non-scaling-stroke"/><path fill="#fff" d="m6.1 11.2-1-.6q-.6-.7-.8-2.6-.2-1.7.1-2.3.5-1 1.3-1.2l.7-.1q-1.8 3.7-.3 6.8"/><path fill="#b3dfee" d="m6.5 4.4.8.4q.8.5 1.2 1.5t-.3 1.2-1.1 2.4q-.3 1.3-1 1.3-1.4-3.1.4-6.8"/></g><g id="G"><path fill="none" stroke="#f9f9f9" stroke-linecap="round" stroke-linejoin="round" stroke-width="1" d="M10.5 33.6Q8.1 16.4.4.5"/><path fill="#bfb0c9" d="M13.6 41.8q.3 1.9 1.9 5.3l.3 1.3q-2.4 6.8-5 7.1-2.6.1-4-6.6Q9.3 42.3 9.1 33l2.4-.6q.2 3.3 2 9.4m-2 7.8q-.4-.5-.9-.4t-.8.8l-.2.9v.4q.1.8.6 1.2t.9.3l.8-.7q.3-.7.2-1.4l-.2-.5z"/><path fill="#d9ebf2" d="m11.5 49.6.4.6.2.5-.2 1.4-.8.7q-.5.1-1-.3t-.5-1.2v-.4l.2-.9q.2-.6.8-.7.5-.2.9.3"/><path fill="none" stroke="#b0dbe9" stroke-linecap="round" stroke-linejoin="round" stroke-width="__RESOLUTION__" d="M13.6 41.8q.3 1.9 1.9 5.3l.3 1.3q-2.4 6.8-5 7.1-2.6.1-4-6.6Q9.3 42.3 9.1 33l2.4-.6q.2 3.3 2 9.4" vector-effect="non-scaling-stroke"/></g><g id="H"><path fill="none" stroke="#fbfbfb" stroke-linecap="round" stroke-linejoin="round" stroke-width="1" d="M10.5 33.6Q8.1 16.4.4.5"/><path fill="#c1b1cb" d="M13.6 41.8q.3 1.9 1.9 5.3l.3 1.3q-2.4 6.8-5 7.1-2.6.1-4-6.6Q9.3 42.3 9.1 33l2.4-.6q.2 3.3 2 9.4m-2 7.8q-.4-.5-.9-.4t-.8.8l-.2.9v.4q.1.8.6 1.2t.9.3l.8-.7q.3-.7.2-1.4l-.2-.5z"/><path fill="#dbedf4" d="m11.5 49.6.4.6.2.5-.2 1.4-.8.7q-.5.1-1-.3t-.5-1.2v-.4l.2-.9q.2-.6.8-.7.5-.2.9.3"/><path fill="none" stroke="#b1dceb" stroke-linecap="round" stroke-linejoin="round" stroke-width="__RESOLUTION__" d="M13.6 41.8q.3 1.9 1.9 5.3l.3 1.3q-2.4 6.8-5 7.1-2.6.1-4-6.6Q9.3 42.3 9.1 33l2.4-.6q.2 3.3 2 9.4" vector-effect="non-scaling-stroke"/></g><g id="I"><path fill="#d6edf6" d="m17.6 0 5.9.2-2.3 6.6-3.8 3.6L12 10l1.7-6.4z"/><path fill="none" stroke="#fff" stroke-linecap="round" stroke-linejoin="round" stroke-width="__RESOLUTION__" d="M21.2 6.8 23.5.2l-6-.2" vector-effect="non-scaling-stroke"/><path fill="none" stroke="#a1d8ea" stroke-linecap="round" stroke-linejoin="round" stroke-width="__RESOLUTION__" d="m17.6 0-3.8 3.6-1.6 6.4" vector-effect="non-scaling-stroke"/><path fill="#d6edf6" d="m2.9 20.2.9 1.5.5 4.8-.5-4.8zm1.4 6.3-2.9-5.6L0 14.4l3.7 2.9 3 5.5 1.7 7.5zm-.5-4.8 4.6 8.6zm3.9 1.2-4.1-7.7H9l5.6 4.4 4.9 8.7-6.3-1zm1.6-2.7 1.5 1.1 2.5 6-2.5-6zm1.5 1.1 8.8 7z"/><path fill="none" stroke="#a1d8ea" stroke-linecap="round" stroke-linejoin="round" stroke-width="__RESOLUTION__" d="m4.3 26.5-.5-4.8-.9-1.5m-1.5.7 2.9 5.6m4 3.7-4.6-8.5m0-4.4-3.7-3M7.7 23l5.6 4.4-2.5-6-1.5-1.1m-.3-5H3.7m9.7 12 6.3 1-8.8-6.9" vector-effect="non-scaling-stroke"/><path fill="none" stroke="#fff" stroke-linecap="round" stroke-linejoin="round" stroke-width="__RESOLUTION__" d="m4.3 26.5 4 3.7-1.7-7.4-3-5.5m16 11-5-8.7-5.5-4.3" vector-effect="non-scaling-stroke"/><path fill="#d6edf6" d="m12.5 9.7 5.7-1.1 7.2 3.4-9 1.5-1.5.4 1.5-.4 4.5 3.1-5.8 1.1-6.3-3.2zm8.4 6.9-4.5-3.1 9-1.5z"/><path fill="none" stroke="#fff" stroke-linecap="round" stroke-linejoin="round" stroke-width="__RESOLUTION__" d="m25.4 12-7.2-3.4-5.7 1.1" vector-effect="non-scaling-stroke"/><path fill="none" stroke="#a1d8ea" stroke-linecap="round" stroke-linejoin="round" stroke-width="__RESOLUTION__" d="m12.5 9.7-3.7 4.8m6.3 3.2 5.8-1.1-4.5-3.1-1.5.3M25.4 12l-9 1.6m4.5 3.1 4.5-4.7" vector-effect="non-scaling-stroke"/></g><g id="J"><path fill="#b5a1c1" d="M9.4 0q3.2 0 4.9 2.2 4 4.2 4 10.8-.5 3-2.8 4.2-2.8.8-4.1 0l-1.8-5.3-.6.2Q5.6 10 7 4.9 7.4 3 9.3 0"/><path fill="#d6edf6" d="m9 12.2-6-.8q-.9-5.7 2.7-9.8Q7 .2 9.5 0 7.4 3 7 4.8 5.6 10 9 12.2"/><path fill="none" stroke="#a1d8ea" stroke-linecap="round" stroke-linejoin="round" stroke-width="__RESOLUTION__" d="M9.4 0q3.2 0 4.9 2.2 4 4.2 4 10.8" vector-effect="non-scaling-stroke"/><path fill="#fff" d="M0 17.2q1.3-3.6 3.3-6.1 1-1.5 2.7-1.5l.8.1q-5 4.1-5.2 16.4Q.2 22 0 17"/><path fill="#d6edf6" d="M6.8 9.7q1.3.2 2.4 1.3-2.2 2.3-4 5.1-2 3-3.6 10 .3-12.3 5.2-16.4"/><path fill="#b5a1c1" d="M9.2 11q.7 2.1 2.2 3.4.9 2 .7 2.2-.4.5-2.1 1T6.5 20l-5 6q1.7-6.8 3.7-9.9 1.8-2.8 4-5.1"/><path fill="none" stroke="#a1d8ea" stroke-linecap="round" stroke-linejoin="round" stroke-width="__RESOLUTION__" d="M11.4 14.4q.9 2 .7 2.2-.4.5-2.1 1T6.5 20l-5 6Q.4 22 0 17.2" vector-effect="non-scaling-stroke"/><path fill="#d6edf6" d="m11.1 11.7-.1-2q.1-2 .7-3.4 2.6 1.2 2.8 3.2l-2.3 1.7z"/><path fill="#b5a1c1" d="m11.7 6.3.2-.4q.7-1.6 1.6-1.6T15 5.9l.5 1.7v.1q-.3 1.1-1 1.8-.3-2-2.9-3.2"/><path fill="#fff" d="M15.5 7.7v2q-.1 2.2-.8 3.7l-.9 1.3-.8.3q-1 0-1.5-1.6-.4-.7-.4-1.7l1.1-.5 2.3-1.7q.8-.6 1-1.8"/><path fill="#2b2b2b" d="m13 11-.3-.2 1.3-1 .3.6-.3.7-.5.2q-.4 0-.6-.2"/></g><g id="K"><path fill="#d6edf6" d="M5.5 19.5q1.6-5 .9-10.9l-.6-1Q4 4.4 2.7.3L4 0l2.3.2q1.2.6 2.5 2.6 1.3 1.9.8 5.9-.7 4-.5 6.8T7.2 19l-1.6.4z"/><path fill="#b5a1c1" d="M2.7.3q1.3 4 3 7.3l.7 1q.7 5.9-.9 10.9l-3-.2q-1.4-.3.2-4.4t.2-6.5T.3 3.5Q-.9 1.3 2.2.4z"/><path fill="none" stroke="#a1d8ea" stroke-linecap="round" stroke-linejoin="round" stroke-width="__RESOLUTION__" d="m5.5 19.5 1.6-.4q2-.8 1.9-3.6t.5-6.7-.8-6Q7.4 1 6.3.3L4 0 2.7.3l-.6.1q-3 .8-1.8 3.2t2.6 4.8-.2 6.5-.2 4.5z" vector-effect="non-scaling-stroke"/></g><g id="L"><path fill="#d6edf6" d="m12.6 12-6.9 7-2-4.3 2.6-6.6L13.9 0l1.4 5.4zm-5.2 1.8 5.7-11.3z"/><path fill="none" stroke="#a1d8ea" stroke-linecap="round" stroke-linejoin="round" stroke-width="__RESOLUTION__" d="m12.6 12 2.7-6.6L13.9 0 6.3 8.2l-2.6 6.6 2 4.3m7.4-16.6L7.4 13.9" vector-effect="non-scaling-stroke"/><path fill="#d6edf6" d="m10.7 11.2-.8 2.7-2 1.4 2-1.4zm2.9-.1-3.7 2.8zM2.7 17.7l3.9-5.3 4.7-2.8 4 .8-2.7 6.3-3.5 3z"/><path fill="none" stroke="#a1d8ea" stroke-linecap="round" stroke-linejoin="round" stroke-width="__RESOLUTION__" d="m7.9 15.4 2-1.5.8-2.7m-.8 2.7 3.7-2.9m-4.5 8.7 3.5-3 2.7-6.2-4-.9-4.7 2.8-3.9 5.3-2.7 1" vector-effect="non-scaling-stroke"/></g><g id="M"><path fill="#b5a1c1" d="M3 2.7Q7.2 2.2 9.3 0l3.3.7q-1.5 4-2.5 4.8-1.8-2-3.6-1.2Q4.9 2.7 3 2.7"/><path fill="#d6edf6" d="M3 2.7q1.9 0 3.5 1.6 1.8-.7 3.6 1.2 1-.8 2.6-4.8 1.1 1-.4 5L9.7 9.4q-2.9 2-4.3-1.6-3.3 1-4.1-1.8-.8-1.8.7-3.2zm3.5 1.6Q5.1 5.6 5.4 7.7q-.3-2.1 1.1-3.4"/><path fill="none" stroke="#a1d8ea" stroke-linecap="round" stroke-linejoin="round" stroke-width="__RESOLUTION__" d="M12.7.7 9.3 0Q7.2 2.2 3 2.7l-1 .1Q.6 4.2 1.3 6q.8 2.8 4.1 1.7 1.4 3.6 4.3 1.7v-.1l2.6-3.5q1.5-4 .3-5.1m-7.2 7Q5 5.6 6.5 4.3" vector-effect="non-scaling-stroke"/><path fill="#a1d8ea" d="m2.2 3.4.8.1q.9.3 1.4 1.2t-.2 1.2q-.6.4-1 2.6-.3 1.3-.9 1.5-1.7-2.7-.1-6.6"/><path fill="#fff" d="M2.3 10q-.4 0-1.1-.4t-1-2.2Q-.3 5.6 0 5.1q.5-1 1.3-1.5l.8-.3q-1.6 4 .1 6.6"/><path fill="none" stroke="#fff" stroke-linecap="round" stroke-linejoin="round" stroke-width="__RESOLUTION__" d="m2.2 3.4.8.1q.9.3 1.4 1.2t-.2 1.2q-.6.4-1 2.6-.3 1.3-.9 1.5" vector-effect="non-scaling-stroke"/><path fill="#fff" d="m6.1 11.2-1-.6q-.6-.7-.8-2.6-.2-1.7.1-2.3.5-1 1.3-1.2l.7-.1q-1.8 3.7-.3 6.8"/><path fill="#a1d8ea" d="m6.5 4.4.8.4q.8.5 1.2 1.5t-.3 1.2-1.1 2.4q-.3 1.3-1 1.3-1.4-3.1.4-6.8"/></g><g id="N"><path fill="none" stroke="#f9f9f9" stroke-linecap="round" stroke-linejoin="round" stroke-width="1" d="M10.5 33.6Q8.1 16.4.4.5"/><path fill="#b19dbd" d="M13.6 41.8q.3 1.9 1.9 5.3l.3 1.3q-2.4 6.8-5 7.1-2.6.1-4-6.6Q9.3 42.3 9.1 33l2.4-.6q.2 3.3 2 9.4m-2 7.8q-.4-.5-.9-.4t-.8.8l-.2.9v.4q.1.8.6 1.2t.9.3l.8-.7q.3-.7.2-1.4l-.2-.5z"/><path fill="#d1e8f0" d="m11.5 49.6.4.6.2.5-.2 1.4-.8.7q-.5.1-1-.3t-.5-1.2v-.4l.2-.9q.2-.6.8-.7.5-.2.9.3"/><path fill="none" stroke="#9dd3e4" stroke-linecap="round" stroke-linejoin="round" stroke-width="__RESOLUTION__" d="M13.6 41.8q.3 1.9 1.9 5.3l.3 1.3q-2.4 6.8-5 7.1-2.6.1-4-6.6Q9.3 42.3 9.1 33l2.4-.6q.2 3.3 2 9.4" vector-effect="non-scaling-stroke"/></g><g id="O"><path fill="none" stroke="#fbfbfb" stroke-linecap="round" stroke-linejoin="round" stroke-width="1" d="M10.5 33.6Q8.1 16.4.4.5"/><path fill="#b29ebe" d="M13.6 41.8q.3 1.9 1.9 5.3l.3 1.3q-2.4 6.8-5 7.1-2.6.1-4-6.6Q9.3 42.3 9.1 33l2.4-.6q.2 3.3 2 9.4m-2 7.8q-.4-.5-.9-.4t-.8.8l-.2.9v.4q.1.8.6 1.2t.9.3l.8-.7q.3-.7.2-1.4l-.2-.5z"/><path fill="#d3eaf2" d="m11.5 49.6.4.6.2.5-.2 1.4-.8.7q-.5.1-1-.3t-.5-1.2v-.4l.2-.9q.2-.6.8-.7.5-.2.9.3"/><path fill="none" stroke="#9ed4e6" stroke-linecap="round" stroke-linejoin="round" stroke-width="__RESOLUTION__" d="M13.6 41.8q.3 1.9 1.9 5.3l.3 1.3q-2.4 6.8-5 7.1-2.6.1-4-6.6Q9.3 42.3 9.1 33l2.4-.6q.2 3.3 2 9.4" vector-effect="non-scaling-stroke"/></g><g id="P"><path fill="#ceeaf4" d="m17.6 0 5.9.2-2.3 6.6-3.8 3.6L12 10l1.7-6.4z"/><path fill="none" stroke="#fff" stroke-linecap="round" stroke-linejoin="round" stroke-width="__RESOLUTION__" d="M21.2 6.8 23.5.2l-6-.2" vector-effect="non-scaling-stroke"/><path fill="none" stroke="#8ed0e6" stroke-linecap="round" stroke-linejoin="round" stroke-width="__RESOLUTION__" d="m17.6 0-3.8 3.6-1.6 6.4" vector-effect="non-scaling-stroke"/><path fill="#ceeaf4" d="m2.9 20.2.9 1.5.5 4.8-.5-4.8zm1.4 6.3-2.9-5.6L0 14.4l3.7 2.9 3 5.5 1.7 7.5zm-.5-4.8 4.6 8.6zm3.9 1.2-4.1-7.7H9l5.6 4.4 4.9 8.7-6.3-1zm1.6-2.7 1.5 1.1 2.5 6-2.5-6zm1.5 1.1 8.8 7z"/><path fill="none" stroke="#8ed0e6" stroke-linecap="round" stroke-linejoin="round" stroke-width="__RESOLUTION__" d="m4.3 26.5-.5-4.8-.9-1.5m-1.5.7 2.9 5.6m4 3.7-4.6-8.5m0-4.4-3.7-3M7.7 23l5.6 4.4-2.5-6-1.5-1.1m-.3-5H3.7m9.7 12 6.3 1-8.8-6.9" vector-effect="non-scaling-stroke"/><path fill="none" stroke="#fff" stroke-linecap="round" stroke-linejoin="round" stroke-width="__RESOLUTION__" d="m4.3 26.5 4 3.7-1.7-7.4-3-5.5m16 11-5-8.7-5.5-4.3" vector-effect="non-scaling-stroke"/><path fill="#ceeaf4" d="m12.5 9.7 5.7-1.1 7.2 3.4-9 1.5-1.5.4 1.5-.4 4.5 3.1-5.8 1.1-6.3-3.2zm8.4 6.9-4.5-3.1 9-1.5z"/><path fill="none" stroke="#fff" stroke-linecap="round" stroke-linejoin="round" stroke-width="__RESOLUTION__" d="m25.4 12-7.2-3.4-5.7 1.1" vector-effect="non-scaling-stroke"/><path fill="none" stroke="#8ed0e6" stroke-linecap="round" stroke-linejoin="round" stroke-width="__RESOLUTION__" d="m12.5 9.7-3.7 4.8m6.3 3.2 5.8-1.1-4.5-3.1-1.5.3M25.4 12l-9 1.6m4.5 3.1 4.5-4.7" vector-effect="non-scaling-stroke"/></g><g id="Q"><path fill="#a68eb5" d="M9.4 0q3.2 0 4.9 2.2 4 4.2 4 10.8-.5 3-2.8 4.2-2.8.8-4.1 0l-1.8-5.3-.6.2Q5.6 10 7 4.9 7.4 3 9.3 0"/><path fill="#ceeaf4" d="m9 12.2-6-.8q-.9-5.7 2.7-9.8Q7 .2 9.5 0 7.4 3 7 4.8 5.6 10 9 12.2"/><path fill="none" stroke="#8ed0e6" stroke-linecap="round" stroke-linejoin="round" stroke-width="__RESOLUTION__" d="M9.4 0q3.2 0 4.9 2.2 4 4.2 4 10.8" vector-effect="non-scaling-stroke"/><path fill="#fff" d="M0 17.2q1.3-3.6 3.3-6.1 1-1.5 2.7-1.5l.8.1q-5 4.1-5.2 16.4Q.2 22 0 17"/><path fill="#ceeaf4" d="M6.8 9.7q1.3.2 2.4 1.3-2.2 2.3-4 5.1-2 3-3.6 10 .3-12.3 5.2-16.4"/><path fill="#a68eb5" d="M9.2 11q.7 2.1 2.2 3.4.9 2 .7 2.2-.4.5-2.1 1T6.5 20l-5 6q1.7-6.8 3.7-9.9 1.8-2.8 4-5.1"/><path fill="none" stroke="#8ed0e6" stroke-linecap="round" stroke-linejoin="round" stroke-width="__RESOLUTION__" d="M11.4 14.4q.9 2 .7 2.2-.4.5-2.1 1T6.5 20l-5 6Q.4 22 0 17.2" vector-effect="non-scaling-stroke"/><path fill="#ceeaf4" d="m11.1 11.7-.1-2q.1-2 .7-3.4 2.6 1.2 2.8 3.2l-2.3 1.7z"/><path fill="#a68eb5" d="m11.7 6.3.2-.4q.7-1.6 1.6-1.6T15 5.9l.5 1.7v.1q-.3 1.1-1 1.8-.3-2-2.9-3.2"/><path fill="#fff" d="M15.5 7.7v2q-.1 2.2-.8 3.7l-.9 1.3-.8.3q-1 0-1.5-1.6-.4-.7-.4-1.7l1.1-.5 2.3-1.7q.8-.6 1-1.8"/><path fill="#000" d="m13 11-.3-.2 1.3-1 .3.6-.3.7-.5.2q-.4 0-.6-.2"/></g><g id="R"><path fill="#ceeaf4" d="M5.5 19.5q1.6-5 .9-10.9l-.6-1Q4 4.4 2.7.3L4 0l2.3.2q1.2.6 2.5 2.6 1.3 1.9.8 5.9-.7 4-.5 6.8T7.2 19l-1.6.4z"/><path fill="#a68eb5" d="M2.7.3q1.3 4 3 7.3l.7 1q.7 5.9-.9 10.9l-3-.2q-1.4-.3.2-4.4t.2-6.5T.3 3.5Q-.9 1.3 2.2.4z"/><path fill="none" stroke="#8ed0e6" stroke-linecap="round" stroke-linejoin="round" stroke-width="__RESOLUTION__" d="m5.5 19.5 1.6-.4q2-.8 1.9-3.6t.5-6.7-.8-6Q7.4 1 6.3.3L4 0 2.7.3l-.6.1q-3 .8-1.8 3.2t2.6 4.8-.2 6.5-.2 4.5z" vector-effect="non-scaling-stroke"/></g><g id="S"><path fill="#ceeaf4" d="m12.6 12-6.9 7-2-4.3 2.6-6.6L13.9 0l1.4 5.4zm-5.2 1.8 5.7-11.3z"/><path fill="none" stroke="#8ed0e6" stroke-linecap="round" stroke-linejoin="round" stroke-width="__RESOLUTION__" d="m12.6 12 2.7-6.6L13.9 0 6.3 8.2l-2.6 6.6 2 4.3m7.4-16.6L7.4 13.9" vector-effect="non-scaling-stroke"/><path fill="#ceeaf4" d="m10.7 11.2-.8 2.7-2 1.4 2-1.4zm2.9-.1-3.7 2.8zM2.7 17.7l3.9-5.3 4.7-2.8 4 .8-2.7 6.3-3.5 3z"/><path fill="none" stroke="#8ed0e6" stroke-linecap="round" stroke-linejoin="round" stroke-width="__RESOLUTION__" d="m7.9 15.4 2-1.5.8-2.7m-.8 2.7 3.7-2.9m-4.5 8.7 3.5-3 2.7-6.2-4-.9-4.7 2.8-3.9 5.3-2.7 1" vector-effect="non-scaling-stroke"/></g><g id="T"><path fill="#a68eb5" d="M3 2.7Q7.2 2.2 9.3 0l3.3.7q-1.5 4-2.5 4.8-1.8-2-3.6-1.2Q4.9 2.7 3 2.7"/><path fill="#ceeaf4" d="M3 2.7q1.9 0 3.5 1.6 1.8-.7 3.6 1.2 1-.8 2.6-4.8 1.1 1-.4 5L9.7 9.4q-2.9 2-4.3-1.6-3.3 1-4.1-1.8-.8-1.8.7-3.2zm3.5 1.6Q5.1 5.6 5.4 7.7q-.3-2.1 1.1-3.4"/><path fill="none" stroke="#8ed0e6" stroke-linecap="round" stroke-linejoin="round" stroke-width="__RESOLUTION__" d="M12.7.7 9.3 0Q7.2 2.2 3 2.7l-1 .1Q.6 4.2 1.3 6q.8 2.8 4.1 1.7 1.4 3.6 4.3 1.7v-.1l2.6-3.5q1.5-4 .3-5.1m-7.2 7Q5 5.6 6.5 4.3" vector-effect="non-scaling-stroke"/><path fill="#8ed0e6" d="m2.2 3.4.8.1q.9.3 1.4 1.2t-.2 1.2q-.6.4-1 2.6-.3 1.3-.9 1.5-1.7-2.7-.1-6.6"/><path fill="#fff" d="M2.3 10q-.4 0-1.1-.4t-1-2.2Q-.3 5.6 0 5.1q.5-1 1.3-1.5l.8-.3q-1.6 4 .1 6.6"/><path fill="none" stroke="#fff" stroke-linecap="round" stroke-linejoin="round" stroke-width="__RESOLUTION__" d="m2.2 3.4.8.1q.9.3 1.4 1.2t-.2 1.2q-.6.4-1 2.6-.3 1.3-.9 1.5" vector-effect="non-scaling-stroke"/><path fill="#fff" d="m6.1 11.2-1-.6q-.6-.7-.8-2.6-.2-1.7.1-2.3.5-1 1.3-1.2l.7-.1q-1.8 3.7-.3 6.8"/><path fill="#8ed0e6" d="m6.5 4.4.8.4q.8.5 1.2 1.5t-.3 1.2-1.1 2.4q-.3 1.3-1 1.3-1.4-3.1.4-6.8"/></g><g id="U"><path fill="none" stroke="#f7f7f7" stroke-linecap="round" stroke-linejoin="round" stroke-width="1" d="M10.5 33.6Q8.1 16.4.4.5"/><path fill="#a089af" d="M13.6 41.8q.3 1.9 1.9 5.3l.3 1.3q-2.4 6.8-5 7.1-2.6.1-4-6.6Q9.3 42.3 9.1 33l2.4-.6q.2 3.3 2 9.4m-2 7.8q-.4-.5-.9-.4t-.8.8l-.2.9v.4q.1.8.6 1.2t.9.3l.8-.7q.3-.7.2-1.4l-.2-.5z"/><path fill="#c7e2ec" d="m11.5 49.6.4.6.2.5-.2 1.4-.8.7q-.5.1-1-.3t-.5-1.2v-.4l.2-.9q.2-.6.8-.7.5-.2.9.3"/><path fill="none" stroke="#89c9de" stroke-linecap="round" stroke-linejoin="round" stroke-width="__RESOLUTION__" d="M13.6 41.8q.3 1.9 1.9 5.3l.3 1.3q-2.4 6.8-5 7.1-2.6.1-4-6.6Q9.3 42.3 9.1 33l2.4-.6q.2 3.3 2 9.4" vector-effect="non-scaling-stroke"/></g><g id="V"><path fill="none" stroke="#fafafa" stroke-linecap="round" stroke-linejoin="round" stroke-width="1" d="M10.5 33.6Q8.1 16.4.4.5"/><path fill="#a28bb1" d="M13.6 41.8q.3 1.9 1.9 5.3l.3 1.3q-2.4 6.8-5 7.1-2.6.1-4-6.6Q9.3 42.3 9.1 33l2.4-.6q.2 3.3 2 9.4m-2 7.8q-.4-.5-.9-.4t-.8.8l-.2.9v.4q.1.8.6 1.2t.9.3l.8-.7q.3-.7.2-1.4l-.2-.5z"/><path fill="#c9e5ef" d="m11.5 49.6.4.6.2.5-.2 1.4-.8.7q-.5.1-1-.3t-.5-1.2v-.4l.2-.9q.2-.6.8-.7.5-.2.9.3"/><path fill="none" stroke="#8bcbe1" stroke-linecap="round" stroke-linejoin="round" stroke-width="__RESOLUTION__" d="M13.6 41.8q.3 1.9 1.9 5.3l.3 1.3q-2.4 6.8-5 7.1-2.6.1-4-6.6Q9.3 42.3 9.1 33l2.4-.6q.2 3.3 2 9.4" vector-effect="non-scaling-stroke"/></g><g id="bh"><path fill="#ceeaf4" d="m51.5 12 2-4.4q2.7 2.4 4.6.2-2 3.5-6.6 4.3 4.7-.8 6.6-4.3-2 2.2-4.5-.2l5.1-2.8 1.6-1.9-.3 6q-.6 2.8-3 3.8zM1 0l2.9 3q-2 2.1-.6 4.5Q1.1 4.8 1 0q0 4.9 2.3 7.5Q2 5 3.9 3l1.4 5.6 1.2 2L2.3 9l-.6-.4Q.3 7.5 0 5.5z"/><path fill="none" stroke="#8ed0e6" stroke-linecap="round" stroke-linejoin="round" stroke-width="__RESOLUTION__" d="m53.6 7.6-2.2 4.5q4.7-.8 6.6-4.3-1.9 2.2-4.5-.2l5.2-2.8m1.5-1.9-.3 6q-.6 2.8-2.9 3.8l-5.6-.6M4 3 1 0q0 4.9 2.3 7.5Q2 5 3.9 3l1.4 5.6m1.2 2L2.3 9l-.6-.4Q.3 7.5 0 5.5L1 0" vector-effect="non-scaling-stroke"/></g><g id="bf"><path fill="#ceeaf4" d="M50.7 45 49 42.3l6.3 4q2.8 2.3 3.3 5.1l-1.8 5.2q.2-5.2-3.1-9.2 1.9 3.2-1.2 4.3zm1.8 6.7q3.1-1.1 1.2-4.3 3.2 4 3.1 9.2zm12.2-14.2.7-5.3L65 30l3.6 3.4q1.4 1.8.9 4l-3.1 4q1.8-4 .6-7.2.4 2.6-2.3 3.3 2.7-.7 2.3-3.3 1.2 3.2-.6 7.2zM21.8 5q.9-2.7 3.4-2.1-3.1-1.5-7.2 0 4.1-1.5 7.2 0-2.5-.6-3.4 2l5.3-.3 2.2.5-3.1-3.8q-1.8-1.6-4-1.2L18 3zM0 56.5l4.2-1q.2 2.8 2.8 2.9-3.4.6-7-2 3.6 2.6 7 2-2.6-.1-2.8-2.9l5 1.8h2.3l-4 2.9-4.3.1z"/><path fill="none" stroke="#8ed0e6" stroke-linecap="round" stroke-linejoin="round" stroke-width="__RESOLUTION__" d="m50.7 45 1.8 6.7q3.1-1.1 1.2-4.3 3.2 4 3.1 9.2l1.8-5.2q-.6-2.8-3.3-5.1l-6.3-4m16.4-10.1-.7 5.3q2.7-.7 2.3-3.3 1.2 3.2-.6 7.2l3.1-4q.5-2.2-.9-4L65 30m-.3 7.5 1.7 3.9M52.5 51.7l4.3 4.9M18 3q4.1-1.6 7.3-.1-2.6-.6-3.5 2l5.4-.3m2.1.5-3.1-3.8q-1.8-1.6-4-1.2L18 3l3.8 2M4.2 55.5l-4.2 1q3.6 2.5 7 1.9-2.6-.1-2.8-2.9l5 1.8m2.3 0-4 2.9-4.3.1L0 56.5" vector-effect="non-scaling-stroke"/></g><g id="bd"><path fill="#ceeaf4" d="m47.9 14.4 1-2 .8 4.8q0 2.4-1.7 3.9l-5 1.2q3.9-2.1 4.9-5.4-1.2 2.3-3.8 1.2zM44 18q2.6 1.1 3.8-1.2-1 3.3-4.8 5.4zM28 8l-3.8-3.8-1-4.2 5 1.3Q30 2.8 30 5.1l-.8 4.9zm.4 14.3 1.9-4.5q1.3-2 3.6-2.3l4.7 1.6q-4.4-.4-7 2 2.3-1.4 4 1l-5.3 1zm7.2-2.2q-1.7-2.4-4-1 2.7-2.4 7-2zm-7.9 9.5L34 28q3.4-.3 6.7 1.3l5.4 4.9q-5.8-3.7-11.3-4.2 4.2.9 4.6 3.8l-8.2-3.4zm11.6 4.2q-.3-3-4.5-3.8 5.5.4 11.3 4.2zM0 51.6l1-4.3q2.6 1.1 3.9-1.2-1 3.3-4.9 5.4 3.9-2 4.9-5.4-1.3 2.4-3.9 1.3l3.8-3.8 1-2 .9 4.9q0 2.3-1.8 3.8zM23.4 0q3.8 2.1 4.8 5.5Q27 3 24.4 4.2q2.6-1.1 3.8 1.3-1-3.4-4.8-5.5"/><path fill="none" stroke="#8ed0e6" stroke-linecap="round" stroke-linejoin="round" stroke-width="__RESOLUTION__" d="M47.9 14.4 44 18q2.6 1.1 3.8-1.2-1 3.3-4.8 5.4l4.9-1.2q1.7-1.6 1.7-3.9l-.8-4.8M28.2 8l-3.9-3.8-1-4.2 5 1.3Q30 2.8 30 5.1l-.8 4.9m9.5 7L34 15.6q-2.2.3-3.5 2.3l-1.9 4.5m1.9-1.1 5.3-1.1q-1.7-2.4-4-1 2.7-2.4 7-2l-3 3m10.5 14.1L41 29.4q-3.4-1.6-6.7-1.3l-6.4 1.7m3.5.7 8.2 3.4q-.4-3-4.6-3.8 5.5.5 11.3 4.2l-6.7-.4M44 18.1l-1 4.2m-42 25-1 4.3q3.9-2.1 4.9-5.5-1.3 2.4-3.9 1.3l3.8-3.8m1-2 .9 4.9q0 2.3-1.8 3.8L0 51.6M24.4 4.1Q27 3 28.2 5.4q-1-3.4-4.8-5.5" vector-effect="non-scaling-stroke"/></g><g id="bb"><path fill="#ceeaf4" d="m27.1 11.3-4.3 2.8q-1.5-2.5-4.5-1.3 3.7-2.2 8.8-1.5-5.1-.7-8.7 1.5 3-1.2 4.4 1.3l-6.5.7-2.6 1 3.4-4.5q1.9-1.9 4.7-2z"/><path fill="none" stroke="#8ed0e6" stroke-linecap="round" stroke-linejoin="round" stroke-width="__RESOLUTION__" d="m22.8 14.1 4.3-2.8q-5.1-.7-8.7 1.5 3-1.2 4.4 1.3l-6.5.7m-2.6 1 3.4-4.5q1.9-1.9 4.7-2l5.3 2" vector-effect="non-scaling-stroke"/><path fill="#ceeaf4" d="m28.6 12.8-.6 4.9q-.8 2.2-2.9 3l-5-.2q4.2-.8 6.2-3.7-1.8 1.8-4 0l4.7-2.4zm-6.3 4q2.1 1.8 4 0-2 2.8-6.2 3.7z"/><path fill="none" stroke="#8ed0e6" stroke-linecap="round" stroke-linejoin="round" stroke-width="__RESOLUTION__" d="m20 20.5 5.1.3q2.1-.9 2.9-3.2l.6-4.9m-1.5 1.6-4.9 2.5q2.3 1.8 4.1 0-2 2.8-6.2 3.7l2.1-3.7" vector-effect="non-scaling-stroke"/><path fill="#ceeaf4" d="M22.4 3.4Q25 4.7 24 7.2q1.9-3 1-7.2.9 4.3-1 7.2 1-2.5-1.6-3.8L22 8.8l-.9 2 4.3-2.5q1.8-1.5 1.8-3.8L25 0z"/><path fill="none" stroke="#8ed0e6" stroke-linecap="round" stroke-linejoin="round" stroke-width="__RESOLUTION__" d="M25 0q.9 4.3-1 7.2 1-2.5-1.6-3.8L22 8.8m-.9 2 4.3-2.5q1.8-1.5 1.8-3.8L25 0l-2.6 3.4" vector-effect="non-scaling-stroke"/><path fill="#ceeaf4" d="m0 20.2 3.9-2q.8 2.8 3.4 2.2Q4 21.8 0 20.2q4 1.6 7.3.2-2.6.6-3.4-2.1l5.3.4 2.2-.5L8 22q-1.8 1.5-4 1.1z"/><path fill="none" stroke="#8ed0e6" stroke-linecap="round" stroke-linejoin="round" stroke-width="__RESOLUTION__" d="M3.9 18.3 0 20q4 1.7 7.3.3-2.6.6-3.4-2.1l5.3.4m2.2-.5L8.1 22Q6.4 23.5 4 23.1l-4.1-3" vector-effect="non-scaling-stroke"/><path fill="#ceeaf4" d="m21.3 0-1.4 4q-2.5-1.3-4 .9 1.4-3.3 5.4-4.9-4 1.6-5.3 4.9 1.4-2.2 3.9-.9l-4.2 3.5-1.2 1.8-.3-5Q14.4 2 16.3.8z"/><path fill="none" stroke="#8ed0e6" stroke-linecap="round" stroke-linejoin="round" stroke-width="__RESOLUTION__" d="m19.9 4 1.4-4q-4 1.7-5.3 4.9 1.4-2.2 3.9-.8l-4.2 3.4m-1.2 1.8-.3-5Q14.4 2 16.3.9l5-.8" vector-effect="non-scaling-stroke"/></g><use xlink:href="#a" id="ba" width="25.4" height="30.3"/><use xlink:href="#b" id="aZ" width="18.4" height="26.1"/><use xlink:href="#c" id="aY" width="9.7" height="19.6"/><use xlink:href="#d" id="aX" width="15.3" height="19.8"/><use xlink:href="#e" id="aW" width="13.2" height="11.2"/><use xlink:href="#f" id="aV" width="15.8" height="55.5"/><use xlink:href="#g" id="aT" width="25.4" height="30.3"/><use xlink:href="#h" id="aS" width="18.4" height="26.1"/><use xlink:href="#i" id="aR" width="9.7" height="19.6"/><use xlink:href="#j" id="aQ" width="15.3" height="19.8"/><use xlink:href="#k" id="aP" width="13.2" height="11.2"/><use xlink:href="#l" id="aO" width="15.8" height="55.5"/><use xlink:href="#m" id="aN" width="15.8" height="55.5"/><use xlink:href="#n" id="aL" width="25.4" height="30.3"/><use xlink:href="#o" id="aK" width="18.4" height="26.1"/><use xlink:href="#p" id="aJ" width="9.7" height="19.6"/><use xlink:href="#q" id="aI" width="15.3" height="19.8"/><use xlink:href="#r" id="aH" width="13.2" height="11.2"/><use xlink:href="#s" id="aG" width="15.8" height="55.5"/><use xlink:href="#t" id="aF" width="15.8" height="55.5"/><use xlink:href="#u" id="aD" width="25.4" height="30.3"/><use xlink:href="#v" id="aC" width="18.4" height="26.1"/><use xlink:href="#w" id="aB" width="9.7" height="19.6"/><use xlink:href="#x" id="aA" width="15.3" height="19.8"/><use xlink:href="#y" id="az" width="13.2" height="11.2"/><use xlink:href="#z" id="ay" width="15.8" height="55.5"/><use xlink:href="#A" id="ax" width="15.8" height="55.5"/><use xlink:href="#B" id="av" width="25.4" height="30.3"/><use xlink:href="#C" id="au" width="18.4" height="26.1"/><use xlink:href="#D" id="at" width="9.7" height="19.6"/><use xlink:href="#E" id="as" width="15.3" height="19.8"/><use xlink:href="#F" id="ar" width="13.2" height="11.2"/><use xlink:href="#G" id="aq" width="15.8" height="55.5"/><use xlink:href="#H" id="ap" width="15.8" height="55.5"/><use xlink:href="#I" id="an" width="25.4" height="30.3"/><use xlink:href="#J" id="am" width="18.4" height="26.1"/><use xlink:href="#K" id="al" width="9.7" height="19.6"/><use xlink:href="#L" id="ak" width="15.3" height="19.8"/><use xlink:href="#M" id="aj" width="13.2" height="11.2"/><use xlink:href="#N" id="ai" width="15.8" height="55.5"/><use xlink:href="#O" id="ah" width="15.8" height="55.5"/><use xlink:href="#P" id="af" width="25.4" height="30.3"/><use xlink:href="#Q" id="ae" width="18.4" height="26.1"/><use xlink:href="#R" id="ad" width="9.7" height="19.6"/><use xlink:href="#S" id="ac" width="15.3" height="19.8"/><use xlink:href="#T" id="ab" width="13.2" height="11.2"/><use xlink:href="#U" id="aa" width="15.8" height="55.5"/><use xlink:href="#V" id="Z" width="15.8" height="55.5"/><use xlink:href="#W" id="Y" width="14.7" height="4.3"/><clipPath id="X"><path d="M1 1h80v98H1z"/></clipPath><clipPath id="ag"><path d="M82 1h80v98H82z"/></clipPath><clipPath id="ao"><path d="M163 1h80v98h-80z"/></clipPath><clipPath id="aw"><path d="M244 1h80v98h-80z"/></clipPath><clipPath id="aE"><path d="M325 1h80v98h-80z"/></clipPath><clipPath id="aM"><path d="M406 1h80v98h-80z"/></clipPath><clipPath id="aU"><path d="M487 1h80v98h-80z"/></clipPath><clipPath id="bc"><path d="M568 1h80v98h-80z"/></clipPath><clipPath id="be"><path d="M649 1h80v98h-80z"/></clipPath><clipPath id="bg"><path d="M730 1h80v98h-80z"/></clipPath><path id="W" fill="#382c16" d="M5.8-1.9Q7.9-1.4 8-.5 8 .3 5.9 1 3.8 1.8.7 2l-5.2-.4Q-6.7 1.2-6.7.3q-.1-.8 2-1.6 2.2-.8 5.2-.9z" transform="translate(6.75 2.25)"/></defs><g clip-path="url(#X)"><g transform="translate(37.55 96)"><use xlink:href="#Y" width="14.7" height="4.3" transform="translate(-6.85 -2.15)"/><use xlink:href="#Z" width="15.8" height="55.5" transform="matrix(.262 1.1808 .3014 .0048 -1.3 -46.9)"/><use xlink:href="#aa" width="15.8" height="55.5" transform="matrix(.8942 .157 .0902 -.3745 1.9 -50.75)"/><use xlink:href="#ab" width="13.2" height="11.2" transform="matrix(.4334 .7445 -.9947 .3473 -12.35 -64.15)"/><use xlink:href="#ac" width="15.3" height="19.8" transform="matrix(-.3726 -1.6098 1.2323 -.2852 -21.45 -51.7)"/><use xlink:href="#ad" width="9.7" height="19.6" transform="matrix(.7569 .7029 -.6125 .7419 5.3 -66.1)"/><use xlink:href="#ae" width="18.4" height="26.1" transform="rotate(-5.8 -769.114 26.334)scale(.9983)"/><use xlink:href="#ab" width="13.2" height="11.2" transform="translate(-10.25 -41.7)"/><use xlink:href="#af" width="25.4" height="30.3" transform="rotate(39.338 114.743 -4.257)scale(.9984)"/></g></g><g clip-path="url(#ag)"><g transform="translate(118.55 96)"><use xlink:href="#Y" width="14.7" height="4.3" transform="translate(-6.85 -2.15)"/><use xlink:href="#ah" width="15.8" height="55.5" transform="matrix(.6099 1.0419 .2879 -.0881 -1.15 -49.7)"/><use xlink:href="#ai" width="15.8" height="55.5" transform="matrix(.9072 .0202 .0322 -.3836 2.25 -52.1)"/><use xlink:href="#aj" width="13.2" height="11.2" transform="matrix(.6042 .6115 -.8736 .5852 -12.75 -65.25)"/><use xlink:href="#ak" width="15.3" height="19.8" transform="matrix(-.5254 -1.5645 1.1976 -.4022 -19 -50.65)"/><use xlink:href="#al" width="9.7" height="19.6" transform="matrix(.822 .6223 -.5349 .7976 4.15 -67.65)"/><use xlink:href="#am" width="18.4" height="26.1" transform="rotate(-14.824 -294.137 -2.89)scale(.997)"/><use xlink:href="#aj" width="13.2" height="11.2" transform="rotate(-11.035 -233.442 28.908)scale(.9989)"/><use xlink:href="#an" width="25.4" height="30.3" transform="rotate(33.604 134.243 -7.2)scale(.9967)"/></g></g><g clip-path="url(#ao)"><g transform="translate(199.55 96)"><use xlink:href="#Y" width="14.7" height="4.3" transform="translate(-6.85 -2.15)"/><use xlink:href="#ap" width="15.8" height="55.5" transform="matrix(.902 .8014 .2468 -.1719 -.95 -52.35)"/><use xlink:href="#aq" width="15.8" height="55.5" transform="matrix(.8995 -.1145 -.0238 -.3841 2.55 -53.55)"/><use xlink:href="#ar" width="13.2" height="11.2" transform="matrix(.7397 .4375 -.698 .7855 -13.25 -65.9)"/><use xlink:href="#as" width="15.3" height="19.8" transform="matrix(-.6788 -1.5034 1.1508 -.5196 -16.5 -49.7)"/><use xlink:href="#at" width="9.7" height="19.6" transform="matrix(.8782 .5398 -.4552 .8455 3.05 -69.1)"/><use xlink:href="#au" width="18.4" height="26.1" transform="rotate(-24.082 -176.573 -10.339)scale(.9962)"/><use xlink:href="#ar" width="13.2" height="11.2" transform="rotate(-22.085 -123.689 .065)scale(.998)"/><use xlink:href="#av" width="25.4" height="30.3" transform="rotate(28.057 160.94 -11.51)scale(.9965)"/></g></g><g clip-path="url(#aw)"><g transform="translate(280.55 96)"><use xlink:href="#Y" width="14.7" height="4.3" transform="translate(-6.85 -2.15)"/><use xlink:href="#ax" width="15.8" height="55.5" transform="matrix(1.1058 .4828 .1814 -.2398 -.8 -55.05)"/><use xlink:href="#ay" width="15.8" height="55.5" transform="matrix(.8718 -.2466 -.0817 -.3757 3 -54.95)"/><use xlink:href="#az" width="13.2" height="11.2" transform="matrix(.8259 .2377 -.4781 .9355 -13.6 -66.05)"/><use xlink:href="#aA" width="15.3" height="19.8" transform="matrix(-.8206 -1.4301 1.0947 -.6282 -13.65 -48.8)"/><use xlink:href="#aB" width="9.7" height="19.6" transform="matrix(.9277 .4492 -.3683 .8867 1.9 -70.5)"/><use xlink:href="#aC" width="18.4" height="26.1" transform="matrix(.8317 -.5472 .5472 .8317 -13 -70.4)"/><use xlink:href="#az" width="13.2" height="11.2" transform="rotate(-33.335 -85.24 -10.69)scale(.997)"/><use xlink:href="#aD" width="25.4" height="30.3" transform="rotate(22.318 203.652 -17.527)scale(.9964)"/></g></g><g clip-path="url(#aE)"><g transform="translate(361.55 96)"><use xlink:href="#Y" width="14.7" height="4.3" transform="translate(-6.85 -2.15)"/><use xlink:href="#aF" width="15.8" height="55.5" transform="matrix(1.2011 .1213 .0983 -.2842 -.55 -57.75)"/><use xlink:href="#aG" width="15.8" height="55.5" transform="matrix(.8248 -.373 -.1365 -.3591 3.4 -56.4)"/><use xlink:href="#aH" width="13.2" height="11.2" transform="matrix(.8593 .023 -.2279 1.0257 -13.95 -65.9)"/><use xlink:href="#aI" width="15.3" height="19.8" transform="matrix(-.9592 -1.3403 1.026 -.7343 -10.6 -47.9)"/><use xlink:href="#aJ" width="9.7" height="19.6" transform="matrix(.9668 .3574 -.2779 .9191 .6 -71.75)"/><use xlink:href="#aK" width="18.4" height="26.1" transform="rotate(-42.61 -94.114 -15.284)scale(.995)"/><use xlink:href="#aH" width="13.2" height="11.2" transform="rotate(-44.398 -65.669 -17.007)scale(.9964)"/><use xlink:href="#aL" width="25.4" height="30.3" transform="rotate(16.775 273.214 -28.156)scale(.9965)"/></g></g><g clip-path="url(#aM)"><g transform="translate(442.55 96)"><use xlink:href="#Y" width="14.7" height="4.3" transform="translate(-6.85 -2.15)"/><use xlink:href="#aN" width="15.8" height="55.5" transform="matrix(1.1798 -.2515 .0067 -.3008 -.2 -60.45)"/><use xlink:href="#aO" width="15.8" height="55.5" transform="matrix(.7581 -.4937 -.1882 -.3346 3.7 -57.8)"/><use xlink:href="#aP" width="13.2" height="11.2" transform="matrix(.8373 -.1903 .0331 1.0502 -13.85 -65.25)"/><use xlink:href="#aQ" width="15.3" height="19.8" transform="matrix(-1.084 -1.2408 .9498 -.8298 -7.4 -47.3)"/><use xlink:href="#aR" width="9.7" height="19.6" transform="matrix(.9977 .259 -.1878 .9417 -.55 -72.9)"/><use xlink:href="#aS" width="18.4" height="26.1" transform="rotate(-51.876 -74.72 -16.386)scale(.9946)"/><use xlink:href="#aP" width="13.2" height="11.2" transform="rotate(-55.65 -52.787 -21.501)scale(.996)"/><use xlink:href="#aT" width="25.4" height="30.3" transform="rotate(11.038 419.897 -48.93)scale(.9965)"/></g></g><g clip-path="url(#aU)"><g transform="translate(523.55 96)"><use xlink:href="#Y" width="14.7" height="4.3" transform="translate(-6.85 -2.15)"/><use xlink:href="#aV" width="15.8" height="55.5" transform="matrix(1.0446 -.6039 -.0859 -.2882 .15 -63.2)"/><use xlink:href="#aV" width="15.8" height="55.5" transform="matrix(.6763 -.6023 -.2372 -.3024 4.2 -59.2)"/><use xlink:href="#aW" width="13.2" height="11.2" transform="matrix(.7621 -.3961 .2984 1.0071 -13.45 -64.35)"/><use xlink:href="#aX" width="15.3" height="19.8" transform="matrix(-1.2043 -1.1277 .8633 -.9219 -3.95 -46.75)"/><use xlink:href="#aY" width="9.7" height="19.6" transform="matrix(1.0186 .1619 -.0954 .9558 -1.6 -73.9)"/><use xlink:href="#aZ" width="18.4" height="26.1" transform="rotate(-60.982 -61.236 -17.19)scale(.9957)"/><use xlink:href="#aW" width="13.2" height="11.2" transform="rotate(-66.71 -43.617 -25.118)scale(.997)"/><use xlink:href="#ba" width="25.4" height="30.3" transform="rotate(5.492 855.236 -109.983)scale(.9969)"/><use xlink:href="#bb" width="28.6" height="23.2" transform="translate(-22.6 -73.2)"/></g></g><g clip-path="url(#bc)"><use xlink:href="#bd" width="49.7" height="51.5" transform="translate(579 3.05)"/></g><g clip-path="url(#be)"><use xlink:href="#bf" width="69.7" height="60.8" transform="translate(654.1 1)"/></g><g clip-path="url(#bg)"><use xlink:href="#bh" width="60.3" height="12.7" transform="translate(730 48.25)"/></g></svg>