<svg xmlns="http://www.w3.org/2000/svg" xmlns:xlink="http://www.w3.org/1999/xlink" width="953" height="40" viewBox="0 0 953 40"><defs><clipPath id="g"><path d="M1 1h33v38H1z"/></clipPath><clipPath id="n"><path d="M35 1h33v38H35z"/></clipPath><clipPath id="o"><path d="M69 1h33v38H69z"/></clipPath><clipPath id="p"><path d="M103 1h33v38h-33z"/></clipPath><clipPath id="q"><path d="M137 1h33v38h-33z"/></clipPath><clipPath id="r"><path d="M171 1h33v38h-33z"/></clipPath><clipPath id="s"><path d="M205 1h33v38h-33z"/></clipPath><clipPath id="t"><path d="M239 1h33v38h-33z"/></clipPath><clipPath id="u"><path d="M273 1h33v38h-33z"/></clipPath><clipPath id="v"><path d="M307 1h33v38h-33z"/></clipPath><clipPath id="w"><path d="M341 1h33v38h-33z"/></clipPath><clipPath id="x"><path d="M375 1h33v38h-33z"/></clipPath><clipPath id="y"><path d="M409 1h33v38h-33z"/></clipPath><clipPath id="z"><path d="M443 1h33v38h-33z"/></clipPath><clipPath id="A"><path d="M477 1h33v38h-33z"/></clipPath><clipPath id="B"><path d="M511 1h33v38h-33z"/></clipPath><clipPath id="C"><path d="M545 1h33v38h-33z"/></clipPath><clipPath id="D"><path d="M579 1h33v38h-33z"/></clipPath><clipPath id="E"><path d="M613 1h33v38h-33z"/></clipPath><clipPath id="F"><path d="M647 1h33v38h-33z"/></clipPath><clipPath id="G"><path d="M681 1h33v38h-33z"/></clipPath><clipPath id="H"><path d="M715 1h33v38h-33z"/></clipPath><clipPath id="I"><path d="M749 1h33v38h-33z"/></clipPath><clipPath id="J"><path d="M783 1h33v38h-33z"/></clipPath><clipPath id="K"><path d="M817 1h33v38h-33z"/></clipPath><clipPath id="L"><path d="M851 1h33v38h-33z"/></clipPath><clipPath id="M"><path d="M885 1h33v38h-33z"/></clipPath><clipPath id="N"><path d="M919 1h33v38h-33z"/></clipPath><use xlink:href="#a" id="m" width="5.5" height="10.3"/><use xlink:href="#b" id="l" width="20.1" height="20.3"/><use xlink:href="#c" id="k" width="3.7" height="6"/><use xlink:href="#d" id="j" width="3.5" height="5.5"/><use xlink:href="#e" id="i" width="20.4" height="16.9"/><use xlink:href="#f" id="h" width="15.1" height="4.5"/><g id="a"><path fill="none" stroke="#422100" stroke-linecap="round" stroke-linejoin="round" stroke-width="__RESOLUTION__" d="M.5 2.2Q1.7-1.1 3.4.5q1.7 1.9.4 5" vector-effect="non-scaling-stroke"/><path fill="#cfb19c" d="M4.1 5.4q.5 0 .9.6l.4 1.3-.2 1.3q-.3.6-.8.6t-.9-.5l-.1.2-1 1.3-1.2.2Q.9 10 .9 9.2l.1-1H.8Q0 8 0 7.5q0-.6.7-1.2t1.6-1h1.6z"/><path fill="none" stroke="#583a2c" stroke-linecap="round" stroke-linejoin="round" stroke-width="__RESOLUTION__" d="M4.1 5.4q.5 0 .9.6l.4 1.3-.2 1.3q-.3.6-.8.6t-.9-.5l-.1.2-1 1.3-1.2.2Q.9 10 .9 9.2l.1-1H.8Q0 8 0 7.5q0-.6.7-1.2t1.6-1h1.6z" vector-effect="non-scaling-stroke"/></g><g id="b"><path fill="#b5703e" d="M14 1.3h.2zm-14 12v-.2z"/><path fill="#995828" d="m14.2 1.3.3.1.7.4Q16.5 3 19 6.3q1 1.5 1.1 4.4v1.2q-.2 2.4-1.2 4-1.1 1-2.3 1.5 1.7-2 2.2-4.3v-1.7l.1-3.1-1.1 3q-1.6 3.7-4.1 4.9-2.4.4-4.6-1.6-.8-1-.6-3-2.3 1-3.6 2l.7-2q1-2.9 4.8-5.7-7.1 2.8-8.8 5.2L2 8q1.3-4.3 12.2-6.7m0 0 1 .5zM16.5 7l-.9-1.6-.1-.2-2-1.5 2 1.5.1.2z"/><path fill="#6d3d23" d="M16.6 17.4q-2.4 2.2-3.8 2.4l-3.9.4h-.3l-3.9-1-1.9-.7q-1.2-.4-1.6-2.1v-.1L1 14.5l.3-1.6.2-1.6v-.1q.1-.1 0-.1 1.7-2.4 8.8-5.2-3.8 2.8-4.8 5.7l-.7 2q1.3-1 3.6-2-.2 2 .6 3 2.2 2 4.6 1.6 2.6-1.1 4.1-5l1.1-3-.1 3.2v1.7q-.5 2.3-2.2 4.3m-15-6.2-.2 1.7z"/><path fill="none" stroke="#000" stroke-linecap="round" stroke-linejoin="round" stroke-opacity=".3" stroke-width="__RESOLUTION__" d="M14 1.3h.2l.3.1.7.4Q16.5 3 19 6.3q1 1.5 1.1 4.4v1.2q-.2 2.4-1.2 4-1.1 1-2.3 1.5-2.5 2.2-3.9 2.4l-3.8.5h-.4l-3.8-1.1-1.9-.7q-1.3-.4-1.7-2.1v-.1m14-14.5-.9-.4m-.7 2.3 2 1.5.1.2.9 1.5m.1 10.5q1.7-2 2.2-4.3v-1.7M.1 13.3l-.1-.2m1.2 3.2L1 14.5m.3-1.6.3-1.7" vector-effect="non-scaling-stroke"/><path fill="#b5703e" d="m9.6 0 4.2 1.4v-.1l1.2.6L13.8.7l1.2.8 1 1-.2-.2H15v.1h-.1l-4-1.8.1 1.7-4.4-.9-.1-.5 2.8.6 1 .1z"/><path fill="#6d3d23" d="m9.6 0 .8 1.7-1.1-.1zM6.5 1l.1.6.5 2.3-.8-.6-1-2.5zm7.3-.2 1.2 1V2l-1.2-.6-.4-.7zM3.2 14.1l-.4 3.3-1.6-.4v-.5l.7-2.2V14l-.4-1-.6-2.4 1-1 .5 4.1zM3.5 8l-.7-3.8 1-.7.7 4.6z"/><path fill="#995828" d="m6.6 1.6 4.4.9-.1-1.7 4 1.8.1-.1h.8l-.8.4-9.5 5.8-1.8 3.2-.2.2v.1l-.3 1.9-.8-.4-.5-4.2H2L3.5 8l1 .1-.7-4.6h2.5v-.2l.8.5zM1.9 14.2"/><path fill="none" stroke="#000" stroke-linecap="round" stroke-linejoin="round" stroke-opacity=".3" stroke-width="__RESOLUTION__" d="M13.8 1.3 9.6 0l-.3 1.6v0l-2.8-.5L5.3.8l1 2.6v.1H3.8l-1 .8.7 3.7h0L2 9.5m14-6.9-1-1-1.2-.7m0 .5-.4-.7M1.3 16.5l.5-2.3M1.6 13 1 10.6l1-1" vector-effect="non-scaling-stroke"/></g><g id="c"><path fill="#6d3f1d" d="M3.7 1q.1 1.2-.3 2.2L2.1 4.7H2l-.6.1-1.1-.3.2-1.3.8-2.2Q2-.3 2.8 0q.6.4.9 1"/><path fill="#7a84a3" d="m2 4.8.3.7-1 .5V4.9z"/><path fill="#272b38" d="M1.3 6h-1L0 5.5l.3-.8v-.1l1 .3z"/><path fill="none" stroke="#000" stroke-linecap="round" stroke-linejoin="round" stroke-opacity=".3" stroke-width="__RESOLUTION__" d="m2 4.8.3.7-1 .5" vector-effect="non-scaling-stroke"/><path fill="none" stroke="#000" stroke-linecap="round" stroke-linejoin="round" stroke-opacity=".3" stroke-width="__RESOLUTION__" d="M1.3 6h-1L0 5.5l.3-.8.2-1.5.8-2.1Q2-.3 2.8 0q.6.3.9.9.1 1.2-.3 2.2L2.1 4.7" vector-effect="non-scaling-stroke"/></g><g id="d"><path fill="#6d3f1d" d="m3.2 1.6.3.9q0 1.3-.5 1.9t-1.3.4Q.5 2.6 1.2 0q.4.1 1 .6z"/><path fill="#995828" d="M1.7 4.8.7 4 0 2.5q-.2-1 0-1.6T.8 0l.4-.1q-.7 2.6.5 4.8"/><path fill="none" stroke="#000" stroke-linecap="round" stroke-linejoin="round" stroke-opacity=".3" stroke-width="__RESOLUTION__" d="m3.2 1.6.3.9q0 1.3-.5 1.9t-1.3.4L.7 4 0 2.5q-.2-1 0-1.6T.8 0" vector-effect="non-scaling-stroke"/><path fill="#7a84a3" d="M2.2 5.5V4.4l.7-.2.3.8z"/><path fill="#272b38" d="m2.3 4.4-.1 1.1h-1L.7 5l.3-.9z"/><path fill="none" stroke="#000" stroke-linecap="round" stroke-linejoin="round" stroke-width="__RESOLUTION__" d="m2.2 5.5 1-.4-.3-.8M1.1 4 .9 5l.3.4 1 .1" vector-effect="non-scaling-stroke"/></g><g id="e"><path fill="#8d562e" d="m18.1 5.8.6.8Q20.2 9 20 10.4l-1.2.6q-2.2 1.3-3.8 1.5-2.5-.2-2.5-2.6 3.4-3.1 5.6-4.1"/><path fill="#b5703e" d="M18.1 5.8q-2.2 1-5.6 4.1L11.8 7l1.6-2q.4-.7.9-1 .6-.5 1.3-.6 1.2.7 2.5 2.5"/><path fill="none" stroke="#000" stroke-linecap="round" stroke-linejoin="round" stroke-opacity=".3" stroke-width="__RESOLUTION__" d="M15 12.5q1.6-.3 3.7-1.5l1.3-.6q0-1.4-1.4-3.9l-.5-.7Q16.8 4 15.5 3.4q-.6 0-1.2.6m0 0q-.5.3-1 .9L11.9 7" vector-effect="non-scaling-stroke"/><path fill="#fff" d="M13.7 9h-.4l-.2-.9-.8-1.2q-.6-.5-.5-.8l.4-.3.7-.1q.7 0 1.2.6t.5 1.4-.5 1.1z"/><path fill="none" stroke="#212121" stroke-linecap="round" stroke-linejoin="round" stroke-width="__RESOLUTION__" d="m13.7 9 .4-.2q.5-.4.5-1.1t-.5-1.4-1.2-.6h-.7" vector-effect="non-scaling-stroke"/><path fill="#000" d="m14.1 6.5-.1.3v.3l.3.2h.2v-.1l.2-.3-.1-.3-.3-.2z"/><path fill="#f3f5f8" d="M17.4 3.9v-.2l3 5.6-.3 3.6-3.2 1.1-2-.7 3.4-1.2.4-2.4z"/><path fill="#d9dfe8" d="m14.9 13.3.2-2.8.8-2L17.4 4l1.4 5.8-.5 2.5z"/><path fill="none" stroke="#000" stroke-linecap="round" stroke-linejoin="round" stroke-opacity=".3" stroke-width="__RESOLUTION__" d="m17.5 3.7 2.9 5.6-.3 3.6-3.2 1.1m-1.8-3.5.8-2L17.3 4" vector-effect="non-scaling-stroke"/><path fill="#6d3f1d" d="m11.7 4.3 1.9-.2-.8.6 1.5 1.4-1-.3.6 1.3-1.1-.4-.5.1H9q-1.3 0-2.2-.7l-1.2-.7-.2-.2-.9-1.6.2.1.8.9 1.8.8 1.3-.6L7.7 6l1-.6h1.6L9 5l2.8.2-1.2-.5.9-.4z"/><path fill="#995828" d="m11.7 4.3-.9.4 1.2.5L9.1 5l1.2.3H8.8L7.7 6l.9-1.1-1.3.5-1.9-.8-.8-.8.4.1-.3-1 .7.2-.1-.8 2 2.2zm-6.3 1 .1.2zm7 1.5h.4-.1z"/><path fill="#d58d59" d="m11.6 4.3-4.3.2-2-2.1-.1-.4 1.7 1.5.4.3q.4.4 1.5.4l1.7-.2 1 .1z"/><path fill="none" stroke="#000" stroke-linecap="round" stroke-linejoin="round" stroke-opacity=".3" stroke-width="__RESOLUTION__" d="m12.8 6.8 1.1.4-.6-1.3 1 .3-1.5-1.4.8-.6-1.8.2-.2-.1h0l-.1-.1m-6.9-.4-.2-.1 1 1.6.1.2m3.4 1.3h3.8m0 0h-.3M5.3 2.4l.1.7-.7-.2.3 1-.4-.1m2.7 0-.4-.3h0L5.2 2v.4m.1 2.9.1.2m.1 0 1.2.6q1 .7 2.1.7M5.4 5.5" vector-effect="non-scaling-stroke"/><path fill="#995828" d="M.4 6.5q7-3.3 7.4-3.2l3 .8Q13.3 5 14 6l-.7 3.3-3.7.4Q.6 10.8.4 6.5"/><path fill="#6d3d23" d="M.4 6.5q.2 4.3 9.1 3.2l3.7-.4-.1.4h-.3v1.8l.4.7-.1 2.4.4.6.7 1-2.9.7Q2.2 15.5 1 14.5q-.8-.1-1-3.9Q0 7 .5 6.4"/><path fill="#8d562e" d="m13.2 9.3.6.2-.8.2zm3.6 3.3.2.4-.6-.4h.2z"/><path fill="#6d3f1d" d="m13.8 9.5.6-.1 1.7.8 1.7 2-4.9-1.2 3.6 1.6.4.4 1.6 1.4-5 .8-.4-.6v-2.4l-.3-.6V9.7h.2z"/><path fill="#4e2d14" d="m17.8 12.2.3.3-1.3.1h-.4L13 11zm.7 2.2.1.2-4.4 1.7-.7-1.1z"/><path fill="none" stroke="#562d16" stroke-linecap="round" stroke-linejoin="round" stroke-width="__RESOLUTION__" d="m9.5 9.7 3.7-.4.6.2m3 3.1.1.4m-2.8 3.3-2.8.6Q2.2 15.5 1 14.5q-.8-.1-1-3.9Q0 7 .5 6.4" vector-effect="non-scaling-stroke"/><path fill="none" stroke="#000" stroke-linecap="round" stroke-linejoin="round" stroke-opacity=".3" stroke-width="__RESOLUTION__" d="m16 10.2 1.8 2 .3.3-1.3.1h-.4l.6.4 1.4 1.4.3.1-4.5 1.8" vector-effect="non-scaling-stroke"/><path fill="#995828" d="M4.7 5.3Q3.6 3.8 4.7 2v-.1l.2-1 .5.4L5.2 0l2.5 3.3.4.2q-.8 1.4-3.4 1.8"/><path fill="none" stroke="#000" stroke-linecap="round" stroke-linejoin="round" stroke-opacity=".3" stroke-width="__RESOLUTION__" d="M4.7 2q-1.1 1.8 0 3.3m3-2L5.2 0l.2 1.3-.5-.4-.2 1h0" vector-effect="non-scaling-stroke"/><path fill="#995828" d="m12.4 4.2-.2-1-.5.4.3-1.3-2.6 3.3-.3.2q.7 1.4 3.3 1.7 1.1-1.5 0-3.3"/><path fill="none" stroke="#000" stroke-linecap="round" stroke-linejoin="round" stroke-opacity=".3" stroke-width="__RESOLUTION__" d="m9.3 5.6 2.6-3.3-.3 1.3.5-.5.2 1v.1m.1 0q1 1.8-.1 3.3" vector-effect="non-scaling-stroke"/></g><path id="f" fill="#382c16" fill-opacity=".6" d="m4-2.4 2.5.4 1 .7q0 .2-1.2.6l-1.9.3q-2.5.2-5 1.8-.1.3-1 .6H-4l-2.5-.4-1-.7q0-.4 1-.6L-4 0Q-.2-.3.6-1.2q-.2-.2.7-.5 1.2-.6 2.7-.6" transform="translate(7.55 2.4)"/></defs><g clip-path="url(#g)"><g transform="translate(13.55 33.9)"><use xlink:href="#h" width="15.1" height="4.5" transform="translate(-6.85 -2.25)"/><use xlink:href="#i" width="20.4" height="16.9" transform="matrix(1 .08 -.0774 .9938 -4.35 -19.75)"/><use xlink:href="#j" width="3.5" height="5.5" transform="matrix(.8811 -.47 .47 .8811 -6.2 -2.5)"/><use xlink:href="#k" width="3.7" height="6" transform="rotate(12.066 25.104 6.676)scale(.9994)"/><use xlink:href="#l" width="20.1" height="20.3" transform="translate(-11.9 -20.4)"/><use xlink:href="#j" width="3.5" height="5.5" transform="rotate(-29.563 -5.74 6.39)scale(.9986)"/><use xlink:href="#m" width="5.5" height="10.3" transform="matrix(.9957 -.0584 .1302 .9915 -9.7 -7.1)"/></g></g><g clip-path="url(#n)"><g transform="translate(47.55 33.9)"><use xlink:href="#h" width="15.1" height="4.5" transform="matrix(.9619 .0262 0 1.0426 -6.7 -2.45)"/><use xlink:href="#i" width="20.4" height="16.9" transform="matrix(1.0022 .0225 -.0219 .9969 -4.85 -19.85)"/><use xlink:href="#j" width="3.5" height="5.5" transform="rotate(-19.58 -11.554 16.806)scale(.9976)"/><use xlink:href="#k" width="3.7" height="6" transform="matrix(1.0416 -.1237 .1178 .9912 2.1 -5.6)"/><use xlink:href="#l" width="20.1" height="20.3" transform="translate(-11.9 -20.55)"/><use xlink:href="#j" width="3.5" height="5.5" transform="rotate(-19.325 -8.776 9.838)scale(.9975)"/><use xlink:href="#m" width="5.5" height="10.3" transform="matrix(.9953 .0576 .0093 .9997 -9.25 -7.3)"/></g></g><g clip-path="url(#o)"><g transform="translate(81.55 33.9)"><use xlink:href="#h" width="15.1" height="4.5" transform="matrix(.923 .0533 0 1.0853 -6.55 -2.7)"/><use xlink:href="#i" width="20.4" height="16.9" transform="matrix(1.0013 -.0308 .031 .997 -5.5 -19.85)"/><use xlink:href="#j" width="3.5" height="5.5" transform="rotate(-11.29 -19.589 30.241)scale(.998)"/><use xlink:href="#k" width="3.7" height="6" transform="matrix(.9901 -.4743 .4305 .8987 2.35 -5.9)"/><use xlink:href="#l" width="20.1" height="20.3" transform="translate(-11.9 -20.7)"/><use xlink:href="#j" width="3.5" height="5.5" transform="rotate(-9.278 -18.362 19.908)scale(.998)"/><use xlink:href="#m" width="5.5" height="10.3" transform="matrix(.9803 .1778 -.1054 .9935 -8.8 -7.45)"/></g></g><g clip-path="url(#p)"><g transform="translate(115.55 33.9)"><use xlink:href="#h" width="15.1" height="4.5" transform="matrix(.8835 .078 0 1.1279 -6.4 -2.9)"/><use xlink:href="#i" width="20.4" height="16.9" transform="matrix(.9974 -.0839 .0872 .9939 -6 -19.95)"/><use xlink:href="#j" width="3.5" height="5.5" transform="rotate(-3.037 -73.865 116.024)scale(.9986)"/><use xlink:href="#k" width="3.7" height="6" transform="matrix(.8176 -.8077 .7007 .7093 2.85 -6.35)"/><use xlink:href="#l" width="20.1" height="20.3" transform="translate(-11.9 -20.85)"/><use xlink:href="#j" width="3.5" height="5.5" transform="rotate(.752 230.862 -245.42)scale(.9985)"/><use xlink:href="#m" width="5.5" height="10.3" transform="matrix(.9518 .2921 -.2251 .9728 -8.25 -7.6)"/></g></g><g clip-path="url(#q)"><g transform="translate(149.55 33.9)"><use xlink:href="#h" width="15.1" height="4.5" transform="matrix(.8432 .1005 0 1.1705 -6.25 -3.05)"/><use xlink:href="#i" width="20.4" height="16.9" transform="matrix(.9902 -.14 .1398 .9881 -6.55 -19.95)"/><use xlink:href="#j" width="3.5" height="5.5" transform="rotate(5.062 42.167 -71.559)scale(.9984)"/><use xlink:href="#k" width="3.7" height="6" transform="matrix(.5316 -1.0746 .8928 .4417 4.2 -6.35)"/><use xlink:href="#l" width="20.1" height="20.3" transform="translate(-11.95 -21.05)"/><use xlink:href="#j" width="3.5" height="5.5" transform="rotate(10.783 14.948 -17.179)scale(.998)"/><use xlink:href="#m" width="5.5" height="10.3" transform="matrix(.9088 .4054 -.3383 .9388 -7.85 -7.8)"/></g></g><g clip-path="url(#r)"><g transform="translate(183.55 33.9)"><use xlink:href="#h" width="15.1" height="4.5" transform="matrix(.8025 .1205 0 1.2132 -6.1 -3.25)"/><use xlink:href="#i" width="20.4" height="16.9" transform="matrix(.9799 -.1955 .1954 .9789 -6.95 -19.95)"/><use xlink:href="#j" width="3.5" height="5.5" transform="rotate(13.513 15.123 -27.684)scale(.998)"/><use xlink:href="#k" width="3.7" height="6" transform="matrix(.159 -1.241 .9892 .1267 5.8 -6.5)"/><use xlink:href="#l" width="20.1" height="20.3" transform="translate(-11.95 -21.2)"/><use xlink:href="#j" width="3.5" height="5.5" transform="rotate(20.83 7.591 -8.426)scale(.9975)"/><use xlink:href="#m" width="5.5" height="10.3" transform="matrix(.854 .5098 -.4496 .8902 -7.35 -7.95)"/></g></g><g clip-path="url(#s)"><g transform="translate(217.55 33.9)"><use xlink:href="#h" width="15.1" height="4.5" transform="matrix(.7616 .1395 0 1.2558 -5.95 -3.4)"/><use xlink:href="#i" width="20.4" height="16.9" transform="rotate(-14.531 -81.768 19.267)scale(.9992)"/><use xlink:href="#j" width="3.5" height="5.5" transform="matrix(.9274 .371 -.371 .9274 -6 -4.6)"/><use xlink:href="#k" width="3.7" height="6" transform="matrix(-.2604 -1.2767 .9779 -.1994 7.45 -6.85)"/><use xlink:href="#l" width="20.1" height="20.3" transform="translate(-11.95 -21.35)"/><use xlink:href="#j" width="3.5" height="5.5" transform="rotate(31.073 5.065 -5.477)scale(.9986)"/><use xlink:href="#m" width="5.5" height="10.3" transform="matrix(.7874 .6096 -.5528 .8313 -6.85 -8.05)"/></g></g><g clip-path="url(#t)"><g transform="translate(251.55 33.9)"><use xlink:href="#h" width="15.1" height="4.5" transform="matrix(.7309 .1197 -.0111 1.1648 -5.85 -3)"/><use xlink:href="#i" width="20.4" height="16.9" transform="matrix(.9868 -.153 .1651 .9845 -6.3 -21.55)"/><use xlink:href="#j" width="3.5" height="5.5" transform="rotate(33.108 7.89 -12.872)scale(.9972)"/><use xlink:href="#k" width="3.7" height="6" transform="matrix(-.1529 -1.2422 .9901 -.1219 6.75 -6.9)"/><use xlink:href="#l" width="20.1" height="20.3" transform="matrix(.9997 .0701 -.0402 .9987 -11.05 -23.3)"/><use xlink:href="#j" width="3.5" height="5.5" transform="rotate(38.825 5.81 -5.238)scale(.9966)"/><use xlink:href="#m" width="5.5" height="10.3" transform="matrix(.8952 .4333 -.3702 .926 -6.8 -10.15)"/></g></g><g clip-path="url(#u)"><g transform="translate(285.55 33.9)"><use xlink:href="#h" width="15.1" height="4.5" transform="matrix(.6999 .1022 -.0239 1.0737 -5.75 -2.65)"/><use xlink:href="#i" width="20.4" height="16.9" transform="matrix(.9971 -.0574 .0786 .995 -5.05 -23.3)"/><use xlink:href="#j" width="3.5" height="5.5" transform="rotate(44.622 7.13 -10.898)scale(.9968)"/><use xlink:href="#k" width="3.7" height="6" transform="matrix(-.0528 -1.1999 .9968 -.0439 6.05 -7)"/><use xlink:href="#l" width="20.1" height="20.3" transform="matrix(.9945 .1402 -.0836 .9955 -10.15 -25.3)"/><use xlink:href="#j" width="3.5" height="5.5" transform="rotate(46.395 6.517 -5.417)scale(.9961)"/><use xlink:href="#m" width="5.5" height="10.3" transform="matrix(.9653 .2414 -.1701 .9833 -6.7 -12.4)"/></g></g><g clip-path="url(#v)"><g transform="translate(319.55 33.9)"><use xlink:href="#h" width="15.1" height="4.5" transform="matrix(.6686 .0882 -.0348 .9825 -5.6 -2.25)"/><use xlink:href="#i" width="20.4" height="16.9" transform="matrix(.9981 .0354 -.005 .9979 -3.75 -24.9)"/><use xlink:href="#j" width="3.5" height="5.5" transform="rotate(56.138 6.608 -9.966)scale(.9968)"/><use xlink:href="#k" width="3.7" height="6" transform="matrix(.0358 -1.1496 .9973 .0311 5.4 -7.15)"/><use xlink:href="#l" width="20.1" height="20.3" transform="matrix(.9843 .2099 -.1268 .9904 -9.15 -27.2)"/><use xlink:href="#j" width="3.5" height="5.5" transform="rotate(54.157 6.851 -5.661)scale(.9958)"/><use xlink:href="#m" width="5.5" height="10.3" transform="matrix(.995 .0392 .0309 .9979 -6.65 -14.5)"/></g></g><g clip-path="url(#w)"><g transform="translate(353.55 33.9)"><use xlink:href="#h" width="15.1" height="4.5" transform="matrix(.6369 .0728 -.0429 .8912 -5.45 -1.9)"/><use xlink:href="#i" width="20.4" height="16.9" transform="matrix(.9896 .1311 -.0918 .9929 -2.35 -26.4)"/><use xlink:href="#j" width="3.5" height="5.5" transform="rotate(67.456 6.15 -9.52)scale(.9969)"/><use xlink:href="#k" width="3.7" height="6" transform="matrix(.1202 -1.0925 .9915 .1091 4.8 -7.35)"/><use xlink:href="#l" width="20.1" height="20.3" transform="matrix(.9693 .2789 -.1697 .9835 -8.05 -29.1)"/><use xlink:href="#j" width="3.5" height="5.5" transform="rotate(61.911 6.96 -5.875)scale(.9957)"/><use xlink:href="#m" width="5.5" height="10.3" transform="matrix(.9817 -.1646 .2338 .97 -6.6 -16.65)"/></g></g><g clip-path="url(#x)"><g transform="translate(387.55 33.9)"><use xlink:href="#h" width="15.1" height="4.5" transform="matrix(.6051 .0586 -.0463 .8 -5.35 -1.55)"/><use xlink:href="#i" width="20.4" height="16.9" transform="matrix(.972 .2256 -.1779 .9805 -.75 -27.85)"/><use xlink:href="#j" width="3.5" height="5.5" transform="rotate(78.957 5.602 -9.403)scale(.9972)"/><use xlink:href="#k" width="3.7" height="6" transform="matrix(.1959 -1.0294 .9796 .1864 4.1 -7.5)"/><use xlink:href="#l" width="20.1" height="20.3" transform="matrix(.9495 .3469 -.2123 .9747 -7.05 -31)"/><use xlink:href="#j" width="3.5" height="5.5" transform="rotate(69.477 7.04 -6.323)scale(.9955)"/><use xlink:href="#m" width="5.5" height="10.3" transform="matrix(.9268 -.3614 .4269 .9013 -6.55 -18.9)"/></g></g><g clip-path="url(#y)"><g transform="translate(421.55 33.9)"><use xlink:href="#h" width="15.1" height="4.5" transform="matrix(.5732 .0469 -.0524 .7088 -5.25 -1.15)"/><use xlink:href="#i" width="20.4" height="16.9" transform="matrix(.9453 .3213 -.2636 .9611 .85 -29.25)"/><use xlink:href="#j" width="3.5" height="5.5" transform="rotate(90.253 5.118 -9.54)scale(.9975)"/><use xlink:href="#k" width="3.7" height="6" transform="rotate(-74.705 -3.27 -6.176)scale(.9977)"/><use xlink:href="#l" width="20.1" height="20.3" transform="matrix(.9249 .4163 -.2554 .9646 -5.8 -32.9)"/><use xlink:href="#j" width="3.5" height="5.5" transform="rotate(77.183 7.031 -6.74)scale(.9962)"/><use xlink:href="#m" width="5.5" height="10.3" transform="matrix(.8335 -.5451 .6053 .7942 -6.5 -21.05)"/></g></g><g clip-path="url(#z)"><g transform="translate(455.55 33.9)"><use xlink:href="#h" width="15.1" height="4.5" transform="matrix(.5945 .0548 -.0505 .7694 -5.65 -1.25)"/><use xlink:href="#i" width="20.4" height="16.9" transform="matrix(.9309 .3541 -.3004 .9495 1.2 -28.65)"/><use xlink:href="#j" width="3.5" height="5.5" transform="matrix(-.0132 .9973 -.9976 -.0091 -4.3 -14.5)"/><use xlink:href="#k" width="3.7" height="6" transform="matrix(.3418 -.9363 .9363 .3376 3.4 -7.4)"/><use xlink:href="#l" width="20.1" height="20.3" transform="matrix(.9205 .4349 -.2829 .9517 -5.3 -32.6)"/><use xlink:href="#j" width="3.5" height="5.5" transform="matrix(.2114 .9719 -.9733 .2121 -.95 -11.85)"/><use xlink:href="#m" width="5.5" height="10.3" transform="matrix(.7376 -.6662 .7184 .6907 -6.7 -20.3)"/></g></g><g clip-path="url(#A)"><g transform="translate(489.55 33.9)"><use xlink:href="#h" width="15.1" height="4.5" transform="matrix(.616 .0626 -.0473 .8303 -6.1 -1.45)"/><use xlink:href="#i" width="20.4" height="16.9" transform="matrix(.915 .3896 -.3379 .937 1.6 -28.15)"/><use xlink:href="#j" width="3.5" height="5.5" transform="matrix(-.022 .997 -.9977 -.0139 -4.15 -14.4)"/><use xlink:href="#k" width="3.7" height="6" transform="matrix(.4187 -.9044 .9038 .4132 3.15 -7)"/><use xlink:href="#l" width="20.1" height="20.3" transform="matrix(.9173 .4533 -.3108 .9384 -4.8 -32.35)"/><use xlink:href="#j" width="3.5" height="5.5" transform="matrix(.2026 .9727 -.9757 .2041 -.75 -11.5)"/><use xlink:href="#m" width="5.5" height="10.3" transform="matrix(.6268 -.7708 .8152 .5726 -6.75 -19.55)"/></g></g><g clip-path="url(#B)"><g transform="translate(523.55 33.9)"><use xlink:href="#h" width="15.1" height="4.5" transform="matrix(.6371 .0728 -.0431 .8912 -6.4 -1.7)"/><use xlink:href="#i" width="20.4" height="16.9" transform="matrix(.8988 .4251 -.3787 .9226 1.95 -27.65)"/><use xlink:href="#j" width="3.5" height="5.5" transform="matrix(-.0308 .9967 -.9977 -.022 -4.05 -14.25)"/><use xlink:href="#k" width="3.7" height="6" transform="matrix(.4964 -.8657 .8664 .4868 3 -6.8)"/><use xlink:href="#l" width="20.1" height="20.3" transform="matrix(.9147 .4728 -.3416 .9243 -4.3 -31.85)"/><use xlink:href="#j" width="3.5" height="5.5" transform="matrix(.194 .9741 -.9778 .2002 -.6 -11.35)"/><use xlink:href="#m" width="5.5" height="10.3" transform="matrix(.5024 -.8585 .8942 .4418 -6.9 -18.75)"/></g></g><g clip-path="url(#C)"><g transform="translate(557.55 33.9)"><use xlink:href="#h" width="15.1" height="4.5" transform="matrix(.6583 .0815 -.0378 .9521 -6.8 -1.9)"/><use xlink:href="#i" width="20.4" height="16.9" transform="matrix(.8798 .4588 -.4146 .9065 2.4 -27.05)"/><use xlink:href="#j" width="3.5" height="5.5" transform="matrix(-.0396 .9962 -.9977 -.0267 -3.95 -14.1)"/><use xlink:href="#k" width="3.7" height="6" transform="matrix(.5664 -.8207 .8215 .5555 3 -6.45)"/><use xlink:href="#l" width="20.1" height="20.3" transform="matrix(.9101 .4907 -.3682 .9088 -3.8 -31.45)"/><use xlink:href="#j" width="3.5" height="5.5" transform="matrix(.1819 .9751 -.9798 .1916 -.4 -11.05)"/><use xlink:href="#m" width="5.5" height="10.3" transform="matrix(.3649 -.9245 .9515 .2968 -7.05 -18.05)"/></g></g><g clip-path="url(#D)"><g transform="translate(591.55 33.9)"><use xlink:href="#h" width="15.1" height="4.5" transform="matrix(.6791 .0928 -.0315 1.0129 -7.2 -2.05)"/><use xlink:href="#i" width="20.4" height="16.9" transform="matrix(.8621 .4897 -.4537 .8884 2.7 -26.45)"/><use xlink:href="#j" width="3.5" height="5.5" transform="matrix(-.0484 .9957 -.9977 -.0315 -3.9 -13.85)"/><use xlink:href="#k" width="3.7" height="6" transform="matrix(.6359 -.7689 .7741 .6187 2.85 -6.1)"/><use xlink:href="#l" width="20.1" height="20.3" transform="matrix(.9062 .5097 -.3947 .8936 -3.35 -31.1)"/><use xlink:href="#j" width="3.5" height="5.5" transform="matrix(.1732 .976 -.9817 .1872 -.25 -10.9)"/><use xlink:href="#m" width="5.5" height="10.3" transform="matrix(.2197 -.97 .9864 .1483 -7.25 -17.25)"/></g></g><g clip-path="url(#E)"><g transform="translate(625.55 33.9)"><use xlink:href="#h" width="15.1" height="4.5" transform="matrix(.7001 .1023 -.0242 1.0737 -7.65 -2.3)"/><use xlink:href="#i" width="20.4" height="16.9" transform="matrix(.8416 .5227 -.4891 .8703 3.15 -25.85)"/><use xlink:href="#j" width="3.5" height="5.5" transform="matrix(-.0572 .9951 -.9976 -.0395 -3.75 -13.7)"/><use xlink:href="#k" width="3.7" height="6" transform="matrix(.6985 -.7135 .7197 .6803 2.9 -5.8)"/><use xlink:href="#l" width="20.1" height="20.3" transform="matrix(.9002 .5317 -.4234 .8763 -2.8 -30.65)"/><use xlink:href="#j" width="3.5" height="5.5" transform="matrix(.1645 .9769 -.9835 .1828 0 -10.65)"/><use xlink:href="#m" width="5.5" height="10.3" transform="matrix(.066 -.9931 .9982 -.0005 -7.35 -16.45)"/></g></g><g clip-path="url(#F)"><g transform="translate(659.55 33.9)"><use xlink:href="#h" width="15.1" height="4.5" transform="matrix(.7206 .1146 -.0158 1.1345 -8 -2.45)"/><use xlink:href="#i" width="20.4" height="16.9" transform="matrix(.8198 .5548 -.5266 .8489 3.45 -25.15)"/><use xlink:href="#j" width="3.5" height="5.5" transform="matrix(-.066 .9944 -.9975 -.0443 -3.65 -13.55)"/><use xlink:href="#k" width="3.7" height="6" transform="matrix(.7584 -.6507 .6604 .7371 2.85 -5.55)"/><use xlink:href="#l" width="20.1" height="20.3" transform="matrix(.8955 .5507 -.4486 .8595 -2.4 -30.35)"/><use xlink:href="#j" width="3.5" height="5.5" transform="matrix(.1558 .9776 -.9852 .1783 .2 -10.35)"/><use xlink:href="#m" width="5.5" height="10.3" transform="matrix(-.0828 -.9921 .9862 -.1527 -7.45 -15.7)"/></g></g><g clip-path="url(#G)"><g transform="translate(693.55 33.9)"><use xlink:href="#h" width="15.1" height="4.5" transform="matrix(.7413 .1249 -.0064 1.1952 -8.4 -2.7)"/><use xlink:href="#i" width="20.4" height="16.9" transform="matrix(.7968 .5861 -.5605 .8279 3.9 -24.55)"/><use xlink:href="#j" width="3.5" height="5.5" transform="matrix(-.0748 .9937 -.9972 -.0523 -3.55 -13.4)"/><use xlink:href="#k" width="3.7" height="6" transform="matrix(.8108 -.5855 .5967 .7888 2.8 -5.2)"/><use xlink:href="#l" width="20.1" height="20.3" transform="matrix(.8903 .5697 -.4732 .8419 -1.9 -29.9)"/><use xlink:href="#j" width="3.5" height="5.5" transform="matrix(.1471 .9783 -.9876 .1706 .3 -10.1)"/><use xlink:href="#m" width="5.5" height="10.3" transform="matrix(-.2331 -.9677 .9512 -.3013 -7.6 -15)"/></g></g><g clip-path="url(#H)"><g transform="translate(727.55 33.9)"><use xlink:href="#h" width="15.1" height="4.5" transform="matrix(.7616 .1395 0 1.2558 -8.8 -2.9)"/><use xlink:href="#i" width="20.4" height="16.9" transform="matrix(.7745 .6166 -.5965 .8052 4.3 -23.8)"/><use xlink:href="#j" width="3.5" height="5.5" transform="matrix(-.0869 .9928 -.9972 -.0585 -3.4 -13.3)"/><use xlink:href="#k" width="3.7" height="6" transform="matrix(.8597 -.5156 .5311 .8356 2.7 -4.95)"/><use xlink:href="#l" width="20.1" height="20.3" transform="matrix(.8843 .5924 -.4997 .8238 -1.35 -29.45)"/><use xlink:href="#j" width="3.5" height="5.5" transform="matrix(.1407 .979 -.9897 .1673 .45 -9.85)"/><use xlink:href="#m" width="5.5" height="10.3" transform="matrix(-.3799 -.9211 .8937 -.4464 -7.75 -14.2)"/></g></g><g clip-path="url(#I)"><g transform="translate(761.55 33.9)"><use xlink:href="#h" width="15.1" height="4.5" transform="matrix(.7613 .1382 0 1.2558 -8.3 -3.05)"/><use xlink:href="#i" width="20.4" height="16.9" transform="matrix(.8191 .5549 -.5353 .845 3.2 -23.65)"/><use xlink:href="#j" width="3.5" height="5.5" transform="matrix(.0958 .9918 -.9909 .1218 -3.8 -12.5)"/><use xlink:href="#k" width="3.7" height="6" transform="matrix(.8873 -.4627 .477 .8672 2.5 -5.05)"/><use xlink:href="#l" width="20.1" height="20.3" transform="matrix(.9136 .5288 -.4505 .8547 -2.65 -28.55)"/><use xlink:href="#j" width="3.5" height="5.5" transform="matrix(.2937 .9446 -.9501 .3184 -.05 -9.3)"/><use xlink:href="#m" width="5.5" height="10.3" transform="matrix(-.1774 -.9797 .9671 -.2466 -7.9 -13.35)"/></g></g><g clip-path="url(#J)"><g transform="translate(795.55 33.9)"><use xlink:href="#h" width="15.1" height="4.5" transform="matrix(.7613 .1381 0 1.2558 -7.8 -3.25)"/><use xlink:href="#i" width="20.4" height="16.9" transform="matrix(.8592 .4929 -.4745 .8803 2 -23.35)"/><use xlink:href="#j" width="3.5" height="5.5" transform="matrix(.2753 .9572 -.9525 .2967 -4.2 -11.65)"/><use xlink:href="#k" width="3.7" height="6" transform="matrix(.9137 -.4077 .4201 .8973 2.45 -5)"/><use xlink:href="#l" width="20.1" height="20.3" transform="matrix(.94 .4645 -.399 .8844 -3.95 -27.55)"/><use xlink:href="#j" width="3.5" height="5.5" transform="matrix(.4387 .8872 -.8892 .4598 -.55 -8.7)"/><use xlink:href="#m" width="5.5" height="10.3" transform="matrix(.0308 -.9955 .9977 -.0395 -8.2 -12.55)"/></g></g><g clip-path="url(#K)"><g transform="translate(829.55 33.9)"><use xlink:href="#h" width="15.1" height="4.5" transform="matrix(.7612 .138 0 1.2558 -7.3 -3.4)"/><use xlink:href="#i" width="20.4" height="16.9" transform="matrix(.8945 .4281 -.4113 .9113 .85 -23.05)"/><use xlink:href="#j" width="3.5" height="5.5" transform="matrix(.4457 .8904 -.8821 .465 -4.65 -10.75)"/><use xlink:href="#k" width="3.7" height="6" transform="matrix(.9366 -.3511 .3644 .9226 2.25 -5.05)"/><use xlink:href="#l" width="20.1" height="20.3" transform="matrix(.9619 .3991 -.3456 .911 -5.3 -26.6)"/><use xlink:href="#j" width="3.5" height="5.5" transform="matrix(.5732 .8078 -.8056 .5929 -1 -8.05)"/><use xlink:href="#m" width="5.5" height="10.3" transform="matrix(.2376 -.9664 .9835 .1693 -8.45 -11.8)"/></g></g><g clip-path="url(#L)"><g transform="translate(863.55 33.9)"><use xlink:href="#h" width="15.1" height="4.5" transform="matrix(.7611 .138 0 1.2558 -6.8 -3.55)"/><use xlink:href="#i" width="20.4" height="16.9" transform="matrix(.925 .3607 -.3431 .9389 -.25 -22.65)"/><use xlink:href="#j" width="3.5" height="5.5" transform="matrix(.6037 .7917 -.7843 .6152 -5 -9.8)"/><use xlink:href="#k" width="3.7" height="6" transform="matrix(.9561 -.2934 .304 .9454 2.15 -5.05)"/><use xlink:href="#l" width="20.1" height="20.3" transform="matrix(.9792 .3329 -.2905 .9343 -6.55 -25.65)"/><use xlink:href="#j" width="3.5" height="5.5" transform="matrix(.6961 .7059 -.7023 .7113 -1.45 -7.3)"/><use xlink:href="#m" width="5.5" height="10.3" transform="matrix(.4369 -.8933 .9258 .3706 -8.75 -11)"/></g></g><g clip-path="url(#M)"><g transform="translate(897.55 33.9)"><use xlink:href="#h" width="15.1" height="4.5" transform="matrix(.7611 .1379 0 1.2558 -6.3 -3.75)"/><use xlink:href="#i" width="20.4" height="16.9" transform="matrix(.9504 .2912 -.2763 .9605 -1.35 -22.25)"/><use xlink:href="#j" width="3.5" height="5.5" transform="matrix(.7385 .6678 -.6589 .7478 -5.45 -8.75)"/><use xlink:href="#k" width="3.7" height="6" transform="matrix(.972 -.2345 .2455 .9635 1.95 -5.1)"/><use xlink:href="#l" width="20.1" height="20.3" transform="matrix(.9921 .2662 -.2339 .9543 -7.65 -24.6)"/><use xlink:href="#j" width="3.5" height="5.5" transform="matrix(.7993 .5882 -.5818 .8121 -1.8 -6.55)"/><use xlink:href="#m" width="5.5" height="10.3" transform="matrix(.6138 -.7819 .8256 .5583 -8.85 -10.2)"/></g></g><g clip-path="url(#N)"><g transform="translate(931.55 33.9)"><use xlink:href="#h" width="15.1" height="4.5" transform="matrix(.7614 .1382 0 1.2558 -5.8 -3.9)"/><use xlink:href="#i" width="20.4" height="16.9" transform="matrix(.9712 .2203 -.2088 .978 -2.4 -21.7)"/><use xlink:href="#j" width="3.5" height="5.5" transform="matrix(.8496 .5225 -.5153 .8549 -5.65 -7.7)"/><use xlink:href="#k" width="3.7" height="6" transform="matrix(.9842 -.1784 .1862 .9785 1.9 -5.2)"/><use xlink:href="#l" width="20.1" height="20.3" transform="matrix(1.0011 .1994 -.1765 .9713 -9 -23.5)"/><use xlink:href="#j" width="3.5" height="5.5" transform="matrix(.8842 .4563 -.4508 .8925 -2.25 -5.85)"/><use xlink:href="#m" width="5.5" height="10.3" transform="matrix(.7667 -.6349 .6916 .7196 -9.1 -9.45)"/></g></g></svg>