<svg xmlns="http://www.w3.org/2000/svg" xmlns:xlink="http://www.w3.org/1999/xlink" width="4003" height="747" viewBox="0 0 4003 747"><defs><g id="a" fill-opacity="0"><path fill="#8dc7b5" d="m9.9 25.5-.2.2v-.2q-4.7-.8-9.2-6L0 18.3l1.4-5.8 6.7 3.4q4.9 2.2 4.8 2.4l-3.4 7z"/><path fill="#366d61" d="m1.4 12.4-.5.5L10.7 0l.2.3 6 9.5 8.5 3.7-.8 12.8q-8.2 2.5-14.8-.8l-.3-.3 3.3-7q.1-.2-4.7-2.5z"/></g><g id="b" fill-opacity=".1"><path fill="#8dc7b5" d="m9.9 25.5-.2.2v-.2q-4.7-.8-9.2-6L0 18.3l1.4-5.8 6.7 3.4q4.9 2.2 4.8 2.4l-3.4 7z"/><path fill="#366d61" d="m1.4 12.4-.5.5L10.7 0l.2.3 6 9.5 8.5 3.7-.8 12.8q-8.2 2.5-14.8-.8l-.3-.3 3.3-7q.1-.2-4.7-2.5z"/></g><g id="c" fill-opacity=".2"><path fill="#8dc7b5" d="m9.9 25.5-.2.2v-.2q-4.7-.8-9.2-6L0 18.3l1.4-5.8 6.7 3.4q4.9 2.2 4.8 2.4l-3.4 7z"/><path fill="#366d61" d="m1.4 12.4-.5.5L10.7 0l.2.3 6 9.5 8.5 3.7-.8 12.8q-8.2 2.5-14.8-.8l-.3-.3 3.3-7q.1-.2-4.7-2.5z"/></g><g id="d" fill-opacity=".3"><path fill="#8dc7b5" d="m9.9 25.5-.2.2v-.2q-4.7-.8-9.2-6L0 18.3l1.4-5.8 6.7 3.4q4.9 2.2 4.8 2.4l-3.4 7z"/><path fill="#366d61" d="m1.4 12.4-.5.5L10.7 0l.2.3 6 9.5 8.5 3.7-.8 12.8q-8.2 2.5-14.8-.8l-.3-.3 3.3-7q.1-.2-4.7-2.5z"/></g><g id="e" fill-opacity=".4"><path fill="#8dc7b5" d="m9.9 25.5-.2.2v-.2q-4.7-.8-9.2-6L0 18.3l1.4-5.8 6.7 3.4q4.9 2.2 4.8 2.4l-3.4 7z"/><path fill="#366d61" d="m1.4 12.4-.5.5L10.7 0l.2.3 6 9.5 8.5 3.7-.8 12.8q-8.2 2.5-14.8-.8l-.3-.3 3.3-7q.1-.2-4.7-2.5z"/></g><g id="f" fill-opacity=".6"><path fill="#8dc7b5" d="m9.9 25.5-.2.2v-.2q-4.7-.8-9.2-6L0 18.3l1.4-5.8 6.7 3.4q4.9 2.2 4.8 2.4l-3.4 7z"/><path fill="#366d61" d="m1.4 12.4-.5.5L10.7 0l.2.3 6 9.5 8.5 3.7-.8 12.8q-8.2 2.5-14.8-.8l-.3-.3 3.3-7q.1-.2-4.7-2.5z"/></g><g id="g" fill-opacity=".7"><path fill="#8dc7b5" d="m9.9 25.5-.2.2v-.2q-4.7-.8-9.2-6L0 18.3l1.4-5.8 6.7 3.4q4.9 2.2 4.8 2.4l-3.4 7z"/><path fill="#366d61" d="m1.4 12.4-.5.5L10.7 0l.2.3 6 9.5 8.5 3.7-.8 12.8q-8.2 2.5-14.8-.8l-.3-.3 3.3-7q.1-.2-4.7-2.5z"/></g><g id="h" fill-opacity=".8"><path fill="#8dc7b5" d="m9.9 25.5-.2.2v-.2q-4.7-.8-9.2-6L0 18.3l1.4-5.8 6.7 3.4q4.9 2.2 4.8 2.4l-3.4 7z"/><path fill="#366d61" d="m1.4 12.4-.5.5L10.7 0l.2.3 6 9.5 8.5 3.7-.8 12.8q-8.2 2.5-14.8-.8l-.3-.3 3.3-7q.1-.2-4.7-2.5z"/></g><g id="i" fill-opacity=".9"><path fill="#8dc7b5" d="m9.9 25.5-.2.2v-.2q-4.7-.8-9.2-6L0 18.3l1.4-5.8 6.7 3.4q4.9 2.2 4.8 2.4l-3.4 7z"/><path fill="#366d61" d="m1.4 12.4-.5.5L10.7 0l.2.3 6 9.5 8.5 3.7-.8 12.8q-8.2 2.5-14.8-.8l-.3-.3 3.3-7q.1-.2-4.7-2.5z"/></g><g id="j"><path fill="#e3f3ed" d="m30.9 4.9 7.3-.6 1.2 2.8 3.9-.4-1 1.1q-1.5 1.2-1.6 2l-1 1.2 2.2.7q2.6 2 1.9 4.5l-6.8-.4 5.9 5-29.1-1Q3.6 18.7.8 9.6l-.2-.5-.1-.4q3.3 4.9 9.5 4.6l8.1.5 10.8-1.4q10.7-1.7 5-3.7l1.7-.6z"/><path fill="#fcfff1" d="M.5 8.7.3 7.6 0 6Q-.2 3.4 1 .7 2-.6 3.4.3L5 2.5q2.6 2 5.9 3 3.1 1.3 6.5 1L30.9 5l4.7 3-1.7.7q5.7 1.9-5 3.6l-10.8 1.4-8.1-.5q-6.2.3-9.5-4.6"/><path fill="none" stroke="#000" stroke-linecap="round" stroke-linejoin="round" stroke-opacity=".3" stroke-width="__RESOLUTION__" d="m42.9 20.8-29.1-1Q3.6 18.7.8 9.7m-.4-.9L.2 7.6 0 6Q-.2 3.4 1 .7 2-.6 3.4.3l1.8 2.2q2.6 2 5.9 3 3.1 1.3 6.5 1L30.9 5" vector-effect="non-scaling-stroke"/><path fill="none" stroke="#756646" stroke-linecap="round" stroke-linejoin="round" stroke-width="__RESOLUTION__" d="m.9 9.6-.3-.5" vector-effect="non-scaling-stroke"/></g><g id="k"><path fill="#fcfff1" d="M.6 10.1 11.2 9q2.8-.4 5-2.2 2.4-1.5 4-3.9l.9-2.3q.8-1.1 2-.1 1.5 2.2 2 4.8l.3 1.4q.3 2.8-.3 5.6-2-.4-6.2 1.5l-6.5 2Q7 17.4 1 16.5v-.8l.6-2.9-.2-.8z"/><path fill="#e3f3ed" d="M.9 16.5q6 .9 11.6-.7l6.5-2q4-2 6.1-1.5l-.2.9q-2.4 5.1-7.5 7.4L2.1 25.5.7 19.7l-.2-1.2v-.1l.3 1.4-.5-3.4v.2l.3.6.3 1.2-.1 1.4.2-1z"/><path fill="none" stroke="#000" stroke-linecap="round" stroke-linejoin="round" stroke-opacity=".3" stroke-width="__RESOLUTION__" d="M25.1 12.3q.6-2.8.3-5.6l-.2-1.4Q24.7 2.8 23 .5q-1.1-1-2 .1l-.9 2.3q-1.6 2.4-4 4-2.2 1.7-5 2L.6 10.2m24.5 2.2-.2.9q-2.4 5.1-7.5 7.4L2.1 25.5" vector-effect="non-scaling-stroke"/><path fill="none" stroke="#000" stroke-linecap="round" stroke-linejoin="round" stroke-opacity=".4" stroke-width="__RESOLUTION__" d="m.6 10.1.7 2 .1.7-.5 2.9v.8l.1 2.4-.2.9.1-1.3-.3-1.3" vector-effect="non-scaling-stroke"/><path fill="none" stroke="#000" stroke-linecap="round" stroke-linejoin="round" stroke-opacity=".3" stroke-width="__RESOLUTION__" d="m2.1 25.5-1.4-6-.2-1.2h0l.3 1.3-.5-3.3" vector-effect="non-scaling-stroke"/></g><g id="l"><path fill="#8dc7b5" d="m9.9 25.5-.2.2v-.2q-4.7-.8-9.2-6L0 18.3l1.4-5.8 6.7 3.4q4.9 2.2 4.8 2.4l-3.4 7z"/><path fill="#366d61" d="m1.4 12.4-.5.5L10.7 0l.2.3 6 9.5 8.5 3.7-.8 12.8q-8.2 2.5-14.8-.8l-.3-.3 3.3-7q.1-.2-4.7-2.5z"/></g><g id="m"><path fill="#c9e9dc" d="M3.9 4.1 6 0l22.6 5.4 2.8 3.3 2 11.8-4.2 4.7q-4.8 1.5-12 0l-.1-9.5-1.8 4.1.5-9.1z"/><path fill="#e3f3ed" d="m3.9 4.1 12 6.6-.5 9.2-.8 4.2-6 .7Q2 23.3 0 19.2z"/></g><g id="aB"><path fill="#366d61" fill-opacity="0" d="m49.5 27.2 1.4 4.4-1.2-1.9.3 3-.3 5.3q0 .6-1.6 2.5l-1.7 2q-4.6 4.1-23.2 6.7l-.7.1-12.2 1.2-1.9-.1q-1.8-.3-2.7-.8l-1.1-1-1.2-1.1-.8-1.7h1l-1-.2L1 42.2q-2-6.6.2-19.3L4.9 28q11.6.3 22.6-3.1l17.3-2.7zM36.8 8.5 20.6 12q-9 2.7-15.8-1.9Q8 3.8 13.2 1.6l1.3-.5.2-.1.5-.1.3-.2h.2q10-3.1 21.1 7.8"/><path fill="#8dc7b5" fill-opacity="0" d="m49.5 27.2-4.7-5L27.5 25q-11 3.4-22.7 3.1l-3.7-5.2.3-1.4q1.2-6.7 3.4-11.3 6.7 4.7 15.8 2l16.2-3.7 1.3 1.7q7.8 8 11.3 17"/><path fill="#413a2c" fill-opacity="0" d="m1 42.2 1.6 3.4-.8-1.2z"/><path fill="none" stroke="#000" stroke-linecap="round" stroke-linejoin="round" stroke-opacity="0" stroke-width="__RESOLUTION__" d="m2.6 45.6 1 .1h-1l.7 1.8 1.2 1.2 1.2.8q.9.5 2.7.8l1.9.2 12.1-1.2.8-.1q18.6-2.6 23.2-6.8l1.7-1.9q1.6-1.9 1.6-2.5l.3-5.3-.3-3 1.2 1.8-1.4-4.4M1.1 22.8Q-1 35.5 1 42.2l1.6 3.4" vector-effect="non-scaling-stroke"/></g><g id="aA" fill-opacity="0"><path fill="#366d61" d="M7.7 1.9 7 1.8q6.9-3.6 14.4 0l-.1.3.5 8.3-5.3 6.1-6.9 3.6q-9-2.1-9-7.4v-.3l7-1.3q.3 0 0-3.8t0-5.4"/><path fill="#8dc7b5" d="M7.7 1.9q-.2 1.6 0 5.4t0 3.9l-7 1.2-.1.3H.3h.2q-1.3-3.2 1-8.1l.9-1z"/></g><g id="ay"><path fill="#fcfff1" fill-opacity="0" d="m92.6 40.2 15.3-1.7q2.8-.3 5-2.1 2.4-1.5 4-4l1-2.3q.8-1 2 0 1.5 2.2 2 4.7l.2 1.4q.3 2.8-.3 5.6-2-.4-6.1 1.5l-6.5 2q-6.9 2-14.5.2zM.5 50l-.2-1-.3-1.5q-.2-2.7 1-5.4.9-1.3 2.3-.4L5 43.8Q7.7 46 11 47q3.1 1.3 6.5 1l12.6-1.6.8-.1 4.7 3.2-1.7.7q4.5 1.5-1.2 3l-2 .4h-.3l-12.3 1.6-8.2-.5Q3.8 55 .4 50"/><path fill="#e3f3ed" fill-opacity="0" d="m121.9 41.9-.3.8q-2.4 5.2-7.5 7.4l-19.5 6.3q1.5-4 2.7-4.7l-2.5-6.2q7.6 1.9 14.4-.1l6.5-2.1q4.1-1.9 6.2-1.4M15.4 61.3l-1.6-.1Q3.6 59.9.8 51l-.2-.6-.1-.3q3.3 4.8 9.5 4.5l8.1.5 12.3-1.6h.3l2-.4q5.7-1.5 1.2-3l1.7-.7-4.7-3.2 1.8-.2h2l1.3-.2 2.2-.1 1.2 2.7 3.9-.4-1 1.2q-1.4 1.1-1.6 2l-1 1.1 2.2.7q2.6 2.1 1.9 4.5l-6.8-.4 5.9 5-14.3-.4h-.1l-10.9-.4z"/><path fill="#c6e8db" fill-opacity="0" d="m94.7 56.4-.5 1.3q0 3-2.2 7.3-.2-1.5-6.5 3l-3.9-.8h-4.1l-.8-8-3.2-3.2 1.6-15.2-5.2-5.6-4.4-20.8-15.2 14.4-4-4.4L39.5 38l-2.4-1.2-1.1 9-1.3.2-2-.8v.9l-1.8.1-.8.1q.8-3.2 3-6.7l.1-.1 1-1.4 1.6-2.3.5.7.6-9.6 2.9 4.3h.2l8-12.4 4.1-4.6-.3 5.3h.1l2.7-2.5 3.8-6.1.4-1 3.7-8.1.6-1.4.4-.2 7.3 11.3 1.4 6.8 8.2-3v.1l1.2 11-.2.1v.5h.2l6.8 1.4.9-.1h.7l2.4 11.4.2.4 2.2 5.4 2.5 6.2q-1.2.6-2.6 4.6"/><path fill="#366d61" fill-opacity="0" d="m92 65-3.5 5.9-.1.2-.1.1L83 74q-.3.7-.7 1l-.3.3 7-1 11-1.7-10 4.3-4.6 2-4.1 1.5-1.1.4-5.3 1.7-2 .7-5.2-1.7q-7.1 1.9-11.6 2.1l-8.8 1.1-3.6 1.3-4.7.5-.6-3.5-13.7-12v.1l-4.1-.9v-.3l-5.4-8.7 2.3.1 7.1 3.6 1.3.7.9-1.4-.1.4.1-.5 1-1.7.7-.7 14.2.4-5.9-5 6.8.4q.8-2.4-1.8-4.5l-2.2-.7 1-1.1q.1-.9 1.6-2l1-1.2-3.9.4-1.3-2.7-2.1.1 1-9 2.5 1.2 6.8-13.6 4 4.4 15.2-14.4 4.4 20.8 5.2 5.6L73.5 56l3.2 3.2.8 8h4.1l3.9.8q6.3-4.5 6.5-3m-48.7-2.8h-.4zm5.7-2.7-.1.5v-.2zm7.5 20h.1z"/><path fill="#615941" fill-opacity="0" d="M39.1 86.6h-2.6l-2.5-2 2.6.4 1.9-2zM28.4 61.7h.2l-.7.8zM26 65.6l.8-1.2-.1-.1.2-.2v-.4l.1-.1v.1l-.1.3v-.2.4z"/><path fill="#e6c577" fill-opacity="0" d="m38.6 86.7-1.8.2-.2-.2z"/><path fill="#2f2926" fill-opacity="0" d="m63.2.5.1-.5.2.2z"/><path fill="#e8e4ca" fill-opacity="0" d="M81.6 26.5v.4l-.2.1v-.5z"/><path fill="#2b251e" fill-opacity="0" d="M32.7 46v-.8l2 .7z"/><path fill="#bb9962" fill-opacity="0" d="M49 59.6v.2l-.1.2zm7.5 19.8.1.1z"/><path fill="none" stroke="#000" stroke-linecap="round" stroke-linejoin="round" stroke-opacity="0" stroke-width="__RESOLUTION__" d="m92.6 40.2 15.3-1.7q2.8-.3 5-2.1 2.4-1.5 4-4l1-2.3q.8-1 2 0 1.5 2.2 2 4.7l.2 1.4q.3 2.8-.3 5.6l-.2.9m0 0q-2.4 5.1-7.5 7.4l-19.5 6.2m-4.5 20.5-4.7 2-4 1.6-1.1.3-5.3 1.8-2 .7-5.2-1.7q-7.1 1.9-11.6 2.1l-8.8 1.1-3.6 1.3-4.7.5-.6.1-1.7.2-.3-.2h0l-2.5-2 2.6.4 1.9-2-13.7-12v.1l-4.1-.9v-.3l-5.4-8.7h-1.5Q3.6 59.9.8 51m-.4-1-.2-1-.2-1.5q-.2-2.7 1-5.4 1-1.3 2.3-.4l1.8 2.2q2.6 2 5.9 3 3.1 1.3 6.5 1l12.6-1.6q.9-3.2 3-6.7l.1-.1m3.6-12.7 3 4.3h.2l8-12.4 4.1-4.5-.2 5.2h0l2.8-2.4m4.1-7.2 3.8-8m17.8 13.6 1.2 11v.6l6.8 1.4.9-.1m-59.2 18 .8-.1m-2.4 15.5h.1l14.3.4m-14.4-.4-10.9-.4h-2.2" vector-effect="non-scaling-stroke"/><path fill="none" stroke="#000" stroke-linecap="round" stroke-linejoin="round" stroke-opacity="0" stroke-width="__RESOLUTION__" d="m82.4 75-.3.3 7-1 11-1.7M27 64.1l-.9 1.4-1.3-.6-7.1-3.7" vector-effect="non-scaling-stroke"/><path fill="none" stroke="#756646" stroke-linecap="round" stroke-linejoin="round" stroke-opacity="0" stroke-width="__RESOLUTION__" d="m.9 51-.3-.6m42.3 11.8h.4" vector-effect="non-scaling-stroke"/></g><g id="aw"><path fill="#366d61" fill-opacity=".1" d="m49.5 27.2 1.4 4.4-1.2-1.9.3 3-.3 5.3q0 .6-1.6 2.5l-1.7 2q-4.6 4.1-23.2 6.7l-.7.1-12.2 1.2-1.9-.1q-1.8-.3-2.7-.8l-1.1-1-1.2-1.1-.8-1.7h1l-1-.2L1 42.2q-2-6.6.2-19.3L4.9 28q11.6.3 22.6-3.1l17.3-2.7zM36.8 8.5 20.6 12q-9 2.7-15.8-1.9Q8 3.8 13.2 1.6l1.3-.5.2-.1.5-.1.3-.2h.2q10-3.1 21.1 7.8"/><path fill="#8dc7b5" fill-opacity=".1" d="m49.5 27.2-4.7-5L27.5 25q-11 3.4-22.7 3.1l-3.7-5.2.3-1.4q1.2-6.7 3.4-11.3 6.7 4.7 15.8 2l16.2-3.7 1.3 1.7q7.8 8 11.3 17"/><path fill="#413a2c" fill-opacity=".1" d="m1 42.2 1.6 3.4-.8-1.2z"/><path fill="none" stroke="#000" stroke-linecap="round" stroke-linejoin="round" stroke-opacity="0" stroke-width="__RESOLUTION__" d="m2.6 45.6 1 .1h-1l.7 1.8 1.2 1.2 1.2.8q.9.5 2.7.8l1.9.2 12.1-1.2.8-.1q18.6-2.6 23.2-6.8l1.7-1.9q1.6-1.9 1.6-2.5l.3-5.3-.3-3 1.2 1.8-1.4-4.4M1.1 22.8Q-1 35.5 1 42.2l1.6 3.4" vector-effect="non-scaling-stroke"/></g><g id="av" fill-opacity=".1"><path fill="#366d61" d="M7.7 1.9 7 1.8q6.9-3.6 14.4 0l-.1.3.5 8.3-5.3 6.1-6.9 3.6q-9-2.1-9-7.4v-.3l7-1.3q.3 0 0-3.8t0-5.4"/><path fill="#8dc7b5" d="M7.7 1.9q-.2 1.6 0 5.4t0 3.9l-7 1.2-.1.3H.3h.2q-1.3-3.2 1-8.1l.9-1z"/></g><g id="at"><path fill="#fcfff1" fill-opacity=".1" d="m92.6 40.2 15.3-1.7q2.8-.3 5-2.1 2.4-1.5 4-4l1-2.3q.8-1 2 0 1.5 2.2 2 4.7l.2 1.4q.3 2.8-.3 5.6-2-.4-6.1 1.5l-6.5 2q-6.9 2-14.5.2zM.5 50l-.2-1-.3-1.5q-.2-2.7 1-5.4.9-1.3 2.3-.4L5 43.8Q7.7 46 11 47q3.1 1.3 6.5 1l12.6-1.6.8-.1 4.7 3.2-1.7.7q4.5 1.5-1.2 3l-2 .4h-.3l-12.3 1.6-8.2-.5Q3.8 55 .4 50"/><path fill="#e3f3ed" fill-opacity=".1" d="m121.9 41.9-.3.8q-2.4 5.2-7.5 7.4l-19.5 6.3q1.5-4 2.7-4.7l-2.5-6.2q7.6 1.9 14.4-.1l6.5-2.1q4.1-1.9 6.2-1.4M15.4 61.3l-1.6-.1Q3.6 59.9.8 51l-.2-.6-.1-.3q3.3 4.8 9.5 4.5l8.1.5 12.3-1.6h.3l2-.4q5.7-1.5 1.2-3l1.7-.7-4.7-3.2 1.8-.2h2l1.3-.2 2.2-.1 1.2 2.7 3.9-.4-1 1.2q-1.4 1.1-1.6 2l-1 1.1 2.2.7q2.6 2.1 1.9 4.5l-6.8-.4 5.9 5-14.3-.4h-.1l-10.9-.4z"/><path fill="#c6e8db" fill-opacity=".1" d="m94.7 56.4-.5 1.3q0 3-2.2 7.3-.2-1.5-6.5 3l-3.9-.8h-4.1l-.8-8-3.2-3.2 1.6-15.2-5.2-5.6-4.4-20.8-15.2 14.4-4-4.4L39.5 38l-2.4-1.2-1.1 9-1.3.2-2-.8v.9l-1.8.1-.8.1q.8-3.2 3-6.7l.1-.1 1-1.4 1.6-2.3.5.7.6-9.6 2.9 4.3h.2l8-12.4 4.1-4.6-.3 5.3h.1l2.7-2.5 3.8-6.1.4-1 3.7-8.1.6-1.4.4-.2 7.3 11.3 1.4 6.8 8.2-3v.1l1.2 11-.2.1v.5h.2l6.8 1.4.9-.1h.7l2.4 11.4.2.4 2.2 5.4 2.5 6.2q-1.2.6-2.6 4.6"/><path fill="#366d61" fill-opacity=".1" d="m92 65-3.5 5.9-.1.2-.1.1L83 74q-.3.7-.7 1l-.3.3 7-1 11-1.7-10 4.3-4.6 2-4.1 1.5-1.1.4-5.3 1.7-2 .7-5.2-1.7q-7.1 1.9-11.6 2.1l-8.8 1.1-3.6 1.3-4.7.5-.6-3.5-13.7-12v.1l-4.1-.9v-.3l-5.4-8.7 2.3.1 7.1 3.6 1.3.7.9-1.4-.1.4.1-.5 1-1.7.7-.7 14.2.4-5.9-5 6.8.4q.8-2.4-1.8-4.5l-2.2-.7 1-1.1q.1-.9 1.6-2l1-1.2-3.9.4-1.3-2.7-2.1.1 1-9 2.5 1.2 6.8-13.6 4 4.4 15.2-14.4 4.4 20.8 5.2 5.6L73.5 56l3.2 3.2.8 8h4.1l3.9.8q6.3-4.5 6.5-3m-48.7-2.8h-.4zm5.7-2.7-.1.5v-.2zm7.5 20h.1z"/><path fill="#615941" fill-opacity=".1" d="M39.1 86.6h-2.6l-2.5-2 2.6.4 1.9-2zM28.4 61.7h.2l-.7.8zM26 65.6l.8-1.2-.1-.1.2-.2v-.4l.1-.1v.1l-.1.3v-.2.4z"/><path fill="#e6c577" fill-opacity=".1" d="m38.6 86.7-1.8.2-.2-.2z"/><path fill="#2f2926" fill-opacity=".1" d="m63.2.5.1-.5.2.2z"/><path fill="#e8e4ca" fill-opacity=".1" d="M81.6 26.5v.4l-.2.1v-.5z"/><path fill="#2b251e" fill-opacity=".1" d="M32.7 46v-.8l2 .7z"/><path fill="#bb9962" fill-opacity=".1" d="M49 59.6v.2l-.1.2zm7.5 19.8.1.1z"/><path fill="none" stroke="#000" stroke-linecap="round" stroke-linejoin="round" stroke-opacity="0" stroke-width="__RESOLUTION__" d="m92.6 40.2 15.3-1.7q2.8-.3 5-2.1 2.4-1.5 4-4l1-2.3q.8-1 2 0 1.5 2.2 2 4.7l.2 1.4q.3 2.8-.3 5.6l-.2.9m0 0q-2.4 5.1-7.5 7.4l-19.5 6.2m-4.5 20.5-4.7 2-4 1.6-1.1.3-5.3 1.8-2 .7-5.2-1.7q-7.1 1.9-11.6 2.1l-8.8 1.1-3.6 1.3-4.7.5-.6.1-1.7.2-.3-.2h0l-2.5-2 2.6.4 1.9-2-13.7-12v.1l-4.1-.9v-.3l-5.4-8.7h-1.5Q3.6 59.9.8 51m-.4-1-.2-1-.2-1.5q-.2-2.7 1-5.4 1-1.3 2.3-.4l1.8 2.2q2.6 2 5.9 3 3.1 1.3 6.5 1l12.6-1.6q.9-3.2 3-6.7l.1-.1m3.6-12.7 3 4.3h.2l8-12.4 4.1-4.5-.2 5.2h0l2.8-2.4m4.1-7.2 3.8-8m17.8 13.6 1.2 11v.6l6.8 1.4.9-.1m-59.2 18 .8-.1m-2.4 15.5h.1l14.3.4m-14.4-.4-10.9-.4h-2.2" vector-effect="non-scaling-stroke"/><path fill="none" stroke="#000" stroke-linecap="round" stroke-linejoin="round" stroke-opacity="0" stroke-width="__RESOLUTION__" d="m82.4 75-.3.3 7-1 11-1.7M27 64.1l-.9 1.4-1.3-.6-7.1-3.7" vector-effect="non-scaling-stroke"/><path fill="none" stroke="#756646" stroke-linecap="round" stroke-linejoin="round" stroke-opacity=".1" stroke-width="__RESOLUTION__" d="m.9 51-.3-.6m42.3 11.8h.4" vector-effect="non-scaling-stroke"/></g><g id="ar"><path fill="#366d61" fill-opacity=".2" d="m49.5 27.2 1.4 4.4-1.2-1.9.3 3-.3 5.3q0 .6-1.6 2.5l-1.7 2q-4.6 4.1-23.2 6.7l-.7.1-12.2 1.2-1.9-.1q-1.8-.3-2.7-.8l-1.1-1-1.2-1.1-.8-1.7h1l-1-.2L1 42.2q-2-6.6.2-19.3L4.9 28q11.6.3 22.6-3.1l17.3-2.7zM36.8 8.5 20.6 12q-9 2.7-15.8-1.9Q8 3.8 13.2 1.6l1.3-.5.2-.1.5-.1.3-.2h.2q10-3.1 21.1 7.8"/><path fill="#8dc7b5" fill-opacity=".2" d="m49.5 27.2-4.7-5L27.5 25q-11 3.4-22.7 3.1l-3.7-5.2.3-1.4q1.2-6.7 3.4-11.3 6.7 4.7 15.8 2l16.2-3.7 1.3 1.7q7.8 8 11.3 17"/><path fill="#413a2c" fill-opacity=".2" d="m1 42.2 1.6 3.4-.8-1.2z"/><path fill="none" stroke="#000" stroke-linecap="round" stroke-linejoin="round" stroke-opacity=".1" stroke-width="__RESOLUTION__" d="m2.6 45.6 1 .1h-1l.7 1.8 1.2 1.2 1.2.8q.9.5 2.7.8l1.9.2 12.1-1.2.8-.1q18.6-2.6 23.2-6.8l1.7-1.9q1.6-1.9 1.6-2.5l.3-5.3-.3-3 1.2 1.8-1.4-4.4M1.1 22.8Q-1 35.5 1 42.2l1.6 3.4" vector-effect="non-scaling-stroke"/></g><g id="aq" fill-opacity=".2"><path fill="#366d61" d="M7.7 1.9 7 1.8q6.9-3.6 14.4 0l-.1.3.5 8.3-5.3 6.1-6.9 3.6q-9-2.1-9-7.4v-.3l7-1.3q.3 0 0-3.8t0-5.4"/><path fill="#8dc7b5" d="M7.7 1.9q-.2 1.6 0 5.4t0 3.9l-7 1.2-.1.3H.3h.2q-1.3-3.2 1-8.1l.9-1z"/></g><g id="ao"><path fill="#fcfff1" fill-opacity=".2" d="m92.6 40.2 15.3-1.7q2.8-.3 5-2.1 2.4-1.5 4-4l1-2.3q.8-1 2 0 1.5 2.2 2 4.7l.2 1.4q.3 2.8-.3 5.6-2-.4-6.1 1.5l-6.5 2q-6.9 2-14.5.2zM.5 50l-.2-1-.3-1.5q-.2-2.7 1-5.4.9-1.3 2.3-.4L5 43.8Q7.7 46 11 47q3.1 1.3 6.5 1l12.6-1.6.8-.1 4.7 3.2-1.7.7q4.5 1.5-1.2 3l-2 .4h-.3l-12.3 1.6-8.2-.5Q3.8 55 .4 50"/><path fill="#e3f3ed" fill-opacity=".2" d="m121.9 41.9-.3.8q-2.4 5.2-7.5 7.4l-19.5 6.3q1.5-4 2.7-4.7l-2.5-6.2q7.6 1.9 14.4-.1l6.5-2.1q4.1-1.9 6.2-1.4M15.4 61.3l-1.6-.1Q3.6 59.9.8 51l-.2-.6-.1-.3q3.3 4.8 9.5 4.5l8.1.5 12.3-1.6h.3l2-.4q5.7-1.5 1.2-3l1.7-.7-4.7-3.2 1.8-.2h2l1.3-.2 2.2-.1 1.2 2.7 3.9-.4-1 1.2q-1.4 1.1-1.6 2l-1 1.1 2.2.7q2.6 2.1 1.9 4.5l-6.8-.4 5.9 5-14.3-.4h-.1l-10.9-.4z"/><path fill="#c6e8db" fill-opacity=".2" d="m94.7 56.4-.5 1.3q0 3-2.2 7.3-.2-1.5-6.5 3l-3.9-.8h-4.1l-.8-8-3.2-3.2 1.6-15.2-5.2-5.6-4.4-20.8-15.2 14.4-4-4.4L39.5 38l-2.4-1.2-1.1 9-1.3.2-2-.8v.9l-1.8.1-.8.1q.8-3.2 3-6.7l.1-.1 1-1.4 1.6-2.3.5.7.6-9.6 2.9 4.3h.2l8-12.4 4.1-4.6-.3 5.3h.1l2.7-2.5 3.8-6.1.4-1 3.7-8.1.6-1.4.4-.2 7.3 11.3 1.4 6.8 8.2-3v.1l1.2 11-.2.1v.5h.2l6.8 1.4.9-.1h.7l2.4 11.4.2.4 2.2 5.4 2.5 6.2q-1.2.6-2.6 4.6"/><path fill="#366d61" fill-opacity=".2" d="m92 65-3.5 5.9-.1.2-.1.1L83 74q-.3.7-.7 1l-.3.3 7-1 11-1.7-10 4.3-4.6 2-4.1 1.5-1.1.4-5.3 1.7-2 .7-5.2-1.7q-7.1 1.9-11.6 2.1l-8.8 1.1-3.6 1.3-4.7.5-.6-3.5-13.7-12v.1l-4.1-.9v-.3l-5.4-8.7 2.3.1 7.1 3.6 1.3.7.9-1.4-.1.4.1-.5 1-1.7.7-.7 14.2.4-5.9-5 6.8.4q.8-2.4-1.8-4.5l-2.2-.7 1-1.1q.1-.9 1.6-2l1-1.2-3.9.4-1.3-2.7-2.1.1 1-9 2.5 1.2 6.8-13.6 4 4.4 15.2-14.4 4.4 20.8 5.2 5.6L73.5 56l3.2 3.2.8 8h4.1l3.9.8q6.3-4.5 6.5-3m-48.7-2.8h-.4zm5.7-2.7-.1.5v-.2zm7.5 20h.1z"/><path fill="#615941" fill-opacity=".2" d="M39.1 86.6h-2.6l-2.5-2 2.6.4 1.9-2zM28.4 61.7h.2l-.7.8zM26 65.6l.8-1.2-.1-.1.2-.2v-.4l.1-.1v.1l-.1.3v-.2.4z"/><path fill="#e6c577" fill-opacity=".2" d="m38.6 86.7-1.8.2-.2-.2z"/><path fill="#2f2926" fill-opacity=".2" d="m63.2.5.1-.5.2.2z"/><path fill="#e8e4ca" fill-opacity=".2" d="M81.6 26.5v.4l-.2.1v-.5z"/><path fill="#2b251e" fill-opacity=".2" d="M32.7 46v-.8l2 .7z"/><path fill="#bb9962" fill-opacity=".2" d="M49 59.6v.2l-.1.2zm7.5 19.8.1.1z"/><path fill="none" stroke="#000" stroke-linecap="round" stroke-linejoin="round" stroke-opacity=".1" stroke-width="__RESOLUTION__" d="m92.6 40.2 15.3-1.7q2.8-.3 5-2.1 2.4-1.5 4-4l1-2.3q.8-1 2 0 1.5 2.2 2 4.7l.2 1.4q.3 2.8-.3 5.6l-.2.9m0 0q-2.4 5.1-7.5 7.4l-19.5 6.2m-4.5 20.5-4.7 2-4 1.6-1.1.3-5.3 1.8-2 .7-5.2-1.7q-7.1 1.9-11.6 2.1l-8.8 1.1-3.6 1.3-4.7.5-.6.1-1.7.2-.3-.2h0l-2.5-2 2.6.4 1.9-2-13.7-12v.1l-4.1-.9v-.3l-5.4-8.7h-1.5Q3.6 59.9.8 51m-.4-1-.2-1-.2-1.5q-.2-2.7 1-5.4 1-1.3 2.3-.4l1.8 2.2q2.6 2 5.9 3 3.1 1.3 6.5 1l12.6-1.6q.9-3.2 3-6.7l.1-.1m3.6-12.7 3 4.3h.2l8-12.4 4.1-4.5-.2 5.2h0l2.8-2.4m4.1-7.2 3.8-8m17.8 13.6 1.2 11v.6l6.8 1.4.9-.1m-59.2 18 .8-.1m-2.4 15.5h.1l14.3.4m-14.4-.4-10.9-.4h-2.2" vector-effect="non-scaling-stroke"/><path fill="none" stroke="#000" stroke-linecap="round" stroke-linejoin="round" stroke-opacity=".1" stroke-width="__RESOLUTION__" d="m82.4 75-.3.3 7-1 11-1.7M27 64.1l-.9 1.4-1.3-.6-7.1-3.7" vector-effect="non-scaling-stroke"/><path fill="none" stroke="#756646" stroke-linecap="round" stroke-linejoin="round" stroke-opacity=".2" stroke-width="__RESOLUTION__" d="m.9 51-.3-.6m42.3 11.8h.4" vector-effect="non-scaling-stroke"/></g><g id="am"><path fill="#366d61" fill-opacity=".3" d="m49.5 27.2 1.4 4.4-1.2-1.9.3 3-.3 5.3q0 .6-1.6 2.5l-1.7 2q-4.6 4.1-23.2 6.7l-.7.1-12.2 1.2-1.9-.1q-1.8-.3-2.7-.8l-1.1-1-1.2-1.1-.8-1.7h1l-1-.2L1 42.2q-2-6.6.2-19.3L4.9 28q11.6.3 22.6-3.1l17.3-2.7zM36.8 8.5 20.6 12q-9 2.7-15.8-1.9Q8 3.8 13.2 1.6l1.3-.5.2-.1.5-.1.3-.2h.2q10-3.1 21.1 7.8"/><path fill="#8dc7b5" fill-opacity=".3" d="m49.5 27.2-4.7-5L27.5 25q-11 3.4-22.7 3.1l-3.7-5.2.3-1.4q1.2-6.7 3.4-11.3 6.7 4.7 15.8 2l16.2-3.7 1.3 1.7q7.8 8 11.3 17"/><path fill="#413a2c" fill-opacity=".3" d="m1 42.2 1.6 3.4-.8-1.2z"/><path fill="none" stroke="#000" stroke-linecap="round" stroke-linejoin="round" stroke-opacity=".1" stroke-width="__RESOLUTION__" d="m2.6 45.6 1 .1h-1l.7 1.8 1.2 1.2 1.2.8q.9.5 2.7.8l1.9.2 12.1-1.2.8-.1q18.6-2.6 23.2-6.8l1.7-1.9q1.6-1.9 1.6-2.5l.3-5.3-.3-3 1.2 1.8-1.4-4.4M1.1 22.8Q-1 35.5 1 42.2l1.6 3.4" vector-effect="non-scaling-stroke"/></g><g id="al" fill-opacity=".3"><path fill="#366d61" d="M7.7 1.9 7 1.8q6.9-3.6 14.4 0l-.1.3.5 8.3-5.3 6.1-6.9 3.6q-9-2.1-9-7.4v-.3l7-1.3q.3 0 0-3.8t0-5.4"/><path fill="#8dc7b5" d="M7.7 1.9q-.2 1.6 0 5.4t0 3.9l-7 1.2-.1.3H.3h.2q-1.3-3.2 1-8.1l.9-1z"/></g><g id="aj"><path fill="#fcfff1" fill-opacity=".3" d="m92.6 40.2 15.3-1.7q2.8-.3 5-2.1 2.4-1.5 4-4l1-2.3q.8-1 2 0 1.5 2.2 2 4.7l.2 1.4q.3 2.8-.3 5.6-2-.4-6.1 1.5l-6.5 2q-6.9 2-14.5.2zM.5 50l-.2-1-.3-1.5q-.2-2.7 1-5.4.9-1.3 2.3-.4L5 43.8Q7.7 46 11 47q3.1 1.3 6.5 1l12.6-1.6.8-.1 4.7 3.2-1.7.7q4.5 1.5-1.2 3l-2 .4h-.3l-12.3 1.6-8.2-.5Q3.8 55 .4 50"/><path fill="#e3f3ed" fill-opacity=".3" d="m121.9 41.9-.3.8q-2.4 5.2-7.5 7.4l-19.5 6.3q1.5-4 2.7-4.7l-2.5-6.2q7.6 1.9 14.4-.1l6.5-2.1q4.1-1.9 6.2-1.4M15.4 61.3l-1.6-.1Q3.6 59.9.8 51l-.2-.6-.1-.3q3.3 4.8 9.5 4.5l8.1.5 12.3-1.6h.3l2-.4q5.7-1.5 1.2-3l1.7-.7-4.7-3.2 1.8-.2h2l1.3-.2 2.2-.1 1.2 2.7 3.9-.4-1 1.2q-1.4 1.1-1.6 2l-1 1.1 2.2.7q2.6 2.1 1.9 4.5l-6.8-.4 5.9 5-14.3-.4h-.1l-10.9-.4z"/><path fill="#c6e8db" fill-opacity=".3" d="m94.7 56.4-.5 1.3q0 3-2.2 7.3-.2-1.5-6.5 3l-3.9-.8h-4.1l-.8-8-3.2-3.2 1.6-15.2-5.2-5.6-4.4-20.8-15.2 14.4-4-4.4L39.5 38l-2.4-1.2-1.1 9-1.3.2-2-.8v.9l-1.8.1-.8.1q.8-3.2 3-6.7l.1-.1 1-1.4 1.6-2.3.5.7.6-9.6 2.9 4.3h.2l8-12.4 4.1-4.6-.3 5.3h.1l2.7-2.5 3.8-6.1.4-1 3.7-8.1.6-1.4.4-.2 7.3 11.3 1.4 6.8 8.2-3v.1l1.2 11-.2.1v.5h.2l6.8 1.4.9-.1h.7l2.4 11.4.2.4 2.2 5.4 2.5 6.2q-1.2.6-2.6 4.6"/><path fill="#366d61" fill-opacity=".3" d="m92 65-3.5 5.9-.1.2-.1.1L83 74q-.3.7-.7 1l-.3.3 7-1 11-1.7-10 4.3-4.6 2-4.1 1.5-1.1.4-5.3 1.7-2 .7-5.2-1.7q-7.1 1.9-11.6 2.1l-8.8 1.1-3.6 1.3-4.7.5-.6-3.5-13.7-12v.1l-4.1-.9v-.3l-5.4-8.7 2.3.1 7.1 3.6 1.3.7.9-1.4-.1.4.1-.5 1-1.7.7-.7 14.2.4-5.9-5 6.8.4q.8-2.4-1.8-4.5l-2.2-.7 1-1.1q.1-.9 1.6-2l1-1.2-3.9.4-1.3-2.7-2.1.1 1-9 2.5 1.2 6.8-13.6 4 4.4 15.2-14.4 4.4 20.8 5.2 5.6L73.5 56l3.2 3.2.8 8h4.1l3.9.8q6.3-4.5 6.5-3m-48.7-2.8h-.4zm5.7-2.7-.1.5v-.2zm7.5 20h.1z"/><path fill="#615941" fill-opacity=".3" d="M39.1 86.6h-2.6l-2.5-2 2.6.4 1.9-2zM28.4 61.7h.2l-.7.8zM26 65.6l.8-1.2-.1-.1.2-.2v-.4l.1-.1v.1l-.1.3v-.2.4z"/><path fill="#e6c577" fill-opacity=".3" d="m38.6 86.7-1.8.2-.2-.2z"/><path fill="#2f2926" fill-opacity=".3" d="m63.2.5.1-.5.2.2z"/><path fill="#e8e4ca" fill-opacity=".3" d="M81.6 26.5v.4l-.2.1v-.5z"/><path fill="#2b251e" fill-opacity=".3" d="M32.7 46v-.8l2 .7z"/><path fill="#bb9962" fill-opacity=".3" d="M49 59.6v.2l-.1.2zm7.5 19.8.1.1z"/><path fill="none" stroke="#000" stroke-linecap="round" stroke-linejoin="round" stroke-opacity=".1" stroke-width="__RESOLUTION__" d="m92.6 40.2 15.3-1.7q2.8-.3 5-2.1 2.4-1.5 4-4l1-2.3q.8-1 2 0 1.5 2.2 2 4.7l.2 1.4q.3 2.8-.3 5.6l-.2.9m0 0q-2.4 5.1-7.5 7.4l-19.5 6.2m-4.5 20.5-4.7 2-4 1.6-1.1.3-5.3 1.8-2 .7-5.2-1.7q-7.1 1.9-11.6 2.1l-8.8 1.1-3.6 1.3-4.7.5-.6.1-1.7.2-.3-.2h0l-2.5-2 2.6.4 1.9-2-13.7-12v.1l-4.1-.9v-.3l-5.4-8.7h-1.5Q3.6 59.9.8 51m-.4-1-.2-1-.2-1.5q-.2-2.7 1-5.4 1-1.3 2.3-.4l1.8 2.2q2.6 2 5.9 3 3.1 1.3 6.5 1l12.6-1.6q.9-3.2 3-6.7l.1-.1m3.6-12.7 3 4.3h.2l8-12.4 4.1-4.5-.2 5.2h0l2.8-2.4m4.1-7.2 3.8-8m17.8 13.6 1.2 11v.6l6.8 1.4.9-.1m-59.2 18 .8-.1m-2.4 15.5h.1l14.3.4m-14.4-.4-10.9-.4h-2.2" vector-effect="non-scaling-stroke"/><path fill="none" stroke="#000" stroke-linecap="round" stroke-linejoin="round" stroke-opacity=".1" stroke-width="__RESOLUTION__" d="m82.4 75-.3.3 7-1 11-1.7M27 64.1l-.9 1.4-1.3-.6-7.1-3.7" vector-effect="non-scaling-stroke"/><path fill="none" stroke="#756646" stroke-linecap="round" stroke-linejoin="round" stroke-opacity=".3" stroke-width="__RESOLUTION__" d="m.9 51-.3-.6m42.3 11.8h.4" vector-effect="non-scaling-stroke"/></g><g id="ah"><path fill="#366d61" fill-opacity=".4" d="m49.5 27.2 1.4 4.4-1.2-1.9.3 3-.3 5.3q0 .6-1.6 2.5l-1.7 2q-4.6 4.1-23.2 6.7l-.7.1-12.2 1.2-1.9-.1q-1.8-.3-2.7-.8l-1.1-1-1.2-1.1-.8-1.7h1l-1-.2L1 42.2q-2-6.6.2-19.3L4.9 28q11.6.3 22.6-3.1l17.3-2.7zM36.8 8.5 20.6 12q-9 2.7-15.8-1.9Q8 3.8 13.2 1.6l1.3-.5.2-.1.5-.1.3-.2h.2q10-3.1 21.1 7.8"/><path fill="#8dc7b5" fill-opacity=".4" d="m49.5 27.2-4.7-5L27.5 25q-11 3.4-22.7 3.1l-3.7-5.2.3-1.4q1.2-6.7 3.4-11.3 6.7 4.7 15.8 2l16.2-3.7 1.3 1.7q7.8 8 11.3 17"/><path fill="#413a2c" fill-opacity=".4" d="m1 42.2 1.6 3.4-.8-1.2z"/><path fill="none" stroke="#000" stroke-linecap="round" stroke-linejoin="round" stroke-opacity=".1" stroke-width="__RESOLUTION__" d="m2.6 45.6 1 .1h-1l.7 1.8 1.2 1.2 1.2.8q.9.5 2.7.8l1.9.2 12.1-1.2.8-.1q18.6-2.6 23.2-6.8l1.7-1.9q1.6-1.9 1.6-2.5l.3-5.3-.3-3 1.2 1.8-1.4-4.4M1.1 22.8Q-1 35.5 1 42.2l1.6 3.4" vector-effect="non-scaling-stroke"/></g><g id="ag" fill-opacity=".4"><path fill="#366d61" d="M7.7 1.9 7 1.8q6.9-3.6 14.4 0l-.1.3.5 8.3-5.3 6.1-6.9 3.6q-9-2.1-9-7.4v-.3l7-1.3q.3 0 0-3.8t0-5.4"/><path fill="#8dc7b5" d="M7.7 1.9q-.2 1.6 0 5.4t0 3.9l-7 1.2-.1.3H.3h.2q-1.3-3.2 1-8.1l.9-1z"/></g><g id="ae"><path fill="#fcfff1" fill-opacity=".4" d="m92.6 40.2 15.3-1.7q2.8-.3 5-2.1 2.4-1.5 4-4l1-2.3q.8-1 2 0 1.5 2.2 2 4.7l.2 1.4q.3 2.8-.3 5.6-2-.4-6.1 1.5l-6.5 2q-6.9 2-14.5.2zM.5 50l-.2-1-.3-1.5q-.2-2.7 1-5.4.9-1.3 2.3-.4L5 43.8Q7.7 46 11 47q3.1 1.3 6.5 1l12.6-1.6.8-.1 4.7 3.2-1.7.7q4.5 1.5-1.2 3l-2 .4h-.3l-12.3 1.6-8.2-.5Q3.8 55 .4 50"/><path fill="#e3f3ed" fill-opacity=".4" d="m121.9 41.9-.3.8q-2.4 5.2-7.5 7.4l-19.5 6.3q1.5-4 2.7-4.7l-2.5-6.2q7.6 1.9 14.4-.1l6.5-2.1q4.1-1.9 6.2-1.4M15.4 61.3l-1.6-.1Q3.6 59.9.8 51l-.2-.6-.1-.3q3.3 4.8 9.5 4.5l8.1.5 12.3-1.6h.3l2-.4q5.7-1.5 1.2-3l1.7-.7-4.7-3.2 1.8-.2h2l1.3-.2 2.2-.1 1.2 2.7 3.9-.4-1 1.2q-1.4 1.1-1.6 2l-1 1.1 2.2.7q2.6 2.1 1.9 4.5l-6.8-.4 5.9 5-14.3-.4h-.1l-10.9-.4z"/><path fill="#c6e8db" fill-opacity=".4" d="m94.7 56.4-.5 1.3q0 3-2.2 7.3-.2-1.5-6.5 3l-3.9-.8h-4.1l-.8-8-3.2-3.2 1.6-15.2-5.2-5.6-4.4-20.8-15.2 14.4-4-4.4L39.5 38l-2.4-1.2-1.1 9-1.3.2-2-.8v.9l-1.8.1-.8.1q.8-3.2 3-6.7l.1-.1 1-1.4 1.6-2.3.5.7.6-9.6 2.9 4.3h.2l8-12.4 4.1-4.6-.3 5.3h.1l2.7-2.5 3.8-6.1.4-1 3.7-8.1.6-1.4.4-.2 7.3 11.3 1.4 6.8 8.2-3v.1l1.2 11-.2.1v.5h.2l6.8 1.4.9-.1h.7l2.4 11.4.2.4 2.2 5.4 2.5 6.2q-1.2.6-2.6 4.6"/><path fill="#366d61" fill-opacity=".4" d="m92 65-3.5 5.9-.1.2-.1.1L83 74q-.3.7-.7 1l-.3.3 7-1 11-1.7-10 4.3-4.6 2-4.1 1.5-1.1.4-5.3 1.7-2 .7-5.2-1.7q-7.1 1.9-11.6 2.1l-8.8 1.1-3.6 1.3-4.7.5-.6-3.5-13.7-12v.1l-4.1-.9v-.3l-5.4-8.7 2.3.1 7.1 3.6 1.3.7.9-1.4-.1.4.1-.5 1-1.7.7-.7 14.2.4-5.9-5 6.8.4q.8-2.4-1.8-4.5l-2.2-.7 1-1.1q.1-.9 1.6-2l1-1.2-3.9.4-1.3-2.7-2.1.1 1-9 2.5 1.2 6.8-13.6 4 4.4 15.2-14.4 4.4 20.8 5.2 5.6L73.5 56l3.2 3.2.8 8h4.1l3.9.8q6.3-4.5 6.5-3m-48.7-2.8h-.4zm5.7-2.7-.1.5v-.2zm7.5 20h.1z"/><path fill="#615941" fill-opacity=".4" d="M39.1 86.6h-2.6l-2.5-2 2.6.4 1.9-2zM28.4 61.7h.2l-.7.8zM26 65.6l.8-1.2-.1-.1.2-.2v-.4l.1-.1v.1l-.1.3v-.2.4z"/><path fill="#e6c577" fill-opacity=".4" d="m38.6 86.7-1.8.2-.2-.2z"/><path fill="#2f2926" fill-opacity=".4" d="m63.2.5.1-.5.2.2z"/><path fill="#e8e4ca" fill-opacity=".4" d="M81.6 26.5v.4l-.2.1v-.5z"/><path fill="#2b251e" fill-opacity=".4" d="M32.7 46v-.8l2 .7z"/><path fill="#bb9962" fill-opacity=".4" d="M49 59.6v.2l-.1.2zm7.5 19.8.1.1z"/><path fill="none" stroke="#000" stroke-linecap="round" stroke-linejoin="round" stroke-opacity=".1" stroke-width="__RESOLUTION__" d="m92.6 40.2 15.3-1.7q2.8-.3 5-2.1 2.4-1.5 4-4l1-2.3q.8-1 2 0 1.5 2.2 2 4.7l.2 1.4q.3 2.8-.3 5.6l-.2.9m0 0q-2.4 5.1-7.5 7.4l-19.5 6.2m-4.5 20.5-4.7 2-4 1.6-1.1.3-5.3 1.8-2 .7-5.2-1.7q-7.1 1.9-11.6 2.1l-8.8 1.1-3.6 1.3-4.7.5-.6.1-1.7.2-.3-.2h0l-2.5-2 2.6.4 1.9-2-13.7-12v.1l-4.1-.9v-.3l-5.4-8.7h-1.5Q3.6 59.9.8 51m-.4-1-.2-1-.2-1.5q-.2-2.7 1-5.4 1-1.3 2.3-.4l1.8 2.2q2.6 2 5.9 3 3.1 1.3 6.5 1l12.6-1.6q.9-3.2 3-6.7l.1-.1m3.6-12.7 3 4.3h.2l8-12.4 4.1-4.5-.2 5.2h0l2.8-2.4m4.1-7.2 3.8-8m17.8 13.6 1.2 11v.6l6.8 1.4.9-.1m-59.2 18 .8-.1m-2.4 15.5h.1l14.3.4m-14.4-.4-10.9-.4h-2.2" vector-effect="non-scaling-stroke"/><path fill="none" stroke="#000" stroke-linecap="round" stroke-linejoin="round" stroke-opacity=".1" stroke-width="__RESOLUTION__" d="m82.4 75-.3.3 7-1 11-1.7M27 64.1l-.9 1.4-1.3-.6-7.1-3.7" vector-effect="non-scaling-stroke"/><path fill="none" stroke="#756646" stroke-linecap="round" stroke-linejoin="round" stroke-opacity=".4" stroke-width="__RESOLUTION__" d="m.9 51-.3-.6m42.3 11.8h.4" vector-effect="non-scaling-stroke"/></g><g id="ac"><path fill="#366d61" fill-opacity=".6" d="m49.5 27.2 1.4 4.4-1.2-1.9.3 3-.3 5.3q0 .6-1.6 2.5l-1.7 2q-4.6 4.1-23.2 6.7l-.7.1-12.2 1.2-1.9-.1q-1.8-.3-2.7-.8l-1.1-1-1.2-1.1-.8-1.7h1l-1-.2L1 42.2q-2-6.6.2-19.3L4.9 28q11.6.3 22.6-3.1l17.3-2.7zM36.8 8.5 20.6 12q-9 2.7-15.8-1.9Q8 3.8 13.2 1.6l1.3-.5.2-.1.5-.1.3-.2h.2q10-3.1 21.1 7.8"/><path fill="#8dc7b5" fill-opacity=".6" d="m49.5 27.2-4.7-5L27.5 25q-11 3.4-22.7 3.1l-3.7-5.2.3-1.4q1.2-6.7 3.4-11.3 6.7 4.7 15.8 2l16.2-3.7 1.3 1.7q7.8 8 11.3 17"/><path fill="#413a2c" fill-opacity=".6" d="m1 42.2 1.6 3.4-.8-1.2z"/><path fill="none" stroke="#000" stroke-linecap="round" stroke-linejoin="round" stroke-opacity=".2" stroke-width="__RESOLUTION__" d="m2.6 45.6 1 .1h-1l.7 1.8 1.2 1.2 1.2.8q.9.5 2.7.8l1.9.2 12.1-1.2.8-.1q18.6-2.6 23.2-6.8l1.7-1.9q1.6-1.9 1.6-2.5l.3-5.3-.3-3 1.2 1.8-1.4-4.4M1.1 22.8Q-1 35.5 1 42.2l1.6 3.4" vector-effect="non-scaling-stroke"/></g><g id="ab" fill-opacity=".6"><path fill="#366d61" d="M7.7 1.9 7 1.8q6.9-3.6 14.4 0l-.1.3.5 8.3-5.3 6.1-6.9 3.6q-9-2.1-9-7.4v-.3l7-1.3q.3 0 0-3.8t0-5.4"/><path fill="#8dc7b5" d="M7.7 1.9q-.2 1.6 0 5.4t0 3.9l-7 1.2-.1.3H.3h.2q-1.3-3.2 1-8.1l.9-1z"/></g><g id="Z"><path fill="#fcfff1" fill-opacity=".6" d="m92.6 40.2 15.3-1.7q2.8-.3 5-2.1 2.4-1.5 4-4l1-2.3q.8-1 2 0 1.5 2.2 2 4.7l.2 1.4q.3 2.8-.3 5.6-2-.4-6.1 1.5l-6.5 2q-6.9 2-14.5.2zM.5 50l-.2-1-.3-1.5q-.2-2.7 1-5.4.9-1.3 2.3-.4L5 43.8Q7.7 46 11 47q3.1 1.3 6.5 1l12.6-1.6.8-.1 4.7 3.2-1.7.7q4.5 1.5-1.2 3l-2 .4h-.3l-12.3 1.6-8.2-.5Q3.8 55 .4 50"/><path fill="#e3f3ed" fill-opacity=".6" d="m121.9 41.9-.3.8q-2.4 5.2-7.5 7.4l-19.5 6.3q1.5-4 2.7-4.7l-2.5-6.2q7.6 1.9 14.4-.1l6.5-2.1q4.1-1.9 6.2-1.4M15.4 61.3l-1.6-.1Q3.6 59.9.8 51l-.2-.6-.1-.3q3.3 4.8 9.5 4.5l8.1.5 12.3-1.6h.3l2-.4q5.7-1.5 1.2-3l1.7-.7-4.7-3.2 1.8-.2h2l1.3-.2 2.2-.1 1.2 2.7 3.9-.4-1 1.2q-1.4 1.1-1.6 2l-1 1.1 2.2.7q2.6 2.1 1.9 4.5l-6.8-.4 5.9 5-14.3-.4h-.1l-10.9-.4z"/><path fill="#c6e8db" fill-opacity=".6" d="m94.7 56.4-.5 1.3q0 3-2.2 7.3-.2-1.5-6.5 3l-3.9-.8h-4.1l-.8-8-3.2-3.2 1.6-15.2-5.2-5.6-4.4-20.8-15.2 14.4-4-4.4L39.5 38l-2.4-1.2-1.1 9-1.3.2-2-.8v.9l-1.8.1-.8.1q.8-3.2 3-6.7l.1-.1 1-1.4 1.6-2.3.5.7.6-9.6 2.9 4.3h.2l8-12.4 4.1-4.6-.3 5.3h.1l2.7-2.5 3.8-6.1.4-1 3.7-8.1.6-1.4.4-.2 7.3 11.3 1.4 6.8 8.2-3v.1l1.2 11-.2.1v.5h.2l6.8 1.4.9-.1h.7l2.4 11.4.2.4 2.2 5.4 2.5 6.2q-1.2.6-2.6 4.6"/><path fill="#366d61" fill-opacity=".6" d="m92 65-3.5 5.9-.1.2-.1.1L83 74q-.3.7-.7 1l-.3.3 7-1 11-1.7-10 4.3-4.6 2-4.1 1.5-1.1.4-5.3 1.7-2 .7-5.2-1.7q-7.1 1.9-11.6 2.1l-8.8 1.1-3.6 1.3-4.7.5-.6-3.5-13.7-12v.1l-4.1-.9v-.3l-5.4-8.7 2.3.1 7.1 3.6 1.3.7.9-1.4-.1.4.1-.5 1-1.7.7-.7 14.2.4-5.9-5 6.8.4q.8-2.4-1.8-4.5l-2.2-.7 1-1.1q.1-.9 1.6-2l1-1.2-3.9.4-1.3-2.7-2.1.1 1-9 2.5 1.2 6.8-13.6 4 4.4 15.2-14.4 4.4 20.8 5.2 5.6L73.5 56l3.2 3.2.8 8h4.1l3.9.8q6.3-4.5 6.5-3m-48.7-2.8h-.4zm5.7-2.7-.1.5v-.2zm7.5 20h.1z"/><path fill="#615941" fill-opacity=".6" d="M39.1 86.6h-2.6l-2.5-2 2.6.4 1.9-2zM28.4 61.7h.2l-.7.8zM26 65.6l.8-1.2-.1-.1.2-.2v-.4l.1-.1v.1l-.1.3v-.2.4z"/><path fill="#e6c577" fill-opacity=".6" d="m38.6 86.7-1.8.2-.2-.2z"/><path fill="#2f2926" fill-opacity=".6" d="m63.2.5.1-.5.2.2z"/><path fill="#e8e4ca" fill-opacity=".6" d="M81.6 26.5v.4l-.2.1v-.5z"/><path fill="#2b251e" fill-opacity=".6" d="M32.7 46v-.8l2 .7z"/><path fill="#bb9962" fill-opacity=".6" d="M49 59.6v.2l-.1.2zm7.5 19.8.1.1z"/><path fill="none" stroke="#000" stroke-linecap="round" stroke-linejoin="round" stroke-opacity=".2" stroke-width="__RESOLUTION__" d="m92.6 40.2 15.3-1.7q2.8-.3 5-2.1 2.4-1.5 4-4l1-2.3q.8-1 2 0 1.5 2.2 2 4.7l.2 1.4q.3 2.8-.3 5.6l-.2.9m0 0q-2.4 5.1-7.5 7.4l-19.5 6.2m-4.5 20.5-4.7 2-4 1.6-1.1.3-5.3 1.8-2 .7-5.2-1.7q-7.1 1.9-11.6 2.1l-8.8 1.1-3.6 1.3-4.7.5-.6.1-1.7.2-.3-.2h0l-2.5-2 2.6.4 1.9-2-13.7-12v.1l-4.1-.9v-.3l-5.4-8.7h-1.5Q3.6 59.9.8 51m-.4-1-.2-1-.2-1.5q-.2-2.7 1-5.4 1-1.3 2.3-.4l1.8 2.2q2.6 2 5.9 3 3.1 1.3 6.5 1l12.6-1.6q.9-3.2 3-6.7l.1-.1m3.6-12.7 3 4.3h.2l8-12.4 4.1-4.5-.2 5.2h0l2.8-2.4m4.1-7.2 3.8-8m17.8 13.6 1.2 11v.6l6.8 1.4.9-.1m-59.2 18 .8-.1m-2.4 15.5h.1l14.3.4m-14.4-.4-10.9-.4h-2.2" vector-effect="non-scaling-stroke"/><path fill="none" stroke="#000" stroke-linecap="round" stroke-linejoin="round" stroke-opacity=".2" stroke-width="__RESOLUTION__" d="m82.4 75-.3.3 7-1 11-1.7M27 64.1l-.9 1.4-1.3-.6-7.1-3.7" vector-effect="non-scaling-stroke"/><path fill="none" stroke="#756646" stroke-linecap="round" stroke-linejoin="round" stroke-opacity=".6" stroke-width="__RESOLUTION__" d="m.9 51-.3-.6m42.3 11.8h.4" vector-effect="non-scaling-stroke"/></g><g id="X"><path fill="#366d61" fill-opacity=".7" d="m49.5 27.2 1.4 4.4-1.2-1.9.3 3-.3 5.3q0 .6-1.6 2.5l-1.7 2q-4.6 4.1-23.2 6.7l-.7.1-12.2 1.2-1.9-.1q-1.8-.3-2.7-.8l-1.1-1-1.2-1.1-.8-1.7h1l-1-.2L1 42.2q-2-6.6.2-19.3L4.9 28q11.6.3 22.6-3.1l17.3-2.7zM36.8 8.5 20.6 12q-9 2.7-15.8-1.9Q8 3.8 13.2 1.6l1.3-.5.2-.1.5-.1.3-.2h.2q10-3.1 21.1 7.8"/><path fill="#8dc7b5" fill-opacity=".7" d="m49.5 27.2-4.7-5L27.5 25q-11 3.4-22.7 3.1l-3.7-5.2.3-1.4q1.2-6.7 3.4-11.3 6.7 4.7 15.8 2l16.2-3.7 1.3 1.7q7.8 8 11.3 17"/><path fill="#413a2c" fill-opacity=".7" d="m1 42.2 1.6 3.4-.8-1.2z"/><path fill="none" stroke="#000" stroke-linecap="round" stroke-linejoin="round" stroke-opacity=".2" stroke-width="__RESOLUTION__" d="m2.6 45.6 1 .1h-1l.7 1.8 1.2 1.2 1.2.8q.9.5 2.7.8l1.9.2 12.1-1.2.8-.1q18.6-2.6 23.2-6.8l1.7-1.9q1.6-1.9 1.6-2.5l.3-5.3-.3-3 1.2 1.8-1.4-4.4M1.1 22.8Q-1 35.5 1 42.2l1.6 3.4" vector-effect="non-scaling-stroke"/></g><g id="W" fill-opacity=".7"><path fill="#366d61" d="M7.7 1.9 7 1.8q6.9-3.6 14.4 0l-.1.3.5 8.3-5.3 6.1-6.9 3.6q-9-2.1-9-7.4v-.3l7-1.3q.3 0 0-3.8t0-5.4"/><path fill="#8dc7b5" d="M7.7 1.9q-.2 1.6 0 5.4t0 3.9l-7 1.2-.1.3H.3h.2q-1.3-3.2 1-8.1l.9-1z"/></g><g id="U"><path fill="#fcfff1" fill-opacity=".7" d="m92.6 40.2 15.3-1.7q2.8-.3 5-2.1 2.4-1.5 4-4l1-2.3q.8-1 2 0 1.5 2.2 2 4.7l.2 1.4q.3 2.8-.3 5.6-2-.4-6.1 1.5l-6.5 2q-6.9 2-14.5.2zM.5 50l-.2-1-.3-1.5q-.2-2.7 1-5.4.9-1.3 2.3-.4L5 43.8Q7.7 46 11 47q3.1 1.3 6.5 1l12.6-1.6.8-.1 4.7 3.2-1.7.7q4.5 1.5-1.2 3l-2 .4h-.3l-12.3 1.6-8.2-.5Q3.8 55 .4 50"/><path fill="#e3f3ed" fill-opacity=".7" d="m121.9 41.9-.3.8q-2.4 5.2-7.5 7.4l-19.5 6.3q1.5-4 2.7-4.7l-2.5-6.2q7.6 1.9 14.4-.1l6.5-2.1q4.1-1.9 6.2-1.4M15.4 61.3l-1.6-.1Q3.6 59.9.8 51l-.2-.6-.1-.3q3.3 4.8 9.5 4.5l8.1.5 12.3-1.6h.3l2-.4q5.7-1.5 1.2-3l1.7-.7-4.7-3.2 1.8-.2h2l1.3-.2 2.2-.1 1.2 2.7 3.9-.4-1 1.2q-1.4 1.1-1.6 2l-1 1.1 2.2.7q2.6 2.1 1.9 4.5l-6.8-.4 5.9 5-14.3-.4h-.1l-10.9-.4z"/><path fill="#c6e8db" fill-opacity=".7" d="m94.7 56.4-.5 1.3q0 3-2.2 7.3-.2-1.5-6.5 3l-3.9-.8h-4.1l-.8-8-3.2-3.2 1.6-15.2-5.2-5.6-4.4-20.8-15.2 14.4-4-4.4L39.5 38l-2.4-1.2-1.1 9-1.3.2-2-.8v.9l-1.8.1-.8.1q.8-3.2 3-6.7l.1-.1 1-1.4 1.6-2.3.5.7.6-9.6 2.9 4.3h.2l8-12.4 4.1-4.6-.3 5.3h.1l2.7-2.5 3.8-6.1.4-1 3.7-8.1.6-1.4.4-.2 7.3 11.3 1.4 6.8 8.2-3v.1l1.2 11-.2.1v.5h.2l6.8 1.4.9-.1h.7l2.4 11.4.2.4 2.2 5.4 2.5 6.2q-1.2.6-2.6 4.6"/><path fill="#366d61" fill-opacity=".7" d="m92 65-3.5 5.9-.1.2-.1.1L83 74q-.3.7-.7 1l-.3.3 7-1 11-1.7-10 4.3-4.6 2-4.1 1.5-1.1.4-5.3 1.7-2 .7-5.2-1.7q-7.1 1.9-11.6 2.1l-8.8 1.1-3.6 1.3-4.7.5-.6-3.5-13.7-12v.1l-4.1-.9v-.3l-5.4-8.7 2.3.1 7.1 3.6 1.3.7.9-1.4-.1.4.1-.5 1-1.7.7-.7 14.2.4-5.9-5 6.8.4q.8-2.4-1.8-4.5l-2.2-.7 1-1.1q.1-.9 1.6-2l1-1.2-3.9.4-1.3-2.7-2.1.1 1-9 2.5 1.2 6.8-13.6 4 4.4 15.2-14.4 4.4 20.8 5.2 5.6L73.5 56l3.2 3.2.8 8h4.1l3.9.8q6.3-4.5 6.5-3m-48.7-2.8h-.4zm5.7-2.7-.1.5v-.2zm7.5 20h.1z"/><path fill="#615941" fill-opacity=".7" d="M39.1 86.6h-2.6l-2.5-2 2.6.4 1.9-2zM28.4 61.7h.2l-.7.8zM26 65.6l.8-1.2-.1-.1.2-.2v-.4l.1-.1v.1l-.1.3v-.2.4z"/><path fill="#e6c577" fill-opacity=".7" d="m38.6 86.7-1.8.2-.2-.2z"/><path fill="#2f2926" fill-opacity=".7" d="m63.2.5.1-.5.2.2z"/><path fill="#e8e4ca" fill-opacity=".7" d="M81.6 26.5v.4l-.2.1v-.5z"/><path fill="#2b251e" fill-opacity=".7" d="M32.7 46v-.8l2 .7z"/><path fill="#bb9962" fill-opacity=".7" d="M49 59.6v.2l-.1.2zm7.5 19.8.1.1z"/><path fill="none" stroke="#000" stroke-linecap="round" stroke-linejoin="round" stroke-opacity=".2" stroke-width="__RESOLUTION__" d="m92.6 40.2 15.3-1.7q2.8-.3 5-2.1 2.4-1.5 4-4l1-2.3q.8-1 2 0 1.5 2.2 2 4.7l.2 1.4q.3 2.8-.3 5.6l-.2.9m0 0q-2.4 5.1-7.5 7.4l-19.5 6.2m-4.5 20.5-4.7 2-4 1.6-1.1.3-5.3 1.8-2 .7-5.2-1.7q-7.1 1.9-11.6 2.1l-8.8 1.1-3.6 1.3-4.7.5-.6.1-1.7.2-.3-.2h0l-2.5-2 2.6.4 1.9-2-13.7-12v.1l-4.1-.9v-.3l-5.4-8.7h-1.5Q3.6 59.9.8 51m-.4-1-.2-1-.2-1.5q-.2-2.7 1-5.4 1-1.3 2.3-.4l1.8 2.2q2.6 2 5.9 3 3.1 1.3 6.5 1l12.6-1.6q.9-3.2 3-6.7l.1-.1m3.6-12.7 3 4.3h.2l8-12.4 4.1-4.5-.2 5.2h0l2.8-2.4m4.1-7.2 3.8-8m17.8 13.6 1.2 11v.6l6.8 1.4.9-.1m-59.2 18 .8-.1m-2.4 15.5h.1l14.3.4m-14.4-.4-10.9-.4h-2.2" vector-effect="non-scaling-stroke"/><path fill="none" stroke="#000" stroke-linecap="round" stroke-linejoin="round" stroke-opacity=".2" stroke-width="__RESOLUTION__" d="m82.4 75-.3.3 7-1 11-1.7M27 64.1l-.9 1.4-1.3-.6-7.1-3.7" vector-effect="non-scaling-stroke"/><path fill="none" stroke="#756646" stroke-linecap="round" stroke-linejoin="round" stroke-opacity=".7" stroke-width="__RESOLUTION__" d="m.9 51-.3-.6m42.3 11.8h.4" vector-effect="non-scaling-stroke"/></g><g id="S"><path fill="#366d61" fill-opacity=".8" d="m49.5 27.2 1.4 4.4-1.2-1.9.3 3-.3 5.3q0 .6-1.6 2.5l-1.7 2q-4.6 4.1-23.2 6.7l-.7.1-12.2 1.2-1.9-.1q-1.8-.3-2.7-.8l-1.1-1-1.2-1.1-.8-1.7h1l-1-.2L1 42.2q-2-6.6.2-19.3L4.9 28q11.6.3 22.6-3.1l17.3-2.7zM36.8 8.5 20.6 12q-9 2.7-15.8-1.9Q8 3.8 13.2 1.6l1.3-.5.2-.1.5-.1.3-.2h.2q10-3.1 21.1 7.8"/><path fill="#8dc7b5" fill-opacity=".8" d="m49.5 27.2-4.7-5L27.5 25q-11 3.4-22.7 3.1l-3.7-5.2.3-1.4q1.2-6.7 3.4-11.3 6.7 4.7 15.8 2l16.2-3.7 1.3 1.7q7.8 8 11.3 17"/><path fill="#413a2c" fill-opacity=".8" d="m1 42.2 1.6 3.4-.8-1.2z"/><path fill="none" stroke="#000" stroke-linecap="round" stroke-linejoin="round" stroke-opacity=".2" stroke-width="__RESOLUTION__" d="m2.6 45.6 1 .1h-1l.7 1.8 1.2 1.2 1.2.8q.9.5 2.7.8l1.9.2 12.1-1.2.8-.1q18.6-2.6 23.2-6.8l1.7-1.9q1.6-1.9 1.6-2.5l.3-5.3-.3-3 1.2 1.8-1.4-4.4M1.1 22.8Q-1 35.5 1 42.2l1.6 3.4" vector-effect="non-scaling-stroke"/></g><g id="R" fill-opacity=".8"><path fill="#366d61" d="M7.7 1.9 7 1.8q6.9-3.6 14.4 0l-.1.3.5 8.3-5.3 6.1-6.9 3.6q-9-2.1-9-7.4v-.3l7-1.3q.3 0 0-3.8t0-5.4"/><path fill="#8dc7b5" d="M7.7 1.9q-.2 1.6 0 5.4t0 3.9l-7 1.2-.1.3H.3h.2q-1.3-3.2 1-8.1l.9-1z"/></g><g id="P"><path fill="#fcfff1" fill-opacity=".8" d="m92.6 40.2 15.3-1.7q2.8-.3 5-2.1 2.4-1.5 4-4l1-2.3q.8-1 2 0 1.5 2.2 2 4.7l.2 1.4q.3 2.8-.3 5.6-2-.4-6.1 1.5l-6.5 2q-6.9 2-14.5.2zM.5 50l-.2-1-.3-1.5q-.2-2.7 1-5.4.9-1.3 2.3-.4L5 43.8Q7.7 46 11 47q3.1 1.3 6.5 1l12.6-1.6.8-.1 4.7 3.2-1.7.7q4.5 1.5-1.2 3l-2 .4h-.3l-12.3 1.6-8.2-.5Q3.8 55 .4 50"/><path fill="#e3f3ed" fill-opacity=".8" d="m121.9 41.9-.3.8q-2.4 5.2-7.5 7.4l-19.5 6.3q1.5-4 2.7-4.7l-2.5-6.2q7.6 1.9 14.4-.1l6.5-2.1q4.1-1.9 6.2-1.4M15.4 61.3l-1.6-.1Q3.6 59.9.8 51l-.2-.6-.1-.3q3.3 4.8 9.5 4.5l8.1.5 12.3-1.6h.3l2-.4q5.7-1.5 1.2-3l1.7-.7-4.7-3.2 1.8-.2h2l1.3-.2 2.2-.1 1.2 2.7 3.9-.4-1 1.2q-1.4 1.1-1.6 2l-1 1.1 2.2.7q2.6 2.1 1.9 4.5l-6.8-.4 5.9 5-14.3-.4h-.1l-10.9-.4z"/><path fill="#c6e8db" fill-opacity=".8" d="m94.7 56.4-.5 1.3q0 3-2.2 7.3-.2-1.5-6.5 3l-3.9-.8h-4.1l-.8-8-3.2-3.2 1.6-15.2-5.2-5.6-4.4-20.8-15.2 14.4-4-4.4L39.5 38l-2.4-1.2-1.1 9-1.3.2-2-.8v.9l-1.8.1-.8.1q.8-3.2 3-6.7l.1-.1 1-1.4 1.6-2.3.5.7.6-9.6 2.9 4.3h.2l8-12.4 4.1-4.6-.3 5.3h.1l2.7-2.5 3.8-6.1.4-1 3.7-8.1.6-1.4.4-.2 7.3 11.3 1.4 6.8 8.2-3v.1l1.2 11-.2.1v.5h.2l6.8 1.4.9-.1h.7l2.4 11.4.2.4 2.2 5.4 2.5 6.2q-1.2.6-2.6 4.6"/><path fill="#366d61" fill-opacity=".8" d="m92 65-3.5 5.9-.1.2-.1.1L83 74q-.3.7-.7 1l-.3.3 7-1 11-1.7-10 4.3-4.6 2-4.1 1.5-1.1.4-5.3 1.7-2 .7-5.2-1.7q-7.1 1.9-11.6 2.1l-8.8 1.1-3.6 1.3-4.7.5-.6-3.5-13.7-12v.1l-4.1-.9v-.3l-5.4-8.7 2.3.1 7.1 3.6 1.3.7.9-1.4-.1.4.1-.5 1-1.7.7-.7 14.2.4-5.9-5 6.8.4q.8-2.4-1.8-4.5l-2.2-.7 1-1.1q.1-.9 1.6-2l1-1.2-3.9.4-1.3-2.7-2.1.1 1-9 2.5 1.2 6.8-13.6 4 4.4 15.2-14.4 4.4 20.8 5.2 5.6L73.5 56l3.2 3.2.8 8h4.1l3.9.8q6.3-4.5 6.5-3m-48.7-2.8h-.4zm5.7-2.7-.1.5v-.2zm7.5 20h.1z"/><path fill="#615941" fill-opacity=".8" d="M39.1 86.6h-2.6l-2.5-2 2.6.4 1.9-2zM28.4 61.7h.2l-.7.8zM26 65.6l.8-1.2-.1-.1.2-.2v-.4l.1-.1v.1l-.1.3v-.2.4z"/><path fill="#e6c577" fill-opacity=".8" d="m38.6 86.7-1.8.2-.2-.2z"/><path fill="#2f2926" fill-opacity=".8" d="m63.2.5.1-.5.2.2z"/><path fill="#e8e4ca" fill-opacity=".8" d="M81.6 26.5v.4l-.2.1v-.5z"/><path fill="#2b251e" fill-opacity=".8" d="M32.7 46v-.8l2 .7z"/><path fill="#bb9962" fill-opacity=".8" d="M49 59.6v.2l-.1.2zm7.5 19.8.1.1z"/><path fill="none" stroke="#000" stroke-linecap="round" stroke-linejoin="round" stroke-opacity=".2" stroke-width="__RESOLUTION__" d="m92.6 40.2 15.3-1.7q2.8-.3 5-2.1 2.4-1.5 4-4l1-2.3q.8-1 2 0 1.5 2.2 2 4.7l.2 1.4q.3 2.8-.3 5.6l-.2.9m0 0q-2.4 5.1-7.5 7.4l-19.5 6.2m-4.5 20.5-4.7 2-4 1.6-1.1.3-5.3 1.8-2 .7-5.2-1.7q-7.1 1.9-11.6 2.1l-8.8 1.1-3.6 1.3-4.7.5-.6.1-1.7.2-.3-.2h0l-2.5-2 2.6.4 1.9-2-13.7-12v.1l-4.1-.9v-.3l-5.4-8.7h-1.5Q3.6 59.9.8 51m-.4-1-.2-1-.2-1.5q-.2-2.7 1-5.4 1-1.3 2.3-.4l1.8 2.2q2.6 2 5.9 3 3.1 1.3 6.5 1l12.6-1.6q.9-3.2 3-6.7l.1-.1m3.6-12.7 3 4.3h.2l8-12.4 4.1-4.5-.2 5.2h0l2.8-2.4m4.1-7.2 3.8-8m17.8 13.6 1.2 11v.6l6.8 1.4.9-.1m-59.2 18 .8-.1m-2.4 15.5h.1l14.3.4m-14.4-.4-10.9-.4h-2.2" vector-effect="non-scaling-stroke"/><path fill="none" stroke="#000" stroke-linecap="round" stroke-linejoin="round" stroke-opacity=".2" stroke-width="__RESOLUTION__" d="m82.4 75-.3.3 7-1 11-1.7M27 64.1l-.9 1.4-1.3-.6-7.1-3.7" vector-effect="non-scaling-stroke"/><path fill="none" stroke="#756646" stroke-linecap="round" stroke-linejoin="round" stroke-opacity=".8" stroke-width="__RESOLUTION__" d="m.9 51-.3-.6m42.3 11.8h.4" vector-effect="non-scaling-stroke"/></g><g id="N"><path fill="#366d61" fill-opacity=".9" d="m49.5 27.2 1.4 4.4-1.2-1.9.3 3-.3 5.3q0 .6-1.6 2.5l-1.7 2q-4.6 4.1-23.2 6.7l-.7.1-12.2 1.2-1.9-.1q-1.8-.3-2.7-.8l-1.1-1-1.2-1.1-.8-1.7h1l-1-.2L1 42.2q-2-6.6.2-19.3L4.9 28q11.6.3 22.6-3.1l17.3-2.7zM36.8 8.5 20.6 12q-9 2.7-15.8-1.9Q8 3.8 13.2 1.6l1.3-.5.2-.1.5-.1.3-.2h.2q10-3.1 21.1 7.8"/><path fill="#8dc7b5" fill-opacity=".9" d="m49.5 27.2-4.7-5L27.5 25q-11 3.4-22.7 3.1l-3.7-5.2.3-1.4q1.2-6.7 3.4-11.3 6.7 4.7 15.8 2l16.2-3.7 1.3 1.7q7.8 8 11.3 17"/><path fill="#413a2c" fill-opacity=".9" d="m1 42.2 1.6 3.4-.8-1.2z"/><path fill="none" stroke="#000" stroke-linecap="round" stroke-linejoin="round" stroke-opacity=".3" stroke-width="__RESOLUTION__" d="m2.6 45.6 1 .1h-1l.7 1.8 1.2 1.2 1.2.8q.9.5 2.7.8l1.9.2 12.1-1.2.8-.1q18.6-2.6 23.2-6.8l1.7-1.9q1.6-1.9 1.6-2.5l.3-5.3-.3-3 1.2 1.8-1.4-4.4M1.1 22.8Q-1 35.5 1 42.2l1.6 3.4" vector-effect="non-scaling-stroke"/></g><g id="M" fill-opacity=".9"><path fill="#366d61" d="M7.7 1.9 7 1.8q6.9-3.6 14.4 0l-.1.3.5 8.3-5.3 6.1-6.9 3.6q-9-2.1-9-7.4v-.3l7-1.3q.3 0 0-3.8t0-5.4"/><path fill="#8dc7b5" d="M7.7 1.9q-.2 1.6 0 5.4t0 3.9l-7 1.2-.1.3H.3h.2q-1.3-3.2 1-8.1l.9-1z"/></g><g id="K"><path fill="#fcfff1" fill-opacity=".9" d="m92.6 40.2 15.3-1.7q2.8-.3 5-2.1 2.4-1.5 4-4l1-2.3q.8-1 2 0 1.5 2.2 2 4.7l.2 1.4q.3 2.8-.3 5.6-2-.4-6.1 1.5l-6.5 2q-6.9 2-14.5.2zM.5 50l-.2-1-.3-1.5q-.2-2.7 1-5.4.9-1.3 2.3-.4L5 43.8Q7.7 46 11 47q3.1 1.3 6.5 1l12.6-1.6.8-.1 4.7 3.2-1.7.7q4.5 1.5-1.2 3l-2 .4h-.3l-12.3 1.6-8.2-.5Q3.8 55 .4 50"/><path fill="#e3f3ed" fill-opacity=".9" d="m121.9 41.9-.3.8q-2.4 5.2-7.5 7.4l-19.5 6.3q1.5-4 2.7-4.7l-2.5-6.2q7.6 1.9 14.4-.1l6.5-2.1q4.1-1.9 6.2-1.4M15.4 61.3l-1.6-.1Q3.6 59.9.8 51l-.2-.6-.1-.3q3.3 4.8 9.5 4.5l8.1.5 12.3-1.6h.3l2-.4q5.7-1.5 1.2-3l1.7-.7-4.7-3.2 1.8-.2h2l1.3-.2 2.2-.1 1.2 2.7 3.9-.4-1 1.2q-1.4 1.1-1.6 2l-1 1.1 2.2.7q2.6 2.1 1.9 4.5l-6.8-.4 5.9 5-14.3-.4h-.1l-10.9-.4z"/><path fill="#c6e8db" fill-opacity=".9" d="m94.7 56.4-.5 1.3q0 3-2.2 7.3-.2-1.5-6.5 3l-3.9-.8h-4.1l-.8-8-3.2-3.2 1.6-15.2-5.2-5.6-4.4-20.8-15.2 14.4-4-4.4L39.5 38l-2.4-1.2-1.1 9-1.3.2-2-.8v.9l-1.8.1-.8.1q.8-3.2 3-6.7l.1-.1 1-1.4 1.6-2.3.5.7.6-9.6 2.9 4.3h.2l8-12.4 4.1-4.6-.3 5.3h.1l2.7-2.5 3.8-6.1.4-1 3.7-8.1.6-1.4.4-.2 7.3 11.3 1.4 6.8 8.2-3v.1l1.2 11-.2.1v.5h.2l6.8 1.4.9-.1h.7l2.4 11.4.2.4 2.2 5.4 2.5 6.2q-1.2.6-2.6 4.6"/><path fill="#366d61" fill-opacity=".9" d="m92 65-3.5 5.9-.1.2-.1.1L83 74q-.3.7-.7 1l-.3.3 7-1 11-1.7-10 4.3-4.6 2-4.1 1.5-1.1.4-5.3 1.7-2 .7-5.2-1.7q-7.1 1.9-11.6 2.1l-8.8 1.1-3.6 1.3-4.7.5-.6-3.5-13.7-12v.1l-4.1-.9v-.3l-5.4-8.7 2.3.1 7.1 3.6 1.3.7.9-1.4-.1.4.1-.5 1-1.7.7-.7 14.2.4-5.9-5 6.8.4q.8-2.4-1.8-4.5l-2.2-.7 1-1.1q.1-.9 1.6-2l1-1.2-3.9.4-1.3-2.7-2.1.1 1-9 2.5 1.2 6.8-13.6 4 4.4 15.2-14.4 4.4 20.8 5.2 5.6L73.5 56l3.2 3.2.8 8h4.1l3.9.8q6.3-4.5 6.5-3m-48.7-2.8h-.4zm5.7-2.7-.1.5v-.2zm7.5 20h.1z"/><path fill="#615941" fill-opacity=".9" d="M39.1 86.6h-2.6l-2.5-2 2.6.4 1.9-2zM28.4 61.7h.2l-.7.8zM26 65.6l.8-1.2-.1-.1.2-.2v-.4l.1-.1v.1l-.1.3v-.2.4z"/><path fill="#e6c577" fill-opacity=".9" d="m38.6 86.7-1.8.2-.2-.2z"/><path fill="#2f2926" fill-opacity=".9" d="m63.2.5.1-.5.2.2z"/><path fill="#e8e4ca" fill-opacity=".9" d="M81.6 26.5v.4l-.2.1v-.5z"/><path fill="#2b251e" fill-opacity=".9" d="M32.7 46v-.8l2 .7z"/><path fill="#bb9962" fill-opacity=".9" d="M49 59.6v.2l-.1.2zm7.5 19.8.1.1z"/><path fill="none" stroke="#000" stroke-linecap="round" stroke-linejoin="round" stroke-opacity=".3" stroke-width="__RESOLUTION__" d="m92.6 40.2 15.3-1.7q2.8-.3 5-2.1 2.4-1.5 4-4l1-2.3q.8-1 2 0 1.5 2.2 2 4.7l.2 1.4q.3 2.8-.3 5.6l-.2.9m0 0q-2.4 5.1-7.5 7.4l-19.5 6.2m-4.5 20.5-4.7 2-4 1.6-1.1.3-5.3 1.8-2 .7-5.2-1.7q-7.1 1.9-11.6 2.1l-8.8 1.1-3.6 1.3-4.7.5-.6.1-1.7.2-.3-.2h0l-2.5-2 2.6.4 1.9-2-13.7-12v.1l-4.1-.9v-.3l-5.4-8.7h-1.5Q3.6 59.9.8 51m-.4-1-.2-1-.2-1.5q-.2-2.7 1-5.4 1-1.3 2.3-.4l1.8 2.2q2.6 2 5.9 3 3.1 1.3 6.5 1l12.6-1.6q.9-3.2 3-6.7l.1-.1m3.6-12.7 3 4.3h.2l8-12.4 4.1-4.5-.2 5.2h0l2.8-2.4m4.1-7.2 3.8-8m17.8 13.6 1.2 11v.6l6.8 1.4.9-.1m-59.2 18 .8-.1m-2.4 15.5h.1l14.3.4m-14.4-.4-10.9-.4h-2.2" vector-effect="non-scaling-stroke"/><path fill="none" stroke="#000" stroke-linecap="round" stroke-linejoin="round" stroke-opacity=".3" stroke-width="__RESOLUTION__" d="m82.4 75-.3.3 7-1 11-1.7M27 64.1l-.9 1.4-1.3-.6-7.1-3.7" vector-effect="non-scaling-stroke"/><path fill="none" stroke="#756646" stroke-linecap="round" stroke-linejoin="round" stroke-opacity=".9" stroke-width="__RESOLUTION__" d="m.9 51-.3-.6m42.3 11.8h.4" vector-effect="non-scaling-stroke"/></g><g id="t"><path fill="#366d61" d="m49.5 27.2 1.4 4.4-1.2-1.9.3 3-.3 5.3q0 .6-1.6 2.5l-1.7 2q-4.6 4.1-23.2 6.7l-.7.1-12.2 1.2-1.9-.1q-1.8-.3-2.7-.8l-1.1-1-1.2-1.1-.8-1.7h1l-1-.2L1 42.2q-2-6.6.2-19.3L4.9 28q11.6.3 22.6-3.1l17.3-2.7zM36.8 8.5 20.6 12q-9 2.7-15.8-1.9Q8 3.8 13.2 1.6l1.3-.5.2-.1.5-.1.3-.2h.2q10-3.1 21.1 7.8"/><path fill="#8dc7b5" d="m49.5 27.2-4.7-5L27.5 25q-11 3.4-22.7 3.1l-3.7-5.2.3-1.4q1.2-6.7 3.4-11.3 6.7 4.7 15.8 2l16.2-3.7 1.3 1.7q7.8 8 11.3 17"/><path fill="#413a2c" d="m1 42.2 1.6 3.4-.8-1.2z"/><path fill="none" stroke="#000" stroke-linecap="round" stroke-linejoin="round" stroke-opacity=".3" stroke-width="__RESOLUTION__" d="m2.6 45.6 1 .1h-1l.7 1.8 1.2 1.2 1.2.8q.9.5 2.7.8l1.9.2 12.1-1.2.8-.1q18.6-2.6 23.2-6.8l1.7-1.9q1.6-1.9 1.6-2.5l.3-5.3-.3-3 1.2 1.8-1.4-4.4M1.1 22.8Q-1 35.5 1 42.2l1.6 3.4" vector-effect="non-scaling-stroke"/></g><g id="s"><path fill="#e3f3ed" d="m1.8 6.9.1-.3 1-1.6.9-.2q.4.2 4.4-2.1T20.6 0t10.6 5.2L21.3 11l-4.2-3.8L11.4 5l-.5-.2-4-.4q-2.2.2-4 1.3z"/><path fill="#c9e9dc" d="M31.2 5.2q7 9.6-.2 13.5t-8.5 4.4q-9.2 5-7.6 3.9.6-.5 2.9-1.8h.1q4-5.4 3.4-14.2z"/><path fill="#a5dac6" d="m14.9 27-3 .5-.5.2q-2.9.5-5.8-1.1l-.3-.2 1.9-7.7-6.4 1-.6-4q-.5-4.7.3-7v.1-.1l.2-.3.6-1v.1l.1-.3h.1l.1-.1.2-.2 1-1.2q2-1 4.1-1.3l4 .3.6.3L17 7.2l4.2 3.8q.6 8.8-3.4 14.2h-.1zM1.6 7.1l-.2.2zM.7 8.4l.2.4q.2-.8-.2-.4"/><path fill="#6a95bf" d="m.7 8.4.7-1.2-.1.3zM1.6 7l-.1.2zM.7 8.4q.4-.4.2.4z"/></g><g id="r"><path fill="#366d61" d="M7.7 1.9 7 1.8q6.9-3.6 14.4 0l-.1.3.5 8.3-5.3 6.1-6.9 3.6q-9-2.1-9-7.4v-.3l7-1.3q.3 0 0-3.8t0-5.4"/><path fill="#8dc7b5" d="M7.7 1.9q-.2 1.6 0 5.4t0 3.9l-7 1.2-.1.3H.3h.2q-1.3-3.2 1-8.1l.9-1z"/></g><g id="o"><path fill="#fcfff1" d="m92.6 40.2 15.3-1.7q2.8-.3 5-2.1 2.4-1.5 4-4l1-2.3q.8-1 2 0 1.5 2.2 2 4.7l.2 1.4q.3 2.8-.3 5.6-2-.4-6.1 1.5l-6.5 2q-6.9 2-14.5.2zM.5 50l-.2-1-.3-1.5q-.2-2.7 1-5.4.9-1.3 2.3-.4L5 43.8Q7.7 46 11 47q3.1 1.3 6.5 1l12.6-1.6.8-.1 4.7 3.2-1.7.7q4.5 1.5-1.2 3l-2 .4h-.3l-12.3 1.6-8.2-.5Q3.8 55 .4 50"/><path fill="#e3f3ed" d="m121.9 41.9-.3.8q-2.4 5.2-7.5 7.4l-19.5 6.3q1.5-4 2.7-4.7l-2.5-6.2q7.6 1.9 14.4-.1l6.5-2.1q4.1-1.9 6.2-1.4M15.4 61.3l-1.6-.1Q3.6 59.9.8 51l-.2-.6-.1-.3q3.3 4.8 9.5 4.5l8.1.5 12.3-1.6h.3l2-.4q5.7-1.5 1.2-3l1.7-.7-4.7-3.2 1.8-.2h2l1.3-.2 2.2-.1 1.2 2.7 3.9-.4-1 1.2q-1.4 1.1-1.6 2l-1 1.1 2.2.7q2.6 2.1 1.9 4.5l-6.8-.4 5.9 5-14.3-.4h-.1l-10.9-.4z"/><path fill="#c6e8db" d="m94.7 56.4-.5 1.3q0 3-2.2 7.3-.2-1.5-6.5 3l-3.9-.8h-4.1l-.8-8-3.2-3.2 1.6-15.2-5.2-5.6-4.4-20.8-15.2 14.4-4-4.4L39.5 38l-2.4-1.2-1.1 9-1.3.2-2-.8v.9l-1.8.1-.8.1q.8-3.2 3-6.7l.1-.1 1-1.4 1.6-2.3.5.7.6-9.6 2.9 4.3h.2l8-12.4 4.1-4.6-.3 5.3h.1l2.7-2.5 3.8-6.1.4-1 3.7-8.1.6-1.4.4-.2 7.3 11.3 1.4 6.8 8.2-3v.1l1.2 11-.2.1v.5h.2l6.8 1.4.9-.1h.7l2.4 11.4.2.4 2.2 5.4 2.5 6.2q-1.2.6-2.6 4.6"/><path fill="#366d61" d="m92 65-3.5 5.9-.1.2-.1.1L83 74q-.3.7-.7 1l-.3.3 7-1 11-1.7-10 4.3-4.6 2-4.1 1.5-1.1.4-5.3 1.7-2 .7-5.2-1.7q-7.1 1.9-11.6 2.1l-8.8 1.1-3.6 1.3-4.7.5-.6-3.5-13.7-12v.1l-4.1-.9v-.3l-5.4-8.7 2.3.1 7.1 3.6 1.3.7.9-1.4-.1.4.1-.5 1-1.7.7-.7 14.2.4-5.9-5 6.8.4q.8-2.4-1.8-4.5l-2.2-.7 1-1.1q.1-.9 1.6-2l1-1.2-3.9.4-1.3-2.7-2.1.1 1-9 2.5 1.2 6.8-13.6 4 4.4 15.2-14.4 4.4 20.8 5.2 5.6L73.5 56l3.2 3.2.8 8h4.1l3.9.8q6.3-4.5 6.5-3m-48.7-2.8h-.4zm5.7-2.7-.1.5v-.2zm7.5 20h.1z"/><path fill="#615941" d="M39.1 86.6h-2.6l-2.5-2 2.6.4 1.9-2zM28.4 61.7h.2l-.7.8zM26 65.6l.8-1.2-.1-.1.2-.2v-.4l.1-.1v.1l-.1.3v-.2.4z"/><path fill="#e6c577" d="m38.6 86.7-1.8.2-.2-.2z"/><path fill="#2f2926" d="m63.2.5.1-.5.2.2z"/><path fill="#e8e4ca" d="M81.6 26.5v.4l-.2.1v-.5z"/><path fill="#2b251e" d="M32.7 46v-.8l2 .7z"/><path fill="#bb9962" d="M49 59.6v.2l-.1.2zm7.5 19.8.1.1z"/><path fill="none" stroke="#000" stroke-linecap="round" stroke-linejoin="round" stroke-opacity=".3" stroke-width="__RESOLUTION__" d="m92.6 40.2 15.3-1.7q2.8-.3 5-2.1 2.4-1.5 4-4l1-2.3q.8-1 2 0 1.5 2.2 2 4.7l.2 1.4q.3 2.8-.3 5.6l-.2.9m0 0q-2.4 5.1-7.5 7.4l-19.5 6.2m-4.5 20.5-4.7 2-4 1.6-1.1.3-5.3 1.8-2 .7-5.2-1.7q-7.1 1.9-11.6 2.1l-8.8 1.1-3.6 1.3-4.7.5-.6.1-1.7.2-.3-.2h0l-2.5-2 2.6.4 1.9-2-13.7-12v.1l-4.1-.9v-.3l-5.4-8.7h-1.5Q3.6 59.9.8 51m-.4-1-.2-1-.2-1.5q-.2-2.7 1-5.4 1-1.3 2.3-.4l1.8 2.2q2.6 2 5.9 3 3.1 1.3 6.5 1l12.6-1.6q.9-3.2 3-6.7l.1-.1m3.6-12.7 3 4.3h.2l8-12.4 4.1-4.5-.2 5.2h0l2.8-2.4m4.1-7.2 3.8-8m17.8 13.6 1.2 11v.6l6.8 1.4.9-.1m-59.2 18 .8-.1m-2.4 15.5h.1l14.3.4m-14.4-.4-10.9-.4h-2.2" vector-effect="non-scaling-stroke"/><path fill="none" stroke="#000" stroke-linecap="round" stroke-linejoin="round" stroke-opacity=".3" stroke-width="__RESOLUTION__" d="m82.4 75-.3.3 7-1 11-1.7M27 64.1l-.9 1.4-1.3-.6-7.1-3.7" vector-effect="non-scaling-stroke"/><path fill="none" stroke="#756646" stroke-linecap="round" stroke-linejoin="round" stroke-width="__RESOLUTION__" d="m.9 51-.3-.6m42.3 11.8h.4" vector-effect="non-scaling-stroke"/></g><clipPath id="n"><path d="M1 1h173v372H1z"/></clipPath><clipPath id="u"><path d="M175 1h173v372H175z"/></clipPath><clipPath id="v"><path d="M349 1h173v372H349z"/></clipPath><clipPath id="w"><path d="M523 1h173v372H523z"/></clipPath><clipPath id="x"><path d="M697 1h173v372H697z"/></clipPath><clipPath id="y"><path d="M871 1h173v372H871z"/></clipPath><clipPath id="z"><path d="M1045 1h173v372h-173z"/></clipPath><clipPath id="A"><path d="M1219 1h173v372h-173z"/></clipPath><clipPath id="B"><path d="M1393 1h173v372h-173z"/></clipPath><clipPath id="C"><path d="M1567 1h173v372h-173z"/></clipPath><clipPath id="D"><path d="M1741 1h173v372h-173z"/></clipPath><clipPath id="E"><path d="M1915 1h173v372h-173z"/></clipPath><clipPath id="F"><path d="M2089 1h173v372h-173z"/></clipPath><clipPath id="G"><path d="M2263 1h173v372h-173z"/></clipPath><clipPath id="J"><path d="M2437 1h173v372h-173z"/></clipPath><clipPath id="O"><path d="M2611 1h173v372h-173z"/></clipPath><clipPath id="T"><path d="M2785 1h173v372h-173z"/></clipPath><clipPath id="Y"><path d="M2959 1h173v372h-173z"/></clipPath><clipPath id="ad"><path d="M3133 1h173v372h-173z"/></clipPath><clipPath id="ai"><path d="M3307 1h173v372h-173z"/></clipPath><clipPath id="an"><path d="M3481 1h173v372h-173z"/></clipPath><clipPath id="as"><path d="M3655 1h173v372h-173z"/></clipPath><clipPath id="ax"><path d="M3829 1h173v372h-173z"/></clipPath><clipPath id="aC"><path d="M1 374h173v372H1z"/></clipPath><clipPath id="aD"><path d="M175 374h173v372H175z"/></clipPath><clipPath id="aE"><path d="M349 374h173v372H349z"/></clipPath><clipPath id="aF"><path d="M523 374h173v372H523z"/></clipPath><clipPath id="aG"><path d="M697 374h173v372H697z"/></clipPath><clipPath id="aH"><path d="M871 374h173v372H871z"/></clipPath><clipPath id="aI"><path d="M1045 374h173v372h-173z"/></clipPath><clipPath id="aJ"><path d="M1219 374h173v372h-173z"/></clipPath><clipPath id="aK"><path d="M1393 374h173v372h-173z"/></clipPath><clipPath id="aL"><path d="M1567 374h173v372h-173z"/></clipPath><clipPath id="aM"><path d="M1741 374h173v372h-173z"/></clipPath><clipPath id="aN"><path d="M1915 374h173v372h-173z"/></clipPath><clipPath id="aO"><path d="M2089 374h173v372h-173z"/></clipPath><use xlink:href="#a" id="az" width="25.4" height="27.4"/><use xlink:href="#b" id="au" width="25.4" height="27.4"/><use xlink:href="#c" id="ap" width="25.4" height="27.4"/><use xlink:href="#d" id="ak" width="25.4" height="27.4"/><use xlink:href="#e" id="af" width="25.4" height="27.4"/><use xlink:href="#f" id="aa" width="25.4" height="27.4"/><use xlink:href="#g" id="V" width="25.4" height="27.4"/><use xlink:href="#h" id="Q" width="25.4" height="27.4"/><use xlink:href="#i" id="L" width="25.4" height="27.4"/><use xlink:href="#j" id="I" width="43.9" height="20.8"/><use xlink:href="#k" id="H" width="25.5" height="25.7"/><use xlink:href="#l" id="q" width="25.4" height="27.4"/><use xlink:href="#m" id="p" width="33.5" height="25.9"/></defs><g clip-path="url(#n)"><g transform="translate(118.35 328.1)"><use xlink:href="#o" width="122.3" height="86.8" transform="rotate(10.761 695.652 -412.839)scale(.9994)"/><use xlink:href="#p" width="33.5" height="25.9" transform="matrix(-1.0079 .0395 .0331 .8452 25.35 -11.9)"/><use xlink:href="#q" width="25.4" height="27.4" transform="matrix(-1.0006 -.1179 -.1196 .9918 21.75 -28.65)"/><use xlink:href="#r" width="21.9" height="20.1" transform="matrix(-1.0308 -.3714 -.3714 1.0308 25.6 -49.9)"/><use xlink:href="#s" width="34.6" height="27.8" transform="matrix(-.7874 -.2837 -.3163 .8778 37.8 -40.55)"/><use xlink:href="#t" width="50.9" height="50.5" transform="matrix(.999 .004 -.004 .999 -31.3 -58.1)"/><use xlink:href="#p" width="33.5" height="25.9" transform="matrix(1.1781 .0039 -.0036 .7686 -39.8 -4.65)"/><use xlink:href="#q" width="25.4" height="27.4" transform="matrix(1.1631 -.153 .1805 .9864 -36.4 -22.5)"/><use xlink:href="#r" width="21.9" height="20.1" transform="matrix(-.6282 -.8952 -.8952 .6282 -14.15 -33.95)"/><use xlink:href="#s" width="34.6" height="27.8" transform="matrix(-.4799 -.6838 -.7623 .535 -9.55 -19.35)"/></g></g><g clip-path="url(#u)"><g transform="translate(292.35 328.1)"><use xlink:href="#o" width="122.3" height="86.8" transform="rotate(10.761 1400.364 -570.26)scale(.9994)"/><use xlink:href="#p" width="33.5" height="25.9" transform="matrix(-.9799 .2363 .1982 .8218 26.9 -163.45)"/><use xlink:href="#q" width="25.4" height="27.4" transform="matrix(-1.0037 .0807 .0772 .9954 20.1 -179.15)"/><use xlink:href="#r" width="21.9" height="20.1" transform="matrix(-1.0701 .1135 .2276 1.0944 17.55 -206.8)"/><use xlink:href="#s" width="34.6" height="27.8" transform="matrix(-.8174 .0867 .1938 .932 32.8 -203.65)"/><use xlink:href="#t" width="50.9" height="50.5" transform="rotate(.23 51967.996 -8932.773)scale(.999)"/><use xlink:href="#p" width="33.5" height="25.9" transform="matrix(1.1675 .1535 -.1012 .7616 -48.3 -155.5)"/><use xlink:href="#q" width="25.4" height="27.4" transform="matrix(1.1726 -.004 .0536 1.0009 -42.65 -172.75)"/><use xlink:href="#r" width="21.9" height="20.1" transform="matrix(.4632 -.989 -.989 -.4632 -28.55 -177.45)"/><use xlink:href="#s" width="34.6" height="27.8" transform="matrix(.3538 -.7555 -.8422 -.3945 -38.9 -166.2)"/></g></g><g clip-path="url(#v)"><g transform="translate(466.35 328.1)"><use xlink:href="#o" width="122.3" height="86.8" transform="rotate(10.762 1449.384 -574.588)scale(.9988)"/><use xlink:href="#p" width="33.5" height="25.9" transform="matrix(-.9902 .1794 .4442 .701 23.2 -179.25)"/><use xlink:href="#q" width="25.4" height="27.4" transform="matrix(-1.0049 .058 .4261 .8818 14.75 -191.9)"/><use xlink:href="#r" width="21.9" height="20.1" transform="matrix(-1.0698 .1127 .224 1.0944 17.65 -216)"/><use xlink:href="#s" width="34.6" height="27.8" transform="matrix(-.8172 .0861 .1908 .932 32.9 -212.9)"/><use xlink:href="#t" width="50.9" height="50.5" transform="matrix(1.0008 -.022 -.001 .999 -34.4 -219.35)"/><use xlink:href="#p" width="33.5" height="25.9" transform="matrix(1.1767 .0422 -.3259 .7051 -47.4 -169.95)"/><use xlink:href="#q" width="25.4" height="27.4" transform="matrix(1.17 -.0677 -.2926 .971 -38.8 -184.7)"/><use xlink:href="#r" width="21.9" height="20.1" transform="matrix(.4619 -.988 -.988 -.4619 -28.5 -186.7)"/><use xlink:href="#s" width="34.6" height="27.8" transform="matrix(.3529 -.7548 -.8414 -.3934 -38.9 -175.45)"/></g></g><g clip-path="url(#w)"><g transform="translate(640.35 328.1)"><use xlink:href="#o" width="122.3" height="86.8" transform="rotate(10.762 1498.75 -579.238)scale(.9988)"/><use xlink:href="#p" width="33.5" height="25.9" transform="matrix(-.9982 .1236 .6381 .5099 20.2 -194.2)"/><use xlink:href="#q" width="25.4" height="27.4" transform="matrix(-1.0057 .0404 .7055 .6553 10.2 -203.35)"/><use xlink:href="#r" width="21.9" height="20.1" transform="matrix(-1.0698 .1127 .224 1.0944 17.65 -225.3)"/><use xlink:href="#s" width="34.6" height="27.8" transform="matrix(-.8172 .0861 .1908 .932 32.9 -222.2)"/><use xlink:href="#t" width="50.9" height="50.5" transform="matrix(1.0019 -.0483 -.001 .999 -33.25 -230.45)"/><use xlink:href="#p" width="33.5" height="25.9" transform="matrix(1.1759 -.0628 -.5281 .5838 -46.7 -183.6)"/><use xlink:href="#q" width="25.4" height="27.4" transform="matrix(1.1636 -.1383 -.6126 .825 -35.25 -195)"/><use xlink:href="#r" width="21.9" height="20.1" transform="matrix(.4619 -.988 -.988 -.4619 -28.5 -196)"/><use xlink:href="#s" width="34.6" height="27.8" transform="matrix(.3529 -.7548 -.8414 -.3934 -38.9 -184.75)"/></g></g><g clip-path="url(#x)"><g transform="translate(814.35 328.1)"><use xlink:href="#o" width="122.3" height="86.8" transform="rotate(10.762 1547.851 -583.863)scale(.9988)"/><use xlink:href="#p" width="33.5" height="25.9" transform="matrix(-.9982 .1236 .6381 .5099 21.95 -201.15)"/><use xlink:href="#q" width="25.4" height="27.4" transform="matrix(-1.0057 .0404 .7055 .6553 11.95 -210.3)"/><use xlink:href="#r" width="21.9" height="20.1" transform="matrix(-1.0698 .1127 .224 1.0944 17.65 -234.55)"/><use xlink:href="#s" width="34.6" height="27.8" transform="matrix(-.8172 .0861 .1908 .932 32.9 -231.45)"/><use xlink:href="#t" width="50.9" height="50.5" transform="matrix(1.0023 -.0748 -.001 .999 -32.2 -241.6)"/><use xlink:href="#p" width="33.5" height="25.9" transform="matrix(1.1759 -.0628 -.5281 .5838 -44.95 -190.55)"/><use xlink:href="#q" width="25.4" height="27.4" transform="matrix(1.1636 -.1383 -.6126 .825 -33.5 -201.95)"/><use xlink:href="#r" width="21.9" height="20.1" transform="matrix(.4619 -.988 -.988 -.4619 -28.5 -205.25)"/><use xlink:href="#s" width="34.6" height="27.8" transform="matrix(.3529 -.7548 -.8414 -.3934 -38.9 -194)"/></g></g><g clip-path="url(#y)"><g transform="translate(988.35 328.1)"><use xlink:href="#o" width="122.3" height="86.8" transform="rotate(10.762 1596.952 -588.488)scale(.9988)"/><use xlink:href="#p" width="33.5" height="25.9" transform="matrix(-.9982 .1236 .6381 .5099 21.95 -201.15)"/><use xlink:href="#q" width="25.4" height="27.4" transform="matrix(-1.0057 .0404 .7055 .6553 11.95 -210.3)"/><use xlink:href="#r" width="21.9" height="20.1" transform="matrix(-1.0698 .1127 .224 1.0944 17.65 -243.8)"/><use xlink:href="#s" width="34.6" height="27.8" transform="matrix(-.8172 .0861 .1908 .932 32.9 -240.7)"/><use xlink:href="#t" width="50.9" height="50.5" transform="matrix(1.002 -.1012 -.001 .999 -31.05 -252.7)"/><use xlink:href="#p" width="33.5" height="25.9" transform="matrix(1.1759 -.0628 -.5281 .5838 -44.95 -190.55)"/><use xlink:href="#q" width="25.4" height="27.4" transform="matrix(1.1636 -.1383 -.6126 .825 -33.5 -201.95)"/><use xlink:href="#r" width="21.9" height="20.1" transform="matrix(.4619 -.988 -.988 -.4619 -28.5 -214.5)"/><use xlink:href="#s" width="34.6" height="27.8" transform="matrix(.3529 -.7548 -.8414 -.3934 -38.9 -203.25)"/></g></g><g clip-path="url(#z)"><g transform="translate(1162.35 328.1)"><use xlink:href="#o" width="122.3" height="86.8" transform="rotate(10.762 1646.319 -593.138)scale(.9988)"/><use xlink:href="#p" width="33.5" height="25.9" transform="matrix(-.998 -.0928 .6116 -.4546 17.85 -251.5)"/><use xlink:href="#q" width="25.4" height="27.4" transform="matrix(-1.0056 -.0313 .6612 -.6026 8.1 -244.15)"/><use xlink:href="#r" width="21.9" height="20.1" transform="matrix(-1.0698 .1127 .224 1.0944 17.65 -253.1)"/><use xlink:href="#s" width="34.6" height="27.8" transform="matrix(-.8172 .0861 .1908 .932 32.9 -250)"/><use xlink:href="#t" width="50.9" height="50.5" transform="matrix(1.001 -.1278 -.001 .999 -29.9 -263.9)"/><use xlink:href="#p" width="33.5" height="25.9" transform="matrix(1.0702 -.489 -.7711 -.301 -49.4 -233.2)"/><use xlink:href="#q" width="25.4" height="27.4" transform="matrix(1.0991 -.4014 -.9713 -.4745 -33.15 -226.7)"/><use xlink:href="#r" width="21.9" height="20.1" transform="matrix(.4619 -.988 -.988 -.4619 -28.5 -223.8)"/><use xlink:href="#s" width="34.6" height="27.8" transform="matrix(.3529 -.7548 -.8414 -.3934 -38.9 -212.55)"/></g></g><g clip-path="url(#A)"><g transform="translate(1336.35 328.1)"><use xlink:href="#o" width="122.3" height="86.8" transform="rotate(10.761 1695.523 -598.06)scale(.9994)"/><use xlink:href="#p" width="33.5" height="25.9" transform="matrix(-.9799 -.204 .1982 -.7094 21.55 -283.15)"/><use xlink:href="#q" width="25.4" height="27.4" transform="matrix(-1.0037 -.0696 .0772 -.8592 14.75 -269.6)"/><use xlink:href="#r" width="21.9" height="20.1" transform="matrix(-1.0701 .1135 .2276 1.0944 17.55 -262.4)"/><use xlink:href="#s" width="34.6" height="27.8" transform="matrix(-.8174 .0867 .1938 .932 32.8 -259.25)"/><use xlink:href="#t" width="50.9" height="50.5" transform="matrix(.9997 -.1556 -.004 .999 -28.7 -275)"/><use xlink:href="#p" width="33.5" height="25.9" transform="matrix(.9609 -.6819 -.4737 -.705 -55.15 -258.6)"/><use xlink:href="#q" width="25.4" height="27.4" transform="matrix(1.0448 -.5289 -.4566 -1.0114 -41.45 -244.2)"/><use xlink:href="#r" width="21.9" height="20.1" transform="matrix(.4632 -.989 -.989 -.4632 -28.55 -233.05)"/><use xlink:href="#s" width="34.6" height="27.8" transform="matrix(.3538 -.7555 -.8422 -.3945 -38.9 -221.8)"/></g></g><g clip-path="url(#B)"><g transform="translate(1510.35 328.1)"><use xlink:href="#o" width="122.3" height="86.8" transform="rotate(10.762 1611.165 -596.788)scale(.9988)"/><use xlink:href="#p" width="33.5" height="25.9" transform="matrix(-.9793 -.2039 .1972 -.709 21.55 -279.15)"/><use xlink:href="#q" width="25.4" height="27.4" transform="matrix(-1.0037 -.0668 .0757 -.8591 14.8 -266.15)"/><use xlink:href="#r" width="21.9" height="20.1" transform="matrix(-1.0698 .1127 .224 1.0944 20.1 -258.1)"/><use xlink:href="#s" width="34.6" height="27.8" transform="matrix(-.8172 .0861 .1908 .932 35.3 -255.05)"/><use xlink:href="#t" width="50.9" height="50.5" transform="matrix(.9994 -.1543 -.001 .999 -28.8 -268.6)"/><use xlink:href="#p" width="33.5" height="25.9" transform="matrix(.9597 -.6805 -.4723 -.7043 -55.75 -256.2)"/><use xlink:href="#q" width="25.4" height="27.4" transform="matrix(1.0438 -.5276 -.456 -1.0102 -41.5 -242.4)"/><use xlink:href="#r" width="21.9" height="20.1" transform="matrix(.4619 -.988 -.988 -.4619 -29.95 -225.25)"/><use xlink:href="#s" width="34.6" height="27.8" transform="matrix(.3529 -.7548 -.8414 -.3934 -40.35 -214)"/></g></g><g clip-path="url(#C)"><g transform="translate(1684.35 328.1)"><use xlink:href="#o" width="122.3" height="86.8" transform="rotate(10.762 1527.441 -595.864)scale(.9988)"/><use xlink:href="#p" width="33.5" height="25.9" transform="matrix(-.9793 -.2039 .1972 -.709 21.55 -275.2)"/><use xlink:href="#q" width="25.4" height="27.4" transform="matrix(-1.0037 -.0668 .0757 -.8591 14.7 -262.7)"/><use xlink:href="#r" width="21.9" height="20.1" transform="matrix(-1.0698 .1127 .224 1.0944 22.55 -253.85)"/><use xlink:href="#s" width="34.6" height="27.8" transform="matrix(-.8172 .0861 .1908 .932 37.75 -250.8)"/><use xlink:href="#t" width="50.9" height="50.5" transform="matrix(.9994 -.1543 -.001 .999 -28.85 -262.15)"/><use xlink:href="#p" width="33.5" height="25.9" transform="matrix(.9597 -.6805 -.4723 -.7043 -56.35 -253.8)"/><use xlink:href="#q" width="25.4" height="27.4" transform="matrix(1.0438 -.5276 -.456 -1.0102 -41.65 -240.55)"/><use xlink:href="#r" width="21.9" height="20.1" transform="matrix(.4619 -.988 -.988 -.4619 -31.45 -217.4)"/><use xlink:href="#s" width="34.6" height="27.8" transform="rotate(115.059 44.667 -116.39)scale(-.8332 .9288)"/></g></g><g clip-path="url(#D)"><g transform="translate(1858.35 328.1)"><use xlink:href="#o" width="122.3" height="86.8" transform="rotate(10.762 1443.427 -595.18)scale(.9988)"/><use xlink:href="#p" width="33.5" height="25.9" transform="matrix(-.9793 -.2039 .1972 -.709 21.55 -271.2)"/><use xlink:href="#q" width="25.4" height="27.4" transform="matrix(-1.0037 -.0668 .0757 -.8591 14.65 -259.25)"/><use xlink:href="#r" width="21.9" height="20.1" transform="matrix(-1.0698 .1127 .224 1.0944 25.05 -249.6)"/><use xlink:href="#s" width="34.6" height="27.8" transform="matrix(-.8172 .0861 .1908 .932 40.25 -246.55)"/><use xlink:href="#t" width="50.9" height="50.5" transform="matrix(.9994 -.1543 -.001 .999 -28.85 -255.7)"/><use xlink:href="#p" width="33.5" height="25.9" transform="matrix(.9597 -.6805 -.4723 -.7043 -56.95 -251.4)"/><use xlink:href="#q" width="25.4" height="27.4" transform="matrix(1.0438 -.5276 -.456 -1.0102 -41.75 -238.65)"/><use xlink:href="#r" width="21.9" height="20.1" transform="matrix(.4619 -.988 -.988 -.4619 -32.9 -209.6)"/><use xlink:href="#s" width="34.6" height="27.8" transform="matrix(.3529 -.7548 -.8414 -.3934 -43.3 -198.35)"/></g></g><g clip-path="url(#E)"><g transform="translate(2032.35 328.1)"><use xlink:href="#o" width="122.3" height="86.8" transform="rotate(10.762 1359.679 -594.521)scale(.9988)"/><use xlink:href="#p" width="33.5" height="25.9" transform="matrix(-.9793 -.2039 .1972 -.709 21.55 -267.25)"/><use xlink:href="#q" width="25.4" height="27.4" transform="matrix(-1.0037 -.0668 .0757 -.8591 14.55 -255.8)"/><use xlink:href="#r" width="21.9" height="20.1" transform="matrix(-1.0698 .1127 .224 1.0944 27.5 -245.4)"/><use xlink:href="#s" width="34.6" height="27.8" transform="matrix(-.8172 .0861 .1908 .932 42.7 -242.35)"/><use xlink:href="#t" width="50.9" height="50.5" transform="matrix(.9994 -.1543 -.001 .999 -28.85 -249.25)"/><use xlink:href="#p" width="33.5" height="25.9" transform="matrix(.9597 -.6805 -.4723 -.7043 -57.6 -249)"/><use xlink:href="#q" width="25.4" height="27.4" transform="matrix(1.0438 -.5276 -.456 -1.0102 -41.85 -236.8)"/><use xlink:href="#r" width="21.9" height="20.1" transform="matrix(.4619 -.988 -.988 -.4619 -34.35 -201.8)"/><use xlink:href="#s" width="34.6" height="27.8" transform="matrix(.3529 -.7548 -.8414 -.3934 -44.75 -190.55)"/></g></g><g clip-path="url(#F)"><g transform="translate(2206.35 328.1)"><use xlink:href="#o" width="122.3" height="86.8" transform="rotate(10.762 1275.955 -593.597)scale(.9988)"/><use xlink:href="#p" width="33.5" height="25.9" transform="matrix(-.9793 -.2039 .1972 -.709 21.55 -263.3)"/><use xlink:href="#q" width="25.4" height="27.4" transform="matrix(-1.0037 -.0668 .0757 -.8591 14.5 -252.35)"/><use xlink:href="#r" width="21.9" height="20.1" transform="matrix(-1.0698 .1127 .224 1.0944 29.95 -241.15)"/><use xlink:href="#s" width="34.6" height="27.8" transform="matrix(-.8172 .0861 .1908 .932 45.15 -238.1)"/><use xlink:href="#t" width="50.9" height="50.5" transform="matrix(.9994 -.1543 -.001 .999 -28.9 -242.8)"/><use xlink:href="#p" width="33.5" height="25.9" transform="matrix(.9597 -.6805 -.4723 -.7043 -58.2 -246.6)"/><use xlink:href="#q" width="25.4" height="27.4" transform="matrix(1.0438 -.5276 -.456 -1.0102 -42 -234.95)"/><use xlink:href="#r" width="21.9" height="20.1" transform="matrix(.4619 -.988 -.988 -.4619 -35.85 -193.95)"/><use xlink:href="#s" width="34.6" height="27.8" transform="matrix(.3529 -.7548 -.8414 -.3934 -46.25 -182.7)"/></g></g><g clip-path="url(#G)"><g transform="translate(2380.35 328.1)"><use xlink:href="#o" width="122.3" height="86.8" transform="rotate(10.761 1192.248 -593.504)scale(.9994)"/><use xlink:href="#p" width="33.5" height="25.9" transform="matrix(-.9799 -.204 .1982 -.7094 21.55 -259.3)"/><use xlink:href="#q" width="25.4" height="27.4" transform="matrix(-1.0037 -.0696 .0772 -.8592 14.3 -248.9)"/><use xlink:href="#r" width="21.9" height="20.1" transform="matrix(-1.0701 .1135 .2276 1.0944 32.3 -236.95)"/><use xlink:href="#s" width="34.6" height="27.8" transform="matrix(-.8174 .0867 .1938 .932 47.55 -233.8)"/><use xlink:href="#t" width="50.9" height="50.5" transform="matrix(.9997 -.1556 -.004 .999 -28.8 -236.3)"/><use xlink:href="#p" width="33.5" height="25.9" transform="matrix(.9609 -.6819 -.4737 -.705 -58.8 -244.2)"/><use xlink:href="#q" width="25.4" height="27.4" transform="matrix(1.0448 -.5289 -.4566 -1.0114 -42.15 -233.05)"/><use xlink:href="#r" width="21.9" height="20.1" transform="matrix(.4632 -.989 -.989 -.4632 -37.35 -186.15)"/><use xlink:href="#s" width="34.6" height="27.8" transform="matrix(.3538 -.7555 -.8422 -.3945 -47.7 -174.9)"/><use xlink:href="#H" width="25.5" height="25.7" transform="translate(-6.25 -185.85)"/><use xlink:href="#I" width="43.9" height="20.8" transform="translate(-98.55 -188)"/></g></g><g clip-path="url(#J)"><g transform="translate(2554.35 328.1)"><use xlink:href="#K" width="122.3" height="86.8" transform="rotate(10.762 1095.09 -583.523)scale(.9988)"/><use xlink:href="#p" width="33.5" height="25.9" transform="matrix(-.9793 -.2039 .1972 -.709 21.45 -228.05)"/><use xlink:href="#L" width="25.4" height="27.4" transform="matrix(-1.0037 -.0668 .0757 -.8591 13.6 -224.3)"/><use xlink:href="#M" width="21.9" height="20.1" transform="matrix(-1.0698 .1127 .224 1.0944 31.45 -213.7)"/><use xlink:href="#s" width="34.6" height="27.8" transform="matrix(-.8172 .0861 .1908 .932 46.65 -210.5)"/><use xlink:href="#N" width="50.9" height="50.5" transform="matrix(.9994 -.1543 -.001 .999 -29 -210.75)"/><use xlink:href="#p" width="33.5" height="25.9" transform="matrix(.9597 -.6805 -.4723 -.7043 -62 -216.3)"/><use xlink:href="#L" width="25.4" height="27.4" transform="matrix(1.0438 -.5276 -.456 -1.0102 -45.25 -205.05)"/><use xlink:href="#M" width="21.9" height="20.1" transform="matrix(.4619 -.988 -.988 -.4619 -38.25 -162.35)"/><use xlink:href="#s" width="34.6" height="27.8" transform="matrix(.3529 -.7548 -.8414 -.3934 -48.55 -151.1)"/><use xlink:href="#H" width="25.5" height="25.7" transform="translate(-6.6 -164.4)"/><use xlink:href="#I" width="43.9" height="20.8" transform="translate(-96.4 -165.45)"/></g></g><g clip-path="url(#O)"><g transform="translate(2728.35 328.1)"><use xlink:href="#P" width="122.3" height="86.8" transform="rotate(10.762 998.316 -573.336)scale(.9988)"/><use xlink:href="#p" width="33.5" height="25.9" transform="matrix(-.9793 -.2039 .1972 -.709 21.4 -196.75)"/><use xlink:href="#Q" width="25.4" height="27.4" transform="matrix(-1.0037 -.0668 .0757 -.8591 12.95 -199.7)"/><use xlink:href="#R" width="21.9" height="20.1" transform="matrix(-1.0698 .1127 .224 1.0944 30.6 -190.4)"/><use xlink:href="#s" width="34.6" height="27.8" transform="matrix(-.8172 .0861 .1908 .932 45.8 -187.2)"/><use xlink:href="#S" width="50.9" height="50.5" transform="matrix(.9994 -.1543 -.001 .999 -29.2 -185.25)"/><use xlink:href="#p" width="33.5" height="25.9" transform="matrix(.9597 -.6805 -.4723 -.7043 -65.2 -188.3)"/><use xlink:href="#Q" width="25.4" height="27.4" transform="matrix(1.0438 -.5276 -.456 -1.0102 -48.45 -177.05)"/><use xlink:href="#R" width="21.9" height="20.1" transform="matrix(.4619 -.988 -.988 -.4619 -39.1 -138.55)"/><use xlink:href="#s" width="34.6" height="27.8" transform="matrix(.3529 -.7548 -.8414 -.3934 -49.4 -127.3)"/><use xlink:href="#H" width="25.5" height="25.7" transform="translate(-6.95 -142.9)"/><use xlink:href="#I" width="43.9" height="20.8" transform="translate(-94.2 -142.9)"/></g></g><g clip-path="url(#T)"><g transform="translate(2902.35 328.1)"><use xlink:href="#U" width="122.3" height="86.8" transform="rotate(10.762 901.516 -563.415)scale(.9988)"/><use xlink:href="#p" width="33.5" height="25.9" transform="matrix(-.9793 -.2039 .1972 -.709 21.35 -165.45)"/><use xlink:href="#V" width="25.4" height="27.4" transform="matrix(-1.0037 -.0668 .0757 -.8591 12.25 -175.1)"/><use xlink:href="#W" width="21.9" height="20.1" transform="matrix(-1.0698 .1127 .224 1.0944 29.7 -167.15)"/><use xlink:href="#s" width="34.6" height="27.8" transform="matrix(-.8172 .0861 .1908 .932 44.9 -163.95)"/><use xlink:href="#X" width="50.9" height="50.5" transform="matrix(.9994 -.1543 -.001 .999 -29.35 -159.7)"/><use xlink:href="#p" width="33.5" height="25.9" transform="matrix(.9597 -.6805 -.4723 -.7043 -68.35 -160.3)"/><use xlink:href="#V" width="25.4" height="27.4" transform="matrix(1.0438 -.5276 -.456 -1.0102 -51.6 -149.05)"/><use xlink:href="#W" width="21.9" height="20.1" transform="matrix(.4619 -.988 -.988 -.4619 -40 -114.8)"/><use xlink:href="#s" width="34.6" height="27.8" transform="rotate(115.059 7.797 -67.78)scale(-.8332 .9288)"/><use xlink:href="#H" width="25.5" height="25.7" transform="translate(-7.3 -121.45)"/><use xlink:href="#I" width="43.9" height="20.8" transform="translate(-92.05 -120.3)"/></g></g><g clip-path="url(#Y)"><g transform="translate(3076.35 328.1)"><use xlink:href="#Z" width="122.3" height="86.8" transform="rotate(10.762 804.716 -553.493)scale(.9988)"/><use xlink:href="#p" width="33.5" height="25.9" transform="matrix(-.9793 -.2039 .1972 -.709 21.3 -134.15)"/><use xlink:href="#aa" width="25.4" height="27.4" transform="matrix(-1.0037 -.0668 .0757 -.8591 11.55 -150.5)"/><use xlink:href="#ab" width="21.9" height="20.1" transform="matrix(-1.0698 .1127 .224 1.0944 28.85 -143.85)"/><use xlink:href="#s" width="34.6" height="27.8" transform="matrix(-.8172 .0861 .1908 .932 44.05 -140.65)"/><use xlink:href="#ac" width="50.9" height="50.5" transform="matrix(.9994 -.1543 -.001 .999 -29.55 -134.15)"/><use xlink:href="#p" width="33.5" height="25.9" transform="matrix(.9597 -.6805 -.4723 -.7043 -71.55 -132.3)"/><use xlink:href="#aa" width="25.4" height="27.4" transform="matrix(1.0438 -.5276 -.456 -1.0102 -54.8 -121.05)"/><use xlink:href="#ab" width="21.9" height="20.1" transform="matrix(.4619 -.988 -.988 -.4619 -40.85 -91)"/><use xlink:href="#s" width="34.6" height="27.8" transform="rotate(115.059 -.2 -56.15)scale(-.8332 .9288)"/><use xlink:href="#H" width="25.5" height="25.7" transform="translate(-7.65 -99.95)"/><use xlink:href="#I" width="43.9" height="20.8" transform="translate(-89.85 -97.75)"/></g></g><g clip-path="url(#ad)"><g transform="translate(3250.35 328.1)"><use xlink:href="#ae" width="122.3" height="86.8" transform="rotate(10.762 708.206 -543.332)scale(.9988)"/><use xlink:href="#p" width="33.5" height="25.9" transform="matrix(-.9793 -.2039 .1972 -.709 21.3 -102.85)"/><use xlink:href="#af" width="25.4" height="27.4" transform="matrix(-1.0037 -.0668 .0757 -.8591 10.9 -125.9)"/><use xlink:href="#ag" width="21.9" height="20.1" transform="matrix(-1.0698 .1127 .224 1.0944 27.95 -120.6)"/><use xlink:href="#s" width="34.6" height="27.8" transform="matrix(-.8172 .0861 .1908 .932 43.15 -117.4)"/><use xlink:href="#ah" width="50.9" height="50.5" transform="matrix(.9994 -.1543 -.001 .999 -29.7 -108.65)"/><use xlink:href="#p" width="33.5" height="25.9" transform="matrix(.9597 -.6805 -.4723 -.7043 -74.75 -104.35)"/><use xlink:href="#af" width="25.4" height="27.4" transform="matrix(1.0438 -.5276 -.456 -1.0102 -58 -93.1)"/><use xlink:href="#ag" width="21.9" height="20.1" transform="matrix(.4619 -.988 -.988 -.4619 -41.75 -67.2)"/><use xlink:href="#s" width="34.6" height="27.8" transform="matrix(.3529 -.7548 -.8414 -.3934 -52.05 -55.95)"/><use xlink:href="#H" width="25.5" height="25.7" transform="translate(-8 -78.5)"/><use xlink:href="#I" width="43.9" height="20.8" transform="translate(-87.7 -75.2)"/></g></g><g clip-path="url(#ai)"><g transform="translate(3424.35 328.1)"><use xlink:href="#aj" width="122.3" height="86.8" transform="rotate(10.762 611.406 -533.41)scale(.9988)"/><use xlink:href="#p" width="33.5" height="25.9" transform="matrix(-.9793 -.2039 .1972 -.709 21.25 -71.55)"/><use xlink:href="#ak" width="25.4" height="27.4" transform="matrix(-1.0037 -.0668 .0757 -.8591 10.2 -101.3)"/><use xlink:href="#al" width="21.9" height="20.1" transform="matrix(-1.0698 .1127 .224 1.0944 27.1 -97.3)"/><use xlink:href="#s" width="34.6" height="27.8" transform="matrix(-.8172 .0861 .1908 .932 42.3 -94.1)"/><use xlink:href="#am" width="50.9" height="50.5" transform="matrix(.9994 -.1543 -.001 .999 -29.9 -83.1)"/><use xlink:href="#p" width="33.5" height="25.9" transform="matrix(.9597 -.6805 -.4723 -.7043 -77.95 -76.35)"/><use xlink:href="#ak" width="25.4" height="27.4" transform="matrix(1.0438 -.5276 -.456 -1.0102 -61.2 -65.1)"/><use xlink:href="#al" width="21.9" height="20.1" transform="matrix(.4619 -.988 -.988 -.4619 -42.6 -43.4)"/><use xlink:href="#s" width="34.6" height="27.8" transform="rotate(-64.942 -51.71 25.49)scale(.8332 -.9288)"/><use xlink:href="#H" width="25.5" height="25.7" transform="translate(-8.35 -57)"/><use xlink:href="#I" width="43.9" height="20.8" transform="translate(-85.5 -52.65)"/></g></g><g clip-path="url(#an)"><g transform="translate(3598.35 328.1)"><use xlink:href="#ao" width="122.3" height="86.8" transform="rotate(10.762 514.606 -523.49)scale(.9988)"/><use xlink:href="#p" width="33.5" height="25.9" transform="matrix(-.9793 -.2039 .1972 -.709 21.2 -40.25)"/><use xlink:href="#ap" width="25.4" height="27.4" transform="matrix(-1.0037 -.0668 .0757 -.8591 9.5 -76.7)"/><use xlink:href="#aq" width="21.9" height="20.1" transform="matrix(-1.0698 .1127 .224 1.0944 26.2 -74.05)"/><use xlink:href="#s" width="34.6" height="27.8" transform="matrix(-.8172 .0861 .1908 .932 41.4 -70.85)"/><use xlink:href="#ar" width="50.9" height="50.5" transform="matrix(.9994 -.1543 -.001 .999 -30.05 -57.55)"/><use xlink:href="#p" width="33.5" height="25.9" transform="matrix(.9597 -.6805 -.4723 -.7043 -81.1 -48.35)"/><use xlink:href="#ap" width="25.4" height="27.4" transform="matrix(1.0438 -.5276 -.456 -1.0102 -64.35 -37.1)"/><use xlink:href="#aq" width="21.9" height="20.1" transform="matrix(.4619 -.988 -.988 -.4619 -43.5 -19.65)"/><use xlink:href="#s" width="34.6" height="27.8" transform="matrix(.3529 -.7548 -.8414 -.3934 -53.8 -8.4)"/><use xlink:href="#H" width="25.5" height="25.7" transform="translate(-8.7 -35.55)"/><use xlink:href="#I" width="43.9" height="20.8" transform="translate(-83.35 -30.05)"/></g></g><g clip-path="url(#as)"><g transform="translate(3772.35 328.1)"><use xlink:href="#at" width="122.3" height="86.8" transform="rotate(10.762 417.83 -513.303)scale(.9988)"/><use xlink:href="#p" width="33.5" height="25.9" transform="matrix(-.9793 -.2039 .1972 -.709 21.15 -8.95)"/><use xlink:href="#au" width="25.4" height="27.4" transform="matrix(-1.0037 -.0668 .0757 -.8591 8.85 -52.1)"/><use xlink:href="#av" width="21.9" height="20.1" transform="matrix(-1.0698 .1127 .224 1.0944 25.35 -50.75)"/><use xlink:href="#s" width="34.6" height="27.8" transform="matrix(-.8172 .0861 .1908 .932 40.55 -47.55)"/><use xlink:href="#aw" width="50.9" height="50.5" transform="matrix(.9994 -.1543 -.001 .999 -30.25 -32.05)"/><use xlink:href="#p" width="33.5" height="25.9" transform="matrix(.9597 -.6805 -.4723 -.7043 -84.3 -20.35)"/><use xlink:href="#au" width="25.4" height="27.4" transform="matrix(1.0438 -.5276 -.456 -1.0102 -67.55 -9.1)"/><use xlink:href="#av" width="21.9" height="20.1" transform="matrix(.4619 -.988 -.988 -.4619 -44.35 4.15)"/><use xlink:href="#s" width="34.6" height="27.8" transform="matrix(.3529 -.7548 -.8414 -.3934 -54.65 15.4)"/><use xlink:href="#H" width="25.5" height="25.7" transform="translate(-9.05 -14.05)"/><use xlink:href="#I" width="43.9" height="20.8" transform="translate(-81.15 -7.5)"/></g></g><g clip-path="url(#ax)"><g transform="translate(3946.35 328.1)"><use xlink:href="#ay" width="122.3" height="86.8" transform="rotate(10.761 321.323 -503.441)scale(.9994)"/><use xlink:href="#p" width="33.5" height="25.9" transform="matrix(-.9799 -.204 .1982 -.7094 21.15 22.4)"/><use xlink:href="#az" width="25.4" height="27.4" transform="matrix(-1.0037 -.0696 .0772 -.8592 8.15 -27.5)"/><use xlink:href="#aA" width="21.9" height="20.1" transform="matrix(-1.0701 .1135 .2276 1.0944 24.4 -27.5)"/><use xlink:href="#s" width="34.6" height="27.8" transform="matrix(-.8174 .0867 .1938 .932 39.65 -24.35)"/><use xlink:href="#aB" width="50.9" height="50.5" transform="matrix(.9997 -.1556 -.004 .999 -30.35 -6.5)"/><use xlink:href="#p" width="33.5" height="25.9" transform="matrix(.9609 -.6819 -.4737 -.705 -87.5 7.75)"/><use xlink:href="#az" width="25.4" height="27.4" transform="matrix(1.0448 -.5289 -.4566 -1.0114 -70.85 18.9)"/><use xlink:href="#aA" width="21.9" height="20.1" transform="matrix(.4632 -.989 -.989 -.4632 -45.25 27.95)"/><use xlink:href="#s" width="34.6" height="27.8" transform="matrix(.3538 -.7555 -.8422 -.3945 -55.6 39.2)"/><use xlink:href="#H" width="25.5" height="25.7" transform="translate(-9.4 7.4)"/><use xlink:href="#I" width="43.9" height="20.8" transform="translate(-79 15.05)"/></g></g><g clip-path="url(#aC)"><g transform="translate(118.35 701.1)"><use xlink:href="#ay" width="122.3" height="86.8" transform="rotate(10.762 359.44 -507.803)scale(.9988)"/><use xlink:href="#p" width="33.5" height="25.9" transform="matrix(-.9793 -.2039 .1972 -.709 17.6 19.4)"/><use xlink:href="#az" width="25.4" height="27.4" transform="matrix(-1.0037 -.0668 .0757 -.8591 7.9 -34.75)"/><use xlink:href="#aA" width="21.9" height="20.1" transform="matrix(-1.0698 .1127 .224 1.0944 24.2 -34.75)"/><use xlink:href="#s" width="34.6" height="27.8" transform="matrix(-.8172 .0861 .1908 .932 36.75 -24.4)"/><use xlink:href="#aB" width="50.9" height="50.5" transform="matrix(.9994 -.1543 -.001 .999 -35.35 -15.1)"/><use xlink:href="#p" width="33.5" height="25.9" transform="matrix(.9597 -.6805 -.4723 -.7043 -90.45 6.35)"/><use xlink:href="#az" width="25.4" height="27.4" transform="matrix(1.0438 -.5276 -.456 -1.0102 -71.05 11.6)"/><use xlink:href="#aA" width="21.9" height="20.1" transform="matrix(.4619 -.988 -.988 -.4619 -45.45 20.65)"/><use xlink:href="#s" width="34.6" height="27.8" transform="matrix(.3529 -.7548 -.8414 -.3934 -55.8 31.95)"/><use xlink:href="#H" width="25.5" height="25.7" transform="rotate(-3.034 -77.38 210.532)scale(.9996)"/><use xlink:href="#I" width="43.9" height="20.8" transform="rotate(6.025 -38.75 -754.433)scale(.9994)"/></g></g><g clip-path="url(#aD)"><g transform="translate(292.35 701.1)"><use xlink:href="#ay" width="122.3" height="86.8" transform="rotate(10.762 397.8 -512.755)scale(.9988)"/><use xlink:href="#p" width="33.5" height="25.9" transform="matrix(-.9793 -.2039 .1972 -.709 14 16.4)"/><use xlink:href="#az" width="25.4" height="27.4" transform="matrix(-1.0037 -.0668 .0757 -.8591 7.65 -42)"/><use xlink:href="#aA" width="21.9" height="20.1" transform="matrix(-1.0698 .1127 .224 1.0944 23.95 -42)"/><use xlink:href="#s" width="34.6" height="27.8" transform="matrix(-.8172 .0861 .1908 .932 33.8 -24.4)"/><use xlink:href="#aB" width="50.9" height="50.5" transform="matrix(.9994 -.1543 -.001 .999 -40.25 -23.65)"/><use xlink:href="#p" width="33.5" height="25.9" transform="matrix(.9597 -.6805 -.4723 -.7043 -93.4 5)"/><use xlink:href="#az" width="25.4" height="27.4" transform="matrix(1.0438 -.5276 -.456 -1.0102 -71.3 4.35)"/><use xlink:href="#aA" width="21.9" height="20.1" transform="matrix(.4619 -.988 -.988 -.4619 -45.7 13.4)"/><use xlink:href="#s" width="34.6" height="27.8" transform="matrix(.3529 -.7548 -.8414 -.3934 -56.05 24.7)"/><use xlink:href="#H" width="25.5" height="25.7" transform="rotate(-6.257 -144.286 113.236)scale(.9993)"/><use xlink:href="#I" width="43.9" height="20.8" transform="rotate(12.055 31.468 -384.466)scale(.9988)"/></g></g><g clip-path="url(#aE)"><g transform="translate(466.35 701.1)"><use xlink:href="#ay" width="122.3" height="86.8" transform="rotate(10.762 436.16 -517.707)scale(.9988)"/><use xlink:href="#p" width="33.5" height="25.9" transform="matrix(-.9793 -.2039 .1972 -.709 10.45 13.4)"/><use xlink:href="#az" width="25.4" height="27.4" transform="matrix(-1.0037 -.0668 .0757 -.8591 7.4 -49.25)"/><use xlink:href="#aA" width="21.9" height="20.1" transform="matrix(-1.0698 .1127 .224 1.0944 23.7 -49.25)"/><use xlink:href="#s" width="34.6" height="27.8" transform="matrix(-.8172 .0861 .1908 .932 30.9 -24.45)"/><use xlink:href="#aB" width="50.9" height="50.5" transform="matrix(.9994 -.1543 -.001 .999 -45.2 -32.2)"/><use xlink:href="#p" width="33.5" height="25.9" transform="matrix(.9597 -.6805 -.4723 -.7043 -96.3 3.65)"/><use xlink:href="#az" width="25.4" height="27.4" transform="matrix(1.0438 -.5276 -.456 -1.0102 -71.55 -2.9)"/><use xlink:href="#aA" width="21.9" height="20.1" transform="matrix(.4619 -.988 -.988 -.4619 -45.95 6.15)"/><use xlink:href="#s" width="34.6" height="27.8" transform="matrix(.3529 -.7548 -.8414 -.3934 -56.3 17.45)"/><use xlink:href="#H" width="25.5" height="25.7" transform="rotate(-9.292 -168.655 78.577)scale(.999)"/><use xlink:href="#I" width="43.9" height="20.8" transform="rotate(18.279 53.487 -262.079)scale(.9983)"/></g></g><g clip-path="url(#aF)"><g transform="translate(640.35 701.1)"><use xlink:href="#ay" width="122.3" height="86.8" transform="rotate(10.762 474.544 -522.393)scale(.9988)"/><use xlink:href="#p" width="33.5" height="25.9" transform="matrix(-.9793 -.2039 .1972 -.709 6.85 10.35)"/><use xlink:href="#az" width="25.4" height="27.4" transform="matrix(-1.0037 -.0668 .0757 -.8591 7.2 -56.5)"/><use xlink:href="#aA" width="21.9" height="20.1" transform="matrix(-1.0698 .1127 .224 1.0944 23.5 -56.5)"/><use xlink:href="#s" width="34.6" height="27.8" transform="matrix(-.8172 .0861 .1908 .932 27.95 -24.5)"/><use xlink:href="#aB" width="50.9" height="50.5" transform="matrix(.9994 -.1543 -.001 .999 -50.15 -40.75)"/><use xlink:href="#p" width="33.5" height="25.9" transform="matrix(.9597 -.6805 -.4723 -.7043 -99.25 2.3)"/><use xlink:href="#az" width="25.4" height="27.4" transform="matrix(1.0438 -.5276 -.456 -1.0102 -71.75 -10.15)"/><use xlink:href="#aA" width="21.9" height="20.1" transform="matrix(.4619 -.988 -.988 -.4619 -46.15 -1.1)"/><use xlink:href="#s" width="34.6" height="27.8" transform="matrix(.3529 -.7548 -.8414 -.3934 -56.5 10.2)"/><use xlink:href="#H" width="25.5" height="25.7" transform="rotate(-12.52 -178.586 57.441)scale(.9987)"/><use xlink:href="#I" width="43.9" height="20.8" transform="rotate(24.315 63.683 -206.07)scale(.9977)"/></g></g><g clip-path="url(#aG)"><g transform="translate(814.35 701.1)"><use xlink:href="#ay" width="122.3" height="86.8" transform="rotate(10.762 512.904 -527.346)scale(.9988)"/><use xlink:href="#p" width="33.5" height="25.9" transform="matrix(-.9793 -.2039 .1972 -.709 3.25 7.35)"/><use xlink:href="#az" width="25.4" height="27.4" transform="matrix(-1.0037 -.0668 .0757 -.8591 6.95 -63.75)"/><use xlink:href="#aA" width="21.9" height="20.1" transform="matrix(-1.0698 .1127 .224 1.0944 23.25 -63.75)"/><use xlink:href="#s" width="34.6" height="27.8" transform="matrix(-.8172 .0861 .1908 .932 25.05 -24.5)"/><use xlink:href="#aB" width="50.9" height="50.5" transform="matrix(.9994 -.1543 -.001 .999 -55.05 -49.3)"/><use xlink:href="#p" width="33.5" height="25.9" transform="matrix(.9597 -.6805 -.4723 -.7043 -102.15 .95)"/><use xlink:href="#az" width="25.4" height="27.4" transform="matrix(1.0438 -.5276 -.456 -1.0102 -72 -17.4)"/><use xlink:href="#aA" width="21.9" height="20.1" transform="matrix(.4619 -.988 -.988 -.4619 -46.4 -8.35)"/><use xlink:href="#s" width="34.6" height="27.8" transform="matrix(.3529 -.7548 -.8414 -.3934 -56.75 2.95)"/><use xlink:href="#H" width="25.5" height="25.7" transform="rotate(-15.554 -187.155 43.248)scale(.9984)"/><use xlink:href="#I" width="43.9" height="20.8" transform="rotate(30.358 69.22 -174.795)scale(.9972)"/></g></g><g clip-path="url(#aH)"><g transform="translate(988.35 701.1)"><use xlink:href="#ay" width="122.3" height="86.8" transform="rotate(10.761 551.523 -532.889)scale(.9994)"/><use xlink:href="#p" width="33.5" height="25.9" transform="matrix(-.9799 -.204 .1982 -.7094 -.4 4.35)"/><use xlink:href="#az" width="25.4" height="27.4" transform="matrix(-1.0037 -.0696 .0772 -.8592 6.7 -71)"/><use xlink:href="#aA" width="21.9" height="20.1" transform="matrix(-1.0701 .1135 .2276 1.0944 22.95 -71)"/><use xlink:href="#s" width="34.6" height="27.8" transform="matrix(-.8174 .0867 .1938 .932 22.1 -24.55)"/><use xlink:href="#aB" width="50.9" height="50.5" transform="matrix(.9997 -.1556 -.004 .999 -59.95 -57.8)"/><use xlink:href="#p" width="33.5" height="25.9" transform="matrix(.9609 -.6819 -.4737 -.705 -105.05 -.35)"/><use xlink:href="#az" width="25.4" height="27.4" transform="matrix(1.0448 -.5289 -.4566 -1.0114 -72.3 -24.6)"/><use xlink:href="#aA" width="21.9" height="20.1" transform="matrix(.4632 -.989 -.989 -.4632 -46.7 -15.55)"/><use xlink:href="#s" width="34.6" height="27.8" transform="matrix(.3538 -.7555 -.8422 -.3945 -57.05 -4.3)"/><use xlink:href="#H" width="25.5" height="25.7" transform="rotate(-18.803 -190.052 31.048)scale(.999)"/><use xlink:href="#I" width="43.9" height="20.8" transform="rotate(36.574 71.678 -154.843)scale(.9984)"/></g></g><g clip-path="url(#aI)"><g transform="translate(1162.35 701.1)"><use xlink:href="#ay" width="122.3" height="86.8" transform="rotate(10.761 551.523 -532.889)scale(.9994)"/><use xlink:href="#p" width="33.5" height="25.9" transform="matrix(-.9799 -.204 .1982 -.7094 -.4 4.35)"/><use xlink:href="#az" width="25.4" height="27.4" transform="matrix(-1.0037 -.0696 .0772 -.8592 6.7 -71)"/><use xlink:href="#aA" width="21.9" height="20.1" transform="matrix(-1.0701 .1135 .2276 1.0944 22.95 -71)"/><use xlink:href="#s" width="34.6" height="27.8" transform="matrix(-.8174 .0867 .1938 .932 22.1 -24.55)"/><use xlink:href="#aB" width="50.9" height="50.5" transform="matrix(.9997 -.1556 -.004 .999 -59.95 -57.8)"/><use xlink:href="#p" width="33.5" height="25.9" transform="matrix(.9609 -.6819 -.4737 -.705 -105.05 -.35)"/><use xlink:href="#az" width="25.4" height="27.4" transform="matrix(1.0448 -.5289 -.4566 -1.0114 -72.3 -24.6)"/><use xlink:href="#aA" width="21.9" height="20.1" transform="matrix(.4632 -.989 -.989 -.4632 -46.7 -15.55)"/><use xlink:href="#s" width="34.6" height="27.8" transform="matrix(.3538 -.7555 -.8422 -.3945 -57.05 -4.3)"/><use xlink:href="#H" width="25.5" height="25.7" transform="rotate(-44.903 -123.05 -6.647)scale(.9977)"/><use xlink:href="#I" width="43.9" height="20.8" transform="rotate(57.85 75.202 -129.904)scale(.9973)"/></g></g><g clip-path="url(#aJ)"><g transform="translate(1336.35 701.1)"><use xlink:href="#ay" width="122.3" height="86.8" transform="rotate(10.761 551.523 -532.889)scale(.9994)"/><use xlink:href="#p" width="33.5" height="25.9" transform="matrix(-.9799 -.204 .1982 -.7094 -.4 4.35)"/><use xlink:href="#az" width="25.4" height="27.4" transform="matrix(-1.0037 -.0696 .0772 -.8592 6.7 -71)"/><use xlink:href="#aA" width="21.9" height="20.1" transform="matrix(-1.0701 .1135 .2276 1.0944 22.95 -71)"/><use xlink:href="#s" width="34.6" height="27.8" transform="matrix(-.8174 .0867 .1938 .932 22.1 -24.55)"/><use xlink:href="#aB" width="50.9" height="50.5" transform="matrix(.9997 -.1556 -.004 .999 -59.95 -57.8)"/><use xlink:href="#p" width="33.5" height="25.9" transform="matrix(.9609 -.6819 -.4737 -.705 -105.05 -.35)"/><use xlink:href="#az" width="25.4" height="27.4" transform="matrix(1.0448 -.5289 -.4566 -1.0114 -72.3 -24.6)"/><use xlink:href="#aA" width="21.9" height="20.1" transform="matrix(.4632 -.989 -.989 -.4632 -46.7 -15.55)"/><use xlink:href="#s" width="34.6" height="27.8" transform="matrix(.3538 -.7555 -.8422 -.3945 -57.05 -4.3)"/><use xlink:href="#H" width="25.5" height="25.7" transform="rotate(-56.656 -80.861 -5.883)scale(.996)"/><use xlink:href="#I" width="43.9" height="20.8" transform="rotate(72.982 39.323 -99.104)scale(.9963)"/></g></g><g clip-path="url(#aK)"><g transform="translate(1510.35 701.1)"><use xlink:href="#ay" width="122.3" height="86.8" transform="rotate(10.761 551.523 -532.889)scale(.9994)"/><use xlink:href="#p" width="33.5" height="25.9" transform="matrix(-.9799 -.204 .1982 -.7094 -.4 4.35)"/><use xlink:href="#az" width="25.4" height="27.4" transform="matrix(-1.0037 -.0696 .0772 -.8592 6.7 -71)"/><use xlink:href="#aA" width="21.9" height="20.1" transform="matrix(-1.0701 .1135 .2276 1.0944 22.95 -71)"/><use xlink:href="#s" width="34.6" height="27.8" transform="matrix(-.8174 .0867 .1938 .932 22.1 -24.55)"/><use xlink:href="#aB" width="50.9" height="50.5" transform="matrix(.9997 -.1556 -.004 .999 -59.95 -57.8)"/><use xlink:href="#p" width="33.5" height="25.9" transform="matrix(.9609 -.6819 -.4737 -.705 -105.05 -.35)"/><use xlink:href="#az" width="25.4" height="27.4" transform="matrix(1.0448 -.5289 -.4566 -1.0114 -72.3 -24.6)"/><use xlink:href="#aA" width="21.9" height="20.1" transform="matrix(.4632 -.989 -.989 -.4632 -46.7 -15.55)"/><use xlink:href="#s" width="34.6" height="27.8" transform="matrix(.3538 -.7555 -.8422 -.3945 -57.05 -4.3)"/><use xlink:href="#H" width="25.5" height="25.7" transform="rotate(-68.42 -53.474 -2.965)scale(.9962)"/><use xlink:href="#I" width="43.9" height="20.8" transform="rotate(88.219 16.41 -75.237)scale(.9972)"/></g></g><g clip-path="url(#aL)"><g transform="translate(1684.35 701.1)"><use xlink:href="#ay" width="122.3" height="86.8" transform="rotate(10.761 551.523 -532.889)scale(.9994)"/><use xlink:href="#p" width="33.5" height="25.9" transform="matrix(-.9799 -.204 .1982 -.7094 -.4 4.35)"/><use xlink:href="#az" width="25.4" height="27.4" transform="matrix(-1.0037 -.0696 .0772 -.8592 6.7 -71)"/><use xlink:href="#aA" width="21.9" height="20.1" transform="matrix(-1.0701 .1135 .2276 1.0944 22.95 -71)"/><use xlink:href="#s" width="34.6" height="27.8" transform="matrix(-.8174 .0867 .1938 .932 22.1 -24.55)"/><use xlink:href="#aB" width="50.9" height="50.5" transform="matrix(.9997 -.1556 -.004 .999 -59.95 -57.8)"/><use xlink:href="#p" width="33.5" height="25.9" transform="matrix(.9609 -.6819 -.4737 -.705 -105.05 -.35)"/><use xlink:href="#az" width="25.4" height="27.4" transform="matrix(1.0448 -.5289 -.4566 -1.0114 -72.3 -24.6)"/><use xlink:href="#aA" width="21.9" height="20.1" transform="matrix(.4632 -.989 -.989 -.4632 -46.7 -15.55)"/><use xlink:href="#s" width="34.6" height="27.8" transform="matrix(.3538 -.7555 -.8422 -.3945 -57.05 -4.3)"/><use xlink:href="#H" width="25.5" height="25.7" transform="rotate(-79.991 -34.876 1.204)scale(.9966)"/><use xlink:href="#I" width="43.9" height="20.8" transform="rotate(103.26 1.273 -55.443)scale(.9966)"/></g></g><g clip-path="url(#aM)"><g transform="translate(1858.35 701.1)"><use xlink:href="#ay" width="122.3" height="86.8" transform="rotate(10.761 551.523 -532.889)scale(.9994)"/><use xlink:href="#p" width="33.5" height="25.9" transform="matrix(-.9799 -.204 .1982 -.7094 -.4 4.35)"/><use xlink:href="#az" width="25.4" height="27.4" transform="matrix(-1.0037 -.0696 .0772 -.8592 6.7 -71)"/><use xlink:href="#aA" width="21.9" height="20.1" transform="matrix(-1.0701 .1135 .2276 1.0944 22.95 -71)"/><use xlink:href="#s" width="34.6" height="27.8" transform="matrix(-.8174 .0867 .1938 .932 22.1 -24.55)"/><use xlink:href="#aB" width="50.9" height="50.5" transform="matrix(.9997 -.1556 -.004 .999 -59.95 -57.8)"/><use xlink:href="#p" width="33.5" height="25.9" transform="matrix(.9609 -.6819 -.4737 -.705 -105.05 -.35)"/><use xlink:href="#az" width="25.4" height="27.4" transform="matrix(1.0448 -.5289 -.4566 -1.0114 -72.3 -24.6)"/><use xlink:href="#aA" width="21.9" height="20.1" transform="matrix(.4632 -.989 -.989 -.4632 -46.7 -15.55)"/><use xlink:href="#s" width="34.6" height="27.8" transform="matrix(.3538 -.7555 -.8422 -.3945 -57.05 -4.3)"/><use xlink:href="#H" width="25.5" height="25.7" transform="rotate(-91.546 -21.669 5.999)scale(.9969)"/><use xlink:href="#I" width="43.9" height="20.8" transform="rotate(118.325 -8.927 -37.985)scale(.9958)"/></g></g><g clip-path="url(#aN)"><g transform="translate(2032.35 701.1)"><use xlink:href="#ay" width="122.3" height="86.8" transform="rotate(10.761 551.523 -532.889)scale(.9994)"/><use xlink:href="#p" width="33.5" height="25.9" transform="matrix(-.9799 -.204 .1982 -.7094 -.4 4.35)"/><use xlink:href="#az" width="25.4" height="27.4" transform="matrix(-1.0037 -.0696 .0772 -.8592 6.7 -71)"/><use xlink:href="#aA" width="21.9" height="20.1" transform="matrix(-1.0701 .1135 .2276 1.0944 22.95 -71)"/><use xlink:href="#s" width="34.6" height="27.8" transform="matrix(-.8174 .0867 .1938 .932 22.1 -24.55)"/><use xlink:href="#aB" width="50.9" height="50.5" transform="matrix(.9997 -.1556 -.004 .999 -59.95 -57.8)"/><use xlink:href="#p" width="33.5" height="25.9" transform="matrix(.9609 -.6819 -.4737 -.705 -105.05 -.35)"/><use xlink:href="#az" width="25.4" height="27.4" transform="matrix(1.0448 -.5289 -.4566 -1.0114 -72.3 -24.6)"/><use xlink:href="#aA" width="21.9" height="20.1" transform="matrix(.4632 -.989 -.989 -.4632 -46.7 -15.55)"/><use xlink:href="#s" width="34.6" height="27.8" transform="matrix(.3538 -.7555 -.8422 -.3945 -57.05 -4.3)"/><use xlink:href="#H" width="25.5" height="25.7" transform="rotate(256.709 -12.293 11.232)scale(.996)"/><use xlink:href="#I" width="43.9" height="20.8" transform="rotate(133.592 -15.524 -21.985)scale(.9956)"/></g></g><g clip-path="url(#aO)"><g transform="translate(2206.35 701.1)"><use xlink:href="#ay" width="122.3" height="86.8" transform="rotate(10.761 551.523 -532.889)scale(.9994)"/><use xlink:href="#p" width="33.5" height="25.9" transform="matrix(-.9799 -.204 .1982 -.7094 -.4 4.35)"/><use xlink:href="#az" width="25.4" height="27.4" transform="matrix(-1.0037 -.0696 .0772 -.8592 6.7 -71)"/><use xlink:href="#aA" width="21.9" height="20.1" transform="matrix(-1.0701 .1135 .2276 1.0944 22.95 -71)"/><use xlink:href="#s" width="34.6" height="27.8" transform="matrix(-.8174 .0867 .1938 .932 22.1 -24.55)"/><use xlink:href="#aB" width="50.9" height="50.5" transform="matrix(.9997 -.1556 -.004 .999 -59.95 -57.8)"/><use xlink:href="#p" width="33.5" height="25.9" transform="matrix(.9609 -.6819 -.4737 -.705 -105.05 -.35)"/><use xlink:href="#az" width="25.4" height="27.4" transform="matrix(1.0448 -.5289 -.4566 -1.0114 -72.3 -24.6)"/><use xlink:href="#aA" width="21.9" height="20.1" transform="matrix(.4632 -.989 -.989 -.4632 -46.7 -15.55)"/><use xlink:href="#s" width="34.6" height="27.8" transform="matrix(.3538 -.7555 -.8422 -.3945 -57.05 -4.3)"/><use xlink:href="#H" width="25.5" height="25.7" transform="rotate(244.924 -5.775 16.702)scale(.9966)"/><use xlink:href="#I" width="43.9" height="20.8" transform="rotate(148.658 -19.158 -7.074)scale(.9972)"/></g></g></svg>