<svg xmlns="http://www.w3.org/2000/svg" xmlns:xlink="http://www.w3.org/1999/xlink" width="743" height="41" viewBox="0 0 743 41"><defs><clipPath id="f"><path d="M1 1h52v39H1z"/></clipPath><clipPath id="l"><path d="M54 1h52v39H54z"/></clipPath><clipPath id="m"><path d="M107 1h52v39h-52z"/></clipPath><clipPath id="n"><path d="M160 1h52v39h-52z"/></clipPath><clipPath id="o"><path d="M213 1h52v39h-52z"/></clipPath><clipPath id="p"><path d="M266 1h52v39h-52z"/></clipPath><clipPath id="q"><path d="M319 1h52v39h-52z"/></clipPath><clipPath id="r"><path d="M372 1h52v39h-52z"/></clipPath><clipPath id="s"><path d="M425 1h52v39h-52z"/></clipPath><clipPath id="t"><path d="M478 1h52v39h-52z"/></clipPath><clipPath id="u"><path d="M531 1h52v39h-52z"/></clipPath><clipPath id="v"><path d="M584 1h52v39h-52z"/></clipPath><clipPath id="w"><path d="M637 1h52v39h-52z"/></clipPath><clipPath id="x"><path d="M690 1h52v39h-52z"/></clipPath><use xlink:href="#a" id="k" width="16.6" height="19.2"/><use xlink:href="#b" id="j" width="17.5" height="19.1"/><use xlink:href="#c" id="i" width="30.9" height="27.4"/><use xlink:href="#d" id="h" width="20.9" height="13.4"/><use xlink:href="#e" id="g" width="62" height="13.8"/><g id="a"><path fill="#ffd09b" d="m9.6.8.3.1q3.7 1.7 5.7 6.6 1 2.6 1 4.8-5.5 4.2-14.7 3.9l-.3-.6-1.2-3.8L0 8.2l.4-1.7Q4 2.1 9.5.8"/><path fill="#d7a873" d="M16.6 12.3q-.1 4.2-4.1 6.8h-.1q-4.4.4-8-1-1.5-.5-2.5-2 9.2.4 14.7-3.8"/><path fill="#fff4bf" d="M.4 6.5Q1 4.6 3 2.3L5.3 0q2.4 0 4.3.8Q4.1 2 .4 6.5"/><path fill="none" stroke="#000" stroke-linecap="round" stroke-linejoin="round" stroke-opacity=".3" stroke-width="__RESOLUTION__" d="m9.6.8.3.1q3.7 1.7 5.7 6.6 1 2.6 1 4.8-.1 4.2-4.1 6.8h-.1q-4.4.4-8-1-1.5-.5-2.5-2l-.4-.5-1.1-3.8L0 8.2l.4-1.7Q1 4.6 3 2.3L5.3 0q2.4 0 4.3.8" vector-effect="non-scaling-stroke"/></g><g id="b"><path fill="#ffd09b" d="M11.5 1q1.1.5 2.2 1.5 2.6 2.3 3.4 5.3l.2 1.4.1.1-4.2 2.5-.7-2.1Q10.8 5 7.4 3.5l-1-.4q1.2-1.6 5-2.1"/><path fill="#fff4bf" d="M11.5 1q-4 .5-5.1 2l-3.5-.3Q4.4 1.2 6.8.4l2-.4q1.4.2 2.8 1"/><path fill="#da8864" d="m6.4 3.1 1 .4q3.4 1.6 5.1 6.2l.7 2.1-2.5-1.1q-.6-3-3.3-4.4-3.2-1.8-4.9.8L.7 6.3l.6-1.4L3 2.8z"/><path fill="#d7a873" d="m13.2 11.8 4.2-2.5q.6 4.5-2.6 8l-.5.3-3.5 1.5q2.1-1 2.5-3.8.3-1.5-.2-3.5"/><path fill="#b2603c" d="M10.8 19.1H9.4q-2.3 0-4.1-1Q3 16.7 1.7 15-1 11.4.7 6.3l1.8.8q-1 1.3-1.1 4v.3q.2 2.8 4.8 5.5h1.2q2.9-.1 3.5-4l-.2-2.2 2.5 1.1q.5 2 .2 3.5-.4 2.8-2.6 3.8"/><path fill="#710000" d="m10.7 10.7.2 2.2q-.6 3.8-3.5 4H6.1q-4.5-2.7-4.7-5.5v-.3q0-2.7 1.1-4z"/><path fill="#990505" d="M2.5 7.1q1.7-2.6 4.9-.8 2.7 1.5 3.3 4.4z"/><path fill="none" stroke="#000" stroke-linecap="round" stroke-linejoin="round" stroke-opacity=".3" stroke-width="__RESOLUTION__" d="M17.4 9.3 17 7.8q-.8-3-3.4-5.3-1.1-1-2.3-1.5Q10 .2 8.6 0M6.4 3.1l1 .4q3.4 1.6 5.1 6.2l.7 2.1q.5 2 .2 3.5-.5 2.8-2.6 3.8l3.5-1.5.5-.3q3.2-3.5 2.6-8m-6.6 9.8H9.3q-2.2 0-4-1Q3 16.7 1.7 15-1 11.4.6 6.3l.6-1.4m9.4 5.8.2 2.2q-.6 3.8-3.5 4H6.1q-4.5-2.7-4.7-5.5v-.3q0-2.7 1.1-4v0q1.7-2.6 4.9-.8 2.7 1.5 3.3 4.4M6.4 3.1 3 2.8" vector-effect="non-scaling-stroke"/><path fill="none" stroke="#000" stroke-linecap="round" stroke-linejoin="round" stroke-opacity=".4" stroke-width="__RESOLUTION__" d="M1.3 4.9 3 2.8Q4.4 1.2 6.7.4l2-.4" vector-effect="non-scaling-stroke"/><path fill="#fffed7" d="M4.7 13.2q-.7-.7-1-1.7v-.1q0-1.5 1.3-2.2Q6.7 9 7.5 11q.6 2-1.3 3.2-.8-.1-1.5-1"/><path fill="none" stroke="#000" stroke-linecap="round" stroke-linejoin="round" stroke-opacity=".3" stroke-width="__RESOLUTION__" d="M4.7 13.2q.7.9 1.5 1Q8.1 13 7.5 11 6.7 9.1 5 9.2q-1.3.7-1.3 2.2v.1q.3 1 1 1.7" vector-effect="non-scaling-stroke"/></g><g id="c"><path fill="#edbe89" d="M15.2 1.3q2.8.3 5.9 2 2.3 2.3 5.2 6.3 4 5 4.5 8.4.9 6.9-6.8 9.2-1.8.5-6.5-.1 6.8-3.5 5.1-12-5-6.2-7.4-13.8"/><path fill="#ffd09b" d="M17.6 27.1Q12 26.4 2.3 24 1 23 .5 21.6 3 11.9 10.5 2q2.2-1 4.6-.7 2.4 7.6 7.5 13.8 1.6 8.5-5.1 12"/><path fill="#fff4bf" d="M.5 21.6q-.5-1.3-.5-3-.2-.8 2.2-6.3Q3.7 8 8.3 3.5q1.1-1 2.3-1.5Q3.1 11.9.5 21.6"/><path fill="none" stroke="#000" stroke-linecap="round" stroke-linejoin="round" stroke-opacity=".4" stroke-width="__RESOLUTION__" d="M15.2 1.3q2.8.3 5.9 2 2.3 2.3 5.2 6.3 4 5 4.5 8.4.9 6.9-6.8 9.2-1.8.5-6.5-.1Q12 26.4 2.3 24 1 23 .5 21.6t-.5-3q-.2-.8 2.2-6.3Q3.7 8 8.3 3.5q1.1-1 2.3-1.5 2.2-1 4.6-.7" vector-effect="non-scaling-stroke"/><path fill="#ffd09b" d="m10.2 1.8-.7 2.4Q6.3.6 2 1q2.3-2.2 8.2.8"/><path fill="#ffbb92" d="m9.5 4.2-4.6 3Q1.6 1.4 1.9 1 6.4.6 9.6 4.2"/><path fill="none" stroke="#857358" stroke-linecap="round" stroke-linejoin="round" stroke-width="__RESOLUTION__" d="M4.9 7.2Q1.6 1.4 1.9 1q2.4-2.2 8.3.8" vector-effect="non-scaling-stroke"/><path fill="#ffd09b" d="m18.4 4 2.2-1.4q3-1.6 4.1-1.2 1.1.2 1.3 1.2l.2 2q.1 2.9-.7 4.1l-.7-.5q.7-2.1.1-5.2-3.3-.5-5.8 2z"/><path fill="#ffbb92" d="M19.2 5q2.4-2.4 5.7-2 .6 3-.1 5.2z"/><path fill="none" stroke="#857358" stroke-linecap="round" stroke-linejoin="round" stroke-width="__RESOLUTION__" d="M25.5 8.7q.8-1.2.8-4L26 2.4q-.2-1-1.3-1.2-1.1-.3-4.1 1.3L18.4 4" vector-effect="non-scaling-stroke"/><path fill="#fffed7" d="M8.9 9.7q.6.8 1 3 .6 2-.1 5.2-3.1-1.1-5.3-3.2.4-3.6 4.4-5"/><path fill="#fffffb" d="M4.5 14.7 2.4 12q.5-1 2.6-2.3t3.7-.2l.1.2q-4 1.4-4.4 5"/><path fill="none" stroke="#000" stroke-linecap="round" stroke-linejoin="round" stroke-opacity=".3" stroke-width="__RESOLUTION__" d="M8.9 9.7q.6.8 1 3 .6 2-.1 5.2-3.1-1.1-5.3-3.2L2.4 12q.5-1 2.6-2.3t3.7-.2v0" vector-effect="non-scaling-stroke"/><path fill="#ffb5ab" fill-opacity=".5" d="m1.5 14.1 1.6.3 1.4 1q.5.7.3 1.1t-.9.5l-1.7-.3q-.8-.3-1.3-1t-.4-1 1-.6M20 18.7q1.1-.5 3-.8l3.5-.2q1.3.2 1.4.7.2.5-1 1l-3.2 1-3.3.1q-1.5-.1-1.7-.6t1.3-1.1"/><path fill="#000" d="M8.2 15.5q.2-.4.7-.4l.9.2q.4.3.5.8.2.5-.1 1l-.7.5-1-.3-.6-.8z"/><path fill="#fffffb" d="M16.9 11.7q2.4-.5 5.5 1T26 15l-3.8 1.6q.1-2.9-5.6-4.9z"/><path fill="#fffed7" d="M16.7 11.8q5.6 1.9 5.4 4.7-3.8 1.2-8.7 1.5-.3-2.7 1-4.2 1.2-1.6 2.2-2"/><path fill="none" stroke="#000" stroke-linecap="round" stroke-linejoin="round" stroke-opacity=".3" stroke-width="__RESOLUTION__" d="M22.2 16.6 26 15q-.5-1-3.6-2.4-3.1-1.5-5.4-1h-.1m5.3 5q-3.8 1.1-8.8 1.4-.2-2.7 1-4.2 1.3-1.6 2.3-2" vector-effect="non-scaling-stroke"/><path fill="#000" d="M14.2 18.3q-.5 0-1-.4l-.5-.9q-.1-.5.2-1 .2-.5.7-.5l1 .4q.4.4.5 1t-.2.9z"/></g><g id="d"><path fill="#c99a65" d="M8.3 1.2 12.2 0l4.6 4.5q3.7 3.1 4 5.3.3 1.3-1.7 3Q11.8 7.5 8.2 1.2"/><path fill="#8c5847" d="M2.3 8q-.2-.8 0-1.6l1.3-2.1q.9-.7 1.8-.5l.6.1q-3 3-2.1 5.5-1 0-1.3-1zm8.3-3.5q1 5 4.1 5.4-.2.5-1 .6t-2-.7l-1.6-2q-.6-1.2-.6-2.4.3-.9 1-1z"/><path fill="#ffece1" d="m6 3.9-.6-.1q-.9-.2-1.8.5l-1.3 2q-.2.8 0 1.7L1 8.8l-1-1q-.3-2.4 3.6-5Q7.2.3 8.9.6q1.1.2 2.3 1.1Q8 2.6 7 4.9l-.1-.2z"/><path fill="#ffb6ab" d="m2.3 8 .3.4q.2 1 1.2 1t1.8-.6q.8-.9 1.1-2 .3-1 .2-1.9 1-2.3 4.3-3.2L15 5q2.1 2 4 6.5.9 2.8-6.1 1.4-6.8-1.3-9-2.3L1 9zm12.3 2 .1-.6q.2-.9-.4-2-.6-1.3-1.8-2.2-1-.9-1.9-.8h-.1q-.8.2-1.1 1.1 0 1.1.6 2.4l1.6 2q1.1.8 2 .7.8 0 1-.7"/><path fill="#562211" d="M3.9 9.4q-1-2.4 2-5.5l.8.8.2.2q.2.9-.2 1.9-.3 1.1-1.1 2-.9.6-1.7.6m10.7.6q-3-.4-4.1-5.4l.1-.1q1-.2 1.9.7 1.2.9 1.8 2.2.6 1.1.4 2z"/><path fill="none" stroke="#36231f" stroke-linecap="round" stroke-linejoin="round" stroke-opacity=".3" stroke-width="__RESOLUTION__" d="M11.3 1.7Q10 .8 8.8.6 7.3.3 3.6 2.8-.2 5.4.1 7.8l.9 1 3 1.8q2 1 8.9 2.4t6.1-1.6Q17.2 7 15 5z" vector-effect="non-scaling-stroke"/></g><path id="e" fill="#bc2b2b" d="M29.3-4.2 19.7-1Q9.6 2 8 2.3q-2.2.2-11.3 2.4-8.2 2-14.1 2.2-4.3.2-8.4-1.4l-4.5-2.1q-1.3-.4 0-2t4.7-2.6q5.3-1.3 26.9-4.7l12.9-1q6.7 0 1.8 1.3-1 1.1 10.8.1l3.8-.3q1.2.5-1.3 1.5" transform="translate(31 6.9)"/></defs><g clip-path="url(#f)"><g transform="translate(23.7 32.55)"><use xlink:href="#g" width="62" height="13.8" transform="matrix(-.6474 .0394 -.0156 -1.027 19.95 3.15)"/><use xlink:href="#h" width="20.9" height="13.4" transform="matrix(-1 0 0 1 28.55 -14.5)"/><use xlink:href="#i" width="30.9" height="27.4" transform="translate(-7.5 -28.15)"/><use xlink:href="#j" width="17.5" height="19.1" transform="matrix(1.3763 0 0 1.3438 -9.5 -24.15)"/><use xlink:href="#j" width="17.5" height="19.1" transform="matrix(1.2429 0 0 1.4264 -15.55 -22)"/><use xlink:href="#k" width="16.6" height="19.2" transform="translate(-18.95 -13.45)"/></g></g><g clip-path="url(#l)"><g transform="translate(76.7 32.55)"><use xlink:href="#g" width="62" height="13.8" transform="matrix(-.6474 .0394 -.0156 -1.027 19.95 3.15)"/><use xlink:href="#h" width="20.9" height="13.4" transform="matrix(-1 0 0 1 27.9 -14.5)"/><use xlink:href="#i" width="30.9" height="27.4" transform="matrix(1 0 .0179 1.0009 -8.4 -28.2)"/><use xlink:href="#j" width="17.5" height="19.1" transform="matrix(1.3763 0 0 1.3741 -9 -25.35)"/><use xlink:href="#j" width="17.5" height="19.1" transform="matrix(1.2429 0 0 1.4264 -14.95 -22.95)"/><use xlink:href="#k" width="16.6" height="19.2" transform="translate(-17.9 -14.1)"/></g></g><g clip-path="url(#m)"><g transform="translate(129.7 32.55)"><use xlink:href="#g" width="62" height="13.8" transform="matrix(-.6474 .0394 -.0156 -1.027 19.95 3.15)"/><use xlink:href="#h" width="20.9" height="13.4" transform="matrix(-1 0 0 1 27.2 -14.45)"/><use xlink:href="#i" width="30.9" height="27.4" transform="matrix(1 0 .0358 1.0014 -9.3 -28.2)"/><use xlink:href="#j" width="17.5" height="19.1" transform="matrix(1.3763 0 0 1.4044 -8.6 -26.6)"/><use xlink:href="#j" width="17.5" height="19.1" transform="matrix(1.2429 0 0 1.4264 -14.3 -23.9)"/><use xlink:href="#k" width="16.6" height="19.2" transform="translate(-16.85 -14.8)"/></g></g><g clip-path="url(#n)"><g transform="translate(182.7 32.55)"><use xlink:href="#g" width="62" height="13.8" transform="matrix(-.6474 .0394 -.0156 -1.027 19.95 3.15)"/><use xlink:href="#h" width="20.9" height="13.4" transform="matrix(-1 0 0 1 26.55 -14.45)"/><use xlink:href="#i" width="30.9" height="27.4" transform="matrix(1 0 .057 1.0015 -10.25 -28.25)"/><use xlink:href="#j" width="17.5" height="19.1" transform="matrix(1.3763 0 0 1.4348 -8.15 -27.85)"/><use xlink:href="#j" width="17.5" height="19.1" transform="matrix(1.2429 0 0 1.4264 -13.7 -24.85)"/><use xlink:href="#k" width="16.6" height="19.2" transform="translate(-15.8 -15.45)"/></g></g><g clip-path="url(#o)"><g transform="translate(235.7 32.55)"><use xlink:href="#g" width="62" height="13.8" transform="matrix(-.6474 .0394 -.0156 -1.027 19.95 3.15)"/><use xlink:href="#h" width="20.9" height="13.4" transform="matrix(-1 0 0 1 25.9 -14.45)"/><use xlink:href="#i" width="30.9" height="27.4" transform="matrix(1 0 .075 1.0013 -11.2 -28.35)"/><use xlink:href="#j" width="17.5" height="19.1" transform="matrix(1.3763 0 0 1.4651 -7.75 -29.1)"/><use xlink:href="#j" width="17.5" height="19.1" transform="matrix(1.2429 0 0 1.4264 -13.1 -25.85)"/><use xlink:href="#k" width="16.6" height="19.2" transform="translate(-14.8 -16.15)"/></g></g><g clip-path="url(#p)"><g transform="translate(288.7 32.55)"><use xlink:href="#g" width="62" height="13.8" transform="matrix(-.6474 .0394 -.0156 -1.027 19.95 3.15)"/><use xlink:href="#h" width="20.9" height="13.4" transform="matrix(-1 0 0 1 25.2 -14.4)"/><use xlink:href="#i" width="30.9" height="27.4" transform="matrix(1 0 .0929 1.0009 -12.05 -28.4)"/><use xlink:href="#j" width="17.5" height="19.1" transform="matrix(1.3763 0 0 1.4954 -7.3 -30.4)"/><use xlink:href="#j" width="17.5" height="19.1" transform="matrix(1.2429 0 0 1.4264 -12.45 -26.8)"/><use xlink:href="#k" width="16.6" height="19.2" transform="translate(-13.75 -16.8)"/></g></g><g clip-path="url(#q)"><g transform="translate(341.7 32.55)"><use xlink:href="#g" width="62" height="13.8" transform="matrix(-.6474 .0394 -.0156 -1.027 19.95 3.15)"/><use xlink:href="#h" width="20.9" height="13.4" transform="matrix(-1 0 0 1 24.55 -14.4)"/><use xlink:href="#i" width="30.9" height="27.4" transform="matrix(1 0 .1149 1 -13.05 -28.45)"/><use xlink:href="#j" width="17.5" height="19.1" transform="matrix(1.3763 0 0 1.5258 -7 -31.55)"/><use xlink:href="#j" width="17.5" height="19.1" transform="matrix(1.2429 0 0 1.4264 -11.85 -27.75)"/><use xlink:href="#k" width="16.6" height="19.2" transform="translate(-12.7 -17.5)"/></g></g><g clip-path="url(#r)"><g transform="translate(394.7 32.55)"><use xlink:href="#g" width="62" height="13.8" transform="matrix(-.6474 .0394 -.0156 -1.027 19.95 3.15)"/><use xlink:href="#h" width="20.9" height="13.4" transform="matrix(-1 0 0 1 24.45 -13.4)"/><use xlink:href="#i" width="30.9" height="27.4" transform="matrix(1 0 .1149 1 -13.15 -27.45)"/><use xlink:href="#j" width="17.5" height="19.1" transform="matrix(1.3763 0 0 1.5258 -11.3 -26.05)"/><use xlink:href="#j" width="17.5" height="19.1" transform="matrix(1.2429 0 0 1.4264 -17.95 -21.35)"/><use xlink:href="#k" width="16.6" height="19.2" transform="translate(-22.7 -12.6)"/></g></g><g clip-path="url(#s)"><g transform="translate(447.7 32.55)"><use xlink:href="#g" width="62" height="13.8" transform="matrix(-.6474 .0394 -.0156 -1.027 19.95 3.15)"/><use xlink:href="#h" width="20.9" height="13.4" transform="matrix(-1 0 0 1 24.3 -13.6)"/><use xlink:href="#i" width="30.9" height="27.4" transform="matrix(1 0 .0929 1.0009 -13 -27.6)"/><use xlink:href="#j" width="17.5" height="19.1" transform="matrix(1.3763 0 0 1.5118 -11.2 -26.2)"/><use xlink:href="#j" width="17.5" height="19.1" transform="matrix(1.2429 0 0 1.4264 -17.4 -21.8)"/><use xlink:href="#k" width="16.6" height="19.2" transform="translate(-21.4 -13.25)"/></g></g><g clip-path="url(#t)"><g transform="translate(500.7 32.55)"><use xlink:href="#g" width="62" height="13.8" transform="matrix(-.6474 .0394 -.0156 -1.027 19.95 3.15)"/><use xlink:href="#h" width="20.9" height="13.4" transform="matrix(-1 0 0 1 24.15 -13.8)"/><use xlink:href="#i" width="30.9" height="27.4" transform="matrix(1 0 .075 1.0013 -12.95 -27.75)"/><use xlink:href="#j" width="17.5" height="19.1" transform="matrix(1.3763 0 0 1.4979 -11.1 -26.35)"/><use xlink:href="#j" width="17.5" height="19.1" transform="matrix(1.2429 0 0 1.4264 -16.8 -22.3)"/><use xlink:href="#k" width="16.6" height="19.2" transform="translate(-20.1 -13.9)"/></g></g><g clip-path="url(#u)"><g transform="translate(553.7 32.55)"><use xlink:href="#g" width="62" height="13.8" transform="matrix(-.6474 .0394 -.0156 -1.027 19.95 3.15)"/><use xlink:href="#h" width="20.9" height="13.4" transform="matrix(-1 0 0 1 24 -14)"/><use xlink:href="#i" width="30.9" height="27.4" transform="matrix(1 0 .057 1.0015 -12.8 -27.8)"/><use xlink:href="#j" width="17.5" height="19.1" transform="matrix(1.3763 0 0 1.484 -11 -26.45)"/><use xlink:href="#j" width="17.5" height="19.1" transform="matrix(1.2429 0 0 1.4264 -16.2 -22.75)"/><use xlink:href="#k" width="16.6" height="19.2" transform="translate(-18.8 -14.55)"/></g></g><g clip-path="url(#v)"><g transform="translate(606.7 32.55)"><use xlink:href="#g" width="62" height="13.8" transform="matrix(-.6474 .0394 -.0156 -1.027 19.95 3.15)"/><use xlink:href="#h" width="20.9" height="13.4" transform="matrix(-1 0 0 1 23.85 -14.25)"/><use xlink:href="#i" width="30.9" height="27.4" transform="matrix(1 0 .0358 1.0014 -12.65 -27.95)"/><use xlink:href="#j" width="17.5" height="19.1" transform="matrix(1.3763 0 0 1.4701 -10.95 -26.65)"/><use xlink:href="#j" width="17.5" height="19.1" transform="matrix(1.2429 0 0 1.4264 -15.6 -23.2)"/><use xlink:href="#k" width="16.6" height="19.2" transform="translate(-17.5 -15.25)"/></g></g><g clip-path="url(#w)"><g transform="translate(659.7 32.55)"><use xlink:href="#g" width="62" height="13.8" transform="matrix(-.6474 .0394 -.0156 -1.027 19.95 3.15)"/><use xlink:href="#h" width="20.9" height="13.4" transform="matrix(-1 0 0 1 23.7 -14.45)"/><use xlink:href="#i" width="30.9" height="27.4" transform="matrix(1 0 .0179 1.0009 -12.6 -28.15)"/><use xlink:href="#j" width="17.5" height="19.1" transform="matrix(1.3763 0 0 1.4562 -10.85 -26.75)"/><use xlink:href="#j" width="17.5" height="19.1" transform="matrix(1.2429 0 0 1.4264 -15 -23.7)"/><use xlink:href="#k" width="16.6" height="19.2" transform="translate(-16.2 -15.9)"/></g></g><g clip-path="url(#x)"><g transform="translate(712.7 32.55)"><use xlink:href="#g" width="62" height="13.8" transform="matrix(-.6474 .0394 -.0156 -1.027 19.95 3.15)"/><use xlink:href="#h" width="20.9" height="13.4" transform="matrix(-1 0 0 1 23.55 -14.65)"/><use xlink:href="#i" width="30.9" height="27.4" transform="translate(-12.5 -28.3)"/><use xlink:href="#j" width="17.5" height="19.1" transform="matrix(1.3763 0 0 1.4423 -10.75 -26.9)"/><use xlink:href="#j" width="17.5" height="19.1" transform="matrix(1.2429 0 0 1.4264 -14.35 -24.15)"/><use xlink:href="#k" width="16.6" height="19.2" transform="translate(-14.9 -16.55)"/></g></g></svg>