<svg xmlns="http://www.w3.org/2000/svg" xmlns:xlink="http://www.w3.org/1999/xlink" width="52" height="49" viewBox="0 0 52 49"><defs><use xlink:href="#a" id="q" width="10.8" height="10.5"/><use xlink:href="#b" id="p" width="10.7" height="6.3"/><use xlink:href="#c" id="o" width="9.7" height="11.1"/><use xlink:href="#d" id="n" width="10.3" height="8"/><use xlink:href="#e" id="m" width="31.1" height="35.4"/><use xlink:href="#f" id="l" width="11.8" height="20.8"/><use xlink:href="#g" id="k" width="14.4" height="9.9"/><use xlink:href="#h" id="j" width="11.2" height="6.4"/><g id="a"><path fill="#bfa787" d="M6.3 6.9 3.1 9.6Q2 9.8 1.9 8.2v-1l1.4.8L6 6.3z"/><path fill="#3b3329" d="M6.1 6.3 3.3 8l-1.4-.8 1.4-2.5.3 1.2 2.3-.2z"/><path fill="none" stroke="#453c30" stroke-linecap="round" stroke-linejoin="round" stroke-opacity=".6" stroke-width="__RESOLUTION__" d="M1.9 7.2v1Q2 9.8 3.2 9.7l3.2-2.8M2 7.2l1.4-2.5.3 1.1H6" vector-effect="non-scaling-stroke"/><path fill="#3b3329" d="M3.2 3.5 4 6.4l-2 1-.7-2.7Q1.9 3 3 2.6zL3 2.6q-1 .5-1.7 2l-.1.1L0 4.6q0-1.1.7-1.9 1.3-.8 2.6-.6z"/><path fill="#bfa787" d="m1.3 4.7.8 2.7-.4.2-.2.8-.4-1.8-.7-.2L0 4.6l1.2.1zm-.5.6.4 1.3z"/><path fill="none" stroke="#453c30" stroke-linecap="round" stroke-linejoin="round" stroke-opacity=".6" stroke-width="__RESOLUTION__" d="m4 6.4-.8-3-.2-.8q-1 .5-1.7 2m1.9-1.1V2.2Q2 1.9.6 2.7 0 3.5 0 4.6l.5 1.8.6.2" vector-effect="non-scaling-stroke"/><path fill="none" stroke="#52341b" stroke-linecap="round" stroke-linejoin="round" stroke-opacity=".6" stroke-width="__RESOLUTION__" d="M1.2 4.7h.1m-.2 1.9L.8 5.3m.4 1.3.3 1.8.3-.8" vector-effect="non-scaling-stroke"/><path fill="#99866c" d="m3.5 1.3 1-1.2q1-.2 1.9.5l-.5 1.2zm4.2 3.5L6 6.3l-.5-.8-1.4-2-.7-.8q.9-.9 2.4-.7l1.4 2zm-.5-.7L5.5 5.4z"/><path fill="#3b3329" d="m3.5 1.3 2.5.5V2h-.2q-1.5-.2-2.4.6l.7.9-1.2-.8.5-1.2z"/><path fill="#bfa787" d="M6 1.8 6.4.6l1.3 1.6-.2 1 1.3 1.5-.8-.2-.3.3-.5-.7-1.4-2L6 2z"/><path fill="#a67835" d="M8.8 4.7 8 4.5z"/><path fill="none" stroke="#453c30" stroke-linecap="round" stroke-linejoin="round" stroke-opacity=".6" stroke-width="__RESOLUTION__" d="M6.4.6q-1-.7-2-.6l-1 1.2M6.3.6l1.3 1.6-.1 1 1.3 1.5" vector-effect="non-scaling-stroke"/><path fill="none" stroke="#52341b" stroke-linecap="round" stroke-linejoin="round" stroke-opacity=".6" stroke-width="__RESOLUTION__" d="m5.5 5.5-1.4-2-1.2-.8.5-1.2.1-.2m2.3.8L6 2m-.5 3.5 1.7-1.4" vector-effect="non-scaling-stroke"/><path fill="#bfa787" d="m8.5 4.3.2 1.1q.8 1.9-.6 2.5l-4.8-.7v-.8L8 7z"/><path fill="#99866c" d="M3.4 6.4v-.8L6 4.2l-.1-1.6 2.6 1.7L8 7.1z"/><path fill="none" stroke="#453c30" stroke-linecap="round" stroke-linejoin="round" stroke-opacity=".6" stroke-width="__RESOLUTION__" d="m8.5 4.3.2 1.1q.8 1.9-.6 2.5l-4.8-.7m0-1.6L6 4.2l-.2-1.5" vector-effect="non-scaling-stroke"/><path fill="#bfa787" d="M5 .4q.9.1 1.9.9l.3.9 1.8.9q1.4-.3 1.9 1.6l-.3 5.8-.6-.3-.3-5-1.6-2v.3h-.2L5.2 2h.1z"/><path fill="#99866c" d="m5 .4.3 1.5h-.1L3 1.8 3.3.6Q4.1.2 5.1.4m0 1.6L8 3.6v-.1l.1-.3 1.6 2 .3 5-.5-.2-1.4-3.6L7 6l.2-.3.8-2.2L6 5 4.2 4l-.9-.5q.5-1.2 1.9-1.7"/><path fill="#3b3329" d="M5.2 1.9q-1.4.6-1.9 1.7l.9.4-1.3-.2q-.2-1.1 0-2zM6 5.1l2-1.5-.8 2.2z"/><path fill="none" stroke="#453c30" stroke-linecap="round" stroke-linejoin="round" stroke-opacity=".6" stroke-width="__RESOLUTION__" d="m10.6 10.5.3-5.8q-.5-1.9-2-1.6l-1.7-.9-.3-1Q5.9.7 5.1.5M7 6l1.1.3L9.5 10M4.2 4 6 5.2" vector-effect="non-scaling-stroke"/><path fill="none" stroke="#52341b" stroke-linecap="round" stroke-linejoin="round" stroke-opacity=".6" stroke-width="__RESOLUTION__" d="M8 3.7v-.1M5 .4Q4.2.2 3.4.7l-.3 1q-.3 1-.2 2.1l1.3.3" vector-effect="non-scaling-stroke"/></g><g id="b"><path fill="#736551" d="M0 1.7Q.2.3 1.2 0q1.4 1.2 4 1.3l3-.4q1.7-.1 2.3 1.3.8 2-.6 3.1l-.2.2Q8.5 5.5 6.3 4 3.8 2.4 0 1.7"/><path fill="#5e5342" d="M0 1.7q3.8.7 6.3 2.3 2.2 1.4 3.3 1.4-.8.6-2.3.8-1.2.2-2.9-1.5Q2.5 3 .9 3.7q-1-.8-.9-2"/><path fill="none" stroke="#453c30" stroke-linecap="round" stroke-linejoin="round" stroke-opacity=".6" stroke-width="__RESOLUTION__" d="m9.6 5.5.2-.2q1.4-1 .5-3.1Q9.9.8 8.1.8l-2.8.4Q2.6 1.1 1.2 0" vector-effect="non-scaling-stroke"/></g><g id="c"><path fill="#5e5342" d="M6.7 0Q8 .3 9 .9 5.4 3.3 3.6 7.1v1.5l2 2.5-3.2-.7-.1-.4-.3-.7h.1q.5-.1.7-.5t-.2-1.1-.9-1l-.2-.1q1.2-3 5-6.6"/><path fill="#99866c" d="M6.7 0Q2.8 3.6 1.6 6.6l-.2-.1q-.9 1-.6 2l.3.4L.2 8 0 6.9l.4-.4q.6-2.6 2-4.2Q4.5.2 6.7 0"/><path fill="#736551" d="m1.6 6.6.2.2q.6.3.9.9t.2 1-.7.6h-.5L1.2 9h-.1l-.2-.5q-.3-1 .5-2z"/><path fill="#daa854" d="m2.1 9.3.3.7-.7-.7z"/><path fill="#453c30" d="m5.8 11.1-2-2.5V7Q5.4 3.3 8.9.9q1.8 1.6-.7 6.9.6 1.2.2 2.2zM6 8.3q1.6-.1 2.2-.5-.7.4-2.2.5"/><path fill="none" stroke="#453c30" stroke-linecap="round" stroke-linejoin="round" stroke-opacity=".6" stroke-width="__RESOLUTION__" d="M9 .9Q8 .3 6.5 0q-2 .2-4.1 2.3-1.3 1.6-2 4.2M9 .9q1.7 1.6-.8 6.9.6 1.2.2 2.2l-2.8 1m2.6-3.3q-.7.4-2.2.5" vector-effect="non-scaling-stroke"/></g><g id="d"><path fill="#99866c" d="m8.2 3-1 .8-.1.4h-.4l-.7.1v-.1l.2-.6q1-.8 2-.6M6 4.3l.7-.1-.5.7q-.4.8-.4 1.7l.1.7-.2-.5q-.3-1.1-.1-2.1zm-3.5-.9q1.3-.8 2.4-.4L3 3.5v.6l-1 .1.4-.7zM1.3 6.2v-.5l.3-1.1.5-.4.9-.1z"/><path fill="#736551" d="m7.1 4.2.1-.4 1-.8h.3l.9.5.3.3L9 5.6l-.1.1h-.2Q7 5.6 6.8 7.1V8L6 7.5l-.1-.2-.1-.7q0-.9.4-1.7l.5-.8zM6 4.2l-.4.4q-.2 1 .1 2.1l-.1.2h-.8l.4-.3-.4-1.2h-.2L4.3 5Q3.6 4.1 3 4v-.5l2-.6.2.2.5.3zM2.3 7.9l-.8-.5-.2-1.2L3 4q.6.1 1.3 1l.3.5Q2.9 5.5 2.4 7z"/><path fill="#5e5342" d="M8.2 3q-1-.2-2 .6l-.2.6-.4-.7-.4-.4-.4-.1q-1-.4-2.3.4-1-.8-1.6-.6l.4-.5L2.5 2l1-1.7q3.3-.8 6.5.6.3 1.6.2 4.2.3 1-.1 2h-.9q-1.5 1-2.4.9v-.9q.1-1.5 1.8-1.5H9v-.1l.7-1.6-.2-.3-.9-.5zM.9 2.8q.7-.2 1.6.6h-.1l-.3.8-.5.3-.2 1.1H.8L0 5.1Q-.1 4 .5 3zm3.7 2.7h.2l.4 1.3-.4.2Q3 8 2.3 7.9l.1-.9q.5-1.5 2.2-1.5"/><path fill="none" stroke="#453c30" stroke-linecap="round" stroke-linejoin="round" stroke-opacity=".6" stroke-width="__RESOLUTION__" d="M8.2 3q-1-.2-2 .6l-.2.6v.1M2.6 2l-1.3.2-.4.6m1.6.6q1.3-.8 2.4-.4m.3.1.4.3.4.8M4.8 7h.8l.1-.2M2.1 4.2l.3-.7.1-.1" vector-effect="non-scaling-stroke"/><path fill="none" stroke="#453c30" stroke-linecap="round" stroke-linejoin="round" stroke-opacity=".6" stroke-width="__RESOLUTION__" d="m6 4.3.7-.1H7M6.8 8q.9.1 2.4-.9h.4M.8 2.8q.7-.2 1.6.6m3.2 3.4q-.3-1.1-.1-2.1l.4-.4h0m-.3 2.5.2.5v.2l.9.5M1.4 5.7l-.6-.1-.7-.4Q-.1 4 .5 3l.4-.2m4.3 4-.5.2q-1.6 1-2.4.9l-.8-.5-.2-1.2v-.5l.3-1.1.5-.4.9-.1q.6 0 1.3 1l.3.4" vector-effect="non-scaling-stroke"/></g><g id="e"><path fill="#bfa787" d="m17.4 4 .6-.7 1-.4-.2.8zm2-3 2.2-1 4 .9-1.6.8zm6 2.1 1.7-.2 4 3-2.3-.2-4.3-2.4zM0 6.1l2-2.8 2.3.3-2.2 2.3zM4.6 4l4.2-1.3 1.8.5-4.5 1.2zm10.2-1.6.4-.6 1.6-.2-.5 1zm13.6 4.2.9.6-2.7 1.2L25 6.8l2.3-1zm-5.4 1 1-.4.8.8.9.7-1.8.9L22 8.1l.6-.3zm-8.6 3.7-1 1.4-4-.7.8-1.5.2.1zm-6.3.5H6.8l.6-1.1 1.4-.2z"/><path fill="#3b3329" d="m17.4 4 1.4-.3.2-.8.4-2 4.6.8-.8 4.8-.2.4.1.1-.1.6-.3.2h-.1l-.6.3-.7 5.3.3.3-2.2.3-2 .6-1.3-.2H16v-.3l-1.6-2.8-3.9-.7h-.2l-1 .8-.4-.9-1.4.2-.7 1.2 1.3 3 .1 1L7 14.4l-.8-1.6-.6-1.2-.2.4L3 8.8H.7L1 7.4l2-.2-1-1.3 2.2-2.3.3.5 2.6 3.5.1.2.2.2L6 4.5l4.6-1.2 1.2 2.4.6 1.2.1-.1 2.3-.4V2.5h1.4l.7 2.3v-.1z"/><path fill="#99866c" d="m25.6.9-.2 2.2-.8.2-1.4 3.2.8-4.8zm5.5 5-2.3 3.3.5-2-1-.6.6-.8zM28.5 11l.7 7.3.5 4 .6 6-4.7 5.5-.8-10.2-.6-7.1 1.1-.2 2.2 4-.4-2.3.6-1.6-.5-4.3 1.2-.8zM12 5.6l3-.6v1.3l-2.4.4h-.1zm4.9-4 .1 3v.2l-.7-2.2zm12.3 16.8-1.4-2zM22 8.1l1.9 1.5-1.2 5.4h-.1l-1-1.3-.2-.3zm5 17 .5-4.7z"/><path fill="#8a7961" d="m28.8 9.2-.4 1.9-.1.3-1.2.7-.5.4-3.8 2.5h-.1l1.1-5.4 1.8-.9-.3 1.2 1.3-1.5 2.7-1.2zm-12.7 6.3-.2-.1v.3L13.6 13l-.1-.3.9-1.4 1.5 2.8v.3h.3zm3.3-1.5 2.2-.3 1 1.3-2.5.3zm-9.1-3.4L9.4 12l-.4.2h-.1l-.1-.1-.7-.3.7-1.3.5.9zM8 15.9l.3 1.4-3.1-1.8 1.6-1zM5.3 12l.2-.3.6 1.2-1.8.6-.7-1.2z"/><path fill="#a67835" d="m26.6 12.5-3.2 2.4-.6.1zm-17.7-.3"/><path fill="#987b4e" d="m25.5 33.9-1.1.3-.6-8.3.9-2.2zM7 31.5l-2.2-2.1-1-7.8zm20.1-19.3.6 4.2-.6 1.7.3 2.3-2.1-4-1.2.2-.7-1.7 3.2-2.4zm-11 3.2 1.2.2 2.8-.3-.2 1.6-1.8.8.2 4.2-.9.7-.3-4z"/><path fill="#736551" d="m24.4 34.2-5.5 1.1-.5-1.8-1.7-9.1.7-1.8.9-.7-.2-4.2 1.8-.8.2-1.6 2.5-.3h.1l.7-.1.7 1.7.6 7-.9 2.3z"/><path fill="#5e5342" d="m18.9 35.4-2.4-.4-.4-.4-3-1.2-1.8-7.3-1-.3.4 6.8-1.3.8-1-16.1-.3-1.5L8 15l-1.2-3 1.3-.1.7.3h.1v.1l.5-.3 4 .8.2.3.1.9.8 1.1-.1.3h-1.8v.4l-1.1.1.5 1.3 3 .3 2 1.2.4 4-.7 1.8-.6 1.9.6 2.7 1.7 4.5z"/><path fill="#846b44" d="m16.5 35-7-.8-.1-.8 1.3-.8-.4-6.8 1 .3 1.8 7.3 3 1.2zm-2.9-22 2.3 2.7h-3.3v-.3l1.8-.1.1-.3-.8-1.1zm3.1 11.4 1.7 9.1-1.8-4.4-.6-2.9z"/><path fill="#453c30" d="M9.5 34.2 7 31.5l-3.2-9.9-1.6-10.7 1.4 1.4.7 1.2 1 2 3 1.8 1.1 16.1z"/><path fill="#665a48" d="M2.2 10.9.8 8.8H3L5.3 12l-1.7.3zM.9 7.3 0 6.1l2.1-.2 1 1.3zm3.7-3.2 1.5.4 1.4 3.7V8l-.2-.2-.1-.2zm20-.8 4.2 2.5-.5.8-1-.7-2.4.9 1.7 1.6-1.3 1.6.3-1.2-.8-.8.1-1.2-.1 1.2-.8-.8-1 .4.1-.6-.1-.1.2-.4zM16 15.4v-1l1.2.1 2.1-.5.7 1.3-2.8.3zM6 12.8l.8 1.6-1.6 1.1-1-2z"/><path fill="#8c6d48" d="M15.9 15.4h.2l1 3.2-2-1.2-3.1-.3-.5-1.3h1.1l3.3-.1z"/><path fill="none" stroke="#453c30" stroke-linecap="round" stroke-linejoin="round" stroke-opacity=".6" stroke-width="__RESOLUTION__" d="m19 2.9-1 .4-.6.7 1.4-.3zl.4-2h0l2.2-.9 4 .9-.2 2.2 1.7-.2 4 3-2.3 3.3-.4 1.9h0l-.1.3m-9.4 24-2.4-.4M2.2 10.9.8 8.8 1 7.4 0 6l2-2.7 2.3.3.3.5 2.6 3.5.1.2.2.2m-3-4 4.3-1.2 1.8.4L12 5.6l.5 1.2.1-.1M14.9 5l-.1-2.5.4-.7 1.6-.1m.2 3 .3-.7h.1m8-.9-.8.2-1.4 3.2-.2.4m6.2.3-.9-.6-1-.7-2.4.9h0L24.8 8l-.8-.8-1 .4-.3.2h-.1l-.6.3m7.2-.9-.4 2m-3.5.8 1.3-1.6M17 4.7l-.1.1m-1 10.6h.2v-1H16m-4 2.7-.4-1.3M15 6.3V5m-.5 6.3-4-.7h-.1m-1.5-.1.5.9M7 12l1.2 3 .1 1 .3 1.4 1 16.1M6.7 11.9l.7-1.2 1.4-.2m-5.2 1.8-1.4-1.4" vector-effect="non-scaling-stroke"/><path fill="none" stroke="#453c30" stroke-linecap="round" stroke-linejoin="round" stroke-opacity=".6" stroke-width="__RESOLUTION__" d="m28.4 11 .7 7.3.5 4m.6 6L25.5 34l-1.1.3-5.5 1.2m-2.4-.4-7-.8L7 31.5l-2.2-2.1-1-7.8-1.6-10.7m9.7-5.3 3-.6M27 12.2l.6 4.3 1.4 1.9m-5.7-3.5.7 1.7.6 7m2.8-3.2-.4-2.3.6-1.7m-10.3 6.2-.7 1.8 1.7 9.1m9-13.1-.4 4.8M9.4 33.3l.1.8" vector-effect="non-scaling-stroke"/></g><g id="f"><path fill="#99866c" d="m8.2 1.8 2-1.6q-4.6 10.2-4.8 18-1 0-1-2.1-.4-2.6 1.8-7.4 2.1-5 2-7"/><path fill="#736551" d="m10.3.2.3-.2q.6 0 1.2 1.5-1.5 2.8-2.4 8-1 4.9-2.8 8l-1.2.6q.2-7.7 4.9-18"/><path fill="none" stroke="#453c30" stroke-linecap="round" stroke-linejoin="round" stroke-opacity=".6" stroke-width="__RESOLUTION__" d="M11.8 1.5q-1.5 2.8-2.4 8-1 4.9-2.8 8M4.4 16q-.3-2.6 1.8-7.4 2.2-5 2-7" vector-effect="non-scaling-stroke"/><path fill="#a89536" d="m1.1 16.7 4.5-.5q-.3 2.1-1.6 3.4-2.7.3-4 1.2-.3-2.7 1.1-4.2"/></g><g id="g"><path fill="#bfa787" d="m.4 5 1.3-1.7.8.1 1.3-1.7Q4 0 5.7.1l.3.2L9.1.1 12.4 2l-4.1-.6L5.5 3l-.4-.3.4.3-.7.8-1.7 1.8L4.6 5h.9l.7-.4h.2l.2 1h.1l-1.8 1v-.3l-.4.2L3 5.7h-.1l.1.1h.2L3 5.7l-2-.2.1-.3zm8.7-1.1 1.1-.3 4.3 4.8-4.6-3.3h-3l.5-.9.5-.1H8zm-6.8-.2L1.1 5zl.2-.2v-.1.1l.8.1h.4l.3-.5.7-.9.5-.6v1.1-1.1l-.5.6-1 .5.1-1-.2.9.2.4-.5.6-.8-.1zm2.9-2.1q0-.9.8-1.2-.8.3-.8 1.2"/><path fill="#5e5342" d="m12.4 2 1.1.9H9.3l-1 1L8 4 5.6 3l2.7-1.6zM4 3.2l-.3.4h-.4l.6-.6zm2.3 1.7-.8.4-.8-.1-1.6.5 1.7-1.8z"/><path fill="#99866c" d="m14.5 8.4-1.1.5-3.2-1.5-1.8.9-.1-.1-1.4-3 3-.1zm-6.8 0L6 9.1h-.2l-1 .5.2-2.8 1.8-1zM2.6 9l-.7-.3-1.1-.8Q.3 6.7.9 5.5l2 .3H3h-.2.2-.1l1.7.9zm.2-3.2h.1z"/><path fill="#3b3329" d="m8.3 8.2-.5.2-1.1-2.7-.2-1h-.2l-1.5-.9.8-.8L8 4.1l-.6.1-.5 1zm-2.5 1-1.1.8-.8-.5-1-.3-.3-.2 2-2.2v-.1l.3-.3v.4l-.1 2.8zm-5-1.3L0 7.1Q-.1 6 .4 5l.7.2-.2.3Q.3 6.7.8 7.9m3.9-5.7-.7 1-.1-.2-.2-.3zm-.8 7.3q-.7-.4-1.3-.5.6 0 1.3.5"/><path fill="#855e2a" d="M1.9 8.7.8 7.9z"/><path fill="#daa854" d="m2.3 3.7.2-.2z"/><path fill="#a67835" d="m5.2 2.7.4.3zm-1.5 0-.1-.1.2-.9zM3 5.8h-.2z"/><path fill="none" stroke="#453c30" stroke-linecap="round" stroke-linejoin="round" stroke-opacity=".6" stroke-width="__RESOLUTION__" d="m.4 5 1.3-1.7.8.1 1.3-1.7Q4 0 5.7.1l.3.2L9.1.1 12.4 2m1.1.9H9.3l-1 1H9m1.2-.3 4.3 4.8m-1.1.4-3.2-1.4m-2.4 1-1.9.7-.2.1-1 .8-.9-.5-.9-.3-.3-.2-.8-.3-1-.8-.8-.8Q0 6 .4 5m.7.2 1.2-1.5.2-.2v-.1m3-.4-.4-.3V1.6l-.4.6-.7 1-.4.4h-.3l-.8-.1-.2.2M8 4l.3-.2M3.7 2.6h-.1l.2-.9zl.2.3.1.2M2.9 5.9h.2M.8 5.5Q.3 6.7.7 7.9l1.2.7m4.5-3.8h-.2l-1.4-.9M2.6 9q.6 0 1.3.5M6 .4q-.8.3-.8 1.2M1 5.1l-.1.4" vector-effect="non-scaling-stroke"/></g><g id="h"><path fill="#453c30" d="m6.4 1-.3.2-.2.4-.2.3-1.4.5q-1 1.1-.4 4-2.5-1-3.9-2.3Q.1 2 1.3.7L4.8.5zm4.4 4q-.6.4-2 .4l.8-.6.3-.8.5.4z"/><path fill="#99866c" d="m6.2 1.2.2-.2q.7-.8 2-1l.3.3.2.2H7.8zM8.9.5 8.7.2h.6l.8 1-1-.2zm1.4 1.9.7.9-1-.4-.2-.5-.2-.2.2.1-1.1-.1-1.6.4q.7-.7 2-.7h.1l.4.3h.5z"/><path fill="#736551" d="M4 6.4q-.7-2.9.3-4l1.5-.5.2-.3.2-.4L7.8.5h1L9 1l1.1.2.2 1h-.2l-.4-.1h-.1l-.3-.3H9q-1.3 0-2 .7l1.6-.4 1 .2.3.5 1 .4.2 1q0 .4-.4.7l-.4-.6-.5-.4-.2.8-1 .6-.3.1h-.2zm5.2-4.5L9 1.1zM9.9 4V2.9z"/><path fill="none" stroke="#453c30" stroke-linecap="round" stroke-linejoin="round" stroke-opacity=".6" stroke-width="__RESOLUTION__" d="M8.9.5 8.7.3 8.4 0m.4.3h.5l.8 1 .2 1 .6 1 .3 1q0 .4-.4.7-.6.4-2 .4m-.6.2L4 6.4m5.6-4.2.2.2m-.1-.2h.5l.1.1m-1-.4.3.3" vector-effect="non-scaling-stroke"/><path fill="none" stroke="#453c30" stroke-linecap="round" stroke-linejoin="round" stroke-opacity=".6" stroke-width="__RESOLUTION__" d="m8.8 5.4-.5.1m.5-5L9 1l.1.8m.6.5.2.5V4m-.2.8-1 .6" vector-effect="non-scaling-stroke"/></g><clipPath id="i"><path d="M1 1h50v47H1z"/></clipPath></defs><g clip-path="url(#i)"><g transform="translate(16.8 43.05)"><use xlink:href="#j" width="11.2" height="6.4" transform="translate(-10.6 -7.8)"/><use xlink:href="#k" width="14.4" height="9.9" transform="matrix(1.0004 .0257 -.0625 .8879 -4.5 -42.05)"/><use xlink:href="#l" width="11.8" height="20.8" transform="matrix(-.7737 -.6218 -.4998 .4243 6.2 -30.15)"/><use xlink:href="#m" width="31.1" height="35.4" transform="translate(-15.8 -36.95)"/><use xlink:href="#n" width="10.3" height="8" transform="matrix(-1 0 .125 1 10.2 -3.6)"/><use xlink:href="#o" width="9.7" height="11.1" transform="matrix(-1 0 -.1445 1 10.6 -10)"/><use xlink:href="#p" width="10.7" height="6.3" transform="matrix(-.6947 -.2382 .0525 .9955 14.3 -24.15)"/><use xlink:href="#l" width="11.8" height="20.8" transform="matrix(-.0145 -.9909 -.6446 -.1142 25.3 -15.8)"/><use xlink:href="#q" width="10.8" height="10.5" transform="matrix(.4392 -.8978 .7804 .4258 21.15 -24.15)"/></g></g></svg>